<?xml version="1.0" encoding="UTF-8" standalone="no"?>
<!DOCTYPE svg PUBLIC "-//W3C//DTD SVG 1.1//EN"
 "http://www.w3.org/Graphics/SVG/1.1/DTD/svg11.dtd">
<!-- Generated by graphviz version 12.2.1 (20241206.2353)
 -->
<!-- Title: mimic++/reporting/NoMatchReport.hpp Pages: 1 -->
<!--zoomable 581 -->

<svg id="main" version="1.1" xmlns="http://www.w3.org/2000/svg" xmlns:xlink="http://www.w3.org/1999/xlink" xml:space="preserve" onload="init(evt)">

<style type="text/css"><![CDATA[
.node, .edge {opacity: 0.7;}
.node.selected, .edge.selected {opacity: 1;}
.edge:hover path { stroke: red; }
.edge:hover polygon { stroke: red; fill: red; }
]]></style>

<defs>
  <circle id="rim" cx="0" cy="0" r="7"/>
  <circle id="rim2" cx="0" cy="0" r="3.5"/>
  <g id="zoomPlus">
    <use xlink:href="#rim" fill="#404040"><set attributeName="fill" to="#808080" begin="zoomplus.mouseover" end="zoomplus.mouseout"/></use>
    <path d="M-4,0h8M0,-4v8" fill="none" stroke="white" stroke-width="1.5" pointer-events="none"/>
  </g>
  <g id="zoomMin">
    <use xlink:href="#rim" fill="#404040"><set attributeName="fill" to="#808080" begin="zoomminus.mouseover" end="zoomminus.mouseout"/></use>
    <path d="M-4,0h8" fill="none" stroke="white" stroke-width="1.5" pointer-events="none"/>
  </g>
  <g id="arrowUp" transform="translate(30 24)">
    <use xlink:href="#rim"/>
    <path pointer-events="none" fill="none" stroke="white" stroke-width="1.5" d="M0,-3.0v7 M-2.5,-0.5L0,-3.0L2.5,-0.5"/>
  </g>
  <g id="arrowRight" transform="rotate(90) translate(36 -43)">
    <use xlink:href="#rim"/>
    <path pointer-events="none" fill="none" stroke="white" stroke-width="1.5" d="M0,-3.0v7 M-2.5,-0.5L0,-3.0L2.5,-0.5"/>
  </g>
  <g id="arrowDown" transform="rotate(180) translate(-30 -48)">
    <use xlink:href="#rim"/>
    <path pointer-events="none" fill="none" stroke="white" stroke-width="1.5" d="M0,-3.0v7 M-2.5,-0.5L0,-3.0L2.5,-0.5"/>
  </g>
  <g id="arrowLeft" transform="rotate(270) translate(-36 17)">
    <use xlink:href="#rim"/>
    <path pointer-events="none" fill="none" stroke="white" stroke-width="1.5" d="M0,-3.0v7 M-2.5,-0.5L0,-3.0L2.5,-0.5"/>
  </g>
  <g id="resetDef">
    <use xlink:href="#rim2" fill="#404040"><set attributeName="fill" to="#808080" begin="reset.mouseover" end="reset.mouseout"/></use>
  </g>
</defs>
<script type="application/ecmascript">
var viewWidth = 706;
var viewHeight = 581;
var sectionId = 'dynsection-1';
</script>
<script type="application/ecmascript" xlink:href="../../svg.min.js"/>
<svg id="graph" class="graph">
<g id="viewport">
<title>mimic++/reporting/NoMatchReport.hpp</title>
<!-- Node1 -->
<g id="Node000001" class="node">
<title>Node1</title>
<g id="a_Node000001"><a xlink:title=" ">
<polygon fill="#999999" stroke="#666666" points="223.08,-572.75 85.58,-572.75 85.58,-542.25 223.08,-542.25 223.08,-572.75"/>
<text text-anchor="start" x="93.58" y="-559.25" font-family="Helvetica,sans-Serif" font-size="10.00">mimic++/reporting/NoMatch</text>
<text text-anchor="middle" x="154.33" y="-548" font-family="Helvetica,sans-Serif" font-size="10.00">Report.hpp</text>
</a>
</g>
</g>
<!-- Node2 -->
<g id="Node000002" class="node">
<title>Node2</title>
<g id="a_Node000002"><a xlink:href="../../d7/deb/_reporting_8hpp.html" target="_top" xlink:title=" ">
<polygon fill="white" stroke="#666666" points="247.58,-306.75 131.08,-306.75 131.08,-287.5 247.58,-287.5 247.58,-306.75"/>
<text text-anchor="middle" x="189.33" y="-293.25" font-family="Helvetica,sans-Serif" font-size="10.00">mimic++/Reporting.hpp</text>
</a>
</g>
</g>
<!-- Node1&#45;&gt;Node2 -->
<g id="edge1_Node000001_Node000002" class="edge">
<title>Node1&#45;&gt;Node2</title>
<g id="a_edge1_Node000001_Node000002"><a xlink:title=" ">
<path fill="none" stroke="#63b8ff" d="M107.89,-537.07C54.19,-511.56 -23.16,-463.59 7.33,-409.25 39.31,-352.26 113.71,-321.03 156.83,-307.13"/>
<polygon fill="#63b8ff" stroke="#63b8ff" points="106.35,-540.21 116.9,-541.23 109.29,-533.86 106.35,-540.21"/>
</a>
</g>
</g>
<!-- Node4 -->
<g id="Node000004" class="node">
<title>Node4</title>
<g id="a_Node000004"><a xlink:href="../../d1/dfd/_basic_reporter_8hpp.html" target="_top" xlink:title=" ">
<polygon fill="white" stroke="#666666" points="193.96,-434.12 16.71,-434.12 16.71,-414.88 193.96,-414.88 193.96,-434.12"/>
<text text-anchor="middle" x="105.33" y="-420.62" font-family="Helvetica,sans-Serif" font-size="10.00">mimic++/reporting/BasicReporter.hpp</text>
</a>
</g>
</g>
<!-- Node1&#45;&gt;Node4 -->
<g id="edge3_Node000001_Node000004" class="edge">
<title>Node1&#45;&gt;Node4</title>
<g id="a_edge3_Node000001_Node000004"><a xlink:title=" ">
<path fill="none" stroke="#63b8ff" d="M144.9,-531.27C133.85,-501.73 116.13,-454.35 108.74,-434.6"/>
<polygon fill="#63b8ff" stroke="#63b8ff" points="141.59,-532.42 148.37,-540.56 148.15,-529.97 141.59,-532.42"/>
</a>
</g>
</g>
<!-- Node5 -->
<g id="Node000005" class="node">
<title>Node5</title>
<g id="a_Node000005"><a xlink:href="../../d0/d70/_default_reporter_8hpp.html" target="_top" xlink:title=" ">
<polygon fill="white" stroke="#666666" points="378.58,-439.75 250.08,-439.75 250.08,-409.25 378.58,-409.25 378.58,-439.75"/>
<text text-anchor="start" x="258.08" y="-426.25" font-family="Helvetica,sans-Serif" font-size="10.00">mimic++/reporting/Default</text>
<text text-anchor="middle" x="314.33" y="-415" font-family="Helvetica,sans-Serif" font-size="10.00">Reporter.hpp</text>
</a>
</g>
</g>
<!-- Node1&#45;&gt;Node5 -->
<g id="edge5_Node000001_Node000005" class="edge">
<title>Node1&#45;&gt;Node5</title>
<g id="a_edge5_Node000001_Node000005"><a xlink:title=" ">
<path fill="none" stroke="#63b8ff" d="M234.04,-539.26C253.53,-531.83 272.89,-521.26 287.33,-506.25 304.96,-487.93 311.09,-457.77 313.21,-439.96"/>
<polygon fill="#63b8ff" stroke="#63b8ff" points="232.93,-535.94 224.67,-542.57 235.26,-542.54 232.93,-535.94"/>
</a>
</g>
</g>
<!-- Node15 -->
<g id="Node000015" class="node">
<title>Node15</title>
<g id="a_Node000015"><a xlink:href="../../d9/d70/_stringify_reports_8hpp.html" target="_top" xlink:title=" ">
<polygon fill="white" stroke="#666666" points="277.83,-506.25 144.83,-506.25 144.83,-475.75 277.83,-475.75 277.83,-506.25"/>
<text text-anchor="start" x="152.83" y="-492.75" font-family="Helvetica,sans-Serif" font-size="10.00">mimic++/reporting/Stringify</text>
<text text-anchor="middle" x="211.33" y="-481.5" font-family="Helvetica,sans-Serif" font-size="10.00">Reports.hpp</text>
</a>
</g>
</g>
<!-- Node1&#45;&gt;Node15 -->
<g id="edge31_Node000001_Node000015" class="edge">
<title>Node1&#45;&gt;Node15</title>
<g id="a_edge31_Node000001_Node000015"><a xlink:title=" ">
<path fill="none" stroke="#63b8ff" d="M174.77,-533.38C182.66,-524.44 191.46,-514.49 198.45,-506.58"/>
<polygon fill="#63b8ff" stroke="#63b8ff" points="172.27,-530.92 168.27,-540.73 177.52,-535.55 172.27,-530.92"/>
</a>
</g>
</g>
<!-- Node3 -->
<g id="Node000003" class="node">
<title>Node3</title>
<g id="a_Node000003"><a xlink:href="../../d0/db9/mimic_09_09_8hpp.html" target="_top" xlink:title=" ">
<polygon fill="white" stroke="#666666" points="544.08,-19.25 430.58,-19.25 430.58,0 544.08,0 544.08,-19.25"/>
<text text-anchor="middle" x="487.33" y="-5.75" font-family="Helvetica,sans-Serif" font-size="10.00">mimic++/mimic++.hpp</text>
</a>
</g>
</g>
<!-- Node2&#45;&gt;Node3 -->
<g id="edge2_Node000002_Node000003" class="edge">
<title>Node2&#45;&gt;Node3</title>
<g id="a_edge2_Node000002_Node000003"><a xlink:title=" ">
<path fill="none" stroke="#63b8ff" d="M180.42,-276.5C170.65,-253.15 156.33,-212.74 156.33,-176.38 156.33,-176.38 156.33,-176.38 156.33,-119.12 156.33,-85.15 169.75,-73.62 198.33,-55.25 235.76,-31.2 357.38,-19.17 430.38,-13.97"/>
<polygon fill="#63b8ff" stroke="#63b8ff" points="177.21,-277.89 184.42,-285.66 183.63,-275.09 177.21,-277.89"/>
</a>
</g>
</g>
<!-- Node4&#45;&gt;Node2 -->
<g id="edge4_Node000004_Node000002" class="edge">
<title>Node4&#45;&gt;Node2</title>
<g id="a_edge4_Node000004_Node000002"><a xlink:title=" ">
<path fill="none" stroke="#63b8ff" d="M117.55,-405.27C135.84,-377.96 169.66,-327.49 183.35,-307.06"/>
<polygon fill="#63b8ff" stroke="#63b8ff" points="114.88,-402.97 112.22,-413.23 120.69,-406.87 114.88,-402.97"/>
</a>
</g>
</g>
<!-- Node5&#45;&gt;Node2 -->
<g id="edge6_Node000005_Node000002" class="edge">
<title>Node5&#45;&gt;Node2</title>
<g id="a_edge6_Node000005_Node000002"><a xlink:title=" ">
<path fill="none" stroke="#63b8ff" d="M293.19,-401.09C277.64,-384.75 255.9,-362.15 236.33,-342.75 223.71,-330.23 208.77,-316.17 199.17,-307.23"/>
<polygon fill="#63b8ff" stroke="#63b8ff" points="290.25,-403.08 299.67,-407.92 295.33,-398.26 290.25,-403.08"/>
</a>
</g>
</g>
<!-- Node6 -->
<g id="Node000006" class="node">
<title>Node6</title>
<g id="a_Node000006"><a xlink:href="../../de/dd1/_global_reporter_8hpp.html" target="_top" xlink:title=" ">
<polygon fill="white" stroke="#666666" points="414.08,-373.25 288.58,-373.25 288.58,-342.75 414.08,-342.75 414.08,-373.25"/>
<text text-anchor="start" x="296.58" y="-359.75" font-family="Helvetica,sans-Serif" font-size="10.00">mimic++/reporting/Global</text>
<text text-anchor="middle" x="351.33" y="-348.5" font-family="Helvetica,sans-Serif" font-size="10.00">Reporter.hpp</text>
</a>
</g>
</g>
<!-- Node5&#45;&gt;Node6 -->
<g id="edge7_Node000005_Node000006" class="edge">
<title>Node5&#45;&gt;Node6</title>
<g id="a_edge7_Node000005_Node000006"><a xlink:title=" ">
<path fill="none" stroke="#63b8ff" d="M328.4,-398.98C333.32,-390.41 338.67,-381.07 342.97,-373.58"/>
<polygon fill="#63b8ff" stroke="#63b8ff" points="325.42,-397.14 323.48,-407.55 331.5,-400.62 325.42,-397.14"/>
</a>
</g>
</g>
<!-- Node6&#45;&gt;Node2 -->
<g id="edge22_Node000006_Node000002" class="edge">
<title>Node6&#45;&gt;Node2</title>
<g id="a_edge22_Node000006_Node000002"><a xlink:title=" ">
<path fill="none" stroke="#63b8ff" d="M300.2,-338.41C271.5,-327.99 236.99,-315.44 214.18,-307.15"/>
<polygon fill="#63b8ff" stroke="#63b8ff" points="298.86,-341.65 309.45,-341.78 301.25,-335.07 298.86,-341.65"/>
</a>
</g>
</g>
<!-- Node7 -->
<g id="Node000007" class="node">
<title>Node7</title>
<g id="a_Node000007"><a xlink:href="../../d5/d8a/_expectation_8hpp.html" target="_top" xlink:title=" ">
<polygon fill="white" stroke="#666666" points="414.08,-245.88 288.58,-245.88 288.58,-226.62 414.08,-226.62 414.08,-245.88"/>
<text text-anchor="middle" x="351.33" y="-232.38" font-family="Helvetica,sans-Serif" font-size="10.00">mimic++/Expectation.hpp</text>
</a>
</g>
</g>
<!-- Node6&#45;&gt;Node7 -->
<g id="edge8_Node000006_Node000007" class="edge">
<title>Node6&#45;&gt;Node7</title>
<g id="a_edge8_Node000006_Node000007"><a xlink:title=" ">
<path fill="none" stroke="#63b8ff" d="M351.33,-331.1C351.33,-304.34 351.33,-264.03 351.33,-246.24"/>
<polygon fill="#63b8ff" stroke="#63b8ff" points="347.83,-330.8 351.33,-340.8 354.83,-330.8 347.83,-330.8"/>
</a>
</g>
</g>
<!-- Node13 -->
<g id="Node000013" class="node">
<title>Node13</title>
<g id="a_Node000013"><a xlink:href="../../d8/de4/_sequence_8hpp.html" target="_top" xlink:title=" ">
<polygon fill="white" stroke="#666666" points="546.71,-306.75 427.96,-306.75 427.96,-287.5 546.71,-287.5 546.71,-306.75"/>
<text text-anchor="middle" x="487.33" y="-293.25" font-family="Helvetica,sans-Serif" font-size="10.00">mimic++/Sequence.hpp</text>
</a>
</g>
</g>
<!-- Node6&#45;&gt;Node13 -->
<g id="edge23_Node000006_Node000013" class="edge">
<title>Node6&#45;&gt;Node13</title>
<g id="a_edge23_Node000006_Node000013"><a xlink:title=" ">
<path fill="none" stroke="#63b8ff" d="M395.86,-337.72C419.63,-327.44 447.75,-315.26 466.48,-307.15"/>
<polygon fill="#63b8ff" stroke="#63b8ff" points="394.48,-334.51 386.69,-341.69 397.26,-340.93 394.48,-334.51"/>
</a>
</g>
</g>
<!-- Node7&#45;&gt;Node3 -->
<g id="edge21_Node000007_Node000003" class="edge">
<title>Node7&#45;&gt;Node3</title>
<g id="a_edge21_Node000007_Node000003"><a xlink:title=" ">
<path fill="none" stroke="#63b8ff" d="M324.99,-220.55C272.27,-189.34 163,-114.45 213.33,-55.25 240.61,-23.17 358.32,-14.09 430.3,-11.56"/>
<polygon fill="#63b8ff" stroke="#63b8ff" points="323,-223.45 333.41,-225.44 326.51,-217.39 323,-223.45"/>
</a>
</g>
</g>
<!-- Node8 -->
<g id="Node000008" class="node">
<title>Node8</title>
<g id="a_Node000008"><a xlink:href="../../d2/d4f/_expectation_builder_8hpp.html" target="_top" xlink:title=" ">
<polygon fill="white" stroke="#666666" points="589.08,-185 433.58,-185 433.58,-165.75 589.08,-165.75 589.08,-185"/>
<text text-anchor="middle" x="511.33" y="-171.5" font-family="Helvetica,sans-Serif" font-size="10.00">mimic++/ExpectationBuilder.hpp</text>
</a>
</g>
</g>
<!-- Node7&#45;&gt;Node8 -->
<g id="edge9_Node000007_Node000008" class="edge">
<title>Node7&#45;&gt;Node8</title>
<g id="a_edge9_Node000007_Node000008"><a xlink:title=" ">
<path fill="none" stroke="#63b8ff" d="M386.53,-222.3C416.86,-211.14 459.87,-195.31 486.66,-185.46"/>
<polygon fill="#63b8ff" stroke="#63b8ff" points="385.58,-218.92 377.4,-225.66 388,-225.49 385.58,-218.92"/>
</a>
</g>
</g>
<!-- Node9 -->
<g id="Node000009" class="node">
<title>Node9</title>
<g id="a_Node000009"><a xlink:href="../../d5/dc5/_mock_8hpp.html" target="_top" xlink:title=" ">
<polygon fill="white" stroke="#666666" points="423.96,-129.75 324.71,-129.75 324.71,-110.5 423.96,-110.5 423.96,-129.75"/>
<text text-anchor="middle" x="374.33" y="-116.25" font-family="Helvetica,sans-Serif" font-size="10.00">mimic++/Mock.hpp</text>
</a>
</g>
</g>
<!-- Node7&#45;&gt;Node9 -->
<g id="edge19_Node000007_Node000009" class="edge">
<title>Node7&#45;&gt;Node9</title>
<g id="a_edge19_Node000007_Node000009"><a xlink:title=" ">
<path fill="none" stroke="#63b8ff" d="M355.37,-215.22C360.43,-190.13 368.87,-148.25 372.54,-130.04"/>
<polygon fill="#63b8ff" stroke="#63b8ff" points="351.98,-214.32 353.44,-224.81 358.84,-215.7 351.98,-214.32"/>
</a>
</g>
</g>
<!-- Node12 -->
<g id="Node000012" class="node">
<title>Node12</title>
<g id="a_Node000012"><a xlink:href="../../db/d83/_scoped_sequence_8hpp.html" target="_top" xlink:title=" ">
<polygon fill="white" stroke="#666666" points="594.21,-129.75 442.46,-129.75 442.46,-110.5 594.21,-110.5 594.21,-129.75"/>
<text text-anchor="middle" x="518.33" y="-116.25" font-family="Helvetica,sans-Serif" font-size="10.00">mimic++/ScopedSequence.hpp</text>
</a>
</g>
</g>
<!-- Node7&#45;&gt;Node12 -->
<g id="edge20_Node000007_Node000012" class="edge">
<title>Node7&#45;&gt;Node12</title>
<g id="a_edge20_Node000007_Node000012"><a xlink:title=" ">
<path fill="none" stroke="#63b8ff" d="M366.73,-217.73C380.68,-202.6 402.36,-180.85 424.33,-165.75 446.37,-150.61 474.34,-138.06 494.03,-130.17"/>
<polygon fill="#63b8ff" stroke="#63b8ff" points="364.22,-215.28 360.13,-225.05 369.42,-219.97 364.22,-215.28"/>
</a>
</g>
</g>
<!-- Node8&#45;&gt;Node3 -->
<g id="edge18_Node000008_Node000003" class="edge">
<title>Node8&#45;&gt;Node3</title>
<g id="a_edge18_Node000008_Node000003"><a xlink:title=" ">
<path fill="none" stroke="#63b8ff" d="M562.45,-161.3C578.31,-154.58 594.06,-144.56 603.33,-129.75 607.88,-122.5 604.95,-118.9 603.33,-110.5 598.36,-84.54 599.41,-74.53 581.33,-55.25 565.02,-37.86 540.54,-26.53 520.65,-19.65"/>
<polygon fill="#63b8ff" stroke="#63b8ff" points="561.58,-157.89 553.48,-164.72 564.07,-164.43 561.58,-157.89"/>
</a>
</g>
</g>
<!-- Node8&#45;&gt;Node9 -->
<g id="edge10_Node000008_Node000009" class="edge">
<title>Node8&#45;&gt;Node9</title>
<g id="a_edge10_Node000008_Node000009"><a xlink:title=" ">
<path fill="none" stroke="#63b8ff" d="M477.68,-161.29C452.84,-151.64 419.67,-138.75 397.69,-130.2"/>
<polygon fill="#63b8ff" stroke="#63b8ff" points="476.09,-164.43 486.68,-164.79 478.63,-157.91 476.09,-164.43"/>
</a>
</g>
</g>
<!-- Node8&#45;&gt;Node12 -->
<g id="edge16_Node000008_Node000012" class="edge">
<title>Node8&#45;&gt;Node12</title>
<g id="a_edge16_Node000008_Node000012"><a xlink:title=" ">
<path fill="none" stroke="#63b8ff" d="M513.96,-154.42C515.06,-146.05 516.28,-136.75 517.15,-130.11"/>
<polygon fill="#63b8ff" stroke="#63b8ff" points="510.52,-153.71 512.69,-164.08 517.46,-154.62 510.52,-153.71"/>
</a>
</g>
</g>
<!-- Node9&#45;&gt;Node3 -->
<g id="edge15_Node000009_Node000003" class="edge">
<title>Node9&#45;&gt;Node3</title>
<g id="a_edge15_Node000009_Node000003"><a xlink:title=" ">
<path fill="none" stroke="#63b8ff" d="M381.64,-99.67C387.53,-86 396.86,-67.95 409.33,-55.25 424.96,-39.33 447.47,-27.27 464.29,-19.73"/>
<polygon fill="#63b8ff" stroke="#63b8ff" points="378.41,-98.33 377.94,-108.91 384.91,-100.93 378.41,-98.33"/>
</a>
</g>
</g>
<!-- Node10 -->
<g id="Node000010" class="node">
<title>Node10</title>
<g id="a_Node000010"><a xlink:href="../../d9/dc3/_interface_mock_8hpp.html" target="_top" xlink:title=" ">
<polygon fill="white" stroke="#666666" points="556.08,-74.5 418.58,-74.5 418.58,-55.25 556.08,-55.25 556.08,-74.5"/>
<text text-anchor="middle" x="487.33" y="-61" font-family="Helvetica,sans-Serif" font-size="10.00">mimic++/InterfaceMock.hpp</text>
</a>
</g>
</g>
<!-- Node9&#45;&gt;Node10 -->
<g id="edge11_Node000009_Node000010" class="edge">
<title>Node9&#45;&gt;Node10</title>
<g id="a_edge11_Node000009_Node000010"><a xlink:title=" ">
<path fill="none" stroke="#63b8ff" d="M403.76,-105.26C424.05,-95.7 450.43,-83.27 468.07,-74.95"/>
<polygon fill="#63b8ff" stroke="#63b8ff" points="402.43,-102.02 394.87,-109.45 405.41,-108.35 402.43,-102.02"/>
</a>
</g>
</g>
<!-- Node11 -->
<g id="Node000011" class="node">
<title>Node11</title>
<g id="a_Node000011"><a xlink:href="../../d5/d92/_object_watcher_8hpp.html" target="_top" xlink:title=" ">
<polygon fill="white" stroke="#666666" points="362.21,-74.5 222.46,-74.5 222.46,-55.25 362.21,-55.25 362.21,-74.5"/>
<text text-anchor="middle" x="292.33" y="-61" font-family="Helvetica,sans-Serif" font-size="10.00">mimic++/ObjectWatcher.hpp</text>
</a>
</g>
</g>
<!-- Node9&#45;&gt;Node11 -->
<g id="edge13_Node000009_Node000011" class="edge">
<title>Node9&#45;&gt;Node11</title>
<g id="a_edge13_Node000009_Node000011"><a xlink:title=" ">
<path fill="none" stroke="#63b8ff" d="M351.13,-104.05C336.68,-94.67 318.59,-82.92 306.31,-74.95"/>
<polygon fill="#63b8ff" stroke="#63b8ff" points="348.86,-106.76 359.15,-109.27 352.67,-100.89 348.86,-106.76"/>
</a>
</g>
</g>
<!-- Node10&#45;&gt;Node3 -->
<g id="edge12_Node000010_Node000003" class="edge">
<title>Node10&#45;&gt;Node3</title>
<g id="a_edge12_Node000010_Node000003"><a xlink:title=" ">
<path fill="none" stroke="#63b8ff" d="M487.33,-43.63C487.33,-35.34 487.33,-26.17 487.33,-19.61"/>
<polygon fill="#63b8ff" stroke="#63b8ff" points="483.83,-43.57 487.33,-53.57 490.83,-43.57 483.83,-43.57"/>
</a>
</g>
</g>
<!-- Node11&#45;&gt;Node3 -->
<g id="edge14_Node000011_Node000003" class="edge">
<title>Node11&#45;&gt;Node3</title>
<g id="a_edge14_Node000011_Node000003"><a xlink:title=" ">
<path fill="none" stroke="#63b8ff" d="M336.48,-51.82C372.18,-42.07 421.68,-28.55 454.09,-19.7"/>
<polygon fill="#63b8ff" stroke="#63b8ff" points="335.6,-48.43 326.87,-54.44 337.44,-55.19 335.6,-48.43"/>
</a>
</g>
</g>
<!-- Node12&#45;&gt;Node3 -->
<g id="edge17_Node000012_Node000003" class="edge">
<title>Node12&#45;&gt;Node3</title>
<g id="a_edge17_Node000012_Node000003"><a xlink:title=" ">
<path fill="none" stroke="#63b8ff" d="M542.68,-103.37C558.84,-90.83 575.38,-72.57 565.33,-55.25 555.16,-37.71 535.2,-26.47 518.03,-19.66"/>
<polygon fill="#63b8ff" stroke="#63b8ff" points="540.71,-100.47 534.64,-109.16 544.8,-106.15 540.71,-100.47"/>
</a>
</g>
</g>
<!-- Node13&#45;&gt;Node3 -->
<g id="edge27_Node000013_Node000003" class="edge">
<title>Node13&#45;&gt;Node3</title>
<g id="a_edge27_Node000013_Node000003"><a xlink:title=" ">
<path fill="none" stroke="#63b8ff" d="M558.17,-285.79C619.47,-272.37 698.33,-242.3 698.33,-176.38 698.33,-176.38 698.33,-176.38 698.33,-119.12 698.33,-49.72 606.92,-24.67 544.43,-15.66"/>
<polygon fill="#63b8ff" stroke="#63b8ff" points="557.52,-282.35 548.43,-287.8 558.94,-289.21 557.52,-282.35"/>
</a>
</g>
</g>
<!-- Node13&#45;&gt;Node7 -->
<g id="edge24_Node000013_Node000007" class="edge">
<title>Node13&#45;&gt;Node7</title>
<g id="a_edge24_Node000013_Node000007"><a xlink:title=" ">
<path fill="none" stroke="#63b8ff" d="M456.02,-282.57C430.24,-271.41 394.43,-255.91 372.09,-246.23"/>
<polygon fill="#63b8ff" stroke="#63b8ff" points="454.43,-285.69 464.99,-286.45 457.21,-279.27 454.43,-285.69"/>
</a>
</g>
</g>
<!-- Node13&#45;&gt;Node8 -->
<g id="edge25_Node000013_Node000008" class="edge">
<title>Node13&#45;&gt;Node8</title>
<g id="a_edge25_Node000013_Node000008"><a xlink:title=" ">
<path fill="none" stroke="#63b8ff" d="M473.49,-278.16C463.38,-262.72 452.82,-240.01 461.33,-221 468.28,-205.5 483.56,-193.16 495.42,-185.42"/>
<polygon fill="#63b8ff" stroke="#63b8ff" points="470.34,-279.77 478.98,-285.91 476.05,-275.72 470.34,-279.77"/>
</a>
</g>
</g>
<!-- Node13&#45;&gt;Node12 -->
<g id="edge26_Node000013_Node000012" class="edge">
<title>Node13&#45;&gt;Node12</title>
<g id="a_edge26_Node000013_Node000012"><a xlink:title=" ">
<path fill="none" stroke="#63b8ff" d="M557.63,-283.96C575.44,-277.36 592.56,-267.19 603.33,-251.5 611.37,-239.8 605.06,-176.11 598.33,-165.75 586.98,-148.28 566.3,-137 548.81,-130.16"/>
<polygon fill="#63b8ff" stroke="#63b8ff" points="556.94,-280.5 548.54,-286.97 559.14,-287.15 556.94,-280.5"/>
</a>
</g>
</g>
<!-- Node14 -->
<g id="Node000014" class="node">
<title>Node14</title>
<g id="a_Node000014"><a xlink:href="../../db/d70/_control_policies_8hpp.html" target="_top" xlink:title=" ">
<polygon fill="white" stroke="#666666" points="594.33,-251.5 470.33,-251.5 470.33,-221 594.33,-221 594.33,-251.5"/>
<text text-anchor="start" x="478.33" y="-238" font-family="Helvetica,sans-Serif" font-size="10.00">mimic++/policies/Control</text>
<text text-anchor="middle" x="532.33" y="-226.75" font-family="Helvetica,sans-Serif" font-size="10.00">Policies.hpp</text>
</a>
</g>
</g>
<!-- Node13&#45;&gt;Node14 -->
<g id="edge28_Node000013_Node000014" class="edge">
<title>Node13&#45;&gt;Node14</title>
<g id="a_edge28_Node000013_Node000014"><a xlink:title=" ">
<path fill="none" stroke="#63b8ff" d="M501.07,-278.15C507.53,-269.7 515.14,-259.75 521.23,-251.78"/>
<polygon fill="#63b8ff" stroke="#63b8ff" points="498.38,-275.91 495.09,-285.98 503.94,-280.16 498.38,-275.91"/>
</a>
</g>
</g>
<!-- Node14&#45;&gt;Node3 -->
<g id="edge30_Node000014_Node000003" class="edge">
<title>Node14&#45;&gt;Node3</title>
<g id="a_edge30_Node000014_Node000003"><a xlink:title=" ">
<path fill="none" stroke="#63b8ff" d="M567.29,-214.37C578.43,-206.33 590.01,-196.33 598.33,-185 618.63,-157.37 623.15,-144.44 618.33,-110.5 614.74,-85.19 619.6,-74.11 602.33,-55.25 585.63,-37 560.59,-26.14 538.14,-19.71"/>
<polygon fill="#63b8ff" stroke="#63b8ff" points="565.65,-211.25 559.37,-219.78 569.6,-217.03 565.65,-211.25"/>
</a>
</g>
</g>
<!-- Node14&#45;&gt;Node8 -->
<g id="edge29_Node000014_Node000008" class="edge">
<title>Node14&#45;&gt;Node8</title>
<g id="a_edge29_Node000014_Node000008"><a xlink:title=" ">
<path fill="none" stroke="#63b8ff" d="M523.37,-210.11C520.24,-201.34 516.93,-192.06 514.57,-185.45"/>
<polygon fill="#63b8ff" stroke="#63b8ff" points="519.98,-211.03 526.63,-219.27 526.57,-208.68 519.98,-211.03"/>
</a>
</g>
</g>
<!-- Node15&#45;&gt;Node2 -->
<g id="edge32_Node000015_Node000002" class="edge">
<title>Node15&#45;&gt;Node2</title>
<g id="a_edge32_Node000015_Node000002"><a xlink:title=" ">
<path fill="none" stroke="#63b8ff" d="M208.97,-464.34C207.46,-448.46 205.41,-427.66 203.33,-409.25 199.05,-371.18 193.07,-325.9 190.54,-307.05"/>
<polygon fill="#63b8ff" stroke="#63b8ff" points="205.45,-464.26 209.86,-473.89 212.41,-463.61 205.45,-464.26"/>
</a>
</g>
</g>
<!-- Node15&#45;&gt;Node4 -->
<g id="edge33_Node000015_Node000004" class="edge">
<title>Node15&#45;&gt;Node4</title>
<g id="a_edge33_Node000015_Node000004"><a xlink:title=" ">
<path fill="none" stroke="#63b8ff" d="M177.59,-469.47C158.25,-457.7 134.95,-443.52 120.14,-434.51"/>
<polygon fill="#63b8ff" stroke="#63b8ff" points="175.63,-472.37 185.99,-474.58 179.26,-466.39 175.63,-472.37"/>
</a>
</g>
</g>
<!-- Node15&#45;&gt;Node5 -->
<g id="edge34_Node000015_Node000005" class="edge">
<title>Node15&#45;&gt;Node5</title>
<g id="a_edge34_Node000015_Node000005"><a xlink:title=" ">
<path fill="none" stroke="#63b8ff" d="M244.29,-469.36C259.52,-459.83 277.24,-448.73 291.05,-440.08"/>
<polygon fill="#63b8ff" stroke="#63b8ff" points="242.61,-466.29 235.99,-474.56 246.32,-472.22 242.61,-466.29"/>
</a>
</g>
</g>
</g>
</svg>

<g id="navigator" transform="translate(0 0)" fill="#404254">
  <rect fill="#f2f5e9" fill-opacity="0.5" stroke="#606060" stroke-width=".5" x="0" y="0" width="60" height="60"/>
  <use id="zoomplus" xlink:href="#zoomPlus" x="17" y="9" onmousedown="handleZoom(evt,'in')"/>
  <use id="zoomminus" xlink:href="#zoomMin" x="42" y="9" onmousedown="handleZoom(evt,'out')"/>
  <use id="reset" xlink:href="#resetDef" x="30" y="36" onmousedown="handleReset()"/>
   <use id="arrowup" xlink:href="#arrowUp" x="0" y="0" onmousedown="handlePan(0,-1)"/>
  <use id="arrowright" xlink:href="#arrowRight" x="0" y="0" onmousedown="handlePan(1,0)"/>
  <use id="arrowdown" xlink:href="#arrowDown" x="0" y="0" onmousedown="handlePan(0,1)"/>
  <use id="arrowleft" xlink:href="#arrowLeft" x="0" y="0" onmousedown="handlePan(-1,0)"/>
</g>
<svg viewBox="0 0 15 15" width="100%" height="30px" preserveAspectRatio="xMaxYMin meet">
 <g id="arrow_out" transform="scale(0.3 0.3)">
  <a xlink:href="_no_match_report_8hpp__dep__incl_org.svg" target="_base">
   <rect id="button" ry="5" rx="5" y="6" x="6" height="38" width="38"
        fill="#f2f5e9" fill-opacity="0.5" stroke="#606060" stroke-width="1.0"/>
   <path id="arrow"
     d="M 11.500037,31.436501 C 11.940474,20.09759 22.043105,11.32322 32.158766,21.979434 L 37.068811,17.246167 C 37.068811,17.246167 37.088388,32 37.088388,32 L 22.160133,31.978069 C 22.160133,31.978069 26.997745,27.140456 26.997745,27.140456 C 18.528582,18.264221 13.291696,25.230495 11.500037,31.436501 z"
     style="fill:#404040;"/>
  </a>
 </g>
</svg>

<style type='text/css'>
<![CDATA[
[data-mouse-over-selected='false'] { opacity: 0.7; }
[data-mouse-over-selected='true']  { opacity: 1.0; }
]]>
</style>
<script type="application/ecmascript"><![CDATA[
document.addEventListener('DOMContentLoaded', (event) => {
  highlightEdges();
  highlightAdjacentNodes();
});
]]></script>
</svg>
