<?xml version="1.0" encoding="UTF-8" standalone="no"?>
<!DOCTYPE svg PUBLIC "-//W3C//DTD SVG 1.1//EN"
 "http://www.w3.org/Graphics/SVG/1.1/DTD/svg11.dtd">
<!-- Generated by graphviz version 12.2.1 (20241206.2353)
 -->
<!-- Title: mimic++/reporting/NoMatchReport.hpp Pages: 1 -->
<!--zoomable 581 -->

<svg id="main" version="1.1" xmlns="http://www.w3.org/2000/svg" xmlns:xlink="http://www.w3.org/1999/xlink" xml:space="preserve" onload="init(evt)">

<style type="text/css"><![CDATA[
.node, .edge {opacity: 0.7;}
.node.selected, .edge.selected {opacity: 1;}
.edge:hover path { stroke: red; }
.edge:hover polygon { stroke: red; fill: red; }
]]></style>

<defs>
  <circle id="rim" cx="0" cy="0" r="7"/>
  <circle id="rim2" cx="0" cy="0" r="3.5"/>
  <g id="zoomPlus">
    <use xlink:href="#rim" fill="#404040"><set attributeName="fill" to="#808080" begin="zoomplus.mouseover" end="zoomplus.mouseout"/></use>
    <path d="M-4,0h8M0,-4v8" fill="none" stroke="white" stroke-width="1.5" pointer-events="none"/>
  </g>
  <g id="zoomMin">
    <use xlink:href="#rim" fill="#404040"><set attributeName="fill" to="#808080" begin="zoomminus.mouseover" end="zoomminus.mouseout"/></use>
    <path d="M-4,0h8" fill="none" stroke="white" stroke-width="1.5" pointer-events="none"/>
  </g>
  <g id="arrowUp" transform="translate(30 24)">
    <use xlink:href="#rim"/>
    <path pointer-events="none" fill="none" stroke="white" stroke-width="1.5" d="M0,-3.0v7 M-2.5,-0.5L0,-3.0L2.5,-0.5"/>
  </g>
  <g id="arrowRight" transform="rotate(90) translate(36 -43)">
    <use xlink:href="#rim"/>
    <path pointer-events="none" fill="none" stroke="white" stroke-width="1.5" d="M0,-3.0v7 M-2.5,-0.5L0,-3.0L2.5,-0.5"/>
  </g>
  <g id="arrowDown" transform="rotate(180) translate(-30 -48)">
    <use xlink:href="#rim"/>
    <path pointer-events="none" fill="none" stroke="white" stroke-width="1.5" d="M0,-3.0v7 M-2.5,-0.5L0,-3.0L2.5,-0.5"/>
  </g>
  <g id="arrowLeft" transform="rotate(270) translate(-36 17)">
    <use xlink:href="#rim"/>
    <path pointer-events="none" fill="none" stroke="white" stroke-width="1.5" d="M0,-3.0v7 M-2.5,-0.5L0,-3.0L2.5,-0.5"/>
  </g>
  <g id="resetDef">
    <use xlink:href="#rim2" fill="#404040"><set attributeName="fill" to="#808080" begin="reset.mouseover" end="reset.mouseout"/></use>
  </g>
</defs>
<script type="application/ecmascript">
var viewWidth = 631;
var viewHeight = 581;
var sectionId = 'dynsection-1';
</script>
<script type="application/ecmascript" xlink:href="../../svg.min.js"/>
<svg id="graph" class="graph">
<g id="viewport">
<title>mimic++/reporting/NoMatchReport.hpp</title>
<!-- Node1 -->
<g id="Node000001" class="node">
<title>Node1</title>
<g id="a_Node000001"><a xlink:title=" ">
<polygon fill="#999999" stroke="#666666" points="222.54,-572.75 85.04,-572.75 85.04,-542.25 222.54,-542.25 222.54,-572.75"/>
<text text-anchor="start" x="93.04" y="-559.25" font-family="Helvetica,sans-Serif" font-size="10.00">mimic++/reporting/NoMatch</text>
<text text-anchor="middle" x="153.79" y="-548" font-family="Helvetica,sans-Serif" font-size="10.00">Report.hpp</text>
</a>
</g>
</g>
<!-- Node2 -->
<g id="Node000002" class="node">
<title>Node2</title>
<g id="a_Node000002"><a xlink:href="../../d7/deb/_reporting_8hpp.html" target="_top" xlink:title=" ">
<polygon fill="white" stroke="#666666" points="228.04,-306.75 111.54,-306.75 111.54,-287.5 228.04,-287.5 228.04,-306.75"/>
<text text-anchor="middle" x="169.79" y="-293.25" font-family="Helvetica,sans-Serif" font-size="10.00">mimic++/Reporting.hpp</text>
</a>
</g>
</g>
<!-- Node1&#45;&gt;Node2 -->
<g id="edge1_Node000001_Node000002" class="edge">
<title>Node1&#45;&gt;Node2</title>
<g id="a_edge1_Node000001_Node000002"><a xlink:title=" ">
<path fill="none" stroke="#63b8ff" d="M107.34,-537.1C54.12,-511.79 -22.25,-464.19 6.79,-409.25 35.67,-354.59 104.86,-321.77 143.15,-307.16"/>
<polygon fill="#63b8ff" stroke="#63b8ff" points="105.72,-540.21 116.27,-541.22 108.66,-533.85 105.72,-540.21"/>
</a>
</g>
</g>
<!-- Node4 -->
<g id="Node000004" class="node">
<title>Node4</title>
<g id="a_Node000004"><a xlink:href="../../d1/dfd/_basic_reporter_8hpp.html" target="_top" xlink:title=" ">
<polygon fill="white" stroke="#666666" points="193.41,-434.12 16.16,-434.12 16.16,-414.88 193.41,-414.88 193.41,-434.12"/>
<text text-anchor="middle" x="104.79" y="-420.62" font-family="Helvetica,sans-Serif" font-size="10.00">mimic++/reporting/BasicReporter.hpp</text>
</a>
</g>
</g>
<!-- Node1&#45;&gt;Node4 -->
<g id="edge3_Node000001_Node000004" class="edge">
<title>Node1&#45;&gt;Node4</title>
<g id="a_edge3_Node000001_Node000004"><a xlink:title=" ">
<path fill="none" stroke="#63b8ff" d="M144.35,-531.27C133.3,-501.73 115.58,-454.35 108.19,-434.6"/>
<polygon fill="#63b8ff" stroke="#63b8ff" points="141.04,-532.42 147.82,-540.56 147.6,-529.97 141.04,-532.42"/>
</a>
</g>
</g>
<!-- Node5 -->
<g id="Node000005" class="node">
<title>Node5</title>
<g id="a_Node000005"><a xlink:href="../../d0/d70/_default_reporter_8hpp.html" target="_top" xlink:title=" ">
<polygon fill="white" stroke="#666666" points="378.04,-439.75 249.54,-439.75 249.54,-409.25 378.04,-409.25 378.04,-439.75"/>
<text text-anchor="start" x="257.54" y="-426.25" font-family="Helvetica,sans-Serif" font-size="10.00">mimic++/reporting/Default</text>
<text text-anchor="middle" x="313.79" y="-415" font-family="Helvetica,sans-Serif" font-size="10.00">Reporter.hpp</text>
</a>
</g>
</g>
<!-- Node1&#45;&gt;Node5 -->
<g id="edge5_Node000001_Node000005" class="edge">
<title>Node1&#45;&gt;Node5</title>
<g id="a_edge5_Node000001_Node000005"><a xlink:title=" ">
<path fill="none" stroke="#63b8ff" d="M233.5,-539.26C252.98,-531.83 272.35,-521.26 286.79,-506.25 304.41,-487.93 310.54,-457.77 312.67,-439.96"/>
<polygon fill="#63b8ff" stroke="#63b8ff" points="232.38,-535.94 224.12,-542.57 234.72,-542.54 232.38,-535.94"/>
</a>
</g>
</g>
<!-- Node14 -->
<g id="Node000014" class="node">
<title>Node14</title>
<g id="a_Node000014"><a xlink:href="../../d9/d70/_stringify_reports_8hpp.html" target="_top" xlink:title=" ">
<polygon fill="white" stroke="#666666" points="277.29,-506.25 144.29,-506.25 144.29,-475.75 277.29,-475.75 277.29,-506.25"/>
<text text-anchor="start" x="152.29" y="-492.75" font-family="Helvetica,sans-Serif" font-size="10.00">mimic++/reporting/Stringify</text>
<text text-anchor="middle" x="210.79" y="-481.5" font-family="Helvetica,sans-Serif" font-size="10.00">Reports.hpp</text>
</a>
</g>
</g>
<!-- Node1&#45;&gt;Node14 -->
<g id="edge27_Node000001_Node000014" class="edge">
<title>Node1&#45;&gt;Node14</title>
<g id="a_edge27_Node000001_Node000014"><a xlink:title=" ">
<path fill="none" stroke="#63b8ff" d="M174.22,-533.38C182.12,-524.44 190.92,-514.49 197.9,-506.58"/>
<polygon fill="#63b8ff" stroke="#63b8ff" points="171.72,-530.92 167.72,-540.73 176.97,-535.55 171.72,-530.92"/>
</a>
</g>
</g>
<!-- Node3 -->
<g id="Node000003" class="node">
<title>Node3</title>
<g id="a_Node000003"><a xlink:href="../../d0/db9/mimic_09_09_8hpp.html" target="_top" xlink:title=" ">
<polygon fill="white" stroke="#666666" points="515.54,-19.25 402.04,-19.25 402.04,0 515.54,0 515.54,-19.25"/>
<text text-anchor="middle" x="458.79" y="-5.75" font-family="Helvetica,sans-Serif" font-size="10.00">mimic++/mimic++.hpp</text>
</a>
</g>
</g>
<!-- Node2&#45;&gt;Node3 -->
<g id="edge2_Node000002_Node000003" class="edge">
<title>Node2&#45;&gt;Node3</title>
<g id="a_edge2_Node000002_Node000003"><a xlink:title=" ">
<path fill="none" stroke="#63b8ff" d="M156.14,-277.73C140.73,-255.1 117.79,-214.92 117.79,-176.38 117.79,-176.38 117.79,-176.38 117.79,-119.12 117.79,-84.9 131.85,-73.53 160.79,-55.25 199.82,-30.59 326.68,-18.72 401.71,-13.73"/>
<polygon fill="#63b8ff" stroke="#63b8ff" points="153.26,-279.72 161.9,-285.86 158.97,-275.67 153.26,-279.72"/>
</a>
</g>
</g>
<!-- Node4&#45;&gt;Node2 -->
<g id="edge4_Node000004_Node000002" class="edge">
<title>Node4&#45;&gt;Node2</title>
<g id="a_edge4_Node000004_Node000002"><a xlink:title=" ">
<path fill="none" stroke="#63b8ff" d="M114.62,-404.54C128.85,-377.08 154.65,-327.31 165.15,-307.06"/>
<polygon fill="#63b8ff" stroke="#63b8ff" points="111.65,-402.65 110.16,-413.14 117.87,-405.87 111.65,-402.65"/>
</a>
</g>
</g>
<!-- Node5&#45;&gt;Node2 -->
<g id="edge6_Node000005_Node000002" class="edge">
<title>Node5&#45;&gt;Node2</title>
<g id="a_edge6_Node000005_Node000002"><a xlink:title=" ">
<path fill="none" stroke="#63b8ff" d="M294.11,-400.69C278.98,-383.79 257.14,-360.68 235.79,-342.75 219.48,-329.05 198.9,-315.68 185.1,-307.21"/>
<polygon fill="#63b8ff" stroke="#63b8ff" points="291.11,-402.59 300.36,-407.77 296.36,-397.96 291.11,-402.59"/>
</a>
</g>
</g>
<!-- Node6 -->
<g id="Node000006" class="node">
<title>Node6</title>
<g id="a_Node000006"><a xlink:href="../../de/dd1/_global_reporter_8hpp.html" target="_top" xlink:title=" ">
<polygon fill="white" stroke="#666666" points="413.54,-373.25 288.04,-373.25 288.04,-342.75 413.54,-342.75 413.54,-373.25"/>
<text text-anchor="start" x="296.04" y="-359.75" font-family="Helvetica,sans-Serif" font-size="10.00">mimic++/reporting/Global</text>
<text text-anchor="middle" x="350.79" y="-348.5" font-family="Helvetica,sans-Serif" font-size="10.00">Reporter.hpp</text>
</a>
</g>
</g>
<!-- Node5&#45;&gt;Node6 -->
<g id="edge7_Node000005_Node000006" class="edge">
<title>Node5&#45;&gt;Node6</title>
<g id="a_edge7_Node000005_Node000006"><a xlink:title=" ">
<path fill="none" stroke="#63b8ff" d="M327.85,-398.98C332.77,-390.41 338.12,-381.07 342.42,-373.58"/>
<polygon fill="#63b8ff" stroke="#63b8ff" points="324.87,-397.14 322.94,-407.55 330.95,-400.62 324.87,-397.14"/>
</a>
</g>
</g>
<!-- Node6&#45;&gt;Node2 -->
<g id="edge19_Node000006_Node000002" class="edge">
<title>Node6&#45;&gt;Node2</title>
<g id="a_edge19_Node000006_Node000002"><a xlink:title=" ">
<path fill="none" stroke="#63b8ff" d="M294.95,-338.84C262.75,-328.36 223.65,-315.64 197.81,-307.24"/>
<polygon fill="#63b8ff" stroke="#63b8ff" points="293.55,-342.06 304.14,-341.83 295.71,-335.41 293.55,-342.06"/>
</a>
</g>
</g>
<!-- Node7 -->
<g id="Node000007" class="node">
<title>Node7</title>
<g id="a_Node000007"><a xlink:href="../../d5/d8a/_expectation_8hpp.html" target="_top" xlink:title=" ">
<polygon fill="white" stroke="#666666" points="413.54,-245.88 288.04,-245.88 288.04,-226.62 413.54,-226.62 413.54,-245.88"/>
<text text-anchor="middle" x="350.79" y="-232.38" font-family="Helvetica,sans-Serif" font-size="10.00">mimic++/Expectation.hpp</text>
</a>
</g>
</g>
<!-- Node6&#45;&gt;Node7 -->
<g id="edge8_Node000006_Node000007" class="edge">
<title>Node6&#45;&gt;Node7</title>
<g id="a_edge8_Node000006_Node000007"><a xlink:title=" ">
<path fill="none" stroke="#63b8ff" d="M350.79,-331.1C350.79,-304.34 350.79,-264.03 350.79,-246.24"/>
<polygon fill="#63b8ff" stroke="#63b8ff" points="347.29,-330.8 350.79,-340.8 354.29,-330.8 347.29,-330.8"/>
</a>
</g>
</g>
<!-- Node12 -->
<g id="Node000012" class="node">
<title>Node12</title>
<g id="a_Node000012"><a xlink:href="../../d8/de4/_sequence_8hpp.html" target="_top" xlink:title=" ">
<polygon fill="white" stroke="#666666" points="501.16,-306.75 382.41,-306.75 382.41,-287.5 501.16,-287.5 501.16,-306.75"/>
<text text-anchor="middle" x="441.79" y="-293.25" font-family="Helvetica,sans-Serif" font-size="10.00">mimic++/Sequence.hpp</text>
</a>
</g>
</g>
<!-- Node6&#45;&gt;Node12 -->
<g id="edge20_Node000006_Node000012" class="edge">
<title>Node6&#45;&gt;Node12</title>
<g id="a_edge20_Node000006_Node000012"><a xlink:title=" ">
<path fill="none" stroke="#63b8ff" d="M382.52,-336.47C397.96,-326.48 415.73,-314.98 427.76,-307.2"/>
<polygon fill="#63b8ff" stroke="#63b8ff" points="381.05,-333.25 374.55,-341.62 384.85,-339.13 381.05,-333.25"/>
</a>
</g>
</g>
<!-- Node7&#45;&gt;Node3 -->
<g id="edge18_Node000007_Node000003" class="edge">
<title>Node7&#45;&gt;Node3</title>
<g id="a_edge18_Node000007_Node000003"><a xlink:title=" ">
<path fill="none" stroke="#63b8ff" d="M318.7,-221.66C254,-192.42 118.67,-120.88 174.79,-55.25 203.37,-21.82 327.21,-13.27 401.6,-11.19"/>
<polygon fill="#63b8ff" stroke="#63b8ff" points="317.22,-224.83 327.78,-225.68 320.06,-218.43 317.22,-224.83"/>
</a>
</g>
</g>
<!-- Node8 -->
<g id="Node000008" class="node">
<title>Node8</title>
<g id="a_Node000008"><a xlink:href="../../d2/d4f/_expectation_builder_8hpp.html" target="_top" xlink:title=" ">
<polygon fill="white" stroke="#666666" points="534.54,-185 379.04,-185 379.04,-165.75 534.54,-165.75 534.54,-185"/>
<text text-anchor="middle" x="456.79" y="-171.5" font-family="Helvetica,sans-Serif" font-size="10.00">mimic++/ExpectationBuilder.hpp</text>
</a>
</g>
</g>
<!-- Node7&#45;&gt;Node8 -->
<g id="edge9_Node000007_Node000008" class="edge">
<title>Node7&#45;&gt;Node8</title>
<g id="a_edge9_Node000007_Node000008"><a xlink:title=" ">
<path fill="none" stroke="#63b8ff" d="M376.85,-220.77C396.77,-209.71 423.59,-194.81 440.54,-185.4"/>
<polygon fill="#63b8ff" stroke="#63b8ff" points="375.25,-217.66 368.21,-225.57 378.65,-223.78 375.25,-217.66"/>
</a>
</g>
</g>
<!-- Node9 -->
<g id="Node000009" class="node">
<title>Node9</title>
<g id="a_Node000009"><a xlink:href="../../d5/dc5/_mock_8hpp.html" target="_top" xlink:title=" ">
<polygon fill="white" stroke="#666666" points="459.41,-129.75 360.16,-129.75 360.16,-110.5 459.41,-110.5 459.41,-129.75"/>
<text text-anchor="middle" x="409.79" y="-116.25" font-family="Helvetica,sans-Serif" font-size="10.00">mimic++/Mock.hpp</text>
</a>
</g>
</g>
<!-- Node7&#45;&gt;Node9 -->
<g id="edge17_Node000007_Node000009" class="edge">
<title>Node7&#45;&gt;Node9</title>
<g id="a_edge17_Node000007_Node000009"><a xlink:title=" ">
<path fill="none" stroke="#63b8ff" d="M353.75,-215.08C356.46,-200.68 361.36,-181.21 369.79,-165.75 377.45,-151.68 390.37,-138.39 399.45,-130.03"/>
<polygon fill="#63b8ff" stroke="#63b8ff" points="350.34,-214.27 352.15,-224.7 357.24,-215.41 350.34,-214.27"/>
</a>
</g>
</g>
<!-- Node8&#45;&gt;Node3 -->
<g id="edge16_Node000008_Node000003" class="edge">
<title>Node8&#45;&gt;Node3</title>
<g id="a_edge16_Node000008_Node000003"><a xlink:title=" ">
<path fill="none" stroke="#63b8ff" d="M469,-155.58C480.82,-136.18 497.93,-104.59 504.79,-74.5 506.69,-66.16 508.12,-63.13 504.79,-55.25 498.37,-40.08 484,-27.54 473.01,-19.65"/>
<polygon fill="#63b8ff" stroke="#63b8ff" points="466.08,-153.65 463.72,-163.98 472.01,-157.37 466.08,-153.65"/>
</a>
</g>
</g>
<!-- Node8&#45;&gt;Node9 -->
<g id="edge10_Node000008_Node000009" class="edge">
<title>Node8&#45;&gt;Node9</title>
<g id="a_edge10_Node000008_Node000009"><a xlink:title=" ">
<path fill="none" stroke="#63b8ff" d="M441.46,-157.01C433.53,-148.03 424.19,-137.45 417.72,-130.11"/>
<polygon fill="#63b8ff" stroke="#63b8ff" points="438.78,-159.27 448.02,-164.45 444.03,-154.63 438.78,-159.27"/>
</a>
</g>
</g>
<!-- Node9&#45;&gt;Node3 -->
<g id="edge15_Node000009_Node000003" class="edge">
<title>Node9&#45;&gt;Node3</title>
<g id="a_edge15_Node000009_Node000003"><a xlink:title=" ">
<path fill="none" stroke="#63b8ff" d="M451.61,-105.54C466,-98.63 480.54,-88.62 488.79,-74.5 499.78,-55.67 480.98,-32.14 468.51,-19.56"/>
<polygon fill="#63b8ff" stroke="#63b8ff" points="450.43,-102.23 442.65,-109.43 453.22,-108.66 450.43,-102.23"/>
</a>
</g>
</g>
<!-- Node10 -->
<g id="Node000010" class="node">
<title>Node10</title>
<g id="a_Node000010"><a xlink:href="../../d9/dc3/_interface_mock_8hpp.html" target="_top" xlink:title=" ">
<polygon fill="white" stroke="#666666" points="321.54,-74.5 184.04,-74.5 184.04,-55.25 321.54,-55.25 321.54,-74.5"/>
<text text-anchor="middle" x="252.79" y="-61" font-family="Helvetica,sans-Serif" font-size="10.00">mimic++/InterfaceMock.hpp</text>
</a>
</g>
</g>
<!-- Node9&#45;&gt;Node10 -->
<g id="edge11_Node000009_Node000010" class="edge">
<title>Node9&#45;&gt;Node10</title>
<g id="a_edge11_Node000009_Node000010"><a xlink:title=" ">
<path fill="none" stroke="#63b8ff" d="M372.36,-106.43C343.78,-96.74 305.08,-83.61 279.55,-74.95"/>
<polygon fill="#63b8ff" stroke="#63b8ff" points="371.13,-109.71 381.72,-109.61 373.37,-103.08 371.13,-109.71"/>
</a>
</g>
</g>
<!-- Node11 -->
<g id="Node000011" class="node">
<title>Node11</title>
<g id="a_Node000011"><a xlink:href="../../d5/d92/_object_watcher_8hpp.html" target="_top" xlink:title=" ">
<polygon fill="white" stroke="#666666" points="479.66,-74.5 339.91,-74.5 339.91,-55.25 479.66,-55.25 479.66,-74.5"/>
<text text-anchor="middle" x="409.79" y="-61" font-family="Helvetica,sans-Serif" font-size="10.00">mimic++/ObjectWatcher.hpp</text>
</a>
</g>
</g>
<!-- Node9&#45;&gt;Node11 -->
<g id="edge13_Node000009_Node000011" class="edge">
<title>Node9&#45;&gt;Node11</title>
<g id="a_edge13_Node000009_Node000011"><a xlink:title=" ">
<path fill="none" stroke="#63b8ff" d="M409.79,-98.88C409.79,-90.59 409.79,-81.42 409.79,-74.86"/>
<polygon fill="#63b8ff" stroke="#63b8ff" points="406.29,-98.82 409.79,-108.82 413.29,-98.82 406.29,-98.82"/>
</a>
</g>
</g>
<!-- Node10&#45;&gt;Node3 -->
<g id="edge12_Node000010_Node000003" class="edge">
<title>Node10&#45;&gt;Node3</title>
<g id="a_edge12_Node000010_Node000003"><a xlink:title=" ">
<path fill="none" stroke="#63b8ff" d="M298.45,-52.07C336.23,-42.3 389.13,-28.63 423.67,-19.7"/>
<polygon fill="#63b8ff" stroke="#63b8ff" points="298,-48.57 289.2,-54.46 299.75,-55.35 298,-48.57"/>
</a>
</g>
</g>
<!-- Node11&#45;&gt;Node3 -->
<g id="edge14_Node000011_Node000003" class="edge">
<title>Node11&#45;&gt;Node3</title>
<g id="a_edge14_Node000011_Node000003"><a xlink:title=" ">
<path fill="none" stroke="#63b8ff" d="M425.51,-46.79C433.82,-37.75 443.7,-27.02 450.52,-19.61"/>
<polygon fill="#63b8ff" stroke="#63b8ff" points="423.1,-44.24 418.9,-53.97 428.25,-48.98 423.1,-44.24"/>
</a>
</g>
</g>
<!-- Node12&#45;&gt;Node3 -->
<g id="edge23_Node000012_Node000003" class="edge">
<title>Node12&#45;&gt;Node3</title>
<g id="a_edge23_Node000012_Node000003"><a xlink:title=" ">
<path fill="none" stroke="#63b8ff" d="M513.01,-292.18C544.41,-286.85 579.4,-275.42 602.79,-251.5 626.86,-226.87 621.79,-210.82 621.79,-176.38 621.79,-176.38 621.79,-176.38 621.79,-119.12 621.79,-61.5 550.33,-32.62 502.04,-19.68"/>
<polygon fill="#63b8ff" stroke="#63b8ff" points="512.51,-288.72 503.13,-293.66 513.54,-295.64 512.51,-288.72"/>
</a>
</g>
</g>
<!-- Node12&#45;&gt;Node7 -->
<g id="edge21_Node000012_Node000007" class="edge">
<title>Node12&#45;&gt;Node7</title>
<g id="a_edge21_Node000012_Node000007"><a xlink:title=" ">
<path fill="none" stroke="#63b8ff" d="M418.69,-281.18C401.68,-270.17 379.08,-255.56 364.74,-246.28"/>
<polygon fill="#63b8ff" stroke="#63b8ff" points="416.4,-283.87 426.69,-286.36 420.2,-277.99 416.4,-283.87"/>
</a>
</g>
</g>
<!-- Node12&#45;&gt;Node8 -->
<g id="edge22_Node000012_Node000008" class="edge">
<title>Node12&#45;&gt;Node8</title>
<g id="a_edge22_Node000012_Node000008"><a xlink:title=" ">
<path fill="none" stroke="#63b8ff" d="M444.32,-275.88C447.62,-249.55 453.24,-204.65 455.65,-185.48"/>
<polygon fill="#63b8ff" stroke="#63b8ff" points="440.87,-275.26 443.1,-285.62 447.82,-276.14 440.87,-275.26"/>
</a>
</g>
</g>
<!-- Node13 -->
<g id="Node000013" class="node">
<title>Node13</title>
<g id="a_Node000013"><a xlink:href="../../db/d70/_control_policies_8hpp.html" target="_top" xlink:title=" ">
<polygon fill="white" stroke="#666666" points="593.79,-251.5 469.79,-251.5 469.79,-221 593.79,-221 593.79,-251.5"/>
<text text-anchor="start" x="477.79" y="-238" font-family="Helvetica,sans-Serif" font-size="10.00">mimic++/policies/Control</text>
<text text-anchor="middle" x="531.79" y="-226.75" font-family="Helvetica,sans-Serif" font-size="10.00">Policies.hpp</text>
</a>
</g>
</g>
<!-- Node12&#45;&gt;Node13 -->
<g id="edge24_Node000012_Node000013" class="edge">
<title>Node12&#45;&gt;Node13</title>
<g id="a_edge24_Node000012_Node000013"><a xlink:title=" ">
<path fill="none" stroke="#63b8ff" d="M464.73,-281.12C478.5,-272.11 495.93,-260.7 509.57,-251.78"/>
<polygon fill="#63b8ff" stroke="#63b8ff" points="463.17,-277.95 456.72,-286.35 467.01,-283.81 463.17,-277.95"/>
</a>
</g>
</g>
<!-- Node13&#45;&gt;Node3 -->
<g id="edge26_Node000013_Node000003" class="edge">
<title>Node13&#45;&gt;Node3</title>
<g id="a_edge26_Node000013_Node000003"><a xlink:title=" ">
<path fill="none" stroke="#63b8ff" d="M539.09,-209.8C541.01,-201.92 542.82,-193.16 543.79,-185 549.6,-135.66 520.09,-55.72 519.79,-55.25 509.49,-39.41 491.47,-27.27 477.68,-19.68"/>
<polygon fill="#63b8ff" stroke="#63b8ff" points="535.71,-208.87 536.55,-219.43 542.48,-210.66 535.71,-208.87"/>
</a>
</g>
</g>
<!-- Node13&#45;&gt;Node8 -->
<g id="edge25_Node000013_Node000008" class="edge">
<title>Node13&#45;&gt;Node8</title>
<g id="a_edge25_Node000013_Node000008"><a xlink:title=" ">
<path fill="none" stroke="#63b8ff" d="M504.55,-213.87C492.08,-204.08 477.98,-193.01 468.35,-185.45"/>
<polygon fill="#63b8ff" stroke="#63b8ff" points="502.03,-216.34 512.06,-219.76 506.35,-210.83 502.03,-216.34"/>
</a>
</g>
</g>
<!-- Node14&#45;&gt;Node2 -->
<g id="edge28_Node000014_Node000002" class="edge">
<title>Node14&#45;&gt;Node2</title>
<g id="a_edge28_Node000014_Node000002"><a xlink:title=" ">
<path fill="none" stroke="#63b8ff" d="M209.48,-464.17C208.37,-448.23 206.35,-427.43 202.79,-409.25 195.19,-370.54 179.88,-325.97 173.12,-307.2"/>
<polygon fill="#63b8ff" stroke="#63b8ff" points="205.96,-464.02 210.07,-473.78 212.95,-463.58 205.96,-464.02"/>
</a>
</g>
</g>
<!-- Node14&#45;&gt;Node4 -->
<g id="edge29_Node000014_Node000004" class="edge">
<title>Node14&#45;&gt;Node4</title>
<g id="a_edge29_Node000014_Node000004"><a xlink:title=" ">
<path fill="none" stroke="#63b8ff" d="M177.05,-469.47C157.71,-457.7 134.41,-443.52 119.59,-434.51"/>
<polygon fill="#63b8ff" stroke="#63b8ff" points="175.08,-472.37 185.44,-474.58 178.72,-466.39 175.08,-472.37"/>
</a>
</g>
</g>
<!-- Node14&#45;&gt;Node5 -->
<g id="edge30_Node000014_Node000005" class="edge">
<title>Node14&#45;&gt;Node5</title>
<g id="a_edge30_Node000014_Node000005"><a xlink:title=" ">
<path fill="none" stroke="#63b8ff" d="M243.74,-469.36C258.97,-459.83 276.7,-448.73 290.51,-440.08"/>
<polygon fill="#63b8ff" stroke="#63b8ff" points="242.06,-466.29 235.44,-474.56 245.77,-472.22 242.06,-466.29"/>
</a>
</g>
</g>
</g>
</svg>

<g id="navigator" transform="translate(0 0)" fill="#404254">
  <rect fill="#f2f5e9" fill-opacity="0.5" stroke="#606060" stroke-width=".5" x="0" y="0" width="60" height="60"/>
  <use id="zoomplus" xlink:href="#zoomPlus" x="17" y="9" onmousedown="handleZoom(evt,'in')"/>
  <use id="zoomminus" xlink:href="#zoomMin" x="42" y="9" onmousedown="handleZoom(evt,'out')"/>
  <use id="reset" xlink:href="#resetDef" x="30" y="36" onmousedown="handleReset()"/>
   <use id="arrowup" xlink:href="#arrowUp" x="0" y="0" onmousedown="handlePan(0,-1)"/>
  <use id="arrowright" xlink:href="#arrowRight" x="0" y="0" onmousedown="handlePan(1,0)"/>
  <use id="arrowdown" xlink:href="#arrowDown" x="0" y="0" onmousedown="handlePan(0,1)"/>
  <use id="arrowleft" xlink:href="#arrowLeft" x="0" y="0" onmousedown="handlePan(-1,0)"/>
</g>
<svg viewBox="0 0 15 15" width="100%" height="30px" preserveAspectRatio="xMaxYMin meet">
 <g id="arrow_out" transform="scale(0.3 0.3)">
  <a xlink:href="_no_match_report_8hpp__dep__incl_org.svg" target="_base">
   <rect id="button" ry="5" rx="5" y="6" x="6" height="38" width="38"
        fill="#f2f5e9" fill-opacity="0.5" stroke="#606060" stroke-width="1.0"/>
   <path id="arrow"
     d="M 11.500037,31.436501 C 11.940474,20.09759 22.043105,11.32322 32.158766,21.979434 L 37.068811,17.246167 C 37.068811,17.246167 37.088388,32 37.088388,32 L 22.160133,31.978069 C 22.160133,31.978069 26.997745,27.140456 26.997745,27.140456 C 18.528582,18.264221 13.291696,25.230495 11.500037,31.436501 z"
     style="fill:#404040;"/>
  </a>
 </g>
</svg>

<style type='text/css'>
<![CDATA[
[data-mouse-over-selected='false'] { opacity: 0.7; }
[data-mouse-over-selected='true']  { opacity: 1.0; }
]]>
</style>
<script type="application/ecmascript"><![CDATA[
document.addEventListener('DOMContentLoaded', (event) => {
  highlightEdges();
  highlightAdjacentNodes();
});
]]></script>
</svg>
