<?xml version="1.0" encoding="UTF-8" standalone="no"?>
<!DOCTYPE svg PUBLIC "-//W3C//DTD SVG 1.1//EN"
 "http://www.w3.org/Graphics/SVG/1.1/DTD/svg11.dtd">
<!-- Generated by graphviz version 12.2.1 (20241206.2353)
 -->
<!-- Title: mimic++/Printer.hpp Pages: 1 -->
<svg width="1704pt" height="625pt"
 viewBox="0.00 0.00 1704.00 624.75" xmlns="http://www.w3.org/2000/svg" xmlns:xlink="http://www.w3.org/1999/xlink">
<g id="graph0" class="graph" transform="scale(1 1) rotate(0) translate(4 620.75)">
<title>mimic++/Printer.hpp</title>
<!-- Node1 -->
<g id="Node000001" class="node">
<title>Node1</title>
<g id="a_Node000001"><a xlink:title=" ">
<polygon fill="#999999" stroke="#666666" points="656.88,-616.75 553.12,-616.75 553.12,-597.5 656.88,-597.5 656.88,-616.75"/>
<text text-anchor="middle" x="605" y="-603.25" font-family="Helvetica,sans-Serif" font-size="10.00">mimic++/Printer.hpp</text>
</a>
</g>
</g>
<!-- Node2 -->
<g id="Node000002" class="node">
<title>Node2</title>
<g id="a_Node000002"><a xlink:href="../../d5/dc5/_mock_8hpp.html" target="_top" xlink:title=" ">
<polygon fill="white" stroke="#666666" points="771.62,-135.38 672.38,-135.38 672.38,-116.12 771.62,-116.12 771.62,-135.38"/>
<text text-anchor="middle" x="722" y="-121.88" font-family="Helvetica,sans-Serif" font-size="10.00">mimic++/Mock.hpp</text>
</a>
</g>
</g>
<!-- Node1&#45;&gt;Node2 -->
<g id="edge1_Node000001_Node000002" class="edge">
<title>Node1&#45;&gt;Node2</title>
<g id="a_edge1_Node000001_Node000002"><a xlink:title=" ">
<path fill="none" stroke="#63b8ff" d="M642.22,-592.67C679.7,-576.44 732,-545.27 732,-497.62 732,-497.62 732,-497.62 732,-257.75 732,-211.68 725.77,-156.75 723.15,-135.63"/>
<polygon fill="#63b8ff" stroke="#63b8ff" points="640.93,-589.41 633.02,-596.46 643.6,-595.89 640.93,-589.41"/>
</a>
</g>
</g>
<!-- Node4 -->
<g id="Node000004" class="node">
<title>Node4</title>
<g id="a_Node000004"><a xlink:href="../../d0/db9/mimic_09_09_8hpp.html" target="_top" xlink:title=" ">
<polygon fill="white" stroke="#666666" points="704.75,-19.25 591.25,-19.25 591.25,0 704.75,0 704.75,-19.25"/>
<text text-anchor="middle" x="648" y="-5.75" font-family="Helvetica,sans-Serif" font-size="10.00">mimic++/mimic++.hpp</text>
</a>
</g>
</g>
<!-- Node1&#45;&gt;Node4 -->
<g id="edge59_Node000001_Node000004" class="edge">
<title>Node1&#45;&gt;Node4</title>
<g id="a_edge59_Node000001_Node000004"><a xlink:title=" ">
<path fill="none" stroke="#63b8ff" d="M541.59,-603.91C426.31,-599.32 187.02,-586.97 108,-561.5 54.92,-544.39 0,-553.39 0,-497.62 0,-497.62 0,-497.62 0,-124.75 0,-80.27 31.44,-73.49 72,-55.25 163.59,-14.07 464.34,-10.01 590.98,-10.19"/>
<polygon fill="#63b8ff" stroke="#63b8ff" points="541.37,-607.41 551.5,-604.3 541.65,-600.41 541.37,-607.41"/>
</a>
</g>
</g>
<!-- Node5 -->
<g id="Node000005" class="node">
<title>Node5</title>
<g id="a_Node000005"><a xlink:href="../../d5/d92/_object_watcher_8hpp.html" target="_top" xlink:title=" ">
<polygon fill="white" stroke="#666666" points="581.88,-74.5 442.12,-74.5 442.12,-55.25 581.88,-55.25 581.88,-74.5"/>
<text text-anchor="middle" x="512" y="-61" font-family="Helvetica,sans-Serif" font-size="10.00">mimic++/ObjectWatcher.hpp</text>
</a>
</g>
</g>
<!-- Node1&#45;&gt;Node5 -->
<g id="edge7_Node000001_Node000005" class="edge">
<title>Node1&#45;&gt;Node5</title>
<g id="a_edge7_Node000001_Node000005"><a xlink:title=" ">
<path fill="none" stroke="#63b8ff" d="M541.42,-606.29C400.85,-604.95 76,-591.66 76,-497.62 76,-497.62 76,-497.62 76,-191.25 76,-135.84 120.34,-132.96 171,-110.5 218.08,-89.63 356.54,-76.62 441.86,-70.36"/>
<polygon fill="#63b8ff" stroke="#63b8ff" points="541.29,-609.79 551.32,-606.37 541.34,-602.79 541.29,-609.79"/>
</a>
</g>
</g>
<!-- Node6 -->
<g id="Node000006" class="node">
<title>Node6</title>
<g id="a_Node000006"><a xlink:href="../../da/dd9/_reporter_8hpp.html" target="_top" xlink:title=" ">
<polygon fill="white" stroke="#666666" points="540,-395.75 428,-395.75 428,-376.5 540,-376.5 540,-395.75"/>
<text text-anchor="middle" x="484" y="-382.25" font-family="Helvetica,sans-Serif" font-size="10.00">mimic++/Reporter.hpp</text>
</a>
</g>
</g>
<!-- Node1&#45;&gt;Node6 -->
<g id="edge8_Node000001_Node000006" class="edge">
<title>Node1&#45;&gt;Node6</title>
<g id="a_edge8_Node000001_Node000006"><a xlink:title=" ">
<path fill="none" stroke="#63b8ff" d="M572.8,-591.98C559.39,-584.63 544.72,-574.45 535,-561.5 494.86,-508.02 486.23,-423.53 484.44,-396.07"/>
<polygon fill="#63b8ff" stroke="#63b8ff" points="570.85,-594.91 581.35,-596.35 574.04,-588.68 570.85,-594.91"/>
</a>
</g>
</g>
<!-- Node9 -->
<g id="Node000009" class="node">
<title>Node9</title>
<g id="a_Node000009"><a xlink:href="../../d8/de4/_sequence_8hpp.html" target="_top" xlink:title=" ">
<polygon fill="white" stroke="#666666" points="547.38,-334.88 428.62,-334.88 428.62,-315.62 547.38,-315.62 547.38,-334.88"/>
<text text-anchor="middle" x="488" y="-321.38" font-family="Helvetica,sans-Serif" font-size="10.00">mimic++/Sequence.hpp</text>
</a>
</g>
</g>
<!-- Node1&#45;&gt;Node9 -->
<g id="edge27_Node000001_Node000009" class="edge">
<title>Node1&#45;&gt;Node9</title>
<g id="a_edge27_Node000001_Node000009"><a xlink:title=" ">
<path fill="none" stroke="#63b8ff" d="M637.17,-591.95C650.57,-584.6 665.25,-574.43 675,-561.5 692.83,-537.85 694,-527.24 694,-497.62 694,-497.62 694,-497.62 694,-440.38 694,-373.02 608.68,-345.09 547.86,-333.74"/>
<polygon fill="#63b8ff" stroke="#63b8ff" points="635.93,-588.66 628.63,-596.33 639.12,-594.89 635.93,-588.66"/>
</a>
</g>
</g>
<!-- Node11 -->
<g id="Node000011" class="node">
<title>Node11</title>
<g id="a_Node000011"><a xlink:href="../../d0/d3b/_reports_8hpp.html" target="_top" xlink:title=" ">
<polygon fill="white" stroke="#666666" points="449.5,-451 340.5,-451 340.5,-431.75 449.5,-431.75 449.5,-451"/>
<text text-anchor="middle" x="395" y="-437.5" font-family="Helvetica,sans-Serif" font-size="10.00">mimic++/Reports.hpp</text>
</a>
</g>
</g>
<!-- Node1&#45;&gt;Node11 -->
<g id="edge23_Node000001_Node000011" class="edge">
<title>Node1&#45;&gt;Node11</title>
<g id="a_edge23_Node000001_Node000011"><a xlink:title=" ">
<path fill="none" stroke="#63b8ff" d="M541.88,-596.34C490.23,-584.62 420.45,-559.43 387,-506.25 376.29,-489.22 384.6,-464.56 390.47,-451.42"/>
<polygon fill="#63b8ff" stroke="#63b8ff" points="540.94,-599.72 551.45,-598.39 542.41,-592.87 540.94,-599.72"/>
</a>
</g>
</g>
<!-- Node12 -->
<g id="Node000012" class="node">
<title>Node12</title>
<g id="a_Node000012"><a xlink:href="../../de/df5/_stacktrace_8hpp.html" target="_top" xlink:title=" ">
<polygon fill="white" stroke="#666666" points="666.25,-561.5 543.75,-561.5 543.75,-542.25 666.25,-542.25 666.25,-561.5"/>
<text text-anchor="middle" x="605" y="-548" font-family="Helvetica,sans-Serif" font-size="10.00">mimic++/Stacktrace.hpp</text>
</a>
</g>
</g>
<!-- Node1&#45;&gt;Node12 -->
<g id="edge28_Node000001_Node000012" class="edge">
<title>Node1&#45;&gt;Node12</title>
<g id="a_edge28_Node000001_Node000012"><a xlink:title=" ">
<path fill="none" stroke="#63b8ff" d="M605,-585.88C605,-577.59 605,-568.42 605,-561.86"/>
<polygon fill="#63b8ff" stroke="#63b8ff" points="601.5,-585.82 605,-595.82 608.5,-585.82 601.5,-585.82"/>
</a>
</g>
</g>
<!-- Node18 -->
<g id="Node000018" class="node">
<title>Node18</title>
<g id="a_Node000018"><a xlink:href="../../d3/d58/_common_8hpp.html" target="_top" xlink:title=" ">
<polygon fill="white" stroke="#666666" points="1290.88,-395.75 1133.12,-395.75 1133.12,-376.5 1290.88,-376.5 1290.88,-395.75"/>
<text text-anchor="middle" x="1212" y="-382.25" font-family="Helvetica,sans-Serif" font-size="10.00">mimic++/matchers/Common.hpp</text>
</a>
</g>
</g>
<!-- Node1&#45;&gt;Node18 -->
<g id="edge44_Node000001_Node000018" class="edge">
<title>Node1&#45;&gt;Node18</title>
<g id="a_edge44_Node000001_Node000018"><a xlink:title=" ">
<path fill="none" stroke="#63b8ff" d="M668.21,-595.77C709.41,-588.2 764.04,-576.63 811,-561.5 964.54,-512.02 1139.48,-424.53 1194.5,-396.23"/>
<polygon fill="#63b8ff" stroke="#63b8ff" points="667.67,-592.31 658.45,-597.53 668.91,-599.2 667.67,-592.31"/>
</a>
</g>
</g>
<!-- Node23 -->
<g id="Node000023" class="node">
<title>Node23</title>
<g id="a_Node000023"><a xlink:href="../../de/d10/_general_policies_8hpp.html" target="_top" xlink:title=" ">
<polygon fill="white" stroke="#666666" points="887.5,-274 760.5,-274 760.5,-243.5 887.5,-243.5 887.5,-274"/>
<text text-anchor="start" x="768.5" y="-260.5" font-family="Helvetica,sans-Serif" font-size="10.00">mimic++/policies/General</text>
<text text-anchor="middle" x="824" y="-249.25" font-family="Helvetica,sans-Serif" font-size="10.00">Policies.hpp</text>
</a>
</g>
</g>
<!-- Node1&#45;&gt;Node23 -->
<g id="edge60_Node000001_Node000023" class="edge">
<title>Node1&#45;&gt;Node23</title>
<g id="a_edge60_Node000001_Node000023"><a xlink:title=" ">
<path fill="none" stroke="#63b8ff" d="M668.15,-597.13C724.11,-585.18 797,-558.02 797,-497.62 797,-497.62 797,-497.62 797,-385.12 797,-344.16 810.95,-297.31 818.79,-274.2"/>
<polygon fill="#63b8ff" stroke="#63b8ff" points="667.81,-593.63 658.7,-599.03 669.19,-600.49 667.81,-593.63"/>
</a>
</g>
</g>
<!-- Node3 -->
<g id="Node000003" class="node">
<title>Node3</title>
<g id="a_Node000003"><a xlink:href="../../d9/dc3/_interface_mock_8hpp.html" target="_top" xlink:title=" ">
<polygon fill="white" stroke="#666666" points="851.75,-74.5 714.25,-74.5 714.25,-55.25 851.75,-55.25 851.75,-74.5"/>
<text text-anchor="middle" x="783" y="-61" font-family="Helvetica,sans-Serif" font-size="10.00">mimic++/InterfaceMock.hpp</text>
</a>
</g>
</g>
<!-- Node2&#45;&gt;Node3 -->
<g id="edge2_Node000002_Node000003" class="edge">
<title>Node2&#45;&gt;Node3</title>
<g id="a_edge2_Node000002_Node000003"><a xlink:title=" ">
<path fill="none" stroke="#63b8ff" d="M739.43,-107.93C750.57,-97.18 764.57,-83.66 773.65,-74.9"/>
<polygon fill="#63b8ff" stroke="#63b8ff" points="737.12,-105.29 732.35,-114.76 741.98,-110.33 737.12,-105.29"/>
</a>
</g>
</g>
<!-- Node2&#45;&gt;Node4 -->
<g id="edge6_Node000002_Node000004" class="edge">
<title>Node2&#45;&gt;Node4</title>
<g id="a_edge6_Node000002_Node000004"><a xlink:title=" ">
<path fill="none" stroke="#63b8ff" d="M710.11,-106.41C693.99,-81.56 665.86,-38.17 653.78,-19.54"/>
<polygon fill="#63b8ff" stroke="#63b8ff" points="706.99,-108.04 715.37,-114.52 712.87,-104.23 706.99,-108.04"/>
</a>
</g>
</g>
<!-- Node2&#45;&gt;Node5 -->
<g id="edge4_Node000002_Node000005" class="edge">
<title>Node2&#45;&gt;Node5</title>
<g id="a_edge4_Node000002_Node000005"><a xlink:title=" ">
<path fill="none" stroke="#63b8ff" d="M678.66,-112.6C638.73,-101.41 580.4,-85.05 544.39,-74.96"/>
<polygon fill="#63b8ff" stroke="#63b8ff" points="677.62,-115.94 688.19,-115.27 679.51,-109.2 677.62,-115.94"/>
</a>
</g>
</g>
<!-- Node3&#45;&gt;Node4 -->
<g id="edge3_Node000003_Node000004" class="edge">
<title>Node3&#45;&gt;Node4</title>
<g id="a_edge3_Node000003_Node000004"><a xlink:title=" ">
<path fill="none" stroke="#63b8ff" d="M749.51,-50.66C725.07,-41.02 692.58,-28.21 671.01,-19.7"/>
<polygon fill="#63b8ff" stroke="#63b8ff" points="748.1,-53.87 758.69,-54.29 750.67,-47.36 748.1,-53.87"/>
</a>
</g>
</g>
<!-- Node5&#45;&gt;Node4 -->
<g id="edge5_Node000005_Node000004" class="edge">
<title>Node5&#45;&gt;Node4</title>
<g id="a_edge5_Node000005_Node000004"><a xlink:title=" ">
<path fill="none" stroke="#63b8ff" d="M545.74,-50.66C570.36,-41.02 603.09,-28.21 624.82,-19.7"/>
<polygon fill="#63b8ff" stroke="#63b8ff" points="544.52,-47.38 536.48,-54.29 547.07,-53.9 544.52,-47.38"/>
</a>
</g>
</g>
<!-- Node6&#45;&gt;Node4 -->
<g id="edge22_Node000006_Node000004" class="edge">
<title>Node6&#45;&gt;Node4</title>
<g id="a_edge22_Node000006_Node000004"><a xlink:title=" ">
<path fill="none" stroke="#63b8ff" d="M416.43,-380.06C346.74,-373.79 243.62,-361.33 210,-340.5 172.44,-317.23 152,-303.94 152,-259.75 152,-259.75 152,-259.75 152,-124.75 152,-35.51 460.82,-16.04 591.1,-11.8"/>
<polygon fill="#63b8ff" stroke="#63b8ff" points="415.97,-383.53 426.24,-380.91 416.58,-376.55 415.97,-383.53"/>
</a>
</g>
</g>
<!-- Node7 -->
<g id="Node000007" class="node">
<title>Node7</title>
<g id="a_Node000007"><a xlink:href="../../d5/d8a/_expectation_8hpp.html" target="_top" xlink:title=" ">
<polygon fill="white" stroke="#666666" points="665.75,-268.38 540.25,-268.38 540.25,-249.12 665.75,-249.12 665.75,-268.38"/>
<text text-anchor="middle" x="603" y="-254.88" font-family="Helvetica,sans-Serif" font-size="10.00">mimic++/Expectation.hpp</text>
</a>
</g>
</g>
<!-- Node6&#45;&gt;Node7 -->
<g id="edge9_Node000006_Node000007" class="edge">
<title>Node6&#45;&gt;Node7</title>
<g id="a_edge9_Node000006_Node000007"><a xlink:title=" ">
<path fill="none" stroke="#63b8ff" d="M514.25,-370.72C528.11,-363.1 544.07,-352.77 556,-340.5 577.49,-318.41 592.97,-284.63 599.52,-268.68"/>
<polygon fill="#63b8ff" stroke="#63b8ff" points="512.74,-367.57 505.5,-375.31 515.99,-373.77 512.74,-367.57"/>
</a>
</g>
</g>
<!-- Node6&#45;&gt;Node9 -->
<g id="edge15_Node000006_Node000009" class="edge">
<title>Node6&#45;&gt;Node9</title>
<g id="a_edge15_Node000006_Node000009"><a xlink:title=" ">
<path fill="none" stroke="#63b8ff" d="M485.39,-364.7C486.07,-354.67 486.86,-343.08 487.39,-335.28"/>
<polygon fill="#63b8ff" stroke="#63b8ff" points="481.9,-364.46 484.71,-374.67 488.88,-364.93 481.9,-364.46"/>
</a>
</g>
</g>
<!-- Node7&#45;&gt;Node2 -->
<g id="edge13_Node000007_Node000002" class="edge">
<title>Node7&#45;&gt;Node2</title>
<g id="a_edge13_Node000007_Node000002"><a xlink:title=" ">
<path fill="none" stroke="#63b8ff" d="M618.88,-240.27C644.53,-212.04 694.17,-157.38 713.76,-135.82"/>
<polygon fill="#63b8ff" stroke="#63b8ff" points="616.33,-237.87 612.2,-247.63 621.51,-242.58 616.33,-237.87"/>
</a>
</g>
</g>
<!-- Node7&#45;&gt;Node4 -->
<g id="edge14_Node000007_Node000004" class="edge">
<title>Node7&#45;&gt;Node4</title>
<g id="a_edge14_Node000007_Node000004"><a xlink:title=" ">
<path fill="none" stroke="#63b8ff" d="M606.67,-237.6C615.92,-186.8 639.92,-55.02 646.38,-19.54"/>
<polygon fill="#63b8ff" stroke="#63b8ff" points="603.27,-236.71 604.93,-247.17 610.16,-237.96 603.27,-236.71"/>
</a>
</g>
</g>
<!-- Node8 -->
<g id="Node000008" class="node">
<title>Node8</title>
<g id="a_Node000008"><a xlink:href="../../d2/d4f/_expectation_builder_8hpp.html" target="_top" xlink:title=" ">
<polygon fill="white" stroke="#666666" points="1031.75,-201.88 876.25,-201.88 876.25,-182.62 1031.75,-182.62 1031.75,-201.88"/>
<text text-anchor="middle" x="954" y="-188.38" font-family="Helvetica,sans-Serif" font-size="10.00">mimic++/ExpectationBuilder.hpp</text>
</a>
</g>
</g>
<!-- Node7&#45;&gt;Node8 -->
<g id="edge10_Node000007_Node000008" class="edge">
<title>Node7&#45;&gt;Node8</title>
<g id="a_edge10_Node000007_Node000008"><a xlink:title=" ">
<path fill="none" stroke="#63b8ff" d="M663.53,-246.63C731.68,-234.1 841.13,-213.99 904.42,-202.36"/>
<polygon fill="#63b8ff" stroke="#63b8ff" points="663.24,-243.12 654.03,-248.37 664.5,-250.01 663.24,-243.12"/>
</a>
</g>
</g>
<!-- Node8&#45;&gt;Node2 -->
<g id="edge11_Node000008_Node000002" class="edge">
<title>Node8&#45;&gt;Node2</title>
<g id="a_edge11_Node000008_Node000002"><a xlink:title=" ">
<path fill="none" stroke="#63b8ff" d="M910.3,-179.1C865.01,-166.51 795.26,-147.12 754.58,-135.81"/>
<polygon fill="#63b8ff" stroke="#63b8ff" points="909.22,-182.43 919.79,-181.74 911.1,-175.69 909.22,-182.43"/>
</a>
</g>
</g>
<!-- Node8&#45;&gt;Node4 -->
<g id="edge12_Node000008_Node000004" class="edge">
<title>Node8&#45;&gt;Node4</title>
<g id="a_edge12_Node000008_Node000004"><a xlink:title=" ">
<path fill="none" stroke="#63b8ff" d="M951.11,-171.02C945.65,-140.79 930.89,-84.32 894,-55.25 865.36,-32.68 768.37,-20.52 705.07,-14.82"/>
<polygon fill="#63b8ff" stroke="#63b8ff" points="947.62,-171.39 952.67,-180.71 954.53,-170.28 947.62,-171.39"/>
</a>
</g>
</g>
<!-- Node9&#45;&gt;Node4 -->
<g id="edge18_Node000009_Node000004" class="edge">
<title>Node9&#45;&gt;Node4</title>
<g id="a_edge18_Node000009_Node000004"><a xlink:title=" ">
<path fill="none" stroke="#63b8ff" d="M497.7,-305.25C528.2,-245.46 621.47,-62.63 643.37,-19.71"/>
<polygon fill="#63b8ff" stroke="#63b8ff" points="494.73,-303.36 493.3,-313.85 500.97,-306.54 494.73,-303.36"/>
</a>
</g>
</g>
<!-- Node9&#45;&gt;Node7 -->
<g id="edge16_Node000009_Node000007" class="edge">
<title>Node9&#45;&gt;Node7</title>
<g id="a_edge16_Node000009_Node000007"><a xlink:title=" ">
<path fill="none" stroke="#63b8ff" d="M513.82,-309.77C536.18,-297.23 567.81,-279.49 586.77,-268.85"/>
<polygon fill="#63b8ff" stroke="#63b8ff" points="512.32,-306.6 505.31,-314.54 515.74,-312.7 512.32,-306.6"/>
</a>
</g>
</g>
<!-- Node9&#45;&gt;Node8 -->
<g id="edge17_Node000009_Node000008" class="edge">
<title>Node9&#45;&gt;Node8</title>
<g id="a_edge17_Node000009_Node000008"><a xlink:title=" ">
<path fill="none" stroke="#63b8ff" d="M559.21,-322.37C660.91,-318.54 841.58,-307.16 897,-274 925.57,-256.91 943.57,-219.35 950.62,-202.16"/>
<polygon fill="#63b8ff" stroke="#63b8ff" points="559.2,-318.87 549.33,-322.72 559.45,-325.86 559.2,-318.87"/>
</a>
</g>
</g>
<!-- Node10 -->
<g id="Node000010" class="node">
<title>Node10</title>
<g id="a_Node000010"><a xlink:href="../../db/d70/_control_policies_8hpp.html" target="_top" xlink:title=" ">
<polygon fill="white" stroke="#666666" points="484,-274 360,-274 360,-243.5 484,-243.5 484,-274"/>
<text text-anchor="start" x="368" y="-260.5" font-family="Helvetica,sans-Serif" font-size="10.00">mimic++/policies/Control</text>
<text text-anchor="middle" x="422" y="-249.25" font-family="Helvetica,sans-Serif" font-size="10.00">Policies.hpp</text>
</a>
</g>
</g>
<!-- Node9&#45;&gt;Node10 -->
<g id="edge19_Node000009_Node000010" class="edge">
<title>Node9&#45;&gt;Node10</title>
<g id="a_edge19_Node000009_Node000010"><a xlink:title=" ">
<path fill="none" stroke="#63b8ff" d="M470.73,-307.37C460.15,-297.03 446.75,-283.93 436.68,-274.09"/>
<polygon fill="#63b8ff" stroke="#63b8ff" points="468.14,-309.74 477.74,-314.22 473.03,-304.73 468.14,-309.74"/>
</a>
</g>
</g>
<!-- Node10&#45;&gt;Node4 -->
<g id="edge21_Node000010_Node000004" class="edge">
<title>Node10&#45;&gt;Node4</title>
<g id="a_edge21_Node000010_Node000004"><a xlink:title=" ">
<path fill="none" stroke="#63b8ff" d="M414.53,-232.11C403.92,-189.78 390.18,-105.04 433,-55.25 453.19,-31.76 534.38,-20.11 590.99,-14.74"/>
<polygon fill="#63b8ff" stroke="#63b8ff" points="411.11,-232.87 417.07,-241.63 417.87,-231.06 411.11,-232.87"/>
</a>
</g>
</g>
<!-- Node10&#45;&gt;Node8 -->
<g id="edge20_Node000010_Node000008" class="edge">
<title>Node10&#45;&gt;Node8</title>
<g id="a_edge20_Node000010_Node000008"><a xlink:title=" ">
<path fill="none" stroke="#63b8ff" d="M495.5,-248.02C507.36,-246.49 519.52,-244.93 531,-243.5 651.35,-228.48 791.1,-212.09 876,-202.24"/>
<polygon fill="#63b8ff" stroke="#63b8ff" points="495.2,-244.53 485.74,-249.29 496.11,-251.47 495.2,-244.53"/>
</a>
</g>
</g>
<!-- Node11&#45;&gt;Node4 -->
<g id="edge25_Node000011_Node000004" class="edge">
<title>Node11&#45;&gt;Node4</title>
<g id="a_edge25_Node000011_Node000004"><a xlink:title=" ">
<path fill="none" stroke="#63b8ff" d="M331.73,-428.83C248.86,-409.64 114,-362.6 114,-259.75 114,-259.75 114,-259.75 114,-124.75 114,-78.98 148.19,-73.87 190,-55.25 260.34,-23.93 484.4,-14.48 590.82,-11.72"/>
<polygon fill="#63b8ff" stroke="#63b8ff" points="330.81,-432.21 341.33,-430.97 332.33,-425.38 330.81,-432.21"/>
</a>
</g>
</g>
<!-- Node11&#45;&gt;Node6 -->
<g id="edge24_Node000011_Node000006" class="edge">
<title>Node11&#45;&gt;Node6</title>
<g id="a_edge24_Node000011_Node000006"><a xlink:title=" ">
<path fill="none" stroke="#63b8ff" d="M419.74,-425.57C435.49,-416.15 455.38,-404.25 468.83,-396.2"/>
<polygon fill="#63b8ff" stroke="#63b8ff" points="418.18,-422.43 411.4,-430.56 421.77,-428.43 418.18,-422.43"/>
</a>
</g>
</g>
<!-- Node11&#45;&gt;Node10 -->
<g id="edge26_Node000011_Node000010" class="edge">
<title>Node11&#45;&gt;Node10</title>
<g id="a_edge26_Node000011_Node000010"><a xlink:title=" ">
<path fill="none" stroke="#63b8ff" d="M397.96,-420.56C403.43,-383.96 415,-306.56 419.82,-274.32"/>
<polygon fill="#63b8ff" stroke="#63b8ff" points="394.54,-419.76 396.53,-430.17 401.47,-420.79 394.54,-419.76"/>
</a>
</g>
</g>
<!-- Node12&#45;&gt;Node2 -->
<g id="edge43_Node000012_Node000002" class="edge">
<title>Node12&#45;&gt;Node2</title>
<g id="a_edge43_Node000012_Node000002"><a xlink:title=" ">
<path fill="none" stroke="#63b8ff" d="M610.39,-531.34C631.1,-456.25 705.18,-187.71 719.57,-135.56"/>
<polygon fill="#63b8ff" stroke="#63b8ff" points="607.13,-529.99 607.85,-540.56 613.88,-531.85 607.13,-529.99"/>
</a>
</g>
</g>
<!-- Node13 -->
<g id="Node000013" class="node">
<title>Node13</title>
<g id="a_Node000013"><a xlink:href="../../dc/d44/_call_8hpp.html" target="_top" xlink:title=" ">
<polygon fill="white" stroke="#666666" points="487.88,-506.25 396.12,-506.25 396.12,-487 487.88,-487 487.88,-506.25"/>
<text text-anchor="middle" x="442" y="-492.75" font-family="Helvetica,sans-Serif" font-size="10.00">mimic++/Call.hpp</text>
</a>
</g>
</g>
<!-- Node12&#45;&gt;Node13 -->
<g id="edge29_Node000012_Node000013" class="edge">
<title>Node12&#45;&gt;Node13</title>
<g id="a_edge29_Node000012_Node000013"><a xlink:title=" ">
<path fill="none" stroke="#63b8ff" d="M566.54,-538.31C536.82,-528.6 496.41,-515.4 469.79,-506.7"/>
<polygon fill="#63b8ff" stroke="#63b8ff" points="565.32,-541.59 575.91,-541.37 567.49,-534.94 565.32,-541.59"/>
</a>
</g>
</g>
<!-- Node13&#45;&gt;Node4 -->
<g id="edge33_Node000013_Node000004" class="edge">
<title>Node13&#45;&gt;Node4</title>
<g id="a_edge33_Node000013_Node000004"><a xlink:title=" ">
<path fill="none" stroke="#63b8ff" d="M385.03,-484.19C273.69,-460.19 38,-400.61 38,-326.25 38,-326.25 38,-326.25 38,-124.75 38,-68.79 90.17,-73.72 143,-55.25 224.32,-26.81 476.54,-15.77 590.76,-12.15"/>
<polygon fill="#63b8ff" stroke="#63b8ff" points="384.06,-487.56 394.57,-486.22 385.52,-480.71 384.06,-487.56"/>
</a>
</g>
</g>
<!-- Node13&#45;&gt;Node6 -->
<g id="edge31_Node000013_Node000006" class="edge">
<title>Node13&#45;&gt;Node6</title>
<g id="a_edge31_Node000013_Node000006"><a xlink:title=" ">
<path fill="none" stroke="#63b8ff" d="M449.5,-476.26C458.65,-452.62 473.74,-413.63 480.52,-396.13"/>
<polygon fill="#63b8ff" stroke="#63b8ff" points="446.33,-474.75 445.98,-485.33 452.86,-477.27 446.33,-474.75"/>
</a>
</g>
</g>
<!-- Node13&#45;&gt;Node7 -->
<g id="edge30_Node000013_Node000007" class="edge">
<title>Node13&#45;&gt;Node7</title>
<g id="a_edge30_Node000013_Node000007"><a xlink:title=" ">
<path fill="none" stroke="#63b8ff" d="M462.53,-479.59C485.42,-461.05 522.69,-428.8 549,-395.75 566.67,-373.55 570.07,-366.69 581,-340.5 591.52,-315.29 598.46,-283.56 601.4,-268.48"/>
<polygon fill="#63b8ff" stroke="#63b8ff" points="460.49,-476.75 454.86,-485.72 464.85,-482.22 460.49,-476.75"/>
</a>
</g>
</g>
<!-- Node13&#45;&gt;Node11 -->
<g id="edge32_Node000013_Node000011" class="edge">
<title>Node13&#45;&gt;Node11</title>
<g id="a_edge32_Node000013_Node000011"><a xlink:title=" ">
<path fill="none" stroke="#63b8ff" d="M426.67,-478.26C418.75,-469.28 409.4,-458.7 402.93,-451.36"/>
<polygon fill="#63b8ff" stroke="#63b8ff" points="424,-480.52 433.24,-485.7 429.24,-475.88 424,-480.52"/>
</a>
</g>
</g>
<!-- Node14 -->
<g id="Node000014" class="node">
<title>Node14</title>
<g id="a_Node000014"><a xlink:href="../../d2/dfd/_argument_list_8hpp.html" target="_top" xlink:title=" ">
<polygon fill="white" stroke="#666666" points="354.62,-340.5 219.38,-340.5 219.38,-310 354.62,-310 354.62,-340.5"/>
<text text-anchor="start" x="227.38" y="-327" font-family="Helvetica,sans-Serif" font-size="10.00">mimic++/policies/Argument</text>
<text text-anchor="middle" x="287" y="-315.75" font-family="Helvetica,sans-Serif" font-size="10.00">List.hpp</text>
</a>
</g>
</g>
<!-- Node13&#45;&gt;Node14 -->
<g id="edge34_Node000013_Node000014" class="edge">
<title>Node13&#45;&gt;Node14</title>
<g id="a_edge34_Node000013_Node000014"><a xlink:title=" ">
<path fill="none" stroke="#63b8ff" d="M385.27,-483.06C365.93,-476.33 345.54,-466.18 331,-451 300.98,-419.65 291.3,-366.6 288.29,-340.97"/>
<polygon fill="#63b8ff" stroke="#63b8ff" points="384.14,-486.37 394.74,-486.08 386.28,-479.71 384.14,-486.37"/>
</a>
</g>
</g>
<!-- Node14&#45;&gt;Node4 -->
<g id="edge35_Node000014_Node000004" class="edge">
<title>Node14&#45;&gt;Node4</title>
<g id="a_edge35_Node000014_Node000004"><a xlink:title=" ">
<path fill="none" stroke="#63b8ff" d="M305.49,-300.6C322.67,-277.77 348.08,-241.73 365,-207.5 396.68,-143.4 363.07,-102.2 417,-55.25 442.42,-33.13 531.03,-20.98 590.82,-15.15"/>
<polygon fill="#63b8ff" stroke="#63b8ff" points="302.88,-298.26 299.6,-308.33 308.44,-302.5 302.88,-298.26"/>
</a>
</g>
</g>
<!-- Node15 -->
<g id="Node000015" class="node">
<title>Node15</title>
<g id="a_Node000015"><a xlink:href="../../d1/d42/_arg_requirement_policies_8hpp.html" target="_top" xlink:title=" ">
<polygon fill="white" stroke="#666666" points="1145.5,-274 982.5,-274 982.5,-243.5 1145.5,-243.5 1145.5,-274"/>
<text text-anchor="start" x="990.5" y="-260.5" font-family="Helvetica,sans-Serif" font-size="10.00">mimic++/policies/ArgRequirement</text>
<text text-anchor="middle" x="1064" y="-249.25" font-family="Helvetica,sans-Serif" font-size="10.00">Policies.hpp</text>
</a>
</g>
</g>
<!-- Node14&#45;&gt;Node15 -->
<g id="edge36_Node000014_Node000015" class="edge">
<title>Node14&#45;&gt;Node15</title>
<g id="a_edge36_Node000014_Node000015"><a xlink:title=" ">
<path fill="none" stroke="#63b8ff" d="M366.39,-315.33C384.03,-313.46 402.64,-311.58 420,-310 631.72,-290.67 685.08,-291.04 897,-274 924.7,-271.77 954.97,-269.22 982.05,-266.9"/>
<polygon fill="#63b8ff" stroke="#63b8ff" points="366.04,-311.85 356.47,-316.39 366.78,-318.81 366.04,-311.85"/>
</a>
</g>
</g>
<!-- Node16 -->
<g id="Node000016" class="node">
<title>Node16</title>
<g id="a_Node000016"><a xlink:href="../../d3/da3/_finalizer_policies_8hpp.html" target="_top" xlink:title=" ">
<polygon fill="white" stroke="#666666" points="309.62,-141 180.38,-141 180.38,-110.5 309.62,-110.5 309.62,-141"/>
<text text-anchor="start" x="188.38" y="-127.5" font-family="Helvetica,sans-Serif" font-size="10.00">mimic++/policies/Finalizer</text>
<text text-anchor="middle" x="245" y="-116.25" font-family="Helvetica,sans-Serif" font-size="10.00">Policies.hpp</text>
</a>
</g>
</g>
<!-- Node14&#45;&gt;Node16 -->
<g id="edge39_Node000014_Node000016" class="edge">
<title>Node14&#45;&gt;Node16</title>
<g id="a_edge39_Node000014_Node000016"><a xlink:title=" ">
<path fill="none" stroke="#63b8ff" d="M265.49,-301.2C246.44,-279.09 220.01,-243.79 209,-207.5 205.07,-194.53 204.85,-189.91 209,-177 213.33,-163.51 222.77,-150.57 230.89,-141.2"/>
<polygon fill="#63b8ff" stroke="#63b8ff" points="262.63,-303.25 271.88,-308.42 267.87,-298.61 262.63,-303.25"/>
</a>
</g>
</g>
<!-- Node17 -->
<g id="Node000017" class="node">
<title>Node17</title>
<g id="a_Node000017"><a xlink:href="../../dc/d18/_side_effect_policies_8hpp.html" target="_top" xlink:title=" ">
<polygon fill="white" stroke="#666666" points="355.75,-207.5 218.25,-207.5 218.25,-177 355.75,-177 355.75,-207.5"/>
<text text-anchor="start" x="226.25" y="-194" font-family="Helvetica,sans-Serif" font-size="10.00">mimic++/policies/SideEffect</text>
<text text-anchor="middle" x="287" y="-182.75" font-family="Helvetica,sans-Serif" font-size="10.00">Policies.hpp</text>
</a>
</g>
</g>
<!-- Node14&#45;&gt;Node17 -->
<g id="edge41_Node000014_Node000017" class="edge">
<title>Node14&#45;&gt;Node17</title>
<g id="a_edge41_Node000014_Node000017"><a xlink:title=" ">
<path fill="none" stroke="#63b8ff" d="M287,-298.43C287,-271.34 287,-229.71 287,-207.83"/>
<polygon fill="#63b8ff" stroke="#63b8ff" points="283.5,-298.22 287,-308.22 290.5,-298.22 283.5,-298.22"/>
</a>
</g>
</g>
<!-- Node15&#45;&gt;Node4 -->
<g id="edge38_Node000015_Node000004" class="edge">
<title>Node15&#45;&gt;Node4</title>
<g id="a_edge38_Node000015_Node000004"><a xlink:title=" ">
<path fill="none" stroke="#63b8ff" d="M1060.19,-232.09C1056.91,-215.51 1051.06,-193.94 1041,-177 1001.55,-110.6 985.85,-90.25 917,-55.25 849.69,-21.03 761.83,-12.13 705.16,-10.28"/>
<polygon fill="#63b8ff" stroke="#63b8ff" points="1056.7,-232.42 1061.88,-241.66 1063.59,-231.2 1056.7,-232.42"/>
</a>
</g>
</g>
<!-- Node15&#45;&gt;Node8 -->
<g id="edge37_Node000015_Node000008" class="edge">
<title>Node15&#45;&gt;Node8</title>
<g id="a_edge37_Node000015_Node000008"><a xlink:title=" ">
<path fill="none" stroke="#63b8ff" d="M1029.26,-237.38C1009.14,-225.58 984.81,-211.31 969.37,-202.26"/>
<polygon fill="#63b8ff" stroke="#63b8ff" points="1027.34,-240.31 1037.73,-242.35 1030.88,-234.27 1027.34,-240.31"/>
</a>
</g>
</g>
<!-- Node16&#45;&gt;Node4 -->
<g id="edge40_Node000016_Node000004" class="edge">
<title>Node16&#45;&gt;Node4</title>
<g id="a_edge40_Node000016_Node000004"><a xlink:title=" ">
<path fill="none" stroke="#63b8ff" d="M264.09,-102.02C278.76,-86.18 300.45,-66.03 324,-55.25 370.34,-34.04 510.99,-20.64 590.91,-14.52"/>
<polygon fill="#63b8ff" stroke="#63b8ff" points="261.76,-99.37 257.7,-109.16 266.98,-104.04 261.76,-99.37"/>
</a>
</g>
</g>
<!-- Node17&#45;&gt;Node4 -->
<g id="edge42_Node000017_Node000004" class="edge">
<title>Node17&#45;&gt;Node4</title>
<g id="a_edge42_Node000017_Node000004"><a xlink:title=" ">
<path fill="none" stroke="#63b8ff" d="M303.2,-166.92C308.42,-158.79 314.12,-149.6 319,-141 340.03,-103.92 327.56,-80.38 362,-55.25 397.52,-29.33 518.13,-17.99 590.89,-13.42"/>
<polygon fill="#63b8ff" stroke="#63b8ff" points="300.28,-164.99 297.75,-175.27 306.15,-168.81 300.28,-164.99"/>
</a>
</g>
</g>
<!-- Node18&#45;&gt;Node4 -->
<g id="edge57_Node000018_Node000004" class="edge">
<title>Node18&#45;&gt;Node4</title>
<g id="a_edge57_Node000018_Node000004"><a xlink:title=" ">
<path fill="none" stroke="#63b8ff" d="M1302.23,-380.13C1442.27,-369.88 1696,-340.2 1696,-259.75 1696,-259.75 1696,-259.75 1696,-124.75 1696,-24.2 923.78,-12.18 705.09,-10.79"/>
<polygon fill="#63b8ff" stroke="#63b8ff" points="1302.35,-376.61 1292.62,-380.81 1302.84,-383.6 1302.35,-376.61"/>
</a>
</g>
</g>
<!-- Node18&#45;&gt;Node8 -->
<g id="edge45_Node000018_Node000008" class="edge">
<title>Node18&#45;&gt;Node8</title>
<g id="a_edge45_Node000018_Node000008"><a xlink:title=" ">
<path fill="none" stroke="#63b8ff" d="M1154.79,-373.36C1100.29,-359.14 1019.94,-329.85 974,-274 956.57,-252.81 953.99,-218.59 953.83,-202.36"/>
<polygon fill="#63b8ff" stroke="#63b8ff" points="1153.64,-376.68 1164.2,-375.71 1155.35,-369.89 1153.64,-376.68"/>
</a>
</g>
</g>
<!-- Node18&#45;&gt;Node15 -->
<g id="edge58_Node000018_Node000015" class="edge">
<title>Node18&#45;&gt;Node15</title>
<g id="a_edge58_Node000018_Node000015"><a xlink:title=" ">
<path fill="none" stroke="#63b8ff" d="M1192.9,-368.94C1163.85,-344.34 1109.02,-297.89 1081.17,-274.3"/>
<polygon fill="#63b8ff" stroke="#63b8ff" points="1190.31,-371.34 1200.2,-375.13 1194.83,-366 1190.31,-371.34"/>
</a>
</g>
</g>
<!-- Node19 -->
<g id="Node000019" class="node">
<title>Node19</title>
<g id="a_Node000019"><a xlink:href="../../d9/dd5/_general_matchers_8hpp.html" target="_top" xlink:title=" ">
<polygon fill="white" stroke="#666666" points="1407.25,-340.5 1272.75,-340.5 1272.75,-310 1407.25,-310 1407.25,-340.5"/>
<text text-anchor="start" x="1280.75" y="-327" font-family="Helvetica,sans-Serif" font-size="10.00">mimic++/matchers/General</text>
<text text-anchor="middle" x="1340" y="-315.75" font-family="Helvetica,sans-Serif" font-size="10.00">Matchers.hpp</text>
</a>
</g>
</g>
<!-- Node18&#45;&gt;Node19 -->
<g id="edge46_Node000018_Node000019" class="edge">
<title>Node18&#45;&gt;Node19</title>
<g id="a_edge46_Node000018_Node000019"><a xlink:title=" ">
<path fill="none" stroke="#63b8ff" d="M1242.03,-371.31C1261.87,-362.19 1287.84,-350.24 1308.05,-340.94"/>
<polygon fill="#63b8ff" stroke="#63b8ff" points="1240.72,-368.06 1233.09,-375.42 1243.64,-374.42 1240.72,-368.06"/>
</a>
</g>
</g>
<!-- Node21 -->
<g id="Node000021" class="node">
<title>Node21</title>
<g id="a_Node000021"><a xlink:href="../../df/df3/_range_matchers_8hpp.html" target="_top" xlink:title=" ">
<polygon fill="white" stroke="#666666" points="1667.5,-268.38 1480.5,-268.38 1480.5,-249.12 1667.5,-249.12 1667.5,-268.38"/>
<text text-anchor="middle" x="1574" y="-254.88" font-family="Helvetica,sans-Serif" font-size="10.00">mimic++/matchers/RangeMatchers.hpp</text>
</a>
</g>
</g>
<!-- Node18&#45;&gt;Node21 -->
<g id="edge56_Node000018_Node000021" class="edge">
<title>Node18&#45;&gt;Node21</title>
<g id="a_edge56_Node000018_Node000021"><a xlink:title=" ">
<path fill="none" stroke="#63b8ff" d="M1284.11,-374.02C1323.73,-366.77 1373.35,-355.77 1416,-340.5 1471.68,-320.56 1532.72,-285.11 1559.75,-268.63"/>
<polygon fill="#63b8ff" stroke="#63b8ff" points="1283.67,-370.55 1274.44,-375.75 1284.9,-377.44 1283.67,-370.55"/>
</a>
</g>
</g>
<!-- Node19&#45;&gt;Node4 -->
<g id="edge55_Node000019_Node000004" class="edge">
<title>Node19&#45;&gt;Node4</title>
<g id="a_edge55_Node000019_Node000004"><a xlink:title=" ">
<path fill="none" stroke="#63b8ff" d="M1370.85,-302.43C1389.67,-286.33 1407.86,-263.78 1395,-243.5 1287.42,-73.81 1177.73,-108.52 984,-55.25 888.25,-28.92 772.74,-17.91 705.12,-13.47"/>
<polygon fill="#63b8ff" stroke="#63b8ff" points="1368.76,-299.62 1363.16,-308.61 1373.14,-305.08 1368.76,-299.62"/>
</a>
</g>
</g>
<!-- Node19&#45;&gt;Node8 -->
<g id="edge47_Node000019_Node000008" class="edge">
<title>Node19&#45;&gt;Node8</title>
<g id="a_edge47_Node000019_Node000008"><a xlink:title=" ">
<path fill="none" stroke="#63b8ff" d="M1271.51,-306.26C1246.03,-298.19 1217.4,-287.42 1193,-274 1174.02,-263.56 1174.4,-253.13 1155,-243.5 1112.47,-222.39 1060.36,-209.69 1019.86,-202.34"/>
<polygon fill="#63b8ff" stroke="#63b8ff" points="1270.18,-309.52 1280.77,-309.11 1272.24,-302.83 1270.18,-309.52"/>
</a>
</g>
</g>
<!-- Node20 -->
<g id="Node000020" class="node">
<title>Node20</title>
<g id="a_Node000020"><a xlink:href="../../d1/de0/_floating_point_matchers_8hpp.html" target="_top" xlink:title=" ">
<polygon fill="white" stroke="#666666" points="1545.62,-207.5 1410.38,-207.5 1410.38,-177 1545.62,-177 1545.62,-207.5"/>
<text text-anchor="start" x="1418.38" y="-194" font-family="Helvetica,sans-Serif" font-size="10.00">mimic++/matchers/Floating</text>
<text text-anchor="middle" x="1478" y="-182.75" font-family="Helvetica,sans-Serif" font-size="10.00">PointMatchers.hpp</text>
</a>
</g>
</g>
<!-- Node19&#45;&gt;Node20 -->
<g id="edge48_Node000019_Node000020" class="edge">
<title>Node19&#45;&gt;Node20</title>
<g id="a_edge48_Node000019_Node000020"><a xlink:title=" ">
<path fill="none" stroke="#63b8ff" d="M1384.5,-304.41C1399.43,-296.38 1415.45,-286.11 1428,-274 1448.17,-254.53 1463.6,-225.31 1471.69,-207.88"/>
<polygon fill="#63b8ff" stroke="#63b8ff" points="1383.03,-301.23 1375.74,-308.92 1386.24,-307.45 1383.03,-301.23"/>
</a>
</g>
</g>
<!-- Node19&#45;&gt;Node21 -->
<g id="edge50_Node000019_Node000021" class="edge">
<title>Node19&#45;&gt;Node21</title>
<g id="a_edge50_Node000019_Node000021"><a xlink:title=" ">
<path fill="none" stroke="#63b8ff" d="M1404.36,-306.51C1448.67,-294.3 1505.71,-278.57 1541.06,-268.83"/>
<polygon fill="#63b8ff" stroke="#63b8ff" points="1403.56,-303.1 1394.85,-309.13 1405.42,-309.85 1403.56,-303.1"/>
</a>
</g>
</g>
<!-- Node22 -->
<g id="Node000022" class="node">
<title>Node22</title>
<g id="a_Node000022"><a xlink:href="../../d2/d56/_string_matchers_8hpp.html" target="_top" xlink:title=" ">
<polygon fill="white" stroke="#666666" points="1386.38,-268.38 1201.62,-268.38 1201.62,-249.12 1386.38,-249.12 1386.38,-268.38"/>
<text text-anchor="middle" x="1294" y="-254.88" font-family="Helvetica,sans-Serif" font-size="10.00">mimic++/matchers/StringMatchers.hpp</text>
</a>
</g>
</g>
<!-- Node19&#45;&gt;Node22 -->
<g id="edge52_Node000019_Node000022" class="edge">
<title>Node19&#45;&gt;Node22</title>
<g id="a_edge52_Node000019_Node000022"><a xlink:title=" ">
<path fill="none" stroke="#63b8ff" d="M1322.97,-300.37C1315.05,-289.27 1306.12,-276.74 1300.29,-268.57"/>
<polygon fill="#63b8ff" stroke="#63b8ff" points="1320.03,-302.27 1328.68,-308.38 1325.73,-298.21 1320.03,-302.27"/>
</a>
</g>
</g>
<!-- Node20&#45;&gt;Node4 -->
<g id="edge49_Node000020_Node000004" class="edge">
<title>Node20&#45;&gt;Node4</title>
<g id="a_edge49_Node000020_Node000004"><a xlink:title=" ">
<path fill="none" stroke="#63b8ff" d="M1470.73,-165.79C1460.09,-133.78 1436.97,-80.03 1396,-55.25 1337.45,-19.84 869.99,-12.49 705.23,-11"/>
<polygon fill="#63b8ff" stroke="#63b8ff" points="1467.3,-166.57 1473.63,-175.06 1473.98,-164.47 1467.3,-166.57"/>
</a>
</g>
</g>
<!-- Node21&#45;&gt;Node4 -->
<g id="edge51_Node000021_Node000004" class="edge">
<title>Node21&#45;&gt;Node4</title>
<g id="a_edge51_Node000021_Node000004"><a xlink:title=" ">
<path fill="none" stroke="#63b8ff" d="M1572.54,-237.2C1570.56,-220.09 1565.91,-195.61 1555,-177 1514.47,-107.87 1495.83,-86.42 1422,-55.25 1356.55,-27.62 872.62,-15.21 704.98,-11.71"/>
<polygon fill="#63b8ff" stroke="#63b8ff" points="1569.05,-237.48 1573.45,-247.12 1576.02,-236.84 1569.05,-237.48"/>
</a>
</g>
</g>
<!-- Node22&#45;&gt;Node4 -->
<g id="edge54_Node000022_Node000004" class="edge">
<title>Node22&#45;&gt;Node4</title>
<g id="a_edge54_Node000022_Node000004"><a xlink:title=" ">
<path fill="none" stroke="#63b8ff" d="M1273.48,-241.86C1221.99,-202.91 1081.86,-102.39 948,-55.25 866.67,-26.61 766.64,-16.35 705.11,-12.68"/>
<polygon fill="#63b8ff" stroke="#63b8ff" points="1271.29,-244.6 1281.36,-247.88 1275.54,-239.03 1271.29,-244.6"/>
</a>
</g>
</g>
<!-- Node22&#45;&gt;Node8 -->
<g id="edge53_Node000022_Node000008" class="edge">
<title>Node22&#45;&gt;Node8</title>
<g id="a_edge53_Node000022_Node000008"><a xlink:title=" ">
<path fill="none" stroke="#63b8ff" d="M1234.96,-246.55C1168.92,-234.02 1063.21,-213.97 1002.02,-202.36"/>
<polygon fill="#63b8ff" stroke="#63b8ff" points="1234.04,-249.94 1244.52,-248.36 1235.35,-243.06 1234.04,-249.94"/>
</a>
</g>
</g>
<!-- Node23&#45;&gt;Node2 -->
<g id="edge62_Node000023_Node000002" class="edge">
<title>Node23&#45;&gt;Node2</title>
<g id="a_edge62_Node000023_Node000002"><a xlink:title=" ">
<path fill="none" stroke="#63b8ff" d="M805.86,-234.45C783,-205.09 744.8,-156.04 729.09,-135.85"/>
<polygon fill="#63b8ff" stroke="#63b8ff" points="802.86,-236.3 811.76,-242.04 808.38,-232 802.86,-236.3"/>
</a>
</g>
</g>
<!-- Node23&#45;&gt;Node4 -->
<g id="edge63_Node000023_Node000004" class="edge">
<title>Node23&#45;&gt;Node4</title>
<g id="a_edge63_Node000023_Node000004"><a xlink:title=" ">
<path fill="none" stroke="#63b8ff" d="M839.54,-233.29C863.69,-191.86 903.28,-107.31 861,-55.25 841.68,-31.46 761.29,-19.9 705,-14.62"/>
<polygon fill="#63b8ff" stroke="#63b8ff" points="836.59,-231.41 834.43,-241.79 842.58,-235.02 836.59,-231.41"/>
</a>
</g>
</g>
<!-- Node23&#45;&gt;Node8 -->
<g id="edge61_Node000023_Node000008" class="edge">
<title>Node23&#45;&gt;Node8</title>
<g id="a_edge61_Node000023_Node000008"><a xlink:title=" ">
<path fill="none" stroke="#63b8ff" d="M863.75,-238.03C887.78,-226.1 917.26,-211.48 935.84,-202.26"/>
<polygon fill="#63b8ff" stroke="#63b8ff" points="862.26,-234.86 854.85,-242.44 865.37,-241.13 862.26,-234.86"/>
</a>
</g>
</g>
</g>
</svg>
