<?xml version="1.0" encoding="UTF-8" standalone="no"?>
<!DOCTYPE svg PUBLIC "-//W3C//DTD SVG 1.1//EN"
 "http://www.w3.org/Graphics/SVG/1.1/DTD/svg11.dtd">
<!-- Generated by graphviz version 12.2.1 (20241206.2353)
 -->
<!-- Title: mimic++/Printer.hpp Pages: 1 -->
<!--zoomable 481 -->

<svg id="main" version="1.1" xmlns="http://www.w3.org/2000/svg" xmlns:xlink="http://www.w3.org/1999/xlink" xml:space="preserve" onload="init(evt)">

<style type="text/css"><![CDATA[
.node, .edge {opacity: 0.7;}
.node.selected, .edge.selected {opacity: 1;}
.edge:hover path { stroke: red; }
.edge:hover polygon { stroke: red; fill: red; }
]]></style>

<defs>
  <circle id="rim" cx="0" cy="0" r="7"/>
  <circle id="rim2" cx="0" cy="0" r="3.5"/>
  <g id="zoomPlus">
    <use xlink:href="#rim" fill="#404040"><set attributeName="fill" to="#808080" begin="zoomplus.mouseover" end="zoomplus.mouseout"/></use>
    <path d="M-4,0h8M0,-4v8" fill="none" stroke="white" stroke-width="1.5" pointer-events="none"/>
  </g>
  <g id="zoomMin">
    <use xlink:href="#rim" fill="#404040"><set attributeName="fill" to="#808080" begin="zoomminus.mouseover" end="zoomminus.mouseout"/></use>
    <path d="M-4,0h8" fill="none" stroke="white" stroke-width="1.5" pointer-events="none"/>
  </g>
  <g id="arrowUp" transform="translate(30 24)">
    <use xlink:href="#rim"/>
    <path pointer-events="none" fill="none" stroke="white" stroke-width="1.5" d="M0,-3.0v7 M-2.5,-0.5L0,-3.0L2.5,-0.5"/>
  </g>
  <g id="arrowRight" transform="rotate(90) translate(36 -43)">
    <use xlink:href="#rim"/>
    <path pointer-events="none" fill="none" stroke="white" stroke-width="1.5" d="M0,-3.0v7 M-2.5,-0.5L0,-3.0L2.5,-0.5"/>
  </g>
  <g id="arrowDown" transform="rotate(180) translate(-30 -48)">
    <use xlink:href="#rim"/>
    <path pointer-events="none" fill="none" stroke="white" stroke-width="1.5" d="M0,-3.0v7 M-2.5,-0.5L0,-3.0L2.5,-0.5"/>
  </g>
  <g id="arrowLeft" transform="rotate(270) translate(-36 17)">
    <use xlink:href="#rim"/>
    <path pointer-events="none" fill="none" stroke="white" stroke-width="1.5" d="M0,-3.0v7 M-2.5,-0.5L0,-3.0L2.5,-0.5"/>
  </g>
  <g id="resetDef">
    <use xlink:href="#rim2" fill="#404040"><set attributeName="fill" to="#808080" begin="reset.mouseover" end="reset.mouseout"/></use>
  </g>
</defs>
<script type="application/ecmascript">
var viewWidth = 1441;
var viewHeight = 481;
var sectionId = 'dynsection-1';
</script>
<script type="application/ecmascript" xlink:href="../../svg.min.js"/>
<svg id="graph" class="graph">
<g id="viewport">
<title>mimic++/Printer.hpp</title>
<!-- Node1 -->
<g id="Node000001" class="node">
<title>Node1</title>
<g id="a_Node000001"><a xlink:title=" ">
<polygon fill="#999999" stroke="#666666" points="547.88,-472.5 444.12,-472.5 444.12,-453.25 547.88,-453.25 547.88,-472.5"/>
<text text-anchor="middle" x="496" y="-459" font-family="Helvetica,sans-Serif" font-size="10.00">mimic++/Printer.hpp</text>
</a>
</g>
</g>
<!-- Node2 -->
<g id="Node000002" class="node">
<title>Node2</title>
<g id="a_Node000002"><a xlink:href="../../dd/d50/_matcher_8hpp.html" target="_top" xlink:title=" ">
<polygon fill="white" stroke="#666666" points="315.25,-306.75 204.75,-306.75 204.75,-287.5 315.25,-287.5 315.25,-306.75"/>
<text text-anchor="middle" x="260" y="-293.25" font-family="Helvetica,sans-Serif" font-size="10.00">mimic++/Matcher.hpp</text>
</a>
</g>
</g>
<!-- Node1&#45;&gt;Node2 -->
<g id="edge1_Node000001_Node000002" class="edge">
<title>Node1&#45;&gt;Node2</title>
<g id="a_edge1_Node000001_Node000002"><a xlink:title=" ">
<path fill="none" stroke="#63b8ff" d="M443.42,-449.7C419.45,-442.62 391.47,-432.1 369,-417.25 321.29,-385.73 280.4,-328.8 265.76,-306.97"/>
<polygon fill="#63b8ff" stroke="#63b8ff" points="442.44,-453.06 453.02,-452.4 444.34,-446.32 442.44,-453.06"/>
</a>
</g>
</g>
<!-- Node6 -->
<g id="Node000006" class="node">
<title>Node6</title>
<g id="a_Node000006"><a xlink:href="../../d0/db9/mimic_09_09_8hpp.html" target="_top" xlink:title=" ">
<polygon fill="white" stroke="#666666" points="476.75,-19.25 363.25,-19.25 363.25,0 476.75,0 476.75,-19.25"/>
<text text-anchor="middle" x="420" y="-5.75" font-family="Helvetica,sans-Serif" font-size="10.00">mimic++/mimic++.hpp</text>
</a>
</g>
</g>
<!-- Node1&#45;&gt;Node6 -->
<g id="edge36_Node000001_Node000006" class="edge">
<title>Node1&#45;&gt;Node6</title>
<g id="a_edge36_Node000001_Node000006"><a xlink:title=" ">
<path fill="none" stroke="#63b8ff" d="M432.59,-461.16C298.84,-457.94 0,-440.95 0,-353.38 0,-353.38 0,-353.38 0,-119.12 0,-75.68 34.33,-72.97 74,-55.25 124.39,-32.74 278.39,-19.66 362.94,-14"/>
<polygon fill="#63b8ff" stroke="#63b8ff" points="432.27,-464.66 442.34,-461.38 432.42,-457.66 432.27,-464.66"/>
</a>
</g>
</g>
<!-- Node9 -->
<g id="Node000009" class="node">
<title>Node9</title>
<g id="a_Node000009"><a xlink:href="../../da/dd9/_reporter_8hpp.html" target="_top" xlink:title=" ">
<polygon fill="white" stroke="#666666" points="880,-362 768,-362 768,-342.75 880,-342.75 880,-362"/>
<text text-anchor="middle" x="824" y="-348.5" font-family="Helvetica,sans-Serif" font-size="10.00">mimic++/Reporter.hpp</text>
</a>
</g>
</g>
<!-- Node1&#45;&gt;Node9 -->
<g id="edge14_Node000001_Node000009" class="edge">
<title>Node1&#45;&gt;Node9</title>
<g id="a_edge14_Node000001_Node000009"><a xlink:title=" ">
<path fill="none" stroke="#63b8ff" d="M559.77,-461.81C615.46,-459.34 697.03,-449.71 760,-417.25 785.95,-403.87 807.98,-376.21 818.08,-362.09"/>
<polygon fill="#63b8ff" stroke="#63b8ff" points="559.67,-458.31 549.8,-462.18 559.92,-465.31 559.67,-458.31"/>
</a>
</g>
</g>
<!-- Node11 -->
<g id="Node000011" class="node">
<title>Node11</title>
<g id="a_Node000011"><a xlink:href="../../d8/de4/_sequence_8hpp.html" target="_top" xlink:title=" ">
<polygon fill="white" stroke="#666666" points="661.38,-306.75 542.62,-306.75 542.62,-287.5 661.38,-287.5 661.38,-306.75"/>
<text text-anchor="middle" x="602" y="-293.25" font-family="Helvetica,sans-Serif" font-size="10.00">mimic++/Sequence.hpp</text>
</a>
</g>
</g>
<!-- Node1&#45;&gt;Node11 -->
<g id="edge35_Node000001_Node000011" class="edge">
<title>Node1&#45;&gt;Node11</title>
<g id="a_edge35_Node000001_Node000011"><a xlink:title=" ">
<path fill="none" stroke="#63b8ff" d="M507.85,-443.57C530.58,-408.45 579.56,-332.8 596.27,-306.97"/>
<polygon fill="#63b8ff" stroke="#63b8ff" points="505.02,-441.5 502.52,-451.8 510.89,-445.31 505.02,-441.5"/>
</a>
</g>
</g>
<!-- Node17 -->
<g id="Node000017" class="node">
<title>Node17</title>
<g id="a_Node000017"><a xlink:href="../../d0/d3b/_reports_8hpp.html" target="_top" xlink:title=" ">
<polygon fill="white" stroke="#666666" points="750.5,-417.25 641.5,-417.25 641.5,-398 750.5,-398 750.5,-417.25"/>
<text text-anchor="middle" x="696" y="-403.75" font-family="Helvetica,sans-Serif" font-size="10.00">mimic++/Reports.hpp</text>
</a>
</g>
</g>
<!-- Node1&#45;&gt;Node17 -->
<g id="edge31_Node000001_Node000017" class="edge">
<title>Node1&#45;&gt;Node17</title>
<g id="a_edge31_Node000001_Node000017"><a xlink:title=" ">
<path fill="none" stroke="#63b8ff" d="M540.8,-449.95C577.46,-440.19 628.52,-426.59 661.91,-417.7"/>
<polygon fill="#63b8ff" stroke="#63b8ff" points="540.15,-446.5 531.39,-452.45 541.95,-453.26 540.15,-446.5"/>
</a>
</g>
</g>
<!-- Node18 -->
<g id="Node000018" class="node">
<title>Node18</title>
<g id="a_Node000018"><a xlink:href="../../de/d10/_general_policies_8hpp.html" target="_top" xlink:title=" ">
<polygon fill="white" stroke="#666666" points="374.5,-251.5 247.5,-251.5 247.5,-221 374.5,-221 374.5,-251.5"/>
<text text-anchor="start" x="255.5" y="-238" font-family="Helvetica,sans-Serif" font-size="10.00">mimic++/policies/General</text>
<text text-anchor="middle" x="311" y="-226.75" font-family="Helvetica,sans-Serif" font-size="10.00">Policies.hpp</text>
</a>
</g>
</g>
<!-- Node1&#45;&gt;Node18 -->
<g id="edge37_Node000001_Node000018" class="edge">
<title>Node1&#45;&gt;Node18</title>
<g id="a_edge37_Node000001_Node000018"><a xlink:title=" ">
<path fill="none" stroke="#63b8ff" d="M481.25,-443.97C445.71,-400.81 355.83,-291.68 323.13,-251.98"/>
<polygon fill="#63b8ff" stroke="#63b8ff" points="478.5,-446.13 487.56,-451.62 483.9,-441.68 478.5,-446.13"/>
</a>
</g>
</g>
<!-- Node3 -->
<g id="Node000003" class="node">
<title>Node3</title>
<g id="a_Node000003"><a xlink:href="../../d2/d4f/_expectation_builder_8hpp.html" target="_top" xlink:title=" ">
<polygon fill="white" stroke="#666666" points="495.75,-185 340.25,-185 340.25,-165.75 495.75,-165.75 495.75,-185"/>
<text text-anchor="middle" x="418" y="-171.5" font-family="Helvetica,sans-Serif" font-size="10.00">mimic++/ExpectationBuilder.hpp</text>
</a>
</g>
</g>
<!-- Node2&#45;&gt;Node3 -->
<g id="edge2_Node000002_Node000003" class="edge">
<title>Node2&#45;&gt;Node3</title>
<g id="a_edge2_Node000002_Node000003"><a xlink:title=" ">
<path fill="none" stroke="#63b8ff" d="M323.53,-283.83C344.76,-277.15 367.25,-266.97 384,-251.5 403.98,-233.05 413.03,-200.6 416.37,-185.1"/>
<polygon fill="#63b8ff" stroke="#63b8ff" points="322.66,-280.43 314.03,-286.58 324.61,-287.16 322.66,-280.43"/>
</a>
</g>
</g>
<!-- Node2&#45;&gt;Node6 -->
<g id="edge10_Node000002_Node000006" class="edge">
<title>Node2&#45;&gt;Node6</title>
<g id="a_edge10_Node000002_Node000006"><a xlink:title=" ">
<path fill="none" stroke="#63b8ff" d="M193.11,-289.03C141.69,-282.22 76.27,-270.18 57,-251.5 32.27,-227.53 38,-210.82 38,-176.38 38,-176.38 38,-176.38 38,-119.12 38,-52.42 256.25,-24.57 362.81,-14.94"/>
<polygon fill="#63b8ff" stroke="#63b8ff" points="192.65,-292.49 203.01,-290.29 193.54,-285.55 192.65,-292.49"/>
</a>
</g>
</g>
<!-- Node8 -->
<g id="Node000008" class="node">
<title>Node8</title>
<g id="a_Node000008"><a xlink:href="../../d1/d42/_arg_requirement_policies_8hpp.html" target="_top" xlink:title=" ">
<polygon fill="white" stroke="#666666" points="229.5,-251.5 66.5,-251.5 66.5,-221 229.5,-221 229.5,-251.5"/>
<text text-anchor="start" x="74.5" y="-238" font-family="Helvetica,sans-Serif" font-size="10.00">mimic++/policies/ArgRequirement</text>
<text text-anchor="middle" x="148" y="-226.75" font-family="Helvetica,sans-Serif" font-size="10.00">Policies.hpp</text>
</a>
</g>
</g>
<!-- Node2&#45;&gt;Node8 -->
<g id="edge11_Node000002_Node000008" class="edge">
<title>Node2&#45;&gt;Node8</title>
<g id="a_edge11_Node000002_Node000008"><a xlink:title=" ">
<path fill="none" stroke="#63b8ff" d="M232.93,-281.9C215.58,-272.77 193.11,-260.96 175.64,-251.78"/>
<polygon fill="#63b8ff" stroke="#63b8ff" points="231.17,-284.92 241.65,-286.48 234.43,-278.73 231.17,-284.92"/>
</a>
</g>
</g>
<!-- Node4 -->
<g id="Node000004" class="node">
<title>Node4</title>
<g id="a_Node000004"><a xlink:href="../../d5/dc5/_mock_8hpp.html" target="_top" xlink:title=" ">
<polygon fill="white" stroke="#666666" points="468.62,-129.75 369.38,-129.75 369.38,-110.5 468.62,-110.5 468.62,-129.75"/>
<text text-anchor="middle" x="419" y="-116.25" font-family="Helvetica,sans-Serif" font-size="10.00">mimic++/Mock.hpp</text>
</a>
</g>
</g>
<!-- Node3&#45;&gt;Node4 -->
<g id="edge3_Node000003_Node000004" class="edge">
<title>Node3&#45;&gt;Node4</title>
<g id="a_edge3_Node000003_Node000004"><a xlink:title=" ">
<path fill="none" stroke="#63b8ff" d="M418.38,-154.13C418.54,-145.84 418.71,-136.67 418.83,-130.11"/>
<polygon fill="#63b8ff" stroke="#63b8ff" points="414.88,-154 418.19,-164.07 421.88,-154.14 414.88,-154"/>
</a>
</g>
</g>
<!-- Node3&#45;&gt;Node6 -->
<g id="edge9_Node000003_Node000006" class="edge">
<title>Node3&#45;&gt;Node6</title>
<g id="a_edge9_Node000003_Node000006"><a xlink:title=" ">
<path fill="none" stroke="#63b8ff" d="M368.17,-162.37C303.32,-144.37 202.75,-106.91 243,-55.25 257.75,-36.31 317.04,-24.16 362.97,-17.4"/>
<polygon fill="#63b8ff" stroke="#63b8ff" points="367.01,-165.68 377.57,-164.9 368.83,-158.92 367.01,-165.68"/>
</a>
</g>
</g>
<!-- Node5 -->
<g id="Node000005" class="node">
<title>Node5</title>
<g id="a_Node000005"><a xlink:href="../../d9/dc3/_interface_mock_8hpp.html" target="_top" xlink:title=" ">
<polygon fill="white" stroke="#666666" points="585.75,-74.5 448.25,-74.5 448.25,-55.25 585.75,-55.25 585.75,-74.5"/>
<text text-anchor="middle" x="517" y="-61" font-family="Helvetica,sans-Serif" font-size="10.00">mimic++/InterfaceMock.hpp</text>
</a>
</g>
</g>
<!-- Node4&#45;&gt;Node5 -->
<g id="edge4_Node000004_Node000005" class="edge">
<title>Node4&#45;&gt;Node5</title>
<g id="a_edge4_Node000004_Node000005"><a xlink:title=" ">
<path fill="none" stroke="#63b8ff" d="M445.25,-104.86C462.74,-95.36 485.2,-83.15 500.29,-74.95"/>
<polygon fill="#63b8ff" stroke="#63b8ff" points="444.07,-101.52 436.95,-109.37 447.41,-107.67 444.07,-101.52"/>
</a>
</g>
</g>
<!-- Node4&#45;&gt;Node6 -->
<g id="edge8_Node000004_Node000006" class="edge">
<title>Node4&#45;&gt;Node6</title>
<g id="a_edge8_Node000004_Node000006"><a xlink:title=" ">
<path fill="none" stroke="#63b8ff" d="M419.19,-98.78C419.41,-75.05 419.76,-36.89 419.92,-19.63"/>
<polygon fill="#63b8ff" stroke="#63b8ff" points="415.69,-98.7 419.1,-108.73 422.69,-98.77 415.69,-98.7"/>
</a>
</g>
</g>
<!-- Node7 -->
<g id="Node000007" class="node">
<title>Node7</title>
<g id="a_Node000007"><a xlink:href="../../d5/d92/_object_watcher_8hpp.html" target="_top" xlink:title=" ">
<polygon fill="white" stroke="#666666" points="391.88,-74.5 252.12,-74.5 252.12,-55.25 391.88,-55.25 391.88,-74.5"/>
<text text-anchor="middle" x="322" y="-61" font-family="Helvetica,sans-Serif" font-size="10.00">mimic++/ObjectWatcher.hpp</text>
</a>
</g>
</g>
<!-- Node4&#45;&gt;Node7 -->
<g id="edge6_Node000004_Node000007" class="edge">
<title>Node4&#45;&gt;Node7</title>
<g id="a_edge6_Node000004_Node000007"><a xlink:title=" ">
<path fill="none" stroke="#63b8ff" d="M392.53,-104.59C375.29,-95.13 353.33,-83.08 338.54,-74.95"/>
<polygon fill="#63b8ff" stroke="#63b8ff" points="390.77,-107.62 401.22,-109.36 394.14,-101.48 390.77,-107.62"/>
</a>
</g>
</g>
<!-- Node5&#45;&gt;Node6 -->
<g id="edge5_Node000005_Node000006" class="edge">
<title>Node5&#45;&gt;Node6</title>
<g id="a_edge5_Node000005_Node000006"><a xlink:title=" ">
<path fill="none" stroke="#63b8ff" d="M490.53,-49.34C473.29,-39.88 451.33,-27.83 436.54,-19.7"/>
<polygon fill="#63b8ff" stroke="#63b8ff" points="488.77,-52.37 499.22,-54.11 492.14,-46.23 488.77,-52.37"/>
</a>
</g>
</g>
<!-- Node7&#45;&gt;Node6 -->
<g id="edge7_Node000007_Node000006" class="edge">
<title>Node7&#45;&gt;Node6</title>
<g id="a_edge7_Node000007_Node000006"><a xlink:title=" ">
<path fill="none" stroke="#63b8ff" d="M348.25,-49.61C365.74,-40.11 388.2,-27.9 403.29,-19.7"/>
<polygon fill="#63b8ff" stroke="#63b8ff" points="347.07,-46.27 339.95,-54.12 350.41,-52.42 347.07,-46.27"/>
</a>
</g>
</g>
<!-- Node8&#45;&gt;Node3 -->
<g id="edge12_Node000008_Node000003" class="edge">
<title>Node8&#45;&gt;Node3</title>
<g id="a_edge12_Node000008_Node000003"><a xlink:title=" ">
<path fill="none" stroke="#63b8ff" d="M226.62,-218.11C275.5,-207.45 336.4,-194.17 376.2,-185.49"/>
<polygon fill="#63b8ff" stroke="#63b8ff" points="225.94,-214.67 216.91,-220.22 227.43,-221.51 225.94,-214.67"/>
</a>
</g>
</g>
<!-- Node8&#45;&gt;Node6 -->
<g id="edge13_Node000008_Node000006" class="edge">
<title>Node8&#45;&gt;Node6</title>
<g id="a_edge13_Node000008_Node000006"><a xlink:title=" ">
<path fill="none" stroke="#63b8ff" d="M150.14,-209.51C154.85,-170.12 169.71,-95.24 216,-55.25 237.74,-36.47 310.76,-23.84 363.23,-16.94"/>
<polygon fill="#63b8ff" stroke="#63b8ff" points="146.68,-208.93 149.12,-219.24 153.64,-209.66 146.68,-208.93"/>
</a>
</g>
</g>
<!-- Node9&#45;&gt;Node6 -->
<g id="edge30_Node000009_Node000006" class="edge">
<title>Node9&#45;&gt;Node6</title>
<g id="a_edge30_Node000009_Node000006"><a xlink:title=" ">
<path fill="none" stroke="#63b8ff" d="M891.97,-350.56C1038.38,-348.2 1373.58,-339.27 1413,-306.75 1437.7,-286.37 1432,-269.27 1432,-237.25 1432,-237.25 1432,-237.25 1432,-119.12 1432,-22.33 690.55,-11.74 476.94,-10.7"/>
<polygon fill="#63b8ff" stroke="#63b8ff" points="891.96,-347.06 882.01,-350.72 892.06,-354.06 891.96,-347.06"/>
</a>
</g>
</g>
<!-- Node10 -->
<g id="Node000010" class="node">
<title>Node10</title>
<g id="a_Node000010"><a xlink:href="../../d5/d8a/_expectation_8hpp.html" target="_top" xlink:title=" ">
<polygon fill="white" stroke="#666666" points="736.75,-245.88 611.25,-245.88 611.25,-226.62 736.75,-226.62 736.75,-245.88"/>
<text text-anchor="middle" x="674" y="-232.38" font-family="Helvetica,sans-Serif" font-size="10.00">mimic++/Expectation.hpp</text>
</a>
</g>
</g>
<!-- Node9&#45;&gt;Node10 -->
<g id="edge15_Node000009_Node000010" class="edge">
<title>Node9&#45;&gt;Node10</title>
<g id="a_edge15_Node000009_Node000010"><a xlink:title=" ">
<path fill="none" stroke="#63b8ff" d="M795.33,-337.18C780.11,-329.11 761.41,-318.31 746,-306.75 720.43,-287.56 694.42,-260.05 681.81,-246.1"/>
<polygon fill="#63b8ff" stroke="#63b8ff" points="793.4,-340.12 803.89,-341.61 796.62,-333.91 793.4,-340.12"/>
</a>
</g>
</g>
<!-- Node9&#45;&gt;Node11 -->
<g id="edge19_Node000009_Node000011" class="edge">
<title>Node9&#45;&gt;Node11</title>
<g id="a_edge19_Node000009_Node000011"><a xlink:title=" ">
<path fill="none" stroke="#63b8ff" d="M775.06,-339.64C734.28,-329.86 677.05,-316.13 639.75,-307.18"/>
<polygon fill="#63b8ff" stroke="#63b8ff" points="774.08,-343 784.62,-341.93 775.71,-336.19 774.08,-343"/>
</a>
</g>
</g>
<!-- Node13 -->
<g id="Node000013" class="node">
<title>Node13</title>
<g id="a_Node000013"><a xlink:href="../../d9/d42/_boost_test_8hpp.html" target="_top" xlink:title=" ">
<polygon fill="white" stroke="#666666" points="1071.38,-306.75 910.62,-306.75 910.62,-287.5 1071.38,-287.5 1071.38,-306.75"/>
<text text-anchor="middle" x="991" y="-293.25" font-family="Helvetica,sans-Serif" font-size="10.00">mimic++/adapters/BoostTest.hpp</text>
</a>
</g>
</g>
<!-- Node9&#45;&gt;Node13 -->
<g id="edge26_Node000009_Node000013" class="edge">
<title>Node9&#45;&gt;Node13</title>
<g id="a_edge26_Node000009_Node000013"><a xlink:title=" ">
<path fill="none" stroke="#63b8ff" d="M863.01,-338.94C893.48,-329.22 935.13,-315.94 962.53,-307.2"/>
<polygon fill="#63b8ff" stroke="#63b8ff" points="862.24,-335.51 853.77,-341.88 864.36,-342.18 862.24,-335.51"/>
</a>
</g>
</g>
<!-- Node14 -->
<g id="Node000014" class="node">
<title>Node14</title>
<g id="a_Node000014"><a xlink:href="../../d3/d04/_catch2_8hpp.html" target="_top" xlink:title=" ">
<polygon fill="white" stroke="#666666" points="1236.25,-306.75 1089.75,-306.75 1089.75,-287.5 1236.25,-287.5 1236.25,-306.75"/>
<text text-anchor="middle" x="1163" y="-293.25" font-family="Helvetica,sans-Serif" font-size="10.00">mimic++/adapters/Catch2.hpp</text>
</a>
</g>
</g>
<!-- Node9&#45;&gt;Node14 -->
<g id="edge27_Node000009_Node000014" class="edge">
<title>Node9&#45;&gt;Node14</title>
<g id="a_edge27_Node000009_Node000014"><a xlink:title=" ">
<path fill="none" stroke="#63b8ff" d="M891.67,-340.75C954.14,-330.93 1045.93,-316.51 1105.09,-307.22"/>
<polygon fill="#63b8ff" stroke="#63b8ff" points="891.19,-337.28 881.85,-342.29 892.28,-344.19 891.19,-337.28"/>
</a>
</g>
</g>
<!-- Node15 -->
<g id="Node000015" class="node">
<title>Node15</title>
<g id="a_Node000015"><a xlink:href="../../dc/d42/_doctest_8hpp.html" target="_top" xlink:title=" ">
<polygon fill="white" stroke="#666666" points="1403.75,-306.75 1254.25,-306.75 1254.25,-287.5 1403.75,-287.5 1403.75,-306.75"/>
<text text-anchor="middle" x="1329" y="-293.25" font-family="Helvetica,sans-Serif" font-size="10.00">mimic++/adapters/Doctest.hpp</text>
</a>
</g>
</g>
<!-- Node9&#45;&gt;Node15 -->
<g id="edge28_Node000009_Node000015" class="edge">
<title>Node9&#45;&gt;Node15</title>
<g id="a_edge28_Node000009_Node000015"><a xlink:title=" ">
<path fill="none" stroke="#63b8ff" d="M891.85,-344.22C986.14,-334.28 1156.21,-316.34 1254.11,-306.02"/>
<polygon fill="#63b8ff" stroke="#63b8ff" points="891.54,-340.73 881.97,-345.26 892.28,-347.69 891.54,-340.73"/>
</a>
</g>
</g>
<!-- Node16 -->
<g id="Node000016" class="node">
<title>Node16</title>
<g id="a_Node000016"><a xlink:href="../../d5/db1/gtest_8hpp.html" target="_top" xlink:title=" ">
<polygon fill="white" stroke="#666666" points="892.75,-306.75 755.25,-306.75 755.25,-287.5 892.75,-287.5 892.75,-306.75"/>
<text text-anchor="middle" x="824" y="-293.25" font-family="Helvetica,sans-Serif" font-size="10.00">mimic++/adapters/gtest.hpp</text>
</a>
</g>
</g>
<!-- Node9&#45;&gt;Node16 -->
<g id="edge29_Node000009_Node000016" class="edge">
<title>Node9&#45;&gt;Node16</title>
<g id="a_edge29_Node000009_Node000016"><a xlink:title=" ">
<path fill="none" stroke="#63b8ff" d="M824,-331.13C824,-322.84 824,-313.67 824,-307.11"/>
<polygon fill="#63b8ff" stroke="#63b8ff" points="820.5,-331.07 824,-341.07 827.5,-331.07 820.5,-331.07"/>
</a>
</g>
</g>
<!-- Node10&#45;&gt;Node3 -->
<g id="edge16_Node000010_Node000003" class="edge">
<title>Node10&#45;&gt;Node3</title>
<g id="a_edge16_Node000010_Node000003"><a xlink:title=" ">
<path fill="none" stroke="#63b8ff" d="M623.64,-223.67C574.94,-212.47 502.13,-195.72 457.48,-185.46"/>
<polygon fill="#63b8ff" stroke="#63b8ff" points="622.56,-227.01 633.09,-225.84 624.12,-220.19 622.56,-227.01"/>
</a>
</g>
</g>
<!-- Node10&#45;&gt;Node4 -->
<g id="edge17_Node000010_Node000004" class="edge">
<title>Node10&#45;&gt;Node4</title>
<g id="a_edge17_Node000010_Node000004"><a xlink:title=" ">
<path fill="none" stroke="#63b8ff" d="M643.61,-221.65C590.9,-198.06 483.91,-150.17 439.27,-130.2"/>
<polygon fill="#63b8ff" stroke="#63b8ff" points="642.05,-224.79 652.61,-225.68 644.91,-218.4 642.05,-224.79"/>
</a>
</g>
</g>
<!-- Node10&#45;&gt;Node6 -->
<g id="edge18_Node000010_Node000006" class="edge">
<title>Node10&#45;&gt;Node6</title>
<g id="a_edge18_Node000010_Node000006"><a xlink:title=" ">
<path fill="none" stroke="#63b8ff" d="M673.38,-214.77C671.09,-177.29 660.67,-97.66 614,-55.25 594.11,-37.18 526.81,-24.6 477.03,-17.5"/>
<polygon fill="#63b8ff" stroke="#63b8ff" points="669.88,-214.79 673.83,-224.62 676.87,-214.47 669.88,-214.79"/>
</a>
</g>
</g>
<!-- Node11&#45;&gt;Node3 -->
<g id="edge21_Node000011_Node000003" class="edge">
<title>Node11&#45;&gt;Node3</title>
<g id="a_edge21_Node000011_Node000003"><a xlink:title=" ">
<path fill="none" stroke="#63b8ff" d="M531.16,-284.97C506.64,-278.39 480.25,-267.97 460,-251.5 438.09,-233.68 425.64,-201.23 420.62,-185.46"/>
<polygon fill="#63b8ff" stroke="#63b8ff" points="530.25,-288.35 540.8,-287.37 531.94,-281.56 530.25,-288.35"/>
</a>
</g>
</g>
<!-- Node11&#45;&gt;Node6 -->
<g id="edge22_Node000011_Node000006" class="edge">
<title>Node11&#45;&gt;Node6</title>
<g id="a_edge22_Node000011_Node000006"><a xlink:title=" ">
<path fill="none" stroke="#63b8ff" d="M672.81,-288.83C699,-282.71 726.93,-271.6 746,-251.5 769.7,-226.51 765,-210.82 765,-176.38 765,-176.38 765,-176.38 765,-119.12 765,-59.48 574.96,-28.6 476.97,-16.65"/>
<polygon fill="#63b8ff" stroke="#63b8ff" points="672.27,-285.36 663.2,-290.84 673.7,-292.21 672.27,-285.36"/>
</a>
</g>
</g>
<!-- Node11&#45;&gt;Node10 -->
<g id="edge20_Node000011_Node000010" class="edge">
<title>Node11&#45;&gt;Node10</title>
<g id="a_edge20_Node000011_Node000010"><a xlink:title=" ">
<path fill="none" stroke="#63b8ff" d="M621.8,-279.94C635.06,-269.09 652.03,-255.21 662.96,-246.28"/>
<polygon fill="#63b8ff" stroke="#63b8ff" points="619.63,-277.19 614.11,-286.23 624.06,-282.6 619.63,-277.19"/>
</a>
</g>
</g>
<!-- Node12 -->
<g id="Node000012" class="node">
<title>Node12</title>
<g id="a_Node000012"><a xlink:href="../../db/d70/_control_policies_8hpp.html" target="_top" xlink:title=" ">
<polygon fill="white" stroke="#666666" points="593,-251.5 469,-251.5 469,-221 593,-221 593,-251.5"/>
<text text-anchor="start" x="477" y="-238" font-family="Helvetica,sans-Serif" font-size="10.00">mimic++/policies/Control</text>
<text text-anchor="middle" x="531" y="-226.75" font-family="Helvetica,sans-Serif" font-size="10.00">Policies.hpp</text>
</a>
</g>
</g>
<!-- Node11&#45;&gt;Node12 -->
<g id="edge23_Node000011_Node000012" class="edge">
<title>Node11&#45;&gt;Node12</title>
<g id="a_edge23_Node000011_Node000012"><a xlink:title=" ">
<path fill="none" stroke="#63b8ff" d="M582.62,-280.06C571.97,-271.23 558.87,-260.36 548.52,-251.78"/>
<polygon fill="#63b8ff" stroke="#63b8ff" points="580.12,-282.53 590.05,-286.22 584.59,-277.14 580.12,-282.53"/>
</a>
</g>
</g>
<!-- Node12&#45;&gt;Node3 -->
<g id="edge24_Node000012_Node000003" class="edge">
<title>Node12&#45;&gt;Node3</title>
<g id="a_edge24_Node000012_Node000003"><a xlink:title=" ">
<path fill="none" stroke="#63b8ff" d="M492.66,-215.27C473.21,-205.14 450.54,-193.33 435.33,-185.4"/>
<polygon fill="#63b8ff" stroke="#63b8ff" points="490.95,-218.33 501.43,-219.85 494.18,-212.12 490.95,-218.33"/>
</a>
</g>
</g>
<!-- Node12&#45;&gt;Node6 -->
<g id="edge25_Node000012_Node000006" class="edge">
<title>Node12&#45;&gt;Node6</title>
<g id="a_edge25_Node000012_Node000006"><a xlink:title=" ">
<path fill="none" stroke="#63b8ff" d="M552.04,-212.2C582.8,-175.64 632.52,-103.54 595,-55.25 580.48,-36.56 522.2,-24.39 476.84,-17.55"/>
<polygon fill="#63b8ff" stroke="#63b8ff" points="549.57,-209.7 545.68,-219.55 554.87,-214.28 549.57,-209.7"/>
</a>
</g>
</g>
<!-- Node17&#45;&gt;Node6 -->
<g id="edge33_Node000017_Node000006" class="edge">
<title>Node17&#45;&gt;Node6</title>
<g id="a_edge33_Node000017_Node000006"><a xlink:title=" ">
<path fill="none" stroke="#63b8ff" d="M702.97,-387.22C711.84,-363.25 728.18,-321.49 746,-287.5 771.78,-238.34 803,-231.88 803,-176.38 803,-176.38 803,-176.38 803,-119.12 803,-71.16 760.34,-73.55 716,-55.25 637.46,-22.83 538.5,-13.62 477.25,-11.19"/>
<polygon fill="#63b8ff" stroke="#63b8ff" points="699.8,-385.71 699.66,-396.3 706.37,-388.1 699.8,-385.71"/>
</a>
</g>
</g>
<!-- Node17&#45;&gt;Node9 -->
<g id="edge32_Node000017_Node000009" class="edge">
<title>Node17&#45;&gt;Node9</title>
<g id="a_edge32_Node000017_Node000009"><a xlink:title=" ">
<path fill="none" stroke="#63b8ff" d="M728.07,-393.28C751.21,-383.66 781.82,-370.92 802.18,-362.45"/>
<polygon fill="#63b8ff" stroke="#63b8ff" points="727,-389.94 719.11,-397.01 729.69,-396.4 727,-389.94"/>
</a>
</g>
</g>
<!-- Node17&#45;&gt;Node12 -->
<g id="edge34_Node000017_Node000012" class="edge">
<title>Node17&#45;&gt;Node12</title>
<g id="a_edge34_Node000017_Node000012"><a xlink:title=" ">
<path fill="none" stroke="#63b8ff" d="M655,-393.88C616.35,-379.47 560.52,-351.94 534,-306.75 524.16,-289.98 525.51,-266.82 527.87,-251.93"/>
<polygon fill="#63b8ff" stroke="#63b8ff" points="653.39,-397.02 663.99,-397.09 655.75,-390.43 653.39,-397.02"/>
</a>
</g>
</g>
<!-- Node18&#45;&gt;Node3 -->
<g id="edge38_Node000018_Node000003" class="edge">
<title>Node18&#45;&gt;Node3</title>
<g id="a_edge38_Node000018_Node000003"><a xlink:title=" ">
<path fill="none" stroke="#63b8ff" d="M347.56,-215.13C365.92,-205.03 387.25,-193.29 401.59,-185.4"/>
<polygon fill="#63b8ff" stroke="#63b8ff" points="346.12,-211.93 339.05,-219.82 349.5,-218.06 346.12,-211.93"/>
</a>
</g>
</g>
<!-- Node18&#45;&gt;Node4 -->
<g id="edge39_Node000018_Node000004" class="edge">
<title>Node18&#45;&gt;Node4</title>
<g id="a_edge39_Node000018_Node000004"><a xlink:title=" ">
<path fill="none" stroke="#63b8ff" d="M313.36,-209.57C315.81,-195.33 320.81,-178.07 331,-165.75 345.41,-148.32 368.35,-137 387.2,-130.13"/>
<polygon fill="#63b8ff" stroke="#63b8ff" points="309.94,-208.76 312.04,-219.14 316.87,-209.71 309.94,-208.76"/>
</a>
</g>
</g>
<!-- Node18&#45;&gt;Node6 -->
<g id="edge40_Node000018_Node000006" class="edge">
<title>Node18&#45;&gt;Node6</title>
<g id="a_edge40_Node000018_Node000006"><a xlink:title=" ">
<path fill="none" stroke="#63b8ff" d="M286.5,-212.68C250.26,-176.58 190.69,-104.86 230,-55.25 246.41,-34.54 313.38,-22.5 363.19,-16.25"/>
<polygon fill="#63b8ff" stroke="#63b8ff" points="284,-215.14 293.62,-219.59 288.88,-210.11 284,-215.14"/>
</a>
</g>
</g>
</g>
</svg>

<g id="navigator" transform="translate(0 0)" fill="#404254">
  <rect fill="#f2f5e9" fill-opacity="0.5" stroke="#606060" stroke-width=".5" x="0" y="0" width="60" height="60"/>
  <use id="zoomplus" xlink:href="#zoomPlus" x="17" y="9" onmousedown="handleZoom(evt,'in')"/>
  <use id="zoomminus" xlink:href="#zoomMin" x="42" y="9" onmousedown="handleZoom(evt,'out')"/>
  <use id="reset" xlink:href="#resetDef" x="30" y="36" onmousedown="handleReset()"/>
   <use id="arrowup" xlink:href="#arrowUp" x="0" y="0" onmousedown="handlePan(0,-1)"/>
  <use id="arrowright" xlink:href="#arrowRight" x="0" y="0" onmousedown="handlePan(1,0)"/>
  <use id="arrowdown" xlink:href="#arrowDown" x="0" y="0" onmousedown="handlePan(0,1)"/>
  <use id="arrowleft" xlink:href="#arrowLeft" x="0" y="0" onmousedown="handlePan(-1,0)"/>
</g>
<svg viewBox="0 0 15 15" width="100%" height="30px" preserveAspectRatio="xMaxYMin meet">
 <g id="arrow_out" transform="scale(0.3 0.3)">
  <a xlink:href="_printer_8hpp__dep__incl_org.svg" target="_base">
   <rect id="button" ry="5" rx="5" y="6" x="6" height="38" width="38"
        fill="#f2f5e9" fill-opacity="0.5" stroke="#606060" stroke-width="1.0"/>
   <path id="arrow"
     d="M 11.500037,31.436501 C 11.940474,20.09759 22.043105,11.32322 32.158766,21.979434 L 37.068811,17.246167 C 37.068811,17.246167 37.088388,32 37.088388,32 L 22.160133,31.978069 C 22.160133,31.978069 26.997745,27.140456 26.997745,27.140456 C 18.528582,18.264221 13.291696,25.230495 11.500037,31.436501 z"
     style="fill:#404040;"/>
  </a>
 </g>
</svg>

<style type='text/css'>
<![CDATA[
[data-mouse-over-selected='false'] { opacity: 0.7; }
[data-mouse-over-selected='true']  { opacity: 1.0; }
]]>
</style>
<script type="application/ecmascript"><![CDATA[
document.addEventListener('DOMContentLoaded', (event) => {
  highlightEdges();
  highlightAdjacentNodes();
});
]]></script>
</svg>
