<?xml version="1.0" encoding="UTF-8" standalone="no"?>
<!DOCTYPE svg PUBLIC "-//W3C//DTD SVG 1.1//EN"
 "http://www.w3.org/Graphics/SVG/1.1/DTD/svg11.dtd">
<!-- Generated by graphviz version 12.2.1 (20241206.2353)
 -->
<!-- Title: mimicpp::GreedySequence Pages: 1 -->
<svg width="636pt" height="67pt"
 viewBox="0.00 0.00 636.00 67.00" xmlns="http://www.w3.org/2000/svg" xmlns:xlink="http://www.w3.org/1999/xlink">
<g id="graph0" class="graph" transform="scale(1 1) rotate(0) translate(4 63)">
<title>mimicpp::GreedySequence</title>
<!-- Node1 -->
<g id="Node000001" class="node">
<title>Node1</title>
<g id="a_Node000001"><a xlink:title="The greedy sequence interface.">
<polygon fill="#999999" stroke="#666666" points="628,-36.12 496.5,-36.12 496.5,-16.88 628,-16.88 628,-36.12"/>
<text text-anchor="middle" x="562.25" y="-22.62" font-family="Helvetica,sans-Serif" font-size="10.00">mimicpp::GreedySequence</text>
</a>
</g>
</g>
<!-- Node2 -->
<g id="Node000002" class="node">
<title>Node2</title>
<g id="a_Node000002"><a xlink:title=" ">
<polygon fill="white" stroke="#666666" points="459.5,-53 309.25,-53 309.25,0 459.5,0 459.5,-53"/>
<text text-anchor="start" x="317.25" y="-39.5" font-family="Helvetica,sans-Serif" font-size="10.00">mimicpp::sequence::</text>
<text text-anchor="start" x="317.25" y="-28.25" font-family="Helvetica,sans-Serif" font-size="10.00">detail::BasicSequenceInterface</text>
<text text-anchor="start" x="317.25" y="-17" font-family="Helvetica,sans-Serif" font-size="10.00">&lt; sequence::Id, sequence::</text>
<text text-anchor="middle" x="384.38" y="-5.75" font-family="Helvetica,sans-Serif" font-size="10.00">detail::GreedyStrategy{}&gt;</text>
</a>
</g>
</g>
<!-- Node2&#45;&gt;Node1 -->
<g id="edge1_Node000001_Node000002" class="edge">
<title>Node2&#45;&gt;Node1</title>
<g id="a_edge1_Node000001_Node000002"><a xlink:title=" ">
<path fill="none" stroke="#63b8ff" d="M471.27,-26.5C479.59,-26.5 487.94,-26.5 496.01,-26.5"/>
<polygon fill="#63b8ff" stroke="#63b8ff" points="471.48,-23 461.48,-26.5 471.48,-30 471.48,-23"/>
</a>
</g>
</g>
<!-- Node3 -->
<g id="Node000003" class="node">
<title>Node3</title>
<g id="a_Node000003"><a xlink:title=" ">
<polygon fill="white" stroke="#666666" points="150.25,-47.38 0,-47.38 0,-5.62 150.25,-5.62 150.25,-47.38"/>
<text text-anchor="start" x="8" y="-33.88" font-family="Helvetica,sans-Serif" font-size="10.00">mimicpp::sequence::</text>
<text text-anchor="start" x="8" y="-22.62" font-family="Helvetica,sans-Serif" font-size="10.00">detail::BasicSequenceInterface</text>
<text text-anchor="middle" x="75.12" y="-11.38" font-family="Helvetica,sans-Serif" font-size="10.00">&lt; Id, priorityStrategy &gt;</text>
</a>
</g>
</g>
<!-- Node3&#45;&gt;Node2 -->
<g id="edge2_Node000002_Node000003" class="edge">
<title>Node3&#45;&gt;Node2</title>
<g id="a_edge2_Node000002_Node000003"><a xlink:title=" ">
<path fill="none" stroke="orange" stroke-dasharray="5,2" d="M162.01,-26.5C208.19,-26.5 264.58,-26.5 308.89,-26.5"/>
<polygon fill="orange" stroke="orange" points="162.02,-23 152.02,-26.5 162.02,-30 162.02,-23"/>
</a>
</g>
<text text-anchor="start" x="171.25" y="-46.5" font-family="Helvetica,sans-Serif" font-size="10.00" fill="grey">&lt; sequence::Id, sequence</text>
<text text-anchor="start" x="171.25" y="-31.25" font-family="Helvetica,sans-Serif" font-size="10.00" fill="grey">  ::detail::GreedyStrategy{}&gt;</text>
</g>
</g>
</svg>
