<?xml version="1.0" encoding="UTF-8" standalone="no"?>
<!DOCTYPE svg PUBLIC "-//W3C//DTD SVG 1.1//EN"
 "http://www.w3.org/Graphics/SVG/1.1/DTD/svg11.dtd">
<!-- Generated by graphviz version 12.1.2 (20240928.0832)
 -->
<!-- Title: string Pages: 1 -->
<svg width="217pt" height="138pt"
 viewBox="0.00 0.00 217.00 138.25" xmlns="http://www.w3.org/2000/svg" xmlns:xlink="http://www.w3.org/1999/xlink">
<g id="graph0" class="graph" transform="scale(1 1) rotate(0) translate(4 134.25)">
<title>string</title>
<!-- Node1 -->
<g id="Node000001" class="node">
<title>Node1</title>
<g id="a_Node000001"><a xlink:title="Contains symbols for generic string processing.">
<polygon fill="#999999" stroke="#666666" points="40,-74.25 0,-74.25 0,-55 40,-55 40,-74.25"/>
<text text-anchor="middle" x="20" y="-60.75" font-family="Helvetica,sans-Serif" font-size="10.00">string</text>
</a>
</g>
</g>
<!-- Node2 -->
<g id="Node000002" class="node">
<title>Node2</title>
<g id="a_Node000002"><a xlink:href="../../dc/d26/group___t_y_p_e___t_r_a_i_t_s___i_s___c_h_a_r_a_c_t_e_r.html" target="_top" xlink:title="Type&#45;trait, which determines, whether the given type is a character&#45;type.">
<polygon fill="white" stroke="#666666" points="177.12,-130.25 107.88,-130.25 107.88,-111 177.12,-111 177.12,-130.25"/>
<text text-anchor="middle" x="142.5" y="-116.75" font-family="Helvetica,sans-Serif" font-size="10.00">is_character</text>
</a>
</g>
</g>
<!-- Node1&#45;&gt;Node2 -->
<g id="edge1" class="edge">
<title>Node1&#45;&gt;Node2</title>
<path fill="none" stroke="black" d="M41.93,-81.57C51.79,-88.89 64.01,-97.03 76,-102.62 85.83,-107.21 97.06,-110.83 107.4,-113.57"/>
<polygon fill="black" stroke="black" points="44.2,-78.9 34.14,-75.58 39.93,-84.45 44.2,-78.9"/>
</g>
<!-- Node3 -->
<g id="Node000003" class="node">
<title>Node3</title>
<g id="a_Node000003"><a xlink:href="../../d6/d04/group___t_y_p_e___t_r_a_i_t_s___s_t_r_i_n_g___c_a_s_e___f_o_l_d___c_o_n_v_e_r_t_e_r.html" target="_top" xlink:title="Type&#45;trait, which provides the case&#45;folding algorithm for the char&#45;type, they are specialized for.">
<polygon fill="white" stroke="#666666" points="209,-93.25 76,-93.25 76,-74 209,-74 209,-93.25"/>
<text text-anchor="middle" x="142.5" y="-79.75" font-family="Helvetica,sans-Serif" font-size="10.00">string_case_fold_converter</text>
</a>
</g>
</g>
<!-- Node1&#45;&gt;Node3 -->
<g id="edge2" class="edge">
<title>Node1&#45;&gt;Node3</title>
<path fill="none" stroke="black" d="M51.59,-69.45C59.53,-70.7 68.37,-72.09 77.33,-73.51"/>
<polygon fill="black" stroke="black" points="52.28,-66.01 41.86,-67.91 51.19,-72.93 52.28,-66.01"/>
</g>
<!-- Node4 -->
<g id="Node000004" class="node">
<title>Node4</title>
<g id="a_Node000004"><a xlink:href="../../dc/d55/group___t_y_p_e___t_r_a_i_t_s___s_t_r_i_n_g___l_i_t_e_r_a_l___p_r_e_f_i_x.html" target="_top" xlink:title="Yields the printable prefix for any char&#45;type.">
<polygon fill="white" stroke="#666666" points="190.62,-56.25 94.38,-56.25 94.38,-37 190.62,-37 190.62,-56.25"/>
<text text-anchor="middle" x="142.5" y="-42.75" font-family="Helvetica,sans-Serif" font-size="10.00">string_literal_prefix</text>
</a>
</g>
</g>
<!-- Node1&#45;&gt;Node4 -->
<g id="edge3" class="edge">
<title>Node1&#45;&gt;Node4</title>
<path fill="none" stroke="black" d="M51.44,-60.08C64.37,-58.15 79.75,-55.85 94.1,-53.71"/>
<polygon fill="black" stroke="black" points="51.23,-56.57 41.86,-61.51 52.26,-63.49 51.23,-56.57"/>
</g>
<!-- Node5 -->
<g id="Node000005" class="node">
<title>Node5</title>
<g id="a_Node000005"><a xlink:href="../../da/df3/group___t_y_p_e___t_r_a_i_t_s___s_t_r_i_n_g___t_r_a_i_t_s.html" target="_top" xlink:title="Type&#45;trait, which contains properties for the provided string type.">
<polygon fill="white" stroke="#666666" points="176,-19.25 109,-19.25 109,0 176,0 176,-19.25"/>
<text text-anchor="middle" x="142.5" y="-5.75" font-family="Helvetica,sans-Serif" font-size="10.00">string_traits</text>
</a>
</g>
</g>
<!-- Node1&#45;&gt;Node5 -->
<g id="edge4" class="edge">
<title>Node1&#45;&gt;Node5</title>
<path fill="none" stroke="black" d="M42.38,-47.87C52.19,-40.82 64.23,-33.02 76,-27.62 86.29,-22.9 98.07,-19.19 108.78,-16.4"/>
<polygon fill="black" stroke="black" points="40.55,-44.87 34.62,-53.65 44.73,-50.48 40.55,-44.87"/>
</g>
</g>
</svg>
