<?xml version="1.0" encoding="UTF-8" standalone="no"?>
<!DOCTYPE svg PUBLIC "-//W3C//DTD SVG 1.1//EN"
 "http://www.w3.org/Graphics/SVG/1.1/DTD/svg11.dtd">
<!-- Generated by graphviz version 12.2.1 (20241206.2353)
 -->
<!-- Title: mimicpp::util::stacktrace::backend_traits&lt; Backend &gt; Pages: 1 -->
<svg width="451pt" height="230pt"
 viewBox="0.00 0.00 451.00 229.75" xmlns="http://www.w3.org/2000/svg" xmlns:xlink="http://www.w3.org/1999/xlink">
<g id="graph0" class="graph" transform="scale(1 1) rotate(0) translate(4 225.75)">
<title>mimicpp::util::stacktrace::backend_traits&lt; Backend &gt;</title>
<!-- Node1 -->
<g id="Node000001" class="node">
<title>Node1</title>
<g id="a_Node000001"><a xlink:title="Trait type for stacktrace backends.">
<polygon fill="#999999" stroke="#666666" points="139,-126.12 0,-126.12 0,-95.62 139,-95.62 139,-126.12"/>
<text text-anchor="start" x="8" y="-112.62" font-family="Helvetica,sans-Serif" font-size="10.00">mimicpp::util::stacktrace</text>
<text text-anchor="middle" x="69.5" y="-101.38" font-family="Helvetica,sans-Serif" font-size="10.00">::backend_traits&lt; Backend &gt;</text>
</a>
</g>
</g>
<!-- Node2 -->
<g id="Node000002" class="node">
<title>Node2</title>
<g id="a_Node000002"><a xlink:href="../../da/d39/structmimicpp_1_1util_1_1stacktrace_1_1backend__traits_3_01boost_1_1stacktrace_1_1stacktrace_01_4.html" target="_top" xlink:title=" ">
<polygon fill="white" stroke="#666666" points="428.75,-221.75 304,-221.75 304,-180 428.75,-180 428.75,-221.75"/>
<text text-anchor="start" x="312" y="-208.25" font-family="Helvetica,sans-Serif" font-size="10.00">mimicpp::util::stacktrace</text>
<text text-anchor="start" x="312" y="-197" font-family="Helvetica,sans-Serif" font-size="10.00">::backend_traits&lt; boost</text>
<text text-anchor="middle" x="366.38" y="-185.75" font-family="Helvetica,sans-Serif" font-size="10.00">::stacktrace::stacktrace &gt;</text>
</a>
</g>
</g>
<!-- Node1&#45;&gt;Node2 -->
<g id="edge1_Node000001_Node000002" class="edge">
<title>Node1&#45;&gt;Node2</title>
<g id="a_edge1_Node000001_Node000002"><a xlink:title=" ">
<path fill="none" stroke="orange" stroke-dasharray="5,2" d="M115.31,-130.93C128.59,-136.49 143.25,-142.26 157,-146.88 205.54,-163.17 261.8,-177.49 303.62,-187.28"/>
<polygon fill="orange" stroke="orange" points="116.97,-127.84 106.4,-127.14 114.23,-134.28 116.97,-127.84"/>
</a>
</g>
<text text-anchor="start" x="172" y="-192.04" font-family="Helvetica,sans-Serif" font-size="10.00" fill="grey"> &lt; boost::stacktrace</text>
<text text-anchor="middle" x="214.38" y="-180.79" font-family="Helvetica,sans-Serif" font-size="10.00" fill="grey">::stacktrace &gt;</text>
</g>
<!-- Node3 -->
<g id="Node000003" class="node">
<title>Node3</title>
<g id="a_Node000003"><a xlink:href="../../dd/de8/structmimicpp_1_1util_1_1stacktrace_1_1backend__traits_3_01cpptrace_1_1stacktrace_01_4.html" target="_top" xlink:title=" ">
<polygon fill="white" stroke="#666666" points="431.38,-161.75 301.38,-161.75 301.38,-120 431.38,-120 431.38,-161.75"/>
<text text-anchor="start" x="309.38" y="-148.25" font-family="Helvetica,sans-Serif" font-size="10.00">mimicpp::util::stacktrace</text>
<text text-anchor="start" x="309.38" y="-137" font-family="Helvetica,sans-Serif" font-size="10.00">::backend_traits&lt; cpptrace</text>
<text text-anchor="middle" x="366.38" y="-125.75" font-family="Helvetica,sans-Serif" font-size="10.00">::stacktrace &gt;</text>
</a>
</g>
</g>
<!-- Node1&#45;&gt;Node3 -->
<g id="edge2_Node000001_Node000003" class="edge">
<title>Node1&#45;&gt;Node3</title>
<g id="a_edge2_Node000001_Node000003"><a xlink:title=" ">
<path fill="none" stroke="orange" stroke-dasharray="5,2" d="M150.69,-119.03C197.93,-123.84 256.88,-129.84 301.05,-134.33"/>
<polygon fill="orange" stroke="orange" points="151.07,-115.55 140.77,-118.02 150.36,-122.52 151.07,-115.55"/>
</a>
</g>
<text text-anchor="middle" x="214.38" y="-132.92" font-family="Helvetica,sans-Serif" font-size="10.00" fill="grey"> &lt; cpptrace::stacktrace &gt;</text>
</g>
<!-- Node4 -->
<g id="Node000004" class="node">
<title>Node4</title>
<g id="a_Node000004"><a xlink:href="../../de/da5/structmimicpp_1_1util_1_1stacktrace_1_1backend__traits_3_01mimicpp_1_1util_1_1stacktrace_1_1_null_backend_01_4.html" target="_top" xlink:title=" ">
<polygon fill="white" stroke="#666666" points="442.25,-101.75 290.5,-101.75 290.5,-60 442.25,-60 442.25,-101.75"/>
<text text-anchor="start" x="298.5" y="-88.25" font-family="Helvetica,sans-Serif" font-size="10.00">mimicpp::util::stacktrace</text>
<text text-anchor="start" x="298.5" y="-77" font-family="Helvetica,sans-Serif" font-size="10.00">::backend_traits&lt; mimicpp</text>
<text text-anchor="middle" x="366.38" y="-65.75" font-family="Helvetica,sans-Serif" font-size="10.00">::util::stacktrace::NullBackend &gt;</text>
</a>
</g>
</g>
<!-- Node1&#45;&gt;Node4 -->
<g id="edge3_Node000001_Node000004" class="edge">
<title>Node1&#45;&gt;Node4</title>
<g id="a_edge3_Node000001_Node000004"><a xlink:title=" ">
<path fill="none" stroke="orange" stroke-dasharray="5,2" d="M150.43,-94.29C152.64,-93.96 154.84,-93.66 157,-93.38 201.02,-87.63 250.63,-84.52 290.39,-82.84"/>
<polygon fill="orange" stroke="orange" points="150.11,-90.79 140.78,-95.82 151.21,-97.71 150.11,-90.79"/>
</a>
</g>
<text text-anchor="start" x="157" y="-106.38" font-family="Helvetica,sans-Serif" font-size="10.00" fill="grey"> &lt; mimicpp::util::stacktrace</text>
<text text-anchor="middle" x="214.38" y="-95.12" font-family="Helvetica,sans-Serif" font-size="10.00" fill="grey">::NullBackend &gt;</text>
</g>
<!-- Node5 -->
<g id="Node000005" class="node">
<title>Node5</title>
<g id="a_Node000005"><a xlink:href="../../d9/de3/structmimicpp_1_1util_1_1stacktrace_1_1backend__traits_3_01std_1_1basic__stacktrace_3_01_allocator_01_4_01_4.html" target="_top" xlink:title=" ">
<polygon fill="white" stroke="#666666" points="443,-41.75 289.75,-41.75 289.75,0 443,0 443,-41.75"/>
<text text-anchor="start" x="297.75" y="-28.25" font-family="Helvetica,sans-Serif" font-size="10.00">mimicpp::util::stacktrace</text>
<text text-anchor="start" x="297.75" y="-17" font-family="Helvetica,sans-Serif" font-size="10.00">::backend_traits&lt; std::</text>
<text text-anchor="middle" x="366.38" y="-5.75" font-family="Helvetica,sans-Serif" font-size="10.00">basic_stacktrace&lt; Allocator &gt; &gt;</text>
</a>
</g>
</g>
<!-- Node1&#45;&gt;Node5 -->
<g id="edge4_Node000001_Node000005" class="edge">
<title>Node1&#45;&gt;Node5</title>
<g id="a_edge4_Node000001_Node000005"><a xlink:title=" ">
<path fill="none" stroke="orange" stroke-dasharray="5,2" d="M100.02,-88.7C116.09,-77.66 136.77,-65.07 157,-57.38 199.22,-41.31 248.97,-32.25 289.27,-27.18"/>
<polygon fill="orange" stroke="orange" points="98.04,-85.81 91.89,-94.43 102.08,-91.53 98.04,-85.81"/>
</a>
</g>
<text text-anchor="start" x="163" y="-70.38" font-family="Helvetica,sans-Serif" font-size="10.00" fill="grey"> &lt; std::basic_stacktrace</text>
<text text-anchor="middle" x="214.38" y="-59.12" font-family="Helvetica,sans-Serif" font-size="10.00" fill="grey">&lt; Allocator &gt; &gt;</text>
</g>
</g>
</svg>
