<?xml version="1.0" encoding="UTF-8" standalone="no"?>
<!DOCTYPE svg PUBLIC "-//W3C//DTD SVG 1.1//EN"
 "http://www.w3.org/Graphics/SVG/1.1/DTD/svg11.dtd">
<!-- Generated by graphviz version 12.2.1 (20241206.2353)
 -->
<!-- Title: mimic++/TypeTraits.hpp Pages: 1 -->
<svg width="1641pt" height="570pt"
 viewBox="0.00 0.00 1641.25 569.50" xmlns="http://www.w3.org/2000/svg" xmlns:xlink="http://www.w3.org/1999/xlink">
<g id="graph0" class="graph" transform="scale(1 1) rotate(0) translate(4 565.5)">
<title>mimic++/TypeTraits.hpp</title>
<!-- Node1 -->
<g id="Node000001" class="node">
<title>Node1</title>
<g id="a_Node000001"><a xlink:title=" ">
<polygon fill="#999999" stroke="#666666" points="1316.5,-561.5 1195.5,-561.5 1195.5,-542.25 1316.5,-542.25 1316.5,-561.5"/>
<text text-anchor="middle" x="1256" y="-548" font-family="Helvetica,sans-Serif" font-size="10.00">mimic++/TypeTraits.hpp</text>
</a>
</g>
</g>
<!-- Node2 -->
<g id="Node000002" class="node">
<title>Node2</title>
<g id="a_Node000002"><a xlink:href="../../dc/d44/_call_8hpp.html" target="_top" xlink:title=" ">
<polygon fill="white" stroke="#666666" points="874.88,-506.25 783.12,-506.25 783.12,-487 874.88,-487 874.88,-506.25"/>
<text text-anchor="middle" x="829" y="-492.75" font-family="Helvetica,sans-Serif" font-size="10.00">mimic++/Call.hpp</text>
</a>
</g>
</g>
<!-- Node1&#45;&gt;Node2 -->
<g id="edge1_Node000001_Node000002" class="edge">
<title>Node1&#45;&gt;Node2</title>
<g id="a_edge1_Node000001_Node000002"><a xlink:title=" ">
<path fill="none" stroke="#63b8ff" d="M1184.04,-541.9C1095.94,-530.91 949.33,-512.63 875.09,-503.37"/>
<polygon fill="#63b8ff" stroke="#63b8ff" points="1183.42,-545.35 1193.77,-543.11 1184.28,-538.4 1183.42,-545.35"/>
</a>
</g>
</g>
<!-- Node3 -->
<g id="Node000003" class="node">
<title>Node3</title>
<g id="a_Node000003"><a xlink:href="../../d5/d8a/_expectation_8hpp.html" target="_top" xlink:title=" ">
<polygon fill="white" stroke="#666666" points="1052.75,-268.38 927.25,-268.38 927.25,-249.12 1052.75,-249.12 1052.75,-268.38"/>
<text text-anchor="middle" x="990" y="-254.88" font-family="Helvetica,sans-Serif" font-size="10.00">mimic++/Expectation.hpp</text>
</a>
</g>
</g>
<!-- Node1&#45;&gt;Node3 -->
<g id="edge43_Node000001_Node000003" class="edge">
<title>Node1&#45;&gt;Node3</title>
<g id="a_edge43_Node000001_Node000003"><a xlink:title=" ">
<path fill="none" stroke="#63b8ff" d="M1286.71,-536.2C1298.36,-528.93 1310.41,-518.95 1317,-506.25 1357.18,-428.82 1377.28,-375.79 1320,-310 1281.84,-266.17 1118.29,-283.72 1061,-274 1051.95,-272.46 1042.29,-270.65 1033.1,-268.83"/>
<polygon fill="#63b8ff" stroke="#63b8ff" points="1284.98,-533.15 1278.03,-541.14 1288.45,-539.24 1284.98,-533.15"/>
</a>
</g>
</g>
<!-- Node5 -->
<g id="Node000005" class="node">
<title>Node5</title>
<g id="a_Node000005"><a xlink:href="../../d5/dc5/_mock_8hpp.html" target="_top" xlink:title=" ">
<polygon fill="white" stroke="#666666" points="1039.62,-135.38 940.38,-135.38 940.38,-116.12 1039.62,-116.12 1039.62,-135.38"/>
<text text-anchor="middle" x="990" y="-121.88" font-family="Helvetica,sans-Serif" font-size="10.00">mimic++/Mock.hpp</text>
</a>
</g>
</g>
<!-- Node1&#45;&gt;Node5 -->
<g id="edge48_Node000001_Node000005" class="edge">
<title>Node1&#45;&gt;Node5</title>
<g id="a_edge48_Node000001_Node000005"><a xlink:title=" ">
<path fill="none" stroke="#63b8ff" d="M1327.81,-543.15C1388.29,-532.18 1465,-505.78 1465,-442.38 1465,-442.38 1465,-442.38 1465,-324.25 1465,-232.15 1156.68,-160.26 1036.84,-135.79"/>
<polygon fill="#63b8ff" stroke="#63b8ff" points="1327.5,-539.65 1318.22,-544.77 1328.67,-546.55 1327.5,-539.65"/>
</a>
</g>
</g>
<!-- Node7 -->
<g id="Node000007" class="node">
<title>Node7</title>
<g id="a_Node000007"><a xlink:href="../../d0/db9/mimic_09_09_8hpp.html" target="_top" xlink:title=" ">
<polygon fill="white" stroke="#666666" points="632.75,-19.25 519.25,-19.25 519.25,0 632.75,0 632.75,-19.25"/>
<text text-anchor="middle" x="576" y="-5.75" font-family="Helvetica,sans-Serif" font-size="10.00">mimic++/mimic++.hpp</text>
</a>
</g>
</g>
<!-- Node1&#45;&gt;Node7 -->
<g id="edge59_Node000001_Node000007" class="edge">
<title>Node1&#45;&gt;Node7</title>
<g id="a_edge59_Node000001_Node000007"><a xlink:title=" ">
<path fill="none" stroke="#63b8ff" d="M1183.95,-548.45C917.06,-539.01 0,-502.22 0,-442.38 0,-442.38 0,-442.38 0,-124.75 0,-19.68 373.43,-9.82 518.93,-9.97"/>
<polygon fill="#63b8ff" stroke="#63b8ff" points="1183.79,-551.95 1193.91,-548.8 1184.04,-544.95 1183.79,-551.95"/>
</a>
</g>
</g>
<!-- Node21 -->
<g id="Node000021" class="node">
<title>Node21</title>
<g id="a_Node000021"><a xlink:href="../../d7/ded/_call_convention_8hpp.html" target="_top" xlink:title=" ">
<polygon fill="white" stroke="#666666" points="1633.25,-451 1492.75,-451 1492.75,-431.75 1633.25,-431.75 1633.25,-451"/>
<text text-anchor="middle" x="1563" y="-437.5" font-family="Helvetica,sans-Serif" font-size="10.00">mimic++/CallConvention.hpp</text>
</a>
</g>
</g>
<!-- Node1&#45;&gt;Node21 -->
<g id="edge41_Node000001_Node000021" class="edge">
<title>Node1&#45;&gt;Node21</title>
<g id="a_edge41_Node000001_Node000021"><a xlink:title=" ">
<path fill="none" stroke="#63b8ff" d="M1328.36,-544.76C1373.28,-538.96 1431.33,-527.76 1479,-506.25 1509.73,-492.39 1539.68,-465.45 1554.1,-451.4"/>
<polygon fill="#63b8ff" stroke="#63b8ff" points="1327.95,-541.28 1318.45,-545.97 1328.8,-548.23 1327.95,-541.28"/>
</a>
</g>
</g>
<!-- Node22 -->
<g id="Node000022" class="node">
<title>Node22</title>
<g id="a_Node000022"><a xlink:href="../../dd/d50/_matcher_8hpp.html" target="_top" xlink:title=" ">
<polygon fill="white" stroke="#666666" points="330.25,-334.88 219.75,-334.88 219.75,-315.62 330.25,-315.62 330.25,-334.88"/>
<text text-anchor="middle" x="275" y="-321.38" font-family="Helvetica,sans-Serif" font-size="10.00">mimic++/Matcher.hpp</text>
</a>
</g>
</g>
<!-- Node1&#45;&gt;Node22 -->
<g id="edge44_Node000001_Node000022" class="edge">
<title>Node1&#45;&gt;Node22</title>
<g id="a_edge44_Node000001_Node000022"><a xlink:title=" ">
<path fill="none" stroke="#63b8ff" d="M1183.53,-548.63C1042.17,-542.76 720.7,-522.07 461,-451 393.68,-432.58 366.95,-441.22 314,-395.75 294.47,-378.99 282.73,-349.89 277.77,-335.24"/>
<polygon fill="#63b8ff" stroke="#63b8ff" points="1183.38,-552.13 1193.51,-549.03 1183.66,-545.13 1183.38,-552.13"/>
</a>
</g>
</g>
<!-- Node23 -->
<g id="Node000023" class="node">
<title>Node23</title>
<g id="a_Node000023"><a xlink:href="../../da/dab/_printer_8hpp.html" target="_top" xlink:title=" ">
<polygon fill="white" stroke="#666666" points="1307.88,-506.25 1204.12,-506.25 1204.12,-487 1307.88,-487 1307.88,-506.25"/>
<text text-anchor="middle" x="1256" y="-492.75" font-family="Helvetica,sans-Serif" font-size="10.00">mimic++/Printer.hpp</text>
</a>
</g>
</g>
<!-- Node1&#45;&gt;Node23 -->
<g id="edge49_Node000001_Node000023" class="edge">
<title>Node1&#45;&gt;Node23</title>
<g id="a_edge49_Node000001_Node000023"><a xlink:title=" ">
<path fill="none" stroke="#63b8ff" d="M1256,-530.63C1256,-522.34 1256,-513.17 1256,-506.61"/>
<polygon fill="#63b8ff" stroke="#63b8ff" points="1252.5,-530.57 1256,-540.57 1259.5,-530.57 1252.5,-530.57"/>
</a>
</g>
</g>
<!-- Node2&#45;&gt;Node3 -->
<g id="edge2_Node000002_Node000003" class="edge">
<title>Node2&#45;&gt;Node3</title>
<g id="a_edge2_Node000002_Node000003"><a xlink:title=" ">
<path fill="none" stroke="#63b8ff" d="M886.66,-496.17C988.74,-493.63 1199.39,-471.8 1294,-340.5 1387.54,-210.69 1459.99,-344.83 1061,-274 1052.09,-272.42 1042.57,-270.6 1033.5,-268.8"/>
<polygon fill="#63b8ff" stroke="#63b8ff" points="886.8,-492.67 876.87,-496.36 886.93,-499.67 886.8,-492.67"/>
</a>
</g>
</g>
<!-- Node2&#45;&gt;Node7 -->
<g id="edge31_Node000002_Node000007" class="edge">
<title>Node2&#45;&gt;Node7</title>
<g id="a_edge31_Node000002_Node000007"><a xlink:title=" ">
<path fill="none" stroke="#63b8ff" d="M771.23,-491.91C628.85,-482.65 270.8,-458.75 246,-451 126.13,-413.56 38,-385.33 38,-259.75 38,-259.75 38,-259.75 38,-124.75 38,-27.24 380.47,-12.68 518.93,-10.78"/>
<polygon fill="#63b8ff" stroke="#63b8ff" points="771,-495.4 781.2,-492.55 771.45,-488.41 771,-495.4"/>
</a>
</g>
</g>
<!-- Node9 -->
<g id="Node000009" class="node">
<title>Node9</title>
<g id="a_Node000009"><a xlink:href="../../da/dd9/_reporter_8hpp.html" target="_top" xlink:title=" ">
<polygon fill="white" stroke="#666666" points="926,-395.75 814,-395.75 814,-376.5 926,-376.5 926,-395.75"/>
<text text-anchor="middle" x="870" y="-382.25" font-family="Helvetica,sans-Serif" font-size="10.00">mimic++/Reporter.hpp</text>
</a>
</g>
</g>
<!-- Node2&#45;&gt;Node9 -->
<g id="edge13_Node000002_Node000009" class="edge">
<title>Node2&#45;&gt;Node9</title>
<g id="a_edge13_Node000002_Node000009"><a xlink:title=" ">
<path fill="none" stroke="#63b8ff" d="M838.77,-476.36C842.52,-468.59 846.7,-459.47 850,-451 857.51,-431.73 864.25,-408.38 867.65,-395.93"/>
<polygon fill="#63b8ff" stroke="#63b8ff" points="835.69,-474.68 834.39,-485.2 841.97,-477.79 835.69,-474.68"/>
</a>
</g>
</g>
<!-- Node16 -->
<g id="Node000016" class="node">
<title>Node16</title>
<g id="a_Node000016"><a xlink:href="../../d0/d3b/_reports_8hpp.html" target="_top" xlink:title=" ">
<polygon fill="white" stroke="#666666" points="841.5,-451 732.5,-451 732.5,-431.75 841.5,-431.75 841.5,-451"/>
<text text-anchor="middle" x="787" y="-437.5" font-family="Helvetica,sans-Serif" font-size="10.00">mimic++/Reports.hpp</text>
</a>
</g>
</g>
<!-- Node2&#45;&gt;Node16 -->
<g id="edge27_Node000002_Node000016" class="edge">
<title>Node2&#45;&gt;Node16</title>
<g id="a_edge27_Node000002_Node000016"><a xlink:title=" ">
<path fill="none" stroke="#63b8ff" d="M815.08,-477.97C808.04,-469.06 799.81,-458.62 794.09,-451.36"/>
<polygon fill="#63b8ff" stroke="#63b8ff" points="812.19,-479.96 821.13,-485.64 817.68,-475.62 812.19,-479.96"/>
</a>
</g>
</g>
<!-- Node17 -->
<g id="Node000017" class="node">
<title>Node17</title>
<g id="a_Node000017"><a xlink:href="../../d2/dfd/_argument_list_8hpp.html" target="_top" xlink:title=" ">
<polygon fill="white" stroke="#666666" points="201.62,-340.5 66.38,-340.5 66.38,-310 201.62,-310 201.62,-340.5"/>
<text text-anchor="start" x="74.38" y="-327" font-family="Helvetica,sans-Serif" font-size="10.00">mimic++/policies/Argument</text>
<text text-anchor="middle" x="134" y="-315.75" font-family="Helvetica,sans-Serif" font-size="10.00">List.hpp</text>
</a>
</g>
</g>
<!-- Node2&#45;&gt;Node17 -->
<g id="edge32_Node000002_Node000017" class="edge">
<title>Node2&#45;&gt;Node17</title>
<g id="a_edge32_Node000002_Node000017"><a xlink:title=" ">
<path fill="none" stroke="#63b8ff" d="M771.8,-495.27C650.44,-493.82 371.16,-486.6 284,-451 223.48,-426.28 168.96,-367.93 145.79,-340.71"/>
<polygon fill="#63b8ff" stroke="#63b8ff" points="771.48,-498.77 781.52,-495.38 771.56,-491.77 771.48,-498.77"/>
</a>
</g>
</g>
<!-- Node4 -->
<g id="Node000004" class="node">
<title>Node4</title>
<g id="a_Node000004"><a xlink:href="../../d2/d4f/_expectation_builder_8hpp.html" target="_top" xlink:title=" ">
<polygon fill="white" stroke="#666666" points="759.75,-201.88 604.25,-201.88 604.25,-182.62 759.75,-182.62 759.75,-201.88"/>
<text text-anchor="middle" x="682" y="-188.38" font-family="Helvetica,sans-Serif" font-size="10.00">mimic++/ExpectationBuilder.hpp</text>
</a>
</g>
</g>
<!-- Node3&#45;&gt;Node4 -->
<g id="edge3_Node000003_Node000004" class="edge">
<title>Node3&#45;&gt;Node4</title>
<g id="a_edge3_Node000003_Node000004"><a xlink:title=" ">
<path fill="none" stroke="#63b8ff" d="M935.38,-246.31C875.4,-233.75 780.29,-213.83 725.25,-202.31"/>
<polygon fill="#63b8ff" stroke="#63b8ff" points="934.54,-249.71 945.04,-248.34 935.97,-242.86 934.54,-249.71"/>
</a>
</g>
</g>
<!-- Node3&#45;&gt;Node5 -->
<g id="edge11_Node000003_Node000005" class="edge">
<title>Node3&#45;&gt;Node5</title>
<g id="a_edge11_Node000003_Node000005"><a xlink:title=" ">
<path fill="none" stroke="#63b8ff" d="M990,-237.62C990,-208.74 990,-156.73 990,-135.82"/>
<polygon fill="#63b8ff" stroke="#63b8ff" points="986.5,-237.23 990,-247.23 993.5,-237.23 986.5,-237.23"/>
</a>
</g>
</g>
<!-- Node3&#45;&gt;Node7 -->
<g id="edge12_Node000003_Node000007" class="edge">
<title>Node3&#45;&gt;Node7</title>
<g id="a_edge12_Node000003_Node000007"><a xlink:title=" ">
<path fill="none" stroke="#63b8ff" d="M964.89,-242.76C887.25,-196.41 652.51,-56.3 590.93,-19.54"/>
<polygon fill="#63b8ff" stroke="#63b8ff" points="963.09,-245.77 973.47,-247.89 966.68,-239.75 963.09,-245.77"/>
</a>
</g>
</g>
<!-- Node4&#45;&gt;Node5 -->
<g id="edge4_Node000004_Node000005" class="edge">
<title>Node4&#45;&gt;Node5</title>
<g id="a_edge4_Node000004_Node000005"><a xlink:title=" ">
<path fill="none" stroke="#63b8ff" d="M736.62,-179.81C796.6,-167.25 891.71,-147.33 946.75,-135.81"/>
<polygon fill="#63b8ff" stroke="#63b8ff" points="736.03,-176.36 726.96,-181.84 737.46,-183.21 736.03,-176.36"/>
</a>
</g>
</g>
<!-- Node4&#45;&gt;Node7 -->
<g id="edge10_Node000004_Node000007" class="edge">
<title>Node4&#45;&gt;Node7</title>
<g id="a_edge10_Node000004_Node000007"><a xlink:title=" ">
<path fill="none" stroke="#63b8ff" d="M671.12,-172.72C648.66,-134.43 597.85,-47.86 581.31,-19.67"/>
<polygon fill="#63b8ff" stroke="#63b8ff" points="668.04,-174.38 676.12,-181.23 674.08,-170.84 668.04,-174.38"/>
</a>
</g>
</g>
<!-- Node6 -->
<g id="Node000006" class="node">
<title>Node6</title>
<g id="a_Node000006"><a xlink:href="../../d9/dc3/_interface_mock_8hpp.html" target="_top" xlink:title=" ">
<polygon fill="white" stroke="#666666" points="947.75,-74.5 810.25,-74.5 810.25,-55.25 947.75,-55.25 947.75,-74.5"/>
<text text-anchor="middle" x="879" y="-61" font-family="Helvetica,sans-Serif" font-size="10.00">mimic++/InterfaceMock.hpp</text>
</a>
</g>
</g>
<!-- Node5&#45;&gt;Node6 -->
<g id="edge5_Node000005_Node000006" class="edge">
<title>Node5&#45;&gt;Node6</title>
<g id="a_edge5_Node000005_Node000006"><a xlink:title=" ">
<path fill="none" stroke="#63b8ff" d="M962.99,-110.42C942.11,-99.35 913.85,-84.36 896.02,-74.9"/>
<polygon fill="#63b8ff" stroke="#63b8ff" points="961.33,-113.51 971.8,-115.1 964.61,-107.32 961.33,-113.51"/>
</a>
</g>
</g>
<!-- Node5&#45;&gt;Node7 -->
<g id="edge9_Node000005_Node000007" class="edge">
<title>Node5&#45;&gt;Node7</title>
<g id="a_edge9_Node000005_Node000007"><a xlink:title=" ">
<path fill="none" stroke="#63b8ff" d="M937.23,-113.13C898.93,-104.12 846.15,-90.49 801,-74.5 781.26,-67.51 777.8,-62.05 758,-55.25 713.08,-39.83 660.2,-27.48 623.05,-19.72"/>
<polygon fill="#63b8ff" stroke="#63b8ff" points="936.11,-116.46 946.65,-115.32 937.7,-109.65 936.11,-116.46"/>
</a>
</g>
</g>
<!-- Node8 -->
<g id="Node000008" class="node">
<title>Node8</title>
<g id="a_Node000008"><a xlink:href="../../d5/d92/_object_watcher_8hpp.html" target="_top" xlink:title=" ">
<polygon fill="white" stroke="#666666" points="1105.88,-74.5 966.12,-74.5 966.12,-55.25 1105.88,-55.25 1105.88,-74.5"/>
<text text-anchor="middle" x="1036" y="-61" font-family="Helvetica,sans-Serif" font-size="10.00">mimic++/ObjectWatcher.hpp</text>
</a>
</g>
</g>
<!-- Node5&#45;&gt;Node8 -->
<g id="edge7_Node000005_Node000008" class="edge">
<title>Node5&#45;&gt;Node8</title>
<g id="a_edge7_Node000005_Node000008"><a xlink:title=" ">
<path fill="none" stroke="#63b8ff" d="M1003.9,-106.96C1012.17,-96.38 1022.31,-83.4 1028.95,-74.9"/>
<polygon fill="#63b8ff" stroke="#63b8ff" points="1001.32,-104.58 997.92,-114.62 1006.83,-108.89 1001.32,-104.58"/>
</a>
</g>
</g>
<!-- Node6&#45;&gt;Node7 -->
<g id="edge6_Node000006_Node000007" class="edge">
<title>Node6&#45;&gt;Node7</title>
<g id="a_edge6_Node000006_Node000007"><a xlink:title=" ">
<path fill="none" stroke="#63b8ff" d="M816.1,-52.82C760.34,-43.02 679.9,-28.88 627.78,-19.73"/>
<polygon fill="#63b8ff" stroke="#63b8ff" points="815.31,-56.24 825.77,-54.52 816.52,-49.34 815.31,-56.24"/>
</a>
</g>
</g>
<!-- Node8&#45;&gt;Node7 -->
<g id="edge8_Node000008_Node000007" class="edge">
<title>Node8&#45;&gt;Node7</title>
<g id="a_edge8_Node000008_Node000007"><a xlink:title=" ">
<path fill="none" stroke="#63b8ff" d="M954.37,-54.43C861.92,-43.72 713.67,-26.56 632.92,-17.21"/>
<polygon fill="#63b8ff" stroke="#63b8ff" points="953.8,-57.88 964.13,-55.56 954.6,-50.93 953.8,-57.88"/>
</a>
</g>
</g>
<!-- Node9&#45;&gt;Node3 -->
<g id="edge14_Node000009_Node000003" class="edge">
<title>Node9&#45;&gt;Node3</title>
<g id="a_edge14_Node000009_Node000003"><a xlink:title=" ">
<path fill="none" stroke="#63b8ff" d="M937.52,-382.54C1003.46,-378.43 1097.12,-367.82 1120,-340.5 1149.34,-305.46 1080.57,-281.05 1032.28,-268.81"/>
<polygon fill="#63b8ff" stroke="#63b8ff" points="937.67,-379.03 927.89,-383.1 938.08,-386.02 937.67,-379.03"/>
</a>
</g>
</g>
<!-- Node9&#45;&gt;Node7 -->
<g id="edge26_Node000009_Node000007" class="edge">
<title>Node9&#45;&gt;Node7</title>
<g id="a_edge26_Node000009_Node000007"><a xlink:title=" ">
<path fill="none" stroke="#63b8ff" d="M802.71,-382.76C690.69,-378.12 475.91,-365.99 453,-340.5 443.94,-330.42 448.8,-322.89 453,-310 462.93,-279.48 538,-225.34 538,-193.25 538,-193.25 538,-193.25 538,-124.75 538,-83.82 560.27,-38.67 570.72,-19.75"/>
<polygon fill="#63b8ff" stroke="#63b8ff" points="802.23,-386.24 812.37,-383.15 802.52,-379.25 802.23,-386.24"/>
</a>
</g>
</g>
<!-- Node10 -->
<g id="Node000010" class="node">
<title>Node10</title>
<g id="a_Node000010"><a xlink:href="../../d8/de4/_sequence_8hpp.html" target="_top" xlink:title=" ">
<polygon fill="white" stroke="#666666" points="1285.38,-334.88 1166.62,-334.88 1166.62,-315.62 1285.38,-315.62 1285.38,-334.88"/>
<text text-anchor="middle" x="1226" y="-321.38" font-family="Helvetica,sans-Serif" font-size="10.00">mimic++/Sequence.hpp</text>
</a>
</g>
</g>
<!-- Node9&#45;&gt;Node10 -->
<g id="edge15_Node000009_Node000010" class="edge">
<title>Node9&#45;&gt;Node10</title>
<g id="a_edge15_Node000009_Node000010"><a xlink:title=" ">
<path fill="none" stroke="#63b8ff" d="M937.59,-375.17C994.99,-366.55 1079.53,-353.46 1153,-340.5 1162.03,-338.91 1171.66,-337.1 1180.88,-335.32"/>
<polygon fill="#63b8ff" stroke="#63b8ff" points="937.35,-371.67 927.98,-376.61 938.38,-378.59 937.35,-371.67"/>
</a>
</g>
</g>
<!-- Node12 -->
<g id="Node000012" class="node">
<title>Node12</title>
<g id="a_Node000012"><a xlink:href="../../d9/d42/_boost_test_8hpp.html" target="_top" xlink:title=" ">
<polygon fill="white" stroke="#666666" points="778.38,-334.88 617.62,-334.88 617.62,-315.62 778.38,-315.62 778.38,-334.88"/>
<text text-anchor="middle" x="698" y="-321.38" font-family="Helvetica,sans-Serif" font-size="10.00">mimic++/adapters/BoostTest.hpp</text>
</a>
</g>
</g>
<!-- Node9&#45;&gt;Node12 -->
<g id="edge22_Node000009_Node000012" class="edge">
<title>Node9&#45;&gt;Node12</title>
<g id="a_edge22_Node000009_Node000012"><a xlink:title=" ">
<path fill="none" stroke="#63b8ff" d="M833.02,-372.47C800.37,-361.29 753.58,-345.27 724.53,-335.33"/>
<polygon fill="#63b8ff" stroke="#63b8ff" points="831.48,-375.64 842.07,-375.56 833.74,-369.01 831.48,-375.64"/>
</a>
</g>
</g>
<!-- Node13 -->
<g id="Node000013" class="node">
<title>Node13</title>
<g id="a_Node000013"><a xlink:href="../../d3/d04/_catch2_8hpp.html" target="_top" xlink:title=" ">
<polygon fill="white" stroke="#666666" points="943.25,-334.88 796.75,-334.88 796.75,-315.62 943.25,-315.62 943.25,-334.88"/>
<text text-anchor="middle" x="870" y="-321.38" font-family="Helvetica,sans-Serif" font-size="10.00">mimic++/adapters/Catch2.hpp</text>
</a>
</g>
</g>
<!-- Node9&#45;&gt;Node13 -->
<g id="edge23_Node000009_Node000013" class="edge">
<title>Node9&#45;&gt;Node13</title>
<g id="a_edge23_Node000009_Node000013"><a xlink:title=" ">
<path fill="none" stroke="#63b8ff" d="M870,-364.7C870,-354.67 870,-343.08 870,-335.28"/>
<polygon fill="#63b8ff" stroke="#63b8ff" points="866.5,-364.67 870,-374.67 873.5,-364.67 866.5,-364.67"/>
</a>
</g>
</g>
<!-- Node14 -->
<g id="Node000014" class="node">
<title>Node14</title>
<g id="a_Node000014"><a xlink:href="../../dc/d42/_doctest_8hpp.html" target="_top" xlink:title=" ">
<polygon fill="white" stroke="#666666" points="1110.75,-334.88 961.25,-334.88 961.25,-315.62 1110.75,-315.62 1110.75,-334.88"/>
<text text-anchor="middle" x="1036" y="-321.38" font-family="Helvetica,sans-Serif" font-size="10.00">mimic++/adapters/Doctest.hpp</text>
</a>
</g>
</g>
<!-- Node9&#45;&gt;Node14 -->
<g id="edge24_Node000009_Node000014" class="edge">
<title>Node9&#45;&gt;Node14</title>
<g id="a_edge24_Node000009_Node000014"><a xlink:title=" ">
<path fill="none" stroke="#63b8ff" d="M906.1,-372.32C937.59,-361.15 982.48,-345.23 1010.4,-335.33"/>
<polygon fill="#63b8ff" stroke="#63b8ff" points="905.26,-368.91 897,-375.55 907.59,-375.5 905.26,-368.91"/>
</a>
</g>
</g>
<!-- Node15 -->
<g id="Node000015" class="node">
<title>Node15</title>
<g id="a_Node000015"><a xlink:href="../../d5/db1/gtest_8hpp.html" target="_top" xlink:title=" ">
<polygon fill="white" stroke="#666666" points="599.75,-334.88 462.25,-334.88 462.25,-315.62 599.75,-315.62 599.75,-334.88"/>
<text text-anchor="middle" x="531" y="-321.38" font-family="Helvetica,sans-Serif" font-size="10.00">mimic++/adapters/gtest.hpp</text>
</a>
</g>
</g>
<!-- Node9&#45;&gt;Node15 -->
<g id="edge25_Node000009_Node000015" class="edge">
<title>Node9&#45;&gt;Node15</title>
<g id="a_edge25_Node000009_Node000015"><a xlink:title=" ">
<path fill="none" stroke="#63b8ff" d="M804.5,-374.14C751.69,-365.23 675.53,-352.26 609,-340.5 599.65,-338.85 589.67,-337.05 580.08,-335.3"/>
<polygon fill="#63b8ff" stroke="#63b8ff" points="803.8,-377.57 814.24,-375.78 804.96,-370.67 803.8,-377.57"/>
</a>
</g>
</g>
<!-- Node10&#45;&gt;Node3 -->
<g id="edge16_Node000010_Node000003" class="edge">
<title>Node10&#45;&gt;Node3</title>
<g id="a_edge16_Node000010_Node000003"><a xlink:title=" ">
<path fill="none" stroke="#63b8ff" d="M1181.84,-312.18C1135.77,-299.59 1064.61,-280.14 1023.14,-268.81"/>
<polygon fill="#63b8ff" stroke="#63b8ff" points="1180.66,-315.49 1191.23,-314.75 1182.5,-308.73 1180.66,-315.49"/>
</a>
</g>
</g>
<!-- Node10&#45;&gt;Node4 -->
<g id="edge17_Node000010_Node000004" class="edge">
<title>Node10&#45;&gt;Node4</title>
<g id="a_edge17_Node000010_Node000004"><a xlink:title=" ">
<path fill="none" stroke="#63b8ff" d="M1155.18,-314.11C1078.62,-302.89 961.7,-284.96 918,-274 837.77,-253.88 745.89,-218.83 704.4,-202.33"/>
<polygon fill="#63b8ff" stroke="#63b8ff" points="1154.27,-317.51 1164.67,-315.49 1155.28,-310.58 1154.27,-317.51"/>
</a>
</g>
</g>
<!-- Node10&#45;&gt;Node7 -->
<g id="edge18_Node000010_Node000007" class="edge">
<title>Node10&#45;&gt;Node7</title>
<g id="a_edge18_Node000010_Node000007"><a xlink:title=" ">
<path fill="none" stroke="#63b8ff" d="M1226,-304.19C1226,-278.48 1226,-232.55 1226,-193.25 1226,-193.25 1226,-193.25 1226,-124.75 1226,-74.21 1183.14,-73.46 1136,-55.25 1045.36,-20.25 756.58,-12.7 632.99,-11.07"/>
<polygon fill="#63b8ff" stroke="#63b8ff" points="1222.5,-303.84 1226,-313.84 1229.5,-303.84 1222.5,-303.84"/>
</a>
</g>
</g>
<!-- Node11 -->
<g id="Node000011" class="node">
<title>Node11</title>
<g id="a_Node000011"><a xlink:href="../../db/d70/_control_policies_8hpp.html" target="_top" xlink:title=" ">
<polygon fill="white" stroke="#666666" points="717,-274 593,-274 593,-243.5 717,-243.5 717,-274"/>
<text text-anchor="start" x="601" y="-260.5" font-family="Helvetica,sans-Serif" font-size="10.00">mimic++/policies/Control</text>
<text text-anchor="middle" x="655" y="-249.25" font-family="Helvetica,sans-Serif" font-size="10.00">Policies.hpp</text>
</a>
</g>
</g>
<!-- Node10&#45;&gt;Node11 -->
<g id="edge19_Node000010_Node000011" class="edge">
<title>Node10&#45;&gt;Node11</title>
<g id="a_edge19_Node000010_Node000011"><a xlink:title=" ">
<path fill="none" stroke="#63b8ff" d="M1155.19,-314.47C1143.45,-312.92 1131.38,-311.38 1120,-310 976.11,-292.56 806.81,-275.01 717.49,-265.98"/>
<polygon fill="#63b8ff" stroke="#63b8ff" points="1154.46,-317.9 1164.83,-315.75 1155.38,-310.97 1154.46,-317.9"/>
</a>
</g>
</g>
<!-- Node11&#45;&gt;Node4 -->
<g id="edge20_Node000011_Node000004" class="edge">
<title>Node11&#45;&gt;Node4</title>
<g id="a_edge20_Node000011_Node000004"><a xlink:title=" ">
<path fill="none" stroke="#63b8ff" d="M665.56,-232.52C670.07,-221.76 675.03,-209.91 678.31,-202.07"/>
<polygon fill="#63b8ff" stroke="#63b8ff" points="662.34,-231.14 661.71,-241.72 668.8,-233.84 662.34,-231.14"/>
</a>
</g>
</g>
<!-- Node11&#45;&gt;Node7 -->
<g id="edge21_Node000011_Node000007" class="edge">
<title>Node11&#45;&gt;Node7</title>
<g id="a_edge21_Node000011_Node000007"><a xlink:title=" ">
<path fill="none" stroke="#63b8ff" d="M620.53,-236.47C610.66,-228.61 600.96,-218.82 595,-207.5 560.75,-142.49 570.48,-48.59 574.6,-19.53"/>
<polygon fill="#63b8ff" stroke="#63b8ff" points="618.21,-239.1 628.33,-242.23 622.37,-233.47 618.21,-239.1"/>
</a>
</g>
</g>
<!-- Node16&#45;&gt;Node7 -->
<g id="edge29_Node000016_Node000007" class="edge">
<title>Node16&#45;&gt;Node7</title>
<g id="a_edge29_Node000016_Node000007"><a xlink:title=" ">
<path fill="none" stroke="#63b8ff" d="M720.66,-440.06C661.92,-437.45 575.19,-427.77 507,-395.75 473.29,-379.92 459.37,-374.42 444,-340.5 438.41,-328.15 442.96,-323.52 444,-310 448.01,-257.65 462,-245.75 462,-193.25 462,-193.25 462,-193.25 462,-124.75 462,-72.52 522.5,-35.82 555.36,-19.74"/>
<polygon fill="#63b8ff" stroke="#63b8ff" points="720.38,-443.56 730.5,-440.44 720.64,-436.56 720.38,-443.56"/>
</a>
</g>
</g>
<!-- Node16&#45;&gt;Node9 -->
<g id="edge28_Node000016_Node000009" class="edge">
<title>Node16&#45;&gt;Node9</title>
<g id="a_edge28_Node000016_Node000009"><a xlink:title=" ">
<path fill="none" stroke="#63b8ff" d="M810.49,-425.3C825.11,-415.92 843.43,-404.17 855.85,-396.2"/>
<polygon fill="#63b8ff" stroke="#63b8ff" points="808.88,-422.18 802.35,-430.52 812.66,-428.07 808.88,-422.18"/>
</a>
</g>
</g>
<!-- Node16&#45;&gt;Node11 -->
<g id="edge30_Node000016_Node000011" class="edge">
<title>Node16&#45;&gt;Node11</title>
<g id="a_edge30_Node000016_Node000011"><a xlink:title=" ">
<path fill="none" stroke="#63b8ff" d="M721.05,-430.11C633.2,-414.92 485.08,-383.57 453,-340.5 413.97,-288.1 519.94,-269.64 592.76,-263.19"/>
<polygon fill="#63b8ff" stroke="#63b8ff" points="720.3,-433.53 730.75,-431.75 721.48,-426.63 720.3,-433.53"/>
</a>
</g>
</g>
<!-- Node17&#45;&gt;Node7 -->
<g id="edge33_Node000017_Node000007" class="edge">
<title>Node17&#45;&gt;Node7</title>
<g id="a_edge33_Node000017_Node000007"><a xlink:title=" ">
<path fill="none" stroke="#63b8ff" d="M157.16,-301.89C181.04,-278.65 219.17,-241.07 251,-207.5 316.14,-138.79 316.38,-99.65 400,-55.25 437.03,-35.59 483.09,-24.31 518.8,-18.01"/>
<polygon fill="#63b8ff" stroke="#63b8ff" points="154.86,-299.23 150.13,-308.71 159.74,-304.26 154.86,-299.23"/>
</a>
</g>
</g>
<!-- Node18 -->
<g id="Node000018" class="node">
<title>Node18</title>
<g id="a_Node000018"><a xlink:href="../../d1/d42/_arg_requirement_policies_8hpp.html" target="_top" xlink:title=" ">
<polygon fill="white" stroke="#666666" points="433.5,-274 270.5,-274 270.5,-243.5 433.5,-243.5 433.5,-274"/>
<text text-anchor="start" x="278.5" y="-260.5" font-family="Helvetica,sans-Serif" font-size="10.00">mimic++/policies/ArgRequirement</text>
<text text-anchor="middle" x="352" y="-249.25" font-family="Helvetica,sans-Serif" font-size="10.00">Policies.hpp</text>
</a>
</g>
</g>
<!-- Node17&#45;&gt;Node18 -->
<g id="edge34_Node000017_Node000018" class="edge">
<title>Node17&#45;&gt;Node18</title>
<g id="a_edge34_Node000017_Node000018"><a xlink:title=" ">
<path fill="none" stroke="#63b8ff" d="M194.48,-306.35C228.5,-296.29 270.43,-283.89 302.47,-274.4"/>
<polygon fill="#63b8ff" stroke="#63b8ff" points="193.79,-302.91 185.19,-309.1 195.77,-309.62 193.79,-302.91"/>
</a>
</g>
</g>
<!-- Node19 -->
<g id="Node000019" class="node">
<title>Node19</title>
<g id="a_Node000019"><a xlink:href="../../d3/da3/_finalizer_policies_8hpp.html" target="_top" xlink:title=" ">
<polygon fill="white" stroke="#666666" points="199.62,-141 70.38,-141 70.38,-110.5 199.62,-110.5 199.62,-141"/>
<text text-anchor="start" x="78.38" y="-127.5" font-family="Helvetica,sans-Serif" font-size="10.00">mimic++/policies/Finalizer</text>
<text text-anchor="middle" x="135" y="-116.25" font-family="Helvetica,sans-Serif" font-size="10.00">Policies.hpp</text>
</a>
</g>
</g>
<!-- Node17&#45;&gt;Node19 -->
<g id="edge37_Node000017_Node000019" class="edge">
<title>Node17&#45;&gt;Node19</title>
<g id="a_edge37_Node000017_Node000019"><a xlink:title=" ">
<path fill="none" stroke="#63b8ff" d="M118.76,-299.99C102.26,-270.52 80.16,-219.47 95,-177 99.78,-163.32 110.02,-150.57 118.94,-141.34"/>
<polygon fill="#63b8ff" stroke="#63b8ff" points="115.68,-301.64 123.75,-308.51 121.72,-298.11 115.68,-301.64"/>
</a>
</g>
</g>
<!-- Node20 -->
<g id="Node000020" class="node">
<title>Node20</title>
<g id="a_Node000020"><a xlink:href="../../dc/d18/_side_effect_policies_8hpp.html" target="_top" xlink:title=" ">
<polygon fill="white" stroke="#666666" points="241.75,-207.5 104.25,-207.5 104.25,-177 241.75,-177 241.75,-207.5"/>
<text text-anchor="start" x="112.25" y="-194" font-family="Helvetica,sans-Serif" font-size="10.00">mimic++/policies/SideEffect</text>
<text text-anchor="middle" x="173" y="-182.75" font-family="Helvetica,sans-Serif" font-size="10.00">Policies.hpp</text>
</a>
</g>
</g>
<!-- Node17&#45;&gt;Node20 -->
<g id="edge39_Node000017_Node000020" class="edge">
<title>Node17&#45;&gt;Node20</title>
<g id="a_edge39_Node000017_Node000020"><a xlink:title=" ">
<path fill="none" stroke="#63b8ff" d="M141.58,-298.79C149.64,-271.71 162.12,-229.81 168.66,-207.83"/>
<polygon fill="#63b8ff" stroke="#63b8ff" points="138.25,-297.7 138.75,-308.28 144.96,-299.69 138.25,-297.7"/>
</a>
</g>
</g>
<!-- Node18&#45;&gt;Node4 -->
<g id="edge35_Node000018_Node000004" class="edge">
<title>Node18&#45;&gt;Node4</title>
<g id="a_edge35_Node000018_Node000004"><a xlink:title=" ">
<path fill="none" stroke="#63b8ff" d="M438.43,-240.86C501.49,-228.53 584.53,-212.3 635.54,-202.33"/>
<polygon fill="#63b8ff" stroke="#63b8ff" points="437.92,-237.39 428.78,-242.74 439.27,-244.26 437.92,-237.39"/>
</a>
</g>
</g>
<!-- Node18&#45;&gt;Node7 -->
<g id="edge36_Node000018_Node000007" class="edge">
<title>Node18&#45;&gt;Node7</title>
<g id="a_edge36_Node000018_Node000007"><a xlink:title=" ">
<path fill="none" stroke="#63b8ff" d="M357.37,-232.13C367.6,-189.49 393.88,-103.86 448,-55.25 468.31,-37.01 496.5,-26.14 521.25,-19.7"/>
<polygon fill="#63b8ff" stroke="#63b8ff" points="353.99,-231.18 355.18,-241.71 360.82,-232.74 353.99,-231.18"/>
</a>
</g>
</g>
<!-- Node19&#45;&gt;Node7 -->
<g id="edge38_Node000019_Node000007" class="edge">
<title>Node19&#45;&gt;Node7</title>
<g id="a_edge38_Node000019_Node000007"><a xlink:title=" ">
<path fill="none" stroke="#63b8ff" d="M154.64,-101.92C169.72,-86.04 191.98,-65.87 216,-55.25 268.92,-31.86 431.34,-19.05 518.81,-13.69"/>
<polygon fill="#63b8ff" stroke="#63b8ff" points="152.24,-99.37 148.06,-109.1 157.4,-104.1 152.24,-99.37"/>
</a>
</g>
</g>
<!-- Node20&#45;&gt;Node7 -->
<g id="edge40_Node000020_Node000007" class="edge">
<title>Node20&#45;&gt;Node7</title>
<g id="a_edge40_Node000020_Node000007"><a xlink:title=" ">
<path fill="none" stroke="#63b8ff" d="M190.86,-167.56C196.85,-159.3 203.41,-149.88 209,-141 232.14,-104.21 220.23,-79.93 256,-55.25 297.49,-26.62 438.48,-16.19 518.79,-12.52"/>
<polygon fill="#63b8ff" stroke="#63b8ff" points="188.2,-165.27 185.09,-175.4 193.84,-169.42 188.2,-165.27"/>
</a>
</g>
</g>
<!-- Node21&#45;&gt;Node7 -->
<g id="edge42_Node000021_Node000007" class="edge">
<title>Node21&#45;&gt;Node7</title>
<g id="a_edge42_Node000021_Node000007"><a xlink:title=" ">
<path fill="none" stroke="#63b8ff" d="M1554.64,-420.99C1545.76,-398.6 1533,-360.46 1533,-326.25 1533,-326.25 1533,-326.25 1533,-124.75 1533,-73.51 1489.15,-72.79 1441,-55.25 1365.54,-27.77 813.68,-15.08 633.05,-11.63"/>
<polygon fill="#63b8ff" stroke="#63b8ff" points="1551.32,-422.11 1558.38,-430.02 1557.79,-419.44 1551.32,-422.11"/>
</a>
</g>
</g>
<!-- Node22&#45;&gt;Node4 -->
<g id="edge45_Node000022_Node000004" class="edge">
<title>Node22&#45;&gt;Node4</title>
<g id="a_edge45_Node000022_Node000004"><a xlink:title=" ">
<path fill="none" stroke="#63b8ff" d="M317.05,-312C350.89,-302.05 399.62,-287.5 442,-274 520.12,-249.11 611.79,-217.63 655.81,-202.37"/>
<polygon fill="#63b8ff" stroke="#63b8ff" points="316.24,-308.6 307.63,-314.77 318.21,-315.31 316.24,-308.6"/>
</a>
</g>
</g>
<!-- Node22&#45;&gt;Node7 -->
<g id="edge46_Node000022_Node000007" class="edge">
<title>Node22&#45;&gt;Node7</title>
<g id="a_edge46_Node000022_Node000007"><a xlink:title=" ">
<path fill="none" stroke="#63b8ff" d="M266.1,-304.89C259.71,-288.19 253.45,-263.66 261,-243.5 270.73,-217.52 401.66,-70.24 425,-55.25 453.29,-37.08 489.26,-26.07 518.99,-19.54"/>
<polygon fill="#63b8ff" stroke="#63b8ff" points="262.87,-306.24 269.99,-314.09 269.32,-303.52 262.87,-306.24"/>
</a>
</g>
</g>
<!-- Node22&#45;&gt;Node18 -->
<g id="edge47_Node000022_Node000018" class="edge">
<title>Node22&#45;&gt;Node18</title>
<g id="a_edge47_Node000022_Node000018"><a xlink:title=" ">
<path fill="none" stroke="#63b8ff" d="M294.35,-308.04C306.71,-297.69 322.61,-284.37 334.58,-274.34"/>
<polygon fill="#63b8ff" stroke="#63b8ff" points="292.29,-305.21 286.87,-314.31 296.78,-310.57 292.29,-305.21"/>
</a>
</g>
</g>
<!-- Node23&#45;&gt;Node7 -->
<g id="edge54_Node000023_Node000007" class="edge">
<title>Node23&#45;&gt;Node7</title>
<g id="a_edge54_Node000023_Node000007"><a xlink:title=" ">
<path fill="none" stroke="#63b8ff" d="M1281.66,-480.36C1293.36,-472.56 1306.84,-462.34 1317,-451 1382.43,-377.97 1427,-357.81 1427,-259.75 1427,-259.75 1427,-259.75 1427,-124.75 1427,-44.44 823.96,-18.47 633.16,-12.26"/>
<polygon fill="#63b8ff" stroke="#63b8ff" points="1279.78,-477.4 1273.23,-485.73 1283.55,-483.31 1279.78,-477.4"/>
</a>
</g>
</g>
<!-- Node23&#45;&gt;Node9 -->
<g id="edge51_Node000023_Node000009" class="edge">
<title>Node23&#45;&gt;Node9</title>
<g id="a_edge51_Node000023_Node000009"><a xlink:title=" ">
<path fill="none" stroke="#63b8ff" d="M1212.88,-483.5C1134.84,-461.57 971.84,-415.75 902.43,-396.24"/>
<polygon fill="#63b8ff" stroke="#63b8ff" points="1211.72,-486.81 1222.3,-486.15 1213.62,-480.08 1211.72,-486.81"/>
</a>
</g>
</g>
<!-- Node23&#45;&gt;Node10 -->
<g id="edge53_Node000023_Node000010" class="edge">
<title>Node23&#45;&gt;Node10</title>
<g id="a_edge53_Node000023_Node000010"><a xlink:title=" ">
<path fill="none" stroke="#63b8ff" d="M1252.38,-475.2C1245.81,-438.07 1232.15,-360.95 1227.55,-334.99"/>
<polygon fill="#63b8ff" stroke="#63b8ff" points="1248.93,-475.79 1254.12,-485.03 1255.83,-474.57 1248.93,-475.79"/>
</a>
</g>
</g>
<!-- Node23&#45;&gt;Node16 -->
<g id="edge52_Node000023_Node000016" class="edge">
<title>Node23&#45;&gt;Node16</title>
<g id="a_edge52_Node000023_Node000016"><a xlink:title=" ">
<path fill="none" stroke="#63b8ff" d="M1192.86,-488.46C1100.29,-477.95 929.28,-458.53 841.75,-448.59"/>
<polygon fill="#63b8ff" stroke="#63b8ff" points="1192.18,-491.9 1202.51,-489.55 1192.97,-484.95 1192.18,-491.9"/>
</a>
</g>
</g>
<!-- Node23&#45;&gt;Node22 -->
<g id="edge50_Node000023_Node000022" class="edge">
<title>Node23&#45;&gt;Node22</title>
<g id="a_edge50_Node000023_Node000022"><a xlink:title=" ">
<path fill="none" stroke="#63b8ff" d="M1192.43,-494.39C1010.83,-489.99 493.27,-470.99 344,-395.75 315.46,-381.36 291.62,-350.62 280.98,-335.31"/>
<polygon fill="#63b8ff" stroke="#63b8ff" points="1192.3,-497.89 1202.38,-494.63 1192.47,-490.89 1192.3,-497.89"/>
</a>
</g>
</g>
<!-- Node24 -->
<g id="Node000024" class="node">
<title>Node24</title>
<g id="a_Node000024"><a xlink:href="../../de/d10/_general_policies_8hpp.html" target="_top" xlink:title=" ">
<polygon fill="white" stroke="#666666" points="1197.5,-274 1070.5,-274 1070.5,-243.5 1197.5,-243.5 1197.5,-274"/>
<text text-anchor="start" x="1078.5" y="-260.5" font-family="Helvetica,sans-Serif" font-size="10.00">mimic++/policies/General</text>
<text text-anchor="middle" x="1134" y="-249.25" font-family="Helvetica,sans-Serif" font-size="10.00">Policies.hpp</text>
</a>
</g>
</g>
<!-- Node23&#45;&gt;Node24 -->
<g id="edge55_Node000023_Node000024" class="edge">
<title>Node23&#45;&gt;Node24</title>
<g id="a_edge55_Node000023_Node000024"><a xlink:title=" ">
<path fill="none" stroke="#63b8ff" d="M1272.92,-478.38C1305.07,-443.5 1368.26,-363.38 1327,-310 1311.15,-289.49 1247.8,-275.78 1197.95,-267.93"/>
<polygon fill="#63b8ff" stroke="#63b8ff" points="1270.52,-475.83 1266.18,-485.5 1275.6,-480.64 1270.52,-475.83"/>
</a>
</g>
</g>
<!-- Node24&#45;&gt;Node4 -->
<g id="edge56_Node000024_Node000004" class="edge">
<title>Node24&#45;&gt;Node4</title>
<g id="a_edge56_Node000024_Node000004"><a xlink:title=" ">
<path fill="none" stroke="#63b8ff" d="M1058.85,-243.04C949.95,-225.34 834.5,-210.86 760.09,-202.1"/>
<polygon fill="#63b8ff" stroke="#63b8ff" points="1058.12,-246.46 1068.55,-244.63 1059.25,-239.56 1058.12,-246.46"/>
</a>
</g>
</g>
<!-- Node24&#45;&gt;Node5 -->
<g id="edge57_Node000024_Node000005" class="edge">
<title>Node24&#45;&gt;Node5</title>
<g id="a_edge57_Node000024_Node000005"><a xlink:title=" ">
<path fill="none" stroke="#63b8ff" d="M1109.64,-235.59C1077.52,-206.37 1022.48,-156.3 1000,-135.85"/>
<polygon fill="#63b8ff" stroke="#63b8ff" points="1107.17,-238.07 1116.92,-242.21 1111.88,-232.89 1107.17,-238.07"/>
</a>
</g>
</g>
<!-- Node24&#45;&gt;Node7 -->
<g id="edge58_Node000024_Node000007" class="edge">
<title>Node24&#45;&gt;Node7</title>
<g id="a_edge58_Node000024_Node000007"><a xlink:title=" ">
<path fill="none" stroke="#63b8ff" d="M1140.71,-232.25C1150.34,-189.11 1162.16,-101.89 1115,-55.25 1081.25,-21.86 764.4,-13.38 632.84,-11.29"/>
<polygon fill="#63b8ff" stroke="#63b8ff" points="1137.37,-231.16 1138.45,-241.7 1144.17,-232.79 1137.37,-231.16"/>
</a>
</g>
</g>
</g>
</svg>
