<?xml version="1.0" encoding="UTF-8" standalone="no"?>
<!DOCTYPE svg PUBLIC "-//W3C//DTD SVG 1.1//EN"
 "http://www.w3.org/Graphics/SVG/1.1/DTD/svg11.dtd">
<!-- Generated by graphviz version 12.1.2 (20240928.0832)
 -->
<!-- Title: mimic++/TypeTraits.hpp Pages: 1 -->
<!--zoomable 635 -->

<svg id="main" version="1.1" xmlns="http://www.w3.org/2000/svg" xmlns:xlink="http://www.w3.org/1999/xlink" xml:space="preserve" onload="init(evt)">

<style type="text/css"><![CDATA[
.node, .edge {opacity: 0.7;}
.node.selected, .edge.selected {opacity: 1;}
.edge:hover path { stroke: red; }
.edge:hover polygon { stroke: red; fill: red; }
]]></style>

<defs>
  <circle id="rim" cx="0" cy="0" r="7"/>
  <circle id="rim2" cx="0" cy="0" r="3.5"/>
  <g id="zoomPlus">
    <use xlink:href="#rim" fill="#404040"><set attributeName="fill" to="#808080" begin="zoomplus.mouseover" end="zoomplus.mouseout"/></use>
    <path d="M-4,0h8M0,-4v8" fill="none" stroke="white" stroke-width="1.5" pointer-events="none"/>
  </g>
  <g id="zoomMin">
    <use xlink:href="#rim" fill="#404040"><set attributeName="fill" to="#808080" begin="zoomminus.mouseover" end="zoomminus.mouseout"/></use>
    <path d="M-4,0h8" fill="none" stroke="white" stroke-width="1.5" pointer-events="none"/>
  </g>
  <g id="arrowUp" transform="translate(30 24)">
    <use xlink:href="#rim"/>
    <path pointer-events="none" fill="none" stroke="white" stroke-width="1.5" d="M0,-3.0v7 M-2.5,-0.5L0,-3.0L2.5,-0.5"/>
  </g>
  <g id="arrowRight" transform="rotate(90) translate(36 -43)">
    <use xlink:href="#rim"/>
    <path pointer-events="none" fill="none" stroke="white" stroke-width="1.5" d="M0,-3.0v7 M-2.5,-0.5L0,-3.0L2.5,-0.5"/>
  </g>
  <g id="arrowDown" transform="rotate(180) translate(-30 -48)">
    <use xlink:href="#rim"/>
    <path pointer-events="none" fill="none" stroke="white" stroke-width="1.5" d="M0,-3.0v7 M-2.5,-0.5L0,-3.0L2.5,-0.5"/>
  </g>
  <g id="arrowLeft" transform="rotate(270) translate(-36 17)">
    <use xlink:href="#rim"/>
    <path pointer-events="none" fill="none" stroke="white" stroke-width="1.5" d="M0,-3.0v7 M-2.5,-0.5L0,-3.0L2.5,-0.5"/>
  </g>
  <g id="resetDef">
    <use xlink:href="#rim2" fill="#404040"><set attributeName="fill" to="#808080" begin="reset.mouseover" end="reset.mouseout"/></use>
  </g>
</defs>
<script type="application/ecmascript">
var viewWidth = 1068;
var viewHeight = 635;
var sectionId = 'dynsection-1';
</script>
<script type="application/ecmascript" xlink:href="../../svg.min.js"/>
<svg id="graph" class="graph">
<g id="viewport">
<title>mimic++/TypeTraits.hpp</title>
<!-- Node1 -->
<g id="Node000001" class="node">
<title>Node1</title>
<g id="a_Node000001"><a xlink:title=" ">
<polygon fill="#999999" stroke="#666666" points="290.5,-627 169.5,-627 169.5,-607.75 290.5,-607.75 290.5,-627"/>
<text text-anchor="middle" x="230" y="-613.5" font-family="Helvetica,sans-Serif" font-size="10.00">mimic++/TypeTraits.hpp</text>
</a>
</g>
</g>
<!-- Node2 -->
<g id="Node000002" class="node">
<title>Node2</title>
<g id="a_Node000002"><a xlink:href="../../dc/d44/_call_8hpp.html" target="_top" xlink:title=" ">
<polygon fill="white" stroke="#666666" points="275.88,-571.75 184.12,-571.75 184.12,-552.5 275.88,-552.5 275.88,-571.75"/>
<text text-anchor="middle" x="230" y="-558.25" font-family="Helvetica,sans-Serif" font-size="10.00">mimic++/Call.hpp</text>
</a>
</g>
</g>
<!-- Node1&#45;&gt;Node2 -->
<g id="edge1_Node000001_Node000002" class="edge">
<title>Node1&#45;&gt;Node2</title>
<g id="a_edge1_Node000001_Node000002"><a xlink:title=" ">
<path fill="none" stroke="#63b8ff" d="M230,-596.13C230,-587.84 230,-578.67 230,-572.11"/>
<polygon fill="#63b8ff" stroke="#63b8ff" points="226.5,-596.07 230,-606.07 233.5,-596.07 226.5,-596.07"/>
</a>
</g>
</g>
<!-- Node3 -->
<g id="Node000003" class="node">
<title>Node3</title>
<g id="a_Node000003"><a xlink:href="../../d5/d8a/_expectation_8hpp.html" target="_top" xlink:title=" ">
<polygon fill="white" stroke="#666666" points="486.75,-295.5 361.25,-295.5 361.25,-276.25 486.75,-276.25 486.75,-295.5"/>
<text text-anchor="middle" x="424" y="-282" font-family="Helvetica,sans-Serif" font-size="10.00">mimic++/Expectation.hpp</text>
</a>
</g>
</g>
<!-- Node1&#45;&gt;Node3 -->
<g id="edge33_Node000001_Node000003" class="edge">
<title>Node1&#45;&gt;Node3</title>
<g id="a_edge33_Node000001_Node000003"><a xlink:title=" ">
<path fill="none" stroke="#63b8ff" d="M202.49,-601.35C191.84,-593.96 180.83,-583.99 175,-571.75 171.32,-564.03 173.57,-560.94 175,-552.5 192.35,-449.94 175.52,-401.99 252,-331.5 281.38,-304.42 325.04,-293.32 361.03,-288.96"/>
<polygon fill="#63b8ff" stroke="#63b8ff" points="200.41,-604.18 210.73,-606.59 204.16,-598.27 200.41,-604.18"/>
</a>
</g>
</g>
<!-- Node7 -->
<g id="Node000007" class="node">
<title>Node7</title>
<g id="a_Node000007"><a xlink:href="../../d0/db9/mimic_09_09_8hpp.html" target="_top" xlink:title=" ">
<polygon fill="white" stroke="#666666" points="609.75,-19.25 496.25,-19.25 496.25,0 609.75,0 609.75,-19.25"/>
<text text-anchor="middle" x="553" y="-5.75" font-family="Helvetica,sans-Serif" font-size="10.00">mimic++/mimic++.hpp</text>
</a>
</g>
</g>
<!-- Node1&#45;&gt;Node7 -->
<g id="edge44_Node000001_Node000007" class="edge">
<title>Node1&#45;&gt;Node7</title>
<g id="a_edge44_Node000001_Node000007"><a xlink:title=" ">
<path fill="none" stroke="#63b8ff" d="M158.23,-611.97C90.74,-603.48 0,-578.87 0,-507.88 0,-507.88 0,-507.88 0,-119.12 0,-80.48 24.33,-72.32 59,-55.25 134.52,-18.06 382.79,-11.65 495.92,-10.69"/>
<polygon fill="#63b8ff" stroke="#63b8ff" points="157.43,-615.4 167.77,-613.07 158.23,-608.45 157.43,-615.4"/>
</a>
</g>
</g>
<!-- Node16 -->
<g id="Node000016" class="node">
<title>Node16</title>
<g id="a_Node000016"><a xlink:href="../../dd/d50/_matcher_8hpp.html" target="_top" xlink:title=" ">
<polygon fill="white" stroke="#666666" points="1032.25,-461.25 921.75,-461.25 921.75,-442 1032.25,-442 1032.25,-461.25"/>
<text text-anchor="middle" x="977" y="-447.75" font-family="Helvetica,sans-Serif" font-size="10.00">mimic++/Matcher.hpp</text>
</a>
</g>
</g>
<!-- Node1&#45;&gt;Node16 -->
<g id="edge34_Node000001_Node000016" class="edge">
<title>Node1&#45;&gt;Node16</title>
<g id="a_edge34_Node000001_Node000016"><a xlink:title=" ">
<path fill="none" stroke="#63b8ff" d="M302.45,-615.58C467.79,-613.2 862.61,-604.15 913,-571.75 953.68,-545.59 970.33,-484.4 975.28,-461.49"/>
<polygon fill="#63b8ff" stroke="#63b8ff" points="302.41,-612.08 292.46,-615.72 302.51,-619.08 302.41,-612.08"/>
</a>
</g>
</g>
<!-- Node17 -->
<g id="Node000017" class="node">
<title>Node17</title>
<g id="a_Node000017"><a xlink:href="../../da/dab/_printer_8hpp.html" target="_top" xlink:title=" ">
<polygon fill="white" stroke="#666666" points="903.88,-571.75 800.12,-571.75 800.12,-552.5 903.88,-552.5 903.88,-571.75"/>
<text text-anchor="middle" x="852" y="-558.25" font-family="Helvetica,sans-Serif" font-size="10.00">mimic++/Printer.hpp</text>
</a>
</g>
</g>
<!-- Node1&#45;&gt;Node17 -->
<g id="edge37_Node000001_Node000017" class="edge">
<title>Node1&#45;&gt;Node17</title>
<g id="a_edge37_Node000001_Node000017"><a xlink:title=" ">
<path fill="none" stroke="#63b8ff" d="M301.87,-610.22C428.58,-599.37 688.8,-577.1 799.88,-567.59"/>
<polygon fill="#63b8ff" stroke="#63b8ff" points="301.95,-606.7 292.28,-611.04 302.54,-613.68 301.95,-606.7"/>
</a>
</g>
</g>
<!-- Node2&#45;&gt;Node3 -->
<g id="edge2_Node000002_Node000003" class="edge">
<title>Node2&#45;&gt;Node3</title>
<g id="a_edge2_Node000002_Node000003"><a xlink:title=" ">
<path fill="none" stroke="#63b8ff" d="M224.43,-541.29C213.18,-496.39 193.47,-386.56 252,-331.5 281.1,-304.13 324.77,-293.03 360.83,-288.74"/>
<polygon fill="#63b8ff" stroke="#63b8ff" points="221.04,-542.13 226.99,-550.9 227.8,-540.33 221.04,-542.13"/>
</a>
</g>
</g>
<!-- Node2&#45;&gt;Node7 -->
<g id="edge32_Node000002_Node000007" class="edge">
<title>Node2&#45;&gt;Node7</title>
<g id="a_edge32_Node000002_Node000007"><a xlink:title=" ">
<path fill="none" stroke="#63b8ff" d="M191.46,-548.1C135.41,-526.42 38,-477.26 38,-397.38 38,-397.38 38,-397.38 38,-119.12 38,-79.56 64.36,-72.43 100,-55.25 168.52,-22.22 390.13,-13.63 495.86,-11.4"/>
<polygon fill="#63b8ff" stroke="#63b8ff" points="190.07,-551.31 200.66,-551.54 192.52,-544.76 190.07,-551.31"/>
</a>
</g>
</g>
<!-- Node9 -->
<g id="Node000009" class="node">
<title>Node9</title>
<g id="a_Node000009"><a xlink:href="../../da/dd9/_reporter_8hpp.html" target="_top" xlink:title=" ">
<polygon fill="white" stroke="#666666" points="525,-461.25 413,-461.25 413,-442 525,-442 525,-461.25"/>
<text text-anchor="middle" x="469" y="-447.75" font-family="Helvetica,sans-Serif" font-size="10.00">mimic++/Reporter.hpp</text>
</a>
</g>
</g>
<!-- Node2&#45;&gt;Node9 -->
<g id="edge15_Node000002_Node000009" class="edge">
<title>Node2&#45;&gt;Node9</title>
<g id="a_edge15_Node000002_Node000009"><a xlink:title=" ">
<path fill="none" stroke="#63b8ff" d="M260.36,-547.34C309.95,-524.83 407,-480.77 448.92,-461.74"/>
<polygon fill="#63b8ff" stroke="#63b8ff" points="259,-544.11 251.34,-551.44 261.9,-550.49 259,-544.11"/>
</a>
</g>
</g>
<!-- Node15 -->
<g id="Node000015" class="node">
<title>Node15</title>
<g id="a_Node000015"><a xlink:href="../../d0/d3b/_reports_8hpp.html" target="_top" xlink:title=" ">
<polygon fill="white" stroke="#666666" points="523.5,-516.5 414.5,-516.5 414.5,-497.25 523.5,-497.25 523.5,-516.5"/>
<text text-anchor="middle" x="469" y="-503" font-family="Helvetica,sans-Serif" font-size="10.00">mimic++/Reports.hpp</text>
</a>
</g>
</g>
<!-- Node2&#45;&gt;Node15 -->
<g id="edge28_Node000002_Node000015" class="edge">
<title>Node2&#45;&gt;Node15</title>
<g id="a_edge28_Node000002_Node000015"><a xlink:title=" ">
<path fill="none" stroke="#63b8ff" d="M281.85,-549.57C325.79,-539.78 387.94,-525.94 428.35,-516.93"/>
<polygon fill="#63b8ff" stroke="#63b8ff" points="281.29,-546.11 272.29,-551.7 282.81,-552.94 281.29,-546.11"/>
</a>
</g>
</g>
<!-- Node4 -->
<g id="Node000004" class="node">
<title>Node4</title>
<g id="a_Node000004"><a xlink:href="../../d2/d4f/_expectation_builder_8hpp.html" target="_top" xlink:title=" ">
<polygon fill="white" stroke="#666666" points="677.75,-185 522.25,-185 522.25,-165.75 677.75,-165.75 677.75,-185"/>
<text text-anchor="middle" x="600" y="-171.5" font-family="Helvetica,sans-Serif" font-size="10.00">mimic++/ExpectationBuilder.hpp</text>
</a>
</g>
</g>
<!-- Node3&#45;&gt;Node4 -->
<g id="edge3_Node000003_Node000004" class="edge">
<title>Node3&#45;&gt;Node4</title>
<g id="a_edge3_Node000003_Node000004"><a xlink:title=" ">
<path fill="none" stroke="#63b8ff" d="M448.25,-269.92C485.4,-247.02 555.25,-203.96 585.46,-185.34"/>
<polygon fill="#63b8ff" stroke="#63b8ff" points="446.67,-266.79 439.99,-275.02 450.34,-272.75 446.67,-266.79"/>
</a>
</g>
</g>
<!-- Node5 -->
<g id="Node000005" class="node">
<title>Node5</title>
<g id="a_Node000005"><a xlink:href="../../d5/dc5/_mock_8hpp.html" target="_top" xlink:title=" ">
<polygon fill="white" stroke="#666666" points="649.62,-129.75 550.38,-129.75 550.38,-110.5 649.62,-110.5 649.62,-129.75"/>
<text text-anchor="middle" x="600" y="-116.25" font-family="Helvetica,sans-Serif" font-size="10.00">mimic++/Mock.hpp</text>
</a>
</g>
</g>
<!-- Node3&#45;&gt;Node5 -->
<g id="edge13_Node000003_Node000005" class="edge">
<title>Node3&#45;&gt;Node5</title>
<g id="a_edge13_Node000003_Node000005"><a xlink:title=" ">
<path fill="none" stroke="#63b8ff" d="M434.27,-266.2C448.97,-240.81 478.13,-195.21 513,-165.75 531.67,-149.97 556.87,-137.83 575.34,-130.22"/>
<polygon fill="#63b8ff" stroke="#63b8ff" points="431.33,-264.27 429.46,-274.7 437.43,-267.72 431.33,-264.27"/>
</a>
</g>
</g>
<!-- Node3&#45;&gt;Node7 -->
<g id="edge14_Node000003_Node000007" class="edge">
<title>Node3&#45;&gt;Node7</title>
<g id="a_edge14_Node000003_Node000007"><a xlink:title=" ">
<path fill="none" stroke="#63b8ff" d="M422.2,-264.53C420.43,-242.74 418,-207.14 418,-176.38 418,-176.38 418,-176.38 418,-119.12 418,-88.8 420.8,-76.94 442,-55.25 459.64,-37.2 485.54,-26.23 507.88,-19.69"/>
<polygon fill="#63b8ff" stroke="#63b8ff" points="418.7,-264.71 423.04,-274.37 425.68,-264.11 418.7,-264.71"/>
</a>
</g>
</g>
<!-- Node8 -->
<g id="Node000008" class="node">
<title>Node8</title>
<g id="a_Node000008"><a xlink:href="../../d8/de5/_expectation_policies_8hpp.html" target="_top" xlink:title=" ">
<polygon fill="white" stroke="#666666" points="824,-240.25 664,-240.25 664,-221 824,-221 824,-240.25"/>
<text text-anchor="middle" x="744" y="-226.75" font-family="Helvetica,sans-Serif" font-size="10.00">mimic++/ExpectationPolicies.hpp</text>
</a>
</g>
</g>
<!-- Node3&#45;&gt;Node8 -->
<g id="edge9_Node000003_Node000008" class="edge">
<title>Node3&#45;&gt;Node8</title>
<g id="a_edge9_Node000003_Node000008"><a xlink:title=" ">
<path fill="none" stroke="#63b8ff" d="M489.69,-273.94C548.6,-264.14 634.04,-249.92 689.31,-240.73"/>
<polygon fill="#63b8ff" stroke="#63b8ff" points="489.43,-270.44 480.14,-275.53 490.58,-277.34 489.43,-270.44"/>
</a>
</g>
</g>
<!-- Node4&#45;&gt;Node5 -->
<g id="edge4_Node000004_Node000005" class="edge">
<title>Node4&#45;&gt;Node5</title>
<g id="a_edge4_Node000004_Node000005"><a xlink:title=" ">
<path fill="none" stroke="#63b8ff" d="M600,-154.13C600,-145.84 600,-136.67 600,-130.11"/>
<polygon fill="#63b8ff" stroke="#63b8ff" points="596.5,-154.07 600,-164.07 603.5,-154.07 596.5,-154.07"/>
</a>
</g>
</g>
<!-- Node4&#45;&gt;Node7 -->
<g id="edge8_Node000004_Node000007" class="edge">
<title>Node4&#45;&gt;Node7</title>
<g id="a_edge8_Node000004_Node000007"><a xlink:title=" ">
<path fill="none" stroke="#63b8ff" d="M629.84,-159.54C641.13,-152.24 652.76,-142.29 659,-129.75 668.33,-111 656.58,-67.33 647,-55.25 632.85,-37.42 609.86,-26.33 590.16,-19.67"/>
<polygon fill="#63b8ff" stroke="#63b8ff" points="628.27,-156.4 621.44,-164.5 631.83,-162.43 628.27,-156.4"/>
</a>
</g>
</g>
<!-- Node6 -->
<g id="Node000006" class="node">
<title>Node6</title>
<g id="a_Node000006"><a xlink:href="../../d9/dc3/_interface_mock_8hpp.html" target="_top" xlink:title=" ">
<polygon fill="white" stroke="#666666" points="621.75,-74.5 484.25,-74.5 484.25,-55.25 621.75,-55.25 621.75,-74.5"/>
<text text-anchor="middle" x="553" y="-61" font-family="Helvetica,sans-Serif" font-size="10.00">mimic++/InterfaceMock.hpp</text>
</a>
</g>
</g>
<!-- Node5&#45;&gt;Node6 -->
<g id="edge5_Node000005_Node000006" class="edge">
<title>Node5&#45;&gt;Node6</title>
<g id="a_edge5_Node000005_Node000006"><a xlink:title=" ">
<path fill="none" stroke="#63b8ff" d="M584.67,-101.76C576.75,-92.78 567.4,-82.2 560.93,-74.86"/>
<polygon fill="#63b8ff" stroke="#63b8ff" points="582,-104.02 591.24,-109.2 587.24,-99.38 582,-104.02"/>
</a>
</g>
</g>
<!-- Node5&#45;&gt;Node7 -->
<g id="edge7_Node000005_Node000007" class="edge">
<title>Node5&#45;&gt;Node7</title>
<g id="a_edge7_Node000005_Node000007"><a xlink:title=" ">
<path fill="none" stroke="#63b8ff" d="M617.58,-102.13C628.89,-89.05 639.94,-70.67 631,-55.25 620.82,-37.71 600.87,-26.47 583.69,-19.66"/>
<polygon fill="#63b8ff" stroke="#63b8ff" points="615.29,-99.45 610.98,-109.13 620.39,-104.25 615.29,-99.45"/>
</a>
</g>
</g>
<!-- Node6&#45;&gt;Node7 -->
<g id="edge6_Node000006_Node000007" class="edge">
<title>Node6&#45;&gt;Node7</title>
<g id="a_edge6_Node000006_Node000007"><a xlink:title=" ">
<path fill="none" stroke="#63b8ff" d="M553,-43.63C553,-35.34 553,-26.17 553,-19.61"/>
<polygon fill="#63b8ff" stroke="#63b8ff" points="549.5,-43.57 553,-53.57 556.5,-43.57 549.5,-43.57"/>
</a>
</g>
</g>
<!-- Node8&#45;&gt;Node4 -->
<g id="edge10_Node000008_Node000004" class="edge">
<title>Node8&#45;&gt;Node4</title>
<g id="a_edge10_Node000008_Node000004"><a xlink:title=" ">
<path fill="none" stroke="#63b8ff" d="M708.97,-216.67C682.83,-207 647.76,-194.04 624.55,-185.45"/>
<polygon fill="#63b8ff" stroke="#63b8ff" points="707.56,-219.88 718.15,-220.07 709.99,-213.32 707.56,-219.88"/>
</a>
</g>
</g>
<!-- Node8&#45;&gt;Node5 -->
<g id="edge11_Node000008_Node000005" class="edge">
<title>Node8&#45;&gt;Node5</title>
<g id="a_edge11_Node000008_Node000005"><a xlink:title=" ">
<path fill="none" stroke="#63b8ff" d="M731.08,-211.86C720.39,-198.05 704.22,-179.06 687,-165.75 667.26,-150.49 641.5,-138.04 623.15,-130.21"/>
<polygon fill="#63b8ff" stroke="#63b8ff" points="728.12,-213.74 736.92,-219.64 733.71,-209.54 728.12,-213.74"/>
</a>
</g>
</g>
<!-- Node8&#45;&gt;Node7 -->
<g id="edge12_Node000008_Node000007" class="edge">
<title>Node8&#45;&gt;Node7</title>
<g id="a_edge12_Node000008_Node000007"><a xlink:title=" ">
<path fill="none" stroke="#63b8ff" d="M740.13,-209.83C732.19,-174.21 710.8,-98.98 665,-55.25 646.23,-37.33 619.36,-26.3 596.65,-19.69"/>
<polygon fill="#63b8ff" stroke="#63b8ff" points="736.61,-210.1 742.09,-219.17 743.46,-208.67 736.61,-210.1"/>
</a>
</g>
</g>
<!-- Node9&#45;&gt;Node3 -->
<g id="edge16_Node000009_Node000003" class="edge">
<title>Node9&#45;&gt;Node3</title>
<g id="a_edge16_Node000009_Node000003"><a xlink:title=" ">
<path fill="none" stroke="#63b8ff" d="M401.26,-446.24C343.3,-440.91 266.27,-429.52 247,-406 202.64,-351.84 320.26,-312.72 384.86,-295.95"/>
<polygon fill="#63b8ff" stroke="#63b8ff" points="400.8,-449.72 411.07,-447.1 401.41,-442.74 400.8,-449.72"/>
</a>
</g>
</g>
<!-- Node9&#45;&gt;Node7 -->
<g id="edge27_Node000009_Node000007" class="edge">
<title>Node9&#45;&gt;Node7</title>
<g id="a_edge27_Node000009_Node000007"><a xlink:title=" ">
<path fill="none" stroke="#63b8ff" d="M401.53,-448.75C298.55,-441.9 114,-412.15 114,-286.88 114,-286.88 114,-286.88 114,-119.12 114,-41.3 377.28,-18.94 496.06,-12.82"/>
<polygon fill="#63b8ff" stroke="#63b8ff" points="401.05,-452.23 411.24,-449.34 401.47,-445.24 401.05,-452.23"/>
</a>
</g>
</g>
<!-- Node10 -->
<g id="Node000010" class="node">
<title>Node10</title>
<g id="a_Node000010"><a xlink:href="../../d8/de4/_sequence_8hpp.html" target="_top" xlink:title=" ">
<polygon fill="white" stroke="#666666" points="911.38,-406 792.62,-406 792.62,-386.75 911.38,-386.75 911.38,-406"/>
<text text-anchor="middle" x="852" y="-392.5" font-family="Helvetica,sans-Serif" font-size="10.00">mimic++/Sequence.hpp</text>
</a>
</g>
</g>
<!-- Node9&#45;&gt;Node10 -->
<g id="edge17_Node000009_Node000010" class="edge">
<title>Node9&#45;&gt;Node10</title>
<g id="a_edge17_Node000009_Node000010"><a xlink:title=" ">
<path fill="none" stroke="#63b8ff" d="M536.36,-441.26C608.81,-431.19 722.93,-415.32 792.28,-405.68"/>
<polygon fill="#63b8ff" stroke="#63b8ff" points="536.02,-437.77 526.6,-442.62 536.99,-444.71 536.02,-437.77"/>
</a>
</g>
</g>
<!-- Node12 -->
<g id="Node000012" class="node">
<title>Node12</title>
<g id="a_Node000012"><a xlink:href="../../d9/d42/_boost_test_8hpp.html" target="_top" xlink:title=" ">
<polygon fill="white" stroke="#666666" points="416.38,-406 255.62,-406 255.62,-386.75 416.38,-386.75 416.38,-406"/>
<text text-anchor="middle" x="336" y="-392.5" font-family="Helvetica,sans-Serif" font-size="10.00">mimic++/adapters/BoostTest.hpp</text>
</a>
</g>
</g>
<!-- Node9&#45;&gt;Node12 -->
<g id="edge24_Node000009_Node000012" class="edge">
<title>Node9&#45;&gt;Node12</title>
<g id="a_edge24_Node000009_Node000012"><a xlink:title=" ">
<path fill="none" stroke="#63b8ff" d="M436,-437.41C411.93,-427.77 379.92,-414.96 358.67,-406.45"/>
<polygon fill="#63b8ff" stroke="#63b8ff" points="434.45,-440.56 445.03,-441.03 437.05,-434.06 434.45,-440.56"/>
</a>
</g>
</g>
<!-- Node13 -->
<g id="Node000013" class="node">
<title>Node13</title>
<g id="a_Node000013"><a xlink:href="../../d3/d04/_catch2_8hpp.html" target="_top" xlink:title=" ">
<polygon fill="white" stroke="#666666" points="581.25,-406 434.75,-406 434.75,-386.75 581.25,-386.75 581.25,-406"/>
<text text-anchor="middle" x="508" y="-392.5" font-family="Helvetica,sans-Serif" font-size="10.00">mimic++/adapters/Catch2.hpp</text>
</a>
</g>
</g>
<!-- Node9&#45;&gt;Node13 -->
<g id="edge25_Node000009_Node000013" class="edge">
<title>Node9&#45;&gt;Node13</title>
<g id="a_edge25_Node000009_Node000013"><a xlink:title=" ">
<path fill="none" stroke="#63b8ff" d="M482.14,-432.69C488.62,-423.84 496.16,-413.54 501.42,-406.36"/>
<polygon fill="#63b8ff" stroke="#63b8ff" points="479.42,-430.48 476.33,-440.61 485.07,-434.61 479.42,-430.48"/>
</a>
</g>
</g>
<!-- Node14 -->
<g id="Node000014" class="node">
<title>Node14</title>
<g id="a_Node000014"><a xlink:href="../../d5/db1/gtest_8hpp.html" target="_top" xlink:title=" ">
<polygon fill="white" stroke="#666666" points="736.75,-406 599.25,-406 599.25,-386.75 736.75,-386.75 736.75,-406"/>
<text text-anchor="middle" x="668" y="-392.5" font-family="Helvetica,sans-Serif" font-size="10.00">mimic++/adapters/gtest.hpp</text>
</a>
</g>
</g>
<!-- Node9&#45;&gt;Node14 -->
<g id="edge26_Node000009_Node000014" class="edge">
<title>Node9&#45;&gt;Node14</title>
<g id="a_edge26_Node000009_Node000014"><a xlink:title=" ">
<path fill="none" stroke="#63b8ff" d="M513.58,-438.7C550.05,-428.94 600.86,-415.34 634.08,-406.45"/>
<polygon fill="#63b8ff" stroke="#63b8ff" points="512.98,-435.23 504.22,-441.2 514.78,-442 512.98,-435.23"/>
</a>
</g>
</g>
<!-- Node10&#45;&gt;Node4 -->
<g id="edge22_Node000010_Node000004" class="edge">
<title>Node10&#45;&gt;Node4</title>
<g id="a_edge22_Node000010_Node000004"><a xlink:title=" ">
<path fill="none" stroke="#63b8ff" d="M829.76,-380.02C792.04,-353.53 713.89,-296.62 655,-240.25 635.97,-222.04 616.51,-197.86 606.63,-185.11"/>
<polygon fill="#63b8ff" stroke="#63b8ff" points="827.41,-382.65 837.62,-385.51 831.42,-376.91 827.41,-382.65"/>
</a>
</g>
</g>
<!-- Node10&#45;&gt;Node7 -->
<g id="edge23_Node000010_Node000007" class="edge">
<title>Node10&#45;&gt;Node7</title>
<g id="a_edge23_Node000010_Node000007"><a xlink:title=" ">
<path fill="none" stroke="#63b8ff" d="M852,-375.01C852,-353.2 852,-317.59 852,-286.88 852,-286.88 852,-286.88 852,-119.12 852,-68.18 696.7,-34.31 609.94,-19.37"/>
<polygon fill="#63b8ff" stroke="#63b8ff" points="848.5,-374.86 852,-384.86 855.5,-374.86 848.5,-374.86"/>
</a>
</g>
</g>
<!-- Node11 -->
<g id="Node000011" class="node">
<title>Node11</title>
<g id="a_Node000011"><a xlink:href="../../d6/d17/_control_policy_8hpp.html" target="_top" xlink:title=" ">
<polygon fill="white" stroke="#666666" points="608.12,-350.75 475.88,-350.75 475.88,-331.5 608.12,-331.5 608.12,-350.75"/>
<text text-anchor="middle" x="542" y="-337.25" font-family="Helvetica,sans-Serif" font-size="10.00">mimic++/ControlPolicy.hpp</text>
</a>
</g>
</g>
<!-- Node10&#45;&gt;Node11 -->
<g id="edge18_Node000010_Node000011" class="edge">
<title>Node10&#45;&gt;Node11</title>
<g id="a_edge18_Node000010_Node000011"><a xlink:title=" ">
<path fill="none" stroke="#63b8ff" d="M788.01,-384.38C730.95,-374.58 648.41,-360.4 594.98,-351.23"/>
<polygon fill="#63b8ff" stroke="#63b8ff" points="787.12,-387.78 797.57,-386.03 788.31,-380.88 787.12,-387.78"/>
</a>
</g>
</g>
<!-- Node11&#45;&gt;Node3 -->
<g id="edge19_Node000011_Node000003" class="edge">
<title>Node11&#45;&gt;Node3</title>
<g id="a_edge19_Node000011_Node000003"><a xlink:title=" ">
<path fill="none" stroke="#63b8ff" d="M511.56,-326.39C490.34,-316.81 462.63,-304.31 444.12,-295.95"/>
<polygon fill="#63b8ff" stroke="#63b8ff" points="510.05,-329.55 520.6,-330.47 512.93,-323.17 510.05,-329.55"/>
</a>
</g>
</g>
<!-- Node11&#45;&gt;Node4 -->
<g id="edge20_Node000011_Node000004" class="edge">
<title>Node11&#45;&gt;Node4</title>
<g id="a_edge20_Node000011_Node000004"><a xlink:title=" ">
<path fill="none" stroke="#63b8ff" d="M548.81,-320.91C561.38,-285.4 587.8,-210.82 596.87,-185.22"/>
<polygon fill="#63b8ff" stroke="#63b8ff" points="545.66,-319.3 545.62,-329.89 552.26,-321.64 545.66,-319.3"/>
</a>
</g>
</g>
<!-- Node11&#45;&gt;Node7 -->
<g id="edge21_Node000011_Node000007" class="edge">
<title>Node11&#45;&gt;Node7</title>
<g id="a_edge21_Node000011_Node000007"><a xlink:title=" ">
<path fill="none" stroke="#63b8ff" d="M529.07,-321.76C497.48,-274.4 422.63,-145.55 475,-55.25 485.18,-37.71 505.13,-26.47 522.31,-19.66"/>
<polygon fill="#63b8ff" stroke="#63b8ff" points="526.04,-323.52 534.57,-329.8 531.82,-319.57 526.04,-323.52"/>
</a>
</g>
</g>
<!-- Node15&#45;&gt;Node7 -->
<g id="edge31_Node000015_Node000007" class="edge">
<title>Node15&#45;&gt;Node7</title>
<g id="a_edge31_Node000015_Node000007"><a xlink:title=" ">
<path fill="none" stroke="#63b8ff" d="M411.64,-494.46C302.56,-471.11 76,-413.96 76,-342.12 76,-342.12 76,-342.12 76,-119.12 76,-76.35 108.9,-72.6 148,-55.25 208.94,-28.2 399.72,-16.79 496.09,-12.66"/>
<polygon fill="#63b8ff" stroke="#63b8ff" points="410.77,-497.86 421.28,-496.5 412.22,-491.01 410.77,-497.86"/>
</a>
</g>
</g>
<!-- Node15&#45;&gt;Node9 -->
<g id="edge30_Node000015_Node000009" class="edge">
<title>Node15&#45;&gt;Node9</title>
<g id="a_edge30_Node000015_Node000009"><a xlink:title=" ">
<path fill="none" stroke="#63b8ff" d="M469,-485.63C469,-477.34 469,-468.17 469,-461.61"/>
<polygon fill="#63b8ff" stroke="#63b8ff" points="465.5,-485.57 469,-495.57 472.5,-485.57 465.5,-485.57"/>
</a>
</g>
</g>
<!-- Node15&#45;&gt;Node11 -->
<g id="edge29_Node000015_Node000011" class="edge">
<title>Node15&#45;&gt;Node11</title>
<g id="a_edge29_Node000015_Node000011"><a xlink:title=" ">
<path fill="none" stroke="#63b8ff" d="M534.79,-502.73C600.54,-495.67 698.5,-473.62 746,-406 750.92,-399 751.36,-393.41 746,-386.75 736.82,-375.35 658.04,-360.57 601.12,-351.22"/>
<polygon fill="#63b8ff" stroke="#63b8ff" points="534.83,-499.21 525.22,-503.67 535.52,-506.18 534.83,-499.21"/>
</a>
</g>
</g>
<!-- Node16&#45;&gt;Node7 -->
<g id="edge36_Node000016_Node000007" class="edge">
<title>Node16&#45;&gt;Node7</title>
<g id="a_edge36_Node000016_Node000007"><a xlink:title=" ">
<path fill="none" stroke="#63b8ff" d="M987.93,-431.84C999.16,-410.74 1015,-375.12 1015,-342.12 1015,-342.12 1015,-342.12 1015,-119.12 1015,-36.84 733.72,-16.91 610.11,-12.12"/>
<polygon fill="#63b8ff" stroke="#63b8ff" points="984.98,-429.95 983.18,-440.39 991.1,-433.35 984.98,-429.95"/>
</a>
</g>
</g>
<!-- Node16&#45;&gt;Node8 -->
<g id="edge35_Node000016_Node000008" class="edge">
<title>Node16&#45;&gt;Node8</title>
<g id="a_edge35_Node000016_Node000008"><a xlink:title=" ">
<path fill="none" stroke="#63b8ff" d="M980.87,-430.62C986.56,-394.66 992.63,-318.91 953,-276.25 935.48,-257.39 875.56,-245.87 824.34,-239.27"/>
<polygon fill="#63b8ff" stroke="#63b8ff" points="977.49,-429.61 979.21,-440.06 984.39,-430.82 977.49,-429.61"/>
</a>
</g>
</g>
<!-- Node17&#45;&gt;Node7 -->
<g id="edge43_Node000017_Node000007" class="edge">
<title>Node17&#45;&gt;Node7</title>
<g id="a_edge43_Node000017_Node000007"><a xlink:title=" ">
<path fill="none" stroke="#63b8ff" d="M915.36,-554.7C976.54,-544.58 1060,-518.67 1060,-452.62 1060,-452.62 1060,-452.62 1060,-119.12 1060,-27.99 742.77,-13.14 610.17,-10.92"/>
<polygon fill="#63b8ff" stroke="#63b8ff" points="915.07,-551.2 905.71,-556.18 916.13,-558.12 915.07,-551.2"/>
</a>
</g>
</g>
<!-- Node17&#45;&gt;Node8 -->
<g id="edge38_Node000017_Node000008" class="edge">
<title>Node17&#45;&gt;Node8</title>
<g id="a_edge38_Node000017_Node000008"><a xlink:title=" ">
<path fill="none" stroke="#63b8ff" d="M863.12,-542.51C885.59,-503.85 933.2,-415.98 920,-386.75 886.89,-313.44 800.12,-260.92 762.18,-240.74"/>
<polygon fill="#63b8ff" stroke="#63b8ff" points="860.35,-540.33 858.29,-550.72 866.38,-543.88 860.35,-540.33"/>
</a>
</g>
</g>
<!-- Node17&#45;&gt;Node9 -->
<g id="edge40_Node000017_Node000009" class="edge">
<title>Node17&#45;&gt;Node9</title>
<g id="a_edge40_Node000017_Node000009"><a xlink:title=" ">
<path fill="none" stroke="#63b8ff" d="M809.21,-549C731.78,-527.07 570.05,-481.25 501.17,-461.74"/>
<polygon fill="#63b8ff" stroke="#63b8ff" points="807.97,-552.29 818.55,-551.65 809.88,-545.56 807.97,-552.29"/>
</a>
</g>
</g>
<!-- Node17&#45;&gt;Node10 -->
<g id="edge42_Node000017_Node000010" class="edge">
<title>Node17&#45;&gt;Node10</title>
<g id="a_edge42_Node000017_Node000010"><a xlink:title=" ">
<path fill="none" stroke="#63b8ff" d="M852,-540.97C852,-505.11 852,-431.6 852,-406.22"/>
<polygon fill="#63b8ff" stroke="#63b8ff" points="848.5,-540.81 852,-550.81 855.5,-540.81 848.5,-540.81"/>
</a>
</g>
</g>
<!-- Node17&#45;&gt;Node15 -->
<g id="edge41_Node000017_Node000015" class="edge">
<title>Node17&#45;&gt;Node15</title>
<g id="a_edge41_Node000017_Node000015"><a xlink:title=" ">
<path fill="none" stroke="#63b8ff" d="M788.96,-552.36C715.06,-542.09 593.82,-525.23 523.72,-515.48"/>
<polygon fill="#63b8ff" stroke="#63b8ff" points="788.06,-555.77 798.45,-553.68 789.03,-548.84 788.06,-555.77"/>
</a>
</g>
</g>
<!-- Node17&#45;&gt;Node16 -->
<g id="edge39_Node000017_Node000016" class="edge">
<title>Node17&#45;&gt;Node16</title>
<g id="a_edge39_Node000017_Node000016"><a xlink:title=" ">
<path fill="none" stroke="#63b8ff" d="M872.78,-545.16C883.46,-536.8 896.59,-526.3 908,-516.5 930.04,-497.56 954.79,-474.08 967.82,-461.53"/>
<polygon fill="#63b8ff" stroke="#63b8ff" points="870.74,-542.32 864.98,-551.21 875.03,-547.85 870.74,-542.32"/>
</a>
</g>
</g>
</g>
</svg>

<g id="navigator" transform="translate(0 0)" fill="#404254">
  <rect fill="#f2f5e9" fill-opacity="0.5" stroke="#606060" stroke-width=".5" x="0" y="0" width="60" height="60"/>
  <use id="zoomplus" xlink:href="#zoomPlus" x="17" y="9" onmousedown="handleZoom(evt,'in')"/>
  <use id="zoomminus" xlink:href="#zoomMin" x="42" y="9" onmousedown="handleZoom(evt,'out')"/>
  <use id="reset" xlink:href="#resetDef" x="30" y="36" onmousedown="handleReset()"/>
   <use id="arrowup" xlink:href="#arrowUp" x="0" y="0" onmousedown="handlePan(0,-1)"/>
  <use id="arrowright" xlink:href="#arrowRight" x="0" y="0" onmousedown="handlePan(1,0)"/>
  <use id="arrowdown" xlink:href="#arrowDown" x="0" y="0" onmousedown="handlePan(0,1)"/>
  <use id="arrowleft" xlink:href="#arrowLeft" x="0" y="0" onmousedown="handlePan(-1,0)"/>
</g>
<svg viewBox="0 0 15 15" width="100%" height="30px" preserveAspectRatio="xMaxYMin meet">
 <g id="arrow_out" transform="scale(0.3 0.3)">
  <a xlink:href="_type_traits_8hpp__dep__incl_org.svg" target="_base">
   <rect id="button" ry="5" rx="5" y="6" x="6" height="38" width="38"
        fill="#f2f5e9" fill-opacity="0.5" stroke="#606060" stroke-width="1.0"/>
   <path id="arrow"
     d="M 11.500037,31.436501 C 11.940474,20.09759 22.043105,11.32322 32.158766,21.979434 L 37.068811,17.246167 C 37.068811,17.246167 37.088388,32 37.088388,32 L 22.160133,31.978069 C 22.160133,31.978069 26.997745,27.140456 26.997745,27.140456 C 18.528582,18.264221 13.291696,25.230495 11.500037,31.436501 z"
     style="fill:#404040;"/>
  </a>
 </g>
</svg>

<style type='text/css'>
<![CDATA[
[data-mouse-over-selected='false'] { opacity: 0.7; }
[data-mouse-over-selected='true']  { opacity: 1.0; }
]]>
</style>
<script type="application/ecmascript"><![CDATA[
document.addEventListener('DOMContentLoaded', (event) => {
  highlightEdges();
  highlightAdjacentNodes();
});
]]></script>
</svg>
