<?xml version="1.0" encoding="UTF-8" standalone="no"?>
<!DOCTYPE svg PUBLIC "-//W3C//DTD SVG 1.1//EN"
 "http://www.w3.org/Graphics/SVG/1.1/DTD/svg11.dtd">
<!-- Generated by graphviz version 12.2.1 (20241206.2353)
 -->
<!-- Title: mimic++/reporting/DefaultReporter.hpp Pages: 1 -->
<!--zoomable 448 -->

<svg id="main" version="1.1" xmlns="http://www.w3.org/2000/svg" xmlns:xlink="http://www.w3.org/1999/xlink" xml:space="preserve" onload="init(evt)">

<style type="text/css"><![CDATA[
.node, .edge {opacity: 0.7;}
.node.selected, .edge.selected {opacity: 1;}
.edge:hover path { stroke: red; }
.edge:hover polygon { stroke: red; fill: red; }
]]></style>

<defs>
  <circle id="rim" cx="0" cy="0" r="7"/>
  <circle id="rim2" cx="0" cy="0" r="3.5"/>
  <g id="zoomPlus">
    <use xlink:href="#rim" fill="#404040"><set attributeName="fill" to="#808080" begin="zoomplus.mouseover" end="zoomplus.mouseout"/></use>
    <path d="M-4,0h8M0,-4v8" fill="none" stroke="white" stroke-width="1.5" pointer-events="none"/>
  </g>
  <g id="zoomMin">
    <use xlink:href="#rim" fill="#404040"><set attributeName="fill" to="#808080" begin="zoomminus.mouseover" end="zoomminus.mouseout"/></use>
    <path d="M-4,0h8" fill="none" stroke="white" stroke-width="1.5" pointer-events="none"/>
  </g>
  <g id="arrowUp" transform="translate(30 24)">
    <use xlink:href="#rim"/>
    <path pointer-events="none" fill="none" stroke="white" stroke-width="1.5" d="M0,-3.0v7 M-2.5,-0.5L0,-3.0L2.5,-0.5"/>
  </g>
  <g id="arrowRight" transform="rotate(90) translate(36 -43)">
    <use xlink:href="#rim"/>
    <path pointer-events="none" fill="none" stroke="white" stroke-width="1.5" d="M0,-3.0v7 M-2.5,-0.5L0,-3.0L2.5,-0.5"/>
  </g>
  <g id="arrowDown" transform="rotate(180) translate(-30 -48)">
    <use xlink:href="#rim"/>
    <path pointer-events="none" fill="none" stroke="white" stroke-width="1.5" d="M0,-3.0v7 M-2.5,-0.5L0,-3.0L2.5,-0.5"/>
  </g>
  <g id="arrowLeft" transform="rotate(270) translate(-36 17)">
    <use xlink:href="#rim"/>
    <path pointer-events="none" fill="none" stroke="white" stroke-width="1.5" d="M0,-3.0v7 M-2.5,-0.5L0,-3.0L2.5,-0.5"/>
  </g>
  <g id="resetDef">
    <use xlink:href="#rim2" fill="#404040"><set attributeName="fill" to="#808080" begin="reset.mouseover" end="reset.mouseout"/></use>
  </g>
</defs>
<script type="application/ecmascript">
var viewWidth = 524;
var viewHeight = 448;
var sectionId = 'dynsection-1';
</script>
<script type="application/ecmascript" xlink:href="../../svg.min.js"/>
<svg id="graph" class="graph">
<g id="viewport">
<title>mimic++/reporting/DefaultReporter.hpp</title>
<!-- Node1 -->
<g id="Node000001" class="node">
<title>Node1</title>
<g id="a_Node000001"><a xlink:title=" ">
<polygon fill="#999999" stroke="#666666" points="189.5,-439.75 61,-439.75 61,-409.25 189.5,-409.25 189.5,-439.75"/>
<text text-anchor="start" x="69" y="-426.25" font-family="Helvetica,sans-Serif" font-size="10.00">mimic++/reporting/Default</text>
<text text-anchor="middle" x="125.25" y="-415" font-family="Helvetica,sans-Serif" font-size="10.00">Reporter.hpp</text>
</a>
</g>
</g>
<!-- Node2 -->
<g id="Node000002" class="node">
<title>Node2</title>
<g id="a_Node000002"><a xlink:href="../../d7/deb/_reporting_8hpp.html" target="_top" xlink:title=" ">
<polygon fill="white" stroke="#666666" points="116.5,-306.75 0,-306.75 0,-287.5 116.5,-287.5 116.5,-306.75"/>
<text text-anchor="middle" x="58.25" y="-293.25" font-family="Helvetica,sans-Serif" font-size="10.00">mimic++/Reporting.hpp</text>
</a>
</g>
</g>
<!-- Node1&#45;&gt;Node2 -->
<g id="edge1_Node000001_Node000002" class="edge">
<title>Node1&#45;&gt;Node2</title>
<g id="a_edge1_Node000001_Node000002"><a xlink:title=" ">
<path fill="none" stroke="#63b8ff" d="M112.29,-399.24C97.24,-371.08 73.19,-326.08 63.03,-307.07"/>
<polygon fill="#63b8ff" stroke="#63b8ff" points="109.05,-400.61 116.85,-407.78 115.22,-397.31 109.05,-400.61"/>
</a>
</g>
</g>
<!-- Node4 -->
<g id="Node000004" class="node">
<title>Node4</title>
<g id="a_Node000004"><a xlink:href="../../de/dd1/_global_reporter_8hpp.html" target="_top" xlink:title=" ">
<polygon fill="white" stroke="#666666" points="245,-373.25 119.5,-373.25 119.5,-342.75 245,-342.75 245,-373.25"/>
<text text-anchor="start" x="127.5" y="-359.75" font-family="Helvetica,sans-Serif" font-size="10.00">mimic++/reporting/Global</text>
<text text-anchor="middle" x="182.25" y="-348.5" font-family="Helvetica,sans-Serif" font-size="10.00">Reporter.hpp</text>
</a>
</g>
</g>
<!-- Node1&#45;&gt;Node4 -->
<g id="edge3_Node000001_Node000004" class="edge">
<title>Node1&#45;&gt;Node4</title>
<g id="a_edge3_Node000001_Node000004"><a xlink:title=" ">
<path fill="none" stroke="#63b8ff" d="M145.68,-400.38C153.58,-391.44 162.38,-381.49 169.37,-373.58"/>
<polygon fill="#63b8ff" stroke="#63b8ff" points="143.19,-397.92 139.19,-407.73 148.43,-402.55 143.19,-397.92"/>
</a>
</g>
</g>
<!-- Node3 -->
<g id="Node000003" class="node">
<title>Node3</title>
<g id="a_Node000003"><a xlink:href="../../d0/db9/mimic_09_09_8hpp.html" target="_top" xlink:title=" ">
<polygon fill="white" stroke="#666666" points="237,-19.25 123.5,-19.25 123.5,0 237,0 237,-19.25"/>
<text text-anchor="middle" x="180.25" y="-5.75" font-family="Helvetica,sans-Serif" font-size="10.00">mimic++/mimic++.hpp</text>
</a>
</g>
</g>
<!-- Node2&#45;&gt;Node3 -->
<g id="edge2_Node000002_Node000003" class="edge">
<title>Node2&#45;&gt;Node3</title>
<g id="a_edge2_Node000002_Node000003"><a xlink:title=" ">
<path fill="none" stroke="#63b8ff" d="M47.51,-277.37C35.36,-254.36 17.25,-213.77 17.25,-176.38 17.25,-176.38 17.25,-176.38 17.25,-119.12 17.25,-61.5 88.71,-32.62 137,-19.68"/>
<polygon fill="#63b8ff" stroke="#63b8ff" points="44.28,-278.76 52.16,-285.84 50.42,-275.39 44.28,-278.76"/>
</a>
</g>
</g>
<!-- Node4&#45;&gt;Node2 -->
<g id="edge15_Node000004_Node000002" class="edge">
<title>Node4&#45;&gt;Node2</title>
<g id="a_edge15_Node000004_Node000002"><a xlink:title=" ">
<path fill="none" stroke="#63b8ff" d="M141.06,-337.44C119.52,-327.22 94.19,-315.19 77.27,-307.15"/>
<polygon fill="#63b8ff" stroke="#63b8ff" points="139.38,-340.52 149.91,-341.65 142.38,-334.2 139.38,-340.52"/>
</a>
</g>
</g>
<!-- Node5 -->
<g id="Node000005" class="node">
<title>Node5</title>
<g id="a_Node000005"><a xlink:href="../../d5/d8a/_expectation_8hpp.html" target="_top" xlink:title=" ">
<polygon fill="white" stroke="#666666" points="389,-245.88 263.5,-245.88 263.5,-226.62 389,-226.62 389,-245.88"/>
<text text-anchor="middle" x="326.25" y="-232.38" font-family="Helvetica,sans-Serif" font-size="10.00">mimic++/Expectation.hpp</text>
</a>
</g>
</g>
<!-- Node4&#45;&gt;Node5 -->
<g id="edge4_Node000004_Node000005" class="edge">
<title>Node4&#45;&gt;Node5</title>
<g id="a_edge4_Node000004_Node000005"><a xlink:title=" ">
<path fill="none" stroke="#63b8ff" d="M219.25,-336.57C233.29,-328.12 249.06,-317.72 262.25,-306.75 285.46,-287.45 308.37,-259.99 319.42,-246.07"/>
<polygon fill="#63b8ff" stroke="#63b8ff" points="217.55,-333.52 210.7,-341.6 221.1,-339.55 217.55,-333.52"/>
</a>
</g>
</g>
<!-- Node10 -->
<g id="Node000010" class="node">
<title>Node10</title>
<g id="a_Node000010"><a xlink:href="../../d8/de4/_sequence_8hpp.html" target="_top" xlink:title=" ">
<polygon fill="white" stroke="#666666" points="253.62,-306.75 134.88,-306.75 134.88,-287.5 253.62,-287.5 253.62,-306.75"/>
<text text-anchor="middle" x="194.25" y="-293.25" font-family="Helvetica,sans-Serif" font-size="10.00">mimic++/Sequence.hpp</text>
</a>
</g>
</g>
<!-- Node4&#45;&gt;Node10 -->
<g id="edge16_Node000004_Node000010" class="edge">
<title>Node4&#45;&gt;Node10</title>
<g id="a_edge16_Node000004_Node000010"><a xlink:title=" ">
<path fill="none" stroke="#63b8ff" d="M187.49,-331.28C189.24,-322.68 191.08,-313.66 192.4,-307.2"/>
<polygon fill="#63b8ff" stroke="#63b8ff" points="184.09,-330.47 185.52,-340.96 190.95,-331.86 184.09,-330.47"/>
</a>
</g>
</g>
<!-- Node5&#45;&gt;Node3 -->
<g id="edge14_Node000005_Node000003" class="edge">
<title>Node5&#45;&gt;Node3</title>
<g id="a_edge14_Node000005_Node000003"><a xlink:title=" ">
<path fill="none" stroke="#63b8ff" d="M358.43,-221.58C423.31,-192.18 558.96,-120.36 502.25,-55.25 468.57,-16.58 320.41,-10.32 237.3,-9.95"/>
<polygon fill="#63b8ff" stroke="#63b8ff" points="357.04,-218.37 349.32,-225.63 359.88,-224.76 357.04,-218.37"/>
</a>
</g>
</g>
<!-- Node6 -->
<g id="Node000006" class="node">
<title>Node6</title>
<g id="a_Node000006"><a xlink:href="../../d2/d4f/_expectation_builder_8hpp.html" target="_top" xlink:title=" ">
<polygon fill="white" stroke="#666666" points="298,-185 142.5,-185 142.5,-165.75 298,-165.75 298,-185"/>
<text text-anchor="middle" x="220.25" y="-171.5" font-family="Helvetica,sans-Serif" font-size="10.00">mimic++/ExpectationBuilder.hpp</text>
</a>
</g>
</g>
<!-- Node5&#45;&gt;Node6 -->
<g id="edge5_Node000005_Node000006" class="edge">
<title>Node5&#45;&gt;Node6</title>
<g id="a_edge5_Node000005_Node000006"><a xlink:title=" ">
<path fill="none" stroke="#63b8ff" d="M300.18,-220.77C280.27,-209.71 253.45,-194.81 236.5,-185.4"/>
<polygon fill="#63b8ff" stroke="#63b8ff" points="298.39,-223.78 308.83,-225.57 301.79,-217.66 298.39,-223.78"/>
</a>
</g>
</g>
<!-- Node7 -->
<g id="Node000007" class="node">
<title>Node7</title>
<g id="a_Node000007"><a xlink:href="../../d5/dc5/_mock_8hpp.html" target="_top" xlink:title=" ">
<polygon fill="white" stroke="#666666" points="375.88,-129.75 276.62,-129.75 276.62,-110.5 375.88,-110.5 375.88,-129.75"/>
<text text-anchor="middle" x="326.25" y="-116.25" font-family="Helvetica,sans-Serif" font-size="10.00">mimic++/Mock.hpp</text>
</a>
</g>
</g>
<!-- Node5&#45;&gt;Node7 -->
<g id="edge13_Node000005_Node000007" class="edge">
<title>Node5&#45;&gt;Node7</title>
<g id="a_edge13_Node000005_Node000007"><a xlink:title=" ">
<path fill="none" stroke="#63b8ff" d="M326.25,-214.87C326.25,-189.75 326.25,-148.17 326.25,-130.04"/>
<polygon fill="#63b8ff" stroke="#63b8ff" points="322.75,-214.78 326.25,-224.78 329.75,-214.78 322.75,-214.78"/>
</a>
</g>
</g>
<!-- Node6&#45;&gt;Node3 -->
<g id="edge12_Node000006_Node000003" class="edge">
<title>Node6&#45;&gt;Node3</title>
<g id="a_edge12_Node000006_Node000003"><a xlink:title=" ">
<path fill="none" stroke="#63b8ff" d="M202.94,-156.99C185.76,-138.4 160.55,-107.15 150.25,-74.5 143.76,-53.94 160.37,-31.46 171.39,-19.42"/>
<polygon fill="#63b8ff" stroke="#63b8ff" points="200.37,-159.36 209.81,-164.18 205.43,-154.53 200.37,-159.36"/>
</a>
</g>
</g>
<!-- Node6&#45;&gt;Node7 -->
<g id="edge6_Node000006_Node000007" class="edge">
<title>Node6&#45;&gt;Node7</title>
<g id="a_edge6_Node000006_Node000007"><a xlink:title=" ">
<path fill="none" stroke="#63b8ff" d="M248.38,-160.24C267.34,-150.72 291.78,-138.44 308.18,-130.2"/>
<polygon fill="#63b8ff" stroke="#63b8ff" points="246.95,-157.05 239.58,-164.66 250.09,-163.3 246.95,-157.05"/>
</a>
</g>
</g>
<!-- Node7&#45;&gt;Node3 -->
<g id="edge11_Node000007_Node000003" class="edge">
<title>Node7&#45;&gt;Node3</title>
<g id="a_edge11_Node000007_Node000003"><a xlink:title=" ">
<path fill="none" stroke="#63b8ff" d="M325.3,-98.71C323.61,-84.83 319.25,-66.94 308.25,-55.25 289.78,-35.63 262.23,-24.63 237.41,-18.47"/>
<polygon fill="#63b8ff" stroke="#63b8ff" points="321.8,-98.83 326.09,-108.52 328.77,-98.27 321.8,-98.83"/>
</a>
</g>
</g>
<!-- Node8 -->
<g id="Node000008" class="node">
<title>Node8</title>
<g id="a_Node000008"><a xlink:href="../../d9/dc3/_interface_mock_8hpp.html" target="_top" xlink:title=" ">
<polygon fill="white" stroke="#666666" points="493,-74.5 355.5,-74.5 355.5,-55.25 493,-55.25 493,-74.5"/>
<text text-anchor="middle" x="424.25" y="-61" font-family="Helvetica,sans-Serif" font-size="10.00">mimic++/InterfaceMock.hpp</text>
</a>
</g>
</g>
<!-- Node7&#45;&gt;Node8 -->
<g id="edge7_Node000007_Node000008" class="edge">
<title>Node7&#45;&gt;Node8</title>
<g id="a_edge7_Node000007_Node000008"><a xlink:title=" ">
<path fill="none" stroke="#63b8ff" d="M352.5,-104.86C369.99,-95.36 392.45,-83.15 407.54,-74.95"/>
<polygon fill="#63b8ff" stroke="#63b8ff" points="351.32,-101.52 344.2,-109.37 354.66,-107.67 351.32,-101.52"/>
</a>
</g>
</g>
<!-- Node9 -->
<g id="Node000009" class="node">
<title>Node9</title>
<g id="a_Node000009"><a xlink:href="../../d5/d92/_object_watcher_8hpp.html" target="_top" xlink:title=" ">
<polygon fill="white" stroke="#666666" points="299.12,-74.5 159.38,-74.5 159.38,-55.25 299.12,-55.25 299.12,-74.5"/>
<text text-anchor="middle" x="229.25" y="-61" font-family="Helvetica,sans-Serif" font-size="10.00">mimic++/ObjectWatcher.hpp</text>
</a>
</g>
</g>
<!-- Node7&#45;&gt;Node9 -->
<g id="edge9_Node000007_Node000009" class="edge">
<title>Node7&#45;&gt;Node9</title>
<g id="a_edge9_Node000007_Node000009"><a xlink:title=" ">
<path fill="none" stroke="#63b8ff" d="M299.78,-104.59C282.54,-95.13 260.58,-83.08 245.79,-74.95"/>
<polygon fill="#63b8ff" stroke="#63b8ff" points="298.02,-107.62 308.47,-109.36 301.39,-101.48 298.02,-107.62"/>
</a>
</g>
</g>
<!-- Node8&#45;&gt;Node3 -->
<g id="edge8_Node000008_Node000003" class="edge">
<title>Node8&#45;&gt;Node3</title>
<g id="a_edge8_Node000008_Node000003"><a xlink:title=" ">
<path fill="none" stroke="#63b8ff" d="M371.6,-52.38C326.72,-42.59 263.09,-28.7 221.75,-19.68"/>
<polygon fill="#63b8ff" stroke="#63b8ff" points="370.59,-55.75 381.1,-54.46 372.08,-48.91 370.59,-55.75"/>
</a>
</g>
</g>
<!-- Node9&#45;&gt;Node3 -->
<g id="edge10_Node000009_Node000003" class="edge">
<title>Node9&#45;&gt;Node3</title>
<g id="a_edge10_Node000009_Node000003"><a xlink:title=" ">
<path fill="none" stroke="#63b8ff" d="M213.53,-46.79C205.21,-37.75 195.34,-27.02 188.52,-19.61"/>
<polygon fill="#63b8ff" stroke="#63b8ff" points="210.79,-48.98 220.13,-53.97 215.94,-44.24 210.79,-48.98"/>
</a>
</g>
</g>
<!-- Node10&#45;&gt;Node3 -->
<g id="edge19_Node000010_Node000003" class="edge">
<title>Node10&#45;&gt;Node3</title>
<g id="a_edge19_Node000010_Node000003"><a xlink:title=" ">
<path fill="none" stroke="#63b8ff" d="M127.45,-283.74C107.94,-277.13 88.15,-267 74.25,-251.5 51.25,-225.86 55.25,-210.82 55.25,-176.38 55.25,-176.38 55.25,-176.38 55.25,-119.12 55.25,-67.11 117.74,-34.41 154.35,-19.71"/>
<polygon fill="#63b8ff" stroke="#63b8ff" points="126.19,-287.02 136.78,-286.62 128.26,-280.33 126.19,-287.02"/>
</a>
</g>
</g>
<!-- Node10&#45;&gt;Node5 -->
<g id="edge17_Node000010_Node000005" class="edge">
<title>Node10&#45;&gt;Node5</title>
<g id="a_edge17_Node000010_Node000005"><a xlink:title=" ">
<path fill="none" stroke="#63b8ff" d="M224.98,-282.42C249.97,-271.27 284.51,-255.87 306.11,-246.23"/>
<polygon fill="#63b8ff" stroke="#63b8ff" points="223.68,-279.17 215.97,-286.44 226.53,-285.56 223.68,-279.17"/>
</a>
</g>
</g>
<!-- Node10&#45;&gt;Node6 -->
<g id="edge18_Node000010_Node000006" class="edge">
<title>Node10&#45;&gt;Node6</title>
<g id="a_edge18_Node000010_Node000006"><a xlink:title=" ">
<path fill="none" stroke="#63b8ff" d="M205.51,-277.54C209.66,-269.77 213.9,-260.47 216.25,-251.5 222.33,-228.25 221.73,-199.61 220.92,-185.34"/>
<polygon fill="#63b8ff" stroke="#63b8ff" points="202.6,-275.58 200.69,-286 208.68,-279.05 202.6,-275.58"/>
</a>
</g>
</g>
<!-- Node11 -->
<g id="Node000011" class="node">
<title>Node11</title>
<g id="a_Node000011"><a xlink:href="../../db/d70/_control_policies_8hpp.html" target="_top" xlink:title=" ">
<polygon fill="white" stroke="#666666" points="207.25,-251.5 83.25,-251.5 83.25,-221 207.25,-221 207.25,-251.5"/>
<text text-anchor="start" x="91.25" y="-238" font-family="Helvetica,sans-Serif" font-size="10.00">mimic++/policies/Control</text>
<text text-anchor="middle" x="145.25" y="-226.75" font-family="Helvetica,sans-Serif" font-size="10.00">Policies.hpp</text>
</a>
</g>
</g>
<!-- Node10&#45;&gt;Node11 -->
<g id="edge20_Node000010_Node000011" class="edge">
<title>Node10&#45;&gt;Node11</title>
<g id="a_edge20_Node000010_Node000011"><a xlink:title=" ">
<path fill="none" stroke="#63b8ff" d="M179.52,-278.43C172.44,-269.92 164.05,-259.84 157.34,-251.78"/>
<polygon fill="#63b8ff" stroke="#63b8ff" points="176.75,-280.57 185.84,-286.02 182.13,-276.09 176.75,-280.57"/>
</a>
</g>
</g>
<!-- Node11&#45;&gt;Node3 -->
<g id="edge22_Node000011_Node000003" class="edge">
<title>Node11&#45;&gt;Node3</title>
<g id="a_edge22_Node000011_Node000003"><a xlink:title=" ">
<path fill="none" stroke="#63b8ff" d="M137.95,-209.8C136.02,-201.92 134.21,-193.16 133.25,-185 128.2,-142.12 133.02,-85.28 145.25,-55.25 150.97,-41.21 162.47,-27.91 170.73,-19.54"/>
<polygon fill="#63b8ff" stroke="#63b8ff" points="134.56,-210.66 140.49,-219.43 141.33,-208.87 134.56,-210.66"/>
</a>
</g>
</g>
<!-- Node11&#45;&gt;Node6 -->
<g id="edge21_Node000011_Node000006" class="edge">
<title>Node11&#45;&gt;Node6</title>
<g id="a_edge21_Node000011_Node000006"><a xlink:title=" ">
<path fill="none" stroke="#63b8ff" d="M172.49,-213.87C184.95,-204.08 199.06,-193.01 208.69,-185.45"/>
<polygon fill="#63b8ff" stroke="#63b8ff" points="170.68,-210.83 164.98,-219.76 175.01,-216.34 170.68,-210.83"/>
</a>
</g>
</g>
</g>
</svg>

<g id="navigator" transform="translate(0 0)" fill="#404254">
  <rect fill="#f2f5e9" fill-opacity="0.5" stroke="#606060" stroke-width=".5" x="0" y="0" width="60" height="60"/>
  <use id="zoomplus" xlink:href="#zoomPlus" x="17" y="9" onmousedown="handleZoom(evt,'in')"/>
  <use id="zoomminus" xlink:href="#zoomMin" x="42" y="9" onmousedown="handleZoom(evt,'out')"/>
  <use id="reset" xlink:href="#resetDef" x="30" y="36" onmousedown="handleReset()"/>
   <use id="arrowup" xlink:href="#arrowUp" x="0" y="0" onmousedown="handlePan(0,-1)"/>
  <use id="arrowright" xlink:href="#arrowRight" x="0" y="0" onmousedown="handlePan(1,0)"/>
  <use id="arrowdown" xlink:href="#arrowDown" x="0" y="0" onmousedown="handlePan(0,1)"/>
  <use id="arrowleft" xlink:href="#arrowLeft" x="0" y="0" onmousedown="handlePan(-1,0)"/>
</g>
<svg viewBox="0 0 15 15" width="100%" height="30px" preserveAspectRatio="xMaxYMin meet">
 <g id="arrow_out" transform="scale(0.3 0.3)">
  <a xlink:href="_default_reporter_8hpp__dep__incl_org.svg" target="_base">
   <rect id="button" ry="5" rx="5" y="6" x="6" height="38" width="38"
        fill="#f2f5e9" fill-opacity="0.5" stroke="#606060" stroke-width="1.0"/>
   <path id="arrow"
     d="M 11.500037,31.436501 C 11.940474,20.09759 22.043105,11.32322 32.158766,21.979434 L 37.068811,17.246167 C 37.068811,17.246167 37.088388,32 37.088388,32 L 22.160133,31.978069 C 22.160133,31.978069 26.997745,27.140456 26.997745,27.140456 C 18.528582,18.264221 13.291696,25.230495 11.500037,31.436501 z"
     style="fill:#404040;"/>
  </a>
 </g>
</svg>

<style type='text/css'>
<![CDATA[
[data-mouse-over-selected='false'] { opacity: 0.7; }
[data-mouse-over-selected='true']  { opacity: 1.0; }
]]>
</style>
<script type="application/ecmascript"><![CDATA[
document.addEventListener('DOMContentLoaded', (event) => {
  highlightEdges();
  highlightAdjacentNodes();
});
]]></script>
</svg>
