<?xml version="1.0" encoding="UTF-8" standalone="no"?>
<!DOCTYPE svg PUBLIC "-//W3C//DTD SVG 1.1//EN"
 "http://www.w3.org/Graphics/SVG/1.1/DTD/svg11.dtd">
<!-- Generated by graphviz version 12.2.1 (20241206.2353)
 -->
<!-- Title: mimic++/reporting/DefaultReporter.hpp Pages: 1 -->
<!--zoomable 526 -->

<svg id="main" version="1.1" xmlns="http://www.w3.org/2000/svg" xmlns:xlink="http://www.w3.org/1999/xlink" xml:space="preserve" onload="init(evt)">

<style type="text/css"><![CDATA[
.node, .edge {opacity: 0.7;}
.node.selected, .edge.selected {opacity: 1;}
.edge:hover path { stroke: red; }
.edge:hover polygon { stroke: red; fill: red; }
]]></style>

<defs>
  <circle id="rim" cx="0" cy="0" r="7"/>
  <circle id="rim2" cx="0" cy="0" r="3.5"/>
  <g id="zoomPlus">
    <use xlink:href="#rim" fill="#404040"><set attributeName="fill" to="#808080" begin="zoomplus.mouseover" end="zoomplus.mouseout"/></use>
    <path d="M-4,0h8M0,-4v8" fill="none" stroke="white" stroke-width="1.5" pointer-events="none"/>
  </g>
  <g id="zoomMin">
    <use xlink:href="#rim" fill="#404040"><set attributeName="fill" to="#808080" begin="zoomminus.mouseover" end="zoomminus.mouseout"/></use>
    <path d="M-4,0h8" fill="none" stroke="white" stroke-width="1.5" pointer-events="none"/>
  </g>
  <g id="arrowUp" transform="translate(30 24)">
    <use xlink:href="#rim"/>
    <path pointer-events="none" fill="none" stroke="white" stroke-width="1.5" d="M0,-3.0v7 M-2.5,-0.5L0,-3.0L2.5,-0.5"/>
  </g>
  <g id="arrowRight" transform="rotate(90) translate(36 -43)">
    <use xlink:href="#rim"/>
    <path pointer-events="none" fill="none" stroke="white" stroke-width="1.5" d="M0,-3.0v7 M-2.5,-0.5L0,-3.0L2.5,-0.5"/>
  </g>
  <g id="arrowDown" transform="rotate(180) translate(-30 -48)">
    <use xlink:href="#rim"/>
    <path pointer-events="none" fill="none" stroke="white" stroke-width="1.5" d="M0,-3.0v7 M-2.5,-0.5L0,-3.0L2.5,-0.5"/>
  </g>
  <g id="arrowLeft" transform="rotate(270) translate(-36 17)">
    <use xlink:href="#rim"/>
    <path pointer-events="none" fill="none" stroke="white" stroke-width="1.5" d="M0,-3.0v7 M-2.5,-0.5L0,-3.0L2.5,-0.5"/>
  </g>
  <g id="resetDef">
    <use xlink:href="#rim2" fill="#404040"><set attributeName="fill" to="#808080" begin="reset.mouseover" end="reset.mouseout"/></use>
  </g>
</defs>
<script type="application/ecmascript">
var viewWidth = 690;
var viewHeight = 526;
var sectionId = 'dynsection-1';
</script>
<script type="application/ecmascript" xlink:href="../../svg.min.js"/>
<svg id="graph" class="graph">
<g id="viewport">
<title>mimic++/reporting/DefaultReporter.hpp</title>
<!-- Node1 -->
<g id="Node000001" class="node">
<title>Node1</title>
<g id="a_Node000001"><a xlink:title=" ">
<polygon fill="#999999" stroke="#666666" points="337.25,-517.5 208.75,-517.5 208.75,-487 337.25,-487 337.25,-517.5"/>
<text text-anchor="start" x="216.75" y="-504" font-family="Helvetica,sans-Serif" font-size="10.00">mimic++/reporting/Default</text>
<text text-anchor="middle" x="273" y="-492.75" font-family="Helvetica,sans-Serif" font-size="10.00">Reporter.hpp</text>
</a>
</g>
</g>
<!-- Node2 -->
<g id="Node000002" class="node">
<title>Node2</title>
<g id="a_Node000002"><a xlink:href="../../d7/deb/_reporting_8hpp.html" target="_top" xlink:title=" ">
<polygon fill="white" stroke="#666666" points="286.25,-384.5 169.75,-384.5 169.75,-365.25 286.25,-365.25 286.25,-384.5"/>
<text text-anchor="middle" x="228" y="-371" font-family="Helvetica,sans-Serif" font-size="10.00">mimic++/Reporting.hpp</text>
</a>
</g>
</g>
<!-- Node1&#45;&gt;Node2 -->
<g id="edge1_Node000001_Node000002" class="edge">
<title>Node1&#45;&gt;Node2</title>
<g id="a_edge1_Node000001_Node000002"><a xlink:title=" ">
<path fill="none" stroke="#63b8ff" d="M258.95,-476.86C254.7,-468.81 250.29,-459.68 247,-451 238.22,-427.86 232.25,-399.17 229.58,-384.87"/>
<polygon fill="#63b8ff" stroke="#63b8ff" points="255.74,-478.29 263.61,-485.38 261.88,-474.93 255.74,-478.29"/>
</a>
</g>
</g>
<!-- Node4 -->
<g id="Node000004" class="node">
<title>Node4</title>
<g id="a_Node000004"><a xlink:href="../../de/dd1/_global_reporter_8hpp.html" target="_top" xlink:title=" ">
<polygon fill="white" stroke="#666666" points="381.75,-451 256.25,-451 256.25,-420.5 381.75,-420.5 381.75,-451"/>
<text text-anchor="start" x="264.25" y="-437.5" font-family="Helvetica,sans-Serif" font-size="10.00">mimic++/reporting/Global</text>
<text text-anchor="middle" x="319" y="-426.25" font-family="Helvetica,sans-Serif" font-size="10.00">Reporter.hpp</text>
</a>
</g>
</g>
<!-- Node1&#45;&gt;Node4 -->
<g id="edge3_Node000001_Node000004" class="edge">
<title>Node1&#45;&gt;Node4</title>
<g id="a_edge3_Node000001_Node000004"><a xlink:title=" ">
<path fill="none" stroke="#63b8ff" d="M290.09,-477.29C296.31,-468.57 303.14,-458.99 308.6,-451.33"/>
<polygon fill="#63b8ff" stroke="#63b8ff" points="287.27,-475.21 284.32,-485.38 292.97,-479.27 287.27,-475.21"/>
</a>
</g>
</g>
<!-- Node3 -->
<g id="Node000003" class="node">
<title>Node3</title>
<g id="a_Node000003"><a xlink:href="../../d0/db9/mimic_09_09_8hpp.html" target="_top" xlink:title=" ">
<polygon fill="white" stroke="#666666" points="413.75,-19.25 300.25,-19.25 300.25,0 413.75,0 413.75,-19.25"/>
<text text-anchor="middle" x="357" y="-5.75" font-family="Helvetica,sans-Serif" font-size="10.00">mimic++/mimic++.hpp</text>
</a>
</g>
</g>
<!-- Node2&#45;&gt;Node3 -->
<g id="edge2_Node000002_Node000003" class="edge">
<title>Node2&#45;&gt;Node3</title>
<g id="a_edge2_Node000002_Node000003"><a xlink:title=" ">
<path fill="none" stroke="#63b8ff" d="M158.33,-365.17C91.28,-352.44 0,-321.67 0,-248.5 0,-248.5 0,-248.5 0,-119.12 0,-86.09 10.49,-73.53 38,-55.25 79.8,-27.47 219.82,-16.71 299.76,-12.76"/>
<polygon fill="#63b8ff" stroke="#63b8ff" points="157.33,-368.55 167.79,-366.87 158.57,-361.66 157.33,-368.55"/>
</a>
</g>
</g>
<!-- Node4&#45;&gt;Node2 -->
<g id="edge4_Node000004_Node000002" class="edge">
<title>Node4&#45;&gt;Node2</title>
<g id="a_edge4_Node000004_Node000002"><a xlink:title=" ">
<path fill="none" stroke="#63b8ff" d="M287.27,-414.22C271.83,-404.23 254.05,-392.73 242.03,-384.95"/>
<polygon fill="#63b8ff" stroke="#63b8ff" points="284.94,-416.88 295.23,-419.37 288.74,-411 284.94,-416.88"/>
</a>
</g>
</g>
<!-- Node5 -->
<g id="Node000005" class="node">
<title>Node5</title>
<g id="a_Node000005"><a xlink:href="../../d8/de4/_sequence_8hpp.html" target="_top" xlink:title=" ">
<polygon fill="white" stroke="#666666" points="606.38,-384.5 487.62,-384.5 487.62,-365.25 606.38,-365.25 606.38,-384.5"/>
<text text-anchor="middle" x="547" y="-371" font-family="Helvetica,sans-Serif" font-size="10.00">mimic++/Sequence.hpp</text>
</a>
</g>
</g>
<!-- Node4&#45;&gt;Node5 -->
<g id="edge5_Node000004_Node000005" class="edge">
<title>Node4&#45;&gt;Node5</title>
<g id="a_edge5_Node000004_Node000005"><a xlink:title=" ">
<path fill="none" stroke="#63b8ff" d="M386.96,-417.2C427.96,-406.61 478.52,-393.56 511.7,-384.99"/>
<polygon fill="#63b8ff" stroke="#63b8ff" points="386.22,-413.78 377.41,-419.67 387.97,-420.56 386.22,-413.78"/>
</a>
</g>
</g>
<!-- Node7 -->
<g id="Node000007" class="node">
<title>Node7</title>
<g id="a_Node000007"><a xlink:href="../../db/d5d/_registry_8hpp.html" target="_top" xlink:title=" ">
<polygon fill="white" stroke="#666666" points="372.38,-329.25 265.62,-329.25 265.62,-298.75 372.38,-298.75 372.38,-329.25"/>
<text text-anchor="start" x="273.62" y="-315.75" font-family="Helvetica,sans-Serif" font-size="10.00">mimic++/expectation</text>
<text text-anchor="middle" x="319" y="-304.5" font-family="Helvetica,sans-Serif" font-size="10.00">/Registry.hpp</text>
</a>
</g>
</g>
<!-- Node4&#45;&gt;Node7 -->
<g id="edge27_Node000004_Node000007" class="edge">
<title>Node4&#45;&gt;Node7</title>
<g id="a_edge27_Node000004_Node000007"><a xlink:title=" ">
<path fill="none" stroke="#63b8ff" d="M319,-408.83C319,-384.52 319,-349.06 319,-329.43"/>
<polygon fill="#63b8ff" stroke="#63b8ff" points="315.5,-408.55 319,-418.55 322.5,-408.55 315.5,-408.55"/>
</a>
</g>
</g>
<!-- Node5&#45;&gt;Node3 -->
<g id="edge23_Node000005_Node000003" class="edge">
<title>Node5&#45;&gt;Node3</title>
<g id="a_edge23_Node000005_Node000003"><a xlink:title=" ">
<path fill="none" stroke="#63b8ff" d="M580.92,-360.08C620.91,-341.29 682,-303.58 682,-248.5 682,-248.5 682,-248.5 682,-119.12 682,-63.28 507.19,-30.99 413.98,-17.74"/>
<polygon fill="#63b8ff" stroke="#63b8ff" points="579.57,-356.84 571.9,-364.14 582.45,-363.23 579.57,-356.84"/>
</a>
</g>
</g>
<!-- Node6 -->
<g id="Node000006" class="node">
<title>Node6</title>
<g id="a_Node000006"><a xlink:href="../../db/d83/_scoped_sequence_8hpp.html" target="_top" xlink:title=" ">
<polygon fill="white" stroke="#666666" points="615.88,-129.75 464.12,-129.75 464.12,-110.5 615.88,-110.5 615.88,-129.75"/>
<text text-anchor="middle" x="540" y="-116.25" font-family="Helvetica,sans-Serif" font-size="10.00">mimic++/ScopedSequence.hpp</text>
</a>
</g>
</g>
<!-- Node5&#45;&gt;Node6 -->
<g id="edge6_Node000005_Node000006" class="edge">
<title>Node5&#45;&gt;Node6</title>
<g id="a_edge6_Node000005_Node000006"><a xlink:title=" ">
<path fill="none" stroke="#63b8ff" d="M564.99,-357.34C590.65,-331.64 633.11,-280.08 618,-232.25 604.3,-188.87 566.92,-147.74 549.36,-130.12"/>
<polygon fill="#63b8ff" stroke="#63b8ff" points="562.88,-354.51 558.12,-363.97 567.75,-359.54 562.88,-354.51"/>
</a>
</g>
</g>
<!-- Node5&#45;&gt;Node7 -->
<g id="edge8_Node000005_Node000007" class="edge">
<title>Node5&#45;&gt;Node7</title>
<g id="a_edge8_Node000005_Node000007"><a xlink:title=" ">
<path fill="none" stroke="#63b8ff" d="M500.9,-361.97C463.86,-352.41 411.79,-338.96 372.84,-328.9"/>
<polygon fill="#63b8ff" stroke="#63b8ff" points="499.85,-365.31 510.41,-364.43 501.6,-358.54 499.85,-365.31"/>
</a>
</g>
</g>
<!-- Node13 -->
<g id="Node000013" class="node">
<title>Node13</title>
<g id="a_Node000013"><a xlink:href="../../db/d70/_control_policies_8hpp.html" target="_top" xlink:title=" ">
<polygon fill="white" stroke="#666666" points="609,-262.75 485,-262.75 485,-232.25 609,-232.25 609,-262.75"/>
<text text-anchor="start" x="493" y="-249.25" font-family="Helvetica,sans-Serif" font-size="10.00">mimic++/policies/Control</text>
<text text-anchor="middle" x="547" y="-238" font-family="Helvetica,sans-Serif" font-size="10.00">Policies.hpp</text>
</a>
</g>
</g>
<!-- Node5&#45;&gt;Node13 -->
<g id="edge24_Node000005_Node000013" class="edge">
<title>Node5&#45;&gt;Node13</title>
<g id="a_edge24_Node000005_Node000013"><a xlink:title=" ">
<path fill="none" stroke="#63b8ff" d="M547,-353.69C547,-328.32 547,-285.42 547,-263.05"/>
<polygon fill="#63b8ff" stroke="#63b8ff" points="543.5,-353.34 547,-363.34 550.5,-353.34 543.5,-353.34"/>
</a>
</g>
</g>
<!-- Node6&#45;&gt;Node3 -->
<g id="edge7_Node000006_Node000003" class="edge">
<title>Node6&#45;&gt;Node3</title>
<g id="a_edge7_Node000006_Node000003"><a xlink:title=" ">
<path fill="none" stroke="#63b8ff" d="M519.89,-103.35C502.07,-89.75 475.07,-70.02 450,-55.25 426.39,-41.34 397.78,-28.12 378.58,-19.73"/>
<polygon fill="#63b8ff" stroke="#63b8ff" points="517.52,-105.94 527.57,-109.28 521.8,-100.4 517.52,-105.94"/>
</a>
</g>
</g>
<!-- Node7&#45;&gt;Node3 -->
<g id="edge22_Node000007_Node000003" class="edge">
<title>Node7&#45;&gt;Node3</title>
<g id="a_edge22_Node000007_Node000003"><a xlink:title=" ">
<path fill="none" stroke="#63b8ff" d="M253.79,-310.37C170.78,-303.12 38,-276.72 38,-182 38,-182 38,-182 38,-119.12 38,-89.51 34.63,-74.66 57,-55.25 92.35,-24.58 223.24,-14.99 299.96,-11.99"/>
<polygon fill="#63b8ff" stroke="#63b8ff" points="253.4,-313.85 263.64,-311.15 253.95,-306.87 253.4,-313.85"/>
</a>
</g>
</g>
<!-- Node8 -->
<g id="Node000008" class="node">
<title>Node8</title>
<g id="a_Node000008"><a xlink:href="../../d5/dc5/_mock_8hpp.html" target="_top" xlink:title=" ">
<polygon fill="white" stroke="#666666" points="323.62,-129.75 224.38,-129.75 224.38,-110.5 323.62,-110.5 323.62,-129.75"/>
<text text-anchor="middle" x="274" y="-116.25" font-family="Helvetica,sans-Serif" font-size="10.00">mimic++/Mock.hpp</text>
</a>
</g>
</g>
<!-- Node7&#45;&gt;Node8 -->
<g id="edge9_Node000007_Node000008" class="edge">
<title>Node7&#45;&gt;Node8</title>
<g id="a_edge9_Node000007_Node000008"><a xlink:title=" ">
<path fill="none" stroke="#63b8ff" d="M312.95,-287.2C302.74,-243.67 282.58,-157.7 276.07,-129.97"/>
<polygon fill="#63b8ff" stroke="#63b8ff" points="309.51,-287.85 315.2,-296.79 316.32,-286.25 309.51,-287.85"/>
</a>
</g>
</g>
<!-- Node11 -->
<g id="Node000011" class="node">
<title>Node11</title>
<g id="a_Node000011"><a xlink:href="../../d6/d15/_builder_8hpp.html" target="_top" xlink:title=" ">
<polygon fill="white" stroke="#666666" points="408.38,-196.25 301.62,-196.25 301.62,-165.75 408.38,-165.75 408.38,-196.25"/>
<text text-anchor="start" x="309.62" y="-182.75" font-family="Helvetica,sans-Serif" font-size="10.00">mimic++/expectation</text>
<text text-anchor="middle" x="355" y="-171.5" font-family="Helvetica,sans-Serif" font-size="10.00">/Builder.hpp</text>
</a>
</g>
</g>
<!-- Node7&#45;&gt;Node11 -->
<g id="edge15_Node000007_Node000011" class="edge">
<title>Node7&#45;&gt;Node11</title>
<g id="a_edge15_Node000007_Node000011"><a xlink:title=" ">
<path fill="none" stroke="#63b8ff" d="M324.42,-287.19C327.92,-271.26 332.79,-250.46 338,-232.25 341.5,-220.03 346.16,-206.38 349.72,-196.4"/>
<polygon fill="#63b8ff" stroke="#63b8ff" points="321.03,-286.31 322.34,-296.82 327.87,-287.79 321.03,-286.31"/>
</a>
</g>
</g>
<!-- Node12 -->
<g id="Node000012" class="node">
<title>Node12</title>
<g id="a_Node000012"><a xlink:href="../../d4/d1e/_owner_8hpp.html" target="_top" xlink:title=" ">
<polygon fill="white" stroke="#666666" points="453.38,-262.75 346.62,-262.75 346.62,-232.25 453.38,-232.25 453.38,-262.75"/>
<text text-anchor="start" x="354.62" y="-249.25" font-family="Helvetica,sans-Serif" font-size="10.00">mimic++/expectation</text>
<text text-anchor="middle" x="400" y="-238" font-family="Helvetica,sans-Serif" font-size="10.00">/Owner.hpp</text>
</a>
</g>
</g>
<!-- Node7&#45;&gt;Node12 -->
<g id="edge19_Node000007_Node000012" class="edge">
<title>Node7&#45;&gt;Node12</title>
<g id="a_edge19_Node000007_Node000012"><a xlink:title=" ">
<path fill="none" stroke="#63b8ff" d="M346.29,-291.27C357.95,-281.98 371.25,-271.4 381.69,-263.08"/>
<polygon fill="#63b8ff" stroke="#63b8ff" points="344.21,-288.45 338.56,-297.42 348.57,-293.93 344.21,-288.45"/>
</a>
</g>
</g>
<!-- Node8&#45;&gt;Node3 -->
<g id="edge14_Node000008_Node000003" class="edge">
<title>Node8&#45;&gt;Node3</title>
<g id="a_edge14_Node000008_Node000003"><a xlink:title=" ">
<path fill="none" stroke="#63b8ff" d="M260.05,-101.05C251.49,-87.6 243.79,-69.23 253,-55.25 265.06,-36.96 286.34,-26.14 306.52,-19.74"/>
<polygon fill="#63b8ff" stroke="#63b8ff" points="257.01,-102.81 265.62,-108.98 262.73,-98.78 257.01,-102.81"/>
</a>
</g>
</g>
<!-- Node9 -->
<g id="Node000009" class="node">
<title>Node9</title>
<g id="a_Node000009"><a xlink:href="../../d6/dc3/_facade_8hpp.html" target="_top" xlink:title=" ">
<polygon fill="white" stroke="#666666" points="369.75,-74.5 262.25,-74.5 262.25,-55.25 369.75,-55.25 369.75,-74.5"/>
<text text-anchor="middle" x="316" y="-61" font-family="Helvetica,sans-Serif" font-size="10.00">mimic++/Facade.hpp</text>
</a>
</g>
</g>
<!-- Node8&#45;&gt;Node9 -->
<g id="edge10_Node000008_Node000009" class="edge">
<title>Node8&#45;&gt;Node9</title>
<g id="a_edge10_Node000008_Node000009"><a xlink:title=" ">
<path fill="none" stroke="#63b8ff" d="M287.92,-101.47C294.96,-92.56 303.19,-82.12 308.91,-74.86"/>
<polygon fill="#63b8ff" stroke="#63b8ff" points="285.32,-99.12 281.87,-109.14 290.81,-103.46 285.32,-99.12"/>
</a>
</g>
</g>
<!-- Node10 -->
<g id="Node000010" class="node">
<title>Node10</title>
<g id="a_Node000010"><a xlink:href="../../d5/d92/_object_watcher_8hpp.html" target="_top" xlink:title=" ">
<polygon fill="white" stroke="#666666" points="205.88,-74.5 66.12,-74.5 66.12,-55.25 205.88,-55.25 205.88,-74.5"/>
<text text-anchor="middle" x="136" y="-61" font-family="Helvetica,sans-Serif" font-size="10.00">mimic++/ObjectWatcher.hpp</text>
</a>
</g>
</g>
<!-- Node8&#45;&gt;Node10 -->
<g id="edge12_Node000008_Node000010" class="edge">
<title>Node8&#45;&gt;Node10</title>
<g id="a_edge12_Node000008_Node000010"><a xlink:title=" ">
<path fill="none" stroke="#63b8ff" d="M240.1,-106.04C215.08,-96.39 181.67,-83.5 159.52,-74.95"/>
<polygon fill="#63b8ff" stroke="#63b8ff" points="238.59,-109.21 249.18,-109.55 241.11,-102.68 238.59,-109.21"/>
</a>
</g>
</g>
<!-- Node9&#45;&gt;Node3 -->
<g id="edge11_Node000009_Node000003" class="edge">
<title>Node9&#45;&gt;Node3</title>
<g id="a_edge11_Node000009_Node000003"><a xlink:title=" ">
<path fill="none" stroke="#63b8ff" d="M329.59,-46.22C336.46,-37.31 344.49,-26.87 350.08,-19.61"/>
<polygon fill="#63b8ff" stroke="#63b8ff" points="327.02,-43.82 323.69,-53.88 332.57,-48.09 327.02,-43.82"/>
</a>
</g>
</g>
<!-- Node10&#45;&gt;Node3 -->
<g id="edge13_Node000010_Node000003" class="edge">
<title>Node10&#45;&gt;Node3</title>
<g id="a_edge13_Node000010_Node000003"><a xlink:title=" ">
<path fill="none" stroke="#63b8ff" d="M184.72,-52.14C225.31,-42.36 282.28,-28.63 319.42,-19.68"/>
<polygon fill="#63b8ff" stroke="#63b8ff" points="184.11,-48.68 175.21,-54.43 185.75,-55.49 184.11,-48.68"/>
</a>
</g>
</g>
<!-- Node11&#45;&gt;Node3 -->
<g id="edge18_Node000011_Node000003" class="edge">
<title>Node11&#45;&gt;Node3</title>
<g id="a_edge18_Node000011_Node000003"><a xlink:title=" ">
<path fill="none" stroke="#63b8ff" d="M366.05,-154.82C375.7,-129.54 386.99,-89.52 379,-55.25 375.94,-42.13 368.44,-28.43 363.05,-19.73"/>
<polygon fill="#63b8ff" stroke="#63b8ff" points="362.88,-153.34 362.38,-163.92 369.37,-155.96 362.88,-153.34"/>
</a>
</g>
</g>
<!-- Node11&#45;&gt;Node6 -->
<g id="edge17_Node000011_Node000006" class="edge">
<title>Node11&#45;&gt;Node6</title>
<g id="a_edge17_Node000011_Node000006"><a xlink:title=" ">
<path fill="none" stroke="#63b8ff" d="M412.07,-161.84C444.98,-151.36 484.95,-138.64 511.36,-130.24"/>
<polygon fill="#63b8ff" stroke="#63b8ff" points="411.12,-158.47 402.65,-164.84 413.24,-165.14 411.12,-158.47"/>
</a>
</g>
</g>
<!-- Node11&#45;&gt;Node8 -->
<g id="edge16_Node000011_Node000008" class="edge">
<title>Node11&#45;&gt;Node8</title>
<g id="a_edge16_Node000011_Node000008"><a xlink:title=" ">
<path fill="none" stroke="#63b8ff" d="M325.97,-158.9C312.42,-149.05 296.99,-137.83 286.49,-130.2"/>
<polygon fill="#63b8ff" stroke="#63b8ff" points="323.61,-161.51 333.75,-164.56 327.72,-155.85 323.61,-161.51"/>
</a>
</g>
</g>
<!-- Node12&#45;&gt;Node3 -->
<g id="edge21_Node000012_Node000003" class="edge">
<title>Node12&#45;&gt;Node3</title>
<g id="a_edge21_Node000012_Node000003"><a xlink:title=" ">
<path fill="none" stroke="#63b8ff" d="M410.35,-221.19C413.08,-213.33 415.63,-204.55 417,-196.25 419.2,-182.87 418.39,-179.23 417,-165.75 411.86,-115.85 415.76,-100.45 394,-55.25 387.28,-41.29 375.25,-27.97 366.74,-19.58"/>
<polygon fill="#63b8ff" stroke="#63b8ff" points="407.11,-219.86 406.89,-230.46 413.67,-222.31 407.11,-219.86"/>
</a>
</g>
</g>
<!-- Node12&#45;&gt;Node11 -->
<g id="edge20_Node000012_Node000011" class="edge">
<title>Node12&#45;&gt;Node11</title>
<g id="a_edge20_Node000012_Node000011"><a xlink:title=" ">
<path fill="none" stroke="#63b8ff" d="M383.28,-222.54C377.2,-213.82 370.51,-204.24 365.17,-196.58"/>
<polygon fill="#63b8ff" stroke="#63b8ff" points="380.33,-224.42 388.92,-230.62 386.07,-220.42 380.33,-224.42"/>
</a>
</g>
</g>
<!-- Node13&#45;&gt;Node3 -->
<g id="edge26_Node000013_Node000003" class="edge">
<title>Node13&#45;&gt;Node3</title>
<g id="a_edge26_Node000013_Node000003"><a xlink:title=" ">
<path fill="none" stroke="#63b8ff" d="M574.87,-224.98C606.89,-197.58 651.77,-149.16 625,-110.5 577.65,-42.12 477.53,-20.47 413.97,-13.67"/>
<polygon fill="#63b8ff" stroke="#63b8ff" points="572.88,-222.08 567.41,-231.15 577.35,-227.47 572.88,-222.08"/>
</a>
</g>
</g>
<!-- Node13&#45;&gt;Node11 -->
<g id="edge25_Node000013_Node000011" class="edge">
<title>Node13&#45;&gt;Node11</title>
<g id="a_edge25_Node000013_Node000011"><a xlink:title=" ">
<path fill="none" stroke="#63b8ff" d="M492.8,-228.29C463.05,-218.3 426.65,-206.07 398.73,-196.69"/>
<polygon fill="#63b8ff" stroke="#63b8ff" points="491.4,-231.52 502,-231.38 493.63,-224.88 491.4,-231.52"/>
</a>
</g>
</g>
</g>
</svg>

<g id="navigator" transform="translate(0 0)" fill="#404254">
  <rect fill="#f2f5e9" fill-opacity="0.5" stroke="#606060" stroke-width=".5" x="0" y="0" width="60" height="60"/>
  <use id="zoomplus" xlink:href="#zoomPlus" x="17" y="9" onmousedown="handleZoom(evt,'in')"/>
  <use id="zoomminus" xlink:href="#zoomMin" x="42" y="9" onmousedown="handleZoom(evt,'out')"/>
  <use id="reset" xlink:href="#resetDef" x="30" y="36" onmousedown="handleReset()"/>
   <use id="arrowup" xlink:href="#arrowUp" x="0" y="0" onmousedown="handlePan(0,-1)"/>
  <use id="arrowright" xlink:href="#arrowRight" x="0" y="0" onmousedown="handlePan(1,0)"/>
  <use id="arrowdown" xlink:href="#arrowDown" x="0" y="0" onmousedown="handlePan(0,1)"/>
  <use id="arrowleft" xlink:href="#arrowLeft" x="0" y="0" onmousedown="handlePan(-1,0)"/>
</g>
<svg viewBox="0 0 15 15" width="100%" height="30px" preserveAspectRatio="xMaxYMin meet">
 <g id="arrow_out" transform="scale(0.3 0.3)">
  <a xlink:href="_default_reporter_8hpp__dep__incl_org.svg" target="_base">
   <rect id="button" ry="5" rx="5" y="6" x="6" height="38" width="38"
        fill="#f2f5e9" fill-opacity="0.5" stroke="#606060" stroke-width="1.0"/>
   <path id="arrow"
     d="M 11.500037,31.436501 C 11.940474,20.09759 22.043105,11.32322 32.158766,21.979434 L 37.068811,17.246167 C 37.068811,17.246167 37.088388,32 37.088388,32 L 22.160133,31.978069 C 22.160133,31.978069 26.997745,27.140456 26.997745,27.140456 C 18.528582,18.264221 13.291696,25.230495 11.500037,31.436501 z"
     style="fill:#404040;"/>
  </a>
 </g>
</svg>

<style type='text/css'>
<![CDATA[
[data-mouse-over-selected='false'] { opacity: 0.7; }
[data-mouse-over-selected='true']  { opacity: 1.0; }
]]>
</style>
<script type="application/ecmascript"><![CDATA[
document.addEventListener('DOMContentLoaded', (event) => {
  highlightEdges();
  highlightAdjacentNodes();
});
]]></script>
</svg>
