<?xml version="1.0" encoding="UTF-8" standalone="no"?>
<!DOCTYPE svg PUBLIC "-//W3C//DTD SVG 1.1//EN"
 "http://www.w3.org/Graphics/SVG/1.1/DTD/svg11.dtd">
<!-- Generated by graphviz version 12.2.1 (20241206.2353)
 -->
<!-- Title: mimicpp::printing::type::parsing::token::RegularType Pages: 1 -->
<!--zoomable 127 -->

<svg id="main" version="1.1" xmlns="http://www.w3.org/2000/svg" xmlns:xlink="http://www.w3.org/1999/xlink" xml:space="preserve" onload="init(evt)">

<style type="text/css"><![CDATA[
.node, .edge {opacity: 0.7;}
.node.selected, .edge.selected {opacity: 1;}
.edge:hover path { stroke: red; }
.edge:hover polygon { stroke: red; fill: red; }
]]></style>

<defs>
  <circle id="rim" cx="0" cy="0" r="7"/>
  <circle id="rim2" cx="0" cy="0" r="3.5"/>
  <g id="zoomPlus">
    <use xlink:href="#rim" fill="#404040"><set attributeName="fill" to="#808080" begin="zoomplus.mouseover" end="zoomplus.mouseout"/></use>
    <path d="M-4,0h8M0,-4v8" fill="none" stroke="white" stroke-width="1.5" pointer-events="none"/>
  </g>
  <g id="zoomMin">
    <use xlink:href="#rim" fill="#404040"><set attributeName="fill" to="#808080" begin="zoomminus.mouseover" end="zoomminus.mouseout"/></use>
    <path d="M-4,0h8" fill="none" stroke="white" stroke-width="1.5" pointer-events="none"/>
  </g>
  <g id="arrowUp" transform="translate(30 24)">
    <use xlink:href="#rim"/>
    <path pointer-events="none" fill="none" stroke="white" stroke-width="1.5" d="M0,-3.0v7 M-2.5,-0.5L0,-3.0L2.5,-0.5"/>
  </g>
  <g id="arrowRight" transform="rotate(90) translate(36 -43)">
    <use xlink:href="#rim"/>
    <path pointer-events="none" fill="none" stroke="white" stroke-width="1.5" d="M0,-3.0v7 M-2.5,-0.5L0,-3.0L2.5,-0.5"/>
  </g>
  <g id="arrowDown" transform="rotate(180) translate(-30 -48)">
    <use xlink:href="#rim"/>
    <path pointer-events="none" fill="none" stroke="white" stroke-width="1.5" d="M0,-3.0v7 M-2.5,-0.5L0,-3.0L2.5,-0.5"/>
  </g>
  <g id="arrowLeft" transform="rotate(270) translate(-36 17)">
    <use xlink:href="#rim"/>
    <path pointer-events="none" fill="none" stroke="white" stroke-width="1.5" d="M0,-3.0v7 M-2.5,-0.5L0,-3.0L2.5,-0.5"/>
  </g>
  <g id="resetDef">
    <use xlink:href="#rim2" fill="#404040"><set attributeName="fill" to="#808080" begin="reset.mouseover" end="reset.mouseout"/></use>
  </g>
</defs>
<script type="application/ecmascript">
var viewWidth = 785;
var viewHeight = 127;
var sectionId = 'dynsection-0';
</script>
<script type="application/ecmascript" xlink:href="../../svg.min.js"/>
<svg id="graph" class="graph">
<g id="viewport">
<title>mimicpp::printing::type::parsing::token::RegularType</title>
<!-- Node1 -->
<g id="Node000001" class="node">
<title>Node1</title>
<g id="a_Node000001"><a xlink:title=" ">
<polygon fill="#999999" stroke="#666666" points="776.8,-88.5 678.3,-88.5 678.3,-46.75 776.8,-46.75 776.8,-88.5"/>
<text text-anchor="start" x="686.3" y="-75" font-family="Helvetica,sans-Serif" font-size="10.00">mimicpp::printing::</text>
<text text-anchor="start" x="686.3" y="-63.75" font-family="Helvetica,sans-Serif" font-size="10.00">type::parsing::token</text>
<text text-anchor="middle" x="727.55" y="-52.5" font-family="Helvetica,sans-Serif" font-size="10.00">::RegularType</text>
</a>
</g>
</g>
<!-- Node2 -->
<g id="Node000002" class="node">
<title>Node2</title>
<g id="a_Node000002"><a xlink:href="../../d3/de0/classmimicpp_1_1printing_1_1type_1_1parsing_1_1token_1_1_identifier.html" target="_top" xlink:title=" ">
<polygon fill="white" stroke="#666666" points="604.05,-118.5 505.55,-118.5 505.55,-76.75 604.05,-76.75 604.05,-118.5"/>
<text text-anchor="start" x="513.55" y="-105" font-family="Helvetica,sans-Serif" font-size="10.00">mimicpp::printing::</text>
<text text-anchor="start" x="513.55" y="-93.75" font-family="Helvetica,sans-Serif" font-size="10.00">type::parsing::token</text>
<text text-anchor="middle" x="554.8" y="-82.5" font-family="Helvetica,sans-Serif" font-size="10.00">::Identifier</text>
</a>
</g>
</g>
<!-- Node2&#45;&gt;Node1 -->
<g id="edge1_Node000001_Node000002" class="edge">
<title>Node2&#45;&gt;Node1</title>
<g id="a_edge1_Node000001_Node000002"><a xlink:title=" ">
<path fill="none" stroke="#9a32cd" stroke-dasharray="5,2" d="M615.38,-87.16C635.84,-83.56 658.48,-79.59 677.96,-76.16"/>
<polygon fill="#9a32cd" stroke="#9a32cd" points="615.01,-83.67 605.76,-88.85 616.22,-90.56 615.01,-83.67"/>
</a>
</g>
<text text-anchor="middle" x="641.17" y="-87.06" font-family="Helvetica,sans-Serif" font-size="10.00" fill="grey"> identifier</text>
</g>
<!-- Node3 -->
<g id="Node000003" class="node">
<title>Node3</title>
<g id="a_Node000003"><a xlink:href="../../de/db7/classmimicpp_1_1printing_1_1type_1_1parsing_1_1token_1_1_specs.html" target="_top" xlink:title=" ">
<polygon fill="white" stroke="#666666" points="604.05,-58.5 505.55,-58.5 505.55,-16.75 604.05,-16.75 604.05,-58.5"/>
<text text-anchor="start" x="513.55" y="-45" font-family="Helvetica,sans-Serif" font-size="10.00">mimicpp::printing::</text>
<text text-anchor="start" x="513.55" y="-33.75" font-family="Helvetica,sans-Serif" font-size="10.00">type::parsing::token</text>
<text text-anchor="middle" x="554.8" y="-22.5" font-family="Helvetica,sans-Serif" font-size="10.00">::Specs</text>
</a>
</g>
</g>
<!-- Node3&#45;&gt;Node1 -->
<g id="edge2_Node000001_Node000003" class="edge">
<title>Node3&#45;&gt;Node1</title>
<g id="a_edge2_Node000001_Node000003"><a xlink:title=" ">
<path fill="none" stroke="#9a32cd" stroke-dasharray="5,2" d="M615.38,-48.09C635.84,-51.69 658.48,-55.66 677.96,-59.09"/>
<polygon fill="#9a32cd" stroke="#9a32cd" points="616.22,-44.69 605.76,-46.4 615.01,-51.58 616.22,-44.69"/>
</a>
</g>
<text text-anchor="middle" x="641.17" y="-57.06" font-family="Helvetica,sans-Serif" font-size="10.00" fill="grey"> specs</text>
</g>
<!-- Node4 -->
<g id="Node000004" class="node">
<title>Node4</title>
<g id="a_Node000004"><a xlink:title=" ">
<polygon fill="white" stroke="#666666" points="441.8,-58.5 328.3,-58.5 328.3,-16.75 441.8,-16.75 441.8,-58.5"/>
<text text-anchor="start" x="336.3" y="-45" font-family="Helvetica,sans-Serif" font-size="10.00">std::vector&lt; mimicpp</text>
<text text-anchor="start" x="336.3" y="-33.75" font-family="Helvetica,sans-Serif" font-size="10.00">::printing::type::parsing</text>
<text text-anchor="middle" x="385.05" y="-22.5" font-family="Helvetica,sans-Serif" font-size="10.00">::token::Specs::Layer &gt;</text>
</a>
</g>
</g>
<!-- Node4&#45;&gt;Node3 -->
<g id="edge3_Node000003_Node000004" class="edge">
<title>Node4&#45;&gt;Node3</title>
<g id="a_edge3_Node000003_Node000004"><a xlink:title=" ">
<path fill="none" stroke="#9a32cd" stroke-dasharray="5,2" d="M453.17,-37.62C470.57,-37.62 488.97,-37.62 505.21,-37.62"/>
<polygon fill="#9a32cd" stroke="#9a32cd" points="453.42,-34.13 443.42,-37.63 453.42,-41.13 453.42,-34.13"/>
</a>
</g>
<text text-anchor="middle" x="473.67" y="-39.38" font-family="Helvetica,sans-Serif" font-size="10.00" fill="grey"> layers</text>
</g>
<!-- Node5 -->
<g id="Node000005" class="node">
<title>Node5</title>
<g id="a_Node000005"><a xlink:href="../../d4/dcb/structmimicpp_1_1printing_1_1type_1_1parsing_1_1token_1_1_specs_1_1_layer.html" target="_top" xlink:title=" ">
<polygon fill="white" stroke="#666666" points="205.3,-87.5 106.8,-87.5 106.8,-45.75 205.3,-45.75 205.3,-87.5"/>
<text text-anchor="start" x="114.8" y="-74" font-family="Helvetica,sans-Serif" font-size="10.00">mimicpp::printing::</text>
<text text-anchor="start" x="114.8" y="-62.75" font-family="Helvetica,sans-Serif" font-size="10.00">type::parsing::token</text>
<text text-anchor="middle" x="156.05" y="-51.5" font-family="Helvetica,sans-Serif" font-size="10.00">::Specs::Layer</text>
</a>
</g>
</g>
<!-- Node5&#45;&gt;Node4 -->
<g id="edge4_Node000004_Node000005" class="edge">
<title>Node5&#45;&gt;Node4</title>
<g id="a_edge4_Node000004_Node000005"><a xlink:title=" ">
<path fill="none" stroke="#9a32cd" stroke-dasharray="5,2" d="M217.04,-58.96C251.36,-54.58 294.16,-49.11 327.83,-44.81"/>
<polygon fill="#9a32cd" stroke="#9a32cd" points="216.72,-55.47 207.25,-60.21 217.61,-62.42 216.72,-55.47"/>
</a>
</g>
<text text-anchor="middle" x="266.8" y="-59.81" font-family="Helvetica,sans-Serif" font-size="10.00" fill="grey"> elements</text>
</g>
<!-- Node6 -->
<g id="Node000006" class="node">
<title>Node6</title>
<g id="a_Node000006"><a xlink:title=" ">
<polygon fill="white" stroke="#666666" points="197.8,-19.25 114.3,-19.25 114.3,0 197.8,0 197.8,-19.25"/>
<text text-anchor="middle" x="156.05" y="-5.75" font-family="Helvetica,sans-Serif" font-size="10.00">std::vector&lt; T &gt;</text>
</a>
</g>
</g>
<!-- Node6&#45;&gt;Node4 -->
<g id="edge5_Node000004_Node000006" class="edge">
<title>Node6&#45;&gt;Node4</title>
<g id="a_edge5_Node000004_Node000006"><a xlink:title=" ">
<path fill="none" stroke="orange" stroke-dasharray="5,2" d="M209.46,-5.69C239.26,-4.54 277.13,-4.91 310.3,-10.88 317.4,-12.15 324.73,-14.05 331.88,-16.25"/>
<polygon fill="orange" stroke="orange" points="209.39,-2.19 199.57,-6.15 209.72,-9.18 209.39,-2.19"/>
</a>
</g>
<text text-anchor="start" x="223.3" y="-35.12" font-family="Helvetica,sans-Serif" font-size="10.00" fill="grey"> &lt; mimicpp::printing</text>
<text text-anchor="start" x="223.3" y="-23.88" font-family="Helvetica,sans-Serif" font-size="10.00" fill="grey">::type::parsing::token</text>
<text text-anchor="middle" x="266.8" y="-12.62" font-family="Helvetica,sans-Serif" font-size="10.00" fill="grey">::Specs::Layer &gt;</text>
</g>
<!-- Node7 -->
<g id="Node000007" class="node">
<title>Node7</title>
<g id="a_Node000007"><a xlink:title=" ">
<polygon fill="white" stroke="#666666" points="28.8,-19.25 0,-19.25 0,0 28.8,0 28.8,-19.25"/>
<text text-anchor="middle" x="14.4" y="-5.75" font-family="Helvetica,sans-Serif" font-size="10.00">T</text>
</a>
</g>
</g>
<!-- Node7&#45;&gt;Node6 -->
<g id="edge6_Node000006_Node000007" class="edge">
<title>Node7&#45;&gt;Node6</title>
<g id="a_edge6_Node000006_Node000007"><a xlink:title=" ">
<path fill="none" stroke="#9a32cd" stroke-dasharray="5,2" d="M40.49,-9.62C60.9,-9.62 90.12,-9.62 113.94,-9.62"/>
<polygon fill="#9a32cd" stroke="#9a32cd" points="40.56,-6.13 30.56,-9.63 40.56,-13.13 40.56,-6.13"/>
</a>
</g>
<text text-anchor="middle" x="67.8" y="-11.38" font-family="Helvetica,sans-Serif" font-size="10.00" fill="grey"> elements</text>
</g>
</g>
</svg>

<g id="navigator" transform="translate(0 0)" fill="#404254">
  <rect fill="#f2f5e9" fill-opacity="0.5" stroke="#606060" stroke-width=".5" x="0" y="0" width="60" height="60"/>
  <use id="zoomplus" xlink:href="#zoomPlus" x="17" y="9" onmousedown="handleZoom(evt,'in')"/>
  <use id="zoomminus" xlink:href="#zoomMin" x="42" y="9" onmousedown="handleZoom(evt,'out')"/>
  <use id="reset" xlink:href="#resetDef" x="30" y="36" onmousedown="handleReset()"/>
   <use id="arrowup" xlink:href="#arrowUp" x="0" y="0" onmousedown="handlePan(0,-1)"/>
  <use id="arrowright" xlink:href="#arrowRight" x="0" y="0" onmousedown="handlePan(1,0)"/>
  <use id="arrowdown" xlink:href="#arrowDown" x="0" y="0" onmousedown="handlePan(0,1)"/>
  <use id="arrowleft" xlink:href="#arrowLeft" x="0" y="0" onmousedown="handlePan(-1,0)"/>
</g>
<svg viewBox="0 0 15 15" width="100%" height="30px" preserveAspectRatio="xMaxYMin meet">
 <g id="arrow_out" transform="scale(0.3 0.3)">
  <a xlink:href="classmimicpp_1_1printing_1_1type_1_1parsing_1_1token_1_1_regular_type__coll__graph_org.svg" target="_base">
   <rect id="button" ry="5" rx="5" y="6" x="6" height="38" width="38"
        fill="#f2f5e9" fill-opacity="0.5" stroke="#606060" stroke-width="1.0"/>
   <path id="arrow"
     d="M 11.500037,31.436501 C 11.940474,20.09759 22.043105,11.32322 32.158766,21.979434 L 37.068811,17.246167 C 37.068811,17.246167 37.088388,32 37.088388,32 L 22.160133,31.978069 C 22.160133,31.978069 26.997745,27.140456 26.997745,27.140456 C 18.528582,18.264221 13.291696,25.230495 11.500037,31.436501 z"
     style="fill:#404040;"/>
  </a>
 </g>
</svg>

<style type='text/css'>
<![CDATA[
[data-mouse-over-selected='false'] { opacity: 0.7; }
[data-mouse-over-selected='true']  { opacity: 1.0; }
]]>
</style>
<script type="application/ecmascript"><![CDATA[
document.addEventListener('DOMContentLoaded', (event) => {
  highlightEdges();
  highlightAdjacentNodes();
});
]]></script>
</svg>
