<?xml version="1.0" encoding="UTF-8" standalone="no"?>
<!DOCTYPE svg PUBLIC "-//W3C//DTD SVG 1.1//EN"
 "http://www.w3.org/Graphics/SVG/1.1/DTD/svg11.dtd">
<!-- Generated by graphviz version 12.2.1 (20241206.2353)
 -->
<!-- Title: mimicpp::reporting::state_applicable Pages: 1 -->
<svg width="239pt" height="272pt"
 viewBox="0.00 0.00 239.17 271.75" xmlns="http://www.w3.org/2000/svg" xmlns:xlink="http://www.w3.org/1999/xlink">

<svg id="main" version="1.1" xmlns="http://www.w3.org/2000/svg" xmlns:xlink="http://www.w3.org/1999/xlink" xml:space="preserve">

<style type="text/css"><![CDATA[
.node, .edge {opacity: 0.7;}
.node.selected, .edge.selected {opacity: 1;}
.edge:hover path { stroke: red; }
.edge:hover polygon { stroke: red; fill: red; }
]]></style>
<script type="application/ecmascript" xlink:href="../../svg.min.js"/>
<svg id="graph" class="graph">
<g id="graph0" class="graph" transform="scale(1 1) rotate(0) translate(4 267.75)">
<title>mimicpp::reporting::state_applicable</title>
<!-- Node1 -->
<g id="Node000001" class="node">
<title>Node1</title>
<g id="a_Node000001"><a xlink:title="Denotes a applicable expectation state.">
<polygon fill="#999999" stroke="#666666" points="131.25,-30.5 36.5,-30.5 36.5,0 131.25,0 131.25,-30.5"/>
<text text-anchor="start" x="44.5" y="-17" font-family="Helvetica,sans-Serif" font-size="10.00">mimicpp::reporting</text>
<text text-anchor="middle" x="83.88" y="-5.75" font-family="Helvetica,sans-Serif" font-size="10.00">::state_applicable</text>
</a>
</g>
</g>
<!-- Node2 -->
<g id="Node000002" class="node">
<title>Node2</title>
<g id="a_Node000002"><a xlink:title=" ">
<polygon fill="white" stroke="#666666" points="136.88,-108.25 30.88,-108.25 30.88,-77.75 136.88,-77.75 136.88,-108.25"/>
<text text-anchor="start" x="38.88" y="-94.75" font-family="Helvetica,sans-Serif" font-size="10.00">std::vector&lt; mimicpp</text>
<text text-anchor="middle" x="83.88" y="-83.5" font-family="Helvetica,sans-Serif" font-size="10.00">::sequence::rating &gt;</text>
</a>
</g>
</g>
<!-- Node2&#45;&gt;Node1 -->
<g id="edge1_Node000001_Node000002" class="edge">
<title>Node2&#45;&gt;Node1</title>
<g id="a_edge1_Node000001_Node000002"><a xlink:title=" ">
<path fill="none" stroke="#9a32cd" stroke-dasharray="5,2" d="M83.88,-65.97C83.88,-54.21 83.88,-40.76 83.88,-30.81"/>
<polygon fill="#9a32cd" stroke="#9a32cd" points="80.38,-65.88 83.88,-75.88 87.38,-65.88 80.38,-65.88"/>
</a>
</g>
<text text-anchor="middle" x="122.5" y="-50.25" font-family="Helvetica,sans-Serif" font-size="10.00" fill="grey"> sequenceRatings</text>
</g>
<!-- Node3 -->
<g id="Node000003" class="node">
<title>Node3</title>
<g id="a_Node000003"><a xlink:href="../../de/d81/structmimicpp_1_1sequence_1_1rating.html" target="_top" xlink:title=" ">
<polygon fill="white" stroke="#666666" points="103.75,-197.25 0,-197.25 0,-166.75 103.75,-166.75 103.75,-197.25"/>
<text text-anchor="start" x="8" y="-183.75" font-family="Helvetica,sans-Serif" font-size="10.00">mimicpp::sequence::</text>
<text text-anchor="middle" x="51.88" y="-172.5" font-family="Helvetica,sans-Serif" font-size="10.00">rating</text>
</a>
</g>
</g>
<!-- Node3&#45;&gt;Node2 -->
<g id="edge2_Node000002_Node000003" class="edge">
<title>Node3&#45;&gt;Node2</title>
<g id="a_edge2_Node000002_Node000003"><a xlink:title=" ">
<path fill="none" stroke="#9a32cd" stroke-dasharray="5,2" d="M60.97,-156.27C66.62,-140.91 73.7,-121.67 78.48,-108.68"/>
<polygon fill="#9a32cd" stroke="#9a32cd" points="57.85,-154.62 57.68,-165.21 64.42,-157.04 57.85,-154.62"/>
</a>
</g>
<text text-anchor="middle" x="92.68" y="-133.62" font-family="Helvetica,sans-Serif" font-size="10.00" fill="grey"> elements</text>
</g>
<!-- Node4 -->
<g id="Node000004" class="node">
<title>Node4</title>
<g id="a_Node000004"><a xlink:title=" ">
<polygon fill="white" stroke="#666666" points="205.62,-191.62 122.12,-191.62 122.12,-172.38 205.62,-172.38 205.62,-191.62"/>
<text text-anchor="middle" x="163.88" y="-178.12" font-family="Helvetica,sans-Serif" font-size="10.00">std::vector&lt; T &gt;</text>
</a>
</g>
</g>
<!-- Node4&#45;&gt;Node2 -->
<g id="edge3_Node000002_Node000004" class="edge">
<title>Node4&#45;&gt;Node2</title>
<g id="a_edge3_Node000002_Node000004"><a xlink:title=" ">
<path fill="none" stroke="orange" stroke-dasharray="5,2" d="M149.8,-163.23C140.93,-152.3 129.08,-138.15 117.88,-126.25 112.3,-120.33 105.89,-114.11 100.15,-108.73"/>
<polygon fill="orange" stroke="orange" points="147.06,-165.41 156.05,-171.03 152.52,-161.03 147.06,-165.41"/>
</a>
</g>
<text text-anchor="start" x="137.42" y="-139.25" font-family="Helvetica,sans-Serif" font-size="10.00" fill="grey"> &lt; mimicpp::sequence</text>
<text text-anchor="middle" x="184.29" y="-128" font-family="Helvetica,sans-Serif" font-size="10.00" fill="grey">::rating &gt;</text>
</g>
<!-- Node5 -->
<g id="Node000005" class="node">
<title>Node5</title>
<g id="a_Node000005"><a xlink:title=" ">
<polygon fill="white" stroke="#666666" points="178.28,-263.75 149.47,-263.75 149.47,-244.5 178.28,-244.5 178.28,-263.75"/>
<text text-anchor="middle" x="163.88" y="-250.25" font-family="Helvetica,sans-Serif" font-size="10.00">T</text>
</a>
</g>
</g>
<!-- Node5&#45;&gt;Node4 -->
<g id="edge4_Node000004_Node000005" class="edge">
<title>Node5&#45;&gt;Node4</title>
<g id="a_edge4_Node000004_Node000005"><a xlink:title=" ">
<path fill="none" stroke="#9a32cd" stroke-dasharray="5,2" d="M163.88,-232.74C163.88,-219.27 163.88,-202.26 163.88,-192.03"/>
<polygon fill="#9a32cd" stroke="#9a32cd" points="160.38,-232.73 163.88,-242.73 167.38,-232.73 160.38,-232.73"/>
</a>
</g>
<text text-anchor="middle" x="184.88" y="-217" font-family="Helvetica,sans-Serif" font-size="10.00" fill="grey"> elements</text>
</g>
</g>
</svg>
</svg>

<style type='text/css'>
<![CDATA[
[data-mouse-over-selected='false'] { opacity: 0.7; }
[data-mouse-over-selected='true']  { opacity: 1.0; }
]]>
</style>
<script type="application/ecmascript"><![CDATA[
document.addEventListener('DOMContentLoaded', (event) => {
  highlightEdges();
  highlightAdjacentNodes();
});
]]></script>
</svg>
