<?xml version="1.0" encoding="UTF-8" standalone="no"?>
<!DOCTYPE svg PUBLIC "-//W3C//DTD SVG 1.1//EN"
 "http://www.w3.org/Graphics/SVG/1.1/DTD/svg11.dtd">
<!-- Generated by graphviz version 12.2.1 (20241206.2353)
 -->
<!-- Title: mimic++/printing/state/CommonTypes.hpp Pages: 1 -->
<!--zoomable 326 -->

<svg id="main" version="1.1" xmlns="http://www.w3.org/2000/svg" xmlns:xlink="http://www.w3.org/1999/xlink" xml:space="preserve" onload="init(evt)">

<style type="text/css"><![CDATA[
.node, .edge {opacity: 0.7;}
.node.selected, .edge.selected {opacity: 1;}
.edge:hover path { stroke: red; }
.edge:hover polygon { stroke: red; fill: red; }
]]></style>

<defs>
  <circle id="rim" cx="0" cy="0" r="7"/>
  <circle id="rim2" cx="0" cy="0" r="3.5"/>
  <g id="zoomPlus">
    <use xlink:href="#rim" fill="#404040"><set attributeName="fill" to="#808080" begin="zoomplus.mouseover" end="zoomplus.mouseout"/></use>
    <path d="M-4,0h8M0,-4v8" fill="none" stroke="white" stroke-width="1.5" pointer-events="none"/>
  </g>
  <g id="zoomMin">
    <use xlink:href="#rim" fill="#404040"><set attributeName="fill" to="#808080" begin="zoomminus.mouseover" end="zoomminus.mouseout"/></use>
    <path d="M-4,0h8" fill="none" stroke="white" stroke-width="1.5" pointer-events="none"/>
  </g>
  <g id="arrowUp" transform="translate(30 24)">
    <use xlink:href="#rim"/>
    <path pointer-events="none" fill="none" stroke="white" stroke-width="1.5" d="M0,-3.0v7 M-2.5,-0.5L0,-3.0L2.5,-0.5"/>
  </g>
  <g id="arrowRight" transform="rotate(90) translate(36 -43)">
    <use xlink:href="#rim"/>
    <path pointer-events="none" fill="none" stroke="white" stroke-width="1.5" d="M0,-3.0v7 M-2.5,-0.5L0,-3.0L2.5,-0.5"/>
  </g>
  <g id="arrowDown" transform="rotate(180) translate(-30 -48)">
    <use xlink:href="#rim"/>
    <path pointer-events="none" fill="none" stroke="white" stroke-width="1.5" d="M0,-3.0v7 M-2.5,-0.5L0,-3.0L2.5,-0.5"/>
  </g>
  <g id="arrowLeft" transform="rotate(270) translate(-36 17)">
    <use xlink:href="#rim"/>
    <path pointer-events="none" fill="none" stroke="white" stroke-width="1.5" d="M0,-3.0v7 M-2.5,-0.5L0,-3.0L2.5,-0.5"/>
  </g>
  <g id="resetDef">
    <use xlink:href="#rim2" fill="#404040"><set attributeName="fill" to="#808080" begin="reset.mouseover" end="reset.mouseout"/></use>
  </g>
</defs>
<script type="application/ecmascript">
var viewWidth = 1678;
var viewHeight = 326;
var sectionId = 'dynsection-0';
</script>
<script type="application/ecmascript" xlink:href="../../svg.min.js"/>
<svg id="graph" class="graph">
<g id="viewport">
<title>mimic++/printing/state/CommonTypes.hpp</title>
<!-- Node1 -->
<g id="Node000001" class="node">
<title>Node1</title>
<g id="a_Node000001"><a xlink:title=" ">
<polygon fill="#999999" stroke="#666666" points="1019.88,-318 906.38,-318 906.38,-287.5 1019.88,-287.5 1019.88,-318"/>
<text text-anchor="start" x="914.38" y="-304.5" font-family="Helvetica,sans-Serif" font-size="10.00">mimic++/printing/state</text>
<text text-anchor="middle" x="963.12" y="-293.25" font-family="Helvetica,sans-Serif" font-size="10.00">/CommonTypes.hpp</text>
</a>
</g>
</g>
<!-- Node2 -->
<g id="Node000002" class="node">
<title>Node2</title>
<g id="a_Node000002"><a xlink:href="../../df/dde/_fwd_8hpp.html" target="_top" xlink:title=" ">
<polygon fill="white" stroke="#666666" points="798.12,-129.75 704.12,-129.75 704.12,-110.5 798.12,-110.5 798.12,-129.75"/>
<text text-anchor="middle" x="751.12" y="-116.25" font-family="Helvetica,sans-Serif" font-size="10.00">mimic++/Fwd.hpp</text>
</a>
</g>
</g>
<!-- Node1&#45;&gt;Node2 -->
<g id="edge1_Node000001_Node000002" class="edge">
<title>Node1&#45;&gt;Node2</title>
<g id="a_edge1_Node000001_Node000002"><a xlink:title=" ">
<path fill="none" stroke="#63b8ff" d="M905.9,-289.74C852.42,-275.1 775.78,-244.56 741.12,-185 733.27,-171.49 736.91,-153.79 741.87,-140.44"/>
<polygon fill="#63b8ff" stroke="#63b8ff" points="745.01,-142.02 745.72,-131.45 738.57,-139.26 745.01,-142.02"/>
</a>
</g>
</g>
<!-- Node8 -->
<g id="Node000008" class="node">
<title>Node8</title>
<g id="a_Node000008"><a xlink:href="../../d9/dc5/_string_8hpp.html" target="_top" xlink:title=" ">
<polygon fill="white" stroke="#666666" points="656.5,-245.88 555.75,-245.88 555.75,-226.62 656.5,-226.62 656.5,-245.88"/>
<text text-anchor="middle" x="606.12" y="-232.38" font-family="Helvetica,sans-Serif" font-size="10.00">mimic++/String.hpp</text>
</a>
</g>
</g>
<!-- Node1&#45;&gt;Node8 -->
<g id="edge7_Node000001_Node000008" class="edge">
<title>Node1&#45;&gt;Node8</title>
<g id="a_edge7_Node000001_Node000008"><a xlink:title=" ">
<path fill="none" stroke="#63b8ff" d="M905.98,-292.8C846.82,-283.34 751.78,-267.58 670.12,-251.5 665.79,-250.65 661.3,-249.72 656.79,-248.77"/>
<polygon fill="#63b8ff" stroke="#63b8ff" points="657.66,-245.38 647.14,-246.69 656.18,-252.22 657.66,-245.38"/>
</a>
</g>
</g>
<!-- Node12 -->
<g id="Node000012" class="node">
<title>Node12</title>
<g id="a_Node000012"><a xlink:title=" ">
<polygon fill="#e0e0e0" stroke="#999999" points="116,-129.75 66.25,-129.75 66.25,-110.5 116,-110.5 116,-129.75"/>
<text text-anchor="middle" x="91.12" y="-116.25" font-family="Helvetica,sans-Serif" font-size="10.00">optional</text>
</a>
</g>
</g>
<!-- Node1&#45;&gt;Node12 -->
<g id="edge65_Node000001_Node000012" class="edge">
<title>Node1&#45;&gt;Node12</title>
<g id="a_edge65_Node000001_Node000012"><a xlink:title=" ">
<path fill="none" stroke="#63b8ff" d="M906.12,-299.96C745.39,-294.61 296.22,-277.5 235.12,-251.5 177.11,-226.81 127.03,-168.65 104.24,-139.07"/>
<polygon fill="#63b8ff" stroke="#63b8ff" points="107.06,-137 98.26,-131.11 101.47,-141.21 107.06,-137"/>
</a>
</g>
</g>
<!-- Node14 -->
<g id="Node000014" class="node">
<title>Node14</title>
<g id="a_Node000014"><a xlink:title=" ">
<polygon fill="#e0e0e0" stroke="#999999" points="218.25,-129.75 134,-129.75 134,-110.5 218.25,-110.5 218.25,-129.75"/>
<text text-anchor="middle" x="176.12" y="-116.25" font-family="Helvetica,sans-Serif" font-size="10.00">source_location</text>
</a>
</g>
</g>
<!-- Node1&#45;&gt;Node14 -->
<g id="edge66_Node000001_Node000014" class="edge">
<title>Node1&#45;&gt;Node14</title>
<g id="a_edge66_Node000001_Node000014"><a xlink:title=" ">
<path fill="none" stroke="#63b8ff" d="M906.15,-300.23C751.52,-295.72 331.91,-280.89 277.12,-251.5 230.8,-226.65 198.96,-170.37 184.67,-140.53"/>
<polygon fill="#63b8ff" stroke="#63b8ff" points="187.9,-139.19 180.54,-131.56 181.54,-142.11 187.9,-139.19"/>
</a>
</g>
</g>
<!-- Node16 -->
<g id="Node000016" class="node">
<title>Node16</title>
<g id="a_Node000016"><a xlink:title=" ">
<polygon fill="#e0e0e0" stroke="#999999" points="1217.38,-129.75 1178.88,-129.75 1178.88,-110.5 1217.38,-110.5 1217.38,-129.75"/>
<text text-anchor="middle" x="1198.12" y="-116.25" font-family="Helvetica,sans-Serif" font-size="10.00">utility</text>
</a>
</g>
</g>
<!-- Node1&#45;&gt;Node16 -->
<g id="edge68_Node000001_Node000016" class="edge">
<title>Node1&#45;&gt;Node16</title>
<g id="a_edge68_Node000001_Node000016"><a xlink:title=" ">
<path fill="none" stroke="#63b8ff" d="M1020.21,-296.72C1056.37,-290.92 1102.18,-278.42 1134.12,-251.5 1168.9,-222.21 1186.44,-169.5 1193.77,-140.89"/>
<polygon fill="#63b8ff" stroke="#63b8ff" points="1197.12,-141.94 1196.03,-131.4 1190.31,-140.32 1197.12,-141.94"/>
</a>
</g>
</g>
<!-- Node17 -->
<g id="Node000017" class="node">
<title>Node17</title>
<g id="a_Node000017"><a xlink:title=" ">
<polygon fill="#e0e0e0" stroke="#999999" points="292,-129.75 236.25,-129.75 236.25,-110.5 292,-110.5 292,-129.75"/>
<text text-anchor="middle" x="264.12" y="-116.25" font-family="Helvetica,sans-Serif" font-size="10.00">concepts</text>
</a>
</g>
</g>
<!-- Node1&#45;&gt;Node17 -->
<g id="edge61_Node000001_Node000017" class="edge">
<title>Node1&#45;&gt;Node17</title>
<g id="a_edge61_Node000001_Node000017"><a xlink:title=" ">
<path fill="none" stroke="#63b8ff" d="M906.12,-300.69C809,-297.91 605.68,-287.85 438.12,-251.5 349.46,-232.27 297.8,-258.87 245.12,-185 235.49,-171.49 242.62,-153.07 250.75,-139.48"/>
<polygon fill="#63b8ff" stroke="#63b8ff" points="253.46,-141.72 256.06,-131.45 247.62,-137.85 253.46,-141.72"/>
</a>
</g>
</g>
<!-- Node19 -->
<g id="Node000019" class="node">
<title>Node19</title>
<g id="a_Node000019"><a xlink:title=" ">
<polygon fill="#e0e0e0" stroke="#999999" points="974.62,-129.75 913.62,-129.75 913.62,-110.5 974.62,-110.5 974.62,-129.75"/>
<text text-anchor="middle" x="944.12" y="-116.25" font-family="Helvetica,sans-Serif" font-size="10.00">type_traits</text>
</a>
</g>
</g>
<!-- Node1&#45;&gt;Node19 -->
<g id="edge67_Node000001_Node000019" class="edge">
<title>Node1&#45;&gt;Node19</title>
<g id="a_edge67_Node000001_Node000019"><a xlink:title=" ">
<path fill="none" stroke="#63b8ff" d="M1013.54,-287C1080.24,-264.96 1184.57,-220.14 1141.12,-165.75 1122.1,-141.93 1038.06,-129.88 986.09,-124.6"/>
<polygon fill="#63b8ff" stroke="#63b8ff" points="986.68,-121.15 976.39,-123.67 986.01,-128.11 986.68,-121.15"/>
</a>
</g>
</g>
<!-- Node20 -->
<g id="Node000020" class="node">
<title>Node20</title>
<g id="a_Node000020"><a xlink:href="../../d8/d32/_type_traits_8hpp.html" target="_top" xlink:title=" ">
<polygon fill="white" stroke="#666666" points="385.62,-185 264.62,-185 264.62,-165.75 385.62,-165.75 385.62,-185"/>
<text text-anchor="middle" x="325.12" y="-171.5" font-family="Helvetica,sans-Serif" font-size="10.00">mimic++/TypeTraits.hpp</text>
</a>
</g>
</g>
<!-- Node1&#45;&gt;Node20 -->
<g id="edge25_Node000001_Node000020" class="edge">
<title>Node1&#45;&gt;Node20</title>
<g id="a_edge25_Node000001_Node000020"><a xlink:title=" ">
<path fill="none" stroke="#63b8ff" d="M905.97,-298.58C825.19,-293.26 673.4,-280.17 547.12,-251.5 478.1,-235.83 400.38,-206.77 357.65,-189.75"/>
<polygon fill="#63b8ff" stroke="#63b8ff" points="359.05,-186.54 348.47,-186.06 356.44,-193.04 359.05,-186.54"/>
</a>
</g>
</g>
<!-- Node21 -->
<g id="Node000021" class="node">
<title>Node21</title>
<g id="a_Node000021"><a xlink:title=" ">
<polygon fill="#e0e0e0" stroke="#999999" points="48.25,-129.75 0,-129.75 0,-110.5 48.25,-110.5 48.25,-129.75"/>
<text text-anchor="middle" x="24.12" y="-116.25" font-family="Helvetica,sans-Serif" font-size="10.00">cstddef</text>
</a>
</g>
</g>
<!-- Node1&#45;&gt;Node21 -->
<g id="edge62_Node000001_Node000021" class="edge">
<title>Node1&#45;&gt;Node21</title>
<g id="a_edge62_Node000001_Node000021"><a xlink:title=" ">
<path fill="none" stroke="#63b8ff" d="M905.99,-300.1C737.27,-294.95 248.84,-277.92 182.12,-251.5 119.77,-226.81 63.54,-167.74 38.25,-138.35"/>
<polygon fill="#63b8ff" stroke="#63b8ff" points="41.25,-136.48 32.13,-131.09 35.9,-140.99 41.25,-136.48"/>
</a>
</g>
</g>
<!-- Node22 -->
<g id="Node000022" class="node">
<title>Node22</title>
<g id="a_Node000022"><a xlink:href="../../d5/dec/_format_8hpp.html" target="_top" xlink:title=" ">
<polygon fill="white" stroke="#666666" points="1442.38,-185 1301.88,-185 1301.88,-165.75 1442.38,-165.75 1442.38,-185"/>
<text text-anchor="middle" x="1372.12" y="-171.5" font-family="Helvetica,sans-Serif" font-size="10.00">mimic++/printing/Format.hpp</text>
</a>
</g>
</g>
<!-- Node1&#45;&gt;Node22 -->
<g id="edge32_Node000001_Node000022" class="edge">
<title>Node1&#45;&gt;Node22</title>
<g id="a_edge32_Node000001_Node000022"><a xlink:title=" ">
<path fill="none" stroke="#63b8ff" d="M1020.27,-297.04C1072.09,-291.2 1149.68,-278.49 1212.12,-251.5 1233.63,-242.2 1234.46,-232.04 1255.12,-221 1279.51,-207.97 1308.55,-196.87 1331.59,-189"/>
<polygon fill="#63b8ff" stroke="#63b8ff" points="1332.56,-192.37 1340.94,-185.88 1330.35,-185.73 1332.56,-192.37"/>
</a>
</g>
</g>
<!-- Node25 -->
<g id="Node000025" class="node">
<title>Node25</title>
<g id="a_Node000025"><a xlink:href="../../de/d52/printing_2_fwd_8hpp.html" target="_top" xlink:title=" ">
<polygon fill="white" stroke="#666666" points="878.38,-185 749.88,-185 749.88,-165.75 878.38,-165.75 878.38,-185"/>
<text text-anchor="middle" x="814.12" y="-171.5" font-family="Helvetica,sans-Serif" font-size="10.00">mimic++/printing/Fwd.hpp</text>
</a>
</g>
</g>
<!-- Node1&#45;&gt;Node25 -->
<g id="edge40_Node000001_Node000025" class="edge">
<title>Node1&#45;&gt;Node25</title>
<g id="a_edge40_Node000001_Node000025"><a xlink:title=" ">
<path fill="none" stroke="#63b8ff" d="M942.85,-287.01C929.62,-277.22 912.08,-263.92 897.12,-251.5 873.91,-232.22 848.33,-208.69 831.79,-193.16"/>
<polygon fill="#63b8ff" stroke="#63b8ff" points="834.38,-190.79 824.7,-186.48 829.57,-195.89 834.38,-190.79"/>
</a>
</g>
</g>
<!-- Node26 -->
<g id="Node000026" class="node">
<title>Node26</title>
<g id="a_Node000026"><a xlink:href="../../de/d4b/_path_printer_8hpp.html" target="_top" xlink:title=" ">
<polygon fill="white" stroke="#666666" points="1422.38,-245.88 1263.88,-245.88 1263.88,-226.62 1422.38,-226.62 1422.38,-245.88"/>
<text text-anchor="middle" x="1343.12" y="-232.38" font-family="Helvetica,sans-Serif" font-size="10.00">mimic++/printing/PathPrinter.hpp</text>
</a>
</g>
</g>
<!-- Node1&#45;&gt;Node26 -->
<g id="edge41_Node000001_Node000026" class="edge">
<title>Node1&#45;&gt;Node26</title>
<g id="a_edge41_Node000001_Node000026"><a xlink:title=" ">
<path fill="none" stroke="#63b8ff" d="M1020.01,-292.09C1089.19,-280.35 1205.69,-260.58 1278.28,-248.26"/>
<polygon fill="#63b8ff" stroke="#63b8ff" points="1278.77,-251.72 1288.04,-246.6 1277.6,-244.82 1278.77,-251.72"/>
</a>
</g>
</g>
<!-- Node27 -->
<g id="Node000027" class="node">
<title>Node27</title>
<g id="a_Node000027"><a xlink:title=" ">
<polygon fill="#e0e0e0" stroke="#999999" points="1670,-185 1614.25,-185 1614.25,-165.75 1670,-165.75 1670,-185"/>
<text text-anchor="middle" x="1642.12" y="-171.5" font-family="Helvetica,sans-Serif" font-size="10.00">algorithm</text>
</a>
</g>
</g>
<!-- Node1&#45;&gt;Node27 -->
<g id="edge59_Node000001_Node000027" class="edge">
<title>Node1&#45;&gt;Node27</title>
<g id="a_edge59_Node000001_Node000027"><a xlink:title=" ">
<path fill="none" stroke="#63b8ff" d="M1020.12,-299.62C1128.06,-294.94 1358.05,-281.68 1431.12,-251.5 1451.14,-243.23 1449.76,-230.7 1469.12,-221 1492.36,-209.36 1559.27,-193.85 1602.74,-184.51"/>
<polygon fill="#63b8ff" stroke="#63b8ff" points="1603.26,-187.98 1612.31,-182.48 1601.8,-181.13 1603.26,-187.98"/>
</a>
</g>
</g>
<!-- Node29 -->
<g id="Node000029" class="node">
<title>Node29</title>
<g id="a_Node000029"><a xlink:href="../../da/d76/_print_8hpp.html" target="_top" xlink:title=" ">
<polygon fill="white" stroke="#666666" points="1019.88,-251.5 906.38,-251.5 906.38,-221 1019.88,-221 1019.88,-251.5"/>
<text text-anchor="start" x="914.38" y="-238" font-family="Helvetica,sans-Serif" font-size="10.00">mimic++/printing/state</text>
<text text-anchor="middle" x="963.12" y="-226.75" font-family="Helvetica,sans-Serif" font-size="10.00">/Print.hpp</text>
</a>
</g>
</g>
<!-- Node1&#45;&gt;Node29 -->
<g id="edge50_Node000001_Node000029" class="edge">
<title>Node1&#45;&gt;Node29</title>
<g id="a_edge50_Node000001_Node000029"><a xlink:title=" ">
<path fill="none" stroke="#63b8ff" d="M963.12,-287.11C963.12,-280.02 963.12,-271.29 963.12,-263.13"/>
<polygon fill="#63b8ff" stroke="#63b8ff" points="966.63,-263.34 963.13,-253.34 959.63,-263.34 966.63,-263.34"/>
</a>
</g>
</g>
<!-- Node30 -->
<g id="Node000030" class="node">
<title>Node30</title>
<g id="a_Node000030"><a xlink:title=" ">
<polygon fill="#e0e0e0" stroke="#999999" points="1132.12,-185 1086.12,-185 1086.12,-165.75 1132.12,-165.75 1132.12,-185"/>
<text text-anchor="middle" x="1109.12" y="-171.5" font-family="Helvetica,sans-Serif" font-size="10.00">iterator</text>
</a>
</g>
</g>
<!-- Node1&#45;&gt;Node30 -->
<g id="edge63_Node000001_Node000030" class="edge">
<title>Node1&#45;&gt;Node30</title>
<g id="a_edge63_Node000001_Node000030"><a xlink:title=" ">
<path fill="none" stroke="#63b8ff" d="M983.47,-287.1C996.74,-277.35 1014.28,-264.06 1029.12,-251.5 1051.7,-232.39 1076.32,-208.83 1092.2,-193.24"/>
<polygon fill="#63b8ff" stroke="#63b8ff" points="1094.32,-196.07 1098.97,-186.55 1089.4,-191.09 1094.32,-196.07"/>
</a>
</g>
</g>
<!-- Node31 -->
<g id="Node000031" class="node">
<title>Node31</title>
<g id="a_Node000031"><a xlink:title=" ">
<polygon fill="#e0e0e0" stroke="#999999" points="1506.53,-245.88 1477.72,-245.88 1477.72,-226.62 1506.53,-226.62 1506.53,-245.88"/>
<text text-anchor="middle" x="1492.12" y="-232.38" font-family="Helvetica,sans-Serif" font-size="10.00">bit</text>
</a>
</g>
</g>
<!-- Node1&#45;&gt;Node31 -->
<g id="edge60_Node000001_Node000031" class="edge">
<title>Node1&#45;&gt;Node31</title>
<g id="a_edge60_Node000001_Node000031"><a xlink:title=" ">
<path fill="none" stroke="#63b8ff" d="M1020.11,-298.69C1133.19,-292.18 1382.13,-275.55 1464.12,-251.5 1465.11,-251.21 1466.1,-250.89 1467.09,-250.54"/>
<polygon fill="#63b8ff" stroke="#63b8ff" points="1468.29,-253.83 1476.05,-246.62 1465.49,-247.42 1468.29,-253.83"/>
</a>
</g>
</g>
<!-- Node32 -->
<g id="Node000032" class="node">
<title>Node32</title>
<g id="a_Node000032"><a xlink:title=" ">
<polygon fill="#e0e0e0" stroke="#999999" points="1575.38,-245.88 1524.88,-245.88 1524.88,-226.62 1575.38,-226.62 1575.38,-245.88"/>
<text text-anchor="middle" x="1550.12" y="-232.38" font-family="Helvetica,sans-Serif" font-size="10.00">memory</text>
</a>
</g>
</g>
<!-- Node1&#45;&gt;Node32 -->
<g id="edge64_Node000001_Node000032" class="edge">
<title>Node1&#45;&gt;Node32</title>
<g id="a_edge64_Node000001_Node000032"><a xlink:title=" ">
<path fill="none" stroke="#63b8ff" d="M1020.05,-302.07C1121.18,-301.42 1338.17,-294.56 1515.12,-251.5 1516.76,-251.1 1518.42,-250.64 1520.08,-250.13"/>
<polygon fill="#63b8ff" stroke="#63b8ff" points="1521.18,-253.46 1529.42,-246.8 1518.82,-246.87 1521.18,-253.46"/>
</a>
</g>
</g>
<!-- Node3 -->
<g id="Node000003" class="node">
<title>Node3</title>
<g id="a_Node000003"><a xlink:href="../../d8/dd2/_config_8hpp.html" target="_top" xlink:title=" ">
<polygon fill="white" stroke="#666666" points="1126.25,-74.5 1024,-74.5 1024,-55.25 1126.25,-55.25 1126.25,-74.5"/>
<text text-anchor="middle" x="1075.12" y="-61" font-family="Helvetica,sans-Serif" font-size="10.00">mimic++/Config.hpp</text>
</a>
</g>
</g>
<!-- Node2&#45;&gt;Node3 -->
<g id="edge2_Node000002_Node000003" class="edge">
<title>Node2&#45;&gt;Node3</title>
<g id="a_edge2_Node000002_Node000003"><a xlink:title=" ">
<path fill="none" stroke="#63b8ff" d="M798.58,-111.32C855.09,-102.04 949.67,-86.49 1012.23,-76.21"/>
<polygon fill="#63b8ff" stroke="#63b8ff" points="1012.73,-79.68 1022.03,-74.6 1011.59,-72.77 1012.73,-79.68"/>
</a>
</g>
</g>
<!-- Node6 -->
<g id="Node000006" class="node">
<title>Node6</title>
<g id="a_Node000006"><a xlink:title=" ">
<polygon fill="#e0e0e0" stroke="#999999" points="436.12,-74.5 396.12,-74.5 396.12,-55.25 436.12,-55.25 436.12,-74.5"/>
<text text-anchor="middle" x="416.12" y="-61" font-family="Helvetica,sans-Serif" font-size="10.00">string</text>
</a>
</g>
</g>
<!-- Node2&#45;&gt;Node6 -->
<g id="edge5_Node000002_Node000006" class="edge">
<title>Node2&#45;&gt;Node6</title>
<g id="a_edge5_Node000002_Node000006"><a xlink:title=" ">
<path fill="none" stroke="#63b8ff" d="M703.77,-111.8C700.85,-111.36 697.95,-110.92 695.12,-110.5 585.41,-94.06 556.76,-96.97 448.12,-74.5 447.89,-74.45 447.65,-74.4 447.4,-74.35"/>
<polygon fill="#63b8ff" stroke="#63b8ff" points="448.36,-70.98 437.82,-72.07 446.74,-77.79 448.36,-70.98"/>
</a>
</g>
</g>
<!-- Node7 -->
<g id="Node000007" class="node">
<title>Node7</title>
<g id="a_Node000007"><a xlink:title=" ">
<polygon fill="#e0e0e0" stroke="#999999" points="522.88,-74.5 457.38,-74.5 457.38,-55.25 522.88,-55.25 522.88,-74.5"/>
<text text-anchor="middle" x="490.12" y="-61" font-family="Helvetica,sans-Serif" font-size="10.00">string_view</text>
</a>
</g>
</g>
<!-- Node2&#45;&gt;Node7 -->
<g id="edge6_Node000002_Node000007" class="edge">
<title>Node2&#45;&gt;Node7</title>
<g id="a_edge6_Node000002_Node000007"><a xlink:title=" ">
<path fill="none" stroke="#63b8ff" d="M706.55,-110.03C658.54,-100.23 582.58,-84.74 534.6,-74.95"/>
<polygon fill="#63b8ff" stroke="#63b8ff" points="535.31,-71.52 524.81,-72.95 533.91,-78.38 535.31,-71.52"/>
</a>
</g>
</g>
<!-- Node4 -->
<g id="Node000004" class="node">
<title>Node4</title>
<g id="a_Node000004"><a xlink:title=" ">
<polygon fill="#e0e0e0" stroke="#999999" points="850.75,-19.25 805.5,-19.25 805.5,0 850.75,0 850.75,-19.25"/>
<text text-anchor="middle" x="828.12" y="-5.75" font-family="Helvetica,sans-Serif" font-size="10.00">cstdint</text>
</a>
</g>
</g>
<!-- Node3&#45;&gt;Node4 -->
<g id="edge3_Node000003_Node000004" class="edge">
<title>Node3&#45;&gt;Node4</title>
<g id="a_edge3_Node000003_Node000004"><a xlink:title=" ">
<path fill="none" stroke="#63b8ff" d="M1032.94,-54.78C984.75,-44.39 906.83,-27.59 862.28,-17.99"/>
<polygon fill="#63b8ff" stroke="#63b8ff" points="863.17,-14.6 852.66,-15.91 861.7,-21.44 863.17,-14.6"/>
</a>
</g>
</g>
<!-- Node5 -->
<g id="Node000005" class="node">
<title>Node5</title>
<g id="a_Node000005"><a xlink:title=" ">
<polygon fill="#e0e0e0" stroke="#999999" points="1098.88,-19.25 1051.38,-19.25 1051.38,0 1098.88,0 1098.88,-19.25"/>
<text text-anchor="middle" x="1075.12" y="-5.75" font-family="Helvetica,sans-Serif" font-size="10.00">version</text>
</a>
</g>
</g>
<!-- Node3&#45;&gt;Node5 -->
<g id="edge4_Node000003_Node000005" class="edge">
<title>Node3&#45;&gt;Node5</title>
<g id="a_edge4_Node000003_Node000005"><a xlink:title=" ">
<path fill="none" stroke="#63b8ff" d="M1075.12,-55.08C1075.12,-48.57 1075.12,-39.42 1075.12,-31.12"/>
<polygon fill="#63b8ff" stroke="#63b8ff" points="1078.63,-31.12 1075.13,-21.12 1071.63,-31.12 1078.63,-31.12"/>
</a>
</g>
</g>
<!-- Node8&#45;&gt;Node2 -->
<g id="edge8_Node000008_Node000002" class="edge">
<title>Node8&#45;&gt;Node2</title>
<g id="a_edge8_Node000008_Node000002"><a xlink:title=" ">
<path fill="none" stroke="#63b8ff" d="M612.83,-226.27C623.7,-212.13 646.38,-184.37 670.12,-165.75 685.52,-153.67 704.62,-142.98 720.4,-135.09"/>
<polygon fill="#63b8ff" stroke="#63b8ff" points="721.88,-138.27 729.35,-130.76 718.82,-131.97 721.88,-138.27"/>
</a>
</g>
</g>
<!-- Node8&#45;&gt;Node6 -->
<g id="edge22_Node000008_Node000006" class="edge">
<title>Node8&#45;&gt;Node6</title>
<g id="a_edge22_Node000008_Node000006"><a xlink:title=" ">
<path fill="none" stroke="#63b8ff" d="M555.35,-229.15C523.97,-222.92 484.9,-210.34 459.12,-185 431.64,-157.98 421.63,-112.1 418.06,-85.86"/>
<polygon fill="#63b8ff" stroke="#63b8ff" points="421.57,-85.77 416.94,-76.23 414.61,-86.57 421.57,-85.77"/>
</a>
</g>
</g>
<!-- Node8&#45;&gt;Node7 -->
<g id="edge23_Node000008_Node000007" class="edge">
<title>Node8&#45;&gt;Node7</title>
<g id="a_edge23_Node000008_Node000007"><a xlink:title=" ">
<path fill="none" stroke="#63b8ff" d="M555.38,-230.45C525.53,-224.72 490.03,-212.21 471.12,-185 450.19,-154.87 466.8,-110.2 479.38,-84.99"/>
<polygon fill="#63b8ff" stroke="#63b8ff" points="482.43,-86.72 484.01,-76.24 476.24,-83.44 482.43,-86.72"/>
</a>
</g>
</g>
<!-- Node9 -->
<g id="Node000009" class="node">
<title>Node9</title>
<g id="a_Node000009"><a xlink:href="../../d4/d2c/_utility_8hpp.html" target="_top" xlink:title=" ">
<polygon fill="white" stroke="#666666" points="580.12,-185 480.12,-185 480.12,-165.75 580.12,-165.75 580.12,-185"/>
<text text-anchor="middle" x="530.12" y="-171.5" font-family="Helvetica,sans-Serif" font-size="10.00">mimic++/Utility.hpp</text>
</a>
</g>
</g>
<!-- Node8&#45;&gt;Node9 -->
<g id="edge9_Node000008_Node000009" class="edge">
<title>Node8&#45;&gt;Node9</title>
<g id="a_edge9_Node000008_Node000009"><a xlink:title=" ">
<path fill="none" stroke="#63b8ff" d="M594.58,-226.31C582.98,-217.32 564.83,-203.26 550.75,-192.35"/>
<polygon fill="#63b8ff" stroke="#63b8ff" points="553.02,-189.69 542.97,-186.33 548.73,-195.22 553.02,-189.69"/>
</a>
</g>
</g>
<!-- Node13 -->
<g id="Node000013" class="node">
<title>Node13</title>
<g id="a_Node000013"><a xlink:title=" ">
<polygon fill="#e0e0e0" stroke="#999999" points="685.75,-129.75 640.5,-129.75 640.5,-110.5 685.75,-110.5 685.75,-129.75"/>
<text text-anchor="middle" x="663.12" y="-116.25" font-family="Helvetica,sans-Serif" font-size="10.00">ranges</text>
</a>
</g>
</g>
<!-- Node8&#45;&gt;Node13 -->
<g id="edge21_Node000008_Node000013" class="edge">
<title>Node8&#45;&gt;Node13</title>
<g id="a_edge21_Node000008_Node000013"><a xlink:title=" ">
<path fill="none" stroke="#63b8ff" d="M608.66,-226.39C612.69,-212.88 621.24,-186.52 632.12,-165.75 636.99,-156.47 643.47,-146.84 649.25,-138.91"/>
<polygon fill="#63b8ff" stroke="#63b8ff" points="651.88,-141.23 655.1,-131.14 646.29,-137.02 651.88,-141.23"/>
</a>
</g>
</g>
<!-- Node8&#45;&gt;Node17 -->
<g id="edge19_Node000008_Node000017" class="edge">
<title>Node8&#45;&gt;Node17</title>
<g id="a_edge19_Node000008_Node000017"><a xlink:title=" ">
<path fill="none" stroke="#63b8ff" d="M555.25,-235.74C467.7,-235.37 294.22,-228.95 256.12,-185 245.72,-172.99 249.34,-154.62 254.62,-140.65"/>
<polygon fill="#63b8ff" stroke="#63b8ff" points="257.78,-142.15 258.56,-131.59 251.36,-139.36 257.78,-142.15"/>
</a>
</g>
</g>
<!-- Node18 -->
<g id="Node000018" class="node">
<title>Node18</title>
<g id="a_Node000018"><a xlink:title=" ">
<polygon fill="#e0e0e0" stroke="#999999" points="1068.12,-185 1010.12,-185 1010.12,-165.75 1068.12,-165.75 1068.12,-185"/>
<text text-anchor="middle" x="1039.12" y="-171.5" font-family="Helvetica,sans-Serif" font-size="10.00">functional</text>
</a>
</g>
</g>
<!-- Node8&#45;&gt;Node18 -->
<g id="edge20_Node000008_Node000018" class="edge">
<title>Node8&#45;&gt;Node18</title>
<g id="a_edge20_Node000008_Node000018"><a xlink:title=" ">
<path fill="none" stroke="#63b8ff" d="M656.64,-228.38C743.5,-216.57 919.44,-192.65 998.75,-181.86"/>
<polygon fill="#63b8ff" stroke="#63b8ff" points="998.79,-185.39 1008.23,-180.58 997.85,-178.46 998.79,-185.39"/>
</a>
</g>
</g>
<!-- Node8&#45;&gt;Node19 -->
<g id="edge24_Node000008_Node000019" class="edge">
<title>Node8&#45;&gt;Node19</title>
<g id="a_edge24_Node000008_Node000019"><a xlink:title=" ">
<path fill="none" stroke="#63b8ff" d="M620.54,-226.23C644.63,-211.53 695,-182.37 741.12,-165.75 795,-146.33 860.1,-133.84 901.79,-127.15"/>
<polygon fill="#63b8ff" stroke="#63b8ff" points="902.33,-130.61 911.67,-125.61 901.25,-123.69 902.33,-130.61"/>
</a>
</g>
</g>
<!-- Node9&#45;&gt;Node2 -->
<g id="edge10_Node000009_Node000002" class="edge">
<title>Node9&#45;&gt;Node2</title>
<g id="a_edge10_Node000009_Node000002"><a xlink:title=" ">
<path fill="none" stroke="#63b8ff" d="M567.87,-165.28C605.05,-156.32 662.03,-142.59 702.57,-132.82"/>
<polygon fill="#63b8ff" stroke="#63b8ff" points="703.17,-136.28 712.07,-130.54 701.53,-129.48 703.17,-136.28"/>
</a>
</g>
</g>
<!-- Node9&#45;&gt;Node7 -->
<g id="edge16_Node000009_Node000007" class="edge">
<title>Node9&#45;&gt;Node7</title>
<g id="a_edge16_Node000009_Node000007"><a xlink:title=" ">
<path fill="none" stroke="#63b8ff" d="M525.67,-165.28C521.38,-156.35 514.88,-142.29 510.12,-129.75 504.57,-115.09 499.31,-98.15 495.59,-85.4"/>
<polygon fill="#63b8ff" stroke="#63b8ff" points="499.05,-84.77 492.94,-76.12 492.32,-86.7 499.05,-84.77"/>
</a>
</g>
</g>
<!-- Node10 -->
<g id="Node000010" class="node">
<title>Node10</title>
<g id="a_Node000010"><a xlink:title=" ">
<polygon fill="#e0e0e0" stroke="#999999" points="555.62,-129.75 518.62,-129.75 518.62,-110.5 555.62,-110.5 555.62,-129.75"/>
<text text-anchor="middle" x="537.12" y="-116.25" font-family="Helvetica,sans-Serif" font-size="10.00">array</text>
</a>
</g>
</g>
<!-- Node9&#45;&gt;Node10 -->
<g id="edge11_Node000009_Node000010" class="edge">
<title>Node9&#45;&gt;Node10</title>
<g id="a_edge11_Node000009_Node000010"><a xlink:title=" ">
<path fill="none" stroke="#63b8ff" d="M531.28,-165.58C532.15,-158.99 533.37,-149.71 534.47,-141.32"/>
<polygon fill="#63b8ff" stroke="#63b8ff" points="537.91,-141.98 535.75,-131.61 530.97,-141.07 537.91,-141.98"/>
</a>
</g>
</g>
<!-- Node11 -->
<g id="Node000011" class="node">
<title>Node11</title>
<g id="a_Node000011"><a xlink:title=" ">
<polygon fill="#e0e0e0" stroke="#999999" points="622.25,-129.75 574,-129.75 574,-110.5 622.25,-110.5 622.25,-129.75"/>
<text text-anchor="middle" x="598.12" y="-116.25" font-family="Helvetica,sans-Serif" font-size="10.00">cassert</text>
</a>
</g>
</g>
<!-- Node9&#45;&gt;Node11 -->
<g id="edge12_Node000009_Node000011" class="edge">
<title>Node9&#45;&gt;Node11</title>
<g id="a_edge12_Node000009_Node000011"><a xlink:title=" ">
<path fill="none" stroke="#63b8ff" d="M541.66,-165.34C551.59,-157.57 566.14,-146.17 577.98,-136.9"/>
<polygon fill="#63b8ff" stroke="#63b8ff" points="579.85,-139.88 585.57,-130.96 575.54,-134.37 579.85,-139.88"/>
</a>
</g>
</g>
<!-- Node9&#45;&gt;Node12 -->
<g id="edge13_Node000009_Node000012" class="edge">
<title>Node9&#45;&gt;Node12</title>
<g id="a_edge13_Node000009_Node000012"><a xlink:title=" ">
<path fill="none" stroke="#63b8ff" d="M479.92,-171.09C405.17,-165.71 260.03,-153.38 127.44,-129.93"/>
<polygon fill="#63b8ff" stroke="#63b8ff" points="128.24,-126.52 117.78,-128.19 127,-133.4 128.24,-126.52"/>
</a>
</g>
</g>
<!-- Node9&#45;&gt;Node13 -->
<g id="edge14_Node000009_Node000013" class="edge">
<title>Node9&#45;&gt;Node13</title>
<g id="a_edge14_Node000009_Node000013"><a xlink:title=" ">
<path fill="none" stroke="#63b8ff" d="M552.69,-165.34C573.9,-156.85 605.9,-144.04 630,-134.39"/>
<polygon fill="#63b8ff" stroke="#63b8ff" points="631.06,-137.73 639.05,-130.77 628.46,-131.23 631.06,-137.73"/>
</a>
</g>
</g>
<!-- Node9&#45;&gt;Node14 -->
<g id="edge15_Node000009_Node000014" class="edge">
<title>Node9&#45;&gt;Node14</title>
<g id="a_edge15_Node000009_Node000014"><a xlink:title=" ">
<path fill="none" stroke="#63b8ff" d="M479.68,-167.28C421.79,-159.07 323.71,-144.92 229.82,-130.15"/>
<polygon fill="#63b8ff" stroke="#63b8ff" points="230.61,-126.73 220.19,-128.63 229.52,-133.65 230.61,-126.73"/>
</a>
</g>
</g>
<!-- Node15 -->
<g id="Node000015" class="node">
<title>Node15</title>
<g id="a_Node000015"><a xlink:title=" ">
<polygon fill="#e0e0e0" stroke="#999999" points="385.62,-129.75 348.62,-129.75 348.62,-110.5 385.62,-110.5 385.62,-129.75"/>
<text text-anchor="middle" x="367.12" y="-116.25" font-family="Helvetica,sans-Serif" font-size="10.00">tuple</text>
</a>
</g>
</g>
<!-- Node9&#45;&gt;Node15 -->
<g id="edge17_Node000009_Node000015" class="edge">
<title>Node9&#45;&gt;Node15</title>
<g id="a_edge17_Node000009_Node000015"><a xlink:title=" ">
<path fill="none" stroke="#63b8ff" d="M502.47,-165.34C473,-155.71 426.51,-140.52 396.42,-130.69"/>
<polygon fill="#63b8ff" stroke="#63b8ff" points="397.79,-127.46 387.19,-127.68 395.61,-134.11 397.79,-127.46"/>
</a>
</g>
</g>
<!-- Node9&#45;&gt;Node16 -->
<g id="edge18_Node000009_Node000016" class="edge">
<title>Node9&#45;&gt;Node16</title>
<g id="a_edge18_Node000009_Node000016"><a xlink:title=" ">
<path fill="none" stroke="#63b8ff" d="M580.61,-170.35C711.88,-159.89 1061.1,-132.05 1167.15,-123.59"/>
<polygon fill="#63b8ff" stroke="#63b8ff" points="1167.38,-127.09 1177.07,-122.8 1166.82,-120.11 1167.38,-127.09"/>
</a>
</g>
</g>
<!-- Node20&#45;&gt;Node2 -->
<g id="edge26_Node000020_Node000002" class="edge">
<title>Node20&#45;&gt;Node2</title>
<g id="a_edge26_Node000020_Node000002"><a xlink:title=" ">
<path fill="none" stroke="#63b8ff" d="M386.09,-167.64C457.13,-159.66 578.35,-145.61 692.42,-130.08"/>
<polygon fill="#63b8ff" stroke="#63b8ff" points="692.85,-133.56 702.28,-128.73 691.9,-126.62 692.85,-133.56"/>
</a>
</g>
</g>
<!-- Node20&#45;&gt;Node4 -->
<g id="edge29_Node000020_Node000004" class="edge">
<title>Node20&#45;&gt;Node4</title>
<g id="a_edge29_Node000020_Node000004"><a xlink:title=" ">
<path fill="none" stroke="#63b8ff" d="M325.86,-165.67C327.22,-152.95 330.88,-128.8 340.12,-110.5 354.66,-81.72 358.58,-70.23 387.12,-55.25 457.71,-18.2 702.92,-11.89 793.85,-10.83"/>
<polygon fill="#63b8ff" stroke="#63b8ff" points="793.66,-14.33 803.62,-10.73 793.59,-7.33 793.66,-14.33"/>
</a>
</g>
</g>
<!-- Node20&#45;&gt;Node15 -->
<g id="edge30_Node000020_Node000015" class="edge">
<title>Node20&#45;&gt;Node15</title>
<g id="a_edge30_Node000020_Node000015"><a xlink:title=" ">
<path fill="none" stroke="#63b8ff" d="M332.06,-165.58C337.74,-158.38 345.96,-147.96 353.02,-139.01"/>
<polygon fill="#63b8ff" stroke="#63b8ff" points="355.66,-141.32 359.1,-131.3 350.16,-136.98 355.66,-141.32"/>
</a>
</g>
</g>
<!-- Node20&#45;&gt;Node17 -->
<g id="edge27_Node000020_Node000017" class="edge">
<title>Node20&#45;&gt;Node17</title>
<g id="a_edge27_Node000020_Node000017"><a xlink:title=" ">
<path fill="none" stroke="#63b8ff" d="M314.78,-165.34C306.05,-157.72 293.34,-146.62 282.83,-137.45"/>
<polygon fill="#63b8ff" stroke="#63b8ff" points="285.3,-134.96 275.46,-131.02 280.69,-140.23 285.3,-134.96"/>
</a>
</g>
</g>
<!-- Node20&#45;&gt;Node19 -->
<g id="edge31_Node000020_Node000019" class="edge">
<title>Node20&#45;&gt;Node19</title>
<g id="a_edge31_Node000020_Node000019"><a xlink:title=" ">
<path fill="none" stroke="#63b8ff" d="M385.89,-169.15C510.96,-158.39 794.46,-134 901.83,-124.76"/>
<polygon fill="#63b8ff" stroke="#63b8ff" points="901.98,-128.26 911.64,-123.92 901.38,-121.29 901.98,-128.26"/>
</a>
</g>
</g>
<!-- Node20&#45;&gt;Node21 -->
<g id="edge28_Node000020_Node000021" class="edge">
<title>Node20&#45;&gt;Node21</title>
<g id="a_edge28_Node000020_Node000021"><a xlink:title=" ">
<path fill="none" stroke="#63b8ff" d="M264.16,-165.83C212.2,-158.19 135.32,-146.02 59.72,-130.15"/>
<polygon fill="#63b8ff" stroke="#63b8ff" points="60.56,-126.75 50.05,-128.09 59.11,-133.6 60.56,-126.75"/>
</a>
</g>
</g>
<!-- Node22&#45;&gt;Node2 -->
<g id="edge34_Node000022_Node000002" class="edge">
<title>Node22&#45;&gt;Node2</title>
<g id="a_edge34_Node000022_Node000002"><a xlink:title=" ">
<path fill="none" stroke="#63b8ff" d="M1301.55,-167.03C1297.01,-166.59 1292.5,-166.16 1288.12,-165.75 1114.3,-149.6 908.55,-133.29 809.78,-125.62"/>
<polygon fill="#63b8ff" stroke="#63b8ff" points="810.31,-122.16 800.07,-124.87 809.77,-129.13 810.31,-122.16"/>
</a>
</g>
</g>
<!-- Node22&#45;&gt;Node3 -->
<g id="edge33_Node000022_Node000003" class="edge">
<title>Node22&#45;&gt;Node3</title>
<g id="a_edge33_Node000022_Node000003"><a xlink:title=" ">
<path fill="none" stroke="#63b8ff" d="M1377.29,-165.31C1384.28,-151.7 1394.46,-125.92 1381.12,-110.5 1350.33,-74.89 1218.12,-67.13 1137.9,-65.77"/>
<polygon fill="#63b8ff" stroke="#63b8ff" points="1138.02,-62.27 1127.97,-65.63 1137.92,-69.27 1138.02,-62.27"/>
</a>
</g>
</g>
<!-- Node22&#45;&gt;Node16 -->
<g id="edge38_Node000022_Node000016" class="edge">
<title>Node22&#45;&gt;Node16</title>
<g id="a_edge38_Node000022_Node000016"><a xlink:title=" ">
<path fill="none" stroke="#63b8ff" d="M1342.61,-165.34C1310.92,-155.64 1260.8,-140.31 1228.71,-130.48"/>
<polygon fill="#63b8ff" stroke="#63b8ff" points="1229.8,-127.16 1219.21,-127.58 1227.75,-133.85 1229.8,-127.16"/>
</a>
</g>
</g>
<!-- Node22&#45;&gt;Node17 -->
<g id="edge35_Node000022_Node000017" class="edge">
<title>Node22&#45;&gt;Node17</title>
<g id="a_edge35_Node000022_Node000017"><a xlink:title=" ">
<path fill="none" stroke="#63b8ff" d="M1301.47,-171.61C1084.25,-163.05 435.16,-137.19 340.12,-129.75 328.21,-128.82 315.28,-127.47 303.52,-126.13"/>
<polygon fill="#63b8ff" stroke="#63b8ff" points="304.08,-122.67 293.74,-124.97 303.25,-129.62 304.08,-122.67"/>
</a>
</g>
</g>
<!-- Node22&#45;&gt;Node19 -->
<g id="edge37_Node000022_Node000019" class="edge">
<title>Node22&#45;&gt;Node19</title>
<g id="a_edge37_Node000022_Node000019"><a xlink:title=" ">
<path fill="none" stroke="#63b8ff" d="M1301.45,-165.58C1211.64,-154.41 1059.5,-135.48 986.14,-126.35"/>
<polygon fill="#63b8ff" stroke="#63b8ff" points="986.93,-122.92 976.57,-125.16 986.06,-129.87 986.93,-122.92"/>
</a>
</g>
</g>
<!-- Node23 -->
<g id="Node000023" class="node">
<title>Node23</title>
<g id="a_Node000023"><a xlink:title=" ">
<polygon fill="#e0e0e0" stroke="#999999" points="1309.75,-129.75 1258.5,-129.75 1258.5,-110.5 1309.75,-110.5 1309.75,-129.75"/>
<text text-anchor="middle" x="1284.12" y="-116.25" font-family="Helvetica,sans-Serif" font-size="10.00">sstream</text>
</a>
</g>
</g>
<!-- Node22&#45;&gt;Node23 -->
<g id="edge36_Node000022_Node000023" class="edge">
<title>Node22&#45;&gt;Node23</title>
<g id="a_edge36_Node000022_Node000023"><a xlink:title=" ">
<path fill="none" stroke="#63b8ff" d="M1357.2,-165.34C1343.92,-157.31 1324.26,-145.41 1308.67,-135.98"/>
<polygon fill="#63b8ff" stroke="#63b8ff" points="1310.79,-133.17 1300.42,-130.99 1307.16,-139.16 1310.79,-133.17"/>
</a>
</g>
</g>
<!-- Node24 -->
<g id="Node000024" class="node">
<title>Node24</title>
<g id="a_Node000024"><a xlink:title=" ">
<polygon fill="#e0e0e0" stroke="#999999" points="1372,-129.75 1328.25,-129.75 1328.25,-110.5 1372,-110.5 1372,-129.75"/>
<text text-anchor="middle" x="1350.12" y="-116.25" font-family="Helvetica,sans-Serif" font-size="10.00">format</text>
</a>
</g>
</g>
<!-- Node22&#45;&gt;Node24 -->
<g id="edge39_Node000022_Node000024" class="edge">
<title>Node22&#45;&gt;Node24</title>
<g id="a_edge39_Node000022_Node000024"><a xlink:title=" ">
<path fill="none" stroke="#63b8ff" d="M1368.49,-165.58C1365.71,-158.84 1361.75,-149.27 1358.23,-140.74"/>
<polygon fill="#63b8ff" stroke="#63b8ff" points="1361.47,-139.41 1354.41,-131.51 1355,-142.09 1361.47,-139.41"/>
</a>
</g>
</g>
<!-- Node26&#45;&gt;Node2 -->
<g id="edge43_Node000026_Node000002" class="edge">
<title>Node26&#45;&gt;Node2</title>
<g id="a_edge43_Node000026_Node000002"><a xlink:title=" ">
<path fill="none" stroke="#63b8ff" d="M1334.9,-226.5C1319.8,-211.09 1285.89,-179.44 1250.12,-165.75 1209.89,-150.35 933.09,-132.06 809.96,-124.58"/>
<polygon fill="#63b8ff" stroke="#63b8ff" points="810.25,-121.09 800.05,-123.98 809.82,-128.07 810.25,-121.09"/>
</a>
</g>
</g>
<!-- Node26&#45;&gt;Node3 -->
<g id="edge42_Node000026_Node000003" class="edge">
<title>Node26&#45;&gt;Node3</title>
<g id="a_edge42_Node000026_Node000003"><a xlink:title=" ">
<path fill="none" stroke="#63b8ff" d="M1393,-226.14C1449.69,-215.29 1535.67,-197.1 1545.12,-185 1550.39,-178.26 1550,-172.78 1545.12,-165.75 1499.22,-99.46 1254.64,-76.33 1137.61,-68.98"/>
<polygon fill="#63b8ff" stroke="#63b8ff" points="1138.06,-65.5 1127.87,-68.39 1137.64,-72.49 1138.06,-65.5"/>
</a>
</g>
</g>
<!-- Node26&#45;&gt;Node13 -->
<g id="edge48_Node000026_Node000013" class="edge">
<title>Node26&#45;&gt;Node13</title>
<g id="a_edge48_Node000026_Node000013"><a xlink:title=" ">
<path fill="none" stroke="#63b8ff" d="M1322.39,-226.16C1286.32,-210.81 1209.38,-180.01 1141.12,-165.75 950.07,-125.84 893.16,-162.36 697.34,-129.78"/>
<polygon fill="#63b8ff" stroke="#63b8ff" points="698.02,-126.34 687.58,-128.11 696.84,-133.24 698.02,-126.34"/>
</a>
</g>
</g>
<!-- Node26&#45;&gt;Node16 -->
<g id="edge49_Node000026_Node000016" class="edge">
<title>Node26&#45;&gt;Node16</title>
<g id="a_edge49_Node000026_Node000016"><a xlink:title=" ">
<path fill="none" stroke="#63b8ff" d="M1408.41,-226.13C1455.87,-218.01 1514.28,-204.39 1529.12,-185 1534.33,-178.21 1534.78,-172.17 1529.12,-165.75 1487.69,-118.65 1311.18,-138.98 1249.12,-129.75 1242.41,-128.75 1235.21,-127.59 1228.41,-126.45"/>
<polygon fill="#63b8ff" stroke="#63b8ff" points="1229.41,-123.07 1218.96,-124.84 1228.23,-129.97 1229.41,-123.07"/>
</a>
</g>
</g>
<!-- Node26&#45;&gt;Node18 -->
<g id="edge47_Node000026_Node000018" class="edge">
<title>Node26&#45;&gt;Node18</title>
<g id="a_edge47_Node000026_Node000018"><a xlink:title=" ">
<path fill="none" stroke="#63b8ff" d="M1292.02,-226.17C1240.8,-216.94 1159.39,-201.92 1079.78,-185.49"/>
<polygon fill="#63b8ff" stroke="#63b8ff" points="1080.54,-182.08 1070.04,-183.47 1079.12,-188.93 1080.54,-182.08"/>
</a>
</g>
</g>
<!-- Node26&#45;&gt;Node22 -->
<g id="edge44_Node000026_Node000022" class="edge">
<title>Node26&#45;&gt;Node22</title>
<g id="a_edge44_Node000026_Node000022"><a xlink:title=" ">
<path fill="none" stroke="#63b8ff" d="M1347.53,-226.31C1351.53,-218.18 1357.57,-205.92 1362.67,-195.58"/>
<polygon fill="#63b8ff" stroke="#63b8ff" points="1365.73,-197.28 1367.01,-186.76 1359.45,-194.18 1365.73,-197.28"/>
</a>
</g>
</g>
<!-- Node26&#45;&gt;Node27 -->
<g id="edge45_Node000026_Node000027" class="edge">
<title>Node26&#45;&gt;Node27</title>
<g id="a_edge45_Node000026_Node000027"><a xlink:title=" ">
<path fill="none" stroke="#63b8ff" d="M1390.05,-226.21C1441.59,-216.26 1526.8,-199.7 1600.12,-185 1601.11,-184.8 1602.12,-184.6 1603.13,-184.4"/>
<polygon fill="#63b8ff" stroke="#63b8ff" points="1603.53,-187.89 1612.64,-182.47 1602.14,-181.03 1603.53,-187.89"/>
</a>
</g>
</g>
<!-- Node28 -->
<g id="Node000028" class="node">
<title>Node28</title>
<g id="a_Node000028"><a xlink:title=" ">
<polygon fill="#e0e0e0" stroke="#999999" points="1519.88,-185 1460.38,-185 1460.38,-165.75 1519.88,-165.75 1519.88,-185"/>
<text text-anchor="middle" x="1490.12" y="-171.5" font-family="Helvetica,sans-Serif" font-size="10.00">filesystem</text>
</a>
</g>
</g>
<!-- Node26&#45;&gt;Node28 -->
<g id="edge46_Node000026_Node000028" class="edge">
<title>Node26&#45;&gt;Node28</title>
<g id="a_edge46_Node000026_Node000028"><a xlink:title=" ">
<path fill="none" stroke="#63b8ff" d="M1365.77,-226.18C1390.23,-216.38 1429.42,-200.69 1457.27,-189.54"/>
<polygon fill="#63b8ff" stroke="#63b8ff" points="1458.31,-192.89 1466.29,-185.92 1455.7,-186.39 1458.31,-192.89"/>
</a>
</g>
</g>
<!-- Node29&#45;&gt;Node2 -->
<g id="edge51_Node000029_Node000002" class="edge">
<title>Node29&#45;&gt;Node2</title>
<g id="a_edge51_Node000029_Node000002"><a xlink:title=" ">
<path fill="none" stroke="#63b8ff" d="M950.54,-220.51C936.51,-204.91 912.44,-180.55 887.12,-165.75 861.69,-150.88 830.64,-140.22 804.64,-133.05"/>
<polygon fill="#63b8ff" stroke="#63b8ff" points="805.86,-129.75 795.3,-130.57 804.07,-136.52 805.86,-129.75"/>
</a>
</g>
</g>
<!-- Node29&#45;&gt;Node9 -->
<g id="edge52_Node000029_Node000009" class="edge">
<title>Node29&#45;&gt;Node9</title>
<g id="a_edge52_Node000029_Node000009"><a xlink:title=" ">
<path fill="none" stroke="#63b8ff" d="M906.07,-227.49C824.7,-216.43 675.9,-196.2 591.97,-184.78"/>
<polygon fill="#63b8ff" stroke="#63b8ff" points="592.45,-181.32 582.07,-183.44 591.51,-188.25 592.45,-181.32"/>
</a>
</g>
</g>
<!-- Node29&#45;&gt;Node16 -->
<g id="edge58_Node000029_Node000016" class="edge">
<title>Node29&#45;&gt;Node16</title>
<g id="a_edge58_Node000029_Node000016"><a xlink:title=" ">
<path fill="none" stroke="#63b8ff" d="M967.16,-220.62C972.34,-204.64 982.91,-179.5 1001.12,-165.75 1050.55,-128.44 1125.51,-121.37 1167.27,-120.57"/>
<polygon fill="#63b8ff" stroke="#63b8ff" points="1167.12,-124.07 1177.1,-120.51 1167.07,-117.07 1167.12,-124.07"/>
</a>
</g>
</g>
<!-- Node29&#45;&gt;Node18 -->
<g id="edge55_Node000029_Node000018" class="edge">
<title>Node29&#45;&gt;Node18</title>
<g id="a_edge55_Node000029_Node000018"><a xlink:title=" ">
<path fill="none" stroke="#63b8ff" d="M981.91,-220.7C993.04,-212.08 1007.15,-201.15 1018.57,-192.3"/>
<polygon fill="#63b8ff" stroke="#63b8ff" points="1020.45,-195.27 1026.21,-186.38 1016.16,-189.74 1020.45,-195.27"/>
</a>
</g>
</g>
<!-- Node29&#45;&gt;Node19 -->
<g id="edge57_Node000029_Node000019" class="edge">
<title>Node29&#45;&gt;Node19</title>
<g id="a_edge57_Node000029_Node000019"><a xlink:title=" ">
<path fill="none" stroke="#63b8ff" d="M960.72,-220.8C957.37,-200.65 951.27,-164.06 947.48,-141.25"/>
<polygon fill="#63b8ff" stroke="#63b8ff" points="950.98,-140.98 945.88,-131.69 944.07,-142.13 950.98,-140.98"/>
</a>
</g>
</g>
<!-- Node29&#45;&gt;Node22 -->
<g id="edge53_Node000029_Node000022" class="edge">
<title>Node29&#45;&gt;Node22</title>
<g id="a_edge53_Node000029_Node000022"><a xlink:title=" ">
<path fill="none" stroke="#63b8ff" d="M1019.99,-227.06C1092.53,-216.62 1218.12,-198.54 1298.06,-187.04"/>
<polygon fill="#63b8ff" stroke="#63b8ff" points="1298.13,-190.56 1307.53,-185.67 1297.14,-183.63 1298.13,-190.56"/>
</a>
</g>
</g>
<!-- Node29&#45;&gt;Node25 -->
<g id="edge54_Node000029_Node000025" class="edge">
<title>Node29&#45;&gt;Node25</title>
<g id="a_edge54_Node000029_Node000025"><a xlink:title=" ">
<path fill="none" stroke="#63b8ff" d="M925.91,-220.55C901.8,-211.02 870.67,-198.72 847.39,-189.52"/>
<polygon fill="#63b8ff" stroke="#63b8ff" points="848.97,-186.38 838.38,-185.96 846.4,-192.89 848.97,-186.38"/>
</a>
</g>
</g>
<!-- Node29&#45;&gt;Node30 -->
<g id="edge56_Node000029_Node000030" class="edge">
<title>Node29&#45;&gt;Node30</title>
<g id="a_edge56_Node000029_Node000030"><a xlink:title=" ">
<path fill="none" stroke="#63b8ff" d="M999.59,-220.55C1023.11,-211.06 1053.44,-198.83 1076.22,-189.64"/>
<polygon fill="#63b8ff" stroke="#63b8ff" points="1077.37,-192.96 1085.33,-185.97 1074.75,-186.46 1077.37,-192.96"/>
</a>
</g>
</g>
</g>
</svg>

<g id="navigator" transform="translate(0 0)" fill="#404254">
  <rect fill="#f2f5e9" fill-opacity="0.5" stroke="#606060" stroke-width=".5" x="0" y="0" width="60" height="60"/>
  <use id="zoomplus" xlink:href="#zoomPlus" x="17" y="9" onmousedown="handleZoom(evt,'in')"/>
  <use id="zoomminus" xlink:href="#zoomMin" x="42" y="9" onmousedown="handleZoom(evt,'out')"/>
  <use id="reset" xlink:href="#resetDef" x="30" y="36" onmousedown="handleReset()"/>
   <use id="arrowup" xlink:href="#arrowUp" x="0" y="0" onmousedown="handlePan(0,-1)"/>
  <use id="arrowright" xlink:href="#arrowRight" x="0" y="0" onmousedown="handlePan(1,0)"/>
  <use id="arrowdown" xlink:href="#arrowDown" x="0" y="0" onmousedown="handlePan(0,1)"/>
  <use id="arrowleft" xlink:href="#arrowLeft" x="0" y="0" onmousedown="handlePan(-1,0)"/>
</g>
<svg viewBox="0 0 15 15" width="100%" height="30px" preserveAspectRatio="xMaxYMin meet">
 <g id="arrow_out" transform="scale(0.3 0.3)">
  <a xlink:href="state_2_common_types_8hpp__incl_org.svg" target="_base">
   <rect id="button" ry="5" rx="5" y="6" x="6" height="38" width="38"
        fill="#f2f5e9" fill-opacity="0.5" stroke="#606060" stroke-width="1.0"/>
   <path id="arrow"
     d="M 11.500037,31.436501 C 11.940474,20.09759 22.043105,11.32322 32.158766,21.979434 L 37.068811,17.246167 C 37.068811,17.246167 37.088388,32 37.088388,32 L 22.160133,31.978069 C 22.160133,31.978069 26.997745,27.140456 26.997745,27.140456 C 18.528582,18.264221 13.291696,25.230495 11.500037,31.436501 z"
     style="fill:#404040;"/>
  </a>
 </g>
</svg>

<style type='text/css'>
<![CDATA[
[data-mouse-over-selected='false'] { opacity: 0.7; }
[data-mouse-over-selected='true']  { opacity: 1.0; }
]]>
</style>
<script type="application/ecmascript"><![CDATA[
document.addEventListener('DOMContentLoaded', (event) => {
  highlightEdges();
  highlightAdjacentNodes();
});
]]></script>
</svg>
