<?xml version="1.0" encoding="UTF-8" standalone="no"?>
<!DOCTYPE svg PUBLIC "-//W3C//DTD SVG 1.1//EN"
 "http://www.w3.org/Graphics/SVG/1.1/DTD/svg11.dtd">
<!-- Generated by graphviz version 12.2.1 (20241206.2353)
 -->
<!-- Title: mimic++/Reporter.hpp Pages: 1 -->
<!--zoomable 370 -->

<svg id="main" version="1.1" xmlns="http://www.w3.org/2000/svg" xmlns:xlink="http://www.w3.org/1999/xlink" xml:space="preserve" onload="init(evt)">

<style type="text/css"><![CDATA[
.node, .edge {opacity: 0.7;}
.node.selected, .edge.selected {opacity: 1;}
.edge:hover path { stroke: red; }
.edge:hover polygon { stroke: red; fill: red; }
]]></style>

<defs>
  <circle id="rim" cx="0" cy="0" r="7"/>
  <circle id="rim2" cx="0" cy="0" r="3.5"/>
  <g id="zoomPlus">
    <use xlink:href="#rim" fill="#404040"><set attributeName="fill" to="#808080" begin="zoomplus.mouseover" end="zoomplus.mouseout"/></use>
    <path d="M-4,0h8M0,-4v8" fill="none" stroke="white" stroke-width="1.5" pointer-events="none"/>
  </g>
  <g id="zoomMin">
    <use xlink:href="#rim" fill="#404040"><set attributeName="fill" to="#808080" begin="zoomminus.mouseover" end="zoomminus.mouseout"/></use>
    <path d="M-4,0h8" fill="none" stroke="white" stroke-width="1.5" pointer-events="none"/>
  </g>
  <g id="arrowUp" transform="translate(30 24)">
    <use xlink:href="#rim"/>
    <path pointer-events="none" fill="none" stroke="white" stroke-width="1.5" d="M0,-3.0v7 M-2.5,-0.5L0,-3.0L2.5,-0.5"/>
  </g>
  <g id="arrowRight" transform="rotate(90) translate(36 -43)">
    <use xlink:href="#rim"/>
    <path pointer-events="none" fill="none" stroke="white" stroke-width="1.5" d="M0,-3.0v7 M-2.5,-0.5L0,-3.0L2.5,-0.5"/>
  </g>
  <g id="arrowDown" transform="rotate(180) translate(-30 -48)">
    <use xlink:href="#rim"/>
    <path pointer-events="none" fill="none" stroke="white" stroke-width="1.5" d="M0,-3.0v7 M-2.5,-0.5L0,-3.0L2.5,-0.5"/>
  </g>
  <g id="arrowLeft" transform="rotate(270) translate(-36 17)">
    <use xlink:href="#rim"/>
    <path pointer-events="none" fill="none" stroke="white" stroke-width="1.5" d="M0,-3.0v7 M-2.5,-0.5L0,-3.0L2.5,-0.5"/>
  </g>
  <g id="resetDef">
    <use xlink:href="#rim2" fill="#404040"><set attributeName="fill" to="#808080" begin="reset.mouseover" end="reset.mouseout"/></use>
  </g>
</defs>
<script type="application/ecmascript">
var viewWidth = 513;
var viewHeight = 370;
var sectionId = 'dynsection-1';
</script>
<script type="application/ecmascript" xlink:href="../../svg.min.js"/>
<svg id="graph" class="graph">
<g id="viewport">
<title>mimic++/Reporter.hpp</title>
<!-- Node1 -->
<g id="Node000001" class="node">
<title>Node1</title>
<g id="a_Node000001"><a xlink:title=" ">
<polygon fill="#999999" stroke="#666666" points="289,-362 177,-362 177,-342.75 289,-342.75 289,-362"/>
<text text-anchor="middle" x="233" y="-348.5" font-family="Helvetica,sans-Serif" font-size="10.00">mimic++/Reporter.hpp</text>
</a>
</g>
</g>
<!-- Node2 -->
<g id="Node000002" class="node">
<title>Node2</title>
<g id="a_Node000002"><a xlink:href="../../d5/d8a/_expectation_8hpp.html" target="_top" xlink:title=" ">
<polygon fill="white" stroke="#666666" points="295.75,-245.88 170.25,-245.88 170.25,-226.62 295.75,-226.62 295.75,-245.88"/>
<text text-anchor="middle" x="233" y="-232.38" font-family="Helvetica,sans-Serif" font-size="10.00">mimic++/Expectation.hpp</text>
</a>
</g>
</g>
<!-- Node1&#45;&gt;Node2 -->
<g id="edge1_Node000001_Node000002" class="edge">
<title>Node1&#45;&gt;Node2</title>
<g id="a_edge1_Node000001_Node000002"><a xlink:title=" ">
<path fill="none" stroke="#63b8ff" d="M233,-331C233,-305.88 233,-264.29 233,-246.16"/>
<polygon fill="#63b8ff" stroke="#63b8ff" points="229.5,-330.91 233,-340.91 236.5,-330.91 229.5,-330.91"/>
</a>
</g>
</g>
<!-- Node6 -->
<g id="Node000006" class="node">
<title>Node6</title>
<g id="a_Node000006"><a xlink:href="../../d0/db9/mimic_09_09_8hpp.html" target="_top" xlink:title=" ">
<polygon fill="white" stroke="#666666" points="397.75,-19.25 284.25,-19.25 284.25,0 397.75,0 397.75,-19.25"/>
<text text-anchor="middle" x="341" y="-5.75" font-family="Helvetica,sans-Serif" font-size="10.00">mimic++/mimic++.hpp</text>
</a>
</g>
</g>
<!-- Node1&#45;&gt;Node6 -->
<g id="edge19_Node000001_Node000006" class="edge">
<title>Node1&#45;&gt;Node6</title>
<g id="a_edge19_Node000001_Node000006"><a xlink:title=" ">
<path fill="none" stroke="#63b8ff" d="M165.39,-346.51C96.59,-337.44 0,-311.49 0,-237.25 0,-237.25 0,-237.25 0,-119.12 0,-84.9 14.07,-73.53 43,-55.25 82.03,-30.59 208.89,-18.72 283.92,-13.73"/>
<polygon fill="#63b8ff" stroke="#63b8ff" points="164.75,-349.96 175.09,-347.69 165.59,-343.01 164.75,-349.96"/>
</a>
</g>
</g>
<!-- Node8 -->
<g id="Node000008" class="node">
<title>Node8</title>
<g id="a_Node000008"><a xlink:href="../../d8/de4/_sequence_8hpp.html" target="_top" xlink:title=" ">
<polygon fill="white" stroke="#666666" points="383.38,-306.75 264.62,-306.75 264.62,-287.5 383.38,-287.5 383.38,-306.75"/>
<text text-anchor="middle" x="324" y="-293.25" font-family="Helvetica,sans-Serif" font-size="10.00">mimic++/Sequence.hpp</text>
</a>
</g>
</g>
<!-- Node1&#45;&gt;Node8 -->
<g id="edge12_Node000001_Node000008" class="edge">
<title>Node1&#45;&gt;Node8</title>
<g id="a_edge12_Node000001_Node000008"><a xlink:title=" ">
<path fill="none" stroke="#63b8ff" d="M258.29,-336.57C274.4,-327.15 294.74,-315.25 308.49,-307.2"/>
<polygon fill="#63b8ff" stroke="#63b8ff" points="256.61,-333.51 249.74,-341.58 260.14,-339.55 256.61,-333.51"/>
</a>
</g>
</g>
<!-- Node3 -->
<g id="Node000003" class="node">
<title>Node3</title>
<g id="a_Node000003"><a xlink:href="../../d2/d4f/_expectation_builder_8hpp.html" target="_top" xlink:title=" ">
<polygon fill="white" stroke="#666666" points="416.75,-185 261.25,-185 261.25,-165.75 416.75,-165.75 416.75,-185"/>
<text text-anchor="middle" x="339" y="-171.5" font-family="Helvetica,sans-Serif" font-size="10.00">mimic++/ExpectationBuilder.hpp</text>
</a>
</g>
</g>
<!-- Node2&#45;&gt;Node3 -->
<g id="edge2_Node000002_Node000003" class="edge">
<title>Node2&#45;&gt;Node3</title>
<g id="a_edge2_Node000002_Node000003"><a xlink:title=" ">
<path fill="none" stroke="#63b8ff" d="M259.07,-220.77C278.98,-209.71 305.8,-194.81 322.75,-185.4"/>
<polygon fill="#63b8ff" stroke="#63b8ff" points="257.46,-217.66 250.42,-225.57 260.86,-223.78 257.46,-217.66"/>
</a>
</g>
</g>
<!-- Node4 -->
<g id="Node000004" class="node">
<title>Node4</title>
<g id="a_Node000004"><a xlink:href="../../d5/dc5/_mock_8hpp.html" target="_top" xlink:title=" ">
<polygon fill="white" stroke="#666666" points="342.62,-129.75 243.38,-129.75 243.38,-110.5 342.62,-110.5 342.62,-129.75"/>
<text text-anchor="middle" x="293" y="-116.25" font-family="Helvetica,sans-Serif" font-size="10.00">mimic++/Mock.hpp</text>
</a>
</g>
</g>
<!-- Node2&#45;&gt;Node4 -->
<g id="edge10_Node000002_Node000004" class="edge">
<title>Node2&#45;&gt;Node4</title>
<g id="a_edge10_Node000002_Node000004"><a xlink:title=" ">
<path fill="none" stroke="#63b8ff" d="M235.91,-215.05C238.59,-200.64 243.48,-181.16 252,-165.75 259.84,-151.57 273.08,-138.3 282.39,-129.98"/>
<polygon fill="#63b8ff" stroke="#63b8ff" points="232.49,-214.25 234.33,-224.69 239.4,-215.38 232.49,-214.25"/>
</a>
</g>
</g>
<!-- Node2&#45;&gt;Node6 -->
<g id="edge11_Node000002_Node000006" class="edge">
<title>Node2&#45;&gt;Node6</title>
<g id="a_edge11_Node000002_Node000006"><a xlink:title=" ">
<path fill="none" stroke="#63b8ff" d="M200.91,-221.66C136.21,-192.42 0.88,-120.88 57,-55.25 85.59,-21.82 209.43,-13.27 283.81,-11.19"/>
<polygon fill="#63b8ff" stroke="#63b8ff" points="199.43,-224.83 209.99,-225.68 202.27,-218.43 199.43,-224.83"/>
</a>
</g>
</g>
<!-- Node3&#45;&gt;Node4 -->
<g id="edge3_Node000003_Node000004" class="edge">
<title>Node3&#45;&gt;Node4</title>
<g id="a_edge3_Node000003_Node000004"><a xlink:title=" ">
<path fill="none" stroke="#63b8ff" d="M324,-157.01C316.24,-148.03 307.1,-137.45 300.76,-130.11"/>
<polygon fill="#63b8ff" stroke="#63b8ff" points="321.23,-159.16 330.41,-164.44 326.53,-154.58 321.23,-159.16"/>
</a>
</g>
</g>
<!-- Node3&#45;&gt;Node6 -->
<g id="edge9_Node000003_Node000006" class="edge">
<title>Node3&#45;&gt;Node6</title>
<g id="a_edge9_Node000003_Node000006"><a xlink:title=" ">
<path fill="none" stroke="#63b8ff" d="M351.21,-155.58C363.03,-136.18 380.14,-104.59 387,-74.5 388.9,-66.16 390.33,-63.13 387,-55.25 380.58,-40.08 366.21,-27.54 355.23,-19.65"/>
<polygon fill="#63b8ff" stroke="#63b8ff" points="348.3,-153.65 345.94,-163.98 354.22,-157.37 348.3,-153.65"/>
</a>
</g>
</g>
<!-- Node5 -->
<g id="Node000005" class="node">
<title>Node5</title>
<g id="a_Node000005"><a xlink:href="../../d9/dc3/_interface_mock_8hpp.html" target="_top" xlink:title=" ">
<polygon fill="white" stroke="#666666" points="361.75,-74.5 224.25,-74.5 224.25,-55.25 361.75,-55.25 361.75,-74.5"/>
<text text-anchor="middle" x="293" y="-61" font-family="Helvetica,sans-Serif" font-size="10.00">mimic++/InterfaceMock.hpp</text>
</a>
</g>
</g>
<!-- Node4&#45;&gt;Node5 -->
<g id="edge4_Node000004_Node000005" class="edge">
<title>Node4&#45;&gt;Node5</title>
<g id="a_edge4_Node000004_Node000005"><a xlink:title=" ">
<path fill="none" stroke="#63b8ff" d="M293,-98.88C293,-90.59 293,-81.42 293,-74.86"/>
<polygon fill="#63b8ff" stroke="#63b8ff" points="289.5,-98.82 293,-108.82 296.5,-98.82 289.5,-98.82"/>
</a>
</g>
</g>
<!-- Node4&#45;&gt;Node6 -->
<g id="edge8_Node000004_Node000006" class="edge">
<title>Node4&#45;&gt;Node6</title>
<g id="a_edge8_Node000004_Node000006"><a xlink:title=" ">
<path fill="none" stroke="#63b8ff" d="M333.98,-105.58C348.29,-98.65 362.81,-88.62 371,-74.5 381.94,-55.64 363.16,-32.12 350.71,-19.55"/>
<polygon fill="#63b8ff" stroke="#63b8ff" points="332.83,-102.26 325.08,-109.48 335.64,-108.67 332.83,-102.26"/>
</a>
</g>
</g>
<!-- Node7 -->
<g id="Node000007" class="node">
<title>Node7</title>
<g id="a_Node000007"><a xlink:href="../../d5/d92/_object_watcher_8hpp.html" target="_top" xlink:title=" ">
<polygon fill="white" stroke="#666666" points="205.88,-74.5 66.12,-74.5 66.12,-55.25 205.88,-55.25 205.88,-74.5"/>
<text text-anchor="middle" x="136" y="-61" font-family="Helvetica,sans-Serif" font-size="10.00">mimic++/ObjectWatcher.hpp</text>
</a>
</g>
</g>
<!-- Node4&#45;&gt;Node7 -->
<g id="edge6_Node000004_Node000007" class="edge">
<title>Node4&#45;&gt;Node7</title>
<g id="a_edge6_Node000004_Node000007"><a xlink:title=" ">
<path fill="none" stroke="#63b8ff" d="M255.57,-106.43C226.99,-96.74 188.3,-83.61 162.76,-74.95"/>
<polygon fill="#63b8ff" stroke="#63b8ff" points="254.34,-109.71 264.93,-109.61 256.59,-103.08 254.34,-109.71"/>
</a>
</g>
</g>
<!-- Node5&#45;&gt;Node6 -->
<g id="edge5_Node000005_Node000006" class="edge">
<title>Node5&#45;&gt;Node6</title>
<g id="a_edge5_Node000005_Node000006"><a xlink:title=" ">
<path fill="none" stroke="#63b8ff" d="M308.4,-46.79C316.55,-37.75 326.22,-27.02 332.9,-19.61"/>
<polygon fill="#63b8ff" stroke="#63b8ff" points="306.04,-44.19 301.94,-53.96 311.23,-48.87 306.04,-44.19"/>
</a>
</g>
</g>
<!-- Node7&#45;&gt;Node6 -->
<g id="edge7_Node000007_Node000006" class="edge">
<title>Node7&#45;&gt;Node6</title>
<g id="a_edge7_Node000007_Node000006"><a xlink:title=" ">
<path fill="none" stroke="#63b8ff" d="M181.44,-52.07C219.04,-42.3 271.68,-28.63 306.05,-19.7"/>
<polygon fill="#63b8ff" stroke="#63b8ff" points="181.04,-48.56 172.24,-54.46 182.8,-55.33 181.04,-48.56"/>
</a>
</g>
</g>
<!-- Node8&#45;&gt;Node2 -->
<g id="edge13_Node000008_Node000002" class="edge">
<title>Node8&#45;&gt;Node2</title>
<g id="a_edge13_Node000008_Node000002"><a xlink:title=" ">
<path fill="none" stroke="#63b8ff" d="M300.91,-281.18C283.89,-270.17 261.3,-255.56 246.95,-246.28"/>
<polygon fill="#63b8ff" stroke="#63b8ff" points="298.61,-283.87 308.91,-286.36 302.41,-277.99 298.61,-283.87"/>
</a>
</g>
</g>
<!-- Node8&#45;&gt;Node3 -->
<g id="edge14_Node000008_Node000003" class="edge">
<title>Node8&#45;&gt;Node3</title>
<g id="a_edge14_Node000008_Node000003"><a xlink:title=" ">
<path fill="none" stroke="#63b8ff" d="M326.54,-275.88C329.83,-249.55 335.46,-204.65 337.86,-185.48"/>
<polygon fill="#63b8ff" stroke="#63b8ff" points="323.09,-275.26 325.32,-285.62 330.03,-276.14 323.09,-275.26"/>
</a>
</g>
</g>
<!-- Node8&#45;&gt;Node6 -->
<g id="edge15_Node000008_Node000006" class="edge">
<title>Node8&#45;&gt;Node6</title>
<g id="a_edge15_Node000008_Node000006"><a xlink:title=" ">
<path fill="none" stroke="#63b8ff" d="M395.23,-292.18C426.62,-286.85 461.61,-275.42 485,-251.5 509.08,-226.87 504,-210.82 504,-176.38 504,-176.38 504,-176.38 504,-119.12 504,-61.5 432.54,-32.62 384.25,-19.68"/>
<polygon fill="#63b8ff" stroke="#63b8ff" points="394.72,-288.72 385.35,-293.66 395.76,-295.64 394.72,-288.72"/>
</a>
</g>
</g>
<!-- Node9 -->
<g id="Node000009" class="node">
<title>Node9</title>
<g id="a_Node000009"><a xlink:href="../../db/d70/_control_policies_8hpp.html" target="_top" xlink:title=" ">
<polygon fill="white" stroke="#666666" points="476,-251.5 352,-251.5 352,-221 476,-221 476,-251.5"/>
<text text-anchor="start" x="360" y="-238" font-family="Helvetica,sans-Serif" font-size="10.00">mimic++/policies/Control</text>
<text text-anchor="middle" x="414" y="-226.75" font-family="Helvetica,sans-Serif" font-size="10.00">Policies.hpp</text>
</a>
</g>
</g>
<!-- Node8&#45;&gt;Node9 -->
<g id="edge16_Node000008_Node000009" class="edge">
<title>Node8&#45;&gt;Node9</title>
<g id="a_edge16_Node000008_Node000009"><a xlink:title=" ">
<path fill="none" stroke="#63b8ff" d="M346.94,-281.12C360.71,-272.11 378.15,-260.7 391.79,-251.78"/>
<polygon fill="#63b8ff" stroke="#63b8ff" points="345.39,-277.95 338.94,-286.35 349.22,-283.81 345.39,-277.95"/>
</a>
</g>
</g>
<!-- Node9&#45;&gt;Node3 -->
<g id="edge17_Node000009_Node000003" class="edge">
<title>Node9&#45;&gt;Node3</title>
<g id="a_edge17_Node000009_Node000003"><a xlink:title=" ">
<path fill="none" stroke="#63b8ff" d="M386.76,-213.87C374.3,-204.08 360.19,-193.01 350.56,-185.45"/>
<polygon fill="#63b8ff" stroke="#63b8ff" points="384.24,-216.34 394.27,-219.76 388.57,-210.83 384.24,-216.34"/>
</a>
</g>
</g>
<!-- Node9&#45;&gt;Node6 -->
<g id="edge18_Node000009_Node000006" class="edge">
<title>Node9&#45;&gt;Node6</title>
<g id="a_edge18_Node000009_Node000006"><a xlink:title=" ">
<path fill="none" stroke="#63b8ff" d="M421.3,-209.8C423.23,-201.92 425.04,-193.16 426,-185 431.81,-135.66 402.31,-55.72 402,-55.25 391.7,-39.41 373.69,-27.27 359.9,-19.68"/>
<polygon fill="#63b8ff" stroke="#63b8ff" points="417.92,-208.87 418.76,-219.43 424.69,-210.66 417.92,-208.87"/>
</a>
</g>
</g>
</g>
</svg>

<g id="navigator" transform="translate(0 0)" fill="#404254">
  <rect fill="#f2f5e9" fill-opacity="0.5" stroke="#606060" stroke-width=".5" x="0" y="0" width="60" height="60"/>
  <use id="zoomplus" xlink:href="#zoomPlus" x="17" y="9" onmousedown="handleZoom(evt,'in')"/>
  <use id="zoomminus" xlink:href="#zoomMin" x="42" y="9" onmousedown="handleZoom(evt,'out')"/>
  <use id="reset" xlink:href="#resetDef" x="30" y="36" onmousedown="handleReset()"/>
   <use id="arrowup" xlink:href="#arrowUp" x="0" y="0" onmousedown="handlePan(0,-1)"/>
  <use id="arrowright" xlink:href="#arrowRight" x="0" y="0" onmousedown="handlePan(1,0)"/>
  <use id="arrowdown" xlink:href="#arrowDown" x="0" y="0" onmousedown="handlePan(0,1)"/>
  <use id="arrowleft" xlink:href="#arrowLeft" x="0" y="0" onmousedown="handlePan(-1,0)"/>
</g>
<svg viewBox="0 0 15 15" width="100%" height="30px" preserveAspectRatio="xMaxYMin meet">
 <g id="arrow_out" transform="scale(0.3 0.3)">
  <a xlink:href="_reporter_8hpp__dep__incl_org.svg" target="_base">
   <rect id="button" ry="5" rx="5" y="6" x="6" height="38" width="38"
        fill="#f2f5e9" fill-opacity="0.5" stroke="#606060" stroke-width="1.0"/>
   <path id="arrow"
     d="M 11.500037,31.436501 C 11.940474,20.09759 22.043105,11.32322 32.158766,21.979434 L 37.068811,17.246167 C 37.068811,17.246167 37.088388,32 37.088388,32 L 22.160133,31.978069 C 22.160133,31.978069 26.997745,27.140456 26.997745,27.140456 C 18.528582,18.264221 13.291696,25.230495 11.500037,31.436501 z"
     style="fill:#404040;"/>
  </a>
 </g>
</svg>

<style type='text/css'>
<![CDATA[
[data-mouse-over-selected='false'] { opacity: 0.7; }
[data-mouse-over-selected='true']  { opacity: 1.0; }
]]>
</style>
<script type="application/ecmascript"><![CDATA[
document.addEventListener('DOMContentLoaded', (event) => {
  highlightEdges();
  highlightAdjacentNodes();
});
]]></script>
</svg>
