<?xml version="1.0" encoding="UTF-8" standalone="no"?>
<!DOCTYPE svg PUBLIC "-//W3C//DTD SVG 1.1//EN"
 "http://www.w3.org/Graphics/SVG/1.1/DTD/svg11.dtd">
<!-- Generated by graphviz version 12.1.2 (20240928.0832)
 -->
<!-- Title: mimic++/Reporter.hpp Pages: 1 -->
<svg width="1059pt" height="469pt"
 viewBox="0.00 0.00 1058.75 469.25" xmlns="http://www.w3.org/2000/svg" xmlns:xlink="http://www.w3.org/1999/xlink">
<g id="graph0" class="graph" transform="scale(1 1) rotate(0) translate(4 465.25)">
<title>mimic++/Reporter.hpp</title>
<!-- Node1 -->
<g id="Node000001" class="node">
<title>Node1</title>
<g id="a_Node000001"><a xlink:title=" ">
<polygon fill="#999999" stroke="#666666" points="652,-461.25 540,-461.25 540,-442 652,-442 652,-461.25"/>
<text text-anchor="middle" x="596" y="-447.75" font-family="Helvetica,sans-Serif" font-size="10.00">mimic++/Reporter.hpp</text>
</a>
</g>
</g>
<!-- Node2 -->
<g id="Node000002" class="node">
<title>Node2</title>
<g id="a_Node000002"><a xlink:href="../../d5/d8a/_expectation_8hpp.html" target="_top" xlink:title=" ">
<polygon fill="white" stroke="#666666" points="213.75,-295.5 88.25,-295.5 88.25,-276.25 213.75,-276.25 213.75,-295.5"/>
<text text-anchor="middle" x="151" y="-282" font-family="Helvetica,sans-Serif" font-size="10.00">mimic++/Expectation.hpp</text>
</a>
</g>
</g>
<!-- Node1&#45;&gt;Node2 -->
<g id="edge1_Node000001_Node000002" class="edge">
<title>Node1&#45;&gt;Node2</title>
<g id="a_edge1_Node000001_Node000002"><a xlink:title=" ">
<path fill="none" stroke="#63b8ff" d="M528.59,-445.21C477.68,-439.53 406.79,-428.19 348,-406 271.34,-377.06 191.13,-318.08 162.21,-295.73"/>
<polygon fill="#63b8ff" stroke="#63b8ff" points="527.96,-448.66 538.27,-446.24 528.7,-441.7 527.96,-448.66"/>
</a>
</g>
</g>
<!-- Node6 -->
<g id="Node000006" class="node">
<title>Node6</title>
<g id="a_Node000006"><a xlink:href="../../d0/db9/mimic_09_09_8hpp.html" target="_top" xlink:title=" ">
<polygon fill="white" stroke="#666666" points="297.75,-19.25 184.25,-19.25 184.25,0 297.75,0 297.75,-19.25"/>
<text text-anchor="middle" x="241" y="-5.75" font-family="Helvetica,sans-Serif" font-size="10.00">mimic++/mimic++.hpp</text>
</a>
</g>
</g>
<!-- Node1&#45;&gt;Node6 -->
<g id="edge25_Node000001_Node000006" class="edge">
<title>Node1&#45;&gt;Node6</title>
<g id="a_edge25_Node000001_Node000006"><a xlink:title=" ">
<path fill="none" stroke="#63b8ff" d="M579.85,-433.22C573.25,-425.37 566.01,-415.7 561,-406 547.4,-379.69 542,-371.74 542,-342.12 542,-342.12 542,-342.12 542,-119.12 542,-81.08 518.18,-73.88 485,-55.25 426.89,-22.63 349.87,-13.14 298.04,-10.74"/>
<polygon fill="#63b8ff" stroke="#63b8ff" points="577.14,-435.44 586.38,-440.63 582.39,-430.81 577.14,-435.44"/>
</a>
</g>
</g>
<!-- Node9 -->
<g id="Node000009" class="node">
<title>Node9</title>
<g id="a_Node000009"><a xlink:href="../../d8/de4/_sequence_8hpp.html" target="_top" xlink:title=" ">
<polygon fill="white" stroke="#666666" points="475.38,-406 356.62,-406 356.62,-386.75 475.38,-386.75 475.38,-406"/>
<text text-anchor="middle" x="416" y="-392.5" font-family="Helvetica,sans-Serif" font-size="10.00">mimic++/Sequence.hpp</text>
</a>
</g>
</g>
<!-- Node1&#45;&gt;Node9 -->
<g id="edge15_Node000001_Node000009" class="edge">
<title>Node1&#45;&gt;Node9</title>
<g id="a_edge15_Node000001_Node000009"><a xlink:title=" ">
<path fill="none" stroke="#63b8ff" d="M554.82,-438.44C521.9,-428.7 476.47,-415.27 446.68,-406.45"/>
<polygon fill="#63b8ff" stroke="#63b8ff" points="553.43,-441.68 564.01,-441.16 555.42,-434.97 553.43,-441.68"/>
</a>
</g>
</g>
<!-- Node11 -->
<g id="Node000011" class="node">
<title>Node11</title>
<g id="a_Node000011"><a xlink:href="../../d9/d42/_boost_test_8hpp.html" target="_top" xlink:title=" ">
<polygon fill="white" stroke="#666666" points="730.38,-406 569.62,-406 569.62,-386.75 730.38,-386.75 730.38,-406"/>
<text text-anchor="middle" x="650" y="-392.5" font-family="Helvetica,sans-Serif" font-size="10.00">mimic++/adapters/BoostTest.hpp</text>
</a>
</g>
</g>
<!-- Node1&#45;&gt;Node11 -->
<g id="edge22_Node000001_Node000011" class="edge">
<title>Node1&#45;&gt;Node11</title>
<g id="a_edge22_Node000001_Node000011"><a xlink:title=" ">
<path fill="none" stroke="#63b8ff" d="M613.04,-433.82C622.26,-424.73 633.29,-413.85 640.89,-406.36"/>
<polygon fill="#63b8ff" stroke="#63b8ff" points="610.66,-431.26 605.99,-440.77 615.57,-436.24 610.66,-431.26"/>
</a>
</g>
</g>
<!-- Node12 -->
<g id="Node000012" class="node">
<title>Node12</title>
<g id="a_Node000012"><a xlink:href="../../d3/d04/_catch2_8hpp.html" target="_top" xlink:title=" ">
<polygon fill="white" stroke="#666666" points="895.25,-406 748.75,-406 748.75,-386.75 895.25,-386.75 895.25,-406"/>
<text text-anchor="middle" x="822" y="-392.5" font-family="Helvetica,sans-Serif" font-size="10.00">mimic++/adapters/Catch2.hpp</text>
</a>
</g>
</g>
<!-- Node1&#45;&gt;Node12 -->
<g id="edge23_Node000001_Node000012" class="edge">
<title>Node1&#45;&gt;Node12</title>
<g id="a_edge23_Node000001_Node000012"><a xlink:title=" ">
<path fill="none" stroke="#63b8ff" d="M645.56,-438.95C687.08,-429.16 745.51,-415.4 783.57,-406.43"/>
<polygon fill="#63b8ff" stroke="#63b8ff" points="645,-435.48 636.07,-441.18 646.6,-442.3 645,-435.48"/>
</a>
</g>
</g>
<!-- Node13 -->
<g id="Node000013" class="node">
<title>Node13</title>
<g id="a_Node000013"><a xlink:href="../../d5/db1/gtest_8hpp.html" target="_top" xlink:title=" ">
<polygon fill="white" stroke="#666666" points="1050.75,-406 913.25,-406 913.25,-386.75 1050.75,-386.75 1050.75,-406"/>
<text text-anchor="middle" x="982" y="-392.5" font-family="Helvetica,sans-Serif" font-size="10.00">mimic++/adapters/gtest.hpp</text>
</a>
</g>
</g>
<!-- Node1&#45;&gt;Node13 -->
<g id="edge24_Node000001_Node000013" class="edge">
<title>Node1&#45;&gt;Node13</title>
<g id="a_edge24_Node000001_Node000013"><a xlink:title=" ">
<path fill="none" stroke="#63b8ff" d="M663.17,-441.36C734.2,-431.56 845.55,-416.2 916.1,-406.47"/>
<polygon fill="#63b8ff" stroke="#63b8ff" points="663.05,-437.84 653.63,-442.68 664.01,-444.78 663.05,-437.84"/>
</a>
</g>
</g>
<!-- Node3 -->
<g id="Node000003" class="node">
<title>Node3</title>
<g id="a_Node000003"><a xlink:href="../../d2/d4f/_expectation_builder_8hpp.html" target="_top" xlink:title=" ">
<polygon fill="white" stroke="#666666" points="414.75,-185 259.25,-185 259.25,-165.75 414.75,-165.75 414.75,-185"/>
<text text-anchor="middle" x="337" y="-171.5" font-family="Helvetica,sans-Serif" font-size="10.00">mimic++/ExpectationBuilder.hpp</text>
</a>
</g>
</g>
<!-- Node2&#45;&gt;Node3 -->
<g id="edge2_Node000002_Node000003" class="edge">
<title>Node2&#45;&gt;Node3</title>
<g id="a_edge2_Node000002_Node000003"><a xlink:title=" ">
<path fill="none" stroke="#63b8ff" d="M202.54,-272.66C226.42,-265.53 254.44,-254.98 277,-240.25 300.44,-224.94 321.18,-198.64 330.99,-185.06"/>
<polygon fill="#63b8ff" stroke="#63b8ff" points="201.66,-269.27 193,-275.38 203.58,-276.01 201.66,-269.27"/>
</a>
</g>
</g>
<!-- Node4 -->
<g id="Node000004" class="node">
<title>Node4</title>
<g id="a_Node000004"><a xlink:href="../../d5/dc5/_mock_8hpp.html" target="_top" xlink:title=" ">
<polygon fill="white" stroke="#666666" points="254.62,-129.75 155.38,-129.75 155.38,-110.5 254.62,-110.5 254.62,-129.75"/>
<text text-anchor="middle" x="205" y="-116.25" font-family="Helvetica,sans-Serif" font-size="10.00">mimic++/Mock.hpp</text>
</a>
</g>
</g>
<!-- Node2&#45;&gt;Node4 -->
<g id="edge13_Node000002_Node000004" class="edge">
<title>Node2&#45;&gt;Node4</title>
<g id="a_edge13_Node000002_Node000004"><a xlink:title=" ">
<path fill="none" stroke="#63b8ff" d="M125.26,-269.82C108.38,-257.82 90.82,-239.94 99,-221 117.44,-178.29 164.13,-145.38 188.94,-130.25"/>
<polygon fill="#63b8ff" stroke="#63b8ff" points="122.86,-272.43 133.14,-275.02 126.72,-266.59 122.86,-272.43"/>
</a>
</g>
</g>
<!-- Node2&#45;&gt;Node6 -->
<g id="edge14_Node000002_Node000006" class="edge">
<title>Node2&#45;&gt;Node6</title>
<g id="a_edge14_Node000002_Node000006"><a xlink:title=" ">
<path fill="none" stroke="#63b8ff" d="M118.94,-270.82C85.53,-253.75 38,-221.53 38,-176.38 38,-176.38 38,-176.38 38,-119.12 38,-52.59 123.87,-26.71 183.91,-16.74"/>
<polygon fill="#63b8ff" stroke="#63b8ff" points="117.33,-273.93 127.85,-275.17 120.4,-267.64 117.33,-273.93"/>
</a>
</g>
</g>
<!-- Node8 -->
<g id="Node000008" class="node">
<title>Node8</title>
<g id="a_Node000008"><a xlink:href="../../d8/de5/_expectation_policies_8hpp.html" target="_top" xlink:title=" ">
<polygon fill="white" stroke="#666666" points="268,-240.25 108,-240.25 108,-221 268,-221 268,-240.25"/>
<text text-anchor="middle" x="188" y="-226.75" font-family="Helvetica,sans-Serif" font-size="10.00">mimic++/ExpectationPolicies.hpp</text>
</a>
</g>
</g>
<!-- Node2&#45;&gt;Node8 -->
<g id="edge9_Node000002_Node000008" class="edge">
<title>Node2&#45;&gt;Node8</title>
<g id="a_edge9_Node000002_Node000008"><a xlink:title=" ">
<path fill="none" stroke="#63b8ff" d="M163.66,-266.65C169.77,-257.86 176.82,-247.71 181.76,-240.61"/>
<polygon fill="#63b8ff" stroke="#63b8ff" points="160.81,-264.63 157.97,-274.84 166.55,-268.62 160.81,-264.63"/>
</a>
</g>
</g>
<!-- Node3&#45;&gt;Node4 -->
<g id="edge3_Node000003_Node000004" class="edge">
<title>Node3&#45;&gt;Node4</title>
<g id="a_edge3_Node000003_Node000004"><a xlink:title=" ">
<path fill="none" stroke="#63b8ff" d="M304.25,-161.16C280.35,-151.52 248.59,-138.71 227.5,-130.2"/>
<polygon fill="#63b8ff" stroke="#63b8ff" points="302.62,-164.28 313.2,-164.78 305.24,-157.79 302.62,-164.28"/>
</a>
</g>
</g>
<!-- Node3&#45;&gt;Node6 -->
<g id="edge8_Node000003_Node000006" class="edge">
<title>Node3&#45;&gt;Node6</title>
<g id="a_edge8_Node000003_Node000006"><a xlink:title=" ">
<path fill="none" stroke="#63b8ff" d="M367.27,-160.29C409.94,-138.55 479.18,-95.14 447,-55.25 428.59,-32.43 352.51,-20.69 298.17,-15.11"/>
<polygon fill="#63b8ff" stroke="#63b8ff" points="365.84,-157.09 358.43,-164.66 368.95,-163.37 365.84,-157.09"/>
</a>
</g>
</g>
<!-- Node5 -->
<g id="Node000005" class="node">
<title>Node5</title>
<g id="a_Node000005"><a xlink:href="../../d9/dc3/_interface_mock_8hpp.html" target="_top" xlink:title=" ">
<polygon fill="white" stroke="#666666" points="437.75,-74.5 300.25,-74.5 300.25,-55.25 437.75,-55.25 437.75,-74.5"/>
<text text-anchor="middle" x="369" y="-61" font-family="Helvetica,sans-Serif" font-size="10.00">mimic++/InterfaceMock.hpp</text>
</a>
</g>
</g>
<!-- Node4&#45;&gt;Node5 -->
<g id="edge4_Node000004_Node000005" class="edge">
<title>Node4&#45;&gt;Node5</title>
<g id="a_edge4_Node000004_Node000005"><a xlink:title=" ">
<path fill="none" stroke="#63b8ff" d="M243.7,-106.56C273.59,-96.85 314.25,-83.65 341.04,-74.95"/>
<polygon fill="#63b8ff" stroke="#63b8ff" points="242.69,-103.21 234.26,-109.62 244.85,-109.87 242.69,-103.21"/>
</a>
</g>
</g>
<!-- Node4&#45;&gt;Node6 -->
<g id="edge7_Node000004_Node000006" class="edge">
<title>Node4&#45;&gt;Node6</title>
<g id="a_edge7_Node000004_Node000006"><a xlink:title=" ">
<path fill="none" stroke="#63b8ff" d="M169.97,-105.56C145.42,-93.91 119.26,-75.79 133,-55.25 145.29,-36.87 166.7,-26.05 187.23,-19.69"/>
<polygon fill="#63b8ff" stroke="#63b8ff" points="168.32,-108.66 178.88,-109.53 171.17,-102.26 168.32,-108.66"/>
</a>
</g>
</g>
<!-- Node7 -->
<g id="Node000007" class="node">
<title>Node7</title>
<g id="a_Node000007"><a xlink:href="../../d5/d92/_object_watcher_8hpp.html" target="_top" xlink:title=" ">
<polygon fill="white" stroke="#666666" points="281.88,-74.5 142.12,-74.5 142.12,-55.25 281.88,-55.25 281.88,-74.5"/>
<text text-anchor="middle" x="212" y="-61" font-family="Helvetica,sans-Serif" font-size="10.00">mimic++/ObjectWatcher.hpp</text>
</a>
</g>
</g>
<!-- Node4&#45;&gt;Node7 -->
<g id="edge6_Node000004_Node000007" class="edge">
<title>Node4&#45;&gt;Node7</title>
<g id="a_edge6_Node000004_Node000007"><a xlink:title=" ">
<path fill="none" stroke="#63b8ff" d="M207.62,-99.17C208.72,-90.8 209.95,-81.5 210.82,-74.86"/>
<polygon fill="#63b8ff" stroke="#63b8ff" points="204.19,-98.46 206.35,-108.83 211.13,-99.37 204.19,-98.46"/>
</a>
</g>
</g>
<!-- Node5&#45;&gt;Node6 -->
<g id="edge5_Node000005_Node000006" class="edge">
<title>Node5&#45;&gt;Node6</title>
<g id="a_edge5_Node000005_Node000006"><a xlink:title=" ">
<path fill="none" stroke="#63b8ff" d="M336.93,-50.53C313.79,-40.91 283.18,-28.17 262.82,-19.7"/>
<polygon fill="#63b8ff" stroke="#63b8ff" points="335.31,-53.65 345.89,-54.26 338,-47.19 335.31,-53.65"/>
</a>
</g>
</g>
<!-- Node8&#45;&gt;Node3 -->
<g id="edge10_Node000008_Node000003" class="edge">
<title>Node8&#45;&gt;Node3</title>
<g id="a_edge10_Node000008_Node000003"><a xlink:title=" ">
<path fill="none" stroke="#63b8ff" d="M223.88,-216.8C250.97,-207.12 287.48,-194.07 311.6,-185.45"/>
<polygon fill="#63b8ff" stroke="#63b8ff" points="222.94,-213.42 214.7,-220.08 225.3,-220.01 222.94,-213.42"/>
</a>
</g>
</g>
<!-- Node8&#45;&gt;Node4 -->
<g id="edge11_Node000008_Node000004" class="edge">
<title>Node8&#45;&gt;Node4</title>
<g id="a_edge11_Node000008_Node000004"><a xlink:title=" ">
<path fill="none" stroke="#63b8ff" d="M191.14,-209.6C194.85,-185.9 200.87,-147.47 203.59,-130.13"/>
<polygon fill="#63b8ff" stroke="#63b8ff" points="187.72,-208.83 189.63,-219.25 194.63,-209.91 187.72,-208.83"/>
</a>
</g>
</g>
<!-- Node8&#45;&gt;Node6 -->
<g id="edge12_Node000008_Node000006" class="edge">
<title>Node8&#45;&gt;Node6</title>
<g id="a_edge12_Node000008_Node000006"><a xlink:title=" ">
<path fill="none" stroke="#63b8ff" d="M171.98,-212.38C143.42,-179.47 89.86,-106.43 125,-55.25 138.44,-35.68 161.74,-24.69 183.96,-18.52"/>
<polygon fill="#63b8ff" stroke="#63b8ff" points="169,-214.29 178.27,-219.42 174.22,-209.63 169,-214.29"/>
</a>
</g>
</g>
<!-- Node9&#45;&gt;Node3 -->
<g id="edge20_Node000009_Node000003" class="edge">
<title>Node9&#45;&gt;Node3</title>
<g id="a_edge20_Node000009_Node000003"><a xlink:title=" ">
<path fill="none" stroke="#63b8ff" d="M434.36,-378.3C441.29,-370.63 448.38,-361 452,-350.75 454.85,-342.68 454.68,-339.62 452,-331.5 430.66,-266.88 370.85,-207.2 347,-185.26"/>
<polygon fill="#63b8ff" stroke="#63b8ff" points="432.06,-375.65 427.56,-385.25 437.06,-380.55 432.06,-375.65"/>
</a>
</g>
</g>
<!-- Node9&#45;&gt;Node6 -->
<g id="edge21_Node000009_Node000006" class="edge">
<title>Node9&#45;&gt;Node6</title>
<g id="a_edge21_Node000009_Node000006"><a xlink:title=" ">
<path fill="none" stroke="#63b8ff" d="M345.25,-391.45C226.52,-382.91 0,-357.37 0,-286.88 0,-286.88 0,-286.88 0,-119.12 0,-38.83 112.62,-17.61 183.89,-12.22"/>
<polygon fill="#63b8ff" stroke="#63b8ff" points="344.67,-394.92 354.89,-392.12 345.15,-387.94 344.67,-394.92"/>
</a>
</g>
</g>
<!-- Node10 -->
<g id="Node000010" class="node">
<title>Node10</title>
<g id="a_Node000010"><a xlink:href="../../d6/d17/_control_policy_8hpp.html" target="_top" xlink:title=" ">
<polygon fill="white" stroke="#666666" points="443.12,-350.75 310.88,-350.75 310.88,-331.5 443.12,-331.5 443.12,-350.75"/>
<text text-anchor="middle" x="377" y="-337.25" font-family="Helvetica,sans-Serif" font-size="10.00">mimic++/ControlPolicy.hpp</text>
</a>
</g>
</g>
<!-- Node9&#45;&gt;Node10 -->
<g id="edge16_Node000009_Node000010" class="edge">
<title>Node9&#45;&gt;Node10</title>
<g id="a_edge16_Node000009_Node000010"><a xlink:title=" ">
<path fill="none" stroke="#63b8ff" d="M402.86,-377.44C396.38,-368.59 388.84,-358.29 383.58,-351.11"/>
<polygon fill="#63b8ff" stroke="#63b8ff" points="399.93,-379.36 408.67,-385.36 405.58,-375.23 399.93,-379.36"/>
</a>
</g>
</g>
<!-- Node10&#45;&gt;Node2 -->
<g id="edge17_Node000010_Node000002" class="edge">
<title>Node10&#45;&gt;Node2</title>
<g id="a_edge17_Node000010_Node000002"><a xlink:title=" ">
<path fill="none" stroke="#63b8ff" d="M327.44,-328.45C285.92,-318.66 227.49,-304.9 189.43,-295.93"/>
<polygon fill="#63b8ff" stroke="#63b8ff" points="326.4,-331.8 336.93,-330.68 328,-324.98 326.4,-331.8"/>
</a>
</g>
</g>
<!-- Node10&#45;&gt;Node3 -->
<g id="edge18_Node000010_Node000003" class="edge">
<title>Node10&#45;&gt;Node3</title>
<g id="a_edge18_Node000010_Node000003"><a xlink:title=" ">
<path fill="none" stroke="#63b8ff" d="M372.19,-320.44C363.47,-284.75 345.39,-210.71 339.16,-185.22"/>
<polygon fill="#63b8ff" stroke="#63b8ff" points="368.72,-320.97 374.49,-329.85 375.52,-319.31 368.72,-320.97"/>
</a>
</g>
</g>
<!-- Node10&#45;&gt;Node6 -->
<g id="edge19_Node000010_Node000006" class="edge">
<title>Node10&#45;&gt;Node6</title>
<g id="a_edge19_Node000010_Node000006"><a xlink:title=" ">
<path fill="none" stroke="#63b8ff" d="M392.5,-322.4C432.81,-274.12 533.19,-138.36 465,-55.25 444.28,-30 357.46,-18.77 298.19,-13.97"/>
<polygon fill="#63b8ff" stroke="#63b8ff" points="389.9,-320.05 386.08,-329.93 395.23,-324.59 389.9,-320.05"/>
</a>
</g>
</g>
</g>
</svg>
