<?xml version="1.0" encoding="UTF-8" standalone="no"?>
<!DOCTYPE svg PUBLIC "-//W3C//DTD SVG 1.1//EN"
 "http://www.w3.org/Graphics/SVG/1.1/DTD/svg11.dtd">
<!-- Generated by graphviz version 12.2.1 (20241206.2353)
 -->
<!-- Title: mimic++/policies/FinalizerPolicies.hpp Pages: 1 -->
<!--zoomable 326 -->

<svg id="main" version="1.1" xmlns="http://www.w3.org/2000/svg" xmlns:xlink="http://www.w3.org/1999/xlink" xml:space="preserve" onload="init(evt)">

<style type="text/css"><![CDATA[
.node, .edge {opacity: 0.7;}
.node.selected, .edge.selected {opacity: 1;}
.edge:hover path { stroke: red; }
.edge:hover polygon { stroke: red; fill: red; }
]]></style>

<defs>
  <circle id="rim" cx="0" cy="0" r="7"/>
  <circle id="rim2" cx="0" cy="0" r="3.5"/>
  <g id="zoomPlus">
    <use xlink:href="#rim" fill="#404040"><set attributeName="fill" to="#808080" begin="zoomplus.mouseover" end="zoomplus.mouseout"/></use>
    <path d="M-4,0h8M0,-4v8" fill="none" stroke="white" stroke-width="1.5" pointer-events="none"/>
  </g>
  <g id="zoomMin">
    <use xlink:href="#rim" fill="#404040"><set attributeName="fill" to="#808080" begin="zoomminus.mouseover" end="zoomminus.mouseout"/></use>
    <path d="M-4,0h8" fill="none" stroke="white" stroke-width="1.5" pointer-events="none"/>
  </g>
  <g id="arrowUp" transform="translate(30 24)">
    <use xlink:href="#rim"/>
    <path pointer-events="none" fill="none" stroke="white" stroke-width="1.5" d="M0,-3.0v7 M-2.5,-0.5L0,-3.0L2.5,-0.5"/>
  </g>
  <g id="arrowRight" transform="rotate(90) translate(36 -43)">
    <use xlink:href="#rim"/>
    <path pointer-events="none" fill="none" stroke="white" stroke-width="1.5" d="M0,-3.0v7 M-2.5,-0.5L0,-3.0L2.5,-0.5"/>
  </g>
  <g id="arrowDown" transform="rotate(180) translate(-30 -48)">
    <use xlink:href="#rim"/>
    <path pointer-events="none" fill="none" stroke="white" stroke-width="1.5" d="M0,-3.0v7 M-2.5,-0.5L0,-3.0L2.5,-0.5"/>
  </g>
  <g id="arrowLeft" transform="rotate(270) translate(-36 17)">
    <use xlink:href="#rim"/>
    <path pointer-events="none" fill="none" stroke="white" stroke-width="1.5" d="M0,-3.0v7 M-2.5,-0.5L0,-3.0L2.5,-0.5"/>
  </g>
  <g id="resetDef">
    <use xlink:href="#rim2" fill="#404040"><set attributeName="fill" to="#808080" begin="reset.mouseover" end="reset.mouseout"/></use>
  </g>
</defs>
<script type="application/ecmascript">
var viewWidth = 758;
var viewHeight = 326;
var sectionId = 'dynsection-0';
</script>
<script type="application/ecmascript" xlink:href="../../svg.min.js"/>
<svg id="graph" class="graph">
<g id="viewport">
<title>mimic++/policies/FinalizerPolicies.hpp</title>
<!-- Node1 -->
<g id="Node000001" class="node">
<title>Node1</title>
<g id="a_Node000001"><a xlink:title=" ">
<polygon fill="#999999" stroke="#666666" points="527.88,-318 398.62,-318 398.62,-287.5 527.88,-287.5 527.88,-318"/>
<text text-anchor="start" x="406.62" y="-304.5" font-family="Helvetica,sans-Serif" font-size="10.00">mimic++/policies/Finalizer</text>
<text text-anchor="middle" x="463.25" y="-293.25" font-family="Helvetica,sans-Serif" font-size="10.00">Policies.hpp</text>
</a>
</g>
</g>
<!-- Node2 -->
<g id="Node000002" class="node">
<title>Node2</title>
<g id="a_Node000002"><a xlink:href="../../df/dde/_fwd_8hpp.html" target="_top" xlink:title=" ">
<polygon fill="white" stroke="#666666" points="412.25,-74.5 318.25,-74.5 318.25,-55.25 412.25,-55.25 412.25,-74.5"/>
<text text-anchor="middle" x="365.25" y="-61" font-family="Helvetica,sans-Serif" font-size="10.00">mimic++/Fwd.hpp</text>
</a>
</g>
</g>
<!-- Node1&#45;&gt;Node2 -->
<g id="edge1_Node000001_Node000002" class="edge">
<title>Node1&#45;&gt;Node2</title>
<g id="a_edge1_Node000001_Node000002"><a xlink:title=" ">
<path fill="none" stroke="#63b8ff" d="M421.42,-287.12C379.53,-269.94 317.49,-237 290.25,-185 270.08,-146.49 314.16,-103.98 342.93,-81.62"/>
<polygon fill="#63b8ff" stroke="#63b8ff" points="344.86,-84.55 350.78,-75.75 340.67,-78.94 344.86,-84.55"/>
</a>
</g>
</g>
<!-- Node5 -->
<g id="Node000005" class="node">
<title>Node5</title>
<g id="a_Node000005"><a xlink:href="../../d4/d2c/_utility_8hpp.html" target="_top" xlink:title=" ">
<polygon fill="white" stroke="#666666" points="239.25,-129.75 139.25,-129.75 139.25,-110.5 239.25,-110.5 239.25,-129.75"/>
<text text-anchor="middle" x="189.25" y="-116.25" font-family="Helvetica,sans-Serif" font-size="10.00">mimic++/Utility.hpp</text>
</a>
</g>
</g>
<!-- Node1&#45;&gt;Node5 -->
<g id="edge4_Node000001_Node000005" class="edge">
<title>Node1&#45;&gt;Node5</title>
<g id="a_edge4_Node000001_Node000005"><a xlink:title=" ">
<path fill="none" stroke="#63b8ff" d="M398.26,-296.24C334.8,-289.52 244.23,-275.91 219.25,-251.5 189.43,-222.36 186.68,-169.98 187.7,-141.28"/>
<polygon fill="#63b8ff" stroke="#63b8ff" points="191.18,-141.63 188.26,-131.44 184.2,-141.23 191.18,-141.63"/>
</a>
</g>
</g>
<!-- Node10 -->
<g id="Node000010" class="node">
<title>Node10</title>
<g id="a_Node000010"><a xlink:title=" ">
<polygon fill="#e0e0e0" stroke="#999999" points="38.5,-74.5 0,-74.5 0,-55.25 38.5,-55.25 38.5,-74.5"/>
<text text-anchor="middle" x="19.25" y="-61" font-family="Helvetica,sans-Serif" font-size="10.00">utility</text>
</a>
</g>
</g>
<!-- Node1&#45;&gt;Node10 -->
<g id="edge34_Node000001_Node000010" class="edge">
<title>Node1&#45;&gt;Node10</title>
<g id="a_edge34_Node000001_Node000010"><a xlink:title=" ">
<path fill="none" stroke="#63b8ff" d="M398.23,-299.09C342.22,-294.62 260.51,-282.75 196.25,-251.5 122.4,-215.58 109.78,-192.88 57.25,-129.75 45.64,-115.8 35.32,-97.9 28.38,-84.6"/>
<polygon fill="#63b8ff" stroke="#63b8ff" points="31.69,-83.4 24.06,-76.05 25.44,-86.56 31.69,-83.4"/>
</a>
</g>
</g>
<!-- Node11 -->
<g id="Node000011" class="node">
<title>Node11</title>
<g id="a_Node000011"><a xlink:href="../../d2/dfd/_argument_list_8hpp.html" target="_top" xlink:title=" ">
<polygon fill="white" stroke="#666666" points="530.88,-251.5 395.62,-251.5 395.62,-221 530.88,-221 530.88,-251.5"/>
<text text-anchor="start" x="403.62" y="-238" font-family="Helvetica,sans-Serif" font-size="10.00">mimic++/policies/Argument</text>
<text text-anchor="middle" x="463.25" y="-226.75" font-family="Helvetica,sans-Serif" font-size="10.00">List.hpp</text>
</a>
</g>
</g>
<!-- Node1&#45;&gt;Node11 -->
<g id="edge12_Node000001_Node000011" class="edge">
<title>Node1&#45;&gt;Node11</title>
<g id="a_edge12_Node000001_Node000011"><a xlink:title=" ">
<path fill="none" stroke="#63b8ff" d="M463.25,-287.11C463.25,-280.02 463.25,-271.29 463.25,-263.13"/>
<polygon fill="#63b8ff" stroke="#63b8ff" points="466.75,-263.34 463.25,-253.34 459.75,-263.34 466.75,-263.34"/>
</a>
</g>
</g>
<!-- Node14 -->
<g id="Node000014" class="node">
<title>Node14</title>
<g id="a_Node000014"><a xlink:title=" ">
<polygon fill="#e0e0e0" stroke="#999999" points="671.12,-74.5 615.38,-74.5 615.38,-55.25 671.12,-55.25 671.12,-74.5"/>
<text text-anchor="middle" x="643.25" y="-61" font-family="Helvetica,sans-Serif" font-size="10.00">concepts</text>
</a>
</g>
</g>
<!-- Node1&#45;&gt;Node14 -->
<g id="edge31_Node000001_Node000014" class="edge">
<title>Node1&#45;&gt;Node14</title>
<g id="a_edge31_Node000001_Node000014"><a xlink:title=" ">
<path fill="none" stroke="#63b8ff" d="M528.22,-289.47C584.08,-275.04 661.05,-245 696.25,-185 716.56,-150.38 683.3,-106.56 660.94,-82.9"/>
<polygon fill="#63b8ff" stroke="#63b8ff" points="663.61,-80.62 654.1,-75.95 658.63,-85.53 663.61,-80.62"/>
</a>
</g>
</g>
<!-- Node17 -->
<g id="Node000017" class="node">
<title>Node17</title>
<g id="a_Node000017"><a xlink:title=" ">
<polygon fill="#e0e0e0" stroke="#999999" points="749.75,-74.5 688.75,-74.5 688.75,-55.25 749.75,-55.25 749.75,-74.5"/>
<text text-anchor="middle" x="719.25" y="-61" font-family="Helvetica,sans-Serif" font-size="10.00">type_traits</text>
</a>
</g>
</g>
<!-- Node1&#45;&gt;Node17 -->
<g id="edge33_Node000001_Node000017" class="edge">
<title>Node1&#45;&gt;Node17</title>
<g id="a_edge33_Node000001_Node000017"><a xlink:title=" ">
<path fill="none" stroke="#63b8ff" d="M528.27,-295.55C568.55,-289.29 619.91,-276.71 659.25,-251.5 691.31,-230.96 699.62,-220.55 713.25,-185 725.82,-152.22 724.37,-110.61 721.96,-86.25"/>
<polygon fill="#63b8ff" stroke="#63b8ff" points="725.45,-85.96 720.82,-76.43 718.5,-86.77 725.45,-85.96"/>
</a>
</g>
</g>
<!-- Node18 -->
<g id="Node000018" class="node">
<title>Node18</title>
<g id="a_Node000018"><a xlink:title=" ">
<polygon fill="#e0e0e0" stroke="#999999" points="687.25,-185 629.25,-185 629.25,-165.75 687.25,-165.75 687.25,-185"/>
<text text-anchor="middle" x="658.25" y="-171.5" font-family="Helvetica,sans-Serif" font-size="10.00">functional</text>
</a>
</g>
</g>
<!-- Node1&#45;&gt;Node18 -->
<g id="edge32_Node000001_Node000018" class="edge">
<title>Node1&#45;&gt;Node18</title>
<g id="a_edge32_Node000001_Node000018"><a xlink:title=" ">
<path fill="none" stroke="#63b8ff" d="M486,-287.12C523.28,-263.15 597.01,-215.75 634.77,-191.47"/>
<polygon fill="#63b8ff" stroke="#63b8ff" points="636.61,-194.45 643.13,-186.1 632.83,-188.56 636.61,-194.45"/>
</a>
</g>
</g>
<!-- Node3 -->
<g id="Node000003" class="node">
<title>Node3</title>
<g id="a_Node000003"><a xlink:title=" ">
<polygon fill="#e0e0e0" stroke="#999999" points="385.25,-19.25 345.25,-19.25 345.25,0 385.25,0 385.25,-19.25"/>
<text text-anchor="middle" x="365.25" y="-5.75" font-family="Helvetica,sans-Serif" font-size="10.00">string</text>
</a>
</g>
</g>
<!-- Node2&#45;&gt;Node3 -->
<g id="edge2_Node000002_Node000003" class="edge">
<title>Node2&#45;&gt;Node3</title>
<g id="a_edge2_Node000002_Node000003"><a xlink:title=" ">
<path fill="none" stroke="#63b8ff" d="M365.25,-55.08C365.25,-48.57 365.25,-39.42 365.25,-31.12"/>
<polygon fill="#63b8ff" stroke="#63b8ff" points="368.75,-31.12 365.25,-21.12 361.75,-31.12 368.75,-31.12"/>
</a>
</g>
</g>
<!-- Node4 -->
<g id="Node000004" class="node">
<title>Node4</title>
<g id="a_Node000004"><a xlink:title=" ">
<polygon fill="#e0e0e0" stroke="#999999" points="213,-19.25 147.5,-19.25 147.5,0 213,0 213,-19.25"/>
<text text-anchor="middle" x="180.25" y="-5.75" font-family="Helvetica,sans-Serif" font-size="10.00">string_view</text>
</a>
</g>
</g>
<!-- Node2&#45;&gt;Node4 -->
<g id="edge3_Node000002_Node000004" class="edge">
<title>Node2&#45;&gt;Node4</title>
<g id="a_edge3_Node000002_Node000004"><a xlink:title=" ">
<path fill="none" stroke="#63b8ff" d="M333.87,-54.84C303.3,-46.04 256.63,-32.61 222.74,-22.86"/>
<polygon fill="#63b8ff" stroke="#63b8ff" points="223.82,-19.52 213.24,-20.12 221.88,-26.25 223.82,-19.52"/>
</a>
</g>
</g>
<!-- Node5&#45;&gt;Node2 -->
<g id="edge5_Node000005_Node000002" class="edge">
<title>Node5&#45;&gt;Node2</title>
<g id="a_edge5_Node000005_Node000002"><a xlink:title=" ">
<path fill="none" stroke="#63b8ff" d="M219.11,-110.09C248.06,-101.33 292.2,-87.98 324.4,-78.23"/>
<polygon fill="#63b8ff" stroke="#63b8ff" points="325.24,-81.64 333.8,-75.39 323.21,-74.94 325.24,-81.64"/>
</a>
</g>
</g>
<!-- Node5&#45;&gt;Node4 -->
<g id="edge9_Node000005_Node000004" class="edge">
<title>Node5&#45;&gt;Node4</title>
<g id="a_edge9_Node000005_Node000004"><a xlink:title=" ">
<path fill="none" stroke="#63b8ff" d="M138.77,-110.01C118.59,-103.61 97.31,-92.79 85.25,-74.5 68.84,-49.6 104.3,-31.95 136.46,-21.6"/>
<polygon fill="#63b8ff" stroke="#63b8ff" points="137.15,-25.05 145.72,-18.81 135.13,-18.34 137.15,-25.05"/>
</a>
</g>
</g>
<!-- Node6 -->
<g id="Node000006" class="node">
<title>Node6</title>
<g id="a_Node000006"><a xlink:title=" ">
<polygon fill="#e0e0e0" stroke="#999999" points="131.75,-74.5 94.75,-74.5 94.75,-55.25 131.75,-55.25 131.75,-74.5"/>
<text text-anchor="middle" x="113.25" y="-61" font-family="Helvetica,sans-Serif" font-size="10.00">array</text>
</a>
</g>
</g>
<!-- Node5&#45;&gt;Node6 -->
<g id="edge6_Node000005_Node000006" class="edge">
<title>Node5&#45;&gt;Node6</title>
<g id="a_edge6_Node000005_Node000006"><a xlink:title=" ">
<path fill="none" stroke="#63b8ff" d="M176.36,-110.09C165.22,-102.29 148.88,-90.84 135.61,-81.54"/>
<polygon fill="#63b8ff" stroke="#63b8ff" points="137.64,-78.69 127.45,-75.82 133.63,-84.43 137.64,-78.69"/>
</a>
</g>
</g>
<!-- Node7 -->
<g id="Node000007" class="node">
<title>Node7</title>
<g id="a_Node000007"><a xlink:title=" ">
<polygon fill="#e0e0e0" stroke="#999999" points="198.38,-74.5 150.12,-74.5 150.12,-55.25 198.38,-55.25 198.38,-74.5"/>
<text text-anchor="middle" x="174.25" y="-61" font-family="Helvetica,sans-Serif" font-size="10.00">cassert</text>
</a>
</g>
</g>
<!-- Node5&#45;&gt;Node7 -->
<g id="edge7_Node000005_Node000007" class="edge">
<title>Node5&#45;&gt;Node7</title>
<g id="a_edge7_Node000005_Node000007"><a xlink:title=" ">
<path fill="none" stroke="#63b8ff" d="M186.77,-110.33C184.9,-103.67 182.24,-94.24 179.86,-85.78"/>
<polygon fill="#63b8ff" stroke="#63b8ff" points="183.27,-84.99 177.19,-76.32 176.53,-86.89 183.27,-84.99"/>
</a>
</g>
</g>
<!-- Node8 -->
<g id="Node000008" class="node">
<title>Node8</title>
<g id="a_Node000008"><a xlink:title=" ">
<polygon fill="#e0e0e0" stroke="#999999" points="300.38,-74.5 216.12,-74.5 216.12,-55.25 300.38,-55.25 300.38,-74.5"/>
<text text-anchor="middle" x="258.25" y="-61" font-family="Helvetica,sans-Serif" font-size="10.00">source_location</text>
</a>
</g>
</g>
<!-- Node5&#45;&gt;Node8 -->
<g id="edge8_Node000005_Node000008" class="edge">
<title>Node5&#45;&gt;Node8</title>
<g id="a_edge8_Node000005_Node000008"><a xlink:title=" ">
<path fill="none" stroke="#63b8ff" d="M200.95,-110.09C211.03,-102.32 225.79,-90.92 237.81,-81.65"/>
<polygon fill="#63b8ff" stroke="#63b8ff" points="239.74,-84.58 245.52,-75.7 235.46,-79.04 239.74,-84.58"/>
</a>
</g>
</g>
<!-- Node9 -->
<g id="Node000009" class="node">
<title>Node9</title>
<g id="a_Node000009"><a xlink:title=" ">
<polygon fill="#e0e0e0" stroke="#999999" points="467.75,-74.5 430.75,-74.5 430.75,-55.25 467.75,-55.25 467.75,-74.5"/>
<text text-anchor="middle" x="449.25" y="-61" font-family="Helvetica,sans-Serif" font-size="10.00">tuple</text>
</a>
</g>
</g>
<!-- Node5&#45;&gt;Node9 -->
<g id="edge10_Node000005_Node000009" class="edge">
<title>Node5&#45;&gt;Node9</title>
<g id="a_edge10_Node000005_Node000009"><a xlink:title=" ">
<path fill="none" stroke="#63b8ff" d="M239.38,-111.11C284.2,-103.57 351.86,-91.31 419.5,-74.7"/>
<polygon fill="#63b8ff" stroke="#63b8ff" points="420.02,-78.18 428.88,-72.37 418.33,-71.39 420.02,-78.18"/>
</a>
</g>
</g>
<!-- Node5&#45;&gt;Node10 -->
<g id="edge11_Node000005_Node000010" class="edge">
<title>Node5&#45;&gt;Node10</title>
<g id="a_edge11_Node000005_Node000010"><a xlink:title=" ">
<path fill="none" stroke="#63b8ff" d="M160.41,-110.09C129.53,-100.42 80.75,-85.14 49.39,-75.31"/>
<polygon fill="#63b8ff" stroke="#63b8ff" points="50.71,-72.06 40.13,-72.41 48.62,-78.74 50.71,-72.06"/>
</a>
</g>
</g>
<!-- Node11&#45;&gt;Node9 -->
<g id="edge28_Node000011_Node000009" class="edge">
<title>Node11&#45;&gt;Node9</title>
<g id="a_edge28_Node000011_Node000009"><a xlink:title=" ">
<path fill="none" stroke="#63b8ff" d="M457.56,-220.77C449.14,-197.63 434.79,-150.84 439.25,-110.5 440.16,-102.31 441.97,-93.43 443.81,-85.76"/>
<polygon fill="#63b8ff" stroke="#63b8ff" points="447.18,-86.69 446.3,-76.13 440.41,-84.94 447.18,-86.69"/>
</a>
</g>
</g>
<!-- Node11&#45;&gt;Node10 -->
<g id="edge30_Node000011_Node000010" class="edge">
<title>Node11&#45;&gt;Node10</title>
<g id="a_edge30_Node000011_Node000010"><a xlink:title=" ">
<path fill="none" stroke="#63b8ff" d="M395.22,-225.99C317.13,-213.19 187.09,-185.11 88.25,-129.75 66.75,-117.71 46.62,-97.66 33.71,-83.24"/>
<polygon fill="#63b8ff" stroke="#63b8ff" points="36.52,-81.12 27.33,-75.85 31.22,-85.7 36.52,-81.12"/>
</a>
</g>
</g>
<!-- Node12 -->
<g id="Node000012" class="node">
<title>Node12</title>
<g id="a_Node000012"><a xlink:href="../../dc/d44/_call_8hpp.html" target="_top" xlink:title=" ">
<polygon fill="white" stroke="#666666" points="391.12,-185 299.38,-185 299.38,-165.75 391.12,-165.75 391.12,-185"/>
<text text-anchor="middle" x="345.25" y="-171.5" font-family="Helvetica,sans-Serif" font-size="10.00">mimic++/Call.hpp</text>
</a>
</g>
</g>
<!-- Node11&#45;&gt;Node12 -->
<g id="edge13_Node000011_Node000012" class="edge">
<title>Node11&#45;&gt;Node12</title>
<g id="a_edge13_Node000011_Node000012"><a xlink:title=" ">
<path fill="none" stroke="#63b8ff" d="M433.78,-220.55C415.38,-211.36 391.81,-199.61 373.62,-190.53"/>
<polygon fill="#63b8ff" stroke="#63b8ff" points="375.21,-187.41 364.7,-186.08 372.09,-193.68 375.21,-187.41"/>
</a>
</g>
</g>
<!-- Node11&#45;&gt;Node14 -->
<g id="edge26_Node000011_Node000014" class="edge">
<title>Node11&#45;&gt;Node14</title>
<g id="a_edge26_Node000011_Node000014"><a xlink:title=" ">
<path fill="none" stroke="#63b8ff" d="M479.41,-220.74C501.81,-200.56 543.47,-162.77 578.25,-129.75 594.84,-113.99 613.43,-95.65 626.47,-82.68"/>
<polygon fill="#63b8ff" stroke="#63b8ff" points="628.84,-85.26 633.44,-75.72 623.89,-80.31 628.84,-85.26"/>
</a>
</g>
</g>
<!-- Node11&#45;&gt;Node17 -->
<g id="edge29_Node000011_Node000017" class="edge">
<title>Node11&#45;&gt;Node17</title>
<g id="a_edge29_Node000011_Node000017"><a xlink:title=" ">
<path fill="none" stroke="#63b8ff" d="M487.19,-220.51C503.16,-210.61 524.57,-197.19 543.25,-185 598.98,-148.65 663.54,-104.4 696.82,-81.41"/>
<polygon fill="#63b8ff" stroke="#63b8ff" points="698.63,-84.42 704.86,-75.86 694.65,-78.67 698.63,-84.42"/>
</a>
</g>
</g>
<!-- Node11&#45;&gt;Node18 -->
<g id="edge27_Node000011_Node000018" class="edge">
<title>Node11&#45;&gt;Node18</title>
<g id="a_edge27_Node000011_Node000018"><a xlink:title=" ">
<path fill="none" stroke="#63b8ff" d="M511.95,-220.55C544.71,-210.66 587.36,-197.78 618.15,-188.48"/>
<polygon fill="#63b8ff" stroke="#63b8ff" points="618.91,-191.91 627.47,-185.67 616.88,-185.21 618.91,-191.91"/>
</a>
</g>
</g>
<!-- Node12&#45;&gt;Node2 -->
<g id="edge14_Node000012_Node000002" class="edge">
<title>Node12&#45;&gt;Node2</title>
<g id="a_edge14_Node000012_Node000002"><a xlink:title=" ">
<path fill="none" stroke="#63b8ff" d="M346.89,-165.5C350.07,-148.25 357.15,-109.83 361.53,-86.06"/>
<polygon fill="#63b8ff" stroke="#63b8ff" points="364.95,-86.83 363.32,-76.37 358.06,-85.56 364.95,-86.83"/>
</a>
</g>
</g>
<!-- Node12&#45;&gt;Node5 -->
<g id="edge22_Node000012_Node000005" class="edge">
<title>Node12&#45;&gt;Node5</title>
<g id="a_edge22_Node000012_Node000005"><a xlink:title=" ">
<path fill="none" stroke="#63b8ff" d="M318.79,-165.34C293.46,-156.7 255.02,-143.57 226.58,-133.87"/>
<polygon fill="#63b8ff" stroke="#63b8ff" points="227.87,-130.61 217.28,-130.69 225.61,-137.23 227.87,-130.61"/>
</a>
</g>
</g>
<!-- Node12&#45;&gt;Node8 -->
<g id="edge23_Node000012_Node000008" class="edge">
<title>Node12&#45;&gt;Node8</title>
<g id="a_edge23_Node000012_Node000008"><a xlink:title=" ">
<path fill="none" stroke="#63b8ff" d="M338.13,-165.5C323.86,-147.69 291.49,-107.33 272.63,-83.81"/>
<polygon fill="#63b8ff" stroke="#63b8ff" points="275.4,-81.67 266.41,-76.06 269.94,-86.05 275.4,-81.67"/>
</a>
</g>
</g>
<!-- Node12&#45;&gt;Node9 -->
<g id="edge24_Node000012_Node000009" class="edge">
<title>Node12&#45;&gt;Node9</title>
<g id="a_edge24_Node000012_Node000009"><a xlink:title=" ">
<path fill="none" stroke="#63b8ff" d="M353.34,-165.63C364.8,-153.27 386.47,-130.01 405.25,-110.5 414.11,-101.29 424.11,-91.13 432.33,-82.84"/>
<polygon fill="#63b8ff" stroke="#63b8ff" points="434.79,-85.34 439.35,-75.78 429.82,-80.4 434.79,-85.34"/>
</a>
</g>
</g>
<!-- Node12&#45;&gt;Node10 -->
<g id="edge25_Node000012_Node000010" class="edge">
<title>Node12&#45;&gt;Node10</title>
<g id="a_edge25_Node000012_Node000010"><a xlink:title=" ">
<path fill="none" stroke="#63b8ff" d="M299.02,-166.55C245.41,-157.17 160.54,-141.27 130.25,-129.75 97.42,-117.26 62.84,-95.86 41.17,-81.31"/>
<polygon fill="#63b8ff" stroke="#63b8ff" points="43.38,-78.58 33.15,-75.82 39.43,-84.36 43.38,-78.58"/>
</a>
</g>
</g>
<!-- Node13 -->
<g id="Node000013" class="node">
<title>Node13</title>
<g id="a_Node000013"><a xlink:href="../../d8/d32/_type_traits_8hpp.html" target="_top" xlink:title=" ">
<polygon fill="white" stroke="#666666" points="568.75,-129.75 447.75,-129.75 447.75,-110.5 568.75,-110.5 568.75,-129.75"/>
<text text-anchor="middle" x="508.25" y="-116.25" font-family="Helvetica,sans-Serif" font-size="10.00">mimic++/TypeTraits.hpp</text>
</a>
</g>
</g>
<!-- Node12&#45;&gt;Node13 -->
<g id="edge15_Node000012_Node000013" class="edge">
<title>Node12&#45;&gt;Node13</title>
<g id="a_edge15_Node000012_Node000013"><a xlink:title=" ">
<path fill="none" stroke="#63b8ff" d="M372.9,-165.34C399.48,-156.66 439.89,-143.46 469.64,-133.74"/>
<polygon fill="#63b8ff" stroke="#63b8ff" points="470.61,-137.1 479.02,-130.67 468.43,-130.45 470.61,-137.1"/>
</a>
</g>
</g>
<!-- Node13&#45;&gt;Node2 -->
<g id="edge16_Node000013_Node000002" class="edge">
<title>Node13&#45;&gt;Node2</title>
<g id="a_edge16_Node000013_Node000002"><a xlink:title=" ">
<path fill="none" stroke="#63b8ff" d="M483.99,-110.09C460.98,-101.52 426.16,-88.56 400.17,-78.88"/>
<polygon fill="#63b8ff" stroke="#63b8ff" points="401.64,-75.69 391.05,-75.48 399.2,-82.25 401.64,-75.69"/>
</a>
</g>
</g>
<!-- Node13&#45;&gt;Node9 -->
<g id="edge20_Node000013_Node000009" class="edge">
<title>Node13&#45;&gt;Node9</title>
<g id="a_edge20_Node000013_Node000009"><a xlink:title=" ">
<path fill="none" stroke="#63b8ff" d="M498.24,-110.09C489.88,-102.55 477.75,-91.6 467.65,-82.48"/>
<polygon fill="#63b8ff" stroke="#63b8ff" points="470,-79.89 460.23,-75.79 465.31,-85.09 470,-79.89"/>
</a>
</g>
</g>
<!-- Node13&#45;&gt;Node14 -->
<g id="edge17_Node000013_Node000014" class="edge">
<title>Node13&#45;&gt;Node14</title>
<g id="a_edge17_Node000013_Node000014"><a xlink:title=" ">
<path fill="none" stroke="#63b8ff" d="M531.15,-110.09C552.68,-101.6 585.16,-88.79 609.63,-79.14"/>
<polygon fill="#63b8ff" stroke="#63b8ff" points="610.81,-82.43 618.83,-75.51 608.24,-75.92 610.81,-82.43"/>
</a>
</g>
</g>
<!-- Node15 -->
<g id="Node000015" class="node">
<title>Node15</title>
<g id="a_Node000015"><a xlink:title=" ">
<polygon fill="#e0e0e0" stroke="#999999" points="597.38,-74.5 549.12,-74.5 549.12,-55.25 597.38,-55.25 597.38,-74.5"/>
<text text-anchor="middle" x="573.25" y="-61" font-family="Helvetica,sans-Serif" font-size="10.00">cstddef</text>
</a>
</g>
</g>
<!-- Node13&#45;&gt;Node15 -->
<g id="edge18_Node000013_Node000015" class="edge">
<title>Node13&#45;&gt;Node15</title>
<g id="a_edge18_Node000013_Node000015"><a xlink:title=" ">
<path fill="none" stroke="#63b8ff" d="M519.28,-110.09C528.67,-102.4 542.4,-91.15 553.66,-81.93"/>
<polygon fill="#63b8ff" stroke="#63b8ff" points="555.7,-84.78 561.22,-75.73 551.26,-79.36 555.7,-84.78"/>
</a>
</g>
</g>
<!-- Node16 -->
<g id="Node000016" class="node">
<title>Node16</title>
<g id="a_Node000016"><a xlink:title=" ">
<polygon fill="#e0e0e0" stroke="#999999" points="530.88,-74.5 485.62,-74.5 485.62,-55.25 530.88,-55.25 530.88,-74.5"/>
<text text-anchor="middle" x="508.25" y="-61" font-family="Helvetica,sans-Serif" font-size="10.00">cstdint</text>
</a>
</g>
</g>
<!-- Node13&#45;&gt;Node16 -->
<g id="edge19_Node000013_Node000016" class="edge">
<title>Node13&#45;&gt;Node16</title>
<g id="a_edge19_Node000013_Node000016"><a xlink:title=" ">
<path fill="none" stroke="#63b8ff" d="M508.25,-110.33C508.25,-103.82 508.25,-94.67 508.25,-86.37"/>
<polygon fill="#63b8ff" stroke="#63b8ff" points="511.75,-86.37 508.25,-76.37 504.75,-86.37 511.75,-86.37"/>
</a>
</g>
</g>
<!-- Node13&#45;&gt;Node17 -->
<g id="edge21_Node000013_Node000017" class="edge">
<title>Node13&#45;&gt;Node17</title>
<g id="a_edge21_Node000013_Node000017"><a xlink:title=" ">
<path fill="none" stroke="#63b8ff" d="M544.04,-110.09C580.96,-100.77 638.5,-86.25 677.47,-76.42"/>
<polygon fill="#63b8ff" stroke="#63b8ff" points="678.13,-79.86 686.97,-74.02 676.42,-73.08 678.13,-79.86"/>
</a>
</g>
</g>
</g>
</svg>

<g id="navigator" transform="translate(0 0)" fill="#404254">
  <rect fill="#f2f5e9" fill-opacity="0.5" stroke="#606060" stroke-width=".5" x="0" y="0" width="60" height="60"/>
  <use id="zoomplus" xlink:href="#zoomPlus" x="17" y="9" onmousedown="handleZoom(evt,'in')"/>
  <use id="zoomminus" xlink:href="#zoomMin" x="42" y="9" onmousedown="handleZoom(evt,'out')"/>
  <use id="reset" xlink:href="#resetDef" x="30" y="36" onmousedown="handleReset()"/>
   <use id="arrowup" xlink:href="#arrowUp" x="0" y="0" onmousedown="handlePan(0,-1)"/>
  <use id="arrowright" xlink:href="#arrowRight" x="0" y="0" onmousedown="handlePan(1,0)"/>
  <use id="arrowdown" xlink:href="#arrowDown" x="0" y="0" onmousedown="handlePan(0,1)"/>
  <use id="arrowleft" xlink:href="#arrowLeft" x="0" y="0" onmousedown="handlePan(-1,0)"/>
</g>
<svg viewBox="0 0 15 15" width="100%" height="30px" preserveAspectRatio="xMaxYMin meet">
 <g id="arrow_out" transform="scale(0.3 0.3)">
  <a xlink:href="_finalizer_policies_8hpp__incl_org.svg" target="_base">
   <rect id="button" ry="5" rx="5" y="6" x="6" height="38" width="38"
        fill="#f2f5e9" fill-opacity="0.5" stroke="#606060" stroke-width="1.0"/>
   <path id="arrow"
     d="M 11.500037,31.436501 C 11.940474,20.09759 22.043105,11.32322 32.158766,21.979434 L 37.068811,17.246167 C 37.068811,17.246167 37.088388,32 37.088388,32 L 22.160133,31.978069 C 22.160133,31.978069 26.997745,27.140456 26.997745,27.140456 C 18.528582,18.264221 13.291696,25.230495 11.500037,31.436501 z"
     style="fill:#404040;"/>
  </a>
 </g>
</svg>

<style type='text/css'>
<![CDATA[
[data-mouse-over-selected='false'] { opacity: 0.7; }
[data-mouse-over-selected='true']  { opacity: 1.0; }
]]>
</style>
<script type="application/ecmascript"><![CDATA[
document.addEventListener('DOMContentLoaded', (event) => {
  highlightEdges();
  highlightAdjacentNodes();
});
]]></script>
</svg>
