<?xml version="1.0" encoding="UTF-8" standalone="no"?>
<!DOCTYPE svg PUBLIC "-//W3C//DTD SVG 1.1//EN"
 "http://www.w3.org/Graphics/SVG/1.1/DTD/svg11.dtd">
<!-- Generated by graphviz version 12.2.1 (20241206.2353)
 -->
<!-- Title: mimic++/policies/FinalizerPolicies.hpp Pages: 1 -->
<svg width="1640pt" height="492pt"
 viewBox="0.00 0.00 1640.00 491.75" xmlns="http://www.w3.org/2000/svg" xmlns:xlink="http://www.w3.org/1999/xlink">
<g id="graph0" class="graph" transform="scale(1 1) rotate(0) translate(4 487.75)">
<title>mimic++/policies/FinalizerPolicies.hpp</title>
<!-- Node1 -->
<g id="Node000001" class="node">
<title>Node1</title>
<g id="a_Node000001"><a xlink:title=" ">
<polygon fill="#999999" stroke="#666666" points="1309.62,-483.75 1180.38,-483.75 1180.38,-453.25 1309.62,-453.25 1309.62,-483.75"/>
<text text-anchor="start" x="1188.38" y="-470.25" font-family="Helvetica,sans-Serif" font-size="10.00">mimic++/policies/Finalizer</text>
<text text-anchor="middle" x="1245" y="-459" font-family="Helvetica,sans-Serif" font-size="10.00">Policies.hpp</text>
</a>
</g>
</g>
<!-- Node2 -->
<g id="Node000002" class="node">
<title>Node2</title>
<g id="a_Node000002"><a xlink:href="../../df/dde/_fwd_8hpp.html" target="_top" xlink:title=" ">
<polygon fill="white" stroke="#666666" points="518,-74.5 424,-74.5 424,-55.25 518,-55.25 518,-74.5"/>
<text text-anchor="middle" x="471" y="-61" font-family="Helvetica,sans-Serif" font-size="10.00">mimic++/Fwd.hpp</text>
</a>
</g>
</g>
<!-- Node1&#45;&gt;Node2 -->
<g id="edge1_Node000001_Node000002" class="edge">
<title>Node1&#45;&gt;Node2</title>
<g id="a_edge1_Node000001_Node000002"><a xlink:title=" ">
<path fill="none" stroke="#63b8ff" d="M1180.07,-467.41C934.44,-466.22 76,-454.07 76,-342.12 76,-342.12 76,-342.12 76,-229.62 76,-172.21 80.33,-145.3 126,-110.5 169.75,-77.17 325.87,-68.68 412.33,-66.55"/>
<polygon fill="#63b8ff" stroke="#63b8ff" points="412.36,-70.05 422.28,-66.33 412.2,-63.05 412.36,-70.05"/>
</a>
</g>
</g>
<!-- Node6 -->
<g id="Node000006" class="node">
<title>Node6</title>
<g id="a_Node000006"><a xlink:href="../../d4/d2c/_utility_8hpp.html" target="_top" xlink:title=" ">
<polygon fill="white" stroke="#666666" points="984,-129.75 884,-129.75 884,-110.5 984,-110.5 984,-129.75"/>
<text text-anchor="middle" x="934" y="-116.25" font-family="Helvetica,sans-Serif" font-size="10.00">mimic++/Utility.hpp</text>
</a>
</g>
</g>
<!-- Node1&#45;&gt;Node6 -->
<g id="edge5_Node000001_Node000006" class="edge">
<title>Node1&#45;&gt;Node6</title>
<g id="a_edge5_Node000001_Node000006"><a xlink:title=" ">
<path fill="none" stroke="#63b8ff" d="M1194.27,-452.84C1142.84,-435.73 1063.81,-402.92 1013,-350.75 975.13,-311.87 978.66,-291.57 961,-240.25 954.75,-222.08 943.82,-169.96 937.97,-141.05"/>
<polygon fill="#63b8ff" stroke="#63b8ff" points="941.43,-140.52 936.03,-131.4 934.57,-141.9 941.43,-140.52"/>
</a>
</g>
</g>
<!-- Node12 -->
<g id="Node000012" class="node">
<title>Node12</title>
<g id="a_Node000012"><a xlink:title=" ">
<polygon fill="#e0e0e0" stroke="#999999" points="1476.25,-74.5 1437.75,-74.5 1437.75,-55.25 1476.25,-55.25 1476.25,-74.5"/>
<text text-anchor="middle" x="1457" y="-61" font-family="Helvetica,sans-Serif" font-size="10.00">utility</text>
</a>
</g>
</g>
<!-- Node1&#45;&gt;Node12 -->
<g id="edge70_Node000001_Node000012" class="edge">
<title>Node1&#45;&gt;Node12</title>
<g id="a_edge70_Node000001_Node000012"><a xlink:title=" ">
<path fill="none" stroke="#63b8ff" d="M1309.78,-460.06C1419.94,-445.59 1632,-409.04 1632,-342.12 1632,-342.12 1632,-342.12 1632,-174.38 1632,-107.36 1538.15,-80.31 1487.91,-70.63"/>
<polygon fill="#63b8ff" stroke="#63b8ff" points="1488.69,-67.21 1478.22,-68.89 1487.45,-74.1 1488.69,-67.21"/>
</a>
</g>
</g>
<!-- Node13 -->
<g id="Node000013" class="node">
<title>Node13</title>
<g id="a_Node000013"><a xlink:href="../../d2/dfd/_argument_list_8hpp.html" target="_top" xlink:title=" ">
<polygon fill="white" stroke="#666666" points="1312.62,-417.25 1177.38,-417.25 1177.38,-386.75 1312.62,-386.75 1312.62,-417.25"/>
<text text-anchor="start" x="1185.38" y="-403.75" font-family="Helvetica,sans-Serif" font-size="10.00">mimic++/policies/Argument</text>
<text text-anchor="middle" x="1245" y="-392.5" font-family="Helvetica,sans-Serif" font-size="10.00">List.hpp</text>
</a>
</g>
</g>
<!-- Node1&#45;&gt;Node13 -->
<g id="edge14_Node000001_Node000013" class="edge">
<title>Node1&#45;&gt;Node13</title>
<g id="a_edge14_Node000001_Node000013"><a xlink:title=" ">
<path fill="none" stroke="#63b8ff" d="M1245,-452.86C1245,-445.77 1245,-437.04 1245,-428.88"/>
<polygon fill="#63b8ff" stroke="#63b8ff" points="1248.5,-429.09 1245,-419.09 1241.5,-429.09 1248.5,-429.09"/>
</a>
</g>
</g>
<!-- Node18 -->
<g id="Node000018" class="node">
<title>Node18</title>
<g id="a_Node000018"><a xlink:title=" ">
<polygon fill="#e0e0e0" stroke="#999999" points="198.88,-129.75 143.12,-129.75 143.12,-110.5 198.88,-110.5 198.88,-129.75"/>
<text text-anchor="middle" x="171" y="-116.25" font-family="Helvetica,sans-Serif" font-size="10.00">concepts</text>
</a>
</g>
</g>
<!-- Node1&#45;&gt;Node18 -->
<g id="edge67_Node000001_Node000018" class="edge">
<title>Node1&#45;&gt;Node18</title>
<g id="a_edge67_Node000001_Node000018"><a xlink:title=" ">
<path fill="none" stroke="#63b8ff" d="M1179.97,-467.81C946.93,-468.5 162.13,-467.07 62,-417.25 23.24,-397.97 0,-385.42 0,-342.12 0,-342.12 0,-342.12 0,-229.62 0,-167.65 81.07,-139.58 131.57,-128.11"/>
<polygon fill="#63b8ff" stroke="#63b8ff" points="132.23,-131.55 141.28,-126.04 130.77,-124.7 132.23,-131.55"/>
</a>
</g>
</g>
<!-- Node19 -->
<g id="Node000019" class="node">
<title>Node19</title>
<g id="a_Node000019"><a xlink:title=" ">
<polygon fill="#e0e0e0" stroke="#999999" points="1320,-129.75 1262,-129.75 1262,-110.5 1320,-110.5 1320,-129.75"/>
<text text-anchor="middle" x="1291" y="-116.25" font-family="Helvetica,sans-Serif" font-size="10.00">functional</text>
</a>
</g>
</g>
<!-- Node1&#45;&gt;Node19 -->
<g id="edge68_Node000001_Node000019" class="edge">
<title>Node1&#45;&gt;Node19</title>
<g id="a_edge68_Node000001_Node000019"><a xlink:title=" ">
<path fill="none" stroke="#63b8ff" d="M1309.82,-455.01C1400.96,-435.56 1556,-394.74 1556,-342.12 1556,-342.12 1556,-342.12 1556,-229.62 1556,-133.83 1405.86,-120.77 1331.6,-120.17"/>
<polygon fill="#63b8ff" stroke="#63b8ff" points="1331.89,-116.67 1321.89,-120.17 1331.89,-123.67 1331.89,-116.67"/>
</a>
</g>
</g>
<!-- Node21 -->
<g id="Node000021" class="node">
<title>Node21</title>
<g id="a_Node000021"><a xlink:title=" ">
<polygon fill="#e0e0e0" stroke="#999999" points="1243.5,-129.75 1182.5,-129.75 1182.5,-110.5 1243.5,-110.5 1243.5,-129.75"/>
<text text-anchor="middle" x="1213" y="-116.25" font-family="Helvetica,sans-Serif" font-size="10.00">type_traits</text>
</a>
</g>
</g>
<!-- Node1&#45;&gt;Node21 -->
<g id="edge69_Node000001_Node000021" class="edge">
<title>Node1&#45;&gt;Node21</title>
<g id="a_edge69_Node000001_Node000021"><a xlink:title=" ">
<path fill="none" stroke="#63b8ff" d="M1282.2,-452.83C1297.4,-444.76 1313.41,-433.11 1322,-417.25 1328.45,-405.33 1323.41,-400.23 1322,-386.75 1311.46,-285.86 1323.96,-248.29 1265,-165.75 1257.04,-154.6 1245.71,-144.45 1235.66,-136.66"/>
<polygon fill="#63b8ff" stroke="#63b8ff" points="1237.91,-133.97 1227.79,-130.85 1233.76,-139.6 1237.91,-133.97"/>
</a>
</g>
</g>
<!-- Node3 -->
<g id="Node000003" class="node">
<title>Node3</title>
<g id="a_Node000003"><a xlink:title=" ">
<polygon fill="#e0e0e0" stroke="#999999" points="567,-19.25 527,-19.25 527,0 567,0 567,-19.25"/>
<text text-anchor="middle" x="547" y="-5.75" font-family="Helvetica,sans-Serif" font-size="10.00">string</text>
</a>
</g>
</g>
<!-- Node2&#45;&gt;Node3 -->
<g id="edge2_Node000002_Node000003" class="edge">
<title>Node2&#45;&gt;Node3</title>
<g id="a_edge2_Node000002_Node000003"><a xlink:title=" ">
<path fill="none" stroke="#63b8ff" d="M483.89,-54.84C495.03,-47.04 511.37,-35.59 524.64,-26.29"/>
<polygon fill="#63b8ff" stroke="#63b8ff" points="526.62,-29.18 532.8,-20.57 522.61,-23.44 526.62,-29.18"/>
</a>
</g>
</g>
<!-- Node4 -->
<g id="Node000004" class="node">
<title>Node4</title>
<g id="a_Node000004"><a xlink:title=" ">
<polygon fill="#e0e0e0" stroke="#999999" points="775.75,-19.25 710.25,-19.25 710.25,0 775.75,0 775.75,-19.25"/>
<text text-anchor="middle" x="743" y="-5.75" font-family="Helvetica,sans-Serif" font-size="10.00">string_view</text>
</a>
</g>
</g>
<!-- Node2&#45;&gt;Node4 -->
<g id="edge3_Node000002_Node000004" class="edge">
<title>Node2&#45;&gt;Node4</title>
<g id="a_edge3_Node000002_Node000004"><a xlink:title=" ">
<path fill="none" stroke="#63b8ff" d="M517.45,-54.78C568.27,-44.83 649.11,-29.01 698.96,-19.25"/>
<polygon fill="#63b8ff" stroke="#63b8ff" points="699.38,-22.73 708.52,-17.37 698.04,-15.86 699.38,-22.73"/>
</a>
</g>
</g>
<!-- Node5 -->
<g id="Node000005" class="node">
<title>Node5</title>
<g id="a_Node000005"><a xlink:title=" ">
<polygon fill="#e0e0e0" stroke="#999999" points="494.75,-19.25 447.25,-19.25 447.25,0 494.75,0 494.75,-19.25"/>
<text text-anchor="middle" x="471" y="-5.75" font-family="Helvetica,sans-Serif" font-size="10.00">version</text>
</a>
</g>
</g>
<!-- Node2&#45;&gt;Node5 -->
<g id="edge4_Node000002_Node000005" class="edge">
<title>Node2&#45;&gt;Node5</title>
<g id="a_edge4_Node000002_Node000005"><a xlink:title=" ">
<path fill="none" stroke="#63b8ff" d="M471,-55.08C471,-48.57 471,-39.42 471,-31.12"/>
<polygon fill="#63b8ff" stroke="#63b8ff" points="474.5,-31.12 471,-21.12 467.5,-31.12 474.5,-31.12"/>
</a>
</g>
</g>
<!-- Node6&#45;&gt;Node2 -->
<g id="edge6_Node000006_Node000002" class="edge">
<title>Node6&#45;&gt;Node2</title>
<g id="a_edge6_Node000006_Node000002"><a xlink:title=" ">
<path fill="none" stroke="#63b8ff" d="M883.57,-113.32C797.15,-103.39 621.22,-83.15 529.53,-72.61"/>
<polygon fill="#63b8ff" stroke="#63b8ff" points="530.08,-69.15 519.75,-71.48 529.28,-76.1 530.08,-69.15"/>
</a>
</g>
</g>
<!-- Node6&#45;&gt;Node4 -->
<g id="edge11_Node000006_Node000004" class="edge">
<title>Node6&#45;&gt;Node4</title>
<g id="a_edge11_Node000006_Node000004"><a xlink:title=" ">
<path fill="none" stroke="#63b8ff" d="M952.8,-110.03C975.54,-97.82 1008.82,-75.35 992,-55.25 966.4,-24.65 851.71,-15.01 787.29,-11.99"/>
<polygon fill="#63b8ff" stroke="#63b8ff" points="787.53,-8.49 777.39,-11.56 787.23,-15.49 787.53,-8.49"/>
</a>
</g>
</g>
<!-- Node7 -->
<g id="Node000007" class="node">
<title>Node7</title>
<g id="a_Node000007"><a xlink:title=" ">
<polygon fill="#e0e0e0" stroke="#999999" points="982.5,-74.5 945.5,-74.5 945.5,-55.25 982.5,-55.25 982.5,-74.5"/>
<text text-anchor="middle" x="964" y="-61" font-family="Helvetica,sans-Serif" font-size="10.00">array</text>
</a>
</g>
</g>
<!-- Node6&#45;&gt;Node7 -->
<g id="edge7_Node000006_Node000007" class="edge">
<title>Node6&#45;&gt;Node7</title>
<g id="a_edge7_Node000006_Node000007"><a xlink:title=" ">
<path fill="none" stroke="#63b8ff" d="M938.95,-110.33C942.88,-103.36 948.51,-93.37 953.44,-84.62"/>
<polygon fill="#63b8ff" stroke="#63b8ff" points="956.34,-86.61 958.2,-76.18 950.24,-83.17 956.34,-86.61"/>
</a>
</g>
</g>
<!-- Node8 -->
<g id="Node000008" class="node">
<title>Node8</title>
<g id="a_Node000008"><a xlink:title=" ">
<polygon fill="#e0e0e0" stroke="#999999" points="927.12,-74.5 878.88,-74.5 878.88,-55.25 927.12,-55.25 927.12,-74.5"/>
<text text-anchor="middle" x="903" y="-61" font-family="Helvetica,sans-Serif" font-size="10.00">cassert</text>
</a>
</g>
</g>
<!-- Node6&#45;&gt;Node8 -->
<g id="edge8_Node000006_Node000008" class="edge">
<title>Node6&#45;&gt;Node8</title>
<g id="a_edge8_Node000006_Node000008"><a xlink:title=" ">
<path fill="none" stroke="#63b8ff" d="M928.88,-110.33C924.82,-103.36 919.01,-93.37 913.91,-84.62"/>
<polygon fill="#63b8ff" stroke="#63b8ff" points="917.05,-83.05 908.99,-76.17 911,-86.57 917.05,-83.05"/>
</a>
</g>
</g>
<!-- Node9 -->
<g id="Node000009" class="node">
<title>Node9</title>
<g id="a_Node000009"><a xlink:title=" ">
<polygon fill="#e0e0e0" stroke="#999999" points="860.88,-74.5 811.12,-74.5 811.12,-55.25 860.88,-55.25 860.88,-74.5"/>
<text text-anchor="middle" x="836" y="-61" font-family="Helvetica,sans-Serif" font-size="10.00">optional</text>
</a>
</g>
</g>
<!-- Node6&#45;&gt;Node9 -->
<g id="edge9_Node000006_Node000009" class="edge">
<title>Node6&#45;&gt;Node9</title>
<g id="a_edge9_Node000006_Node000009"><a xlink:title=" ">
<path fill="none" stroke="#63b8ff" d="M917.38,-110.09C902.31,-101.91 879.86,-89.71 862.35,-80.19"/>
<polygon fill="#63b8ff" stroke="#63b8ff" points="864.49,-77.37 854.04,-75.68 861.15,-83.52 864.49,-77.37"/>
</a>
</g>
</g>
<!-- Node10 -->
<g id="Node000010" class="node">
<title>Node10</title>
<g id="a_Node000010"><a xlink:title=" ">
<polygon fill="#e0e0e0" stroke="#999999" points="1123.12,-74.5 1038.88,-74.5 1038.88,-55.25 1123.12,-55.25 1123.12,-74.5"/>
<text text-anchor="middle" x="1081" y="-61" font-family="Helvetica,sans-Serif" font-size="10.00">source_location</text>
</a>
</g>
</g>
<!-- Node6&#45;&gt;Node10 -->
<g id="edge10_Node000006_Node000010" class="edge">
<title>Node6&#45;&gt;Node10</title>
<g id="a_edge10_Node000006_Node000010"><a xlink:title=" ">
<path fill="none" stroke="#63b8ff" d="M958.94,-110.09C982.69,-101.49 1018.71,-88.44 1045.46,-78.75"/>
<polygon fill="#63b8ff" stroke="#63b8ff" points="1046.31,-82.16 1054.52,-75.47 1043.92,-75.58 1046.31,-82.16"/>
</a>
</g>
</g>
<!-- Node11 -->
<g id="Node000011" class="node">
<title>Node11</title>
<g id="a_Node000011"><a xlink:title=" ">
<polygon fill="#e0e0e0" stroke="#999999" points="151.5,-74.5 114.5,-74.5 114.5,-55.25 151.5,-55.25 151.5,-74.5"/>
<text text-anchor="middle" x="133" y="-61" font-family="Helvetica,sans-Serif" font-size="10.00">tuple</text>
</a>
</g>
</g>
<!-- Node6&#45;&gt;Node11 -->
<g id="edge12_Node000006_Node000011" class="edge">
<title>Node6&#45;&gt;Node11</title>
<g id="a_edge12_Node000006_Node000011"><a xlink:title=" ">
<path fill="none" stroke="#63b8ff" d="M883.68,-114.41C868.67,-113.06 852.17,-111.66 837,-110.5 576.15,-90.64 260.45,-72.85 163.05,-67.51"/>
<polygon fill="#63b8ff" stroke="#63b8ff" points="163.46,-64.02 153.29,-66.97 163.08,-71.01 163.46,-64.02"/>
</a>
</g>
</g>
<!-- Node6&#45;&gt;Node12 -->
<g id="edge13_Node000006_Node000012" class="edge">
<title>Node6&#45;&gt;Node12</title>
<g id="a_edge13_Node000006_Node000012"><a xlink:title=" ">
<path fill="none" stroke="#63b8ff" d="M984.15,-114.02C1091.11,-103.13 1339,-77.89 1426.08,-69.02"/>
<polygon fill="#63b8ff" stroke="#63b8ff" points="1426.4,-72.51 1435.99,-68.01 1425.69,-65.55 1426.4,-72.51"/>
</a>
</g>
</g>
<!-- Node13&#45;&gt;Node11 -->
<g id="edge64_Node000013_Node000011" class="edge">
<title>Node13&#45;&gt;Node11</title>
<g id="a_edge64_Node000013_Node000011"><a xlink:title=" ">
<path fill="none" stroke="#63b8ff" d="M1177.21,-399.1C1063.43,-395.11 827.12,-383.33 630,-350.75 431.07,-317.87 365.74,-339.09 190,-240.25 139.54,-211.87 127.68,-187.26 121,-129.75 120.01,-121.25 119.88,-118.98 121,-110.5 122.09,-102.25 124.26,-93.37 126.47,-85.71"/>
<polygon fill="#63b8ff" stroke="#63b8ff" points="129.73,-87 129.35,-76.41 123.05,-84.92 129.73,-87"/>
</a>
</g>
</g>
<!-- Node13&#45;&gt;Node12 -->
<g id="edge66_Node000013_Node000012" class="edge">
<title>Node13&#45;&gt;Node12</title>
<g id="a_edge66_Node000013_Node000012"><a xlink:title=" ">
<path fill="none" stroke="#63b8ff" d="M1313.12,-392.8C1414.68,-378.64 1594,-345.36 1594,-286.88 1594,-286.88 1594,-286.88 1594,-174.38 1594,-120.41 1527.87,-89.06 1487.5,-74.95"/>
<polygon fill="#63b8ff" stroke="#63b8ff" points="1488.66,-71.64 1478.07,-71.82 1486.46,-78.29 1488.66,-71.64"/>
</a>
</g>
</g>
<!-- Node14 -->
<g id="Node000014" class="node">
<title>Node14</title>
<g id="a_Node000014"><a xlink:href="../../dc/d44/_call_8hpp.html" target="_top" xlink:title=" ">
<polygon fill="white" stroke="#666666" points="1113.88,-350.75 1022.12,-350.75 1022.12,-331.5 1113.88,-331.5 1113.88,-350.75"/>
<text text-anchor="middle" x="1068" y="-337.25" font-family="Helvetica,sans-Serif" font-size="10.00">mimic++/Call.hpp</text>
</a>
</g>
</g>
<!-- Node13&#45;&gt;Node14 -->
<g id="edge15_Node000013_Node000014" class="edge">
<title>Node13&#45;&gt;Node14</title>
<g id="a_edge15_Node000013_Node000014"><a xlink:title=" ">
<path fill="none" stroke="#63b8ff" d="M1200.79,-386.3C1171.72,-376.63 1134.07,-364.1 1106.28,-354.86"/>
<polygon fill="#63b8ff" stroke="#63b8ff" points="1107.43,-351.55 1096.84,-351.72 1105.23,-358.2 1107.43,-351.55"/>
</a>
</g>
</g>
<!-- Node13&#45;&gt;Node18 -->
<g id="edge62_Node000013_Node000018" class="edge">
<title>Node13&#45;&gt;Node18</title>
<g id="a_edge62_Node000013_Node000018"><a xlink:title=" ">
<path fill="none" stroke="#63b8ff" d="M1177.05,-399.03C1020.34,-392.41 623.87,-363.75 321,-240.25 269.97,-219.44 250.61,-222.25 210,-185 196.39,-172.51 185.86,-154.19 179.2,-140.37"/>
<polygon fill="#63b8ff" stroke="#63b8ff" points="182.46,-139.09 175.15,-131.42 176.08,-141.98 182.46,-139.09"/>
</a>
</g>
</g>
<!-- Node13&#45;&gt;Node19 -->
<g id="edge63_Node000013_Node000019" class="edge">
<title>Node13&#45;&gt;Node19</title>
<g id="a_edge63_Node000013_Node000019"><a xlink:title=" ">
<path fill="none" stroke="#63b8ff" d="M1268.31,-386.41C1314.67,-355.83 1417.34,-279.91 1456,-185 1476.88,-133.74 1386.63,-123 1331.34,-121.13"/>
<polygon fill="#63b8ff" stroke="#63b8ff" points="1331.72,-117.63 1321.64,-120.89 1331.55,-124.63 1331.72,-117.63"/>
</a>
</g>
</g>
<!-- Node13&#45;&gt;Node21 -->
<g id="edge65_Node000013_Node000021" class="edge">
<title>Node13&#45;&gt;Node21</title>
<g id="a_edge65_Node000013_Node000021"><a xlink:title=" ">
<path fill="none" stroke="#63b8ff" d="M1251.08,-386.3C1263.06,-355.28 1287.17,-281.06 1271,-221 1262.56,-189.65 1241.6,-158.01 1227.33,-138.98"/>
<polygon fill="#63b8ff" stroke="#63b8ff" points="1230.21,-136.98 1221.32,-131.22 1224.67,-141.27 1230.21,-136.98"/>
</a>
</g>
</g>
<!-- Node14&#45;&gt;Node2 -->
<g id="edge16_Node000014_Node000002" class="edge">
<title>Node14&#45;&gt;Node2</title>
<g id="a_edge16_Node000014_Node000002"><a xlink:title=" ">
<path fill="none" stroke="#63b8ff" d="M1021.96,-340.21C923.65,-339.6 686.34,-333.87 492,-295.5 413.64,-280.03 394.96,-270.41 321,-240.25 231.61,-203.8 177.81,-215.77 134,-129.75 130.12,-122.13 128.36,-116.93 134,-110.5 152.02,-89.94 320.56,-75.76 412.25,-69.5"/>
<polygon fill="#63b8ff" stroke="#63b8ff" points="412.32,-73 422.06,-68.84 411.85,-66.02 412.32,-73"/>
</a>
</g>
</g>
<!-- Node14&#45;&gt;Node10 -->
<g id="edge59_Node000014_Node000010" class="edge">
<title>Node14&#45;&gt;Node10</title>
<g id="a_edge59_Node000014_Node000010"><a xlink:title=" ">
<path fill="none" stroke="#63b8ff" d="M1113.69,-331.05C1163.83,-318.79 1243.49,-292.23 1291,-240.25 1331.54,-195.9 1367.54,-156.6 1329,-110.5 1304.75,-81.49 1200.16,-71.31 1134.8,-67.76"/>
<polygon fill="#63b8ff" stroke="#63b8ff" points="1135.15,-64.27 1124.98,-67.26 1134.79,-71.26 1135.15,-64.27"/>
</a>
</g>
</g>
<!-- Node14&#45;&gt;Node11 -->
<g id="edge60_Node000014_Node000011" class="edge">
<title>Node14&#45;&gt;Node11</title>
<g id="a_edge60_Node000014_Node000011"><a xlink:title=" ">
<path fill="none" stroke="#63b8ff" d="M1021.9,-338.72C892.4,-334.5 527.13,-320.64 410,-295.5 288.83,-269.5 241.29,-272.96 154,-185 129.08,-159.89 123.25,-145.77 126,-110.5 126.63,-102.39 127.9,-93.52 129.19,-85.85"/>
<polygon fill="#63b8ff" stroke="#63b8ff" points="132.6,-86.67 130.93,-76.21 125.71,-85.43 132.6,-86.67"/>
</a>
</g>
</g>
<!-- Node14&#45;&gt;Node12 -->
<g id="edge61_Node000014_Node000012" class="edge">
<title>Node14&#45;&gt;Node12</title>
<g id="a_edge61_Node000014_Node000012"><a xlink:title=" ">
<path fill="none" stroke="#63b8ff" d="M1114.17,-334.2C1151.29,-328.14 1203.98,-316.53 1246,-295.5 1289.12,-273.92 1428.26,-136.82 1433,-129.75 1442.1,-116.19 1448.35,-98.72 1452.19,-85.48"/>
<polygon fill="#63b8ff" stroke="#63b8ff" points="1455.47,-86.77 1454.66,-76.2 1448.71,-84.97 1455.47,-86.77"/>
</a>
</g>
</g>
<!-- Node15 -->
<g id="Node000015" class="node">
<title>Node15</title>
<g id="a_Node000015"><a xlink:href="../../de/df5/_stacktrace_8hpp.html" target="_top" xlink:title=" ">
<polygon fill="white" stroke="#666666" points="1129.25,-295.5 1006.75,-295.5 1006.75,-276.25 1129.25,-276.25 1129.25,-295.5"/>
<text text-anchor="middle" x="1068" y="-282" font-family="Helvetica,sans-Serif" font-size="10.00">mimic++/Stacktrace.hpp</text>
</a>
</g>
</g>
<!-- Node14&#45;&gt;Node15 -->
<g id="edge17_Node000014_Node000015" class="edge">
<title>Node14&#45;&gt;Node15</title>
<g id="a_edge17_Node000014_Node000015"><a xlink:title=" ">
<path fill="none" stroke="#63b8ff" d="M1068,-331.33C1068,-324.82 1068,-315.67 1068,-307.37"/>
<polygon fill="#63b8ff" stroke="#63b8ff" points="1071.5,-307.37 1068,-297.37 1064.5,-307.37 1071.5,-307.37"/>
</a>
</g>
</g>
<!-- Node22 -->
<g id="Node000022" class="node">
<title>Node22</title>
<g id="a_Node000022"><a xlink:href="../../d8/d32/_type_traits_8hpp.html" target="_top" xlink:title=" ">
<polygon fill="white" stroke="#666666" points="339.5,-185 218.5,-185 218.5,-165.75 339.5,-165.75 339.5,-185"/>
<text text-anchor="middle" x="279" y="-171.5" font-family="Helvetica,sans-Serif" font-size="10.00">mimic++/TypeTraits.hpp</text>
</a>
</g>
</g>
<!-- Node14&#45;&gt;Node22 -->
<g id="edge58_Node000014_Node000022" class="edge">
<title>Node14&#45;&gt;Node22</title>
<g id="a_edge58_Node000014_Node000022"><a xlink:title=" ">
<path fill="none" stroke="#63b8ff" d="M1021.72,-337.04C883.32,-327.28 474.74,-294.49 354,-240.25 329.97,-229.45 307.7,-208.53 293.78,-193.57"/>
<polygon fill="#63b8ff" stroke="#63b8ff" points="296.54,-191.4 287.26,-186.29 291.33,-196.07 296.54,-191.4"/>
</a>
</g>
</g>
<!-- Node15&#45;&gt;Node2 -->
<g id="edge18_Node000015_Node000002" class="edge">
<title>Node15&#45;&gt;Node2</title>
<g id="a_edge18_Node000015_Node000002"><a xlink:title=" ">
<path fill="none" stroke="#63b8ff" d="M1006.4,-284.49C865.02,-282.18 523.91,-267.93 453,-185 428.96,-156.89 446.72,-110.77 460,-84.94"/>
<polygon fill="#63b8ff" stroke="#63b8ff" points="463.02,-86.71 464.73,-76.26 456.88,-83.37 463.02,-86.71"/>
</a>
</g>
</g>
<!-- Node15&#45;&gt;Node6 -->
<g id="edge49_Node000015_Node000006" class="edge">
<title>Node15&#45;&gt;Node6</title>
<g id="a_edge49_Node000015_Node000006"><a xlink:title=" ">
<path fill="none" stroke="#63b8ff" d="M1029.55,-275.76C994.1,-265.51 949.82,-246.85 970,-221 1012.19,-166.97 1156.24,-219.74 1114,-165.75 1099.34,-147.01 1041.6,-135.03 995.42,-128.26"/>
<polygon fill="#63b8ff" stroke="#63b8ff" points="996.15,-124.83 985.76,-126.9 995.17,-131.76 996.15,-124.83"/>
</a>
</g>
</g>
<!-- Node15&#45;&gt;Node12 -->
<g id="edge56_Node000015_Node000012" class="edge">
<title>Node15&#45;&gt;Node12</title>
<g id="a_edge56_Node000015_Node000012"><a xlink:title=" ">
<path fill="none" stroke="#63b8ff" d="M1129.62,-282.53C1176.43,-278.46 1241.03,-267.79 1291,-240.25 1362.3,-200.95 1421.2,-120.51 1445.29,-84.28"/>
<polygon fill="#63b8ff" stroke="#63b8ff" points="1448.03,-86.49 1450.56,-76.2 1442.17,-82.66 1448.03,-86.49"/>
</a>
</g>
</g>
<!-- Node16 -->
<g id="Node000016" class="node">
<title>Node16</title>
<g id="a_Node000016"><a xlink:href="../../da/dab/_printer_8hpp.html" target="_top" xlink:title=" ">
<polygon fill="white" stroke="#666666" points="824.88,-240.25 721.12,-240.25 721.12,-221 824.88,-221 824.88,-240.25"/>
<text text-anchor="middle" x="773" y="-226.75" font-family="Helvetica,sans-Serif" font-size="10.00">mimic++/Printer.hpp</text>
</a>
</g>
</g>
<!-- Node15&#45;&gt;Node16 -->
<g id="edge19_Node000015_Node000016" class="edge">
<title>Node15&#45;&gt;Node16</title>
<g id="a_edge19_Node000015_Node000016"><a xlink:title=" ">
<path fill="none" stroke="#63b8ff" d="M1017.62,-275.78C966.92,-266.63 888.67,-252.5 834.37,-242.7"/>
<polygon fill="#63b8ff" stroke="#63b8ff" points="835.12,-239.28 824.66,-240.95 833.88,-246.17 835.12,-239.28"/>
</a>
</g>
</g>
<!-- Node15&#45;&gt;Node19 -->
<g id="edge52_Node000015_Node000019" class="edge">
<title>Node15&#45;&gt;Node19</title>
<g id="a_edge52_Node000015_Node000019"><a xlink:title=" ">
<path fill="none" stroke="#63b8ff" d="M1129.62,-278.89C1182.05,-272.48 1251.82,-260.42 1271,-240.25 1296.34,-213.61 1296.35,-167.59 1293.84,-141.23"/>
<polygon fill="#63b8ff" stroke="#63b8ff" points="1297.35,-141.05 1292.69,-131.54 1290.4,-141.88 1297.35,-141.05"/>
</a>
</g>
</g>
<!-- Node20 -->
<g id="Node000020" class="node">
<title>Node20</title>
<g id="a_Node000020"><a xlink:title=" ">
<polygon fill="#e0e0e0" stroke="#999999" points="827.62,-129.75 782.38,-129.75 782.38,-110.5 827.62,-110.5 827.62,-129.75"/>
<text text-anchor="middle" x="805" y="-116.25" font-family="Helvetica,sans-Serif" font-size="10.00">ranges</text>
</a>
</g>
</g>
<!-- Node15&#45;&gt;Node20 -->
<g id="edge53_Node000015_Node000020" class="edge">
<title>Node15&#45;&gt;Node20</title>
<g id="a_edge53_Node000015_Node000020"><a xlink:title=" ">
<path fill="none" stroke="#63b8ff" d="M1040.6,-275.9C1018.35,-268.04 986.58,-255.51 961,-240.25 915.82,-213.29 911.05,-197.37 869,-165.75 855.72,-155.76 840.48,-145.1 828.19,-136.71"/>
<polygon fill="#63b8ff" stroke="#63b8ff" points="830.18,-133.82 819.94,-131.1 826.24,-139.61 830.18,-133.82"/>
</a>
</g>
</g>
<!-- Node15&#45;&gt;Node21 -->
<g id="edge55_Node000015_Node000021" class="edge">
<title>Node15&#45;&gt;Node21</title>
<g id="a_edge55_Node000015_Node000021"><a xlink:title=" ">
<path fill="none" stroke="#63b8ff" d="M1075.8,-276.07C1098.81,-250.08 1166.76,-173.34 1197.54,-138.59"/>
<polygon fill="#63b8ff" stroke="#63b8ff" points="1200.15,-140.91 1204.16,-131.11 1194.91,-136.27 1200.15,-140.91"/>
</a>
</g>
</g>
<!-- Node28 -->
<g id="Node000028" class="node">
<title>Node28</title>
<g id="a_Node000028"><a xlink:title=" ">
<polygon fill="#e0e0e0" stroke="#999999" points="1034.88,-240.25 979.12,-240.25 979.12,-221 1034.88,-221 1034.88,-240.25"/>
<text text-anchor="middle" x="1007" y="-226.75" font-family="Helvetica,sans-Serif" font-size="10.00">algorithm</text>
</a>
</g>
</g>
<!-- Node15&#45;&gt;Node28 -->
<g id="edge50_Node000015_Node000028" class="edge">
<title>Node15&#45;&gt;Node28</title>
<g id="a_edge50_Node000015_Node000028"><a xlink:title=" ">
<path fill="none" stroke="#63b8ff" d="M1057.65,-275.84C1048.92,-268.22 1036.21,-257.12 1025.7,-247.95"/>
<polygon fill="#63b8ff" stroke="#63b8ff" points="1028.17,-245.46 1018.34,-241.52 1023.57,-250.73 1028.17,-245.46"/>
</a>
</g>
</g>
<!-- Node29 -->
<g id="Node000029" class="node">
<title>Node29</title>
<g id="a_Node000029"><a xlink:title=" ">
<polygon fill="#e0e0e0" stroke="#999999" points="1083.5,-240.25 1052.5,-240.25 1052.5,-221 1083.5,-221 1083.5,-240.25"/>
<text text-anchor="middle" x="1068" y="-226.75" font-family="Helvetica,sans-Serif" font-size="10.00">any</text>
</a>
</g>
</g>
<!-- Node15&#45;&gt;Node29 -->
<g id="edge51_Node000015_Node000029" class="edge">
<title>Node15&#45;&gt;Node29</title>
<g id="a_edge51_Node000015_Node000029"><a xlink:title=" ">
<path fill="none" stroke="#63b8ff" d="M1068,-276.08C1068,-269.57 1068,-260.42 1068,-252.12"/>
<polygon fill="#63b8ff" stroke="#63b8ff" points="1071.5,-252.12 1068,-242.12 1064.5,-252.12 1071.5,-252.12"/>
</a>
</g>
</g>
<!-- Node30 -->
<g id="Node000030" class="node">
<title>Node30</title>
<g id="a_Node000030"><a xlink:title=" ">
<polygon fill="#e0e0e0" stroke="#999999" points="1198,-240.25 1140,-240.25 1140,-221 1198,-221 1198,-240.25"/>
<text text-anchor="middle" x="1169" y="-226.75" font-family="Helvetica,sans-Serif" font-size="10.00">stdexcept</text>
</a>
</g>
</g>
<!-- Node15&#45;&gt;Node30 -->
<g id="edge54_Node000015_Node000030" class="edge">
<title>Node15&#45;&gt;Node30</title>
<g id="a_edge54_Node000015_Node000030"><a xlink:title=" ">
<path fill="none" stroke="#63b8ff" d="M1085.13,-275.84C1100.66,-267.66 1123.8,-255.46 1141.84,-245.94"/>
<polygon fill="#63b8ff" stroke="#63b8ff" points="1143.23,-249.17 1150.44,-241.41 1139.97,-242.98 1143.23,-249.17"/>
</a>
</g>
</g>
<!-- Node31 -->
<g id="Node000031" class="node">
<title>Node31</title>
<g id="a_Node000031"><a xlink:title=" ">
<polygon fill="#e0e0e0" stroke="#999999" points="1261.62,-240.25 1216.38,-240.25 1216.38,-221 1261.62,-221 1261.62,-240.25"/>
<text text-anchor="middle" x="1239" y="-226.75" font-family="Helvetica,sans-Serif" font-size="10.00">variant</text>
</a>
</g>
</g>
<!-- Node15&#45;&gt;Node31 -->
<g id="edge57_Node000015_Node000031" class="edge">
<title>Node15&#45;&gt;Node31</title>
<g id="a_edge57_Node000015_Node000031"><a xlink:title=" ">
<path fill="none" stroke="#63b8ff" d="M1097.01,-275.84C1126.88,-266.54 1173.41,-252.05 1204.99,-242.22"/>
<polygon fill="#63b8ff" stroke="#63b8ff" points="1205.94,-245.59 1214.45,-239.27 1203.86,-238.9 1205.94,-245.59"/>
</a>
</g>
</g>
<!-- Node16&#45;&gt;Node2 -->
<g id="edge20_Node000016_Node000002" class="edge">
<title>Node16&#45;&gt;Node2</title>
<g id="a_edge20_Node000016_Node000002"><a xlink:title=" ">
<path fill="none" stroke="#63b8ff" d="M720.87,-229.85C642.51,-228.95 500.06,-222.1 468,-185 444.29,-157.57 454.45,-111.87 463.22,-85.77"/>
<polygon fill="#63b8ff" stroke="#63b8ff" points="466.49,-87.01 466.62,-76.42 459.91,-84.62 466.49,-87.01"/>
</a>
</g>
</g>
<!-- Node16&#45;&gt;Node3 -->
<g id="edge45_Node000016_Node000003" class="edge">
<title>Node16&#45;&gt;Node3</title>
<g id="a_edge45_Node000016_Node000003"><a xlink:title=" ">
<path fill="none" stroke="#63b8ff" d="M720.64,-227.55C656.85,-223.8 554.64,-213.4 531,-185 511.83,-161.97 531.67,-71 541.81,-30.39"/>
<polygon fill="#63b8ff" stroke="#63b8ff" points="545.18,-31.35 544.27,-20.79 538.4,-29.61 545.18,-31.35"/>
</a>
</g>
</g>
<!-- Node16&#45;&gt;Node4 -->
<g id="edge46_Node000016_Node000004" class="edge">
<title>Node16&#45;&gt;Node4</title>
<g id="a_edge46_Node000016_Node000004"><a xlink:title=" ">
<path fill="none" stroke="#63b8ff" d="M816.45,-220.64C836.03,-214.19 857.34,-203.28 869,-185 873.6,-177.79 871.22,-174.01 869,-165.75 855.94,-117.16 836.61,-111.02 802,-74.5 787.13,-58.81 770.43,-40.68 758.6,-27.75"/>
<polygon fill="#63b8ff" stroke="#63b8ff" points="761.29,-25.51 751.97,-20.49 756.13,-30.23 761.29,-25.51"/>
</a>
</g>
</g>
<!-- Node16&#45;&gt;Node6 -->
<g id="edge37_Node000016_Node000006" class="edge">
<title>Node16&#45;&gt;Node6</title>
<g id="a_edge37_Node000016_Node000006"><a xlink:title=" ">
<path fill="none" stroke="#63b8ff" d="M825.28,-227.84C858.42,-223.81 899.5,-212.97 924,-185 934.31,-173.23 936.36,-155.35 936.08,-141.5"/>
<polygon fill="#63b8ff" stroke="#63b8ff" points="939.59,-141.46 935.45,-131.71 932.6,-141.91 939.59,-141.46"/>
</a>
</g>
</g>
<!-- Node16&#45;&gt;Node9 -->
<g id="edge41_Node000016_Node000009" class="edge">
<title>Node16&#45;&gt;Node9</title>
<g id="a_edge41_Node000016_Node000009"><a xlink:title=" ">
<path fill="none" stroke="#63b8ff" d="M720.74,-227.18C658.94,-223.07 561.61,-212.32 539,-185 533.55,-178.41 534.01,-172.7 539,-165.75 599.53,-81.54 734.6,-67.36 799.64,-65.61"/>
<polygon fill="#63b8ff" stroke="#63b8ff" points="799.48,-69.12 809.42,-65.44 799.36,-62.12 799.48,-69.12"/>
</a>
</g>
</g>
<!-- Node16&#45;&gt;Node10 -->
<g id="edge43_Node000016_Node000010" class="edge">
<title>Node16&#45;&gt;Node10</title>
<g id="a_edge43_Node000016_Node000010"><a xlink:title=" ">
<path fill="none" stroke="#63b8ff" d="M825.07,-222.28C859.92,-215.88 906.01,-204.47 943,-185 993.89,-158.22 1042.05,-109.45 1065.73,-83.39"/>
<polygon fill="#63b8ff" stroke="#63b8ff" points="1068.25,-85.82 1072.3,-76.03 1063.03,-81.16 1068.25,-85.82"/>
</a>
</g>
</g>
<!-- Node16&#45;&gt;Node12 -->
<g id="edge47_Node000016_Node000012" class="edge">
<title>Node16&#45;&gt;Node12</title>
<g id="a_edge47_Node000016_Node000012"><a xlink:title=" ">
<path fill="none" stroke="#63b8ff" d="M821.72,-220.58C862.29,-212.6 921.4,-199.93 972,-185 1063.78,-157.92 1081.4,-134.62 1174,-110.5 1264.2,-87 1374,-73.99 1426.36,-68.71"/>
<polygon fill="#63b8ff" stroke="#63b8ff" points="1426.4,-72.22 1436.01,-67.76 1425.71,-65.25 1426.4,-72.22"/>
</a>
</g>
</g>
<!-- Node17 -->
<g id="Node000017" class="node">
<title>Node17</title>
<g id="a_Node000017"><a xlink:href="../../d9/dc5/_string_8hpp.html" target="_top" xlink:title=" ">
<polygon fill="white" stroke="#666666" points="710.38,-185 609.62,-185 609.62,-165.75 710.38,-165.75 710.38,-185"/>
<text text-anchor="middle" x="660" y="-171.5" font-family="Helvetica,sans-Serif" font-size="10.00">mimic++/String.hpp</text>
</a>
</g>
</g>
<!-- Node16&#45;&gt;Node17 -->
<g id="edge21_Node000016_Node000017" class="edge">
<title>Node16&#45;&gt;Node17</title>
<g id="a_edge21_Node000016_Node000017"><a xlink:title=" ">
<path fill="none" stroke="#63b8ff" d="M753.83,-220.59C736.22,-212.29 709.84,-199.86 689.54,-190.29"/>
<polygon fill="#63b8ff" stroke="#63b8ff" points="691.17,-187.19 680.63,-186.1 688.19,-193.53 691.17,-187.19"/>
</a>
</g>
</g>
<!-- Node16&#45;&gt;Node19 -->
<g id="edge39_Node000016_Node000019" class="edge">
<title>Node16&#45;&gt;Node19</title>
<g id="a_edge39_Node000016_Node000019"><a xlink:title=" ">
<path fill="none" stroke="#63b8ff" d="M825.15,-224.23C885.85,-217.43 988.91,-204.25 1076,-185 1139.52,-170.96 1211.7,-148.04 1254.19,-133.81"/>
<polygon fill="#63b8ff" stroke="#63b8ff" points="1255.05,-137.22 1263.4,-130.7 1252.81,-130.58 1255.05,-137.22"/>
</a>
</g>
</g>
<!-- Node16&#45;&gt;Node20 -->
<g id="edge42_Node000016_Node000020" class="edge">
<title>Node16&#45;&gt;Node20</title>
<g id="a_edge42_Node000016_Node000020"><a xlink:title=" ">
<path fill="none" stroke="#63b8ff" d="M804.86,-220.64C822.38,-213.88 842.61,-202.69 853,-185 863.31,-167.44 846.01,-149.01 829.38,-136.49"/>
<polygon fill="#63b8ff" stroke="#63b8ff" points="831.82,-133.93 821.62,-131.05 827.8,-139.66 831.82,-133.93"/>
</a>
</g>
</g>
<!-- Node16&#45;&gt;Node22 -->
<g id="edge30_Node000016_Node000022" class="edge">
<title>Node16&#45;&gt;Node22</title>
<g id="a_edge30_Node000016_Node000022"><a xlink:title=" ">
<path fill="none" stroke="#63b8ff" d="M721.07,-224.03C632.45,-214.48 451.88,-195.01 351.09,-184.15"/>
<polygon fill="#63b8ff" stroke="#63b8ff" points="351.63,-180.68 341.31,-183.09 350.88,-187.64 351.63,-180.68"/>
</a>
</g>
</g>
<!-- Node24 -->
<g id="Node000024" class="node">
<title>Node24</title>
<g id="a_Node000024"><a xlink:title=" ">
<polygon fill="#e0e0e0" stroke="#999999" points="404.62,-129.75 359.38,-129.75 359.38,-110.5 404.62,-110.5 404.62,-129.75"/>
<text text-anchor="middle" x="382" y="-116.25" font-family="Helvetica,sans-Serif" font-size="10.00">cstdint</text>
</a>
</g>
</g>
<!-- Node16&#45;&gt;Node24 -->
<g id="edge38_Node000016_Node000024" class="edge">
<title>Node16&#45;&gt;Node24</title>
<g id="a_edge38_Node000016_Node000024"><a xlink:title=" ">
<path fill="none" stroke="#63b8ff" d="M720.91,-227.75C637.45,-223.94 478.25,-213.13 430,-185 412.24,-174.64 398.95,-154.87 390.92,-140.05"/>
<polygon fill="#63b8ff" stroke="#63b8ff" points="394.12,-138.63 386.49,-131.28 387.87,-141.78 394.12,-138.63"/>
</a>
</g>
</g>
<!-- Node25 -->
<g id="Node000025" class="node">
<title>Node25</title>
<g id="a_Node000025"><a xlink:title=" ">
<polygon fill="#e0e0e0" stroke="#999999" points="774,-185 728,-185 728,-165.75 774,-165.75 774,-185"/>
<text text-anchor="middle" x="751" y="-171.5" font-family="Helvetica,sans-Serif" font-size="10.00">iterator</text>
</a>
</g>
</g>
<!-- Node16&#45;&gt;Node25 -->
<g id="edge40_Node000016_Node000025" class="edge">
<title>Node16&#45;&gt;Node25</title>
<g id="a_edge40_Node000016_Node000025"><a xlink:title=" ">
<path fill="none" stroke="#63b8ff" d="M769.37,-220.83C766.58,-214.09 762.63,-204.52 759.1,-195.99"/>
<polygon fill="#63b8ff" stroke="#63b8ff" points="762.34,-194.66 755.29,-186.76 755.87,-197.34 762.34,-194.66"/>
</a>
</g>
</g>
<!-- Node26 -->
<g id="Node000026" class="node">
<title>Node26</title>
<g id="a_Node000026"><a xlink:title=" ">
<polygon fill="#e0e0e0" stroke="#999999" points="843.62,-185 792.38,-185 792.38,-165.75 843.62,-165.75 843.62,-185"/>
<text text-anchor="middle" x="818" y="-171.5" font-family="Helvetica,sans-Serif" font-size="10.00">sstream</text>
</a>
</g>
</g>
<!-- Node16&#45;&gt;Node26 -->
<g id="edge44_Node000016_Node000026" class="edge">
<title>Node16&#45;&gt;Node26</title>
<g id="a_edge44_Node000016_Node000026"><a xlink:title=" ">
<path fill="none" stroke="#63b8ff" d="M780.43,-220.83C786.58,-213.55 795.51,-202.98 803.13,-193.98"/>
<polygon fill="#63b8ff" stroke="#63b8ff" points="805.65,-196.41 809.43,-186.52 800.3,-191.89 805.65,-196.41"/>
</a>
</g>
</g>
<!-- Node27 -->
<g id="Node000027" class="node">
<title>Node27</title>
<g id="a_Node000027"><a xlink:title=" ">
<polygon fill="#e0e0e0" stroke="#999999" points="591.88,-185 548.12,-185 548.12,-165.75 591.88,-165.75 591.88,-185"/>
<text text-anchor="middle" x="570" y="-171.5" font-family="Helvetica,sans-Serif" font-size="10.00">format</text>
</a>
</g>
</g>
<!-- Node16&#45;&gt;Node27 -->
<g id="edge48_Node000016_Node000027" class="edge">
<title>Node16&#45;&gt;Node27</title>
<g id="a_edge48_Node000016_Node000027"><a xlink:title=" ">
<path fill="none" stroke="#63b8ff" d="M737.38,-220.58C704.87,-212.28 655.22,-199.49 603.42,-185.62"/>
<polygon fill="#63b8ff" stroke="#63b8ff" points="604.37,-182.25 593.8,-183.03 602.55,-189.01 604.37,-182.25"/>
</a>
</g>
</g>
<!-- Node17&#45;&gt;Node2 -->
<g id="edge22_Node000017_Node000002" class="edge">
<title>Node17&#45;&gt;Node2</title>
<g id="a_edge22_Node000017_Node000002"><a xlink:title=" ">
<path fill="none" stroke="#63b8ff" d="M644.21,-165.31C611.55,-146.56 536.32,-103.37 496.62,-80.58"/>
<polygon fill="#63b8ff" stroke="#63b8ff" points="498.6,-77.69 488.19,-75.74 495.12,-83.76 498.6,-77.69"/>
</a>
</g>
</g>
<!-- Node17&#45;&gt;Node3 -->
<g id="edge27_Node000017_Node000003" class="edge">
<title>Node17&#45;&gt;Node3</title>
<g id="a_edge27_Node000017_Node000003"><a xlink:title=" ">
<path fill="none" stroke="#63b8ff" d="M653.92,-165.57C636.07,-139.69 583.49,-63.5 559.36,-28.53"/>
<polygon fill="#63b8ff" stroke="#63b8ff" points="562.53,-26.96 553.97,-20.72 556.76,-30.94 562.53,-26.96"/>
</a>
</g>
</g>
<!-- Node17&#45;&gt;Node4 -->
<g id="edge28_Node000017_Node000004" class="edge">
<title>Node17&#45;&gt;Node4</title>
<g id="a_edge28_Node000017_Node000004"><a xlink:title=" ">
<path fill="none" stroke="#63b8ff" d="M664.46,-165.57C677.47,-139.92 715.54,-64.8 733.46,-29.44"/>
<polygon fill="#63b8ff" stroke="#63b8ff" points="736.43,-31.32 737.83,-20.82 730.19,-28.16 736.43,-31.32"/>
</a>
</g>
</g>
<!-- Node17&#45;&gt;Node6 -->
<g id="edge23_Node000017_Node000006" class="edge">
<title>Node17&#45;&gt;Node6</title>
<g id="a_edge23_Node000017_Node000006"><a xlink:title=" ">
<path fill="none" stroke="#63b8ff" d="M706.79,-165.28C753.68,-156.17 825.96,-142.12 876.36,-132.33"/>
<polygon fill="#63b8ff" stroke="#63b8ff" points="876.77,-135.81 885.92,-130.47 875.43,-128.94 876.77,-135.81"/>
</a>
</g>
</g>
<!-- Node17&#45;&gt;Node18 -->
<g id="edge24_Node000017_Node000018" class="edge">
<title>Node17&#45;&gt;Node18</title>
<g id="a_edge24_Node000017_Node000018"><a xlink:title=" ">
<path fill="none" stroke="#63b8ff" d="M609.17,-166.8C606.41,-166.43 603.67,-166.08 601,-165.75 443.61,-146.28 403.67,-146.81 246,-129.75 234.37,-128.49 221.73,-127.06 210.21,-125.73"/>
<polygon fill="#63b8ff" stroke="#63b8ff" points="210.97,-122.3 200.63,-124.62 210.16,-129.25 210.97,-122.3"/>
</a>
</g>
</g>
<!-- Node17&#45;&gt;Node19 -->
<g id="edge25_Node000017_Node000019" class="edge">
<title>Node17&#45;&gt;Node19</title>
<g id="a_edge25_Node000017_Node000019"><a xlink:title=" ">
<path fill="none" stroke="#63b8ff" d="M710.82,-166.69C713.58,-166.35 716.32,-166.04 719,-165.75 951.84,-140.92 1015.65,-163.45 1250.32,-129.91"/>
<polygon fill="#63b8ff" stroke="#63b8ff" points="1250.73,-133.38 1260.13,-128.48 1249.73,-126.46 1250.73,-133.38"/>
</a>
</g>
</g>
<!-- Node17&#45;&gt;Node20 -->
<g id="edge26_Node000017_Node000020" class="edge">
<title>Node17&#45;&gt;Node20</title>
<g id="a_edge26_Node000017_Node000020"><a xlink:title=" ">
<path fill="none" stroke="#63b8ff" d="M684.6,-165.34C708.49,-156.57 744.96,-143.18 771.5,-133.43"/>
<polygon fill="#63b8ff" stroke="#63b8ff" points="772.6,-136.75 780.78,-130.02 770.18,-130.18 772.6,-136.75"/>
</a>
</g>
</g>
<!-- Node17&#45;&gt;Node21 -->
<g id="edge29_Node000017_Node000021" class="edge">
<title>Node17&#45;&gt;Node21</title>
<g id="a_edge29_Node000017_Node000021"><a xlink:title=" ">
<path fill="none" stroke="#63b8ff" d="M710.83,-166.76C713.59,-166.41 716.33,-166.07 719,-165.75 885.82,-146.04 1085.25,-130.45 1170.73,-124.15"/>
<polygon fill="#63b8ff" stroke="#63b8ff" points="1170.79,-127.66 1180.5,-123.44 1170.28,-120.68 1170.79,-127.66"/>
</a>
</g>
</g>
<!-- Node22&#45;&gt;Node2 -->
<g id="edge31_Node000022_Node000002" class="edge">
<title>Node22&#45;&gt;Node2</title>
<g id="a_edge31_Node000022_Node000002"><a xlink:title=" ">
<path fill="none" stroke="#63b8ff" d="M286.89,-165.36C299.18,-151.8 324.16,-126.09 350,-110.5 373.33,-96.42 401.83,-85.64 425.31,-78.21"/>
<polygon fill="#63b8ff" stroke="#63b8ff" points="426.06,-81.64 434.6,-75.37 424.01,-74.94 426.06,-81.64"/>
</a>
</g>
</g>
<!-- Node22&#45;&gt;Node11 -->
<g id="edge35_Node000022_Node000011" class="edge">
<title>Node22&#45;&gt;Node11</title>
<g id="a_edge35_Node000022_Node000011"><a xlink:title=" ">
<path fill="none" stroke="#63b8ff" d="M270.3,-165.51C257.37,-152.59 232.03,-128.2 208,-110.5 192.88,-99.37 174.82,-88.56 160.22,-80.36"/>
<polygon fill="#63b8ff" stroke="#63b8ff" points="162.06,-77.38 151.61,-75.62 158.68,-83.51 162.06,-77.38"/>
</a>
</g>
</g>
<!-- Node22&#45;&gt;Node18 -->
<g id="edge32_Node000022_Node000018" class="edge">
<title>Node22&#45;&gt;Node18</title>
<g id="a_edge32_Node000022_Node000018"><a xlink:title=" ">
<path fill="none" stroke="#63b8ff" d="M260.68,-165.34C243.92,-157.08 218.87,-144.73 199.5,-135.18"/>
<polygon fill="#63b8ff" stroke="#63b8ff" points="201.28,-132.15 190.77,-130.87 198.19,-138.43 201.28,-132.15"/>
</a>
</g>
</g>
<!-- Node22&#45;&gt;Node21 -->
<g id="edge36_Node000022_Node000021" class="edge">
<title>Node22&#45;&gt;Node21</title>
<g id="a_edge36_Node000022_Node000021"><a xlink:title=" ">
<path fill="none" stroke="#63b8ff" d="M339.92,-170.9C515.81,-160.87 1021.37,-132.05 1170.87,-123.53"/>
<polygon fill="#63b8ff" stroke="#63b8ff" points="1170.93,-127.03 1180.71,-122.97 1170.53,-120.04 1170.93,-127.03"/>
</a>
</g>
</g>
<!-- Node23 -->
<g id="Node000023" class="node">
<title>Node23</title>
<g id="a_Node000023"><a xlink:title=" ">
<polygon fill="#e0e0e0" stroke="#999999" points="303.12,-129.75 254.88,-129.75 254.88,-110.5 303.12,-110.5 303.12,-129.75"/>
<text text-anchor="middle" x="279" y="-116.25" font-family="Helvetica,sans-Serif" font-size="10.00">cstddef</text>
</a>
</g>
</g>
<!-- Node22&#45;&gt;Node23 -->
<g id="edge33_Node000022_Node000023" class="edge">
<title>Node22&#45;&gt;Node23</title>
<g id="a_edge33_Node000022_Node000023"><a xlink:title=" ">
<path fill="none" stroke="#63b8ff" d="M279,-165.58C279,-159.07 279,-149.92 279,-141.62"/>
<polygon fill="#63b8ff" stroke="#63b8ff" points="282.5,-141.62 279,-131.62 275.5,-141.62 282.5,-141.62"/>
</a>
</g>
</g>
<!-- Node22&#45;&gt;Node24 -->
<g id="edge34_Node000022_Node000024" class="edge">
<title>Node22&#45;&gt;Node24</title>
<g id="a_edge34_Node000022_Node000024"><a xlink:title=" ">
<path fill="none" stroke="#63b8ff" d="M296.47,-165.34C312.31,-157.16 335.91,-144.96 354.31,-135.44"/>
<polygon fill="#63b8ff" stroke="#63b8ff" points="355.82,-138.6 363.1,-130.9 352.61,-132.38 355.82,-138.6"/>
</a>
</g>
</g>
</g>
</svg>
