<?xml version="1.0" encoding="UTF-8" standalone="no"?>
<!DOCTYPE svg PUBLIC "-//W3C//DTD SVG 1.1//EN"
 "http://www.w3.org/Graphics/SVG/1.1/DTD/svg11.dtd">
<!-- Generated by graphviz version 12.2.1 (20241206.2353)
 -->
<!-- Title: mimic++/utilities/Algorithm.hpp Pages: 1 -->
<svg width="556pt" height="138pt"
 viewBox="0.00 0.00 555.62 137.75" xmlns="http://www.w3.org/2000/svg" xmlns:xlink="http://www.w3.org/1999/xlink">
<g id="graph0" class="graph" transform="scale(1 1) rotate(0) translate(4 133.75)">
<title>mimic++/utilities/Algorithm.hpp</title>
<!-- Node1 -->
<g id="Node000001" class="node">
<title>Node1</title>
<g id="a_Node000001"><a xlink:title=" ">
<polygon fill="#999999" stroke="#666666" points="396.5,-129.75 246.25,-129.75 246.25,-110.5 396.5,-110.5 396.5,-129.75"/>
<text text-anchor="middle" x="321.38" y="-116.25" font-family="Helvetica,sans-Serif" font-size="10.00">mimic++/utilities/Algorithm.hpp</text>
</a>
</g>
</g>
<!-- Node2 -->
<g id="Node000002" class="node">
<title>Node2</title>
<g id="a_Node000002"><a xlink:href="../../d8/dd2/_config_8hpp.html" target="_top" xlink:title=" ">
<polygon fill="white" stroke="#666666" points="130.75,-74.5 0,-74.5 0,-55.25 130.75,-55.25 130.75,-74.5"/>
<text text-anchor="middle" x="65.38" y="-61" font-family="Helvetica,sans-Serif" font-size="10.00">mimic++/config/Config.hpp</text>
</a>
</g>
</g>
<!-- Node1&#45;&gt;Node2 -->
<g id="edge1_Node000001_Node000002" class="edge">
<title>Node1&#45;&gt;Node2</title>
<g id="a_edge1_Node000001_Node000002"><a xlink:title=" ">
<path fill="none" stroke="#63b8ff" d="M277.66,-110.03C234.12,-100.98 167.17,-87.05 120.12,-77.26"/>
<polygon fill="#63b8ff" stroke="#63b8ff" points="120.9,-73.85 110.39,-75.24 119.47,-80.7 120.9,-73.85"/>
</a>
</g>
</g>
<!-- Node5 -->
<g id="Node000005" class="node">
<title>Node5</title>
<g id="a_Node000005"><a xlink:title=" ">
<polygon fill="#e0e0e0" stroke="#999999" points="204.25,-74.5 148.5,-74.5 148.5,-55.25 204.25,-55.25 204.25,-74.5"/>
<text text-anchor="middle" x="176.38" y="-61" font-family="Helvetica,sans-Serif" font-size="10.00">algorithm</text>
</a>
</g>
</g>
<!-- Node1&#45;&gt;Node5 -->
<g id="edge4_Node000001_Node000005" class="edge">
<title>Node1&#45;&gt;Node5</title>
<g id="a_edge4_Node000001_Node000005"><a xlink:title=" ">
<path fill="none" stroke="#63b8ff" d="M296.78,-110.09C273.45,-101.52 238.14,-88.56 211.78,-78.88"/>
<polygon fill="#63b8ff" stroke="#63b8ff" points="213.11,-75.64 202.51,-75.47 210.69,-82.21 213.11,-75.64"/>
</a>
</g>
</g>
<!-- Node6 -->
<g id="Node000006" class="node">
<title>Node6</title>
<g id="a_Node000006"><a xlink:title=" ">
<polygon fill="#e0e0e0" stroke="#999999" points="280.38,-74.5 222.38,-74.5 222.38,-55.25 280.38,-55.25 280.38,-74.5"/>
<text text-anchor="middle" x="251.38" y="-61" font-family="Helvetica,sans-Serif" font-size="10.00">functional</text>
</a>
</g>
</g>
<!-- Node1&#45;&gt;Node6 -->
<g id="edge5_Node000001_Node000006" class="edge">
<title>Node1&#45;&gt;Node6</title>
<g id="a_edge5_Node000001_Node000006"><a xlink:title=" ">
<path fill="none" stroke="#63b8ff" d="M309.5,-110.09C299.28,-102.32 284.3,-90.92 272.11,-81.65"/>
<polygon fill="#63b8ff" stroke="#63b8ff" points="274.36,-78.96 264.28,-75.69 270.12,-84.53 274.36,-78.96"/>
</a>
</g>
</g>
<!-- Node7 -->
<g id="Node000007" class="node">
<title>Node7</title>
<g id="a_Node000007"><a xlink:title=" ">
<polygon fill="#e0e0e0" stroke="#999999" points="344.38,-74.5 298.38,-74.5 298.38,-55.25 344.38,-55.25 344.38,-74.5"/>
<text text-anchor="middle" x="321.38" y="-61" font-family="Helvetica,sans-Serif" font-size="10.00">iterator</text>
</a>
</g>
</g>
<!-- Node1&#45;&gt;Node7 -->
<g id="edge6_Node000001_Node000007" class="edge">
<title>Node1&#45;&gt;Node7</title>
<g id="a_edge6_Node000001_Node000007"><a xlink:title=" ">
<path fill="none" stroke="#63b8ff" d="M321.38,-110.33C321.38,-103.82 321.38,-94.67 321.38,-86.37"/>
<polygon fill="#63b8ff" stroke="#63b8ff" points="324.88,-86.37 321.38,-76.37 317.88,-86.37 324.88,-86.37"/>
</a>
</g>
</g>
<!-- Node8 -->
<g id="Node000008" class="node">
<title>Node8</title>
<g id="a_Node000008"><a xlink:title=" ">
<polygon fill="#e0e0e0" stroke="#999999" points="408,-74.5 362.75,-74.5 362.75,-55.25 408,-55.25 408,-74.5"/>
<text text-anchor="middle" x="385.38" y="-61" font-family="Helvetica,sans-Serif" font-size="10.00">ranges</text>
</a>
</g>
</g>
<!-- Node1&#45;&gt;Node8 -->
<g id="edge7_Node000001_Node000008" class="edge">
<title>Node1&#45;&gt;Node8</title>
<g id="a_edge7_Node000001_Node000008"><a xlink:title=" ">
<path fill="none" stroke="#63b8ff" d="M332.23,-110.09C341.48,-102.4 355,-91.15 366.08,-81.93"/>
<polygon fill="#63b8ff" stroke="#63b8ff" points="368.07,-84.83 373.52,-75.74 363.59,-79.45 368.07,-84.83"/>
</a>
</g>
</g>
<!-- Node9 -->
<g id="Node000009" class="node">
<title>Node9</title>
<g id="a_Node000009"><a xlink:title=" ">
<polygon fill="#e0e0e0" stroke="#999999" points="491.12,-74.5 425.62,-74.5 425.62,-55.25 491.12,-55.25 491.12,-74.5"/>
<text text-anchor="middle" x="458.38" y="-61" font-family="Helvetica,sans-Serif" font-size="10.00">string_view</text>
</a>
</g>
</g>
<!-- Node1&#45;&gt;Node9 -->
<g id="edge8_Node000001_Node000009" class="edge">
<title>Node1&#45;&gt;Node9</title>
<g id="a_edge8_Node000001_Node000009"><a xlink:title=" ">
<path fill="none" stroke="#63b8ff" d="M344.62,-110.09C366.56,-101.56 399.72,-88.67 424.59,-79.01"/>
<polygon fill="#63b8ff" stroke="#63b8ff" points="425.56,-82.39 433.61,-75.5 423.02,-75.86 425.56,-82.39"/>
</a>
</g>
</g>
<!-- Node10 -->
<g id="Node000010" class="node">
<title>Node10</title>
<g id="a_Node000010"><a xlink:title=" ">
<polygon fill="#e0e0e0" stroke="#999999" points="547.62,-74.5 509.12,-74.5 509.12,-55.25 547.62,-55.25 547.62,-74.5"/>
<text text-anchor="middle" x="528.38" y="-61" font-family="Helvetica,sans-Serif" font-size="10.00">utility</text>
</a>
</g>
</g>
<!-- Node1&#45;&gt;Node10 -->
<g id="edge9_Node000001_Node000010" class="edge">
<title>Node1&#45;&gt;Node10</title>
<g id="a_edge9_Node000001_Node000010"><a xlink:title=" ">
<path fill="none" stroke="#63b8ff" d="M360.29,-110.07C394.32,-102.01 445.29,-89.59 497.93,-75.07"/>
<polygon fill="#63b8ff" stroke="#63b8ff" points="498.68,-78.5 507.37,-72.45 496.8,-71.76 498.68,-78.5"/>
</a>
</g>
</g>
<!-- Node3 -->
<g id="Node000003" class="node">
<title>Node3</title>
<g id="a_Node000003"><a xlink:title=" ">
<polygon fill="#e0e0e0" stroke="#999999" points="56,-19.25 10.75,-19.25 10.75,0 56,0 56,-19.25"/>
<text text-anchor="middle" x="33.38" y="-5.75" font-family="Helvetica,sans-Serif" font-size="10.00">cstdint</text>
</a>
</g>
</g>
<!-- Node2&#45;&gt;Node3 -->
<g id="edge2_Node000002_Node000003" class="edge">
<title>Node2&#45;&gt;Node3</title>
<g id="a_edge2_Node000002_Node000003"><a xlink:title=" ">
<path fill="none" stroke="#63b8ff" d="M60.09,-55.08C55.9,-48.11 49.9,-38.12 44.64,-29.37"/>
<polygon fill="#63b8ff" stroke="#63b8ff" points="47.7,-27.68 39.55,-20.91 41.7,-31.28 47.7,-27.68"/>
</a>
</g>
</g>
<!-- Node4 -->
<g id="Node000004" class="node">
<title>Node4</title>
<g id="a_Node000004"><a xlink:title=" ">
<polygon fill="#e0e0e0" stroke="#999999" points="121.12,-19.25 73.62,-19.25 73.62,0 121.12,0 121.12,-19.25"/>
<text text-anchor="middle" x="97.38" y="-5.75" font-family="Helvetica,sans-Serif" font-size="10.00">version</text>
</a>
</g>
</g>
<!-- Node2&#45;&gt;Node4 -->
<g id="edge3_Node000002_Node000004" class="edge">
<title>Node2&#45;&gt;Node4</title>
<g id="a_edge3_Node000002_Node000004"><a xlink:title=" ">
<path fill="none" stroke="#63b8ff" d="M70.66,-55.08C74.85,-48.11 80.85,-38.12 86.11,-29.37"/>
<polygon fill="#63b8ff" stroke="#63b8ff" points="89.05,-31.28 91.2,-20.91 83.05,-27.68 89.05,-31.28"/>
</a>
</g>
</g>
</g>
</svg>
