<?xml version="1.0" encoding="UTF-8" standalone="no"?>
<!DOCTYPE svg PUBLIC "-//W3C//DTD SVG 1.1//EN"
 "http://www.w3.org/Graphics/SVG/1.1/DTD/svg11.dtd">
<!-- Generated by graphviz version 12.2.1 (20241206.2353)
 -->
<!-- Title: mimic++/reporting/CallReport.hpp Pages: 1 -->
<svg width="1007pt" height="647pt"
 viewBox="0.00 0.00 1006.62 647.25" xmlns="http://www.w3.org/2000/svg" xmlns:xlink="http://www.w3.org/1999/xlink">
<g id="graph0" class="graph" transform="scale(1 1) rotate(0) translate(4 643.25)">
<title>mimic++/reporting/CallReport.hpp</title>
<!-- Node1 -->
<g id="Node000001" class="node">
<title>Node1</title>
<g id="a_Node000001"><a xlink:title=" ">
<polygon fill="#999999" stroke="#666666" points="381,-639.25 220.25,-639.25 220.25,-620 381,-620 381,-639.25"/>
<text text-anchor="middle" x="300.62" y="-625.75" font-family="Helvetica,sans-Serif" font-size="10.00">mimic++/reporting/CallReport.hpp</text>
</a>
</g>
</g>
<!-- Node2 -->
<g id="Node000002" class="node">
<title>Node2</title>
<g id="a_Node000002"><a xlink:href="../../d7/deb/_reporting_8hpp.html" target="_top" xlink:title=" ">
<polygon fill="white" stroke="#666666" points="343.88,-384.5 227.38,-384.5 227.38,-365.25 343.88,-365.25 343.88,-384.5"/>
<text text-anchor="middle" x="285.62" y="-371" font-family="Helvetica,sans-Serif" font-size="10.00">mimic++/Reporting.hpp</text>
</a>
</g>
</g>
<!-- Node1&#45;&gt;Node2 -->
<g id="edge1_Node000001_Node000002" class="edge">
<title>Node1&#45;&gt;Node2</title>
<g id="a_edge1_Node000001_Node000002"><a xlink:title=" ">
<path fill="none" stroke="#63b8ff" d="M318.64,-611.98C344.32,-586.13 386.67,-534.38 370.62,-487 355.67,-442.83 315.33,-402.41 296.1,-384.96"/>
<polygon fill="#63b8ff" stroke="#63b8ff" points="316.5,-609.18 311.77,-618.65 321.38,-614.2 316.5,-609.18"/>
</a>
</g>
</g>
<!-- Node4 -->
<g id="Node000004" class="node">
<title>Node4</title>
<g id="a_Node000004"><a xlink:href="../../d1/dfd/_basic_reporter_8hpp.html" target="_top" xlink:title=" ">
<polygon fill="white" stroke="#666666" points="177.25,-511.88 0,-511.88 0,-492.62 177.25,-492.62 177.25,-511.88"/>
<text text-anchor="middle" x="88.62" y="-498.38" font-family="Helvetica,sans-Serif" font-size="10.00">mimic++/reporting/BasicReporter.hpp</text>
</a>
</g>
</g>
<!-- Node1&#45;&gt;Node4 -->
<g id="edge3_Node000001_Node000004" class="edge">
<title>Node1&#45;&gt;Node4</title>
<g id="a_edge3_Node000001_Node000004"><a xlink:title=" ">
<path fill="none" stroke="#63b8ff" d="M208.86,-619.37C181.12,-612.92 152.09,-602.1 129.62,-584 106.12,-565.06 94.81,-529.11 90.62,-512.32"/>
<polygon fill="#63b8ff" stroke="#63b8ff" points="207.83,-622.73 218.34,-621.4 209.29,-615.89 207.83,-622.73"/>
</a>
</g>
</g>
<!-- Node5 -->
<g id="Node000005" class="node">
<title>Node5</title>
<g id="a_Node000005"><a xlink:href="../../d0/d70/_default_reporter_8hpp.html" target="_top" xlink:title=" ">
<polygon fill="white" stroke="#666666" points="361.88,-517.5 233.38,-517.5 233.38,-487 361.88,-487 361.88,-517.5"/>
<text text-anchor="start" x="241.38" y="-504" font-family="Helvetica,sans-Serif" font-size="10.00">mimic++/reporting/Default</text>
<text text-anchor="middle" x="297.62" y="-492.75" font-family="Helvetica,sans-Serif" font-size="10.00">Reporter.hpp</text>
</a>
</g>
</g>
<!-- Node1&#45;&gt;Node5 -->
<g id="edge5_Node000001_Node000005" class="edge">
<title>Node1&#45;&gt;Node5</title>
<g id="a_edge5_Node000001_Node000005"><a xlink:title=" ">
<path fill="none" stroke="#63b8ff" d="M300.14,-608.44C299.54,-583.07 298.51,-540.17 297.97,-517.8"/>
<polygon fill="#63b8ff" stroke="#63b8ff" points="296.63,-608.18 300.37,-618.1 303.63,-608.01 296.63,-608.18"/>
</a>
</g>
</g>
<!-- Node6 -->
<g id="Node000006" class="node">
<title>Node6</title>
<g id="a_Node000006"><a xlink:href="../../de/dd1/_global_reporter_8hpp.html" target="_top" xlink:title=" ">
<polygon fill="white" stroke="#666666" points="543.38,-451 417.88,-451 417.88,-420.5 543.38,-420.5 543.38,-451"/>
<text text-anchor="start" x="425.88" y="-437.5" font-family="Helvetica,sans-Serif" font-size="10.00">mimic++/reporting/Global</text>
<text text-anchor="middle" x="480.62" y="-426.25" font-family="Helvetica,sans-Serif" font-size="10.00">Reporter.hpp</text>
</a>
</g>
</g>
<!-- Node1&#45;&gt;Node6 -->
<g id="edge35_Node000001_Node000006" class="edge">
<title>Node1&#45;&gt;Node6</title>
<g id="a_edge35_Node000001_Node000006"><a xlink:title=" ">
<path fill="none" stroke="#63b8ff" d="M347.59,-615.88C366.69,-608.89 387.92,-598.6 403.62,-584 444.83,-545.7 467.94,-480.31 476.61,-451.32"/>
<polygon fill="#63b8ff" stroke="#63b8ff" points="346.7,-612.49 338.37,-619.04 348.97,-619.11 346.7,-612.49"/>
</a>
</g>
</g>
<!-- Node17 -->
<g id="Node000017" class="node">
<title>Node17</title>
<g id="a_Node000017"><a xlink:href="../../d9/d70/_stringify_reports_8hpp.html" target="_top" xlink:title=" ">
<polygon fill="white" stroke="#666666" points="272.12,-584 139.12,-584 139.12,-553.5 272.12,-553.5 272.12,-584"/>
<text text-anchor="start" x="147.12" y="-570.5" font-family="Helvetica,sans-Serif" font-size="10.00">mimic++/reporting/Stringify</text>
<text text-anchor="middle" x="205.62" y="-559.25" font-family="Helvetica,sans-Serif" font-size="10.00">Reports.hpp</text>
</a>
</g>
</g>
<!-- Node1&#45;&gt;Node17 -->
<g id="edge36_Node000001_Node000017" class="edge">
<title>Node1&#45;&gt;Node17</title>
<g id="a_edge36_Node000001_Node000017"><a xlink:title=" ">
<path fill="none" stroke="#63b8ff" d="M276.83,-613.88C262.23,-604.83 243.61,-593.29 229.07,-584.28"/>
<polygon fill="#63b8ff" stroke="#63b8ff" points="274.57,-616.59 284.91,-618.89 278.25,-610.64 274.57,-616.59"/>
</a>
</g>
</g>
<!-- Node3 -->
<g id="Node000003" class="node">
<title>Node3</title>
<g id="a_Node000003"><a xlink:href="../../d0/db9/mimic_09_09_8hpp.html" target="_top" xlink:title=" ">
<polygon fill="white" stroke="#666666" points="657.38,-19.25 543.88,-19.25 543.88,0 657.38,0 657.38,-19.25"/>
<text text-anchor="middle" x="600.62" y="-5.75" font-family="Helvetica,sans-Serif" font-size="10.00">mimic++/mimic++.hpp</text>
</a>
</g>
</g>
<!-- Node2&#45;&gt;Node3 -->
<g id="edge2_Node000002_Node000003" class="edge">
<title>Node2&#45;&gt;Node3</title>
<g id="a_edge2_Node000002_Node000003"><a xlink:title=" ">
<path fill="none" stroke="#63b8ff" d="M281.97,-353.68C277.82,-328.96 271.62,-285.8 271.62,-248.5 271.62,-248.5 271.62,-248.5 271.62,-119.12 271.62,-72.58 312.08,-74.13 354.62,-55.25 415.62,-28.18 492.09,-17.53 543.43,-13.34"/>
<polygon fill="#63b8ff" stroke="#63b8ff" points="278.48,-354.05 283.65,-363.3 285.38,-352.85 278.48,-354.05"/>
</a>
</g>
</g>
<!-- Node4&#45;&gt;Node2 -->
<g id="edge4_Node000004_Node000002" class="edge">
<title>Node4&#45;&gt;Node2</title>
<g id="a_edge4_Node000004_Node000002"><a xlink:title=" ">
<path fill="none" stroke="#63b8ff" d="M107,-484.79C126.92,-467.45 160.1,-440.01 191.62,-420.5 214.82,-406.15 243.36,-393.2 262.86,-384.99"/>
<polygon fill="#63b8ff" stroke="#63b8ff" points="104.92,-481.96 99.73,-491.19 109.55,-487.21 104.92,-481.96"/>
</a>
</g>
</g>
<!-- Node5&#45;&gt;Node2 -->
<g id="edge6_Node000005_Node000002" class="edge">
<title>Node5&#45;&gt;Node2</title>
<g id="a_edge6_Node000005_Node000002"><a xlink:title=" ">
<path fill="none" stroke="#63b8ff" d="M295.16,-475.49C292.46,-447.25 288.27,-403.5 286.48,-384.82"/>
<polygon fill="#63b8ff" stroke="#63b8ff" points="291.67,-475.74 296.1,-485.36 298.64,-475.07 291.67,-475.74"/>
</a>
</g>
</g>
<!-- Node5&#45;&gt;Node6 -->
<g id="edge7_Node000005_Node000006" class="edge">
<title>Node5&#45;&gt;Node6</title>
<g id="a_edge7_Node000005_Node000006"><a xlink:title=" ">
<path fill="none" stroke="#63b8ff" d="M349.66,-482.91C377.94,-472.94 412.45,-460.78 438.95,-451.44"/>
<polygon fill="#63b8ff" stroke="#63b8ff" points="348.85,-479.49 340.58,-486.11 351.17,-486.09 348.85,-479.49"/>
</a>
</g>
</g>
<!-- Node6&#45;&gt;Node2 -->
<g id="edge8_Node000006_Node000002" class="edge">
<title>Node6&#45;&gt;Node2</title>
<g id="a_edge8_Node000006_Node000002"><a xlink:title=" ">
<path fill="none" stroke="#63b8ff" d="M420.92,-416.72C386.14,-406.22 343.77,-393.43 315.82,-384.99"/>
<polygon fill="#63b8ff" stroke="#63b8ff" points="419.89,-420.07 430.47,-419.61 421.91,-413.37 419.89,-420.07"/>
</a>
</g>
</g>
<!-- Node7 -->
<g id="Node000007" class="node">
<title>Node7</title>
<g id="a_Node000007"><a xlink:href="../../d8/de4/_sequence_8hpp.html" target="_top" xlink:title=" ">
<polygon fill="white" stroke="#666666" points="540,-384.5 421.25,-384.5 421.25,-365.25 540,-365.25 540,-384.5"/>
<text text-anchor="middle" x="480.62" y="-371" font-family="Helvetica,sans-Serif" font-size="10.00">mimic++/Sequence.hpp</text>
</a>
</g>
</g>
<!-- Node6&#45;&gt;Node7 -->
<g id="edge9_Node000006_Node000007" class="edge">
<title>Node6&#45;&gt;Node7</title>
<g id="a_edge9_Node000006_Node000007"><a xlink:title=" ">
<path fill="none" stroke="#63b8ff" d="M480.62,-408.73C480.62,-400.23 480.62,-391.34 480.62,-384.95"/>
<polygon fill="#63b8ff" stroke="#63b8ff" points="477.13,-408.68 480.63,-418.68 484.13,-408.68 477.13,-408.68"/>
</a>
</g>
</g>
<!-- Node9 -->
<g id="Node000009" class="node">
<title>Node9</title>
<g id="a_Node000009"><a xlink:href="../../db/d5d/_registry_8hpp.html" target="_top" xlink:title=" ">
<polygon fill="white" stroke="#666666" points="629,-329.25 522.25,-329.25 522.25,-298.75 629,-298.75 629,-329.25"/>
<text text-anchor="start" x="530.25" y="-315.75" font-family="Helvetica,sans-Serif" font-size="10.00">mimic++/expectation</text>
<text text-anchor="middle" x="575.62" y="-304.5" font-family="Helvetica,sans-Serif" font-size="10.00">/Registry.hpp</text>
</a>
</g>
</g>
<!-- Node6&#45;&gt;Node9 -->
<g id="edge34_Node000006_Node000009" class="edge">
<title>Node6&#45;&gt;Node9</title>
<g id="a_edge34_Node000006_Node000009"><a xlink:title=" ">
<path fill="none" stroke="#63b8ff" d="M516.5,-413.93C527.96,-405.9 539.92,-395.89 548.62,-384.5 561.36,-367.84 568.79,-344.43 572.53,-329.49"/>
<polygon fill="#63b8ff" stroke="#63b8ff" points="514.72,-410.91 508.33,-419.36 518.6,-416.74 514.72,-410.91"/>
</a>
</g>
</g>
<!-- Node7&#45;&gt;Node3 -->
<g id="edge30_Node000007_Node000003" class="edge">
<title>Node7&#45;&gt;Node3</title>
<g id="a_edge30_Node000007_Node000003"><a xlink:title=" ">
<path fill="none" stroke="#63b8ff" d="M433.62,-361.45C383,-344.89 309.62,-310.23 309.62,-248.5 309.62,-248.5 309.62,-248.5 309.62,-119.12 309.62,-69.45 460.36,-35.08 544.86,-19.71"/>
<polygon fill="#63b8ff" stroke="#63b8ff" points="432.33,-364.71 442.92,-364.35 434.42,-358.03 432.33,-364.71"/>
</a>
</g>
</g>
<!-- Node8 -->
<g id="Node000008" class="node">
<title>Node8</title>
<g id="a_Node000008"><a xlink:href="../../db/d83/_scoped_sequence_8hpp.html" target="_top" xlink:title=" ">
<polygon fill="white" stroke="#666666" points="534.5,-129.75 382.75,-129.75 382.75,-110.5 534.5,-110.5 534.5,-129.75"/>
<text text-anchor="middle" x="458.62" y="-116.25" font-family="Helvetica,sans-Serif" font-size="10.00">mimic++/ScopedSequence.hpp</text>
</a>
</g>
</g>
<!-- Node7&#45;&gt;Node8 -->
<g id="edge10_Node000007_Node000008" class="edge">
<title>Node7&#45;&gt;Node8</title>
<g id="a_edge10_Node000007_Node000008"><a xlink:title=" ">
<path fill="none" stroke="#63b8ff" d="M479.44,-353.74C477.77,-326.26 474.48,-275.49 470.62,-232.25 467.23,-194.17 461.95,-148.89 459.7,-130.04"/>
<polygon fill="#63b8ff" stroke="#63b8ff" points="475.93,-353.63 480.02,-363.41 482.91,-353.22 475.93,-353.63"/>
</a>
</g>
</g>
<!-- Node7&#45;&gt;Node9 -->
<g id="edge12_Node000007_Node000009" class="edge">
<title>Node7&#45;&gt;Node9</title>
<g id="a_edge12_Node000007_Node000009"><a xlink:title=" ">
<path fill="none" stroke="#63b8ff" d="M504.42,-359.13C519.02,-350.08 537.64,-338.54 552.18,-329.53"/>
<polygon fill="#63b8ff" stroke="#63b8ff" points="503,-355.89 496.34,-364.14 506.68,-361.84 503,-355.89"/>
</a>
</g>
</g>
<!-- Node16 -->
<g id="Node000016" class="node">
<title>Node16</title>
<g id="a_Node000016"><a xlink:href="../../db/d70/_control_policies_8hpp.html" target="_top" xlink:title=" ">
<polygon fill="white" stroke="#666666" points="461.62,-262.75 337.62,-262.75 337.62,-232.25 461.62,-232.25 461.62,-262.75"/>
<text text-anchor="start" x="345.62" y="-249.25" font-family="Helvetica,sans-Serif" font-size="10.00">mimic++/policies/Control</text>
<text text-anchor="middle" x="399.62" y="-238" font-family="Helvetica,sans-Serif" font-size="10.00">Policies.hpp</text>
</a>
</g>
</g>
<!-- Node7&#45;&gt;Node16 -->
<g id="edge31_Node000007_Node000016" class="edge">
<title>Node7&#45;&gt;Node16</title>
<g id="a_edge31_Node000007_Node000016"><a xlink:title=" ">
<path fill="none" stroke="#63b8ff" d="M468.69,-355.4C452.47,-330.29 423.8,-285.93 409.02,-263.05"/>
<polygon fill="#63b8ff" stroke="#63b8ff" points="465.61,-357.09 473.98,-363.59 471.49,-353.29 465.61,-357.09"/>
</a>
</g>
</g>
<!-- Node8&#45;&gt;Node3 -->
<g id="edge11_Node000008_Node000003" class="edge">
<title>Node8&#45;&gt;Node3</title>
<g id="a_edge11_Node000008_Node000003"><a xlink:title=" ">
<path fill="none" stroke="#63b8ff" d="M479.08,-103.5C509.24,-80.45 564.68,-38.09 588.84,-19.63"/>
<polygon fill="#63b8ff" stroke="#63b8ff" points="477.27,-100.47 471.45,-109.33 481.52,-106.04 477.27,-100.47"/>
</a>
</g>
</g>
<!-- Node9&#45;&gt;Node3 -->
<g id="edge29_Node000009_Node000003" class="edge">
<title>Node9&#45;&gt;Node3</title>
<g id="a_edge29_Node000009_Node000003"><a xlink:title=" ">
<path fill="none" stroke="#63b8ff" d="M640.63,-306.5C759.23,-292.81 998.62,-256.03 998.62,-182 998.62,-182 998.62,-182 998.62,-119.12 998.62,-86.32 988.99,-73.35 961.62,-55.25 912.97,-23.07 746.53,-14.09 657.64,-11.59"/>
<polygon fill="#63b8ff" stroke="#63b8ff" points="640.25,-303.02 630.7,-307.62 641.03,-309.97 640.25,-303.02"/>
</a>
</g>
</g>
<!-- Node10 -->
<g id="Node000010" class="node">
<title>Node10</title>
<g id="a_Node000010"><a xlink:href="../../d5/dc5/_mock_8hpp.html" target="_top" xlink:title=" ">
<polygon fill="white" stroke="#666666" points="770.25,-129.75 671,-129.75 671,-110.5 770.25,-110.5 770.25,-129.75"/>
<text text-anchor="middle" x="720.62" y="-116.25" font-family="Helvetica,sans-Serif" font-size="10.00">mimic++/Mock.hpp</text>
</a>
</g>
</g>
<!-- Node9&#45;&gt;Node10 -->
<g id="edge13_Node000009_Node000010" class="edge">
<title>Node9&#45;&gt;Node10</title>
<g id="a_edge13_Node000009_Node000010"><a xlink:title=" ">
<path fill="none" stroke="#63b8ff" d="M640.08,-305.21C669.07,-298.5 701.45,-286 722.62,-262.75 752.05,-230.45 746.95,-208.64 738.62,-165.75 736.11,-152.79 729.84,-138.83 725.41,-130.04"/>
<polygon fill="#63b8ff" stroke="#63b8ff" points="639.71,-301.71 630.65,-307.2 641.15,-308.56 639.71,-301.71"/>
</a>
</g>
</g>
<!-- Node13 -->
<g id="Node000013" class="node">
<title>Node13</title>
<g id="a_Node000013"><a xlink:href="../../d6/d15/_builder_8hpp.html" target="_top" xlink:title=" ">
<polygon fill="white" stroke="#666666" points="605,-196.25 498.25,-196.25 498.25,-165.75 605,-165.75 605,-196.25"/>
<text text-anchor="start" x="506.25" y="-182.75" font-family="Helvetica,sans-Serif" font-size="10.00">mimic++/expectation</text>
<text text-anchor="middle" x="551.62" y="-171.5" font-family="Helvetica,sans-Serif" font-size="10.00">/Builder.hpp</text>
</a>
</g>
</g>
<!-- Node9&#45;&gt;Node13 -->
<g id="edge19_Node000009_Node000013" class="edge">
<title>Node9&#45;&gt;Node13</title>
<g id="a_edge19_Node000009_Node000013"><a xlink:title=" ">
<path fill="none" stroke="#63b8ff" d="M570.89,-287.18C565.93,-260.09 558.3,-218.46 554.3,-196.58"/>
<polygon fill="#63b8ff" stroke="#63b8ff" points="567.45,-287.79 572.69,-296.99 574.33,-286.52 567.45,-287.79"/>
</a>
</g>
</g>
<!-- Node14 -->
<g id="Node000014" class="node">
<title>Node14</title>
<g id="a_Node000014"><a xlink:href="../../d4/d1e/_owner_8hpp.html" target="_top" xlink:title=" ">
<polygon fill="white" stroke="#666666" points="714,-262.75 607.25,-262.75 607.25,-232.25 714,-232.25 714,-262.75"/>
<text text-anchor="start" x="615.25" y="-249.25" font-family="Helvetica,sans-Serif" font-size="10.00">mimic++/expectation</text>
<text text-anchor="middle" x="660.62" y="-238" font-family="Helvetica,sans-Serif" font-size="10.00">/Owner.hpp</text>
</a>
</g>
</g>
<!-- Node9&#45;&gt;Node14 -->
<g id="edge23_Node000009_Node000014" class="edge">
<title>Node9&#45;&gt;Node14</title>
<g id="a_edge23_Node000009_Node000014"><a xlink:title=" ">
<path fill="none" stroke="#63b8ff" d="M603.9,-291.54C616.22,-282.19 630.34,-271.48 641.41,-263.08"/>
<polygon fill="#63b8ff" stroke="#63b8ff" points="601.97,-288.62 596.12,-297.45 606.2,-294.19 601.97,-288.62"/>
</a>
</g>
</g>
<!-- Node10&#45;&gt;Node3 -->
<g id="edge18_Node000010_Node000003" class="edge">
<title>Node10&#45;&gt;Node3</title>
<g id="a_edge18_Node000010_Node000003"><a xlink:title=" ">
<path fill="none" stroke="#63b8ff" d="M696.42,-103.86C684.29,-95.75 669.65,-85.24 657.62,-74.5 637.68,-56.67 617.6,-32.34 607.44,-19.46"/>
<polygon fill="#63b8ff" stroke="#63b8ff" points="694.37,-106.7 704.65,-109.24 698.2,-100.84 694.37,-106.7"/>
</a>
</g>
</g>
<!-- Node11 -->
<g id="Node000011" class="node">
<title>Node11</title>
<g id="a_Node000011"><a xlink:href="../../d6/dc3/_facade_8hpp.html" target="_top" xlink:title=" ">
<polygon fill="white" stroke="#666666" points="774.38,-74.5 666.88,-74.5 666.88,-55.25 774.38,-55.25 774.38,-74.5"/>
<text text-anchor="middle" x="720.62" y="-61" font-family="Helvetica,sans-Serif" font-size="10.00">mimic++/Facade.hpp</text>
</a>
</g>
</g>
<!-- Node10&#45;&gt;Node11 -->
<g id="edge14_Node000010_Node000011" class="edge">
<title>Node10&#45;&gt;Node11</title>
<g id="a_edge14_Node000010_Node000011"><a xlink:title=" ">
<path fill="none" stroke="#63b8ff" d="M720.62,-98.88C720.62,-90.59 720.62,-81.42 720.62,-74.86"/>
<polygon fill="#63b8ff" stroke="#63b8ff" points="717.13,-98.82 720.63,-108.82 724.13,-98.82 717.13,-98.82"/>
</a>
</g>
</g>
<!-- Node12 -->
<g id="Node000012" class="node">
<title>Node12</title>
<g id="a_Node000012"><a xlink:href="../../d5/d92/_object_watcher_8hpp.html" target="_top" xlink:title=" ">
<polygon fill="white" stroke="#666666" points="932.5,-74.5 792.75,-74.5 792.75,-55.25 932.5,-55.25 932.5,-74.5"/>
<text text-anchor="middle" x="862.62" y="-61" font-family="Helvetica,sans-Serif" font-size="10.00">mimic++/ObjectWatcher.hpp</text>
</a>
</g>
</g>
<!-- Node10&#45;&gt;Node12 -->
<g id="edge16_Node000010_Node000012" class="edge">
<title>Node10&#45;&gt;Node12</title>
<g id="a_edge16_Node000010_Node000012"><a xlink:title=" ">
<path fill="none" stroke="#63b8ff" d="M755.16,-106.17C780.95,-96.5 815.53,-83.54 838.42,-74.95"/>
<polygon fill="#63b8ff" stroke="#63b8ff" points="754.26,-102.77 746.13,-109.56 756.72,-109.33 754.26,-102.77"/>
</a>
</g>
</g>
<!-- Node11&#45;&gt;Node3 -->
<g id="edge15_Node000011_Node000003" class="edge">
<title>Node11&#45;&gt;Node3</title>
<g id="a_edge15_Node000011_Node000003"><a xlink:title=" ">
<path fill="none" stroke="#63b8ff" d="M689.97,-50.27C668.35,-40.68 639.99,-28.09 621.08,-19.7"/>
<polygon fill="#63b8ff" stroke="#63b8ff" points="688.33,-53.37 698.89,-54.23 691.16,-46.97 688.33,-53.37"/>
</a>
</g>
</g>
<!-- Node12&#45;&gt;Node3 -->
<g id="edge17_Node000012_Node000003" class="edge">
<title>Node12&#45;&gt;Node3</title>
<g id="a_edge17_Node000012_Node000003"><a xlink:title=" ">
<path fill="none" stroke="#63b8ff" d="M806.7,-52.51C758.48,-42.71 689.77,-28.74 645.18,-19.68"/>
<polygon fill="#63b8ff" stroke="#63b8ff" points="805.9,-55.92 816.4,-54.48 807.3,-49.06 805.9,-55.92"/>
</a>
</g>
</g>
<!-- Node13&#45;&gt;Node3 -->
<g id="edge22_Node000013_Node000003" class="edge">
<title>Node13&#45;&gt;Node3</title>
<g id="a_edge22_Node000013_Node000003"><a xlink:title=" ">
<path fill="none" stroke="#63b8ff" d="M558.53,-154.53C565.43,-129.28 576.45,-89.5 586.62,-55.25 590.32,-42.8 594.87,-28.48 597.76,-19.49"/>
<polygon fill="#63b8ff" stroke="#63b8ff" points="555.23,-153.33 555.97,-163.9 561.98,-155.17 555.23,-153.33"/>
</a>
</g>
</g>
<!-- Node13&#45;&gt;Node8 -->
<g id="edge21_Node000013_Node000008" class="edge">
<title>Node13&#45;&gt;Node8</title>
<g id="a_edge21_Node000013_Node000008"><a xlink:title=" ">
<path fill="none" stroke="#63b8ff" d="M519.19,-159.47C503.42,-149.48 485.25,-137.98 472.96,-130.2"/>
<polygon fill="#63b8ff" stroke="#63b8ff" points="517.04,-162.25 527.36,-164.64 520.78,-156.33 517.04,-162.25"/>
</a>
</g>
</g>
<!-- Node13&#45;&gt;Node10 -->
<g id="edge20_Node000013_Node000010" class="edge">
<title>Node13&#45;&gt;Node10</title>
<g id="a_edge20_Node000013_Node000010"><a xlink:title=" ">
<path fill="none" stroke="#63b8ff" d="M604.58,-161.55C634.59,-151.1 670.81,-138.48 694.71,-130.15"/>
<polygon fill="#63b8ff" stroke="#63b8ff" points="603.56,-158.2 595.26,-164.8 605.86,-164.81 603.56,-158.2"/>
</a>
</g>
</g>
<!-- Node14&#45;&gt;Node3 -->
<g id="edge28_Node000014_Node000003" class="edge">
<title>Node14&#45;&gt;Node3</title>
<g id="a_edge28_Node000014_Node000003"><a xlink:title=" ">
<path fill="none" stroke="#63b8ff" d="M725.22,-230.79C829.15,-202.62 1014.77,-138.59 941.62,-55.25 923.21,-34.27 749.75,-20.13 657.58,-14.03"/>
<polygon fill="#63b8ff" stroke="#63b8ff" points="724.43,-227.38 715.67,-233.34 726.23,-234.15 724.43,-227.38"/>
</a>
</g>
</g>
<!-- Node14&#45;&gt;Node13 -->
<g id="edge24_Node000014_Node000013" class="edge">
<title>Node14&#45;&gt;Node13</title>
<g id="a_edge24_Node000014_Node000013"><a xlink:title=" ">
<path fill="none" stroke="#63b8ff" d="M626.21,-226.14C609.99,-216.54 591.01,-205.31 576.26,-196.58"/>
<polygon fill="#63b8ff" stroke="#63b8ff" points="624.2,-229.01 634.59,-231.09 627.76,-222.99 624.2,-229.01"/>
</a>
</g>
</g>
<!-- Node15 -->
<g id="Node000015" class="node">
<title>Node15</title>
<g id="a_Node000015"><a xlink:href="../../db/dd0/_collector_8hpp.html" target="_top" xlink:title=" ">
<polygon fill="white" stroke="#666666" points="730,-196.25 623.25,-196.25 623.25,-165.75 730,-165.75 730,-196.25"/>
<text text-anchor="start" x="631.25" y="-182.75" font-family="Helvetica,sans-Serif" font-size="10.00">mimic++/expectation</text>
<text text-anchor="middle" x="676.62" y="-171.5" font-family="Helvetica,sans-Serif" font-size="10.00">/Collector.hpp</text>
</a>
</g>
</g>
<!-- Node14&#45;&gt;Node15 -->
<g id="edge25_Node000014_Node000015" class="edge">
<title>Node14&#45;&gt;Node15</title>
<g id="a_edge25_Node000014_Node000015"><a xlink:title=" ">
<path fill="none" stroke="#63b8ff" d="M666.99,-220.84C669.04,-212.59 671.23,-203.74 673.01,-196.58"/>
<polygon fill="#63b8ff" stroke="#63b8ff" points="663.63,-219.85 664.62,-230.39 670.42,-221.53 663.63,-219.85"/>
</a>
</g>
</g>
<!-- Node15&#45;&gt;Node3 -->
<g id="edge27_Node000015_Node000003" class="edge">
<title>Node15&#45;&gt;Node3</title>
<g id="a_edge27_Node000015_Node000003"><a xlink:title=" ">
<path fill="none" stroke="#63b8ff" d="M665.38,-154.94C648.16,-116.56 616.05,-44.99 604.71,-19.74"/>
<polygon fill="#63b8ff" stroke="#63b8ff" points="662.11,-156.19 669.39,-163.88 668.49,-153.33 662.11,-156.19"/>
</a>
</g>
</g>
<!-- Node15&#45;&gt;Node8 -->
<g id="edge26_Node000015_Node000008" class="edge">
<title>Node15&#45;&gt;Node8</title>
<g id="a_edge26_Node000015_Node000008"><a xlink:title=" ">
<path fill="none" stroke="#63b8ff" d="M611.94,-162.53C572.66,-151.92 524.12,-138.81 492.32,-130.22"/>
<polygon fill="#63b8ff" stroke="#63b8ff" points="610.99,-165.9 621.56,-165.13 612.81,-159.14 610.99,-165.9"/>
</a>
</g>
</g>
<!-- Node16&#45;&gt;Node3 -->
<g id="edge33_Node000016_Node000003" class="edge">
<title>Node16&#45;&gt;Node3</title>
<g id="a_edge33_Node000016_Node000003"><a xlink:title=" ">
<path fill="none" stroke="#63b8ff" d="M385.06,-222.03C369.95,-193.1 351.38,-144.6 373.62,-110.5 410.98,-53.26 489.3,-28.6 543.41,-18.13"/>
<polygon fill="#63b8ff" stroke="#63b8ff" points="381.98,-223.69 389.87,-230.76 388.11,-220.31 381.98,-223.69"/>
</a>
</g>
</g>
<!-- Node16&#45;&gt;Node13 -->
<g id="edge32_Node000016_Node000013" class="edge">
<title>Node16&#45;&gt;Node13</title>
<g id="a_edge32_Node000016_Node000013"><a xlink:title=" ">
<path fill="none" stroke="#63b8ff" d="M444.4,-227.5C467.6,-217.66 495.49,-205.82 517.01,-196.69"/>
<polygon fill="#63b8ff" stroke="#63b8ff" points="443.35,-224.14 435.51,-231.27 446.08,-230.59 443.35,-224.14"/>
</a>
</g>
</g>
<!-- Node17&#45;&gt;Node2 -->
<g id="edge37_Node000017_Node000002" class="edge">
<title>Node17&#45;&gt;Node2</title>
<g id="a_edge37_Node000017_Node000002"><a xlink:title=" ">
<path fill="none" stroke="#63b8ff" d="M209.86,-541.86C212.95,-525.75 217.8,-504.79 224.62,-487 240.01,-446.94 267.35,-403.43 279.51,-384.97"/>
<polygon fill="#63b8ff" stroke="#63b8ff" points="206.44,-541.15 208.11,-551.61 213.33,-542.39 206.44,-541.15"/>
</a>
</g>
</g>
<!-- Node17&#45;&gt;Node4 -->
<g id="edge38_Node000017_Node000004" class="edge">
<title>Node17&#45;&gt;Node4</title>
<g id="a_edge38_Node000017_Node000004"><a xlink:title=" ">
<path fill="none" stroke="#63b8ff" d="M169.26,-547.7C147.75,-535.84 121.54,-521.4 104.97,-512.26"/>
<polygon fill="#63b8ff" stroke="#63b8ff" points="167.3,-550.62 177.75,-552.38 170.68,-544.49 167.3,-550.62"/>
</a>
</g>
</g>
<!-- Node17&#45;&gt;Node5 -->
<g id="edge39_Node000017_Node000005" class="edge">
<title>Node17&#45;&gt;Node5</title>
<g id="a_edge39_Node000017_Node000005"><a xlink:title=" ">
<path fill="none" stroke="#63b8ff" d="M235.84,-546.57C249.26,-537.16 264.73,-526.31 276.83,-517.83"/>
<polygon fill="#63b8ff" stroke="#63b8ff" points="233.92,-543.64 227.74,-552.25 237.94,-549.37 233.92,-543.64"/>
</a>
</g>
</g>
</g>
</svg>
