<?xml version="1.0" encoding="UTF-8" standalone="no"?>
<!DOCTYPE svg PUBLIC "-//W3C//DTD SVG 1.1//EN"
 "http://www.w3.org/Graphics/SVG/1.1/DTD/svg11.dtd">
<!-- Generated by graphviz version 12.2.1 (20241206.2353)
 -->
<!-- Title: mimic++/printing/state/Print.hpp Pages: 1 -->
<svg width="1734pt" height="758pt"
 viewBox="0.00 0.00 1733.71 757.75" xmlns="http://www.w3.org/2000/svg" xmlns:xlink="http://www.w3.org/1999/xlink">
<g id="graph0" class="graph" transform="scale(1 1) rotate(0) translate(4 753.75)">
<title>mimic++/printing/state/Print.hpp</title>
<!-- Node1 -->
<g id="Node000001" class="node">
<title>Node1</title>
<g id="a_Node000001"><a xlink:title=" ">
<polygon fill="#999999" stroke="#666666" points="1155.75,-749.75 1042.25,-749.75 1042.25,-719.25 1155.75,-719.25 1155.75,-749.75"/>
<text text-anchor="start" x="1050.25" y="-736.25" font-family="Helvetica,sans-Serif" font-size="10.00">mimic++/printing/state</text>
<text text-anchor="middle" x="1099" y="-725" font-family="Helvetica,sans-Serif" font-size="10.00">/Print.hpp</text>
</a>
</g>
</g>
<!-- Node2 -->
<g id="Node000002" class="node">
<title>Node2</title>
<g id="a_Node000002"><a xlink:href="../../de/d62/_state_printer_8hpp.html" target="_top" xlink:title=" ">
<polygon fill="white" stroke="#666666" points="1179.75,-616.75 1018.25,-616.75 1018.25,-597.5 1179.75,-597.5 1179.75,-616.75"/>
<text text-anchor="middle" x="1099" y="-603.25" font-family="Helvetica,sans-Serif" font-size="10.00">mimic++/printing/StatePrinter.hpp</text>
</a>
</g>
</g>
<!-- Node1&#45;&gt;Node2 -->
<g id="edge1_Node000001_Node000002" class="edge">
<title>Node1&#45;&gt;Node2</title>
<g id="a_edge1_Node000001_Node000002"><a xlink:title=" ">
<path fill="none" stroke="#63b8ff" d="M1059.7,-712.68C1049.07,-704.96 1038.88,-695.13 1033,-683.25 1026.98,-671.1 1026.64,-664.72 1033,-652.75 1041.89,-636.01 1060.16,-624.41 1075.24,-617.24"/>
<polygon fill="#63b8ff" stroke="#63b8ff" points="1057.54,-715.45 1067.8,-718.08 1061.42,-709.62 1057.54,-715.45"/>
</a>
</g>
</g>
<!-- Node26 -->
<g id="Node000026" class="node">
<title>Node26</title>
<g id="a_Node000026"><a xlink:href="../../dd/d25/_c_09_0923_backports_8hpp.html" target="_top" xlink:title=" ">
<polygon fill="white" stroke="#666666" points="1155.75,-683.25 1042.25,-683.25 1042.25,-652.75 1155.75,-652.75 1155.75,-683.25"/>
<text text-anchor="start" x="1050.25" y="-669.75" font-family="Helvetica,sans-Serif" font-size="10.00">mimic++/printing/state</text>
<text text-anchor="middle" x="1099" y="-658.5" font-family="Helvetica,sans-Serif" font-size="10.00">/C++23Backports.hpp</text>
</a>
</g>
</g>
<!-- Node1&#45;&gt;Node26 -->
<g id="edge67_Node000001_Node000026" class="edge">
<title>Node1&#45;&gt;Node26</title>
<g id="a_edge67_Node000001_Node000026"><a xlink:title=" ">
<path fill="none" stroke="#63b8ff" d="M1099,-707.56C1099,-699.39 1099,-690.66 1099,-683.58"/>
<polygon fill="#63b8ff" stroke="#63b8ff" points="1095.5,-707.35 1099,-717.35 1102.5,-707.35 1095.5,-707.35"/>
</a>
</g>
</g>
<!-- Node27 -->
<g id="Node000027" class="node">
<title>Node27</title>
<g id="a_Node000027"><a xlink:href="../../db/d67/_common_types_8hpp.html" target="_top" xlink:title=" ">
<polygon fill="white" stroke="#666666" points="1287.75,-683.25 1174.25,-683.25 1174.25,-652.75 1287.75,-652.75 1287.75,-683.25"/>
<text text-anchor="start" x="1182.25" y="-669.75" font-family="Helvetica,sans-Serif" font-size="10.00">mimic++/printing/state</text>
<text text-anchor="middle" x="1231" y="-658.5" font-family="Helvetica,sans-Serif" font-size="10.00">/CommonTypes.hpp</text>
</a>
</g>
</g>
<!-- Node1&#45;&gt;Node27 -->
<g id="edge69_Node000001_Node000027" class="edge">
<title>Node1&#45;&gt;Node27</title>
<g id="a_edge69_Node000001_Node000027"><a xlink:title=" ">
<path fill="none" stroke="#63b8ff" d="M1139.29,-713.81C1159.23,-704.07 1182.88,-692.51 1201.17,-683.58"/>
<polygon fill="#63b8ff" stroke="#63b8ff" points="1137.76,-710.66 1130.31,-718.2 1140.83,-716.95 1137.76,-710.66"/>
</a>
</g>
</g>
<!-- Node3 -->
<g id="Node000003" class="node">
<title>Node3</title>
<g id="a_Node000003"><a xlink:href="../../da/dab/_printer_8hpp.html" target="_top" xlink:title=" ">
<polygon fill="white" stroke="#666666" points="900.88,-506.25 797.12,-506.25 797.12,-487 900.88,-487 900.88,-506.25"/>
<text text-anchor="middle" x="849" y="-492.75" font-family="Helvetica,sans-Serif" font-size="10.00">mimic++/Printer.hpp</text>
</a>
</g>
</g>
<!-- Node2&#45;&gt;Node3 -->
<g id="edge2_Node000002_Node000003" class="edge">
<title>Node2&#45;&gt;Node3</title>
<g id="a_edge2_Node000002_Node000003"><a xlink:title=" ">
<path fill="none" stroke="#63b8ff" d="M1067.57,-592.48C1015.8,-570.02 913.95,-525.81 870,-506.74"/>
<polygon fill="#63b8ff" stroke="#63b8ff" points="1066.16,-595.69 1076.73,-596.46 1068.95,-589.27 1066.16,-595.69"/>
</a>
</g>
</g>
<!-- Node6 -->
<g id="Node000006" class="node">
<title>Node6</title>
<g id="a_Node000006"><a xlink:href="../../d0/db9/mimic_09_09_8hpp.html" target="_top" xlink:title=" ">
<polygon fill="white" stroke="#666666" points="1022.75,-19.25 909.25,-19.25 909.25,0 1022.75,0 1022.75,-19.25"/>
<text text-anchor="middle" x="966" y="-5.75" font-family="Helvetica,sans-Serif" font-size="10.00">mimic++/mimic++.hpp</text>
</a>
</g>
</g>
<!-- Node2&#45;&gt;Node6 -->
<g id="edge62_Node000002_Node000006" class="edge">
<title>Node2&#45;&gt;Node6</title>
<g id="a_edge62_Node000002_Node000006"><a xlink:title=" ">
<path fill="none" stroke="#63b8ff" d="M1006.71,-606.62C742.16,-606.84 0,-598.46 0,-497.62 0,-497.62 0,-497.62 0,-124.75 0,-66.54 55.49,-72.77 111,-55.25 186.57,-31.39 729.52,-16.32 908.76,-11.95"/>
<polygon fill="#63b8ff" stroke="#63b8ff" points="1006.68,-610.12 1016.67,-606.61 1006.67,-603.12 1006.68,-610.12"/>
</a>
</g>
</g>
<!-- Node20 -->
<g id="Node000020" class="node">
<title>Node20</title>
<g id="a_Node000020"><a xlink:href="../../de/df5/_stacktrace_8hpp.html" target="_top" xlink:title=" ">
<polygon fill="white" stroke="#666666" points="1184.25,-561.5 1061.75,-561.5 1061.75,-542.25 1184.25,-542.25 1184.25,-561.5"/>
<text text-anchor="middle" x="1123" y="-548" font-family="Helvetica,sans-Serif" font-size="10.00">mimic++/Stacktrace.hpp</text>
</a>
</g>
</g>
<!-- Node2&#45;&gt;Node20 -->
<g id="edge48_Node000002_Node000020" class="edge">
<title>Node2&#45;&gt;Node20</title>
<g id="a_edge48_Node000002_Node000020"><a xlink:title=" ">
<path fill="none" stroke="#63b8ff" d="M1107.6,-587.04C1111.47,-578.46 1115.85,-568.73 1118.95,-561.86"/>
<polygon fill="#63b8ff" stroke="#63b8ff" points="1104.5,-585.4 1103.59,-595.95 1110.88,-588.27 1104.5,-585.4"/>
</a>
</g>
</g>
<!-- Node25 -->
<g id="Node000025" class="node">
<title>Node25</title>
<g id="a_Node000025"><a xlink:href="../../de/d10/_general_policies_8hpp.html" target="_top" xlink:title=" ">
<polygon fill="white" stroke="#666666" points="1448.5,-274 1321.5,-274 1321.5,-243.5 1448.5,-243.5 1448.5,-274"/>
<text text-anchor="start" x="1329.5" y="-260.5" font-family="Helvetica,sans-Serif" font-size="10.00">mimic++/policies/General</text>
<text text-anchor="middle" x="1385" y="-249.25" font-family="Helvetica,sans-Serif" font-size="10.00">Policies.hpp</text>
</a>
</g>
</g>
<!-- Node2&#45;&gt;Node25 -->
<g id="edge63_Node000002_Node000025" class="edge">
<title>Node2&#45;&gt;Node25</title>
<g id="a_edge63_Node000002_Node000025"><a xlink:title=" ">
<path fill="none" stroke="#63b8ff" d="M1191.69,-600.99C1316.46,-591.49 1523,-565.51 1523,-497.62 1523,-497.62 1523,-497.62 1523,-385.12 1523,-350.07 1522.44,-336.06 1499,-310 1484.1,-293.44 1462.74,-282.07 1442.52,-274.39"/>
<polygon fill="#63b8ff" stroke="#63b8ff" points="1191.48,-597.49 1181.76,-601.72 1191.99,-604.47 1191.48,-597.49"/>
</a>
</g>
</g>
<!-- Node4 -->
<g id="Node000004" class="node">
<title>Node4</title>
<g id="a_Node000004"><a xlink:href="../../d5/dc5/_mock_8hpp.html" target="_top" xlink:title=" ">
<polygon fill="white" stroke="#666666" points="1067.62,-135.38 968.38,-135.38 968.38,-116.12 1067.62,-116.12 1067.62,-135.38"/>
<text text-anchor="middle" x="1018" y="-121.88" font-family="Helvetica,sans-Serif" font-size="10.00">mimic++/Mock.hpp</text>
</a>
</g>
</g>
<!-- Node3&#45;&gt;Node4 -->
<g id="edge3_Node000003_Node000004" class="edge">
<title>Node3&#45;&gt;Node4</title>
<g id="a_edge3_Node000003_Node000004"><a xlink:title=" ">
<path fill="none" stroke="#63b8ff" d="M855.66,-475.83C870.43,-432.7 907.88,-327.4 949,-243.5 969.41,-201.85 999.27,-155.17 1011.95,-135.86"/>
<polygon fill="#63b8ff" stroke="#63b8ff" points="852.36,-474.67 852.46,-485.27 858.99,-476.92 852.36,-474.67"/>
</a>
</g>
</g>
<!-- Node3&#45;&gt;Node6 -->
<g id="edge47_Node000003_Node000006" class="edge">
<title>Node3&#45;&gt;Node6</title>
<g id="a_edge47_Node000003_Node000006"><a xlink:title=" ">
<path fill="none" stroke="#63b8ff" d="M785.48,-493.79C594.4,-487.42 38,-462.43 38,-387.12 38,-387.12 38,-387.12 38,-124.75 38,-103.97 -37.14,-109.85 182,-55.25 319.83,-20.91 752.71,-12.91 909.01,-11.12"/>
<polygon fill="#63b8ff" stroke="#63b8ff" points="785.1,-497.28 795.21,-494.1 785.33,-490.28 785.1,-497.28"/>
</a>
</g>
</g>
<!-- Node7 -->
<g id="Node000007" class="node">
<title>Node7</title>
<g id="a_Node000007"><a xlink:href="../../d5/d92/_object_watcher_8hpp.html" target="_top" xlink:title=" ">
<polygon fill="white" stroke="#666666" points="986.88,-74.5 847.12,-74.5 847.12,-55.25 986.88,-55.25 986.88,-74.5"/>
<text text-anchor="middle" x="917" y="-61" font-family="Helvetica,sans-Serif" font-size="10.00">mimic++/ObjectWatcher.hpp</text>
</a>
</g>
</g>
<!-- Node3&#45;&gt;Node7 -->
<g id="edge9_Node000003_Node000007" class="edge">
<title>Node3&#45;&gt;Node7</title>
<g id="a_edge9_Node000003_Node000007"><a xlink:title=" ">
<path fill="none" stroke="#63b8ff" d="M785.87,-489.97C723.07,-480.47 636,-455.05 636,-387.12 636,-387.12 636,-387.12 636,-191.25 636,-99.1 763.59,-74.21 846.82,-67.78"/>
<polygon fill="#63b8ff" stroke="#63b8ff" points="785.01,-493.38 795.4,-491.31 785.98,-486.45 785.01,-493.38"/>
</a>
</g>
</g>
<!-- Node8 -->
<g id="Node000008" class="node">
<title>Node8</title>
<g id="a_Node000008"><a xlink:href="../../da/dd9/_reporter_8hpp.html" target="_top" xlink:title=" ">
<polygon fill="white" stroke="#666666" points="1064,-395.75 952,-395.75 952,-376.5 1064,-376.5 1064,-395.75"/>
<text text-anchor="middle" x="1008" y="-382.25" font-family="Helvetica,sans-Serif" font-size="10.00">mimic++/Reporter.hpp</text>
</a>
</g>
</g>
<!-- Node3&#45;&gt;Node8 -->
<g id="edge10_Node000003_Node000008" class="edge">
<title>Node3&#45;&gt;Node8</title>
<g id="a_edge10_Node000003_Node000008"><a xlink:title=" ">
<path fill="none" stroke="#63b8ff" d="M870.47,-479.71C888.36,-466.58 914.59,-447.6 938,-431.75 956.86,-418.99 979.1,-404.98 993.37,-396.13"/>
<polygon fill="#63b8ff" stroke="#63b8ff" points="868.42,-476.87 862.45,-485.62 872.58,-482.51 868.42,-476.87"/>
</a>
</g>
</g>
<!-- Node11 -->
<g id="Node000011" class="node">
<title>Node11</title>
<g id="a_Node000011"><a xlink:href="../../d8/de4/_sequence_8hpp.html" target="_top" xlink:title=" ">
<polygon fill="white" stroke="#666666" points="864.38,-334.88 745.62,-334.88 745.62,-315.62 864.38,-315.62 864.38,-334.88"/>
<text text-anchor="middle" x="805" y="-321.38" font-family="Helvetica,sans-Serif" font-size="10.00">mimic++/Sequence.hpp</text>
</a>
</g>
</g>
<!-- Node3&#45;&gt;Node11 -->
<g id="edge29_Node000003_Node000011" class="edge">
<title>Node3&#45;&gt;Node11</title>
<g id="a_edge29_Node000003_Node000011"><a xlink:title=" ">
<path fill="none" stroke="#63b8ff" d="M843.82,-475.69C834.22,-438.75 814.04,-361.06 807.27,-334.99"/>
<polygon fill="#63b8ff" stroke="#63b8ff" points="840.35,-476.26 846.25,-485.05 847.13,-474.49 840.35,-476.26"/>
</a>
</g>
</g>
<!-- Node13 -->
<g id="Node000013" class="node">
<title>Node13</title>
<g id="a_Node000013"><a xlink:href="../../d0/d3b/_reports_8hpp.html" target="_top" xlink:title=" ">
<polygon fill="white" stroke="#666666" points="1056.5,-451 947.5,-451 947.5,-431.75 1056.5,-431.75 1056.5,-451"/>
<text text-anchor="middle" x="1002" y="-437.5" font-family="Helvetica,sans-Serif" font-size="10.00">mimic++/Reports.hpp</text>
</a>
</g>
</g>
<!-- Node3&#45;&gt;Node13 -->
<g id="edge25_Node000003_Node000013" class="edge">
<title>Node3&#45;&gt;Node13</title>
<g id="a_edge25_Node000003_Node000013"><a xlink:title=" ">
<path fill="none" stroke="#63b8ff" d="M885.47,-482.93C913.33,-473.24 951.04,-460.11 975.92,-451.45"/>
<polygon fill="#63b8ff" stroke="#63b8ff" points="884.68,-479.5 876.38,-486.09 886.98,-486.11 884.68,-479.5"/>
</a>
</g>
</g>
<!-- Node14 -->
<g id="Node000014" class="node">
<title>Node14</title>
<g id="a_Node000014"><a xlink:href="../../d3/d58/_common_8hpp.html" target="_top" xlink:title=" ">
<polygon fill="white" stroke="#666666" points="522.88,-395.75 365.12,-395.75 365.12,-376.5 522.88,-376.5 522.88,-395.75"/>
<text text-anchor="middle" x="444" y="-382.25" font-family="Helvetica,sans-Serif" font-size="10.00">mimic++/matchers/Common.hpp</text>
</a>
</g>
</g>
<!-- Node3&#45;&gt;Node14 -->
<g id="edge30_Node000003_Node000014" class="edge">
<title>Node3&#45;&gt;Node14</title>
<g id="a_edge30_Node000003_Node000014"><a xlink:title=" ">
<path fill="none" stroke="#63b8ff" d="M785.38,-485.75C739.54,-478 676.43,-466.02 622,-451 564.56,-435.14 499.09,-409.66 465.86,-396.18"/>
<polygon fill="#63b8ff" stroke="#63b8ff" points="784.71,-489.19 795.15,-487.38 785.86,-482.29 784.71,-489.19"/>
</a>
</g>
</g>
<!-- Node5 -->
<g id="Node000005" class="node">
<title>Node5</title>
<g id="a_Node000005"><a xlink:href="../../d9/dc3/_interface_mock_8hpp.html" target="_top" xlink:title=" ">
<polygon fill="white" stroke="#666666" points="1180.75,-74.5 1043.25,-74.5 1043.25,-55.25 1180.75,-55.25 1180.75,-74.5"/>
<text text-anchor="middle" x="1112" y="-61" font-family="Helvetica,sans-Serif" font-size="10.00">mimic++/InterfaceMock.hpp</text>
</a>
</g>
</g>
<!-- Node4&#45;&gt;Node5 -->
<g id="edge4_Node000004_Node000005" class="edge">
<title>Node4&#45;&gt;Node5</title>
<g id="a_edge4_Node000004_Node000005"><a xlink:title=" ">
<path fill="none" stroke="#63b8ff" d="M1041.85,-109.81C1059.43,-98.8 1082.77,-84.18 1097.59,-74.9"/>
<polygon fill="#63b8ff" stroke="#63b8ff" points="1040.18,-106.73 1033.56,-115 1043.89,-112.66 1040.18,-106.73"/>
</a>
</g>
</g>
<!-- Node4&#45;&gt;Node6 -->
<g id="edge8_Node000004_Node000006" class="edge">
<title>Node4&#45;&gt;Node6</title>
<g id="a_edge8_Node000004_Node000006"><a xlink:title=" ">
<path fill="none" stroke="#63b8ff" d="M1013.34,-104.94C1009.62,-90.71 1003.74,-71.3 996,-55.25 989.68,-42.13 979.92,-28.43 973.26,-19.73"/>
<polygon fill="#63b8ff" stroke="#63b8ff" points="1009.89,-105.55 1015.69,-114.42 1016.68,-103.87 1009.89,-105.55"/>
</a>
</g>
</g>
<!-- Node4&#45;&gt;Node7 -->
<g id="edge6_Node000004_Node000007" class="edge">
<title>Node4&#45;&gt;Node7</title>
<g id="a_edge6_Node000004_Node000007"><a xlink:title=" ">
<path fill="none" stroke="#63b8ff" d="M992.9,-110.12C973.95,-99.07 948.56,-84.27 932.48,-74.9"/>
<polygon fill="#63b8ff" stroke="#63b8ff" points="990.95,-113.03 1001.35,-115.05 994.48,-106.99 990.95,-113.03"/>
</a>
</g>
</g>
<!-- Node5&#45;&gt;Node6 -->
<g id="edge5_Node000005_Node000006" class="edge">
<title>Node5&#45;&gt;Node6</title>
<g id="a_edge5_Node000005_Node000006"><a xlink:title=" ">
<path fill="none" stroke="#63b8ff" d="M1076.49,-50.92C1049.98,-41.25 1014.42,-28.29 990.89,-19.7"/>
<polygon fill="#63b8ff" stroke="#63b8ff" points="1075.22,-54.18 1085.81,-54.32 1077.62,-47.61 1075.22,-54.18"/>
</a>
</g>
</g>
<!-- Node7&#45;&gt;Node6 -->
<g id="edge7_Node000007_Node000006" class="edge">
<title>Node7&#45;&gt;Node6</title>
<g id="a_edge7_Node000007_Node000006"><a xlink:title=" ">
<path fill="none" stroke="#63b8ff" d="M932.72,-46.79C941.04,-37.75 950.91,-27.02 957.73,-19.61"/>
<polygon fill="#63b8ff" stroke="#63b8ff" points="930.31,-44.24 926.12,-53.97 935.46,-48.98 930.31,-44.24"/>
</a>
</g>
</g>
<!-- Node8&#45;&gt;Node6 -->
<g id="edge24_Node000008_Node000006" class="edge">
<title>Node8&#45;&gt;Node6</title>
<g id="a_edge24_Node000008_Node000006"><a xlink:title=" ">
<path fill="none" stroke="#63b8ff" d="M1075.56,-378.48C1189.3,-365.75 1411.23,-333.72 1458,-274 1466.36,-263.33 1463.23,-256 1458,-243.5 1446.18,-215.27 1284.88,-67.85 1257,-55.25 1180.97,-20.88 1083.57,-12.2 1022.97,-10.42"/>
<polygon fill="#63b8ff" stroke="#63b8ff" points="1075.3,-374.99 1065.74,-379.56 1076.06,-381.95 1075.3,-374.99"/>
</a>
</g>
</g>
<!-- Node9 -->
<g id="Node000009" class="node">
<title>Node9</title>
<g id="a_Node000009"><a xlink:href="../../d5/d8a/_expectation_8hpp.html" target="_top" xlink:title=" ">
<polygon fill="white" stroke="#666666" points="1083.75,-268.38 958.25,-268.38 958.25,-249.12 1083.75,-249.12 1083.75,-268.38"/>
<text text-anchor="middle" x="1021" y="-254.88" font-family="Helvetica,sans-Serif" font-size="10.00">mimic++/Expectation.hpp</text>
</a>
</g>
</g>
<!-- Node8&#45;&gt;Node9 -->
<g id="edge11_Node000008_Node000009" class="edge">
<title>Node8&#45;&gt;Node9</title>
<g id="a_edge11_Node000008_Node000009"><a xlink:title=" ">
<path fill="none" stroke="#63b8ff" d="M1010.12,-364.68C1013,-336.94 1018.01,-288.58 1020.07,-268.68"/>
<polygon fill="#63b8ff" stroke="#63b8ff" points="1006.64,-364.3 1009.09,-374.6 1013.6,-365.02 1006.64,-364.3"/>
</a>
</g>
</g>
<!-- Node8&#45;&gt;Node11 -->
<g id="edge17_Node000008_Node000011" class="edge">
<title>Node8&#45;&gt;Node11</title>
<g id="a_edge17_Node000008_Node000011"><a xlink:title=" ">
<path fill="none" stroke="#63b8ff" d="M965.85,-372.9C927.27,-361.71 871.04,-345.4 836.31,-335.33"/>
<polygon fill="#63b8ff" stroke="#63b8ff" points="964.69,-376.21 975.27,-375.63 966.64,-369.49 964.69,-376.21"/>
</a>
</g>
</g>
<!-- Node9&#45;&gt;Node4 -->
<g id="edge15_Node000009_Node000004" class="edge">
<title>Node9&#45;&gt;Node4</title>
<g id="a_edge15_Node000009_Node000004"><a xlink:title=" ">
<path fill="none" stroke="#63b8ff" d="M1020.54,-237.62C1019.88,-208.74 1018.69,-156.73 1018.21,-135.82"/>
<polygon fill="#63b8ff" stroke="#63b8ff" points="1017.03,-237.32 1020.76,-247.23 1024.03,-237.16 1017.03,-237.32"/>
</a>
</g>
</g>
<!-- Node9&#45;&gt;Node6 -->
<g id="edge16_Node000009_Node000006" class="edge">
<title>Node9&#45;&gt;Node6</title>
<g id="a_edge16_Node000009_Node000006"><a xlink:title=" ">
<path fill="none" stroke="#63b8ff" d="M1049.25,-243.52C1111.07,-210.56 1248.34,-126.36 1190,-55.25 1169.28,-30 1082.46,-18.77 1023.19,-13.97"/>
<polygon fill="#63b8ff" stroke="#63b8ff" points="1047.9,-240.27 1040.67,-248.01 1051.15,-246.47 1047.9,-240.27"/>
</a>
</g>
</g>
<!-- Node10 -->
<g id="Node000010" class="node">
<title>Node10</title>
<g id="a_Node000010"><a xlink:href="../../d2/d4f/_expectation_builder_8hpp.html" target="_top" xlink:title=" ">
<polygon fill="white" stroke="#666666" points="857.75,-201.88 702.25,-201.88 702.25,-182.62 857.75,-182.62 857.75,-201.88"/>
<text text-anchor="middle" x="780" y="-188.38" font-family="Helvetica,sans-Serif" font-size="10.00">mimic++/ExpectationBuilder.hpp</text>
</a>
</g>
</g>
<!-- Node9&#45;&gt;Node10 -->
<g id="edge12_Node000009_Node000010" class="edge">
<title>Node9&#45;&gt;Node10</title>
<g id="a_edge12_Node000009_Node000010"><a xlink:title=" ">
<path fill="none" stroke="#63b8ff" d="M975.9,-245.68C928.86,-233.09 856.2,-213.64 813.85,-202.31"/>
<polygon fill="#63b8ff" stroke="#63b8ff" points="974.95,-249.05 985.52,-248.25 976.76,-242.29 974.95,-249.05"/>
</a>
</g>
</g>
<!-- Node10&#45;&gt;Node4 -->
<g id="edge13_Node000010_Node000004" class="edge">
<title>Node10&#45;&gt;Node4</title>
<g id="a_edge13_Node000010_Node000004"><a xlink:title=" ">
<path fill="none" stroke="#63b8ff" d="M824.54,-179.18C870.99,-166.59 942.75,-147.14 984.58,-135.81"/>
<polygon fill="#63b8ff" stroke="#63b8ff" points="823.79,-175.76 815.06,-181.75 825.62,-182.51 823.79,-175.76"/>
</a>
</g>
</g>
<!-- Node10&#45;&gt;Node6 -->
<g id="edge14_Node000010_Node000006" class="edge">
<title>Node10&#45;&gt;Node6</title>
<g id="a_edge14_Node000010_Node000006"><a xlink:title=" ">
<path fill="none" stroke="#63b8ff" d="M777.6,-170.99C775.32,-141.61 775.78,-87.18 805,-55.25 831.24,-26.58 874.12,-15.69 909.03,-11.83"/>
<polygon fill="#63b8ff" stroke="#63b8ff" points="774.1,-171.12 778.56,-180.73 781.06,-170.44 774.1,-171.12"/>
</a>
</g>
</g>
<!-- Node11&#45;&gt;Node6 -->
<g id="edge20_Node000011_Node000006" class="edge">
<title>Node11&#45;&gt;Node6</title>
<g id="a_edge20_Node000011_Node000006"><a xlink:title=" ">
<path fill="none" stroke="#63b8ff" d="M773.98,-310.12C735.25,-290.1 674,-249.55 674,-193.25 674,-193.25 674,-193.25 674,-124.75 674,-73.65 831.06,-36.12 914.8,-19.74"/>
<polygon fill="#63b8ff" stroke="#63b8ff" points="772.37,-313.23 782.89,-314.55 775.49,-306.96 772.37,-313.23"/>
</a>
</g>
</g>
<!-- Node11&#45;&gt;Node9 -->
<g id="edge18_Node000011_Node000009" class="edge">
<title>Node11&#45;&gt;Node9</title>
<g id="a_edge18_Node000011_Node000009"><a xlink:title=" ">
<path fill="none" stroke="#63b8ff" d="M846.5,-311.86C888.68,-299.26 953.03,-280.05 990.67,-268.81"/>
<polygon fill="#63b8ff" stroke="#63b8ff" points="845.52,-308.5 836.94,-314.71 847.52,-315.2 845.52,-308.5"/>
</a>
</g>
</g>
<!-- Node11&#45;&gt;Node10 -->
<g id="edge19_Node000011_Node000010" class="edge">
<title>Node11&#45;&gt;Node10</title>
<g id="a_edge19_Node000011_Node000010"><a xlink:title=" ">
<path fill="none" stroke="#63b8ff" d="M788.41,-306.87C780.93,-297.82 772.9,-286.13 769,-274 760.86,-248.68 770.61,-217 776.36,-201.96"/>
<polygon fill="#63b8ff" stroke="#63b8ff" points="785.57,-308.94 794.82,-314.11 790.82,-304.3 785.57,-308.94"/>
</a>
</g>
</g>
<!-- Node12 -->
<g id="Node000012" class="node">
<title>Node12</title>
<g id="a_Node000012"><a xlink:href="../../db/d70/_control_policies_8hpp.html" target="_top" xlink:title=" ">
<polygon fill="white" stroke="#666666" points="902,-274 778,-274 778,-243.5 902,-243.5 902,-274"/>
<text text-anchor="start" x="786" y="-260.5" font-family="Helvetica,sans-Serif" font-size="10.00">mimic++/policies/Control</text>
<text text-anchor="middle" x="840" y="-249.25" font-family="Helvetica,sans-Serif" font-size="10.00">Policies.hpp</text>
</a>
</g>
</g>
<!-- Node11&#45;&gt;Node12 -->
<g id="edge21_Node000011_Node000012" class="edge">
<title>Node11&#45;&gt;Node12</title>
<g id="a_edge21_Node000011_Node000012"><a xlink:title=" ">
<path fill="none" stroke="#63b8ff" d="M815.36,-305.16C820.76,-295.21 827.25,-283.25 832.22,-274.09"/>
<polygon fill="#63b8ff" stroke="#63b8ff" points="812.28,-303.49 810.59,-313.95 818.43,-306.83 812.28,-303.49"/>
</a>
</g>
</g>
<!-- Node12&#45;&gt;Node6 -->
<g id="edge23_Node000012_Node000006" class="edge">
<title>Node12&#45;&gt;Node6</title>
<g id="a_edge23_Node000012_Node000006"><a xlink:title=" ">
<path fill="none" stroke="#63b8ff" d="M856.14,-233.48C860.56,-225.54 864.75,-216.45 867,-207.5 883.81,-140.7 798.11,-111.41 838,-55.25 854.15,-32.52 882.78,-21.27 908.87,-15.74"/>
<polygon fill="#63b8ff" stroke="#63b8ff" points="853.26,-231.48 851.12,-241.86 859.26,-235.08 853.26,-231.48"/>
</a>
</g>
</g>
<!-- Node12&#45;&gt;Node10 -->
<g id="edge22_Node000012_Node000010" class="edge">
<title>Node12&#45;&gt;Node10</title>
<g id="a_edge22_Node000012_Node000010"><a xlink:title=" ">
<path fill="none" stroke="#63b8ff" d="M818.72,-234.87C808.17,-223.53 796.04,-210.49 788.21,-202.07"/>
<polygon fill="#63b8ff" stroke="#63b8ff" points="815.98,-237.07 825.35,-242.01 821.11,-232.3 815.98,-237.07"/>
</a>
</g>
</g>
<!-- Node13&#45;&gt;Node6 -->
<g id="edge27_Node000013_Node000006" class="edge">
<title>Node13&#45;&gt;Node6</title>
<g id="a_edge27_Node000013_Node000006"><a xlink:title=" ">
<path fill="none" stroke="#63b8ff" d="M1065.68,-429.13C1140.64,-414.53 1267.85,-385.48 1370,-340.5 1428.14,-314.9 1494.24,-304.05 1475,-243.5 1439.01,-130.21 1394.79,-100.82 1285,-55.25 1198.49,-19.34 1088.62,-11.32 1023,-10.06"/>
<polygon fill="#63b8ff" stroke="#63b8ff" points="1065.21,-425.65 1056.05,-430.98 1066.53,-432.53 1065.21,-425.65"/>
</a>
</g>
</g>
<!-- Node13&#45;&gt;Node8 -->
<g id="edge26_Node000013_Node000008" class="edge">
<title>Node13&#45;&gt;Node8</title>
<g id="a_edge26_Node000013_Node000008"><a xlink:title=" ">
<path fill="none" stroke="#63b8ff" d="M1004.25,-420.42C1005.19,-412.05 1006.24,-402.75 1006.99,-396.11"/>
<polygon fill="#63b8ff" stroke="#63b8ff" points="1000.8,-419.75 1003.16,-430.08 1007.76,-420.53 1000.8,-419.75"/>
</a>
</g>
</g>
<!-- Node13&#45;&gt;Node12 -->
<g id="edge28_Node000013_Node000012" class="edge">
<title>Node13&#45;&gt;Node12</title>
<g id="a_edge28_Node000013_Node000012"><a xlink:title=" ">
<path fill="none" stroke="#63b8ff" d="M978.71,-425.02C967.34,-416.97 953.82,-406.56 943,-395.75 903.2,-355.97 865.74,-300.32 849.07,-274.28"/>
<polygon fill="#63b8ff" stroke="#63b8ff" points="976.56,-427.78 986.78,-430.57 980.53,-422.02 976.56,-427.78"/>
</a>
</g>
</g>
<!-- Node14&#45;&gt;Node6 -->
<g id="edge43_Node000014_Node000006" class="edge">
<title>Node14&#45;&gt;Node6</title>
<g id="a_edge43_Node000014_Node000006"><a xlink:title=" ">
<path fill="none" stroke="#63b8ff" d="M364,-374.29C255.75,-357.35 76,-320.13 76,-259.75 76,-259.75 76,-259.75 76,-124.75 76,-40.43 712.54,-17.11 908.97,-11.92"/>
<polygon fill="#63b8ff" stroke="#63b8ff" points="363.3,-377.73 373.72,-375.79 364.37,-370.81 363.3,-377.73"/>
</a>
</g>
</g>
<!-- Node14&#45;&gt;Node10 -->
<g id="edge31_Node000014_Node000010" class="edge">
<title>Node14&#45;&gt;Node10</title>
<g id="a_edge31_Node000014_Node000010"><a xlink:title=" ">
<path fill="none" stroke="#63b8ff" d="M469.36,-370.64C535.31,-332.98 710.76,-232.79 764.28,-202.23"/>
<polygon fill="#63b8ff" stroke="#63b8ff" points="468.02,-367.38 461.07,-375.38 471.49,-373.46 468.02,-367.38"/>
</a>
</g>
</g>
<!-- Node15 -->
<g id="Node000015" class="node">
<title>Node15</title>
<g id="a_Node000015"><a xlink:href="../../d9/dd5/_general_matchers_8hpp.html" target="_top" xlink:title=" ">
<polygon fill="white" stroke="#666666" points="468.25,-340.5 333.75,-340.5 333.75,-310 468.25,-310 468.25,-340.5"/>
<text text-anchor="start" x="341.75" y="-327" font-family="Helvetica,sans-Serif" font-size="10.00">mimic++/matchers/General</text>
<text text-anchor="middle" x="401" y="-315.75" font-family="Helvetica,sans-Serif" font-size="10.00">Matchers.hpp</text>
</a>
</g>
</g>
<!-- Node14&#45;&gt;Node15 -->
<g id="edge32_Node000014_Node000015" class="edge">
<title>Node14&#45;&gt;Node15</title>
<g id="a_edge32_Node000014_Node000015"><a xlink:title=" ">
<path fill="none" stroke="#63b8ff" d="M430.87,-367.15C424.7,-358.7 417.43,-348.75 411.61,-340.78"/>
<polygon fill="#63b8ff" stroke="#63b8ff" points="427.85,-368.95 436.58,-374.96 433.5,-364.82 427.85,-368.95"/>
</a>
</g>
</g>
<!-- Node17 -->
<g id="Node000017" class="node">
<title>Node17</title>
<g id="a_Node000017"><a xlink:href="../../df/df3/_range_matchers_8hpp.html" target="_top" xlink:title=" ">
<polygon fill="white" stroke="#666666" points="291.5,-268.38 104.5,-268.38 104.5,-249.12 291.5,-249.12 291.5,-268.38"/>
<text text-anchor="middle" x="198" y="-254.88" font-family="Helvetica,sans-Serif" font-size="10.00">mimic++/matchers/RangeMatchers.hpp</text>
</a>
</g>
</g>
<!-- Node14&#45;&gt;Node17 -->
<g id="edge42_Node000014_Node000017" class="edge">
<title>Node14&#45;&gt;Node17</title>
<g id="a_edge42_Node000014_Node000017"><a xlink:title=" ">
<path fill="none" stroke="#63b8ff" d="M404.27,-372.54C380.72,-364.52 350.57,-353.25 325,-340.5 280.57,-318.35 232.14,-284.6 210.11,-268.67"/>
<polygon fill="#63b8ff" stroke="#63b8ff" points="402.89,-375.77 413.49,-375.62 405.11,-369.13 402.89,-375.77"/>
</a>
</g>
</g>
<!-- Node19 -->
<g id="Node000019" class="node">
<title>Node19</title>
<g id="a_Node000019"><a xlink:href="../../d1/d42/_arg_requirement_policies_8hpp.html" target="_top" xlink:title=" ">
<polygon fill="white" stroke="#666666" points="1264.5,-274 1101.5,-274 1101.5,-243.5 1264.5,-243.5 1264.5,-274"/>
<text text-anchor="start" x="1109.5" y="-260.5" font-family="Helvetica,sans-Serif" font-size="10.00">mimic++/policies/ArgRequirement</text>
<text text-anchor="middle" x="1183" y="-249.25" font-family="Helvetica,sans-Serif" font-size="10.00">Policies.hpp</text>
</a>
</g>
</g>
<!-- Node14&#45;&gt;Node19 -->
<g id="edge44_Node000014_Node000019" class="edge">
<title>Node14&#45;&gt;Node19</title>
<g id="a_edge44_Node000014_Node000019"><a xlink:title=" ">
<path fill="none" stroke="#63b8ff" d="M534.63,-379.69C621.84,-373.52 757.18,-361.48 873,-340.5 967.4,-323.4 1075.33,-292.68 1135.7,-274.46"/>
<polygon fill="#63b8ff" stroke="#63b8ff" points="534.42,-376.2 524.69,-380.38 534.91,-383.18 534.42,-376.2"/>
</a>
</g>
</g>
<!-- Node15&#45;&gt;Node6 -->
<g id="edge41_Node000015_Node000006" class="edge">
<title>Node15&#45;&gt;Node6</title>
<g id="a_edge41_Node000015_Node000006"><a xlink:title=" ">
<path fill="none" stroke="#63b8ff" d="M376.22,-301.71C352.4,-277.48 320,-236.54 320,-193.25 320,-193.25 320,-193.25 320,-124.75 320,-65.21 751.09,-26.79 908.96,-14.71"/>
<polygon fill="#63b8ff" stroke="#63b8ff" points="373.55,-304 383.14,-308.51 378.45,-299.01 373.55,-304"/>
</a>
</g>
</g>
<!-- Node15&#45;&gt;Node10 -->
<g id="edge33_Node000015_Node000010" class="edge">
<title>Node15&#45;&gt;Node10</title>
<g id="a_edge33_Node000015_Node000010"><a xlink:title=" ">
<path fill="none" stroke="#63b8ff" d="M470.17,-306.57C503.34,-297.62 543.5,-286.1 579,-274 646.1,-251.12 723.36,-218.16 759.44,-202.36"/>
<polygon fill="#63b8ff" stroke="#63b8ff" points="469.42,-303.15 460.66,-309.11 471.23,-309.91 469.42,-303.15"/>
</a>
</g>
</g>
<!-- Node16 -->
<g id="Node000016" class="node">
<title>Node16</title>
<g id="a_Node000016"><a xlink:href="../../d1/de0/_floating_point_matchers_8hpp.html" target="_top" xlink:title=" ">
<polygon fill="white" stroke="#666666" points="526.62,-207.5 391.38,-207.5 391.38,-177 526.62,-177 526.62,-207.5"/>
<text text-anchor="start" x="399.38" y="-194" font-family="Helvetica,sans-Serif" font-size="10.00">mimic++/matchers/Floating</text>
<text text-anchor="middle" x="459" y="-182.75" font-family="Helvetica,sans-Serif" font-size="10.00">PointMatchers.hpp</text>
</a>
</g>
</g>
<!-- Node15&#45;&gt;Node16 -->
<g id="edge34_Node000015_Node000016" class="edge">
<title>Node15&#45;&gt;Node16</title>
<g id="a_edge34_Node000015_Node000016"><a xlink:title=" ">
<path fill="none" stroke="#63b8ff" d="M384.34,-300.23C375.01,-283.56 367.06,-261.25 377,-243.5 386.06,-227.33 402.67,-215.74 418.6,-207.79"/>
<polygon fill="#63b8ff" stroke="#63b8ff" points="381.19,-301.79 389.4,-308.49 387.17,-298.14 381.19,-301.79"/>
</a>
</g>
</g>
<!-- Node15&#45;&gt;Node17 -->
<g id="edge36_Node000015_Node000017" class="edge">
<title>Node15&#45;&gt;Node17</title>
<g id="a_edge36_Node000015_Node000017"><a xlink:title=" ">
<path fill="none" stroke="#63b8ff" d="M344.19,-306.2C305.89,-294.03 256.99,-278.49 226.58,-268.83"/>
<polygon fill="#63b8ff" stroke="#63b8ff" points="342.65,-309.38 353.24,-309.07 344.77,-302.71 342.65,-309.38"/>
</a>
</g>
</g>
<!-- Node18 -->
<g id="Node000018" class="node">
<title>Node18</title>
<g id="a_Node000018"><a xlink:href="../../d2/d56/_string_matchers_8hpp.html" target="_top" xlink:title=" ">
<polygon fill="white" stroke="#666666" points="570.38,-268.38 385.62,-268.38 385.62,-249.12 570.38,-249.12 570.38,-268.38"/>
<text text-anchor="middle" x="478" y="-254.88" font-family="Helvetica,sans-Serif" font-size="10.00">mimic++/matchers/StringMatchers.hpp</text>
</a>
</g>
</g>
<!-- Node15&#45;&gt;Node18 -->
<g id="edge38_Node000015_Node000018" class="edge">
<title>Node15&#45;&gt;Node18</title>
<g id="a_edge38_Node000015_Node000018"><a xlink:title=" ">
<path fill="none" stroke="#63b8ff" d="M427.12,-302.37C440.93,-290.8 457.12,-277.24 467.47,-268.57"/>
<polygon fill="#63b8ff" stroke="#63b8ff" points="425.05,-299.54 419.63,-308.64 429.55,-304.9 425.05,-299.54"/>
</a>
</g>
</g>
<!-- Node16&#45;&gt;Node6 -->
<g id="edge35_Node000016_Node000006" class="edge">
<title>Node16&#45;&gt;Node6</title>
<g id="a_edge35_Node000016_Node000006"><a xlink:title=" ">
<path fill="none" stroke="#63b8ff" d="M470.02,-166.4C485.55,-134.65 517.07,-80.76 562,-55.25 619.92,-22.37 812.05,-13.72 909,-11.44"/>
<polygon fill="#63b8ff" stroke="#63b8ff" points="466.95,-164.71 465.85,-175.25 473.28,-167.7 466.95,-164.71"/>
</a>
</g>
</g>
<!-- Node17&#45;&gt;Node6 -->
<g id="edge37_Node000017_Node000006" class="edge">
<title>Node17&#45;&gt;Node6</title>
<g id="a_edge37_Node000017_Node000006"><a xlink:title=" ">
<path fill="none" stroke="#63b8ff" d="M201.98,-237.6C211.5,-195.37 239.91,-98 306,-55.25 355.99,-22.91 758.08,-13.68 909.02,-11.34"/>
<polygon fill="#63b8ff" stroke="#63b8ff" points="198.57,-236.82 199.92,-247.33 205.42,-238.27 198.57,-236.82"/>
</a>
</g>
</g>
<!-- Node18&#45;&gt;Node6 -->
<g id="edge40_Node000018_Node000006" class="edge">
<title>Node18&#45;&gt;Node6</title>
<g id="a_edge40_Node000018_Node000006"><a xlink:title=" ">
<path fill="none" stroke="#63b8ff" d="M498.48,-241.48C509.95,-232.02 524.26,-219.6 536,-207.5 596.76,-144.86 584.1,-98.31 660,-55.25 701.44,-31.74 832.52,-19.38 909.02,-14.01"/>
<polygon fill="#63b8ff" stroke="#63b8ff" points="496.37,-238.69 490.81,-247.71 500.78,-244.13 496.37,-238.69"/>
</a>
</g>
</g>
<!-- Node18&#45;&gt;Node10 -->
<g id="edge39_Node000018_Node000010" class="edge">
<title>Node18&#45;&gt;Node10</title>
<g id="a_edge39_Node000018_Node000010"><a xlink:title=" ">
<path fill="none" stroke="#63b8ff" d="M531.55,-246.31C590.37,-233.75 683.62,-213.83 737.59,-202.31"/>
<polygon fill="#63b8ff" stroke="#63b8ff" points="531.16,-242.82 522.11,-248.33 532.62,-249.66 531.16,-242.82"/>
</a>
</g>
</g>
<!-- Node19&#45;&gt;Node6 -->
<g id="edge46_Node000019_Node000006" class="edge">
<title>Node19&#45;&gt;Node6</title>
<g id="a_edge46_Node000019_Node000006"><a xlink:title=" ">
<path fill="none" stroke="#63b8ff" d="M1196.65,-233.13C1217.74,-191.41 1251.59,-106.37 1209,-55.25 1185.8,-27.4 1087.33,-16.87 1023.08,-12.94"/>
<polygon fill="#63b8ff" stroke="#63b8ff" points="1193.61,-231.4 1192.07,-241.88 1199.81,-234.65 1193.61,-231.4"/>
</a>
</g>
</g>
<!-- Node19&#45;&gt;Node10 -->
<g id="edge45_Node000019_Node000010" class="edge">
<title>Node19&#45;&gt;Node10</title>
<g id="a_edge45_Node000019_Node000010"><a xlink:title=" ">
<path fill="none" stroke="#63b8ff" d="M1090.14,-242.89C1011.93,-230.37 902.55,-212.86 836.77,-202.34"/>
<polygon fill="#63b8ff" stroke="#63b8ff" points="1089.52,-246.33 1099.95,-244.46 1090.63,-239.42 1089.52,-246.33"/>
</a>
</g>
</g>
<!-- Node20&#45;&gt;Node4 -->
<g id="edge61_Node000020_Node000004" class="edge">
<title>Node20&#45;&gt;Node4</title>
<g id="a_edge61_Node000020_Node000004"><a xlink:title=" ">
<path fill="none" stroke="#63b8ff" d="M1195.64,-543.96C1301.32,-531.85 1485,-502.2 1485,-442.38 1485,-442.38 1485,-442.38 1485,-385.12 1485,-294.11 1387.14,-326.78 1313,-274 1295.07,-261.24 1292.81,-254.92 1274,-243.5 1193.84,-194.82 1089.92,-153.49 1042.97,-135.86"/>
<polygon fill="#63b8ff" stroke="#63b8ff" points="1195.46,-540.45 1185.91,-545.04 1196.24,-547.41 1195.46,-540.45"/>
</a>
</g>
</g>
<!-- Node21 -->
<g id="Node000021" class="node">
<title>Node21</title>
<g id="a_Node000021"><a xlink:href="../../dc/d44/_call_8hpp.html" target="_top" xlink:title=" ">
<polygon fill="white" stroke="#666666" points="1168.88,-506.25 1077.12,-506.25 1077.12,-487 1168.88,-487 1168.88,-506.25"/>
<text text-anchor="middle" x="1123" y="-492.75" font-family="Helvetica,sans-Serif" font-size="10.00">mimic++/Call.hpp</text>
</a>
</g>
</g>
<!-- Node20&#45;&gt;Node21 -->
<g id="edge49_Node000020_Node000021" class="edge">
<title>Node20&#45;&gt;Node21</title>
<g id="a_edge49_Node000020_Node000021"><a xlink:title=" ">
<path fill="none" stroke="#63b8ff" d="M1123,-530.63C1123,-522.34 1123,-513.17 1123,-506.61"/>
<polygon fill="#63b8ff" stroke="#63b8ff" points="1119.5,-530.57 1123,-540.57 1126.5,-530.57 1119.5,-530.57"/>
</a>
</g>
</g>
<!-- Node21&#45;&gt;Node6 -->
<g id="edge53_Node000021_Node000006" class="edge">
<title>Node21&#45;&gt;Node6</title>
<g id="a_edge53_Node000021_Node000006"><a xlink:title=" ">
<path fill="none" stroke="#63b8ff" d="M1180.66,-487.58C1311.27,-468.21 1623.93,-415.01 1696,-340.5 1721.63,-314 1715,-296.62 1715,-259.75 1715,-259.75 1715,-259.75 1715,-124.75 1715,-105.69 1782.47,-110.18 1575,-55.25 1471.75,-27.91 1153.74,-15.96 1023.01,-12.11"/>
<polygon fill="#63b8ff" stroke="#63b8ff" points="1180.23,-484.11 1170.84,-489.02 1181.25,-491.03 1180.23,-484.11"/>
</a>
</g>
</g>
<!-- Node21&#45;&gt;Node8 -->
<g id="edge51_Node000021_Node000008" class="edge">
<title>Node21&#45;&gt;Node8</title>
<g id="a_edge51_Node000021_Node000008"><a xlink:title=" ">
<path fill="none" stroke="#63b8ff" d="M1108.3,-477.87C1097,-464.61 1080.71,-446.36 1065,-431.75 1050.64,-418.4 1032.61,-404.75 1020.72,-396.12"/>
<polygon fill="#63b8ff" stroke="#63b8ff" points="1105.48,-479.95 1114.59,-485.35 1110.83,-475.44 1105.48,-479.95"/>
</a>
</g>
</g>
<!-- Node21&#45;&gt;Node9 -->
<g id="edge50_Node000021_Node000009" class="edge">
<title>Node21&#45;&gt;Node9</title>
<g id="a_edge50_Node000021_Node000009"><a xlink:title=" ">
<path fill="none" stroke="#63b8ff" d="M1115.03,-476.27C1105.27,-452.66 1088.16,-411.55 1073,-376.5 1055.56,-336.18 1033.99,-288.39 1025.11,-268.8"/>
<polygon fill="#63b8ff" stroke="#63b8ff" points="1111.68,-477.32 1118.73,-485.23 1118.15,-474.65 1111.68,-477.32"/>
</a>
</g>
</g>
<!-- Node21&#45;&gt;Node13 -->
<g id="edge52_Node000021_Node000013" class="edge">
<title>Node21&#45;&gt;Node13</title>
<g id="a_edge52_Node000021_Node000013"><a xlink:title=" ">
<path fill="none" stroke="#63b8ff" d="M1092.09,-482.02C1070.29,-472.43 1041.69,-459.84 1022.63,-451.45"/>
<polygon fill="#63b8ff" stroke="#63b8ff" points="1090.53,-485.16 1101.09,-485.98 1093.35,-478.75 1090.53,-485.16"/>
</a>
</g>
</g>
<!-- Node22 -->
<g id="Node000022" class="node">
<title>Node22</title>
<g id="a_Node000022"><a xlink:href="../../d2/dfd/_argument_list_8hpp.html" target="_top" xlink:title=" ">
<polygon fill="white" stroke="#666666" points="1686.62,-340.5 1551.38,-340.5 1551.38,-310 1686.62,-310 1686.62,-340.5"/>
<text text-anchor="start" x="1559.38" y="-327" font-family="Helvetica,sans-Serif" font-size="10.00">mimic++/policies/Argument</text>
<text text-anchor="middle" x="1619" y="-315.75" font-family="Helvetica,sans-Serif" font-size="10.00">List.hpp</text>
</a>
</g>
</g>
<!-- Node21&#45;&gt;Node22 -->
<g id="edge54_Node000021_Node000022" class="edge">
<title>Node21&#45;&gt;Node22</title>
<g id="a_edge54_Node000021_Node000022"><a xlink:title=" ">
<path fill="none" stroke="#63b8ff" d="M1157.85,-482.56C1208.13,-463.66 1303.87,-427.48 1385,-395.75 1406.41,-387.38 1411.2,-383.79 1433,-376.5 1473.92,-362.82 1520.83,-350.17 1557.3,-340.98"/>
<polygon fill="#63b8ff" stroke="#63b8ff" points="1156.8,-479.21 1148.67,-486.01 1159.26,-485.77 1156.8,-479.21"/>
</a>
</g>
</g>
<!-- Node22&#45;&gt;Node6 -->
<g id="edge55_Node000022_Node000006" class="edge">
<title>Node22&#45;&gt;Node6</title>
<g id="a_edge55_Node000022_Node000006"><a xlink:title=" ">
<path fill="none" stroke="#63b8ff" d="M1636.58,-300.74C1653.65,-275.53 1677,-233.65 1677,-193.25 1677,-193.25 1677,-193.25 1677,-124.75 1677,-91.5 1799.45,-121.58 1526,-55.25 1431.69,-32.37 1145.62,-18.1 1022.9,-12.87"/>
<polygon fill="#63b8ff" stroke="#63b8ff" points="1633.93,-298.42 1631.05,-308.61 1639.66,-302.44 1633.93,-298.42"/>
</a>
</g>
</g>
<!-- Node22&#45;&gt;Node19 -->
<g id="edge56_Node000022_Node000019" class="edge">
<title>Node22&#45;&gt;Node19</title>
<g id="a_edge56_Node000022_Node000019"><a xlink:title=" ">
<path fill="none" stroke="#63b8ff" d="M1539.68,-312.52C1461.78,-300.99 1343.48,-283.49 1264.75,-271.84"/>
<polygon fill="#63b8ff" stroke="#63b8ff" points="1538.97,-315.95 1549.38,-313.95 1540,-309.02 1538.97,-315.95"/>
</a>
</g>
</g>
<!-- Node23 -->
<g id="Node000023" class="node">
<title>Node23</title>
<g id="a_Node000023"><a xlink:href="../../d3/da3/_finalizer_policies_8hpp.html" target="_top" xlink:title=" ">
<polygon fill="white" stroke="#666666" points="1602.62,-207.5 1473.38,-207.5 1473.38,-177 1602.62,-177 1602.62,-207.5"/>
<text text-anchor="start" x="1481.38" y="-194" font-family="Helvetica,sans-Serif" font-size="10.00">mimic++/policies/Finalizer</text>
<text text-anchor="middle" x="1538" y="-182.75" font-family="Helvetica,sans-Serif" font-size="10.00">Policies.hpp</text>
</a>
</g>
</g>
<!-- Node22&#45;&gt;Node23 -->
<g id="edge57_Node000022_Node000023" class="edge">
<title>Node22&#45;&gt;Node23</title>
<g id="a_edge57_Node000022_Node000023"><a xlink:title=" ">
<path fill="none" stroke="#63b8ff" d="M1604.15,-300.24C1587.45,-273.22 1560.85,-230.2 1547.02,-207.83"/>
<polygon fill="#63b8ff" stroke="#63b8ff" points="1600.99,-301.78 1609.23,-308.44 1606.94,-298.1 1600.99,-301.78"/>
</a>
</g>
</g>
<!-- Node24 -->
<g id="Node000024" class="node">
<title>Node24</title>
<g id="a_Node000024"><a xlink:href="../../dc/d18/_side_effect_policies_8hpp.html" target="_top" xlink:title=" ">
<polygon fill="white" stroke="#666666" points="1648.75,-141 1511.25,-141 1511.25,-110.5 1648.75,-110.5 1648.75,-141"/>
<text text-anchor="start" x="1519.25" y="-127.5" font-family="Helvetica,sans-Serif" font-size="10.00">mimic++/policies/SideEffect</text>
<text text-anchor="middle" x="1580" y="-116.25" font-family="Helvetica,sans-Serif" font-size="10.00">Policies.hpp</text>
</a>
</g>
</g>
<!-- Node22&#45;&gt;Node24 -->
<g id="edge59_Node000022_Node000024" class="edge">
<title>Node22&#45;&gt;Node24</title>
<g id="a_edge59_Node000022_Node000024"><a xlink:title=" ">
<path fill="none" stroke="#63b8ff" d="M1621.7,-298.47C1623.96,-268.51 1624.99,-217.95 1612,-177 1607.81,-163.79 1599.24,-150.64 1592.02,-141.11"/>
<polygon fill="#63b8ff" stroke="#63b8ff" points="1618.25,-297.83 1620.87,-308.1 1625.22,-298.44 1618.25,-297.83"/>
</a>
</g>
</g>
<!-- Node23&#45;&gt;Node6 -->
<g id="edge58_Node000023_Node000006" class="edge">
<title>Node23&#45;&gt;Node6</title>
<g id="a_edge58_Node000023_Node000006"><a xlink:title=" ">
<path fill="none" stroke="#63b8ff" d="M1519.95,-167.68C1513.95,-159.43 1507.42,-149.98 1502,-141 1479.96,-104.5 1494.23,-79.26 1459,-55.25 1423.67,-31.17 1145.36,-17.56 1023.18,-12.7"/>
<polygon fill="#63b8ff" stroke="#63b8ff" points="1516.99,-169.55 1525.76,-175.5 1522.61,-165.38 1516.99,-169.55"/>
</a>
</g>
</g>
<!-- Node24&#45;&gt;Node6 -->
<g id="edge60_Node000024_Node000006" class="edge">
<title>Node24&#45;&gt;Node6</title>
<g id="a_edge60_Node000024_Node000006"><a xlink:title=" ">
<path fill="none" stroke="#63b8ff" d="M1559.88,-101.64C1544.44,-85.61 1521.64,-65.39 1497,-55.25 1412.41,-20.43 1141.66,-12.78 1022.83,-11.1"/>
<polygon fill="#63b8ff" stroke="#63b8ff" points="1557.27,-103.97 1566.64,-108.91 1562.4,-99.2 1557.27,-103.97"/>
</a>
</g>
</g>
<!-- Node25&#45;&gt;Node4 -->
<g id="edge65_Node000025_Node000004" class="edge">
<title>Node25&#45;&gt;Node4</title>
<g id="a_edge65_Node000025_Node000004"><a xlink:title=" ">
<path fill="none" stroke="#63b8ff" d="M1368.72,-234.04C1354.63,-215.45 1332.52,-190.53 1307,-177 1230.51,-136.45 1128.16,-127.6 1068.03,-126.22"/>
<polygon fill="#63b8ff" stroke="#63b8ff" points="1365.72,-235.86 1374.45,-241.87 1371.37,-231.73 1365.72,-235.86"/>
</a>
</g>
</g>
<!-- Node25&#45;&gt;Node6 -->
<g id="edge66_Node000025_Node000006" class="edge">
<title>Node25&#45;&gt;Node6</title>
<g id="a_edge66_Node000025_Node000006"><a xlink:title=" ">
<path fill="none" stroke="#63b8ff" d="M1374.27,-232.95C1353.53,-188.44 1303.33,-95.84 1229,-55.25 1194.4,-36.36 1089.5,-22.86 1023.11,-15.93"/>
<polygon fill="#63b8ff" stroke="#63b8ff" points="1370.96,-234.13 1378.28,-241.79 1377.34,-231.24 1370.96,-234.13"/>
</a>
</g>
</g>
<!-- Node25&#45;&gt;Node10 -->
<g id="edge64_Node000025_Node000010" class="edge">
<title>Node25&#45;&gt;Node10</title>
<g id="a_edge64_Node000025_Node000010"><a xlink:title=" ">
<path fill="none" stroke="#63b8ff" d="M1309.72,-247.81C1297.78,-246.32 1285.56,-244.83 1274,-243.5 1127.12,-226.61 955.33,-209.79 857.93,-200.54"/>
<polygon fill="#63b8ff" stroke="#63b8ff" points="1309.19,-251.28 1319.55,-249.06 1310.07,-244.33 1309.19,-251.28"/>
</a>
</g>
</g>
<!-- Node26&#45;&gt;Node2 -->
<g id="edge68_Node000026_Node000002" class="edge">
<title>Node26&#45;&gt;Node2</title>
<g id="a_edge68_Node000026_Node000002"><a xlink:title=" ">
<path fill="none" stroke="#63b8ff" d="M1099,-640.98C1099,-632.48 1099,-623.59 1099,-617.2"/>
<polygon fill="#63b8ff" stroke="#63b8ff" points="1095.5,-640.93 1099,-650.93 1102.5,-640.93 1095.5,-640.93"/>
</a>
</g>
</g>
<!-- Node27&#45;&gt;Node2 -->
<g id="edge70_Node000027_Node000002" class="edge">
<title>Node27&#45;&gt;Node2</title>
<g id="a_edge70_Node000027_Node000002"><a xlink:title=" ">
<path fill="none" stroke="#63b8ff" d="M1187.78,-647.72C1164.72,-637.44 1137.42,-625.26 1119.24,-617.15"/>
<polygon fill="#63b8ff" stroke="#63b8ff" points="1186.09,-650.8 1196.65,-651.68 1188.94,-644.41 1186.09,-650.8"/>
</a>
</g>
</g>
</g>
</svg>
