<?xml version="1.0" encoding="UTF-8" standalone="no"?>
<!DOCTYPE svg PUBLIC "-//W3C//DTD SVG 1.1//EN"
 "http://www.w3.org/Graphics/SVG/1.1/DTD/svg11.dtd">
<!-- Generated by graphviz version 12.1.1 (20240910.0053)
 -->
<!-- Title: mimic++/ExpectationPolicies.hpp Pages: 1 -->
<svg width="274pt" height="248pt"
 viewBox="0.00 0.00 273.98 248.25" xmlns="http://www.w3.org/2000/svg" xmlns:xlink="http://www.w3.org/1999/xlink">
<g id="graph0" class="graph" transform="scale(1 1) rotate(0) translate(4 244.25)">
<title>mimic++/ExpectationPolicies.hpp</title>
<!-- Node1 -->
<g id="Node000001" class="node">
<title>Node1</title>
<g id="a_Node000001"><a xlink:title=" ">
<polygon fill="#999999" stroke="#666666" points="248.75,-240.25 88.75,-240.25 88.75,-221 248.75,-221 248.75,-240.25"/>
<text text-anchor="middle" x="168.75" y="-226.75" font-family="Helvetica,sans-Serif" font-size="10.00">mimic++/ExpectationPolicies.hpp</text>
</a>
</g>
</g>
<!-- Node2 -->
<g id="Node000002" class="node">
<title>Node2</title>
<g id="a_Node000002"><a xlink:href="../../d2/d4f/_expectation_builder_8hpp.html" target="_top" xlink:title=" ">
<polygon fill="white" stroke="#666666" points="246.5,-185 91,-185 91,-165.75 246.5,-165.75 246.5,-185"/>
<text text-anchor="middle" x="168.75" y="-171.5" font-family="Helvetica,sans-Serif" font-size="10.00">mimic++/ExpectationBuilder.hpp</text>
</a>
</g>
</g>
<!-- Node1&#45;&gt;Node2 -->
<g id="edge1_Node000001_Node000002" class="edge">
<title>Node1&#45;&gt;Node2</title>
<g id="a_edge1_Node000001_Node000002"><a xlink:title=" ">
<path fill="none" stroke="#63b8ff" d="M168.75,-209.38C168.75,-201.09 168.75,-191.92 168.75,-185.36"/>
<polygon fill="#63b8ff" stroke="#63b8ff" points="165.25,-209.32 168.75,-219.32 172.25,-209.32 165.25,-209.32"/>
</a>
</g>
</g>
<!-- Node3 -->
<g id="Node000003" class="node">
<title>Node3</title>
<g id="a_Node000003"><a xlink:href="../../d5/dc5/_mock_8hpp.html" target="_top" xlink:title=" ">
<polygon fill="white" stroke="#666666" points="146.38,-129.75 47.12,-129.75 47.12,-110.5 146.38,-110.5 146.38,-129.75"/>
<text text-anchor="middle" x="96.75" y="-116.25" font-family="Helvetica,sans-Serif" font-size="10.00">mimic++/Mock.hpp</text>
</a>
</g>
</g>
<!-- Node1&#45;&gt;Node3 -->
<g id="edge7_Node000001_Node000003" class="edge">
<title>Node1&#45;&gt;Node3</title>
<g id="a_edge7_Node000001_Node000003"><a xlink:title=" ">
<path fill="none" stroke="#63b8ff" d="M121.41,-216.4C106.04,-209.61 90.67,-199.59 81.75,-185 71.06,-167.5 82.82,-143.03 90.74,-130.04"/>
<polygon fill="#63b8ff" stroke="#63b8ff" points="119.97,-219.59 130.56,-220.03 122.56,-213.09 119.97,-219.59"/>
</a>
</g>
</g>
<!-- Node5 -->
<g id="Node000005" class="node">
<title>Node5</title>
<g id="a_Node000005"><a xlink:href="../../d0/db9/mimic_09_09_8hpp.html" target="_top" xlink:title=" ">
<polygon fill="white" stroke="#666666" points="241.5,-19.25 128,-19.25 128,0 241.5,0 241.5,-19.25"/>
<text text-anchor="middle" x="184.75" y="-5.75" font-family="Helvetica,sans-Serif" font-size="10.00">mimic++/mimic++.hpp</text>
</a>
</g>
</g>
<!-- Node1&#45;&gt;Node5 -->
<g id="edge8_Node000001_Node000005" class="edge">
<title>Node1&#45;&gt;Node5</title>
<g id="a_edge8_Node000001_Node000005"><a xlink:title=" ">
<path fill="none" stroke="#63b8ff" d="M216.09,-216.4C231.46,-209.61 246.83,-199.59 255.75,-185 291.71,-126.15 220.16,-45.85 193.89,-19.44"/>
<polygon fill="#63b8ff" stroke="#63b8ff" points="214.94,-213.09 206.94,-220.03 217.53,-219.59 214.94,-213.09"/>
</a>
</g>
</g>
<!-- Node2&#45;&gt;Node3 -->
<g id="edge2_Node000002_Node000003" class="edge">
<title>Node2&#45;&gt;Node3</title>
<g id="a_edge2_Node000002_Node000003"><a xlink:title=" ">
<path fill="none" stroke="#63b8ff" d="M147.58,-158.72C134.94,-149.37 119.34,-137.83 108.78,-130.02"/>
<polygon fill="#63b8ff" stroke="#63b8ff" points="145.2,-161.31 155.32,-164.44 149.36,-155.68 145.2,-161.31"/>
</a>
</g>
</g>
<!-- Node2&#45;&gt;Node5 -->
<g id="edge6_Node000002_Node000005" class="edge">
<title>Node2&#45;&gt;Node5</title>
<g id="a_edge6_Node000002_Node000005"><a xlink:title=" ">
<path fill="none" stroke="#63b8ff" d="M170.72,-154.22C174.22,-118.36 181.41,-44.85 183.89,-19.47"/>
<polygon fill="#63b8ff" stroke="#63b8ff" points="167.25,-153.77 169.76,-164.06 174.21,-154.45 167.25,-153.77"/>
</a>
</g>
</g>
<!-- Node4 -->
<g id="Node000004" class="node">
<title>Node4</title>
<g id="a_Node000004"><a xlink:href="../../d9/dc3/_interface_mock_8hpp.html" target="_top" xlink:title=" ">
<polygon fill="white" stroke="#666666" points="137.5,-74.5 0,-74.5 0,-55.25 137.5,-55.25 137.5,-74.5"/>
<text text-anchor="middle" x="68.75" y="-61" font-family="Helvetica,sans-Serif" font-size="10.00">mimic++/InterfaceMock.hpp</text>
</a>
</g>
</g>
<!-- Node3&#45;&gt;Node4 -->
<g id="edge3_Node000003_Node000004" class="edge">
<title>Node3&#45;&gt;Node4</title>
<g id="a_edge3_Node000003_Node000004"><a xlink:title=" ">
<path fill="none" stroke="#63b8ff" d="M86.87,-100.33C82.32,-91.67 77.13,-81.81 73.47,-74.86"/>
<polygon fill="#63b8ff" stroke="#63b8ff" points="83.67,-101.77 91.42,-108.99 89.87,-98.51 83.67,-101.77"/>
</a>
</g>
</g>
<!-- Node3&#45;&gt;Node5 -->
<g id="edge5_Node000003_Node000005" class="edge">
<title>Node3&#45;&gt;Node5</title>
<g id="a_edge5_Node000003_Node000005"><a xlink:title=" ">
<path fill="none" stroke="#63b8ff" d="M117.68,-102.92C127.19,-94.97 138.2,-84.87 146.75,-74.5 161.52,-56.58 174.31,-32.28 180.6,-19.43"/>
<polygon fill="#63b8ff" stroke="#63b8ff" points="115.56,-100.14 109.99,-109.15 119.96,-105.58 115.56,-100.14"/>
</a>
</g>
</g>
<!-- Node4&#45;&gt;Node5 -->
<g id="edge4_Node000004_Node000005" class="edge">
<title>Node4&#45;&gt;Node5</title>
<g id="a_edge4_Node000004_Node000005"><a xlink:title=" ">
<path fill="none" stroke="#63b8ff" d="M98.67,-50.14C119.53,-40.56 146.78,-28.06 164.98,-19.7"/>
<polygon fill="#63b8ff" stroke="#63b8ff" points="97.43,-46.86 89.8,-54.21 100.35,-53.22 97.43,-46.86"/>
</a>
</g>
</g>
</g>
</svg>
