<?xml version="1.0" encoding="UTF-8" standalone="no"?>
<!DOCTYPE svg PUBLIC "-//W3C//DTD SVG 1.1//EN"
 "http://www.w3.org/Graphics/SVG/1.1/DTD/svg11.dtd">
<!-- Generated by graphviz version 12.2.1 (20241206.2353)
 -->
<!-- Title: mimic++/utilities/PassKey.hpp Pages: 1 -->
<!--zoomable 448 -->

<svg id="main" version="1.1" xmlns="http://www.w3.org/2000/svg" xmlns:xlink="http://www.w3.org/1999/xlink" xml:space="preserve" onload="init(evt)">

<style type="text/css"><![CDATA[
.node, .edge {opacity: 0.7;}
.node.selected, .edge.selected {opacity: 1;}
.edge:hover path { stroke: red; }
.edge:hover polygon { stroke: red; fill: red; }
]]></style>

<defs>
  <circle id="rim" cx="0" cy="0" r="7"/>
  <circle id="rim2" cx="0" cy="0" r="3.5"/>
  <g id="zoomPlus">
    <use xlink:href="#rim" fill="#404040"><set attributeName="fill" to="#808080" begin="zoomplus.mouseover" end="zoomplus.mouseout"/></use>
    <path d="M-4,0h8M0,-4v8" fill="none" stroke="white" stroke-width="1.5" pointer-events="none"/>
  </g>
  <g id="zoomMin">
    <use xlink:href="#rim" fill="#404040"><set attributeName="fill" to="#808080" begin="zoomminus.mouseover" end="zoomminus.mouseout"/></use>
    <path d="M-4,0h8" fill="none" stroke="white" stroke-width="1.5" pointer-events="none"/>
  </g>
  <g id="arrowUp" transform="translate(30 24)">
    <use xlink:href="#rim"/>
    <path pointer-events="none" fill="none" stroke="white" stroke-width="1.5" d="M0,-3.0v7 M-2.5,-0.5L0,-3.0L2.5,-0.5"/>
  </g>
  <g id="arrowRight" transform="rotate(90) translate(36 -43)">
    <use xlink:href="#rim"/>
    <path pointer-events="none" fill="none" stroke="white" stroke-width="1.5" d="M0,-3.0v7 M-2.5,-0.5L0,-3.0L2.5,-0.5"/>
  </g>
  <g id="arrowDown" transform="rotate(180) translate(-30 -48)">
    <use xlink:href="#rim"/>
    <path pointer-events="none" fill="none" stroke="white" stroke-width="1.5" d="M0,-3.0v7 M-2.5,-0.5L0,-3.0L2.5,-0.5"/>
  </g>
  <g id="arrowLeft" transform="rotate(270) translate(-36 17)">
    <use xlink:href="#rim"/>
    <path pointer-events="none" fill="none" stroke="white" stroke-width="1.5" d="M0,-3.0v7 M-2.5,-0.5L0,-3.0L2.5,-0.5"/>
  </g>
  <g id="resetDef">
    <use xlink:href="#rim2" fill="#404040"><set attributeName="fill" to="#808080" begin="reset.mouseover" end="reset.mouseout"/></use>
  </g>
</defs>
<script type="application/ecmascript">
var viewWidth = 612;
var viewHeight = 448;
var sectionId = 'dynsection-1';
</script>
<script type="application/ecmascript" xlink:href="../../svg.min.js"/>
<svg id="graph" class="graph">
<g id="viewport">
<title>mimic++/utilities/PassKey.hpp</title>
<!-- Node1 -->
<g id="Node000001" class="node">
<title>Node1</title>
<g id="a_Node000001"><a xlink:title=" ">
<polygon fill="#999999" stroke="#666666" points="488,-439.75 340,-439.75 340,-420.5 488,-420.5 488,-439.75"/>
<text text-anchor="middle" x="414" y="-426.25" font-family="Helvetica,sans-Serif" font-size="10.00">mimic++/utilities/PassKey.hpp</text>
</a>
</g>
</g>
<!-- Node2 -->
<g id="Node000002" class="node">
<title>Node2</title>
<g id="a_Node000002"><a xlink:href="../../d8/de4/_sequence_8hpp.html" target="_top" xlink:title=" ">
<polygon fill="white" stroke="#666666" points="430.38,-384.5 311.62,-384.5 311.62,-365.25 430.38,-365.25 430.38,-384.5"/>
<text text-anchor="middle" x="371" y="-371" font-family="Helvetica,sans-Serif" font-size="10.00">mimic++/Sequence.hpp</text>
</a>
</g>
</g>
<!-- Node1&#45;&gt;Node2 -->
<g id="edge1_Node000001_Node000002" class="edge">
<title>Node1&#45;&gt;Node2</title>
<g id="a_edge1_Node000001_Node000002"><a xlink:title=" ">
<path fill="none" stroke="#63b8ff" d="M399.75,-411.47C392.55,-402.56 384.12,-392.12 378.25,-384.86"/>
<polygon fill="#63b8ff" stroke="#63b8ff" points="396.94,-413.57 405.95,-419.15 402.39,-409.18 396.94,-413.57"/>
</a>
</g>
</g>
<!-- Node12 -->
<g id="Node000012" class="node">
<title>Node12</title>
<g id="a_Node000012"><a xlink:href="../../dc/d54/_utilities_8hpp.html" target="_top" xlink:title=" ">
<polygon fill="white" stroke="#666666" points="604.12,-323.62 495.88,-323.62 495.88,-304.38 604.12,-304.38 604.12,-323.62"/>
<text text-anchor="middle" x="550" y="-310.12" font-family="Helvetica,sans-Serif" font-size="10.00">mimic++/Utilities.hpp</text>
</a>
</g>
</g>
<!-- Node1&#45;&gt;Node12 -->
<g id="edge23_Node000001_Node000012" class="edge">
<title>Node1&#45;&gt;Node12</title>
<g id="a_edge23_Node000001_Node000012"><a xlink:title=" ">
<path fill="none" stroke="#63b8ff" d="M433.15,-413.06C462.21,-388.67 516.48,-343.13 539.38,-323.91"/>
<polygon fill="#63b8ff" stroke="#63b8ff" points="431.24,-410.09 425.83,-419.2 435.74,-415.45 431.24,-410.09"/>
</a>
</g>
</g>
<!-- Node3 -->
<g id="Node000003" class="node">
<title>Node3</title>
<g id="a_Node000003"><a xlink:href="../../db/d83/_scoped_sequence_8hpp.html" target="_top" xlink:title=" ">
<polygon fill="white" stroke="#666666" points="483.88,-129.75 332.12,-129.75 332.12,-110.5 483.88,-110.5 483.88,-129.75"/>
<text text-anchor="middle" x="408" y="-116.25" font-family="Helvetica,sans-Serif" font-size="10.00">mimic++/ScopedSequence.hpp</text>
</a>
</g>
</g>
<!-- Node2&#45;&gt;Node3 -->
<g id="edge2_Node000002_Node000003" class="edge">
<title>Node2&#45;&gt;Node3</title>
<g id="a_edge2_Node000002_Node000003"><a xlink:title=" ">
<path fill="none" stroke="#63b8ff" d="M386.74,-356.4C404.18,-335.76 431.25,-299.55 442,-262.75 456.47,-213.24 426.29,-152.7 413.43,-130.15"/>
<polygon fill="#63b8ff" stroke="#63b8ff" points="384.2,-353.99 380.28,-363.84 389.48,-358.59 384.2,-353.99"/>
</a>
</g>
</g>
<!-- Node4 -->
<g id="Node000004" class="node">
<title>Node4</title>
<g id="a_Node000004"><a xlink:href="../../d0/db9/mimic_09_09_8hpp.html" target="_top" xlink:title=" ">
<polygon fill="white" stroke="#666666" points="323.75,-19.25 210.25,-19.25 210.25,0 323.75,0 323.75,-19.25"/>
<text text-anchor="middle" x="267" y="-5.75" font-family="Helvetica,sans-Serif" font-size="10.00">mimic++/mimic++.hpp</text>
</a>
</g>
</g>
<!-- Node2&#45;&gt;Node4 -->
<g id="edge19_Node000002_Node000004" class="edge">
<title>Node2&#45;&gt;Node4</title>
<g id="a_edge19_Node000002_Node000004"><a xlink:title=" ">
<path fill="none" stroke="#63b8ff" d="M300.29,-364.67C192.64,-348.64 0,-311.21 0,-248.5 0,-248.5 0,-248.5 0,-119.12 0,-83.07 19.35,-74.24 50,-55.25 98.55,-25.17 163.79,-14.97 210.03,-11.71"/>
<polygon fill="#63b8ff" stroke="#63b8ff" points="299.49,-368.09 309.89,-366.07 300.51,-361.16 299.49,-368.09"/>
</a>
</g>
</g>
<!-- Node5 -->
<g id="Node000005" class="node">
<title>Node5</title>
<g id="a_Node000005"><a xlink:href="../../db/d5d/_registry_8hpp.html" target="_top" xlink:title=" ">
<polygon fill="white" stroke="#666666" points="276.38,-329.25 169.62,-329.25 169.62,-298.75 276.38,-298.75 276.38,-329.25"/>
<text text-anchor="start" x="177.62" y="-315.75" font-family="Helvetica,sans-Serif" font-size="10.00">mimic++/expectation</text>
<text text-anchor="middle" x="223" y="-304.5" font-family="Helvetica,sans-Serif" font-size="10.00">/Registry.hpp</text>
</a>
</g>
</g>
<!-- Node2&#45;&gt;Node5 -->
<g id="edge4_Node000002_Node000005" class="edge">
<title>Node2&#45;&gt;Node5</title>
<g id="a_edge4_Node000002_Node000005"><a xlink:title=" ">
<path fill="none" stroke="#63b8ff" d="M337.54,-360.56C314.45,-351.38 283.75,-339.17 259.94,-329.69"/>
<polygon fill="#63b8ff" stroke="#63b8ff" points="336.21,-363.8 346.79,-364.25 338.79,-357.3 336.21,-363.8"/>
</a>
</g>
</g>
<!-- Node11 -->
<g id="Node000011" class="node">
<title>Node11</title>
<g id="a_Node000011"><a xlink:href="../../db/d70/_control_policies_8hpp.html" target="_top" xlink:title=" ">
<polygon fill="white" stroke="#666666" points="433,-262.75 309,-262.75 309,-232.25 433,-232.25 433,-262.75"/>
<text text-anchor="start" x="317" y="-249.25" font-family="Helvetica,sans-Serif" font-size="10.00">mimic++/policies/Control</text>
<text text-anchor="middle" x="371" y="-238" font-family="Helvetica,sans-Serif" font-size="10.00">Policies.hpp</text>
</a>
</g>
</g>
<!-- Node2&#45;&gt;Node11 -->
<g id="edge20_Node000002_Node000011" class="edge">
<title>Node2&#45;&gt;Node11</title>
<g id="a_edge20_Node000002_Node000011"><a xlink:title=" ">
<path fill="none" stroke="#63b8ff" d="M371,-353.69C371,-328.32 371,-285.42 371,-263.05"/>
<polygon fill="#63b8ff" stroke="#63b8ff" points="367.5,-353.34 371,-363.34 374.5,-353.34 367.5,-353.34"/>
</a>
</g>
</g>
<!-- Node3&#45;&gt;Node4 -->
<g id="edge3_Node000003_Node000004" class="edge">
<title>Node3&#45;&gt;Node4</title>
<g id="a_edge3_Node000003_Node000004"><a xlink:title=" ">
<path fill="none" stroke="#63b8ff" d="M430.34,-103.07C446.03,-89.84 462.2,-70.78 450,-55.25 434.5,-35.51 371.79,-23.4 324.06,-16.87"/>
<polygon fill="#63b8ff" stroke="#63b8ff" points="428.27,-100.25 422.57,-109.19 432.6,-105.75 428.27,-100.25"/>
</a>
</g>
</g>
<!-- Node5&#45;&gt;Node4 -->
<g id="edge18_Node000005_Node000004" class="edge">
<title>Node5&#45;&gt;Node4</title>
<g id="a_edge18_Node000005_Node000004"><a xlink:title=" ">
<path fill="none" stroke="#63b8ff" d="M158.39,-301.27C131.74,-293.82 102.01,-281.85 80,-262.75 49.44,-236.24 38,-222.45 38,-182 38,-182 38,-182 38,-119.12 38,-43.24 141.98,-20.36 209.8,-13.5"/>
<polygon fill="#63b8ff" stroke="#63b8ff" points="157.18,-304.57 167.74,-303.71 158.95,-297.8 157.18,-304.57"/>
</a>
</g>
</g>
<!-- Node6 -->
<g id="Node000006" class="node">
<title>Node6</title>
<g id="a_Node000006"><a xlink:href="../../d5/dc5/_mock_8hpp.html" target="_top" xlink:title=" ">
<polygon fill="white" stroke="#666666" points="272.62,-129.75 173.38,-129.75 173.38,-110.5 272.62,-110.5 272.62,-129.75"/>
<text text-anchor="middle" x="223" y="-116.25" font-family="Helvetica,sans-Serif" font-size="10.00">mimic++/Mock.hpp</text>
</a>
</g>
</g>
<!-- Node5&#45;&gt;Node6 -->
<g id="edge5_Node000005_Node000006" class="edge">
<title>Node5&#45;&gt;Node6</title>
<g id="a_edge5_Node000005_Node000006"><a xlink:title=" ">
<path fill="none" stroke="#63b8ff" d="M223,-286.92C223,-243.31 223,-157.64 223,-129.97"/>
<polygon fill="#63b8ff" stroke="#63b8ff" points="219.5,-286.75 223,-296.75 226.5,-286.75 219.5,-286.75"/>
</a>
</g>
</g>
<!-- Node9 -->
<g id="Node000009" class="node">
<title>Node9</title>
<g id="a_Node000009"><a xlink:href="../../d6/d15/_builder_8hpp.html" target="_top" xlink:title=" ">
<polygon fill="white" stroke="#666666" points="357.38,-196.25 250.62,-196.25 250.62,-165.75 357.38,-165.75 357.38,-196.25"/>
<text text-anchor="start" x="258.62" y="-182.75" font-family="Helvetica,sans-Serif" font-size="10.00">mimic++/expectation</text>
<text text-anchor="middle" x="304" y="-171.5" font-family="Helvetica,sans-Serif" font-size="10.00">/Builder.hpp</text>
</a>
</g>
</g>
<!-- Node5&#45;&gt;Node9 -->
<g id="edge11_Node000005_Node000009" class="edge">
<title>Node5&#45;&gt;Node9</title>
<g id="a_edge11_Node000005_Node000009"><a xlink:title=" ">
<path fill="none" stroke="#63b8ff" d="M237.85,-288.99C254.55,-261.97 281.15,-218.95 294.98,-196.58"/>
<polygon fill="#63b8ff" stroke="#63b8ff" points="235.06,-286.85 232.77,-297.19 241.01,-290.53 235.06,-286.85"/>
</a>
</g>
</g>
<!-- Node10 -->
<g id="Node000010" class="node">
<title>Node10</title>
<g id="a_Node000010"><a xlink:href="../../d4/d1e/_owner_8hpp.html" target="_top" xlink:title=" ">
<polygon fill="white" stroke="#666666" points="195.38,-262.75 88.62,-262.75 88.62,-232.25 195.38,-232.25 195.38,-262.75"/>
<text text-anchor="start" x="96.62" y="-249.25" font-family="Helvetica,sans-Serif" font-size="10.00">mimic++/expectation</text>
<text text-anchor="middle" x="142" y="-238" font-family="Helvetica,sans-Serif" font-size="10.00">/Owner.hpp</text>
</a>
</g>
</g>
<!-- Node5&#45;&gt;Node10 -->
<g id="edge15_Node000005_Node000010" class="edge">
<title>Node5&#45;&gt;Node10</title>
<g id="a_edge15_Node000005_Node000010"><a xlink:title=" ">
<path fill="none" stroke="#63b8ff" d="M195.71,-291.27C184.05,-281.98 170.75,-271.4 160.31,-263.08"/>
<polygon fill="#63b8ff" stroke="#63b8ff" points="193.43,-293.93 203.44,-297.42 197.79,-288.45 193.43,-293.93"/>
</a>
</g>
</g>
<!-- Node6&#45;&gt;Node4 -->
<g id="edge10_Node000006_Node000004" class="edge">
<title>Node6&#45;&gt;Node4</title>
<g id="a_edge10_Node000006_Node000004"><a xlink:title=" ">
<path fill="none" stroke="#63b8ff" d="M178.53,-106.51C148.32,-95.59 116.61,-77.98 133,-55.25 150.57,-30.89 182,-19.62 210.02,-14.5"/>
<polygon fill="#63b8ff" stroke="#63b8ff" points="177.04,-109.7 187.63,-109.6 179.29,-103.07 177.04,-109.7"/>
</a>
</g>
</g>
<!-- Node7 -->
<g id="Node000007" class="node">
<title>Node7</title>
<g id="a_Node000007"><a xlink:href="../../d6/dc3/_facade_8hpp.html" target="_top" xlink:title=" ">
<polygon fill="white" stroke="#666666" points="249.75,-74.5 142.25,-74.5 142.25,-55.25 249.75,-55.25 249.75,-74.5"/>
<text text-anchor="middle" x="196" y="-61" font-family="Helvetica,sans-Serif" font-size="10.00">mimic++/Facade.hpp</text>
</a>
</g>
</g>
<!-- Node6&#45;&gt;Node7 -->
<g id="edge6_Node000006_Node000007" class="edge">
<title>Node6&#45;&gt;Node7</title>
<g id="a_edge6_Node000006_Node000007"><a xlink:title=" ">
<path fill="none" stroke="#63b8ff" d="M213.47,-100.33C209.08,-91.67 204.08,-81.81 200.56,-74.86"/>
<polygon fill="#63b8ff" stroke="#63b8ff" points="210.21,-101.65 217.86,-108.98 216.46,-98.48 210.21,-101.65"/>
</a>
</g>
</g>
<!-- Node8 -->
<g id="Node000008" class="node">
<title>Node8</title>
<g id="a_Node000008"><a xlink:href="../../d5/d92/_object_watcher_8hpp.html" target="_top" xlink:title=" ">
<polygon fill="white" stroke="#666666" points="407.88,-74.5 268.12,-74.5 268.12,-55.25 407.88,-55.25 407.88,-74.5"/>
<text text-anchor="middle" x="338" y="-61" font-family="Helvetica,sans-Serif" font-size="10.00">mimic++/ObjectWatcher.hpp</text>
</a>
</g>
</g>
<!-- Node6&#45;&gt;Node8 -->
<g id="edge8_Node000006_Node000008" class="edge">
<title>Node6&#45;&gt;Node8</title>
<g id="a_edge8_Node000006_Node000008"><a xlink:title=" ">
<path fill="none" stroke="#63b8ff" d="M252.95,-105.26C273.59,-95.7 300.44,-83.27 318.4,-74.95"/>
<polygon fill="#63b8ff" stroke="#63b8ff" points="251.49,-102.08 243.88,-109.46 254.43,-108.43 251.49,-102.08"/>
</a>
</g>
</g>
<!-- Node7&#45;&gt;Node4 -->
<g id="edge7_Node000007_Node000004" class="edge">
<title>Node7&#45;&gt;Node4</title>
<g id="a_edge7_Node000007_Node000004"><a xlink:title=" ">
<path fill="none" stroke="#63b8ff" d="M217.25,-47.94C229.64,-38.64 244.82,-27.26 255.13,-19.52"/>
<polygon fill="#63b8ff" stroke="#63b8ff" points="215.16,-45.13 209.26,-53.93 219.36,-50.73 215.16,-45.13"/>
</a>
</g>
</g>
<!-- Node8&#45;&gt;Node4 -->
<g id="edge9_Node000008_Node000004" class="edge">
<title>Node8&#45;&gt;Node4</title>
<g id="a_edge9_Node000008_Node000004"><a xlink:title=" ">
<path fill="none" stroke="#63b8ff" d="M316.75,-47.94C304.36,-38.64 289.18,-27.26 278.87,-19.52"/>
<polygon fill="#63b8ff" stroke="#63b8ff" points="314.64,-50.73 324.74,-53.93 318.84,-45.13 314.64,-50.73"/>
</a>
</g>
</g>
<!-- Node9&#45;&gt;Node3 -->
<g id="edge13_Node000009_Node000003" class="edge">
<title>Node9&#45;&gt;Node3</title>
<g id="a_edge13_Node000009_Node000003"><a xlink:title=" ">
<path fill="none" stroke="#63b8ff" d="M339.53,-159.88C357.38,-149.78 378.12,-138.04 392.05,-130.15"/>
<polygon fill="#63b8ff" stroke="#63b8ff" points="338.27,-156.58 331.29,-164.55 341.72,-162.67 338.27,-156.58"/>
</a>
</g>
</g>
<!-- Node9&#45;&gt;Node4 -->
<g id="edge14_Node000009_Node000004" class="edge">
<title>Node9&#45;&gt;Node4</title>
<g id="a_edge14_Node000009_Node000004"><a xlink:title=" ">
<path fill="none" stroke="#63b8ff" d="M305.43,-154.19C307.49,-139.78 312.24,-122.38 323,-110.5 355.53,-74.58 445.97,-94.1 417,-55.25 395.72,-26.72 356.94,-15.7 324.14,-11.75"/>
<polygon fill="#63b8ff" stroke="#63b8ff" points="301.98,-153.6 304.42,-163.91 308.94,-154.33 301.98,-153.6"/>
</a>
</g>
</g>
<!-- Node9&#45;&gt;Node6 -->
<g id="edge12_Node000009_Node000006" class="edge">
<title>Node9&#45;&gt;Node6</title>
<g id="a_edge12_Node000009_Node000006"><a xlink:title=" ">
<path fill="none" stroke="#63b8ff" d="M274.97,-158.9C261.42,-149.05 245.99,-137.83 235.49,-130.2"/>
<polygon fill="#63b8ff" stroke="#63b8ff" points="272.61,-161.51 282.75,-164.56 276.72,-155.85 272.61,-161.51"/>
</a>
</g>
</g>
<!-- Node10&#45;&gt;Node4 -->
<g id="edge17_Node000010_Node000004" class="edge">
<title>Node10&#45;&gt;Node4</title>
<g id="a_edge17_Node000010_Node000004"><a xlink:title=" ">
<path fill="none" stroke="#63b8ff" d="M130.18,-221.52C113.43,-182.07 88.66,-104.76 125,-55.25 144.42,-28.79 179.52,-17.6 209.96,-13.04"/>
<polygon fill="#63b8ff" stroke="#63b8ff" points="126.87,-222.7 134.12,-230.42 133.27,-219.86 126.87,-222.7"/>
</a>
</g>
</g>
<!-- Node10&#45;&gt;Node9 -->
<g id="edge16_Node000010_Node000009" class="edge">
<title>Node10&#45;&gt;Node9</title>
<g id="a_edge16_Node000010_Node000009"><a xlink:title=" ">
<path fill="none" stroke="#63b8ff" d="M189.39,-227.63C214.18,-217.76 244.07,-205.86 267.11,-196.69"/>
<polygon fill="#63b8ff" stroke="#63b8ff" points="188.16,-224.35 180.17,-231.3 190.75,-230.86 188.16,-224.35"/>
</a>
</g>
</g>
<!-- Node11&#45;&gt;Node4 -->
<g id="edge22_Node000011_Node000004" class="edge">
<title>Node11&#45;&gt;Node4</title>
<g id="a_edge22_Node000011_Node000004"><a xlink:title=" ">
<path fill="none" stroke="#63b8ff" d="M411.08,-226.3C450.99,-203.02 504.76,-161.35 493,-110.5 486.84,-83.87 487.45,-72.19 466,-55.25 425.71,-23.43 367.22,-13.34 324.07,-10.57"/>
<polygon fill="#63b8ff" stroke="#63b8ff" points="409.6,-223.12 402.6,-231.08 413.03,-229.22 409.6,-223.12"/>
</a>
</g>
</g>
<!-- Node11&#45;&gt;Node9 -->
<g id="edge21_Node000011_Node000009" class="edge">
<title>Node11&#45;&gt;Node9</title>
<g id="a_edge21_Node000011_Node000009"><a xlink:title=" ">
<path fill="none" stroke="#63b8ff" d="M347.56,-223.94C338.13,-214.86 327.53,-204.65 319.14,-196.58"/>
<polygon fill="#63b8ff" stroke="#63b8ff" points="345.07,-226.4 354.71,-230.81 349.93,-221.36 345.07,-226.4"/>
</a>
</g>
</g>
<!-- Node12&#45;&gt;Node4 -->
<g id="edge24_Node000012_Node000004" class="edge">
<title>Node12&#45;&gt;Node4</title>
<g id="a_edge24_Node000012_Node000004"><a xlink:title=" ">
<path fill="none" stroke="#63b8ff" d="M550,-292.94C550,-267.23 550,-221.3 550,-182 550,-182 550,-182 550,-119.12 550,-79.56 522.72,-74.21 488,-55.25 436.98,-27.39 370.79,-16.84 324.19,-12.89"/>
<polygon fill="#63b8ff" stroke="#63b8ff" points="546.5,-292.59 550,-302.59 553.5,-292.59 546.5,-292.59"/>
</a>
</g>
</g>
</g>
</svg>

<g id="navigator" transform="translate(0 0)" fill="#404254">
  <rect fill="#f2f5e9" fill-opacity="0.5" stroke="#606060" stroke-width=".5" x="0" y="0" width="60" height="60"/>
  <use id="zoomplus" xlink:href="#zoomPlus" x="17" y="9" onmousedown="handleZoom(evt,'in')"/>
  <use id="zoomminus" xlink:href="#zoomMin" x="42" y="9" onmousedown="handleZoom(evt,'out')"/>
  <use id="reset" xlink:href="#resetDef" x="30" y="36" onmousedown="handleReset()"/>
   <use id="arrowup" xlink:href="#arrowUp" x="0" y="0" onmousedown="handlePan(0,-1)"/>
  <use id="arrowright" xlink:href="#arrowRight" x="0" y="0" onmousedown="handlePan(1,0)"/>
  <use id="arrowdown" xlink:href="#arrowDown" x="0" y="0" onmousedown="handlePan(0,1)"/>
  <use id="arrowleft" xlink:href="#arrowLeft" x="0" y="0" onmousedown="handlePan(-1,0)"/>
</g>
<svg viewBox="0 0 15 15" width="100%" height="30px" preserveAspectRatio="xMaxYMin meet">
 <g id="arrow_out" transform="scale(0.3 0.3)">
  <a xlink:href="_pass_key_8hpp__dep__incl_org.svg" target="_base">
   <rect id="button" ry="5" rx="5" y="6" x="6" height="38" width="38"
        fill="#f2f5e9" fill-opacity="0.5" stroke="#606060" stroke-width="1.0"/>
   <path id="arrow"
     d="M 11.500037,31.436501 C 11.940474,20.09759 22.043105,11.32322 32.158766,21.979434 L 37.068811,17.246167 C 37.068811,17.246167 37.088388,32 37.088388,32 L 22.160133,31.978069 C 22.160133,31.978069 26.997745,27.140456 26.997745,27.140456 C 18.528582,18.264221 13.291696,25.230495 11.500037,31.436501 z"
     style="fill:#404040;"/>
  </a>
 </g>
</svg>

<style type='text/css'>
<![CDATA[
[data-mouse-over-selected='false'] { opacity: 0.7; }
[data-mouse-over-selected='true']  { opacity: 1.0; }
]]>
</style>
<script type="application/ecmascript"><![CDATA[
document.addEventListener('DOMContentLoaded', (event) => {
  highlightEdges();
  highlightAdjacentNodes();
});
]]></script>
</svg>
