<?xml version="1.0" encoding="UTF-8" standalone="no"?>
<!DOCTYPE svg PUBLIC "-//W3C//DTD SVG 1.1//EN"
 "http://www.w3.org/Graphics/SVG/1.1/DTD/svg11.dtd">
<!-- Generated by graphviz version 12.2.1 (20241206.2353)
 -->
<!-- Title: mimic++/utilities/PassKey.hpp Pages: 1 -->
<!--zoomable 370 -->

<svg id="main" version="1.1" xmlns="http://www.w3.org/2000/svg" xmlns:xlink="http://www.w3.org/1999/xlink" xml:space="preserve" onload="init(evt)">

<style type="text/css"><![CDATA[
.node, .edge {opacity: 0.7;}
.node.selected, .edge.selected {opacity: 1;}
.edge:hover path { stroke: red; }
.edge:hover polygon { stroke: red; fill: red; }
]]></style>

<defs>
  <circle id="rim" cx="0" cy="0" r="7"/>
  <circle id="rim2" cx="0" cy="0" r="3.5"/>
  <g id="zoomPlus">
    <use xlink:href="#rim" fill="#404040"><set attributeName="fill" to="#808080" begin="zoomplus.mouseover" end="zoomplus.mouseout"/></use>
    <path d="M-4,0h8M0,-4v8" fill="none" stroke="white" stroke-width="1.5" pointer-events="none"/>
  </g>
  <g id="zoomMin">
    <use xlink:href="#rim" fill="#404040"><set attributeName="fill" to="#808080" begin="zoomminus.mouseover" end="zoomminus.mouseout"/></use>
    <path d="M-4,0h8" fill="none" stroke="white" stroke-width="1.5" pointer-events="none"/>
  </g>
  <g id="arrowUp" transform="translate(30 24)">
    <use xlink:href="#rim"/>
    <path pointer-events="none" fill="none" stroke="white" stroke-width="1.5" d="M0,-3.0v7 M-2.5,-0.5L0,-3.0L2.5,-0.5"/>
  </g>
  <g id="arrowRight" transform="rotate(90) translate(36 -43)">
    <use xlink:href="#rim"/>
    <path pointer-events="none" fill="none" stroke="white" stroke-width="1.5" d="M0,-3.0v7 M-2.5,-0.5L0,-3.0L2.5,-0.5"/>
  </g>
  <g id="arrowDown" transform="rotate(180) translate(-30 -48)">
    <use xlink:href="#rim"/>
    <path pointer-events="none" fill="none" stroke="white" stroke-width="1.5" d="M0,-3.0v7 M-2.5,-0.5L0,-3.0L2.5,-0.5"/>
  </g>
  <g id="arrowLeft" transform="rotate(270) translate(-36 17)">
    <use xlink:href="#rim"/>
    <path pointer-events="none" fill="none" stroke="white" stroke-width="1.5" d="M0,-3.0v7 M-2.5,-0.5L0,-3.0L2.5,-0.5"/>
  </g>
  <g id="resetDef">
    <use xlink:href="#rim2" fill="#404040"><set attributeName="fill" to="#808080" begin="reset.mouseover" end="reset.mouseout"/></use>
  </g>
</defs>
<script type="application/ecmascript">
var viewWidth = 602;
var viewHeight = 370;
var sectionId = 'dynsection-1';
</script>
<script type="application/ecmascript" xlink:href="../../svg.min.js"/>
<svg id="graph" class="graph">
<g id="viewport">
<title>mimic++/utilities/PassKey.hpp</title>
<!-- Node1 -->
<g id="Node000001" class="node">
<title>Node1</title>
<g id="a_Node000001"><a xlink:title=" ">
<polygon fill="#999999" stroke="#666666" points="461.19,-362 313.19,-362 313.19,-342.75 461.19,-342.75 461.19,-362"/>
<text text-anchor="middle" x="387.19" y="-348.5" font-family="Helvetica,sans-Serif" font-size="10.00">mimic++/utilities/PassKey.hpp</text>
</a>
</g>
</g>
<!-- Node2 -->
<g id="Node000002" class="node">
<title>Node2</title>
<g id="a_Node000002"><a xlink:href="../../d8/de4/_sequence_8hpp.html" target="_top" xlink:title=" ">
<polygon fill="white" stroke="#666666" points="359.57,-306.75 240.82,-306.75 240.82,-287.5 359.57,-287.5 359.57,-306.75"/>
<text text-anchor="middle" x="300.19" y="-293.25" font-family="Helvetica,sans-Serif" font-size="10.00">mimic++/Sequence.hpp</text>
</a>
</g>
</g>
<!-- Node1&#45;&gt;Node2 -->
<g id="edge1_Node000001_Node000002" class="edge">
<title>Node1&#45;&gt;Node2</title>
<g id="a_edge1_Node000001_Node000002"><a xlink:title=" ">
<path fill="none" stroke="#63b8ff" d="M363.01,-336.57C347.61,-327.15 328.17,-315.25 315.02,-307.2"/>
<polygon fill="#63b8ff" stroke="#63b8ff" points="360.79,-339.32 371.14,-341.55 364.44,-333.35 360.79,-339.32"/>
</a>
</g>
</g>
<!-- Node11 -->
<g id="Node000011" class="node">
<title>Node11</title>
<g id="a_Node000011"><a xlink:href="../../dc/d54/_utilities_8hpp.html" target="_top" xlink:title=" ">
<polygon fill="white" stroke="#666666" points="594.32,-185 486.07,-185 486.07,-165.75 594.32,-165.75 594.32,-185"/>
<text text-anchor="middle" x="540.19" y="-171.5" font-family="Helvetica,sans-Serif" font-size="10.00">mimic++/Utilities.hpp</text>
</a>
</g>
</g>
<!-- Node1&#45;&gt;Node11 -->
<g id="edge22_Node000001_Node000011" class="edge">
<title>Node1&#45;&gt;Node11</title>
<g id="a_edge22_Node000001_Node000011"><a xlink:title=" ">
<path fill="none" stroke="#63b8ff" d="M402.55,-333.81C434.66,-297.07 507.96,-213.24 532.23,-185.49"/>
<polygon fill="#63b8ff" stroke="#63b8ff" points="399.93,-331.48 395.98,-341.32 405.2,-336.09 399.93,-331.48"/>
</a>
</g>
</g>
<!-- Node3 -->
<g id="Node000003" class="node">
<title>Node3</title>
<g id="a_Node000003"><a xlink:href="../../d5/d8a/_expectation_8hpp.html" target="_top" xlink:title=" ">
<polygon fill="white" stroke="#666666" points="211.94,-245.88 86.44,-245.88 86.44,-226.62 211.94,-226.62 211.94,-245.88"/>
<text text-anchor="middle" x="149.19" y="-232.38" font-family="Helvetica,sans-Serif" font-size="10.00">mimic++/Expectation.hpp</text>
</a>
</g>
</g>
<!-- Node2&#45;&gt;Node3 -->
<g id="edge2_Node000002_Node000003" class="edge">
<title>Node2&#45;&gt;Node3</title>
<g id="a_edge2_Node000002_Node000003"><a xlink:title=" ">
<path fill="none" stroke="#63b8ff" d="M266.22,-282.88C237.64,-271.74 197.54,-256.1 172.48,-246.33"/>
<polygon fill="#63b8ff" stroke="#63b8ff" points="264.93,-286.13 275.52,-286.5 267.47,-279.61 264.93,-286.13"/>
</a>
</g>
</g>
<!-- Node4 -->
<g id="Node000004" class="node">
<title>Node4</title>
<g id="a_Node000004"><a xlink:href="../../d2/d4f/_expectation_builder_8hpp.html" target="_top" xlink:title=" ">
<polygon fill="white" stroke="#666666" points="332.94,-185 177.44,-185 177.44,-165.75 332.94,-165.75 332.94,-185"/>
<text text-anchor="middle" x="255.19" y="-171.5" font-family="Helvetica,sans-Serif" font-size="10.00">mimic++/ExpectationBuilder.hpp</text>
</a>
</g>
</g>
<!-- Node2&#45;&gt;Node4 -->
<g id="edge16_Node000002_Node000004" class="edge">
<title>Node2&#45;&gt;Node4</title>
<g id="a_edge16_Node000002_Node000004"><a xlink:title=" ">
<path fill="none" stroke="#63b8ff" d="M287.92,-277.75C283.11,-269.92 277.87,-260.52 274.19,-251.5 264.83,-228.58 259.11,-199.8 256.63,-185.42"/>
<polygon fill="#63b8ff" stroke="#63b8ff" points="284.87,-279.48 293.21,-286.01 290.76,-275.7 284.87,-279.48"/>
</a>
</g>
</g>
<!-- Node7 -->
<g id="Node000007" class="node">
<title>Node7</title>
<g id="a_Node000007"><a xlink:href="../../d0/db9/mimic_09_09_8hpp.html" target="_top" xlink:title=" ">
<polygon fill="white" stroke="#666666" points="356.94,-19.25 243.44,-19.25 243.44,0 356.94,0 356.94,-19.25"/>
<text text-anchor="middle" x="300.19" y="-5.75" font-family="Helvetica,sans-Serif" font-size="10.00">mimic++/mimic++.hpp</text>
</a>
</g>
</g>
<!-- Node2&#45;&gt;Node7 -->
<g id="edge18_Node000002_Node000007" class="edge">
<title>Node2&#45;&gt;Node7</title>
<g id="a_edge18_Node000002_Node000007"><a xlink:title=" ">
<path fill="none" stroke="#63b8ff" d="M354.43,-283.8C375.49,-276.96 398.7,-266.66 416.19,-251.5 445.1,-226.45 458.19,-214.63 458.19,-176.38 458.19,-176.38 458.19,-176.38 458.19,-119.12 458.19,-62.22 387.69,-32.93 340.88,-19.75"/>
<polygon fill="#63b8ff" stroke="#63b8ff" points="353.66,-280.37 345.1,-286.63 355.69,-287.07 353.66,-280.37"/>
</a>
</g>
</g>
<!-- Node9 -->
<g id="Node000009" class="node">
<title>Node9</title>
<g id="a_Node000009"><a xlink:href="../../db/d83/_scoped_sequence_8hpp.html" target="_top" xlink:title=" ">
<polygon fill="white" stroke="#666666" points="164.07,-129.75 12.32,-129.75 12.32,-110.5 164.07,-110.5 164.07,-129.75"/>
<text text-anchor="middle" x="88.19" y="-116.25" font-family="Helvetica,sans-Serif" font-size="10.00">mimic++/ScopedSequence.hpp</text>
</a>
</g>
</g>
<!-- Node2&#45;&gt;Node9 -->
<g id="edge17_Node000002_Node000009" class="edge">
<title>Node2&#45;&gt;Node9</title>
<g id="a_edge17_Node000002_Node000009"><a xlink:title=" ">
<path fill="none" stroke="#63b8ff" d="M229.23,-291.52C171.37,-286.1 96.23,-274.72 77.19,-251.5 47.53,-215.31 72.73,-152.94 83.7,-129.96"/>
<polygon fill="#63b8ff" stroke="#63b8ff" points="228.77,-294.99 239.04,-292.39 229.39,-288.02 228.77,-294.99"/>
</a>
</g>
</g>
<!-- Node10 -->
<g id="Node000010" class="node">
<title>Node10</title>
<g id="a_Node000010"><a xlink:href="../../db/d70/_control_policies_8hpp.html" target="_top" xlink:title=" ">
<polygon fill="white" stroke="#666666" points="407.19,-251.5 283.19,-251.5 283.19,-221 407.19,-221 407.19,-251.5"/>
<text text-anchor="start" x="291.19" y="-238" font-family="Helvetica,sans-Serif" font-size="10.00">mimic++/policies/Control</text>
<text text-anchor="middle" x="345.19" y="-226.75" font-family="Helvetica,sans-Serif" font-size="10.00">Policies.hpp</text>
</a>
</g>
</g>
<!-- Node2&#45;&gt;Node10 -->
<g id="edge19_Node000002_Node000010" class="edge">
<title>Node2&#45;&gt;Node10</title>
<g id="a_edge19_Node000002_Node000010"><a xlink:title=" ">
<path fill="none" stroke="#63b8ff" d="M313.93,-278.15C320.39,-269.7 327.99,-259.75 334.08,-251.78"/>
<polygon fill="#63b8ff" stroke="#63b8ff" points="311.24,-275.91 307.94,-285.98 316.8,-280.16 311.24,-275.91"/>
</a>
</g>
</g>
<!-- Node3&#45;&gt;Node4 -->
<g id="edge3_Node000003_Node000004" class="edge">
<title>Node3&#45;&gt;Node4</title>
<g id="a_edge3_Node000003_Node000004"><a xlink:title=" ">
<path fill="none" stroke="#63b8ff" d="M175.26,-220.77C195.17,-209.71 221.99,-194.81 238.94,-185.4"/>
<polygon fill="#63b8ff" stroke="#63b8ff" points="173.66,-217.66 166.61,-225.57 177.05,-223.78 173.66,-217.66"/>
</a>
</g>
</g>
<!-- Node5 -->
<g id="Node000005" class="node">
<title>Node5</title>
<g id="a_Node000005"><a xlink:href="../../d5/dc5/_mock_8hpp.html" target="_top" xlink:title=" ">
<polygon fill="white" stroke="#666666" points="281.82,-129.75 182.57,-129.75 182.57,-110.5 281.82,-110.5 281.82,-129.75"/>
<text text-anchor="middle" x="232.19" y="-116.25" font-family="Helvetica,sans-Serif" font-size="10.00">mimic++/Mock.hpp</text>
</a>
</g>
</g>
<!-- Node3&#45;&gt;Node5 -->
<g id="edge13_Node000003_Node000005" class="edge">
<title>Node3&#45;&gt;Node5</title>
<g id="a_edge13_Node000003_Node000005"><a xlink:title=" ">
<path fill="none" stroke="#63b8ff" d="M151.03,-214.91C153.2,-200.15 157.93,-180.3 168.19,-165.75 179.43,-149.81 198.28,-137.68 212.62,-130.12"/>
<polygon fill="#63b8ff" stroke="#63b8ff" points="147.56,-214.47 149.88,-224.81 154.51,-215.28 147.56,-214.47"/>
</a>
</g>
</g>
<!-- Node3&#45;&gt;Node7 -->
<g id="edge15_Node000003_Node000007" class="edge">
<title>Node3&#45;&gt;Node7</title>
<g id="a_edge15_Node000003_Node000007"><a xlink:title=" ">
<path fill="none" stroke="#63b8ff" d="M114.65,-221.6C79.32,-205.54 26.41,-175.17 3.19,-129.75 -10.93,-102.12 29.05,-57.52 32.19,-55.25 65.06,-31.48 174.74,-19.5 243.18,-14.21"/>
<polygon fill="#63b8ff" stroke="#63b8ff" points="113.05,-224.72 123.62,-225.52 115.85,-218.31 113.05,-224.72"/>
</a>
</g>
</g>
<!-- Node3&#45;&gt;Node9 -->
<g id="edge14_Node000003_Node000009" class="edge">
<title>Node3&#45;&gt;Node9</title>
<g id="a_edge14_Node000003_Node000009"><a xlink:title=" ">
<path fill="none" stroke="#63b8ff" d="M139.03,-216.24C125.69,-191.29 102.82,-148.5 92.96,-130.04"/>
<polygon fill="#63b8ff" stroke="#63b8ff" points="135.89,-217.79 143.69,-224.96 142.06,-214.49 135.89,-217.79"/>
</a>
</g>
</g>
<!-- Node4&#45;&gt;Node5 -->
<g id="edge4_Node000004_Node000005" class="edge">
<title>Node4&#45;&gt;Node5</title>
<g id="a_edge4_Node000004_Node000005"><a xlink:title=" ">
<path fill="none" stroke="#63b8ff" d="M246.95,-155.29C243.24,-146.71 239.04,-136.98 236.07,-130.11"/>
<polygon fill="#63b8ff" stroke="#63b8ff" points="243.61,-156.4 250.79,-164.19 250.04,-153.62 243.61,-156.4"/>
</a>
</g>
</g>
<!-- Node4&#45;&gt;Node7 -->
<g id="edge12_Node000004_Node000007" class="edge">
<title>Node4&#45;&gt;Node7</title>
<g id="a_edge12_Node000004_Node000007"><a xlink:title=" ">
<path fill="none" stroke="#63b8ff" d="M281.26,-159.34C307.56,-142.49 346.57,-112.51 363.19,-74.5 373.67,-50.52 343.27,-30.51 321.12,-19.58"/>
<polygon fill="#63b8ff" stroke="#63b8ff" points="279.5,-156.31 272.83,-164.54 283.18,-162.26 279.5,-156.31"/>
</a>
</g>
</g>
<!-- Node4&#45;&gt;Node9 -->
<g id="edge10_Node000004_Node000009" class="edge">
<title>Node4&#45;&gt;Node9</title>
<g id="a_edge10_Node000004_Node000009"><a xlink:title=" ">
<path fill="none" stroke="#63b8ff" d="M216.19,-161.94C185.71,-152.22 144.06,-138.94 116.66,-130.2"/>
<polygon fill="#63b8ff" stroke="#63b8ff" points="214.83,-165.18 225.42,-164.88 216.96,-158.51 214.83,-165.18"/>
</a>
</g>
</g>
<!-- Node6 -->
<g id="Node000006" class="node">
<title>Node6</title>
<g id="a_Node000006"><a xlink:href="../../d6/dc3/_facade_8hpp.html" target="_top" xlink:title=" ">
<polygon fill="white" stroke="#666666" points="353.94,-74.5 246.44,-74.5 246.44,-55.25 353.94,-55.25 353.94,-74.5"/>
<text text-anchor="middle" x="300.19" y="-61" font-family="Helvetica,sans-Serif" font-size="10.00">mimic++/Facade.hpp</text>
</a>
</g>
</g>
<!-- Node5&#45;&gt;Node6 -->
<g id="edge5_Node000005_Node000006" class="edge">
<title>Node5&#45;&gt;Node6</title>
<g id="a_edge5_Node000005_Node000006"><a xlink:title=" ">
<path fill="none" stroke="#63b8ff" d="M252.54,-103.19C264.41,-93.89 278.95,-82.51 288.83,-74.77"/>
<polygon fill="#63b8ff" stroke="#63b8ff" points="250.63,-100.24 244.92,-109.16 254.95,-105.75 250.63,-100.24"/>
</a>
</g>
</g>
<!-- Node5&#45;&gt;Node7 -->
<g id="edge9_Node000005_Node000007" class="edge">
<title>Node5&#45;&gt;Node7</title>
<g id="a_edge9_Node000005_Node000007"><a xlink:title=" ">
<path fill="none" stroke="#63b8ff" d="M229.54,-98.97C228.77,-85.71 229.7,-68.45 237.19,-55.25 246.52,-38.81 264.68,-26.95 279.12,-19.6"/>
<polygon fill="#63b8ff" stroke="#63b8ff" points="226.03,-99.06 230.49,-108.68 233,-98.38 226.03,-99.06"/>
</a>
</g>
</g>
<!-- Node8 -->
<g id="Node000008" class="node">
<title>Node8</title>
<g id="a_Node000008"><a xlink:href="../../d5/d92/_object_watcher_8hpp.html" target="_top" xlink:title=" ">
<polygon fill="white" stroke="#666666" points="190.07,-74.5 50.32,-74.5 50.32,-55.25 190.07,-55.25 190.07,-74.5"/>
<text text-anchor="middle" x="120.19" y="-61" font-family="Helvetica,sans-Serif" font-size="10.00">mimic++/ObjectWatcher.hpp</text>
</a>
</g>
</g>
<!-- Node5&#45;&gt;Node8 -->
<g id="edge7_Node000005_Node000008" class="edge">
<title>Node5&#45;&gt;Node8</title>
<g id="a_edge7_Node000005_Node000008"><a xlink:title=" ">
<path fill="none" stroke="#63b8ff" d="M203.02,-105.26C182.92,-95.7 156.77,-83.27 139.28,-74.95"/>
<polygon fill="#63b8ff" stroke="#63b8ff" points="201.29,-108.31 211.82,-109.44 204.3,-101.99 201.29,-108.31"/>
</a>
</g>
</g>
<!-- Node6&#45;&gt;Node7 -->
<g id="edge6_Node000006_Node000007" class="edge">
<title>Node6&#45;&gt;Node7</title>
<g id="a_edge6_Node000006_Node000007"><a xlink:title=" ">
<path fill="none" stroke="#63b8ff" d="M300.19,-43.63C300.19,-35.34 300.19,-26.17 300.19,-19.61"/>
<polygon fill="#63b8ff" stroke="#63b8ff" points="296.69,-43.57 300.19,-53.57 303.69,-43.57 296.69,-43.57"/>
</a>
</g>
</g>
<!-- Node8&#45;&gt;Node7 -->
<g id="edge8_Node000008_Node000007" class="edge">
<title>Node8&#45;&gt;Node7</title>
<g id="a_edge8_Node000008_Node000007"><a xlink:title=" ">
<path fill="none" stroke="#63b8ff" d="M161.37,-51.69C194.29,-41.95 239.72,-28.52 269.51,-19.7"/>
<polygon fill="#63b8ff" stroke="#63b8ff" points="160.77,-48.22 152.18,-54.41 162.76,-54.93 160.77,-48.22"/>
</a>
</g>
</g>
<!-- Node9&#45;&gt;Node7 -->
<g id="edge11_Node000009_Node000007" class="edge">
<title>Node9&#45;&gt;Node7</title>
<g id="a_edge11_Node000009_Node000007"><a xlink:title=" ">
<path fill="none" stroke="#63b8ff" d="M64.4,-103.88C46.7,-90.66 27.75,-71.21 41.19,-55.25 66.47,-25.24 174.7,-15.41 243,-12.19"/>
<polygon fill="#63b8ff" stroke="#63b8ff" points="61.93,-106.42 72.12,-109.3 65.95,-100.69 61.93,-106.42"/>
</a>
</g>
</g>
<!-- Node10&#45;&gt;Node4 -->
<g id="edge20_Node000010_Node000004" class="edge">
<title>Node10&#45;&gt;Node4</title>
<g id="a_edge20_Node000010_Node000004"><a xlink:title=" ">
<path fill="none" stroke="#63b8ff" d="M313.37,-214.44C298.21,-204.51 280.85,-193.16 269.07,-185.45"/>
<polygon fill="#63b8ff" stroke="#63b8ff" points="311.39,-217.32 321.68,-219.87 315.22,-211.46 311.39,-217.32"/>
</a>
</g>
</g>
<!-- Node10&#45;&gt;Node7 -->
<g id="edge21_Node000010_Node000007" class="edge">
<title>Node10&#45;&gt;Node7</title>
<g id="a_edge21_Node000010_Node000007"><a xlink:title=" ">
<path fill="none" stroke="#63b8ff" d="M359.42,-210.84C378.56,-174.47 407.06,-105.03 378.19,-55.25 368.02,-37.71 348.06,-26.47 330.88,-19.66"/>
<polygon fill="#63b8ff" stroke="#63b8ff" points="356.54,-208.81 354.81,-219.26 362.68,-212.16 356.54,-208.81"/>
</a>
</g>
</g>
<!-- Node11&#45;&gt;Node7 -->
<g id="edge23_Node000011_Node000007" class="edge">
<title>Node11&#45;&gt;Node7</title>
<g id="a_edge23_Node000011_Node000007"><a xlink:title=" ">
<path fill="none" stroke="#63b8ff" d="M534.31,-154.62C525.34,-127.95 505.65,-80.84 472.19,-55.25 439.23,-30.04 393.43,-19 357.37,-14.2"/>
<polygon fill="#63b8ff" stroke="#63b8ff" points="530.88,-155.36 537.23,-163.84 537.55,-153.25 530.88,-155.36"/>
</a>
</g>
</g>
</g>
</svg>

<g id="navigator" transform="translate(0 0)" fill="#404254">
  <rect fill="#f2f5e9" fill-opacity="0.5" stroke="#606060" stroke-width=".5" x="0" y="0" width="60" height="60"/>
  <use id="zoomplus" xlink:href="#zoomPlus" x="17" y="9" onmousedown="handleZoom(evt,'in')"/>
  <use id="zoomminus" xlink:href="#zoomMin" x="42" y="9" onmousedown="handleZoom(evt,'out')"/>
  <use id="reset" xlink:href="#resetDef" x="30" y="36" onmousedown="handleReset()"/>
   <use id="arrowup" xlink:href="#arrowUp" x="0" y="0" onmousedown="handlePan(0,-1)"/>
  <use id="arrowright" xlink:href="#arrowRight" x="0" y="0" onmousedown="handlePan(1,0)"/>
  <use id="arrowdown" xlink:href="#arrowDown" x="0" y="0" onmousedown="handlePan(0,1)"/>
  <use id="arrowleft" xlink:href="#arrowLeft" x="0" y="0" onmousedown="handlePan(-1,0)"/>
</g>
<svg viewBox="0 0 15 15" width="100%" height="30px" preserveAspectRatio="xMaxYMin meet">
 <g id="arrow_out" transform="scale(0.3 0.3)">
  <a xlink:href="_pass_key_8hpp__dep__incl_org.svg" target="_base">
   <rect id="button" ry="5" rx="5" y="6" x="6" height="38" width="38"
        fill="#f2f5e9" fill-opacity="0.5" stroke="#606060" stroke-width="1.0"/>
   <path id="arrow"
     d="M 11.500037,31.436501 C 11.940474,20.09759 22.043105,11.32322 32.158766,21.979434 L 37.068811,17.246167 C 37.068811,17.246167 37.088388,32 37.088388,32 L 22.160133,31.978069 C 22.160133,31.978069 26.997745,27.140456 26.997745,27.140456 C 18.528582,18.264221 13.291696,25.230495 11.500037,31.436501 z"
     style="fill:#404040;"/>
  </a>
 </g>
</svg>

<style type='text/css'>
<![CDATA[
[data-mouse-over-selected='false'] { opacity: 0.7; }
[data-mouse-over-selected='true']  { opacity: 1.0; }
]]>
</style>
<script type="application/ecmascript"><![CDATA[
document.addEventListener('DOMContentLoaded', (event) => {
  highlightEdges();
  highlightAdjacentNodes();
});
]]></script>
</svg>
