<?xml version="1.0" encoding="UTF-8" standalone="no"?>
<!DOCTYPE svg PUBLIC "-//W3C//DTD SVG 1.1//EN"
 "http://www.w3.org/Graphics/SVG/1.1/DTD/svg11.dtd">
<!-- Generated by graphviz version 12.2.1 (20241206.2353)
 -->
<!-- Title: mimic++/utilities/PassKey.hpp Pages: 1 -->
<svg width="679pt" height="448pt"
 viewBox="0.00 0.00 679.12 447.75" xmlns="http://www.w3.org/2000/svg" xmlns:xlink="http://www.w3.org/1999/xlink">
<g id="graph0" class="graph" transform="scale(1 1) rotate(0) translate(4 443.75)">
<title>mimic++/utilities/PassKey.hpp</title>
<!-- Node1 -->
<g id="Node000001" class="node">
<title>Node1</title>
<g id="a_Node000001"><a xlink:title=" ">
<polygon fill="#999999" stroke="#666666" points="397,-439.75 249,-439.75 249,-420.5 397,-420.5 397,-439.75"/>
<text text-anchor="middle" x="323" y="-426.25" font-family="Helvetica,sans-Serif" font-size="10.00">mimic++/utilities/PassKey.hpp</text>
</a>
</g>
</g>
<!-- Node2 -->
<g id="Node000002" class="node">
<title>Node2</title>
<g id="a_Node000002"><a xlink:href="../../d8/de4/_sequence_8hpp.html" target="_top" xlink:title=" ">
<polygon fill="white" stroke="#666666" points="339.38,-384.5 220.62,-384.5 220.62,-365.25 339.38,-365.25 339.38,-384.5"/>
<text text-anchor="middle" x="280" y="-371" font-family="Helvetica,sans-Serif" font-size="10.00">mimic++/Sequence.hpp</text>
</a>
</g>
</g>
<!-- Node1&#45;&gt;Node2 -->
<g id="edge1_Node000001_Node000002" class="edge">
<title>Node1&#45;&gt;Node2</title>
<g id="a_edge1_Node000001_Node000002"><a xlink:title=" ">
<path fill="none" stroke="#63b8ff" d="M308.75,-411.47C301.55,-402.56 293.12,-392.12 287.25,-384.86"/>
<polygon fill="#63b8ff" stroke="#63b8ff" points="305.94,-413.57 314.95,-419.15 311.39,-409.18 305.94,-413.57"/>
</a>
</g>
</g>
<!-- Node13 -->
<g id="Node000013" class="node">
<title>Node13</title>
<g id="a_Node000013"><a xlink:href="../../dc/d54/_utilities_8hpp.html" target="_top" xlink:title=" ">
<polygon fill="white" stroke="#666666" points="671.12,-323.62 562.88,-323.62 562.88,-304.38 671.12,-304.38 671.12,-323.62"/>
<text text-anchor="middle" x="617" y="-310.12" font-family="Helvetica,sans-Serif" font-size="10.00">mimic++/Utilities.hpp</text>
</a>
</g>
</g>
<!-- Node1&#45;&gt;Node13 -->
<g id="edge26_Node000001_Node000013" class="edge">
<title>Node1&#45;&gt;Node13</title>
<g id="a_edge26_Node000001_Node000013"><a xlink:title=" ">
<path fill="none" stroke="#63b8ff" d="M356.53,-416.11C416.74,-392.74 541.74,-344.22 593.63,-324.07"/>
<polygon fill="#63b8ff" stroke="#63b8ff" points="355.54,-412.74 347.48,-419.62 358.07,-419.27 355.54,-412.74"/>
</a>
</g>
</g>
<!-- Node3 -->
<g id="Node000003" class="node">
<title>Node3</title>
<g id="a_Node000003"><a xlink:href="../../db/d83/_scoped_sequence_8hpp.html" target="_top" xlink:title=" ">
<polygon fill="white" stroke="#666666" points="521.88,-129.75 370.12,-129.75 370.12,-110.5 521.88,-110.5 521.88,-129.75"/>
<text text-anchor="middle" x="446" y="-116.25" font-family="Helvetica,sans-Serif" font-size="10.00">mimic++/ScopedSequence.hpp</text>
</a>
</g>
</g>
<!-- Node2&#45;&gt;Node3 -->
<g id="edge2_Node000002_Node000003" class="edge">
<title>Node2&#45;&gt;Node3</title>
<g id="a_edge2_Node000002_Node000003"><a xlink:title=" ">
<path fill="none" stroke="#63b8ff" d="M317.03,-360.77C360.06,-343.93 430.91,-310.98 476,-262.75 507,-229.59 528.7,-206.15 508,-165.75 499.53,-149.23 481.79,-137.43 467.44,-130.13"/>
<polygon fill="#63b8ff" stroke="#63b8ff" points="315.97,-357.43 307.88,-364.26 318.47,-363.97 315.97,-357.43"/>
</a>
</g>
</g>
<!-- Node4 -->
<g id="Node000004" class="node">
<title>Node4</title>
<g id="a_Node000004"><a xlink:href="../../d0/db9/mimic_09_09_8hpp.html" target="_top" xlink:title=" ">
<polygon fill="white" stroke="#666666" points="448.75,-19.25 335.25,-19.25 335.25,0 448.75,0 448.75,-19.25"/>
<text text-anchor="middle" x="392" y="-5.75" font-family="Helvetica,sans-Serif" font-size="10.00">mimic++/mimic++.hpp</text>
</a>
</g>
</g>
<!-- Node2&#45;&gt;Node4 -->
<g id="edge25_Node000002_Node000004" class="edge">
<title>Node2&#45;&gt;Node4</title>
<g id="a_edge25_Node000002_Node000004"><a xlink:title=" ">
<path fill="none" stroke="#63b8ff" d="M208.87,-371.79C125.92,-365.12 0,-339.94 0,-248.5 0,-248.5 0,-248.5 0,-119.12 0,-72.22 40.75,-73.38 84,-55.25 166.59,-20.62 271.35,-12.13 334.95,-10.44"/>
<polygon fill="#63b8ff" stroke="#63b8ff" points="208.54,-375.27 218.77,-372.5 209.04,-368.29 208.54,-375.27"/>
</a>
</g>
</g>
<!-- Node5 -->
<g id="Node000005" class="node">
<title>Node5</title>
<g id="a_Node000005"><a xlink:href="../../db/d5d/_registry_8hpp.html" target="_top" xlink:title=" ">
<polygon fill="white" stroke="#666666" points="333.38,-329.25 226.62,-329.25 226.62,-298.75 333.38,-298.75 333.38,-329.25"/>
<text text-anchor="start" x="234.62" y="-315.75" font-family="Helvetica,sans-Serif" font-size="10.00">mimic++/expectation</text>
<text text-anchor="middle" x="280" y="-304.5" font-family="Helvetica,sans-Serif" font-size="10.00">/Registry.hpp</text>
</a>
</g>
</g>
<!-- Node2&#45;&gt;Node5 -->
<g id="edge4_Node000002_Node000005" class="edge">
<title>Node2&#45;&gt;Node5</title>
<g id="a_edge4_Node000002_Node000005"><a xlink:title=" ">
<path fill="none" stroke="#63b8ff" d="M280,-353.67C280,-345.74 280,-336.81 280,-329.53"/>
<polygon fill="#63b8ff" stroke="#63b8ff" points="276.5,-353.42 280,-363.42 283.5,-353.42 276.5,-353.42"/>
</a>
</g>
</g>
<!-- Node12 -->
<g id="Node000012" class="node">
<title>Node12</title>
<g id="a_Node000012"><a xlink:href="../../db/d70/_control_policies_8hpp.html" target="_top" xlink:title=" ">
<polygon fill="white" stroke="#666666" points="166.12,-262.75 27.88,-262.75 27.88,-232.25 166.12,-232.25 166.12,-262.75"/>
<text text-anchor="start" x="35.88" y="-249.25" font-family="Helvetica,sans-Serif" font-size="10.00">mimic++/expectation</text>
<text text-anchor="middle" x="97" y="-238" font-family="Helvetica,sans-Serif" font-size="10.00">/policies/ControlPolicies.hpp</text>
</a>
</g>
</g>
<!-- Node2&#45;&gt;Node12 -->
<g id="edge22_Node000002_Node000012" class="edge">
<title>Node2&#45;&gt;Node12</title>
<g id="a_edge22_Node000002_Node000012"><a xlink:title=" ">
<path fill="none" stroke="#63b8ff" d="M257.76,-358.64C222.23,-334.3 153.12,-286.95 118.23,-263.05"/>
<polygon fill="#63b8ff" stroke="#63b8ff" points="255.36,-361.24 265.59,-364 259.32,-355.46 255.36,-361.24"/>
</a>
</g>
</g>
<!-- Node3&#45;&gt;Node4 -->
<g id="edge3_Node000003_Node000004" class="edge">
<title>Node3&#45;&gt;Node4</title>
<g id="a_edge3_Node000003_Node000004"><a xlink:title=" ">
<path fill="none" stroke="#63b8ff" d="M468.03,-103.22C483.06,-90.35 498.5,-71.71 488,-55.25 476.34,-36.97 455.03,-26.06 435.45,-19.61"/>
<polygon fill="#63b8ff" stroke="#63b8ff" points="466.25,-100.17 460.61,-109.14 470.61,-105.64 466.25,-100.17"/>
</a>
</g>
</g>
<!-- Node5&#45;&gt;Node4 -->
<g id="edge21_Node000005_Node000004" class="edge">
<title>Node5&#45;&gt;Node4</title>
<g id="a_edge21_Node000005_Node000004"><a xlink:title=" ">
<path fill="none" stroke="#63b8ff" d="M251.01,-291.59C191.64,-245.22 67.16,-133.41 133,-55.25 158.28,-25.24 266.51,-15.41 334.81,-12.19"/>
<polygon fill="#63b8ff" stroke="#63b8ff" points="248.68,-294.21 258.74,-297.53 252.95,-288.66 248.68,-294.21"/>
</a>
</g>
</g>
<!-- Node6 -->
<g id="Node000006" class="node">
<title>Node6</title>
<g id="a_Node000006"><a xlink:href="../../d5/dc5/_mock_8hpp.html" target="_top" xlink:title=" ">
<polygon fill="white" stroke="#666666" points="313.62,-129.75 214.38,-129.75 214.38,-110.5 313.62,-110.5 313.62,-129.75"/>
<text text-anchor="middle" x="264" y="-116.25" font-family="Helvetica,sans-Serif" font-size="10.00">mimic++/Mock.hpp</text>
</a>
</g>
</g>
<!-- Node5&#45;&gt;Node6 -->
<g id="edge5_Node000005_Node000006" class="edge">
<title>Node5&#45;&gt;Node6</title>
<g id="a_edge5_Node000005_Node000006"><a xlink:title=" ">
<path fill="none" stroke="#63b8ff" d="M274.01,-287.27C268.86,-263.73 261.82,-227.87 259,-196.25 257.8,-182.75 258.24,-179.28 259,-165.75 259.7,-153.3 261.47,-138.98 262.71,-129.99"/>
<polygon fill="#63b8ff" stroke="#63b8ff" points="270.57,-287.9 276.17,-296.89 277.4,-286.37 270.57,-287.9"/>
</a>
</g>
</g>
<!-- Node9 -->
<g id="Node000009" class="node">
<title>Node9</title>
<g id="a_Node000009"><a xlink:href="../../d6/d15/_builder_8hpp.html" target="_top" xlink:title=" ">
<polygon fill="white" stroke="#666666" points="374.38,-196.25 267.62,-196.25 267.62,-165.75 374.38,-165.75 374.38,-196.25"/>
<text text-anchor="start" x="275.62" y="-182.75" font-family="Helvetica,sans-Serif" font-size="10.00">mimic++/expectation</text>
<text text-anchor="middle" x="321" y="-171.5" font-family="Helvetica,sans-Serif" font-size="10.00">/Builder.hpp</text>
</a>
</g>
</g>
<!-- Node5&#45;&gt;Node9 -->
<g id="edge11_Node000005_Node000009" class="edge">
<title>Node5&#45;&gt;Node9</title>
<g id="a_edge11_Node000005_Node000009"><a xlink:title=" ">
<path fill="none" stroke="#63b8ff" d="M287.97,-287.54C296.44,-260.46 309.56,-218.56 316.44,-196.58"/>
<polygon fill="#63b8ff" stroke="#63b8ff" points="284.64,-286.45 285,-297.04 291.32,-288.54 284.64,-286.45"/>
</a>
</g>
</g>
<!-- Node10 -->
<g id="Node000010" class="node">
<title>Node10</title>
<g id="a_Node000010"><a xlink:href="../../d4/d1e/_owner_8hpp.html" target="_top" xlink:title=" ">
<polygon fill="white" stroke="#666666" points="467.38,-262.75 360.62,-262.75 360.62,-232.25 467.38,-232.25 467.38,-262.75"/>
<text text-anchor="start" x="368.62" y="-249.25" font-family="Helvetica,sans-Serif" font-size="10.00">mimic++/expectation</text>
<text text-anchor="middle" x="414" y="-238" font-family="Helvetica,sans-Serif" font-size="10.00">/Owner.hpp</text>
</a>
</g>
</g>
<!-- Node5&#45;&gt;Node10 -->
<g id="edge15_Node000005_Node000010" class="edge">
<title>Node5&#45;&gt;Node10</title>
<g id="a_edge15_Node000005_Node000010"><a xlink:title=" ">
<path fill="none" stroke="#63b8ff" d="M320.62,-293.45C340.92,-283.68 365.06,-272.06 383.71,-263.08"/>
<polygon fill="#63b8ff" stroke="#63b8ff" points="319.26,-290.22 311.77,-297.71 322.3,-296.52 319.26,-290.22"/>
</a>
</g>
</g>
<!-- Node6&#45;&gt;Node4 -->
<g id="edge10_Node000006_Node000004" class="edge">
<title>Node6&#45;&gt;Node4</title>
<g id="a_edge10_Node000006_Node000004"><a xlink:title=" ">
<path fill="none" stroke="#63b8ff" d="M279.81,-102.16C292.57,-88.82 311.25,-70.09 329,-55.25 345.04,-41.84 364.93,-28.2 378.01,-19.59"/>
<polygon fill="#63b8ff" stroke="#63b8ff" points="277.37,-99.64 273.05,-109.31 282.46,-104.45 277.37,-99.64"/>
</a>
</g>
</g>
<!-- Node7 -->
<g id="Node000007" class="node">
<title>Node7</title>
<g id="a_Node000007"><a xlink:href="../../d6/dc3/_facade_8hpp.html" target="_top" xlink:title=" ">
<polygon fill="white" stroke="#666666" points="445.75,-74.5 338.25,-74.5 338.25,-55.25 445.75,-55.25 445.75,-74.5"/>
<text text-anchor="middle" x="392" y="-61" font-family="Helvetica,sans-Serif" font-size="10.00">mimic++/Facade.hpp</text>
</a>
</g>
</g>
<!-- Node6&#45;&gt;Node7 -->
<g id="edge6_Node000006_Node000007" class="edge">
<title>Node6&#45;&gt;Node7</title>
<g id="a_edge6_Node000006_Node000007"><a xlink:title=" ">
<path fill="none" stroke="#63b8ff" d="M296.07,-105.78C319.21,-96.16 349.82,-83.42 370.18,-74.95"/>
<polygon fill="#63b8ff" stroke="#63b8ff" points="295,-102.44 287.11,-109.51 297.69,-108.9 295,-102.44"/>
</a>
</g>
</g>
<!-- Node8 -->
<g id="Node000008" class="node">
<title>Node8</title>
<g id="a_Node000008"><a xlink:href="../../d5/d92/_object_watcher_8hpp.html" target="_top" xlink:title=" ">
<polygon fill="white" stroke="#666666" points="281.88,-74.5 142.12,-74.5 142.12,-55.25 281.88,-55.25 281.88,-74.5"/>
<text text-anchor="middle" x="212" y="-61" font-family="Helvetica,sans-Serif" font-size="10.00">mimic++/ObjectWatcher.hpp</text>
</a>
</g>
</g>
<!-- Node6&#45;&gt;Node8 -->
<g id="edge8_Node000006_Node000008" class="edge">
<title>Node6&#45;&gt;Node8</title>
<g id="a_edge8_Node000006_Node000008"><a xlink:title=" ">
<path fill="none" stroke="#63b8ff" d="M247.59,-102.32C238.71,-93.23 228.09,-82.35 220.77,-74.86"/>
<polygon fill="#63b8ff" stroke="#63b8ff" points="244.87,-104.54 254.36,-109.25 249.87,-99.65 244.87,-104.54"/>
</a>
</g>
</g>
<!-- Node7&#45;&gt;Node4 -->
<g id="edge7_Node000007_Node000004" class="edge">
<title>Node7&#45;&gt;Node4</title>
<g id="a_edge7_Node000007_Node000004"><a xlink:title=" ">
<path fill="none" stroke="#63b8ff" d="M392,-43.63C392,-35.34 392,-26.17 392,-19.61"/>
<polygon fill="#63b8ff" stroke="#63b8ff" points="388.5,-43.57 392,-53.57 395.5,-43.57 388.5,-43.57"/>
</a>
</g>
</g>
<!-- Node8&#45;&gt;Node4 -->
<g id="edge9_Node000008_Node000004" class="edge">
<title>Node8&#45;&gt;Node4</title>
<g id="a_edge9_Node000008_Node000004"><a xlink:title=" ">
<path fill="none" stroke="#63b8ff" d="M253.18,-51.69C286.1,-41.95 331.53,-28.52 361.32,-19.7"/>
<polygon fill="#63b8ff" stroke="#63b8ff" points="252.58,-48.22 243.99,-54.41 254.57,-54.93 252.58,-48.22"/>
</a>
</g>
</g>
<!-- Node9&#45;&gt;Node3 -->
<g id="edge13_Node000009_Node000003" class="edge">
<title>Node9&#45;&gt;Node3</title>
<g id="a_edge13_Node000009_Node000003"><a xlink:title=" ">
<path fill="none" stroke="#63b8ff" d="M362.52,-160.44C384.23,-150.22 409.77,-138.19 426.83,-130.15"/>
<polygon fill="#63b8ff" stroke="#63b8ff" points="361.14,-157.22 353.59,-164.65 364.13,-163.56 361.14,-157.22"/>
</a>
</g>
</g>
<!-- Node9&#45;&gt;Node4 -->
<g id="edge14_Node000009_Node000004" class="edge">
<title>Node9&#45;&gt;Node4</title>
<g id="a_edge14_Node000009_Node000004"><a xlink:title=" ">
<path fill="none" stroke="#63b8ff" d="M330.43,-154.84C337.03,-140.18 347.17,-122.32 361,-110.5 395.01,-81.44 429.65,-111.36 455,-74.5 470.18,-52.43 436.52,-31.18 412.8,-19.61"/>
<polygon fill="#63b8ff" stroke="#63b8ff" points="327.28,-153.3 326.64,-163.87 333.74,-156 327.28,-153.3"/>
</a>
</g>
</g>
<!-- Node9&#45;&gt;Node6 -->
<g id="edge12_Node000009_Node000006" class="edge">
<title>Node9&#45;&gt;Node6</title>
<g id="a_edge12_Node000009_Node000006"><a xlink:title=" ">
<path fill="none" stroke="#63b8ff" d="M298.91,-157.18C289.79,-147.77 279.75,-137.39 272.79,-130.2"/>
<polygon fill="#63b8ff" stroke="#63b8ff" points="296.39,-159.61 305.86,-164.36 301.42,-154.74 296.39,-159.61"/>
</a>
</g>
</g>
<!-- Node10&#45;&gt;Node4 -->
<g id="edge20_Node000010_Node000004" class="edge">
<title>Node10&#45;&gt;Node4</title>
<g id="a_edge20_Node000010_Node000004"><a xlink:title=" ">
<path fill="none" stroke="#63b8ff" d="M462.55,-227.06C478.31,-219.14 495.05,-208.84 508,-196.25 537.89,-167.19 553.2,-151.56 546,-110.5 541.49,-84.78 544.7,-73.48 526,-55.25 505.37,-35.14 475.44,-24.09 449.11,-18.02"/>
<polygon fill="#63b8ff" stroke="#63b8ff" points="461.26,-223.79 453.75,-231.26 464.28,-230.11 461.26,-223.79"/>
</a>
</g>
</g>
<!-- Node10&#45;&gt;Node9 -->
<g id="edge16_Node000010_Node000009" class="edge">
<title>Node10&#45;&gt;Node9</title>
<g id="a_edge16_Node000010_Node000009"><a xlink:title=" ">
<path fill="none" stroke="#63b8ff" d="M383.46,-225.32C369.89,-215.91 354.25,-205.06 342.02,-196.58"/>
<polygon fill="#63b8ff" stroke="#63b8ff" points="381.44,-228.18 391.65,-231 385.43,-222.43 381.44,-228.18"/>
</a>
</g>
</g>
<!-- Node11 -->
<g id="Node000011" class="node">
<title>Node11</title>
<g id="a_Node000011"><a xlink:href="../../db/dd0/_collector_8hpp.html" target="_top" xlink:title=" ">
<polygon fill="white" stroke="#666666" points="499.38,-196.25 392.62,-196.25 392.62,-165.75 499.38,-165.75 499.38,-196.25"/>
<text text-anchor="start" x="400.62" y="-182.75" font-family="Helvetica,sans-Serif" font-size="10.00">mimic++/expectation</text>
<text text-anchor="middle" x="446" y="-171.5" font-family="Helvetica,sans-Serif" font-size="10.00">/Collector.hpp</text>
</a>
</g>
</g>
<!-- Node10&#45;&gt;Node11 -->
<g id="edge17_Node000010_Node000011" class="edge">
<title>Node10&#45;&gt;Node11</title>
<g id="a_edge17_Node000010_Node000011"><a xlink:title=" ">
<path fill="none" stroke="#63b8ff" d="M426.31,-221.69C430.52,-213.21 435.09,-203.99 438.77,-196.58"/>
<polygon fill="#63b8ff" stroke="#63b8ff" points="423.24,-219.99 421.93,-230.51 429.51,-223.11 423.24,-219.99"/>
</a>
</g>
</g>
<!-- Node11&#45;&gt;Node3 -->
<g id="edge18_Node000011_Node000003" class="edge">
<title>Node11&#45;&gt;Node3</title>
<g id="a_edge18_Node000011_Node000003"><a xlink:title=" ">
<path fill="none" stroke="#63b8ff" d="M446,-153.98C446,-145.48 446,-136.59 446,-130.2"/>
<polygon fill="#63b8ff" stroke="#63b8ff" points="442.5,-153.93 446,-163.93 449.5,-153.93 442.5,-153.93"/>
</a>
</g>
</g>
<!-- Node11&#45;&gt;Node4 -->
<g id="edge19_Node000011_Node000004" class="edge">
<title>Node11&#45;&gt;Node4</title>
<g id="a_edge19_Node000011_Node000004"><a xlink:title=" ">
<path fill="none" stroke="#63b8ff" d="M498.62,-160.12C511.46,-152.63 523.62,-142.68 531,-129.75 535.24,-122.32 532.93,-118.84 531,-110.5 524.84,-83.87 524.04,-73.83 504,-55.25 484.82,-37.46 457.66,-26.4 434.9,-19.75"/>
<polygon fill="#63b8ff" stroke="#63b8ff" points="497.26,-156.88 490.07,-164.67 500.54,-163.06 497.26,-156.88"/>
</a>
</g>
</g>
<!-- Node12&#45;&gt;Node4 -->
<g id="edge24_Node000012_Node000004" class="edge">
<title>Node12&#45;&gt;Node4</title>
<g id="a_edge24_Node000012_Node000004"><a xlink:title=" ">
<path fill="none" stroke="#63b8ff" d="M88.2,-221.05C75.99,-180.6 59.66,-101.48 100,-55.25 129.92,-20.96 258.73,-12.76 334.91,-10.97"/>
<polygon fill="#63b8ff" stroke="#63b8ff" points="84.8,-221.93 91.17,-230.39 91.47,-219.8 84.8,-221.93"/>
</a>
</g>
</g>
<!-- Node12&#45;&gt;Node9 -->
<g id="edge23_Node000012_Node000009" class="edge">
<title>Node12&#45;&gt;Node9</title>
<g id="a_edge23_Node000012_Node000009"><a xlink:title=" ">
<path fill="none" stroke="#63b8ff" d="M159.15,-228.6C194.1,-218.54 237.18,-206.14 270.11,-196.65"/>
<polygon fill="#63b8ff" stroke="#63b8ff" points="158.2,-225.23 149.56,-231.36 160.14,-231.96 158.2,-225.23"/>
</a>
</g>
</g>
<!-- Node13&#45;&gt;Node4 -->
<g id="edge27_Node000013_Node000004" class="edge">
<title>Node13&#45;&gt;Node4</title>
<g id="a_edge27_Node000013_Node000004"><a xlink:title=" ">
<path fill="none" stroke="#63b8ff" d="M619.23,-292.97C621.9,-267.29 626,-221.39 626,-182 626,-182 626,-182 626,-119.12 626,-41.43 518.52,-19.21 449.24,-12.96"/>
<polygon fill="#63b8ff" stroke="#63b8ff" points="615.79,-292.3 618.19,-302.61 622.75,-293.05 615.79,-292.3"/>
</a>
</g>
</g>
</g>
</svg>
