<?xml version="1.0" encoding="UTF-8" standalone="no"?>
<!DOCTYPE svg PUBLIC "-//W3C//DTD SVG 1.1//EN"
 "http://www.w3.org/Graphics/SVG/1.1/DTD/svg11.dtd">
<!-- Generated by graphviz version 12.2.1 (20241206.2353)
 -->
<!-- Title: mimic++ Pages: 1 -->
<svg width="166pt" height="225pt"
 viewBox="0.00 0.00 166.00 225.00" xmlns="http://www.w3.org/2000/svg" xmlns:xlink="http://www.w3.org/1999/xlink">
<g id="graph0" class="graph" transform="scale(1 1) rotate(0) translate(4 221)">
<title>mimic++</title>
<g id="clust1" class="cluster">
<title>clusterdir_d1aac795712c1a80b032d3d2760385d8</title>
<g id="a_clust1"><a xlink:href="dir_d1aac795712c1a80b032d3d2760385d8.html" target="_top">
<polygon fill="#edf0f7" stroke="#404040" stroke-width="2" points="8,-8 8,-209 150,-209 150,-8 8,-8"/>
</a>
</g>
</g>
<!-- dir_d1aac795712c1a80b032d3d2760385d8 -->
<g id="node1" class="node">
<title>dir_d1aac795712c1a80b032d3d2760385d8</title>
<text text-anchor="middle" x="43" y="-187.5" font-family="Helvetica,sans-Serif" font-size="10.00">mimic++</text>
</g>
<!-- dir_c8613b7c6812845d24ae03bf6f0c949e -->
<g id="node3" class="node">
<title>dir_c8613b7c6812845d24ae03bf6f0c949e</title>
<g id="a_node3"><a xlink:href="dir_c8613b7c6812845d24ae03bf6f0c949e.html" target="_top" xlink:title="matchers">
<polygon fill="#a2b4d6" stroke="#404040" points="72.25,-90.5 15.75,-90.5 15.75,-71.25 72.25,-71.25 72.25,-90.5"/>
<text text-anchor="middle" x="44" y="-77" font-family="Helvetica,sans-Serif" font-size="10.00">matchers</text>
</a>
</g>
</g>
<!-- dir_d1aac795712c1a80b032d3d2760385d8&#45;&gt;dir_c8613b7c6812845d24ae03bf6f0c949e -->
<g id="edge3" class="edge">
<title>dir_d1aac795712c1a80b032d3d2760385d8&#45;&gt;dir_c8613b7c6812845d24ae03bf6f0c949e</title>
<g id="a_edge3"><a xlink:href="dir_000003_000002.html" target="_top">
<path fill="none" stroke="#63b8ff" d="M40.51,-182.13C37.13,-169.98 31.78,-146.54 34,-126.5 34.91,-118.31 36.72,-109.43 38.56,-101.76"/>
<polygon fill="#63b8ff" stroke="#63b8ff" points="41.93,-102.69 41.05,-92.13 35.16,-100.94 41.93,-102.69"/>
</a>
</g>
<g id="a_edge3&#45;headlabel"><a xlink:href="dir_000003_000002.html" target="_top" xlink:title="9">
<text text-anchor="middle" x="44.16" y="-101.54" font-family="Helvetica,sans-Serif" font-size="10.00" fill="#63b8ff">9</text>
</a>
</g>
</g>
<!-- dir_6ddbcebc0798903b88ee4423bc0f1618 -->
<g id="node4" class="node">
<title>dir_6ddbcebc0798903b88ee4423bc0f1618</title>
<g id="a_node4"><a xlink:href="dir_6ddbcebc0798903b88ee4423bc0f1618.html" target="_top" xlink:title="policies">
<polygon fill="#a2b4d6" stroke="#404040" points="91.5,-145.75 42.5,-145.75 42.5,-126.5 91.5,-126.5 91.5,-145.75"/>
<text text-anchor="middle" x="67" y="-132.25" font-family="Helvetica,sans-Serif" font-size="10.00">policies</text>
</a>
</g>
</g>
<!-- dir_d1aac795712c1a80b032d3d2760385d8&#45;&gt;dir_6ddbcebc0798903b88ee4423bc0f1618 -->
<g id="edge2" class="edge">
<title>dir_d1aac795712c1a80b032d3d2760385d8&#45;&gt;dir_6ddbcebc0798903b88ee4423bc0f1618</title>
<g id="a_edge2"><a xlink:href="dir_000003_000004.html" target="_top">
<path fill="none" stroke="#63b8ff" d="M46.75,-182.05C49.86,-175.14 54.42,-165.04 58.42,-156.17"/>
<polygon fill="#63b8ff" stroke="#63b8ff" points="61.5,-157.85 62.41,-147.3 55.12,-154.98 61.5,-157.85"/>
</a>
</g>
<g id="a_edge2&#45;headlabel"><a xlink:href="dir_000003_000004.html" target="_top" xlink:title="10">
<text text-anchor="middle" x="63.23" y="-157.04" font-family="Helvetica,sans-Serif" font-size="10.00" fill="#63b8ff">10</text>
</a>
</g>
</g>
<!-- dir_092aa99ea44c2ea5c05e2b02d3022b6c -->
<g id="node5" class="node">
<title>dir_092aa99ea44c2ea5c05e2b02d3022b6c</title>
<g id="a_node5"><a xlink:href="dir_092aa99ea44c2ea5c05e2b02d3022b6c.html" target="_top" xlink:title="printing">
<polygon fill="#a2b4d6" stroke="#404040" points="114.75,-35.25 67.25,-35.25 67.25,-16 114.75,-16 114.75,-35.25"/>
<text text-anchor="middle" x="91" y="-21.75" font-family="Helvetica,sans-Serif" font-size="10.00">printing</text>
</a>
</g>
</g>
<!-- dir_d1aac795712c1a80b032d3d2760385d8&#45;&gt;dir_092aa99ea44c2ea5c05e2b02d3022b6c -->
<g id="edge1" class="edge">
<title>dir_d1aac795712c1a80b032d3d2760385d8&#45;&gt;dir_092aa99ea44c2ea5c05e2b02d3022b6c</title>
<g id="a_edge1"><a xlink:href="dir_000003_000005.html" target="_top">
<path fill="none" stroke="#63b8ff" d="M61.67,-181.8C75.34,-174.4 92.86,-162.28 101,-145.75 116.76,-113.73 106.84,-70.98 98.62,-46.36"/>
<polygon fill="#63b8ff" stroke="#63b8ff" points="101.93,-45.22 95.25,-37 95.35,-47.59 101.93,-45.22"/>
</a>
</g>
<g id="a_edge1&#45;headlabel"><a xlink:href="dir_000003_000005.html" target="_top" xlink:title="17">
<text text-anchor="middle" x="105.31" y="-42.34" font-family="Helvetica,sans-Serif" font-size="10.00" fill="#63b8ff">17</text>
</a>
</g>
</g>
<!-- dir_fea71f381ece93f367616978be34972a -->
<g id="node2" class="node">
<title>dir_fea71f381ece93f367616978be34972a</title>
<g id="a_node2"><a xlink:href="dir_fea71f381ece93f367616978be34972a.html" target="_top" xlink:title="adapters">
<polygon fill="#a2b4d6" stroke="#404040" points="141.75,-201 88.25,-201 88.25,-181.75 141.75,-181.75 141.75,-201"/>
<text text-anchor="middle" x="115" y="-187.5" font-family="Helvetica,sans-Serif" font-size="10.00">adapters</text>
</a>
</g>
</g>
<!-- dir_c8613b7c6812845d24ae03bf6f0c949e&#45;&gt;dir_092aa99ea44c2ea5c05e2b02d3022b6c -->
<g id="edge4" class="edge">
<title>dir_c8613b7c6812845d24ae03bf6f0c949e&#45;&gt;dir_092aa99ea44c2ea5c05e2b02d3022b6c</title>
<g id="a_edge4"><a xlink:href="dir_000002_000005.html" target="_top">
<path fill="none" stroke="#63b8ff" d="M51.76,-71.08C58.19,-63.8 67.51,-53.23 75.46,-44.23"/>
<polygon fill="#63b8ff" stroke="#63b8ff" points="78.08,-46.56 82.07,-36.74 72.83,-41.93 78.08,-46.56"/>
</a>
</g>
<g id="a_edge4&#45;headlabel"><a xlink:href="dir_000002_000005.html" target="_top" xlink:title="1">
<text text-anchor="middle" x="78.83" y="-46.12" font-family="Helvetica,sans-Serif" font-size="10.00" fill="#63b8ff">1</text>
</a>
</g>
</g>
<!-- dir_6ddbcebc0798903b88ee4423bc0f1618&#45;&gt;dir_c8613b7c6812845d24ae03bf6f0c949e -->
<g id="edge6" class="edge">
<title>dir_6ddbcebc0798903b88ee4423bc0f1618&#45;&gt;dir_c8613b7c6812845d24ae03bf6f0c949e</title>
<g id="a_edge6"><a xlink:href="dir_000004_000002.html" target="_top">
<path fill="none" stroke="#63b8ff" d="M63.2,-126.33C60.26,-119.51 56.06,-109.81 52.35,-101.2"/>
<polygon fill="#63b8ff" stroke="#63b8ff" points="55.66,-100.04 48.48,-92.25 49.23,-102.82 55.66,-100.04"/>
</a>
</g>
<g id="a_edge6&#45;headlabel"><a xlink:href="dir_000004_000002.html" target="_top" xlink:title="1">
<text text-anchor="middle" x="59.09" y="-96.95" font-family="Helvetica,sans-Serif" font-size="10.00" fill="#63b8ff">1</text>
</a>
</g>
</g>
<!-- dir_6ddbcebc0798903b88ee4423bc0f1618&#45;&gt;dir_092aa99ea44c2ea5c05e2b02d3022b6c -->
<g id="edge5" class="edge">
<title>dir_6ddbcebc0798903b88ee4423bc0f1618&#45;&gt;dir_092aa99ea44c2ea5c05e2b02d3022b6c</title>
<g id="a_edge5"><a xlink:href="dir_000004_000005.html" target="_top">
<path fill="none" stroke="#63b8ff" d="M70.3,-126.01C73.43,-117.06 78.08,-102.99 81,-90.5 84.41,-75.91 86.98,-59.17 88.67,-46.48"/>
<polygon fill="#63b8ff" stroke="#63b8ff" points="92.1,-47.24 89.86,-36.88 85.15,-46.38 92.1,-47.24"/>
</a>
</g>
<g id="a_edge5&#45;headlabel"><a xlink:href="dir_000004_000005.html" target="_top" xlink:title="1">
<text text-anchor="middle" x="94.66" y="-45.78" font-family="Helvetica,sans-Serif" font-size="10.00" fill="#63b8ff">1</text>
</a>
</g>
</g>
</g>
</svg>
