<?xml version="1.0" encoding="UTF-8" standalone="no"?>
<!DOCTYPE svg PUBLIC "-//W3C//DTD SVG 1.1//EN"
 "http://www.w3.org/Graphics/SVG/1.1/DTD/svg11.dtd">
<!-- Generated by graphviz version 12.2.1 (20241206.2353)
 -->
<!-- Title: mimic++ Pages: 1 -->
<svg width="288pt" height="336pt"
 viewBox="0.00 0.00 288.00 335.50" xmlns="http://www.w3.org/2000/svg" xmlns:xlink="http://www.w3.org/1999/xlink">
<g id="graph0" class="graph" transform="scale(1 1) rotate(0) translate(4 331.5)">
<title>mimic++</title>
<g id="clust1" class="cluster">
<title>clusterdir_d1aac795712c1a80b032d3d2760385d8</title>
<g id="a_clust1"><a xlink:href="dir_d1aac795712c1a80b032d3d2760385d8.html" target="_top">
<polygon fill="#edf0f7" stroke="#404040" stroke-width="2" points="8,-8 8,-319.5 272,-319.5 272,-8 8,-8"/>
</a>
</g>
</g>
<!-- dir_d1aac795712c1a80b032d3d2760385d8 -->
<g id="node1" class="node">
<title>dir_d1aac795712c1a80b032d3d2760385d8</title>
<text text-anchor="middle" x="114" y="-298" font-family="Helvetica,sans-Serif" font-size="10.00">mimic++</text>
</g>
<!-- dir_08ebf9492445e058b0ba4156a3978cfb -->
<g id="node3" class="node">
<title>dir_08ebf9492445e058b0ba4156a3978cfb</title>
<g id="a_node3"><a xlink:href="dir_08ebf9492445e058b0ba4156a3978cfb.html" target="_top" xlink:title="config">
<polygon fill="#a2b4d6" stroke="#404040" points="122.75,-35.25 81.25,-35.25 81.25,-16 122.75,-16 122.75,-35.25"/>
<text text-anchor="middle" x="102" y="-21.75" font-family="Helvetica,sans-Serif" font-size="10.00">config</text>
</a>
</g>
</g>
<!-- dir_d1aac795712c1a80b032d3d2760385d8&#45;&gt;dir_08ebf9492445e058b0ba4156a3978cfb -->
<g id="edge1" class="edge">
<title>dir_d1aac795712c1a80b032d3d2760385d8&#45;&gt;dir_08ebf9492445e058b0ba4156a3978cfb</title>
<g id="a_edge1"><a xlink:href="dir_000004_000001.html" target="_top">
<path fill="none" stroke="#63b8ff" d="M97.55,-292.28C69.87,-276.51 17,-240.13 17,-192.38 17,-192.38 17,-192.38 17,-135.12 17,-95.2 53.11,-61.23 78.26,-42.41"/>
<polygon fill="#63b8ff" stroke="#63b8ff" points="80.25,-45.28 86.35,-36.62 76.18,-39.59 80.25,-45.28"/>
</a>
</g>
<g id="a_edge1&#45;headlabel"><a xlink:href="dir_000004_000001.html" target="_top" xlink:title="25">
<text text-anchor="middle" x="80.21" y="-44.93" font-family="Helvetica,sans-Serif" font-size="10.00" fill="#63b8ff">25</text>
</a>
</g>
</g>
<!-- dir_c8613b7c6812845d24ae03bf6f0c949e -->
<g id="node4" class="node">
<title>dir_c8613b7c6812845d24ae03bf6f0c949e</title>
<g id="a_node4"><a xlink:href="dir_c8613b7c6812845d24ae03bf6f0c949e.html" target="_top" xlink:title="matchers">
<polygon fill="#a2b4d6" stroke="#404040" points="172.25,-201 115.75,-201 115.75,-181.75 172.25,-181.75 172.25,-201"/>
<text text-anchor="middle" x="144" y="-187.5" font-family="Helvetica,sans-Serif" font-size="10.00">matchers</text>
</a>
</g>
</g>
<!-- dir_d1aac795712c1a80b032d3d2760385d8&#45;&gt;dir_c8613b7c6812845d24ae03bf6f0c949e -->
<g id="edge6" class="edge">
<title>dir_d1aac795712c1a80b032d3d2760385d8&#45;&gt;dir_c8613b7c6812845d24ae03bf6f0c949e</title>
<g id="a_edge6"><a xlink:href="dir_000004_000003.html" target="_top">
<path fill="none" stroke="#63b8ff" d="M117.96,-292.5C122,-283.66 128.2,-269.24 132,-256.25 136.23,-241.79 139.31,-225.04 141.29,-212.32"/>
<polygon fill="#63b8ff" stroke="#63b8ff" points="144.72,-213.08 142.69,-202.68 137.79,-212.07 144.72,-213.08"/>
</a>
</g>
<g id="a_edge6&#45;headlabel"><a xlink:href="dir_000004_000003.html" target="_top" xlink:title="9">
<text text-anchor="middle" x="147.23" y="-211.67" font-family="Helvetica,sans-Serif" font-size="10.00" fill="#63b8ff">9</text>
</a>
</g>
</g>
<!-- dir_6ddbcebc0798903b88ee4423bc0f1618 -->
<g id="node5" class="node">
<title>dir_6ddbcebc0798903b88ee4423bc0f1618</title>
<g id="a_node5"><a xlink:href="dir_6ddbcebc0798903b88ee4423bc0f1618.html" target="_top" xlink:title="policies">
<polygon fill="#a2b4d6" stroke="#404040" points="122.5,-256.25 73.5,-256.25 73.5,-237 122.5,-237 122.5,-256.25"/>
<text text-anchor="middle" x="98" y="-242.75" font-family="Helvetica,sans-Serif" font-size="10.00">policies</text>
</a>
</g>
</g>
<!-- dir_d1aac795712c1a80b032d3d2760385d8&#45;&gt;dir_6ddbcebc0798903b88ee4423bc0f1618 -->
<g id="edge5" class="edge">
<title>dir_d1aac795712c1a80b032d3d2760385d8&#45;&gt;dir_6ddbcebc0798903b88ee4423bc0f1618</title>
<g id="a_edge5"><a xlink:href="dir_000004_000005.html" target="_top">
<path fill="none" stroke="#63b8ff" d="M111.5,-292.55C109.47,-285.8 106.52,-275.99 103.9,-267.26"/>
<polygon fill="#63b8ff" stroke="#63b8ff" points="107.31,-266.44 101.08,-257.87 100.6,-268.45 107.31,-266.44"/>
</a>
</g>
<g id="a_edge5&#45;headlabel"><a xlink:href="dir_000004_000005.html" target="_top" xlink:title="10">
<text text-anchor="middle" x="110.63" y="-263.74" font-family="Helvetica,sans-Serif" font-size="10.00" fill="#63b8ff">10</text>
</a>
</g>
</g>
<!-- dir_092aa99ea44c2ea5c05e2b02d3022b6c -->
<g id="node6" class="node">
<title>dir_092aa99ea44c2ea5c05e2b02d3022b6c</title>
<g id="a_node6"><a xlink:href="dir_092aa99ea44c2ea5c05e2b02d3022b6c.html" target="_top" xlink:title="printing">
<polygon fill="#a2b4d6" stroke="#404040" points="167.75,-145.75 120.25,-145.75 120.25,-126.5 167.75,-126.5 167.75,-145.75"/>
<text text-anchor="middle" x="144" y="-132.25" font-family="Helvetica,sans-Serif" font-size="10.00">printing</text>
</a>
</g>
</g>
<!-- dir_d1aac795712c1a80b032d3d2760385d8&#45;&gt;dir_092aa99ea44c2ea5c05e2b02d3022b6c -->
<g id="edge2" class="edge">
<title>dir_d1aac795712c1a80b032d3d2760385d8&#45;&gt;dir_092aa99ea44c2ea5c05e2b02d3022b6c</title>
<g id="a_edge2"><a xlink:href="dir_000004_000006.html" target="_top">
<path fill="none" stroke="#63b8ff" d="M122.28,-292.46C137.48,-276.36 169.33,-239.35 181,-201 183.49,-192.82 183.9,-189.8 181,-181.75 177.27,-171.41 169.98,-161.76 162.86,-154.11"/>
<polygon fill="#63b8ff" stroke="#63b8ff" points="165.43,-151.73 155.86,-147.18 160.5,-156.7 165.43,-151.73"/>
</a>
</g>
<g id="a_edge2&#45;headlabel"><a xlink:href="dir_000004_000006.html" target="_top" xlink:title="33">
<text text-anchor="middle" x="168.91" y="-147.3" font-family="Helvetica,sans-Serif" font-size="10.00" fill="#63b8ff">33</text>
</a>
</g>
</g>
<!-- dir_18327b906210ac22926d8dfd10b98a1a -->
<g id="node7" class="node">
<title>dir_18327b906210ac22926d8dfd10b98a1a</title>
<g id="a_node7"><a xlink:href="dir_18327b906210ac22926d8dfd10b98a1a.html" target="_top" xlink:title="reporting">
<polygon fill="#a2b4d6" stroke="#404040" points="263.75,-201 210.25,-201 210.25,-181.75 263.75,-181.75 263.75,-201"/>
<text text-anchor="middle" x="237" y="-187.5" font-family="Helvetica,sans-Serif" font-size="10.00">reporting</text>
</a>
</g>
</g>
<!-- dir_d1aac795712c1a80b032d3d2760385d8&#45;&gt;dir_18327b906210ac22926d8dfd10b98a1a -->
<g id="edge3" class="edge">
<title>dir_d1aac795712c1a80b032d3d2760385d8&#45;&gt;dir_18327b906210ac22926d8dfd10b98a1a</title>
<g id="a_edge3"><a xlink:href="dir_000004_000007.html" target="_top">
<path fill="none" stroke="#63b8ff" d="M136.45,-292.32C154.11,-284.78 178.56,-272.48 196,-256.25 209.72,-243.49 220.85,-225.2 228.03,-211.46"/>
<polygon fill="#63b8ff" stroke="#63b8ff" points="231.13,-213.08 232.43,-202.56 224.86,-209.97 231.13,-213.08"/>
</a>
</g>
<g id="a_edge3&#45;headlabel"><a xlink:href="dir_000004_000007.html" target="_top" xlink:title="20">
<text text-anchor="middle" x="232.75" y="-212.33" font-family="Helvetica,sans-Serif" font-size="10.00" fill="#63b8ff">20</text>
</a>
</g>
</g>
<!-- dir_2f75f8b84a1b0b31df547365a4a1eaf8 -->
<g id="node8" class="node">
<title>dir_2f75f8b84a1b0b31df547365a4a1eaf8</title>
<g id="a_node8"><a xlink:href="dir_2f75f8b84a1b0b31df547365a4a1eaf8.html" target="_top" xlink:title="utilities">
<polygon fill="#a2b4d6" stroke="#404040" points="125.38,-90.5 78.62,-90.5 78.62,-71.25 125.38,-71.25 125.38,-90.5"/>
<text text-anchor="middle" x="102" y="-77" font-family="Helvetica,sans-Serif" font-size="10.00">utilities</text>
</a>
</g>
</g>
<!-- dir_d1aac795712c1a80b032d3d2760385d8&#45;&gt;dir_2f75f8b84a1b0b31df547365a4a1eaf8 -->
<g id="edge4" class="edge">
<title>dir_d1aac795712c1a80b032d3d2760385d8&#45;&gt;dir_2f75f8b84a1b0b31df547365a4a1eaf8</title>
<g id="a_edge4"><a xlink:href="dir_000004_000010.html" target="_top">
<path fill="none" stroke="#63b8ff" d="M99.34,-292.38C87.6,-284.64 71.98,-272.04 65,-256.25 41.4,-202.84 72.68,-133.44 90.77,-100.63"/>
<polygon fill="#63b8ff" stroke="#63b8ff" points="93.61,-102.71 95.55,-92.3 87.54,-99.23 93.61,-102.71"/>
</a>
</g>
<g id="a_edge4&#45;headlabel"><a xlink:href="dir_000004_000010.html" target="_top" xlink:title="46">
<text text-anchor="middle" x="95.04" y="-102.06" font-family="Helvetica,sans-Serif" font-size="10.00" fill="#63b8ff">46</text>
</a>
</g>
</g>
<!-- dir_fea71f381ece93f367616978be34972a -->
<g id="node2" class="node">
<title>dir_fea71f381ece93f367616978be34972a</title>
<g id="a_node2"><a xlink:href="dir_fea71f381ece93f367616978be34972a.html" target="_top" xlink:title="adapters">
<polygon fill="#a2b4d6" stroke="#404040" points="246.75,-311.5 193.25,-311.5 193.25,-292.25 246.75,-292.25 246.75,-311.5"/>
<text text-anchor="middle" x="220" y="-298" font-family="Helvetica,sans-Serif" font-size="10.00">adapters</text>
</a>
</g>
</g>
<!-- dir_c8613b7c6812845d24ae03bf6f0c949e&#45;&gt;dir_092aa99ea44c2ea5c05e2b02d3022b6c -->
<g id="edge7" class="edge">
<title>dir_c8613b7c6812845d24ae03bf6f0c949e&#45;&gt;dir_092aa99ea44c2ea5c05e2b02d3022b6c</title>
<g id="a_edge7"><a xlink:href="dir_000003_000006.html" target="_top">
<path fill="none" stroke="#63b8ff" d="M144,-181.58C144,-175.07 144,-165.92 144,-157.62"/>
<polygon fill="#63b8ff" stroke="#63b8ff" points="147.5,-157.62 144,-147.62 140.5,-157.62 147.5,-157.62"/>
</a>
</g>
<g id="a_edge7&#45;headlabel"><a xlink:href="dir_000003_000006.html" target="_top" xlink:title="4">
<text text-anchor="middle" x="150.34" y="-155.83" font-family="Helvetica,sans-Serif" font-size="10.00" fill="#63b8ff">4</text>
</a>
</g>
</g>
<!-- dir_c8613b7c6812845d24ae03bf6f0c949e&#45;&gt;dir_2f75f8b84a1b0b31df547365a4a1eaf8 -->
<g id="edge8" class="edge">
<title>dir_c8613b7c6812845d24ae03bf6f0c949e&#45;&gt;dir_2f75f8b84a1b0b31df547365a4a1eaf8</title>
<g id="a_edge8"><a xlink:href="dir_000003_000010.html" target="_top">
<path fill="none" stroke="#63b8ff" d="M135.13,-181.31C127.42,-172.84 116.62,-159.48 111,-145.75 105.34,-131.91 103.13,-115.14 102.32,-102.25"/>
<polygon fill="#63b8ff" stroke="#63b8ff" points="105.83,-102.29 101.95,-92.43 98.83,-102.55 105.83,-102.29"/>
</a>
</g>
<g id="a_edge8&#45;headlabel"><a xlink:href="dir_000003_000010.html" target="_top" xlink:title="3">
<text text-anchor="middle" x="108.74" y="-100.38" font-family="Helvetica,sans-Serif" font-size="10.00" fill="#63b8ff">3</text>
</a>
</g>
</g>
<!-- dir_6ddbcebc0798903b88ee4423bc0f1618&#45;&gt;dir_08ebf9492445e058b0ba4156a3978cfb -->
<g id="edge9" class="edge">
<title>dir_6ddbcebc0798903b88ee4423bc0f1618&#45;&gt;dir_08ebf9492445e058b0ba4156a3978cfb</title>
<g id="a_edge9"><a xlink:href="dir_000005_000001.html" target="_top">
<path fill="none" stroke="#63b8ff" d="M93.7,-236.7C81.76,-210.62 50.29,-132.55 70,-71.25 73.16,-61.42 79.37,-51.92 85.49,-44.24"/>
<polygon fill="#63b8ff" stroke="#63b8ff" points="88.09,-46.58 91.96,-36.72 82.78,-42.01 88.09,-46.58"/>
</a>
</g>
<g id="a_edge9&#45;headlabel"><a xlink:href="dir_000005_000001.html" target="_top" xlink:title="2">
<text text-anchor="middle" x="88.88" y="-46.14" font-family="Helvetica,sans-Serif" font-size="10.00" fill="#63b8ff">2</text>
</a>
</g>
</g>
<!-- dir_6ddbcebc0798903b88ee4423bc0f1618&#45;&gt;dir_c8613b7c6812845d24ae03bf6f0c949e -->
<g id="edge13" class="edge">
<title>dir_6ddbcebc0798903b88ee4423bc0f1618&#45;&gt;dir_c8613b7c6812845d24ae03bf6f0c949e</title>
<g id="a_edge13"><a xlink:href="dir_000005_000003.html" target="_top">
<path fill="none" stroke="#63b8ff" d="M105.6,-236.83C111.88,-229.55 121.01,-218.98 128.8,-209.98"/>
<polygon fill="#63b8ff" stroke="#63b8ff" points="131.36,-212.36 135.25,-202.5 126.06,-207.78 131.36,-212.36"/>
</a>
</g>
<g id="a_edge13&#45;headlabel"><a xlink:href="dir_000005_000003.html" target="_top" xlink:title="1">
<text text-anchor="middle" x="132.15" y="-211.92" font-family="Helvetica,sans-Serif" font-size="10.00" fill="#63b8ff">1</text>
</a>
</g>
</g>
<!-- dir_6ddbcebc0798903b88ee4423bc0f1618&#45;&gt;dir_092aa99ea44c2ea5c05e2b02d3022b6c -->
<g id="edge10" class="edge">
<title>dir_6ddbcebc0798903b88ee4423bc0f1618&#45;&gt;dir_092aa99ea44c2ea5c05e2b02d3022b6c</title>
<g id="a_edge10"><a xlink:href="dir_000005_000006.html" target="_top">
<path fill="none" stroke="#63b8ff" d="M97.75,-236.53C97.74,-223.74 98.94,-199.98 107,-181.75 111.5,-171.56 119.03,-161.84 126.12,-154.09"/>
<polygon fill="#63b8ff" stroke="#63b8ff" points="128.5,-156.66 132.99,-147.06 123.49,-151.77 128.5,-156.66"/>
</a>
</g>
<g id="a_edge10&#45;headlabel"><a xlink:href="dir_000005_000006.html" target="_top" xlink:title="1">
<text text-anchor="middle" x="129.08" y="-156.26" font-family="Helvetica,sans-Serif" font-size="10.00" fill="#63b8ff">1</text>
</a>
</g>
</g>
<!-- dir_6ddbcebc0798903b88ee4423bc0f1618&#45;&gt;dir_18327b906210ac22926d8dfd10b98a1a -->
<g id="edge11" class="edge">
<title>dir_6ddbcebc0798903b88ee4423bc0f1618&#45;&gt;dir_18327b906210ac22926d8dfd10b98a1a</title>
<g id="a_edge11"><a xlink:href="dir_000005_000007.html" target="_top">
<path fill="none" stroke="#63b8ff" d="M121.58,-236.59C143.84,-228.06 177.49,-215.17 202.72,-205.51"/>
<polygon fill="#63b8ff" stroke="#63b8ff" points="203.81,-208.84 211.89,-201.99 201.3,-202.3 203.81,-208.84"/>
</a>
</g>
<g id="a_edge11&#45;headlabel"><a xlink:href="dir_000005_000007.html" target="_top" xlink:title="1">
<text text-anchor="middle" x="202.88" y="-208.36" font-family="Helvetica,sans-Serif" font-size="10.00" fill="#63b8ff">1</text>
</a>
</g>
</g>
<!-- dir_6ddbcebc0798903b88ee4423bc0f1618&#45;&gt;dir_2f75f8b84a1b0b31df547365a4a1eaf8 -->
<g id="edge12" class="edge">
<title>dir_6ddbcebc0798903b88ee4423bc0f1618&#45;&gt;dir_2f75f8b84a1b0b31df547365a4a1eaf8</title>
<g id="a_edge12"><a xlink:href="dir_000005_000010.html" target="_top">
<path fill="none" stroke="#63b8ff" d="M97.74,-236.74C97.49,-227.73 97.14,-213.4 97,-201 96.9,-192.44 96.79,-190.3 97,-181.75 97.69,-154.27 99.44,-122.58 100.67,-102.4"/>
<polygon fill="#63b8ff" stroke="#63b8ff" points="104.16,-102.67 101.3,-92.47 97.18,-102.23 104.16,-102.67"/>
</a>
</g>
<g id="a_edge12&#45;headlabel"><a xlink:href="dir_000005_000010.html" target="_top" xlink:title="4">
<text text-anchor="middle" x="106.86" y="-101.05" font-family="Helvetica,sans-Serif" font-size="10.00" fill="#63b8ff">4</text>
</a>
</g>
</g>
<!-- dir_092aa99ea44c2ea5c05e2b02d3022b6c&#45;&gt;dir_08ebf9492445e058b0ba4156a3978cfb -->
<g id="edge14" class="edge">
<title>dir_092aa99ea44c2ea5c05e2b02d3022b6c&#45;&gt;dir_08ebf9492445e058b0ba4156a3978cfb</title>
<g id="a_edge14"><a xlink:href="dir_000006_000001.html" target="_top">
<path fill="none" stroke="#63b8ff" d="M143.89,-126.1C143.45,-113.4 141.57,-89.74 134,-71.25 130.04,-61.57 123.6,-52 117.53,-44.21"/>
<polygon fill="#63b8ff" stroke="#63b8ff" points="120.29,-42.07 111.22,-36.6 114.9,-46.53 120.29,-42.07"/>
</a>
</g>
<g id="a_edge14&#45;headlabel"><a xlink:href="dir_000006_000001.html" target="_top" xlink:title="8">
<text text-anchor="middle" x="123.81" y="-37.98" font-family="Helvetica,sans-Serif" font-size="10.00" fill="#63b8ff">8</text>
</a>
</g>
</g>
<!-- dir_092aa99ea44c2ea5c05e2b02d3022b6c&#45;&gt;dir_2f75f8b84a1b0b31df547365a4a1eaf8 -->
<g id="edge15" class="edge">
<title>dir_092aa99ea44c2ea5c05e2b02d3022b6c&#45;&gt;dir_2f75f8b84a1b0b31df547365a4a1eaf8</title>
<g id="a_edge15"><a xlink:href="dir_000006_000010.html" target="_top">
<path fill="none" stroke="#63b8ff" d="M131.9,-126.33C124.83,-119.28 116.41,-109.15 110.1,-100.33"/>
<polygon fill="#63b8ff" stroke="#63b8ff" points="113.12,-98.56 104.71,-92.12 107.27,-102.4 113.12,-98.56"/>
</a>
</g>
<g id="a_edge15&#45;headlabel"><a xlink:href="dir_000006_000010.html" target="_top" xlink:title="10">
<text text-anchor="middle" x="116.64" y="-94.87" font-family="Helvetica,sans-Serif" font-size="10.00" fill="#63b8ff">10</text>
</a>
</g>
</g>
<!-- dir_18327b906210ac22926d8dfd10b98a1a&#45;&gt;dir_08ebf9492445e058b0ba4156a3978cfb -->
<g id="edge16" class="edge">
<title>dir_18327b906210ac22926d8dfd10b98a1a&#45;&gt;dir_08ebf9492445e058b0ba4156a3978cfb</title>
<g id="a_edge16"><a xlink:href="dir_000007_000001.html" target="_top">
<path fill="none" stroke="#63b8ff" d="M231.21,-181.45C222.93,-168.88 207.06,-145.37 192,-126.5 167.87,-96.26 137.26,-63.31 118.67,-43.84"/>
<polygon fill="#63b8ff" stroke="#63b8ff" points="121.32,-41.54 111.87,-36.75 116.27,-46.39 121.32,-41.54"/>
</a>
</g>
<g id="a_edge16&#45;headlabel"><a xlink:href="dir_000007_000001.html" target="_top" xlink:title="3">
<text text-anchor="middle" x="124.81" y="-37.2" font-family="Helvetica,sans-Serif" font-size="10.00" fill="#63b8ff">3</text>
</a>
</g>
</g>
<!-- dir_18327b906210ac22926d8dfd10b98a1a&#45;&gt;dir_092aa99ea44c2ea5c05e2b02d3022b6c -->
<g id="edge17" class="edge">
<title>dir_18327b906210ac22926d8dfd10b98a1a&#45;&gt;dir_092aa99ea44c2ea5c05e2b02d3022b6c</title>
<g id="a_edge17"><a xlink:href="dir_000007_000006.html" target="_top">
<path fill="none" stroke="#63b8ff" d="M221.22,-181.34C207.06,-173.23 186.02,-161.18 169.47,-151.71"/>
<polygon fill="#63b8ff" stroke="#63b8ff" points="171.58,-148.89 161.17,-146.95 168.11,-154.96 171.58,-148.89"/>
</a>
</g>
<g id="a_edge17&#45;headlabel"><a xlink:href="dir_000007_000006.html" target="_top" xlink:title="3">
<text text-anchor="middle" x="174.8" y="-143.58" font-family="Helvetica,sans-Serif" font-size="10.00" fill="#63b8ff">3</text>
</a>
</g>
</g>
<!-- dir_18327b906210ac22926d8dfd10b98a1a&#45;&gt;dir_2f75f8b84a1b0b31df547365a4a1eaf8 -->
<g id="edge18" class="edge">
<title>dir_18327b906210ac22926d8dfd10b98a1a&#45;&gt;dir_2f75f8b84a1b0b31df547365a4a1eaf8</title>
<g id="a_edge18"><a xlink:href="dir_000007_000010.html" target="_top">
<path fill="none" stroke="#63b8ff" d="M229.92,-181.36C219.34,-168.26 198.35,-143.65 177,-126.5 162.55,-114.89 144.79,-104.19 130.18,-96.18"/>
<polygon fill="#63b8ff" stroke="#63b8ff" points="131.99,-93.18 121.52,-91.56 128.69,-99.36 131.99,-93.18"/>
</a>
</g>
<g id="a_edge18&#45;headlabel"><a xlink:href="dir_000007_000010.html" target="_top" xlink:title="6">
<text text-anchor="middle" x="135.16" y="-87.78" font-family="Helvetica,sans-Serif" font-size="10.00" fill="#63b8ff">6</text>
</a>
</g>
</g>
<!-- dir_2f75f8b84a1b0b31df547365a4a1eaf8&#45;&gt;dir_08ebf9492445e058b0ba4156a3978cfb -->
<g id="edge19" class="edge">
<title>dir_2f75f8b84a1b0b31df547365a4a1eaf8&#45;&gt;dir_08ebf9492445e058b0ba4156a3978cfb</title>
<g id="a_edge19"><a xlink:href="dir_000010_000001.html" target="_top">
<path fill="none" stroke="#63b8ff" d="M102,-71.08C102,-64.57 102,-55.42 102,-47.12"/>
<polygon fill="#63b8ff" stroke="#63b8ff" points="105.5,-47.12 102,-37.12 98.5,-47.12 105.5,-47.12"/>
</a>
</g>
<g id="a_edge19&#45;headlabel"><a xlink:href="dir_000010_000001.html" target="_top" xlink:title="3">
<text text-anchor="middle" x="108.34" y="-45.33" font-family="Helvetica,sans-Serif" font-size="10.00" fill="#63b8ff">3</text>
</a>
</g>
</g>
<!-- dir_2f75f8b84a1b0b31df547365a4a1eaf8&#45;&gt;dir_092aa99ea44c2ea5c05e2b02d3022b6c -->
<g id="edge20" class="edge">
<title>dir_2f75f8b84a1b0b31df547365a4a1eaf8&#45;&gt;dir_092aa99ea44c2ea5c05e2b02d3022b6c</title>
<g id="a_edge20"><a xlink:href="dir_000010_000006.html" target="_top">
<path fill="none" stroke="#63b8ff" d="M114.29,-90.86C121.38,-97.96 129.8,-108.11 136.07,-116.9"/>
<polygon fill="#63b8ff" stroke="#63b8ff" points="133,-118.61 141.4,-125.06 138.86,-114.78 133,-118.61"/>
</a>
</g>
<g id="a_edge20&#45;headlabel"><a xlink:href="dir_000010_000006.html" target="_top" xlink:title="2">
<text text-anchor="middle" x="129.49" y="-114.54" font-family="Helvetica,sans-Serif" font-size="10.00" fill="#63b8ff">2</text>
</a>
</g>
</g>
</g>
</svg>
