<?xml version="1.0" encoding="UTF-8" standalone="no"?>
<!DOCTYPE svg PUBLIC "-//W3C//DTD SVG 1.1//EN"
 "http://www.w3.org/Graphics/SVG/1.1/DTD/svg11.dtd">
<!-- Generated by graphviz version 12.2.1 (20241206.2353)
 -->
<!-- Title: mimic++ Pages: 1 -->
<svg width="308pt" height="391pt"
 viewBox="0.00 0.00 308.00 390.75" xmlns="http://www.w3.org/2000/svg" xmlns:xlink="http://www.w3.org/1999/xlink">
<g id="graph0" class="graph" transform="scale(1 1) rotate(0) translate(4 386.75)">
<title>mimic++</title>
<g id="clust1" class="cluster">
<title>clusterdir_d1aac795712c1a80b032d3d2760385d8</title>
<g id="a_clust1"><a xlink:href="dir_d1aac795712c1a80b032d3d2760385d8.html" target="_top">
<polygon fill="#edf0f7" stroke="#404040" stroke-width="2" points="8,-8 8,-374.75 292,-374.75 292,-8 8,-8"/>
</a>
</g>
</g>
<!-- dir_d1aac795712c1a80b032d3d2760385d8 -->
<g id="node1" class="node">
<title>dir_d1aac795712c1a80b032d3d2760385d8</title>
<text text-anchor="middle" x="147" y="-353.25" font-family="Helvetica,sans-Serif" font-size="10.00">mimic++</text>
</g>
<!-- dir_08ebf9492445e058b0ba4156a3978cfb -->
<g id="node2" class="node">
<title>dir_08ebf9492445e058b0ba4156a3978cfb</title>
<g id="a_node2"><a xlink:href="dir_08ebf9492445e058b0ba4156a3978cfb.html" target="_top" xlink:title="config">
<polygon fill="#a2b4d6" stroke="#404040" points="159.75,-90.5 118.25,-90.5 118.25,-71.25 159.75,-71.25 159.75,-90.5"/>
<text text-anchor="middle" x="139" y="-77" font-family="Helvetica,sans-Serif" font-size="10.00">config</text>
</a>
</g>
</g>
<!-- dir_d1aac795712c1a80b032d3d2760385d8&#45;&gt;dir_08ebf9492445e058b0ba4156a3978cfb -->
<g id="edge1" class="edge">
<title>dir_d1aac795712c1a80b032d3d2760385d8&#45;&gt;dir_08ebf9492445e058b0ba4156a3978cfb</title>
<g id="a_edge1"><a xlink:href="dir_000005_000001.html" target="_top">
<path fill="none" stroke="#63b8ff" d="M173.87,-348.17C213.5,-334.59 283,-302.9 283,-247.62 283,-247.62 283,-247.62 283,-190.38 283,-134.75 213.61,-104.07 171.17,-90.5"/>
<polygon fill="#63b8ff" stroke="#63b8ff" points="172.28,-87.18 161.7,-87.64 170.25,-93.88 172.28,-87.18"/>
</a>
</g>
<g id="a_edge1&#45;headlabel"><a xlink:href="dir_000005_000001.html" target="_top" xlink:title="63">
<text text-anchor="middle" x="175.1" y="-81.19" font-family="Helvetica,sans-Serif" font-size="10.00" fill="#63b8ff">63</text>
</a>
</g>
</g>
<!-- dir_b5aab1b1df1bd11607029459b7fa8a2f -->
<g id="node3" class="node">
<title>dir_b5aab1b1df1bd11607029459b7fa8a2f</title>
<g id="a_node3"><a xlink:href="dir_b5aab1b1df1bd11607029459b7fa8a2f.html" target="_top" xlink:title="macros">
<polygon fill="#a2b4d6" stroke="#404040" points="109.12,-35.25 60.88,-35.25 60.88,-16 109.12,-16 109.12,-35.25"/>
<text text-anchor="middle" x="85" y="-21.75" font-family="Helvetica,sans-Serif" font-size="10.00">macros</text>
</a>
</g>
</g>
<!-- dir_d1aac795712c1a80b032d3d2760385d8&#45;&gt;dir_b5aab1b1df1bd11607029459b7fa8a2f -->
<g id="edge6" class="edge">
<title>dir_d1aac795712c1a80b032d3d2760385d8&#45;&gt;dir_b5aab1b1df1bd11607029459b7fa8a2f</title>
<g id="a_edge6"><a xlink:href="dir_000005_000003.html" target="_top">
<path fill="none" stroke="#63b8ff" d="M120.69,-347.58C82.71,-333.4 17,-301.13 17,-247.62 17,-247.62 17,-247.62 17,-135.12 17,-97.94 46.02,-63.03 66.15,-43.3"/>
<polygon fill="#63b8ff" stroke="#63b8ff" points="68.38,-46.01 73.27,-36.61 63.59,-40.9 68.38,-46.01"/>
</a>
</g>
<g id="a_edge6&#45;headlabel"><a xlink:href="dir_000005_000003.html" target="_top" xlink:title="7">
<text text-anchor="middle" x="68.8" y="-45.63" font-family="Helvetica,sans-Serif" font-size="10.00" fill="#63b8ff">7</text>
</a>
</g>
</g>
<!-- dir_c8613b7c6812845d24ae03bf6f0c949e -->
<g id="node4" class="node">
<title>dir_c8613b7c6812845d24ae03bf6f0c949e</title>
<g id="a_node4"><a xlink:href="dir_c8613b7c6812845d24ae03bf6f0c949e.html" target="_top" xlink:title="matchers">
<polygon fill="#a2b4d6" stroke="#404040" points="132.25,-256.25 75.75,-256.25 75.75,-237 132.25,-237 132.25,-256.25"/>
<text text-anchor="middle" x="104" y="-242.75" font-family="Helvetica,sans-Serif" font-size="10.00">matchers</text>
</a>
</g>
</g>
<!-- dir_d1aac795712c1a80b032d3d2760385d8&#45;&gt;dir_c8613b7c6812845d24ae03bf6f0c949e -->
<g id="edge7" class="edge">
<title>dir_d1aac795712c1a80b032d3d2760385d8&#45;&gt;dir_c8613b7c6812845d24ae03bf6f0c949e</title>
<g id="a_edge7"><a xlink:href="dir_000005_000004.html" target="_top">
<path fill="none" stroke="#63b8ff" d="M138.78,-347.69C131.07,-339.25 119.87,-325.55 114,-311.5 108.22,-297.68 105.75,-280.9 104.71,-268.01"/>
<polygon fill="#63b8ff" stroke="#63b8ff" points="108.21,-267.97 104.16,-258.18 101.22,-268.36 108.21,-267.97"/>
</a>
</g>
<g id="a_edge7&#45;headlabel"><a xlink:href="dir_000005_000004.html" target="_top" xlink:title="9">
<text text-anchor="middle" x="111.16" y="-266.01" font-family="Helvetica,sans-Serif" font-size="10.00" fill="#63b8ff">9</text>
</a>
</g>
</g>
<!-- dir_6ddbcebc0798903b88ee4423bc0f1618 -->
<g id="node5" class="node">
<title>dir_6ddbcebc0798903b88ee4423bc0f1618</title>
<g id="a_node5"><a xlink:href="dir_6ddbcebc0798903b88ee4423bc0f1618.html" target="_top" xlink:title="policies">
<polygon fill="#a2b4d6" stroke="#404040" points="171.5,-311.5 122.5,-311.5 122.5,-292.25 171.5,-292.25 171.5,-311.5"/>
<text text-anchor="middle" x="147" y="-298" font-family="Helvetica,sans-Serif" font-size="10.00">policies</text>
</a>
</g>
</g>
<!-- dir_d1aac795712c1a80b032d3d2760385d8&#45;&gt;dir_6ddbcebc0798903b88ee4423bc0f1618 -->
<g id="edge5" class="edge">
<title>dir_d1aac795712c1a80b032d3d2760385d8&#45;&gt;dir_6ddbcebc0798903b88ee4423bc0f1618</title>
<g id="a_edge5"><a xlink:href="dir_000005_000007.html" target="_top">
<path fill="none" stroke="#63b8ff" d="M147,-347.8C147,-341.2 147,-331.69 147,-323.11"/>
<polygon fill="#63b8ff" stroke="#63b8ff" points="150.5,-323.18 147,-313.18 143.5,-323.18 150.5,-323.18"/>
</a>
</g>
<g id="a_edge5&#45;headlabel"><a xlink:href="dir_000005_000007.html" target="_top" xlink:title="10">
<text text-anchor="middle" x="153.34" y="-321.39" font-family="Helvetica,sans-Serif" font-size="10.00" fill="#63b8ff">10</text>
</a>
</g>
</g>
<!-- dir_092aa99ea44c2ea5c05e2b02d3022b6c -->
<g id="node6" class="node">
<title>dir_092aa99ea44c2ea5c05e2b02d3022b6c</title>
<g id="a_node6"><a xlink:href="dir_092aa99ea44c2ea5c05e2b02d3022b6c.html" target="_top" xlink:title="printing">
<polygon fill="#a2b4d6" stroke="#404040" points="205.75,-201 158.25,-201 158.25,-181.75 205.75,-181.75 205.75,-201"/>
<text text-anchor="middle" x="182" y="-187.5" font-family="Helvetica,sans-Serif" font-size="10.00">printing</text>
</a>
</g>
</g>
<!-- dir_d1aac795712c1a80b032d3d2760385d8&#45;&gt;dir_092aa99ea44c2ea5c05e2b02d3022b6c -->
<g id="edge2" class="edge">
<title>dir_d1aac795712c1a80b032d3d2760385d8&#45;&gt;dir_092aa99ea44c2ea5c05e2b02d3022b6c</title>
<g id="a_edge2"><a xlink:href="dir_000005_000008.html" target="_top">
<path fill="none" stroke="#63b8ff" d="M156.26,-347.6C164.53,-339.3 176.08,-325.88 181,-311.5 192.35,-278.33 189.11,-236.85 185.62,-212.61"/>
<polygon fill="#63b8ff" stroke="#63b8ff" points="189.09,-212.17 184.04,-202.86 182.18,-213.29 189.09,-212.17"/>
</a>
</g>
<g id="a_edge2&#45;headlabel"><a xlink:href="dir_000005_000008.html" target="_top" xlink:title="34">
<text text-anchor="middle" x="192.23" y="-209.9" font-family="Helvetica,sans-Serif" font-size="10.00" fill="#63b8ff">34</text>
</a>
</g>
</g>
<!-- dir_18327b906210ac22926d8dfd10b98a1a -->
<g id="node7" class="node">
<title>dir_18327b906210ac22926d8dfd10b98a1a</title>
<g id="a_node7"><a xlink:href="dir_18327b906210ac22926d8dfd10b98a1a.html" target="_top" xlink:title="reporting">
<polygon fill="#a2b4d6" stroke="#404040" points="263.75,-256.25 210.25,-256.25 210.25,-237 263.75,-237 263.75,-256.25"/>
<text text-anchor="middle" x="237" y="-242.75" font-family="Helvetica,sans-Serif" font-size="10.00">reporting</text>
</a>
</g>
</g>
<!-- dir_d1aac795712c1a80b032d3d2760385d8&#45;&gt;dir_18327b906210ac22926d8dfd10b98a1a -->
<g id="edge3" class="edge">
<title>dir_d1aac795712c1a80b032d3d2760385d8&#45;&gt;dir_18327b906210ac22926d8dfd10b98a1a</title>
<g id="a_edge3"><a xlink:href="dir_000005_000009.html" target="_top">
<path fill="none" stroke="#63b8ff" d="M157.89,-347.62C168.35,-339.13 184.27,-325.39 196,-311.5 207.96,-297.34 219.15,-279.47 226.81,-266.23"/>
<polygon fill="#63b8ff" stroke="#63b8ff" points="229.75,-268.13 231.61,-257.7 223.65,-264.7 229.75,-268.13"/>
</a>
</g>
<g id="a_edge3&#45;headlabel"><a xlink:href="dir_000005_000009.html" target="_top" xlink:title="20">
<text text-anchor="middle" x="231.21" y="-267.46" font-family="Helvetica,sans-Serif" font-size="10.00" fill="#63b8ff">20</text>
</a>
</g>
</g>
<!-- dir_2f75f8b84a1b0b31df547365a4a1eaf8 -->
<g id="node8" class="node">
<title>dir_2f75f8b84a1b0b31df547365a4a1eaf8</title>
<g id="a_node8"><a xlink:href="dir_2f75f8b84a1b0b31df547365a4a1eaf8.html" target="_top" xlink:title="utilities">
<polygon fill="#a2b4d6" stroke="#404040" points="162.38,-145.75 115.62,-145.75 115.62,-126.5 162.38,-126.5 162.38,-145.75"/>
<text text-anchor="middle" x="139" y="-132.25" font-family="Helvetica,sans-Serif" font-size="10.00">utilities</text>
</a>
</g>
</g>
<!-- dir_d1aac795712c1a80b032d3d2760385d8&#45;&gt;dir_2f75f8b84a1b0b31df547365a4a1eaf8 -->
<g id="edge4" class="edge">
<title>dir_d1aac795712c1a80b032d3d2760385d8&#45;&gt;dir_2f75f8b84a1b0b31df547365a4a1eaf8</title>
<g id="a_edge4"><a xlink:href="dir_000005_000013.html" target="_top">
<path fill="none" stroke="#63b8ff" d="M136.24,-347.69C117.4,-332.09 79.27,-296.64 67,-256.25 54.73,-215.89 92.67,-175.18 118.05,-153.37"/>
<polygon fill="#63b8ff" stroke="#63b8ff" points="120.06,-156.25 125.55,-147.18 115.61,-150.85 120.06,-156.25"/>
</a>
</g>
<g id="a_edge4&#45;headlabel"><a xlink:href="dir_000005_000013.html" target="_top" xlink:title="57">
<text text-anchor="middle" x="120.26" y="-155.89" font-family="Helvetica,sans-Serif" font-size="10.00" fill="#63b8ff">57</text>
</a>
</g>
</g>
<!-- dir_08ebf9492445e058b0ba4156a3978cfb&#45;&gt;dir_b5aab1b1df1bd11607029459b7fa8a2f -->
<g id="edge8" class="edge">
<title>dir_08ebf9492445e058b0ba4156a3978cfb&#45;&gt;dir_b5aab1b1df1bd11607029459b7fa8a2f</title>
<g id="a_edge8"><a xlink:href="dir_000001_000003.html" target="_top">
<path fill="none" stroke="#63b8ff" d="M130.08,-71.08C122.55,-63.65 111.53,-52.79 102.27,-43.66"/>
<polygon fill="#63b8ff" stroke="#63b8ff" points="104.77,-41.2 95.19,-36.67 99.85,-46.19 104.77,-41.2"/>
</a>
</g>
<g id="a_edge8&#45;headlabel"><a xlink:href="dir_000001_000003.html" target="_top" xlink:title="1">
<text text-anchor="middle" x="108.24" y="-36.77" font-family="Helvetica,sans-Serif" font-size="10.00" fill="#63b8ff">1</text>
</a>
</g>
</g>
<!-- dir_c8613b7c6812845d24ae03bf6f0c949e&#45;&gt;dir_08ebf9492445e058b0ba4156a3978cfb -->
<g id="edge9" class="edge">
<title>dir_c8613b7c6812845d24ae03bf6f0c949e&#45;&gt;dir_08ebf9492445e058b0ba4156a3978cfb</title>
<g id="a_edge9"><a xlink:href="dir_000004_000001.html" target="_top">
<path fill="none" stroke="#63b8ff" d="M102.48,-236.65C99.41,-216.37 93.84,-165.73 107,-126.5 110.28,-116.71 116.51,-107.22 122.61,-99.53"/>
<polygon fill="#63b8ff" stroke="#63b8ff" points="125.21,-101.88 129.05,-92 119.89,-97.33 125.21,-101.88"/>
</a>
</g>
<g id="a_edge9&#45;headlabel"><a xlink:href="dir_000004_000001.html" target="_top" xlink:title="5">
<text text-anchor="middle" x="126.01" y="-101.43" font-family="Helvetica,sans-Serif" font-size="10.00" fill="#63b8ff">5</text>
</a>
</g>
</g>
<!-- dir_c8613b7c6812845d24ae03bf6f0c949e&#45;&gt;dir_092aa99ea44c2ea5c05e2b02d3022b6c -->
<g id="edge10" class="edge">
<title>dir_c8613b7c6812845d24ae03bf6f0c949e&#45;&gt;dir_092aa99ea44c2ea5c05e2b02d3022b6c</title>
<g id="a_edge10"><a xlink:href="dir_000004_000008.html" target="_top">
<path fill="none" stroke="#63b8ff" d="M117.23,-236.59C128.77,-228.71 145.77,-217.11 159.45,-207.77"/>
<polygon fill="#63b8ff" stroke="#63b8ff" points="161.17,-210.83 167.45,-202.31 157.22,-205.05 161.17,-210.83"/>
</a>
</g>
<g id="a_edge10&#45;headlabel"><a xlink:href="dir_000004_000008.html" target="_top" xlink:title="4">
<text text-anchor="middle" x="161.05" y="-210.48" font-family="Helvetica,sans-Serif" font-size="10.00" fill="#63b8ff">4</text>
</a>
</g>
</g>
<!-- dir_c8613b7c6812845d24ae03bf6f0c949e&#45;&gt;dir_2f75f8b84a1b0b31df547365a4a1eaf8 -->
<g id="edge11" class="edge">
<title>dir_c8613b7c6812845d24ae03bf6f0c949e&#45;&gt;dir_2f75f8b84a1b0b31df547365a4a1eaf8</title>
<g id="a_edge11"><a xlink:href="dir_000004_000013.html" target="_top">
<path fill="none" stroke="#63b8ff" d="M106.86,-236.75C112.45,-219.42 124.93,-180.73 132.59,-156.99"/>
<polygon fill="#63b8ff" stroke="#63b8ff" points="135.89,-158.16 135.63,-147.57 129.23,-156.01 135.89,-158.16"/>
</a>
</g>
<g id="a_edge11&#45;headlabel"><a xlink:href="dir_000004_000013.html" target="_top" xlink:title="3">
<text text-anchor="middle" x="137.96" y="-157.14" font-family="Helvetica,sans-Serif" font-size="10.00" fill="#63b8ff">3</text>
</a>
</g>
</g>
<!-- dir_6ddbcebc0798903b88ee4423bc0f1618&#45;&gt;dir_08ebf9492445e058b0ba4156a3978cfb -->
<g id="edge12" class="edge">
<title>dir_6ddbcebc0798903b88ee4423bc0f1618&#45;&gt;dir_08ebf9492445e058b0ba4156a3978cfb</title>
<g id="a_edge12"><a xlink:href="dir_000007_000001.html" target="_top">
<path fill="none" stroke="#63b8ff" d="M122.28,-294.46C103.46,-288.13 78.84,-276.41 67,-256.25 48.78,-225.23 33.04,-243.1 98,-126.5 103.73,-116.22 112.28,-106.4 120.1,-98.6"/>
<polygon fill="#63b8ff" stroke="#63b8ff" points="122.45,-101.19 127.32,-91.78 117.64,-96.1 122.45,-101.19"/>
</a>
</g>
<g id="a_edge12&#45;headlabel"><a xlink:href="dir_000007_000001.html" target="_top" xlink:title="6">
<text text-anchor="middle" x="122.89" y="-100.81" font-family="Helvetica,sans-Serif" font-size="10.00" fill="#63b8ff">6</text>
</a>
</g>
</g>
<!-- dir_6ddbcebc0798903b88ee4423bc0f1618&#45;&gt;dir_c8613b7c6812845d24ae03bf6f0c949e -->
<g id="edge16" class="edge">
<title>dir_6ddbcebc0798903b88ee4423bc0f1618&#45;&gt;dir_c8613b7c6812845d24ae03bf6f0c949e</title>
<g id="a_edge16"><a xlink:href="dir_000007_000004.html" target="_top">
<path fill="none" stroke="#63b8ff" d="M139.9,-292.08C134.08,-284.88 125.67,-274.46 118.44,-265.51"/>
<polygon fill="#63b8ff" stroke="#63b8ff" points="121.21,-263.37 112.21,-257.79 115.77,-267.77 121.21,-263.37"/>
</a>
</g>
<g id="a_edge16&#45;headlabel"><a xlink:href="dir_000007_000004.html" target="_top" xlink:title="1">
<text text-anchor="middle" x="124.73" y="-259.33" font-family="Helvetica,sans-Serif" font-size="10.00" fill="#63b8ff">1</text>
</a>
</g>
</g>
<!-- dir_6ddbcebc0798903b88ee4423bc0f1618&#45;&gt;dir_092aa99ea44c2ea5c05e2b02d3022b6c -->
<g id="edge13" class="edge">
<title>dir_6ddbcebc0798903b88ee4423bc0f1618&#45;&gt;dir_092aa99ea44c2ea5c05e2b02d3022b6c</title>
<g id="a_edge13"><a xlink:href="dir_000007_000008.html" target="_top">
<path fill="none" stroke="#63b8ff" d="M149.86,-292C155.45,-274.67 167.93,-235.98 175.59,-212.24"/>
<polygon fill="#63b8ff" stroke="#63b8ff" points="178.89,-213.41 178.63,-202.82 172.23,-211.26 178.89,-213.41"/>
</a>
</g>
<g id="a_edge13&#45;headlabel"><a xlink:href="dir_000007_000008.html" target="_top" xlink:title="1">
<text text-anchor="middle" x="180.96" y="-212.39" font-family="Helvetica,sans-Serif" font-size="10.00" fill="#63b8ff">1</text>
</a>
</g>
</g>
<!-- dir_6ddbcebc0798903b88ee4423bc0f1618&#45;&gt;dir_18327b906210ac22926d8dfd10b98a1a -->
<g id="edge14" class="edge">
<title>dir_6ddbcebc0798903b88ee4423bc0f1618&#45;&gt;dir_18327b906210ac22926d8dfd10b98a1a</title>
<g id="a_edge14"><a xlink:href="dir_000007_000009.html" target="_top">
<path fill="none" stroke="#63b8ff" d="M162.27,-291.84C175.84,-283.81 195.95,-271.91 211.9,-262.48"/>
<polygon fill="#63b8ff" stroke="#63b8ff" points="213.53,-265.58 220.36,-257.47 209.97,-259.55 213.53,-265.58"/>
</a>
</g>
<g id="a_edge14&#45;headlabel"><a xlink:href="dir_000007_000009.html" target="_top" xlink:title="1">
<text text-anchor="middle" x="213.19" y="-265.21" font-family="Helvetica,sans-Serif" font-size="10.00" fill="#63b8ff">1</text>
</a>
</g>
</g>
<!-- dir_6ddbcebc0798903b88ee4423bc0f1618&#45;&gt;dir_2f75f8b84a1b0b31df547365a4a1eaf8 -->
<g id="edge15" class="edge">
<title>dir_6ddbcebc0798903b88ee4423bc0f1618&#45;&gt;dir_2f75f8b84a1b0b31df547365a4a1eaf8</title>
<g id="a_edge15"><a xlink:href="dir_000007_000013.html" target="_top">
<path fill="none" stroke="#63b8ff" d="M146.57,-292.07C145.33,-266.75 141.74,-193.25 139.99,-157.34"/>
<polygon fill="#63b8ff" stroke="#63b8ff" points="143.49,-157.3 139.51,-147.48 136.5,-157.64 143.49,-157.3"/>
</a>
</g>
<g id="a_edge15&#45;headlabel"><a xlink:href="dir_000007_000013.html" target="_top" xlink:title="4">
<text text-anchor="middle" x="146.43" y="-155.37" font-family="Helvetica,sans-Serif" font-size="10.00" fill="#63b8ff">4</text>
</a>
</g>
</g>
<!-- dir_092aa99ea44c2ea5c05e2b02d3022b6c&#45;&gt;dir_08ebf9492445e058b0ba4156a3978cfb -->
<g id="edge17" class="edge">
<title>dir_092aa99ea44c2ea5c05e2b02d3022b6c&#45;&gt;dir_08ebf9492445e058b0ba4156a3978cfb</title>
<g id="a_edge17"><a xlink:href="dir_000008_000001.html" target="_top">
<path fill="none" stroke="#63b8ff" d="M181.71,-181.35C181.03,-168.64 178.73,-144.98 171,-126.5 166.96,-116.85 160.51,-107.28 154.45,-99.49"/>
<polygon fill="#63b8ff" stroke="#63b8ff" points="157.23,-97.36 148.17,-91.87 151.83,-101.81 157.23,-97.36"/>
</a>
</g>
<g id="a_edge17&#45;headlabel"><a xlink:href="dir_000008_000001.html" target="_top" xlink:title="15">
<text text-anchor="middle" x="160.75" y="-93.28" font-family="Helvetica,sans-Serif" font-size="10.00" fill="#63b8ff">15</text>
</a>
</g>
</g>
<!-- dir_092aa99ea44c2ea5c05e2b02d3022b6c&#45;&gt;dir_2f75f8b84a1b0b31df547365a4a1eaf8 -->
<g id="edge18" class="edge">
<title>dir_092aa99ea44c2ea5c05e2b02d3022b6c&#45;&gt;dir_2f75f8b84a1b0b31df547365a4a1eaf8</title>
<g id="a_edge18"><a xlink:href="dir_000008_000013.html" target="_top">
<path fill="none" stroke="#63b8ff" d="M169.73,-181.58C162.53,-174.53 153.92,-164.4 147.45,-155.58"/>
<polygon fill="#63b8ff" stroke="#63b8ff" points="150.39,-153.69 141.9,-147.36 144.59,-157.61 150.39,-153.69"/>
</a>
</g>
<g id="a_edge18&#45;headlabel"><a xlink:href="dir_000008_000013.html" target="_top" xlink:title="11">
<text text-anchor="middle" x="153.91" y="-149.95" font-family="Helvetica,sans-Serif" font-size="10.00" fill="#63b8ff">11</text>
</a>
</g>
</g>
<!-- dir_18327b906210ac22926d8dfd10b98a1a&#45;&gt;dir_08ebf9492445e058b0ba4156a3978cfb -->
<g id="edge19" class="edge">
<title>dir_18327b906210ac22926d8dfd10b98a1a&#45;&gt;dir_08ebf9492445e058b0ba4156a3978cfb</title>
<g id="a_edge19"><a xlink:href="dir_000009_000001.html" target="_top">
<path fill="none" stroke="#63b8ff" d="M236.92,-236.5C236.49,-223.69 234.49,-199.89 226,-181.75 210.11,-147.79 179.17,-116.58 158.8,-98.39"/>
<polygon fill="#63b8ff" stroke="#63b8ff" points="161.26,-95.89 151.42,-91.98 156.67,-101.18 161.26,-95.89"/>
</a>
</g>
<g id="a_edge19&#45;headlabel"><a xlink:href="dir_000009_000001.html" target="_top" xlink:title="11">
<text text-anchor="middle" x="164.7" y="-91.24" font-family="Helvetica,sans-Serif" font-size="10.00" fill="#63b8ff">11</text>
</a>
</g>
</g>
<!-- dir_18327b906210ac22926d8dfd10b98a1a&#45;&gt;dir_092aa99ea44c2ea5c05e2b02d3022b6c -->
<g id="edge20" class="edge">
<title>dir_18327b906210ac22926d8dfd10b98a1a&#45;&gt;dir_092aa99ea44c2ea5c05e2b02d3022b6c</title>
<g id="a_edge20"><a xlink:href="dir_000009_000008.html" target="_top">
<path fill="none" stroke="#63b8ff" d="M227.92,-236.83C220.16,-229.32 208.79,-218.31 199.3,-209.13"/>
<polygon fill="#63b8ff" stroke="#63b8ff" points="201.99,-206.85 192.37,-202.41 197.12,-211.88 201.99,-206.85"/>
</a>
</g>
<g id="a_edge20&#45;headlabel"><a xlink:href="dir_000009_000008.html" target="_top" xlink:title="3">
<text text-anchor="middle" x="205.46" y="-202.39" font-family="Helvetica,sans-Serif" font-size="10.00" fill="#63b8ff">3</text>
</a>
</g>
</g>
<!-- dir_18327b906210ac22926d8dfd10b98a1a&#45;&gt;dir_2f75f8b84a1b0b31df547365a4a1eaf8 -->
<g id="edge21" class="edge">
<title>dir_18327b906210ac22926d8dfd10b98a1a&#45;&gt;dir_2f75f8b84a1b0b31df547365a4a1eaf8</title>
<g id="a_edge21"><a xlink:href="dir_000009_000013.html" target="_top">
<path fill="none" stroke="#63b8ff" d="M235.94,-236.84C233.93,-223.59 228.52,-198.27 215,-181.75 203.93,-168.22 187.6,-157.88 172.91,-150.57"/>
<polygon fill="#63b8ff" stroke="#63b8ff" points="174.52,-147.46 163.98,-146.43 171.57,-153.81 174.52,-147.46"/>
</a>
</g>
<g id="a_edge21&#45;headlabel"><a xlink:href="dir_000009_000013.html" target="_top" xlink:title="9">
<text text-anchor="middle" x="177.6" y="-141.89" font-family="Helvetica,sans-Serif" font-size="10.00" fill="#63b8ff">9</text>
</a>
</g>
</g>
<!-- dir_2f75f8b84a1b0b31df547365a4a1eaf8&#45;&gt;dir_08ebf9492445e058b0ba4156a3978cfb -->
<g id="edge22" class="edge">
<title>dir_2f75f8b84a1b0b31df547365a4a1eaf8&#45;&gt;dir_08ebf9492445e058b0ba4156a3978cfb</title>
<g id="a_edge22"><a xlink:href="dir_000013_000001.html" target="_top">
<path fill="none" stroke="#63b8ff" d="M139,-126.33C139,-119.82 139,-110.67 139,-102.37"/>
<polygon fill="#63b8ff" stroke="#63b8ff" points="142.5,-102.37 139,-92.37 135.5,-102.37 142.5,-102.37"/>
</a>
</g>
<g id="a_edge22&#45;headlabel"><a xlink:href="dir_000013_000001.html" target="_top" xlink:title="13">
<text text-anchor="middle" x="145.34" y="-100.58" font-family="Helvetica,sans-Serif" font-size="10.00" fill="#63b8ff">13</text>
</a>
</g>
</g>
<!-- dir_2f75f8b84a1b0b31df547365a4a1eaf8&#45;&gt;dir_092aa99ea44c2ea5c05e2b02d3022b6c -->
<g id="edge23" class="edge">
<title>dir_2f75f8b84a1b0b31df547365a4a1eaf8&#45;&gt;dir_092aa99ea44c2ea5c05e2b02d3022b6c</title>
<g id="a_edge23"><a xlink:href="dir_000013_000008.html" target="_top">
<path fill="none" stroke="#63b8ff" d="M151.46,-146.11C158.69,-153.21 167.3,-163.36 173.73,-172.15"/>
<polygon fill="#63b8ff" stroke="#63b8ff" points="170.74,-173.98 179.22,-180.33 176.55,-170.07 170.74,-173.98"/>
</a>
</g>
<g id="a_edge23&#45;headlabel"><a xlink:href="dir_000013_000008.html" target="_top" xlink:title="6">
<text text-anchor="middle" x="167.22" y="-169.96" font-family="Helvetica,sans-Serif" font-size="10.00" fill="#63b8ff">6</text>
</a>
</g>
</g>
</g>
</svg>
