<?xml version="1.0" encoding="UTF-8" standalone="no"?>
<!DOCTYPE svg PUBLIC "-//W3C//DTD SVG 1.1//EN"
 "http://www.w3.org/Graphics/SVG/1.1/DTD/svg11.dtd">
<!-- Generated by graphviz version 12.2.1 (20241206.2353)
 -->
<!-- Title: mimic++ Pages: 1 -->
<svg width="268pt" height="336pt"
 viewBox="0.00 0.00 268.00 335.50" xmlns="http://www.w3.org/2000/svg" xmlns:xlink="http://www.w3.org/1999/xlink">
<g id="graph0" class="graph" transform="scale(1 1) rotate(0) translate(4 331.5)">
<title>mimic++</title>
<g id="clust1" class="cluster">
<title>clusterdir_d1aac795712c1a80b032d3d2760385d8</title>
<g id="a_clust1"><a xlink:href="dir_d1aac795712c1a80b032d3d2760385d8.html" target="_top">
<polygon fill="#edf0f7" stroke="#404040" stroke-width="2" points="8,-8 8,-319.5 252,-319.5 252,-8 8,-8"/>
</a>
</g>
</g>
<!-- dir_d1aac795712c1a80b032d3d2760385d8 -->
<g id="node1" class="node">
<title>dir_d1aac795712c1a80b032d3d2760385d8</title>
<text text-anchor="middle" x="100" y="-298" font-family="Helvetica,sans-Serif" font-size="10.00">mimic++</text>
</g>
<!-- dir_08ebf9492445e058b0ba4156a3978cfb -->
<g id="node3" class="node">
<title>dir_08ebf9492445e058b0ba4156a3978cfb</title>
<g id="a_node3"><a xlink:href="dir_08ebf9492445e058b0ba4156a3978cfb.html" target="_top" xlink:title="config">
<polygon fill="#a2b4d6" stroke="#404040" points="108.75,-35.25 67.25,-35.25 67.25,-16 108.75,-16 108.75,-35.25"/>
<text text-anchor="middle" x="88" y="-21.75" font-family="Helvetica,sans-Serif" font-size="10.00">config</text>
</a>
</g>
</g>
<!-- dir_d1aac795712c1a80b032d3d2760385d8&#45;&gt;dir_08ebf9492445e058b0ba4156a3978cfb -->
<g id="edge1" class="edge">
<title>dir_d1aac795712c1a80b032d3d2760385d8&#45;&gt;dir_08ebf9492445e058b0ba4156a3978cfb</title>
<g id="a_edge1"><a xlink:href="dir_000004_000001.html" target="_top">
<path fill="none" stroke="#63b8ff" d="M87.03,-292.46C63.69,-276.17 17,-237.91 17,-192.38 17,-192.38 17,-192.38 17,-135.12 17,-97.5 47.26,-62.76 68.27,-43.17"/>
<polygon fill="#63b8ff" stroke="#63b8ff" points="70.34,-46.02 75.46,-36.75 65.67,-40.8 70.34,-46.02"/>
</a>
</g>
<g id="a_edge1&#45;headlabel"><a xlink:href="dir_000004_000001.html" target="_top" xlink:title="7">
<text text-anchor="middle" x="70.67" y="-45.65" font-family="Helvetica,sans-Serif" font-size="10.00" fill="#63b8ff">7</text>
</a>
</g>
</g>
<!-- dir_c8613b7c6812845d24ae03bf6f0c949e -->
<g id="node4" class="node">
<title>dir_c8613b7c6812845d24ae03bf6f0c949e</title>
<g id="a_node4"><a xlink:href="dir_c8613b7c6812845d24ae03bf6f0c949e.html" target="_top" xlink:title="matchers">
<polygon fill="#a2b4d6" stroke="#404040" points="112.25,-201 55.75,-201 55.75,-181.75 112.25,-181.75 112.25,-201"/>
<text text-anchor="middle" x="84" y="-187.5" font-family="Helvetica,sans-Serif" font-size="10.00">matchers</text>
</a>
</g>
</g>
<!-- dir_d1aac795712c1a80b032d3d2760385d8&#45;&gt;dir_c8613b7c6812845d24ae03bf6f0c949e -->
<g id="edge6" class="edge">
<title>dir_d1aac795712c1a80b032d3d2760385d8&#45;&gt;dir_c8613b7c6812845d24ae03bf6f0c949e</title>
<g id="a_edge6"><a xlink:href="dir_000004_000003.html" target="_top">
<path fill="none" stroke="#63b8ff" d="M98.74,-292.36C96.23,-275.34 90.53,-236.69 87,-212.73"/>
<polygon fill="#63b8ff" stroke="#63b8ff" points="90.48,-212.34 85.56,-202.95 83.56,-213.36 90.48,-212.34"/>
</a>
</g>
<g id="a_edge6&#45;headlabel"><a xlink:href="dir_000004_000003.html" target="_top" xlink:title="9">
<text text-anchor="middle" x="93.59" y="-210.11" font-family="Helvetica,sans-Serif" font-size="10.00" fill="#63b8ff">9</text>
</a>
</g>
</g>
<!-- dir_6ddbcebc0798903b88ee4423bc0f1618 -->
<g id="node5" class="node">
<title>dir_6ddbcebc0798903b88ee4423bc0f1618</title>
<g id="a_node5"><a xlink:href="dir_6ddbcebc0798903b88ee4423bc0f1618.html" target="_top" xlink:title="policies">
<polygon fill="#a2b4d6" stroke="#404040" points="155.5,-256.25 106.5,-256.25 106.5,-237 155.5,-237 155.5,-256.25"/>
<text text-anchor="middle" x="131" y="-242.75" font-family="Helvetica,sans-Serif" font-size="10.00">policies</text>
</a>
</g>
</g>
<!-- dir_d1aac795712c1a80b032d3d2760385d8&#45;&gt;dir_6ddbcebc0798903b88ee4423bc0f1618 -->
<g id="edge5" class="edge">
<title>dir_d1aac795712c1a80b032d3d2760385d8&#45;&gt;dir_6ddbcebc0798903b88ee4423bc0f1618</title>
<g id="a_edge5"><a xlink:href="dir_000004_000005.html" target="_top">
<path fill="none" stroke="#63b8ff" d="M104.84,-292.55C108.96,-285.49 115.01,-275.09 120.26,-266.08"/>
<polygon fill="#63b8ff" stroke="#63b8ff" points="123.11,-268.13 125.12,-257.73 117.06,-264.61 123.11,-268.13"/>
</a>
</g>
<g id="a_edge5&#45;headlabel"><a xlink:href="dir_000004_000005.html" target="_top" xlink:title="10">
<text text-anchor="middle" x="124.52" y="-267.48" font-family="Helvetica,sans-Serif" font-size="10.00" fill="#63b8ff">10</text>
</a>
</g>
</g>
<!-- dir_092aa99ea44c2ea5c05e2b02d3022b6c -->
<g id="node6" class="node">
<title>dir_092aa99ea44c2ea5c05e2b02d3022b6c</title>
<g id="a_node6"><a xlink:href="dir_092aa99ea44c2ea5c05e2b02d3022b6c.html" target="_top" xlink:title="printing">
<polygon fill="#a2b4d6" stroke="#404040" points="111.75,-145.75 64.25,-145.75 64.25,-126.5 111.75,-126.5 111.75,-145.75"/>
<text text-anchor="middle" x="88" y="-132.25" font-family="Helvetica,sans-Serif" font-size="10.00">printing</text>
</a>
</g>
</g>
<!-- dir_d1aac795712c1a80b032d3d2760385d8&#45;&gt;dir_092aa99ea44c2ea5c05e2b02d3022b6c -->
<g id="edge2" class="edge">
<title>dir_d1aac795712c1a80b032d3d2760385d8&#45;&gt;dir_092aa99ea44c2ea5c05e2b02d3022b6c</title>
<g id="a_edge2"><a xlink:href="dir_000004_000006.html" target="_top">
<path fill="none" stroke="#63b8ff" d="M93.8,-292.64C81.89,-276.26 56.2,-237.95 47,-201 44.93,-192.7 43.89,-189.72 47,-181.75 51.16,-171.07 59.21,-161.39 67.08,-153.8"/>
<polygon fill="#63b8ff" stroke="#63b8ff" points="69.39,-156.44 74.55,-147.18 64.74,-151.2 69.39,-156.44"/>
</a>
</g>
<g id="a_edge2&#45;headlabel"><a xlink:href="dir_000004_000006.html" target="_top" xlink:title="28">
<text text-anchor="middle" x="69.72" y="-156.07" font-family="Helvetica,sans-Serif" font-size="10.00" fill="#63b8ff">28</text>
</a>
</g>
</g>
<!-- dir_18327b906210ac22926d8dfd10b98a1a -->
<g id="node7" class="node">
<title>dir_18327b906210ac22926d8dfd10b98a1a</title>
<g id="a_node7"><a xlink:href="dir_18327b906210ac22926d8dfd10b98a1a.html" target="_top" xlink:title="reporting">
<polygon fill="#a2b4d6" stroke="#404040" points="223.75,-201 170.25,-201 170.25,-181.75 223.75,-181.75 223.75,-201"/>
<text text-anchor="middle" x="197" y="-187.5" font-family="Helvetica,sans-Serif" font-size="10.00">reporting</text>
</a>
</g>
</g>
<!-- dir_d1aac795712c1a80b032d3d2760385d8&#45;&gt;dir_18327b906210ac22926d8dfd10b98a1a -->
<g id="edge3" class="edge">
<title>dir_d1aac795712c1a80b032d3d2760385d8&#45;&gt;dir_18327b906210ac22926d8dfd10b98a1a</title>
<g id="a_edge3"><a xlink:href="dir_000004_000007.html" target="_top">
<path fill="none" stroke="#63b8ff" d="M116.98,-292.38C131.25,-284.56 151.42,-271.83 165,-256.25 176.34,-243.23 184.81,-225.48 190.18,-212"/>
<polygon fill="#63b8ff" stroke="#63b8ff" points="193.36,-213.48 193.56,-202.89 186.8,-211.04 193.36,-213.48"/>
</a>
</g>
<g id="a_edge3&#45;headlabel"><a xlink:href="dir_000004_000007.html" target="_top" xlink:title="20">
<text text-anchor="middle" x="195.3" y="-212.55" font-family="Helvetica,sans-Serif" font-size="10.00" fill="#63b8ff">20</text>
</a>
</g>
</g>
<!-- dir_2f75f8b84a1b0b31df547365a4a1eaf8 -->
<g id="node8" class="node">
<title>dir_2f75f8b84a1b0b31df547365a4a1eaf8</title>
<g id="a_node8"><a xlink:href="dir_2f75f8b84a1b0b31df547365a4a1eaf8.html" target="_top" xlink:title="utilities">
<polygon fill="#a2b4d6" stroke="#404040" points="154.38,-90.5 107.62,-90.5 107.62,-71.25 154.38,-71.25 154.38,-90.5"/>
<text text-anchor="middle" x="131" y="-77" font-family="Helvetica,sans-Serif" font-size="10.00">utilities</text>
</a>
</g>
</g>
<!-- dir_d1aac795712c1a80b032d3d2760385d8&#45;&gt;dir_2f75f8b84a1b0b31df547365a4a1eaf8 -->
<g id="edge4" class="edge">
<title>dir_d1aac795712c1a80b032d3d2760385d8&#45;&gt;dir_2f75f8b84a1b0b31df547365a4a1eaf8</title>
<g id="a_edge4"><a xlink:href="dir_000004_000010.html" target="_top">
<path fill="none" stroke="#63b8ff" d="M123.17,-292.26C155.66,-278.68 213,-248.82 233,-201 251.55,-156.65 195.99,-116.81 159.72,-96.35"/>
<polygon fill="#63b8ff" stroke="#63b8ff" points="161.42,-93.3 150.97,-91.6 158.08,-99.45 161.42,-93.3"/>
</a>
</g>
<g id="a_edge4&#45;headlabel"><a xlink:href="dir_000004_000010.html" target="_top" xlink:title="36">
<text text-anchor="middle" x="164.61" y="-87.92" font-family="Helvetica,sans-Serif" font-size="10.00" fill="#63b8ff">36</text>
</a>
</g>
</g>
<!-- dir_fea71f381ece93f367616978be34972a -->
<g id="node2" class="node">
<title>dir_fea71f381ece93f367616978be34972a</title>
<g id="a_node2"><a xlink:href="dir_fea71f381ece93f367616978be34972a.html" target="_top" xlink:title="adapters">
<polygon fill="#a2b4d6" stroke="#404040" points="228.75,-311.5 175.25,-311.5 175.25,-292.25 228.75,-292.25 228.75,-311.5"/>
<text text-anchor="middle" x="202" y="-298" font-family="Helvetica,sans-Serif" font-size="10.00">adapters</text>
</a>
</g>
</g>
<!-- dir_c8613b7c6812845d24ae03bf6f0c949e&#45;&gt;dir_092aa99ea44c2ea5c05e2b02d3022b6c -->
<g id="edge7" class="edge">
<title>dir_c8613b7c6812845d24ae03bf6f0c949e&#45;&gt;dir_092aa99ea44c2ea5c05e2b02d3022b6c</title>
<g id="a_edge7"><a xlink:href="dir_000003_000006.html" target="_top">
<path fill="none" stroke="#63b8ff" d="M84.66,-181.58C85.16,-174.99 85.85,-165.71 86.48,-157.32"/>
<polygon fill="#63b8ff" stroke="#63b8ff" points="89.95,-157.85 87.21,-147.62 82.97,-157.33 89.95,-157.85"/>
</a>
</g>
<g id="a_edge7&#45;headlabel"><a xlink:href="dir_000003_000006.html" target="_top" xlink:title="4">
<text text-anchor="middle" x="92.63" y="-156.27" font-family="Helvetica,sans-Serif" font-size="10.00" fill="#63b8ff">4</text>
</a>
</g>
</g>
<!-- dir_c8613b7c6812845d24ae03bf6f0c949e&#45;&gt;dir_2f75f8b84a1b0b31df547365a4a1eaf8 -->
<g id="edge8" class="edge">
<title>dir_c8613b7c6812845d24ae03bf6f0c949e&#45;&gt;dir_2f75f8b84a1b0b31df547365a4a1eaf8</title>
<g id="a_edge8"><a xlink:href="dir_000003_000010.html" target="_top">
<path fill="none" stroke="#63b8ff" d="M93.91,-181.5C102.53,-173.16 114.63,-159.88 121,-145.75 127.16,-132.09 129.62,-115.31 130.55,-102.37"/>
<polygon fill="#63b8ff" stroke="#63b8ff" points="134.05,-102.64 131,-92.49 127.05,-102.32 134.05,-102.64"/>
</a>
</g>
<g id="a_edge8&#45;headlabel"><a xlink:href="dir_000003_000010.html" target="_top" xlink:title="2">
<text text-anchor="middle" x="136.79" y="-100.97" font-family="Helvetica,sans-Serif" font-size="10.00" fill="#63b8ff">2</text>
</a>
</g>
</g>
<!-- dir_6ddbcebc0798903b88ee4423bc0f1618&#45;&gt;dir_c8613b7c6812845d24ae03bf6f0c949e -->
<g id="edge12" class="edge">
<title>dir_6ddbcebc0798903b88ee4423bc0f1618&#45;&gt;dir_c8613b7c6812845d24ae03bf6f0c949e</title>
<g id="a_edge12"><a xlink:href="dir_000005_000003.html" target="_top">
<path fill="none" stroke="#63b8ff" d="M123.24,-236.83C116.81,-229.55 107.49,-218.98 99.54,-209.98"/>
<polygon fill="#63b8ff" stroke="#63b8ff" points="102.17,-207.68 92.93,-202.49 96.92,-212.31 102.17,-207.68"/>
</a>
</g>
<g id="a_edge12&#45;headlabel"><a xlink:href="dir_000005_000003.html" target="_top" xlink:title="1">
<text text-anchor="middle" x="105.68" y="-203.48" font-family="Helvetica,sans-Serif" font-size="10.00" fill="#63b8ff">1</text>
</a>
</g>
</g>
<!-- dir_6ddbcebc0798903b88ee4423bc0f1618&#45;&gt;dir_092aa99ea44c2ea5c05e2b02d3022b6c -->
<g id="edge9" class="edge">
<title>dir_6ddbcebc0798903b88ee4423bc0f1618&#45;&gt;dir_092aa99ea44c2ea5c05e2b02d3022b6c</title>
<g id="a_edge9"><a xlink:href="dir_000005_000006.html" target="_top">
<path fill="none" stroke="#63b8ff" d="M130.93,-236.58C130.53,-223.86 128.71,-200.18 121,-181.75 116.98,-172.12 110.45,-162.66 104.26,-154.94"/>
<polygon fill="#63b8ff" stroke="#63b8ff" points="106.95,-152.7 97.8,-147.36 101.63,-157.24 106.95,-152.7"/>
</a>
</g>
<g id="a_edge9&#45;headlabel"><a xlink:href="dir_000005_000006.html" target="_top" xlink:title="1">
<text text-anchor="middle" x="110.46" y="-148.56" font-family="Helvetica,sans-Serif" font-size="10.00" fill="#63b8ff">1</text>
</a>
</g>
</g>
<!-- dir_6ddbcebc0798903b88ee4423bc0f1618&#45;&gt;dir_18327b906210ac22926d8dfd10b98a1a -->
<g id="edge10" class="edge">
<title>dir_6ddbcebc0798903b88ee4423bc0f1618&#45;&gt;dir_18327b906210ac22926d8dfd10b98a1a</title>
<g id="a_edge10"><a xlink:href="dir_000005_000007.html" target="_top">
<path fill="none" stroke="#63b8ff" d="M142.2,-236.59C151.74,-228.9 165.67,-217.65 177.11,-208.43"/>
<polygon fill="#63b8ff" stroke="#63b8ff" points="179.21,-211.23 184.79,-202.23 174.81,-205.78 179.21,-211.23"/>
</a>
</g>
<g id="a_edge10&#45;headlabel"><a xlink:href="dir_000005_000007.html" target="_top" xlink:title="1">
<text text-anchor="middle" x="179.37" y="-210.87" font-family="Helvetica,sans-Serif" font-size="10.00" fill="#63b8ff">1</text>
</a>
</g>
</g>
<!-- dir_6ddbcebc0798903b88ee4423bc0f1618&#45;&gt;dir_2f75f8b84a1b0b31df547365a4a1eaf8 -->
<g id="edge11" class="edge">
<title>dir_6ddbcebc0798903b88ee4423bc0f1618&#45;&gt;dir_2f75f8b84a1b0b31df547365a4a1eaf8</title>
<g id="a_edge11"><a xlink:href="dir_000005_000010.html" target="_top">
<path fill="none" stroke="#63b8ff" d="M131,-236.82C131,-211.5 131,-138 131,-102.09"/>
<polygon fill="#63b8ff" stroke="#63b8ff" points="134.5,-102.24 131,-92.24 127.5,-102.24 134.5,-102.24"/>
</a>
</g>
<g id="a_edge11&#45;headlabel"><a xlink:href="dir_000005_000010.html" target="_top" xlink:title="2">
<text text-anchor="middle" x="137.34" y="-100.44" font-family="Helvetica,sans-Serif" font-size="10.00" fill="#63b8ff">2</text>
</a>
</g>
</g>
<!-- dir_092aa99ea44c2ea5c05e2b02d3022b6c&#45;&gt;dir_08ebf9492445e058b0ba4156a3978cfb -->
<g id="edge13" class="edge">
<title>dir_092aa99ea44c2ea5c05e2b02d3022b6c&#45;&gt;dir_08ebf9492445e058b0ba4156a3978cfb</title>
<g id="a_edge13"><a xlink:href="dir_000006_000001.html" target="_top">
<path fill="none" stroke="#63b8ff" d="M88,-126.25C88,-109 88,-70.58 88,-46.81"/>
<polygon fill="#63b8ff" stroke="#63b8ff" points="91.5,-47.14 88,-37.14 84.5,-47.14 91.5,-47.14"/>
</a>
</g>
<g id="a_edge13&#45;headlabel"><a xlink:href="dir_000006_000001.html" target="_top" xlink:title="3">
<text text-anchor="middle" x="94.34" y="-45.35" font-family="Helvetica,sans-Serif" font-size="10.00" fill="#63b8ff">3</text>
</a>
</g>
</g>
<!-- dir_092aa99ea44c2ea5c05e2b02d3022b6c&#45;&gt;dir_2f75f8b84a1b0b31df547365a4a1eaf8 -->
<g id="edge14" class="edge">
<title>dir_092aa99ea44c2ea5c05e2b02d3022b6c&#45;&gt;dir_2f75f8b84a1b0b31df547365a4a1eaf8</title>
<g id="a_edge14"><a xlink:href="dir_000006_000010.html" target="_top">
<path fill="none" stroke="#63b8ff" d="M89.93,-126.33C94.3,-118.98 102.55,-108.26 110.65,-99.19"/>
<polygon fill="#63b8ff" stroke="#63b8ff" points="113.16,-101.63 117.5,-91.96 108.08,-96.81 113.16,-101.63"/>
</a>
</g>
<g id="a_edge14&#45;headlabel"><a xlink:href="dir_000006_000010.html" target="_top" xlink:title="7">
<text text-anchor="middle" x="113.79" y="-101.21" font-family="Helvetica,sans-Serif" font-size="10.00" fill="#63b8ff">7</text>
</a>
</g>
</g>
<!-- dir_18327b906210ac22926d8dfd10b98a1a&#45;&gt;dir_092aa99ea44c2ea5c05e2b02d3022b6c -->
<g id="edge15" class="edge">
<title>dir_18327b906210ac22926d8dfd10b98a1a&#45;&gt;dir_092aa99ea44c2ea5c05e2b02d3022b6c</title>
<g id="a_edge15"><a xlink:href="dir_000007_000006.html" target="_top">
<path fill="none" stroke="#63b8ff" d="M178.51,-181.34C161.6,-173.08 136.31,-160.73 116.76,-151.18"/>
<polygon fill="#63b8ff" stroke="#63b8ff" points="118.46,-148.11 107.94,-146.87 115.39,-154.4 118.46,-148.11"/>
</a>
</g>
<g id="a_edge15&#45;headlabel"><a xlink:href="dir_000007_000006.html" target="_top" xlink:title="3">
<text text-anchor="middle" x="121.58" y="-142.6" font-family="Helvetica,sans-Serif" font-size="10.00" fill="#63b8ff">3</text>
</a>
</g>
</g>
<!-- dir_18327b906210ac22926d8dfd10b98a1a&#45;&gt;dir_2f75f8b84a1b0b31df547365a4a1eaf8 -->
<g id="edge16" class="edge">
<title>dir_18327b906210ac22926d8dfd10b98a1a&#45;&gt;dir_2f75f8b84a1b0b31df547365a4a1eaf8</title>
<g id="a_edge16"><a xlink:href="dir_000007_000010.html" target="_top">
<path fill="none" stroke="#63b8ff" d="M191.6,-181.5C180.87,-163.85 156.66,-124.05 142.3,-100.45"/>
<polygon fill="#63b8ff" stroke="#63b8ff" points="145.45,-98.89 137.26,-92.17 139.47,-102.53 145.45,-98.89"/>
</a>
</g>
<g id="a_edge16&#45;headlabel"><a xlink:href="dir_000007_000010.html" target="_top" xlink:title="6">
<text text-anchor="middle" x="148.96" y="-95.32" font-family="Helvetica,sans-Serif" font-size="10.00" fill="#63b8ff">6</text>
</a>
</g>
</g>
<!-- dir_2f75f8b84a1b0b31df547365a4a1eaf8&#45;&gt;dir_08ebf9492445e058b0ba4156a3978cfb -->
<g id="edge17" class="edge">
<title>dir_2f75f8b84a1b0b31df547365a4a1eaf8&#45;&gt;dir_08ebf9492445e058b0ba4156a3978cfb</title>
<g id="a_edge17"><a xlink:href="dir_000010_000001.html" target="_top">
<path fill="none" stroke="#63b8ff" d="M123.9,-71.08C118.08,-63.88 109.67,-53.46 102.44,-44.51"/>
<polygon fill="#63b8ff" stroke="#63b8ff" points="105.21,-42.37 96.21,-36.79 99.77,-46.77 105.21,-42.37"/>
</a>
</g>
<g id="a_edge17&#45;headlabel"><a xlink:href="dir_000010_000001.html" target="_top" xlink:title="1">
<text text-anchor="middle" x="108.73" y="-38.33" font-family="Helvetica,sans-Serif" font-size="10.00" fill="#63b8ff">1</text>
</a>
</g>
</g>
<!-- dir_2f75f8b84a1b0b31df547365a4a1eaf8&#45;&gt;dir_092aa99ea44c2ea5c05e2b02d3022b6c -->
<g id="edge18" class="edge">
<title>dir_2f75f8b84a1b0b31df547365a4a1eaf8&#45;&gt;dir_092aa99ea44c2ea5c05e2b02d3022b6c</title>
<g id="a_edge18"><a xlink:href="dir_000010_000006.html" target="_top">
<path fill="none" stroke="#63b8ff" d="M128.95,-90.86C124.52,-98.27 116.24,-109 108.14,-118.04"/>
<polygon fill="#63b8ff" stroke="#63b8ff" points="105.66,-115.57 101.31,-125.23 110.73,-120.4 105.66,-115.57"/>
</a>
</g>
<g id="a_edge18&#45;headlabel"><a xlink:href="dir_000010_000006.html" target="_top" xlink:title="2">
<text text-anchor="middle" x="105.04" y="-108.24" font-family="Helvetica,sans-Serif" font-size="10.00" fill="#63b8ff">2</text>
</a>
</g>
</g>
</g>
</svg>
