<?xml version="1.0" encoding="UTF-8" standalone="no"?>
<!DOCTYPE svg PUBLIC "-//W3C//DTD SVG 1.1//EN"
 "http://www.w3.org/Graphics/SVG/1.1/DTD/svg11.dtd">
<!-- Generated by graphviz version 12.2.1 (20241206.2353)
 -->
<!-- Title: Graphical Class Hierarchy Pages: 1 -->
<svg width="306pt" height="450pt"
 viewBox="0.00 0.00 305.50 450.00" xmlns="http://www.w3.org/2000/svg" xmlns:xlink="http://www.w3.org/1999/xlink">
<g id="graph0" class="graph" transform="scale(1 1) rotate(0) translate(4 446)">
<title>Graphical Class Hierarchy</title>
<!-- Node0 -->
<g id="Node000000" class="node">
<title>Node0</title>
<g id="a_Node000000"><a xlink:href="d2/dcd/classmimicpp_1_1reporting_1_1_i_reporter.html" target="_top" xlink:title="The reporter interface.">
<polygon fill="white" stroke="#666666" points="94.75,-199.5 0,-199.5 0,-169 94.75,-169 94.75,-199.5"/>
<text text-anchor="start" x="8" y="-186" font-family="Helvetica,sans-Serif" font-size="10.00">mimicpp::reporting</text>
<text text-anchor="middle" x="47.38" y="-174.75" font-family="Helvetica,sans-Serif" font-size="10.00">::IReporter</text>
</a>
</g>
</g>
<!-- Node1 -->
<g id="Node000001" class="node">
<title>Node1</title>
<g id="a_Node000001"><a xlink:href="d5/db8/classmimicpp_1_1reporting_1_1_basic_reporter.html" target="_top" xlink:title=" ">
<polygon fill="white" stroke="#666666" points="284.38,-442 143.88,-442 143.88,-366.5 284.38,-366.5 284.38,-442"/>
<text text-anchor="start" x="151.88" y="-428.5" font-family="Helvetica,sans-Serif" font-size="10.00">mimicpp::reporting</text>
<text text-anchor="start" x="151.88" y="-417.25" font-family="Helvetica,sans-Serif" font-size="10.00">::BasicReporter&lt; &amp;detail</text>
<text text-anchor="start" x="151.88" y="-406" font-family="Helvetica,sans-Serif" font-size="10.00">::boost_test::send_success,</text>
<text text-anchor="start" x="151.88" y="-394.75" font-family="Helvetica,sans-Serif" font-size="10.00"> &amp;detail::boost_test::send</text>
<text text-anchor="start" x="151.88" y="-383.5" font-family="Helvetica,sans-Serif" font-size="10.00">_warning, &amp;detail::boost_test</text>
<text text-anchor="middle" x="214.12" y="-372.25" font-family="Helvetica,sans-Serif" font-size="10.00">::send_fail &gt;</text>
</a>
</g>
</g>
<!-- Node0&#45;&gt;Node1 -->
<g id="edge10_Node000000_Node000001" class="edge">
<title>Node0&#45;&gt;Node1</title>
<g id="a_edge10_Node000000_Node000001"><a xlink:title=" ">
<path fill="none" stroke="#63b8ff" d="M55.48,-210.71C66.44,-247.35 90.51,-313.92 130.75,-357.25 134.67,-361.47 139.06,-365.42 143.72,-369.09"/>
<polygon fill="#63b8ff" stroke="#63b8ff" points="58.93,-210.03 52.8,-201.38 52.2,-211.96 58.93,-210.03"/>
</a>
</g>
</g>
<!-- Node2 -->
<g id="Node000002" class="node">
<title>Node2</title>
<g id="a_Node000002"><a xlink:href="d5/db8/classmimicpp_1_1reporting_1_1_basic_reporter.html" target="_top" xlink:title=" ">
<polygon fill="white" stroke="#666666" points="288.88,-348.38 139.38,-348.38 139.38,-284.12 288.88,-284.12 288.88,-348.38"/>
<text text-anchor="start" x="147.38" y="-334.88" font-family="Helvetica,sans-Serif" font-size="10.00">mimicpp::reporting</text>
<text text-anchor="start" x="147.38" y="-323.62" font-family="Helvetica,sans-Serif" font-size="10.00">::BasicReporter&lt; &amp;detail</text>
<text text-anchor="start" x="147.38" y="-312.38" font-family="Helvetica,sans-Serif" font-size="10.00">::catch2::send_success,</text>
<text text-anchor="start" x="147.38" y="-301.12" font-family="Helvetica,sans-Serif" font-size="10.00"> &amp;detail::catch2::send_warning,</text>
<text text-anchor="middle" x="214.12" y="-289.88" font-family="Helvetica,sans-Serif" font-size="10.00"> &amp;detail::catch2::send_fail &gt;</text>
</a>
</g>
</g>
<!-- Node0&#45;&gt;Node2 -->
<g id="edge11_Node000000_Node000002" class="edge">
<title>Node0&#45;&gt;Node2</title>
<g id="a_edge11_Node000000_Node000002"><a xlink:title=" ">
<path fill="none" stroke="#63b8ff" d="M66.36,-208.73C81.79,-228.51 105.5,-256.12 130.75,-275.25 134.7,-278.24 138.9,-281.11 143.23,-283.84"/>
<polygon fill="#63b8ff" stroke="#63b8ff" points="69.24,-206.75 60.39,-200.93 63.68,-211 69.24,-206.75"/>
</a>
</g>
</g>
<!-- Node3 -->
<g id="Node000003" class="node">
<title>Node3</title>
<g id="a_Node000003"><a xlink:href="d5/db8/classmimicpp_1_1reporting_1_1_basic_reporter.html" target="_top" xlink:title=" ">
<polygon fill="white" stroke="#666666" points="277.62,-266 150.62,-266 150.62,-190.5 277.62,-190.5 277.62,-266"/>
<text text-anchor="start" x="158.62" y="-252.5" font-family="Helvetica,sans-Serif" font-size="10.00">mimicpp::reporting</text>
<text text-anchor="start" x="158.62" y="-241.25" font-family="Helvetica,sans-Serif" font-size="10.00">::BasicReporter&lt; &amp;detail</text>
<text text-anchor="start" x="158.62" y="-230" font-family="Helvetica,sans-Serif" font-size="10.00">::doctest::send_success,</text>
<text text-anchor="start" x="158.62" y="-218.75" font-family="Helvetica,sans-Serif" font-size="10.00"> &amp;detail::doctest::send</text>
<text text-anchor="start" x="158.62" y="-207.5" font-family="Helvetica,sans-Serif" font-size="10.00">_warning, &amp;detail::doctest</text>
<text text-anchor="middle" x="214.12" y="-196.25" font-family="Helvetica,sans-Serif" font-size="10.00">::send_fail &gt;</text>
</a>
</g>
</g>
<!-- Node0&#45;&gt;Node3 -->
<g id="edge12_Node000000_Node000003" class="edge">
<title>Node0&#45;&gt;Node3</title>
<g id="a_edge12_Node000000_Node000003"><a xlink:title=" ">
<path fill="none" stroke="#63b8ff" d="M105.86,-199.6C120.2,-203.43 135.65,-207.56 150.24,-211.45"/>
<polygon fill="#63b8ff" stroke="#63b8ff" points="107.17,-196.33 96.61,-197.13 105.37,-203.09 107.17,-196.33"/>
</a>
</g>
</g>
<!-- Node4 -->
<g id="Node000004" class="node">
<title>Node4</title>
<g id="a_Node000004"><a xlink:href="d5/db8/classmimicpp_1_1reporting_1_1_basic_reporter.html" target="_top" xlink:title=" ">
<polygon fill="white" stroke="#666666" points="285.12,-172.38 143.12,-172.38 143.12,-108.12 285.12,-108.12 285.12,-172.38"/>
<text text-anchor="start" x="151.12" y="-158.88" font-family="Helvetica,sans-Serif" font-size="10.00">mimicpp::reporting</text>
<text text-anchor="start" x="151.12" y="-147.62" font-family="Helvetica,sans-Serif" font-size="10.00">::BasicReporter&lt; &amp;detail</text>
<text text-anchor="start" x="151.12" y="-136.38" font-family="Helvetica,sans-Serif" font-size="10.00">::gtest::send_success,</text>
<text text-anchor="start" x="151.12" y="-125.12" font-family="Helvetica,sans-Serif" font-size="10.00"> &amp;detail::gtest::send_warning,</text>
<text text-anchor="middle" x="214.12" y="-113.88" font-family="Helvetica,sans-Serif" font-size="10.00"> &amp;detail::gtest::send_fail &gt;</text>
</a>
</g>
</g>
<!-- Node0&#45;&gt;Node4 -->
<g id="edge13_Node000000_Node000004" class="edge">
<title>Node0&#45;&gt;Node4</title>
<g id="a_edge13_Node000000_Node000004"><a xlink:title=" ">
<path fill="none" stroke="#63b8ff" d="M106.23,-168.8C118.06,-165.64 130.64,-162.28 142.85,-159.02"/>
<polygon fill="#63b8ff" stroke="#63b8ff" points="105.37,-165.41 96.61,-171.37 107.17,-172.17 105.37,-165.41"/>
</a>
</g>
</g>
<!-- Node5 -->
<g id="Node000005" class="node">
<title>Node5</title>
<g id="a_Node000005"><a xlink:href="d5/db8/classmimicpp_1_1reporting_1_1_basic_reporter.html" target="_top" xlink:title="A reporter, which creates text messages and reports them via the provided callbacks.">
<polygon fill="white" stroke="#666666" points="297.5,-90.12 130.75,-90.12 130.75,-48.38 297.5,-48.38 297.5,-90.12"/>
<text text-anchor="start" x="138.75" y="-76.62" font-family="Helvetica,sans-Serif" font-size="10.00">mimicpp::reporting</text>
<text text-anchor="start" x="138.75" y="-65.38" font-family="Helvetica,sans-Serif" font-size="10.00">::BasicReporter&lt; successReporter,</text>
<text text-anchor="middle" x="214.12" y="-54.12" font-family="Helvetica,sans-Serif" font-size="10.00"> warningReporter, failReporter &gt;</text>
</a>
</g>
</g>
<!-- Node0&#45;&gt;Node5 -->
<g id="edge14_Node000000_Node000005" class="edge">
<title>Node0&#45;&gt;Node5</title>
<g id="a_edge14_Node000000_Node000005"><a xlink:title=" ">
<path fill="none" stroke="#63b8ff" d="M66.9,-159.81C82.23,-141.02 105.53,-115.6 130.75,-99.25 135.6,-96.1 140.83,-93.23 146.21,-90.62"/>
<polygon fill="#63b8ff" stroke="#63b8ff" points="64.26,-157.49 60.78,-167.5 69.74,-161.85 64.26,-157.49"/>
</a>
</g>
</g>
<!-- Node6 -->
<g id="Node000006" class="node">
<title>Node6</title>
<g id="a_Node000006"><a xlink:href="d0/d1c/classmimicpp_1_1reporting_1_1_default_reporter.html" target="_top" xlink:title="The default reporter.">
<polygon fill="white" stroke="#666666" points="261.5,-30.5 166.75,-30.5 166.75,0 261.5,0 261.5,-30.5"/>
<text text-anchor="start" x="174.75" y="-17" font-family="Helvetica,sans-Serif" font-size="10.00">mimicpp::reporting</text>
<text text-anchor="middle" x="214.12" y="-5.75" font-family="Helvetica,sans-Serif" font-size="10.00">::DefaultReporter</text>
</a>
</g>
</g>
<!-- Node0&#45;&gt;Node6 -->
<g id="edge15_Node000000_Node000006" class="edge">
<title>Node0&#45;&gt;Node6</title>
<g id="a_edge15_Node000000_Node000006"><a xlink:title=" ">
<path fill="none" stroke="#63b8ff" d="M56.42,-158C67.75,-125.38 91.53,-70.24 130.75,-39.25 141.03,-31.12 153.98,-25.75 166.55,-22.19"/>
<polygon fill="#63b8ff" stroke="#63b8ff" points="53.23,-156.49 53.4,-167.09 59.87,-158.7 53.23,-156.49"/>
</a>
</g>
</g>
</g>
</svg>
