<?xml version="1.0" encoding="UTF-8" standalone="no"?>
<!DOCTYPE svg PUBLIC "-//W3C//DTD SVG 1.1//EN"
 "http://www.w3.org/Graphics/SVG/1.1/DTD/svg11.dtd">
<!-- Generated by graphviz version 12.2.1 (20241206.2353)
 -->
<!-- Title: Graphical Class Hierarchy Pages: 1 -->
<svg width="261pt" height="468pt"
 viewBox="0.00 0.00 260.50 467.88" xmlns="http://www.w3.org/2000/svg" xmlns:xlink="http://www.w3.org/1999/xlink">
<g id="graph0" class="graph" transform="scale(1 1) rotate(0) translate(4 463.88)">
<title>Graphical Class Hierarchy</title>
<!-- Node0 -->
<g id="Node000000" class="node">
<title>Node0</title>
<g id="a_Node000000"><a xlink:title=" ">
<polygon fill="#e0e0e0" stroke="#999999" points="83.5,-429.25 0,-429.25 0,-410 83.5,-410 83.5,-429.25"/>
<text text-anchor="middle" x="41.75" y="-415.75" font-family="Helvetica,sans-Serif" font-size="10.00">std::conjunction</text>
</a>
</g>
</g>
<!-- Node1 -->
<g id="Node000001" class="node">
<title>Node1</title>
<g id="a_Node000001"><a xlink:href="d5/d31/structmimicpp_1_1is__overload__set_3_01_first_01_4.html" target="_top" xlink:title=" ">
<polygon fill="white" stroke="#666666" points="239.38,-410.88 132.62,-410.88 132.62,-380.38 239.38,-380.38 239.38,-410.88"/>
<text text-anchor="start" x="140.62" y="-397.38" font-family="Helvetica,sans-Serif" font-size="10.00">mimicpp::is_overload</text>
<text text-anchor="middle" x="186" y="-386.12" font-family="Helvetica,sans-Serif" font-size="10.00">_set&lt; First &gt;</text>
</a>
</g>
</g>
<!-- Node0&#45;&gt;Node1 -->
<g id="edge25_Node000000_Node000001" class="edge">
<title>Node0&#45;&gt;Node1</title>
<g id="a_edge25_Node000000_Node000001"><a xlink:title=" ">
<path fill="none" stroke="#63b8ff" d="M95.2,-410.78C107.3,-408.73 120.17,-406.56 132.27,-404.52"/>
<polygon fill="#63b8ff" stroke="#63b8ff" points="94.67,-407.32 85.39,-412.43 95.83,-414.22 94.67,-407.32"/>
</a>
</g>
</g>
<!-- Node12 -->
<g id="Node000012" class="node">
<title>Node12</title>
<g id="a_Node000012"><a xlink:href="dd/df5/structmimicpp_1_1is__overload__set.html" target="_top" xlink:title="Primary template.">
<polygon fill="white" stroke="#666666" points="239.38,-459.88 132.62,-459.88 132.62,-429.38 239.38,-429.38 239.38,-459.88"/>
<text text-anchor="start" x="140.62" y="-446.38" font-family="Helvetica,sans-Serif" font-size="10.00">mimicpp::is_overload</text>
<text text-anchor="middle" x="186" y="-435.12" font-family="Helvetica,sans-Serif" font-size="10.00">_set&lt; First, Others &gt;</text>
</a>
</g>
</g>
<!-- Node0&#45;&gt;Node12 -->
<g id="edge26_Node000000_Node000012" class="edge">
<title>Node0&#45;&gt;Node12</title>
<g id="a_edge26_Node000000_Node000012"><a xlink:title=" ">
<path fill="none" stroke="#63b8ff" d="M95.2,-428.84C107.3,-430.97 120.17,-433.23 132.27,-435.36"/>
<polygon fill="#63b8ff" stroke="#63b8ff" points="95.84,-425.4 85.39,-427.12 94.63,-432.3 95.84,-425.4"/>
</a>
</g>
</g>
<!-- Node4 -->
<g id="Node000004" class="node">
<title>Node4</title>
<g id="a_Node000004"><a xlink:title=" ">
<polygon fill="#e0e0e0" stroke="#999999" points="80.88,-187.25 2.62,-187.25 2.62,-168 80.88,-168 80.88,-187.25"/>
<text text-anchor="middle" x="41.75" y="-173.75" font-family="Helvetica,sans-Serif" font-size="10.00">std::false_type</text>
</a>
</g>
</g>
<!-- Node3 -->
<g id="Node000003" class="node">
<title>Node3</title>
<g id="a_Node000003"><a xlink:href="d2/dad/structmimicpp_1_1is__character_3_01char_01_4.html" target="_top" xlink:title="Specialization for char.">
<polygon fill="white" stroke="#666666" points="241.25,-67.88 130.75,-67.88 130.75,-37.38 241.25,-37.38 241.25,-67.88"/>
<text text-anchor="start" x="138.75" y="-54.38" font-family="Helvetica,sans-Serif" font-size="10.00">mimicpp::is_character</text>
<text text-anchor="middle" x="186" y="-43.12" font-family="Helvetica,sans-Serif" font-size="10.00">&lt; char &gt;</text>
</a>
</g>
</g>
<!-- Node4&#45;&gt;Node3 -->
<g id="edge27_Node000004_Node000003" class="edge">
<title>Node4&#45;&gt;Node3</title>
<g id="a_edge27_Node000004_Node000003"><a xlink:title=" ">
<path fill="none" stroke="#63b8ff" d="M53.55,-157.61C66.51,-135.29 90.23,-99.44 119.5,-77.62 124.28,-74.06 129.63,-70.95 135.16,-68.24"/>
<polygon fill="#63b8ff" stroke="#63b8ff" points="50.5,-155.89 48.66,-166.32 56.61,-159.31 50.5,-155.89"/>
</a>
</g>
</g>
<!-- Node5 -->
<g id="Node000005" class="node">
<title>Node5</title>
<g id="a_Node000005"><a xlink:href="dc/d7a/structmimicpp_1_1is__character_3_01char16__t_01_4.html" target="_top" xlink:title="Specialization for char16_t.">
<polygon fill="white" stroke="#666666" points="241.25,-361.88 130.75,-361.88 130.75,-331.38 241.25,-331.38 241.25,-361.88"/>
<text text-anchor="start" x="138.75" y="-348.38" font-family="Helvetica,sans-Serif" font-size="10.00">mimicpp::is_character</text>
<text text-anchor="middle" x="186" y="-337.12" font-family="Helvetica,sans-Serif" font-size="10.00">&lt; char16_t &gt;</text>
</a>
</g>
</g>
<!-- Node4&#45;&gt;Node5 -->
<g id="edge28_Node000004_Node000005" class="edge">
<title>Node4&#45;&gt;Node5</title>
<g id="a_edge28_Node000004_Node000005"><a xlink:title=" ">
<path fill="none" stroke="#63b8ff" d="M75.99,-194.11C78.77,-196.37 81.34,-198.87 83.5,-201.62 117.86,-245.44 81.59,-280.84 119.5,-321.62 122.81,-325.19 126.69,-328.25 130.88,-330.88"/>
<polygon fill="#63b8ff" stroke="#63b8ff" points="78.09,-191.31 67.86,-188.57 74.15,-197.1 78.09,-191.31"/>
</a>
</g>
</g>
<!-- Node6 -->
<g id="Node000006" class="node">
<title>Node6</title>
<g id="a_Node000006"><a xlink:href="d4/df1/structmimicpp_1_1is__character_3_01char32__t_01_4.html" target="_top" xlink:title="Specialization for char32_t.">
<polygon fill="white" stroke="#666666" points="241.25,-312.88 130.75,-312.88 130.75,-282.38 241.25,-282.38 241.25,-312.88"/>
<text text-anchor="start" x="138.75" y="-299.38" font-family="Helvetica,sans-Serif" font-size="10.00">mimicpp::is_character</text>
<text text-anchor="middle" x="186" y="-288.12" font-family="Helvetica,sans-Serif" font-size="10.00">&lt; char32_t &gt;</text>
</a>
</g>
</g>
<!-- Node4&#45;&gt;Node6 -->
<g id="edge29_Node000004_Node000006" class="edge">
<title>Node4&#45;&gt;Node6</title>
<g id="a_edge29_Node000004_Node000006"><a xlink:title=" ">
<path fill="none" stroke="#63b8ff" d="M74.3,-193.65C77.62,-196.06 80.78,-198.72 83.5,-201.62 107.72,-227.42 93.21,-248.95 119.5,-272.62 123.48,-276.21 128.03,-279.3 132.83,-281.96"/>
<polygon fill="#63b8ff" stroke="#63b8ff" points="76.3,-190.77 65.98,-188.35 72.53,-196.67 76.3,-190.77"/>
</a>
</g>
</g>
<!-- Node7 -->
<g id="Node000007" class="node">
<title>Node7</title>
<g id="a_Node000007"><a xlink:href="d6/da5/structmimicpp_1_1is__character_3_01char8__t_01_4.html" target="_top" xlink:title="Specialization for char8_t.">
<polygon fill="white" stroke="#666666" points="241.25,-263.88 130.75,-263.88 130.75,-233.38 241.25,-233.38 241.25,-263.88"/>
<text text-anchor="start" x="138.75" y="-250.38" font-family="Helvetica,sans-Serif" font-size="10.00">mimicpp::is_character</text>
<text text-anchor="middle" x="186" y="-239.12" font-family="Helvetica,sans-Serif" font-size="10.00">&lt; char8_t &gt;</text>
</a>
</g>
</g>
<!-- Node4&#45;&gt;Node7 -->
<g id="edge30_Node000004_Node000007" class="edge">
<title>Node4&#45;&gt;Node7</title>
<g id="a_edge30_Node000004_Node000007"><a xlink:title=" ">
<path fill="none" stroke="#63b8ff" d="M69.62,-193.37C74.26,-196.11 79.02,-198.94 83.5,-201.62 99.58,-211.27 102.67,-215.36 119.5,-223.62 126.16,-226.9 133.37,-230.03 140.48,-232.9"/>
<polygon fill="#63b8ff" stroke="#63b8ff" points="71.53,-190.43 61.14,-188.37 67.98,-196.46 71.53,-190.43"/>
</a>
</g>
</g>
<!-- Node8 -->
<g id="Node000008" class="node">
<title>Node8</title>
<g id="a_Node000008"><a xlink:href="de/da5/structmimicpp_1_1is__character_3_01signed_01char_01_4.html" target="_top" xlink:title="Specialization for signed char.">
<polygon fill="white" stroke="#666666" points="241.25,-214.88 130.75,-214.88 130.75,-184.38 241.25,-184.38 241.25,-214.88"/>
<text text-anchor="start" x="138.75" y="-201.38" font-family="Helvetica,sans-Serif" font-size="10.00">mimicpp::is_character</text>
<text text-anchor="middle" x="186" y="-190.12" font-family="Helvetica,sans-Serif" font-size="10.00">&lt; signed char &gt;</text>
</a>
</g>
</g>
<!-- Node4&#45;&gt;Node8 -->
<g id="edge31_Node000004_Node000008" class="edge">
<title>Node4&#45;&gt;Node8</title>
<g id="a_edge31_Node000004_Node000008"><a xlink:title=" ">
<path fill="none" stroke="#63b8ff" d="M92.26,-185.28C104.59,-187.19 117.89,-189.25 130.45,-191.19"/>
<polygon fill="#63b8ff" stroke="#63b8ff" points="93.16,-181.88 82.74,-183.81 92.09,-188.8 93.16,-181.88"/>
</a>
</g>
</g>
<!-- Node9 -->
<g id="Node000009" class="node">
<title>Node9</title>
<g id="a_Node000009"><a xlink:href="d8/d39/structmimicpp_1_1is__character_3_01unsigned_01char_01_4.html" target="_top" xlink:title="Specialization for unsigned char.">
<polygon fill="white" stroke="#666666" points="241.25,-165.88 130.75,-165.88 130.75,-135.38 241.25,-135.38 241.25,-165.88"/>
<text text-anchor="start" x="138.75" y="-152.38" font-family="Helvetica,sans-Serif" font-size="10.00">mimicpp::is_character</text>
<text text-anchor="middle" x="186" y="-141.12" font-family="Helvetica,sans-Serif" font-size="10.00">&lt; unsigned char &gt;</text>
</a>
</g>
</g>
<!-- Node4&#45;&gt;Node9 -->
<g id="edge32_Node000004_Node000009" class="edge">
<title>Node4&#45;&gt;Node9</title>
<g id="a_edge32_Node000004_Node000009"><a xlink:title=" ">
<path fill="none" stroke="#63b8ff" d="M92.26,-168.23C104.59,-165.89 117.89,-163.36 130.45,-160.98"/>
<polygon fill="#63b8ff" stroke="#63b8ff" points="91.9,-164.73 82.73,-170.04 93.21,-171.61 91.9,-164.73"/>
</a>
</g>
</g>
<!-- Node10 -->
<g id="Node000010" class="node">
<title>Node10</title>
<g id="a_Node000010"><a xlink:href="df/d35/structmimicpp_1_1is__character_3_01wchar__t_01_4.html" target="_top" xlink:title="Specialization for wchar_t.">
<polygon fill="white" stroke="#666666" points="241.25,-116.88 130.75,-116.88 130.75,-86.38 241.25,-86.38 241.25,-116.88"/>
<text text-anchor="start" x="138.75" y="-103.38" font-family="Helvetica,sans-Serif" font-size="10.00">mimicpp::is_character</text>
<text text-anchor="middle" x="186" y="-92.12" font-family="Helvetica,sans-Serif" font-size="10.00">&lt; wchar_t &gt;</text>
</a>
</g>
</g>
<!-- Node4&#45;&gt;Node10 -->
<g id="edge33_Node000004_Node000010" class="edge">
<title>Node4&#45;&gt;Node10</title>
<g id="a_edge33_Node000004_Node000010"><a xlink:title=" ">
<path fill="none" stroke="#63b8ff" d="M64.72,-161.12C79.65,-150.39 100.13,-136.6 119.5,-126.62 125.99,-123.28 133.04,-120.13 140.03,-117.27"/>
<polygon fill="#63b8ff" stroke="#63b8ff" points="63.01,-158.04 57.01,-166.76 67.14,-163.69 63.01,-158.04"/>
</a>
</g>
</g>
<!-- Node11 -->
<g id="Node000011" class="node">
<title>Node11</title>
<g id="a_Node000011"><a xlink:href="d2/d73/structmimicpp_1_1is__character.html" target="_top" xlink:title="Primary template, which always yields false.">
<polygon fill="white" stroke="#666666" points="252.5,-19.25 119.5,-19.25 119.5,0 252.5,0 252.5,-19.25"/>
<text text-anchor="middle" x="186" y="-5.75" font-family="Helvetica,sans-Serif" font-size="10.00">mimicpp::is_character&lt; T &gt;</text>
</a>
</g>
</g>
<!-- Node4&#45;&gt;Node11 -->
<g id="edge34_Node000004_Node000011" class="edge">
<title>Node4&#45;&gt;Node11</title>
<g id="a_edge34_Node000004_Node000011"><a xlink:title=" ">
<path fill="none" stroke="#63b8ff" d="M47.8,-156.73C56.7,-124.44 78.26,-62.57 119.5,-28.62 123.89,-25.01 128.93,-22.09 134.23,-19.72"/>
<polygon fill="#63b8ff" stroke="#63b8ff" points="44.5,-155.52 45.38,-166.08 51.28,-157.28 44.5,-155.52"/>
</a>
</g>
</g>
<!-- Node2 -->
<g id="Node000002" class="node">
<title>Node2</title>
<g id="a_Node000002"><a xlink:title=" ">
<polygon fill="#e0e0e0" stroke="#999999" points="78.62,-230.25 4.88,-230.25 4.88,-211 78.62,-211 78.62,-230.25"/>
<text text-anchor="middle" x="41.75" y="-216.75" font-family="Helvetica,sans-Serif" font-size="10.00">std::true_type</text>
</a>
</g>
</g>
<!-- Node2&#45;&gt;Node1 -->
<g id="edge42_Node000002_Node000001" class="edge">
<title>Node2&#45;&gt;Node1</title>
<g id="a_edge42_Node000002_Node000001"><a xlink:title=" ">
<path fill="none" stroke="#63b8ff" d="M48.11,-241.25C57.42,-273.22 79.53,-334.77 119.5,-370.62 123.49,-374.2 128.04,-377.29 132.84,-379.94"/>
<polygon fill="#63b8ff" stroke="#63b8ff" points="51.6,-240.73 45.56,-232.02 44.85,-242.59 51.6,-240.73"/>
</a>
</g>
</g>
<!-- Node2&#45;&gt;Node3 -->
<g id="edge35_Node000002_Node000003" class="edge">
<title>Node2&#45;&gt;Node3</title>
<g id="a_edge35_Node000002_Node000003"><a xlink:title=" ">
<path fill="none" stroke="#63b8ff" d="M75.98,-204.13C78.77,-201.88 81.34,-199.38 83.5,-196.62 117.65,-153.18 81.84,-118.06 119.5,-77.62 122.9,-73.97 126.89,-70.85 131.2,-68.18"/>
<polygon fill="#63b8ff" stroke="#63b8ff" points="74.14,-201.15 67.85,-209.67 78.08,-206.94 74.14,-201.15"/>
</a>
</g>
</g>
<!-- Node2&#45;&gt;Node5 -->
<g id="edge36_Node000002_Node000005" class="edge">
<title>Node2&#45;&gt;Node5</title>
<g id="a_edge36_Node000002_Node000005"><a xlink:title=" ">
<path fill="none" stroke="#63b8ff" d="M53.32,-240.53C66.21,-263.06 89.96,-299.5 119.5,-321.62 124.27,-325.2 129.62,-328.32 135.14,-331.03"/>
<polygon fill="#63b8ff" stroke="#63b8ff" points="56.53,-239.09 48.62,-232.04 50.4,-242.48 56.53,-239.09"/>
</a>
</g>
</g>
<!-- Node2&#45;&gt;Node6 -->
<g id="edge37_Node000002_Node000006" class="edge">
<title>Node2&#45;&gt;Node6</title>
<g id="a_edge37_Node000002_Node000006"><a xlink:title=" ">
<path fill="none" stroke="#63b8ff" d="M64.41,-237.29C79.34,-248.27 99.94,-262.44 119.5,-272.62 125.87,-275.94 132.78,-279.06 139.65,-281.89"/>
<polygon fill="#63b8ff" stroke="#63b8ff" points="66.8,-234.71 56.7,-231.52 62.61,-240.31 66.8,-234.71"/>
</a>
</g>
</g>
<!-- Node2&#45;&gt;Node7 -->
<g id="edge38_Node000002_Node000007" class="edge">
<title>Node2&#45;&gt;Node7</title>
<g id="a_edge38_Node000002_Node000007"><a xlink:title=" ">
<path fill="none" stroke="#63b8ff" d="M89.99,-229.92C102.89,-232.46 116.97,-235.24 130.25,-237.85"/>
<polygon fill="#63b8ff" stroke="#63b8ff" points="90.99,-226.55 80.5,-228.06 89.63,-233.42 90.99,-226.55"/>
</a>
</g>
</g>
<!-- Node2&#45;&gt;Node8 -->
<g id="edge39_Node000002_Node000008" class="edge">
<title>Node2&#45;&gt;Node8</title>
<g id="a_edge39_Node000002_Node000008"><a xlink:title=" ">
<path fill="none" stroke="#63b8ff" d="M90.38,-213.59C103.18,-211.7 117.11,-209.65 130.25,-207.71"/>
<polygon fill="#63b8ff" stroke="#63b8ff" points="89.89,-210.13 80.51,-215.05 90.92,-217.05 89.89,-210.13"/>
</a>
</g>
</g>
<!-- Node2&#45;&gt;Node9 -->
<g id="edge40_Node000002_Node000009" class="edge">
<title>Node2&#45;&gt;Node9</title>
<g id="a_edge40_Node000002_Node000009"><a xlink:title=" ">
<path fill="none" stroke="#63b8ff" d="M69.46,-204.89C91.08,-192.17 118.17,-176.26 119.5,-175.62 126.3,-172.36 133.65,-169.21 140.89,-166.31"/>
<polygon fill="#63b8ff" stroke="#63b8ff" points="67.87,-201.77 61.03,-209.86 71.42,-207.8 67.87,-201.77"/>
</a>
</g>
</g>
<!-- Node2&#45;&gt;Node10 -->
<g id="edge41_Node000002_Node000010" class="edge">
<title>Node2&#45;&gt;Node10</title>
<g id="a_edge41_Node000002_Node000010"><a xlink:title=" ">
<path fill="none" stroke="#63b8ff" d="M74.28,-204.58C77.61,-202.18 80.77,-199.52 83.5,-196.62 107.52,-171.19 93.44,-149.96 119.5,-126.62 123.49,-123.05 128.04,-119.97 132.85,-117.31"/>
<polygon fill="#63b8ff" stroke="#63b8ff" points="72.52,-201.56 65.96,-209.88 76.28,-207.46 72.52,-201.56"/>
</a>
</g>
</g>
</g>
</svg>
