<?xml version="1.0" encoding="UTF-8" standalone="no"?>
<!DOCTYPE svg PUBLIC "-//W3C//DTD SVG 1.1//EN"
 "http://www.w3.org/Graphics/SVG/1.1/DTD/svg11.dtd">
<!-- Generated by graphviz version 12.2.1 (20241206.2353)
 -->
<!-- Title: Graphical Class Hierarchy Pages: 1 -->
<svg width="255pt" height="370pt"
 viewBox="0.00 0.00 255.25 369.88" xmlns="http://www.w3.org/2000/svg" xmlns:xlink="http://www.w3.org/1999/xlink">
<g id="graph0" class="graph" transform="scale(1 1) rotate(0) translate(4 365.88)">
<title>Graphical Class Hierarchy</title>
<!-- Node0 -->
<g id="Node000000" class="node">
<title>Node0</title>
<g id="a_Node000000"><a xlink:title=" ">
<polygon fill="#e0e0e0" stroke="#999999" points="78.25,-166.25 0,-166.25 0,-147 78.25,-147 78.25,-166.25"/>
<text text-anchor="middle" x="39.12" y="-152.75" font-family="Helvetica,sans-Serif" font-size="10.00">std::false_type</text>
</a>
</g>
</g>
<!-- Node1 -->
<g id="Node000001" class="node">
<title>Node1</title>
<g id="a_Node000001"><a xlink:href="d2/dad/structmimicpp_1_1is__character_3_01char_01_4.html" target="_top" xlink:title="Specialization for char.">
<polygon fill="white" stroke="#666666" points="236,-263.88 125.5,-263.88 125.5,-233.38 236,-233.38 236,-263.88"/>
<text text-anchor="start" x="133.5" y="-250.38" font-family="Helvetica,sans-Serif" font-size="10.00">mimicpp::is_character</text>
<text text-anchor="middle" x="180.75" y="-239.12" font-family="Helvetica,sans-Serif" font-size="10.00">&lt; char &gt;</text>
</a>
</g>
</g>
<!-- Node0&#45;&gt;Node1 -->
<g id="edge46_Node000000_Node000001" class="edge">
<title>Node0&#45;&gt;Node1</title>
<g id="a_edge46_Node000000_Node000001"><a xlink:title=" ">
<path fill="none" stroke="#63b8ff" d="M67.9,-172.66C71.51,-175.15 75.06,-177.84 78.25,-180.62 97.02,-197.02 93.95,-209.16 114.25,-223.62 119.21,-227.16 124.72,-230.26 130.4,-232.97"/>
<polygon fill="#63b8ff" stroke="#63b8ff" points="69.97,-169.83 59.66,-167.35 66.18,-175.71 69.97,-169.83"/>
</a>
</g>
</g>
<!-- Node3 -->
<g id="Node000003" class="node">
<title>Node3</title>
<g id="a_Node000003"><a xlink:href="dc/d7a/structmimicpp_1_1is__character_3_01char16__t_01_4.html" target="_top" xlink:title="Specialization for char16_t.">
<polygon fill="white" stroke="#666666" points="236,-214.88 125.5,-214.88 125.5,-184.38 236,-184.38 236,-214.88"/>
<text text-anchor="start" x="133.5" y="-201.38" font-family="Helvetica,sans-Serif" font-size="10.00">mimicpp::is_character</text>
<text text-anchor="middle" x="180.75" y="-190.12" font-family="Helvetica,sans-Serif" font-size="10.00">&lt; char16_t &gt;</text>
</a>
</g>
</g>
<!-- Node0&#45;&gt;Node3 -->
<g id="edge47_Node000000_Node000003" class="edge">
<title>Node0&#45;&gt;Node3</title>
<g id="a_edge47_Node000000_Node000003"><a xlink:title=" ">
<path fill="none" stroke="#63b8ff" d="M83.84,-170.09C98.05,-174.46 113.94,-179.36 128.64,-183.88"/>
<polygon fill="#63b8ff" stroke="#63b8ff" points="84.89,-166.75 74.31,-167.15 82.83,-173.44 84.89,-166.75"/>
</a>
</g>
</g>
<!-- Node4 -->
<g id="Node000004" class="node">
<title>Node4</title>
<g id="a_Node000004"><a xlink:href="d4/df1/structmimicpp_1_1is__character_3_01char32__t_01_4.html" target="_top" xlink:title="Specialization for char32_t.">
<polygon fill="white" stroke="#666666" points="236,-165.88 125.5,-165.88 125.5,-135.38 236,-135.38 236,-165.88"/>
<text text-anchor="start" x="133.5" y="-152.38" font-family="Helvetica,sans-Serif" font-size="10.00">mimicpp::is_character</text>
<text text-anchor="middle" x="180.75" y="-141.12" font-family="Helvetica,sans-Serif" font-size="10.00">&lt; char32_t &gt;</text>
</a>
</g>
</g>
<!-- Node0&#45;&gt;Node4 -->
<g id="edge48_Node000000_Node000004" class="edge">
<title>Node0&#45;&gt;Node4</title>
<g id="a_edge48_Node000000_Node000004"><a xlink:title=" ">
<path fill="none" stroke="#63b8ff" d="M90.15,-154.48C101.5,-153.99 113.62,-153.47 125.15,-152.97"/>
<polygon fill="#63b8ff" stroke="#63b8ff" points="90,-150.98 80.16,-154.9 90.3,-157.97 90,-150.98"/>
</a>
</g>
</g>
<!-- Node5 -->
<g id="Node000005" class="node">
<title>Node5</title>
<g id="a_Node000005"><a xlink:href="d6/da5/structmimicpp_1_1is__character_3_01char8__t_01_4.html" target="_top" xlink:title="Specialization for char8_t.">
<polygon fill="white" stroke="#666666" points="236,-116.88 125.5,-116.88 125.5,-86.38 236,-86.38 236,-116.88"/>
<text text-anchor="start" x="133.5" y="-103.38" font-family="Helvetica,sans-Serif" font-size="10.00">mimicpp::is_character</text>
<text text-anchor="middle" x="180.75" y="-92.12" font-family="Helvetica,sans-Serif" font-size="10.00">&lt; char8_t &gt;</text>
</a>
</g>
</g>
<!-- Node0&#45;&gt;Node5 -->
<g id="edge49_Node000000_Node000005" class="edge">
<title>Node0&#45;&gt;Node5</title>
<g id="a_edge49_Node000000_Node000005"><a xlink:title=" ">
<path fill="none" stroke="#63b8ff" d="M75.13,-142.29C87.48,-137.28 101.46,-131.65 114.25,-126.62 121.95,-123.6 130.18,-120.41 138.12,-117.37"/>
<polygon fill="#63b8ff" stroke="#63b8ff" points="74.13,-138.92 66.19,-145.93 76.77,-145.4 74.13,-138.92"/>
</a>
</g>
</g>
<!-- Node6 -->
<g id="Node000006" class="node">
<title>Node6</title>
<g id="a_Node000006"><a xlink:href="de/da5/structmimicpp_1_1is__character_3_01signed_01char_01_4.html" target="_top" xlink:title="Specialization for signed char.">
<polygon fill="white" stroke="#666666" points="236,-67.88 125.5,-67.88 125.5,-37.38 236,-37.38 236,-67.88"/>
<text text-anchor="start" x="133.5" y="-54.38" font-family="Helvetica,sans-Serif" font-size="10.00">mimicpp::is_character</text>
<text text-anchor="middle" x="180.75" y="-43.12" font-family="Helvetica,sans-Serif" font-size="10.00">&lt; signed char &gt;</text>
</a>
</g>
</g>
<!-- Node0&#45;&gt;Node6 -->
<g id="edge50_Node000000_Node000006" class="edge">
<title>Node0&#45;&gt;Node6</title>
<g id="a_edge50_Node000000_Node000006"><a xlink:title=" ">
<path fill="none" stroke="#63b8ff" d="M53.82,-137.68C67.42,-120.04 89.74,-94.07 114.25,-77.62 119.51,-74.1 125.33,-70.97 131.27,-68.23"/>
<polygon fill="#63b8ff" stroke="#63b8ff" points="51.31,-135.19 48.11,-145.3 56.91,-139.39 51.31,-135.19"/>
</a>
</g>
</g>
<!-- Node7 -->
<g id="Node000007" class="node">
<title>Node7</title>
<g id="a_Node000007"><a xlink:href="d8/d39/structmimicpp_1_1is__character_3_01unsigned_01char_01_4.html" target="_top" xlink:title="Specialization for unsigned char.">
<polygon fill="white" stroke="#666666" points="236,-361.88 125.5,-361.88 125.5,-331.38 236,-331.38 236,-361.88"/>
<text text-anchor="start" x="133.5" y="-348.38" font-family="Helvetica,sans-Serif" font-size="10.00">mimicpp::is_character</text>
<text text-anchor="middle" x="180.75" y="-337.12" font-family="Helvetica,sans-Serif" font-size="10.00">&lt; unsigned char &gt;</text>
</a>
</g>
</g>
<!-- Node0&#45;&gt;Node7 -->
<g id="edge51_Node000000_Node000007" class="edge">
<title>Node0&#45;&gt;Node7</title>
<g id="a_edge51_Node000000_Node000007"><a xlink:title=" ">
<path fill="none" stroke="#63b8ff" d="M71.42,-173.3C73.97,-175.52 76.31,-177.96 78.25,-180.62 116.33,-232.91 71.21,-273.35 114.25,-321.62 117.49,-325.26 121.32,-328.37 125.47,-331.03"/>
<polygon fill="#63b8ff" stroke="#63b8ff" points="73.58,-170.55 63.43,-167.52 69.48,-176.22 73.58,-170.55"/>
</a>
</g>
</g>
<!-- Node8 -->
<g id="Node000008" class="node">
<title>Node8</title>
<g id="a_Node000008"><a xlink:href="df/d35/structmimicpp_1_1is__character_3_01wchar__t_01_4.html" target="_top" xlink:title="Specialization for wchar_t.">
<polygon fill="white" stroke="#666666" points="236,-312.88 125.5,-312.88 125.5,-282.38 236,-282.38 236,-312.88"/>
<text text-anchor="start" x="133.5" y="-299.38" font-family="Helvetica,sans-Serif" font-size="10.00">mimicpp::is_character</text>
<text text-anchor="middle" x="180.75" y="-288.12" font-family="Helvetica,sans-Serif" font-size="10.00">&lt; wchar_t &gt;</text>
</a>
</g>
</g>
<!-- Node0&#45;&gt;Node8 -->
<g id="edge52_Node000000_Node000008" class="edge">
<title>Node0&#45;&gt;Node8</title>
<g id="a_edge52_Node000000_Node000008"><a xlink:title=" ">
<path fill="none" stroke="#63b8ff" d="M70.64,-173.2C73.43,-175.46 76.03,-177.94 78.25,-180.62 106.23,-214.46 83.07,-241.71 114.25,-272.62 117.88,-276.22 122.08,-279.32 126.57,-281.97"/>
<polygon fill="#63b8ff" stroke="#63b8ff" points="72.82,-170.45 62.61,-167.59 68.81,-176.19 72.82,-170.45"/>
</a>
</g>
</g>
<!-- Node9 -->
<g id="Node000009" class="node">
<title>Node9</title>
<g id="a_Node000009"><a xlink:href="d2/d73/structmimicpp_1_1is__character.html" target="_top" xlink:title="Primary template, which always yields false.">
<polygon fill="white" stroke="#666666" points="247.25,-19.25 114.25,-19.25 114.25,0 247.25,0 247.25,-19.25"/>
<text text-anchor="middle" x="180.75" y="-5.75" font-family="Helvetica,sans-Serif" font-size="10.00">mimicpp::is_character&lt; T &gt;</text>
</a>
</g>
</g>
<!-- Node0&#45;&gt;Node9 -->
<g id="edge53_Node000000_Node000009" class="edge">
<title>Node0&#45;&gt;Node9</title>
<g id="a_edge53_Node000000_Node000009"><a xlink:title=" ">
<path fill="none" stroke="#63b8ff" d="M46.61,-135.88C56.57,-107.46 78.33,-56.74 114.25,-28.62 118.91,-24.98 124.25,-22.03 129.83,-19.65"/>
<polygon fill="#63b8ff" stroke="#63b8ff" points="43.37,-134.54 43.54,-145.13 50.02,-136.75 43.37,-134.54"/>
</a>
</g>
</g>
<!-- Node2 -->
<g id="Node000002" class="node">
<title>Node2</title>
<g id="a_Node000002"><a xlink:title=" ">
<polygon fill="#e0e0e0" stroke="#999999" points="76,-209.25 2.25,-209.25 2.25,-190 76,-190 76,-209.25"/>
<text text-anchor="middle" x="39.12" y="-195.75" font-family="Helvetica,sans-Serif" font-size="10.00">std::true_type</text>
</a>
</g>
</g>
<!-- Node2&#45;&gt;Node1 -->
<g id="edge54_Node000002_Node000001" class="edge">
<title>Node2&#45;&gt;Node1</title>
<g id="a_edge54_Node000002_Node000001"><a xlink:title=" ">
<path fill="none" stroke="#63b8ff" d="M79.56,-213.46C96.81,-219.52 117.15,-226.66 134.98,-232.91"/>
<polygon fill="#63b8ff" stroke="#63b8ff" points="80.74,-210.17 70.15,-210.16 78.42,-216.77 80.74,-210.17"/>
</a>
</g>
</g>
<!-- Node2&#45;&gt;Node3 -->
<g id="edge55_Node000002_Node000003" class="edge">
<title>Node2&#45;&gt;Node3</title>
<g id="a_edge55_Node000002_Node000003"><a xlink:title=" ">
<path fill="none" stroke="#63b8ff" d="M87.66,-199.62C99.73,-199.62 112.8,-199.62 125.19,-199.62"/>
<polygon fill="#63b8ff" stroke="#63b8ff" points="87.96,-196.13 77.96,-199.63 87.96,-203.13 87.96,-196.13"/>
</a>
</g>
</g>
<!-- Node2&#45;&gt;Node4 -->
<g id="edge56_Node000002_Node000004" class="edge">
<title>Node2&#45;&gt;Node4</title>
<g id="a_edge56_Node000002_Node000004"><a xlink:title=" ">
<path fill="none" stroke="#63b8ff" d="M79.56,-185.79C96.81,-179.73 117.15,-172.59 134.98,-166.34"/>
<polygon fill="#63b8ff" stroke="#63b8ff" points="78.42,-182.48 70.15,-189.09 80.74,-189.08 78.42,-182.48"/>
</a>
</g>
</g>
<!-- Node2&#45;&gt;Node5 -->
<g id="edge57_Node000002_Node000005" class="edge">
<title>Node2&#45;&gt;Node5</title>
<g id="a_edge57_Node000002_Node000005"><a xlink:title=" ">
<path fill="none" stroke="#63b8ff" d="M68.58,-183.41C71.99,-180.99 75.3,-178.37 78.25,-175.62 98.03,-157.21 92.75,-143 114.25,-126.62 118.9,-123.09 124.11,-119.99 129.5,-117.31"/>
<polygon fill="#63b8ff" stroke="#63b8ff" points="66.7,-180.46 60.23,-188.86 70.52,-186.33 66.7,-180.46"/>
</a>
</g>
</g>
<!-- Node2&#45;&gt;Node6 -->
<g id="edge58_Node000002_Node000006" class="edge">
<title>Node2&#45;&gt;Node6</title>
<g id="a_edge58_Node000002_Node000006"><a xlink:title=" ">
<path fill="none" stroke="#63b8ff" d="M70.7,-183.1C73.47,-180.83 76.06,-178.33 78.25,-175.62 107.44,-139.56 81.65,-110.64 114.25,-77.62 117.84,-73.99 122.02,-70.87 126.49,-68.2"/>
<polygon fill="#63b8ff" stroke="#63b8ff" points="68.86,-180.11 62.68,-188.71 72.88,-185.84 68.86,-180.11"/>
</a>
</g>
</g>
<!-- Node2&#45;&gt;Node7 -->
<g id="edge59_Node000002_Node000007" class="edge">
<title>Node2&#45;&gt;Node7</title>
<g id="a_edge59_Node000002_Node000007"><a xlink:title=" ">
<path fill="none" stroke="#63b8ff" d="M47.67,-220.16C58.5,-247 80.91,-293.85 114.25,-321.62 118.55,-325.21 123.42,-328.31 128.52,-330.99"/>
<polygon fill="#63b8ff" stroke="#63b8ff" points="51.04,-219.16 44.17,-211.09 44.51,-221.68 51.04,-219.16"/>
</a>
</g>
</g>
<!-- Node2&#45;&gt;Node8 -->
<g id="edge60_Node000002_Node000008" class="edge">
<title>Node2&#45;&gt;Node8</title>
<g id="a_edge60_Node000002_Node000008"><a xlink:title=" ">
<path fill="none" stroke="#63b8ff" d="M55.18,-218.32C69.07,-234.53 91.01,-257.69 114.25,-272.62 119.68,-276.11 125.66,-279.23 131.75,-281.97"/>
<polygon fill="#63b8ff" stroke="#63b8ff" points="58.05,-216.29 48.96,-210.85 52.67,-220.77 58.05,-216.29"/>
</a>
</g>
</g>
</g>
</svg>
