<?xml version="1.0" encoding="UTF-8" standalone="no"?>
<!DOCTYPE svg PUBLIC "-//W3C//DTD SVG 1.1//EN"
 "http://www.w3.org/Graphics/SVG/1.1/DTD/svg11.dtd">
<!-- Generated by graphviz version 12.1.2 (20240928.0832)
 -->
<!-- Title: Graphical Class Hierarchy Pages: 1 -->
<svg width="253pt" height="110pt"
 viewBox="0.00 0.00 253.00 109.75" xmlns="http://www.w3.org/2000/svg" xmlns:xlink="http://www.w3.org/1999/xlink">
<g id="graph0" class="graph" transform="scale(1 1) rotate(0) translate(4 105.75)">
<title>Graphical Class Hierarchy</title>
<!-- Node0 -->
<g id="Node000000" class="node">
<title>Node0</title>
<g id="a_Node000000"><a xlink:title=" ">
<polygon fill="#e0e0e0" stroke="#999999" points="55,-60.5 0,-60.5 0,-41.25 55,-41.25 55,-60.5"/>
<text text-anchor="middle" x="27.5" y="-47" font-family="Helvetica,sans-Serif" font-size="10.00">formatter</text>
</a>
</g>
</g>
<!-- Node1 -->
<g id="Node000001" class="node">
<title>Node1</title>
<g id="a_Node000001"><a xlink:href="d2/d9b/structmimicpp_1_1format_1_1formatter_3_01mimicpp_1_1_constness_00_01mimicpp_1_1_char_t_01_4.html" target="_top" xlink:title=" ">
<polygon fill="white" stroke="#666666" points="245,-101.75 91,-101.75 91,-60 245,-60 245,-101.75"/>
<text text-anchor="start" x="99" y="-88.25" font-family="Helvetica,sans-Serif" font-size="10.00">mimicpp::format::formatter</text>
<text text-anchor="start" x="99" y="-77" font-family="Helvetica,sans-Serif" font-size="10.00">&lt; mimicpp::Constness, mimicpp</text>
<text text-anchor="middle" x="168" y="-65.75" font-family="Helvetica,sans-Serif" font-size="10.00">::CharT &gt;</text>
</a>
</g>
</g>
<!-- Node0&#45;&gt;Node1 -->
<g id="edge1_Node000000_Node000001" class="edge">
<title>Node0&#45;&gt;Node1</title>
<g id="a_edge1_Node000000_Node000001"><a xlink:title=" ">
<path fill="none" stroke="#63b8ff" d="M66.21,-59.04C73.83,-60.69 82.11,-62.49 90.52,-64.31"/>
<polygon fill="#63b8ff" stroke="#63b8ff" points="67.2,-55.68 56.68,-56.98 65.72,-62.52 67.2,-55.68"/>
</a>
</g>
</g>
<!-- Node2 -->
<g id="Node000002" class="node">
<title>Node2</title>
<g id="a_Node000002"><a xlink:href="db/dc9/structmimicpp_1_1format_1_1formatter_3_01mimicpp_1_1_value_category_00_01mimicpp_1_1_char_t_01_4.html" target="_top" xlink:title=" ">
<polygon fill="white" stroke="#666666" points="233.75,-41.75 102.25,-41.75 102.25,0 233.75,0 233.75,-41.75"/>
<text text-anchor="start" x="110.25" y="-28.25" font-family="Helvetica,sans-Serif" font-size="10.00">mimicpp::format::formatter</text>
<text text-anchor="start" x="110.25" y="-17" font-family="Helvetica,sans-Serif" font-size="10.00">&lt; mimicpp::ValueCategory,</text>
<text text-anchor="middle" x="168" y="-5.75" font-family="Helvetica,sans-Serif" font-size="10.00"> mimicpp::CharT &gt;</text>
</a>
</g>
</g>
<!-- Node0&#45;&gt;Node2 -->
<g id="edge2_Node000000_Node000002" class="edge">
<title>Node0&#45;&gt;Node2</title>
<g id="a_edge2_Node000000_Node000002"><a xlink:title=" ">
<path fill="none" stroke="#63b8ff" d="M66.16,-42.72C77.22,-40.32 89.64,-37.63 101.88,-34.98"/>
<polygon fill="#63b8ff" stroke="#63b8ff" points="65.72,-39.23 56.68,-44.77 67.2,-46.07 65.72,-39.23"/>
</a>
</g>
</g>
</g>
</svg>
