<?xml version="1.0" encoding="UTF-8" standalone="no"?>
<!DOCTYPE svg PUBLIC "-//W3C//DTD SVG 1.1//EN"
 "http://www.w3.org/Graphics/SVG/1.1/DTD/svg11.dtd">
<!-- Generated by graphviz version 12.2.1 (20241206.2353)
 -->
<!-- Title: Graphical Class Hierarchy Pages: 1 -->
<svg width="428pt" height="72pt"
 viewBox="0.00 0.00 428.00 72.25" xmlns="http://www.w3.org/2000/svg" xmlns:xlink="http://www.w3.org/1999/xlink">
<g id="graph0" class="graph" transform="scale(1 1) rotate(0) translate(4 68.25)">
<title>Graphical Class Hierarchy</title>
<!-- Node0 -->
<g id="Node000000" class="node">
<title>Node0</title>
<g id="a_Node000000"><a xlink:title=" ">
<polygon fill="#e0e0e0" stroke="#999999" points="88.75,-41.75 0,-41.75 0,-22.5 88.75,-22.5 88.75,-41.75"/>
<text text-anchor="middle" x="44.38" y="-28.25" font-family="Helvetica,sans-Serif" font-size="10.00">std::conditional_t</text>
</a>
</g>
</g>
<!-- Node1 -->
<g id="Node000001" class="node">
<title>Node1</title>
<g id="a_Node000001"><a xlink:title=" ">
<polygon fill="#e0e0e0" stroke="#999999" points="259.25,-64.25 124.75,-64.25 124.75,0 259.25,0 259.25,-64.25"/>
<text text-anchor="start" x="132.75" y="-50.75" font-family="Helvetica,sans-Serif" font-size="10.00">mimicpp::detail::is</text>
<text text-anchor="start" x="132.75" y="-39.5" font-family="Helvetica,sans-Serif" font-size="10.00">_overloadable_with&lt;</text>
<text text-anchor="start" x="132.75" y="-28.25" font-family="Helvetica,sans-Serif" font-size="10.00"> detail::normalize_overload</text>
<text text-anchor="start" x="132.75" y="-17" font-family="Helvetica,sans-Serif" font-size="10.00">_t&lt; First &gt;, detail::normalize</text>
<text text-anchor="middle" x="192" y="-5.75" font-family="Helvetica,sans-Serif" font-size="10.00">_overload_t&lt; Second &gt; &gt;</text>
</a>
</g>
</g>
<!-- Node0&#45;&gt;Node1 -->
<g id="edge23_Node000000_Node000001" class="edge">
<title>Node0&#45;&gt;Node1</title>
<g id="a_edge23_Node000000_Node000001"><a xlink:title=" ">
<path fill="none" stroke="#63b8ff" d="M100.34,-32.12C108.21,-32.12 116.38,-32.12 124.45,-32.12"/>
<polygon fill="#63b8ff" stroke="#63b8ff" points="100.58,-28.63 90.58,-32.13 100.58,-35.63 100.58,-28.63"/>
</a>
</g>
</g>
<!-- Node2 -->
<g id="Node000002" class="node">
<title>Node2</title>
<g id="a_Node000002"><a xlink:href="d4/dd6/structmimicpp_1_1is__overloadable__with.html" target="_top" xlink:title="Primary template.">
<polygon fill="white" stroke="#666666" points="420,-47.38 295.25,-47.38 295.25,-16.88 420,-16.88 420,-47.38"/>
<text text-anchor="start" x="303.25" y="-33.88" font-family="Helvetica,sans-Serif" font-size="10.00">mimicpp::is_overloadable</text>
<text text-anchor="middle" x="357.62" y="-22.62" font-family="Helvetica,sans-Serif" font-size="10.00">_with&lt; First, Second &gt;</text>
</a>
</g>
</g>
<!-- Node1&#45;&gt;Node2 -->
<g id="edge24_Node000001_Node000002" class="edge">
<title>Node1&#45;&gt;Node2</title>
<g id="a_edge24_Node000001_Node000002"><a xlink:title=" ">
<path fill="none" stroke="#63b8ff" d="M270.87,-32.12C278.93,-32.12 287.04,-32.12 294.88,-32.12"/>
<polygon fill="#63b8ff" stroke="#63b8ff" points="271.07,-28.63 261.07,-32.13 271.07,-35.63 271.07,-28.63"/>
</a>
</g>
</g>
</g>
</svg>
