<?xml version="1.0" encoding="UTF-8" standalone="no"?>
<!DOCTYPE svg PUBLIC "-//W3C//DTD SVG 1.1//EN"
 "http://www.w3.org/Graphics/SVG/1.1/DTD/svg11.dtd">
<!-- Generated by graphviz version 12.2.1 (20241206.2353)
 -->
<!-- Title: Graphical Class Hierarchy Pages: 1 -->
<svg width="279pt" height="410pt"
 viewBox="0.00 0.00 279.25 409.75" xmlns="http://www.w3.org/2000/svg" xmlns:xlink="http://www.w3.org/1999/xlink">
<g id="graph0" class="graph" transform="scale(1 1) rotate(0) translate(4 405.75)">
<title>Graphical Class Hierarchy</title>
<!-- Node0 -->
<g id="Node000000" class="node">
<title>Node0</title>
<g id="a_Node000000"><a xlink:title=" ">
<polygon fill="#e0e0e0" stroke="#999999" points="108.25,-210.5 0,-210.5 0,-191.25 108.25,-191.25 108.25,-210.5"/>
<text text-anchor="middle" x="54.12" y="-197" font-family="Helvetica,sans-Serif" font-size="10.00">std::integral_constant</text>
</a>
</g>
</g>
<!-- Node1 -->
<g id="Node000001" class="node">
<title>Node1</title>
<g id="a_Node000001"><a xlink:href="d2/de2/structmimicpp_1_1signature__const__qualification.html" target="_top" xlink:title="Primary template.">
<polygon fill="white" stroke="#666666" points="258.5,-401.75 157,-401.75 157,-360 258.5,-360 258.5,-401.75"/>
<text text-anchor="start" x="165" y="-388.25" font-family="Helvetica,sans-Serif" font-size="10.00">mimicpp::signature</text>
<text text-anchor="start" x="165" y="-377" font-family="Helvetica,sans-Serif" font-size="10.00">_const_qualification</text>
<text text-anchor="middle" x="207.75" y="-365.75" font-family="Helvetica,sans-Serif" font-size="10.00">&lt; Signature &gt;</text>
</a>
</g>
</g>
<!-- Node0&#45;&gt;Node1 -->
<g id="edge47_Node000000_Node000001" class="edge">
<title>Node0&#45;&gt;Node1</title>
<g id="a_edge47_Node000000_Node000001"><a xlink:title=" ">
<path fill="none" stroke="#63b8ff" d="M62.83,-221.55C75.49,-253.1 103.43,-313.52 144.25,-350.88 147.98,-354.29 152.17,-357.39 156.56,-360.19"/>
<polygon fill="#63b8ff" stroke="#63b8ff" points="66.15,-220.45 59.28,-212.4 59.63,-222.99 66.15,-220.45"/>
</a>
</g>
</g>
<!-- Node2 -->
<g id="Node000002" class="node">
<title>Node2</title>
<g id="a_Node000002"><a xlink:href="d7/d97/structmimicpp_1_1signature__ref__qualification.html" target="_top" xlink:title=" ">
<polygon fill="white" stroke="#666666" points="266.38,-341.75 149.12,-341.75 149.12,-300 266.38,-300 266.38,-341.75"/>
<text text-anchor="start" x="157.12" y="-328.25" font-family="Helvetica,sans-Serif" font-size="10.00">mimicpp::signature</text>
<text text-anchor="start" x="157.12" y="-317" font-family="Helvetica,sans-Serif" font-size="10.00">_ref_qualification&lt;</text>
<text text-anchor="middle" x="207.75" y="-305.75" font-family="Helvetica,sans-Serif" font-size="10.00"> Return(Params...) &amp;&amp; &gt;</text>
</a>
</g>
</g>
<!-- Node0&#45;&gt;Node2 -->
<g id="edge48_Node000000_Node000002" class="edge">
<title>Node0&#45;&gt;Node2</title>
<g id="a_edge48_Node000000_Node000002"><a xlink:title=" ">
<path fill="none" stroke="#63b8ff" d="M70.22,-219.54C86.81,-239.17 115,-270.04 144.25,-290.88 148.56,-293.95 153.24,-296.85 158.03,-299.55"/>
<polygon fill="#63b8ff" stroke="#63b8ff" points="73.1,-217.53 64.02,-212.07 67.71,-222 73.1,-217.53"/>
</a>
</g>
</g>
<!-- Node3 -->
<g id="Node000003" class="node">
<title>Node3</title>
<g id="a_Node000003"><a xlink:href="d7/d97/structmimicpp_1_1signature__ref__qualification.html" target="_top" xlink:title=" ">
<polygon fill="white" stroke="#666666" points="261.88,-281.75 153.62,-281.75 153.62,-240 261.88,-240 261.88,-281.75"/>
<text text-anchor="start" x="161.62" y="-268.25" font-family="Helvetica,sans-Serif" font-size="10.00">mimicpp::signature</text>
<text text-anchor="start" x="161.62" y="-257" font-family="Helvetica,sans-Serif" font-size="10.00">_ref_qualification&lt;</text>
<text text-anchor="middle" x="207.75" y="-245.75" font-family="Helvetica,sans-Serif" font-size="10.00"> Return(Params...)&amp; &gt;</text>
</a>
</g>
</g>
<!-- Node0&#45;&gt;Node3 -->
<g id="edge49_Node000000_Node000003" class="edge">
<title>Node0&#45;&gt;Node3</title>
<g id="a_edge49_Node000000_Node000003"><a xlink:title=" ">
<path fill="none" stroke="#63b8ff" d="M91.14,-215.13C109.7,-222.47 132.69,-231.57 153.27,-239.71"/>
<polygon fill="#63b8ff" stroke="#63b8ff" points="92.5,-211.9 81.91,-211.47 89.92,-218.41 92.5,-211.9"/>
</a>
</g>
</g>
<!-- Node4 -->
<g id="Node000004" class="node">
<title>Node4</title>
<g id="a_Node000004"><a xlink:href="d7/d97/structmimicpp_1_1signature__ref__qualification.html" target="_top" xlink:title=" ">
<polygon fill="white" stroke="#666666" points="257.38,-221.75 158.12,-221.75 158.12,-180 257.38,-180 257.38,-221.75"/>
<text text-anchor="start" x="166.12" y="-208.25" font-family="Helvetica,sans-Serif" font-size="10.00">mimicpp::signature</text>
<text text-anchor="start" x="166.12" y="-197" font-family="Helvetica,sans-Serif" font-size="10.00">_ref_qualification&lt;</text>
<text text-anchor="middle" x="207.75" y="-185.75" font-family="Helvetica,sans-Serif" font-size="10.00"> Return(Params...)&gt;</text>
</a>
</g>
</g>
<!-- Node0&#45;&gt;Node4 -->
<g id="edge50_Node000000_Node000004" class="edge">
<title>Node0&#45;&gt;Node4</title>
<g id="a_edge50_Node000000_Node000004"><a xlink:title=" ">
<path fill="none" stroke="#63b8ff" d="M120.05,-200.88C132.71,-200.88 145.79,-200.88 157.83,-200.88"/>
<polygon fill="#63b8ff" stroke="#63b8ff" points="120.1,-197.38 110.1,-200.88 120.1,-204.38 120.1,-197.38"/>
</a>
</g>
</g>
<!-- Node5 -->
<g id="Node000005" class="node">
<title>Node5</title>
<g id="a_Node000005"><a xlink:href="d7/d97/structmimicpp_1_1signature__ref__qualification.html" target="_top" xlink:title=" ">
<polygon fill="white" stroke="#666666" points="271.25,-161.75 144.25,-161.75 144.25,-120 271.25,-120 271.25,-161.75"/>
<text text-anchor="start" x="152.25" y="-148.25" font-family="Helvetica,sans-Serif" font-size="10.00">mimicpp::signature</text>
<text text-anchor="start" x="152.25" y="-137" font-family="Helvetica,sans-Serif" font-size="10.00">_ref_qualification&lt;</text>
<text text-anchor="middle" x="207.75" y="-125.75" font-family="Helvetica,sans-Serif" font-size="10.00"> Return(Params...,...) &amp;&amp; &gt;</text>
</a>
</g>
</g>
<!-- Node0&#45;&gt;Node5 -->
<g id="edge51_Node000000_Node000005" class="edge">
<title>Node0&#45;&gt;Node5</title>
<g id="a_edge51_Node000000_Node000005"><a xlink:title=" ">
<path fill="none" stroke="#63b8ff" d="M91.09,-186.64C109.56,-179.33 132.44,-170.28 152.96,-162.16"/>
<polygon fill="#63b8ff" stroke="#63b8ff" points="89.92,-183.34 81.91,-190.28 92.5,-189.85 89.92,-183.34"/>
</a>
</g>
</g>
<!-- Node6 -->
<g id="Node000006" class="node">
<title>Node6</title>
<g id="a_Node000006"><a xlink:href="d7/d97/structmimicpp_1_1signature__ref__qualification.html" target="_top" xlink:title=" ">
<polygon fill="white" stroke="#666666" points="266.75,-101.75 148.75,-101.75 148.75,-60 266.75,-60 266.75,-101.75"/>
<text text-anchor="start" x="156.75" y="-88.25" font-family="Helvetica,sans-Serif" font-size="10.00">mimicpp::signature</text>
<text text-anchor="start" x="156.75" y="-77" font-family="Helvetica,sans-Serif" font-size="10.00">_ref_qualification&lt;</text>
<text text-anchor="middle" x="207.75" y="-65.75" font-family="Helvetica,sans-Serif" font-size="10.00"> Return(Params...,...)&amp; &gt;</text>
</a>
</g>
</g>
<!-- Node0&#45;&gt;Node6 -->
<g id="edge52_Node000000_Node000006" class="edge">
<title>Node0&#45;&gt;Node6</title>
<g id="a_edge52_Node000000_Node000006"><a xlink:title=" ">
<path fill="none" stroke="#63b8ff" d="M70.22,-182.21C86.81,-162.58 115,-131.71 144.25,-110.88 148.56,-107.8 153.24,-104.9 158.03,-102.2"/>
<polygon fill="#63b8ff" stroke="#63b8ff" points="67.71,-179.75 64.02,-189.68 73.1,-184.22 67.71,-179.75"/>
</a>
</g>
</g>
<!-- Node7 -->
<g id="Node000007" class="node">
<title>Node7</title>
<g id="a_Node000007"><a xlink:href="d7/d97/structmimicpp_1_1signature__ref__qualification.html" target="_top" xlink:title=" ">
<polygon fill="white" stroke="#666666" points="262.25,-41.75 153.25,-41.75 153.25,0 262.25,0 262.25,-41.75"/>
<text text-anchor="start" x="161.25" y="-28.25" font-family="Helvetica,sans-Serif" font-size="10.00">mimicpp::signature</text>
<text text-anchor="start" x="161.25" y="-17" font-family="Helvetica,sans-Serif" font-size="10.00">_ref_qualification&lt;</text>
<text text-anchor="middle" x="207.75" y="-5.75" font-family="Helvetica,sans-Serif" font-size="10.00"> Return(Params...,...)&gt;</text>
</a>
</g>
</g>
<!-- Node0&#45;&gt;Node7 -->
<g id="edge53_Node000000_Node000007" class="edge">
<title>Node0&#45;&gt;Node7</title>
<g id="a_edge53_Node000000_Node000007"><a xlink:title=" ">
<path fill="none" stroke="#63b8ff" d="M62.83,-180.2C75.49,-148.65 103.43,-88.23 144.25,-50.88 147.71,-47.71 151.57,-44.81 155.62,-42.17"/>
<polygon fill="#63b8ff" stroke="#63b8ff" points="59.63,-178.76 59.28,-189.35 66.15,-181.3 59.63,-178.76"/>
</a>
</g>
</g>
</g>
</svg>
