<?xml version="1.0" encoding="UTF-8" standalone="no"?>
<!DOCTYPE svg PUBLIC "-//W3C//DTD SVG 1.1//EN"
 "http://www.w3.org/Graphics/SVG/1.1/DTD/svg11.dtd">
<!-- Generated by graphviz version 12.1.1 (20240910.0053)
 -->
<!-- Title: Graphical Class Hierarchy Pages: 1 -->
<svg width="345pt" height="88pt"
 viewBox="0.00 0.00 344.50 87.50" xmlns="http://www.w3.org/2000/svg" xmlns:xlink="http://www.w3.org/1999/xlink">
<g id="graph0" class="graph" transform="scale(1 1) rotate(0) translate(4 83.5)">
<title>Graphical Class Hierarchy</title>
<!-- Node0 -->
<g id="Node000000" class="node">
<title>Node0</title>
<g id="a_Node000000"><a xlink:title=" ">
<polygon fill="#e0e0e0" stroke="#999999" points="147.25,-79.5 0,-79.5 0,-49 147.25,-49 147.25,-79.5"/>
<text text-anchor="start" x="8" y="-66" font-family="Helvetica,sans-Serif" font-size="10.00">mimicpp::detail::MockFrontend</text>
<text text-anchor="middle" x="73.62" y="-54.75" font-family="Helvetica,sans-Serif" font-size="10.00">&lt; FirstSignature &gt;</text>
</a>
</g>
</g>
<!-- Node1 -->
<g id="Node000001" class="node">
<title>Node1</title>
<g id="a_Node000001"><a xlink:href="d2/d48/classmimicpp_1_1_mock.html" target="_top" xlink:title="A Mock type, which fully supports overload sets.">
<polygon fill="white" stroke="#666666" points="336.5,-54.5 183.25,-54.5 183.25,-24 336.5,-24 336.5,-54.5"/>
<text text-anchor="start" x="191.25" y="-41" font-family="Helvetica,sans-Serif" font-size="10.00">mimicpp::Mock&lt; FirstSignature,</text>
<text text-anchor="middle" x="259.88" y="-29.75" font-family="Helvetica,sans-Serif" font-size="10.00"> OtherSignatures &gt;</text>
</a>
</g>
</g>
<!-- Node0&#45;&gt;Node1 -->
<g id="edge1_Node000000_Node000001" class="edge">
<title>Node0&#45;&gt;Node1</title>
<g id="a_edge1_Node000000_Node000001"><a xlink:title=" ">
<path fill="none" stroke="#63b8ff" d="M158.92,-52.81C166.9,-51.73 174.96,-50.64 182.86,-49.56"/>
<polygon fill="#63b8ff" stroke="#63b8ff" points="158.65,-49.32 149.21,-54.13 159.59,-56.25 158.65,-49.32"/>
</a>
</g>
</g>
<!-- Node2 -->
<g id="Node000002" class="node">
<title>Node2</title>
<g id="a_Node000002"><a xlink:title=" ">
<polygon fill="#e0e0e0" stroke="#999999" points="147.25,-30.5 0,-30.5 0,0 147.25,0 147.25,-30.5"/>
<text text-anchor="start" x="8" y="-17" font-family="Helvetica,sans-Serif" font-size="10.00">mimicpp::detail::MockFrontend</text>
<text text-anchor="middle" x="73.62" y="-5.75" font-family="Helvetica,sans-Serif" font-size="10.00">&lt; OtherSignatures &gt;</text>
</a>
</g>
</g>
<!-- Node2&#45;&gt;Node1 -->
<g id="edge2_Node000002_Node000001" class="edge">
<title>Node2&#45;&gt;Node1</title>
<g id="a_edge2_Node000002_Node000001"><a xlink:title=" ">
<path fill="none" stroke="#63b8ff" d="M158.92,-26.23C166.9,-27.27 174.96,-28.32 182.86,-29.35"/>
<polygon fill="#63b8ff" stroke="#63b8ff" points="159.58,-22.79 149.21,-24.97 158.68,-29.73 159.58,-22.79"/>
</a>
</g>
</g>
</g>
</svg>
