<?xml version="1.0" encoding="UTF-8" standalone="no"?>
<!DOCTYPE svg PUBLIC "-//W3C//DTD SVG 1.1//EN"
 "http://www.w3.org/Graphics/SVG/1.1/DTD/svg11.dtd">
<!-- Generated by graphviz version 12.2.1 (20241206.2353)
 -->
<!-- Title: Graphical Class Hierarchy Pages: 1 -->
<svg width="279pt" height="600pt"
 viewBox="0.00 0.00 279.25 600.12" xmlns="http://www.w3.org/2000/svg" xmlns:xlink="http://www.w3.org/1999/xlink">
<g id="graph0" class="graph" transform="scale(1 1) rotate(0) translate(4 596.12)">
<title>Graphical Class Hierarchy</title>
<!-- Node0 -->
<g id="Node000000" class="node">
<title>Node0</title>
<g id="a_Node000000"><a xlink:title=" ">
<polygon fill="#e0e0e0" stroke="#999999" points="108.25,-310.88 0,-310.88 0,-291.62 108.25,-291.62 108.25,-310.88"/>
<text text-anchor="middle" x="54.12" y="-297.38" font-family="Helvetica,sans-Serif" font-size="10.00">std::integral_constant</text>
</a>
</g>
</g>
<!-- Node1 -->
<g id="Node000001" class="node">
<title>Node1</title>
<g id="a_Node000001"><a xlink:href="d2/de2/structmimicpp_1_1signature__const__qualification.html" target="_top" xlink:title="Primary template.">
<polygon fill="white" stroke="#666666" points="258.5,-592.12 157,-592.12 157,-550.38 258.5,-550.38 258.5,-592.12"/>
<text text-anchor="start" x="165" y="-578.62" font-family="Helvetica,sans-Serif" font-size="10.00">mimicpp::signature</text>
<text text-anchor="start" x="165" y="-567.38" font-family="Helvetica,sans-Serif" font-size="10.00">_const_qualification</text>
<text text-anchor="middle" x="207.75" y="-556.12" font-family="Helvetica,sans-Serif" font-size="10.00">&lt; Signature &gt;</text>
</a>
</g>
</g>
<!-- Node0&#45;&gt;Node1 -->
<g id="edge61_Node000000_Node000001" class="edge">
<title>Node0&#45;&gt;Node1</title>
<g id="a_edge61_Node000000_Node000001"><a xlink:title=" ">
<path fill="none" stroke="#63b8ff" d="M57.65,-322.66C64.08,-368.3 84.97,-476.25 144.25,-541.25 147.9,-545.25 152.2,-548.77 156.8,-551.86"/>
<polygon fill="#63b8ff" stroke="#63b8ff" points="61.13,-322.27 56.37,-312.8 54.19,-323.17 61.13,-322.27"/>
</a>
</g>
</g>
<!-- Node2 -->
<g id="Node000002" class="node">
<title>Node2</title>
<g id="a_Node000002"><a xlink:href="d1/d70/structmimicpp_1_1signature__ref__qualification_3_01_return_07_params_8_8_8_08_01_6_6_01_4.html" target="_top" xlink:title=" ">
<polygon fill="white" stroke="#666666" points="266.38,-532.12 149.12,-532.12 149.12,-490.38 266.38,-490.38 266.38,-532.12"/>
<text text-anchor="start" x="157.12" y="-518.62" font-family="Helvetica,sans-Serif" font-size="10.00">mimicpp::signature</text>
<text text-anchor="start" x="157.12" y="-507.38" font-family="Helvetica,sans-Serif" font-size="10.00">_ref_qualification&lt;</text>
<text text-anchor="middle" x="207.75" y="-496.12" font-family="Helvetica,sans-Serif" font-size="10.00"> Return(Params...) &amp;&amp; &gt;</text>
</a>
</g>
</g>
<!-- Node0&#45;&gt;Node2 -->
<g id="edge62_Node000000_Node000002" class="edge">
<title>Node0&#45;&gt;Node2</title>
<g id="a_edge62_Node000000_Node000002"><a xlink:title=" ">
<path fill="none" stroke="#63b8ff" d="M60.51,-321.94C70.97,-358.44 97.22,-434.79 144.25,-481.25 147.5,-484.46 151.17,-487.39 155.05,-490.03"/>
<polygon fill="#63b8ff" stroke="#63b8ff" points="63.99,-321.36 57.97,-312.65 57.24,-323.22 63.99,-321.36"/>
</a>
</g>
</g>
<!-- Node3 -->
<g id="Node000003" class="node">
<title>Node3</title>
<g id="a_Node000003"><a xlink:href="df/de4/structmimicpp_1_1signature__ref__qualification_3_01_return_07_params_8_8_8_08_6_01_4.html" target="_top" xlink:title=" ">
<polygon fill="white" stroke="#666666" points="261.88,-472.12 153.62,-472.12 153.62,-430.38 261.88,-430.38 261.88,-472.12"/>
<text text-anchor="start" x="161.62" y="-458.62" font-family="Helvetica,sans-Serif" font-size="10.00">mimicpp::signature</text>
<text text-anchor="start" x="161.62" y="-447.38" font-family="Helvetica,sans-Serif" font-size="10.00">_ref_qualification&lt;</text>
<text text-anchor="middle" x="207.75" y="-436.12" font-family="Helvetica,sans-Serif" font-size="10.00"> Return(Params...)&amp; &gt;</text>
</a>
</g>
</g>
<!-- Node0&#45;&gt;Node3 -->
<g id="edge63_Node000000_Node000003" class="edge">
<title>Node0&#45;&gt;Node3</title>
<g id="a_edge63_Node000000_Node000003"><a xlink:title=" ">
<path fill="none" stroke="#63b8ff" d="M65.72,-321.01C80.43,-346.89 109.22,-392.35 144.25,-421.25 148.06,-424.39 152.25,-427.29 156.6,-429.96"/>
<polygon fill="#63b8ff" stroke="#63b8ff" points="68.95,-319.6 61.04,-312.55 62.82,-322.99 68.95,-319.6"/>
</a>
</g>
</g>
<!-- Node4 -->
<g id="Node000004" class="node">
<title>Node4</title>
<g id="a_Node000004"><a xlink:href="db/df8/structmimicpp_1_1signature__ref__qualification_3_01_return_07_params_8_8_8_08_4.html" target="_top" xlink:title=" ">
<polygon fill="white" stroke="#666666" points="257.38,-412.12 158.12,-412.12 158.12,-370.38 257.38,-370.38 257.38,-412.12"/>
<text text-anchor="start" x="166.12" y="-398.62" font-family="Helvetica,sans-Serif" font-size="10.00">mimicpp::signature</text>
<text text-anchor="start" x="166.12" y="-387.38" font-family="Helvetica,sans-Serif" font-size="10.00">_ref_qualification&lt;</text>
<text text-anchor="middle" x="207.75" y="-376.12" font-family="Helvetica,sans-Serif" font-size="10.00"> Return(Params...)&gt;</text>
</a>
</g>
</g>
<!-- Node0&#45;&gt;Node4 -->
<g id="edge64_Node000000_Node000004" class="edge">
<title>Node0&#45;&gt;Node4</title>
<g id="a_edge64_Node000000_Node000004"><a xlink:title=" ">
<path fill="none" stroke="#63b8ff" d="M77.58,-317.7C95.26,-330.32 120.76,-347.8 144.25,-361.25 149.47,-364.24 155.04,-367.21 160.62,-370.05"/>
<polygon fill="#63b8ff" stroke="#63b8ff" points="80.01,-315.13 69.85,-312.13 75.92,-320.81 80.01,-315.13"/>
</a>
</g>
</g>
<!-- Node5 -->
<g id="Node000005" class="node">
<title>Node5</title>
<g id="a_Node000005"><a xlink:href="d5/dfd/structmimicpp_1_1signature__ref__qualification_3_01_return_07_params_8_8_8_00_8_8_8_08_01_6_6_01_4.html" target="_top" xlink:title=" ">
<polygon fill="white" stroke="#666666" points="271.25,-352.12 144.25,-352.12 144.25,-310.38 271.25,-310.38 271.25,-352.12"/>
<text text-anchor="start" x="152.25" y="-338.62" font-family="Helvetica,sans-Serif" font-size="10.00">mimicpp::signature</text>
<text text-anchor="start" x="152.25" y="-327.38" font-family="Helvetica,sans-Serif" font-size="10.00">_ref_qualification&lt;</text>
<text text-anchor="middle" x="207.75" y="-316.12" font-family="Helvetica,sans-Serif" font-size="10.00"> Return(Params...,...) &amp;&amp; &gt;</text>
</a>
</g>
</g>
<!-- Node0&#45;&gt;Node5 -->
<g id="edge65_Node000000_Node000005" class="edge">
<title>Node0&#45;&gt;Node5</title>
<g id="a_edge65_Node000000_Node000005"><a xlink:title=" ">
<path fill="none" stroke="#63b8ff" d="M117.05,-313.5C125.89,-315.25 134.99,-317.05 143.85,-318.81"/>
<polygon fill="#63b8ff" stroke="#63b8ff" points="118.01,-310.12 107.52,-311.62 116.65,-316.99 118.01,-310.12"/>
</a>
</g>
</g>
<!-- Node6 -->
<g id="Node000006" class="node">
<title>Node6</title>
<g id="a_Node000006"><a xlink:href="d6/d7d/structmimicpp_1_1signature__ref__qualification_3_01_return_07_params_8_8_8_00_8_8_8_08_6_01_4.html" target="_top" xlink:title=" ">
<polygon fill="white" stroke="#666666" points="266.75,-292.12 148.75,-292.12 148.75,-250.38 266.75,-250.38 266.75,-292.12"/>
<text text-anchor="start" x="156.75" y="-278.62" font-family="Helvetica,sans-Serif" font-size="10.00">mimicpp::signature</text>
<text text-anchor="start" x="156.75" y="-267.38" font-family="Helvetica,sans-Serif" font-size="10.00">_ref_qualification&lt;</text>
<text text-anchor="middle" x="207.75" y="-256.12" font-family="Helvetica,sans-Serif" font-size="10.00"> Return(Params...,...)&amp; &gt;</text>
</a>
</g>
</g>
<!-- Node0&#45;&gt;Node6 -->
<g id="edge66_Node000000_Node000006" class="edge">
<title>Node0&#45;&gt;Node6</title>
<g id="a_edge66_Node000000_Node000006"><a xlink:title=" ">
<path fill="none" stroke="#63b8ff" d="M117.08,-288.99C127.43,-286.94 138.13,-284.83 148.38,-282.8"/>
<polygon fill="#63b8ff" stroke="#63b8ff" points="116.65,-285.51 107.52,-290.88 118.01,-292.38 116.65,-285.51"/>
</a>
</g>
</g>
<!-- Node7 -->
<g id="Node000007" class="node">
<title>Node7</title>
<g id="a_Node000007"><a xlink:href="d5/db0/structmimicpp_1_1signature__ref__qualification_3_01_return_07_params_8_8_8_00_8_8_8_08_4.html" target="_top" xlink:title=" ">
<polygon fill="white" stroke="#666666" points="262.25,-232.12 153.25,-232.12 153.25,-190.38 262.25,-190.38 262.25,-232.12"/>
<text text-anchor="start" x="161.25" y="-218.62" font-family="Helvetica,sans-Serif" font-size="10.00">mimicpp::signature</text>
<text text-anchor="start" x="161.25" y="-207.38" font-family="Helvetica,sans-Serif" font-size="10.00">_ref_qualification&lt;</text>
<text text-anchor="middle" x="207.75" y="-196.12" font-family="Helvetica,sans-Serif" font-size="10.00"> Return(Params...,...)&gt;</text>
</a>
</g>
</g>
<!-- Node0&#45;&gt;Node7 -->
<g id="edge67_Node000000_Node000007" class="edge">
<title>Node0&#45;&gt;Node7</title>
<g id="a_edge67_Node000000_Node000007"><a xlink:title=" ">
<path fill="none" stroke="#63b8ff" d="M77.58,-284.8C95.26,-272.18 120.76,-254.7 144.25,-241.25 149.47,-238.26 155.04,-235.29 160.62,-232.45"/>
<polygon fill="#63b8ff" stroke="#63b8ff" points="75.92,-281.69 69.85,-290.37 80.01,-287.37 75.92,-281.69"/>
</a>
</g>
</g>
<!-- Node8 -->
<g id="Node000008" class="node">
<title>Node8</title>
<g id="a_Node000008"><a xlink:href="d3/d23/structmimicpp_1_1util_1_1type__list__index__of_3_01type__list_3_01_first_00_01_elements_8_8_8_01_4_00_01_t_01_4.html" target="_top" xlink:title=" ">
<polygon fill="white" stroke="#666666" points="264.88,-172.75 150.62,-172.75 150.62,-119.75 264.88,-119.75 264.88,-172.75"/>
<text text-anchor="start" x="158.62" y="-159.25" font-family="Helvetica,sans-Serif" font-size="10.00">mimicpp::util::type</text>
<text text-anchor="start" x="158.62" y="-148" font-family="Helvetica,sans-Serif" font-size="10.00">_list_index_of&lt; type</text>
<text text-anchor="start" x="158.62" y="-136.75" font-family="Helvetica,sans-Serif" font-size="10.00">_list&lt; First, Elements...</text>
<text text-anchor="middle" x="207.75" y="-125.5" font-family="Helvetica,sans-Serif" font-size="10.00"> &gt;, T &gt;</text>
</a>
</g>
</g>
<!-- Node0&#45;&gt;Node8 -->
<g id="edge68_Node000000_Node000008" class="edge">
<title>Node0&#45;&gt;Node8</title>
<g id="a_edge68_Node000000_Node000008"><a xlink:title=" ">
<path fill="none" stroke="#63b8ff" d="M66,-281.82C81.02,-256.3 110.14,-211.24 144.25,-181.25 147.52,-178.38 151.06,-175.63 154.74,-173.04"/>
<polygon fill="#63b8ff" stroke="#63b8ff" points="63.17,-279.73 61.21,-290.14 69.23,-283.22 63.17,-279.73"/>
</a>
</g>
</g>
<!-- Node9 -->
<g id="Node000009" class="node">
<title>Node9</title>
<g id="a_Node000009"><a xlink:href="d0/d01/structmimicpp_1_1util_1_1type__list__index__of_3_01type__list_3_01_t_00_01_elements_8_8_8_01_4_00_01_t_01_4.html" target="_top" xlink:title=" ">
<polygon fill="white" stroke="#666666" points="258.5,-101.75 157,-101.75 157,-48.75 258.5,-48.75 258.5,-101.75"/>
<text text-anchor="start" x="165" y="-88.25" font-family="Helvetica,sans-Serif" font-size="10.00">mimicpp::util::type</text>
<text text-anchor="start" x="165" y="-77" font-family="Helvetica,sans-Serif" font-size="10.00">_list_index_of&lt; type</text>
<text text-anchor="start" x="165" y="-65.75" font-family="Helvetica,sans-Serif" font-size="10.00">_list&lt; T, Elements...</text>
<text text-anchor="middle" x="207.75" y="-54.5" font-family="Helvetica,sans-Serif" font-size="10.00"> &gt;, T &gt;</text>
</a>
</g>
</g>
<!-- Node0&#45;&gt;Node9 -->
<g id="edge69_Node000000_Node000009" class="edge">
<title>Node0&#45;&gt;Node9</title>
<g id="a_edge69_Node000000_Node000009"><a xlink:title=" ">
<path fill="none" stroke="#63b8ff" d="M60.42,-280.32C70.87,-242.58 97.28,-162.34 144.25,-111.25 147.89,-107.29 152.08,-103.64 156.52,-100.31"/>
<polygon fill="#63b8ff" stroke="#63b8ff" points="57.06,-279.35 57.87,-289.92 63.82,-281.15 57.06,-279.35"/>
</a>
</g>
</g>
<!-- Node10 -->
<g id="Node000010" class="node">
<title>Node10</title>
<g id="a_Node000010"><a xlink:href="d1/d95/structstd_1_1tuple__size_3_01mimicpp_1_1util_1_1type__list_3_01_args_8_8_8_01_4_01_4.html" target="_top" xlink:title=" ">
<polygon fill="white" stroke="#666666" points="270.5,-30.5 145,-30.5 145,0 270.5,0 270.5,-30.5"/>
<text text-anchor="start" x="153" y="-17" font-family="Helvetica,sans-Serif" font-size="10.00">std::tuple_size&lt; mimicpp</text>
<text text-anchor="middle" x="207.75" y="-5.75" font-family="Helvetica,sans-Serif" font-size="10.00">::util::type_list&lt; Args... &gt; &gt;</text>
</a>
</g>
</g>
<!-- Node0&#45;&gt;Node10 -->
<g id="edge70_Node000000_Node000010" class="edge">
<title>Node0&#45;&gt;Node10</title>
<g id="a_edge70_Node000000_Node000010"><a xlink:title=" ">
<path fill="none" stroke="#63b8ff" d="M56.52,-279.97C60.82,-231.18 77.96,-110.04 144.25,-40.25 147.63,-36.69 151.58,-33.63 155.83,-30.99"/>
<polygon fill="#63b8ff" stroke="#63b8ff" points="53.05,-279.48 55.76,-289.73 60.03,-280.03 53.05,-279.48"/>
</a>
</g>
</g>
</g>
</svg>
