<?xml version="1.0" encoding="UTF-8" standalone="no"?>
<!DOCTYPE svg PUBLIC "-//W3C//DTD SVG 1.1//EN"
 "http://www.w3.org/Graphics/SVG/1.1/DTD/svg11.dtd">
<!-- Generated by graphviz version 11.0.0 (20240428.1522)
 -->
<!-- Title: Graphical Class Hierarchy Pages: 1 -->
<svg width="266pt" height="64pt"
 viewBox="0.00 0.00 265.75 64.25" xmlns="http://www.w3.org/2000/svg" xmlns:xlink="http://www.w3.org/1999/xlink">
<g id="graph0" class="graph" transform="scale(1 1) rotate(0) translate(4 60.25)">
<title>Graphical Class Hierarchy</title>
<!-- Node0 -->
<g id="Node000000" class="node">
<title>Node0</title>
<g id="a_Node000000"><a xlink:href="dd/df0/classmimicpp_1_1_i_reporter.html" target="_top" xlink:title="The reporter interface.">
<polygon fill="white" stroke="#666666" points="97,-37.25 0,-37.25 0,-18 97,-18 97,-37.25"/>
<text text-anchor="middle" x="48.5" y="-23.75" font-family="Helvetica,sans-Serif" font-size="10.00">mimicpp::IReporter</text>
</a>
</g>
</g>
<!-- Node1 -->
<g id="Node000001" class="node">
<title>Node1</title>
<g id="a_Node000001"><a xlink:href="d6/d82/classmimicpp_1_1_catch2_reporter.html" target="_top" xlink:title="Reporter for the integration into Catch2.">
<polygon fill="white" stroke="#666666" points="257.75,-56.25 133,-56.25 133,-37 257.75,-37 257.75,-56.25"/>
<text text-anchor="middle" x="195.38" y="-42.75" font-family="Helvetica,sans-Serif" font-size="10.00">mimicpp::Catch2Reporter</text>
</a>
</g>
</g>
<!-- Node0&#45;&gt;Node1 -->
<g id="edge5_Node000000_Node000001" class="edge">
<title>Node0&#45;&gt;Node1</title>
<g id="a_edge5_Node000000_Node000001"><a xlink:title=" ">
<path fill="none" stroke="#63b8ff" d="M108.7,-35.39C116.59,-36.42 124.7,-37.49 132.64,-38.53"/>
<polygon fill="#63b8ff" stroke="#63b8ff" points="109.21,-31.93 98.84,-34.1 108.3,-38.87 109.21,-31.93"/>
</a>
</g>
</g>
<!-- Node2 -->
<g id="Node000002" class="node">
<title>Node2</title>
<g id="a_Node000002"><a xlink:href="d3/d32/classmimicpp_1_1_default_reporter.html" target="_top" xlink:title="The default reporter.">
<polygon fill="white" stroke="#666666" points="257.75,-19.25 133,-19.25 133,0 257.75,0 257.75,-19.25"/>
<text text-anchor="middle" x="195.38" y="-5.75" font-family="Helvetica,sans-Serif" font-size="10.00">mimicpp::DefaultReporter</text>
</a>
</g>
</g>
<!-- Node0&#45;&gt;Node2 -->
<g id="edge6_Node000000_Node000002" class="edge">
<title>Node0&#45;&gt;Node2</title>
<g id="a_edge6_Node000000_Node000002"><a xlink:title=" ">
<path fill="none" stroke="#63b8ff" d="M108.7,-20.27C116.59,-19.29 124.7,-18.28 132.64,-17.3"/>
<polygon fill="#63b8ff" stroke="#63b8ff" points="108.33,-16.79 98.84,-21.49 109.2,-23.73 108.33,-16.79"/>
</a>
</g>
</g>
</g>
</svg>
