<?xml version="1.0" encoding="UTF-8" standalone="no"?>
<!DOCTYPE svg PUBLIC "-//W3C//DTD SVG 1.1//EN"
 "http://www.w3.org/Graphics/SVG/1.1/DTD/svg11.dtd">
<!-- Generated by graphviz version 11.0.0 (20240428.1522)
 -->
<!-- Title: mimicpp::stringify_call_report Pages: 1 -->
<svg width="276pt" height="196pt"
 viewBox="0.00 0.00 276.25 195.50" xmlns="http://www.w3.org/2000/svg" xmlns:xlink="http://www.w3.org/1999/xlink">
<g id="graph0" class="graph" transform="scale(1 1) rotate(0) translate(4 191.5)">
<title>mimicpp::stringify_call_report</title>
<!-- Node1 -->
<g id="Node000001" class="node">
<title>Node1</title>
<g id="a_Node000001"><a xlink:title="Converts the given report to text.">
<polygon fill="#999999" stroke="#666666" points="268.25,-106.5 177.25,-106.5 177.25,-76 268.25,-76 268.25,-106.5"/>
<text text-anchor="start" x="185.25" y="-93" font-family="Helvetica,sans-Serif" font-size="10.00">mimicpp::stringify</text>
<text text-anchor="middle" x="222.75" y="-81.75" font-family="Helvetica,sans-Serif" font-size="10.00">_call_report</text>
</a>
</g>
</g>
<!-- Node2 -->
<g id="Node000002" class="node">
<title>Node2</title>
<g id="a_Node000002"><a xlink:href="../../d6/d82/classmimicpp_1_1_catch2_reporter.html#ae487b63b6af63272eadbb68e2b4b2e4c" target="_top" xlink:title="Expects the report about a full matching expectation.">
<polygon fill="white" stroke="#666666" points="133,-187.5 8.25,-187.5 8.25,-157 133,-157 133,-187.5"/>
<text text-anchor="start" x="16.25" y="-174" font-family="Helvetica,sans-Serif" font-size="10.00">mimicpp::Catch2Reporter</text>
<text text-anchor="middle" x="70.62" y="-162.75" font-family="Helvetica,sans-Serif" font-size="10.00">::report_full_match</text>
</a>
</g>
</g>
<!-- Node1&#45;&gt;Node2 -->
<g id="edge1_Node000001_Node000002" class="edge">
<title>Node1&#45;&gt;Node2</title>
<g id="a_edge1_Node000001_Node000002"><a xlink:title=" ">
<path fill="none" stroke="#63b8ff" d="M194.16,-113.76C179.17,-125.2 159.92,-138.67 141.25,-148.25 135.33,-151.28 128.95,-154.08 122.53,-156.6"/>
<polygon fill="#63b8ff" stroke="#63b8ff" points="195.97,-116.78 201.7,-107.88 191.66,-111.26 195.97,-116.78"/>
</a>
</g>
</g>
<!-- Node3 -->
<g id="Node000003" class="node">
<title>Node3</title>
<g id="a_Node000003"><a xlink:href="../../d6/d82/classmimicpp_1_1_catch2_reporter.html#a3915896df24b16ea24248750839491fc" target="_top" xlink:title="Expects reports about all inapplicable matching expectations. This is only called,...">
<polygon fill="white" stroke="#666666" points="133,-139.12 8.25,-139.12 8.25,-97.38 133,-97.38 133,-139.12"/>
<text text-anchor="start" x="16.25" y="-125.62" font-family="Helvetica,sans-Serif" font-size="10.00">mimicpp::Catch2Reporter</text>
<text text-anchor="start" x="16.25" y="-114.38" font-family="Helvetica,sans-Serif" font-size="10.00">::report_inapplicable</text>
<text text-anchor="middle" x="70.62" y="-103.12" font-family="Helvetica,sans-Serif" font-size="10.00">_matches</text>
</a>
</g>
</g>
<!-- Node1&#45;&gt;Node3 -->
<g id="edge2_Node000001_Node000003" class="edge">
<title>Node1&#45;&gt;Node3</title>
<g id="a_edge2_Node000001_Node000003"><a xlink:title=" ">
<path fill="none" stroke="#63b8ff" d="M165.86,-101.3C155.25,-103.21 144.09,-105.22 133.32,-107.15"/>
<polygon fill="#63b8ff" stroke="#63b8ff" points="166.4,-104.76 175.62,-99.55 165.16,-97.87 166.4,-104.76"/>
</a>
</g>
</g>
<!-- Node4 -->
<g id="Node000004" class="node">
<title>Node4</title>
<g id="a_Node000004"><a xlink:href="../../d6/d82/classmimicpp_1_1_catch2_reporter.html#a33d512b76f21fbeda297c954072701ff" target="_top" xlink:title="Expects reports about all none matching expectations. This is only called, if there are no better opt...">
<polygon fill="white" stroke="#666666" points="133,-79.5 8.25,-79.5 8.25,-49 133,-49 133,-79.5"/>
<text text-anchor="start" x="16.25" y="-66" font-family="Helvetica,sans-Serif" font-size="10.00">mimicpp::Catch2Reporter</text>
<text text-anchor="middle" x="70.62" y="-54.75" font-family="Helvetica,sans-Serif" font-size="10.00">::report_no_matches</text>
</a>
</g>
</g>
<!-- Node1&#45;&gt;Node4 -->
<g id="edge3_Node000001_Node000004" class="edge">
<title>Node1&#45;&gt;Node4</title>
<g id="a_edge3_Node000001_Node000004"><a xlink:title=" ">
<path fill="none" stroke="#63b8ff" d="M165.86,-81.2C155.25,-79.29 144.09,-77.28 133.32,-75.35"/>
<polygon fill="#63b8ff" stroke="#63b8ff" points="165.16,-84.63 175.62,-82.95 166.4,-77.74 165.16,-84.63"/>
</a>
</g>
</g>
<!-- Node5 -->
<g id="Node000005" class="node">
<title>Node5</title>
<g id="a_Node000005"><a xlink:href="../../d6/d82/classmimicpp_1_1_catch2_reporter.html#a82d80536410e5b5b1615a4fb7a8c9df0" target="_top" xlink:title="Expects reports about unhandled exceptions, during handle_call.">
<polygon fill="white" stroke="#666666" points="141.25,-30.5 0,-30.5 0,0 141.25,0 141.25,-30.5"/>
<text text-anchor="start" x="8" y="-17" font-family="Helvetica,sans-Serif" font-size="10.00">mimicpp::Catch2Reporter</text>
<text text-anchor="middle" x="70.62" y="-5.75" font-family="Helvetica,sans-Serif" font-size="10.00">::report_unhandled_exception</text>
</a>
</g>
</g>
<!-- Node1&#45;&gt;Node5 -->
<g id="edge4_Node000001_Node000005" class="edge">
<title>Node1&#45;&gt;Node5</title>
<g id="a_edge4_Node000001_Node000005"><a xlink:title=" ">
<path fill="none" stroke="#63b8ff" d="M190.47,-69.17C175.93,-59.51 158.16,-48.52 141.25,-40.25 134.44,-36.92 127.07,-33.8 119.77,-30.97"/>
<polygon fill="#63b8ff" stroke="#63b8ff" points="188.46,-72.04 198.71,-74.74 192.39,-66.24 188.46,-72.04"/>
</a>
</g>
</g>
</g>
</svg>
