<?xml version="1.0" encoding="UTF-8" standalone="no"?>
<!DOCTYPE svg PUBLIC "-//W3C//DTD SVG 1.1//EN"
 "http://www.w3.org/Graphics/SVG/1.1/DTD/svg11.dtd">
<!-- Generated by graphviz version 12.2.1 (20241206.2353)
 -->
<!-- Title: mimicpp::printing::type::parsing::token::try_reduce_as_function_ptr Pages: 1 -->
<!--zoomable 183 -->

<svg id="main" version="1.1" xmlns="http://www.w3.org/2000/svg" xmlns:xlink="http://www.w3.org/1999/xlink" xml:space="preserve" onload="init(evt)">

<style type="text/css"><![CDATA[
.node, .edge {opacity: 0.7;}
.node.selected, .edge.selected {opacity: 1;}
.edge:hover path { stroke: red; }
.edge:hover polygon { stroke: red; fill: red; }
]]></style>

<defs>
  <circle id="rim" cx="0" cy="0" r="7"/>
  <circle id="rim2" cx="0" cy="0" r="3.5"/>
  <g id="zoomPlus">
    <use xlink:href="#rim" fill="#404040"><set attributeName="fill" to="#808080" begin="zoomplus.mouseover" end="zoomplus.mouseout"/></use>
    <path d="M-4,0h8M0,-4v8" fill="none" stroke="white" stroke-width="1.5" pointer-events="none"/>
  </g>
  <g id="zoomMin">
    <use xlink:href="#rim" fill="#404040"><set attributeName="fill" to="#808080" begin="zoomminus.mouseover" end="zoomminus.mouseout"/></use>
    <path d="M-4,0h8" fill="none" stroke="white" stroke-width="1.5" pointer-events="none"/>
  </g>
  <g id="arrowUp" transform="translate(30 24)">
    <use xlink:href="#rim"/>
    <path pointer-events="none" fill="none" stroke="white" stroke-width="1.5" d="M0,-3.0v7 M-2.5,-0.5L0,-3.0L2.5,-0.5"/>
  </g>
  <g id="arrowRight" transform="rotate(90) translate(36 -43)">
    <use xlink:href="#rim"/>
    <path pointer-events="none" fill="none" stroke="white" stroke-width="1.5" d="M0,-3.0v7 M-2.5,-0.5L0,-3.0L2.5,-0.5"/>
  </g>
  <g id="arrowDown" transform="rotate(180) translate(-30 -48)">
    <use xlink:href="#rim"/>
    <path pointer-events="none" fill="none" stroke="white" stroke-width="1.5" d="M0,-3.0v7 M-2.5,-0.5L0,-3.0L2.5,-0.5"/>
  </g>
  <g id="arrowLeft" transform="rotate(270) translate(-36 17)">
    <use xlink:href="#rim"/>
    <path pointer-events="none" fill="none" stroke="white" stroke-width="1.5" d="M0,-3.0v7 M-2.5,-0.5L0,-3.0L2.5,-0.5"/>
  </g>
  <g id="resetDef">
    <use xlink:href="#rim2" fill="#404040"><set attributeName="fill" to="#808080" begin="reset.mouseover" end="reset.mouseout"/></use>
  </g>
</defs>
<script type="application/ecmascript">
var viewWidth = 615;
var viewHeight = 183;
var sectionId = 'dynsection-11';
</script>
<script type="application/ecmascript" xlink:href="../../svg.min.js"/>
<svg id="graph" class="graph">
<g id="viewport">
<title>mimicpp::printing::type::parsing::token::try_reduce_as_function_ptr</title>
<!-- Node1 -->
<g id="Node000001" class="node">
<title>Node1</title>
<g id="a_Node000001"><a xlink:title=" ">
<polygon fill="#999999" stroke="#666666" points="137.5,-88.2 0,-88.2 0,-46.45 137.5,-46.45 137.5,-88.2"/>
<text text-anchor="start" x="8" y="-74.7" font-family="Helvetica,sans-Serif" font-size="10.00">mimicpp::printing::</text>
<text text-anchor="start" x="8" y="-63.45" font-family="Helvetica,sans-Serif" font-size="10.00">type::parsing::token</text>
<text text-anchor="middle" x="68.75" y="-52.2" font-family="Helvetica,sans-Serif" font-size="10.00">::try_reduce_as_function_ptr</text>
</a>
</g>
</g>
<!-- Node2 -->
<g id="Node000002" class="node">
<title>Node2</title>
<g id="a_Node000002"><a xlink:href="../../d5/dd4/namespacemimicpp_1_1printing_1_1type_1_1parsing.html#a00f6b43673ee187399d297db7368a09f" target="_top" xlink:title=" ">
<polygon fill="white" stroke="#666666" points="290,-88.2 189.25,-88.2 189.25,-46.45 290,-46.45 290,-88.2"/>
<text text-anchor="start" x="197.25" y="-74.7" font-family="Helvetica,sans-Serif" font-size="10.00">mimicpp::printing::</text>
<text text-anchor="start" x="197.25" y="-63.45" font-family="Helvetica,sans-Serif" font-size="10.00">type::parsing::ignore</text>
<text text-anchor="middle" x="239.62" y="-52.2" font-family="Helvetica,sans-Serif" font-size="10.00">_reserved_identifier</text>
</a>
</g>
</g>
<!-- Node1&#45;&gt;Node2 -->
<g id="edge1_Node000001_Node000002" class="edge">
<title>Node1&#45;&gt;Node2</title>
<g id="a_edge1_Node000001_Node000002"><a xlink:title=" ">
<path fill="none" stroke="#63b8ff" d="M137.95,-67.33C150.99,-67.33 164.56,-67.33 177.36,-67.33"/>
<polygon fill="#63b8ff" stroke="#63b8ff" points="177.35,-70.83 187.35,-67.33 177.35,-63.83 177.35,-70.83"/>
</a>
</g>
</g>
<!-- Node3 -->
<g id="Node000003" class="node">
<title>Node3</title>
<g id="a_Node000003"><a xlink:href="../../d5/dd4/namespacemimicpp_1_1printing_1_1type_1_1parsing.html#a561e709d444eaf8ab32ba08888b5a290" target="_top" xlink:title=" ">
<polygon fill="white" stroke="#666666" points="445.88,-61.2 344.38,-61.2 344.38,-19.45 445.88,-19.45 445.88,-61.2"/>
<text text-anchor="start" x="352.38" y="-47.7" font-family="Helvetica,sans-Serif" font-size="10.00">mimicpp::printing::</text>
<text text-anchor="start" x="352.38" y="-36.45" font-family="Helvetica,sans-Serif" font-size="10.00">type::parsing::match</text>
<text text-anchor="middle" x="395.12" y="-25.2" font-family="Helvetica,sans-Serif" font-size="10.00">_suffix</text>
</a>
</g>
</g>
<!-- Node1&#45;&gt;Node3 -->
<g id="edge9_Node000001_Node000003" class="edge">
<title>Node1&#45;&gt;Node3</title>
<g id="a_edge9_Node000001_Node000003"><a xlink:title=" ">
<path fill="none" stroke="#63b8ff" d="M133.06,-45.97C146.27,-42.38 160.23,-39.21 173.5,-37.33 226.88,-29.77 288.26,-31.43 332.7,-34.45"/>
<polygon fill="#63b8ff" stroke="#63b8ff" points="332.16,-37.92 342.39,-35.16 332.67,-30.94 332.16,-37.92"/>
</a>
</g>
</g>
<!-- Node4 -->
<g id="Node000004" class="node">
<title>Node4</title>
<g id="a_Node000004"><a xlink:href="../../d5/dd4/namespacemimicpp_1_1printing_1_1type_1_1parsing.html#a3223a4c7c30cf952c3fbd33a51436feb" target="_top" xlink:title=" ">
<polygon fill="white" stroke="#666666" points="607,-55.58 484.5,-55.58 484.5,-25.08 607,-25.08 607,-55.58"/>
<text text-anchor="start" x="492.5" y="-42.08" font-family="Helvetica,sans-Serif" font-size="10.00">mimicpp::printing::</text>
<text text-anchor="middle" x="545.75" y="-30.83" font-family="Helvetica,sans-Serif" font-size="10.00">type::parsing::is_suffix_of</text>
</a>
</g>
</g>
<!-- Node1&#45;&gt;Node4 -->
<g id="edge8_Node000001_Node000004" class="edge">
<title>Node1&#45;&gt;Node4</title>
<g id="a_edge8_Node000001_Node000004"><a xlink:title=" ">
<path fill="none" stroke="#63b8ff" d="M118.82,-45.97C135.85,-39.35 155.25,-32.66 173.5,-28.33 292.67,-0.04 327.41,8.1 448.5,-10.33 463.39,-12.6 479.15,-16.73 493.51,-21.22"/>
<polygon fill="#63b8ff" stroke="#63b8ff" points="492.14,-24.46 502.74,-24.23 494.31,-17.8 492.14,-24.46"/>
</a>
</g>
</g>
<!-- Node5 -->
<g id="Node000005" class="node">
<title>Node5</title>
<g id="a_Node000005"><a xlink:href="../../d5/dd4/namespacemimicpp_1_1printing_1_1type_1_1parsing.html#a064f0c25bf50e9c8d44f85d6dd04b914" target="_top" xlink:title=" ">
<polygon fill="white" stroke="#666666" points="448.5,-131.2 341.75,-131.2 341.75,-89.45 448.5,-89.45 448.5,-131.2"/>
<text text-anchor="start" x="349.75" y="-117.7" font-family="Helvetica,sans-Serif" font-size="10.00">mimicpp::printing::</text>
<text text-anchor="start" x="349.75" y="-106.45" font-family="Helvetica,sans-Serif" font-size="10.00">type::parsing::remove</text>
<text text-anchor="middle" x="395.12" y="-95.2" font-family="Helvetica,sans-Serif" font-size="10.00">_suffix</text>
</a>
</g>
</g>
<!-- Node1&#45;&gt;Node5 -->
<g id="edge10_Node000001_Node000005" class="edge">
<title>Node1&#45;&gt;Node5</title>
<g id="a_edge10_Node000001_Node000005"><a xlink:title=" ">
<path fill="none" stroke="#63b8ff" d="M135.38,-88.69C147.92,-92.09 161.03,-95.19 173.5,-97.33 225.74,-106.31 285.85,-109.38 330.12,-110.31"/>
<polygon fill="#63b8ff" stroke="#63b8ff" points="330.02,-113.81 340.08,-110.48 330.15,-106.81 330.02,-113.81"/>
</a>
</g>
</g>
<!-- Node6 -->
<g id="Node000006" class="node">
<title>Node6</title>
<g id="a_Node000006"><a xlink:href="../../d5/dd4/namespacemimicpp_1_1printing_1_1type_1_1parsing.html#acb4998796de89ec78c2baab68b9ceb76" target="_top" xlink:title=" ">
<polygon fill="white" stroke="#666666" points="305.75,-174.58 173.5,-174.58 173.5,-144.08 305.75,-144.08 305.75,-174.58"/>
<text text-anchor="start" x="181.5" y="-161.08" font-family="Helvetica,sans-Serif" font-size="10.00">mimicpp::printing::</text>
<text text-anchor="middle" x="239.62" y="-149.83" font-family="Helvetica,sans-Serif" font-size="10.00">type::parsing::ignore_space</text>
</a>
</g>
</g>
<!-- Node1&#45;&gt;Node6 -->
<g id="edge5_Node000001_Node000006" class="edge">
<title>Node1&#45;&gt;Node6</title>
<g id="a_edge5_Node000001_Node000006"><a xlink:title=" ">
<path fill="none" stroke="#63b8ff" d="M102.31,-88.56C122.45,-101.33 149.04,-117.52 173.5,-130.33 179.19,-133.31 185.25,-136.27 191.29,-139.1"/>
<polygon fill="#63b8ff" stroke="#63b8ff" points="189.46,-142.11 200.01,-143.09 192.37,-135.75 189.46,-142.11"/>
</a>
</g>
</g>
<!-- Node2&#45;&gt;Node3 -->
<g id="edge2_Node000002_Node000003" class="edge">
<title>Node2&#45;&gt;Node3</title>
<g id="a_edge2_Node000002_Node000003"><a xlink:title=" ">
<path fill="none" stroke="#63b8ff" d="M290.46,-58.56C304,-56.18 318.82,-53.58 332.91,-51.1"/>
<polygon fill="#63b8ff" stroke="#63b8ff" points="333.28,-54.59 342.52,-49.41 332.07,-47.69 333.28,-54.59"/>
</a>
</g>
</g>
<!-- Node2&#45;&gt;Node5 -->
<g id="edge4_Node000002_Node000005" class="edge">
<title>Node2&#45;&gt;Node5</title>
<g id="a_edge4_Node000002_Node000005"><a xlink:title=" ">
<path fill="none" stroke="#63b8ff" d="M290.46,-81.29C303.18,-84.85 317.03,-88.73 330.35,-92.46"/>
<polygon fill="#63b8ff" stroke="#63b8ff" points="329.34,-95.81 339.91,-95.14 331.23,-89.07 329.34,-95.81"/>
</a>
</g>
</g>
<!-- Node3&#45;&gt;Node4 -->
<g id="edge3_Node000003_Node000004" class="edge">
<title>Node3&#45;&gt;Node4</title>
<g id="a_edge3_Node000003_Node000004"><a xlink:title=" ">
<path fill="none" stroke="#63b8ff" d="M446.03,-40.33C454.63,-40.33 463.71,-40.33 472.76,-40.33"/>
<polygon fill="#63b8ff" stroke="#63b8ff" points="472.63,-43.83 482.63,-40.33 472.63,-36.83 472.63,-43.83"/>
</a>
</g>
</g>
<!-- Node6&#45;&gt;Node4 -->
<g id="edge6_Node000006_Node000004" class="edge">
<title>Node6&#45;&gt;Node4</title>
<g id="a_edge6_Node000006_Node000004"><a xlink:title=" ">
<path fill="none" stroke="#63b8ff" d="M306.02,-164.8C348.59,-165.67 404.24,-161.59 448.5,-140.33 483.09,-123.71 511.89,-89.07 528.72,-65.26"/>
<polygon fill="#63b8ff" stroke="#63b8ff" points="531.58,-67.29 534.33,-57.06 525.8,-63.34 531.58,-67.29"/>
</a>
</g>
</g>
<!-- Node6&#45;&gt;Node5 -->
<g id="edge7_Node000006_Node000005" class="edge">
<title>Node6&#45;&gt;Node5</title>
<g id="a_edge7_Node000006_Node000005"><a xlink:title=" ">
<path fill="none" stroke="#63b8ff" d="M289.62,-143.69C302.63,-139.54 316.88,-134.99 330.55,-130.62"/>
<polygon fill="#63b8ff" stroke="#63b8ff" points="331.45,-134.01 339.91,-127.63 329.32,-127.34 331.45,-134.01"/>
</a>
</g>
</g>
</g>
</svg>

<g id="navigator" transform="translate(0 0)" fill="#404254">
  <rect fill="#f2f5e9" fill-opacity="0.5" stroke="#606060" stroke-width=".5" x="0" y="0" width="60" height="60"/>
  <use id="zoomplus" xlink:href="#zoomPlus" x="17" y="9" onmousedown="handleZoom(evt,'in')"/>
  <use id="zoomminus" xlink:href="#zoomMin" x="42" y="9" onmousedown="handleZoom(evt,'out')"/>
  <use id="reset" xlink:href="#resetDef" x="30" y="36" onmousedown="handleReset()"/>
   <use id="arrowup" xlink:href="#arrowUp" x="0" y="0" onmousedown="handlePan(0,-1)"/>
  <use id="arrowright" xlink:href="#arrowRight" x="0" y="0" onmousedown="handlePan(1,0)"/>
  <use id="arrowdown" xlink:href="#arrowDown" x="0" y="0" onmousedown="handlePan(0,1)"/>
  <use id="arrowleft" xlink:href="#arrowLeft" x="0" y="0" onmousedown="handlePan(-1,0)"/>
</g>
<svg viewBox="0 0 15 15" width="100%" height="30px" preserveAspectRatio="xMaxYMin meet">
 <g id="arrow_out" transform="scale(0.3 0.3)">
  <a xlink:href="namespacemimicpp_1_1printing_1_1type_1_1parsing_1_1token_a724e4bbc36dd71f0a537ed245184e436_cgraph_org.svg" target="_base">
   <rect id="button" ry="5" rx="5" y="6" x="6" height="38" width="38"
        fill="#f2f5e9" fill-opacity="0.5" stroke="#606060" stroke-width="1.0"/>
   <path id="arrow"
     d="M 11.500037,31.436501 C 11.940474,20.09759 22.043105,11.32322 32.158766,21.979434 L 37.068811,17.246167 C 37.068811,17.246167 37.088388,32 37.088388,32 L 22.160133,31.978069 C 22.160133,31.978069 26.997745,27.140456 26.997745,27.140456 C 18.528582,18.264221 13.291696,25.230495 11.500037,31.436501 z"
     style="fill:#404040;"/>
  </a>
 </g>
</svg>

<style type='text/css'>
<![CDATA[
[data-mouse-over-selected='false'] { opacity: 0.7; }
[data-mouse-over-selected='true']  { opacity: 1.0; }
]]>
</style>
<script type="application/ecmascript"><![CDATA[
document.addEventListener('DOMContentLoaded', (event) => {
  highlightEdges();
  highlightAdjacentNodes();
});
]]></script>
</svg>
