<?xml version="1.0" encoding="UTF-8" standalone="no"?>
<!DOCTYPE svg PUBLIC "-//W3C//DTD SVG 1.1//EN"
 "http://www.w3.org/Graphics/SVG/1.1/DTD/svg11.dtd">
<!-- Generated by graphviz version 12.2.1 (20241206.2353)
 -->
<!-- Title: mimicpp::printing::type::parsing::token::try_reduce_as_placeholder_identifier_wrapped Pages: 1 -->
<svg width="471pt" height="119pt"
 viewBox="0.00 0.00 470.75 119.37" xmlns="http://www.w3.org/2000/svg" xmlns:xlink="http://www.w3.org/1999/xlink">

<svg id="main" version="1.1" xmlns="http://www.w3.org/2000/svg" xmlns:xlink="http://www.w3.org/1999/xlink" xml:space="preserve">

<style type="text/css"><![CDATA[
.node, .edge {opacity: 0.7;}
.node.selected, .edge.selected {opacity: 1;}
.edge:hover path { stroke: red; }
.edge:hover polygon { stroke: red; fill: red; }
]]></style>
<script type="application/ecmascript" xlink:href="../../svg.min.js"/>
<svg id="graph" class="graph">
<g id="graph0" class="graph" transform="scale(1 1) rotate(0) translate(4 115.37)">
<title>mimicpp::printing::type::parsing::token::try_reduce_as_placeholder_identifier_wrapped</title>
<!-- Node1 -->
<g id="Node000001" class="node">
<title>Node1</title>
<g id="a_Node000001"><a xlink:title=" ">
<polygon fill="#999999" stroke="#666666" points="136,-101.38 0,-101.38 0,-48.38 136,-48.38 136,-101.38"/>
<text text-anchor="start" x="8" y="-87.88" font-family="Helvetica,sans-Serif" font-size="10.00">mimicpp::printing::</text>
<text text-anchor="start" x="8" y="-76.62" font-family="Helvetica,sans-Serif" font-size="10.00">type::parsing::token</text>
<text text-anchor="start" x="8" y="-65.38" font-family="Helvetica,sans-Serif" font-size="10.00">::try_reduce_as_placeholder</text>
<text text-anchor="middle" x="68" y="-54.12" font-family="Helvetica,sans-Serif" font-size="10.00">_identifier_wrapped</text>
</a>
</g>
</g>
<!-- Node2 -->
<g id="Node000002" class="node">
<title>Node2</title>
<g id="a_Node000002"><a xlink:href="../../d5/dd4/namespacemimicpp_1_1printing_1_1type_1_1parsing.html#acb4998796de89ec78c2baab68b9ceb76" target="_top" xlink:title=" ">
<polygon fill="white" stroke="#666666" points="304.25,-36.12 172,-36.12 172,-5.62 304.25,-5.62 304.25,-36.12"/>
<text text-anchor="start" x="180" y="-22.62" font-family="Helvetica,sans-Serif" font-size="10.00">mimicpp::printing::</text>
<text text-anchor="middle" x="238.12" y="-11.38" font-family="Helvetica,sans-Serif" font-size="10.00">type::parsing::ignore_space</text>
</a>
</g>
</g>
<!-- Node1&#45;&gt;Node2 -->
<g id="edge1_Node000001_Node000002" class="edge">
<title>Node1&#45;&gt;Node2</title>
<g id="a_edge1_Node000001_Node000002"><a xlink:title=" ">
<path fill="none" stroke="#63b8ff" d="M136.41,-53.22C149.97,-48.87 164.14,-44.32 177.41,-40.05"/>
<polygon fill="#63b8ff" stroke="#63b8ff" points="178.43,-43.4 186.88,-37.01 176.29,-36.74 178.43,-43.4"/>
</a>
</g>
</g>
<!-- Node3 -->
<g id="Node000003" class="node">
<title>Node3</title>
<g id="a_Node000003"><a xlink:href="../../d5/dd4/namespacemimicpp_1_1printing_1_1type_1_1parsing.html#a3223a4c7c30cf952c3fbd33a51436feb" target="_top" xlink:title=" ">
<polygon fill="white" stroke="#666666" points="462.75,-90.12 340.25,-90.12 340.25,-59.62 462.75,-59.62 462.75,-90.12"/>
<text text-anchor="start" x="348.25" y="-76.62" font-family="Helvetica,sans-Serif" font-size="10.00">mimicpp::printing::</text>
<text text-anchor="middle" x="401.5" y="-65.38" font-family="Helvetica,sans-Serif" font-size="10.00">type::parsing::is_suffix_of</text>
</a>
</g>
</g>
<!-- Node1&#45;&gt;Node3 -->
<g id="edge6_Node000001_Node000003" class="edge">
<title>Node1&#45;&gt;Node3</title>
<g id="a_edge6_Node000001_Node000003"><a xlink:title=" ">
<path fill="none" stroke="#63b8ff" d="M136.27,-97.42C148.05,-100.52 160.29,-103.2 172,-104.88 230.19,-113.18 246.14,-113.72 304.25,-104.88 319.14,-102.61 334.9,-98.47 349.26,-93.99"/>
<polygon fill="#63b8ff" stroke="#63b8ff" points="350.06,-97.4 358.49,-90.98 347.89,-90.75 350.06,-97.4"/>
</a>
</g>
</g>
<!-- Node5 -->
<g id="Node000005" class="node">
<title>Node5</title>
<g id="a_Node000005"><a xlink:href="../../d2/d01/namespacemimicpp_1_1printing_1_1type_1_1parsing_1_1token.html#ae9d910234e9a6a2f89e7e13892cbd1ea" target="_top" xlink:title=" ">
<polygon fill="white" stroke="#666666" points="287.38,-95.75 188.88,-95.75 188.88,-54 287.38,-54 287.38,-95.75"/>
<text text-anchor="start" x="196.88" y="-82.25" font-family="Helvetica,sans-Serif" font-size="10.00">mimicpp::printing::</text>
<text text-anchor="start" x="196.88" y="-71" font-family="Helvetica,sans-Serif" font-size="10.00">type::parsing::token</text>
<text text-anchor="middle" x="238.12" y="-59.75" font-family="Helvetica,sans-Serif" font-size="10.00">::is_identifier_prefix</text>
</a>
</g>
</g>
<!-- Node1&#45;&gt;Node5 -->
<g id="edge4_Node000001_Node000005" class="edge">
<title>Node1&#45;&gt;Node5</title>
<g id="a_edge4_Node000001_Node000005"><a xlink:title=" ">
<path fill="none" stroke="#63b8ff" d="M136.41,-74.88C149.91,-74.88 164,-74.88 177.22,-74.88"/>
<polygon fill="#63b8ff" stroke="#63b8ff" points="177.07,-78.38 187.07,-74.88 177.07,-71.38 177.07,-78.38"/>
</a>
</g>
</g>
<!-- Node2&#45;&gt;Node3 -->
<g id="edge2_Node000002_Node000003" class="edge">
<title>Node2&#45;&gt;Node3</title>
<g id="a_edge2_Node000002_Node000003"><a xlink:title=" ">
<path fill="none" stroke="#63b8ff" d="M285.8,-36.49C303.62,-42.46 324.15,-49.33 342.87,-55.59"/>
<polygon fill="#63b8ff" stroke="#63b8ff" points="341.62,-58.86 352.21,-58.72 343.84,-52.22 341.62,-58.86"/>
</a>
</g>
</g>
<!-- Node4 -->
<g id="Node000004" class="node">
<title>Node4</title>
<g id="a_Node000004"><a xlink:href="../../d5/dd4/namespacemimicpp_1_1printing_1_1type_1_1parsing.html#a064f0c25bf50e9c8d44f85d6dd04b914" target="_top" xlink:title=" ">
<polygon fill="white" stroke="#666666" points="454.88,-41.75 348.12,-41.75 348.12,0 454.88,0 454.88,-41.75"/>
<text text-anchor="start" x="356.12" y="-28.25" font-family="Helvetica,sans-Serif" font-size="10.00">mimicpp::printing::</text>
<text text-anchor="start" x="356.12" y="-17" font-family="Helvetica,sans-Serif" font-size="10.00">type::parsing::remove</text>
<text text-anchor="middle" x="401.5" y="-5.75" font-family="Helvetica,sans-Serif" font-size="10.00">_suffix</text>
</a>
</g>
</g>
<!-- Node2&#45;&gt;Node4 -->
<g id="edge3_Node000002_Node000004" class="edge">
<title>Node2&#45;&gt;Node4</title>
<g id="a_edge3_Node000002_Node000004"><a xlink:title=" ">
<path fill="none" stroke="#63b8ff" d="M304.3,-20.88C314.9,-20.88 325.87,-20.88 336.44,-20.88"/>
<polygon fill="#63b8ff" stroke="#63b8ff" points="336.21,-24.38 346.21,-20.88 336.21,-17.38 336.21,-24.38"/>
</a>
</g>
</g>
<!-- Node5&#45;&gt;Node3 -->
<g id="edge5_Node000005_Node000003" class="edge">
<title>Node5&#45;&gt;Node3</title>
<g id="a_edge5_Node000005_Node000003"><a xlink:title=" ">
<path fill="none" stroke="#63b8ff" d="M287.54,-74.88C300.38,-74.88 314.52,-74.88 328.33,-74.88"/>
<polygon fill="#63b8ff" stroke="#63b8ff" points="328.3,-78.38 338.3,-74.88 328.3,-71.38 328.3,-78.38"/>
</a>
</g>
</g>
</g>
</svg>
</svg>

<style type='text/css'>
<![CDATA[
[data-mouse-over-selected='false'] { opacity: 0.7; }
[data-mouse-over-selected='true']  { opacity: 1.0; }
]]>
</style>
<script type="application/ecmascript"><![CDATA[
document.addEventListener('DOMContentLoaded', (event) => {
  highlightEdges();
  highlightAdjacentNodes();
});
]]></script>
</svg>
