<?xml version="1.0" encoding="UTF-8" standalone="no"?>
<!DOCTYPE svg PUBLIC "-//W3C//DTD SVG 1.1//EN"
 "http://www.w3.org/Graphics/SVG/1.1/DTD/svg11.dtd">
<!-- Generated by graphviz version 12.2.1 (20241206.2353)
 -->
<!-- Title: mimicpp::printing::type::parsing::token::try_reduce_as_type Pages: 1 -->
<svg width="769pt" height="251pt"
 viewBox="0.00 0.00 769.00 250.95" xmlns="http://www.w3.org/2000/svg" xmlns:xlink="http://www.w3.org/1999/xlink">
<g id="graph0" class="graph" transform="scale(1 1) rotate(0) translate(4 246.95)">
<title>mimicpp::printing::type::parsing::token::try_reduce_as_type</title>
<!-- Node1 -->
<g id="Node000001" class="node">
<title>Node1</title>
<g id="a_Node000001"><a xlink:title=" ">
<polygon fill="#999999" stroke="#666666" points="104.5,-155.95 0,-155.95 0,-114.2 104.5,-114.2 104.5,-155.95"/>
<text text-anchor="start" x="8" y="-142.45" font-family="Helvetica,sans-Serif" font-size="10.00">mimicpp::printing::</text>
<text text-anchor="start" x="8" y="-131.2" font-family="Helvetica,sans-Serif" font-size="10.00">type::parsing::token</text>
<text text-anchor="middle" x="52.25" y="-119.95" font-family="Helvetica,sans-Serif" font-size="10.00">::try_reduce_as_type</text>
</a>
</g>
</g>
<!-- Node2 -->
<g id="Node000002" class="node">
<title>Node2</title>
<g id="a_Node000002"><a xlink:href="../../d2/d01/namespacemimicpp_1_1printing_1_1type_1_1parsing_1_1token.html#aef6b0bd46bc6cc213bfdbd6a11cbe510" target="_top" xlink:title=" ">
<polygon fill="white" stroke="#666666" points="273.12,-161.57 152.12,-161.57 152.12,-108.57 273.12,-108.57 273.12,-161.57"/>
<text text-anchor="start" x="160.12" y="-148.07" font-family="Helvetica,sans-Serif" font-size="10.00">mimicpp::printing::</text>
<text text-anchor="start" x="160.12" y="-136.82" font-family="Helvetica,sans-Serif" font-size="10.00">type::parsing::token</text>
<text text-anchor="start" x="160.12" y="-125.57" font-family="Helvetica,sans-Serif" font-size="10.00">::try_reduce_as_function</text>
<text text-anchor="middle" x="212.62" y="-114.32" font-family="Helvetica,sans-Serif" font-size="10.00">_ptr_type</text>
</a>
</g>
</g>
<!-- Node1&#45;&gt;Node2 -->
<g id="edge1_Node000001_Node000002" class="edge">
<title>Node1&#45;&gt;Node2</title>
<g id="a_edge1_Node000001_Node000002"><a xlink:title=" ">
<path fill="none" stroke="#63b8ff" d="M104.67,-135.07C116.03,-135.07 128.27,-135.07 140.26,-135.07"/>
<polygon fill="#63b8ff" stroke="#63b8ff" points="140.14,-138.57 150.14,-135.07 140.14,-131.57 140.14,-138.57"/>
</a>
</g>
</g>
<!-- Node7 -->
<g id="Node000007" class="node">
<title>Node7</title>
<g id="a_Node000007"><a xlink:href="../../d2/d01/namespacemimicpp_1_1printing_1_1type_1_1parsing_1_1token.html#a7bb9c9ee7f8a3e26655e10306270ea66" target="_top" xlink:title=" ">
<polygon fill="white" stroke="#666666" points="284.75,-57.95 140.5,-57.95 140.5,-16.2 284.75,-16.2 284.75,-57.95"/>
<text text-anchor="start" x="148.5" y="-44.45" font-family="Helvetica,sans-Serif" font-size="10.00">mimicpp::printing::</text>
<text text-anchor="start" x="148.5" y="-33.2" font-family="Helvetica,sans-Serif" font-size="10.00">type::parsing::token</text>
<text text-anchor="middle" x="212.62" y="-21.95" font-family="Helvetica,sans-Serif" font-size="10.00">::try_reduce_as_function_type</text>
</a>
</g>
</g>
<!-- Node1&#45;&gt;Node7 -->
<g id="edge8_Node000001_Node000007" class="edge">
<title>Node1&#45;&gt;Node7</title>
<g id="a_edge8_Node000001_Node000007"><a xlink:title=" ">
<path fill="none" stroke="#63b8ff" d="M87.62,-113.81C111.07,-99.3 142.34,-79.95 167.61,-64.31"/>
<polygon fill="#63b8ff" stroke="#63b8ff" points="169.38,-67.33 176.04,-59.09 165.69,-61.38 169.38,-67.33"/>
</a>
</g>
</g>
<!-- Node8 -->
<g id="Node000008" class="node">
<title>Node8</title>
<g id="a_Node000008"><a xlink:href="../../d2/d01/namespacemimicpp_1_1printing_1_1type_1_1parsing_1_1token.html#a456922fe33538205c28f5cc1b522a6bb" target="_top" xlink:title=" ">
<polygon fill="white" stroke="#666666" points="459.75,-242.95 320.75,-242.95 320.75,-201.2 459.75,-201.2 459.75,-242.95"/>
<text text-anchor="start" x="328.75" y="-229.45" font-family="Helvetica,sans-Serif" font-size="10.00">mimicpp::printing::</text>
<text text-anchor="start" x="328.75" y="-218.2" font-family="Helvetica,sans-Serif" font-size="10.00">type::parsing::token</text>
<text text-anchor="middle" x="390.25" y="-206.95" font-family="Helvetica,sans-Serif" font-size="10.00">::try_reduce_as_regular_type</text>
</a>
</g>
</g>
<!-- Node1&#45;&gt;Node8 -->
<g id="edge13_Node000001_Node000008" class="edge">
<title>Node1&#45;&gt;Node8</title>
<g id="a_edge13_Node000001_Node000008"><a xlink:title=" ">
<path fill="none" stroke="#63b8ff" d="M100.2,-156.35C113.09,-161.66 127.18,-167 140.5,-171.07 195.84,-188 259.84,-200.98 309.06,-209.6"/>
<polygon fill="#63b8ff" stroke="#63b8ff" points="308.34,-213.03 318.79,-211.28 309.53,-206.13 308.34,-213.03"/>
</a>
</g>
</g>
<!-- Node3 -->
<g id="Node000003" class="node">
<title>Node3</title>
<g id="a_Node000003"><a xlink:href="../../d5/dd4/namespacemimicpp_1_1printing_1_1type_1_1parsing.html#a00f6b43673ee187399d297db7368a09f" target="_top" xlink:title=" ">
<polygon fill="white" stroke="#666666" points="440.62,-106.95 339.88,-106.95 339.88,-65.2 440.62,-65.2 440.62,-106.95"/>
<text text-anchor="start" x="347.88" y="-93.45" font-family="Helvetica,sans-Serif" font-size="10.00">mimicpp::printing::</text>
<text text-anchor="start" x="347.88" y="-82.2" font-family="Helvetica,sans-Serif" font-size="10.00">type::parsing::ignore</text>
<text text-anchor="middle" x="390.25" y="-70.95" font-family="Helvetica,sans-Serif" font-size="10.00">_reserved_identifier</text>
</a>
</g>
</g>
<!-- Node2&#45;&gt;Node3 -->
<g id="edge2_Node000002_Node000003" class="edge">
<title>Node2&#45;&gt;Node3</title>
<g id="a_edge2_Node000002_Node000003"><a xlink:title=" ">
<path fill="none" stroke="#63b8ff" d="M273.57,-118.35C291.35,-113.39 310.82,-107.96 328.64,-102.98"/>
<polygon fill="#63b8ff" stroke="#63b8ff" points="329.34,-106.42 338.03,-100.36 327.46,-99.68 329.34,-106.42"/>
</a>
</g>
</g>
<!-- Node4 -->
<g id="Node000004" class="node">
<title>Node4</title>
<g id="a_Node000004"><a xlink:href="../../d5/dd4/namespacemimicpp_1_1printing_1_1type_1_1parsing.html#a561e709d444eaf8ab32ba08888b5a290" target="_top" xlink:title=" ">
<polygon fill="white" stroke="#666666" points="599.88,-109.95 498.38,-109.95 498.38,-68.2 599.88,-68.2 599.88,-109.95"/>
<text text-anchor="start" x="506.38" y="-96.45" font-family="Helvetica,sans-Serif" font-size="10.00">mimicpp::printing::</text>
<text text-anchor="start" x="506.38" y="-85.2" font-family="Helvetica,sans-Serif" font-size="10.00">type::parsing::match</text>
<text text-anchor="middle" x="549.12" y="-73.95" font-family="Helvetica,sans-Serif" font-size="10.00">_suffix</text>
</a>
</g>
</g>
<!-- Node2&#45;&gt;Node4 -->
<g id="edge6_Node000002_Node000004" class="edge">
<title>Node2&#45;&gt;Node4</title>
<g id="a_edge6_Node000002_Node000004"><a xlink:title=" ">
<path fill="none" stroke="#63b8ff" d="M273.54,-134.11C323.68,-132.44 396.9,-127.95 459.75,-116.07 468.72,-114.38 478.06,-112.11 487.17,-109.59"/>
<polygon fill="#63b8ff" stroke="#63b8ff" points="488.04,-112.99 496.68,-106.85 486.1,-106.26 488.04,-112.99"/>
</a>
</g>
</g>
<!-- Node6 -->
<g id="Node000006" class="node">
<title>Node6</title>
<g id="a_Node000006"><a xlink:href="../../d5/dd4/namespacemimicpp_1_1printing_1_1type_1_1parsing.html#a064f0c25bf50e9c8d44f85d6dd04b914" target="_top" xlink:title=" ">
<polygon fill="white" stroke="#666666" points="602.5,-182.95 495.75,-182.95 495.75,-141.2 602.5,-141.2 602.5,-182.95"/>
<text text-anchor="start" x="503.75" y="-169.45" font-family="Helvetica,sans-Serif" font-size="10.00">mimicpp::printing::</text>
<text text-anchor="start" x="503.75" y="-158.2" font-family="Helvetica,sans-Serif" font-size="10.00">type::parsing::remove</text>
<text text-anchor="middle" x="549.12" y="-146.95" font-family="Helvetica,sans-Serif" font-size="10.00">_suffix</text>
</a>
</g>
</g>
<!-- Node2&#45;&gt;Node6 -->
<g id="edge7_Node000002_Node000006" class="edge">
<title>Node2&#45;&gt;Node6</title>
<g id="a_edge7_Node000002_Node000006"><a xlink:title=" ">
<path fill="none" stroke="#63b8ff" d="M273.6,-143.69C288.94,-145.68 305.44,-147.64 320.75,-149.07 375.91,-154.25 438.81,-157.65 484.45,-159.68"/>
<polygon fill="#63b8ff" stroke="#63b8ff" points="484.01,-163.16 494.15,-160.09 484.31,-156.17 484.01,-163.16"/>
</a>
</g>
</g>
<!-- Node3&#45;&gt;Node4 -->
<g id="edge3_Node000003_Node000004" class="edge">
<title>Node3&#45;&gt;Node4</title>
<g id="a_edge3_Node000003_Node000004"><a xlink:title=" ">
<path fill="none" stroke="#63b8ff" d="M440.89,-87.02C455.41,-87.3 471.46,-87.61 486.62,-87.9"/>
<polygon fill="#63b8ff" stroke="#63b8ff" points="486.43,-91.39 496.49,-88.09 486.56,-84.4 486.43,-91.39"/>
</a>
</g>
</g>
<!-- Node3&#45;&gt;Node6 -->
<g id="edge5_Node000003_Node000006" class="edge">
<title>Node3&#45;&gt;Node6</title>
<g id="a_edge5_Node000003_Node000006"><a xlink:title=" ">
<path fill="none" stroke="#63b8ff" d="M435.37,-107.45C453.49,-116.23 474.65,-126.48 493.72,-135.72"/>
<polygon fill="#63b8ff" stroke="#63b8ff" points="492.18,-138.86 502.71,-140.07 495.23,-132.56 492.18,-138.86"/>
</a>
</g>
</g>
<!-- Node5 -->
<g id="Node000005" class="node">
<title>Node5</title>
<g id="a_Node000005"><a xlink:href="../../d5/dd4/namespacemimicpp_1_1printing_1_1type_1_1parsing.html#a3223a4c7c30cf952c3fbd33a51436feb" target="_top" xlink:title=" ">
<polygon fill="white" stroke="#666666" points="761,-104.32 638.5,-104.32 638.5,-73.82 761,-73.82 761,-104.32"/>
<text text-anchor="start" x="646.5" y="-90.82" font-family="Helvetica,sans-Serif" font-size="10.00">mimicpp::printing::</text>
<text text-anchor="middle" x="699.75" y="-79.57" font-family="Helvetica,sans-Serif" font-size="10.00">type::parsing::is_suffix_of</text>
</a>
</g>
</g>
<!-- Node4&#45;&gt;Node5 -->
<g id="edge4_Node000004_Node000005" class="edge">
<title>Node4&#45;&gt;Node5</title>
<g id="a_edge4_Node000004_Node000005"><a xlink:title=" ">
<path fill="none" stroke="#63b8ff" d="M600.03,-89.07C608.63,-89.07 617.71,-89.07 626.76,-89.07"/>
<polygon fill="#63b8ff" stroke="#63b8ff" points="626.63,-92.57 636.63,-89.07 626.63,-85.57 626.63,-92.57"/>
</a>
</g>
</g>
<!-- Node7&#45;&gt;Node3 -->
<g id="edge9_Node000007_Node000003" class="edge">
<title>Node7&#45;&gt;Node3</title>
<g id="a_edge9_Node000007_Node000003"><a xlink:title=" ">
<path fill="none" stroke="#63b8ff" d="M285.06,-57C299.45,-61.02 314.44,-65.2 328.43,-69.1"/>
<polygon fill="#63b8ff" stroke="#63b8ff" points="327.36,-72.44 337.93,-71.76 329.24,-65.7 327.36,-72.44"/>
</a>
</g>
</g>
<!-- Node7&#45;&gt;Node4 -->
<g id="edge11_Node000007_Node000004" class="edge">
<title>Node7&#45;&gt;Node4</title>
<g id="a_edge11_Node000007_Node000004"><a xlink:title=" ">
<path fill="none" stroke="#63b8ff" d="M285.22,-19.27C335.34,-10.08 403.19,-4.28 459.75,-23.07 482.14,-30.51 503.44,-46.07 519.52,-60.22"/>
<polygon fill="#63b8ff" stroke="#63b8ff" points="517.03,-62.69 526.78,-66.85 521.76,-57.52 517.03,-62.69"/>
</a>
</g>
</g>
<!-- Node7&#45;&gt;Node5 -->
<g id="edge10_Node000007_Node000005" class="edge">
<title>Node7&#45;&gt;Node5</title>
<g id="a_edge10_Node000007_Node000005"><a xlink:title=" ">
<path fill="none" stroke="#63b8ff" d="M279.03,-15.72C292.67,-12.12 307.07,-8.95 320.75,-7.07 381.95,1.33 398.81,3.09 459.75,-7.07 530,-18.79 607.27,-48.63 654.4,-68.89"/>
<polygon fill="#63b8ff" stroke="#63b8ff" points="652.9,-72.05 663.46,-72.83 655.69,-65.63 652.9,-72.05"/>
</a>
</g>
</g>
<!-- Node7&#45;&gt;Node6 -->
<g id="edge12_Node000007_Node000006" class="edge">
<title>Node7&#45;&gt;Node6</title>
<g id="a_edge12_Node000007_Node000006"><a xlink:title=" ">
<path fill="none" stroke="#63b8ff" d="M285.16,-25.73C337.49,-21.21 408.06,-23.35 459.75,-56.07 487,-73.32 474.94,-94.43 495.75,-119.07 499.98,-124.08 504.85,-128.95 509.88,-133.5"/>
<polygon fill="#63b8ff" stroke="#63b8ff" points="507.4,-135.98 517.27,-139.84 511.96,-130.67 507.4,-135.98"/>
</a>
</g>
</g>
<!-- Node8&#45;&gt;Node4 -->
<g id="edge15_Node000008_Node000004" class="edge">
<title>Node8&#45;&gt;Node4</title>
<g id="a_edge15_Node000008_Node000004"><a xlink:title=" ">
<path fill="none" stroke="#63b8ff" d="M415.6,-200.82C436.69,-182.47 468.08,-155.34 495.75,-132.07 501.44,-127.29 507.51,-122.25 513.42,-117.37"/>
<polygon fill="#63b8ff" stroke="#63b8ff" points="515.25,-120.4 520.75,-111.35 510.8,-115 515.25,-120.4"/>
</a>
</g>
</g>
<!-- Node8&#45;&gt;Node5 -->
<g id="edge14_Node000008_Node000005" class="edge">
<title>Node8&#45;&gt;Node5</title>
<g id="a_edge14_Node000008_Node000005"><a xlink:title=" ">
<path fill="none" stroke="#63b8ff" d="M459.94,-223.73C503.08,-222.09 558.64,-214.92 602.5,-192.07 637.22,-173.99 666.13,-138.29 682.94,-114.05"/>
<polygon fill="#63b8ff" stroke="#63b8ff" points="685.66,-116.27 688.33,-106.02 679.85,-112.37 685.66,-116.27"/>
</a>
</g>
</g>
<!-- Node8&#45;&gt;Node6 -->
<g id="edge16_Node000008_Node000006" class="edge">
<title>Node8&#45;&gt;Node6</title>
<g id="a_edge16_Node000008_Node000006"><a xlink:title=" ">
<path fill="none" stroke="#63b8ff" d="M447,-200.75C459.32,-196.04 472.45,-191.02 485.03,-186.21"/>
<polygon fill="#63b8ff" stroke="#63b8ff" points="485.94,-189.61 494.03,-182.76 483.44,-183.07 485.94,-189.61"/>
</a>
</g>
</g>
</g>
</svg>
