<?xml version="1.0" encoding="UTF-8" standalone="no"?>
<!DOCTYPE svg PUBLIC "-//W3C//DTD SVG 1.1//EN"
 "http://www.w3.org/Graphics/SVG/1.1/DTD/svg11.dtd">
<!-- Generated by graphviz version 12.2.1 (20241206.2353)
 -->
<!-- Title: mimicpp::printing::type::parsing::token::try_reduce_as_function_ptr Pages: 1 -->
<!--zoomable 332 -->

<svg id="main" version="1.1" xmlns="http://www.w3.org/2000/svg" xmlns:xlink="http://www.w3.org/1999/xlink" xml:space="preserve" onload="init(evt)">

<style type="text/css"><![CDATA[
.node, .edge {opacity: 0.7;}
.node.selected, .edge.selected {opacity: 1;}
.edge:hover path { stroke: red; }
.edge:hover polygon { stroke: red; fill: red; }
]]></style>

<defs>
  <circle id="rim" cx="0" cy="0" r="7"/>
  <circle id="rim2" cx="0" cy="0" r="3.5"/>
  <g id="zoomPlus">
    <use xlink:href="#rim" fill="#404040"><set attributeName="fill" to="#808080" begin="zoomplus.mouseover" end="zoomplus.mouseout"/></use>
    <path d="M-4,0h8M0,-4v8" fill="none" stroke="white" stroke-width="1.5" pointer-events="none"/>
  </g>
  <g id="zoomMin">
    <use xlink:href="#rim" fill="#404040"><set attributeName="fill" to="#808080" begin="zoomminus.mouseover" end="zoomminus.mouseout"/></use>
    <path d="M-4,0h8" fill="none" stroke="white" stroke-width="1.5" pointer-events="none"/>
  </g>
  <g id="arrowUp" transform="translate(30 24)">
    <use xlink:href="#rim"/>
    <path pointer-events="none" fill="none" stroke="white" stroke-width="1.5" d="M0,-3.0v7 M-2.5,-0.5L0,-3.0L2.5,-0.5"/>
  </g>
  <g id="arrowRight" transform="rotate(90) translate(36 -43)">
    <use xlink:href="#rim"/>
    <path pointer-events="none" fill="none" stroke="white" stroke-width="1.5" d="M0,-3.0v7 M-2.5,-0.5L0,-3.0L2.5,-0.5"/>
  </g>
  <g id="arrowDown" transform="rotate(180) translate(-30 -48)">
    <use xlink:href="#rim"/>
    <path pointer-events="none" fill="none" stroke="white" stroke-width="1.5" d="M0,-3.0v7 M-2.5,-0.5L0,-3.0L2.5,-0.5"/>
  </g>
  <g id="arrowLeft" transform="rotate(270) translate(-36 17)">
    <use xlink:href="#rim"/>
    <path pointer-events="none" fill="none" stroke="white" stroke-width="1.5" d="M0,-3.0v7 M-2.5,-0.5L0,-3.0L2.5,-0.5"/>
  </g>
  <g id="resetDef">
    <use xlink:href="#rim2" fill="#404040"><set attributeName="fill" to="#808080" begin="reset.mouseover" end="reset.mouseout"/></use>
  </g>
</defs>
<script type="application/ecmascript">
var viewWidth = 615;
var viewHeight = 332;
var sectionId = 'dynsection-11';
</script>
<script type="application/ecmascript" xlink:href="../../svg.min.js"/>
<svg id="graph" class="graph">
<g id="viewport">
<title>mimicpp::printing::type::parsing::token::try_reduce_as_function_ptr</title>
<!-- Node1 -->
<g id="Node000001" class="node">
<title>Node1</title>
<g id="a_Node000001"><a xlink:title=" ">
<polygon fill="#999999" stroke="#666666" points="137.5,-177.75 0,-177.75 0,-136 137.5,-136 137.5,-177.75"/>
<text text-anchor="start" x="8" y="-164.25" font-family="Helvetica,sans-Serif" font-size="10.00">mimicpp::printing::</text>
<text text-anchor="start" x="8" y="-153" font-family="Helvetica,sans-Serif" font-size="10.00">type::parsing::token</text>
<text text-anchor="middle" x="68.75" y="-141.75" font-family="Helvetica,sans-Serif" font-size="10.00">::try_reduce_as_function_ptr</text>
</a>
</g>
</g>
<!-- Node2 -->
<g id="Node000002" class="node">
<title>Node2</title>
<g id="a_Node000002"><a xlink:href="../../de/db7/classmimicpp_1_1printing_1_1type_1_1parsing_1_1token_1_1_specs.html#a1ebbdaf2be871c08ecefd8bf05eeb966" target="_top" xlink:title=" ">
<polygon fill="white" stroke="#666666" points="288.88,-323.75 190.38,-323.75 190.38,-282 288.88,-282 288.88,-323.75"/>
<text text-anchor="start" x="198.38" y="-310.25" font-family="Helvetica,sans-Serif" font-size="10.00">mimicpp::printing::</text>
<text text-anchor="start" x="198.38" y="-299" font-family="Helvetica,sans-Serif" font-size="10.00">type::parsing::token</text>
<text text-anchor="middle" x="239.62" y="-287.75" font-family="Helvetica,sans-Serif" font-size="10.00">::Specs::has_ptr</text>
</a>
</g>
</g>
<!-- Node1&#45;&gt;Node2 -->
<g id="edge1_Node000001_Node000002" class="edge">
<title>Node1&#45;&gt;Node2</title>
<g id="a_edge1_Node000001_Node000002"><a xlink:title=" ">
<path fill="none" stroke="#63b8ff" d="M84.5,-178.11C102.93,-203.38 136.56,-245.58 173.5,-272.88 175.65,-274.47 177.91,-276 180.22,-277.48"/>
<polygon fill="#63b8ff" stroke="#63b8ff" points="178.34,-280.44 188.74,-282.47 181.88,-274.39 178.34,-280.44"/>
</a>
</g>
</g>
<!-- Node3 -->
<g id="Node000003" class="node">
<title>Node3</title>
<g id="a_Node000003"><a xlink:href="../../d5/dd4/namespacemimicpp_1_1printing_1_1type_1_1parsing.html#a00f6b43673ee187399d297db7368a09f" target="_top" xlink:title=" ">
<polygon fill="white" stroke="#666666" points="290,-177.75 189.25,-177.75 189.25,-136 290,-136 290,-177.75"/>
<text text-anchor="start" x="197.25" y="-164.25" font-family="Helvetica,sans-Serif" font-size="10.00">mimicpp::printing::</text>
<text text-anchor="start" x="197.25" y="-153" font-family="Helvetica,sans-Serif" font-size="10.00">type::parsing::ignore</text>
<text text-anchor="middle" x="239.62" y="-141.75" font-family="Helvetica,sans-Serif" font-size="10.00">_reserved_identifier</text>
</a>
</g>
</g>
<!-- Node1&#45;&gt;Node3 -->
<g id="edge2_Node000001_Node000003" class="edge">
<title>Node1&#45;&gt;Node3</title>
<g id="a_edge2_Node000001_Node000003"><a xlink:title=" ">
<path fill="none" stroke="#63b8ff" d="M137.95,-156.88C150.99,-156.88 164.56,-156.88 177.36,-156.88"/>
<polygon fill="#63b8ff" stroke="#63b8ff" points="177.35,-160.38 187.35,-156.88 177.35,-153.38 177.35,-160.38"/>
</a>
</g>
</g>
<!-- Node4 -->
<g id="Node000004" class="node">
<title>Node4</title>
<g id="a_Node000004"><a xlink:href="../../d5/dd4/namespacemimicpp_1_1printing_1_1type_1_1parsing.html#a561e709d444eaf8ab32ba08888b5a290" target="_top" xlink:title=" ">
<polygon fill="white" stroke="#666666" points="445.88,-150.75 344.38,-150.75 344.38,-109 445.88,-109 445.88,-150.75"/>
<text text-anchor="start" x="352.38" y="-137.25" font-family="Helvetica,sans-Serif" font-size="10.00">mimicpp::printing::</text>
<text text-anchor="start" x="352.38" y="-126" font-family="Helvetica,sans-Serif" font-size="10.00">type::parsing::match</text>
<text text-anchor="middle" x="395.12" y="-114.75" font-family="Helvetica,sans-Serif" font-size="10.00">_suffix</text>
</a>
</g>
</g>
<!-- Node1&#45;&gt;Node4 -->
<g id="edge11_Node000001_Node000004" class="edge">
<title>Node1&#45;&gt;Node4</title>
<g id="a_edge11_Node000001_Node000004"><a xlink:title=" ">
<path fill="none" stroke="#63b8ff" d="M133.06,-135.52C146.27,-131.93 160.23,-128.76 173.5,-126.88 226.88,-119.31 288.26,-120.97 332.7,-124"/>
<polygon fill="#63b8ff" stroke="#63b8ff" points="332.16,-127.47 342.39,-124.71 332.67,-120.49 332.16,-127.47"/>
</a>
</g>
</g>
<!-- Node5 -->
<g id="Node000005" class="node">
<title>Node5</title>
<g id="a_Node000005"><a xlink:href="../../d5/dd4/namespacemimicpp_1_1printing_1_1type_1_1parsing.html#a3223a4c7c30cf952c3fbd33a51436feb" target="_top" xlink:title=" ">
<polygon fill="white" stroke="#666666" points="607,-145.12 484.5,-145.12 484.5,-114.62 607,-114.62 607,-145.12"/>
<text text-anchor="start" x="492.5" y="-131.62" font-family="Helvetica,sans-Serif" font-size="10.00">mimicpp::printing::</text>
<text text-anchor="middle" x="545.75" y="-120.38" font-family="Helvetica,sans-Serif" font-size="10.00">type::parsing::is_suffix_of</text>
</a>
</g>
</g>
<!-- Node1&#45;&gt;Node5 -->
<g id="edge10_Node000001_Node000005" class="edge">
<title>Node1&#45;&gt;Node5</title>
<g id="a_edge10_Node000001_Node000005"><a xlink:title=" ">
<path fill="none" stroke="#63b8ff" d="M118.82,-135.52C135.85,-128.9 155.25,-122.21 173.5,-117.88 292.67,-89.59 327.41,-81.44 448.5,-99.88 463.39,-102.14 479.15,-106.28 493.51,-110.76"/>
<polygon fill="#63b8ff" stroke="#63b8ff" points="492.14,-114 502.74,-113.77 494.31,-107.35 492.14,-114"/>
</a>
</g>
</g>
<!-- Node6 -->
<g id="Node000006" class="node">
<title>Node6</title>
<g id="a_Node000006"><a xlink:href="../../d5/dd4/namespacemimicpp_1_1printing_1_1type_1_1parsing.html#a064f0c25bf50e9c8d44f85d6dd04b914" target="_top" xlink:title=" ">
<polygon fill="white" stroke="#666666" points="448.5,-220.75 341.75,-220.75 341.75,-179 448.5,-179 448.5,-220.75"/>
<text text-anchor="start" x="349.75" y="-207.25" font-family="Helvetica,sans-Serif" font-size="10.00">mimicpp::printing::</text>
<text text-anchor="start" x="349.75" y="-196" font-family="Helvetica,sans-Serif" font-size="10.00">type::parsing::remove</text>
<text text-anchor="middle" x="395.12" y="-184.75" font-family="Helvetica,sans-Serif" font-size="10.00">_suffix</text>
</a>
</g>
</g>
<!-- Node1&#45;&gt;Node6 -->
<g id="edge12_Node000001_Node000006" class="edge">
<title>Node1&#45;&gt;Node6</title>
<g id="a_edge12_Node000001_Node000006"><a xlink:title=" ">
<path fill="none" stroke="#63b8ff" d="M135.38,-178.23C147.92,-181.63 161.03,-184.73 173.5,-186.88 225.74,-195.85 285.85,-198.93 330.12,-199.85"/>
<polygon fill="#63b8ff" stroke="#63b8ff" points="330.02,-203.35 340.08,-200.03 330.15,-196.35 330.02,-203.35"/>
</a>
</g>
</g>
<!-- Node7 -->
<g id="Node000007" class="node">
<title>Node7</title>
<g id="a_Node000007"><a xlink:href="../../d5/dd4/namespacemimicpp_1_1printing_1_1type_1_1parsing.html#acb4998796de89ec78c2baab68b9ceb76" target="_top" xlink:title=" ">
<polygon fill="white" stroke="#666666" points="305.75,-264.12 173.5,-264.12 173.5,-233.62 305.75,-233.62 305.75,-264.12"/>
<text text-anchor="start" x="181.5" y="-250.62" font-family="Helvetica,sans-Serif" font-size="10.00">mimicpp::printing::</text>
<text text-anchor="middle" x="239.62" y="-239.38" font-family="Helvetica,sans-Serif" font-size="10.00">type::parsing::ignore_space</text>
</a>
</g>
</g>
<!-- Node1&#45;&gt;Node7 -->
<g id="edge6_Node000001_Node000007" class="edge">
<title>Node1&#45;&gt;Node7</title>
<g id="a_edge6_Node000001_Node000007"><a xlink:title=" ">
<path fill="none" stroke="#63b8ff" d="M102.31,-178.11C122.45,-190.87 149.04,-207.07 173.5,-219.88 179.19,-222.85 185.25,-225.82 191.29,-228.65"/>
<polygon fill="#63b8ff" stroke="#63b8ff" points="189.46,-231.66 200.01,-232.64 192.37,-225.29 189.46,-231.66"/>
</a>
</g>
</g>
<!-- Node8 -->
<g id="Node000008" class="node">
<title>Node8</title>
<g id="a_Node000008"><a xlink:href="../../d3/de0/classmimicpp_1_1printing_1_1type_1_1parsing_1_1token_1_1_identifier.html#ad005f3f263c8c6eaf0db1353524560a5" target="_top" xlink:title=" ">
<polygon fill="white" stroke="#666666" points="295.62,-41.75 183.62,-41.75 183.62,0 295.62,0 295.62,-41.75"/>
<text text-anchor="start" x="191.62" y="-28.25" font-family="Helvetica,sans-Serif" font-size="10.00">mimicpp::printing::</text>
<text text-anchor="start" x="191.62" y="-17" font-family="Helvetica,sans-Serif" font-size="10.00">type::parsing::token</text>
<text text-anchor="middle" x="239.62" y="-5.75" font-family="Helvetica,sans-Serif" font-size="10.00">::Identifier::is_reserved</text>
</a>
</g>
</g>
<!-- Node1&#45;&gt;Node8 -->
<g id="edge9_Node000001_Node000008" class="edge">
<title>Node1&#45;&gt;Node8</title>
<g id="a_edge9_Node000001_Node000008"><a xlink:title=" ">
<path fill="none" stroke="#63b8ff" d="M88.16,-135.76C107.83,-114 140.66,-79.95 173.5,-55.88 177.23,-53.14 181.19,-50.49 185.26,-47.94"/>
<polygon fill="#63b8ff" stroke="#63b8ff" points="186.76,-51.12 193.56,-42.99 183.18,-45.11 186.76,-51.12"/>
</a>
</g>
</g>
<!-- Node3&#45;&gt;Node4 -->
<g id="edge3_Node000003_Node000004" class="edge">
<title>Node3&#45;&gt;Node4</title>
<g id="a_edge3_Node000003_Node000004"><a xlink:title=" ">
<path fill="none" stroke="#63b8ff" d="M290.46,-148.11C304,-145.73 318.82,-143.12 332.91,-140.64"/>
<polygon fill="#63b8ff" stroke="#63b8ff" points="333.28,-144.13 342.52,-138.95 332.07,-137.24 333.28,-144.13"/>
</a>
</g>
</g>
<!-- Node3&#45;&gt;Node6 -->
<g id="edge5_Node000003_Node000006" class="edge">
<title>Node3&#45;&gt;Node6</title>
<g id="a_edge5_Node000003_Node000006"><a xlink:title=" ">
<path fill="none" stroke="#63b8ff" d="M290.46,-170.84C303.18,-174.4 317.03,-178.28 330.35,-182.01"/>
<polygon fill="#63b8ff" stroke="#63b8ff" points="329.34,-185.36 339.91,-184.69 331.23,-178.62 329.34,-185.36"/>
</a>
</g>
</g>
<!-- Node4&#45;&gt;Node5 -->
<g id="edge4_Node000004_Node000005" class="edge">
<title>Node4&#45;&gt;Node5</title>
<g id="a_edge4_Node000004_Node000005"><a xlink:title=" ">
<path fill="none" stroke="#63b8ff" d="M446.03,-129.88C454.63,-129.88 463.71,-129.88 472.76,-129.88"/>
<polygon fill="#63b8ff" stroke="#63b8ff" points="472.63,-133.38 482.63,-129.88 472.63,-126.38 472.63,-133.38"/>
</a>
</g>
</g>
<!-- Node7&#45;&gt;Node5 -->
<g id="edge7_Node000007_Node000005" class="edge">
<title>Node7&#45;&gt;Node5</title>
<g id="a_edge7_Node000007_Node000005"><a xlink:title=" ">
<path fill="none" stroke="#63b8ff" d="M306.02,-254.34C348.59,-255.21 404.24,-251.14 448.5,-229.88 483.09,-213.26 511.89,-178.62 528.72,-154.81"/>
<polygon fill="#63b8ff" stroke="#63b8ff" points="531.58,-156.83 534.33,-146.6 525.8,-152.88 531.58,-156.83"/>
</a>
</g>
</g>
<!-- Node7&#45;&gt;Node6 -->
<g id="edge8_Node000007_Node000006" class="edge">
<title>Node7&#45;&gt;Node6</title>
<g id="a_edge8_Node000007_Node000006"><a xlink:title=" ">
<path fill="none" stroke="#63b8ff" d="M289.62,-233.24C302.63,-229.08 316.88,-224.53 330.55,-220.17"/>
<polygon fill="#63b8ff" stroke="#63b8ff" points="331.45,-223.56 339.91,-217.18 329.32,-216.89 331.45,-223.56"/>
</a>
</g>
</g>
</g>
</svg>

<g id="navigator" transform="translate(0 0)" fill="#404254">
  <rect fill="#f2f5e9" fill-opacity="0.5" stroke="#606060" stroke-width=".5" x="0" y="0" width="60" height="60"/>
  <use id="zoomplus" xlink:href="#zoomPlus" x="17" y="9" onmousedown="handleZoom(evt,'in')"/>
  <use id="zoomminus" xlink:href="#zoomMin" x="42" y="9" onmousedown="handleZoom(evt,'out')"/>
  <use id="reset" xlink:href="#resetDef" x="30" y="36" onmousedown="handleReset()"/>
   <use id="arrowup" xlink:href="#arrowUp" x="0" y="0" onmousedown="handlePan(0,-1)"/>
  <use id="arrowright" xlink:href="#arrowRight" x="0" y="0" onmousedown="handlePan(1,0)"/>
  <use id="arrowdown" xlink:href="#arrowDown" x="0" y="0" onmousedown="handlePan(0,1)"/>
  <use id="arrowleft" xlink:href="#arrowLeft" x="0" y="0" onmousedown="handlePan(-1,0)"/>
</g>
<svg viewBox="0 0 15 15" width="100%" height="30px" preserveAspectRatio="xMaxYMin meet">
 <g id="arrow_out" transform="scale(0.3 0.3)">
  <a xlink:href="namespacemimicpp_1_1printing_1_1type_1_1parsing_1_1token_a724e4bbc36dd71f0a537ed245184e436_cgraph_org.svg" target="_base">
   <rect id="button" ry="5" rx="5" y="6" x="6" height="38" width="38"
        fill="#f2f5e9" fill-opacity="0.5" stroke="#606060" stroke-width="1.0"/>
   <path id="arrow"
     d="M 11.500037,31.436501 C 11.940474,20.09759 22.043105,11.32322 32.158766,21.979434 L 37.068811,17.246167 C 37.068811,17.246167 37.088388,32 37.088388,32 L 22.160133,31.978069 C 22.160133,31.978069 26.997745,27.140456 26.997745,27.140456 C 18.528582,18.264221 13.291696,25.230495 11.500037,31.436501 z"
     style="fill:#404040;"/>
  </a>
 </g>
</svg>

<style type='text/css'>
<![CDATA[
[data-mouse-over-selected='false'] { opacity: 0.7; }
[data-mouse-over-selected='true']  { opacity: 1.0; }
]]>
</style>
<script type="application/ecmascript"><![CDATA[
document.addEventListener('DOMContentLoaded', (event) => {
  highlightEdges();
  highlightAdjacentNodes();
});
]]></script>
</svg>
