<?xml version="1.0" encoding="UTF-8" standalone="no"?>
<!DOCTYPE svg PUBLIC "-//W3C//DTD SVG 1.1//EN"
 "http://www.w3.org/Graphics/SVG/1.1/DTD/svg11.dtd">
<!-- Generated by graphviz version 12.2.1 (20241206.2353)
 -->
<!-- Title: mimic++/config/Settings.hpp Pages: 1 -->
<svg width="1303pt" height="824pt"
 viewBox="0.00 0.00 1303.00 824.25" xmlns="http://www.w3.org/2000/svg" xmlns:xlink="http://www.w3.org/1999/xlink">
<g id="graph0" class="graph" transform="scale(1 1) rotate(0) translate(4 820.25)">
<title>mimic++/config/Settings.hpp</title>
<!-- Node1 -->
<g id="Node000001" class="node">
<title>Node1</title>
<g id="a_Node000001"><a xlink:title=" ">
<polygon fill="#999999" stroke="#666666" points="453.88,-816.25 314.12,-816.25 314.12,-797 453.88,-797 453.88,-816.25"/>
<text text-anchor="middle" x="384" y="-802.75" font-family="Helvetica,sans-Serif" font-size="10.00">mimic++/config/Settings.hpp</text>
</a>
</g>
</g>
<!-- Node2 -->
<g id="Node000002" class="node">
<title>Node2</title>
<g id="a_Node000002"><a xlink:href="../../d0/db9/mimic_09_09_8hpp.html" target="_top" xlink:title=" ">
<polygon fill="white" stroke="#666666" points="657.75,-19.25 544.25,-19.25 544.25,0 657.75,0 657.75,-19.25"/>
<text text-anchor="middle" x="601" y="-5.75" font-family="Helvetica,sans-Serif" font-size="10.00">mimic++/mimic++.hpp</text>
</a>
</g>
</g>
<!-- Node1&#45;&gt;Node2 -->
<g id="edge1_Node000001_Node000002" class="edge">
<title>Node1&#45;&gt;Node2</title>
<g id="a_edge1_Node000001_Node000002"><a xlink:title=" ">
<path fill="none" stroke="#63b8ff" d="M302.69,-799.11C189.98,-787.81 0,-759.5 0,-697.12 0,-697.12 0,-697.12 0,-119.12 0,-78.94 27.53,-72.14 64,-55.25 148.15,-16.28 424.01,-10.91 544.19,-10.46"/>
<polygon fill="#63b8ff" stroke="#63b8ff" points="302.22,-802.58 312.51,-800.07 302.9,-795.62 302.22,-802.58"/>
</a>
</g>
</g>
<!-- Node3 -->
<g id="Node000003" class="node">
<title>Node3</title>
<g id="a_Node000003"><a xlink:href="../../de/df5/_stacktrace_8hpp.html" target="_top" xlink:title=" ">
<polygon fill="white" stroke="#666666" points="915.12,-761 758.88,-761 758.88,-741.75 915.12,-741.75 915.12,-761"/>
<text text-anchor="middle" x="837" y="-747.5" font-family="Helvetica,sans-Serif" font-size="10.00">mimic++/utilities/Stacktrace.hpp</text>
</a>
</g>
</g>
<!-- Node1&#45;&gt;Node3 -->
<g id="edge2_Node000001_Node000003" class="edge">
<title>Node1&#45;&gt;Node3</title>
<g id="a_edge2_Node000001_Node000003"><a xlink:title=" ">
<path fill="none" stroke="#63b8ff" d="M465.5,-796.04C548.98,-786.23 677.81,-771.09 759.72,-761.46"/>
<polygon fill="#63b8ff" stroke="#63b8ff" points="465.31,-792.54 455.79,-797.19 466.13,-799.49 465.31,-792.54"/>
</a>
</g>
</g>
<!-- Node4 -->
<g id="Node000004" class="node">
<title>Node4</title>
<g id="a_Node000004"><a xlink:href="../../dc/d44/_call_8hpp.html" target="_top" xlink:title=" ">
<polygon fill="white" stroke="#666666" points="684.88,-705.75 593.12,-705.75 593.12,-686.5 684.88,-686.5 684.88,-705.75"/>
<text text-anchor="middle" x="639" y="-692.25" font-family="Helvetica,sans-Serif" font-size="10.00">mimic++/Call.hpp</text>
</a>
</g>
</g>
<!-- Node3&#45;&gt;Node4 -->
<g id="edge3_Node000003_Node000004" class="edge">
<title>Node3&#45;&gt;Node4</title>
<g id="a_edge3_Node000003_Node000004"><a xlink:title=" ">
<path fill="none" stroke="#63b8ff" d="M792.64,-738.45C756.36,-728.69 705.81,-715.09 672.75,-706.2"/>
<polygon fill="#63b8ff" stroke="#63b8ff" points="791.38,-741.73 801.95,-740.95 793.2,-734.97 791.38,-741.73"/>
</a>
</g>
</g>
<!-- Node5 -->
<g id="Node000005" class="node">
<title>Node5</title>
<g id="a_Node000005"><a xlink:href="../../d5/dc5/_mock_8hpp.html" target="_top" xlink:title=" ">
<polygon fill="white" stroke="#666666" points="800.62,-129.75 701.38,-129.75 701.38,-110.5 800.62,-110.5 800.62,-129.75"/>
<text text-anchor="middle" x="751" y="-116.25" font-family="Helvetica,sans-Serif" font-size="10.00">mimic++/Mock.hpp</text>
</a>
</g>
</g>
<!-- Node3&#45;&gt;Node5 -->
<g id="edge60_Node000003_Node000005" class="edge">
<title>Node3&#45;&gt;Node5</title>
<g id="a_edge60_Node000003_Node000005"><a xlink:title=" ">
<path fill="none" stroke="#63b8ff" d="M826.5,-731.22C815.87,-710.03 801,-674.53 801,-641.88 801,-641.88 801,-641.88 801,-246.5 801,-209.63 797,-199.43 782,-165.75 776.01,-152.31 765.81,-138.68 758.75,-130.08"/>
<polygon fill="#63b8ff" stroke="#63b8ff" points="823.4,-732.85 831.14,-740.08 829.6,-729.6 823.4,-732.85"/>
</a>
</g>
</g>
<!-- Node18 -->
<g id="Node000018" class="node">
<title>Node18</title>
<g id="a_Node000018"><a xlink:href="../../d9/d6c/_call_report_8hpp.html" target="_top" xlink:title=" ">
<polygon fill="white" stroke="#666666" points="989.38,-650.5 828.62,-650.5 828.62,-631.25 989.38,-631.25 989.38,-650.5"/>
<text text-anchor="middle" x="909" y="-637" font-family="Helvetica,sans-Serif" font-size="10.00">mimic++/reporting/CallReport.hpp</text>
</a>
</g>
</g>
<!-- Node3&#45;&gt;Node18 -->
<g id="edge63_Node000003_Node000018" class="edge">
<title>Node3&#45;&gt;Node18</title>
<g id="a_edge63_Node000003_Node000018"><a xlink:title=" ">
<path fill="none" stroke="#63b8ff" d="M849.21,-731.97C864.83,-708.44 891.25,-668.62 903.03,-650.88"/>
<polygon fill="#63b8ff" stroke="#63b8ff" points="846.34,-729.97 843.73,-740.23 852.17,-733.84 846.34,-729.97"/>
</a>
</g>
</g>
<!-- Node25 -->
<g id="Node000025" class="node">
<title>Node25</title>
<g id="a_Node000025"><a xlink:href="../../d9/d70/_stringify_reports_8hpp.html" target="_top" xlink:title=" ">
<polygon fill="white" stroke="#666666" points="1114.5,-595.25 981.5,-595.25 981.5,-564.75 1114.5,-564.75 1114.5,-595.25"/>
<text text-anchor="start" x="989.5" y="-581.75" font-family="Helvetica,sans-Serif" font-size="10.00">mimic++/reporting/Stringify</text>
<text text-anchor="middle" x="1048" y="-570.5" font-family="Helvetica,sans-Serif" font-size="10.00">Reports.hpp</text>
</a>
</g>
</g>
<!-- Node3&#45;&gt;Node25 -->
<g id="edge64_Node000003_Node000025" class="edge">
<title>Node3&#45;&gt;Node25</title>
<g id="a_edge64_Node000003_Node000025"><a xlink:title=" ">
<path fill="none" stroke="#63b8ff" d="M867.05,-736.27C901.31,-719.21 957.76,-688.08 998,-650.5 1015.6,-634.07 1030.95,-610.6 1039.85,-595.58"/>
<polygon fill="#63b8ff" stroke="#63b8ff" points="865.57,-733.1 858.12,-740.63 868.64,-739.39 865.57,-733.1"/>
</a>
</g>
</g>
<!-- Node26 -->
<g id="Node000026" class="node">
<title>Node26</title>
<g id="a_Node000026"><a xlink:href="../../dc/d54/_utilities_8hpp.html" target="_top" xlink:title=" ">
<polygon fill="white" stroke="#666666" points="1258.12,-650.5 1149.88,-650.5 1149.88,-631.25 1258.12,-631.25 1258.12,-650.5"/>
<text text-anchor="middle" x="1204" y="-637" font-family="Helvetica,sans-Serif" font-size="10.00">mimic++/Utilities.hpp</text>
</a>
</g>
</g>
<!-- Node3&#45;&gt;Node26 -->
<g id="edge61_Node000003_Node000026" class="edge">
<title>Node3&#45;&gt;Node26</title>
<g id="a_edge61_Node000003_Node000026"><a xlink:title=" ">
<path fill="none" stroke="#63b8ff" d="M903.3,-739.27C944.77,-731.57 999.04,-720.14 1046,-705.75 1097.49,-689.98 1155.62,-664.35 1184.93,-650.85"/>
<polygon fill="#63b8ff" stroke="#63b8ff" points="902.93,-735.78 893.72,-741.02 904.19,-742.66 902.93,-735.78"/>
</a>
</g>
</g>
<!-- Node4&#45;&gt;Node2 -->
<g id="edge28_Node000004_Node000002" class="edge">
<title>Node4&#45;&gt;Node2</title>
<g id="a_edge28_Node000004_Node000002"><a xlink:title=" ">
<path fill="none" stroke="#63b8ff" d="M581.6,-690.24C431.34,-676.7 38,-635.99 38,-581 38,-581 38,-581 38,-119.12 38,-16.85 400.79,-8.86 543.92,-9.69"/>
<polygon fill="#63b8ff" stroke="#63b8ff" points="581.06,-693.71 591.33,-691.11 581.68,-686.74 581.06,-693.71"/>
</a>
</g>
</g>
<!-- Node4&#45;&gt;Node5 -->
<g id="edge4_Node000004_Node000005" class="edge">
<title>Node4&#45;&gt;Node5</title>
<g id="a_edge4_Node000004_Node000005"><a xlink:title=" ">
<path fill="none" stroke="#63b8ff" d="M608.46,-680.95C574.69,-662.91 525,-628.33 525,-581 525,-581 525,-581 525,-379.5 525,-267.61 574.68,-240.43 658,-165.75 676.54,-149.14 702.36,-137.41 722.09,-130.16"/>
<polygon fill="#63b8ff" stroke="#63b8ff" points="606.51,-683.88 617.01,-685.32 609.7,-677.65 606.51,-683.88"/>
</a>
</g>
</g>
<!-- Node8 -->
<g id="Node000008" class="node">
<title>Node8</title>
<g id="a_Node000008"><a xlink:href="../../db/d33/expectation_2_common_8hpp.html" target="_top" xlink:title=" ">
<polygon fill="white" stroke="#666666" points="692.38,-462.25 585.62,-462.25 585.62,-431.75 692.38,-431.75 692.38,-462.25"/>
<text text-anchor="start" x="593.62" y="-448.75" font-family="Helvetica,sans-Serif" font-size="10.00">mimic++/expectation</text>
<text text-anchor="middle" x="639" y="-437.5" font-family="Helvetica,sans-Serif" font-size="10.00">/Common.hpp</text>
</a>
</g>
</g>
<!-- Node4&#45;&gt;Node8 -->
<g id="edge10_Node000004_Node000008" class="edge">
<title>Node4&#45;&gt;Node8</title>
<g id="a_edge10_Node000004_Node000008"><a xlink:title=" ">
<path fill="none" stroke="#63b8ff" d="M639,-674.59C639,-625.89 639,-504.29 639,-462.43"/>
<polygon fill="#63b8ff" stroke="#63b8ff" points="635.5,-674.52 639,-684.52 642.5,-674.52 635.5,-674.52"/>
</a>
</g>
</g>
<!-- Node11 -->
<g id="Node000011" class="node">
<title>Node11</title>
<g id="a_Node000011"><a xlink:href="../../d5/d8a/_expectation_8hpp.html" target="_top" xlink:title=" ">
<polygon fill="white" stroke="#666666" points="773.38,-395.75 666.62,-395.75 666.62,-365.25 773.38,-365.25 773.38,-395.75"/>
<text text-anchor="start" x="674.62" y="-382.25" font-family="Helvetica,sans-Serif" font-size="10.00">mimic++/expectation</text>
<text text-anchor="middle" x="720" y="-371" font-family="Helvetica,sans-Serif" font-size="10.00">/Expectation.hpp</text>
</a>
</g>
</g>
<!-- Node4&#45;&gt;Node11 -->
<g id="edge27_Node000004_Node000011" class="edge">
<title>Node4&#45;&gt;Node11</title>
<g id="a_edge27_Node000004_Node000011"><a xlink:title=" ">
<path fill="none" stroke="#63b8ff" d="M660.49,-678.95C684.49,-658.86 720,-622.18 720,-581 720,-581 720,-581 720,-512.5 720,-470.2 720,-420.21 720,-396.04"/>
<polygon fill="#63b8ff" stroke="#63b8ff" points="658.44,-676.1 652.84,-685.09 662.83,-681.56 658.44,-676.1"/>
</a>
</g>
</g>
<!-- Node14 -->
<g id="Node000014" class="node">
<title>Node14</title>
<g id="a_Node000014"><a xlink:href="../../d2/dfd/_argument_list_8hpp.html" target="_top" xlink:title=" ">
<polygon fill="white" stroke="#666666" points="372.62,-329.25 237.38,-329.25 237.38,-298.75 372.62,-298.75 372.62,-329.25"/>
<text text-anchor="start" x="245.38" y="-315.75" font-family="Helvetica,sans-Serif" font-size="10.00">mimic++/policies/Argument</text>
<text text-anchor="middle" x="305" y="-304.5" font-family="Helvetica,sans-Serif" font-size="10.00">List.hpp</text>
</a>
</g>
</g>
<!-- Node4&#45;&gt;Node14 -->
<g id="edge29_Node000004_Node000014" class="edge">
<title>Node4&#45;&gt;Node14</title>
<g id="a_edge29_Node000004_Node000014"><a xlink:title=" ">
<path fill="none" stroke="#63b8ff" d="M581.57,-692.59C509.72,-685.98 396,-662.63 396,-581 396,-581 396,-581 396,-446 396,-396.15 351.01,-351.64 324.3,-329.6"/>
<polygon fill="#63b8ff" stroke="#63b8ff" points="580.96,-696.05 591.21,-693.39 581.54,-689.08 580.96,-696.05"/>
</a>
</g>
</g>
<!-- Node4&#45;&gt;Node18 -->
<g id="edge38_Node000004_Node000018" class="edge">
<title>Node4&#45;&gt;Node18</title>
<g id="a_edge38_Node000004_Node000018"><a xlink:title=" ">
<path fill="none" stroke="#63b8ff" d="M696.31,-683.82C746.03,-674.02 817.04,-660.01 863.08,-650.93"/>
<polygon fill="#63b8ff" stroke="#63b8ff" points="695.73,-680.37 686.59,-685.74 697.08,-687.24 695.73,-680.37"/>
</a>
</g>
</g>
<!-- Node5&#45;&gt;Node2 -->
<g id="edge9_Node000005_Node000002" class="edge">
<title>Node5&#45;&gt;Node2</title>
<g id="a_edge9_Node000005_Node000002"><a xlink:title=" ">
<path fill="none" stroke="#63b8ff" d="M811.72,-109.06C849.34,-101.45 892.59,-89.71 904,-74.5 909.13,-67.66 909.59,-61.73 904,-55.25 872.85,-19.18 736.77,-11.74 657.98,-10.53"/>
<polygon fill="#63b8ff" stroke="#63b8ff" points="811.41,-105.56 802.26,-110.91 812.75,-112.43 811.41,-105.56"/>
</a>
</g>
</g>
<!-- Node6 -->
<g id="Node000006" class="node">
<title>Node6</title>
<g id="a_Node000006"><a xlink:href="../../d6/dc3/_facade_8hpp.html" target="_top" xlink:title=" ">
<polygon fill="white" stroke="#666666" points="736.75,-74.5 629.25,-74.5 629.25,-55.25 736.75,-55.25 736.75,-74.5"/>
<text text-anchor="middle" x="683" y="-61" font-family="Helvetica,sans-Serif" font-size="10.00">mimic++/Facade.hpp</text>
</a>
</g>
</g>
<!-- Node5&#45;&gt;Node6 -->
<g id="edge5_Node000005_Node000006" class="edge">
<title>Node5&#45;&gt;Node6</title>
<g id="a_edge5_Node000005_Node000006"><a xlink:title=" ">
<path fill="none" stroke="#63b8ff" d="M730.65,-103.19C718.78,-93.89 704.24,-82.51 694.36,-74.77"/>
<polygon fill="#63b8ff" stroke="#63b8ff" points="728.24,-105.75 738.27,-109.16 732.56,-100.24 728.24,-105.75"/>
</a>
</g>
</g>
<!-- Node7 -->
<g id="Node000007" class="node">
<title>Node7</title>
<g id="a_Node000007"><a xlink:href="../../d5/d92/_object_watcher_8hpp.html" target="_top" xlink:title=" ">
<polygon fill="white" stroke="#666666" points="894.88,-74.5 755.12,-74.5 755.12,-55.25 894.88,-55.25 894.88,-74.5"/>
<text text-anchor="middle" x="825" y="-61" font-family="Helvetica,sans-Serif" font-size="10.00">mimic++/ObjectWatcher.hpp</text>
</a>
</g>
</g>
<!-- Node5&#45;&gt;Node7 -->
<g id="edge7_Node000005_Node000007" class="edge">
<title>Node5&#45;&gt;Node7</title>
<g id="a_edge7_Node000005_Node000007"><a xlink:title=" ">
<path fill="none" stroke="#63b8ff" d="M772.76,-103.47C785.75,-94.12 801.78,-82.58 812.63,-74.77"/>
<polygon fill="#63b8ff" stroke="#63b8ff" points="770.85,-100.53 764.78,-109.21 774.94,-106.21 770.85,-100.53"/>
</a>
</g>
</g>
<!-- Node6&#45;&gt;Node2 -->
<g id="edge6_Node000006_Node000002" class="edge">
<title>Node6&#45;&gt;Node2</title>
<g id="a_edge6_Node000006_Node000002"><a xlink:title=" ">
<path fill="none" stroke="#63b8ff" d="M659.79,-48.8C645.35,-39.42 627.25,-27.67 614.98,-19.7"/>
<polygon fill="#63b8ff" stroke="#63b8ff" points="657.53,-51.51 667.82,-54.02 661.34,-45.64 657.53,-51.51"/>
</a>
</g>
</g>
<!-- Node7&#45;&gt;Node2 -->
<g id="edge8_Node000007_Node000002" class="edge">
<title>Node7&#45;&gt;Node2</title>
<g id="a_edge8_Node000007_Node000002"><a xlink:title=" ">
<path fill="none" stroke="#63b8ff" d="M775.62,-52.14C734.48,-42.36 676.73,-28.63 639.09,-19.68"/>
<polygon fill="#63b8ff" stroke="#63b8ff" points="774.74,-55.52 785.28,-54.43 776.36,-48.71 774.74,-55.52"/>
</a>
</g>
</g>
<!-- Node8&#45;&gt;Node2 -->
<g id="edge26_Node000008_Node000002" class="edge">
<title>Node8&#45;&gt;Node2</title>
<g id="a_edge26_Node000008_Node000002"><a xlink:title=" ">
<path fill="none" stroke="#63b8ff" d="M582.53,-427.31C515.97,-401.88 408.55,-349.35 362,-262.75 355.58,-250.81 357.71,-245.11 362,-232.25 369.79,-208.92 475.6,-70.38 495,-55.25 516.57,-38.43 545.41,-26.83 567.56,-19.68"/>
<polygon fill="#63b8ff" stroke="#63b8ff" points="581.24,-430.57 591.83,-430.78 583.68,-424.01 581.24,-430.57"/>
</a>
</g>
</g>
<!-- Node9 -->
<g id="Node000009" class="node">
<title>Node9</title>
<g id="a_Node000009"><a xlink:href="../../d6/d15/_builder_8hpp.html" target="_top" xlink:title=" ">
<polygon fill="white" stroke="#666666" points="773.38,-196.25 666.62,-196.25 666.62,-165.75 773.38,-165.75 773.38,-196.25"/>
<text text-anchor="start" x="674.62" y="-182.75" font-family="Helvetica,sans-Serif" font-size="10.00">mimic++/expectation</text>
<text text-anchor="middle" x="720" y="-171.5" font-family="Helvetica,sans-Serif" font-size="10.00">/Builder.hpp</text>
</a>
</g>
</g>
<!-- Node8&#45;&gt;Node9 -->
<g id="edge11_Node000008_Node000009" class="edge">
<title>Node8&#45;&gt;Node9</title>
<g id="a_edge11_Node000008_Node000009"><a xlink:title=" ">
<path fill="none" stroke="#63b8ff" d="M635.12,-420.02C630.13,-377.87 625.57,-293.18 658,-232.25 665.94,-217.33 680.4,-205.22 693.35,-196.63"/>
<polygon fill="#63b8ff" stroke="#63b8ff" points="631.65,-420.47 636.42,-429.93 638.59,-419.56 631.65,-420.47"/>
</a>
</g>
</g>
<!-- Node8&#45;&gt;Node11 -->
<g id="edge16_Node000008_Node000011" class="edge">
<title>Node8&#45;&gt;Node11</title>
<g id="a_edge16_Node000008_Node000011"><a xlink:title=" ">
<path fill="none" stroke="#63b8ff" d="M666.29,-424.27C677.95,-414.98 691.25,-404.4 701.69,-396.08"/>
<polygon fill="#63b8ff" stroke="#63b8ff" points="664.21,-421.45 658.56,-430.42 668.57,-426.93 664.21,-421.45"/>
</a>
</g>
</g>
<!-- Node9&#45;&gt;Node2 -->
<g id="edge15_Node000009_Node000002" class="edge">
<title>Node9&#45;&gt;Node2</title>
<g id="a_edge15_Node000009_Node000002"><a xlink:title=" ">
<path fill="none" stroke="#63b8ff" d="M693.33,-158.3C670.78,-138.62 639.17,-107.68 620,-74.5 609.58,-56.47 604.42,-32.21 602.27,-19.4"/>
<polygon fill="#63b8ff" stroke="#63b8ff" points="690.75,-160.7 700.63,-164.53 695.3,-155.38 690.75,-160.7"/>
</a>
</g>
</g>
<!-- Node9&#45;&gt;Node5 -->
<g id="edge12_Node000009_Node000005" class="edge">
<title>Node9&#45;&gt;Node5</title>
<g id="a_edge12_Node000009_Node000005"><a xlink:title=" ">
<path fill="none" stroke="#63b8ff" d="M732.93,-155.44C737.64,-146.51 742.67,-136.95 746.22,-130.2"/>
<polygon fill="#63b8ff" stroke="#63b8ff" points="729.93,-153.63 728.37,-164.11 736.12,-156.89 729.93,-153.63"/>
</a>
</g>
</g>
<!-- Node10 -->
<g id="Node000010" class="node">
<title>Node10</title>
<g id="a_Node000010"><a xlink:href="../../db/d83/_scoped_sequence_8hpp.html" target="_top" xlink:title=" ">
<polygon fill="white" stroke="#666666" points="970.88,-129.75 819.12,-129.75 819.12,-110.5 970.88,-110.5 970.88,-129.75"/>
<text text-anchor="middle" x="895" y="-116.25" font-family="Helvetica,sans-Serif" font-size="10.00">mimic++/ScopedSequence.hpp</text>
</a>
</g>
</g>
<!-- Node9&#45;&gt;Node10 -->
<g id="edge13_Node000009_Node000010" class="edge">
<title>Node9&#45;&gt;Node10</title>
<g id="a_edge13_Node000009_Node000010"><a xlink:title=" ">
<path fill="none" stroke="#63b8ff" d="M774.39,-161.7C805.45,-151.25 843.03,-138.61 867.9,-130.24"/>
<polygon fill="#63b8ff" stroke="#63b8ff" points="773.5,-158.31 765.14,-164.81 775.74,-164.94 773.5,-158.31"/>
</a>
</g>
</g>
<!-- Node10&#45;&gt;Node2 -->
<g id="edge14_Node000010_Node000002" class="edge">
<title>Node10&#45;&gt;Node2</title>
<g id="a_edge14_Node000010_Node000002"><a xlink:title=" ">
<path fill="none" stroke="#63b8ff" d="M910.8,-101.68C921.42,-87.79 931.56,-68.54 920,-55.25 886.74,-17.01 740.67,-10.55 658.2,-10.04"/>
<polygon fill="#63b8ff" stroke="#63b8ff" points="908.3,-99.21 904.59,-109.13 913.68,-103.69 908.3,-99.21"/>
</a>
</g>
</g>
<!-- Node11&#45;&gt;Node2 -->
<g id="edge25_Node000011_Node000002" class="edge">
<title>Node11&#45;&gt;Node2</title>
<g id="a_edge25_Node000011_Node000002"><a xlink:title=" ">
<path fill="none" stroke="#63b8ff" d="M705.9,-355.39C692.6,-332.12 672.6,-295.68 658,-262.75 632.65,-205.57 629,-189.94 612,-129.75 605.14,-105.47 601.91,-99.56 599,-74.5 598.01,-66 598.81,-63.8 599,-55.25 599.28,-42.84 599.99,-28.51 600.48,-19.51"/>
<polygon fill="#63b8ff" stroke="#63b8ff" points="702.71,-356.86 710.73,-363.78 708.77,-353.36 702.71,-356.86"/>
</a>
</g>
</g>
<!-- Node12 -->
<g id="Node000012" class="node">
<title>Node12</title>
<g id="a_Node000012"><a xlink:href="../../d4/d1e/_owner_8hpp.html" target="_top" xlink:title=" ">
<polygon fill="white" stroke="#666666" points="773.38,-262.75 666.62,-262.75 666.62,-232.25 773.38,-232.25 773.38,-262.75"/>
<text text-anchor="start" x="674.62" y="-249.25" font-family="Helvetica,sans-Serif" font-size="10.00">mimic++/expectation</text>
<text text-anchor="middle" x="720" y="-238" font-family="Helvetica,sans-Serif" font-size="10.00">/Owner.hpp</text>
</a>
</g>
</g>
<!-- Node11&#45;&gt;Node12 -->
<g id="edge17_Node000011_Node000012" class="edge">
<title>Node11&#45;&gt;Node12</title>
<g id="a_edge17_Node000011_Node000012"><a xlink:title=" ">
<path fill="none" stroke="#63b8ff" d="M720,-353.68C720,-326.59 720,-284.96 720,-263.08"/>
<polygon fill="#63b8ff" stroke="#63b8ff" points="716.5,-353.47 720,-363.47 723.5,-353.47 716.5,-353.47"/>
</a>
</g>
</g>
<!-- Node13 -->
<g id="Node000013" class="node">
<title>Node13</title>
<g id="a_Node000013"><a xlink:href="../../db/d5d/_registry_8hpp.html" target="_top" xlink:title=" ">
<polygon fill="white" stroke="#666666" points="935.38,-329.25 828.62,-329.25 828.62,-298.75 935.38,-298.75 935.38,-329.25"/>
<text text-anchor="start" x="836.62" y="-315.75" font-family="Helvetica,sans-Serif" font-size="10.00">mimic++/expectation</text>
<text text-anchor="middle" x="882" y="-304.5" font-family="Helvetica,sans-Serif" font-size="10.00">/Registry.hpp</text>
</a>
</g>
</g>
<!-- Node11&#45;&gt;Node13 -->
<g id="edge20_Node000011_Node000013" class="edge">
<title>Node11&#45;&gt;Node13</title>
<g id="a_edge20_Node000011_Node000013"><a xlink:title=" ">
<path fill="none" stroke="#63b8ff" d="M767.39,-360.63C792.18,-350.76 822.07,-338.86 845.11,-329.69"/>
<polygon fill="#63b8ff" stroke="#63b8ff" points="766.16,-357.35 758.17,-364.3 768.75,-363.86 766.16,-357.35"/>
</a>
</g>
</g>
<!-- Node12&#45;&gt;Node2 -->
<g id="edge19_Node000012_Node000002" class="edge">
<title>Node12&#45;&gt;Node2</title>
<g id="a_edge19_Node000012_Node000002"><a xlink:title=" ">
<path fill="none" stroke="#63b8ff" d="M687.68,-225.18C677.19,-217.07 666.16,-207.14 658,-196.25 622.81,-149.31 621.24,-131.41 607,-74.5 602.19,-55.27 601.17,-31.9 600.99,-19.44"/>
<polygon fill="#63b8ff" stroke="#63b8ff" points="685.33,-227.79 695.46,-230.91 689.48,-222.16 685.33,-227.79"/>
</a>
</g>
</g>
<!-- Node12&#45;&gt;Node9 -->
<g id="edge18_Node000012_Node000009" class="edge">
<title>Node12&#45;&gt;Node9</title>
<g id="a_edge18_Node000012_Node000009"><a xlink:title=" ">
<path fill="none" stroke="#63b8ff" d="M720,-220.56C720,-212.39 720,-203.66 720,-196.58"/>
<polygon fill="#63b8ff" stroke="#63b8ff" points="716.5,-220.35 720,-230.35 723.5,-220.35 716.5,-220.35"/>
</a>
</g>
</g>
<!-- Node13&#45;&gt;Node2 -->
<g id="edge24_Node000013_Node000002" class="edge">
<title>Node13&#45;&gt;Node2</title>
<g id="a_edge24_Node000013_Node000002"><a xlink:title=" ">
<path fill="none" stroke="#63b8ff" d="M896.93,-288.7C922.25,-246.93 971.71,-162.82 980,-129.75 989.29,-92.67 970.16,-74.27 937,-55.25 890.68,-28.68 741.14,-17.35 658.04,-13.01"/>
<polygon fill="#63b8ff" stroke="#63b8ff" points="894.05,-286.7 891.84,-297.06 900.03,-290.34 894.05,-286.7"/>
</a>
</g>
</g>
<!-- Node13&#45;&gt;Node5 -->
<g id="edge21_Node000013_Node000005" class="edge">
<title>Node13&#45;&gt;Node5</title>
<g id="a_edge21_Node000013_Node000005"><a xlink:title=" ">
<path fill="none" stroke="#63b8ff" d="M875.08,-287.85C865.54,-256.6 845.92,-202.88 815,-165.75 802.26,-150.45 783.05,-138.01 769,-130.18"/>
<polygon fill="#63b8ff" stroke="#63b8ff" points="871.65,-288.58 877.82,-297.19 878.37,-286.61 871.65,-288.58"/>
</a>
</g>
</g>
<!-- Node13&#45;&gt;Node9 -->
<g id="edge22_Node000013_Node000009" class="edge">
<title>Node13&#45;&gt;Node9</title>
<g id="a_edge22_Node000013_Node000009"><a xlink:title=" ">
<path fill="none" stroke="#63b8ff" d="M855.34,-291.44C822.2,-264.64 766.55,-219.64 738.04,-196.58"/>
<polygon fill="#63b8ff" stroke="#63b8ff" points="852.89,-293.96 862.87,-297.53 857.29,-288.52 852.89,-293.96"/>
</a>
</g>
</g>
<!-- Node13&#45;&gt;Node12 -->
<g id="edge23_Node000013_Node000012" class="edge">
<title>Node13&#45;&gt;Node12</title>
<g id="a_edge23_Node000013_Node000012"><a xlink:title=" ">
<path fill="none" stroke="#63b8ff" d="M834.61,-294.13C809.82,-284.26 779.93,-272.36 756.89,-263.19"/>
<polygon fill="#63b8ff" stroke="#63b8ff" points="833.25,-297.36 843.83,-297.8 835.84,-290.85 833.25,-297.36"/>
</a>
</g>
</g>
<!-- Node14&#45;&gt;Node2 -->
<g id="edge30_Node000014_Node000002" class="edge">
<title>Node14&#45;&gt;Node2</title>
<g id="a_edge30_Node000014_Node000002"><a xlink:title=" ">
<path fill="none" stroke="#63b8ff" d="M309.72,-287.32C313.44,-270.89 319.58,-249.5 329,-232.25 339.12,-213.72 349.81,-214.74 360,-196.25 391.61,-138.86 354.98,-99.82 403,-55.25 423.27,-36.43 493.15,-23.91 544.16,-17.04"/>
<polygon fill="#63b8ff" stroke="#63b8ff" points="306.36,-286.29 307.75,-296.8 313.22,-287.72 306.36,-286.29"/>
</a>
</g>
</g>
<!-- Node15 -->
<g id="Node000015" class="node">
<title>Node15</title>
<g id="a_Node000015"><a xlink:href="../../d1/d42/_arg_requirement_policies_8hpp.html" target="_top" xlink:title=" ">
<polygon fill="white" stroke="#666666" points="534.5,-262.75 371.5,-262.75 371.5,-232.25 534.5,-232.25 534.5,-262.75"/>
<text text-anchor="start" x="379.5" y="-249.25" font-family="Helvetica,sans-Serif" font-size="10.00">mimic++/policies/ArgRequirement</text>
<text text-anchor="middle" x="453" y="-238" font-family="Helvetica,sans-Serif" font-size="10.00">Policies.hpp</text>
</a>
</g>
</g>
<!-- Node14&#45;&gt;Node15 -->
<g id="edge31_Node000014_Node000015" class="edge">
<title>Node14&#45;&gt;Node15</title>
<g id="a_edge31_Node000014_Node000015"><a xlink:title=" ">
<path fill="none" stroke="#63b8ff" d="M348.9,-293.87C371.43,-284.05 398.43,-272.28 419.29,-263.19"/>
<polygon fill="#63b8ff" stroke="#63b8ff" points="347.74,-290.56 339.97,-297.76 350.54,-296.97 347.74,-290.56"/>
</a>
</g>
</g>
<!-- Node16 -->
<g id="Node000016" class="node">
<title>Node16</title>
<g id="a_Node000016"><a xlink:href="../../d3/da3/_finalizer_policies_8hpp.html" target="_top" xlink:title=" ">
<polygon fill="white" stroke="#666666" points="195.62,-196.25 66.38,-196.25 66.38,-165.75 195.62,-165.75 195.62,-196.25"/>
<text text-anchor="start" x="74.38" y="-182.75" font-family="Helvetica,sans-Serif" font-size="10.00">mimic++/policies/Finalizer</text>
<text text-anchor="middle" x="131" y="-171.5" font-family="Helvetica,sans-Serif" font-size="10.00">Policies.hpp</text>
</a>
</g>
</g>
<!-- Node14&#45;&gt;Node16 -->
<g id="edge34_Node000014_Node000016" class="edge">
<title>Node14&#45;&gt;Node16</title>
<g id="a_edge34_Node000014_Node000016"><a xlink:title=" ">
<path fill="none" stroke="#63b8ff" d="M276.82,-291.78C241.28,-265.03 181.13,-219.74 150.37,-196.58"/>
<polygon fill="#63b8ff" stroke="#63b8ff" points="274.41,-294.35 284.5,-297.57 278.62,-288.76 274.41,-294.35"/>
</a>
</g>
</g>
<!-- Node17 -->
<g id="Node000017" class="node">
<title>Node17</title>
<g id="a_Node000017"><a xlink:href="../../dc/d18/_side_effect_policies_8hpp.html" target="_top" xlink:title=" ">
<polygon fill="white" stroke="#666666" points="350.75,-196.25 213.25,-196.25 213.25,-165.75 350.75,-165.75 350.75,-196.25"/>
<text text-anchor="start" x="221.25" y="-182.75" font-family="Helvetica,sans-Serif" font-size="10.00">mimic++/policies/SideEffect</text>
<text text-anchor="middle" x="282" y="-171.5" font-family="Helvetica,sans-Serif" font-size="10.00">Policies.hpp</text>
</a>
</g>
</g>
<!-- Node14&#45;&gt;Node17 -->
<g id="edge36_Node000014_Node000017" class="edge">
<title>Node14&#45;&gt;Node17</title>
<g id="a_edge36_Node000014_Node000017"><a xlink:title=" ">
<path fill="none" stroke="#63b8ff" d="M297.13,-287.81C294.87,-279.86 292.6,-270.99 291,-262.75 286.57,-239.9 284.11,-212.96 282.93,-196.69"/>
<polygon fill="#63b8ff" stroke="#63b8ff" points="293.71,-288.59 299.9,-297.18 300.42,-286.6 293.71,-288.59"/>
</a>
</g>
</g>
<!-- Node15&#45;&gt;Node2 -->
<g id="edge33_Node000015_Node000002" class="edge">
<title>Node15&#45;&gt;Node2</title>
<g id="a_edge33_Node000015_Node000002"><a xlink:title=" ">
<path fill="none" stroke="#63b8ff" d="M454.44,-220.62C457.95,-180.72 469.95,-103.74 511,-55.25 525.76,-37.81 548.98,-26.54 568.14,-19.68"/>
<polygon fill="#63b8ff" stroke="#63b8ff" points="450.96,-220.22 453.71,-230.45 457.95,-220.74 450.96,-220.22"/>
</a>
</g>
</g>
<!-- Node15&#45;&gt;Node9 -->
<g id="edge32_Node000015_Node000009" class="edge">
<title>Node15&#45;&gt;Node9</title>
<g id="a_edge32_Node000015_Node000009"><a xlink:title=" ">
<path fill="none" stroke="#63b8ff" d="M524.95,-229.12C569.41,-218.38 625.51,-204.83 666.13,-195.01"/>
<polygon fill="#63b8ff" stroke="#63b8ff" points="524.29,-225.68 515.39,-231.43 525.93,-232.48 524.29,-225.68"/>
</a>
</g>
</g>
<!-- Node16&#45;&gt;Node2 -->
<g id="edge35_Node000016_Node000002" class="edge">
<title>Node16&#45;&gt;Node2</title>
<g id="a_edge35_Node000016_Node000002"><a xlink:title=" ">
<path fill="none" stroke="#63b8ff" d="M158.83,-158.64C197.18,-130.33 269.47,-80.98 339,-55.25 406.83,-30.15 489.82,-19.05 543.98,-14.23"/>
<polygon fill="#63b8ff" stroke="#63b8ff" points="156.96,-155.66 151.04,-164.45 161.15,-161.27 156.96,-155.66"/>
</a>
</g>
</g>
<!-- Node17&#45;&gt;Node2 -->
<g id="edge37_Node000017_Node000002" class="edge">
<title>Node17&#45;&gt;Node2</title>
<g id="a_edge37_Node000017_Node000002"><a xlink:title=" ">
<path fill="none" stroke="#63b8ff" d="M291.63,-154.79C304.03,-125.91 328.44,-79.48 365,-55.25 393.72,-36.22 483.7,-23.16 543.88,-16.3"/>
<polygon fill="#63b8ff" stroke="#63b8ff" points="288.46,-153.29 287.9,-163.87 294.94,-155.95 288.46,-153.29"/>
</a>
</g>
</g>
<!-- Node19 -->
<g id="Node000019" class="node">
<title>Node19</title>
<g id="a_Node000019"><a xlink:href="../../d7/deb/_reporting_8hpp.html" target="_top" xlink:title=" ">
<polygon fill="white" stroke="#666666" points="1198.25,-390.12 1081.75,-390.12 1081.75,-370.88 1198.25,-370.88 1198.25,-390.12"/>
<text text-anchor="middle" x="1140" y="-376.62" font-family="Helvetica,sans-Serif" font-size="10.00">mimic++/Reporting.hpp</text>
</a>
</g>
</g>
<!-- Node18&#45;&gt;Node19 -->
<g id="edge39_Node000018_Node000019" class="edge">
<title>Node18&#45;&gt;Node19</title>
<g id="a_edge39_Node000018_Node000019"><a xlink:title=" ">
<path fill="none" stroke="#63b8ff" d="M900.35,-620.71C888.71,-591.77 872.05,-536.26 896,-498.25 899.3,-493.01 1062.92,-417.1 1120.34,-390.57"/>
<polygon fill="#63b8ff" stroke="#63b8ff" points="897.02,-621.83 904.17,-629.66 903.46,-619.08 897.02,-621.83"/>
</a>
</g>
</g>
<!-- Node20 -->
<g id="Node000020" class="node">
<title>Node20</title>
<g id="a_Node000020"><a xlink:href="../../d1/dfd/_basic_reporter_8hpp.html" target="_top" xlink:title=" ">
<polygon fill="white" stroke="#666666" points="1228.62,-523.12 1051.38,-523.12 1051.38,-503.88 1228.62,-503.88 1228.62,-523.12"/>
<text text-anchor="middle" x="1140" y="-509.62" font-family="Helvetica,sans-Serif" font-size="10.00">mimic++/reporting/BasicReporter.hpp</text>
</a>
</g>
</g>
<!-- Node18&#45;&gt;Node20 -->
<g id="edge41_Node000018_Node000020" class="edge">
<title>Node18&#45;&gt;Node20</title>
<g id="a_edge41_Node000018_Node000020"><a xlink:title=" ">
<path fill="none" stroke="#63b8ff" d="M920.31,-621.3C931.63,-604.23 950.55,-579.42 973,-564.75 1005.7,-543.39 1047.85,-530.79 1081.62,-523.56"/>
<polygon fill="#63b8ff" stroke="#63b8ff" points="917.52,-619.18 915.1,-629.49 923.42,-622.94 917.52,-619.18"/>
</a>
</g>
</g>
<!-- Node21 -->
<g id="Node000021" class="node">
<title>Node21</title>
<g id="a_Node000021"><a xlink:href="../../d0/d70/_default_reporter_8hpp.html" target="_top" xlink:title=" ">
<polygon fill="white" stroke="#666666" points="1033.25,-528.75 904.75,-528.75 904.75,-498.25 1033.25,-498.25 1033.25,-528.75"/>
<text text-anchor="start" x="912.75" y="-515.25" font-family="Helvetica,sans-Serif" font-size="10.00">mimic++/reporting/Default</text>
<text text-anchor="middle" x="969" y="-504" font-family="Helvetica,sans-Serif" font-size="10.00">Reporter.hpp</text>
</a>
</g>
</g>
<!-- Node18&#45;&gt;Node21 -->
<g id="edge43_Node000018_Node000021" class="edge">
<title>Node18&#45;&gt;Node21</title>
<g id="a_edge43_Node000018_Node000021"><a xlink:title=" ">
<path fill="none" stroke="#63b8ff" d="M915.92,-620.11C921.53,-604.74 929.96,-583.03 939,-564.75 945.12,-552.36 953.21,-538.95 959.44,-529.11"/>
<polygon fill="#63b8ff" stroke="#63b8ff" points="912.64,-618.87 912.58,-629.46 919.24,-621.22 912.64,-618.87"/>
</a>
</g>
</g>
<!-- Node22 -->
<g id="Node000022" class="node">
<title>Node22</title>
<g id="a_Node000022"><a xlink:href="../../de/dd1/_global_reporter_8hpp.html" target="_top" xlink:title=" ">
<polygon fill="white" stroke="#666666" points="954.75,-462.25 829.25,-462.25 829.25,-431.75 954.75,-431.75 954.75,-462.25"/>
<text text-anchor="start" x="837.25" y="-448.75" font-family="Helvetica,sans-Serif" font-size="10.00">mimic++/reporting/Global</text>
<text text-anchor="middle" x="892" y="-437.5" font-family="Helvetica,sans-Serif" font-size="10.00">Reporter.hpp</text>
</a>
</g>
</g>
<!-- Node18&#45;&gt;Node22 -->
<g id="edge55_Node000018_Node000022" class="edge">
<title>Node18&#45;&gt;Node22</title>
<g id="a_edge55_Node000018_Node000022"><a xlink:title=" ">
<path fill="none" stroke="#63b8ff" d="M885.8,-623.85C876.91,-616.32 867.76,-606.51 863,-595.25 846.2,-555.55 851.85,-539.89 863,-498.25 866.49,-485.21 874.27,-472.06 880.9,-462.48"/>
<polygon fill="#63b8ff" stroke="#63b8ff" points="883.54,-626.53 893.58,-629.92 887.84,-621.01 883.54,-626.53"/>
</a>
</g>
</g>
<!-- Node18&#45;&gt;Node25 -->
<g id="edge56_Node000018_Node000025" class="edge">
<title>Node18&#45;&gt;Node25</title>
<g id="a_edge56_Node000018_Node000025"><a xlink:title=" ">
<path fill="none" stroke="#63b8ff" d="M940.72,-626.44C962.37,-617.27 991.05,-605.12 1013.31,-595.69"/>
<polygon fill="#63b8ff" stroke="#63b8ff" points="939.65,-623.09 931.81,-630.21 942.38,-629.54 939.65,-623.09"/>
</a>
</g>
</g>
<!-- Node19&#45;&gt;Node2 -->
<g id="edge40_Node000019_Node000002" class="edge">
<title>Node19&#45;&gt;Node2</title>
<g id="a_edge40_Node000019_Node000002"><a xlink:title=" ">
<path fill="none" stroke="#63b8ff" d="M1147.71,-359.75C1156.89,-334.4 1171,-288.87 1171,-248.5 1171,-248.5 1171,-248.5 1171,-119.12 1171,-75.34 1136.37,-72.21 1096,-55.25 1018.24,-22.58 770.56,-13.79 657.84,-11.45"/>
<polygon fill="#63b8ff" stroke="#63b8ff" points="1144.45,-358.45 1144.21,-369.05 1151.01,-360.92 1144.45,-358.45"/>
</a>
</g>
</g>
<!-- Node20&#45;&gt;Node19 -->
<g id="edge42_Node000020_Node000019" class="edge">
<title>Node20&#45;&gt;Node19</title>
<g id="a_edge42_Node000020_Node000019"><a xlink:title=" ">
<path fill="none" stroke="#63b8ff" d="M1140,-492.37C1140,-463.49 1140,-411.48 1140,-390.57"/>
<polygon fill="#63b8ff" stroke="#63b8ff" points="1136.5,-491.98 1140,-501.98 1143.5,-491.98 1136.5,-491.98"/>
</a>
</g>
</g>
<!-- Node21&#45;&gt;Node19 -->
<g id="edge44_Node000021_Node000019" class="edge">
<title>Node21&#45;&gt;Node19</title>
<g id="a_edge44_Node000021_Node000019"><a xlink:title=" ">
<path fill="none" stroke="#63b8ff" d="M996.96,-491.08C1034.94,-461.98 1101.2,-411.22 1128.12,-390.6"/>
<polygon fill="#63b8ff" stroke="#63b8ff" points="994.96,-488.2 989.15,-497.06 999.22,-493.76 994.96,-488.2"/>
</a>
</g>
</g>
<!-- Node21&#45;&gt;Node22 -->
<g id="edge45_Node000021_Node000022" class="edge">
<title>Node21&#45;&gt;Node22</title>
<g id="a_edge45_Node000021_Node000022"><a xlink:title=" ">
<path fill="none" stroke="#63b8ff" d="M942.73,-490.49C931.72,-481.28 919.24,-470.81 909.4,-462.58"/>
<polygon fill="#63b8ff" stroke="#63b8ff" points="940.45,-493.15 950.37,-496.89 944.95,-487.79 940.45,-493.15"/>
</a>
</g>
</g>
<!-- Node22&#45;&gt;Node13 -->
<g id="edge54_Node000022_Node000013" class="edge">
<title>Node22&#45;&gt;Node13</title>
<g id="a_edge54_Node000022_Node000013"><a xlink:title=" ">
<path fill="none" stroke="#63b8ff" d="M890.03,-420.18C887.96,-393.09 884.78,-351.46 883.11,-329.58"/>
<polygon fill="#63b8ff" stroke="#63b8ff" points="886.53,-420.27 890.78,-429.97 893.51,-419.73 886.53,-420.27"/>
</a>
</g>
</g>
<!-- Node22&#45;&gt;Node19 -->
<g id="edge46_Node000022_Node000019" class="edge">
<title>Node22&#45;&gt;Node19</title>
<g id="a_edge46_Node000022_Node000019"><a xlink:title=" ">
<path fill="none" stroke="#63b8ff" d="M959.62,-428.41C1006.66,-416.18 1067.46,-400.37 1105.09,-390.58"/>
<polygon fill="#63b8ff" stroke="#63b8ff" points="958.85,-425 950.05,-430.9 960.61,-431.77 958.85,-425"/>
</a>
</g>
</g>
<!-- Node23 -->
<g id="Node000023" class="node">
<title>Node23</title>
<g id="a_Node000023"><a xlink:href="../../d8/de4/_sequence_8hpp.html" target="_top" xlink:title=" ">
<polygon fill="white" stroke="#666666" points="1063.38,-390.12 944.62,-390.12 944.62,-370.88 1063.38,-370.88 1063.38,-390.12"/>
<text text-anchor="middle" x="1004" y="-376.62" font-family="Helvetica,sans-Serif" font-size="10.00">mimic++/Sequence.hpp</text>
</a>
</g>
</g>
<!-- Node22&#45;&gt;Node23 -->
<g id="edge47_Node000022_Node000023" class="edge">
<title>Node22&#45;&gt;Node23</title>
<g id="a_edge47_Node000022_Node000023"><a xlink:title=" ">
<path fill="none" stroke="#63b8ff" d="M927.37,-425.63C947.86,-413.83 972.63,-399.56 988.36,-390.51"/>
<polygon fill="#63b8ff" stroke="#63b8ff" points="925.65,-422.59 918.73,-430.61 929.14,-428.65 925.65,-422.59"/>
</a>
</g>
</g>
<!-- Node23&#45;&gt;Node2 -->
<g id="edge50_Node000023_Node000002" class="edge">
<title>Node23&#45;&gt;Node2</title>
<g id="a_edge50_Node000023_Node000002"><a xlink:title=" ">
<path fill="none" stroke="#63b8ff" d="M1034.54,-365.25C1072.69,-345.08 1133,-304.37 1133,-248.5 1133,-248.5 1133,-248.5 1133,-119.12 1133,-23.04 795.59,-11.18 658.19,-10.34"/>
<polygon fill="#63b8ff" stroke="#63b8ff" points="1033.12,-362.04 1025.79,-369.7 1036.29,-368.28 1033.12,-362.04"/>
</a>
</g>
</g>
<!-- Node23&#45;&gt;Node10 -->
<g id="edge48_Node000023_Node000010" class="edge">
<title>Node23&#45;&gt;Node10</title>
<g id="a_edge48_Node000023_Node000010"><a xlink:title=" ">
<path fill="none" stroke="#63b8ff" d="M1022.68,-363.16C1051.76,-335.66 1101.94,-278.61 1076,-232.25 1044.22,-175.45 970.23,-144.15 927.33,-130.19"/>
<polygon fill="#63b8ff" stroke="#63b8ff" points="1020.57,-360.34 1015.56,-369.68 1025.3,-365.51 1020.57,-360.34"/>
</a>
</g>
</g>
<!-- Node23&#45;&gt;Node13 -->
<g id="edge49_Node000023_Node000013" class="edge">
<title>Node23&#45;&gt;Node13</title>
<g id="a_edge49_Node000023_Node000013"><a xlink:title=" ">
<path fill="none" stroke="#63b8ff" d="M976.74,-365.09C956.7,-354.49 929.57,-340.15 909.48,-329.53"/>
<polygon fill="#63b8ff" stroke="#63b8ff" points="974.96,-368.11 985.44,-369.69 978.24,-361.92 974.96,-368.11"/>
</a>
</g>
</g>
<!-- Node24 -->
<g id="Node000024" class="node">
<title>Node24</title>
<g id="a_Node000024"><a xlink:href="../../db/d70/_control_policies_8hpp.html" target="_top" xlink:title=" ">
<polygon fill="white" stroke="#666666" points="1067,-262.75 943,-262.75 943,-232.25 1067,-232.25 1067,-262.75"/>
<text text-anchor="start" x="951" y="-249.25" font-family="Helvetica,sans-Serif" font-size="10.00">mimic++/policies/Control</text>
<text text-anchor="middle" x="1005" y="-238" font-family="Helvetica,sans-Serif" font-size="10.00">Policies.hpp</text>
</a>
</g>
</g>
<!-- Node23&#45;&gt;Node24 -->
<g id="edge51_Node000023_Node000024" class="edge">
<title>Node23&#45;&gt;Node24</title>
<g id="a_edge51_Node000023_Node000024"><a xlink:title=" ">
<path fill="none" stroke="#63b8ff" d="M1004.16,-359.15C1004.36,-332.48 1004.71,-286.35 1004.89,-262.97"/>
<polygon fill="#63b8ff" stroke="#63b8ff" points="1000.66,-358.96 1004.08,-368.98 1007.66,-359.01 1000.66,-358.96"/>
</a>
</g>
</g>
<!-- Node24&#45;&gt;Node2 -->
<g id="edge53_Node000024_Node000002" class="edge">
<title>Node24&#45;&gt;Node2</title>
<g id="a_edge53_Node000024_Node000002"><a xlink:title=" ">
<path fill="none" stroke="#63b8ff" d="M1015.94,-221.19C1031.56,-180.64 1054.1,-101.04 1013,-55.25 989.72,-29.32 765.69,-17.08 658.11,-12.66"/>
<polygon fill="#63b8ff" stroke="#63b8ff" points="1012.74,-219.77 1012.25,-230.35 1019.23,-222.39 1012.74,-219.77"/>
</a>
</g>
</g>
<!-- Node24&#45;&gt;Node9 -->
<g id="edge52_Node000024_Node000009" class="edge">
<title>Node24&#45;&gt;Node9</title>
<g id="a_edge52_Node000024_Node000009"><a xlink:title=" ">
<path fill="none" stroke="#63b8ff" d="M931.85,-229.94C882.37,-218.75 818.14,-204.21 773.43,-194.09"/>
<polygon fill="#63b8ff" stroke="#63b8ff" points="930.81,-233.3 941.33,-232.09 932.35,-226.47 930.81,-233.3"/>
</a>
</g>
</g>
<!-- Node25&#45;&gt;Node19 -->
<g id="edge57_Node000025_Node000019" class="edge">
<title>Node25&#45;&gt;Node19</title>
<g id="a_edge57_Node000025_Node000019"><a xlink:title=" ">
<path fill="none" stroke="#63b8ff" d="M1125.92,-568.14C1171.97,-559.95 1223.96,-546.98 1238,-528.75 1276.5,-478.75 1190.04,-414.14 1154.43,-390.59"/>
<polygon fill="#63b8ff" stroke="#63b8ff" points="1125.43,-564.68 1116.17,-569.82 1126.62,-571.57 1125.43,-564.68"/>
</a>
</g>
</g>
<!-- Node25&#45;&gt;Node20 -->
<g id="edge58_Node000025_Node000020" class="edge">
<title>Node25&#45;&gt;Node20</title>
<g id="a_edge58_Node000025_Node000020"><a xlink:title=" ">
<path fill="none" stroke="#63b8ff" d="M1078.21,-557.82C1094.81,-546.18 1114.53,-532.36 1127.15,-523.51"/>
<polygon fill="#63b8ff" stroke="#63b8ff" points="1076.29,-554.89 1070.12,-563.5 1080.31,-560.62 1076.29,-554.89"/>
</a>
</g>
</g>
<!-- Node25&#45;&gt;Node21 -->
<g id="edge59_Node000025_Node000021" class="edge">
<title>Node25&#45;&gt;Node21</title>
<g id="a_edge59_Node000025_Node000021"><a xlink:title=" ">
<path fill="none" stroke="#63b8ff" d="M1021.38,-557.27C1010.01,-547.98 997.04,-537.4 986.86,-529.08"/>
<polygon fill="#63b8ff" stroke="#63b8ff" points="1018.94,-559.79 1028.9,-563.41 1023.37,-554.37 1018.94,-559.79"/>
</a>
</g>
</g>
<!-- Node26&#45;&gt;Node2 -->
<g id="edge62_Node000026_Node000002" class="edge">
<title>Node26&#45;&gt;Node2</title>
<g id="a_edge62_Node000026_Node000002"><a xlink:title=" ">
<path fill="none" stroke="#63b8ff" d="M1225.83,-624.09C1252.75,-602.61 1295,-561.42 1295,-514.5 1295,-514.5 1295,-514.5 1295,-119.12 1295,-42.14 1208.94,-72.85 1134,-55.25 964.05,-15.35 756.26,-9.99 657.87,-9.95"/>
<polygon fill="#63b8ff" stroke="#63b8ff" points="1224.03,-621.05 1218.24,-629.92 1228.3,-626.6 1224.03,-621.05"/>
</a>
</g>
</g>
</g>
</svg>
