<?xml version="1.0" encoding="UTF-8" standalone="no"?>
<!DOCTYPE svg PUBLIC "-//W3C//DTD SVG 1.1//EN"
 "http://www.w3.org/Graphics/SVG/1.1/DTD/svg11.dtd">
<!-- Generated by graphviz version 12.2.1 (20241206.2353)
 -->
<!-- Title: mimicpp::LifetimeWatcher::LifetimeWatcher Pages: 1 -->
<svg width="301pt" height="186pt"
 viewBox="0.00 0.00 301.00 185.50" xmlns="http://www.w3.org/2000/svg" xmlns:xlink="http://www.w3.org/1999/xlink">

<svg id="main" version="1.1" xmlns="http://www.w3.org/2000/svg" xmlns:xlink="http://www.w3.org/1999/xlink" xml:space="preserve">

<style type="text/css"><![CDATA[
.node, .edge {opacity: 0.7;}
.node.selected, .edge.selected {opacity: 1;}
.edge:hover path { stroke: red; }
.edge:hover polygon { stroke: red; fill: red; }
]]></style>
<script type="application/ecmascript" xlink:href="../../svg.min.js"/>
<svg id="graph" class="graph">
<g id="graph0" class="graph" transform="scale(1 1) rotate(0) translate(4 181.5)">
<title>mimicpp::LifetimeWatcher::LifetimeWatcher</title>
<!-- Node1 -->
<g id="Node000001" class="node">
<title>Node1</title>
<g id="a_Node000001"><a xlink:title="Defaulted default constructor.">
<polygon fill="#999999" stroke="#666666" points="293,-103.5 164.5,-103.5 164.5,-73 293,-73 293,-103.5"/>
<text text-anchor="start" x="172.5" y="-90" font-family="Helvetica,sans-Serif" font-size="10.00">mimicpp::LifetimeWatcher</text>
<text text-anchor="middle" x="228.75" y="-78.75" font-family="Helvetica,sans-Serif" font-size="10.00">::LifetimeWatcher</text>
</a>
</g>
</g>
<!-- Node2 -->
<g id="Node000002" class="node">
<title>Node2</title>
<g id="a_Node000002"><a xlink:href="../../db/d98/classmimicpp_1_1_lifetime_watcher.html#a742de5eca9a842181e342e5590f1d0d3" target="_top" xlink:title="Copy&#45;constructor.">
<polygon fill="white" stroke="#666666" points="128.5,-177.5 0,-177.5 0,-147 128.5,-147 128.5,-177.5"/>
<text text-anchor="start" x="8" y="-164" font-family="Helvetica,sans-Serif" font-size="10.00">mimicpp::LifetimeWatcher</text>
<text text-anchor="middle" x="64.25" y="-152.75" font-family="Helvetica,sans-Serif" font-size="10.00">::LifetimeWatcher</text>
</a>
</g>
</g>
<!-- Node1&#45;&gt;Node2 -->
<g id="edge1_Node000001_Node000002" class="edge">
<title>Node1&#45;&gt;Node2</title>
<g id="a_edge1_Node000001_Node000002"><a xlink:title=" ">
<path fill="none" stroke="#63b8ff" d="M187.55,-109.03C169.64,-118.05 148.18,-128.52 128.5,-137.25 121.38,-140.41 113.72,-143.6 106.28,-146.6"/>
<polygon fill="#63b8ff" stroke="#63b8ff" points="188.96,-112.24 196.3,-104.6 185.8,-106 188.96,-112.24"/>
</a>
</g>
</g>
<!-- Node3 -->
<g id="Node000003" class="node">
<title>Node3</title>
<g id="a_Node000003"><a xlink:href="../../db/d98/classmimicpp_1_1_lifetime_watcher.html#a884ad5d536259e2c6cd3881a3f8eee74" target="_top" xlink:title="Defaulted move&#45;constructor.">
<polygon fill="white" stroke="#666666" points="128.5,-128.5 0,-128.5 0,-98 128.5,-98 128.5,-128.5"/>
<text text-anchor="start" x="8" y="-115" font-family="Helvetica,sans-Serif" font-size="10.00">mimicpp::LifetimeWatcher</text>
<text text-anchor="middle" x="64.25" y="-103.75" font-family="Helvetica,sans-Serif" font-size="10.00">::LifetimeWatcher</text>
</a>
</g>
</g>
<!-- Node1&#45;&gt;Node3 -->
<g id="edge2_Node000001_Node000003" class="edge">
<title>Node1&#45;&gt;Node3</title>
<g id="a_edge2_Node000001_Node000003"><a xlink:title=" ">
<path fill="none" stroke="#63b8ff" d="M153.11,-99.73C145.02,-100.98 136.85,-102.24 128.9,-103.46"/>
<polygon fill="#63b8ff" stroke="#63b8ff" points="153.61,-103.2 162.96,-98.22 152.55,-96.28 153.61,-103.2"/>
</a>
</g>
</g>
<!-- Node4 -->
<g id="Node000004" class="node">
<title>Node4</title>
<g id="a_Node000004"><a xlink:href="../../db/d98/classmimicpp_1_1_lifetime_watcher.html#a7a8dd0a0ac2b42e770f58356cfea66af" target="_top" xlink:title="Copy&#45;assignment&#45;operator.">
<polygon fill="white" stroke="#666666" points="128.5,-79.5 0,-79.5 0,-49 128.5,-49 128.5,-79.5"/>
<text text-anchor="start" x="8" y="-66" font-family="Helvetica,sans-Serif" font-size="10.00">mimicpp::LifetimeWatcher</text>
<text text-anchor="middle" x="64.25" y="-54.75" font-family="Helvetica,sans-Serif" font-size="10.00">::operator=</text>
</a>
</g>
</g>
<!-- Node1&#45;&gt;Node4 -->
<g id="edge3_Node000001_Node000004" class="edge">
<title>Node1&#45;&gt;Node4</title>
<g id="a_edge3_Node000001_Node000004"><a xlink:title=" ">
<path fill="none" stroke="#63b8ff" d="M153.11,-77.23C145.02,-76.03 136.85,-74.82 128.9,-73.65"/>
<polygon fill="#63b8ff" stroke="#63b8ff" points="152.56,-80.68 162.96,-78.68 153.58,-73.76 152.56,-80.68"/>
</a>
</g>
</g>
<!-- Node5 -->
<g id="Node000005" class="node">
<title>Node5</title>
<g id="a_Node000005"><a xlink:href="../../db/d98/classmimicpp_1_1_lifetime_watcher.html#a5e426a85357e527476ef9edf9cf6c5fc" target="_top" xlink:title="Defaulted move&#45;assignment&#45;operator.">
<polygon fill="white" stroke="#666666" points="128.5,-30.5 0,-30.5 0,0 128.5,0 128.5,-30.5"/>
<text text-anchor="start" x="8" y="-17" font-family="Helvetica,sans-Serif" font-size="10.00">mimicpp::LifetimeWatcher</text>
<text text-anchor="middle" x="64.25" y="-5.75" font-family="Helvetica,sans-Serif" font-size="10.00">::operator=</text>
</a>
</g>
</g>
<!-- Node1&#45;&gt;Node5 -->
<g id="edge4_Node000001_Node000005" class="edge">
<title>Node1&#45;&gt;Node5</title>
<g id="a_edge4_Node000001_Node000005"><a xlink:title=" ">
<path fill="none" stroke="#63b8ff" d="M186.71,-67.56C168.95,-58.82 147.84,-48.74 128.5,-40.25 121.36,-37.12 113.7,-33.94 106.26,-30.95"/>
<polygon fill="#63b8ff" stroke="#63b8ff" points="184.86,-70.55 195.38,-71.85 187.97,-64.28 184.86,-70.55"/>
</a>
</g>
</g>
</g>
</svg>
</svg>

<style type='text/css'>
<![CDATA[
[data-mouse-over-selected='false'] { opacity: 0.7; }
[data-mouse-over-selected='true']  { opacity: 1.0; }
]]>
</style>
<script type="application/ecmascript"><![CDATA[
document.addEventListener('DOMContentLoaded', (event) => {
  highlightEdges();
  highlightAdjacentNodes();
});
]]></script>
</svg>
