<?xml version="1.0" encoding="UTF-8" standalone="no"?>
<!DOCTYPE svg PUBLIC "-//W3C//DTD SVG 1.1//EN"
 "http://www.w3.org/Graphics/SVG/1.1/DTD/svg11.dtd">
<!-- Generated by graphviz version 12.2.1 (20241206.2353)
 -->
<!-- Title: mimic++/policies/ArgumentList.hpp Pages: 1 -->
<svg width="559pt" height="349pt"
 viewBox="0.00 0.00 558.75 348.50" xmlns="http://www.w3.org/2000/svg" xmlns:xlink="http://www.w3.org/1999/xlink">
<g id="graph0" class="graph" transform="scale(1 1) rotate(0) translate(4 344.5)">
<title>mimic++/policies/ArgumentList.hpp</title>
<!-- Node1 -->
<g id="Node000001" class="node">
<title>Node1</title>
<g id="a_Node000001"><a xlink:title=" ">
<polygon fill="#999999" stroke="#666666" points="299.62,-340.5 164.38,-340.5 164.38,-310 299.62,-310 299.62,-340.5"/>
<text text-anchor="start" x="172.38" y="-327" font-family="Helvetica,sans-Serif" font-size="10.00">mimic++/policies/Argument</text>
<text text-anchor="middle" x="232" y="-315.75" font-family="Helvetica,sans-Serif" font-size="10.00">List.hpp</text>
</a>
</g>
</g>
<!-- Node2 -->
<g id="Node000002" class="node">
<title>Node2</title>
<g id="a_Node000002"><a xlink:href="../../d0/db9/mimic_09_09_8hpp.html" target="_top" xlink:title=" ">
<polygon fill="white" stroke="#666666" points="218.75,-19.25 105.25,-19.25 105.25,0 218.75,0 218.75,-19.25"/>
<text text-anchor="middle" x="162" y="-5.75" font-family="Helvetica,sans-Serif" font-size="10.00">mimic++/mimic++.hpp</text>
</a>
</g>
</g>
<!-- Node1&#45;&gt;Node2 -->
<g id="edge1_Node000001_Node000002" class="edge">
<title>Node1&#45;&gt;Node2</title>
<g id="a_edge1_Node000001_Node000002"><a xlink:title=" ">
<path fill="none" stroke="#63b8ff" d="M152.92,-312.81C85.7,-298.1 0,-265.22 0,-193.25 0,-193.25 0,-193.25 0,-124.75 0,-64.72 75.27,-33.5 123.2,-19.71"/>
<polygon fill="#63b8ff" stroke="#63b8ff" points="151.98,-316.19 162.48,-314.8 153.4,-309.34 151.98,-316.19"/>
</a>
</g>
</g>
<!-- Node3 -->
<g id="Node000003" class="node">
<title>Node3</title>
<g id="a_Node000003"><a xlink:href="../../d1/d42/_arg_requirement_policies_8hpp.html" target="_top" xlink:title=" ">
<polygon fill="white" stroke="#666666" points="258.5,-274 95.5,-274 95.5,-243.5 258.5,-243.5 258.5,-274"/>
<text text-anchor="start" x="103.5" y="-260.5" font-family="Helvetica,sans-Serif" font-size="10.00">mimic++/policies/ArgRequirement</text>
<text text-anchor="middle" x="177" y="-249.25" font-family="Helvetica,sans-Serif" font-size="10.00">Policies.hpp</text>
</a>
</g>
</g>
<!-- Node1&#45;&gt;Node3 -->
<g id="edge2_Node000001_Node000003" class="edge">
<title>Node1&#45;&gt;Node3</title>
<g id="a_edge2_Node000001_Node000003"><a xlink:title=" ">
<path fill="none" stroke="#63b8ff" d="M212.29,-301.13C204.66,-292.19 196.17,-282.24 189.43,-274.33"/>
<polygon fill="#63b8ff" stroke="#63b8ff" points="209.39,-303.12 218.54,-308.46 214.71,-298.58 209.39,-303.12"/>
</a>
</g>
</g>
<!-- Node8 -->
<g id="Node000008" class="node">
<title>Node8</title>
<g id="a_Node000008"><a xlink:href="../../d3/da3/_finalizer_policies_8hpp.html" target="_top" xlink:title=" ">
<polygon fill="white" stroke="#666666" points="451.62,-141 322.38,-141 322.38,-110.5 451.62,-110.5 451.62,-141"/>
<text text-anchor="start" x="330.38" y="-127.5" font-family="Helvetica,sans-Serif" font-size="10.00">mimic++/policies/Finalizer</text>
<text text-anchor="middle" x="387" y="-116.25" font-family="Helvetica,sans-Serif" font-size="10.00">Policies.hpp</text>
</a>
</g>
</g>
<!-- Node1&#45;&gt;Node8 -->
<g id="edge12_Node000001_Node000008" class="edge">
<title>Node1&#45;&gt;Node8</title>
<g id="a_edge12_Node000001_Node000008"><a xlink:title=" ">
<path fill="none" stroke="#63b8ff" d="M250.51,-300.67C282.92,-259.37 349.03,-175.13 375.59,-141.29"/>
<polygon fill="#63b8ff" stroke="#63b8ff" points="247.75,-298.51 244.33,-308.54 253.26,-302.83 247.75,-298.51"/>
</a>
</g>
</g>
<!-- Node9 -->
<g id="Node000009" class="node">
<title>Node9</title>
<g id="a_Node000009"><a xlink:href="../../dc/d18/_side_effect_policies_8hpp.html" target="_top" xlink:title=" ">
<polygon fill="white" stroke="#666666" points="550.75,-207.5 413.25,-207.5 413.25,-177 550.75,-177 550.75,-207.5"/>
<text text-anchor="start" x="421.25" y="-194" font-family="Helvetica,sans-Serif" font-size="10.00">mimic++/policies/SideEffect</text>
<text text-anchor="middle" x="482" y="-182.75" font-family="Helvetica,sans-Serif" font-size="10.00">Policies.hpp</text>
</a>
</g>
</g>
<!-- Node1&#45;&gt;Node9 -->
<g id="edge14_Node000001_Node000009" class="edge">
<title>Node1&#45;&gt;Node9</title>
<g id="a_edge14_Node000001_Node000009"><a xlink:title=" ">
<path fill="none" stroke="#63b8ff" d="M298.79,-306.07C324.06,-297.93 352.59,-287.16 377,-274 411.61,-255.33 446.83,-225.58 466.41,-207.87"/>
<polygon fill="#63b8ff" stroke="#63b8ff" points="297.75,-302.73 289.25,-309.06 299.84,-309.41 297.75,-302.73"/>
</a>
</g>
</g>
<!-- Node3&#45;&gt;Node2 -->
<g id="edge11_Node000003_Node000002" class="edge">
<title>Node3&#45;&gt;Node2</title>
<g id="a_edge11_Node000003_Node000002"><a xlink:title=" ">
<path fill="none" stroke="#63b8ff" d="M122.81,-237.91C109.8,-230.44 97.5,-220.5 90,-207.5 69.34,-171.71 80.59,-129.89 121,-55.25 128.71,-41 141.98,-27.75 151.33,-19.45"/>
<polygon fill="#63b8ff" stroke="#63b8ff" points="121.01,-240.91 131.49,-242.44 124.25,-234.71 121.01,-240.91"/>
</a>
</g>
</g>
<!-- Node4 -->
<g id="Node000004" class="node">
<title>Node4</title>
<g id="a_Node000004"><a xlink:href="../../d2/d4f/_expectation_builder_8hpp.html" target="_top" xlink:title=" ">
<polygon fill="white" stroke="#666666" points="254.75,-201.88 99.25,-201.88 99.25,-182.62 254.75,-182.62 254.75,-201.88"/>
<text text-anchor="middle" x="177" y="-188.38" font-family="Helvetica,sans-Serif" font-size="10.00">mimic++/ExpectationBuilder.hpp</text>
</a>
</g>
</g>
<!-- Node3&#45;&gt;Node4 -->
<g id="edge3_Node000003_Node000004" class="edge">
<title>Node3&#45;&gt;Node4</title>
<g id="a_edge3_Node000003_Node000004"><a xlink:title=" ">
<path fill="none" stroke="#63b8ff" d="M177,-231.84C177,-221.26 177,-209.75 177,-202.07"/>
<polygon fill="#63b8ff" stroke="#63b8ff" points="173.5,-231.6 177,-241.6 180.5,-231.6 173.5,-231.6"/>
</a>
</g>
</g>
<!-- Node4&#45;&gt;Node2 -->
<g id="edge10_Node000004_Node000002" class="edge">
<title>Node4&#45;&gt;Node2</title>
<g id="a_edge10_Node000004_Node000002"><a xlink:title=" ">
<path fill="none" stroke="#63b8ff" d="M158.7,-174.34C150.08,-165.31 140.51,-153.48 135,-141 122.96,-113.71 128,-104.26 126,-74.5 125.42,-65.96 123.15,-63.32 126,-55.25 131.04,-40.98 142.78,-27.93 151.5,-19.67"/>
<polygon fill="#63b8ff" stroke="#63b8ff" points="156.16,-176.76 165.73,-181.31 161.09,-171.79 156.16,-176.76"/>
</a>
</g>
</g>
<!-- Node5 -->
<g id="Node000005" class="node">
<title>Node5</title>
<g id="a_Node000005"><a xlink:href="../../d5/dc5/_mock_8hpp.html" target="_top" xlink:title=" ">
<polygon fill="white" stroke="#666666" points="243.62,-135.38 144.38,-135.38 144.38,-116.12 243.62,-116.12 243.62,-135.38"/>
<text text-anchor="middle" x="194" y="-121.88" font-family="Helvetica,sans-Serif" font-size="10.00">mimic++/Mock.hpp</text>
</a>
</g>
</g>
<!-- Node4&#45;&gt;Node5 -->
<g id="edge4_Node000004_Node000005" class="edge">
<title>Node4&#45;&gt;Node5</title>
<g id="a_edge4_Node000004_Node000005"><a xlink:title=" ">
<path fill="none" stroke="#63b8ff" d="M182.2,-171.52C185.35,-159.55 189.23,-144.85 191.66,-135.64"/>
<polygon fill="#63b8ff" stroke="#63b8ff" points="178.91,-170.26 179.75,-180.82 185.68,-172.04 178.91,-170.26"/>
</a>
</g>
</g>
<!-- Node5&#45;&gt;Node2 -->
<g id="edge9_Node000005_Node000002" class="edge">
<title>Node5&#45;&gt;Node2</title>
<g id="a_edge9_Node000005_Node000002"><a xlink:title=" ">
<path fill="none" stroke="#63b8ff" d="M166.32,-109.7C153.67,-101.19 139.98,-89.29 133,-74.5 123.75,-54.89 141.38,-31.67 152.99,-19.34"/>
<polygon fill="#63b8ff" stroke="#63b8ff" points="164.47,-112.67 174.81,-114.98 168.17,-106.73 164.47,-112.67"/>
</a>
</g>
</g>
<!-- Node6 -->
<g id="Node000006" class="node">
<title>Node6</title>
<g id="a_Node000006"><a xlink:href="../../d9/dc3/_interface_mock_8hpp.html" target="_top" xlink:title=" ">
<polygon fill="white" stroke="#666666" points="279.75,-74.5 142.25,-74.5 142.25,-55.25 279.75,-55.25 279.75,-74.5"/>
<text text-anchor="middle" x="211" y="-61" font-family="Helvetica,sans-Serif" font-size="10.00">mimic++/InterfaceMock.hpp</text>
</a>
</g>
</g>
<!-- Node5&#45;&gt;Node6 -->
<g id="edge5_Node000005_Node000006" class="edge">
<title>Node5&#45;&gt;Node6</title>
<g id="a_edge5_Node000005_Node000006"><a xlink:title=" ">
<path fill="none" stroke="#63b8ff" d="M199.71,-104.99C202.65,-94.81 206.09,-82.88 208.39,-74.9"/>
<polygon fill="#63b8ff" stroke="#63b8ff" points="196.41,-103.78 197,-114.35 203.14,-105.72 196.41,-103.78"/>
</a>
</g>
</g>
<!-- Node7 -->
<g id="Node000007" class="node">
<title>Node7</title>
<g id="a_Node000007"><a xlink:href="../../d5/d92/_object_watcher_8hpp.html" target="_top" xlink:title=" ">
<polygon fill="white" stroke="#666666" points="437.88,-74.5 298.12,-74.5 298.12,-55.25 437.88,-55.25 437.88,-74.5"/>
<text text-anchor="middle" x="368" y="-61" font-family="Helvetica,sans-Serif" font-size="10.00">mimic++/ObjectWatcher.hpp</text>
</a>
</g>
</g>
<!-- Node5&#45;&gt;Node7 -->
<g id="edge7_Node000005_Node000007" class="edge">
<title>Node5&#45;&gt;Node7</title>
<g id="a_edge7_Node000005_Node000007"><a xlink:title=" ">
<path fill="none" stroke="#63b8ff" d="M231.41,-112.09C264.44,-100.92 311.77,-84.9 341.16,-74.96"/>
<polygon fill="#63b8ff" stroke="#63b8ff" points="230.59,-108.67 222.24,-115.19 232.83,-115.3 230.59,-108.67"/>
</a>
</g>
</g>
<!-- Node6&#45;&gt;Node2 -->
<g id="edge6_Node000006_Node000002" class="edge">
<title>Node6&#45;&gt;Node2</title>
<g id="a_edge6_Node000006_Node000002"><a xlink:title=" ">
<path fill="none" stroke="#63b8ff" d="M195.28,-46.79C186.96,-37.75 177.09,-27.02 170.27,-19.61"/>
<polygon fill="#63b8ff" stroke="#63b8ff" points="192.54,-48.98 201.88,-53.97 197.69,-44.24 192.54,-48.98"/>
</a>
</g>
</g>
<!-- Node7&#45;&gt;Node2 -->
<g id="edge8_Node000007_Node000002" class="edge">
<title>Node7&#45;&gt;Node2</title>
<g id="a_edge8_Node000007_Node000002"><a xlink:title=" ">
<path fill="none" stroke="#63b8ff" d="M322.34,-52.07C284.55,-42.3 231.65,-28.63 197.12,-19.7"/>
<polygon fill="#63b8ff" stroke="#63b8ff" points="321.03,-55.35 331.59,-54.46 322.78,-48.57 321.03,-55.35"/>
</a>
</g>
</g>
<!-- Node8&#45;&gt;Node2 -->
<g id="edge13_Node000008_Node000002" class="edge">
<title>Node8&#45;&gt;Node2</title>
<g id="a_edge13_Node000008_Node000002"><a xlink:title=" ">
<path fill="none" stroke="#63b8ff" d="M423.68,-103.97C443.4,-90.18 461.05,-71.67 447,-55.25 418.27,-21.67 293.68,-13.18 219.07,-11.15"/>
<polygon fill="#63b8ff" stroke="#63b8ff" points="421.99,-100.9 415.54,-109.31 425.83,-106.75 421.99,-100.9"/>
</a>
</g>
</g>
<!-- Node9&#45;&gt;Node2 -->
<g id="edge15_Node000009_Node000002" class="edge">
<title>Node9&#45;&gt;Node2</title>
<g id="a_edge15_Node000009_Node000002"><a xlink:title=" ">
<path fill="none" stroke="#63b8ff" d="M486.86,-165.49C491.02,-134.83 492.48,-84.16 464,-55.25 430.81,-21.55 297.08,-13.15 219.15,-11.15"/>
<polygon fill="#63b8ff" stroke="#63b8ff" points="483.45,-164.63 485.36,-175.05 490.37,-165.71 483.45,-164.63"/>
</a>
</g>
</g>
</g>
</svg>
