<?xml version="1.0" encoding="UTF-8" standalone="no"?>
<!DOCTYPE svg PUBLIC "-//W3C//DTD SVG 1.1//EN"
 "http://www.w3.org/Graphics/SVG/1.1/DTD/svg11.dtd">
<!-- Generated by graphviz version 12.2.1 (20241206.2353)
 -->
<!-- Title: mimic++/String.hpp Pages: 1 -->
<!--zoomable 735 -->

<svg id="main" version="1.1" xmlns="http://www.w3.org/2000/svg" xmlns:xlink="http://www.w3.org/1999/xlink" xml:space="preserve" onload="init(evt)">

<style type="text/css"><![CDATA[
.node, .edge {opacity: 0.7;}
.node.selected, .edge.selected {opacity: 1;}
.edge:hover path { stroke: red; }
.edge:hover polygon { stroke: red; fill: red; }
]]></style>

<defs>
  <circle id="rim" cx="0" cy="0" r="7"/>
  <circle id="rim2" cx="0" cy="0" r="3.5"/>
  <g id="zoomPlus">
    <use xlink:href="#rim" fill="#404040"><set attributeName="fill" to="#808080" begin="zoomplus.mouseover" end="zoomplus.mouseout"/></use>
    <path d="M-4,0h8M0,-4v8" fill="none" stroke="white" stroke-width="1.5" pointer-events="none"/>
  </g>
  <g id="zoomMin">
    <use xlink:href="#rim" fill="#404040"><set attributeName="fill" to="#808080" begin="zoomminus.mouseover" end="zoomminus.mouseout"/></use>
    <path d="M-4,0h8" fill="none" stroke="white" stroke-width="1.5" pointer-events="none"/>
  </g>
  <g id="arrowUp" transform="translate(30 24)">
    <use xlink:href="#rim"/>
    <path pointer-events="none" fill="none" stroke="white" stroke-width="1.5" d="M0,-3.0v7 M-2.5,-0.5L0,-3.0L2.5,-0.5"/>
  </g>
  <g id="arrowRight" transform="rotate(90) translate(36 -43)">
    <use xlink:href="#rim"/>
    <path pointer-events="none" fill="none" stroke="white" stroke-width="1.5" d="M0,-3.0v7 M-2.5,-0.5L0,-3.0L2.5,-0.5"/>
  </g>
  <g id="arrowDown" transform="rotate(180) translate(-30 -48)">
    <use xlink:href="#rim"/>
    <path pointer-events="none" fill="none" stroke="white" stroke-width="1.5" d="M0,-3.0v7 M-2.5,-0.5L0,-3.0L2.5,-0.5"/>
  </g>
  <g id="arrowLeft" transform="rotate(270) translate(-36 17)">
    <use xlink:href="#rim"/>
    <path pointer-events="none" fill="none" stroke="white" stroke-width="1.5" d="M0,-3.0v7 M-2.5,-0.5L0,-3.0L2.5,-0.5"/>
  </g>
  <g id="resetDef">
    <use xlink:href="#rim2" fill="#404040"><set attributeName="fill" to="#808080" begin="reset.mouseover" end="reset.mouseout"/></use>
  </g>
</defs>
<script type="application/ecmascript">
var viewWidth = 1796;
var viewHeight = 735;
var sectionId = 'dynsection-1';
</script>
<script type="application/ecmascript" xlink:href="../../svg.min.js"/>
<svg id="graph" class="graph">
<g id="viewport">
<title>mimic++/String.hpp</title>
<!-- Node1 -->
<g id="Node000001" class="node">
<title>Node1</title>
<g id="a_Node000001"><a xlink:title=" ">
<polygon fill="#999999" stroke="#666666" points="453.38,-727.25 352.62,-727.25 352.62,-708 453.38,-708 453.38,-727.25"/>
<text text-anchor="middle" x="403" y="-713.75" font-family="Helvetica,sans-Serif" font-size="10.00">mimic++/String.hpp</text>
</a>
</g>
</g>
<!-- Node2 -->
<g id="Node000002" class="node">
<title>Node2</title>
<g id="a_Node000002"><a xlink:href="../../d2/d56/_string_matchers_8hpp.html" target="_top" xlink:title=" ">
<polygon fill="white" stroke="#666666" points="1706.38,-268.38 1521.62,-268.38 1521.62,-249.12 1706.38,-249.12 1706.38,-268.38"/>
<text text-anchor="middle" x="1614" y="-254.88" font-family="Helvetica,sans-Serif" font-size="10.00">mimic++/matchers/StringMatchers.hpp</text>
</a>
</g>
</g>
<!-- Node1&#45;&gt;Node2 -->
<g id="edge1_Node000001_Node000002" class="edge">
<title>Node1&#45;&gt;Node2</title>
<g id="a_edge1_Node000001_Node000002"><a xlink:title=" ">
<path fill="none" stroke="#63b8ff" d="M465.06,-714.71C722.89,-706.35 1696,-670.66 1696,-608.12 1696,-608.12 1696,-608.12 1696,-385.12 1696,-334.15 1647.93,-287.74 1625.4,-268.78"/>
<polygon fill="#63b8ff" stroke="#63b8ff" points="465.08,-711.21 455.2,-715.03 465.31,-718.2 465.08,-711.21"/>
</a>
</g>
</g>
<!-- Node6 -->
<g id="Node000006" class="node">
<title>Node6</title>
<g id="a_Node000006"><a xlink:href="../../d0/db9/mimic_09_09_8hpp.html" target="_top" xlink:title=" ">
<polygon fill="white" stroke="#666666" points="701.75,-19.25 588.25,-19.25 588.25,0 701.75,0 701.75,-19.25"/>
<text text-anchor="middle" x="645" y="-5.75" font-family="Helvetica,sans-Serif" font-size="10.00">mimic++/mimic++.hpp</text>
</a>
</g>
</g>
<!-- Node1&#45;&gt;Node6 -->
<g id="edge11_Node000001_Node000006" class="edge">
<title>Node1&#45;&gt;Node6</title>
<g id="a_edge11_Node000001_Node000006"><a xlink:title=" ">
<path fill="none" stroke="#63b8ff" d="M341.15,-712.8C228.19,-704.11 0,-677.91 0,-608.12 0,-608.12 0,-608.12 0,-124.75 0,-86.7 16.81,-73.86 50,-55.25 96.17,-29.37 447.84,-16.37 587.8,-12.18"/>
<polygon fill="#63b8ff" stroke="#63b8ff" points="340.63,-716.27 350.86,-713.52 341.15,-709.29 340.63,-716.27"/>
</a>
</g>
</g>
<!-- Node8 -->
<g id="Node000008" class="node">
<title>Node8</title>
<g id="a_Node000008"><a xlink:href="../../de/d62/_state_printer_8hpp.html" target="_top" xlink:title=" ">
<polygon fill="white" stroke="#666666" points="483.75,-672 322.25,-672 322.25,-652.75 483.75,-652.75 483.75,-672"/>
<text text-anchor="middle" x="403" y="-658.5" font-family="Helvetica,sans-Serif" font-size="10.00">mimic++/printing/StatePrinter.hpp</text>
</a>
</g>
</g>
<!-- Node1&#45;&gt;Node8 -->
<g id="edge12_Node000001_Node000008" class="edge">
<title>Node1&#45;&gt;Node8</title>
<g id="a_edge12_Node000001_Node000008"><a xlink:title=" ">
<path fill="none" stroke="#63b8ff" d="M403,-696.38C403,-688.09 403,-678.92 403,-672.36"/>
<polygon fill="#63b8ff" stroke="#63b8ff" points="399.5,-696.32 403,-706.32 406.5,-696.32 399.5,-696.32"/>
</a>
</g>
</g>
<!-- Node3 -->
<g id="Node000003" class="node">
<title>Node3</title>
<g id="a_Node000003"><a xlink:href="../../d2/d4f/_expectation_builder_8hpp.html" target="_top" xlink:title=" ">
<polygon fill="white" stroke="#666666" points="1073.75,-201.88 918.25,-201.88 918.25,-182.62 1073.75,-182.62 1073.75,-201.88"/>
<text text-anchor="middle" x="996" y="-188.38" font-family="Helvetica,sans-Serif" font-size="10.00">mimic++/ExpectationBuilder.hpp</text>
</a>
</g>
</g>
<!-- Node2&#45;&gt;Node3 -->
<g id="edge2_Node000002_Node000003" class="edge">
<title>Node2&#45;&gt;Node3</title>
<g id="a_edge2_Node000002_Node000003"><a xlink:title=" ">
<path fill="none" stroke="#63b8ff" d="M1541.48,-247.13C1531.91,-245.85 1522.23,-244.6 1513,-243.5 1357.64,-225 1175.39,-208.49 1074.07,-199.78"/>
<polygon fill="#63b8ff" stroke="#63b8ff" points="1540.75,-250.57 1551.13,-248.45 1541.7,-243.63 1540.75,-250.57"/>
</a>
</g>
</g>
<!-- Node2&#45;&gt;Node6 -->
<g id="edge10_Node000002_Node000006" class="edge">
<title>Node2&#45;&gt;Node6</title>
<g id="a_edge10_Node000002_Node000006"><a xlink:title=" ">
<path fill="none" stroke="#63b8ff" d="M1597.38,-240.69C1555.35,-198.95 1439.49,-92.37 1318,-55.25 1203.56,-20.29 842.91,-12.71 702.11,-11.07"/>
<polygon fill="#63b8ff" stroke="#63b8ff" points="1594.81,-243.08 1604.34,-247.71 1599.78,-238.14 1594.81,-243.08"/>
</a>
</g>
</g>
<!-- Node4 -->
<g id="Node000004" class="node">
<title>Node4</title>
<g id="a_Node000004"><a xlink:href="../../d5/dc5/_mock_8hpp.html" target="_top" xlink:title=" ">
<polygon fill="white" stroke="#666666" points="743.62,-135.38 644.38,-135.38 644.38,-116.12 743.62,-116.12 743.62,-135.38"/>
<text text-anchor="middle" x="694" y="-121.88" font-family="Helvetica,sans-Serif" font-size="10.00">mimic++/Mock.hpp</text>
</a>
</g>
</g>
<!-- Node3&#45;&gt;Node4 -->
<g id="edge3_Node000003_Node000004" class="edge">
<title>Node3&#45;&gt;Node4</title>
<g id="a_edge3_Node000003_Node000004"><a xlink:title=" ">
<path fill="none" stroke="#63b8ff" d="M942.45,-179.81C883.63,-167.25 790.38,-147.33 736.41,-135.81"/>
<polygon fill="#63b8ff" stroke="#63b8ff" points="941.38,-183.16 951.89,-181.83 942.84,-176.32 941.38,-183.16"/>
</a>
</g>
</g>
<!-- Node3&#45;&gt;Node6 -->
<g id="edge9_Node000003_Node000006" class="edge">
<title>Node3&#45;&gt;Node6</title>
<g id="a_edge9_Node000003_Node000006"><a xlink:title=" ">
<path fill="none" stroke="#63b8ff" d="M1006.05,-172.2C1019.83,-143.15 1039.78,-87.75 1011,-55.25 990.9,-32.55 800.01,-19 702.19,-13.5"/>
<polygon fill="#63b8ff" stroke="#63b8ff" points="1003.04,-170.39 1001.7,-180.9 1009.3,-173.52 1003.04,-170.39"/>
</a>
</g>
</g>
<!-- Node5 -->
<g id="Node000005" class="node">
<title>Node5</title>
<g id="a_Node000005"><a xlink:href="../../d9/dc3/_interface_mock_8hpp.html" target="_top" xlink:title=" ">
<polygon fill="white" stroke="#666666" points="810.75,-74.5 673.25,-74.5 673.25,-55.25 810.75,-55.25 810.75,-74.5"/>
<text text-anchor="middle" x="742" y="-61" font-family="Helvetica,sans-Serif" font-size="10.00">mimic++/InterfaceMock.hpp</text>
</a>
</g>
</g>
<!-- Node4&#45;&gt;Node5 -->
<g id="edge4_Node000004_Node000005" class="edge">
<title>Node4&#45;&gt;Node5</title>
<g id="a_edge4_Node000004_Node000005"><a xlink:title=" ">
<path fill="none" stroke="#63b8ff" d="M708.5,-106.96C717.13,-96.38 727.71,-83.4 734.64,-74.9"/>
<polygon fill="#63b8ff" stroke="#63b8ff" points="705.85,-104.67 702.25,-114.64 711.28,-109.1 705.85,-104.67"/>
</a>
</g>
</g>
<!-- Node4&#45;&gt;Node6 -->
<g id="edge8_Node000004_Node000006" class="edge">
<title>Node4&#45;&gt;Node6</title>
<g id="a_edge8_Node000004_Node000006"><a xlink:title=" ">
<path fill="none" stroke="#63b8ff" d="M681.62,-106.53C675.7,-97.24 668.87,-85.59 664,-74.5 655.72,-55.64 649.77,-32.13 646.91,-19.55"/>
<polygon fill="#63b8ff" stroke="#63b8ff" points="678.5,-108.16 686.92,-114.59 684.35,-104.31 678.5,-108.16"/>
</a>
</g>
</g>
<!-- Node7 -->
<g id="Node000007" class="node">
<title>Node7</title>
<g id="a_Node000007"><a xlink:href="../../d5/d92/_object_watcher_8hpp.html" target="_top" xlink:title=" ">
<polygon fill="white" stroke="#666666" points="968.88,-74.5 829.12,-74.5 829.12,-55.25 968.88,-55.25 968.88,-74.5"/>
<text text-anchor="middle" x="899" y="-61" font-family="Helvetica,sans-Serif" font-size="10.00">mimic++/ObjectWatcher.hpp</text>
</a>
</g>
</g>
<!-- Node4&#45;&gt;Node7 -->
<g id="edge6_Node000004_Node000007" class="edge">
<title>Node4&#45;&gt;Node7</title>
<g id="a_edge6_Node000004_Node000007"><a xlink:title=" ">
<path fill="none" stroke="#63b8ff" d="M736.56,-112.53C775.53,-101.34 832.31,-85.03 867.38,-74.96"/>
<polygon fill="#63b8ff" stroke="#63b8ff" points="735.68,-109.14 727.04,-115.26 737.61,-115.87 735.68,-109.14"/>
</a>
</g>
</g>
<!-- Node5&#45;&gt;Node6 -->
<g id="edge5_Node000005_Node000006" class="edge">
<title>Node5&#45;&gt;Node6</title>
<g id="a_edge5_Node000005_Node000006"><a xlink:title=" ">
<path fill="none" stroke="#63b8ff" d="M715.53,-49.34C698.29,-39.88 676.33,-27.83 661.54,-19.7"/>
<polygon fill="#63b8ff" stroke="#63b8ff" points="713.77,-52.37 724.22,-54.11 717.14,-46.23 713.77,-52.37"/>
</a>
</g>
</g>
<!-- Node7&#45;&gt;Node6 -->
<g id="edge7_Node000007_Node000006" class="edge">
<title>Node7&#45;&gt;Node6</title>
<g id="a_edge7_Node000007_Node000006"><a xlink:title=" ">
<path fill="none" stroke="#63b8ff" d="M844.49,-52.45C797.75,-42.65 731.33,-28.72 688.2,-19.68"/>
<polygon fill="#63b8ff" stroke="#63b8ff" points="843.64,-55.84 854.14,-54.47 845.07,-48.99 843.64,-55.84"/>
</a>
</g>
</g>
<!-- Node8&#45;&gt;Node6 -->
<g id="edge68_Node000008_Node000006" class="edge">
<title>Node8&#45;&gt;Node6</title>
<g id="a_edge68_Node000008_Node000006"><a xlink:title=" ">
<path fill="none" stroke="#63b8ff" d="M310.74,-652.34C202.61,-639.13 38,-609.7 38,-552.88 38,-552.88 38,-552.88 38,-124.75 38,-88.89 48.58,-74.25 79,-55.25 121.48,-28.72 453.28,-16.19 588.22,-12.15"/>
<polygon fill="#63b8ff" stroke="#63b8ff" points="310.15,-655.79 320.49,-653.5 310.98,-648.84 310.15,-655.79"/>
</a>
</g>
</g>
<!-- Node9 -->
<g id="Node000009" class="node">
<title>Node9</title>
<g id="a_Node000009"><a xlink:href="../../da/dab/_printer_8hpp.html" target="_top" xlink:title=" ">
<polygon fill="white" stroke="#666666" points="764.88,-616.75 661.12,-616.75 661.12,-597.5 764.88,-597.5 764.88,-616.75"/>
<text text-anchor="middle" x="713" y="-603.25" font-family="Helvetica,sans-Serif" font-size="10.00">mimic++/Printer.hpp</text>
</a>
</g>
</g>
<!-- Node8&#45;&gt;Node9 -->
<g id="edge13_Node000008_Node000009" class="edge">
<title>Node8&#45;&gt;Node9</title>
<g id="a_edge13_Node000008_Node000009"><a xlink:title=" ">
<path fill="none" stroke="#63b8ff" d="M467.05,-650.37C524.38,-640.53 607.4,-626.26 660.8,-617.09"/>
<polygon fill="#63b8ff" stroke="#63b8ff" points="466.69,-646.88 457.43,-652.03 467.88,-653.78 466.69,-646.88"/>
</a>
</g>
</g>
<!-- Node9&#45;&gt;Node4 -->
<g id="edge14_Node000009_Node000004" class="edge">
<title>Node9&#45;&gt;Node4</title>
<g id="a_edge14_Node000009_Node000004"><a xlink:title=" ">
<path fill="none" stroke="#63b8ff" d="M718.61,-586.25C724.22,-564.63 732,-528.96 732,-497.62 732,-497.62 732,-497.62 732,-257.75 732,-210.15 708.57,-156.54 698.51,-135.7"/>
<polygon fill="#63b8ff" stroke="#63b8ff" points="715.28,-585.19 716.04,-595.75 722.03,-587.02 715.28,-585.19"/>
</a>
</g>
</g>
<!-- Node9&#45;&gt;Node6 -->
<g id="edge63_Node000009_Node000006" class="edge">
<title>Node9&#45;&gt;Node6</title>
<g id="a_edge63_Node000009_Node000006"><a xlink:title=" ">
<path fill="none" stroke="#63b8ff" d="M776.37,-605.52C988.14,-602.67 1658,-586.61 1658,-497.62 1658,-497.62 1658,-497.62 1658,-440.38 1658,-345.45 1772,-354.68 1772,-259.75 1772,-259.75 1772,-259.75 1772,-124.75 1772,-101.74 1859.54,-110.73 1622,-55.25 1445.49,-14.03 883.86,-10.52 702.25,-10.5"/>
<polygon fill="#63b8ff" stroke="#63b8ff" points="776.62,-602.02 766.67,-605.64 776.71,-609.01 776.62,-602.02"/>
</a>
</g>
</g>
<!-- Node9&#45;&gt;Node7 -->
<g id="edge15_Node000009_Node000007" class="edge">
<title>Node9&#45;&gt;Node7</title>
<g id="a_edge15_Node000009_Node000007"><a xlink:title=" ">
<path fill="none" stroke="#63b8ff" d="M728.99,-588.65C745.86,-568.34 770,-533.08 770,-497.62 770,-497.62 770,-497.62 770,-324.25 770,-215.95 861.84,-106.47 890.54,-74.9"/>
<polygon fill="#63b8ff" stroke="#63b8ff" points="726.56,-586.12 722.65,-595.96 731.84,-590.7 726.56,-586.12"/>
</a>
</g>
</g>
<!-- Node10 -->
<g id="Node000010" class="node">
<title>Node10</title>
<g id="a_Node000010"><a xlink:href="../../da/dd9/_reporter_8hpp.html" target="_top" xlink:title=" ">
<polygon fill="white" stroke="#666666" points="546,-395.75 434,-395.75 434,-376.5 546,-376.5 546,-395.75"/>
<text text-anchor="middle" x="490" y="-382.25" font-family="Helvetica,sans-Serif" font-size="10.00">mimic++/Reporter.hpp</text>
</a>
</g>
</g>
<!-- Node9&#45;&gt;Node10 -->
<g id="edge16_Node000009_Node000010" class="edge">
<title>Node9&#45;&gt;Node10</title>
<g id="a_edge16_Node000009_Node000010"><a xlink:title=" ">
<path fill="none" stroke="#63b8ff" d="M695.86,-589.29C651.19,-545.42 532.36,-428.72 498.89,-395.85"/>
<polygon fill="#63b8ff" stroke="#63b8ff" points="693.31,-591.7 702.9,-596.21 698.22,-586.7 693.31,-591.7"/>
</a>
</g>
</g>
<!-- Node12 -->
<g id="Node000012" class="node">
<title>Node12</title>
<g id="a_Node000012"><a xlink:href="../../d8/de4/_sequence_8hpp.html" target="_top" xlink:title=" ">
<polygon fill="white" stroke="#666666" points="590.38,-334.88 471.62,-334.88 471.62,-315.62 590.38,-315.62 590.38,-334.88"/>
<text text-anchor="middle" x="531" y="-321.38" font-family="Helvetica,sans-Serif" font-size="10.00">mimic++/Sequence.hpp</text>
</a>
</g>
</g>
<!-- Node9&#45;&gt;Node12 -->
<g id="edge33_Node000009_Node000012" class="edge">
<title>Node9&#45;&gt;Node12</title>
<g id="a_edge33_Node000009_Node000012"><a xlink:title=" ">
<path fill="none" stroke="#63b8ff" d="M701.03,-587.72C665.7,-533.39 562.73,-375.04 536.92,-335.35"/>
<polygon fill="#63b8ff" stroke="#63b8ff" points="697.94,-589.39 706.33,-595.86 703.81,-585.57 697.94,-589.39"/>
</a>
</g>
</g>
<!-- Node14 -->
<g id="Node000014" class="node">
<title>Node14</title>
<g id="a_Node000014"><a xlink:href="../../d0/d3b/_reports_8hpp.html" target="_top" xlink:title=" ">
<polygon fill="white" stroke="#666666" points="360.5,-451 251.5,-451 251.5,-431.75 360.5,-431.75 360.5,-451"/>
<text text-anchor="middle" x="306" y="-437.5" font-family="Helvetica,sans-Serif" font-size="10.00">mimic++/Reports.hpp</text>
</a>
</g>
</g>
<!-- Node9&#45;&gt;Node14 -->
<g id="edge29_Node000009_Node000014" class="edge">
<title>Node9&#45;&gt;Node14</title>
<g id="a_edge29_Node000009_Node000014"><a xlink:title=" ">
<path fill="none" stroke="#63b8ff" d="M649.56,-598.93C577.62,-588.3 459.28,-563.12 374,-506.25 349.47,-489.89 325.45,-464.51 313.61,-451.2"/>
<polygon fill="#63b8ff" stroke="#63b8ff" points="648.8,-602.36 659.2,-600.3 649.79,-595.43 648.8,-602.36"/>
</a>
</g>
</g>
<!-- Node15 -->
<g id="Node000015" class="node">
<title>Node15</title>
<g id="a_Node000015"><a xlink:href="../../de/df5/_stacktrace_8hpp.html" target="_top" xlink:title=" ">
<polygon fill="white" stroke="#666666" points="628.25,-561.5 505.75,-561.5 505.75,-542.25 628.25,-542.25 628.25,-561.5"/>
<text text-anchor="middle" x="567" y="-548" font-family="Helvetica,sans-Serif" font-size="10.00">mimic++/Stacktrace.hpp</text>
</a>
</g>
</g>
<!-- Node9&#45;&gt;Node15 -->
<g id="edge34_Node000009_Node000015" class="edge">
<title>Node9&#45;&gt;Node15</title>
<g id="a_edge34_Node000009_Node000015"><a xlink:title=" ">
<path fill="none" stroke="#63b8ff" d="M677.49,-593.17C650.98,-583.5 615.42,-570.54 591.89,-561.95"/>
<polygon fill="#63b8ff" stroke="#63b8ff" points="676.22,-596.43 686.81,-596.57 678.62,-589.86 676.22,-596.43"/>
</a>
</g>
</g>
<!-- Node21 -->
<g id="Node000021" class="node">
<title>Node21</title>
<g id="a_Node000021"><a xlink:href="../../d3/d58/_common_8hpp.html" target="_top" xlink:title=" ">
<polygon fill="white" stroke="#666666" points="1267.88,-395.75 1110.12,-395.75 1110.12,-376.5 1267.88,-376.5 1267.88,-395.75"/>
<text text-anchor="middle" x="1189" y="-382.25" font-family="Helvetica,sans-Serif" font-size="10.00">mimic++/matchers/Common.hpp</text>
</a>
</g>
</g>
<!-- Node9&#45;&gt;Node21 -->
<g id="edge50_Node000009_Node000021" class="edge">
<title>Node9&#45;&gt;Node21</title>
<g id="a_edge50_Node000009_Node000021"><a xlink:title=" ">
<path fill="none" stroke="#63b8ff" d="M756.07,-593.88C783.14,-585.73 818.57,-574.21 849,-561.5 978.48,-507.45 1126.08,-423.69 1173.49,-396.2"/>
<polygon fill="#63b8ff" stroke="#63b8ff" points="755.43,-590.42 746.84,-596.63 757.43,-597.13 755.43,-590.42"/>
</a>
</g>
</g>
<!-- Node25 -->
<g id="Node000025" class="node">
<title>Node25</title>
<g id="a_Node000025"><a xlink:href="../../de/d10/_general_policies_8hpp.html" target="_top" xlink:title=" ">
<polygon fill="white" stroke="#666666" points="925.5,-274 798.5,-274 798.5,-243.5 925.5,-243.5 925.5,-274"/>
<text text-anchor="start" x="806.5" y="-260.5" font-family="Helvetica,sans-Serif" font-size="10.00">mimic++/policies/General</text>
<text text-anchor="middle" x="862" y="-249.25" font-family="Helvetica,sans-Serif" font-size="10.00">Policies.hpp</text>
</a>
</g>
</g>
<!-- Node9&#45;&gt;Node25 -->
<g id="edge64_Node000009_Node000025" class="edge">
<title>Node9&#45;&gt;Node25</title>
<g id="a_edge64_Node000009_Node000025"><a xlink:title=" ">
<path fill="none" stroke="#63b8ff" d="M747.86,-592.67C783.92,-576.2 835,-544.58 835,-497.62 835,-497.62 835,-497.62 835,-385.12 835,-344.16 848.95,-297.31 856.79,-274.2"/>
<polygon fill="#63b8ff" stroke="#63b8ff" points="746.84,-589.29 739.08,-596.5 749.64,-595.71 746.84,-589.29"/>
</a>
</g>
</g>
<!-- Node10&#45;&gt;Node6 -->
<g id="edge28_Node000010_Node000006" class="edge">
<title>Node10&#45;&gt;Node6</title>
<g id="a_edge28_Node000010_Node000006"><a xlink:title=" ">
<path fill="none" stroke="#63b8ff" d="M422.35,-384.41C368.36,-381.32 292.22,-371.17 233,-340.5 187.86,-317.12 152,-310.58 152,-259.75 152,-259.75 152,-259.75 152,-124.75 152,-77.31 189.47,-74.09 233,-55.25 295.39,-28.24 490.22,-16.79 587.93,-12.65"/>
<polygon fill="#63b8ff" stroke="#63b8ff" points="421.85,-387.89 432.01,-384.89 422.2,-380.9 421.85,-387.89"/>
</a>
</g>
</g>
<!-- Node11 -->
<g id="Node000011" class="node">
<title>Node11</title>
<g id="a_Node000011"><a xlink:href="../../d5/d8a/_expectation_8hpp.html" target="_top" xlink:title=" ">
<polygon fill="white" stroke="#666666" points="665.75,-268.38 540.25,-268.38 540.25,-249.12 665.75,-249.12 665.75,-268.38"/>
<text text-anchor="middle" x="603" y="-254.88" font-family="Helvetica,sans-Serif" font-size="10.00">mimic++/Expectation.hpp</text>
</a>
</g>
</g>
<!-- Node10&#45;&gt;Node11 -->
<g id="edge17_Node000010_Node000011" class="edge">
<title>Node10&#45;&gt;Node11</title>
<g id="a_edge17_Node000010_Node000011"><a xlink:title=" ">
<path fill="none" stroke="#63b8ff" d="M474.71,-367.17C462.99,-351.11 450.72,-327.46 463,-310 480.53,-285.08 511.65,-272.45 540.1,-266.09"/>
<polygon fill="#63b8ff" stroke="#63b8ff" points="471.85,-369.19 480.78,-374.89 477.35,-364.86 471.85,-369.19"/>
</a>
</g>
</g>
<!-- Node10&#45;&gt;Node12 -->
<g id="edge21_Node000010_Node000012" class="edge">
<title>Node10&#45;&gt;Node12</title>
<g id="a_edge21_Node000010_Node000012"><a xlink:title=" ">
<path fill="none" stroke="#63b8ff" d="M502.61,-367.01C509.94,-356.49 518.85,-343.69 524.71,-335.28"/>
<polygon fill="#63b8ff" stroke="#63b8ff" points="499.93,-364.73 497.09,-374.94 505.68,-368.74 499.93,-364.73"/>
</a>
</g>
</g>
<!-- Node11&#45;&gt;Node3 -->
<g id="edge18_Node000011_Node000003" class="edge">
<title>Node11&#45;&gt;Node3</title>
<g id="a_edge18_Node000011_Node000003"><a xlink:title=" ">
<path fill="none" stroke="#63b8ff" d="M669.83,-246.78C746.06,-234.27 869.33,-214.04 940.49,-202.36"/>
<polygon fill="#63b8ff" stroke="#63b8ff" points="669.27,-243.33 659.97,-248.4 670.4,-250.23 669.27,-243.33"/>
</a>
</g>
</g>
<!-- Node11&#45;&gt;Node4 -->
<g id="edge19_Node000011_Node000004" class="edge">
<title>Node11&#45;&gt;Node4</title>
<g id="a_edge19_Node000011_Node000004"><a xlink:title=" ">
<path fill="none" stroke="#63b8ff" d="M615.66,-239.53C635.41,-211.09 672.85,-157.2 687.7,-135.82"/>
<polygon fill="#63b8ff" stroke="#63b8ff" points="612.95,-237.29 610.12,-247.5 618.7,-241.29 612.95,-237.29"/>
</a>
</g>
</g>
<!-- Node11&#45;&gt;Node6 -->
<g id="edge20_Node000011_Node000006" class="edge">
<title>Node11&#45;&gt;Node6</title>
<g id="a_edge20_Node000011_Node000006"><a xlink:title=" ">
<path fill="none" stroke="#63b8ff" d="M606.42,-237.6C615.06,-186.8 637.46,-55.02 643.49,-19.54"/>
<polygon fill="#63b8ff" stroke="#63b8ff" points="603.02,-236.72 604.8,-247.17 609.92,-237.9 603.02,-236.72"/>
</a>
</g>
</g>
<!-- Node12&#45;&gt;Node3 -->
<g id="edge23_Node000012_Node000003" class="edge">
<title>Node12&#45;&gt;Node3</title>
<g id="a_edge23_Node000012_Node000003"><a xlink:title=" ">
<path fill="none" stroke="#63b8ff" d="M602.01,-322.01C702.44,-317.74 879.9,-305.83 935,-274 964.52,-256.95 984.33,-219.37 992.19,-202.17"/>
<polygon fill="#63b8ff" stroke="#63b8ff" points="602.12,-318.5 592.27,-322.41 602.4,-325.5 602.12,-318.5"/>
</a>
</g>
</g>
<!-- Node12&#45;&gt;Node6 -->
<g id="edge24_Node000012_Node000006" class="edge">
<title>Node12&#45;&gt;Node6</title>
<g id="a_edge24_Node000012_Node000006"><a xlink:title=" ">
<path fill="none" stroke="#63b8ff" d="M528.51,-304.13C527.05,-287.61 526.31,-263.74 531,-243.5 552.84,-149.22 618.4,-49.04 638.84,-19.38"/>
<polygon fill="#63b8ff" stroke="#63b8ff" points="524.98,-304.06 529.52,-313.63 531.94,-303.32 524.98,-304.06"/>
</a>
</g>
</g>
<!-- Node12&#45;&gt;Node11 -->
<g id="edge22_Node000012_Node000011" class="edge">
<title>Node12&#45;&gt;Node11</title>
<g id="a_edge22_Node000012_Node000011"><a xlink:title=" ">
<path fill="none" stroke="#63b8ff" d="M549.35,-307.81C563.25,-295.36 581.83,-278.72 593.07,-268.64"/>
<polygon fill="#63b8ff" stroke="#63b8ff" points="547.25,-304.99 542.14,-314.27 551.92,-310.21 547.25,-304.99"/>
</a>
</g>
</g>
<!-- Node13 -->
<g id="Node000013" class="node">
<title>Node13</title>
<g id="a_Node000013"><a xlink:href="../../db/d70/_control_policies_8hpp.html" target="_top" xlink:title=" ">
<polygon fill="white" stroke="#666666" points="484,-274 360,-274 360,-243.5 484,-243.5 484,-274"/>
<text text-anchor="start" x="368" y="-260.5" font-family="Helvetica,sans-Serif" font-size="10.00">mimic++/policies/Control</text>
<text text-anchor="middle" x="422" y="-249.25" font-family="Helvetica,sans-Serif" font-size="10.00">Policies.hpp</text>
</a>
</g>
</g>
<!-- Node12&#45;&gt;Node13 -->
<g id="edge25_Node000012_Node000013" class="edge">
<title>Node12&#45;&gt;Node13</title>
<g id="a_edge25_Node000012_Node000013"><a xlink:title=" ">
<path fill="none" stroke="#63b8ff" d="M506.15,-309.54C488.33,-299 464.43,-284.86 446.66,-274.34"/>
<polygon fill="#63b8ff" stroke="#63b8ff" points="504.15,-312.43 514.54,-314.51 507.72,-306.41 504.15,-312.43"/>
</a>
</g>
</g>
<!-- Node13&#45;&gt;Node3 -->
<g id="edge26_Node000013_Node000003" class="edge">
<title>Node13&#45;&gt;Node3</title>
<g id="a_edge26_Node000013_Node000003"><a xlink:title=" ">
<path fill="none" stroke="#63b8ff" d="M495.48,-247.92C507.35,-246.39 519.51,-244.87 531,-243.5 666.86,-227.28 825.32,-210.64 917.78,-201.16"/>
<polygon fill="#63b8ff" stroke="#63b8ff" points="495.19,-244.42 485.72,-249.18 496.09,-251.37 495.19,-244.42"/>
</a>
</g>
</g>
<!-- Node13&#45;&gt;Node6 -->
<g id="edge27_Node000013_Node000006" class="edge">
<title>Node13&#45;&gt;Node6</title>
<g id="a_edge27_Node000013_Node000006"><a xlink:title=" ">
<path fill="none" stroke="#63b8ff" d="M473.42,-237.94C487.64,-230.31 501.92,-220.27 512,-207.5 555.58,-152.32 510.09,-109.35 555,-55.25 569.48,-37.81 592.46,-26.57 611.58,-19.74"/>
<polygon fill="#63b8ff" stroke="#63b8ff" points="471.88,-234.81 464.5,-242.41 475.01,-241.07 471.88,-234.81"/>
</a>
</g>
</g>
<!-- Node14&#45;&gt;Node6 -->
<g id="edge31_Node000014_Node000006" class="edge">
<title>Node14&#45;&gt;Node6</title>
<g id="a_edge31_Node000014_Node000006"><a xlink:title=" ">
<path fill="none" stroke="#63b8ff" d="M240.13,-435.34C172.17,-426.12 76,-400.04 76,-326.25 76,-326.25 76,-326.25 76,-124.75 76,-92.07 74.18,-75.29 100,-55.25 137.92,-25.82 456.09,-15.04 588.03,-11.81"/>
<polygon fill="#63b8ff" stroke="#63b8ff" points="239.34,-438.76 249.7,-436.54 240.21,-431.82 239.34,-438.76"/>
</a>
</g>
</g>
<!-- Node14&#45;&gt;Node10 -->
<g id="edge30_Node000014_Node000010" class="edge">
<title>Node14&#45;&gt;Node10</title>
<g id="a_edge30_Node000014_Node000010"><a xlink:title=" ">
<path fill="none" stroke="#63b8ff" d="M348.1,-428.19C381.75,-418.45 428.18,-405.02 458.63,-396.2"/>
<polygon fill="#63b8ff" stroke="#63b8ff" points="347.3,-424.78 338.67,-430.92 349.25,-431.5 347.3,-424.78"/>
</a>
</g>
</g>
<!-- Node14&#45;&gt;Node13 -->
<g id="edge32_Node000014_Node000013" class="edge">
<title>Node14&#45;&gt;Node13</title>
<g id="a_edge32_Node000014_Node000013"><a xlink:title=" ">
<path fill="none" stroke="#63b8ff" d="M322.46,-423.13C340.06,-404.04 368,-371.83 387,-340.5 400.23,-318.68 411.1,-290.97 417.05,-274.33"/>
<polygon fill="#63b8ff" stroke="#63b8ff" points="320.05,-420.58 315.77,-430.27 325.16,-425.37 320.05,-420.58"/>
</a>
</g>
</g>
<!-- Node15&#45;&gt;Node4 -->
<g id="edge49_Node000015_Node000004" class="edge">
<title>Node15&#45;&gt;Node4</title>
<g id="a_edge49_Node000015_Node000004"><a xlink:title=" ">
<path fill="none" stroke="#63b8ff" d="M584.47,-534.3C619.28,-499.39 694,-414.22 694,-326.25 694,-326.25 694,-326.25 694,-257.75 694,-211.81 694,-156.81 694,-135.64"/>
<polygon fill="#63b8ff" stroke="#63b8ff" points="582.32,-531.51 577.63,-541.01 587.22,-536.51 582.32,-531.51"/>
</a>
</g>
</g>
<!-- Node16 -->
<g id="Node000016" class="node">
<title>Node16</title>
<g id="a_Node000016"><a xlink:href="../../dc/d44/_call_8hpp.html" target="_top" xlink:title=" ">
<polygon fill="white" stroke="#666666" points="474.88,-506.25 383.12,-506.25 383.12,-487 474.88,-487 474.88,-506.25"/>
<text text-anchor="middle" x="429" y="-492.75" font-family="Helvetica,sans-Serif" font-size="10.00">mimic++/Call.hpp</text>
</a>
</g>
</g>
<!-- Node15&#45;&gt;Node16 -->
<g id="edge35_Node000015_Node000016" class="edge">
<title>Node15&#45;&gt;Node16</title>
<g id="a_edge35_Node000015_Node000016"><a xlink:title=" ">
<path fill="none" stroke="#63b8ff" d="M533.1,-537.79C508.08,-528.14 474.67,-515.25 452.52,-506.7"/>
<polygon fill="#63b8ff" stroke="#63b8ff" points="531.59,-540.96 542.18,-541.3 534.11,-534.43 531.59,-540.96"/>
</a>
</g>
</g>
<!-- Node16&#45;&gt;Node6 -->
<g id="edge39_Node000016_Node000006" class="edge">
<title>Node16&#45;&gt;Node6</title>
<g id="a_edge39_Node000016_Node000006"><a xlink:title=" ">
<path fill="none" stroke="#63b8ff" d="M371.64,-487.85C280.79,-473.92 114,-441 114,-387.12 114,-387.12 114,-387.12 114,-124.75 114,-81.54 143.02,-73.9 182,-55.25 252.39,-21.58 480.35,-13.31 587.87,-11.28"/>
<polygon fill="#63b8ff" stroke="#63b8ff" points="370.95,-491.29 381.36,-489.31 371.99,-484.37 370.95,-491.29"/>
</a>
</g>
</g>
<!-- Node16&#45;&gt;Node10 -->
<g id="edge37_Node000016_Node000010" class="edge">
<title>Node16&#45;&gt;Node10</title>
<g id="a_edge37_Node000016_Node000010"><a xlink:title=" ">
<path fill="none" stroke="#63b8ff" d="M439.53,-476.9C452.78,-453.33 475.01,-413.79 484.94,-396.13"/>
<polygon fill="#63b8ff" stroke="#63b8ff" points="436.58,-474.99 434.73,-485.43 442.69,-478.43 436.58,-474.99"/>
</a>
</g>
</g>
<!-- Node16&#45;&gt;Node11 -->
<g id="edge36_Node000016_Node000011" class="edge">
<title>Node16&#45;&gt;Node11</title>
<g id="a_edge36_Node000016_Node000011"><a xlink:title=" ">
<path fill="none" stroke="#63b8ff" d="M457.18,-481.17C498.49,-458.06 573.36,-408.41 599,-340.5 608.32,-315.81 606.11,-283.84 604.28,-268.59"/>
<polygon fill="#63b8ff" stroke="#63b8ff" points="455.65,-478.01 448.54,-485.87 458.99,-484.16 455.65,-478.01"/>
</a>
</g>
</g>
<!-- Node16&#45;&gt;Node14 -->
<g id="edge38_Node000016_Node000014" class="edge">
<title>Node16&#45;&gt;Node14</title>
<g id="a_edge38_Node000016_Node000014"><a xlink:title=" ">
<path fill="none" stroke="#63b8ff" d="M397.58,-482.02C375.42,-472.43 346.35,-459.84 326.97,-451.45"/>
<polygon fill="#63b8ff" stroke="#63b8ff" points="396.18,-485.23 406.75,-485.99 398.96,-478.81 396.18,-485.23"/>
</a>
</g>
</g>
<!-- Node17 -->
<g id="Node000017" class="node">
<title>Node17</title>
<g id="a_Node000017"><a xlink:href="../../d2/dfd/_argument_list_8hpp.html" target="_top" xlink:title=" ">
<polygon fill="white" stroke="#666666" points="377.62,-340.5 242.38,-340.5 242.38,-310 377.62,-310 377.62,-340.5"/>
<text text-anchor="start" x="250.38" y="-327" font-family="Helvetica,sans-Serif" font-size="10.00">mimic++/policies/Argument</text>
<text text-anchor="middle" x="310" y="-315.75" font-family="Helvetica,sans-Serif" font-size="10.00">List.hpp</text>
</a>
</g>
</g>
<!-- Node16&#45;&gt;Node17 -->
<g id="edge40_Node000016_Node000017" class="edge">
<title>Node16&#45;&gt;Node17</title>
<g id="a_edge40_Node000016_Node000017"><a xlink:title=" ">
<path fill="none" stroke="#63b8ff" d="M416.14,-477.32C392.37,-443.49 342.02,-371.82 320.31,-340.93"/>
<polygon fill="#63b8ff" stroke="#63b8ff" points="413.12,-479.11 421.73,-485.28 418.85,-475.09 413.12,-479.11"/>
</a>
</g>
</g>
<!-- Node17&#45;&gt;Node6 -->
<g id="edge41_Node000017_Node000006" class="edge">
<title>Node17&#45;&gt;Node6</title>
<g id="a_edge41_Node000017_Node000006"><a xlink:title=" ">
<path fill="none" stroke="#63b8ff" d="M272.31,-303.79C237.12,-281.64 190,-242.73 190,-193.25 190,-193.25 190,-193.25 190,-124.75 190,-43.62 465.63,-19.64 587.83,-13"/>
<polygon fill="#63b8ff" stroke="#63b8ff" points="270.21,-306.61 280.57,-308.81 273.84,-300.63 270.21,-306.61"/>
</a>
</g>
</g>
<!-- Node18 -->
<g id="Node000018" class="node">
<title>Node18</title>
<g id="a_Node000018"><a xlink:href="../../d1/d42/_arg_requirement_policies_8hpp.html" target="_top" xlink:title=" ">
<polygon fill="white" stroke="#666666" points="1183.5,-274 1020.5,-274 1020.5,-243.5 1183.5,-243.5 1183.5,-274"/>
<text text-anchor="start" x="1028.5" y="-260.5" font-family="Helvetica,sans-Serif" font-size="10.00">mimic++/policies/ArgRequirement</text>
<text text-anchor="middle" x="1102" y="-249.25" font-family="Helvetica,sans-Serif" font-size="10.00">Policies.hpp</text>
</a>
</g>
</g>
<!-- Node17&#45;&gt;Node18 -->
<g id="edge42_Node000017_Node000018" class="edge">
<title>Node17&#45;&gt;Node18</title>
<g id="a_edge42_Node000017_Node000018"><a xlink:title=" ">
<path fill="none" stroke="#63b8ff" d="M389.2,-316.62C412.93,-314.4 439.01,-312.03 463,-310 672.64,-292.24 725.3,-290.94 935,-274 962.7,-271.76 992.97,-269.21 1020.04,-266.89"/>
<polygon fill="#63b8ff" stroke="#63b8ff" points="388.9,-313.13 379.27,-317.55 389.56,-320.1 388.9,-313.13"/>
</a>
</g>
</g>
<!-- Node19 -->
<g id="Node000019" class="node">
<title>Node19</title>
<g id="a_Node000019"><a xlink:href="../../d3/da3/_finalizer_policies_8hpp.html" target="_top" xlink:title=" ">
<polygon fill="white" stroke="#666666" points="347.62,-207.5 218.38,-207.5 218.38,-177 347.62,-177 347.62,-207.5"/>
<text text-anchor="start" x="226.38" y="-194" font-family="Helvetica,sans-Serif" font-size="10.00">mimic++/policies/Finalizer</text>
<text text-anchor="middle" x="283" y="-182.75" font-family="Helvetica,sans-Serif" font-size="10.00">Policies.hpp</text>
</a>
</g>
</g>
<!-- Node17&#45;&gt;Node19 -->
<g id="edge45_Node000017_Node000019" class="edge">
<title>Node17&#45;&gt;Node19</title>
<g id="a_edge45_Node000017_Node000019"><a xlink:title=" ">
<path fill="none" stroke="#63b8ff" d="M304.75,-298.79C299.17,-271.71 290.54,-229.81 286.01,-207.83"/>
<polygon fill="#63b8ff" stroke="#63b8ff" points="301.26,-299.16 306.7,-308.25 308.11,-297.75 301.26,-299.16"/>
</a>
</g>
</g>
<!-- Node20 -->
<g id="Node000020" class="node">
<title>Node20</title>
<g id="a_Node000020"><a xlink:href="../../dc/d18/_side_effect_policies_8hpp.html" target="_top" xlink:title=" ">
<polygon fill="white" stroke="#666666" points="502.75,-207.5 365.25,-207.5 365.25,-177 502.75,-177 502.75,-207.5"/>
<text text-anchor="start" x="373.25" y="-194" font-family="Helvetica,sans-Serif" font-size="10.00">mimic++/policies/SideEffect</text>
<text text-anchor="middle" x="434" y="-182.75" font-family="Helvetica,sans-Serif" font-size="10.00">Policies.hpp</text>
</a>
</g>
</g>
<!-- Node17&#45;&gt;Node20 -->
<g id="edge47_Node000017_Node000020" class="edge">
<title>Node17&#45;&gt;Node20</title>
<g id="a_edge47_Node000017_Node000020"><a xlink:title=" ">
<path fill="none" stroke="#63b8ff" d="M318.48,-299.27C325.25,-282.09 336.08,-259.57 351,-243.5 364.87,-228.56 384.17,-216.52 400.67,-207.97"/>
<polygon fill="#63b8ff" stroke="#63b8ff" points="315.35,-297.66 315.14,-308.25 321.91,-300.1 315.35,-297.66"/>
</a>
</g>
</g>
<!-- Node18&#45;&gt;Node3 -->
<g id="edge43_Node000018_Node000003" class="edge">
<title>Node18&#45;&gt;Node3</title>
<g id="a_edge43_Node000018_Node000003"><a xlink:title=" ">
<path fill="none" stroke="#63b8ff" d="M1068.26,-237.22C1048.92,-225.45 1025.62,-211.27 1010.81,-202.26"/>
<polygon fill="#63b8ff" stroke="#63b8ff" points="1066.29,-240.12 1076.65,-242.33 1069.93,-234.14 1066.29,-240.12"/>
</a>
</g>
</g>
<!-- Node18&#45;&gt;Node6 -->
<g id="edge44_Node000018_Node000006" class="edge">
<title>Node18&#45;&gt;Node6</title>
<g id="a_edge44_Node000018_Node000006"><a xlink:title=" ">
<path fill="none" stroke="#63b8ff" d="M1101.42,-231.85C1098.87,-187.37 1086.58,-97.19 1030,-55.25 979.32,-17.69 796.35,-11.21 702.06,-10.43"/>
<polygon fill="#63b8ff" stroke="#63b8ff" points="1097.91,-231.76 1101.84,-241.6 1104.9,-231.46 1097.91,-231.76"/>
</a>
</g>
</g>
<!-- Node19&#45;&gt;Node6 -->
<g id="edge46_Node000019_Node000006" class="edge">
<title>Node19&#45;&gt;Node6</title>
<g id="a_edge46_Node000019_Node000006"><a xlink:title=" ">
<path fill="none" stroke="#63b8ff" d="M310.69,-169.55C349.48,-140.05 423.12,-87.31 493,-55.25 528.37,-39.02 571.08,-27.1 602.21,-19.68"/>
<polygon fill="#63b8ff" stroke="#63b8ff" points="308.6,-166.74 302.8,-175.6 312.87,-172.29 308.6,-166.74"/>
</a>
</g>
</g>
<!-- Node20&#45;&gt;Node6 -->
<g id="edge48_Node000020_Node000006" class="edge">
<title>Node20&#45;&gt;Node6</title>
<g id="a_edge48_Node000020_Node000006"><a xlink:title=" ">
<path fill="none" stroke="#63b8ff" d="M443.17,-166.13C455.49,-135.74 480.17,-84.98 517,-55.25 539.34,-37.22 569.46,-26.24 594.87,-19.68"/>
<polygon fill="#63b8ff" stroke="#63b8ff" points="439.98,-164.69 439.61,-175.28 446.5,-167.23 439.98,-164.69"/>
</a>
</g>
</g>
<!-- Node21&#45;&gt;Node3 -->
<g id="edge51_Node000021_Node000003" class="edge">
<title>Node21&#45;&gt;Node3</title>
<g id="a_edge51_Node000021_Node000003"><a xlink:title=" ">
<path fill="none" stroke="#63b8ff" d="M1151.27,-371.91C1110.28,-355.53 1046.11,-323.55 1012,-274 996.6,-251.63 995.25,-217.99 995.57,-202.12"/>
<polygon fill="#63b8ff" stroke="#63b8ff" points="1149.91,-375.14 1160.5,-375.48 1152.44,-368.61 1149.91,-375.14"/>
</a>
</g>
</g>
<!-- Node21&#45;&gt;Node6 -->
<g id="edge61_Node000021_Node000006" class="edge">
<title>Node21&#45;&gt;Node6</title>
<g id="a_edge61_Node000021_Node000006"><a xlink:title=" ">
<path fill="none" stroke="#63b8ff" d="M1279.6,-382.79C1434.58,-376.31 1734,-351.86 1734,-259.75 1734,-259.75 1734,-259.75 1734,-124.75 1734,-19.96 926.09,-11.02 702.02,-10.55"/>
<polygon fill="#63b8ff" stroke="#63b8ff" points="1279.61,-379.29 1269.76,-383.18 1279.89,-386.28 1279.61,-379.29"/>
</a>
</g>
</g>
<!-- Node21&#45;&gt;Node18 -->
<g id="edge62_Node000021_Node000018" class="edge">
<title>Node21&#45;&gt;Node18</title>
<g id="a_edge62_Node000021_Node000018"><a xlink:title=" ">
<path fill="none" stroke="#63b8ff" d="M1176.41,-366.98C1159.03,-341.94 1128.04,-297.28 1112.09,-274.3"/>
<polygon fill="#63b8ff" stroke="#63b8ff" points="1173.3,-368.64 1181.88,-374.86 1179.05,-364.65 1173.3,-368.64"/>
</a>
</g>
</g>
<!-- Node22 -->
<g id="Node000022" class="node">
<title>Node22</title>
<g id="a_Node000022"><a xlink:href="../../d9/dd5/_general_matchers_8hpp.html" target="_top" xlink:title=" ">
<polygon fill="white" stroke="#666666" points="1333.25,-340.5 1198.75,-340.5 1198.75,-310 1333.25,-310 1333.25,-340.5"/>
<text text-anchor="start" x="1206.75" y="-327" font-family="Helvetica,sans-Serif" font-size="10.00">mimic++/matchers/General</text>
<text text-anchor="middle" x="1266" y="-315.75" font-family="Helvetica,sans-Serif" font-size="10.00">Matchers.hpp</text>
</a>
</g>
</g>
<!-- Node21&#45;&gt;Node22 -->
<g id="edge52_Node000021_Node000022" class="edge">
<title>Node21&#45;&gt;Node22</title>
<g id="a_edge52_Node000021_Node000022"><a xlink:title=" ">
<path fill="none" stroke="#63b8ff" d="M1209.67,-369.32C1221.28,-360.45 1235.67,-349.44 1246.99,-340.78"/>
<polygon fill="#63b8ff" stroke="#63b8ff" points="1207.72,-366.41 1201.9,-375.26 1211.97,-371.97 1207.72,-366.41"/>
</a>
</g>
</g>
<!-- Node24 -->
<g id="Node000024" class="node">
<title>Node24</title>
<g id="a_Node000024"><a xlink:href="../../df/df3/_range_matchers_8hpp.html" target="_top" xlink:title=" ">
<polygon fill="white" stroke="#666666" points="1503.5,-268.38 1316.5,-268.38 1316.5,-249.12 1503.5,-249.12 1503.5,-268.38"/>
<text text-anchor="middle" x="1410" y="-254.88" font-family="Helvetica,sans-Serif" font-size="10.00">mimic++/matchers/RangeMatchers.hpp</text>
</a>
</g>
</g>
<!-- Node21&#45;&gt;Node24 -->
<g id="edge60_Node000021_Node000024" class="edge">
<title>Node21&#45;&gt;Node24</title>
<g id="a_edge60_Node000021_Node000024"><a xlink:title=" ">
<path fill="none" stroke="#63b8ff" d="M1260.13,-373.5C1287.27,-366.81 1317.55,-356.43 1342,-340.5 1371.49,-321.29 1394.99,-285.47 1404.9,-268.77"/>
<polygon fill="#63b8ff" stroke="#63b8ff" points="1259.53,-370.05 1250.58,-375.72 1261.11,-376.87 1259.53,-370.05"/>
</a>
</g>
</g>
<!-- Node22&#45;&gt;Node2 -->
<g id="edge58_Node000022_Node000002" class="edge">
<title>Node22&#45;&gt;Node2</title>
<g id="a_edge58_Node000022_Node000002"><a xlink:title=" ">
<path fill="none" stroke="#63b8ff" d="M1344.53,-309.69C1412.16,-297.16 1507.64,-279.46 1564.92,-268.85"/>
<polygon fill="#63b8ff" stroke="#63b8ff" points="1344.19,-306.2 1335,-311.46 1345.47,-313.08 1344.19,-306.2"/>
</a>
</g>
</g>
<!-- Node22&#45;&gt;Node3 -->
<g id="edge53_Node000022_Node000003" class="edge">
<title>Node22&#45;&gt;Node3</title>
<g id="a_edge53_Node000022_Node000003"><a xlink:title=" ">
<path fill="none" stroke="#63b8ff" d="M1250.23,-300.22C1237.04,-282 1216.62,-257.75 1193,-243.5 1156.88,-221.71 1111.56,-209.32 1073.49,-202.29"/>
<polygon fill="#63b8ff" stroke="#63b8ff" points="1247.32,-302.18 1255.92,-308.37 1253.07,-298.17 1247.32,-302.18"/>
</a>
</g>
</g>
<!-- Node22&#45;&gt;Node6 -->
<g id="edge59_Node000022_Node000006" class="edge">
<title>Node22&#45;&gt;Node6</title>
<g id="a_edge59_Node000022_Node000006"><a xlink:title=" ">
<path fill="none" stroke="#63b8ff" d="M1255.2,-299.2C1229.59,-243.37 1159.27,-109.39 1053,-55.25 993,-24.68 799.21,-14.93 701.88,-11.91"/>
<polygon fill="#63b8ff" stroke="#63b8ff" points="1251.95,-300.5 1259.23,-308.2 1258.34,-297.64 1251.95,-300.5"/>
</a>
</g>
</g>
<!-- Node23 -->
<g id="Node000023" class="node">
<title>Node23</title>
<g id="a_Node000023"><a xlink:href="../../d1/de0/_floating_point_matchers_8hpp.html" target="_top" xlink:title=" ">
<polygon fill="white" stroke="#666666" points="1381.62,-141 1246.38,-141 1246.38,-110.5 1381.62,-110.5 1381.62,-141"/>
<text text-anchor="start" x="1254.38" y="-127.5" font-family="Helvetica,sans-Serif" font-size="10.00">mimic++/matchers/Floating</text>
<text text-anchor="middle" x="1314" y="-116.25" font-family="Helvetica,sans-Serif" font-size="10.00">PointMatchers.hpp</text>
</a>
</g>
</g>
<!-- Node22&#45;&gt;Node23 -->
<g id="edge54_Node000022_Node000023" class="edge">
<title>Node22&#45;&gt;Node23</title>
<g id="a_edge54_Node000022_Node000023"><a xlink:title=" ">
<path fill="none" stroke="#63b8ff" d="M1272.25,-298.54C1282.46,-256.54 1302.38,-174.56 1310.47,-141.29"/>
<polygon fill="#63b8ff" stroke="#63b8ff" points="1268.85,-297.71 1269.89,-308.26 1275.65,-299.37 1268.85,-297.71"/>
</a>
</g>
</g>
<!-- Node22&#45;&gt;Node24 -->
<g id="edge56_Node000022_Node000024" class="edge">
<title>Node22&#45;&gt;Node24</title>
<g id="a_edge56_Node000022_Node000024"><a xlink:title=" ">
<path fill="none" stroke="#63b8ff" d="M1308.97,-305.01C1335.77,-293 1369.02,-278.1 1389.89,-268.76"/>
<polygon fill="#63b8ff" stroke="#63b8ff" points="1307.75,-301.71 1300.06,-309 1310.61,-308.1 1307.75,-301.71"/>
</a>
</g>
</g>
<!-- Node23&#45;&gt;Node6 -->
<g id="edge55_Node000023_Node000006" class="edge">
<title>Node23&#45;&gt;Node6</title>
<g id="a_edge55_Node000023_Node000006"><a xlink:title=" ">
<path fill="none" stroke="#63b8ff" d="M1294.47,-101.87C1279.25,-85.76 1256.62,-65.35 1232,-55.25 1137.1,-16.3 830.07,-10.99 701.96,-10.52"/>
<polygon fill="#63b8ff" stroke="#63b8ff" points="1291.79,-104.12 1301.12,-109.16 1296.97,-99.41 1291.79,-104.12"/>
</a>
</g>
</g>
<!-- Node24&#45;&gt;Node6 -->
<g id="edge57_Node000024_Node000006" class="edge">
<title>Node24&#45;&gt;Node6</title>
<g id="a_edge57_Node000024_Node000006"><a xlink:title=" ">
<path fill="none" stroke="#63b8ff" d="M1413.26,-237.32C1416.99,-206.54 1419.34,-147.89 1391,-110.5 1353.08,-60.47 1322.02,-70 1261,-55.25 1155.86,-29.84 833.86,-16.77 702.1,-12.36"/>
<polygon fill="#63b8ff" stroke="#63b8ff" points="1409.8,-236.78 1411.87,-247.17 1416.73,-237.75 1409.8,-236.78"/>
</a>
</g>
</g>
<!-- Node25&#45;&gt;Node3 -->
<g id="edge65_Node000025_Node000003" class="edge">
<title>Node25&#45;&gt;Node3</title>
<g id="a_edge65_Node000025_Node000003"><a xlink:title=" ">
<path fill="none" stroke="#63b8ff" d="M902.65,-238.19C927.47,-226.24 958.04,-211.52 977.28,-202.26"/>
<polygon fill="#63b8ff" stroke="#63b8ff" points="901.26,-234.97 893.77,-242.46 904.3,-241.27 901.26,-234.97"/>
</a>
</g>
</g>
<!-- Node25&#45;&gt;Node4 -->
<g id="edge66_Node000025_Node000004" class="edge">
<title>Node25&#45;&gt;Node4</title>
<g id="a_edge66_Node000025_Node000004"><a xlink:title=" ">
<path fill="none" stroke="#63b8ff" d="M834.53,-236.33C797.21,-207.23 732.12,-156.47 705.67,-135.85"/>
<polygon fill="#63b8ff" stroke="#63b8ff" points="832.15,-238.91 842.19,-242.3 836.45,-233.39 832.15,-238.91"/>
</a>
</g>
</g>
<!-- Node25&#45;&gt;Node6 -->
<g id="edge67_Node000025_Node000006" class="edge">
<title>Node25&#45;&gt;Node6</title>
<g id="a_edge67_Node000025_Node000006"><a xlink:title=" ">
<path fill="none" stroke="#63b8ff" d="M875.54,-233.54C884.72,-217.37 897.27,-195.72 909,-177 942.03,-124.3 1018.96,-102.06 978,-55.25 942.86,-15.08 787.79,-9.54 702.22,-9.64"/>
<polygon fill="#63b8ff" stroke="#63b8ff" points="872.65,-231.54 870.78,-241.97 878.75,-234.98 872.65,-231.54"/>
</a>
</g>
</g>
</g>
</svg>

<g id="navigator" transform="translate(0 0)" fill="#404254">
  <rect fill="#f2f5e9" fill-opacity="0.5" stroke="#606060" stroke-width=".5" x="0" y="0" width="60" height="60"/>
  <use id="zoomplus" xlink:href="#zoomPlus" x="17" y="9" onmousedown="handleZoom(evt,'in')"/>
  <use id="zoomminus" xlink:href="#zoomMin" x="42" y="9" onmousedown="handleZoom(evt,'out')"/>
  <use id="reset" xlink:href="#resetDef" x="30" y="36" onmousedown="handleReset()"/>
   <use id="arrowup" xlink:href="#arrowUp" x="0" y="0" onmousedown="handlePan(0,-1)"/>
  <use id="arrowright" xlink:href="#arrowRight" x="0" y="0" onmousedown="handlePan(1,0)"/>
  <use id="arrowdown" xlink:href="#arrowDown" x="0" y="0" onmousedown="handlePan(0,1)"/>
  <use id="arrowleft" xlink:href="#arrowLeft" x="0" y="0" onmousedown="handlePan(-1,0)"/>
</g>
<svg viewBox="0 0 15 15" width="100%" height="30px" preserveAspectRatio="xMaxYMin meet">
 <g id="arrow_out" transform="scale(0.3 0.3)">
  <a xlink:href="_string_8hpp__dep__incl_org.svg" target="_base">
   <rect id="button" ry="5" rx="5" y="6" x="6" height="38" width="38"
        fill="#f2f5e9" fill-opacity="0.5" stroke="#606060" stroke-width="1.0"/>
   <path id="arrow"
     d="M 11.500037,31.436501 C 11.940474,20.09759 22.043105,11.32322 32.158766,21.979434 L 37.068811,17.246167 C 37.068811,17.246167 37.088388,32 37.088388,32 L 22.160133,31.978069 C 22.160133,31.978069 26.997745,27.140456 26.997745,27.140456 C 18.528582,18.264221 13.291696,25.230495 11.500037,31.436501 z"
     style="fill:#404040;"/>
  </a>
 </g>
</svg>

<style type='text/css'>
<![CDATA[
[data-mouse-over-selected='false'] { opacity: 0.7; }
[data-mouse-over-selected='true']  { opacity: 1.0; }
]]>
</style>
<script type="application/ecmascript"><![CDATA[
document.addEventListener('DOMContentLoaded', (event) => {
  highlightEdges();
  highlightAdjacentNodes();
});
]]></script>
</svg>
