<?xml version="1.0" encoding="UTF-8" standalone="no"?>
<!DOCTYPE svg PUBLIC "-//W3C//DTD SVG 1.1//EN"
 "http://www.w3.org/Graphics/SVG/1.1/DTD/svg11.dtd">
<!-- Generated by graphviz version 12.1.2 (20240928.0832)
 -->
<!-- Title: mimic++/String.hpp Pages: 1 -->
<svg width="973pt" height="635pt"
 viewBox="0.00 0.00 973.00 635.00" xmlns="http://www.w3.org/2000/svg" xmlns:xlink="http://www.w3.org/1999/xlink">
<g id="graph0" class="graph" transform="scale(1 1) rotate(0) translate(4 631)">
<title>mimic++/String.hpp</title>
<!-- Node1 -->
<g id="Node000001" class="node">
<title>Node1</title>
<g id="a_Node000001"><a xlink:title=" ">
<polygon fill="#999999" stroke="#666666" points="133.38,-627 32.62,-627 32.62,-607.75 133.38,-607.75 133.38,-627"/>
<text text-anchor="middle" x="83" y="-613.5" font-family="Helvetica,sans-Serif" font-size="10.00">mimic++/String.hpp</text>
</a>
</g>
</g>
<!-- Node2 -->
<g id="Node000002" class="node">
<title>Node2</title>
<g id="a_Node000002"><a xlink:href="../../dd/d50/_matcher_8hpp.html" target="_top" xlink:title=" ">
<polygon fill="white" stroke="#666666" points="138.25,-461.25 27.75,-461.25 27.75,-442 138.25,-442 138.25,-461.25"/>
<text text-anchor="middle" x="83" y="-447.75" font-family="Helvetica,sans-Serif" font-size="10.00">mimic++/Matcher.hpp</text>
</a>
</g>
</g>
<!-- Node1&#45;&gt;Node2 -->
<g id="edge1_Node000001_Node000002" class="edge">
<title>Node1&#45;&gt;Node2</title>
<g id="a_edge1_Node000001_Node000002"><a xlink:title=" ">
<path fill="none" stroke="#63b8ff" d="M83,-596.22C83,-560.36 83,-486.85 83,-461.47"/>
<polygon fill="#63b8ff" stroke="#63b8ff" points="79.5,-596.06 83,-606.06 86.5,-596.06 79.5,-596.06"/>
</a>
</g>
</g>
<!-- Node7 -->
<g id="Node000007" class="node">
<title>Node7</title>
<g id="a_Node000007"><a xlink:href="../../d0/db9/mimic_09_09_8hpp.html" target="_top" xlink:title=" ">
<polygon fill="white" stroke="#666666" points="616.75,-19.25 503.25,-19.25 503.25,0 616.75,0 616.75,-19.25"/>
<text text-anchor="middle" x="560" y="-5.75" font-family="Helvetica,sans-Serif" font-size="10.00">mimic++/mimic++.hpp</text>
</a>
</g>
</g>
<!-- Node1&#45;&gt;Node7 -->
<g id="edge38_Node000001_Node000007" class="edge">
<title>Node1&#45;&gt;Node7</title>
<g id="a_edge38_Node000001_Node000007"><a xlink:title=" ">
<path fill="none" stroke="#63b8ff" d="M60.2,-600.76C35.63,-581.89 0,-547.66 0,-507.88 0,-507.88 0,-507.88 0,-119.12 0,-17.43 360.42,-9.07 502.96,-9.75"/>
<polygon fill="#63b8ff" stroke="#63b8ff" points="57.94,-603.44 68.07,-606.55 62.09,-597.8 57.94,-603.44"/>
</a>
</g>
</g>
<!-- Node8 -->
<g id="Node000008" class="node">
<title>Node8</title>
<g id="a_Node000008"><a xlink:href="../../da/dab/_printer_8hpp.html" target="_top" xlink:title=" ">
<polygon fill="white" stroke="#666666" points="547.88,-571.75 444.12,-571.75 444.12,-552.5 547.88,-552.5 547.88,-571.75"/>
<text text-anchor="middle" x="496" y="-558.25" font-family="Helvetica,sans-Serif" font-size="10.00">mimic++/Printer.hpp</text>
</a>
</g>
</g>
<!-- Node1&#45;&gt;Node8 -->
<g id="edge12_Node000001_Node000008" class="edge">
<title>Node1&#45;&gt;Node8</title>
<g id="a_edge12_Node000001_Node000008"><a xlink:title=" ">
<path fill="none" stroke="#63b8ff" d="M144.69,-608.42C225.93,-597.95 367.36,-579.71 443.64,-569.88"/>
<polygon fill="#63b8ff" stroke="#63b8ff" points="144.61,-604.9 135.14,-609.65 145.51,-611.84 144.61,-604.9"/>
</a>
</g>
</g>
<!-- Node3 -->
<g id="Node000003" class="node">
<title>Node3</title>
<g id="a_Node000003"><a xlink:href="../../d8/de5/_expectation_policies_8hpp.html" target="_top" xlink:title=" ">
<polygon fill="white" stroke="#666666" points="387,-240.25 227,-240.25 227,-221 387,-221 387,-240.25"/>
<text text-anchor="middle" x="307" y="-226.75" font-family="Helvetica,sans-Serif" font-size="10.00">mimic++/ExpectationPolicies.hpp</text>
</a>
</g>
</g>
<!-- Node2&#45;&gt;Node3 -->
<g id="edge2_Node000002_Node000003" class="edge">
<title>Node2&#45;&gt;Node3</title>
<g id="a_edge2_Node000002_Node000003"><a xlink:title=" ">
<path fill="none" stroke="#63b8ff" d="M86.44,-430.68C91.57,-405.52 103.18,-361.88 126,-331.5 163.29,-281.86 232.84,-253.7 274.02,-240.66"/>
<polygon fill="#63b8ff" stroke="#63b8ff" points="83.06,-429.74 84.65,-440.21 89.94,-431.03 83.06,-429.74"/>
</a>
</g>
</g>
<!-- Node2&#45;&gt;Node7 -->
<g id="edge11_Node000002_Node000007" class="edge">
<title>Node2&#45;&gt;Node7</title>
<g id="a_edge11_Node000002_Node000007"><a xlink:title=" ">
<path fill="none" stroke="#63b8ff" d="M77.39,-430.75C71.78,-409.13 64,-373.46 64,-342.12 64,-342.12 64,-342.12 64,-119.12 64,-30.1 372.82,-14.01 503.1,-11.19"/>
<polygon fill="#63b8ff" stroke="#63b8ff" points="73.97,-431.52 79.96,-440.25 80.72,-429.69 73.97,-431.52"/>
</a>
</g>
</g>
<!-- Node4 -->
<g id="Node000004" class="node">
<title>Node4</title>
<g id="a_Node000004"><a xlink:href="../../d2/d4f/_expectation_builder_8hpp.html" target="_top" xlink:title=" ">
<polygon fill="white" stroke="#666666" points="674.75,-185 519.25,-185 519.25,-165.75 674.75,-165.75 674.75,-185"/>
<text text-anchor="middle" x="597" y="-171.5" font-family="Helvetica,sans-Serif" font-size="10.00">mimic++/ExpectationBuilder.hpp</text>
</a>
</g>
</g>
<!-- Node3&#45;&gt;Node4 -->
<g id="edge3_Node000003_Node000004" class="edge">
<title>Node3&#45;&gt;Node4</title>
<g id="a_edge3_Node000003_Node000004"><a xlink:title=" ">
<path fill="none" stroke="#63b8ff" d="M367.55,-218.51C420.99,-208.69 497.92,-194.57 547.68,-185.43"/>
<polygon fill="#63b8ff" stroke="#63b8ff" points="367.22,-215.01 358.01,-220.26 368.48,-221.89 367.22,-215.01"/>
</a>
</g>
</g>
<!-- Node5 -->
<g id="Node000005" class="node">
<title>Node5</title>
<g id="a_Node000005"><a xlink:href="../../d5/dc5/_mock_8hpp.html" target="_top" xlink:title=" ">
<polygon fill="white" stroke="#666666" points="561.62,-129.75 462.38,-129.75 462.38,-110.5 561.62,-110.5 561.62,-129.75"/>
<text text-anchor="middle" x="512" y="-116.25" font-family="Helvetica,sans-Serif" font-size="10.00">mimic++/Mock.hpp</text>
</a>
</g>
</g>
<!-- Node3&#45;&gt;Node5 -->
<g id="edge9_Node000003_Node000005" class="edge">
<title>Node3&#45;&gt;Node5</title>
<g id="a_edge9_Node000003_Node000005"><a xlink:title=" ">
<path fill="none" stroke="#63b8ff" d="M334.12,-215.27C376.97,-192.59 459.12,-149.11 494.78,-130.24"/>
<polygon fill="#63b8ff" stroke="#63b8ff" points="332.66,-212.08 325.46,-219.85 335.94,-218.27 332.66,-212.08"/>
</a>
</g>
</g>
<!-- Node3&#45;&gt;Node7 -->
<g id="edge10_Node000003_Node000007" class="edge">
<title>Node3&#45;&gt;Node7</title>
<g id="a_edge10_Node000003_Node000007"><a xlink:title=" ">
<path fill="none" stroke="#63b8ff" d="M312.11,-209.79C322.51,-173.51 349.6,-96.39 401,-55.25 429.87,-32.14 470.02,-20.99 502.75,-15.61"/>
<polygon fill="#63b8ff" stroke="#63b8ff" points="308.77,-208.77 309.52,-219.34 315.52,-210.61 308.77,-208.77"/>
</a>
</g>
</g>
<!-- Node4&#45;&gt;Node5 -->
<g id="edge4_Node000004_Node000005" class="edge">
<title>Node4&#45;&gt;Node5</title>
<g id="a_edge4_Node000004_Node000005"><a xlink:title=" ">
<path fill="none" stroke="#63b8ff" d="M572.94,-159.3C557.97,-149.92 539.21,-138.17 526.49,-130.2"/>
<polygon fill="#63b8ff" stroke="#63b8ff" points="570.97,-162.2 581.3,-164.54 574.68,-156.26 570.97,-162.2"/>
</a>
</g>
</g>
<!-- Node4&#45;&gt;Node7 -->
<g id="edge8_Node000004_Node000007" class="edge">
<title>Node4&#45;&gt;Node7</title>
<g id="a_edge8_Node000004_Node000007"><a xlink:title=" ">
<path fill="none" stroke="#63b8ff" d="M603.88,-154.54C611.15,-130.14 619.83,-87.93 606,-55.25 599.58,-40.08 585.21,-27.54 574.23,-19.65"/>
<polygon fill="#63b8ff" stroke="#63b8ff" points="600.62,-153.22 600.89,-163.81 607.29,-155.37 600.62,-153.22"/>
</a>
</g>
</g>
<!-- Node6 -->
<g id="Node000006" class="node">
<title>Node6</title>
<g id="a_Node000006"><a xlink:href="../../d9/dc3/_interface_mock_8hpp.html" target="_top" xlink:title=" ">
<polygon fill="white" stroke="#666666" points="580.75,-74.5 443.25,-74.5 443.25,-55.25 580.75,-55.25 580.75,-74.5"/>
<text text-anchor="middle" x="512" y="-61" font-family="Helvetica,sans-Serif" font-size="10.00">mimic++/InterfaceMock.hpp</text>
</a>
</g>
</g>
<!-- Node5&#45;&gt;Node6 -->
<g id="edge5_Node000005_Node000006" class="edge">
<title>Node5&#45;&gt;Node6</title>
<g id="a_edge5_Node000005_Node000006"><a xlink:title=" ">
<path fill="none" stroke="#63b8ff" d="M512,-98.88C512,-90.59 512,-81.42 512,-74.86"/>
<polygon fill="#63b8ff" stroke="#63b8ff" points="508.5,-98.82 512,-108.82 515.5,-98.82 508.5,-98.82"/>
</a>
</g>
</g>
<!-- Node5&#45;&gt;Node7 -->
<g id="edge7_Node000005_Node000007" class="edge">
<title>Node5&#45;&gt;Node7</title>
<g id="a_edge7_Node000005_Node000007"><a xlink:title=" ">
<path fill="none" stroke="#63b8ff" d="M552.98,-105.58C567.29,-98.65 581.81,-88.62 590,-74.5 600.94,-55.64 582.16,-32.12 569.71,-19.55"/>
<polygon fill="#63b8ff" stroke="#63b8ff" points="551.83,-102.26 544.08,-109.48 554.64,-108.67 551.83,-102.26"/>
</a>
</g>
</g>
<!-- Node6&#45;&gt;Node7 -->
<g id="edge6_Node000006_Node000007" class="edge">
<title>Node6&#45;&gt;Node7</title>
<g id="a_edge6_Node000006_Node000007"><a xlink:title=" ">
<path fill="none" stroke="#63b8ff" d="M527.4,-46.79C535.55,-37.75 545.22,-27.02 551.9,-19.61"/>
<polygon fill="#63b8ff" stroke="#63b8ff" points="525.04,-44.19 520.94,-53.96 530.23,-48.87 525.04,-44.19"/>
</a>
</g>
</g>
<!-- Node8&#45;&gt;Node2 -->
<g id="edge14_Node000008_Node000002" class="edge">
<title>Node8&#45;&gt;Node2</title>
<g id="a_edge14_Node000008_Node000002"><a xlink:title=" ">
<path fill="none" stroke="#63b8ff" d="M432.58,-557.51C347.21,-551.87 200.43,-539.18 152,-516.5 124.5,-503.62 100.54,-475.74 89.49,-461.45"/>
<polygon fill="#63b8ff" stroke="#63b8ff" points="432.23,-561 442.44,-558.15 432.68,-554.01 432.23,-561"/>
</a>
</g>
</g>
<!-- Node8&#45;&gt;Node3 -->
<g id="edge13_Node000008_Node000003" class="edge">
<title>Node8&#45;&gt;Node3</title>
<g id="a_edge13_Node000008_Node000003"><a xlink:title=" ">
<path fill="none" stroke="#63b8ff" d="M444.7,-549.05C379.38,-530.62 269.22,-488.55 221,-406 185.25,-344.79 266.02,-266.66 296.2,-240.56"/>
<polygon fill="#63b8ff" stroke="#63b8ff" points="443.53,-552.37 454.1,-551.62 445.38,-545.61 443.53,-552.37"/>
</a>
</g>
</g>
<!-- Node8&#45;&gt;Node7 -->
<g id="edge37_Node000008_Node000007" class="edge">
<title>Node8&#45;&gt;Node7</title>
<g id="a_edge37_Node000008_Node000007"><a xlink:title=" ">
<path fill="none" stroke="#63b8ff" d="M559.15,-559.61C687.12,-554.83 965,-534.97 965,-452.62 965,-452.62 965,-452.62 965,-119.12 965,-47.97 728.81,-22.22 617.17,-14.02"/>
<polygon fill="#63b8ff" stroke="#63b8ff" points="559.37,-556.1 549.5,-559.95 559.61,-563.1 559.37,-556.1"/>
</a>
</g>
</g>
<!-- Node9 -->
<g id="Node000009" class="node">
<title>Node9</title>
<g id="a_Node000009"><a xlink:href="../../da/dd9/_reporter_8hpp.html" target="_top" xlink:title=" ">
<polygon fill="white" stroke="#666666" points="552,-461.25 440,-461.25 440,-442 552,-442 552,-461.25"/>
<text text-anchor="middle" x="496" y="-447.75" font-family="Helvetica,sans-Serif" font-size="10.00">mimic++/Reporter.hpp</text>
</a>
</g>
</g>
<!-- Node8&#45;&gt;Node9 -->
<g id="edge15_Node000008_Node000009" class="edge">
<title>Node8&#45;&gt;Node9</title>
<g id="a_edge15_Node000008_Node000009"><a xlink:title=" ">
<path fill="none" stroke="#63b8ff" d="M496,-540.78C496,-517.05 496,-478.89 496,-461.63"/>
<polygon fill="#63b8ff" stroke="#63b8ff" points="492.5,-540.73 496,-550.73 499.5,-540.73 492.5,-540.73"/>
</a>
</g>
</g>
<!-- Node11 -->
<g id="Node000011" class="node">
<title>Node11</title>
<g id="a_Node000011"><a xlink:href="../../d8/de4/_sequence_8hpp.html" target="_top" xlink:title=" ">
<polygon fill="white" stroke="#666666" points="899.38,-406 780.62,-406 780.62,-386.75 899.38,-386.75 899.38,-406"/>
<text text-anchor="middle" x="840" y="-392.5" font-family="Helvetica,sans-Serif" font-size="10.00">mimic++/Sequence.hpp</text>
</a>
</g>
</g>
<!-- Node8&#45;&gt;Node11 -->
<g id="edge36_Node000008_Node000011" class="edge">
<title>Node8&#45;&gt;Node11</title>
<g id="a_edge36_Node000008_Node000011"><a xlink:title=" ">
<path fill="none" stroke="#63b8ff" d="M559.43,-559.71C608.7,-556.18 677.28,-545.77 730,-516.5 780.45,-488.49 820.64,-428.95 834.65,-406.34"/>
<polygon fill="#63b8ff" stroke="#63b8ff" points="559.25,-556.21 549.49,-560.34 559.69,-563.2 559.25,-556.21"/>
</a>
</g>
</g>
<!-- Node16 -->
<g id="Node000016" class="node">
<title>Node16</title>
<g id="a_Node000016"><a xlink:href="../../d0/d3b/_reports_8hpp.html" target="_top" xlink:title=" ">
<polygon fill="white" stroke="#666666" points="720.5,-516.5 611.5,-516.5 611.5,-497.25 720.5,-497.25 720.5,-516.5"/>
<text text-anchor="middle" x="666" y="-503" font-family="Helvetica,sans-Serif" font-size="10.00">mimic++/Reports.hpp</text>
</a>
</g>
</g>
<!-- Node8&#45;&gt;Node16 -->
<g id="edge32_Node000008_Node000016" class="edge">
<title>Node8&#45;&gt;Node16</title>
<g id="a_edge32_Node000008_Node000016"><a xlink:title=" ">
<path fill="none" stroke="#63b8ff" d="M535.71,-548.69C566.73,-538.97 609.13,-525.69 637.02,-516.95"/>
<polygon fill="#63b8ff" stroke="#63b8ff" points="534.78,-545.31 526.28,-551.64 536.87,-551.99 534.78,-545.31"/>
</a>
</g>
</g>
<!-- Node9&#45;&gt;Node7 -->
<g id="edge31_Node000009_Node000007" class="edge">
<title>Node9&#45;&gt;Node7</title>
<g id="a_edge31_Node000009_Node000007"><a xlink:title=" ">
<path fill="none" stroke="#63b8ff" d="M428.37,-445.8C358.31,-439.74 254.47,-427.43 221,-406 192.18,-387.54 178,-376.35 178,-342.12 178,-342.12 178,-342.12 178,-119.12 178,-52.42 396.25,-24.57 502.81,-14.94"/>
<polygon fill="#63b8ff" stroke="#63b8ff" points="427.97,-449.28 438.23,-446.63 428.56,-442.31 427.97,-449.28"/>
</a>
</g>
</g>
<!-- Node10 -->
<g id="Node000010" class="node">
<title>Node10</title>
<g id="a_Node000010"><a xlink:href="../../d5/d8a/_expectation_8hpp.html" target="_top" xlink:title=" ">
<polygon fill="white" stroke="#666666" points="515.75,-295.5 390.25,-295.5 390.25,-276.25 515.75,-276.25 515.75,-295.5"/>
<text text-anchor="middle" x="453" y="-282" font-family="Helvetica,sans-Serif" font-size="10.00">mimic++/Expectation.hpp</text>
</a>
</g>
</g>
<!-- Node9&#45;&gt;Node10 -->
<g id="edge16_Node000009_Node000010" class="edge">
<title>Node9&#45;&gt;Node10</title>
<g id="a_edge16_Node000009_Node000010"><a xlink:title=" ">
<path fill="none" stroke="#63b8ff" d="M428.36,-448.63C359.43,-445.01 259.29,-434.79 235,-406 184.39,-346 315.92,-311.1 396.2,-295.94"/>
<polygon fill="#63b8ff" stroke="#63b8ff" points="427.9,-452.11 438.06,-449.11 428.24,-445.12 427.9,-452.11"/>
</a>
</g>
</g>
<!-- Node9&#45;&gt;Node11 -->
<g id="edge21_Node000009_Node000011" class="edge">
<title>Node9&#45;&gt;Node11</title>
<g id="a_edge21_Node000009_Node000011"><a xlink:title=" ">
<path fill="none" stroke="#63b8ff" d="M563.5,-440.18C626.91,-430.36 720.85,-415.82 781.25,-406.47"/>
<polygon fill="#63b8ff" stroke="#63b8ff" points="563.26,-436.67 553.92,-441.66 564.33,-443.59 563.26,-436.67"/>
</a>
</g>
</g>
<!-- Node13 -->
<g id="Node000013" class="node">
<title>Node13</title>
<g id="a_Node000013"><a xlink:href="../../d9/d42/_boost_test_8hpp.html" target="_top" xlink:title=" ">
<polygon fill="white" stroke="#666666" points="404.38,-406 243.62,-406 243.62,-386.75 404.38,-386.75 404.38,-406"/>
<text text-anchor="middle" x="324" y="-392.5" font-family="Helvetica,sans-Serif" font-size="10.00">mimic++/adapters/BoostTest.hpp</text>
</a>
</g>
</g>
<!-- Node9&#45;&gt;Node13 -->
<g id="edge28_Node000009_Node000013" class="edge">
<title>Node9&#45;&gt;Node13</title>
<g id="a_edge28_Node000009_Node000013"><a xlink:title=" ">
<path fill="none" stroke="#63b8ff" d="M455.83,-438.19C424.44,-428.47 381.54,-415.19 353.32,-406.45"/>
<polygon fill="#63b8ff" stroke="#63b8ff" points="454.79,-441.53 465.38,-441.14 456.86,-434.84 454.79,-441.53"/>
</a>
</g>
</g>
<!-- Node14 -->
<g id="Node000014" class="node">
<title>Node14</title>
<g id="a_Node000014"><a xlink:href="../../d3/d04/_catch2_8hpp.html" target="_top" xlink:title=" ">
<polygon fill="white" stroke="#666666" points="569.25,-406 422.75,-406 422.75,-386.75 569.25,-386.75 569.25,-406"/>
<text text-anchor="middle" x="496" y="-392.5" font-family="Helvetica,sans-Serif" font-size="10.00">mimic++/adapters/Catch2.hpp</text>
</a>
</g>
</g>
<!-- Node9&#45;&gt;Node14 -->
<g id="edge29_Node000009_Node000014" class="edge">
<title>Node9&#45;&gt;Node14</title>
<g id="a_edge29_Node000009_Node000014"><a xlink:title=" ">
<path fill="none" stroke="#63b8ff" d="M496,-430.38C496,-422.09 496,-412.92 496,-406.36"/>
<polygon fill="#63b8ff" stroke="#63b8ff" points="492.5,-430.32 496,-440.32 499.5,-430.32 492.5,-430.32"/>
</a>
</g>
</g>
<!-- Node15 -->
<g id="Node000015" class="node">
<title>Node15</title>
<g id="a_Node000015"><a xlink:href="../../d5/db1/gtest_8hpp.html" target="_top" xlink:title=" ">
<polygon fill="white" stroke="#666666" points="724.75,-406 587.25,-406 587.25,-386.75 724.75,-386.75 724.75,-406"/>
<text text-anchor="middle" x="656" y="-392.5" font-family="Helvetica,sans-Serif" font-size="10.00">mimic++/adapters/gtest.hpp</text>
</a>
</g>
</g>
<!-- Node9&#45;&gt;Node15 -->
<g id="edge30_Node000009_Node000015" class="edge">
<title>Node9&#45;&gt;Node15</title>
<g id="a_edge30_Node000009_Node000015"><a xlink:title=" ">
<path fill="none" stroke="#63b8ff" d="M533.76,-438.06C562.92,-428.35 602.59,-415.15 628.73,-406.45"/>
<polygon fill="#63b8ff" stroke="#63b8ff" points="532.96,-434.64 524.58,-441.11 535.17,-441.28 532.96,-434.64"/>
</a>
</g>
</g>
<!-- Node10&#45;&gt;Node3 -->
<g id="edge18_Node000010_Node000003" class="edge">
<title>Node10&#45;&gt;Node3</title>
<g id="a_edge18_Node000010_Node000003"><a xlink:title=" ">
<path fill="none" stroke="#63b8ff" d="M417.49,-271.92C390.98,-262.25 355.42,-249.29 331.89,-240.7"/>
<polygon fill="#63b8ff" stroke="#63b8ff" points="416.22,-275.18 426.81,-275.32 418.62,-268.61 416.22,-275.18"/>
</a>
</g>
</g>
<!-- Node10&#45;&gt;Node4 -->
<g id="edge17_Node000010_Node000004" class="edge">
<title>Node10&#45;&gt;Node4</title>
<g id="a_edge17_Node000010_Node000004"><a xlink:title=" ">
<path fill="none" stroke="#63b8ff" d="M473.74,-269.25C504.33,-246.2 560.55,-203.84 585.05,-185.38"/>
<polygon fill="#63b8ff" stroke="#63b8ff" points="471.87,-266.27 465.99,-275.09 476.09,-271.86 471.87,-266.27"/>
</a>
</g>
</g>
<!-- Node10&#45;&gt;Node5 -->
<g id="edge19_Node000010_Node000005" class="edge">
<title>Node10&#45;&gt;Node5</title>
<g id="a_edge19_Node000010_Node000005"><a xlink:title=" ">
<path fill="none" stroke="#63b8ff" d="M459.92,-265.66C472.72,-230.15 499.59,-155.57 508.81,-129.97"/>
<polygon fill="#63b8ff" stroke="#63b8ff" points="456.78,-264.05 456.69,-274.65 463.37,-266.43 456.78,-264.05"/>
</a>
</g>
</g>
<!-- Node10&#45;&gt;Node7 -->
<g id="edge20_Node000010_Node000007" class="edge">
<title>Node10&#45;&gt;Node7</title>
<g id="a_edge20_Node000010_Node000007"><a xlink:title=" ">
<path fill="none" stroke="#63b8ff" d="M442.07,-266.09C430.84,-244.99 415,-209.37 415,-176.38 415,-176.38 415,-176.38 415,-119.12 415,-89.51 413.6,-76.72 434,-55.25 452.06,-36.24 478.73,-25.32 502.88,-19.05"/>
<polygon fill="#63b8ff" stroke="#63b8ff" points="438.9,-267.6 446.82,-274.64 445.02,-264.2 438.9,-267.6"/>
</a>
</g>
</g>
<!-- Node11&#45;&gt;Node4 -->
<g id="edge26_Node000011_Node000004" class="edge">
<title>Node11&#45;&gt;Node4</title>
<g id="a_edge26_Node000011_Node000004"><a xlink:title=" ">
<path fill="none" stroke="#63b8ff" d="M819.61,-379.36C809.13,-371 796.23,-360.5 785,-350.75 714.39,-289.48 633.12,-211.39 606.19,-185.31"/>
<polygon fill="#63b8ff" stroke="#63b8ff" points="817.25,-381.95 827.26,-385.42 821.59,-376.47 817.25,-381.95"/>
</a>
</g>
</g>
<!-- Node11&#45;&gt;Node7 -->
<g id="edge27_Node000011_Node000007" class="edge">
<title>Node11&#45;&gt;Node7</title>
<g id="a_edge27_Node000011_Node000007"><a xlink:title=" ">
<path fill="none" stroke="#63b8ff" d="M828.21,-376.7C816.09,-355.7 799,-320.16 799,-286.88 799,-286.88 799,-286.88 799,-119.12 799,-39.61 687.95,-18.08 617.25,-12.44"/>
<polygon fill="#63b8ff" stroke="#63b8ff" points="825.18,-378.47 833.34,-385.22 831.18,-374.85 825.18,-378.47"/>
</a>
</g>
</g>
<!-- Node12 -->
<g id="Node000012" class="node">
<title>Node12</title>
<g id="a_Node000012"><a xlink:href="../../d6/d17/_control_policy_8hpp.html" target="_top" xlink:title=" ">
<polygon fill="white" stroke="#666666" points="713.12,-350.75 580.88,-350.75 580.88,-331.5 713.12,-331.5 713.12,-350.75"/>
<text text-anchor="middle" x="647" y="-337.25" font-family="Helvetica,sans-Serif" font-size="10.00">mimic++/ControlPolicy.hpp</text>
</a>
</g>
</g>
<!-- Node11&#45;&gt;Node12 -->
<g id="edge22_Node000011_Node000012" class="edge">
<title>Node11&#45;&gt;Node12</title>
<g id="a_edge22_Node000011_Node000012"><a xlink:title=" ">
<path fill="none" stroke="#63b8ff" d="M796.31,-383.32C760.97,-373.57 711.98,-360.05 679.9,-351.2"/>
<polygon fill="#63b8ff" stroke="#63b8ff" points="795.23,-386.65 805.8,-385.94 797.09,-379.91 795.23,-386.65"/>
</a>
</g>
</g>
<!-- Node12&#45;&gt;Node4 -->
<g id="edge24_Node000012_Node000004" class="edge">
<title>Node12&#45;&gt;Node4</title>
<g id="a_edge24_Node000012_Node000004"><a xlink:title=" ">
<path fill="none" stroke="#63b8ff" d="M640.99,-320.44C630.09,-284.75 607.48,-210.71 599.7,-185.22"/>
<polygon fill="#63b8ff" stroke="#63b8ff" points="637.6,-321.33 643.87,-329.87 644.3,-319.29 637.6,-321.33"/>
</a>
</g>
</g>
<!-- Node12&#45;&gt;Node7 -->
<g id="edge25_Node000012_Node000007" class="edge">
<title>Node12&#45;&gt;Node7</title>
<g id="a_edge25_Node000012_Node000007"><a xlink:title=" ">
<path fill="none" stroke="#63b8ff" d="M662.94,-322.32C679.49,-301.93 703,-266.78 703,-231.62 703,-231.62 703,-231.62 703,-119.12 703,-64.28 635.41,-33.56 593.17,-19.72"/>
<polygon fill="#63b8ff" stroke="#63b8ff" points="660.29,-320.04 656.48,-329.93 665.62,-324.57 660.29,-320.04"/>
</a>
</g>
</g>
<!-- Node12&#45;&gt;Node10 -->
<g id="edge23_Node000012_Node000010" class="edge">
<title>Node12&#45;&gt;Node10</title>
<g id="a_edge23_Node000012_Node000010"><a xlink:title=" ">
<path fill="none" stroke="#63b8ff" d="M603.08,-328.07C567.56,-318.32 518.32,-304.8 486.07,-295.95"/>
<polygon fill="#63b8ff" stroke="#63b8ff" points="602.06,-331.42 612.63,-330.69 603.91,-324.67 602.06,-331.42"/>
</a>
</g>
</g>
<!-- Node16&#45;&gt;Node7 -->
<g id="edge35_Node000016_Node000007" class="edge">
<title>Node16&#45;&gt;Node7</title>
<g id="a_edge35_Node000016_Node000007"><a xlink:title=" ">
<path fill="none" stroke="#63b8ff" d="M731.81,-505.76C809.13,-501.75 927,-481.8 927,-397.38 927,-397.38 927,-397.38 927,-119.12 927,-55.26 720.02,-26.13 616.94,-15.58"/>
<polygon fill="#63b8ff" stroke="#63b8ff" points="732.07,-502.25 722.23,-506.18 732.37,-509.24 732.07,-502.25"/>
</a>
</g>
</g>
<!-- Node16&#45;&gt;Node9 -->
<g id="edge34_Node000016_Node000009" class="edge">
<title>Node16&#45;&gt;Node9</title>
<g id="a_edge34_Node000016_Node000009"><a xlink:title=" ">
<path fill="none" stroke="#63b8ff" d="M626.29,-493.44C595.27,-483.72 552.87,-470.44 524.98,-461.7"/>
<polygon fill="#63b8ff" stroke="#63b8ff" points="625.13,-496.74 635.72,-496.39 627.22,-490.06 625.13,-496.74"/>
</a>
</g>
</g>
<!-- Node16&#45;&gt;Node12 -->
<g id="edge33_Node000016_Node000012" class="edge">
<title>Node16&#45;&gt;Node12</title>
<g id="a_edge33_Node000016_Node000012"><a xlink:title=" ">
<path fill="none" stroke="#63b8ff" d="M686.88,-489.82C714.22,-466.77 756.2,-423.08 734,-386.75 723.03,-368.79 702.27,-357.76 683.79,-351.16"/>
<polygon fill="#63b8ff" stroke="#63b8ff" points="685.02,-486.83 679.46,-495.85 689.43,-492.26 685.02,-486.83"/>
</a>
</g>
</g>
</g>
</svg>
