<?xml version="1.0" encoding="UTF-8" standalone="no"?>
<!DOCTYPE svg PUBLIC "-//W3C//DTD SVG 1.1//EN"
 "http://www.w3.org/Graphics/SVG/1.1/DTD/svg11.dtd">
<!-- Generated by graphviz version 12.2.1 (20241206.2353)
 -->
<!-- Title: mimic++/String.hpp Pages: 1 -->
<!--zoomable 680 -->

<svg id="main" version="1.1" xmlns="http://www.w3.org/2000/svg" xmlns:xlink="http://www.w3.org/1999/xlink" xml:space="preserve" onload="init(evt)">

<style type="text/css"><![CDATA[
.node, .edge {opacity: 0.7;}
.node.selected, .edge.selected {opacity: 1;}
.edge:hover path { stroke: red; }
.edge:hover polygon { stroke: red; fill: red; }
]]></style>

<defs>
  <circle id="rim" cx="0" cy="0" r="7"/>
  <circle id="rim2" cx="0" cy="0" r="3.5"/>
  <g id="zoomPlus">
    <use xlink:href="#rim" fill="#404040"><set attributeName="fill" to="#808080" begin="zoomplus.mouseover" end="zoomplus.mouseout"/></use>
    <path d="M-4,0h8M0,-4v8" fill="none" stroke="white" stroke-width="1.5" pointer-events="none"/>
  </g>
  <g id="zoomMin">
    <use xlink:href="#rim" fill="#404040"><set attributeName="fill" to="#808080" begin="zoomminus.mouseover" end="zoomminus.mouseout"/></use>
    <path d="M-4,0h8" fill="none" stroke="white" stroke-width="1.5" pointer-events="none"/>
  </g>
  <g id="arrowUp" transform="translate(30 24)">
    <use xlink:href="#rim"/>
    <path pointer-events="none" fill="none" stroke="white" stroke-width="1.5" d="M0,-3.0v7 M-2.5,-0.5L0,-3.0L2.5,-0.5"/>
  </g>
  <g id="arrowRight" transform="rotate(90) translate(36 -43)">
    <use xlink:href="#rim"/>
    <path pointer-events="none" fill="none" stroke="white" stroke-width="1.5" d="M0,-3.0v7 M-2.5,-0.5L0,-3.0L2.5,-0.5"/>
  </g>
  <g id="arrowDown" transform="rotate(180) translate(-30 -48)">
    <use xlink:href="#rim"/>
    <path pointer-events="none" fill="none" stroke="white" stroke-width="1.5" d="M0,-3.0v7 M-2.5,-0.5L0,-3.0L2.5,-0.5"/>
  </g>
  <g id="arrowLeft" transform="rotate(270) translate(-36 17)">
    <use xlink:href="#rim"/>
    <path pointer-events="none" fill="none" stroke="white" stroke-width="1.5" d="M0,-3.0v7 M-2.5,-0.5L0,-3.0L2.5,-0.5"/>
  </g>
  <g id="resetDef">
    <use xlink:href="#rim2" fill="#404040"><set attributeName="fill" to="#808080" begin="reset.mouseover" end="reset.mouseout"/></use>
  </g>
</defs>
<script type="application/ecmascript">
var viewWidth = 1846;
var viewHeight = 680;
var sectionId = 'dynsection-1';
</script>
<script type="application/ecmascript" xlink:href="../../svg.min.js"/>
<svg id="graph" class="graph">
<g id="viewport">
<title>mimic++/String.hpp</title>
<!-- Node1 -->
<g id="Node000001" class="node">
<title>Node1</title>
<g id="a_Node000001"><a xlink:title=" ">
<polygon fill="#999999" stroke="#666666" points="497.33,-672 396.58,-672 396.58,-652.75 497.33,-652.75 497.33,-672"/>
<text text-anchor="middle" x="446.96" y="-658.5" font-family="Helvetica,sans-Serif" font-size="10.00">mimic++/String.hpp</text>
</a>
</g>
</g>
<!-- Node2 -->
<g id="Node000002" class="node">
<title>Node2</title>
<g id="a_Node000002"><a xlink:href="../../d2/d56/_string_matchers_8hpp.html" target="_top" xlink:title=" ">
<polygon fill="white" stroke="#666666" points="539.33,-268.38 354.58,-268.38 354.58,-249.12 539.33,-249.12 539.33,-268.38"/>
<text text-anchor="middle" x="446.96" y="-254.88" font-family="Helvetica,sans-Serif" font-size="10.00">mimic++/matchers/StringMatchers.hpp</text>
</a>
</g>
</g>
<!-- Node1&#45;&gt;Node2 -->
<g id="edge1_Node000001_Node000002" class="edge">
<title>Node1&#45;&gt;Node2</title>
<g id="a_edge1_Node000001_Node000002"><a xlink:title=" ">
<path fill="none" stroke="#63b8ff" d="M446.96,-641.01C446.96,-619.2 446.96,-583.59 446.96,-552.88 446.96,-552.88 446.96,-552.88 446.96,-385.12 446.96,-341.59 446.96,-289.56 446.96,-268.87"/>
<polygon fill="#63b8ff" stroke="#63b8ff" points="443.46,-640.86 446.96,-650.86 450.46,-640.86 443.46,-640.86"/>
</a>
</g>
</g>
<!-- Node6 -->
<g id="Node000006" class="node">
<title>Node6</title>
<g id="a_Node000006"><a xlink:href="../../d0/db9/mimic_09_09_8hpp.html" target="_top" xlink:title=" ">
<polygon fill="white" stroke="#666666" points="1050.71,-19.25 937.21,-19.25 937.21,0 1050.71,0 1050.71,-19.25"/>
<text text-anchor="middle" x="993.96" y="-5.75" font-family="Helvetica,sans-Serif" font-size="10.00">mimic++/mimic++.hpp</text>
</a>
</g>
</g>
<!-- Node1&#45;&gt;Node6 -->
<g id="edge11_Node000001_Node000006" class="edge">
<title>Node1&#45;&gt;Node6</title>
<g id="a_edge11_Node000001_Node000006"><a xlink:title=" ">
<path fill="none" stroke="#63b8ff" d="M385.2,-658.96C264.05,-652.55 6.96,-629.86 6.96,-552.88 6.96,-552.88 6.96,-552.88 6.96,-124.75 6.96,-108.3 -44.97,-104.77 137.96,-55.25 289.14,-14.32 770.46,-10.53 936.77,-10.47"/>
<polygon fill="#63b8ff" stroke="#63b8ff" points="384.81,-662.45 394.97,-659.46 385.16,-655.46 384.81,-662.45"/>
</a>
</g>
</g>
<!-- Node8 -->
<g id="Node000008" class="node">
<title>Node8</title>
<g id="a_Node000008"><a xlink:href="../../de/d62/_state_printer_8hpp.html" target="_top" xlink:title=" ">
<polygon fill="white" stroke="#666666" points="915.71,-616.75 754.21,-616.75 754.21,-597.5 915.71,-597.5 915.71,-616.75"/>
<text text-anchor="middle" x="834.96" y="-603.25" font-family="Helvetica,sans-Serif" font-size="10.00">mimic++/printing/StatePrinter.hpp</text>
</a>
</g>
</g>
<!-- Node1&#45;&gt;Node8 -->
<g id="edge12_Node000001_Node000008" class="edge">
<title>Node1&#45;&gt;Node8</title>
<g id="a_edge12_Node000001_Node000008"><a xlink:title=" ">
<path fill="none" stroke="#63b8ff" d="M508.67,-652.9C579.66,-643.16 695.76,-627.23 768.63,-617.23"/>
<polygon fill="#63b8ff" stroke="#63b8ff" points="508.61,-649.38 499.18,-654.21 509.56,-656.32 508.61,-649.38"/>
</a>
</g>
</g>
<!-- Node3 -->
<g id="Node000003" class="node">
<title>Node3</title>
<g id="a_Node000003"><a xlink:href="../../d2/d4f/_expectation_builder_8hpp.html" target="_top" xlink:title=" ">
<polygon fill="white" stroke="#666666" points="927.71,-201.88 772.21,-201.88 772.21,-182.62 927.71,-182.62 927.71,-201.88"/>
<text text-anchor="middle" x="849.96" y="-188.38" font-family="Helvetica,sans-Serif" font-size="10.00">mimic++/ExpectationBuilder.hpp</text>
</a>
</g>
</g>
<!-- Node2&#45;&gt;Node3 -->
<g id="edge2_Node000002_Node000003" class="edge">
<title>Node2&#45;&gt;Node3</title>
<g id="a_edge2_Node000002_Node000003"><a xlink:title=" ">
<path fill="none" stroke="#63b8ff" d="M515,-246.86C593.14,-234.35 719.91,-214.06 793.03,-202.36"/>
<polygon fill="#63b8ff" stroke="#63b8ff" points="514.66,-243.37 505.34,-248.41 515.76,-250.28 514.66,-243.37"/>
</a>
</g>
</g>
<!-- Node2&#45;&gt;Node6 -->
<g id="edge10_Node000002_Node000006" class="edge">
<title>Node2&#45;&gt;Node6</title>
<g id="a_edge10_Node000002_Node000006"><a xlink:title=" ">
<path fill="none" stroke="#63b8ff" d="M452.44,-237.98C465.21,-196.13 501.17,-98.85 569.96,-55.25 629.58,-17.46 835.76,-11.21 936.98,-10.48"/>
<polygon fill="#63b8ff" stroke="#63b8ff" points="449.14,-236.83 449.7,-247.41 455.86,-238.79 449.14,-236.83"/>
</a>
</g>
</g>
<!-- Node4 -->
<g id="Node000004" class="node">
<title>Node4</title>
<g id="a_Node000004"><a xlink:href="../../d5/dc5/_mock_8hpp.html" target="_top" xlink:title=" ">
<polygon fill="white" stroke="#666666" points="827.58,-135.38 728.33,-135.38 728.33,-116.12 827.58,-116.12 827.58,-135.38"/>
<text text-anchor="middle" x="777.96" y="-121.88" font-family="Helvetica,sans-Serif" font-size="10.00">mimic++/Mock.hpp</text>
</a>
</g>
</g>
<!-- Node3&#45;&gt;Node4 -->
<g id="edge3_Node000003_Node000004" class="edge">
<title>Node3&#45;&gt;Node4</title>
<g id="a_edge3_Node000003_Node000004"><a xlink:title=" ">
<path fill="none" stroke="#63b8ff" d="M831.6,-174.81C817.7,-162.36 799.13,-145.72 787.88,-135.64"/>
<polygon fill="#63b8ff" stroke="#63b8ff" points="829.03,-177.21 838.82,-181.27 833.7,-171.99 829.03,-177.21"/>
</a>
</g>
</g>
<!-- Node3&#45;&gt;Node6 -->
<g id="edge9_Node000003_Node000006" class="edge">
<title>Node3&#45;&gt;Node6</title>
<g id="a_edge9_Node000003_Node000006"><a xlink:title=" ">
<path fill="none" stroke="#63b8ff" d="M863.95,-173.69C894.06,-135.92 964.08,-48.1 986.74,-19.67"/>
<polygon fill="#63b8ff" stroke="#63b8ff" points="861.34,-171.35 857.84,-181.35 866.81,-175.72 861.34,-171.35"/>
</a>
</g>
</g>
<!-- Node5 -->
<g id="Node000005" class="node">
<title>Node5</title>
<g id="a_Node000005"><a xlink:href="../../d9/dc3/_interface_mock_8hpp.html" target="_top" xlink:title=" ">
<polygon fill="white" stroke="#666666" points="889.71,-74.5 752.21,-74.5 752.21,-55.25 889.71,-55.25 889.71,-74.5"/>
<text text-anchor="middle" x="820.96" y="-61" font-family="Helvetica,sans-Serif" font-size="10.00">mimic++/InterfaceMock.hpp</text>
</a>
</g>
</g>
<!-- Node4&#45;&gt;Node5 -->
<g id="edge4_Node000004_Node000005" class="edge">
<title>Node4&#45;&gt;Node5</title>
<g id="a_edge4_Node000004_Node000005"><a xlink:title=" ">
<path fill="none" stroke="#63b8ff" d="M791.19,-106.64C798.87,-96.11 808.22,-83.32 814.36,-74.9"/>
<polygon fill="#63b8ff" stroke="#63b8ff" points="788.45,-104.45 785.38,-114.59 794.1,-108.57 788.45,-104.45"/>
</a>
</g>
</g>
<!-- Node4&#45;&gt;Node6 -->
<g id="edge8_Node000004_Node000006" class="edge">
<title>Node4&#45;&gt;Node6</title>
<g id="a_edge8_Node000004_Node000006"><a xlink:title=" ">
<path fill="none" stroke="#63b8ff" d="M814.28,-111.83C838.77,-102.6 871.5,-89.24 898.96,-74.5 930.47,-57.58 964.64,-32.87 982.14,-19.7"/>
<polygon fill="#63b8ff" stroke="#63b8ff" points="813.23,-108.49 805.07,-115.24 815.67,-115.05 813.23,-108.49"/>
</a>
</g>
</g>
<!-- Node7 -->
<g id="Node000007" class="node">
<title>Node7</title>
<g id="a_Node000007"><a xlink:href="../../d5/d92/_object_watcher_8hpp.html" target="_top" xlink:title=" ">
<polygon fill="white" stroke="#666666" points="733.83,-74.5 594.08,-74.5 594.08,-55.25 733.83,-55.25 733.83,-74.5"/>
<text text-anchor="middle" x="663.96" y="-61" font-family="Helvetica,sans-Serif" font-size="10.00">mimic++/ObjectWatcher.hpp</text>
</a>
</g>
</g>
<!-- Node4&#45;&gt;Node7 -->
<g id="edge6_Node000004_Node000007" class="edge">
<title>Node4&#45;&gt;Node7</title>
<g id="a_edge6_Node000004_Node000007"><a xlink:title=" ">
<path fill="none" stroke="#63b8ff" d="M750.51,-110.58C729.04,-99.49 699.83,-84.4 681.43,-74.9"/>
<polygon fill="#63b8ff" stroke="#63b8ff" points="748.81,-113.63 759.3,-115.11 752.02,-107.42 748.81,-113.63"/>
</a>
</g>
</g>
<!-- Node5&#45;&gt;Node6 -->
<g id="edge5_Node000005_Node000006" class="edge">
<title>Node5&#45;&gt;Node6</title>
<g id="a_edge5_Node000005_Node000006"><a xlink:title=" ">
<path fill="none" stroke="#63b8ff" d="M860.95,-51.57C892.56,-41.84 935.96,-28.48 964.46,-19.7"/>
<polygon fill="#63b8ff" stroke="#63b8ff" points="860.28,-48.11 851.75,-54.4 862.34,-54.8 860.28,-48.11"/>
</a>
</g>
</g>
<!-- Node7&#45;&gt;Node6 -->
<g id="edge7_Node000007_Node000006" class="edge">
<title>Node7&#45;&gt;Node6</title>
<g id="a_edge7_Node000007_Node000006"><a xlink:title=" ">
<path fill="none" stroke="#63b8ff" d="M731.32,-53C792.09,-43.2 880.44,-28.94 937.56,-19.73"/>
<polygon fill="#63b8ff" stroke="#63b8ff" points="731.12,-49.49 721.8,-54.54 732.23,-56.4 731.12,-49.49"/>
</a>
</g>
</g>
<!-- Node8&#45;&gt;Node6 -->
<g id="edge68_Node000008_Node000006" class="edge">
<title>Node8&#45;&gt;Node6</title>
<g id="a_edge68_Node000008_Node000006"><a xlink:title=" ">
<path fill="none" stroke="#63b8ff" d="M927.33,-605.72C1175.49,-603.41 1837.96,-588.72 1837.96,-497.62 1837.96,-497.62 1837.96,-497.62 1837.96,-124.75 1837.96,-65.79 1781.17,-73.02 1724.96,-55.25 1599.71,-15.66 1200.43,-10.91 1051.07,-10.55"/>
<polygon fill="#63b8ff" stroke="#63b8ff" points="927.67,-602.22 917.7,-605.8 927.73,-609.22 927.67,-602.22"/>
</a>
</g>
</g>
<!-- Node9 -->
<g id="Node000009" class="node">
<title>Node9</title>
<g id="a_Node000009"><a xlink:href="../../da/dab/_printer_8hpp.html" target="_top" xlink:title=" ">
<polygon fill="white" stroke="#666666" points="931.83,-506.25 828.08,-506.25 828.08,-487 931.83,-487 931.83,-506.25"/>
<text text-anchor="middle" x="879.96" y="-492.75" font-family="Helvetica,sans-Serif" font-size="10.00">mimic++/Printer.hpp</text>
</a>
</g>
</g>
<!-- Node8&#45;&gt;Node9 -->
<g id="edge13_Node000008_Node000009" class="edge">
<title>Node8&#45;&gt;Node9</title>
<g id="a_edge13_Node000008_Node000009"><a xlink:title=" ">
<path fill="none" stroke="#63b8ff" d="M847.04,-587.67C851.82,-579.83 857.09,-570.44 860.96,-561.5 869.13,-542.6 875.12,-519.1 878.02,-506.54"/>
<polygon fill="#63b8ff" stroke="#63b8ff" points="844.19,-585.63 841.8,-595.95 850.11,-589.37 844.19,-585.63"/>
</a>
</g>
</g>
<!-- Node21 -->
<g id="Node000021" class="node">
<title>Node21</title>
<g id="a_Node000021"><a xlink:href="../../de/df5/_stacktrace_8hpp.html" target="_top" xlink:title=" ">
<polygon fill="white" stroke="#666666" points="852.21,-561.5 729.71,-561.5 729.71,-542.25 852.21,-542.25 852.21,-561.5"/>
<text text-anchor="middle" x="790.96" y="-548" font-family="Helvetica,sans-Serif" font-size="10.00">mimic++/Stacktrace.hpp</text>
</a>
</g>
</g>
<!-- Node8&#45;&gt;Node21 -->
<g id="edge54_Node000008_Node000021" class="edge">
<title>Node8&#45;&gt;Node21</title>
<g id="a_edge54_Node000008_Node000021"><a xlink:title=" ">
<path fill="none" stroke="#63b8ff" d="M820.37,-588.47C813,-579.56 804.38,-569.12 798.38,-561.86"/>
<polygon fill="#63b8ff" stroke="#63b8ff" points="817.66,-590.69 826.73,-596.17 823.05,-586.23 817.66,-590.69"/>
</a>
</g>
</g>
<!-- Node9&#45;&gt;Node4 -->
<g id="edge14_Node000009_Node000004" class="edge">
<title>Node9&#45;&gt;Node4</title>
<g id="a_edge14_Node000009_Node000004"><a xlink:title=" ">
<path fill="none" stroke="#63b8ff" d="M855.75,-480.52C807.96,-449.07 702.66,-371.31 662.96,-274 638.32,-213.63 723.27,-157.29 760.9,-135.86"/>
<polygon fill="#63b8ff" stroke="#63b8ff" points="853.73,-483.38 864.03,-485.86 857.52,-477.5 853.73,-483.38"/>
</a>
</g>
</g>
<!-- Node9&#45;&gt;Node6 -->
<g id="edge49_Node000009_Node000006" class="edge">
<title>Node9&#45;&gt;Node6</title>
<g id="a_edge49_Node000009_Node000006"><a xlink:title=" ">
<path fill="none" stroke="#63b8ff" d="M897.07,-478.35C915.12,-458.23 940.96,-423.13 940.96,-387.12 940.96,-387.12 940.96,-387.12 940.96,-324.25 940.96,-201.94 980.63,-56.49 991.33,-19.51"/>
<polygon fill="#63b8ff" stroke="#63b8ff" points="894.54,-475.93 890.26,-485.62 899.65,-480.72 894.54,-475.93"/>
</a>
</g>
</g>
<!-- Node9&#45;&gt;Node7 -->
<g id="edge15_Node000009_Node000007" class="edge">
<title>Node9&#45;&gt;Node7</title>
<g id="a_edge15_Node000009_Node000007"><a xlink:title=" ">
<path fill="none" stroke="#63b8ff" d="M845.47,-482.17C827.31,-474.33 805.1,-463.53 786.96,-451 730.19,-411.81 713.38,-399.7 677.96,-340.5 623.78,-249.96 652.71,-111.08 661.63,-74.79"/>
<polygon fill="#63b8ff" stroke="#63b8ff" points="843.94,-485.32 854.51,-485.95 846.64,-478.86 843.94,-485.32"/>
</a>
</g>
</g>
<!-- Node10 -->
<g id="Node000010" class="node">
<title>Node10</title>
<g id="a_Node000010"><a xlink:href="../../da/dd9/_reporter_8hpp.html" target="_top" xlink:title=" ">
<polygon fill="white" stroke="#666666" points="1299.96,-395.75 1187.96,-395.75 1187.96,-376.5 1299.96,-376.5 1299.96,-395.75"/>
<text text-anchor="middle" x="1243.96" y="-382.25" font-family="Helvetica,sans-Serif" font-size="10.00">mimic++/Reporter.hpp</text>
</a>
</g>
</g>
<!-- Node9&#45;&gt;Node10 -->
<g id="edge16_Node000009_Node000010" class="edge">
<title>Node9&#45;&gt;Node10</title>
<g id="a_edge16_Node000009_Node000010"><a xlink:title=" ">
<path fill="none" stroke="#63b8ff" d="M943.42,-487.6C990,-480.68 1054.38,-468.92 1108.96,-451 1154.04,-436.2 1203.65,-409.92 1228.28,-396.13"/>
<polygon fill="#63b8ff" stroke="#63b8ff" points="943.17,-484.1 933.78,-489 944.18,-491.03 943.17,-484.1"/>
</a>
</g>
</g>
<!-- Node12 -->
<g id="Node000012" class="node">
<title>Node12</title>
<g id="a_Node000012"><a xlink:href="../../d8/de4/_sequence_8hpp.html" target="_top" xlink:title=" ">
<polygon fill="white" stroke="#666666" points="1178.33,-334.88 1059.58,-334.88 1059.58,-315.62 1178.33,-315.62 1178.33,-334.88"/>
<text text-anchor="middle" x="1118.96" y="-321.38" font-family="Helvetica,sans-Serif" font-size="10.00">mimic++/Sequence.hpp</text>
</a>
</g>
</g>
<!-- Node9&#45;&gt;Node12 -->
<g id="edge33_Node000009_Node000012" class="edge">
<title>Node9&#45;&gt;Node12</title>
<g id="a_edge33_Node000009_Node000012"><a xlink:title=" ">
<path fill="none" stroke="#63b8ff" d="M906.25,-480.96C920.85,-472.57 939.19,-461.64 954.96,-451 1014.86,-410.59 1082.34,-356.28 1108.14,-335.17"/>
<polygon fill="#63b8ff" stroke="#63b8ff" points="904.66,-477.84 897.69,-485.82 908.12,-483.92 904.66,-477.84"/>
</a>
</g>
</g>
<!-- Node14 -->
<g id="Node000014" class="node">
<title>Node14</title>
<g id="a_Node000014"><a xlink:href="../../d0/d3b/_reports_8hpp.html" target="_top" xlink:title=" ">
<polygon fill="white" stroke="#666666" points="1381.46,-451 1272.46,-451 1272.46,-431.75 1381.46,-431.75 1381.46,-451"/>
<text text-anchor="middle" x="1326.96" y="-437.5" font-family="Helvetica,sans-Serif" font-size="10.00">mimic++/Reports.hpp</text>
</a>
</g>
</g>
<!-- Node9&#45;&gt;Node14 -->
<g id="edge29_Node000009_Node000014" class="edge">
<title>Node9&#45;&gt;Node14</title>
<g id="a_edge29_Node000009_Node000014"><a xlink:title=" ">
<path fill="none" stroke="#63b8ff" d="M943.52,-488.05C1031.48,-477.57 1188.85,-458.83 1272,-448.92"/>
<polygon fill="#63b8ff" stroke="#63b8ff" points="943.13,-484.57 933.61,-489.23 943.95,-491.53 943.13,-484.57"/>
</a>
</g>
</g>
<!-- Node15 -->
<g id="Node000015" class="node">
<title>Node15</title>
<g id="a_Node000015"><a xlink:href="../../d3/d58/_common_8hpp.html" target="_top" xlink:title=" ">
<polygon fill="white" stroke="#666666" points="412.83,-395.75 255.08,-395.75 255.08,-376.5 412.83,-376.5 412.83,-395.75"/>
<text text-anchor="middle" x="333.96" y="-382.25" font-family="Helvetica,sans-Serif" font-size="10.00">mimic++/matchers/Common.hpp</text>
</a>
</g>
</g>
<!-- Node9&#45;&gt;Node15 -->
<g id="edge34_Node000009_Node000015" class="edge">
<title>Node9&#45;&gt;Node15</title>
<g id="a_edge34_Node000009_Node000015"><a xlink:title=" ">
<path fill="none" stroke="#63b8ff" d="M816.8,-485.07C765.97,-476.41 692.74,-463.57 628.96,-451 537.18,-432.91 429.97,-408.99 373.46,-396.17"/>
<polygon fill="#63b8ff" stroke="#63b8ff" points="816,-488.48 826.44,-486.7 817.17,-481.58 816,-488.48"/>
</a>
</g>
</g>
<!-- Node20 -->
<g id="Node000020" class="node">
<title>Node20</title>
<g id="a_Node000020"><a xlink:href="../../de/d10/_general_policies_8hpp.html" target="_top" xlink:title=" ">
<polygon fill="white" stroke="#666666" points="798.46,-274 671.46,-274 671.46,-243.5 798.46,-243.5 798.46,-274"/>
<text text-anchor="start" x="679.46" y="-260.5" font-family="Helvetica,sans-Serif" font-size="10.00">mimic++/policies/General</text>
<text text-anchor="middle" x="734.96" y="-249.25" font-family="Helvetica,sans-Serif" font-size="10.00">Policies.hpp</text>
</a>
</g>
</g>
<!-- Node9&#45;&gt;Node20 -->
<g id="edge50_Node000009_Node000020" class="edge">
<title>Node9&#45;&gt;Node20</title>
<g id="a_edge50_Node000009_Node000020"><a xlink:title=" ">
<path fill="none" stroke="#63b8ff" d="M868.45,-476.91C840.45,-431.36 769.17,-315.4 743.96,-274.39"/>
<polygon fill="#63b8ff" stroke="#63b8ff" points="865.44,-478.69 873.66,-485.38 871.4,-475.03 865.44,-478.69"/>
</a>
</g>
</g>
<!-- Node10&#45;&gt;Node6 -->
<g id="edge28_Node000010_Node000006" class="edge">
<title>Node10&#45;&gt;Node6</title>
<g id="a_edge28_Node000010_Node000006"><a xlink:title=" ">
<path fill="none" stroke="#63b8ff" d="M1303.6,-373.6C1382.23,-355.4 1506.18,-314.55 1465.96,-243.5 1450.63,-216.44 1432,-224.5 1405.96,-207.5 1307.3,-143.11 1296.78,-102.72 1188.96,-55.25 1144.61,-35.73 1090.69,-24.23 1050.8,-17.81"/>
<polygon fill="#63b8ff" stroke="#63b8ff" points="1303.29,-370.08 1294.3,-375.69 1304.83,-376.91 1303.29,-370.08"/>
</a>
</g>
</g>
<!-- Node11 -->
<g id="Node000011" class="node">
<title>Node11</title>
<g id="a_Node000011"><a xlink:href="../../d5/d8a/_expectation_8hpp.html" target="_top" xlink:title=" ">
<polygon fill="white" stroke="#666666" points="1094.71,-268.38 969.21,-268.38 969.21,-249.12 1094.71,-249.12 1094.71,-268.38"/>
<text text-anchor="middle" x="1031.96" y="-254.88" font-family="Helvetica,sans-Serif" font-size="10.00">mimic++/Expectation.hpp</text>
</a>
</g>
</g>
<!-- Node10&#45;&gt;Node11 -->
<g id="edge17_Node000010_Node000011" class="edge">
<title>Node10&#45;&gt;Node11</title>
<g id="a_edge17_Node000010_Node000011"><a xlink:title=" ">
<path fill="none" stroke="#63b8ff" d="M1234.16,-366.42C1224.36,-349.41 1207.76,-324.78 1186.96,-310 1156.97,-288.7 1117.47,-276.08 1085.85,-268.81"/>
<polygon fill="#63b8ff" stroke="#63b8ff" points="1230.99,-367.91 1238.87,-374.99 1237.12,-364.54 1230.99,-367.91"/>
</a>
</g>
</g>
<!-- Node10&#45;&gt;Node12 -->
<g id="edge21_Node000010_Node000012" class="edge">
<title>Node10&#45;&gt;Node12</title>
<g id="a_edge21_Node000010_Node000012"><a xlink:title=" ">
<path fill="none" stroke="#63b8ff" d="M1214.54,-371.27C1190.9,-360.13 1158.39,-344.82 1138.03,-335.23"/>
<polygon fill="#63b8ff" stroke="#63b8ff" points="1212.79,-374.32 1223.33,-375.41 1215.77,-367.98 1212.79,-374.32"/>
</a>
</g>
</g>
<!-- Node11&#45;&gt;Node3 -->
<g id="edge18_Node000011_Node000003" class="edge">
<title>Node11&#45;&gt;Node3</title>
<g id="a_edge18_Node000011_Node000003"><a xlink:title=" ">
<path fill="none" stroke="#63b8ff" d="M995.85,-244.95C960.29,-232.35 906.89,-213.43 875.51,-202.31"/>
<polygon fill="#63b8ff" stroke="#63b8ff" points="994.24,-248.1 1004.84,-248.14 996.58,-241.5 994.24,-248.1"/>
</a>
</g>
</g>
<!-- Node11&#45;&gt;Node4 -->
<g id="edge19_Node000011_Node000004" class="edge">
<title>Node11&#45;&gt;Node4</title>
<g id="a_edge19_Node000011_Node000004"><a xlink:title=" ">
<path fill="none" stroke="#63b8ff" d="M1016.05,-240.66C998.32,-222.54 968.05,-194.2 936.96,-177 900.86,-157.03 855.68,-143.72 822.72,-135.85"/>
<polygon fill="#63b8ff" stroke="#63b8ff" points="1013.2,-242.75 1022.64,-247.55 1018.26,-237.91 1013.2,-242.75"/>
</a>
</g>
</g>
<!-- Node11&#45;&gt;Node6 -->
<g id="edge20_Node000011_Node000006" class="edge">
<title>Node11&#45;&gt;Node6</title>
<g id="a_edge20_Node000011_Node000006"><a xlink:title=" ">
<path fill="none" stroke="#63b8ff" d="M1030.82,-237.74C1028.48,-201.16 1022.08,-121.21 1007.96,-55.25 1005.27,-42.71 1000.57,-28.65 997.36,-19.72"/>
<polygon fill="#63b8ff" stroke="#63b8ff" points="1027.3,-237.49 1031.4,-247.26 1034.29,-237.07 1027.3,-237.49"/>
</a>
</g>
</g>
<!-- Node12&#45;&gt;Node3 -->
<g id="edge23_Node000012_Node000003" class="edge">
<title>Node12&#45;&gt;Node3</title>
<g id="a_edge23_Node000012_Node000003"><a xlink:title=" ">
<path fill="none" stroke="#63b8ff" d="M1066.8,-312.38C1034.93,-304.02 993.9,-291.23 959.96,-274 919.61,-253.52 878.23,-218.65 859.83,-202.26"/>
<polygon fill="#63b8ff" stroke="#63b8ff" points="1065.64,-315.7 1076.2,-314.78 1067.38,-308.91 1065.64,-315.7"/>
</a>
</g>
</g>
<!-- Node12&#45;&gt;Node6 -->
<g id="edge24_Node000012_Node000006" class="edge">
<title>Node12&#45;&gt;Node6</title>
<g id="a_edge24_Node000012_Node000006"><a xlink:title=" ">
<path fill="none" stroke="#63b8ff" d="M1119.95,-304.19C1121.13,-278.5 1122.96,-232.57 1122.96,-193.25 1122.96,-193.25 1122.96,-193.25 1122.96,-124.75 1122.96,-69.88 1056.68,-35.03 1019.13,-19.7"/>
<polygon fill="#63b8ff" stroke="#63b8ff" points="1116.47,-303.69 1119.49,-313.85 1123.46,-304.02 1116.47,-303.69"/>
</a>
</g>
</g>
<!-- Node12&#45;&gt;Node11 -->
<g id="edge22_Node000012_Node000011" class="edge">
<title>Node12&#45;&gt;Node11</title>
<g id="a_edge22_Node000012_Node000011"><a xlink:title=" ">
<path fill="none" stroke="#63b8ff" d="M1097.79,-308.56C1081,-296.11 1058.12,-279.15 1044.23,-268.85"/>
<polygon fill="#63b8ff" stroke="#63b8ff" points="1095.52,-311.24 1105.64,-314.38 1099.69,-305.61 1095.52,-311.24"/>
</a>
</g>
</g>
<!-- Node13 -->
<g id="Node000013" class="node">
<title>Node13</title>
<g id="a_Node000013"><a xlink:href="../../db/d70/_control_policies_8hpp.html" target="_top" xlink:title=" ">
<polygon fill="white" stroke="#666666" points="1274.96,-274 1150.96,-274 1150.96,-243.5 1274.96,-243.5 1274.96,-274"/>
<text text-anchor="start" x="1158.96" y="-260.5" font-family="Helvetica,sans-Serif" font-size="10.00">mimic++/policies/Control</text>
<text text-anchor="middle" x="1212.96" y="-249.25" font-family="Helvetica,sans-Serif" font-size="10.00">Policies.hpp</text>
</a>
</g>
</g>
<!-- Node12&#45;&gt;Node13 -->
<g id="edge25_Node000012_Node000013" class="edge">
<title>Node12&#45;&gt;Node13</title>
<g id="a_edge25_Node000012_Node000013"><a xlink:title=" ">
<path fill="none" stroke="#63b8ff" d="M1141.26,-308.95C1156.52,-298.47 1176.65,-284.66 1191.69,-274.34"/>
<polygon fill="#63b8ff" stroke="#63b8ff" points="1139.54,-305.88 1133.27,-314.43 1143.5,-311.65 1139.54,-305.88"/>
</a>
</g>
</g>
<!-- Node13&#45;&gt;Node3 -->
<g id="edge26_Node000013_Node000003" class="edge">
<title>Node13&#45;&gt;Node3</title>
<g id="a_edge26_Node000013_Node000003"><a xlink:title=" ">
<path fill="none" stroke="#63b8ff" d="M1139.5,-244.7C1068.73,-232.12 963.49,-213.42 901.29,-202.37"/>
<polygon fill="#63b8ff" stroke="#63b8ff" points="1138.61,-248.09 1149.06,-246.4 1139.83,-241.2 1138.61,-248.09"/>
</a>
</g>
</g>
<!-- Node13&#45;&gt;Node6 -->
<g id="edge27_Node000013_Node000006" class="edge">
<title>Node13&#45;&gt;Node6</title>
<g id="a_edge27_Node000013_Node000006"><a xlink:title=" ">
<path fill="none" stroke="#63b8ff" d="M1210.45,-231.77C1204.94,-188.92 1187.88,-103.37 1136.96,-55.25 1113.8,-33.37 1080.06,-22.21 1051.17,-16.52"/>
<polygon fill="#63b8ff" stroke="#63b8ff" points="1206.97,-232.1 1211.6,-241.63 1213.92,-231.3 1206.97,-232.1"/>
</a>
</g>
</g>
<!-- Node14&#45;&gt;Node6 -->
<g id="edge31_Node000014_Node000006" class="edge">
<title>Node14&#45;&gt;Node6</title>
<g id="a_edge31_Node000014_Node000006"><a xlink:title=" ">
<path fill="none" stroke="#63b8ff" d="M1354.61,-425.89C1409,-395.34 1521.46,-320.74 1483.96,-243.5 1483.3,-242.16 1316.19,-111.35 1314.96,-110.5 1275.31,-83.3 1266.87,-72.4 1221.96,-55.25 1166,-33.89 1098.24,-22.29 1051.2,-16.32"/>
<polygon fill="#63b8ff" stroke="#63b8ff" points="1352.98,-422.8 1345.9,-430.67 1356.35,-428.93 1352.98,-422.8"/>
</a>
</g>
</g>
<!-- Node14&#45;&gt;Node10 -->
<g id="edge30_Node000014_Node000010" class="edge">
<title>Node14&#45;&gt;Node10</title>
<g id="a_edge30_Node000014_Node000010"><a xlink:title=" ">
<path fill="none" stroke="#63b8ff" d="M1303.46,-425.3C1288.84,-415.92 1270.53,-404.17 1258.1,-396.2"/>
<polygon fill="#63b8ff" stroke="#63b8ff" points="1301.29,-428.07 1311.6,-430.52 1305.07,-422.18 1301.29,-428.07"/>
</a>
</g>
</g>
<!-- Node14&#45;&gt;Node13 -->
<g id="edge32_Node000014_Node000013" class="edge">
<title>Node14&#45;&gt;Node13</title>
<g id="a_edge32_Node000014_Node000013"><a xlink:title=" ">
<path fill="none" stroke="#63b8ff" d="M1323.51,-420.26C1320.76,-407.27 1316.15,-390.27 1308.96,-376.5 1287.45,-335.33 1249.79,-295.28 1228.59,-274.48"/>
<polygon fill="#63b8ff" stroke="#63b8ff" points="1320.02,-420.6 1325.32,-429.77 1326.89,-419.3 1320.02,-420.6"/>
</a>
</g>
</g>
<!-- Node15&#45;&gt;Node3 -->
<g id="edge35_Node000015_Node000003" class="edge">
<title>Node15&#45;&gt;Node3</title>
<g id="a_edge35_Node000015_Node000003"><a xlink:title=" ">
<path fill="none" stroke="#63b8ff" d="M424.55,-376.76C552.78,-363.03 777.93,-331.34 833.96,-274 853.13,-254.37 852.54,-218.77 851.05,-202.19"/>
<polygon fill="#63b8ff" stroke="#63b8ff" points="424.29,-373.27 414.71,-377.8 425.02,-380.23 424.29,-373.27"/>
</a>
</g>
</g>
<!-- Node15&#45;&gt;Node6 -->
<g id="edge45_Node000015_Node000006" class="edge">
<title>Node15&#45;&gt;Node6</title>
<g id="a_edge45_Node000015_Node000006"><a xlink:title=" ">
<path fill="none" stroke="#63b8ff" d="M243.37,-382.45C158.61,-374.54 44.96,-347.55 44.96,-259.75 44.96,-259.75 44.96,-259.75 44.96,-124.75 44.96,-109.55 -27.77,-109.11 216.96,-55.25 354.19,-25.05 781.36,-14.46 936.72,-11.56"/>
<polygon fill="#63b8ff" stroke="#63b8ff" points="242.83,-385.92 253.09,-383.28 243.43,-378.95 242.83,-385.92"/>
</a>
</g>
</g>
<!-- Node16 -->
<g id="Node000016" class="node">
<title>Node16</title>
<g id="a_Node000016"><a xlink:href="../../d9/dd5/_general_matchers_8hpp.html" target="_top" xlink:title=" ">
<polygon fill="white" stroke="#666666" points="398.21,-340.5 263.71,-340.5 263.71,-310 398.21,-310 398.21,-340.5"/>
<text text-anchor="start" x="271.71" y="-327" font-family="Helvetica,sans-Serif" font-size="10.00">mimic++/matchers/General</text>
<text text-anchor="middle" x="330.96" y="-315.75" font-family="Helvetica,sans-Serif" font-size="10.00">Matchers.hpp</text>
</a>
</g>
</g>
<!-- Node15&#45;&gt;Node16 -->
<g id="edge36_Node000015_Node000016" class="edge">
<title>Node15&#45;&gt;Node16</title>
<g id="a_edge36_Node000015_Node000016"><a xlink:title=" ">
<path fill="none" stroke="#63b8ff" d="M332.93,-364.92C332.52,-356.99 332.07,-348.06 331.7,-340.78"/>
<polygon fill="#63b8ff" stroke="#63b8ff" points="329.42,-364.86 333.42,-374.67 336.41,-364.51 329.42,-364.86"/>
</a>
</g>
</g>
<!-- Node18 -->
<g id="Node000018" class="node">
<title>Node18</title>
<g id="a_Node000018"><a xlink:href="../../df/df3/_range_matchers_8hpp.html" target="_top" xlink:title=" ">
<polygon fill="white" stroke="#666666" points="298.46,-268.38 111.46,-268.38 111.46,-249.12 298.46,-249.12 298.46,-268.38"/>
<text text-anchor="middle" x="204.96" y="-254.88" font-family="Helvetica,sans-Serif" font-size="10.00">mimic++/matchers/RangeMatchers.hpp</text>
</a>
</g>
</g>
<!-- Node15&#45;&gt;Node18 -->
<g id="edge44_Node000015_Node000018" class="edge">
<title>Node15&#45;&gt;Node18</title>
<g id="a_edge44_Node000015_Node000018"><a xlink:title=" ">
<path fill="none" stroke="#63b8ff" d="M301.45,-371.39C286.14,-363.83 268.34,-353.36 254.96,-340.5 232.36,-318.8 215.76,-284.83 208.71,-268.76"/>
<polygon fill="#63b8ff" stroke="#63b8ff" points="299.66,-374.42 310.2,-375.51 302.64,-368.09 299.66,-374.42"/>
</a>
</g>
</g>
<!-- Node19 -->
<g id="Node000019" class="node">
<title>Node19</title>
<g id="a_Node000019"><a xlink:href="../../d1/d42/_arg_requirement_policies_8hpp.html" target="_top" xlink:title=" ">
<polygon fill="white" stroke="#666666" points="1456.46,-274 1293.46,-274 1293.46,-243.5 1456.46,-243.5 1456.46,-274"/>
<text text-anchor="start" x="1301.46" y="-260.5" font-family="Helvetica,sans-Serif" font-size="10.00">mimic++/policies/ArgRequirement</text>
<text text-anchor="middle" x="1374.96" y="-249.25" font-family="Helvetica,sans-Serif" font-size="10.00">Policies.hpp</text>
</a>
</g>
</g>
<!-- Node15&#45;&gt;Node19 -->
<g id="edge46_Node000015_Node000019" class="edge">
<title>Node15&#45;&gt;Node19</title>
<g id="a_edge46_Node000015_Node000019"><a xlink:title=" ">
<path fill="none" stroke="#63b8ff" d="M424.28,-384.41C613.16,-382.27 1044.19,-373.78 1186.96,-340.5 1247.67,-326.35 1313.49,-293.65 1348.89,-274.48"/>
<polygon fill="#63b8ff" stroke="#63b8ff" points="424.49,-380.91 414.52,-384.52 424.56,-387.91 424.49,-380.91"/>
</a>
</g>
</g>
<!-- Node16&#45;&gt;Node2 -->
<g id="edge42_Node000016_Node000002" class="edge">
<title>Node16&#45;&gt;Node2</title>
<g id="a_edge42_Node000016_Node000002"><a xlink:title=" ">
<path fill="none" stroke="#63b8ff" d="M367.3,-304.04C388.57,-292.21 414.39,-277.86 430.75,-268.76"/>
<polygon fill="#63b8ff" stroke="#63b8ff" points="365.64,-300.96 358.6,-308.88 369.04,-307.08 365.64,-300.96"/>
</a>
</g>
</g>
<!-- Node16&#45;&gt;Node3 -->
<g id="edge37_Node000016_Node000003" class="edge">
<title>Node16&#45;&gt;Node3</title>
<g id="a_edge37_Node000016_Node000003"><a xlink:title=" ">
<path fill="none" stroke="#63b8ff" d="M409.51,-320.03C536.45,-312.6 775.81,-295.9 807.96,-274 833.29,-256.74 844.35,-219.27 848.22,-202.13"/>
<polygon fill="#63b8ff" stroke="#63b8ff" points="409.62,-316.51 399.84,-320.59 410.02,-323.5 409.62,-316.51"/>
</a>
</g>
</g>
<!-- Node16&#45;&gt;Node6 -->
<g id="edge43_Node000016_Node000006" class="edge">
<title>Node16&#45;&gt;Node6</title>
<g id="a_edge43_Node000016_Node000006"><a xlink:title=" ">
<path fill="none" stroke="#63b8ff" d="M329.7,-298.44C328.53,-272.03 326.96,-229.79 326.96,-193.25 326.96,-193.25 326.96,-193.25 326.96,-124.75 326.96,-63.11 775.25,-25.83 936.8,-14.4"/>
<polygon fill="#63b8ff" stroke="#63b8ff" points="326.2,-298.38 330.15,-308.2 333.19,-298.05 326.2,-298.38"/>
</a>
</g>
</g>
<!-- Node17 -->
<g id="Node000017" class="node">
<title>Node17</title>
<g id="a_Node000017"><a xlink:href="../../d1/de0/_floating_point_matchers_8hpp.html" target="_top" xlink:title=" ">
<polygon fill="white" stroke="#666666" points="221.58,-141 86.33,-141 86.33,-110.5 221.58,-110.5 221.58,-141"/>
<text text-anchor="start" x="94.33" y="-127.5" font-family="Helvetica,sans-Serif" font-size="10.00">mimic++/matchers/Floating</text>
<text text-anchor="middle" x="153.96" y="-116.25" font-family="Helvetica,sans-Serif" font-size="10.00">PointMatchers.hpp</text>
</a>
</g>
</g>
<!-- Node16&#45;&gt;Node17 -->
<g id="edge38_Node000016_Node000017" class="edge">
<title>Node16&#45;&gt;Node17</title>
<g id="a_edge38_Node000016_Node000017"><a xlink:title=" ">
<path fill="none" stroke="#63b8ff" d="M252.27,-317.39C193.69,-310.47 120.74,-297.35 101.96,-274 68.99,-233.02 115.85,-169.59 140.48,-141.27"/>
<polygon fill="#63b8ff" stroke="#63b8ff" points="251.56,-320.84 261.9,-318.49 252.35,-313.88 251.56,-320.84"/>
</a>
</g>
</g>
<!-- Node16&#45;&gt;Node18 -->
<g id="edge40_Node000016_Node000018" class="edge">
<title>Node16&#45;&gt;Node18</title>
<g id="a_edge40_Node000016_Node000018"><a xlink:title=" ">
<path fill="none" stroke="#63b8ff" d="M292.42,-304.53C269.14,-292.6 240.57,-277.98 222.56,-268.76"/>
<polygon fill="#63b8ff" stroke="#63b8ff" points="290.52,-307.48 301.02,-308.92 293.71,-301.25 290.52,-307.48"/>
</a>
</g>
</g>
<!-- Node17&#45;&gt;Node6 -->
<g id="edge39_Node000017_Node000006" class="edge">
<title>Node17&#45;&gt;Node6</title>
<g id="a_edge39_Node000017_Node000006"><a xlink:title=" ">
<path fill="none" stroke="#63b8ff" d="M179.27,-103.08C200.01,-86.72 230.9,-65.42 261.96,-55.25 386.97,-14.33 787.04,-10.39 936.72,-10.4"/>
<polygon fill="#63b8ff" stroke="#63b8ff" points="177.23,-100.22 171.67,-109.23 181.64,-105.66 177.23,-100.22"/>
</a>
</g>
</g>
<!-- Node18&#45;&gt;Node6 -->
<g id="edge41_Node000018_Node000006" class="edge">
<title>Node18&#45;&gt;Node6</title>
<g id="a_edge41_Node000018_Node000006"><a xlink:title=" ">
<path fill="none" stroke="#63b8ff" d="M208.93,-237.58C218.44,-195.34 246.82,-97.94 312.96,-55.25 364.75,-21.82 782.44,-13.25 936.85,-11.22"/>
<polygon fill="#63b8ff" stroke="#63b8ff" points="205.52,-236.81 206.88,-247.32 212.36,-238.26 205.52,-236.81"/>
</a>
</g>
</g>
<!-- Node19&#45;&gt;Node3 -->
<g id="edge47_Node000019_Node000003" class="edge">
<title>Node19&#45;&gt;Node3</title>
<g id="a_edge47_Node000019_Node000003"><a xlink:title=" ">
<path fill="none" stroke="#63b8ff" d="M1281.77,-243.24C1151.61,-225.69 1012.6,-210.31 928.08,-201.34"/>
<polygon fill="#63b8ff" stroke="#63b8ff" points="1281.25,-246.7 1291.63,-244.57 1282.19,-239.76 1281.25,-246.7"/>
</a>
</g>
</g>
<!-- Node19&#45;&gt;Node6 -->
<g id="edge48_Node000019_Node000006" class="edge">
<title>Node19&#45;&gt;Node6</title>
<g id="a_edge48_Node000019_Node000006"><a xlink:title=" ">
<path fill="none" stroke="#63b8ff" d="M1356.76,-234.21C1322.78,-191.88 1245.32,-102.89 1159.96,-55.25 1126.34,-36.49 1084.45,-25.3 1051.16,-18.82"/>
<polygon fill="#63b8ff" stroke="#63b8ff" points="1354,-236.36 1362.96,-242.03 1359.49,-232.02 1354,-236.36"/>
</a>
</g>
</g>
<!-- Node20&#45;&gt;Node3 -->
<g id="edge51_Node000020_Node000003" class="edge">
<title>Node20&#45;&gt;Node3</title>
<g id="a_edge51_Node000020_Node000003"><a xlink:title=" ">
<path fill="none" stroke="#63b8ff" d="M770.98,-237.54C792.08,-225.71 817.67,-211.36 833.89,-202.26"/>
<polygon fill="#63b8ff" stroke="#63b8ff" points="769.38,-234.43 762.37,-242.37 772.8,-240.53 769.38,-234.43"/>
</a>
</g>
</g>
<!-- Node20&#45;&gt;Node4 -->
<g id="edge52_Node000020_Node000004" class="edge">
<title>Node20&#45;&gt;Node4</title>
<g id="a_edge52_Node000020_Node000004"><a xlink:title=" ">
<path fill="none" stroke="#63b8ff" d="M743.24,-232.52C752.93,-202.98 768.49,-155.6 774.97,-135.85"/>
<polygon fill="#63b8ff" stroke="#63b8ff" points="739.99,-231.2 740.19,-241.79 746.64,-233.38 739.99,-231.2"/>
</a>
</g>
</g>
<!-- Node20&#45;&gt;Node6 -->
<g id="edge53_Node000020_Node000006" class="edge">
<title>Node20&#45;&gt;Node6</title>
<g id="a_edge53_Node000020_Node000006"><a xlink:title=" ">
<path fill="none" stroke="#63b8ff" d="M699.95,-237.17C639.98,-199.46 529.2,-117.42 584.96,-55.25 608.03,-29.53 829.89,-17.19 936.85,-12.71"/>
<polygon fill="#63b8ff" stroke="#63b8ff" points="697.82,-239.97 708.16,-242.25 701.5,-234.02 697.82,-239.97"/>
</a>
</g>
</g>
<!-- Node21&#45;&gt;Node4 -->
<g id="edge67_Node000021_Node000004" class="edge">
<title>Node21&#45;&gt;Node4</title>
<g id="a_edge67_Node000021_Node000004"><a xlink:title=" ">
<path fill="none" stroke="#63b8ff" d="M718.32,-545.47C652.91,-536.16 566.96,-510.9 566.96,-442.38 566.96,-442.38 566.96,-442.38 566.96,-324.25 566.96,-244.13 609.54,-228.46 670.96,-177 694.08,-157.62 725.93,-143.93 748.86,-135.78"/>
<polygon fill="#63b8ff" stroke="#63b8ff" points="717.58,-548.9 727.95,-546.73 718.49,-541.96 717.58,-548.9"/>
</a>
</g>
</g>
<!-- Node22 -->
<g id="Node000022" class="node">
<title>Node22</title>
<g id="a_Node000022"><a xlink:href="../../dc/d44/_call_8hpp.html" target="_top" xlink:title=" ">
<polygon fill="white" stroke="#666666" points="1330.83,-506.25 1239.08,-506.25 1239.08,-487 1330.83,-487 1330.83,-506.25"/>
<text text-anchor="middle" x="1284.96" y="-492.75" font-family="Helvetica,sans-Serif" font-size="10.00">mimic++/Call.hpp</text>
</a>
</g>
</g>
<!-- Node21&#45;&gt;Node22 -->
<g id="edge55_Node000021_Node000022" class="edge">
<title>Node21&#45;&gt;Node22</title>
<g id="a_edge55_Node000021_Node000022"><a xlink:title=" ">
<path fill="none" stroke="#63b8ff" d="M863.77,-543.03C966.94,-531.9 1152.7,-511.88 1238.81,-502.6"/>
<polygon fill="#63b8ff" stroke="#63b8ff" points="863.59,-539.52 854.03,-544.08 864.34,-546.48 863.59,-539.52"/>
</a>
</g>
</g>
<!-- Node22&#45;&gt;Node6 -->
<g id="edge59_Node000022_Node000006" class="edge">
<title>Node22&#45;&gt;Node6</title>
<g id="a_edge59_Node000022_Node000006"><a xlink:title=" ">
<path fill="none" stroke="#63b8ff" d="M1342.36,-495.52C1476.64,-493.73 1799.96,-479.79 1799.96,-387.12 1799.96,-387.12 1799.96,-387.12 1799.96,-124.75 1799.96,-52.88 1723.48,-73.44 1653.96,-55.25 1540.77,-25.64 1189.67,-14.89 1051.07,-11.74"/>
<polygon fill="#63b8ff" stroke="#63b8ff" points="1342.58,-492.02 1332.62,-495.63 1342.66,-499.02 1342.58,-492.02"/>
</a>
</g>
</g>
<!-- Node22&#45;&gt;Node10 -->
<g id="edge57_Node000022_Node000010" class="edge">
<title>Node22&#45;&gt;Node10</title>
<g id="a_edge57_Node000022_Node000010"><a xlink:title=" ">
<path fill="none" stroke="#63b8ff" d="M1275.19,-476.36C1271.43,-468.59 1267.26,-459.47 1263.96,-451 1256.44,-431.73 1249.71,-408.38 1246.3,-395.93"/>
<polygon fill="#63b8ff" stroke="#63b8ff" points="1271.99,-477.79 1279.57,-485.2 1278.26,-474.68 1271.99,-477.79"/>
</a>
</g>
</g>
<!-- Node22&#45;&gt;Node11 -->
<g id="edge56_Node000022_Node000011" class="edge">
<title>Node22&#45;&gt;Node11</title>
<g id="a_edge56_Node000022_Node000011"><a xlink:title=" ">
<path fill="none" stroke="#63b8ff" d="M1249.95,-482.33C1198.09,-460.77 1101.53,-413.13 1050.96,-340.5 1035.4,-318.16 1032.46,-284.79 1031.98,-268.86"/>
<polygon fill="#63b8ff" stroke="#63b8ff" points="1248.32,-485.45 1258.91,-485.97 1250.96,-478.96 1248.32,-485.45"/>
</a>
</g>
</g>
<!-- Node22&#45;&gt;Node14 -->
<g id="edge58_Node000022_Node000014" class="edge">
<title>Node22&#45;&gt;Node14</title>
<g id="a_edge58_Node000022_Node000014"><a xlink:title=" ">
<path fill="none" stroke="#63b8ff" d="M1298.88,-477.97C1305.91,-469.06 1314.14,-458.62 1319.87,-451.36"/>
<polygon fill="#63b8ff" stroke="#63b8ff" points="1296.27,-475.62 1292.83,-485.64 1301.77,-479.96 1296.27,-475.62"/>
</a>
</g>
</g>
<!-- Node23 -->
<g id="Node000023" class="node">
<title>Node23</title>
<g id="a_Node000023"><a xlink:href="../../d2/dfd/_argument_list_8hpp.html" target="_top" xlink:title=" ">
<polygon fill="white" stroke="#666666" points="1686.58,-340.5 1551.33,-340.5 1551.33,-310 1686.58,-310 1686.58,-340.5"/>
<text text-anchor="start" x="1559.33" y="-327" font-family="Helvetica,sans-Serif" font-size="10.00">mimic++/policies/Argument</text>
<text text-anchor="middle" x="1618.96" y="-315.75" font-family="Helvetica,sans-Serif" font-size="10.00">List.hpp</text>
</a>
</g>
</g>
<!-- Node22&#45;&gt;Node23 -->
<g id="edge60_Node000022_Node000023" class="edge">
<title>Node22&#45;&gt;Node23</title>
<g id="a_edge60_Node000022_Node000023"><a xlink:title=" ">
<path fill="none" stroke="#63b8ff" d="M1327.91,-483.32C1379.71,-467.45 1468.33,-436.9 1536.96,-395.75 1563.04,-380.11 1589.15,-356.21 1604.68,-340.91"/>
<polygon fill="#63b8ff" stroke="#63b8ff" points="1327.14,-479.9 1318.58,-486.14 1329.16,-486.6 1327.14,-479.9"/>
</a>
</g>
</g>
<!-- Node23&#45;&gt;Node6 -->
<g id="edge61_Node000023_Node000006" class="edge">
<title>Node23&#45;&gt;Node6</title>
<g id="a_edge61_Node000023_Node000006"><a xlink:title=" ">
<path fill="none" stroke="#63b8ff" d="M1617.39,-298.45C1615.92,-272.03 1613.96,-229.8 1613.96,-193.25 1613.96,-193.25 1613.96,-193.25 1613.96,-124.75 1613.96,-49.25 1531.94,-74.56 1458.96,-55.25 1315.67,-17.35 1139.99,-10.82 1051.19,-10.19"/>
<polygon fill="#63b8ff" stroke="#63b8ff" points="1613.88,-298.42 1617.95,-308.21 1620.87,-298.02 1613.88,-298.42"/>
</a>
</g>
</g>
<!-- Node23&#45;&gt;Node19 -->
<g id="edge62_Node000023_Node000019" class="edge">
<title>Node23&#45;&gt;Node19</title>
<g id="a_edge62_Node000023_Node000019"><a xlink:title=" ">
<path fill="none" stroke="#63b8ff" d="M1552.25,-306.62C1514,-296.51 1466.57,-283.97 1430.39,-274.4"/>
<polygon fill="#63b8ff" stroke="#63b8ff" points="1551.26,-309.97 1561.82,-309.15 1553.05,-303.21 1551.26,-309.97"/>
</a>
</g>
</g>
<!-- Node24 -->
<g id="Node000024" class="node">
<title>Node24</title>
<g id="a_Node000024"><a xlink:href="../../d3/da3/_finalizer_policies_8hpp.html" target="_top" xlink:title=" ">
<polygon fill="white" stroke="#666666" points="1771.58,-207.5 1642.33,-207.5 1642.33,-177 1771.58,-177 1771.58,-207.5"/>
<text text-anchor="start" x="1650.33" y="-194" font-family="Helvetica,sans-Serif" font-size="10.00">mimic++/policies/Finalizer</text>
<text text-anchor="middle" x="1706.96" y="-182.75" font-family="Helvetica,sans-Serif" font-size="10.00">Policies.hpp</text>
</a>
</g>
</g>
<!-- Node23&#45;&gt;Node24 -->
<g id="edge63_Node000023_Node000024" class="edge">
<title>Node23&#45;&gt;Node24</title>
<g id="a_edge63_Node000023_Node000024"><a xlink:title=" ">
<path fill="none" stroke="#63b8ff" d="M1635.09,-300.24C1653.23,-273.22 1682.13,-230.2 1697.16,-207.83"/>
<polygon fill="#63b8ff" stroke="#63b8ff" points="1632.22,-298.22 1629.55,-308.47 1638.03,-302.12 1632.22,-298.22"/>
</a>
</g>
</g>
<!-- Node25 -->
<g id="Node000025" class="node">
<title>Node25</title>
<g id="a_Node000025"><a xlink:href="../../dc/d18/_side_effect_policies_8hpp.html" target="_top" xlink:title=" ">
<polygon fill="white" stroke="#666666" points="1585.71,-207.5 1448.21,-207.5 1448.21,-177 1585.71,-177 1585.71,-207.5"/>
<text text-anchor="start" x="1456.21" y="-194" font-family="Helvetica,sans-Serif" font-size="10.00">mimic++/policies/SideEffect</text>
<text text-anchor="middle" x="1516.96" y="-182.75" font-family="Helvetica,sans-Serif" font-size="10.00">Policies.hpp</text>
</a>
</g>
</g>
<!-- Node23&#45;&gt;Node25 -->
<g id="edge65_Node000023_Node000025" class="edge">
<title>Node23&#45;&gt;Node25</title>
<g id="a_edge65_Node000023_Node000025"><a xlink:title=" ">
<path fill="none" stroke="#63b8ff" d="M1600.81,-300.95C1579.81,-273.98 1545.88,-230.4 1528.31,-207.83"/>
<polygon fill="#63b8ff" stroke="#63b8ff" points="1597.81,-302.8 1606.72,-308.54 1603.34,-298.5 1597.81,-302.8"/>
</a>
</g>
</g>
<!-- Node24&#45;&gt;Node6 -->
<g id="edge64_Node000024_Node000006" class="edge">
<title>Node24&#45;&gt;Node6</title>
<g id="a_edge64_Node000024_Node000006"><a xlink:title=" ">
<path fill="none" stroke="#63b8ff" d="M1700.19,-165.88C1690.2,-133.98 1668.2,-80.34 1627.96,-55.25 1579.67,-25.15 1197.66,-14.59 1051.01,-11.62"/>
<polygon fill="#63b8ff" stroke="#63b8ff" points="1696.72,-166.51 1702.91,-175.11 1703.44,-164.53 1696.72,-166.51"/>
</a>
</g>
</g>
<!-- Node25&#45;&gt;Node6 -->
<g id="edge66_Node000025_Node000006" class="edge">
<title>Node25&#45;&gt;Node6</title>
<g id="a_edge66_Node000025_Node000006"><a xlink:title=" ">
<path fill="none" stroke="#63b8ff" d="M1509.34,-166.04C1498.3,-134.31 1474.61,-80.85 1433.96,-55.25 1371.58,-15.97 1155.27,-10.51 1051.01,-10.23"/>
<polygon fill="#63b8ff" stroke="#63b8ff" points="1505.91,-166.82 1512.36,-175.22 1512.56,-164.63 1505.91,-166.82"/>
</a>
</g>
</g>
</g>
</svg>

<g id="navigator" transform="translate(0 0)" fill="#404254">
  <rect fill="#f2f5e9" fill-opacity="0.5" stroke="#606060" stroke-width=".5" x="0" y="0" width="60" height="60"/>
  <use id="zoomplus" xlink:href="#zoomPlus" x="17" y="9" onmousedown="handleZoom(evt,'in')"/>
  <use id="zoomminus" xlink:href="#zoomMin" x="42" y="9" onmousedown="handleZoom(evt,'out')"/>
  <use id="reset" xlink:href="#resetDef" x="30" y="36" onmousedown="handleReset()"/>
   <use id="arrowup" xlink:href="#arrowUp" x="0" y="0" onmousedown="handlePan(0,-1)"/>
  <use id="arrowright" xlink:href="#arrowRight" x="0" y="0" onmousedown="handlePan(1,0)"/>
  <use id="arrowdown" xlink:href="#arrowDown" x="0" y="0" onmousedown="handlePan(0,1)"/>
  <use id="arrowleft" xlink:href="#arrowLeft" x="0" y="0" onmousedown="handlePan(-1,0)"/>
</g>
<svg viewBox="0 0 15 15" width="100%" height="30px" preserveAspectRatio="xMaxYMin meet">
 <g id="arrow_out" transform="scale(0.3 0.3)">
  <a xlink:href="_string_8hpp__dep__incl_org.svg" target="_base">
   <rect id="button" ry="5" rx="5" y="6" x="6" height="38" width="38"
        fill="#f2f5e9" fill-opacity="0.5" stroke="#606060" stroke-width="1.0"/>
   <path id="arrow"
     d="M 11.500037,31.436501 C 11.940474,20.09759 22.043105,11.32322 32.158766,21.979434 L 37.068811,17.246167 C 37.068811,17.246167 37.088388,32 37.088388,32 L 22.160133,31.978069 C 22.160133,31.978069 26.997745,27.140456 26.997745,27.140456 C 18.528582,18.264221 13.291696,25.230495 11.500037,31.436501 z"
     style="fill:#404040;"/>
  </a>
 </g>
</svg>

<style type='text/css'>
<![CDATA[
[data-mouse-over-selected='false'] { opacity: 0.7; }
[data-mouse-over-selected='true']  { opacity: 1.0; }
]]>
</style>
<script type="application/ecmascript"><![CDATA[
document.addEventListener('DOMContentLoaded', (event) => {
  highlightEdges();
  highlightAdjacentNodes();
});
]]></script>
</svg>
