<?xml version="1.0" encoding="UTF-8" standalone="no"?>
<!DOCTYPE svg PUBLIC "-//W3C//DTD SVG 1.1//EN"
 "http://www.w3.org/Graphics/SVG/1.1/DTD/svg11.dtd">
<!-- Generated by graphviz version 12.1.2 (20240928.0832)
 -->
<!-- Title: mimic++/String.hpp Pages: 1 -->
<svg width="994pt" height="635pt"
 viewBox="0.00 0.00 994.35 635.00" xmlns="http://www.w3.org/2000/svg" xmlns:xlink="http://www.w3.org/1999/xlink">
<g id="graph0" class="graph" transform="scale(1 1) rotate(0) translate(4 631)">
<title>mimic++/String.hpp</title>
<!-- Node1 -->
<g id="Node000001" class="node">
<title>Node1</title>
<g id="a_Node000001"><a xlink:title=" ">
<polygon fill="#999999" stroke="#666666" points="986.35,-627 885.6,-627 885.6,-607.75 986.35,-607.75 986.35,-627"/>
<text text-anchor="middle" x="935.97" y="-613.5" font-family="Helvetica,sans-Serif" font-size="10.00">mimic++/String.hpp</text>
</a>
</g>
</g>
<!-- Node2 -->
<g id="Node000002" class="node">
<title>Node2</title>
<g id="a_Node000002"><a xlink:href="../../dd/d50/_matcher_8hpp.html" target="_top" xlink:title=" ">
<polygon fill="white" stroke="#666666" points="889.22,-461.25 778.72,-461.25 778.72,-442 889.22,-442 889.22,-461.25"/>
<text text-anchor="middle" x="833.97" y="-447.75" font-family="Helvetica,sans-Serif" font-size="10.00">mimic++/Matcher.hpp</text>
</a>
</g>
</g>
<!-- Node1&#45;&gt;Node2 -->
<g id="edge1_Node000001_Node000002" class="edge">
<title>Node1&#45;&gt;Node2</title>
<g id="a_edge1_Node000001_Node000002"><a xlink:title=" ">
<path fill="none" stroke="#63b8ff" d="M924.57,-598.07C902.7,-562.95 855.57,-487.3 839.48,-461.47"/>
<polygon fill="#63b8ff" stroke="#63b8ff" points="921.43,-599.65 929.69,-606.29 927.37,-595.95 921.43,-599.65"/>
</a>
</g>
</g>
<!-- Node7 -->
<g id="Node000007" class="node">
<title>Node7</title>
<g id="a_Node000007"><a xlink:href="../../d0/db9/mimic_09_09_8hpp.html" target="_top" xlink:title=" ">
<polygon fill="white" stroke="#666666" points="582.72,-19.25 469.22,-19.25 469.22,0 582.72,0 582.72,-19.25"/>
<text text-anchor="middle" x="525.97" y="-5.75" font-family="Helvetica,sans-Serif" font-size="10.00">mimic++/mimic++.hpp</text>
</a>
</g>
</g>
<!-- Node1&#45;&gt;Node7 -->
<g id="edge39_Node000001_Node000007" class="edge">
<title>Node1&#45;&gt;Node7</title>
<g id="a_edge39_Node000001_Node000007"><a xlink:title=" ">
<path fill="none" stroke="#63b8ff" d="M946.9,-597.59C958.13,-576.49 973.97,-540.87 973.97,-507.88 973.97,-507.88 973.97,-507.88 973.97,-119.12 973.97,-39.6 703.94,-18.16 583.17,-12.55"/>
<polygon fill="#63b8ff" stroke="#63b8ff" points="943.95,-595.7 942.15,-606.14 950.07,-599.1 943.95,-595.7"/>
</a>
</g>
</g>
<!-- Node9 -->
<g id="Node000009" class="node">
<title>Node9</title>
<g id="a_Node000009"><a xlink:href="../../da/dab/_printer_8hpp.html" target="_top" xlink:title=" ">
<polygon fill="white" stroke="#666666" points="802.85,-571.75 699.1,-571.75 699.1,-552.5 802.85,-552.5 802.85,-571.75"/>
<text text-anchor="middle" x="750.97" y="-558.25" font-family="Helvetica,sans-Serif" font-size="10.00">mimic++/Printer.hpp</text>
</a>
</g>
</g>
<!-- Node1&#45;&gt;Node9 -->
<g id="edge13_Node000001_Node000009" class="edge">
<title>Node1&#45;&gt;Node9</title>
<g id="a_edge13_Node000001_Node000009"><a xlink:title=" ">
<path fill="none" stroke="#63b8ff" d="M893.65,-604.19C859.81,-594.45 813.13,-581.02 782.51,-572.2"/>
<polygon fill="#63b8ff" stroke="#63b8ff" points="892.56,-607.52 903.14,-606.92 894.49,-600.79 892.56,-607.52"/>
</a>
</g>
</g>
<!-- Node3 -->
<g id="Node000003" class="node">
<title>Node3</title>
<g id="a_Node000003"><a xlink:href="../../d8/de5/_expectation_policies_8hpp.html" target="_top" xlink:title=" ">
<polygon fill="white" stroke="#666666" points="741.97,-240.25 581.97,-240.25 581.97,-221 741.97,-221 741.97,-240.25"/>
<text text-anchor="middle" x="661.97" y="-226.75" font-family="Helvetica,sans-Serif" font-size="10.00">mimic++/ExpectationPolicies.hpp</text>
</a>
</g>
</g>
<!-- Node2&#45;&gt;Node3 -->
<g id="edge2_Node000002_Node000003" class="edge">
<title>Node2&#45;&gt;Node3</title>
<g id="a_edge2_Node000002_Node000003"><a xlink:title=" ">
<path fill="none" stroke="#63b8ff" d="M831.13,-430.52C825.12,-394.98 807.94,-320.62 764.97,-276.25 747.82,-258.54 722.47,-247.44 701.21,-240.73"/>
<polygon fill="#63b8ff" stroke="#63b8ff" points="827.65,-430.89 832.64,-440.24 834.56,-429.82 827.65,-430.89"/>
</a>
</g>
</g>
<!-- Node2&#45;&gt;Node7 -->
<g id="edge12_Node000002_Node000007" class="edge">
<title>Node2&#45;&gt;Node7</title>
<g id="a_edge12_Node000002_Node000007"><a xlink:title=" ">
<path fill="none" stroke="#63b8ff" d="M843.02,-431.31C852.17,-409.98 864.97,-374.36 864.97,-342.12 864.97,-342.12 864.97,-342.12 864.97,-119.12 864.97,-79.56 838.07,-73.52 802.97,-55.25 765.65,-35.82 652.57,-22.29 582.96,-15.55"/>
<polygon fill="#63b8ff" stroke="#63b8ff" points="839.93,-429.65 839.03,-440.21 846.32,-432.51 839.93,-429.65"/>
</a>
</g>
</g>
<!-- Node4 -->
<g id="Node000004" class="node">
<title>Node4</title>
<g id="a_Node000004"><a xlink:href="../../d2/d4f/_expectation_builder_8hpp.html" target="_top" xlink:title=" ">
<polygon fill="white" stroke="#666666" points="506.72,-185 351.22,-185 351.22,-165.75 506.72,-165.75 506.72,-185"/>
<text text-anchor="middle" x="428.97" y="-171.5" font-family="Helvetica,sans-Serif" font-size="10.00">mimic++/ExpectationBuilder.hpp</text>
</a>
</g>
</g>
<!-- Node3&#45;&gt;Node4 -->
<g id="edge3_Node000003_Node000004" class="edge">
<title>Node3&#45;&gt;Node4</title>
<g id="a_edge3_Node000003_Node000004"><a xlink:title=" ">
<path fill="none" stroke="#63b8ff" d="M611.15,-218.01C568.33,-208.22 507.91,-194.42 468.6,-185.43"/>
<polygon fill="#63b8ff" stroke="#63b8ff" points="610.18,-221.38 620.71,-220.19 611.74,-214.55 610.18,-221.38"/>
</a>
</g>
</g>
<!-- Node5 -->
<g id="Node000005" class="node">
<title>Node5</title>
<g id="a_Node000005"><a xlink:href="../../d5/dc5/_mock_8hpp.html" target="_top" xlink:title=" ">
<polygon fill="white" stroke="#666666" points="565.6,-129.75 466.35,-129.75 466.35,-110.5 565.6,-110.5 565.6,-129.75"/>
<text text-anchor="middle" x="515.97" y="-116.25" font-family="Helvetica,sans-Serif" font-size="10.00">mimic++/Mock.hpp</text>
</a>
</g>
</g>
<!-- Node3&#45;&gt;Node5 -->
<g id="edge10_Node000003_Node000005" class="edge">
<title>Node3&#45;&gt;Node5</title>
<g id="a_edge10_Node000003_Node000005"><a xlink:title=" ">
<path fill="none" stroke="#63b8ff" d="M640.66,-213.78C609.56,-190.67 552.77,-148.47 528.03,-130.09"/>
<polygon fill="#63b8ff" stroke="#63b8ff" points="638.45,-216.5 648.56,-219.66 642.62,-210.88 638.45,-216.5"/>
</a>
</g>
</g>
<!-- Node3&#45;&gt;Node7 -->
<g id="edge11_Node000003_Node000007" class="edge">
<title>Node3&#45;&gt;Node7</title>
<g id="a_edge11_Node000003_Node000007"><a xlink:title=" ">
<path fill="none" stroke="#63b8ff" d="M679,-212.88C710.64,-179.72 771.83,-104.66 731.97,-55.25 713.57,-32.43 637.48,-20.69 583.14,-15.11"/>
<polygon fill="#63b8ff" stroke="#63b8ff" points="676.87,-210.04 672.37,-219.63 681.87,-214.94 676.87,-210.04"/>
</a>
</g>
</g>
<!-- Node4&#45;&gt;Node5 -->
<g id="edge4_Node000004_Node000005" class="edge">
<title>Node4&#45;&gt;Node5</title>
<g id="a_edge4_Node000004_Node000005"><a xlink:title=" ">
<path fill="none" stroke="#63b8ff" d="M453.16,-159.57C468.55,-150.15 488,-138.25 501.14,-130.2"/>
<polygon fill="#63b8ff" stroke="#63b8ff" points="451.72,-156.35 445.02,-164.55 455.38,-162.32 451.72,-156.35"/>
</a>
</g>
</g>
<!-- Node4&#45;&gt;Node7 -->
<g id="edge9_Node000004_Node000007" class="edge">
<title>Node4&#45;&gt;Node7</title>
<g id="a_edge9_Node000004_Node000007"><a xlink:title=" ">
<path fill="none" stroke="#63b8ff" d="M418.28,-155.29C405.75,-130.12 389.2,-85.49 409.97,-55.25 423.41,-35.68 446.72,-24.69 468.93,-18.52"/>
<polygon fill="#63b8ff" stroke="#63b8ff" points="415.12,-156.82 422.89,-164.03 421.31,-153.55 415.12,-156.82"/>
</a>
</g>
</g>
<!-- Node6 -->
<g id="Node000006" class="node">
<title>Node6</title>
<g id="a_Node000006"><a xlink:href="../../d9/dc3/_interface_mock_8hpp.html" target="_top" xlink:title=" ">
<polygon fill="white" stroke="#666666" points="722.72,-74.5 585.22,-74.5 585.22,-55.25 722.72,-55.25 722.72,-74.5"/>
<text text-anchor="middle" x="653.97" y="-61" font-family="Helvetica,sans-Serif" font-size="10.00">mimic++/InterfaceMock.hpp</text>
</a>
</g>
</g>
<!-- Node5&#45;&gt;Node6 -->
<g id="edge5_Node000005_Node000006" class="edge">
<title>Node5&#45;&gt;Node6</title>
<g id="a_edge5_Node000005_Node000006"><a xlink:title=" ">
<path fill="none" stroke="#63b8ff" d="M549.88,-106.04C574.89,-96.39 608.3,-83.5 630.45,-74.95"/>
<polygon fill="#63b8ff" stroke="#63b8ff" points="548.86,-102.68 540.79,-109.55 551.38,-109.21 548.86,-102.68"/>
</a>
</g>
</g>
<!-- Node5&#45;&gt;Node7 -->
<g id="edge8_Node000005_Node000007" class="edge">
<title>Node5&#45;&gt;Node7</title>
<g id="a_edge8_Node000005_Node000007"><a xlink:title=" ">
<path fill="none" stroke="#63b8ff" d="M465.71,-106.76C434.03,-96.35 401.9,-79.29 417.97,-55.25 430.27,-36.87 451.67,-26.05 472.2,-19.69"/>
<polygon fill="#63b8ff" stroke="#63b8ff" points="464.33,-109.99 474.92,-109.59 466.39,-103.3 464.33,-109.99"/>
</a>
</g>
</g>
<!-- Node8 -->
<g id="Node000008" class="node">
<title>Node8</title>
<g id="a_Node000008"><a xlink:href="../../d5/d92/_object_watcher_8hpp.html" target="_top" xlink:title=" ">
<polygon fill="white" stroke="#666666" points="566.85,-74.5 427.1,-74.5 427.1,-55.25 566.85,-55.25 566.85,-74.5"/>
<text text-anchor="middle" x="496.97" y="-61" font-family="Helvetica,sans-Serif" font-size="10.00">mimic++/ObjectWatcher.hpp</text>
</a>
</g>
</g>
<!-- Node5&#45;&gt;Node8 -->
<g id="edge7_Node000005_Node000008" class="edge">
<title>Node5&#45;&gt;Node8</title>
<g id="a_edge7_Node000005_Node000008"><a xlink:title=" ">
<path fill="none" stroke="#63b8ff" d="M509.06,-99.75C506.02,-91.24 502.6,-81.65 500.18,-74.86"/>
<polygon fill="#63b8ff" stroke="#63b8ff" points="505.67,-100.66 512.33,-108.91 512.26,-98.31 505.67,-100.66"/>
</a>
</g>
</g>
<!-- Node6&#45;&gt;Node7 -->
<g id="edge6_Node000006_Node000007" class="edge">
<title>Node6&#45;&gt;Node7</title>
<g id="a_edge6_Node000006_Node000007"><a xlink:title=" ">
<path fill="none" stroke="#63b8ff" d="M621.9,-50.53C598.77,-40.91 568.15,-28.17 547.79,-19.7"/>
<polygon fill="#63b8ff" stroke="#63b8ff" points="620.28,-53.65 630.86,-54.26 622.97,-47.19 620.28,-53.65"/>
</a>
</g>
</g>
<!-- Node9&#45;&gt;Node2 -->
<g id="edge15_Node000009_Node000002" class="edge">
<title>Node9&#45;&gt;Node2</title>
<g id="a_edge15_Node000009_Node000002"><a xlink:title=" ">
<path fill="none" stroke="#63b8ff" d="M764.57,-543.35C782.5,-519.91 813.39,-479.53 827.09,-461.63"/>
<polygon fill="#63b8ff" stroke="#63b8ff" points="761.98,-540.97 758.68,-551.04 767.54,-545.23 761.98,-540.97"/>
</a>
</g>
</g>
<!-- Node9&#45;&gt;Node3 -->
<g id="edge14_Node000009_Node000003" class="edge">
<title>Node9&#45;&gt;Node3</title>
<g id="a_edge14_Node000009_Node000003"><a xlink:title=" ">
<path fill="none" stroke="#63b8ff" d="M750.97,-540.76C750.97,-518.95 750.97,-483.34 750.97,-452.62 750.97,-452.62 750.97,-452.62 750.97,-340.12 750.97,-294.08 702.46,-256.88 677.07,-240.57"/>
<polygon fill="#63b8ff" stroke="#63b8ff" points="747.47,-540.61 750.97,-550.61 754.47,-540.61 747.47,-540.61"/>
</a>
</g>
</g>
<!-- Node9&#45;&gt;Node7 -->
<g id="edge38_Node000009_Node000007" class="edge">
<title>Node9&#45;&gt;Node7</title>
<g id="a_edge38_Node000009_Node000007"><a xlink:title=" ">
<path fill="none" stroke="#63b8ff" d="M783.12,-547.33C816.6,-531.35 868.22,-501.92 897.97,-461.25 915.46,-437.35 916.97,-426.99 916.97,-397.38 916.97,-397.38 916.97,-397.38 916.97,-119.12 916.97,-72.93 877.48,-73.35 834.97,-55.25 752.19,-20 646.84,-11.7 583,-10.22"/>
<polygon fill="#63b8ff" stroke="#63b8ff" points="781.92,-544.02 774.32,-551.4 784.86,-550.38 781.92,-544.02"/>
</a>
</g>
</g>
<!-- Node10 -->
<g id="Node000010" class="node">
<title>Node10</title>
<g id="a_Node000010"><a xlink:href="../../da/dd9/_reporter_8hpp.html" target="_top" xlink:title=" ">
<polygon fill="white" stroke="#666666" points="553.97,-461.25 441.97,-461.25 441.97,-442 553.97,-442 553.97,-461.25"/>
<text text-anchor="middle" x="497.97" y="-447.75" font-family="Helvetica,sans-Serif" font-size="10.00">mimic++/Reporter.hpp</text>
</a>
</g>
</g>
<!-- Node9&#45;&gt;Node10 -->
<g id="edge16_Node000009_Node000010" class="edge">
<title>Node9&#45;&gt;Node10</title>
<g id="a_edge16_Node000009_Node000010"><a xlink:title=" ">
<path fill="none" stroke="#63b8ff" d="M701.24,-549.13C672.49,-541.41 635.99,-530.25 604.97,-516.5 568.98,-500.54 530.08,-474.99 510.6,-461.55"/>
<polygon fill="#63b8ff" stroke="#63b8ff" points="700.22,-552.48 710.78,-551.63 702,-545.71 700.22,-552.48"/>
</a>
</g>
</g>
<!-- Node12 -->
<g id="Node000012" class="node">
<title>Node12</title>
<g id="a_Node000012"><a xlink:href="../../d8/de4/_sequence_8hpp.html" target="_top" xlink:title=" ">
<polygon fill="white" stroke="#666666" points="147.35,-406 28.6,-406 28.6,-386.75 147.35,-386.75 147.35,-406"/>
<text text-anchor="middle" x="87.97" y="-392.5" font-family="Helvetica,sans-Serif" font-size="10.00">mimic++/Sequence.hpp</text>
</a>
</g>
</g>
<!-- Node9&#45;&gt;Node12 -->
<g id="edge37_Node000009_Node000012" class="edge">
<title>Node9&#45;&gt;Node12</title>
<g id="a_edge37_Node000009_Node000012"><a xlink:title=" ">
<path fill="none" stroke="#63b8ff" d="M701.08,-549.38C663.39,-540.46 610.4,-527.85 563.97,-516.5 399.3,-476.25 203.01,-426.59 123.77,-406.48"/>
<polygon fill="#63b8ff" stroke="#63b8ff" points="700.25,-552.78 710.79,-551.67 701.86,-545.96 700.25,-552.78"/>
</a>
</g>
</g>
<!-- Node17 -->
<g id="Node000017" class="node">
<title>Node17</title>
<g id="a_Node000017"><a xlink:href="../../d0/d3b/_reports_8hpp.html" target="_top" xlink:title=" ">
<polygon fill="white" stroke="#666666" points="722.47,-516.5 613.47,-516.5 613.47,-497.25 722.47,-497.25 722.47,-516.5"/>
<text text-anchor="middle" x="667.97" y="-503" font-family="Helvetica,sans-Serif" font-size="10.00">mimic++/Reports.hpp</text>
</a>
</g>
</g>
<!-- Node9&#45;&gt;Node17 -->
<g id="edge33_Node000009_Node000017" class="edge">
<title>Node9&#45;&gt;Node17</title>
<g id="a_edge33_Node000009_Node000017"><a xlink:title=" ">
<path fill="none" stroke="#63b8ff" d="M727.48,-546.05C712.86,-536.67 694.54,-524.92 682.12,-516.95"/>
<polygon fill="#63b8ff" stroke="#63b8ff" points="725.31,-548.82 735.62,-551.27 729.09,-542.93 725.31,-548.82"/>
</a>
</g>
</g>
<!-- Node10&#45;&gt;Node7 -->
<g id="edge32_Node000010_Node000007" class="edge">
<title>Node10&#45;&gt;Node7</title>
<g id="a_edge32_Node000010_Node000007"><a xlink:title=" ">
<path fill="none" stroke="#63b8ff" d="M430.51,-448.46C306.25,-443.89 51.01,-431.48 19.97,-406 -2.92,-387.21 0.97,-371.74 0.97,-342.12 0.97,-342.12 0.97,-342.12 0.97,-119.12 0.97,-24.42 332.72,-11.72 468.79,-10.49"/>
<polygon fill="#63b8ff" stroke="#63b8ff" points="430.12,-451.95 440.24,-448.82 430.37,-444.96 430.12,-451.95"/>
</a>
</g>
</g>
<!-- Node11 -->
<g id="Node000011" class="node">
<title>Node11</title>
<g id="a_Node000011"><a xlink:href="../../d5/d8a/_expectation_8hpp.html" target="_top" xlink:title=" ">
<polygon fill="white" stroke="#666666" points="578.72,-295.5 453.22,-295.5 453.22,-276.25 578.72,-276.25 578.72,-295.5"/>
<text text-anchor="middle" x="515.97" y="-282" font-family="Helvetica,sans-Serif" font-size="10.00">mimic++/Expectation.hpp</text>
</a>
</g>
</g>
<!-- Node10&#45;&gt;Node11 -->
<g id="edge17_Node000010_Node000011" class="edge">
<title>Node10&#45;&gt;Node11</title>
<g id="a_edge17_Node000010_Node000011"><a xlink:title=" ">
<path fill="none" stroke="#63b8ff" d="M565.3,-439.91C602.99,-432.39 644.62,-421 655.97,-406 693.24,-356.76 594.18,-313.9 543.6,-295.9"/>
<polygon fill="#63b8ff" stroke="#63b8ff" points="564.94,-436.42 555.78,-441.74 566.26,-443.29 564.94,-436.42"/>
</a>
</g>
</g>
<!-- Node10&#45;&gt;Node12 -->
<g id="edge22_Node000010_Node000012" class="edge">
<title>Node10&#45;&gt;Node12</title>
<g id="a_edge22_Node000010_Node000012"><a xlink:title=" ">
<path fill="none" stroke="#63b8ff" d="M430.59,-441.87C351.93,-431.66 223.02,-414.91 147.76,-405.14"/>
<polygon fill="#63b8ff" stroke="#63b8ff" points="429.96,-445.32 440.32,-443.14 430.86,-438.38 429.96,-445.32"/>
</a>
</g>
</g>
<!-- Node14 -->
<g id="Node000014" class="node">
<title>Node14</title>
<g id="a_Node000014"><a xlink:href="../../d9/d42/_boost_test_8hpp.html" target="_top" xlink:title=" ">
<polygon fill="white" stroke="#666666" points="326.35,-406 165.6,-406 165.6,-386.75 326.35,-386.75 326.35,-406"/>
<text text-anchor="middle" x="245.97" y="-392.5" font-family="Helvetica,sans-Serif" font-size="10.00">mimic++/adapters/BoostTest.hpp</text>
</a>
</g>
</g>
<!-- Node10&#45;&gt;Node14 -->
<g id="edge29_Node000010_Node000014" class="edge">
<title>Node10&#45;&gt;Node14</title>
<g id="a_edge29_Node000010_Node000014"><a xlink:title=" ">
<path fill="none" stroke="#63b8ff" d="M443.89,-439.2C397.52,-429.4 331.62,-415.47 288.83,-406.43"/>
<polygon fill="#63b8ff" stroke="#63b8ff" points="442.95,-442.58 453.46,-441.22 444.4,-435.73 442.95,-442.58"/>
</a>
</g>
</g>
<!-- Node15 -->
<g id="Node000015" class="node">
<title>Node15</title>
<g id="a_Node000015"><a xlink:href="../../d3/d04/_catch2_8hpp.html" target="_top" xlink:title=" ">
<polygon fill="white" stroke="#666666" points="491.22,-406 344.72,-406 344.72,-386.75 491.22,-386.75 491.22,-406"/>
<text text-anchor="middle" x="417.97" y="-392.5" font-family="Helvetica,sans-Serif" font-size="10.00">mimic++/adapters/Catch2.hpp</text>
</a>
</g>
</g>
<!-- Node10&#45;&gt;Node15 -->
<g id="edge30_Node000010_Node000015" class="edge">
<title>Node10&#45;&gt;Node15</title>
<g id="a_edge30_Node000010_Node000015"><a xlink:title=" ">
<path fill="none" stroke="#63b8ff" d="M474.92,-435.28C460.9,-425.95 443.47,-414.35 431.61,-406.45"/>
<polygon fill="#63b8ff" stroke="#63b8ff" points="472.88,-438.13 483.14,-440.75 476.76,-432.3 472.88,-438.13"/>
</a>
</g>
</g>
<!-- Node16 -->
<g id="Node000016" class="node">
<title>Node16</title>
<g id="a_Node000016"><a xlink:href="../../d5/db1/gtest_8hpp.html" target="_top" xlink:title=" ">
<polygon fill="white" stroke="#666666" points="646.72,-406 509.22,-406 509.22,-386.75 646.72,-386.75 646.72,-406"/>
<text text-anchor="middle" x="577.97" y="-392.5" font-family="Helvetica,sans-Serif" font-size="10.00">mimic++/adapters/gtest.hpp</text>
</a>
</g>
</g>
<!-- Node10&#45;&gt;Node16 -->
<g id="edge31_Node000010_Node000016" class="edge">
<title>Node10&#45;&gt;Node16</title>
<g id="a_edge31_Node000010_Node000016"><a xlink:title=" ">
<path fill="none" stroke="#63b8ff" d="M521.02,-435.28C535.05,-425.95 552.48,-414.35 564.34,-406.45"/>
<polygon fill="#63b8ff" stroke="#63b8ff" points="519.19,-432.3 512.8,-440.75 523.07,-438.13 519.19,-432.3"/>
</a>
</g>
</g>
<!-- Node11&#45;&gt;Node3 -->
<g id="edge19_Node000011_Node000003" class="edge">
<title>Node11&#45;&gt;Node3</title>
<g id="a_edge19_Node000011_Node000003"><a xlink:title=" ">
<path fill="none" stroke="#63b8ff" d="M551.48,-271.92C577.99,-262.25 613.55,-249.29 637.08,-240.7"/>
<polygon fill="#63b8ff" stroke="#63b8ff" points="550.36,-268.61 542.16,-275.32 552.76,-275.18 550.36,-268.61"/>
</a>
</g>
</g>
<!-- Node11&#45;&gt;Node4 -->
<g id="edge18_Node000011_Node000004" class="edge">
<title>Node11&#45;&gt;Node4</title>
<g id="a_edge18_Node000011_Node000004"><a xlink:title=" ">
<path fill="none" stroke="#63b8ff" d="M501.72,-267.1C482.92,-243.66 450.55,-203.28 436.19,-185.38"/>
<polygon fill="#63b8ff" stroke="#63b8ff" points="498.92,-269.2 507.91,-274.82 504.38,-264.82 498.92,-269.2"/>
</a>
</g>
</g>
<!-- Node11&#45;&gt;Node5 -->
<g id="edge20_Node000011_Node000005" class="edge">
<title>Node11&#45;&gt;Node5</title>
<g id="a_edge20_Node000011_Node000005"><a xlink:title=" ">
<path fill="none" stroke="#63b8ff" d="M515.97,-264.72C515.97,-228.86 515.97,-155.35 515.97,-129.97"/>
<polygon fill="#63b8ff" stroke="#63b8ff" points="512.47,-264.56 515.97,-274.56 519.47,-264.56 512.47,-264.56"/>
</a>
</g>
</g>
<!-- Node11&#45;&gt;Node7 -->
<g id="edge21_Node000011_Node000007" class="edge">
<title>Node11&#45;&gt;Node7</title>
<g id="a_edge21_Node000011_Node000007"><a xlink:title=" ">
<path fill="none" stroke="#63b8ff" d="M461.28,-272.96C405.15,-257.37 327.86,-224.84 341.97,-165.75 354.77,-112.2 356.53,-91.5 397.97,-55.25 418.79,-37.05 447.46,-26.15 472.39,-19.69"/>
<polygon fill="#63b8ff" stroke="#63b8ff" points="460.16,-276.28 470.72,-275.46 461.96,-269.52 460.16,-276.28"/>
</a>
</g>
</g>
<!-- Node12&#45;&gt;Node4 -->
<g id="edge27_Node000012_Node000004" class="edge">
<title>Node12&#45;&gt;Node4</title>
<g id="a_edge27_Node000012_Node000004"><a xlink:title=" ">
<path fill="none" stroke="#63b8ff" d="M116.41,-381.24C132.88,-372.81 153.87,-361.66 171.97,-350.75 269.19,-292.18 380.29,-212.03 416.72,-185.39"/>
<polygon fill="#63b8ff" stroke="#63b8ff" points="115,-378.03 107.66,-385.67 118.16,-384.27 115,-378.03"/>
</a>
</g>
</g>
<!-- Node12&#45;&gt;Node7 -->
<g id="edge28_Node000012_Node000007" class="edge">
<title>Node12&#45;&gt;Node7</title>
<g id="a_edge28_Node000012_Node000007"><a xlink:title=" ">
<path fill="none" stroke="#63b8ff" d="M107.38,-378.81C128.1,-359.18 157.97,-324.37 157.97,-286.88 157.97,-286.88 157.97,-286.88 157.97,-119.12 157.97,-55.1 365.51,-26.05 468.88,-15.55"/>
<polygon fill="#63b8ff" stroke="#63b8ff" points="105.09,-376.17 100.03,-385.48 109.79,-381.35 105.09,-376.17"/>
</a>
</g>
</g>
<!-- Node13 -->
<g id="Node000013" class="node">
<title>Node13</title>
<g id="a_Node000013"><a xlink:href="../../d6/d17/_control_policy_8hpp.html" target="_top" xlink:title=" ">
<polygon fill="white" stroke="#666666" points="397.1,-350.75 264.85,-350.75 264.85,-331.5 397.1,-331.5 397.1,-350.75"/>
<text text-anchor="middle" x="330.97" y="-337.25" font-family="Helvetica,sans-Serif" font-size="10.00">mimic++/ControlPolicy.hpp</text>
</a>
</g>
</g>
<!-- Node12&#45;&gt;Node13 -->
<g id="edge23_Node000012_Node000013" class="edge">
<title>Node12&#45;&gt;Node13</title>
<g id="a_edge23_Node000012_Node000013"><a xlink:title=" ">
<path fill="none" stroke="#63b8ff" d="M140.69,-383.82C185.37,-374.03 248.56,-360.19 289.65,-351.18"/>
<polygon fill="#63b8ff" stroke="#63b8ff" points="139.97,-380.4 130.95,-385.96 141.47,-387.24 139.97,-380.4"/>
</a>
</g>
</g>
<!-- Node13&#45;&gt;Node4 -->
<g id="edge25_Node000013_Node000004" class="edge">
<title>Node13&#45;&gt;Node4</title>
<g id="a_edge25_Node000013_Node000004"><a xlink:title=" ">
<path fill="none" stroke="#63b8ff" d="M341.93,-321.82C362.95,-286.7 408.22,-211.05 423.68,-185.22"/>
<polygon fill="#63b8ff" stroke="#63b8ff" points="339.15,-319.64 337.02,-330.02 345.16,-323.24 339.15,-319.64"/>
</a>
</g>
</g>
<!-- Node13&#45;&gt;Node7 -->
<g id="edge26_Node000013_Node000007" class="edge">
<title>Node13&#45;&gt;Node7</title>
<g id="a_edge26_Node000013_Node000007"><a xlink:title=" ">
<path fill="none" stroke="#63b8ff" d="M316.42,-322.37C294.35,-293.58 254.97,-234.13 254.97,-176.38 254.97,-176.38 254.97,-176.38 254.97,-119.12 254.97,-71.74 399.57,-35.69 477.52,-19.7"/>
<polygon fill="#63b8ff" stroke="#63b8ff" points="313.52,-324.35 322.47,-330.03 319.02,-320.01 313.52,-324.35"/>
</a>
</g>
</g>
<!-- Node13&#45;&gt;Node11 -->
<g id="edge24_Node000013_Node000011" class="edge">
<title>Node13&#45;&gt;Node11</title>
<g id="a_edge24_Node000013_Node000011"><a xlink:title=" ">
<path fill="none" stroke="#63b8ff" d="M373.3,-327.94C407.13,-318.2 453.82,-304.77 484.44,-295.95"/>
<polygon fill="#63b8ff" stroke="#63b8ff" points="372.45,-324.54 363.81,-330.67 374.39,-331.27 372.45,-324.54"/>
</a>
</g>
</g>
<!-- Node17&#45;&gt;Node7 -->
<g id="edge36_Node000017_Node000007" class="edge">
<title>Node17&#45;&gt;Node7</title>
<g id="a_edge36_Node000017_Node000007"><a xlink:title=" ">
<path fill="none" stroke="#63b8ff" d="M690.42,-490.4C725.4,-464.25 788.97,-407.72 788.97,-342.12 788.97,-342.12 788.97,-342.12 788.97,-119.12 788.97,-30.71 660.39,-12.89 583.04,-10.17"/>
<polygon fill="#63b8ff" stroke="#63b8ff" points="688.65,-487.36 682.61,-496.06 692.76,-493.03 688.65,-487.36"/>
</a>
</g>
</g>
<!-- Node17&#45;&gt;Node10 -->
<g id="edge35_Node000017_Node000010" class="edge">
<title>Node17&#45;&gt;Node10</title>
<g id="a_edge35_Node000017_Node000010"><a xlink:title=" ">
<path fill="none" stroke="#63b8ff" d="M628.27,-493.44C597.24,-483.72 554.84,-470.44 526.95,-461.7"/>
<polygon fill="#63b8ff" stroke="#63b8ff" points="627.1,-496.74 637.69,-496.39 629.19,-490.06 627.1,-496.74"/>
</a>
</g>
</g>
<!-- Node17&#45;&gt;Node13 -->
<g id="edge34_Node000017_Node000013" class="edge">
<title>Node17&#45;&gt;Node13</title>
<g id="a_edge34_Node000017_Node000013"><a xlink:title=" ">
<path fill="none" stroke="#63b8ff" d="M672.69,-485.65C677.55,-459.15 681.27,-412.98 655.97,-386.75 621.33,-350.83 481.81,-343.18 397.24,-341.92"/>
<polygon fill="#63b8ff" stroke="#63b8ff" points="669.27,-484.92 670.64,-495.42 676.12,-486.35 669.27,-484.92"/>
</a>
</g>
</g>
</g>
</svg>
