<?xml version="1.0" encoding="UTF-8" standalone="no"?>
<!DOCTYPE svg PUBLIC "-//W3C//DTD SVG 1.1//EN"
 "http://www.w3.org/Graphics/SVG/1.1/DTD/svg11.dtd">
<!-- Generated by graphviz version 12.2.1 (20241206.2353)
 -->
<!-- Title: mimic++/expectation/Owner.hpp Pages: 1 -->
<svg width="352pt" height="271pt"
 viewBox="0.00 0.00 352.04 270.75" xmlns="http://www.w3.org/2000/svg" xmlns:xlink="http://www.w3.org/1999/xlink">

<svg id="main" version="1.1" xmlns="http://www.w3.org/2000/svg" xmlns:xlink="http://www.w3.org/1999/xlink" xml:space="preserve">

<style type="text/css"><![CDATA[
.node, .edge {opacity: 0.7;}
.node.selected, .edge.selected {opacity: 1;}
.edge:hover path { stroke: red; }
.edge:hover polygon { stroke: red; fill: red; }
]]></style>
<script type="application/ecmascript" xlink:href="../../svg.min.js"/>
<svg id="graph" class="graph">
<g id="graph0" class="graph" transform="scale(1 1) rotate(0) translate(4 266.75)">
<title>mimic++/expectation/Owner.hpp</title>
<!-- Node1 -->
<g id="Node000001" class="node">
<title>Node1</title>
<g id="a_Node000001"><a xlink:title=" ">
<polygon fill="#999999" stroke="#666666" points="146.97,-262.75 40.22,-262.75 40.22,-232.25 146.97,-232.25 146.97,-262.75"/>
<text text-anchor="start" x="48.22" y="-249.25" font-family="Helvetica,sans-Serif" font-size="10.00">mimic++/expectation</text>
<text text-anchor="middle" x="93.6" y="-238" font-family="Helvetica,sans-Serif" font-size="10.00">/Owner.hpp</text>
</a>
</g>
</g>
<!-- Node2 -->
<g id="Node000002" class="node">
<title>Node2</title>
<g id="a_Node000002"><a xlink:href="../../d6/d15/_builder_8hpp.html" target="_top" xlink:title=" ">
<polygon fill="white" stroke="#666666" points="146.97,-196.25 40.22,-196.25 40.22,-165.75 146.97,-165.75 146.97,-196.25"/>
<text text-anchor="start" x="48.22" y="-182.75" font-family="Helvetica,sans-Serif" font-size="10.00">mimic++/expectation</text>
<text text-anchor="middle" x="93.6" y="-171.5" font-family="Helvetica,sans-Serif" font-size="10.00">/Builder.hpp</text>
</a>
</g>
</g>
<!-- Node1&#45;&gt;Node2 -->
<g id="edge1_Node000001_Node000002" class="edge">
<title>Node1&#45;&gt;Node2</title>
<g id="a_edge1_Node000001_Node000002"><a xlink:title=" ">
<path fill="none" stroke="#63b8ff" d="M93.6,-220.56C93.6,-212.39 93.6,-203.66 93.6,-196.58"/>
<polygon fill="#63b8ff" stroke="#63b8ff" points="90.1,-220.35 93.6,-230.35 97.1,-220.35 90.1,-220.35"/>
</a>
</g>
</g>
<!-- Node5 -->
<g id="Node000005" class="node">
<title>Node5</title>
<g id="a_Node000005"><a xlink:href="../../d0/db9/mimic_09_09_8hpp.html" target="_top" xlink:title=" ">
<polygon fill="white" stroke="#666666" points="150.35,-19.25 36.85,-19.25 36.85,0 150.35,0 150.35,-19.25"/>
<text text-anchor="middle" x="93.6" y="-5.75" font-family="Helvetica,sans-Serif" font-size="10.00">mimic++/mimic++.hpp</text>
</a>
</g>
</g>
<!-- Node1&#45;&gt;Node5 -->
<g id="edge14_Node000001_Node000005" class="edge">
<title>Node1&#45;&gt;Node5</title>
<g id="a_edge14_Node000001_Node000005"><a xlink:title=" ">
<path fill="none" stroke="#63b8ff" d="M58.26,-225.28C48.07,-217.43 37.99,-207.62 31.6,-196.25 0.74,-141.35 -13.69,-109.9 17.6,-55.25 27.55,-37.85 47.22,-26.58 64.05,-19.71"/>
<polygon fill="#63b8ff" stroke="#63b8ff" points="56.14,-228.07 66.31,-231.05 60.22,-222.38 56.14,-228.07"/>
</a>
</g>
</g>
<!-- Node8 -->
<g id="Node000008" class="node">
<title>Node8</title>
<g id="a_Node000008"><a xlink:href="../../db/dd0/_collector_8hpp.html" target="_top" xlink:title=" ">
<polygon fill="white" stroke="#666666" points="305.97,-196.25 199.22,-196.25 199.22,-165.75 305.97,-165.75 305.97,-196.25"/>
<text text-anchor="start" x="207.22" y="-182.75" font-family="Helvetica,sans-Serif" font-size="10.00">mimic++/expectation</text>
<text text-anchor="middle" x="252.6" y="-171.5" font-family="Helvetica,sans-Serif" font-size="10.00">/Collector.hpp</text>
</a>
</g>
</g>
<!-- Node1&#45;&gt;Node8 -->
<g id="edge11_Node000001_Node000008" class="edge">
<title>Node1&#45;&gt;Node8</title>
<g id="a_edge11_Node000001_Node000008"><a xlink:title=" ">
<path fill="none" stroke="#63b8ff" d="M140.11,-227.63C164.43,-217.76 193.77,-205.86 216.38,-196.69"/>
<polygon fill="#63b8ff" stroke="#63b8ff" points="139.03,-224.29 131.08,-231.29 141.66,-230.78 139.03,-224.29"/>
</a>
</g>
</g>
<!-- Node3 -->
<g id="Node000003" class="node">
<title>Node3</title>
<g id="a_Node000003"><a xlink:href="../../d5/dc5/_mock_8hpp.html" target="_top" xlink:title=" ">
<polygon fill="white" stroke="#666666" points="143.22,-129.75 43.97,-129.75 43.97,-110.5 143.22,-110.5 143.22,-129.75"/>
<text text-anchor="middle" x="93.6" y="-116.25" font-family="Helvetica,sans-Serif" font-size="10.00">mimic++/Mock.hpp</text>
</a>
</g>
</g>
<!-- Node2&#45;&gt;Node3 -->
<g id="edge2_Node000002_Node000003" class="edge">
<title>Node2&#45;&gt;Node3</title>
<g id="a_edge2_Node000002_Node000003"><a xlink:title=" ">
<path fill="none" stroke="#63b8ff" d="M93.6,-153.98C93.6,-145.48 93.6,-136.59 93.6,-130.2"/>
<polygon fill="#63b8ff" stroke="#63b8ff" points="90.1,-153.93 93.6,-163.93 97.1,-153.93 90.1,-153.93"/>
</a>
</g>
</g>
<!-- Node2&#45;&gt;Node5 -->
<g id="edge10_Node000002_Node000005" class="edge">
<title>Node2&#45;&gt;Node5</title>
<g id="a_edge10_Node000002_Node000005"><a xlink:title=" ">
<path fill="none" stroke="#63b8ff" d="M60.84,-158.63C51.01,-150.68 41.12,-140.85 34.6,-129.75 21.92,-108.16 26.05,-99.42 23.6,-74.5 22.76,-65.99 19.48,-62.75 23.6,-55.25 32.95,-38.19 51.91,-26.71 67.73,-19.68"/>
<polygon fill="#63b8ff" stroke="#63b8ff" points="58.46,-161.22 68.54,-164.47 62.69,-155.64 58.46,-161.22"/>
</a>
</g>
</g>
<!-- Node7 -->
<g id="Node000007" class="node">
<title>Node7</title>
<g id="a_Node000007"><a xlink:href="../../db/d83/_scoped_sequence_8hpp.html" target="_top" xlink:title=" ">
<polygon fill="white" stroke="#666666" points="328.47,-129.75 176.72,-129.75 176.72,-110.5 328.47,-110.5 328.47,-129.75"/>
<text text-anchor="middle" x="252.6" y="-116.25" font-family="Helvetica,sans-Serif" font-size="10.00">mimic++/ScopedSequence.hpp</text>
</a>
</g>
</g>
<!-- Node2&#45;&gt;Node7 -->
<g id="edge8_Node000002_Node000007" class="edge">
<title>Node2&#45;&gt;Node7</title>
<g id="a_edge8_Node000002_Node000007"><a xlink:title=" ">
<path fill="none" stroke="#63b8ff" d="M143.79,-161.41C171.95,-150.99 205.82,-138.44 228.21,-130.15"/>
<polygon fill="#63b8ff" stroke="#63b8ff" points="142.89,-158.01 134.73,-164.77 145.32,-164.58 142.89,-158.01"/>
</a>
</g>
</g>
<!-- Node4 -->
<g id="Node000004" class="node">
<title>Node4</title>
<g id="a_Node000004"><a xlink:href="../../d6/dc3/_facade_8hpp.html" target="_top" xlink:title=" ">
<polygon fill="white" stroke="#666666" points="147.35,-74.5 39.85,-74.5 39.85,-55.25 147.35,-55.25 147.35,-74.5"/>
<text text-anchor="middle" x="93.6" y="-61" font-family="Helvetica,sans-Serif" font-size="10.00">mimic++/Facade.hpp</text>
</a>
</g>
</g>
<!-- Node3&#45;&gt;Node4 -->
<g id="edge3_Node000003_Node000004" class="edge">
<title>Node3&#45;&gt;Node4</title>
<g id="a_edge3_Node000003_Node000004"><a xlink:title=" ">
<path fill="none" stroke="#63b8ff" d="M93.6,-98.88C93.6,-90.59 93.6,-81.42 93.6,-74.86"/>
<polygon fill="#63b8ff" stroke="#63b8ff" points="90.1,-98.82 93.6,-108.82 97.1,-98.82 90.1,-98.82"/>
</a>
</g>
</g>
<!-- Node3&#45;&gt;Node5 -->
<g id="edge7_Node000003_Node000005" class="edge">
<title>Node3&#45;&gt;Node5</title>
<g id="a_edge7_Node000003_Node000005"><a xlink:title=" ">
<path fill="none" stroke="#63b8ff" d="M61.64,-104.64C49.63,-97.42 37.28,-87.43 30.6,-74.5 18.5,-51.12 49.83,-30.77 72.52,-19.64"/>
<polygon fill="#63b8ff" stroke="#63b8ff" points="59.73,-107.58 70.18,-109.32 63.1,-101.45 59.73,-107.58"/>
</a>
</g>
</g>
<!-- Node6 -->
<g id="Node000006" class="node">
<title>Node6</title>
<g id="a_Node000006"><a xlink:href="../../d5/d92/_object_watcher_8hpp.html" target="_top" xlink:title=" ">
<polygon fill="white" stroke="#666666" points="305.47,-74.5 165.72,-74.5 165.72,-55.25 305.47,-55.25 305.47,-74.5"/>
<text text-anchor="middle" x="235.6" y="-61" font-family="Helvetica,sans-Serif" font-size="10.00">mimic++/ObjectWatcher.hpp</text>
</a>
</g>
</g>
<!-- Node3&#45;&gt;Node6 -->
<g id="edge5_Node000003_Node000006" class="edge">
<title>Node3&#45;&gt;Node6</title>
<g id="a_edge5_Node000003_Node000006"><a xlink:title=" ">
<path fill="none" stroke="#63b8ff" d="M128.13,-106.17C153.92,-96.5 188.5,-83.54 211.39,-74.95"/>
<polygon fill="#63b8ff" stroke="#63b8ff" points="127.24,-102.77 119.1,-109.56 129.69,-109.33 127.24,-102.77"/>
</a>
</g>
</g>
<!-- Node4&#45;&gt;Node5 -->
<g id="edge4_Node000004_Node000005" class="edge">
<title>Node4&#45;&gt;Node5</title>
<g id="a_edge4_Node000004_Node000005"><a xlink:title=" ">
<path fill="none" stroke="#63b8ff" d="M93.6,-43.63C93.6,-35.34 93.6,-26.17 93.6,-19.61"/>
<polygon fill="#63b8ff" stroke="#63b8ff" points="90.1,-43.57 93.6,-53.57 97.1,-43.57 90.1,-43.57"/>
</a>
</g>
</g>
<!-- Node6&#45;&gt;Node5 -->
<g id="edge6_Node000006_Node000005" class="edge">
<title>Node6&#45;&gt;Node5</title>
<g id="a_edge6_Node000006_Node000005"><a xlink:title=" ">
<path fill="none" stroke="#63b8ff" d="M201.06,-50.92C175.28,-41.25 140.69,-28.29 117.8,-19.7"/>
<polygon fill="#63b8ff" stroke="#63b8ff" points="199.5,-54.08 210.09,-54.31 201.96,-47.52 199.5,-54.08"/>
</a>
</g>
</g>
<!-- Node7&#45;&gt;Node5 -->
<g id="edge9_Node000007_Node000005" class="edge">
<title>Node7&#45;&gt;Node5</title>
<g id="a_edge9_Node000007_Node000005"><a xlink:title=" ">
<path fill="none" stroke="#63b8ff" d="M282.84,-104.79C305.18,-92.26 329.36,-73.3 314.6,-55.25 294.27,-30.41 209.29,-19.08 150.83,-14.15"/>
<polygon fill="#63b8ff" stroke="#63b8ff" points="281.39,-101.6 274.18,-109.36 284.66,-107.79 281.39,-101.6"/>
</a>
</g>
</g>
<!-- Node8&#45;&gt;Node5 -->
<g id="edge13_Node000008_Node000005" class="edge">
<title>Node8&#45;&gt;Node5</title>
<g id="a_edge13_Node000008_Node000005"><a xlink:title=" ">
<path fill="none" stroke="#63b8ff" d="M305.22,-160.12C318.06,-152.63 330.22,-142.68 337.6,-129.75 346.78,-113.66 346.75,-72.4 330.6,-55.25 306.59,-29.76 212.8,-18.53 150.64,-13.81"/>
<polygon fill="#63b8ff" stroke="#63b8ff" points="303.85,-156.88 296.67,-164.67 307.14,-163.06 303.85,-156.88"/>
</a>
</g>
</g>
<!-- Node8&#45;&gt;Node7 -->
<g id="edge12_Node000008_Node000007" class="edge">
<title>Node8&#45;&gt;Node7</title>
<g id="a_edge12_Node000008_Node000007"><a xlink:title=" ">
<path fill="none" stroke="#63b8ff" d="M252.6,-153.98C252.6,-145.48 252.6,-136.59 252.6,-130.2"/>
<polygon fill="#63b8ff" stroke="#63b8ff" points="249.1,-153.93 252.6,-163.93 256.1,-153.93 249.1,-153.93"/>
</a>
</g>
</g>
</g>
</svg>
</svg>

<style type='text/css'>
<![CDATA[
[data-mouse-over-selected='false'] { opacity: 0.7; }
[data-mouse-over-selected='true']  { opacity: 1.0; }
]]>
</style>
<script type="application/ecmascript"><![CDATA[
document.addEventListener('DOMContentLoaded', (event) => {
  highlightEdges();
  highlightAdjacentNodes();
});
]]></script>
</svg>
