<?xml version="1.0" encoding="UTF-8" standalone="no"?>
<!DOCTYPE svg PUBLIC "-//W3C//DTD SVG 1.1//EN"
 "http://www.w3.org/Graphics/SVG/1.1/DTD/svg11.dtd">
<!-- Generated by graphviz version 12.2.1 (20241206.2353)
 -->
<!-- Title: mimicpp::RelocationWatcher::RelocationWatcher Pages: 1 -->
<svg width="322pt" height="235pt"
 viewBox="0.00 0.00 322.00 234.50" xmlns="http://www.w3.org/2000/svg" xmlns:xlink="http://www.w3.org/1999/xlink">

<svg id="main" version="1.1" xmlns="http://www.w3.org/2000/svg" xmlns:xlink="http://www.w3.org/1999/xlink" xml:space="preserve">

<style type="text/css"><![CDATA[
.node, .edge {opacity: 0.7;}
.node.selected, .edge.selected {opacity: 1;}
.edge:hover path { stroke: red; }
.edge:hover polygon { stroke: red; fill: red; }
]]></style>
<script type="application/ecmascript" xlink:href="../../svg.min.js"/>
<svg id="graph" class="graph">
<g id="graph0" class="graph" transform="scale(1 1) rotate(0) translate(4 230.5)">
<title>mimicpp::RelocationWatcher::RelocationWatcher</title>
<!-- Node1 -->
<g id="Node000001" class="node">
<title>Node1</title>
<g id="a_Node000001"><a xlink:title="Defaulted default constructor.">
<polygon fill="#999999" stroke="#666666" points="314,-128.5 175,-128.5 175,-98 314,-98 314,-128.5"/>
<text text-anchor="start" x="183" y="-115" font-family="Helvetica,sans-Serif" font-size="10.00">mimicpp::RelocationWatcher</text>
<text text-anchor="middle" x="244.5" y="-103.75" font-family="Helvetica,sans-Serif" font-size="10.00">::RelocationWatcher</text>
</a>
</g>
</g>
<!-- Node2 -->
<g id="Node000002" class="node">
<title>Node2</title>
<g id="a_Node000002"><a xlink:href="../../dd/d5c/group___o_b_j_e_c_t___w_a_t_c_h_i_n_g.html#ga4e5745f8db7a6f1d7362c25bbf0a2997" target="_top" xlink:title=" ">
<polygon fill="white" stroke="#666666" points="139,-226.5 0,-226.5 0,-196 139,-196 139,-226.5"/>
<text text-anchor="start" x="8" y="-213" font-family="Helvetica,sans-Serif" font-size="10.00">mimicpp::RelocationWatcher</text>
<text text-anchor="middle" x="69.5" y="-201.75" font-family="Helvetica,sans-Serif" font-size="10.00">::RelocationWatcher</text>
</a>
</g>
</g>
<!-- Node1&#45;&gt;Node2 -->
<g id="edge1_Node000001_Node000002" class="edge">
<title>Node1&#45;&gt;Node2</title>
<g id="a_edge1_Node000001_Node000002"><a xlink:title=" ">
<path fill="none" stroke="#63b8ff" d="M215.44,-135.87C195.1,-151.5 166.45,-171.96 139,-186.25 132.49,-189.64 125.41,-192.78 118.36,-195.6"/>
<polygon fill="#63b8ff" stroke="#63b8ff" points="217.51,-138.69 223.25,-129.79 213.21,-133.17 217.51,-138.69"/>
</a>
</g>
</g>
<!-- Node3 -->
<g id="Node000003" class="node">
<title>Node3</title>
<g id="a_Node000003"><a xlink:href="../../dd/d5c/group___o_b_j_e_c_t___w_a_t_c_h_i_n_g.html#ga507822c29620bdcc0851e78d5f81a1c9" target="_top" xlink:title="Copy&#45;constructor.">
<polygon fill="white" stroke="#666666" points="139,-177.5 0,-177.5 0,-147 139,-147 139,-177.5"/>
<text text-anchor="start" x="8" y="-164" font-family="Helvetica,sans-Serif" font-size="10.00">mimicpp::RelocationWatcher</text>
<text text-anchor="middle" x="69.5" y="-152.75" font-family="Helvetica,sans-Serif" font-size="10.00">::RelocationWatcher</text>
</a>
</g>
</g>
<!-- Node1&#45;&gt;Node3 -->
<g id="edge2_Node000001_Node000003" class="edge">
<title>Node1&#45;&gt;Node3</title>
<g id="a_edge2_Node000001_Node000003"><a xlink:title=" ">
<path fill="none" stroke="#63b8ff" d="M177.35,-131.98C160.43,-136.78 142.41,-141.88 126.08,-146.51"/>
<polygon fill="#63b8ff" stroke="#63b8ff" points="178.16,-135.39 186.83,-129.3 176.25,-128.66 178.16,-135.39"/>
</a>
</g>
</g>
<!-- Node4 -->
<g id="Node000004" class="node">
<title>Node4</title>
<g id="a_Node000004"><a xlink:href="../../dd/d5c/group___o_b_j_e_c_t___w_a_t_c_h_i_n_g.html#ga329211c53e2ff3bbf2c58a72180fed81" target="_top" xlink:title="Move&#45;constructor, which reports a relocation.">
<polygon fill="white" stroke="#666666" points="139,-128.5 0,-128.5 0,-98 139,-98 139,-128.5"/>
<text text-anchor="start" x="8" y="-115" font-family="Helvetica,sans-Serif" font-size="10.00">mimicpp::RelocationWatcher</text>
<text text-anchor="middle" x="69.5" y="-103.75" font-family="Helvetica,sans-Serif" font-size="10.00">::RelocationWatcher</text>
</a>
</g>
</g>
<!-- Node1&#45;&gt;Node4 -->
<g id="edge3_Node000001_Node000004" class="edge">
<title>Node1&#45;&gt;Node4</title>
<g id="a_edge3_Node000001_Node000004"><a xlink:title=" ">
<path fill="none" stroke="#63b8ff" d="M163.38,-113.25C155.38,-113.25 147.3,-113.25 139.42,-113.25"/>
<polygon fill="#63b8ff" stroke="#63b8ff" points="163.12,-116.75 173.12,-113.25 163.12,-109.75 163.12,-116.75"/>
</a>
</g>
</g>
<!-- Node5 -->
<g id="Node000005" class="node">
<title>Node5</title>
<g id="a_Node000005"><a xlink:href="../../dd/d5c/group___o_b_j_e_c_t___w_a_t_c_h_i_n_g.html#ga74dd370e9ae4ce4b2b6a8b43f56858ac" target="_top" xlink:title="Copy&#45;assignment&#45;operator.">
<polygon fill="white" stroke="#666666" points="139,-79.5 0,-79.5 0,-49 139,-49 139,-79.5"/>
<text text-anchor="start" x="8" y="-66" font-family="Helvetica,sans-Serif" font-size="10.00">mimicpp::RelocationWatcher</text>
<text text-anchor="middle" x="69.5" y="-54.75" font-family="Helvetica,sans-Serif" font-size="10.00">::operator=</text>
</a>
</g>
</g>
<!-- Node1&#45;&gt;Node5 -->
<g id="edge4_Node000001_Node000005" class="edge">
<title>Node1&#45;&gt;Node5</title>
<g id="a_edge4_Node000001_Node000005"><a xlink:title=" ">
<path fill="none" stroke="#63b8ff" d="M177.35,-94.52C160.43,-89.72 142.41,-84.62 126.08,-79.99"/>
<polygon fill="#63b8ff" stroke="#63b8ff" points="176.25,-97.84 186.83,-97.2 178.16,-91.11 176.25,-97.84"/>
</a>
</g>
</g>
<!-- Node6 -->
<g id="Node000006" class="node">
<title>Node6</title>
<g id="a_Node000006"><a xlink:href="../../dd/d5c/group___o_b_j_e_c_t___w_a_t_c_h_i_n_g.html#ga8812d8f603b7a4dfd567b0642394d365" target="_top" xlink:title="Move&#45;assignment&#45;operator, which reports a relocation.">
<polygon fill="white" stroke="#666666" points="139,-30.5 0,-30.5 0,0 139,0 139,-30.5"/>
<text text-anchor="start" x="8" y="-17" font-family="Helvetica,sans-Serif" font-size="10.00">mimicpp::RelocationWatcher</text>
<text text-anchor="middle" x="69.5" y="-5.75" font-family="Helvetica,sans-Serif" font-size="10.00">::operator=</text>
</a>
</g>
</g>
<!-- Node1&#45;&gt;Node6 -->
<g id="edge5_Node000001_Node000006" class="edge">
<title>Node1&#45;&gt;Node6</title>
<g id="a_edge5_Node000001_Node000006"><a xlink:title=" ">
<path fill="none" stroke="#63b8ff" d="M215.44,-90.63C195.1,-75 166.45,-54.54 139,-40.25 132.49,-36.86 125.41,-33.72 118.36,-30.9"/>
<polygon fill="#63b8ff" stroke="#63b8ff" points="213.21,-93.33 223.25,-96.71 217.51,-87.81 213.21,-93.33"/>
</a>
</g>
</g>
</g>
</svg>
</svg>

<style type='text/css'>
<![CDATA[
[data-mouse-over-selected='false'] { opacity: 0.7; }
[data-mouse-over-selected='true']  { opacity: 1.0; }
]]>
</style>
<script type="application/ecmascript"><![CDATA[
document.addEventListener('DOMContentLoaded', (event) => {
  highlightEdges();
  highlightAdjacentNodes();
});
]]></script>
</svg>
