<?xml version="1.0" encoding="UTF-8" standalone="no"?>
<!DOCTYPE svg PUBLIC "-//W3C//DTD SVG 1.1//EN"
 "http://www.w3.org/Graphics/SVG/1.1/DTD/svg11.dtd">
<!-- Generated by graphviz version 12.2.1 (20241206.2353)
 -->
<!-- Title: mimicpp::signature_add_const_qualifier&lt; Signature &gt; Pages: 1 -->
<svg width="829pt" height="171pt"
 viewBox="0.00 0.00 828.50 171.12" xmlns="http://www.w3.org/2000/svg" xmlns:xlink="http://www.w3.org/1999/xlink">
<g id="graph0" class="graph" transform="scale(1 1) rotate(0) translate(4 167.12)">
<title>mimicpp::signature_add_const_qualifier&lt; Signature &gt;</title>
<!-- Node1 -->
<g id="Node000001" class="node">
<title>Node1</title>
<g id="a_Node000001"><a xlink:title="Primary template, purposely undefined.">
<polygon fill="#999999" stroke="#666666" points="820.5,-99.62 716,-99.62 716,-57.88 820.5,-57.88 820.5,-99.62"/>
<text text-anchor="start" x="724" y="-86.12" font-family="Helvetica,sans-Serif" font-size="10.00">mimicpp::signature</text>
<text text-anchor="start" x="724" y="-74.88" font-family="Helvetica,sans-Serif" font-size="10.00">_add_const_qualifier</text>
<text text-anchor="middle" x="768.25" y="-63.62" font-family="Helvetica,sans-Serif" font-size="10.00">&lt; Signature &gt;</text>
</a>
</g>
</g>
<!-- Node2 -->
<g id="Node000002" class="node">
<title>Node2</title>
<g id="a_Node000002"><a xlink:title=" ">
<polygon fill="white" stroke="#666666" points="679,-105.25 543,-105.25 543,-52.25 679,-52.25 679,-105.25"/>
<text text-anchor="start" x="551" y="-91.75" font-family="Helvetica,sans-Serif" font-size="10.00">mimicpp::detail::signature</text>
<text text-anchor="start" x="551" y="-80.5" font-family="Helvetica,sans-Serif" font-size="10.00">_apply_trait&lt; Signature,</text>
<text text-anchor="start" x="551" y="-69.25" font-family="Helvetica,sans-Serif" font-size="10.00"> detail::signature_add_const</text>
<text text-anchor="middle" x="611" y="-58" font-family="Helvetica,sans-Serif" font-size="10.00">_qualifier &gt;</text>
</a>
</g>
</g>
<!-- Node2&#45;&gt;Node1 -->
<g id="edge1_Node000001_Node000002" class="edge">
<title>Node2&#45;&gt;Node1</title>
<g id="a_edge1_Node000001_Node000002"><a xlink:title=" ">
<path fill="none" stroke="#63b8ff" d="M690.49,-78.75C699.11,-78.75 707.71,-78.75 715.87,-78.75"/>
<polygon fill="#63b8ff" stroke="#63b8ff" points="690.71,-75.25 680.71,-78.75 690.71,-82.25 690.71,-75.25"/>
</a>
</g>
</g>
<!-- Node3 -->
<g id="Node000003" class="node">
<title>Node3</title>
<g id="a_Node000003"><a xlink:title=" ">
<polygon fill="white" stroke="#666666" points="400.5,-163.12 208.25,-163.12 208.25,-76.38 400.5,-76.38 400.5,-163.12"/>
<text text-anchor="start" x="216.25" y="-149.62" font-family="Helvetica,sans-Serif" font-size="10.00">std::bool_constant</text>
<text text-anchor="start" x="216.25" y="-138.38" font-family="Helvetica,sans-Serif" font-size="10.00">&lt; detail::signature</text>
<text text-anchor="start" x="216.25" y="-127.12" font-family="Helvetica,sans-Serif" font-size="10.00">_add_const_qualifier</text>
<text text-anchor="start" x="216.25" y="-115.88" font-family="Helvetica,sans-Serif" font-size="10.00">&lt;typename call_convention</text>
<text text-anchor="start" x="216.25" y="-104.62" font-family="Helvetica,sans-Serif" font-size="10.00">_traits&lt;signature_call_convention</text>
<text text-anchor="start" x="216.25" y="-93.38" font-family="Helvetica,sans-Serif" font-size="10.00">_t&lt;Signature&gt;&gt;::template remove</text>
<text text-anchor="middle" x="304.38" y="-82.12" font-family="Helvetica,sans-Serif" font-size="10.00">_call_convention_t&lt;Signature&gt;&gt;::value &gt;</text>
</a>
</g>
</g>
<!-- Node3&#45;&gt;Node2 -->
<g id="edge2_Node000002_Node000003" class="edge">
<title>Node3&#45;&gt;Node2</title>
<g id="a_edge2_Node000002_Node000003"><a xlink:title=" ">
<path fill="none" stroke="#63b8ff" d="M411.95,-113.31C448,-110.26 488.39,-105.9 525,-99.75 530.85,-98.77 536.88,-97.6 542.92,-96.32"/>
<polygon fill="#63b8ff" stroke="#63b8ff" points="412.1,-109.78 402.42,-114.09 412.67,-116.76 412.1,-109.78"/>
</a>
</g>
</g>
<!-- Node4 -->
<g id="Node000004" class="node">
<title>Node4</title>
<g id="a_Node000004"><a xlink:title=" ">
<polygon fill="white" stroke="#666666" points="378,-58.62 230.75,-58.62 230.75,-16.88 378,-16.88 378,-58.62"/>
<text text-anchor="start" x="238.75" y="-45.12" font-family="Helvetica,sans-Serif" font-size="10.00">mimicpp::detail::signature</text>
<text text-anchor="start" x="238.75" y="-33.88" font-family="Helvetica,sans-Serif" font-size="10.00">_apply_trait&lt; Signature,</text>
<text text-anchor="middle" x="304.38" y="-22.62" font-family="Helvetica,sans-Serif" font-size="10.00"> Trait, CallConvTrait, Applied &gt;</text>
</a>
</g>
</g>
<!-- Node4&#45;&gt;Node2 -->
<g id="edge3_Node000002_Node000004" class="edge">
<title>Node4&#45;&gt;Node2</title>
<g id="a_edge3_Node000002_Node000004"><a xlink:title=" ">
<path fill="none" stroke="orange" stroke-dasharray="5,2" d="M389.85,-35.8C430.98,-36.34 480.95,-39.21 525,-48 530.85,-49.17 536.83,-50.66 542.79,-52.37"/>
<polygon fill="orange" stroke="orange" points="390.04,-32.3 380.01,-35.72 389.98,-39.3 390.04,-32.3"/>
</a>
</g>
<text text-anchor="start" x="421.5" y="-83.25" font-family="Helvetica,sans-Serif" font-size="10.00" fill="grey">&lt; Signature, detail</text>
<text text-anchor="start" x="421.5" y="-68" font-family="Helvetica,sans-Serif" font-size="10.00" fill="grey">  ::signature_add_const</text>
<text text-anchor="start" x="421.5" y="-52.75" font-family="Helvetica,sans-Serif" font-size="10.00" fill="grey">  _qualifier &gt;</text>
</g>
<!-- Node5 -->
<g id="Node000005" class="node">
<title>Node5</title>
<g id="a_Node000005"><a xlink:title=" ">
<polygon fill="white" stroke="#666666" points="171.25,-75.5 0,-75.5 0,0 171.25,0 171.25,-75.5"/>
<text text-anchor="start" x="8" y="-62" font-family="Helvetica,sans-Serif" font-size="10.00">std::bool_constant</text>
<text text-anchor="start" x="8" y="-50.75" font-family="Helvetica,sans-Serif" font-size="10.00">&lt; Trait&lt;typename call</text>
<text text-anchor="start" x="8" y="-39.5" font-family="Helvetica,sans-Serif" font-size="10.00">_convention_traits&lt;signature</text>
<text text-anchor="start" x="8" y="-28.25" font-family="Helvetica,sans-Serif" font-size="10.00">_call_convention_t&lt;Signature&gt;</text>
<text text-anchor="start" x="8" y="-17" font-family="Helvetica,sans-Serif" font-size="10.00">&gt;::template remove_call_convention</text>
<text text-anchor="middle" x="85.62" y="-5.75" font-family="Helvetica,sans-Serif" font-size="10.00">_t&lt;Signature&gt;&gt;::value &gt;</text>
</a>
</g>
</g>
<!-- Node5&#45;&gt;Node4 -->
<g id="edge4_Node000004_Node000005" class="edge">
<title>Node5&#45;&gt;Node4</title>
<g id="a_edge4_Node000004_Node000005"><a xlink:title=" ">
<path fill="none" stroke="#63b8ff" d="M183.17,-37.75C199.07,-37.75 215.31,-37.75 230.51,-37.75"/>
<polygon fill="#63b8ff" stroke="#63b8ff" points="183.18,-34.25 173.18,-37.75 183.18,-41.25 183.18,-34.25"/>
</a>
</g>
</g>
</g>
</svg>
