<?xml version="1.0" encoding="UTF-8" standalone="no"?>
<!DOCTYPE svg PUBLIC "-//W3C//DTD SVG 1.1//EN"
 "http://www.w3.org/Graphics/SVG/1.1/DTD/svg11.dtd">
<!-- Generated by graphviz version 12.2.1 (20241206.2353)
 -->
<!-- Title: mimicpp::reporting::NoMatchReport Pages: 1 -->
<svg width="1137pt" height="162pt"
 viewBox="0.00 0.00 1136.50 162.25" xmlns="http://www.w3.org/2000/svg" xmlns:xlink="http://www.w3.org/1999/xlink">
<g id="graph0" class="graph" transform="scale(1 1) rotate(0) translate(4 158.25)">
<title>mimicpp::reporting::NoMatchReport</title>
<!-- Node1 -->
<g id="Node000001" class="node">
<title>Node1</title>
<g id="a_Node000001"><a xlink:title="Contains the requirement&#45;outcomes (where at least one is negative) and the related expectation&#45;report...">
<polygon fill="#999999" stroke="#666666" points="1128.5,-73.88 1033.75,-73.88 1033.75,-43.38 1128.5,-43.38 1128.5,-73.88"/>
<text text-anchor="start" x="1041.75" y="-60.38" font-family="Helvetica,sans-Serif" font-size="10.00">mimicpp::reporting</text>
<text text-anchor="middle" x="1081.12" y="-49.12" font-family="Helvetica,sans-Serif" font-size="10.00">::NoMatchReport</text>
</a>
</g>
</g>
<!-- Node2 -->
<g id="Node000002" class="node">
<title>Node2</title>
<g id="a_Node000002"><a xlink:href="../../d2/d91/classmimicpp_1_1reporting_1_1_expectation_report.html" target="_top" xlink:title="Contains the extracted info from a typed expectation.">
<polygon fill="white" stroke="#666666" points="889,-106.88 789.75,-106.88 789.75,-76.38 889,-76.38 889,-106.88"/>
<text text-anchor="start" x="797.75" y="-93.38" font-family="Helvetica,sans-Serif" font-size="10.00">mimicpp::reporting</text>
<text text-anchor="middle" x="839.38" y="-82.12" font-family="Helvetica,sans-Serif" font-size="10.00">::ExpectationReport</text>
</a>
</g>
</g>
<!-- Node2&#45;&gt;Node1 -->
<g id="edge1_Node000001_Node000002" class="edge">
<title>Node2&#45;&gt;Node1</title>
<g id="a_edge1_Node000001_Node000002"><a xlink:title=" ">
<path fill="none" stroke="#9a32cd" stroke-dasharray="5,2" d="M900.73,-83.32C941.91,-77.65 995.65,-70.25 1033.54,-65.04"/>
<polygon fill="#9a32cd" stroke="#9a32cd" points="900.4,-79.83 890.97,-84.66 901.35,-86.76 900.4,-79.83"/>
</a>
</g>
<text text-anchor="middle" x="966.62" y="-82.7" font-family="Helvetica,sans-Serif" font-size="10.00" fill="grey"> expectationReport</text>
</g>
<!-- Node3 -->
<g id="Node000003" class="node">
<title>Node3</title>
<g id="a_Node000003"><a xlink:href="../../db/df5/classmimicpp_1_1util_1_1_source_location.html" target="_top" xlink:title="A thin wrapper around a std::source_location with additional operator ==.">
<polygon fill="white" stroke="#666666" points="636,-154.25 493.25,-154.25 493.25,-135 636,-135 636,-154.25"/>
<text text-anchor="middle" x="564.62" y="-140.75" font-family="Helvetica,sans-Serif" font-size="10.00">mimicpp::util::SourceLocation</text>
</a>
</g>
</g>
<!-- Node3&#45;&gt;Node2 -->
<g id="edge2_Node000002_Node000003" class="edge">
<title>Node3&#45;&gt;Node2</title>
<g id="a_edge2_Node000002_Node000003"><a xlink:title=" ">
<path fill="none" stroke="#9a32cd" stroke-dasharray="5,2" d="M647.38,-133.92C682.6,-128.73 724.14,-121.83 761.25,-113.62 770.5,-111.58 780.27,-109.07 789.64,-106.49"/>
<polygon fill="#9a32cd" stroke="#9a32cd" points="647.07,-130.43 637.68,-135.33 648.08,-137.35 647.07,-130.43"/>
</a>
</g>
<text text-anchor="middle" x="707.62" y="-134.49" font-family="Helvetica,sans-Serif" font-size="10.00" fill="grey"> from</text>
</g>
<!-- Node4 -->
<g id="Node000004" class="node">
<title>Node4</title>
<g id="a_Node000004"><a xlink:href="../../d2/d84/classmimicpp_1_1reporting_1_1_target_report.html" target="_top" xlink:title="Contains the extracted mock info.">
<polygon fill="white" stroke="#666666" points="612,-116.88 517.25,-116.88 517.25,-86.38 612,-86.38 612,-116.88"/>
<text text-anchor="start" x="525.25" y="-103.38" font-family="Helvetica,sans-Serif" font-size="10.00">mimicpp::reporting</text>
<text text-anchor="middle" x="564.62" y="-92.12" font-family="Helvetica,sans-Serif" font-size="10.00">::TargetReport</text>
</a>
</g>
</g>
<!-- Node4&#45;&gt;Node2 -->
<g id="edge3_Node000002_Node000004" class="edge">
<title>Node4&#45;&gt;Node2</title>
<g id="a_edge3_Node000002_Node000004"><a xlink:title=" ">
<path fill="none" stroke="#9a32cd" stroke-dasharray="5,2" d="M623.66,-99.5C673.05,-97.69 743.18,-95.12 789.69,-93.41"/>
<polygon fill="#9a32cd" stroke="#9a32cd" points="623.58,-96 613.72,-99.86 623.84,-102.99 623.58,-96"/>
</a>
</g>
<text text-anchor="middle" x="707.62" y="-99.86" font-family="Helvetica,sans-Serif" font-size="10.00" fill="grey"> target</text>
</g>
<!-- Node5 -->
<g id="Node000005" class="node">
<title>Node5</title>
<g id="a_Node000005"><a xlink:title=" ">
<polygon fill="white" stroke="#666666" points="338.75,-151.88 229.75,-151.88 229.75,-121.38 338.75,-121.38 338.75,-151.88"/>
<text text-anchor="start" x="237.75" y="-138.38" font-family="Helvetica,sans-Serif" font-size="10.00">std::basic_string&lt;</text>
<text text-anchor="middle" x="284.25" y="-127.12" font-family="Helvetica,sans-Serif" font-size="10.00"> CharT, CharTraitsT &gt;</text>
</a>
</g>
</g>
<!-- Node5&#45;&gt;Node4 -->
<g id="edge4_Node000004_Node000005" class="edge">
<title>Node5&#45;&gt;Node4</title>
<g id="a_edge4_Node000004_Node000005"><a xlink:title=" ">
<path fill="none" stroke="#9a32cd" stroke-dasharray="5,2" d="M350.18,-128.46C401.32,-122.03 471.37,-113.22 517.05,-107.48"/>
<polygon fill="#9a32cd" stroke="#9a32cd" points="349.91,-124.97 340.43,-129.69 350.78,-131.91 349.91,-124.97"/>
</a>
</g>
<text text-anchor="middle" x="416" y="-128.99" font-family="Helvetica,sans-Serif" font-size="10.00" fill="grey"> name</text>
</g>
<!-- Node6 -->
<g id="Node000006" class="node">
<title>Node6</title>
<g id="a_Node000006"><a xlink:title=" ">
<polygon fill="white" stroke="#666666" points="92.5,-151.88 0,-151.88 0,-121.38 92.5,-121.38 92.5,-151.88"/>
<text text-anchor="start" x="8" y="-138.38" font-family="Helvetica,sans-Serif" font-size="10.00">std::basic_string&lt;</text>
<text text-anchor="middle" x="46.25" y="-127.12" font-family="Helvetica,sans-Serif" font-size="10.00"> Char &gt;</text>
</a>
</g>
</g>
<!-- Node6&#45;&gt;Node5 -->
<g id="edge5_Node000005_Node000006" class="edge">
<title>Node6&#45;&gt;Node5</title>
<g id="a_edge5_Node000005_Node000006"><a xlink:title=" ">
<path fill="none" stroke="orange" stroke-dasharray="5,2" d="M104.18,-136.62C142.32,-136.62 192.2,-136.62 229.62,-136.62"/>
<polygon fill="orange" stroke="orange" points="104.27,-133.13 94.27,-136.63 104.27,-140.13 104.27,-133.13"/>
</a>
</g>
<text text-anchor="middle" x="161.12" y="-138.38" font-family="Helvetica,sans-Serif" font-size="10.00" fill="grey"> &lt; CharT, CharTraitsT &gt;</text>
</g>
<!-- Node7 -->
<g id="Node000007" class="node">
<title>Node7</title>
<g id="a_Node000007"><a xlink:href="../../de/d89/classmimicpp_1_1reporting_1_1_type_report.html" target="_top" xlink:title="Contains information about a specific (potentially cv&#45;ref&#45;qualified) type.">
<polygon fill="white" stroke="#666666" points="331.62,-102.88 236.88,-102.88 236.88,-72.38 331.62,-72.38 331.62,-102.88"/>
<text text-anchor="start" x="244.88" y="-89.38" font-family="Helvetica,sans-Serif" font-size="10.00">mimicpp::reporting</text>
<text text-anchor="middle" x="284.25" y="-78.12" font-family="Helvetica,sans-Serif" font-size="10.00">::TypeReport</text>
</a>
</g>
</g>
<!-- Node7&#45;&gt;Node4 -->
<g id="edge6_Node000004_Node000007" class="edge">
<title>Node7&#45;&gt;Node4</title>
<g id="a_edge6_Node000004_Node000007"><a xlink:title=" ">
<path fill="none" stroke="#9a32cd" stroke-dasharray="5,2" d="M343.36,-90.1C380.98,-91.75 431.02,-94.04 475.25,-96.38 488.76,-97.09 503.42,-97.93 516.85,-98.73"/>
<polygon fill="#9a32cd" stroke="#9a32cd" points="343.76,-86.61 333.62,-89.68 343.46,-93.61 343.76,-86.61"/>
</a>
</g>
<text text-anchor="middle" x="416" y="-98.12" font-family="Helvetica,sans-Serif" font-size="10.00" fill="grey"> overloadReport</text>
</g>
<!-- Node8 -->
<g id="Node000008" class="node">
<title>Node8</title>
<g id="a_Node000008"><a xlink:title=" ">
<polygon fill="white" stroke="#666666" points="625.12,-67.88 504.12,-67.88 504.12,-37.38 625.12,-37.38 625.12,-67.88"/>
<text text-anchor="start" x="512.12" y="-54.38" font-family="Helvetica,sans-Serif" font-size="10.00">std::vector&lt; std::optional</text>
<text text-anchor="middle" x="564.62" y="-43.12" font-family="Helvetica,sans-Serif" font-size="10.00">&lt; StringT &gt; &gt;</text>
</a>
</g>
</g>
<!-- Node8&#45;&gt;Node2 -->
<g id="edge7_Node000002_Node000008" class="edge">
<title>Node8&#45;&gt;Node2</title>
<g id="a_edge7_Node000002_Node000008"><a xlink:title=" ">
<path fill="none" stroke="#9a32cd" stroke-dasharray="5,2" d="M636.82,-61.98C673.94,-66.96 720.07,-73.29 761.25,-79.38 770.37,-80.72 780.09,-82.22 789.44,-83.69"/>
<polygon fill="#9a32cd" stroke="#9a32cd" points="637.48,-58.54 627.11,-60.69 636.55,-65.48 637.48,-58.54"/>
</a>
</g>
<text text-anchor="middle" x="707.62" y="-81.12" font-family="Helvetica,sans-Serif" font-size="10.00" fill="grey"> requirementDescriptions</text>
</g>
<!-- Node9 -->
<g id="Node000009" class="node">
<title>Node9</title>
<g id="a_Node000009"><a xlink:title=" ">
<polygon fill="white" stroke="#666666" points="326,-39.25 242.5,-39.25 242.5,-20 326,-20 326,-39.25"/>
<text text-anchor="middle" x="284.25" y="-25.75" font-family="Helvetica,sans-Serif" font-size="10.00">std::vector&lt; T &gt;</text>
</a>
</g>
</g>
<!-- Node9&#45;&gt;Node8 -->
<g id="edge8_Node000008_Node000009" class="edge">
<title>Node9&#45;&gt;Node8</title>
<g id="a_edge8_Node000008_Node000009"><a xlink:title=" ">
<path fill="none" stroke="orange" stroke-dasharray="5,2" d="M337.54,-33.95C384.82,-37.85 454.39,-43.6 503.85,-47.69"/>
<polygon fill="orange" stroke="orange" points="338.09,-30.48 327.83,-33.14 337.51,-37.45 338.09,-30.48"/>
</a>
</g>
<text text-anchor="middle" x="416" y="-46.94" font-family="Helvetica,sans-Serif" font-size="10.00" fill="grey"> &lt; std::optional&lt; StringT &gt; &gt;</text>
</g>
<!-- Node12 -->
<g id="Node000012" class="node">
<title>Node12</title>
<g id="a_Node000012"><a xlink:title=" ">
<polygon fill="white" stroke="#666666" points="612.38,-19.25 516.88,-19.25 516.88,0 612.38,0 612.38,-19.25"/>
<text text-anchor="middle" x="564.62" y="-5.75" font-family="Helvetica,sans-Serif" font-size="10.00">std::vector&lt; bool &gt;</text>
</a>
</g>
</g>
<!-- Node9&#45;&gt;Node12 -->
<g id="edge12_Node000012_Node000009" class="edge">
<title>Node9&#45;&gt;Node12</title>
<g id="a_edge12_Node000012_Node000009"><a xlink:title=" ">
<path fill="none" stroke="orange" stroke-dasharray="5,2" d="M337.21,-19.05C343.76,-18 350.4,-17.06 356.75,-16.38 411.41,-10.45 474.63,-9.2 516.65,-9.15"/>
<polygon fill="orange" stroke="orange" points="337.06,-15.53 327.8,-20.67 338.25,-22.43 337.06,-15.53"/>
</a>
</g>
<text text-anchor="middle" x="416" y="-18.12" font-family="Helvetica,sans-Serif" font-size="10.00" fill="grey"> &lt; bool &gt;</text>
</g>
<!-- Node10 -->
<g id="Node000010" class="node">
<title>Node10</title>
<g id="a_Node000010"><a xlink:title=" ">
<polygon fill="white" stroke="#666666" points="60.65,-39.25 31.85,-39.25 31.85,-20 60.65,-20 60.65,-39.25"/>
<text text-anchor="middle" x="46.25" y="-25.75" font-family="Helvetica,sans-Serif" font-size="10.00">T</text>
</a>
</g>
</g>
<!-- Node10&#45;&gt;Node9 -->
<g id="edge9_Node000009_Node000010" class="edge">
<title>Node10&#45;&gt;Node9</title>
<g id="a_edge9_Node000009_Node000010"><a xlink:title=" ">
<path fill="none" stroke="#9a32cd" stroke-dasharray="5,2" d="M72.43,-29.62C113.04,-29.62 193.37,-29.62 242.3,-29.62"/>
<polygon fill="#9a32cd" stroke="#9a32cd" points="72.47,-26.13 62.47,-29.63 72.47,-33.13 72.47,-26.13"/>
</a>
</g>
<text text-anchor="middle" x="161.12" y="-31.38" font-family="Helvetica,sans-Serif" font-size="10.00" fill="grey"> elements</text>
</g>
<!-- Node11 -->
<g id="Node000011" class="node">
<title>Node11</title>
<g id="a_Node000011"><a xlink:href="../../d0/d66/classmimicpp_1_1reporting_1_1_requirement_outcomes.html" target="_top" xlink:title="Contains the boolean outcomes of a match&#45;test.">
<polygon fill="white" stroke="#666666" points="899.5,-49.88 779.25,-49.88 779.25,-19.38 899.5,-19.38 899.5,-49.88"/>
<text text-anchor="start" x="787.25" y="-36.38" font-family="Helvetica,sans-Serif" font-size="10.00">mimicpp::reporting</text>
<text text-anchor="middle" x="839.38" y="-25.12" font-family="Helvetica,sans-Serif" font-size="10.00">::RequirementOutcomes</text>
</a>
</g>
</g>
<!-- Node11&#45;&gt;Node1 -->
<g id="edge10_Node000001_Node000011" class="edge">
<title>Node11&#45;&gt;Node1</title>
<g id="a_edge10_Node000001_Node000011"><a xlink:title=" ">
<path fill="none" stroke="#9a32cd" stroke-dasharray="5,2" d="M911.3,-37.42C943.3,-39.18 981.51,-41.99 1015.75,-46.38 1021.51,-47.11 1027.52,-48.04 1033.47,-49.06"/>
<polygon fill="#9a32cd" stroke="#9a32cd" points="911.49,-33.92 901.32,-36.9 911.12,-40.92 911.49,-33.92"/>
</a>
</g>
<text text-anchor="middle" x="966.62" y="-48.12" font-family="Helvetica,sans-Serif" font-size="10.00" fill="grey"> requirementOutcomes</text>
</g>
<!-- Node12&#45;&gt;Node11 -->
<g id="edge11_Node000011_Node000012" class="edge">
<title>Node12&#45;&gt;Node11</title>
<g id="a_edge11_Node000011_Node000012"><a xlink:title=" ">
<path fill="none" stroke="#9a32cd" stroke-dasharray="5,2" d="M624.15,-12.02C663.09,-13.97 715.32,-17.24 761.25,-22.38 767.04,-23.02 773.07,-23.8 779.08,-24.64"/>
<polygon fill="#9a32cd" stroke="#9a32cd" points="624.44,-8.53 614.28,-11.55 624.1,-15.53 624.44,-8.53"/>
</a>
</g>
<text text-anchor="middle" x="707.62" y="-24.12" font-family="Helvetica,sans-Serif" font-size="10.00" fill="grey"> outcomes</text>
</g>
</g>
</svg>
