<?xml version="1.0" encoding="UTF-8" standalone="no"?>
<!DOCTYPE svg PUBLIC "-//W3C//DTD SVG 1.1//EN"
 "http://www.w3.org/Graphics/SVG/1.1/DTD/svg11.dtd">
<!-- Generated by graphviz version 12.2.1 (20241206.2353)
 -->
<!-- Title: mimicpp::reporting::NoMatchReport Pages: 1 -->
<svg width="1156pt" height="205pt"
 viewBox="0.00 0.00 1156.00 205.28" xmlns="http://www.w3.org/2000/svg" xmlns:xlink="http://www.w3.org/1999/xlink">
<g id="graph0" class="graph" transform="scale(1 1) rotate(0) translate(4 201.28)">
<title>mimicpp::reporting::NoMatchReport</title>
<!-- Node1 -->
<g id="Node000001" class="node">
<title>Node1</title>
<g id="a_Node000001"><a xlink:title="Contains the requirement&#45;outcomes (where at least one is negative) and the related expectation&#45;report...">
<polygon fill="#999999" stroke="#666666" points="1148,-66.88 1053.25,-66.88 1053.25,-36.38 1148,-36.38 1148,-66.88"/>
<text text-anchor="start" x="1061.25" y="-53.38" font-family="Helvetica,sans-Serif" font-size="10.00">mimicpp::reporting</text>
<text text-anchor="middle" x="1100.62" y="-42.12" font-family="Helvetica,sans-Serif" font-size="10.00">::NoMatchReport</text>
</a>
</g>
</g>
<!-- Node2 -->
<g id="Node000002" class="node">
<title>Node2</title>
<g id="a_Node000002"><a xlink:href="../../d2/d91/classmimicpp_1_1reporting_1_1_expectation_report.html" target="_top" xlink:title="Contains the extracted info from a typed expectation.">
<polygon fill="white" stroke="#666666" points="908.5,-96.88 809.25,-96.88 809.25,-66.38 908.5,-66.38 908.5,-96.88"/>
<text text-anchor="start" x="817.25" y="-83.38" font-family="Helvetica,sans-Serif" font-size="10.00">mimicpp::reporting</text>
<text text-anchor="middle" x="858.88" y="-72.12" font-family="Helvetica,sans-Serif" font-size="10.00">::ExpectationReport</text>
</a>
</g>
</g>
<!-- Node2&#45;&gt;Node1 -->
<g id="edge1_Node000001_Node000002" class="edge">
<title>Node2&#45;&gt;Node1</title>
<g id="a_edge1_Node000001_Node000002"><a xlink:title=" ">
<path fill="none" stroke="#9a32cd" stroke-dasharray="5,2" d="M920.23,-74.07C961.41,-68.92 1015.15,-62.2 1053.04,-57.45"/>
<polygon fill="#9a32cd" stroke="#9a32cd" points="919.96,-70.58 910.47,-75.29 920.83,-77.52 919.96,-70.58"/>
</a>
</g>
<text text-anchor="middle" x="986.12" y="-73.67" font-family="Helvetica,sans-Serif" font-size="10.00" fill="grey"> expectationReport</text>
</g>
<!-- Node3 -->
<g id="Node000003" class="node">
<title>Node3</title>
<g id="a_Node000003"><a xlink:href="../../db/df5/classmimicpp_1_1util_1_1_source_location.html" target="_top" xlink:title="A thin wrapper around general source&#45;location info.">
<polygon fill="white" stroke="#666666" points="655.5,-159.25 512.75,-159.25 512.75,-140 655.5,-140 655.5,-159.25"/>
<text text-anchor="middle" x="584.12" y="-145.75" font-family="Helvetica,sans-Serif" font-size="10.00">mimicpp::util::SourceLocation</text>
</a>
</g>
</g>
<!-- Node3&#45;&gt;Node2 -->
<g id="edge2_Node000002_Node000003" class="edge">
<title>Node3&#45;&gt;Node2</title>
<g id="a_edge2_Node000002_Node000003"><a xlink:title=" ">
<path fill="none" stroke="#9a32cd" stroke-dasharray="5,2" d="M657.29,-137.48C694.48,-130.57 740.39,-121.01 780.75,-109.62 793.09,-106.14 806.28,-101.65 818.21,-97.29"/>
<polygon fill="#9a32cd" stroke="#9a32cd" points="656.74,-134.03 647.53,-139.27 658,-140.91 656.74,-134.03"/>
</a>
</g>
<text text-anchor="middle" x="727.12" y="-135.86" font-family="Helvetica,sans-Serif" font-size="10.00" fill="grey"> from</text>
</g>
<!-- Node4 -->
<g id="Node000004" class="node">
<title>Node4</title>
<g id="a_Node000004"><a xlink:title=" ">
<polygon fill="white" stroke="#666666" points="345.5,-178.25 262,-178.25 262,-159 345.5,-159 345.5,-178.25"/>
<text text-anchor="middle" x="303.75" y="-164.75" font-family="Helvetica,sans-Serif" font-size="10.00">std::string_view</text>
</a>
</g>
</g>
<!-- Node4&#45;&gt;Node3 -->
<g id="edge3_Node000003_Node000004" class="edge">
<title>Node4&#45;&gt;Node3</title>
<g id="a_edge3_Node000003_Node000004"><a xlink:title=" ">
<path fill="none" stroke="#9a32cd" stroke-dasharray="5,2" d="M357.11,-165.05C401,-162.06 464.07,-157.75 512.44,-154.45"/>
<polygon fill="#9a32cd" stroke="#9a32cd" points="357.07,-161.55 347.34,-165.72 357.55,-168.53 357.07,-161.55"/>
</a>
</g>
<text text-anchor="middle" x="435.5" y="-187.78" font-family="Helvetica,sans-Serif" font-size="10.00" fill="grey"> fileName</text>
<text text-anchor="middle" x="435.5" y="-176.53" font-family="Helvetica,sans-Serif" font-size="10.00" fill="grey">functionName</text>
<text text-anchor="middle" x="435.5" y="-165.28" font-family="Helvetica,sans-Serif" font-size="10.00" fill="grey">line</text>
</g>
<!-- Node5 -->
<g id="Node000005" class="node">
<title>Node5</title>
<g id="a_Node000005"><a xlink:title=" ">
<polygon fill="white" stroke="#666666" points="112,-184.88 0,-184.88 0,-154.38 112,-154.38 112,-184.88"/>
<text text-anchor="start" x="8" y="-171.38" font-family="Helvetica,sans-Serif" font-size="10.00">std::basic_string_view</text>
<text text-anchor="middle" x="56" y="-160.12" font-family="Helvetica,sans-Serif" font-size="10.00">&lt; Char &gt;</text>
</a>
</g>
</g>
<!-- Node5&#45;&gt;Node4 -->
<g id="edge4_Node000004_Node000005" class="edge">
<title>Node5&#45;&gt;Node4</title>
<g id="a_edge4_Node000004_Node000005"><a xlink:title=" ">
<path fill="none" stroke="#63b8ff" d="M123.94,-169.35C167.95,-169.17 224.12,-168.94 261.65,-168.79"/>
<polygon fill="#63b8ff" stroke="#63b8ff" points="123.96,-165.85 113.97,-169.39 123.99,-172.85 123.96,-165.85"/>
</a>
</g>
</g>
<!-- Node6 -->
<g id="Node000006" class="node">
<title>Node6</title>
<g id="a_Node000006"><a xlink:href="../../d2/d84/classmimicpp_1_1reporting_1_1_target_report.html" target="_top" xlink:title="Contains the extracted mock info.">
<polygon fill="white" stroke="#666666" points="631.5,-116.88 536.75,-116.88 536.75,-86.38 631.5,-86.38 631.5,-116.88"/>
<text text-anchor="start" x="544.75" y="-103.38" font-family="Helvetica,sans-Serif" font-size="10.00">mimicpp::reporting</text>
<text text-anchor="middle" x="584.12" y="-92.12" font-family="Helvetica,sans-Serif" font-size="10.00">::TargetReport</text>
</a>
</g>
</g>
<!-- Node6&#45;&gt;Node2 -->
<g id="edge5_Node000002_Node000006" class="edge">
<title>Node6&#45;&gt;Node2</title>
<g id="a_edge5_Node000002_Node000006"><a xlink:title=" ">
<path fill="none" stroke="#9a32cd" stroke-dasharray="5,2" d="M643.16,-97.37C692.55,-93.75 762.68,-88.61 809.19,-85.19"/>
<polygon fill="#9a32cd" stroke="#9a32cd" points="642.93,-93.88 633.21,-98.1 643.44,-100.86 642.93,-93.88"/>
</a>
</g>
<text text-anchor="middle" x="727.12" y="-96.33" font-family="Helvetica,sans-Serif" font-size="10.00" fill="grey"> target</text>
</g>
<!-- Node7 -->
<g id="Node000007" class="node">
<title>Node7</title>
<g id="a_Node000007"><a xlink:title=" ">
<polygon fill="white" stroke="#666666" points="358.25,-137.88 249.25,-137.88 249.25,-107.38 358.25,-107.38 358.25,-137.88"/>
<text text-anchor="start" x="257.25" y="-124.38" font-family="Helvetica,sans-Serif" font-size="10.00">std::basic_string&lt;</text>
<text text-anchor="middle" x="303.75" y="-113.12" font-family="Helvetica,sans-Serif" font-size="10.00"> CharT, CharTraitsT &gt;</text>
</a>
</g>
</g>
<!-- Node7&#45;&gt;Node6 -->
<g id="edge6_Node000006_Node000007" class="edge">
<title>Node7&#45;&gt;Node6</title>
<g id="a_edge6_Node000006_Node000007"><a xlink:title=" ">
<path fill="none" stroke="#9a32cd" stroke-dasharray="5,2" d="M369.68,-117.73C420.82,-113.87 490.87,-108.58 536.55,-105.14"/>
<polygon fill="#9a32cd" stroke="#9a32cd" points="369.64,-114.22 359.93,-118.46 370.17,-121.2 369.64,-114.22"/>
</a>
</g>
<text text-anchor="middle" x="435.5" y="-118.74" font-family="Helvetica,sans-Serif" font-size="10.00" fill="grey"> name</text>
</g>
<!-- Node8 -->
<g id="Node000008" class="node">
<title>Node8</title>
<g id="a_Node000008"><a xlink:title=" ">
<polygon fill="white" stroke="#666666" points="102.25,-135.88 9.75,-135.88 9.75,-105.38 102.25,-105.38 102.25,-135.88"/>
<text text-anchor="start" x="17.75" y="-122.38" font-family="Helvetica,sans-Serif" font-size="10.00">std::basic_string&lt;</text>
<text text-anchor="middle" x="56" y="-111.12" font-family="Helvetica,sans-Serif" font-size="10.00"> Char &gt;</text>
</a>
</g>
</g>
<!-- Node8&#45;&gt;Node7 -->
<g id="edge7_Node000007_Node000008" class="edge">
<title>Node8&#45;&gt;Node7</title>
<g id="a_edge7_Node000007_Node000008"><a xlink:title=" ">
<path fill="none" stroke="orange" stroke-dasharray="5,2" d="M113.98,-121.09C154.6,-121.42 208.86,-121.86 248.78,-122.19"/>
<polygon fill="orange" stroke="orange" points="114.19,-117.59 104.16,-121.01 114.13,-124.59 114.19,-117.59"/>
</a>
</g>
<text text-anchor="middle" x="180.62" y="-123.78" font-family="Helvetica,sans-Serif" font-size="10.00" fill="grey"> &lt; CharT, CharTraitsT &gt;</text>
</g>
<!-- Node9 -->
<g id="Node000009" class="node">
<title>Node9</title>
<g id="a_Node000009"><a xlink:href="../../de/d89/classmimicpp_1_1reporting_1_1_type_report.html" target="_top" xlink:title="Contains information about a specific (potentially cv&#45;ref&#45;qualified) type.">
<polygon fill="white" stroke="#666666" points="351.12,-88.88 256.38,-88.88 256.38,-58.38 351.12,-58.38 351.12,-88.88"/>
<text text-anchor="start" x="264.38" y="-75.38" font-family="Helvetica,sans-Serif" font-size="10.00">mimicpp::reporting</text>
<text text-anchor="middle" x="303.75" y="-64.12" font-family="Helvetica,sans-Serif" font-size="10.00">::TypeReport</text>
</a>
</g>
</g>
<!-- Node9&#45;&gt;Node6 -->
<g id="edge8_Node000006_Node000009" class="edge">
<title>Node9&#45;&gt;Node6</title>
<g id="a_edge8_Node000006_Node000009"><a xlink:title=" ">
<path fill="none" stroke="#9a32cd" stroke-dasharray="5,2" d="M362.62,-79.45C414.14,-84.63 488.55,-92.11 536.38,-96.92"/>
<polygon fill="#9a32cd" stroke="#9a32cd" points="363.15,-75.98 352.85,-78.46 362.45,-82.95 363.15,-75.98"/>
</a>
</g>
<text text-anchor="middle" x="435.5" y="-94.32" font-family="Helvetica,sans-Serif" font-size="10.00" fill="grey"> overloadReport</text>
</g>
<!-- Node10 -->
<g id="Node000010" class="node">
<title>Node10</title>
<g id="a_Node000010"><a xlink:title=" ">
<polygon fill="white" stroke="#666666" points="644.62,-67.88 523.62,-67.88 523.62,-37.38 644.62,-37.38 644.62,-67.88"/>
<text text-anchor="start" x="531.62" y="-54.38" font-family="Helvetica,sans-Serif" font-size="10.00">std::vector&lt; std::optional</text>
<text text-anchor="middle" x="584.12" y="-43.12" font-family="Helvetica,sans-Serif" font-size="10.00">&lt; StringT &gt; &gt;</text>
</a>
</g>
</g>
<!-- Node10&#45;&gt;Node2 -->
<g id="edge9_Node000002_Node000010" class="edge">
<title>Node10&#45;&gt;Node2</title>
<g id="a_edge9_Node000002_Node000010"><a xlink:title=" ">
<path fill="none" stroke="#9a32cd" stroke-dasharray="5,2" d="M656.3,-59.49C693.41,-63.15 739.55,-67.82 780.75,-72.38 789.86,-73.38 799.58,-74.51 808.93,-75.61"/>
<polygon fill="#9a32cd" stroke="#9a32cd" points="656.89,-56.03 646.59,-58.53 656.2,-62.99 656.89,-56.03"/>
</a>
</g>
<text text-anchor="middle" x="727.12" y="-74.12" font-family="Helvetica,sans-Serif" font-size="10.00" fill="grey"> requirementDescriptions</text>
</g>
<!-- Node11 -->
<g id="Node000011" class="node">
<title>Node11</title>
<g id="a_Node000011"><a xlink:title=" ">
<polygon fill="white" stroke="#666666" points="345.5,-32.25 262,-32.25 262,-13 345.5,-13 345.5,-32.25"/>
<text text-anchor="middle" x="303.75" y="-18.75" font-family="Helvetica,sans-Serif" font-size="10.00">std::vector&lt; T &gt;</text>
</a>
</g>
</g>
<!-- Node11&#45;&gt;Node10 -->
<g id="edge10_Node000010_Node000011" class="edge">
<title>Node11&#45;&gt;Node10</title>
<g id="a_edge10_Node000010_Node000011"><a xlink:title=" ">
<path fill="none" stroke="orange" stroke-dasharray="5,2" d="M357.04,-28.26C404.32,-33.36 473.89,-40.85 523.35,-46.18"/>
<polygon fill="orange" stroke="orange" points="357.65,-24.81 347.33,-27.21 356.9,-31.77 357.65,-24.81"/>
</a>
</g>
<text text-anchor="middle" x="435.5" y="-44.67" font-family="Helvetica,sans-Serif" font-size="10.00" fill="grey"> &lt; std::optional&lt; StringT &gt; &gt;</text>
</g>
<!-- Node14 -->
<g id="Node000014" class="node">
<title>Node14</title>
<g id="a_Node000014"><a xlink:title=" ">
<polygon fill="white" stroke="#666666" points="631.88,-19.25 536.38,-19.25 536.38,0 631.88,0 631.88,-19.25"/>
<text text-anchor="middle" x="584.12" y="-5.75" font-family="Helvetica,sans-Serif" font-size="10.00">std::vector&lt; bool &gt;</text>
</a>
</g>
</g>
<!-- Node11&#45;&gt;Node14 -->
<g id="edge14_Node000014_Node000011" class="edge">
<title>Node11&#45;&gt;Node14</title>
<g id="a_edge14_Node000014_Node000011"><a xlink:title=" ">
<path fill="none" stroke="orange" stroke-dasharray="5,2" d="M356.71,-12.69C363.27,-11.74 369.9,-10.93 376.25,-10.38 431,-5.62 494.2,-6.28 536.19,-7.58"/>
<polygon fill="orange" stroke="orange" points="356.65,-9.15 347.31,-14.16 357.73,-16.07 356.65,-9.15"/>
</a>
</g>
<text text-anchor="middle" x="435.5" y="-12.12" font-family="Helvetica,sans-Serif" font-size="10.00" fill="grey"> &lt; bool &gt;</text>
</g>
<!-- Node12 -->
<g id="Node000012" class="node">
<title>Node12</title>
<g id="a_Node000012"><a xlink:title=" ">
<polygon fill="white" stroke="#666666" points="70.4,-32.25 41.6,-32.25 41.6,-13 70.4,-13 70.4,-32.25"/>
<text text-anchor="middle" x="56" y="-18.75" font-family="Helvetica,sans-Serif" font-size="10.00">T</text>
</a>
</g>
</g>
<!-- Node12&#45;&gt;Node11 -->
<g id="edge11_Node000011_Node000012" class="edge">
<title>Node12&#45;&gt;Node11</title>
<g id="a_edge11_Node000011_Node000012"><a xlink:title=" ">
<path fill="none" stroke="#9a32cd" stroke-dasharray="5,2" d="M81.96,-22.62C124.25,-22.62 210.38,-22.62 261.67,-22.62"/>
<polygon fill="#9a32cd" stroke="#9a32cd" points="82.08,-19.13 72.08,-22.63 82.08,-26.13 82.08,-19.13"/>
</a>
</g>
<text text-anchor="middle" x="180.62" y="-24.38" font-family="Helvetica,sans-Serif" font-size="10.00" fill="grey"> elements</text>
</g>
<!-- Node13 -->
<g id="Node000013" class="node">
<title>Node13</title>
<g id="a_Node000013"><a xlink:href="../../d0/d66/classmimicpp_1_1reporting_1_1_requirement_outcomes.html" target="_top" xlink:title="Contains the boolean outcomes of a match&#45;test.">
<polygon fill="white" stroke="#666666" points="919,-42.88 798.75,-42.88 798.75,-12.37 919,-12.37 919,-42.88"/>
<text text-anchor="start" x="806.75" y="-29.38" font-family="Helvetica,sans-Serif" font-size="10.00">mimicpp::reporting</text>
<text text-anchor="middle" x="858.88" y="-18.12" font-family="Helvetica,sans-Serif" font-size="10.00">::RequirementOutcomes</text>
</a>
</g>
</g>
<!-- Node13&#45;&gt;Node1 -->
<g id="edge12_Node000001_Node000013" class="edge">
<title>Node13&#45;&gt;Node1</title>
<g id="a_edge12_Node000001_Node000013"><a xlink:title=" ">
<path fill="none" stroke="#9a32cd" stroke-dasharray="5,2" d="M930.8,-30.42C962.8,-32.18 1001.01,-34.99 1035.25,-39.38 1041.01,-40.11 1047.02,-41.04 1052.97,-42.06"/>
<polygon fill="#9a32cd" stroke="#9a32cd" points="930.99,-26.92 920.82,-29.9 930.62,-33.92 930.99,-26.92"/>
</a>
</g>
<text text-anchor="middle" x="986.12" y="-41.12" font-family="Helvetica,sans-Serif" font-size="10.00" fill="grey"> requirementOutcomes</text>
</g>
<!-- Node14&#45;&gt;Node13 -->
<g id="edge13_Node000013_Node000014" class="edge">
<title>Node14&#45;&gt;Node13</title>
<g id="a_edge13_Node000013_Node000014"><a xlink:title=" ">
<path fill="none" stroke="#9a32cd" stroke-dasharray="5,2" d="M643.54,-13.48C689.21,-16.49 752.46,-20.67 798.41,-23.7"/>
<polygon fill="#9a32cd" stroke="#9a32cd" points="644.04,-10.01 633.83,-12.84 643.58,-16.99 644.04,-10.01"/>
</a>
</g>
<text text-anchor="middle" x="727.12" y="-24.06" font-family="Helvetica,sans-Serif" font-size="10.00" fill="grey"> outcomes</text>
</g>
</g>
</svg>
