<?xml version="1.0" encoding="UTF-8" standalone="no"?>
<!DOCTYPE svg PUBLIC "-//W3C//DTD SVG 1.1//EN"
 "http://www.w3.org/Graphics/SVG/1.1/DTD/svg11.dtd">
<!-- Generated by graphviz version 12.2.1 (20241206.2353)
 -->
<!-- Title: mimic++/Sequence.hpp Pages: 1 -->
<svg width="1600pt" height="414pt"
 viewBox="0.00 0.00 1599.50 414.00" xmlns="http://www.w3.org/2000/svg" xmlns:xlink="http://www.w3.org/1999/xlink">
<g id="graph0" class="graph" transform="scale(1 1) rotate(0) translate(4 410)">
<title>mimic++/Sequence.hpp</title>
<!-- Node1 -->
<g id="Node000001" class="node">
<title>Node1</title>
<g id="a_Node000001"><a xlink:title=" ">
<polygon fill="#999999" stroke="#666666" points="1334.38,-406 1215.62,-406 1215.62,-386.75 1334.38,-386.75 1334.38,-406"/>
<text text-anchor="middle" x="1275" y="-392.5" font-family="Helvetica,sans-Serif" font-size="10.00">mimic++/Sequence.hpp</text>
</a>
</g>
</g>
<!-- Node2 -->
<g id="Node000002" class="node">
<title>Node2</title>
<g id="a_Node000002"><a xlink:href="../../df/dde/_fwd_8hpp.html" target="_top" xlink:title=" ">
<polygon fill="white" stroke="#666666" points="627,-74.5 533,-74.5 533,-55.25 627,-55.25 627,-74.5"/>
<text text-anchor="middle" x="580" y="-61" font-family="Helvetica,sans-Serif" font-size="10.00">mimic++/Fwd.hpp</text>
</a>
</g>
</g>
<!-- Node1&#45;&gt;Node2 -->
<g id="edge1_Node000001_Node000002" class="edge">
<title>Node1&#45;&gt;Node2</title>
<g id="a_edge1_Node000001_Node000002"><a xlink:title=" ">
<path fill="none" stroke="#63b8ff" d="M1215.21,-393.46C963.14,-385.01 0,-348.66 0,-286.88 0,-286.88 0,-286.88 0,-174.38 0,-118.99 54.36,-127.72 107,-110.5 182.54,-85.79 412.43,-72.99 521.44,-68.18"/>
<polygon fill="#63b8ff" stroke="#63b8ff" points="521.52,-71.68 531.35,-67.75 521.21,-64.68 521.52,-71.68"/>
</a>
</g>
</g>
<!-- Node5 -->
<g id="Node000005" class="node">
<title>Node5</title>
<g id="a_Node000005"><a xlink:href="../../da/dab/_printer_8hpp.html" target="_top" xlink:title=" ">
<polygon fill="white" stroke="#666666" points="559.88,-240.25 456.12,-240.25 456.12,-221 559.88,-221 559.88,-240.25"/>
<text text-anchor="middle" x="508" y="-226.75" font-family="Helvetica,sans-Serif" font-size="10.00">mimic++/Printer.hpp</text>
</a>
</g>
</g>
<!-- Node1&#45;&gt;Node5 -->
<g id="edge4_Node000001_Node000005" class="edge">
<title>Node1&#45;&gt;Node5</title>
<g id="a_edge4_Node000001_Node000005"><a xlink:title=" ">
<path fill="none" stroke="#63b8ff" d="M1215.19,-393.15C1121.27,-388.95 933.76,-377.73 777,-350.75 679.77,-334.01 645.58,-347.93 562,-295.5 543.79,-284.07 528.58,-264.5 518.99,-250.02"/>
<polygon fill="#63b8ff" stroke="#63b8ff" points="522.14,-248.45 513.85,-241.85 516.21,-252.18 522.14,-248.45"/>
</a>
</g>
</g>
<!-- Node7 -->
<g id="Node000007" class="node">
<title>Node7</title>
<g id="a_Node000007"><a xlink:href="../../d4/d2c/_utility_8hpp.html" target="_top" xlink:title=" ">
<polygon fill="white" stroke="#666666" points="1257,-129.75 1157,-129.75 1157,-110.5 1257,-110.5 1257,-129.75"/>
<text text-anchor="middle" x="1207" y="-116.25" font-family="Helvetica,sans-Serif" font-size="10.00">mimic++/Utility.hpp</text>
</a>
</g>
</g>
<!-- Node1&#45;&gt;Node7 -->
<g id="edge70_Node000001_Node000007" class="edge">
<title>Node1&#45;&gt;Node7</title>
<g id="a_edge70_Node000001_Node000007"><a xlink:title=" ">
<path fill="none" stroke="#63b8ff" d="M1281.49,-386.3C1293.73,-368.29 1319,-326.31 1319,-286.88 1319,-286.88 1319,-286.88 1319,-229.62 1319,-184.68 1271.89,-152.39 1238.78,-135.25"/>
<polygon fill="#63b8ff" stroke="#63b8ff" points="1240.47,-132.19 1229.95,-130.89 1237.37,-138.46 1240.47,-132.19"/>
</a>
</g>
</g>
<!-- Node8 -->
<g id="Node000008" class="node">
<title>Node8</title>
<g id="a_Node000008"><a xlink:title=" ">
<polygon fill="#e0e0e0" stroke="#999999" points="1457.12,-74.5 1408.88,-74.5 1408.88,-55.25 1457.12,-55.25 1457.12,-74.5"/>
<text text-anchor="middle" x="1433" y="-61" font-family="Helvetica,sans-Serif" font-size="10.00">cassert</text>
</a>
</g>
</g>
<!-- Node1&#45;&gt;Node8 -->
<g id="edge73_Node000001_Node000008" class="edge">
<title>Node1&#45;&gt;Node8</title>
<g id="a_edge73_Node000001_Node000008"><a xlink:title=" ">
<path fill="none" stroke="#63b8ff" d="M1334.87,-387.72C1392.51,-376.6 1471,-349.88 1471,-286.88 1471,-286.88 1471,-286.88 1471,-174.38 1471,-141.38 1455.16,-105.76 1443.93,-84.66"/>
<polygon fill="#63b8ff" stroke="#63b8ff" points="1447.1,-83.15 1439.18,-76.11 1440.98,-86.55 1447.1,-83.15"/>
</a>
</g>
</g>
<!-- Node12 -->
<g id="Node000012" class="node">
<title>Node12</title>
<g id="a_Node000012"><a xlink:title=" ">
<polygon fill="#e0e0e0" stroke="#999999" points="181,-129.75 123,-129.75 123,-110.5 181,-110.5 181,-129.75"/>
<text text-anchor="middle" x="152" y="-116.25" font-family="Helvetica,sans-Serif" font-size="10.00">functional</text>
</a>
</g>
</g>
<!-- Node1&#45;&gt;Node12 -->
<g id="edge74_Node000001_Node000012" class="edge">
<title>Node1&#45;&gt;Node12</title>
<g id="a_edge74_Node000001_Node000012"><a xlink:title=" ">
<path fill="none" stroke="#63b8ff" d="M1215.39,-392.78C1027.72,-384.09 451.03,-353.26 274,-295.5 223.49,-279.02 202.33,-280.79 168,-240.25 144.48,-212.47 145.58,-167.23 148.68,-141.23"/>
<polygon fill="#63b8ff" stroke="#63b8ff" points="152.09,-142.06 150.04,-131.67 145.16,-141.08 152.09,-142.06"/>
</a>
</g>
</g>
<!-- Node18 -->
<g id="Node000018" class="node">
<title>Node18</title>
<g id="a_Node000018"><a xlink:title=" ">
<polygon fill="#e0e0e0" stroke="#999999" points="1350.5,-129.75 1313.5,-129.75 1313.5,-110.5 1350.5,-110.5 1350.5,-129.75"/>
<text text-anchor="middle" x="1332" y="-116.25" font-family="Helvetica,sans-Serif" font-size="10.00">tuple</text>
</a>
</g>
</g>
<!-- Node1&#45;&gt;Node18 -->
<g id="edge76_Node000001_Node000018" class="edge">
<title>Node1&#45;&gt;Node18</title>
<g id="a_edge76_Node000001_Node000018"><a xlink:title=" ">
<path fill="none" stroke="#63b8ff" d="M1291.29,-386.32C1304.18,-378.42 1321.81,-365.86 1333,-350.75 1351.04,-326.37 1357,-317.2 1357,-286.88 1357,-286.88 1357,-286.88 1357,-229.62 1357,-197.97 1346.77,-162.41 1339.4,-140.9"/>
<polygon fill="#63b8ff" stroke="#63b8ff" points="1342.76,-139.91 1336.09,-131.67 1336.17,-142.27 1342.76,-139.91"/>
</a>
</g>
</g>
<!-- Node23 -->
<g id="Node000023" class="node">
<title>Node23</title>
<g id="a_Node000023"><a xlink:href="../../da/dd9/_reporter_8hpp.html" target="_top" xlink:title=" ">
<polygon fill="white" stroke="#666666" points="898,-350.75 786,-350.75 786,-331.5 898,-331.5 898,-350.75"/>
<text text-anchor="middle" x="842" y="-337.25" font-family="Helvetica,sans-Serif" font-size="10.00">mimic++/Reporter.hpp</text>
</a>
</g>
</g>
<!-- Node1&#45;&gt;Node23 -->
<g id="edge39_Node000001_Node000023" class="edge">
<title>Node1&#45;&gt;Node23</title>
<g id="a_edge39_Node000001_Node000023"><a xlink:title=" ">
<path fill="none" stroke="#63b8ff" d="M1215.25,-388.03C1135.18,-378.18 993.45,-360.75 909.58,-350.44"/>
<polygon fill="#63b8ff" stroke="#63b8ff" points="910.25,-346.99 899.89,-349.24 909.39,-353.94 910.25,-346.99"/>
</a>
</g>
</g>
<!-- Node26 -->
<g id="Node000026" class="node">
<title>Node26</title>
<g id="a_Node000026"><a xlink:title=" ">
<polygon fill="#e0e0e0" stroke="#999999" points="1194.88,-240.25 1139.12,-240.25 1139.12,-221 1194.88,-221 1194.88,-240.25"/>
<text text-anchor="middle" x="1167" y="-226.75" font-family="Helvetica,sans-Serif" font-size="10.00">algorithm</text>
</a>
</g>
</g>
<!-- Node1&#45;&gt;Node26 -->
<g id="edge71_Node000001_Node000026" class="edge">
<title>Node1&#45;&gt;Node26</title>
<g id="a_edge71_Node000001_Node000026"><a xlink:title=" ">
<path fill="none" stroke="#63b8ff" d="M1269.19,-386.57C1252.2,-360.8 1202.3,-285.15 1179.11,-249.99"/>
<polygon fill="#63b8ff" stroke="#63b8ff" points="1182.1,-248.16 1173.67,-241.74 1176.25,-252.01 1182.1,-248.16"/>
</a>
</g>
</g>
<!-- Node33 -->
<g id="Node000033" class="node">
<title>Node33</title>
<g id="a_Node000033"><a xlink:title=" ">
<polygon fill="#e0e0e0" stroke="#999999" points="1536.5,-350.75 1499.5,-350.75 1499.5,-331.5 1536.5,-331.5 1536.5,-350.75"/>
<text text-anchor="middle" x="1518" y="-337.25" font-family="Helvetica,sans-Serif" font-size="10.00">array</text>
</a>
</g>
</g>
<!-- Node1&#45;&gt;Node33 -->
<g id="edge72_Node000001_Node000033" class="edge">
<title>Node1&#45;&gt;Node33</title>
<g id="a_edge72_Node000001_Node000033"><a xlink:title=" ">
<path fill="none" stroke="#63b8ff" d="M1320.61,-386.32C1363.24,-377.7 1428.6,-364.11 1485,-350.75 1486.01,-350.51 1487.03,-350.26 1488.07,-350.01"/>
<polygon fill="#63b8ff" stroke="#63b8ff" points="1488.89,-353.42 1497.72,-347.57 1487.17,-346.63 1488.89,-353.42"/>
</a>
</g>
</g>
<!-- Node34 -->
<g id="Node000034" class="node">
<title>Node34</title>
<g id="a_Node000034"><a xlink:title=" ">
<polygon fill="#e0e0e0" stroke="#999999" points="1591.5,-350.75 1554.5,-350.75 1554.5,-331.5 1591.5,-331.5 1591.5,-350.75"/>
<text text-anchor="middle" x="1573" y="-337.25" font-family="Helvetica,sans-Serif" font-size="10.00">span</text>
</a>
</g>
</g>
<!-- Node1&#45;&gt;Node34 -->
<g id="edge75_Node000001_Node000034" class="edge">
<title>Node1&#45;&gt;Node34</title>
<g id="a_edge75_Node000001_Node000034"><a xlink:title=" ">
<path fill="none" stroke="#63b8ff" d="M1334.71,-388.09C1387.47,-381.09 1466.64,-369.18 1543.4,-351.1"/>
<polygon fill="#63b8ff" stroke="#63b8ff" points="1543.84,-354.6 1552.74,-348.86 1542.2,-347.79 1543.84,-354.6"/>
</a>
</g>
</g>
<!-- Node3 -->
<g id="Node000003" class="node">
<title>Node3</title>
<g id="a_Node000003"><a xlink:title=" ">
<polygon fill="#e0e0e0" stroke="#999999" points="600,-19.25 560,-19.25 560,0 600,0 600,-19.25"/>
<text text-anchor="middle" x="580" y="-5.75" font-family="Helvetica,sans-Serif" font-size="10.00">string</text>
</a>
</g>
</g>
<!-- Node2&#45;&gt;Node3 -->
<g id="edge2_Node000002_Node000003" class="edge">
<title>Node2&#45;&gt;Node3</title>
<g id="a_edge2_Node000002_Node000003"><a xlink:title=" ">
<path fill="none" stroke="#63b8ff" d="M580,-55.08C580,-48.57 580,-39.42 580,-31.12"/>
<polygon fill="#63b8ff" stroke="#63b8ff" points="583.5,-31.12 580,-21.12 576.5,-31.12 583.5,-31.12"/>
</a>
</g>
</g>
<!-- Node4 -->
<g id="Node000004" class="node">
<title>Node4</title>
<g id="a_Node000004"><a xlink:title=" ">
<polygon fill="#e0e0e0" stroke="#999999" points="744.75,-19.25 679.25,-19.25 679.25,0 744.75,0 744.75,-19.25"/>
<text text-anchor="middle" x="712" y="-5.75" font-family="Helvetica,sans-Serif" font-size="10.00">string_view</text>
</a>
</g>
</g>
<!-- Node2&#45;&gt;Node4 -->
<g id="edge3_Node000002_Node000004" class="edge">
<title>Node2&#45;&gt;Node4</title>
<g id="a_edge3_Node000002_Node000004"><a xlink:title=" ">
<path fill="none" stroke="#63b8ff" d="M602.39,-54.84C623.44,-46.35 655.2,-33.54 679.12,-23.89"/>
<polygon fill="#63b8ff" stroke="#63b8ff" points="680.13,-27.26 688.09,-20.27 677.51,-20.76 680.13,-27.26"/>
</a>
</g>
</g>
<!-- Node5&#45;&gt;Node2 -->
<g id="edge5_Node000005_Node000002" class="edge">
<title>Node5&#45;&gt;Node2</title>
<g id="a_edge5_Node000005_Node000002"><a xlink:title=" ">
<path fill="none" stroke="#63b8ff" d="M503.99,-220.77C495.19,-199.87 476.58,-146.54 498,-110.5 506.46,-96.26 521.24,-86.28 535.93,-79.42"/>
<polygon fill="#63b8ff" stroke="#63b8ff" points="537.27,-82.66 545.13,-75.56 534.56,-76.2 537.27,-82.66"/>
</a>
</g>
</g>
<!-- Node5&#45;&gt;Node3 -->
<g id="edge35_Node000005_Node000003" class="edge">
<title>Node5&#45;&gt;Node3</title>
<g id="a_edge35_Node000005_Node000003"><a xlink:title=" ">
<path fill="none" stroke="#63b8ff" d="M455.65,-230.05C391.23,-228.4 293.73,-217.61 323,-165.75 372.13,-78.71 491.89,-35.02 548.88,-18.58"/>
<polygon fill="#63b8ff" stroke="#63b8ff" points="549.56,-22.02 558.26,-15.97 547.69,-15.28 549.56,-22.02"/>
</a>
</g>
</g>
<!-- Node5&#45;&gt;Node4 -->
<g id="edge36_Node000005_Node000004" class="edge">
<title>Node5&#45;&gt;Node4</title>
<g id="a_edge36_Node000005_Node000004"><a xlink:title=" ">
<path fill="none" stroke="#63b8ff" d="M506.94,-220.57C504.92,-198.77 502.95,-142.77 531,-110.5 563.37,-73.27 593.06,-98.78 636,-74.5 658.61,-61.71 680.94,-41.84 695.48,-27.66"/>
<polygon fill="#63b8ff" stroke="#63b8ff" points="697.8,-30.3 702.39,-20.75 692.85,-25.35 697.8,-30.3"/>
</a>
</g>
</g>
<!-- Node6 -->
<g id="Node000006" class="node">
<title>Node6</title>
<g id="a_Node000006"><a xlink:href="../../d9/dc5/_string_8hpp.html" target="_top" xlink:title=" ">
<polygon fill="white" stroke="#666666" points="818.38,-185 717.62,-185 717.62,-165.75 818.38,-165.75 818.38,-185"/>
<text text-anchor="middle" x="768" y="-171.5" font-family="Helvetica,sans-Serif" font-size="10.00">mimic++/String.hpp</text>
</a>
</g>
</g>
<!-- Node5&#45;&gt;Node6 -->
<g id="edge6_Node000005_Node000006" class="edge">
<title>Node5&#45;&gt;Node6</title>
<g id="a_edge6_Node000005_Node000006"><a xlink:title=" ">
<path fill="none" stroke="#63b8ff" d="M552.4,-220.53C596.71,-211.46 664.9,-197.49 712.7,-187.7"/>
<polygon fill="#63b8ff" stroke="#63b8ff" points="713.21,-191.17 722.3,-185.73 711.8,-184.31 713.21,-191.17"/>
</a>
</g>
</g>
<!-- Node5&#45;&gt;Node7 -->
<g id="edge27_Node000005_Node000007" class="edge">
<title>Node5&#45;&gt;Node7</title>
<g id="a_edge27_Node000005_Node000007"><a xlink:title=" ">
<path fill="none" stroke="#63b8ff" d="M560.14,-224.94C575.25,-223.62 591.78,-222.21 607,-221 717.6,-212.18 999.53,-219.46 1105,-185 1136.6,-174.67 1168.32,-152.51 1187.81,-137.21"/>
<polygon fill="#63b8ff" stroke="#63b8ff" points="1189.82,-140.09 1195.4,-131.08 1185.42,-134.64 1189.82,-140.09"/>
</a>
</g>
</g>
<!-- Node9 -->
<g id="Node000009" class="node">
<title>Node9</title>
<g id="a_Node000009"><a xlink:title=" ">
<polygon fill="#e0e0e0" stroke="#999999" points="1327.12,-74.5 1242.88,-74.5 1242.88,-55.25 1327.12,-55.25 1327.12,-74.5"/>
<text text-anchor="middle" x="1285" y="-61" font-family="Helvetica,sans-Serif" font-size="10.00">source_location</text>
</a>
</g>
</g>
<!-- Node5&#45;&gt;Node9 -->
<g id="edge33_Node000005_Node000009" class="edge">
<title>Node5&#45;&gt;Node9</title>
<g id="a_edge33_Node000005_Node000009"><a xlink:title=" ">
<path fill="none" stroke="#63b8ff" d="M560.13,-224.89C575.25,-223.57 591.78,-222.18 607,-221 842.84,-202.73 908.1,-240.67 1138,-185 1198.22,-170.42 1224.85,-176.08 1266,-129.75 1276.71,-117.7 1281.39,-99.84 1283.43,-86.07"/>
<polygon fill="#63b8ff" stroke="#63b8ff" points="1286.88,-86.68 1284.49,-76.36 1279.92,-85.92 1286.88,-86.68"/>
</a>
</g>
</g>
<!-- Node10 -->
<g id="Node000010" class="node">
<title>Node10</title>
<g id="a_Node000010"><a xlink:title=" ">
<polygon fill="#e0e0e0" stroke="#999999" points="1148.25,-74.5 1109.75,-74.5 1109.75,-55.25 1148.25,-55.25 1148.25,-74.5"/>
<text text-anchor="middle" x="1129" y="-61" font-family="Helvetica,sans-Serif" font-size="10.00">utility</text>
</a>
</g>
</g>
<!-- Node5&#45;&gt;Node10 -->
<g id="edge37_Node000005_Node000010" class="edge">
<title>Node5&#45;&gt;Node10</title>
<g id="a_edge37_Node000005_Node000010"><a xlink:title=" ">
<path fill="none" stroke="#63b8ff" d="M560.14,-224.99C575.26,-223.67 591.78,-222.25 607,-221 658.65,-216.75 1029.26,-214.3 1072,-185 1089.53,-172.98 1111.56,-115.9 1122.38,-85.32"/>
<polygon fill="#63b8ff" stroke="#63b8ff" points="1125.6,-86.74 1125.57,-76.14 1118.98,-84.44 1125.6,-86.74"/>
</a>
</g>
</g>
<!-- Node5&#45;&gt;Node12 -->
<g id="edge29_Node000005_Node000012" class="edge">
<title>Node5&#45;&gt;Node12</title>
<g id="a_edge29_Node000005_Node000012"><a xlink:title=" ">
<path fill="none" stroke="#63b8ff" d="M456.03,-222.46C411.3,-215.47 345.42,-203.22 290,-185 249.48,-171.68 205.15,-149.73 177.95,-135.35"/>
<polygon fill="#63b8ff" stroke="#63b8ff" points="179.87,-132.41 169.4,-130.78 176.57,-138.58 179.87,-132.41"/>
</a>
</g>
</g>
<!-- Node13 -->
<g id="Node000013" class="node">
<title>Node13</title>
<g id="a_Node000013"><a xlink:title=" ">
<polygon fill="#e0e0e0" stroke="#999999" points="585.62,-129.75 540.38,-129.75 540.38,-110.5 585.62,-110.5 585.62,-129.75"/>
<text text-anchor="middle" x="563" y="-116.25" font-family="Helvetica,sans-Serif" font-size="10.00">ranges</text>
</a>
</g>
</g>
<!-- Node5&#45;&gt;Node13 -->
<g id="edge32_Node000005_Node000013" class="edge">
<title>Node5&#45;&gt;Node13</title>
<g id="a_edge32_Node000005_Node000013"><a xlink:title=" ">
<path fill="none" stroke="#63b8ff" d="M512.5,-220.75C521.36,-203.26 541.26,-164.02 553.26,-140.34"/>
<polygon fill="#63b8ff" stroke="#63b8ff" points="556.35,-141.98 557.75,-131.48 550.11,-138.81 556.35,-141.98"/>
</a>
</g>
</g>
<!-- Node15 -->
<g id="Node000015" class="node">
<title>Node15</title>
<g id="a_Node000015"><a xlink:href="../../d8/d32/_type_traits_8hpp.html" target="_top" xlink:title=" ">
<polygon fill="white" stroke="#666666" points="1062.5,-185 941.5,-185 941.5,-165.75 1062.5,-165.75 1062.5,-185"/>
<text text-anchor="middle" x="1002" y="-171.5" font-family="Helvetica,sans-Serif" font-size="10.00">mimic++/TypeTraits.hpp</text>
</a>
</g>
</g>
<!-- Node5&#45;&gt;Node15 -->
<g id="edge20_Node000005_Node000015" class="edge">
<title>Node5&#45;&gt;Node15</title>
<g id="a_edge20_Node000005_Node000015"><a xlink:title=" ">
<path fill="none" stroke="#63b8ff" d="M560.05,-224.49C638.09,-216.73 790.37,-201.29 929.76,-185.35"/>
<polygon fill="#63b8ff" stroke="#63b8ff" points="930.02,-188.85 939.55,-184.23 929.22,-181.89 930.02,-188.85"/>
</a>
</g>
</g>
<!-- Node17 -->
<g id="Node000017" class="node">
<title>Node17</title>
<g id="a_Node000017"><a xlink:title=" ">
<polygon fill="#e0e0e0" stroke="#999999" points="957.62,-129.75 912.38,-129.75 912.38,-110.5 957.62,-110.5 957.62,-129.75"/>
<text text-anchor="middle" x="935" y="-116.25" font-family="Helvetica,sans-Serif" font-size="10.00">cstdint</text>
</a>
</g>
</g>
<!-- Node5&#45;&gt;Node17 -->
<g id="edge28_Node000005_Node000017" class="edge">
<title>Node5&#45;&gt;Node17</title>
<g id="a_edge28_Node000005_Node000017"><a xlink:title=" ">
<path fill="none" stroke="#63b8ff" d="M560.19,-224.84C637.61,-217.31 778.9,-201.83 827,-185 844.34,-178.94 885.69,-153.15 911.9,-136.25"/>
<polygon fill="#63b8ff" stroke="#63b8ff" points="913.69,-139.26 920.18,-130.88 909.88,-133.39 913.69,-139.26"/>
</a>
</g>
</g>
<!-- Node19 -->
<g id="Node000019" class="node">
<title>Node19</title>
<g id="a_Node000019"><a xlink:title=" ">
<polygon fill="#e0e0e0" stroke="#999999" points="662,-185 616,-185 616,-165.75 662,-165.75 662,-185"/>
<text text-anchor="middle" x="639" y="-171.5" font-family="Helvetica,sans-Serif" font-size="10.00">iterator</text>
</a>
</g>
</g>
<!-- Node5&#45;&gt;Node19 -->
<g id="edge30_Node000005_Node000019" class="edge">
<title>Node5&#45;&gt;Node19</title>
<g id="a_edge30_Node000005_Node000019"><a xlink:title=" ">
<path fill="none" stroke="#63b8ff" d="M530.22,-220.59C551.02,-212.14 582.35,-199.4 606.05,-189.77"/>
<polygon fill="#63b8ff" stroke="#63b8ff" points="607.32,-193.03 615.27,-186.02 604.68,-186.55 607.32,-193.03"/>
</a>
</g>
</g>
<!-- Node20 -->
<g id="Node000020" class="node">
<title>Node20</title>
<g id="a_Node000020"><a xlink:title=" ">
<polygon fill="#e0e0e0" stroke="#999999" points="923.88,-185 874.12,-185 874.12,-165.75 923.88,-165.75 923.88,-185"/>
<text text-anchor="middle" x="899" y="-171.5" font-family="Helvetica,sans-Serif" font-size="10.00">optional</text>
</a>
</g>
</g>
<!-- Node5&#45;&gt;Node20 -->
<g id="edge31_Node000005_Node000020" class="edge">
<title>Node5&#45;&gt;Node20</title>
<g id="a_edge31_Node000005_Node000020"><a xlink:title=" ">
<path fill="none" stroke="#63b8ff" d="M560.11,-224.53C629.01,-217.44 754.09,-203.38 860,-185 860.99,-184.83 861.99,-184.65 862.99,-184.46"/>
<polygon fill="#63b8ff" stroke="#63b8ff" points="863.29,-187.97 872.41,-182.58 861.92,-181.11 863.29,-187.97"/>
</a>
</g>
</g>
<!-- Node21 -->
<g id="Node000021" class="node">
<title>Node21</title>
<g id="a_Node000021"><a xlink:title=" ">
<polygon fill="#e0e0e0" stroke="#999999" points="383.62,-185 332.38,-185 332.38,-165.75 383.62,-165.75 383.62,-185"/>
<text text-anchor="middle" x="358" y="-171.5" font-family="Helvetica,sans-Serif" font-size="10.00">sstream</text>
</a>
</g>
</g>
<!-- Node5&#45;&gt;Node21 -->
<g id="edge34_Node000005_Node000021" class="edge">
<title>Node5&#45;&gt;Node21</title>
<g id="a_edge34_Node000005_Node000021"><a xlink:title=" ">
<path fill="none" stroke="#63b8ff" d="M482.55,-220.59C458.31,-211.99 421.57,-198.94 394.26,-189.25"/>
<polygon fill="#63b8ff" stroke="#63b8ff" points="395.59,-186.01 385,-185.96 393.25,-192.6 395.59,-186.01"/>
</a>
</g>
</g>
<!-- Node22 -->
<g id="Node000022" class="node">
<title>Node22</title>
<g id="a_Node000022"><a xlink:title=" ">
<polygon fill="#e0e0e0" stroke="#999999" points="445.88,-185 402.12,-185 402.12,-165.75 445.88,-165.75 445.88,-185"/>
<text text-anchor="middle" x="424" y="-171.5" font-family="Helvetica,sans-Serif" font-size="10.00">format</text>
</a>
</g>
</g>
<!-- Node5&#45;&gt;Node22 -->
<g id="edge38_Node000005_Node000022" class="edge">
<title>Node5&#45;&gt;Node22</title>
<g id="a_edge38_Node000005_Node000022"><a xlink:title=" ">
<path fill="none" stroke="#63b8ff" d="M493.75,-220.59C481.2,-212.64 462.67,-200.89 447.86,-191.5"/>
<polygon fill="#63b8ff" stroke="#63b8ff" points="449.92,-188.66 439.6,-186.26 446.17,-194.57 449.92,-188.66"/>
</a>
</g>
</g>
<!-- Node6&#45;&gt;Node2 -->
<g id="edge7_Node000006_Node000002" class="edge">
<title>Node6&#45;&gt;Node2</title>
<g id="a_edge7_Node000006_Node000002"><a xlink:title=" ">
<path fill="none" stroke="#63b8ff" d="M747.99,-165.28C729.52,-156.69 701.47,-143.16 678,-129.75 651.12,-114.4 621.51,-94.68 601.94,-81.24"/>
<polygon fill="#63b8ff" stroke="#63b8ff" points="604.16,-78.52 593.94,-75.7 600.17,-84.27 604.16,-78.52"/>
</a>
</g>
</g>
<!-- Node6&#45;&gt;Node3 -->
<g id="edge17_Node000006_Node000003" class="edge">
<title>Node6&#45;&gt;Node3</title>
<g id="a_edge17_Node000006_Node000003"><a xlink:title=" ">
<path fill="none" stroke="#63b8ff" d="M758.57,-165.5C737.16,-145.43 683.08,-95.19 636,-55.25 624.53,-45.52 611.4,-35.02 600.73,-26.65"/>
<polygon fill="#63b8ff" stroke="#63b8ff" points="602.98,-23.97 592.94,-20.58 598.68,-29.49 602.98,-23.97"/>
</a>
</g>
</g>
<!-- Node6&#45;&gt;Node4 -->
<g id="edge18_Node000006_Node000004" class="edge">
<title>Node6&#45;&gt;Node4</title>
<g id="a_edge18_Node000006_Node000004"><a xlink:title=" ">
<path fill="none" stroke="#63b8ff" d="M764.49,-165.53C760.96,-156.56 755.43,-142.25 751,-129.75 738.7,-94.99 725.59,-54.05 718.14,-30.34"/>
<polygon fill="#63b8ff" stroke="#63b8ff" points="721.57,-29.58 715.24,-21.09 714.89,-31.67 721.57,-29.58"/>
</a>
</g>
</g>
<!-- Node6&#45;&gt;Node7 -->
<g id="edge8_Node000006_Node000007" class="edge">
<title>Node6&#45;&gt;Node7</title>
<g id="a_edge8_Node000006_Node000007"><a xlink:title=" ">
<path fill="none" stroke="#63b8ff" d="M818.79,-168.21C899.79,-158.39 1057.98,-139.2 1145.34,-128.6"/>
<polygon fill="#63b8ff" stroke="#63b8ff" points="1145.66,-132.09 1155.17,-127.41 1144.82,-125.14 1145.66,-132.09"/>
</a>
</g>
</g>
<!-- Node11 -->
<g id="Node000011" class="node">
<title>Node11</title>
<g id="a_Node000011"><a xlink:title=" ">
<polygon fill="#e0e0e0" stroke="#999999" points="893.88,-129.75 838.12,-129.75 838.12,-110.5 893.88,-110.5 893.88,-129.75"/>
<text text-anchor="middle" x="866" y="-116.25" font-family="Helvetica,sans-Serif" font-size="10.00">concepts</text>
</a>
</g>
</g>
<!-- Node6&#45;&gt;Node11 -->
<g id="edge14_Node000006_Node000011" class="edge">
<title>Node6&#45;&gt;Node11</title>
<g id="a_edge14_Node000006_Node000011"><a xlink:title=" ">
<path fill="none" stroke="#63b8ff" d="M784.62,-165.34C799.69,-157.16 822.14,-144.96 839.65,-135.44"/>
<polygon fill="#63b8ff" stroke="#63b8ff" points="840.85,-138.77 847.96,-130.93 837.51,-132.62 840.85,-138.77"/>
</a>
</g>
</g>
<!-- Node6&#45;&gt;Node12 -->
<g id="edge15_Node000006_Node000012" class="edge">
<title>Node6&#45;&gt;Node12</title>
<g id="a_edge15_Node000006_Node000012"><a xlink:title=" ">
<path fill="none" stroke="#63b8ff" d="M717.16,-169.83C702.28,-168.5 685.99,-167.06 671,-165.75 492.7,-150.16 279.91,-132 192.51,-124.57"/>
<polygon fill="#63b8ff" stroke="#63b8ff" points="193.04,-121.1 182.77,-123.74 192.44,-128.07 193.04,-121.1"/>
</a>
</g>
</g>
<!-- Node6&#45;&gt;Node13 -->
<g id="edge16_Node000006_Node000013" class="edge">
<title>Node6&#45;&gt;Node13</title>
<g id="a_edge16_Node000006_Node000013"><a xlink:title=" ">
<path fill="none" stroke="#63b8ff" d="M733.22,-165.34C695.13,-155.45 634.44,-139.68 596.75,-129.89"/>
<polygon fill="#63b8ff" stroke="#63b8ff" points="597.87,-126.57 587.31,-127.44 596.11,-133.34 597.87,-126.57"/>
</a>
</g>
</g>
<!-- Node14 -->
<g id="Node000014" class="node">
<title>Node14</title>
<g id="a_Node000014"><a xlink:title=" ">
<polygon fill="#e0e0e0" stroke="#999999" points="820.5,-129.75 759.5,-129.75 759.5,-110.5 820.5,-110.5 820.5,-129.75"/>
<text text-anchor="middle" x="790" y="-116.25" font-family="Helvetica,sans-Serif" font-size="10.00">type_traits</text>
</a>
</g>
</g>
<!-- Node6&#45;&gt;Node14 -->
<g id="edge19_Node000006_Node000014" class="edge">
<title>Node6&#45;&gt;Node14</title>
<g id="a_edge19_Node000006_Node000014"><a xlink:title=" ">
<path fill="none" stroke="#63b8ff" d="M771.63,-165.58C774.42,-158.84 778.37,-149.27 781.9,-140.74"/>
<polygon fill="#63b8ff" stroke="#63b8ff" points="785.13,-142.09 785.71,-131.51 778.66,-139.41 785.13,-142.09"/>
</a>
</g>
</g>
<!-- Node7&#45;&gt;Node2 -->
<g id="edge9_Node000007_Node000002" class="edge">
<title>Node7&#45;&gt;Node2</title>
<g id="a_edge9_Node000007_Node000002"><a xlink:title=" ">
<path fill="none" stroke="#63b8ff" d="M1156.75,-114.86C1042.03,-105.11 761.35,-81.28 638.82,-70.87"/>
<polygon fill="#63b8ff" stroke="#63b8ff" points="639.24,-67.39 628.98,-70.03 638.65,-74.37 639.24,-67.39"/>
</a>
</g>
</g>
<!-- Node7&#45;&gt;Node4 -->
<g id="edge12_Node000007_Node000004" class="edge">
<title>Node7&#45;&gt;Node4</title>
<g id="a_edge12_Node000007_Node000004"><a xlink:title=" ">
<path fill="none" stroke="#63b8ff" d="M1202.98,-110.24C1195.94,-95.88 1179.95,-67.88 1157,-55.25 1088.86,-17.73 854.81,-11.61 756.28,-10.72"/>
<polygon fill="#63b8ff" stroke="#63b8ff" points="756.49,-7.22 746.47,-10.64 756.44,-14.22 756.49,-7.22"/>
</a>
</g>
</g>
<!-- Node7&#45;&gt;Node8 -->
<g id="edge10_Node000007_Node000008" class="edge">
<title>Node7&#45;&gt;Node8</title>
<g id="a_edge10_Node000007_Node000008"><a xlink:title=" ">
<path fill="none" stroke="#63b8ff" d="M1245.59,-110.03C1288.14,-100.01 1356.02,-84.01 1397.35,-74.27"/>
<polygon fill="#63b8ff" stroke="#63b8ff" points="1398.11,-77.69 1407.04,-71.99 1396.51,-70.88 1398.11,-77.69"/>
</a>
</g>
</g>
<!-- Node7&#45;&gt;Node9 -->
<g id="edge11_Node000007_Node000009" class="edge">
<title>Node7&#45;&gt;Node9</title>
<g id="a_edge11_Node000007_Node000009"><a xlink:title=" ">
<path fill="none" stroke="#63b8ff" d="M1220.23,-110.09C1231.77,-102.21 1248.77,-90.61 1262.45,-81.27"/>
<polygon fill="#63b8ff" stroke="#63b8ff" points="1264.17,-84.33 1270.45,-75.81 1260.22,-78.55 1264.17,-84.33"/>
</a>
</g>
</g>
<!-- Node7&#45;&gt;Node10 -->
<g id="edge13_Node000007_Node000010" class="edge">
<title>Node7&#45;&gt;Node10</title>
<g id="a_edge13_Node000007_Node000010"><a xlink:title=" ">
<path fill="none" stroke="#63b8ff" d="M1193.77,-110.09C1182.23,-102.21 1165.23,-90.61 1151.55,-81.27"/>
<polygon fill="#63b8ff" stroke="#63b8ff" points="1153.78,-78.55 1143.55,-75.81 1149.83,-84.33 1153.78,-78.55"/>
</a>
</g>
</g>
<!-- Node15&#45;&gt;Node2 -->
<g id="edge21_Node000015_Node000002" class="edge">
<title>Node15&#45;&gt;Node2</title>
<g id="a_edge21_Node000015_Node000002"><a xlink:title=" ">
<path fill="none" stroke="#63b8ff" d="M999.96,-165.6C996.15,-151.4 986.52,-123.63 967,-110.5 914.68,-75.3 733.25,-67.7 638.55,-66.17"/>
<polygon fill="#63b8ff" stroke="#63b8ff" points="638.74,-62.68 628.69,-66.03 638.64,-69.68 638.74,-62.68"/>
</a>
</g>
</g>
<!-- Node15&#45;&gt;Node11 -->
<g id="edge22_Node000015_Node000011" class="edge">
<title>Node15&#45;&gt;Node11</title>
<g id="a_edge22_Node000015_Node000011"><a xlink:title=" ">
<path fill="none" stroke="#63b8ff" d="M978.93,-165.34C957.24,-156.85 924.52,-144.04 899.87,-134.39"/>
<polygon fill="#63b8ff" stroke="#63b8ff" points="901.18,-131.14 890.59,-130.75 898.63,-137.66 901.18,-131.14"/>
</a>
</g>
</g>
<!-- Node15&#45;&gt;Node14 -->
<g id="edge26_Node000015_Node000014" class="edge">
<title>Node15&#45;&gt;Node14</title>
<g id="a_edge26_Node000015_Node000014"><a xlink:title=" ">
<path fill="none" stroke="#63b8ff" d="M966.04,-165.34C928.94,-156.02 871.14,-141.5 831.97,-131.67"/>
<polygon fill="#63b8ff" stroke="#63b8ff" points="832.98,-128.31 822.43,-129.27 831.27,-135.1 832.98,-128.31"/>
</a>
</g>
</g>
<!-- Node16 -->
<g id="Node000016" class="node">
<title>Node16</title>
<g id="a_Node000016"><a xlink:title=" ">
<polygon fill="#e0e0e0" stroke="#999999" points="1062.12,-129.75 1013.88,-129.75 1013.88,-110.5 1062.12,-110.5 1062.12,-129.75"/>
<text text-anchor="middle" x="1038" y="-116.25" font-family="Helvetica,sans-Serif" font-size="10.00">cstddef</text>
</a>
</g>
</g>
<!-- Node15&#45;&gt;Node16 -->
<g id="edge23_Node000015_Node000016" class="edge">
<title>Node15&#45;&gt;Node16</title>
<g id="a_edge23_Node000015_Node000016"><a xlink:title=" ">
<path fill="none" stroke="#63b8ff" d="M1007.94,-165.58C1012.71,-158.53 1019.56,-148.4 1025.52,-139.58"/>
<polygon fill="#63b8ff" stroke="#63b8ff" points="1028.38,-141.61 1031.08,-131.36 1022.58,-137.69 1028.38,-141.61"/>
</a>
</g>
</g>
<!-- Node15&#45;&gt;Node17 -->
<g id="edge24_Node000015_Node000017" class="edge">
<title>Node15&#45;&gt;Node17</title>
<g id="a_edge24_Node000015_Node000017"><a xlink:title=" ">
<path fill="none" stroke="#63b8ff" d="M990.63,-165.34C980.95,-157.65 966.8,-146.4 955.19,-137.18"/>
<polygon fill="#63b8ff" stroke="#63b8ff" points="957.39,-134.45 947.38,-130.97 953.03,-139.93 957.39,-134.45"/>
</a>
</g>
</g>
<!-- Node15&#45;&gt;Node18 -->
<g id="edge25_Node000015_Node000018" class="edge">
<title>Node15&#45;&gt;Node18</title>
<g id="a_edge25_Node000015_Node000018"><a xlink:title=" ">
<path fill="none" stroke="#63b8ff" d="M1058.35,-165.28C1128.84,-153.91 1246.95,-134.85 1302.03,-125.96"/>
<polygon fill="#63b8ff" stroke="#63b8ff" points="1302.28,-129.47 1311.59,-124.42 1301.16,-122.56 1302.28,-129.47"/>
</a>
</g>
</g>
<!-- Node23&#45;&gt;Node2 -->
<g id="edge47_Node000023_Node000002" class="edge">
<title>Node23&#45;&gt;Node2</title>
<g id="a_edge47_Node000023_Node000002"><a xlink:title=" ">
<path fill="none" stroke="#63b8ff" d="M785.54,-338.56C661.54,-334.64 368.96,-322.75 274,-295.5 175.58,-267.26 137.07,-229.51 114,-129.75 112.07,-121.41 108.25,-116.83 114,-110.5 140.91,-80.89 402.21,-70.43 521.34,-67.18"/>
<polygon fill="#63b8ff" stroke="#63b8ff" points="521.33,-70.68 531.24,-66.91 521.15,-63.68 521.33,-70.68"/>
</a>
</g>
</g>
<!-- Node23&#45;&gt;Node5 -->
<g id="edge48_Node000023_Node000005" class="edge">
<title>Node23&#45;&gt;Node5</title>
<g id="a_edge48_Node000023_Node000005"><a xlink:title=" ">
<path fill="none" stroke="#63b8ff" d="M785.83,-336.25C735.98,-331.29 661.97,-320.17 602,-295.5 573.41,-283.74 544.6,-262.44 526.56,-247.69"/>
<polygon fill="#63b8ff" stroke="#63b8ff" points="529.23,-245.37 519.32,-241.63 524.74,-250.74 529.23,-245.37"/>
</a>
</g>
</g>
<!-- Node23&#45;&gt;Node8 -->
<g id="edge62_Node000023_Node000008" class="edge">
<title>Node23&#45;&gt;Node8</title>
<g id="a_edge62_Node000023_Node000008"><a xlink:title=" ">
<path fill="none" stroke="#63b8ff" d="M898.15,-332.95C946.09,-325.98 1016.5,-313.77 1076,-295.5 1181.36,-263.14 1205.44,-244.83 1298,-185 1333.68,-161.94 1344.32,-158.06 1376,-129.75 1392.05,-115.41 1408.19,-96.85 1419.17,-83.43"/>
<polygon fill="#63b8ff" stroke="#63b8ff" points="1421.7,-85.87 1425.24,-75.89 1416.24,-81.49 1421.7,-85.87"/>
</a>
</g>
</g>
<!-- Node23&#45;&gt;Node12 -->
<g id="edge64_Node000023_Node000012" class="edge">
<title>Node23&#45;&gt;Node12</title>
<g id="a_edge64_Node000023_Node000012"><a xlink:title=" ">
<path fill="none" stroke="#63b8ff" d="M785.55,-338.15C644.89,-332.21 283.29,-310.33 189,-240.25 158.09,-217.28 152.27,-168.74 151.6,-141.23"/>
<polygon fill="#63b8ff" stroke="#63b8ff" points="155.1,-141.45 151.59,-131.45 148.1,-141.45 155.1,-141.45"/>
</a>
</g>
</g>
<!-- Node23&#45;&gt;Node13 -->
<g id="edge68_Node000023_Node000013" class="edge">
<title>Node23&#45;&gt;Node13</title>
<g id="a_edge68_Node000023_Node000013"><a xlink:title=" ">
<path fill="none" stroke="#63b8ff" d="M785.73,-335.74C728.45,-330.21 637.58,-318.51 562,-295.5 450.05,-261.41 386.04,-283.6 323,-185 318.39,-177.79 317.53,-172.33 323,-165.75 348.78,-134.74 468.87,-125.17 528.8,-122.31"/>
<polygon fill="#63b8ff" stroke="#63b8ff" points="528.59,-125.82 538.42,-121.88 528.28,-118.83 528.59,-125.82"/>
</a>
</g>
</g>
<!-- Node23&#45;&gt;Node20 -->
<g id="edge67_Node000023_Node000020" class="edge">
<title>Node23&#45;&gt;Node20</title>
<g id="a_edge67_Node000023_Node000020"><a xlink:title=" ">
<path fill="none" stroke="#63b8ff" d="M898.26,-337.48C928.28,-332.84 962.88,-321.66 982,-295.5 1008.82,-258.8 956.66,-214.69 923.49,-191.82"/>
<polygon fill="#63b8ff" stroke="#63b8ff" points="925.44,-188.91 915.17,-186.28 921.55,-194.74 925.44,-188.91"/>
</a>
</g>
</g>
<!-- Node24 -->
<g id="Node000024" class="node">
<title>Node24</title>
<g id="a_Node000024"><a xlink:href="../../dc/d44/_call_8hpp.html" target="_top" xlink:title=" ">
<polygon fill="white" stroke="#666666" points="1120.88,-240.25 1029.12,-240.25 1029.12,-221 1120.88,-221 1120.88,-240.25"/>
<text text-anchor="middle" x="1075" y="-226.75" font-family="Helvetica,sans-Serif" font-size="10.00">mimic++/Call.hpp</text>
</a>
</g>
</g>
<!-- Node23&#45;&gt;Node24 -->
<g id="edge40_Node000023_Node000024" class="edge">
<title>Node23&#45;&gt;Node24</title>
<g id="a_edge40_Node000023_Node000024"><a xlink:title=" ">
<path fill="none" stroke="#63b8ff" d="M898.45,-333.74C933.85,-327.83 979.37,-316.6 1015,-295.5 1034.57,-283.91 1051.75,-264.07 1062.65,-249.57"/>
<polygon fill="#63b8ff" stroke="#63b8ff" points="1065.26,-251.94 1068.26,-241.78 1059.58,-247.85 1065.26,-251.94"/>
</a>
</g>
</g>
<!-- Node25 -->
<g id="Node000025" class="node">
<title>Node25</title>
<g id="a_Node000025"><a xlink:href="../../d0/d3b/_reports_8hpp.html" target="_top" xlink:title=" ">
<polygon fill="white" stroke="#666666" points="719.5,-295.5 610.5,-295.5 610.5,-276.25 719.5,-276.25 719.5,-295.5"/>
<text text-anchor="middle" x="665" y="-282" font-family="Helvetica,sans-Serif" font-size="10.00">mimic++/Reports.hpp</text>
</a>
</g>
</g>
<!-- Node23&#45;&gt;Node25 -->
<g id="edge49_Node000023_Node000025" class="edge">
<title>Node23&#45;&gt;Node25</title>
<g id="a_edge49_Node000023_Node000025"><a xlink:title=" ">
<path fill="none" stroke="#63b8ff" d="M811.97,-331.09C782.86,-322.33 738.46,-308.98 706.08,-299.23"/>
<polygon fill="#63b8ff" stroke="#63b8ff" points="707.21,-295.92 696.62,-296.39 705.19,-302.62 707.21,-295.92"/>
</a>
</g>
</g>
<!-- Node23&#45;&gt;Node26 -->
<g id="edge61_Node000023_Node000026" class="edge">
<title>Node23&#45;&gt;Node26</title>
<g id="a_edge61_Node000023_Node000026"><a xlink:title=" ">
<path fill="none" stroke="#63b8ff" d="M898.38,-331.34C938.81,-324.12 994.18,-312.32 1041,-295.5 1077.96,-282.22 1117.98,-260.56 1142.77,-246.2"/>
<polygon fill="#63b8ff" stroke="#63b8ff" points="1144.25,-249.39 1151.11,-241.31 1140.71,-243.36 1144.25,-249.39"/>
</a>
</g>
</g>
<!-- Node29 -->
<g id="Node000029" class="node">
<title>Node29</title>
<g id="a_Node000029"><a xlink:title=" ">
<polygon fill="#e0e0e0" stroke="#999999" points="873.5,-240.25 830.5,-240.25 830.5,-221 873.5,-221 873.5,-240.25"/>
<text text-anchor="middle" x="852" y="-226.75" font-family="Helvetica,sans-Serif" font-size="10.00">vector</text>
</a>
</g>
</g>
<!-- Node23&#45;&gt;Node29 -->
<g id="edge69_Node000023_Node000029" class="edge">
<title>Node23&#45;&gt;Node29</title>
<g id="a_edge69_Node000023_Node000029"><a xlink:title=" ">
<path fill="none" stroke="#63b8ff" d="M815.26,-331C788.21,-320.19 752.31,-300.55 767,-276.25 778.33,-257.5 800.44,-246.24 819.27,-239.72"/>
<polygon fill="#63b8ff" stroke="#63b8ff" points="820.2,-243.09 828.71,-236.78 818.12,-236.41 820.2,-243.09"/>
</a>
</g>
</g>
<!-- Node30 -->
<g id="Node000030" class="node">
<title>Node30</title>
<g id="a_Node000030"><a xlink:title=" ">
<polygon fill="#e0e0e0" stroke="#999999" points="833.62,-295.5 776.38,-295.5 776.38,-276.25 833.62,-276.25 833.62,-295.5"/>
<text text-anchor="middle" x="805" y="-282" font-family="Helvetica,sans-Serif" font-size="10.00">exception</text>
</a>
</g>
</g>
<!-- Node23&#45;&gt;Node30 -->
<g id="edge63_Node000023_Node000030" class="edge">
<title>Node23&#45;&gt;Node30</title>
<g id="a_edge63_Node000023_Node000030"><a xlink:title=" ">
<path fill="none" stroke="#63b8ff" d="M835.89,-331.33C830.94,-324.21 823.8,-313.93 817.63,-305.05"/>
<polygon fill="#63b8ff" stroke="#63b8ff" points="820.69,-303.32 812.11,-297.1 814.94,-307.31 820.69,-303.32"/>
</a>
</g>
</g>
<!-- Node31 -->
<g id="Node000031" class="node">
<title>Node31</title>
<g id="a_Node000031"><a xlink:title=" ">
<polygon fill="#e0e0e0" stroke="#999999" points="904.75,-295.5 851.25,-295.5 851.25,-276.25 904.75,-276.25 904.75,-295.5"/>
<text text-anchor="middle" x="878" y="-282" font-family="Helvetica,sans-Serif" font-size="10.00">iostream</text>
</a>
</g>
</g>
<!-- Node23&#45;&gt;Node31 -->
<g id="edge65_Node000023_Node000031" class="edge">
<title>Node23&#45;&gt;Node31</title>
<g id="a_edge65_Node000023_Node000031"><a xlink:title=" ">
<path fill="none" stroke="#63b8ff" d="M847.94,-331.33C852.71,-324.28 859.56,-314.15 865.52,-305.33"/>
<polygon fill="#63b8ff" stroke="#63b8ff" points="868.38,-307.36 871.08,-297.11 862.58,-303.44 868.38,-307.36"/>
</a>
</g>
</g>
<!-- Node32 -->
<g id="Node000032" class="node">
<title>Node32</title>
<g id="a_Node000032"><a xlink:title=" ">
<polygon fill="#e0e0e0" stroke="#999999" points="973.25,-295.5 922.75,-295.5 922.75,-276.25 973.25,-276.25 973.25,-295.5"/>
<text text-anchor="middle" x="948" y="-282" font-family="Helvetica,sans-Serif" font-size="10.00">memory</text>
</a>
</g>
</g>
<!-- Node23&#45;&gt;Node32 -->
<g id="edge66_Node000023_Node000032" class="edge">
<title>Node23&#45;&gt;Node32</title>
<g id="a_edge66_Node000023_Node000032"><a xlink:title=" ">
<path fill="none" stroke="#63b8ff" d="M859.98,-331.09C876.35,-322.87 900.79,-310.59 919.76,-301.06"/>
<polygon fill="#63b8ff" stroke="#63b8ff" points="921.21,-304.25 928.58,-296.63 918.07,-297.99 921.21,-304.25"/>
</a>
</g>
</g>
<!-- Node24&#45;&gt;Node2 -->
<g id="edge41_Node000024_Node000002" class="edge">
<title>Node24&#45;&gt;Node2</title>
<g id="a_edge41_Node000024_Node000002"><a xlink:title=" ">
<path fill="none" stroke="#63b8ff" d="M1028.7,-227.29C943.48,-222.46 765.36,-209.69 709,-185 657.77,-162.56 613.71,-111.1 592.86,-83.74"/>
<polygon fill="#63b8ff" stroke="#63b8ff" points="595.93,-82.01 587.16,-76.06 590.31,-86.18 595.93,-82.01"/>
</a>
</g>
</g>
<!-- Node24&#45;&gt;Node7 -->
<g id="edge43_Node000024_Node000007" class="edge">
<title>Node24&#45;&gt;Node7</title>
<g id="a_edge43_Node000024_Node000007"><a xlink:title=" ">
<path fill="none" stroke="#63b8ff" d="M1115.82,-220.55C1137.57,-213.9 1163.39,-202.82 1181,-185 1192.85,-173.01 1199.53,-154.89 1203.14,-141.01"/>
<polygon fill="#63b8ff" stroke="#63b8ff" points="1206.47,-142.17 1205.25,-131.64 1199.64,-140.63 1206.47,-142.17"/>
</a>
</g>
</g>
<!-- Node24&#45;&gt;Node9 -->
<g id="edge44_Node000024_Node000009" class="edge">
<title>Node24&#45;&gt;Node9</title>
<g id="a_edge44_Node000024_Node000009"><a xlink:title=" ">
<path fill="none" stroke="#63b8ff" d="M1121.01,-220.53C1194.63,-204.91 1333.35,-170.66 1360,-129.75 1373.64,-108.81 1347.27,-90.96 1322.13,-79.5"/>
<polygon fill="#63b8ff" stroke="#63b8ff" points="1323.51,-76.29 1312.94,-75.58 1320.76,-82.72 1323.51,-76.29"/>
</a>
</g>
</g>
<!-- Node24&#45;&gt;Node10 -->
<g id="edge46_Node000024_Node000010" class="edge">
<title>Node24&#45;&gt;Node10</title>
<g id="a_edge46_Node000024_Node000010"><a xlink:title=" ">
<path fill="none" stroke="#63b8ff" d="M1082.59,-220.67C1089.48,-212.07 1099.39,-198.44 1105,-185 1118.77,-151.99 1124.83,-110.46 1127.35,-86.17"/>
<polygon fill="#63b8ff" stroke="#63b8ff" points="1130.82,-86.68 1128.25,-76.4 1123.85,-86.04 1130.82,-86.68"/>
</a>
</g>
</g>
<!-- Node24&#45;&gt;Node15 -->
<g id="edge42_Node000024_Node000015" class="edge">
<title>Node24&#45;&gt;Node15</title>
<g id="a_edge42_Node000024_Node000015"><a xlink:title=" ">
<path fill="none" stroke="#63b8ff" d="M1062.62,-220.59C1051.85,-212.74 1036.03,-201.2 1023.25,-191.87"/>
<polygon fill="#63b8ff" stroke="#63b8ff" points="1025.56,-189.23 1015.42,-186.17 1021.44,-194.89 1025.56,-189.23"/>
</a>
</g>
</g>
<!-- Node24&#45;&gt;Node18 -->
<g id="edge45_Node000024_Node000018" class="edge">
<title>Node24&#45;&gt;Node18</title>
<g id="a_edge45_Node000024_Node000018"><a xlink:title=" ">
<path fill="none" stroke="#63b8ff" d="M1103.62,-220.52C1129.39,-212.07 1168.15,-198.77 1201,-185 1237.71,-169.61 1278.78,-149.01 1304.98,-135.42"/>
<polygon fill="#63b8ff" stroke="#63b8ff" points="1306.33,-138.66 1313.57,-130.93 1303.09,-132.46 1306.33,-138.66"/>
</a>
</g>
</g>
<!-- Node25&#45;&gt;Node2 -->
<g id="edge51_Node000025_Node000002" class="edge">
<title>Node25&#45;&gt;Node2</title>
<g id="a_edge51_Node000025_Node000002"><a xlink:title=" ">
<path fill="none" stroke="#63b8ff" d="M610.01,-277.49C521.56,-264.28 354.41,-233.38 323,-185 273.24,-108.36 431.1,-80.22 521.4,-70.55"/>
<polygon fill="#63b8ff" stroke="#63b8ff" points="521.5,-74.05 531.09,-69.56 520.79,-67.09 521.5,-74.05"/>
</a>
</g>
</g>
<!-- Node25&#45;&gt;Node5 -->
<g id="edge52_Node000025_Node000005" class="edge">
<title>Node25&#45;&gt;Node5</title>
<g id="a_edge52_Node000025_Node000005"><a xlink:title=" ">
<path fill="none" stroke="#63b8ff" d="M638.37,-275.84C612.88,-267.2 574.19,-254.07 545.57,-244.37"/>
<polygon fill="#63b8ff" stroke="#63b8ff" points="546.79,-241.09 536.2,-241.19 544.54,-247.72 546.79,-241.09"/>
</a>
</g>
</g>
<!-- Node25&#45;&gt;Node12 -->
<g id="edge54_Node000025_Node000012" class="edge">
<title>Node25&#45;&gt;Node12</title>
<g id="a_edge54_Node000025_Node000012"><a xlink:title=" ">
<path fill="none" stroke="#63b8ff" d="M610.15,-282.36C497.14,-276.76 246.18,-262.02 214,-240.25 179.67,-217.03 163.12,-168.61 156.21,-141.19"/>
<polygon fill="#63b8ff" stroke="#63b8ff" points="159.68,-140.67 154.03,-131.71 152.86,-142.24 159.68,-140.67"/>
</a>
</g>
</g>
<!-- Node25&#45;&gt;Node13 -->
<g id="edge57_Node000025_Node000013" class="edge">
<title>Node25&#45;&gt;Node13</title>
<g id="a_edge57_Node000025_Node000013"><a xlink:title=" ">
<path fill="none" stroke="#63b8ff" d="M648.69,-275.84C635.79,-267.94 618.14,-255.39 607,-240.25 584.42,-209.56 572.27,-166.03 566.77,-140.97"/>
<polygon fill="#63b8ff" stroke="#63b8ff" points="570.26,-140.58 564.83,-131.49 563.4,-141.98 570.26,-140.58"/>
</a>
</g>
</g>
<!-- Node25&#45;&gt;Node19 -->
<g id="edge55_Node000025_Node000019" class="edge">
<title>Node25&#45;&gt;Node19</title>
<g id="a_edge55_Node000025_Node000019"><a xlink:title=" ">
<path fill="none" stroke="#63b8ff" d="M668.02,-275.96C671.8,-263.38 677.07,-239.87 671,-221 667.84,-211.17 661.63,-201.67 655.51,-193.99"/>
<polygon fill="#63b8ff" stroke="#63b8ff" points="658.22,-191.76 649.04,-186.47 652.91,-196.33 658.22,-191.76"/>
</a>
</g>
</g>
<!-- Node25&#45;&gt;Node20 -->
<g id="edge56_Node000025_Node000020" class="edge">
<title>Node25&#45;&gt;Node20</title>
<g id="a_edge56_Node000025_Node000020"><a xlink:title=" ">
<path fill="none" stroke="#63b8ff" d="M692.16,-275.84C716.37,-267.49 752.57,-254.29 783,-240.25 815.58,-225.21 851.56,-204.76 874.68,-191.1"/>
<polygon fill="#63b8ff" stroke="#63b8ff" points="876.24,-194.24 883.03,-186.11 872.65,-188.23 876.24,-194.24"/>
</a>
</g>
</g>
<!-- Node25&#45;&gt;Node24 -->
<g id="edge50_Node000025_Node000024" class="edge">
<title>Node25&#45;&gt;Node24</title>
<g id="a_edge50_Node000025_Node000024"><a xlink:title=" ">
<path fill="none" stroke="#63b8ff" d="M719.87,-277.75C797.44,-267.67 938.51,-249.35 1017.5,-239.09"/>
<polygon fill="#63b8ff" stroke="#63b8ff" points="1017.72,-242.59 1027.18,-237.84 1016.82,-235.65 1017.72,-242.59"/>
</a>
</g>
</g>
<!-- Node25&#45;&gt;Node26 -->
<g id="edge53_Node000025_Node000026" class="edge">
<title>Node25&#45;&gt;Node26</title>
<g id="a_edge53_Node000025_Node000026"><a xlink:title=" ">
<path fill="none" stroke="#63b8ff" d="M719.69,-280.04C826.97,-270.5 1059.84,-249.49 1127.79,-240.24"/>
<polygon fill="#63b8ff" stroke="#63b8ff" points="1127.92,-243.76 1137.3,-238.83 1126.89,-236.84 1127.92,-243.76"/>
</a>
</g>
</g>
<!-- Node27 -->
<g id="Node000027" class="node">
<title>Node27</title>
<g id="a_Node000027"><a xlink:title=" ">
<polygon fill="#e0e0e0" stroke="#999999" points="774.25,-240.25 717.75,-240.25 717.75,-221 774.25,-221 774.25,-240.25"/>
<text text-anchor="middle" x="746" y="-226.75" font-family="Helvetica,sans-Serif" font-size="10.00">typeindex</text>
</a>
</g>
</g>
<!-- Node25&#45;&gt;Node27 -->
<g id="edge58_Node000025_Node000027" class="edge">
<title>Node25&#45;&gt;Node27</title>
<g id="a_edge58_Node000025_Node000027"><a xlink:title=" ">
<path fill="none" stroke="#63b8ff" d="M678.74,-275.84C690.73,-267.96 708.37,-256.36 722.58,-247.02"/>
<polygon fill="#63b8ff" stroke="#63b8ff" points="724.49,-249.95 730.93,-241.53 720.65,-244.1 724.49,-249.95"/>
</a>
</g>
</g>
<!-- Node28 -->
<g id="Node000028" class="node">
<title>Node28</title>
<g id="a_Node000028"><a xlink:title=" ">
<polygon fill="#e0e0e0" stroke="#999999" points="661.62,-240.25 616.38,-240.25 616.38,-221 661.62,-221 661.62,-240.25"/>
<text text-anchor="middle" x="639" y="-226.75" font-family="Helvetica,sans-Serif" font-size="10.00">variant</text>
</a>
</g>
</g>
<!-- Node25&#45;&gt;Node28 -->
<g id="edge59_Node000025_Node000028" class="edge">
<title>Node25&#45;&gt;Node28</title>
<g id="a_edge59_Node000025_Node000028"><a xlink:title=" ">
<path fill="none" stroke="#63b8ff" d="M660.71,-276.08C657.38,-269.26 652.64,-259.56 648.44,-250.95"/>
<polygon fill="#63b8ff" stroke="#63b8ff" points="651.58,-249.42 644.05,-241.97 645.29,-252.49 651.58,-249.42"/>
</a>
</g>
</g>
<!-- Node25&#45;&gt;Node29 -->
<g id="edge60_Node000025_Node000029" class="edge">
<title>Node25&#45;&gt;Node29</title>
<g id="a_edge60_Node000025_Node000029"><a xlink:title=" ">
<path fill="none" stroke="#63b8ff" d="M696.72,-275.84C730.8,-266.14 784.69,-250.79 819.19,-240.97"/>
<polygon fill="#63b8ff" stroke="#63b8ff" points="819.97,-244.38 828.63,-238.28 818.05,-237.65 819.97,-244.38"/>
</a>
</g>
</g>
</g>
</svg>
