<?xml version="1.0" encoding="UTF-8" standalone="no"?>
<!DOCTYPE svg PUBLIC "-//W3C//DTD SVG 1.1//EN"
 "http://www.w3.org/Graphics/SVG/1.1/DTD/svg11.dtd">
<!-- Generated by graphviz version 12.2.1 (20241206.2353)
 -->
<!-- Title: mimic++/matchers/Common.hpp Pages: 1 -->
<!--zoomable 393 -->

<svg id="main" version="1.1" xmlns="http://www.w3.org/2000/svg" xmlns:xlink="http://www.w3.org/1999/xlink" xml:space="preserve" onload="init(evt)">

<style type="text/css"><![CDATA[
.node, .edge {opacity: 0.7;}
.node.selected, .edge.selected {opacity: 1;}
.edge:hover path { stroke: red; }
.edge:hover polygon { stroke: red; fill: red; }
]]></style>

<defs>
  <circle id="rim" cx="0" cy="0" r="7"/>
  <circle id="rim2" cx="0" cy="0" r="3.5"/>
  <g id="zoomPlus">
    <use xlink:href="#rim" fill="#404040"><set attributeName="fill" to="#808080" begin="zoomplus.mouseover" end="zoomplus.mouseout"/></use>
    <path d="M-4,0h8M0,-4v8" fill="none" stroke="white" stroke-width="1.5" pointer-events="none"/>
  </g>
  <g id="zoomMin">
    <use xlink:href="#rim" fill="#404040"><set attributeName="fill" to="#808080" begin="zoomminus.mouseover" end="zoomminus.mouseout"/></use>
    <path d="M-4,0h8" fill="none" stroke="white" stroke-width="1.5" pointer-events="none"/>
  </g>
  <g id="arrowUp" transform="translate(30 24)">
    <use xlink:href="#rim"/>
    <path pointer-events="none" fill="none" stroke="white" stroke-width="1.5" d="M0,-3.0v7 M-2.5,-0.5L0,-3.0L2.5,-0.5"/>
  </g>
  <g id="arrowRight" transform="rotate(90) translate(36 -43)">
    <use xlink:href="#rim"/>
    <path pointer-events="none" fill="none" stroke="white" stroke-width="1.5" d="M0,-3.0v7 M-2.5,-0.5L0,-3.0L2.5,-0.5"/>
  </g>
  <g id="arrowDown" transform="rotate(180) translate(-30 -48)">
    <use xlink:href="#rim"/>
    <path pointer-events="none" fill="none" stroke="white" stroke-width="1.5" d="M0,-3.0v7 M-2.5,-0.5L0,-3.0L2.5,-0.5"/>
  </g>
  <g id="arrowLeft" transform="rotate(270) translate(-36 17)">
    <use xlink:href="#rim"/>
    <path pointer-events="none" fill="none" stroke="white" stroke-width="1.5" d="M0,-3.0v7 M-2.5,-0.5L0,-3.0L2.5,-0.5"/>
  </g>
  <g id="resetDef">
    <use xlink:href="#rim2" fill="#404040"><set attributeName="fill" to="#808080" begin="reset.mouseover" end="reset.mouseout"/></use>
  </g>
</defs>
<script type="application/ecmascript">
var viewWidth = 804;
var viewHeight = 393;
var sectionId = 'dynsection-1';
</script>
<script type="application/ecmascript" xlink:href="../../svg.min.js"/>
<svg id="graph" class="graph">
<g id="viewport">
<title>mimic++/matchers/Common.hpp</title>
<!-- Node1 -->
<g id="Node000001" class="node">
<title>Node1</title>
<g id="a_Node000001"><a xlink:title=" ">
<polygon fill="#999999" stroke="#666666" points="342.88,-384.5 185.12,-384.5 185.12,-365.25 342.88,-365.25 342.88,-384.5"/>
<text text-anchor="middle" x="264" y="-371" font-family="Helvetica,sans-Serif" font-size="10.00">mimic++/matchers/Common.hpp</text>
</a>
</g>
</g>
<!-- Node2 -->
<g id="Node000002" class="node">
<title>Node2</title>
<g id="a_Node000002"><a xlink:href="../../d2/d4f/_expectation_builder_8hpp.html" target="_top" xlink:title=" ">
<polygon fill="white" stroke="#666666" points="341.75,-190.62 186.25,-190.62 186.25,-171.38 341.75,-171.38 341.75,-190.62"/>
<text text-anchor="middle" x="264" y="-177.12" font-family="Helvetica,sans-Serif" font-size="10.00">mimic++/ExpectationBuilder.hpp</text>
</a>
</g>
</g>
<!-- Node1&#45;&gt;Node2 -->
<g id="edge1_Node000001_Node000002" class="edge">
<title>Node1&#45;&gt;Node2</title>
<g id="a_edge1_Node000001_Node000002"><a xlink:title=" ">
<path fill="none" stroke="#63b8ff" d="M264,-353.61C264,-312.25 264,-219.62 264,-190.76"/>
<polygon fill="#63b8ff" stroke="#63b8ff" points="260.5,-353.36 264,-363.36 267.5,-353.36 260.5,-353.36"/>
</a>
</g>
</g>
<!-- Node5 -->
<g id="Node000005" class="node">
<title>Node5</title>
<g id="a_Node000005"><a xlink:href="../../d0/db9/mimic_09_09_8hpp.html" target="_top" xlink:title=" ">
<polygon fill="white" stroke="#666666" points="425.75,-19.25 312.25,-19.25 312.25,0 425.75,0 425.75,-19.25"/>
<text text-anchor="middle" x="369" y="-5.75" font-family="Helvetica,sans-Serif" font-size="10.00">mimic++/mimic++.hpp</text>
</a>
</g>
</g>
<!-- Node1&#45;&gt;Node5 -->
<g id="edge22_Node000001_Node000005" class="edge">
<title>Node1&#45;&gt;Node5</title>
<g id="a_edge22_Node000001_Node000005"><a xlink:title=" ">
<path fill="none" stroke="#63b8ff" d="M173.68,-367.53C97.23,-356.65 0,-327.33 0,-248.5 0,-248.5 0,-248.5 0,-119.12 0,-77.66 30.68,-73.31 68,-55.25 109.91,-34.97 236.78,-21.46 311.77,-15.02"/>
<polygon fill="#63b8ff" stroke="#63b8ff" points="172.92,-370.96 183.29,-368.8 173.84,-364.02 172.92,-370.96"/>
</a>
</g>
</g>
<!-- Node8 -->
<g id="Node000008" class="node">
<title>Node8</title>
<g id="a_Node000008"><a xlink:href="../../d9/dd5/_general_matchers_8hpp.html" target="_top" xlink:title=" ">
<polygon fill="white" stroke="#666666" points="535.25,-329.25 400.75,-329.25 400.75,-298.75 535.25,-298.75 535.25,-329.25"/>
<text text-anchor="start" x="408.75" y="-315.75" font-family="Helvetica,sans-Serif" font-size="10.00">mimic++/matchers/General</text>
<text text-anchor="middle" x="468" y="-304.5" font-family="Helvetica,sans-Serif" font-size="10.00">Matchers.hpp</text>
</a>
</g>
</g>
<!-- Node1&#45;&gt;Node8 -->
<g id="edge11_Node000001_Node000008" class="edge">
<title>Node1&#45;&gt;Node8</title>
<g id="a_edge11_Node000001_Node000008"><a xlink:title=" ">
<path fill="none" stroke="#63b8ff" d="M306.27,-361.68C338.47,-352.38 382.93,-339.55 417.08,-329.69"/>
<polygon fill="#63b8ff" stroke="#63b8ff" points="305.52,-358.25 296.88,-364.39 307.46,-364.97 305.52,-358.25"/>
</a>
</g>
</g>
<!-- Node10 -->
<g id="Node000010" class="node">
<title>Node10</title>
<g id="a_Node000010"><a xlink:href="../../df/df3/_range_matchers_8hpp.html" target="_top" xlink:title=" ">
<polygon fill="white" stroke="#666666" points="795.5,-257.12 608.5,-257.12 608.5,-237.88 795.5,-237.88 795.5,-257.12"/>
<text text-anchor="middle" x="702" y="-243.62" font-family="Helvetica,sans-Serif" font-size="10.00">mimic++/matchers/RangeMatchers.hpp</text>
</a>
</g>
</g>
<!-- Node1&#45;&gt;Node10 -->
<g id="edge21_Node000001_Node000010" class="edge">
<title>Node1&#45;&gt;Node10</title>
<g id="a_edge21_Node000001_Node000010"><a xlink:title=" ">
<path fill="none" stroke="#63b8ff" d="M354.37,-366.74C410.07,-360.58 482.38,-349.35 544,-329.25 600.52,-310.82 661.62,-274.28 688.27,-257.41"/>
<polygon fill="#63b8ff" stroke="#63b8ff" points="354.18,-363.24 344.61,-367.79 354.92,-370.2 354.18,-363.24"/>
</a>
</g>
</g>
<!-- Node12 -->
<g id="Node000012" class="node">
<title>Node12</title>
<g id="a_Node000012"><a xlink:href="../../d1/d42/_arg_requirement_policies_8hpp.html" target="_top" xlink:title=" ">
<polygon fill="white" stroke="#666666" points="235.5,-262.75 72.5,-262.75 72.5,-232.25 235.5,-232.25 235.5,-262.75"/>
<text text-anchor="start" x="80.5" y="-249.25" font-family="Helvetica,sans-Serif" font-size="10.00">mimic++/policies/ArgRequirement</text>
<text text-anchor="middle" x="154" y="-238" font-family="Helvetica,sans-Serif" font-size="10.00">Policies.hpp</text>
</a>
</g>
</g>
<!-- Node1&#45;&gt;Node12 -->
<g id="edge23_Node000001_Node000012" class="edge">
<title>Node1&#45;&gt;Node12</title>
<g id="a_edge23_Node000001_Node000012"><a xlink:title=" ">
<path fill="none" stroke="#63b8ff" d="M248.66,-356.4C226.81,-331.49 187.11,-286.23 166.76,-263.05"/>
<polygon fill="#63b8ff" stroke="#63b8ff" points="245.86,-358.51 255.09,-363.72 251.13,-353.9 245.86,-358.51"/>
</a>
</g>
</g>
<!-- Node3 -->
<g id="Node000003" class="node">
<title>Node3</title>
<g id="a_Node000003"><a xlink:href="../../d5/dc5/_mock_8hpp.html" target="_top" xlink:title=" ">
<polygon fill="white" stroke="#666666" points="305.62,-129.75 206.38,-129.75 206.38,-110.5 305.62,-110.5 305.62,-129.75"/>
<text text-anchor="middle" x="256" y="-116.25" font-family="Helvetica,sans-Serif" font-size="10.00">mimic++/Mock.hpp</text>
</a>
</g>
</g>
<!-- Node2&#45;&gt;Node3 -->
<g id="edge2_Node000002_Node000003" class="edge">
<title>Node2&#45;&gt;Node3</title>
<g id="a_edge2_Node000002_Node000003"><a xlink:title=" ">
<path fill="none" stroke="#63b8ff" d="M261.27,-159.91C259.9,-149.8 258.3,-138.05 257.23,-130.15"/>
<polygon fill="#63b8ff" stroke="#63b8ff" points="257.77,-160.12 262.58,-169.56 264.7,-159.18 257.77,-160.12"/>
</a>
</g>
</g>
<!-- Node2&#45;&gt;Node5 -->
<g id="edge10_Node000002_Node000005" class="edge">
<title>Node2&#45;&gt;Node5</title>
<g id="a_edge10_Node000002_Node000005"><a xlink:title=" ">
<path fill="none" stroke="#63b8ff" d="M219.59,-167.61C156.18,-147.78 51.88,-105.96 95,-55.25 122.28,-23.17 239.99,-14.09 311.96,-11.56"/>
<polygon fill="#63b8ff" stroke="#63b8ff" points="218.49,-170.93 229.08,-170.5 220.53,-164.23 218.49,-170.93"/>
</a>
</g>
</g>
<!-- Node7 -->
<g id="Node000007" class="node">
<title>Node7</title>
<g id="a_Node000007"><a xlink:href="../../db/d83/_scoped_sequence_8hpp.html" target="_top" xlink:title=" ">
<polygon fill="white" stroke="#666666" points="475.88,-129.75 324.12,-129.75 324.12,-110.5 475.88,-110.5 475.88,-129.75"/>
<text text-anchor="middle" x="400" y="-116.25" font-family="Helvetica,sans-Serif" font-size="10.00">mimic++/ScopedSequence.hpp</text>
</a>
</g>
</g>
<!-- Node2&#45;&gt;Node7 -->
<g id="edge8_Node000002_Node000007" class="edge">
<title>Node2&#45;&gt;Node7</title>
<g id="a_edge8_Node000002_Node000007"><a xlink:title=" ">
<path fill="none" stroke="#63b8ff" d="M295.32,-166.44C321.09,-155.29 356.9,-139.78 379.25,-130.11"/>
<polygon fill="#63b8ff" stroke="#63b8ff" points="294.13,-163.14 286.34,-170.33 296.91,-169.57 294.13,-163.14"/>
</a>
</g>
</g>
<!-- Node4 -->
<g id="Node000004" class="node">
<title>Node4</title>
<g id="a_Node000004"><a xlink:href="../../d9/dc3/_interface_mock_8hpp.html" target="_top" xlink:title=" ">
<polygon fill="white" stroke="#666666" points="437.75,-74.5 300.25,-74.5 300.25,-55.25 437.75,-55.25 437.75,-74.5"/>
<text text-anchor="middle" x="369" y="-61" font-family="Helvetica,sans-Serif" font-size="10.00">mimic++/InterfaceMock.hpp</text>
</a>
</g>
</g>
<!-- Node3&#45;&gt;Node4 -->
<g id="edge3_Node000003_Node000004" class="edge">
<title>Node3&#45;&gt;Node4</title>
<g id="a_edge3_Node000003_Node000004"><a xlink:title=" ">
<path fill="none" stroke="#63b8ff" d="M285.43,-105.26C305.71,-95.7 332.09,-83.27 349.74,-74.95"/>
<polygon fill="#63b8ff" stroke="#63b8ff" points="284.09,-102.02 276.54,-109.45 287.08,-108.35 284.09,-102.02"/>
</a>
</g>
</g>
<!-- Node3&#45;&gt;Node5 -->
<g id="edge7_Node000003_Node000005" class="edge">
<title>Node3&#45;&gt;Node5</title>
<g id="a_edge7_Node000003_Node000005"><a xlink:title=" ">
<path fill="none" stroke="#63b8ff" d="M263.31,-99.67C269.19,-86 278.53,-67.95 291,-55.25 306.63,-39.33 329.14,-27.27 345.96,-19.73"/>
<polygon fill="#63b8ff" stroke="#63b8ff" points="260.08,-98.33 259.6,-108.91 266.58,-100.93 260.08,-98.33"/>
</a>
</g>
</g>
<!-- Node6 -->
<g id="Node000006" class="node">
<title>Node6</title>
<g id="a_Node000006"><a xlink:href="../../d5/d92/_object_watcher_8hpp.html" target="_top" xlink:title=" ">
<polygon fill="white" stroke="#666666" points="243.88,-74.5 104.12,-74.5 104.12,-55.25 243.88,-55.25 243.88,-74.5"/>
<text text-anchor="middle" x="174" y="-61" font-family="Helvetica,sans-Serif" font-size="10.00">mimic++/ObjectWatcher.hpp</text>
</a>
</g>
</g>
<!-- Node3&#45;&gt;Node6 -->
<g id="edge5_Node000003_Node000006" class="edge">
<title>Node3&#45;&gt;Node6</title>
<g id="a_edge5_Node000003_Node000006"><a xlink:title=" ">
<path fill="none" stroke="#63b8ff" d="M232.79,-104.05C218.35,-94.67 200.25,-82.92 187.98,-74.95"/>
<polygon fill="#63b8ff" stroke="#63b8ff" points="230.53,-106.76 240.82,-109.27 234.34,-100.89 230.53,-106.76"/>
</a>
</g>
</g>
<!-- Node4&#45;&gt;Node5 -->
<g id="edge4_Node000004_Node000005" class="edge">
<title>Node4&#45;&gt;Node5</title>
<g id="a_edge4_Node000004_Node000005"><a xlink:title=" ">
<path fill="none" stroke="#63b8ff" d="M369,-43.63C369,-35.34 369,-26.17 369,-19.61"/>
<polygon fill="#63b8ff" stroke="#63b8ff" points="365.5,-43.57 369,-53.57 372.5,-43.57 365.5,-43.57"/>
</a>
</g>
</g>
<!-- Node6&#45;&gt;Node5 -->
<g id="edge6_Node000006_Node000005" class="edge">
<title>Node6&#45;&gt;Node5</title>
<g id="a_edge6_Node000006_Node000005"><a xlink:title=" ">
<path fill="none" stroke="#63b8ff" d="M218.15,-51.82C253.85,-42.07 303.35,-28.55 335.76,-19.7"/>
<polygon fill="#63b8ff" stroke="#63b8ff" points="217.26,-48.43 208.54,-54.44 219.11,-55.19 217.26,-48.43"/>
</a>
</g>
</g>
<!-- Node7&#45;&gt;Node5 -->
<g id="edge9_Node000007_Node000005" class="edge">
<title>Node7&#45;&gt;Node5</title>
<g id="a_edge9_Node000007_Node000005"><a xlink:title=" ">
<path fill="none" stroke="#63b8ff" d="M424.34,-103.37C440.5,-90.83 457.05,-72.57 447,-55.25 436.82,-37.71 416.87,-26.47 399.69,-19.66"/>
<polygon fill="#63b8ff" stroke="#63b8ff" points="422.38,-100.47 416.31,-109.16 426.47,-106.15 422.38,-100.47"/>
</a>
</g>
</g>
<!-- Node8&#45;&gt;Node2 -->
<g id="edge12_Node000008_Node000002" class="edge">
<title>Node8&#45;&gt;Node2</title>
<g id="a_edge12_Node000008_Node000002"><a xlink:title=" ">
<path fill="none" stroke="#63b8ff" d="M389.69,-296.17C366.09,-288.58 341.13,-277.82 321,-262.75 294.63,-243 275.75,-207.45 267.96,-190.91"/>
<polygon fill="#63b8ff" stroke="#63b8ff" points="388.39,-299.43 398.97,-298.99 390.43,-292.73 388.39,-299.43"/>
</a>
</g>
</g>
<!-- Node8&#45;&gt;Node5 -->
<g id="edge20_Node000008_Node000005" class="edge">
<title>Node8&#45;&gt;Node5</title>
<g id="a_edge20_Node000008_Node000005"><a xlink:title=" ">
<path fill="none" stroke="#63b8ff" d="M498.16,-291.26C507.36,-283.25 516.7,-273.49 523,-262.75 541.66,-230.95 542,-218.87 542,-182 542,-182 542,-182 542,-119.12 542,-60.45 469.7,-32.29 418.57,-19.72"/>
<polygon fill="#63b8ff" stroke="#63b8ff" points="496.17,-288.36 490.66,-297.41 500.61,-293.78 496.17,-288.36"/>
</a>
</g>
</g>
<!-- Node9 -->
<g id="Node000009" class="node">
<title>Node9</title>
<g id="a_Node000009"><a xlink:href="../../d1/de0/_floating_point_matchers_8hpp.html" target="_top" xlink:title=" ">
<polygon fill="white" stroke="#666666" points="705.62,-196.25 570.38,-196.25 570.38,-165.75 705.62,-165.75 705.62,-196.25"/>
<text text-anchor="start" x="578.38" y="-182.75" font-family="Helvetica,sans-Serif" font-size="10.00">mimic++/matchers/Floating</text>
<text text-anchor="middle" x="638" y="-171.5" font-family="Helvetica,sans-Serif" font-size="10.00">PointMatchers.hpp</text>
</a>
</g>
</g>
<!-- Node8&#45;&gt;Node9 -->
<g id="edge13_Node000008_Node000009" class="edge">
<title>Node8&#45;&gt;Node9</title>
<g id="a_edge13_Node000008_Node000009"><a xlink:title=" ">
<path fill="none" stroke="#63b8ff" d="M508,-293.02C523.55,-284.53 541.16,-273.99 556,-262.75 582.92,-242.36 610.03,-213.7 625.35,-196.58"/>
<polygon fill="#63b8ff" stroke="#63b8ff" points="506.64,-289.78 499.46,-297.57 509.93,-295.95 506.64,-289.78"/>
</a>
</g>
</g>
<!-- Node8&#45;&gt;Node10 -->
<g id="edge15_Node000008_Node000010" class="edge">
<title>Node8&#45;&gt;Node10</title>
<g id="a_edge15_Node000008_Node000010"><a xlink:title=" ">
<path fill="none" stroke="#63b8ff" d="M532.36,-295.26C576.67,-283.05 633.71,-267.32 669.06,-257.58"/>
<polygon fill="#63b8ff" stroke="#63b8ff" points="531.56,-291.85 522.85,-297.88 533.42,-298.6 531.56,-291.85"/>
</a>
</g>
</g>
<!-- Node11 -->
<g id="Node000011" class="node">
<title>Node11</title>
<g id="a_Node000011"><a xlink:href="../../d2/d56/_string_matchers_8hpp.html" target="_top" xlink:title=" ">
<polygon fill="white" stroke="#666666" points="514.38,-257.12 329.62,-257.12 329.62,-237.88 514.38,-237.88 514.38,-257.12"/>
<text text-anchor="middle" x="422" y="-243.62" font-family="Helvetica,sans-Serif" font-size="10.00">mimic++/matchers/StringMatchers.hpp</text>
</a>
</g>
</g>
<!-- Node8&#45;&gt;Node11 -->
<g id="edge17_Node000008_Node000011" class="edge">
<title>Node8&#45;&gt;Node11</title>
<g id="a_edge17_Node000008_Node000011"><a xlink:title=" ">
<path fill="none" stroke="#63b8ff" d="M450.97,-289.12C443.05,-278.02 434.12,-265.49 428.29,-257.32"/>
<polygon fill="#63b8ff" stroke="#63b8ff" points="448.03,-291.02 456.68,-297.13 453.73,-286.96 448.03,-291.02"/>
</a>
</g>
</g>
<!-- Node9&#45;&gt;Node5 -->
<g id="edge14_Node000009_Node000005" class="edge">
<title>Node9&#45;&gt;Node5</title>
<g id="a_edge14_Node000009_Node000005"><a xlink:title=" ">
<path fill="none" stroke="#63b8ff" d="M628.37,-155.09C616,-126.51 591.78,-80.35 556,-55.25 517.75,-28.41 465.41,-17.58 425.83,-13.28"/>
<polygon fill="#63b8ff" stroke="#63b8ff" points="625.02,-156.16 632.08,-164.06 631.49,-153.48 625.02,-156.16"/>
</a>
</g>
</g>
<!-- Node10&#45;&gt;Node5 -->
<g id="edge16_Node000010_Node000005" class="edge">
<title>Node10&#45;&gt;Node5</title>
<g id="a_edge16_Node000010_Node000005"><a xlink:title=" ">
<path fill="none" stroke="#63b8ff" d="M711.15,-227.26C717.83,-210.32 724.25,-185.37 715,-165.75 682.08,-95.93 650.56,-88.72 581,-55.25 531.69,-31.52 469.95,-20.35 425.83,-15.13"/>
<polygon fill="#63b8ff" stroke="#63b8ff" points="708.06,-225.59 707.28,-236.16 714.48,-228.39 708.06,-225.59"/>
</a>
</g>
</g>
<!-- Node11&#45;&gt;Node2 -->
<g id="edge18_Node000011_Node000002" class="edge">
<title>Node11&#45;&gt;Node2</title>
<g id="a_edge18_Node000011_Node000002"><a xlink:title=" ">
<path fill="none" stroke="#63b8ff" d="M389.04,-233.05C358.19,-220.45 312.96,-201.99 286.19,-191.06"/>
<polygon fill="#63b8ff" stroke="#63b8ff" points="387.72,-236.28 398.3,-236.82 390.36,-229.8 387.72,-236.28"/>
</a>
</g>
</g>
<!-- Node11&#45;&gt;Node5 -->
<g id="edge19_Node000011_Node000005" class="edge">
<title>Node11&#45;&gt;Node5</title>
<g id="a_edge19_Node000011_Node000005"><a xlink:title=" ">
<path fill="none" stroke="#63b8ff" d="M438.33,-229.08C459.77,-204.09 493.73,-156.05 485,-110.5 480.02,-84.54 481.08,-74.53 463,-55.25 446.69,-37.86 422.21,-26.53 402.32,-19.65"/>
<polygon fill="#63b8ff" stroke="#63b8ff" points="435.89,-226.56 431.85,-236.35 441.12,-231.22 435.89,-226.56"/>
</a>
</g>
</g>
<!-- Node12&#45;&gt;Node2 -->
<g id="edge24_Node000012_Node000002" class="edge">
<title>Node12&#45;&gt;Node2</title>
<g id="a_edge24_Node000012_Node000002"><a xlink:title=" ">
<path fill="none" stroke="#63b8ff" d="M188.74,-226.13C208.86,-214.33 233.19,-200.06 248.63,-191.01"/>
<polygon fill="#63b8ff" stroke="#63b8ff" points="187.12,-223.02 180.27,-231.1 190.66,-229.06 187.12,-223.02"/>
</a>
</g>
</g>
<!-- Node12&#45;&gt;Node5 -->
<g id="edge25_Node000012_Node000005" class="edge">
<title>Node12&#45;&gt;Node5</title>
<g id="a_edge25_Node000012_Node000005"><a xlink:title=" ">
<path fill="none" stroke="#63b8ff" d="M132.16,-223.78C97.65,-185.13 38.66,-105.85 82,-55.25 110.99,-21.4 236.76,-13.02 311.85,-11.08"/>
<polygon fill="#63b8ff" stroke="#63b8ff" points="129.16,-225.69 138.5,-230.71 134.33,-220.97 129.16,-225.69"/>
</a>
</g>
</g>
</g>
</svg>

<g id="navigator" transform="translate(0 0)" fill="#404254">
  <rect fill="#f2f5e9" fill-opacity="0.5" stroke="#606060" stroke-width=".5" x="0" y="0" width="60" height="60"/>
  <use id="zoomplus" xlink:href="#zoomPlus" x="17" y="9" onmousedown="handleZoom(evt,'in')"/>
  <use id="zoomminus" xlink:href="#zoomMin" x="42" y="9" onmousedown="handleZoom(evt,'out')"/>
  <use id="reset" xlink:href="#resetDef" x="30" y="36" onmousedown="handleReset()"/>
   <use id="arrowup" xlink:href="#arrowUp" x="0" y="0" onmousedown="handlePan(0,-1)"/>
  <use id="arrowright" xlink:href="#arrowRight" x="0" y="0" onmousedown="handlePan(1,0)"/>
  <use id="arrowdown" xlink:href="#arrowDown" x="0" y="0" onmousedown="handlePan(0,1)"/>
  <use id="arrowleft" xlink:href="#arrowLeft" x="0" y="0" onmousedown="handlePan(-1,0)"/>
</g>
<svg viewBox="0 0 15 15" width="100%" height="30px" preserveAspectRatio="xMaxYMin meet">
 <g id="arrow_out" transform="scale(0.3 0.3)">
  <a xlink:href="_common_8hpp__dep__incl_org.svg" target="_base">
   <rect id="button" ry="5" rx="5" y="6" x="6" height="38" width="38"
        fill="#f2f5e9" fill-opacity="0.5" stroke="#606060" stroke-width="1.0"/>
   <path id="arrow"
     d="M 11.500037,31.436501 C 11.940474,20.09759 22.043105,11.32322 32.158766,21.979434 L 37.068811,17.246167 C 37.068811,17.246167 37.088388,32 37.088388,32 L 22.160133,31.978069 C 22.160133,31.978069 26.997745,27.140456 26.997745,27.140456 C 18.528582,18.264221 13.291696,25.230495 11.500037,31.436501 z"
     style="fill:#404040;"/>
  </a>
 </g>
</svg>

<style type='text/css'>
<![CDATA[
[data-mouse-over-selected='false'] { opacity: 0.7; }
[data-mouse-over-selected='true']  { opacity: 1.0; }
]]>
</style>
<script type="application/ecmascript"><![CDATA[
document.addEventListener('DOMContentLoaded', (event) => {
  highlightEdges();
  highlightAdjacentNodes();
});
]]></script>
</svg>
