<?xml version="1.0" encoding="UTF-8" standalone="no"?>
<!DOCTYPE svg PUBLIC "-//W3C//DTD SVG 1.1//EN"
 "http://www.w3.org/Graphics/SVG/1.1/DTD/svg11.dtd">
<!-- Generated by graphviz version 11.0.0 (20240428.1522)
 -->
<!-- Title: mimic++/Mock.hpp Pages: 1 -->
<svg width="1274pt" height="469pt"
 viewBox="0.00 0.00 1273.66 469.25" xmlns="http://www.w3.org/2000/svg" xmlns:xlink="http://www.w3.org/1999/xlink">
<g id="graph0" class="graph" transform="scale(1 1) rotate(0) translate(4 465.25)">
<title>mimic++/Mock.hpp</title>
<!-- Node1 -->
<g id="Node000001" class="node">
<title>Node1</title>
<g id="a_Node000001"><a xlink:title=" ">
<polygon fill="#999999" stroke="#666666" points="885.28,-461.25 786.03,-461.25 786.03,-442 885.28,-442 885.28,-461.25"/>
<text text-anchor="middle" x="835.66" y="-447.75" font-family="Helvetica,sans-Serif" font-size="10.00">mimic++/Mock.hpp</text>
</a>
</g>
</g>
<!-- Node2 -->
<g id="Node000002" class="node">
<title>Node2</title>
<g id="a_Node000002"><a xlink:href="../../d5/d8a/_expectation_8hpp.html" target="_top" xlink:title=" ">
<polygon fill="white" stroke="#666666" points="554.41,-295.5 428.91,-295.5 428.91,-276.25 554.41,-276.25 554.41,-295.5"/>
<text text-anchor="middle" x="491.66" y="-282" font-family="Helvetica,sans-Serif" font-size="10.00">mimic++/Expectation.hpp</text>
</a>
</g>
</g>
<!-- Node1&#45;&gt;Node2 -->
<g id="edge1_Node000001_Node000002" class="edge">
<title>Node1&#45;&gt;Node2</title>
<g id="a_edge1_Node000001_Node000002"><a xlink:title=" ">
<path fill="none" stroke="#63b8ff" d="M816.67,-441.59C759.58,-414.41 589.2,-333.31 520.67,-300.69"/>
<polygon fill="#63b8ff" stroke="#63b8ff" points="522.48,-297.67 511.95,-296.53 519.48,-303.99 522.48,-297.67"/>
</a>
</g>
</g>
<!-- Node29 -->
<g id="Node000029" class="node">
<title>Node29</title>
<g id="a_Node000029"><a xlink:href="../../d2/d4f/_expectation_builder_8hpp.html" target="_top" xlink:title=" ">
<polygon fill="white" stroke="#666666" points="913.41,-406 757.91,-406 757.91,-386.75 913.41,-386.75 913.41,-406"/>
<text text-anchor="middle" x="835.66" y="-392.5" font-family="Helvetica,sans-Serif" font-size="10.00">mimic++/ExpectationBuilder.hpp</text>
</a>
</g>
</g>
<!-- Node1&#45;&gt;Node29 -->
<g id="edge47_Node000001_Node000029" class="edge">
<title>Node1&#45;&gt;Node29</title>
<g id="a_edge47_Node000001_Node000029"><a xlink:title=" ">
<path fill="none" stroke="#63b8ff" d="M835.66,-441.83C835.66,-435.32 835.66,-426.17 835.66,-417.87"/>
<polygon fill="#63b8ff" stroke="#63b8ff" points="839.16,-417.87 835.66,-407.87 832.16,-417.87 839.16,-417.87"/>
</a>
</g>
</g>
<!-- Node30 -->
<g id="Node000030" class="node">
<title>Node30</title>
<g id="a_Node000030"><a xlink:href="../../d8/de5/_expectation_policies_8hpp.html" target="_top" xlink:title=" ">
<polygon fill="white" stroke="#666666" points="1044.66,-350.75 884.66,-350.75 884.66,-331.5 1044.66,-331.5 1044.66,-350.75"/>
<text text-anchor="middle" x="964.66" y="-337.25" font-family="Helvetica,sans-Serif" font-size="10.00">mimic++/ExpectationPolicies.hpp</text>
</a>
</g>
</g>
<!-- Node1&#45;&gt;Node30 -->
<g id="edge65_Node000001_Node000030" class="edge">
<title>Node1&#45;&gt;Node30</title>
<g id="a_edge65_Node000001_Node000030"><a xlink:title=" ">
<path fill="none" stroke="#63b8ff" d="M861.38,-441.54C879.91,-434.07 904.72,-422.1 922.66,-406 936.84,-393.27 948.33,-374.72 955.68,-360.89"/>
<polygon fill="#63b8ff" stroke="#63b8ff" points="958.6,-362.86 959.98,-352.36 952.35,-359.71 958.6,-362.86"/>
</a>
</g>
</g>
<!-- Node3 -->
<g id="Node000003" class="node">
<title>Node3</title>
<g id="a_Node000003"><a xlink:href="../../dc/d44/_call_8hpp.html" target="_top" xlink:title=" ">
<polygon fill="white" stroke="#666666" points="531.91,-185 481.41,-185 481.41,-165.75 531.91,-165.75 531.91,-185"/>
<text text-anchor="middle" x="506.66" y="-171.5" font-family="Helvetica,sans-Serif" font-size="10.00">Call.hpp</text>
</a>
</g>
</g>
<!-- Node2&#45;&gt;Node3 -->
<g id="edge2_Node000002_Node000003" class="edge">
<title>Node2&#45;&gt;Node3</title>
<g id="a_edge2_Node000002_Node000003"><a xlink:title=" ">
<path fill="none" stroke="#63b8ff" d="M504.86,-276.02C515.42,-268.08 529.47,-255.35 535.66,-240.25 542.14,-224.45 532.81,-206.79 523.06,-194.05"/>
<polygon fill="#63b8ff" stroke="#63b8ff" points="525.86,-191.94 516.74,-186.54 520.5,-196.44 525.86,-191.94"/>
</a>
</g>
</g>
<!-- Node6 -->
<g id="Node000006" class="node">
<title>Node6</title>
<g id="a_Node000006"><a xlink:href="../../d8/d32/_type_traits_8hpp.html" target="_top" xlink:title=" ">
<polygon fill="white" stroke="#666666" points="146.16,-129.75 25.16,-129.75 25.16,-110.5 146.16,-110.5 146.16,-129.75"/>
<text text-anchor="middle" x="85.66" y="-116.25" font-family="Helvetica,sans-Serif" font-size="10.00">mimic++/TypeTraits.hpp</text>
</a>
</g>
</g>
<!-- Node2&#45;&gt;Node6 -->
<g id="edge37_Node000002_Node000006" class="edge">
<title>Node2&#45;&gt;Node6</title>
<g id="a_edge37_Node000002_Node000006"><a xlink:title=" ">
<path fill="none" stroke="#63b8ff" d="M428.79,-282.53C320.05,-277.83 106.25,-265.45 83.66,-240.25 59.34,-213.13 69.43,-166.95 78.09,-140.76"/>
<polygon fill="#63b8ff" stroke="#63b8ff" points="81.36,-142 81.45,-131.41 74.78,-139.64 81.36,-142"/>
</a>
</g>
</g>
<!-- Node7 -->
<g id="Node000007" class="node">
<title>Node7</title>
<g id="a_Node000007"><a xlink:title=" ">
<polygon fill="#e0e0e0" stroke="#999999" points="228.16,-74.5 191.16,-74.5 191.16,-55.25 228.16,-55.25 228.16,-74.5"/>
<text text-anchor="middle" x="209.66" y="-61" font-family="Helvetica,sans-Serif" font-size="10.00">tuple</text>
</a>
</g>
</g>
<!-- Node2&#45;&gt;Node7 -->
<g id="edge44_Node000002_Node000007" class="edge">
<title>Node2&#45;&gt;Node7</title>
<g id="a_edge44_Node000002_Node000007"><a xlink:title=" ">
<path fill="none" stroke="#63b8ff" d="M428.75,-285.57C325.31,-285.53 125.15,-280.1 68.66,-240.25 17.76,-204.34 -23.14,-159.23 15.66,-110.5 35.84,-85.15 130.56,-72.99 179.78,-68.3"/>
<polygon fill="#63b8ff" stroke="#63b8ff" points="179.81,-71.81 189.46,-67.43 179.18,-64.84 179.81,-71.81"/>
</a>
</g>
</g>
<!-- Node9 -->
<g id="Node000009" class="node">
<title>Node9</title>
<g id="a_Node000009"><a xlink:title=" ">
<polygon fill="#e0e0e0" stroke="#999999" points="521.78,-74.5 473.53,-74.5 473.53,-55.25 521.78,-55.25 521.78,-74.5"/>
<text text-anchor="middle" x="497.66" y="-61" font-family="Helvetica,sans-Serif" font-size="10.00">cassert</text>
</a>
</g>
</g>
<!-- Node2&#45;&gt;Node9 -->
<g id="edge38_Node000002_Node000009" class="edge">
<title>Node2&#45;&gt;Node9</title>
<g id="a_edge38_Node000002_Node000009"><a xlink:title=" ">
<path fill="none" stroke="#63b8ff" d="M428.47,-285.79C301.51,-285.43 34.34,-272.42 116.66,-165.75 159.2,-110.62 375.21,-79.99 461.74,-69.78"/>
<polygon fill="#63b8ff" stroke="#63b8ff" points="462.02,-73.27 471.55,-68.64 461.22,-66.31 462.02,-73.27"/>
</a>
</g>
</g>
<!-- Node12 -->
<g id="Node000012" class="node">
<title>Node12</title>
<g id="a_Node000012"><a xlink:title=" ">
<polygon fill="#e0e0e0" stroke="#999999" points="748.91,-74.5 710.41,-74.5 710.41,-55.25 748.91,-55.25 748.91,-74.5"/>
<text text-anchor="middle" x="729.66" y="-61" font-family="Helvetica,sans-Serif" font-size="10.00">utility</text>
</a>
</g>
</g>
<!-- Node2&#45;&gt;Node12 -->
<g id="edge45_Node000002_Node000012" class="edge">
<title>Node2&#45;&gt;Node12</title>
<g id="a_edge45_Node000002_Node000012"><a xlink:title=" ">
<path fill="none" stroke="#63b8ff" d="M543.39,-275.83C594.27,-264.08 670.04,-238.37 710.66,-185 732.68,-156.06 733.57,-111.56 731.86,-85.94"/>
<polygon fill="#63b8ff" stroke="#63b8ff" points="735.37,-85.89 731,-76.24 728.4,-86.51 735.37,-85.89"/>
</a>
</g>
</g>
<!-- Node13 -->
<g id="Node000013" class="node">
<title>Node13</title>
<g id="a_Node000013"><a xlink:href="../../da/dd9/_reporter_8hpp.html" target="_top" xlink:title=" ">
<polygon fill="white" stroke="#666666" points="527.03,-240.25 456.28,-240.25 456.28,-221 527.03,-221 527.03,-240.25"/>
<text text-anchor="middle" x="491.66" y="-226.75" font-family="Helvetica,sans-Serif" font-size="10.00">Reporter.hpp</text>
</a>
</g>
</g>
<!-- Node2&#45;&gt;Node13 -->
<g id="edge16_Node000002_Node000013" class="edge">
<title>Node2&#45;&gt;Node13</title>
<g id="a_edge16_Node000002_Node000013"><a xlink:title=" ">
<path fill="none" stroke="#63b8ff" d="M491.66,-276.08C491.66,-269.57 491.66,-260.42 491.66,-252.12"/>
<polygon fill="#63b8ff" stroke="#63b8ff" points="495.16,-252.12 491.66,-242.12 488.16,-252.12 495.16,-252.12"/>
</a>
</g>
</g>
<!-- Node21 -->
<g id="Node000021" class="node">
<title>Node21</title>
<g id="a_Node000021"><a xlink:title=" ">
<polygon fill="#e0e0e0" stroke="#999999" points="175.91,-185 125.41,-185 125.41,-165.75 175.91,-165.75 175.91,-185"/>
<text text-anchor="middle" x="150.66" y="-171.5" font-family="Helvetica,sans-Serif" font-size="10.00">memory</text>
</a>
</g>
</g>
<!-- Node2&#45;&gt;Node21 -->
<g id="edge40_Node000002_Node000021" class="edge">
<title>Node2&#45;&gt;Node21</title>
<g id="a_edge40_Node000002_Node000021"><a xlink:title=" ">
<path fill="none" stroke="#63b8ff" d="M428.7,-276.58C384.72,-269.67 325.07,-258.04 274.66,-240.25 238.25,-227.4 199.11,-205.79 174.75,-191.31"/>
<polygon fill="#63b8ff" stroke="#63b8ff" points="176.63,-188.35 166.26,-186.18 173.01,-194.34 176.63,-188.35"/>
</a>
</g>
</g>
<!-- Node23 -->
<g id="Node000023" class="node">
<title>Node23</title>
<g id="a_Node000023"><a xlink:title=" ">
<polygon fill="#e0e0e0" stroke="#999999" points="633.28,-185 588.03,-185 588.03,-165.75 633.28,-165.75 633.28,-185"/>
<text text-anchor="middle" x="610.66" y="-171.5" font-family="Helvetica,sans-Serif" font-size="10.00">ranges</text>
</a>
</g>
</g>
<!-- Node2&#45;&gt;Node23 -->
<g id="edge42_Node000002_Node000023" class="edge">
<title>Node2&#45;&gt;Node23</title>
<g id="a_edge42_Node000002_Node000023"><a xlink:title=" ">
<path fill="none" stroke="#63b8ff" d="M504.81,-275.9C517.11,-267.28 535.76,-253.64 550.66,-240.25 567.05,-225.52 584.1,-207.01 595.82,-193.71"/>
<polygon fill="#63b8ff" stroke="#63b8ff" points="598.41,-196.07 602.33,-186.22 593.12,-191.47 598.41,-196.07"/>
</a>
</g>
</g>
<!-- Node25 -->
<g id="Node000025" class="node">
<title>Node25</title>
<g id="a_Node000025"><a xlink:title=" ">
<polygon fill="#e0e0e0" stroke="#999999" points="237.16,-185 194.16,-185 194.16,-165.75 237.16,-165.75 237.16,-185"/>
<text text-anchor="middle" x="215.66" y="-171.5" font-family="Helvetica,sans-Serif" font-size="10.00">vector</text>
</a>
</g>
</g>
<!-- Node2&#45;&gt;Node25 -->
<g id="edge46_Node000002_Node000025" class="edge">
<title>Node2&#45;&gt;Node25</title>
<g id="a_edge46_Node000002_Node000025"><a xlink:title=" ">
<path fill="none" stroke="#63b8ff" d="M434.07,-275.83C397.9,-268.89 350.84,-257.52 311.66,-240.25 283.24,-227.73 254.01,-206.93 235.39,-192.48"/>
<polygon fill="#63b8ff" stroke="#63b8ff" points="237.64,-189.8 227.63,-186.33 233.3,-195.28 237.64,-189.8"/>
</a>
</g>
</g>
<!-- Node26 -->
<g id="Node000026" class="node">
<title>Node26</title>
<g id="a_Node000026"><a xlink:title=" ">
<polygon fill="#e0e0e0" stroke="#999999" points="887.53,-185 831.78,-185 831.78,-165.75 887.53,-165.75 887.53,-185"/>
<text text-anchor="middle" x="859.66" y="-171.5" font-family="Helvetica,sans-Serif" font-size="10.00">concepts</text>
</a>
</g>
</g>
<!-- Node2&#45;&gt;Node26 -->
<g id="edge39_Node000002_Node000026" class="edge">
<title>Node2&#45;&gt;Node26</title>
<g id="a_edge39_Node000002_Node000026"><a xlink:title=" ">
<path fill="none" stroke="#63b8ff" d="M554.73,-279.49C606.61,-273.71 681.44,-262.21 743.66,-240.25 778.25,-228.04 814.79,-206.24 837.4,-191.54"/>
<polygon fill="#63b8ff" stroke="#63b8ff" points="839.09,-194.62 845.5,-186.18 835.22,-188.79 839.09,-194.62"/>
</a>
</g>
</g>
<!-- Node27 -->
<g id="Node000027" class="node">
<title>Node27</title>
<g id="a_Node000027"><a xlink:title=" ">
<polygon fill="#e0e0e0" stroke="#999999" points="362.78,-240.25 320.53,-240.25 320.53,-221 362.78,-221 362.78,-240.25"/>
<text text-anchor="middle" x="341.66" y="-226.75" font-family="Helvetica,sans-Serif" font-size="10.00">mutex</text>
</a>
</g>
</g>
<!-- Node2&#45;&gt;Node27 -->
<g id="edge41_Node000002_Node000027" class="edge">
<title>Node2&#45;&gt;Node27</title>
<g id="a_edge41_Node000002_Node000027"><a xlink:title=" ">
<path fill="none" stroke="#63b8ff" d="M466.21,-275.84C440.65,-266.77 401.18,-252.75 373.54,-242.94"/>
<polygon fill="#63b8ff" stroke="#63b8ff" points="374.88,-239.7 364.28,-239.66 372.53,-246.3 374.88,-239.7"/>
</a>
</g>
</g>
<!-- Node28 -->
<g id="Node000028" class="node">
<title>Node28</title>
<g id="a_Node000028"><a xlink:title=" ">
<polygon fill="#e0e0e0" stroke="#999999" points="438.66,-240.25 380.66,-240.25 380.66,-221 438.66,-221 438.66,-240.25"/>
<text text-anchor="middle" x="409.66" y="-226.75" font-family="Helvetica,sans-Serif" font-size="10.00">stdexcept</text>
</a>
</g>
</g>
<!-- Node2&#45;&gt;Node28 -->
<g id="edge43_Node000002_Node000028" class="edge">
<title>Node2&#45;&gt;Node28</title>
<g id="a_edge43_Node000002_Node000028"><a xlink:title=" ">
<path fill="none" stroke="#63b8ff" d="M477.75,-275.84C465.5,-267.89 447.4,-256.14 432.95,-246.75"/>
<polygon fill="#63b8ff" stroke="#63b8ff" points="435.2,-244.04 424.91,-241.53 431.39,-249.91 435.2,-244.04"/>
</a>
</g>
</g>
<!-- Node4 -->
<g id="Node000004" class="node">
<title>Node4</title>
<g id="a_Node000004"><a xlink:href="../../df/dde/_fwd_8hpp.html" target="_top" xlink:title=" ">
<polygon fill="white" stroke="#666666" points="692.66,-74.5 598.66,-74.5 598.66,-55.25 692.66,-55.25 692.66,-74.5"/>
<text text-anchor="middle" x="645.66" y="-61" font-family="Helvetica,sans-Serif" font-size="10.00">mimic++/Fwd.hpp</text>
</a>
</g>
</g>
<!-- Node3&#45;&gt;Node4 -->
<g id="edge3_Node000003_Node000004" class="edge">
<title>Node3&#45;&gt;Node4</title>
<g id="a_edge3_Node000003_Node000004"><a xlink:title=" ">
<path fill="none" stroke="#63b8ff" d="M518.03,-165.5C541.45,-147.22 595.34,-105.15 625.05,-81.96"/>
<polygon fill="#63b8ff" stroke="#63b8ff" points="627.2,-84.72 632.93,-75.81 622.9,-79.2 627.2,-84.72"/>
</a>
</g>
</g>
<!-- Node3&#45;&gt;Node6 -->
<g id="edge5_Node000003_Node000006" class="edge">
<title>Node3&#45;&gt;Node6</title>
<g id="a_edge5_Node000003_Node000006"><a xlink:title=" ">
<path fill="none" stroke="#63b8ff" d="M480.96,-171.12C417.82,-163.14 253.33,-142.33 157.61,-130.23"/>
<polygon fill="#63b8ff" stroke="#63b8ff" points="158.15,-126.77 147.79,-128.98 157.27,-133.71 158.15,-126.77"/>
</a>
</g>
</g>
<!-- Node3&#45;&gt;Node7 -->
<g id="edge14_Node000003_Node000007" class="edge">
<title>Node3&#45;&gt;Node7</title>
<g id="a_edge14_Node000003_Node000007"><a xlink:title=" ">
<path fill="none" stroke="#63b8ff" d="M481.85,-165.31C427.34,-145.4 297.38,-97.92 238.97,-76.58"/>
<polygon fill="#63b8ff" stroke="#63b8ff" points="240.3,-73.34 229.71,-73.2 237.9,-79.92 240.3,-73.34"/>
</a>
</g>
</g>
<!-- Node8 -->
<g id="Node000008" class="node">
<title>Node8</title>
<g id="a_Node000008"><a xlink:href="../../d4/d2c/_utility_8hpp.html" target="_top" xlink:title=" ">
<polygon fill="white" stroke="#666666" points="895.66,-129.75 795.66,-129.75 795.66,-110.5 895.66,-110.5 895.66,-129.75"/>
<text text-anchor="middle" x="845.66" y="-116.25" font-family="Helvetica,sans-Serif" font-size="10.00">mimic++/Utility.hpp</text>
</a>
</g>
</g>
<!-- Node3&#45;&gt;Node8 -->
<g id="edge7_Node000003_Node000008" class="edge">
<title>Node3&#45;&gt;Node8</title>
<g id="a_edge7_Node000003_Node000008"><a xlink:title=" ">
<path fill="none" stroke="#63b8ff" d="M532.2,-168.46C536.67,-167.5 541.29,-166.56 545.66,-165.75 590.17,-157.53 710.2,-140.22 784.24,-129.74"/>
<polygon fill="#63b8ff" stroke="#63b8ff" points="784.35,-133.26 793.76,-128.4 783.37,-126.33 784.35,-133.26"/>
</a>
</g>
</g>
<!-- Node11 -->
<g id="Node000011" class="node">
<title>Node11</title>
<g id="a_Node000011"><a xlink:title=" ">
<polygon fill="#e0e0e0" stroke="#999999" points="850.78,-74.5 766.53,-74.5 766.53,-55.25 850.78,-55.25 850.78,-74.5"/>
<text text-anchor="middle" x="808.66" y="-61" font-family="Helvetica,sans-Serif" font-size="10.00">source_location</text>
</a>
</g>
</g>
<!-- Node3&#45;&gt;Node11 -->
<g id="edge13_Node000003_Node000011" class="edge">
<title>Node3&#45;&gt;Node11</title>
<g id="a_edge13_Node000003_Node000011"><a xlink:title=" ">
<path fill="none" stroke="#63b8ff" d="M532.04,-165.34C557.31,-156.34 597.17,-142.13 631.66,-129.75 680.7,-112.15 737.34,-91.68 773.07,-78.76"/>
<polygon fill="#63b8ff" stroke="#63b8ff" points="773.82,-82.21 782.04,-75.51 771.44,-75.63 773.82,-82.21"/>
</a>
</g>
</g>
<!-- Node3&#45;&gt;Node12 -->
<g id="edge15_Node000003_Node000012" class="edge">
<title>Node3&#45;&gt;Node12</title>
<g id="a_edge15_Node000003_Node000012"><a xlink:title=" ">
<path fill="none" stroke="#63b8ff" d="M525.29,-165.31C564.15,-146.4 654.1,-102.64 700.62,-80"/>
<polygon fill="#63b8ff" stroke="#63b8ff" points="702.1,-83.17 709.56,-75.65 699.04,-76.88 702.1,-83.17"/>
</a>
</g>
</g>
<!-- Node5 -->
<g id="Node000005" class="node">
<title>Node5</title>
<g id="a_Node000005"><a xlink:title=" ">
<polygon fill="#e0e0e0" stroke="#999999" points="854.66,-19.25 814.66,-19.25 814.66,0 854.66,0 854.66,-19.25"/>
<text text-anchor="middle" x="834.66" y="-5.75" font-family="Helvetica,sans-Serif" font-size="10.00">string</text>
</a>
</g>
</g>
<!-- Node4&#45;&gt;Node5 -->
<g id="edge4_Node000004_Node000005" class="edge">
<title>Node4&#45;&gt;Node5</title>
<g id="a_edge4_Node000004_Node000005"><a xlink:title=" ">
<path fill="none" stroke="#63b8ff" d="M677.72,-54.84C712.82,-44.95 768.73,-29.2 803.48,-19.41"/>
<polygon fill="#63b8ff" stroke="#63b8ff" points="804.26,-22.82 812.94,-16.74 802.37,-16.09 804.26,-22.82"/>
</a>
</g>
</g>
<!-- Node6&#45;&gt;Node7 -->
<g id="edge6_Node000006_Node000007" class="edge">
<title>Node6&#45;&gt;Node7</title>
<g id="a_edge6_Node000006_Node000007"><a xlink:title=" ">
<path fill="none" stroke="#63b8ff" d="M106.69,-110.09C127,-101.37 157.92,-88.09 180.58,-78.36"/>
<polygon fill="#63b8ff" stroke="#63b8ff" points="181.76,-81.66 189.57,-74.5 179,-75.23 181.76,-81.66"/>
</a>
</g>
</g>
<!-- Node8&#45;&gt;Node4 -->
<g id="edge8_Node000008_Node000004" class="edge">
<title>Node8&#45;&gt;Node4</title>
<g id="a_edge8_Node000008_Node000004"><a xlink:title=" ">
<path fill="none" stroke="#63b8ff" d="M811.73,-110.09C778.4,-101.22 727.35,-87.62 690.65,-77.85"/>
<polygon fill="#63b8ff" stroke="#63b8ff" points="691.78,-74.53 681.21,-75.34 689.98,-81.3 691.78,-74.53"/>
</a>
</g>
</g>
<!-- Node8&#45;&gt;Node9 -->
<g id="edge9_Node000008_Node000009" class="edge">
<title>Node8&#45;&gt;Node9</title>
<g id="a_edge9_Node000008_Node000009"><a xlink:title=" ">
<path fill="none" stroke="#63b8ff" d="M795.43,-111.44C724.16,-100.53 595.48,-80.84 533.25,-71.32"/>
<polygon fill="#63b8ff" stroke="#63b8ff" points="534,-67.89 523.58,-69.84 532.94,-74.81 534,-67.89"/>
</a>
</g>
</g>
<!-- Node10 -->
<g id="Node000010" class="node">
<title>Node10</title>
<g id="a_Node000010"><a xlink:title=" ">
<polygon fill="#e0e0e0" stroke="#999999" points="912.53,-74.5 868.78,-74.5 868.78,-55.25 912.53,-55.25 912.53,-74.5"/>
<text text-anchor="middle" x="890.66" y="-61" font-family="Helvetica,sans-Serif" font-size="10.00">format</text>
</a>
</g>
</g>
<!-- Node8&#45;&gt;Node10 -->
<g id="edge10_Node000008_Node000010" class="edge">
<title>Node8&#45;&gt;Node10</title>
<g id="a_edge10_Node000008_Node000010"><a xlink:title=" ">
<path fill="none" stroke="#63b8ff" d="M853.09,-110.33C859.24,-103.05 868.17,-92.48 875.78,-83.48"/>
<polygon fill="#63b8ff" stroke="#63b8ff" points="878.31,-85.91 882.09,-76.02 872.96,-81.39 878.31,-85.91"/>
</a>
</g>
</g>
<!-- Node8&#45;&gt;Node11 -->
<g id="edge11_Node000008_Node000011" class="edge">
<title>Node8&#45;&gt;Node11</title>
<g id="a_edge11_Node000008_Node000011"><a xlink:title=" ">
<path fill="none" stroke="#63b8ff" d="M839.55,-110.33C834.6,-103.21 827.45,-92.93 821.28,-84.05"/>
<polygon fill="#63b8ff" stroke="#63b8ff" points="824.34,-82.32 815.76,-76.1 818.6,-86.31 824.34,-82.32"/>
</a>
</g>
</g>
<!-- Node8&#45;&gt;Node12 -->
<g id="edge12_Node000008_Node000012" class="edge">
<title>Node8&#45;&gt;Node12</title>
<g id="a_edge12_Node000008_Node000012"><a xlink:title=" ">
<path fill="none" stroke="#63b8ff" d="M825.98,-110.09C807.71,-101.7 780.24,-89.1 759.31,-79.49"/>
<polygon fill="#63b8ff" stroke="#63b8ff" points="760.97,-76.4 750.42,-75.41 758.05,-82.76 760.97,-76.4"/>
</a>
</g>
</g>
<!-- Node13&#45;&gt;Node3 -->
<g id="edge17_Node000013_Node000003" class="edge">
<title>Node13&#45;&gt;Node3</title>
<g id="a_edge17_Node000013_Node000003"><a xlink:title=" ">
<path fill="none" stroke="#63b8ff" d="M494.13,-220.83C496.01,-214.17 498.67,-204.74 501.05,-196.28"/>
<polygon fill="#63b8ff" stroke="#63b8ff" points="504.37,-197.39 503.72,-186.82 497.64,-195.49 504.37,-197.39"/>
</a>
</g>
</g>
<!-- Node13&#45;&gt;Node4 -->
<g id="edge18_Node000013_Node000004" class="edge">
<title>Node13&#45;&gt;Node4</title>
<g id="a_edge18_Node000013_Node000004"><a xlink:title=" ">
<path fill="none" stroke="#63b8ff" d="M484.93,-220.88C475.99,-208.1 462.44,-183.9 472.66,-165.75 499.04,-118.86 556.98,-92.12 598.54,-78.33"/>
<polygon fill="#63b8ff" stroke="#63b8ff" points="599.34,-81.75 607.81,-75.4 597.22,-75.08 599.34,-81.75"/>
</a>
</g>
</g>
<!-- Node13&#45;&gt;Node9 -->
<g id="edge29_Node000013_Node000009" class="edge">
<title>Node13&#45;&gt;Node9</title>
<g id="a_edge29_Node000013_Node000009"><a xlink:title=" ">
<path fill="none" stroke="#63b8ff" d="M474.87,-220.57C462.59,-212.91 446.86,-200.67 439.66,-185 425.83,-154.91 425.03,-140.21 439.66,-110.5 445.82,-97.98 457.37,-87.99 468.55,-80.66"/>
<polygon fill="#63b8ff" stroke="#63b8ff" points="470.06,-83.84 476.84,-75.69 466.46,-77.83 470.06,-83.84"/>
</a>
</g>
</g>
<!-- Node14 -->
<g id="Node000014" class="node">
<title>Node14</title>
<g id="a_Node000014"><a xlink:href="../../da/dab/_printer_8hpp.html" target="_top" xlink:title=" ">
<polygon fill="white" stroke="#666666" points="1017.53,-129.75 913.78,-129.75 913.78,-110.5 1017.53,-110.5 1017.53,-129.75"/>
<text text-anchor="middle" x="965.66" y="-116.25" font-family="Helvetica,sans-Serif" font-size="10.00">mimic++/Printer.hpp</text>
</a>
</g>
</g>
<!-- Node13&#45;&gt;Node14 -->
<g id="edge19_Node000013_Node000014" class="edge">
<title>Node13&#45;&gt;Node14</title>
<g id="a_edge19_Node000013_Node000014"><a xlink:title=" ">
<path fill="none" stroke="#63b8ff" d="M500.33,-220.75C514.97,-206.39 546.18,-178.41 578.66,-165.75 711.16,-114.11 757.75,-146.29 902.38,-129.94"/>
<polygon fill="#63b8ff" stroke="#63b8ff" points="902.41,-133.46 911.93,-128.8 901.58,-126.51 902.41,-133.46"/>
</a>
</g>
</g>
<!-- Node18 -->
<g id="Node000018" class="node">
<title>Node18</title>
<g id="a_Node000018"><a xlink:title=" ">
<polygon fill="#e0e0e0" stroke="#999999" points="813.53,-185 757.78,-185 757.78,-165.75 813.53,-165.75 813.53,-185"/>
<text text-anchor="middle" x="785.66" y="-171.5" font-family="Helvetica,sans-Serif" font-size="10.00">algorithm</text>
</a>
</g>
</g>
<!-- Node13&#45;&gt;Node18 -->
<g id="edge28_Node000013_Node000018" class="edge">
<title>Node13&#45;&gt;Node18</title>
<g id="a_edge28_Node000013_Node000018"><a xlink:title=" ">
<path fill="none" stroke="#63b8ff" d="M527.41,-223.15C582.82,-213.11 689,-193.88 746.44,-183.48"/>
<polygon fill="#63b8ff" stroke="#63b8ff" points="746.88,-186.96 756.1,-181.73 745.63,-180.07 746.88,-186.96"/>
</a>
</g>
</g>
<!-- Node19 -->
<g id="Node000019" class="node">
<title>Node19</title>
<g id="a_Node000019"><a xlink:title=" ">
<polygon fill="#e0e0e0" stroke="#999999" points="387.28,-185 330.03,-185 330.03,-165.75 387.28,-165.75 387.28,-185"/>
<text text-anchor="middle" x="358.66" y="-171.5" font-family="Helvetica,sans-Serif" font-size="10.00">exception</text>
</a>
</g>
</g>
<!-- Node13&#45;&gt;Node19 -->
<g id="edge30_Node000013_Node000019" class="edge">
<title>Node13&#45;&gt;Node19</title>
<g id="a_edge30_Node000013_Node000019"><a xlink:title=" ">
<path fill="none" stroke="#63b8ff" d="M469.1,-220.59C447.89,-212.1 415.89,-199.29 391.78,-189.64"/>
<polygon fill="#63b8ff" stroke="#63b8ff" points="393.32,-186.48 382.74,-186.02 390.72,-192.98 393.32,-186.48"/>
</a>
</g>
</g>
<!-- Node20 -->
<g id="Node000020" class="node">
<title>Node20</title>
<g id="a_Node000020"><a xlink:title=" ">
<polygon fill="#e0e0e0" stroke="#999999" points="1001.66,-185 943.66,-185 943.66,-165.75 1001.66,-165.75 1001.66,-185"/>
<text text-anchor="middle" x="972.66" y="-171.5" font-family="Helvetica,sans-Serif" font-size="10.00">functional</text>
</a>
</g>
</g>
<!-- Node13&#45;&gt;Node20 -->
<g id="edge31_Node000013_Node000020" class="edge">
<title>Node13&#45;&gt;Node20</title>
<g id="a_edge31_Node000013_Node000020"><a xlink:title=" ">
<path fill="none" stroke="#63b8ff" d="M527.42,-225.72C598.01,-218.02 760.28,-200.25 896.66,-185 908.24,-183.7 920.81,-182.28 932.33,-180.98"/>
<polygon fill="#63b8ff" stroke="#63b8ff" points="932.38,-184.49 941.92,-179.89 931.59,-177.54 932.38,-184.49"/>
</a>
</g>
</g>
<!-- Node13&#45;&gt;Node21 -->
<g id="edge32_Node000013_Node000021" class="edge">
<title>Node13&#45;&gt;Node21</title>
<g id="a_edge32_Node000013_Node000021"><a xlink:title=" ">
<path fill="none" stroke="#63b8ff" d="M456.15,-222.48C453.28,-221.96 450.42,-221.46 447.66,-221 334.8,-202.23 302.41,-207.21 187.24,-185.31"/>
<polygon fill="#63b8ff" stroke="#63b8ff" points="188.18,-181.93 177.69,-183.47 186.85,-188.8 188.18,-181.93"/>
</a>
</g>
</g>
<!-- Node22 -->
<g id="Node000022" class="node">
<title>Node22</title>
<g id="a_Node000022"><a xlink:title=" ">
<polygon fill="#e0e0e0" stroke="#999999" points="701.53,-185 651.78,-185 651.78,-165.75 701.53,-165.75 701.53,-185"/>
<text text-anchor="middle" x="676.66" y="-171.5" font-family="Helvetica,sans-Serif" font-size="10.00">optional</text>
</a>
</g>
</g>
<!-- Node13&#45;&gt;Node22 -->
<g id="edge33_Node000013_Node000022" class="edge">
<title>Node13&#45;&gt;Node22</title>
<g id="a_edge33_Node000013_Node000022"><a xlink:title=" ">
<path fill="none" stroke="#63b8ff" d="M523.04,-220.59C555.55,-211.23 606.29,-196.63 640.47,-186.79"/>
<polygon fill="#63b8ff" stroke="#63b8ff" points="641.28,-190.2 649.92,-184.07 639.34,-183.47 641.28,-190.2"/>
</a>
</g>
</g>
<!-- Node13&#45;&gt;Node23 -->
<g id="edge34_Node000013_Node000023" class="edge">
<title>Node13&#45;&gt;Node23</title>
<g id="a_edge34_Node000013_Node000023"><a xlink:title=" ">
<path fill="none" stroke="#63b8ff" d="M511.84,-220.59C530.56,-212.22 558.68,-199.63 580.14,-190.03"/>
<polygon fill="#63b8ff" stroke="#63b8ff" points="581.29,-193.35 588.99,-186.07 578.43,-186.96 581.29,-193.35"/>
</a>
</g>
</g>
<!-- Node24 -->
<g id="Node000024" class="node">
<title>Node24</title>
<g id="a_Node000024"><a xlink:title=" ">
<polygon fill="#e0e0e0" stroke="#999999" points="311.91,-185 255.41,-185 255.41,-165.75 311.91,-165.75 311.91,-185"/>
<text text-anchor="middle" x="283.66" y="-171.5" font-family="Helvetica,sans-Serif" font-size="10.00">typeindex</text>
</a>
</g>
</g>
<!-- Node13&#45;&gt;Node24 -->
<g id="edge35_Node000013_Node000024" class="edge">
<title>Node13&#45;&gt;Node24</title>
<g id="a_edge35_Node000013_Node000024"><a xlink:title=" ">
<path fill="none" stroke="#63b8ff" d="M456.37,-220.59C419.45,-211.14 361.61,-196.33 323.18,-186.49"/>
<polygon fill="#63b8ff" stroke="#63b8ff" points="324.43,-183.2 313.87,-184.11 322.69,-189.98 324.43,-183.2"/>
</a>
</g>
</g>
<!-- Node13&#45;&gt;Node25 -->
<g id="edge36_Node000013_Node000025" class="edge">
<title>Node13&#45;&gt;Node25</title>
<g id="a_edge36_Node000013_Node000025"><a xlink:title=" ">
<path fill="none" stroke="#63b8ff" d="M456.13,-222.61C453.26,-222.06 450.41,-221.52 447.66,-221 361.94,-204.92 337.06,-205.14 248.71,-185.28"/>
<polygon fill="#63b8ff" stroke="#63b8ff" points="249.61,-181.9 239.08,-183.09 248.06,-188.72 249.61,-181.9"/>
</a>
</g>
</g>
<!-- Node14&#45;&gt;Node4 -->
<g id="edge20_Node000014_Node000004" class="edge">
<title>Node14&#45;&gt;Node4</title>
<g id="a_edge20_Node000014_Node000004"><a xlink:title=" ">
<path fill="none" stroke="#63b8ff" d="M913.53,-110.45C856.13,-100.9 764.06,-85.58 704.21,-75.62"/>
<polygon fill="#63b8ff" stroke="#63b8ff" points="704.99,-72.2 694.55,-74.01 703.84,-79.11 704.99,-72.2"/>
</a>
</g>
</g>
<!-- Node14&#45;&gt;Node5 -->
<g id="edge25_Node000014_Node000005" class="edge">
<title>Node14&#45;&gt;Node5</title>
<g id="a_edge25_Node000014_Node000005"><a xlink:title=" ">
<path fill="none" stroke="#63b8ff" d="M978.5,-110.08C995,-97.36 1019.9,-73.68 1005.66,-55.25 988.78,-33.4 911.1,-20.21 866.46,-14.31"/>
<polygon fill="#63b8ff" stroke="#63b8ff" points="866.95,-10.85 856.59,-13.06 866.07,-17.79 866.95,-10.85"/>
</a>
</g>
</g>
<!-- Node14&#45;&gt;Node10 -->
<g id="edge21_Node000014_Node000010" class="edge">
<title>Node14&#45;&gt;Node10</title>
<g id="a_edge21_Node000014_Node000010"><a xlink:title=" ">
<path fill="none" stroke="#63b8ff" d="M952.94,-110.09C941.94,-102.29 925.82,-90.84 912.73,-81.54"/>
<polygon fill="#63b8ff" stroke="#63b8ff" points="914.86,-78.76 904.68,-75.83 910.8,-84.47 914.86,-78.76"/>
</a>
</g>
</g>
<!-- Node14&#45;&gt;Node11 -->
<g id="edge23_Node000014_Node000011" class="edge">
<title>Node14&#45;&gt;Node11</title>
<g id="a_edge23_Node000014_Node000011"><a xlink:title=" ">
<path fill="none" stroke="#63b8ff" d="M939.02,-110.09C913.54,-101.45 874.85,-88.32 846.23,-78.62"/>
<polygon fill="#63b8ff" stroke="#63b8ff" points="847.45,-75.34 836.85,-75.44 845.2,-81.97 847.45,-75.34"/>
</a>
</g>
</g>
<!-- Node14&#45;&gt;Node12 -->
<g id="edge27_Node000014_Node000012" class="edge">
<title>Node14&#45;&gt;Node12</title>
<g id="a_edge27_Node000014_Node000012"><a xlink:title=" ">
<path fill="none" stroke="#63b8ff" d="M917.46,-110.03C877.6,-102.23 819.31,-90.18 760.22,-75"/>
<polygon fill="#63b8ff" stroke="#63b8ff" points="761.2,-71.64 750.64,-72.51 759.44,-78.41 761.2,-71.64"/>
</a>
</g>
</g>
<!-- Node15 -->
<g id="Node000015" class="node">
<title>Node15</title>
<g id="a_Node000015"><a xlink:title=" ">
<polygon fill="#e0e0e0" stroke="#999999" points="1098.66,-74.5 1052.66,-74.5 1052.66,-55.25 1098.66,-55.25 1098.66,-74.5"/>
<text text-anchor="middle" x="1075.66" y="-61" font-family="Helvetica,sans-Serif" font-size="10.00">iterator</text>
</a>
</g>
</g>
<!-- Node14&#45;&gt;Node15 -->
<g id="edge22_Node000014_Node000015" class="edge">
<title>Node14&#45;&gt;Node15</title>
<g id="a_edge22_Node000014_Node000015"><a xlink:title=" ">
<path fill="none" stroke="#63b8ff" d="M984.32,-110.09C1001.38,-101.83 1026.9,-89.48 1046.63,-79.93"/>
<polygon fill="#63b8ff" stroke="#63b8ff" points="1048.07,-83.12 1055.54,-75.61 1045.02,-76.82 1048.07,-83.12"/>
</a>
</g>
</g>
<!-- Node16 -->
<g id="Node000016" class="node">
<title>Node16</title>
<g id="a_Node000016"><a xlink:title=" ">
<polygon fill="#e0e0e0" stroke="#999999" points="1168.28,-74.5 1117.03,-74.5 1117.03,-55.25 1168.28,-55.25 1168.28,-74.5"/>
<text text-anchor="middle" x="1142.66" y="-61" font-family="Helvetica,sans-Serif" font-size="10.00">sstream</text>
</a>
</g>
</g>
<!-- Node14&#45;&gt;Node16 -->
<g id="edge24_Node000014_Node000016" class="edge">
<title>Node14&#45;&gt;Node16</title>
<g id="a_edge24_Node000014_Node000016"><a xlink:title=" ">
<path fill="none" stroke="#63b8ff" d="M995.68,-110.09C1026.12,-100.93 1073.27,-86.75 1105.92,-76.93"/>
<polygon fill="#63b8ff" stroke="#63b8ff" points="1106.79,-80.32 1115.36,-74.09 1104.78,-73.62 1106.79,-80.32"/>
</a>
</g>
</g>
<!-- Node17 -->
<g id="Node000017" class="node">
<title>Node17</title>
<g id="a_Node000017"><a xlink:title=" ">
<polygon fill="#e0e0e0" stroke="#999999" points="996.41,-74.5 930.91,-74.5 930.91,-55.25 996.41,-55.25 996.41,-74.5"/>
<text text-anchor="middle" x="963.66" y="-61" font-family="Helvetica,sans-Serif" font-size="10.00">string_view</text>
</a>
</g>
</g>
<!-- Node14&#45;&gt;Node17 -->
<g id="edge26_Node000014_Node000017" class="edge">
<title>Node14&#45;&gt;Node17</title>
<g id="a_edge26_Node000014_Node000017"><a xlink:title=" ">
<path fill="none" stroke="#63b8ff" d="M965.33,-110.33C965.08,-103.74 964.73,-94.46 964.42,-86.07"/>
<polygon fill="#63b8ff" stroke="#63b8ff" points="967.92,-86.23 964.05,-76.37 960.93,-86.5 967.92,-86.23"/>
</a>
</g>
</g>
<!-- Node29&#45;&gt;Node2 -->
<g id="edge48_Node000029_Node000002" class="edge">
<title>Node29&#45;&gt;Node2</title>
<g id="a_edge48_Node000029_Node000002"><a xlink:title=" ">
<path fill="none" stroke="#63b8ff" d="M812.82,-386.35C779.46,-373.34 715.33,-348.96 659.66,-331.5 619.95,-319.05 574.27,-307.06 540.57,-298.65"/>
<polygon fill="#63b8ff" stroke="#63b8ff" points="541.65,-295.31 531.1,-296.31 539.96,-302.11 541.65,-295.31"/>
</a>
</g>
</g>
<!-- Node29&#45;&gt;Node30 -->
<g id="edge49_Node000029_Node000030" class="edge">
<title>Node29&#45;&gt;Node30</title>
<g id="a_edge49_Node000029_Node000030"><a xlink:title=" ">
<path fill="none" stroke="#63b8ff" d="M857.54,-386.34C878.02,-377.89 908.87,-365.15 932.21,-355.52"/>
<polygon fill="#63b8ff" stroke="#63b8ff" points="933.36,-358.83 941.27,-351.78 930.69,-352.36 933.36,-358.83"/>
</a>
</g>
</g>
<!-- Node30&#45;&gt;Node2 -->
<g id="edge50_Node000030_Node000002" class="edge">
<title>Node30&#45;&gt;Node2</title>
<g id="a_edge50_Node000030_Node000002"><a xlink:title=" ">
<path fill="none" stroke="#63b8ff" d="M884.42,-331.09C795.38,-321.07 652.84,-305.02 566.17,-295.26"/>
<polygon fill="#63b8ff" stroke="#63b8ff" points="566.68,-291.8 556.35,-294.16 565.9,-298.75 566.68,-291.8"/>
</a>
</g>
</g>
<!-- Node30&#45;&gt;Node8 -->
<g id="edge62_Node000030_Node000008" class="edge">
<title>Node30&#45;&gt;Node8</title>
<g id="a_edge62_Node000030_Node000008"><a xlink:title=" ">
<path fill="none" stroke="#63b8ff" d="M1044.92,-332.07C1092.71,-325.44 1146.86,-314.03 1161.66,-295.5 1197.65,-250.44 1199.5,-209.26 1161.66,-165.75 1125.81,-124.53 978.49,-136.43 907.06,-129.78"/>
<polygon fill="#63b8ff" stroke="#63b8ff" points="907.71,-126.33 897.37,-128.66 906.9,-133.29 907.71,-126.33"/>
</a>
</g>
</g>
<!-- Node30&#45;&gt;Node9 -->
<g id="edge63_Node000030_Node000009" class="edge">
<title>Node30&#45;&gt;Node9</title>
<g id="a_edge63_Node000030_Node000009"><a xlink:title=" ">
<path fill="none" stroke="#63b8ff" d="M985.09,-331.18C1040.69,-305.68 1186.77,-230.3 1128.66,-165.75 1077.53,-108.95 862.09,-142.02 786.66,-129.75 694.52,-114.77 587.61,-88.88 533.3,-75.11"/>
<polygon fill="#63b8ff" stroke="#63b8ff" points="534.24,-71.74 523.68,-72.66 532.51,-78.52 534.24,-71.74"/>
</a>
</g>
</g>
<!-- Node30&#45;&gt;Node14 -->
<g id="edge61_Node000030_Node000014" class="edge">
<title>Node30&#45;&gt;Node14</title>
<g id="a_edge61_Node000030_Node000014"><a xlink:title=" ">
<path fill="none" stroke="#63b8ff" d="M1044.95,-338.14C1116.41,-334.47 1213.28,-324.18 1237.66,-295.5 1275,-251.56 1274.99,-209.7 1237.66,-165.75 1211.41,-134.85 1100.76,-125.3 1028.92,-122.38"/>
<polygon fill="#63b8ff" stroke="#63b8ff" points="1029.38,-118.9 1019.26,-122.02 1029.12,-125.89 1029.38,-118.9"/>
</a>
</g>
</g>
<!-- Node30&#45;&gt;Node20 -->
<g id="edge64_Node000030_Node000020" class="edge">
<title>Node30&#45;&gt;Node20</title>
<g id="a_edge64_Node000030_Node000020"><a xlink:title=" ">
<path fill="none" stroke="#63b8ff" d="M965.09,-331.32C966.33,-306 969.92,-232.5 971.67,-196.59"/>
<polygon fill="#63b8ff" stroke="#63b8ff" points="975.16,-196.89 972.15,-186.73 968.17,-196.55 975.16,-196.89"/>
</a>
</g>
</g>
<!-- Node31 -->
<g id="Node000031" class="node">
<title>Node31</title>
<g id="a_Node000031"><a xlink:href="../../dd/d50/_matcher_8hpp.html" target="_top" xlink:title=" ">
<polygon fill="white" stroke="#666666" points="957.91,-240.25 847.41,-240.25 847.41,-221 957.91,-221 957.91,-240.25"/>
<text text-anchor="middle" x="902.66" y="-226.75" font-family="Helvetica,sans-Serif" font-size="10.00">mimic++/Matcher.hpp</text>
</a>
</g>
</g>
<!-- Node30&#45;&gt;Node31 -->
<g id="edge51_Node000030_Node000031" class="edge">
<title>Node30&#45;&gt;Node31</title>
<g id="a_edge51_Node000030_Node000031"><a xlink:title=" ">
<path fill="none" stroke="#63b8ff" d="M959.58,-331.25C949.55,-313.68 926.96,-274.16 913.45,-250.52"/>
<polygon fill="#63b8ff" stroke="#63b8ff" points="916.55,-248.89 908.55,-241.94 910.48,-252.36 916.55,-248.89"/>
</a>
</g>
</g>
<!-- Node31&#45;&gt;Node7 -->
<g id="edge59_Node000031_Node000007" class="edge">
<title>Node31&#45;&gt;Node7</title>
<g id="a_edge59_Node000031_Node000007"><a xlink:title=" ">
<path fill="none" stroke="#63b8ff" d="M904.86,-220.83C907.72,-207.08 910.82,-180.57 896.66,-165.75 856.82,-124.05 696.74,-137.99 639.66,-129.75 489.25,-108.04 309.43,-80.97 239.51,-70.4"/>
<polygon fill="#63b8ff" stroke="#63b8ff" points="240.42,-66.99 230.01,-68.96 239.37,-73.92 240.42,-66.99"/>
</a>
</g>
</g>
<!-- Node31&#45;&gt;Node8 -->
<g id="edge53_Node000031_Node000008" class="edge">
<title>Node31&#45;&gt;Node8</title>
<g id="a_edge53_Node000031_Node000008"><a xlink:title=" ">
<path fill="none" stroke="#63b8ff" d="M947.95,-220.54C986.12,-210.78 1031.45,-192.91 1010.66,-165.75 1003.76,-156.73 946.15,-142.55 900.92,-132.6"/>
<polygon fill="#63b8ff" stroke="#63b8ff" points="901.72,-129.19 891.2,-130.49 900.23,-136.03 901.72,-129.19"/>
</a>
</g>
</g>
<!-- Node31&#45;&gt;Node14 -->
<g id="edge52_Node000031_Node000014" class="edge">
<title>Node31&#45;&gt;Node14</title>
<g id="a_edge52_Node000031_Node000014"><a xlink:title=" ">
<path fill="none" stroke="#63b8ff" d="M958.19,-226.53C1018.01,-221.9 1107.49,-210.76 1128.66,-185 1159.69,-147.25 1087.44,-131.72 1029.41,-125.39"/>
<polygon fill="#63b8ff" stroke="#63b8ff" points="1029.84,-121.92 1019.53,-124.4 1029.13,-128.88 1029.84,-121.92"/>
</a>
</g>
</g>
<!-- Node31&#45;&gt;Node18 -->
<g id="edge54_Node000031_Node000018" class="edge">
<title>Node31&#45;&gt;Node18</title>
<g id="a_edge54_Node000031_Node000018"><a xlink:title=" ">
<path fill="none" stroke="#63b8ff" d="M882.81,-220.59C864.49,-212.25 837.01,-199.75 815.95,-190.16"/>
<polygon fill="#63b8ff" stroke="#63b8ff" points="817.53,-187.04 806.98,-186.08 814.63,-193.41 817.53,-187.04"/>
</a>
</g>
</g>
<!-- Node31&#45;&gt;Node20 -->
<g id="edge56_Node000031_Node000020" class="edge">
<title>Node31&#45;&gt;Node20</title>
<g id="a_edge56_Node000031_Node000020"><a xlink:title=" ">
<path fill="none" stroke="#63b8ff" d="M914.53,-220.59C924.75,-212.82 939.73,-201.42 951.92,-192.15"/>
<polygon fill="#63b8ff" stroke="#63b8ff" points="953.91,-195.03 959.75,-186.19 949.68,-189.46 953.91,-195.03"/>
</a>
</g>
</g>
<!-- Node31&#45;&gt;Node22 -->
<g id="edge57_Node000031_Node000022" class="edge">
<title>Node31&#45;&gt;Node22</title>
<g id="a_edge57_Node000031_Node000022"><a xlink:title=" ">
<path fill="none" stroke="#63b8ff" d="M864.06,-220.53C821.75,-210.56 754.37,-194.69 712.98,-184.93"/>
<polygon fill="#63b8ff" stroke="#63b8ff" points="713.79,-181.53 703.26,-182.64 712.19,-188.34 713.79,-181.53"/>
</a>
</g>
</g>
<!-- Node31&#45;&gt;Node23 -->
<g id="edge58_Node000031_Node000023" class="edge">
<title>Node31&#45;&gt;Node23</title>
<g id="a_edge58_Node000031_Node000023"><a xlink:title=" ">
<path fill="none" stroke="#63b8ff" d="M847.08,-221.62C796.72,-214.03 720.24,-201.64 644.79,-185.29"/>
<polygon fill="#63b8ff" stroke="#63b8ff" points="645.66,-181.9 635.15,-183.18 644.16,-188.74 645.66,-181.9"/>
</a>
</g>
</g>
<!-- Node31&#45;&gt;Node26 -->
<g id="edge55_Node000031_Node000026" class="edge">
<title>Node31&#45;&gt;Node26</title>
<g id="a_edge55_Node000031_Node000026"><a xlink:title=" ">
<path fill="none" stroke="#63b8ff" d="M895.56,-220.83C889.74,-213.63 881.32,-203.21 874.1,-194.26"/>
<polygon fill="#63b8ff" stroke="#63b8ff" points="876.87,-192.12 867.86,-186.54 871.42,-196.52 876.87,-192.12"/>
</a>
</g>
</g>
<!-- Node32 -->
<g id="Node000032" class="node">
<title>Node32</title>
<g id="a_Node000032"><a xlink:title=" ">
<polygon fill="#e0e0e0" stroke="#999999" points="1119.16,-185 1058.16,-185 1058.16,-165.75 1119.16,-165.75 1119.16,-185"/>
<text text-anchor="middle" x="1088.66" y="-171.5" font-family="Helvetica,sans-Serif" font-size="10.00">type_traits</text>
</a>
</g>
</g>
<!-- Node31&#45;&gt;Node32 -->
<g id="edge60_Node000031_Node000032" class="edge">
<title>Node31&#45;&gt;Node32</title>
<g id="a_edge60_Node000031_Node000032"><a xlink:title=" ">
<path fill="none" stroke="#63b8ff" d="M934.21,-220.59C965.22,-211.71 1012.72,-198.11 1046.86,-188.34"/>
<polygon fill="#63b8ff" stroke="#63b8ff" points="1047.77,-191.72 1056.43,-185.6 1045.85,-184.99 1047.77,-191.72"/>
</a>
</g>
</g>
</g>
</svg>
