<?xml version="1.0" encoding="UTF-8" standalone="no"?>
<!DOCTYPE svg PUBLIC "-//W3C//DTD SVG 1.1//EN"
 "http://www.w3.org/Graphics/SVG/1.1/DTD/svg11.dtd">
<!-- Generated by graphviz version 12.1.2 (20240928.0832)
 -->
<!-- Title: mimicpp::signature_return_type&lt; Signature &gt; Pages: 1 -->
<svg width="219pt" height="139pt"
 viewBox="0.00 0.00 218.91 138.75" xmlns="http://www.w3.org/2000/svg" xmlns:xlink="http://www.w3.org/1999/xlink">
<g id="graph0" class="graph" transform="scale(1 1) rotate(0) translate(4 134.75)">
<title>mimicpp::signature_return_type&lt; Signature &gt;</title>
<!-- Node1 -->
<g id="Node000001" class="node">
<title>Node1</title>
<g id="a_Node000001"><a xlink:title=" ">
<polygon fill="#999999" stroke="#666666" points="180.04,-130.75 53.04,-130.75 53.04,-100.25 180.04,-100.25 180.04,-130.75"/>
<text text-anchor="start" x="61.04" y="-117.25" font-family="Helvetica,sans-Serif" font-size="10.00">mimicpp::signature</text>
<text text-anchor="middle" x="116.54" y="-106" font-family="Helvetica,sans-Serif" font-size="10.00">_return_type&lt; Signature &gt;</text>
</a>
</g>
</g>
<!-- Node2 -->
<g id="Node000002" class="node">
<title>Node2</title>
<g id="a_Node000002"><a xlink:href="../../d4/d96/structmimicpp_1_1signature__return__type.html" target="_top" xlink:title=" ">
<polygon fill="white" stroke="#666666" points="177.04,-41.75 56.04,-41.75 56.04,0 177.04,0 177.04,-41.75"/>
<text text-anchor="start" x="64.04" y="-28.25" font-family="Helvetica,sans-Serif" font-size="10.00">mimicpp::signature</text>
<text text-anchor="start" x="64.04" y="-17" font-family="Helvetica,sans-Serif" font-size="10.00">_return_type&lt; signature</text>
<text text-anchor="middle" x="116.54" y="-5.75" font-family="Helvetica,sans-Serif" font-size="10.00">_decay_t&lt; Signature &gt; &gt;</text>
</a>
</g>
</g>
<!-- Node1&#45;&gt;Node2 -->
<g id="edge2_Node000002_Node000001" class="edge">
<title>Node1&#45;&gt;Node2</title>
<g id="a_edge2_Node000002_Node000001"><a xlink:title=" ">
<path fill="none" stroke="orange" stroke-dasharray="5,2" d="M41.64,-106.92C27.47,-101.97 14.28,-94.23 5.29,-82.25 -12.93,-58 20.82,-42.35 55.81,-33.08"/>
<polygon fill="orange" stroke="orange" points="40.58,-110.25 51.17,-109.75 42.58,-103.55 40.58,-110.25"/>
</a>
</g>
<text text-anchor="start" x="5.29" y="-72.75" font-family="Helvetica,sans-Serif" font-size="10.00" fill="grey"> &lt; signature_decay_t</text>
<text text-anchor="middle" x="49.91" y="-61.5" font-family="Helvetica,sans-Serif" font-size="10.00" fill="grey">&lt; Signature &gt; &gt;</text>
</g>
<!-- Node1&#45;&gt;Node2 -->
<g id="edge3_Node000001_Node000002" class="edge">
<title>Node1&#45;&gt;Node2</title>
<g id="a_edge3_Node000001_Node000002"><a xlink:title=" ">
<path fill="none" stroke="orange" stroke-dasharray="5,2" d="M113.67,-88.3C113.52,-86.26 113.38,-84.22 113.29,-82.25 112.78,-72.26 112.86,-69.74 113.29,-59.75 113.53,-53.95 114,-47.66 114.49,-41.9"/>
<polygon fill="orange" stroke="orange" points="110.19,-88.61 114.59,-98.25 117.16,-87.97 110.19,-88.61"/>
</a>
</g>
<text text-anchor="start" x="113.29" y="-72.75" font-family="Helvetica,sans-Serif" font-size="10.00" fill="grey"> &lt; signature_decay_t</text>
<text text-anchor="middle" x="157.91" y="-61.5" font-family="Helvetica,sans-Serif" font-size="10.00" fill="grey">&lt; Signature &gt; &gt;</text>
</g>
<!-- Node2&#45;&gt;Node1 -->
<g id="edge1_Node000001_Node000002" class="edge">
<title>Node2&#45;&gt;Node1</title>
<g id="a_edge1_Node000001_Node000002"><a xlink:title=" ">
<path fill="none" stroke="#63b8ff" d="M187.66,-44.42C205.8,-54.07 217.46,-66.73 206.54,-82.25 200.04,-91.48 190.64,-98.08 180.35,-102.8"/>
<polygon fill="#63b8ff" stroke="#63b8ff" points="189.25,-41.3 178.71,-40.16 186.24,-47.62 189.25,-41.3"/>
</a>
</g>
</g>
</g>
</svg>
