<?xml version="1.0" encoding="UTF-8" standalone="no"?>
<!DOCTYPE svg PUBLIC "-//W3C//DTD SVG 1.1//EN"
 "http://www.w3.org/Graphics/SVG/1.1/DTD/svg11.dtd">
<!-- Generated by graphviz version 12.2.1 (20241206.2353)
 -->
<!-- Title: mimic++/printing/type/NameParser.hpp Pages: 1 -->
<!--zoomable 349 -->

<svg id="main" version="1.1" xmlns="http://www.w3.org/2000/svg" xmlns:xlink="http://www.w3.org/1999/xlink" xml:space="preserve" onload="init(evt)">

<style type="text/css"><![CDATA[
.node, .edge {opacity: 0.7;}
.node.selected, .edge.selected {opacity: 1;}
.edge:hover path { stroke: red; }
.edge:hover polygon { stroke: red; fill: red; }
]]></style>

<defs>
  <circle id="rim" cx="0" cy="0" r="7"/>
  <circle id="rim2" cx="0" cy="0" r="3.5"/>
  <g id="zoomPlus">
    <use xlink:href="#rim" fill="#404040"><set attributeName="fill" to="#808080" begin="zoomplus.mouseover" end="zoomplus.mouseout"/></use>
    <path d="M-4,0h8M0,-4v8" fill="none" stroke="white" stroke-width="1.5" pointer-events="none"/>
  </g>
  <g id="zoomMin">
    <use xlink:href="#rim" fill="#404040"><set attributeName="fill" to="#808080" begin="zoomminus.mouseover" end="zoomminus.mouseout"/></use>
    <path d="M-4,0h8" fill="none" stroke="white" stroke-width="1.5" pointer-events="none"/>
  </g>
  <g id="arrowUp" transform="translate(30 24)">
    <use xlink:href="#rim"/>
    <path pointer-events="none" fill="none" stroke="white" stroke-width="1.5" d="M0,-3.0v7 M-2.5,-0.5L0,-3.0L2.5,-0.5"/>
  </g>
  <g id="arrowRight" transform="rotate(90) translate(36 -43)">
    <use xlink:href="#rim"/>
    <path pointer-events="none" fill="none" stroke="white" stroke-width="1.5" d="M0,-3.0v7 M-2.5,-0.5L0,-3.0L2.5,-0.5"/>
  </g>
  <g id="arrowDown" transform="rotate(180) translate(-30 -48)">
    <use xlink:href="#rim"/>
    <path pointer-events="none" fill="none" stroke="white" stroke-width="1.5" d="M0,-3.0v7 M-2.5,-0.5L0,-3.0L2.5,-0.5"/>
  </g>
  <g id="arrowLeft" transform="rotate(270) translate(-36 17)">
    <use xlink:href="#rim"/>
    <path pointer-events="none" fill="none" stroke="white" stroke-width="1.5" d="M0,-3.0v7 M-2.5,-0.5L0,-3.0L2.5,-0.5"/>
  </g>
  <g id="resetDef">
    <use xlink:href="#rim2" fill="#404040"><set attributeName="fill" to="#808080" begin="reset.mouseover" end="reset.mouseout"/></use>
  </g>
</defs>
<script type="application/ecmascript">
var viewWidth = 1728;
var viewHeight = 349;
var sectionId = 'dynsection-0';
</script>
<script type="application/ecmascript" xlink:href="../../svg.min.js"/>
<svg id="graph" class="graph">
<g id="viewport">
<title>mimic++/printing/type/NameParser.hpp</title>
<!-- Node1 -->
<g id="Node000001" class="node">
<title>Node1</title>
<g id="a_Node000001"><a xlink:title=" ">
<polygon fill="#999999" stroke="#666666" points="773.85,-340.5 664.1,-340.5 664.1,-310 773.85,-310 773.85,-340.5"/>
<text text-anchor="start" x="672.1" y="-327" font-family="Helvetica,sans-Serif" font-size="10.00">mimic++/printing/type</text>
<text text-anchor="middle" x="718.97" y="-315.75" font-family="Helvetica,sans-Serif" font-size="10.00">/NameParser.hpp</text>
</a>
</g>
</g>
<!-- Node2 -->
<g id="Node000002" class="node">
<title>Node2</title>
<g id="a_Node000002"><a xlink:href="../../df/dde/_fwd_8hpp.html" target="_top" xlink:title=" ">
<polygon fill="white" stroke="#666666" points="1036.97,-135.38 942.97,-135.38 942.97,-116.12 1036.97,-116.12 1036.97,-135.38"/>
<text text-anchor="middle" x="989.97" y="-121.88" font-family="Helvetica,sans-Serif" font-size="10.00">mimic++/Fwd.hpp</text>
</a>
</g>
</g>
<!-- Node1&#45;&gt;Node2 -->
<g id="edge1_Node000001_Node000002" class="edge">
<title>Node1&#45;&gt;Node2</title>
<g id="a_edge1_Node000001_Node000002"><a xlink:title=" ">
<path fill="none" stroke="#63b8ff" d="M774.09,-317.21C810.69,-310.54 858.54,-297.82 894.97,-274 942.62,-242.86 971.37,-178.58 983.39,-146.24"/>
<polygon fill="#63b8ff" stroke="#63b8ff" points="986.63,-147.57 986.68,-136.97 980.03,-145.23 986.63,-147.57"/>
</a>
</g>
</g>
<!-- Node3 -->
<g id="Node000003" class="node">
<title>Node3</title>
<g id="a_Node000003"><a xlink:href="../../d8/dd2/_config_8hpp.html" target="_top" xlink:title=" ">
<polygon fill="white" stroke="#666666" points="653.35,-74.5 522.6,-74.5 522.6,-55.25 653.35,-55.25 653.35,-74.5"/>
<text text-anchor="middle" x="587.97" y="-61" font-family="Helvetica,sans-Serif" font-size="10.00">mimic++/config/Config.hpp</text>
</a>
</g>
</g>
<!-- Node1&#45;&gt;Node3 -->
<g id="edge7_Node000001_Node000003" class="edge">
<title>Node1&#45;&gt;Node3</title>
<g id="a_edge7_Node000001_Node000003"><a xlink:title=" ">
<path fill="none" stroke="#63b8ff" d="M663.67,-324.2C554.18,-320.66 312.06,-294.94 215.97,-141 208.8,-129.5 206.98,-120.64 215.97,-110.5 225.67,-99.57 405.06,-82 511.12,-72.49"/>
<polygon fill="#63b8ff" stroke="#63b8ff" points="511.26,-75.99 520.91,-71.62 510.64,-69.02 511.26,-75.99"/>
</a>
</g>
</g>
<!-- Node8 -->
<g id="Node000008" class="node">
<title>Node8</title>
<g id="a_Node000008"><a xlink:href="../../db/d97/_name_lexer_8hpp.html" target="_top" xlink:title=" ">
<polygon fill="white" stroke="#666666" points="773.85,-274 664.1,-274 664.1,-243.5 773.85,-243.5 773.85,-274"/>
<text text-anchor="start" x="672.1" y="-260.5" font-family="Helvetica,sans-Serif" font-size="10.00">mimic++/printing/type</text>
<text text-anchor="middle" x="718.97" y="-249.25" font-family="Helvetica,sans-Serif" font-size="10.00">/NameLexer.hpp</text>
</a>
</g>
</g>
<!-- Node1&#45;&gt;Node8 -->
<g id="edge8_Node000001_Node000008" class="edge">
<title>Node1&#45;&gt;Node8</title>
<g id="a_edge8_Node000001_Node000008"><a xlink:title=" ">
<path fill="none" stroke="#63b8ff" d="M718.97,-309.61C718.97,-302.52 718.97,-293.79 718.97,-285.63"/>
<polygon fill="#63b8ff" stroke="#63b8ff" points="722.47,-285.84 718.97,-275.84 715.47,-285.84 722.47,-285.84"/>
</a>
</g>
</g>
<!-- Node12 -->
<g id="Node000012" class="node">
<title>Node12</title>
<g id="a_Node000012"><a xlink:title=" ">
<polygon fill="#e0e0e0" stroke="#999999" points="384.97,-74.5 338.97,-74.5 338.97,-55.25 384.97,-55.25 384.97,-74.5"/>
<text text-anchor="middle" x="361.97" y="-61" font-family="Helvetica,sans-Serif" font-size="10.00">iterator</text>
</a>
</g>
</g>
<!-- Node1&#45;&gt;Node12 -->
<g id="edge70_Node000001_Node000012" class="edge">
<title>Node1&#45;&gt;Node12</title>
<g id="a_edge70_Node000001_Node000012"><a xlink:title=" ">
<path fill="none" stroke="#63b8ff" d="M663.67,-322.85C517.16,-318.74 126.85,-304.98 77.97,-274 13.22,-232.95 -27.58,-168.14 22.97,-110.5 42.86,-87.82 244.87,-73.02 327.26,-67.89"/>
<polygon fill="#63b8ff" stroke="#63b8ff" points="327.24,-71.4 337.01,-67.29 326.81,-64.41 327.24,-71.4"/>
</a>
</g>
</g>
<!-- Node13 -->
<g id="Node000013" class="node">
<title>Node13</title>
<g id="a_Node000013"><a xlink:title=" ">
<polygon fill="#e0e0e0" stroke="#999999" points="464.47,-74.5 403.47,-74.5 403.47,-55.25 464.47,-55.25 464.47,-74.5"/>
<text text-anchor="middle" x="433.97" y="-61" font-family="Helvetica,sans-Serif" font-size="10.00">type_traits</text>
</a>
</g>
</g>
<!-- Node1&#45;&gt;Node13 -->
<g id="edge71_Node000001_Node000013" class="edge">
<title>Node1&#45;&gt;Node13</title>
<g id="a_edge71_Node000001_Node000013"><a xlink:title=" ">
<path fill="none" stroke="#63b8ff" d="M663.78,-322.26C525.13,-316.89 170.03,-300.68 123.97,-274 61.78,-237.98 53.39,-209.61 31.97,-141 27.94,-128.06 22.88,-120.55 31.97,-110.5 84.06,-52.97 296.14,-84.27 391.7,-74.37"/>
<polygon fill="#63b8ff" stroke="#63b8ff" points="392.06,-77.86 401.53,-73.1 391.16,-70.91 392.06,-77.86"/>
</a>
</g>
</g>
<!-- Node15 -->
<g id="Node000015" class="node">
<title>Node15</title>
<g id="a_Node000015"><a xlink:title=" ">
<polygon fill="#e0e0e0" stroke="#999999" points="768.47,-135.38 731.47,-135.38 731.47,-116.12 768.47,-116.12 768.47,-135.38"/>
<text text-anchor="middle" x="749.97" y="-121.88" font-family="Helvetica,sans-Serif" font-size="10.00">array</text>
</a>
</g>
</g>
<!-- Node1&#45;&gt;Node15 -->
<g id="edge68_Node000001_Node000015" class="edge">
<title>Node1&#45;&gt;Node15</title>
<g id="a_edge68_Node000001_Node000015"><a xlink:title=" ">
<path fill="none" stroke="#63b8ff" d="M774.04,-311.3C825.33,-296 898.84,-265 932.97,-207.5 939.89,-195.84 941.41,-187.61 932.97,-177 888.68,-121.32 843.66,-165.81 776.97,-141 776.49,-140.82 776,-140.63 775.52,-140.44"/>
<polygon fill="#63b8ff" stroke="#63b8ff" points="777.28,-137.4 766.74,-136.38 774.35,-143.75 777.28,-137.4"/>
</a>
</g>
</g>
<!-- Node16 -->
<g id="Node000016" class="node">
<title>Node16</title>
<g id="a_Node000016"><a xlink:title=" ">
<polygon fill="#e0e0e0" stroke="#999999" points="366.97,-135.38 308.97,-135.38 308.97,-116.12 366.97,-116.12 366.97,-135.38"/>
<text text-anchor="middle" x="337.97" y="-121.88" font-family="Helvetica,sans-Serif" font-size="10.00">functional</text>
</a>
</g>
</g>
<!-- Node1&#45;&gt;Node16 -->
<g id="edge69_Node000001_Node000016" class="edge">
<title>Node1&#45;&gt;Node16</title>
<g id="a_edge69_Node000001_Node000016"><a xlink:title=" ">
<path fill="none" stroke="#63b8ff" d="M665.48,-309.56C604.32,-291.33 502.65,-256.53 424.97,-207.5 396.63,-189.61 369.19,-161.86 352.94,-143.99"/>
<polygon fill="#63b8ff" stroke="#63b8ff" points="355.79,-141.93 346.52,-136.79 350.56,-146.59 355.79,-141.93"/>
</a>
</g>
</g>
<!-- Node22 -->
<g id="Node000022" class="node">
<title>Node22</title>
<g id="a_Node000022"><a xlink:title=" ">
<polygon fill="#e0e0e0" stroke="#999999" points="1374.6,-135.38 1329.35,-135.38 1329.35,-116.12 1374.6,-116.12 1374.6,-135.38"/>
<text text-anchor="middle" x="1351.97" y="-121.88" font-family="Helvetica,sans-Serif" font-size="10.00">variant</text>
</a>
</g>
</g>
<!-- Node1&#45;&gt;Node22 -->
<g id="edge72_Node000001_Node000022" class="edge">
<title>Node1&#45;&gt;Node22</title>
<g id="a_edge72_Node000001_Node000022"><a xlink:title=" ">
<path fill="none" stroke="#63b8ff" d="M774.13,-324.14C923.13,-323.28 1325.22,-316.96 1364.97,-274 1397.42,-238.94 1375.81,-177.01 1361.6,-145.83"/>
<polygon fill="#63b8ff" stroke="#63b8ff" points="1364.94,-144.71 1357.47,-137.2 1358.63,-147.73 1364.94,-144.71"/>
</a>
</g>
</g>
<!-- Node23 -->
<g id="Node000023" class="node">
<title>Node23</title>
<g id="a_Node000023"><a xlink:href="../../d4/d64/_name_parser_reductions_8hpp.html" target="_top" xlink:title=" ">
<polygon fill="white" stroke="#666666" points="1356.22,-274 1215.72,-274 1215.72,-243.5 1356.22,-243.5 1356.22,-274"/>
<text text-anchor="start" x="1223.72" y="-260.5" font-family="Helvetica,sans-Serif" font-size="10.00">mimic++/printing/type</text>
<text text-anchor="middle" x="1285.97" y="-249.25" font-family="Helvetica,sans-Serif" font-size="10.00">/NameParserReductions.hpp</text>
</a>
</g>
</g>
<!-- Node1&#45;&gt;Node23 -->
<g id="edge36_Node000001_Node000023" class="edge">
<title>Node1&#45;&gt;Node23</title>
<g id="a_edge36_Node000001_Node000023"><a xlink:title=" ">
<path fill="none" stroke="#63b8ff" d="M774.11,-317.98C874.3,-306.58 1086.67,-282.42 1203.92,-269.08"/>
<polygon fill="#63b8ff" stroke="#63b8ff" points="1204.27,-272.57 1213.81,-267.96 1203.48,-265.61 1204.27,-272.57"/>
</a>
</g>
</g>
<!-- Node24 -->
<g id="Node000024" class="node">
<title>Node24</title>
<g id="a_Node000024"><a xlink:href="../../d6/d81/_name_parser_tokens_8hpp.html" target="_top" xlink:title=" ">
<polygon fill="white" stroke="#666666" points="1179.97,-207.5 1055.97,-207.5 1055.97,-177 1179.97,-177 1179.97,-207.5"/>
<text text-anchor="start" x="1063.97" y="-194" font-family="Helvetica,sans-Serif" font-size="10.00">mimic++/printing/type</text>
<text text-anchor="middle" x="1117.97" y="-182.75" font-family="Helvetica,sans-Serif" font-size="10.00">/NameParserTokens.hpp</text>
</a>
</g>
</g>
<!-- Node1&#45;&gt;Node24 -->
<g id="edge63_Node000001_Node000024" class="edge">
<title>Node1&#45;&gt;Node24</title>
<g id="a_edge63_Node000001_Node000024"><a xlink:title=" ">
<path fill="none" stroke="#63b8ff" d="M774.29,-321.68C833.23,-317.33 928.28,-305.59 1003.97,-274 1038.05,-259.78 1071.92,-233.91 1093.77,-215.28"/>
<polygon fill="#63b8ff" stroke="#63b8ff" points="1095.98,-217.99 1101.22,-208.79 1091.39,-212.72 1095.98,-217.99"/>
</a>
</g>
</g>
<!-- Node31 -->
<g id="Node000031" class="node">
<title>Node31</title>
<g id="a_Node000031"><a xlink:href="../../d7/d59/utilities_2_c_09_0923_backports_8hpp.html" target="_top" xlink:title=" ">
<polygon fill="white" stroke="#666666" points="141.35,-141 40.6,-141 40.6,-110.5 141.35,-110.5 141.35,-141"/>
<text text-anchor="start" x="48.6" y="-127.5" font-family="Helvetica,sans-Serif" font-size="10.00">mimic++/utilities/C</text>
<text text-anchor="middle" x="90.97" y="-116.25" font-family="Helvetica,sans-Serif" font-size="10.00">++23Backports.hpp</text>
</a>
</g>
</g>
<!-- Node1&#45;&gt;Node31 -->
<g id="edge64_Node000001_Node000031" class="edge">
<title>Node1&#45;&gt;Node31</title>
<g id="a_edge64_Node000001_Node000031"><a xlink:title=" ">
<path fill="none" stroke="#63b8ff" d="M663.65,-322.5C529.64,-317.82 195.64,-303.33 154.97,-274 115.31,-245.39 99.95,-186.83 94.21,-152.81"/>
<polygon fill="#63b8ff" stroke="#63b8ff" points="97.69,-152.35 92.73,-142.99 90.76,-153.4 97.69,-152.35"/>
</a>
</g>
</g>
<!-- Node2&#45;&gt;Node3 -->
<g id="edge2_Node000002_Node000003" class="edge">
<title>Node2&#45;&gt;Node3</title>
<g id="a_edge2_Node000002_Node000003"><a xlink:title=" ">
<path fill="none" stroke="#63b8ff" d="M953.65,-115.64C945.56,-113.79 937,-111.96 928.97,-110.5 838.83,-94.11 734.23,-81.34 664.89,-73.73"/>
<polygon fill="#63b8ff" stroke="#63b8ff" points="665.47,-70.27 655.15,-72.67 664.71,-77.23 665.47,-70.27"/>
</a>
</g>
</g>
<!-- Node6 -->
<g id="Node000006" class="node">
<title>Node6</title>
<g id="a_Node000006"><a xlink:title=" ">
<polygon fill="#e0e0e0" stroke="#999999" points="1009.97,-74.5 969.97,-74.5 969.97,-55.25 1009.97,-55.25 1009.97,-74.5"/>
<text text-anchor="middle" x="989.97" y="-61" font-family="Helvetica,sans-Serif" font-size="10.00">string</text>
</a>
</g>
</g>
<!-- Node2&#45;&gt;Node6 -->
<g id="edge5_Node000002_Node000006" class="edge">
<title>Node2&#45;&gt;Node6</title>
<g id="a_edge5_Node000002_Node000006"><a xlink:title=" ">
<path fill="none" stroke="#63b8ff" d="M989.97,-115.81C989.97,-108.03 989.97,-96.45 989.97,-86.41"/>
<polygon fill="#63b8ff" stroke="#63b8ff" points="993.47,-86.41 989.97,-76.41 986.47,-86.41 993.47,-86.41"/>
</a>
</g>
</g>
<!-- Node7 -->
<g id="Node000007" class="node">
<title>Node7</title>
<g id="a_Node000007"><a xlink:title=" ">
<polygon fill="#e0e0e0" stroke="#999999" points="844.72,-74.5 779.22,-74.5 779.22,-55.25 844.72,-55.25 844.72,-74.5"/>
<text text-anchor="middle" x="811.97" y="-61" font-family="Helvetica,sans-Serif" font-size="10.00">string_view</text>
</a>
</g>
</g>
<!-- Node2&#45;&gt;Node7 -->
<g id="edge6_Node000002_Node000007" class="edge">
<title>Node2&#45;&gt;Node7</title>
<g id="a_edge6_Node000002_Node000007"><a xlink:title=" ">
<path fill="none" stroke="#63b8ff" d="M962.55,-115.68C932.5,-105.74 884.08,-89.72 850.28,-78.54"/>
<polygon fill="#63b8ff" stroke="#63b8ff" points="851.46,-75.25 840.87,-75.43 849.26,-81.89 851.46,-75.25"/>
</a>
</g>
</g>
<!-- Node4 -->
<g id="Node000004" class="node">
<title>Node4</title>
<g id="a_Node000004"><a xlink:title=" ">
<polygon fill="#e0e0e0" stroke="#999999" points="610.6,-19.25 565.35,-19.25 565.35,0 610.6,0 610.6,-19.25"/>
<text text-anchor="middle" x="587.97" y="-5.75" font-family="Helvetica,sans-Serif" font-size="10.00">cstdint</text>
</a>
</g>
</g>
<!-- Node3&#45;&gt;Node4 -->
<g id="edge3_Node000003_Node000004" class="edge">
<title>Node3&#45;&gt;Node4</title>
<g id="a_edge3_Node000003_Node000004"><a xlink:title=" ">
<path fill="none" stroke="#63b8ff" d="M587.97,-55.08C587.97,-48.57 587.97,-39.42 587.97,-31.12"/>
<polygon fill="#63b8ff" stroke="#63b8ff" points="591.47,-31.12 587.97,-21.12 584.47,-31.12 591.47,-31.12"/>
</a>
</g>
</g>
<!-- Node5 -->
<g id="Node000005" class="node">
<title>Node5</title>
<g id="a_Node000005"><a xlink:title=" ">
<polygon fill="#e0e0e0" stroke="#999999" points="518.72,-19.25 471.22,-19.25 471.22,0 518.72,0 518.72,-19.25"/>
<text text-anchor="middle" x="494.97" y="-5.75" font-family="Helvetica,sans-Serif" font-size="10.00">version</text>
</a>
</g>
</g>
<!-- Node3&#45;&gt;Node5 -->
<g id="edge4_Node000003_Node000005" class="edge">
<title>Node3&#45;&gt;Node5</title>
<g id="a_edge4_Node000003_Node000005"><a xlink:title=" ">
<path fill="none" stroke="#63b8ff" d="M572.2,-54.84C558.04,-46.73 536.99,-34.68 520.45,-25.21"/>
<polygon fill="#63b8ff" stroke="#63b8ff" points="522.56,-22.39 512.14,-20.45 519.08,-28.46 522.56,-22.39"/>
</a>
</g>
</g>
<!-- Node8&#45;&gt;Node2 -->
<g id="edge9_Node000008_Node000002" class="edge">
<title>Node8&#45;&gt;Node2</title>
<g id="a_edge9_Node000008_Node000002"><a xlink:title=" ">
<path fill="none" stroke="#63b8ff" d="M745.51,-243.13C762.53,-233.5 784.92,-220.33 803.97,-207.5 822.52,-195.01 824.26,-187.55 843.97,-177 875.2,-160.29 913.08,-147.44 942.43,-138.92"/>
<polygon fill="#63b8ff" stroke="#63b8ff" points="943.11,-142.37 951.78,-136.28 941.2,-135.63 943.11,-142.37"/>
</a>
</g>
</g>
<!-- Node8&#45;&gt;Node3 -->
<g id="edge10_Node000008_Node000003" class="edge">
<title>Node8&#45;&gt;Node3</title>
<g id="a_edge10_Node000008_Node000003"><a xlink:title=" ">
<path fill="none" stroke="#63b8ff" d="M663.7,-253.49C545.98,-243.09 277.06,-211.93 225.97,-141 218.05,-130 217,-120.65 225.97,-110.5 235.32,-99.93 407.28,-82.43 510.78,-72.79"/>
<polygon fill="#63b8ff" stroke="#63b8ff" points="510.98,-76.28 520.62,-71.88 510.34,-69.31 510.98,-76.28"/>
</a>
</g>
</g>
<!-- Node9 -->
<g id="Node000009" class="node">
<title>Node9</title>
<g id="a_Node000009"><a xlink:href="../../dc/d83/_algorithm_8hpp.html" target="_top" xlink:title=" ">
<polygon fill="white" stroke="#666666" points="654.1,-201.88 503.85,-201.88 503.85,-182.62 654.1,-182.62 654.1,-201.88"/>
<text text-anchor="middle" x="578.97" y="-188.38" font-family="Helvetica,sans-Serif" font-size="10.00">mimic++/utilities/Algorithm.hpp</text>
</a>
</g>
</g>
<!-- Node8&#45;&gt;Node9 -->
<g id="edge11_Node000008_Node000009" class="edge">
<title>Node8&#45;&gt;Node9</title>
<g id="a_edge11_Node000008_Node000009"><a xlink:title=" ">
<path fill="none" stroke="#63b8ff" d="M687.21,-243.11C663.67,-232.27 631.81,-217.59 608.75,-206.97"/>
<polygon fill="#63b8ff" stroke="#63b8ff" points="610.45,-203.9 599.91,-202.89 607.52,-210.26 610.45,-203.9"/>
</a>
</g>
</g>
<!-- Node14 -->
<g id="Node000014" class="node">
<title>Node14</title>
<g id="a_Node000014"><a xlink:title=" ">
<polygon fill="#e0e0e0" stroke="#999999" points="290.85,-135.38 235.1,-135.38 235.1,-116.12 290.85,-116.12 290.85,-135.38"/>
<text text-anchor="middle" x="262.97" y="-121.88" font-family="Helvetica,sans-Serif" font-size="10.00">algorithm</text>
</a>
</g>
</g>
<!-- Node8&#45;&gt;Node14 -->
<g id="edge29_Node000008_Node000014" class="edge">
<title>Node8&#45;&gt;Node14</title>
<g id="a_edge29_Node000008_Node000014"><a xlink:title=" ">
<path fill="none" stroke="#63b8ff" d="M663.63,-253.17C603.65,-247.08 505.7,-233.88 424.97,-207.5 373.67,-190.73 318.29,-160.12 287.39,-141.78"/>
<polygon fill="#63b8ff" stroke="#63b8ff" points="289.2,-138.79 278.83,-136.63 285.6,-144.79 289.2,-138.79"/>
</a>
</g>
</g>
<!-- Node8&#45;&gt;Node15 -->
<g id="edge30_Node000008_Node000015" class="edge">
<title>Node8&#45;&gt;Node15</title>
<g id="a_edge30_Node000008_Node000015"><a xlink:title=" ">
<path fill="none" stroke="#63b8ff" d="M722.41,-243.23C727.96,-219.77 738.92,-173.46 745.22,-146.85"/>
<polygon fill="#63b8ff" stroke="#63b8ff" points="748.58,-147.86 747.47,-137.32 741.76,-146.25 748.58,-147.86"/>
</a>
</g>
</g>
<!-- Node8&#45;&gt;Node16 -->
<g id="edge32_Node000008_Node000016" class="edge">
<title>Node8&#45;&gt;Node16</title>
<g id="a_edge32_Node000008_Node000016"><a xlink:title=" ">
<path fill="none" stroke="#63b8ff" d="M664.01,-249.44C617.97,-241.54 550.99,-227.81 494.97,-207.5 445.74,-189.65 392.29,-159.66 362.19,-141.68"/>
<polygon fill="#63b8ff" stroke="#63b8ff" points="364.22,-138.82 353.85,-136.65 360.6,-144.81 364.22,-138.82"/>
</a>
</g>
</g>
<!-- Node18 -->
<g id="Node000018" class="node">
<title>Node18</title>
<g id="a_Node000018"><a xlink:title=" ">
<polygon fill="#e0e0e0" stroke="#999999" points="886.47,-135.38 849.47,-135.38 849.47,-116.12 886.47,-116.12 886.47,-135.38"/>
<text text-anchor="middle" x="867.97" y="-121.88" font-family="Helvetica,sans-Serif" font-size="10.00">tuple</text>
</a>
</g>
</g>
<!-- Node8&#45;&gt;Node18 -->
<g id="edge34_Node000008_Node000018" class="edge">
<title>Node8&#45;&gt;Node18</title>
<g id="a_edge34_Node000008_Node000018"><a xlink:title=" ">
<path fill="none" stroke="#63b8ff" d="M734.09,-243.14C751.23,-226.72 780.14,-199.42 805.97,-177 819.52,-165.25 835.21,-152.54 847.42,-142.84"/>
<polygon fill="#63b8ff" stroke="#63b8ff" points="849.49,-145.67 855.17,-136.72 845.15,-140.17 849.49,-145.67"/>
</a>
</g>
</g>
<!-- Node20 -->
<g id="Node000020" class="node">
<title>Node20</title>
<g id="a_Node000020"><a xlink:title=" ">
<polygon fill="#e0e0e0" stroke="#999999" points="716.22,-201.88 671.72,-201.88 671.72,-182.62 716.22,-182.62 716.22,-201.88"/>
<text text-anchor="middle" x="693.97" y="-188.38" font-family="Helvetica,sans-Serif" font-size="10.00">cctype</text>
</a>
</g>
</g>
<!-- Node8&#45;&gt;Node20 -->
<g id="edge31_Node000008_Node000020" class="edge">
<title>Node8&#45;&gt;Node20</title>
<g id="a_edge31_Node000008_Node000020"><a xlink:title=" ">
<path fill="none" stroke="#63b8ff" d="M713.3,-243.11C709.82,-234.13 705.32,-222.51 701.54,-212.76"/>
<polygon fill="#63b8ff" stroke="#63b8ff" points="704.82,-211.54 697.94,-203.48 698.29,-214.07 704.82,-211.54"/>
</a>
</g>
</g>
<!-- Node21 -->
<g id="Node000021" class="node">
<title>Node21</title>
<g id="a_Node000021"><a xlink:title=" ">
<polygon fill="#e0e0e0" stroke="#999999" points="923.47,-201.88 886.47,-201.88 886.47,-182.62 923.47,-182.62 923.47,-201.88"/>
<text text-anchor="middle" x="904.97" y="-188.38" font-family="Helvetica,sans-Serif" font-size="10.00">span</text>
</a>
</g>
</g>
<!-- Node8&#45;&gt;Node21 -->
<g id="edge33_Node000008_Node000021" class="edge">
<title>Node8&#45;&gt;Node21</title>
<g id="a_edge33_Node000008_Node000021"><a xlink:title=" ">
<path fill="none" stroke="#63b8ff" d="M767.6,-243.01C797.87,-233.54 837.47,-220.59 871.97,-207.5 873.29,-207 874.62,-206.48 875.97,-205.95"/>
<polygon fill="#63b8ff" stroke="#63b8ff" points="876.95,-209.33 884.85,-202.26 874.27,-202.86 876.95,-209.33"/>
</a>
</g>
</g>
<!-- Node8&#45;&gt;Node22 -->
<g id="edge35_Node000008_Node000022" class="edge">
<title>Node8&#45;&gt;Node22</title>
<g id="a_edge35_Node000008_Node000022"><a xlink:title=" ">
<path fill="none" stroke="#63b8ff" d="M760.96,-243C784.32,-234.07 813.53,-221.68 837.97,-207.5 857.31,-196.28 857.1,-185.01 877.97,-177 1061.99,-106.4 1129.01,-189.78 1319.97,-141 1321.33,-140.65 1322.71,-140.25 1324.08,-139.81"/>
<polygon fill="#63b8ff" stroke="#63b8ff" points="1324.93,-143.24 1333,-136.38 1322.41,-136.7 1324.93,-143.24"/>
</a>
</g>
</g>
<!-- Node9&#45;&gt;Node3 -->
<g id="edge12_Node000009_Node000003" class="edge">
<title>Node9&#45;&gt;Node3</title>
<g id="a_edge12_Node000009_Node000003"><a xlink:title=" ">
<path fill="none" stroke="#63b8ff" d="M579.62,-182.23C581.06,-162.26 584.53,-113.89 586.52,-86.21"/>
<polygon fill="#63b8ff" stroke="#63b8ff" points="590,-86.54 587.23,-76.32 583.02,-86.04 590,-86.54"/>
</a>
</g>
</g>
<!-- Node9&#45;&gt;Node7 -->
<g id="edge25_Node000009_Node000007" class="edge">
<title>Node9&#45;&gt;Node7</title>
<g id="a_edge25_Node000009_Node000007"><a xlink:title=" ">
<path fill="none" stroke="#63b8ff" d="M584.48,-182.2C595.16,-165.45 620.35,-129.55 650.97,-110.5 686.82,-88.2 733.95,-76.83 767.94,-71.17"/>
<polygon fill="#63b8ff" stroke="#63b8ff" points="768.09,-74.69 777.44,-69.7 767.02,-67.78 768.09,-74.69"/>
</a>
</g>
</g>
<!-- Node10 -->
<g id="Node000010" class="node">
<title>Node10</title>
<g id="a_Node000010"><a xlink:href="../../dc/dfc/_c_09_0926_backports_8hpp.html" target="_top" xlink:title=" ">
<polygon fill="white" stroke="#666666" points="561.35,-141 460.6,-141 460.6,-110.5 561.35,-110.5 561.35,-141"/>
<text text-anchor="start" x="468.6" y="-127.5" font-family="Helvetica,sans-Serif" font-size="10.00">mimic++/utilities/C</text>
<text text-anchor="middle" x="510.97" y="-116.25" font-family="Helvetica,sans-Serif" font-size="10.00">++26Backports.hpp</text>
</a>
</g>
</g>
<!-- Node9&#45;&gt;Node10 -->
<g id="edge13_Node000009_Node000010" class="edge">
<title>Node9&#45;&gt;Node10</title>
<g id="a_edge13_Node000009_Node000010"><a xlink:title=" ">
<path fill="none" stroke="#63b8ff" d="M569.52,-182.28C560.53,-173.76 546.65,-160.59 534.66,-149.21"/>
<polygon fill="#63b8ff" stroke="#63b8ff" points="537.12,-146.72 527.46,-142.38 532.3,-151.8 537.12,-146.72"/>
</a>
</g>
</g>
<!-- Node11 -->
<g id="Node000011" class="node">
<title>Node11</title>
<g id="a_Node000011"><a xlink:title=" ">
<polygon fill="#e0e0e0" stroke="#999999" points="1260.85,-74.5 1205.1,-74.5 1205.1,-55.25 1260.85,-55.25 1260.85,-74.5"/>
<text text-anchor="middle" x="1232.97" y="-61" font-family="Helvetica,sans-Serif" font-size="10.00">concepts</text>
</a>
</g>
</g>
<!-- Node9&#45;&gt;Node11 -->
<g id="edge21_Node000009_Node000011" class="edge">
<title>Node9&#45;&gt;Node11</title>
<g id="a_edge21_Node000009_Node000011"><a xlink:title=" ">
<path fill="none" stroke="#63b8ff" d="M591.47,-182.21C605.31,-172.18 628.28,-155.49 647.97,-141 666.27,-127.54 667.73,-118.52 688.97,-110.5 735.85,-92.82 1076.54,-73.9 1193.6,-67.85"/>
<polygon fill="#63b8ff" stroke="#63b8ff" points="1193.53,-71.36 1203.34,-67.35 1193.18,-64.37 1193.53,-71.36"/>
</a>
</g>
</g>
<!-- Node9&#45;&gt;Node12 -->
<g id="edge23_Node000009_Node000012" class="edge">
<title>Node9&#45;&gt;Node12</title>
<g id="a_edge23_Node000009_Node000012"><a xlink:title=" ">
<path fill="none" stroke="#63b8ff" d="M536.3,-182.13C506.09,-174.37 465.49,-161.2 433.97,-141 409.82,-125.51 387.92,-100.33 374.78,-83.44"/>
<polygon fill="#63b8ff" stroke="#63b8ff" points="377.83,-81.67 369.01,-75.79 372.24,-85.89 377.83,-81.67"/>
</a>
</g>
</g>
<!-- Node9&#45;&gt;Node13 -->
<g id="edge28_Node000009_Node000013" class="edge">
<title>Node9&#45;&gt;Node13</title>
<g id="a_edge28_Node000009_Node000013"><a xlink:title=" ">
<path fill="none" stroke="#63b8ff" d="M525.96,-182.15C500.18,-175.08 470.78,-162.67 451.97,-141 438.81,-125.82 434.89,-102.68 433.9,-86.1"/>
<polygon fill="#63b8ff" stroke="#63b8ff" points="437.41,-86.35 433.65,-76.44 430.41,-86.53 437.41,-86.35"/>
</a>
</g>
</g>
<!-- Node9&#45;&gt;Node14 -->
<g id="edge19_Node000009_Node000014" class="edge">
<title>Node9&#45;&gt;Node14</title>
<g id="a_edge19_Node000009_Node000014"><a xlink:title=" ">
<path fill="none" stroke="#63b8ff" d="M507.33,-182.16C450.47,-174.04 369.29,-160.4 299.97,-141 298.36,-140.55 296.72,-140.05 295.06,-139.53"/>
<polygon fill="#63b8ff" stroke="#63b8ff" points="296.29,-136.25 285.69,-136.24 293.97,-142.85 296.29,-136.25"/>
</a>
</g>
</g>
<!-- Node9&#45;&gt;Node15 -->
<g id="edge20_Node000009_Node000015" class="edge">
<title>Node9&#45;&gt;Node15</title>
<g id="a_edge20_Node000009_Node000015"><a xlink:title=" ">
<path fill="none" stroke="#63b8ff" d="M605.35,-182.16C633.25,-172.43 678.47,-156.31 716.97,-141 718.28,-140.48 719.61,-139.94 720.95,-139.39"/>
<polygon fill="#63b8ff" stroke="#63b8ff" points="721.95,-142.77 729.81,-135.67 719.24,-136.32 721.95,-142.77"/>
</a>
</g>
</g>
<!-- Node9&#45;&gt;Node16 -->
<g id="edge22_Node000009_Node000016" class="edge">
<title>Node9&#45;&gt;Node16</title>
<g id="a_edge22_Node000009_Node000016"><a xlink:title=" ">
<path fill="none" stroke="#63b8ff" d="M539.68,-182.15C499.57,-172.66 435.61,-156.96 380.97,-141 379.02,-140.43 377.02,-139.83 375.01,-139.21"/>
<polygon fill="#63b8ff" stroke="#63b8ff" points="376.29,-135.94 365.7,-136.25 374.17,-142.62 376.29,-135.94"/>
</a>
</g>
</g>
<!-- Node17 -->
<g id="Node000017" class="node">
<title>Node17</title>
<g id="a_Node000017"><a xlink:title=" ">
<polygon fill="#e0e0e0" stroke="#999999" points="831.6,-135.38 786.35,-135.38 786.35,-116.12 831.6,-116.12 831.6,-135.38"/>
<text text-anchor="middle" x="808.97" y="-121.88" font-family="Helvetica,sans-Serif" font-size="10.00">ranges</text>
</a>
</g>
</g>
<!-- Node9&#45;&gt;Node17 -->
<g id="edge24_Node000009_Node000017" class="edge">
<title>Node9&#45;&gt;Node17</title>
<g id="a_edge24_Node000009_Node000017"><a xlink:title=" ">
<path fill="none" stroke="#63b8ff" d="M624.73,-182.2C665.52,-173.54 726.56,-159.14 777.97,-141 778.77,-140.72 779.57,-140.43 780.38,-140.12"/>
<polygon fill="#63b8ff" stroke="#63b8ff" points="781.57,-143.42 789.45,-136.34 778.87,-136.96 781.57,-143.42"/>
</a>
</g>
</g>
<!-- Node9&#45;&gt;Node18 -->
<g id="edge26_Node000009_Node000018" class="edge">
<title>Node9&#45;&gt;Node18</title>
<g id="a_edge26_Node000009_Node000018"><a xlink:title=" ">
<path fill="none" stroke="#63b8ff" d="M630.81,-182.16C701.45,-169.64 821.45,-147.85 840.97,-141 841.46,-140.83 841.95,-140.65 842.44,-140.46"/>
<polygon fill="#63b8ff" stroke="#63b8ff" points="843.58,-143.79 851.25,-136.48 840.69,-137.41 843.58,-143.79"/>
</a>
</g>
</g>
<!-- Node19 -->
<g id="Node000019" class="node">
<title>Node19</title>
<g id="a_Node000019"><a xlink:title=" ">
<polygon fill="#e0e0e0" stroke="#999999" points="1628.22,-74.5 1589.72,-74.5 1589.72,-55.25 1628.22,-55.25 1628.22,-74.5"/>
<text text-anchor="middle" x="1608.97" y="-61" font-family="Helvetica,sans-Serif" font-size="10.00">utility</text>
</a>
</g>
</g>
<!-- Node9&#45;&gt;Node19 -->
<g id="edge27_Node000009_Node000019" class="edge">
<title>Node9&#45;&gt;Node19</title>
<g id="a_edge27_Node000009_Node000019"><a xlink:title=" ">
<path fill="none" stroke="#63b8ff" d="M600.75,-182.26C622.27,-173.03 655.81,-157.69 682.97,-141 702.03,-129.3 701.98,-118.18 722.97,-110.5 763.94,-95.5 1426.64,-72.09 1578.25,-66.91"/>
<polygon fill="#63b8ff" stroke="#63b8ff" points="1578.03,-70.42 1587.91,-66.58 1577.79,-63.42 1578.03,-70.42"/>
</a>
</g>
</g>
<!-- Node10&#45;&gt;Node3 -->
<g id="edge14_Node000010_Node000003" class="edge">
<title>Node10&#45;&gt;Node3</title>
<g id="a_edge14_Node000010_Node000003"><a xlink:title=" ">
<path fill="none" stroke="#63b8ff" d="M530.01,-110.2C541.28,-101.58 555.58,-90.65 567.15,-81.8"/>
<polygon fill="#63b8ff" stroke="#63b8ff" points="569.08,-84.73 574.9,-75.87 564.83,-79.16 569.08,-84.73"/>
</a>
</g>
</g>
<!-- Node10&#45;&gt;Node5 -->
<g id="edge18_Node000010_Node000005" class="edge">
<title>Node10&#45;&gt;Node5</title>
<g id="a_edge18_Node000010_Node000005"><a xlink:title=" ">
<path fill="none" stroke="#63b8ff" d="M508.95,-110.3C506.14,-90.25 501.04,-53.9 497.84,-31.07"/>
<polygon fill="#63b8ff" stroke="#63b8ff" points="501.31,-30.61 496.46,-21.2 494.38,-31.59 501.31,-30.61"/>
</a>
</g>
</g>
<!-- Node10&#45;&gt;Node11 -->
<g id="edge15_Node000010_Node000011" class="edge">
<title>Node10&#45;&gt;Node11</title>
<g id="a_edge15_Node000010_Node000011"><a xlink:title=" ">
<path fill="none" stroke="#63b8ff" d="M561.82,-119.27C588.37,-116.48 621.41,-113.14 650.97,-110.5 854.98,-92.3 1099.61,-75.02 1193.58,-68.56"/>
<polygon fill="#63b8ff" stroke="#63b8ff" points="1193.54,-72.07 1203.28,-67.89 1193.06,-65.08 1193.54,-72.07"/>
</a>
</g>
</g>
<!-- Node10&#45;&gt;Node12 -->
<g id="edge16_Node000010_Node000012" class="edge">
<title>Node10&#45;&gt;Node12</title>
<g id="a_edge16_Node000010_Node000012"><a xlink:title=" ">
<path fill="none" stroke="#63b8ff" d="M473.76,-110.05C449.65,-100.52 418.52,-88.22 395.24,-79.02"/>
<polygon fill="#63b8ff" stroke="#63b8ff" points="396.82,-75.88 386.23,-75.46 394.25,-82.39 396.82,-75.88"/>
</a>
</g>
</g>
<!-- Node10&#45;&gt;Node13 -->
<g id="edge17_Node000010_Node000013" class="edge">
<title>Node10&#45;&gt;Node13</title>
<g id="a_edge17_Node000010_Node000013"><a xlink:title=" ">
<path fill="none" stroke="#63b8ff" d="M491.94,-110.2C480.67,-101.58 466.37,-90.65 454.8,-81.8"/>
<polygon fill="#63b8ff" stroke="#63b8ff" points="457.12,-79.16 447.05,-75.87 452.87,-84.73 457.12,-79.16"/>
</a>
</g>
</g>
<!-- Node23&#45;&gt;Node2 -->
<g id="edge37_Node000023_Node000002" class="edge">
<title>Node23&#45;&gt;Node2</title>
<g id="a_edge37_Node000023_Node000002"><a xlink:title=" ">
<path fill="none" stroke="#63b8ff" d="M1215.39,-256.37C1164.84,-252.34 1097.1,-240.46 1046.97,-207.5 1024.06,-192.43 1007.54,-164.7 998.36,-146"/>
<polygon fill="#63b8ff" stroke="#63b8ff" points="1001.61,-144.69 994.24,-137.08 995.26,-147.63 1001.61,-144.69"/>
</a>
</g>
</g>
<!-- Node23&#45;&gt;Node3 -->
<g id="edge38_Node000023_Node000003" class="edge">
<title>Node23&#45;&gt;Node3</title>
<g id="a_edge38_Node000023_Node000003"><a xlink:title=" ">
<path fill="none" stroke="#63b8ff" d="M1308.26,-243.21C1348.32,-215.39 1424.69,-153.57 1383.97,-110.5 1377.84,-104.01 863.61,-78.95 665.03,-69.51"/>
<polygon fill="#63b8ff" stroke="#63b8ff" points="665.21,-66.01 655.05,-69.03 664.88,-73 665.21,-66.01"/>
</a>
</g>
</g>
<!-- Node23&#45;&gt;Node19 -->
<g id="edge61_Node000023_Node000019" class="edge">
<title>Node23&#45;&gt;Node19</title>
<g id="a_edge61_Node000023_Node000019"><a xlink:title=" ">
<path fill="none" stroke="#63b8ff" d="M1356.62,-254.35C1449.56,-248.83 1606.96,-235.59 1656.97,-207.5 1700,-183.34 1737.98,-151.79 1710.97,-110.5 1695.25,-86.45 1663.38,-75.28 1639.43,-70.15"/>
<polygon fill="#63b8ff" stroke="#63b8ff" points="1640.38,-66.76 1629.9,-68.36 1639.09,-73.64 1640.38,-66.76"/>
</a>
</g>
</g>
<!-- Node23&#45;&gt;Node21 -->
<g id="edge60_Node000023_Node000021" class="edge">
<title>Node23&#45;&gt;Node21</title>
<g id="a_edge60_Node000023_Node000021"><a xlink:title=" ">
<path fill="none" stroke="#63b8ff" d="M1215.65,-245.84C1131.77,-231.64 995.34,-208.55 935.15,-198.36"/>
<polygon fill="#63b8ff" stroke="#63b8ff" points="935.77,-194.91 925.32,-196.7 934.6,-201.82 935.77,-194.91"/>
</a>
</g>
</g>
<!-- Node23&#45;&gt;Node22 -->
<g id="edge62_Node000023_Node000022" class="edge">
<title>Node23&#45;&gt;Node22</title>
<g id="a_edge62_Node000023_Node000022"><a xlink:title=" ">
<path fill="none" stroke="#63b8ff" d="M1293.29,-243.23C1305.22,-219.55 1328.86,-172.62 1342.21,-146.13"/>
<polygon fill="#63b8ff" stroke="#63b8ff" points="1345.33,-147.71 1346.71,-137.2 1339.08,-144.56 1345.33,-147.71"/>
</a>
</g>
</g>
<!-- Node23&#45;&gt;Node24 -->
<g id="edge39_Node000023_Node000024" class="edge">
<title>Node23&#45;&gt;Node24</title>
<g id="a_edge39_Node000023_Node000024"><a xlink:title=" ">
<path fill="none" stroke="#63b8ff" d="M1247.85,-243.11C1223.88,-233.91 1192.72,-221.95 1166.92,-212.04"/>
<polygon fill="#63b8ff" stroke="#63b8ff" points="1168.24,-208.8 1157.65,-208.48 1165.73,-215.33 1168.24,-208.8"/>
</a>
</g>
</g>
<!-- Node27 -->
<g id="Node000027" class="node">
<title>Node27</title>
<g id="a_Node000027"><a xlink:title=" ">
<polygon fill="#e0e0e0" stroke="#999999" points="1310.85,-135.38 1261.1,-135.38 1261.1,-116.12 1310.85,-116.12 1310.85,-135.38"/>
<text text-anchor="middle" x="1285.97" y="-121.88" font-family="Helvetica,sans-Serif" font-size="10.00">optional</text>
</a>
</g>
</g>
<!-- Node23&#45;&gt;Node27 -->
<g id="edge59_Node000023_Node000027" class="edge">
<title>Node23&#45;&gt;Node27</title>
<g id="a_edge59_Node000023_Node000027"><a xlink:title=" ">
<path fill="none" stroke="#63b8ff" d="M1285.97,-243.23C1285.97,-219.87 1285.97,-173.88 1285.97,-147.21"/>
<polygon fill="#63b8ff" stroke="#63b8ff" points="1289.47,-147.36 1285.97,-137.36 1282.47,-147.36 1289.47,-147.36"/>
</a>
</g>
</g>
<!-- Node29 -->
<g id="Node000029" class="node">
<title>Node29</title>
<g id="a_Node000029"><a xlink:href="../../df/d2e/_type_list_8hpp.html" target="_top" xlink:title=" ">
<polygon fill="white" stroke="#666666" points="1648.22,-201.88 1501.72,-201.88 1501.72,-182.62 1648.22,-182.62 1648.22,-201.88"/>
<text text-anchor="middle" x="1574.97" y="-188.38" font-family="Helvetica,sans-Serif" font-size="10.00">mimic++/utilities/TypeList.hpp</text>
</a>
</g>
</g>
<!-- Node23&#45;&gt;Node29 -->
<g id="edge53_Node000023_Node000029" class="edge">
<title>Node23&#45;&gt;Node29</title>
<g id="a_edge53_Node000023_Node000029"><a xlink:title=" ">
<path fill="none" stroke="#63b8ff" d="M1351.92,-243.03C1403.89,-231.43 1475.35,-215.49 1523.24,-204.8"/>
<polygon fill="#63b8ff" stroke="#63b8ff" points="1523.81,-208.25 1532.81,-202.66 1522.29,-201.42 1523.81,-208.25"/>
</a>
</g>
</g>
<!-- Node24&#45;&gt;Node2 -->
<g id="edge40_Node000024_Node000002" class="edge">
<title>Node24&#45;&gt;Node2</title>
<g id="a_edge40_Node000024_Node000002"><a xlink:title=" ">
<path fill="none" stroke="#63b8ff" d="M1088.93,-176.61C1067.7,-165.92 1039.07,-151.49 1018.06,-140.9"/>
<polygon fill="#63b8ff" stroke="#63b8ff" points="1019.71,-137.82 1009.21,-136.44 1016.56,-144.07 1019.71,-137.82"/>
</a>
</g>
</g>
<!-- Node24&#45;&gt;Node3 -->
<g id="edge41_Node000024_Node000003" class="edge">
<title>Node24&#45;&gt;Node3</title>
<g id="a_edge41_Node000024_Node000003"><a xlink:title=" ">
<path fill="none" stroke="#63b8ff" d="M1109.71,-176.58C1098.17,-157.65 1075.28,-125.38 1045.97,-110.5 1012.89,-93.7 786.68,-77.79 665.02,-70.32"/>
<polygon fill="#63b8ff" stroke="#63b8ff" points="665.29,-66.83 655.1,-69.71 664.87,-73.81 665.29,-66.83"/>
</a>
</g>
</g>
<!-- Node24&#45;&gt;Node11 -->
<g id="edge45_Node000024_Node000011" class="edge">
<title>Node24&#45;&gt;Node11</title>
<g id="a_edge45_Node000024_Node000011"><a xlink:title=" ">
<path fill="none" stroke="#63b8ff" d="M1163.52,-176.71C1181.63,-168.81 1201.15,-157.24 1213.97,-141 1226.34,-125.33 1230.75,-102.6 1232.28,-86.25"/>
<polygon fill="#63b8ff" stroke="#63b8ff" points="1235.77,-86.46 1232.89,-76.27 1228.79,-86.04 1235.77,-86.46"/>
</a>
</g>
</g>
<!-- Node24&#45;&gt;Node13 -->
<g id="edge50_Node000024_Node000013" class="edge">
<title>Node24&#45;&gt;Node13</title>
<g id="a_edge50_Node000024_Node000013"><a xlink:title=" ">
<path fill="none" stroke="#63b8ff" d="M1055.58,-180.83C1018.82,-173.11 972.18,-160.48 933.97,-141 914.68,-131.16 916.04,-118.64 895.97,-110.5 737.94,-46.43 683.64,-91.64 513.97,-74.5 501.65,-73.26 488.27,-71.84 476.04,-70.52"/>
<polygon fill="#63b8ff" stroke="#63b8ff" points="476.56,-67.05 466.24,-69.45 475.8,-74.01 476.56,-67.05"/>
</a>
</g>
</g>
<!-- Node24&#45;&gt;Node16 -->
<g id="edge46_Node000024_Node000016" class="edge">
<title>Node24&#45;&gt;Node16</title>
<g id="a_edge46_Node000024_Node000016"><a xlink:title=" ">
<path fill="none" stroke="#63b8ff" d="M1055.89,-186.43C1019.98,-183.66 973.93,-180.11 932.97,-177 719.21,-160.77 665.29,-162.3 451.97,-141 427.58,-138.56 400.33,-135.18 378.59,-132.32"/>
<polygon fill="#63b8ff" stroke="#63b8ff" points="379.33,-128.89 368.96,-131.04 378.41,-135.83 379.33,-128.89"/>
</a>
</g>
</g>
<!-- Node24&#45;&gt;Node17 -->
<g id="edge49_Node000024_Node000017" class="edge">
<title>Node24&#45;&gt;Node17</title>
<g id="a_edge49_Node000024_Node000017"><a xlink:title=" ">
<path fill="none" stroke="#63b8ff" d="M1055.62,-184.28C998.81,-176.91 913.02,-163.22 840.97,-141 839.98,-140.69 838.98,-140.37 837.98,-140.02"/>
<polygon fill="#63b8ff" stroke="#63b8ff" points="839.29,-136.78 828.71,-136.36 836.73,-143.29 839.29,-136.78"/>
</a>
</g>
</g>
<!-- Node24&#45;&gt;Node22 -->
<g id="edge51_Node000024_Node000022" class="edge">
<title>Node24&#45;&gt;Node22</title>
<g id="a_edge51_Node000024_Node000022"><a xlink:title=" ">
<path fill="none" stroke="#63b8ff" d="M1180.23,-178.72C1220.59,-169.88 1274.01,-156.81 1319.97,-141 1320.93,-140.67 1321.9,-140.32 1322.87,-139.96"/>
<polygon fill="#63b8ff" stroke="#63b8ff" points="1323.9,-143.33 1331.84,-136.32 1321.26,-136.84 1323.9,-143.33"/>
</a>
</g>
</g>
<!-- Node25 -->
<g id="Node000025" class="node">
<title>Node25</title>
<g id="a_Node000025"><a xlink:href="../../d9/db9/_concepts_8hpp.html" target="_top" xlink:title=" ">
<polygon fill="white" stroke="#666666" points="1581.1,-135.38 1430.85,-135.38 1430.85,-116.12 1581.1,-116.12 1581.1,-135.38"/>
<text text-anchor="middle" x="1505.97" y="-121.88" font-family="Helvetica,sans-Serif" font-size="10.00">mimic++/utilities/Concepts.hpp</text>
</a>
</g>
</g>
<!-- Node24&#45;&gt;Node25 -->
<g id="edge42_Node000024_Node000025" class="edge">
<title>Node24&#45;&gt;Node25</title>
<g id="a_edge42_Node000024_Node000025"><a xlink:title=" ">
<path fill="none" stroke="#63b8ff" d="M1180.31,-180.89C1251.48,-169.06 1367.41,-149.78 1440.04,-137.71"/>
<polygon fill="#63b8ff" stroke="#63b8ff" points="1440.53,-141.18 1449.82,-136.08 1439.38,-134.27 1440.53,-141.18"/>
</a>
</g>
</g>
<!-- Node26 -->
<g id="Node000026" class="node">
<title>Node26</title>
<g id="a_Node000026"><a xlink:title=" ">
<polygon fill="#e0e0e0" stroke="#999999" points="1143.22,-135.38 1092.72,-135.38 1092.72,-116.12 1143.22,-116.12 1143.22,-135.38"/>
<text text-anchor="middle" x="1117.97" y="-121.88" font-family="Helvetica,sans-Serif" font-size="10.00">memory</text>
</a>
</g>
</g>
<!-- Node24&#45;&gt;Node26 -->
<g id="edge47_Node000024_Node000026" class="edge">
<title>Node24&#45;&gt;Node26</title>
<g id="a_edge47_Node000024_Node000026"><a xlink:title=" ">
<path fill="none" stroke="#63b8ff" d="M1117.97,-176.61C1117.97,-167.83 1117.97,-156.52 1117.97,-146.9"/>
<polygon fill="#63b8ff" stroke="#63b8ff" points="1121.47,-147.09 1117.97,-137.09 1114.47,-147.09 1121.47,-147.09"/>
</a>
</g>
</g>
<!-- Node24&#45;&gt;Node27 -->
<g id="edge48_Node000024_Node000027" class="edge">
<title>Node24&#45;&gt;Node27</title>
<g id="a_edge48_Node000024_Node000027"><a xlink:title=" ">
<path fill="none" stroke="#63b8ff" d="M1156.1,-176.61C1184.98,-165.52 1224.31,-150.42 1252.1,-139.75"/>
<polygon fill="#63b8ff" stroke="#63b8ff" points="1253.01,-143.15 1261.09,-136.3 1250.5,-136.62 1253.01,-143.15"/>
</a>
</g>
</g>
<!-- Node28 -->
<g id="Node000028" class="node">
<title>Node28</title>
<g id="a_Node000028"><a xlink:title=" ">
<polygon fill="#e0e0e0" stroke="#999999" points="1204.47,-135.38 1161.47,-135.38 1161.47,-116.12 1204.47,-116.12 1204.47,-135.38"/>
<text text-anchor="middle" x="1182.97" y="-121.88" font-family="Helvetica,sans-Serif" font-size="10.00">vector</text>
</a>
</g>
</g>
<!-- Node24&#45;&gt;Node28 -->
<g id="edge52_Node000024_Node000028" class="edge">
<title>Node24&#45;&gt;Node28</title>
<g id="a_edge52_Node000024_Node000028"><a xlink:title=" ">
<path fill="none" stroke="#63b8ff" d="M1132.72,-176.61C1142.67,-166.74 1155.82,-153.69 1166.18,-143.42"/>
<polygon fill="#63b8ff" stroke="#63b8ff" points="1168.38,-146.17 1173.01,-136.64 1163.45,-141.2 1168.38,-146.17"/>
</a>
</g>
</g>
<!-- Node25&#45;&gt;Node11 -->
<g id="edge43_Node000025_Node000011" class="edge">
<title>Node25&#45;&gt;Node11</title>
<g id="a_edge43_Node000025_Node000011"><a xlink:title=" ">
<path fill="none" stroke="#63b8ff" d="M1463.92,-115.68C1411.74,-104.43 1323.46,-85.39 1272.5,-74.4"/>
<polygon fill="#63b8ff" stroke="#63b8ff" points="1273.29,-70.99 1262.78,-72.3 1271.82,-77.83 1273.29,-70.99"/>
</a>
</g>
</g>
<!-- Node25&#45;&gt;Node19 -->
<g id="edge44_Node000025_Node000019" class="edge">
<title>Node25&#45;&gt;Node19</title>
<g id="a_edge44_Node000025_Node000019"><a xlink:title=" ">
<path fill="none" stroke="#63b8ff" d="M1521.62,-115.81C1537.95,-106.47 1563.84,-91.67 1583.2,-80.61"/>
<polygon fill="#63b8ff" stroke="#63b8ff" points="1584.93,-83.65 1591.87,-75.65 1581.45,-77.58 1584.93,-83.65"/>
</a>
</g>
</g>
<!-- Node29&#45;&gt;Node11 -->
<g id="edge55_Node000029_Node000011" class="edge">
<title>Node29&#45;&gt;Node11</title>
<g id="a_edge55_Node000029_Node000011"><a xlink:title=" ">
<path fill="none" stroke="#63b8ff" d="M1580.87,-182.22C1590.78,-165.82 1608,-130.92 1589.97,-110.5 1569.23,-87 1361.44,-72.91 1272.76,-67.93"/>
<polygon fill="#63b8ff" stroke="#63b8ff" points="1273,-64.44 1262.82,-67.38 1272.61,-71.43 1273,-64.44"/>
</a>
</g>
</g>
<!-- Node29&#45;&gt;Node18 -->
<g id="edge57_Node000029_Node000018" class="edge">
<title>Node29&#45;&gt;Node18</title>
<g id="a_edge57_Node000029_Node000018"><a xlink:title=" ">
<path fill="none" stroke="#63b8ff" d="M1501.56,-188.7C1382.06,-183.84 1138.3,-170.93 933.97,-141 922.1,-139.26 909.16,-136.63 897.91,-134.1"/>
<polygon fill="#63b8ff" stroke="#63b8ff" points="898.92,-130.75 888.39,-131.89 897.34,-137.56 898.92,-130.75"/>
</a>
</g>
</g>
<!-- Node29&#45;&gt;Node19 -->
<g id="edge58_Node000029_Node000019" class="edge">
<title>Node29&#45;&gt;Node19</title>
<g id="a_edge58_Node000029_Node000019"><a xlink:title=" ">
<path fill="none" stroke="#63b8ff" d="M1629.61,-182.14C1653.59,-175.14 1679.53,-162.77 1693.97,-141 1701.47,-129.7 1700.99,-122.1 1693.97,-110.5 1682.16,-90.95 1658.62,-79.54 1639.3,-73.16"/>
<polygon fill="#63b8ff" stroke="#63b8ff" points="1640.57,-69.88 1629.99,-70.39 1638.58,-76.59 1640.57,-69.88"/>
</a>
</g>
</g>
<!-- Node29&#45;&gt;Node25 -->
<g id="edge54_Node000029_Node000025" class="edge">
<title>Node29&#45;&gt;Node25</title>
<g id="a_edge54_Node000029_Node000025"><a xlink:title=" ">
<path fill="none" stroke="#63b8ff" d="M1565.38,-182.28C1554.67,-172.27 1537.1,-155.85 1523.84,-143.45"/>
<polygon fill="#63b8ff" stroke="#63b8ff" points="1526.29,-140.95 1516.59,-136.68 1521.51,-146.06 1526.29,-140.95"/>
</a>
</g>
</g>
<!-- Node30 -->
<g id="Node000030" class="node">
<title>Node30</title>
<g id="a_Node000030"><a xlink:title=" ">
<polygon fill="#e0e0e0" stroke="#999999" points="1685.1,-135.38 1636.85,-135.38 1636.85,-116.12 1685.1,-116.12 1685.1,-135.38"/>
<text text-anchor="middle" x="1660.97" y="-121.88" font-family="Helvetica,sans-Serif" font-size="10.00">cstddef</text>
</a>
</g>
</g>
<!-- Node29&#45;&gt;Node30 -->
<g id="edge56_Node000029_Node000030" class="edge">
<title>Node29&#45;&gt;Node30</title>
<g id="a_edge56_Node000029_Node000030"><a xlink:title=" ">
<path fill="none" stroke="#63b8ff" d="M1586.93,-182.28C1600.59,-172.04 1623.19,-155.09 1639.84,-142.6"/>
<polygon fill="#63b8ff" stroke="#63b8ff" points="1641.73,-145.56 1647.63,-136.76 1637.53,-139.96 1641.73,-145.56"/>
</a>
</g>
</g>
<!-- Node31&#45;&gt;Node3 -->
<g id="edge65_Node000031_Node000003" class="edge">
<title>Node31&#45;&gt;Node3</title>
<g id="a_edge65_Node000031_Node000003"><a xlink:title=" ">
<path fill="none" stroke="#63b8ff" d="M141.53,-112.92C146.06,-112.04 150.59,-111.21 154.97,-110.5 221.55,-99.7 405.79,-82.26 511.25,-72.7"/>
<polygon fill="#63b8ff" stroke="#63b8ff" points="511.3,-76.21 520.95,-71.82 510.67,-69.24 511.3,-76.21"/>
</a>
</g>
</g>
<!-- Node31&#45;&gt;Node5 -->
<g id="edge67_Node000031_Node000005" class="edge">
<title>Node31&#45;&gt;Node5</title>
<g id="a_edge67_Node000031_Node000005"><a xlink:title=" ">
<path fill="none" stroke="#63b8ff" d="M140.33,-110.1C188.61,-95.85 264.24,-73.7 329.97,-55.25 374.7,-42.7 426.43,-28.81 459.87,-19.92"/>
<polygon fill="#63b8ff" stroke="#63b8ff" points="460.66,-23.33 469.43,-17.38 458.86,-16.56 460.66,-23.33"/>
</a>
</g>
</g>
<!-- Node31&#45;&gt;Node13 -->
<g id="edge66_Node000031_Node000013" class="edge">
<title>Node31&#45;&gt;Node13</title>
<g id="a_edge66_Node000031_Node000013"><a xlink:title=" ">
<path fill="none" stroke="#63b8ff" d="M141.56,-113.15C146.09,-112.21 150.61,-111.31 154.97,-110.5 257.07,-91.47 286.38,-93.66 391.86,-74.78"/>
<polygon fill="#63b8ff" stroke="#63b8ff" points="392.3,-78.25 401.52,-73.02 391.05,-71.37 392.3,-78.25"/>
</a>
</g>
</g>
</g>
</svg>

<g id="navigator" transform="translate(0 0)" fill="#404254">
  <rect fill="#f2f5e9" fill-opacity="0.5" stroke="#606060" stroke-width=".5" x="0" y="0" width="60" height="60"/>
  <use id="zoomplus" xlink:href="#zoomPlus" x="17" y="9" onmousedown="handleZoom(evt,'in')"/>
  <use id="zoomminus" xlink:href="#zoomMin" x="42" y="9" onmousedown="handleZoom(evt,'out')"/>
  <use id="reset" xlink:href="#resetDef" x="30" y="36" onmousedown="handleReset()"/>
   <use id="arrowup" xlink:href="#arrowUp" x="0" y="0" onmousedown="handlePan(0,-1)"/>
  <use id="arrowright" xlink:href="#arrowRight" x="0" y="0" onmousedown="handlePan(1,0)"/>
  <use id="arrowdown" xlink:href="#arrowDown" x="0" y="0" onmousedown="handlePan(0,1)"/>
  <use id="arrowleft" xlink:href="#arrowLeft" x="0" y="0" onmousedown="handlePan(-1,0)"/>
</g>
<svg viewBox="0 0 15 15" width="100%" height="30px" preserveAspectRatio="xMaxYMin meet">
 <g id="arrow_out" transform="scale(0.3 0.3)">
  <a xlink:href="_name_parser_8hpp__incl_org.svg" target="_base">
   <rect id="button" ry="5" rx="5" y="6" x="6" height="38" width="38"
        fill="#f2f5e9" fill-opacity="0.5" stroke="#606060" stroke-width="1.0"/>
   <path id="arrow"
     d="M 11.500037,31.436501 C 11.940474,20.09759 22.043105,11.32322 32.158766,21.979434 L 37.068811,17.246167 C 37.068811,17.246167 37.088388,32 37.088388,32 L 22.160133,31.978069 C 22.160133,31.978069 26.997745,27.140456 26.997745,27.140456 C 18.528582,18.264221 13.291696,25.230495 11.500037,31.436501 z"
     style="fill:#404040;"/>
  </a>
 </g>
</svg>

<style type='text/css'>
<![CDATA[
[data-mouse-over-selected='false'] { opacity: 0.7; }
[data-mouse-over-selected='true']  { opacity: 1.0; }
]]>
</style>
<script type="application/ecmascript"><![CDATA[
document.addEventListener('DOMContentLoaded', (event) => {
  highlightEdges();
  highlightAdjacentNodes();
});
]]></script>
</svg>
