<?xml version="1.0" encoding="UTF-8" standalone="no"?>
<!DOCTYPE svg PUBLIC "-//W3C//DTD SVG 1.1//EN"
 "http://www.w3.org/Graphics/SVG/1.1/DTD/svg11.dtd">
<!-- Generated by graphviz version 12.2.1 (20241206.2353)
 -->
<!-- Title: mimic++/printing/type/NameParser.hpp Pages: 1 -->
<svg width="1805pt" height="349pt"
 viewBox="0.00 0.00 1805.18 348.50" xmlns="http://www.w3.org/2000/svg" xmlns:xlink="http://www.w3.org/1999/xlink">
<g id="graph0" class="graph" transform="scale(1 1) rotate(0) translate(4 344.5)">
<title>mimic++/printing/type/NameParser.hpp</title>
<!-- Node1 -->
<g id="Node000001" class="node">
<title>Node1</title>
<g id="a_Node000001"><a xlink:title=" ">
<polygon fill="#999999" stroke="#666666" points="790.61,-340.5 680.86,-340.5 680.86,-310 790.61,-310 790.61,-340.5"/>
<text text-anchor="start" x="688.86" y="-327" font-family="Helvetica,sans-Serif" font-size="10.00">mimic++/printing/type</text>
<text text-anchor="middle" x="735.74" y="-315.75" font-family="Helvetica,sans-Serif" font-size="10.00">/NameParser.hpp</text>
</a>
</g>
</g>
<!-- Node2 -->
<g id="Node000002" class="node">
<title>Node2</title>
<g id="a_Node000002"><a xlink:href="../../df/dde/_fwd_8hpp.html" target="_top" xlink:title=" ">
<polygon fill="white" stroke="#666666" points="656.74,-135.38 562.74,-135.38 562.74,-116.12 656.74,-116.12 656.74,-135.38"/>
<text text-anchor="middle" x="609.74" y="-121.88" font-family="Helvetica,sans-Serif" font-size="10.00">mimic++/Fwd.hpp</text>
</a>
</g>
</g>
<!-- Node1&#45;&gt;Node2 -->
<g id="edge1_Node000001_Node000002" class="edge">
<title>Node1&#45;&gt;Node2</title>
<g id="a_edge1_Node000001_Node000002"><a xlink:title=" ">
<path fill="none" stroke="#63b8ff" d="M680.77,-310.09C631.46,-294.14 562.02,-262.91 529.74,-207.5 522.91,-195.79 523.18,-188.86 529.74,-177 538.91,-160.4 556.13,-148.54 572.25,-140.53"/>
<polygon fill="#63b8ff" stroke="#63b8ff" points="573.56,-143.77 581.21,-136.44 570.66,-137.41 573.56,-143.77"/>
</a>
</g>
</g>
<!-- Node3 -->
<g id="Node000003" class="node">
<title>Node3</title>
<g id="a_Node000003"><a xlink:href="../../d8/dd2/_config_8hpp.html" target="_top" xlink:title=" ">
<polygon fill="white" stroke="#666666" points="864.11,-74.5 733.36,-74.5 733.36,-55.25 864.11,-55.25 864.11,-74.5"/>
<text text-anchor="middle" x="798.74" y="-61" font-family="Helvetica,sans-Serif" font-size="10.00">mimic++/config/Config.hpp</text>
</a>
</g>
</g>
<!-- Node1&#45;&gt;Node3 -->
<g id="edge7_Node000001_Node000003" class="edge">
<title>Node1&#45;&gt;Node3</title>
<g id="a_edge7_Node000001_Node000003"><a xlink:title=" ">
<path fill="none" stroke="#63b8ff" d="M791.04,-319.91C834.04,-314.42 893.73,-302.01 938.74,-274 996.16,-238.25 1003.82,-208.05 1012.74,-141 1014.52,-127.56 1021.29,-121.02 1012.74,-110.5 995.5,-89.3 929.94,-77.83 875.87,-71.85"/>
<polygon fill="#63b8ff" stroke="#63b8ff" points="876.35,-68.38 866.04,-70.81 875.62,-75.34 876.35,-68.38"/>
</a>
</g>
</g>
<!-- Node8 -->
<g id="Node000008" class="node">
<title>Node8</title>
<g id="a_Node000008"><a xlink:href="../../db/d97/_name_lexer_8hpp.html" target="_top" xlink:title=" ">
<polygon fill="white" stroke="#666666" points="790.61,-274 680.86,-274 680.86,-243.5 790.61,-243.5 790.61,-274"/>
<text text-anchor="start" x="688.86" y="-260.5" font-family="Helvetica,sans-Serif" font-size="10.00">mimic++/printing/type</text>
<text text-anchor="middle" x="735.74" y="-249.25" font-family="Helvetica,sans-Serif" font-size="10.00">/NameLexer.hpp</text>
</a>
</g>
</g>
<!-- Node1&#45;&gt;Node8 -->
<g id="edge8_Node000001_Node000008" class="edge">
<title>Node1&#45;&gt;Node8</title>
<g id="a_edge8_Node000001_Node000008"><a xlink:title=" ">
<path fill="none" stroke="#63b8ff" d="M735.74,-309.61C735.74,-302.52 735.74,-293.79 735.74,-285.63"/>
<polygon fill="#63b8ff" stroke="#63b8ff" points="739.24,-285.84 735.74,-275.84 732.24,-285.84 739.24,-285.84"/>
</a>
</g>
</g>
<!-- Node12 -->
<g id="Node000012" class="node">
<title>Node12</title>
<g id="a_Node000012"><a xlink:title=" ">
<polygon fill="#e0e0e0" stroke="#999999" points="339.74,-74.5 293.74,-74.5 293.74,-55.25 339.74,-55.25 339.74,-74.5"/>
<text text-anchor="middle" x="316.74" y="-61" font-family="Helvetica,sans-Serif" font-size="10.00">iterator</text>
</a>
</g>
</g>
<!-- Node1&#45;&gt;Node12 -->
<g id="edge72_Node000001_Node000012" class="edge">
<title>Node1&#45;&gt;Node12</title>
<g id="a_edge72_Node000001_Node000012"><a xlink:title=" ">
<path fill="none" stroke="#63b8ff" d="M680.48,-321.98C564.19,-316.71 297.79,-301.92 211.74,-274 123.13,-245.25 78.82,-229.5 49.74,-141 45.5,-128.12 40.98,-120.85 49.74,-110.5 79.11,-75.81 216.57,-68.06 281.98,-66.35"/>
<polygon fill="#63b8ff" stroke="#63b8ff" points="281.88,-69.86 291.8,-66.13 281.72,-62.86 281.88,-69.86"/>
</a>
</g>
</g>
<!-- Node13 -->
<g id="Node000013" class="node">
<title>Node13</title>
<g id="a_Node000013"><a xlink:title=" ">
<polygon fill="#e0e0e0" stroke="#999999" points="419.24,-74.5 358.24,-74.5 358.24,-55.25 419.24,-55.25 419.24,-74.5"/>
<text text-anchor="middle" x="388.74" y="-61" font-family="Helvetica,sans-Serif" font-size="10.00">type_traits</text>
</a>
</g>
</g>
<!-- Node1&#45;&gt;Node13 -->
<g id="edge73_Node000001_Node000013" class="edge">
<title>Node1&#45;&gt;Node13</title>
<g id="a_edge73_Node000001_Node000013"><a xlink:title=" ">
<path fill="none" stroke="#63b8ff" d="M680.53,-323.05C603.04,-320.07 458.3,-309.74 340.74,-274 214.27,-235.56 144.23,-253.44 74.74,-141 -16.77,7.06 -106.87,-151.08 346.62,-74.72"/>
<polygon fill="#63b8ff" stroke="#63b8ff" points="347.02,-78.2 356.28,-73.07 345.84,-71.3 347.02,-78.2"/>
</a>
</g>
</g>
<!-- Node15 -->
<g id="Node000015" class="node">
<title>Node15</title>
<g id="a_Node000015"><a xlink:title=" ">
<polygon fill="#e0e0e0" stroke="#999999" points="239.24,-135.38 202.24,-135.38 202.24,-116.12 239.24,-116.12 239.24,-135.38"/>
<text text-anchor="middle" x="220.74" y="-121.88" font-family="Helvetica,sans-Serif" font-size="10.00">array</text>
</a>
</g>
</g>
<!-- Node1&#45;&gt;Node15 -->
<g id="edge70_Node000001_Node000015" class="edge">
<title>Node1&#45;&gt;Node15</title>
<g id="a_edge70_Node000001_Node000015"><a xlink:title=" ">
<path fill="none" stroke="#63b8ff" d="M680.39,-314.82C600.2,-299.73 448.45,-265.78 330.74,-207.5 295.57,-190.09 259.86,-161.41 239.03,-143.32"/>
<polygon fill="#63b8ff" stroke="#63b8ff" points="241.51,-140.84 231.7,-136.84 236.88,-146.09 241.51,-140.84"/>
</a>
</g>
</g>
<!-- Node16 -->
<g id="Node000016" class="node">
<title>Node16</title>
<g id="a_Node000016"><a xlink:title=" ">
<polygon fill="#e0e0e0" stroke="#999999" points="1003.74,-135.38 945.74,-135.38 945.74,-116.12 1003.74,-116.12 1003.74,-135.38"/>
<text text-anchor="middle" x="974.74" y="-121.88" font-family="Helvetica,sans-Serif" font-size="10.00">functional</text>
</a>
</g>
</g>
<!-- Node1&#45;&gt;Node16 -->
<g id="edge71_Node000001_Node000016" class="edge">
<title>Node1&#45;&gt;Node16</title>
<g id="a_edge71_Node000001_Node000016"><a xlink:title=" ">
<path fill="none" stroke="#63b8ff" d="M791.05,-314.88C848.73,-301.85 936.25,-272.11 976.74,-207.5 988.12,-189.34 985.2,-164.09 981,-146.68"/>
<polygon fill="#63b8ff" stroke="#63b8ff" points="984.43,-145.98 978.37,-137.29 977.69,-147.86 984.43,-145.98"/>
</a>
</g>
</g>
<!-- Node22 -->
<g id="Node000022" class="node">
<title>Node22</title>
<g id="a_Node000022"><a xlink:title=" ">
<polygon fill="#e0e0e0" stroke="#999999" points="1417.36,-135.38 1372.11,-135.38 1372.11,-116.12 1417.36,-116.12 1417.36,-135.38"/>
<text text-anchor="middle" x="1394.74" y="-121.88" font-family="Helvetica,sans-Serif" font-size="10.00">variant</text>
</a>
</g>
</g>
<!-- Node1&#45;&gt;Node22 -->
<g id="edge74_Node000001_Node000022" class="edge">
<title>Node1&#45;&gt;Node22</title>
<g id="a_edge74_Node000001_Node000022"><a xlink:title=" ">
<path fill="none" stroke="#63b8ff" d="M790.89,-324.32C944.06,-323.95 1366.13,-318.83 1407.74,-274 1440.23,-238.98 1418.6,-177.04 1404.37,-145.84"/>
<polygon fill="#63b8ff" stroke="#63b8ff" points="1407.71,-144.71 1400.23,-137.21 1401.4,-147.74 1407.71,-144.71"/>
</a>
</g>
</g>
<!-- Node23 -->
<g id="Node000023" class="node">
<title>Node23</title>
<g id="a_Node000023"><a xlink:href="../../d4/d64/_name_parser_reductions_8hpp.html" target="_top" xlink:title=" ">
<polygon fill="white" stroke="#666666" points="1398.99,-274 1258.49,-274 1258.49,-243.5 1398.99,-243.5 1398.99,-274"/>
<text text-anchor="start" x="1266.49" y="-260.5" font-family="Helvetica,sans-Serif" font-size="10.00">mimic++/printing/type</text>
<text text-anchor="middle" x="1328.74" y="-249.25" font-family="Helvetica,sans-Serif" font-size="10.00">/NameParserReductions.hpp</text>
</a>
</g>
</g>
<!-- Node1&#45;&gt;Node23 -->
<g id="edge36_Node000001_Node000023" class="edge">
<title>Node1&#45;&gt;Node23</title>
<g id="a_edge36_Node000001_Node000023"><a xlink:title=" ">
<path fill="none" stroke="#63b8ff" d="M790.99,-318.24C895.97,-306.82 1124.67,-281.95 1247.26,-268.61"/>
<polygon fill="#63b8ff" stroke="#63b8ff" points="1247.36,-272.12 1256.92,-267.56 1246.6,-265.16 1247.36,-272.12"/>
</a>
</g>
</g>
<!-- Node24 -->
<g id="Node000024" class="node">
<title>Node24</title>
<g id="a_Node000024"><a xlink:href="../../d6/d81/_name_parser_tokens_8hpp.html" target="_top" xlink:title=" ">
<polygon fill="white" stroke="#666666" points="1223.74,-207.5 1099.74,-207.5 1099.74,-177 1223.74,-177 1223.74,-207.5"/>
<text text-anchor="start" x="1107.74" y="-194" font-family="Helvetica,sans-Serif" font-size="10.00">mimic++/printing/type</text>
<text text-anchor="middle" x="1161.74" y="-182.75" font-family="Helvetica,sans-Serif" font-size="10.00">/NameParserTokens.hpp</text>
</a>
</g>
</g>
<!-- Node1&#45;&gt;Node24 -->
<g id="edge65_Node000001_Node000024" class="edge">
<title>Node1&#45;&gt;Node24</title>
<g id="a_edge65_Node000001_Node000024"><a xlink:title=" ">
<path fill="none" stroke="#63b8ff" d="M790.98,-320.76C876.3,-314.64 1035.55,-300.07 1085.74,-274 1111.08,-260.83 1132.57,-235.81 1146.16,-217.1"/>
<polygon fill="#63b8ff" stroke="#63b8ff" points="1148.99,-219.17 1151.84,-208.96 1143.25,-215.16 1148.99,-219.17"/>
</a>
</g>
</g>
<!-- Node31 -->
<g id="Node000031" class="node">
<title>Node31</title>
<g id="a_Node000031"><a xlink:href="../../d7/d59/utilities_2_c_09_0923_backports_8hpp.html" target="_top" xlink:title=" ">
<polygon fill="white" stroke="#666666" points="184.11,-141 83.36,-141 83.36,-110.5 184.11,-110.5 184.11,-141"/>
<text text-anchor="start" x="91.36" y="-127.5" font-family="Helvetica,sans-Serif" font-size="10.00">mimic++/utilities/C</text>
<text text-anchor="middle" x="133.74" y="-116.25" font-family="Helvetica,sans-Serif" font-size="10.00">++23Backports.hpp</text>
</a>
</g>
</g>
<!-- Node1&#45;&gt;Node31 -->
<g id="edge66_Node000001_Node000031" class="edge">
<title>Node1&#45;&gt;Node31</title>
<g id="a_edge66_Node000001_Node000031"><a xlink:title=" ">
<path fill="none" stroke="#63b8ff" d="M680.63,-320.4C616.33,-314.81 507.4,-301.88 417.74,-274 352.34,-253.66 339.57,-238.95 278.74,-207.5 240.61,-187.79 197.77,-163.68 168.6,-146.96"/>
<polygon fill="#63b8ff" stroke="#63b8ff" points="170.61,-144.08 160.2,-142.13 167.12,-150.15 170.61,-144.08"/>
</a>
</g>
</g>
<!-- Node2&#45;&gt;Node3 -->
<g id="edge2_Node000002_Node000003" class="edge">
<title>Node2&#45;&gt;Node3</title>
<g id="a_edge2_Node000002_Node000003"><a xlink:title=" ">
<path fill="none" stroke="#63b8ff" d="M638.85,-115.68C671.04,-105.65 723.08,-89.44 759,-78.25"/>
<polygon fill="#63b8ff" stroke="#63b8ff" points="759.63,-81.72 768.14,-75.41 757.55,-75.04 759.63,-81.72"/>
</a>
</g>
</g>
<!-- Node6 -->
<g id="Node000006" class="node">
<title>Node6</title>
<g id="a_Node000006"><a xlink:title=" ">
<polygon fill="#e0e0e0" stroke="#999999" points="629.74,-74.5 589.74,-74.5 589.74,-55.25 629.74,-55.25 629.74,-74.5"/>
<text text-anchor="middle" x="609.74" y="-61" font-family="Helvetica,sans-Serif" font-size="10.00">string</text>
</a>
</g>
</g>
<!-- Node2&#45;&gt;Node6 -->
<g id="edge5_Node000002_Node000006" class="edge">
<title>Node2&#45;&gt;Node6</title>
<g id="a_edge5_Node000002_Node000006"><a xlink:title=" ">
<path fill="none" stroke="#63b8ff" d="M609.74,-115.81C609.74,-108.03 609.74,-96.45 609.74,-86.41"/>
<polygon fill="#63b8ff" stroke="#63b8ff" points="613.24,-86.41 609.74,-76.41 606.24,-86.41 613.24,-86.41"/>
</a>
</g>
</g>
<!-- Node7 -->
<g id="Node000007" class="node">
<title>Node7</title>
<g id="a_Node000007"><a xlink:title=" ">
<polygon fill="#e0e0e0" stroke="#999999" points="569.49,-74.5 503.99,-74.5 503.99,-55.25 569.49,-55.25 569.49,-74.5"/>
<text text-anchor="middle" x="536.74" y="-61" font-family="Helvetica,sans-Serif" font-size="10.00">string_view</text>
</a>
</g>
</g>
<!-- Node2&#45;&gt;Node7 -->
<g id="edge6_Node000002_Node000007" class="edge">
<title>Node2&#45;&gt;Node7</title>
<g id="a_edge6_Node000002_Node000007"><a xlink:title=" ">
<path fill="none" stroke="#63b8ff" d="M598.65,-115.81C587.5,-106.82 570.07,-92.76 556.55,-81.85"/>
<polygon fill="#63b8ff" stroke="#63b8ff" points="559.09,-79.4 549.11,-75.85 554.69,-84.85 559.09,-79.4"/>
</a>
</g>
</g>
<!-- Node4 -->
<g id="Node000004" class="node">
<title>Node4</title>
<g id="a_Node000004"><a xlink:title=" ">
<polygon fill="#e0e0e0" stroke="#999999" points="821.36,-19.25 776.11,-19.25 776.11,0 821.36,0 821.36,-19.25"/>
<text text-anchor="middle" x="798.74" y="-5.75" font-family="Helvetica,sans-Serif" font-size="10.00">cstdint</text>
</a>
</g>
</g>
<!-- Node3&#45;&gt;Node4 -->
<g id="edge3_Node000003_Node000004" class="edge">
<title>Node3&#45;&gt;Node4</title>
<g id="a_edge3_Node000003_Node000004"><a xlink:title=" ">
<path fill="none" stroke="#63b8ff" d="M798.74,-55.08C798.74,-48.57 798.74,-39.42 798.74,-31.12"/>
<polygon fill="#63b8ff" stroke="#63b8ff" points="802.24,-31.12 798.74,-21.12 795.24,-31.12 802.24,-31.12"/>
</a>
</g>
</g>
<!-- Node5 -->
<g id="Node000005" class="node">
<title>Node5</title>
<g id="a_Node000005"><a xlink:title=" ">
<polygon fill="#e0e0e0" stroke="#999999" points="480.49,-19.25 432.99,-19.25 432.99,0 480.49,0 480.49,-19.25"/>
<text text-anchor="middle" x="456.74" y="-5.75" font-family="Helvetica,sans-Serif" font-size="10.00">version</text>
</a>
</g>
</g>
<!-- Node3&#45;&gt;Node5 -->
<g id="edge4_Node000003_Node000005" class="edge">
<title>Node3&#45;&gt;Node5</title>
<g id="a_edge4_Node000003_Node000005"><a xlink:title=" ">
<path fill="none" stroke="#63b8ff" d="M740.33,-54.78C669.12,-43.69 551,-25.3 492.23,-16.15"/>
<polygon fill="#63b8ff" stroke="#63b8ff" points="492.87,-12.71 482.45,-14.63 491.8,-19.63 492.87,-12.71"/>
</a>
</g>
</g>
<!-- Node8&#45;&gt;Node2 -->
<g id="edge9_Node000008_Node000002" class="edge">
<title>Node8&#45;&gt;Node2</title>
<g id="a_edge9_Node000008_Node000002"><a xlink:title=" ">
<path fill="none" stroke="#63b8ff" d="M680.71,-251.26C628.68,-243.85 556.06,-229.8 538.74,-207.5 519.95,-183.32 554.39,-156.97 581.56,-141.16"/>
<polygon fill="#63b8ff" stroke="#63b8ff" points="583.13,-144.3 590.17,-136.38 579.73,-138.18 583.13,-144.3"/>
</a>
</g>
</g>
<!-- Node8&#45;&gt;Node3 -->
<g id="edge10_Node000008_Node000003" class="edge">
<title>Node8&#45;&gt;Node3</title>
<g id="a_edge10_Node000008_Node000003"><a xlink:title=" ">
<path fill="none" stroke="#63b8ff" d="M747.41,-243.19C754.57,-233.57 763.36,-220.41 768.74,-207.5 785.93,-166.26 793.71,-114 796.86,-85.91"/>
<polygon fill="#63b8ff" stroke="#63b8ff" points="800.3,-86.65 797.84,-76.34 793.34,-85.93 800.3,-86.65"/>
</a>
</g>
</g>
<!-- Node9 -->
<g id="Node000009" class="node">
<title>Node9</title>
<g id="a_Node000009"><a xlink:href="../../dc/d83/_algorithm_8hpp.html" target="_top" xlink:title=" ">
<polygon fill="white" stroke="#666666" points="759.86,-201.88 609.61,-201.88 609.61,-182.62 759.86,-182.62 759.86,-201.88"/>
<text text-anchor="middle" x="684.74" y="-188.38" font-family="Helvetica,sans-Serif" font-size="10.00">mimic++/utilities/Algorithm.hpp</text>
</a>
</g>
</g>
<!-- Node8&#45;&gt;Node9 -->
<g id="edge11_Node000008_Node000009" class="edge">
<title>Node8&#45;&gt;Node9</title>
<g id="a_edge11_Node000008_Node000009"><a xlink:title=" ">
<path fill="none" stroke="#63b8ff" d="M724.16,-243.11C716.59,-233.54 706.66,-220.97 698.65,-210.85"/>
<polygon fill="#63b8ff" stroke="#63b8ff" points="701.6,-208.93 692.65,-203.26 696.11,-213.27 701.6,-208.93"/>
</a>
</g>
</g>
<!-- Node14 -->
<g id="Node000014" class="node">
<title>Node14</title>
<g id="a_Node000014"><a xlink:title=" ">
<polygon fill="#e0e0e0" stroke="#999999" points="312.61,-135.38 256.86,-135.38 256.86,-116.12 312.61,-116.12 312.61,-135.38"/>
<text text-anchor="middle" x="284.74" y="-121.88" font-family="Helvetica,sans-Serif" font-size="10.00">algorithm</text>
</a>
</g>
</g>
<!-- Node8&#45;&gt;Node14 -->
<g id="edge29_Node000008_Node000014" class="edge">
<title>Node8&#45;&gt;Node14</title>
<g id="a_edge29_Node000008_Node000014"><a xlink:title=" ">
<path fill="none" stroke="#63b8ff" d="M680.78,-245.59C639.1,-236.07 580.52,-222.04 529.74,-207.5 454.6,-185.99 368.05,-156.28 320.57,-139.55"/>
<polygon fill="#63b8ff" stroke="#63b8ff" points="321.95,-136.32 311.35,-136.29 319.61,-142.92 321.95,-136.32"/>
</a>
</g>
</g>
<!-- Node8&#45;&gt;Node15 -->
<g id="edge30_Node000008_Node000015" class="edge">
<title>Node8&#45;&gt;Node15</title>
<g id="a_edge30_Node000008_Node000015"><a xlink:title=" ">
<path fill="none" stroke="#63b8ff" d="M680.55,-251.78C618.96,-244.4 516.66,-229.98 430.74,-207.5 347.02,-185.59 326.85,-176.06 247.74,-141 247.63,-140.95 247.52,-140.9 247.41,-140.85"/>
<polygon fill="#63b8ff" stroke="#63b8ff" points="249.01,-137.74 238.48,-136.52 245.95,-144.04 249.01,-137.74"/>
</a>
</g>
</g>
<!-- Node8&#45;&gt;Node16 -->
<g id="edge32_Node000008_Node000016" class="edge">
<title>Node8&#45;&gt;Node16</title>
<g id="a_edge32_Node000008_Node000016"><a xlink:title=" ">
<path fill="none" stroke="#63b8ff" d="M766.55,-243.18C786.72,-233.46 813.54,-220.18 836.74,-207.5 859.91,-194.83 864.97,-190.38 887.74,-177 908.28,-164.92 931.68,-151.42 949.03,-141.46"/>
<polygon fill="#63b8ff" stroke="#63b8ff" points="950.73,-144.52 957.66,-136.51 947.25,-138.45 950.73,-144.52"/>
</a>
</g>
</g>
<!-- Node18 -->
<g id="Node000018" class="node">
<title>Node18</title>
<g id="a_Node000018"><a xlink:title=" ">
<polygon fill="#e0e0e0" stroke="#999999" points="927.24,-135.38 890.24,-135.38 890.24,-116.12 927.24,-116.12 927.24,-135.38"/>
<text text-anchor="middle" x="908.74" y="-121.88" font-family="Helvetica,sans-Serif" font-size="10.00">tuple</text>
</a>
</g>
</g>
<!-- Node8&#45;&gt;Node18 -->
<g id="edge34_Node000008_Node000018" class="edge">
<title>Node8&#45;&gt;Node18</title>
<g id="a_edge34_Node000008_Node000018"><a xlink:title=" ">
<path fill="none" stroke="#63b8ff" d="M754.91,-243.23C787.58,-218.49 853.78,-168.37 887.68,-142.69"/>
<polygon fill="#63b8ff" stroke="#63b8ff" points="889.65,-145.59 895.51,-136.76 885.43,-140.01 889.65,-145.59"/>
</a>
</g>
</g>
<!-- Node20 -->
<g id="Node000020" class="node">
<title>Node20</title>
<g id="a_Node000020"><a xlink:title=" ">
<polygon fill="#e0e0e0" stroke="#999999" points="591.99,-201.88 547.49,-201.88 547.49,-182.62 591.99,-182.62 591.99,-201.88"/>
<text text-anchor="middle" x="569.74" y="-188.38" font-family="Helvetica,sans-Serif" font-size="10.00">cctype</text>
</a>
</g>
</g>
<!-- Node8&#45;&gt;Node20 -->
<g id="edge31_Node000008_Node000020" class="edge">
<title>Node8&#45;&gt;Node20</title>
<g id="a_edge31_Node000008_Node000020"><a xlink:title=" ">
<path fill="none" stroke="#63b8ff" d="M693.76,-243.04C666.96,-233.42 631.57,-220.3 600.74,-207.5 600.26,-207.3 599.78,-207.1 599.29,-206.89"/>
<polygon fill="#63b8ff" stroke="#63b8ff" points="600.94,-203.79 590.37,-202.98 598.12,-210.2 600.94,-203.79"/>
</a>
</g>
</g>
<!-- Node21 -->
<g id="Node000021" class="node">
<title>Node21</title>
<g id="a_Node000021"><a xlink:title=" ">
<polygon fill="#e0e0e0" stroke="#999999" points="967.24,-201.88 930.24,-201.88 930.24,-182.62 967.24,-182.62 967.24,-201.88"/>
<text text-anchor="middle" x="948.74" y="-188.38" font-family="Helvetica,sans-Serif" font-size="10.00">span</text>
</a>
</g>
</g>
<!-- Node8&#45;&gt;Node21 -->
<g id="edge33_Node000008_Node000021" class="edge">
<title>Node8&#45;&gt;Node21</title>
<g id="a_edge33_Node000008_Node000021"><a xlink:title=" ">
<path fill="none" stroke="#63b8ff" d="M791.09,-244.37C827,-235.18 874.6,-222.05 915.74,-207.5 917.06,-207.03 918.41,-206.54 919.76,-206.02"/>
<polygon fill="#63b8ff" stroke="#63b8ff" points="920.71,-209.41 928.66,-202.4 918.08,-202.93 920.71,-209.41"/>
</a>
</g>
</g>
<!-- Node8&#45;&gt;Node22 -->
<g id="edge35_Node000008_Node000022" class="edge">
<title>Node8&#45;&gt;Node22</title>
<g id="a_edge35_Node000008_Node000022"><a xlink:title=" ">
<path fill="none" stroke="#63b8ff" d="M786.61,-243.06C814.01,-234.31 847.99,-222.07 876.74,-207.5 898.29,-196.58 898.95,-185.02 921.74,-177 1107.23,-111.69 1172.21,-189.69 1362.74,-141 1364.1,-140.65 1365.47,-140.25 1366.84,-139.81"/>
<polygon fill="#63b8ff" stroke="#63b8ff" points="1367.69,-143.24 1375.77,-136.38 1365.18,-136.7 1367.69,-143.24"/>
</a>
</g>
</g>
<!-- Node9&#45;&gt;Node3 -->
<g id="edge12_Node000009_Node000003" class="edge">
<title>Node9&#45;&gt;Node3</title>
<g id="a_edge12_Node000009_Node000003"><a xlink:title=" ">
<path fill="none" stroke="#63b8ff" d="M685.13,-182.15C686.29,-165.94 690.84,-131.76 708.74,-110.5 720.81,-96.16 738.6,-86 755.19,-79.03"/>
<polygon fill="#63b8ff" stroke="#63b8ff" points="756.37,-82.33 764.43,-75.45 753.84,-75.8 756.37,-82.33"/>
</a>
</g>
</g>
<!-- Node9&#45;&gt;Node7 -->
<g id="edge25_Node000009_Node000007" class="edge">
<title>Node9&#45;&gt;Node7</title>
<g id="a_edge25_Node000009_Node000007"><a xlink:title=" ">
<path fill="none" stroke="#63b8ff" d="M627.98,-182.13C601.85,-175.11 572.55,-162.73 553.74,-141 540.62,-125.85 537.04,-102.71 536.32,-86.11"/>
<polygon fill="#63b8ff" stroke="#63b8ff" points="539.82,-86.42 536.23,-76.45 532.82,-86.48 539.82,-86.42"/>
</a>
</g>
</g>
<!-- Node10 -->
<g id="Node000010" class="node">
<title>Node10</title>
<g id="a_Node000010"><a xlink:href="../../dc/dfc/_c_09_0926_backports_8hpp.html" target="_top" xlink:title=" ">
<polygon fill="white" stroke="#666666" points="507.11,-141 406.36,-141 406.36,-110.5 507.11,-110.5 507.11,-141"/>
<text text-anchor="start" x="414.36" y="-127.5" font-family="Helvetica,sans-Serif" font-size="10.00">mimic++/utilities/C</text>
<text text-anchor="middle" x="456.74" y="-116.25" font-family="Helvetica,sans-Serif" font-size="10.00">++26Backports.hpp</text>
</a>
</g>
</g>
<!-- Node9&#45;&gt;Node10 -->
<g id="edge13_Node000009_Node000010" class="edge">
<title>Node9&#45;&gt;Node10</title>
<g id="a_edge13_Node000009_Node000010"><a xlink:title=" ">
<path fill="none" stroke="#63b8ff" d="M652.55,-182.15C617.77,-172.31 561.52,-156.39 518.21,-144.14"/>
<polygon fill="#63b8ff" stroke="#63b8ff" points="519.25,-140.8 508.67,-141.44 517.34,-147.53 519.25,-140.8"/>
</a>
</g>
</g>
<!-- Node11 -->
<g id="Node000011" class="node">
<title>Node11</title>
<g id="a_Node000011"><a xlink:title=" ">
<polygon fill="#e0e0e0" stroke="#999999" points="1303.61,-74.5 1247.86,-74.5 1247.86,-55.25 1303.61,-55.25 1303.61,-74.5"/>
<text text-anchor="middle" x="1275.74" y="-61" font-family="Helvetica,sans-Serif" font-size="10.00">concepts</text>
</a>
</g>
</g>
<!-- Node9&#45;&gt;Node11 -->
<g id="edge21_Node000009_Node000011" class="edge">
<title>Node9&#45;&gt;Node11</title>
<g id="a_edge21_Node000009_Node000011"><a xlink:title=" ">
<path fill="none" stroke="#63b8ff" d="M688.59,-182.23C696.56,-164.84 716.65,-126.94 746.74,-110.5 789.36,-87.21 1120.45,-72.02 1236.06,-67.38"/>
<polygon fill="#63b8ff" stroke="#63b8ff" points="1236.13,-70.88 1245.99,-66.99 1235.86,-63.89 1236.13,-70.88"/>
</a>
</g>
</g>
<!-- Node9&#45;&gt;Node12 -->
<g id="edge23_Node000009_Node000012" class="edge">
<title>Node9&#45;&gt;Node12</title>
<g id="a_edge23_Node000009_Node000012"><a xlink:title=" ">
<path fill="none" stroke="#63b8ff" d="M631.42,-182.16C621.23,-180.44 610.66,-178.66 600.74,-177 503.44,-160.75 467.81,-189.17 381.74,-141 357.93,-127.68 338.73,-102.14 327.53,-84.57"/>
<polygon fill="#63b8ff" stroke="#63b8ff" points="330.59,-82.86 322.41,-76.13 324.6,-86.49 330.59,-82.86"/>
</a>
</g>
</g>
<!-- Node9&#45;&gt;Node13 -->
<g id="edge27_Node000009_Node000013" class="edge">
<title>Node9&#45;&gt;Node13</title>
<g id="a_edge27_Node000009_Node000013"><a xlink:title=" ">
<path fill="none" stroke="#63b8ff" d="M631.66,-182.16C548.98,-167.97 398.74,-142.06 397.74,-141 384.06,-126.56 383.41,-102.92 385.17,-86.02"/>
<polygon fill="#63b8ff" stroke="#63b8ff" points="388.62,-86.56 386.58,-76.17 381.7,-85.56 388.62,-86.56"/>
</a>
</g>
</g>
<!-- Node9&#45;&gt;Node14 -->
<g id="edge19_Node000009_Node000014" class="edge">
<title>Node9&#45;&gt;Node14</title>
<g id="a_edge19_Node000009_Node000014"><a xlink:title=" ">
<path fill="none" stroke="#63b8ff" d="M632.81,-182.13C622.21,-180.35 611.12,-178.56 600.74,-177 479.28,-158.73 446.36,-168.87 326.74,-141 324.45,-140.47 322.12,-139.86 319.77,-139.2"/>
<polygon fill="#63b8ff" stroke="#63b8ff" points="320.97,-135.91 310.38,-136.31 318.9,-142.6 320.97,-135.91"/>
</a>
</g>
</g>
<!-- Node9&#45;&gt;Node15 -->
<g id="edge20_Node000009_Node000015" class="edge">
<title>Node9&#45;&gt;Node15</title>
<g id="a_edge20_Node000009_Node000015"><a xlink:title=" ">
<path fill="none" stroke="#63b8ff" d="M634.63,-182.19C623.49,-180.33 611.73,-178.49 600.74,-177 444.47,-155.8 398.69,-186.64 247.74,-141 247.09,-140.8 246.43,-140.59 245.78,-140.36"/>
<polygon fill="#63b8ff" stroke="#63b8ff" points="247.38,-137.25 236.82,-136.42 244.56,-143.65 247.38,-137.25"/>
</a>
</g>
</g>
<!-- Node9&#45;&gt;Node16 -->
<g id="edge22_Node000009_Node000016" class="edge">
<title>Node9&#45;&gt;Node16</title>
<g id="a_edge22_Node000009_Node000016"><a xlink:title=" ">
<path fill="none" stroke="#63b8ff" d="M744.45,-182.15C795.92,-173.64 871.96,-159.47 936.74,-141 938.35,-140.54 939.98,-140.04 941.63,-139.52"/>
<polygon fill="#63b8ff" stroke="#63b8ff" points="942.69,-142.86 951,-136.29 940.41,-136.24 942.69,-142.86"/>
</a>
</g>
</g>
<!-- Node17 -->
<g id="Node000017" class="node">
<title>Node17</title>
<g id="a_Node000017"><a xlink:title=" ">
<polygon fill="#e0e0e0" stroke="#999999" points="872.36,-135.38 827.11,-135.38 827.11,-116.12 872.36,-116.12 872.36,-135.38"/>
<text text-anchor="middle" x="849.74" y="-121.88" font-family="Helvetica,sans-Serif" font-size="10.00">ranges</text>
</a>
</g>
</g>
<!-- Node9&#45;&gt;Node17 -->
<g id="edge24_Node000009_Node000017" class="edge">
<title>Node9&#45;&gt;Node17</title>
<g id="a_edge24_Node000009_Node000017"><a xlink:title=" ">
<path fill="none" stroke="#63b8ff" d="M708.03,-182.15C736.24,-171.12 783.97,-152.46 816.15,-139.88"/>
<polygon fill="#63b8ff" stroke="#63b8ff" points="817.38,-143.16 825.42,-136.26 814.83,-136.64 817.38,-143.16"/>
</a>
</g>
</g>
<!-- Node9&#45;&gt;Node18 -->
<g id="edge26_Node000009_Node000018" class="edge">
<title>Node9&#45;&gt;Node18</title>
<g id="a_edge26_Node000009_Node000018"><a xlink:title=" ">
<path fill="none" stroke="#63b8ff" d="M733.49,-182.16C773.98,-173.83 832.66,-159.9 881.74,-141 882.09,-140.86 882.44,-140.73 882.8,-140.58"/>
<polygon fill="#63b8ff" stroke="#63b8ff" points="884.07,-143.85 891.66,-136.47 881.12,-137.5 884.07,-143.85"/>
</a>
</g>
</g>
<!-- Node19 -->
<g id="Node000019" class="node">
<title>Node19</title>
<g id="a_Node000019"><a xlink:title=" ">
<polygon fill="#e0e0e0" stroke="#999999" points="1708.99,-74.5 1670.49,-74.5 1670.49,-55.25 1708.99,-55.25 1708.99,-74.5"/>
<text text-anchor="middle" x="1689.74" y="-61" font-family="Helvetica,sans-Serif" font-size="10.00">utility</text>
</a>
</g>
</g>
<!-- Node9&#45;&gt;Node19 -->
<g id="edge28_Node000009_Node000019" class="edge">
<title>Node9&#45;&gt;Node19</title>
<g id="a_edge28_Node000009_Node000019"><a xlink:title=" ">
<path fill="none" stroke="#63b8ff" d="M695.22,-182.32C716.57,-164.73 767.39,-125.99 817.74,-110.5 899.39,-85.39 1513.32,-69.9 1658.86,-66.56"/>
<polygon fill="#63b8ff" stroke="#63b8ff" points="1658.57,-70.07 1668.49,-66.34 1658.41,-63.07 1658.57,-70.07"/>
</a>
</g>
</g>
<!-- Node10&#45;&gt;Node3 -->
<g id="edge14_Node000010_Node000003" class="edge">
<title>Node10&#45;&gt;Node3</title>
<g id="a_edge14_Node000010_Node000003"><a xlink:title=" ">
<path fill="none" stroke="#63b8ff" d="M507.57,-116C568.08,-105.58 669.18,-88.18 734.9,-76.86"/>
<polygon fill="#63b8ff" stroke="#63b8ff" points="735.18,-80.37 744.45,-75.22 734,-73.47 735.18,-80.37"/>
</a>
</g>
</g>
<!-- Node10&#45;&gt;Node5 -->
<g id="edge18_Node000010_Node000005" class="edge">
<title>Node10&#45;&gt;Node5</title>
<g id="a_edge18_Node000010_Node000005"><a xlink:title=" ">
<path fill="none" stroke="#63b8ff" d="M456.74,-110.3C456.74,-90.25 456.74,-53.9 456.74,-31.07"/>
<polygon fill="#63b8ff" stroke="#63b8ff" points="460.24,-31.21 456.74,-21.21 453.24,-31.21 460.24,-31.21"/>
</a>
</g>
</g>
<!-- Node10&#45;&gt;Node11 -->
<g id="edge15_Node000010_Node000011" class="edge">
<title>Node10&#45;&gt;Node11</title>
<g id="a_edge15_Node000010_Node000011"><a xlink:title=" ">
<path fill="none" stroke="#63b8ff" d="M507.48,-116.47C522.35,-114.27 538.67,-112.07 553.74,-110.5 813.19,-83.47 1126.93,-70.93 1236.06,-67.15"/>
<polygon fill="#63b8ff" stroke="#63b8ff" points="1236.07,-70.66 1245.94,-66.82 1235.83,-63.66 1236.07,-70.66"/>
</a>
</g>
</g>
<!-- Node10&#45;&gt;Node12 -->
<g id="edge16_Node000010_Node000012" class="edge">
<title>Node10&#45;&gt;Node12</title>
<g id="a_edge16_Node000010_Node000012"><a xlink:title=" ">
<path fill="none" stroke="#63b8ff" d="M421.77,-110.05C399.32,-100.6 370.4,-88.44 348.59,-79.27"/>
<polygon fill="#63b8ff" stroke="#63b8ff" points="350.18,-76.14 339.6,-75.49 347.46,-82.59 350.18,-76.14"/>
</a>
</g>
</g>
<!-- Node10&#45;&gt;Node13 -->
<g id="edge17_Node000010_Node000013" class="edge">
<title>Node10&#45;&gt;Node13</title>
<g id="a_edge17_Node000010_Node000013"><a xlink:title=" ">
<path fill="none" stroke="#63b8ff" d="M439.93,-110.2C430.17,-101.75 417.85,-91.08 407.74,-82.33"/>
<polygon fill="#63b8ff" stroke="#63b8ff" points="410.21,-79.84 400.36,-75.94 405.63,-85.13 410.21,-79.84"/>
</a>
</g>
</g>
<!-- Node23&#45;&gt;Node2 -->
<g id="edge37_Node000023_Node000002" class="edge">
<title>Node23&#45;&gt;Node2</title>
<g id="a_edge37_Node000023_Node000002"><a xlink:title=" ">
<path fill="none" stroke="#63b8ff" d="M1258.22,-243.89C1210.74,-234.3 1146.8,-220.91 1090.74,-207.5 1039.73,-195.3 1028.15,-187.36 976.74,-177 868.72,-155.24 740.9,-140.1 668.17,-132.46"/>
<polygon fill="#63b8ff" stroke="#63b8ff" points="668.79,-129.01 658.48,-131.46 668.07,-135.97 668.79,-129.01"/>
</a>
</g>
</g>
<!-- Node23&#45;&gt;Node3 -->
<g id="edge38_Node000023_Node000003" class="edge">
<title>Node23&#45;&gt;Node3</title>
<g id="a_edge38_Node000023_Node000003"><a xlink:title=" ">
<path fill="none" stroke="#63b8ff" d="M1351.27,-243.05C1391.31,-215.22 1467.03,-153.76 1426.74,-110.5 1389.88,-70.93 1034.8,-65.87 875.46,-65.61"/>
<polygon fill="#63b8ff" stroke="#63b8ff" points="875.85,-62.11 865.84,-65.6 875.84,-69.11 875.85,-62.11"/>
</a>
</g>
</g>
<!-- Node23&#45;&gt;Node19 -->
<g id="edge63_Node000023_Node000019" class="edge">
<title>Node23&#45;&gt;Node19</title>
<g id="a_edge63_Node000023_Node000019"><a xlink:title=" ">
<path fill="none" stroke="#63b8ff" d="M1399.41,-254.47C1469.36,-249.58 1578.71,-237.45 1668.74,-207.5 1727.7,-187.88 1759.91,-194.38 1791.74,-141 1798.68,-129.36 1799.16,-121.84 1791.74,-110.5 1776.01,-86.45 1744.15,-75.28 1720.19,-70.15"/>
<polygon fill="#63b8ff" stroke="#63b8ff" points="1721.14,-66.76 1710.67,-68.36 1719.85,-73.64 1721.14,-66.76"/>
</a>
</g>
</g>
<!-- Node23&#45;&gt;Node21 -->
<g id="edge62_Node000023_Node000021" class="edge">
<title>Node23&#45;&gt;Node21</title>
<g id="a_edge62_Node000023_Node000021"><a xlink:title=" ">
<path fill="none" stroke="#63b8ff" d="M1258.15,-253.01C1187.22,-246.97 1075.31,-233.97 981.74,-207.5 980.39,-207.12 979.02,-206.69 977.64,-206.24"/>
<polygon fill="#63b8ff" stroke="#63b8ff" points="979.28,-203.11 968.68,-202.81 976.77,-209.65 979.28,-203.11"/>
</a>
</g>
</g>
<!-- Node23&#45;&gt;Node22 -->
<g id="edge64_Node000023_Node000022" class="edge">
<title>Node23&#45;&gt;Node22</title>
<g id="a_edge64_Node000023_Node000022"><a xlink:title=" ">
<path fill="none" stroke="#63b8ff" d="M1336.05,-243.23C1347.98,-219.55 1371.63,-172.62 1384.97,-146.13"/>
<polygon fill="#63b8ff" stroke="#63b8ff" points="1388.1,-147.71 1389.47,-137.2 1381.84,-144.56 1388.1,-147.71"/>
</a>
</g>
</g>
<!-- Node23&#45;&gt;Node24 -->
<g id="edge39_Node000023_Node000024" class="edge">
<title>Node23&#45;&gt;Node24</title>
<g id="a_edge39_Node000023_Node000024"><a xlink:title=" ">
<path fill="none" stroke="#63b8ff" d="M1290.84,-243.11C1267.01,-233.91 1236.03,-221.95 1210.39,-212.04"/>
<polygon fill="#63b8ff" stroke="#63b8ff" points="1211.77,-208.82 1201.18,-208.48 1209.25,-215.35 1211.77,-208.82"/>
</a>
</g>
</g>
<!-- Node27 -->
<g id="Node000027" class="node">
<title>Node27</title>
<g id="a_Node000027"><a xlink:title=" ">
<polygon fill="#e0e0e0" stroke="#999999" points="1353.61,-135.38 1303.86,-135.38 1303.86,-116.12 1353.61,-116.12 1353.61,-135.38"/>
<text text-anchor="middle" x="1328.74" y="-121.88" font-family="Helvetica,sans-Serif" font-size="10.00">optional</text>
</a>
</g>
</g>
<!-- Node23&#45;&gt;Node27 -->
<g id="edge61_Node000023_Node000027" class="edge">
<title>Node23&#45;&gt;Node27</title>
<g id="a_edge61_Node000023_Node000027"><a xlink:title=" ">
<path fill="none" stroke="#63b8ff" d="M1328.74,-243.23C1328.74,-219.87 1328.74,-173.88 1328.74,-147.21"/>
<polygon fill="#63b8ff" stroke="#63b8ff" points="1332.24,-147.36 1328.74,-137.36 1325.24,-147.36 1332.24,-147.36"/>
</a>
</g>
</g>
<!-- Node29 -->
<g id="Node000029" class="node">
<title>Node29</title>
<g id="a_Node000029"><a xlink:href="../../df/d2e/_type_list_8hpp.html" target="_top" xlink:title=" ">
<polygon fill="white" stroke="#666666" points="1659.99,-201.88 1513.49,-201.88 1513.49,-182.62 1659.99,-182.62 1659.99,-201.88"/>
<text text-anchor="middle" x="1586.74" y="-188.38" font-family="Helvetica,sans-Serif" font-size="10.00">mimic++/utilities/TypeList.hpp</text>
</a>
</g>
</g>
<!-- Node23&#45;&gt;Node29 -->
<g id="edge54_Node000023_Node000029" class="edge">
<title>Node23&#45;&gt;Node29</title>
<g id="a_edge54_Node000023_Node000029"><a xlink:title=" ">
<path fill="none" stroke="#63b8ff" d="M1387.6,-243.03C1433.61,-231.53 1496.72,-215.75 1539.47,-205.07"/>
<polygon fill="#63b8ff" stroke="#63b8ff" points="1540.09,-208.52 1548.95,-202.7 1538.4,-201.73 1540.09,-208.52"/>
</a>
</g>
</g>
<!-- Node24&#45;&gt;Node2 -->
<g id="edge40_Node000024_Node000002" class="edge">
<title>Node24&#45;&gt;Node2</title>
<g id="a_edge40_Node000024_Node000002"><a xlink:title=" ">
<path fill="none" stroke="#63b8ff" d="M1099.49,-183.98C992,-171.42 773.08,-145.84 668.24,-133.59"/>
<polygon fill="#63b8ff" stroke="#63b8ff" points="668.79,-130.13 658.45,-132.44 667.98,-137.08 668.79,-130.13"/>
</a>
</g>
</g>
<!-- Node24&#45;&gt;Node3 -->
<g id="edge41_Node000024_Node000003" class="edge">
<title>Node24&#45;&gt;Node3</title>
<g id="a_edge41_Node000024_Node000003"><a xlink:title=" ">
<path fill="none" stroke="#63b8ff" d="M1152.12,-176.51C1139.05,-157.82 1113.83,-126.13 1083.74,-110.5 1048.46,-92.18 947.33,-79.42 875.59,-72.37"/>
<polygon fill="#63b8ff" stroke="#63b8ff" points="876.14,-68.91 865.85,-71.43 875.47,-75.87 876.14,-68.91"/>
</a>
</g>
</g>
<!-- Node24&#45;&gt;Node11 -->
<g id="edge46_Node000024_Node000011" class="edge">
<title>Node24&#45;&gt;Node11</title>
<g id="a_edge46_Node000024_Node000011"><a xlink:title=" ">
<path fill="none" stroke="#63b8ff" d="M1206.82,-176.61C1224.73,-168.69 1244.06,-157.14 1256.74,-141 1269.07,-125.31 1273.49,-102.58 1275.02,-86.23"/>
<polygon fill="#63b8ff" stroke="#63b8ff" points="1278.52,-86.46 1275.64,-76.26 1271.53,-86.03 1278.52,-86.46"/>
</a>
</g>
</g>
<!-- Node24&#45;&gt;Node13 -->
<g id="edge51_Node000024_Node000013" class="edge">
<title>Node24&#45;&gt;Node13</title>
<g id="a_edge51_Node000024_Node000013"><a xlink:title=" ">
<path fill="none" stroke="#63b8ff" d="M1137.74,-176.61C1102.56,-155.43 1038.38,-117.96 1012.74,-110.5 791.14,-46.06 724.86,-91.86 494.74,-74.5 473.6,-72.91 450.1,-71.01 430.61,-69.4"/>
<polygon fill="#63b8ff" stroke="#63b8ff" points="431.11,-65.93 420.85,-68.59 430.53,-72.9 431.11,-65.93"/>
</a>
</g>
</g>
<!-- Node24&#45;&gt;Node16 -->
<g id="edge47_Node000024_Node000016" class="edge">
<title>Node24&#45;&gt;Node16</title>
<g id="a_edge47_Node000024_Node000016"><a xlink:title=" ">
<path fill="none" stroke="#63b8ff" d="M1119.3,-176.61C1086.96,-165.46 1042.86,-150.25 1011.9,-139.57"/>
<polygon fill="#63b8ff" stroke="#63b8ff" points="1013.16,-136.3 1002.56,-136.35 1010.87,-142.92 1013.16,-136.3"/>
</a>
</g>
</g>
<!-- Node24&#45;&gt;Node17 -->
<g id="edge50_Node000024_Node000017" class="edge">
<title>Node24&#45;&gt;Node17</title>
<g id="a_edge50_Node000024_Node000017"><a xlink:title=" ">
<path fill="none" stroke="#63b8ff" d="M1099.27,-184.43C1041.84,-177.13 954.79,-163.46 881.74,-141 880.74,-140.7 879.74,-140.37 878.74,-140.02"/>
<polygon fill="#63b8ff" stroke="#63b8ff" points="880.05,-136.78 869.47,-136.37 877.49,-143.29 880.05,-136.78"/>
</a>
</g>
</g>
<!-- Node24&#45;&gt;Node22 -->
<g id="edge52_Node000024_Node000022" class="edge">
<title>Node24&#45;&gt;Node22</title>
<g id="a_edge52_Node000024_Node000022"><a xlink:title=" ">
<path fill="none" stroke="#63b8ff" d="M1224.13,-178.59C1264.23,-169.74 1317.17,-156.71 1362.74,-141 1363.69,-140.67 1364.66,-140.32 1365.63,-139.96"/>
<polygon fill="#63b8ff" stroke="#63b8ff" points="1366.66,-143.32 1374.6,-136.31 1364.02,-136.84 1366.66,-143.32"/>
</a>
</g>
</g>
<!-- Node25 -->
<g id="Node000025" class="node">
<title>Node25</title>
<g id="a_Node000025"><a xlink:href="../../d9/db9/_concepts_8hpp.html" target="_top" xlink:title=" ">
<polygon fill="white" stroke="#666666" points="1661.86,-135.38 1511.61,-135.38 1511.61,-116.12 1661.86,-116.12 1661.86,-135.38"/>
<text text-anchor="middle" x="1586.74" y="-121.88" font-family="Helvetica,sans-Serif" font-size="10.00">mimic++/utilities/Concepts.hpp</text>
</a>
</g>
</g>
<!-- Node24&#45;&gt;Node25 -->
<g id="edge42_Node000024_Node000025" class="edge">
<title>Node24&#45;&gt;Node25</title>
<g id="a_edge42_Node000024_Node000025"><a xlink:title=" ">
<path fill="none" stroke="#63b8ff" d="M1223.99,-181.8C1301.61,-170.02 1433.99,-149.93 1515.56,-137.55"/>
<polygon fill="#63b8ff" stroke="#63b8ff" points="1515.86,-141.05 1525.23,-136.09 1514.81,-134.13 1515.86,-141.05"/>
</a>
</g>
</g>
<!-- Node26 -->
<g id="Node000026" class="node">
<title>Node26</title>
<g id="a_Node000026"><a xlink:title=" ">
<polygon fill="#e0e0e0" stroke="#999999" points="1185.99,-135.38 1135.49,-135.38 1135.49,-116.12 1185.99,-116.12 1185.99,-135.38"/>
<text text-anchor="middle" x="1160.74" y="-121.88" font-family="Helvetica,sans-Serif" font-size="10.00">memory</text>
</a>
</g>
</g>
<!-- Node24&#45;&gt;Node26 -->
<g id="edge48_Node000024_Node000026" class="edge">
<title>Node24&#45;&gt;Node26</title>
<g id="a_edge48_Node000024_Node000026"><a xlink:title=" ">
<path fill="none" stroke="#63b8ff" d="M1161.51,-176.61C1161.37,-167.83 1161.2,-156.52 1161.05,-146.9"/>
<polygon fill="#63b8ff" stroke="#63b8ff" points="1164.55,-147.03 1160.9,-137.09 1157.55,-147.14 1164.55,-147.03"/>
</a>
</g>
</g>
<!-- Node24&#45;&gt;Node27 -->
<g id="edge49_Node000024_Node000027" class="edge">
<title>Node24&#45;&gt;Node27</title>
<g id="a_edge49_Node000024_Node000027"><a xlink:title=" ">
<path fill="none" stroke="#63b8ff" d="M1199.63,-176.61C1228.22,-165.57 1267.1,-150.56 1294.7,-139.9"/>
<polygon fill="#63b8ff" stroke="#63b8ff" points="1295.93,-143.17 1304,-136.31 1293.41,-136.64 1295.93,-143.17"/>
</a>
</g>
</g>
<!-- Node28 -->
<g id="Node000028" class="node">
<title>Node28</title>
<g id="a_Node000028"><a xlink:title=" ">
<polygon fill="#e0e0e0" stroke="#999999" points="1247.24,-135.38 1204.24,-135.38 1204.24,-116.12 1247.24,-116.12 1247.24,-135.38"/>
<text text-anchor="middle" x="1225.74" y="-121.88" font-family="Helvetica,sans-Serif" font-size="10.00">vector</text>
</a>
</g>
</g>
<!-- Node24&#45;&gt;Node28 -->
<g id="edge53_Node000024_Node000028" class="edge">
<title>Node24&#45;&gt;Node28</title>
<g id="a_edge53_Node000024_Node000028"><a xlink:title=" ">
<path fill="none" stroke="#63b8ff" d="M1176.26,-176.61C1185.96,-166.84 1198.75,-153.95 1208.89,-143.73"/>
<polygon fill="#63b8ff" stroke="#63b8ff" points="1211.36,-146.21 1215.92,-136.65 1206.39,-141.28 1211.36,-146.21"/>
</a>
</g>
</g>
<!-- Node25&#45;&gt;Node3 -->
<g id="edge43_Node000025_Node000003" class="edge">
<title>Node25&#45;&gt;Node3</title>
<g id="a_edge43_Node000025_Node000003"><a xlink:title=" ">
<path fill="none" stroke="#63b8ff" d="M1535.08,-115.63C1522.87,-113.71 1509.87,-111.86 1497.74,-110.5 1272.5,-85.34 1004.74,-73.16 875.74,-68.4"/>
<polygon fill="#63b8ff" stroke="#63b8ff" points="876.08,-64.91 865.96,-68.04 875.83,-71.9 876.08,-64.91"/>
</a>
</g>
</g>
<!-- Node25&#45;&gt;Node11 -->
<g id="edge44_Node000025_Node000011" class="edge">
<title>Node25&#45;&gt;Node11</title>
<g id="a_edge44_Node000025_Node000011"><a xlink:title=" ">
<path fill="none" stroke="#63b8ff" d="M1538.82,-115.68C1477.29,-104.03 1371.68,-84.04 1314.78,-73.27"/>
<polygon fill="#63b8ff" stroke="#63b8ff" points="1315.71,-69.88 1305.23,-71.46 1314.41,-76.76 1315.71,-69.88"/>
</a>
</g>
</g>
<!-- Node25&#45;&gt;Node19 -->
<g id="edge45_Node000025_Node000019" class="edge">
<title>Node25&#45;&gt;Node19</title>
<g id="a_edge45_Node000025_Node000019"><a xlink:title=" ">
<path fill="none" stroke="#63b8ff" d="M1602.38,-115.81C1618.71,-106.47 1644.6,-91.67 1663.96,-80.61"/>
<polygon fill="#63b8ff" stroke="#63b8ff" points="1665.69,-83.65 1672.63,-75.65 1662.21,-77.58 1665.69,-83.65"/>
</a>
</g>
</g>
<!-- Node29&#45;&gt;Node3 -->
<g id="edge55_Node000029_Node000003" class="edge">
<title>Node29&#45;&gt;Node3</title>
<g id="a_edge55_Node000029_Node000003"><a xlink:title=" ">
<path fill="none" stroke="#63b8ff" d="M1570.72,-182.17C1553.65,-172.37 1525.94,-156.13 1502.74,-141 1483.11,-128.2 1481.81,-118.36 1459.74,-110.5 1354.2,-72.91 1026.54,-66.69 875.91,-65.86"/>
<polygon fill="#63b8ff" stroke="#63b8ff" points="876.04,-62.36 866.02,-65.81 876,-69.36 876.04,-62.36"/>
</a>
</g>
</g>
<!-- Node29&#45;&gt;Node11 -->
<g id="edge57_Node000029_Node000011" class="edge">
<title>Node29&#45;&gt;Node11</title>
<g id="a_edge57_Node000029_Node000011"><a xlink:title=" ">
<path fill="none" stroke="#63b8ff" d="M1609.08,-182.15C1641.58,-167.67 1695.47,-138.18 1670.74,-110.5 1647.31,-84.28 1410.88,-71.53 1315.41,-67.41"/>
<polygon fill="#63b8ff" stroke="#63b8ff" points="1315.61,-63.92 1305.47,-67 1315.32,-70.91 1315.61,-63.92"/>
</a>
</g>
</g>
<!-- Node29&#45;&gt;Node18 -->
<g id="edge59_Node000029_Node000018" class="edge">
<title>Node29&#45;&gt;Node18</title>
<g id="a_edge59_Node000029_Node000018"><a xlink:title=" ">
<path fill="none" stroke="#63b8ff" d="M1513.11,-189.18C1366.57,-184.47 1043.32,-170.95 936.74,-141 935.93,-140.77 935.12,-140.52 934.31,-140.25"/>
<polygon fill="#63b8ff" stroke="#63b8ff" points="935.96,-137.15 925.38,-136.46 933.22,-143.59 935.96,-137.15"/>
</a>
</g>
</g>
<!-- Node29&#45;&gt;Node19 -->
<g id="edge60_Node000029_Node000019" class="edge">
<title>Node29&#45;&gt;Node19</title>
<g id="a_edge60_Node000029_Node000019"><a xlink:title=" ">
<path fill="none" stroke="#63b8ff" d="M1653.21,-182.14C1701.08,-174.06 1759.77,-160.49 1774.74,-141 1782.99,-130.25 1781.75,-122.1 1774.74,-110.5 1762.92,-90.95 1739.38,-79.54 1720.06,-73.16"/>
<polygon fill="#63b8ff" stroke="#63b8ff" points="1721.33,-69.88 1710.75,-70.39 1719.34,-76.59 1721.33,-69.88"/>
</a>
</g>
</g>
<!-- Node29&#45;&gt;Node25 -->
<g id="edge56_Node000029_Node000025" class="edge">
<title>Node29&#45;&gt;Node25</title>
<g id="a_edge56_Node000029_Node000025"><a xlink:title=" ">
<path fill="none" stroke="#63b8ff" d="M1586.74,-182.28C1586.74,-173.23 1586.74,-158.95 1586.74,-147.13"/>
<polygon fill="#63b8ff" stroke="#63b8ff" points="1590.24,-147.16 1586.74,-137.16 1583.24,-147.16 1590.24,-147.16"/>
</a>
</g>
</g>
<!-- Node30 -->
<g id="Node000030" class="node">
<title>Node30</title>
<g id="a_Node000030"><a xlink:title=" ">
<polygon fill="#e0e0e0" stroke="#999999" points="1765.86,-135.38 1717.61,-135.38 1717.61,-116.12 1765.86,-116.12 1765.86,-135.38"/>
<text text-anchor="middle" x="1741.74" y="-121.88" font-family="Helvetica,sans-Serif" font-size="10.00">cstddef</text>
</a>
</g>
</g>
<!-- Node29&#45;&gt;Node30 -->
<g id="edge58_Node000029_Node000030" class="edge">
<title>Node29&#45;&gt;Node30</title>
<g id="a_edge58_Node000029_Node000030"><a xlink:title=" ">
<path fill="none" stroke="#63b8ff" d="M1608.62,-182.15C1634.93,-171.2 1679.31,-152.73 1709.53,-140.15"/>
<polygon fill="#63b8ff" stroke="#63b8ff" points="1710.68,-143.46 1718.57,-136.39 1707.99,-137 1710.68,-143.46"/>
</a>
</g>
</g>
<!-- Node31&#45;&gt;Node3 -->
<g id="edge67_Node000031_Node000003" class="edge">
<title>Node31&#45;&gt;Node3</title>
<g id="a_edge67_Node000031_Node000003"><a xlink:title=" ">
<path fill="none" stroke="#63b8ff" d="M184.48,-111.94C187.26,-111.41 190.03,-110.92 192.74,-110.5 292.53,-94.88 582.1,-77.66 721.7,-69.97"/>
<polygon fill="#63b8ff" stroke="#63b8ff" points="721.81,-73.47 731.6,-69.43 721.42,-66.48 721.81,-73.47"/>
</a>
</g>
</g>
<!-- Node31&#45;&gt;Node5 -->
<g id="edge69_Node000031_Node000005" class="edge">
<title>Node31&#45;&gt;Node5</title>
<g id="a_edge69_Node000031_Node000005"><a xlink:title=" ">
<path fill="none" stroke="#63b8ff" d="M161.77,-110.01C191.63,-94.76 240.57,-71 284.74,-55.25 331.07,-38.72 386.43,-25.47 421.58,-17.82"/>
<polygon fill="#63b8ff" stroke="#63b8ff" points="422.16,-21.28 431.2,-15.77 420.69,-14.44 422.16,-21.28"/>
</a>
</g>
</g>
<!-- Node31&#45;&gt;Node13 -->
<g id="edge68_Node000031_Node000013" class="edge">
<title>Node31&#45;&gt;Node13</title>
<g id="a_edge68_Node000031_Node000013"><a xlink:title=" ">
<path fill="none" stroke="#63b8ff" d="M184.58,-112.43C187.33,-111.77 190.07,-111.13 192.74,-110.5 245.77,-98.06 307,-84.2 346.71,-75.28"/>
<polygon fill="#63b8ff" stroke="#63b8ff" points="347.35,-78.72 356.34,-73.11 345.82,-71.89 347.35,-78.72"/>
</a>
</g>
</g>
</g>
</svg>
