<?xml version="1.0" encoding="UTF-8" standalone="no"?>
<!DOCTYPE svg PUBLIC "-//W3C//DTD SVG 1.1//EN"
 "http://www.w3.org/Graphics/SVG/1.1/DTD/svg11.dtd">
<!-- Generated by graphviz version 12.2.1 (20241206.2353)
 -->
<!-- Title: mimic++/printing/type/NameParser.hpp Pages: 1 -->
<svg width="1781pt" height="349pt"
 viewBox="0.00 0.00 1781.09 348.50" xmlns="http://www.w3.org/2000/svg" xmlns:xlink="http://www.w3.org/1999/xlink">
<g id="graph0" class="graph" transform="scale(1 1) rotate(0) translate(4 344.5)">
<title>mimic++/printing/type/NameParser.hpp</title>
<!-- Node1 -->
<g id="Node000001" class="node">
<title>Node1</title>
<g id="a_Node000001"><a xlink:title=" ">
<polygon fill="#999999" stroke="#666666" points="548.25,-340.5 438.5,-340.5 438.5,-310 548.25,-310 548.25,-340.5"/>
<text text-anchor="start" x="446.5" y="-327" font-family="Helvetica,sans-Serif" font-size="10.00">mimic++/printing/type</text>
<text text-anchor="middle" x="493.38" y="-315.75" font-family="Helvetica,sans-Serif" font-size="10.00">/NameParser.hpp</text>
</a>
</g>
</g>
<!-- Node2 -->
<g id="Node000002" class="node">
<title>Node2</title>
<g id="a_Node000002"><a xlink:href="../../df/dde/_fwd_8hpp.html" target="_top" xlink:title=" ">
<polygon fill="white" stroke="#666666" points="1035.38,-135.38 941.38,-135.38 941.38,-116.12 1035.38,-116.12 1035.38,-135.38"/>
<text text-anchor="middle" x="988.38" y="-121.88" font-family="Helvetica,sans-Serif" font-size="10.00">mimic++/Fwd.hpp</text>
</a>
</g>
</g>
<!-- Node1&#45;&gt;Node2 -->
<g id="edge1_Node000001_Node000002" class="edge">
<title>Node1&#45;&gt;Node2</title>
<g id="a_edge1_Node000001_Node000002"><a xlink:title=" ">
<path fill="none" stroke="#63b8ff" d="M548.68,-324.63C651.95,-324.27 868.96,-318.1 927.38,-274 968.51,-242.94 982.08,-179.12 986.42,-146.66"/>
<polygon fill="#63b8ff" stroke="#63b8ff" points="989.86,-147.38 987.53,-137.04 982.91,-146.58 989.86,-147.38"/>
</a>
</g>
</g>
<!-- Node3 -->
<g id="Node000003" class="node">
<title>Node3</title>
<g id="a_Node000003"><a xlink:href="../../d8/dd2/_config_8hpp.html" target="_top" xlink:title=" ">
<polygon fill="white" stroke="#666666" points="551.75,-74.5 421,-74.5 421,-55.25 551.75,-55.25 551.75,-74.5"/>
<text text-anchor="middle" x="486.38" y="-61" font-family="Helvetica,sans-Serif" font-size="10.00">mimic++/config/Config.hpp</text>
</a>
</g>
</g>
<!-- Node1&#45;&gt;Node3 -->
<g id="edge7_Node000001_Node000003" class="edge">
<title>Node1&#45;&gt;Node3</title>
<g id="a_edge7_Node000001_Node000003"><a xlink:title=" ">
<path fill="none" stroke="#63b8ff" d="M439.65,-309.56C336.49,-278.83 127.54,-202.9 206.38,-110.5 213.01,-102.72 329.02,-86.24 409.61,-75.63"/>
<polygon fill="#63b8ff" stroke="#63b8ff" points="409.77,-79.14 419.23,-74.37 408.86,-72.2 409.77,-79.14"/>
</a>
</g>
</g>
<!-- Node8 -->
<g id="Node000008" class="node">
<title>Node8</title>
<g id="a_Node000008"><a xlink:href="../../db/d97/_name_lexer_8hpp.html" target="_top" xlink:title=" ">
<polygon fill="white" stroke="#666666" points="548.25,-274 438.5,-274 438.5,-243.5 548.25,-243.5 548.25,-274"/>
<text text-anchor="start" x="446.5" y="-260.5" font-family="Helvetica,sans-Serif" font-size="10.00">mimic++/printing/type</text>
<text text-anchor="middle" x="493.38" y="-249.25" font-family="Helvetica,sans-Serif" font-size="10.00">/NameLexer.hpp</text>
</a>
</g>
</g>
<!-- Node1&#45;&gt;Node8 -->
<g id="edge8_Node000001_Node000008" class="edge">
<title>Node1&#45;&gt;Node8</title>
<g id="a_edge8_Node000001_Node000008"><a xlink:title=" ">
<path fill="none" stroke="#63b8ff" d="M493.38,-309.61C493.38,-302.52 493.38,-293.79 493.38,-285.63"/>
<polygon fill="#63b8ff" stroke="#63b8ff" points="496.88,-285.84 493.38,-275.84 489.88,-285.84 496.88,-285.84"/>
</a>
</g>
</g>
<!-- Node12 -->
<g id="Node000012" class="node">
<title>Node12</title>
<g id="a_Node000012"><a xlink:title=" ">
<polygon fill="#e0e0e0" stroke="#999999" points="665.38,-74.5 619.38,-74.5 619.38,-55.25 665.38,-55.25 665.38,-74.5"/>
<text text-anchor="middle" x="642.38" y="-61" font-family="Helvetica,sans-Serif" font-size="10.00">iterator</text>
</a>
</g>
</g>
<!-- Node1&#45;&gt;Node12 -->
<g id="edge69_Node000001_Node000012" class="edge">
<title>Node1&#45;&gt;Node12</title>
<g id="a_edge69_Node000001_Node000012"><a xlink:title=" ">
<path fill="none" stroke="#63b8ff" d="M548.57,-317.68C639.18,-303.58 817.11,-261.26 894.38,-141 901.7,-129.6 903.08,-120.89 894.38,-110.5 880.53,-93.99 743.05,-76.89 677.19,-69.56"/>
<polygon fill="#63b8ff" stroke="#63b8ff" points="677.6,-66.09 667.28,-68.48 676.84,-73.04 677.6,-66.09"/>
</a>
</g>
</g>
<!-- Node13 -->
<g id="Node000013" class="node">
<title>Node13</title>
<g id="a_Node000013"><a xlink:title=" ">
<polygon fill="#e0e0e0" stroke="#999999" points="402.88,-74.5 341.88,-74.5 341.88,-55.25 402.88,-55.25 402.88,-74.5"/>
<text text-anchor="middle" x="372.38" y="-61" font-family="Helvetica,sans-Serif" font-size="10.00">type_traits</text>
</a>
</g>
</g>
<!-- Node1&#45;&gt;Node13 -->
<g id="edge70_Node000001_Node000013" class="edge">
<title>Node1&#45;&gt;Node13</title>
<g id="a_edge70_Node000001_Node000013"><a xlink:title=" ">
<path fill="none" stroke="#63b8ff" d="M438.02,-322.97C364.23,-317.79 237.68,-295.76 192.38,-207.5 172.65,-169.07 159.63,-144.42 186.38,-110.5 195.34,-99.14 278.33,-82.56 330.39,-73.13"/>
<polygon fill="#63b8ff" stroke="#63b8ff" points="330.9,-76.6 340.13,-71.39 329.67,-69.71 330.9,-76.6"/>
</a>
</g>
</g>
<!-- Node15 -->
<g id="Node000015" class="node">
<title>Node15</title>
<g id="a_Node000015"><a xlink:title=" ">
<polygon fill="#e0e0e0" stroke="#999999" points="269.88,-135.38 232.88,-135.38 232.88,-116.12 269.88,-116.12 269.88,-135.38"/>
<text text-anchor="middle" x="251.38" y="-121.88" font-family="Helvetica,sans-Serif" font-size="10.00">array</text>
</a>
</g>
</g>
<!-- Node1&#45;&gt;Node15 -->
<g id="edge67_Node000001_Node000015" class="edge">
<title>Node1&#45;&gt;Node15</title>
<g id="a_edge67_Node000001_Node000015"><a xlink:title=" ">
<path fill="none" stroke="#63b8ff" d="M453.36,-309.56C432.61,-300.92 407.48,-288.78 387.38,-274 334.98,-235.48 286.61,-174.73 264.31,-144.74"/>
<polygon fill="#63b8ff" stroke="#63b8ff" points="267.4,-143.04 258.67,-137.04 261.75,-147.17 267.4,-143.04"/>
</a>
</g>
</g>
<!-- Node16 -->
<g id="Node000016" class="node">
<title>Node16</title>
<g id="a_Node000016"><a xlink:title=" ">
<polygon fill="#e0e0e0" stroke="#999999" points="346.38,-135.38 288.38,-135.38 288.38,-116.12 346.38,-116.12 346.38,-135.38"/>
<text text-anchor="middle" x="317.38" y="-121.88" font-family="Helvetica,sans-Serif" font-size="10.00">functional</text>
</a>
</g>
</g>
<!-- Node1&#45;&gt;Node16 -->
<g id="edge68_Node000001_Node000016" class="edge">
<title>Node1&#45;&gt;Node16</title>
<g id="a_edge68_Node000001_Node000016"><a xlink:title=" ">
<path fill="none" stroke="#63b8ff" d="M471.37,-309.54C442.54,-289.36 391.85,-250.64 359.38,-207.5 344.86,-188.22 332.71,-163.2 325.28,-146.15"/>
<polygon fill="#63b8ff" stroke="#63b8ff" points="328.61,-145.04 321.5,-137.19 322.16,-147.76 328.61,-145.04"/>
</a>
</g>
</g>
<!-- Node21 -->
<g id="Node000021" class="node">
<title>Node21</title>
<g id="a_Node000021"><a xlink:title=" ">
<polygon fill="#e0e0e0" stroke="#999999" points="1099,-135.38 1053.75,-135.38 1053.75,-116.12 1099,-116.12 1099,-135.38"/>
<text text-anchor="middle" x="1076.38" y="-121.88" font-family="Helvetica,sans-Serif" font-size="10.00">variant</text>
</a>
</g>
</g>
<!-- Node1&#45;&gt;Node21 -->
<g id="edge71_Node000001_Node000021" class="edge">
<title>Node1&#45;&gt;Node21</title>
<g id="a_edge71_Node000001_Node000021"><a xlink:title=" ">
<path fill="none" stroke="#63b8ff" d="M548.47,-323.37C655.14,-320.83 885.43,-311.11 954.38,-274 1009.55,-244.3 1049.68,-178.35 1066.96,-145.75"/>
<polygon fill="#63b8ff" stroke="#63b8ff" points="1069.97,-147.56 1071.42,-137.07 1063.74,-144.37 1069.97,-147.56"/>
</a>
</g>
</g>
<!-- Node22 -->
<g id="Node000022" class="node">
<title>Node22</title>
<g id="a_Node000022"><a xlink:href="../../d4/d64/_name_parser_reductions_8hpp.html" target="_top" xlink:title=" ">
<polygon fill="white" stroke="#666666" points="1488.62,-274 1348.12,-274 1348.12,-243.5 1488.62,-243.5 1488.62,-274"/>
<text text-anchor="start" x="1356.12" y="-260.5" font-family="Helvetica,sans-Serif" font-size="10.00">mimic++/printing/type</text>
<text text-anchor="middle" x="1418.38" y="-249.25" font-family="Helvetica,sans-Serif" font-size="10.00">/NameParserReductions.hpp</text>
</a>
</g>
</g>
<!-- Node1&#45;&gt;Node22 -->
<g id="edge35_Node000001_Node000022" class="edge">
<title>Node1&#45;&gt;Node22</title>
<g id="a_edge35_Node000001_Node000022"><a xlink:title=" ">
<path fill="none" stroke="#63b8ff" d="M548.47,-320.41C704.76,-309.51 1151.56,-278.35 1336.59,-265.45"/>
<polygon fill="#63b8ff" stroke="#63b8ff" points="1336.63,-268.96 1346.36,-264.77 1336.14,-261.98 1336.63,-268.96"/>
</a>
</g>
</g>
<!-- Node23 -->
<g id="Node000023" class="node">
<title>Node23</title>
<g id="a_Node000023"><a xlink:href="../../d6/d81/_name_parser_tokens_8hpp.html" target="_top" xlink:title=" ">
<polygon fill="white" stroke="#666666" points="1227.38,-207.5 1103.38,-207.5 1103.38,-177 1227.38,-177 1227.38,-207.5"/>
<text text-anchor="start" x="1111.38" y="-194" font-family="Helvetica,sans-Serif" font-size="10.00">mimic++/printing/type</text>
<text text-anchor="middle" x="1165.38" y="-182.75" font-family="Helvetica,sans-Serif" font-size="10.00">/NameParserTokens.hpp</text>
</a>
</g>
</g>
<!-- Node1&#45;&gt;Node23 -->
<g id="edge62_Node000001_Node000023" class="edge">
<title>Node1&#45;&gt;Node23</title>
<g id="a_edge62_Node000001_Node000023"><a xlink:title=" ">
<path fill="none" stroke="#63b8ff" d="M548.55,-324.52C677.3,-324.38 993.83,-319.29 1088.38,-274 1114.41,-261.53 1136.23,-236.21 1149.91,-217.23"/>
<polygon fill="#63b8ff" stroke="#63b8ff" points="1152.64,-219.45 1155.45,-209.23 1146.88,-215.47 1152.64,-219.45"/>
</a>
</g>
</g>
<!-- Node31 -->
<g id="Node000031" class="node">
<title>Node31</title>
<g id="a_Node000031"><a xlink:href="../../d7/d59/utilities_2_c_09_0923_backports_8hpp.html" target="_top" xlink:title=" ">
<polygon fill="white" stroke="#666666" points="100.75,-141 0,-141 0,-110.5 100.75,-110.5 100.75,-141"/>
<text text-anchor="start" x="8" y="-127.5" font-family="Helvetica,sans-Serif" font-size="10.00">mimic++/utilities/C</text>
<text text-anchor="middle" x="50.38" y="-116.25" font-family="Helvetica,sans-Serif" font-size="10.00">++23Backports.hpp</text>
</a>
</g>
</g>
<!-- Node1&#45;&gt;Node31 -->
<g id="edge63_Node000001_Node000031" class="edge">
<title>Node1&#45;&gt;Node31</title>
<g id="a_edge63_Node000001_Node000031"><a xlink:title=" ">
<path fill="none" stroke="#63b8ff" d="M438.27,-323.46C345.71,-321.09 164.25,-311.62 114.38,-274 75.33,-244.55 59.74,-186.3 53.8,-152.56"/>
<polygon fill="#63b8ff" stroke="#63b8ff" points="57.28,-152.16 52.26,-142.83 50.37,-153.26 57.28,-152.16"/>
</a>
</g>
</g>
<!-- Node2&#45;&gt;Node3 -->
<g id="edge2_Node000002_Node000003" class="edge">
<title>Node2&#45;&gt;Node3</title>
<g id="a_edge2_Node000002_Node000003"><a xlink:title=" ">
<path fill="none" stroke="#63b8ff" d="M941.09,-117.19C926.16,-114.91 909.6,-112.49 894.38,-110.5 779.32,-95.49 645.55,-81.52 563.43,-73.34"/>
<polygon fill="#63b8ff" stroke="#63b8ff" points="564,-69.88 553.7,-72.37 563.3,-76.85 564,-69.88"/>
</a>
</g>
</g>
<!-- Node6 -->
<g id="Node000006" class="node">
<title>Node6</title>
<g id="a_Node000006"><a xlink:title=" ">
<polygon fill="#e0e0e0" stroke="#999999" points="1008.38,-74.5 968.38,-74.5 968.38,-55.25 1008.38,-55.25 1008.38,-74.5"/>
<text text-anchor="middle" x="988.38" y="-61" font-family="Helvetica,sans-Serif" font-size="10.00">string</text>
</a>
</g>
</g>
<!-- Node2&#45;&gt;Node6 -->
<g id="edge5_Node000002_Node000006" class="edge">
<title>Node2&#45;&gt;Node6</title>
<g id="a_edge5_Node000002_Node000006"><a xlink:title=" ">
<path fill="none" stroke="#63b8ff" d="M988.38,-115.81C988.38,-108.03 988.38,-96.45 988.38,-86.41"/>
<polygon fill="#63b8ff" stroke="#63b8ff" points="991.88,-86.41 988.38,-76.41 984.88,-86.41 991.88,-86.41"/>
</a>
</g>
</g>
<!-- Node7 -->
<g id="Node000007" class="node">
<title>Node7</title>
<g id="a_Node000007"><a xlink:title=" ">
<polygon fill="#e0e0e0" stroke="#999999" points="850.12,-74.5 784.62,-74.5 784.62,-55.25 850.12,-55.25 850.12,-74.5"/>
<text text-anchor="middle" x="817.38" y="-61" font-family="Helvetica,sans-Serif" font-size="10.00">string_view</text>
</a>
</g>
</g>
<!-- Node2&#45;&gt;Node7 -->
<g id="edge6_Node000002_Node000007" class="edge">
<title>Node2&#45;&gt;Node7</title>
<g id="a_edge6_Node000002_Node000007"><a xlink:title=" ">
<path fill="none" stroke="#63b8ff" d="M962.03,-115.68C933.29,-105.78 887.04,-89.86 854.6,-78.69"/>
<polygon fill="#63b8ff" stroke="#63b8ff" points="855.77,-75.39 845.18,-75.45 853.5,-82.01 855.77,-75.39"/>
</a>
</g>
</g>
<!-- Node4 -->
<g id="Node000004" class="node">
<title>Node4</title>
<g id="a_Node000004"><a xlink:title=" ">
<polygon fill="#e0e0e0" stroke="#999999" points="477,-19.25 431.75,-19.25 431.75,0 477,0 477,-19.25"/>
<text text-anchor="middle" x="454.38" y="-5.75" font-family="Helvetica,sans-Serif" font-size="10.00">cstdint</text>
</a>
</g>
</g>
<!-- Node3&#45;&gt;Node4 -->
<g id="edge3_Node000003_Node000004" class="edge">
<title>Node3&#45;&gt;Node4</title>
<g id="a_edge3_Node000003_Node000004"><a xlink:title=" ">
<path fill="none" stroke="#63b8ff" d="M481.09,-55.08C476.9,-48.11 470.9,-38.12 465.64,-29.37"/>
<polygon fill="#63b8ff" stroke="#63b8ff" points="468.7,-27.68 460.55,-20.91 462.7,-31.28 468.7,-27.68"/>
</a>
</g>
</g>
<!-- Node5 -->
<g id="Node000005" class="node">
<title>Node5</title>
<g id="a_Node000005"><a xlink:title=" ">
<polygon fill="#e0e0e0" stroke="#999999" points="542.12,-19.25 494.62,-19.25 494.62,0 542.12,0 542.12,-19.25"/>
<text text-anchor="middle" x="518.38" y="-5.75" font-family="Helvetica,sans-Serif" font-size="10.00">version</text>
</a>
</g>
</g>
<!-- Node3&#45;&gt;Node5 -->
<g id="edge4_Node000003_Node000005" class="edge">
<title>Node3&#45;&gt;Node5</title>
<g id="a_edge4_Node000003_Node000005"><a xlink:title=" ">
<path fill="none" stroke="#63b8ff" d="M491.66,-55.08C495.85,-48.11 501.85,-38.12 507.11,-29.37"/>
<polygon fill="#63b8ff" stroke="#63b8ff" points="510.05,-31.28 512.2,-20.91 504.05,-27.68 510.05,-31.28"/>
</a>
</g>
</g>
<!-- Node8&#45;&gt;Node2 -->
<g id="edge9_Node000008_Node000002" class="edge">
<title>Node8&#45;&gt;Node2</title>
<g id="a_edge9_Node000008_Node000002"><a xlink:title=" ">
<path fill="none" stroke="#63b8ff" d="M548.3,-247.95C597.4,-238.81 671.13,-224.1 734.38,-207.5 813.06,-186.85 903.46,-156.48 952.38,-139.48"/>
<polygon fill="#63b8ff" stroke="#63b8ff" points="953.31,-142.86 961.6,-136.26 951.01,-136.25 953.31,-142.86"/>
</a>
</g>
</g>
<!-- Node8&#45;&gt;Node3 -->
<g id="edge10_Node000008_Node000003" class="edge">
<title>Node8&#45;&gt;Node3</title>
<g id="a_edge10_Node000008_Node000003"><a xlink:title=" ">
<path fill="none" stroke="#63b8ff" d="M438.23,-249.26C341.76,-232.16 158.61,-188.41 224.38,-110.5 230.42,-103.34 334.25,-87.3 409.35,-76.54"/>
<polygon fill="#63b8ff" stroke="#63b8ff" points="409.77,-80.01 419.18,-75.14 408.78,-73.08 409.77,-80.01"/>
</a>
</g>
</g>
<!-- Node9 -->
<g id="Node000009" class="node">
<title>Node9</title>
<g id="a_Node000009"><a xlink:href="../../dc/d83/_algorithm_8hpp.html" target="_top" xlink:title=" ">
<polygon fill="white" stroke="#666666" points="671.5,-201.88 521.25,-201.88 521.25,-182.62 671.5,-182.62 671.5,-201.88"/>
<text text-anchor="middle" x="596.38" y="-188.38" font-family="Helvetica,sans-Serif" font-size="10.00">mimic++/utilities/Algorithm.hpp</text>
</a>
</g>
</g>
<!-- Node8&#45;&gt;Node9 -->
<g id="edge11_Node000008_Node000009" class="edge">
<title>Node8&#45;&gt;Node9</title>
<g id="a_edge11_Node000008_Node000009"><a xlink:title=" ">
<path fill="none" stroke="#63b8ff" d="M516.75,-243.11C533.36,-232.71 555.61,-218.78 572.36,-208.29"/>
<polygon fill="#63b8ff" stroke="#63b8ff" points="574.09,-211.34 580.7,-203.06 570.37,-205.4 574.09,-211.34"/>
</a>
</g>
</g>
<!-- Node14 -->
<g id="Node000014" class="node">
<title>Node14</title>
<g id="a_Node000014"><a xlink:title=" ">
<polygon fill="#e0e0e0" stroke="#999999" points="420.25,-135.38 364.5,-135.38 364.5,-116.12 420.25,-116.12 420.25,-135.38"/>
<text text-anchor="middle" x="392.38" y="-121.88" font-family="Helvetica,sans-Serif" font-size="10.00">algorithm</text>
</a>
</g>
</g>
<!-- Node8&#45;&gt;Node14 -->
<g id="edge29_Node000008_Node000014" class="edge">
<title>Node8&#45;&gt;Node14</title>
<g id="a_edge29_Node000008_Node000014"><a xlink:title=" ">
<path fill="none" stroke="#63b8ff" d="M457.33,-243.03C441.36,-234.79 423.67,-223.02 412.38,-207.5 399.44,-189.73 394.82,-164.56 393.19,-147.06"/>
<polygon fill="#63b8ff" stroke="#63b8ff" points="396.69,-146.92 392.56,-137.17 389.71,-147.38 396.69,-146.92"/>
</a>
</g>
</g>
<!-- Node8&#45;&gt;Node15 -->
<g id="edge30_Node000008_Node000015" class="edge">
<title>Node8&#45;&gt;Node15</title>
<g id="a_edge30_Node000008_Node000015"><a xlink:title=" ">
<path fill="none" stroke="#63b8ff" d="M494.37,-243.21C494.75,-225.02 492.42,-194.19 474.38,-177 410.56,-116.21 362.85,-169.28 279.38,-141 278.87,-140.83 278.37,-140.65 277.86,-140.47"/>
<polygon fill="#63b8ff" stroke="#63b8ff" points="279.27,-137.26 268.7,-136.46 276.46,-143.68 279.27,-137.26"/>
</a>
</g>
</g>
<!-- Node8&#45;&gt;Node16 -->
<g id="edge32_Node000008_Node000016" class="edge">
<title>Node8&#45;&gt;Node16</title>
<g id="a_edge32_Node000008_Node000016"><a xlink:title=" ">
<path fill="none" stroke="#63b8ff" d="M458.2,-243.14C438.77,-234.25 414.72,-221.85 395.38,-207.5 370.28,-188.88 346.03,-161.92 331.4,-144.36"/>
<polygon fill="#63b8ff" stroke="#63b8ff" points="334.32,-142.39 325.28,-136.86 328.89,-146.82 334.32,-142.39"/>
</a>
</g>
</g>
<!-- Node18 -->
<g id="Node000018" class="node">
<title>Node18</title>
<g id="a_Node000018"><a xlink:title=" ">
<polygon fill="#e0e0e0" stroke="#999999" points="884.88,-135.38 847.88,-135.38 847.88,-116.12 884.88,-116.12 884.88,-135.38"/>
<text text-anchor="middle" x="866.38" y="-121.88" font-family="Helvetica,sans-Serif" font-size="10.00">tuple</text>
</a>
</g>
</g>
<!-- Node8&#45;&gt;Node18 -->
<g id="edge33_Node000008_Node000018" class="edge">
<title>Node8&#45;&gt;Node18</title>
<g id="a_edge33_Node000008_Node000018"><a xlink:title=" ">
<path fill="none" stroke="#63b8ff" d="M548.37,-245.03C585.93,-235.84 636.64,-222.45 680.38,-207.5 752.86,-182.73 770.1,-173.69 839.38,-141 839.48,-140.95 839.59,-140.9 839.7,-140.85"/>
<polygon fill="#63b8ff" stroke="#63b8ff" points="841.2,-144.01 848.58,-136.41 838.07,-137.75 841.2,-144.01"/>
</a>
</g>
</g>
<!-- Node20 -->
<g id="Node000020" class="node">
<title>Node20</title>
<g id="a_Node000020"><a xlink:title=" ">
<polygon fill="#e0e0e0" stroke="#999999" points="465.62,-201.88 421.12,-201.88 421.12,-182.62 465.62,-182.62 465.62,-201.88"/>
<text text-anchor="middle" x="443.38" y="-188.38" font-family="Helvetica,sans-Serif" font-size="10.00">cctype</text>
</a>
</g>
</g>
<!-- Node8&#45;&gt;Node20 -->
<g id="edge31_Node000008_Node000020" class="edge">
<title>Node8&#45;&gt;Node20</title>
<g id="a_edge31_Node000008_Node000020"><a xlink:title=" ">
<path fill="none" stroke="#63b8ff" d="M482.03,-243.11C474.68,-233.64 465.07,-221.23 457.26,-211.16"/>
<polygon fill="#63b8ff" stroke="#63b8ff" points="460.03,-209.03 451.14,-203.27 454.5,-213.32 460.03,-209.03"/>
</a>
</g>
</g>
<!-- Node8&#45;&gt;Node21 -->
<g id="edge34_Node000008_Node000021" class="edge">
<title>Node8&#45;&gt;Node21</title>
<g id="a_edge34_Node000008_Node000021"><a xlink:title=" ">
<path fill="none" stroke="#63b8ff" d="M548.65,-250.97C649.43,-237.53 868.82,-203.29 1044.38,-141 1045.17,-140.72 1045.97,-140.42 1046.78,-140.12"/>
<polygon fill="#63b8ff" stroke="#63b8ff" points="1047.95,-143.43 1055.88,-136.41 1045.3,-136.95 1047.95,-143.43"/>
</a>
</g>
</g>
<!-- Node9&#45;&gt;Node3 -->
<g id="edge12_Node000009_Node000003" class="edge">
<title>Node9&#45;&gt;Node3</title>
<g id="a_edge12_Node000009_Node000003"><a xlink:title=" ">
<path fill="none" stroke="#63b8ff" d="M567.19,-182.14C546.94,-174.35 520.92,-161.15 505.38,-141 493.19,-125.2 488.74,-102.48 487.16,-86.17"/>
<polygon fill="#63b8ff" stroke="#63b8ff" points="490.66,-85.98 486.51,-76.23 483.67,-86.44 490.66,-85.98"/>
</a>
</g>
</g>
<!-- Node9&#45;&gt;Node7 -->
<g id="edge25_Node000009_Node000007" class="edge">
<title>Node9&#45;&gt;Node7</title>
<g id="a_edge25_Node000009_Node000007"><a xlink:title=" ">
<path fill="none" stroke="#63b8ff" d="M606.46,-182.24C624.86,-166.16 665.53,-132.18 704.38,-110.5 727.69,-97.49 755.59,-86.43 777.83,-78.58"/>
<polygon fill="#63b8ff" stroke="#63b8ff" points="778.82,-81.94 787.13,-75.37 776.54,-75.32 778.82,-81.94"/>
</a>
</g>
</g>
<!-- Node10 -->
<g id="Node000010" class="node">
<title>Node10</title>
<g id="a_Node000010"><a xlink:href="../../dc/dfc/_c_09_0926_backports_8hpp.html" target="_top" xlink:title=" ">
<polygon fill="white" stroke="#666666" points="614.75,-141 514,-141 514,-110.5 614.75,-110.5 614.75,-141"/>
<text text-anchor="start" x="522" y="-127.5" font-family="Helvetica,sans-Serif" font-size="10.00">mimic++/utilities/C</text>
<text text-anchor="middle" x="564.38" y="-116.25" font-family="Helvetica,sans-Serif" font-size="10.00">++26Backports.hpp</text>
</a>
</g>
</g>
<!-- Node9&#45;&gt;Node10 -->
<g id="edge13_Node000009_Node000010" class="edge">
<title>Node9&#45;&gt;Node10</title>
<g id="a_edge13_Node000009_Node000010"><a xlink:title=" ">
<path fill="none" stroke="#63b8ff" d="M591.93,-182.28C587.96,-174.29 581.96,-162.2 576.58,-151.34"/>
<polygon fill="#63b8ff" stroke="#63b8ff" points="579.74,-149.85 572.16,-142.45 573.47,-152.96 579.74,-149.85"/>
</a>
</g>
</g>
<!-- Node11 -->
<g id="Node000011" class="node">
<title>Node11</title>
<g id="a_Node000011"><a xlink:title=" ">
<polygon fill="#e0e0e0" stroke="#999999" points="1231.25,-74.5 1175.5,-74.5 1175.5,-55.25 1231.25,-55.25 1231.25,-74.5"/>
<text text-anchor="middle" x="1203.38" y="-61" font-family="Helvetica,sans-Serif" font-size="10.00">concepts</text>
</a>
</g>
</g>
<!-- Node9&#45;&gt;Node11 -->
<g id="edge21_Node000009_Node000011" class="edge">
<title>Node9&#45;&gt;Node11</title>
<g id="a_edge21_Node000009_Node000011"><a xlink:title=" ">
<path fill="none" stroke="#63b8ff" d="M615.67,-182.2C635.86,-172.57 668.32,-156.59 695.38,-141 716.95,-128.57 718.87,-118.71 742.38,-110.5 819.89,-83.42 1067.13,-71.15 1163.95,-67.29"/>
<polygon fill="#63b8ff" stroke="#63b8ff" points="1163.89,-70.79 1173.75,-66.91 1163.62,-63.8 1163.89,-70.79"/>
</a>
</g>
</g>
<!-- Node9&#45;&gt;Node12 -->
<g id="edge23_Node000009_Node000012" class="edge">
<title>Node9&#45;&gt;Node12</title>
<g id="a_edge23_Node000009_Node000012"><a xlink:title=" ">
<path fill="none" stroke="#63b8ff" d="M602.05,-182.31C608.07,-172.5 617.5,-156.14 623.38,-141 630.38,-122.97 635.5,-101.5 638.66,-86.14"/>
<polygon fill="#63b8ff" stroke="#63b8ff" points="642.08,-86.85 640.55,-76.37 635.21,-85.52 642.08,-86.85"/>
</a>
</g>
</g>
<!-- Node9&#45;&gt;Node13 -->
<g id="edge28_Node000009_Node000013" class="edge">
<title>Node9&#45;&gt;Node13</title>
<g id="a_edge28_Node000009_Node000013"><a xlink:title=" ">
<path fill="none" stroke="#63b8ff" d="M574.19,-182.16C551.83,-172.73 516.55,-157.14 487.38,-141 453.72,-122.38 416.82,-97.4 394.13,-81.47"/>
<polygon fill="#63b8ff" stroke="#63b8ff" points="396.18,-78.63 386,-75.71 392.14,-84.35 396.18,-78.63"/>
</a>
</g>
</g>
<!-- Node9&#45;&gt;Node14 -->
<g id="edge19_Node000009_Node000014" class="edge">
<title>Node9&#45;&gt;Node14</title>
<g id="a_edge19_Node000009_Node000014"><a xlink:title=" ">
<path fill="none" stroke="#63b8ff" d="M566.14,-182.13C533.55,-172.24 480.17,-155.87 434.38,-141 432.61,-140.43 430.81,-139.84 428.99,-139.24"/>
<polygon fill="#63b8ff" stroke="#63b8ff" points="430.58,-136.08 419.99,-136.23 428.36,-142.72 430.58,-136.08"/>
</a>
</g>
</g>
<!-- Node9&#45;&gt;Node15 -->
<g id="edge20_Node000009_Node000015" class="edge">
<title>Node9&#45;&gt;Node15</title>
<g id="a_edge20_Node000009_Node000015"><a xlink:title=" ">
<path fill="none" stroke="#63b8ff" d="M539.88,-182.19C529.09,-180.46 517.88,-178.67 507.38,-177 406.06,-160.89 376.96,-172.66 279.38,-141 278.73,-140.79 278.07,-140.57 277.42,-140.33"/>
<polygon fill="#63b8ff" stroke="#63b8ff" points="278.95,-137.18 268.38,-136.39 276.15,-143.59 278.95,-137.18"/>
</a>
</g>
</g>
<!-- Node9&#45;&gt;Node16 -->
<g id="edge22_Node000009_Node000016" class="edge">
<title>Node9&#45;&gt;Node16</title>
<g id="a_edge22_Node000009_Node000016"><a xlink:title=" ">
<path fill="none" stroke="#63b8ff" d="M540.75,-182.15C491.52,-173.51 417.98,-159.15 355.38,-141 353.77,-140.53 352.13,-140.03 350.49,-139.5"/>
<polygon fill="#63b8ff" stroke="#63b8ff" points="351.71,-136.23 341.12,-136.26 349.42,-142.84 351.71,-136.23"/>
</a>
</g>
</g>
<!-- Node17 -->
<g id="Node000017" class="node">
<title>Node17</title>
<g id="a_Node000017"><a xlink:title=" ">
<polygon fill="#e0e0e0" stroke="#999999" points="830,-135.38 784.75,-135.38 784.75,-116.12 830,-116.12 830,-135.38"/>
<text text-anchor="middle" x="807.38" y="-121.88" font-family="Helvetica,sans-Serif" font-size="10.00">ranges</text>
</a>
</g>
</g>
<!-- Node9&#45;&gt;Node17 -->
<g id="edge24_Node000009_Node000017" class="edge">
<title>Node9&#45;&gt;Node17</title>
<g id="a_edge24_Node000009_Node000017"><a xlink:title=" ">
<path fill="none" stroke="#63b8ff" d="M630.98,-182.2C666.29,-172.75 722.54,-157.08 770.38,-141 771.7,-140.56 773.04,-140.09 774.39,-139.62"/>
<polygon fill="#63b8ff" stroke="#63b8ff" points="775.18,-143.05 783.37,-136.33 772.77,-136.48 775.18,-143.05"/>
</a>
</g>
</g>
<!-- Node9&#45;&gt;Node18 -->
<g id="edge26_Node000009_Node000018" class="edge">
<title>Node9&#45;&gt;Node18</title>
<g id="a_edge26_Node000009_Node000018"><a xlink:title=" ">
<path fill="none" stroke="#63b8ff" d="M666.14,-182.16C715.5,-174.45 782.71,-161.35 839.38,-141 839.86,-140.83 840.35,-140.64 840.84,-140.45"/>
<polygon fill="#63b8ff" stroke="#63b8ff" points="841.99,-143.78 849.63,-136.44 839.08,-137.41 841.99,-143.78"/>
</a>
</g>
</g>
<!-- Node19 -->
<g id="Node000019" class="node">
<title>Node19</title>
<g id="a_Node000019"><a xlink:title=" ">
<polygon fill="#e0e0e0" stroke="#999999" points="1615.62,-74.5 1577.12,-74.5 1577.12,-55.25 1615.62,-55.25 1615.62,-74.5"/>
<text text-anchor="middle" x="1596.38" y="-61" font-family="Helvetica,sans-Serif" font-size="10.00">utility</text>
</a>
</g>
</g>
<!-- Node9&#45;&gt;Node19 -->
<g id="edge27_Node000009_Node000019" class="edge">
<title>Node9&#45;&gt;Node19</title>
<g id="a_edge27_Node000009_Node000019"><a xlink:title=" ">
<path fill="none" stroke="#63b8ff" d="M628.73,-182.16C657.19,-173.53 699.28,-159.18 733.38,-141 753.73,-130.15 753.64,-118.22 775.38,-110.5 850.86,-83.7 1425.13,-69.59 1565.49,-66.52"/>
<polygon fill="#63b8ff" stroke="#63b8ff" points="1565.2,-70.03 1575.12,-66.31 1565.05,-63.03 1565.2,-70.03"/>
</a>
</g>
</g>
<!-- Node10&#45;&gt;Node3 -->
<g id="edge14_Node000010_Node000003" class="edge">
<title>Node10&#45;&gt;Node3</title>
<g id="a_edge14_Node000010_Node000003"><a xlink:title=" ">
<path fill="none" stroke="#63b8ff" d="M545.09,-110.2C533.67,-101.58 519.19,-90.65 507.47,-81.8"/>
<polygon fill="#63b8ff" stroke="#63b8ff" points="509.7,-79.09 499.61,-75.86 505.48,-84.68 509.7,-79.09"/>
</a>
</g>
</g>
<!-- Node10&#45;&gt;Node5 -->
<g id="edge18_Node000010_Node000005" class="edge">
<title>Node10&#45;&gt;Node5</title>
<g id="a_edge18_Node000010_Node000005"><a xlink:title=" ">
<path fill="none" stroke="#63b8ff" d="M566.33,-110.25C567.67,-95.72 568.02,-73.01 560.38,-55.25 555.74,-44.48 547.32,-34.72 539.23,-27.09"/>
<polygon fill="#63b8ff" stroke="#63b8ff" points="541.74,-24.64 531.91,-20.7 537.14,-29.91 541.74,-24.64"/>
</a>
</g>
</g>
<!-- Node10&#45;&gt;Node11 -->
<g id="edge15_Node000010_Node000011" class="edge">
<title>Node10&#45;&gt;Node11</title>
<g id="a_edge15_Node000010_Node000011"><a xlink:title=" ">
<path fill="none" stroke="#63b8ff" d="M615.23,-119.42C641.79,-116.68 674.83,-113.33 704.38,-110.5 875.38,-94.15 1079.52,-76.47 1163.9,-69.24"/>
<polygon fill="#63b8ff" stroke="#63b8ff" points="1164.05,-72.74 1173.72,-68.4 1163.46,-65.76 1164.05,-72.74"/>
</a>
</g>
</g>
<!-- Node10&#45;&gt;Node12 -->
<g id="edge16_Node000010_Node000012" class="edge">
<title>Node10&#45;&gt;Node12</title>
<g id="a_edge16_Node000010_Node000012"><a xlink:title=" ">
<path fill="none" stroke="#63b8ff" d="M583.66,-110.2C595.08,-101.58 609.56,-90.65 621.28,-81.8"/>
<polygon fill="#63b8ff" stroke="#63b8ff" points="623.27,-84.68 629.14,-75.86 619.05,-79.09 623.27,-84.68"/>
</a>
</g>
</g>
<!-- Node10&#45;&gt;Node13 -->
<g id="edge17_Node000010_Node000013" class="edge">
<title>Node10&#45;&gt;Node13</title>
<g id="a_edge17_Node000010_Node000013"><a xlink:title=" ">
<path fill="none" stroke="#63b8ff" d="M516.42,-110.05C484.61,-100.29 443.31,-87.63 413.1,-78.36"/>
<polygon fill="#63b8ff" stroke="#63b8ff" points="414.14,-75.02 403.55,-75.43 412.08,-81.71 414.14,-75.02"/>
</a>
</g>
</g>
<!-- Node22&#45;&gt;Node2 -->
<g id="edge36_Node000022_Node000002" class="edge">
<title>Node22&#45;&gt;Node2</title>
<g id="a_edge36_Node000022_Node000002"><a xlink:title=" ">
<path fill="none" stroke="#63b8ff" d="M1347.7,-256.74C1280.16,-253.51 1176.73,-242.56 1094.38,-207.5 1058.91,-192.4 1024.71,-162.75 1005.15,-143.89"/>
<polygon fill="#63b8ff" stroke="#63b8ff" points="1007.66,-141.45 998.09,-136.9 1002.73,-146.42 1007.66,-141.45"/>
</a>
</g>
</g>
<!-- Node22&#45;&gt;Node3 -->
<g id="edge37_Node000022_Node000003" class="edge">
<title>Node22&#45;&gt;Node3</title>
<g id="a_edge37_Node000022_Node000003"><a xlink:title=" ">
<path fill="none" stroke="#63b8ff" d="M1409.9,-243.02C1404.35,-233.12 1397.08,-219.7 1391.38,-207.5 1371.68,-165.41 1390.23,-137.44 1352.38,-110.5 1285.12,-62.64 692.77,-79.36 610.38,-74.5 595.12,-73.6 578.82,-72.54 563.21,-71.47"/>
<polygon fill="#63b8ff" stroke="#63b8ff" points="563.73,-68 553.51,-70.8 563.24,-74.98 563.73,-68"/>
</a>
</g>
</g>
<!-- Node22&#45;&gt;Node19 -->
<g id="edge60_Node000022_Node000019" class="edge">
<title>Node22&#45;&gt;Node19</title>
<g id="a_edge60_Node000022_Node000019"><a xlink:title=" ">
<path fill="none" stroke="#63b8ff" d="M1488.9,-253.5C1543.94,-248.06 1621.21,-235.68 1683.38,-207.5 1727.06,-187.69 1747.36,-184.12 1768.38,-141 1795.96,-84.39 1683.88,-70.44 1627.28,-67"/>
<polygon fill="#63b8ff" stroke="#63b8ff" points="1627.8,-63.52 1617.63,-66.49 1627.43,-70.51 1627.8,-63.52"/>
</a>
</g>
</g>
<!-- Node22&#45;&gt;Node21 -->
<g id="edge61_Node000022_Node000021" class="edge">
<title>Node22&#45;&gt;Node21</title>
<g id="a_edge61_Node000022_Node000021"><a xlink:title=" ">
<path fill="none" stroke="#63b8ff" d="M1431.11,-243.28C1444.97,-225.72 1463.07,-196.11 1446.38,-177 1435.34,-164.37 1200.27,-139.31 1110.66,-130.18"/>
<polygon fill="#63b8ff" stroke="#63b8ff" points="1111.07,-126.71 1100.76,-129.18 1110.36,-133.67 1111.07,-126.71"/>
</a>
</g>
</g>
<!-- Node22&#45;&gt;Node23 -->
<g id="edge38_Node000022_Node000023" class="edge">
<title>Node22&#45;&gt;Node23</title>
<g id="a_edge38_Node000022_Node000023"><a xlink:title=" ">
<path fill="none" stroke="#63b8ff" d="M1360.65,-243.03C1322.92,-233.42 1273.47,-220.81 1233.77,-210.69"/>
<polygon fill="#63b8ff" stroke="#63b8ff" points="1234.87,-207.36 1224.32,-208.28 1233.15,-214.14 1234.87,-207.36"/>
</a>
</g>
</g>
<!-- Node26 -->
<g id="Node000026" class="node">
<title>Node26</title>
<g id="a_Node000026"><a xlink:title=" ">
<polygon fill="#e0e0e0" stroke="#999999" points="1759.25,-135.38 1709.5,-135.38 1709.5,-116.12 1759.25,-116.12 1759.25,-135.38"/>
<text text-anchor="middle" x="1734.38" y="-121.88" font-family="Helvetica,sans-Serif" font-size="10.00">optional</text>
</a>
</g>
</g>
<!-- Node22&#45;&gt;Node26 -->
<g id="edge58_Node000022_Node000026" class="edge">
<title>Node22&#45;&gt;Node26</title>
<g id="a_edge58_Node000022_Node000026"><a xlink:title=" ">
<path fill="none" stroke="#63b8ff" d="M1488.89,-252.21C1536.21,-246.18 1598.73,-233.63 1648.38,-207.5 1678.02,-191.89 1704.9,-163.26 1720.44,-144.62"/>
<polygon fill="#63b8ff" stroke="#63b8ff" points="1723.15,-146.82 1726.72,-136.85 1717.71,-142.42 1723.15,-146.82"/>
</a>
</g>
</g>
<!-- Node28 -->
<g id="Node000028" class="node">
<title>Node28</title>
<g id="a_Node000028"><a xlink:href="../../df/d2e/_type_list_8hpp.html" target="_top" xlink:title=" ">
<polygon fill="white" stroke="#666666" points="1639.62,-201.88 1493.12,-201.88 1493.12,-182.62 1639.62,-182.62 1639.62,-201.88"/>
<text text-anchor="middle" x="1566.38" y="-188.38" font-family="Helvetica,sans-Serif" font-size="10.00">mimic++/utilities/TypeList.hpp</text>
</a>
</g>
</g>
<!-- Node22&#45;&gt;Node28 -->
<g id="edge52_Node000022_Node000028" class="edge">
<title>Node22&#45;&gt;Node28</title>
<g id="a_edge52_Node000022_Node000028"><a xlink:title=" ">
<path fill="none" stroke="#63b8ff" d="M1451.96,-243.11C1476.96,-232.22 1510.83,-217.46 1535.23,-206.83"/>
<polygon fill="#63b8ff" stroke="#63b8ff" points="1536.54,-210.07 1544.31,-202.86 1533.75,-203.65 1536.54,-210.07"/>
</a>
</g>
</g>
<!-- Node30 -->
<g id="Node000030" class="node">
<title>Node30</title>
<g id="a_Node000030"><a xlink:title=" ">
<polygon fill="#e0e0e0" stroke="#999999" points="1436.88,-201.88 1399.88,-201.88 1399.88,-182.62 1436.88,-182.62 1436.88,-201.88"/>
<text text-anchor="middle" x="1418.38" y="-188.38" font-family="Helvetica,sans-Serif" font-size="10.00">span</text>
</a>
</g>
</g>
<!-- Node22&#45;&gt;Node30 -->
<g id="edge59_Node000022_Node000030" class="edge">
<title>Node22&#45;&gt;Node30</title>
<g id="a_edge59_Node000022_Node000030"><a xlink:title=" ">
<path fill="none" stroke="#63b8ff" d="M1418.38,-243.11C1418.38,-234.33 1418.38,-223.02 1418.38,-213.4"/>
<polygon fill="#63b8ff" stroke="#63b8ff" points="1421.88,-213.59 1418.38,-203.59 1414.88,-213.59 1421.88,-213.59"/>
</a>
</g>
</g>
<!-- Node23&#45;&gt;Node2 -->
<g id="edge39_Node000023_Node000002" class="edge">
<title>Node23&#45;&gt;Node2</title>
<g id="a_edge39_Node000023_Node000002"><a xlink:title=" ">
<path fill="none" stroke="#63b8ff" d="M1125.21,-176.61C1094.73,-165.51 1053.22,-150.38 1023.93,-139.71"/>
<polygon fill="#63b8ff" stroke="#63b8ff" points="1025.37,-136.51 1014.78,-136.37 1022.98,-143.08 1025.37,-136.51"/>
</a>
</g>
</g>
<!-- Node23&#45;&gt;Node3 -->
<g id="edge40_Node000023_Node000003" class="edge">
<title>Node23&#45;&gt;Node3</title>
<g id="a_edge40_Node000023_Node000003"><a xlink:title=" ">
<path fill="none" stroke="#63b8ff" d="M1165.68,-176.6C1165.19,-157.99 1161.25,-126.4 1141.38,-110.5 1095.2,-73.56 669.37,-78.55 610.38,-74.5 595.13,-73.45 578.83,-72.33 563.23,-71.24"/>
<polygon fill="#63b8ff" stroke="#63b8ff" points="563.74,-67.77 553.52,-70.57 563.26,-74.75 563.74,-67.77"/>
</a>
</g>
</g>
<!-- Node23&#45;&gt;Node11 -->
<g id="edge44_Node000023_Node000011" class="edge">
<title>Node23&#45;&gt;Node11</title>
<g id="a_edge44_Node000023_Node000011"><a xlink:title=" ">
<path fill="none" stroke="#63b8ff" d="M1169.73,-176.87C1176.54,-154.43 1189.69,-111.03 1197.38,-85.66"/>
<polygon fill="#63b8ff" stroke="#63b8ff" points="1200.67,-86.85 1200.23,-76.27 1193.97,-84.82 1200.67,-86.85"/>
</a>
</g>
</g>
<!-- Node23&#45;&gt;Node13 -->
<g id="edge49_Node000023_Node000013" class="edge">
<title>Node23&#45;&gt;Node13</title>
<g id="a_edge49_Node000023_Node000013"><a xlink:title=" ">
<path fill="none" stroke="#63b8ff" d="M1159.9,-176.79C1151.85,-157.78 1134.82,-125.08 1108.38,-110.5 1043.08,-74.5 529.4,-83.9 414.73,-74.26"/>
<polygon fill="#63b8ff" stroke="#63b8ff" points="415.11,-70.78 404.8,-73.21 414.38,-77.74 415.11,-70.78"/>
</a>
</g>
</g>
<!-- Node23&#45;&gt;Node16 -->
<g id="edge45_Node000023_Node000016" class="edge">
<title>Node23&#45;&gt;Node16</title>
<g id="a_edge45_Node000023_Node000016"><a xlink:title=" ">
<path fill="none" stroke="#63b8ff" d="M1103.09,-189.77C939.03,-185.49 497.9,-171.43 355.38,-141 353.2,-140.54 350.99,-139.97 348.78,-139.34"/>
<polygon fill="#63b8ff" stroke="#63b8ff" points="349.98,-136.05 339.38,-136.21 347.77,-142.69 349.98,-136.05"/>
</a>
</g>
</g>
<!-- Node23&#45;&gt;Node17 -->
<g id="edge48_Node000023_Node000017" class="edge">
<title>Node23&#45;&gt;Node17</title>
<g id="a_edge48_Node000023_Node000017"><a xlink:title=" ">
<path fill="none" stroke="#63b8ff" d="M1103.02,-186.6C1036.6,-180.5 928.93,-167.33 839.38,-141 838.21,-140.66 837.03,-140.28 835.84,-139.88"/>
<polygon fill="#63b8ff" stroke="#63b8ff" points="837.33,-136.7 826.74,-136.3 834.77,-143.22 837.33,-136.7"/>
</a>
</g>
</g>
<!-- Node23&#45;&gt;Node21 -->
<g id="edge50_Node000023_Node000021" class="edge">
<title>Node23&#45;&gt;Node21</title>
<g id="a_edge50_Node000023_Node000021"><a xlink:title=" ">
<path fill="none" stroke="#63b8ff" d="M1145.18,-176.61C1131.09,-166.41 1112.32,-152.8 1097.95,-142.38"/>
<polygon fill="#63b8ff" stroke="#63b8ff" points="1100.18,-139.68 1090.03,-136.65 1096.08,-145.35 1100.18,-139.68"/>
</a>
</g>
</g>
<!-- Node24 -->
<g id="Node000024" class="node">
<title>Node24</title>
<g id="a_Node000024"><a xlink:href="../../d9/db9/_concepts_8hpp.html" target="_top" xlink:title=" ">
<polygon fill="white" stroke="#666666" points="1587.5,-135.38 1437.25,-135.38 1437.25,-116.12 1587.5,-116.12 1587.5,-135.38"/>
<text text-anchor="middle" x="1512.38" y="-121.88" font-family="Helvetica,sans-Serif" font-size="10.00">mimic++/utilities/Concepts.hpp</text>
</a>
</g>
</g>
<!-- Node23&#45;&gt;Node24 -->
<g id="edge41_Node000023_Node000024" class="edge">
<title>Node23&#45;&gt;Node24</title>
<g id="a_edge41_Node000023_Node000024"><a xlink:title=" ">
<path fill="none" stroke="#63b8ff" d="M1227.81,-179.64C1291.37,-167.83 1389.23,-149.64 1452.02,-137.97"/>
<polygon fill="#63b8ff" stroke="#63b8ff" points="1452.64,-141.41 1461.84,-136.14 1451.36,-134.53 1452.64,-141.41"/>
</a>
</g>
</g>
<!-- Node25 -->
<g id="Node000025" class="node">
<title>Node25</title>
<g id="a_Node000025"><a xlink:title=" ">
<polygon fill="#e0e0e0" stroke="#999999" points="1281.62,-135.38 1231.12,-135.38 1231.12,-116.12 1281.62,-116.12 1281.62,-135.38"/>
<text text-anchor="middle" x="1256.38" y="-121.88" font-family="Helvetica,sans-Serif" font-size="10.00">memory</text>
</a>
</g>
</g>
<!-- Node23&#45;&gt;Node25 -->
<g id="edge46_Node000023_Node000025" class="edge">
<title>Node23&#45;&gt;Node25</title>
<g id="a_edge46_Node000023_Node000025"><a xlink:title=" ">
<path fill="none" stroke="#63b8ff" d="M1186.02,-176.61C1200.43,-166.41 1219.62,-152.8 1234.32,-142.38"/>
<polygon fill="#63b8ff" stroke="#63b8ff" points="1236.29,-145.27 1242.43,-136.64 1232.25,-139.56 1236.29,-145.27"/>
</a>
</g>
</g>
<!-- Node23&#45;&gt;Node26 -->
<g id="edge47_Node000023_Node000026" class="edge">
<title>Node23&#45;&gt;Node26</title>
<g id="a_edge47_Node000023_Node000026"><a xlink:title=" ">
<path fill="none" stroke="#63b8ff" d="M1227.6,-186.86C1321.94,-179.78 1506.69,-164.22 1662.38,-141 1674.1,-139.25 1686.8,-136.89 1698.23,-134.6"/>
<polygon fill="#63b8ff" stroke="#63b8ff" points="1698.58,-138.1 1707.67,-132.65 1697.17,-131.24 1698.58,-138.1"/>
</a>
</g>
</g>
<!-- Node27 -->
<g id="Node000027" class="node">
<title>Node27</title>
<g id="a_Node000027"><a xlink:title=" ">
<polygon fill="#e0e0e0" stroke="#999999" points="1342.88,-135.38 1299.88,-135.38 1299.88,-116.12 1342.88,-116.12 1342.88,-135.38"/>
<text text-anchor="middle" x="1321.38" y="-121.88" font-family="Helvetica,sans-Serif" font-size="10.00">vector</text>
</a>
</g>
</g>
<!-- Node23&#45;&gt;Node27 -->
<g id="edge51_Node000023_Node000027" class="edge">
<title>Node23&#45;&gt;Node27</title>
<g id="a_edge51_Node000023_Node000027"><a xlink:title=" ">
<path fill="none" stroke="#63b8ff" d="M1203.32,-176.55C1228.2,-166.78 1261.37,-153.49 1290.38,-141 1290.85,-140.8 1291.33,-140.59 1291.81,-140.38"/>
<polygon fill="#63b8ff" stroke="#63b8ff" points="1293,-143.68 1300.71,-136.41 1290.15,-137.29 1293,-143.68"/>
</a>
</g>
</g>
<!-- Node24&#45;&gt;Node11 -->
<g id="edge42_Node000024_Node000011" class="edge">
<title>Node24&#45;&gt;Node11</title>
<g id="a_edge42_Node000024_Node000011"><a xlink:title=" ">
<path fill="none" stroke="#63b8ff" d="M1464.77,-115.68C1403.79,-104.06 1299.25,-84.14 1242.61,-73.35"/>
<polygon fill="#63b8ff" stroke="#63b8ff" points="1243.58,-69.97 1233.1,-71.54 1242.27,-76.85 1243.58,-69.97"/>
</a>
</g>
</g>
<!-- Node24&#45;&gt;Node19 -->
<g id="edge43_Node000024_Node000019" class="edge">
<title>Node24&#45;&gt;Node19</title>
<g id="a_edge43_Node000024_Node000019"><a xlink:title=" ">
<path fill="none" stroke="#63b8ff" d="M1525.13,-115.81C1538.21,-106.64 1558.79,-92.22 1574.47,-81.23"/>
<polygon fill="#63b8ff" stroke="#63b8ff" points="1576.08,-84.38 1582.26,-75.77 1572.06,-78.64 1576.08,-84.38"/>
</a>
</g>
</g>
<!-- Node28&#45;&gt;Node11 -->
<g id="edge54_Node000028_Node000011" class="edge">
<title>Node28&#45;&gt;Node11</title>
<g id="a_edge54_Node000028_Node000011"><a xlink:title=" ">
<path fill="none" stroke="#63b8ff" d="M1534.11,-182.19C1505.47,-173.53 1462.92,-159.12 1428.38,-141 1407.63,-130.12 1406.69,-120.24 1385.38,-110.5 1338.72,-89.18 1280.48,-77.19 1242.64,-71.13"/>
<polygon fill="#63b8ff" stroke="#63b8ff" points="1243.5,-67.72 1233.08,-69.66 1242.44,-74.64 1243.5,-67.72"/>
</a>
</g>
</g>
<!-- Node28&#45;&gt;Node18 -->
<g id="edge56_Node000028_Node000018" class="edge">
<title>Node28&#45;&gt;Node18</title>
<g id="a_edge56_Node000028_Node000018"><a xlink:title=" ">
<path fill="none" stroke="#63b8ff" d="M1494.41,-182.13C1478.6,-180.29 1461.94,-178.47 1446.38,-177 1218.38,-155.49 1159.1,-173.25 932.38,-141 920.49,-139.31 907.55,-136.69 896.3,-134.16"/>
<polygon fill="#63b8ff" stroke="#63b8ff" points="897.32,-130.8 886.78,-131.93 895.72,-137.62 897.32,-130.8"/>
</a>
</g>
</g>
<!-- Node28&#45;&gt;Node19 -->
<g id="edge57_Node000028_Node000019" class="edge">
<title>Node28&#45;&gt;Node19</title>
<g id="a_edge57_Node000028_Node000019"><a xlink:title=" ">
<path fill="none" stroke="#63b8ff" d="M1603.08,-182.25C1624.4,-174.94 1649.52,-162.24 1662.38,-141 1669.39,-129.4 1668.73,-122.47 1662.38,-110.5 1654.62,-95.9 1639.72,-85.2 1626.04,-77.95"/>
<polygon fill="#63b8ff" stroke="#63b8ff" points="1627.83,-74.93 1617.31,-73.73 1624.78,-81.23 1627.83,-74.93"/>
</a>
</g>
</g>
<!-- Node28&#45;&gt;Node24 -->
<g id="edge53_Node000028_Node000024" class="edge">
<title>Node28&#45;&gt;Node24</title>
<g id="a_edge53_Node000028_Node000024"><a xlink:title=" ">
<path fill="none" stroke="#63b8ff" d="M1558.87,-182.28C1550.65,-172.46 1537.26,-156.48 1526.96,-144.17"/>
<polygon fill="#63b8ff" stroke="#63b8ff" points="1529.89,-142.22 1520.79,-136.8 1524.53,-146.72 1529.89,-142.22"/>
</a>
</g>
</g>
<!-- Node29 -->
<g id="Node000029" class="node">
<title>Node29</title>
<g id="a_Node000029"><a xlink:title=" ">
<polygon fill="#e0e0e0" stroke="#999999" points="1653.5,-135.38 1605.25,-135.38 1605.25,-116.12 1653.5,-116.12 1653.5,-135.38"/>
<text text-anchor="middle" x="1629.38" y="-121.88" font-family="Helvetica,sans-Serif" font-size="10.00">cstddef</text>
</a>
</g>
</g>
<!-- Node28&#45;&gt;Node29 -->
<g id="edge55_Node000028_Node000029" class="edge">
<title>Node28&#45;&gt;Node29</title>
<g id="a_edge55_Node000028_Node000029"><a xlink:title=" ">
<path fill="none" stroke="#63b8ff" d="M1575.13,-182.28C1584.82,-172.37 1600.65,-156.16 1612.71,-143.81"/>
<polygon fill="#63b8ff" stroke="#63b8ff" points="1615.15,-146.32 1619.63,-136.73 1610.14,-141.43 1615.15,-146.32"/>
</a>
</g>
</g>
<!-- Node31&#45;&gt;Node3 -->
<g id="edge64_Node000031_Node000003" class="edge">
<title>Node31&#45;&gt;Node3</title>
<g id="a_edge64_Node000031_Node000003"><a xlink:title=" ">
<path fill="none" stroke="#63b8ff" d="M101.21,-117.59C117.55,-115.3 135.72,-112.78 152.38,-110.5 240.45,-98.46 341.65,-84.99 409.36,-76.03"/>
<polygon fill="#63b8ff" stroke="#63b8ff" points="409.81,-79.5 419.27,-74.72 408.89,-72.56 409.81,-79.5"/>
</a>
</g>
</g>
<!-- Node31&#45;&gt;Node5 -->
<g id="edge66_Node000031_Node000005" class="edge">
<title>Node31&#45;&gt;Node5</title>
<g id="a_edge66_Node000031_Node000005"><a xlink:title=" ">
<path fill="none" stroke="#63b8ff" d="M101.21,-112.11C157.82,-98.07 252.09,-74.79 333.38,-55.25 397.85,-39.75 416.75,-36.64 483.2,-20"/>
<polygon fill="#63b8ff" stroke="#63b8ff" points="483.97,-23.41 492.82,-17.58 482.26,-16.62 483.97,-23.41"/>
</a>
</g>
</g>
<!-- Node31&#45;&gt;Node13 -->
<g id="edge65_Node000031_Node000013" class="edge">
<title>Node31&#45;&gt;Node13</title>
<g id="a_edge65_Node000031_Node000013"><a xlink:title=" ">
<path fill="none" stroke="#63b8ff" d="M100.98,-113.25C105.51,-112.29 110.02,-111.36 114.38,-110.5 190.29,-95.49 279.33,-80.71 330.47,-72.49"/>
<polygon fill="#63b8ff" stroke="#63b8ff" points="330.89,-75.97 340.21,-70.93 329.78,-69.06 330.89,-75.97"/>
</a>
</g>
</g>
</g>
</svg>
