<?xml version="1.0" encoding="UTF-8" standalone="no"?>
<!DOCTYPE svg PUBLIC "-//W3C//DTD SVG 1.1//EN"
 "http://www.w3.org/Graphics/SVG/1.1/DTD/svg11.dtd">
<!-- Generated by graphviz version 12.2.1 (20241206.2353)
 -->
<!-- Title: mimic++/policies/SideEffectPolicies.hpp Pages: 1 -->
<svg width="1564pt" height="492pt"
 viewBox="0.00 0.00 1564.00 491.75" xmlns="http://www.w3.org/2000/svg" xmlns:xlink="http://www.w3.org/1999/xlink">
<g id="graph0" class="graph" transform="scale(1 1) rotate(0) translate(4 487.75)">
<title>mimic++/policies/SideEffectPolicies.hpp</title>
<!-- Node1 -->
<g id="Node000001" class="node">
<title>Node1</title>
<g id="a_Node000001"><a xlink:title=" ">
<polygon fill="#999999" stroke="#666666" points="385.75,-483.75 248.25,-483.75 248.25,-453.25 385.75,-453.25 385.75,-483.75"/>
<text text-anchor="start" x="256.25" y="-470.25" font-family="Helvetica,sans-Serif" font-size="10.00">mimic++/policies/SideEffect</text>
<text text-anchor="middle" x="317" y="-459" font-family="Helvetica,sans-Serif" font-size="10.00">Policies.hpp</text>
</a>
</g>
</g>
<!-- Node2 -->
<g id="Node000002" class="node">
<title>Node2</title>
<g id="a_Node000002"><a xlink:href="../../df/dde/_fwd_8hpp.html" target="_top" xlink:title=" ">
<polygon fill="white" stroke="#666666" points="643,-74.5 549,-74.5 549,-55.25 643,-55.25 643,-74.5"/>
<text text-anchor="middle" x="596" y="-61" font-family="Helvetica,sans-Serif" font-size="10.00">mimic++/Fwd.hpp</text>
</a>
</g>
</g>
<!-- Node1&#45;&gt;Node2 -->
<g id="edge1_Node000001_Node000002" class="edge">
<title>Node1&#45;&gt;Node2</title>
<g id="a_edge1_Node000001_Node000002"><a xlink:title=" ">
<path fill="none" stroke="#63b8ff" d="M247.79,-462.75C198.65,-457.08 132.38,-444.62 80,-417.25 36.77,-394.66 0,-390.9 0,-342.12 0,-342.12 0,-342.12 0,-284.88 0,-189.78 41.64,-158.04 124,-110.5 192.94,-70.71 427.11,-65.57 537.51,-65.44"/>
<polygon fill="#63b8ff" stroke="#63b8ff" points="537.24,-68.94 547.24,-65.44 537.24,-61.94 537.24,-68.94"/>
</a>
</g>
</g>
<!-- Node6 -->
<g id="Node000006" class="node">
<title>Node6</title>
<g id="a_Node000006"><a xlink:href="../../d2/dfd/_argument_list_8hpp.html" target="_top" xlink:title=" ">
<polygon fill="white" stroke="#666666" points="587.62,-417.25 452.38,-417.25 452.38,-386.75 587.62,-386.75 587.62,-417.25"/>
<text text-anchor="start" x="460.38" y="-403.75" font-family="Helvetica,sans-Serif" font-size="10.00">mimic++/policies/Argument</text>
<text text-anchor="middle" x="520" y="-392.5" font-family="Helvetica,sans-Serif" font-size="10.00">List.hpp</text>
</a>
</g>
</g>
<!-- Node1&#45;&gt;Node6 -->
<g id="edge5_Node000001_Node000006" class="edge">
<title>Node1&#45;&gt;Node6</title>
<g id="a_edge5_Node000001_Node000006"><a xlink:title=" ">
<path fill="none" stroke="#63b8ff" d="M363.32,-452.78C392.94,-443.37 431.57,-431.1 463.07,-421.09"/>
<polygon fill="#63b8ff" stroke="#63b8ff" points="463.97,-424.48 472.44,-418.11 461.85,-417.8 463.97,-424.48"/>
</a>
</g>
</g>
<!-- Node17 -->
<g id="Node000017" class="node">
<title>Node17</title>
<g id="a_Node000017"><a xlink:title=" ">
<polygon fill="#e0e0e0" stroke="#999999" points="1404.25,-74.5 1365.75,-74.5 1365.75,-55.25 1404.25,-55.25 1404.25,-74.5"/>
<text text-anchor="middle" x="1385" y="-61" font-family="Helvetica,sans-Serif" font-size="10.00">utility</text>
</a>
</g>
</g>
<!-- Node1&#45;&gt;Node17 -->
<g id="edge69_Node000001_Node000017" class="edge">
<title>Node1&#45;&gt;Node17</title>
<g id="a_edge69_Node000001_Node000017"><a xlink:title=" ">
<path fill="none" stroke="#63b8ff" d="M385.82,-467.82C646.16,-468.12 1556,-460.7 1556,-342.12 1556,-342.12 1556,-342.12 1556,-174.38 1556,-108.76 1465.13,-81.15 1415.88,-71.01"/>
<polygon fill="#63b8ff" stroke="#63b8ff" points="1416.58,-67.58 1406.1,-69.13 1415.26,-74.45 1416.58,-67.58"/>
</a>
</g>
</g>
<!-- Node18 -->
<g id="Node000018" class="node">
<title>Node18</title>
<g id="a_Node000018"><a xlink:title=" ">
<polygon fill="#e0e0e0" stroke="#999999" points="544.88,-129.75 489.12,-129.75 489.12,-110.5 544.88,-110.5 544.88,-129.75"/>
<text text-anchor="middle" x="517" y="-116.25" font-family="Helvetica,sans-Serif" font-size="10.00">concepts</text>
</a>
</g>
</g>
<!-- Node1&#45;&gt;Node18 -->
<g id="edge66_Node000001_Node000018" class="edge">
<title>Node1&#45;&gt;Node18</title>
<g id="a_edge66_Node000001_Node000018"><a xlink:title=" ">
<path fill="none" stroke="#63b8ff" d="M325.34,-453.06C357.08,-398.09 470.33,-201.96 506.09,-140.01"/>
<polygon fill="#63b8ff" stroke="#63b8ff" points="509.11,-141.79 511.08,-131.38 503.04,-138.29 509.11,-141.79"/>
</a>
</g>
</g>
<!-- Node19 -->
<g id="Node000019" class="node">
<title>Node19</title>
<g id="a_Node000019"><a xlink:title=" ">
<polygon fill="#e0e0e0" stroke="#999999" points="1395,-129.75 1337,-129.75 1337,-110.5 1395,-110.5 1395,-129.75"/>
<text text-anchor="middle" x="1366" y="-116.25" font-family="Helvetica,sans-Serif" font-size="10.00">functional</text>
</a>
</g>
</g>
<!-- Node1&#45;&gt;Node19 -->
<g id="edge67_Node000001_Node000019" class="edge">
<title>Node1&#45;&gt;Node19</title>
<g id="a_edge67_Node000001_Node000019"><a xlink:title=" ">
<path fill="none" stroke="#63b8ff" d="M386.1,-467.09C630.87,-464.75 1442,-448.92 1442,-342.12 1442,-342.12 1442,-342.12 1442,-229.62 1442,-191.02 1409.32,-156.39 1386.82,-137.12"/>
<polygon fill="#63b8ff" stroke="#63b8ff" points="1389.33,-134.66 1379.38,-131.02 1384.89,-140.07 1389.33,-134.66"/>
</a>
</g>
</g>
<!-- Node21 -->
<g id="Node000021" class="node">
<title>Node21</title>
<g id="a_Node000021"><a xlink:title=" ">
<polygon fill="#e0e0e0" stroke="#999999" points="212.5,-129.75 151.5,-129.75 151.5,-110.5 212.5,-110.5 212.5,-129.75"/>
<text text-anchor="middle" x="182" y="-116.25" font-family="Helvetica,sans-Serif" font-size="10.00">type_traits</text>
</a>
</g>
</g>
<!-- Node1&#45;&gt;Node21 -->
<g id="edge68_Node000001_Node000021" class="edge">
<title>Node1&#45;&gt;Node21</title>
<g id="a_edge68_Node000001_Node000021"><a xlink:title=" ">
<path fill="none" stroke="#63b8ff" d="M247.99,-460.78C191.6,-453.7 118.32,-440.29 100,-417.25 30.9,-330.32 128.39,-188.97 167.24,-139.18"/>
<polygon fill="#63b8ff" stroke="#63b8ff" points="169.93,-141.42 173.42,-131.42 164.45,-137.06 169.93,-141.42"/>
</a>
</g>
</g>
<!-- Node3 -->
<g id="Node000003" class="node">
<title>Node3</title>
<g id="a_Node000003"><a xlink:title=" ">
<polygon fill="#e0e0e0" stroke="#999999" points="1152,-19.25 1112,-19.25 1112,0 1152,0 1152,-19.25"/>
<text text-anchor="middle" x="1132" y="-5.75" font-family="Helvetica,sans-Serif" font-size="10.00">string</text>
</a>
</g>
</g>
<!-- Node2&#45;&gt;Node3 -->
<g id="edge2_Node000002_Node000003" class="edge">
<title>Node2&#45;&gt;Node3</title>
<g id="a_edge2_Node000002_Node000003"><a xlink:title=" ">
<path fill="none" stroke="#63b8ff" d="M643.1,-59.2C750.19,-48.56 1009.69,-22.78 1100.21,-13.78"/>
<polygon fill="#63b8ff" stroke="#63b8ff" points="1100.48,-17.27 1110.09,-12.8 1099.79,-10.31 1100.48,-17.27"/>
</a>
</g>
</g>
<!-- Node4 -->
<g id="Node000004" class="node">
<title>Node4</title>
<g id="a_Node000004"><a xlink:title=" ">
<polygon fill="#e0e0e0" stroke="#999999" points="829.75,-19.25 764.25,-19.25 764.25,0 829.75,0 829.75,-19.25"/>
<text text-anchor="middle" x="797" y="-5.75" font-family="Helvetica,sans-Serif" font-size="10.00">string_view</text>
</a>
</g>
</g>
<!-- Node2&#45;&gt;Node4 -->
<g id="edge3_Node000002_Node000004" class="edge">
<title>Node2&#45;&gt;Node4</title>
<g id="a_edge3_Node000002_Node000004"><a xlink:title=" ">
<path fill="none" stroke="#63b8ff" d="M630.1,-54.84C664,-45.86 716.15,-32.04 753.12,-22.25"/>
<polygon fill="#63b8ff" stroke="#63b8ff" points="753.84,-25.68 762.61,-19.74 752.05,-18.91 753.84,-25.68"/>
</a>
</g>
</g>
<!-- Node5 -->
<g id="Node000005" class="node">
<title>Node5</title>
<g id="a_Node000005"><a xlink:title=" ">
<polygon fill="#e0e0e0" stroke="#999999" points="619.75,-19.25 572.25,-19.25 572.25,0 619.75,0 619.75,-19.25"/>
<text text-anchor="middle" x="596" y="-5.75" font-family="Helvetica,sans-Serif" font-size="10.00">version</text>
</a>
</g>
</g>
<!-- Node2&#45;&gt;Node5 -->
<g id="edge4_Node000002_Node000005" class="edge">
<title>Node2&#45;&gt;Node5</title>
<g id="a_edge4_Node000002_Node000005"><a xlink:title=" ">
<path fill="none" stroke="#63b8ff" d="M596,-55.08C596,-48.57 596,-39.42 596,-31.12"/>
<polygon fill="#63b8ff" stroke="#63b8ff" points="599.5,-31.12 596,-21.12 592.5,-31.12 599.5,-31.12"/>
</a>
</g>
</g>
<!-- Node7 -->
<g id="Node000007" class="node">
<title>Node7</title>
<g id="a_Node000007"><a xlink:href="../../dc/d44/_call_8hpp.html" target="_top" xlink:title=" ">
<polygon fill="white" stroke="#666666" points="639.88,-350.75 548.12,-350.75 548.12,-331.5 639.88,-331.5 639.88,-350.75"/>
<text text-anchor="middle" x="594" y="-337.25" font-family="Helvetica,sans-Serif" font-size="10.00">mimic++/Call.hpp</text>
</a>
</g>
</g>
<!-- Node6&#45;&gt;Node7 -->
<g id="edge6_Node000006_Node000007" class="edge">
<title>Node6&#45;&gt;Node7</title>
<g id="a_edge6_Node000006_Node000007"><a xlink:title=" ">
<path fill="none" stroke="#63b8ff" d="M538.29,-386.45C549.02,-377.91 562.59,-367.12 573.65,-358.31"/>
<polygon fill="#63b8ff" stroke="#63b8ff" points="575.76,-361.11 581.41,-352.14 571.4,-355.63 575.76,-361.11"/>
</a>
</g>
</g>
<!-- Node16 -->
<g id="Node000016" class="node">
<title>Node16</title>
<g id="a_Node000016"><a xlink:title=" ">
<polygon fill="#e0e0e0" stroke="#999999" points="161.5,-74.5 124.5,-74.5 124.5,-55.25 161.5,-55.25 161.5,-74.5"/>
<text text-anchor="middle" x="143" y="-61" font-family="Helvetica,sans-Serif" font-size="10.00">tuple</text>
</a>
</g>
</g>
<!-- Node6&#45;&gt;Node16 -->
<g id="edge63_Node000006_Node000016" class="edge">
<title>Node6&#45;&gt;Node16</title>
<g id="a_edge63_Node000006_Node000016"><a xlink:title=" ">
<path fill="none" stroke="#63b8ff" d="M452.17,-394.08C362.13,-380.99 205.41,-343.85 127,-240.25 91.94,-193.92 91.23,-165.14 111,-110.5 114.51,-100.79 120.78,-91.31 126.84,-83.61"/>
<polygon fill="#63b8ff" stroke="#63b8ff" points="129.43,-85.96 133.21,-76.06 124.08,-81.45 129.43,-85.96"/>
</a>
</g>
</g>
<!-- Node6&#45;&gt;Node17 -->
<g id="edge65_Node000006_Node000017" class="edge">
<title>Node6&#45;&gt;Node17</title>
<g id="a_edge65_Node000006_Node000017"><a xlink:title=" ">
<path fill="none" stroke="#63b8ff" d="M587.81,-400.38C812.44,-397.44 1518,-380.72 1518,-286.88 1518,-286.88 1518,-286.88 1518,-174.38 1518,-121.76 1454.73,-90.11 1415.47,-75.53"/>
<polygon fill="#63b8ff" stroke="#63b8ff" points="1416.65,-72.24 1406.05,-72.22 1414.32,-78.84 1416.65,-72.24"/>
</a>
</g>
</g>
<!-- Node6&#45;&gt;Node18 -->
<g id="edge61_Node000006_Node000018" class="edge">
<title>Node6&#45;&gt;Node18</title>
<g id="a_edge61_Node000006_Node000018"><a xlink:title=" ">
<path fill="none" stroke="#63b8ff" d="M520,-386.59C520,-364.94 520,-322.74 520,-286.88 520,-286.88 520,-286.88 520,-229.62 520,-198.89 518.78,-163.29 517.9,-141.49"/>
<polygon fill="#63b8ff" stroke="#63b8ff" points="521.4,-141.48 517.48,-131.64 514.41,-141.78 521.4,-141.48"/>
</a>
</g>
</g>
<!-- Node6&#45;&gt;Node19 -->
<g id="edge62_Node000006_Node000019" class="edge">
<title>Node6&#45;&gt;Node19</title>
<g id="a_edge62_Node000006_Node000019"><a xlink:title=" ">
<path fill="none" stroke="#63b8ff" d="M587.9,-399.36C794.9,-393.45 1404,-369.08 1404,-286.88 1404,-286.88 1404,-286.88 1404,-229.62 1404,-196.63 1388.16,-161.01 1376.93,-139.91"/>
<polygon fill="#63b8ff" stroke="#63b8ff" points="1380.1,-138.4 1372.18,-131.36 1373.98,-141.8 1380.1,-138.4"/>
</a>
</g>
</g>
<!-- Node6&#45;&gt;Node21 -->
<g id="edge64_Node000006_Node000021" class="edge">
<title>Node6&#45;&gt;Node21</title>
<g id="a_edge64_Node000006_Node000021"><a xlink:title=" ">
<path fill="none" stroke="#63b8ff" d="M491.25,-386.48C433.3,-356.03 301,-280.33 219,-185 207.37,-171.47 197.44,-153.77 190.81,-140.43"/>
<polygon fill="#63b8ff" stroke="#63b8ff" points="193.98,-138.94 186.52,-131.41 187.66,-141.95 193.98,-138.94"/>
</a>
</g>
</g>
<!-- Node7&#45;&gt;Node2 -->
<g id="edge7_Node000007_Node000002" class="edge">
<title>Node7&#45;&gt;Node2</title>
<g id="a_edge7_Node000007_Node000002"><a xlink:title=" ">
<path fill="none" stroke="#63b8ff" d="M547.91,-334.43C409.82,-315.65 16.53,-248.91 142,-110.5 168.09,-81.72 420.9,-70.84 537.55,-67.33"/>
<polygon fill="#63b8ff" stroke="#63b8ff" points="537.34,-70.84 547.23,-67.05 537.13,-63.84 537.34,-70.84"/>
</a>
</g>
</g>
<!-- Node8 -->
<g id="Node000008" class="node">
<title>Node8</title>
<g id="a_Node000008"><a xlink:href="../../de/df5/_stacktrace_8hpp.html" target="_top" xlink:title=" ">
<polygon fill="white" stroke="#666666" points="1056.25,-295.5 933.75,-295.5 933.75,-276.25 1056.25,-276.25 1056.25,-295.5"/>
<text text-anchor="middle" x="995" y="-282" font-family="Helvetica,sans-Serif" font-size="10.00">mimic++/Stacktrace.hpp</text>
</a>
</g>
</g>
<!-- Node7&#45;&gt;Node8 -->
<g id="edge8_Node000007_Node000008" class="edge">
<title>Node7&#45;&gt;Node8</title>
<g id="a_edge8_Node000007_Node000008"><a xlink:title=" ">
<path fill="none" stroke="#63b8ff" d="M640,-334.02C709.06,-324.85 840.18,-307.43 922.29,-296.53"/>
<polygon fill="#63b8ff" stroke="#63b8ff" points="922.58,-300.02 932.03,-295.24 921.66,-293.08 922.58,-300.02"/>
</a>
</g>
</g>
<!-- Node15 -->
<g id="Node000015" class="node">
<title>Node15</title>
<g id="a_Node000015"><a xlink:title=" ">
<polygon fill="#e0e0e0" stroke="#999999" points="839.12,-74.5 754.88,-74.5 754.88,-55.25 839.12,-55.25 839.12,-74.5"/>
<text text-anchor="middle" x="797" y="-61" font-family="Helvetica,sans-Serif" font-size="10.00">source_location</text>
</a>
</g>
</g>
<!-- Node7&#45;&gt;Node15 -->
<g id="edge58_Node000007_Node000015" class="edge">
<title>Node7&#45;&gt;Node15</title>
<g id="a_edge58_Node000007_Node000015"><a xlink:title=" ">
<path fill="none" stroke="#63b8ff" d="M592.44,-331.19C588.15,-303.74 578.8,-219.31 615,-165.75 646.5,-119.15 707.22,-92.25 749.84,-78.35"/>
<polygon fill="#63b8ff" stroke="#63b8ff" points="750.85,-81.7 759.35,-75.38 748.76,-75.02 750.85,-81.7"/>
</a>
</g>
</g>
<!-- Node7&#45;&gt;Node16 -->
<g id="edge59_Node000007_Node000016" class="edge">
<title>Node7&#45;&gt;Node16</title>
<g id="a_edge59_Node000007_Node000016"><a xlink:title=" ">
<path fill="none" stroke="#63b8ff" d="M547.8,-337.94C484.47,-333.99 367.65,-323.32 272,-295.5 215.23,-278.99 196.04,-278.54 151,-240.25 128.48,-221.11 122.59,-213.28 114,-185 103.42,-150.17 119.91,-108.71 132.03,-85.03"/>
<polygon fill="#63b8ff" stroke="#63b8ff" points="135.1,-86.73 136.78,-76.27 128.94,-83.4 135.1,-86.73"/>
</a>
</g>
</g>
<!-- Node7&#45;&gt;Node17 -->
<g id="edge60_Node000007_Node000017" class="edge">
<title>Node7&#45;&gt;Node17</title>
<g id="a_edge60_Node000007_Node000017"><a xlink:title=" ">
<path fill="none" stroke="#63b8ff" d="M640.08,-339.38C821.94,-335.83 1480,-317.1 1480,-231.62 1480,-231.62 1480,-231.62 1480,-174.38 1480,-132.45 1439.36,-98.96 1411.24,-80.79"/>
<polygon fill="#63b8ff" stroke="#63b8ff" points="1413.18,-77.88 1402.84,-75.61 1409.51,-83.84 1413.18,-77.88"/>
</a>
</g>
</g>
<!-- Node22 -->
<g id="Node000022" class="node">
<title>Node22</title>
<g id="a_Node000022"><a xlink:href="../../d8/d32/_type_traits_8hpp.html" target="_top" xlink:title=" ">
<polygon fill="white" stroke="#666666" points="415.5,-185 294.5,-185 294.5,-165.75 415.5,-165.75 415.5,-185"/>
<text text-anchor="middle" x="355" y="-171.5" font-family="Helvetica,sans-Serif" font-size="10.00">mimic++/TypeTraits.hpp</text>
</a>
</g>
</g>
<!-- Node7&#45;&gt;Node22 -->
<g id="edge57_Node000007_Node000022" class="edge">
<title>Node7&#45;&gt;Node22</title>
<g id="a_edge57_Node000007_Node000022"><a xlink:title=" ">
<path fill="none" stroke="#63b8ff" d="M580.81,-331.09C541.8,-304.36 426.65,-225.46 377.57,-191.84"/>
<polygon fill="#63b8ff" stroke="#63b8ff" points="379.63,-189 369.4,-186.24 375.67,-194.78 379.63,-189"/>
</a>
</g>
</g>
<!-- Node8&#45;&gt;Node2 -->
<g id="edge9_Node000008_Node000002" class="edge">
<title>Node8&#45;&gt;Node2</title>
<g id="a_edge9_Node000008_Node000002"><a xlink:title=" ">
<path fill="none" stroke="#63b8ff" d="M933.45,-280.76C768.89,-269.14 328.35,-233.73 286,-185 212.66,-100.6 428.34,-75.71 537.24,-68.6"/>
<polygon fill="#63b8ff" stroke="#63b8ff" points="537.42,-72.1 547.18,-67.99 536.99,-65.11 537.42,-72.1"/>
</a>
</g>
</g>
<!-- Node9 -->
<g id="Node000009" class="node">
<title>Node9</title>
<g id="a_Node000009"><a xlink:href="../../da/dab/_printer_8hpp.html" target="_top" xlink:title=" ">
<polygon fill="white" stroke="#666666" points="997.88,-240.25 894.12,-240.25 894.12,-221 997.88,-221 997.88,-240.25"/>
<text text-anchor="middle" x="946" y="-226.75" font-family="Helvetica,sans-Serif" font-size="10.00">mimic++/Printer.hpp</text>
</a>
</g>
</g>
<!-- Node8&#45;&gt;Node9 -->
<g id="edge10_Node000008_Node000009" class="edge">
<title>Node8&#45;&gt;Node9</title>
<g id="a_edge10_Node000008_Node000009"><a xlink:title=" ">
<path fill="none" stroke="#63b8ff" d="M986.91,-276.08C980.14,-268.73 970.28,-258.01 961.94,-248.94"/>
<polygon fill="#63b8ff" stroke="#63b8ff" points="964.64,-246.71 955.29,-241.72 959.49,-251.45 964.64,-246.71"/>
</a>
</g>
</g>
<!-- Node11 -->
<g id="Node000011" class="node">
<title>Node11</title>
<g id="a_Node000011"><a xlink:href="../../d4/d2c/_utility_8hpp.html" target="_top" xlink:title=" ">
<polygon fill="white" stroke="#666666" points="1084,-129.75 984,-129.75 984,-110.5 1084,-110.5 1084,-129.75"/>
<text text-anchor="middle" x="1034" y="-116.25" font-family="Helvetica,sans-Serif" font-size="10.00">mimic++/Utility.hpp</text>
</a>
</g>
</g>
<!-- Node8&#45;&gt;Node11 -->
<g id="edge48_Node000008_Node000011" class="edge">
<title>Node8&#45;&gt;Node11</title>
<g id="a_edge48_Node000008_Node000011"><a xlink:title=" ">
<path fill="none" stroke="#63b8ff" d="M1030.93,-275.89C1049.32,-269.28 1070.08,-258.22 1081,-240.25 1101.49,-206.54 1070.99,-162.33 1050.35,-138.37"/>
<polygon fill="#63b8ff" stroke="#63b8ff" points="1053.09,-136.19 1043.8,-131.09 1047.89,-140.87 1053.09,-136.19"/>
</a>
</g>
</g>
<!-- Node8&#45;&gt;Node17 -->
<g id="edge55_Node000008_Node000017" class="edge">
<title>Node8&#45;&gt;Node17</title>
<g id="a_edge55_Node000008_Node000017"><a xlink:title=" ">
<path fill="none" stroke="#63b8ff" d="M1056.54,-280.06C1121.98,-273.93 1220.22,-261.48 1251,-240.25 1306.2,-202.17 1283.73,-160.87 1328,-110.5 1337.66,-99.51 1350.31,-89.3 1361.25,-81.42"/>
<polygon fill="#63b8ff" stroke="#63b8ff" points="1363.2,-84.32 1369.42,-75.74 1359.21,-78.57 1363.2,-84.32"/>
</a>
</g>
</g>
<!-- Node8&#45;&gt;Node19 -->
<g id="edge51_Node000008_Node000019" class="edge">
<title>Node8&#45;&gt;Node19</title>
<g id="a_edge51_Node000008_Node000019"><a xlink:title=" ">
<path fill="none" stroke="#63b8ff" d="M1056.61,-282.54C1135.13,-278.47 1265.32,-267.7 1304,-240.25 1337.8,-216.26 1354.56,-168.14 1361.64,-140.98"/>
<polygon fill="#63b8ff" stroke="#63b8ff" points="1364.96,-142.14 1363.89,-131.6 1358.15,-140.51 1364.96,-142.14"/>
</a>
</g>
</g>
<!-- Node20 -->
<g id="Node000020" class="node">
<title>Node20</title>
<g id="a_Node000020"><a xlink:title=" ">
<polygon fill="#e0e0e0" stroke="#999999" points="1223.62,-129.75 1178.38,-129.75 1178.38,-110.5 1223.62,-110.5 1223.62,-129.75"/>
<text text-anchor="middle" x="1201" y="-116.25" font-family="Helvetica,sans-Serif" font-size="10.00">ranges</text>
</a>
</g>
</g>
<!-- Node8&#45;&gt;Node20 -->
<g id="edge52_Node000008_Node000020" class="edge">
<title>Node8&#45;&gt;Node20</title>
<g id="a_edge52_Node000008_Node000020"><a xlink:title=" ">
<path fill="none" stroke="#63b8ff" d="M1056.59,-282.01C1119.5,-277.63 1210.98,-266.78 1233,-240.25 1257.4,-210.85 1232.25,-164.57 1214.76,-139.22"/>
<polygon fill="#63b8ff" stroke="#63b8ff" points="1217.7,-137.31 1209,-131.25 1212.03,-141.41 1217.7,-137.31"/>
</a>
</g>
</g>
<!-- Node8&#45;&gt;Node21 -->
<g id="edge54_Node000008_Node000021" class="edge">
<title>Node8&#45;&gt;Node21</title>
<g id="a_edge54_Node000008_Node000021"><a xlink:title=" ">
<path fill="none" stroke="#63b8ff" d="M933.46,-285.09C790.21,-284.89 438.27,-280.22 328,-240.25 271.05,-219.61 220.1,-166.5 196.27,-138.7"/>
<polygon fill="#63b8ff" stroke="#63b8ff" points="199.07,-136.6 189.97,-131.17 193.7,-141.09 199.07,-136.6"/>
</a>
</g>
</g>
<!-- Node28 -->
<g id="Node000028" class="node">
<title>Node28</title>
<g id="a_Node000028"><a xlink:title=" ">
<polygon fill="#e0e0e0" stroke="#999999" points="1071.88,-240.25 1016.12,-240.25 1016.12,-221 1071.88,-221 1071.88,-240.25"/>
<text text-anchor="middle" x="1044" y="-226.75" font-family="Helvetica,sans-Serif" font-size="10.00">algorithm</text>
</a>
</g>
</g>
<!-- Node8&#45;&gt;Node28 -->
<g id="edge49_Node000008_Node000028" class="edge">
<title>Node8&#45;&gt;Node28</title>
<g id="a_edge49_Node000008_Node000028"><a xlink:title=" ">
<path fill="none" stroke="#63b8ff" d="M1003.09,-276.08C1009.86,-268.73 1019.72,-258.01 1028.06,-248.94"/>
<polygon fill="#63b8ff" stroke="#63b8ff" points="1030.51,-251.45 1034.71,-241.72 1025.36,-246.71 1030.51,-251.45"/>
</a>
</g>
</g>
<!-- Node29 -->
<g id="Node000029" class="node">
<title>Node29</title>
<g id="a_Node000029"><a xlink:title=" ">
<polygon fill="#e0e0e0" stroke="#999999" points="1223.5,-240.25 1192.5,-240.25 1192.5,-221 1223.5,-221 1223.5,-240.25"/>
<text text-anchor="middle" x="1208" y="-226.75" font-family="Helvetica,sans-Serif" font-size="10.00">any</text>
</a>
</g>
</g>
<!-- Node8&#45;&gt;Node29 -->
<g id="edge50_Node000008_Node000029" class="edge">
<title>Node8&#45;&gt;Node29</title>
<g id="a_edge50_Node000008_Node000029"><a xlink:title=" ">
<path fill="none" stroke="#63b8ff" d="M1034.39,-275.76C1071.52,-267.05 1128.69,-253.34 1178,-240.25 1179.01,-239.98 1180.03,-239.71 1181.07,-239.42"/>
<polygon fill="#63b8ff" stroke="#63b8ff" points="1182.01,-242.79 1190.7,-236.72 1180.12,-236.06 1182.01,-242.79"/>
</a>
</g>
</g>
<!-- Node30 -->
<g id="Node000030" class="node">
<title>Node30</title>
<g id="a_Node000030"><a xlink:title=" ">
<polygon fill="#e0e0e0" stroke="#999999" points="812,-240.25 754,-240.25 754,-221 812,-221 812,-240.25"/>
<text text-anchor="middle" x="783" y="-226.75" font-family="Helvetica,sans-Serif" font-size="10.00">stdexcept</text>
</a>
</g>
</g>
<!-- Node8&#45;&gt;Node30 -->
<g id="edge53_Node000008_Node000030" class="edge">
<title>Node8&#45;&gt;Node30</title>
<g id="a_edge53_Node000008_Node000030"><a xlink:title=" ">
<path fill="none" stroke="#63b8ff" d="M959.04,-275.84C921.4,-266.39 862.46,-251.58 823.28,-241.74"/>
<polygon fill="#63b8ff" stroke="#63b8ff" points="824.32,-238.39 813.77,-239.35 822.61,-245.18 824.32,-238.39"/>
</a>
</g>
</g>
<!-- Node31 -->
<g id="Node000031" class="node">
<title>Node31</title>
<g id="a_Node000031"><a xlink:title=" ">
<polygon fill="#e0e0e0" stroke="#999999" points="875.62,-240.25 830.38,-240.25 830.38,-221 875.62,-221 875.62,-240.25"/>
<text text-anchor="middle" x="853" y="-226.75" font-family="Helvetica,sans-Serif" font-size="10.00">variant</text>
</a>
</g>
</g>
<!-- Node8&#45;&gt;Node31 -->
<g id="edge56_Node000008_Node000031" class="edge">
<title>Node8&#45;&gt;Node31</title>
<g id="a_edge56_Node000008_Node000031"><a xlink:title=" ">
<path fill="none" stroke="#63b8ff" d="M970.91,-275.84C947.65,-267.12 912.22,-253.83 886.27,-244.1"/>
<polygon fill="#63b8ff" stroke="#63b8ff" points="887.8,-240.94 877.21,-240.7 885.35,-247.49 887.8,-240.94"/>
</a>
</g>
</g>
<!-- Node9&#45;&gt;Node2 -->
<g id="edge11_Node000009_Node000002" class="edge">
<title>Node9&#45;&gt;Node2</title>
<g id="a_edge11_Node000009_Node000002"><a xlink:title=" ">
<path fill="none" stroke="#63b8ff" d="M893.76,-222.21C890.8,-221.8 887.86,-221.39 885,-221 825.03,-212.76 658.35,-227.25 615,-185 588.71,-159.37 589.52,-112.98 592.64,-86.28"/>
<polygon fill="#63b8ff" stroke="#63b8ff" points="596.09,-86.82 594.03,-76.43 589.16,-85.84 596.09,-86.82"/>
</a>
</g>
</g>
<!-- Node9&#45;&gt;Node3 -->
<g id="edge44_Node000009_Node000003" class="edge">
<title>Node9&#45;&gt;Node3</title>
<g id="a_edge44_Node000009_Node000003"><a xlink:title=" ">
<path fill="none" stroke="#63b8ff" d="M976.1,-220.61C998.83,-213.04 1030.22,-200.9 1055,-185 1085.23,-165.6 1093.08,-158.96 1114,-129.75 1134.34,-101.36 1141.71,-90.07 1139,-55.25 1138.37,-47.14 1137.1,-38.27 1135.81,-30.6"/>
<polygon fill="#63b8ff" stroke="#63b8ff" points="1139.29,-30.18 1134.07,-20.96 1132.4,-31.42 1139.29,-30.18"/>
</a>
</g>
</g>
<!-- Node9&#45;&gt;Node4 -->
<g id="edge45_Node000009_Node000004" class="edge">
<title>Node9&#45;&gt;Node4</title>
<g id="a_edge45_Node000009_Node000004"><a xlink:title=" ">
<path fill="none" stroke="#63b8ff" d="M893.82,-220.56C853.09,-212.53 800.85,-199.79 785,-185 740.98,-143.91 721.12,-110.08 746,-55.25 751.38,-43.4 761.63,-33.45 771.55,-25.98"/>
<polygon fill="#63b8ff" stroke="#63b8ff" points="773.3,-29.03 779.53,-20.46 769.32,-23.27 773.3,-29.03"/>
</a>
</g>
</g>
<!-- Node10 -->
<g id="Node000010" class="node">
<title>Node10</title>
<g id="a_Node000010"><a xlink:href="../../d9/dc5/_string_8hpp.html" target="_top" xlink:title=" ">
<polygon fill="white" stroke="#666666" points="996.38,-185 895.62,-185 895.62,-165.75 996.38,-165.75 996.38,-185"/>
<text text-anchor="middle" x="946" y="-171.5" font-family="Helvetica,sans-Serif" font-size="10.00">mimic++/String.hpp</text>
</a>
</g>
</g>
<!-- Node9&#45;&gt;Node10 -->
<g id="edge12_Node000009_Node000010" class="edge">
<title>Node9&#45;&gt;Node10</title>
<g id="a_edge12_Node000009_Node000010"><a xlink:title=" ">
<path fill="none" stroke="#63b8ff" d="M946,-220.83C946,-214.32 946,-205.17 946,-196.87"/>
<polygon fill="#63b8ff" stroke="#63b8ff" points="949.5,-196.87 946,-186.87 942.5,-196.87 949.5,-196.87"/>
</a>
</g>
</g>
<!-- Node9&#45;&gt;Node11 -->
<g id="edge36_Node000009_Node000011" class="edge">
<title>Node9&#45;&gt;Node11</title>
<g id="a_edge36_Node000009_Node000011"><a xlink:title=" ">
<path fill="none" stroke="#63b8ff" d="M986.73,-220.51C1005.77,-213.99 1026.69,-203.05 1038,-185 1046.13,-172.02 1044.35,-154.51 1040.97,-141.1"/>
<polygon fill="#63b8ff" stroke="#63b8ff" points="1044.35,-140.19 1038.1,-131.64 1037.65,-142.22 1044.35,-140.19"/>
</a>
</g>
</g>
<!-- Node14 -->
<g id="Node000014" class="node">
<title>Node14</title>
<g id="a_Node000014"><a xlink:title=" ">
<polygon fill="#e0e0e0" stroke="#999999" points="944.88,-74.5 895.12,-74.5 895.12,-55.25 944.88,-55.25 944.88,-74.5"/>
<text text-anchor="middle" x="920" y="-61" font-family="Helvetica,sans-Serif" font-size="10.00">optional</text>
</a>
</g>
</g>
<!-- Node9&#45;&gt;Node14 -->
<g id="edge40_Node000009_Node000014" class="edge">
<title>Node9&#45;&gt;Node14</title>
<g id="a_edge40_Node000009_Node000014"><a xlink:title=" ">
<path fill="none" stroke="#63b8ff" d="M966.14,-220.52C979.86,-213.1 996.93,-201.21 1005,-185 1008.81,-177.34 1007.95,-173.78 1005,-165.75 1004.54,-164.5 959.46,-111.86 935.14,-83.52"/>
<polygon fill="#63b8ff" stroke="#63b8ff" points="937.94,-81.4 928.78,-76.09 932.63,-85.96 937.94,-81.4"/>
</a>
</g>
</g>
<!-- Node9&#45;&gt;Node15 -->
<g id="edge42_Node000009_Node000015" class="edge">
<title>Node9&#45;&gt;Node15</title>
<g id="a_edge42_Node000009_Node000015"><a xlink:title=" ">
<path fill="none" stroke="#63b8ff" d="M932.02,-220.68C919.49,-212.3 900.98,-198.99 887,-185 854.92,-152.9 824.62,-108.99 808.67,-84.43"/>
<polygon fill="#63b8ff" stroke="#63b8ff" points="811.73,-82.72 803.39,-76.18 805.83,-86.49 811.73,-82.72"/>
</a>
</g>
</g>
<!-- Node9&#45;&gt;Node17 -->
<g id="edge46_Node000009_Node000017" class="edge">
<title>Node9&#45;&gt;Node17</title>
<g id="a_edge46_Node000009_Node000017"><a xlink:title=" ">
<path fill="none" stroke="#63b8ff" d="M998.22,-222.01C1038.64,-215.13 1095.53,-203.23 1143,-185 1206.25,-160.71 1214.98,-139.95 1276,-110.5 1302.03,-97.94 1332.55,-85.64 1354.66,-77.15"/>
<polygon fill="#63b8ff" stroke="#63b8ff" points="1355.87,-80.43 1363.98,-73.61 1353.39,-73.89 1355.87,-80.43"/>
</a>
</g>
</g>
<!-- Node9&#45;&gt;Node19 -->
<g id="edge38_Node000009_Node000019" class="edge">
<title>Node9&#45;&gt;Node19</title>
<g id="a_edge38_Node000009_Node000019"><a xlink:title=" ">
<path fill="none" stroke="#63b8ff" d="M998.28,-222.15C1073.73,-211.24 1206.48,-191.54 1228,-185 1269.03,-172.52 1313.55,-150.16 1340.62,-135.48"/>
<polygon fill="#63b8ff" stroke="#63b8ff" points="1342.02,-138.71 1349.1,-130.82 1338.65,-132.57 1342.02,-138.71"/>
</a>
</g>
</g>
<!-- Node9&#45;&gt;Node20 -->
<g id="edge41_Node000009_Node000020" class="edge">
<title>Node9&#45;&gt;Node20</title>
<g id="a_edge41_Node000009_Node000020"><a xlink:title=" ">
<path fill="none" stroke="#63b8ff" d="M998.11,-221.01C1032.21,-214.12 1077.12,-202.66 1114,-185 1140.1,-172.51 1166.36,-151.85 1183.1,-137.42"/>
<polygon fill="#63b8ff" stroke="#63b8ff" points="1185.04,-140.37 1190.22,-131.13 1180.41,-135.13 1185.04,-140.37"/>
</a>
</g>
</g>
<!-- Node9&#45;&gt;Node22 -->
<g id="edge29_Node000009_Node000022" class="edge">
<title>Node9&#45;&gt;Node22</title>
<g id="a_edge29_Node000009_Node000022"><a xlink:title=" ">
<path fill="none" stroke="#63b8ff" d="M893.78,-222.03C890.81,-221.66 887.87,-221.32 885,-221 683.37,-198.79 631.91,-204.59 430,-185 429.14,-184.92 428.28,-184.83 427.42,-184.75"/>
<polygon fill="#63b8ff" stroke="#63b8ff" points="427.78,-181.27 417.47,-183.72 427.06,-188.23 427.78,-181.27"/>
</a>
</g>
</g>
<!-- Node24 -->
<g id="Node000024" class="node">
<title>Node24</title>
<g id="a_Node000024"><a xlink:title=" ">
<polygon fill="#e0e0e0" stroke="#999999" points="466.62,-129.75 421.38,-129.75 421.38,-110.5 466.62,-110.5 466.62,-129.75"/>
<text text-anchor="middle" x="444" y="-116.25" font-family="Helvetica,sans-Serif" font-size="10.00">cstdint</text>
</a>
</g>
</g>
<!-- Node9&#45;&gt;Node24 -->
<g id="edge37_Node000009_Node000024" class="edge">
<title>Node9&#45;&gt;Node24</title>
<g id="a_edge37_Node000009_Node000024"><a xlink:title=" ">
<path fill="none" stroke="#63b8ff" d="M893.77,-222.16C890.8,-221.76 887.86,-221.37 885,-221 750.52,-203.51 712.49,-221.94 582,-185 540.51,-173.26 495.79,-150.5 468.85,-135.56"/>
<polygon fill="#63b8ff" stroke="#63b8ff" points="470.86,-132.68 460.43,-130.81 467.42,-138.77 470.86,-132.68"/>
</a>
</g>
</g>
<!-- Node25 -->
<g id="Node000025" class="node">
<title>Node25</title>
<g id="a_Node000025"><a xlink:title=" ">
<polygon fill="#e0e0e0" stroke="#999999" points="840,-185 794,-185 794,-165.75 840,-165.75 840,-185"/>
<text text-anchor="middle" x="817" y="-171.5" font-family="Helvetica,sans-Serif" font-size="10.00">iterator</text>
</a>
</g>
</g>
<!-- Node9&#45;&gt;Node25 -->
<g id="edge39_Node000009_Node000025" class="edge">
<title>Node9&#45;&gt;Node25</title>
<g id="a_edge39_Node000009_Node000025"><a xlink:title=" ">
<path fill="none" stroke="#63b8ff" d="M924.12,-220.59C903.64,-212.14 872.79,-199.4 849.44,-189.77"/>
<polygon fill="#63b8ff" stroke="#63b8ff" points="850.97,-186.61 840.39,-186.03 848.3,-193.08 850.97,-186.61"/>
</a>
</g>
</g>
<!-- Node26 -->
<g id="Node000026" class="node">
<title>Node26</title>
<g id="a_Node000026"><a xlink:title=" ">
<polygon fill="#e0e0e0" stroke="#999999" points="675.62,-185 624.38,-185 624.38,-165.75 675.62,-165.75 675.62,-185"/>
<text text-anchor="middle" x="650" y="-171.5" font-family="Helvetica,sans-Serif" font-size="10.00">sstream</text>
</a>
</g>
</g>
<!-- Node9&#45;&gt;Node26 -->
<g id="edge43_Node000009_Node000026" class="edge">
<title>Node9&#45;&gt;Node26</title>
<g id="a_edge43_Node000009_Node000026"><a xlink:title=" ">
<path fill="none" stroke="#63b8ff" d="M893.79,-221.84C843.33,-214.05 764.48,-201.23 686.88,-185.26"/>
<polygon fill="#63b8ff" stroke="#63b8ff" points="687.93,-181.91 677.43,-183.3 686.51,-188.76 687.93,-181.91"/>
</a>
</g>
</g>
<!-- Node27 -->
<g id="Node000027" class="node">
<title>Node27</title>
<g id="a_Node000027"><a xlink:title=" ">
<polygon fill="#e0e0e0" stroke="#999999" points="737.88,-185 694.12,-185 694.12,-165.75 737.88,-165.75 737.88,-185"/>
<text text-anchor="middle" x="716" y="-171.5" font-family="Helvetica,sans-Serif" font-size="10.00">format</text>
</a>
</g>
</g>
<!-- Node9&#45;&gt;Node27 -->
<g id="edge47_Node000009_Node000027" class="edge">
<title>Node9&#45;&gt;Node27</title>
<g id="a_edge47_Node000009_Node000027"><a xlink:title=" ">
<path fill="none" stroke="#63b8ff" d="M905.85,-220.5C866.6,-211.55 805.16,-197.48 752,-185 751.01,-184.77 750.01,-184.53 749,-184.29"/>
<polygon fill="#63b8ff" stroke="#63b8ff" points="750.09,-180.95 739.55,-182.05 748.47,-187.77 750.09,-180.95"/>
</a>
</g>
</g>
<!-- Node10&#45;&gt;Node2 -->
<g id="edge13_Node000010_Node000002" class="edge">
<title>Node10&#45;&gt;Node2</title>
<g id="a_edge13_Node000010_Node000002"><a xlink:title=" ">
<path fill="none" stroke="#63b8ff" d="M916.76,-165.31C854.22,-145.92 707.39,-100.41 636.16,-78.32"/>
<polygon fill="#63b8ff" stroke="#63b8ff" points="637.44,-75.06 626.85,-75.44 635.36,-81.74 637.44,-75.06"/>
</a>
</g>
</g>
<!-- Node10&#45;&gt;Node3 -->
<g id="edge26_Node000010_Node000003" class="edge">
<title>Node10&#45;&gt;Node3</title>
<g id="a_edge26_Node000010_Node000003"><a xlink:title=" ">
<path fill="none" stroke="#63b8ff" d="M996.58,-170.72C1028.09,-165.88 1067.36,-154.84 1093,-129.75 1120.27,-103.07 1128.48,-57.06 1130.95,-30.72"/>
<polygon fill="#63b8ff" stroke="#63b8ff" points="1134.41,-31.27 1131.64,-21.04 1127.43,-30.76 1134.41,-31.27"/>
</a>
</g>
</g>
<!-- Node10&#45;&gt;Node4 -->
<g id="edge27_Node000010_Node000004" class="edge">
<title>Node10&#45;&gt;Node4</title>
<g id="a_edge27_Node000010_Node000004"><a xlink:title=" ">
<path fill="none" stroke="#63b8ff" d="M939.34,-165.29C924.13,-144.78 885.29,-93.69 848,-55.25 838.32,-45.27 826.7,-34.99 817,-26.81"/>
<polygon fill="#63b8ff" stroke="#63b8ff" points="819.52,-24.35 809.58,-20.67 815.05,-29.74 819.52,-24.35"/>
</a>
</g>
</g>
<!-- Node10&#45;&gt;Node11 -->
<g id="edge14_Node000010_Node000011" class="edge">
<title>Node10&#45;&gt;Node11</title>
<g id="a_edge14_Node000010_Node000011"><a xlink:title=" ">
<path fill="none" stroke="#63b8ff" d="M960.93,-165.34C974.2,-157.31 993.87,-145.41 1009.45,-135.98"/>
<polygon fill="#63b8ff" stroke="#63b8ff" points="1010.96,-139.16 1017.7,-130.99 1007.34,-133.17 1010.96,-139.16"/>
</a>
</g>
</g>
<!-- Node10&#45;&gt;Node18 -->
<g id="edge23_Node000010_Node000018" class="edge">
<title>Node10&#45;&gt;Node18</title>
<g id="a_edge23_Node000010_Node000018"><a xlink:title=" ">
<path fill="none" stroke="#63b8ff" d="M895.53,-168.11C809.15,-157.39 634.75,-135.74 556.53,-126.03"/>
<polygon fill="#63b8ff" stroke="#63b8ff" points="557.13,-122.58 546.77,-124.82 556.27,-129.53 557.13,-122.58"/>
</a>
</g>
</g>
<!-- Node10&#45;&gt;Node19 -->
<g id="edge24_Node000010_Node000019" class="edge">
<title>Node10&#45;&gt;Node19</title>
<g id="a_edge24_Node000010_Node000019"><a xlink:title=" ">
<path fill="none" stroke="#63b8ff" d="M996.66,-167.95C1081.02,-157.26 1248.6,-136.01 1325.6,-126.25"/>
<polygon fill="#63b8ff" stroke="#63b8ff" points="1325.73,-129.76 1335.21,-125.03 1324.85,-122.81 1325.73,-129.76"/>
</a>
</g>
</g>
<!-- Node10&#45;&gt;Node20 -->
<g id="edge25_Node000010_Node000020" class="edge">
<title>Node10&#45;&gt;Node20</title>
<g id="a_edge25_Node000010_Node000020"><a xlink:title=" ">
<path fill="none" stroke="#63b8ff" d="M989.55,-165.28C1039.8,-154.79 1121.36,-137.76 1167.11,-128.2"/>
<polygon fill="#63b8ff" stroke="#63b8ff" points="1167.65,-131.67 1176.72,-126.2 1166.22,-124.81 1167.65,-131.67"/>
</a>
</g>
</g>
<!-- Node10&#45;&gt;Node21 -->
<g id="edge28_Node000010_Node000021" class="edge">
<title>Node10&#45;&gt;Node21</title>
<g id="a_edge28_Node000010_Node000021"><a xlink:title=" ">
<path fill="none" stroke="#63b8ff" d="M895.17,-169.64C880.3,-168.32 864,-166.92 849,-165.75 613.08,-147.37 329.86,-129.96 224.33,-123.63"/>
<polygon fill="#63b8ff" stroke="#63b8ff" points="224.64,-120.15 214.45,-123.04 224.22,-127.13 224.64,-120.15"/>
</a>
</g>
</g>
<!-- Node11&#45;&gt;Node2 -->
<g id="edge15_Node000011_Node000002" class="edge">
<title>Node11&#45;&gt;Node2</title>
<g id="a_edge15_Node000011_Node000002"><a xlink:title=" ">
<path fill="none" stroke="#63b8ff" d="M983.76,-113.02C902.14,-103.09 741.2,-83.53 654.54,-72.99"/>
<polygon fill="#63b8ff" stroke="#63b8ff" points="655.18,-69.54 644.83,-71.81 654.34,-76.49 655.18,-69.54"/>
</a>
</g>
</g>
<!-- Node11&#45;&gt;Node4 -->
<g id="edge20_Node000011_Node000004" class="edge">
<title>Node11&#45;&gt;Node4</title>
<g id="a_edge20_Node000011_Node000004"><a xlink:title=" ">
<path fill="none" stroke="#63b8ff" d="M1047.05,-110.14C1064.16,-97.28 1090.3,-73.2 1075,-55.25 1045.49,-20.63 911.92,-12.76 841.22,-11.05"/>
<polygon fill="#63b8ff" stroke="#63b8ff" points="841.61,-7.55 831.54,-10.84 841.46,-14.55 841.61,-7.55"/>
</a>
</g>
</g>
<!-- Node12 -->
<g id="Node000012" class="node">
<title>Node12</title>
<g id="a_Node000012"><a xlink:title=" ">
<polygon fill="#e0e0e0" stroke="#999999" points="999.5,-74.5 962.5,-74.5 962.5,-55.25 999.5,-55.25 999.5,-74.5"/>
<text text-anchor="middle" x="981" y="-61" font-family="Helvetica,sans-Serif" font-size="10.00">array</text>
</a>
</g>
</g>
<!-- Node11&#45;&gt;Node12 -->
<g id="edge16_Node000011_Node000012" class="edge">
<title>Node11&#45;&gt;Node12</title>
<g id="a_edge16_Node000011_Node000012"><a xlink:title=" ">
<path fill="none" stroke="#63b8ff" d="M1025.25,-110.33C1017.85,-102.9 1007.04,-92.04 997.95,-82.91"/>
<polygon fill="#63b8ff" stroke="#63b8ff" points="1000.54,-80.55 991.01,-75.93 995.58,-85.49 1000.54,-80.55"/>
</a>
</g>
</g>
<!-- Node13 -->
<g id="Node000013" class="node">
<title>Node13</title>
<g id="a_Node000013"><a xlink:title=" ">
<polygon fill="#e0e0e0" stroke="#999999" points="1066.12,-74.5 1017.88,-74.5 1017.88,-55.25 1066.12,-55.25 1066.12,-74.5"/>
<text text-anchor="middle" x="1042" y="-61" font-family="Helvetica,sans-Serif" font-size="10.00">cassert</text>
</a>
</g>
</g>
<!-- Node11&#45;&gt;Node13 -->
<g id="edge17_Node000011_Node000013" class="edge">
<title>Node11&#45;&gt;Node13</title>
<g id="a_edge17_Node000011_Node000013"><a xlink:title=" ">
<path fill="none" stroke="#63b8ff" d="M1035.32,-110.33C1036.31,-103.74 1037.71,-94.46 1038.97,-86.07"/>
<polygon fill="#63b8ff" stroke="#63b8ff" points="1042.4,-86.76 1040.43,-76.36 1035.48,-85.72 1042.4,-86.76"/>
</a>
</g>
</g>
<!-- Node11&#45;&gt;Node14 -->
<g id="edge18_Node000011_Node000014" class="edge">
<title>Node11&#45;&gt;Node14</title>
<g id="a_edge18_Node000011_Node000014"><a xlink:title=" ">
<path fill="none" stroke="#63b8ff" d="M1014.66,-110.09C996.89,-101.79 970.28,-89.36 949.8,-79.79"/>
<polygon fill="#63b8ff" stroke="#63b8ff" points="951.35,-76.65 940.8,-75.59 948.38,-83 951.35,-76.65"/>
</a>
</g>
</g>
<!-- Node11&#45;&gt;Node15 -->
<g id="edge19_Node000011_Node000015" class="edge">
<title>Node11&#45;&gt;Node15</title>
<g id="a_edge19_Node000011_Node000015"><a xlink:title=" ">
<path fill="none" stroke="#63b8ff" d="M993.53,-110.03C953.48,-101.03 892.02,-87.23 848.51,-77.45"/>
<polygon fill="#63b8ff" stroke="#63b8ff" points="849.31,-74.04 838.78,-75.26 847.77,-80.87 849.31,-74.04"/>
</a>
</g>
</g>
<!-- Node11&#45;&gt;Node16 -->
<g id="edge21_Node000011_Node000016" class="edge">
<title>Node11&#45;&gt;Node16</title>
<g id="a_edge21_Node000011_Node000016"><a xlink:title=" ">
<path fill="none" stroke="#63b8ff" d="M983.54,-116.11C819.31,-106.29 303.15,-75.45 173.02,-67.67"/>
<polygon fill="#63b8ff" stroke="#63b8ff" points="173.36,-64.18 163.17,-67.08 172.94,-71.17 173.36,-64.18"/>
</a>
</g>
</g>
<!-- Node11&#45;&gt;Node17 -->
<g id="edge22_Node000011_Node000017" class="edge">
<title>Node11&#45;&gt;Node17</title>
<g id="a_edge22_Node000011_Node000017"><a xlink:title=" ">
<path fill="none" stroke="#63b8ff" d="M1084.29,-111.5C1158.22,-100.28 1294,-79.68 1354.51,-70.5"/>
<polygon fill="#63b8ff" stroke="#63b8ff" points="1354.71,-74.01 1364.07,-69.05 1353.66,-67.09 1354.71,-74.01"/>
</a>
</g>
</g>
<!-- Node22&#45;&gt;Node2 -->
<g id="edge30_Node000022_Node000002" class="edge">
<title>Node22&#45;&gt;Node2</title>
<g id="a_edge30_Node000022_Node000002"><a xlink:title=" ">
<path fill="none" stroke="#63b8ff" d="M349.9,-165.37C342.98,-151.82 332.92,-126.13 346,-110.5 369.95,-81.9 471.46,-71.61 537.54,-67.92"/>
<polygon fill="#63b8ff" stroke="#63b8ff" points="537.31,-71.44 547.12,-67.43 536.95,-64.45 537.31,-71.44"/>
</a>
</g>
</g>
<!-- Node22&#45;&gt;Node16 -->
<g id="edge34_Node000022_Node000016" class="edge">
<title>Node22&#45;&gt;Node16</title>
<g id="a_edge34_Node000022_Node000016"><a xlink:title=" ">
<path fill="none" stroke="#63b8ff" d="M337.29,-165.31C300.42,-146.44 215.19,-102.82 170.88,-80.15"/>
<polygon fill="#63b8ff" stroke="#63b8ff" points="172.65,-77.12 162.16,-75.68 169.46,-83.35 172.65,-77.12"/>
</a>
</g>
</g>
<!-- Node22&#45;&gt;Node18 -->
<g id="edge31_Node000022_Node000018" class="edge">
<title>Node22&#45;&gt;Node18</title>
<g id="a_edge31_Node000022_Node000018"><a xlink:title=" ">
<path fill="none" stroke="#63b8ff" d="M382.48,-165.34C408.9,-156.66 449.06,-143.46 478.62,-133.74"/>
<polygon fill="#63b8ff" stroke="#63b8ff" points="479.54,-137.12 487.95,-130.68 477.35,-130.47 479.54,-137.12"/>
</a>
</g>
</g>
<!-- Node22&#45;&gt;Node21 -->
<g id="edge35_Node000022_Node000021" class="edge">
<title>Node22&#45;&gt;Node21</title>
<g id="a_edge35_Node000022_Node000021"><a xlink:title=" ">
<path fill="none" stroke="#63b8ff" d="M325.65,-165.34C297.2,-156.58 253.8,-143.23 222.15,-133.48"/>
<polygon fill="#63b8ff" stroke="#63b8ff" points="223.52,-130.24 212.94,-130.65 221.47,-136.93 223.52,-130.24"/>
</a>
</g>
</g>
<!-- Node23 -->
<g id="Node000023" class="node">
<title>Node23</title>
<g id="a_Node000023"><a xlink:title=" ">
<polygon fill="#e0e0e0" stroke="#999999" points="403.12,-129.75 354.88,-129.75 354.88,-110.5 403.12,-110.5 403.12,-129.75"/>
<text text-anchor="middle" x="379" y="-116.25" font-family="Helvetica,sans-Serif" font-size="10.00">cstddef</text>
</a>
</g>
</g>
<!-- Node22&#45;&gt;Node23 -->
<g id="edge32_Node000022_Node000023" class="edge">
<title>Node22&#45;&gt;Node23</title>
<g id="a_edge32_Node000022_Node000023"><a xlink:title=" ">
<path fill="none" stroke="#63b8ff" d="M358.96,-165.58C362.04,-158.76 366.41,-149.06 370.29,-140.45"/>
<polygon fill="#63b8ff" stroke="#63b8ff" points="373.41,-142.04 374.33,-131.49 367.03,-139.17 373.41,-142.04"/>
</a>
</g>
</g>
<!-- Node22&#45;&gt;Node24 -->
<g id="edge33_Node000022_Node000024" class="edge">
<title>Node22&#45;&gt;Node24</title>
<g id="a_edge33_Node000022_Node000024"><a xlink:title=" ">
<path fill="none" stroke="#63b8ff" d="M370.1,-165.34C383.52,-157.31 403.41,-145.41 419.17,-135.98"/>
<polygon fill="#63b8ff" stroke="#63b8ff" points="420.75,-139.12 427.53,-130.98 417.15,-133.11 420.75,-139.12"/>
</a>
</g>
</g>
</g>
</svg>
