<?xml version="1.0" encoding="UTF-8" standalone="no"?>
<!DOCTYPE svg PUBLIC "-//W3C//DTD SVG 1.1//EN"
 "http://www.w3.org/Graphics/SVG/1.1/DTD/svg11.dtd">
<!-- Generated by graphviz version 12.2.1 (20241206.2353)
 -->
<!-- Title: mimic++/policies/ArgumentList.hpp Pages: 1 -->
<svg width="758pt" height="260pt"
 viewBox="0.00 0.00 758.12 259.50" xmlns="http://www.w3.org/2000/svg" xmlns:xlink="http://www.w3.org/1999/xlink">
<g id="graph0" class="graph" transform="scale(1 1) rotate(0) translate(4 255.5)">
<title>mimic++/policies/ArgumentList.hpp</title>
<!-- Node1 -->
<g id="Node000001" class="node">
<title>Node1</title>
<g id="a_Node000001"><a xlink:title=" ">
<polygon fill="#999999" stroke="#666666" points="419.5,-251.5 284.25,-251.5 284.25,-221 419.5,-221 419.5,-251.5"/>
<text text-anchor="start" x="292.25" y="-238" font-family="Helvetica,sans-Serif" font-size="10.00">mimic++/policies/Argument</text>
<text text-anchor="middle" x="351.88" y="-226.75" font-family="Helvetica,sans-Serif" font-size="10.00">List.hpp</text>
</a>
</g>
</g>
<!-- Node2 -->
<g id="Node000002" class="node">
<title>Node2</title>
<g id="a_Node000002"><a xlink:href="../../dc/d44/_call_8hpp.html" target="_top" xlink:title=" ">
<polygon fill="white" stroke="#666666" points="435.75,-185 344,-185 344,-165.75 435.75,-165.75 435.75,-185"/>
<text text-anchor="middle" x="389.88" y="-171.5" font-family="Helvetica,sans-Serif" font-size="10.00">mimic++/Call.hpp</text>
</a>
</g>
</g>
<!-- Node1&#45;&gt;Node2 -->
<g id="edge1_Node000001_Node000002" class="edge">
<title>Node1&#45;&gt;Node2</title>
<g id="a_edge1_Node000001_Node000002"><a xlink:title=" ">
<path fill="none" stroke="#63b8ff" d="M361.27,-220.7C366.28,-212.94 372.49,-203.31 377.85,-195.01"/>
<polygon fill="#63b8ff" stroke="#63b8ff" points="380.71,-197.02 383.2,-186.72 374.83,-193.23 380.71,-197.02"/>
</a>
</g>
</g>
<!-- Node7 -->
<g id="Node000007" class="node">
<title>Node7</title>
<g id="a_Node000007"><a xlink:title=" ">
<polygon fill="#e0e0e0" stroke="#999999" points="55.75,-74.5 0,-74.5 0,-55.25 55.75,-55.25 55.75,-74.5"/>
<text text-anchor="middle" x="27.88" y="-61" font-family="Helvetica,sans-Serif" font-size="10.00">concepts</text>
</a>
</g>
</g>
<!-- Node1&#45;&gt;Node7 -->
<g id="edge23_Node000001_Node000007" class="edge">
<title>Node1&#45;&gt;Node7</title>
<g id="a_edge23_Node000001_Node000007"><a xlink:title=" ">
<path fill="none" stroke="#63b8ff" d="M298.13,-220.6C269.68,-211.93 234.59,-199.75 204.88,-185 143.84,-154.69 79.12,-106.43 47.53,-81.66"/>
<polygon fill="#63b8ff" stroke="#63b8ff" points="50.03,-79.18 40.02,-75.72 45.69,-84.67 50.03,-79.18"/>
</a>
</g>
</g>
<!-- Node10 -->
<g id="Node000010" class="node">
<title>Node10</title>
<g id="a_Node000010"><a xlink:title=" ">
<polygon fill="#e0e0e0" stroke="#999999" points="319.38,-74.5 282.38,-74.5 282.38,-55.25 319.38,-55.25 319.38,-74.5"/>
<text text-anchor="middle" x="300.88" y="-61" font-family="Helvetica,sans-Serif" font-size="10.00">tuple</text>
</a>
</g>
</g>
<!-- Node1&#45;&gt;Node10 -->
<g id="edge25_Node000001_Node000010" class="edge">
<title>Node1&#45;&gt;Node10</title>
<g id="a_edge25_Node000001_Node000010"><a xlink:title=" ">
<path fill="none" stroke="#63b8ff" d="M346.78,-220.8C343.3,-210.79 338.66,-197.13 334.88,-185 324.08,-150.36 312.75,-109.65 306.28,-85.91"/>
<polygon fill="#63b8ff" stroke="#63b8ff" points="309.68,-85.08 303.68,-76.35 302.92,-86.91 309.68,-85.08"/>
</a>
</g>
</g>
<!-- Node11 -->
<g id="Node000011" class="node">
<title>Node11</title>
<g id="a_Node000011"><a xlink:title=" ">
<polygon fill="#e0e0e0" stroke="#999999" points="134.38,-74.5 73.38,-74.5 73.38,-55.25 134.38,-55.25 134.38,-74.5"/>
<text text-anchor="middle" x="103.88" y="-61" font-family="Helvetica,sans-Serif" font-size="10.00">type_traits</text>
</a>
</g>
</g>
<!-- Node1&#45;&gt;Node11 -->
<g id="edge26_Node000001_Node000011" class="edge">
<title>Node1&#45;&gt;Node11</title>
<g id="a_edge26_Node000001_Node000011"><a xlink:title=" ">
<path fill="none" stroke="#63b8ff" d="M314.94,-220.61C273.46,-203.04 205.47,-170.74 155.88,-129.75 139.89,-116.54 125.33,-97.8 115.71,-84.03"/>
<polygon fill="#63b8ff" stroke="#63b8ff" points="118.71,-82.23 110.22,-75.9 112.91,-86.15 118.71,-82.23"/>
</a>
</g>
</g>
<!-- Node16 -->
<g id="Node000016" class="node">
<title>Node16</title>
<g id="a_Node000016"><a xlink:title=" ">
<polygon fill="#e0e0e0" stroke="#999999" points="750.12,-74.5 711.62,-74.5 711.62,-55.25 750.12,-55.25 750.12,-74.5"/>
<text text-anchor="middle" x="730.88" y="-61" font-family="Helvetica,sans-Serif" font-size="10.00">utility</text>
</a>
</g>
</g>
<!-- Node1&#45;&gt;Node16 -->
<g id="edge27_Node000001_Node000016" class="edge">
<title>Node1&#45;&gt;Node16</title>
<g id="a_edge27_Node000001_Node000016"><a xlink:title=" ">
<path fill="none" stroke="#63b8ff" d="M389.55,-220.56C439.31,-200.91 529.47,-164.53 604.88,-129.75 639.56,-113.75 678.68,-93.58 704,-80.23"/>
<polygon fill="#63b8ff" stroke="#63b8ff" points="705.41,-83.44 712.61,-75.67 702.14,-77.25 705.41,-83.44"/>
</a>
</g>
</g>
<!-- Node17 -->
<g id="Node000017" class="node">
<title>Node17</title>
<g id="a_Node000017"><a xlink:title=" ">
<polygon fill="#e0e0e0" stroke="#999999" points="713.88,-185 655.88,-185 655.88,-165.75 713.88,-165.75 713.88,-185"/>
<text text-anchor="middle" x="684.88" y="-171.5" font-family="Helvetica,sans-Serif" font-size="10.00">functional</text>
</a>
</g>
</g>
<!-- Node1&#45;&gt;Node17 -->
<g id="edge24_Node000001_Node000017" class="edge">
<title>Node1&#45;&gt;Node17</title>
<g id="a_edge24_Node000001_Node000017"><a xlink:title=" ">
<path fill="none" stroke="#63b8ff" d="M419.94,-223.98C478.76,-214.11 566.03,-199.17 641.88,-185 642.86,-184.82 643.85,-184.63 644.86,-184.44"/>
<polygon fill="#63b8ff" stroke="#63b8ff" points="645.11,-187.95 654.27,-182.61 643.78,-181.08 645.11,-187.95"/>
</a>
</g>
</g>
<!-- Node3 -->
<g id="Node000003" class="node">
<title>Node3</title>
<g id="a_Node000003"><a xlink:href="../../df/dde/_fwd_8hpp.html" target="_top" xlink:title=" ">
<polygon fill="white" stroke="#666666" points="431.88,-74.5 337.88,-74.5 337.88,-55.25 431.88,-55.25 431.88,-74.5"/>
<text text-anchor="middle" x="384.88" y="-61" font-family="Helvetica,sans-Serif" font-size="10.00">mimic++/Fwd.hpp</text>
</a>
</g>
</g>
<!-- Node2&#45;&gt;Node3 -->
<g id="edge2_Node000002_Node000003" class="edge">
<title>Node2&#45;&gt;Node3</title>
<g id="a_edge2_Node000002_Node000003"><a xlink:title=" ">
<path fill="none" stroke="#63b8ff" d="M389.47,-165.5C388.67,-148.25 386.9,-109.83 385.81,-86.06"/>
<polygon fill="#63b8ff" stroke="#63b8ff" points="389.32,-86.22 385.36,-76.39 382.32,-86.54 389.32,-86.22"/>
</a>
</g>
</g>
<!-- Node6 -->
<g id="Node000006" class="node">
<title>Node6</title>
<g id="a_Node000006"><a xlink:href="../../d8/d32/_type_traits_8hpp.html" target="_top" xlink:title=" ">
<polygon fill="white" stroke="#666666" points="285.38,-129.75 164.38,-129.75 164.38,-110.5 285.38,-110.5 285.38,-129.75"/>
<text text-anchor="middle" x="224.88" y="-116.25" font-family="Helvetica,sans-Serif" font-size="10.00">mimic++/TypeTraits.hpp</text>
</a>
</g>
</g>
<!-- Node2&#45;&gt;Node6 -->
<g id="edge5_Node000002_Node000006" class="edge">
<title>Node2&#45;&gt;Node6</title>
<g id="a_edge5_Node000002_Node000006"><a xlink:title=" ">
<path fill="none" stroke="#63b8ff" d="M361.88,-165.34C334.86,-156.62 293.72,-143.34 263.57,-133.61"/>
<polygon fill="#63b8ff" stroke="#63b8ff" points="265.03,-130.41 254.44,-130.67 262.88,-137.07 265.03,-130.41"/>
</a>
</g>
</g>
<!-- Node2&#45;&gt;Node10 -->
<g id="edge21_Node000002_Node000010" class="edge">
<title>Node2&#45;&gt;Node10</title>
<g id="a_edge21_Node000002_Node000010"><a xlink:title=" ">
<path fill="none" stroke="#63b8ff" d="M382.59,-165.5C367.92,-147.61 334.59,-106.97 315.33,-83.5"/>
<polygon fill="#63b8ff" stroke="#63b8ff" points="318.27,-81.56 309.22,-76.05 312.85,-86 318.27,-81.56"/>
</a>
</g>
</g>
<!-- Node12 -->
<g id="Node000012" class="node">
<title>Node12</title>
<g id="a_Node000012"><a xlink:href="../../d4/d2c/_utility_8hpp.html" target="_top" xlink:title=" ">
<polygon fill="white" stroke="#666666" points="523.88,-129.75 423.88,-129.75 423.88,-110.5 523.88,-110.5 523.88,-129.75"/>
<text text-anchor="middle" x="473.88" y="-116.25" font-family="Helvetica,sans-Serif" font-size="10.00">mimic++/Utility.hpp</text>
</a>
</g>
</g>
<!-- Node2&#45;&gt;Node12 -->
<g id="edge12_Node000002_Node000012" class="edge">
<title>Node2&#45;&gt;Node12</title>
<g id="a_edge12_Node000002_Node000012"><a xlink:title=" ">
<path fill="none" stroke="#63b8ff" d="M404.12,-165.34C416.67,-157.39 435.21,-145.64 450.02,-136.25"/>
<polygon fill="#63b8ff" stroke="#63b8ff" points="451.71,-139.32 458.28,-131.01 447.96,-133.41 451.71,-139.32"/>
</a>
</g>
</g>
<!-- Node15 -->
<g id="Node000015" class="node">
<title>Node15</title>
<g id="a_Node000015"><a xlink:title=" ">
<polygon fill="#e0e0e0" stroke="#999999" points="694,-74.5 609.75,-74.5 609.75,-55.25 694,-55.25 694,-74.5"/>
<text text-anchor="middle" x="651.88" y="-61" font-family="Helvetica,sans-Serif" font-size="10.00">source_location</text>
</a>
</g>
</g>
<!-- Node2&#45;&gt;Node15 -->
<g id="edge20_Node000002_Node000015" class="edge">
<title>Node2&#45;&gt;Node15</title>
<g id="a_edge20_Node000002_Node000015"><a xlink:title=" ">
<path fill="none" stroke="#63b8ff" d="M425.51,-165.29C454.85,-157.32 497.27,-144.7 532.88,-129.75 566.81,-115.5 603.87,-94.71 627.46,-80.76"/>
<polygon fill="#63b8ff" stroke="#63b8ff" points="629.21,-83.79 635.99,-75.66 625.62,-77.79 629.21,-83.79"/>
</a>
</g>
</g>
<!-- Node2&#45;&gt;Node16 -->
<g id="edge22_Node000002_Node000016" class="edge">
<title>Node2&#45;&gt;Node16</title>
<g id="a_edge22_Node000002_Node000016"><a xlink:title=" ">
<path fill="none" stroke="#63b8ff" d="M432.92,-165.32C469.07,-157.29 521.87,-144.56 566.88,-129.75 588.32,-122.7 592.88,-118.8 613.88,-110.5 643.24,-98.89 676.94,-86.09 700.61,-77.19"/>
<polygon fill="#63b8ff" stroke="#63b8ff" points="701.81,-80.48 709.94,-73.68 699.35,-73.92 701.81,-80.48"/>
</a>
</g>
</g>
<!-- Node4 -->
<g id="Node000004" class="node">
<title>Node4</title>
<g id="a_Node000004"><a xlink:title=" ">
<polygon fill="#e0e0e0" stroke="#999999" points="404.88,-19.25 364.88,-19.25 364.88,0 404.88,0 404.88,-19.25"/>
<text text-anchor="middle" x="384.88" y="-5.75" font-family="Helvetica,sans-Serif" font-size="10.00">string</text>
</a>
</g>
</g>
<!-- Node3&#45;&gt;Node4 -->
<g id="edge3_Node000003_Node000004" class="edge">
<title>Node3&#45;&gt;Node4</title>
<g id="a_edge3_Node000003_Node000004"><a xlink:title=" ">
<path fill="none" stroke="#63b8ff" d="M384.88,-55.08C384.88,-48.57 384.88,-39.42 384.88,-31.12"/>
<polygon fill="#63b8ff" stroke="#63b8ff" points="388.38,-31.12 384.88,-21.12 381.38,-31.12 388.38,-31.12"/>
</a>
</g>
</g>
<!-- Node5 -->
<g id="Node000005" class="node">
<title>Node5</title>
<g id="a_Node000005"><a xlink:title=" ">
<polygon fill="#e0e0e0" stroke="#999999" points="523.62,-19.25 458.12,-19.25 458.12,0 523.62,0 523.62,-19.25"/>
<text text-anchor="middle" x="490.88" y="-5.75" font-family="Helvetica,sans-Serif" font-size="10.00">string_view</text>
</a>
</g>
</g>
<!-- Node3&#45;&gt;Node5 -->
<g id="edge4_Node000003_Node000005" class="edge">
<title>Node3&#45;&gt;Node5</title>
<g id="a_edge4_Node000003_Node000005"><a xlink:title=" ">
<path fill="none" stroke="#63b8ff" d="M402.86,-54.84C419.23,-46.62 443.66,-34.34 462.64,-24.81"/>
<polygon fill="#63b8ff" stroke="#63b8ff" points="464.09,-28 471.45,-20.38 460.95,-21.74 464.09,-28"/>
</a>
</g>
</g>
<!-- Node6&#45;&gt;Node3 -->
<g id="edge6_Node000006_Node000003" class="edge">
<title>Node6&#45;&gt;Node3</title>
<g id="a_edge6_Node000006_Node000003"><a xlink:title=" ">
<path fill="none" stroke="#63b8ff" d="M252.02,-110.09C278.11,-101.41 317.77,-88.21 346.97,-78.49"/>
<polygon fill="#63b8ff" stroke="#63b8ff" points="347.78,-81.91 356.16,-75.43 345.57,-75.27 347.78,-81.91"/>
</a>
</g>
</g>
<!-- Node6&#45;&gt;Node7 -->
<g id="edge7_Node000006_Node000007" class="edge">
<title>Node6&#45;&gt;Node7</title>
<g id="a_edge7_Node000006_Node000007"><a xlink:title=" ">
<path fill="none" stroke="#63b8ff" d="M191.46,-110.09C156.94,-100.76 103.11,-86.21 66.72,-76.37"/>
<polygon fill="#63b8ff" stroke="#63b8ff" points="68.05,-73.11 57.48,-73.88 66.22,-79.87 68.05,-73.11"/>
</a>
</g>
</g>
<!-- Node8 -->
<g id="Node000008" class="node">
<title>Node8</title>
<g id="a_Node000008"><a xlink:title=" ">
<polygon fill="#e0e0e0" stroke="#999999" points="264,-74.5 215.75,-74.5 215.75,-55.25 264,-55.25 264,-74.5"/>
<text text-anchor="middle" x="239.88" y="-61" font-family="Helvetica,sans-Serif" font-size="10.00">cstddef</text>
</a>
</g>
</g>
<!-- Node6&#45;&gt;Node8 -->
<g id="edge8_Node000006_Node000008" class="edge">
<title>Node6&#45;&gt;Node8</title>
<g id="a_edge8_Node000006_Node000008"><a xlink:title=" ">
<path fill="none" stroke="#63b8ff" d="M227.35,-110.33C229.23,-103.67 231.88,-94.24 234.27,-85.78"/>
<polygon fill="#63b8ff" stroke="#63b8ff" points="237.59,-86.89 236.93,-76.32 230.85,-84.99 237.59,-86.89"/>
</a>
</g>
</g>
<!-- Node9 -->
<g id="Node000009" class="node">
<title>Node9</title>
<g id="a_Node000009"><a xlink:title=" ">
<polygon fill="#e0e0e0" stroke="#999999" points="197.5,-74.5 152.25,-74.5 152.25,-55.25 197.5,-55.25 197.5,-74.5"/>
<text text-anchor="middle" x="174.88" y="-61" font-family="Helvetica,sans-Serif" font-size="10.00">cstdint</text>
</a>
</g>
</g>
<!-- Node6&#45;&gt;Node9 -->
<g id="edge9_Node000006_Node000009" class="edge">
<title>Node6&#45;&gt;Node9</title>
<g id="a_edge9_Node000006_Node000009"><a xlink:title=" ">
<path fill="none" stroke="#63b8ff" d="M216.62,-110.33C209.71,-102.98 199.65,-92.26 191.14,-83.19"/>
<polygon fill="#63b8ff" stroke="#63b8ff" points="193.74,-80.86 184.35,-75.96 188.64,-85.65 193.74,-80.86"/>
</a>
</g>
</g>
<!-- Node6&#45;&gt;Node10 -->
<g id="edge10_Node000006_Node000010" class="edge">
<title>Node6&#45;&gt;Node10</title>
<g id="a_edge10_Node000006_Node000010"><a xlink:title=" ">
<path fill="none" stroke="#63b8ff" d="M237.77,-110.09C248.9,-102.29 265.25,-90.84 278.51,-81.54"/>
<polygon fill="#63b8ff" stroke="#63b8ff" points="280.5,-84.43 286.68,-75.82 276.48,-78.69 280.5,-84.43"/>
</a>
</g>
</g>
<!-- Node6&#45;&gt;Node11 -->
<g id="edge11_Node000006_Node000011" class="edge">
<title>Node6&#45;&gt;Node11</title>
<g id="a_edge11_Node000006_Node000011"><a xlink:title=" ">
<path fill="none" stroke="#63b8ff" d="M204.35,-110.09C185.31,-101.72 156.72,-89.13 134.9,-79.53"/>
<polygon fill="#63b8ff" stroke="#63b8ff" points="136.45,-76.39 125.89,-75.56 133.63,-82.79 136.45,-76.39"/>
</a>
</g>
</g>
<!-- Node12&#45;&gt;Node3 -->
<g id="edge13_Node000012_Node000003" class="edge">
<title>Node12&#45;&gt;Node3</title>
<g id="a_edge13_Node000012_Node000003"><a xlink:title=" ">
<path fill="none" stroke="#63b8ff" d="M458.78,-110.09C445.35,-102.06 425.46,-90.16 409.7,-80.73"/>
<polygon fill="#63b8ff" stroke="#63b8ff" points="411.72,-77.86 401.35,-75.73 408.13,-83.87 411.72,-77.86"/>
</a>
</g>
</g>
<!-- Node12&#45;&gt;Node5 -->
<g id="edge17_Node000012_Node000005" class="edge">
<title>Node12&#45;&gt;Node5</title>
<g id="a_edge17_Node000012_Node000005"><a xlink:title=" ">
<path fill="none" stroke="#63b8ff" d="M483.2,-110.23C491.23,-101.88 502.23,-88.59 506.88,-74.5 511.8,-59.55 506.8,-42.21 501.13,-29.37"/>
<polygon fill="#63b8ff" stroke="#63b8ff" points="504.45,-28.18 496.87,-20.77 498.17,-31.29 504.45,-28.18"/>
</a>
</g>
</g>
<!-- Node12&#45;&gt;Node10 -->
<g id="edge18_Node000012_Node000010" class="edge">
<title>Node12&#45;&gt;Node10</title>
<g id="a_edge18_Node000012_Node000010"><a xlink:title=" ">
<path fill="none" stroke="#63b8ff" d="M444.53,-110.09C412.76,-100.31 362.38,-84.81 330.5,-74.99"/>
<polygon fill="#63b8ff" stroke="#63b8ff" points="331.7,-71.7 321.11,-72.1 329.64,-78.39 331.7,-71.7"/>
</a>
</g>
</g>
<!-- Node13 -->
<g id="Node000013" class="node">
<title>Node13</title>
<g id="a_Node000013"><a xlink:title=" ">
<polygon fill="#e0e0e0" stroke="#999999" points="591.38,-74.5 554.38,-74.5 554.38,-55.25 591.38,-55.25 591.38,-74.5"/>
<text text-anchor="middle" x="572.88" y="-61" font-family="Helvetica,sans-Serif" font-size="10.00">array</text>
</a>
</g>
</g>
<!-- Node12&#45;&gt;Node13 -->
<g id="edge14_Node000012_Node000013" class="edge">
<title>Node12&#45;&gt;Node13</title>
<g id="a_edge14_Node000012_Node000013"><a xlink:title=" ">
<path fill="none" stroke="#63b8ff" d="M490.67,-110.09C505.89,-101.91 528.57,-89.71 546.26,-80.19"/>
<polygon fill="#63b8ff" stroke="#63b8ff" points="547.52,-83.49 554.67,-75.67 544.2,-77.32 547.52,-83.49"/>
</a>
</g>
</g>
<!-- Node14 -->
<g id="Node000014" class="node">
<title>Node14</title>
<g id="a_Node000014"><a xlink:title=" ">
<polygon fill="#e0e0e0" stroke="#999999" points="498,-74.5 449.75,-74.5 449.75,-55.25 498,-55.25 498,-74.5"/>
<text text-anchor="middle" x="473.88" y="-61" font-family="Helvetica,sans-Serif" font-size="10.00">cassert</text>
</a>
</g>
</g>
<!-- Node12&#45;&gt;Node14 -->
<g id="edge15_Node000012_Node000014" class="edge">
<title>Node12&#45;&gt;Node14</title>
<g id="a_edge15_Node000012_Node000014"><a xlink:title=" ">
<path fill="none" stroke="#63b8ff" d="M473.88,-110.33C473.88,-103.82 473.88,-94.67 473.88,-86.37"/>
<polygon fill="#63b8ff" stroke="#63b8ff" points="477.38,-86.37 473.88,-76.37 470.38,-86.37 477.38,-86.37"/>
</a>
</g>
</g>
<!-- Node12&#45;&gt;Node15 -->
<g id="edge16_Node000012_Node000015" class="edge">
<title>Node12&#45;&gt;Node15</title>
<g id="a_edge16_Node000012_Node000015"><a xlink:title=" ">
<path fill="none" stroke="#63b8ff" d="M504.07,-110.09C533.35,-101.33 578,-87.98 610.56,-78.23"/>
<polygon fill="#63b8ff" stroke="#63b8ff" points="611.5,-81.61 620.08,-75.39 609.5,-74.9 611.5,-81.61"/>
</a>
</g>
</g>
<!-- Node12&#45;&gt;Node16 -->
<g id="edge19_Node000012_Node000016" class="edge">
<title>Node12&#45;&gt;Node16</title>
<g id="a_edge19_Node000012_Node000016"><a xlink:title=" ">
<path fill="none" stroke="#63b8ff" d="M524.25,-110.9C568.41,-103.33 634.55,-91.14 700.38,-74.92"/>
<polygon fill="#63b8ff" stroke="#63b8ff" points="701.05,-78.36 709.9,-72.54 699.35,-71.57 701.05,-78.36"/>
</a>
</g>
</g>
</g>
</svg>
