<?xml version="1.0" encoding="UTF-8" standalone="no"?>
<!DOCTYPE svg PUBLIC "-//W3C//DTD SVG 1.1//EN"
 "http://www.w3.org/Graphics/SVG/1.1/DTD/svg11.dtd">
<!-- Generated by graphviz version 12.2.1 (20241206.2353)
 -->
<!-- Title: mimic++/policies/ArgumentList.hpp Pages: 1 -->
<!--zoomable 425 -->

<svg id="main" version="1.1" xmlns="http://www.w3.org/2000/svg" xmlns:xlink="http://www.w3.org/1999/xlink" xml:space="preserve" onload="init(evt)">

<style type="text/css"><![CDATA[
.node, .edge {opacity: 0.7;}
.node.selected, .edge.selected {opacity: 1;}
.edge:hover path { stroke: red; }
.edge:hover polygon { stroke: red; fill: red; }
]]></style>

<defs>
  <circle id="rim" cx="0" cy="0" r="7"/>
  <circle id="rim2" cx="0" cy="0" r="3.5"/>
  <g id="zoomPlus">
    <use xlink:href="#rim" fill="#404040"><set attributeName="fill" to="#808080" begin="zoomplus.mouseover" end="zoomplus.mouseout"/></use>
    <path d="M-4,0h8M0,-4v8" fill="none" stroke="white" stroke-width="1.5" pointer-events="none"/>
  </g>
  <g id="zoomMin">
    <use xlink:href="#rim" fill="#404040"><set attributeName="fill" to="#808080" begin="zoomminus.mouseover" end="zoomminus.mouseout"/></use>
    <path d="M-4,0h8" fill="none" stroke="white" stroke-width="1.5" pointer-events="none"/>
  </g>
  <g id="arrowUp" transform="translate(30 24)">
    <use xlink:href="#rim"/>
    <path pointer-events="none" fill="none" stroke="white" stroke-width="1.5" d="M0,-3.0v7 M-2.5,-0.5L0,-3.0L2.5,-0.5"/>
  </g>
  <g id="arrowRight" transform="rotate(90) translate(36 -43)">
    <use xlink:href="#rim"/>
    <path pointer-events="none" fill="none" stroke="white" stroke-width="1.5" d="M0,-3.0v7 M-2.5,-0.5L0,-3.0L2.5,-0.5"/>
  </g>
  <g id="arrowDown" transform="rotate(180) translate(-30 -48)">
    <use xlink:href="#rim"/>
    <path pointer-events="none" fill="none" stroke="white" stroke-width="1.5" d="M0,-3.0v7 M-2.5,-0.5L0,-3.0L2.5,-0.5"/>
  </g>
  <g id="arrowLeft" transform="rotate(270) translate(-36 17)">
    <use xlink:href="#rim"/>
    <path pointer-events="none" fill="none" stroke="white" stroke-width="1.5" d="M0,-3.0v7 M-2.5,-0.5L0,-3.0L2.5,-0.5"/>
  </g>
  <g id="resetDef">
    <use xlink:href="#rim2" fill="#404040"><set attributeName="fill" to="#808080" begin="reset.mouseover" end="reset.mouseout"/></use>
  </g>
</defs>
<script type="application/ecmascript">
var viewWidth = 1321;
var viewHeight = 425;
var sectionId = 'dynsection-0';
</script>
<script type="application/ecmascript" xlink:href="../../svg.min.js"/>
<svg id="graph" class="graph">
<g id="viewport">
<title>mimic++/policies/ArgumentList.hpp</title>
<!-- Node1 -->
<g id="Node000001" class="node">
<title>Node1</title>
<g id="a_Node000001"><a xlink:title=" ">
<polygon fill="#999999" stroke="#666666" points="200.62,-417.25 65.38,-417.25 65.38,-386.75 200.62,-386.75 200.62,-417.25"/>
<text text-anchor="start" x="73.38" y="-403.75" font-family="Helvetica,sans-Serif" font-size="10.00">mimic++/policies/Argument</text>
<text text-anchor="middle" x="133" y="-392.5" font-family="Helvetica,sans-Serif" font-size="10.00">List.hpp</text>
</a>
</g>
</g>
<!-- Node2 -->
<g id="Node000002" class="node">
<title>Node2</title>
<g id="a_Node000002"><a xlink:href="../../dc/d44/_call_8hpp.html" target="_top" xlink:title=" ">
<polygon fill="white" stroke="#666666" points="311.88,-350.75 220.12,-350.75 220.12,-331.5 311.88,-331.5 311.88,-350.75"/>
<text text-anchor="middle" x="266" y="-337.25" font-family="Helvetica,sans-Serif" font-size="10.00">mimic++/Call.hpp</text>
</a>
</g>
</g>
<!-- Node1&#45;&gt;Node2 -->
<g id="edge1_Node000001_Node000002" class="edge">
<title>Node1&#45;&gt;Node2</title>
<g id="a_edge1_Node000001_Node000002"><a xlink:title=" ">
<path fill="none" stroke="#63b8ff" d="M166.22,-386.3C187.35,-376.94 214.52,-364.91 235.17,-355.77"/>
<polygon fill="#63b8ff" stroke="#63b8ff" points="236.49,-359.01 244.22,-351.77 233.66,-352.61 236.49,-359.01"/>
</a>
</g>
</g>
<!-- Node15 -->
<g id="Node000015" class="node">
<title>Node15</title>
<g id="a_Node000015"><a xlink:title=" ">
<polygon fill="#e0e0e0" stroke="#999999" points="98.5,-74.5 61.5,-74.5 61.5,-55.25 98.5,-55.25 98.5,-74.5"/>
<text text-anchor="middle" x="80" y="-61" font-family="Helvetica,sans-Serif" font-size="10.00">tuple</text>
</a>
</g>
</g>
<!-- Node1&#45;&gt;Node15 -->
<g id="edge61_Node000001_Node000015" class="edge">
<title>Node1&#45;&gt;Node15</title>
<g id="a_edge61_Node000001_Node000015"><a xlink:title=" ">
<path fill="none" stroke="#63b8ff" d="M93.1,-386.39C53.92,-369.18 0,-336.47 0,-286.88 0,-286.88 0,-286.88 0,-174.38 0,-135.29 34.04,-101.03 57.71,-81.93"/>
<polygon fill="#63b8ff" stroke="#63b8ff" points="59.81,-84.73 65.59,-75.85 55.54,-79.19 59.81,-84.73"/>
</a>
</g>
</g>
<!-- Node16 -->
<g id="Node000016" class="node">
<title>Node16</title>
<g id="a_Node000016"><a xlink:title=" ">
<polygon fill="#e0e0e0" stroke="#999999" points="197.25,-74.5 158.75,-74.5 158.75,-55.25 197.25,-55.25 197.25,-74.5"/>
<text text-anchor="middle" x="178" y="-61" font-family="Helvetica,sans-Serif" font-size="10.00">utility</text>
</a>
</g>
</g>
<!-- Node1&#45;&gt;Node16 -->
<g id="edge63_Node000001_Node000016" class="edge">
<title>Node1&#45;&gt;Node16</title>
<g id="a_edge63_Node000001_Node000016"><a xlink:title=" ">
<path fill="none" stroke="#63b8ff" d="M120.07,-386.3C103.25,-365.63 76,-326.08 76,-286.88 76,-286.88 76,-286.88 76,-174.38 76,-131.17 119.46,-98.14 149.65,-80.41"/>
<polygon fill="#63b8ff" stroke="#63b8ff" points="150.97,-83.68 157.97,-75.73 147.54,-77.58 150.97,-83.68"/>
</a>
</g>
</g>
<!-- Node17 -->
<g id="Node000017" class="node">
<title>Node17</title>
<g id="a_Node000017"><a xlink:title=" ">
<polygon fill="#e0e0e0" stroke="#999999" points="445.88,-129.75 390.12,-129.75 390.12,-110.5 445.88,-110.5 445.88,-129.75"/>
<text text-anchor="middle" x="418" y="-116.25" font-family="Helvetica,sans-Serif" font-size="10.00">concepts</text>
</a>
</g>
</g>
<!-- Node1&#45;&gt;Node17 -->
<g id="edge59_Node000001_Node000017" class="edge">
<title>Node1&#45;&gt;Node17</title>
<g id="a_edge59_Node000001_Node000017"><a xlink:title=" ">
<path fill="none" stroke="#63b8ff" d="M138.44,-386.44C154.49,-345.47 205.56,-228.19 286,-165.75 300.72,-154.32 345.54,-140.48 378.89,-131.28"/>
<polygon fill="#63b8ff" stroke="#63b8ff" points="379.51,-134.74 388.24,-128.74 377.68,-127.98 379.51,-134.74"/>
</a>
</g>
</g>
<!-- Node18 -->
<g id="Node000018" class="node">
<title>Node18</title>
<g id="a_Node000018"><a xlink:title=" ">
<polygon fill="#e0e0e0" stroke="#999999" points="1224,-129.75 1166,-129.75 1166,-110.5 1224,-110.5 1224,-129.75"/>
<text text-anchor="middle" x="1195" y="-116.25" font-family="Helvetica,sans-Serif" font-size="10.00">functional</text>
</a>
</g>
</g>
<!-- Node1&#45;&gt;Node18 -->
<g id="edge60_Node000001_Node000018" class="edge">
<title>Node1&#45;&gt;Node18</title>
<g id="a_edge60_Node000001_Node000018"><a xlink:title=" ">
<path fill="none" stroke="#63b8ff" d="M200.85,-399.43C424.52,-393.56 1128.15,-369.32 1195,-295.5 1233.89,-252.56 1214.64,-176.38 1202.44,-140.65"/>
<polygon fill="#63b8ff" stroke="#63b8ff" points="1205.86,-139.83 1199.18,-131.61 1199.28,-142.2 1205.86,-139.83"/>
</a>
</g>
</g>
<!-- Node20 -->
<g id="Node000020" class="node">
<title>Node20</title>
<g id="a_Node000020"><a xlink:title=" ">
<polygon fill="#e0e0e0" stroke="#999999" points="267.5,-129.75 206.5,-129.75 206.5,-110.5 267.5,-110.5 267.5,-129.75"/>
<text text-anchor="middle" x="237" y="-116.25" font-family="Helvetica,sans-Serif" font-size="10.00">type_traits</text>
</a>
</g>
</g>
<!-- Node1&#45;&gt;Node20 -->
<g id="edge62_Node000001_Node000020" class="edge">
<title>Node1&#45;&gt;Node20</title>
<g id="a_edge62_Node000001_Node000020"><a xlink:title=" ">
<path fill="none" stroke="#63b8ff" d="M128.97,-386.36C123.39,-364.76 114,-323.03 114,-286.88 114,-286.88 114,-286.88 114,-229.62 114,-182.59 165.22,-151.08 201.55,-134.64"/>
<polygon fill="#63b8ff" stroke="#63b8ff" points="202.63,-137.99 210.42,-130.81 199.85,-131.56 202.63,-137.99"/>
</a>
</g>
</g>
<!-- Node3 -->
<g id="Node000003" class="node">
<title>Node3</title>
<g id="a_Node000003"><a xlink:href="../../df/dde/_fwd_8hpp.html" target="_top" xlink:title=" ">
<polygon fill="white" stroke="#666666" points="914,-74.5 820,-74.5 820,-55.25 914,-55.25 914,-74.5"/>
<text text-anchor="middle" x="867" y="-61" font-family="Helvetica,sans-Serif" font-size="10.00">mimic++/Fwd.hpp</text>
</a>
</g>
</g>
<!-- Node2&#45;&gt;Node3 -->
<g id="edge2_Node000002_Node000003" class="edge">
<title>Node2&#45;&gt;Node3</title>
<g id="a_edge2_Node000002_Node000003"><a xlink:title=" ">
<path fill="none" stroke="#63b8ff" d="M312.32,-340.15C512.11,-339.66 1290,-331.35 1290,-231.62 1290,-231.62 1290,-231.62 1290,-174.38 1290,-141.57 1280.49,-128.4 1253,-110.5 1193.9,-72.01 1013.02,-83 925.76,-74.6"/>
<polygon fill="#63b8ff" stroke="#63b8ff" points="926.17,-71.13 915.84,-73.49 925.38,-78.08 926.17,-71.13"/>
</a>
</g>
</g>
<!-- Node7 -->
<g id="Node000007" class="node">
<title>Node7</title>
<g id="a_Node000007"><a xlink:href="../../de/df5/_stacktrace_8hpp.html" target="_top" xlink:title=" ">
<polygon fill="white" stroke="#666666" points="977.25,-295.5 854.75,-295.5 854.75,-276.25 977.25,-276.25 977.25,-295.5"/>
<text text-anchor="middle" x="916" y="-282" font-family="Helvetica,sans-Serif" font-size="10.00">mimic++/Stacktrace.hpp</text>
</a>
</g>
</g>
<!-- Node2&#45;&gt;Node7 -->
<g id="edge6_Node000002_Node000007" class="edge">
<title>Node2&#45;&gt;Node7</title>
<g id="a_edge6_Node000002_Node000007"><a xlink:title=" ">
<path fill="none" stroke="#63b8ff" d="M312.23,-336.34C423.69,-327.21 707.98,-303.92 842.86,-292.87"/>
<polygon fill="#63b8ff" stroke="#63b8ff" points="843.07,-296.36 852.75,-292.06 842.5,-289.38 843.07,-296.36"/>
</a>
</g>
</g>
<!-- Node14 -->
<g id="Node000014" class="node">
<title>Node14</title>
<g id="a_Node000014"><a xlink:title=" ">
<polygon fill="#e0e0e0" stroke="#999999" points="1243.12,-74.5 1158.88,-74.5 1158.88,-55.25 1243.12,-55.25 1243.12,-74.5"/>
<text text-anchor="middle" x="1201" y="-61" font-family="Helvetica,sans-Serif" font-size="10.00">source_location</text>
</a>
</g>
</g>
<!-- Node2&#45;&gt;Node14 -->
<g id="edge56_Node000002_Node000014" class="edge">
<title>Node2&#45;&gt;Node14</title>
<g id="a_edge56_Node000002_Node000014"><a xlink:title=" ">
<path fill="none" stroke="#63b8ff" d="M312.33,-340.47C475.91,-341.31 1025.71,-340.61 1195,-295.5 1247.1,-281.62 1274.45,-285.99 1303,-240.25 1320.53,-212.16 1310.98,-198.12 1304,-165.75 1298.32,-139.4 1297.13,-130.44 1279,-110.5 1267.09,-97.4 1250.42,-87.15 1235.54,-79.79"/>
<polygon fill="#63b8ff" stroke="#63b8ff" points="1237.03,-76.63 1226.49,-75.59 1234.08,-82.98 1237.03,-76.63"/>
</a>
</g>
</g>
<!-- Node2&#45;&gt;Node15 -->
<g id="edge57_Node000002_Node000015" class="edge">
<title>Node2&#45;&gt;Node15</title>
<g id="a_edge57_Node000002_Node000015"><a xlink:title=" ">
<path fill="none" stroke="#63b8ff" d="M251.37,-331.05C211.58,-305.41 101.74,-227.82 62,-129.75 56.04,-115.05 61.7,-97.69 68.2,-84.78"/>
<polygon fill="#63b8ff" stroke="#63b8ff" points="71.24,-86.5 73.12,-76.08 65.15,-83.06 71.24,-86.5"/>
</a>
</g>
</g>
<!-- Node2&#45;&gt;Node16 -->
<g id="edge58_Node000002_Node000016" class="edge">
<title>Node2&#45;&gt;Node16</title>
<g id="a_edge58_Node000002_Node000016"><a xlink:title=" ">
<path fill="none" stroke="#63b8ff" d="M261.58,-331.17C247.69,-302.6 204.68,-210.76 185,-129.75 181.48,-115.28 179.73,-98.53 178.86,-85.81"/>
<polygon fill="#63b8ff" stroke="#63b8ff" points="182.37,-85.98 178.33,-76.19 175.38,-86.37 182.37,-85.98"/>
</a>
</g>
</g>
<!-- Node21 -->
<g id="Node000021" class="node">
<title>Node21</title>
<g id="a_Node000021"><a xlink:href="../../d8/d32/_type_traits_8hpp.html" target="_top" xlink:title=" ">
<polygon fill="white" stroke="#666666" points="415.5,-185 294.5,-185 294.5,-165.75 415.5,-165.75 415.5,-185"/>
<text text-anchor="middle" x="355" y="-171.5" font-family="Helvetica,sans-Serif" font-size="10.00">mimic++/TypeTraits.hpp</text>
</a>
</g>
</g>
<!-- Node2&#45;&gt;Node21 -->
<g id="edge55_Node000002_Node000021" class="edge">
<title>Node2&#45;&gt;Node21</title>
<g id="a_edge55_Node000002_Node000021"><a xlink:title=" ">
<path fill="none" stroke="#63b8ff" d="M270.79,-331.32C284.73,-305.67 325.55,-230.55 344.77,-195.19"/>
<polygon fill="#63b8ff" stroke="#63b8ff" points="347.77,-197.01 349.47,-186.55 341.62,-193.67 347.77,-197.01"/>
</a>
</g>
</g>
<!-- Node4 -->
<g id="Node000004" class="node">
<title>Node4</title>
<g id="a_Node000004"><a xlink:title=" ">
<polygon fill="#e0e0e0" stroke="#999999" points="902,-19.25 862,-19.25 862,0 902,0 902,-19.25"/>
<text text-anchor="middle" x="882" y="-5.75" font-family="Helvetica,sans-Serif" font-size="10.00">string</text>
</a>
</g>
</g>
<!-- Node3&#45;&gt;Node4 -->
<g id="edge3_Node000003_Node000004" class="edge">
<title>Node3&#45;&gt;Node4</title>
<g id="a_edge3_Node000003_Node000004"><a xlink:title=" ">
<path fill="none" stroke="#63b8ff" d="M869.48,-55.08C871.35,-48.42 874.01,-38.99 876.39,-30.53"/>
<polygon fill="#63b8ff" stroke="#63b8ff" points="879.72,-31.64 879.06,-21.07 872.98,-29.74 879.72,-31.64"/>
</a>
</g>
</g>
<!-- Node5 -->
<g id="Node000005" class="node">
<title>Node5</title>
<g id="a_Node000005"><a xlink:title=" ">
<polygon fill="#e0e0e0" stroke="#999999" points="770.75,-19.25 705.25,-19.25 705.25,0 770.75,0 770.75,-19.25"/>
<text text-anchor="middle" x="738" y="-5.75" font-family="Helvetica,sans-Serif" font-size="10.00">string_view</text>
</a>
</g>
</g>
<!-- Node3&#45;&gt;Node5 -->
<g id="edge4_Node000003_Node000005" class="edge">
<title>Node3&#45;&gt;Node5</title>
<g id="a_edge4_Node000003_Node000005"><a xlink:title=" ">
<path fill="none" stroke="#63b8ff" d="M845.12,-54.84C824.64,-46.39 793.79,-33.65 770.44,-24.02"/>
<polygon fill="#63b8ff" stroke="#63b8ff" points="771.97,-20.86 761.39,-20.28 769.3,-27.33 771.97,-20.86"/>
</a>
</g>
</g>
<!-- Node6 -->
<g id="Node000006" class="node">
<title>Node6</title>
<g id="a_Node000006"><a xlink:title=" ">
<polygon fill="#e0e0e0" stroke="#999999" points="843.75,-19.25 796.25,-19.25 796.25,0 843.75,0 843.75,-19.25"/>
<text text-anchor="middle" x="820" y="-5.75" font-family="Helvetica,sans-Serif" font-size="10.00">version</text>
</a>
</g>
</g>
<!-- Node3&#45;&gt;Node6 -->
<g id="edge5_Node000003_Node000006" class="edge">
<title>Node3&#45;&gt;Node6</title>
<g id="a_edge5_Node000003_Node000006"><a xlink:title=" ">
<path fill="none" stroke="#63b8ff" d="M859.24,-55.08C852.81,-47.8 843.49,-37.23 835.54,-28.23"/>
<polygon fill="#63b8ff" stroke="#63b8ff" points="838.17,-25.93 828.93,-20.74 832.92,-30.56 838.17,-25.93"/>
</a>
</g>
</g>
<!-- Node7&#45;&gt;Node3 -->
<g id="edge7_Node000007_Node000003" class="edge">
<title>Node7&#45;&gt;Node3</title>
<g id="a_edge7_Node000007_Node000003"><a xlink:title=" ">
<path fill="none" stroke="#63b8ff" d="M977.65,-278.4C1037.58,-271.19 1123.61,-258.15 1152,-240.25 1209.5,-203.99 1278.21,-161.27 1233,-110.5 1188.99,-61.09 1009.33,-81.64 925.71,-74.52"/>
<polygon fill="#63b8ff" stroke="#63b8ff" points="926.16,-71.05 915.84,-73.46 925.41,-78.01 926.16,-71.05"/>
</a>
</g>
</g>
<!-- Node8 -->
<g id="Node000008" class="node">
<title>Node8</title>
<g id="a_Node000008"><a xlink:href="../../da/dab/_printer_8hpp.html" target="_top" xlink:title=" ">
<polygon fill="white" stroke="#666666" points="838.88,-240.25 735.12,-240.25 735.12,-221 838.88,-221 838.88,-240.25"/>
<text text-anchor="middle" x="787" y="-226.75" font-family="Helvetica,sans-Serif" font-size="10.00">mimic++/Printer.hpp</text>
</a>
</g>
</g>
<!-- Node7&#45;&gt;Node8 -->
<g id="edge8_Node000007_Node000008" class="edge">
<title>Node7&#45;&gt;Node8</title>
<g id="a_edge8_Node000007_Node000008"><a xlink:title=" ">
<path fill="none" stroke="#63b8ff" d="M894.12,-275.84C873.64,-267.39 842.79,-254.65 819.44,-245.02"/>
<polygon fill="#63b8ff" stroke="#63b8ff" points="820.97,-241.86 810.39,-241.28 818.3,-248.33 820.97,-241.86"/>
</a>
</g>
</g>
<!-- Node10 -->
<g id="Node000010" class="node">
<title>Node10</title>
<g id="a_Node000010"><a xlink:href="../../d4/d2c/_utility_8hpp.html" target="_top" xlink:title=" ">
<polygon fill="white" stroke="#666666" points="1034,-129.75 934,-129.75 934,-110.5 1034,-110.5 1034,-129.75"/>
<text text-anchor="middle" x="984" y="-116.25" font-family="Helvetica,sans-Serif" font-size="10.00">mimic++/Utility.hpp</text>
</a>
</g>
</g>
<!-- Node7&#45;&gt;Node10 -->
<g id="edge46_Node000007_Node000010" class="edge">
<title>Node7&#45;&gt;Node10</title>
<g id="a_edge46_Node000007_Node000010"><a xlink:title=" ">
<path fill="none" stroke="#63b8ff" d="M977.26,-279.11C1028.02,-272.91 1094.44,-261.03 1111,-240.25 1145.25,-197.28 1066.85,-155.28 1018.49,-134.53"/>
<polygon fill="#63b8ff" stroke="#63b8ff" points="1020.07,-131.4 1009.5,-130.78 1017.38,-137.86 1020.07,-131.4"/>
</a>
</g>
</g>
<!-- Node7&#45;&gt;Node16 -->
<g id="edge53_Node000007_Node000016" class="edge">
<title>Node7&#45;&gt;Node16</title>
<g id="a_edge53_Node000007_Node000016"><a xlink:title=" ">
<path fill="none" stroke="#63b8ff" d="M854.34,-285.69C755.66,-285.65 556.8,-280 394,-240.25 296.85,-216.53 252.56,-213.55 198,-129.75 189.35,-116.47 184.24,-99.2 181.35,-85.97"/>
<polygon fill="#63b8ff" stroke="#63b8ff" points="184.82,-85.44 179.51,-76.27 177.94,-86.75 184.82,-85.44"/>
</a>
</g>
</g>
<!-- Node7&#45;&gt;Node18 -->
<g id="edge49_Node000007_Node000018" class="edge">
<title>Node7&#45;&gt;Node18</title>
<g id="a_edge49_Node000007_Node000018"><a xlink:title=" ">
<path fill="none" stroke="#63b8ff" d="M977.52,-277.74C1031.62,-270.45 1105.32,-257.72 1129,-240.25 1162.82,-215.29 1181.5,-167.55 1189.75,-140.71"/>
<polygon fill="#63b8ff" stroke="#63b8ff" points="1193.01,-142.03 1192.41,-131.45 1186.29,-140.1 1193.01,-142.03"/>
</a>
</g>
</g>
<!-- Node19 -->
<g id="Node000019" class="node">
<title>Node19</title>
<g id="a_Node000019"><a xlink:title=" ">
<polygon fill="#e0e0e0" stroke="#999999" points="649.62,-129.75 604.38,-129.75 604.38,-110.5 649.62,-110.5 649.62,-129.75"/>
<text text-anchor="middle" x="627" y="-116.25" font-family="Helvetica,sans-Serif" font-size="10.00">ranges</text>
</a>
</g>
</g>
<!-- Node7&#45;&gt;Node19 -->
<g id="edge50_Node000007_Node000019" class="edge">
<title>Node7&#45;&gt;Node19</title>
<g id="a_edge50_Node000007_Node000019"><a xlink:title=" ">
<path fill="none" stroke="#63b8ff" d="M854.42,-276.39C763.89,-262.48 602.02,-231.62 569,-185 556.13,-166.83 577.77,-148.22 598.18,-135.81"/>
<polygon fill="#63b8ff" stroke="#63b8ff" points="599.67,-138.99 606.63,-130.99 596.2,-132.91 599.67,-138.99"/>
</a>
</g>
</g>
<!-- Node7&#45;&gt;Node20 -->
<g id="edge52_Node000007_Node000020" class="edge">
<title>Node7&#45;&gt;Node20</title>
<g id="a_edge52_Node000007_Node000020"><a xlink:title=" ">
<path fill="none" stroke="#63b8ff" d="M854.48,-280.94C715.41,-271.13 381.5,-242.15 286,-185 268.22,-174.36 254.61,-154.63 246.29,-139.9"/>
<polygon fill="#63b8ff" stroke="#63b8ff" points="249.45,-138.4 241.69,-131.19 243.26,-141.66 249.45,-138.4"/>
</a>
</g>
</g>
<!-- Node27 -->
<g id="Node000027" class="node">
<title>Node27</title>
<g id="a_Node000027"><a xlink:title=" ">
<polygon fill="#e0e0e0" stroke="#999999" points="912.88,-240.25 857.12,-240.25 857.12,-221 912.88,-221 912.88,-240.25"/>
<text text-anchor="middle" x="885" y="-226.75" font-family="Helvetica,sans-Serif" font-size="10.00">algorithm</text>
</a>
</g>
</g>
<!-- Node7&#45;&gt;Node27 -->
<g id="edge47_Node000007_Node000027" class="edge">
<title>Node7&#45;&gt;Node27</title>
<g id="a_edge47_Node000007_Node000027"><a xlink:title=" ">
<path fill="none" stroke="#63b8ff" d="M910.88,-276.08C906.82,-269.11 901.01,-259.12 895.91,-250.37"/>
<polygon fill="#63b8ff" stroke="#63b8ff" points="899.05,-248.8 890.99,-241.92 893,-252.32 899.05,-248.8"/>
</a>
</g>
</g>
<!-- Node28 -->
<g id="Node000028" class="node">
<title>Node28</title>
<g id="a_Node000028"><a xlink:title=" ">
<polygon fill="#e0e0e0" stroke="#999999" points="961.5,-240.25 930.5,-240.25 930.5,-221 961.5,-221 961.5,-240.25"/>
<text text-anchor="middle" x="946" y="-226.75" font-family="Helvetica,sans-Serif" font-size="10.00">any</text>
</a>
</g>
</g>
<!-- Node7&#45;&gt;Node28 -->
<g id="edge48_Node000007_Node000028" class="edge">
<title>Node7&#45;&gt;Node28</title>
<g id="a_edge48_Node000007_Node000028"><a xlink:title=" ">
<path fill="none" stroke="#63b8ff" d="M920.95,-276.08C924.88,-269.11 930.51,-259.12 935.44,-250.37"/>
<polygon fill="#63b8ff" stroke="#63b8ff" points="938.34,-252.36 940.2,-241.93 932.24,-248.92 938.34,-252.36"/>
</a>
</g>
</g>
<!-- Node29 -->
<g id="Node000029" class="node">
<title>Node29</title>
<g id="a_Node000029"><a xlink:title=" ">
<polygon fill="#e0e0e0" stroke="#999999" points="1038,-240.25 980,-240.25 980,-221 1038,-221 1038,-240.25"/>
<text text-anchor="middle" x="1009" y="-226.75" font-family="Helvetica,sans-Serif" font-size="10.00">stdexcept</text>
</a>
</g>
</g>
<!-- Node7&#45;&gt;Node29 -->
<g id="edge51_Node000007_Node000029" class="edge">
<title>Node7&#45;&gt;Node29</title>
<g id="a_edge51_Node000007_Node000029"><a xlink:title=" ">
<path fill="none" stroke="#63b8ff" d="M931.78,-275.84C945.94,-267.73 966.98,-255.68 983.53,-246.21"/>
<polygon fill="#63b8ff" stroke="#63b8ff" points="984.89,-249.46 991.83,-241.45 981.42,-243.39 984.89,-249.46"/>
</a>
</g>
</g>
<!-- Node30 -->
<g id="Node000030" class="node">
<title>Node30</title>
<g id="a_Node000030"><a xlink:title=" ">
<polygon fill="#e0e0e0" stroke="#999999" points="1101.62,-240.25 1056.38,-240.25 1056.38,-221 1101.62,-221 1101.62,-240.25"/>
<text text-anchor="middle" x="1079" y="-226.75" font-family="Helvetica,sans-Serif" font-size="10.00">variant</text>
</a>
</g>
</g>
<!-- Node7&#45;&gt;Node30 -->
<g id="edge54_Node000007_Node000030" class="edge">
<title>Node7&#45;&gt;Node30</title>
<g id="a_edge54_Node000007_Node000030"><a xlink:title=" ">
<path fill="none" stroke="#63b8ff" d="M943.65,-275.84C971.68,-266.69 1015.09,-252.5 1045.15,-242.68"/>
<polygon fill="#63b8ff" stroke="#63b8ff" points="1046.11,-246.05 1054.53,-239.62 1043.93,-239.4 1046.11,-246.05"/>
</a>
</g>
</g>
<!-- Node8&#45;&gt;Node3 -->
<g id="edge9_Node000008_Node000003" class="edge">
<title>Node8&#45;&gt;Node3</title>
<g id="a_edge9_Node000008_Node000003"><a xlink:title=" ">
<path fill="none" stroke="#63b8ff" d="M833.41,-220.58C868.74,-212.64 913.09,-200.03 924,-185 948.11,-151.79 910.63,-106.77 885.91,-82.7"/>
<polygon fill="#63b8ff" stroke="#63b8ff" points="888.31,-80.16 878.62,-75.88 883.52,-85.27 888.31,-80.16"/>
</a>
</g>
</g>
<!-- Node8&#45;&gt;Node4 -->
<g id="edge42_Node000008_Node000004" class="edge">
<title>Node8&#45;&gt;Node4</title>
<g id="a_edge42_Node000008_Node000004"><a xlink:title=" ">
<path fill="none" stroke="#63b8ff" d="M839.24,-220.94C900.65,-210.47 996.13,-193.24 1011,-185 1069.19,-152.74 1088.39,-136.71 1112,-74.5 1115.04,-66.5 1117.44,-61.85 1112,-55.25 1087.18,-25.15 970.38,-15.1 913.41,-11.96"/>
<polygon fill="#63b8ff" stroke="#63b8ff" points="913.89,-8.48 903.73,-11.46 913.54,-15.47 913.89,-8.48"/>
</a>
</g>
</g>
<!-- Node8&#45;&gt;Node5 -->
<g id="edge43_Node000008_Node000005" class="edge">
<title>Node8&#45;&gt;Node5</title>
<g id="a_edge43_Node000008_Node000005"><a xlink:title=" ">
<path fill="none" stroke="#63b8ff" d="M833.01,-220.55C866.74,-211.39 904.47,-194.42 891,-165.75 863.99,-108.26 823.62,-121.6 781,-74.5 768.39,-60.56 756.66,-42.66 748.64,-29.36"/>
<polygon fill="#63b8ff" stroke="#63b8ff" points="751.69,-27.62 743.62,-20.76 745.64,-31.16 751.69,-27.62"/>
</a>
</g>
</g>
<!-- Node9 -->
<g id="Node000009" class="node">
<title>Node9</title>
<g id="a_Node000009"><a xlink:href="../../d9/dc5/_string_8hpp.html" target="_top" xlink:title=" ">
<polygon fill="white" stroke="#666666" points="882.38,-185 781.62,-185 781.62,-165.75 882.38,-165.75 882.38,-185"/>
<text text-anchor="middle" x="832" y="-171.5" font-family="Helvetica,sans-Serif" font-size="10.00">mimic++/String.hpp</text>
</a>
</g>
</g>
<!-- Node8&#45;&gt;Node9 -->
<g id="edge10_Node000008_Node000009" class="edge">
<title>Node8&#45;&gt;Node9</title>
<g id="a_edge10_Node000008_Node000009"><a xlink:title=" ">
<path fill="none" stroke="#63b8ff" d="M794.43,-220.83C800.58,-213.55 809.51,-202.98 817.13,-193.98"/>
<polygon fill="#63b8ff" stroke="#63b8ff" points="819.65,-196.41 823.43,-186.52 814.3,-191.89 819.65,-196.41"/>
</a>
</g>
</g>
<!-- Node8&#45;&gt;Node10 -->
<g id="edge34_Node000008_Node000010" class="edge">
<title>Node8&#45;&gt;Node10</title>
<g id="a_edge34_Node000008_Node000010"><a xlink:title=" ">
<path fill="none" stroke="#63b8ff" d="M839.31,-221.88C884.13,-214.27 944.19,-201.41 962,-185 974.28,-173.69 979.7,-155.22 982.1,-141.04"/>
<polygon fill="#63b8ff" stroke="#63b8ff" points="985.53,-141.84 983.33,-131.47 978.58,-140.94 985.53,-141.84"/>
</a>
</g>
</g>
<!-- Node13 -->
<g id="Node000013" class="node">
<title>Node13</title>
<g id="a_Node000013"><a xlink:title=" ">
<polygon fill="#e0e0e0" stroke="#999999" points="1102.88,-74.5 1053.12,-74.5 1053.12,-55.25 1102.88,-55.25 1102.88,-74.5"/>
<text text-anchor="middle" x="1078" y="-61" font-family="Helvetica,sans-Serif" font-size="10.00">optional</text>
</a>
</g>
</g>
<!-- Node8&#45;&gt;Node13 -->
<g id="edge38_Node000008_Node000013" class="edge">
<title>Node8&#45;&gt;Node13</title>
<g id="a_edge38_Node000008_Node000013"><a xlink:title=" ">
<path fill="none" stroke="#63b8ff" d="M839.23,-220.76C888.22,-211.89 957.52,-197.76 982,-185 1014.44,-168.09 1020.34,-158.47 1043,-129.75 1053.9,-115.93 1063.3,-98.25 1069.6,-85"/>
<polygon fill="#63b8ff" stroke="#63b8ff" points="1072.71,-86.62 1073.68,-76.07 1066.34,-83.72 1072.71,-86.62"/>
</a>
</g>
</g>
<!-- Node8&#45;&gt;Node14 -->
<g id="edge40_Node000008_Node000014" class="edge">
<title>Node8&#45;&gt;Node14</title>
<g id="a_edge40_Node000008_Node000014"><a xlink:title=" ">
<path fill="none" stroke="#63b8ff" d="M839.15,-221.98C920.95,-209.92 1070.71,-187.6 1076,-185 1088.97,-178.62 1153.35,-114.24 1184.31,-82.87"/>
<polygon fill="#63b8ff" stroke="#63b8ff" points="1186.5,-85.64 1191.02,-76.05 1181.51,-80.72 1186.5,-85.64"/>
</a>
</g>
</g>
<!-- Node8&#45;&gt;Node16 -->
<g id="edge44_Node000008_Node000016" class="edge">
<title>Node8&#45;&gt;Node16</title>
<g id="a_edge44_Node000008_Node000016"><a xlink:title=" ">
<path fill="none" stroke="#63b8ff" d="M734.63,-225.66C677.55,-220.22 591.36,-208.32 569,-185 545.79,-160.79 581.21,-133.71 557,-110.5 531.98,-86.53 294.79,-71.94 208.88,-67.4"/>
<polygon fill="#63b8ff" stroke="#63b8ff" points="209.25,-63.92 199.08,-66.89 208.89,-70.91 209.25,-63.92"/>
</a>
</g>
</g>
<!-- Node8&#45;&gt;Node18 -->
<g id="edge36_Node000008_Node000018" class="edge">
<title>Node8&#45;&gt;Node18</title>
<g id="a_edge36_Node000008_Node000018"><a xlink:title=" ">
<path fill="none" stroke="#63b8ff" d="M839.24,-222.22C842.2,-221.8 845.14,-221.4 848,-221 966.17,-204.65 1004.17,-231.58 1114,-185 1139.64,-174.13 1164.01,-152.9 1179.2,-137.91"/>
<polygon fill="#63b8ff" stroke="#63b8ff" points="1181.46,-140.6 1185.96,-131 1176.46,-135.7 1181.46,-140.6"/>
</a>
</g>
</g>
<!-- Node8&#45;&gt;Node19 -->
<g id="edge39_Node000008_Node000019" class="edge">
<title>Node8&#45;&gt;Node19</title>
<g id="a_edge39_Node000008_Node000019"><a xlink:title=" ">
<path fill="none" stroke="#63b8ff" d="M734.85,-225.89C679.24,-220.7 596.5,-209.08 577,-185 563.64,-168.5 583.35,-149.29 601.81,-136.28"/>
<polygon fill="#63b8ff" stroke="#63b8ff" points="603.5,-139.36 609.91,-130.92 599.64,-133.52 603.5,-139.36"/>
</a>
</g>
</g>
<!-- Node8&#45;&gt;Node21 -->
<g id="edge27_Node000008_Node000021" class="edge">
<title>Node8&#45;&gt;Node21</title>
<g id="a_edge27_Node000008_Node000021"><a xlink:title=" ">
<path fill="none" stroke="#63b8ff" d="M734.89,-223.2C658.11,-213.74 514.31,-196.01 427.34,-185.29"/>
<polygon fill="#63b8ff" stroke="#63b8ff" points="427.84,-181.83 417.49,-184.08 426.98,-188.77 427.84,-181.83"/>
</a>
</g>
</g>
<!-- Node23 -->
<g id="Node000023" class="node">
<title>Node23</title>
<g id="a_Node000023"><a xlink:title=" ">
<polygon fill="#e0e0e0" stroke="#999999" points="547.62,-129.75 502.38,-129.75 502.38,-110.5 547.62,-110.5 547.62,-129.75"/>
<text text-anchor="middle" x="525" y="-116.25" font-family="Helvetica,sans-Serif" font-size="10.00">cstdint</text>
</a>
</g>
</g>
<!-- Node8&#45;&gt;Node23 -->
<g id="edge35_Node000008_Node000023" class="edge">
<title>Node8&#45;&gt;Node23</title>
<g id="a_edge35_Node000008_Node000023"><a xlink:title=" ">
<path fill="none" stroke="#63b8ff" d="M734.73,-229.09C661.71,-227.11 534.83,-218.76 506,-185 495.11,-172.24 502.65,-153.44 511.24,-139.53"/>
<polygon fill="#63b8ff" stroke="#63b8ff" points="514.13,-141.52 516.87,-131.29 508.34,-137.57 514.13,-141.52"/>
</a>
</g>
</g>
<!-- Node24 -->
<g id="Node000024" class="node">
<title>Node24</title>
<g id="a_Node000024"><a xlink:title=" ">
<polygon fill="#e0e0e0" stroke="#999999" points="632,-185 586,-185 586,-165.75 632,-165.75 632,-185"/>
<text text-anchor="middle" x="609" y="-171.5" font-family="Helvetica,sans-Serif" font-size="10.00">iterator</text>
</a>
</g>
</g>
<!-- Node8&#45;&gt;Node24 -->
<g id="edge37_Node000008_Node000024" class="edge">
<title>Node8&#45;&gt;Node24</title>
<g id="a_edge37_Node000008_Node000024"><a xlink:title=" ">
<path fill="none" stroke="#63b8ff" d="M756.8,-220.59C725.31,-211.17 676.02,-196.43 643.13,-186.59"/>
<polygon fill="#63b8ff" stroke="#63b8ff" points="644.27,-183.27 633.69,-183.76 642.26,-189.98 644.27,-183.27"/>
</a>
</g>
</g>
<!-- Node25 -->
<g id="Node000025" class="node">
<title>Node25</title>
<g id="a_Node000025"><a xlink:title=" ">
<polygon fill="#e0e0e0" stroke="#999999" points="701.62,-185 650.38,-185 650.38,-165.75 701.62,-165.75 701.62,-185"/>
<text text-anchor="middle" x="676" y="-171.5" font-family="Helvetica,sans-Serif" font-size="10.00">sstream</text>
</a>
</g>
</g>
<!-- Node8&#45;&gt;Node25 -->
<g id="edge41_Node000008_Node000025" class="edge">
<title>Node8&#45;&gt;Node25</title>
<g id="a_edge41_Node000008_Node000025"><a xlink:title=" ">
<path fill="none" stroke="#63b8ff" d="M768.17,-220.59C750.95,-212.33 725.2,-199.98 705.29,-190.43"/>
<polygon fill="#63b8ff" stroke="#63b8ff" points="706.82,-187.28 696.29,-186.11 703.79,-193.59 706.82,-187.28"/>
</a>
</g>
</g>
<!-- Node26 -->
<g id="Node000026" class="node">
<title>Node26</title>
<g id="a_Node000026"><a xlink:title=" ">
<polygon fill="#e0e0e0" stroke="#999999" points="763.88,-185 720.12,-185 720.12,-165.75 763.88,-165.75 763.88,-185"/>
<text text-anchor="middle" x="742" y="-171.5" font-family="Helvetica,sans-Serif" font-size="10.00">format</text>
</a>
</g>
</g>
<!-- Node8&#45;&gt;Node26 -->
<g id="edge45_Node000008_Node000026" class="edge">
<title>Node8&#45;&gt;Node26</title>
<g id="a_edge45_Node000008_Node000026"><a xlink:title=" ">
<path fill="none" stroke="#63b8ff" d="M779.57,-220.83C773.42,-213.55 764.49,-202.98 756.87,-193.98"/>
<polygon fill="#63b8ff" stroke="#63b8ff" points="759.7,-191.89 750.57,-186.52 754.35,-196.41 759.7,-191.89"/>
</a>
</g>
</g>
<!-- Node9&#45;&gt;Node3 -->
<g id="edge11_Node000009_Node000003" class="edge">
<title>Node9&#45;&gt;Node3</title>
<g id="a_edge11_Node000009_Node000003"><a xlink:title=" ">
<path fill="none" stroke="#63b8ff" d="M834.86,-165.5C840.45,-148.17 852.93,-109.48 860.59,-85.74"/>
<polygon fill="#63b8ff" stroke="#63b8ff" points="863.89,-86.91 863.63,-76.32 857.23,-84.76 863.89,-86.91"/>
</a>
</g>
</g>
<!-- Node9&#45;&gt;Node4 -->
<g id="edge24_Node000009_Node000004" class="edge">
<title>Node9&#45;&gt;Node4</title>
<g id="a_edge24_Node000009_Node000004"><a xlink:title=" ">
<path fill="none" stroke="#63b8ff" d="M826.68,-165.36C815.17,-144.56 790.58,-92.2 811,-55.25 819.61,-39.66 836.2,-28.78 851.18,-21.67"/>
<polygon fill="#63b8ff" stroke="#63b8ff" points="852.48,-24.92 860.28,-17.75 849.71,-18.5 852.48,-24.92"/>
</a>
</g>
</g>
<!-- Node9&#45;&gt;Node5 -->
<g id="edge25_Node000009_Node000005" class="edge">
<title>Node9&#45;&gt;Node5</title>
<g id="a_edge25_Node000009_Node000005"><a xlink:title=" ">
<path fill="none" stroke="#63b8ff" d="M810.42,-165.34C779.72,-151.16 724.64,-120.45 702,-74.5 693.95,-58.17 706.13,-40.15 718.45,-27.43"/>
<polygon fill="#63b8ff" stroke="#63b8ff" points="720.81,-30.02 725.65,-20.59 715.99,-24.94 720.81,-30.02"/>
</a>
</g>
</g>
<!-- Node9&#45;&gt;Node10 -->
<g id="edge12_Node000009_Node000010" class="edge">
<title>Node9&#45;&gt;Node10</title>
<g id="a_edge12_Node000009_Node000010"><a xlink:title=" ">
<path fill="none" stroke="#63b8ff" d="M857.78,-165.34C882.35,-156.74 919.59,-143.69 947.26,-134"/>
<polygon fill="#63b8ff" stroke="#63b8ff" points="948.38,-137.31 956.66,-130.7 946.07,-130.71 948.38,-137.31"/>
</a>
</g>
</g>
<!-- Node9&#45;&gt;Node17 -->
<g id="edge21_Node000009_Node000017" class="edge">
<title>Node9&#45;&gt;Node17</title>
<g id="a_edge21_Node000009_Node000017"><a xlink:title=" ">
<path fill="none" stroke="#63b8ff" d="M781.16,-166.88C778.4,-166.49 775.67,-166.11 773,-165.75 658.56,-150.19 523.09,-133.7 457.51,-125.83"/>
<polygon fill="#63b8ff" stroke="#63b8ff" points="457.95,-122.36 447.6,-124.64 457.11,-129.31 457.95,-122.36"/>
</a>
</g>
</g>
<!-- Node9&#45;&gt;Node18 -->
<g id="edge22_Node000009_Node000018" class="edge">
<title>Node9&#45;&gt;Node18</title>
<g id="a_edge22_Node000009_Node000018"><a xlink:title=" ">
<path fill="none" stroke="#63b8ff" d="M882.86,-166.91C955.56,-156.25 1087.77,-136.85 1154.37,-127.09"/>
<polygon fill="#63b8ff" stroke="#63b8ff" points="1154.74,-130.57 1164.13,-125.65 1153.72,-123.64 1154.74,-130.57"/>
</a>
</g>
</g>
<!-- Node9&#45;&gt;Node19 -->
<g id="edge23_Node000009_Node000019" class="edge">
<title>Node9&#45;&gt;Node19</title>
<g id="a_edge23_Node000009_Node000019"><a xlink:title=" ">
<path fill="none" stroke="#63b8ff" d="M797.22,-165.34C759.13,-155.45 698.44,-139.68 660.75,-129.89"/>
<polygon fill="#63b8ff" stroke="#63b8ff" points="661.87,-126.57 651.31,-127.44 660.11,-133.34 661.87,-126.57"/>
</a>
</g>
</g>
<!-- Node9&#45;&gt;Node20 -->
<g id="edge26_Node000009_Node000020" class="edge">
<title>Node9&#45;&gt;Node20</title>
<g id="a_edge26_Node000009_Node000020"><a xlink:title=" ">
<path fill="none" stroke="#63b8ff" d="M781.18,-166.73C778.41,-166.38 775.67,-166.05 773,-165.75 570.09,-142.97 518.28,-148.97 315,-129.75 303.3,-128.64 290.63,-127.3 278.97,-126.01"/>
<polygon fill="#63b8ff" stroke="#63b8ff" points="279.56,-122.56 269.23,-124.92 278.78,-129.51 279.56,-122.56"/>
</a>
</g>
</g>
<!-- Node10&#45;&gt;Node3 -->
<g id="edge13_Node000010_Node000003" class="edge">
<title>Node10&#45;&gt;Node3</title>
<g id="a_edge13_Node000010_Node000003"><a xlink:title=" ">
<path fill="none" stroke="#63b8ff" d="M964.15,-110.09C945.83,-101.75 918.35,-89.25 897.29,-79.66"/>
<polygon fill="#63b8ff" stroke="#63b8ff" points="898.87,-76.54 888.32,-75.58 895.97,-82.91 898.87,-76.54"/>
</a>
</g>
</g>
<!-- Node10&#45;&gt;Node5 -->
<g id="edge18_Node000010_Node000005" class="edge">
<title>Node10&#45;&gt;Node5</title>
<g id="a_edge18_Node000010_Node000005"><a xlink:title=" ">
<path fill="none" stroke="#63b8ff" d="M933.67,-112.49C897.89,-106.3 849.54,-94.84 811,-74.5 788.31,-62.52 766.77,-42.17 753.04,-27.66"/>
<polygon fill="#63b8ff" stroke="#63b8ff" points="755.93,-25.63 746.59,-20.62 750.77,-30.36 755.93,-25.63"/>
</a>
</g>
</g>
<!-- Node11 -->
<g id="Node000011" class="node">
<title>Node11</title>
<g id="a_Node000011"><a xlink:title=" ">
<polygon fill="#e0e0e0" stroke="#999999" points="1035.5,-74.5 998.5,-74.5 998.5,-55.25 1035.5,-55.25 1035.5,-74.5"/>
<text text-anchor="middle" x="1017" y="-61" font-family="Helvetica,sans-Serif" font-size="10.00">array</text>
</a>
</g>
</g>
<!-- Node10&#45;&gt;Node11 -->
<g id="edge14_Node000010_Node000011" class="edge">
<title>Node10&#45;&gt;Node11</title>
<g id="a_edge14_Node000010_Node000011"><a xlink:title=" ">
<path fill="none" stroke="#63b8ff" d="M989.45,-110.33C993.77,-103.36 999.96,-93.37 1005.38,-84.62"/>
<polygon fill="#63b8ff" stroke="#63b8ff" points="1008.34,-86.49 1010.64,-76.15 1002.39,-82.8 1008.34,-86.49"/>
</a>
</g>
</g>
<!-- Node12 -->
<g id="Node000012" class="node">
<title>Node12</title>
<g id="a_Node000012"><a xlink:title=" ">
<polygon fill="#e0e0e0" stroke="#999999" points="980.12,-74.5 931.88,-74.5 931.88,-55.25 980.12,-55.25 980.12,-74.5"/>
<text text-anchor="middle" x="956" y="-61" font-family="Helvetica,sans-Serif" font-size="10.00">cassert</text>
</a>
</g>
</g>
<!-- Node10&#45;&gt;Node12 -->
<g id="edge15_Node000010_Node000012" class="edge">
<title>Node10&#45;&gt;Node12</title>
<g id="a_edge15_Node000010_Node000012"><a xlink:title=" ">
<path fill="none" stroke="#63b8ff" d="M979.38,-110.33C975.75,-103.44 970.57,-93.59 966.01,-84.91"/>
<polygon fill="#63b8ff" stroke="#63b8ff" points="969.18,-83.42 961.43,-76.2 962.98,-86.68 969.18,-83.42"/>
</a>
</g>
</g>
<!-- Node10&#45;&gt;Node13 -->
<g id="edge16_Node000010_Node000013" class="edge">
<title>Node10&#45;&gt;Node13</title>
<g id="a_edge16_Node000010_Node000013"><a xlink:title=" ">
<path fill="none" stroke="#63b8ff" d="M999.95,-110.09C1014.26,-101.98 1035.53,-89.93 1052.25,-80.46"/>
<polygon fill="#63b8ff" stroke="#63b8ff" points="1053.68,-83.67 1060.66,-75.7 1050.23,-77.58 1053.68,-83.67"/>
</a>
</g>
</g>
<!-- Node10&#45;&gt;Node14 -->
<g id="edge17_Node000010_Node000014" class="edge">
<title>Node10&#45;&gt;Node14</title>
<g id="a_edge17_Node000010_Node000014"><a xlink:title=" ">
<path fill="none" stroke="#63b8ff" d="M1020.81,-110.09C1057.21,-101.16 1113.08,-87.45 1152.96,-77.66"/>
<polygon fill="#63b8ff" stroke="#63b8ff" points="1153.66,-81.1 1162.54,-75.31 1151.99,-74.3 1153.66,-81.1"/>
</a>
</g>
</g>
<!-- Node10&#45;&gt;Node15 -->
<g id="edge19_Node000010_Node000015" class="edge">
<title>Node10&#45;&gt;Node15</title>
<g id="a_edge19_Node000010_Node000015"><a xlink:title=" ">
<path fill="none" stroke="#63b8ff" d="M933.62,-117.64C803.65,-113.56 446.46,-100.66 150,-74.5 136.87,-73.34 122.42,-71.63 110.06,-70.04"/>
<polygon fill="#63b8ff" stroke="#63b8ff" points="110.85,-66.62 100.48,-68.77 109.93,-73.55 110.85,-66.62"/>
</a>
</g>
</g>
<!-- Node10&#45;&gt;Node16 -->
<g id="edge20_Node000010_Node000016" class="edge">
<title>Node10&#45;&gt;Node16</title>
<g id="a_edge20_Node000010_Node000016"><a xlink:title=" ">
<path fill="none" stroke="#63b8ff" d="M933.58,-115.79C781.65,-105.76 331.16,-75.99 208.91,-67.92"/>
<polygon fill="#63b8ff" stroke="#63b8ff" points="209.22,-64.43 199.01,-67.26 208.76,-71.41 209.22,-64.43"/>
</a>
</g>
</g>
<!-- Node21&#45;&gt;Node3 -->
<g id="edge28_Node000021_Node000003" class="edge">
<title>Node21&#45;&gt;Node3</title>
<g id="a_edge28_Node000021_Node000003"><a xlink:title=" ">
<path fill="none" stroke="#63b8ff" d="M376.21,-165.27C396.54,-156.46 428.05,-142.58 455,-129.75 472.09,-121.61 474.88,-115.98 493,-110.5 600.98,-77.83 733.27,-68.92 808.07,-66.59"/>
<polygon fill="#63b8ff" stroke="#63b8ff" points="808.16,-70.09 818.06,-66.31 807.97,-63.09 808.16,-70.09"/>
</a>
</g>
</g>
<!-- Node21&#45;&gt;Node15 -->
<g id="edge32_Node000021_Node000015" class="edge">
<title>Node21&#45;&gt;Node15</title>
<g id="a_edge32_Node000021_Node000015"><a xlink:title=" ">
<path fill="none" stroke="#63b8ff" d="M346.83,-165.41C333.57,-151.45 305.94,-124.64 277,-110.5 247.81,-96.24 157.67,-79.24 110.1,-70.94"/>
<polygon fill="#63b8ff" stroke="#63b8ff" points="110.93,-67.53 100.48,-69.28 109.74,-74.43 110.93,-67.53"/>
</a>
</g>
</g>
<!-- Node21&#45;&gt;Node17 -->
<g id="edge29_Node000021_Node000017" class="edge">
<title>Node21&#45;&gt;Node17</title>
<g id="a_edge29_Node000021_Node000017"><a xlink:title=" ">
<path fill="none" stroke="#63b8ff" d="M365.69,-165.34C374.7,-157.72 387.83,-146.62 398.68,-137.45"/>
<polygon fill="#63b8ff" stroke="#63b8ff" points="400.94,-140.13 406.31,-131 396.42,-134.78 400.94,-140.13"/>
</a>
</g>
</g>
<!-- Node21&#45;&gt;Node20 -->
<g id="edge33_Node000021_Node000020" class="edge">
<title>Node21&#45;&gt;Node20</title>
<g id="a_edge33_Node000021_Node000020"><a xlink:title=" ">
<path fill="none" stroke="#63b8ff" d="M334.98,-165.34C316.51,-157 288.79,-144.5 267.55,-134.91"/>
<polygon fill="#63b8ff" stroke="#63b8ff" points="269.05,-131.75 258.49,-130.83 266.17,-138.13 269.05,-131.75"/>
</a>
</g>
</g>
<!-- Node22 -->
<g id="Node000022" class="node">
<title>Node22</title>
<g id="a_Node000022"><a xlink:title=" ">
<polygon fill="#e0e0e0" stroke="#999999" points="372.12,-129.75 323.88,-129.75 323.88,-110.5 372.12,-110.5 372.12,-129.75"/>
<text text-anchor="middle" x="348" y="-116.25" font-family="Helvetica,sans-Serif" font-size="10.00">cstddef</text>
</a>
</g>
</g>
<!-- Node21&#45;&gt;Node22 -->
<g id="edge30_Node000021_Node000022" class="edge">
<title>Node21&#45;&gt;Node22</title>
<g id="a_edge30_Node000021_Node000022"><a xlink:title=" ">
<path fill="none" stroke="#63b8ff" d="M353.84,-165.58C352.98,-158.99 351.76,-149.71 350.66,-141.32"/>
<polygon fill="#63b8ff" stroke="#63b8ff" points="354.15,-141.07 349.38,-131.61 347.21,-141.98 354.15,-141.07"/>
</a>
</g>
</g>
<!-- Node21&#45;&gt;Node23 -->
<g id="edge31_Node000021_Node000023" class="edge">
<title>Node21&#45;&gt;Node23</title>
<g id="a_edge31_Node000021_Node000023"><a xlink:title=" ">
<path fill="none" stroke="#63b8ff" d="M383.84,-165.34C413.54,-156.04 459.79,-141.55 491.19,-131.72"/>
<polygon fill="#63b8ff" stroke="#63b8ff" points="492.09,-135.1 500.58,-128.77 490,-128.42 492.09,-135.1"/>
</a>
</g>
</g>
</g>
</svg>

<g id="navigator" transform="translate(0 0)" fill="#404254">
  <rect fill="#f2f5e9" fill-opacity="0.5" stroke="#606060" stroke-width=".5" x="0" y="0" width="60" height="60"/>
  <use id="zoomplus" xlink:href="#zoomPlus" x="17" y="9" onmousedown="handleZoom(evt,'in')"/>
  <use id="zoomminus" xlink:href="#zoomMin" x="42" y="9" onmousedown="handleZoom(evt,'out')"/>
  <use id="reset" xlink:href="#resetDef" x="30" y="36" onmousedown="handleReset()"/>
   <use id="arrowup" xlink:href="#arrowUp" x="0" y="0" onmousedown="handlePan(0,-1)"/>
  <use id="arrowright" xlink:href="#arrowRight" x="0" y="0" onmousedown="handlePan(1,0)"/>
  <use id="arrowdown" xlink:href="#arrowDown" x="0" y="0" onmousedown="handlePan(0,1)"/>
  <use id="arrowleft" xlink:href="#arrowLeft" x="0" y="0" onmousedown="handlePan(-1,0)"/>
</g>
<svg viewBox="0 0 15 15" width="100%" height="30px" preserveAspectRatio="xMaxYMin meet">
 <g id="arrow_out" transform="scale(0.3 0.3)">
  <a xlink:href="_argument_list_8hpp__incl_org.svg" target="_base">
   <rect id="button" ry="5" rx="5" y="6" x="6" height="38" width="38"
        fill="#f2f5e9" fill-opacity="0.5" stroke="#606060" stroke-width="1.0"/>
   <path id="arrow"
     d="M 11.500037,31.436501 C 11.940474,20.09759 22.043105,11.32322 32.158766,21.979434 L 37.068811,17.246167 C 37.068811,17.246167 37.088388,32 37.088388,32 L 22.160133,31.978069 C 22.160133,31.978069 26.997745,27.140456 26.997745,27.140456 C 18.528582,18.264221 13.291696,25.230495 11.500037,31.436501 z"
     style="fill:#404040;"/>
  </a>
 </g>
</svg>

<style type='text/css'>
<![CDATA[
[data-mouse-over-selected='false'] { opacity: 0.7; }
[data-mouse-over-selected='true']  { opacity: 1.0; }
]]>
</style>
<script type="application/ecmascript"><![CDATA[
document.addEventListener('DOMContentLoaded', (event) => {
  highlightEdges();
  highlightAdjacentNodes();
});
]]></script>
</svg>
