<?xml version="1.0" encoding="UTF-8" standalone="no"?>
<!DOCTYPE svg PUBLIC "-//W3C//DTD SVG 1.1//EN"
 "http://www.w3.org/Graphics/SVG/1.1/DTD/svg11.dtd">
<!-- Generated by graphviz version 9.0.0 (20230911.1827)
 -->
<!-- Title: mimicpp::is_matching Pages: 1 -->
<svg width="261pt" height="230pt"
 viewBox="0.00 0.00 260.50 229.75" xmlns="http://www.w3.org/2000/svg" xmlns:xlink="http://www.w3.org/1999/xlink">
<g id="graph0" class="graph" transform="scale(1 1) rotate(0) translate(4 225.75)">
<title>mimicpp::is_matching</title>
<!-- Node1 -->
<g id="Node000001" class="node">
<title>Node1</title>
<g id="a_Node000001"><a xlink:title=" ">
<polygon fill="#999999" stroke="#666666" points="252.5,-120.5 142.75,-120.5 142.75,-101.25 252.5,-101.25 252.5,-120.5"/>
<text text-anchor="middle" x="197.62" y="-107" font-family="Helvetica,sans-Serif" font-size="10.00">mimicpp::is_matching</text>
</a>
</g>
</g>
<!-- Node2 -->
<g id="Node000002" class="node">
<title>Node2</title>
<g id="a_Node000002"><a xlink:href="../../d4/d44/classmimicpp_1_1expectation__policies_1_1_category.html#a490b2c9683983636afa1793de5f87280" target="_top" xlink:title=" ">
<polygon fill="white" stroke="#666666" points="106.75,-221.75 0,-221.75 0,-180 106.75,-180 106.75,-221.75"/>
<text text-anchor="start" x="8" y="-208.25" font-family="Helvetica,sans-Serif" font-size="10.00">mimicpp::expectation</text>
<text text-anchor="start" x="8" y="-197" font-family="Helvetica,sans-Serif" font-size="10.00">_policies::Category::</text>
<text text-anchor="middle" x="53.38" y="-185.75" font-family="Helvetica,sans-Serif" font-size="10.00">consume</text>
</a>
</g>
</g>
<!-- Node1&#45;&gt;Node2 -->
<g id="edge1_Node000001_Node000002" class="edge">
<title>Node1&#45;&gt;Node2</title>
<g id="a_edge1_Node000001_Node000002"><a xlink:title=" ">
<path fill="none" stroke="#63b8ff" d="M172.8,-127.43C154.85,-139.74 129.52,-156.77 106.75,-170.88 102.12,-173.74 97.21,-176.68 92.32,-179.55"/>
<polygon fill="#63b8ff" stroke="#63b8ff" points="174.7,-130.37 180.95,-121.81 170.73,-124.61 174.7,-130.37"/>
</a>
</g>
</g>
<!-- Node3 -->
<g id="Node000003" class="node">
<title>Node3</title>
<g id="a_Node000003"><a xlink:href="../../db/dbc/classmimicpp_1_1expectation__policies_1_1_constness.html#a3b84699ed642f70444bc66c96d0a2c92" target="_top" xlink:title=" ">
<polygon fill="white" stroke="#666666" points="106.75,-161.75 0,-161.75 0,-120 106.75,-120 106.75,-161.75"/>
<text text-anchor="start" x="8" y="-148.25" font-family="Helvetica,sans-Serif" font-size="10.00">mimicpp::expectation</text>
<text text-anchor="start" x="8" y="-137" font-family="Helvetica,sans-Serif" font-size="10.00">_policies::Constness</text>
<text text-anchor="middle" x="53.38" y="-125.75" font-family="Helvetica,sans-Serif" font-size="10.00">::consume</text>
</a>
</g>
</g>
<!-- Node1&#45;&gt;Node3 -->
<g id="edge2_Node000001_Node000003" class="edge">
<title>Node1&#45;&gt;Node3</title>
<g id="a_edge2_Node000001_Node000003"><a xlink:title=" ">
<path fill="none" stroke="#63b8ff" d="M137.64,-123.32C127.53,-125.45 117.08,-127.65 107.15,-129.75"/>
<polygon fill="#63b8ff" stroke="#63b8ff" points="138.32,-126.75 147.38,-121.26 136.87,-119.9 138.32,-126.75"/>
</a>
</g>
</g>
<!-- Node4 -->
<g id="Node000004" class="node">
<title>Node4</title>
<g id="a_Node000004"><a xlink:href="../../d4/d44/classmimicpp_1_1expectation__policies_1_1_category.html#a7b5f88226667f9ae286b52c12ed388ad" target="_top" xlink:title=" ">
<polygon fill="white" stroke="#666666" points="106.75,-101.75 0,-101.75 0,-60 106.75,-60 106.75,-101.75"/>
<text text-anchor="start" x="8" y="-88.25" font-family="Helvetica,sans-Serif" font-size="10.00">mimicpp::expectation</text>
<text text-anchor="start" x="8" y="-77" font-family="Helvetica,sans-Serif" font-size="10.00">_policies::Category::</text>
<text text-anchor="middle" x="53.38" y="-65.75" font-family="Helvetica,sans-Serif" font-size="10.00">matches</text>
</a>
</g>
</g>
<!-- Node1&#45;&gt;Node4 -->
<g id="edge3_Node000001_Node000004" class="edge">
<title>Node1&#45;&gt;Node4</title>
<g id="a_edge3_Node000001_Node000004"><a xlink:title=" ">
<path fill="none" stroke="#63b8ff" d="M137.64,-98.43C127.53,-96.3 117.08,-94.1 107.15,-92"/>
<polygon fill="#63b8ff" stroke="#63b8ff" points="136.87,-101.85 147.38,-100.49 138.32,-95 136.87,-101.85"/>
</a>
</g>
</g>
<!-- Node5 -->
<g id="Node000005" class="node">
<title>Node5</title>
<g id="a_Node000005"><a xlink:href="../../db/dbc/classmimicpp_1_1expectation__policies_1_1_constness.html#ab23ba2387c648d90e824e3a55e23f764" target="_top" xlink:title=" ">
<polygon fill="white" stroke="#666666" points="106.75,-41.75 0,-41.75 0,0 106.75,0 106.75,-41.75"/>
<text text-anchor="start" x="8" y="-28.25" font-family="Helvetica,sans-Serif" font-size="10.00">mimicpp::expectation</text>
<text text-anchor="start" x="8" y="-17" font-family="Helvetica,sans-Serif" font-size="10.00">_policies::Constness</text>
<text text-anchor="middle" x="53.38" y="-5.75" font-family="Helvetica,sans-Serif" font-size="10.00">::matches</text>
</a>
</g>
</g>
<!-- Node1&#45;&gt;Node5 -->
<g id="edge4_Node000001_Node000005" class="edge">
<title>Node1&#45;&gt;Node5</title>
<g id="a_edge4_Node000001_Node000005"><a xlink:title=" ">
<path fill="none" stroke="#63b8ff" d="M172.8,-94.32C154.85,-82.01 129.52,-64.98 106.75,-50.88 102.12,-48.01 97.21,-45.07 92.32,-42.2"/>
<polygon fill="#63b8ff" stroke="#63b8ff" points="170.73,-97.14 180.95,-99.94 174.7,-91.38 170.73,-97.14"/>
</a>
</g>
</g>
</g>
</svg>
