<?xml version="1.0" encoding="UTF-8" standalone="no"?>
<!DOCTYPE svg PUBLIC "-//W3C//DTD SVG 1.1//EN"
 "http://www.w3.org/Graphics/SVG/1.1/DTD/svg11.dtd">
<!-- Generated by graphviz version 12.2.1 (20241206.2353)
 -->
<!-- Title: mimicpp::Mock&lt; FirstSignature, OtherSignatures &gt; Pages: 1 -->
<svg width="595pt" height="88pt"
 viewBox="0.00 0.00 594.75 87.50" xmlns="http://www.w3.org/2000/svg" xmlns:xlink="http://www.w3.org/1999/xlink">
<g id="graph0" class="graph" transform="scale(1 1) rotate(0) translate(4 83.5)">
<title>mimicpp::Mock&lt; FirstSignature, OtherSignatures &gt;</title>
<!-- Node1 -->
<g id="Node000001" class="node">
<title>Node1</title>
<g id="a_Node000001"><a xlink:title="A Mock type, which fully supports overload sets.">
<polygon fill="#999999" stroke="#666666" points="586.75,-57.5 433.5,-57.5 433.5,-27 586.75,-27 586.75,-57.5"/>
<text text-anchor="start" x="441.5" y="-44" font-family="Helvetica,sans-Serif" font-size="10.00">mimicpp::Mock&lt; FirstSignature,</text>
<text text-anchor="middle" x="510.12" y="-32.75" font-family="Helvetica,sans-Serif" font-size="10.00"> OtherSignatures &gt;</text>
</a>
</g>
</g>
<!-- Node2 -->
<g id="Node000002" class="node">
<title>Node2</title>
<g id="a_Node000002"><a xlink:title=" ">
<polygon fill="white" stroke="#666666" points="396.5,-79.5 262.75,-79.5 262.75,-49 396.5,-49 396.5,-79.5"/>
<text text-anchor="start" x="270.75" y="-66" font-family="Helvetica,sans-Serif" font-size="10.00">mimicpp::detail::BasicMock</text>
<text text-anchor="middle" x="329.62" y="-54.75" font-family="Helvetica,sans-Serif" font-size="10.00">&lt; FirstSignature &gt;</text>
</a>
</g>
</g>
<!-- Node2&#45;&gt;Node1 -->
<g id="edge1_Node000001_Node000002" class="edge">
<title>Node2&#45;&gt;Node1</title>
<g id="a_edge1_Node000001_Node000002"><a xlink:title=" ">
<path fill="none" stroke="#63b8ff" d="M408.05,-54.71C416.35,-53.68 424.8,-52.64 433.08,-51.62"/>
<polygon fill="#63b8ff" stroke="#63b8ff" points="407.84,-51.21 398.34,-55.9 408.69,-58.15 407.84,-51.21"/>
</a>
</g>
</g>
<!-- Node3 -->
<g id="Node000003" class="node">
<title>Node3</title>
<g id="a_Node000003"><a xlink:title=" ">
<polygon fill="white" stroke="#666666" points="133.75,-54.5 0,-54.5 0,-24 133.75,-24 133.75,-54.5"/>
<text text-anchor="start" x="8" y="-41" font-family="Helvetica,sans-Serif" font-size="10.00">mimicpp::detail::BasicMock</text>
<text text-anchor="middle" x="66.88" y="-29.75" font-family="Helvetica,sans-Serif" font-size="10.00">&lt; Signature, ParamList &gt;</text>
</a>
</g>
</g>
<!-- Node3&#45;&gt;Node2 -->
<g id="edge2_Node000002_Node000003" class="edge">
<title>Node3&#45;&gt;Node2</title>
<g id="a_edge2_Node000002_Node000003"><a xlink:title=" ">
<path fill="none" stroke="orange" stroke-dasharray="5,2" d="M145.34,-46.68C182.64,-50.25 226.88,-54.5 262.56,-57.92"/>
<polygon fill="orange" stroke="orange" points="145.81,-43.21 135.52,-45.74 145.14,-50.17 145.81,-43.21"/>
</a>
</g>
<text text-anchor="start" x="159.62" y="-60.91" font-family="Helvetica,sans-Serif" font-size="10.00" fill="grey">&lt; FirstSignature &gt;</text>
</g>
<!-- Node4 -->
<g id="Node000004" class="node">
<title>Node4</title>
<g id="a_Node000004"><a xlink:title=" ">
<polygon fill="white" stroke="#666666" points="396.5,-30.5 262.75,-30.5 262.75,0 396.5,0 396.5,-30.5"/>
<text text-anchor="start" x="270.75" y="-17" font-family="Helvetica,sans-Serif" font-size="10.00">mimicpp::detail::BasicMock</text>
<text text-anchor="middle" x="329.62" y="-5.75" font-family="Helvetica,sans-Serif" font-size="10.00">&lt; OtherSignatures &gt;</text>
</a>
</g>
</g>
<!-- Node3&#45;&gt;Node4 -->
<g id="edge4_Node000004_Node000003" class="edge">
<title>Node3&#45;&gt;Node4</title>
<g id="a_edge4_Node000004_Node000003"><a xlink:title=" ">
<path fill="none" stroke="orange" stroke-dasharray="5,2" d="M145.2,-22.86C147.41,-22.55 149.59,-22.26 151.75,-22 188.21,-17.59 229.17,-15.82 262.49,-15.2"/>
<polygon fill="orange" stroke="orange" points="144.94,-19.36 135.59,-24.35 146.01,-26.28 144.94,-19.36"/>
</a>
</g>
<text text-anchor="start" x="154.75" y="-26.75" font-family="Helvetica,sans-Serif" font-size="10.00" fill="grey">&lt; OtherSignatures &gt;</text>
</g>
<!-- Node4&#45;&gt;Node1 -->
<g id="edge3_Node000001_Node000004" class="edge">
<title>Node4&#45;&gt;Node1</title>
<g id="a_edge3_Node000001_Node000004"><a xlink:title=" ">
<path fill="none" stroke="#63b8ff" d="M408.05,-26.96C416.35,-28.22 424.8,-29.49 433.08,-30.75"/>
<polygon fill="#63b8ff" stroke="#63b8ff" points="408.75,-23.53 398.33,-25.49 407.7,-30.45 408.75,-23.53"/>
</a>
</g>
</g>
</g>
</svg>
