<?xml version="1.0" encoding="UTF-8" standalone="no"?>
<!DOCTYPE svg PUBLIC "-//W3C//DTD SVG 1.1//EN"
 "http://www.w3.org/Graphics/SVG/1.1/DTD/svg11.dtd">
<!-- Generated by graphviz version 12.2.1 (20241206.2353)
 -->
<!-- Title: mimicpp::is_character&lt; T &gt; Pages: 1 -->
<svg width="485pt" height="333pt"
 viewBox="0.00 0.00 485.25 332.50" xmlns="http://www.w3.org/2000/svg" xmlns:xlink="http://www.w3.org/1999/xlink">
<g id="graph0" class="graph" transform="scale(1 1) rotate(0) translate(4 328.5)">
<title>mimicpp::is_character&lt; T &gt;</title>
<!-- Node1 -->
<g id="Node000001" class="node">
<title>Node1</title>
<g id="a_Node000001"><a xlink:title="Primary template, which always yields false.">
<polygon fill="#999999" stroke="#666666" points="248.25,-171.88 115.25,-171.88 115.25,-152.62 248.25,-152.62 248.25,-171.88"/>
<text text-anchor="middle" x="181.75" y="-158.38" font-family="Helvetica,sans-Serif" font-size="10.00">mimicpp::is_character&lt; T &gt;</text>
</a>
</g>
</g>
<!-- Node3 -->
<g id="Node000003" class="node">
<title>Node3</title>
<g id="a_Node000003"><a xlink:href="../../d2/dad/structmimicpp_1_1is__character_3_01char_01_4.html" target="_top" xlink:title="Specialization for char.">
<polygon fill="white" stroke="#666666" points="477.25,-324.5 366.75,-324.5 366.75,-294 477.25,-294 477.25,-324.5"/>
<text text-anchor="start" x="374.75" y="-311" font-family="Helvetica,sans-Serif" font-size="10.00">mimicpp::is_character</text>
<text text-anchor="middle" x="422" y="-299.75" font-family="Helvetica,sans-Serif" font-size="10.00">&lt; char &gt;</text>
</a>
</g>
</g>
<!-- Node1&#45;&gt;Node3 -->
<g id="edge2_Node000001_Node000003" class="edge">
<title>Node1&#45;&gt;Node3</title>
<g id="a_edge2_Node000001_Node000003"><a xlink:title=" ">
<path fill="none" stroke="orange" stroke-dasharray="5,2" d="M193.01,-181.98C206.55,-206.02 232.63,-246.16 266.25,-268.25 296.1,-287.86 334.97,-298.11 366.29,-303.46"/>
<polygon fill="orange" stroke="orange" points="196.27,-180.63 188.42,-173.52 190.12,-183.97 196.27,-180.63"/>
</a>
</g>
<text text-anchor="start" x="289.88" y="-304.31" font-family="Helvetica,sans-Serif" font-size="10.00" fill="grey">&lt; char &gt;</text>
</g>
<!-- Node4 -->
<g id="Node000004" class="node">
<title>Node4</title>
<g id="a_Node000004"><a xlink:href="../../dc/d7a/structmimicpp_1_1is__character_3_01char16__t_01_4.html" target="_top" xlink:title="Specialization for char16_t.">
<polygon fill="white" stroke="#666666" points="477.25,-275.5 366.75,-275.5 366.75,-245 477.25,-245 477.25,-275.5"/>
<text text-anchor="start" x="374.75" y="-262" font-family="Helvetica,sans-Serif" font-size="10.00">mimicpp::is_character</text>
<text text-anchor="middle" x="422" y="-250.75" font-family="Helvetica,sans-Serif" font-size="10.00">&lt; char16_t &gt;</text>
</a>
</g>
</g>
<!-- Node1&#45;&gt;Node4 -->
<g id="edge3_Node000001_Node000004" class="edge">
<title>Node1&#45;&gt;Node4</title>
<g id="a_edge3_Node000001_Node000004"><a xlink:title=" ">
<path fill="none" stroke="orange" stroke-dasharray="5,2" d="M202.96,-179.37C219.14,-192.28 242.91,-209.55 266.25,-220.25 298.03,-234.83 336.02,-244.74 366.4,-251.06"/>
<polygon fill="orange" stroke="orange" points="205.5,-176.92 195.54,-173.31 201.07,-182.34 205.5,-176.92"/>
</a>
</g>
<text text-anchor="start" x="280.5" y="-251.87" font-family="Helvetica,sans-Serif" font-size="10.00" fill="grey">&lt; char16_t &gt;</text>
</g>
<!-- Node5 -->
<g id="Node000005" class="node">
<title>Node5</title>
<g id="a_Node000005"><a xlink:href="../../d4/df1/structmimicpp_1_1is__character_3_01char32__t_01_4.html" target="_top" xlink:title="Specialization for char32_t.">
<polygon fill="white" stroke="#666666" points="477.25,-226.5 366.75,-226.5 366.75,-196 477.25,-196 477.25,-226.5"/>
<text text-anchor="start" x="374.75" y="-213" font-family="Helvetica,sans-Serif" font-size="10.00">mimicpp::is_character</text>
<text text-anchor="middle" x="422" y="-201.75" font-family="Helvetica,sans-Serif" font-size="10.00">&lt; char32_t &gt;</text>
</a>
</g>
</g>
<!-- Node1&#45;&gt;Node5 -->
<g id="edge4_Node000001_Node000005" class="edge">
<title>Node1&#45;&gt;Node5</title>
<g id="a_edge4_Node000001_Node000005"><a xlink:title=" ">
<path fill="none" stroke="orange" stroke-dasharray="5,2" d="M231.52,-175.1C242.88,-177.93 254.96,-180.81 266.25,-183.25 299.34,-190.4 336.68,-197.19 366.39,-202.29"/>
<polygon fill="orange" stroke="orange" points="232.47,-171.73 221.92,-172.68 230.75,-178.52 232.47,-171.73"/>
</a>
</g>
<text text-anchor="start" x="280.5" y="-203.52" font-family="Helvetica,sans-Serif" font-size="10.00" fill="grey">&lt; char32_t &gt;</text>
</g>
<!-- Node6 -->
<g id="Node000006" class="node">
<title>Node6</title>
<g id="a_Node000006"><a xlink:href="../../d6/da5/structmimicpp_1_1is__character_3_01char8__t_01_4.html" target="_top" xlink:title="Specialization for char8_t.">
<polygon fill="white" stroke="#666666" points="477.25,-177.5 366.75,-177.5 366.75,-147 477.25,-147 477.25,-177.5"/>
<text text-anchor="start" x="374.75" y="-164" font-family="Helvetica,sans-Serif" font-size="10.00">mimicpp::is_character</text>
<text text-anchor="middle" x="422" y="-152.75" font-family="Helvetica,sans-Serif" font-size="10.00">&lt; char8_t &gt;</text>
</a>
</g>
</g>
<!-- Node1&#45;&gt;Node6 -->
<g id="edge5_Node000001_Node000006" class="edge">
<title>Node1&#45;&gt;Node6</title>
<g id="a_edge5_Node000001_Node000006"><a xlink:title=" ">
<path fill="none" stroke="orange" stroke-dasharray="5,2" d="M259.57,-162.25C294.37,-162.25 334.7,-162.25 366.34,-162.25"/>
<polygon fill="orange" stroke="orange" points="260,-158.75 250,-162.25 260,-165.75 260,-158.75"/>
</a>
</g>
<text text-anchor="start" x="283.12" y="-167" font-family="Helvetica,sans-Serif" font-size="10.00" fill="grey">&lt; char8_t &gt;</text>
</g>
<!-- Node7 -->
<g id="Node000007" class="node">
<title>Node7</title>
<g id="a_Node000007"><a xlink:href="../../de/da5/structmimicpp_1_1is__character_3_01signed_01char_01_4.html" target="_top" xlink:title="Specialization for signed char.">
<polygon fill="white" stroke="#666666" points="477.25,-128.5 366.75,-128.5 366.75,-98 477.25,-98 477.25,-128.5"/>
<text text-anchor="start" x="374.75" y="-115" font-family="Helvetica,sans-Serif" font-size="10.00">mimicpp::is_character</text>
<text text-anchor="middle" x="422" y="-103.75" font-family="Helvetica,sans-Serif" font-size="10.00">&lt; signed char &gt;</text>
</a>
</g>
</g>
<!-- Node1&#45;&gt;Node7 -->
<g id="edge6_Node000001_Node000007" class="edge">
<title>Node1&#45;&gt;Node7</title>
<g id="a_edge6_Node000001_Node000007"><a xlink:title=" ">
<path fill="none" stroke="orange" stroke-dasharray="5,2" d="M230.82,-149.39C242.39,-146.47 254.73,-143.5 266.25,-141 299.33,-133.83 336.67,-127.1 366.38,-122.06"/>
<polygon fill="orange" stroke="orange" points="230.31,-145.91 221.49,-151.78 232.05,-152.69 230.31,-145.91"/>
</a>
</g>
<text text-anchor="start" x="274.5" y="-145.75" font-family="Helvetica,sans-Serif" font-size="10.00" fill="grey">&lt; signed char &gt;</text>
</g>
<!-- Node8 -->
<g id="Node000008" class="node">
<title>Node8</title>
<g id="a_Node000008"><a xlink:href="../../d8/d39/structmimicpp_1_1is__character_3_01unsigned_01char_01_4.html" target="_top" xlink:title="Specialization for unsigned char.">
<polygon fill="white" stroke="#666666" points="477.25,-79.5 366.75,-79.5 366.75,-49 477.25,-49 477.25,-79.5"/>
<text text-anchor="start" x="374.75" y="-66" font-family="Helvetica,sans-Serif" font-size="10.00">mimicpp::is_character</text>
<text text-anchor="middle" x="422" y="-54.75" font-family="Helvetica,sans-Serif" font-size="10.00">&lt; unsigned char &gt;</text>
</a>
</g>
</g>
<!-- Node1&#45;&gt;Node8 -->
<g id="edge7_Node000001_Node000008" class="edge">
<title>Node1&#45;&gt;Node8</title>
<g id="a_edge7_Node000001_Node000008"><a xlink:title=" ">
<path fill="none" stroke="orange" stroke-dasharray="5,2" d="M202.66,-145.27C218.84,-132.27 242.75,-114.79 266.25,-104 298.01,-89.42 336,-79.56 366.39,-73.31"/>
<polygon fill="orange" stroke="orange" points="200.76,-142.3 195.26,-151.36 205.21,-147.71 200.76,-142.3"/>
</a>
</g>
<text text-anchor="start" x="269.25" y="-108.75" font-family="Helvetica,sans-Serif" font-size="10.00" fill="grey">&lt; unsigned char &gt;</text>
</g>
<!-- Node9 -->
<g id="Node000009" class="node">
<title>Node9</title>
<g id="a_Node000009"><a xlink:href="../../df/d35/structmimicpp_1_1is__character_3_01wchar__t_01_4.html" target="_top" xlink:title="Specialization for wchar_t.">
<polygon fill="white" stroke="#666666" points="477.25,-30.5 366.75,-30.5 366.75,0 477.25,0 477.25,-30.5"/>
<text text-anchor="start" x="374.75" y="-17" font-family="Helvetica,sans-Serif" font-size="10.00">mimicpp::is_character</text>
<text text-anchor="middle" x="422" y="-5.75" font-family="Helvetica,sans-Serif" font-size="10.00">&lt; wchar_t &gt;</text>
</a>
</g>
</g>
<!-- Node1&#45;&gt;Node9 -->
<g id="edge8_Node000001_Node000009" class="edge">
<title>Node1&#45;&gt;Node9</title>
<g id="a_edge8_Node000001_Node000009"><a xlink:title=" ">
<path fill="none" stroke="orange" stroke-dasharray="5,2" d="M193,-142.47C206.51,-118.36 232.58,-78.11 266.25,-56 296.09,-36.4 334.96,-26.21 366.28,-20.92"/>
<polygon fill="orange" stroke="orange" points="190.09,-140.49 188.41,-150.96 196.24,-143.82 190.09,-140.49"/>
</a>
</g>
<text text-anchor="start" x="282" y="-60.75" font-family="Helvetica,sans-Serif" font-size="10.00" fill="grey">&lt; wchar_t &gt;</text>
</g>
<!-- Node2 -->
<g id="Node000002" class="node">
<title>Node2</title>
<g id="a_Node000002"><a xlink:title=" ">
<polygon fill="white" stroke="#666666" points="78.25,-171.88 0,-171.88 0,-152.62 78.25,-152.62 78.25,-171.88"/>
<text text-anchor="middle" x="39.12" y="-158.38" font-family="Helvetica,sans-Serif" font-size="10.00">std::false_type</text>
</a>
</g>
</g>
<!-- Node2&#45;&gt;Node1 -->
<g id="edge1_Node000001_Node000002" class="edge">
<title>Node2&#45;&gt;Node1</title>
<g id="a_edge1_Node000001_Node000002"><a xlink:title=" ">
<path fill="none" stroke="#63b8ff" d="M89.99,-162.25C98.02,-162.25 106.44,-162.25 114.79,-162.25"/>
<polygon fill="#63b8ff" stroke="#63b8ff" points="90.06,-158.75 80.06,-162.25 90.06,-165.75 90.06,-158.75"/>
</a>
</g>
</g>
</g>
</svg>
