<?xml version="1.0" encoding="UTF-8" standalone="no"?>
<!DOCTYPE svg PUBLIC "-//W3C//DTD SVG 1.1//EN"
 "http://www.w3.org/Graphics/SVG/1.1/DTD/svg11.dtd">
<!-- Generated by graphviz version 12.2.1 (20241206.2353)
 -->
<!-- Title: mimic++/matchers/FloatingPointMatchers.hpp Pages: 1 -->
<svg width="1564pt" height="437pt"
 viewBox="0.00 0.00 1564.00 436.50" xmlns="http://www.w3.org/2000/svg" xmlns:xlink="http://www.w3.org/1999/xlink">
<g id="graph0" class="graph" transform="scale(1 1) rotate(0) translate(4 432.5)">
<title>mimic++/matchers/FloatingPointMatchers.hpp</title>
<!-- Node1 -->
<g id="Node000001" class="node">
<title>Node1</title>
<g id="a_Node000001"><a xlink:title=" ">
<polygon fill="#999999" stroke="#666666" points="1373.62,-428.5 1238.38,-428.5 1238.38,-398 1373.62,-398 1373.62,-428.5"/>
<text text-anchor="start" x="1246.38" y="-415" font-family="Helvetica,sans-Serif" font-size="10.00">mimic++/matchers/Floating</text>
<text text-anchor="middle" x="1306" y="-403.75" font-family="Helvetica,sans-Serif" font-size="10.00">PointMatchers.hpp</text>
</a>
</g>
</g>
<!-- Node2 -->
<g id="Node000002" class="node">
<title>Node2</title>
<g id="a_Node000002"><a xlink:href="../../df/dde/_fwd_8hpp.html" target="_top" xlink:title=" ">
<polygon fill="white" stroke="#666666" points="380,-74.5 286,-74.5 286,-55.25 380,-55.25 380,-74.5"/>
<text text-anchor="middle" x="333" y="-61" font-family="Helvetica,sans-Serif" font-size="10.00">mimic++/Fwd.hpp</text>
</a>
</g>
</g>
<!-- Node1&#45;&gt;Node2 -->
<g id="edge1_Node000001_Node000002" class="edge">
<title>Node1&#45;&gt;Node2</title>
<g id="a_edge1_Node000001_Node000002"><a xlink:title=" ">
<path fill="none" stroke="#63b8ff" d="M1238.08,-412.93C970,-414.72 0,-412.51 0,-286.88 0,-286.88 0,-286.88 0,-174.38 0,-117.33 178.87,-85.62 274.42,-72.75"/>
<polygon fill="#63b8ff" stroke="#63b8ff" points="274.68,-76.25 284.14,-71.47 273.77,-69.31 274.68,-76.25"/>
</a>
</g>
</g>
<!-- Node6 -->
<g id="Node000006" class="node">
<title>Node6</title>
<g id="a_Node000006"><a xlink:href="../../d9/dd5/_general_matchers_8hpp.html" target="_top" xlink:title=" ">
<polygon fill="white" stroke="#666666" points="723.25,-362 588.75,-362 588.75,-331.5 723.25,-331.5 723.25,-362"/>
<text text-anchor="start" x="596.75" y="-348.5" font-family="Helvetica,sans-Serif" font-size="10.00">mimic++/matchers/General</text>
<text text-anchor="middle" x="656" y="-337.25" font-family="Helvetica,sans-Serif" font-size="10.00">Matchers.hpp</text>
</a>
</g>
</g>
<!-- Node1&#45;&gt;Node6 -->
<g id="edge5_Node000001_Node000006" class="edge">
<title>Node1&#45;&gt;Node6</title>
<g id="a_edge5_Node000001_Node000006"><a xlink:title=" ">
<path fill="none" stroke="#63b8ff" d="M1237.97,-405.5C1116.62,-393.46 863.51,-368.34 734.8,-355.57"/>
<polygon fill="#63b8ff" stroke="#63b8ff" points="735.3,-352.1 725,-354.6 734.61,-359.07 735.3,-352.1"/>
</a>
</g>
</g>
<!-- Node15 -->
<g id="Node000015" class="node">
<title>Node15</title>
<g id="a_Node000015"><a xlink:title=" ">
<polygon fill="#e0e0e0" stroke="#999999" points="1132.5,-74.5 1095.5,-74.5 1095.5,-55.25 1132.5,-55.25 1132.5,-74.5"/>
<text text-anchor="middle" x="1114" y="-61" font-family="Helvetica,sans-Serif" font-size="10.00">tuple</text>
</a>
</g>
</g>
<!-- Node1&#45;&gt;Node15 -->
<g id="edge59_Node000001_Node000015" class="edge">
<title>Node1&#45;&gt;Node15</title>
<g id="a_edge59_Node000001_Node000015"><a xlink:title=" ">
<path fill="none" stroke="#63b8ff" d="M1300.6,-397.81C1292.46,-374.73 1278,-327.91 1278,-286.88 1278,-286.88 1278,-286.88 1278,-174.38 1278,-110.8 1191.22,-82.31 1143.91,-71.49"/>
<polygon fill="#63b8ff" stroke="#63b8ff" points="1144.8,-68.11 1134.29,-69.43 1143.34,-74.95 1144.8,-68.11"/>
</a>
</g>
</g>
<!-- Node17 -->
<g id="Node000017" class="node">
<title>Node17</title>
<g id="a_Node000017"><a xlink:title=" ">
<polygon fill="#e0e0e0" stroke="#999999" points="1135.88,-129.75 1080.12,-129.75 1080.12,-110.5 1135.88,-110.5 1135.88,-129.75"/>
<text text-anchor="middle" x="1108" y="-116.25" font-family="Helvetica,sans-Serif" font-size="10.00">concepts</text>
</a>
</g>
</g>
<!-- Node1&#45;&gt;Node17 -->
<g id="edge56_Node000001_Node000017" class="edge">
<title>Node1&#45;&gt;Node17</title>
<g id="a_edge56_Node000001_Node000017"><a xlink:title=" ">
<path fill="none" stroke="#63b8ff" d="M1291.07,-397.56C1282.17,-388.1 1271.23,-375.15 1264,-362 1247.11,-331.29 1240,-321.93 1240,-286.88 1240,-286.88 1240,-286.88 1240,-229.62 1240,-180.95 1185.78,-150.1 1146.84,-134.22"/>
<polygon fill="#63b8ff" stroke="#63b8ff" points="1148.32,-131.04 1137.73,-130.68 1145.78,-137.57 1148.32,-131.04"/>
</a>
</g>
</g>
<!-- Node27 -->
<g id="Node000027" class="node">
<title>Node27</title>
<g id="a_Node000027"><a xlink:title=" ">
<polygon fill="#e0e0e0" stroke="#999999" points="1361.88,-356.38 1306.12,-356.38 1306.12,-337.12 1361.88,-337.12 1361.88,-356.38"/>
<text text-anchor="middle" x="1334" y="-342.88" font-family="Helvetica,sans-Serif" font-size="10.00">algorithm</text>
</a>
</g>
</g>
<!-- Node1&#45;&gt;Node27 -->
<g id="edge54_Node000001_Node000027" class="edge">
<title>Node1&#45;&gt;Node27</title>
<g id="a_edge54_Node000001_Node000027"><a xlink:title=" ">
<path fill="none" stroke="#63b8ff" d="M1312.35,-397.61C1316.3,-388.53 1321.41,-376.76 1325.67,-366.93"/>
<polygon fill="#63b8ff" stroke="#63b8ff" points="1328.8,-368.53 1329.57,-357.96 1322.37,-365.74 1328.8,-368.53"/>
</a>
</g>
</g>
<!-- Node28 -->
<g id="Node000028" class="node">
<title>Node28</title>
<g id="a_Node000028"><a xlink:title=" ">
<polygon fill="#e0e0e0" stroke="#999999" points="1422.5,-356.38 1379.5,-356.38 1379.5,-337.12 1422.5,-337.12 1422.5,-356.38"/>
<text text-anchor="middle" x="1401" y="-342.88" font-family="Helvetica,sans-Serif" font-size="10.00">cmath</text>
</a>
</g>
</g>
<!-- Node1&#45;&gt;Node28 -->
<g id="edge55_Node000001_Node000028" class="edge">
<title>Node1&#45;&gt;Node28</title>
<g id="a_edge55_Node000001_Node000028"><a xlink:title=" ">
<path fill="none" stroke="#63b8ff" d="M1327.56,-397.61C1342.74,-387.31 1363.01,-373.54 1378.41,-363.08"/>
<polygon fill="#63b8ff" stroke="#63b8ff" points="1380.17,-366.12 1386.48,-357.61 1376.24,-360.33 1380.17,-366.12"/>
</a>
</g>
</g>
<!-- Node29 -->
<g id="Node000029" class="node">
<title>Node29</title>
<g id="a_Node000029"><a xlink:title=" ">
<polygon fill="#e0e0e0" stroke="#999999" points="1479.62,-356.38 1440.38,-356.38 1440.38,-337.12 1479.62,-337.12 1479.62,-356.38"/>
<text text-anchor="middle" x="1460" y="-342.88" font-family="Helvetica,sans-Serif" font-size="10.00">limits</text>
</a>
</g>
</g>
<!-- Node1&#45;&gt;Node29 -->
<g id="edge57_Node000001_Node000029" class="edge">
<title>Node1&#45;&gt;Node29</title>
<g id="a_edge57_Node000001_Node000029"><a xlink:title=" ">
<path fill="none" stroke="#63b8ff" d="M1345.55,-397.54C1370.57,-387.98 1403.47,-374.92 1432,-362 1432.22,-361.9 1432.45,-361.8 1432.67,-361.69"/>
<polygon fill="#63b8ff" stroke="#63b8ff" points="1434.09,-364.9 1441.58,-357.4 1431.05,-358.59 1434.09,-364.9"/>
</a>
</g>
</g>
<!-- Node30 -->
<g id="Node000030" class="node">
<title>Node30</title>
<g id="a_Node000030"><a xlink:title=" ">
<polygon fill="#e0e0e0" stroke="#999999" points="1556,-356.38 1498,-356.38 1498,-337.12 1556,-337.12 1556,-356.38"/>
<text text-anchor="middle" x="1527" y="-342.88" font-family="Helvetica,sans-Serif" font-size="10.00">stdexcept</text>
</a>
</g>
</g>
<!-- Node1&#45;&gt;Node30 -->
<g id="edge58_Node000001_Node000030" class="edge">
<title>Node1&#45;&gt;Node30</title>
<g id="a_edge58_Node000001_Node000030"><a xlink:title=" ">
<path fill="none" stroke="#63b8ff" d="M1364.92,-397.52C1400.98,-388.15 1447.94,-375.31 1489,-362 1490.36,-361.56 1491.74,-361.1 1493.13,-360.63"/>
<polygon fill="#63b8ff" stroke="#63b8ff" points="1494.13,-363.99 1502.38,-357.34 1491.79,-357.39 1494.13,-363.99"/>
</a>
</g>
</g>
<!-- Node3 -->
<g id="Node000003" class="node">
<title>Node3</title>
<g id="a_Node000003"><a xlink:title=" ">
<polygon fill="#e0e0e0" stroke="#999999" points="384,-19.25 344,-19.25 344,0 384,0 384,-19.25"/>
<text text-anchor="middle" x="364" y="-5.75" font-family="Helvetica,sans-Serif" font-size="10.00">string</text>
</a>
</g>
</g>
<!-- Node2&#45;&gt;Node3 -->
<g id="edge2_Node000002_Node000003" class="edge">
<title>Node2&#45;&gt;Node3</title>
<g id="a_edge2_Node000002_Node000003"><a xlink:title=" ">
<path fill="none" stroke="#63b8ff" d="M338.12,-55.08C342.18,-48.11 347.99,-38.12 353.09,-29.37"/>
<polygon fill="#63b8ff" stroke="#63b8ff" points="356,-31.32 358.01,-20.92 349.95,-27.8 356,-31.32"/>
</a>
</g>
</g>
<!-- Node4 -->
<g id="Node000004" class="node">
<title>Node4</title>
<g id="a_Node000004"><a xlink:title=" ">
<polygon fill="#e0e0e0" stroke="#999999" points="573.75,-19.25 508.25,-19.25 508.25,0 573.75,0 573.75,-19.25"/>
<text text-anchor="middle" x="541" y="-5.75" font-family="Helvetica,sans-Serif" font-size="10.00">string_view</text>
</a>
</g>
</g>
<!-- Node2&#45;&gt;Node4 -->
<g id="edge3_Node000002_Node000004" class="edge">
<title>Node2&#45;&gt;Node4</title>
<g id="a_edge3_Node000002_Node000004"><a xlink:title=" ">
<path fill="none" stroke="#63b8ff" d="M368.28,-54.84C403.84,-45.74 458.78,-31.68 497.12,-21.86"/>
<polygon fill="#63b8ff" stroke="#63b8ff" points="497.66,-25.33 506.48,-19.46 495.93,-18.55 497.66,-25.33"/>
</a>
</g>
</g>
<!-- Node5 -->
<g id="Node000005" class="node">
<title>Node5</title>
<g id="a_Node000005"><a xlink:title=" ">
<polygon fill="#e0e0e0" stroke="#999999" points="325.75,-19.25 278.25,-19.25 278.25,0 325.75,0 325.75,-19.25"/>
<text text-anchor="middle" x="302" y="-5.75" font-family="Helvetica,sans-Serif" font-size="10.00">version</text>
</a>
</g>
</g>
<!-- Node2&#45;&gt;Node5 -->
<g id="edge4_Node000002_Node000005" class="edge">
<title>Node2&#45;&gt;Node5</title>
<g id="a_edge4_Node000002_Node000005"><a xlink:title=" ">
<path fill="none" stroke="#63b8ff" d="M327.88,-55.08C323.82,-48.11 318.01,-38.12 312.91,-29.37"/>
<polygon fill="#63b8ff" stroke="#63b8ff" points="316.05,-27.8 307.99,-20.92 310,-31.32 316.05,-27.8"/>
</a>
</g>
</g>
<!-- Node6&#45;&gt;Node2 -->
<g id="edge6_Node000006_Node000002" class="edge">
<title>Node6&#45;&gt;Node2</title>
<g id="a_edge6_Node000006_Node000002"><a xlink:title=" ">
<path fill="none" stroke="#63b8ff" d="M588.34,-344.88C463.61,-338.98 204.45,-305.31 142,-129.75 139.13,-121.69 136.68,-117.2 142,-110.5 158.35,-89.9 224.5,-77.91 274.41,-71.64"/>
<polygon fill="#63b8ff" stroke="#63b8ff" points="274.73,-75.13 284.25,-70.46 273.9,-68.18 274.73,-75.13"/>
</a>
</g>
</g>
<!-- Node7 -->
<g id="Node000007" class="node">
<title>Node7</title>
<g id="a_Node000007"><a xlink:href="../../d3/d58/_common_8hpp.html" target="_top" xlink:title=" ">
<polygon fill="white" stroke="#666666" points="734.88,-295.5 577.12,-295.5 577.12,-276.25 734.88,-276.25 734.88,-295.5"/>
<text text-anchor="middle" x="656" y="-282" font-family="Helvetica,sans-Serif" font-size="10.00">mimic++/matchers/Common.hpp</text>
</a>
</g>
</g>
<!-- Node6&#45;&gt;Node7 -->
<g id="edge7_Node000006_Node000007" class="edge">
<title>Node6&#45;&gt;Node7</title>
<g id="a_edge7_Node000006_Node000007"><a xlink:title=" ">
<path fill="none" stroke="#63b8ff" d="M656,-331.2C656,-323.96 656,-315.09 656,-307.19"/>
<polygon fill="#63b8ff" stroke="#63b8ff" points="659.5,-307.46 656,-297.46 652.5,-307.46 659.5,-307.46"/>
</a>
</g>
</g>
<!-- Node6&#45;&gt;Node15 -->
<g id="edge51_Node000006_Node000015" class="edge">
<title>Node6&#45;&gt;Node15</title>
<g id="a_edge51_Node000006_Node000015"><a xlink:title=" ">
<path fill="none" stroke="#63b8ff" d="M723.5,-345.65C869.58,-343.61 1202,-328.34 1202,-231.62 1202,-231.62 1202,-231.62 1202,-174.38 1202,-133.73 1164.29,-99.8 1138.24,-81.22"/>
<polygon fill="#63b8ff" stroke="#63b8ff" points="1140.41,-78.46 1130.18,-75.71 1136.46,-84.24 1140.41,-78.46"/>
</a>
</g>
</g>
<!-- Node16 -->
<g id="Node000016" class="node">
<title>Node16</title>
<g id="a_Node000016"><a xlink:title=" ">
<polygon fill="#e0e0e0" stroke="#999999" points="978.25,-74.5 939.75,-74.5 939.75,-55.25 978.25,-55.25 978.25,-74.5"/>
<text text-anchor="middle" x="959" y="-61" font-family="Helvetica,sans-Serif" font-size="10.00">utility</text>
</a>
</g>
</g>
<!-- Node6&#45;&gt;Node16 -->
<g id="edge53_Node000006_Node000016" class="edge">
<title>Node6&#45;&gt;Node16</title>
<g id="a_edge53_Node000006_Node000016"><a xlink:title=" ">
<path fill="none" stroke="#63b8ff" d="M723.72,-344.57C862.03,-340.32 1164,-320.83 1164,-231.62 1164,-231.62 1164,-231.62 1164,-174.38 1164,-144.76 1166.5,-130.87 1145,-110.5 1122.88,-89.54 1036.88,-75.7 989.96,-69.54"/>
<polygon fill="#63b8ff" stroke="#63b8ff" points="990.53,-66.08 980.17,-68.3 989.65,-73.03 990.53,-66.08"/>
</a>
</g>
</g>
<!-- Node18 -->
<g id="Node000018" class="node">
<title>Node18</title>
<g id="a_Node000018"><a xlink:title=" ">
<polygon fill="#e0e0e0" stroke="#999999" points="408,-129.75 350,-129.75 350,-110.5 408,-110.5 408,-129.75"/>
<text text-anchor="middle" x="379" y="-116.25" font-family="Helvetica,sans-Serif" font-size="10.00">functional</text>
</a>
</g>
</g>
<!-- Node6&#45;&gt;Node18 -->
<g id="edge50_Node000006_Node000018" class="edge">
<title>Node6&#45;&gt;Node18</title>
<g id="a_edge50_Node000006_Node000018"><a xlink:title=" ">
<path fill="none" stroke="#63b8ff" d="M588.33,-338.5C501.03,-325.1 352.42,-287.69 285,-185 268.22,-159.44 306.21,-141.42 338.8,-131.17"/>
<polygon fill="#63b8ff" stroke="#63b8ff" points="339.51,-134.61 348.11,-128.43 337.53,-127.9 339.51,-134.61"/>
</a>
</g>
</g>
<!-- Node20 -->
<g id="Node000020" class="node">
<title>Node20</title>
<g id="a_Node000020"><a xlink:title=" ">
<polygon fill="#e0e0e0" stroke="#999999" points="220.5,-129.75 159.5,-129.75 159.5,-110.5 220.5,-110.5 220.5,-129.75"/>
<text text-anchor="middle" x="190" y="-116.25" font-family="Helvetica,sans-Serif" font-size="10.00">type_traits</text>
</a>
</g>
</g>
<!-- Node6&#45;&gt;Node20 -->
<g id="edge52_Node000006_Node000020" class="edge">
<title>Node6&#45;&gt;Node20</title>
<g id="a_edge52_Node000006_Node000020"><a xlink:title=" ">
<path fill="none" stroke="#63b8ff" d="M588.32,-341.29C532.86,-335.71 453.31,-323.25 389,-295.5 312.31,-262.41 296.23,-243.89 237,-185 223.13,-171.21 210.19,-153.06 201.41,-139.63"/>
<polygon fill="#63b8ff" stroke="#63b8ff" points="204.45,-137.89 196.13,-131.33 198.54,-141.65 204.45,-137.89"/>
</a>
</g>
</g>
<!-- Node7&#45;&gt;Node2 -->
<g id="edge8_Node000007_Node000002" class="edge">
<title>Node7&#45;&gt;Node2</title>
<g id="a_edge8_Node000007_Node000002"><a xlink:title=" ">
<path fill="none" stroke="#63b8ff" d="M576.81,-278.72C516.69,-272.66 432.46,-261.16 361,-240.25 303.09,-223.31 290.09,-213.67 237,-185 197.02,-163.42 172.78,-169.62 151,-129.75 123.95,-80.23 211.37,-68.22 274.28,-65.8"/>
<polygon fill="#63b8ff" stroke="#63b8ff" points="274.31,-69.31 284.2,-65.5 274.1,-62.31 274.31,-69.31"/>
</a>
</g>
</g>
<!-- Node8 -->
<g id="Node000008" class="node">
<title>Node8</title>
<g id="a_Node000008"><a xlink:href="../../da/dab/_printer_8hpp.html" target="_top" xlink:title=" ">
<polygon fill="white" stroke="#666666" points="707.88,-240.25 604.12,-240.25 604.12,-221 707.88,-221 707.88,-240.25"/>
<text text-anchor="middle" x="656" y="-226.75" font-family="Helvetica,sans-Serif" font-size="10.00">mimic++/Printer.hpp</text>
</a>
</g>
</g>
<!-- Node7&#45;&gt;Node8 -->
<g id="edge9_Node000007_Node000008" class="edge">
<title>Node7&#45;&gt;Node8</title>
<g id="a_edge9_Node000007_Node000008"><a xlink:title=" ">
<path fill="none" stroke="#63b8ff" d="M656,-276.08C656,-269.57 656,-260.42 656,-252.12"/>
<polygon fill="#63b8ff" stroke="#63b8ff" points="659.5,-252.12 656,-242.12 652.5,-252.12 659.5,-252.12"/>
</a>
</g>
</g>
<!-- Node10 -->
<g id="Node000010" class="node">
<title>Node10</title>
<g id="a_Node000010"><a xlink:href="../../d4/d2c/_utility_8hpp.html" target="_top" xlink:title=" ">
<polygon fill="white" stroke="#666666" points="780,-129.75 680,-129.75 680,-110.5 780,-110.5 780,-129.75"/>
<text text-anchor="middle" x="730" y="-116.25" font-family="Helvetica,sans-Serif" font-size="10.00">mimic++/Utility.hpp</text>
</a>
</g>
</g>
<!-- Node7&#45;&gt;Node10 -->
<g id="edge47_Node000007_Node000010" class="edge">
<title>Node7&#45;&gt;Node10</title>
<g id="a_edge47_Node000007_Node000010"><a xlink:title=" ">
<path fill="none" stroke="#63b8ff" d="M675.35,-275.76C689.18,-268.22 707.05,-256.16 717,-240.25 735.98,-209.91 735.32,-166.56 732.85,-141.38"/>
<polygon fill="#63b8ff" stroke="#63b8ff" points="736.34,-141.05 731.67,-131.54 729.39,-141.88 736.34,-141.05"/>
</a>
</g>
</g>
<!-- Node7&#45;&gt;Node17 -->
<g id="edge48_Node000007_Node000017" class="edge">
<title>Node7&#45;&gt;Node17</title>
<g id="a_edge48_Node000007_Node000017"><a xlink:title=" ">
<path fill="none" stroke="#63b8ff" d="M735.09,-281.19C821.7,-273.76 961.5,-251.49 1061,-185 1077.78,-173.78 1090.76,-154.46 1098.78,-140"/>
<polygon fill="#63b8ff" stroke="#63b8ff" points="1101.73,-141.93 1103.24,-131.44 1095.52,-138.7 1101.73,-141.93"/>
</a>
</g>
</g>
<!-- Node7&#45;&gt;Node20 -->
<g id="edge49_Node000007_Node000020" class="edge">
<title>Node7&#45;&gt;Node20</title>
<g id="a_edge49_Node000007_Node000020"><a xlink:title=" ">
<path fill="none" stroke="#63b8ff" d="M588.22,-275.78C509.13,-263.28 375.95,-236.26 272,-185 247.11,-172.72 222.52,-152.14 206.87,-137.66"/>
<polygon fill="#63b8ff" stroke="#63b8ff" points="209.5,-135.34 199.84,-131 204.69,-140.42 209.5,-135.34"/>
</a>
</g>
</g>
<!-- Node8&#45;&gt;Node2 -->
<g id="edge10_Node000008_Node000002" class="edge">
<title>Node8&#45;&gt;Node2</title>
<g id="a_edge10_Node000008_Node000002"><a xlink:title=" ">
<path fill="none" stroke="#63b8ff" d="M603.8,-227.12C506.61,-221.92 305.8,-208.45 285,-185 258.25,-154.84 293.23,-107.86 316.08,-82.87"/>
<polygon fill="#63b8ff" stroke="#63b8ff" points="318.43,-85.48 322.78,-75.82 313.35,-80.66 318.43,-85.48"/>
</a>
</g>
</g>
<!-- Node8&#45;&gt;Node3 -->
<g id="edge43_Node000008_Node000003" class="edge">
<title>Node8&#45;&gt;Node3</title>
<g id="a_edge43_Node000008_Node000003"><a xlink:title=" ">
<path fill="none" stroke="#63b8ff" d="M603.7,-228.27C484.6,-223.88 199.68,-205.5 151,-129.75 146.37,-122.55 146.41,-117.72 151,-110.5 171.81,-77.76 279.05,-38.61 332.97,-20.59"/>
<polygon fill="#63b8ff" stroke="#63b8ff" points="333.78,-24.01 342.18,-17.55 331.58,-17.36 333.78,-24.01"/>
</a>
</g>
</g>
<!-- Node8&#45;&gt;Node4 -->
<g id="edge44_Node000008_Node000004" class="edge">
<title>Node8&#45;&gt;Node4</title>
<g id="a_edge44_Node000008_Node000004"><a xlink:title=" ">
<path fill="none" stroke="#63b8ff" d="M657.72,-220.67C659.77,-208.05 662.19,-184.49 656,-165.75 645.77,-134.76 584.58,-61.18 555.87,-27.72"/>
<polygon fill="#63b8ff" stroke="#63b8ff" points="558.87,-25.84 549.69,-20.56 553.57,-30.42 558.87,-25.84"/>
</a>
</g>
</g>
<!-- Node9 -->
<g id="Node000009" class="node">
<title>Node9</title>
<g id="a_Node000009"><a xlink:href="../../d9/dc5/_string_8hpp.html" target="_top" xlink:title=" ">
<polygon fill="white" stroke="#666666" points="628.38,-185 527.62,-185 527.62,-165.75 628.38,-165.75 628.38,-185"/>
<text text-anchor="middle" x="578" y="-171.5" font-family="Helvetica,sans-Serif" font-size="10.00">mimic++/String.hpp</text>
</a>
</g>
</g>
<!-- Node8&#45;&gt;Node9 -->
<g id="edge11_Node000008_Node000009" class="edge">
<title>Node8&#45;&gt;Node9</title>
<g id="a_edge11_Node000008_Node000009"><a xlink:title=" ">
<path fill="none" stroke="#63b8ff" d="M642.77,-220.59C631.23,-212.71 614.23,-201.11 600.55,-191.77"/>
<polygon fill="#63b8ff" stroke="#63b8ff" points="602.78,-189.05 592.55,-186.31 598.83,-194.83 602.78,-189.05"/>
</a>
</g>
</g>
<!-- Node8&#45;&gt;Node10 -->
<g id="edge35_Node000008_Node000010" class="edge">
<title>Node8&#45;&gt;Node10</title>
<g id="a_edge35_Node000008_Node000010"><a xlink:title=" ">
<path fill="none" stroke="#63b8ff" d="M670.21,-220.6C681.84,-212.55 697.97,-199.76 708,-185 716.99,-171.77 722.64,-154.5 725.97,-141.26"/>
<polygon fill="#63b8ff" stroke="#63b8ff" points="729.38,-142.05 728.14,-131.53 722.54,-140.53 729.38,-142.05"/>
</a>
</g>
</g>
<!-- Node13 -->
<g id="Node000013" class="node">
<title>Node13</title>
<g id="a_Node000013"><a xlink:title=" ">
<polygon fill="#e0e0e0" stroke="#999999" points="819.88,-74.5 770.12,-74.5 770.12,-55.25 819.88,-55.25 819.88,-74.5"/>
<text text-anchor="middle" x="795" y="-61" font-family="Helvetica,sans-Serif" font-size="10.00">optional</text>
</a>
</g>
</g>
<!-- Node8&#45;&gt;Node13 -->
<g id="edge39_Node000008_Node000013" class="edge">
<title>Node8&#45;&gt;Node13</title>
<g id="a_edge39_Node000008_Node000013"><a xlink:title=" ">
<path fill="none" stroke="#63b8ff" d="M678.26,-220.59C709.63,-206.5 765.61,-176 789,-129.75 795.86,-116.19 797.11,-98.95 796.78,-85.79"/>
<polygon fill="#63b8ff" stroke="#63b8ff" points="800.3,-85.97 796.21,-76.2 793.31,-86.39 800.3,-85.97"/>
</a>
</g>
</g>
<!-- Node14 -->
<g id="Node000014" class="node">
<title>Node14</title>
<g id="a_Node000014"><a xlink:title=" ">
<polygon fill="#e0e0e0" stroke="#999999" points="922.12,-74.5 837.88,-74.5 837.88,-55.25 922.12,-55.25 922.12,-74.5"/>
<text text-anchor="middle" x="880" y="-61" font-family="Helvetica,sans-Serif" font-size="10.00">source_location</text>
</a>
</g>
</g>
<!-- Node8&#45;&gt;Node14 -->
<g id="edge41_Node000008_Node000014" class="edge">
<title>Node8&#45;&gt;Node14</title>
<g id="a_edge41_Node000008_Node000014"><a xlink:title=" ">
<path fill="none" stroke="#63b8ff" d="M686.99,-220.57C709.53,-213.12 740.15,-201.15 764,-185 806.83,-155.99 846.54,-109.22 866.51,-83.77"/>
<polygon fill="#63b8ff" stroke="#63b8ff" points="869.13,-86.11 872.46,-76.05 863.58,-81.84 869.13,-86.11"/>
</a>
</g>
</g>
<!-- Node8&#45;&gt;Node16 -->
<g id="edge45_Node000008_Node000016" class="edge">
<title>Node8&#45;&gt;Node16</title>
<g id="a_edge45_Node000008_Node000016"><a xlink:title=" ">
<path fill="none" stroke="#63b8ff" d="M692.69,-220.54C720.29,-212.96 758.59,-200.86 790,-185 848.69,-155.35 909.92,-107.14 940,-82.11"/>
<polygon fill="#63b8ff" stroke="#63b8ff" points="942.07,-84.94 947.47,-75.83 937.57,-79.59 942.07,-84.94"/>
</a>
</g>
</g>
<!-- Node8&#45;&gt;Node18 -->
<g id="edge37_Node000008_Node000018" class="edge">
<title>Node8&#45;&gt;Node18</title>
<g id="a_edge37_Node000008_Node000018"><a xlink:title=" ">
<path fill="none" stroke="#63b8ff" d="M623.38,-220.54C595.3,-212.36 553.91,-199.43 519,-185 501.5,-177.77 498.12,-173.83 481,-165.75 457.84,-154.83 431.34,-143.26 411.15,-134.64"/>
<polygon fill="#63b8ff" stroke="#63b8ff" points="412.62,-131.46 402.04,-130.77 409.88,-137.9 412.62,-131.46"/>
</a>
</g>
</g>
<!-- Node19 -->
<g id="Node000019" class="node">
<title>Node19</title>
<g id="a_Node000019"><a xlink:title=" ">
<polygon fill="#e0e0e0" stroke="#999999" points="585.62,-129.75 540.38,-129.75 540.38,-110.5 585.62,-110.5 585.62,-129.75"/>
<text text-anchor="middle" x="563" y="-116.25" font-family="Helvetica,sans-Serif" font-size="10.00">ranges</text>
</a>
</g>
</g>
<!-- Node8&#45;&gt;Node19 -->
<g id="edge40_Node000008_Node000019" class="edge">
<title>Node8&#45;&gt;Node19</title>
<g id="a_edge40_Node000008_Node000019"><a xlink:title=" ">
<path fill="none" stroke="#63b8ff" d="M655.39,-220.87C654.05,-207.66 649.89,-182.4 637,-165.75 626.43,-152.1 610.42,-141.7 595.98,-134.39"/>
<polygon fill="#63b8ff" stroke="#63b8ff" points="597.76,-131.36 587.22,-130.26 594.77,-137.69 597.76,-131.36"/>
</a>
</g>
</g>
<!-- Node21 -->
<g id="Node000021" class="node">
<title>Node21</title>
<g id="a_Node000021"><a xlink:href="../../d8/d32/_type_traits_8hpp.html" target="_top" xlink:title=" ">
<polygon fill="white" stroke="#666666" points="1033.5,-185 912.5,-185 912.5,-165.75 1033.5,-165.75 1033.5,-185"/>
<text text-anchor="middle" x="973" y="-171.5" font-family="Helvetica,sans-Serif" font-size="10.00">mimic++/TypeTraits.hpp</text>
</a>
</g>
</g>
<!-- Node8&#45;&gt;Node21 -->
<g id="edge28_Node000008_Node000021" class="edge">
<title>Node8&#45;&gt;Node21</title>
<g id="a_edge28_Node000008_Node000021"><a xlink:title=" ">
<path fill="none" stroke="#63b8ff" d="M708.35,-220.83C762.95,-211.66 848.65,-197.26 907.66,-187.35"/>
<polygon fill="#63b8ff" stroke="#63b8ff" points="907.94,-190.85 917.22,-185.74 906.78,-183.95 907.94,-190.85"/>
</a>
</g>
</g>
<!-- Node23 -->
<g id="Node000023" class="node">
<title>Node23</title>
<g id="a_Node000023"><a xlink:title=" ">
<polygon fill="#e0e0e0" stroke="#999999" points="1061.62,-129.75 1016.38,-129.75 1016.38,-110.5 1061.62,-110.5 1061.62,-129.75"/>
<text text-anchor="middle" x="1039" y="-116.25" font-family="Helvetica,sans-Serif" font-size="10.00">cstdint</text>
</a>
</g>
</g>
<!-- Node8&#45;&gt;Node23 -->
<g id="edge36_Node000008_Node000023" class="edge">
<title>Node8&#45;&gt;Node23</title>
<g id="a_edge36_Node000008_Node000023"><a xlink:title=" ">
<path fill="none" stroke="#63b8ff" d="M708.1,-227.41C808.55,-222.59 1021.09,-209.58 1043,-185 1053.63,-173.08 1051.06,-154.4 1046.76,-140.32"/>
<polygon fill="#63b8ff" stroke="#63b8ff" points="1050.18,-139.48 1043.51,-131.24 1043.59,-141.84 1050.18,-139.48"/>
</a>
</g>
</g>
<!-- Node24 -->
<g id="Node000024" class="node">
<title>Node24</title>
<g id="a_Node000024"><a xlink:title=" ">
<polygon fill="#e0e0e0" stroke="#999999" points="340,-185 294,-185 294,-165.75 340,-165.75 340,-185"/>
<text text-anchor="middle" x="317" y="-171.5" font-family="Helvetica,sans-Serif" font-size="10.00">iterator</text>
</a>
</g>
</g>
<!-- Node8&#45;&gt;Node24 -->
<g id="edge38_Node000008_Node000024" class="edge">
<title>Node8&#45;&gt;Node24</title>
<g id="a_edge38_Node000008_Node000024"><a xlink:title=" ">
<path fill="none" stroke="#63b8ff" d="M603.8,-223.95C544.78,-217.12 445.65,-204.36 351.5,-185.3"/>
<polygon fill="#63b8ff" stroke="#63b8ff" points="352.32,-181.9 341.82,-183.32 350.91,-188.76 352.32,-181.9"/>
</a>
</g>
</g>
<!-- Node25 -->
<g id="Node000025" class="node">
<title>Node25</title>
<g id="a_Node000025"><a xlink:title=" ">
<polygon fill="#e0e0e0" stroke="#999999" points="409.62,-185 358.38,-185 358.38,-165.75 409.62,-165.75 409.62,-185"/>
<text text-anchor="middle" x="384" y="-171.5" font-family="Helvetica,sans-Serif" font-size="10.00">sstream</text>
</a>
</g>
</g>
<!-- Node8&#45;&gt;Node25 -->
<g id="edge42_Node000008_Node000025" class="edge">
<title>Node8&#45;&gt;Node25</title>
<g id="a_edge42_Node000008_Node000025"><a xlink:title=" ">
<path fill="none" stroke="#63b8ff" d="M604.05,-220.7C558.37,-212.66 489.82,-200.13 421,-185.33"/>
<polygon fill="#63b8ff" stroke="#63b8ff" points="421.95,-181.96 411.44,-183.26 420.47,-188.8 421.95,-181.96"/>
</a>
</g>
</g>
<!-- Node26 -->
<g id="Node000026" class="node">
<title>Node26</title>
<g id="a_Node000026"><a xlink:title=" ">
<polygon fill="#e0e0e0" stroke="#999999" points="471.88,-185 428.12,-185 428.12,-165.75 471.88,-165.75 471.88,-185"/>
<text text-anchor="middle" x="450" y="-171.5" font-family="Helvetica,sans-Serif" font-size="10.00">format</text>
</a>
</g>
</g>
<!-- Node8&#45;&gt;Node26 -->
<g id="edge46_Node000008_Node000026" class="edge">
<title>Node8&#45;&gt;Node26</title>
<g id="a_edge46_Node000008_Node000026"><a xlink:title=" ">
<path fill="none" stroke="#63b8ff" d="M621.05,-220.59C582.56,-210.64 521.12,-194.76 483.3,-184.98"/>
<polygon fill="#63b8ff" stroke="#63b8ff" points="484.4,-181.65 473.84,-182.54 482.64,-188.43 484.4,-181.65"/>
</a>
</g>
</g>
<!-- Node9&#45;&gt;Node2 -->
<g id="edge12_Node000009_Node000002" class="edge">
<title>Node9&#45;&gt;Node2</title>
<g id="a_edge12_Node000009_Node000002"><a xlink:title=" ">
<path fill="none" stroke="#63b8ff" d="M551.91,-165.39C527.78,-156.88 491.08,-143.4 460,-129.75 424.61,-114.21 384.98,-93.77 359.55,-80.25"/>
<polygon fill="#63b8ff" stroke="#63b8ff" points="361.38,-77.26 350.91,-75.63 358.08,-83.43 361.38,-77.26"/>
</a>
</g>
</g>
<!-- Node9&#45;&gt;Node3 -->
<g id="edge25_Node000009_Node000003" class="edge">
<title>Node9&#45;&gt;Node3</title>
<g id="a_edge25_Node000009_Node000003"><a xlink:title=" ">
<path fill="none" stroke="#63b8ff" d="M566.19,-165.34C531.41,-138.72 429.01,-60.37 384.76,-26.51"/>
<polygon fill="#63b8ff" stroke="#63b8ff" points="387.04,-23.85 376.98,-20.55 382.79,-29.41 387.04,-23.85"/>
</a>
</g>
</g>
<!-- Node9&#45;&gt;Node4 -->
<g id="edge26_Node000009_Node000004" class="edge">
<title>Node9&#45;&gt;Node4</title>
<g id="a_edge26_Node000009_Node000004"><a xlink:title=" ">
<path fill="none" stroke="#63b8ff" d="M563.47,-165.42C552.25,-157.58 537.57,-145.05 531,-129.75 516.92,-96.96 526.26,-54.48 533.92,-30.11"/>
<polygon fill="#63b8ff" stroke="#63b8ff" points="537.15,-31.48 537.05,-20.88 530.52,-29.23 537.15,-31.48"/>
</a>
</g>
</g>
<!-- Node9&#45;&gt;Node10 -->
<g id="edge13_Node000009_Node000010" class="edge">
<title>Node9&#45;&gt;Node10</title>
<g id="a_edge13_Node000009_Node000010"><a xlink:title=" ">
<path fill="none" stroke="#63b8ff" d="M603.78,-165.34C628.35,-156.74 665.59,-143.69 693.26,-134"/>
<polygon fill="#63b8ff" stroke="#63b8ff" points="694.38,-137.31 702.66,-130.7 692.07,-130.71 694.38,-137.31"/>
</a>
</g>
</g>
<!-- Node9&#45;&gt;Node17 -->
<g id="edge22_Node000009_Node000017" class="edge">
<title>Node9&#45;&gt;Node17</title>
<g id="a_edge22_Node000009_Node000017"><a xlink:title=" ">
<path fill="none" stroke="#63b8ff" d="M628.68,-172.11C716.42,-167.69 902.42,-156.08 1068.86,-129.87"/>
<polygon fill="#63b8ff" stroke="#63b8ff" points="1068.98,-133.4 1078.3,-128.36 1067.88,-126.49 1068.98,-133.4"/>
</a>
</g>
</g>
<!-- Node9&#45;&gt;Node18 -->
<g id="edge23_Node000009_Node000018" class="edge">
<title>Node9&#45;&gt;Node18</title>
<g id="a_edge23_Node000009_Node000018"><a xlink:title=" ">
<path fill="none" stroke="#63b8ff" d="M544.24,-165.34C509.67,-156.09 455.94,-141.71 419.19,-131.88"/>
<polygon fill="#63b8ff" stroke="#63b8ff" points="420.4,-128.58 409.84,-129.38 418.59,-135.34 420.4,-128.58"/>
</a>
</g>
</g>
<!-- Node9&#45;&gt;Node19 -->
<g id="edge24_Node000009_Node000019" class="edge">
<title>Node9&#45;&gt;Node19</title>
<g id="a_edge24_Node000009_Node000019"><a xlink:title=" ">
<path fill="none" stroke="#63b8ff" d="M575.52,-165.58C573.65,-158.92 570.99,-149.49 568.61,-141.03"/>
<polygon fill="#63b8ff" stroke="#63b8ff" points="572.02,-140.24 565.94,-131.57 565.28,-142.14 572.02,-140.24"/>
</a>
</g>
</g>
<!-- Node9&#45;&gt;Node20 -->
<g id="edge27_Node000009_Node000020" class="edge">
<title>Node9&#45;&gt;Node20</title>
<g id="a_edge27_Node000009_Node000020"><a xlink:title=" ">
<path fill="none" stroke="#63b8ff" d="M527.28,-167.41C449.93,-156.8 303.93,-136.76 232.09,-126.9"/>
<polygon fill="#63b8ff" stroke="#63b8ff" points="232.69,-123.45 222.31,-125.56 231.74,-130.39 232.69,-123.45"/>
</a>
</g>
</g>
<!-- Node10&#45;&gt;Node2 -->
<g id="edge14_Node000010_Node000002" class="edge">
<title>Node10&#45;&gt;Node2</title>
<g id="a_edge14_Node000010_Node000002"><a xlink:title=" ">
<path fill="none" stroke="#63b8ff" d="M679.72,-112.38C606.14,-102.51 469.43,-84.17 391.46,-73.72"/>
<polygon fill="#63b8ff" stroke="#63b8ff" points="392.28,-70.29 381.9,-72.43 391.35,-77.23 392.28,-70.29"/>
</a>
</g>
</g>
<!-- Node10&#45;&gt;Node4 -->
<g id="edge19_Node000010_Node000004" class="edge">
<title>Node10&#45;&gt;Node4</title>
<g id="a_edge19_Node000010_Node000004"><a xlink:title=" ">
<path fill="none" stroke="#63b8ff" d="M731.94,-110.03C734.28,-96.36 736.38,-70.52 723,-55.25 705.12,-34.85 633.31,-22.09 585.42,-15.68"/>
<polygon fill="#63b8ff" stroke="#63b8ff" points="585.97,-12.22 575.6,-14.41 585.07,-19.16 585.97,-12.22"/>
</a>
</g>
</g>
<!-- Node11 -->
<g id="Node000011" class="node">
<title>Node11</title>
<g id="a_Node000011"><a xlink:title=" ">
<polygon fill="#e0e0e0" stroke="#999999" points="647.5,-74.5 610.5,-74.5 610.5,-55.25 647.5,-55.25 647.5,-74.5"/>
<text text-anchor="middle" x="629" y="-61" font-family="Helvetica,sans-Serif" font-size="10.00">array</text>
</a>
</g>
</g>
<!-- Node10&#45;&gt;Node11 -->
<g id="edge15_Node000010_Node000011" class="edge">
<title>Node10&#45;&gt;Node11</title>
<g id="a_edge15_Node000010_Node000011"><a xlink:title=" ">
<path fill="none" stroke="#63b8ff" d="M712.87,-110.09C697.34,-101.91 674.2,-89.71 656.16,-80.19"/>
<polygon fill="#63b8ff" stroke="#63b8ff" points="658.03,-77.23 647.56,-75.66 654.77,-83.42 658.03,-77.23"/>
</a>
</g>
</g>
<!-- Node12 -->
<g id="Node000012" class="node">
<title>Node12</title>
<g id="a_Node000012"><a xlink:title=" ">
<polygon fill="#e0e0e0" stroke="#999999" points="714.12,-74.5 665.88,-74.5 665.88,-55.25 714.12,-55.25 714.12,-74.5"/>
<text text-anchor="middle" x="690" y="-61" font-family="Helvetica,sans-Serif" font-size="10.00">cassert</text>
</a>
</g>
</g>
<!-- Node10&#45;&gt;Node12 -->
<g id="edge16_Node000010_Node000012" class="edge">
<title>Node10&#45;&gt;Node12</title>
<g id="a_edge16_Node000010_Node000012"><a xlink:title=" ">
<path fill="none" stroke="#63b8ff" d="M723.39,-110.33C718.04,-103.21 710.32,-92.93 703.65,-84.05"/>
<polygon fill="#63b8ff" stroke="#63b8ff" points="706.46,-81.96 697.66,-76.07 700.87,-86.17 706.46,-81.96"/>
</a>
</g>
</g>
<!-- Node10&#45;&gt;Node13 -->
<g id="edge17_Node000010_Node000013" class="edge">
<title>Node10&#45;&gt;Node13</title>
<g id="a_edge17_Node000010_Node000013"><a xlink:title=" ">
<path fill="none" stroke="#63b8ff" d="M741.03,-110.09C750.42,-102.4 764.15,-91.15 775.41,-81.93"/>
<polygon fill="#63b8ff" stroke="#63b8ff" points="777.45,-84.78 782.97,-75.73 773.01,-79.36 777.45,-84.78"/>
</a>
</g>
</g>
<!-- Node10&#45;&gt;Node14 -->
<g id="edge18_Node000010_Node000014" class="edge">
<title>Node10&#45;&gt;Node14</title>
<g id="a_edge18_Node000010_Node000014"><a xlink:title=" ">
<path fill="none" stroke="#63b8ff" d="M755.45,-110.09C779.69,-101.49 816.43,-88.44 843.74,-78.75"/>
<polygon fill="#63b8ff" stroke="#63b8ff" points="844.75,-82.1 853,-75.46 842.41,-75.51 844.75,-82.1"/>
</a>
</g>
</g>
<!-- Node10&#45;&gt;Node15 -->
<g id="edge20_Node000010_Node000015" class="edge">
<title>Node10&#45;&gt;Node15</title>
<g id="a_edge20_Node000010_Node000015"><a xlink:title=" ">
<path fill="none" stroke="#63b8ff" d="M780.2,-112.16C861.16,-100.94 1018.1,-79.17 1083.86,-70.05"/>
<polygon fill="#63b8ff" stroke="#63b8ff" points="1084.12,-73.55 1093.54,-68.71 1083.16,-66.62 1084.12,-73.55"/>
</a>
</g>
</g>
<!-- Node10&#45;&gt;Node16 -->
<g id="edge21_Node000010_Node000016" class="edge">
<title>Node10&#45;&gt;Node16</title>
<g id="a_edge21_Node000010_Node000016"><a xlink:title=" ">
<path fill="none" stroke="#63b8ff" d="M775.75,-110.06C814.26,-102.19 871,-90.02 928.69,-74.95"/>
<polygon fill="#63b8ff" stroke="#63b8ff" points="929.24,-78.43 938.01,-72.49 927.45,-71.66 929.24,-78.43"/>
</a>
</g>
</g>
<!-- Node21&#45;&gt;Node2 -->
<g id="edge29_Node000021_Node000002" class="edge">
<title>Node21&#45;&gt;Node2</title>
<g id="a_edge29_Node000021_Node000002"><a xlink:title=" ">
<path fill="none" stroke="#63b8ff" d="M912.24,-167.24C851.03,-159.61 754.02,-146.35 671,-129.75 636.83,-122.92 629.09,-117.71 595,-110.5 525.4,-95.78 444.59,-82.6 391.33,-74.45"/>
<polygon fill="#63b8ff" stroke="#63b8ff" points="391.98,-71.01 381.56,-72.97 390.92,-77.93 391.98,-71.01"/>
</a>
</g>
</g>
<!-- Node21&#45;&gt;Node15 -->
<g id="edge33_Node000021_Node000015" class="edge">
<title>Node21&#45;&gt;Node15</title>
<g id="a_edge33_Node000021_Node000015"><a xlink:title=" ">
<path fill="none" stroke="#63b8ff" d="M962.6,-165.5C948.7,-152.56 927.33,-128.15 941,-110.5 958.36,-88.1 1039.09,-74.94 1083.87,-69.24"/>
<polygon fill="#63b8ff" stroke="#63b8ff" points="1084.2,-72.73 1093.71,-68.05 1083.36,-65.78 1084.2,-72.73"/>
</a>
</g>
</g>
<!-- Node21&#45;&gt;Node17 -->
<g id="edge30_Node000021_Node000017" class="edge">
<title>Node21&#45;&gt;Node17</title>
<g id="a_edge30_Node000021_Node000017"><a xlink:title=" ">
<path fill="none" stroke="#63b8ff" d="M995.9,-165.34C1017.43,-156.85 1049.91,-144.04 1074.38,-134.39"/>
<polygon fill="#63b8ff" stroke="#63b8ff" points="1075.56,-137.68 1083.58,-130.76 1072.99,-131.17 1075.56,-137.68"/>
</a>
</g>
</g>
<!-- Node21&#45;&gt;Node20 -->
<g id="edge34_Node000021_Node000020" class="edge">
<title>Node21&#45;&gt;Node20</title>
<g id="a_edge34_Node000021_Node000020"><a xlink:title=" ">
<path fill="none" stroke="#63b8ff" d="M912.21,-170.24C759.42,-159.85 362.27,-132.84 232.04,-123.98"/>
<polygon fill="#63b8ff" stroke="#63b8ff" points="232.36,-120.5 222.15,-123.31 231.89,-127.48 232.36,-120.5"/>
</a>
</g>
</g>
<!-- Node22 -->
<g id="Node000022" class="node">
<title>Node22</title>
<g id="a_Node000022"><a xlink:title=" ">
<polygon fill="#e0e0e0" stroke="#999999" points="998.12,-129.75 949.88,-129.75 949.88,-110.5 998.12,-110.5 998.12,-129.75"/>
<text text-anchor="middle" x="974" y="-116.25" font-family="Helvetica,sans-Serif" font-size="10.00">cstddef</text>
</a>
</g>
</g>
<!-- Node21&#45;&gt;Node22 -->
<g id="edge31_Node000021_Node000022" class="edge">
<title>Node21&#45;&gt;Node22</title>
<g id="a_edge31_Node000021_Node000022"><a xlink:title=" ">
<path fill="none" stroke="#63b8ff" d="M973.17,-165.58C973.29,-159.07 973.46,-149.92 973.62,-141.62"/>
<polygon fill="#63b8ff" stroke="#63b8ff" points="977.11,-141.69 973.8,-131.62 970.12,-141.55 977.11,-141.69"/>
</a>
</g>
</g>
<!-- Node21&#45;&gt;Node23 -->
<g id="edge32_Node000021_Node000023" class="edge">
<title>Node21&#45;&gt;Node23</title>
<g id="a_edge32_Node000021_Node000023"><a xlink:title=" ">
<path fill="none" stroke="#63b8ff" d="M984.2,-165.34C993.74,-157.65 1007.67,-146.4 1019.11,-137.18"/>
<polygon fill="#63b8ff" stroke="#63b8ff" points="1021.21,-139.98 1026.79,-130.98 1016.81,-134.53 1021.21,-139.98"/>
</a>
</g>
</g>
</g>
</svg>
