<?xml version="1.0" encoding="UTF-8" standalone="no"?>
<!DOCTYPE svg PUBLIC "-//W3C//DTD SVG 1.1//EN"
 "http://www.w3.org/Graphics/SVG/1.1/DTD/svg11.dtd">
<!-- Generated by graphviz version 12.2.1 (20241206.2353)
 -->
<!-- Title: mimicpp::signature_prepend_param&lt; Signature, T &gt; Pages: 1 -->
<svg width="844pt" height="194pt"
 viewBox="0.00 0.00 844.25 194.38" xmlns="http://www.w3.org/2000/svg" xmlns:xlink="http://www.w3.org/1999/xlink">
<g id="graph0" class="graph" transform="scale(1 1) rotate(0) translate(4 190.38)">
<title>mimicpp::signature_prepend_param&lt; Signature, T &gt;</title>
<!-- Node1 -->
<g id="Node000001" class="node">
<title>Node1</title>
<g id="a_Node000001"><a xlink:title="Primary template.">
<polygon fill="#999999" stroke="#666666" points="836.25,-100 679.25,-100 679.25,-69.5 836.25,-69.5 836.25,-100"/>
<text text-anchor="start" x="687.25" y="-86.5" font-family="Helvetica,sans-Serif" font-size="10.00">mimicpp::signature</text>
<text text-anchor="middle" x="757.75" y="-75.25" font-family="Helvetica,sans-Serif" font-size="10.00">_prepend_param&lt; Signature, T &gt;</text>
</a>
</g>
</g>
<!-- Node2 -->
<g id="Node000002" class="node">
<title>Node2</title>
<g id="a_Node000002"><a xlink:title=" ">
<polygon fill="white" stroke="#666666" points="642.25,-111.25 501,-111.25 501,-58.25 642.25,-58.25 642.25,-111.25"/>
<text text-anchor="start" x="509" y="-97.75" font-family="Helvetica,sans-Serif" font-size="10.00">mimicpp::detail::signature</text>
<text text-anchor="start" x="509" y="-86.5" font-family="Helvetica,sans-Serif" font-size="10.00">_apply_trait&lt; Signature,</text>
<text text-anchor="start" x="509" y="-75.25" font-family="Helvetica,sans-Serif" font-size="10.00"> detail::signature_prepend</text>
<text text-anchor="middle" x="571.62" y="-64" font-family="Helvetica,sans-Serif" font-size="10.00">_param&lt; T &gt;::template type &gt;</text>
</a>
</g>
</g>
<!-- Node2&#45;&gt;Node1 -->
<g id="edge1_Node000001_Node000002" class="edge">
<title>Node2&#45;&gt;Node1</title>
<g id="a_edge1_Node000001_Node000002"><a xlink:title=" ">
<path fill="none" stroke="#63b8ff" d="M653.78,-84.75C662.14,-84.75 670.61,-84.75 678.92,-84.75"/>
<polygon fill="#63b8ff" stroke="#63b8ff" points="654.01,-81.25 644.01,-84.75 654.01,-88.25 654.01,-81.25"/>
</a>
</g>
</g>
<!-- Node3 -->
<g id="Node000003" class="node">
<title>Node3</title>
<g id="a_Node000003"><a xlink:title=" ">
<polygon fill="white" stroke="#666666" points="368.25,-186.38 208.25,-186.38 208.25,-77.12 368.25,-77.12 368.25,-186.38"/>
<text text-anchor="start" x="216.25" y="-172.88" font-family="Helvetica,sans-Serif" font-size="10.00">std::bool_constant</text>
<text text-anchor="start" x="216.25" y="-161.62" font-family="Helvetica,sans-Serif" font-size="10.00">&lt; detail::signature</text>
<text text-anchor="start" x="216.25" y="-150.38" font-family="Helvetica,sans-Serif" font-size="10.00">_prepend_param&lt; T &gt;::</text>
<text text-anchor="start" x="216.25" y="-139.12" font-family="Helvetica,sans-Serif" font-size="10.00">template type&lt;typename</text>
<text text-anchor="start" x="216.25" y="-127.88" font-family="Helvetica,sans-Serif" font-size="10.00"> call_convention_traits</text>
<text text-anchor="start" x="216.25" y="-116.62" font-family="Helvetica,sans-Serif" font-size="10.00">&lt;signature_call_convention</text>
<text text-anchor="start" x="216.25" y="-105.38" font-family="Helvetica,sans-Serif" font-size="10.00">_t&lt;Signature&gt;&gt;::template remove</text>
<text text-anchor="start" x="216.25" y="-94.12" font-family="Helvetica,sans-Serif" font-size="10.00">_call_convention_t&lt;Signature&gt;&gt;</text>
<text text-anchor="middle" x="288.25" y="-82.88" font-family="Helvetica,sans-Serif" font-size="10.00">::value &gt;</text>
</a>
</g>
</g>
<!-- Node3&#45;&gt;Node2 -->
<g id="edge2_Node000002_Node000003" class="edge">
<title>Node3&#45;&gt;Node2</title>
<g id="a_edge2_Node000002_Node000003"><a xlink:title=" ">
<path fill="none" stroke="#63b8ff" d="M379.96,-119.98C412.53,-115.4 449.49,-109.8 483,-103.75 488.82,-102.7 494.84,-101.54 500.88,-100.33"/>
<polygon fill="#63b8ff" stroke="#63b8ff" points="379.56,-116.5 370.14,-121.35 380.52,-123.43 379.56,-116.5"/>
</a>
</g>
</g>
<!-- Node4 -->
<g id="Node000004" class="node">
<title>Node4</title>
<g id="a_Node000004"><a xlink:title=" ">
<polygon fill="white" stroke="#666666" points="361.88,-58.62 214.62,-58.62 214.62,-16.88 361.88,-16.88 361.88,-58.62"/>
<text text-anchor="start" x="222.62" y="-45.12" font-family="Helvetica,sans-Serif" font-size="10.00">mimicpp::detail::signature</text>
<text text-anchor="start" x="222.62" y="-33.88" font-family="Helvetica,sans-Serif" font-size="10.00">_apply_trait&lt; Signature,</text>
<text text-anchor="middle" x="288.25" y="-22.62" font-family="Helvetica,sans-Serif" font-size="10.00"> Trait, CallConvTrait, Applied &gt;</text>
</a>
</g>
</g>
<!-- Node4&#45;&gt;Node2 -->
<g id="edge3_Node000002_Node000004" class="edge">
<title>Node4&#45;&gt;Node2</title>
<g id="a_edge3_Node000002_Node000004"><a xlink:title=" ">
<path fill="none" stroke="orange" stroke-dasharray="5,2" d="M373.48,-40.69C407.74,-43.04 447.53,-47.24 483,-54.75 488.82,-55.98 494.79,-57.49 500.74,-59.16"/>
<polygon fill="orange" stroke="orange" points="373.8,-37.21 363.6,-40.06 373.36,-44.19 373.8,-37.21"/>
</a>
</g>
<text text-anchor="start" x="386.25" y="-90.25" font-family="Helvetica,sans-Serif" font-size="10.00" fill="grey"> &lt; Signature, detail</text>
<text text-anchor="start" x="386.25" y="-79" font-family="Helvetica,sans-Serif" font-size="10.00" fill="grey">::signature_prepend</text>
<text text-anchor="start" x="386.25" y="-67.75" font-family="Helvetica,sans-Serif" font-size="10.00" fill="grey">_param&lt; T &gt;::template</text>
<text text-anchor="middle" x="434.62" y="-56.5" font-family="Helvetica,sans-Serif" font-size="10.00" fill="grey"> type &gt;</text>
</g>
<!-- Node5 -->
<g id="Node000005" class="node">
<title>Node5</title>
<g id="a_Node000005"><a xlink:title=" ">
<polygon fill="white" stroke="#666666" points="171.25,-75.5 0,-75.5 0,0 171.25,0 171.25,-75.5"/>
<text text-anchor="start" x="8" y="-62" font-family="Helvetica,sans-Serif" font-size="10.00">std::bool_constant</text>
<text text-anchor="start" x="8" y="-50.75" font-family="Helvetica,sans-Serif" font-size="10.00">&lt; Trait&lt;typename call</text>
<text text-anchor="start" x="8" y="-39.5" font-family="Helvetica,sans-Serif" font-size="10.00">_convention_traits&lt;signature</text>
<text text-anchor="start" x="8" y="-28.25" font-family="Helvetica,sans-Serif" font-size="10.00">_call_convention_t&lt;Signature&gt;</text>
<text text-anchor="start" x="8" y="-17" font-family="Helvetica,sans-Serif" font-size="10.00">&gt;::template remove_call_convention</text>
<text text-anchor="middle" x="85.62" y="-5.75" font-family="Helvetica,sans-Serif" font-size="10.00">_t&lt;Signature&gt;&gt;::value &gt;</text>
</a>
</g>
</g>
<!-- Node5&#45;&gt;Node4 -->
<g id="edge4_Node000004_Node000005" class="edge">
<title>Node5&#45;&gt;Node4</title>
<g id="a_edge4_Node000004_Node000005"><a xlink:title=" ">
<path fill="none" stroke="#63b8ff" d="M183.09,-37.75C193.63,-37.75 204.22,-37.75 214.4,-37.75"/>
<polygon fill="#63b8ff" stroke="#63b8ff" points="183.22,-34.25 173.22,-37.75 183.22,-41.25 183.22,-34.25"/>
</a>
</g>
</g>
</g>
</svg>
