<?xml version="1.0" encoding="UTF-8" standalone="no"?>
<!DOCTYPE svg PUBLIC "-//W3C//DTD SVG 1.1//EN"
 "http://www.w3.org/Graphics/SVG/1.1/DTD/svg11.dtd">
<!-- Generated by graphviz version 12.2.1 (20241206.2353)
 -->
<!-- Title: mimicpp::signature_remove_ref_qualifier&lt; Signature &gt; Pages: 1 -->
<svg width="415pt" height="1573pt"
 viewBox="0.00 0.00 415.00 1573.37" xmlns="http://www.w3.org/2000/svg" xmlns:xlink="http://www.w3.org/1999/xlink">
<g id="graph0" class="graph" transform="scale(1 1) rotate(0) translate(4 1569.37)">
<title>mimicpp::signature_remove_ref_qualifier&lt; Signature &gt;</title>
<!-- Node1 -->
<g id="Node000001" class="node">
<title>Node1</title>
<g id="a_Node000001"><a xlink:title="Primary template, purposely undefined.">
<polygon fill="#999999" stroke="#666666" points="108.25,-829.75 0,-829.75 0,-788 108.25,-788 108.25,-829.75"/>
<text text-anchor="start" x="8" y="-816.25" font-family="Helvetica,sans-Serif" font-size="10.00">mimicpp::signature</text>
<text text-anchor="start" x="8" y="-805" font-family="Helvetica,sans-Serif" font-size="10.00">_remove_ref_qualifier</text>
<text text-anchor="middle" x="54.12" y="-793.75" font-family="Helvetica,sans-Serif" font-size="10.00">&lt; Signature &gt;</text>
</a>
</g>
</g>
<!-- Node1&#45;&gt;Node1 -->
<g id="edge1_Node000001_Node000001" class="edge">
<title>Node1&#45;&gt;Node1</title>
<g id="a_edge1_Node000001_Node000001"><a xlink:title=" ">
<path fill="none" stroke="orange" stroke-dasharray="5,2" d="M44.2,-841.2C45.98,-845.16 49.28,-847.75 54.12,-847.75 62.73,-847.75 66.49,-839.55 65.42,-830.07"/>
<polygon fill="orange" stroke="orange" points="47.71,-841.07 43.02,-831.57 40.76,-841.92 47.71,-841.07"/>
</a>
</g>
<text text-anchor="middle" x="54.12" y="-849.5" font-family="Helvetica,sans-Serif" font-size="10.00" fill="grey"> &lt; Signature &gt;</text>
</g>
<!-- Node1&#45;&gt;Node1 -->
<g id="edge26_Node000001_Node000001" class="edge">
<title>Node1&#45;&gt;Node1</title>
<g id="a_edge26_Node000001_Node000001"><a xlink:title=" ">
<path fill="none" stroke="orange" stroke-dasharray="5,2" d="M31.37,-841.13C29.85,-854.46 37.43,-865.75 54.12,-865.75 75.28,-865.75 81.81,-847.62 73.71,-830.17"/>
<polygon fill="orange" stroke="orange" points="34.7,-842.2 34.12,-831.62 27.98,-840.26 34.7,-842.2"/>
</a>
</g>
<text text-anchor="middle" x="54.12" y="-867.5" font-family="Helvetica,sans-Serif" font-size="10.00" fill="grey"> &lt; Signature &gt;</text>
</g>
<!-- Node2 -->
<g id="Node000002" class="node">
<title>Node2</title>
<g id="a_Node000002"><a xlink:href="../../d5/dae/structmimicpp_1_1signature__remove__ref__qualifier.html" target="_top" xlink:title=" ">
<polygon fill="white" stroke="#666666" points="387.5,-1550.75 264.25,-1550.75 264.25,-1509 387.5,-1509 387.5,-1550.75"/>
<text text-anchor="start" x="272.25" y="-1537.25" font-family="Helvetica,sans-Serif" font-size="10.00">mimicpp::signature</text>
<text text-anchor="start" x="272.25" y="-1526" font-family="Helvetica,sans-Serif" font-size="10.00">_remove_ref_qualifier</text>
<text text-anchor="middle" x="325.88" y="-1514.75" font-family="Helvetica,sans-Serif" font-size="10.00">&lt; Return(Params...) &amp;&amp; &gt;</text>
</a>
</g>
</g>
<!-- Node1&#45;&gt;Node2 -->
<g id="edge2_Node000001_Node000002" class="edge">
<title>Node1&#45;&gt;Node2</title>
<g id="a_edge2_Node000001_Node000002"><a xlink:title=" ">
<path fill="none" stroke="orange" stroke-dasharray="5,2" d="M56.07,-841.21C60.21,-972.36 78.73,-1459.93 126.25,-1507.88 161.3,-1543.24 219.46,-1545.87 263.82,-1541.35"/>
<polygon fill="orange" stroke="orange" points="59.58,-841.39 55.77,-831.5 52.58,-841.61 59.58,-841.39"/>
</a>
</g>
<text text-anchor="start" x="133.75" y="-1555.87" font-family="Helvetica,sans-Serif" font-size="10.00" fill="grey"> &lt; Return(Params...)</text>
<text text-anchor="middle" x="176.5" y="-1544.62" font-family="Helvetica,sans-Serif" font-size="10.00" fill="grey"> &amp;&amp; &gt;</text>
</g>
<!-- Node3 -->
<g id="Node000003" class="node">
<title>Node3</title>
<g id="a_Node000003"><a xlink:href="../../d5/dae/structmimicpp_1_1signature__remove__ref__qualifier.html" target="_top" xlink:title=" ">
<polygon fill="white" stroke="#666666" points="407,-1490.75 244.75,-1490.75 244.75,-1449 407,-1449 407,-1490.75"/>
<text text-anchor="start" x="252.75" y="-1477.25" font-family="Helvetica,sans-Serif" font-size="10.00">mimicpp::signature</text>
<text text-anchor="start" x="252.75" y="-1466" font-family="Helvetica,sans-Serif" font-size="10.00">_remove_ref_qualifier</text>
<text text-anchor="middle" x="325.88" y="-1454.75" font-family="Helvetica,sans-Serif" font-size="10.00">&lt; Return(Params...) &amp;&amp;noexcept &gt;</text>
</a>
</g>
</g>
<!-- Node1&#45;&gt;Node3 -->
<g id="edge3_Node000001_Node000003" class="edge">
<title>Node1&#45;&gt;Node3</title>
<g id="a_edge3_Node000001_Node000003"><a xlink:title=" ">
<path fill="none" stroke="orange" stroke-dasharray="5,2" d="M56.43,-841.48C61.72,-965.43 83.28,-1402.51 126.25,-1445.88 156.45,-1476.34 203.73,-1483 244.59,-1481.73"/>
<polygon fill="orange" stroke="orange" points="59.94,-841.52 56.02,-831.68 52.94,-841.82 59.94,-841.52"/>
</a>
</g>
<text text-anchor="start" x="133.75" y="-1494.61" font-family="Helvetica,sans-Serif" font-size="10.00" fill="grey"> &lt; Return(Params...)</text>
<text text-anchor="middle" x="176.5" y="-1483.36" font-family="Helvetica,sans-Serif" font-size="10.00" fill="grey"> &amp;&amp;noexcept &gt;</text>
</g>
<!-- Node4 -->
<g id="Node000004" class="node">
<title>Node4</title>
<g id="a_Node000004"><a xlink:href="../../d5/dae/structmimicpp_1_1signature__remove__ref__qualifier.html" target="_top" xlink:title=" ">
<polygon fill="white" stroke="#666666" points="403.62,-1430.75 248.12,-1430.75 248.12,-1389 403.62,-1389 403.62,-1430.75"/>
<text text-anchor="start" x="256.12" y="-1417.25" font-family="Helvetica,sans-Serif" font-size="10.00">mimicpp::signature</text>
<text text-anchor="start" x="256.12" y="-1406" font-family="Helvetica,sans-Serif" font-size="10.00">_remove_ref_qualifier</text>
<text text-anchor="middle" x="325.88" y="-1394.75" font-family="Helvetica,sans-Serif" font-size="10.00">&lt; Return(Params...) &amp;noexcept &gt;</text>
</a>
</g>
</g>
<!-- Node1&#45;&gt;Node4 -->
<g id="edge4_Node000001_Node000004" class="edge">
<title>Node1&#45;&gt;Node4</title>
<g id="a_edge4_Node000001_Node000004"><a xlink:title=" ">
<path fill="none" stroke="orange" stroke-dasharray="5,2" d="M56.86,-841.2C63.35,-956.68 87.86,-1344.03 126.25,-1382.88 157.32,-1414.31 206.44,-1421.2 248.06,-1420.16"/>
<polygon fill="orange" stroke="orange" points="60.37,-841.29 56.32,-831.5 53.38,-841.68 60.37,-841.29"/>
</a>
</g>
<text text-anchor="start" x="133.75" y="-1432.75" font-family="Helvetica,sans-Serif" font-size="10.00" fill="grey"> &lt; Return(Params...)</text>
<text text-anchor="middle" x="176.5" y="-1421.5" font-family="Helvetica,sans-Serif" font-size="10.00" fill="grey"> &amp;noexcept &gt;</text>
</g>
<!-- Node5 -->
<g id="Node000005" class="node">
<title>Node5</title>
<g id="a_Node000005"><a xlink:href="../../d5/dae/structmimicpp_1_1signature__remove__ref__qualifier.html" target="_top" xlink:title=" ">
<polygon fill="white" stroke="#666666" points="397.25,-1370.75 254.5,-1370.75 254.5,-1329 397.25,-1329 397.25,-1370.75"/>
<text text-anchor="start" x="262.5" y="-1357.25" font-family="Helvetica,sans-Serif" font-size="10.00">mimicpp::signature</text>
<text text-anchor="start" x="262.5" y="-1346" font-family="Helvetica,sans-Serif" font-size="10.00">_remove_ref_qualifier</text>
<text text-anchor="middle" x="325.88" y="-1334.75" font-family="Helvetica,sans-Serif" font-size="10.00">&lt; Return(Params...) const &amp; &gt;</text>
</a>
</g>
</g>
<!-- Node1&#45;&gt;Node5 -->
<g id="edge5_Node000001_Node000005" class="edge">
<title>Node1&#45;&gt;Node5</title>
<g id="a_edge5_Node000001_Node000005"><a xlink:title=" ">
<path fill="none" stroke="orange" stroke-dasharray="5,2" d="M54.84,-841.26C54.67,-942.45 59.73,-1249.95 126.25,-1317.88 158.88,-1351.19 211.49,-1358.46 254.37,-1357.79"/>
<polygon fill="orange" stroke="orange" points="58.34,-841.5 54.88,-831.49 51.34,-841.47 58.34,-841.5"/>
</a>
</g>
<text text-anchor="start" x="133.75" y="-1369.74" font-family="Helvetica,sans-Serif" font-size="10.00" fill="grey"> &lt; Return(Params...)</text>
<text text-anchor="middle" x="176.5" y="-1358.49" font-family="Helvetica,sans-Serif" font-size="10.00" fill="grey"> const &amp; &gt;</text>
</g>
<!-- Node6 -->
<g id="Node000006" class="node">
<title>Node6</title>
<g id="a_Node000006"><a xlink:href="../../d5/dae/structmimicpp_1_1signature__remove__ref__qualifier.html" target="_top" xlink:title=" ">
<polygon fill="white" stroke="#666666" points="400.62,-1310.75 251.12,-1310.75 251.12,-1269 400.62,-1269 400.62,-1310.75"/>
<text text-anchor="start" x="259.12" y="-1297.25" font-family="Helvetica,sans-Serif" font-size="10.00">mimicpp::signature</text>
<text text-anchor="start" x="259.12" y="-1286" font-family="Helvetica,sans-Serif" font-size="10.00">_remove_ref_qualifier</text>
<text text-anchor="middle" x="325.88" y="-1274.75" font-family="Helvetica,sans-Serif" font-size="10.00">&lt; Return(Params...) const &amp;&amp; &gt;</text>
</a>
</g>
</g>
<!-- Node1&#45;&gt;Node6 -->
<g id="edge6_Node000001_Node000006" class="edge">
<title>Node1&#45;&gt;Node6</title>
<g id="a_edge6_Node000001_Node000006"><a xlink:title=" ">
<path fill="none" stroke="orange" stroke-dasharray="5,2" d="M55.77,-841.55C58.27,-933.3 70.23,-1190.37 126.25,-1248.88 157.91,-1281.93 208.63,-1291.99 250.9,-1293.88"/>
<polygon fill="orange" stroke="orange" points="59.27,-841.65 55.52,-831.74 52.27,-841.83 59.27,-841.65"/>
</a>
</g>
<text text-anchor="start" x="133.75" y="-1304.43" font-family="Helvetica,sans-Serif" font-size="10.00" fill="grey"> &lt; Return(Params...)</text>
<text text-anchor="middle" x="176.5" y="-1293.18" font-family="Helvetica,sans-Serif" font-size="10.00" fill="grey"> const &amp;&amp; &gt;</text>
</g>
<!-- Node7 -->
<g id="Node000007" class="node">
<title>Node7</title>
<g id="a_Node000007"><a xlink:href="../../d5/dae/structmimicpp_1_1signature__remove__ref__qualifier.html" target="_top" xlink:title=" ">
<polygon fill="white" stroke="#666666" points="388.62,-1251.38 263.12,-1251.38 263.12,-1198.38 388.62,-1198.38 388.62,-1251.38"/>
<text text-anchor="start" x="271.12" y="-1237.88" font-family="Helvetica,sans-Serif" font-size="10.00">mimicpp::signature</text>
<text text-anchor="start" x="271.12" y="-1226.62" font-family="Helvetica,sans-Serif" font-size="10.00">_remove_ref_qualifier</text>
<text text-anchor="start" x="271.12" y="-1215.38" font-family="Helvetica,sans-Serif" font-size="10.00">&lt; Return(Params...) const</text>
<text text-anchor="middle" x="325.88" y="-1204.12" font-family="Helvetica,sans-Serif" font-size="10.00"> &amp;&amp;noexcept &gt;</text>
</a>
</g>
</g>
<!-- Node1&#45;&gt;Node7 -->
<g id="edge7_Node000001_Node000007" class="edge">
<title>Node1&#45;&gt;Node7</title>
<g id="a_edge7_Node000001_Node000007"><a xlink:title=" ">
<path fill="none" stroke="orange" stroke-dasharray="5,2" d="M56.96,-841.25C62.2,-922.07 79.97,-1129.61 126.25,-1177.88 161.2,-1214.32 218.78,-1224.76 262.98,-1226.84"/>
<polygon fill="orange" stroke="orange" points="60.46,-841.12 56.34,-831.36 53.47,-841.56 60.46,-841.12"/>
</a>
</g>
<text text-anchor="start" x="131.88" y="-1235.7" font-family="Helvetica,sans-Serif" font-size="10.00" fill="grey"> &lt; Return(Params...)</text>
<text text-anchor="middle" x="176.5" y="-1224.45" font-family="Helvetica,sans-Serif" font-size="10.00" fill="grey"> const &amp;&amp;noexcept &gt;</text>
</g>
<!-- Node8 -->
<g id="Node000008" class="node">
<title>Node8</title>
<g id="a_Node000008"><a xlink:href="../../d5/dae/structmimicpp_1_1signature__remove__ref__qualifier.html" target="_top" xlink:title=" ">
<polygon fill="white" stroke="#666666" points="388.62,-1180.38 263.12,-1180.38 263.12,-1127.38 388.62,-1127.38 388.62,-1180.38"/>
<text text-anchor="start" x="271.12" y="-1166.88" font-family="Helvetica,sans-Serif" font-size="10.00">mimicpp::signature</text>
<text text-anchor="start" x="271.12" y="-1155.62" font-family="Helvetica,sans-Serif" font-size="10.00">_remove_ref_qualifier</text>
<text text-anchor="start" x="271.12" y="-1144.38" font-family="Helvetica,sans-Serif" font-size="10.00">&lt; Return(Params...) const</text>
<text text-anchor="middle" x="325.88" y="-1133.12" font-family="Helvetica,sans-Serif" font-size="10.00"> &amp;noexcept &gt;</text>
</a>
</g>
</g>
<!-- Node1&#45;&gt;Node8 -->
<g id="edge8_Node000001_Node000008" class="edge">
<title>Node1&#45;&gt;Node8</title>
<g id="a_edge8_Node000001_Node000008"><a xlink:title=" ">
<path fill="none" stroke="orange" stroke-dasharray="5,2" d="M58.53,-841.19C66.51,-910.55 88.6,-1070.45 126.25,-1107.88 161.9,-1143.31 219.11,-1153.59 263,-1155.71"/>
<polygon fill="orange" stroke="orange" points="62.05,-841.15 57.46,-831.61 55.1,-841.93 62.05,-841.15"/>
</a>
</g>
<text text-anchor="start" x="133.75" y="-1164.66" font-family="Helvetica,sans-Serif" font-size="10.00" fill="grey"> &lt; Return(Params...)</text>
<text text-anchor="middle" x="176.5" y="-1153.41" font-family="Helvetica,sans-Serif" font-size="10.00" fill="grey"> const &amp;noexcept &gt;</text>
</g>
<!-- Node9 -->
<g id="Node000009" class="node">
<title>Node9</title>
<g id="a_Node000009"><a xlink:href="../../d5/dae/structmimicpp_1_1signature__remove__ref__qualifier.html" target="_top" xlink:title=" ">
<polygon fill="white" stroke="#666666" points="392.75,-1109.75 259,-1109.75 259,-1068 392.75,-1068 392.75,-1109.75"/>
<text text-anchor="start" x="267" y="-1096.25" font-family="Helvetica,sans-Serif" font-size="10.00">mimicpp::signature</text>
<text text-anchor="start" x="267" y="-1085" font-family="Helvetica,sans-Serif" font-size="10.00">_remove_ref_qualifier</text>
<text text-anchor="middle" x="325.88" y="-1073.75" font-family="Helvetica,sans-Serif" font-size="10.00">&lt; Return(Params...) const &gt;</text>
</a>
</g>
</g>
<!-- Node1&#45;&gt;Node9 -->
<g id="edge9_Node000001_Node000009" class="edge">
<title>Node1&#45;&gt;Node9</title>
<g id="a_edge9_Node000001_Node000009"><a xlink:title=" ">
<path fill="none" stroke="orange" stroke-dasharray="5,2" d="M55.89,-841.41C58.86,-890.62 71.84,-983.75 126.25,-1035.88 161.56,-1069.7 215.96,-1082.5 258.91,-1087.09"/>
<polygon fill="orange" stroke="orange" points="59.4,-841.51 55.42,-831.69 52.41,-841.85 59.4,-841.51"/>
</a>
</g>
<text text-anchor="start" x="133.75" y="-1094.84" font-family="Helvetica,sans-Serif" font-size="10.00" fill="grey"> &lt; Return(Params...)</text>
<text text-anchor="middle" x="176.5" y="-1083.59" font-family="Helvetica,sans-Serif" font-size="10.00" fill="grey"> const &gt;</text>
</g>
<!-- Node10 -->
<g id="Node000010" class="node">
<title>Node10</title>
<g id="a_Node000010"><a xlink:href="../../d5/dae/structmimicpp_1_1signature__remove__ref__qualifier.html" target="_top" xlink:title=" ">
<polygon fill="white" stroke="#666666" points="388.62,-1050.38 263.12,-1050.38 263.12,-997.38 388.62,-997.38 388.62,-1050.38"/>
<text text-anchor="start" x="271.12" y="-1036.88" font-family="Helvetica,sans-Serif" font-size="10.00">mimicpp::signature</text>
<text text-anchor="start" x="271.12" y="-1025.62" font-family="Helvetica,sans-Serif" font-size="10.00">_remove_ref_qualifier</text>
<text text-anchor="start" x="271.12" y="-1014.38" font-family="Helvetica,sans-Serif" font-size="10.00">&lt; Return(Params...) const</text>
<text text-anchor="middle" x="325.88" y="-1003.12" font-family="Helvetica,sans-Serif" font-size="10.00"> noexcept &gt;</text>
</a>
</g>
</g>
<!-- Node1&#45;&gt;Node10 -->
<g id="edge10_Node000001_Node000010" class="edge">
<title>Node1&#45;&gt;Node10</title>
<g id="a_edge10_Node000001_Node000010"><a xlink:title=" ">
<path fill="none" stroke="orange" stroke-dasharray="5,2" d="M62.02,-840.91C71.04,-875.28 90.14,-929.2 126.25,-960.88 164.32,-994.28 220.16,-1009.99 262.94,-1017.37"/>
<polygon fill="orange" stroke="orange" points="65.5,-840.4 59.7,-831.53 58.7,-842.08 65.5,-840.4"/>
</a>
</g>
<text text-anchor="start" x="133.75" y="-1022.44" font-family="Helvetica,sans-Serif" font-size="10.00" fill="grey"> &lt; Return(Params...)</text>
<text text-anchor="middle" x="176.5" y="-1011.19" font-family="Helvetica,sans-Serif" font-size="10.00" fill="grey"> const noexcept &gt;</text>
</g>
<!-- Node11 -->
<g id="Node000011" class="node">
<title>Node11</title>
<g id="a_Node000011"><a xlink:href="../../d5/dae/structmimicpp_1_1signature__remove__ref__qualifier.html" target="_top" xlink:title=" ">
<polygon fill="white" stroke="#666666" points="400.25,-979.75 251.5,-979.75 251.5,-938 400.25,-938 400.25,-979.75"/>
<text text-anchor="start" x="259.5" y="-966.25" font-family="Helvetica,sans-Serif" font-size="10.00">mimicpp::signature</text>
<text text-anchor="start" x="259.5" y="-955" font-family="Helvetica,sans-Serif" font-size="10.00">_remove_ref_qualifier</text>
<text text-anchor="middle" x="325.88" y="-943.75" font-family="Helvetica,sans-Serif" font-size="10.00">&lt; Return(Params...) noexcept &gt;</text>
</a>
</g>
</g>
<!-- Node1&#45;&gt;Node11 -->
<g id="edge11_Node000001_Node000011" class="edge">
<title>Node1&#45;&gt;Node11</title>
<g id="a_edge11_Node000001_Node000011"><a xlink:title=" ">
<path fill="none" stroke="orange" stroke-dasharray="5,2" d="M75.8,-838.83C88.65,-855.53 106.46,-875.59 126.25,-888.88 164.04,-914.26 212.05,-931.51 251.4,-942.53"/>
<polygon fill="orange" stroke="orange" points="78.88,-837.1 70.1,-831.17 73.26,-841.28 78.88,-837.1"/>
</a>
</g>
<text text-anchor="start" x="133.75" y="-947.39" font-family="Helvetica,sans-Serif" font-size="10.00" fill="grey"> &lt; Return(Params...)</text>
<text text-anchor="middle" x="176.5" y="-936.14" font-family="Helvetica,sans-Serif" font-size="10.00" fill="grey"> noexcept &gt;</text>
</g>
<!-- Node12 -->
<g id="Node000012" class="node">
<title>Node12</title>
<g id="a_Node000012"><a xlink:href="../../d5/dae/structmimicpp_1_1signature__remove__ref__qualifier.html" target="_top" xlink:title=" ">
<polygon fill="white" stroke="#666666" points="383,-919.75 268.75,-919.75 268.75,-878 383,-878 383,-919.75"/>
<text text-anchor="start" x="276.75" y="-906.25" font-family="Helvetica,sans-Serif" font-size="10.00">mimicpp::signature</text>
<text text-anchor="start" x="276.75" y="-895" font-family="Helvetica,sans-Serif" font-size="10.00">_remove_ref_qualifier</text>
<text text-anchor="middle" x="325.88" y="-883.75" font-family="Helvetica,sans-Serif" font-size="10.00">&lt; Return(Params...)&amp; &gt;</text>
</a>
</g>
</g>
<!-- Node1&#45;&gt;Node12 -->
<g id="edge12_Node000001_Node000012" class="edge">
<title>Node1&#45;&gt;Node12</title>
<g id="a_edge12_Node000001_Node000012"><a xlink:title=" ">
<path fill="none" stroke="orange" stroke-dasharray="5,2" d="M106.78,-834.82C113.26,-837.71 119.86,-840.47 126.25,-842.88 173.19,-860.56 228.19,-875.65 268.4,-885.7"/>
<polygon fill="orange" stroke="orange" points="108.66,-831.83 98.11,-830.85 105.74,-838.2 108.66,-831.83"/>
</a>
</g>
<text text-anchor="middle" x="176.5" y="-875.48" font-family="Helvetica,sans-Serif" font-size="10.00" fill="grey"> &lt; Return(Params...)&amp; &gt;</text>
</g>
<!-- Node13 -->
<g id="Node000013" class="node">
<title>Node13</title>
<g id="a_Node000013"><a xlink:href="../../d5/dae/structmimicpp_1_1signature__remove__ref__qualifier.html" target="_top" xlink:title=" ">
<polygon fill="white" stroke="#666666" points="380,-859.75 271.75,-859.75 271.75,-818 380,-818 380,-859.75"/>
<text text-anchor="start" x="279.75" y="-846.25" font-family="Helvetica,sans-Serif" font-size="10.00">mimicpp::signature</text>
<text text-anchor="start" x="279.75" y="-835" font-family="Helvetica,sans-Serif" font-size="10.00">_remove_ref_qualifier</text>
<text text-anchor="middle" x="325.88" y="-823.75" font-family="Helvetica,sans-Serif" font-size="10.00">&lt; Return(Params...)&gt;</text>
</a>
</g>
</g>
<!-- Node1&#45;&gt;Node13 -->
<g id="edge13_Node000001_Node000013" class="edge">
<title>Node1&#45;&gt;Node13</title>
<g id="a_edge13_Node000001_Node000013"><a xlink:title=" ">
<path fill="none" stroke="orange" stroke-dasharray="5,2" d="M120.16,-816.11C166.46,-821.26 227.9,-828.09 271.36,-832.92"/>
<polygon fill="orange" stroke="orange" points="120.57,-812.63 110.25,-815.01 119.8,-819.59 120.57,-812.63"/>
</a>
</g>
<text text-anchor="middle" x="176.5" y="-829.19" font-family="Helvetica,sans-Serif" font-size="10.00" fill="grey"> &lt; Return(Params...)&gt;</text>
</g>
<!-- Node14 -->
<g id="Node000014" class="node">
<title>Node14</title>
<g id="a_Node000014"><a xlink:href="../../d5/dae/structmimicpp_1_1signature__remove__ref__qualifier.html" target="_top" xlink:title=" ">
<polygon fill="white" stroke="#666666" points="392.38,-799.75 259.38,-799.75 259.38,-758 392.38,-758 392.38,-799.75"/>
<text text-anchor="start" x="267.38" y="-786.25" font-family="Helvetica,sans-Serif" font-size="10.00">mimicpp::signature</text>
<text text-anchor="start" x="267.38" y="-775" font-family="Helvetica,sans-Serif" font-size="10.00">_remove_ref_qualifier</text>
<text text-anchor="middle" x="325.88" y="-763.75" font-family="Helvetica,sans-Serif" font-size="10.00">&lt; Return(Params...,...) &amp;&amp; &gt;</text>
</a>
</g>
</g>
<!-- Node1&#45;&gt;Node14 -->
<g id="edge14_Node000001_Node000014" class="edge">
<title>Node1&#45;&gt;Node14</title>
<g id="a_edge14_Node000001_Node000014"><a xlink:title=" ">
<path fill="none" stroke="orange" stroke-dasharray="5,2" d="M119.65,-791.51C121.87,-791.1 124.08,-790.72 126.25,-790.38 170.27,-783.45 220.36,-780.58 259.22,-779.44"/>
<polygon fill="orange" stroke="orange" points="119.06,-788.06 109.96,-793.49 120.46,-794.92 119.06,-788.06"/>
</a>
</g>
<text text-anchor="start" x="133.75" y="-803.38" font-family="Helvetica,sans-Serif" font-size="10.00" fill="grey"> &lt; Return(Params...,</text>
<text text-anchor="middle" x="176.5" y="-792.12" font-family="Helvetica,sans-Serif" font-size="10.00" fill="grey">...) &amp;&amp; &gt;</text>
</g>
<!-- Node15 -->
<g id="Node000015" class="node">
<title>Node15</title>
<g id="a_Node000015"><a xlink:href="../../d5/dae/structmimicpp_1_1signature__remove__ref__qualifier.html" target="_top" xlink:title=" ">
<polygon fill="white" stroke="#666666" points="380.38,-740.38 271.38,-740.38 271.38,-687.38 380.38,-687.38 380.38,-740.38"/>
<text text-anchor="start" x="279.38" y="-726.88" font-family="Helvetica,sans-Serif" font-size="10.00">mimicpp::signature</text>
<text text-anchor="start" x="279.38" y="-715.62" font-family="Helvetica,sans-Serif" font-size="10.00">_remove_ref_qualifier</text>
<text text-anchor="start" x="279.38" y="-704.38" font-family="Helvetica,sans-Serif" font-size="10.00">&lt; Return(Params...,...)</text>
<text text-anchor="middle" x="325.88" y="-693.12" font-family="Helvetica,sans-Serif" font-size="10.00"> &amp;&amp;noexcept &gt;</text>
</a>
</g>
</g>
<!-- Node1&#45;&gt;Node15 -->
<g id="edge15_Node000001_Node000015" class="edge">
<title>Node1&#45;&gt;Node15</title>
<g id="a_edge15_Node000001_Node000015"><a xlink:title=" ">
<path fill="none" stroke="orange" stroke-dasharray="5,2" d="M85.98,-780.35C97.81,-770.79 111.92,-760.9 126.25,-754.38 172.53,-733.29 229.85,-723.11 271,-718.23"/>
<polygon fill="orange" stroke="orange" points="83.98,-777.46 78.57,-786.57 88.48,-782.82 83.98,-777.46"/>
</a>
</g>
<text text-anchor="start" x="133.75" y="-767.38" font-family="Helvetica,sans-Serif" font-size="10.00" fill="grey"> &lt; Return(Params...,</text>
<text text-anchor="middle" x="176.5" y="-756.12" font-family="Helvetica,sans-Serif" font-size="10.00" fill="grey">...) &amp;&amp;noexcept &gt;</text>
</g>
<!-- Node16 -->
<g id="Node000016" class="node">
<title>Node16</title>
<g id="a_Node000016"><a xlink:href="../../d5/dae/structmimicpp_1_1signature__remove__ref__qualifier.html" target="_top" xlink:title=" ">
<polygon fill="white" stroke="#666666" points="380.38,-669.38 271.38,-669.38 271.38,-616.38 380.38,-616.38 380.38,-669.38"/>
<text text-anchor="start" x="279.38" y="-655.88" font-family="Helvetica,sans-Serif" font-size="10.00">mimicpp::signature</text>
<text text-anchor="start" x="279.38" y="-644.62" font-family="Helvetica,sans-Serif" font-size="10.00">_remove_ref_qualifier</text>
<text text-anchor="start" x="279.38" y="-633.38" font-family="Helvetica,sans-Serif" font-size="10.00">&lt; Return(Params...,...)</text>
<text text-anchor="middle" x="325.88" y="-622.12" font-family="Helvetica,sans-Serif" font-size="10.00"> &amp;noexcept &gt;</text>
</a>
</g>
</g>
<!-- Node1&#45;&gt;Node16 -->
<g id="edge16_Node000001_Node000016" class="edge">
<title>Node1&#45;&gt;Node16</title>
<g id="a_edge16_Node000001_Node000016"><a xlink:title=" ">
<path fill="none" stroke="orange" stroke-dasharray="5,2" d="M67.89,-777.22C79.53,-752.26 99.06,-718.43 126.25,-698.38 168.75,-667.02 228.21,-653.37 270.98,-647.44"/>
<polygon fill="orange" stroke="orange" points="64.74,-775.7 63.86,-786.26 71.13,-778.55 64.74,-775.7"/>
</a>
</g>
<text text-anchor="start" x="133.75" y="-711.38" font-family="Helvetica,sans-Serif" font-size="10.00" fill="grey"> &lt; Return(Params...,</text>
<text text-anchor="middle" x="176.5" y="-700.12" font-family="Helvetica,sans-Serif" font-size="10.00" fill="grey">...) &amp;noexcept &gt;</text>
</g>
<!-- Node17 -->
<g id="Node000017" class="node">
<title>Node17</title>
<g id="a_Node000017"><a xlink:href="../../d5/dae/structmimicpp_1_1signature__remove__ref__qualifier.html" target="_top" xlink:title=" ">
<polygon fill="white" stroke="#666666" points="380.38,-598.38 271.38,-598.38 271.38,-545.38 380.38,-545.38 380.38,-598.38"/>
<text text-anchor="start" x="279.38" y="-584.88" font-family="Helvetica,sans-Serif" font-size="10.00">mimicpp::signature</text>
<text text-anchor="start" x="279.38" y="-573.62" font-family="Helvetica,sans-Serif" font-size="10.00">_remove_ref_qualifier</text>
<text text-anchor="start" x="279.38" y="-562.38" font-family="Helvetica,sans-Serif" font-size="10.00">&lt; Return(Params...,...)</text>
<text text-anchor="middle" x="325.88" y="-551.12" font-family="Helvetica,sans-Serif" font-size="10.00"> const &amp; &gt;</text>
</a>
</g>
</g>
<!-- Node1&#45;&gt;Node17 -->
<g id="edge17_Node000001_Node000017" class="edge">
<title>Node1&#45;&gt;Node17</title>
<g id="a_edge17_Node000001_Node000017"><a xlink:title=" ">
<path fill="none" stroke="orange" stroke-dasharray="5,2" d="M59.36,-776.39C66.29,-736.4 83.81,-669.05 126.25,-630.38 165.97,-594.18 227.04,-580.31 270.97,-575.03"/>
<polygon fill="orange" stroke="orange" points="55.93,-775.7 57.81,-786.12 62.84,-776.8 55.93,-775.7"/>
</a>
</g>
<text text-anchor="start" x="133.75" y="-643.38" font-family="Helvetica,sans-Serif" font-size="10.00" fill="grey"> &lt; Return(Params...,</text>
<text text-anchor="middle" x="176.5" y="-632.12" font-family="Helvetica,sans-Serif" font-size="10.00" fill="grey">...) const &amp; &gt;</text>
</g>
<!-- Node18 -->
<g id="Node000018" class="node">
<title>Node18</title>
<g id="a_Node000018"><a xlink:href="../../d5/dae/structmimicpp_1_1signature__remove__ref__qualifier.html" target="_top" xlink:title=" ">
<polygon fill="white" stroke="#666666" points="380.38,-527.38 271.38,-527.38 271.38,-474.38 380.38,-474.38 380.38,-527.38"/>
<text text-anchor="start" x="279.38" y="-513.88" font-family="Helvetica,sans-Serif" font-size="10.00">mimicpp::signature</text>
<text text-anchor="start" x="279.38" y="-502.62" font-family="Helvetica,sans-Serif" font-size="10.00">_remove_ref_qualifier</text>
<text text-anchor="start" x="279.38" y="-491.38" font-family="Helvetica,sans-Serif" font-size="10.00">&lt; Return(Params...,...)</text>
<text text-anchor="middle" x="325.88" y="-480.12" font-family="Helvetica,sans-Serif" font-size="10.00"> const &amp;&amp; &gt;</text>
</a>
</g>
</g>
<!-- Node1&#45;&gt;Node18 -->
<g id="edge18_Node000001_Node000018" class="edge">
<title>Node1&#45;&gt;Node18</title>
<g id="a_edge18_Node000001_Node000018"><a xlink:title=" ">
<path fill="none" stroke="orange" stroke-dasharray="5,2" d="M54.71,-776.33C55.87,-722.85 66.16,-616.34 126.25,-556.38 164.39,-518.31 226.34,-505.82 270.91,-501.99"/>
<polygon fill="orange" stroke="orange" points="51.22,-775.96 54.61,-786 58.22,-776.04 51.22,-775.96"/>
</a>
</g>
<text text-anchor="start" x="133.75" y="-569.38" font-family="Helvetica,sans-Serif" font-size="10.00" fill="grey"> &lt; Return(Params...,</text>
<text text-anchor="middle" x="176.5" y="-558.12" font-family="Helvetica,sans-Serif" font-size="10.00" fill="grey">...) const &amp;&amp; &gt;</text>
</g>
<!-- Node19 -->
<g id="Node000019" class="node">
<title>Node19</title>
<g id="a_Node000019"><a xlink:href="../../d5/dae/structmimicpp_1_1signature__remove__ref__qualifier.html" target="_top" xlink:title=" ">
<polygon fill="white" stroke="#666666" points="380.38,-456.38 271.38,-456.38 271.38,-403.38 380.38,-403.38 380.38,-456.38"/>
<text text-anchor="start" x="279.38" y="-442.88" font-family="Helvetica,sans-Serif" font-size="10.00">mimicpp::signature</text>
<text text-anchor="start" x="279.38" y="-431.62" font-family="Helvetica,sans-Serif" font-size="10.00">_remove_ref_qualifier</text>
<text text-anchor="start" x="279.38" y="-420.38" font-family="Helvetica,sans-Serif" font-size="10.00">&lt; Return(Params...,...)</text>
<text text-anchor="middle" x="325.88" y="-409.12" font-family="Helvetica,sans-Serif" font-size="10.00"> const &amp;&amp;noexcept &gt;</text>
</a>
</g>
</g>
<!-- Node1&#45;&gt;Node19 -->
<g id="edge19_Node000001_Node000019" class="edge">
<title>Node1&#45;&gt;Node19</title>
<g id="a_edge19_Node000001_Node000019"><a xlink:title=" ">
<path fill="none" stroke="orange" stroke-dasharray="5,2" d="M57.95,-776.3C65.02,-702.27 85.88,-524.56 126.25,-482.38 163.61,-443.34 226.32,-432.12 271.28,-429.46"/>
<polygon fill="orange" stroke="orange" points="54.48,-775.87 57.04,-786.15 61.45,-776.51 54.48,-775.87"/>
</a>
</g>
<text text-anchor="start" x="127" y="-495.38" font-family="Helvetica,sans-Serif" font-size="10.00" fill="grey"> &lt; Return(Params...,</text>
<text text-anchor="middle" x="176.5" y="-484.12" font-family="Helvetica,sans-Serif" font-size="10.00" fill="grey">...) const &amp;&amp;noexcept &gt;</text>
</g>
<!-- Node20 -->
<g id="Node000020" class="node">
<title>Node20</title>
<g id="a_Node000020"><a xlink:href="../../d5/dae/structmimicpp_1_1signature__remove__ref__qualifier.html" target="_top" xlink:title=" ">
<polygon fill="white" stroke="#666666" points="380.38,-385.38 271.38,-385.38 271.38,-332.38 380.38,-332.38 380.38,-385.38"/>
<text text-anchor="start" x="279.38" y="-371.88" font-family="Helvetica,sans-Serif" font-size="10.00">mimicpp::signature</text>
<text text-anchor="start" x="279.38" y="-360.62" font-family="Helvetica,sans-Serif" font-size="10.00">_remove_ref_qualifier</text>
<text text-anchor="start" x="279.38" y="-349.38" font-family="Helvetica,sans-Serif" font-size="10.00">&lt; Return(Params...,...)</text>
<text text-anchor="middle" x="325.88" y="-338.12" font-family="Helvetica,sans-Serif" font-size="10.00"> const &amp;noexcept &gt;</text>
</a>
</g>
</g>
<!-- Node1&#45;&gt;Node20 -->
<g id="edge20_Node000001_Node000020" class="edge">
<title>Node1&#45;&gt;Node20</title>
<g id="a_edge20_Node000001_Node000020"><a xlink:title=" ">
<path fill="none" stroke="orange" stroke-dasharray="5,2" d="M56.5,-776.19C60.77,-690.58 76.65,-462.72 126.25,-409.38 162.95,-369.9 225.78,-359.46 270.95,-357.51"/>
<polygon fill="orange" stroke="orange" points="53.01,-775.86 56.03,-786.01 60,-776.19 53.01,-775.86"/>
</a>
</g>
<text text-anchor="start" x="130.38" y="-422.38" font-family="Helvetica,sans-Serif" font-size="10.00" fill="grey"> &lt; Return(Params...,</text>
<text text-anchor="middle" x="176.5" y="-411.12" font-family="Helvetica,sans-Serif" font-size="10.00" fill="grey">...) const &amp;noexcept &gt;</text>
</g>
<!-- Node21 -->
<g id="Node000021" class="node">
<title>Node21</title>
<g id="a_Node000021"><a xlink:href="../../d5/dae/structmimicpp_1_1signature__remove__ref__qualifier.html" target="_top" xlink:title=" ">
<polygon fill="white" stroke="#666666" points="380.38,-314.38 271.38,-314.38 271.38,-261.38 380.38,-261.38 380.38,-314.38"/>
<text text-anchor="start" x="279.38" y="-300.88" font-family="Helvetica,sans-Serif" font-size="10.00">mimicpp::signature</text>
<text text-anchor="start" x="279.38" y="-289.62" font-family="Helvetica,sans-Serif" font-size="10.00">_remove_ref_qualifier</text>
<text text-anchor="start" x="279.38" y="-278.38" font-family="Helvetica,sans-Serif" font-size="10.00">&lt; Return(Params...,...)</text>
<text text-anchor="middle" x="325.88" y="-267.12" font-family="Helvetica,sans-Serif" font-size="10.00"> const &gt;</text>
</a>
</g>
</g>
<!-- Node1&#45;&gt;Node21 -->
<g id="edge21_Node000001_Node000021" class="edge">
<title>Node1&#45;&gt;Node21</title>
<g id="a_edge21_Node000001_Node000021"><a xlink:title=" ">
<path fill="none" stroke="orange" stroke-dasharray="5,2" d="M55.47,-776.49C57.16,-680.65 67.15,-401.05 126.25,-336.38 162.65,-296.54 225.84,-286.91 271.19,-285.66"/>
<polygon fill="orange" stroke="orange" points="51.97,-776.18 55.32,-786.24 58.97,-776.29 51.97,-776.18"/>
</a>
</g>
<text text-anchor="start" x="133.75" y="-349.38" font-family="Helvetica,sans-Serif" font-size="10.00" fill="grey"> &lt; Return(Params...,</text>
<text text-anchor="middle" x="176.5" y="-338.12" font-family="Helvetica,sans-Serif" font-size="10.00" fill="grey">...) const &gt;</text>
</g>
<!-- Node22 -->
<g id="Node000022" class="node">
<title>Node22</title>
<g id="a_Node000022"><a xlink:href="../../d5/dae/structmimicpp_1_1signature__remove__ref__qualifier.html" target="_top" xlink:title=" ">
<polygon fill="white" stroke="#666666" points="380.38,-243.38 271.38,-243.38 271.38,-190.38 380.38,-190.38 380.38,-243.38"/>
<text text-anchor="start" x="279.38" y="-229.88" font-family="Helvetica,sans-Serif" font-size="10.00">mimicpp::signature</text>
<text text-anchor="start" x="279.38" y="-218.62" font-family="Helvetica,sans-Serif" font-size="10.00">_remove_ref_qualifier</text>
<text text-anchor="start" x="279.38" y="-207.38" font-family="Helvetica,sans-Serif" font-size="10.00">&lt; Return(Params...,...)</text>
<text text-anchor="middle" x="325.88" y="-196.12" font-family="Helvetica,sans-Serif" font-size="10.00"> const noexcept &gt;</text>
</a>
</g>
</g>
<!-- Node1&#45;&gt;Node22 -->
<g id="edge22_Node000001_Node000022" class="edge">
<title>Node1&#45;&gt;Node22</title>
<g id="a_edge22_Node000001_Node000022"><a xlink:title=" ">
<path fill="none" stroke="orange" stroke-dasharray="5,2" d="M54.71,-776.16C54.05,-670.26 57.62,-339.26 126.25,-263.38 162.36,-223.45 225.61,-214.54 271.04,-213.89"/>
<polygon fill="orange" stroke="orange" points="51.21,-776.17 54.79,-786.14 58.21,-776.11 51.21,-776.17"/>
</a>
</g>
<text text-anchor="start" x="133.75" y="-276.38" font-family="Helvetica,sans-Serif" font-size="10.00" fill="grey"> &lt; Return(Params...,</text>
<text text-anchor="middle" x="176.5" y="-265.12" font-family="Helvetica,sans-Serif" font-size="10.00" fill="grey">...) const noexcept &gt;</text>
</g>
<!-- Node23 -->
<g id="Node000023" class="node">
<title>Node23</title>
<g id="a_Node000023"><a xlink:href="../../d5/dae/structmimicpp_1_1signature__remove__ref__qualifier.html" target="_top" xlink:title=" ">
<polygon fill="white" stroke="#666666" points="380.38,-172.38 271.38,-172.38 271.38,-119.38 380.38,-119.38 380.38,-172.38"/>
<text text-anchor="start" x="279.38" y="-158.88" font-family="Helvetica,sans-Serif" font-size="10.00">mimicpp::signature</text>
<text text-anchor="start" x="279.38" y="-147.62" font-family="Helvetica,sans-Serif" font-size="10.00">_remove_ref_qualifier</text>
<text text-anchor="start" x="279.38" y="-136.38" font-family="Helvetica,sans-Serif" font-size="10.00">&lt; Return(Params...,...)</text>
<text text-anchor="middle" x="325.88" y="-125.12" font-family="Helvetica,sans-Serif" font-size="10.00"> noexcept &gt;</text>
</a>
</g>
</g>
<!-- Node1&#45;&gt;Node23 -->
<g id="edge23_Node000001_Node000023" class="edge">
<title>Node1&#45;&gt;Node23</title>
<g id="a_edge23_Node000001_Node000023"><a xlink:title=" ">
<path fill="none" stroke="orange" stroke-dasharray="5,2" d="M56.71,-776.23C62.87,-655 86.89,-235.34 126.25,-191.38 162.11,-151.31 225.41,-142.78 270.92,-142.46"/>
<polygon fill="orange" stroke="orange" points="53.21,-775.96 56.21,-786.13 60.21,-776.31 53.21,-775.96"/>
</a>
</g>
<text text-anchor="start" x="133.75" y="-204.38" font-family="Helvetica,sans-Serif" font-size="10.00" fill="grey"> &lt; Return(Params...,</text>
<text text-anchor="middle" x="176.5" y="-193.12" font-family="Helvetica,sans-Serif" font-size="10.00" fill="grey">...) noexcept &gt;</text>
</g>
<!-- Node24 -->
<g id="Node000024" class="node">
<title>Node24</title>
<g id="a_Node000024"><a xlink:href="../../d5/dae/structmimicpp_1_1signature__remove__ref__qualifier.html" target="_top" xlink:title=" ">
<polygon fill="white" stroke="#666666" points="387.88,-101.75 263.88,-101.75 263.88,-60 387.88,-60 387.88,-101.75"/>
<text text-anchor="start" x="271.88" y="-88.25" font-family="Helvetica,sans-Serif" font-size="10.00">mimicpp::signature</text>
<text text-anchor="start" x="271.88" y="-77" font-family="Helvetica,sans-Serif" font-size="10.00">_remove_ref_qualifier</text>
<text text-anchor="middle" x="325.88" y="-65.75" font-family="Helvetica,sans-Serif" font-size="10.00">&lt; Return(Params...,...)&amp; &gt;</text>
</a>
</g>
</g>
<!-- Node1&#45;&gt;Node24 -->
<g id="edge24_Node000001_Node000024" class="edge">
<title>Node1&#45;&gt;Node24</title>
<g id="a_edge24_Node000001_Node000024"><a xlink:title=" ">
<path fill="none" stroke="orange" stroke-dasharray="5,2" d="M56.24,-776.26C60.99,-646.1 81.39,-168.4 126.25,-119.38 160.4,-82.06 218.97,-74.54 263.69,-75.11"/>
<polygon fill="orange" stroke="orange" points="52.74,-776.12 55.88,-786.24 59.74,-776.37 52.74,-776.12"/>
</a>
</g>
<text text-anchor="start" x="133.75" y="-132.38" font-family="Helvetica,sans-Serif" font-size="10.00" fill="grey"> &lt; Return(Params...,</text>
<text text-anchor="middle" x="176.5" y="-121.12" font-family="Helvetica,sans-Serif" font-size="10.00" fill="grey">...)&amp; &gt;</text>
</g>
<!-- Node25 -->
<g id="Node000025" class="node">
<title>Node25</title>
<g id="a_Node000025"><a xlink:href="../../d5/dae/structmimicpp_1_1signature__remove__ref__qualifier.html" target="_top" xlink:title=" ">
<polygon fill="white" stroke="#666666" points="383.38,-41.75 268.38,-41.75 268.38,0 383.38,0 383.38,-41.75"/>
<text text-anchor="start" x="276.38" y="-28.25" font-family="Helvetica,sans-Serif" font-size="10.00">mimicpp::signature</text>
<text text-anchor="start" x="276.38" y="-17" font-family="Helvetica,sans-Serif" font-size="10.00">_remove_ref_qualifier</text>
<text text-anchor="middle" x="325.88" y="-5.75" font-family="Helvetica,sans-Serif" font-size="10.00">&lt; Return(Params...,...)&gt;</text>
</a>
</g>
</g>
<!-- Node1&#45;&gt;Node25 -->
<g id="edge25_Node000001_Node000025" class="edge">
<title>Node1&#45;&gt;Node25</title>
<g id="a_edge25_Node000001_Node000025"><a xlink:title=" ">
<path fill="none" stroke="orange" stroke-dasharray="5,2" d="M55.86,-776.11C59.27,-637.49 75.64,-103.79 126.25,-50.38 161.86,-12.79 222.99,-8.89 268.05,-12.23"/>
<polygon fill="orange" stroke="orange" points="52.36,-775.97 55.62,-786.05 59.36,-776.14 52.36,-775.97"/>
</a>
</g>
<text text-anchor="start" x="133.75" y="-63.38" font-family="Helvetica,sans-Serif" font-size="10.00" fill="grey"> &lt; Return(Params...,</text>
<text text-anchor="middle" x="176.5" y="-52.12" font-family="Helvetica,sans-Serif" font-size="10.00" fill="grey">...)&gt;</text>
</g>
</g>
</svg>
