<?xml version="1.0" encoding="UTF-8" standalone="no"?>
<!DOCTYPE svg PUBLIC "-//W3C//DTD SVG 1.1//EN"
 "http://www.w3.org/Graphics/SVG/1.1/DTD/svg11.dtd">
<!-- Generated by graphviz version 12.2.1 (20241206.2353)
 -->
<!-- Title: mimic++/macros/InterfaceMocking.hpp Pages: 1 -->
<svg width="204pt" height="149pt"
 viewBox="0.00 0.00 204.12 149.00" xmlns="http://www.w3.org/2000/svg" xmlns:xlink="http://www.w3.org/1999/xlink">
<g id="graph0" class="graph" transform="scale(1 1) rotate(0) translate(4 145)">
<title>mimic++/macros/InterfaceMocking.hpp</title>
<!-- Node1 -->
<g id="Node000001" class="node">
<title>Node1</title>
<g id="a_Node000001"><a xlink:title=" ">
<polygon fill="#999999" stroke="#666666" points="140.12,-141 9.38,-141 9.38,-110.5 140.12,-110.5 140.12,-141"/>
<text text-anchor="start" x="17.38" y="-127.5" font-family="Helvetica,sans-Serif" font-size="10.00">mimic++/macros/Interface</text>
<text text-anchor="middle" x="74.75" y="-116.25" font-family="Helvetica,sans-Serif" font-size="10.00">Mocking.hpp</text>
</a>
</g>
</g>
<!-- Node2 -->
<g id="Node000002" class="node">
<title>Node2</title>
<g id="a_Node000002"><a xlink:href="../../dd/dfa/macros_2_common_8hpp.html" target="_top" xlink:title=" ">
<polygon fill="white" stroke="#666666" points="149.5,-19.25 0,-19.25 0,0 149.5,0 149.5,-19.25"/>
<text text-anchor="middle" x="74.75" y="-5.75" font-family="Helvetica,sans-Serif" font-size="10.00">mimic++/macros/Common.hpp</text>
</a>
</g>
</g>
<!-- Node1&#45;&gt;Node2 -->
<g id="edge1_Node000001_Node000002" class="edge">
<title>Node1&#45;&gt;Node2</title>
<g id="a_edge1_Node000001_Node000002"><a xlink:title=" ">
<path fill="none" stroke="#63b8ff" d="M61.86,-110.2C51.22,-96.38 38.77,-74.86 44.75,-55.25 47.67,-45.69 53.39,-36.32 59.06,-28.65"/>
<polygon fill="#63b8ff" stroke="#63b8ff" points="61.78,-30.86 65.31,-20.86 56.32,-26.48 61.78,-30.86"/>
</a>
</g>
</g>
<!-- Node3 -->
<g id="Node000003" class="node">
<title>Node3</title>
<g id="a_Node000003"><a xlink:href="../../da/d64/macros_2_facade_8hpp.html" target="_top" xlink:title=" ">
<polygon fill="white" stroke="#666666" points="196.12,-74.5 53.38,-74.5 53.38,-55.25 196.12,-55.25 196.12,-74.5"/>
<text text-anchor="middle" x="124.75" y="-61" font-family="Helvetica,sans-Serif" font-size="10.00">mimic++/macros/Facade.hpp</text>
</a>
</g>
</g>
<!-- Node1&#45;&gt;Node3 -->
<g id="edge2_Node000001_Node000003" class="edge">
<title>Node1&#45;&gt;Node3</title>
<g id="a_edge2_Node000001_Node000003"><a xlink:title=" ">
<path fill="none" stroke="#63b8ff" d="M87.11,-110.2C93.92,-102.18 102.42,-92.17 109.62,-83.69"/>
<polygon fill="#63b8ff" stroke="#63b8ff" points="112.26,-85.99 116.06,-76.1 106.92,-81.46 112.26,-85.99"/>
</a>
</g>
</g>
<!-- Node3&#45;&gt;Node2 -->
<g id="edge3_Node000003_Node000002" class="edge">
<title>Node3&#45;&gt;Node2</title>
<g id="a_edge3_Node000003_Node000002"><a xlink:title=" ">
<path fill="none" stroke="#63b8ff" d="M116.49,-55.08C109.59,-47.73 99.53,-37.01 91.01,-27.94"/>
<polygon fill="#63b8ff" stroke="#63b8ff" points="93.62,-25.61 84.22,-20.71 88.52,-30.4 93.62,-25.61"/>
</a>
</g>
</g>
</g>
</svg>
