<?xml version="1.0" encoding="UTF-8" standalone="no"?>
<!DOCTYPE svg PUBLIC "-//W3C//DTD SVG 1.1//EN"
 "http://www.w3.org/Graphics/SVG/1.1/DTD/svg11.dtd">
<!-- Generated by graphviz version 12.2.1 (20241206.2353)
 -->
<!-- Title: mimicpp::BasicScopedSequence&lt; Strategy &gt; Pages: 1 -->
<svg width="967pt" height="101pt"
 viewBox="0.00 0.00 967.00 101.08" xmlns="http://www.w3.org/2000/svg" xmlns:xlink="http://www.w3.org/1999/xlink">
<g id="graph0" class="graph" transform="scale(1 1) rotate(0) translate(4 97.08)">
<title>mimicpp::BasicScopedSequence&lt; Strategy &gt;</title>
<!-- Node1 -->
<g id="Node000001" class="node">
<title>Node1</title>
<g id="a_Node000001"><a xlink:title="A sequence type that verifies its owned expectations during destruction.">
<polygon fill="#999999" stroke="#666666" points="650.5,-58.5 492,-58.5 492,-28 650.5,-28 650.5,-58.5"/>
<text text-anchor="start" x="500" y="-45" font-family="Helvetica,sans-Serif" font-size="10.00">mimicpp::BasicScopedSequence</text>
<text text-anchor="middle" x="571.25" y="-33.75" font-family="Helvetica,sans-Serif" font-size="10.00">&lt; Strategy &gt;</text>
</a>
</g>
</g>
<!-- Node4 -->
<g id="Node000004" class="node">
<title>Node4</title>
<g id="a_Node000004"><a xlink:title=" ">
<polygon fill="white" stroke="#666666" points="959,-86.5 781.75,-86.5 781.75,-56 959,-56 959,-86.5"/>
<text text-anchor="start" x="789.75" y="-73" font-family="Helvetica,sans-Serif" font-size="10.00">mimicpp::BasicScopedSequence</text>
<text text-anchor="middle" x="870.38" y="-61.75" font-family="Helvetica,sans-Serif" font-size="10.00">&lt; sequence::detail::GreedyStrategy{}&gt;</text>
</a>
</g>
</g>
<!-- Node1&#45;&gt;Node4 -->
<g id="edge3_Node000001_Node000004" class="edge">
<title>Node1&#45;&gt;Node4</title>
<g id="a_edge3_Node000001_Node000004"><a xlink:title=" ">
<path fill="none" stroke="orange" stroke-dasharray="5,2" d="M661.73,-51.68C699.6,-55.25 743.58,-59.4 781.3,-62.95"/>
<polygon fill="orange" stroke="orange" points="662.5,-48.24 652.21,-50.79 661.84,-55.21 662.5,-48.24"/>
</a>
</g>
<text text-anchor="start" x="671.5" y="-80.58" font-family="Helvetica,sans-Serif" font-size="10.00" fill="grey">&lt; sequence::detail</text>
<text text-anchor="start" x="671.5" y="-65.33" font-family="Helvetica,sans-Serif" font-size="10.00" fill="grey">  ::GreedyStrategy{}&gt;</text>
</g>
<!-- Node5 -->
<g id="Node000005" class="node">
<title>Node5</title>
<g id="a_Node000005"><a xlink:title=" ">
<polygon fill="white" stroke="#666666" points="953.75,-30.5 787,-30.5 787,0 953.75,0 953.75,-30.5"/>
<text text-anchor="start" x="795" y="-17" font-family="Helvetica,sans-Serif" font-size="10.00">mimicpp::BasicScopedSequence</text>
<text text-anchor="middle" x="870.38" y="-5.75" font-family="Helvetica,sans-Serif" font-size="10.00">&lt; sequence::detail::LazyStrategy{}&gt;</text>
</a>
</g>
</g>
<!-- Node1&#45;&gt;Node5 -->
<g id="edge4_Node000001_Node000005" class="edge">
<title>Node1&#45;&gt;Node5</title>
<g id="a_edge4_Node000001_Node000005"><a xlink:title=" ">
<path fill="none" stroke="orange" stroke-dasharray="5,2" d="M630.8,-24.52C643.13,-21.31 656.15,-18.47 668.5,-16.75 707.19,-11.37 750.47,-10.42 786.93,-11.04"/>
<polygon fill="orange" stroke="orange" points="629.9,-21.13 621.17,-27.14 631.74,-27.89 629.9,-21.13"/>
</a>
</g>
<text text-anchor="start" x="676.75" y="-36.75" font-family="Helvetica,sans-Serif" font-size="10.00" fill="grey">&lt; sequence::detail</text>
<text text-anchor="start" x="676.75" y="-21.5" font-family="Helvetica,sans-Serif" font-size="10.00" fill="grey">  ::LazyStrategy{}&gt;</text>
</g>
<!-- Node2 -->
<g id="Node000002" class="node">
<title>Node2</title>
<g id="a_Node000002"><a xlink:title=" ">
<polygon fill="white" stroke="#666666" points="455,-64.12 304.75,-64.12 304.75,-22.38 455,-22.38 455,-64.12"/>
<text text-anchor="start" x="312.75" y="-50.62" font-family="Helvetica,sans-Serif" font-size="10.00">mimicpp::sequence::</text>
<text text-anchor="start" x="312.75" y="-39.38" font-family="Helvetica,sans-Serif" font-size="10.00">detail::BasicSequenceInterface</text>
<text text-anchor="middle" x="379.88" y="-28.12" font-family="Helvetica,sans-Serif" font-size="10.00">&lt; sequence::Id, Strategy &gt;</text>
</a>
</g>
</g>
<!-- Node2&#45;&gt;Node1 -->
<g id="edge1_Node000001_Node000002" class="edge">
<title>Node2&#45;&gt;Node1</title>
<g id="a_edge1_Node000001_Node000002"><a xlink:title=" ">
<path fill="none" stroke="#63b8ff" d="M466.71,-43.25C475.03,-43.25 483.45,-43.25 491.69,-43.25"/>
<polygon fill="#63b8ff" stroke="#63b8ff" points="466.96,-39.75 456.96,-43.25 466.96,-46.75 466.96,-39.75"/>
</a>
</g>
</g>
<!-- Node3 -->
<g id="Node000003" class="node">
<title>Node3</title>
<g id="a_Node000003"><a xlink:title=" ">
<polygon fill="white" stroke="#666666" points="150.25,-64.12 0,-64.12 0,-22.38 150.25,-22.38 150.25,-64.12"/>
<text text-anchor="start" x="8" y="-50.62" font-family="Helvetica,sans-Serif" font-size="10.00">mimicpp::sequence::</text>
<text text-anchor="start" x="8" y="-39.38" font-family="Helvetica,sans-Serif" font-size="10.00">detail::BasicSequenceInterface</text>
<text text-anchor="middle" x="75.12" y="-28.12" font-family="Helvetica,sans-Serif" font-size="10.00">&lt; Id, priorityStrategy &gt;</text>
</a>
</g>
</g>
<!-- Node3&#45;&gt;Node2 -->
<g id="edge2_Node000002_Node000003" class="edge">
<title>Node3&#45;&gt;Node2</title>
<g id="a_edge2_Node000002_Node000003"><a xlink:title=" ">
<path fill="none" stroke="orange" stroke-dasharray="5,2" d="M162.07,-43.25C206.97,-43.25 261.37,-43.25 304.45,-43.25"/>
<polygon fill="orange" stroke="orange" points="162.09,-39.75 152.09,-43.25 162.09,-46.75 162.09,-39.75"/>
</a>
</g>
<text text-anchor="start" x="171.25" y="-48" font-family="Helvetica,sans-Serif" font-size="10.00" fill="grey">&lt; sequence::Id, Strategy &gt;</text>
</g>
</g>
</svg>
