<?xml version="1.0" encoding="UTF-8" standalone="no"?>
<!DOCTYPE svg PUBLIC "-//W3C//DTD SVG 1.1//EN"
 "http://www.w3.org/Graphics/SVG/1.1/DTD/svg11.dtd">
<!-- Generated by graphviz version 12.2.1 (20241206.2353)
 -->
<!-- Title: mimic++/Utility.hpp Pages: 1 -->
<svg width="1902pt" height="735pt"
 viewBox="0.00 0.00 1902.00 735.25" xmlns="http://www.w3.org/2000/svg" xmlns:xlink="http://www.w3.org/1999/xlink">
<g id="graph0" class="graph" transform="scale(1 1) rotate(0) translate(4 731.25)">
<title>mimic++/Utility.hpp</title>
<!-- Node1 -->
<g id="Node000001" class="node">
<title>Node1</title>
<g id="a_Node000001"><a xlink:title=" ">
<polygon fill="#999999" stroke="#666666" points="735,-727.25 635,-727.25 635,-708 735,-708 735,-727.25"/>
<text text-anchor="middle" x="685" y="-713.75" font-family="Helvetica,sans-Serif" font-size="10.00">mimic++/Utility.hpp</text>
</a>
</g>
</g>
<!-- Node2 -->
<g id="Node000002" class="node">
<title>Node2</title>
<g id="a_Node000002"><a xlink:href="../../d5/d8a/_expectation_8hpp.html" target="_top" xlink:title=" ">
<polygon fill="white" stroke="#666666" points="607.75,-268.38 482.25,-268.38 482.25,-249.12 607.75,-249.12 607.75,-268.38"/>
<text text-anchor="middle" x="545" y="-254.88" font-family="Helvetica,sans-Serif" font-size="10.00">mimic++/Expectation.hpp</text>
</a>
</g>
</g>
<!-- Node1&#45;&gt;Node2 -->
<g id="edge1_Node000001_Node000002" class="edge">
<title>Node1&#45;&gt;Node2</title>
<g id="a_edge1_Node000001_Node000002"><a xlink:title=" ">
<path fill="none" stroke="#63b8ff" d="M662.48,-700.95C638.2,-682.01 603,-647.73 603,-608.12 603,-608.12 603,-608.12 603,-385.12 603,-337.64 568.3,-288.61 552.58,-268.83"/>
<polygon fill="#63b8ff" stroke="#63b8ff" points="660.14,-703.57 670.25,-706.75 664.33,-697.96 660.14,-703.57"/>
</a>
</g>
</g>
<!-- Node4 -->
<g id="Node000004" class="node">
<title>Node4</title>
<g id="a_Node000004"><a xlink:href="../../d5/dc5/_mock_8hpp.html" target="_top" xlink:title=" ">
<polygon fill="white" stroke="#666666" points="888.62,-135.38 789.38,-135.38 789.38,-116.12 888.62,-116.12 888.62,-135.38"/>
<text text-anchor="middle" x="839" y="-121.88" font-family="Helvetica,sans-Serif" font-size="10.00">mimic++/Mock.hpp</text>
</a>
</g>
</g>
<!-- Node1&#45;&gt;Node4 -->
<g id="edge13_Node000001_Node000004" class="edge">
<title>Node1&#45;&gt;Node4</title>
<g id="a_edge13_Node000001_Node000004"><a xlink:title=" ">
<path fill="none" stroke="#63b8ff" d="M746.91,-715.4C820.37,-710.28 933,-689.2 933,-608.12 933,-608.12 933,-608.12 933,-550.88 933,-528.91 855.13,-195.59 841.14,-135.87"/>
<polygon fill="#63b8ff" stroke="#63b8ff" points="746.77,-711.9 737,-716 747.19,-718.89 746.77,-711.9"/>
</a>
</g>
</g>
<!-- Node5 -->
<g id="Node000005" class="node">
<title>Node5</title>
<g id="a_Node000005"><a xlink:href="../../d9/dc3/_interface_mock_8hpp.html" target="_top" xlink:title=" ">
<polygon fill="white" stroke="#666666" points="621.75,-74.5 484.25,-74.5 484.25,-55.25 621.75,-55.25 621.75,-74.5"/>
<text text-anchor="middle" x="553" y="-61" font-family="Helvetica,sans-Serif" font-size="10.00">mimic++/InterfaceMock.hpp</text>
</a>
</g>
</g>
<!-- Node1&#45;&gt;Node5 -->
<g id="edge12_Node000001_Node000005" class="edge">
<title>Node1&#45;&gt;Node5</title>
<g id="a_edge12_Node000001_Node000005"><a xlink:title=" ">
<path fill="none" stroke="#63b8ff" d="M623.27,-712.68C511.03,-703.82 285,-677.36 285,-608.12 285,-608.12 285,-608.12 285,-495.62 285,-466.01 288.72,-457.12 304,-431.75 333.87,-382.14 361.69,-386.4 397,-340.5 470.56,-244.89 532.9,-110.79 548.98,-74.97"/>
<polygon fill="#63b8ff" stroke="#63b8ff" points="623,-716.17 633.24,-713.45 623.53,-709.19 623,-716.17"/>
</a>
</g>
</g>
<!-- Node6 -->
<g id="Node000006" class="node">
<title>Node6</title>
<g id="a_Node000006"><a xlink:href="../../d0/db9/mimic_09_09_8hpp.html" target="_top" xlink:title=" ">
<polygon fill="white" stroke="#666666" points="880.75,-19.25 767.25,-19.25 767.25,0 880.75,0 880.75,-19.25"/>
<text text-anchor="middle" x="824" y="-5.75" font-family="Helvetica,sans-Serif" font-size="10.00">mimic++/mimic++.hpp</text>
</a>
</g>
</g>
<!-- Node1&#45;&gt;Node6 -->
<g id="edge74_Node000001_Node000006" class="edge">
<title>Node1&#45;&gt;Node6</title>
<g id="a_edge74_Node000001_Node000006"><a xlink:title=" ">
<path fill="none" stroke="#63b8ff" d="M623.32,-716.47C526.46,-715.06 333.32,-707.54 174,-672 93.6,-654.07 0,-690.5 0,-608.12 0,-608.12 0,-608.12 0,-124.75 0,-82.15 27.37,-73.2 66,-55.25 128.95,-26 601.42,-14.67 766.93,-11.58"/>
<polygon fill="#63b8ff" stroke="#63b8ff" points="623.09,-719.97 633.13,-716.59 623.18,-712.97 623.09,-719.97"/>
</a>
</g>
</g>
<!-- Node8 -->
<g id="Node000008" class="node">
<title>Node8</title>
<g id="a_Node000008"><a xlink:href="../../da/dab/_printer_8hpp.html" target="_top" xlink:title=" ">
<polygon fill="white" stroke="#666666" points="904.88,-616.75 801.12,-616.75 801.12,-597.5 904.88,-597.5 904.88,-616.75"/>
<text text-anchor="middle" x="853" y="-603.25" font-family="Helvetica,sans-Serif" font-size="10.00">mimic++/Printer.hpp</text>
</a>
</g>
</g>
<!-- Node1&#45;&gt;Node8 -->
<g id="edge14_Node000001_Node000008" class="edge">
<title>Node1&#45;&gt;Node8</title>
<g id="a_edge14_Node000001_Node000008"><a xlink:title=" ">
<path fill="none" stroke="#63b8ff" d="M708.61,-701.38C744.18,-678.41 810.41,-635.63 839.12,-617.09"/>
<polygon fill="#63b8ff" stroke="#63b8ff" points="706.81,-698.37 700.31,-706.74 710.61,-704.25 706.81,-698.37"/>
</a>
</g>
</g>
<!-- Node10 -->
<g id="Node000010" class="node">
<title>Node10</title>
<g id="a_Node000010"><a xlink:href="../../d8/de4/_sequence_8hpp.html" target="_top" xlink:title=" ">
<polygon fill="white" stroke="#666666" points="787.38,-334.88 668.62,-334.88 668.62,-315.62 787.38,-315.62 787.38,-334.88"/>
<text text-anchor="middle" x="728" y="-321.38" font-family="Helvetica,sans-Serif" font-size="10.00">mimic++/Sequence.hpp</text>
</a>
</g>
</g>
<!-- Node1&#45;&gt;Node10 -->
<g id="edge67_Node000001_Node000010" class="edge">
<title>Node1&#45;&gt;Node10</title>
<g id="a_edge67_Node000001_Node000010"><a xlink:title=" ">
<path fill="none" stroke="#63b8ff" d="M672.32,-698.03C659.32,-677.13 641,-641.71 641,-608.12 641,-608.12 641,-608.12 641,-440.38 641,-392.54 689.94,-352.26 714.41,-335.11"/>
<polygon fill="#63b8ff" stroke="#63b8ff" points="669.3,-699.81 677.68,-706.29 675.17,-695.99 669.3,-699.81"/>
</a>
</g>
</g>
<!-- Node12 -->
<g id="Node000012" class="node">
<title>Node12</title>
<g id="a_Node000012"><a xlink:href="../../d0/d3b/_reports_8hpp.html" target="_top" xlink:title=" ">
<polygon fill="white" stroke="#666666" points="422.5,-451 313.5,-451 313.5,-431.75 422.5,-431.75 422.5,-451"/>
<text text-anchor="middle" x="368" y="-437.5" font-family="Helvetica,sans-Serif" font-size="10.00">mimic++/Reports.hpp</text>
</a>
</g>
</g>
<!-- Node1&#45;&gt;Node12 -->
<g id="edge66_Node000001_Node000012" class="edge">
<title>Node1&#45;&gt;Node12</title>
<g id="a_edge66_Node000001_Node000012"><a xlink:title=" ">
<path fill="none" stroke="#63b8ff" d="M623.38,-708.19C531.68,-693.9 370,-661.17 370,-608.12 370,-608.12 370,-608.12 370,-550.88 370,-513.95 368.83,-469.97 368.28,-451.38"/>
<polygon fill="#63b8ff" stroke="#63b8ff" points="622.83,-711.65 633.24,-709.7 623.88,-704.73 622.83,-711.65"/>
</a>
</g>
</g>
<!-- Node13 -->
<g id="Node000013" class="node">
<title>Node13</title>
<g id="a_Node000013"><a xlink:href="../../de/df5/_stacktrace_8hpp.html" target="_top" xlink:title=" ">
<polygon fill="white" stroke="#666666" points="791.25,-561.5 668.75,-561.5 668.75,-542.25 791.25,-542.25 791.25,-561.5"/>
<text text-anchor="middle" x="730" y="-548" font-family="Helvetica,sans-Serif" font-size="10.00">mimic++/Stacktrace.hpp</text>
</a>
</g>
</g>
<!-- Node1&#45;&gt;Node13 -->
<g id="edge68_Node000001_Node000013" class="edge">
<title>Node1&#45;&gt;Node13</title>
<g id="a_edge68_Node000001_Node000013"><a xlink:title=" ">
<path fill="none" stroke="#63b8ff" d="M690.41,-696.94C700.22,-661.25 720.56,-587.21 727.57,-561.72"/>
<polygon fill="#63b8ff" stroke="#63b8ff" points="687.1,-695.79 687.82,-706.36 693.85,-697.65 687.1,-695.79"/>
</a>
</g>
</g>
<!-- Node17 -->
<g id="Node000017" class="node">
<title>Node17</title>
<g id="a_Node000017"><a xlink:href="../../d3/da3/_finalizer_policies_8hpp.html" target="_top" xlink:title=" ">
<polygon fill="white" stroke="#666666" points="195.62,-274 66.38,-274 66.38,-243.5 195.62,-243.5 195.62,-274"/>
<text text-anchor="start" x="74.38" y="-260.5" font-family="Helvetica,sans-Serif" font-size="10.00">mimic++/policies/Finalizer</text>
<text text-anchor="middle" x="131" y="-249.25" font-family="Helvetica,sans-Serif" font-size="10.00">Policies.hpp</text>
</a>
</g>
</g>
<!-- Node1&#45;&gt;Node17 -->
<g id="edge75_Node000001_Node000017" class="edge">
<title>Node1&#45;&gt;Node17</title>
<g id="a_edge75_Node000001_Node000017"><a xlink:title=" ">
<path fill="none" stroke="#63b8ff" d="M623.49,-712.08C468.83,-699.85 76,-663.33 76,-608.12 76,-608.12 76,-608.12 76,-385.12 76,-341.87 103.8,-296.75 119.87,-274.28"/>
<polygon fill="#63b8ff" stroke="#63b8ff" points="622.89,-715.55 633.14,-712.84 623.44,-708.57 622.89,-715.55"/>
</a>
</g>
</g>
<!-- Node19 -->
<g id="Node000019" class="node">
<title>Node19</title>
<g id="a_Node000019"><a xlink:href="../../d3/d58/_common_8hpp.html" target="_top" xlink:title=" ">
<polygon fill="white" stroke="#666666" points="1225.88,-395.75 1068.12,-395.75 1068.12,-376.5 1225.88,-376.5 1225.88,-395.75"/>
<text text-anchor="middle" x="1147" y="-382.25" font-family="Helvetica,sans-Serif" font-size="10.00">mimic++/matchers/Common.hpp</text>
</a>
</g>
</g>
<!-- Node1&#45;&gt;Node19 -->
<g id="edge73_Node000001_Node000019" class="edge">
<title>Node1&#45;&gt;Node19</title>
<g id="a_edge73_Node000001_Node000019"><a xlink:title=" ">
<path fill="none" stroke="#63b8ff" d="M746.43,-713.93C859.97,-708.42 1093.8,-694.49 1123,-672 1147.02,-653.49 1147,-638.45 1147,-608.12 1147,-608.12 1147,-608.12 1147,-495.62 1147,-458.7 1147,-414.72 1147,-396.13"/>
<polygon fill="#63b8ff" stroke="#63b8ff" points="746.51,-710.42 736.69,-714.39 746.84,-717.41 746.51,-710.42"/>
</a>
</g>
</g>
<!-- Node24 -->
<g id="Node000024" class="node">
<title>Node24</title>
<g id="a_Node000024"><a xlink:href="../../de/d10/_general_policies_8hpp.html" target="_top" xlink:title=" ">
<polygon fill="white" stroke="#666666" points="1267.5,-274 1140.5,-274 1140.5,-243.5 1267.5,-243.5 1267.5,-274"/>
<text text-anchor="start" x="1148.5" y="-260.5" font-family="Helvetica,sans-Serif" font-size="10.00">mimic++/policies/General</text>
<text text-anchor="middle" x="1204" y="-249.25" font-family="Helvetica,sans-Serif" font-size="10.00">Policies.hpp</text>
</a>
</g>
</g>
<!-- Node1&#45;&gt;Node24 -->
<g id="edge76_Node000001_Node000024" class="edge">
<title>Node1&#45;&gt;Node24</title>
<g id="a_edge76_Node000001_Node000024"><a xlink:title=" ">
<path fill="none" stroke="#63b8ff" d="M746.61,-713.64C864.19,-706.27 1109,-682.03 1109,-608.12 1109,-608.12 1109,-608.12 1109,-550.88 1109,-437.05 953.05,-400.57 1022,-310 1036.49,-290.96 1093.65,-277.29 1140.1,-269.06"/>
<polygon fill="#63b8ff" stroke="#63b8ff" points="746.59,-710.14 736.81,-714.24 747.01,-717.13 746.59,-710.14"/>
</a>
</g>
</g>
<!-- Node25 -->
<g id="Node000025" class="node">
<title>Node25</title>
<g id="a_Node000025"><a xlink:href="../../d9/dc5/_string_8hpp.html" target="_top" xlink:title=" ">
<polygon fill="white" stroke="#666666" points="1388.38,-672 1287.62,-672 1287.62,-652.75 1388.38,-652.75 1388.38,-672"/>
<text text-anchor="middle" x="1338" y="-658.5" font-family="Helvetica,sans-Serif" font-size="10.00">mimic++/String.hpp</text>
</a>
</g>
</g>
<!-- Node1&#45;&gt;Node25 -->
<g id="edge69_Node000001_Node000025" class="edge">
<title>Node1&#45;&gt;Node25</title>
<g id="a_edge69_Node000001_Node000025"><a xlink:title=" ">
<path fill="none" stroke="#63b8ff" d="M746.59,-711.6C874.94,-701.14 1168.94,-677.16 1287.28,-667.51"/>
<polygon fill="#63b8ff" stroke="#63b8ff" points="746.62,-708.09 736.93,-712.39 747.19,-715.07 746.62,-708.09"/>
</a>
</g>
</g>
<!-- Node3 -->
<g id="Node000003" class="node">
<title>Node3</title>
<g id="a_Node000003"><a xlink:href="../../d2/d4f/_expectation_builder_8hpp.html" target="_top" xlink:title=" ">
<polygon fill="white" stroke="#666666" points="1143.75,-201.88 988.25,-201.88 988.25,-182.62 1143.75,-182.62 1143.75,-201.88"/>
<text text-anchor="middle" x="1066" y="-188.38" font-family="Helvetica,sans-Serif" font-size="10.00">mimic++/ExpectationBuilder.hpp</text>
</a>
</g>
</g>
<!-- Node2&#45;&gt;Node3 -->
<g id="edge2_Node000002_Node000003" class="edge">
<title>Node2&#45;&gt;Node3</title>
<g id="a_edge2_Node000002_Node000003"><a xlink:title=" ">
<path fill="none" stroke="#63b8ff" d="M619.4,-248.04C631.3,-246.51 643.49,-244.95 655,-243.5 771.97,-228.77 907.75,-212.29 990.23,-202.35"/>
<polygon fill="#63b8ff" stroke="#63b8ff" points="619.07,-244.55 609.6,-249.3 619.97,-251.49 619.07,-244.55"/>
</a>
</g>
</g>
<!-- Node2&#45;&gt;Node4 -->
<g id="edge10_Node000002_Node000004" class="edge">
<title>Node2&#45;&gt;Node4</title>
<g id="a_edge10_Node000002_Node000004"><a xlink:title=" ">
<path fill="none" stroke="#63b8ff" d="M575.56,-244.13C635.69,-217.34 767.94,-158.41 818.65,-135.82"/>
<polygon fill="#63b8ff" stroke="#63b8ff" points="574.3,-240.86 566.59,-248.13 577.15,-247.26 574.3,-240.86"/>
</a>
</g>
</g>
<!-- Node2&#45;&gt;Node6 -->
<g id="edge11_Node000002_Node000006" class="edge">
<title>Node2&#45;&gt;Node6</title>
<g id="a_edge11_Node000002_Node000006"><a xlink:title=" ">
<path fill="none" stroke="#63b8ff" d="M552.03,-238.11C567.54,-197.64 608.56,-104.62 674,-55.25 700.89,-34.96 736.93,-23.85 766.94,-17.8"/>
<polygon fill="#63b8ff" stroke="#63b8ff" points="548.76,-236.86 548.57,-247.46 555.33,-239.3 548.76,-236.86"/>
</a>
</g>
</g>
<!-- Node3&#45;&gt;Node4 -->
<g id="edge3_Node000003_Node000004" class="edge">
<title>Node3&#45;&gt;Node4</title>
<g id="a_edge3_Node000003_Node000004"><a xlink:title=" ">
<path fill="none" stroke="#63b8ff" d="M1022.96,-179.02C978.64,-166.43 910.6,-147.09 870.88,-135.81"/>
<polygon fill="#63b8ff" stroke="#63b8ff" points="1021.93,-182.37 1032.5,-181.73 1023.84,-175.63 1021.93,-182.37"/>
</a>
</g>
</g>
<!-- Node3&#45;&gt;Node6 -->
<g id="edge9_Node000003_Node000006" class="edge">
<title>Node3&#45;&gt;Node6</title>
<g id="a_edge9_Node000003_Node000006"><a xlink:title=" ">
<path fill="none" stroke="#63b8ff" d="M1058.05,-171.81C1044.95,-142.22 1016.03,-86.06 974,-55.25 946.94,-35.41 911.08,-24.33 881.21,-18.17"/>
<polygon fill="#63b8ff" stroke="#63b8ff" points="1054.82,-173.17 1061.96,-181 1061.26,-170.43 1054.82,-173.17"/>
</a>
</g>
</g>
<!-- Node4&#45;&gt;Node5 -->
<g id="edge4_Node000004_Node000005" class="edge">
<title>Node4&#45;&gt;Node5</title>
<g id="a_edge4_Node000004_Node000005"><a xlink:title=" ">
<path fill="none" stroke="#63b8ff" d="M783.77,-113.38C729.36,-102.18 647.31,-85.29 597.11,-74.96"/>
<polygon fill="#63b8ff" stroke="#63b8ff" points="782.96,-116.79 793.46,-115.37 784.37,-109.93 782.96,-116.79"/>
</a>
</g>
</g>
<!-- Node4&#45;&gt;Node6 -->
<g id="edge8_Node000004_Node000006" class="edge">
<title>Node4&#45;&gt;Node6</title>
<g id="a_edge8_Node000004_Node000006"><a xlink:title=" ">
<path fill="none" stroke="#63b8ff" d="M868.43,-110.26C890.73,-97.18 915.55,-76.75 903,-55.25 892.76,-37.7 872.78,-26.51 855.47,-19.72"/>
<polygon fill="#63b8ff" stroke="#63b8ff" points="866.91,-107.1 859.84,-114.99 870.29,-113.23 866.91,-107.1"/>
</a>
</g>
</g>
<!-- Node7 -->
<g id="Node000007" class="node">
<title>Node7</title>
<g id="a_Node000007"><a xlink:href="../../d5/d92/_object_watcher_8hpp.html" target="_top" xlink:title=" ">
<polygon fill="white" stroke="#666666" points="893.88,-74.5 754.12,-74.5 754.12,-55.25 893.88,-55.25 893.88,-74.5"/>
<text text-anchor="middle" x="824" y="-61" font-family="Helvetica,sans-Serif" font-size="10.00">mimic++/ObjectWatcher.hpp</text>
</a>
</g>
</g>
<!-- Node4&#45;&gt;Node7 -->
<g id="edge6_Node000004_Node000007" class="edge">
<title>Node4&#45;&gt;Node7</title>
<g id="a_edge6_Node000004_Node000007"><a xlink:title=" ">
<path fill="none" stroke="#63b8ff" d="M833.88,-104.66C831.31,-94.55 828.31,-82.8 826.3,-74.9"/>
<polygon fill="#63b8ff" stroke="#63b8ff" points="830.49,-105.52 836.35,-114.34 837.27,-103.79 830.49,-105.52"/>
</a>
</g>
</g>
<!-- Node5&#45;&gt;Node6 -->
<g id="edge5_Node000005_Node000006" class="edge">
<title>Node5&#45;&gt;Node6</title>
<g id="a_edge5_Node000005_Node000006"><a xlink:title=" ">
<path fill="none" stroke="#63b8ff" d="M610.53,-52.57C660.42,-42.77 731.7,-28.76 777.91,-19.68"/>
<polygon fill="#63b8ff" stroke="#63b8ff" points="609.9,-49.13 600.76,-54.49 611.25,-56 609.9,-49.13"/>
</a>
</g>
</g>
<!-- Node7&#45;&gt;Node6 -->
<g id="edge7_Node000007_Node000006" class="edge">
<title>Node7&#45;&gt;Node6</title>
<g id="a_edge7_Node000007_Node000006"><a xlink:title=" ">
<path fill="none" stroke="#63b8ff" d="M824,-43.63C824,-35.34 824,-26.17 824,-19.61"/>
<polygon fill="#63b8ff" stroke="#63b8ff" points="820.5,-43.57 824,-53.57 827.5,-43.57 820.5,-43.57"/>
</a>
</g>
</g>
<!-- Node8&#45;&gt;Node6 -->
<g id="edge61_Node000008_Node000006" class="edge">
<title>Node8&#45;&gt;Node6</title>
<g id="a_edge61_Node000008_Node000006"><a xlink:title=" ">
<path fill="none" stroke="#63b8ff" d="M869.92,-588.93C877.92,-580.71 887.54,-570.68 896,-561.5 970.26,-480.91 971.37,-442.3 1059,-376.5 1144.62,-312.22 1209.58,-357.17 1277,-274 1300.22,-245.36 1296,-230.12 1296,-193.25 1296,-193.25 1296,-193.25 1296,-124.75 1296,-40.23 1006.47,-18.1 880.93,-12.47"/>
<polygon fill="#63b8ff" stroke="#63b8ff" points="867.56,-586.33 863.07,-595.93 872.57,-591.22 867.56,-586.33"/>
</a>
</g>
</g>
<!-- Node9 -->
<g id="Node000009" class="node">
<title>Node9</title>
<g id="a_Node000009"><a xlink:href="../../da/dd9/_reporter_8hpp.html" target="_top" xlink:title=" ">
<polygon fill="white" stroke="#666666" points="537,-395.75 425,-395.75 425,-376.5 537,-376.5 537,-395.75"/>
<text text-anchor="middle" x="481" y="-382.25" font-family="Helvetica,sans-Serif" font-size="10.00">mimic++/Reporter.hpp</text>
</a>
</g>
</g>
<!-- Node8&#45;&gt;Node9 -->
<g id="edge15_Node000008_Node000009" class="edge">
<title>Node8&#45;&gt;Node9</title>
<g id="a_edge15_Node000008_Node000009"><a xlink:title=" ">
<path fill="none" stroke="#63b8ff" d="M841.03,-587.8C831.26,-573.94 816.44,-555.15 800,-542.25 704.56,-467.35 567.1,-415.86 508.81,-396.11"/>
<polygon fill="#63b8ff" stroke="#63b8ff" points="838.08,-589.7 846.6,-596.01 843.88,-585.77 838.08,-589.7"/>
</a>
</g>
</g>
<!-- Node8&#45;&gt;Node10 -->
<g id="edge29_Node000008_Node000010" class="edge">
<title>Node8&#45;&gt;Node10</title>
<g id="a_edge29_Node000008_Node000010"><a xlink:title=" ">
<path fill="none" stroke="#63b8ff" d="M844.32,-586.69C819.63,-531.41 749.68,-374.79 732.07,-335.35"/>
<polygon fill="#63b8ff" stroke="#63b8ff" points="841.09,-588.04 848.37,-595.75 847.48,-585.19 841.09,-588.04"/>
</a>
</g>
</g>
<!-- Node8&#45;&gt;Node12 -->
<g id="edge25_Node000008_Node000012" class="edge">
<title>Node8&#45;&gt;Node12</title>
<g id="a_edge25_Node000008_Node000012"><a xlink:title=" ">
<path fill="none" stroke="#63b8ff" d="M789.58,-601.77C703.83,-593.58 548.37,-570.44 433,-506.25 407.56,-492.1 385.11,-465.29 374.5,-451.33"/>
<polygon fill="#63b8ff" stroke="#63b8ff" points="789.17,-605.25 799.45,-602.67 789.81,-598.28 789.17,-605.25"/>
</a>
</g>
</g>
<!-- Node8&#45;&gt;Node13 -->
<g id="edge30_Node000008_Node000013" class="edge">
<title>Node8&#45;&gt;Node13</title>
<g id="a_edge30_Node000008_Node000013"><a xlink:title=" ">
<path fill="none" stroke="#63b8ff" d="M821.58,-592.52C799.42,-582.93 770.35,-570.34 750.97,-561.95"/>
<polygon fill="#63b8ff" stroke="#63b8ff" points="820.18,-595.73 830.75,-596.49 822.96,-589.31 820.18,-595.73"/>
</a>
</g>
</g>
<!-- Node8&#45;&gt;Node19 -->
<g id="edge46_Node000008_Node000019" class="edge">
<title>Node8&#45;&gt;Node19</title>
<g id="a_edge46_Node000008_Node000019"><a xlink:title=" ">
<path fill="none" stroke="#63b8ff" d="M916.53,-604.31C957.28,-600.25 1009.4,-589.38 1047,-561.5 1106.99,-517.01 1136.56,-425.05 1144.65,-396.07"/>
<polygon fill="#63b8ff" stroke="#63b8ff" points="916.26,-600.82 906.6,-605.17 916.86,-607.79 916.26,-600.82"/>
</a>
</g>
</g>
<!-- Node8&#45;&gt;Node24 -->
<g id="edge62_Node000008_Node000024" class="edge">
<title>Node8&#45;&gt;Node24</title>
<g id="a_edge62_Node000008_Node000024"><a xlink:title=" ">
<path fill="none" stroke="#63b8ff" d="M865.1,-587.45C877.51,-566.48 895,-530.99 895,-497.62 895,-497.62 895,-497.62 895,-385.12 895,-333.36 937.68,-333.11 984,-310 1033.25,-285.42 1094.71,-272.69 1140.14,-266.2"/>
<polygon fill="#63b8ff" stroke="#63b8ff" points="862.27,-585.38 859.99,-595.72 868.23,-589.06 862.27,-585.38"/>
</a>
</g>
</g>
<!-- Node9&#45;&gt;Node2 -->
<g id="edge16_Node000009_Node000002" class="edge">
<title>Node9&#45;&gt;Node2</title>
<g id="a_edge16_Node000009_Node000002"><a xlink:title=" ">
<path fill="none" stroke="#63b8ff" d="M490.68,-366.16C504.7,-338.7 530.1,-288.94 540.44,-268.68"/>
<polygon fill="#63b8ff" stroke="#63b8ff" points="487.72,-364.26 486.29,-374.76 493.95,-367.44 487.72,-364.26"/>
</a>
</g>
</g>
<!-- Node9&#45;&gt;Node6 -->
<g id="edge24_Node000009_Node000006" class="edge">
<title>Node9&#45;&gt;Node6</title>
<g id="a_edge24_Node000009_Node000006"><a xlink:title=" ">
<path fill="none" stroke="#63b8ff" d="M477.26,-365.25C465.66,-300.99 433.53,-100.46 475,-55.25 494.38,-34.12 673.05,-19.98 766.94,-13.94"/>
<polygon fill="#63b8ff" stroke="#63b8ff" points="473.75,-365.5 479,-374.7 480.63,-364.24 473.75,-365.5"/>
</a>
</g>
</g>
<!-- Node9&#45;&gt;Node10 -->
<g id="edge17_Node000009_Node000010" class="edge">
<title>Node9&#45;&gt;Node10</title>
<g id="a_edge17_Node000009_Node000010"><a xlink:title=" ">
<path fill="none" stroke="#63b8ff" d="M530.18,-373.4C577.17,-362.2 647.01,-345.56 689.9,-335.33"/>
<polygon fill="#63b8ff" stroke="#63b8ff" points="529.44,-369.98 520.52,-375.7 531.06,-376.79 529.44,-369.98"/>
</a>
</g>
</g>
<!-- Node10&#45;&gt;Node2 -->
<g id="edge18_Node000010_Node000002" class="edge">
<title>Node10&#45;&gt;Node2</title>
<g id="a_edge18_Node000010_Node000002"><a xlink:title=" ">
<path fill="none" stroke="#63b8ff" d="M691.69,-311.45C655.94,-298.85 602.25,-279.93 570.7,-268.81"/>
<polygon fill="#63b8ff" stroke="#63b8ff" points="690.15,-314.62 700.74,-314.64 692.47,-308.02 690.15,-314.62"/>
</a>
</g>
</g>
<!-- Node10&#45;&gt;Node3 -->
<g id="edge19_Node000010_Node000003" class="edge">
<title>Node10&#45;&gt;Node3</title>
<g id="a_edge19_Node000010_Node000003"><a xlink:title=" ">
<path fill="none" stroke="#63b8ff" d="M799.06,-317.84C889.82,-308.96 1037.31,-292 1055,-274 1074.04,-254.63 1070.71,-218.89 1067.85,-202.23"/>
<polygon fill="#63b8ff" stroke="#63b8ff" points="798.87,-314.34 789.25,-318.78 799.54,-321.31 798.87,-314.34"/>
</a>
</g>
</g>
<!-- Node10&#45;&gt;Node6 -->
<g id="edge20_Node000010_Node000006" class="edge">
<title>Node10&#45;&gt;Node6</title>
<g id="a_edge20_Node000010_Node000006"><a xlink:title=" ">
<path fill="none" stroke="#63b8ff" d="M694.52,-310.16C679.57,-301.96 663.43,-290.04 655,-274 648.69,-262 652.42,-256.81 655,-243.5 672.2,-154.93 669.26,-121.05 731,-55.25 747.3,-37.88 771.76,-26.51 791.51,-19.6"/>
<polygon fill="#63b8ff" stroke="#63b8ff" points="692.73,-313.17 703.23,-314.56 695.88,-306.92 692.73,-313.17"/>
</a>
</g>
</g>
<!-- Node11 -->
<g id="Node000011" class="node">
<title>Node11</title>
<g id="a_Node000011"><a xlink:href="../../db/d70/_control_policies_8hpp.html" target="_top" xlink:title=" ">
<polygon fill="white" stroke="#666666" points="788,-274 664,-274 664,-243.5 788,-243.5 788,-274"/>
<text text-anchor="start" x="672" y="-260.5" font-family="Helvetica,sans-Serif" font-size="10.00">mimic++/policies/Control</text>
<text text-anchor="middle" x="726" y="-249.25" font-family="Helvetica,sans-Serif" font-size="10.00">Policies.hpp</text>
</a>
</g>
</g>
<!-- Node10&#45;&gt;Node11 -->
<g id="edge21_Node000010_Node000011" class="edge">
<title>Node10&#45;&gt;Node11</title>
<g id="a_edge21_Node000010_Node000011"><a xlink:title=" ">
<path fill="none" stroke="#63b8ff" d="M727.37,-303.87C727.07,-294.19 726.72,-282.85 726.44,-274.09"/>
<polygon fill="#63b8ff" stroke="#63b8ff" points="723.87,-303.88 727.67,-313.77 730.86,-303.67 723.87,-303.88"/>
</a>
</g>
</g>
<!-- Node11&#45;&gt;Node3 -->
<g id="edge22_Node000011_Node000003" class="edge">
<title>Node11&#45;&gt;Node3</title>
<g id="a_edge22_Node000011_Node000003"><a xlink:title=" ">
<path fill="none" stroke="#63b8ff" d="M799.55,-243.8C865.76,-231.24 961.16,-213.14 1018.03,-202.35"/>
<polygon fill="#63b8ff" stroke="#63b8ff" points="799.02,-240.34 789.85,-245.64 800.33,-247.21 799.02,-240.34"/>
</a>
</g>
</g>
<!-- Node11&#45;&gt;Node6 -->
<g id="edge23_Node000011_Node000006" class="edge">
<title>Node11&#45;&gt;Node6</title>
<g id="a_edge23_Node000011_Node000006"><a xlink:title=" ">
<path fill="none" stroke="#63b8ff" d="M721.31,-231.89C715.33,-190.85 709.59,-109.88 745,-55.25 756.31,-37.8 776.96,-26.48 794.31,-19.61"/>
<polygon fill="#63b8ff" stroke="#63b8ff" points="717.82,-232.22 722.85,-241.55 724.73,-231.12 717.82,-232.22"/>
</a>
</g>
</g>
<!-- Node12&#45;&gt;Node6 -->
<g id="edge27_Node000012_Node000006" class="edge">
<title>Node12&#45;&gt;Node6</title>
<g id="a_edge27_Node000012_Node000006"><a xlink:title=" ">
<path fill="none" stroke="#63b8ff" d="M326.8,-427.49C284.25,-411.31 224,-379.07 224,-326.25 224,-326.25 224,-326.25 224,-124.75 224,-79.95 256.15,-73.63 297,-55.25 379.69,-18.06 648.46,-11.69 766.97,-10.72"/>
<polygon fill="#63b8ff" stroke="#63b8ff" points="325.44,-430.72 336.04,-430.84 327.83,-424.14 325.44,-430.72"/>
</a>
</g>
</g>
<!-- Node12&#45;&gt;Node9 -->
<g id="edge26_Node000012_Node000009" class="edge">
<title>Node12&#45;&gt;Node9</title>
<g id="a_edge26_Node000012_Node000009"><a xlink:title=" ">
<path fill="none" stroke="#63b8ff" d="M397.43,-426.51C417.71,-416.95 444.09,-404.52 461.74,-396.2"/>
<polygon fill="#63b8ff" stroke="#63b8ff" points="396.09,-423.27 388.54,-430.7 399.08,-429.6 396.09,-423.27"/>
</a>
</g>
</g>
<!-- Node12&#45;&gt;Node11 -->
<g id="edge28_Node000012_Node000011" class="edge">
<title>Node12&#45;&gt;Node11</title>
<g id="a_edge28_Node000012_Node000011"><a xlink:title=" ">
<path fill="none" stroke="#63b8ff" d="M377.89,-422.04C386.35,-407.88 399.73,-388.7 416,-376.5 491.35,-320.01 597.14,-288.02 663.6,-272.3"/>
<polygon fill="#63b8ff" stroke="#63b8ff" points="375.05,-419.95 373.16,-430.38 381.14,-423.41 375.05,-419.95"/>
</a>
</g>
</g>
<!-- Node13&#45;&gt;Node4 -->
<g id="edge45_Node000013_Node000004" class="edge">
<title>Node13&#45;&gt;Node4</title>
<g id="a_edge45_Node000013_Node000004"><a xlink:title=" ">
<path fill="none" stroke="#63b8ff" d="M742.4,-532.43C766.22,-495.18 816,-407.58 816,-326.25 816,-326.25 816,-326.25 816,-257.75 816,-211.34 830.18,-157.05 836.27,-135.86"/>
<polygon fill="#63b8ff" stroke="#63b8ff" points="739.56,-530.39 737.01,-540.67 745.42,-534.22 739.56,-530.39"/>
</a>
</g>
</g>
<!-- Node14 -->
<g id="Node000014" class="node">
<title>Node14</title>
<g id="a_Node000014"><a xlink:href="../../dc/d44/_call_8hpp.html" target="_top" xlink:title=" ">
<polygon fill="white" stroke="#666666" points="533.88,-506.25 442.12,-506.25 442.12,-487 533.88,-487 533.88,-506.25"/>
<text text-anchor="middle" x="488" y="-492.75" font-family="Helvetica,sans-Serif" font-size="10.00">mimic++/Call.hpp</text>
</a>
</g>
</g>
<!-- Node13&#45;&gt;Node14 -->
<g id="edge31_Node000013_Node000014" class="edge">
<title>Node13&#45;&gt;Node14</title>
<g id="a_edge31_Node000013_Node000014"><a xlink:title=" ">
<path fill="none" stroke="#63b8ff" d="M677.5,-539.32C633,-529.53 570.08,-515.69 529.16,-506.68"/>
<polygon fill="#63b8ff" stroke="#63b8ff" points="676.68,-542.73 687.2,-541.46 678.18,-535.89 676.68,-542.73"/>
</a>
</g>
</g>
<!-- Node14&#45;&gt;Node2 -->
<g id="edge32_Node000014_Node000002" class="edge">
<title>Node14&#45;&gt;Node2</title>
<g id="a_edge32_Node000014_Node000002"><a xlink:title=" ">
<path fill="none" stroke="#63b8ff" d="M502.33,-477.77C516.6,-458.74 537.56,-427.1 546,-395.75 558.46,-349.47 550.53,-291.07 546.71,-268.87"/>
<polygon fill="#63b8ff" stroke="#63b8ff" points="499.67,-475.48 496.32,-485.53 505.21,-479.77 499.67,-475.48"/>
</a>
</g>
</g>
<!-- Node14&#45;&gt;Node6 -->
<g id="edge35_Node000014_Node000006" class="edge">
<title>Node14&#45;&gt;Node6</title>
<g id="a_edge35_Node000014_Node000006"><a xlink:title=" ">
<path fill="none" stroke="#63b8ff" d="M430.71,-491.83C309.47,-480.37 38,-435.14 38,-259.75 38,-259.75 38,-259.75 38,-124.75 38,-51.68 116.26,-73.55 187,-55.25 295.8,-27.1 631.82,-15.55 766.9,-11.96"/>
<polygon fill="#63b8ff" stroke="#63b8ff" points="430.18,-495.3 440.45,-492.7 430.8,-488.32 430.18,-495.3"/>
</a>
</g>
</g>
<!-- Node14&#45;&gt;Node9 -->
<g id="edge33_Node000014_Node000009" class="edge">
<title>Node14&#45;&gt;Node9</title>
<g id="a_edge33_Node000014_Node000009"><a xlink:title=" ">
<path fill="none" stroke="#63b8ff" d="M486.69,-475.28C485.16,-451.55 482.69,-413.39 481.58,-396.13"/>
<polygon fill="#63b8ff" stroke="#63b8ff" points="483.19,-475.48 487.33,-485.24 490.18,-475.03 483.19,-475.48"/>
</a>
</g>
</g>
<!-- Node14&#45;&gt;Node12 -->
<g id="edge34_Node000014_Node000012" class="edge">
<title>Node14&#45;&gt;Node12</title>
<g id="a_edge34_Node000014_Node000012"><a xlink:title=" ">
<path fill="none" stroke="#63b8ff" d="M457.34,-482.02C435.73,-472.43 407.37,-459.84 388.46,-451.45"/>
<polygon fill="#63b8ff" stroke="#63b8ff" points="455.7,-485.12 466.26,-485.98 458.54,-478.72 455.7,-485.12"/>
</a>
</g>
</g>
<!-- Node15 -->
<g id="Node000015" class="node">
<title>Node15</title>
<g id="a_Node000015"><a xlink:href="../../d2/dfd/_argument_list_8hpp.html" target="_top" xlink:title=" ">
<polygon fill="white" stroke="#666666" points="387.62,-340.5 252.38,-340.5 252.38,-310 387.62,-310 387.62,-340.5"/>
<text text-anchor="start" x="260.38" y="-327" font-family="Helvetica,sans-Serif" font-size="10.00">mimic++/policies/Argument</text>
<text text-anchor="middle" x="320" y="-315.75" font-family="Helvetica,sans-Serif" font-size="10.00">List.hpp</text>
</a>
</g>
</g>
<!-- Node14&#45;&gt;Node15 -->
<g id="edge36_Node000014_Node000015" class="edge">
<title>Node14&#45;&gt;Node15</title>
<g id="a_edge36_Node000014_Node000015"><a xlink:title=" ">
<path fill="none" stroke="#63b8ff" d="M473.51,-478.21C462.45,-465.14 446.67,-446.95 432,-431.75 399.36,-397.92 358.66,-360.74 336.41,-340.81"/>
<polygon fill="#63b8ff" stroke="#63b8ff" points="470.56,-480.14 479.68,-485.55 475.93,-475.64 470.56,-480.14"/>
</a>
</g>
</g>
<!-- Node15&#45;&gt;Node6 -->
<g id="edge37_Node000015_Node000006" class="edge">
<title>Node15&#45;&gt;Node6</title>
<g id="a_edge37_Node000015_Node000006"><a xlink:title=" ">
<path fill="none" stroke="#63b8ff" d="M302.42,-300.74C285.35,-275.53 262,-233.65 262,-193.25 262,-193.25 262,-193.25 262,-124.75 262,-22.51 623.7,-10.86 766.76,-10.25"/>
<polygon fill="#63b8ff" stroke="#63b8ff" points="299.34,-302.44 307.95,-308.61 305.07,-298.42 299.34,-302.44"/>
</a>
</g>
</g>
<!-- Node16 -->
<g id="Node000016" class="node">
<title>Node16</title>
<g id="a_Node000016"><a xlink:href="../../d1/d42/_arg_requirement_policies_8hpp.html" target="_top" xlink:title=" ">
<polygon fill="white" stroke="#666666" points="1045.5,-274 882.5,-274 882.5,-243.5 1045.5,-243.5 1045.5,-274"/>
<text text-anchor="start" x="890.5" y="-260.5" font-family="Helvetica,sans-Serif" font-size="10.00">mimic++/policies/ArgRequirement</text>
<text text-anchor="middle" x="964" y="-249.25" font-family="Helvetica,sans-Serif" font-size="10.00">Policies.hpp</text>
</a>
</g>
</g>
<!-- Node15&#45;&gt;Node16 -->
<g id="edge38_Node000015_Node000016" class="edge">
<title>Node15&#45;&gt;Node16</title>
<g id="a_edge38_Node000015_Node000016"><a xlink:title=" ">
<path fill="none" stroke="#63b8ff" d="M399.18,-316.32C522.13,-304.01 757.72,-280.41 882.22,-267.94"/>
<polygon fill="#63b8ff" stroke="#63b8ff" points="399.11,-312.81 389.51,-317.29 399.81,-319.77 399.11,-312.81"/>
</a>
</g>
</g>
<!-- Node15&#45;&gt;Node17 -->
<g id="edge41_Node000015_Node000017" class="edge">
<title>Node15&#45;&gt;Node17</title>
<g id="a_edge41_Node000015_Node000017"><a xlink:title=" ">
<path fill="none" stroke="#63b8ff" d="M266.26,-305.91C237.05,-295.94 201.41,-283.78 174.04,-274.44"/>
<polygon fill="#63b8ff" stroke="#63b8ff" points="265.09,-309.21 275.68,-309.13 267.35,-302.58 265.09,-309.21"/>
</a>
</g>
</g>
<!-- Node18 -->
<g id="Node000018" class="node">
<title>Node18</title>
<g id="a_Node000018"><a xlink:href="../../dc/d18/_side_effect_policies_8hpp.html" target="_top" xlink:title=" ">
<polygon fill="white" stroke="#666666" points="427.75,-141 290.25,-141 290.25,-110.5 427.75,-110.5 427.75,-141"/>
<text text-anchor="start" x="298.25" y="-127.5" font-family="Helvetica,sans-Serif" font-size="10.00">mimic++/policies/SideEffect</text>
<text text-anchor="middle" x="359" y="-116.25" font-family="Helvetica,sans-Serif" font-size="10.00">Policies.hpp</text>
</a>
</g>
</g>
<!-- Node15&#45;&gt;Node18 -->
<g id="edge43_Node000015_Node000018" class="edge">
<title>Node15&#45;&gt;Node18</title>
<g id="a_edge43_Node000015_Node000018"><a xlink:title=" ">
<path fill="none" stroke="#63b8ff" d="M325.08,-298.54C333.37,-256.54 349.56,-174.56 356.13,-141.29"/>
<polygon fill="#63b8ff" stroke="#63b8ff" points="321.66,-297.75 323.16,-308.24 328.53,-299.11 321.66,-297.75"/>
</a>
</g>
</g>
<!-- Node16&#45;&gt;Node3 -->
<g id="edge39_Node000016_Node000003" class="edge">
<title>Node16&#45;&gt;Node3</title>
<g id="a_edge39_Node000016_Node000003"><a xlink:title=" ">
<path fill="none" stroke="#63b8ff" d="M996.72,-237.06C1015.28,-225.32 1037.56,-211.23 1051.75,-202.26"/>
<polygon fill="#63b8ff" stroke="#63b8ff" points="995.01,-234 988.42,-242.31 998.75,-239.92 995.01,-234"/>
</a>
</g>
</g>
<!-- Node16&#45;&gt;Node6 -->
<g id="edge40_Node000016_Node000006" class="edge">
<title>Node16&#45;&gt;Node6</title>
<g id="a_edge40_Node000016_Node000006"><a xlink:title=" ">
<path fill="none" stroke="#63b8ff" d="M965.14,-231.85C965.61,-190.09 960.7,-107.34 919,-55.25 904.65,-37.33 881.41,-26.24 861.51,-19.6"/>
<polygon fill="#63b8ff" stroke="#63b8ff" points="961.65,-231.58 964.9,-241.66 968.65,-231.75 961.65,-231.58"/>
</a>
</g>
</g>
<!-- Node17&#45;&gt;Node6 -->
<g id="edge42_Node000017_Node000006" class="edge">
<title>Node17&#45;&gt;Node6</title>
<g id="a_edge42_Node000017_Node000006"><a xlink:title=" ">
<path fill="none" stroke="#63b8ff" d="M132.62,-231.93C136.94,-187.56 152.68,-97.54 210,-55.25 254.18,-22.65 623.08,-13.63 766.91,-11.34"/>
<polygon fill="#63b8ff" stroke="#63b8ff" points="129.16,-231.39 131.81,-241.65 136.13,-231.97 129.16,-231.39"/>
</a>
</g>
</g>
<!-- Node18&#45;&gt;Node6 -->
<g id="edge44_Node000018_Node000006" class="edge">
<title>Node18&#45;&gt;Node6</title>
<g id="a_edge44_Node000018_Node000006"><a xlink:title=" ">
<path fill="none" stroke="#63b8ff" d="M379.22,-101.87C394.71,-85.96 417.53,-65.79 442,-55.25 499.11,-30.65 675.32,-18.23 767.1,-13.28"/>
<polygon fill="#63b8ff" stroke="#63b8ff" points="376.74,-99.4 372.44,-109.08 381.84,-104.2 376.74,-99.4"/>
</a>
</g>
</g>
<!-- Node19&#45;&gt;Node3 -->
<g id="edge47_Node000019_Node000003" class="edge">
<title>Node19&#45;&gt;Node3</title>
<g id="a_edge47_Node000019_Node000003"><a xlink:title=" ">
<path fill="none" stroke="#63b8ff" d="M1138.78,-365.65C1121.49,-324.71 1081.96,-231.05 1069.7,-202.01"/>
<polygon fill="#63b8ff" stroke="#63b8ff" points="1135.5,-366.88 1142.61,-374.73 1141.95,-364.16 1135.5,-366.88"/>
</a>
</g>
</g>
<!-- Node19&#45;&gt;Node6 -->
<g id="edge59_Node000019_Node000006" class="edge">
<title>Node19&#45;&gt;Node6</title>
<g id="a_edge59_Node000019_Node000006"><a xlink:title=" ">
<path fill="none" stroke="#63b8ff" d="M1201.9,-373.08C1257.08,-357.35 1334,-323.93 1334,-259.75 1334,-259.75 1334,-259.75 1334,-124.75 1334,-92.07 1335.72,-75.41 1310,-55.25 1276.87,-29.27 1002.25,-16.73 881.08,-12.42"/>
<polygon fill="#63b8ff" stroke="#63b8ff" points="1201.04,-369.69 1192.3,-375.68 1202.87,-376.44 1201.04,-369.69"/>
</a>
</g>
</g>
<!-- Node19&#45;&gt;Node16 -->
<g id="edge60_Node000019_Node000016" class="edge">
<title>Node19&#45;&gt;Node16</title>
<g id="a_edge60_Node000019_Node000016"><a xlink:title=" ">
<path fill="none" stroke="#63b8ff" d="M1124.76,-369.89C1089.23,-345.55 1020.12,-298.2 985.23,-274.3"/>
<polygon fill="#63b8ff" stroke="#63b8ff" points="1122.36,-372.49 1132.59,-375.25 1126.32,-366.71 1122.36,-372.49"/>
</a>
</g>
</g>
<!-- Node20 -->
<g id="Node000020" class="node">
<title>Node20</title>
<g id="a_Node000020"><a xlink:href="../../d9/dd5/_general_matchers_8hpp.html" target="_top" xlink:title=" ">
<polygon fill="white" stroke="#666666" points="1660.25,-340.5 1525.75,-340.5 1525.75,-310 1660.25,-310 1660.25,-340.5"/>
<text text-anchor="start" x="1533.75" y="-327" font-family="Helvetica,sans-Serif" font-size="10.00">mimic++/matchers/General</text>
<text text-anchor="middle" x="1593" y="-315.75" font-family="Helvetica,sans-Serif" font-size="10.00">Matchers.hpp</text>
</a>
</g>
</g>
<!-- Node19&#45;&gt;Node20 -->
<g id="edge48_Node000019_Node000020" class="edge">
<title>Node19&#45;&gt;Node20</title>
<g id="a_edge48_Node000019_Node000020"><a xlink:title=" ">
<path fill="none" stroke="#63b8ff" d="M1226.87,-374.58C1311.96,-363.35 1445.19,-345.76 1525.31,-335.19"/>
<polygon fill="#63b8ff" stroke="#63b8ff" points="1226.67,-371.08 1217.21,-375.86 1227.58,-378.02 1226.67,-371.08"/>
</a>
</g>
</g>
<!-- Node22 -->
<g id="Node000022" class="node">
<title>Node22</title>
<g id="a_Node000022"><a xlink:href="../../df/df3/_range_matchers_8hpp.html" target="_top" xlink:title=" ">
<polygon fill="white" stroke="#666666" points="1865.5,-268.38 1678.5,-268.38 1678.5,-249.12 1865.5,-249.12 1865.5,-268.38"/>
<text text-anchor="middle" x="1772" y="-254.88" font-family="Helvetica,sans-Serif" font-size="10.00">mimic++/matchers/RangeMatchers.hpp</text>
</a>
</g>
</g>
<!-- Node19&#45;&gt;Node22 -->
<g id="edge58_Node000019_Node000022" class="edge">
<title>Node19&#45;&gt;Node22</title>
<g id="a_edge58_Node000019_Node000022"><a xlink:title=" ">
<path fill="none" stroke="#63b8ff" d="M1237.68,-383.59C1365.85,-380.36 1592.85,-370.48 1669,-340.5 1710.02,-324.35 1748.02,-286.3 1764.02,-268.82"/>
<polygon fill="#63b8ff" stroke="#63b8ff" points="1237.78,-380.08 1227.87,-383.83 1237.95,-387.08 1237.78,-380.08"/>
</a>
</g>
</g>
<!-- Node20&#45;&gt;Node3 -->
<g id="edge49_Node000020_Node000003" class="edge">
<title>Node20&#45;&gt;Node3</title>
<g id="a_edge49_Node000020_Node000003"><a xlink:title=" ">
<path fill="none" stroke="#63b8ff" d="M1587.86,-298.33C1582.78,-279.92 1573.04,-256.29 1555,-243.5 1522.26,-220.29 1273.56,-204.05 1143.99,-197.08"/>
<polygon fill="#63b8ff" stroke="#63b8ff" points="1584.46,-299.14 1590.21,-308.03 1591.26,-297.49 1584.46,-299.14"/>
</a>
</g>
</g>
<!-- Node20&#45;&gt;Node6 -->
<g id="edge57_Node000020_Node000006" class="edge">
<title>Node20&#45;&gt;Node6</title>
<g id="a_edge57_Node000020_Node000006"><a xlink:title=" ">
<path fill="none" stroke="#63b8ff" d="M1593.55,-298.56C1592.88,-281.96 1590.04,-260.39 1581,-243.5 1522.17,-133.57 1487.43,-104.76 1373,-55.25 1285.78,-17.51 1003.08,-11.47 881,-10.66"/>
<polygon fill="#63b8ff" stroke="#63b8ff" points="1590.04,-298.16 1593.68,-308.11 1597.04,-298.06 1590.04,-298.16"/>
</a>
</g>
</g>
<!-- Node21 -->
<g id="Node000021" class="node">
<title>Node21</title>
<g id="a_Node000021"><a xlink:href="../../d1/de0/_floating_point_matchers_8hpp.html" target="_top" xlink:title=" ">
<polygon fill="white" stroke="#666666" points="1743.62,-207.5 1608.38,-207.5 1608.38,-177 1743.62,-177 1743.62,-207.5"/>
<text text-anchor="start" x="1616.38" y="-194" font-family="Helvetica,sans-Serif" font-size="10.00">mimic++/matchers/Floating</text>
<text text-anchor="middle" x="1676" y="-182.75" font-family="Helvetica,sans-Serif" font-size="10.00">PointMatchers.hpp</text>
</a>
</g>
</g>
<!-- Node20&#45;&gt;Node21 -->
<g id="edge50_Node000020_Node000021" class="edge">
<title>Node20&#45;&gt;Node21</title>
<g id="a_edge50_Node000020_Node000021"><a xlink:title=" ">
<path fill="none" stroke="#63b8ff" d="M1608.89,-300.34C1614.36,-292.03 1620.49,-282.63 1626,-274 1640.63,-251.06 1657.17,-224.15 1667.08,-207.91"/>
<polygon fill="#63b8ff" stroke="#63b8ff" points="1606.06,-298.27 1603.47,-308.54 1611.9,-302.13 1606.06,-298.27"/>
</a>
</g>
</g>
<!-- Node20&#45;&gt;Node22 -->
<g id="edge52_Node000020_Node000022" class="edge">
<title>Node20&#45;&gt;Node22</title>
<g id="a_edge52_Node000020_Node000022"><a xlink:title=" ">
<path fill="none" stroke="#63b8ff" d="M1644.18,-305.81C1677.75,-293.71 1720.2,-278.41 1746.73,-268.85"/>
<polygon fill="#63b8ff" stroke="#63b8ff" points="1643.26,-302.42 1635.04,-309.1 1645.64,-309 1643.26,-302.42"/>
</a>
</g>
</g>
<!-- Node23 -->
<g id="Node000023" class="node">
<title>Node23</title>
<g id="a_Node000023"><a xlink:href="../../d2/d56/_string_matchers_8hpp.html" target="_top" xlink:title=" ">
<polygon fill="white" stroke="#666666" points="1546.38,-268.38 1361.62,-268.38 1361.62,-249.12 1546.38,-249.12 1546.38,-268.38"/>
<text text-anchor="middle" x="1454" y="-254.88" font-family="Helvetica,sans-Serif" font-size="10.00">mimic++/matchers/StringMatchers.hpp</text>
</a>
</g>
</g>
<!-- Node20&#45;&gt;Node23 -->
<g id="edge54_Node000020_Node000023" class="edge">
<title>Node20&#45;&gt;Node23</title>
<g id="a_edge54_Node000020_Node000023"><a xlink:title=" ">
<path fill="none" stroke="#63b8ff" d="M1551.18,-304.85C1525.37,-292.87 1493.46,-278.06 1473.42,-268.76"/>
<polygon fill="#63b8ff" stroke="#63b8ff" points="1549.54,-307.94 1560.09,-308.98 1552.49,-301.59 1549.54,-307.94"/>
</a>
</g>
</g>
<!-- Node21&#45;&gt;Node6 -->
<g id="edge51_Node000021_Node000006" class="edge">
<title>Node21&#45;&gt;Node6</title>
<g id="a_edge51_Node000021_Node000006"><a xlink:title=" ">
<path fill="none" stroke="#63b8ff" d="M1668.89,-166.27C1658.34,-134.31 1635.2,-80.12 1594,-55.25 1533.49,-18.73 1049.08,-12.09 881.11,-10.89"/>
<polygon fill="#63b8ff" stroke="#63b8ff" points="1665.45,-166.99 1671.77,-175.5 1672.14,-164.91 1665.45,-166.99"/>
</a>
</g>
</g>
<!-- Node22&#45;&gt;Node6 -->
<g id="edge53_Node000022_Node000006" class="edge">
<title>Node22&#45;&gt;Node6</title>
<g id="a_edge53_Node000022_Node000006"><a xlink:title=" ">
<path fill="none" stroke="#63b8ff" d="M1770.54,-237.2C1768.56,-220.09 1763.91,-195.61 1753,-177 1712.47,-107.87 1693.85,-86.36 1620,-55.25 1552.47,-26.81 1052.05,-14.89 881.07,-11.61"/>
<polygon fill="#63b8ff" stroke="#63b8ff" points="1767.05,-237.48 1771.45,-247.12 1774.02,-236.84 1767.05,-237.48"/>
</a>
</g>
</g>
<!-- Node23&#45;&gt;Node3 -->
<g id="edge55_Node000023_Node000003" class="edge">
<title>Node23&#45;&gt;Node3</title>
<g id="a_edge55_Node000023_Node000003"><a xlink:title=" ">
<path fill="none" stroke="#63b8ff" d="M1388.02,-246.78C1312.76,-234.27 1191.06,-214.04 1120.8,-202.36"/>
<polygon fill="#63b8ff" stroke="#63b8ff" points="1387.3,-250.21 1397.74,-248.4 1388.45,-243.3 1387.3,-250.21"/>
</a>
</g>
</g>
<!-- Node23&#45;&gt;Node6 -->
<g id="edge56_Node000023_Node000006" class="edge">
<title>Node23&#45;&gt;Node6</title>
<g id="a_edge56_Node000023_Node000006"><a xlink:title=" ">
<path fill="none" stroke="#63b8ff" d="M1450.16,-237.7C1440.93,-195.67 1413.28,-98.65 1348,-55.25 1309.79,-29.85 1008.55,-16.83 880.88,-12.4"/>
<polygon fill="#63b8ff" stroke="#63b8ff" points="1446.7,-238.28 1452.14,-247.37 1453.56,-236.87 1446.7,-238.28"/>
</a>
</g>
</g>
<!-- Node24&#45;&gt;Node3 -->
<g id="edge63_Node000024_Node000003" class="edge">
<title>Node24&#45;&gt;Node3</title>
<g id="a_edge63_Node000024_Node000003"><a xlink:title=" ">
<path fill="none" stroke="#63b8ff" d="M1162.48,-238.35C1136.86,-226.37 1105.18,-211.56 1085.28,-202.26"/>
<polygon fill="#63b8ff" stroke="#63b8ff" points="1160.77,-241.41 1171.31,-242.47 1163.74,-235.07 1160.77,-241.41"/>
</a>
</g>
</g>
<!-- Node24&#45;&gt;Node4 -->
<g id="edge64_Node000024_Node000004" class="edge">
<title>Node24&#45;&gt;Node4</title>
<g id="a_edge64_Node000024_Node000004"><a xlink:title=" ">
<path fill="none" stroke="#63b8ff" d="M1194.72,-232.49C1186.59,-214.08 1172.94,-190.16 1153,-177 1110.49,-148.96 966.16,-135.24 888.85,-129.76"/>
<polygon fill="#63b8ff" stroke="#63b8ff" points="1191.46,-233.77 1198.49,-241.69 1197.93,-231.11 1191.46,-233.77"/>
</a>
</g>
</g>
<!-- Node24&#45;&gt;Node6 -->
<g id="edge65_Node000024_Node000006" class="edge">
<title>Node24&#45;&gt;Node6</title>
<g id="a_edge65_Node000024_Node000006"><a xlink:title=" ">
<path fill="none" stroke="#63b8ff" d="M1201.27,-231.72C1198.43,-214.81 1192.67,-193.03 1181,-177 1123.72,-98.33 1087.88,-94.9 999,-55.25 960.63,-38.13 914.48,-26.71 879.21,-19.71"/>
<polygon fill="#63b8ff" stroke="#63b8ff" points="1197.79,-232.1 1202.65,-241.51 1204.72,-231.12 1197.79,-232.1"/>
</a>
</g>
</g>
<!-- Node25&#45;&gt;Node6 -->
<g id="edge72_Node000025_Node000006" class="edge">
<title>Node25&#45;&gt;Node6</title>
<g id="a_edge72_Node000025_Node000006"><a xlink:title=" ">
<path fill="none" stroke="#63b8ff" d="M1400.14,-662.19C1545.22,-662.41 1894,-652.58 1894,-552.88 1894,-552.88 1894,-552.88 1894,-124.75 1894,-21.94 1102.88,-11.56 881.15,-10.66"/>
<polygon fill="#63b8ff" stroke="#63b8ff" points="1400.34,-658.69 1390.33,-662.15 1400.32,-665.69 1400.34,-658.69"/>
</a>
</g>
</g>
<!-- Node25&#45;&gt;Node8 -->
<g id="edge70_Node000025_Node000008" class="edge">
<title>Node25&#45;&gt;Node8</title>
<g id="a_edge70_Node000025_Node000008"><a xlink:title=" ">
<path fill="none" stroke="#63b8ff" d="M1276.16,-654.59C1179.77,-644 995.4,-623.76 905.25,-613.86"/>
<polygon fill="#63b8ff" stroke="#63b8ff" points="1275.64,-658.05 1285.96,-655.66 1276.41,-651.09 1275.64,-658.05"/>
</a>
</g>
</g>
<!-- Node25&#45;&gt;Node23 -->
<g id="edge71_Node000025_Node000023" class="edge">
<title>Node25&#45;&gt;Node23</title>
<g id="a_edge71_Node000025_Node000023"><a xlink:title=" ">
<path fill="none" stroke="#63b8ff" d="M1358.84,-645.06C1381.04,-625.69 1413,-591.15 1413,-552.88 1413,-552.88 1413,-552.88 1413,-385.12 1413,-339.55 1437.77,-289.07 1448.81,-268.85"/>
<polygon fill="#63b8ff" stroke="#63b8ff" points="1356.65,-642.34 1351.21,-651.43 1361.13,-647.71 1356.65,-642.34"/>
</a>
</g>
</g>
</g>
</svg>
