<?xml version="1.0" encoding="UTF-8" standalone="no"?>
<!DOCTYPE svg PUBLIC "-//W3C//DTD SVG 1.1//EN"
 "http://www.w3.org/Graphics/SVG/1.1/DTD/svg11.dtd">
<!-- Generated by graphviz version 12.1.2 (20240928.0832)
 -->
<!-- Title: mimic++/Utility.hpp Pages: 1 -->
<svg width="1228pt" height="690pt"
 viewBox="0.00 0.00 1228.00 690.25" xmlns="http://www.w3.org/2000/svg" xmlns:xlink="http://www.w3.org/1999/xlink">
<g id="graph0" class="graph" transform="scale(1 1) rotate(0) translate(4 686.25)">
<title>mimic++/Utility.hpp</title>
<!-- Node1 -->
<g id="Node000001" class="node">
<title>Node1</title>
<g id="a_Node000001"><a xlink:title=" ">
<polygon fill="#999999" stroke="#666666" points="914,-682.25 814,-682.25 814,-663 914,-663 914,-682.25"/>
<text text-anchor="middle" x="864" y="-668.75" font-family="Helvetica,sans-Serif" font-size="10.00">mimic++/Utility.hpp</text>
</a>
</g>
</g>
<!-- Node2 -->
<g id="Node000002" class="node">
<title>Node2</title>
<g id="a_Node000002"><a xlink:href="../../dc/d44/_call_8hpp.html" target="_top" xlink:title=" ">
<polygon fill="white" stroke="#666666" points="330.88,-571.75 239.12,-571.75 239.12,-552.5 330.88,-552.5 330.88,-571.75"/>
<text text-anchor="middle" x="285" y="-558.25" font-family="Helvetica,sans-Serif" font-size="10.00">mimic++/Call.hpp</text>
</a>
</g>
</g>
<!-- Node1&#45;&gt;Node2 -->
<g id="edge1_Node000001_Node000002" class="edge">
<title>Node1&#45;&gt;Node2</title>
<g id="a_edge1_Node000001_Node000002"><a xlink:title=" ">
<path fill="none" stroke="#63b8ff" d="M804.54,-660.48C688.79,-638.79 435.46,-591.32 331.21,-571.78"/>
<polygon fill="#63b8ff" stroke="#63b8ff" points="803.67,-663.88 814.14,-662.28 804.96,-657 803.67,-663.88"/>
</a>
</g>
</g>
<!-- Node5 -->
<g id="Node000005" class="node">
<title>Node5</title>
<g id="a_Node000005"><a xlink:href="../../d5/dc5/_mock_8hpp.html" target="_top" xlink:title=" ">
<polygon fill="white" stroke="#666666" points="616.62,-129.75 517.38,-129.75 517.38,-110.5 616.62,-110.5 616.62,-129.75"/>
<text text-anchor="middle" x="567" y="-116.25" font-family="Helvetica,sans-Serif" font-size="10.00">mimic++/Mock.hpp</text>
</a>
</g>
</g>
<!-- Node1&#45;&gt;Node5 -->
<g id="edge39_Node000001_Node000005" class="edge">
<title>Node1&#45;&gt;Node5</title>
<g id="a_edge39_Node000001_Node000005"><a xlink:title=" ">
<path fill="none" stroke="#63b8ff" d="M802.31,-670C610.6,-664.14 38,-640.2 38,-563.12 38,-563.12 38,-563.12 38,-395.38 38,-180.72 385.55,-133.86 517.23,-123.81"/>
<polygon fill="#63b8ff" stroke="#63b8ff" points="801.96,-673.49 812.06,-670.29 802.17,-666.49 801.96,-673.49"/>
</a>
</g>
</g>
<!-- Node7 -->
<g id="Node000007" class="node">
<title>Node7</title>
<g id="a_Node000007"><a xlink:href="../../d0/db9/mimic_09_09_8hpp.html" target="_top" xlink:title=" ">
<polygon fill="white" stroke="#666666" points="574.75,-19.25 461.25,-19.25 461.25,0 574.75,0 574.75,-19.25"/>
<text text-anchor="middle" x="518" y="-5.75" font-family="Helvetica,sans-Serif" font-size="10.00">mimic++/mimic++.hpp</text>
</a>
</g>
</g>
<!-- Node1&#45;&gt;Node7 -->
<g id="edge52_Node000001_Node000007" class="edge">
<title>Node1&#45;&gt;Node7</title>
<g id="a_edge52_Node000001_Node000007"><a xlink:title=" ">
<path fill="none" stroke="#63b8ff" d="M802.65,-671.3C648.41,-669.95 247.74,-662.98 120,-627 61.84,-610.62 0,-623.54 0,-563.12 0,-563.12 0,-563.12 0,-119.12 0,-25.75 326.52,-12.25 461.08,-10.65"/>
<polygon fill="#63b8ff" stroke="#63b8ff" points="802.21,-674.8 812.24,-671.38 802.27,-667.8 802.21,-674.8"/>
</a>
</g>
</g>
<!-- Node9 -->
<g id="Node000009" class="node">
<title>Node9</title>
<g id="a_Node000009"><a xlink:href="../../d8/de5/_expectation_policies_8hpp.html" target="_top" xlink:title=" ">
<polygon fill="white" stroke="#666666" points="863,-240.25 703,-240.25 703,-221 863,-221 863,-240.25"/>
<text text-anchor="middle" x="783" y="-226.75" font-family="Helvetica,sans-Serif" font-size="10.00">mimic++/ExpectationPolicies.hpp</text>
</a>
</g>
</g>
<!-- Node1&#45;&gt;Node9 -->
<g id="edge35_Node000001_Node000009" class="edge">
<title>Node1&#45;&gt;Node9</title>
<g id="a_edge35_Node000001_Node000009"><a xlink:title=" ">
<path fill="none" stroke="#63b8ff" d="M872.17,-652.2C897.2,-592.14 970.42,-412.03 959,-386.75 925.89,-313.44 839.12,-260.92 801.18,-240.74"/>
<polygon fill="#63b8ff" stroke="#63b8ff" points="869.07,-650.55 868.43,-661.13 875.52,-653.26 869.07,-650.55"/>
</a>
</g>
</g>
<!-- Node11 -->
<g id="Node000011" class="node">
<title>Node11</title>
<g id="a_Node000011"><a xlink:href="../../d8/de4/_sequence_8hpp.html" target="_top" xlink:title=" ">
<polygon fill="white" stroke="#666666" points="950.38,-406 831.62,-406 831.62,-386.75 950.38,-386.75 950.38,-406"/>
<text text-anchor="middle" x="891" y="-392.5" font-family="Helvetica,sans-Serif" font-size="10.00">mimic++/Sequence.hpp</text>
</a>
</g>
</g>
<!-- Node1&#45;&gt;Node11 -->
<g id="edge47_Node000001_Node000011" class="edge">
<title>Node1&#45;&gt;Node11</title>
<g id="a_edge47_Node000001_Node000011"><a xlink:title=" ">
<path fill="none" stroke="#63b8ff" d="M864,-651.26C864,-629.45 864,-593.84 864,-563.12 864,-563.12 864,-563.12 864,-505.88 864,-468.02 879.67,-424.88 887.13,-406.47"/>
<polygon fill="#63b8ff" stroke="#63b8ff" points="860.5,-651.11 864,-661.11 867.5,-651.11 860.5,-651.11"/>
</a>
</g>
</g>
<!-- Node12 -->
<g id="Node000012" class="node">
<title>Node12</title>
<g id="a_Node000012"><a xlink:href="../../d6/d17/_control_policy_8hpp.html" target="_top" xlink:title=" ">
<polygon fill="white" stroke="#666666" points="426.12,-350.75 293.88,-350.75 293.88,-331.5 426.12,-331.5 426.12,-350.75"/>
<text text-anchor="middle" x="360" y="-337.25" font-family="Helvetica,sans-Serif" font-size="10.00">mimic++/ControlPolicy.hpp</text>
</a>
</g>
</g>
<!-- Node1&#45;&gt;Node12 -->
<g id="edge34_Node000001_Node000012" class="edge">
<title>Node1&#45;&gt;Node12</title>
<g id="a_edge34_Node000001_Node000012"><a xlink:title=" ">
<path fill="none" stroke="#63b8ff" d="M802.21,-668.68C629.11,-659.6 152,-628.63 152,-563.12 152,-563.12 152,-563.12 152,-450.62 152,-411.12 271.45,-369.18 329.31,-351.18"/>
<polygon fill="#63b8ff" stroke="#63b8ff" points="801.97,-672.17 812.14,-669.19 802.33,-665.18 801.97,-672.17"/>
</a>
</g>
</g>
<!-- Node17 -->
<g id="Node000017" class="node">
<title>Node17</title>
<g id="a_Node000017"><a xlink:href="../../dd/d50/_matcher_8hpp.html" target="_top" xlink:title=" ">
<polygon fill="white" stroke="#666666" points="1192.25,-516.5 1081.75,-516.5 1081.75,-497.25 1192.25,-497.25 1192.25,-516.5"/>
<text text-anchor="middle" x="1137" y="-503" font-family="Helvetica,sans-Serif" font-size="10.00">mimic++/Matcher.hpp</text>
</a>
</g>
</g>
<!-- Node1&#45;&gt;Node17 -->
<g id="edge36_Node000001_Node000017" class="edge">
<title>Node1&#45;&gt;Node17</title>
<g id="a_edge36_Node000001_Node000017"><a xlink:title=" ">
<path fill="none" stroke="#63b8ff" d="M891.39,-657.31C926.88,-638.54 990.44,-604.18 1043,-571.75 1072.89,-553.31 1106.66,-529.63 1124.46,-516.91"/>
<polygon fill="#63b8ff" stroke="#63b8ff" points="889.87,-654.15 882.66,-661.91 893.14,-660.35 889.87,-654.15"/>
</a>
</g>
</g>
<!-- Node18 -->
<g id="Node000018" class="node">
<title>Node18</title>
<g id="a_Node000018"><a xlink:href="../../da/dab/_printer_8hpp.html" target="_top" xlink:title=" ">
<polygon fill="white" stroke="#666666" points="1033.88,-571.75 930.12,-571.75 930.12,-552.5 1033.88,-552.5 1033.88,-571.75"/>
<text text-anchor="middle" x="982" y="-558.25" font-family="Helvetica,sans-Serif" font-size="10.00">mimic++/Printer.hpp</text>
</a>
</g>
</g>
<!-- Node1&#45;&gt;Node18 -->
<g id="edge40_Node000001_Node000018" class="edge">
<title>Node1&#45;&gt;Node18</title>
<g id="a_edge40_Node000001_Node000018"><a xlink:title=" ">
<path fill="none" stroke="#63b8ff" d="M883.57,-655.31C893.42,-646.98 905.47,-636.6 916,-627 936.98,-607.88 960.69,-584.47 973.19,-571.98"/>
<polygon fill="#63b8ff" stroke="#63b8ff" points="881.48,-652.49 876.08,-661.61 885.98,-657.85 881.48,-652.49"/>
</a>
</g>
</g>
<!-- Node19 -->
<g id="Node000019" class="node">
<title>Node19</title>
<g id="a_Node000019"><a xlink:href="../../d9/dc5/_string_8hpp.html" target="_top" xlink:title=" ">
<polygon fill="white" stroke="#666666" points="1190.38,-627 1089.62,-627 1089.62,-607.75 1190.38,-607.75 1190.38,-627"/>
<text text-anchor="middle" x="1140" y="-613.5" font-family="Helvetica,sans-Serif" font-size="10.00">mimic++/String.hpp</text>
</a>
</g>
</g>
<!-- Node1&#45;&gt;Node19 -->
<g id="edge48_Node000001_Node000019" class="edge">
<title>Node1&#45;&gt;Node19</title>
<g id="a_edge48_Node000001_Node000019"><a xlink:title=" ">
<path fill="none" stroke="#63b8ff" d="M922.27,-660.38C973.1,-650.58 1045.9,-636.53 1093.06,-627.43"/>
<polygon fill="#63b8ff" stroke="#63b8ff" points="921.77,-656.91 912.62,-662.24 923.1,-663.79 921.77,-656.91"/>
</a>
</g>
</g>
<!-- Node3 -->
<g id="Node000003" class="node">
<title>Node3</title>
<g id="a_Node000003"><a xlink:href="../../d5/d8a/_expectation_8hpp.html" target="_top" xlink:title=" ">
<polygon fill="white" stroke="#666666" points="516.75,-295.5 391.25,-295.5 391.25,-276.25 516.75,-276.25 516.75,-295.5"/>
<text text-anchor="middle" x="454" y="-282" font-family="Helvetica,sans-Serif" font-size="10.00">mimic++/Expectation.hpp</text>
</a>
</g>
</g>
<!-- Node2&#45;&gt;Node3 -->
<g id="edge2_Node000002_Node000003" class="edge">
<title>Node2&#45;&gt;Node3</title>
<g id="a_edge2_Node000002_Node000003"><a xlink:title=" ">
<path fill="none" stroke="#63b8ff" d="M253.04,-546.64C241.04,-539.42 228.69,-529.43 222,-516.5 190.9,-456.37 85.61,-510.97 285,-331.5 313.87,-305.51 356.12,-294.36 391.15,-289.7"/>
<polygon fill="#63b8ff" stroke="#63b8ff" points="251.14,-549.58 261.59,-551.32 254.5,-543.45 251.14,-549.58"/>
</a>
</g>
</g>
<!-- Node2&#45;&gt;Node7 -->
<g id="edge33_Node000002_Node000007" class="edge">
<title>Node2&#45;&gt;Node7</title>
<g id="a_edge33_Node000002_Node000007"><a xlink:title=" ">
<path fill="none" stroke="#63b8ff" d="M227.67,-555.79C165.8,-546.51 76,-521.23 76,-452.62 76,-452.62 76,-452.62 76,-119.12 76,-40.7 341.74,-18.66 461.12,-12.72"/>
<polygon fill="#63b8ff" stroke="#63b8ff" points="226.99,-559.23 237.38,-557.14 227.95,-552.3 226.99,-559.23"/>
</a>
</g>
</g>
<!-- Node10 -->
<g id="Node000010" class="node">
<title>Node10</title>
<g id="a_Node000010"><a xlink:href="../../da/dd9/_reporter_8hpp.html" target="_top" xlink:title=" ">
<polygon fill="white" stroke="#666666" points="457,-461.25 345,-461.25 345,-442 457,-442 457,-461.25"/>
<text text-anchor="middle" x="401" y="-447.75" font-family="Helvetica,sans-Serif" font-size="10.00">mimic++/Reporter.hpp</text>
</a>
</g>
</g>
<!-- Node2&#45;&gt;Node10 -->
<g id="edge16_Node000002_Node000010" class="edge">
<title>Node2&#45;&gt;Node10</title>
<g id="a_edge16_Node000002_Node000010"><a xlink:title=" ">
<path fill="none" stroke="#63b8ff" d="M310.05,-545.99C322.4,-537.97 337.13,-527.52 349,-516.5 367.86,-498.99 385.91,-474.52 394.96,-461.54"/>
<polygon fill="#63b8ff" stroke="#63b8ff" points="308.23,-543 301.65,-551.3 311.97,-548.92 308.23,-543"/>
</a>
</g>
</g>
<!-- Node16 -->
<g id="Node000016" class="node">
<title>Node16</title>
<g id="a_Node000016"><a xlink:href="../../d0/d3b/_reports_8hpp.html" target="_top" xlink:title=" ">
<polygon fill="white" stroke="#666666" points="339.5,-516.5 230.5,-516.5 230.5,-497.25 339.5,-497.25 339.5,-516.5"/>
<text text-anchor="middle" x="285" y="-503" font-family="Helvetica,sans-Serif" font-size="10.00">mimic++/Reports.hpp</text>
</a>
</g>
</g>
<!-- Node2&#45;&gt;Node16 -->
<g id="edge29_Node000002_Node000016" class="edge">
<title>Node2&#45;&gt;Node16</title>
<g id="a_edge29_Node000002_Node000016"><a xlink:title=" ">
<path fill="none" stroke="#63b8ff" d="M285,-540.88C285,-532.59 285,-523.42 285,-516.86"/>
<polygon fill="#63b8ff" stroke="#63b8ff" points="281.5,-540.82 285,-550.82 288.5,-540.82 281.5,-540.82"/>
</a>
</g>
</g>
<!-- Node4 -->
<g id="Node000004" class="node">
<title>Node4</title>
<g id="a_Node000004"><a xlink:href="../../d2/d4f/_expectation_builder_8hpp.html" target="_top" xlink:title=" ">
<polygon fill="white" stroke="#666666" points="706.75,-185 551.25,-185 551.25,-165.75 706.75,-165.75 706.75,-185"/>
<text text-anchor="middle" x="629" y="-171.5" font-family="Helvetica,sans-Serif" font-size="10.00">mimic++/ExpectationBuilder.hpp</text>
</a>
</g>
</g>
<!-- Node3&#45;&gt;Node4 -->
<g id="edge3_Node000003_Node000004" class="edge">
<title>Node3&#45;&gt;Node4</title>
<g id="a_edge3_Node000003_Node000004"><a xlink:title=" ">
<path fill="none" stroke="#63b8ff" d="M478.12,-269.92C515.05,-247.02 584.5,-203.96 614.55,-185.34"/>
<polygon fill="#63b8ff" stroke="#63b8ff" points="476.56,-266.77 469.91,-275.01 480.25,-272.72 476.56,-266.77"/>
</a>
</g>
</g>
<!-- Node3&#45;&gt;Node5 -->
<g id="edge14_Node000003_Node000005" class="edge">
<title>Node3&#45;&gt;Node5</title>
<g id="a_edge14_Node000003_Node000005"><a xlink:title=" ">
<path fill="none" stroke="#63b8ff" d="M466.32,-267.02C490.42,-232.11 543,-155.91 560.89,-129.97"/>
<polygon fill="#63b8ff" stroke="#63b8ff" points="463.73,-264.61 460.94,-274.83 469.5,-268.58 463.73,-264.61"/>
</a>
</g>
</g>
<!-- Node3&#45;&gt;Node7 -->
<g id="edge15_Node000003_Node000007" class="edge">
<title>Node3&#45;&gt;Node7</title>
<g id="a_edge15_Node000003_Node000007"><a xlink:title=" ">
<path fill="none" stroke="#63b8ff" d="M431.75,-269.14C407.77,-250.14 373,-215.8 373,-176.38 373,-176.38 373,-176.38 373,-119.12 373,-89.51 371.6,-76.72 392,-55.25 410.06,-36.24 436.73,-25.32 460.88,-19.05"/>
<polygon fill="#63b8ff" stroke="#63b8ff" points="429.34,-271.7 439.42,-274.95 433.57,-266.12 429.34,-271.7"/>
</a>
</g>
</g>
<!-- Node3&#45;&gt;Node9 -->
<g id="edge10_Node000003_Node000009" class="edge">
<title>Node3&#45;&gt;Node9</title>
<g id="a_edge10_Node000003_Node000009"><a xlink:title=" ">
<path fill="none" stroke="#63b8ff" d="M521.54,-273.94C582.11,-264.14 669.95,-249.92 726.77,-240.73"/>
<polygon fill="#63b8ff" stroke="#63b8ff" points="520.99,-270.49 511.68,-275.54 522.11,-277.4 520.99,-270.49"/>
</a>
</g>
</g>
<!-- Node4&#45;&gt;Node5 -->
<g id="edge4_Node000004_Node000005" class="edge">
<title>Node4&#45;&gt;Node5</title>
<g id="a_edge4_Node000004_Node000005"><a xlink:title=" ">
<path fill="none" stroke="#63b8ff" d="M609.8,-157.89C599.1,-148.69 586.19,-137.6 577.36,-130.02"/>
<polygon fill="#63b8ff" stroke="#63b8ff" points="607.47,-160.5 617.33,-164.36 612.03,-155.19 607.47,-160.5"/>
</a>
</g>
</g>
<!-- Node4&#45;&gt;Node7 -->
<g id="edge9_Node000004_Node000007" class="edge">
<title>Node4&#45;&gt;Node7</title>
<g id="a_edge9_Node000004_Node000007"><a xlink:title=" ">
<path fill="none" stroke="#63b8ff" d="M660.6,-160.4C705.08,-138.82 777.22,-95.67 744,-55.25 723.02,-29.72 634.95,-18.56 575.16,-13.85"/>
<polygon fill="#63b8ff" stroke="#63b8ff" points="659.16,-157.21 651.61,-164.64 662.15,-163.54 659.16,-157.21"/>
</a>
</g>
</g>
<!-- Node6 -->
<g id="Node000006" class="node">
<title>Node6</title>
<g id="a_Node000006"><a xlink:href="../../d9/dc3/_interface_mock_8hpp.html" target="_top" xlink:title=" ">
<polygon fill="white" stroke="#666666" points="538.75,-74.5 401.25,-74.5 401.25,-55.25 538.75,-55.25 538.75,-74.5"/>
<text text-anchor="middle" x="470" y="-61" font-family="Helvetica,sans-Serif" font-size="10.00">mimic++/InterfaceMock.hpp</text>
</a>
</g>
</g>
<!-- Node5&#45;&gt;Node6 -->
<g id="edge5_Node000005_Node000006" class="edge">
<title>Node5&#45;&gt;Node6</title>
<g id="a_edge5_Node000005_Node000006"><a xlink:title=" ">
<path fill="none" stroke="#63b8ff" d="M540.53,-104.59C523.29,-95.13 501.33,-83.08 486.54,-74.95"/>
<polygon fill="#63b8ff" stroke="#63b8ff" points="538.77,-107.62 549.22,-109.36 542.14,-101.48 538.77,-107.62"/>
</a>
</g>
</g>
<!-- Node5&#45;&gt;Node7 -->
<g id="edge8_Node000005_Node000007" class="edge">
<title>Node5&#45;&gt;Node7</title>
<g id="a_edge8_Node000005_Node000007"><a xlink:title=" ">
<path fill="none" stroke="#63b8ff" d="M562.73,-99.24C559.57,-86.34 554.65,-69.37 548,-55.25 541.79,-42.08 532.01,-28.39 525.31,-19.7"/>
<polygon fill="#63b8ff" stroke="#63b8ff" points="559.25,-99.7 564.89,-108.66 566.07,-98.13 559.25,-99.7"/>
</a>
</g>
</g>
<!-- Node8 -->
<g id="Node000008" class="node">
<title>Node8</title>
<g id="a_Node000008"><a xlink:href="../../d5/d92/_object_watcher_8hpp.html" target="_top" xlink:title=" ">
<polygon fill="white" stroke="#666666" points="734.88,-74.5 595.12,-74.5 595.12,-55.25 734.88,-55.25 734.88,-74.5"/>
<text text-anchor="middle" x="665" y="-61" font-family="Helvetica,sans-Serif" font-size="10.00">mimic++/ObjectWatcher.hpp</text>
</a>
</g>
</g>
<!-- Node5&#45;&gt;Node8 -->
<g id="edge7_Node000005_Node000008" class="edge">
<title>Node5&#45;&gt;Node8</title>
<g id="a_edge7_Node000005_Node000008"><a xlink:title=" ">
<path fill="none" stroke="#63b8ff" d="M593.25,-104.86C610.74,-95.36 633.2,-83.15 648.29,-74.95"/>
<polygon fill="#63b8ff" stroke="#63b8ff" points="592.07,-101.52 584.95,-109.37 595.41,-107.67 592.07,-101.52"/>
</a>
</g>
</g>
<!-- Node6&#45;&gt;Node7 -->
<g id="edge6_Node000006_Node000007" class="edge">
<title>Node6&#45;&gt;Node7</title>
<g id="a_edge6_Node000006_Node000007"><a xlink:title=" ">
<path fill="none" stroke="#63b8ff" d="M485.4,-46.79C493.55,-37.75 503.22,-27.02 509.9,-19.61"/>
<polygon fill="#63b8ff" stroke="#63b8ff" points="483.04,-44.19 478.94,-53.96 488.23,-48.87 483.04,-44.19"/>
</a>
</g>
</g>
<!-- Node9&#45;&gt;Node4 -->
<g id="edge11_Node000009_Node000004" class="edge">
<title>Node9&#45;&gt;Node4</title>
<g id="a_edge11_Node000009_Node000004"><a xlink:title=" ">
<path fill="none" stroke="#63b8ff" d="M746.29,-216.93C718.25,-207.24 680.3,-194.11 655.25,-185.45"/>
<polygon fill="#63b8ff" stroke="#63b8ff" points="744.85,-220.14 755.45,-220.1 747.14,-213.52 744.85,-220.14"/>
</a>
</g>
</g>
<!-- Node9&#45;&gt;Node5 -->
<g id="edge12_Node000009_Node000005" class="edge">
<title>Node9&#45;&gt;Node5</title>
<g id="a_edge12_Node000009_Node000005"><a xlink:title=" ">
<path fill="none" stroke="#63b8ff" d="M769.01,-212.34C756.51,-197.96 736.97,-177.93 716,-165.75 685.41,-147.98 647.11,-136.71 617,-129.94"/>
<polygon fill="#63b8ff" stroke="#63b8ff" points="766.06,-214.27 775.18,-219.68 771.42,-209.77 766.06,-214.27"/>
</a>
</g>
</g>
<!-- Node9&#45;&gt;Node7 -->
<g id="edge13_Node000009_Node000007" class="edge">
<title>Node9&#45;&gt;Node7</title>
<g id="a_edge13_Node000009_Node000007"><a xlink:title=" ">
<path fill="none" stroke="#63b8ff" d="M787.39,-209.55C793.99,-173.49 801.81,-97.57 762,-55.25 737.1,-28.79 639.01,-17.82 575.03,-13.42"/>
<polygon fill="#63b8ff" stroke="#63b8ff" points="784.02,-208.55 785.49,-219.04 790.89,-209.92 784.02,-208.55"/>
</a>
</g>
</g>
<!-- Node10&#45;&gt;Node3 -->
<g id="edge17_Node000010_Node000003" class="edge">
<title>Node10&#45;&gt;Node3</title>
<g id="a_edge17_Node000010_Node000003"><a xlink:title=" ">
<path fill="none" stroke="#63b8ff" d="M363.09,-437.36C336.32,-425.84 307.71,-407.73 323,-386.75 353.8,-344.5 398.43,-388.12 435,-350.75 449.89,-335.53 453.19,-309.19 453.87,-295.58"/>
<polygon fill="#63b8ff" stroke="#63b8ff" points="361.56,-440.52 372.14,-441.03 364.19,-434.03 361.56,-440.52"/>
</a>
</g>
</g>
<!-- Node10&#45;&gt;Node7 -->
<g id="edge28_Node000010_Node000007" class="edge">
<title>Node10&#45;&gt;Node7</title>
<g id="a_edge28_Node000010_Node000007"><a xlink:title=" ">
<path fill="none" stroke="#63b8ff" d="M340.36,-438.64C290.49,-424.85 228,-396.67 228,-342.12 228,-342.12 228,-342.12 228,-119.12 228,-69.6 378.22,-35.16 462.43,-19.75"/>
<polygon fill="#63b8ff" stroke="#63b8ff" points="339.4,-442.01 349.96,-441.15 341.17,-435.24 339.4,-442.01"/>
</a>
</g>
</g>
<!-- Node10&#45;&gt;Node11 -->
<g id="edge18_Node000010_Node000011" class="edge">
<title>Node10&#45;&gt;Node11</title>
<g id="a_edge18_Node000010_Node000011"><a xlink:title=" ">
<path fill="none" stroke="#63b8ff" d="M468.53,-443.86C551.72,-435.44 697.35,-420.4 822,-406 825,-405.65 828.07,-405.29 831.17,-404.92"/>
<polygon fill="#63b8ff" stroke="#63b8ff" points="468.32,-440.36 458.72,-444.85 469.02,-447.33 468.32,-440.36"/>
</a>
</g>
</g>
<!-- Node13 -->
<g id="Node000013" class="node">
<title>Node13</title>
<g id="a_Node000013"><a xlink:href="../../d9/d42/_boost_test_8hpp.html" target="_top" xlink:title=" ">
<polygon fill="white" stroke="#666666" points="648.38,-406 487.62,-406 487.62,-386.75 648.38,-386.75 648.38,-406"/>
<text text-anchor="middle" x="568" y="-392.5" font-family="Helvetica,sans-Serif" font-size="10.00">mimic++/adapters/BoostTest.hpp</text>
</a>
</g>
</g>
<!-- Node10&#45;&gt;Node13 -->
<g id="edge25_Node000010_Node000013" class="edge">
<title>Node10&#45;&gt;Node13</title>
<g id="a_edge25_Node000010_Node000013"><a xlink:title=" ">
<path fill="none" stroke="#63b8ff" d="M440.01,-438.19C470.48,-428.47 512.13,-415.19 539.53,-406.45"/>
<polygon fill="#63b8ff" stroke="#63b8ff" points="439.24,-434.76 430.77,-441.13 441.36,-441.43 439.24,-434.76"/>
</a>
</g>
</g>
<!-- Node14 -->
<g id="Node000014" class="node">
<title>Node14</title>
<g id="a_Node000014"><a xlink:href="../../d3/d04/_catch2_8hpp.html" target="_top" xlink:title=" ">
<polygon fill="white" stroke="#666666" points="813.25,-406 666.75,-406 666.75,-386.75 813.25,-386.75 813.25,-406"/>
<text text-anchor="middle" x="740" y="-392.5" font-family="Helvetica,sans-Serif" font-size="10.00">mimic++/adapters/Catch2.hpp</text>
</a>
</g>
</g>
<!-- Node10&#45;&gt;Node14 -->
<g id="edge26_Node000010_Node000014" class="edge">
<title>Node10&#45;&gt;Node14</title>
<g id="a_edge26_Node000010_Node000014"><a xlink:title=" ">
<path fill="none" stroke="#63b8ff" d="M468.67,-440C531.14,-430.18 622.93,-415.76 682.09,-406.47"/>
<polygon fill="#63b8ff" stroke="#63b8ff" points="468.19,-436.53 458.85,-441.54 469.28,-443.44 468.19,-436.53"/>
</a>
</g>
</g>
<!-- Node15 -->
<g id="Node000015" class="node">
<title>Node15</title>
<g id="a_Node000015"><a xlink:href="../../d5/db1/gtest_8hpp.html" target="_top" xlink:title=" ">
<polygon fill="white" stroke="#666666" points="469.75,-406 332.25,-406 332.25,-386.75 469.75,-386.75 469.75,-406"/>
<text text-anchor="middle" x="401" y="-392.5" font-family="Helvetica,sans-Serif" font-size="10.00">mimic++/adapters/gtest.hpp</text>
</a>
</g>
</g>
<!-- Node10&#45;&gt;Node15 -->
<g id="edge27_Node000010_Node000015" class="edge">
<title>Node10&#45;&gt;Node15</title>
<g id="a_edge27_Node000010_Node000015"><a xlink:title=" ">
<path fill="none" stroke="#63b8ff" d="M401,-430.38C401,-422.09 401,-412.92 401,-406.36"/>
<polygon fill="#63b8ff" stroke="#63b8ff" points="397.5,-430.32 401,-440.32 404.5,-430.32 397.5,-430.32"/>
</a>
</g>
</g>
<!-- Node11&#45;&gt;Node4 -->
<g id="edge23_Node000011_Node000004" class="edge">
<title>Node11&#45;&gt;Node4</title>
<g id="a_edge23_Node000011_Node000004"><a xlink:title=" ">
<path fill="none" stroke="#63b8ff" d="M869.8,-379.88C833.03,-352.75 755.49,-294.38 694,-240.25 672.86,-221.64 649.69,-198.03 637.54,-185.37"/>
<polygon fill="#63b8ff" stroke="#63b8ff" points="867.29,-382.38 877.42,-385.48 871.43,-376.74 867.29,-382.38"/>
</a>
</g>
</g>
<!-- Node11&#45;&gt;Node7 -->
<g id="edge24_Node000011_Node000007" class="edge">
<title>Node11&#45;&gt;Node7</title>
<g id="a_edge24_Node000011_Node000007"><a xlink:title=" ">
<path fill="none" stroke="#63b8ff" d="M891,-375.01C891,-353.2 891,-317.59 891,-286.88 891,-286.88 891,-286.88 891,-119.12 891,-54.13 679.55,-25.5 575.06,-15.32"/>
<polygon fill="#63b8ff" stroke="#63b8ff" points="887.5,-374.86 891,-384.86 894.5,-374.86 887.5,-374.86"/>
</a>
</g>
</g>
<!-- Node11&#45;&gt;Node12 -->
<g id="edge19_Node000011_Node000012" class="edge">
<title>Node11&#45;&gt;Node12</title>
<g id="a_edge19_Node000011_Node000012"><a xlink:title=" ">
<path fill="none" stroke="#63b8ff" d="M819.74,-386.53C673.11,-370.41 514.19,-355.78 426.62,-347.97"/>
<polygon fill="#63b8ff" stroke="#63b8ff" points="819.34,-390.01 829.67,-387.63 820.11,-383.05 819.34,-390.01"/>
</a>
</g>
</g>
<!-- Node12&#45;&gt;Node3 -->
<g id="edge20_Node000012_Node000003" class="edge">
<title>Node12&#45;&gt;Node3</title>
<g id="a_edge20_Node000012_Node000003"><a xlink:title=" ">
<path fill="none" stroke="#63b8ff" d="M385.65,-325.59C402.36,-316.13 423.64,-304.08 437.98,-295.95"/>
<polygon fill="#63b8ff" stroke="#63b8ff" points="384.24,-322.37 377.26,-330.35 387.69,-328.46 384.24,-322.37"/>
</a>
</g>
</g>
<!-- Node12&#45;&gt;Node4 -->
<g id="edge21_Node000012_Node000004" class="edge">
<title>Node12&#45;&gt;Node4</title>
<g id="a_edge21_Node000012_Node000004"><a xlink:title=" ">
<path fill="none" stroke="#63b8ff" d="M437.36,-329.26C466.71,-322.67 499.44,-312.16 526,-295.5 573.25,-265.86 610.6,-207.81 623.83,-185.45"/>
<polygon fill="#63b8ff" stroke="#63b8ff" points="436.84,-325.79 427.78,-331.28 438.28,-332.64 436.84,-325.79"/>
</a>
</g>
</g>
<!-- Node12&#45;&gt;Node7 -->
<g id="edge22_Node000012_Node000007" class="edge">
<title>Node12&#45;&gt;Node7</title>
<g id="a_edge22_Node000012_Node000007"><a xlink:title=" ">
<path fill="none" stroke="#63b8ff" d="M352.6,-320.35C345.23,-298.84 335,-263.28 335,-231.62 335,-231.62 335,-231.62 335,-119.12 335,-59.47 407.83,-31.91 461.6,-19.68"/>
<polygon fill="#63b8ff" stroke="#63b8ff" points="349.24,-321.34 355.91,-329.58 355.83,-318.98 349.24,-321.34"/>
</a>
</g>
</g>
<!-- Node16&#45;&gt;Node7 -->
<g id="edge32_Node000016_Node000007" class="edge">
<title>Node16&#45;&gt;Node7</title>
<g id="a_edge32_Node000016_Node000007"><a xlink:title=" ">
<path fill="none" stroke="#63b8ff" d="M269.65,-488.57C234.66,-447.28 152,-338.42 152,-231.62 152,-231.62 152,-231.62 152,-119.12 152,-55.5 357.88,-26.28 460.81,-15.65"/>
<polygon fill="#63b8ff" stroke="#63b8ff" points="266.9,-490.75 276.09,-496.02 272.2,-486.17 266.9,-490.75"/>
</a>
</g>
</g>
<!-- Node16&#45;&gt;Node10 -->
<g id="edge31_Node000016_Node000010" class="edge">
<title>Node16&#45;&gt;Node10</title>
<g id="a_edge31_Node000016_Node000010"><a xlink:title=" ">
<path fill="none" stroke="#63b8ff" d="M314.92,-492.14C335.78,-482.56 363.03,-470.06 381.23,-461.7"/>
<polygon fill="#63b8ff" stroke="#63b8ff" points="313.68,-488.86 306.05,-496.21 316.6,-495.22 313.68,-488.86"/>
</a>
</g>
</g>
<!-- Node16&#45;&gt;Node12 -->
<g id="edge30_Node000016_Node000012" class="edge">
<title>Node16&#45;&gt;Node12</title>
<g id="a_edge30_Node000016_Node000012"><a xlink:title=" ">
<path fill="none" stroke="#63b8ff" d="M286.74,-485.75C289.61,-461.02 296.92,-418.46 315,-386.75 323.28,-372.22 337.59,-359.21 347.85,-351.04"/>
<polygon fill="#63b8ff" stroke="#63b8ff" points="283.29,-485.09 285.77,-495.39 290.26,-485.79 283.29,-485.09"/>
</a>
</g>
</g>
<!-- Node17&#45;&gt;Node7 -->
<g id="edge38_Node000017_Node000007" class="edge">
<title>Node17&#45;&gt;Node7</title>
<g id="a_edge38_Node000017_Node000007"><a xlink:title=" ">
<path fill="none" stroke="#63b8ff" d="M1135.8,-485.52C1134.62,-463.72 1133,-428.11 1133,-397.38 1133,-397.38 1133,-397.38 1133,-119.12 1133,-88.3 1131.03,-73.24 1106,-55.25 1063.55,-24.73 714.54,-14.51 575.17,-11.62"/>
<polygon fill="#63b8ff" stroke="#63b8ff" points="1132.3,-485.58 1136.36,-495.37 1139.29,-485.18 1132.3,-485.58"/>
</a>
</g>
</g>
<!-- Node17&#45;&gt;Node9 -->
<g id="edge37_Node000017_Node000009" class="edge">
<title>Node17&#45;&gt;Node9</title>
<g id="a_edge37_Node000017_Node000009"><a xlink:title=" ">
<path fill="none" stroke="#63b8ff" d="M1129.12,-486.37C1107.59,-433.45 1048.14,-290.23 1030,-276.25 1004.33,-256.46 925.1,-244.6 863.22,-238.14"/>
<polygon fill="#63b8ff" stroke="#63b8ff" points="1125.86,-487.63 1132.86,-495.58 1132.34,-485 1125.86,-487.63"/>
</a>
</g>
</g>
<!-- Node18&#45;&gt;Node7 -->
<g id="edge46_Node000018_Node000007" class="edge">
<title>Node18&#45;&gt;Node7</title>
<g id="a_edge46_Node000018_Node000007"><a xlink:title=" ">
<path fill="none" stroke="#63b8ff" d="M999.57,-543.84C1006.71,-536.04 1014.55,-526.36 1020,-516.5 1071.71,-422.88 1092,-393.83 1092,-286.88 1092,-286.88 1092,-286.88 1092,-119.12 1092,-66.9 720.32,-28.47 575.14,-15.45"/>
<polygon fill="#63b8ff" stroke="#63b8ff" points="997.14,-541.32 992.73,-550.96 1002.18,-546.17 997.14,-541.32"/>
</a>
</g>
</g>
<!-- Node18&#45;&gt;Node9 -->
<g id="edge41_Node000018_Node000009" class="edge">
<title>Node18&#45;&gt;Node9</title>
<g id="a_edge41_Node000018_Node000009"><a xlink:title=" ">
<path fill="none" stroke="#63b8ff" d="M991.92,-541.91C1001.96,-520.65 1016,-485.1 1016,-452.62 1016,-452.62 1016,-452.62 1016,-340.12 1016,-309.8 1014.98,-296.04 992,-276.25 972.64,-259.58 913.6,-247.93 863.19,-240.72"/>
<polygon fill="#63b8ff" stroke="#63b8ff" points="988.83,-540.26 987.54,-550.78 995.11,-543.36 988.83,-540.26"/>
</a>
</g>
</g>
<!-- Node18&#45;&gt;Node10 -->
<g id="edge43_Node000018_Node000010" class="edge">
<title>Node18&#45;&gt;Node10</title>
<g id="a_edge43_Node000018_Node000010"><a xlink:title=" ">
<path fill="none" stroke="#63b8ff" d="M922.42,-550C807.2,-528.48 555.89,-481.55 449.81,-461.74"/>
<polygon fill="#63b8ff" stroke="#63b8ff" points="921.5,-553.39 931.98,-551.78 922.79,-546.51 921.5,-553.39"/>
</a>
</g>
</g>
<!-- Node18&#45;&gt;Node11 -->
<g id="edge45_Node000018_Node000011" class="edge">
<title>Node18&#45;&gt;Node11</title>
<g id="a_edge45_Node000018_Node000011"><a xlink:title=" ">
<path fill="none" stroke="#63b8ff" d="M971.58,-542.37C951.95,-507.05 910.21,-431.93 895.92,-406.22"/>
<polygon fill="#63b8ff" stroke="#63b8ff" points="968.46,-543.96 976.37,-551 974.57,-540.56 968.46,-543.96"/>
</a>
</g>
</g>
<!-- Node18&#45;&gt;Node16 -->
<g id="edge44_Node000018_Node000016" class="edge">
<title>Node18&#45;&gt;Node16</title>
<g id="a_edge44_Node000018_Node000016"><a xlink:title=" ">
<path fill="none" stroke="#63b8ff" d="M918.52,-556.28C783.03,-545.92 467.54,-521.82 339.98,-512.08"/>
<polygon fill="#63b8ff" stroke="#63b8ff" points="918.15,-559.76 928.39,-557.03 918.68,-552.78 918.15,-559.76"/>
</a>
</g>
</g>
<!-- Node18&#45;&gt;Node17 -->
<g id="edge42_Node000018_Node000017" class="edge">
<title>Node18&#45;&gt;Node17</title>
<g id="a_edge42_Node000018_Node000017"><a xlink:title=" ">
<path fill="none" stroke="#63b8ff" d="M1018.95,-548.43C1047.17,-538.74 1085.37,-525.61 1110.58,-516.95"/>
<polygon fill="#63b8ff" stroke="#63b8ff" points="1018.05,-545.04 1009.73,-551.6 1020.32,-551.66 1018.05,-545.04"/>
</a>
</g>
</g>
<!-- Node19&#45;&gt;Node7 -->
<g id="edge51_Node000019_Node000007" class="edge">
<title>Node19&#45;&gt;Node7</title>
<g id="a_edge51_Node000019_Node000007"><a xlink:title=" ">
<path fill="none" stroke="#63b8ff" d="M1162.29,-600.32C1185.96,-581.22 1220,-546.96 1220,-507.88 1220,-507.88 1220,-507.88 1220,-119.12 1220,-70.07 1176.16,-71.84 1130,-55.25 1028.87,-18.91 707.04,-12.13 575.18,-10.89"/>
<polygon fill="#63b8ff" stroke="#63b8ff" points="1160.19,-597.52 1154.41,-606.4 1164.46,-603.06 1160.19,-597.52"/>
</a>
</g>
</g>
<!-- Node19&#45;&gt;Node17 -->
<g id="edge49_Node000019_Node000017" class="edge">
<title>Node19&#45;&gt;Node17</title>
<g id="a_edge49_Node000019_Node000017"><a xlink:title=" ">
<path fill="none" stroke="#63b8ff" d="M1139.44,-596.03C1138.78,-572.3 1137.73,-534.14 1137.25,-516.88"/>
<polygon fill="#63b8ff" stroke="#63b8ff" points="1135.94,-596.08 1139.71,-605.98 1142.93,-595.89 1135.94,-596.08"/>
</a>
</g>
</g>
<!-- Node19&#45;&gt;Node18 -->
<g id="edge50_Node000019_Node000018" class="edge">
<title>Node19&#45;&gt;Node18</title>
<g id="a_edge50_Node000019_Node000018"><a xlink:title=" ">
<path fill="none" stroke="#63b8ff" d="M1102.34,-603.68C1073.57,-593.99 1034.63,-580.86 1008.93,-572.2"/>
<polygon fill="#63b8ff" stroke="#63b8ff" points="1101.17,-606.98 1111.76,-606.86 1103.4,-600.35 1101.17,-606.98"/>
</a>
</g>
</g>
</g>
</svg>
