<?xml version="1.0" encoding="UTF-8" standalone="no"?>
<!DOCTYPE svg PUBLIC "-//W3C//DTD SVG 1.1//EN"
 "http://www.w3.org/Graphics/SVG/1.1/DTD/svg11.dtd">
<!-- Generated by graphviz version 12.2.1 (20241206.2353)
 -->
<!-- Title: mimic++/Utility.hpp Pages: 1 -->
<svg width="1664pt" height="614pt"
 viewBox="0.00 0.00 1664.00 613.50" xmlns="http://www.w3.org/2000/svg" xmlns:xlink="http://www.w3.org/1999/xlink">
<g id="graph0" class="graph" transform="scale(1 1) rotate(0) translate(4 609.5)">
<title>mimic++/Utility.hpp</title>
<!-- Node1 -->
<g id="Node000001" class="node">
<title>Node1</title>
<g id="a_Node000001"><a xlink:title=" ">
<polygon fill="#999999" stroke="#666666" points="1369,-605.5 1269,-605.5 1269,-586.25 1369,-586.25 1369,-605.5"/>
<text text-anchor="middle" x="1319" y="-592" font-family="Helvetica,sans-Serif" font-size="10.00">mimic++/Utility.hpp</text>
</a>
</g>
</g>
<!-- Node2 -->
<g id="Node000002" class="node">
<title>Node2</title>
<g id="a_Node000002"><a xlink:href="../../dc/d44/_call_8hpp.html" target="_top" xlink:title=" ">
<polygon fill="white" stroke="#666666" points="429.88,-495 338.12,-495 338.12,-475.75 429.88,-475.75 429.88,-495"/>
<text text-anchor="middle" x="384" y="-481.5" font-family="Helvetica,sans-Serif" font-size="10.00">mimic++/Call.hpp</text>
</a>
</g>
</g>
<!-- Node1&#45;&gt;Node2 -->
<g id="edge1_Node000001_Node000002" class="edge">
<title>Node1&#45;&gt;Node2</title>
<g id="a_edge1_Node000001_Node000002"><a xlink:title=" ">
<path fill="none" stroke="#63b8ff" d="M1257.28,-593.76C1073.9,-590.15 540.45,-577.4 467,-550.25 435.28,-538.52 405.84,-510.12 392.11,-495.46"/>
<polygon fill="#63b8ff" stroke="#63b8ff" points="1257.01,-597.25 1267.08,-593.95 1257.15,-590.26 1257.01,-597.25"/>
</a>
</g>
</g>
<!-- Node5 -->
<g id="Node000005" class="node">
<title>Node5</title>
<g id="a_Node000005"><a xlink:href="../../d5/dc5/_mock_8hpp.html" target="_top" xlink:title=" ">
<polygon fill="white" stroke="#666666" points="1234.62,-129.75 1135.38,-129.75 1135.38,-110.5 1234.62,-110.5 1234.62,-129.75"/>
<text text-anchor="middle" x="1185" y="-116.25" font-family="Helvetica,sans-Serif" font-size="10.00">mimic++/Mock.hpp</text>
</a>
</g>
</g>
<!-- Node1&#45;&gt;Node5 -->
<g id="edge46_Node000001_Node000005" class="edge">
<title>Node1&#45;&gt;Node5</title>
<g id="a_edge46_Node000001_Node000005"><a xlink:title=" ">
<path fill="none" stroke="#63b8ff" d="M1380.61,-587.82C1477.85,-574.96 1656,-543.58 1656,-486.38 1656,-486.38 1656,-486.38 1656,-429.12 1656,-229.57 1356.18,-152.38 1234.96,-129.33"/>
<polygon fill="#63b8ff" stroke="#63b8ff" points="1380.42,-584.32 1370.95,-589.07 1381.32,-591.26 1380.42,-584.32"/>
</a>
</g>
</g>
<!-- Node6 -->
<g id="Node000006" class="node">
<title>Node6</title>
<g id="a_Node000006"><a xlink:href="../../d9/dc3/_interface_mock_8hpp.html" target="_top" xlink:title=" ">
<polygon fill="white" stroke="#666666" points="982.75,-74.5 845.25,-74.5 845.25,-55.25 982.75,-55.25 982.75,-74.5"/>
<text text-anchor="middle" x="914" y="-61" font-family="Helvetica,sans-Serif" font-size="10.00">mimic++/InterfaceMock.hpp</text>
</a>
</g>
</g>
<!-- Node1&#45;&gt;Node6 -->
<g id="edge41_Node000001_Node000006" class="edge">
<title>Node1&#45;&gt;Node6</title>
<g id="a_edge41_Node000001_Node000006"><a xlink:title=" ">
<path fill="none" stroke="#63b8ff" d="M1257.45,-584.56C1082.16,-553.8 587,-456.89 494,-329.25 486.02,-318.29 487.12,-310.43 494,-298.75 539.96,-220.71 810.39,-107.41 891.2,-74.9"/>
<polygon fill="#63b8ff" stroke="#63b8ff" points="1256.82,-588 1267.28,-586.27 1258.02,-581.11 1256.82,-588"/>
</a>
</g>
</g>
<!-- Node7 -->
<g id="Node000007" class="node">
<title>Node7</title>
<g id="a_Node000007"><a xlink:href="../../d0/db9/mimic_09_09_8hpp.html" target="_top" xlink:title=" ">
<polygon fill="white" stroke="#666666" points="970.75,-19.25 857.25,-19.25 857.25,0 970.75,0 970.75,-19.25"/>
<text text-anchor="middle" x="914" y="-5.75" font-family="Helvetica,sans-Serif" font-size="10.00">mimic++/mimic++.hpp</text>
</a>
</g>
</g>
<!-- Node1&#45;&gt;Node7 -->
<g id="edge62_Node000001_Node000007" class="edge">
<title>Node1&#45;&gt;Node7</title>
<g id="a_edge62_Node000001_Node000007"><a xlink:title=" ">
<path fill="none" stroke="#63b8ff" d="M1257.41,-594.53C1025.13,-592.99 209.78,-585.1 99,-550.25 49.05,-534.54 0,-538.74 0,-486.38 0,-486.38 0,-486.38 0,-119.12 0,-47.48 78.29,-71.78 148,-55.25 282.64,-23.32 703.22,-13.83 856.97,-11.38"/>
<polygon fill="#63b8ff" stroke="#63b8ff" points="1257.13,-598.03 1267.15,-594.6 1257.17,-591.03 1257.13,-598.03"/>
</a>
</g>
</g>
<!-- Node10 -->
<g id="Node000010" class="node">
<title>Node10</title>
<g id="a_Node000010"><a xlink:href="../../d8/de4/_sequence_8hpp.html" target="_top" xlink:title=" ">
<polygon fill="white" stroke="#666666" points="1364.38,-323.62 1245.62,-323.62 1245.62,-304.38 1364.38,-304.38 1364.38,-323.62"/>
<text text-anchor="middle" x="1305" y="-310.12" font-family="Helvetica,sans-Serif" font-size="10.00">mimic++/Sequence.hpp</text>
</a>
</g>
</g>
<!-- Node1&#45;&gt;Node10 -->
<g id="edge57_Node000001_Node000010" class="edge">
<title>Node1&#45;&gt;Node10</title>
<g id="a_edge57_Node000001_Node000010"><a xlink:title=" ">
<path fill="none" stroke="#63b8ff" d="M1312.5,-575.06C1306.01,-553.49 1297,-517.87 1297,-486.38 1297,-486.38 1297,-486.38 1297,-429.12 1297,-389.8 1301.79,-343.03 1303.95,-323.86"/>
<polygon fill="#63b8ff" stroke="#63b8ff" points="1309.15,-576.06 1315.49,-584.55 1315.82,-573.96 1309.15,-576.06"/>
</a>
</g>
</g>
<!-- Node19 -->
<g id="Node000019" class="node">
<title>Node19</title>
<g id="a_Node000019"><a xlink:href="../../d3/da3/_finalizer_policies_8hpp.html" target="_top" xlink:title=" ">
<polygon fill="white" stroke="#666666" points="157.62,-262.75 28.38,-262.75 28.38,-232.25 157.62,-232.25 157.62,-262.75"/>
<text text-anchor="start" x="36.38" y="-249.25" font-family="Helvetica,sans-Serif" font-size="10.00">mimic++/policies/Finalizer</text>
<text text-anchor="middle" x="93" y="-238" font-family="Helvetica,sans-Serif" font-size="10.00">Policies.hpp</text>
</a>
</g>
</g>
<!-- Node1&#45;&gt;Node19 -->
<g id="edge63_Node000001_Node000019" class="edge">
<title>Node1&#45;&gt;Node19</title>
<g id="a_edge63_Node000001_Node000019"><a xlink:title=" ">
<path fill="none" stroke="#63b8ff" d="M1257.27,-594.72C1112.1,-593.7 737.94,-587.38 428,-550.25 277.5,-532.22 93,-637.95 93,-486.38 93,-486.38 93,-486.38 93,-373.88 93,-333.82 93,-286.58 93,-263.17"/>
<polygon fill="#63b8ff" stroke="#63b8ff" points="1257.02,-598.21 1267.04,-594.78 1257.06,-591.21 1257.02,-598.21"/>
</a>
</g>
</g>
<!-- Node21 -->
<g id="Node000021" class="node">
<title>Node21</title>
<g id="a_Node000021"><a xlink:href="../../dd/d50/_matcher_8hpp.html" target="_top" xlink:title=" ">
<polygon fill="white" stroke="#666666" points="1552.25,-439.75 1441.75,-439.75 1441.75,-420.5 1552.25,-420.5 1552.25,-439.75"/>
<text text-anchor="middle" x="1497" y="-426.25" font-family="Helvetica,sans-Serif" font-size="10.00">mimic++/Matcher.hpp</text>
</a>
</g>
</g>
<!-- Node1&#45;&gt;Node21 -->
<g id="edge42_Node000001_Node000021" class="edge">
<title>Node1&#45;&gt;Node21</title>
<g id="a_edge42_Node000001_Node000021"><a xlink:title=" ">
<path fill="none" stroke="#63b8ff" d="M1380.61,-592.33C1413.16,-587.69 1451.2,-576.46 1475,-550.25 1503.85,-518.49 1500.69,-461.7 1498.22,-439.94"/>
<polygon fill="#63b8ff" stroke="#63b8ff" points="1380.36,-588.83 1370.86,-593.53 1381.21,-595.78 1380.36,-588.83"/>
</a>
</g>
</g>
<!-- Node22 -->
<g id="Node000022" class="node">
<title>Node22</title>
<g id="a_Node000022"><a xlink:href="../../da/dab/_printer_8hpp.html" target="_top" xlink:title=" ">
<polygon fill="white" stroke="#666666" points="1428.88,-495 1325.12,-495 1325.12,-475.75 1428.88,-475.75 1428.88,-495"/>
<text text-anchor="middle" x="1377" y="-481.5" font-family="Helvetica,sans-Serif" font-size="10.00">mimic++/Printer.hpp</text>
</a>
</g>
</g>
<!-- Node1&#45;&gt;Node22 -->
<g id="edge47_Node000001_Node000022" class="edge">
<title>Node1&#45;&gt;Node22</title>
<g id="a_edge47_Node000001_Node000022"><a xlink:title=" ">
<path fill="none" stroke="#63b8ff" d="M1329.01,-576.15C1341.61,-552.58 1362.74,-513.04 1372.19,-495.38"/>
<polygon fill="#63b8ff" stroke="#63b8ff" points="1326.09,-574.19 1324.46,-584.66 1332.26,-577.49 1326.09,-574.19"/>
</a>
</g>
</g>
<!-- Node23 -->
<g id="Node000023" class="node">
<title>Node23</title>
<g id="a_Node000023"><a xlink:href="../../de/d10/_general_policies_8hpp.html" target="_top" xlink:title=" ">
<polygon fill="white" stroke="#666666" points="1439.5,-262.75 1312.5,-262.75 1312.5,-232.25 1439.5,-232.25 1439.5,-262.75"/>
<text text-anchor="start" x="1320.5" y="-249.25" font-family="Helvetica,sans-Serif" font-size="10.00">mimic++/policies/General</text>
<text text-anchor="middle" x="1376" y="-238" font-family="Helvetica,sans-Serif" font-size="10.00">Policies.hpp</text>
</a>
</g>
</g>
<!-- Node1&#45;&gt;Node23 -->
<g id="edge64_Node000001_Node000023" class="edge">
<title>Node1&#45;&gt;Node23</title>
<g id="a_edge64_Node000001_Node000023"><a xlink:title=" ">
<path fill="none" stroke="#63b8ff" d="M1380.26,-590.99C1416.61,-586.02 1461.9,-574.91 1495,-550.25 1540.87,-516.07 1545.79,-494.89 1561,-439.75 1584.34,-355.14 1471.13,-290.77 1411.2,-263.21"/>
<polygon fill="#63b8ff" stroke="#63b8ff" points="1380.29,-587.46 1370.79,-592.16 1381.15,-594.41 1380.29,-587.46"/>
</a>
</g>
</g>
<!-- Node24 -->
<g id="Node000024" class="node">
<title>Node24</title>
<g id="a_Node000024"><a xlink:href="../../d9/dc5/_string_8hpp.html" target="_top" xlink:title=" ">
<polygon fill="white" stroke="#666666" points="1466.38,-550.25 1365.62,-550.25 1365.62,-531 1466.38,-531 1466.38,-550.25"/>
<text text-anchor="middle" x="1416" y="-536.75" font-family="Helvetica,sans-Serif" font-size="10.00">mimic++/String.hpp</text>
</a>
</g>
</g>
<!-- Node1&#45;&gt;Node24 -->
<g id="edge58_Node000001_Node000024" class="edge">
<title>Node1&#45;&gt;Node24</title>
<g id="a_edge58_Node000001_Node000024"><a xlink:title=" ">
<path fill="none" stroke="#63b8ff" d="M1345.47,-580.34C1362.71,-570.88 1384.67,-558.83 1399.46,-550.7"/>
<polygon fill="#63b8ff" stroke="#63b8ff" points="1343.86,-577.23 1336.78,-585.11 1347.23,-583.37 1343.86,-577.23"/>
</a>
</g>
</g>
<!-- Node3 -->
<g id="Node000003" class="node">
<title>Node3</title>
<g id="a_Node000003"><a xlink:href="../../d5/d8a/_expectation_8hpp.html" target="_top" xlink:title=" ">
<polygon fill="white" stroke="#666666" points="1179.75,-257.12 1054.25,-257.12 1054.25,-237.88 1179.75,-237.88 1179.75,-257.12"/>
<text text-anchor="middle" x="1117" y="-243.62" font-family="Helvetica,sans-Serif" font-size="10.00">mimic++/Expectation.hpp</text>
</a>
</g>
</g>
<!-- Node2&#45;&gt;Node3 -->
<g id="edge2_Node000002_Node000003" class="edge">
<title>Node2&#45;&gt;Node3</title>
<g id="a_edge2_Node000002_Node000003"><a xlink:title=" ">
<path fill="none" stroke="#63b8ff" d="M441.55,-482.23C608.02,-474.71 1084.14,-443.41 1178,-329.25 1198.87,-303.87 1156.7,-272.48 1132.45,-257.41"/>
<polygon fill="#63b8ff" stroke="#63b8ff" points="441.46,-478.73 431.62,-482.67 441.77,-485.73 441.46,-478.73"/>
</a>
</g>
</g>
<!-- Node2&#45;&gt;Node7 -->
<g id="edge31_Node000002_Node000007" class="edge">
<title>Node2&#45;&gt;Node7</title>
<g id="a_edge31_Node000002_Node000007"><a xlink:title=" ">
<path fill="none" stroke="#63b8ff" d="M341.26,-471.69C284.04,-452 185.64,-407.92 150,-329.25 144.41,-316.9 147.03,-311.98 150,-298.75 153.87,-281.48 161.16,-279.45 167,-262.75 179.16,-227.94 186,-218.87 186,-182 186,-182 186,-182 186,-119.12 186,-80.48 210.13,-71.91 245,-55.25 299.48,-29.21 705.17,-16.07 856.93,-12.02"/>
<polygon fill="#63b8ff" stroke="#63b8ff" points="340.09,-474.99 350.68,-474.82 342.3,-468.35 340.09,-474.99"/>
</a>
</g>
</g>
<!-- Node9 -->
<g id="Node000009" class="node">
<title>Node9</title>
<g id="a_Node000009"><a xlink:href="../../da/dd9/_reporter_8hpp.html" target="_top" xlink:title=" ">
<polygon fill="white" stroke="#666666" points="879,-384.5 767,-384.5 767,-365.25 879,-365.25 879,-384.5"/>
<text text-anchor="middle" x="823" y="-371" font-family="Helvetica,sans-Serif" font-size="10.00">mimic++/Reporter.hpp</text>
</a>
</g>
</g>
<!-- Node2&#45;&gt;Node9 -->
<g id="edge13_Node000002_Node000009" class="edge">
<title>Node2&#45;&gt;Node9</title>
<g id="a_edge13_Node000002_Node000009"><a xlink:title=" ">
<path fill="none" stroke="#63b8ff" d="M431.69,-472.59C519.9,-450.79 706.77,-404.6 786.12,-384.99"/>
<polygon fill="#63b8ff" stroke="#63b8ff" points="431.01,-469.15 422.14,-474.95 432.69,-475.95 431.01,-469.15"/>
</a>
</g>
</g>
<!-- Node16 -->
<g id="Node000016" class="node">
<title>Node16</title>
<g id="a_Node000016"><a xlink:href="../../d0/d3b/_reports_8hpp.html" target="_top" xlink:title=" ">
<polygon fill="white" stroke="#666666" points="414.5,-439.75 305.5,-439.75 305.5,-420.5 414.5,-420.5 414.5,-439.75"/>
<text text-anchor="middle" x="360" y="-426.25" font-family="Helvetica,sans-Serif" font-size="10.00">mimic++/Reports.hpp</text>
</a>
</g>
</g>
<!-- Node2&#45;&gt;Node16 -->
<g id="edge27_Node000002_Node000016" class="edge">
<title>Node2&#45;&gt;Node16</title>
<g id="a_edge27_Node000002_Node000016"><a xlink:title=" ">
<path fill="none" stroke="#63b8ff" d="M375.4,-465.29C371.53,-456.71 367.15,-446.98 364.05,-440.11"/>
<polygon fill="#63b8ff" stroke="#63b8ff" points="372.12,-466.52 379.41,-474.2 378.5,-463.65 372.12,-466.52"/>
</a>
</g>
</g>
<!-- Node17 -->
<g id="Node000017" class="node">
<title>Node17</title>
<g id="a_Node000017"><a xlink:href="../../d2/dfd/_argument_list_8hpp.html" target="_top" xlink:title=" ">
<polygon fill="white" stroke="#666666" points="294.62,-329.25 159.38,-329.25 159.38,-298.75 294.62,-298.75 294.62,-329.25"/>
<text text-anchor="start" x="167.38" y="-315.75" font-family="Helvetica,sans-Serif" font-size="10.00">mimic++/policies/Argument</text>
<text text-anchor="middle" x="227" y="-304.5" font-family="Helvetica,sans-Serif" font-size="10.00">List.hpp</text>
</a>
</g>
</g>
<!-- Node2&#45;&gt;Node17 -->
<g id="edge32_Node000002_Node000017" class="edge">
<title>Node2&#45;&gt;Node17</title>
<g id="a_edge32_Node000002_Node000017"><a xlink:title=" ">
<path fill="none" stroke="#63b8ff" d="M345.79,-470.94C329.05,-463.64 310.06,-453.31 296,-439.75 262.33,-407.27 240.77,-354.75 231.79,-329.49"/>
<polygon fill="#63b8ff" stroke="#63b8ff" points="344.42,-474.15 355,-474.72 347.08,-467.68 344.42,-474.15"/>
</a>
</g>
</g>
<!-- Node4 -->
<g id="Node000004" class="node">
<title>Node4</title>
<g id="a_Node000004"><a xlink:href="../../d2/d4f/_expectation_builder_8hpp.html" target="_top" xlink:title=" ">
<polygon fill="white" stroke="#666666" points="1194.75,-190.62 1039.25,-190.62 1039.25,-171.38 1194.75,-171.38 1194.75,-190.62"/>
<text text-anchor="middle" x="1117" y="-177.12" font-family="Helvetica,sans-Serif" font-size="10.00">mimic++/ExpectationBuilder.hpp</text>
</a>
</g>
</g>
<!-- Node3&#45;&gt;Node4 -->
<g id="edge3_Node000003_Node000004" class="edge">
<title>Node3&#45;&gt;Node4</title>
<g id="a_edge3_Node000003_Node000004"><a xlink:title=" ">
<path fill="none" stroke="#63b8ff" d="M1117,-226.02C1117,-214.19 1117,-199.91 1117,-190.89"/>
<polygon fill="#63b8ff" stroke="#63b8ff" points="1113.5,-226.02 1117,-236.02 1120.5,-226.02 1113.5,-226.02"/>
</a>
</g>
</g>
<!-- Node3&#45;&gt;Node5 -->
<g id="edge11_Node000003_Node000005" class="edge">
<title>Node3&#45;&gt;Node5</title>
<g id="a_edge11_Node000003_Node000005"><a xlink:title=" ">
<path fill="none" stroke="#63b8ff" d="M1158.68,-233.05C1175.9,-225.21 1194.11,-213.39 1204,-196.25 1216.51,-174.58 1200.81,-144.74 1191.29,-130.04"/>
<polygon fill="#63b8ff" stroke="#63b8ff" points="1157.45,-229.77 1149.57,-236.85 1160.15,-236.23 1157.45,-229.77"/>
</a>
</g>
</g>
<!-- Node3&#45;&gt;Node7 -->
<g id="edge12_Node000003_Node000007" class="edge">
<title>Node3&#45;&gt;Node7</title>
<g id="a_edge12_Node000003_Node000007"><a xlink:title=" ">
<path fill="none" stroke="#63b8ff" d="M1079.9,-232.92C1062.42,-224.78 1042.67,-212.74 1030,-196.25 990.46,-144.78 1031.65,-106.63 992,-55.25 978.94,-38.33 957.52,-26.74 940.43,-19.62"/>
<polygon fill="#63b8ff" stroke="#63b8ff" points="1078.45,-236.11 1089.01,-236.89 1081.24,-229.69 1078.45,-236.11"/>
</a>
</g>
</g>
<!-- Node4&#45;&gt;Node5 -->
<g id="edge4_Node000004_Node000005" class="edge">
<title>Node4&#45;&gt;Node5</title>
<g id="a_edge4_Node000004_Node000005"><a xlink:title=" ">
<path fill="none" stroke="#63b8ff" d="M1135.7,-163.81C1148.23,-152.96 1164.25,-139.09 1174.58,-130.15"/>
<polygon fill="#63b8ff" stroke="#63b8ff" points="1133.74,-160.88 1128.47,-170.07 1138.32,-166.17 1133.74,-160.88"/>
</a>
</g>
</g>
<!-- Node4&#45;&gt;Node7 -->
<g id="edge10_Node000004_Node000007" class="edge">
<title>Node4&#45;&gt;Node7</title>
<g id="a_edge10_Node000004_Node000007"><a xlink:title=" ">
<path fill="none" stroke="#63b8ff" d="M1107.47,-161.1C1093.02,-134.19 1063.17,-84.8 1025,-55.25 1002.91,-38.15 973.39,-26.7 950.35,-19.68"/>
<polygon fill="#63b8ff" stroke="#63b8ff" points="1104.27,-162.55 1112,-169.8 1110.48,-159.31 1104.27,-162.55"/>
</a>
</g>
</g>
<!-- Node5&#45;&gt;Node6 -->
<g id="edge5_Node000005_Node000006" class="edge">
<title>Node5&#45;&gt;Node6</title>
<g id="a_edge5_Node000005_Node000006"><a xlink:title=" ">
<path fill="none" stroke="#63b8ff" d="M1127.47,-107.82C1077.58,-98.02 1006.3,-84.01 960.09,-74.93"/>
<polygon fill="#63b8ff" stroke="#63b8ff" points="1126.75,-111.25 1137.24,-109.74 1128.1,-104.38 1126.75,-111.25"/>
</a>
</g>
</g>
<!-- Node5&#45;&gt;Node7 -->
<g id="edge9_Node000005_Node000007" class="edge">
<title>Node5&#45;&gt;Node7</title>
<g id="a_edge9_Node000005_Node000007"><a xlink:title=" ">
<path fill="none" stroke="#63b8ff" d="M1160.28,-104.38C1136.1,-90.4 1097.91,-69.46 1063,-55.25 1025.99,-40.18 981.97,-27.62 951.42,-19.7"/>
<polygon fill="#63b8ff" stroke="#63b8ff" points="1158.34,-107.3 1168.73,-109.33 1161.87,-101.26 1158.34,-107.3"/>
</a>
</g>
</g>
<!-- Node8 -->
<g id="Node000008" class="node">
<title>Node8</title>
<g id="a_Node000008"><a xlink:href="../../d5/d92/_object_watcher_8hpp.html" target="_top" xlink:title=" ">
<polygon fill="white" stroke="#666666" points="1254.88,-74.5 1115.12,-74.5 1115.12,-55.25 1254.88,-55.25 1254.88,-74.5"/>
<text text-anchor="middle" x="1185" y="-61" font-family="Helvetica,sans-Serif" font-size="10.00">mimic++/ObjectWatcher.hpp</text>
</a>
</g>
</g>
<!-- Node5&#45;&gt;Node8 -->
<g id="edge7_Node000005_Node000008" class="edge">
<title>Node5&#45;&gt;Node8</title>
<g id="a_edge7_Node000005_Node000008"><a xlink:title=" ">
<path fill="none" stroke="#63b8ff" d="M1185,-98.88C1185,-90.59 1185,-81.42 1185,-74.86"/>
<polygon fill="#63b8ff" stroke="#63b8ff" points="1181.5,-98.82 1185,-108.82 1188.5,-98.82 1181.5,-98.82"/>
</a>
</g>
</g>
<!-- Node6&#45;&gt;Node7 -->
<g id="edge6_Node000006_Node000007" class="edge">
<title>Node6&#45;&gt;Node7</title>
<g id="a_edge6_Node000006_Node000007"><a xlink:title=" ">
<path fill="none" stroke="#63b8ff" d="M914,-43.63C914,-35.34 914,-26.17 914,-19.61"/>
<polygon fill="#63b8ff" stroke="#63b8ff" points="910.5,-43.57 914,-53.57 917.5,-43.57 910.5,-43.57"/>
</a>
</g>
</g>
<!-- Node8&#45;&gt;Node7 -->
<g id="edge8_Node000008_Node000007" class="edge">
<title>Node8&#45;&gt;Node7</title>
<g id="a_edge8_Node000008_Node000007"><a xlink:title=" ">
<path fill="none" stroke="#63b8ff" d="M1127.47,-52.57C1077.58,-42.77 1006.3,-28.76 960.09,-19.68"/>
<polygon fill="#63b8ff" stroke="#63b8ff" points="1126.75,-56 1137.24,-54.49 1128.1,-49.13 1126.75,-56"/>
</a>
</g>
</g>
<!-- Node9&#45;&gt;Node3 -->
<g id="edge14_Node000009_Node000003" class="edge">
<title>Node9&#45;&gt;Node3</title>
<g id="a_edge14_Node000009_Node000003"><a xlink:title=" ">
<path fill="none" stroke="#63b8ff" d="M890.8,-369.65C984.34,-363.13 1143.49,-349.22 1161,-329.25 1180.89,-306.56 1147.43,-273.36 1128.55,-257.54"/>
<polygon fill="#63b8ff" stroke="#63b8ff" points="890.7,-366.15 880.96,-370.33 891.18,-373.14 890.7,-366.15"/>
</a>
</g>
</g>
<!-- Node9&#45;&gt;Node7 -->
<g id="edge26_Node000009_Node000007" class="edge">
<title>Node9&#45;&gt;Node7</title>
<g id="a_edge26_Node000009_Node000007"><a xlink:title=" ">
<path fill="none" stroke="#63b8ff" d="M755.55,-374.71C669.35,-374.17 527.25,-367.32 494,-329.25 485.08,-319.04 489.49,-311.53 494,-298.75 500.83,-279.37 510.56,-279.1 523,-262.75 549.76,-227.59 581,-226.19 581,-182 581,-182 581,-182 581,-119.12 581,-61.82 761.55,-30.08 856.76,-17.32"/>
<polygon fill="#63b8ff" stroke="#63b8ff" points="755.29,-378.21 765.3,-374.74 755.31,-371.21 755.29,-378.21"/>
</a>
</g>
</g>
<!-- Node9&#45;&gt;Node10 -->
<g id="edge15_Node000009_Node000010" class="edge">
<title>Node9&#45;&gt;Node10</title>
<g id="a_edge15_Node000009_Node000010"><a xlink:title=" ">
<path fill="none" stroke="#63b8ff" d="M890.32,-365.94C964.67,-357.14 1087.91,-342.44 1194,-329.25 1210.68,-327.18 1228.76,-324.88 1245.39,-322.74"/>
<polygon fill="#63b8ff" stroke="#63b8ff" points="890.29,-362.42 880.77,-367.07 891.12,-369.37 890.29,-362.42"/>
</a>
</g>
</g>
<!-- Node12 -->
<g id="Node000012" class="node">
<title>Node12</title>
<g id="a_Node000012"><a xlink:href="../../d9/d42/_boost_test_8hpp.html" target="_top" xlink:title=" ">
<polygon fill="white" stroke="#666666" points="987.38,-323.62 826.62,-323.62 826.62,-304.38 987.38,-304.38 987.38,-323.62"/>
<text text-anchor="middle" x="907" y="-310.12" font-family="Helvetica,sans-Serif" font-size="10.00">mimic++/adapters/BoostTest.hpp</text>
</a>
</g>
</g>
<!-- Node9&#45;&gt;Node12 -->
<g id="edge22_Node000009_Node000012" class="edge">
<title>Node9&#45;&gt;Node12</title>
<g id="a_edge22_Node000009_Node000012"><a xlink:title=" ">
<path fill="none" stroke="#63b8ff" d="M844.76,-358.63C860.41,-347.65 881,-333.22 894.12,-324.03"/>
<polygon fill="#63b8ff" stroke="#63b8ff" points="843.18,-355.46 837,-364.06 847.19,-361.19 843.18,-355.46"/>
</a>
</g>
</g>
<!-- Node13 -->
<g id="Node000013" class="node">
<title>Node13</title>
<g id="a_Node000013"><a xlink:href="../../d3/d04/_catch2_8hpp.html" target="_top" xlink:title=" ">
<polygon fill="white" stroke="#666666" points="1152.25,-323.62 1005.75,-323.62 1005.75,-304.38 1152.25,-304.38 1152.25,-323.62"/>
<text text-anchor="middle" x="1079" y="-310.12" font-family="Helvetica,sans-Serif" font-size="10.00">mimic++/adapters/Catch2.hpp</text>
</a>
</g>
</g>
<!-- Node9&#45;&gt;Node13 -->
<g id="edge23_Node000009_Node000013" class="edge">
<title>Node9&#45;&gt;Node13</title>
<g id="a_edge23_Node000009_Node000013"><a xlink:title=" ">
<path fill="none" stroke="#63b8ff" d="M873.36,-362.29C922.06,-351.09 994.87,-334.35 1039.52,-324.08"/>
<polygon fill="#63b8ff" stroke="#63b8ff" points="872.88,-358.81 863.91,-364.47 874.44,-365.64 872.88,-358.81"/>
</a>
</g>
</g>
<!-- Node14 -->
<g id="Node000014" class="node">
<title>Node14</title>
<g id="a_Node000014"><a xlink:href="../../dc/d42/_doctest_8hpp.html" target="_top" xlink:title=" ">
<polygon fill="white" stroke="#666666" points="652.75,-323.62 503.25,-323.62 503.25,-304.38 652.75,-304.38 652.75,-323.62"/>
<text text-anchor="middle" x="578" y="-310.12" font-family="Helvetica,sans-Serif" font-size="10.00">mimic++/adapters/Doctest.hpp</text>
</a>
</g>
</g>
<!-- Node9&#45;&gt;Node14 -->
<g id="edge24_Node000009_Node000014" class="edge">
<title>Node9&#45;&gt;Node14</title>
<g id="a_edge24_Node000009_Node000014"><a xlink:title=" ">
<path fill="none" stroke="#63b8ff" d="M774.22,-362.15C727.61,-350.95 658.34,-334.31 615.79,-324.08"/>
<polygon fill="#63b8ff" stroke="#63b8ff" points="773.24,-365.52 783.78,-364.45 774.88,-358.71 773.24,-365.52"/>
</a>
</g>
</g>
<!-- Node15 -->
<g id="Node000015" class="node">
<title>Node15</title>
<g id="a_Node000015"><a xlink:href="../../d5/db1/gtest_8hpp.html" target="_top" xlink:title=" ">
<polygon fill="white" stroke="#666666" points="808.75,-323.62 671.25,-323.62 671.25,-304.38 808.75,-304.38 808.75,-323.62"/>
<text text-anchor="middle" x="740" y="-310.12" font-family="Helvetica,sans-Serif" font-size="10.00">mimic++/adapters/gtest.hpp</text>
</a>
</g>
</g>
<!-- Node9&#45;&gt;Node15 -->
<g id="edge25_Node000009_Node000015" class="edge">
<title>Node9&#45;&gt;Node15</title>
<g id="a_edge25_Node000009_Node000015"><a xlink:title=" ">
<path fill="none" stroke="#63b8ff" d="M801.06,-358.31C785.65,-347.38 765.57,-333.14 752.72,-324.03"/>
<polygon fill="#63b8ff" stroke="#63b8ff" points="798.98,-361.13 809.16,-364.06 803.03,-355.42 798.98,-361.13"/>
</a>
</g>
</g>
<!-- Node10&#45;&gt;Node3 -->
<g id="edge16_Node000010_Node000003" class="edge">
<title>Node10&#45;&gt;Node3</title>
<g id="a_edge16_Node000010_Node000003"><a xlink:title=" ">
<path fill="none" stroke="#63b8ff" d="M1267.7,-300.2C1230.98,-287.6 1175.81,-268.68 1143.4,-257.56"/>
<polygon fill="#63b8ff" stroke="#63b8ff" points="1266.44,-303.47 1277.03,-303.4 1268.71,-296.85 1266.44,-303.47"/>
</a>
</g>
</g>
<!-- Node10&#45;&gt;Node4 -->
<g id="edge17_Node000010_Node000004" class="edge">
<title>Node10&#45;&gt;Node4</title>
<g id="a_edge17_Node000010_Node000004"><a xlink:title=" ">
<path fill="none" stroke="#63b8ff" d="M1282.6,-297.7C1268.13,-287.79 1248.91,-274.56 1232,-262.75 1212.79,-249.33 1208.16,-245.73 1189,-232.25 1168.43,-217.78 1144.47,-201.09 1130.03,-191.05"/>
<polygon fill="#63b8ff" stroke="#63b8ff" points="1280.3,-300.36 1290.52,-303.12 1284.25,-294.59 1280.3,-300.36"/>
</a>
</g>
</g>
<!-- Node10&#45;&gt;Node7 -->
<g id="edge18_Node000010_Node000007" class="edge">
<title>Node10&#45;&gt;Node7</title>
<g id="a_edge18_Node000010_Node000007"><a xlink:title=" ">
<path fill="none" stroke="#63b8ff" d="M1299.79,-293.1C1293.57,-267.56 1284,-221.8 1284,-182 1284,-182 1284,-182 1284,-119.12 1284,-89.38 1286.81,-74.35 1264,-55.25 1220.79,-19.07 1058.88,-11.85 971.23,-10.64"/>
<polygon fill="#63b8ff" stroke="#63b8ff" points="1296.38,-293.88 1302.22,-302.72 1303.16,-292.16 1296.38,-293.88"/>
</a>
</g>
</g>
<!-- Node11 -->
<g id="Node000011" class="node">
<title>Node11</title>
<g id="a_Node000011"><a xlink:href="../../db/d70/_control_policies_8hpp.html" target="_top" xlink:title=" ">
<polygon fill="white" stroke="#666666" points="958,-262.75 834,-262.75 834,-232.25 958,-232.25 958,-262.75"/>
<text text-anchor="start" x="842" y="-249.25" font-family="Helvetica,sans-Serif" font-size="10.00">mimic++/policies/Control</text>
<text text-anchor="middle" x="896" y="-238" font-family="Helvetica,sans-Serif" font-size="10.00">Policies.hpp</text>
</a>
</g>
</g>
<!-- Node10&#45;&gt;Node11 -->
<g id="edge19_Node000010_Node000011" class="edge">
<title>Node10&#45;&gt;Node11</title>
<g id="a_edge19_Node000010_Node000011"><a xlink:title=" ">
<path fill="none" stroke="#63b8ff" d="M1236.17,-302.15C1158.54,-289.9 1033.38,-270.16 958.46,-258.35"/>
<polygon fill="#63b8ff" stroke="#63b8ff" points="1235.35,-305.56 1245.77,-303.66 1236.44,-298.64 1235.35,-305.56"/>
</a>
</g>
</g>
<!-- Node11&#45;&gt;Node4 -->
<g id="edge20_Node000011_Node000004" class="edge">
<title>Node11&#45;&gt;Node4</title>
<g id="a_edge20_Node000011_Node000004"><a xlink:title=" ">
<path fill="none" stroke="#63b8ff" d="M957.32,-228.6C999.09,-216.41 1052.64,-200.78 1085.89,-191.08"/>
<polygon fill="#63b8ff" stroke="#63b8ff" points="956.5,-225.2 947.88,-231.36 958.46,-231.92 956.5,-225.2"/>
</a>
</g>
</g>
<!-- Node11&#45;&gt;Node7 -->
<g id="edge21_Node000011_Node000007" class="edge">
<title>Node11&#45;&gt;Node7</title>
<g id="a_edge21_Node000011_Node000007"><a xlink:title=" ">
<path fill="none" stroke="#63b8ff" d="M877.04,-223.08C849.18,-185.62 803.79,-110.79 836,-55.25 846.18,-37.71 866.13,-26.47 883.31,-19.66"/>
<polygon fill="#63b8ff" stroke="#63b8ff" points="874.24,-225.18 883.1,-230.99 879.79,-220.92 874.24,-225.18"/>
</a>
</g>
</g>
<!-- Node16&#45;&gt;Node7 -->
<g id="edge29_Node000016_Node000007" class="edge">
<title>Node16&#45;&gt;Node7</title>
<g id="a_edge29_Node000016_Node000007"><a xlink:title=" ">
<path fill="none" stroke="#63b8ff" d="M351.48,-409.82C336.52,-372.79 310.01,-290.29 342,-232.25 356.46,-206.01 375.66,-215.04 399,-196.25 467.54,-141.06 458.97,-93.95 538,-55.25 592.83,-28.4 766.05,-17.02 856.98,-12.8"/>
<polygon fill="#63b8ff" stroke="#63b8ff" points="348.14,-410.91 355.25,-418.77 354.59,-408.19 348.14,-410.91"/>
</a>
</g>
</g>
<!-- Node16&#45;&gt;Node9 -->
<g id="edge28_Node000016_Node000009" class="edge">
<title>Node16&#45;&gt;Node9</title>
<g id="a_edge28_Node000016_Node000009"><a xlink:title=" ">
<path fill="none" stroke="#63b8ff" d="M425.99,-420.86C427,-420.74 428,-420.62 429,-420.5 549.14,-406.19 690.02,-390.49 766.54,-382.06"/>
<polygon fill="#63b8ff" stroke="#63b8ff" points="425.99,-417.33 416.48,-422.01 426.83,-424.28 425.99,-417.33"/>
</a>
</g>
</g>
<!-- Node16&#45;&gt;Node11 -->
<g id="edge30_Node000016_Node000011" class="edge">
<title>Node16&#45;&gt;Node11</title>
<g id="a_edge30_Node000016_Node000011"><a xlink:title=" ">
<path fill="none" stroke="#63b8ff" d="M372.35,-411.11C393.47,-381.91 439.57,-324.91 494,-298.75 552.56,-270.61 735.97,-256.91 833.52,-251.47"/>
<polygon fill="#63b8ff" stroke="#63b8ff" points="369.73,-408.75 366.82,-418.94 375.45,-412.79 369.73,-408.75"/>
</a>
</g>
</g>
<!-- Node17&#45;&gt;Node7 -->
<g id="edge33_Node000017_Node000007" class="edge">
<title>Node17&#45;&gt;Node7</title>
<g id="a_edge33_Node000017_Node000007"><a xlink:title=" ">
<path fill="none" stroke="#63b8ff" d="M226.06,-287.19C225.18,-260.77 224,-218.53 224,-182 224,-182 224,-182 224,-119.12 224,-45.44 305.41,-72.71 377,-55.25 466.75,-33.36 737.63,-18.69 856.75,-13.12"/>
<polygon fill="#63b8ff" stroke="#63b8ff" points="222.55,-287.08 226.4,-296.95 229.55,-286.84 222.55,-287.08"/>
</a>
</g>
</g>
<!-- Node18 -->
<g id="Node000018" class="node">
<title>Node18</title>
<g id="a_Node000018"><a xlink:href="../../d1/d42/_arg_requirement_policies_8hpp.html" target="_top" xlink:title=" ">
<polygon fill="white" stroke="#666666" points="514.5,-262.75 351.5,-262.75 351.5,-232.25 514.5,-232.25 514.5,-262.75"/>
<text text-anchor="start" x="359.5" y="-249.25" font-family="Helvetica,sans-Serif" font-size="10.00">mimic++/policies/ArgRequirement</text>
<text text-anchor="middle" x="433" y="-238" font-family="Helvetica,sans-Serif" font-size="10.00">Policies.hpp</text>
</a>
</g>
</g>
<!-- Node17&#45;&gt;Node18 -->
<g id="edge34_Node000017_Node000018" class="edge">
<title>Node17&#45;&gt;Node18</title>
<g id="a_edge34_Node000017_Node000018"><a xlink:title=" ">
<path fill="none" stroke="#63b8ff" d="M284.99,-294.84C316.98,-284.83 356.18,-272.55 386.2,-263.15"/>
<polygon fill="#63b8ff" stroke="#63b8ff" points="283.94,-291.5 275.45,-297.83 286.04,-298.18 283.94,-291.5"/>
</a>
</g>
</g>
<!-- Node17&#45;&gt;Node19 -->
<g id="edge37_Node000017_Node000019" class="edge">
<title>Node17&#45;&gt;Node19</title>
<g id="a_edge37_Node000017_Node000019"><a xlink:title=" ">
<path fill="none" stroke="#63b8ff" d="M186.38,-293.45C166.08,-283.68 141.94,-272.06 123.29,-263.08"/>
<polygon fill="#63b8ff" stroke="#63b8ff" points="184.7,-296.52 195.23,-297.71 187.74,-290.22 184.7,-296.52"/>
</a>
</g>
</g>
<!-- Node20 -->
<g id="Node000020" class="node">
<title>Node20</title>
<g id="a_Node000020"><a xlink:href="../../dc/d18/_side_effect_policies_8hpp.html" target="_top" xlink:title=" ">
<polygon fill="white" stroke="#666666" points="389.75,-196.25 252.25,-196.25 252.25,-165.75 389.75,-165.75 389.75,-196.25"/>
<text text-anchor="start" x="260.25" y="-182.75" font-family="Helvetica,sans-Serif" font-size="10.00">mimic++/policies/SideEffect</text>
<text text-anchor="middle" x="321" y="-171.5" font-family="Helvetica,sans-Serif" font-size="10.00">Policies.hpp</text>
</a>
</g>
</g>
<!-- Node17&#45;&gt;Node20 -->
<g id="edge39_Node000017_Node000020" class="edge">
<title>Node17&#45;&gt;Node20</title>
<g id="a_edge39_Node000017_Node000020"><a xlink:title=" ">
<path fill="none" stroke="#63b8ff" d="M243.98,-289.34C263.34,-262.35 294.41,-219.05 310.53,-196.58"/>
<polygon fill="#63b8ff" stroke="#63b8ff" points="241.29,-287.09 238.3,-297.25 246.97,-291.17 241.29,-287.09"/>
</a>
</g>
</g>
<!-- Node18&#45;&gt;Node4 -->
<g id="edge35_Node000018_Node000004" class="edge">
<title>Node18&#45;&gt;Node4</title>
<g id="a_edge35_Node000018_Node000004"><a xlink:title=" ">
<path fill="none" stroke="#63b8ff" d="M526,-237.73C661.78,-224.93 911.89,-201.34 1038.77,-189.38"/>
<polygon fill="#63b8ff" stroke="#63b8ff" points="525.96,-234.22 516.33,-238.64 526.62,-241.19 525.96,-234.22"/>
</a>
</g>
</g>
<!-- Node18&#45;&gt;Node7 -->
<g id="edge36_Node000018_Node000007" class="edge">
<title>Node18&#45;&gt;Node7</title>
<g id="a_edge36_Node000018_Node000007"><a xlink:title=" ">
<path fill="none" stroke="#63b8ff" d="M442.6,-221.39C460.18,-179.15 501.85,-94.64 567,-55.25 614.56,-26.5 771.44,-16.05 857.05,-12.43"/>
<polygon fill="#63b8ff" stroke="#63b8ff" points="439.43,-219.89 438.93,-230.47 445.92,-222.5 439.43,-219.89"/>
</a>
</g>
</g>
<!-- Node19&#45;&gt;Node7 -->
<g id="edge38_Node000019_Node000007" class="edge">
<title>Node19&#45;&gt;Node7</title>
<g id="a_edge38_Node000019_Node000007"><a xlink:title=" ">
<path fill="none" stroke="#63b8ff" d="M95.24,-220.52C100.44,-177.95 117.43,-94.17 172,-55.25 227.26,-15.84 692.78,-11.07 856.96,-10.62"/>
<polygon fill="#63b8ff" stroke="#63b8ff" points="91.77,-220.02 94.18,-230.34 98.73,-220.77 91.77,-220.02"/>
</a>
</g>
</g>
<!-- Node20&#45;&gt;Node7 -->
<g id="edge40_Node000020_Node000007" class="edge">
<title>Node20&#45;&gt;Node7</title>
<g id="a_edge40_Node000020_Node000007"><a xlink:title=" ">
<path fill="none" stroke="#63b8ff" d="M330.04,-154.6C341.99,-125.14 366.08,-77.75 404,-55.25 442.22,-32.57 732,-18.09 856.95,-12.84"/>
<polygon fill="#63b8ff" stroke="#63b8ff" points="326.79,-153.28 326.46,-163.87 333.32,-155.8 326.79,-153.28"/>
</a>
</g>
</g>
<!-- Node21&#45;&gt;Node4 -->
<g id="edge43_Node000021_Node000004" class="edge">
<title>Node21&#45;&gt;Node4</title>
<g id="a_edge43_Node000021_Node000004"><a xlink:title=" ">
<path fill="none" stroke="#63b8ff" d="M1483.71,-411.27C1462.71,-384.05 1419.45,-331.85 1373,-298.75 1352.26,-283.97 1195.49,-215.82 1138.03,-191.04"/>
<polygon fill="#63b8ff" stroke="#63b8ff" points="1480.66,-413.03 1489.49,-418.88 1486.23,-408.8 1480.66,-413.03"/>
</a>
</g>
</g>
<!-- Node21&#45;&gt;Node7 -->
<g id="edge44_Node000021_Node000007" class="edge">
<title>Node21&#45;&gt;Node7</title>
<g id="a_edge44_Node000021_Node000007"><a xlink:title=" ">
<path fill="none" stroke="#63b8ff" d="M1505.4,-410.05C1518.91,-377.57 1544,-309.1 1544,-248.5 1544,-248.5 1544,-248.5 1544,-119.12 1544,-79.56 1517.81,-72.08 1482,-55.25 1392.48,-13.18 1096.15,-9.61 970.8,-10.06"/>
<polygon fill="#63b8ff" stroke="#63b8ff" points="1502.32,-408.35 1501.6,-418.92 1508.75,-411.11 1502.32,-408.35"/>
</a>
</g>
</g>
<!-- Node21&#45;&gt;Node18 -->
<g id="edge45_Node000021_Node000018" class="edge">
<title>Node21&#45;&gt;Node18</title>
<g id="a_edge45_Node000021_Node000018"><a xlink:title=" ">
<path fill="none" stroke="#63b8ff" d="M1430.33,-427.86C1300.48,-424.78 1004.75,-414.78 758,-384.5 624.74,-368.14 562.78,-416.82 461,-329.25 441.54,-312.51 435.59,-281.52 433.78,-263.18"/>
<polygon fill="#63b8ff" stroke="#63b8ff" points="1430.04,-431.35 1440.11,-428.08 1430.2,-424.35 1430.04,-431.35"/>
</a>
</g>
</g>
<!-- Node22&#45;&gt;Node7 -->
<g id="edge52_Node000022_Node000007" class="edge">
<title>Node22&#45;&gt;Node7</title>
<g id="a_edge52_Node000022_Node000007"><a xlink:title=" ">
<path fill="none" stroke="#63b8ff" d="M1387.15,-465.04C1410.88,-417.98 1468,-293.18 1468,-182 1468,-182 1468,-182 1468,-119.12 1468,-18.67 1112.75,-9.52 971.2,-9.87"/>
<polygon fill="#63b8ff" stroke="#63b8ff" points="1384.04,-463.43 1382.58,-473.93 1390.27,-466.63 1384.04,-463.43"/>
</a>
</g>
</g>
<!-- Node22&#45;&gt;Node9 -->
<g id="edge49_Node000022_Node000009" class="edge">
<title>Node22&#45;&gt;Node9</title>
<g id="a_edge49_Node000022_Node000009"><a xlink:title=" ">
<path fill="none" stroke="#63b8ff" d="M1319.52,-473.12C1209.36,-451.54 970.49,-404.76 869.54,-384.99"/>
<polygon fill="#63b8ff" stroke="#63b8ff" points="1318.75,-476.53 1329.23,-475.02 1320.09,-469.66 1318.75,-476.53"/>
</a>
</g>
</g>
<!-- Node22&#45;&gt;Node10 -->
<g id="edge51_Node000022_Node000010" class="edge">
<title>Node22&#45;&gt;Node10</title>
<g id="a_edge51_Node000022_Node000010"><a xlink:title=" ">
<path fill="none" stroke="#63b8ff" d="M1368.73,-464.92C1353.11,-428.18 1319.85,-349.93 1308.72,-323.74"/>
<polygon fill="#63b8ff" stroke="#63b8ff" points="1365.4,-466.04 1372.54,-473.88 1371.85,-463.3 1365.4,-466.04"/>
</a>
</g>
</g>
<!-- Node22&#45;&gt;Node16 -->
<g id="edge50_Node000022_Node000016" class="edge">
<title>Node22&#45;&gt;Node16</title>
<g id="a_edge50_Node000022_Node000016"><a xlink:title=" ">
<path fill="none" stroke="#63b8ff" d="M1313.36,-481.04C1127.66,-471.32 588.6,-443.09 414.74,-433.99"/>
<polygon fill="#63b8ff" stroke="#63b8ff" points="1313.14,-484.54 1323.3,-481.56 1313.5,-477.55 1313.14,-484.54"/>
</a>
</g>
</g>
<!-- Node22&#45;&gt;Node21 -->
<g id="edge48_Node000022_Node000021" class="edge">
<title>Node22&#45;&gt;Node21</title>
<g id="a_edge48_Node000022_Node000021"><a xlink:title=" ">
<path fill="none" stroke="#63b8ff" d="M1407.66,-470.77C1429.27,-461.18 1457.63,-448.59 1476.54,-440.2"/>
<polygon fill="#63b8ff" stroke="#63b8ff" points="1406.46,-467.47 1398.74,-474.73 1409.3,-473.87 1406.46,-467.47"/>
</a>
</g>
</g>
<!-- Node22&#45;&gt;Node23 -->
<g id="edge53_Node000022_Node000023" class="edge">
<title>Node22&#45;&gt;Node23</title>
<g id="a_edge53_Node000022_Node000023"><a xlink:title=" ">
<path fill="none" stroke="#63b8ff" d="M1376.91,-464.2C1376.72,-417.66 1376.23,-303.72 1376.06,-263.14"/>
<polygon fill="#63b8ff" stroke="#63b8ff" points="1373.41,-463.92 1376.96,-473.9 1380.41,-463.89 1373.41,-463.92"/>
</a>
</g>
</g>
<!-- Node23&#45;&gt;Node4 -->
<g id="edge54_Node000023_Node000004" class="edge">
<title>Node23&#45;&gt;Node4</title>
<g id="a_edge54_Node000023_Node000004"><a xlink:title=" ">
<path fill="none" stroke="#63b8ff" d="M1306.01,-229.07C1256.79,-216.81 1192.92,-200.91 1153.46,-191.08"/>
<polygon fill="#63b8ff" stroke="#63b8ff" points="1304.89,-232.4 1315.44,-231.42 1306.58,-225.6 1304.89,-232.4"/>
</a>
</g>
</g>
<!-- Node23&#45;&gt;Node5 -->
<g id="edge55_Node000023_Node000005" class="edge">
<title>Node23&#45;&gt;Node5</title>
<g id="a_edge55_Node000023_Node000005"><a xlink:title=" ">
<path fill="none" stroke="#63b8ff" d="M1344.15,-225.59C1301.77,-197.77 1228.67,-149.79 1198.56,-130.03"/>
<polygon fill="#63b8ff" stroke="#63b8ff" points="1342.17,-228.48 1352.45,-231.04 1346.01,-222.63 1342.17,-228.48"/>
</a>
</g>
</g>
<!-- Node23&#45;&gt;Node7 -->
<g id="edge56_Node000023_Node000007" class="edge">
<title>Node23&#45;&gt;Node7</title>
<g id="a_edge56_Node000023_Node000007"><a xlink:title=" ">
<path fill="none" stroke="#63b8ff" d="M1373.62,-220.56C1368.24,-178.39 1351.15,-95.62 1298,-55.25 1247.9,-17.19 1065.19,-10.94 971.01,-10.33"/>
<polygon fill="#63b8ff" stroke="#63b8ff" points="1370.12,-220.73 1374.72,-230.28 1377.07,-219.95 1370.12,-220.73"/>
</a>
</g>
</g>
<!-- Node24&#45;&gt;Node7 -->
<g id="edge61_Node000024_Node000007" class="edge">
<title>Node24&#45;&gt;Node7</title>
<g id="a_edge61_Node000024_Node000007"><a xlink:title=" ">
<path fill="none" stroke="#63b8ff" d="M1447.36,-525.79C1480.3,-509.7 1531.37,-480.1 1561,-439.75 1613.65,-368.05 1620,-337.45 1620,-248.5 1620,-248.5 1620,-248.5 1620,-119.12 1620,-64.5 1567.01,-71.93 1515,-55.25 1414.75,-23.1 1100.7,-13.92 970.95,-11.46"/>
<polygon fill="#63b8ff" stroke="#63b8ff" points="1446.25,-522.44 1438.72,-529.89 1449.25,-528.76 1446.25,-522.44"/>
</a>
</g>
</g>
<!-- Node24&#45;&gt;Node21 -->
<g id="edge59_Node000024_Node000021" class="edge">
<title>Node24&#45;&gt;Node21</title>
<g id="a_edge59_Node000024_Node000021"><a xlink:title=" ">
<path fill="none" stroke="#63b8ff" d="M1429.5,-521.54C1447.04,-498.05 1476.97,-457.95 1490.28,-440.13"/>
<polygon fill="#63b8ff" stroke="#63b8ff" points="1426.71,-519.43 1423.53,-529.53 1432.32,-523.61 1426.71,-519.43"/>
</a>
</g>
</g>
<!-- Node24&#45;&gt;Node22 -->
<g id="edge60_Node000024_Node000022" class="edge">
<title>Node24&#45;&gt;Node22</title>
<g id="a_edge60_Node000024_Node000022"><a xlink:title=" ">
<path fill="none" stroke="#63b8ff" d="M1402.86,-521.69C1396.38,-512.84 1388.84,-502.54 1383.58,-495.36"/>
<polygon fill="#63b8ff" stroke="#63b8ff" points="1399.93,-523.61 1408.67,-529.61 1405.58,-519.48 1399.93,-523.61"/>
</a>
</g>
</g>
</g>
</svg>
