<?xml version="1.0" encoding="UTF-8" standalone="no"?>
<!DOCTYPE svg PUBLIC "-//W3C//DTD SVG 1.1//EN"
 "http://www.w3.org/Graphics/SVG/1.1/DTD/svg11.dtd">
<!-- Generated by graphviz version 12.2.1 (20241206.2353)
 -->
<!-- Title: mimic++/reporting/IReporter.hpp Pages: 1 -->
<svg width="712pt" height="581pt"
 viewBox="0.00 0.00 712.33 580.75" xmlns="http://www.w3.org/2000/svg" xmlns:xlink="http://www.w3.org/1999/xlink">
<g id="graph0" class="graph" transform="scale(1 1) rotate(0) translate(4 576.75)">
<title>mimic++/reporting/IReporter.hpp</title>
<!-- Node1 -->
<g id="Node000001" class="node">
<title>Node1</title>
<g id="a_Node000001"><a xlink:title=" ">
<polygon fill="#999999" stroke="#666666" points="251.08,-572.75 95.58,-572.75 95.58,-553.5 251.08,-553.5 251.08,-572.75"/>
<text text-anchor="middle" x="173.33" y="-559.25" font-family="Helvetica,sans-Serif" font-size="10.00">mimic++/reporting/IReporter.hpp</text>
</a>
</g>
</g>
<!-- Node2 -->
<g id="Node000002" class="node">
<title>Node2</title>
<g id="a_Node000002"><a xlink:href="../../d7/deb/_reporting_8hpp.html" target="_top" xlink:title=" ">
<polygon fill="white" stroke="#666666" points="167.58,-384.5 51.08,-384.5 51.08,-365.25 167.58,-365.25 167.58,-384.5"/>
<text text-anchor="middle" x="109.33" y="-371" font-family="Helvetica,sans-Serif" font-size="10.00">mimic++/Reporting.hpp</text>
</a>
</g>
</g>
<!-- Node1&#45;&gt;Node2 -->
<g id="edge1_Node000001_Node000002" class="edge">
<title>Node1&#45;&gt;Node2</title>
<g id="a_edge1_Node000001_Node000002"><a xlink:title=" ">
<path fill="none" stroke="#63b8ff" d="M134.67,-549.08C94.12,-533.08 32.56,-501.65 5.33,-451 -1.08,-439.06 -2.13,-431.82 5.33,-420.5 17.39,-402.21 38.67,-391.39 58.86,-384.99"/>
<polygon fill="#63b8ff" stroke="#63b8ff" points="133.25,-552.28 143.84,-552.56 135.73,-545.74 133.25,-552.28"/>
</a>
</g>
</g>
<!-- Node4 -->
<g id="Node000004" class="node">
<title>Node4</title>
<g id="a_Node000004"><a xlink:href="../../d1/dfd/_basic_reporter_8hpp.html" target="_top" xlink:title=" ">
<polygon fill="white" stroke="#666666" points="191.96,-445.38 14.71,-445.38 14.71,-426.12 191.96,-426.12 191.96,-445.38"/>
<text text-anchor="middle" x="103.33" y="-431.88" font-family="Helvetica,sans-Serif" font-size="10.00">mimic++/reporting/BasicReporter.hpp</text>
</a>
</g>
</g>
<!-- Node1&#45;&gt;Node4 -->
<g id="edge3_Node000001_Node000004" class="edge">
<title>Node1&#45;&gt;Node4</title>
<g id="a_edge3_Node000001_Node000004"><a xlink:title=" ">
<path fill="none" stroke="#63b8ff" d="M161.81,-543.59C156.93,-535.62 151.26,-526.16 146.33,-517.5 131.74,-491.81 115.65,-460.83 107.95,-445.8"/>
<polygon fill="#63b8ff" stroke="#63b8ff" points="158.79,-545.36 167.02,-552.03 164.74,-541.68 158.79,-545.36"/>
</a>
</g>
</g>
<!-- Node5 -->
<g id="Node000005" class="node">
<title>Node5</title>
<g id="a_Node000005"><a xlink:href="../../d0/d70/_default_reporter_8hpp.html" target="_top" xlink:title=" ">
<polygon fill="white" stroke="#666666" points="283.58,-517.5 155.08,-517.5 155.08,-487 283.58,-487 283.58,-517.5"/>
<text text-anchor="start" x="163.08" y="-504" font-family="Helvetica,sans-Serif" font-size="10.00">mimic++/reporting/Default</text>
<text text-anchor="middle" x="219.33" y="-492.75" font-family="Helvetica,sans-Serif" font-size="10.00">Reporter.hpp</text>
</a>
</g>
</g>
<!-- Node1&#45;&gt;Node5 -->
<g id="edge5_Node000001_Node000005" class="edge">
<title>Node1&#45;&gt;Node5</title>
<g id="a_edge5_Node000001_Node000005"><a xlink:title=" ">
<path fill="none" stroke="#63b8ff" d="M187.38,-544.15C193.98,-535.7 201.75,-525.75 207.98,-517.78"/>
<polygon fill="#63b8ff" stroke="#63b8ff" points="184.65,-541.96 181.25,-551.99 190.17,-546.27 184.65,-541.96"/>
</a>
</g>
</g>
<!-- Node6 -->
<g id="Node000006" class="node">
<title>Node6</title>
<g id="a_Node000006"><a xlink:href="../../de/dd1/_global_reporter_8hpp.html" target="_top" xlink:title=" ">
<polygon fill="white" stroke="#666666" points="374.08,-451 248.58,-451 248.58,-420.5 374.08,-420.5 374.08,-451"/>
<text text-anchor="start" x="256.58" y="-437.5" font-family="Helvetica,sans-Serif" font-size="10.00">mimic++/reporting/Global</text>
<text text-anchor="middle" x="311.33" y="-426.25" font-family="Helvetica,sans-Serif" font-size="10.00">Reporter.hpp</text>
</a>
</g>
</g>
<!-- Node1&#45;&gt;Node6 -->
<g id="edge35_Node000001_Node000006" class="edge">
<title>Node1&#45;&gt;Node6</title>
<g id="a_edge35_Node000001_Node000006"><a xlink:title=" ">
<path fill="none" stroke="#63b8ff" d="M240.27,-549.58C259.45,-542.97 278.81,-532.87 292.33,-517.5 308.6,-499.01 311.61,-469.19 311.82,-451.43"/>
<polygon fill="#63b8ff" stroke="#63b8ff" points="239.29,-546.22 230.8,-552.55 241.39,-552.9 239.29,-546.22"/>
</a>
</g>
</g>
<!-- Node3 -->
<g id="Node000003" class="node">
<title>Node3</title>
<g id="a_Node000003"><a xlink:href="../../d0/db9/mimic_09_09_8hpp.html" target="_top" xlink:title=" ">
<polygon fill="white" stroke="#666666" points="504.08,-19.25 390.58,-19.25 390.58,0 504.08,0 504.08,-19.25"/>
<text text-anchor="middle" x="447.33" y="-5.75" font-family="Helvetica,sans-Serif" font-size="10.00">mimic++/mimic++.hpp</text>
</a>
</g>
</g>
<!-- Node2&#45;&gt;Node3 -->
<g id="edge2_Node000002_Node000003" class="edge">
<title>Node2&#45;&gt;Node3</title>
<g id="a_edge2_Node000002_Node000003"><a xlink:title=" ">
<path fill="none" stroke="#63b8ff" d="M109.33,-353.26C109.33,-328.41 109.33,-285.4 109.33,-248.5 109.33,-248.5 109.33,-248.5 109.33,-119.12 109.33,-79.87 135.59,-73.52 170.33,-55.25 207.57,-35.67 320.69,-22.19 390.32,-15.5"/>
<polygon fill="#63b8ff" stroke="#63b8ff" points="105.83,-353.24 109.33,-363.24 112.83,-353.24 105.83,-353.24"/>
</a>
</g>
</g>
<!-- Node4&#45;&gt;Node2 -->
<g id="edge4_Node000004_Node000002" class="edge">
<title>Node4&#45;&gt;Node2</title>
<g id="a_edge4_Node000004_Node000002"><a xlink:title=" ">
<path fill="none" stroke="#63b8ff" d="M105.38,-414.66C106.41,-404.55 107.61,-392.8 108.41,-384.9"/>
<polygon fill="#63b8ff" stroke="#63b8ff" points="101.93,-414 104.4,-424.3 108.89,-414.71 101.93,-414"/>
</a>
</g>
</g>
<!-- Node5&#45;&gt;Node2 -->
<g id="edge6_Node000005_Node000002" class="edge">
<title>Node5&#45;&gt;Node2</title>
<g id="a_edge6_Node000005_Node000002"><a xlink:title=" ">
<path fill="none" stroke="#63b8ff" d="M219.19,-475.05C217.83,-457.91 213.52,-435.91 201.33,-420.5 187.35,-402.82 164.6,-391.7 145.22,-384.98"/>
<polygon fill="#63b8ff" stroke="#63b8ff" points="215.69,-475.18 219.66,-485.01 222.68,-474.85 215.69,-475.18"/>
</a>
</g>
</g>
<!-- Node5&#45;&gt;Node6 -->
<g id="edge7_Node000005_Node000006" class="edge">
<title>Node5&#45;&gt;Node6</title>
<g id="a_edge7_Node000005_Node000006"><a xlink:title=" ">
<path fill="none" stroke="#63b8ff" d="M249.55,-480.07C262.97,-470.66 278.44,-459.81 290.54,-451.33"/>
<polygon fill="#63b8ff" stroke="#63b8ff" points="247.63,-477.14 241.45,-485.75 251.65,-482.87 247.63,-477.14"/>
</a>
</g>
</g>
<!-- Node6&#45;&gt;Node2 -->
<g id="edge8_Node000006_Node000002" class="edge">
<title>Node6&#45;&gt;Node2</title>
<g id="a_edge8_Node000006_Node000002"><a xlink:title=" ">
<path fill="none" stroke="#63b8ff" d="M249.96,-416.86C213.84,-406.33 169.69,-393.47 140.61,-384.99"/>
<polygon fill="#63b8ff" stroke="#63b8ff" points="248.85,-420.18 259.43,-419.62 250.81,-413.46 248.85,-420.18"/>
</a>
</g>
</g>
<!-- Node7 -->
<g id="Node000007" class="node">
<title>Node7</title>
<g id="a_Node000007"><a xlink:href="../../d8/de4/_sequence_8hpp.html" target="_top" xlink:title=" ">
<polygon fill="white" stroke="#666666" points="569.71,-384.5 450.96,-384.5 450.96,-365.25 569.71,-365.25 569.71,-384.5"/>
<text text-anchor="middle" x="510.33" y="-371" font-family="Helvetica,sans-Serif" font-size="10.00">mimic++/Sequence.hpp</text>
</a>
</g>
</g>
<!-- Node6&#45;&gt;Node7 -->
<g id="edge9_Node000006_Node000007" class="edge">
<title>Node6&#45;&gt;Node7</title>
<g id="a_edge9_Node000006_Node000007"><a xlink:title=" ">
<path fill="none" stroke="#63b8ff" d="M371.8,-416.86C407.38,-406.33 450.87,-393.47 479.52,-384.99"/>
<polygon fill="#63b8ff" stroke="#63b8ff" points="371.08,-413.42 362.49,-419.62 373.07,-420.13 371.08,-413.42"/>
</a>
</g>
</g>
<!-- Node9 -->
<g id="Node000009" class="node">
<title>Node9</title>
<g id="a_Node000009"><a xlink:href="../../db/d5d/_registry_8hpp.html" target="_top" xlink:title=" ">
<polygon fill="white" stroke="#666666" points="359.71,-329.25 252.96,-329.25 252.96,-298.75 359.71,-298.75 359.71,-329.25"/>
<text text-anchor="start" x="260.96" y="-315.75" font-family="Helvetica,sans-Serif" font-size="10.00">mimic++/expectation</text>
<text text-anchor="middle" x="306.33" y="-304.5" font-family="Helvetica,sans-Serif" font-size="10.00">/Registry.hpp</text>
</a>
</g>
</g>
<!-- Node6&#45;&gt;Node9 -->
<g id="edge34_Node000006_Node000009" class="edge">
<title>Node6&#45;&gt;Node9</title>
<g id="a_edge34_Node000006_Node000009"><a xlink:title=" ">
<path fill="none" stroke="#63b8ff" d="M310.25,-408.83C309.24,-384.52 307.76,-349.06 306.94,-329.43"/>
<polygon fill="#63b8ff" stroke="#63b8ff" points="306.74,-408.71 310.66,-418.55 313.74,-408.42 306.74,-408.71"/>
</a>
</g>
</g>
<!-- Node7&#45;&gt;Node3 -->
<g id="edge33_Node000007_Node000003" class="edge">
<title>Node7&#45;&gt;Node3</title>
<g id="a_edge33_Node000007_Node000003"><a xlink:title=" ">
<path fill="none" stroke="#63b8ff" d="M569.4,-361.91C626.47,-346.49 704.33,-313.54 704.33,-248.5 704.33,-248.5 704.33,-248.5 704.33,-119.12 704.33,-32.92 580.09,-14.14 504.37,-10.7"/>
<polygon fill="#63b8ff" stroke="#63b8ff" points="568.57,-358.51 559.76,-364.38 570.31,-365.29 568.57,-358.51"/>
</a>
</g>
</g>
<!-- Node8 -->
<g id="Node000008" class="node">
<title>Node8</title>
<g id="a_Node000008"><a xlink:href="../../db/d83/_scoped_sequence_8hpp.html" target="_top" xlink:title=" ">
<polygon fill="white" stroke="#666666" points="635.21,-129.75 483.46,-129.75 483.46,-110.5 635.21,-110.5 635.21,-129.75"/>
<text text-anchor="middle" x="559.33" y="-116.25" font-family="Helvetica,sans-Serif" font-size="10.00">mimic++/ScopedSequence.hpp</text>
</a>
</g>
</g>
<!-- Node7&#45;&gt;Node8 -->
<g id="edge10_Node000007_Node000008" class="edge">
<title>Node7&#45;&gt;Node8</title>
<g id="a_edge10_Node000007_Node000008"><a xlink:title=" ">
<path fill="none" stroke="#63b8ff" d="M512.21,-353.62C514.96,-326.01 520.72,-275.08 529.33,-232.25 537.06,-193.85 550.54,-149.11 556.44,-130.25"/>
<polygon fill="#63b8ff" stroke="#63b8ff" points="508.75,-353.06 511.28,-363.35 515.72,-353.73 508.75,-353.06"/>
</a>
</g>
</g>
<!-- Node7&#45;&gt;Node9 -->
<g id="edge12_Node000007_Node000009" class="edge">
<title>Node7&#45;&gt;Node9</title>
<g id="a_edge12_Node000007_Node000009"><a xlink:title=" ">
<path fill="none" stroke="#63b8ff" d="M468.07,-361.68C435.87,-352.38 391.41,-339.55 357.25,-329.69"/>
<polygon fill="#63b8ff" stroke="#63b8ff" points="466.87,-364.97 477.45,-364.39 468.81,-358.25 466.87,-364.97"/>
</a>
</g>
</g>
<!-- Node16 -->
<g id="Node000016" class="node">
<title>Node16</title>
<g id="a_Node000016"><a xlink:href="../../db/d70/_control_policies_8hpp.html" target="_top" xlink:title=" ">
<polygon fill="white" stroke="#666666" points="676.46,-262.75 538.21,-262.75 538.21,-232.25 676.46,-232.25 676.46,-262.75"/>
<text text-anchor="start" x="546.21" y="-249.25" font-family="Helvetica,sans-Serif" font-size="10.00">mimic++/expectation</text>
<text text-anchor="middle" x="607.33" y="-238" font-family="Helvetica,sans-Serif" font-size="10.00">/policies/ControlPolicies.hpp</text>
</a>
</g>
</g>
<!-- Node7&#45;&gt;Node16 -->
<g id="edge30_Node000007_Node000016" class="edge">
<title>Node7&#45;&gt;Node16</title>
<g id="a_edge30_Node000007_Node000016"><a xlink:title=" ">
<path fill="none" stroke="#63b8ff" d="M524.11,-356.07C543.44,-331.09 578.22,-286.13 596.08,-263.05"/>
<polygon fill="#63b8ff" stroke="#63b8ff" points="521.59,-353.61 518.24,-363.66 527.12,-357.89 521.59,-353.61"/>
</a>
</g>
</g>
<!-- Node8&#45;&gt;Node3 -->
<g id="edge11_Node000008_Node000003" class="edge">
<title>Node8&#45;&gt;Node3</title>
<g id="a_edge11_Node000008_Node000003"><a xlink:title=" ">
<path fill="none" stroke="#63b8ff" d="M580.19,-102.63C594.38,-89.36 608.71,-70.5 597.33,-55.25 576.06,-26.72 537.28,-15.7 504.48,-11.75"/>
<polygon fill="#63b8ff" stroke="#63b8ff" points="578,-99.89 572.74,-109.09 582.58,-105.18 578,-99.89"/>
</a>
</g>
</g>
<!-- Node9&#45;&gt;Node3 -->
<g id="edge29_Node000009_Node000003" class="edge">
<title>Node9&#45;&gt;Node3</title>
<g id="a_edge29_Node000009_Node000003"><a xlink:title=" ">
<path fill="none" stroke="#63b8ff" d="M251.97,-293.96C205.92,-273.95 147.33,-237.58 147.33,-182 147.33,-182 147.33,-182 147.33,-119.12 147.33,-78.3 177.1,-74.05 213.33,-55.25 269.13,-26.29 341.16,-15.99 390.48,-12.4"/>
<polygon fill="#63b8ff" stroke="#63b8ff" points="250.49,-297.13 261.07,-297.75 253.19,-290.67 250.49,-297.13"/>
</a>
</g>
</g>
<!-- Node10 -->
<g id="Node000010" class="node">
<title>Node10</title>
<g id="a_Node000010"><a xlink:href="../../d5/dc5/_mock_8hpp.html" target="_top" xlink:title=" ">
<polygon fill="white" stroke="#666666" points="426.96,-129.75 327.71,-129.75 327.71,-110.5 426.96,-110.5 426.96,-129.75"/>
<text text-anchor="middle" x="377.33" y="-116.25" font-family="Helvetica,sans-Serif" font-size="10.00">mimic++/Mock.hpp</text>
</a>
</g>
</g>
<!-- Node9&#45;&gt;Node10 -->
<g id="edge13_Node000009_Node000010" class="edge">
<title>Node9&#45;&gt;Node10</title>
<g id="a_edge13_Node000009_Node000010"><a xlink:title=" ">
<path fill="none" stroke="#63b8ff" d="M268.84,-291.75C258.71,-284.02 249,-274.29 243.33,-262.75 224.34,-224.05 217.08,-200.69 242.33,-165.75 261.64,-139.04 297.52,-128.05 327.44,-123.65"/>
<polygon fill="#63b8ff" stroke="#63b8ff" points="266.71,-294.53 276.91,-297.41 270.73,-288.8 266.71,-294.53"/>
</a>
</g>
</g>
<!-- Node13 -->
<g id="Node000013" class="node">
<title>Node13</title>
<g id="a_Node000013"><a xlink:href="../../d6/d15/_builder_8hpp.html" target="_top" xlink:title=" ">
<polygon fill="white" stroke="#666666" points="482.71,-196.25 375.96,-196.25 375.96,-165.75 482.71,-165.75 482.71,-196.25"/>
<text text-anchor="start" x="383.96" y="-182.75" font-family="Helvetica,sans-Serif" font-size="10.00">mimic++/expectation</text>
<text text-anchor="middle" x="429.33" y="-171.5" font-family="Helvetica,sans-Serif" font-size="10.00">/Builder.hpp</text>
</a>
</g>
</g>
<!-- Node9&#45;&gt;Node13 -->
<g id="edge19_Node000009_Node000013" class="edge">
<title>Node9&#45;&gt;Node13</title>
<g id="a_edge19_Node000009_Node000013"><a xlink:title=" ">
<path fill="none" stroke="#63b8ff" d="M335.17,-291.47C345.75,-283.01 357.53,-272.9 367.33,-262.75 387.97,-241.4 408.22,-213.29 419.71,-196.5"/>
<polygon fill="#63b8ff" stroke="#63b8ff" points="333.18,-288.58 327.46,-297.5 337.49,-294.1 333.18,-288.58"/>
</a>
</g>
</g>
<!-- Node14 -->
<g id="Node000014" class="node">
<title>Node14</title>
<g id="a_Node000014"><a xlink:href="../../d4/d1e/_owner_8hpp.html" target="_top" xlink:title=" ">
<polygon fill="white" stroke="#666666" points="358.71,-262.75 251.96,-262.75 251.96,-232.25 358.71,-232.25 358.71,-262.75"/>
<text text-anchor="start" x="259.96" y="-249.25" font-family="Helvetica,sans-Serif" font-size="10.00">mimic++/expectation</text>
<text text-anchor="middle" x="305.33" y="-238" font-family="Helvetica,sans-Serif" font-size="10.00">/Owner.hpp</text>
</a>
</g>
</g>
<!-- Node9&#45;&gt;Node14 -->
<g id="edge23_Node000009_Node000014" class="edge">
<title>Node9&#45;&gt;Node14</title>
<g id="a_edge23_Node000009_Node000014"><a xlink:title=" ">
<path fill="none" stroke="#63b8ff" d="M305.93,-287.06C305.81,-278.89 305.67,-270.16 305.56,-263.08"/>
<polygon fill="#63b8ff" stroke="#63b8ff" points="302.43,-286.91 306.08,-296.85 309.43,-286.8 302.43,-286.91"/>
</a>
</g>
</g>
<!-- Node10&#45;&gt;Node3 -->
<g id="edge18_Node000010_Node000003" class="edge">
<title>Node10&#45;&gt;Node3</title>
<g id="a_edge18_Node000010_Node000003"><a xlink:title=" ">
<path fill="none" stroke="#63b8ff" d="M438.41,-108.45C474.59,-100.74 515.45,-89.12 526.33,-74.5 544.03,-50.73 504.48,-30.65 475.19,-19.65"/>
<polygon fill="#63b8ff" stroke="#63b8ff" points="437.94,-104.97 428.85,-110.41 439.35,-111.83 437.94,-104.97"/>
</a>
</g>
</g>
<!-- Node11 -->
<g id="Node000011" class="node">
<title>Node11</title>
<g id="a_Node000011"><a xlink:href="../../d6/dc3/_facade_8hpp.html" target="_top" xlink:title=" ">
<polygon fill="white" stroke="#666666" points="359.08,-74.5 251.58,-74.5 251.58,-55.25 359.08,-55.25 359.08,-74.5"/>
<text text-anchor="middle" x="305.33" y="-61" font-family="Helvetica,sans-Serif" font-size="10.00">mimic++/Facade.hpp</text>
</a>
</g>
</g>
<!-- Node10&#45;&gt;Node11 -->
<g id="edge14_Node000010_Node000011" class="edge">
<title>Node10&#45;&gt;Node11</title>
<g id="a_edge14_Node000010_Node000011"><a xlink:title=" ">
<path fill="none" stroke="#63b8ff" d="M356.16,-103.47C343.52,-94.12 327.93,-82.58 317.37,-74.77"/>
<polygon fill="#63b8ff" stroke="#63b8ff" points="353.78,-106.06 363.9,-109.19 357.94,-100.43 353.78,-106.06"/>
</a>
</g>
</g>
<!-- Node12 -->
<g id="Node000012" class="node">
<title>Node12</title>
<g id="a_Node000012"><a xlink:href="../../d5/d92/_object_watcher_8hpp.html" target="_top" xlink:title=" ">
<polygon fill="white" stroke="#666666" points="517.21,-74.5 377.46,-74.5 377.46,-55.25 517.21,-55.25 517.21,-74.5"/>
<text text-anchor="middle" x="447.33" y="-61" font-family="Helvetica,sans-Serif" font-size="10.00">mimic++/ObjectWatcher.hpp</text>
</a>
</g>
</g>
<!-- Node10&#45;&gt;Node12 -->
<g id="edge16_Node000010_Node000012" class="edge">
<title>Node10&#45;&gt;Node12</title>
<g id="a_edge16_Node000010_Node000012"><a xlink:title=" ">
<path fill="none" stroke="#63b8ff" d="M398.28,-103.19C410.5,-93.89 425.47,-82.51 435.64,-74.77"/>
<polygon fill="#63b8ff" stroke="#63b8ff" points="396.25,-100.34 390.41,-109.18 400.49,-105.91 396.25,-100.34"/>
</a>
</g>
</g>
<!-- Node11&#45;&gt;Node3 -->
<g id="edge15_Node000011_Node000003" class="edge">
<title>Node11&#45;&gt;Node3</title>
<g id="a_edge15_Node000011_Node000003"><a xlink:title=" ">
<path fill="none" stroke="#63b8ff" d="M339.87,-50.92C365.65,-41.25 400.24,-28.29 423.13,-19.7"/>
<polygon fill="#63b8ff" stroke="#63b8ff" points="338.97,-47.52 330.84,-54.31 341.43,-54.08 338.97,-47.52"/>
</a>
</g>
</g>
<!-- Node12&#45;&gt;Node3 -->
<g id="edge17_Node000012_Node000003" class="edge">
<title>Node12&#45;&gt;Node3</title>
<g id="a_edge17_Node000012_Node000003"><a xlink:title=" ">
<path fill="none" stroke="#63b8ff" d="M447.33,-43.63C447.33,-35.34 447.33,-26.17 447.33,-19.61"/>
<polygon fill="#63b8ff" stroke="#63b8ff" points="443.83,-43.57 447.33,-53.57 450.83,-43.57 443.83,-43.57"/>
</a>
</g>
</g>
<!-- Node13&#45;&gt;Node3 -->
<g id="edge22_Node000013_Node000003" class="edge">
<title>Node13&#45;&gt;Node3</title>
<g id="a_edge22_Node000013_Node000003"><a xlink:title=" ">
<path fill="none" stroke="#63b8ff" d="M441.08,-155.62C448.96,-141.16 460.43,-123.23 474.33,-110.5 499.55,-87.4 524.7,-103.8 542.33,-74.5 558.53,-47.6 518.55,-29.57 485.56,-19.71"/>
<polygon fill="#63b8ff" stroke="#63b8ff" points="438.2,-153.58 436.69,-164.07 444.41,-156.81 438.2,-153.58"/>
</a>
</g>
</g>
<!-- Node13&#45;&gt;Node8 -->
<g id="edge21_Node000013_Node000008" class="edge">
<title>Node13&#45;&gt;Node8</title>
<g id="a_edge21_Node000013_Node000008"><a xlink:title=" ">
<path fill="none" stroke="#63b8ff" d="M472.21,-160.58C494.86,-150.33 521.58,-138.22 539.4,-130.15"/>
<polygon fill="#63b8ff" stroke="#63b8ff" points="470.85,-157.36 463.18,-164.67 473.74,-163.73 470.85,-157.36"/>
</a>
</g>
</g>
<!-- Node13&#45;&gt;Node10 -->
<g id="edge20_Node000013_Node000010" class="edge">
<title>Node13&#45;&gt;Node10</title>
<g id="a_edge20_Node000013_Node000010"><a xlink:title=" ">
<path fill="none" stroke="#63b8ff" d="M408.93,-156.9C400.68,-147.55 391.64,-137.32 385.35,-130.2"/>
<polygon fill="#63b8ff" stroke="#63b8ff" points="406.24,-159.13 415.48,-164.31 411.48,-154.5 406.24,-159.13"/>
</a>
</g>
</g>
<!-- Node14&#45;&gt;Node3 -->
<g id="edge28_Node000014_Node000003" class="edge">
<title>Node14&#45;&gt;Node3</title>
<g id="a_edge28_Node000014_Node000003"><a xlink:title=" ">
<path fill="none" stroke="#63b8ff" d="M268.93,-225.33C258.65,-217.52 248.58,-207.73 242.33,-196.25 212.3,-140.99 190.59,-104 230.33,-55.25 250.17,-30.92 332.95,-19.47 390.33,-14.37"/>
<polygon fill="#63b8ff" stroke="#63b8ff" points="266.89,-228.18 277.08,-231.07 270.92,-222.45 266.89,-228.18"/>
</a>
</g>
</g>
<!-- Node14&#45;&gt;Node13 -->
<g id="edge24_Node000014_Node000013" class="edge">
<title>Node14&#45;&gt;Node13</title>
<g id="a_edge24_Node000014_Node000013"><a xlink:title=" ">
<path fill="none" stroke="#63b8ff" d="M343.44,-226.68C362.12,-216.96 384.21,-205.47 401.31,-196.58"/>
<polygon fill="#63b8ff" stroke="#63b8ff" points="342.07,-223.45 334.81,-231.17 345.3,-229.66 342.07,-223.45"/>
</a>
</g>
</g>
<!-- Node15 -->
<g id="Node000015" class="node">
<title>Node15</title>
<g id="a_Node000015"><a xlink:href="../../db/dd0/_collector_8hpp.html" target="_top" xlink:title=" ">
<polygon fill="white" stroke="#666666" points="357.71,-196.25 250.96,-196.25 250.96,-165.75 357.71,-165.75 357.71,-196.25"/>
<text text-anchor="start" x="258.96" y="-182.75" font-family="Helvetica,sans-Serif" font-size="10.00">mimic++/expectation</text>
<text text-anchor="middle" x="304.33" y="-171.5" font-family="Helvetica,sans-Serif" font-size="10.00">/Collector.hpp</text>
</a>
</g>
</g>
<!-- Node14&#45;&gt;Node15 -->
<g id="edge25_Node000014_Node000015" class="edge">
<title>Node14&#45;&gt;Node15</title>
<g id="a_edge25_Node000014_Node000015"><a xlink:title=" ">
<path fill="none" stroke="#63b8ff" d="M304.93,-220.56C304.81,-212.39 304.67,-203.66 304.56,-196.58"/>
<polygon fill="#63b8ff" stroke="#63b8ff" points="301.43,-220.41 305.08,-230.35 308.43,-220.3 301.43,-220.41"/>
</a>
</g>
</g>
<!-- Node15&#45;&gt;Node3 -->
<g id="edge27_Node000015_Node000003" class="edge">
<title>Node15&#45;&gt;Node3</title>
<g id="a_edge27_Node000015_Node000003"><a xlink:title=" ">
<path fill="none" stroke="#63b8ff" d="M278.71,-157.47C251.82,-131.11 216.73,-87.03 242.33,-55.25 260.62,-32.56 336.12,-20.8 390.18,-15.17"/>
<polygon fill="#63b8ff" stroke="#63b8ff" points="276.29,-160.01 285.97,-164.33 281.1,-154.92 276.29,-160.01"/>
</a>
</g>
</g>
<!-- Node15&#45;&gt;Node8 -->
<g id="edge26_Node000015_Node000008" class="edge">
<title>Node15&#45;&gt;Node8</title>
<g id="a_edge26_Node000015_Node000008"><a xlink:title=" ">
<path fill="none" stroke="#63b8ff" d="M369.24,-165.01C416.89,-154.01 480.04,-139.43 520.2,-130.16"/>
<polygon fill="#63b8ff" stroke="#63b8ff" points="368.53,-161.59 359.58,-167.25 370.11,-168.41 368.53,-161.59"/>
</a>
</g>
</g>
<!-- Node16&#45;&gt;Node3 -->
<g id="edge32_Node000016_Node000003" class="edge">
<title>Node16&#45;&gt;Node3</title>
<g id="a_edge32_Node000016_Node000003"><a xlink:title=" ">
<path fill="none" stroke="#63b8ff" d="M617.74,-221.46C626.82,-198.18 639.3,-162.29 644.33,-129.75 649.82,-94.31 641.64,-77.27 613.33,-55.25 582.24,-31.07 539.08,-19.96 504.56,-14.87"/>
<polygon fill="#63b8ff" stroke="#63b8ff" points="614.51,-220.11 614.05,-230.7 621.01,-222.71 614.51,-220.11"/>
</a>
</g>
</g>
<!-- Node16&#45;&gt;Node13 -->
<g id="edge31_Node000016_Node000013" class="edge">
<title>Node16&#45;&gt;Node13</title>
<g id="a_edge31_Node000016_Node000013"><a xlink:title=" ">
<path fill="none" stroke="#63b8ff" d="M556.36,-228.03C528.92,-218.08 495.53,-205.99 469.87,-196.69"/>
<polygon fill="#63b8ff" stroke="#63b8ff" points="554.93,-231.23 565.52,-231.35 557.31,-224.65 554.93,-231.23"/>
</a>
</g>
</g>
</g>
</svg>
