<?xml version="1.0" encoding="UTF-8" standalone="no"?>
<!DOCTYPE svg PUBLIC "-//W3C//DTD SVG 1.1//EN"
 "http://www.w3.org/Graphics/SVG/1.1/DTD/svg11.dtd">
<!-- Generated by graphviz version 12.2.1 (20241206.2353)
 -->
<!-- Title: mimic++/utilities/SourceLocation.hpp Pages: 1 -->
<!--zoomable 736 -->

<svg id="main" version="1.1" xmlns="http://www.w3.org/2000/svg" xmlns:xlink="http://www.w3.org/1999/xlink" xml:space="preserve" onload="init(evt)">

<style type="text/css"><![CDATA[
.node, .edge {opacity: 0.7;}
.node.selected, .edge.selected {opacity: 1;}
.edge:hover path { stroke: red; }
.edge:hover polygon { stroke: red; fill: red; }
]]></style>

<defs>
  <circle id="rim" cx="0" cy="0" r="7"/>
  <circle id="rim2" cx="0" cy="0" r="3.5"/>
  <g id="zoomPlus">
    <use xlink:href="#rim" fill="#404040"><set attributeName="fill" to="#808080" begin="zoomplus.mouseover" end="zoomplus.mouseout"/></use>
    <path d="M-4,0h8M0,-4v8" fill="none" stroke="white" stroke-width="1.5" pointer-events="none"/>
  </g>
  <g id="zoomMin">
    <use xlink:href="#rim" fill="#404040"><set attributeName="fill" to="#808080" begin="zoomminus.mouseover" end="zoomminus.mouseout"/></use>
    <path d="M-4,0h8" fill="none" stroke="white" stroke-width="1.5" pointer-events="none"/>
  </g>
  <g id="arrowUp" transform="translate(30 24)">
    <use xlink:href="#rim"/>
    <path pointer-events="none" fill="none" stroke="white" stroke-width="1.5" d="M0,-3.0v7 M-2.5,-0.5L0,-3.0L2.5,-0.5"/>
  </g>
  <g id="arrowRight" transform="rotate(90) translate(36 -43)">
    <use xlink:href="#rim"/>
    <path pointer-events="none" fill="none" stroke="white" stroke-width="1.5" d="M0,-3.0v7 M-2.5,-0.5L0,-3.0L2.5,-0.5"/>
  </g>
  <g id="arrowDown" transform="rotate(180) translate(-30 -48)">
    <use xlink:href="#rim"/>
    <path pointer-events="none" fill="none" stroke="white" stroke-width="1.5" d="M0,-3.0v7 M-2.5,-0.5L0,-3.0L2.5,-0.5"/>
  </g>
  <g id="arrowLeft" transform="rotate(270) translate(-36 17)">
    <use xlink:href="#rim"/>
    <path pointer-events="none" fill="none" stroke="white" stroke-width="1.5" d="M0,-3.0v7 M-2.5,-0.5L0,-3.0L2.5,-0.5"/>
  </g>
  <g id="resetDef">
    <use xlink:href="#rim2" fill="#404040"><set attributeName="fill" to="#808080" begin="reset.mouseover" end="reset.mouseout"/></use>
  </g>
</defs>
<script type="application/ecmascript">
var viewWidth = 1771;
var viewHeight = 736;
var sectionId = 'dynsection-1';
</script>
<script type="application/ecmascript" xlink:href="../../svg.min.js"/>
<svg id="graph" class="graph">
<g id="viewport">
<title>mimic++/utilities/SourceLocation.hpp</title>
<!-- Node1 -->
<g id="Node000001" class="node">
<title>Node1</title>
<g id="a_Node000001"><a xlink:title=" ">
<polygon fill="#999999" stroke="#666666" points="992.88,-728.25 871.12,-728.25 871.12,-697.75 992.88,-697.75 992.88,-728.25"/>
<text text-anchor="start" x="879.12" y="-714.75" font-family="Helvetica,sans-Serif" font-size="10.00">mimic++/utilities/Source</text>
<text text-anchor="middle" x="932" y="-703.5" font-family="Helvetica,sans-Serif" font-size="10.00">Location.hpp</text>
</a>
</g>
</g>
<!-- Node2 -->
<g id="Node000002" class="node">
<title>Node2</title>
<g id="a_Node000002"><a xlink:href="../../dc/d44/_call_8hpp.html" target="_top" xlink:title=" ">
<polygon fill="white" stroke="#666666" points="554.88,-656.12 463.12,-656.12 463.12,-636.88 554.88,-636.88 554.88,-656.12"/>
<text text-anchor="middle" x="509" y="-642.62" font-family="Helvetica,sans-Serif" font-size="10.00">mimic++/Call.hpp</text>
</a>
</g>
</g>
<!-- Node1&#45;&gt;Node2 -->
<g id="edge1_Node000001_Node000002" class="edge">
<title>Node1&#45;&gt;Node2</title>
<g id="a_edge1_Node000001_Node000002"><a xlink:title=" ">
<path fill="none" stroke="#63b8ff" d="M859.7,-703.19C787.81,-694.09 674.48,-678.84 577,-661.75 568.33,-660.23 559.07,-658.42 550.27,-656.6"/>
<polygon fill="#63b8ff" stroke="#63b8ff" points="859.01,-706.63 869.37,-704.4 859.89,-699.68 859.01,-706.63"/>
</a>
</g>
</g>
<!-- Node3 -->
<g id="Node000003" class="node">
<title>Node3</title>
<g id="a_Node000003"><a xlink:href="../../d5/d8a/_expectation_8hpp.html" target="_top" xlink:title=" ">
<polygon fill="white" stroke="#666666" points="653.75,-257.12 528.25,-257.12 528.25,-237.88 653.75,-237.88 653.75,-257.12"/>
<text text-anchor="middle" x="591" y="-243.62" font-family="Helvetica,sans-Serif" font-size="10.00">mimic++/Expectation.hpp</text>
</a>
</g>
</g>
<!-- Node1&#45;&gt;Node3 -->
<g id="edge53_Node000001_Node000003" class="edge">
<title>Node1&#45;&gt;Node3</title>
<g id="a_edge53_Node000001_Node000003"><a xlink:title=" ">
<path fill="none" stroke="#63b8ff" d="M859.39,-709.29C777.29,-704.75 650.42,-692.79 615,-661.75 586.84,-637.07 591,-618.44 591,-581 591,-581 591,-581 591,-379.5 591,-333.56 591,-278.56 591,-257.39"/>
<polygon fill="#63b8ff" stroke="#63b8ff" points="858.98,-712.77 869.15,-709.8 859.35,-705.78 858.98,-712.77"/>
</a>
</g>
</g>
<!-- Node4 -->
<g id="Node000004" class="node">
<title>Node4</title>
<g id="a_Node000004"><a xlink:href="../../d2/d4f/_expectation_builder_8hpp.html" target="_top" xlink:title=" ">
<polygon fill="white" stroke="#666666" points="773.75,-190.62 618.25,-190.62 618.25,-171.38 773.75,-171.38 773.75,-190.62"/>
<text text-anchor="middle" x="696" y="-177.12" font-family="Helvetica,sans-Serif" font-size="10.00">mimic++/ExpectationBuilder.hpp</text>
</a>
</g>
</g>
<!-- Node1&#45;&gt;Node4 -->
<g id="edge54_Node000001_Node000004" class="edge">
<title>Node1&#45;&gt;Node4</title>
<g id="a_edge54_Node000001_Node000004"><a xlink:title=" ">
<path fill="none" stroke="#63b8ff" d="M859.2,-711.02C769.55,-705.5 629,-680.92 629,-581 629,-581 629,-581 629,-446 629,-342.92 677.59,-223.95 692.01,-190.91"/>
<polygon fill="#63b8ff" stroke="#63b8ff" points="859,-714.51 869.17,-711.55 859.38,-707.52 859,-714.51"/>
</a>
</g>
</g>
<!-- Node9 -->
<g id="Node000009" class="node">
<title>Node9</title>
<g id="a_Node000009"><a xlink:href="../../db/d83/_scoped_sequence_8hpp.html" target="_top" xlink:title=" ">
<polygon fill="white" stroke="#666666" points="920.88,-129.75 769.12,-129.75 769.12,-110.5 920.88,-110.5 920.88,-129.75"/>
<text text-anchor="middle" x="845" y="-116.25" font-family="Helvetica,sans-Serif" font-size="10.00">mimic++/ScopedSequence.hpp</text>
</a>
</g>
</g>
<!-- Node1&#45;&gt;Node9 -->
<g id="edge55_Node000001_Node000009" class="edge">
<title>Node1&#45;&gt;Node9</title>
<g id="a_edge55_Node000001_Node000009"><a xlink:title=" ">
<path fill="none" stroke="#63b8ff" d="M859.99,-701.22C793.51,-686.71 705,-653.73 705,-581 705,-581 705,-581 705,-512.5 705,-383.9 726.88,-350.68 777,-232.25 794.19,-191.63 824.65,-148.42 838.18,-130.13"/>
<polygon fill="#63b8ff" stroke="#63b8ff" points="858.89,-704.57 869.39,-703.17 860.31,-697.71 858.89,-704.57"/>
</a>
</g>
</g>
<!-- Node14 -->
<g id="Node000014" class="node">
<title>Node14</title>
<g id="a_Node000014"><a xlink:href="../../d9/d6c/_call_report_8hpp.html" target="_top" xlink:title=" ">
<polygon fill="white" stroke="#666666" points="931.38,-589.62 770.62,-589.62 770.62,-570.38 931.38,-570.38 931.38,-589.62"/>
<text text-anchor="middle" x="851" y="-576.12" font-family="Helvetica,sans-Serif" font-size="10.00">mimic++/reporting/CallReport.hpp</text>
</a>
</g>
</g>
<!-- Node1&#45;&gt;Node14 -->
<g id="edge59_Node000001_Node000014" class="edge">
<title>Node1&#45;&gt;Node14</title>
<g id="a_edge59_Node000001_Node000014"><a xlink:title=" ">
<path fill="none" stroke="#63b8ff" d="M917.12,-687.94C898.92,-658.5 869,-610.11 856.63,-590.1"/>
<polygon fill="#63b8ff" stroke="#63b8ff" points="913.99,-689.53 922.23,-696.19 919.94,-685.85 913.99,-689.53"/>
</a>
</g>
</g>
<!-- Node17 -->
<g id="Node000017" class="node">
<title>Node17</title>
<g id="a_Node000017"><a xlink:href="../../d0/d70/_default_reporter_8hpp.html" target="_top" xlink:title=" ">
<polygon fill="white" stroke="#666666" points="1089.25,-462.25 960.75,-462.25 960.75,-431.75 1089.25,-431.75 1089.25,-462.25"/>
<text text-anchor="start" x="968.75" y="-448.75" font-family="Helvetica,sans-Serif" font-size="10.00">mimic++/reporting/Default</text>
<text text-anchor="middle" x="1025" y="-437.5" font-family="Helvetica,sans-Serif" font-size="10.00">Reporter.hpp</text>
</a>
</g>
</g>
<!-- Node1&#45;&gt;Node17 -->
<g id="edge60_Node000001_Node000017" class="edge">
<title>Node1&#45;&gt;Node17</title>
<g id="a_edge60_Node000001_Node000017"><a xlink:title=" ">
<path fill="none" stroke="#63b8ff" d="M940.92,-686.67C960.1,-632.22 1004.76,-505.47 1019.88,-462.52"/>
<polygon fill="#63b8ff" stroke="#63b8ff" points="937.66,-685.41 937.64,-696 944.26,-687.73 937.66,-685.41"/>
</a>
</g>
</g>
<!-- Node22 -->
<g id="Node000022" class="node">
<title>Node22</title>
<g id="a_Node000022"><a xlink:href="../../d7/ded/_call_convention_8hpp.html" target="_top" xlink:title=" ">
<polygon fill="white" stroke="#666666" points="1557.25,-523.12 1416.75,-523.12 1416.75,-503.88 1557.25,-503.88 1557.25,-523.12"/>
<text text-anchor="middle" x="1487" y="-509.62" font-family="Helvetica,sans-Serif" font-size="10.00">mimic++/CallConvention.hpp</text>
</a>
</g>
</g>
<!-- Node1&#45;&gt;Node22 -->
<g id="edge51_Node000001_Node000022" class="edge">
<title>Node1&#45;&gt;Node22</title>
<g id="a_edge51_Node000001_Node000022"><a xlink:title=" ">
<path fill="none" stroke="#63b8ff" d="M1004.73,-705.91C1101.15,-695.27 1274.13,-667.08 1403,-595.25 1436.93,-576.34 1467.21,-540.37 1480.24,-523.57"/>
<polygon fill="#63b8ff" stroke="#63b8ff" points="1004.43,-702.43 994.86,-706.97 1005.18,-709.39 1004.43,-702.43"/>
</a>
</g>
</g>
<!-- Node23 -->
<g id="Node000023" class="node">
<title>Node23</title>
<g id="a_Node000023"><a xlink:href="../../dc/d54/_utilities_8hpp.html" target="_top" xlink:title=" ">
<polygon fill="white" stroke="#666666" points="1616.12,-390.12 1507.88,-390.12 1507.88,-370.88 1616.12,-370.88 1616.12,-390.12"/>
<text text-anchor="middle" x="1562" y="-376.62" font-family="Helvetica,sans-Serif" font-size="10.00">mimic++/Utilities.hpp</text>
</a>
</g>
</g>
<!-- Node1&#45;&gt;Node23 -->
<g id="edge56_Node000001_Node000023" class="edge">
<title>Node1&#45;&gt;Node23</title>
<g id="a_edge56_Node000001_Node000023"><a xlink:title=" ">
<path fill="none" stroke="#63b8ff" d="M1004.47,-712.57C1174.55,-711.96 1585,-698.34 1585,-581 1585,-581 1585,-581 1585,-512.5 1585,-466.09 1570.82,-411.8 1564.73,-390.61"/>
<polygon fill="#63b8ff" stroke="#63b8ff" points="1004.65,-709.07 994.65,-712.59 1004.66,-716.07 1004.65,-709.07"/>
</a>
</g>
</g>
<!-- Node24 -->
<g id="Node000024" class="node">
<title>Node24</title>
<g id="a_Node000024"><a xlink:href="../../d8/d35/paweldac-source__location_8hpp.html" target="_top" xlink:title=" ">
<polygon fill="white" stroke="#666666" points="1762.75,-661.75 1613.25,-661.75 1613.25,-631.25 1762.75,-631.25 1762.75,-661.75"/>
<text text-anchor="start" x="1621.25" y="-648.25" font-family="Helvetica,sans-Serif" font-size="10.00">mimic++/compatibility</text>
<text text-anchor="middle" x="1688" y="-637" font-family="Helvetica,sans-Serif" font-size="10.00">/paweldac&#45;source_location.hpp</text>
</a>
</g>
</g>
<!-- Node1&#45;&gt;Node24 -->
<g id="edge58_Node000001_Node000024" class="edge">
<title>Node1&#45;&gt;Node24</title>
<g id="a_edge58_Node000001_Node000024"><a xlink:title=" ">
<path fill="none" stroke="#63b8ff" d="M1004.78,-708.51C1127.59,-702.18 1383.64,-687.06 1599,-661.75 1603.51,-661.22 1608.13,-660.63 1612.8,-659.99"/>
<polygon fill="#63b8ff" stroke="#63b8ff" points="1004.64,-705.01 994.83,-709.02 1005,-712.01 1004.64,-705.01"/>
</a>
</g>
</g>
<!-- Node25 -->
<g id="Node000025" class="node">
<title>Node25</title>
<g id="a_Node000025"><a xlink:href="../../dd/d76/_expectation_report_8hpp.html" target="_top" xlink:title=" ">
<polygon fill="white" stroke="#666666" points="1135,-661.75 987,-661.75 987,-631.25 1135,-631.25 1135,-661.75"/>
<text text-anchor="start" x="995" y="-648.25" font-family="Helvetica,sans-Serif" font-size="10.00">mimic++/reporting/Expectation</text>
<text text-anchor="middle" x="1061" y="-637" font-family="Helvetica,sans-Serif" font-size="10.00">Report.hpp</text>
</a>
</g>
</g>
<!-- Node1&#45;&gt;Node25 -->
<g id="edge61_Node000001_Node000025" class="edge">
<title>Node1&#45;&gt;Node25</title>
<g id="a_edge61_Node000001_Node000025"><a xlink:title=" ">
<path fill="none" stroke="#63b8ff" d="M971.38,-692.31C990.86,-682.57 1013.97,-671.01 1031.84,-662.08"/>
<polygon fill="#63b8ff" stroke="#63b8ff" points="970,-689.08 962.63,-696.69 973.14,-695.35 970,-689.08"/>
</a>
</g>
</g>
<!-- Node2&#45;&gt;Node3 -->
<g id="edge2_Node000002_Node000003" class="edge">
<title>Node2&#45;&gt;Node3</title>
<g id="a_edge2_Node000002_Node000003"><a xlink:title=" ">
<path fill="none" stroke="#63b8ff" d="M517.8,-626.21C528.46,-601.06 545,-555.43 545,-514.5 545,-514.5 545,-514.5 545,-379.5 545,-331.05 573.36,-277.92 585.54,-257.33"/>
<polygon fill="#63b8ff" stroke="#63b8ff" points="514.7,-624.57 513.88,-635.14 521.11,-627.39 514.7,-624.57"/>
</a>
</g>
</g>
<!-- Node5 -->
<g id="Node000005" class="node">
<title>Node5</title>
<g id="a_Node000005"><a xlink:href="../../d5/dc5/_mock_8hpp.html" target="_top" xlink:title=" ">
<polygon fill="white" stroke="#666666" points="601.62,-129.75 502.38,-129.75 502.38,-110.5 601.62,-110.5 601.62,-129.75"/>
<text text-anchor="middle" x="552" y="-116.25" font-family="Helvetica,sans-Serif" font-size="10.00">mimic++/Mock.hpp</text>
</a>
</g>
</g>
<!-- Node2&#45;&gt;Node5 -->
<g id="edge16_Node000002_Node000005" class="edge">
<title>Node2&#45;&gt;Node5</title>
<g id="a_edge16_Node000002_Node000005"><a xlink:title=" ">
<path fill="none" stroke="#63b8ff" d="M506.77,-625.47C504.1,-599.79 500,-553.89 500,-514.5 500,-514.5 500,-514.5 500,-246.5 500,-199.61 531.42,-149.86 545.41,-130.03"/>
<polygon fill="#63b8ff" stroke="#63b8ff" points="503.25,-625.55 507.81,-635.11 510.21,-624.8 503.25,-625.55"/>
</a>
</g>
</g>
<!-- Node7 -->
<g id="Node000007" class="node">
<title>Node7</title>
<g id="a_Node000007"><a xlink:href="../../d0/db9/mimic_09_09_8hpp.html" target="_top" xlink:title=" ">
<polygon fill="white" stroke="#666666" points="686.75,-19.25 573.25,-19.25 573.25,0 686.75,0 686.75,-19.25"/>
<text text-anchor="middle" x="630" y="-5.75" font-family="Helvetica,sans-Serif" font-size="10.00">mimic++/mimic++.hpp</text>
</a>
</g>
</g>
<!-- Node2&#45;&gt;Node7 -->
<g id="edge17_Node000002_Node000007" class="edge">
<title>Node2&#45;&gt;Node7</title>
<g id="a_edge17_Node000002_Node000007"><a xlink:title=" ">
<path fill="none" stroke="#63b8ff" d="M451.79,-642.84C318.78,-635.11 0,-606.93 0,-514.5 0,-514.5 0,-514.5 0,-119.12 0,-61.27 417.9,-25.69 572.98,-14.47"/>
<polygon fill="#63b8ff" stroke="#63b8ff" points="451.24,-646.32 461.42,-643.38 451.63,-639.33 451.24,-646.32"/>
</a>
</g>
</g>
<!-- Node10 -->
<g id="Node000010" class="node">
<title>Node10</title>
<g id="a_Node000010"><a xlink:href="../../d2/dfd/_argument_list_8hpp.html" target="_top" xlink:title=" ">
<polygon fill="white" stroke="#666666" points="347.62,-329.25 212.38,-329.25 212.38,-298.75 347.62,-298.75 347.62,-329.25"/>
<text text-anchor="start" x="220.38" y="-315.75" font-family="Helvetica,sans-Serif" font-size="10.00">mimic++/policies/Argument</text>
<text text-anchor="middle" x="280" y="-304.5" font-family="Helvetica,sans-Serif" font-size="10.00">List.hpp</text>
</a>
</g>
</g>
<!-- Node2&#45;&gt;Node10 -->
<g id="edge18_Node000002_Node000010" class="edge">
<title>Node2&#45;&gt;Node10</title>
<g id="a_edge18_Node000002_Node000010"><a xlink:title=" ">
<path fill="none" stroke="#63b8ff" d="M475.89,-631.62C435.06,-612.03 371,-572.12 371,-514.5 371,-514.5 371,-514.5 371,-446 371,-396.15 326.01,-351.64 299.3,-329.6"/>
<polygon fill="#63b8ff" stroke="#63b8ff" points="474.29,-634.74 484.84,-635.75 477.22,-628.38 474.29,-634.74"/>
</a>
</g>
</g>
<!-- Node2&#45;&gt;Node14 -->
<g id="edge27_Node000002_Node000014" class="edge">
<title>Node2&#45;&gt;Node14</title>
<g id="a_edge27_Node000002_Node000014"><a xlink:title=" ">
<path fill="none" stroke="#63b8ff" d="M566.2,-634.71C632.52,-622.21 740.66,-601.81 802.86,-590.08"/>
<polygon fill="#63b8ff" stroke="#63b8ff" points="565.79,-631.23 556.61,-636.52 567.09,-638.11 565.79,-631.23"/>
</a>
</g>
</g>
<!-- Node3&#45;&gt;Node4 -->
<g id="edge3_Node000003_Node000004" class="edge">
<title>Node3&#45;&gt;Node4</title>
<g id="a_edge3_Node000003_Node000004"><a xlink:title=" ">
<path fill="none" stroke="#63b8ff" d="M615.13,-231.67C635.51,-219.16 664.03,-201.64 681.19,-191.1"/>
<polygon fill="#63b8ff" stroke="#63b8ff" points="613.58,-228.52 606.89,-236.74 617.24,-234.49 613.58,-228.52"/>
</a>
</g>
</g>
<!-- Node3&#45;&gt;Node5 -->
<g id="edge13_Node000003_Node000005" class="edge">
<title>Node3&#45;&gt;Node5</title>
<g id="a_edge13_Node000003_Node000005"><a xlink:title=" ">
<path fill="none" stroke="#63b8ff" d="M584.87,-226.8C576.28,-199.2 561.02,-150.13 554.78,-130.06"/>
<polygon fill="#63b8ff" stroke="#63b8ff" points="581.43,-227.53 587.75,-236.04 588.12,-225.45 581.43,-227.53"/>
</a>
</g>
</g>
<!-- Node3&#45;&gt;Node7 -->
<g id="edge15_Node000003_Node000007" class="edge">
<title>Node3&#45;&gt;Node7</title>
<g id="a_edge15_Node000003_Node000007"><a xlink:title=" ">
<path fill="none" stroke="#63b8ff" d="M567.26,-231.07C519.09,-197.87 418.33,-117.63 466,-55.25 479.12,-38.08 530.94,-25.94 572.86,-18.71"/>
<polygon fill="#63b8ff" stroke="#63b8ff" points="565.16,-233.88 575.41,-236.57 569.08,-228.07 565.16,-233.88"/>
</a>
</g>
</g>
<!-- Node3&#45;&gt;Node9 -->
<g id="edge14_Node000003_Node000009" class="edge">
<title>Node3&#45;&gt;Node9</title>
<g id="a_edge14_Node000003_Node000009"><a xlink:title=" ">
<path fill="none" stroke="#63b8ff" d="M589.72,-226.03C589.77,-207.66 592.98,-181.26 609,-165.75 631.47,-144 708.63,-132.42 768.68,-126.55"/>
<polygon fill="#63b8ff" stroke="#63b8ff" points="586.22,-226.09 590.05,-235.97 593.22,-225.86 586.22,-226.09"/>
</a>
</g>
</g>
<!-- Node4&#45;&gt;Node5 -->
<g id="edge4_Node000004_Node000005" class="edge">
<title>Node4&#45;&gt;Node5</title>
<g id="a_edge4_Node000004_Node000005"><a xlink:title=" ">
<path fill="none" stroke="#63b8ff" d="M663.21,-166.59C635.89,-155.42 597.74,-139.83 573.97,-130.11"/>
<polygon fill="#63b8ff" stroke="#63b8ff" points="661.83,-169.81 672.41,-170.36 664.48,-163.33 661.83,-169.81"/>
</a>
</g>
</g>
<!-- Node4&#45;&gt;Node7 -->
<g id="edge12_Node000004_Node000007" class="edge">
<title>Node4&#45;&gt;Node7</title>
<g id="a_edge12_Node000004_Node000007"><a xlink:title=" ">
<path fill="none" stroke="#63b8ff" d="M711.99,-163.01C737.28,-135.97 784.03,-85.08 788,-74.5 791,-66.49 793.16,-62.07 788,-55.25 775.62,-38.88 727.17,-26.81 687.15,-19.38"/>
<polygon fill="#63b8ff" stroke="#63b8ff" points="709.66,-160.39 705.37,-170.07 714.77,-165.17 709.66,-160.39"/>
</a>
</g>
</g>
<!-- Node4&#45;&gt;Node9 -->
<g id="edge10_Node000004_Node000009" class="edge">
<title>Node4&#45;&gt;Node9</title>
<g id="a_edge10_Node000004_Node000009"><a xlink:title=" ">
<path fill="none" stroke="#63b8ff" d="M729.55,-166.74C757.84,-155.56 797.56,-139.87 822.26,-130.11"/>
<polygon fill="#63b8ff" stroke="#63b8ff" points="728.38,-163.44 720.36,-170.37 730.95,-169.95 728.38,-163.44"/>
</a>
</g>
</g>
<!-- Node6 -->
<g id="Node000006" class="node">
<title>Node6</title>
<g id="a_Node000006"><a xlink:href="../../d9/dc3/_interface_mock_8hpp.html" target="_top" xlink:title=" ">
<polygon fill="white" stroke="#666666" points="620.75,-74.5 483.25,-74.5 483.25,-55.25 620.75,-55.25 620.75,-74.5"/>
<text text-anchor="middle" x="552" y="-61" font-family="Helvetica,sans-Serif" font-size="10.00">mimic++/InterfaceMock.hpp</text>
</a>
</g>
</g>
<!-- Node5&#45;&gt;Node6 -->
<g id="edge5_Node000005_Node000006" class="edge">
<title>Node5&#45;&gt;Node6</title>
<g id="a_edge5_Node000005_Node000006"><a xlink:title=" ">
<path fill="none" stroke="#63b8ff" d="M552,-98.88C552,-90.59 552,-81.42 552,-74.86"/>
<polygon fill="#63b8ff" stroke="#63b8ff" points="548.5,-98.82 552,-108.82 555.5,-98.82 548.5,-98.82"/>
</a>
</g>
</g>
<!-- Node5&#45;&gt;Node7 -->
<g id="edge9_Node000005_Node000007" class="edge">
<title>Node5&#45;&gt;Node7</title>
<g id="a_edge9_Node000005_Node000007"><a xlink:title=" ">
<path fill="none" stroke="#63b8ff" d="M514.15,-105.83C487.2,-94.23 458.32,-76.04 474,-55.25 486.17,-39.11 533.71,-27.04 573.15,-19.55"/>
<polygon fill="#63b8ff" stroke="#63b8ff" points="512.68,-109.01 523.27,-109.52 515.31,-102.53 512.68,-109.01"/>
</a>
</g>
</g>
<!-- Node8 -->
<g id="Node000008" class="node">
<title>Node8</title>
<g id="a_Node000008"><a xlink:href="../../d5/d92/_object_watcher_8hpp.html" target="_top" xlink:title=" ">
<polygon fill="white" stroke="#666666" points="778.88,-74.5 639.12,-74.5 639.12,-55.25 778.88,-55.25 778.88,-74.5"/>
<text text-anchor="middle" x="709" y="-61" font-family="Helvetica,sans-Serif" font-size="10.00">mimic++/ObjectWatcher.hpp</text>
</a>
</g>
</g>
<!-- Node5&#45;&gt;Node8 -->
<g id="edge7_Node000005_Node000008" class="edge">
<title>Node5&#45;&gt;Node8</title>
<g id="a_edge7_Node000005_Node000008"><a xlink:title=" ">
<path fill="none" stroke="#63b8ff" d="M589.43,-106.43C618.01,-96.74 656.7,-83.61 682.24,-74.95"/>
<polygon fill="#63b8ff" stroke="#63b8ff" points="588.41,-103.08 580.07,-109.61 590.66,-109.71 588.41,-103.08"/>
</a>
</g>
</g>
<!-- Node6&#45;&gt;Node7 -->
<g id="edge6_Node000006_Node000007" class="edge">
<title>Node6&#45;&gt;Node7</title>
<g id="a_edge6_Node000006_Node000007"><a xlink:title=" ">
<path fill="none" stroke="#63b8ff" d="M574.47,-48.53C588.15,-39.2 605.14,-27.6 616.7,-19.7"/>
<polygon fill="#63b8ff" stroke="#63b8ff" points="572.77,-45.46 566.48,-53.99 576.71,-51.24 572.77,-45.46"/>
</a>
</g>
</g>
<!-- Node8&#45;&gt;Node7 -->
<g id="edge8_Node000008_Node000007" class="edge">
<title>Node8&#45;&gt;Node7</title>
<g id="a_edge8_Node000008_Node000007"><a xlink:title=" ">
<path fill="none" stroke="#63b8ff" d="M686.24,-48.53C672.39,-39.2 655.18,-27.6 643.47,-19.7"/>
<polygon fill="#63b8ff" stroke="#63b8ff" points="684.1,-51.31 694.34,-54 688.01,-45.5 684.1,-51.31"/>
</a>
</g>
</g>
<!-- Node9&#45;&gt;Node7 -->
<g id="edge11_Node000009_Node000007" class="edge">
<title>Node9&#45;&gt;Node7</title>
<g id="a_edge11_Node000009_Node000007"><a xlink:title=" ">
<path fill="none" stroke="#63b8ff" d="M842.5,-99.1C839.67,-84.87 833.67,-66.37 821,-55.25 801.23,-37.9 735.76,-25.23 686.94,-17.92"/>
<polygon fill="#63b8ff" stroke="#63b8ff" points="839,-99.4 844.02,-108.73 845.92,-98.3 839,-99.4"/>
</a>
</g>
</g>
<!-- Node10&#45;&gt;Node7 -->
<g id="edge19_Node000010_Node000007" class="edge">
<title>Node10&#45;&gt;Node7</title>
<g id="a_edge19_Node000010_Node000007"><a xlink:title=" ">
<path fill="none" stroke="#63b8ff" d="M283.29,-287.02C286.03,-270.73 290.84,-249.59 299,-232.25 309.5,-209.93 412.27,-68.62 433,-55.25 475,-28.17 531.28,-17.41 572.93,-13.19"/>
<polygon fill="#63b8ff" stroke="#63b8ff" points="279.83,-286.49 281.81,-296.9 286.76,-287.53 279.83,-286.49"/>
</a>
</g>
</g>
<!-- Node11 -->
<g id="Node000011" class="node">
<title>Node11</title>
<g id="a_Node000011"><a xlink:href="../../d1/d42/_arg_requirement_policies_8hpp.html" target="_top" xlink:title=" ">
<polygon fill="white" stroke="#666666" points="471.5,-262.75 308.5,-262.75 308.5,-232.25 471.5,-232.25 471.5,-262.75"/>
<text text-anchor="start" x="316.5" y="-249.25" font-family="Helvetica,sans-Serif" font-size="10.00">mimic++/policies/ArgRequirement</text>
<text text-anchor="middle" x="390" y="-238" font-family="Helvetica,sans-Serif" font-size="10.00">Policies.hpp</text>
</a>
</g>
</g>
<!-- Node10&#45;&gt;Node11 -->
<g id="edge20_Node000010_Node000011" class="edge">
<title>Node10&#45;&gt;Node11</title>
<g id="a_edge20_Node000010_Node000011"><a xlink:title=" ">
<path fill="none" stroke="#63b8ff" d="M314.73,-292.64C331.1,-283.04 350.25,-271.81 365.14,-263.08"/>
<polygon fill="#63b8ff" stroke="#63b8ff" points="313.12,-289.52 306.27,-297.6 316.66,-295.56 313.12,-289.52"/>
</a>
</g>
</g>
<!-- Node12 -->
<g id="Node000012" class="node">
<title>Node12</title>
<g id="a_Node000012"><a xlink:href="../../d3/da3/_finalizer_policies_8hpp.html" target="_top" xlink:title=" ">
<polygon fill="white" stroke="#666666" points="157.62,-196.25 28.38,-196.25 28.38,-165.75 157.62,-165.75 157.62,-196.25"/>
<text text-anchor="start" x="36.38" y="-182.75" font-family="Helvetica,sans-Serif" font-size="10.00">mimic++/policies/Finalizer</text>
<text text-anchor="middle" x="93" y="-171.5" font-family="Helvetica,sans-Serif" font-size="10.00">Policies.hpp</text>
</a>
</g>
</g>
<!-- Node10&#45;&gt;Node12 -->
<g id="edge23_Node000010_Node000012" class="edge">
<title>Node10&#45;&gt;Node12</title>
<g id="a_edge23_Node000010_Node000012"><a xlink:title=" ">
<path fill="none" stroke="#63b8ff" d="M250.2,-292.12C212.07,-265.41 147.02,-219.84 113.82,-196.58"/>
<polygon fill="#63b8ff" stroke="#63b8ff" points="247.84,-294.74 258.03,-297.61 251.85,-289.01 247.84,-294.74"/>
</a>
</g>
</g>
<!-- Node13 -->
<g id="Node000013" class="node">
<title>Node13</title>
<g id="a_Node000013"><a xlink:href="../../dc/d18/_side_effect_policies_8hpp.html" target="_top" xlink:title=" ">
<polygon fill="white" stroke="#666666" points="312.75,-196.25 175.25,-196.25 175.25,-165.75 312.75,-165.75 312.75,-196.25"/>
<text text-anchor="start" x="183.25" y="-182.75" font-family="Helvetica,sans-Serif" font-size="10.00">mimic++/policies/SideEffect</text>
<text text-anchor="middle" x="244" y="-171.5" font-family="Helvetica,sans-Serif" font-size="10.00">Policies.hpp</text>
</a>
</g>
</g>
<!-- Node10&#45;&gt;Node13 -->
<g id="edge25_Node000010_Node000013" class="edge">
<title>Node10&#45;&gt;Node13</title>
<g id="a_edge25_Node000010_Node000013"><a xlink:title=" ">
<path fill="none" stroke="#63b8ff" d="M272.9,-287.63C270.68,-279.67 268.23,-270.85 266,-262.75 259.63,-239.64 252.33,-212.77 247.95,-196.59"/>
<polygon fill="#63b8ff" stroke="#63b8ff" points="269.47,-288.34 275.53,-297.04 276.21,-286.46 269.47,-288.34"/>
</a>
</g>
</g>
<!-- Node11&#45;&gt;Node4 -->
<g id="edge21_Node000011_Node000004" class="edge">
<title>Node11&#45;&gt;Node4</title>
<g id="a_edge21_Node000011_Node000004"><a xlink:title=" ">
<path fill="none" stroke="#63b8ff" d="M470.87,-229.45C529.25,-217.15 605.81,-201.01 652.92,-191.08"/>
<polygon fill="#63b8ff" stroke="#63b8ff" points="470.36,-225.98 461.3,-231.47 471.81,-232.83 470.36,-225.98"/>
</a>
</g>
</g>
<!-- Node11&#45;&gt;Node7 -->
<g id="edge22_Node000011_Node000007" class="edge">
<title>Node11&#45;&gt;Node7</title>
<g id="a_edge22_Node000011_Node000007"><a xlink:title=" ">
<path fill="none" stroke="#63b8ff" d="M390.96,-220.31C393.92,-179.07 405.82,-99.19 453,-55.25 485.24,-25.23 534.65,-14.65 573.08,-11.26"/>
<polygon fill="#63b8ff" stroke="#63b8ff" points="387.46,-220.09 390.38,-230.27 394.45,-220.49 387.46,-220.09"/>
</a>
</g>
</g>
<!-- Node12&#45;&gt;Node7 -->
<g id="edge24_Node000012_Node000007" class="edge">
<title>Node12&#45;&gt;Node7</title>
<g id="a_edge24_Node000012_Node000007"><a xlink:title=" ">
<path fill="none" stroke="#63b8ff" d="M120.41,-158.52C158.54,-129.86 230.86,-79.87 301,-55.25 392.51,-23.13 505.84,-13.96 572.79,-11.44"/>
<polygon fill="#63b8ff" stroke="#63b8ff" points="118.51,-155.56 112.67,-164.4 122.75,-161.13 118.51,-155.56"/>
</a>
</g>
</g>
<!-- Node13&#45;&gt;Node7 -->
<g id="edge26_Node000013_Node000007" class="edge">
<title>Node13&#45;&gt;Node7</title>
<g id="a_edge26_Node000013_Node000007"><a xlink:title=" ">
<path fill="none" stroke="#63b8ff" d="M253.27,-154.98C265.45,-125.89 289.76,-78.86 327,-55.25 366.8,-30.02 496.74,-18.33 572.92,-13.53"/>
<polygon fill="#63b8ff" stroke="#63b8ff" points="250.08,-153.53 249.62,-164.12 256.58,-156.13 250.08,-153.53"/>
</a>
</g>
</g>
<!-- Node14&#45;&gt;Node3 -->
<g id="edge28_Node000014_Node000003" class="edge">
<title>Node14&#45;&gt;Node3</title>
<g id="a_edge28_Node000014_Node000003"><a xlink:title=" ">
<path fill="none" stroke="#63b8ff" d="M840.1,-560.5C812.11,-513.8 734.07,-388.51 651,-298.75 636.05,-282.6 615.99,-266.76 603.28,-257.32"/>
<polygon fill="#63b8ff" stroke="#63b8ff" points="836.94,-562.05 845.06,-568.85 842.96,-558.47 836.94,-562.05"/>
</a>
</g>
</g>
<!-- Node15 -->
<g id="Node000015" class="node">
<title>Node15</title>
<g id="a_Node000015"><a xlink:href="../../d7/deb/_reporting_8hpp.html" target="_top" xlink:title=" ">
<polygon fill="white" stroke="#666666" points="1152.25,-323.62 1035.75,-323.62 1035.75,-304.38 1152.25,-304.38 1152.25,-323.62"/>
<text text-anchor="middle" x="1094" y="-310.12" font-family="Helvetica,sans-Serif" font-size="10.00">mimic++/Reporting.hpp</text>
</a>
</g>
</g>
<!-- Node14&#45;&gt;Node15 -->
<g id="edge29_Node000014_Node000015" class="edge">
<title>Node14&#45;&gt;Node15</title>
<g id="a_edge29_Node000014_Node000015"><a xlink:title=" ">
<path fill="none" stroke="#63b8ff" d="M861.45,-560.37C878.32,-531.19 913.55,-473.69 952,-431.75 994.05,-385.87 1054.43,-342.15 1080.82,-323.91"/>
<polygon fill="#63b8ff" stroke="#63b8ff" points="858.58,-558.34 856.67,-568.77 864.66,-561.81 858.58,-558.34"/>
</a>
</g>
</g>
<!-- Node16 -->
<g id="Node000016" class="node">
<title>Node16</title>
<g id="a_Node000016"><a xlink:href="../../d1/dfd/_basic_reporter_8hpp.html" target="_top" xlink:title=" ">
<polygon fill="white" stroke="#666666" points="1322.62,-456.62 1145.38,-456.62 1145.38,-437.38 1322.62,-437.38 1322.62,-456.62"/>
<text text-anchor="middle" x="1234" y="-443.12" font-family="Helvetica,sans-Serif" font-size="10.00">mimic++/reporting/BasicReporter.hpp</text>
</a>
</g>
</g>
<!-- Node14&#45;&gt;Node16 -->
<g id="edge31_Node000014_Node000016" class="edge">
<title>Node14&#45;&gt;Node16</title>
<g id="a_edge31_Node000014_Node000016"><a xlink:title=" ">
<path fill="none" stroke="#63b8ff" d="M888.27,-566.25C965.38,-539.88 1140.8,-479.88 1207.55,-457.05"/>
<polygon fill="#63b8ff" stroke="#63b8ff" points="887.39,-562.85 879.06,-569.4 889.65,-569.48 887.39,-562.85"/>
</a>
</g>
</g>
<!-- Node14&#45;&gt;Node17 -->
<g id="edge33_Node000014_Node000017" class="edge">
<title>Node14&#45;&gt;Node17</title>
<g id="a_edge33_Node000014_Node000017"><a xlink:title=" ">
<path fill="none" stroke="#63b8ff" d="M871.82,-563C893.15,-546.64 927.29,-520.54 957,-498.25 973.09,-486.18 991.43,-472.64 1005.01,-462.66"/>
<polygon fill="#63b8ff" stroke="#63b8ff" points="869.72,-560.19 863.92,-569.06 873.99,-565.75 869.72,-560.19"/>
</a>
</g>
</g>
<!-- Node18 -->
<g id="Node000018" class="node">
<title>Node18</title>
<g id="a_Node000018"><a xlink:href="../../de/dd1/_global_reporter_8hpp.html" target="_top" xlink:title=" ">
<polygon fill="white" stroke="#666666" points="942.75,-395.75 817.25,-395.75 817.25,-365.25 942.75,-365.25 942.75,-395.75"/>
<text text-anchor="start" x="825.25" y="-382.25" font-family="Helvetica,sans-Serif" font-size="10.00">mimic++/reporting/Global</text>
<text text-anchor="middle" x="880" y="-371" font-family="Helvetica,sans-Serif" font-size="10.00">Reporter.hpp</text>
</a>
</g>
</g>
<!-- Node14&#45;&gt;Node18 -->
<g id="edge46_Node000014_Node000018" class="edge">
<title>Node14&#45;&gt;Node18</title>
<g id="a_edge46_Node000014_Node000018"><a xlink:title=" ">
<path fill="none" stroke="#63b8ff" d="M847.08,-559.07C845.47,-549.88 843.8,-538.8 843,-528.75 841.93,-515.24 840.93,-511.65 843,-498.25 848.88,-460.22 864.94,-417.6 873.85,-395.9"/>
<polygon fill="#63b8ff" stroke="#63b8ff" points="843.6,-559.48 848.88,-568.67 850.48,-558.19 843.6,-559.48"/>
</a>
</g>
</g>
<!-- Node21 -->
<g id="Node000021" class="node">
<title>Node21</title>
<g id="a_Node000021"><a xlink:href="../../d9/d70/_stringify_reports_8hpp.html" target="_top" xlink:title=" ">
<polygon fill="white" stroke="#666666" points="1246.5,-528.75 1113.5,-528.75 1113.5,-498.25 1246.5,-498.25 1246.5,-528.75"/>
<text text-anchor="start" x="1121.5" y="-515.25" font-family="Helvetica,sans-Serif" font-size="10.00">mimic++/reporting/Stringify</text>
<text text-anchor="middle" x="1180" y="-504" font-family="Helvetica,sans-Serif" font-size="10.00">Reports.hpp</text>
</a>
</g>
</g>
<!-- Node14&#45;&gt;Node21 -->
<g id="edge47_Node000014_Node000021" class="edge">
<title>Node14&#45;&gt;Node21</title>
<g id="a_edge47_Node000014_Node000021"><a xlink:title=" ">
<path fill="none" stroke="#63b8ff" d="M908.44,-567.74C965.56,-556.54 1053.14,-539.37 1113.3,-527.58"/>
<polygon fill="#63b8ff" stroke="#63b8ff" points="908.06,-564.25 898.93,-569.6 909.41,-571.12 908.06,-564.25"/>
</a>
</g>
</g>
<!-- Node15&#45;&gt;Node7 -->
<g id="edge30_Node000015_Node000007" class="edge">
<title>Node15&#45;&gt;Node7</title>
<g id="a_edge30_Node000015_Node000007"><a xlink:title=" ">
<path fill="none" stroke="#63b8ff" d="M1088.03,-293.11C1080.93,-267.62 1070,-221.94 1070,-182 1070,-182 1070,-182 1070,-119.12 1070,-41.14 806.12,-18.87 687.07,-12.79"/>
<polygon fill="#63b8ff" stroke="#63b8ff" points="1084.59,-293.81 1090.73,-302.44 1091.32,-291.86 1084.59,-293.81"/>
</a>
</g>
</g>
<!-- Node16&#45;&gt;Node15 -->
<g id="edge32_Node000016_Node000015" class="edge">
<title>Node16&#45;&gt;Node15</title>
<g id="a_edge32_Node000016_Node000015"><a xlink:title=" ">
<path fill="none" stroke="#63b8ff" d="M1216.1,-429.25C1186.16,-401.24 1126.94,-345.82 1103.69,-324.07"/>
<polygon fill="#63b8ff" stroke="#63b8ff" points="1213.58,-431.68 1223.27,-435.96 1218.36,-426.57 1213.58,-431.68"/>
</a>
</g>
</g>
<!-- Node17&#45;&gt;Node15 -->
<g id="edge34_Node000017_Node000015" class="edge">
<title>Node17&#45;&gt;Node15</title>
<g id="a_edge34_Node000017_Node000015"><a xlink:title=" ">
<path fill="none" stroke="#63b8ff" d="M1037.88,-421.55C1053.4,-392.08 1078.71,-344.03 1089.21,-324.1"/>
<polygon fill="#63b8ff" stroke="#63b8ff" points="1034.92,-419.66 1033.35,-430.14 1041.11,-422.92 1034.92,-419.66"/>
</a>
</g>
</g>
<!-- Node17&#45;&gt;Node18 -->
<g id="edge35_Node000017_Node000018" class="edge">
<title>Node17&#45;&gt;Node18</title>
<g id="a_edge35_Node000017_Node000018"><a xlink:title=" ">
<path fill="none" stroke="#63b8ff" d="M981.69,-426.73C959.68,-416.94 933.37,-405.24 913.02,-396.19"/>
<polygon fill="#63b8ff" stroke="#63b8ff" points="980.16,-429.88 990.71,-430.75 983,-423.49 980.16,-429.88"/>
</a>
</g>
</g>
<!-- Node18&#45;&gt;Node3 -->
<g id="edge36_Node000018_Node000003" class="edge">
<title>Node18&#45;&gt;Node3</title>
<g id="a_edge36_Node000018_Node000003"><a xlink:title=" ">
<path fill="none" stroke="#63b8ff" d="M854.38,-357.74C832.04,-339.73 798.11,-314.61 765,-298.75 724.02,-279.12 673.87,-265.64 637.95,-257.62"/>
<polygon fill="#63b8ff" stroke="#63b8ff" points="852.08,-360.39 862.03,-364.02 856.52,-354.97 852.08,-360.39"/>
</a>
</g>
</g>
<!-- Node18&#45;&gt;Node15 -->
<g id="edge37_Node000018_Node000015" class="edge">
<title>Node18&#45;&gt;Node15</title>
<g id="a_edge37_Node000018_Node000015"><a xlink:title=" ">
<path fill="none" stroke="#63b8ff" d="M939.63,-361.53C980.05,-349.35 1031.75,-333.76 1063.87,-324.08"/>
<polygon fill="#63b8ff" stroke="#63b8ff" points="938.84,-358.11 930.28,-364.35 940.86,-364.81 938.84,-358.11"/>
</a>
</g>
</g>
<!-- Node19 -->
<g id="Node000019" class="node">
<title>Node19</title>
<g id="a_Node000019"><a xlink:href="../../d8/de4/_sequence_8hpp.html" target="_top" xlink:title=" ">
<polygon fill="white" stroke="#666666" points="973.38,-323.62 854.62,-323.62 854.62,-304.38 973.38,-304.38 973.38,-323.62"/>
<text text-anchor="middle" x="914" y="-310.12" font-family="Helvetica,sans-Serif" font-size="10.00">mimic++/Sequence.hpp</text>
</a>
</g>
</g>
<!-- Node18&#45;&gt;Node19 -->
<g id="edge38_Node000018_Node000019" class="edge">
<title>Node18&#45;&gt;Node19</title>
<g id="a_edge38_Node000018_Node000019"><a xlink:title=" ">
<path fill="none" stroke="#63b8ff" d="M892.94,-354.94C898.71,-344.01 905.13,-331.83 909.35,-323.82"/>
<polygon fill="#63b8ff" stroke="#63b8ff" points="889.99,-353.05 888.42,-363.53 896.18,-356.31 889.99,-353.05"/>
</a>
</g>
</g>
<!-- Node19&#45;&gt;Node3 -->
<g id="edge39_Node000019_Node000003" class="edge">
<title>Node19&#45;&gt;Node3</title>
<g id="a_edge39_Node000019_Node000003"><a xlink:title=" ">
<path fill="none" stroke="#63b8ff" d="M857.13,-301.64C794.34,-289.11 694.51,-269.17 636.62,-257.61"/>
<polygon fill="#63b8ff" stroke="#63b8ff" points="856.43,-305.07 866.92,-303.6 857.8,-298.21 856.43,-305.07"/>
</a>
</g>
</g>
<!-- Node19&#45;&gt;Node4 -->
<g id="edge40_Node000019_Node000004" class="edge">
<title>Node19&#45;&gt;Node4</title>
<g id="a_edge40_Node000019_Node000004"><a xlink:title=" ">
<path fill="none" stroke="#63b8ff" d="M865.36,-300.76C838.06,-292.55 804.13,-280.05 777,-262.75 745.02,-242.36 715.67,-207.44 702.83,-191.03"/>
<polygon fill="#63b8ff" stroke="#63b8ff" points="864.2,-304.07 874.78,-303.49 866.15,-297.34 864.2,-304.07"/>
</a>
</g>
</g>
<!-- Node19&#45;&gt;Node7 -->
<g id="edge42_Node000019_Node000007" class="edge">
<title>Node19&#45;&gt;Node7</title>
<g id="a_edge42_Node000019_Node000007"><a xlink:title=" ">
<path fill="none" stroke="#63b8ff" d="M931.05,-295.91C952.62,-272.39 987,-227.74 987,-182 987,-182 987,-182 987,-119.12 987,-57.18 787.75,-27.23 686.96,-16.05"/>
<polygon fill="#63b8ff" stroke="#63b8ff" points="928.65,-293.36 924.29,-303.02 933.72,-298.19 928.65,-293.36"/>
</a>
</g>
</g>
<!-- Node19&#45;&gt;Node9 -->
<g id="edge41_Node000019_Node000009" class="edge">
<title>Node19&#45;&gt;Node9</title>
<g id="a_edge41_Node000019_Node000009"><a xlink:title=" ">
<path fill="none" stroke="#63b8ff" d="M919.01,-293.24C922.34,-276.61 925.09,-252.39 919,-232.25 906.05,-189.43 870.57,-148.01 853.89,-130.22"/>
<polygon fill="#63b8ff" stroke="#63b8ff" points="915.64,-292.28 916.83,-302.81 922.47,-293.84 915.64,-292.28"/>
</a>
</g>
</g>
<!-- Node20 -->
<g id="Node000020" class="node">
<title>Node20</title>
<g id="a_Node000020"><a xlink:href="../../db/d70/_control_policies_8hpp.html" target="_top" xlink:title=" ">
<polygon fill="white" stroke="#666666" points="910,-262.75 786,-262.75 786,-232.25 910,-232.25 910,-262.75"/>
<text text-anchor="start" x="794" y="-249.25" font-family="Helvetica,sans-Serif" font-size="10.00">mimic++/policies/Control</text>
<text text-anchor="middle" x="848" y="-238" font-family="Helvetica,sans-Serif" font-size="10.00">Policies.hpp</text>
</a>
</g>
</g>
<!-- Node19&#45;&gt;Node20 -->
<g id="edge43_Node000019_Node000020" class="edge">
<title>Node19&#45;&gt;Node20</title>
<g id="a_edge43_Node000019_Node000020"><a xlink:title=" ">
<path fill="none" stroke="#63b8ff" d="M896.73,-296.12C886.15,-285.78 872.75,-272.68 862.68,-262.84"/>
<polygon fill="#63b8ff" stroke="#63b8ff" points="894.14,-298.49 903.74,-302.97 899.03,-293.48 894.14,-298.49"/>
</a>
</g>
</g>
<!-- Node20&#45;&gt;Node4 -->
<g id="edge44_Node000020_Node000004" class="edge">
<title>Node20&#45;&gt;Node4</title>
<g id="a_edge44_Node000020_Node000004"><a xlink:title=" ">
<path fill="none" stroke="#63b8ff" d="M803.02,-227.41C774.66,-215.38 739.35,-200.4 717.23,-191.01"/>
<polygon fill="#63b8ff" stroke="#63b8ff" points="801.54,-230.59 812.12,-231.27 804.28,-224.14 801.54,-230.59"/>
</a>
</g>
</g>
<!-- Node20&#45;&gt;Node7 -->
<g id="edge45_Node000020_Node000007" class="edge">
<title>Node20&#45;&gt;Node7</title>
<g id="a_edge45_Node000020_Node000007"><a xlink:title=" ">
<path fill="none" stroke="#63b8ff" d="M876.99,-224.86C908.9,-198.25 952.85,-151.57 930,-110.5 907.37,-69.81 884.2,-72.61 841,-55.25 790.97,-35.15 730.46,-23.54 687.09,-17.23"/>
<polygon fill="#63b8ff" stroke="#63b8ff" points="875.14,-221.85 869.55,-230.86 879.54,-227.3 875.14,-221.85"/>
</a>
</g>
</g>
<!-- Node21&#45;&gt;Node15 -->
<g id="edge48_Node000021_Node000015" class="edge">
<title>Node21&#45;&gt;Node15</title>
<g id="a_edge48_Node000021_Node000015"><a xlink:title=" ">
<path fill="none" stroke="#63b8ff" d="M1156.37,-489.84C1148.99,-481.72 1141.37,-472.12 1136,-462.25 1109.69,-413.92 1098.47,-347.47 1095.14,-323.81"/>
<polygon fill="#63b8ff" stroke="#63b8ff" points="1153.7,-492.11 1163.14,-496.92 1158.76,-487.27 1153.7,-492.11"/>
</a>
</g>
</g>
<!-- Node21&#45;&gt;Node16 -->
<g id="edge49_Node000021_Node000016" class="edge">
<title>Node21&#45;&gt;Node16</title>
<g id="a_edge49_Node000021_Node000016"><a xlink:title=" ">
<path fill="none" stroke="#63b8ff" d="M1199.43,-489.29C1208.86,-478.02 1219.64,-465.16 1226.61,-456.82"/>
<polygon fill="#63b8ff" stroke="#63b8ff" points="1196.96,-486.79 1193.23,-496.7 1202.33,-491.28 1196.96,-486.79"/>
</a>
</g>
</g>
<!-- Node21&#45;&gt;Node17 -->
<g id="edge50_Node000021_Node000017" class="edge">
<title>Node21&#45;&gt;Node17</title>
<g id="a_edge50_Node000021_Node000017"><a xlink:title=" ">
<path fill="none" stroke="#63b8ff" d="M1134.34,-493.5C1110.69,-483.66 1082.25,-471.82 1060.3,-462.69"/>
<polygon fill="#63b8ff" stroke="#63b8ff" points="1132.85,-496.67 1143.43,-497.28 1135.54,-490.21 1132.85,-496.67"/>
</a>
</g>
</g>
<!-- Node22&#45;&gt;Node7 -->
<g id="edge52_Node000022_Node000007" class="edge">
<title>Node22&#45;&gt;Node7</title>
<g id="a_edge52_Node000022_Node000007"><a xlink:title=" ">
<path fill="none" stroke="#63b8ff" d="M1479.54,-492.73C1470.66,-467.36 1457,-421.8 1457,-381.5 1457,-381.5 1457,-381.5 1457,-119.12 1457,-41.34 874.36,-17.69 687.17,-12.1"/>
<polygon fill="#63b8ff" stroke="#63b8ff" points="1476.22,-493.83 1482.92,-502.03 1482.8,-491.44 1476.22,-493.83"/>
</a>
</g>
</g>
<!-- Node23&#45;&gt;Node7 -->
<g id="edge57_Node000023_Node000007" class="edge">
<title>Node23&#45;&gt;Node7</title>
<g id="a_edge57_Node000023_Node000007"><a xlink:title=" ">
<path fill="none" stroke="#63b8ff" d="M1553.93,-360.14C1544.16,-334.91 1529,-289.2 1529,-248.5 1529,-248.5 1529,-248.5 1529,-119.12 1529,-80.78 1505.64,-71.7 1471,-55.25 1400.63,-21.84 864.54,-13.13 686.95,-11.15"/>
<polygon fill="#63b8ff" stroke="#63b8ff" points="1550.55,-361.11 1557.52,-369.08 1557.04,-358.5 1550.55,-361.11"/>
</a>
</g>
</g>
<!-- Node25&#45;&gt;Node3 -->
<g id="edge62_Node000025_Node000003" class="edge">
<title>Node25&#45;&gt;Node3</title>
<g id="a_edge62_Node000025_Node000003"><a xlink:title=" ">
<path fill="none" stroke="#63b8ff" d="M975.49,-638.7C894.21,-631.07 778.68,-616.86 739,-595.25 696.77,-572.25 667,-562.58 667,-514.5 667,-514.5 667,-514.5 667,-446 667,-368.48 615.37,-284.58 597.22,-257.48"/>
<polygon fill="#63b8ff" stroke="#63b8ff" points="974.93,-642.16 985.21,-639.59 975.57,-635.19 974.93,-642.16"/>
</a>
</g>
</g>
<!-- Node25&#45;&gt;Node15 -->
<g id="edge63_Node000025_Node000015" class="edge">
<title>Node25&#45;&gt;Node15</title>
<g id="a_edge63_Node000025_Node000015"><a xlink:title=" ">
<path fill="none" stroke="#63b8ff" d="M1146.54,-634.7C1188.71,-627.25 1239.5,-615 1282,-595.25 1336.03,-570.14 1389,-574.08 1389,-514.5 1389,-514.5 1389,-514.5 1389,-446 1389,-343.59 1238.67,-320.64 1152.64,-315.88"/>
<polygon fill="#63b8ff" stroke="#63b8ff" points="1146.22,-631.21 1136.95,-636.34 1147.39,-638.11 1146.22,-631.21"/>
</a>
</g>
</g>
<!-- Node25&#45;&gt;Node16 -->
<g id="edge65_Node000025_Node000016" class="edge">
<title>Node25&#45;&gt;Node16</title>
<g id="a_edge65_Node000025_Node000016"><a xlink:title=" ">
<path fill="none" stroke="#63b8ff" d="M1146.6,-632.82C1192.26,-624.34 1242.23,-611.7 1258,-595.25 1288.14,-563.81 1285.86,-539.55 1272,-498.25 1266.43,-481.66 1252.98,-466.18 1243.67,-456.9"/>
<polygon fill="#63b8ff" stroke="#63b8ff" points="1146.13,-629.35 1136.91,-634.57 1147.37,-636.24 1146.13,-629.35"/>
</a>
</g>
</g>
<!-- Node25&#45;&gt;Node17 -->
<g id="edge66_Node000025_Node000017" class="edge">
<title>Node25&#45;&gt;Node17</title>
<g id="a_edge66_Node000025_Node000017"><a xlink:title=" ">
<path fill="none" stroke="#63b8ff" d="M1056.31,-619.79C1048.66,-577.79 1033.71,-495.81 1027.65,-462.54"/>
<polygon fill="#63b8ff" stroke="#63b8ff" points="1052.84,-620.28 1058.08,-629.49 1059.73,-619.02 1052.84,-620.28"/>
</a>
</g>
</g>
<!-- Node25&#45;&gt;Node18 -->
<g id="edge67_Node000025_Node000018" class="edge">
<title>Node25&#45;&gt;Node18</title>
<g id="a_edge67_Node000025_Node000018"><a xlink:title=" ">
<path fill="none" stroke="#63b8ff" d="M1044.56,-621.53C1007.76,-567.85 919.65,-439.33 889.96,-396.02"/>
<polygon fill="#63b8ff" stroke="#63b8ff" points="1041.61,-623.41 1050.15,-629.68 1047.39,-619.45 1041.61,-623.41"/>
</a>
</g>
</g>
<!-- Node25&#45;&gt;Node20 -->
<g id="edge64_Node000025_Node000020" class="edge">
<title>Node25&#45;&gt;Node20</title>
<g id="a_edge64_Node000025_Node000020"><a xlink:title=" ">
<path fill="none" stroke="#63b8ff" d="M975.23,-643.02C896.76,-638.73 788.89,-627.04 762,-595.25 675.07,-492.5 797.31,-314.79 836.57,-263.04"/>
<polygon fill="#63b8ff" stroke="#63b8ff" points="974.9,-646.51 985.07,-643.53 975.26,-639.52 974.9,-646.51"/>
</a>
</g>
</g>
<!-- Node25&#45;&gt;Node21 -->
<g id="edge73_Node000025_Node000021" class="edge">
<title>Node25&#45;&gt;Node21</title>
<g id="a_edge73_Node000025_Node000021"><a xlink:title=" ">
<path fill="none" stroke="#63b8ff" d="M1069.62,-620.65C1076.46,-603.53 1087.31,-581.03 1102,-564.75 1115.27,-550.04 1133.8,-537.87 1149.46,-529.19"/>
<polygon fill="#63b8ff" stroke="#63b8ff" points="1066.51,-618.99 1066.24,-629.59 1073.05,-621.47 1066.51,-618.99"/>
</a>
</g>
</g>
<!-- Node26 -->
<g id="Node000026" class="node">
<title>Node26</title>
<g id="a_Node000026"><a xlink:href="../../de/d3f/_no_match_report_8hpp.html" target="_top" xlink:title=" ">
<polygon fill="white" stroke="#666666" points="1248.75,-595.25 1111.25,-595.25 1111.25,-564.75 1248.75,-564.75 1248.75,-595.25"/>
<text text-anchor="start" x="1119.25" y="-581.75" font-family="Helvetica,sans-Serif" font-size="10.00">mimic++/reporting/NoMatch</text>
<text text-anchor="middle" x="1180" y="-570.5" font-family="Helvetica,sans-Serif" font-size="10.00">Report.hpp</text>
</a>
</g>
</g>
<!-- Node25&#45;&gt;Node26 -->
<g id="edge68_Node000025_Node000026" class="edge">
<title>Node25&#45;&gt;Node26</title>
<g id="a_edge68_Node000025_Node000026"><a xlink:title=" ">
<path fill="none" stroke="#63b8ff" d="M1098.07,-625.41C1115.89,-615.75 1136.84,-604.39 1153.1,-595.58"/>
<polygon fill="#63b8ff" stroke="#63b8ff" points="1096.46,-622.3 1089.33,-630.14 1099.79,-628.45 1096.46,-622.3"/>
</a>
</g>
</g>
<!-- Node26&#45;&gt;Node15 -->
<g id="edge69_Node000026_Node000015" class="edge">
<title>Node26&#45;&gt;Node15</title>
<g id="a_edge69_Node000026_Node000015"><a xlink:title=" ">
<path fill="none" stroke="#63b8ff" d="M1227.86,-559.76C1284.08,-534.16 1365.69,-485.79 1332,-431.75 1291.59,-366.91 1203.51,-337.07 1146.58,-324.1"/>
<polygon fill="#63b8ff" stroke="#63b8ff" points="1226.45,-556.55 1218.72,-563.81 1229.28,-562.95 1226.45,-556.55"/>
</a>
</g>
</g>
<!-- Node26&#45;&gt;Node16 -->
<g id="edge70_Node000026_Node000016" class="edge">
<title>Node26&#45;&gt;Node16</title>
<g id="a_edge70_Node000026_Node000016"><a xlink:title=" ">
<path fill="none" stroke="#63b8ff" d="M1225.94,-558.82C1237.88,-551.21 1249.26,-541.28 1256,-528.75 1268.94,-504.69 1251.01,-472.42 1240.57,-456.97"/>
<polygon fill="#63b8ff" stroke="#63b8ff" points="1224.51,-555.6 1217.64,-563.67 1228.04,-561.65 1224.51,-555.6"/>
</a>
</g>
</g>
<!-- Node26&#45;&gt;Node17 -->
<g id="edge71_Node000026_Node000017" class="edge">
<title>Node26&#45;&gt;Node17</title>
<g id="a_edge71_Node000026_Node000017"><a xlink:title=" ">
<path fill="none" stroke="#63b8ff" d="M1145.82,-558.16C1132.64,-549.6 1117.71,-539.25 1105,-528.75 1079.43,-507.64 1052.97,-479.46 1037.8,-462.58"/>
<polygon fill="#63b8ff" stroke="#63b8ff" points="1143.9,-561.08 1154.21,-563.51 1147.66,-555.18 1143.9,-561.08"/>
</a>
</g>
</g>
<!-- Node26&#45;&gt;Node21 -->
<g id="edge72_Node000026_Node000021" class="edge">
<title>Node26&#45;&gt;Node21</title>
<g id="a_edge72_Node000026_Node000021"><a xlink:title=" ">
<path fill="none" stroke="#63b8ff" d="M1180,-553.06C1180,-544.89 1180,-536.16 1180,-529.08"/>
<polygon fill="#63b8ff" stroke="#63b8ff" points="1176.5,-552.85 1180,-562.85 1183.5,-552.85 1176.5,-552.85"/>
</a>
</g>
</g>
</g>
</svg>

<g id="navigator" transform="translate(0 0)" fill="#404254">
  <rect fill="#f2f5e9" fill-opacity="0.5" stroke="#606060" stroke-width=".5" x="0" y="0" width="60" height="60"/>
  <use id="zoomplus" xlink:href="#zoomPlus" x="17" y="9" onmousedown="handleZoom(evt,'in')"/>
  <use id="zoomminus" xlink:href="#zoomMin" x="42" y="9" onmousedown="handleZoom(evt,'out')"/>
  <use id="reset" xlink:href="#resetDef" x="30" y="36" onmousedown="handleReset()"/>
   <use id="arrowup" xlink:href="#arrowUp" x="0" y="0" onmousedown="handlePan(0,-1)"/>
  <use id="arrowright" xlink:href="#arrowRight" x="0" y="0" onmousedown="handlePan(1,0)"/>
  <use id="arrowdown" xlink:href="#arrowDown" x="0" y="0" onmousedown="handlePan(0,1)"/>
  <use id="arrowleft" xlink:href="#arrowLeft" x="0" y="0" onmousedown="handlePan(-1,0)"/>
</g>
<svg viewBox="0 0 15 15" width="100%" height="30px" preserveAspectRatio="xMaxYMin meet">
 <g id="arrow_out" transform="scale(0.3 0.3)">
  <a xlink:href="_source_location_8hpp__dep__incl_org.svg" target="_base">
   <rect id="button" ry="5" rx="5" y="6" x="6" height="38" width="38"
        fill="#f2f5e9" fill-opacity="0.5" stroke="#606060" stroke-width="1.0"/>
   <path id="arrow"
     d="M 11.500037,31.436501 C 11.940474,20.09759 22.043105,11.32322 32.158766,21.979434 L 37.068811,17.246167 C 37.068811,17.246167 37.088388,32 37.088388,32 L 22.160133,31.978069 C 22.160133,31.978069 26.997745,27.140456 26.997745,27.140456 C 18.528582,18.264221 13.291696,25.230495 11.500037,31.436501 z"
     style="fill:#404040;"/>
  </a>
 </g>
</svg>

<style type='text/css'>
<![CDATA[
[data-mouse-over-selected='false'] { opacity: 0.7; }
[data-mouse-over-selected='true']  { opacity: 1.0; }
]]>
</style>
<script type="application/ecmascript"><![CDATA[
document.addEventListener('DOMContentLoaded', (event) => {
  highlightEdges();
  highlightAdjacentNodes();
});
]]></script>
</svg>
