<?xml version="1.0" encoding="UTF-8" standalone="no"?>
<!DOCTYPE svg PUBLIC "-//W3C//DTD SVG 1.1//EN"
 "http://www.w3.org/Graphics/SVG/1.1/DTD/svg11.dtd">
<!-- Generated by graphviz version 12.2.1 (20241206.2353)
 -->
<!-- Title: mimic++/utilities/SourceLocation.hpp Pages: 1 -->
<svg width="1678pt" height="803pt"
 viewBox="0.00 0.00 1678.12 802.75" xmlns="http://www.w3.org/2000/svg" xmlns:xlink="http://www.w3.org/1999/xlink">
<g id="graph0" class="graph" transform="scale(1 1) rotate(0) translate(4 798.75)">
<title>mimic++/utilities/SourceLocation.hpp</title>
<!-- Node1 -->
<g id="Node000001" class="node">
<title>Node1</title>
<g id="a_Node000001"><a xlink:title=" ">
<polygon fill="#999999" stroke="#666666" points="739.88,-794.75 618.12,-794.75 618.12,-764.25 739.88,-764.25 739.88,-794.75"/>
<text text-anchor="start" x="626.12" y="-781.25" font-family="Helvetica,sans-Serif" font-size="10.00">mimic++/utilities/Source</text>
<text text-anchor="middle" x="679" y="-770" font-family="Helvetica,sans-Serif" font-size="10.00">Location.hpp</text>
</a>
</g>
</g>
<!-- Node2 -->
<g id="Node000002" class="node">
<title>Node2</title>
<g id="a_Node000002"><a xlink:href="../../dc/d44/_call_8hpp.html" target="_top" xlink:title=" ">
<polygon fill="white" stroke="#666666" points="463.88,-656.12 372.12,-656.12 372.12,-636.88 463.88,-636.88 463.88,-656.12"/>
<text text-anchor="middle" x="418" y="-642.62" font-family="Helvetica,sans-Serif" font-size="10.00">mimic++/Call.hpp</text>
</a>
</g>
</g>
<!-- Node1&#45;&gt;Node2 -->
<g id="edge1_Node000001_Node000002" class="edge">
<title>Node1&#45;&gt;Node2</title>
<g id="a_edge1_Node000001_Node000002"><a xlink:title=" ">
<path fill="none" stroke="#63b8ff" d="M606.5,-772.17C566.26,-765.88 516.84,-753.31 479,-728.25 450.88,-709.62 430.63,-673.51 422.26,-656.62"/>
<polygon fill="#63b8ff" stroke="#63b8ff" points="605.96,-775.63 616.36,-773.61 606.97,-768.71 605.96,-775.63"/>
</a>
</g>
</g>
<!-- Node3 -->
<g id="Node000003" class="node">
<title>Node3</title>
<g id="a_Node000003"><a xlink:href="../../d5/d8a/_expectation_8hpp.html" target="_top" xlink:title=" ">
<polygon fill="white" stroke="#666666" points="714.75,-257.12 589.25,-257.12 589.25,-237.88 714.75,-237.88 714.75,-257.12"/>
<text text-anchor="middle" x="652" y="-243.62" font-family="Helvetica,sans-Serif" font-size="10.00">mimic++/Expectation.hpp</text>
</a>
</g>
</g>
<!-- Node1&#45;&gt;Node3 -->
<g id="edge53_Node000001_Node000003" class="edge">
<title>Node1&#45;&gt;Node3</title>
<g id="a_edge53_Node000001_Node000003"><a xlink:title=" ">
<path fill="none" stroke="#63b8ff" d="M655.82,-755.76C633.47,-731.29 603,-690.12 603,-647.5 603,-647.5 603,-647.5 603,-379.5 603,-330.94 632.91,-278.3 645.99,-257.59"/>
<polygon fill="#63b8ff" stroke="#63b8ff" points="653.16,-758.03 662.58,-762.89 658.24,-753.22 653.16,-758.03"/>
</a>
</g>
</g>
<!-- Node4 -->
<g id="Node000004" class="node">
<title>Node4</title>
<g id="a_Node000004"><a xlink:href="../../d2/d4f/_expectation_builder_8hpp.html" target="_top" xlink:title=" ">
<polygon fill="white" stroke="#666666" points="710.75,-190.62 555.25,-190.62 555.25,-171.38 710.75,-171.38 710.75,-190.62"/>
<text text-anchor="middle" x="633" y="-177.12" font-family="Helvetica,sans-Serif" font-size="10.00">mimic++/ExpectationBuilder.hpp</text>
</a>
</g>
</g>
<!-- Node1&#45;&gt;Node4 -->
<g id="edge54_Node000001_Node000004" class="edge">
<title>Node1&#45;&gt;Node4</title>
<g id="a_edge54_Node000001_Node000004"><a xlink:title=" ">
<path fill="none" stroke="#63b8ff" d="M606.99,-774.91C574,-769.21 537.72,-756.36 517,-728.25 491.43,-693.54 516.14,-674.35 517,-631.25 519.22,-520.18 527,-492.59 527,-381.5 527,-381.5 527,-381.5 527,-313 527,-255.95 588.5,-209.8 617.81,-191.05"/>
<polygon fill="#63b8ff" stroke="#63b8ff" points="606.12,-778.32 616.53,-776.35 607.16,-771.4 606.12,-778.32"/>
</a>
</g>
</g>
<!-- Node9 -->
<g id="Node000009" class="node">
<title>Node9</title>
<g id="a_Node000009"><a xlink:href="../../db/d83/_scoped_sequence_8hpp.html" target="_top" xlink:title=" ">
<polygon fill="white" stroke="#666666" points="786.88,-129.75 635.12,-129.75 635.12,-110.5 786.88,-110.5 786.88,-129.75"/>
<text text-anchor="middle" x="711" y="-116.25" font-family="Helvetica,sans-Serif" font-size="10.00">mimic++/ScopedSequence.hpp</text>
</a>
</g>
</g>
<!-- Node1&#45;&gt;Node9 -->
<g id="edge55_Node000001_Node000009" class="edge">
<title>Node1&#45;&gt;Node9</title>
<g id="a_edge55_Node000001_Node000009"><a xlink:title=" ">
<path fill="none" stroke="#63b8ff" d="M643.19,-757.54C631.97,-749.55 620.34,-739.6 612,-728.25 515.12,-596.52 489,-545.02 489,-381.5 489,-381.5 489,-381.5 489,-246.5 489,-174.46 578.73,-143.35 644.09,-130.24"/>
<polygon fill="#63b8ff" stroke="#63b8ff" points="640.95,-760.25 651.19,-762.94 644.86,-754.45 640.95,-760.25"/>
</a>
</g>
</g>
<!-- Node14 -->
<g id="Node000014" class="node">
<title>Node14</title>
<g id="a_Node000014"><a xlink:href="../../d9/d6c/_call_report_8hpp.html" target="_top" xlink:title=" ">
<polygon fill="white" stroke="#666666" points="841.38,-589.62 680.62,-589.62 680.62,-570.38 841.38,-570.38 841.38,-589.62"/>
<text text-anchor="middle" x="761" y="-576.12" font-family="Helvetica,sans-Serif" font-size="10.00">mimic++/reporting/CallReport.hpp</text>
</a>
</g>
</g>
<!-- Node1&#45;&gt;Node14 -->
<g id="edge59_Node000001_Node000014" class="edge">
<title>Node1&#45;&gt;Node14</title>
<g id="a_edge59_Node000001_Node000014"><a xlink:title=" ">
<path fill="none" stroke="#63b8ff" d="M689.38,-753.49C707.84,-709.04 745.54,-618.24 757.37,-589.75"/>
<polygon fill="#63b8ff" stroke="#63b8ff" points="686.21,-752 685.61,-762.58 692.68,-754.69 686.21,-752"/>
</a>
</g>
</g>
<!-- Node17 -->
<g id="Node000017" class="node">
<title>Node17</title>
<g id="a_Node000017"><a xlink:href="../../d0/d70/_default_reporter_8hpp.html" target="_top" xlink:title=" ">
<polygon fill="white" stroke="#666666" points="1025.25,-462.25 896.75,-462.25 896.75,-431.75 1025.25,-431.75 1025.25,-462.25"/>
<text text-anchor="start" x="904.75" y="-448.75" font-family="Helvetica,sans-Serif" font-size="10.00">mimic++/reporting/Default</text>
<text text-anchor="middle" x="961" y="-437.5" font-family="Helvetica,sans-Serif" font-size="10.00">Reporter.hpp</text>
</a>
</g>
</g>
<!-- Node1&#45;&gt;Node17 -->
<g id="edge60_Node000001_Node000017" class="edge">
<title>Node1&#45;&gt;Node17</title>
<g id="a_edge60_Node000001_Node000017"><a xlink:title=" ">
<path fill="none" stroke="#63b8ff" d="M751.7,-773.36C830.46,-763.37 945,-733.98 945,-647.5 945,-647.5 945,-647.5 945,-579 945,-536.38 953.45,-486.54 958.07,-462.47"/>
<polygon fill="#63b8ff" stroke="#63b8ff" points="751.38,-769.87 741.86,-774.52 752.2,-776.82 751.38,-769.87"/>
</a>
</g>
</g>
<!-- Node19 -->
<g id="Node000019" class="node">
<title>Node19</title>
<g id="a_Node000019"><a xlink:href="../../d8/de4/_sequence_8hpp.html" target="_top" xlink:title=" ">
<polygon fill="white" stroke="#666666" points="871.38,-323.62 752.62,-323.62 752.62,-304.38 871.38,-304.38 871.38,-323.62"/>
<text text-anchor="middle" x="812" y="-310.12" font-family="Helvetica,sans-Serif" font-size="10.00">mimic++/Sequence.hpp</text>
</a>
</g>
</g>
<!-- Node1&#45;&gt;Node19 -->
<g id="edge56_Node000001_Node000019" class="edge">
<title>Node1&#45;&gt;Node19</title>
<g id="a_edge56_Node000001_Node000019"><a xlink:title=" ">
<path fill="none" stroke="#63b8ff" d="M675.06,-752.69C669.59,-712.32 661.49,-631.9 672,-564.75 686.4,-472.75 679.76,-439.46 736,-365.25 750.33,-346.34 773.96,-332.34 791.07,-323.99"/>
<polygon fill="#63b8ff" stroke="#63b8ff" points="671.56,-752.96 676.44,-762.37 678.49,-751.98 671.56,-752.96"/>
</a>
</g>
</g>
<!-- Node22 -->
<g id="Node000022" class="node">
<title>Node22</title>
<g id="a_Node000022"><a xlink:href="../../d7/ded/_call_convention_8hpp.html" target="_top" xlink:title=" ">
<polygon fill="white" stroke="#666666" points="1607.25,-523.12 1466.75,-523.12 1466.75,-503.88 1607.25,-503.88 1607.25,-523.12"/>
<text text-anchor="middle" x="1537" y="-509.62" font-family="Helvetica,sans-Serif" font-size="10.00">mimic++/CallConvention.hpp</text>
</a>
</g>
</g>
<!-- Node1&#45;&gt;Node22 -->
<g id="edge51_Node000001_Node000022" class="edge">
<title>Node1&#45;&gt;Node22</title>
<g id="a_edge51_Node000001_Node000022"><a xlink:title=" ">
<path fill="none" stroke="#63b8ff" d="M751.46,-779.13C906.75,-779.53 1266.56,-775.18 1378,-728.25 1472.2,-688.58 1522.25,-558.1 1534.18,-523.17"/>
<polygon fill="#63b8ff" stroke="#63b8ff" points="751.72,-775.63 741.71,-779.09 751.69,-782.63 751.72,-775.63"/>
</a>
</g>
</g>
<!-- Node23 -->
<g id="Node000023" class="node">
<title>Node23</title>
<g id="a_Node000023"><a xlink:href="../../dc/d54/_utilities_8hpp.html" target="_top" xlink:title=" ">
<polygon fill="white" stroke="#666666" points="1670.12,-390.12 1561.88,-390.12 1561.88,-370.88 1670.12,-370.88 1670.12,-390.12"/>
<text text-anchor="middle" x="1616" y="-376.62" font-family="Helvetica,sans-Serif" font-size="10.00">mimic++/Utilities.hpp</text>
</a>
</g>
</g>
<!-- Node1&#45;&gt;Node23 -->
<g id="edge57_Node000001_Node000023" class="edge">
<title>Node1&#45;&gt;Node23</title>
<g id="a_edge57_Node000001_Node000023"><a xlink:title=" ">
<path fill="none" stroke="#63b8ff" d="M751.38,-776.17C911.16,-770.59 1289.77,-754.94 1415,-728.25 1516.87,-706.54 1635,-751.66 1635,-647.5 1635,-647.5 1635,-647.5 1635,-512.5 1635,-466.08 1623.17,-411.35 1618.18,-390.33"/>
<polygon fill="#63b8ff" stroke="#63b8ff" points="751.65,-772.66 741.78,-776.5 751.89,-779.65 751.65,-772.66"/>
</a>
</g>
</g>
<!-- Node24 -->
<g id="Node000024" class="node">
<title>Node24</title>
<g id="a_Node000024"><a xlink:href="../../dd/d76/_expectation_report_8hpp.html" target="_top" xlink:title=" ">
<polygon fill="white" stroke="#666666" points="1127,-661.75 979,-661.75 979,-631.25 1127,-631.25 1127,-661.75"/>
<text text-anchor="start" x="987" y="-648.25" font-family="Helvetica,sans-Serif" font-size="10.00">mimic++/reporting/Expectation</text>
<text text-anchor="middle" x="1053" y="-637" font-family="Helvetica,sans-Serif" font-size="10.00">Report.hpp</text>
</a>
</g>
</g>
<!-- Node1&#45;&gt;Node24 -->
<g id="edge61_Node000001_Node000024" class="edge">
<title>Node1&#45;&gt;Node24</title>
<g id="a_edge61_Node000001_Node000024"><a xlink:title=" ">
<path fill="none" stroke="#63b8ff" d="M751.61,-775.94C810.1,-771.46 893.14,-759.55 959,-728.25 992.81,-712.18 1024.09,-680.65 1040.65,-662.1"/>
<polygon fill="#63b8ff" stroke="#63b8ff" points="751.5,-772.44 741.77,-776.63 751.99,-779.42 751.5,-772.44"/>
</a>
</g>
</g>
<!-- Node26 -->
<g id="Node000026" class="node">
<title>Node26</title>
<g id="a_Node000026"><a xlink:href="../../d5/dc7/_sequence_report_8hpp.html" target="_top" xlink:title=" ">
<polygon fill="white" stroke="#666666" points="1368.62,-728.25 1227.38,-728.25 1227.38,-697.75 1368.62,-697.75 1368.62,-728.25"/>
<text text-anchor="start" x="1235.38" y="-714.75" font-family="Helvetica,sans-Serif" font-size="10.00">mimic++/reporting/Sequence</text>
<text text-anchor="middle" x="1298" y="-703.5" font-family="Helvetica,sans-Serif" font-size="10.00">Report.hpp</text>
</a>
</g>
</g>
<!-- Node1&#45;&gt;Node26 -->
<g id="edge74_Node000001_Node000026" class="edge">
<title>Node1&#45;&gt;Node26</title>
<g id="a_edge74_Node000001_Node000026"><a xlink:title=" ">
<path fill="none" stroke="#63b8ff" d="M751.54,-770.94C871.21,-758.47 1108.55,-733.74 1227.12,-721.39"/>
<polygon fill="#63b8ff" stroke="#63b8ff" points="751.42,-767.43 741.84,-771.95 752.14,-774.4 751.42,-767.43"/>
</a>
</g>
</g>
<!-- Node2&#45;&gt;Node3 -->
<g id="edge2_Node000002_Node000003" class="edge">
<title>Node2&#45;&gt;Node3</title>
<g id="a_edge2_Node000002_Node000003"><a xlink:title=" ">
<path fill="none" stroke="#63b8ff" d="M441.17,-629.89C482.58,-599.9 565,-529.94 565,-448 565,-448 565,-448 565,-379.5 565,-342.06 568.07,-329.79 589,-298.75 601.04,-280.89 621.4,-266.33 635.7,-257.57"/>
<polygon fill="#63b8ff" stroke="#63b8ff" points="439.22,-626.97 433.07,-635.6 443.26,-632.69 439.22,-626.97"/>
</a>
</g>
</g>
<!-- Node5 -->
<g id="Node000005" class="node">
<title>Node5</title>
<g id="a_Node000005"><a xlink:href="../../d5/dc5/_mock_8hpp.html" target="_top" xlink:title=" ">
<polygon fill="white" stroke="#666666" points="577.62,-129.75 478.38,-129.75 478.38,-110.5 577.62,-110.5 577.62,-129.75"/>
<text text-anchor="middle" x="528" y="-116.25" font-family="Helvetica,sans-Serif" font-size="10.00">mimic++/Mock.hpp</text>
</a>
</g>
</g>
<!-- Node2&#45;&gt;Node5 -->
<g id="edge16_Node000002_Node000005" class="edge">
<title>Node2&#45;&gt;Node5</title>
<g id="a_edge16_Node000002_Node000005"><a xlink:title=" ">
<path fill="none" stroke="#63b8ff" d="M417.75,-625.44C417.46,-599.74 417,-553.8 417,-514.5 417,-514.5 417,-514.5 417,-246.5 417,-190.68 479.44,-148.07 510.66,-130.25"/>
<polygon fill="#63b8ff" stroke="#63b8ff" points="414.25,-625.13 417.87,-635.09 421.25,-625.05 414.25,-625.13"/>
</a>
</g>
</g>
<!-- Node7 -->
<g id="Node000007" class="node">
<title>Node7</title>
<g id="a_Node000007"><a xlink:href="../../d0/db9/mimic_09_09_8hpp.html" target="_top" xlink:title=" ">
<polygon fill="white" stroke="#666666" points="776.75,-19.25 663.25,-19.25 663.25,0 776.75,0 776.75,-19.25"/>
<text text-anchor="middle" x="720" y="-5.75" font-family="Helvetica,sans-Serif" font-size="10.00">mimic++/mimic++.hpp</text>
</a>
</g>
</g>
<!-- Node2&#45;&gt;Node7 -->
<g id="edge17_Node000002_Node000007" class="edge">
<title>Node2&#45;&gt;Node7</title>
<g id="a_edge17_Node000002_Node000007"><a xlink:title=" ">
<path fill="none" stroke="#63b8ff" d="M408.46,-626.29C396.92,-601.22 379,-555.68 379,-514.5 379,-514.5 379,-514.5 379,-119.12 379,-89.51 375.53,-74.55 398,-55.25 436.69,-22.02 581.27,-13.47 662.92,-11.31"/>
<polygon fill="#63b8ff" stroke="#63b8ff" points="405.25,-627.68 412.72,-635.2 411.57,-624.67 405.25,-627.68"/>
</a>
</g>
</g>
<!-- Node10 -->
<g id="Node000010" class="node">
<title>Node10</title>
<g id="a_Node000010"><a xlink:href="../../d2/dfd/_argument_list_8hpp.html" target="_top" xlink:title=" ">
<polygon fill="white" stroke="#666666" points="226.62,-329.25 91.38,-329.25 91.38,-298.75 226.62,-298.75 226.62,-329.25"/>
<text text-anchor="start" x="99.38" y="-315.75" font-family="Helvetica,sans-Serif" font-size="10.00">mimic++/policies/Argument</text>
<text text-anchor="middle" x="159" y="-304.5" font-family="Helvetica,sans-Serif" font-size="10.00">List.hpp</text>
</a>
</g>
</g>
<!-- Node2&#45;&gt;Node10 -->
<g id="edge18_Node000002_Node000010" class="edge">
<title>Node2&#45;&gt;Node10</title>
<g id="a_edge18_Node000002_Node000010"><a xlink:title=" ">
<path fill="none" stroke="#63b8ff" d="M374.79,-632.7C325.01,-614.98 250,-577.77 250,-514.5 250,-514.5 250,-514.5 250,-446 250,-396.15 205.01,-351.64 178.3,-329.6"/>
<polygon fill="#63b8ff" stroke="#63b8ff" points="373.58,-635.99 384.18,-635.9 375.84,-629.36 373.58,-635.99"/>
</a>
</g>
</g>
<!-- Node2&#45;&gt;Node14 -->
<g id="edge27_Node000002_Node000014" class="edge">
<title>Node2&#45;&gt;Node14</title>
<g id="a_edge27_Node000002_Node000014"><a xlink:title=" ">
<path fill="none" stroke="#63b8ff" d="M475.36,-634.71C541.88,-622.21 650.34,-601.81 712.72,-590.08"/>
<polygon fill="#63b8ff" stroke="#63b8ff" points="474.93,-631.23 465.75,-636.52 476.22,-638.11 474.93,-631.23"/>
</a>
</g>
</g>
<!-- Node3&#45;&gt;Node4 -->
<g id="edge3_Node000003_Node000004" class="edge">
<title>Node3&#45;&gt;Node4</title>
<g id="a_edge3_Node000003_Node000004"><a xlink:title=" ">
<path fill="none" stroke="#63b8ff" d="M646.19,-226.77C642.66,-214.8 638.33,-200.1 635.62,-190.89"/>
<polygon fill="#63b8ff" stroke="#63b8ff" points="642.75,-227.48 648.93,-236.08 649.46,-225.5 642.75,-227.48"/>
</a>
</g>
</g>
<!-- Node3&#45;&gt;Node5 -->
<g id="edge13_Node000003_Node000005" class="edge">
<title>Node3&#45;&gt;Node5</title>
<g id="a_edge13_Node000003_Node000005"><a xlink:title=" ">
<path fill="none" stroke="#63b8ff" d="M603.16,-233.65C582.75,-225.95 560.47,-214.08 546,-196.25 530.11,-176.67 527.85,-145.33 527.77,-130.07"/>
<polygon fill="#63b8ff" stroke="#63b8ff" points="601.9,-236.92 612.49,-236.91 604.21,-230.31 601.9,-236.92"/>
</a>
</g>
</g>
<!-- Node3&#45;&gt;Node7 -->
<g id="edge15_Node000003_Node000007" class="edge">
<title>Node3&#45;&gt;Node7</title>
<g id="a_edge15_Node000003_Node000007"><a xlink:title=" ">
<path fill="none" stroke="#63b8ff" d="M683.93,-232.75C720.09,-215.07 776.5,-180.47 796,-129.75 813.34,-84.64 758.99,-38.41 733.01,-19.5"/>
<polygon fill="#63b8ff" stroke="#63b8ff" points="682.8,-229.42 675.24,-236.85 685.78,-235.75 682.8,-229.42"/>
</a>
</g>
</g>
<!-- Node3&#45;&gt;Node9 -->
<g id="edge14_Node000003_Node000009" class="edge">
<title>Node3&#45;&gt;Node9</title>
<g id="a_edge14_Node000003_Node000009"><a xlink:title=" ">
<path fill="none" stroke="#63b8ff" d="M683.07,-231.98C697.07,-223.66 712.18,-211.75 720,-196.25 731,-174.44 721.27,-144.66 715.12,-130.01"/>
<polygon fill="#63b8ff" stroke="#63b8ff" points="681.6,-228.79 674.53,-236.68 684.98,-234.93 681.6,-228.79"/>
</a>
</g>
</g>
<!-- Node4&#45;&gt;Node5 -->
<g id="edge4_Node000004_Node000005" class="edge">
<title>Node4&#45;&gt;Node5</title>
<g id="a_edge4_Node000004_Node000005"><a xlink:title=" ">
<path fill="none" stroke="#63b8ff" d="M607.18,-165.52C587.45,-154.46 560.88,-139.56 544.1,-130.15"/>
<polygon fill="#63b8ff" stroke="#63b8ff" points="605.3,-168.48 615.73,-170.32 608.72,-162.37 605.3,-168.48"/>
</a>
</g>
</g>
<!-- Node4&#45;&gt;Node7 -->
<g id="edge12_Node000004_Node000007" class="edge">
<title>Node4&#45;&gt;Node7</title>
<g id="a_edge12_Node000004_Node000007"><a xlink:title=" ">
<path fill="none" stroke="#63b8ff" d="M624.87,-160.54C620.04,-145.69 616.51,-125.33 626,-110.5 646.58,-78.34 679.64,-103.9 704,-74.5 717.27,-58.48 719.76,-32.95 720.09,-19.53"/>
<polygon fill="#63b8ff" stroke="#63b8ff" points="621.49,-161.5 628.27,-169.64 628.04,-159.05 621.49,-161.5"/>
</a>
</g>
</g>
<!-- Node4&#45;&gt;Node9 -->
<g id="edge10_Node000004_Node000009" class="edge">
<title>Node4&#45;&gt;Node9</title>
<g id="a_edge10_Node000004_Node000009"><a xlink:title=" ">
<path fill="none" stroke="#63b8ff" d="M654.03,-164.13C668.46,-153.23 687.09,-139.17 699.04,-130.15"/>
<polygon fill="#63b8ff" stroke="#63b8ff" points="651.93,-161.33 646.05,-170.15 656.14,-166.92 651.93,-161.33"/>
</a>
</g>
</g>
<!-- Node6 -->
<g id="Node000006" class="node">
<title>Node6</title>
<g id="a_Node000006"><a xlink:href="../../d6/dc3/_facade_8hpp.html" target="_top" xlink:title=" ">
<polygon fill="white" stroke="#666666" points="514.75,-74.5 407.25,-74.5 407.25,-55.25 514.75,-55.25 514.75,-74.5"/>
<text text-anchor="middle" x="461" y="-61" font-family="Helvetica,sans-Serif" font-size="10.00">mimic++/Facade.hpp</text>
</a>
</g>
</g>
<!-- Node5&#45;&gt;Node6 -->
<g id="edge5_Node000005_Node000006" class="edge">
<title>Node5&#45;&gt;Node6</title>
<g id="a_edge5_Node000005_Node000006"><a xlink:title=" ">
<path fill="none" stroke="#63b8ff" d="M507.95,-103.19C496.25,-93.89 481.93,-82.51 472.2,-74.77"/>
<polygon fill="#63b8ff" stroke="#63b8ff" points="505.44,-105.67 515.45,-109.15 509.8,-100.19 505.44,-105.67"/>
</a>
</g>
</g>
<!-- Node5&#45;&gt;Node7 -->
<g id="edge9_Node000005_Node000007" class="edge">
<title>Node5&#45;&gt;Node7</title>
<g id="a_edge9_Node000005_Node000007"><a xlink:title=" ">
<path fill="none" stroke="#63b8ff" d="M583.49,-107.56C620.99,-98.91 666.42,-86.55 682,-74.5 700.78,-59.98 712.2,-33.33 717.13,-19.49"/>
<polygon fill="#63b8ff" stroke="#63b8ff" points="583.11,-104.06 574.13,-109.68 584.65,-110.89 583.11,-104.06"/>
</a>
</g>
</g>
<!-- Node8 -->
<g id="Node000008" class="node">
<title>Node8</title>
<g id="a_Node000008"><a xlink:href="../../d5/d92/_object_watcher_8hpp.html" target="_top" xlink:title=" ">
<polygon fill="white" stroke="#666666" points="672.88,-74.5 533.12,-74.5 533.12,-55.25 672.88,-55.25 672.88,-74.5"/>
<text text-anchor="middle" x="603" y="-61" font-family="Helvetica,sans-Serif" font-size="10.00">mimic++/ObjectWatcher.hpp</text>
</a>
</g>
</g>
<!-- Node5&#45;&gt;Node8 -->
<g id="edge7_Node000005_Node000008" class="edge">
<title>Node5&#45;&gt;Node8</title>
<g id="a_edge7_Node000005_Node000008"><a xlink:title=" ">
<path fill="none" stroke="#63b8ff" d="M549.99,-103.51C563.07,-94.22 579.21,-82.77 590.21,-74.95"/>
<polygon fill="#63b8ff" stroke="#63b8ff" points="548.08,-100.57 541.96,-109.22 552.14,-106.28 548.08,-100.57"/>
</a>
</g>
</g>
<!-- Node6&#45;&gt;Node7 -->
<g id="edge6_Node000006_Node000007" class="edge">
<title>Node6&#45;&gt;Node7</title>
<g id="a_edge6_Node000006_Node000007"><a xlink:title=" ">
<path fill="none" stroke="#63b8ff" d="M516.28,-52.51C563.95,-42.71 631.88,-28.74 675.95,-19.68"/>
<polygon fill="#63b8ff" stroke="#63b8ff" points="515.8,-49.03 506.71,-54.48 517.21,-55.89 515.8,-49.03"/>
</a>
</g>
</g>
<!-- Node8&#45;&gt;Node7 -->
<g id="edge8_Node000008_Node000007" class="edge">
<title>Node8&#45;&gt;Node7</title>
<g id="a_edge8_Node000008_Node000007"><a xlink:title=" ">
<path fill="none" stroke="#63b8ff" d="M633.18,-50.14C654.22,-40.56 681.7,-28.06 700.06,-19.7"/>
<polygon fill="#63b8ff" stroke="#63b8ff" points="631.88,-46.89 624.23,-54.21 634.78,-53.26 631.88,-46.89"/>
</a>
</g>
</g>
<!-- Node9&#45;&gt;Node7 -->
<g id="edge11_Node000009_Node000007" class="edge">
<title>Node9&#45;&gt;Node7</title>
<g id="a_edge11_Node000009_Node000007"><a xlink:title=" ">
<path fill="none" stroke="#63b8ff" d="M732.16,-102.78C740.3,-95.18 748.68,-85.39 753,-74.5 761.1,-54.08 742.46,-31.55 730.03,-19.46"/>
<polygon fill="#63b8ff" stroke="#63b8ff" points="730.06,-99.97 724.76,-109.15 734.62,-105.28 730.06,-99.97"/>
</a>
</g>
</g>
<!-- Node10&#45;&gt;Node7 -->
<g id="edge19_Node000010_Node000007" class="edge">
<title>Node10&#45;&gt;Node7</title>
<g id="a_edge19_Node000010_Node000007"><a xlink:title=" ">
<path fill="none" stroke="#63b8ff" d="M104.63,-293.96C58.59,-273.95 0,-237.58 0,-182 0,-182 0,-182 0,-119.12 0,-52.21 492.61,-21.76 662.9,-13.23"/>
<polygon fill="#63b8ff" stroke="#63b8ff" points="103.16,-297.13 113.73,-297.75 105.85,-290.67 103.16,-297.13"/>
</a>
</g>
</g>
<!-- Node11 -->
<g id="Node000011" class="node">
<title>Node11</title>
<g id="a_Node000011"><a xlink:href="../../d1/d42/_arg_requirement_policies_8hpp.html" target="_top" xlink:title=" ">
<polygon fill="white" stroke="#666666" points="350.5,-262.75 187.5,-262.75 187.5,-232.25 350.5,-232.25 350.5,-262.75"/>
<text text-anchor="start" x="195.5" y="-249.25" font-family="Helvetica,sans-Serif" font-size="10.00">mimic++/policies/ArgRequirement</text>
<text text-anchor="middle" x="269" y="-238" font-family="Helvetica,sans-Serif" font-size="10.00">Policies.hpp</text>
</a>
</g>
</g>
<!-- Node10&#45;&gt;Node11 -->
<g id="edge20_Node000010_Node000011" class="edge">
<title>Node10&#45;&gt;Node11</title>
<g id="a_edge20_Node000010_Node000011"><a xlink:title=" ">
<path fill="none" stroke="#63b8ff" d="M193.73,-292.64C210.1,-283.04 229.25,-271.81 244.14,-263.08"/>
<polygon fill="#63b8ff" stroke="#63b8ff" points="192.12,-289.52 185.27,-297.6 195.66,-295.56 192.12,-289.52"/>
</a>
</g>
</g>
<!-- Node12 -->
<g id="Node000012" class="node">
<title>Node12</title>
<g id="a_Node000012"><a xlink:href="../../d3/da3/_finalizer_policies_8hpp.html" target="_top" xlink:title=" ">
<polygon fill="white" stroke="#666666" points="157.62,-196.25 28.38,-196.25 28.38,-165.75 157.62,-165.75 157.62,-196.25"/>
<text text-anchor="start" x="36.38" y="-182.75" font-family="Helvetica,sans-Serif" font-size="10.00">mimic++/policies/Finalizer</text>
<text text-anchor="middle" x="93" y="-171.5" font-family="Helvetica,sans-Serif" font-size="10.00">Policies.hpp</text>
</a>
</g>
</g>
<!-- Node10&#45;&gt;Node12 -->
<g id="edge23_Node000010_Node000012" class="edge">
<title>Node10&#45;&gt;Node12</title>
<g id="a_edge23_Node000010_Node000012"><a xlink:title=" ">
<path fill="none" stroke="#63b8ff" d="M146.54,-288.27C132.91,-261.21 111.52,-218.76 100.35,-196.58"/>
<polygon fill="#63b8ff" stroke="#63b8ff" points="143.38,-289.77 151,-297.13 149.63,-286.62 143.38,-289.77"/>
</a>
</g>
</g>
<!-- Node13 -->
<g id="Node000013" class="node">
<title>Node13</title>
<g id="a_Node000013"><a xlink:href="../../dc/d18/_side_effect_policies_8hpp.html" target="_top" xlink:title=" ">
<polygon fill="white" stroke="#666666" points="312.75,-196.25 175.25,-196.25 175.25,-165.75 312.75,-165.75 312.75,-196.25"/>
<text text-anchor="start" x="183.25" y="-182.75" font-family="Helvetica,sans-Serif" font-size="10.00">mimic++/policies/SideEffect</text>
<text text-anchor="middle" x="244" y="-171.5" font-family="Helvetica,sans-Serif" font-size="10.00">Policies.hpp</text>
</a>
</g>
</g>
<!-- Node10&#45;&gt;Node13 -->
<g id="edge25_Node000010_Node000013" class="edge">
<title>Node10&#45;&gt;Node13</title>
<g id="a_edge25_Node000010_Node000013"><a xlink:title=" ">
<path fill="none" stroke="#63b8ff" d="M160.58,-287.23C162.64,-270.44 167.34,-248.68 178,-232.25 187.64,-217.39 203.25,-205.21 216.87,-196.56"/>
<polygon fill="#63b8ff" stroke="#63b8ff" points="157.12,-286.64 159.65,-296.93 164.09,-287.31 157.12,-286.64"/>
</a>
</g>
</g>
<!-- Node11&#45;&gt;Node4 -->
<g id="edge21_Node000011_Node000004" class="edge">
<title>Node11&#45;&gt;Node4</title>
<g id="a_edge21_Node000011_Node000004"><a xlink:title=" ">
<path fill="none" stroke="#63b8ff" d="M361.68,-230.08C431.5,-217.71 524.63,-201.2 581.63,-191.1"/>
<polygon fill="#63b8ff" stroke="#63b8ff" points="361.41,-226.57 352.18,-231.76 362.64,-233.46 361.41,-226.57"/>
</a>
</g>
</g>
<!-- Node11&#45;&gt;Node7 -->
<g id="edge22_Node000011_Node000007" class="edge">
<title>Node11&#45;&gt;Node7</title>
<g id="a_edge22_Node000011_Node000007"><a xlink:title=" ">
<path fill="none" stroke="#63b8ff" d="M297.52,-224.47C306.4,-216.41 315.55,-206.68 322,-196.25 356.47,-140.53 314.89,-97.45 365,-55.25 408.89,-18.29 574.32,-11.43 663.01,-10.48"/>
<polygon fill="#63b8ff" stroke="#63b8ff" points="295.28,-221.78 289.98,-230.95 299.85,-227.08 295.28,-221.78"/>
</a>
</g>
</g>
<!-- Node12&#45;&gt;Node7 -->
<g id="edge24_Node000012_Node000007" class="edge">
<title>Node12&#45;&gt;Node7</title>
<g id="a_edge24_Node000012_Node000007"><a xlink:title=" ">
<path fill="none" stroke="#63b8ff" d="M120.01,-158.45C157.95,-129.49 230.33,-78.92 301,-55.25 366.64,-33.27 564.21,-19.4 662.78,-13.66"/>
<polygon fill="#63b8ff" stroke="#63b8ff" points="118.09,-155.51 112.32,-164.4 122.38,-161.05 118.09,-155.51"/>
</a>
</g>
</g>
<!-- Node13&#45;&gt;Node7 -->
<g id="edge26_Node000013_Node000007" class="edge">
<title>Node13&#45;&gt;Node7</title>
<g id="a_edge26_Node000013_Node000007"><a xlink:title=" ">
<path fill="none" stroke="#63b8ff" d="M253.14,-154.77C265.19,-125.47 289.37,-78.24 327,-55.25 382.01,-21.65 567.72,-13.33 662.82,-11.28"/>
<polygon fill="#63b8ff" stroke="#63b8ff" points="249.92,-153.39 249.53,-163.98 256.44,-155.95 249.92,-153.39"/>
</a>
</g>
</g>
<!-- Node14&#45;&gt;Node3 -->
<g id="edge28_Node000014_Node000003" class="edge">
<title>Node14&#45;&gt;Node3</title>
<g id="a_edge28_Node000014_Node000003"><a xlink:title=" ">
<path fill="none" stroke="#63b8ff" d="M732.96,-564.4C697.5,-543.68 641,-502.18 641,-448 641,-448 641,-448 641,-379.5 641,-333.4 647.85,-278.49 650.74,-257.37"/>
<polygon fill="#63b8ff" stroke="#63b8ff" points="731.02,-567.33 741.46,-569.18 734.46,-561.22 731.02,-567.33"/>
</a>
</g>
</g>
<!-- Node15 -->
<g id="Node000015" class="node">
<title>Node15</title>
<g id="a_Node000015"><a xlink:href="../../d7/deb/_reporting_8hpp.html" target="_top" xlink:title=" ">
<polygon fill="white" stroke="#666666" points="1111.25,-323.62 994.75,-323.62 994.75,-304.38 1111.25,-304.38 1111.25,-323.62"/>
<text text-anchor="middle" x="1053" y="-310.12" font-family="Helvetica,sans-Serif" font-size="10.00">mimic++/Reporting.hpp</text>
</a>
</g>
</g>
<!-- Node14&#45;&gt;Node15 -->
<g id="edge29_Node000014_Node000015" class="edge">
<title>Node14&#45;&gt;Node15</title>
<g id="a_edge29_Node000014_Node000015"><a xlink:title=" ">
<path fill="none" stroke="#63b8ff" d="M774.16,-561.07C795.95,-532.05 841.73,-473.78 888,-431.75 938.65,-385.74 1007.87,-342.08 1037.99,-323.89"/>
<polygon fill="#63b8ff" stroke="#63b8ff" points="771.55,-558.72 768.4,-568.83 777.17,-562.89 771.55,-558.72"/>
</a>
</g>
</g>
<!-- Node16 -->
<g id="Node000016" class="node">
<title>Node16</title>
<g id="a_Node000016"><a xlink:href="../../d1/dfd/_basic_reporter_8hpp.html" target="_top" xlink:title=" ">
<polygon fill="white" stroke="#666666" points="1258.62,-456.62 1081.38,-456.62 1081.38,-437.38 1258.62,-437.38 1258.62,-456.62"/>
<text text-anchor="middle" x="1170" y="-443.12" font-family="Helvetica,sans-Serif" font-size="10.00">mimic++/reporting/BasicReporter.hpp</text>
</a>
</g>
</g>
<!-- Node14&#45;&gt;Node16 -->
<g id="edge31_Node000014_Node000016" class="edge">
<title>Node14&#45;&gt;Node16</title>
<g id="a_edge31_Node000014_Node000016"><a xlink:title=" ">
<path fill="none" stroke="#63b8ff" d="M800.29,-566.42C882.37,-540.13 1070.33,-479.92 1141.75,-457.05"/>
<polygon fill="#63b8ff" stroke="#63b8ff" points="799.33,-563.05 790.88,-569.43 801.47,-569.71 799.33,-563.05"/>
</a>
</g>
</g>
<!-- Node14&#45;&gt;Node17 -->
<g id="edge33_Node000014_Node000017" class="edge">
<title>Node14&#45;&gt;Node17</title>
<g id="a_edge33_Node000014_Node000017"><a xlink:title=" ">
<path fill="none" stroke="#63b8ff" d="M803.61,-566.3C828.08,-557.86 858.68,-545.27 883,-528.75 910.57,-510.02 936.11,-480.28 950.03,-462.6"/>
<polygon fill="#63b8ff" stroke="#63b8ff" points="802.66,-562.93 794.28,-569.41 804.88,-569.57 802.66,-562.93"/>
</a>
</g>
</g>
<!-- Node18 -->
<g id="Node000018" class="node">
<title>Node18</title>
<g id="a_Node000018"><a xlink:href="../../de/dd1/_global_reporter_8hpp.html" target="_top" xlink:title=" ">
<polygon fill="white" stroke="#666666" points="870.75,-395.75 745.25,-395.75 745.25,-365.25 870.75,-365.25 870.75,-395.75"/>
<text text-anchor="start" x="753.25" y="-382.25" font-family="Helvetica,sans-Serif" font-size="10.00">mimic++/reporting/Global</text>
<text text-anchor="middle" x="808" y="-371" font-family="Helvetica,sans-Serif" font-size="10.00">Reporter.hpp</text>
</a>
</g>
</g>
<!-- Node14&#45;&gt;Node18 -->
<g id="edge46_Node000014_Node000018" class="edge">
<title>Node14&#45;&gt;Node18</title>
<g id="a_edge46_Node000014_Node000018"><a xlink:title=" ">
<path fill="none" stroke="#63b8ff" d="M760.94,-558.74C761.42,-529.82 764.42,-475.39 779,-431.75 783.28,-418.95 791.02,-405.78 797.43,-396.14"/>
<polygon fill="#63b8ff" stroke="#63b8ff" points="757.44,-558.56 760.88,-568.59 764.44,-558.61 757.44,-558.56"/>
</a>
</g>
</g>
<!-- Node21 -->
<g id="Node000021" class="node">
<title>Node21</title>
<g id="a_Node000021"><a xlink:href="../../d9/d70/_stringify_reports_8hpp.html" target="_top" xlink:title=" ">
<polygon fill="white" stroke="#666666" points="1220.5,-528.75 1087.5,-528.75 1087.5,-498.25 1220.5,-498.25 1220.5,-528.75"/>
<text text-anchor="start" x="1095.5" y="-515.25" font-family="Helvetica,sans-Serif" font-size="10.00">mimic++/reporting/Stringify</text>
<text text-anchor="middle" x="1154" y="-504" font-family="Helvetica,sans-Serif" font-size="10.00">Reports.hpp</text>
</a>
</g>
</g>
<!-- Node14&#45;&gt;Node21 -->
<g id="edge47_Node000014_Node000021" class="edge">
<title>Node14&#45;&gt;Node21</title>
<g id="a_edge47_Node000014_Node000021"><a xlink:title=" ">
<path fill="none" stroke="#63b8ff" d="M827.71,-568.05C900.08,-556.17 1014.95,-537.32 1087.31,-525.45"/>
<polygon fill="#63b8ff" stroke="#63b8ff" points="827.27,-564.58 817.97,-569.65 828.4,-571.48 827.27,-564.58"/>
</a>
</g>
</g>
<!-- Node15&#45;&gt;Node7 -->
<g id="edge30_Node000015_Node000007" class="edge">
<title>Node15&#45;&gt;Node7</title>
<g id="a_edge30_Node000015_Node000007"><a xlink:title=" ">
<path fill="none" stroke="#63b8ff" d="M1050.52,-292.97C1047.56,-267.31 1043,-221.42 1043,-182 1043,-182 1043,-182 1043,-119.12 1043,-63.67 869.73,-31.24 777,-17.86"/>
<polygon fill="#63b8ff" stroke="#63b8ff" points="1047.01,-293.11 1051.67,-302.62 1053.96,-292.27 1047.01,-293.11"/>
</a>
</g>
</g>
<!-- Node16&#45;&gt;Node15 -->
<g id="edge32_Node000016_Node000015" class="edge">
<title>Node16&#45;&gt;Node15</title>
<g id="a_edge32_Node000016_Node000015"><a xlink:title=" ">
<path fill="none" stroke="#63b8ff" d="M1154.39,-428.52C1129.17,-400.29 1080.36,-345.63 1061.1,-324.07"/>
<polygon fill="#63b8ff" stroke="#63b8ff" points="1151.68,-430.74 1160.95,-435.87 1156.9,-426.08 1151.68,-430.74"/>
</a>
</g>
</g>
<!-- Node17&#45;&gt;Node15 -->
<g id="edge34_Node000017_Node000015" class="edge">
<title>Node17&#45;&gt;Node15</title>
<g id="a_edge34_Node000017_Node000015"><a xlink:title=" ">
<path fill="none" stroke="#63b8ff" d="M977.63,-422.32C998.28,-392.92 1032.49,-344.2 1046.61,-324.1"/>
<polygon fill="#63b8ff" stroke="#63b8ff" points="974.95,-420.05 972.07,-430.24 980.68,-424.07 974.95,-420.05"/>
</a>
</g>
</g>
<!-- Node17&#45;&gt;Node18 -->
<g id="edge35_Node000017_Node000018" class="edge">
<title>Node17&#45;&gt;Node18</title>
<g id="a_edge35_Node000017_Node000018"><a xlink:title=" ">
<path fill="none" stroke="#63b8ff" d="M915.93,-427C892.58,-417.16 864.51,-405.32 842.85,-396.19"/>
<polygon fill="#63b8ff" stroke="#63b8ff" points="914.31,-430.12 924.89,-430.78 917.03,-423.67 914.31,-430.12"/>
</a>
</g>
</g>
<!-- Node18&#45;&gt;Node3 -->
<g id="edge36_Node000018_Node000003" class="edge">
<title>Node18&#45;&gt;Node3</title>
<g id="a_edge36_Node000018_Node000003"><a xlink:title=" ">
<path fill="none" stroke="#63b8ff" d="M779.78,-357.88C768.53,-349.12 755.55,-338.84 744,-329.25 713.43,-303.86 678.43,-272.48 661.78,-257.4"/>
<polygon fill="#63b8ff" stroke="#63b8ff" points="777.49,-360.54 787.54,-363.89 781.78,-355 777.49,-360.54"/>
</a>
</g>
</g>
<!-- Node18&#45;&gt;Node15 -->
<g id="edge37_Node000018_Node000015" class="edge">
<title>Node18&#45;&gt;Node15</title>
<g id="a_edge37_Node000018_Node000015"><a xlink:title=" ">
<path fill="none" stroke="#63b8ff" d="M874.8,-361.91C921.27,-349.68 981.34,-333.87 1018.51,-324.08"/>
<polygon fill="#63b8ff" stroke="#63b8ff" points="874.14,-358.47 865.36,-364.4 875.93,-365.24 874.14,-358.47"/>
</a>
</g>
</g>
<!-- Node18&#45;&gt;Node19 -->
<g id="edge38_Node000018_Node000019" class="edge">
<title>Node18&#45;&gt;Node19</title>
<g id="a_edge38_Node000018_Node000019"><a xlink:title=" ">
<path fill="none" stroke="#63b8ff" d="M809.61,-353.59C810.26,-343.01 810.98,-331.5 811.45,-323.82"/>
<polygon fill="#63b8ff" stroke="#63b8ff" points="806.13,-353.16 809,-363.35 813.11,-353.59 806.13,-353.16"/>
</a>
</g>
</g>
<!-- Node19&#45;&gt;Node3 -->
<g id="edge39_Node000019_Node000003" class="edge">
<title>Node19&#45;&gt;Node3</title>
<g id="a_edge39_Node000019_Node000003"><a xlink:title=" ">
<path fill="none" stroke="#63b8ff" d="M779.04,-299.71C747.79,-287.12 701.69,-268.53 674.47,-257.56"/>
<polygon fill="#63b8ff" stroke="#63b8ff" points="777.43,-302.84 788.01,-303.33 780.05,-296.34 777.43,-302.84"/>
</a>
</g>
</g>
<!-- Node19&#45;&gt;Node4 -->
<g id="edge40_Node000019_Node000004" class="edge">
<title>Node19&#45;&gt;Node4</title>
<g id="a_edge40_Node000019_Node000004"><a xlink:title=" ">
<path fill="none" stroke="#63b8ff" d="M795.82,-295.93C778.9,-278.64 751.09,-251.74 724,-232.25 700.7,-215.5 671.24,-200.17 652.26,-190.96"/>
<polygon fill="#63b8ff" stroke="#63b8ff" points="793.1,-298.15 802.56,-302.91 798.13,-293.29 793.1,-298.15"/>
</a>
</g>
</g>
<!-- Node19&#45;&gt;Node7 -->
<g id="edge42_Node000019_Node000007" class="edge">
<title>Node19&#45;&gt;Node7</title>
<g id="a_edge42_Node000019_Node000007"><a xlink:title=" ">
<path fill="none" stroke="#63b8ff" d="M822.03,-293.84C834.16,-268.83 853,-223.35 853,-182 853,-182 853,-182 853,-119.12 853,-65.78 787.98,-33.99 748.86,-19.69"/>
<polygon fill="#63b8ff" stroke="#63b8ff" points="818.92,-292.23 817.55,-302.74 825.17,-295.38 818.92,-292.23"/>
</a>
</g>
</g>
<!-- Node19&#45;&gt;Node9 -->
<g id="edge41_Node000019_Node000009" class="edge">
<title>Node19&#45;&gt;Node9</title>
<g id="a_edge41_Node000019_Node000009"><a xlink:title=" ">
<path fill="none" stroke="#63b8ff" d="M802.41,-293.91C788.19,-265.73 760.56,-211.4 736,-165.75 729.27,-153.24 721.19,-138.93 716.07,-129.97"/>
<polygon fill="#63b8ff" stroke="#63b8ff" points="799.18,-295.27 806.8,-302.63 805.43,-292.12 799.18,-295.27"/>
</a>
</g>
</g>
<!-- Node20 -->
<g id="Node000020" class="node">
<title>Node20</title>
<g id="a_Node000020"><a xlink:href="../../db/d70/_control_policies_8hpp.html" target="_top" xlink:title=" ">
<polygon fill="white" stroke="#666666" points="1005,-262.75 881,-262.75 881,-232.25 1005,-232.25 1005,-262.75"/>
<text text-anchor="start" x="889" y="-249.25" font-family="Helvetica,sans-Serif" font-size="10.00">mimic++/policies/Control</text>
<text text-anchor="middle" x="943" y="-238" font-family="Helvetica,sans-Serif" font-size="10.00">Policies.hpp</text>
</a>
</g>
</g>
<!-- Node19&#45;&gt;Node20 -->
<g id="edge43_Node000019_Node000020" class="edge">
<title>Node19&#45;&gt;Node20</title>
<g id="a_edge43_Node000019_Node000020"><a xlink:title=" ">
<path fill="none" stroke="#63b8ff" d="M840.68,-298.88C862.25,-288.26 891.72,-273.75 913.5,-263.03"/>
<polygon fill="#63b8ff" stroke="#63b8ff" points="839.27,-295.67 831.85,-303.23 842.37,-301.95 839.27,-295.67"/>
</a>
</g>
</g>
<!-- Node20&#45;&gt;Node4 -->
<g id="edge44_Node000020_Node000004" class="edge">
<title>Node20&#45;&gt;Node4</title>
<g id="a_edge44_Node000020_Node000004"><a xlink:title=" ">
<path fill="none" stroke="#63b8ff" d="M869.72,-231.25C809.73,-218.77 726.87,-201.53 676.77,-191.11"/>
<polygon fill="#63b8ff" stroke="#63b8ff" points="868.65,-234.61 879.16,-233.22 870.08,-227.75 868.65,-234.61"/>
</a>
</g>
</g>
<!-- Node20&#45;&gt;Node7 -->
<g id="edge45_Node000020_Node000007" class="edge">
<title>Node20&#45;&gt;Node7</title>
<g id="a_edge45_Node000020_Node000007"><a xlink:title=" ">
<path fill="none" stroke="#63b8ff" d="M939.91,-220.73C933.64,-179.79 915.6,-99.95 867,-55.25 842.56,-32.77 807.12,-21.6 777.17,-16.06"/>
<polygon fill="#63b8ff" stroke="#63b8ff" points="936.41,-220.96 941.26,-230.38 943.34,-219.99 936.41,-220.96"/>
</a>
</g>
</g>
<!-- Node21&#45;&gt;Node15 -->
<g id="edge48_Node000021_Node000015" class="edge">
<title>Node21&#45;&gt;Node15</title>
<g id="a_edge48_Node000021_Node000015"><a xlink:title=" ">
<path fill="none" stroke="#63b8ff" d="M1105.6,-492.44C1092.74,-484.83 1080.17,-474.87 1072,-462.25 1042.86,-417.25 1048.53,-348.17 1051.68,-323.84"/>
<polygon fill="#63b8ff" stroke="#63b8ff" points="1103.64,-495.36 1114.1,-497.08 1107,-489.21 1103.64,-495.36"/>
</a>
</g>
</g>
<!-- Node21&#45;&gt;Node16 -->
<g id="edge49_Node000021_Node000016" class="edge">
<title>Node21&#45;&gt;Node16</title>
<g id="a_edge49_Node000021_Node000016"><a xlink:title=" ">
<path fill="none" stroke="#63b8ff" d="M1160.34,-486.93C1162.99,-476.26 1165.89,-464.58 1167.81,-456.82"/>
<polygon fill="#63b8ff" stroke="#63b8ff" points="1157.01,-485.85 1158,-496.39 1163.8,-487.53 1157.01,-485.85"/>
</a>
</g>
</g>
<!-- Node21&#45;&gt;Node17 -->
<g id="edge50_Node000021_Node000017" class="edge">
<title>Node21&#45;&gt;Node17</title>
<g id="a_edge50_Node000021_Node000017"><a xlink:title=" ">
<path fill="none" stroke="#63b8ff" d="M1099.52,-494.29C1069.61,-484.3 1033.02,-472.07 1004.96,-462.69"/>
<polygon fill="#63b8ff" stroke="#63b8ff" points="1098.18,-497.53 1108.77,-497.38 1100.39,-490.89 1098.18,-497.53"/>
</a>
</g>
</g>
<!-- Node22&#45;&gt;Node7 -->
<g id="edge52_Node000022_Node000007" class="edge">
<title>Node22&#45;&gt;Node7</title>
<g id="a_edge52_Node000022_Node000007"><a xlink:title=" ">
<path fill="none" stroke="#63b8ff" d="M1526.97,-493.34C1514.84,-468.33 1496,-422.85 1496,-381.5 1496,-381.5 1496,-381.5 1496,-119.12 1496,-46.52 956.27,-19.55 777.06,-12.6"/>
<polygon fill="#63b8ff" stroke="#63b8ff" points="1523.83,-494.88 1531.45,-502.24 1530.08,-491.73 1523.83,-494.88"/>
</a>
</g>
</g>
<!-- Node23&#45;&gt;Node7 -->
<g id="edge58_Node000023_Node000007" class="edge">
<title>Node23&#45;&gt;Node7</title>
<g id="a_edge58_Node000023_Node000007"><a xlink:title=" ">
<path fill="none" stroke="#63b8ff" d="M1605.97,-360.34C1593.84,-335.33 1575,-289.85 1575,-248.5 1575,-248.5 1575,-248.5 1575,-119.12 1575,-78.62 1547.04,-71.64 1510,-55.25 1443.54,-25.84 947.1,-14.56 776.99,-11.53"/>
<polygon fill="#63b8ff" stroke="#63b8ff" points="1602.83,-361.88 1610.45,-369.24 1609.08,-358.73 1602.83,-361.88"/>
</a>
</g>
</g>
<!-- Node24&#45;&gt;Node3 -->
<g id="edge62_Node000024_Node000003" class="edge">
<title>Node24&#45;&gt;Node3</title>
<g id="a_edge62_Node000024_Node000003"><a xlink:title=" ">
<path fill="none" stroke="#63b8ff" d="M967.86,-628.52C939.72,-620.81 908.98,-610.02 883,-595.25 865.64,-585.38 865.47,-577.39 850,-564.75 828.79,-547.42 817.98,-549.4 800,-528.75 719.79,-436.62 667.4,-293.53 654.89,-257.14"/>
<polygon fill="#63b8ff" stroke="#63b8ff" points="966.88,-631.88 977.45,-631.04 968.67,-625.11 966.88,-631.88"/>
</a>
</g>
</g>
<!-- Node24&#45;&gt;Node15 -->
<g id="edge63_Node000024_Node000015" class="edge">
<title>Node24&#45;&gt;Node15</title>
<g id="a_edge63_Node000024_Node000015"><a xlink:title=" ">
<path fill="none" stroke="#63b8ff" d="M1138.51,-644.45C1230.27,-638.25 1363,-612.37 1363,-514.5 1363,-514.5 1363,-514.5 1363,-446 1363,-338.06 1201.55,-317.69 1111.67,-314.71"/>
<polygon fill="#63b8ff" stroke="#63b8ff" points="1138.54,-640.94 1128.76,-645.03 1138.96,-647.93 1138.54,-640.94"/>
</a>
</g>
</g>
<!-- Node24&#45;&gt;Node16 -->
<g id="edge65_Node000024_Node000016" class="edge">
<title>Node24&#45;&gt;Node16</title>
<g id="a_edge65_Node000024_Node000016"><a xlink:title=" ">
<path fill="none" stroke="#63b8ff" d="M1138.38,-641.07C1172.65,-634.89 1209.71,-621.89 1234,-595.25 1263.27,-563.15 1266.57,-536.51 1246,-498.25 1235.29,-478.33 1212.83,-464.98 1195.09,-457.08"/>
<polygon fill="#63b8ff" stroke="#63b8ff" points="1138.18,-637.55 1128.86,-642.6 1139.29,-644.47 1138.18,-637.55"/>
</a>
</g>
</g>
<!-- Node24&#45;&gt;Node17 -->
<g id="edge66_Node000024_Node000017" class="edge">
<title>Node24&#45;&gt;Node17</title>
<g id="a_edge66_Node000024_Node000017"><a xlink:title=" ">
<path fill="none" stroke="#63b8ff" d="M1041.4,-620.6C1021.95,-578.85 983.37,-496.02 967.77,-462.54"/>
<polygon fill="#63b8ff" stroke="#63b8ff" points="1038.2,-622.02 1045.6,-629.61 1044.55,-619.06 1038.2,-622.02"/>
</a>
</g>
</g>
<!-- Node24&#45;&gt;Node18 -->
<g id="edge67_Node000024_Node000018" class="edge">
<title>Node24&#45;&gt;Node18</title>
<g id="a_edge67_Node000024_Node000018"><a xlink:title=" ">
<path fill="none" stroke="#63b8ff" d="M1012.46,-626.08C945.78,-594.06 819.97,-533.22 817,-528.75 789.51,-487.36 798.52,-424.14 804.49,-395.94"/>
<polygon fill="#63b8ff" stroke="#63b8ff" points="1010.73,-629.14 1021.26,-630.31 1013.76,-622.83 1010.73,-629.14"/>
</a>
</g>
</g>
<!-- Node24&#45;&gt;Node20 -->
<g id="edge64_Node000024_Node000020" class="edge">
<title>Node24&#45;&gt;Node20</title>
<g id="a_edge64_Node000024_Node000020"><a xlink:title=" ">
<path fill="none" stroke="#63b8ff" d="M1023.2,-624.04C983.5,-593.39 915.13,-532.92 888,-462.25 860.19,-389.81 910.79,-298.23 933.15,-263.11"/>
<polygon fill="#63b8ff" stroke="#63b8ff" points="1020.87,-626.66 1030.95,-629.91 1025.09,-621.08 1020.87,-626.66"/>
</a>
</g>
</g>
<!-- Node24&#45;&gt;Node21 -->
<g id="edge73_Node000024_Node000021" class="edge">
<title>Node24&#45;&gt;Node21</title>
<g id="a_edge73_Node000024_Node000021"><a xlink:title=" ">
<path fill="none" stroke="#63b8ff" d="M1056.38,-619.73C1059.65,-602.77 1065.96,-580.81 1078,-564.75 1089.39,-549.56 1106.8,-537.57 1122.08,-529.12"/>
<polygon fill="#63b8ff" stroke="#63b8ff" points="1052.93,-619.11 1054.75,-629.55 1059.84,-620.26 1052.93,-619.11"/>
</a>
</g>
</g>
<!-- Node25 -->
<g id="Node000025" class="node">
<title>Node25</title>
<g id="a_Node000025"><a xlink:href="../../de/d3f/_no_match_report_8hpp.html" target="_top" xlink:title=" ">
<polygon fill="white" stroke="#666666" points="1224.75,-595.25 1087.25,-595.25 1087.25,-564.75 1224.75,-564.75 1224.75,-595.25"/>
<text text-anchor="start" x="1095.25" y="-581.75" font-family="Helvetica,sans-Serif" font-size="10.00">mimic++/reporting/NoMatch</text>
<text text-anchor="middle" x="1156" y="-570.5" font-family="Helvetica,sans-Serif" font-size="10.00">Report.hpp</text>
</a>
</g>
</g>
<!-- Node24&#45;&gt;Node25 -->
<g id="edge68_Node000024_Node000025" class="edge">
<title>Node24&#45;&gt;Node25</title>
<g id="a_edge68_Node000024_Node000025"><a xlink:title=" ">
<path fill="none" stroke="#63b8ff" d="M1085.95,-624.86C1101.18,-615.33 1118.91,-604.23 1132.72,-595.58"/>
<polygon fill="#63b8ff" stroke="#63b8ff" points="1084.27,-621.79 1077.66,-630.06 1087.99,-627.72 1084.27,-621.79"/>
</a>
</g>
</g>
<!-- Node25&#45;&gt;Node15 -->
<g id="edge69_Node000025_Node000015" class="edge">
<title>Node25&#45;&gt;Node15</title>
<g id="a_edge69_Node000025_Node000015"><a xlink:title=" ">
<path fill="none" stroke="#63b8ff" d="M1206.28,-559.34C1220.74,-551.64 1235.44,-541.53 1246,-528.75 1274.16,-494.67 1290.6,-469.74 1268,-431.75 1230.54,-368.78 1145.94,-337.66 1094.74,-324.06"/>
<polygon fill="#63b8ff" stroke="#63b8ff" points="1205.1,-556.01 1197.71,-563.61 1208.22,-562.28 1205.1,-556.01"/>
</a>
</g>
</g>
<!-- Node25&#45;&gt;Node16 -->
<g id="edge70_Node000025_Node000016" class="edge">
<title>Node25&#45;&gt;Node16</title>
<g id="a_edge70_Node000025_Node000016"><a xlink:title=" ">
<path fill="none" stroke="#63b8ff" d="M1200.8,-558.55C1212.41,-550.94 1223.47,-541.08 1230,-528.75 1236.35,-516.77 1235.73,-510.53 1230,-498.25 1221.32,-479.66 1202.01,-465.52 1187.62,-457.04"/>
<polygon fill="#63b8ff" stroke="#63b8ff" points="1199.09,-555.5 1192.31,-563.64 1202.68,-561.51 1199.09,-555.5"/>
</a>
</g>
</g>
<!-- Node25&#45;&gt;Node17 -->
<g id="edge71_Node000025_Node000017" class="edge">
<title>Node25&#45;&gt;Node17</title>
<g id="a_edge71_Node000025_Node000017"><a xlink:title=" ">
<path fill="none" stroke="#63b8ff" d="M1123.74,-558.23C1109.91,-549.25 1093.6,-538.57 1079,-528.75 1059.26,-515.47 1054.62,-511.71 1035,-498.25 1017.46,-486.21 997.5,-472.67 982.73,-462.68"/>
<polygon fill="#63b8ff" stroke="#63b8ff" points="1121.75,-561.11 1132.05,-563.61 1125.55,-555.24 1121.75,-561.11"/>
</a>
</g>
</g>
<!-- Node25&#45;&gt;Node21 -->
<g id="edge72_Node000025_Node000021" class="edge">
<title>Node25&#45;&gt;Node21</title>
<g id="a_edge72_Node000025_Node000021"><a xlink:title=" ">
<path fill="none" stroke="#63b8ff" d="M1155.2,-553.06C1154.94,-544.89 1154.67,-536.16 1154.45,-529.08"/>
<polygon fill="#63b8ff" stroke="#63b8ff" points="1151.69,-552.96 1155.5,-562.85 1158.69,-552.75 1151.69,-552.96"/>
</a>
</g>
</g>
<!-- Node26&#45;&gt;Node15 -->
<g id="edge75_Node000026_Node000015" class="edge">
<title>Node26&#45;&gt;Node15</title>
<g id="a_edge75_Node000026_Node000015"><a xlink:title=" ">
<path fill="none" stroke="#63b8ff" d="M1329.85,-690.65C1360.1,-667.54 1401,-627.67 1401,-581 1401,-581 1401,-581 1401,-446 1401,-403.55 1385.33,-388.78 1350,-365.25 1311.86,-339.85 1186.75,-325.68 1111.62,-319.26"/>
<polygon fill="#63b8ff" stroke="#63b8ff" points="1328.05,-687.62 1322.08,-696.37 1332.2,-693.26 1328.05,-687.62"/>
</a>
</g>
</g>
<!-- Node26&#45;&gt;Node20 -->
<g id="edge76_Node000026_Node000020" class="edge">
<title>Node26&#45;&gt;Node20</title>
<g id="a_edge76_Node000026_Node000020"><a xlink:title=" ">
<path fill="none" stroke="#63b8ff" d="M1344.09,-692.36C1385.22,-671.37 1439,-633.83 1439,-581 1439,-581 1439,-581 1439,-379.5 1439,-290.77 1138.53,-260.8 1005.32,-251.88"/>
<polygon fill="#63b8ff" stroke="#63b8ff" points="1342.74,-689.12 1335.3,-696.67 1345.82,-695.4 1342.74,-689.12"/>
</a>
</g>
</g>
<!-- Node26&#45;&gt;Node24 -->
<g id="edge77_Node000026_Node000024" class="edge">
<title>Node26&#45;&gt;Node24</title>
<g id="a_edge77_Node000026_Node000024"><a xlink:title=" ">
<path fill="none" stroke="#63b8ff" d="M1231.02,-694.37C1192.62,-684.26 1144.99,-671.72 1108.66,-662.15"/>
<polygon fill="#63b8ff" stroke="#63b8ff" points="1230.07,-697.74 1240.64,-696.9 1231.86,-690.97 1230.07,-697.74"/>
</a>
</g>
</g>
</g>
</svg>
