<?xml version="1.0" encoding="UTF-8" standalone="no"?>
<!DOCTYPE svg PUBLIC "-//W3C//DTD SVG 1.1//EN"
 "http://www.w3.org/Graphics/SVG/1.1/DTD/svg11.dtd">
<!-- Generated by graphviz version 12.1.2 (20240928.0832)
 -->
<!-- Title: mimicpp::string_traits&lt; T &gt; Pages: 1 -->
<svg width="226pt" height="128pt"
 viewBox="0.00 0.00 225.58 127.50" xmlns="http://www.w3.org/2000/svg" xmlns:xlink="http://www.w3.org/1999/xlink">

<svg id="main" version="1.1" xmlns="http://www.w3.org/2000/svg" xmlns:xlink="http://www.w3.org/1999/xlink" xml:space="preserve">

<style type="text/css"><![CDATA[
.node, .edge {opacity: 0.7;}
.node.selected, .edge.selected {opacity: 1;}
.edge:hover path { stroke: red; }
.edge:hover polygon { stroke: red; fill: red; }
]]></style>
<script type="application/ecmascript" xlink:href="../../svg.min.js"/>
<svg id="graph" class="graph">
<g id="graph0" class="graph" transform="scale(1 1) rotate(0) translate(4 123.5)">
<title>mimicpp::string_traits&lt; T &gt;</title>
<!-- Node1 -->
<g id="Node000001" class="node">
<title>Node1</title>
<g id="a_Node000001"><a xlink:title=" ">
<polygon fill="#999999" stroke="#666666" points="185.32,-119.5 54.57,-119.5 54.57,-100.25 185.32,-100.25 185.32,-119.5"/>
<text text-anchor="middle" x="119.94" y="-106" font-family="Helvetica,sans-Serif" font-size="10.00">mimicpp::string_traits&lt; T &gt;</text>
</a>
</g>
</g>
<!-- Node2 -->
<g id="Node000002" class="node">
<title>Node2</title>
<g id="a_Node000002"><a xlink:href="../../d1/dee/structmimicpp_1_1string__traits.html" target="_top" xlink:title=" ">
<polygon fill="white" stroke="#666666" points="177.07,-41.75 62.82,-41.75 62.82,0 177.07,0 177.07,-41.75"/>
<text text-anchor="start" x="70.82" y="-28.25" font-family="Helvetica,sans-Serif" font-size="10.00">mimicpp::string_traits</text>
<text text-anchor="start" x="70.82" y="-17" font-family="Helvetica,sans-Serif" font-size="10.00">&lt; std::remove_extent_t</text>
<text text-anchor="middle" x="119.94" y="-5.75" font-family="Helvetica,sans-Serif" font-size="10.00">&lt; T &gt; * &gt;</text>
</a>
</g>
</g>
<!-- Node1&#45;&gt;Node2 -->
<g id="edge2_Node000002_Node000001" class="edge">
<title>Node1&#45;&gt;Node2</title>
<g id="a_edge2_Node000002_Node000001"><a xlink:title=" ">
<path fill="none" stroke="orange" stroke-dasharray="5,2" d="M43.23,-98.39C26,-94.43 11.17,-89.15 5.69,-82.25 -14.46,-56.86 24.54,-40.9 62.33,-31.81"/>
<polygon fill="orange" stroke="orange" points="42.23,-101.76 52.73,-100.38 43.66,-94.91 42.23,-101.76"/>
</a>
</g>
<text text-anchor="start" x="5.69" y="-72.75" font-family="Helvetica,sans-Serif" font-size="10.00" fill="grey"> &lt; std::remove_extent</text>
<text text-anchor="middle" x="51.82" y="-61.5" font-family="Helvetica,sans-Serif" font-size="10.00" fill="grey">_t&lt; T &gt; * &gt;</text>
</g>
<!-- Node1&#45;&gt;Node2 -->
<g id="edge3_Node000001_Node000002" class="edge">
<title>Node1&#45;&gt;Node2</title>
<g id="a_edge3_Node000001_Node000002"><a xlink:title=" ">
<path fill="none" stroke="orange" stroke-dasharray="5,2" d="M117.23,-88.84C117.01,-86.62 116.82,-84.39 116.69,-82.25 115.88,-68.84 116.69,-53.74 117.7,-42"/>
<polygon fill="orange" stroke="orange" points="113.73,-89.02 118.41,-98.52 120.68,-88.17 113.73,-89.02"/>
</a>
</g>
<text text-anchor="start" x="116.69" y="-72.75" font-family="Helvetica,sans-Serif" font-size="10.00" fill="grey"> &lt; std::remove_extent</text>
<text text-anchor="middle" x="162.82" y="-61.5" font-family="Helvetica,sans-Serif" font-size="10.00" fill="grey">_t&lt; T &gt; * &gt;</text>
</g>
<!-- Node2&#45;&gt;Node1 -->
<g id="edge1_Node000001_Node000002" class="edge">
<title>Node2&#45;&gt;Node1</title>
<g id="a_edge1_Node000001_Node000002"><a xlink:title=" ">
<path fill="none" stroke="#63b8ff" d="M188.03,-41.62C210.03,-51.57 225.8,-65.19 212.94,-82.25 206.07,-91.37 196.28,-97.52 185.62,-101.64"/>
<polygon fill="#63b8ff" stroke="#63b8ff" points="189.54,-38.46 178.97,-37.88 186.88,-44.93 189.54,-38.46"/>
</a>
</g>
</g>
</g>
</svg>
</svg>

<style type='text/css'>
<![CDATA[
[data-mouse-over-selected='false'] { opacity: 0.7; }
[data-mouse-over-selected='true']  { opacity: 1.0; }
]]>
</style>
<script type="application/ecmascript"><![CDATA[
document.addEventListener('DOMContentLoaded', (event) => {
  highlightEdges();
  highlightAdjacentNodes();
});
]]></script>
</svg>
