<?xml version="1.0" encoding="UTF-8" standalone="no"?>
<!DOCTYPE svg PUBLIC "-//W3C//DTD SVG 1.1//EN"
 "http://www.w3.org/Graphics/SVG/1.1/DTD/svg11.dtd">
<!-- Generated by graphviz version 12.2.1 (20241206.2353)
 -->
<!-- Title: mimic++/reporting/TargetReport.hpp Pages: 1 -->
<svg width="1107pt" height="803pt"
 viewBox="0.00 0.00 1107.25 802.75" xmlns="http://www.w3.org/2000/svg" xmlns:xlink="http://www.w3.org/1999/xlink">
<g id="graph0" class="graph" transform="scale(1 1) rotate(0) translate(4 798.75)">
<title>mimic++/reporting/TargetReport.hpp</title>
<!-- Node1 -->
<g id="Node000001" class="node">
<title>Node1</title>
<g id="a_Node000001"><a xlink:title=" ">
<polygon fill="#999999" stroke="#666666" points="377,-794.75 251.5,-794.75 251.5,-764.25 377,-764.25 377,-794.75"/>
<text text-anchor="start" x="259.5" y="-781.25" font-family="Helvetica,sans-Serif" font-size="10.00">mimic++/reporting/Target</text>
<text text-anchor="middle" x="314.25" y="-770" font-family="Helvetica,sans-Serif" font-size="10.00">Report.hpp</text>
</a>
</g>
</g>
<!-- Node2 -->
<g id="Node000002" class="node">
<title>Node2</title>
<g id="a_Node000002"><a xlink:href="../../d7/ded/_call_convention_8hpp.html" target="_top" xlink:title=" ">
<polygon fill="white" stroke="#666666" points="140.5,-589.62 0,-589.62 0,-570.38 140.5,-570.38 140.5,-589.62"/>
<text text-anchor="middle" x="70.25" y="-576.12" font-family="Helvetica,sans-Serif" font-size="10.00">mimic++/CallConvention.hpp</text>
</a>
</g>
</g>
<!-- Node1&#45;&gt;Node2 -->
<g id="edge1_Node000001_Node000002" class="edge">
<title>Node1&#45;&gt;Node2</title>
<g id="a_edge1_Node000001_Node000002"><a xlink:title=" ">
<path fill="none" stroke="#63b8ff" d="M240.35,-767.36C211.14,-760.05 178.77,-748.01 154.25,-728.25 106.13,-689.47 80.43,-615.23 72.75,-589.8"/>
<polygon fill="#63b8ff" stroke="#63b8ff" points="239.35,-770.72 249.89,-769.59 240.95,-763.9 239.35,-770.72"/>
</a>
</g>
</g>
<!-- Node4 -->
<g id="Node000004" class="node">
<title>Node4</title>
<g id="a_Node000004"><a xlink:href="../../d5/dc5/_mock_8hpp.html" target="_top" xlink:title=" ">
<polygon fill="white" stroke="#666666" points="877.88,-129.75 778.62,-129.75 778.62,-110.5 877.88,-110.5 877.88,-129.75"/>
<text text-anchor="middle" x="828.25" y="-116.25" font-family="Helvetica,sans-Serif" font-size="10.00">mimic++/Mock.hpp</text>
</a>
</g>
</g>
<!-- Node1&#45;&gt;Node4 -->
<g id="edge3_Node000001_Node000004" class="edge">
<title>Node1&#45;&gt;Node4</title>
<g id="a_edge3_Node000001_Node000004"><a xlink:title=" ">
<path fill="none" stroke="#63b8ff" d="M388.82,-773.85C584.77,-760.62 1099.25,-719.09 1099.25,-647.5 1099.25,-647.5 1099.25,-647.5 1099.25,-246.5 1099.25,-150.21 956.58,-127.65 878.27,-122.51"/>
<polygon fill="#63b8ff" stroke="#63b8ff" points="388.75,-770.34 379,-774.5 389.21,-777.33 388.75,-770.34"/>
</a>
</g>
</g>
<!-- Node7 -->
<g id="Node000007" class="node">
<title>Node7</title>
<g id="a_Node000007"><a xlink:href="../../d7/deb/_reporting_8hpp.html" target="_top" xlink:title=" ">
<polygon fill="white" stroke="#666666" points="484.5,-390.12 368,-390.12 368,-370.88 484.5,-370.88 484.5,-390.12"/>
<text text-anchor="middle" x="426.25" y="-376.62" font-family="Helvetica,sans-Serif" font-size="10.00">mimic++/Reporting.hpp</text>
</a>
</g>
</g>
<!-- Node1&#45;&gt;Node7 -->
<g id="edge9_Node000001_Node000007" class="edge">
<title>Node1&#45;&gt;Node7</title>
<g id="a_edge9_Node000001_Node000007"><a xlink:title=" ">
<path fill="none" stroke="#63b8ff" d="M266.05,-759.07C223.52,-738.37 168.25,-701.14 168.25,-647.5 168.25,-647.5 168.25,-647.5 168.25,-512.5 168.25,-423.58 291.58,-395 367.71,-385.82"/>
<polygon fill="#63b8ff" stroke="#63b8ff" points="264.36,-762.14 274.9,-763.21 267.33,-755.8 264.36,-762.14"/>
</a>
</g>
</g>
<!-- Node8 -->
<g id="Node000008" class="node">
<title>Node8</title>
<g id="a_Node000008"><a xlink:href="../../d9/d6c/_call_report_8hpp.html" target="_top" xlink:title=" ">
<polygon fill="white" stroke="#666666" points="394.62,-656.12 233.88,-656.12 233.88,-636.88 394.62,-636.88 394.62,-656.12"/>
<text text-anchor="middle" x="314.25" y="-642.62" font-family="Helvetica,sans-Serif" font-size="10.00">mimic++/reporting/CallReport.hpp</text>
</a>
</g>
</g>
<!-- Node1&#45;&gt;Node8 -->
<g id="edge11_Node000001_Node000008" class="edge">
<title>Node1&#45;&gt;Node8</title>
<g id="a_edge11_Node000001_Node000008"><a xlink:title=" ">
<path fill="none" stroke="#63b8ff" d="M314.25,-752.48C314.25,-722.9 314.25,-676.18 314.25,-656.6"/>
<polygon fill="#63b8ff" stroke="#63b8ff" points="310.75,-752.47 314.25,-762.47 317.75,-752.47 310.75,-752.47"/>
</a>
</g>
</g>
<!-- Node19 -->
<g id="Node000019" class="node">
<title>Node19</title>
<g id="a_Node000019"><a xlink:href="../../dd/d76/_expectation_report_8hpp.html" target="_top" xlink:title=" ">
<polygon fill="white" stroke="#666666" points="757.25,-728.25 609.25,-728.25 609.25,-697.75 757.25,-697.75 757.25,-728.25"/>
<text text-anchor="start" x="617.25" y="-714.75" font-family="Helvetica,sans-Serif" font-size="10.00">mimic++/reporting/Expectation</text>
<text text-anchor="middle" x="683.25" y="-703.5" font-family="Helvetica,sans-Serif" font-size="10.00">Report.hpp</text>
</a>
</g>
</g>
<!-- Node1&#45;&gt;Node19 -->
<g id="edge42_Node000001_Node000019" class="edge">
<title>Node1&#45;&gt;Node19</title>
<g id="a_edge42_Node000001_Node000019"><a xlink:title=" ">
<path fill="none" stroke="#63b8ff" d="M388.5,-765.52C452.67,-754.31 544.91,-738.18 609.06,-726.97"/>
<polygon fill="#63b8ff" stroke="#63b8ff" points="388,-762.06 378.76,-767.22 389.21,-768.95 388,-762.06"/>
</a>
</g>
</g>
<!-- Node3 -->
<g id="Node000003" class="node">
<title>Node3</title>
<g id="a_Node000003"><a xlink:href="../../d0/db9/mimic_09_09_8hpp.html" target="_top" xlink:title=" ">
<polygon fill="white" stroke="#666666" points="742,-19.25 628.5,-19.25 628.5,0 742,0 742,-19.25"/>
<text text-anchor="middle" x="685.25" y="-5.75" font-family="Helvetica,sans-Serif" font-size="10.00">mimic++/mimic++.hpp</text>
</a>
</g>
</g>
<!-- Node2&#45;&gt;Node3 -->
<g id="edge2_Node000002_Node000003" class="edge">
<title>Node2&#45;&gt;Node3</title>
<g id="a_edge2_Node000002_Node000003"><a xlink:title=" ">
<path fill="none" stroke="#63b8ff" d="M77.71,-559.23C86.59,-533.86 100.25,-488.3 100.25,-448 100.25,-448 100.25,-448 100.25,-119.12 100.25,-65.8 480.89,-27.91 628.09,-15.24"/>
<polygon fill="#63b8ff" stroke="#63b8ff" points="74.45,-557.94 74.33,-568.53 81.03,-560.33 74.45,-557.94"/>
</a>
</g>
</g>
<!-- Node4&#45;&gt;Node3 -->
<g id="edge8_Node000004_Node000003" class="edge">
<title>Node4&#45;&gt;Node3</title>
<g id="a_edge8_Node000004_Node000003"><a xlink:title=" ">
<path fill="none" stroke="#63b8ff" d="M813.13,-101.63C800.82,-88 782.54,-69.13 764.25,-55.25 745.3,-40.87 721.22,-27.93 704.66,-19.73"/>
<polygon fill="#63b8ff" stroke="#63b8ff" points="810.38,-103.79 819.62,-108.96 815.62,-99.16 810.38,-103.79"/>
</a>
</g>
</g>
<!-- Node5 -->
<g id="Node000005" class="node">
<title>Node5</title>
<g id="a_Node000005"><a xlink:href="../../d6/dc3/_facade_8hpp.html" target="_top" xlink:title=" ">
<polygon fill="white" stroke="#666666" points="919,-74.5 811.5,-74.5 811.5,-55.25 919,-55.25 919,-74.5"/>
<text text-anchor="middle" x="865.25" y="-61" font-family="Helvetica,sans-Serif" font-size="10.00">mimic++/Facade.hpp</text>
</a>
</g>
</g>
<!-- Node4&#45;&gt;Node5 -->
<g id="edge4_Node000004_Node000005" class="edge">
<title>Node4&#45;&gt;Node5</title>
<g id="a_edge4_Node000004_Node000005"><a xlink:title=" ">
<path fill="none" stroke="#63b8ff" d="M840.91,-100.9C847.02,-92.11 854.07,-81.96 859.01,-74.86"/>
<polygon fill="#63b8ff" stroke="#63b8ff" points="838.06,-98.88 835.22,-109.09 843.8,-102.87 838.06,-98.88"/>
</a>
</g>
</g>
<!-- Node6 -->
<g id="Node000006" class="node">
<title>Node6</title>
<g id="a_Node000006"><a xlink:href="../../d5/d92/_object_watcher_8hpp.html" target="_top" xlink:title=" ">
<polygon fill="white" stroke="#666666" points="755.12,-74.5 615.38,-74.5 615.38,-55.25 755.12,-55.25 755.12,-74.5"/>
<text text-anchor="middle" x="685.25" y="-61" font-family="Helvetica,sans-Serif" font-size="10.00">mimic++/ObjectWatcher.hpp</text>
</a>
</g>
</g>
<!-- Node4&#45;&gt;Node6 -->
<g id="edge6_Node000004_Node000006" class="edge">
<title>Node4&#45;&gt;Node6</title>
<g id="a_edge6_Node000004_Node000006"><a xlink:title=" ">
<path fill="none" stroke="#63b8ff" d="M793.47,-106.17C767.5,-96.5 732.68,-83.54 709.63,-74.95"/>
<polygon fill="#63b8ff" stroke="#63b8ff" points="791.98,-109.35 802.57,-109.56 794.42,-102.79 791.98,-109.35"/>
</a>
</g>
</g>
<!-- Node5&#45;&gt;Node3 -->
<g id="edge5_Node000005_Node000003" class="edge">
<title>Node5&#45;&gt;Node3</title>
<g id="a_edge5_Node000005_Node000003"><a xlink:title=" ">
<path fill="none" stroke="#63b8ff" d="M824.07,-51.69C791.15,-41.95 745.72,-28.52 715.93,-19.7"/>
<polygon fill="#63b8ff" stroke="#63b8ff" points="822.68,-54.93 833.26,-54.41 824.67,-48.22 822.68,-54.93"/>
</a>
</g>
</g>
<!-- Node6&#45;&gt;Node3 -->
<g id="edge7_Node000006_Node000003" class="edge">
<title>Node6&#45;&gt;Node3</title>
<g id="a_edge7_Node000006_Node000003"><a xlink:title=" ">
<path fill="none" stroke="#63b8ff" d="M685.25,-43.63C685.25,-35.34 685.25,-26.17 685.25,-19.61"/>
<polygon fill="#63b8ff" stroke="#63b8ff" points="681.75,-43.57 685.25,-53.57 688.75,-43.57 681.75,-43.57"/>
</a>
</g>
</g>
<!-- Node7&#45;&gt;Node3 -->
<g id="edge10_Node000007_Node000003" class="edge">
<title>Node7&#45;&gt;Node3</title>
<g id="a_edge10_Node000007_Node000003"><a xlink:title=" ">
<path fill="none" stroke="#63b8ff" d="M426.25,-359.44C426.25,-333.73 426.25,-287.8 426.25,-248.5 426.25,-248.5 426.25,-248.5 426.25,-119.12 426.25,-32.23 551.82,-13.74 628.09,-10.52"/>
<polygon fill="#63b8ff" stroke="#63b8ff" points="422.75,-359.09 426.25,-369.09 429.75,-359.09 422.75,-359.09"/>
</a>
</g>
</g>
<!-- Node8&#45;&gt;Node7 -->
<g id="edge12_Node000008_Node000007" class="edge">
<title>Node8&#45;&gt;Node7</title>
<g id="a_edge12_Node000008_Node000007"><a xlink:title=" ">
<path fill="none" stroke="#63b8ff" d="M299.31,-627.58C292.69,-618.5 285.66,-606.94 282.25,-595.25 277.74,-579.77 274.95,-515.4 283.25,-498.25 309.35,-444.3 373.62,-406.87 406.37,-390.61"/>
<polygon fill="#63b8ff" stroke="#63b8ff" points="296.54,-629.72 305.44,-635.46 302.06,-625.42 296.54,-629.72"/>
</a>
</g>
</g>
<!-- Node9 -->
<g id="Node000009" class="node">
<title>Node9</title>
<g id="a_Node000009"><a xlink:href="../../d1/dfd/_basic_reporter_8hpp.html" target="_top" xlink:title=" ">
<polygon fill="white" stroke="#666666" points="487.88,-523.12 310.62,-523.12 310.62,-503.88 487.88,-503.88 487.88,-523.12"/>
<text text-anchor="middle" x="399.25" y="-509.62" font-family="Helvetica,sans-Serif" font-size="10.00">mimic++/reporting/BasicReporter.hpp</text>
</a>
</g>
</g>
<!-- Node8&#45;&gt;Node9 -->
<g id="edge13_Node000008_Node000009" class="edge">
<title>Node8&#45;&gt;Node9</title>
<g id="a_edge13_Node000008_Node000009"><a xlink:title=" ">
<path fill="none" stroke="#63b8ff" d="M319.52,-625.5C324.62,-608.41 333.47,-583.65 346.25,-564.75 357.62,-547.95 375.48,-532.52 387.28,-523.31"/>
<polygon fill="#63b8ff" stroke="#63b8ff" points="316.2,-624.37 316.87,-634.95 322.94,-626.26 316.2,-624.37"/>
</a>
</g>
</g>
<!-- Node10 -->
<g id="Node000010" class="node">
<title>Node10</title>
<g id="a_Node000010"><a xlink:href="../../d0/d70/_default_reporter_8hpp.html" target="_top" xlink:title=" ">
<polygon fill="white" stroke="#666666" points="711.5,-528.75 583,-528.75 583,-498.25 711.5,-498.25 711.5,-528.75"/>
<text text-anchor="start" x="591" y="-515.25" font-family="Helvetica,sans-Serif" font-size="10.00">mimic++/reporting/Default</text>
<text text-anchor="middle" x="647.25" y="-504" font-family="Helvetica,sans-Serif" font-size="10.00">Reporter.hpp</text>
</a>
</g>
</g>
<!-- Node8&#45;&gt;Node10 -->
<g id="edge15_Node000008_Node000010" class="edge">
<title>Node8&#45;&gt;Node10</title>
<g id="a_edge15_Node000008_Node000010"><a xlink:title=" ">
<path fill="none" stroke="#63b8ff" d="M342.65,-631.65C377.79,-614.77 439.69,-585.88 494.25,-564.75 528.53,-551.47 567.97,-538.58 598.21,-529.17"/>
<polygon fill="#63b8ff" stroke="#63b8ff" points="341.48,-628.33 334,-635.82 344.53,-634.63 341.48,-628.33"/>
</a>
</g>
</g>
<!-- Node11 -->
<g id="Node000011" class="node">
<title>Node11</title>
<g id="a_Node000011"><a xlink:href="../../de/dd1/_global_reporter_8hpp.html" target="_top" xlink:title=" ">
<polygon fill="white" stroke="#666666" points="746,-462.25 620.5,-462.25 620.5,-431.75 746,-431.75 746,-462.25"/>
<text text-anchor="start" x="628.5" y="-448.75" font-family="Helvetica,sans-Serif" font-size="10.00">mimic++/reporting/Global</text>
<text text-anchor="middle" x="683.25" y="-437.5" font-family="Helvetica,sans-Serif" font-size="10.00">Reporter.hpp</text>
</a>
</g>
</g>
<!-- Node8&#45;&gt;Node11 -->
<g id="edge37_Node000008_Node000011" class="edge">
<title>Node8&#45;&gt;Node11</title>
<g id="a_edge37_Node000008_Node000011"><a xlink:title=" ">
<path fill="none" stroke="#63b8ff" d="M304.65,-626.2C290.75,-595.16 269.89,-534.01 301.25,-498.25 321.93,-474.68 517.24,-458.68 620.28,-451.8"/>
<polygon fill="#63b8ff" stroke="#63b8ff" points="301.44,-627.59 308.87,-635.14 307.77,-624.6 301.44,-627.59"/>
</a>
</g>
</g>
<!-- Node18 -->
<g id="Node000018" class="node">
<title>Node18</title>
<g id="a_Node000018"><a xlink:href="../../d9/d70/_stringify_reports_8hpp.html" target="_top" xlink:title=" ">
<polygon fill="white" stroke="#666666" points="635.75,-595.25 502.75,-595.25 502.75,-564.75 635.75,-564.75 635.75,-595.25"/>
<text text-anchor="start" x="510.75" y="-581.75" font-family="Helvetica,sans-Serif" font-size="10.00">mimic++/reporting/Stringify</text>
<text text-anchor="middle" x="569.25" y="-570.5" font-family="Helvetica,sans-Serif" font-size="10.00">Reports.hpp</text>
</a>
</g>
</g>
<!-- Node8&#45;&gt;Node18 -->
<g id="edge38_Node000008_Node000018" class="edge">
<title>Node8&#45;&gt;Node18</title>
<g id="a_edge38_Node000008_Node000018"><a xlink:title=" ">
<path fill="none" stroke="#63b8ff" d="M361.35,-633.59C403.68,-622.88 465.98,-607.12 511.34,-595.65"/>
<polygon fill="#63b8ff" stroke="#63b8ff" points="360.55,-630.18 351.71,-636.02 362.26,-636.97 360.55,-630.18"/>
</a>
</g>
</g>
<!-- Node9&#45;&gt;Node7 -->
<g id="edge14_Node000009_Node000007" class="edge">
<title>Node9&#45;&gt;Node7</title>
<g id="a_edge14_Node000009_Node000007"><a xlink:title=" ">
<path fill="none" stroke="#63b8ff" d="M403.4,-492.37C409.35,-463.49 420.07,-411.48 424.38,-390.57"/>
<polygon fill="#63b8ff" stroke="#63b8ff" points="400,-491.51 401.41,-502.01 406.86,-492.93 400,-491.51"/>
</a>
</g>
</g>
<!-- Node10&#45;&gt;Node7 -->
<g id="edge16_Node000010_Node000007" class="edge">
<title>Node10&#45;&gt;Node7</title>
<g id="a_edge16_Node000010_Node000007"><a xlink:title=" ">
<path fill="none" stroke="#63b8ff" d="M629.54,-489.29C614.83,-471.41 592.46,-447.21 568.25,-431.75 536.84,-411.7 496.4,-398.4 466.72,-390.55"/>
<polygon fill="#63b8ff" stroke="#63b8ff" points="626.57,-491.19 635.55,-496.81 632.03,-486.81 626.57,-491.19"/>
</a>
</g>
</g>
<!-- Node10&#45;&gt;Node11 -->
<g id="edge17_Node000010_Node000011" class="edge">
<title>Node10&#45;&gt;Node11</title>
<g id="a_edge17_Node000010_Node000011"><a xlink:title=" ">
<path fill="none" stroke="#63b8ff" d="M660.94,-487.98C665.72,-479.41 670.93,-470.07 675.11,-462.58"/>
<polygon fill="#63b8ff" stroke="#63b8ff" points="657.97,-486.1 656.16,-496.54 664.09,-489.52 657.97,-486.1"/>
</a>
</g>
</g>
<!-- Node11&#45;&gt;Node7 -->
<g id="edge18_Node000011_Node000007" class="edge">
<title>Node11&#45;&gt;Node7</title>
<g id="a_edge18_Node000011_Node000007"><a xlink:title=" ">
<path fill="none" stroke="#63b8ff" d="M613.49,-428.49C564.69,-416.25 501.5,-400.39 462.43,-390.58"/>
<polygon fill="#63b8ff" stroke="#63b8ff" points="612.59,-431.88 623.14,-430.91 614.3,-425.09 612.59,-431.88"/>
</a>
</g>
</g>
<!-- Node12 -->
<g id="Node000012" class="node">
<title>Node12</title>
<g id="a_Node000012"><a xlink:href="../../d8/de4/_sequence_8hpp.html" target="_top" xlink:title=" ">
<polygon fill="white" stroke="#666666" points="651.62,-390.12 532.88,-390.12 532.88,-370.88 651.62,-370.88 651.62,-390.12"/>
<text text-anchor="middle" x="592.25" y="-376.62" font-family="Helvetica,sans-Serif" font-size="10.00">mimic++/Sequence.hpp</text>
</a>
</g>
</g>
<!-- Node11&#45;&gt;Node12 -->
<g id="edge19_Node000011_Node000012" class="edge">
<title>Node11&#45;&gt;Node12</title>
<g id="a_edge19_Node000011_Node000012"><a xlink:title=" ">
<path fill="none" stroke="#63b8ff" d="M653.37,-424.82C636.95,-413.18 617.44,-399.36 604.96,-390.51"/>
<polygon fill="#63b8ff" stroke="#63b8ff" points="651.18,-427.56 661.37,-430.49 655.23,-421.85 651.18,-427.56"/>
</a>
</g>
</g>
<!-- Node14 -->
<g id="Node000014" class="node">
<title>Node14</title>
<g id="a_Node000014"><a xlink:href="../../db/d5d/_registry_8hpp.html" target="_top" xlink:title=" ">
<polygon fill="white" stroke="#666666" points="832.62,-329.25 725.88,-329.25 725.88,-298.75 832.62,-298.75 832.62,-329.25"/>
<text text-anchor="start" x="733.88" y="-315.75" font-family="Helvetica,sans-Serif" font-size="10.00">mimic++/expectation</text>
<text text-anchor="middle" x="779.25" y="-304.5" font-family="Helvetica,sans-Serif" font-size="10.00">/Registry.hpp</text>
</a>
</g>
</g>
<!-- Node11&#45;&gt;Node14 -->
<g id="edge36_Node000011_Node000014" class="edge">
<title>Node11&#45;&gt;Node14</title>
<g id="a_edge36_Node000011_Node000014"><a xlink:title=" ">
<path fill="none" stroke="#63b8ff" d="M700.59,-422.34C720.37,-395.35 752.1,-352.05 768.56,-329.58"/>
<polygon fill="#63b8ff" stroke="#63b8ff" points="697.87,-420.12 694.79,-430.26 703.52,-424.26 697.87,-420.12"/>
</a>
</g>
</g>
<!-- Node12&#45;&gt;Node3 -->
<g id="edge32_Node000012_Node000003" class="edge">
<title>Node12&#45;&gt;Node3</title>
<g id="a_edge32_Node000012_Node000003"><a xlink:title=" ">
<path fill="none" stroke="#63b8ff" d="M562.24,-365.34C524.41,-345.16 464.25,-304.3 464.25,-248.5 464.25,-248.5 464.25,-248.5 464.25,-119.12 464.25,-46.14 562.57,-22.25 628.05,-14.43"/>
<polygon fill="#63b8ff" stroke="#63b8ff" points="560.41,-368.33 570.9,-369.79 563.61,-362.11 560.41,-368.33"/>
</a>
</g>
</g>
<!-- Node13 -->
<g id="Node000013" class="node">
<title>Node13</title>
<g id="a_Node000013"><a xlink:href="../../db/d83/_scoped_sequence_8hpp.html" target="_top" xlink:title=" ">
<polygon fill="white" stroke="#666666" points="729.12,-129.75 577.38,-129.75 577.38,-110.5 729.12,-110.5 729.12,-129.75"/>
<text text-anchor="middle" x="653.25" y="-116.25" font-family="Helvetica,sans-Serif" font-size="10.00">mimic++/ScopedSequence.hpp</text>
</a>
</g>
</g>
<!-- Node12&#45;&gt;Node13 -->
<g id="edge20_Node000012_Node000013" class="edge">
<title>Node12&#45;&gt;Node13</title>
<g id="a_edge20_Node000012_Node000013"><a xlink:title=" ">
<path fill="none" stroke="#63b8ff" d="M573.78,-362.78C546.03,-335.54 499.1,-279.85 521.25,-232.25 544.76,-181.73 603.79,-145.96 634.31,-130.18"/>
<polygon fill="#63b8ff" stroke="#63b8ff" points="571.23,-365.19 580.9,-369.54 576.05,-360.11 571.23,-365.19"/>
</a>
</g>
</g>
<!-- Node12&#45;&gt;Node14 -->
<g id="edge22_Node000012_Node000014" class="edge">
<title>Node12&#45;&gt;Node14</title>
<g id="a_edge22_Node000012_Node000014"><a xlink:title=" ">
<path fill="none" stroke="#63b8ff" d="M629.41,-366.68C660.36,-356.01 704.44,-340.8 736.78,-329.65"/>
<polygon fill="#63b8ff" stroke="#63b8ff" points="628.39,-363.33 620.08,-369.9 630.67,-369.95 628.39,-363.33"/>
</a>
</g>
</g>
<!-- Node17 -->
<g id="Node000017" class="node">
<title>Node17</title>
<g id="a_Node000017"><a xlink:href="../../db/d70/_control_policies_8hpp.html" target="_top" xlink:title=" ">
<polygon fill="white" stroke="#666666" points="654.25,-262.75 530.25,-262.75 530.25,-232.25 654.25,-232.25 654.25,-262.75"/>
<text text-anchor="start" x="538.25" y="-249.25" font-family="Helvetica,sans-Serif" font-size="10.00">mimic++/policies/Control</text>
<text text-anchor="middle" x="592.25" y="-238" font-family="Helvetica,sans-Serif" font-size="10.00">Policies.hpp</text>
</a>
</g>
</g>
<!-- Node12&#45;&gt;Node17 -->
<g id="edge33_Node000012_Node000017" class="edge">
<title>Node12&#45;&gt;Node17</title>
<g id="a_edge33_Node000012_Node000017"><a xlink:title=" ">
<path fill="none" stroke="#63b8ff" d="M592.25,-359.15C592.25,-332.48 592.25,-286.35 592.25,-262.97"/>
<polygon fill="#63b8ff" stroke="#63b8ff" points="588.75,-358.98 592.25,-368.98 595.75,-358.98 588.75,-358.98"/>
</a>
</g>
</g>
<!-- Node13&#45;&gt;Node3 -->
<g id="edge21_Node000013_Node000003" class="edge">
<title>Node13&#45;&gt;Node3</title>
<g id="a_edge21_Node000013_Node000003"><a xlink:title=" ">
<path fill="none" stroke="#63b8ff" d="M628.88,-103.35C612.7,-90.81 596.16,-72.55 606.25,-55.25 616.49,-37.7 636.47,-26.51 653.78,-19.72"/>
<polygon fill="#63b8ff" stroke="#63b8ff" points="626.77,-106.15 636.93,-109.15 630.86,-100.46 626.77,-106.15"/>
</a>
</g>
</g>
<!-- Node14&#45;&gt;Node3 -->
<g id="edge31_Node000014_Node000003" class="edge">
<title>Node14&#45;&gt;Node3</title>
<g id="a_edge31_Node000014_Node000003"><a xlink:title=" ">
<path fill="none" stroke="#63b8ff" d="M749.16,-291.78C695.59,-253.26 587.49,-171.93 568.25,-129.75 553.37,-97.12 573.48,-80.19 599.25,-55.25 616.17,-38.87 640.31,-27.06 658.7,-19.72"/>
<polygon fill="#63b8ff" stroke="#63b8ff" points="747.09,-294.6 757.26,-297.57 751.16,-288.91 747.09,-294.6"/>
</a>
</g>
</g>
<!-- Node14&#45;&gt;Node4 -->
<g id="edge23_Node000014_Node000004" class="edge">
<title>Node14&#45;&gt;Node4</title>
<g id="a_edge23_Node000014_Node000004"><a xlink:title=" ">
<path fill="none" stroke="#63b8ff" d="M779.03,-287.06C779.58,-256.95 783,-206.25 798.25,-165.75 803.38,-152.12 813.4,-138.53 820.44,-129.99"/>
<polygon fill="#63b8ff" stroke="#63b8ff" points="775.54,-286.71 778.96,-296.74 782.54,-286.77 775.54,-286.71"/>
</a>
</g>
</g>
<!-- Node15 -->
<g id="Node000015" class="node">
<title>Node15</title>
<g id="a_Node000015"><a xlink:href="../../d6/d15/_builder_8hpp.html" target="_top" xlink:title=" ">
<polygon fill="white" stroke="#666666" points="913.62,-196.25 806.88,-196.25 806.88,-165.75 913.62,-165.75 913.62,-196.25"/>
<text text-anchor="start" x="814.88" y="-182.75" font-family="Helvetica,sans-Serif" font-size="10.00">mimic++/expectation</text>
<text text-anchor="middle" x="860.25" y="-171.5" font-family="Helvetica,sans-Serif" font-size="10.00">/Builder.hpp</text>
</a>
</g>
</g>
<!-- Node14&#45;&gt;Node15 -->
<g id="edge24_Node000014_Node000015" class="edge">
<title>Node14&#45;&gt;Node15</title>
<g id="a_edge24_Node000014_Node000015"><a xlink:title=" ">
<path fill="none" stroke="#63b8ff" d="M794.1,-288.99C810.8,-261.97 837.4,-218.95 851.23,-196.58"/>
<polygon fill="#63b8ff" stroke="#63b8ff" points="791.31,-286.85 789.02,-297.19 797.26,-290.53 791.31,-286.85"/>
</a>
</g>
</g>
<!-- Node16 -->
<g id="Node000016" class="node">
<title>Node16</title>
<g id="a_Node000016"><a xlink:href="../../d4/d1e/_owner_8hpp.html" target="_top" xlink:title=" ">
<polygon fill="white" stroke="#666666" points="994.62,-262.75 887.88,-262.75 887.88,-232.25 994.62,-232.25 994.62,-262.75"/>
<text text-anchor="start" x="895.88" y="-249.25" font-family="Helvetica,sans-Serif" font-size="10.00">mimic++/expectation</text>
<text text-anchor="middle" x="941.25" y="-238" font-family="Helvetica,sans-Serif" font-size="10.00">/Owner.hpp</text>
</a>
</g>
</g>
<!-- Node14&#45;&gt;Node16 -->
<g id="edge28_Node000014_Node000016" class="edge">
<title>Node14&#45;&gt;Node16</title>
<g id="a_edge28_Node000014_Node000016"><a xlink:title=" ">
<path fill="none" stroke="#63b8ff" d="M826.64,-294.13C851.43,-284.26 881.32,-272.36 904.36,-263.19"/>
<polygon fill="#63b8ff" stroke="#63b8ff" points="825.41,-290.85 817.42,-297.8 828,-297.36 825.41,-290.85"/>
</a>
</g>
</g>
<!-- Node15&#45;&gt;Node3 -->
<g id="edge27_Node000015_Node000003" class="edge">
<title>Node15&#45;&gt;Node3</title>
<g id="a_edge27_Node000015_Node000003"><a xlink:title=" ">
<path fill="none" stroke="#63b8ff" d="M887.48,-157.88C916.54,-131.63 955.01,-87.37 928.25,-55.25 905.05,-27.4 806.58,-16.87 742.33,-12.94"/>
<polygon fill="#63b8ff" stroke="#63b8ff" points="885.21,-155.21 879.98,-164.43 889.82,-160.49 885.21,-155.21"/>
</a>
</g>
</g>
<!-- Node15&#45;&gt;Node4 -->
<g id="edge25_Node000015_Node000004" class="edge">
<title>Node15&#45;&gt;Node4</title>
<g id="a_edge25_Node000015_Node000004"><a xlink:title=" ">
<path fill="none" stroke="#63b8ff" d="M846.9,-155.44C842.05,-146.51 836.85,-136.95 833.18,-130.2"/>
<polygon fill="#63b8ff" stroke="#63b8ff" points="843.77,-157 851.62,-164.12 849.92,-153.66 843.77,-157"/>
</a>
</g>
</g>
<!-- Node15&#45;&gt;Node13 -->
<g id="edge26_Node000015_Node000013" class="edge">
<title>Node15&#45;&gt;Node13</title>
<g id="a_edge26_Node000015_Node000013"><a xlink:title=" ">
<path fill="none" stroke="#63b8ff" d="M797.83,-162.25C760.73,-151.7 715.23,-138.75 685.3,-130.24"/>
<polygon fill="#63b8ff" stroke="#63b8ff" points="796.52,-165.51 807.09,-164.88 798.43,-158.78 796.52,-165.51"/>
</a>
</g>
</g>
<!-- Node16&#45;&gt;Node3 -->
<g id="edge30_Node000016_Node000003" class="edge">
<title>Node16&#45;&gt;Node3</title>
<g id="a_edge30_Node000016_Node000003"><a xlink:title=" ">
<path fill="none" stroke="#63b8ff" d="M951.39,-221.21C965.67,-180.98 985.82,-102.16 946.25,-55.25 920.69,-24.94 811.07,-15.22 742.28,-12.1"/>
<polygon fill="#63b8ff" stroke="#63b8ff" points="948.13,-219.92 947.92,-230.51 954.69,-222.36 948.13,-219.92"/>
</a>
</g>
</g>
<!-- Node16&#45;&gt;Node15 -->
<g id="edge29_Node000016_Node000015" class="edge">
<title>Node16&#45;&gt;Node15</title>
<g id="a_edge29_Node000016_Node000015"><a xlink:title=" ">
<path fill="none" stroke="#63b8ff" d="M913.96,-224.77C902.3,-215.48 889,-204.9 878.56,-196.58"/>
<polygon fill="#63b8ff" stroke="#63b8ff" points="911.68,-227.43 921.69,-230.92 916.04,-221.95 911.68,-227.43"/>
</a>
</g>
</g>
<!-- Node17&#45;&gt;Node3 -->
<g id="edge35_Node000017_Node000003" class="edge">
<title>Node17&#45;&gt;Node3</title>
<g id="a_edge35_Node000017_Node000003"><a xlink:title=" ">
<path fill="none" stroke="#63b8ff" d="M573.04,-222.86C544.15,-184.26 496.77,-106.84 535.25,-55.25 556.53,-26.72 595.31,-15.7 628.11,-11.75"/>
<polygon fill="#63b8ff" stroke="#63b8ff" points="570.13,-224.81 579,-230.6 575.67,-220.54 570.13,-224.81"/>
</a>
</g>
</g>
<!-- Node17&#45;&gt;Node15 -->
<g id="edge34_Node000017_Node000015" class="edge">
<title>Node17&#45;&gt;Node15</title>
<g id="a_edge34_Node000017_Node000015"><a xlink:title=" ">
<path fill="none" stroke="#63b8ff" d="M664.51,-229.11C709.29,-218.33 765.83,-204.72 806.62,-194.91"/>
<polygon fill="#63b8ff" stroke="#63b8ff" points="663.77,-225.69 654.87,-231.43 665.41,-232.49 663.77,-225.69"/>
</a>
</g>
</g>
<!-- Node18&#45;&gt;Node7 -->
<g id="edge39_Node000018_Node000007" class="edge">
<title>Node18&#45;&gt;Node7</title>
<g id="a_edge39_Node000018_Node000007"><a xlink:title=" ">
<path fill="none" stroke="#63b8ff" d="M568.76,-553.26C566.86,-521.34 559.22,-466.87 530.25,-431.75 513.02,-410.87 485.04,-398.04 462.44,-390.57"/>
<polygon fill="#63b8ff" stroke="#63b8ff" points="565.26,-553.33 569.19,-563.17 572.26,-553.03 565.26,-553.33"/>
</a>
</g>
</g>
<!-- Node18&#45;&gt;Node9 -->
<g id="edge40_Node000018_Node000009" class="edge">
<title>Node18&#45;&gt;Node9</title>
<g id="a_edge40_Node000018_Node000009"><a xlink:title=" ">
<path fill="none" stroke="#63b8ff" d="M520.2,-560.39C488.28,-548.28 448.06,-533.02 423,-523.51"/>
<polygon fill="#63b8ff" stroke="#63b8ff" points="518.67,-563.55 529.26,-563.83 521.15,-557.01 518.67,-563.55"/>
</a>
</g>
</g>
<!-- Node18&#45;&gt;Node10 -->
<g id="edge41_Node000018_Node000010" class="edge">
<title>Node18&#45;&gt;Node10</title>
<g id="a_edge41_Node000018_Node000010"><a xlink:title=" ">
<path fill="none" stroke="#63b8ff" d="M595.53,-557.27C606.76,-547.98 619.56,-537.4 629.62,-529.08"/>
<polygon fill="#63b8ff" stroke="#63b8ff" points="593.59,-554.33 588.12,-563.4 598.05,-559.72 593.59,-554.33"/>
</a>
</g>
</g>
<!-- Node19&#45;&gt;Node7 -->
<g id="edge43_Node000019_Node000007" class="edge">
<title>Node19&#45;&gt;Node7</title>
<g id="a_edge43_Node000019_Node000007"><a xlink:title=" ">
<path fill="none" stroke="#63b8ff" d="M597.53,-707.89C472.65,-701.1 252.51,-685.88 225.25,-661.75 197.64,-637.31 206.25,-617.87 206.25,-581 206.25,-581 206.25,-581 206.25,-512.5 206.25,-437.26 302.41,-404.25 367.58,-390.52"/>
<polygon fill="#63b8ff" stroke="#63b8ff" points="597.26,-711.38 607.43,-708.41 597.63,-704.39 597.26,-711.38"/>
</a>
</g>
</g>
<!-- Node19&#45;&gt;Node9 -->
<g id="edge53_Node000019_Node000009" class="edge">
<title>Node19&#45;&gt;Node9</title>
<g id="a_edge53_Node000019_Node000009"><a xlink:title=" ">
<path fill="none" stroke="#63b8ff" d="M597.85,-697.59C563.05,-689.77 523.12,-678.24 489.25,-661.75 445.49,-640.45 424.62,-638.47 402.25,-595.25 390.13,-571.83 394.19,-539.26 397.21,-523.61"/>
<polygon fill="#63b8ff" stroke="#63b8ff" points="596.96,-700.97 607.47,-699.67 598.44,-694.13 596.96,-700.97"/>
</a>
</g>
</g>
<!-- Node19&#45;&gt;Node10 -->
<g id="edge54_Node000019_Node000010" class="edge">
<title>Node19&#45;&gt;Node10</title>
<g id="a_edge54_Node000019_Node000010"><a xlink:title=" ">
<path fill="none" stroke="#63b8ff" d="M681.12,-686.29C678.35,-656.71 672.73,-606.81 663.25,-564.75 660.47,-552.42 656.04,-538.79 652.54,-528.83"/>
<polygon fill="#63b8ff" stroke="#63b8ff" points="677.62,-686.48 682,-696.13 684.59,-685.86 677.62,-686.48"/>
</a>
</g>
</g>
<!-- Node19&#45;&gt;Node11 -->
<g id="edge55_Node000019_Node000011" class="edge">
<title>Node19&#45;&gt;Node11</title>
<g id="a_edge55_Node000019_Node000011"><a xlink:title=" ">
<path fill="none" stroke="#63b8ff" d="M695.2,-687.13C712.96,-646.68 742,-564.48 720.25,-498.25 715.79,-484.66 706.09,-471.73 697.74,-462.38"/>
<polygon fill="#63b8ff" stroke="#63b8ff" points="692.12,-685.46 691.17,-696.01 698.49,-688.35 692.12,-685.46"/>
</a>
</g>
</g>
<!-- Node19&#45;&gt;Node17 -->
<g id="edge52_Node000019_Node000017" class="edge">
<title>Node19&#45;&gt;Node17</title>
<g id="a_edge52_Node000019_Node000017"><a xlink:title=" ">
<path fill="none" stroke="#63b8ff" d="M705.67,-688.97C712.5,-680.9 719.45,-671.42 724.25,-661.75 770.06,-569.34 791.92,-528.16 755.25,-431.75 726.34,-355.74 649.83,-291.14 612.85,-263.24"/>
<polygon fill="#63b8ff" stroke="#63b8ff" points="703.19,-686.5 699.15,-696.29 708.42,-691.16 703.19,-686.5"/>
</a>
</g>
</g>
<!-- Node19&#45;&gt;Node18 -->
<g id="edge61_Node000019_Node000018" class="edge">
<title>Node19&#45;&gt;Node18</title>
<g id="a_edge61_Node000019_Node000018"><a xlink:title=" ">
<path fill="none" stroke="#63b8ff" d="M675.41,-686.7C669.21,-669.66 659.25,-647.43 645.25,-631.25 632.52,-616.54 614.48,-604.36 599.17,-595.68"/>
<polygon fill="#63b8ff" stroke="#63b8ff" points="672.07,-687.76 678.61,-696.1 678.69,-685.5 672.07,-687.76"/>
</a>
</g>
</g>
<!-- Node20 -->
<g id="Node000020" class="node">
<title>Node20</title>
<g id="a_Node000020"><a xlink:href="../../db/d33/expectation_2_common_8hpp.html" target="_top" xlink:title=" ">
<polygon fill="white" stroke="#666666" points="913.62,-462.25 806.88,-462.25 806.88,-431.75 913.62,-431.75 913.62,-462.25"/>
<text text-anchor="start" x="814.88" y="-448.75" font-family="Helvetica,sans-Serif" font-size="10.00">mimic++/expectation</text>
<text text-anchor="middle" x="860.25" y="-437.5" font-family="Helvetica,sans-Serif" font-size="10.00">/Common.hpp</text>
</a>
</g>
</g>
<!-- Node19&#45;&gt;Node20 -->
<g id="edge44_Node000019_Node000020" class="edge">
<title>Node19&#45;&gt;Node20</title>
<g id="a_edge44_Node000019_Node000020"><a xlink:title=" ">
<path fill="none" stroke="#63b8ff" d="M747.38,-692.97C763.83,-685.48 780.26,-675.33 792.25,-661.75 845.22,-601.77 856.97,-500.35 859.54,-462.67"/>
<polygon fill="#63b8ff" stroke="#63b8ff" points="746.4,-689.58 738.56,-696.7 749.13,-696.03 746.4,-689.58"/>
</a>
</g>
</g>
<!-- Node21 -->
<g id="Node000021" class="node">
<title>Node21</title>
<g id="a_Node000021"><a xlink:href="../../d5/d8a/_expectation_8hpp.html" target="_top" xlink:title=" ">
<polygon fill="white" stroke="#666666" points="994.62,-395.75 887.88,-395.75 887.88,-365.25 994.62,-365.25 994.62,-395.75"/>
<text text-anchor="start" x="895.88" y="-382.25" font-family="Helvetica,sans-Serif" font-size="10.00">mimic++/expectation</text>
<text text-anchor="middle" x="941.25" y="-371" font-family="Helvetica,sans-Serif" font-size="10.00">/Expectation.hpp</text>
</a>
</g>
</g>
<!-- Node19&#45;&gt;Node21 -->
<g id="edge51_Node000019_Node000021" class="edge">
<title>Node19&#45;&gt;Node21</title>
<g id="a_edge51_Node000019_Node000021"><a xlink:title=" ">
<path fill="none" stroke="#63b8ff" d="M768.9,-703.81C843.99,-691.34 941.25,-659.96 941.25,-581 941.25,-581 941.25,-581 941.25,-512.5 941.25,-470.2 941.25,-420.21 941.25,-396.04"/>
<polygon fill="#63b8ff" stroke="#63b8ff" points="768.36,-700.35 759.02,-705.35 769.44,-707.26 768.36,-700.35"/>
</a>
</g>
</g>
<!-- Node22 -->
<g id="Node000022" class="node">
<title>Node22</title>
<g id="a_Node000022"><a xlink:href="../../de/d3f/_no_match_report_8hpp.html" target="_top" xlink:title=" ">
<polygon fill="white" stroke="#666666" points="636,-661.75 498.5,-661.75 498.5,-631.25 636,-631.25 636,-661.75"/>
<text text-anchor="start" x="506.5" y="-648.25" font-family="Helvetica,sans-Serif" font-size="10.00">mimic++/reporting/NoMatch</text>
<text text-anchor="middle" x="567.25" y="-637" font-family="Helvetica,sans-Serif" font-size="10.00">Report.hpp</text>
</a>
</g>
</g>
<!-- Node19&#45;&gt;Node22 -->
<g id="edge56_Node000019_Node000022" class="edge">
<title>Node19&#45;&gt;Node22</title>
<g id="a_edge56_Node000019_Node000022"><a xlink:title=" ">
<path fill="none" stroke="#63b8ff" d="M647.11,-691.91C629.75,-682.25 609.32,-670.89 593.47,-662.08"/>
<polygon fill="#63b8ff" stroke="#63b8ff" points="645.16,-694.83 655.61,-696.63 648.57,-688.71 645.16,-694.83"/>
</a>
</g>
</g>
<!-- Node20&#45;&gt;Node3 -->
<g id="edge50_Node000020_Node000003" class="edge">
<title>Node20&#45;&gt;Node3</title>
<g id="a_edge50_Node000020_Node000003"><a xlink:title=" ">
<path fill="none" stroke="#63b8ff" d="M925.21,-432.28C983.94,-415.62 1061.25,-381.13 1061.25,-315 1061.25,-315 1061.25,-315 1061.25,-119.12 1061.25,-78.94 1033.2,-73.21 997.25,-55.25 953.68,-33.49 819.86,-20.41 742.36,-14.47"/>
<polygon fill="#63b8ff" stroke="#63b8ff" points="924.31,-428.9 915.58,-434.89 926.14,-435.66 924.31,-428.9"/>
</a>
</g>
</g>
<!-- Node20&#45;&gt;Node15 -->
<g id="edge45_Node000020_Node000015" class="edge">
<title>Node20&#45;&gt;Node15</title>
<g id="a_edge45_Node000020_Node000015"><a xlink:title=" ">
<path fill="none" stroke="#63b8ff" d="M860.25,-419.98C860.25,-365.16 860.25,-239.29 860.25,-196.52"/>
<polygon fill="#63b8ff" stroke="#63b8ff" points="856.75,-419.92 860.25,-429.92 863.75,-419.92 856.75,-419.92"/>
</a>
</g>
</g>
<!-- Node20&#45;&gt;Node21 -->
<g id="edge46_Node000020_Node000021" class="edge">
<title>Node20&#45;&gt;Node21</title>
<g id="a_edge46_Node000020_Node000021"><a xlink:title=" ">
<path fill="none" stroke="#63b8ff" d="M887.54,-424.27C899.2,-414.98 912.5,-404.4 922.94,-396.08"/>
<polygon fill="#63b8ff" stroke="#63b8ff" points="885.46,-421.45 879.81,-430.42 889.82,-426.93 885.46,-421.45"/>
</a>
</g>
</g>
<!-- Node21&#45;&gt;Node3 -->
<g id="edge49_Node000021_Node000003" class="edge">
<title>Node21&#45;&gt;Node3</title>
<g id="a_edge49_Node000021_Node000003"><a xlink:title=" ">
<path fill="none" stroke="#63b8ff" d="M966.34,-357.02C990.45,-332.83 1023.25,-291.94 1023.25,-248.5 1023.25,-248.5 1023.25,-248.5 1023.25,-119.12 1023.25,-81.08 999.64,-73.49 966.25,-55.25 928.64,-34.71 812.94,-21.52 742.27,-15.14"/>
<polygon fill="#63b8ff" stroke="#63b8ff" points="964.08,-354.34 959.33,-363.81 968.95,-359.37 964.08,-354.34"/>
</a>
</g>
</g>
<!-- Node21&#45;&gt;Node14 -->
<g id="edge48_Node000021_Node000014" class="edge">
<title>Node21&#45;&gt;Node14</title>
<g id="a_edge48_Node000021_Node000014"><a xlink:title=" ">
<path fill="none" stroke="#63b8ff" d="M893.86,-360.63C869.07,-350.76 839.18,-338.86 816.14,-329.69"/>
<polygon fill="#63b8ff" stroke="#63b8ff" points="892.5,-363.86 903.08,-364.3 895.09,-357.35 892.5,-363.86"/>
</a>
</g>
</g>
<!-- Node21&#45;&gt;Node16 -->
<g id="edge47_Node000021_Node000016" class="edge">
<title>Node21&#45;&gt;Node16</title>
<g id="a_edge47_Node000021_Node000016"><a xlink:title=" ">
<path fill="none" stroke="#63b8ff" d="M941.25,-353.68C941.25,-326.59 941.25,-284.96 941.25,-263.08"/>
<polygon fill="#63b8ff" stroke="#63b8ff" points="937.75,-353.47 941.25,-363.47 944.75,-353.47 937.75,-353.47"/>
</a>
</g>
</g>
<!-- Node22&#45;&gt;Node7 -->
<g id="edge57_Node000022_Node000007" class="edge">
<title>Node22&#45;&gt;Node7</title>
<g id="a_edge57_Node000022_Node000007"><a xlink:title=" ">
<path fill="none" stroke="#63b8ff" d="M523.04,-624.94C511.59,-617.32 500.68,-607.49 494.25,-595.25 474.18,-557.07 508.89,-539.78 497.25,-498.25 484.7,-453.48 449.75,-408.83 434.05,-390.36"/>
<polygon fill="#63b8ff" stroke="#63b8ff" points="521.05,-627.82 531.41,-630.03 524.68,-621.84 521.05,-627.82"/>
</a>
</g>
</g>
<!-- Node22&#45;&gt;Node9 -->
<g id="edge58_Node000022_Node000009" class="edge">
<title>Node22&#45;&gt;Node9</title>
<g id="a_edge58_Node000022_Node000009"><a xlink:title=" ">
<path fill="none" stroke="#63b8ff" d="M487.28,-632.48C463.62,-625.08 439.47,-613.47 422.25,-595.25 403.12,-575.02 399.73,-540.03 399.25,-523.56"/>
<polygon fill="#63b8ff" stroke="#63b8ff" points="486.06,-635.77 496.63,-635.18 487.99,-629.05 486.06,-635.77"/>
</a>
</g>
</g>
<!-- Node22&#45;&gt;Node10 -->
<g id="edge59_Node000022_Node000010" class="edge">
<title>Node22&#45;&gt;Node10</title>
<g id="a_edge59_Node000022_Node000010"><a xlink:title=" ">
<path fill="none" stroke="#63b8ff" d="M614.49,-625.25C626.62,-617.67 638.22,-607.77 645.25,-595.25 656.85,-574.59 654.01,-546.01 650.73,-528.98"/>
<polygon fill="#63b8ff" stroke="#63b8ff" points="612.99,-622.08 606.05,-630.08 616.46,-628.15 612.99,-622.08"/>
</a>
</g>
</g>
<!-- Node22&#45;&gt;Node18 -->
<g id="edge60_Node000022_Node000018" class="edge">
<title>Node22&#45;&gt;Node18</title>
<g id="a_edge60_Node000022_Node000018"><a xlink:title=" ">
<path fill="none" stroke="#63b8ff" d="M568.05,-619.56C568.31,-611.39 568.58,-602.66 568.8,-595.58"/>
<polygon fill="#63b8ff" stroke="#63b8ff" points="564.56,-619.25 567.75,-629.35 571.56,-619.46 564.56,-619.25"/>
</a>
</g>
</g>
</g>
</svg>
