<?xml version="1.0" encoding="UTF-8" standalone="no"?>
<!DOCTYPE svg PUBLIC "-//W3C//DTD SVG 1.1//EN"
 "http://www.w3.org/Graphics/SVG/1.1/DTD/svg11.dtd">
<!-- Generated by graphviz version 12.2.1 (20241206.2353)
 -->
<!-- Title: mimic++/reporting/TargetReport.hpp Pages: 1 -->
<svg width="989pt" height="714pt"
 viewBox="0.00 0.00 989.25 713.75" xmlns="http://www.w3.org/2000/svg" xmlns:xlink="http://www.w3.org/1999/xlink">
<g id="graph0" class="graph" transform="scale(1 1) rotate(0) translate(4 709.75)">
<title>mimic++/reporting/TargetReport.hpp</title>
<!-- Node1 -->
<g id="Node000001" class="node">
<title>Node1</title>
<g id="a_Node000001"><a xlink:title=" ">
<polygon fill="#999999" stroke="#666666" points="360,-705.75 234.5,-705.75 234.5,-675.25 360,-675.25 360,-705.75"/>
<text text-anchor="start" x="242.5" y="-692.25" font-family="Helvetica,sans-Serif" font-size="10.00">mimic++/reporting/Target</text>
<text text-anchor="middle" x="297.25" y="-681" font-family="Helvetica,sans-Serif" font-size="10.00">Report.hpp</text>
</a>
</g>
</g>
<!-- Node2 -->
<g id="Node000002" class="node">
<title>Node2</title>
<g id="a_Node000002"><a xlink:href="../../d7/ded/_call_convention_8hpp.html" target="_top" xlink:title=" ">
<polygon fill="white" stroke="#666666" points="140.5,-500.62 0,-500.62 0,-481.38 140.5,-481.38 140.5,-500.62"/>
<text text-anchor="middle" x="70.25" y="-487.12" font-family="Helvetica,sans-Serif" font-size="10.00">mimic++/CallConvention.hpp</text>
</a>
</g>
</g>
<!-- Node1&#45;&gt;Node2 -->
<g id="edge1_Node000001_Node000002" class="edge">
<title>Node1&#45;&gt;Node2</title>
<g id="a_edge1_Node000001_Node000002"><a xlink:title=" ">
<path fill="none" stroke="#63b8ff" d="M223.38,-674.48C199.42,-666.9 173.97,-655.69 154.25,-639.25 107.01,-599.85 80.92,-526.64 72.93,-501.08"/>
<polygon fill="#63b8ff" stroke="#63b8ff" points="222.22,-677.78 232.81,-677.28 224.22,-671.07 222.22,-677.78"/>
</a>
</g>
</g>
<!-- Node4 -->
<g id="Node000004" class="node">
<title>Node4</title>
<g id="a_Node000004"><a xlink:href="../../d5/d8a/_expectation_8hpp.html" target="_top" xlink:title=" ">
<polygon fill="white" stroke="#666666" points="322,-245.88 196.5,-245.88 196.5,-226.62 322,-226.62 322,-245.88"/>
<text text-anchor="middle" x="259.25" y="-232.38" font-family="Helvetica,sans-Serif" font-size="10.00">mimic++/Expectation.hpp</text>
</a>
</g>
</g>
<!-- Node1&#45;&gt;Node4 -->
<g id="edge3_Node000001_Node000004" class="edge">
<title>Node1&#45;&gt;Node4</title>
<g id="a_edge3_Node000001_Node000004"><a xlink:title=" ">
<path fill="none" stroke="#63b8ff" d="M274.07,-666.76C251.72,-642.29 221.25,-601.12 221.25,-558.5 221.25,-558.5 221.25,-558.5 221.25,-357 221.25,-313.81 243.98,-265.8 254.28,-246.25"/>
<polygon fill="#63b8ff" stroke="#63b8ff" points="271.41,-669.03 280.83,-673.89 276.49,-664.22 271.41,-669.03"/>
</a>
</g>
</g>
<!-- Node5 -->
<g id="Node000005" class="node">
<title>Node5</title>
<g id="a_Node000005"><a xlink:href="../../d2/d4f/_expectation_builder_8hpp.html" target="_top" xlink:title=" ">
<polygon fill="white" stroke="#666666" points="481,-185 325.5,-185 325.5,-165.75 481,-165.75 481,-185"/>
<text text-anchor="middle" x="403.25" y="-171.5" font-family="Helvetica,sans-Serif" font-size="10.00">mimic++/ExpectationBuilder.hpp</text>
</a>
</g>
</g>
<!-- Node1&#45;&gt;Node5 -->
<g id="edge17_Node000001_Node000005" class="edge">
<title>Node1&#45;&gt;Node5</title>
<g id="a_edge17_Node000001_Node000005"><a xlink:title=" ">
<path fill="none" stroke="#63b8ff" d="M297.25,-663.68C297.25,-637.26 297.25,-595.02 297.25,-558.5 297.25,-558.5 297.25,-558.5 297.25,-357 297.25,-281.74 366.56,-210.09 393.09,-185.42"/>
<polygon fill="#63b8ff" stroke="#63b8ff" points="293.75,-663.45 297.25,-673.45 300.75,-663.45 293.75,-663.45"/>
</a>
</g>
</g>
<!-- Node6 -->
<g id="Node000006" class="node">
<title>Node6</title>
<g id="a_Node000006"><a xlink:href="../../d5/dc5/_mock_8hpp.html" target="_top" xlink:title=" ">
<polygon fill="white" stroke="#666666" points="315.88,-129.75 216.62,-129.75 216.62,-110.5 315.88,-110.5 315.88,-129.75"/>
<text text-anchor="middle" x="266.25" y="-116.25" font-family="Helvetica,sans-Serif" font-size="10.00">mimic++/Mock.hpp</text>
</a>
</g>
</g>
<!-- Node1&#45;&gt;Node6 -->
<g id="edge18_Node000001_Node000006" class="edge">
<title>Node1&#45;&gt;Node6</title>
<g id="a_edge18_Node000001_Node000006"><a xlink:title=" ">
<path fill="none" stroke="#63b8ff" d="M256.24,-669.49C218.47,-647.84 168.25,-609.48 168.25,-558.5 168.25,-558.5 168.25,-558.5 168.25,-235.25 168.25,-185.63 222.23,-146.8 250.07,-130.08"/>
<polygon fill="#63b8ff" stroke="#63b8ff" points="254.25,-672.39 264.7,-674.15 257.63,-666.26 254.25,-672.39"/>
</a>
</g>
</g>
<!-- Node10 -->
<g id="Node000010" class="node">
<title>Node10</title>
<g id="a_Node000010"><a xlink:href="../../d7/deb/_reporting_8hpp.html" target="_top" xlink:title=" ">
<polygon fill="white" stroke="#666666" points="729.5,-306.75 613,-306.75 613,-287.5 729.5,-287.5 729.5,-306.75"/>
<text text-anchor="middle" x="671.25" y="-293.25" font-family="Helvetica,sans-Serif" font-size="10.00">mimic++/Reporting.hpp</text>
</a>
</g>
</g>
<!-- Node1&#45;&gt;Node10 -->
<g id="edge19_Node000001_Node000010" class="edge">
<title>Node1&#45;&gt;Node10</title>
<g id="a_edge19_Node000001_Node000010"><a xlink:title=" ">
<path fill="none" stroke="#63b8ff" d="M371.67,-683C548.9,-666.52 981.25,-620.02 981.25,-558.5 981.25,-558.5 981.25,-558.5 981.25,-423.5 981.25,-379.83 962.04,-366.29 925.25,-342.75 893.62,-322.51 794.38,-309.63 729.72,-303.16"/>
<polygon fill="#63b8ff" stroke="#63b8ff" points="371.52,-679.5 361.88,-683.9 372.16,-686.47 371.52,-679.5"/>
</a>
</g>
</g>
<!-- Node11 -->
<g id="Node000011" class="node">
<title>Node11</title>
<g id="a_Node000011"><a xlink:href="../../d9/d6c/_call_report_8hpp.html" target="_top" xlink:title=" ">
<polygon fill="white" stroke="#666666" points="561.62,-567.12 400.88,-567.12 400.88,-547.88 561.62,-547.88 561.62,-567.12"/>
<text text-anchor="middle" x="481.25" y="-553.62" font-family="Helvetica,sans-Serif" font-size="10.00">mimic++/reporting/CallReport.hpp</text>
</a>
</g>
</g>
<!-- Node1&#45;&gt;Node11 -->
<g id="edge21_Node000001_Node000011" class="edge">
<title>Node1&#45;&gt;Node11</title>
<g id="a_edge21_Node000001_Node000011"><a xlink:title=" ">
<path fill="none" stroke="#63b8ff" d="M326.82,-668.45C367.6,-639.41 439.38,-588.31 468.47,-567.6"/>
<polygon fill="#63b8ff" stroke="#63b8ff" points="324.99,-665.45 318.88,-674.1 329.05,-671.15 324.99,-665.45"/>
</a>
</g>
</g>
<!-- Node18 -->
<g id="Node000018" class="node">
<title>Node18</title>
<g id="a_Node000018"><a xlink:href="../../dd/d76/_expectation_report_8hpp.html" target="_top" xlink:title=" ">
<polygon fill="white" stroke="#666666" points="663.25,-639.25 515.25,-639.25 515.25,-608.75 663.25,-608.75 663.25,-639.25"/>
<text text-anchor="start" x="523.25" y="-625.75" font-family="Helvetica,sans-Serif" font-size="10.00">mimic++/reporting/Expectation</text>
<text text-anchor="middle" x="589.25" y="-614.5" font-family="Helvetica,sans-Serif" font-size="10.00">Report.hpp</text>
</a>
</g>
</g>
<!-- Node1&#45;&gt;Node18 -->
<g id="edge44_Node000001_Node000018" class="edge">
<title>Node1&#45;&gt;Node18</title>
<g id="a_edge44_Node000001_Node000018"><a xlink:title=" ">
<path fill="none" stroke="#63b8ff" d="M371.48,-673.1C418.03,-662.82 477.52,-649.68 522.56,-639.73"/>
<polygon fill="#63b8ff" stroke="#63b8ff" points="370.74,-669.68 361.73,-675.26 372.25,-676.52 370.74,-669.68"/>
</a>
</g>
</g>
<!-- Node3 -->
<g id="Node000003" class="node">
<title>Node3</title>
<g id="a_Node000003"><a xlink:href="../../d0/db9/mimic_09_09_8hpp.html" target="_top" xlink:title=" ">
<polygon fill="white" stroke="#666666" points="536,-19.25 422.5,-19.25 422.5,0 536,0 536,-19.25"/>
<text text-anchor="middle" x="479.25" y="-5.75" font-family="Helvetica,sans-Serif" font-size="10.00">mimic++/mimic++.hpp</text>
</a>
</g>
</g>
<!-- Node2&#45;&gt;Node3 -->
<g id="edge2_Node000002_Node000003" class="edge">
<title>Node2&#45;&gt;Node3</title>
<g id="a_edge2_Node000002_Node000003"><a xlink:title=" ">
<path fill="none" stroke="#63b8ff" d="M70.25,-469.94C70.25,-444.23 70.25,-398.3 70.25,-359 70.25,-359 70.25,-359 70.25,-119.12 70.25,-85.15 83.38,-73.16 112.25,-55.25 162.78,-23.92 332.35,-14.56 422.23,-11.79"/>
<polygon fill="#63b8ff" stroke="#63b8ff" points="66.75,-469.59 70.25,-479.59 73.75,-469.59 66.75,-469.59"/>
</a>
</g>
</g>
<!-- Node4&#45;&gt;Node3 -->
<g id="edge16_Node000004_Node000003" class="edge">
<title>Node4&#45;&gt;Node3</title>
<g id="a_edge16_Node000004_Node000003"><a xlink:title=" ">
<path fill="none" stroke="#63b8ff" d="M233.72,-220.29C182.58,-188.55 76.67,-112.64 127.25,-55.25 146.42,-33.5 327.74,-19.61 422.37,-13.78"/>
<polygon fill="#63b8ff" stroke="#63b8ff" points="231.78,-223.21 242.14,-225.42 235.42,-217.23 231.78,-223.21"/>
</a>
</g>
</g>
<!-- Node4&#45;&gt;Node5 -->
<g id="edge4_Node000004_Node000005" class="edge">
<title>Node4&#45;&gt;Node5</title>
<g id="a_edge4_Node000004_Node000005"><a xlink:title=" ">
<path fill="none" stroke="#63b8ff" d="M292.04,-221.84C319.36,-210.67 357.51,-195.08 381.28,-185.36"/>
<polygon fill="#63b8ff" stroke="#63b8ff" points="290.77,-218.58 282.84,-225.61 293.42,-225.06 290.77,-218.58"/>
</a>
</g>
</g>
<!-- Node4&#45;&gt;Node6 -->
<g id="edge14_Node000004_Node000006" class="edge">
<title>Node4&#45;&gt;Node6</title>
<g id="a_edge14_Node000004_Node000006"><a xlink:title=" ">
<path fill="none" stroke="#63b8ff" d="M260.5,-214.87C262.04,-189.75 264.59,-148.17 265.7,-130.04"/>
<polygon fill="#63b8ff" stroke="#63b8ff" points="257.01,-214.59 259.89,-224.78 264,-215.02 257.01,-214.59"/>
</a>
</g>
</g>
<!-- Node9 -->
<g id="Node000009" class="node">
<title>Node9</title>
<g id="a_Node000009"><a xlink:href="../../db/d83/_scoped_sequence_8hpp.html" target="_top" xlink:title=" ">
<polygon fill="white" stroke="#666666" points="493.12,-129.75 341.38,-129.75 341.38,-110.5 493.12,-110.5 493.12,-129.75"/>
<text text-anchor="middle" x="417.25" y="-116.25" font-family="Helvetica,sans-Serif" font-size="10.00">mimic++/ScopedSequence.hpp</text>
</a>
</g>
</g>
<!-- Node4&#45;&gt;Node9 -->
<g id="edge15_Node000004_Node000009" class="edge">
<title>Node4&#45;&gt;Node9</title>
<g id="a_edge15_Node000004_Node000009"><a xlink:title=" ">
<path fill="none" stroke="#63b8ff" d="M270.66,-217C281,-201.66 297.48,-180.02 316.25,-165.75 337.77,-149.39 366.22,-137.52 387.44,-130.15"/>
<polygon fill="#63b8ff" stroke="#63b8ff" points="267.86,-214.88 265.35,-225.17 273.73,-218.7 267.86,-214.88"/>
</a>
</g>
</g>
<!-- Node5&#45;&gt;Node3 -->
<g id="edge13_Node000005_Node000003" class="edge">
<title>Node5&#45;&gt;Node3</title>
<g id="a_edge13_Node000005_Node000003"><a xlink:title=" ">
<path fill="none" stroke="#63b8ff" d="M460.07,-161.42C476.48,-154.76 492.56,-144.75 502.25,-129.75 525.34,-94.01 497.67,-40.5 484.97,-19.52"/>
<polygon fill="#63b8ff" stroke="#63b8ff" points="458.93,-158.11 450.72,-164.81 461.32,-164.69 458.93,-158.11"/>
</a>
</g>
</g>
<!-- Node5&#45;&gt;Node6 -->
<g id="edge5_Node000005_Node000006" class="edge">
<title>Node5&#45;&gt;Node6</title>
<g id="a_edge5_Node000005_Node000006"><a xlink:title=" ">
<path fill="none" stroke="#63b8ff" d="M369.59,-161.29C344.76,-151.64 311.59,-138.75 289.6,-130.2"/>
<polygon fill="#63b8ff" stroke="#63b8ff" points="368.01,-164.43 378.6,-164.79 370.55,-157.91 368.01,-164.43"/>
</a>
</g>
</g>
<!-- Node5&#45;&gt;Node9 -->
<g id="edge11_Node000005_Node000009" class="edge">
<title>Node5&#45;&gt;Node9</title>
<g id="a_edge11_Node000005_Node000009"><a xlink:title=" ">
<path fill="none" stroke="#63b8ff" d="M408.42,-154.71C410.64,-146.27 413.12,-136.83 414.89,-130.11"/>
<polygon fill="#63b8ff" stroke="#63b8ff" points="405.1,-153.56 405.95,-164.12 411.87,-155.34 405.1,-153.56"/>
</a>
</g>
</g>
<!-- Node6&#45;&gt;Node3 -->
<g id="edge10_Node000006_Node000003" class="edge">
<title>Node6&#45;&gt;Node3</title>
<g id="a_edge10_Node000006_Node000003"><a xlink:title=" ">
<path fill="none" stroke="#63b8ff" d="M327.35,-108.68C370.31,-100.39 423.21,-87.98 441.25,-74.5 460.27,-60.28 471.58,-33.51 476.44,-19.57"/>
<polygon fill="#63b8ff" stroke="#63b8ff" points="326.77,-105.22 317.59,-110.52 328.07,-112.1 326.77,-105.22"/>
</a>
</g>
</g>
<!-- Node7 -->
<g id="Node000007" class="node">
<title>Node7</title>
<g id="a_Node000007"><a xlink:href="../../d9/dc3/_interface_mock_8hpp.html" target="_top" xlink:title=" ">
<polygon fill="white" stroke="#666666" points="274,-74.5 136.5,-74.5 136.5,-55.25 274,-55.25 274,-74.5"/>
<text text-anchor="middle" x="205.25" y="-61" font-family="Helvetica,sans-Serif" font-size="10.00">mimic++/InterfaceMock.hpp</text>
</a>
</g>
</g>
<!-- Node6&#45;&gt;Node7 -->
<g id="edge6_Node000006_Node000007" class="edge">
<title>Node6&#45;&gt;Node7</title>
<g id="a_edge6_Node000006_Node000007"><a xlink:title=" ">
<path fill="none" stroke="#63b8ff" d="M247.36,-102.64C236.83,-93.44 224.13,-82.35 215.44,-74.77"/>
<polygon fill="#63b8ff" stroke="#63b8ff" points="244.93,-105.16 254.76,-109.1 249.53,-99.88 244.93,-105.16"/>
</a>
</g>
</g>
<!-- Node8 -->
<g id="Node000008" class="node">
<title>Node8</title>
<g id="a_Node000008"><a xlink:href="../../d5/d92/_object_watcher_8hpp.html" target="_top" xlink:title=" ">
<polygon fill="white" stroke="#666666" points="432.12,-74.5 292.38,-74.5 292.38,-55.25 432.12,-55.25 432.12,-74.5"/>
<text text-anchor="middle" x="362.25" y="-61" font-family="Helvetica,sans-Serif" font-size="10.00">mimic++/ObjectWatcher.hpp</text>
</a>
</g>
</g>
<!-- Node6&#45;&gt;Node8 -->
<g id="edge8_Node000006_Node000008" class="edge">
<title>Node6&#45;&gt;Node8</title>
<g id="a_edge8_Node000006_Node000008"><a xlink:title=" ">
<path fill="none" stroke="#63b8ff" d="M292.45,-104.59C309.51,-95.13 331.24,-83.08 345.89,-74.95"/>
<polygon fill="#63b8ff" stroke="#63b8ff" points="290.91,-101.45 283.86,-109.36 294.3,-107.57 290.91,-101.45"/>
</a>
</g>
</g>
<!-- Node7&#45;&gt;Node3 -->
<g id="edge7_Node000007_Node000003" class="edge">
<title>Node7&#45;&gt;Node3</title>
<g id="a_edge7_Node000007_Node000003"><a xlink:title=" ">
<path fill="none" stroke="#63b8ff" d="M263.1,-52.63C313.56,-42.83 385.83,-28.78 432.65,-19.68"/>
<polygon fill="#63b8ff" stroke="#63b8ff" points="262.68,-49.15 253.53,-54.49 264.01,-56.02 262.68,-49.15"/>
</a>
</g>
</g>
<!-- Node8&#45;&gt;Node3 -->
<g id="edge9_Node000008_Node000003" class="edge">
<title>Node8&#45;&gt;Node3</title>
<g id="a_edge9_Node000008_Node000003"><a xlink:title=" ">
<path fill="none" stroke="#63b8ff" d="M392.43,-50.14C413.47,-40.56 440.95,-28.06 459.31,-19.7"/>
<polygon fill="#63b8ff" stroke="#63b8ff" points="391.13,-46.89 383.48,-54.21 394.03,-53.26 391.13,-46.89"/>
</a>
</g>
</g>
<!-- Node9&#45;&gt;Node3 -->
<g id="edge12_Node000009_Node000003" class="edge">
<title>Node9&#45;&gt;Node3</title>
<g id="a_edge12_Node000009_Node000003"><a xlink:title=" ">
<path fill="none" stroke="#63b8ff" d="M445.27,-104.07C456.22,-96.68 467.7,-86.71 474.25,-74.5 483.71,-56.86 482.34,-32.45 480.69,-19.51"/>
<polygon fill="#63b8ff" stroke="#63b8ff" points="443.45,-101.08 436.81,-109.33 447.15,-107.03 443.45,-101.08"/>
</a>
</g>
</g>
<!-- Node10&#45;&gt;Node3 -->
<g id="edge20_Node000010_Node000003" class="edge">
<title>Node10&#45;&gt;Node3</title>
<g id="a_edge20_Node000010_Node000003"><a xlink:title=" ">
<path fill="none" stroke="#63b8ff" d="M668.51,-275.79C665.55,-252 661.25,-211.4 661.25,-176.38 661.25,-176.38 661.25,-176.38 661.25,-119.12 661.25,-59.53 588.37,-31.91 534.84,-19.66"/>
<polygon fill="#63b8ff" stroke="#63b8ff" points="665.03,-276.17 669.79,-285.63 671.97,-275.27 665.03,-276.17"/>
</a>
</g>
</g>
<!-- Node11&#45;&gt;Node4 -->
<g id="edge22_Node000011_Node000004" class="edge">
<title>Node11&#45;&gt;Node4</title>
<g id="a_edge22_Node000011_Node000004"><a xlink:title=" ">
<path fill="none" stroke="#63b8ff" d="M468.61,-538.33C427.08,-478.6 295.72,-289.7 265.49,-246.23"/>
<polygon fill="#63b8ff" stroke="#63b8ff" points="465.63,-540.17 474.22,-546.39 471.38,-536.18 465.63,-540.17"/>
</a>
</g>
</g>
<!-- Node11&#45;&gt;Node10 -->
<g id="edge23_Node000011_Node000010" class="edge">
<title>Node11&#45;&gt;Node10</title>
<g id="a_edge23_Node000011_Node000010"><a xlink:title=" ">
<path fill="none" stroke="#63b8ff" d="M479.88,-536.24C478.84,-506.08 480.77,-448.72 506.25,-409.25 540.43,-356.29 609.73,-322.37 646.71,-307.25"/>
<polygon fill="#63b8ff" stroke="#63b8ff" points="476.38,-536.37 480.39,-546.18 483.37,-536.01 476.38,-536.37"/>
</a>
</g>
</g>
<!-- Node12 -->
<g id="Node000012" class="node">
<title>Node12</title>
<g id="a_Node000012"><a xlink:href="../../d1/dfd/_basic_reporter_8hpp.html" target="_top" xlink:title=" ">
<polygon fill="white" stroke="#666666" points="876.88,-434.12 699.62,-434.12 699.62,-414.88 876.88,-414.88 876.88,-434.12"/>
<text text-anchor="middle" x="788.25" y="-420.62" font-family="Helvetica,sans-Serif" font-size="10.00">mimic++/reporting/BasicReporter.hpp</text>
</a>
</g>
</g>
<!-- Node11&#45;&gt;Node12 -->
<g id="edge24_Node000011_Node000012" class="edge">
<title>Node11&#45;&gt;Node12</title>
<g id="a_edge24_Node000011_Node000012"><a xlink:title=" ">
<path fill="none" stroke="#63b8ff" d="M510.35,-542.71C545.42,-526.23 606.25,-498.07 659.25,-475.75 695.35,-460.54 737.78,-444.33 763.84,-434.56"/>
<polygon fill="#63b8ff" stroke="#63b8ff" points="509.25,-539.36 501.7,-546.79 512.23,-545.69 509.25,-539.36"/>
</a>
</g>
</g>
<!-- Node13 -->
<g id="Node000013" class="node">
<title>Node13</title>
<g id="a_Node000013"><a xlink:href="../../d0/d70/_default_reporter_8hpp.html" target="_top" xlink:title=" ">
<polygon fill="white" stroke="#666666" points="643.5,-439.75 515,-439.75 515,-409.25 643.5,-409.25 643.5,-439.75"/>
<text text-anchor="start" x="523" y="-426.25" font-family="Helvetica,sans-Serif" font-size="10.00">mimic++/reporting/Default</text>
<text text-anchor="middle" x="579.25" y="-415" font-family="Helvetica,sans-Serif" font-size="10.00">Reporter.hpp</text>
</a>
</g>
</g>
<!-- Node11&#45;&gt;Node13 -->
<g id="edge26_Node000011_Node000013" class="edge">
<title>Node11&#45;&gt;Node13</title>
<g id="a_edge26_Node000011_Node000013"><a xlink:title=" ">
<path fill="none" stroke="#63b8ff" d="M494.87,-538.29C514.53,-512.01 550.46,-463.99 568.42,-439.97"/>
<polygon fill="#63b8ff" stroke="#63b8ff" points="492.08,-536.18 488.89,-546.28 497.69,-540.37 492.08,-536.18"/>
</a>
</g>
</g>
<!-- Node14 -->
<g id="Node000014" class="node">
<title>Node14</title>
<g id="a_Node000014"><a xlink:href="../../de/dd1/_global_reporter_8hpp.html" target="_top" xlink:title=" ">
<polygon fill="white" stroke="#666666" points="527,-373.25 401.5,-373.25 401.5,-342.75 527,-342.75 527,-373.25"/>
<text text-anchor="start" x="409.5" y="-359.75" font-family="Helvetica,sans-Serif" font-size="10.00">mimic++/reporting/Global</text>
<text text-anchor="middle" x="464.25" y="-348.5" font-family="Helvetica,sans-Serif" font-size="10.00">Reporter.hpp</text>
</a>
</g>
</g>
<!-- Node11&#45;&gt;Node14 -->
<g id="edge39_Node000011_Node000014" class="edge">
<title>Node11&#45;&gt;Node14</title>
<g id="a_edge39_Node000011_Node000014"><a xlink:title=" ">
<path fill="none" stroke="#63b8ff" d="M477.62,-536.54C476.06,-527.34 474.35,-516.27 473.25,-506.25 467.93,-457.88 465.55,-400.2 464.68,-373.67"/>
<polygon fill="#63b8ff" stroke="#63b8ff" points="474.13,-536.91 479.31,-546.15 481.02,-535.69 474.13,-536.91"/>
</a>
</g>
</g>
<!-- Node17 -->
<g id="Node000017" class="node">
<title>Node17</title>
<g id="a_Node000017"><a xlink:href="../../d9/d70/_stringify_reports_8hpp.html" target="_top" xlink:title=" ">
<polygon fill="white" stroke="#666666" points="800.75,-506.25 667.75,-506.25 667.75,-475.75 800.75,-475.75 800.75,-506.25"/>
<text text-anchor="start" x="675.75" y="-492.75" font-family="Helvetica,sans-Serif" font-size="10.00">mimic++/reporting/Stringify</text>
<text text-anchor="middle" x="734.25" y="-481.5" font-family="Helvetica,sans-Serif" font-size="10.00">Reports.hpp</text>
</a>
</g>
</g>
<!-- Node11&#45;&gt;Node17 -->
<g id="edge40_Node000011_Node000017" class="edge">
<title>Node11&#45;&gt;Node17</title>
<g id="a_edge40_Node000011_Node000017"><a xlink:title=" ">
<path fill="none" stroke="#63b8ff" d="M527.99,-544.59C569.98,-533.88 631.79,-518.12 676.79,-506.65"/>
<polygon fill="#63b8ff" stroke="#63b8ff" points="527.25,-541.16 518.43,-547.02 528.98,-547.94 527.25,-541.16"/>
</a>
</g>
</g>
<!-- Node12&#45;&gt;Node10 -->
<g id="edge25_Node000012_Node000010" class="edge">
<title>Node12&#45;&gt;Node10</title>
<g id="a_edge25_Node000012_Node000010"><a xlink:title=" ">
<path fill="none" stroke="#63b8ff" d="M772.23,-406.34C747.01,-379.3 698.91,-327.76 679.59,-307.06"/>
<polygon fill="#63b8ff" stroke="#63b8ff" points="769.42,-408.45 778.8,-413.38 774.54,-403.68 769.42,-408.45"/>
</a>
</g>
</g>
<!-- Node13&#45;&gt;Node10 -->
<g id="edge27_Node000013_Node000010" class="edge">
<title>Node13&#45;&gt;Node10</title>
<g id="a_edge27_Node000013_Node000010"><a xlink:title=" ">
<path fill="none" stroke="#63b8ff" d="M596.51,-399.98C617.13,-371.88 650.61,-326.25 664.69,-307.07"/>
<polygon fill="#63b8ff" stroke="#63b8ff" points="593.79,-397.76 590.7,-407.9 599.44,-401.91 593.79,-397.76"/>
</a>
</g>
</g>
<!-- Node13&#45;&gt;Node14 -->
<g id="edge28_Node000013_Node000014" class="edge">
<title>Node13&#45;&gt;Node14</title>
<g id="a_edge28_Node000013_Node000014"><a xlink:title=" ">
<path fill="none" stroke="#63b8ff" d="M543.43,-403.41C526.21,-393.75 505.95,-382.39 490.24,-373.58"/>
<polygon fill="#63b8ff" stroke="#63b8ff" points="541.4,-406.28 551.83,-408.12 544.82,-400.18 541.4,-406.28"/>
</a>
</g>
</g>
<!-- Node14&#45;&gt;Node4 -->
<g id="edge29_Node000014_Node000004" class="edge">
<title>Node14&#45;&gt;Node4</title>
<g id="a_edge29_Node000014_Node000004"><a xlink:title=" ">
<path fill="none" stroke="#63b8ff" d="M431.03,-336.51C408.16,-322.51 377.01,-303.63 349.25,-287.5 323.87,-272.75 294.08,-256.28 275.93,-246.34"/>
<polygon fill="#63b8ff" stroke="#63b8ff" points="428.96,-339.35 439.32,-341.59 432.62,-333.38 428.96,-339.35"/>
</a>
</g>
</g>
<!-- Node14&#45;&gt;Node10 -->
<g id="edge30_Node000014_Node000010" class="edge">
<title>Node14&#45;&gt;Node10</title>
<g id="a_edge30_Node000014_Node000010"><a xlink:title=" ">
<path fill="none" stroke="#63b8ff" d="M526.67,-339.25C563.77,-328.7 609.27,-315.75 639.2,-307.24"/>
<polygon fill="#63b8ff" stroke="#63b8ff" points="526.07,-335.78 517.41,-341.88 527.98,-342.51 526.07,-335.78"/>
</a>
</g>
</g>
<!-- Node15 -->
<g id="Node000015" class="node">
<title>Node15</title>
<g id="a_Node000015"><a xlink:href="../../d8/de4/_sequence_8hpp.html" target="_top" xlink:title=" ">
<polygon fill="white" stroke="#666666" points="557.62,-306.75 438.88,-306.75 438.88,-287.5 557.62,-287.5 557.62,-306.75"/>
<text text-anchor="middle" x="498.25" y="-293.25" font-family="Helvetica,sans-Serif" font-size="10.00">mimic++/Sequence.hpp</text>
</a>
</g>
</g>
<!-- Node14&#45;&gt;Node15 -->
<g id="edge31_Node000014_Node000015" class="edge">
<title>Node14&#45;&gt;Node15</title>
<g id="a_edge31_Node000014_Node000015"><a xlink:title=" ">
<path fill="none" stroke="#63b8ff" d="M478.26,-332.74C483.47,-323.72 489.07,-314.03 493.01,-307.2"/>
<polygon fill="#63b8ff" stroke="#63b8ff" points="475.38,-330.73 473.41,-341.14 481.44,-334.23 475.38,-330.73"/>
</a>
</g>
</g>
<!-- Node15&#45;&gt;Node3 -->
<g id="edge35_Node000015_Node000003" class="edge">
<title>Node15&#45;&gt;Node3</title>
<g id="a_edge35_Node000015_Node000003"><a xlink:title=" ">
<path fill="none" stroke="#63b8ff" d="M527.17,-281.77C560.95,-262.72 612.25,-225.67 612.25,-176.38 612.25,-176.38 612.25,-176.38 612.25,-119.12 612.25,-65.78 547.23,-33.99 508.11,-19.69"/>
<polygon fill="#63b8ff" stroke="#63b8ff" points="525.79,-278.53 518.66,-286.37 529.12,-284.69 525.79,-278.53"/>
</a>
</g>
</g>
<!-- Node15&#45;&gt;Node4 -->
<g id="edge32_Node000015_Node000004" class="edge">
<title>Node15&#45;&gt;Node4</title>
<g id="a_edge32_Node000015_Node000004"><a xlink:title=" ">
<path fill="none" stroke="#63b8ff" d="M450.37,-284.33C404.91,-273.13 337.53,-256.53 296.11,-246.33"/>
<polygon fill="#63b8ff" stroke="#63b8ff" points="449.41,-287.7 459.96,-286.69 451.09,-280.9 449.41,-287.7"/>
</a>
</g>
</g>
<!-- Node15&#45;&gt;Node5 -->
<g id="edge33_Node000015_Node000005" class="edge">
<title>Node15&#45;&gt;Node5</title>
<g id="a_edge33_Node000015_Node000005"><a xlink:title=" ">
<path fill="none" stroke="#63b8ff" d="M449.3,-283.14C433.25,-276.38 417.04,-266.31 407.25,-251.5 393.71,-231.02 397.9,-200.1 401.08,-185.12"/>
<polygon fill="#63b8ff" stroke="#63b8ff" points="447.74,-286.3 458.33,-286.59 450.24,-279.76 447.74,-286.3"/>
</a>
</g>
</g>
<!-- Node15&#45;&gt;Node9 -->
<g id="edge34_Node000015_Node000009" class="edge">
<title>Node15&#45;&gt;Node9</title>
<g id="a_edge34_Node000015_Node000009"><a xlink:title=" ">
<path fill="none" stroke="#63b8ff" d="M523.7,-280.77C533.62,-273.3 543.87,-263.35 549.25,-251.5 554.85,-239.16 554.64,-233.44 549.25,-221 528.9,-174.07 473.03,-144.12 440.88,-130.22"/>
<polygon fill="#63b8ff" stroke="#63b8ff" points="521.95,-277.72 515.72,-286.29 525.93,-283.48 521.95,-277.72"/>
</a>
</g>
</g>
<!-- Node16 -->
<g id="Node000016" class="node">
<title>Node16</title>
<g id="a_Node000016"><a xlink:href="../../db/d70/_control_policies_8hpp.html" target="_top" xlink:title=" ">
<polygon fill="white" stroke="#666666" points="540.25,-251.5 416.25,-251.5 416.25,-221 540.25,-221 540.25,-251.5"/>
<text text-anchor="start" x="424.25" y="-238" font-family="Helvetica,sans-Serif" font-size="10.00">mimic++/policies/Control</text>
<text text-anchor="middle" x="478.25" y="-226.75" font-family="Helvetica,sans-Serif" font-size="10.00">Policies.hpp</text>
</a>
</g>
</g>
<!-- Node15&#45;&gt;Node16 -->
<g id="edge36_Node000015_Node000016" class="edge">
<title>Node15&#45;&gt;Node16</title>
<g id="a_edge36_Node000015_Node000016"><a xlink:title=" ">
<path fill="none" stroke="#63b8ff" d="M491.58,-276.48C488.84,-268.41 485.72,-259.23 483.19,-251.78"/>
<polygon fill="#63b8ff" stroke="#63b8ff" points="488.2,-277.41 494.73,-285.75 494.82,-275.16 488.2,-277.41"/>
</a>
</g>
</g>
<!-- Node16&#45;&gt;Node3 -->
<g id="edge38_Node000016_Node000003" class="edge">
<title>Node16&#45;&gt;Node3</title>
<g id="a_edge38_Node000016_Node000003"><a xlink:title=" ">
<path fill="none" stroke="#63b8ff" d="M491.19,-210.56C501.36,-189.68 514.71,-158.63 520.25,-129.75 523.2,-114.36 526.23,-73.02 519.25,-55.25 513.47,-40.53 500.45,-27.56 490.83,-19.45"/>
<polygon fill="#63b8ff" stroke="#63b8ff" points="488.11,-208.9 486.76,-219.41 494.37,-212.04 488.11,-208.9"/>
</a>
</g>
</g>
<!-- Node16&#45;&gt;Node5 -->
<g id="edge37_Node000016_Node000005" class="edge">
<title>Node16&#45;&gt;Node5</title>
<g id="a_edge37_Node000016_Node000005"><a xlink:title=" ">
<path fill="none" stroke="#63b8ff" d="M451.01,-213.87C438.55,-204.08 424.44,-193.01 414.81,-185.45"/>
<polygon fill="#63b8ff" stroke="#63b8ff" points="448.49,-216.34 458.52,-219.76 452.82,-210.83 448.49,-216.34"/>
</a>
</g>
</g>
<!-- Node17&#45;&gt;Node10 -->
<g id="edge41_Node000017_Node000010" class="edge">
<title>Node17&#45;&gt;Node10</title>
<g id="a_edge41_Node000017_Node000010"><a xlink:title=" ">
<path fill="none" stroke="#63b8ff" d="M709.44,-467.39C702.11,-459.38 694.83,-449.83 690.25,-439.75 669.22,-393.44 669.69,-330.48 670.71,-307.23"/>
<polygon fill="#63b8ff" stroke="#63b8ff" points="706.75,-469.64 716.24,-474.36 711.76,-464.75 706.75,-469.64"/>
</a>
</g>
</g>
<!-- Node17&#45;&gt;Node12 -->
<g id="edge42_Node000017_Node000012" class="edge">
<title>Node17&#45;&gt;Node12</title>
<g id="a_edge42_Node000017_Node000012"><a xlink:title=" ">
<path fill="none" stroke="#63b8ff" d="M753.68,-466.79C763.11,-455.52 773.89,-442.66 780.86,-434.32"/>
<polygon fill="#63b8ff" stroke="#63b8ff" points="751.21,-464.29 747.48,-474.2 756.58,-468.78 751.21,-464.29"/>
</a>
</g>
</g>
<!-- Node17&#45;&gt;Node13 -->
<g id="edge43_Node000017_Node000013" class="edge">
<title>Node17&#45;&gt;Node13</title>
<g id="a_edge43_Node000017_Node000013"><a xlink:title=" ">
<path fill="none" stroke="#63b8ff" d="M688.59,-471C664.94,-461.16 636.5,-449.32 614.55,-440.19"/>
<polygon fill="#63b8ff" stroke="#63b8ff" points="687.1,-474.17 697.68,-474.78 689.79,-467.71 687.1,-474.17"/>
</a>
</g>
</g>
<!-- Node18&#45;&gt;Node4 -->
<g id="edge45_Node000018_Node000004" class="edge">
<title>Node18&#45;&gt;Node4</title>
<g id="a_edge45_Node000018_Node000004"><a xlink:title=" ">
<path fill="none" stroke="#63b8ff" d="M503.68,-613.07C460.13,-605.8 407.25,-593.44 363.25,-572.75 310.29,-547.85 259.25,-550.52 259.25,-492 259.25,-492 259.25,-492 259.25,-357 259.25,-315.63 259.25,-266.22 259.25,-246.26"/>
<polygon fill="#63b8ff" stroke="#63b8ff" points="502.9,-616.49 513.33,-614.62 504.01,-609.58 502.9,-616.49"/>
</a>
</g>
</g>
<!-- Node18&#45;&gt;Node10 -->
<g id="edge46_Node000018_Node000010" class="edge">
<title>Node18&#45;&gt;Node10</title>
<g id="a_edge46_Node000018_Node000010"><a xlink:title=" ">
<path fill="none" stroke="#63b8ff" d="M674.69,-615.11C723.63,-608.3 785.27,-595.74 836.25,-572.75 890.56,-548.26 943.25,-551.58 943.25,-492 943.25,-492 943.25,-492 943.25,-423.5 943.25,-330.29 809.9,-306.15 729.94,-300.04"/>
<polygon fill="#63b8ff" stroke="#63b8ff" points="674.44,-611.61 664.99,-616.4 675.37,-618.55 674.44,-611.61"/>
</a>
</g>
</g>
<!-- Node18&#45;&gt;Node12 -->
<g id="edge48_Node000018_Node000012" class="edge">
<title>Node18&#45;&gt;Node12</title>
<g id="a_edge48_Node000018_Node000012"><a xlink:title=" ">
<path fill="none" stroke="#63b8ff" d="M674.64,-613.36C729.09,-605.46 792.93,-592.35 812.25,-572.75 842.83,-541.73 840.11,-517.05 826.25,-475.75 820.68,-459.16 807.23,-443.68 797.92,-434.4"/>
<polygon fill="#63b8ff" stroke="#63b8ff" points="674.45,-609.85 665.03,-614.71 675.42,-616.79 674.45,-609.85"/>
</a>
</g>
</g>
<!-- Node18&#45;&gt;Node13 -->
<g id="edge49_Node000018_Node000013" class="edge">
<title>Node18&#45;&gt;Node13</title>
<g id="a_edge49_Node000018_Node000013"><a xlink:title=" ">
<path fill="none" stroke="#63b8ff" d="M587.93,-597.02C585.8,-554.94 581.67,-473.24 579.99,-440.04"/>
<polygon fill="#63b8ff" stroke="#63b8ff" points="584.44,-597.16 588.44,-606.97 591.43,-596.8 584.44,-597.16"/>
</a>
</g>
</g>
<!-- Node18&#45;&gt;Node14 -->
<g id="edge50_Node000018_Node000014" class="edge">
<title>Node18&#45;&gt;Node14</title>
<g id="a_edge50_Node000018_Node000014"><a xlink:title=" ">
<path fill="none" stroke="#63b8ff" d="M503.86,-611.73C457.32,-603.65 406.38,-590.94 392.25,-572.75 343,-509.36 418.8,-410.43 450.95,-373.52"/>
<polygon fill="#63b8ff" stroke="#63b8ff" points="503.01,-615.14 513.45,-613.34 504.17,-608.23 503.01,-615.14"/>
</a>
</g>
</g>
<!-- Node18&#45;&gt;Node16 -->
<g id="edge47_Node000018_Node000016" class="edge">
<title>Node18&#45;&gt;Node16</title>
<g id="a_edge47_Node000018_Node000016"><a xlink:title=" ">
<path fill="none" stroke="#63b8ff" d="M503.65,-613.86C451,-606.27 390.57,-593.32 374.25,-572.75 352,-544.7 391.24,-345.36 392.25,-342.75 406.81,-305.05 440.29,-270.65 460.92,-251.95"/>
<polygon fill="#63b8ff" stroke="#63b8ff" points="502.87,-617.28 513.25,-615.19 503.83,-610.35 502.87,-617.28"/>
</a>
</g>
</g>
<!-- Node18&#45;&gt;Node17 -->
<g id="edge56_Node000018_Node000017" class="edge">
<title>Node18&#45;&gt;Node17</title>
<g id="a_edge56_Node000018_Node000017"><a xlink:title=" ">
<path fill="none" stroke="#63b8ff" d="M605.95,-599.17C618.58,-582.14 636.99,-559.32 656.25,-542.25 671.8,-528.47 691.48,-515.81 707.19,-506.65"/>
<polygon fill="#63b8ff" stroke="#63b8ff" points="603.16,-597.06 600.11,-607.21 608.82,-601.18 603.16,-597.06"/>
</a>
</g>
</g>
<!-- Node19 -->
<g id="Node000019" class="node">
<title>Node19</title>
<g id="a_Node000019"><a xlink:href="../../de/d3f/_no_match_report_8hpp.html" target="_top" xlink:title=" ">
<polygon fill="white" stroke="#666666" points="803,-572.75 665.5,-572.75 665.5,-542.25 803,-542.25 803,-572.75"/>
<text text-anchor="start" x="673.5" y="-559.25" font-family="Helvetica,sans-Serif" font-size="10.00">mimic++/reporting/NoMatch</text>
<text text-anchor="middle" x="734.25" y="-548" font-family="Helvetica,sans-Serif" font-size="10.00">Report.hpp</text>
</a>
</g>
</g>
<!-- Node18&#45;&gt;Node19 -->
<g id="edge51_Node000018_Node000019" class="edge">
<title>Node18&#45;&gt;Node19</title>
<g id="a_edge51_Node000018_Node000019"><a xlink:title=" ">
<path fill="none" stroke="#63b8ff" d="M632.56,-603.73C654.57,-593.94 680.88,-582.24 701.23,-573.19"/>
<polygon fill="#63b8ff" stroke="#63b8ff" points="631.25,-600.49 623.54,-607.75 634.09,-606.88 631.25,-600.49"/>
</a>
</g>
</g>
<!-- Node19&#45;&gt;Node10 -->
<g id="edge52_Node000019_Node000010" class="edge">
<title>Node19&#45;&gt;Node10</title>
<g id="a_edge52_Node000019_Node000010"><a xlink:title=" ">
<path fill="none" stroke="#63b8ff" d="M782.38,-537.16C838.4,-511.62 919.28,-463.5 886.25,-409.25 849.65,-349.14 768.9,-320.11 717.45,-307.23"/>
<polygon fill="#63b8ff" stroke="#63b8ff" points="781,-533.94 773.28,-541.2 783.84,-540.34 781,-533.94"/>
</a>
</g>
</g>
<!-- Node19&#45;&gt;Node12 -->
<g id="edge53_Node000019_Node000012" class="edge">
<title>Node19&#45;&gt;Node12</title>
<g id="a_edge53_Node000019_Node000012"><a xlink:title=" ">
<path fill="none" stroke="#63b8ff" d="M780.19,-536.32C792.13,-528.71 803.51,-518.78 810.25,-506.25 823.19,-482.19 805.26,-449.92 794.82,-434.47"/>
<polygon fill="#63b8ff" stroke="#63b8ff" points="778.76,-533.1 771.89,-541.17 782.29,-539.15 778.76,-533.1"/>
</a>
</g>
</g>
<!-- Node19&#45;&gt;Node13 -->
<g id="edge54_Node000019_Node000013" class="edge">
<title>Node19&#45;&gt;Node13</title>
<g id="a_edge54_Node000019_Node000013"><a xlink:title=" ">
<path fill="none" stroke="#63b8ff" d="M700.07,-535.66C686.89,-527.1 671.96,-516.75 659.25,-506.25 633.68,-485.14 607.22,-456.96 592.05,-440.08"/>
<polygon fill="#63b8ff" stroke="#63b8ff" points="698.15,-538.58 708.46,-541.01 701.91,-532.68 698.15,-538.58"/>
</a>
</g>
</g>
<!-- Node19&#45;&gt;Node17 -->
<g id="edge55_Node000019_Node000017" class="edge">
<title>Node19&#45;&gt;Node17</title>
<g id="a_edge55_Node000019_Node000017"><a xlink:title=" ">
<path fill="none" stroke="#63b8ff" d="M734.25,-530.56C734.25,-522.39 734.25,-513.66 734.25,-506.58"/>
<polygon fill="#63b8ff" stroke="#63b8ff" points="730.75,-530.35 734.25,-540.35 737.75,-530.35 730.75,-530.35"/>
</a>
</g>
</g>
</g>
</svg>
