<?xml version="1.0" encoding="UTF-8" standalone="no"?>
<!DOCTYPE svg PUBLIC "-//W3C//DTD SVG 1.1//EN"
 "http://www.w3.org/Graphics/SVG/1.1/DTD/svg11.dtd">
<!-- Generated by graphviz version 12.2.1 (20241206.2353)
 -->
<!-- Title: mimic++/utilities/TypeList.hpp Pages: 1 -->
<svg width="415pt" height="193pt"
 viewBox="0.00 0.00 414.88 193.00" xmlns="http://www.w3.org/2000/svg" xmlns:xlink="http://www.w3.org/1999/xlink">

<svg id="main" version="1.1" xmlns="http://www.w3.org/2000/svg" xmlns:xlink="http://www.w3.org/1999/xlink" xml:space="preserve">

<style type="text/css"><![CDATA[
.node, .edge {opacity: 0.7;}
.node.selected, .edge.selected {opacity: 1;}
.edge:hover path { stroke: red; }
.edge:hover polygon { stroke: red; fill: red; }
]]></style>
<script type="application/ecmascript" xlink:href="../../svg.min.js"/>
<svg id="graph" class="graph">
<g id="graph0" class="graph" transform="scale(1 1) rotate(0) translate(4 189)">
<title>mimic++/utilities/TypeList.hpp</title>
<!-- Node1 -->
<g id="Node000001" class="node">
<title>Node1</title>
<g id="a_Node000001"><a xlink:title=" ">
<polygon fill="#999999" stroke="#666666" points="329.62,-185 183.12,-185 183.12,-165.75 329.62,-165.75 329.62,-185"/>
<text text-anchor="middle" x="256.38" y="-171.5" font-family="Helvetica,sans-Serif" font-size="10.00">mimic++/utilities/TypeList.hpp</text>
</a>
</g>
</g>
<!-- Node2 -->
<g id="Node000002" class="node">
<title>Node2</title>
<g id="a_Node000002"><a xlink:href="../../d8/dd2/_config_8hpp.html" target="_top" xlink:title=" ">
<polygon fill="white" stroke="#666666" points="130.75,-74.5 0,-74.5 0,-55.25 130.75,-55.25 130.75,-74.5"/>
<text text-anchor="middle" x="65.38" y="-61" font-family="Helvetica,sans-Serif" font-size="10.00">mimic++/config/Config.hpp</text>
</a>
</g>
</g>
<!-- Node1&#45;&gt;Node2 -->
<g id="edge1_Node000001_Node000002" class="edge">
<title>Node1&#45;&gt;Node2</title>
<g id="a_edge1_Node000001_Node000002"><a xlink:title=" ">
<path fill="none" stroke="#63b8ff" d="M182.63,-168.06C130.47,-161.89 66.97,-150.33 50.38,-129.75 40.1,-117.02 46.08,-98.47 53.3,-84.64"/>
<polygon fill="#63b8ff" stroke="#63b8ff" points="56.29,-86.46 58.31,-76.06 50.25,-82.93 56.29,-86.46"/>
</a>
</g>
</g>
<!-- Node5 -->
<g id="Node000005" class="node">
<title>Node5</title>
<g id="a_Node000005"><a xlink:href="../../d9/db9/_concepts_8hpp.html" target="_top" xlink:title=" ">
<polygon fill="white" stroke="#666666" points="209.5,-129.75 59.25,-129.75 59.25,-110.5 209.5,-110.5 209.5,-129.75"/>
<text text-anchor="middle" x="134.38" y="-116.25" font-family="Helvetica,sans-Serif" font-size="10.00">mimic++/utilities/Concepts.hpp</text>
</a>
</g>
</g>
<!-- Node1&#45;&gt;Node5 -->
<g id="edge4_Node000001_Node000005" class="edge">
<title>Node1&#45;&gt;Node5</title>
<g id="a_edge4_Node000001_Node000005"><a xlink:title=" ">
<path fill="none" stroke="#63b8ff" d="M235.68,-165.34C216.49,-156.97 187.66,-144.38 165.66,-134.78"/>
<polygon fill="#63b8ff" stroke="#63b8ff" points="167.12,-131.6 156.56,-130.81 164.32,-138.02 167.12,-131.6"/>
</a>
</g>
</g>
<!-- Node6 -->
<g id="Node000006" class="node">
<title>Node6</title>
<g id="a_Node000006"><a xlink:title=" ">
<polygon fill="#e0e0e0" stroke="#999999" points="221.25,-74.5 165.5,-74.5 165.5,-55.25 221.25,-55.25 221.25,-74.5"/>
<text text-anchor="middle" x="193.38" y="-61" font-family="Helvetica,sans-Serif" font-size="10.00">concepts</text>
</a>
</g>
</g>
<!-- Node1&#45;&gt;Node6 -->
<g id="edge8_Node000001_Node000006" class="edge">
<title>Node1&#45;&gt;Node6</title>
<g id="a_edge8_Node000001_Node000006"><a xlink:title=" ">
<path fill="none" stroke="#63b8ff" d="M251.22,-165.5C241.02,-147.93 218.07,-108.41 204.34,-84.77"/>
<polygon fill="#63b8ff" stroke="#63b8ff" points="207.41,-83.08 199.36,-76.19 201.36,-86.59 207.41,-83.08"/>
</a>
</g>
</g>
<!-- Node7 -->
<g id="Node000007" class="node">
<title>Node7</title>
<g id="a_Node000007"><a xlink:title=" ">
<polygon fill="#e0e0e0" stroke="#999999" points="285.62,-74.5 247.12,-74.5 247.12,-55.25 285.62,-55.25 285.62,-74.5"/>
<text text-anchor="middle" x="266.38" y="-61" font-family="Helvetica,sans-Serif" font-size="10.00">utility</text>
</a>
</g>
</g>
<!-- Node1&#45;&gt;Node7 -->
<g id="edge11_Node000001_Node000007" class="edge">
<title>Node1&#45;&gt;Node7</title>
<g id="a_edge11_Node000001_Node000007"><a xlink:title=" ">
<path fill="none" stroke="#63b8ff" d="M257.19,-165.5C258.78,-148.25 262.32,-109.83 264.51,-86.06"/>
<polygon fill="#63b8ff" stroke="#63b8ff" points="267.97,-86.66 265.41,-76.38 261,-86.02 267.97,-86.66"/>
</a>
</g>
</g>
<!-- Node8 -->
<g id="Node000008" class="node">
<title>Node8</title>
<g id="a_Node000008"><a xlink:title=" ">
<polygon fill="#e0e0e0" stroke="#999999" points="351.5,-129.75 303.25,-129.75 303.25,-110.5 351.5,-110.5 351.5,-129.75"/>
<text text-anchor="middle" x="327.38" y="-116.25" font-family="Helvetica,sans-Serif" font-size="10.00">cstddef</text>
</a>
</g>
</g>
<!-- Node1&#45;&gt;Node8 -->
<g id="edge9_Node000001_Node000008" class="edge">
<title>Node1&#45;&gt;Node8</title>
<g id="a_edge9_Node000001_Node000008"><a xlink:title=" ">
<path fill="none" stroke="#63b8ff" d="M268.42,-165.34C278.78,-157.57 293.98,-146.17 306.34,-136.9"/>
<polygon fill="#63b8ff" stroke="#63b8ff" points="308.4,-139.73 314.3,-130.93 304.2,-134.13 308.4,-139.73"/>
</a>
</g>
</g>
<!-- Node9 -->
<g id="Node000009" class="node">
<title>Node9</title>
<g id="a_Node000009"><a xlink:title=" ">
<polygon fill="#e0e0e0" stroke="#999999" points="406.88,-129.75 369.88,-129.75 369.88,-110.5 406.88,-110.5 406.88,-129.75"/>
<text text-anchor="middle" x="388.38" y="-116.25" font-family="Helvetica,sans-Serif" font-size="10.00">tuple</text>
</a>
</g>
</g>
<!-- Node1&#45;&gt;Node9 -->
<g id="edge10_Node000001_Node000009" class="edge">
<title>Node1&#45;&gt;Node9</title>
<g id="a_edge10_Node000001_Node000009"><a xlink:title=" ">
<path fill="none" stroke="#63b8ff" d="M278.77,-165.34C300.96,-156.39 335.07,-142.63 359.34,-132.84"/>
<polygon fill="#63b8ff" stroke="#63b8ff" points="360.35,-136.2 368.32,-129.22 357.73,-129.71 360.35,-136.2"/>
</a>
</g>
</g>
<!-- Node3 -->
<g id="Node000003" class="node">
<title>Node3</title>
<g id="a_Node000003"><a xlink:title=" ">
<polygon fill="#e0e0e0" stroke="#999999" points="56,-19.25 10.75,-19.25 10.75,0 56,0 56,-19.25"/>
<text text-anchor="middle" x="33.38" y="-5.75" font-family="Helvetica,sans-Serif" font-size="10.00">cstdint</text>
</a>
</g>
</g>
<!-- Node2&#45;&gt;Node3 -->
<g id="edge2_Node000002_Node000003" class="edge">
<title>Node2&#45;&gt;Node3</title>
<g id="a_edge2_Node000002_Node000003"><a xlink:title=" ">
<path fill="none" stroke="#63b8ff" d="M60.09,-55.08C55.9,-48.11 49.9,-38.12 44.64,-29.37"/>
<polygon fill="#63b8ff" stroke="#63b8ff" points="47.7,-27.68 39.55,-20.91 41.7,-31.28 47.7,-27.68"/>
</a>
</g>
</g>
<!-- Node4 -->
<g id="Node000004" class="node">
<title>Node4</title>
<g id="a_Node000004"><a xlink:title=" ">
<polygon fill="#e0e0e0" stroke="#999999" points="121.12,-19.25 73.62,-19.25 73.62,0 121.12,0 121.12,-19.25"/>
<text text-anchor="middle" x="97.38" y="-5.75" font-family="Helvetica,sans-Serif" font-size="10.00">version</text>
</a>
</g>
</g>
<!-- Node2&#45;&gt;Node4 -->
<g id="edge3_Node000002_Node000004" class="edge">
<title>Node2&#45;&gt;Node4</title>
<g id="a_edge3_Node000002_Node000004"><a xlink:title=" ">
<path fill="none" stroke="#63b8ff" d="M70.66,-55.08C74.85,-48.11 80.85,-38.12 86.11,-29.37"/>
<polygon fill="#63b8ff" stroke="#63b8ff" points="89.05,-31.28 91.2,-20.91 83.05,-27.68 89.05,-31.28"/>
</a>
</g>
</g>
<!-- Node5&#45;&gt;Node2 -->
<g id="edge5_Node000005_Node000002" class="edge">
<title>Node5&#45;&gt;Node2</title>
<g id="a_edge5_Node000005_Node000002"><a xlink:title=" ">
<path fill="none" stroke="#63b8ff" d="M122.67,-110.09C112.6,-102.32 97.83,-90.92 85.81,-81.65"/>
<polygon fill="#63b8ff" stroke="#63b8ff" points="88.16,-79.04 78.11,-75.7 83.88,-84.58 88.16,-79.04"/>
</a>
</g>
</g>
<!-- Node5&#45;&gt;Node6 -->
<g id="edge6_Node000005_Node000006" class="edge">
<title>Node5&#45;&gt;Node6</title>
<g id="a_edge6_Node000005_Node000006"><a xlink:title=" ">
<path fill="none" stroke="#63b8ff" d="M144.38,-110.09C152.74,-102.55 164.87,-91.6 174.98,-82.48"/>
<polygon fill="#63b8ff" stroke="#63b8ff" points="177.31,-85.09 182.39,-75.79 172.62,-79.89 177.31,-85.09"/>
</a>
</g>
</g>
<!-- Node5&#45;&gt;Node7 -->
<g id="edge7_Node000005_Node000007" class="edge">
<title>Node5&#45;&gt;Node7</title>
<g id="a_edge7_Node000005_Node000007"><a xlink:title=" ">
<path fill="none" stroke="#63b8ff" d="M156.77,-110.09C178.71,-101.24 212.29,-87.69 236.5,-77.93"/>
<polygon fill="#63b8ff" stroke="#63b8ff" points="237.52,-81.29 245.49,-74.3 234.9,-74.8 237.52,-81.29"/>
</a>
</g>
</g>
</g>
</svg>
</svg>

<style type='text/css'>
<![CDATA[
[data-mouse-over-selected='false'] { opacity: 0.7; }
[data-mouse-over-selected='true']  { opacity: 1.0; }
]]>
</style>
<script type="application/ecmascript"><![CDATA[
document.addEventListener('DOMContentLoaded', (event) => {
  highlightEdges();
  highlightAdjacentNodes();
});
]]></script>
</svg>
