<?xml version="1.0" encoding="UTF-8" standalone="no"?>
<!DOCTYPE svg PUBLIC "-//W3C//DTD SVG 1.1//EN"
 "http://www.w3.org/Graphics/SVG/1.1/DTD/svg11.dtd">
<!-- Generated by graphviz version 12.2.1 (20241206.2353)
 -->
<!-- Title: mimic++/utilities/C++23Backports.hpp Pages: 1 -->
<svg width="322pt" height="149pt"
 viewBox="0.00 0.00 321.88 149.00" xmlns="http://www.w3.org/2000/svg" xmlns:xlink="http://www.w3.org/1999/xlink">
<g id="graph0" class="graph" transform="scale(1 1) rotate(0) translate(4 145)">
<title>mimic++/utilities/C++23Backports.hpp</title>
<!-- Node1 -->
<g id="Node000001" class="node">
<title>Node1</title>
<g id="a_Node000001"><a xlink:title=" ">
<polygon fill="#999999" stroke="#666666" points="234.75,-141 134,-141 134,-110.5 234.75,-110.5 234.75,-141"/>
<text text-anchor="start" x="142" y="-127.5" font-family="Helvetica,sans-Serif" font-size="10.00">mimic++/utilities/C</text>
<text text-anchor="middle" x="184.38" y="-116.25" font-family="Helvetica,sans-Serif" font-size="10.00">++23Backports.hpp</text>
</a>
</g>
</g>
<!-- Node2 -->
<g id="Node000002" class="node">
<title>Node2</title>
<g id="a_Node000002"><a xlink:href="../../d8/dd2/_config_8hpp.html" target="_top" xlink:title=" ">
<polygon fill="white" stroke="#666666" points="130.75,-74.5 0,-74.5 0,-55.25 130.75,-55.25 130.75,-74.5"/>
<text text-anchor="middle" x="65.38" y="-61" font-family="Helvetica,sans-Serif" font-size="10.00">mimic++/config/Config.hpp</text>
</a>
</g>
</g>
<!-- Node1&#45;&gt;Node2 -->
<g id="edge1_Node000001_Node000002" class="edge">
<title>Node1&#45;&gt;Node2</title>
<g id="a_edge1_Node000001_Node000002"><a xlink:title=" ">
<path fill="none" stroke="#63b8ff" d="M154.65,-110.05C136.01,-100.82 112.11,-89 93.73,-79.9"/>
<polygon fill="#63b8ff" stroke="#63b8ff" points="95.5,-76.87 84.98,-75.58 92.39,-83.15 95.5,-76.87"/>
</a>
</g>
</g>
<!-- Node4 -->
<g id="Node000004" class="node">
<title>Node4</title>
<g id="a_Node000004"><a xlink:title=" ">
<polygon fill="#e0e0e0" stroke="#999999" points="167.12,-19.25 119.62,-19.25 119.62,0 167.12,0 167.12,-19.25"/>
<text text-anchor="middle" x="143.38" y="-5.75" font-family="Helvetica,sans-Serif" font-size="10.00">version</text>
</a>
</g>
</g>
<!-- Node1&#45;&gt;Node4 -->
<g id="edge6_Node000001_Node000004" class="edge">
<title>Node1&#45;&gt;Node4</title>
<g id="a_edge6_Node000001_Node000004"><a xlink:title=" ">
<path fill="none" stroke="#63b8ff" d="M179.18,-110.3C171.91,-90.06 158.68,-53.22 150.49,-30.44"/>
<polygon fill="#63b8ff" stroke="#63b8ff" points="153.82,-29.35 147.15,-21.12 147.23,-31.72 153.82,-29.35"/>
</a>
</g>
</g>
<!-- Node5 -->
<g id="Node000005" class="node">
<title>Node5</title>
<g id="a_Node000005"><a xlink:title=" ">
<polygon fill="#e0e0e0" stroke="#999999" points="234.5,-74.5 186.25,-74.5 186.25,-55.25 234.5,-55.25 234.5,-74.5"/>
<text text-anchor="middle" x="210.38" y="-61" font-family="Helvetica,sans-Serif" font-size="10.00">cassert</text>
</a>
</g>
</g>
<!-- Node1&#45;&gt;Node5 -->
<g id="edge4_Node000001_Node000005" class="edge">
<title>Node1&#45;&gt;Node5</title>
<g id="a_edge4_Node000001_Node000005"><a xlink:title=" ">
<path fill="none" stroke="#63b8ff" d="M190.8,-110.2C194.11,-102.7 198.2,-93.45 201.78,-85.35"/>
<polygon fill="#63b8ff" stroke="#63b8ff" points="204.92,-86.9 205.76,-76.34 198.51,-84.07 204.92,-86.9"/>
</a>
</g>
</g>
<!-- Node6 -->
<g id="Node000006" class="node">
<title>Node6</title>
<g id="a_Node000006"><a xlink:title=" ">
<polygon fill="#e0e0e0" stroke="#999999" points="313.88,-74.5 252.88,-74.5 252.88,-55.25 313.88,-55.25 313.88,-74.5"/>
<text text-anchor="middle" x="283.38" y="-61" font-family="Helvetica,sans-Serif" font-size="10.00">type_traits</text>
</a>
</g>
</g>
<!-- Node1&#45;&gt;Node6 -->
<g id="edge5_Node000001_Node000006" class="edge">
<title>Node1&#45;&gt;Node6</title>
<g id="a_edge5_Node000001_Node000006"><a xlink:title=" ">
<path fill="none" stroke="#63b8ff" d="M209.1,-110.05C224.18,-101.08 243.39,-89.66 258.49,-80.67"/>
<polygon fill="#63b8ff" stroke="#63b8ff" points="260.09,-83.8 266.89,-75.68 256.51,-77.78 260.09,-83.8"/>
</a>
</g>
</g>
<!-- Node3 -->
<g id="Node000003" class="node">
<title>Node3</title>
<g id="a_Node000003"><a xlink:title=" ">
<polygon fill="#e0e0e0" stroke="#999999" points="88,-19.25 42.75,-19.25 42.75,0 88,0 88,-19.25"/>
<text text-anchor="middle" x="65.38" y="-5.75" font-family="Helvetica,sans-Serif" font-size="10.00">cstdint</text>
</a>
</g>
</g>
<!-- Node2&#45;&gt;Node3 -->
<g id="edge2_Node000002_Node000003" class="edge">
<title>Node2&#45;&gt;Node3</title>
<g id="a_edge2_Node000002_Node000003"><a xlink:title=" ">
<path fill="none" stroke="#63b8ff" d="M65.38,-55.08C65.38,-48.57 65.38,-39.42 65.38,-31.12"/>
<polygon fill="#63b8ff" stroke="#63b8ff" points="68.88,-31.12 65.38,-21.12 61.88,-31.12 68.88,-31.12"/>
</a>
</g>
</g>
<!-- Node2&#45;&gt;Node4 -->
<g id="edge3_Node000002_Node000004" class="edge">
<title>Node2&#45;&gt;Node4</title>
<g id="a_edge3_Node000002_Node000004"><a xlink:title=" ">
<path fill="none" stroke="#63b8ff" d="M78.61,-54.84C90.15,-46.96 107.14,-35.36 120.82,-26.02"/>
<polygon fill="#63b8ff" stroke="#63b8ff" points="122.54,-29.08 128.83,-20.56 118.6,-23.3 122.54,-29.08"/>
</a>
</g>
</g>
</g>
</svg>
