<?xml version="1.0" encoding="UTF-8" standalone="no"?>
<!DOCTYPE svg PUBLIC "-//W3C//DTD SVG 1.1//EN"
 "http://www.w3.org/Graphics/SVG/1.1/DTD/svg11.dtd">
<!-- Generated by graphviz version 12.2.1 (20241206.2353)
 -->
<!-- Title: mimic++/printing/state/Print.hpp Pages: 1 -->
<!--zoomable 260 -->

<svg id="main" version="1.1" xmlns="http://www.w3.org/2000/svg" xmlns:xlink="http://www.w3.org/1999/xlink" xml:space="preserve" onload="init(evt)">

<style type="text/css"><![CDATA[
.node, .edge {opacity: 0.7;}
.node.selected, .edge.selected {opacity: 1;}
.edge:hover path { stroke: red; }
.edge:hover polygon { stroke: red; fill: red; }
]]></style>

<defs>
  <circle id="rim" cx="0" cy="0" r="7"/>
  <circle id="rim2" cx="0" cy="0" r="3.5"/>
  <g id="zoomPlus">
    <use xlink:href="#rim" fill="#404040"><set attributeName="fill" to="#808080" begin="zoomplus.mouseover" end="zoomplus.mouseout"/></use>
    <path d="M-4,0h8M0,-4v8" fill="none" stroke="white" stroke-width="1.5" pointer-events="none"/>
  </g>
  <g id="zoomMin">
    <use xlink:href="#rim" fill="#404040"><set attributeName="fill" to="#808080" begin="zoomminus.mouseover" end="zoomminus.mouseout"/></use>
    <path d="M-4,0h8" fill="none" stroke="white" stroke-width="1.5" pointer-events="none"/>
  </g>
  <g id="arrowUp" transform="translate(30 24)">
    <use xlink:href="#rim"/>
    <path pointer-events="none" fill="none" stroke="white" stroke-width="1.5" d="M0,-3.0v7 M-2.5,-0.5L0,-3.0L2.5,-0.5"/>
  </g>
  <g id="arrowRight" transform="rotate(90) translate(36 -43)">
    <use xlink:href="#rim"/>
    <path pointer-events="none" fill="none" stroke="white" stroke-width="1.5" d="M0,-3.0v7 M-2.5,-0.5L0,-3.0L2.5,-0.5"/>
  </g>
  <g id="arrowDown" transform="rotate(180) translate(-30 -48)">
    <use xlink:href="#rim"/>
    <path pointer-events="none" fill="none" stroke="white" stroke-width="1.5" d="M0,-3.0v7 M-2.5,-0.5L0,-3.0L2.5,-0.5"/>
  </g>
  <g id="arrowLeft" transform="rotate(270) translate(-36 17)">
    <use xlink:href="#rim"/>
    <path pointer-events="none" fill="none" stroke="white" stroke-width="1.5" d="M0,-3.0v7 M-2.5,-0.5L0,-3.0L2.5,-0.5"/>
  </g>
  <g id="resetDef">
    <use xlink:href="#rim2" fill="#404040"><set attributeName="fill" to="#808080" begin="reset.mouseover" end="reset.mouseout"/></use>
  </g>
</defs>
<script type="application/ecmascript">
var viewWidth = 1053;
var viewHeight = 260;
var sectionId = 'dynsection-0';
</script>
<script type="application/ecmascript" xlink:href="../../svg.min.js"/>
<svg id="graph" class="graph">
<g id="viewport">
<title>mimic++/printing/state/Print.hpp</title>
<!-- Node1 -->
<g id="Node000001" class="node">
<title>Node1</title>
<g id="a_Node000001"><a xlink:title=" ">
<polygon fill="#999999" stroke="#666666" points="756.88,-251.5 643.38,-251.5 643.38,-221 756.88,-221 756.88,-251.5"/>
<text text-anchor="start" x="651.38" y="-238" font-family="Helvetica,sans-Serif" font-size="10.00">mimic++/printing/state</text>
<text text-anchor="middle" x="700.12" y="-226.75" font-family="Helvetica,sans-Serif" font-size="10.00">/Print.hpp</text>
</a>
</g>
</g>
<!-- Node2 -->
<g id="Node000002" class="node">
<title>Node2</title>
<g id="a_Node000002"><a xlink:href="../../df/dde/_fwd_8hpp.html" target="_top" xlink:title=" ">
<polygon fill="white" stroke="#666666" points="600.12,-129.75 506.12,-129.75 506.12,-110.5 600.12,-110.5 600.12,-129.75"/>
<text text-anchor="middle" x="553.12" y="-116.25" font-family="Helvetica,sans-Serif" font-size="10.00">mimic++/Fwd.hpp</text>
</a>
</g>
</g>
<!-- Node1&#45;&gt;Node2 -->
<g id="edge1_Node000001_Node000002" class="edge">
<title>Node1&#45;&gt;Node2</title>
<g id="a_edge1_Node000001_Node000002"><a xlink:title=" ">
<path fill="none" stroke="#63b8ff" d="M642.98,-224.62C618.17,-217.31 590.62,-205.13 572.12,-185 561.22,-173.13 556.56,-155.25 554.57,-141.43"/>
<polygon fill="#63b8ff" stroke="#63b8ff" points="558.07,-141.25 553.56,-131.67 551.11,-141.98 558.07,-141.25"/>
</a>
</g>
</g>
<!-- Node8 -->
<g id="Node000008" class="node">
<title>Node8</title>
<g id="a_Node000008"><a xlink:href="../../d4/d2c/_utility_8hpp.html" target="_top" xlink:title=" ">
<polygon fill="white" stroke="#666666" points="393.12,-185 293.12,-185 293.12,-165.75 393.12,-165.75 393.12,-185"/>
<text text-anchor="middle" x="343.12" y="-171.5" font-family="Helvetica,sans-Serif" font-size="10.00">mimic++/Utility.hpp</text>
</a>
</g>
</g>
<!-- Node1&#45;&gt;Node8 -->
<g id="edge7_Node000001_Node000008" class="edge">
<title>Node1&#45;&gt;Node8</title>
<g id="a_edge7_Node000001_Node000008"><a xlink:title=" ">
<path fill="none" stroke="#63b8ff" d="M643.16,-225.86C578.03,-215.11 471.78,-197.59 404.76,-186.54"/>
<polygon fill="#63b8ff" stroke="#63b8ff" points="405.47,-183.11 395.03,-184.93 404.33,-190.02 405.47,-183.11"/>
</a>
</g>
</g>
<!-- Node15 -->
<g id="Node000015" class="node">
<title>Node15</title>
<g id="a_Node000015"><a xlink:title=" ">
<polygon fill="#e0e0e0" stroke="#999999" points="488.38,-129.75 449.88,-129.75 449.88,-110.5 488.38,-110.5 488.38,-129.75"/>
<text text-anchor="middle" x="469.12" y="-116.25" font-family="Helvetica,sans-Serif" font-size="10.00">utility</text>
</a>
</g>
</g>
<!-- Node1&#45;&gt;Node15 -->
<g id="edge29_Node000001_Node000015" class="edge">
<title>Node1&#45;&gt;Node15</title>
<g id="a_edge29_Node000001_Node000015"><a xlink:title=" ">
<path fill="none" stroke="#63b8ff" d="M646.63,-220.51C619.09,-211.92 585.44,-199.85 557.12,-185 531.45,-171.54 504.91,-151.24 487.79,-137.16"/>
<polygon fill="#63b8ff" stroke="#63b8ff" points="490.38,-134.76 480.47,-131.02 485.88,-140.13 490.38,-134.76"/>
</a>
</g>
</g>
<!-- Node16 -->
<g id="Node000016" class="node">
<title>Node16</title>
<g id="a_Node000016"><a xlink:href="../../d5/dec/_format_8hpp.html" target="_top" xlink:title=" ">
<polygon fill="white" stroke="#666666" points="721.38,-185 580.88,-185 580.88,-165.75 721.38,-165.75 721.38,-185"/>
<text text-anchor="middle" x="651.12" y="-171.5" font-family="Helvetica,sans-Serif" font-size="10.00">mimic++/printing/Format.hpp</text>
</a>
</g>
</g>
<!-- Node1&#45;&gt;Node16 -->
<g id="edge17_Node000001_Node000016" class="edge">
<title>Node1&#45;&gt;Node16</title>
<g id="a_edge17_Node000001_Node000016"><a xlink:title=" ">
<path fill="none" stroke="#63b8ff" d="M688.01,-220.7C681.34,-212.68 673.01,-202.67 665.95,-194.19"/>
<polygon fill="#63b8ff" stroke="#63b8ff" points="668.73,-192.06 659.65,-186.61 663.35,-196.54 668.73,-192.06"/>
</a>
</g>
</g>
<!-- Node19 -->
<g id="Node000019" class="node">
<title>Node19</title>
<g id="a_Node000019"><a xlink:title=" ">
<polygon fill="#e0e0e0" stroke="#999999" points="922.62,-129.75 861.62,-129.75 861.62,-110.5 922.62,-110.5 922.62,-129.75"/>
<text text-anchor="middle" x="892.12" y="-116.25" font-family="Helvetica,sans-Serif" font-size="10.00">type_traits</text>
</a>
</g>
</g>
<!-- Node1&#45;&gt;Node19 -->
<g id="edge28_Node000001_Node000019" class="edge">
<title>Node1&#45;&gt;Node19</title>
<g id="a_edge28_Node000001_Node000019"><a xlink:title=" ">
<path fill="none" stroke="#63b8ff" d="M711.13,-220.57C723.47,-205.03 744.83,-180.71 768.12,-165.75 793.33,-149.56 825.2,-138.26 850.31,-131.08"/>
<polygon fill="#63b8ff" stroke="#63b8ff" points="851.14,-134.48 859.87,-128.47 849.3,-127.73 851.14,-134.48"/>
</a>
</g>
</g>
<!-- Node21 -->
<g id="Node000021" class="node">
<title>Node21</title>
<g id="a_Node000021"><a xlink:href="../../de/d52/printing_2_fwd_8hpp.html" target="_top" xlink:title=" ">
<polygon fill="white" stroke="#666666" points="905.38,-185 776.88,-185 776.88,-165.75 905.38,-165.75 905.38,-185"/>
<text text-anchor="middle" x="841.12" y="-171.5" font-family="Helvetica,sans-Serif" font-size="10.00">mimic++/printing/Fwd.hpp</text>
</a>
</g>
</g>
<!-- Node1&#45;&gt;Node21 -->
<g id="edge25_Node000001_Node000021" class="edge">
<title>Node1&#45;&gt;Node21</title>
<g id="a_edge25_Node000001_Node000021"><a xlink:title=" ">
<path fill="none" stroke="#63b8ff" d="M735.34,-220.55C757.95,-211.1 787.08,-198.94 809.05,-189.77"/>
<polygon fill="#63b8ff" stroke="#63b8ff" points="810.23,-193.07 818.1,-185.99 807.53,-186.61 810.23,-193.07"/>
</a>
</g>
</g>
<!-- Node22 -->
<g id="Node000022" class="node">
<title>Node22</title>
<g id="a_Node000022"><a xlink:title=" ">
<polygon fill="#e0e0e0" stroke="#999999" points="981.12,-185 923.12,-185 923.12,-165.75 981.12,-165.75 981.12,-185"/>
<text text-anchor="middle" x="952.12" y="-171.5" font-family="Helvetica,sans-Serif" font-size="10.00">functional</text>
</a>
</g>
</g>
<!-- Node1&#45;&gt;Node22 -->
<g id="edge26_Node000001_Node000022" class="edge">
<title>Node1&#45;&gt;Node22</title>
<g id="a_edge26_Node000001_Node000022"><a xlink:title=" ">
<path fill="none" stroke="#63b8ff" d="M757.31,-221.89C804.43,-210.88 870.07,-195.54 911.84,-185.79"/>
<polygon fill="#63b8ff" stroke="#63b8ff" points="912.53,-189.22 921.47,-183.54 910.94,-182.4 912.53,-189.22"/>
</a>
</g>
</g>
<!-- Node23 -->
<g id="Node000023" class="node">
<title>Node23</title>
<g id="a_Node000023"><a xlink:title=" ">
<polygon fill="#e0e0e0" stroke="#999999" points="1045.12,-185 999.12,-185 999.12,-165.75 1045.12,-165.75 1045.12,-185"/>
<text text-anchor="middle" x="1022.12" y="-171.5" font-family="Helvetica,sans-Serif" font-size="10.00">iterator</text>
</a>
</g>
</g>
<!-- Node1&#45;&gt;Node23 -->
<g id="edge27_Node000001_Node000023" class="edge">
<title>Node1&#45;&gt;Node23</title>
<g id="a_edge27_Node000001_Node000023"><a xlink:title=" ">
<path fill="none" stroke="#63b8ff" d="M757.11,-226.96C813.34,-218.42 901.96,-204.02 987.54,-185.41"/>
<polygon fill="#63b8ff" stroke="#63b8ff" points="988.27,-188.83 997.29,-183.26 986.77,-181.99 988.27,-188.83"/>
</a>
</g>
</g>
<!-- Node3 -->
<g id="Node000003" class="node">
<title>Node3</title>
<g id="a_Node000003"><a xlink:href="../../d8/dd2/_config_8hpp.html" target="_top" xlink:title=" ">
<polygon fill="white" stroke="#666666" points="752.25,-74.5 650,-74.5 650,-55.25 752.25,-55.25 752.25,-74.5"/>
<text text-anchor="middle" x="701.12" y="-61" font-family="Helvetica,sans-Serif" font-size="10.00">mimic++/Config.hpp</text>
</a>
</g>
</g>
<!-- Node2&#45;&gt;Node3 -->
<g id="edge2_Node000002_Node000003" class="edge">
<title>Node2&#45;&gt;Node3</title>
<g id="a_edge2_Node000002_Node000003"><a xlink:title=" ">
<path fill="none" stroke="#63b8ff" d="M578.23,-110.09C602.15,-101.49 638.41,-88.44 665.35,-78.75"/>
<polygon fill="#63b8ff" stroke="#63b8ff" points="666.25,-82.14 674.47,-75.46 663.88,-75.56 666.25,-82.14"/>
</a>
</g>
</g>
<!-- Node6 -->
<g id="Node000006" class="node">
<title>Node6</title>
<g id="a_Node000006"><a xlink:title=" ">
<polygon fill="#e0e0e0" stroke="#999999" points="573.12,-74.5 533.12,-74.5 533.12,-55.25 573.12,-55.25 573.12,-74.5"/>
<text text-anchor="middle" x="553.12" y="-61" font-family="Helvetica,sans-Serif" font-size="10.00">string</text>
</a>
</g>
</g>
<!-- Node2&#45;&gt;Node6 -->
<g id="edge5_Node000002_Node000006" class="edge">
<title>Node2&#45;&gt;Node6</title>
<g id="a_edge5_Node000002_Node000006"><a xlink:title=" ">
<path fill="none" stroke="#63b8ff" d="M553.12,-110.33C553.12,-103.82 553.12,-94.67 553.12,-86.37"/>
<polygon fill="#63b8ff" stroke="#63b8ff" points="556.63,-86.37 553.13,-76.37 549.63,-86.37 556.63,-86.37"/>
</a>
</g>
</g>
<!-- Node7 -->
<g id="Node000007" class="node">
<title>Node7</title>
<g id="a_Node000007"><a xlink:title=" ">
<polygon fill="#e0e0e0" stroke="#999999" points="456.88,-74.5 391.38,-74.5 391.38,-55.25 456.88,-55.25 456.88,-74.5"/>
<text text-anchor="middle" x="424.12" y="-61" font-family="Helvetica,sans-Serif" font-size="10.00">string_view</text>
</a>
</g>
</g>
<!-- Node2&#45;&gt;Node7 -->
<g id="edge6_Node000002_Node000007" class="edge">
<title>Node2&#45;&gt;Node7</title>
<g id="a_edge6_Node000002_Node000007"><a xlink:title=" ">
<path fill="none" stroke="#63b8ff" d="M531.24,-110.09C510.76,-101.64 479.91,-88.9 456.57,-79.27"/>
<polygon fill="#63b8ff" stroke="#63b8ff" points="458.09,-76.11 447.51,-75.53 455.42,-82.58 458.09,-76.11"/>
</a>
</g>
</g>
<!-- Node4 -->
<g id="Node000004" class="node">
<title>Node4</title>
<g id="a_Node000004"><a xlink:title=" ">
<polygon fill="#e0e0e0" stroke="#999999" points="691.75,-19.25 646.5,-19.25 646.5,0 691.75,0 691.75,-19.25"/>
<text text-anchor="middle" x="669.12" y="-5.75" font-family="Helvetica,sans-Serif" font-size="10.00">cstdint</text>
</a>
</g>
</g>
<!-- Node3&#45;&gt;Node4 -->
<g id="edge3_Node000003_Node000004" class="edge">
<title>Node3&#45;&gt;Node4</title>
<g id="a_edge3_Node000003_Node000004"><a xlink:title=" ">
<path fill="none" stroke="#63b8ff" d="M695.84,-55.08C691.65,-48.11 685.65,-38.12 680.39,-29.37"/>
<polygon fill="#63b8ff" stroke="#63b8ff" points="683.45,-27.68 675.3,-20.91 677.45,-31.28 683.45,-27.68"/>
</a>
</g>
</g>
<!-- Node5 -->
<g id="Node000005" class="node">
<title>Node5</title>
<g id="a_Node000005"><a xlink:title=" ">
<polygon fill="#e0e0e0" stroke="#999999" points="756.88,-19.25 709.38,-19.25 709.38,0 756.88,0 756.88,-19.25"/>
<text text-anchor="middle" x="733.12" y="-5.75" font-family="Helvetica,sans-Serif" font-size="10.00">version</text>
</a>
</g>
</g>
<!-- Node3&#45;&gt;Node5 -->
<g id="edge4_Node000003_Node000005" class="edge">
<title>Node3&#45;&gt;Node5</title>
<g id="a_edge4_Node000003_Node000005"><a xlink:title=" ">
<path fill="none" stroke="#63b8ff" d="M706.41,-55.08C710.6,-48.11 716.6,-38.12 721.86,-29.37"/>
<polygon fill="#63b8ff" stroke="#63b8ff" points="724.8,-31.28 726.95,-20.91 718.8,-27.68 724.8,-31.28"/>
</a>
</g>
</g>
<!-- Node8&#45;&gt;Node2 -->
<g id="edge8_Node000008_Node000002" class="edge">
<title>Node8&#45;&gt;Node2</title>
<g id="a_edge8_Node000008_Node000002"><a xlink:title=" ">
<path fill="none" stroke="#63b8ff" d="M378.75,-165.34C413.9,-156.43 467.81,-142.76 506.39,-132.98"/>
<polygon fill="#63b8ff" stroke="#63b8ff" points="507.03,-136.43 515.86,-130.57 505.31,-129.64 507.03,-136.43"/>
</a>
</g>
</g>
<!-- Node8&#45;&gt;Node7 -->
<g id="edge14_Node000008_Node000007" class="edge">
<title>Node8&#45;&gt;Node7</title>
<g id="a_edge14_Node000008_Node000007"><a xlink:title=" ">
<path fill="none" stroke="#63b8ff" d="M348.46,-165.44C356.11,-152.84 370.83,-129.31 385.12,-110.5 392.27,-101.1 400.85,-91.15 408.14,-83.04"/>
<polygon fill="#63b8ff" stroke="#63b8ff" points="410.5,-85.66 414.66,-75.91 405.33,-80.93 410.5,-85.66"/>
</a>
</g>
</g>
<!-- Node9 -->
<g id="Node000009" class="node">
<title>Node9</title>
<g id="a_Node000009"><a xlink:title=" ">
<polygon fill="#e0e0e0" stroke="#999999" points="431.62,-129.75 394.62,-129.75 394.62,-110.5 431.62,-110.5 431.62,-129.75"/>
<text text-anchor="middle" x="413.12" y="-116.25" font-family="Helvetica,sans-Serif" font-size="10.00">array</text>
</a>
</g>
</g>
<!-- Node8&#45;&gt;Node9 -->
<g id="edge9_Node000008_Node000009" class="edge">
<title>Node8&#45;&gt;Node9</title>
<g id="a_edge9_Node000008_Node000009"><a xlink:title=" ">
<path fill="none" stroke="#63b8ff" d="M355,-165.34C365.22,-157.57 380.2,-146.17 392.39,-136.9"/>
<polygon fill="#63b8ff" stroke="#63b8ff" points="394.38,-139.78 400.22,-130.94 390.14,-134.21 394.38,-139.78"/>
</a>
</g>
</g>
<!-- Node10 -->
<g id="Node000010" class="node">
<title>Node10</title>
<g id="a_Node000010"><a xlink:title=" ">
<polygon fill="#e0e0e0" stroke="#999999" points="48.25,-129.75 0,-129.75 0,-110.5 48.25,-110.5 48.25,-129.75"/>
<text text-anchor="middle" x="24.12" y="-116.25" font-family="Helvetica,sans-Serif" font-size="10.00">cassert</text>
</a>
</g>
</g>
<!-- Node8&#45;&gt;Node10 -->
<g id="edge10_Node000008_Node000010" class="edge">
<title>Node8&#45;&gt;Node10</title>
<g id="a_edge10_Node000008_Node000010"><a xlink:title=" ">
<path fill="none" stroke="#63b8ff" d="M292.73,-168.08C237.74,-160.86 146.88,-147.92 59.73,-130.12"/>
<polygon fill="#63b8ff" stroke="#63b8ff" points="60.55,-126.71 50.05,-128.11 59.13,-133.57 60.55,-126.71"/>
</a>
</g>
</g>
<!-- Node11 -->
<g id="Node000011" class="node">
<title>Node11</title>
<g id="a_Node000011"><a xlink:title=" ">
<polygon fill="#e0e0e0" stroke="#999999" points="116,-129.75 66.25,-129.75 66.25,-110.5 116,-110.5 116,-129.75"/>
<text text-anchor="middle" x="91.12" y="-116.25" font-family="Helvetica,sans-Serif" font-size="10.00">optional</text>
</a>
</g>
</g>
<!-- Node8&#45;&gt;Node11 -->
<g id="edge11_Node000008_Node000011" class="edge">
<title>Node8&#45;&gt;Node11</title>
<g id="a_edge11_Node000008_Node000011"><a xlink:title=" ">
<path fill="none" stroke="#63b8ff" d="M295.36,-165.26C253.52,-157.13 190.82,-144.59 127.36,-130.18"/>
<polygon fill="#63b8ff" stroke="#63b8ff" points="128.35,-126.82 117.82,-128 126.79,-133.64 128.35,-126.82"/>
</a>
</g>
</g>
<!-- Node12 -->
<g id="Node000012" class="node">
<title>Node12</title>
<g id="a_Node000012"><a xlink:title=" ">
<polygon fill="#e0e0e0" stroke="#999999" points="179.75,-129.75 134.5,-129.75 134.5,-110.5 179.75,-110.5 179.75,-129.75"/>
<text text-anchor="middle" x="157.12" y="-116.25" font-family="Helvetica,sans-Serif" font-size="10.00">ranges</text>
</a>
</g>
</g>
<!-- Node8&#45;&gt;Node12 -->
<g id="edge12_Node000008_Node000012" class="edge">
<title>Node8&#45;&gt;Node12</title>
<g id="a_edge12_Node000008_Node000012"><a xlink:title=" ">
<path fill="none" stroke="#63b8ff" d="M311.57,-165.34C278.05,-155.74 225.25,-140.63 190.9,-130.79"/>
<polygon fill="#63b8ff" stroke="#63b8ff" points="192.05,-127.48 181.47,-128.09 190.12,-134.21 192.05,-127.48"/>
</a>
</g>
</g>
<!-- Node13 -->
<g id="Node000013" class="node">
<title>Node13</title>
<g id="a_Node000013"><a xlink:title=" ">
<polygon fill="#e0e0e0" stroke="#999999" points="282.25,-129.75 198,-129.75 198,-110.5 282.25,-110.5 282.25,-129.75"/>
<text text-anchor="middle" x="240.12" y="-116.25" font-family="Helvetica,sans-Serif" font-size="10.00">source_location</text>
</a>
</g>
</g>
<!-- Node8&#45;&gt;Node13 -->
<g id="edge13_Node000008_Node000013" class="edge">
<title>Node8&#45;&gt;Node13</title>
<g id="a_edge13_Node000008_Node000013"><a xlink:title=" ">
<path fill="none" stroke="#63b8ff" d="M325.65,-165.34C309.82,-157.16 286.22,-144.96 267.82,-135.44"/>
<polygon fill="#63b8ff" stroke="#63b8ff" points="269.52,-132.38 259.03,-130.9 266.3,-138.6 269.52,-132.38"/>
</a>
</g>
</g>
<!-- Node14 -->
<g id="Node000014" class="node">
<title>Node14</title>
<g id="a_Node000014"><a xlink:title=" ">
<polygon fill="#e0e0e0" stroke="#999999" points="337.62,-129.75 300.62,-129.75 300.62,-110.5 337.62,-110.5 337.62,-129.75"/>
<text text-anchor="middle" x="319.12" y="-116.25" font-family="Helvetica,sans-Serif" font-size="10.00">tuple</text>
</a>
</g>
</g>
<!-- Node8&#45;&gt;Node14 -->
<g id="edge15_Node000008_Node000014" class="edge">
<title>Node8&#45;&gt;Node14</title>
<g id="a_edge15_Node000008_Node000014"><a xlink:title=" ">
<path fill="none" stroke="#63b8ff" d="M339.16,-165.58C336.09,-158.76 331.71,-149.06 327.84,-140.45"/>
<polygon fill="#63b8ff" stroke="#63b8ff" points="331.1,-139.17 323.8,-131.49 324.71,-142.04 331.1,-139.17"/>
</a>
</g>
</g>
<!-- Node8&#45;&gt;Node15 -->
<g id="edge16_Node000008_Node000015" class="edge">
<title>Node8&#45;&gt;Node15</title>
<g id="a_edge16_Node000008_Node000015"><a xlink:title=" ">
<path fill="none" stroke="#63b8ff" d="M364.5,-165.34C385.01,-156.67 416.19,-143.5 439.17,-133.78"/>
<polygon fill="#63b8ff" stroke="#63b8ff" points="440.48,-137.03 448.32,-129.92 437.75,-130.58 440.48,-137.03"/>
</a>
</g>
</g>
<!-- Node16&#45;&gt;Node2 -->
<g id="edge19_Node000016_Node000002" class="edge">
<title>Node16&#45;&gt;Node2</title>
<g id="a_edge19_Node000016_Node000002"><a xlink:title=" ">
<path fill="none" stroke="#63b8ff" d="M634.5,-165.34C619.44,-157.16 596.98,-144.96 579.47,-135.44"/>
<polygon fill="#63b8ff" stroke="#63b8ff" points="581.62,-132.62 571.16,-130.93 578.28,-138.77 581.62,-132.62"/>
</a>
</g>
</g>
<!-- Node16&#45;&gt;Node3 -->
<g id="edge18_Node000016_Node000003" class="edge">
<title>Node16&#45;&gt;Node3</title>
<g id="a_edge18_Node000016_Node000003"><a xlink:title=" ">
<path fill="none" stroke="#63b8ff" d="M690.07,-165.36C708.94,-158.81 729.91,-147.83 741.12,-129.75 751.18,-113.54 736.82,-95.09 722.59,-82.19"/>
<polygon fill="#63b8ff" stroke="#63b8ff" points="725.03,-79.68 715.12,-75.93 720.53,-85.04 725.03,-79.68"/>
</a>
</g>
</g>
<!-- Node16&#45;&gt;Node15 -->
<g id="edge23_Node000016_Node000015" class="edge">
<title>Node16&#45;&gt;Node15</title>
<g id="a_edge23_Node000016_Node000015"><a xlink:title=" ">
<path fill="none" stroke="#63b8ff" d="M619.23,-165.3C590.3,-157.04 546.22,-144.35 499.62,-130.46"/>
<polygon fill="#63b8ff" stroke="#63b8ff" points="500.73,-127.14 490.14,-127.63 498.72,-133.85 500.73,-127.14"/>
</a>
</g>
</g>
<!-- Node17 -->
<g id="Node000017" class="node">
<title>Node17</title>
<g id="a_Node000017"><a xlink:title=" ">
<polygon fill="#e0e0e0" stroke="#999999" points="844,-129.75 788.25,-129.75 788.25,-110.5 844,-110.5 844,-129.75"/>
<text text-anchor="middle" x="816.12" y="-116.25" font-family="Helvetica,sans-Serif" font-size="10.00">concepts</text>
</a>
</g>
</g>
<!-- Node16&#45;&gt;Node17 -->
<g id="edge20_Node000016_Node000017" class="edge">
<title>Node16&#45;&gt;Node17</title>
<g id="a_edge20_Node000016_Node000017"><a xlink:title=" ">
<path fill="none" stroke="#63b8ff" d="M679.12,-165.34C706.14,-156.62 747.28,-143.34 777.43,-133.61"/>
<polygon fill="#63b8ff" stroke="#63b8ff" points="778.12,-137.07 786.56,-130.67 775.97,-130.41 778.12,-137.07"/>
</a>
</g>
</g>
<!-- Node18 -->
<g id="Node000018" class="node">
<title>Node18</title>
<g id="a_Node000018"><a xlink:title=" ">
<polygon fill="#e0e0e0" stroke="#999999" points="669.75,-129.75 618.5,-129.75 618.5,-110.5 669.75,-110.5 669.75,-129.75"/>
<text text-anchor="middle" x="644.12" y="-116.25" font-family="Helvetica,sans-Serif" font-size="10.00">sstream</text>
</a>
</g>
</g>
<!-- Node16&#45;&gt;Node18 -->
<g id="edge21_Node000016_Node000018" class="edge">
<title>Node16&#45;&gt;Node18</title>
<g id="a_edge21_Node000016_Node000018"><a xlink:title=" ">
<path fill="none" stroke="#63b8ff" d="M649.97,-165.58C649.1,-158.99 647.88,-149.71 646.78,-141.32"/>
<polygon fill="#63b8ff" stroke="#63b8ff" points="650.28,-141.07 645.5,-131.61 643.34,-141.98 650.28,-141.07"/>
</a>
</g>
</g>
<!-- Node16&#45;&gt;Node19 -->
<g id="edge22_Node000016_Node000019" class="edge">
<title>Node16&#45;&gt;Node19</title>
<g id="a_edge22_Node000016_Node000019"><a xlink:title=" ">
<path fill="none" stroke="#63b8ff" d="M692.14,-165.32C730.64,-156.81 790.14,-143.67 850.58,-130.31"/>
<polygon fill="#63b8ff" stroke="#63b8ff" points="850.98,-133.81 859.99,-128.23 849.47,-126.97 850.98,-133.81"/>
</a>
</g>
</g>
<!-- Node20 -->
<g id="Node000020" class="node">
<title>Node20</title>
<g id="a_Node000020"><a xlink:title=" ">
<polygon fill="#e0e0e0" stroke="#999999" points="732,-129.75 688.25,-129.75 688.25,-110.5 732,-110.5 732,-129.75"/>
<text text-anchor="middle" x="710.12" y="-116.25" font-family="Helvetica,sans-Serif" font-size="10.00">format</text>
</a>
</g>
</g>
<!-- Node16&#45;&gt;Node20 -->
<g id="edge24_Node000016_Node000020" class="edge">
<title>Node16&#45;&gt;Node20</title>
<g id="a_edge24_Node000016_Node000020"><a xlink:title=" ">
<path fill="none" stroke="#63b8ff" d="M661.13,-165.34C669.49,-157.8 681.62,-146.85 691.73,-137.73"/>
<polygon fill="#63b8ff" stroke="#63b8ff" points="694.06,-140.34 699.14,-131.04 689.37,-135.14 694.06,-140.34"/>
</a>
</g>
</g>
</g>
</svg>

<g id="navigator" transform="translate(0 0)" fill="#404254">
  <rect fill="#f2f5e9" fill-opacity="0.5" stroke="#606060" stroke-width=".5" x="0" y="0" width="60" height="60"/>
  <use id="zoomplus" xlink:href="#zoomPlus" x="17" y="9" onmousedown="handleZoom(evt,'in')"/>
  <use id="zoomminus" xlink:href="#zoomMin" x="42" y="9" onmousedown="handleZoom(evt,'out')"/>
  <use id="reset" xlink:href="#resetDef" x="30" y="36" onmousedown="handleReset()"/>
   <use id="arrowup" xlink:href="#arrowUp" x="0" y="0" onmousedown="handlePan(0,-1)"/>
  <use id="arrowright" xlink:href="#arrowRight" x="0" y="0" onmousedown="handlePan(1,0)"/>
  <use id="arrowdown" xlink:href="#arrowDown" x="0" y="0" onmousedown="handlePan(0,1)"/>
  <use id="arrowleft" xlink:href="#arrowLeft" x="0" y="0" onmousedown="handlePan(-1,0)"/>
</g>
<svg viewBox="0 0 15 15" width="100%" height="30px" preserveAspectRatio="xMaxYMin meet">
 <g id="arrow_out" transform="scale(0.3 0.3)">
  <a xlink:href="_print_8hpp__incl_org.svg" target="_base">
   <rect id="button" ry="5" rx="5" y="6" x="6" height="38" width="38"
        fill="#f2f5e9" fill-opacity="0.5" stroke="#606060" stroke-width="1.0"/>
   <path id="arrow"
     d="M 11.500037,31.436501 C 11.940474,20.09759 22.043105,11.32322 32.158766,21.979434 L 37.068811,17.246167 C 37.068811,17.246167 37.088388,32 37.088388,32 L 22.160133,31.978069 C 22.160133,31.978069 26.997745,27.140456 26.997745,27.140456 C 18.528582,18.264221 13.291696,25.230495 11.500037,31.436501 z"
     style="fill:#404040;"/>
  </a>
 </g>
</svg>

<style type='text/css'>
<![CDATA[
[data-mouse-over-selected='false'] { opacity: 0.7; }
[data-mouse-over-selected='true']  { opacity: 1.0; }
]]>
</style>
<script type="application/ecmascript"><![CDATA[
document.addEventListener('DOMContentLoaded', (event) => {
  highlightEdges();
  highlightAdjacentNodes();
});
]]></script>
</svg>
