<?xml version="1.0" encoding="UTF-8" standalone="no"?>
<!DOCTYPE svg PUBLIC "-//W3C//DTD SVG 1.1//EN"
 "http://www.w3.org/Graphics/SVG/1.1/DTD/svg11.dtd">
<!-- Generated by graphviz version 12.2.1 (20241206.2353)
 -->
<!-- Title: mimic++/printing/state/Print.hpp Pages: 1 -->
<svg width="915pt" height="271pt"
 viewBox="0.00 0.00 915.00 270.75" xmlns="http://www.w3.org/2000/svg" xmlns:xlink="http://www.w3.org/1999/xlink">
<g id="graph0" class="graph" transform="scale(1 1) rotate(0) translate(4 266.75)">
<title>mimic++/printing/state/Print.hpp</title>
<!-- Node1 -->
<g id="Node000001" class="node">
<title>Node1</title>
<g id="a_Node000001"><a xlink:title=" ">
<polygon fill="#999999" stroke="#666666" points="573.75,-262.75 460.25,-262.75 460.25,-232.25 573.75,-232.25 573.75,-262.75"/>
<text text-anchor="start" x="468.25" y="-249.25" font-family="Helvetica,sans-Serif" font-size="10.00">mimic++/printing/state</text>
<text text-anchor="middle" x="517" y="-238" font-family="Helvetica,sans-Serif" font-size="10.00">/Print.hpp</text>
</a>
</g>
</g>
<!-- Node2 -->
<g id="Node000002" class="node">
<title>Node2</title>
<g id="a_Node000002"><a xlink:href="../../df/dde/_fwd_8hpp.html" target="_top" xlink:title=" ">
<polygon fill="white" stroke="#666666" points="151,-129.75 57,-129.75 57,-110.5 151,-110.5 151,-129.75"/>
<text text-anchor="middle" x="104" y="-116.25" font-family="Helvetica,sans-Serif" font-size="10.00">mimic++/Fwd.hpp</text>
</a>
</g>
</g>
<!-- Node1&#45;&gt;Node2 -->
<g id="edge1_Node000001_Node000002" class="edge">
<title>Node1&#45;&gt;Node2</title>
<g id="a_edge1_Node000001_Node000002"><a xlink:title=" ">
<path fill="none" stroke="#63b8ff" d="M459.77,-241.9C402.13,-235.97 311.34,-223.04 237,-196.25 195.34,-181.24 151.44,-153.84 125.94,-136.61"/>
<polygon fill="#63b8ff" stroke="#63b8ff" points="127.98,-133.76 117.76,-130.98 124.02,-139.53 127.98,-133.76"/>
</a>
</g>
</g>
<!-- Node8 -->
<g id="Node000008" class="node">
<title>Node8</title>
<g id="a_Node000008"><a xlink:href="../../d5/dec/_format_8hpp.html" target="_top" xlink:title=" ">
<polygon fill="white" stroke="#666666" points="386.25,-190.62 245.75,-190.62 245.75,-171.38 386.25,-171.38 386.25,-190.62"/>
<text text-anchor="middle" x="316" y="-177.12" font-family="Helvetica,sans-Serif" font-size="10.00">mimic++/printing/Format.hpp</text>
</a>
</g>
</g>
<!-- Node1&#45;&gt;Node8 -->
<g id="edge7_Node000001_Node000008" class="edge">
<title>Node1&#45;&gt;Node8</title>
<g id="a_edge7_Node000001_Node000008"><a xlink:title=" ">
<path fill="none" stroke="#63b8ff" d="M471.14,-231.78C436.06,-220.53 388.22,-205.17 354.97,-194.51"/>
<polygon fill="#63b8ff" stroke="#63b8ff" points="356.33,-191.27 345.74,-191.54 354.19,-197.93 356.33,-191.27"/>
</a>
</g>
</g>
<!-- Node11 -->
<g id="Node000011" class="node">
<title>Node11</title>
<g id="a_Node000011"><a xlink:title=" ">
<polygon fill="#e0e0e0" stroke="#999999" points="473.5,-129.75 412.5,-129.75 412.5,-110.5 473.5,-110.5 473.5,-129.75"/>
<text text-anchor="middle" x="443" y="-116.25" font-family="Helvetica,sans-Serif" font-size="10.00">type_traits</text>
</a>
</g>
</g>
<!-- Node1&#45;&gt;Node11 -->
<g id="edge20_Node000001_Node000011" class="edge">
<title>Node1&#45;&gt;Node11</title>
<g id="a_edge20_Node000001_Node000011"><a xlink:title=" ">
<path fill="none" stroke="#63b8ff" d="M506.86,-231.75C500.16,-221.84 491.3,-208.42 484,-196.25 472.68,-177.38 460.74,-155.21 452.68,-139.87"/>
<polygon fill="#63b8ff" stroke="#63b8ff" points="455.99,-138.64 448.27,-131.39 449.78,-141.87 455.99,-138.64"/>
</a>
</g>
</g>
<!-- Node12 -->
<g id="Node000012" class="node">
<title>Node12</title>
<g id="a_Node000012"><a xlink:title=" ">
<polygon fill="#e0e0e0" stroke="#999999" points="530.25,-129.75 491.75,-129.75 491.75,-110.5 530.25,-110.5 530.25,-129.75"/>
<text text-anchor="middle" x="511" y="-116.25" font-family="Helvetica,sans-Serif" font-size="10.00">utility</text>
</a>
</g>
</g>
<!-- Node1&#45;&gt;Node12 -->
<g id="edge21_Node000001_Node000012" class="edge">
<title>Node1&#45;&gt;Node12</title>
<g id="a_edge21_Node000001_Node000012"><a xlink:title=" ">
<path fill="none" stroke="#63b8ff" d="M506.66,-231.91C500.48,-222.28 493.24,-209.12 490,-196.25 486.69,-183.1 487.04,-178.98 490,-165.75 491.98,-156.88 495.93,-147.69 499.88,-139.98"/>
<polygon fill="#63b8ff" stroke="#63b8ff" points="502.92,-141.7 504.69,-131.26 496.79,-138.32 502.92,-141.7"/>
</a>
</g>
</g>
<!-- Node14 -->
<g id="Node000014" class="node">
<title>Node14</title>
<g id="a_Node000014"><a xlink:href="../../de/d52/printing_2_fwd_8hpp.html" target="_top" xlink:title=" ">
<polygon fill="white" stroke="#666666" points="627.25,-190.62 498.75,-190.62 498.75,-171.38 627.25,-171.38 627.25,-190.62"/>
<text text-anchor="middle" x="563" y="-177.12" font-family="Helvetica,sans-Serif" font-size="10.00">mimic++/printing/Fwd.hpp</text>
</a>
</g>
</g>
<!-- Node1&#45;&gt;Node14 -->
<g id="edge15_Node000001_Node000014" class="edge">
<title>Node1&#45;&gt;Node14</title>
<g id="a_edge15_Node000001_Node000014"><a xlink:title=" ">
<path fill="none" stroke="#63b8ff" d="M527.44,-231.86C534.2,-222.39 543.05,-209.98 550.22,-199.91"/>
<polygon fill="#63b8ff" stroke="#63b8ff" points="552.87,-202.23 555.83,-192.05 547.17,-198.16 552.87,-202.23"/>
</a>
</g>
</g>
<!-- Node15 -->
<g id="Node000015" class="node">
<title>Node15</title>
<g id="a_Node000015"><a xlink:href="../../d8/d65/_priority_tag_8hpp.html" target="_top" xlink:title=" ">
<polygon fill="white" stroke="#666666" points="766.5,-196.25 645.5,-196.25 645.5,-165.75 766.5,-165.75 766.5,-196.25"/>
<text text-anchor="start" x="653.5" y="-182.75" font-family="Helvetica,sans-Serif" font-size="10.00">mimic++/utilities/Priority</text>
<text text-anchor="middle" x="706" y="-171.5" font-family="Helvetica,sans-Serif" font-size="10.00">Tag.hpp</text>
</a>
</g>
</g>
<!-- Node1&#45;&gt;Node15 -->
<g id="edge16_Node000001_Node000015" class="edge">
<title>Node1&#45;&gt;Node15</title>
<g id="a_edge16_Node000001_Node000015"><a xlink:title=" ">
<path fill="none" stroke="#63b8ff" d="M559.89,-231.86C587.22,-222.54 622.86,-210.37 652.09,-200.4"/>
<polygon fill="#63b8ff" stroke="#63b8ff" points="653.19,-203.72 661.52,-197.18 650.93,-197.1 653.19,-203.72"/>
</a>
</g>
</g>
<!-- Node17 -->
<g id="Node000017" class="node">
<title>Node17</title>
<g id="a_Node000017"><a xlink:title=" ">
<polygon fill="#e0e0e0" stroke="#999999" points="843,-190.62 785,-190.62 785,-171.38 843,-171.38 843,-190.62"/>
<text text-anchor="middle" x="814" y="-177.12" font-family="Helvetica,sans-Serif" font-size="10.00">functional</text>
</a>
</g>
</g>
<!-- Node1&#45;&gt;Node17 -->
<g id="edge18_Node000001_Node000017" class="edge">
<title>Node1&#45;&gt;Node17</title>
<g id="a_edge18_Node000001_Node000017"><a xlink:title=" ">
<path fill="none" stroke="#63b8ff" d="M574.23,-238.22C627.14,-229.89 707.68,-215.54 776,-196.25 777.61,-195.8 779.25,-195.3 780.9,-194.78"/>
<polygon fill="#63b8ff" stroke="#63b8ff" points="781.95,-198.12 790.27,-191.56 779.68,-191.5 781.95,-198.12"/>
</a>
</g>
</g>
<!-- Node18 -->
<g id="Node000018" class="node">
<title>Node18</title>
<g id="a_Node000018"><a xlink:title=" ">
<polygon fill="#e0e0e0" stroke="#999999" points="907,-190.62 861,-190.62 861,-171.38 907,-171.38 907,-190.62"/>
<text text-anchor="middle" x="884" y="-177.12" font-family="Helvetica,sans-Serif" font-size="10.00">iterator</text>
</a>
</g>
</g>
<!-- Node1&#45;&gt;Node18 -->
<g id="edge19_Node000001_Node000018" class="edge">
<title>Node1&#45;&gt;Node18</title>
<g id="a_edge19_Node000001_Node000018"><a xlink:title=" ">
<path fill="none" stroke="#63b8ff" d="M574.02,-242.66C641.5,-237.03 756.73,-224.05 852,-196.25 853.17,-195.91 854.35,-195.53 855.53,-195.13"/>
<polygon fill="#63b8ff" stroke="#63b8ff" points="856.6,-198.47 864.64,-191.56 854.05,-191.96 856.6,-198.47"/>
</a>
</g>
</g>
<!-- Node3 -->
<g id="Node000003" class="node">
<title>Node3</title>
<g id="a_Node000003"><a xlink:href="../../d8/dd2/_config_8hpp.html" target="_top" xlink:title=" ">
<polygon fill="white" stroke="#666666" points="244.12,-74.5 141.88,-74.5 141.88,-55.25 244.12,-55.25 244.12,-74.5"/>
<text text-anchor="middle" x="193" y="-61" font-family="Helvetica,sans-Serif" font-size="10.00">mimic++/Config.hpp</text>
</a>
</g>
</g>
<!-- Node2&#45;&gt;Node3 -->
<g id="edge2_Node000002_Node000003" class="edge">
<title>Node2&#45;&gt;Node3</title>
<g id="a_edge2_Node000002_Node000003"><a xlink:title=" ">
<path fill="none" stroke="#63b8ff" d="M119.1,-110.09C132.52,-102.06 152.41,-90.16 168.17,-80.73"/>
<polygon fill="#63b8ff" stroke="#63b8ff" points="169.75,-83.87 176.53,-75.73 166.15,-77.86 169.75,-83.87"/>
</a>
</g>
</g>
<!-- Node6 -->
<g id="Node000006" class="node">
<title>Node6</title>
<g id="a_Node000006"><a xlink:title=" ">
<polygon fill="#e0e0e0" stroke="#999999" points="40,-74.5 0,-74.5 0,-55.25 40,-55.25 40,-74.5"/>
<text text-anchor="middle" x="20" y="-61" font-family="Helvetica,sans-Serif" font-size="10.00">string</text>
</a>
</g>
</g>
<!-- Node2&#45;&gt;Node6 -->
<g id="edge5_Node000002_Node000006" class="edge">
<title>Node2&#45;&gt;Node6</title>
<g id="a_edge5_Node000002_Node000006"><a xlink:title=" ">
<path fill="none" stroke="#63b8ff" d="M89.75,-110.09C77.2,-102.14 58.67,-90.39 43.86,-81"/>
<polygon fill="#63b8ff" stroke="#63b8ff" points="45.92,-78.16 35.6,-75.76 42.17,-84.07 45.92,-78.16"/>
</a>
</g>
</g>
<!-- Node7 -->
<g id="Node000007" class="node">
<title>Node7</title>
<g id="a_Node000007"><a xlink:title=" ">
<polygon fill="#e0e0e0" stroke="#999999" points="123.75,-74.5 58.25,-74.5 58.25,-55.25 123.75,-55.25 123.75,-74.5"/>
<text text-anchor="middle" x="91" y="-61" font-family="Helvetica,sans-Serif" font-size="10.00">string_view</text>
</a>
</g>
</g>
<!-- Node2&#45;&gt;Node7 -->
<g id="edge6_Node000002_Node000007" class="edge">
<title>Node2&#45;&gt;Node7</title>
<g id="a_edge6_Node000002_Node000007"><a xlink:title=" ">
<path fill="none" stroke="#63b8ff" d="M101.85,-110.33C100.23,-103.67 97.92,-94.24 95.86,-85.78"/>
<polygon fill="#63b8ff" stroke="#63b8ff" points="99.32,-85.21 93.55,-76.33 92.52,-86.87 99.32,-85.21"/>
</a>
</g>
</g>
<!-- Node4 -->
<g id="Node000004" class="node">
<title>Node4</title>
<g id="a_Node000004"><a xlink:title=" ">
<polygon fill="#e0e0e0" stroke="#999999" points="183.62,-19.25 138.38,-19.25 138.38,0 183.62,0 183.62,-19.25"/>
<text text-anchor="middle" x="161" y="-5.75" font-family="Helvetica,sans-Serif" font-size="10.00">cstdint</text>
</a>
</g>
</g>
<!-- Node3&#45;&gt;Node4 -->
<g id="edge3_Node000003_Node000004" class="edge">
<title>Node3&#45;&gt;Node4</title>
<g id="a_edge3_Node000003_Node000004"><a xlink:title=" ">
<path fill="none" stroke="#63b8ff" d="M187.72,-55.08C183.53,-48.11 177.52,-38.12 172.27,-29.37"/>
<polygon fill="#63b8ff" stroke="#63b8ff" points="175.33,-27.68 167.18,-20.91 169.33,-31.28 175.33,-27.68"/>
</a>
</g>
</g>
<!-- Node5 -->
<g id="Node000005" class="node">
<title>Node5</title>
<g id="a_Node000005"><a xlink:title=" ">
<polygon fill="#e0e0e0" stroke="#999999" points="248.75,-19.25 201.25,-19.25 201.25,0 248.75,0 248.75,-19.25"/>
<text text-anchor="middle" x="225" y="-5.75" font-family="Helvetica,sans-Serif" font-size="10.00">version</text>
</a>
</g>
</g>
<!-- Node3&#45;&gt;Node5 -->
<g id="edge4_Node000003_Node000005" class="edge">
<title>Node3&#45;&gt;Node5</title>
<g id="a_edge4_Node000003_Node000005"><a xlink:title=" ">
<path fill="none" stroke="#63b8ff" d="M198.28,-55.08C202.47,-48.11 208.48,-38.12 213.73,-29.37"/>
<polygon fill="#63b8ff" stroke="#63b8ff" points="216.67,-31.28 218.82,-20.91 210.67,-27.68 216.67,-31.28"/>
</a>
</g>
</g>
<!-- Node8&#45;&gt;Node2 -->
<g id="edge9_Node000008_Node000002" class="edge">
<title>Node8&#45;&gt;Node2</title>
<g id="a_edge9_Node000008_Node000002"><a xlink:title=" ">
<path fill="none" stroke="#63b8ff" d="M283.34,-170.93C246.92,-160.82 187.86,-144.41 147.54,-133.22"/>
<polygon fill="#63b8ff" stroke="#63b8ff" points="148.73,-129.91 138.16,-130.61 146.85,-136.66 148.73,-129.91"/>
</a>
</g>
</g>
<!-- Node8&#45;&gt;Node3 -->
<g id="edge8_Node000008_Node000003" class="edge">
<title>Node8&#45;&gt;Node3</title>
<g id="a_edge8_Node000008_Node000003"><a xlink:title=" ">
<path fill="none" stroke="#63b8ff" d="M264.68,-170.89C240.5,-163.84 213.59,-151.45 198,-129.75 188.95,-117.16 188.27,-99.35 189.53,-85.74"/>
<polygon fill="#63b8ff" stroke="#63b8ff" points="192.95,-86.56 190.84,-76.18 186.02,-85.61 192.95,-86.56"/>
</a>
</g>
</g>
<!-- Node9 -->
<g id="Node000009" class="node">
<title>Node9</title>
<g id="a_Node000009"><a xlink:title=" ">
<polygon fill="#e0e0e0" stroke="#999999" points="262.88,-129.75 207.12,-129.75 207.12,-110.5 262.88,-110.5 262.88,-129.75"/>
<text text-anchor="middle" x="235" y="-116.25" font-family="Helvetica,sans-Serif" font-size="10.00">concepts</text>
</a>
</g>
</g>
<!-- Node8&#45;&gt;Node9 -->
<g id="edge10_Node000008_Node000009" class="edge">
<title>Node8&#45;&gt;Node9</title>
<g id="a_edge10_Node000008_Node000009"><a xlink:title=" ">
<path fill="none" stroke="#63b8ff" d="M303.7,-171.06C291.21,-161.98 271.62,-147.74 256.55,-136.79"/>
<polygon fill="#63b8ff" stroke="#63b8ff" points="258.79,-134.09 248.64,-131.04 254.67,-139.75 258.79,-134.09"/>
</a>
</g>
</g>
<!-- Node10 -->
<g id="Node000010" class="node">
<title>Node10</title>
<g id="a_Node000010"><a xlink:title=" ">
<polygon fill="#e0e0e0" stroke="#999999" points="332.62,-129.75 281.38,-129.75 281.38,-110.5 332.62,-110.5 332.62,-129.75"/>
<text text-anchor="middle" x="307" y="-116.25" font-family="Helvetica,sans-Serif" font-size="10.00">sstream</text>
</a>
</g>
</g>
<!-- Node8&#45;&gt;Node10 -->
<g id="edge11_Node000008_Node000010" class="edge">
<title>Node8&#45;&gt;Node10</title>
<g id="a_edge11_Node000008_Node000010"><a xlink:title=" ">
<path fill="none" stroke="#63b8ff" d="M314.63,-171.06C313.43,-163.19 311.64,-151.45 310.09,-141.32"/>
<polygon fill="#63b8ff" stroke="#63b8ff" points="313.58,-141 308.61,-131.65 306.66,-142.06 313.58,-141"/>
</a>
</g>
</g>
<!-- Node8&#45;&gt;Node11 -->
<g id="edge12_Node000008_Node000011" class="edge">
<title>Node8&#45;&gt;Node11</title>
<g id="a_edge12_Node000008_Node000011"><a xlink:title=" ">
<path fill="none" stroke="#63b8ff" d="M335.57,-170.93C356.32,-161.31 389.36,-145.99 413.33,-134.88"/>
<polygon fill="#63b8ff" stroke="#63b8ff" points="414.65,-138.13 422.25,-130.75 411.7,-131.78 414.65,-138.13"/>
</a>
</g>
</g>
<!-- Node8&#45;&gt;Node12 -->
<g id="edge13_Node000008_Node000012" class="edge">
<title>Node8&#45;&gt;Node12</title>
<g id="a_edge13_Node000008_Node000012"><a xlink:title=" ">
<path fill="none" stroke="#63b8ff" d="M346.49,-170.89C377.83,-161.51 428.31,-146.37 480.6,-130.47"/>
<polygon fill="#63b8ff" stroke="#63b8ff" points="481.43,-133.87 489.97,-127.61 479.39,-127.18 481.43,-133.87"/>
</a>
</g>
</g>
<!-- Node13 -->
<g id="Node000013" class="node">
<title>Node13</title>
<g id="a_Node000013"><a xlink:title=" ">
<polygon fill="#e0e0e0" stroke="#999999" points="394.88,-129.75 351.12,-129.75 351.12,-110.5 394.88,-110.5 394.88,-129.75"/>
<text text-anchor="middle" x="373" y="-116.25" font-family="Helvetica,sans-Serif" font-size="10.00">format</text>
</a>
</g>
</g>
<!-- Node8&#45;&gt;Node13 -->
<g id="edge14_Node000008_Node000013" class="edge">
<title>Node8&#45;&gt;Node13</title>
<g id="a_edge14_Node000008_Node000013"><a xlink:title=" ">
<path fill="none" stroke="#63b8ff" d="M324.66,-171.06C333.03,-162.41 345.93,-149.09 356.3,-138.37"/>
<polygon fill="#63b8ff" stroke="#63b8ff" points="358.77,-140.86 363.21,-131.24 353.74,-135.99 358.77,-140.86"/>
</a>
</g>
</g>
<!-- Node16 -->
<g id="Node000016" class="node">
<title>Node16</title>
<g id="a_Node000016"><a xlink:title=" ">
<polygon fill="#e0e0e0" stroke="#999999" points="730.12,-129.75 681.88,-129.75 681.88,-110.5 730.12,-110.5 730.12,-129.75"/>
<text text-anchor="middle" x="706" y="-116.25" font-family="Helvetica,sans-Serif" font-size="10.00">cstddef</text>
</a>
</g>
</g>
<!-- Node15&#45;&gt;Node16 -->
<g id="edge17_Node000015_Node000016" class="edge">
<title>Node15&#45;&gt;Node16</title>
<g id="a_edge17_Node000015_Node000016"><a xlink:title=" ">
<path fill="none" stroke="#63b8ff" d="M706,-165.45C706,-158.21 706,-149.34 706,-141.44"/>
<polygon fill="#63b8ff" stroke="#63b8ff" points="709.5,-141.71 706,-131.71 702.5,-141.71 709.5,-141.71"/>
</a>
</g>
</g>
</g>
</svg>
