<?xml version="1.0" encoding="UTF-8" standalone="no"?>
<!DOCTYPE svg PUBLIC "-//W3C//DTD SVG 1.1//EN"
 "http://www.w3.org/Graphics/SVG/1.1/DTD/svg11.dtd">
<!-- Generated by graphviz version 12.2.1 (20241206.2353)
 -->
<!-- Title: mimic++/printing/state/Print.hpp Pages: 1 -->
<!--zoomable 271 -->

<svg id="main" version="1.1" xmlns="http://www.w3.org/2000/svg" xmlns:xlink="http://www.w3.org/1999/xlink" xml:space="preserve" onload="init(evt)">

<style type="text/css"><![CDATA[
.node, .edge {opacity: 0.7;}
.node.selected, .edge.selected {opacity: 1;}
.edge:hover path { stroke: red; }
.edge:hover polygon { stroke: red; fill: red; }
]]></style>

<defs>
  <circle id="rim" cx="0" cy="0" r="7"/>
  <circle id="rim2" cx="0" cy="0" r="3.5"/>
  <g id="zoomPlus">
    <use xlink:href="#rim" fill="#404040"><set attributeName="fill" to="#808080" begin="zoomplus.mouseover" end="zoomplus.mouseout"/></use>
    <path d="M-4,0h8M0,-4v8" fill="none" stroke="white" stroke-width="1.5" pointer-events="none"/>
  </g>
  <g id="zoomMin">
    <use xlink:href="#rim" fill="#404040"><set attributeName="fill" to="#808080" begin="zoomminus.mouseover" end="zoomminus.mouseout"/></use>
    <path d="M-4,0h8" fill="none" stroke="white" stroke-width="1.5" pointer-events="none"/>
  </g>
  <g id="arrowUp" transform="translate(30 24)">
    <use xlink:href="#rim"/>
    <path pointer-events="none" fill="none" stroke="white" stroke-width="1.5" d="M0,-3.0v7 M-2.5,-0.5L0,-3.0L2.5,-0.5"/>
  </g>
  <g id="arrowRight" transform="rotate(90) translate(36 -43)">
    <use xlink:href="#rim"/>
    <path pointer-events="none" fill="none" stroke="white" stroke-width="1.5" d="M0,-3.0v7 M-2.5,-0.5L0,-3.0L2.5,-0.5"/>
  </g>
  <g id="arrowDown" transform="rotate(180) translate(-30 -48)">
    <use xlink:href="#rim"/>
    <path pointer-events="none" fill="none" stroke="white" stroke-width="1.5" d="M0,-3.0v7 M-2.5,-0.5L0,-3.0L2.5,-0.5"/>
  </g>
  <g id="arrowLeft" transform="rotate(270) translate(-36 17)">
    <use xlink:href="#rim"/>
    <path pointer-events="none" fill="none" stroke="white" stroke-width="1.5" d="M0,-3.0v7 M-2.5,-0.5L0,-3.0L2.5,-0.5"/>
  </g>
  <g id="resetDef">
    <use xlink:href="#rim2" fill="#404040"><set attributeName="fill" to="#808080" begin="reset.mouseover" end="reset.mouseout"/></use>
  </g>
</defs>
<script type="application/ecmascript">
var viewWidth = 902;
var viewHeight = 271;
var sectionId = 'dynsection-0';
</script>
<script type="application/ecmascript" xlink:href="../../svg.min.js"/>
<svg id="graph" class="graph">
<g id="viewport">
<title>mimic++/printing/state/Print.hpp</title>
<!-- Node1 -->
<g id="Node000001" class="node">
<title>Node1</title>
<g id="a_Node000001"><a xlink:title=" ">
<polygon fill="#999999" stroke="#666666" points="514.75,-262.75 401.25,-262.75 401.25,-232.25 514.75,-232.25 514.75,-262.75"/>
<text text-anchor="start" x="409.25" y="-249.25" font-family="Helvetica,sans-Serif" font-size="10.00">mimic++/printing/state</text>
<text text-anchor="middle" x="458" y="-238" font-family="Helvetica,sans-Serif" font-size="10.00">/Print.hpp</text>
</a>
</g>
</g>
<!-- Node2 -->
<g id="Node000002" class="node">
<title>Node2</title>
<g id="a_Node000002"><a xlink:href="../../df/dde/_fwd_8hpp.html" target="_top" xlink:title=" ">
<polygon fill="white" stroke="#666666" points="102,-129.75 8,-129.75 8,-110.5 102,-110.5 102,-129.75"/>
<text text-anchor="middle" x="55" y="-116.25" font-family="Helvetica,sans-Serif" font-size="10.00">mimic++/Fwd.hpp</text>
</a>
</g>
</g>
<!-- Node1&#45;&gt;Node2 -->
<g id="edge1_Node000001_Node000002" class="edge">
<title>Node1&#45;&gt;Node2</title>
<g id="a_edge1_Node000001_Node000002"><a xlink:title=" ">
<path fill="none" stroke="#63b8ff" d="M401.04,-243.13C316.72,-237.3 163.53,-223.3 116,-196.25 93.01,-183.17 75.23,-157.77 64.94,-140.14"/>
<polygon fill="#63b8ff" stroke="#63b8ff" points="68.04,-138.51 60.14,-131.45 61.91,-141.9 68.04,-138.51"/>
</a>
</g>
</g>
<!-- Node3 -->
<g id="Node000003" class="node">
<title>Node3</title>
<g id="a_Node000003"><a xlink:href="../../d8/dd2/_config_8hpp.html" target="_top" xlink:title=" ">
<polygon fill="white" stroke="#666666" points="439.38,-74.5 308.62,-74.5 308.62,-55.25 439.38,-55.25 439.38,-74.5"/>
<text text-anchor="middle" x="374" y="-61" font-family="Helvetica,sans-Serif" font-size="10.00">mimic++/config/Config.hpp</text>
</a>
</g>
</g>
<!-- Node1&#45;&gt;Node3 -->
<g id="edge7_Node000001_Node000003" class="edge">
<title>Node1&#45;&gt;Node3</title>
<g id="a_edge7_Node000001_Node000003"><a xlink:title=" ">
<path fill="none" stroke="#63b8ff" d="M400.82,-245.78C325,-241.21 195.36,-219.89 149,-129.75 145.09,-122.14 143.57,-117.11 149,-110.5 167.63,-87.81 239.42,-76.46 296.96,-70.91"/>
<polygon fill="#63b8ff" stroke="#63b8ff" points="297.11,-74.41 306.75,-70.01 296.48,-67.44 297.11,-74.41"/>
</a>
</g>
</g>
<!-- Node8 -->
<g id="Node000008" class="node">
<title>Node8</title>
<g id="a_Node000008"><a xlink:href="../../d5/dec/_format_8hpp.html" target="_top" xlink:title=" ">
<polygon fill="white" stroke="#666666" points="391.25,-190.62 250.75,-190.62 250.75,-171.38 391.25,-171.38 391.25,-190.62"/>
<text text-anchor="middle" x="321" y="-177.12" font-family="Helvetica,sans-Serif" font-size="10.00">mimic++/printing/Format.hpp</text>
</a>
</g>
</g>
<!-- Node1&#45;&gt;Node8 -->
<g id="edge8_Node000001_Node000008" class="edge">
<title>Node1&#45;&gt;Node8</title>
<g id="a_edge8_Node000001_Node000008"><a xlink:title=" ">
<path fill="none" stroke="#63b8ff" d="M426.91,-231.86C403.98,-221.07 372.98,-206.47 350.45,-195.86"/>
<polygon fill="#63b8ff" stroke="#63b8ff" points="352.04,-192.75 341.51,-191.65 349.06,-199.08 352.04,-192.75"/>
</a>
</g>
</g>
<!-- Node11 -->
<g id="Node000011" class="node">
<title>Node11</title>
<g id="a_Node000011"><a xlink:title=" ">
<polygon fill="#e0e0e0" stroke="#999999" points="463.5,-129.75 402.5,-129.75 402.5,-110.5 463.5,-110.5 463.5,-129.75"/>
<text text-anchor="middle" x="433" y="-116.25" font-family="Helvetica,sans-Serif" font-size="10.00">type_traits</text>
</a>
</g>
</g>
<!-- Node1&#45;&gt;Node11 -->
<g id="edge23_Node000001_Node000011" class="edge">
<title>Node1&#45;&gt;Node11</title>
<g id="a_edge23_Node000001_Node000011"><a xlink:title=" ">
<path fill="none" stroke="#63b8ff" d="M453.47,-232.11C450.45,-222.12 446.59,-208.48 444,-196.25 440.08,-177.71 437.09,-156.31 435.23,-141.1"/>
<polygon fill="#63b8ff" stroke="#63b8ff" points="438.74,-141.01 434.1,-131.48 431.79,-141.82 438.74,-141.01"/>
</a>
</g>
</g>
<!-- Node12 -->
<g id="Node000012" class="node">
<title>Node12</title>
<g id="a_Node000012"><a xlink:title=" ">
<polygon fill="#e0e0e0" stroke="#999999" points="520.25,-129.75 481.75,-129.75 481.75,-110.5 520.25,-110.5 520.25,-129.75"/>
<text text-anchor="middle" x="501" y="-116.25" font-family="Helvetica,sans-Serif" font-size="10.00">utility</text>
</a>
</g>
</g>
<!-- Node1&#45;&gt;Node12 -->
<g id="edge24_Node000001_Node000012" class="edge">
<title>Node1&#45;&gt;Node12</title>
<g id="a_edge24_Node000001_Node000012"><a xlink:title=" ">
<path fill="none" stroke="#63b8ff" d="M460.55,-231.9C463.66,-215.48 469.57,-188.19 478,-165.75 481.29,-156.99 485.87,-147.72 490.07,-139.92"/>
<polygon fill="#63b8ff" stroke="#63b8ff" points="493.02,-141.82 494.86,-131.39 486.91,-138.4 493.02,-141.82"/>
</a>
</g>
</g>
<!-- Node14 -->
<g id="Node000014" class="node">
<title>Node14</title>
<g id="a_Node000014"><a xlink:href="../../de/d52/printing_2_fwd_8hpp.html" target="_top" xlink:title=" ">
<polygon fill="white" stroke="#666666" points="754.25,-190.62 625.75,-190.62 625.75,-171.38 754.25,-171.38 754.25,-190.62"/>
<text text-anchor="middle" x="690" y="-177.12" font-family="Helvetica,sans-Serif" font-size="10.00">mimic++/printing/Fwd.hpp</text>
</a>
</g>
</g>
<!-- Node1&#45;&gt;Node14 -->
<g id="edge16_Node000001_Node000014" class="edge">
<title>Node1&#45;&gt;Node14</title>
<g id="a_edge16_Node000001_Node000014"><a xlink:title=" ">
<path fill="none" stroke="#63b8ff" d="M510.93,-231.78C551.95,-220.38 608.09,-204.77 646.51,-194.09"/>
<polygon fill="#63b8ff" stroke="#63b8ff" points="647.18,-197.54 655.88,-191.49 645.31,-190.79 647.18,-197.54"/>
</a>
</g>
</g>
<!-- Node15 -->
<g id="Node000015" class="node">
<title>Node15</title>
<g id="a_Node000015"><a xlink:href="../../d8/d65/_priority_tag_8hpp.html" target="_top" xlink:title=" ">
<polygon fill="white" stroke="#666666" points="607.5,-196.25 486.5,-196.25 486.5,-165.75 607.5,-165.75 607.5,-196.25"/>
<text text-anchor="start" x="494.5" y="-182.75" font-family="Helvetica,sans-Serif" font-size="10.00">mimic++/utilities/Priority</text>
<text text-anchor="middle" x="547" y="-171.5" font-family="Helvetica,sans-Serif" font-size="10.00">Tag.hpp</text>
</a>
</g>
</g>
<!-- Node1&#45;&gt;Node15 -->
<g id="edge18_Node000001_Node000015" class="edge">
<title>Node1&#45;&gt;Node15</title>
<g id="a_edge18_Node000001_Node000015"><a xlink:title=" ">
<path fill="none" stroke="#63b8ff" d="M478.2,-231.86C489.92,-223.37 504.88,-212.52 517.86,-203.12"/>
<polygon fill="#63b8ff" stroke="#63b8ff" points="519.62,-206.17 525.66,-197.47 515.51,-200.5 519.62,-206.17"/>
</a>
</g>
</g>
<!-- Node17 -->
<g id="Node000017" class="node">
<title>Node17</title>
<g id="a_Node000017"><a xlink:title=" ">
<polygon fill="#e0e0e0" stroke="#999999" points="830,-190.62 772,-190.62 772,-171.38 830,-171.38 830,-190.62"/>
<text text-anchor="middle" x="801" y="-177.12" font-family="Helvetica,sans-Serif" font-size="10.00">functional</text>
</a>
</g>
</g>
<!-- Node1&#45;&gt;Node17 -->
<g id="edge21_Node000001_Node000017" class="edge">
<title>Node1&#45;&gt;Node17</title>
<g id="a_edge21_Node000001_Node000017"><a xlink:title=" ">
<path fill="none" stroke="#63b8ff" d="M515.2,-240.46C577.02,-233.15 678.1,-218.93 763,-196.25 764.74,-195.78 766.52,-195.27 768.3,-194.72"/>
<polygon fill="#63b8ff" stroke="#63b8ff" points="769.36,-198.05 777.7,-191.52 767.11,-191.43 769.36,-198.05"/>
</a>
</g>
</g>
<!-- Node18 -->
<g id="Node000018" class="node">
<title>Node18</title>
<g id="a_Node000018"><a xlink:title=" ">
<polygon fill="#e0e0e0" stroke="#999999" points="894,-190.62 848,-190.62 848,-171.38 894,-171.38 894,-190.62"/>
<text text-anchor="middle" x="871" y="-177.12" font-family="Helvetica,sans-Serif" font-size="10.00">iterator</text>
</a>
</g>
</g>
<!-- Node1&#45;&gt;Node18 -->
<g id="edge22_Node000001_Node000018" class="edge">
<title>Node1&#45;&gt;Node18</title>
<g id="a_edge22_Node000001_Node000018"><a xlink:title=" ">
<path fill="none" stroke="#63b8ff" d="M515.19,-244.08C590.63,-239.73 726.95,-227.87 839,-196.25 840.17,-195.92 841.35,-195.55 842.54,-195.16"/>
<polygon fill="#63b8ff" stroke="#63b8ff" points="843.6,-198.5 851.65,-191.62 841.06,-191.98 843.6,-198.5"/>
</a>
</g>
</g>
<!-- Node2&#45;&gt;Node3 -->
<g id="edge2_Node000002_Node000003" class="edge">
<title>Node2&#45;&gt;Node3</title>
<g id="a_edge2_Node000002_Node000003"><a xlink:title=" ">
<path fill="none" stroke="#63b8ff" d="M102.41,-111.21C156.99,-102.1 246.96,-87.08 308.27,-76.85"/>
<polygon fill="#63b8ff" stroke="#63b8ff" points="308.59,-80.34 317.87,-75.24 307.43,-73.44 308.59,-80.34"/>
</a>
</g>
</g>
<!-- Node6 -->
<g id="Node000006" class="node">
<title>Node6</title>
<g id="a_Node000006"><a xlink:title=" ">
<polygon fill="#e0e0e0" stroke="#999999" points="40,-74.5 0,-74.5 0,-55.25 40,-55.25 40,-74.5"/>
<text text-anchor="middle" x="20" y="-61" font-family="Helvetica,sans-Serif" font-size="10.00">string</text>
</a>
</g>
</g>
<!-- Node2&#45;&gt;Node6 -->
<g id="edge5_Node000002_Node000006" class="edge">
<title>Node2&#45;&gt;Node6</title>
<g id="a_edge5_Node000002_Node000006"><a xlink:title=" ">
<path fill="none" stroke="#63b8ff" d="M49.22,-110.33C44.59,-103.28 37.93,-93.15 32.13,-84.33"/>
<polygon fill="#63b8ff" stroke="#63b8ff" points="35.15,-82.56 26.74,-76.12 29.3,-86.4 35.15,-82.56"/>
</a>
</g>
</g>
<!-- Node7 -->
<g id="Node000007" class="node">
<title>Node7</title>
<g id="a_Node000007"><a xlink:title=" ">
<polygon fill="#e0e0e0" stroke="#999999" points="123.75,-74.5 58.25,-74.5 58.25,-55.25 123.75,-55.25 123.75,-74.5"/>
<text text-anchor="middle" x="91" y="-61" font-family="Helvetica,sans-Serif" font-size="10.00">string_view</text>
</a>
</g>
</g>
<!-- Node2&#45;&gt;Node7 -->
<g id="edge6_Node000002_Node000007" class="edge">
<title>Node2&#45;&gt;Node7</title>
<g id="a_edge6_Node000002_Node000007"><a xlink:title=" ">
<path fill="none" stroke="#63b8ff" d="M60.94,-110.33C65.71,-103.28 72.56,-93.15 78.52,-84.33"/>
<polygon fill="#63b8ff" stroke="#63b8ff" points="81.38,-86.36 84.08,-76.11 75.58,-82.44 81.38,-86.36"/>
</a>
</g>
</g>
<!-- Node4 -->
<g id="Node000004" class="node">
<title>Node4</title>
<g id="a_Node000004"><a xlink:title=" ">
<polygon fill="#e0e0e0" stroke="#999999" points="364.62,-19.25 319.38,-19.25 319.38,0 364.62,0 364.62,-19.25"/>
<text text-anchor="middle" x="342" y="-5.75" font-family="Helvetica,sans-Serif" font-size="10.00">cstdint</text>
</a>
</g>
</g>
<!-- Node3&#45;&gt;Node4 -->
<g id="edge3_Node000003_Node000004" class="edge">
<title>Node3&#45;&gt;Node4</title>
<g id="a_edge3_Node000003_Node000004"><a xlink:title=" ">
<path fill="none" stroke="#63b8ff" d="M368.72,-55.08C364.53,-48.11 358.52,-38.12 353.27,-29.37"/>
<polygon fill="#63b8ff" stroke="#63b8ff" points="356.33,-27.68 348.18,-20.91 350.33,-31.28 356.33,-27.68"/>
</a>
</g>
</g>
<!-- Node5 -->
<g id="Node000005" class="node">
<title>Node5</title>
<g id="a_Node000005"><a xlink:title=" ">
<polygon fill="#e0e0e0" stroke="#999999" points="429.75,-19.25 382.25,-19.25 382.25,0 429.75,0 429.75,-19.25"/>
<text text-anchor="middle" x="406" y="-5.75" font-family="Helvetica,sans-Serif" font-size="10.00">version</text>
</a>
</g>
</g>
<!-- Node3&#45;&gt;Node5 -->
<g id="edge4_Node000003_Node000005" class="edge">
<title>Node3&#45;&gt;Node5</title>
<g id="a_edge4_Node000003_Node000005"><a xlink:title=" ">
<path fill="none" stroke="#63b8ff" d="M379.28,-55.08C383.47,-48.11 389.48,-38.12 394.73,-29.37"/>
<polygon fill="#63b8ff" stroke="#63b8ff" points="397.67,-31.28 399.82,-20.91 391.67,-27.68 397.67,-31.28"/>
</a>
</g>
</g>
<!-- Node8&#45;&gt;Node2 -->
<g id="edge9_Node000008_Node000002" class="edge">
<title>Node8&#45;&gt;Node2</title>
<g id="a_edge9_Node000008_Node000002"><a xlink:title=" ">
<path fill="none" stroke="#63b8ff" d="M280.02,-170.93C233.55,-160.64 157.68,-143.85 107.06,-132.65"/>
<polygon fill="#63b8ff" stroke="#63b8ff" points="108.02,-129.28 97.5,-130.53 106.51,-136.11 108.02,-129.28"/>
</a>
</g>
</g>
<!-- Node8&#45;&gt;Node3 -->
<g id="edge10_Node000008_Node000003" class="edge">
<title>Node8&#45;&gt;Node3</title>
<g id="a_edge10_Node000008_Node000003"><a xlink:title=" ">
<path fill="none" stroke="#63b8ff" d="M328.43,-170.89C336.02,-161.2 347.7,-145.17 355,-129.75 361.68,-115.64 366.59,-98.67 369.75,-85.76"/>
<polygon fill="#63b8ff" stroke="#63b8ff" points="373.09,-86.87 371.9,-76.34 366.26,-85.31 373.09,-86.87"/>
</a>
</g>
</g>
<!-- Node9 -->
<g id="Node000009" class="node">
<title>Node9</title>
<g id="a_Node000009"><a xlink:title=" ">
<polygon fill="#e0e0e0" stroke="#999999" points="275.88,-129.75 220.12,-129.75 220.12,-110.5 275.88,-110.5 275.88,-129.75"/>
<text text-anchor="middle" x="248" y="-116.25" font-family="Helvetica,sans-Serif" font-size="10.00">concepts</text>
</a>
</g>
</g>
<!-- Node8&#45;&gt;Node9 -->
<g id="edge11_Node000008_Node000009" class="edge">
<title>Node8&#45;&gt;Node9</title>
<g id="a_edge11_Node000008_Node000009"><a xlink:title=" ">
<path fill="none" stroke="#63b8ff" d="M309.91,-171.06C298.76,-162.07 281.34,-148.01 267.81,-137.1"/>
<polygon fill="#63b8ff" stroke="#63b8ff" points="270.35,-134.65 260.37,-131.1 265.96,-140.1 270.35,-134.65"/>
</a>
</g>
</g>
<!-- Node10 -->
<g id="Node000010" class="node">
<title>Node10</title>
<g id="a_Node000010"><a xlink:title=" ">
<polygon fill="#e0e0e0" stroke="#999999" points="345.62,-129.75 294.38,-129.75 294.38,-110.5 345.62,-110.5 345.62,-129.75"/>
<text text-anchor="middle" x="320" y="-116.25" font-family="Helvetica,sans-Serif" font-size="10.00">sstream</text>
</a>
</g>
</g>
<!-- Node8&#45;&gt;Node10 -->
<g id="edge12_Node000008_Node000010" class="edge">
<title>Node8&#45;&gt;Node10</title>
<g id="a_edge12_Node000008_Node000010"><a xlink:title=" ">
<path fill="none" stroke="#63b8ff" d="M320.85,-171.06C320.72,-163.28 320.52,-151.7 320.35,-141.66"/>
<polygon fill="#63b8ff" stroke="#63b8ff" points="323.85,-141.6 320.18,-131.66 316.85,-141.72 323.85,-141.6"/>
</a>
</g>
</g>
<!-- Node8&#45;&gt;Node11 -->
<g id="edge13_Node000008_Node000011" class="edge">
<title>Node8&#45;&gt;Node11</title>
<g id="a_edge13_Node000008_Node000011"><a xlink:title=" ">
<path fill="none" stroke="#63b8ff" d="M338.01,-171.06C356.02,-161.59 384.71,-146.51 405.85,-135.4"/>
<polygon fill="#63b8ff" stroke="#63b8ff" points="407.27,-138.61 414.49,-130.86 404.01,-132.41 407.27,-138.61"/>
</a>
</g>
</g>
<!-- Node8&#45;&gt;Node12 -->
<g id="edge14_Node000008_Node000012" class="edge">
<title>Node8&#45;&gt;Node12</title>
<g id="a_edge14_Node000008_Node000012"><a xlink:title=" ">
<path fill="none" stroke="#63b8ff" d="M348.73,-170.93C381.69,-160.15 436.5,-142.22 470.59,-131.07"/>
<polygon fill="#63b8ff" stroke="#63b8ff" points="471.45,-134.47 479.86,-128.04 469.27,-127.82 471.45,-134.47"/>
</a>
</g>
</g>
<!-- Node13 -->
<g id="Node000013" class="node">
<title>Node13</title>
<g id="a_Node000013"><a xlink:title=" ">
<polygon fill="#e0e0e0" stroke="#999999" points="201.88,-129.75 158.12,-129.75 158.12,-110.5 201.88,-110.5 201.88,-129.75"/>
<text text-anchor="middle" x="180" y="-116.25" font-family="Helvetica,sans-Serif" font-size="10.00">format</text>
</a>
</g>
</g>
<!-- Node8&#45;&gt;Node13 -->
<g id="edge15_Node000008_Node000013" class="edge">
<title>Node8&#45;&gt;Node13</title>
<g id="a_edge15_Node000008_Node000013"><a xlink:title=" ">
<path fill="none" stroke="#63b8ff" d="M299.28,-170.93C275.92,-161.18 238.56,-145.58 211.87,-134.43"/>
<polygon fill="#63b8ff" stroke="#63b8ff" points="213.49,-131.32 202.91,-130.69 210.79,-137.78 213.49,-131.32"/>
</a>
</g>
</g>
<!-- Node14&#45;&gt;Node3 -->
<g id="edge17_Node000014_Node000003" class="edge">
<title>Node14&#45;&gt;Node3</title>
<g id="a_edge17_Node000014_Node000003"><a xlink:title=" ">
<path fill="none" stroke="#63b8ff" d="M685.44,-171.02C677.21,-155.82 658.35,-125.26 633,-110.5 602.78,-92.9 515.88,-80.38 451.02,-73.16"/>
<polygon fill="#63b8ff" stroke="#63b8ff" points="451.41,-69.69 441.09,-72.08 450.66,-76.64 451.41,-69.69"/>
</a>
</g>
</g>
<!-- Node15&#45;&gt;Node3 -->
<g id="edge19_Node000015_Node000003" class="edge">
<title>Node15&#45;&gt;Node3</title>
<g id="a_edge19_Node000015_Node000003"><a xlink:title=" ">
<path fill="none" stroke="#63b8ff" d="M547.23,-165.48C546.68,-149.85 543.35,-125.24 529,-110.5 508.48,-89.42 478.7,-78.13 450.71,-72.14"/>
<polygon fill="#63b8ff" stroke="#63b8ff" points="451.66,-68.75 441.18,-70.31 450.34,-75.63 451.66,-68.75"/>
</a>
</g>
</g>
<!-- Node16 -->
<g id="Node000016" class="node">
<title>Node16</title>
<g id="a_Node000016"><a xlink:title=" ">
<polygon fill="#e0e0e0" stroke="#999999" points="624.12,-129.75 575.88,-129.75 575.88,-110.5 624.12,-110.5 624.12,-129.75"/>
<text text-anchor="middle" x="600" y="-116.25" font-family="Helvetica,sans-Serif" font-size="10.00">cstddef</text>
</a>
</g>
</g>
<!-- Node15&#45;&gt;Node16 -->
<g id="edge20_Node000015_Node000016" class="edge">
<title>Node15&#45;&gt;Node16</title>
<g id="a_edge20_Node000015_Node000016"><a xlink:title=" ">
<path fill="none" stroke="#63b8ff" d="M560.1,-165.45C567.39,-157.34 576.53,-147.2 584.21,-138.66"/>
<polygon fill="#63b8ff" stroke="#63b8ff" points="586.73,-141.1 590.82,-131.33 581.53,-136.42 586.73,-141.1"/>
</a>
</g>
</g>
</g>
</svg>

<g id="navigator" transform="translate(0 0)" fill="#404254">
  <rect fill="#f2f5e9" fill-opacity="0.5" stroke="#606060" stroke-width=".5" x="0" y="0" width="60" height="60"/>
  <use id="zoomplus" xlink:href="#zoomPlus" x="17" y="9" onmousedown="handleZoom(evt,'in')"/>
  <use id="zoomminus" xlink:href="#zoomMin" x="42" y="9" onmousedown="handleZoom(evt,'out')"/>
  <use id="reset" xlink:href="#resetDef" x="30" y="36" onmousedown="handleReset()"/>
   <use id="arrowup" xlink:href="#arrowUp" x="0" y="0" onmousedown="handlePan(0,-1)"/>
  <use id="arrowright" xlink:href="#arrowRight" x="0" y="0" onmousedown="handlePan(1,0)"/>
  <use id="arrowdown" xlink:href="#arrowDown" x="0" y="0" onmousedown="handlePan(0,1)"/>
  <use id="arrowleft" xlink:href="#arrowLeft" x="0" y="0" onmousedown="handlePan(-1,0)"/>
</g>
<svg viewBox="0 0 15 15" width="100%" height="30px" preserveAspectRatio="xMaxYMin meet">
 <g id="arrow_out" transform="scale(0.3 0.3)">
  <a xlink:href="_print_8hpp__incl_org.svg" target="_base">
   <rect id="button" ry="5" rx="5" y="6" x="6" height="38" width="38"
        fill="#f2f5e9" fill-opacity="0.5" stroke="#606060" stroke-width="1.0"/>
   <path id="arrow"
     d="M 11.500037,31.436501 C 11.940474,20.09759 22.043105,11.32322 32.158766,21.979434 L 37.068811,17.246167 C 37.068811,17.246167 37.088388,32 37.088388,32 L 22.160133,31.978069 C 22.160133,31.978069 26.997745,27.140456 26.997745,27.140456 C 18.528582,18.264221 13.291696,25.230495 11.500037,31.436501 z"
     style="fill:#404040;"/>
  </a>
 </g>
</svg>

<style type='text/css'>
<![CDATA[
[data-mouse-over-selected='false'] { opacity: 0.7; }
[data-mouse-over-selected='true']  { opacity: 1.0; }
]]>
</style>
<script type="application/ecmascript"><![CDATA[
document.addEventListener('DOMContentLoaded', (event) => {
  highlightEdges();
  highlightAdjacentNodes();
});
]]></script>
</svg>
