<?xml version="1.0" encoding="UTF-8" standalone="no"?>
<!DOCTYPE svg PUBLIC "-//W3C//DTD SVG 1.1//EN"
 "http://www.w3.org/Graphics/SVG/1.1/DTD/svg11.dtd">
<!-- Generated by graphviz version 12.2.1 (20241206.2353)
 -->
<!-- Title: mimic++/printing/CommonTypePrinter.hpp Pages: 1 -->
<!--zoomable 315 -->

<svg id="main" version="1.1" xmlns="http://www.w3.org/2000/svg" xmlns:xlink="http://www.w3.org/1999/xlink" xml:space="preserve" onload="init(evt)">

<style type="text/css"><![CDATA[
.node, .edge {opacity: 0.7;}
.node.selected, .edge.selected {opacity: 1;}
.edge:hover path { stroke: red; }
.edge:hover polygon { stroke: red; fill: red; }
]]></style>

<defs>
  <circle id="rim" cx="0" cy="0" r="7"/>
  <circle id="rim2" cx="0" cy="0" r="3.5"/>
  <g id="zoomPlus">
    <use xlink:href="#rim" fill="#404040"><set attributeName="fill" to="#808080" begin="zoomplus.mouseover" end="zoomplus.mouseout"/></use>
    <path d="M-4,0h8M0,-4v8" fill="none" stroke="white" stroke-width="1.5" pointer-events="none"/>
  </g>
  <g id="zoomMin">
    <use xlink:href="#rim" fill="#404040"><set attributeName="fill" to="#808080" begin="zoomminus.mouseover" end="zoomminus.mouseout"/></use>
    <path d="M-4,0h8" fill="none" stroke="white" stroke-width="1.5" pointer-events="none"/>
  </g>
  <g id="arrowUp" transform="translate(30 24)">
    <use xlink:href="#rim"/>
    <path pointer-events="none" fill="none" stroke="white" stroke-width="1.5" d="M0,-3.0v7 M-2.5,-0.5L0,-3.0L2.5,-0.5"/>
  </g>
  <g id="arrowRight" transform="rotate(90) translate(36 -43)">
    <use xlink:href="#rim"/>
    <path pointer-events="none" fill="none" stroke="white" stroke-width="1.5" d="M0,-3.0v7 M-2.5,-0.5L0,-3.0L2.5,-0.5"/>
  </g>
  <g id="arrowDown" transform="rotate(180) translate(-30 -48)">
    <use xlink:href="#rim"/>
    <path pointer-events="none" fill="none" stroke="white" stroke-width="1.5" d="M0,-3.0v7 M-2.5,-0.5L0,-3.0L2.5,-0.5"/>
  </g>
  <g id="arrowLeft" transform="rotate(270) translate(-36 17)">
    <use xlink:href="#rim"/>
    <path pointer-events="none" fill="none" stroke="white" stroke-width="1.5" d="M0,-3.0v7 M-2.5,-0.5L0,-3.0L2.5,-0.5"/>
  </g>
  <g id="resetDef">
    <use xlink:href="#rim2" fill="#404040"><set attributeName="fill" to="#808080" begin="reset.mouseover" end="reset.mouseout"/></use>
  </g>
</defs>
<script type="application/ecmascript">
var viewWidth = 1144;
var viewHeight = 315;
var sectionId = 'dynsection-0';
</script>
<script type="application/ecmascript" xlink:href="../../svg.min.js"/>
<svg id="graph" class="graph">
<g id="viewport">
<title>mimic++/printing/CommonTypePrinter.hpp</title>
<!-- Node1 -->
<g id="Node000001" class="node">
<title>Node1</title>
<g id="a_Node000001"><a xlink:title=" ">
<polygon fill="#999999" stroke="#666666" points="1135.88,-306.75 984.12,-306.75 984.12,-276.25 1135.88,-276.25 1135.88,-306.75"/>
<text text-anchor="start" x="992.12" y="-293.25" font-family="Helvetica,sans-Serif" font-size="10.00">mimic++/printing/CommonType</text>
<text text-anchor="middle" x="1060" y="-282" font-family="Helvetica,sans-Serif" font-size="10.00">Printer.hpp</text>
</a>
</g>
</g>
<!-- Node2 -->
<g id="Node000002" class="node">
<title>Node2</title>
<g id="a_Node000002"><a xlink:href="../../d6/d35/_type_printer_8hpp.html" target="_top" xlink:title=" ">
<polygon fill="white" stroke="#666666" points="522.62,-240.25 363.38,-240.25 363.38,-221 522.62,-221 522.62,-240.25"/>
<text text-anchor="middle" x="443" y="-226.75" font-family="Helvetica,sans-Serif" font-size="10.00">mimic++/printing/TypePrinter.hpp</text>
</a>
</g>
</g>
<!-- Node1&#45;&gt;Node2 -->
<g id="edge1_Node000001_Node000002" class="edge">
<title>Node1&#45;&gt;Node2</title>
<g id="a_edge1_Node000001_Node000002"><a xlink:title=" ">
<path fill="none" stroke="#63b8ff" d="M983.72,-283.22C869.92,-272.36 656.03,-251.95 534.14,-240.32"/>
<polygon fill="#63b8ff" stroke="#63b8ff" points="534.8,-236.87 524.51,-239.4 534.13,-243.84 534.8,-236.87"/>
</a>
</g>
</g>
<!-- Node7 -->
<g id="Node000007" class="node">
<title>Node7</title>
<g id="a_Node000007"><a xlink:title=" ">
<polygon fill="#e0e0e0" stroke="#999999" points="1090,-74.5 1050,-74.5 1050,-55.25 1090,-55.25 1090,-74.5"/>
<text text-anchor="middle" x="1070" y="-61" font-family="Helvetica,sans-Serif" font-size="10.00">string</text>
</a>
</g>
</g>
<!-- Node1&#45;&gt;Node7 -->
<g id="edge43_Node000001_Node000007" class="edge">
<title>Node1&#45;&gt;Node7</title>
<g id="a_edge43_Node000001_Node000007"><a xlink:title=" ">
<path fill="none" stroke="#63b8ff" d="M1072.95,-275.84C1080.4,-266.4 1089.05,-253.45 1093,-240.25 1109.52,-185 1106.59,-166.54 1093,-110.5 1090.82,-101.52 1086.5,-92.32 1082.19,-84.63"/>
<polygon fill="#63b8ff" stroke="#63b8ff" points="1085.28,-82.97 1077.1,-76.23 1079.29,-86.6 1085.28,-82.97"/>
</a>
</g>
</g>
<!-- Node8 -->
<g id="Node000008" class="node">
<title>Node8</title>
<g id="a_Node000008"><a xlink:title=" ">
<polygon fill="#e0e0e0" stroke="#999999" points="620.75,-74.5 555.25,-74.5 555.25,-55.25 620.75,-55.25 620.75,-74.5"/>
<text text-anchor="middle" x="588" y="-61" font-family="Helvetica,sans-Serif" font-size="10.00">string_view</text>
</a>
</g>
</g>
<!-- Node1&#45;&gt;Node8 -->
<g id="edge44_Node000001_Node000008" class="edge">
<title>Node1&#45;&gt;Node8</title>
<g id="a_edge44_Node000001_Node000008"><a xlink:title=" ">
<path fill="none" stroke="#63b8ff" d="M1065.82,-275.78C1078.22,-241.68 1102.8,-156.69 1060,-110.5 1031.23,-79.45 743.9,-69.49 632.14,-66.77"/>
<polygon fill="#63b8ff" stroke="#63b8ff" points="632.55,-63.28 622.47,-66.54 632.38,-70.28 632.55,-63.28"/>
</a>
</g>
</g>
<!-- Node11 -->
<g id="Node000011" class="node">
<title>Node11</title>
<g id="a_Node000011"><a xlink:title=" ">
<polygon fill="#e0e0e0" stroke="#999999" points="1051.12,-129.75 1002.88,-129.75 1002.88,-110.5 1051.12,-110.5 1051.12,-129.75"/>
<text text-anchor="middle" x="1027" y="-116.25" font-family="Helvetica,sans-Serif" font-size="10.00">cstddef</text>
</a>
</g>
</g>
<!-- Node1&#45;&gt;Node11 -->
<g id="edge42_Node000001_Node000011" class="edge">
<title>Node1&#45;&gt;Node11</title>
<g id="a_edge42_Node000001_Node000011"><a xlink:title=" ">
<path fill="none" stroke="#63b8ff" d="M1057.13,-275.77C1051.21,-245.37 1037.63,-175.69 1030.91,-141.21"/>
<polygon fill="#63b8ff" stroke="#63b8ff" points="1034.41,-140.87 1029.06,-131.72 1027.54,-142.21 1034.41,-140.87"/>
</a>
</g>
</g>
<!-- Node3 -->
<g id="Node000003" class="node">
<title>Node3</title>
<g id="a_Node000003"><a xlink:href="../../d8/dd2/_config_8hpp.html" target="_top" xlink:title=" ">
<polygon fill="white" stroke="#666666" points="537.12,-74.5 434.88,-74.5 434.88,-55.25 537.12,-55.25 537.12,-74.5"/>
<text text-anchor="middle" x="486" y="-61" font-family="Helvetica,sans-Serif" font-size="10.00">mimic++/Config.hpp</text>
</a>
</g>
</g>
<!-- Node2&#45;&gt;Node3 -->
<g id="edge2_Node000002_Node000003" class="edge">
<title>Node2&#45;&gt;Node3</title>
<g id="a_edge2_Node000002_Node000003"><a xlink:title=" ">
<path fill="none" stroke="#63b8ff" d="M403.53,-220.55C371.58,-212.67 325.68,-200.17 287,-185 269.37,-178.09 267.02,-171.55 249,-165.75 148.1,-133.27 -54.31,-188.92 17,-110.5 43.82,-81.01 301.8,-70.55 423.3,-67.25"/>
<polygon fill="#63b8ff" stroke="#63b8ff" points="423.2,-70.75 433.11,-66.99 423.02,-63.75 423.2,-70.75"/>
</a>
</g>
</g>
<!-- Node6 -->
<g id="Node000006" class="node">
<title>Node6</title>
<g id="a_Node000006"><a xlink:href="../../df/dde/_fwd_8hpp.html" target="_top" xlink:title=" ">
<polygon fill="white" stroke="#666666" points="608,-129.75 514,-129.75 514,-110.5 608,-110.5 608,-129.75"/>
<text text-anchor="middle" x="561" y="-116.25" font-family="Helvetica,sans-Serif" font-size="10.00">mimic++/Fwd.hpp</text>
</a>
</g>
</g>
<!-- Node2&#45;&gt;Node6 -->
<g id="edge5_Node000002_Node000006" class="edge">
<title>Node2&#45;&gt;Node6</title>
<g id="a_edge5_Node000002_Node000006"><a xlink:title=" ">
<path fill="none" stroke="#63b8ff" d="M446.47,-220.8C452.06,-207.5 464.16,-182.12 481,-165.75 494.34,-152.78 512.2,-142.34 527.65,-134.83"/>
<polygon fill="#63b8ff" stroke="#63b8ff" points="528.9,-138.11 536.51,-130.74 525.97,-131.76 528.9,-138.11"/>
</a>
</g>
</g>
<!-- Node9 -->
<g id="Node000009" class="node">
<title>Node9</title>
<g id="a_Node000009"><a xlink:href="../../d8/d32/_type_traits_8hpp.html" target="_top" xlink:title=" ">
<polygon fill="white" stroke="#666666" points="919.5,-185 798.5,-185 798.5,-165.75 919.5,-165.75 919.5,-185"/>
<text text-anchor="middle" x="859" y="-171.5" font-family="Helvetica,sans-Serif" font-size="10.00">mimic++/TypeTraits.hpp</text>
</a>
</g>
</g>
<!-- Node2&#45;&gt;Node9 -->
<g id="edge9_Node000002_Node000009" class="edge">
<title>Node2&#45;&gt;Node9</title>
<g id="a_edge9_Node000002_Node000009"><a xlink:title=" ">
<path fill="none" stroke="#63b8ff" d="M514.04,-220.53C590.24,-210.78 710.58,-195.37 787.1,-185.58"/>
<polygon fill="#63b8ff" stroke="#63b8ff" points="787.09,-189.11 796.56,-184.37 786.2,-182.17 787.09,-189.11"/>
</a>
</g>
</g>
<!-- Node10 -->
<g id="Node000010" class="node">
<title>Node10</title>
<g id="a_Node000010"><a xlink:title=" ">
<polygon fill="#e0e0e0" stroke="#999999" points="946.88,-129.75 891.12,-129.75 891.12,-110.5 946.88,-110.5 946.88,-129.75"/>
<text text-anchor="middle" x="919" y="-116.25" font-family="Helvetica,sans-Serif" font-size="10.00">concepts</text>
</a>
</g>
</g>
<!-- Node2&#45;&gt;Node10 -->
<g id="edge35_Node000002_Node000010" class="edge">
<title>Node2&#45;&gt;Node10</title>
<g id="a_edge35_Node000002_Node000010"><a xlink:title=" ">
<path fill="none" stroke="#63b8ff" d="M523.02,-228.05C653.96,-224.64 902.23,-214.34 929,-185 939.98,-172.96 935.29,-154.03 929.17,-139.9"/>
<polygon fill="#63b8ff" stroke="#63b8ff" points="932.44,-138.62 924.9,-131.18 926.16,-141.7 932.44,-138.62"/>
</a>
</g>
</g>
<!-- Node14 -->
<g id="Node000014" class="node">
<title>Node14</title>
<g id="a_Node000014"><a xlink:href="../../d4/d2c/_utility_8hpp.html" target="_top" xlink:title=" ">
<polygon fill="white" stroke="#666666" points="396,-185 296,-185 296,-165.75 396,-165.75 396,-185"/>
<text text-anchor="middle" x="346" y="-171.5" font-family="Helvetica,sans-Serif" font-size="10.00">mimic++/Utility.hpp</text>
</a>
</g>
</g>
<!-- Node2&#45;&gt;Node14 -->
<g id="edge16_Node000002_Node000014" class="edge">
<title>Node2&#45;&gt;Node14</title>
<g id="a_edge16_Node000002_Node000014"><a xlink:title=" ">
<path fill="none" stroke="#63b8ff" d="M426.55,-220.59C411.77,-212.48 389.82,-200.43 372.57,-190.96"/>
<polygon fill="#63b8ff" stroke="#63b8ff" points="374.31,-187.93 363.86,-186.18 370.94,-194.06 374.31,-187.93"/>
</a>
</g>
</g>
<!-- Node20 -->
<g id="Node000020" class="node">
<title>Node20</title>
<g id="a_Node000020"><a xlink:title=" ">
<polygon fill="#e0e0e0" stroke="#999999" points="458.25,-129.75 419.75,-129.75 419.75,-110.5 458.25,-110.5 458.25,-129.75"/>
<text text-anchor="middle" x="439" y="-116.25" font-family="Helvetica,sans-Serif" font-size="10.00">utility</text>
</a>
</g>
</g>
<!-- Node2&#45;&gt;Node20 -->
<g id="edge40_Node000002_Node000020" class="edge">
<title>Node2&#45;&gt;Node20</title>
<g id="a_edge40_Node000002_Node000020"><a xlink:title=" ">
<path fill="none" stroke="#63b8ff" d="M442.67,-220.75C442.04,-203.5 440.62,-165.08 439.74,-141.31"/>
<polygon fill="#63b8ff" stroke="#63b8ff" points="443.25,-141.5 439.39,-131.64 436.26,-141.76 443.25,-141.5"/>
</a>
</g>
</g>
<!-- Node21 -->
<g id="Node000021" class="node">
<title>Node21</title>
<g id="a_Node000021"><a xlink:href="../../d5/dec/_format_8hpp.html" target="_top" xlink:title=" ">
<polygon fill="white" stroke="#666666" points="630.25,-185 489.75,-185 489.75,-165.75 630.25,-165.75 630.25,-185"/>
<text text-anchor="middle" x="560" y="-171.5" font-family="Helvetica,sans-Serif" font-size="10.00">mimic++/printing/Format.hpp</text>
</a>
</g>
</g>
<!-- Node2&#45;&gt;Node21 -->
<g id="edge26_Node000002_Node000021" class="edge">
<title>Node2&#45;&gt;Node21</title>
<g id="a_edge26_Node000002_Node000021"><a xlink:title=" ">
<path fill="none" stroke="#63b8ff" d="M462.85,-220.59C481.17,-212.25 508.65,-199.75 529.71,-190.16"/>
<polygon fill="#63b8ff" stroke="#63b8ff" points="531.03,-193.41 538.68,-186.08 528.13,-187.04 531.03,-193.41"/>
</a>
</g>
</g>
<!-- Node24 -->
<g id="Node000024" class="node">
<title>Node24</title>
<g id="a_Node000024"><a xlink:title=" ">
<polygon fill="#e0e0e0" stroke="#999999" points="703.88,-185 648.12,-185 648.12,-165.75 703.88,-165.75 703.88,-185"/>
<text text-anchor="middle" x="676" y="-171.5" font-family="Helvetica,sans-Serif" font-size="10.00">algorithm</text>
</a>
</g>
</g>
<!-- Node2&#45;&gt;Node24 -->
<g id="edge34_Node000002_Node000024" class="edge">
<title>Node2&#45;&gt;Node24</title>
<g id="a_edge34_Node000002_Node000024"><a xlink:title=" ">
<path fill="none" stroke="#63b8ff" d="M483.18,-220.54C520.49,-212.09 577.88,-199.06 636.72,-185.52"/>
<polygon fill="#63b8ff" stroke="#63b8ff" points="637.29,-188.98 646.25,-183.32 635.72,-182.16 637.29,-188.98"/>
</a>
</g>
</g>
<!-- Node25 -->
<g id="Node000025" class="node">
<title>Node25</title>
<g id="a_Node000025"><a xlink:title=" ">
<polygon fill="#e0e0e0" stroke="#999999" points="780,-185 722,-185 722,-165.75 780,-165.75 780,-185"/>
<text text-anchor="middle" x="751" y="-171.5" font-family="Helvetica,sans-Serif" font-size="10.00">functional</text>
</a>
</g>
</g>
<!-- Node2&#45;&gt;Node25 -->
<g id="edge36_Node000002_Node000025" class="edge">
<title>Node2&#45;&gt;Node25</title>
<g id="a_edge36_Node000002_Node000025"><a xlink:title=" ">
<path fill="none" stroke="#63b8ff" d="M504.58,-220.51C556.85,-212.54 634.12,-200.18 710.34,-185.43"/>
<polygon fill="#63b8ff" stroke="#63b8ff" points="710.95,-188.88 720.09,-183.52 709.61,-182.01 710.95,-188.88"/>
</a>
</g>
</g>
<!-- Node26 -->
<g id="Node000026" class="node">
<title>Node26</title>
<g id="a_Node000026"><a xlink:title=" ">
<polygon fill="#e0e0e0" stroke="#999999" points="46,-185 0,-185 0,-165.75 46,-165.75 46,-185"/>
<text text-anchor="middle" x="23" y="-171.5" font-family="Helvetica,sans-Serif" font-size="10.00">iterator</text>
</a>
</g>
</g>
<!-- Node2&#45;&gt;Node26 -->
<g id="edge37_Node000002_Node000026" class="edge">
<title>Node2&#45;&gt;Node26</title>
<g id="a_edge37_Node000002_Node000026"><a xlink:title=" ">
<path fill="none" stroke="#63b8ff" d="M362.96,-223.92C286.68,-217.69 168.48,-205.97 57.4,-185.2"/>
<polygon fill="#63b8ff" stroke="#63b8ff" points="58.29,-181.8 47.81,-183.37 56.98,-188.68 58.29,-181.8"/>
</a>
</g>
</g>
<!-- Node27 -->
<g id="Node000027" class="node">
<title>Node27</title>
<g id="a_Node000027"><a xlink:title=" ">
<polygon fill="#e0e0e0" stroke="#999999" points="114.25,-185 63.75,-185 63.75,-165.75 114.25,-165.75 114.25,-185"/>
<text text-anchor="middle" x="89" y="-171.5" font-family="Helvetica,sans-Serif" font-size="10.00">memory</text>
</a>
</g>
</g>
<!-- Node2&#45;&gt;Node27 -->
<g id="edge38_Node000002_Node000027" class="edge">
<title>Node2&#45;&gt;Node27</title>
<g id="a_edge38_Node000002_Node000027"><a xlink:title=" ">
<path fill="none" stroke="#63b8ff" d="M363.03,-220.95C300.72,-213.61 211.84,-201.92 125.6,-185.33"/>
<polygon fill="#63b8ff" stroke="#63b8ff" points="126.52,-181.95 116.04,-183.47 125.18,-188.82 126.52,-181.95"/>
</a>
</g>
</g>
<!-- Node28 -->
<g id="Node000028" class="node">
<title>Node28</title>
<g id="a_Node000028"><a xlink:title=" ">
<polygon fill="#e0e0e0" stroke="#999999" points="181.88,-185 132.12,-185 132.12,-165.75 181.88,-165.75 181.88,-185"/>
<text text-anchor="middle" x="157" y="-171.5" font-family="Helvetica,sans-Serif" font-size="10.00">typeinfo</text>
</a>
</g>
</g>
<!-- Node2&#45;&gt;Node28 -->
<g id="edge39_Node000002_Node000028" class="edge">
<title>Node2&#45;&gt;Node28</title>
<g id="a_edge39_Node000002_Node000028"><a xlink:title=" ">
<path fill="none" stroke="#63b8ff" d="M384.46,-220.5C335.73,-212.63 264.31,-200.44 193.16,-185.34"/>
<polygon fill="#63b8ff" stroke="#63b8ff" points="194.19,-181.98 183.68,-183.3 192.73,-188.82 194.19,-181.98"/>
</a>
</g>
</g>
<!-- Node29 -->
<g id="Node000029" class="node">
<title>Node29</title>
<g id="a_Node000029"><a xlink:title=" ">
<polygon fill="#e0e0e0" stroke="#999999" points="239.62,-185 200.38,-185 200.38,-165.75 239.62,-165.75 239.62,-185"/>
<text text-anchor="middle" x="220" y="-171.5" font-family="Helvetica,sans-Serif" font-size="10.00">regex</text>
</a>
</g>
</g>
<!-- Node2&#45;&gt;Node29 -->
<g id="edge41_Node000002_Node000029" class="edge">
<title>Node2&#45;&gt;Node29</title>
<g id="a_edge41_Node000002_Node000029"><a xlink:title=" ">
<path fill="none" stroke="#63b8ff" d="M403.86,-220.58C365.61,-211.7 305.74,-197.67 254,-185 253.02,-184.76 252.02,-184.51 251.01,-184.26"/>
<polygon fill="#63b8ff" stroke="#63b8ff" points="252.14,-180.94 241.59,-181.91 250.44,-187.73 252.14,-180.94"/>
</a>
</g>
</g>
<!-- Node4 -->
<g id="Node000004" class="node">
<title>Node4</title>
<g id="a_Node000004"><a xlink:title=" ">
<polygon fill="#e0e0e0" stroke="#999999" points="784.62,-19.25 739.38,-19.25 739.38,0 784.62,0 784.62,-19.25"/>
<text text-anchor="middle" x="762" y="-5.75" font-family="Helvetica,sans-Serif" font-size="10.00">cstdint</text>
</a>
</g>
</g>
<!-- Node3&#45;&gt;Node4 -->
<g id="edge3_Node000003_Node000004" class="edge">
<title>Node3&#45;&gt;Node4</title>
<g id="a_edge3_Node000003_Node000004"><a xlink:title=" ">
<path fill="none" stroke="#63b8ff" d="M533.13,-54.78C588.46,-44.11 678.87,-26.66 727.86,-17.21"/>
<polygon fill="#63b8ff" stroke="#63b8ff" points="728.45,-20.66 737.6,-15.33 727.12,-13.79 728.45,-20.66"/>
</a>
</g>
</g>
<!-- Node5 -->
<g id="Node000005" class="node">
<title>Node5</title>
<g id="a_Node000005"><a xlink:title=" ">
<polygon fill="#e0e0e0" stroke="#999999" points="509.75,-19.25 462.25,-19.25 462.25,0 509.75,0 509.75,-19.25"/>
<text text-anchor="middle" x="486" y="-5.75" font-family="Helvetica,sans-Serif" font-size="10.00">version</text>
</a>
</g>
</g>
<!-- Node3&#45;&gt;Node5 -->
<g id="edge4_Node000003_Node000005" class="edge">
<title>Node3&#45;&gt;Node5</title>
<g id="a_edge4_Node000003_Node000005"><a xlink:title=" ">
<path fill="none" stroke="#63b8ff" d="M486,-55.08C486,-48.57 486,-39.42 486,-31.12"/>
<polygon fill="#63b8ff" stroke="#63b8ff" points="489.5,-31.12 486,-21.12 482.5,-31.12 489.5,-31.12"/>
</a>
</g>
</g>
<!-- Node6&#45;&gt;Node3 -->
<g id="edge6_Node000006_Node000003" class="edge">
<title>Node6&#45;&gt;Node3</title>
<g id="a_edge6_Node000006_Node000003"><a xlink:title=" ">
<path fill="none" stroke="#63b8ff" d="M548.28,-110.09C537.29,-102.29 521.16,-90.84 508.07,-81.54"/>
<polygon fill="#63b8ff" stroke="#63b8ff" points="510.2,-78.76 500.02,-75.83 506.15,-84.47 510.2,-78.76"/>
</a>
</g>
</g>
<!-- Node6&#45;&gt;Node7 -->
<g id="edge7_Node000006_Node000007" class="edge">
<title>Node6&#45;&gt;Node7</title>
<g id="a_edge7_Node000006_Node000007"><a xlink:title=" ">
<path fill="none" stroke="#63b8ff" d="M608.33,-111.65C611.26,-111.24 614.17,-110.86 617,-110.5 774.82,-90.59 964.53,-74.4 1038.4,-68.39"/>
<polygon fill="#63b8ff" stroke="#63b8ff" points="1038.44,-71.9 1048.13,-67.6 1037.88,-64.92 1038.44,-71.9"/>
</a>
</g>
</g>
<!-- Node6&#45;&gt;Node8 -->
<g id="edge8_Node000006_Node000008" class="edge">
<title>Node6&#45;&gt;Node8</title>
<g id="a_edge8_Node000006_Node000008"><a xlink:title=" ">
<path fill="none" stroke="#63b8ff" d="M565.46,-110.33C568.95,-103.44 573.95,-93.59 578.35,-84.91"/>
<polygon fill="#63b8ff" stroke="#63b8ff" points="581.36,-86.71 582.76,-76.21 575.12,-83.55 581.36,-86.71"/>
</a>
</g>
</g>
<!-- Node9&#45;&gt;Node4 -->
<g id="edge13_Node000009_Node000004" class="edge">
<title>Node9&#45;&gt;Node4</title>
<g id="a_edge13_Node000009_Node000004"><a xlink:title=" ">
<path fill="none" stroke="#63b8ff" d="M898.37,-165.32C932.01,-155.54 972.54,-137.61 956,-110.5 921.07,-53.23 841.64,-27.4 795.98,-16.92"/>
<polygon fill="#63b8ff" stroke="#63b8ff" points="796.87,-13.53 786.36,-14.84 795.39,-20.37 796.87,-13.53"/>
</a>
</g>
</g>
<!-- Node9&#45;&gt;Node6 -->
<g id="edge10_Node000009_Node000006" class="edge">
<title>Node9&#45;&gt;Node6</title>
<g id="a_edge10_Node000009_Node000006"><a xlink:title=" ">
<path fill="none" stroke="#63b8ff" d="M808.11,-165.28C755.81,-155.94 674.48,-141.4 619.54,-131.59"/>
<polygon fill="#63b8ff" stroke="#63b8ff" points="620.19,-128.15 609.73,-129.83 618.96,-135.04 620.19,-128.15"/>
</a>
</g>
</g>
<!-- Node9&#45;&gt;Node10 -->
<g id="edge11_Node000009_Node000010" class="edge">
<title>Node9&#45;&gt;Node10</title>
<g id="a_edge11_Node000009_Node000010"><a xlink:title=" ">
<path fill="none" stroke="#63b8ff" d="M869.18,-165.34C877.76,-157.72 890.27,-146.62 900.6,-137.45"/>
<polygon fill="#63b8ff" stroke="#63b8ff" points="902.68,-140.29 907.84,-131.03 898.04,-135.05 902.68,-140.29"/>
</a>
</g>
</g>
<!-- Node9&#45;&gt;Node11 -->
<g id="edge12_Node000009_Node000011" class="edge">
<title>Node9&#45;&gt;Node11</title>
<g id="a_edge12_Node000009_Node000011"><a xlink:title=" ">
<path fill="none" stroke="#63b8ff" d="M887.5,-165.34C916.26,-156.22 960.75,-142.13 991.72,-132.31"/>
<polygon fill="#63b8ff" stroke="#63b8ff" points="992.55,-135.72 1001.02,-129.36 990.43,-129.04 992.55,-135.72"/>
</a>
</g>
</g>
<!-- Node12 -->
<g id="Node000012" class="node">
<title>Node12</title>
<g id="a_Node000012"><a xlink:title=" ">
<polygon fill="#e0e0e0" stroke="#999999" points="794.5,-129.75 757.5,-129.75 757.5,-110.5 794.5,-110.5 794.5,-129.75"/>
<text text-anchor="middle" x="776" y="-116.25" font-family="Helvetica,sans-Serif" font-size="10.00">tuple</text>
</a>
</g>
</g>
<!-- Node9&#45;&gt;Node12 -->
<g id="edge14_Node000009_Node000012" class="edge">
<title>Node9&#45;&gt;Node12</title>
<g id="a_edge14_Node000009_Node000012"><a xlink:title=" ">
<path fill="none" stroke="#63b8ff" d="M844.92,-165.34C832.52,-157.39 814.21,-145.64 799.57,-136.25"/>
<polygon fill="#63b8ff" stroke="#63b8ff" points="801.73,-133.47 791.42,-131.02 797.95,-139.37 801.73,-133.47"/>
</a>
</g>
</g>
<!-- Node13 -->
<g id="Node000013" class="node">
<title>Node13</title>
<g id="a_Node000013"><a xlink:title=" ">
<polygon fill="#e0e0e0" stroke="#999999" points="873.5,-129.75 812.5,-129.75 812.5,-110.5 873.5,-110.5 873.5,-129.75"/>
<text text-anchor="middle" x="843" y="-116.25" font-family="Helvetica,sans-Serif" font-size="10.00">type_traits</text>
</a>
</g>
</g>
<!-- Node9&#45;&gt;Node13 -->
<g id="edge15_Node000009_Node000013" class="edge">
<title>Node9&#45;&gt;Node13</title>
<g id="a_edge15_Node000009_Node000013"><a xlink:title=" ">
<path fill="none" stroke="#63b8ff" d="M856.36,-165.58C854.36,-158.92 851.52,-149.49 848.98,-141.03"/>
<polygon fill="#63b8ff" stroke="#63b8ff" points="852.36,-140.13 846.14,-131.56 845.66,-142.14 852.36,-140.13"/>
</a>
</g>
</g>
<!-- Node14&#45;&gt;Node6 -->
<g id="edge17_Node000014_Node000006" class="edge">
<title>Node14&#45;&gt;Node6</title>
<g id="a_edge17_Node000014_Node000006"><a xlink:title=" ">
<path fill="none" stroke="#63b8ff" d="M382.47,-165.34C418.53,-156.41 473.9,-142.7 513.4,-132.91"/>
<polygon fill="#63b8ff" stroke="#63b8ff" points="514.01,-136.37 522.88,-130.57 512.33,-129.57 514.01,-136.37"/>
</a>
</g>
</g>
<!-- Node14&#45;&gt;Node8 -->
<g id="edge23_Node000014_Node000008" class="edge">
<title>Node14&#45;&gt;Node8</title>
<g id="a_edge23_Node000014_Node000008"><a xlink:title=" ">
<path fill="none" stroke="#63b8ff" d="M352.51,-165.44C363.14,-151.52 385.62,-124.76 411,-110.5 422.61,-103.98 495.23,-86.79 543.77,-75.75"/>
<polygon fill="#63b8ff" stroke="#63b8ff" points="544.48,-79.18 553.46,-73.56 542.94,-72.35 544.48,-79.18"/>
</a>
</g>
</g>
<!-- Node14&#45;&gt;Node12 -->
<g id="edge24_Node000014_Node000012" class="edge">
<title>Node14&#45;&gt;Node12</title>
<g id="a_edge24_Node000014_Node000012"><a xlink:title=" ">
<path fill="none" stroke="#63b8ff" d="M396.21,-170.07C484.42,-162.32 664.85,-145.51 746.01,-129.93"/>
<polygon fill="#63b8ff" stroke="#63b8ff" points="746.66,-133.37 755.76,-127.94 745.27,-126.51 746.66,-133.37"/>
</a>
</g>
</g>
<!-- Node15 -->
<g id="Node000015" class="node">
<title>Node15</title>
<g id="a_Node000015"><a xlink:title=" ">
<polygon fill="#e0e0e0" stroke="#999999" points="363.5,-129.75 326.5,-129.75 326.5,-110.5 363.5,-110.5 363.5,-129.75"/>
<text text-anchor="middle" x="345" y="-116.25" font-family="Helvetica,sans-Serif" font-size="10.00">array</text>
</a>
</g>
</g>
<!-- Node14&#45;&gt;Node15 -->
<g id="edge18_Node000014_Node000015" class="edge">
<title>Node14&#45;&gt;Node15</title>
<g id="a_edge18_Node000014_Node000015"><a xlink:title=" ">
<path fill="none" stroke="#63b8ff" d="M345.83,-165.58C345.71,-159.07 345.54,-149.92 345.38,-141.62"/>
<polygon fill="#63b8ff" stroke="#63b8ff" points="348.88,-141.55 345.2,-131.62 341.89,-141.69 348.88,-141.55"/>
</a>
</g>
</g>
<!-- Node16 -->
<g id="Node000016" class="node">
<title>Node16</title>
<g id="a_Node000016"><a xlink:title=" ">
<polygon fill="#e0e0e0" stroke="#999999" points="206.12,-129.75 157.88,-129.75 157.88,-110.5 206.12,-110.5 206.12,-129.75"/>
<text text-anchor="middle" x="182" y="-116.25" font-family="Helvetica,sans-Serif" font-size="10.00">cassert</text>
</a>
</g>
</g>
<!-- Node14&#45;&gt;Node16 -->
<g id="edge19_Node000014_Node000016" class="edge">
<title>Node14&#45;&gt;Node16</title>
<g id="a_edge19_Node000014_Node000016"><a xlink:title=" ">
<path fill="none" stroke="#63b8ff" d="M318.18,-165.34C290.38,-156.32 247.56,-142.41 217.37,-132.61"/>
<polygon fill="#63b8ff" stroke="#63b8ff" points="218.5,-129.3 207.91,-129.54 216.34,-135.96 218.5,-129.3"/>
</a>
</g>
</g>
<!-- Node17 -->
<g id="Node000017" class="node">
<title>Node17</title>
<g id="a_Node000017"><a xlink:title=" ">
<polygon fill="#e0e0e0" stroke="#999999" points="75.88,-129.75 26.12,-129.75 26.12,-110.5 75.88,-110.5 75.88,-129.75"/>
<text text-anchor="middle" x="51" y="-116.25" font-family="Helvetica,sans-Serif" font-size="10.00">optional</text>
</a>
</g>
</g>
<!-- Node14&#45;&gt;Node17 -->
<g id="edge20_Node000014_Node000017" class="edge">
<title>Node14&#45;&gt;Node17</title>
<g id="a_edge20_Node000014_Node000017"><a xlink:title=" ">
<path fill="none" stroke="#63b8ff" d="M295.74,-166.99C245.39,-159.32 165.44,-146.42 87.22,-130.08"/>
<polygon fill="#63b8ff" stroke="#63b8ff" points="88.19,-126.71 77.68,-128.07 86.74,-133.56 88.19,-126.71"/>
</a>
</g>
</g>
<!-- Node18 -->
<g id="Node000018" class="node">
<title>Node18</title>
<g id="a_Node000018"><a xlink:title=" ">
<polygon fill="#e0e0e0" stroke="#999999" points="139.62,-129.75 94.38,-129.75 94.38,-110.5 139.62,-110.5 139.62,-129.75"/>
<text text-anchor="middle" x="117" y="-116.25" font-family="Helvetica,sans-Serif" font-size="10.00">ranges</text>
</a>
</g>
</g>
<!-- Node14&#45;&gt;Node18 -->
<g id="edge21_Node000014_Node000018" class="edge">
<title>Node14&#45;&gt;Node18</title>
<g id="a_edge21_Node000014_Node000018"><a xlink:title=" ">
<path fill="none" stroke="#63b8ff" d="M303.61,-165.29C265.98,-157.11 209.24,-144.5 150.94,-130.15"/>
<polygon fill="#63b8ff" stroke="#63b8ff" points="152.06,-126.83 141.51,-127.82 150.38,-133.62 152.06,-126.83"/>
</a>
</g>
</g>
<!-- Node19 -->
<g id="Node000019" class="node">
<title>Node19</title>
<g id="a_Node000019"><a xlink:title=" ">
<polygon fill="#e0e0e0" stroke="#999999" points="308.12,-129.75 223.88,-129.75 223.88,-110.5 308.12,-110.5 308.12,-129.75"/>
<text text-anchor="middle" x="266" y="-116.25" font-family="Helvetica,sans-Serif" font-size="10.00">source_location</text>
</a>
</g>
</g>
<!-- Node14&#45;&gt;Node19 -->
<g id="edge22_Node000014_Node000019" class="edge">
<title>Node14&#45;&gt;Node19</title>
<g id="a_edge22_Node000014_Node000019"><a xlink:title=" ">
<path fill="none" stroke="#63b8ff" d="M332.43,-165.34C320.59,-157.46 303.16,-145.86 289.13,-136.52"/>
<polygon fill="#63b8ff" stroke="#63b8ff" points="291.16,-133.67 280.9,-131.04 287.28,-139.5 291.16,-133.67"/>
</a>
</g>
</g>
<!-- Node14&#45;&gt;Node20 -->
<g id="edge25_Node000014_Node000020" class="edge">
<title>Node14&#45;&gt;Node20</title>
<g id="a_edge25_Node000014_Node000020"><a xlink:title=" ">
<path fill="none" stroke="#63b8ff" d="M361.78,-165.34C375.94,-157.23 396.98,-145.18 413.53,-135.71"/>
<polygon fill="#63b8ff" stroke="#63b8ff" points="414.89,-138.96 421.83,-130.95 411.42,-132.89 414.89,-138.96"/>
</a>
</g>
</g>
<!-- Node21&#45;&gt;Node3 -->
<g id="edge27_Node000021_Node000003" class="edge">
<title>Node21&#45;&gt;Node3</title>
<g id="a_edge27_Node000021_Node000003"><a xlink:title=" ">
<path fill="none" stroke="#63b8ff" d="M544.29,-165.33C531.91,-157.43 515.11,-144.88 505,-129.75 496.23,-116.63 491.41,-99.36 488.82,-86.08"/>
<polygon fill="#63b8ff" stroke="#63b8ff" points="492.3,-85.63 487.22,-76.34 485.39,-86.77 492.3,-85.63"/>
</a>
</g>
</g>
<!-- Node21&#45;&gt;Node6 -->
<g id="edge28_Node000021_Node000006" class="edge">
<title>Node21&#45;&gt;Node6</title>
<g id="a_edge28_Node000021_Node000006"><a xlink:title=" ">
<path fill="none" stroke="#63b8ff" d="M560.17,-165.58C560.29,-159.07 560.46,-149.92 560.62,-141.62"/>
<polygon fill="#63b8ff" stroke="#63b8ff" points="564.11,-141.69 560.8,-131.62 557.12,-141.55 564.11,-141.69"/>
</a>
</g>
</g>
<!-- Node21&#45;&gt;Node10 -->
<g id="edge29_Node000021_Node000010" class="edge">
<title>Node21&#45;&gt;Node10</title>
<g id="a_edge29_Node000021_Node000010"><a xlink:title=" ">
<path fill="none" stroke="#63b8ff" d="M630.65,-166.47C693.53,-159 788.24,-146.71 879.65,-130.04"/>
<polygon fill="#63b8ff" stroke="#63b8ff" points="880.09,-133.52 889.29,-128.26 878.82,-126.63 880.09,-133.52"/>
</a>
</g>
</g>
<!-- Node21&#45;&gt;Node13 -->
<g id="edge31_Node000021_Node000013" class="edge">
<title>Node21&#45;&gt;Node13</title>
<g id="a_edge31_Node000021_Node000013"><a xlink:title=" ">
<path fill="none" stroke="#63b8ff" d="M612.23,-165.26C659.09,-156.98 730.03,-144.17 801.07,-130.08"/>
<polygon fill="#63b8ff" stroke="#63b8ff" points="801.4,-133.59 810.53,-128.2 800.04,-126.72 801.4,-133.59"/>
</a>
</g>
</g>
<!-- Node21&#45;&gt;Node20 -->
<g id="edge32_Node000021_Node000020" class="edge">
<title>Node21&#45;&gt;Node20</title>
<g id="a_edge32_Node000021_Node000020"><a xlink:title=" ">
<path fill="none" stroke="#63b8ff" d="M539.47,-165.34C520.09,-156.81 490.81,-143.92 468.84,-134.26"/>
<polygon fill="#63b8ff" stroke="#63b8ff" points="470.37,-131.11 459.81,-130.28 467.55,-137.51 470.37,-131.11"/>
</a>
</g>
</g>
<!-- Node22 -->
<g id="Node000022" class="node">
<title>Node22</title>
<g id="a_Node000022"><a xlink:title=" ">
<polygon fill="#e0e0e0" stroke="#999999" points="677.62,-129.75 626.38,-129.75 626.38,-110.5 677.62,-110.5 677.62,-129.75"/>
<text text-anchor="middle" x="652" y="-116.25" font-family="Helvetica,sans-Serif" font-size="10.00">sstream</text>
</a>
</g>
</g>
<!-- Node21&#45;&gt;Node22 -->
<g id="edge30_Node000021_Node000022" class="edge">
<title>Node21&#45;&gt;Node22</title>
<g id="a_edge30_Node000021_Node000022"><a xlink:title=" ">
<path fill="none" stroke="#63b8ff" d="M575.61,-165.34C589.62,-157.23 610.43,-145.18 626.8,-135.71"/>
<polygon fill="#63b8ff" stroke="#63b8ff" points="628.11,-139 635.01,-130.96 624.6,-132.94 628.11,-139"/>
</a>
</g>
</g>
<!-- Node23 -->
<g id="Node000023" class="node">
<title>Node23</title>
<g id="a_Node000023"><a xlink:title=" ">
<polygon fill="#e0e0e0" stroke="#999999" points="739.88,-129.75 696.12,-129.75 696.12,-110.5 739.88,-110.5 739.88,-129.75"/>
<text text-anchor="middle" x="718" y="-116.25" font-family="Helvetica,sans-Serif" font-size="10.00">format</text>
</a>
</g>
</g>
<!-- Node21&#45;&gt;Node23 -->
<g id="edge33_Node000021_Node000023" class="edge">
<title>Node21&#45;&gt;Node23</title>
<g id="a_edge33_Node000021_Node000023"><a xlink:title=" ">
<path fill="none" stroke="#63b8ff" d="M586.8,-165.34C613.85,-156.23 655.68,-142.13 684.81,-132.31"/>
<polygon fill="#63b8ff" stroke="#63b8ff" points="685.88,-135.64 694.24,-129.13 683.64,-129.01 685.88,-135.64"/>
</a>
</g>
</g>
</g>
</svg>

<g id="navigator" transform="translate(0 0)" fill="#404254">
  <rect fill="#f2f5e9" fill-opacity="0.5" stroke="#606060" stroke-width=".5" x="0" y="0" width="60" height="60"/>
  <use id="zoomplus" xlink:href="#zoomPlus" x="17" y="9" onmousedown="handleZoom(evt,'in')"/>
  <use id="zoomminus" xlink:href="#zoomMin" x="42" y="9" onmousedown="handleZoom(evt,'out')"/>
  <use id="reset" xlink:href="#resetDef" x="30" y="36" onmousedown="handleReset()"/>
   <use id="arrowup" xlink:href="#arrowUp" x="0" y="0" onmousedown="handlePan(0,-1)"/>
  <use id="arrowright" xlink:href="#arrowRight" x="0" y="0" onmousedown="handlePan(1,0)"/>
  <use id="arrowdown" xlink:href="#arrowDown" x="0" y="0" onmousedown="handlePan(0,1)"/>
  <use id="arrowleft" xlink:href="#arrowLeft" x="0" y="0" onmousedown="handlePan(-1,0)"/>
</g>
<svg viewBox="0 0 15 15" width="100%" height="30px" preserveAspectRatio="xMaxYMin meet">
 <g id="arrow_out" transform="scale(0.3 0.3)">
  <a xlink:href="_common_type_printer_8hpp__incl_org.svg" target="_base">
   <rect id="button" ry="5" rx="5" y="6" x="6" height="38" width="38"
        fill="#f2f5e9" fill-opacity="0.5" stroke="#606060" stroke-width="1.0"/>
   <path id="arrow"
     d="M 11.500037,31.436501 C 11.940474,20.09759 22.043105,11.32322 32.158766,21.979434 L 37.068811,17.246167 C 37.068811,17.246167 37.088388,32 37.088388,32 L 22.160133,31.978069 C 22.160133,31.978069 26.997745,27.140456 26.997745,27.140456 C 18.528582,18.264221 13.291696,25.230495 11.500037,31.436501 z"
     style="fill:#404040;"/>
  </a>
 </g>
</svg>

<style type='text/css'>
<![CDATA[
[data-mouse-over-selected='false'] { opacity: 0.7; }
[data-mouse-over-selected='true']  { opacity: 1.0; }
]]>
</style>
<script type="application/ecmascript"><![CDATA[
document.addEventListener('DOMContentLoaded', (event) => {
  highlightEdges();
  highlightAdjacentNodes();
});
]]></script>
</svg>
