<?xml version="1.0" encoding="UTF-8" standalone="no"?>
<!DOCTYPE svg PUBLIC "-//W3C//DTD SVG 1.1//EN"
 "http://www.w3.org/Graphics/SVG/1.1/DTD/svg11.dtd">
<!-- Generated by graphviz version 12.2.1 (20241206.2353)
 -->
<!-- Title: mimicpp::printing::type::parsing::state::AbstractDeclarator Pages: 1 -->
<svg width="829pt" height="150pt"
 viewBox="0.00 0.00 829.05 149.50" xmlns="http://www.w3.org/2000/svg" xmlns:xlink="http://www.w3.org/1999/xlink">
<g id="graph0" class="graph" transform="scale(1 1) rotate(0) translate(4 145.5)">
<title>mimicpp::printing::type::parsing::state::AbstractDeclarator</title>
<!-- Node1 -->
<g id="Node000001" class="node">
<title>Node1</title>
<g id="a_Node000001"><a xlink:title=" ">
<polygon fill="#999999" stroke="#666666" points="821.05,-54.5 719.55,-54.5 719.55,-12.75 821.05,-12.75 821.05,-54.5"/>
<text text-anchor="start" x="727.55" y="-41" font-family="Helvetica,sans-Serif" font-size="10.00">mimicpp::printing::</text>
<text text-anchor="start" x="727.55" y="-29.75" font-family="Helvetica,sans-Serif" font-size="10.00">type::parsing::state</text>
<text text-anchor="middle" x="770.3" y="-18.5" font-family="Helvetica,sans-Serif" font-size="10.00">::AbstractDeclarator</text>
</a>
</g>
</g>
<!-- Node2 -->
<g id="Node000002" class="node">
<title>Node2</title>
<g id="a_Node000002"><a xlink:href="../../db/d30/structmimicpp_1_1printing_1_1type_1_1parsing_1_1state_1_1_abstract_declarator_1_1_layer.html" target="_top" xlink:title=" ">
<polygon fill="white" stroke="#666666" points="661.05,-60.12 559.55,-60.12 559.55,-7.12 661.05,-7.12 661.05,-60.12"/>
<text text-anchor="start" x="567.55" y="-46.62" font-family="Helvetica,sans-Serif" font-size="10.00">mimicpp::printing::</text>
<text text-anchor="start" x="567.55" y="-35.38" font-family="Helvetica,sans-Serif" font-size="10.00">type::parsing::state</text>
<text text-anchor="start" x="567.55" y="-24.12" font-family="Helvetica,sans-Serif" font-size="10.00">::AbstractDeclarator</text>
<text text-anchor="middle" x="610.3" y="-12.88" font-family="Helvetica,sans-Serif" font-size="10.00">::Layer</text>
</a>
</g>
</g>
<!-- Node2&#45;&gt;Node1 -->
<g id="edge1_Node000001_Node000002" class="edge">
<title>Node2&#45;&gt;Node1</title>
<g id="a_edge1_Node000001_Node000002"><a xlink:title=" ">
<path fill="none" stroke="#9a32cd" stroke-dasharray="5,2" d="M672.79,-33.62C688.12,-33.62 704.38,-33.62 719.09,-33.62"/>
<polygon fill="#9a32cd" stroke="#9a32cd" points="672.81,-30.13 662.81,-33.63 672.81,-37.13 672.81,-30.13"/>
</a>
</g>
<text text-anchor="start" x="682.05" y="-38.38" font-family="Helvetica,sans-Serif" font-size="10.00" fill="grey">root</text>
</g>
<!-- Node3 -->
<g id="Node000003" class="node">
<title>Node3</title>
<g id="a_Node000003"><a xlink:title=" ">
<polygon fill="white" stroke="#666666" points="467.3,-19.25 339.55,-19.25 339.55,0 467.3,0 467.3,-19.25"/>
<text text-anchor="middle" x="403.42" y="-5.75" font-family="Helvetica,sans-Serif" font-size="10.00">std::vector&lt; PtrOperator &gt;</text>
</a>
</g>
</g>
<!-- Node3&#45;&gt;Node2 -->
<g id="edge2_Node000002_Node000003" class="edge">
<title>Node3&#45;&gt;Node2</title>
<g id="a_edge2_Node000002_Node000003"><a xlink:title=" ">
<path fill="none" stroke="#9a32cd" stroke-dasharray="5,2" d="M478.95,-10.58C499.33,-11.58 521.36,-13.34 541.55,-16.38 547.31,-17.24 553.29,-18.39 559.21,-19.68"/>
<polygon fill="#9a32cd" stroke="#9a32cd" points="479.14,-7.09 469,-10.15 478.84,-14.08 479.14,-7.09"/>
</a>
</g>
<text text-anchor="start" x="488.3" y="-21.12" font-family="Helvetica,sans-Serif" font-size="10.00" fill="grey">decorations</text>
</g>
<!-- Node4 -->
<g id="Node000004" class="node">
<title>Node4</title>
<g id="a_Node000004"><a xlink:title=" ">
<polygon fill="white" stroke="#666666" points="200.42,-39.25 116.92,-39.25 116.92,-20 200.42,-20 200.42,-39.25"/>
<text text-anchor="middle" x="158.67" y="-25.75" font-family="Helvetica,sans-Serif" font-size="10.00">std::vector&lt; T &gt;</text>
</a>
</g>
</g>
<!-- Node4&#45;&gt;Node3 -->
<g id="edge3_Node000003_Node000004" class="edge">
<title>Node4&#45;&gt;Node3</title>
<g id="a_edge3_Node000003_Node000004"><a xlink:title=" ">
<path fill="none" stroke="orange" stroke-dasharray="5,2" d="M198.39,-16.23C206.99,-13.81 216.12,-11.65 224.8,-10.38 262.48,-4.84 305.14,-4.47 339.21,-5.57"/>
<polygon fill="orange" stroke="orange" points="197.51,-12.84 188.94,-19.08 199.53,-19.55 197.51,-12.84"/>
</a>
</g>
<text text-anchor="start" x="239.8" y="-15.12" font-family="Helvetica,sans-Serif" font-size="10.00" fill="grey">&lt; PtrOperator &gt;</text>
</g>
<!-- Node6 -->
<g id="Node000006" class="node">
<title>Node6</title>
<g id="a_Node000006"><a xlink:title=" ">
<polygon fill="white" stroke="#666666" points="464.3,-79.5 342.55,-79.5 342.55,-37.75 464.3,-37.75 464.3,-79.5"/>
<text text-anchor="start" x="350.55" y="-66" font-family="Helvetica,sans-Serif" font-size="10.00">std::vector&lt; mimicpp</text>
<text text-anchor="start" x="350.55" y="-54.75" font-family="Helvetica,sans-Serif" font-size="10.00">::printing::type::parsing</text>
<text text-anchor="middle" x="403.42" y="-43.5" font-family="Helvetica,sans-Serif" font-size="10.00">::state::ArrayDeclarator &gt;</text>
</a>
</g>
</g>
<!-- Node4&#45;&gt;Node6 -->
<g id="edge7_Node000006_Node000004" class="edge">
<title>Node4&#45;&gt;Node6</title>
<g id="a_edge7_Node000006_Node000004"><a xlink:title=" ">
<path fill="none" stroke="orange" stroke-dasharray="5,2" d="M212.27,-35.91C250.54,-40.48 302.44,-46.68 342.35,-51.45"/>
<polygon fill="orange" stroke="orange" points="212.7,-32.44 202.36,-34.72 211.87,-39.39 212.7,-32.44"/>
</a>
</g>
<text text-anchor="start" x="227.8" y="-83.67" font-family="Helvetica,sans-Serif" font-size="10.00" fill="grey">&lt; mimicpp::printing</text>
<text text-anchor="start" x="227.8" y="-68.42" font-family="Helvetica,sans-Serif" font-size="10.00" fill="grey">  ::type::parsing::state</text>
<text text-anchor="start" x="227.8" y="-53.17" font-family="Helvetica,sans-Serif" font-size="10.00" fill="grey">  ::ArrayDeclarator &gt;</text>
</g>
<!-- Node5 -->
<g id="Node000005" class="node">
<title>Node5</title>
<g id="a_Node000005"><a xlink:title=" ">
<polygon fill="white" stroke="#666666" points="28.8,-39.25 0,-39.25 0,-20 28.8,-20 28.8,-39.25"/>
<text text-anchor="middle" x="14.4" y="-25.75" font-family="Helvetica,sans-Serif" font-size="10.00">T</text>
</a>
</g>
</g>
<!-- Node5&#45;&gt;Node4 -->
<g id="edge4_Node000004_Node000005" class="edge">
<title>Node5&#45;&gt;Node4</title>
<g id="a_edge4_Node000004_Node000005"><a xlink:title=" ">
<path fill="none" stroke="#9a32cd" stroke-dasharray="5,2" d="M40.5,-29.62C61.53,-29.62 91.97,-29.62 116.55,-29.62"/>
<polygon fill="#9a32cd" stroke="#9a32cd" points="40.56,-26.13 30.56,-29.63 40.56,-33.13 40.56,-26.13"/>
</a>
</g>
<text text-anchor="start" x="49.8" y="-34.38" font-family="Helvetica,sans-Serif" font-size="10.00" fill="grey">elements</text>
</g>
<!-- Node6&#45;&gt;Node2 -->
<g id="edge5_Node000002_Node000006" class="edge">
<title>Node6&#45;&gt;Node2</title>
<g id="a_edge5_Node000002_Node000006"><a xlink:title=" ">
<path fill="none" stroke="#9a32cd" stroke-dasharray="5,2" d="M475.95,-49.9C503.49,-46.54 534.3,-42.78 559.37,-39.72"/>
<polygon fill="#9a32cd" stroke="#9a32cd" points="475.79,-46.39 466.29,-51.08 476.64,-53.34 475.79,-46.39"/>
</a>
</g>
<text text-anchor="start" x="500.3" y="-53.11" font-family="Helvetica,sans-Serif" font-size="10.00" fill="grey">arrays</text>
</g>
<!-- Node7 -->
<g id="Node000007" class="node">
<title>Node7</title>
<g id="a_Node000007"><a xlink:href="../../d2/d66/structmimicpp_1_1printing_1_1type_1_1parsing_1_1state_1_1_array_declarator.html" target="_top" xlink:title=" ">
<polygon fill="white" stroke="#666666" points="206.8,-141.5 110.55,-141.5 110.55,-99.75 206.8,-99.75 206.8,-141.5"/>
<text text-anchor="start" x="118.55" y="-128" font-family="Helvetica,sans-Serif" font-size="10.00">mimicpp::printing::</text>
<text text-anchor="start" x="118.55" y="-116.75" font-family="Helvetica,sans-Serif" font-size="10.00">type::parsing::state</text>
<text text-anchor="middle" x="158.67" y="-105.5" font-family="Helvetica,sans-Serif" font-size="10.00">::ArrayDeclarator</text>
</a>
</g>
</g>
<!-- Node7&#45;&gt;Node6 -->
<g id="edge6_Node000006_Node000007" class="edge">
<title>Node7&#45;&gt;Node6</title>
<g id="a_edge6_Node000006_Node000007"><a xlink:title=" ">
<path fill="none" stroke="#9a32cd" stroke-dasharray="5,2" d="M218.41,-117.25C249.58,-114.31 288.22,-108.83 321.55,-98.62 336.53,-94.04 352.14,-86.93 365.62,-79.97"/>
<polygon fill="#9a32cd" stroke="#9a32cd" points="218.46,-113.73 208.8,-118.09 219.07,-120.7 218.46,-113.73"/>
</a>
</g>
<text text-anchor="start" x="253.3" y="-121.21" font-family="Helvetica,sans-Serif" font-size="10.00" fill="grey">elements</text>
</g>
</g>
</svg>
