<?xml version="1.0" encoding="UTF-8" standalone="no"?>
<!DOCTYPE svg PUBLIC "-//W3C//DTD SVG 1.1//EN"
 "http://www.w3.org/Graphics/SVG/1.1/DTD/svg11.dtd">
<!-- Generated by graphviz version 12.2.1 (20241206.2353)
 -->
<!-- Title: mimicpp::util::Stacktrace::Stacktrace Pages: 1 -->
<svg width="288pt" height="57pt"
 viewBox="0.00 0.00 287.50 56.50" xmlns="http://www.w3.org/2000/svg" xmlns:xlink="http://www.w3.org/1999/xlink">
<g id="graph0" class="graph" transform="scale(1 1) rotate(0) translate(4 52.5)">
<title>mimicpp::util::Stacktrace::Stacktrace</title>
<!-- Node1 -->
<g id="Node000001" class="node">
<title>Node1</title>
<g id="a_Node000001"><a xlink:title="Defaulted copy&#45;constructor.">
<polygon fill="#999999" stroke="#666666" points="121.75,-30.5 0,-30.5 0,0 121.75,0 121.75,-30.5"/>
<text text-anchor="start" x="8" y="-17" font-family="Helvetica,sans-Serif" font-size="10.00">mimicpp::util::Stacktrace</text>
<text text-anchor="middle" x="60.88" y="-5.75" font-family="Helvetica,sans-Serif" font-size="10.00">::Stacktrace</text>
</a>
</g>
</g>
<!-- Node2 -->
<g id="Node000002" class="node">
<title>Node2</title>
<g id="a_Node000002"><a xlink:href="../../d2/d27/classmimicpp_1_1util_1_1_stacktrace.html#a456b4a7ae7558148b6866bf9e72b4b32" target="_top" xlink:title="Default constructor.">
<polygon fill="white" stroke="#666666" points="279.5,-30.5 157.75,-30.5 157.75,0 279.5,0 279.5,-30.5"/>
<text text-anchor="start" x="165.75" y="-17" font-family="Helvetica,sans-Serif" font-size="10.00">mimicpp::util::Stacktrace</text>
<text text-anchor="middle" x="218.62" y="-5.75" font-family="Helvetica,sans-Serif" font-size="10.00">::Stacktrace</text>
</a>
</g>
</g>
<!-- Node1&#45;&gt;Node2 -->
<g id="edge1_Node000001_Node000002" class="edge">
<title>Node1&#45;&gt;Node2</title>
<g id="a_edge1_Node000001_Node000002"><a xlink:title=" ">
<path fill="none" stroke="#63b8ff" d="M122.09,-15.25C129.95,-15.25 138.05,-15.25 146.07,-15.25"/>
<polygon fill="#63b8ff" stroke="#63b8ff" points="145.8,-18.75 155.8,-15.25 145.8,-11.75 145.8,-18.75"/>
</a>
</g>
</g>
<!-- Node2&#45;&gt;Node2 -->
<g id="edge2_Node000002_Node000002" class="edge">
<title>Node2&#45;&gt;Node2</title>
<g id="a_edge2_Node000002_Node000002"><a xlink:title=" ">
<path fill="none" stroke="#63b8ff" d="M190.67,-30.99C184.97,-40.06 194.28,-48.5 218.62,-48.5 231.94,-48.5 240.75,-45.97 245.08,-42.2"/>
<polygon fill="#63b8ff" stroke="#63b8ff" points="248.52,-42.86 246.38,-32.49 241.58,-41.93 248.52,-42.86"/>
</a>
</g>
</g>
</g>
</svg>
