<?xml version="1.0" encoding="UTF-8" standalone="no"?>
<!DOCTYPE svg PUBLIC "-//W3C//DTD SVG 1.1//EN"
 "http://www.w3.org/Graphics/SVG/1.1/DTD/svg11.dtd">
<!-- Generated by graphviz version 12.2.1 (20241206.2353)
 -->
<!-- Title: mimic++/String.hpp Pages: 1 -->
<svg width="821pt" height="193pt"
 viewBox="0.00 0.00 820.54 193.00" xmlns="http://www.w3.org/2000/svg" xmlns:xlink="http://www.w3.org/1999/xlink">
<g id="graph0" class="graph" transform="scale(1 1) rotate(0) translate(4 189)">
<title>mimic++/String.hpp</title>
<!-- Node1 -->
<g id="Node000001" class="node">
<title>Node1</title>
<g id="a_Node000001"><a xlink:title=" ">
<polygon fill="#999999" stroke="#666666" points="588.42,-185 487.67,-185 487.67,-165.75 588.42,-165.75 588.42,-185"/>
<text text-anchor="middle" x="538.04" y="-171.5" font-family="Helvetica,sans-Serif" font-size="10.00">mimic++/String.hpp</text>
</a>
</g>
</g>
<!-- Node2 -->
<g id="Node000002" class="node">
<title>Node2</title>
<g id="a_Node000002"><a xlink:href="../../df/dde/_fwd_8hpp.html" target="_top" xlink:title=" ">
<polygon fill="white" stroke="#666666" points="108.04,-74.5 14.04,-74.5 14.04,-55.25 108.04,-55.25 108.04,-74.5"/>
<text text-anchor="middle" x="61.04" y="-61" font-family="Helvetica,sans-Serif" font-size="10.00">mimic++/Fwd.hpp</text>
</a>
</g>
</g>
<!-- Node1&#45;&gt;Node2 -->
<g id="edge1_Node000001_Node000002" class="edge">
<title>Node1&#45;&gt;Node2</title>
<g id="a_edge1_Node000001_Node000002"><a xlink:title=" ">
<path fill="none" stroke="#63b8ff" d="M487.28,-168.94C430.08,-162.23 334.57,-149.26 254.04,-129.75 197.07,-115.94 132.78,-93.16 94.65,-78.87"/>
<polygon fill="#63b8ff" stroke="#63b8ff" points="96.16,-75.7 85.57,-75.43 93.69,-82.24 96.16,-75.7"/>
</a>
</g>
</g>
<!-- Node3 -->
<g id="Node000003" class="node">
<title>Node3</title>
<g id="a_Node000003"><a xlink:title=" ">
<polygon fill="#e0e0e0" stroke="#999999" points="44.04,-19.25 4.04,-19.25 4.04,0 44.04,0 44.04,-19.25"/>
<text text-anchor="middle" x="24.04" y="-5.75" font-family="Helvetica,sans-Serif" font-size="10.00">string</text>
</a>
</g>
</g>
<!-- Node1&#45;&gt;Node3 -->
<g id="edge15_Node000001_Node000003" class="edge">
<title>Node1&#45;&gt;Node3</title>
<g id="a_edge15_Node000001_Node000003"><a xlink:title=" ">
<path fill="none" stroke="#63b8ff" d="M487.17,-173.22C365.2,-169.21 61.98,-151.54 5.04,-74.5 -4.82,-61.15 2.34,-42.71 10.53,-29.07"/>
<polygon fill="#63b8ff" stroke="#63b8ff" points="13.28,-31.27 15.9,-21 7.45,-27.39 13.28,-31.27"/>
</a>
</g>
</g>
<!-- Node4 -->
<g id="Node000004" class="node">
<title>Node4</title>
<g id="a_Node000004"><a xlink:title=" ">
<polygon fill="#e0e0e0" stroke="#999999" points="168.79,-19.25 103.29,-19.25 103.29,0 168.79,0 168.79,-19.25"/>
<text text-anchor="middle" x="136.04" y="-5.75" font-family="Helvetica,sans-Serif" font-size="10.00">string_view</text>
</a>
</g>
</g>
<!-- Node1&#45;&gt;Node4 -->
<g id="edge16_Node000001_Node000004" class="edge">
<title>Node1&#45;&gt;Node4</title>
<g id="a_edge16_Node000001_Node000004"><a xlink:title=" ">
<path fill="none" stroke="#63b8ff" d="M535.82,-165.6C529.3,-140.55 509.49,-69.56 491.04,-55.25 443.58,-18.41 265.15,-11.77 180.78,-10.72"/>
<polygon fill="#63b8ff" stroke="#63b8ff" points="180.83,-7.22 170.79,-10.62 180.76,-14.22 180.83,-7.22"/>
</a>
</g>
</g>
<!-- Node5 -->
<g id="Node000005" class="node">
<title>Node5</title>
<g id="a_Node000005"><a xlink:href="../../d4/d2c/_utility_8hpp.html" target="_top" xlink:title=" ">
<polygon fill="white" stroke="#666666" points="363.04,-129.75 263.04,-129.75 263.04,-110.5 363.04,-110.5 363.04,-129.75"/>
<text text-anchor="middle" x="313.04" y="-116.25" font-family="Helvetica,sans-Serif" font-size="10.00">mimic++/Utility.hpp</text>
</a>
</g>
</g>
<!-- Node1&#45;&gt;Node5 -->
<g id="edge4_Node000001_Node000005" class="edge">
<title>Node1&#45;&gt;Node5</title>
<g id="a_edge4_Node000001_Node000005"><a xlink:title=" ">
<path fill="none" stroke="#63b8ff" d="M499.62,-165.28C461.76,-156.32 403.75,-142.59 362.48,-132.82"/>
<polygon fill="#63b8ff" stroke="#63b8ff" points="363.32,-129.43 352.78,-130.53 361.71,-136.24 363.32,-129.43"/>
</a>
</g>
</g>
<!-- Node11 -->
<g id="Node000011" class="node">
<title>Node11</title>
<g id="a_Node000011"><a xlink:title=" ">
<polygon fill="#e0e0e0" stroke="#999999" points="593.92,-129.75 538.17,-129.75 538.17,-110.5 593.92,-110.5 593.92,-129.75"/>
<text text-anchor="middle" x="566.04" y="-116.25" font-family="Helvetica,sans-Serif" font-size="10.00">concepts</text>
</a>
</g>
</g>
<!-- Node1&#45;&gt;Node11 -->
<g id="edge12_Node000001_Node000011" class="edge">
<title>Node1&#45;&gt;Node11</title>
<g id="a_edge12_Node000001_Node000011"><a xlink:title=" ">
<path fill="none" stroke="#63b8ff" d="M542.67,-165.58C546.29,-158.69 551.47,-148.84 556.04,-140.16"/>
<polygon fill="#63b8ff" stroke="#63b8ff" points="559.06,-141.93 560.62,-131.45 552.86,-138.67 559.06,-141.93"/>
</a>
</g>
</g>
<!-- Node12 -->
<g id="Node000012" class="node">
<title>Node12</title>
<g id="a_Node000012"><a xlink:title=" ">
<polygon fill="#e0e0e0" stroke="#999999" points="670.04,-129.75 612.04,-129.75 612.04,-110.5 670.04,-110.5 670.04,-129.75"/>
<text text-anchor="middle" x="641.04" y="-116.25" font-family="Helvetica,sans-Serif" font-size="10.00">functional</text>
</a>
</g>
</g>
<!-- Node1&#45;&gt;Node12 -->
<g id="edge13_Node000001_Node000012" class="edge">
<title>Node1&#45;&gt;Node12</title>
<g id="a_edge13_Node000001_Node000012"><a xlink:title=" ">
<path fill="none" stroke="#63b8ff" d="M555.52,-165.34C571.35,-157.16 594.95,-144.96 613.35,-135.44"/>
<polygon fill="#63b8ff" stroke="#63b8ff" points="614.87,-138.6 622.14,-130.9 611.65,-132.38 614.87,-138.6"/>
</a>
</g>
</g>
<!-- Node13 -->
<g id="Node000013" class="node">
<title>Node13</title>
<g id="a_Node000013"><a xlink:title=" ">
<polygon fill="#e0e0e0" stroke="#999999" points="733.67,-129.75 688.42,-129.75 688.42,-110.5 733.67,-110.5 733.67,-129.75"/>
<text text-anchor="middle" x="711.04" y="-116.25" font-family="Helvetica,sans-Serif" font-size="10.00">ranges</text>
</a>
</g>
</g>
<!-- Node1&#45;&gt;Node13 -->
<g id="edge14_Node000001_Node000013" class="edge">
<title>Node1&#45;&gt;Node13</title>
<g id="a_edge14_Node000001_Node000013"><a xlink:title=" ">
<path fill="none" stroke="#63b8ff" d="M567.39,-165.34C597.83,-155.97 645.37,-141.34 677.33,-131.5"/>
<polygon fill="#63b8ff" stroke="#63b8ff" points="677.96,-134.97 686.49,-128.68 675.9,-128.28 677.96,-134.97"/>
</a>
</g>
</g>
<!-- Node14 -->
<g id="Node000014" class="node">
<title>Node14</title>
<g id="a_Node000014"><a xlink:title=" ">
<polygon fill="#e0e0e0" stroke="#999999" points="812.54,-129.75 751.54,-129.75 751.54,-110.5 812.54,-110.5 812.54,-129.75"/>
<text text-anchor="middle" x="782.04" y="-116.25" font-family="Helvetica,sans-Serif" font-size="10.00">type_traits</text>
</a>
</g>
</g>
<!-- Node1&#45;&gt;Node14 -->
<g id="edge17_Node000001_Node000014" class="edge">
<title>Node1&#45;&gt;Node14</title>
<g id="a_edge17_Node000001_Node000014"><a xlink:title=" ">
<path fill="none" stroke="#63b8ff" d="M580.06,-165.27C619.16,-156.79 679.35,-143.71 740.39,-130.33"/>
<polygon fill="#63b8ff" stroke="#63b8ff" points="740.89,-133.8 749.91,-128.24 739.39,-126.96 740.89,-133.8"/>
</a>
</g>
</g>
<!-- Node2&#45;&gt;Node3 -->
<g id="edge2_Node000002_Node000003" class="edge">
<title>Node2&#45;&gt;Node3</title>
<g id="a_edge2_Node000002_Node000003"><a xlink:title=" ">
<path fill="none" stroke="#63b8ff" d="M54.93,-55.08C49.98,-47.96 42.84,-37.68 36.67,-28.8"/>
<polygon fill="#63b8ff" stroke="#63b8ff" points="39.73,-27.07 31.15,-20.85 33.98,-31.06 39.73,-27.07"/>
</a>
</g>
</g>
<!-- Node2&#45;&gt;Node4 -->
<g id="edge3_Node000002_Node000004" class="edge">
<title>Node2&#45;&gt;Node4</title>
<g id="a_edge3_Node000002_Node000004"><a xlink:title=" ">
<path fill="none" stroke="#63b8ff" d="M73.77,-54.84C84.76,-47.04 100.89,-35.59 113.98,-26.29"/>
<polygon fill="#63b8ff" stroke="#63b8ff" points="115.9,-29.22 122.03,-20.58 111.85,-23.51 115.9,-29.22"/>
</a>
</g>
</g>
<!-- Node5&#45;&gt;Node2 -->
<g id="edge5_Node000005_Node000002" class="edge">
<title>Node5&#45;&gt;Node2</title>
<g id="a_edge5_Node000005_Node000002"><a xlink:title=" ">
<path fill="none" stroke="#63b8ff" d="M270.01,-110.03C227.15,-100.98 161.25,-87.05 114.93,-77.26"/>
<polygon fill="#63b8ff" stroke="#63b8ff" points="115.89,-73.89 105.38,-75.24 114.44,-80.74 115.89,-73.89"/>
</a>
</g>
</g>
<!-- Node5&#45;&gt;Node4 -->
<g id="edge9_Node000005_Node000004" class="edge">
<title>Node5&#45;&gt;Node4</title>
<g id="a_edge9_Node000005_Node000004"><a xlink:title=" ">
<path fill="none" stroke="#63b8ff" d="M262.62,-117.2C228.05,-113.24 183.46,-102.52 155.04,-74.5 143.44,-63.06 138.85,-44.86 137.08,-30.82"/>
<polygon fill="#63b8ff" stroke="#63b8ff" points="140.57,-30.57 136.24,-20.9 133.59,-31.16 140.57,-30.57"/>
</a>
</g>
</g>
<!-- Node6 -->
<g id="Node000006" class="node">
<title>Node6</title>
<g id="a_Node000006"><a xlink:title=" ">
<polygon fill="#e0e0e0" stroke="#999999" points="415.54,-74.5 378.54,-74.5 378.54,-55.25 415.54,-55.25 415.54,-74.5"/>
<text text-anchor="middle" x="397.04" y="-61" font-family="Helvetica,sans-Serif" font-size="10.00">array</text>
</a>
</g>
</g>
<!-- Node5&#45;&gt;Node6 -->
<g id="edge6_Node000005_Node000006" class="edge">
<title>Node5&#45;&gt;Node6</title>
<g id="a_edge6_Node000005_Node000006"><a xlink:title=" ">
<path fill="none" stroke="#63b8ff" d="M327.29,-110.09C339.84,-102.14 358.38,-90.39 373.19,-81"/>
<polygon fill="#63b8ff" stroke="#63b8ff" points="374.88,-84.07 381.45,-75.76 371.13,-78.16 374.88,-84.07"/>
</a>
</g>
</g>
<!-- Node7 -->
<g id="Node000007" class="node">
<title>Node7</title>
<g id="a_Node000007"><a xlink:title=" ">
<polygon fill="#e0e0e0" stroke="#999999" points="482.17,-74.5 433.92,-74.5 433.92,-55.25 482.17,-55.25 482.17,-74.5"/>
<text text-anchor="middle" x="458.04" y="-61" font-family="Helvetica,sans-Serif" font-size="10.00">cassert</text>
</a>
</g>
</g>
<!-- Node5&#45;&gt;Node7 -->
<g id="edge7_Node000005_Node000007" class="edge">
<title>Node5&#45;&gt;Node7</title>
<g id="a_edge7_Node000005_Node000007"><a xlink:title=" ">
<path fill="none" stroke="#63b8ff" d="M337.64,-110.09C361.11,-101.47 396.71,-88.4 423.12,-78.7"/>
<polygon fill="#63b8ff" stroke="#63b8ff" points="424.21,-82.03 432.39,-75.3 421.8,-75.46 424.21,-82.03"/>
</a>
</g>
</g>
<!-- Node8 -->
<g id="Node000008" class="node">
<title>Node8</title>
<g id="a_Node000008"><a xlink:title=" ">
<polygon fill="#e0e0e0" stroke="#999999" points="248.17,-74.5 163.92,-74.5 163.92,-55.25 248.17,-55.25 248.17,-74.5"/>
<text text-anchor="middle" x="206.04" y="-61" font-family="Helvetica,sans-Serif" font-size="10.00">source_location</text>
</a>
</g>
</g>
<!-- Node5&#45;&gt;Node8 -->
<g id="edge8_Node000005_Node000008" class="edge">
<title>Node5&#45;&gt;Node8</title>
<g id="a_edge8_Node000005_Node000008"><a xlink:title=" ">
<path fill="none" stroke="#63b8ff" d="M294.89,-110.09C278.37,-101.87 253.7,-89.59 234.55,-80.06"/>
<polygon fill="#63b8ff" stroke="#63b8ff" points="236.15,-76.95 225.64,-75.63 233.03,-83.22 236.15,-76.95"/>
</a>
</g>
</g>
<!-- Node9 -->
<g id="Node000009" class="node">
<title>Node9</title>
<g id="a_Node000009"><a xlink:title=" ">
<polygon fill="#e0e0e0" stroke="#999999" points="303.54,-74.5 266.54,-74.5 266.54,-55.25 303.54,-55.25 303.54,-74.5"/>
<text text-anchor="middle" x="285.04" y="-61" font-family="Helvetica,sans-Serif" font-size="10.00">tuple</text>
</a>
</g>
</g>
<!-- Node5&#45;&gt;Node9 -->
<g id="edge10_Node000005_Node000009" class="edge">
<title>Node5&#45;&gt;Node9</title>
<g id="a_edge10_Node000005_Node000009"><a xlink:title=" ">
<path fill="none" stroke="#63b8ff" d="M308.42,-110.33C304.8,-103.44 299.62,-93.59 295.05,-84.91"/>
<polygon fill="#63b8ff" stroke="#63b8ff" points="298.23,-83.42 290.47,-76.2 292.03,-86.68 298.23,-83.42"/>
</a>
</g>
</g>
<!-- Node10 -->
<g id="Node000010" class="node">
<title>Node10</title>
<g id="a_Node000010"><a xlink:title=" ">
<polygon fill="#e0e0e0" stroke="#999999" points="360.29,-74.5 321.79,-74.5 321.79,-55.25 360.29,-55.25 360.29,-74.5"/>
<text text-anchor="middle" x="341.04" y="-61" font-family="Helvetica,sans-Serif" font-size="10.00">utility</text>
</a>
</g>
</g>
<!-- Node5&#45;&gt;Node10 -->
<g id="edge11_Node000005_Node000010" class="edge">
<title>Node5&#45;&gt;Node10</title>
<g id="a_edge11_Node000005_Node000010"><a xlink:title=" ">
<path fill="none" stroke="#63b8ff" d="M317.67,-110.33C321.29,-103.44 326.47,-93.59 331.04,-84.91"/>
<polygon fill="#63b8ff" stroke="#63b8ff" points="334.06,-86.68 335.62,-76.2 327.86,-83.42 334.06,-86.68"/>
</a>
</g>
</g>
</g>
</svg>
