<?xml version="1.0" encoding="UTF-8" standalone="no"?>
<!DOCTYPE svg PUBLIC "-//W3C//DTD SVG 1.1//EN"
 "http://www.w3.org/Graphics/SVG/1.1/DTD/svg11.dtd">
<!-- Generated by graphviz version 12.2.1 (20241206.2353)
 -->
<!-- Title: mimic++/String.hpp Pages: 1 -->
<svg width="647pt" height="193pt"
 viewBox="0.00 0.00 646.50 193.00" xmlns="http://www.w3.org/2000/svg" xmlns:xlink="http://www.w3.org/1999/xlink">
<g id="graph0" class="graph" transform="scale(1 1) rotate(0) translate(4 189)">
<title>mimic++/String.hpp</title>
<!-- Node1 -->
<g id="Node000001" class="node">
<title>Node1</title>
<g id="a_Node000001"><a xlink:title=" ">
<polygon fill="#999999" stroke="#666666" points="343.38,-185 242.62,-185 242.62,-165.75 343.38,-165.75 343.38,-185"/>
<text text-anchor="middle" x="293" y="-171.5" font-family="Helvetica,sans-Serif" font-size="10.00">mimic++/String.hpp</text>
</a>
</g>
</g>
<!-- Node2 -->
<g id="Node000002" class="node">
<title>Node2</title>
<g id="a_Node000002"><a xlink:href="../../df/dde/_fwd_8hpp.html" target="_top" xlink:title=" ">
<polygon fill="white" stroke="#666666" points="163,-129.75 69,-129.75 69,-110.5 163,-110.5 163,-129.75"/>
<text text-anchor="middle" x="116" y="-116.25" font-family="Helvetica,sans-Serif" font-size="10.00">mimic++/Fwd.hpp</text>
</a>
</g>
</g>
<!-- Node1&#45;&gt;Node2 -->
<g id="edge1_Node000001_Node000002" class="edge">
<title>Node1&#45;&gt;Node2</title>
<g id="a_edge1_Node000001_Node000002"><a xlink:title=" ">
<path fill="none" stroke="#63b8ff" d="M262.97,-165.34C233.86,-156.58 189.46,-143.23 157.08,-133.48"/>
<polygon fill="#63b8ff" stroke="#63b8ff" points="158.21,-130.17 147.62,-130.64 156.19,-136.87 158.21,-130.17"/>
</a>
</g>
</g>
<!-- Node6 -->
<g id="Node000006" class="node">
<title>Node6</title>
<g id="a_Node000006"><a xlink:title=" ">
<polygon fill="#e0e0e0" stroke="#999999" points="40,-74.5 0,-74.5 0,-55.25 40,-55.25 40,-74.5"/>
<text text-anchor="middle" x="20" y="-61" font-family="Helvetica,sans-Serif" font-size="10.00">string</text>
</a>
</g>
</g>
<!-- Node1&#45;&gt;Node6 -->
<g id="edge13_Node000001_Node000006" class="edge">
<title>Node1&#45;&gt;Node6</title>
<g id="a_edge13_Node000001_Node000006"><a xlink:title=" ">
<path fill="none" stroke="#63b8ff" d="M242.35,-169.43C182.98,-162.83 89.02,-149.61 60,-129.75 44.32,-119.02 33.56,-99.92 27.18,-85.39"/>
<polygon fill="#63b8ff" stroke="#63b8ff" points="30.54,-84.34 23.56,-76.37 24.04,-86.95 30.54,-84.34"/>
</a>
</g>
</g>
<!-- Node7 -->
<g id="Node000007" class="node">
<title>Node7</title>
<g id="a_Node000007"><a xlink:title=" ">
<polygon fill="#e0e0e0" stroke="#999999" points="243.75,-74.5 178.25,-74.5 178.25,-55.25 243.75,-55.25 243.75,-74.5"/>
<text text-anchor="middle" x="211" y="-61" font-family="Helvetica,sans-Serif" font-size="10.00">string_view</text>
</a>
</g>
</g>
<!-- Node1&#45;&gt;Node7 -->
<g id="edge14_Node000001_Node000007" class="edge">
<title>Node1&#45;&gt;Node7</title>
<g id="a_edge14_Node000001_Node000007"><a xlink:title=" ">
<path fill="none" stroke="#63b8ff" d="M284.86,-165.37C276.97,-156.52 264.78,-142.51 255,-129.75 243.49,-114.74 231.36,-96.98 222.76,-83.99"/>
<polygon fill="#63b8ff" stroke="#63b8ff" points="225.94,-82.46 217.53,-76.02 220.09,-86.3 225.94,-82.46"/>
</a>
</g>
</g>
<!-- Node8 -->
<g id="Node000008" class="node">
<title>Node8</title>
<g id="a_Node000008"><a xlink:href="../../d9/db9/_concepts_8hpp.html" target="_top" xlink:title=" ">
<polygon fill="white" stroke="#666666" points="420.12,-129.75 269.88,-129.75 269.88,-110.5 420.12,-110.5 420.12,-129.75"/>
<text text-anchor="middle" x="345" y="-116.25" font-family="Helvetica,sans-Serif" font-size="10.00">mimic++/utilities/Concepts.hpp</text>
</a>
</g>
</g>
<!-- Node1&#45;&gt;Node8 -->
<g id="edge7_Node000001_Node000008" class="edge">
<title>Node1&#45;&gt;Node8</title>
<g id="a_edge7_Node000001_Node000008"><a xlink:title=" ">
<path fill="none" stroke="#63b8ff" d="M301.59,-165.58C308.84,-158.15 319.45,-147.29 328.37,-138.16"/>
<polygon fill="#63b8ff" stroke="#63b8ff" points="330.69,-140.79 335.17,-131.19 325.68,-135.9 330.69,-140.79"/>
</a>
</g>
</g>
<!-- Node9 -->
<g id="Node000009" class="node">
<title>Node9</title>
<g id="a_Node000009"><a xlink:title=" ">
<polygon fill="#e0e0e0" stroke="#999999" points="317.88,-74.5 262.12,-74.5 262.12,-55.25 317.88,-55.25 317.88,-74.5"/>
<text text-anchor="middle" x="290" y="-61" font-family="Helvetica,sans-Serif" font-size="10.00">concepts</text>
</a>
</g>
</g>
<!-- Node1&#45;&gt;Node9 -->
<g id="edge10_Node000001_Node000009" class="edge">
<title>Node1&#45;&gt;Node9</title>
<g id="a_edge10_Node000001_Node000009"><a xlink:title=" ">
<path fill="none" stroke="#63b8ff" d="M283.95,-165.42C276.16,-157.04 265.49,-143.73 261,-129.75 255.82,-113.65 264.8,-96.22 274.09,-83.64"/>
<polygon fill="#63b8ff" stroke="#63b8ff" points="276.8,-85.85 280.4,-75.89 271.37,-81.44 276.8,-85.85"/>
</a>
</g>
</g>
<!-- Node11 -->
<g id="Node000011" class="node">
<title>Node11</title>
<g id="a_Node000011"><a xlink:title=" ">
<polygon fill="#e0e0e0" stroke="#999999" points="496,-129.75 438,-129.75 438,-110.5 496,-110.5 496,-129.75"/>
<text text-anchor="middle" x="467" y="-116.25" font-family="Helvetica,sans-Serif" font-size="10.00">functional</text>
</a>
</g>
</g>
<!-- Node1&#45;&gt;Node11 -->
<g id="edge11_Node000001_Node000011" class="edge">
<title>Node1&#45;&gt;Node11</title>
<g id="a_edge11_Node000001_Node000011"><a xlink:title=" ">
<path fill="none" stroke="#63b8ff" d="M322.52,-165.34C351.23,-156.56 395.05,-143.14 426.91,-133.4"/>
<polygon fill="#63b8ff" stroke="#63b8ff" points="427.64,-136.83 436.18,-130.56 425.6,-130.14 427.64,-136.83"/>
</a>
</g>
</g>
<!-- Node12 -->
<g id="Node000012" class="node">
<title>Node12</title>
<g id="a_Node000012"><a xlink:title=" ">
<polygon fill="#e0e0e0" stroke="#999999" points="559.62,-129.75 514.38,-129.75 514.38,-110.5 559.62,-110.5 559.62,-129.75"/>
<text text-anchor="middle" x="537" y="-116.25" font-family="Helvetica,sans-Serif" font-size="10.00">ranges</text>
</a>
</g>
</g>
<!-- Node1&#45;&gt;Node12 -->
<g id="edge12_Node000001_Node000012" class="edge">
<title>Node1&#45;&gt;Node12</title>
<g id="a_edge12_Node000001_Node000012"><a xlink:title=" ">
<path fill="none" stroke="#63b8ff" d="M339.9,-165.28C380.53,-157.23 441.14,-144.81 502.85,-130.16"/>
<polygon fill="#63b8ff" stroke="#63b8ff" points="503.58,-133.58 512.5,-127.85 501.96,-126.77 503.58,-133.58"/>
</a>
</g>
</g>
<!-- Node13 -->
<g id="Node000013" class="node">
<title>Node13</title>
<g id="a_Node000013"><a xlink:title=" ">
<polygon fill="#e0e0e0" stroke="#999999" points="638.5,-129.75 577.5,-129.75 577.5,-110.5 638.5,-110.5 638.5,-129.75"/>
<text text-anchor="middle" x="608" y="-116.25" font-family="Helvetica,sans-Serif" font-size="10.00">type_traits</text>
</a>
</g>
</g>
<!-- Node1&#45;&gt;Node13 -->
<g id="edge15_Node000001_Node000013" class="edge">
<title>Node1&#45;&gt;Node13</title>
<g id="a_edge15_Node000001_Node000013"><a xlink:title=" ">
<path fill="none" stroke="#63b8ff" d="M343.77,-167.06C396.87,-159.21 482.9,-145.93 566.18,-130.2"/>
<polygon fill="#63b8ff" stroke="#63b8ff" points="566.72,-133.66 575.89,-128.35 565.41,-126.79 566.72,-133.66"/>
</a>
</g>
</g>
<!-- Node3 -->
<g id="Node000003" class="node">
<title>Node3</title>
<g id="a_Node000003"><a xlink:href="../../d8/dd2/_config_8hpp.html" target="_top" xlink:title=" ">
<polygon fill="white" stroke="#666666" points="160.12,-74.5 57.88,-74.5 57.88,-55.25 160.12,-55.25 160.12,-74.5"/>
<text text-anchor="middle" x="109" y="-61" font-family="Helvetica,sans-Serif" font-size="10.00">mimic++/Config.hpp</text>
</a>
</g>
</g>
<!-- Node2&#45;&gt;Node3 -->
<g id="edge2_Node000002_Node000003" class="edge">
<title>Node2&#45;&gt;Node3</title>
<g id="a_edge2_Node000002_Node000003"><a xlink:title=" ">
<path fill="none" stroke="#63b8ff" d="M114.84,-110.33C113.98,-103.74 112.76,-94.46 111.66,-86.07"/>
<polygon fill="#63b8ff" stroke="#63b8ff" points="115.15,-85.82 110.38,-76.36 108.21,-86.73 115.15,-85.82"/>
</a>
</g>
</g>
<!-- Node2&#45;&gt;Node6 -->
<g id="edge5_Node000002_Node000006" class="edge">
<title>Node2&#45;&gt;Node6</title>
<g id="a_edge5_Node000002_Node000006"><a xlink:title=" ">
<path fill="none" stroke="#63b8ff" d="M99.71,-110.09C85.1,-101.98 63.37,-89.93 46.29,-80.46"/>
<polygon fill="#63b8ff" stroke="#63b8ff" points="48.13,-77.48 37.69,-75.69 44.74,-83.6 48.13,-77.48"/>
</a>
</g>
</g>
<!-- Node2&#45;&gt;Node7 -->
<g id="edge6_Node000002_Node000007" class="edge">
<title>Node2&#45;&gt;Node7</title>
<g id="a_edge6_Node000002_Node000007"><a xlink:title=" ">
<path fill="none" stroke="#63b8ff" d="M132.12,-110.09C146.58,-101.98 168.08,-89.93 184.98,-80.46"/>
<polygon fill="#63b8ff" stroke="#63b8ff" points="186.47,-83.64 193.49,-75.69 183.05,-77.53 186.47,-83.64"/>
</a>
</g>
</g>
<!-- Node4 -->
<g id="Node000004" class="node">
<title>Node4</title>
<g id="a_Node000004"><a xlink:title=" ">
<polygon fill="#e0e0e0" stroke="#999999" points="99.62,-19.25 54.38,-19.25 54.38,0 99.62,0 99.62,-19.25"/>
<text text-anchor="middle" x="77" y="-5.75" font-family="Helvetica,sans-Serif" font-size="10.00">cstdint</text>
</a>
</g>
</g>
<!-- Node3&#45;&gt;Node4 -->
<g id="edge3_Node000003_Node000004" class="edge">
<title>Node3&#45;&gt;Node4</title>
<g id="a_edge3_Node000003_Node000004"><a xlink:title=" ">
<path fill="none" stroke="#63b8ff" d="M103.72,-55.08C99.53,-48.11 93.52,-38.12 88.27,-29.37"/>
<polygon fill="#63b8ff" stroke="#63b8ff" points="91.33,-27.68 83.18,-20.91 85.33,-31.28 91.33,-27.68"/>
</a>
</g>
</g>
<!-- Node5 -->
<g id="Node000005" class="node">
<title>Node5</title>
<g id="a_Node000005"><a xlink:title=" ">
<polygon fill="#e0e0e0" stroke="#999999" points="164.75,-19.25 117.25,-19.25 117.25,0 164.75,0 164.75,-19.25"/>
<text text-anchor="middle" x="141" y="-5.75" font-family="Helvetica,sans-Serif" font-size="10.00">version</text>
</a>
</g>
</g>
<!-- Node3&#45;&gt;Node5 -->
<g id="edge4_Node000003_Node000005" class="edge">
<title>Node3&#45;&gt;Node5</title>
<g id="a_edge4_Node000003_Node000005"><a xlink:title=" ">
<path fill="none" stroke="#63b8ff" d="M114.28,-55.08C118.47,-48.11 124.48,-38.12 129.73,-29.37"/>
<polygon fill="#63b8ff" stroke="#63b8ff" points="132.67,-31.28 134.82,-20.91 126.67,-27.68 132.67,-31.28"/>
</a>
</g>
</g>
<!-- Node8&#45;&gt;Node9 -->
<g id="edge8_Node000008_Node000009" class="edge">
<title>Node8&#45;&gt;Node9</title>
<g id="a_edge8_Node000008_Node000009"><a xlink:title=" ">
<path fill="none" stroke="#63b8ff" d="M335.92,-110.33C328.16,-102.82 316.79,-91.81 307.3,-82.63"/>
<polygon fill="#63b8ff" stroke="#63b8ff" points="309.99,-80.35 300.37,-75.91 305.12,-85.38 309.99,-80.35"/>
</a>
</g>
</g>
<!-- Node10 -->
<g id="Node000010" class="node">
<title>Node10</title>
<g id="a_Node000010"><a xlink:title=" ">
<polygon fill="#e0e0e0" stroke="#999999" points="374.25,-74.5 335.75,-74.5 335.75,-55.25 374.25,-55.25 374.25,-74.5"/>
<text text-anchor="middle" x="355" y="-61" font-family="Helvetica,sans-Serif" font-size="10.00">utility</text>
</a>
</g>
</g>
<!-- Node8&#45;&gt;Node10 -->
<g id="edge9_Node000008_Node000010" class="edge">
<title>Node8&#45;&gt;Node10</title>
<g id="a_edge9_Node000008_Node000010"><a xlink:title=" ">
<path fill="none" stroke="#63b8ff" d="M346.65,-110.33C347.89,-103.74 349.63,-94.46 351.21,-86.07"/>
<polygon fill="#63b8ff" stroke="#63b8ff" points="354.63,-86.82 353.03,-76.35 347.75,-85.53 354.63,-86.82"/>
</a>
</g>
</g>
</g>
</svg>
