<?xml version="1.0" encoding="UTF-8" standalone="no"?>
<!DOCTYPE svg PUBLIC "-//W3C//DTD SVG 1.1//EN"
 "http://www.w3.org/Graphics/SVG/1.1/DTD/svg11.dtd">
<!-- Generated by graphviz version 12.2.1 (20241206.2353)
 -->
<!-- Title: mimic++/String.hpp Pages: 1 -->
<svg width="930pt" height="248pt"
 viewBox="0.00 0.00 929.50 248.25" xmlns="http://www.w3.org/2000/svg" xmlns:xlink="http://www.w3.org/1999/xlink">
<g id="graph0" class="graph" transform="scale(1 1) rotate(0) translate(4 244.25)">
<title>mimic++/String.hpp</title>
<!-- Node1 -->
<g id="Node000001" class="node">
<title>Node1</title>
<g id="a_Node000001"><a xlink:title=" ">
<polygon fill="#999999" stroke="#666666" points="707.38,-240.25 606.62,-240.25 606.62,-221 707.38,-221 707.38,-240.25"/>
<text text-anchor="middle" x="657" y="-226.75" font-family="Helvetica,sans-Serif" font-size="10.00">mimic++/String.hpp</text>
</a>
</g>
</g>
<!-- Node2 -->
<g id="Node000002" class="node">
<title>Node2</title>
<g id="a_Node000002"><a xlink:href="../../df/dde/_fwd_8hpp.html" target="_top" xlink:title=" ">
<polygon fill="white" stroke="#666666" points="152,-129.75 58,-129.75 58,-110.5 152,-110.5 152,-129.75"/>
<text text-anchor="middle" x="105" y="-116.25" font-family="Helvetica,sans-Serif" font-size="10.00">mimic++/Fwd.hpp</text>
</a>
</g>
</g>
<!-- Node1&#45;&gt;Node2 -->
<g id="edge1_Node000001_Node000002" class="edge">
<title>Node1&#45;&gt;Node2</title>
<g id="a_edge1_Node000001_Node000002"><a xlink:title=" ">
<path fill="none" stroke="#63b8ff" d="M606.32,-223.81C545.92,-216.5 442.09,-202.74 354,-185 280.33,-170.17 195.85,-147.21 146.65,-133.24"/>
<polygon fill="#63b8ff" stroke="#63b8ff" points="147.85,-129.94 137.27,-130.56 145.92,-136.67 147.85,-129.94"/>
</a>
</g>
</g>
<!-- Node6 -->
<g id="Node000006" class="node">
<title>Node6</title>
<g id="a_Node000006"><a xlink:title=" ">
<polygon fill="#e0e0e0" stroke="#999999" points="40,-74.5 0,-74.5 0,-55.25 40,-55.25 40,-74.5"/>
<text text-anchor="middle" x="20" y="-61" font-family="Helvetica,sans-Serif" font-size="10.00">string</text>
</a>
</g>
</g>
<!-- Node1&#45;&gt;Node6 -->
<g id="edge20_Node000001_Node000006" class="edge">
<title>Node1&#45;&gt;Node6</title>
<g id="a_edge20_Node000001_Node000006"><a xlink:title=" ">
<path fill="none" stroke="#63b8ff" d="M606.15,-227.77C475.71,-222.03 133.52,-200.43 49,-129.75 35.7,-118.63 28.23,-100.14 24.21,-85.9"/>
<polygon fill="#63b8ff" stroke="#63b8ff" points="27.63,-85.14 21.87,-76.25 20.83,-86.79 27.63,-85.14"/>
</a>
</g>
</g>
<!-- Node7 -->
<g id="Node000007" class="node">
<title>Node7</title>
<g id="a_Node000007"><a xlink:title=" ">
<polygon fill="#e0e0e0" stroke="#999999" points="243.75,-74.5 178.25,-74.5 178.25,-55.25 243.75,-55.25 243.75,-74.5"/>
<text text-anchor="middle" x="211" y="-61" font-family="Helvetica,sans-Serif" font-size="10.00">string_view</text>
</a>
</g>
</g>
<!-- Node1&#45;&gt;Node7 -->
<g id="edge21_Node000001_Node000007" class="edge">
<title>Node1&#45;&gt;Node7</title>
<g id="a_edge21_Node000001_Node000007"><a xlink:title=" ">
<path fill="none" stroke="#63b8ff" d="M661.59,-220.76C672.2,-198.89 695.44,-141.86 667,-110.5 639.64,-80.33 364.25,-69.87 255.16,-66.9"/>
<polygon fill="#63b8ff" stroke="#63b8ff" points="255.52,-63.4 245.43,-66.64 255.33,-70.4 255.52,-63.4"/>
</a>
</g>
</g>
<!-- Node8 -->
<g id="Node000008" class="node">
<title>Node8</title>
<g id="a_Node000008"><a xlink:href="../../d4/d2c/_utility_8hpp.html" target="_top" xlink:title=" ">
<polygon fill="white" stroke="#666666" points="463,-185 363,-185 363,-165.75 463,-165.75 463,-185"/>
<text text-anchor="middle" x="413" y="-171.5" font-family="Helvetica,sans-Serif" font-size="10.00">mimic++/Utility.hpp</text>
</a>
</g>
</g>
<!-- Node1&#45;&gt;Node8 -->
<g id="edge7_Node000001_Node000008" class="edge">
<title>Node1&#45;&gt;Node8</title>
<g id="a_edge7_Node000001_Node000008"><a xlink:title=" ">
<path fill="none" stroke="#63b8ff" d="M615.33,-220.53C573.92,-211.49 510.29,-197.61 465.46,-187.82"/>
<polygon fill="#63b8ff" stroke="#63b8ff" points="466.49,-184.47 455.97,-185.75 465,-191.31 466.49,-184.47"/>
</a>
</g>
</g>
<!-- Node12 -->
<g id="Node000012" class="node">
<title>Node12</title>
<g id="a_Node000012"><a xlink:title=" ">
<polygon fill="#e0e0e0" stroke="#999999" points="657.62,-129.75 612.38,-129.75 612.38,-110.5 657.62,-110.5 657.62,-129.75"/>
<text text-anchor="middle" x="635" y="-116.25" font-family="Helvetica,sans-Serif" font-size="10.00">ranges</text>
</a>
</g>
</g>
<!-- Node1&#45;&gt;Node12 -->
<g id="edge19_Node000001_Node000012" class="edge">
<title>Node1&#45;&gt;Node12</title>
<g id="a_edge19_Node000001_Node000012"><a xlink:title=" ">
<path fill="none" stroke="#63b8ff" d="M655.2,-220.75C651.7,-203.5 643.91,-165.08 639.09,-141.31"/>
<polygon fill="#63b8ff" stroke="#63b8ff" points="642.54,-140.72 637.13,-131.61 635.68,-142.11 642.54,-140.72"/>
</a>
</g>
</g>
<!-- Node16 -->
<g id="Node000016" class="node">
<title>Node16</title>
<g id="a_Node000016"><a xlink:title=" ">
<polygon fill="#e0e0e0" stroke="#999999" points="765.88,-185 710.12,-185 710.12,-165.75 765.88,-165.75 765.88,-185"/>
<text text-anchor="middle" x="738" y="-171.5" font-family="Helvetica,sans-Serif" font-size="10.00">concepts</text>
</a>
</g>
</g>
<!-- Node1&#45;&gt;Node16 -->
<g id="edge17_Node000001_Node000016" class="edge">
<title>Node1&#45;&gt;Node16</title>
<g id="a_edge17_Node000001_Node000016"><a xlink:title=" ">
<path fill="none" stroke="#63b8ff" d="M670.74,-220.59C682.73,-212.71 700.37,-201.11 714.58,-191.77"/>
<polygon fill="#63b8ff" stroke="#63b8ff" points="716.49,-194.7 722.93,-186.28 712.65,-188.85 716.49,-194.7"/>
</a>
</g>
</g>
<!-- Node17 -->
<g id="Node000017" class="node">
<title>Node17</title>
<g id="a_Node000017"><a xlink:title=" ">
<polygon fill="#e0e0e0" stroke="#999999" points="842,-185 784,-185 784,-165.75 842,-165.75 842,-185"/>
<text text-anchor="middle" x="813" y="-171.5" font-family="Helvetica,sans-Serif" font-size="10.00">functional</text>
</a>
</g>
</g>
<!-- Node1&#45;&gt;Node17 -->
<g id="edge18_Node000001_Node000017" class="edge">
<title>Node1&#45;&gt;Node17</title>
<g id="a_edge18_Node000001_Node000017"><a xlink:title=" ">
<path fill="none" stroke="#63b8ff" d="M683.46,-220.59C708.79,-211.95 747.23,-198.82 775.67,-189.12"/>
<polygon fill="#63b8ff" stroke="#63b8ff" points="776.64,-192.48 784.97,-185.94 774.38,-185.86 776.64,-192.48"/>
</a>
</g>
</g>
<!-- Node18 -->
<g id="Node000018" class="node">
<title>Node18</title>
<g id="a_Node000018"><a xlink:title=" ">
<polygon fill="#e0e0e0" stroke="#999999" points="921.5,-185 860.5,-185 860.5,-165.75 921.5,-165.75 921.5,-185"/>
<text text-anchor="middle" x="891" y="-171.5" font-family="Helvetica,sans-Serif" font-size="10.00">type_traits</text>
</a>
</g>
</g>
<!-- Node1&#45;&gt;Node18 -->
<g id="edge22_Node000001_Node000018" class="edge">
<title>Node1&#45;&gt;Node18</title>
<g id="a_edge22_Node000001_Node000018"><a xlink:title=" ">
<path fill="none" stroke="#63b8ff" d="M696.96,-220.53C739.38,-210.88 806.12,-195.69 849.22,-185.88"/>
<polygon fill="#63b8ff" stroke="#63b8ff" points="849.72,-189.36 858.69,-183.73 848.17,-182.53 849.72,-189.36"/>
</a>
</g>
</g>
<!-- Node3 -->
<g id="Node000003" class="node">
<title>Node3</title>
<g id="a_Node000003"><a xlink:href="../../d8/dd2/_config_8hpp.html" target="_top" xlink:title=" ">
<polygon fill="white" stroke="#666666" points="160.12,-74.5 57.88,-74.5 57.88,-55.25 160.12,-55.25 160.12,-74.5"/>
<text text-anchor="middle" x="109" y="-61" font-family="Helvetica,sans-Serif" font-size="10.00">mimic++/Config.hpp</text>
</a>
</g>
</g>
<!-- Node2&#45;&gt;Node3 -->
<g id="edge2_Node000002_Node000003" class="edge">
<title>Node2&#45;&gt;Node3</title>
<g id="a_edge2_Node000002_Node000003"><a xlink:title=" ">
<path fill="none" stroke="#63b8ff" d="M105.66,-110.33C106.16,-103.74 106.85,-94.46 107.48,-86.07"/>
<polygon fill="#63b8ff" stroke="#63b8ff" points="110.95,-86.6 108.21,-76.37 103.97,-86.08 110.95,-86.6"/>
</a>
</g>
</g>
<!-- Node2&#45;&gt;Node6 -->
<g id="edge5_Node000002_Node000006" class="edge">
<title>Node2&#45;&gt;Node6</title>
<g id="a_edge5_Node000002_Node000006"><a xlink:title=" ">
<path fill="none" stroke="#63b8ff" d="M90.58,-110.09C77.88,-102.14 59.13,-90.39 44.14,-81"/>
<polygon fill="#63b8ff" stroke="#63b8ff" points="46.1,-78.1 35.77,-75.76 42.39,-84.03 46.1,-78.1"/>
</a>
</g>
</g>
<!-- Node2&#45;&gt;Node7 -->
<g id="edge6_Node000002_Node000007" class="edge">
<title>Node2&#45;&gt;Node7</title>
<g id="a_edge6_Node000002_Node000007"><a xlink:title=" ">
<path fill="none" stroke="#63b8ff" d="M122.98,-110.09C139.35,-101.87 163.79,-89.59 182.76,-80.06"/>
<polygon fill="#63b8ff" stroke="#63b8ff" points="184.21,-83.25 191.58,-75.63 181.07,-76.99 184.21,-83.25"/>
</a>
</g>
</g>
<!-- Node4 -->
<g id="Node000004" class="node">
<title>Node4</title>
<g id="a_Node000004"><a xlink:title=" ">
<polygon fill="#e0e0e0" stroke="#999999" points="99.62,-19.25 54.38,-19.25 54.38,0 99.62,0 99.62,-19.25"/>
<text text-anchor="middle" x="77" y="-5.75" font-family="Helvetica,sans-Serif" font-size="10.00">cstdint</text>
</a>
</g>
</g>
<!-- Node3&#45;&gt;Node4 -->
<g id="edge3_Node000003_Node000004" class="edge">
<title>Node3&#45;&gt;Node4</title>
<g id="a_edge3_Node000003_Node000004"><a xlink:title=" ">
<path fill="none" stroke="#63b8ff" d="M103.72,-55.08C99.53,-48.11 93.52,-38.12 88.27,-29.37"/>
<polygon fill="#63b8ff" stroke="#63b8ff" points="91.33,-27.68 83.18,-20.91 85.33,-31.28 91.33,-27.68"/>
</a>
</g>
</g>
<!-- Node5 -->
<g id="Node000005" class="node">
<title>Node5</title>
<g id="a_Node000005"><a xlink:title=" ">
<polygon fill="#e0e0e0" stroke="#999999" points="164.75,-19.25 117.25,-19.25 117.25,0 164.75,0 164.75,-19.25"/>
<text text-anchor="middle" x="141" y="-5.75" font-family="Helvetica,sans-Serif" font-size="10.00">version</text>
</a>
</g>
</g>
<!-- Node3&#45;&gt;Node5 -->
<g id="edge4_Node000003_Node000005" class="edge">
<title>Node3&#45;&gt;Node5</title>
<g id="a_edge4_Node000003_Node000005"><a xlink:title=" ">
<path fill="none" stroke="#63b8ff" d="M114.28,-55.08C118.47,-48.11 124.48,-38.12 129.73,-29.37"/>
<polygon fill="#63b8ff" stroke="#63b8ff" points="132.67,-31.28 134.82,-20.91 126.67,-27.68 132.67,-31.28"/>
</a>
</g>
</g>
<!-- Node8&#45;&gt;Node2 -->
<g id="edge8_Node000008_Node000002" class="edge">
<title>Node8&#45;&gt;Node2</title>
<g id="a_edge8_Node000008_Node000002"><a xlink:title=" ">
<path fill="none" stroke="#63b8ff" d="M362.83,-165.7C308.26,-156.27 221.12,-141.2 163.48,-131.24"/>
<polygon fill="#63b8ff" stroke="#63b8ff" points="164.31,-127.83 153.86,-129.57 163.12,-134.72 164.31,-127.83"/>
</a>
</g>
</g>
<!-- Node8&#45;&gt;Node7 -->
<g id="edge14_Node000008_Node000007" class="edge">
<title>Node8&#45;&gt;Node7</title>
<g id="a_edge14_Node000008_Node000007"><a xlink:title=" ">
<path fill="none" stroke="#63b8ff" d="M362.66,-171.04C306.01,-166.11 219.23,-154.63 199,-129.75 188.78,-117.18 193.8,-98.61 200.18,-84.73"/>
<polygon fill="#63b8ff" stroke="#63b8ff" points="203.13,-86.64 204.63,-76.15 196.92,-83.42 203.13,-86.64"/>
</a>
</g>
</g>
<!-- Node9 -->
<g id="Node000009" class="node">
<title>Node9</title>
<g id="a_Node000009"><a xlink:title=" ">
<polygon fill="#e0e0e0" stroke="#999999" points="459.5,-129.75 422.5,-129.75 422.5,-110.5 459.5,-110.5 459.5,-129.75"/>
<text text-anchor="middle" x="441" y="-116.25" font-family="Helvetica,sans-Serif" font-size="10.00">array</text>
</a>
</g>
</g>
<!-- Node8&#45;&gt;Node9 -->
<g id="edge9_Node000008_Node000009" class="edge">
<title>Node8&#45;&gt;Node9</title>
<g id="a_edge9_Node000008_Node000009"><a xlink:title=" ">
<path fill="none" stroke="#63b8ff" d="M417.62,-165.58C421.25,-158.69 426.43,-148.84 430.99,-140.16"/>
<polygon fill="#63b8ff" stroke="#63b8ff" points="434.02,-141.93 435.57,-131.45 427.82,-138.67 434.02,-141.93"/>
</a>
</g>
</g>
<!-- Node10 -->
<g id="Node000010" class="node">
<title>Node10</title>
<g id="a_Node000010"><a xlink:title=" ">
<polygon fill="#e0e0e0" stroke="#999999" points="526.12,-129.75 477.88,-129.75 477.88,-110.5 526.12,-110.5 526.12,-129.75"/>
<text text-anchor="middle" x="502" y="-116.25" font-family="Helvetica,sans-Serif" font-size="10.00">cassert</text>
</a>
</g>
</g>
<!-- Node8&#45;&gt;Node10 -->
<g id="edge10_Node000008_Node000010" class="edge">
<title>Node8&#45;&gt;Node10</title>
<g id="a_edge10_Node000008_Node000010"><a xlink:title=" ">
<path fill="none" stroke="#63b8ff" d="M428.1,-165.34C441.52,-157.31 461.41,-145.41 477.17,-135.98"/>
<polygon fill="#63b8ff" stroke="#63b8ff" points="478.75,-139.12 485.53,-130.98 475.15,-133.11 478.75,-139.12"/>
</a>
</g>
</g>
<!-- Node11 -->
<g id="Node000011" class="node">
<title>Node11</title>
<g id="a_Node000011"><a xlink:title=" ">
<polygon fill="#e0e0e0" stroke="#999999" points="593.88,-129.75 544.12,-129.75 544.12,-110.5 593.88,-110.5 593.88,-129.75"/>
<text text-anchor="middle" x="569" y="-116.25" font-family="Helvetica,sans-Serif" font-size="10.00">optional</text>
</a>
</g>
</g>
<!-- Node8&#45;&gt;Node11 -->
<g id="edge11_Node000008_Node000011" class="edge">
<title>Node8&#45;&gt;Node11</title>
<g id="a_edge11_Node000008_Node000011"><a xlink:title=" ">
<path fill="none" stroke="#63b8ff" d="M439.46,-165.34C465.17,-156.57 504.4,-143.18 532.95,-133.43"/>
<polygon fill="#63b8ff" stroke="#63b8ff" points="533.94,-136.79 542.27,-130.25 531.67,-130.17 533.94,-136.79"/>
</a>
</g>
</g>
<!-- Node8&#45;&gt;Node12 -->
<g id="edge12_Node000008_Node000012" class="edge">
<title>Node8&#45;&gt;Node12</title>
<g id="a_edge12_Node000008_Node000012"><a xlink:title=" ">
<path fill="none" stroke="#63b8ff" d="M453.49,-165.27C489.69,-157.04 544.45,-144.37 601,-130.19"/>
<polygon fill="#63b8ff" stroke="#63b8ff" points="601.64,-133.64 610.48,-127.8 599.93,-126.85 601.64,-133.64"/>
</a>
</g>
</g>
<!-- Node13 -->
<g id="Node000013" class="node">
<title>Node13</title>
<g id="a_Node000013"><a xlink:title=" ">
<polygon fill="#e0e0e0" stroke="#999999" points="292.12,-129.75 207.88,-129.75 207.88,-110.5 292.12,-110.5 292.12,-129.75"/>
<text text-anchor="middle" x="250" y="-116.25" font-family="Helvetica,sans-Serif" font-size="10.00">source_location</text>
</a>
</g>
</g>
<!-- Node8&#45;&gt;Node13 -->
<g id="edge13_Node000008_Node000013" class="edge">
<title>Node8&#45;&gt;Node13</title>
<g id="a_edge13_Node000008_Node000013"><a xlink:title=" ">
<path fill="none" stroke="#63b8ff" d="M385.35,-165.34C358.77,-156.66 318.36,-143.46 288.61,-133.74"/>
<polygon fill="#63b8ff" stroke="#63b8ff" points="289.82,-130.45 279.23,-130.67 287.64,-137.1 289.82,-130.45"/>
</a>
</g>
</g>
<!-- Node14 -->
<g id="Node000014" class="node">
<title>Node14</title>
<g id="a_Node000014"><a xlink:title=" ">
<polygon fill="#e0e0e0" stroke="#999999" points="347.5,-129.75 310.5,-129.75 310.5,-110.5 347.5,-110.5 347.5,-129.75"/>
<text text-anchor="middle" x="329" y="-116.25" font-family="Helvetica,sans-Serif" font-size="10.00">tuple</text>
</a>
</g>
</g>
<!-- Node8&#45;&gt;Node14 -->
<g id="edge15_Node000008_Node000014" class="edge">
<title>Node8&#45;&gt;Node14</title>
<g id="a_edge15_Node000008_Node000014"><a xlink:title=" ">
<path fill="none" stroke="#63b8ff" d="M398.75,-165.34C386.2,-157.39 367.67,-145.64 352.86,-136.25"/>
<polygon fill="#63b8ff" stroke="#63b8ff" points="354.92,-133.41 344.6,-131.01 351.17,-139.32 354.92,-133.41"/>
</a>
</g>
</g>
<!-- Node15 -->
<g id="Node000015" class="node">
<title>Node15</title>
<g id="a_Node000015"><a xlink:title=" ">
<polygon fill="#e0e0e0" stroke="#999999" points="404.25,-129.75 365.75,-129.75 365.75,-110.5 404.25,-110.5 404.25,-129.75"/>
<text text-anchor="middle" x="385" y="-116.25" font-family="Helvetica,sans-Serif" font-size="10.00">utility</text>
</a>
</g>
</g>
<!-- Node8&#45;&gt;Node15 -->
<g id="edge16_Node000008_Node000015" class="edge">
<title>Node8&#45;&gt;Node15</title>
<g id="a_edge16_Node000008_Node000015"><a xlink:title=" ">
<path fill="none" stroke="#63b8ff" d="M408.38,-165.58C404.75,-158.69 399.57,-148.84 395.01,-140.16"/>
<polygon fill="#63b8ff" stroke="#63b8ff" points="398.18,-138.67 390.43,-131.45 391.98,-141.93 398.18,-138.67"/>
</a>
</g>
</g>
</g>
</svg>
