<?xml version="1.0" encoding="UTF-8" standalone="no"?>
<!DOCTYPE svg PUBLIC "-//W3C//DTD SVG 1.1//EN"
 "http://www.w3.org/Graphics/SVG/1.1/DTD/svg11.dtd">
<!-- Generated by graphviz version 12.2.1 (20241206.2353)
 -->
<!-- Title: mimicpp::expectation_policies::SideEffectAction::SideEffectAction Pages: 1 -->
<svg width="306pt" height="230pt"
 viewBox="0.00 0.00 305.50 229.75" xmlns="http://www.w3.org/2000/svg" xmlns:xlink="http://www.w3.org/1999/xlink">
<g id="graph0" class="graph" transform="scale(1 1) rotate(0) translate(4 225.75)">
<title>mimicpp::expectation_policies::SideEffectAction::SideEffectAction</title>
<!-- Node1 -->
<g id="Node000001" class="node">
<title>Node1</title>
<g id="a_Node000001"><a xlink:title=" ">
<polygon fill="#999999" stroke="#666666" points="297.5,-131.75 166.75,-131.75 166.75,-90 297.5,-90 297.5,-131.75"/>
<text text-anchor="start" x="174.75" y="-118.25" font-family="Helvetica,sans-Serif" font-size="10.00">mimicpp::expectation</text>
<text text-anchor="start" x="174.75" y="-107" font-family="Helvetica,sans-Serif" font-size="10.00">_policies::SideEffectAction</text>
<text text-anchor="middle" x="232.12" y="-95.75" font-family="Helvetica,sans-Serif" font-size="10.00">::SideEffectAction</text>
</a>
</g>
</g>
<!-- Node2 -->
<g id="Node000002" class="node">
<title>Node2</title>
<g id="a_Node000002"><a xlink:href="../../d5/d8f/classmimicpp_1_1expectation__policies_1_1_side_effect_action.html#ad9d9ebebd2c42003fc735e302ef22635" target="_top" xlink:title=" ">
<polygon fill="white" stroke="#666666" points="130.75,-221.75 0,-221.75 0,-180 130.75,-180 130.75,-221.75"/>
<text text-anchor="start" x="8" y="-208.25" font-family="Helvetica,sans-Serif" font-size="10.00">mimicpp::expectation</text>
<text text-anchor="start" x="8" y="-197" font-family="Helvetica,sans-Serif" font-size="10.00">_policies::SideEffectAction</text>
<text text-anchor="middle" x="65.38" y="-185.75" font-family="Helvetica,sans-Serif" font-size="10.00">::SideEffectAction</text>
</a>
</g>
</g>
<!-- Node1&#45;&gt;Node2 -->
<g id="edge1_Node000001_Node000002" class="edge">
<title>Node1&#45;&gt;Node2</title>
<g id="a_edge1_Node000001_Node000002"><a xlink:title=" ">
<path fill="none" stroke="#63b8ff" d="M188.28,-137.8C170.69,-148.51 149.97,-160.69 130.75,-170.88 125.19,-173.82 119.3,-176.78 113.41,-179.64"/>
<polygon fill="#63b8ff" stroke="#63b8ff" points="189.72,-141.03 196.41,-132.82 186.06,-135.06 189.72,-141.03"/>
</a>
</g>
</g>
<!-- Node3 -->
<g id="Node000003" class="node">
<title>Node3</title>
<g id="a_Node000003"><a xlink:href="../../d5/d8f/classmimicpp_1_1expectation__policies_1_1_side_effect_action.html#abcc9b1986cb9ceb73fd866232b053064" target="_top" xlink:title=" ">
<polygon fill="white" stroke="#666666" points="130.75,-161.75 0,-161.75 0,-120 130.75,-120 130.75,-161.75"/>
<text text-anchor="start" x="8" y="-148.25" font-family="Helvetica,sans-Serif" font-size="10.00">mimicpp::expectation</text>
<text text-anchor="start" x="8" y="-137" font-family="Helvetica,sans-Serif" font-size="10.00">_policies::SideEffectAction</text>
<text text-anchor="middle" x="65.38" y="-125.75" font-family="Helvetica,sans-Serif" font-size="10.00">::SideEffectAction</text>
</a>
</g>
</g>
<!-- Node1&#45;&gt;Node3 -->
<g id="edge2_Node000001_Node000003" class="edge">
<title>Node1&#45;&gt;Node3</title>
<g id="a_edge2_Node000001_Node000003"><a xlink:title=" ">
<path fill="none" stroke="#63b8ff" d="M155.19,-124.7C147.14,-126.17 139.01,-127.65 131.1,-129.09"/>
<polygon fill="#63b8ff" stroke="#63b8ff" points="155.78,-128.15 165,-122.92 154.53,-121.27 155.78,-128.15"/>
</a>
</g>
</g>
<!-- Node4 -->
<g id="Node000004" class="node">
<title>Node4</title>
<g id="a_Node000004"><a xlink:href="../../d5/d8f/classmimicpp_1_1expectation__policies_1_1_side_effect_action.html#a52400b93c8727e5c09fc540475d86435" target="_top" xlink:title=" ">
<polygon fill="white" stroke="#666666" points="130.75,-101.75 0,-101.75 0,-60 130.75,-60 130.75,-101.75"/>
<text text-anchor="start" x="8" y="-88.25" font-family="Helvetica,sans-Serif" font-size="10.00">mimicpp::expectation</text>
<text text-anchor="start" x="8" y="-77" font-family="Helvetica,sans-Serif" font-size="10.00">_policies::SideEffectAction</text>
<text text-anchor="middle" x="65.38" y="-65.75" font-family="Helvetica,sans-Serif" font-size="10.00">::operator=</text>
</a>
</g>
</g>
<!-- Node1&#45;&gt;Node4 -->
<g id="edge3_Node000001_Node000004" class="edge">
<title>Node1&#45;&gt;Node4</title>
<g id="a_edge3_Node000001_Node000004"><a xlink:title=" ">
<path fill="none" stroke="#63b8ff" d="M155.19,-97.05C147.14,-95.58 139.01,-94.1 131.1,-92.66"/>
<polygon fill="#63b8ff" stroke="#63b8ff" points="154.53,-100.48 165,-98.83 155.78,-93.6 154.53,-100.48"/>
</a>
</g>
</g>
<!-- Node5 -->
<g id="Node000005" class="node">
<title>Node5</title>
<g id="a_Node000005"><a xlink:href="../../d5/d8f/classmimicpp_1_1expectation__policies_1_1_side_effect_action.html#acdb888c03cadb27d5beb665782c6cfca" target="_top" xlink:title=" ">
<polygon fill="white" stroke="#666666" points="130.75,-41.75 0,-41.75 0,0 130.75,0 130.75,-41.75"/>
<text text-anchor="start" x="8" y="-28.25" font-family="Helvetica,sans-Serif" font-size="10.00">mimicpp::expectation</text>
<text text-anchor="start" x="8" y="-17" font-family="Helvetica,sans-Serif" font-size="10.00">_policies::SideEffectAction</text>
<text text-anchor="middle" x="65.38" y="-5.75" font-family="Helvetica,sans-Serif" font-size="10.00">::operator=</text>
</a>
</g>
</g>
<!-- Node1&#45;&gt;Node5 -->
<g id="edge4_Node000001_Node000005" class="edge">
<title>Node1&#45;&gt;Node5</title>
<g id="a_edge4_Node000001_Node000005"><a xlink:title=" ">
<path fill="none" stroke="#63b8ff" d="M188.28,-83.95C170.69,-73.24 149.97,-61.06 130.75,-50.88 125.19,-47.93 119.3,-44.97 113.41,-42.11"/>
<polygon fill="#63b8ff" stroke="#63b8ff" points="186.06,-86.69 196.41,-88.93 189.72,-80.72 186.06,-86.69"/>
</a>
</g>
</g>
</g>
</svg>
