<?xml version="1.0" encoding="UTF-8" standalone="no"?>
<!DOCTYPE svg PUBLIC "-//W3C//DTD SVG 1.1//EN"
 "http://www.w3.org/Graphics/SVG/1.1/DTD/svg11.dtd">
<!-- Generated by graphviz version 12.2.1 (20241206.2353)
 -->
<!-- Title: mimicpp::ScopedExpectation Pages: 1 -->
<svg width="151pt" height="250pt"
 viewBox="0.00 0.00 150.75 250.25" xmlns="http://www.w3.org/2000/svg" xmlns:xlink="http://www.w3.org/1999/xlink">
<g id="graph0" class="graph" transform="scale(1 1) rotate(0) translate(4 246.25)">
<title>mimicpp::ScopedExpectation</title>
<!-- Node1 -->
<g id="Node000001" class="node">
<title>Node1</title>
<g id="a_Node000001"><a xlink:title="Takes the ownership of an expectation and check whether it&#39;s satisfied during destruction.">
<polygon fill="#999999" stroke="#666666" points="141.62,-19.25 1.12,-19.25 1.12,0 141.62,0 141.62,-19.25"/>
<text text-anchor="middle" x="71.38" y="-5.75" font-family="Helvetica,sans-Serif" font-size="10.00">mimicpp::ScopedExpectation</text>
</a>
</g>
</g>
<!-- Node2 -->
<g id="Node000002" class="node">
<title>Node2</title>
<g id="a_Node000002"><a xlink:href="../../db/df5/classmimicpp_1_1util_1_1_source_location.html" target="_top" xlink:title="A thin wrapper around general source&#45;location info.">
<polygon fill="white" stroke="#666666" points="142.75,-85.75 0,-85.75 0,-66.5 142.75,-66.5 142.75,-85.75"/>
<text text-anchor="middle" x="71.38" y="-72.25" font-family="Helvetica,sans-Serif" font-size="10.00">mimicpp::util::SourceLocation</text>
</a>
</g>
</g>
<!-- Node2&#45;&gt;Node1 -->
<g id="edge1_Node000001_Node000002" class="edge">
<title>Node2&#45;&gt;Node1</title>
<g id="a_edge1_Node000001_Node000002"><a xlink:title=" ">
<path fill="none" stroke="#9a32cd" stroke-dasharray="5,2" d="M71.38,-54.65C71.38,-42.82 71.38,-28.54 71.38,-19.52"/>
<polygon fill="#9a32cd" stroke="#9a32cd" points="67.88,-54.64 71.38,-64.64 74.88,-54.64 67.88,-54.64"/>
</a>
</g>
<text text-anchor="middle" x="78.88" y="-39" font-family="Helvetica,sans-Serif" font-size="10.00" fill="grey"> loc</text>
</g>
<!-- Node3 -->
<g id="Node000003" class="node">
<title>Node3</title>
<g id="a_Node000003"><a xlink:title=" ">
<polygon fill="white" stroke="#666666" points="113.12,-174.75 29.62,-174.75 29.62,-155.5 113.12,-155.5 113.12,-174.75"/>
<text text-anchor="middle" x="71.38" y="-161.25" font-family="Helvetica,sans-Serif" font-size="10.00">std::string_view</text>
</a>
</g>
</g>
<!-- Node3&#45;&gt;Node2 -->
<g id="edge2_Node000002_Node000003" class="edge">
<title>Node3&#45;&gt;Node2</title>
<g id="a_edge2_Node000002_Node000003"><a xlink:title=" ">
<path fill="none" stroke="#9a32cd" stroke-dasharray="5,2" d="M71.38,-143.76C71.38,-125.55 71.38,-99.72 71.38,-86.19"/>
<polygon fill="#9a32cd" stroke="#9a32cd" points="67.88,-143.63 71.38,-153.63 74.88,-143.63 67.88,-143.63"/>
</a>
</g>
<text text-anchor="middle" x="101.75" y="-128" font-family="Helvetica,sans-Serif" font-size="10.00" fill="grey"> fileName</text>
<text text-anchor="middle" x="101.75" y="-116.75" font-family="Helvetica,sans-Serif" font-size="10.00" fill="grey">functionName</text>
<text text-anchor="middle" x="101.75" y="-105.5" font-family="Helvetica,sans-Serif" font-size="10.00" fill="grey">line</text>
</g>
<!-- Node4 -->
<g id="Node000004" class="node">
<title>Node4</title>
<g id="a_Node000004"><a xlink:title=" ">
<polygon fill="white" stroke="#666666" points="127.38,-242.25 15.38,-242.25 15.38,-211.75 127.38,-211.75 127.38,-242.25"/>
<text text-anchor="start" x="23.38" y="-228.75" font-family="Helvetica,sans-Serif" font-size="10.00">std::basic_string_view</text>
<text text-anchor="middle" x="71.38" y="-217.5" font-family="Helvetica,sans-Serif" font-size="10.00">&lt; Char &gt;</text>
</a>
</g>
</g>
<!-- Node4&#45;&gt;Node3 -->
<g id="edge3_Node000003_Node000004" class="edge">
<title>Node4&#45;&gt;Node3</title>
<g id="a_edge3_Node000003_Node000004"><a xlink:title=" ">
<path fill="none" stroke="#63b8ff" d="M71.38,-200.27C71.38,-191.29 71.38,-181.79 71.38,-175.1"/>
<polygon fill="#63b8ff" stroke="#63b8ff" points="67.88,-199.99 71.38,-209.99 74.88,-199.99 67.88,-199.99"/>
</a>
</g>
</g>
</g>
</svg>
