<?xml version="1.0" encoding="UTF-8" standalone="no"?>
<!DOCTYPE svg PUBLIC "-//W3C//DTD SVG 1.1//EN"
 "http://www.w3.org/Graphics/SVG/1.1/DTD/svg11.dtd">
<!-- Generated by graphviz version 12.2.1 (20241206.2353)
 -->
<!-- Title: mimic++/Printer.hpp Pages: 1 -->
<!--zoomable 248 -->

<svg id="main" version="1.1" xmlns="http://www.w3.org/2000/svg" xmlns:xlink="http://www.w3.org/1999/xlink" xml:space="preserve" onload="init(evt)">

<style type="text/css"><![CDATA[
.node, .edge {opacity: 0.7;}
.node.selected, .edge.selected {opacity: 1;}
.edge:hover path { stroke: red; }
.edge:hover polygon { stroke: red; fill: red; }
]]></style>

<defs>
  <circle id="rim" cx="0" cy="0" r="7"/>
  <circle id="rim2" cx="0" cy="0" r="3.5"/>
  <g id="zoomPlus">
    <use xlink:href="#rim" fill="#404040"><set attributeName="fill" to="#808080" begin="zoomplus.mouseover" end="zoomplus.mouseout"/></use>
    <path d="M-4,0h8M0,-4v8" fill="none" stroke="white" stroke-width="1.5" pointer-events="none"/>
  </g>
  <g id="zoomMin">
    <use xlink:href="#rim" fill="#404040"><set attributeName="fill" to="#808080" begin="zoomminus.mouseover" end="zoomminus.mouseout"/></use>
    <path d="M-4,0h8" fill="none" stroke="white" stroke-width="1.5" pointer-events="none"/>
  </g>
  <g id="arrowUp" transform="translate(30 24)">
    <use xlink:href="#rim"/>
    <path pointer-events="none" fill="none" stroke="white" stroke-width="1.5" d="M0,-3.0v7 M-2.5,-0.5L0,-3.0L2.5,-0.5"/>
  </g>
  <g id="arrowRight" transform="rotate(90) translate(36 -43)">
    <use xlink:href="#rim"/>
    <path pointer-events="none" fill="none" stroke="white" stroke-width="1.5" d="M0,-3.0v7 M-2.5,-0.5L0,-3.0L2.5,-0.5"/>
  </g>
  <g id="arrowDown" transform="rotate(180) translate(-30 -48)">
    <use xlink:href="#rim"/>
    <path pointer-events="none" fill="none" stroke="white" stroke-width="1.5" d="M0,-3.0v7 M-2.5,-0.5L0,-3.0L2.5,-0.5"/>
  </g>
  <g id="arrowLeft" transform="rotate(270) translate(-36 17)">
    <use xlink:href="#rim"/>
    <path pointer-events="none" fill="none" stroke="white" stroke-width="1.5" d="M0,-3.0v7 M-2.5,-0.5L0,-3.0L2.5,-0.5"/>
  </g>
  <g id="resetDef">
    <use xlink:href="#rim2" fill="#404040"><set attributeName="fill" to="#808080" begin="reset.mouseover" end="reset.mouseout"/></use>
  </g>
</defs>
<script type="application/ecmascript">
var viewWidth = 1184;
var viewHeight = 248;
var sectionId = 'dynsection-0';
</script>
<script type="application/ecmascript" xlink:href="../../svg.min.js"/>
<svg id="graph" class="graph">
<g id="viewport">
<title>mimic++/Printer.hpp</title>
<!-- Node1 -->
<g id="Node000001" class="node">
<title>Node1</title>
<g id="a_Node000001"><a xlink:title=" ">
<polygon fill="#999999" stroke="#666666" points="726.05,-240.25 622.3,-240.25 622.3,-221 726.05,-221 726.05,-240.25"/>
<text text-anchor="middle" x="674.18" y="-226.75" font-family="Helvetica,sans-Serif" font-size="10.00">mimic++/Printer.hpp</text>
</a>
</g>
</g>
<!-- Node2 -->
<g id="Node000002" class="node">
<title>Node2</title>
<g id="a_Node000002"><a xlink:href="../../df/dde/_fwd_8hpp.html" target="_top" xlink:title=" ">
<polygon fill="white" stroke="#666666" points="472.18,-74.5 378.18,-74.5 378.18,-55.25 472.18,-55.25 472.18,-74.5"/>
<text text-anchor="middle" x="425.18" y="-61" font-family="Helvetica,sans-Serif" font-size="10.00">mimic++/Fwd.hpp</text>
</a>
</g>
</g>
<!-- Node1&#45;&gt;Node2 -->
<g id="edge1_Node000001_Node000002" class="edge">
<title>Node1&#45;&gt;Node2</title>
<g id="a_edge1_Node000001_Node000002"><a xlink:title=" ">
<path fill="none" stroke="#63b8ff" d="M621.88,-230.55C550.37,-230.18 419.1,-223.58 315.18,-185 273.64,-169.58 253.1,-168.81 232.18,-129.75 228.14,-122.21 226.85,-117.2 232.18,-110.5 248.8,-89.6 316.25,-77.64 366.76,-71.46"/>
<polygon fill="#63b8ff" stroke="#63b8ff" points="366.87,-74.97 376.4,-70.33 366.06,-68.02 366.87,-74.97"/>
</a>
</g>
</g>
<!-- Node3 -->
<g id="Node000003" class="node">
<title>Node3</title>
<g id="a_Node000003"><a xlink:title=" ">
<polygon fill="#e0e0e0" stroke="#999999" points="520.18,-19.25 480.18,-19.25 480.18,0 520.18,0 520.18,-19.25"/>
<text text-anchor="middle" x="500.18" y="-5.75" font-family="Helvetica,sans-Serif" font-size="10.00">string</text>
</a>
</g>
</g>
<!-- Node1&#45;&gt;Node3 -->
<g id="edge35_Node000001_Node000003" class="edge">
<title>Node1&#45;&gt;Node3</title>
<g id="a_edge35_Node000001_Node000003"><a xlink:title=" ">
<path fill="none" stroke="#63b8ff" d="M720.1,-220.52C787.27,-205.01 900.31,-169.3 861.18,-110.5 824.08,-54.76 613.08,-24.07 531.95,-14.2"/>
<polygon fill="#63b8ff" stroke="#63b8ff" points="532.37,-10.72 522.03,-13.02 531.55,-17.67 532.37,-10.72"/>
</a>
</g>
</g>
<!-- Node4 -->
<g id="Node000004" class="node">
<title>Node4</title>
<g id="a_Node000004"><a xlink:title=" ">
<polygon fill="#e0e0e0" stroke="#999999" points="275.93,-19.25 210.43,-19.25 210.43,0 275.93,0 275.93,-19.25"/>
<text text-anchor="middle" x="243.18" y="-5.75" font-family="Helvetica,sans-Serif" font-size="10.00">string_view</text>
</a>
</g>
</g>
<!-- Node1&#45;&gt;Node4 -->
<g id="edge36_Node000001_Node000004" class="edge">
<title>Node1&#45;&gt;Node4</title>
<g id="a_edge36_Node000001_Node000004"><a xlink:title=" ">
<path fill="none" stroke="#63b8ff" d="M622.26,-227.75C491.39,-222.72 155.23,-207.73 110.18,-185 46.13,-152.69 -31.44,-110.61 14.18,-55.25 37.12,-27.41 139,-16.71 198.87,-12.77"/>
<polygon fill="#63b8ff" stroke="#63b8ff" points="198.97,-16.27 208.73,-12.17 198.54,-9.29 198.97,-16.27"/>
</a>
</g>
</g>
<!-- Node5 -->
<g id="Node000005" class="node">
<title>Node5</title>
<g id="a_Node000005"><a xlink:href="../../d9/dc5/_string_8hpp.html" target="_top" xlink:title=" ">
<polygon fill="white" stroke="#666666" points="479.55,-185 378.8,-185 378.8,-165.75 479.55,-165.75 479.55,-185"/>
<text text-anchor="middle" x="429.18" y="-171.5" font-family="Helvetica,sans-Serif" font-size="10.00">mimic++/String.hpp</text>
</a>
</g>
</g>
<!-- Node1&#45;&gt;Node5 -->
<g id="edge4_Node000001_Node000005" class="edge">
<title>Node1&#45;&gt;Node5</title>
<g id="a_edge4_Node000001_Node000005"><a xlink:title=" ">
<path fill="none" stroke="#63b8ff" d="M632.34,-220.53C590.76,-211.49 526.87,-197.61 481.86,-187.82"/>
<polygon fill="#63b8ff" stroke="#63b8ff" points="482.84,-184.46 472.32,-185.75 481.35,-191.3 482.84,-184.46"/>
</a>
</g>
</g>
<!-- Node6 -->
<g id="Node000006" class="node">
<title>Node6</title>
<g id="a_Node000006"><a xlink:href="../../d4/d2c/_utility_8hpp.html" target="_top" xlink:title=" ">
<polygon fill="white" stroke="#666666" points="185.18,-129.75 85.18,-129.75 85.18,-110.5 185.18,-110.5 185.18,-129.75"/>
<text text-anchor="middle" x="135.18" y="-116.25" font-family="Helvetica,sans-Serif" font-size="10.00">mimic++/Utility.hpp</text>
</a>
</g>
</g>
<!-- Node1&#45;&gt;Node6 -->
<g id="edge27_Node000001_Node000006" class="edge">
<title>Node1&#45;&gt;Node6</title>
<g id="a_edge27_Node000001_Node000006"><a xlink:title=" ">
<path fill="none" stroke="#63b8ff" d="M621.89,-229.13C514.5,-227.41 273.03,-219.68 199.18,-185 177.5,-174.82 158.93,-154.08 147.46,-138.99"/>
<polygon fill="#63b8ff" stroke="#63b8ff" points="150.58,-137.33 141.88,-131.28 144.91,-141.43 150.58,-137.33"/>
</a>
</g>
</g>
<!-- Node9 -->
<g id="Node000009" class="node">
<title>Node9</title>
<g id="a_Node000009"><a xlink:title=" ">
<polygon fill="#e0e0e0" stroke="#999999" points="107.3,-74.5 23.05,-74.5 23.05,-55.25 107.3,-55.25 107.3,-74.5"/>
<text text-anchor="middle" x="65.18" y="-61" font-family="Helvetica,sans-Serif" font-size="10.00">source_location</text>
</a>
</g>
</g>
<!-- Node1&#45;&gt;Node9 -->
<g id="edge33_Node000001_Node000009" class="edge">
<title>Node1&#45;&gt;Node9</title>
<g id="a_edge33_Node000001_Node000009"><a xlink:title=" ">
<path fill="none" stroke="#63b8ff" d="M622.2,-227.96C510.8,-223.91 252.42,-211.86 169.18,-185 123.43,-170.24 103.43,-169.36 76.18,-129.75 67.38,-116.96 64.87,-99.41 64.43,-85.95"/>
<polygon fill="#63b8ff" stroke="#63b8ff" points="67.93,-86.11 64.49,-76.09 60.93,-86.06 67.93,-86.11"/>
</a>
</g>
</g>
<!-- Node11 -->
<g id="Node000011" class="node">
<title>Node11</title>
<g id="a_Node000011"><a xlink:title=" ">
<polygon fill="#e0e0e0" stroke="#999999" points="720.43,-74.5 681.93,-74.5 681.93,-55.25 720.43,-55.25 720.43,-74.5"/>
<text text-anchor="middle" x="701.18" y="-61" font-family="Helvetica,sans-Serif" font-size="10.00">utility</text>
</a>
</g>
</g>
<!-- Node1&#45;&gt;Node11 -->
<g id="edge37_Node000001_Node000011" class="edge">
<title>Node1&#45;&gt;Node11</title>
<g id="a_edge37_Node000001_Node000011"><a xlink:title=" ">
<path fill="none" stroke="#63b8ff" d="M711.61,-220.58C753.51,-208.15 818.97,-181.22 845.18,-129.75 868.4,-84.16 780.79,-71.09 731.92,-67.36"/>
<polygon fill="#63b8ff" stroke="#63b8ff" points="732.43,-63.88 722.22,-66.71 731.97,-70.87 732.43,-63.88"/>
</a>
</g>
</g>
<!-- Node13 -->
<g id="Node000013" class="node">
<title>Node13</title>
<g id="a_Node000013"><a xlink:title=" ">
<polygon fill="#e0e0e0" stroke="#999999" points="299.18,-129.75 241.18,-129.75 241.18,-110.5 299.18,-110.5 299.18,-129.75"/>
<text text-anchor="middle" x="270.18" y="-116.25" font-family="Helvetica,sans-Serif" font-size="10.00">functional</text>
</a>
</g>
</g>
<!-- Node1&#45;&gt;Node13 -->
<g id="edge29_Node000001_Node000013" class="edge">
<title>Node1&#45;&gt;Node13</title>
<g id="a_edge29_Node000001_Node000013"><a xlink:title=" ">
<path fill="none" stroke="#63b8ff" d="M621.81,-225.81C542.97,-219.49 397.92,-205.49 350.18,-185 324.78,-174.1 300.73,-152.88 285.75,-137.89"/>
<polygon fill="#63b8ff" stroke="#63b8ff" points="288.56,-135.76 279.09,-131.01 283.52,-140.63 288.56,-135.76"/>
</a>
</g>
</g>
<!-- Node14 -->
<g id="Node000014" class="node">
<title>Node14</title>
<g id="a_Node000014"><a xlink:title=" ">
<polygon fill="#e0e0e0" stroke="#999999" points="362.8,-129.75 317.55,-129.75 317.55,-110.5 362.8,-110.5 362.8,-129.75"/>
<text text-anchor="middle" x="340.18" y="-116.25" font-family="Helvetica,sans-Serif" font-size="10.00">ranges</text>
</a>
</g>
</g>
<!-- Node1&#45;&gt;Node14 -->
<g id="edge32_Node000001_Node000014" class="edge">
<title>Node1&#45;&gt;Node14</title>
<g id="a_edge32_Node000001_Node000014"><a xlink:title=" ">
<path fill="none" stroke="#63b8ff" d="M622.12,-227.83C545.99,-224.26 409.1,-213.9 370.18,-185 355.89,-174.39 348.15,-155.24 344.14,-140.67"/>
<polygon fill="#63b8ff" stroke="#63b8ff" points="347.62,-140.2 341.93,-131.27 340.81,-141.8 347.62,-140.2"/>
</a>
</g>
</g>
<!-- Node16 -->
<g id="Node000016" class="node">
<title>Node16</title>
<g id="a_Node000016"><a xlink:href="../../d8/d32/_type_traits_8hpp.html" target="_top" xlink:title=" ">
<polygon fill="white" stroke="#666666" points="734.68,-185 613.68,-185 613.68,-165.75 734.68,-165.75 734.68,-185"/>
<text text-anchor="middle" x="674.18" y="-171.5" font-family="Helvetica,sans-Serif" font-size="10.00">mimic++/TypeTraits.hpp</text>
</a>
</g>
</g>
<!-- Node1&#45;&gt;Node16 -->
<g id="edge20_Node000001_Node000016" class="edge">
<title>Node1&#45;&gt;Node16</title>
<g id="a_edge20_Node000001_Node000016"><a xlink:title=" ">
<path fill="none" stroke="#63b8ff" d="M674.18,-220.83C674.18,-214.32 674.18,-205.17 674.18,-196.87"/>
<polygon fill="#63b8ff" stroke="#63b8ff" points="677.68,-196.87 674.18,-186.87 670.68,-196.87 677.68,-196.87"/>
</a>
</g>
</g>
<!-- Node18 -->
<g id="Node000018" class="node">
<title>Node18</title>
<g id="a_Node000018"><a xlink:title=" ">
<polygon fill="#e0e0e0" stroke="#999999" points="835.8,-129.75 790.55,-129.75 790.55,-110.5 835.8,-110.5 835.8,-129.75"/>
<text text-anchor="middle" x="813.18" y="-116.25" font-family="Helvetica,sans-Serif" font-size="10.00">cstdint</text>
</a>
</g>
</g>
<!-- Node1&#45;&gt;Node18 -->
<g id="edge28_Node000001_Node000018" class="edge">
<title>Node1&#45;&gt;Node18</title>
<g id="a_edge28_Node000001_Node000018"><a xlink:title=" ">
<path fill="none" stroke="#63b8ff" d="M690.01,-220.64C704.56,-212.13 726.49,-198.65 744.18,-185 763.26,-170.28 783.29,-151.29 796.82,-137.85"/>
<polygon fill="#63b8ff" stroke="#63b8ff" points="799.06,-140.56 803.63,-131 794.1,-135.62 799.06,-140.56"/>
</a>
</g>
</g>
<!-- Node19 -->
<g id="Node000019" class="node">
<title>Node19</title>
<g id="a_Node000019"><a xlink:title=" ">
<polygon fill="#e0e0e0" stroke="#999999" points="976.18,-185 930.18,-185 930.18,-165.75 976.18,-165.75 976.18,-185"/>
<text text-anchor="middle" x="953.18" y="-171.5" font-family="Helvetica,sans-Serif" font-size="10.00">iterator</text>
</a>
</g>
</g>
<!-- Node1&#45;&gt;Node19 -->
<g id="edge30_Node000001_Node000019" class="edge">
<title>Node1&#45;&gt;Node19</title>
<g id="a_edge30_Node000001_Node000019"><a xlink:title=" ">
<path fill="none" stroke="#63b8ff" d="M726.24,-220.75C775.35,-212.21 850.94,-198.61 916.18,-185 917,-184.83 917.84,-184.65 918.68,-184.47"/>
<polygon fill="#63b8ff" stroke="#63b8ff" points="919.25,-187.93 928.25,-182.34 917.73,-181.1 919.25,-187.93"/>
</a>
</g>
</g>
<!-- Node20 -->
<g id="Node000020" class="node">
<title>Node20</title>
<g id="a_Node000020"><a xlink:title=" ">
<polygon fill="#e0e0e0" stroke="#999999" points="1044.05,-185 994.3,-185 994.3,-165.75 1044.05,-165.75 1044.05,-185"/>
<text text-anchor="middle" x="1019.18" y="-171.5" font-family="Helvetica,sans-Serif" font-size="10.00">optional</text>
</a>
</g>
</g>
<!-- Node1&#45;&gt;Node20 -->
<g id="edge31_Node000001_Node000020" class="edge">
<title>Node1&#45;&gt;Node20</title>
<g id="a_edge31_Node000001_Node000020"><a xlink:title=" ">
<path fill="none" stroke="#63b8ff" d="M726.47,-223.84C786.2,-216.85 887.05,-203.89 982.94,-185.26"/>
<polygon fill="#63b8ff" stroke="#63b8ff" points="983.38,-188.74 992.51,-183.37 982.02,-181.87 983.38,-188.74"/>
</a>
</g>
</g>
<!-- Node21 -->
<g id="Node000021" class="node">
<title>Node21</title>
<g id="a_Node000021"><a xlink:title=" ">
<polygon fill="#e0e0e0" stroke="#999999" points="1113.8,-185 1062.55,-185 1062.55,-165.75 1113.8,-165.75 1113.8,-185"/>
<text text-anchor="middle" x="1088.18" y="-171.5" font-family="Helvetica,sans-Serif" font-size="10.00">sstream</text>
</a>
</g>
</g>
<!-- Node1&#45;&gt;Node21 -->
<g id="edge34_Node000001_Node000021" class="edge">
<title>Node1&#45;&gt;Node21</title>
<g id="a_edge34_Node000001_Node000021"><a xlink:title=" ">
<path fill="none" stroke="#63b8ff" d="M726.28,-225.56C797.48,-219.54 929.29,-206.79 1051.25,-185.13"/>
<polygon fill="#63b8ff" stroke="#63b8ff" points="1051.55,-188.63 1060.77,-183.41 1050.31,-181.74 1051.55,-188.63"/>
</a>
</g>
</g>
<!-- Node22 -->
<g id="Node000022" class="node">
<title>Node22</title>
<g id="a_Node000022"><a xlink:title=" ">
<polygon fill="#e0e0e0" stroke="#999999" points="1176.05,-185 1132.3,-185 1132.3,-165.75 1176.05,-165.75 1176.05,-185"/>
<text text-anchor="middle" x="1154.18" y="-171.5" font-family="Helvetica,sans-Serif" font-size="10.00">format</text>
</a>
</g>
</g>
<!-- Node1&#45;&gt;Node22 -->
<g id="edge38_Node000001_Node000022" class="edge">
<title>Node1&#45;&gt;Node22</title>
<g id="a_edge38_Node000001_Node000022"><a xlink:title=" ">
<path fill="none" stroke="#63b8ff" d="M726.45,-227.35C808.56,-223.15 972.85,-212.17 1120.86,-185.12"/>
<polygon fill="#63b8ff" stroke="#63b8ff" points="1121.26,-188.6 1130.45,-183.33 1119.98,-181.72 1121.26,-188.6"/>
</a>
</g>
</g>
<!-- Node2&#45;&gt;Node3 -->
<g id="edge2_Node000002_Node000003" class="edge">
<title>Node2&#45;&gt;Node3</title>
<g id="a_edge2_Node000002_Node000003"><a xlink:title=" ">
<path fill="none" stroke="#63b8ff" d="M437.9,-54.84C448.89,-47.04 465.02,-35.59 478.11,-26.29"/>
<polygon fill="#63b8ff" stroke="#63b8ff" points="480.03,-29.22 486.16,-20.58 475.98,-23.51 480.03,-29.22"/>
</a>
</g>
</g>
<!-- Node2&#45;&gt;Node4 -->
<g id="edge3_Node000002_Node000004" class="edge">
<title>Node2&#45;&gt;Node4</title>
<g id="a_edge3_Node000002_Node000004"><a xlink:title=" ">
<path fill="none" stroke="#63b8ff" d="M394.31,-54.84C364.24,-46.04 318.32,-32.61 284.99,-22.86"/>
<polygon fill="#63b8ff" stroke="#63b8ff" points="286.24,-19.58 275.66,-20.13 284.27,-26.29 286.24,-19.58"/>
</a>
</g>
</g>
<!-- Node5&#45;&gt;Node2 -->
<g id="edge5_Node000005_Node000002" class="edge">
<title>Node5&#45;&gt;Node2</title>
<g id="a_edge5_Node000005_Node000002"><a xlink:title=" ">
<path fill="none" stroke="#63b8ff" d="M428.85,-165.5C428.22,-148.25 426.8,-109.83 425.92,-86.06"/>
<polygon fill="#63b8ff" stroke="#63b8ff" points="429.43,-86.25 425.57,-76.39 422.44,-86.51 429.43,-86.25"/>
</a>
</g>
</g>
<!-- Node5&#45;&gt;Node3 -->
<g id="edge17_Node000005_Node000003" class="edge">
<title>Node5&#45;&gt;Node3</title>
<g id="a_edge17_Node000005_Node000003"><a xlink:title=" ">
<path fill="none" stroke="#63b8ff" d="M434.66,-165.29C444.89,-148.08 467.1,-109.29 481.18,-74.5 487.03,-60.03 491.99,-43.08 495.38,-30.27"/>
<polygon fill="#63b8ff" stroke="#63b8ff" points="498.68,-31.51 497.74,-20.95 491.89,-29.78 498.68,-31.51"/>
</a>
</g>
</g>
<!-- Node5&#45;&gt;Node4 -->
<g id="edge18_Node000005_Node000004" class="edge">
<title>Node5&#45;&gt;Node4</title>
<g id="a_edge18_Node000005_Node000004"><a xlink:title=" ">
<path fill="none" stroke="#63b8ff" d="M423.77,-165.54C410.36,-144.24 373.59,-89.26 331.18,-55.25 315.02,-42.29 294.5,-31.62 277.33,-23.97"/>
<polygon fill="#63b8ff" stroke="#63b8ff" points="279.11,-20.92 268.54,-20.19 276.35,-27.35 279.11,-20.92"/>
</a>
</g>
</g>
<!-- Node5&#45;&gt;Node6 -->
<g id="edge6_Node000005_Node000006" class="edge">
<title>Node5&#45;&gt;Node6</title>
<g id="a_edge6_Node000005_Node000006"><a xlink:title=" ">
<path fill="none" stroke="#63b8ff" d="M378.97,-165.28C328.45,-156.13 250.45,-142 196.34,-132.2"/>
<polygon fill="#63b8ff" stroke="#63b8ff" points="197.13,-128.79 186.67,-130.45 195.88,-135.68 197.13,-128.79"/>
</a>
</g>
</g>
<!-- Node12 -->
<g id="Node000012" class="node">
<title>Node12</title>
<g id="a_Node000012"><a xlink:title=" ">
<polygon fill="#e0e0e0" stroke="#999999" points="630.05,-129.75 574.3,-129.75 574.3,-110.5 630.05,-110.5 630.05,-129.75"/>
<text text-anchor="middle" x="602.18" y="-116.25" font-family="Helvetica,sans-Serif" font-size="10.00">concepts</text>
</a>
</g>
</g>
<!-- Node5&#45;&gt;Node12 -->
<g id="edge14_Node000005_Node000012" class="edge">
<title>Node5&#45;&gt;Node12</title>
<g id="a_edge14_Node000005_Node000012"><a xlink:title=" ">
<path fill="none" stroke="#63b8ff" d="M458.53,-165.34C487.33,-156.48 531.43,-142.9 563.17,-133.13"/>
<polygon fill="#63b8ff" stroke="#63b8ff" points="563.86,-136.58 572.39,-130.29 561.81,-129.89 563.86,-136.58"/>
</a>
</g>
</g>
<!-- Node5&#45;&gt;Node13 -->
<g id="edge15_Node000005_Node000013" class="edge">
<title>Node5&#45;&gt;Node13</title>
<g id="a_edge15_Node000005_Node000013"><a xlink:title=" ">
<path fill="none" stroke="#63b8ff" d="M402.21,-165.34C376.28,-156.66 336.87,-143.46 307.85,-133.74"/>
<polygon fill="#63b8ff" stroke="#63b8ff" points="309.31,-130.54 298.72,-130.68 307.09,-137.18 309.31,-130.54"/>
</a>
</g>
</g>
<!-- Node5&#45;&gt;Node14 -->
<g id="edge16_Node000005_Node000014" class="edge">
<title>Node5&#45;&gt;Node14</title>
<g id="a_edge16_Node000005_Node000014"><a xlink:title=" ">
<path fill="none" stroke="#63b8ff" d="M414.08,-165.34C400.66,-157.31 380.77,-145.41 365.01,-135.98"/>
<polygon fill="#63b8ff" stroke="#63b8ff" points="367.03,-133.11 356.65,-130.98 363.43,-139.12 367.03,-133.11"/>
</a>
</g>
</g>
<!-- Node15 -->
<g id="Node000015" class="node">
<title>Node15</title>
<g id="a_Node000015"><a xlink:title=" ">
<polygon fill="#e0e0e0" stroke="#999999" points="556.68,-129.75 495.68,-129.75 495.68,-110.5 556.68,-110.5 556.68,-129.75"/>
<text text-anchor="middle" x="526.18" y="-116.25" font-family="Helvetica,sans-Serif" font-size="10.00">type_traits</text>
</a>
</g>
</g>
<!-- Node5&#45;&gt;Node15 -->
<g id="edge19_Node000005_Node000015" class="edge">
<title>Node5&#45;&gt;Node15</title>
<g id="a_edge19_Node000005_Node000015"><a xlink:title=" ">
<path fill="none" stroke="#63b8ff" d="M445.63,-165.34C460.41,-157.23 482.36,-145.18 499.61,-135.71"/>
<polygon fill="#63b8ff" stroke="#63b8ff" points="501.24,-138.81 508.32,-130.93 497.87,-132.68 501.24,-138.81"/>
</a>
</g>
</g>
<!-- Node6&#45;&gt;Node2 -->
<g id="edge7_Node000006_Node000002" class="edge">
<title>Node6&#45;&gt;Node2</title>
<g id="a_edge7_Node000006_Node000002"><a xlink:title=" ">
<path fill="none" stroke="#63b8ff" d="M184.7,-110.03C235.15,-100.77 313.34,-86.41 366.78,-76.6"/>
<polygon fill="#63b8ff" stroke="#63b8ff" points="367.09,-80.1 376.3,-74.85 365.83,-73.21 367.09,-80.1"/>
</a>
</g>
</g>
<!-- Node6&#45;&gt;Node4 -->
<g id="edge11_Node000006_Node000004" class="edge">
<title>Node6&#45;&gt;Node4</title>
<g id="a_edge11_Node000006_Node000004"><a xlink:title=" ">
<path fill="none" stroke="#63b8ff" d="M135.63,-110.24C136.76,-96.86 140.65,-71.39 154.18,-55.25 166.11,-41.01 183.71,-30.87 200.11,-23.88"/>
<polygon fill="#63b8ff" stroke="#63b8ff" points="201.21,-27.21 209.24,-20.29 198.65,-20.7 201.21,-27.21"/>
</a>
</g>
</g>
<!-- Node7 -->
<g id="Node000007" class="node">
<title>Node7</title>
<g id="a_Node000007"><a xlink:title=" ">
<polygon fill="#e0e0e0" stroke="#999999" points="266.68,-74.5 229.68,-74.5 229.68,-55.25 266.68,-55.25 266.68,-74.5"/>
<text text-anchor="middle" x="248.18" y="-61" font-family="Helvetica,sans-Serif" font-size="10.00">array</text>
</a>
</g>
</g>
<!-- Node6&#45;&gt;Node7 -->
<g id="edge8_Node000006_Node000007" class="edge">
<title>Node6&#45;&gt;Node7</title>
<g id="a_edge8_Node000006_Node000007"><a xlink:title=" ">
<path fill="none" stroke="#63b8ff" d="M154.35,-110.09C172.07,-101.74 198.66,-89.21 219.01,-79.62"/>
<polygon fill="#63b8ff" stroke="#63b8ff" points="220.37,-82.85 227.92,-75.42 217.39,-76.52 220.37,-82.85"/>
</a>
</g>
</g>
<!-- Node8 -->
<g id="Node000008" class="node">
<title>Node8</title>
<g id="a_Node000008"><a xlink:title=" ">
<polygon fill="#e0e0e0" stroke="#999999" points="211.3,-74.5 163.05,-74.5 163.05,-55.25 211.3,-55.25 211.3,-74.5"/>
<text text-anchor="middle" x="187.18" y="-61" font-family="Helvetica,sans-Serif" font-size="10.00">cassert</text>
</a>
</g>
</g>
<!-- Node6&#45;&gt;Node8 -->
<g id="edge9_Node000006_Node000008" class="edge">
<title>Node6&#45;&gt;Node8</title>
<g id="a_edge9_Node000006_Node000008"><a xlink:title=" ">
<path fill="none" stroke="#63b8ff" d="M143.77,-110.33C151.02,-102.9 161.63,-92.04 170.55,-82.91"/>
<polygon fill="#63b8ff" stroke="#63b8ff" points="172.87,-85.54 177.35,-75.94 167.86,-80.65 172.87,-85.54"/>
</a>
</g>
</g>
<!-- Node6&#45;&gt;Node9 -->
<g id="edge10_Node000006_Node000009" class="edge">
<title>Node6&#45;&gt;Node9</title>
<g id="a_edge10_Node000006_Node000009"><a xlink:title=" ">
<path fill="none" stroke="#63b8ff" d="M123.31,-110.09C113.09,-102.32 98.11,-90.92 85.92,-81.65"/>
<polygon fill="#63b8ff" stroke="#63b8ff" points="88.16,-78.96 78.08,-75.69 83.92,-84.53 88.16,-78.96"/>
</a>
</g>
</g>
<!-- Node10 -->
<g id="Node000010" class="node">
<title>Node10</title>
<g id="a_Node000010"><a xlink:title=" ">
<polygon fill="#e0e0e0" stroke="#999999" points="321.68,-74.5 284.68,-74.5 284.68,-55.25 321.68,-55.25 321.68,-74.5"/>
<text text-anchor="middle" x="303.18" y="-61" font-family="Helvetica,sans-Serif" font-size="10.00">tuple</text>
</a>
</g>
</g>
<!-- Node6&#45;&gt;Node10 -->
<g id="edge12_Node000006_Node000010" class="edge">
<title>Node6&#45;&gt;Node10</title>
<g id="a_edge12_Node000006_Node000010"><a xlink:title=" ">
<path fill="none" stroke="#63b8ff" d="M164.08,-110C190.36,-101.7 230.49,-89.01 273.35,-75.39"/>
<polygon fill="#63b8ff" stroke="#63b8ff" points="274.39,-78.74 282.86,-72.37 272.27,-72.07 274.39,-78.74"/>
</a>
</g>
</g>
<!-- Node6&#45;&gt;Node11 -->
<g id="edge13_Node000006_Node000011" class="edge">
<title>Node6&#45;&gt;Node11</title>
<g id="a_edge13_Node000006_Node000011"><a xlink:title=" ">
<path fill="none" stroke="#63b8ff" d="M185.66,-114.38C300.27,-103.59 577.39,-77.52 670.26,-68.78"/>
<polygon fill="#63b8ff" stroke="#63b8ff" points="670.49,-72.28 680.11,-67.86 669.83,-65.31 670.49,-72.28"/>
</a>
</g>
</g>
<!-- Node16&#45;&gt;Node2 -->
<g id="edge21_Node000016_Node000002" class="edge">
<title>Node16&#45;&gt;Node2</title>
<g id="a_edge21_Node000016_Node000002"><a xlink:title=" ">
<path fill="none" stroke="#63b8ff" d="M677.08,-165.28C680.81,-151.62 685.37,-125.79 672.18,-110.5 648.25,-82.76 549.19,-72.21 484.02,-68.23"/>
<polygon fill="#63b8ff" stroke="#63b8ff" points="484.37,-64.75 474.18,-67.67 483.97,-71.73 484.37,-64.75"/>
</a>
</g>
</g>
<!-- Node16&#45;&gt;Node10 -->
<g id="edge25_Node000016_Node000010" class="edge">
<title>Node16&#45;&gt;Node10</title>
<g id="a_edge25_Node000016_Node000010"><a xlink:title=" ">
<path fill="none" stroke="#63b8ff" d="M672.11,-165.64C668.27,-151.49 658.58,-123.8 639.18,-110.5 638.39,-109.96 415.96,-80.69 333.48,-69.85"/>
<polygon fill="#63b8ff" stroke="#63b8ff" points="334.03,-66.4 323.66,-68.56 333.11,-73.34 334.03,-66.4"/>
</a>
</g>
</g>
<!-- Node16&#45;&gt;Node12 -->
<g id="edge22_Node000016_Node000012" class="edge">
<title>Node16&#45;&gt;Node12</title>
<g id="a_edge22_Node000016_Node000012"><a xlink:title=" ">
<path fill="none" stroke="#63b8ff" d="M661.97,-165.34C651.35,-157.49 635.74,-145.95 623.14,-136.62"/>
<polygon fill="#63b8ff" stroke="#63b8ff" points="625.55,-134.06 615.43,-130.92 621.39,-139.69 625.55,-134.06"/>
</a>
</g>
</g>
<!-- Node16&#45;&gt;Node15 -->
<g id="edge26_Node000016_Node000015" class="edge">
<title>Node16&#45;&gt;Node15</title>
<g id="a_edge26_Node000016_Node000015"><a xlink:title=" ">
<path fill="none" stroke="#63b8ff" d="M649.07,-165.34C625.15,-156.74 588.9,-143.69 561.96,-134"/>
<polygon fill="#63b8ff" stroke="#63b8ff" points="563.43,-130.81 552.83,-130.71 561.06,-137.39 563.43,-130.81"/>
</a>
</g>
</g>
<!-- Node17 -->
<g id="Node000017" class="node">
<title>Node17</title>
<g id="a_Node000017"><a xlink:title=" ">
<polygon fill="#e0e0e0" stroke="#999999" points="772.3,-129.75 724.05,-129.75 724.05,-110.5 772.3,-110.5 772.3,-129.75"/>
<text text-anchor="middle" x="748.18" y="-116.25" font-family="Helvetica,sans-Serif" font-size="10.00">cstddef</text>
</a>
</g>
</g>
<!-- Node16&#45;&gt;Node17 -->
<g id="edge23_Node000016_Node000017" class="edge">
<title>Node16&#45;&gt;Node17</title>
<g id="a_edge23_Node000016_Node000017"><a xlink:title=" ">
<path fill="none" stroke="#63b8ff" d="M686.73,-165.34C697.64,-157.49 713.68,-145.95 726.64,-136.62"/>
<polygon fill="#63b8ff" stroke="#63b8ff" points="728.51,-139.59 734.58,-130.91 724.42,-133.91 728.51,-139.59"/>
</a>
</g>
</g>
<!-- Node16&#45;&gt;Node18 -->
<g id="edge24_Node000016_Node000018" class="edge">
<title>Node16&#45;&gt;Node18</title>
<g id="a_edge24_Node000016_Node000018"><a xlink:title=" ">
<path fill="none" stroke="#63b8ff" d="M697.76,-165.34C720.29,-156.71 754.49,-143.61 779.81,-133.91"/>
<polygon fill="#63b8ff" stroke="#63b8ff" points="780.91,-137.24 789,-130.39 778.41,-130.7 780.91,-137.24"/>
</a>
</g>
</g>
</g>
</svg>

<g id="navigator" transform="translate(0 0)" fill="#404254">
  <rect fill="#f2f5e9" fill-opacity="0.5" stroke="#606060" stroke-width=".5" x="0" y="0" width="60" height="60"/>
  <use id="zoomplus" xlink:href="#zoomPlus" x="17" y="9" onmousedown="handleZoom(evt,'in')"/>
  <use id="zoomminus" xlink:href="#zoomMin" x="42" y="9" onmousedown="handleZoom(evt,'out')"/>
  <use id="reset" xlink:href="#resetDef" x="30" y="36" onmousedown="handleReset()"/>
   <use id="arrowup" xlink:href="#arrowUp" x="0" y="0" onmousedown="handlePan(0,-1)"/>
  <use id="arrowright" xlink:href="#arrowRight" x="0" y="0" onmousedown="handlePan(1,0)"/>
  <use id="arrowdown" xlink:href="#arrowDown" x="0" y="0" onmousedown="handlePan(0,1)"/>
  <use id="arrowleft" xlink:href="#arrowLeft" x="0" y="0" onmousedown="handlePan(-1,0)"/>
</g>
<svg viewBox="0 0 15 15" width="100%" height="30px" preserveAspectRatio="xMaxYMin meet">
 <g id="arrow_out" transform="scale(0.3 0.3)">
  <a xlink:href="_printer_8hpp__incl_org.svg" target="_base">
   <rect id="button" ry="5" rx="5" y="6" x="6" height="38" width="38"
        fill="#f2f5e9" fill-opacity="0.5" stroke="#606060" stroke-width="1.0"/>
   <path id="arrow"
     d="M 11.500037,31.436501 C 11.940474,20.09759 22.043105,11.32322 32.158766,21.979434 L 37.068811,17.246167 C 37.068811,17.246167 37.088388,32 37.088388,32 L 22.160133,31.978069 C 22.160133,31.978069 26.997745,27.140456 26.997745,27.140456 C 18.528582,18.264221 13.291696,25.230495 11.500037,31.436501 z"
     style="fill:#404040;"/>
  </a>
 </g>
</svg>

<style type='text/css'>
<![CDATA[
[data-mouse-over-selected='false'] { opacity: 0.7; }
[data-mouse-over-selected='true']  { opacity: 1.0; }
]]>
</style>
<script type="application/ecmascript"><![CDATA[
document.addEventListener('DOMContentLoaded', (event) => {
  highlightEdges();
  highlightAdjacentNodes();
});
]]></script>
</svg>
