<?xml version="1.0" encoding="UTF-8" standalone="no"?>
<!DOCTYPE svg PUBLIC "-//W3C//DTD SVG 1.1//EN"
 "http://www.w3.org/Graphics/SVG/1.1/DTD/svg11.dtd">
<!-- Generated by graphviz version 12.1.1 (20240910.0053)
 -->
<!-- Title: mimic++/Printer.hpp Pages: 1 -->
<svg width="612pt" height="138pt"
 viewBox="0.00 0.00 611.62 137.75" xmlns="http://www.w3.org/2000/svg" xmlns:xlink="http://www.w3.org/1999/xlink">
<g id="graph0" class="graph" transform="scale(1 1) rotate(0) translate(4 133.75)">
<title>mimic++/Printer.hpp</title>
<!-- Node1 -->
<g id="Node000001" class="node">
<title>Node1</title>
<g id="a_Node000001"><a xlink:title=" ">
<polygon fill="#999999" stroke="#666666" points="321.25,-129.75 217.5,-129.75 217.5,-110.5 321.25,-110.5 321.25,-129.75"/>
<text text-anchor="middle" x="269.38" y="-116.25" font-family="Helvetica,sans-Serif" font-size="10.00">mimic++/Printer.hpp</text>
</a>
</g>
</g>
<!-- Node2 -->
<g id="Node000002" class="node">
<title>Node2</title>
<g id="a_Node000002"><a xlink:href="../../df/dde/_fwd_8hpp.html" target="_top" xlink:title=" ">
<polygon fill="white" stroke="#666666" points="52.75,-74.5 0,-74.5 0,-55.25 52.75,-55.25 52.75,-74.5"/>
<text text-anchor="middle" x="26.38" y="-61" font-family="Helvetica,sans-Serif" font-size="10.00">Fwd.hpp</text>
</a>
</g>
</g>
<!-- Node1&#45;&gt;Node2 -->
<g id="edge1_Node000001_Node000002" class="edge">
<title>Node1&#45;&gt;Node2</title>
<g id="a_edge1_Node000001_Node000002"><a xlink:title=" ">
<path fill="none" stroke="#63b8ff" d="M227.88,-110.03C181.96,-99.97 108.6,-83.89 64.21,-74.17"/>
<polygon fill="#63b8ff" stroke="#63b8ff" points="65.04,-70.77 54.52,-72.04 63.54,-77.6 65.04,-70.77"/>
</a>
</g>
</g>
<!-- Node3 -->
<g id="Node000003" class="node">
<title>Node3</title>
<g id="a_Node000003"><a xlink:title=" ">
<polygon fill="#e0e0e0" stroke="#999999" points="73.38,-19.25 33.38,-19.25 33.38,0 73.38,0 73.38,-19.25"/>
<text text-anchor="middle" x="53.38" y="-5.75" font-family="Helvetica,sans-Serif" font-size="10.00">string</text>
</a>
</g>
</g>
<!-- Node1&#45;&gt;Node3 -->
<g id="edge8_Node000001_Node000003" class="edge">
<title>Node1&#45;&gt;Node3</title>
<g id="a_edge8_Node000001_Node000003"><a xlink:title=" ">
<path fill="none" stroke="#63b8ff" d="M217.22,-114.73C181.45,-109.6 134.34,-98.51 99.38,-74.5 82.86,-63.16 70.17,-43.85 62.34,-29.43"/>
<polygon fill="#63b8ff" stroke="#63b8ff" points="65.67,-28.24 58.01,-20.91 59.43,-31.41 65.67,-28.24"/>
</a>
</g>
</g>
<!-- Node4 -->
<g id="Node000004" class="node">
<title>Node4</title>
<g id="a_Node000004"><a xlink:title=" ">
<polygon fill="#e0e0e0" stroke="#999999" points="152.25,-74.5 108.5,-74.5 108.5,-55.25 152.25,-55.25 152.25,-74.5"/>
<text text-anchor="middle" x="130.38" y="-61" font-family="Helvetica,sans-Serif" font-size="10.00">format</text>
</a>
</g>
</g>
<!-- Node1&#45;&gt;Node4 -->
<g id="edge3_Node000001_Node000004" class="edge">
<title>Node1&#45;&gt;Node4</title>
<g id="a_edge3_Node000001_Node000004"><a xlink:title=" ">
<path fill="none" stroke="#63b8ff" d="M245.8,-110.09C223.13,-101.41 188.66,-88.2 163.29,-78.48"/>
<polygon fill="#63b8ff" stroke="#63b8ff" points="164.69,-75.27 154.1,-74.96 162.19,-81.81 164.69,-75.27"/>
</a>
</g>
</g>
<!-- Node5 -->
<g id="Node000005" class="node">
<title>Node5</title>
<g id="a_Node000005"><a xlink:title=" ">
<polygon fill="#e0e0e0" stroke="#999999" points="228.38,-74.5 170.38,-74.5 170.38,-55.25 228.38,-55.25 228.38,-74.5"/>
<text text-anchor="middle" x="199.38" y="-61" font-family="Helvetica,sans-Serif" font-size="10.00">functional</text>
</a>
</g>
</g>
<!-- Node1&#45;&gt;Node5 -->
<g id="edge4_Node000001_Node000005" class="edge">
<title>Node1&#45;&gt;Node5</title>
<g id="a_edge4_Node000001_Node000005"><a xlink:title=" ">
<path fill="none" stroke="#63b8ff" d="M257.5,-110.09C247.28,-102.32 232.3,-90.92 220.11,-81.65"/>
<polygon fill="#63b8ff" stroke="#63b8ff" points="222.36,-78.96 212.28,-75.69 218.12,-84.53 222.36,-78.96"/>
</a>
</g>
</g>
<!-- Node6 -->
<g id="Node000006" class="node">
<title>Node6</title>
<g id="a_Node000006"><a xlink:title=" ">
<polygon fill="#e0e0e0" stroke="#999999" points="292.38,-74.5 246.38,-74.5 246.38,-55.25 292.38,-55.25 292.38,-74.5"/>
<text text-anchor="middle" x="269.38" y="-61" font-family="Helvetica,sans-Serif" font-size="10.00">iterator</text>
</a>
</g>
</g>
<!-- Node1&#45;&gt;Node6 -->
<g id="edge5_Node000001_Node000006" class="edge">
<title>Node1&#45;&gt;Node6</title>
<g id="a_edge5_Node000001_Node000006"><a xlink:title=" ">
<path fill="none" stroke="#63b8ff" d="M269.38,-110.33C269.38,-103.82 269.38,-94.67 269.38,-86.37"/>
<polygon fill="#63b8ff" stroke="#63b8ff" points="272.88,-86.37 269.38,-76.37 265.88,-86.37 272.88,-86.37"/>
</a>
</g>
</g>
<!-- Node7 -->
<g id="Node000007" class="node">
<title>Node7</title>
<g id="a_Node000007"><a xlink:title=" ">
<polygon fill="#e0e0e0" stroke="#999999" points="394.5,-74.5 310.25,-74.5 310.25,-55.25 394.5,-55.25 394.5,-74.5"/>
<text text-anchor="middle" x="352.38" y="-61" font-family="Helvetica,sans-Serif" font-size="10.00">source_location</text>
</a>
</g>
</g>
<!-- Node1&#45;&gt;Node7 -->
<g id="edge6_Node000001_Node000007" class="edge">
<title>Node1&#45;&gt;Node7</title>
<g id="a_edge6_Node000001_Node000007"><a xlink:title=" ">
<path fill="none" stroke="#63b8ff" d="M283.45,-110.09C295.86,-102.14 314.17,-90.39 328.8,-81"/>
<polygon fill="#63b8ff" stroke="#63b8ff" points="330.43,-84.12 336.95,-75.77 326.65,-78.22 330.43,-84.12"/>
</a>
</g>
</g>
<!-- Node8 -->
<g id="Node000008" class="node">
<title>Node8</title>
<g id="a_Node000008"><a xlink:title=" ">
<polygon fill="#e0e0e0" stroke="#999999" points="464,-74.5 412.75,-74.5 412.75,-55.25 464,-55.25 464,-74.5"/>
<text text-anchor="middle" x="438.38" y="-61" font-family="Helvetica,sans-Serif" font-size="10.00">sstream</text>
</a>
</g>
</g>
<!-- Node1&#45;&gt;Node8 -->
<g id="edge7_Node000001_Node000008" class="edge">
<title>Node1&#45;&gt;Node8</title>
<g id="a_edge7_Node000001_Node000008"><a xlink:title=" ">
<path fill="none" stroke="#63b8ff" d="M298.04,-110.09C326.56,-101.11 370.43,-87.28 401.52,-77.49"/>
<polygon fill="#63b8ff" stroke="#63b8ff" points="402.42,-80.88 410.9,-74.53 400.31,-74.2 402.42,-80.88"/>
</a>
</g>
</g>
<!-- Node9 -->
<g id="Node000009" class="node">
<title>Node9</title>
<g id="a_Node000009"><a xlink:title=" ">
<polygon fill="#e0e0e0" stroke="#999999" points="547.12,-74.5 481.62,-74.5 481.62,-55.25 547.12,-55.25 547.12,-74.5"/>
<text text-anchor="middle" x="514.38" y="-61" font-family="Helvetica,sans-Serif" font-size="10.00">string_view</text>
</a>
</g>
</g>
<!-- Node1&#45;&gt;Node9 -->
<g id="edge9_Node000001_Node000009" class="edge">
<title>Node1&#45;&gt;Node9</title>
<g id="a_edge9_Node000001_Node000009"><a xlink:title=" ">
<path fill="none" stroke="#63b8ff" d="M311.21,-110.03C355.47,-100.41 425.01,-85.3 470.15,-75.49"/>
<polygon fill="#63b8ff" stroke="#63b8ff" points="470.84,-78.92 479.87,-73.37 469.35,-72.08 470.84,-78.92"/>
</a>
</g>
</g>
<!-- Node10 -->
<g id="Node000010" class="node">
<title>Node10</title>
<g id="a_Node000010"><a xlink:title=" ">
<polygon fill="#e0e0e0" stroke="#999999" points="603.62,-74.5 565.12,-74.5 565.12,-55.25 603.62,-55.25 603.62,-74.5"/>
<text text-anchor="middle" x="584.38" y="-61" font-family="Helvetica,sans-Serif" font-size="10.00">utility</text>
</a>
</g>
</g>
<!-- Node1&#45;&gt;Node10 -->
<g id="edge10_Node000001_Node000010" class="edge">
<title>Node1&#45;&gt;Node10</title>
<g id="a_edge10_Node000001_Node000010"><a xlink:title=" ">
<path fill="none" stroke="#63b8ff" d="M321.65,-113.3C377.14,-106.61 467.51,-94.25 553.84,-74.81"/>
<polygon fill="#63b8ff" stroke="#63b8ff" points="554.45,-78.26 563.42,-72.61 552.89,-71.43 554.45,-78.26"/>
</a>
</g>
</g>
<!-- Node2&#45;&gt;Node3 -->
<g id="edge2_Node000002_Node000003" class="edge">
<title>Node2&#45;&gt;Node3</title>
<g id="a_edge2_Node000002_Node000003"><a xlink:title=" ">
<path fill="none" stroke="#63b8ff" d="M30.83,-55.08C34.33,-48.19 39.32,-38.34 43.72,-29.66"/>
<polygon fill="#63b8ff" stroke="#63b8ff" points="46.73,-31.46 48.14,-20.96 40.49,-28.3 46.73,-31.46"/>
</a>
</g>
</g>
</g>
</svg>
