<?xml version="1.0" encoding="UTF-8" standalone="no"?>
<!DOCTYPE svg PUBLIC "-//W3C//DTD SVG 1.1//EN"
 "http://www.w3.org/Graphics/SVG/1.1/DTD/svg11.dtd">
<!-- Generated by graphviz version 12.1.2 (20240928.0832)
 -->
<!-- Title: mimic++/Printer.hpp Pages: 1 -->
<svg width="1123pt" height="248pt"
 viewBox="0.00 0.00 1122.78 248.25" xmlns="http://www.w3.org/2000/svg" xmlns:xlink="http://www.w3.org/1999/xlink">
<g id="graph0" class="graph" transform="scale(1 1) rotate(0) translate(4 244.25)">
<title>mimic++/Printer.hpp</title>
<!-- Node1 -->
<g id="Node000001" class="node">
<title>Node1</title>
<g id="a_Node000001"><a xlink:title=" ">
<polygon fill="#999999" stroke="#666666" points="765.78,-240.25 662.03,-240.25 662.03,-221 765.78,-221 765.78,-240.25"/>
<text text-anchor="middle" x="713.9" y="-226.75" font-family="Helvetica,sans-Serif" font-size="10.00">mimic++/Printer.hpp</text>
</a>
</g>
</g>
<!-- Node2 -->
<g id="Node000002" class="node">
<title>Node2</title>
<g id="a_Node000002"><a xlink:href="../../df/dde/_fwd_8hpp.html" target="_top" xlink:title=" ">
<polygon fill="white" stroke="#666666" points="295.9,-74.5 201.9,-74.5 201.9,-55.25 295.9,-55.25 295.9,-74.5"/>
<text text-anchor="middle" x="248.9" y="-61" font-family="Helvetica,sans-Serif" font-size="10.00">mimic++/Fwd.hpp</text>
</a>
</g>
</g>
<!-- Node1&#45;&gt;Node2 -->
<g id="edge1_Node000001_Node000002" class="edge">
<title>Node1&#45;&gt;Node2</title>
<g id="a_edge1_Node000001_Node000002"><a xlink:title=" ">
<path fill="none" stroke="#63b8ff" d="M661.95,-228.6C535.9,-225.65 216.72,-215.33 114.9,-185 66.24,-170.5 40.7,-173.48 14.9,-129.75 10.55,-122.38 9.45,-117.09 14.9,-110.5 36.74,-84.1 128.33,-73.18 190.24,-68.76"/>
<polygon fill="#63b8ff" stroke="#63b8ff" points="190.17,-72.27 199.92,-68.11 189.7,-65.29 190.17,-72.27"/>
</a>
</g>
</g>
<!-- Node3 -->
<g id="Node000003" class="node">
<title>Node3</title>
<g id="a_Node000003"><a xlink:title=" ">
<polygon fill="#e0e0e0" stroke="#999999" points="381.9,-19.25 341.9,-19.25 341.9,0 381.9,0 381.9,-19.25"/>
<text text-anchor="middle" x="361.9" y="-5.75" font-family="Helvetica,sans-Serif" font-size="10.00">string</text>
</a>
</g>
</g>
<!-- Node1&#45;&gt;Node3 -->
<g id="edge34_Node000001_Node000003" class="edge">
<title>Node1&#45;&gt;Node3</title>
<g id="a_edge34_Node000001_Node000003"><a xlink:title=" ">
<path fill="none" stroke="#63b8ff" d="M730.55,-220.54C743.77,-212.62 761.96,-200.05 773.9,-185 812.11,-136.83 863.23,-100.78 821.9,-55.25 793.14,-23.56 492.82,-13.7 393.55,-11.29"/>
<polygon fill="#63b8ff" stroke="#63b8ff" points="393.81,-7.79 383.73,-11.06 393.65,-14.79 393.81,-7.79"/>
</a>
</g>
</g>
<!-- Node4 -->
<g id="Node000004" class="node">
<title>Node4</title>
<g id="a_Node000004"><a xlink:title=" ">
<polygon fill="#e0e0e0" stroke="#999999" points="244.65,-19.25 179.15,-19.25 179.15,0 244.65,0 244.65,-19.25"/>
<text text-anchor="middle" x="211.9" y="-5.75" font-family="Helvetica,sans-Serif" font-size="10.00">string_view</text>
</a>
</g>
</g>
<!-- Node1&#45;&gt;Node4 -->
<g id="edge35_Node000001_Node000004" class="edge">
<title>Node1&#45;&gt;Node4</title>
<g id="a_edge35_Node000001_Node000004"><a xlink:title=" ">
<path fill="none" stroke="#63b8ff" d="M661.67,-228.67C513.91,-225.61 100.15,-214.47 46.9,-185 14.02,-166.8 -13.02,-142.37 6.9,-110.5 41.97,-54.4 118.6,-28.99 167.6,-18.1"/>
<polygon fill="#63b8ff" stroke="#63b8ff" points="168.26,-21.54 177.33,-16.06 166.83,-14.68 168.26,-21.54"/>
</a>
</g>
</g>
<!-- Node5 -->
<g id="Node000005" class="node">
<title>Node5</title>
<g id="a_Node000005"><a xlink:href="../../d9/dc5/_string_8hpp.html" target="_top" xlink:title=" ">
<polygon fill="white" stroke="#666666" points="300.28,-185 199.53,-185 199.53,-165.75 300.28,-165.75 300.28,-185"/>
<text text-anchor="middle" x="249.9" y="-171.5" font-family="Helvetica,sans-Serif" font-size="10.00">mimic++/String.hpp</text>
</a>
</g>
</g>
<!-- Node1&#45;&gt;Node5 -->
<g id="edge4_Node000001_Node000005" class="edge">
<title>Node1&#45;&gt;Node5</title>
<g id="a_edge4_Node000001_Node000005"><a xlink:title=" ">
<path fill="none" stroke="#63b8ff" d="M661.58,-223.62C575.44,-213.73 404.14,-194.08 312,-183.5"/>
<polygon fill="#63b8ff" stroke="#63b8ff" points="312.46,-180.03 302.13,-182.37 311.66,-186.99 312.46,-180.03"/>
</a>
</g>
</g>
<!-- Node6 -->
<g id="Node000006" class="node">
<title>Node6</title>
<g id="a_Node000006"><a xlink:href="../../d4/d2c/_utility_8hpp.html" target="_top" xlink:title=" ">
<polygon fill="white" stroke="#666666" points="634.9,-129.75 534.9,-129.75 534.9,-110.5 634.9,-110.5 634.9,-129.75"/>
<text text-anchor="middle" x="584.9" y="-116.25" font-family="Helvetica,sans-Serif" font-size="10.00">mimic++/Utility.hpp</text>
</a>
</g>
</g>
<!-- Node1&#45;&gt;Node6 -->
<g id="edge26_Node000001_Node000006" class="edge">
<title>Node1&#45;&gt;Node6</title>
<g id="a_edge26_Node000001_Node000006"><a xlink:title=" ">
<path fill="none" stroke="#63b8ff" d="M703.35,-220.75C681.71,-202.55 632.04,-160.77 604.39,-137.51"/>
<polygon fill="#63b8ff" stroke="#63b8ff" points="606.67,-134.86 596.76,-131.1 602.16,-140.22 606.67,-134.86"/>
</a>
</g>
</g>
<!-- Node8 -->
<g id="Node000008" class="node">
<title>Node8</title>
<g id="a_Node000008"><a xlink:title=" ">
<polygon fill="#e0e0e0" stroke="#999999" points="757.03,-74.5 672.78,-74.5 672.78,-55.25 757.03,-55.25 757.03,-74.5"/>
<text text-anchor="middle" x="714.9" y="-61" font-family="Helvetica,sans-Serif" font-size="10.00">source_location</text>
</a>
</g>
</g>
<!-- Node1&#45;&gt;Node8 -->
<g id="edge32_Node000001_Node000008" class="edge">
<title>Node1&#45;&gt;Node8</title>
<g id="a_edge32_Node000001_Node000008"><a xlink:title=" ">
<path fill="none" stroke="#63b8ff" d="M719.85,-220.59C732.24,-200.59 758.64,-151.17 745.9,-110.5 742.85,-100.75 736.83,-91.27 730.91,-83.57"/>
<polygon fill="#63b8ff" stroke="#63b8ff" points="733.73,-81.49 724.64,-76.04 728.35,-85.97 733.73,-81.49"/>
</a>
</g>
</g>
<!-- Node10 -->
<g id="Node000010" class="node">
<title>Node10</title>
<g id="a_Node000010"><a xlink:title=" ">
<polygon fill="#e0e0e0" stroke="#999999" points="813.15,-74.5 774.65,-74.5 774.65,-55.25 813.15,-55.25 813.15,-74.5"/>
<text text-anchor="middle" x="793.9" y="-61" font-family="Helvetica,sans-Serif" font-size="10.00">utility</text>
</a>
</g>
</g>
<!-- Node1&#45;&gt;Node10 -->
<g id="edge36_Node000001_Node000010" class="edge">
<title>Node1&#45;&gt;Node10</title>
<g id="a_edge36_Node000001_Node000010"><a xlink:title=" ">
<path fill="none" stroke="#63b8ff" d="M724.63,-220.74C734.08,-212.4 747.59,-199.12 755.9,-185 774.75,-152.98 785.38,-110.52 790.36,-85.9"/>
<polygon fill="#63b8ff" stroke="#63b8ff" points="793.76,-86.76 792.18,-76.29 786.88,-85.46 793.76,-86.76"/>
</a>
</g>
</g>
<!-- Node12 -->
<g id="Node000012" class="node">
<title>Node12</title>
<g id="a_Node000012"><a xlink:title=" ">
<polygon fill="#e0e0e0" stroke="#999999" points="81.9,-129.75 23.9,-129.75 23.9,-110.5 81.9,-110.5 81.9,-129.75"/>
<text text-anchor="middle" x="52.9" y="-116.25" font-family="Helvetica,sans-Serif" font-size="10.00">functional</text>
</a>
</g>
</g>
<!-- Node1&#45;&gt;Node12 -->
<g id="edge28_Node000001_Node000012" class="edge">
<title>Node1&#45;&gt;Node12</title>
<g id="a_edge28_Node000001_Node000012"><a xlink:title=" ">
<path fill="none" stroke="#63b8ff" d="M661.76,-228.47C542.22,-225.35 251.61,-214.83 158.9,-185 126.21,-174.48 93.02,-152.2 72.7,-136.94"/>
<polygon fill="#63b8ff" stroke="#63b8ff" points="75.07,-134.35 65.01,-131.02 70.8,-139.89 75.07,-134.35"/>
</a>
</g>
</g>
<!-- Node13 -->
<g id="Node000013" class="node">
<title>Node13</title>
<g id="a_Node000013"><a xlink:title=" ">
<polygon fill="#e0e0e0" stroke="#999999" points="145.53,-129.75 100.28,-129.75 100.28,-110.5 145.53,-110.5 145.53,-129.75"/>
<text text-anchor="middle" x="122.9" y="-116.25" font-family="Helvetica,sans-Serif" font-size="10.00">ranges</text>
</a>
</g>
</g>
<!-- Node1&#45;&gt;Node13 -->
<g id="edge31_Node000001_Node000013" class="edge">
<title>Node1&#45;&gt;Node13</title>
<g id="a_edge31_Node000001_Node000013"><a xlink:title=" ">
<path fill="none" stroke="#63b8ff" d="M661.72,-229.48C546.53,-228.48 274.12,-222.13 190.9,-185 168.33,-174.93 148.51,-154.17 136.18,-139.05"/>
<polygon fill="#63b8ff" stroke="#63b8ff" points="139.04,-137.02 130.13,-131.28 133.52,-141.32 139.04,-137.02"/>
</a>
</g>
</g>
<!-- Node15 -->
<g id="Node000015" class="node">
<title>Node15</title>
<g id="a_Node000015"><a xlink:href="../../d8/d32/_type_traits_8hpp.html" target="_top" xlink:title=" ">
<polygon fill="white" stroke="#666666" points="553.4,-185 432.4,-185 432.4,-165.75 553.4,-165.75 553.4,-185"/>
<text text-anchor="middle" x="492.9" y="-171.5" font-family="Helvetica,sans-Serif" font-size="10.00">mimic++/TypeTraits.hpp</text>
</a>
</g>
</g>
<!-- Node1&#45;&gt;Node15 -->
<g id="edge19_Node000001_Node000015" class="edge">
<title>Node1&#45;&gt;Node15</title>
<g id="a_edge19_Node000001_Node000015"><a xlink:title=" ">
<path fill="none" stroke="#63b8ff" d="M676.16,-220.53C638.98,-211.57 582,-197.84 541.46,-188.07"/>
<polygon fill="#63b8ff" stroke="#63b8ff" points="542.5,-184.73 531.96,-185.79 540.86,-191.53 542.5,-184.73"/>
</a>
</g>
</g>
<!-- Node17 -->
<g id="Node000017" class="node">
<title>Node17</title>
<g id="a_Node000017"><a xlink:title=" ">
<polygon fill="#e0e0e0" stroke="#999999" points="736.53,-129.75 691.28,-129.75 691.28,-110.5 736.53,-110.5 736.53,-129.75"/>
<text text-anchor="middle" x="713.9" y="-116.25" font-family="Helvetica,sans-Serif" font-size="10.00">cstdint</text>
</a>
</g>
</g>
<!-- Node1&#45;&gt;Node17 -->
<g id="edge27_Node000001_Node000017" class="edge">
<title>Node1&#45;&gt;Node17</title>
<g id="a_edge27_Node000001_Node000017"><a xlink:title=" ">
<path fill="none" stroke="#63b8ff" d="M713.9,-220.75C713.9,-203.5 713.9,-165.08 713.9,-141.31"/>
<polygon fill="#63b8ff" stroke="#63b8ff" points="717.4,-141.64 713.9,-131.64 710.4,-141.64 717.4,-141.64"/>
</a>
</g>
</g>
<!-- Node18 -->
<g id="Node000018" class="node">
<title>Node18</title>
<g id="a_Node000018"><a xlink:title=" ">
<polygon fill="#e0e0e0" stroke="#999999" points="914.9,-185 868.9,-185 868.9,-165.75 914.9,-165.75 914.9,-185"/>
<text text-anchor="middle" x="891.9" y="-171.5" font-family="Helvetica,sans-Serif" font-size="10.00">iterator</text>
</a>
</g>
</g>
<!-- Node1&#45;&gt;Node18 -->
<g id="edge29_Node000001_Node000018" class="edge">
<title>Node1&#45;&gt;Node18</title>
<g id="a_edge29_Node000001_Node000018"><a xlink:title=" ">
<path fill="none" stroke="#63b8ff" d="M744.1,-220.59C775.6,-211.17 824.88,-196.43 857.77,-186.59"/>
<polygon fill="#63b8ff" stroke="#63b8ff" points="858.64,-189.98 867.21,-183.76 856.63,-183.27 858.64,-189.98"/>
</a>
</g>
</g>
<!-- Node19 -->
<g id="Node000019" class="node">
<title>Node19</title>
<g id="a_Node000019"><a xlink:title=" ">
<polygon fill="#e0e0e0" stroke="#999999" points="982.78,-185 933.03,-185 933.03,-165.75 982.78,-165.75 982.78,-185"/>
<text text-anchor="middle" x="957.9" y="-171.5" font-family="Helvetica,sans-Serif" font-size="10.00">optional</text>
</a>
</g>
</g>
<!-- Node1&#45;&gt;Node19 -->
<g id="edge30_Node000001_Node000019" class="edge">
<title>Node1&#45;&gt;Node19</title>
<g id="a_edge30_Node000001_Node000019"><a xlink:title=" ">
<path fill="none" stroke="#63b8ff" d="M759.08,-220.56C799.27,-212.37 859.92,-199.73 921.57,-185.47"/>
<polygon fill="#63b8ff" stroke="#63b8ff" points="922.26,-188.91 931.2,-183.23 920.67,-182.09 922.26,-188.91"/>
</a>
</g>
</g>
<!-- Node20 -->
<g id="Node000020" class="node">
<title>Node20</title>
<g id="a_Node000020"><a xlink:title=" ">
<polygon fill="#e0e0e0" stroke="#999999" points="1052.53,-185 1001.28,-185 1001.28,-165.75 1052.53,-165.75 1052.53,-185"/>
<text text-anchor="middle" x="1026.9" y="-171.5" font-family="Helvetica,sans-Serif" font-size="10.00">sstream</text>
</a>
</g>
</g>
<!-- Node1&#45;&gt;Node20 -->
<g id="edge33_Node000001_Node000020" class="edge">
<title>Node1&#45;&gt;Node20</title>
<g id="a_edge33_Node000001_Node000020"><a xlink:title=" ">
<path fill="none" stroke="#63b8ff" d="M766.14,-222.55C819.78,-215 905.9,-202.06 989.69,-185.3"/>
<polygon fill="#63b8ff" stroke="#63b8ff" points="990.37,-188.73 999.48,-183.32 988.98,-181.87 990.37,-188.73"/>
</a>
</g>
</g>
<!-- Node21 -->
<g id="Node000021" class="node">
<title>Node21</title>
<g id="a_Node000021"><a xlink:title=" ">
<polygon fill="#e0e0e0" stroke="#999999" points="1114.78,-185 1071.03,-185 1071.03,-165.75 1114.78,-165.75 1114.78,-185"/>
<text text-anchor="middle" x="1092.9" y="-171.5" font-family="Helvetica,sans-Serif" font-size="10.00">format</text>
</a>
</g>
</g>
<!-- Node1&#45;&gt;Node21 -->
<g id="edge37_Node000001_Node000021" class="edge">
<title>Node1&#45;&gt;Node21</title>
<g id="a_edge37_Node000001_Node000021"><a xlink:title=" ">
<path fill="none" stroke="#63b8ff" d="M766.17,-225.29C832.31,-219.27 949.88,-206.86 1059.39,-185.24"/>
<polygon fill="#63b8ff" stroke="#63b8ff" points="1060.05,-188.68 1069.16,-183.28 1058.67,-181.82 1060.05,-188.68"/>
</a>
</g>
</g>
<!-- Node2&#45;&gt;Node3 -->
<g id="edge2_Node000002_Node000003" class="edge">
<title>Node2&#45;&gt;Node3</title>
<g id="a_edge2_Node000002_Node000003"><a xlink:title=" ">
<path fill="none" stroke="#63b8ff" d="M268.07,-54.84C285.68,-46.54 312.06,-34.11 332.37,-24.54"/>
<polygon fill="#63b8ff" stroke="#63b8ff" points="333.72,-27.78 341.27,-20.35 330.73,-21.44 333.72,-27.78"/>
</a>
</g>
</g>
<!-- Node2&#45;&gt;Node4 -->
<g id="edge3_Node000002_Node000004" class="edge">
<title>Node2&#45;&gt;Node4</title>
<g id="a_edge3_Node000002_Node000004"><a xlink:title=" ">
<path fill="none" stroke="#63b8ff" d="M242.79,-55.08C237.84,-47.96 230.7,-37.68 224.53,-28.8"/>
<polygon fill="#63b8ff" stroke="#63b8ff" points="227.59,-27.07 219.01,-20.85 221.84,-31.06 227.59,-27.07"/>
</a>
</g>
</g>
<!-- Node5&#45;&gt;Node2 -->
<g id="edge5_Node000005_Node000002" class="edge">
<title>Node5&#45;&gt;Node2</title>
<g id="a_edge5_Node000005_Node000002"><a xlink:title=" ">
<path fill="none" stroke="#63b8ff" d="M246.17,-165.34C242.72,-156.46 237.84,-142.43 235.9,-129.75 233.62,-114.83 237.24,-98.12 241.24,-85.53"/>
<polygon fill="#63b8ff" stroke="#63b8ff" points="244.45,-86.94 244.5,-76.35 237.85,-84.6 244.45,-86.94"/>
</a>
</g>
</g>
<!-- Node5&#45;&gt;Node3 -->
<g id="edge16_Node000005_Node000003" class="edge">
<title>Node5&#45;&gt;Node3</title>
<g id="a_edge16_Node000005_Node000003"><a xlink:title=" ">
<path fill="none" stroke="#63b8ff" d="M251.31,-165.58C253.66,-152.75 259.2,-128.47 269.9,-110.5 281.33,-91.33 289.69,-90.83 304.9,-74.5 319.41,-58.92 335.53,-40.78 346.91,-27.82"/>
<polygon fill="#63b8ff" stroke="#63b8ff" points="349.32,-30.38 353.28,-20.55 344.06,-25.77 349.32,-30.38"/>
</a>
</g>
</g>
<!-- Node5&#45;&gt;Node4 -->
<g id="edge17_Node000005_Node000004" class="edge">
<title>Node5&#45;&gt;Node4</title>
<g id="a_edge17_Node000005_Node000004"><a xlink:title=" ">
<path fill="none" stroke="#63b8ff" d="M242.64,-165.46C229.6,-148.81 202.68,-111.36 192.9,-74.5 188.86,-59.28 194.49,-42.18 200.65,-29.51"/>
<polygon fill="#63b8ff" stroke="#63b8ff" points="203.57,-31.47 205.25,-21.01 197.41,-28.14 203.57,-31.47"/>
</a>
</g>
</g>
<!-- Node5&#45;&gt;Node6 -->
<g id="edge6_Node000005_Node000006" class="edge">
<title>Node5&#45;&gt;Node6</title>
<g id="a_edge6_Node000005_Node000006"><a xlink:title=" ">
<path fill="none" stroke="#63b8ff" d="M300.42,-166.35C360.08,-156.86 459.29,-141.09 523.38,-130.9"/>
<polygon fill="#63b8ff" stroke="#63b8ff" points="523.7,-134.4 533.03,-129.37 522.6,-127.48 523.7,-134.4"/>
</a>
</g>
</g>
<!-- Node11 -->
<g id="Node000011" class="node">
<title>Node11</title>
<g id="a_Node000011"><a xlink:title=" ">
<polygon fill="#e0e0e0" stroke="#999999" points="412.78,-129.75 357.03,-129.75 357.03,-110.5 412.78,-110.5 412.78,-129.75"/>
<text text-anchor="middle" x="384.9" y="-116.25" font-family="Helvetica,sans-Serif" font-size="10.00">concepts</text>
</a>
</g>
</g>
<!-- Node5&#45;&gt;Node11 -->
<g id="edge13_Node000005_Node000011" class="edge">
<title>Node5&#45;&gt;Node11</title>
<g id="a_edge13_Node000005_Node000011"><a xlink:title=" ">
<path fill="none" stroke="#63b8ff" d="M272.8,-165.34C294.33,-156.85 326.81,-144.04 351.28,-134.39"/>
<polygon fill="#63b8ff" stroke="#63b8ff" points="352.46,-137.68 360.48,-130.76 349.89,-131.17 352.46,-137.68"/>
</a>
</g>
</g>
<!-- Node5&#45;&gt;Node12 -->
<g id="edge14_Node000005_Node000012" class="edge">
<title>Node5&#45;&gt;Node12</title>
<g id="a_edge14_Node000005_Node000012"><a xlink:title=" ">
<path fill="none" stroke="#63b8ff" d="M216.48,-165.34C182.36,-156.12 129.38,-141.8 93.01,-131.97"/>
<polygon fill="#63b8ff" stroke="#63b8ff" points="94.33,-128.7 83.76,-129.47 92.5,-135.45 94.33,-128.7"/>
</a>
</g>
</g>
<!-- Node5&#45;&gt;Node13 -->
<g id="edge15_Node000005_Node000013" class="edge">
<title>Node5&#45;&gt;Node13</title>
<g id="a_edge15_Node000005_Node000013"><a xlink:title=" ">
<path fill="none" stroke="#63b8ff" d="M228.36,-165.34C208.29,-156.93 178.1,-144.27 155.16,-134.65"/>
<polygon fill="#63b8ff" stroke="#63b8ff" points="156.52,-131.43 145.95,-130.79 153.82,-137.88 156.52,-131.43"/>
</a>
</g>
</g>
<!-- Node14 -->
<g id="Node000014" class="node">
<title>Node14</title>
<g id="a_Node000014"><a xlink:title=" ">
<polygon fill="#e0e0e0" stroke="#999999" points="339.4,-129.75 278.4,-129.75 278.4,-110.5 339.4,-110.5 339.4,-129.75"/>
<text text-anchor="middle" x="308.9" y="-116.25" font-family="Helvetica,sans-Serif" font-size="10.00">type_traits</text>
</a>
</g>
</g>
<!-- Node5&#45;&gt;Node14 -->
<g id="edge18_Node000005_Node000014" class="edge">
<title>Node5&#45;&gt;Node14</title>
<g id="a_edge18_Node000005_Node000014"><a xlink:title=" ">
<path fill="none" stroke="#63b8ff" d="M259.91,-165.34C268.27,-157.8 280.4,-146.85 290.5,-137.73"/>
<polygon fill="#63b8ff" stroke="#63b8ff" points="292.84,-140.34 297.92,-131.04 288.15,-135.14 292.84,-140.34"/>
</a>
</g>
</g>
<!-- Node6&#45;&gt;Node2 -->
<g id="edge7_Node000006_Node000002" class="edge">
<title>Node6&#45;&gt;Node2</title>
<g id="a_edge7_Node000006_Node000002"><a xlink:title=" ">
<path fill="none" stroke="#63b8ff" d="M534.6,-111.15C473.81,-101.52 371.7,-85.34 307.43,-75.15"/>
<polygon fill="#63b8ff" stroke="#63b8ff" points="308.21,-71.73 297.78,-73.62 307.11,-78.64 308.21,-71.73"/>
</a>
</g>
</g>
<!-- Node6&#45;&gt;Node4 -->
<g id="edge10_Node000006_Node000004" class="edge">
<title>Node6&#45;&gt;Node4</title>
<g id="a_edge10_Node000006_Node000004"><a xlink:title=" ">
<path fill="none" stroke="#63b8ff" d="M553.74,-110.06C486.96,-90.63 329.97,-44.97 254.23,-22.94"/>
<polygon fill="#63b8ff" stroke="#63b8ff" points="255.27,-19.59 244.69,-20.16 253.31,-26.32 255.27,-19.59"/>
</a>
</g>
</g>
<!-- Node7 -->
<g id="Node000007" class="node">
<title>Node7</title>
<g id="a_Node000007"><a xlink:title=" ">
<polygon fill="#e0e0e0" stroke="#999999" points="599.03,-74.5 550.78,-74.5 550.78,-55.25 599.03,-55.25 599.03,-74.5"/>
<text text-anchor="middle" x="574.9" y="-61" font-family="Helvetica,sans-Serif" font-size="10.00">cassert</text>
</a>
</g>
</g>
<!-- Node6&#45;&gt;Node7 -->
<g id="edge8_Node000006_Node000007" class="edge">
<title>Node6&#45;&gt;Node7</title>
<g id="a_edge8_Node000006_Node000007"><a xlink:title=" ">
<path fill="none" stroke="#63b8ff" d="M583.25,-110.33C582.01,-103.74 580.27,-94.46 578.7,-86.07"/>
<polygon fill="#63b8ff" stroke="#63b8ff" points="582.15,-85.53 576.87,-76.35 575.27,-86.82 582.15,-85.53"/>
</a>
</g>
</g>
<!-- Node6&#45;&gt;Node8 -->
<g id="edge9_Node000006_Node000008" class="edge">
<title>Node6&#45;&gt;Node8</title>
<g id="a_edge9_Node000006_Node000008"><a xlink:title=" ">
<path fill="none" stroke="#63b8ff" d="M606.96,-110.09C627.59,-101.64 658.68,-88.9 682.21,-79.27"/>
<polygon fill="#63b8ff" stroke="#63b8ff" points="683.41,-82.56 691.34,-75.53 680.76,-76.08 683.41,-82.56"/>
</a>
</g>
</g>
<!-- Node9 -->
<g id="Node000009" class="node">
<title>Node9</title>
<g id="a_Node000009"><a xlink:title=" ">
<polygon fill="#e0e0e0" stroke="#999999" points="654.4,-74.5 617.4,-74.5 617.4,-55.25 654.4,-55.25 654.4,-74.5"/>
<text text-anchor="middle" x="635.9" y="-61" font-family="Helvetica,sans-Serif" font-size="10.00">tuple</text>
</a>
</g>
</g>
<!-- Node6&#45;&gt;Node9 -->
<g id="edge11_Node000006_Node000009" class="edge">
<title>Node6&#45;&gt;Node9</title>
<g id="a_edge11_Node000006_Node000009"><a xlink:title=" ">
<path fill="none" stroke="#63b8ff" d="M593.32,-110.33C600.44,-102.9 610.85,-92.04 619.59,-82.91"/>
<polygon fill="#63b8ff" stroke="#63b8ff" points="621.86,-85.6 626.25,-75.95 616.81,-80.75 621.86,-85.6"/>
</a>
</g>
</g>
<!-- Node6&#45;&gt;Node10 -->
<g id="edge12_Node000006_Node000010" class="edge">
<title>Node6&#45;&gt;Node10</title>
<g id="a_edge12_Node000006_Node000010"><a xlink:title=" ">
<path fill="none" stroke="#63b8ff" d="M624.62,-110.02C659.03,-101.98 710.4,-89.62 763.39,-75.08"/>
<polygon fill="#63b8ff" stroke="#63b8ff" points="764.2,-78.49 772.9,-72.45 762.33,-71.75 764.2,-78.49"/>
</a>
</g>
</g>
<!-- Node15&#45;&gt;Node2 -->
<g id="edge20_Node000015_Node000002" class="edge">
<title>Node15&#45;&gt;Node2</title>
<g id="a_edge20_Node000015_Node000002"><a xlink:title=" ">
<path fill="none" stroke="#63b8ff" d="M485.59,-165.48C473.7,-151.61 448.78,-124.93 421.9,-110.5 401.77,-99.7 347.51,-86.55 305.07,-77.33"/>
<polygon fill="#63b8ff" stroke="#63b8ff" points="306,-73.95 295.49,-75.28 304.53,-80.79 306,-73.95"/>
</a>
</g>
</g>
<!-- Node15&#45;&gt;Node9 -->
<g id="edge24_Node000015_Node000009" class="edge">
<title>Node15&#45;&gt;Node9</title>
<g id="a_edge24_Node000015_Node000009"><a xlink:title=" ">
<path fill="none" stroke="#63b8ff" d="M553.84,-172.94C586.09,-168.67 623.2,-157.45 643.9,-129.75 653.41,-117.02 649.89,-98.73 644.88,-84.98"/>
<polygon fill="#63b8ff" stroke="#63b8ff" points="648.26,-83.98 641.16,-76.11 641.8,-86.69 648.26,-83.98"/>
</a>
</g>
</g>
<!-- Node15&#45;&gt;Node11 -->
<g id="edge21_Node000015_Node000011" class="edge">
<title>Node15&#45;&gt;Node11</title>
<g id="a_edge21_Node000015_Node000011"><a xlink:title=" ">
<path fill="none" stroke="#63b8ff" d="M474.58,-165.34C457.82,-157.08 432.77,-144.73 413.4,-135.18"/>
<polygon fill="#63b8ff" stroke="#63b8ff" points="415.19,-132.15 404.67,-130.87 412.09,-138.43 415.19,-132.15"/>
</a>
</g>
</g>
<!-- Node15&#45;&gt;Node14 -->
<g id="edge25_Node000015_Node000014" class="edge">
<title>Node15&#45;&gt;Node14</title>
<g id="a_edge25_Node000015_Node000014"><a xlink:title=" ">
<path fill="none" stroke="#63b8ff" d="M461.69,-165.34C431.11,-156.49 384.3,-142.95 350.56,-133.18"/>
<polygon fill="#63b8ff" stroke="#63b8ff" points="351.69,-129.86 341.11,-130.45 349.74,-136.59 351.69,-129.86"/>
</a>
</g>
</g>
<!-- Node16 -->
<g id="Node000016" class="node">
<title>Node16</title>
<g id="a_Node000016"><a xlink:title=" ">
<polygon fill="#e0e0e0" stroke="#999999" points="517.03,-129.75 468.78,-129.75 468.78,-110.5 517.03,-110.5 517.03,-129.75"/>
<text text-anchor="middle" x="492.9" y="-116.25" font-family="Helvetica,sans-Serif" font-size="10.00">cstddef</text>
</a>
</g>
</g>
<!-- Node15&#45;&gt;Node16 -->
<g id="edge22_Node000015_Node000016" class="edge">
<title>Node15&#45;&gt;Node16</title>
<g id="a_edge22_Node000015_Node000016"><a xlink:title=" ">
<path fill="none" stroke="#63b8ff" d="M492.9,-165.58C492.9,-159.07 492.9,-149.92 492.9,-141.62"/>
<polygon fill="#63b8ff" stroke="#63b8ff" points="496.4,-141.62 492.9,-131.62 489.4,-141.62 496.4,-141.62"/>
</a>
</g>
</g>
<!-- Node15&#45;&gt;Node17 -->
<g id="edge23_Node000015_Node000017" class="edge">
<title>Node15&#45;&gt;Node17</title>
<g id="a_edge23_Node000015_Node000017"><a xlink:title=" ">
<path fill="none" stroke="#63b8ff" d="M530.64,-165.28C572.5,-155.2 639.42,-139.07 679.76,-129.35"/>
<polygon fill="#63b8ff" stroke="#63b8ff" points="680.51,-132.77 689.41,-127.03 678.87,-125.97 680.51,-132.77"/>
</a>
</g>
</g>
</g>
</svg>
