<?xml version="1.0" encoding="UTF-8" standalone="no"?>
<!DOCTYPE svg PUBLIC "-//W3C//DTD SVG 1.1//EN"
 "http://www.w3.org/Graphics/SVG/1.1/DTD/svg11.dtd">
<!-- Generated by graphviz version 11.0.0 (20240428.1522)
 -->
<!-- Title: mimic++/Printer.hpp Pages: 1 -->
<svg width="536pt" height="138pt"
 viewBox="0.00 0.00 535.62 137.75" xmlns="http://www.w3.org/2000/svg" xmlns:xlink="http://www.w3.org/1999/xlink">
<g id="graph0" class="graph" transform="scale(1 1) rotate(0) translate(4 133.75)">
<title>mimic++/Printer.hpp</title>
<!-- Node1 -->
<g id="Node000001" class="node">
<title>Node1</title>
<g id="a_Node000001"><a xlink:title=" ">
<polygon fill="#999999" stroke="#666666" points="286.25,-129.75 182.5,-129.75 182.5,-110.5 286.25,-110.5 286.25,-129.75"/>
<text text-anchor="middle" x="234.38" y="-116.25" font-family="Helvetica,sans-Serif" font-size="10.00">mimic++/Printer.hpp</text>
</a>
</g>
</g>
<!-- Node2 -->
<g id="Node000002" class="node">
<title>Node2</title>
<g id="a_Node000002"><a xlink:href="../../df/dde/_fwd_8hpp.html" target="_top" xlink:title=" ">
<polygon fill="white" stroke="#666666" points="52.75,-74.5 0,-74.5 0,-55.25 52.75,-55.25 52.75,-74.5"/>
<text text-anchor="middle" x="26.38" y="-61" font-family="Helvetica,sans-Serif" font-size="10.00">Fwd.hpp</text>
</a>
</g>
</g>
<!-- Node1&#45;&gt;Node2 -->
<g id="edge1_Node000001_Node000002" class="edge">
<title>Node1&#45;&gt;Node2</title>
<g id="a_edge1_Node000001_Node000002"><a xlink:title=" ">
<path fill="none" stroke="#63b8ff" d="M199.09,-110.09C161.54,-100.48 102.34,-85.32 63.94,-75.49"/>
<polygon fill="#63b8ff" stroke="#63b8ff" points="65.24,-72.21 54.68,-73.12 63.5,-78.99 65.24,-72.21"/>
</a>
</g>
</g>
<!-- Node3 -->
<g id="Node000003" class="node">
<title>Node3</title>
<g id="a_Node000003"><a xlink:title=" ">
<polygon fill="#e0e0e0" stroke="#999999" points="73.38,-19.25 33.38,-19.25 33.38,0 73.38,0 73.38,-19.25"/>
<text text-anchor="middle" x="53.38" y="-5.75" font-family="Helvetica,sans-Serif" font-size="10.00">string</text>
</a>
</g>
</g>
<!-- Node1&#45;&gt;Node3 -->
<g id="edge7_Node000001_Node000003" class="edge">
<title>Node1&#45;&gt;Node3</title>
<g id="a_edge7_Node000001_Node000003"><a xlink:title=" ">
<path fill="none" stroke="#63b8ff" d="M182.74,-110.05C155.98,-103.46 123.86,-92.46 99.38,-74.5 83.38,-62.76 70.73,-43.79 62.78,-29.57"/>
<polygon fill="#63b8ff" stroke="#63b8ff" points="65.89,-27.97 58.14,-20.75 59.7,-31.23 65.89,-27.97"/>
</a>
</g>
</g>
<!-- Node4 -->
<g id="Node000004" class="node">
<title>Node4</title>
<g id="a_Node000004"><a xlink:title=" ">
<polygon fill="#e0e0e0" stroke="#999999" points="152.25,-74.5 108.5,-74.5 108.5,-55.25 152.25,-55.25 152.25,-74.5"/>
<text text-anchor="middle" x="130.38" y="-61" font-family="Helvetica,sans-Serif" font-size="10.00">format</text>
</a>
</g>
</g>
<!-- Node1&#45;&gt;Node4 -->
<g id="edge3_Node000001_Node000004" class="edge">
<title>Node1&#45;&gt;Node4</title>
<g id="a_edge3_Node000001_Node000004"><a xlink:title=" ">
<path fill="none" stroke="#63b8ff" d="M216.73,-110.09C200.75,-101.91 176.92,-89.71 158.34,-80.19"/>
<polygon fill="#63b8ff" stroke="#63b8ff" points="159.95,-77.08 149.45,-75.64 156.76,-83.32 159.95,-77.08"/>
</a>
</g>
</g>
<!-- Node5 -->
<g id="Node000005" class="node">
<title>Node5</title>
<g id="a_Node000005"><a xlink:title=" ">
<polygon fill="#e0e0e0" stroke="#999999" points="216.38,-74.5 170.38,-74.5 170.38,-55.25 216.38,-55.25 216.38,-74.5"/>
<text text-anchor="middle" x="193.38" y="-61" font-family="Helvetica,sans-Serif" font-size="10.00">iterator</text>
</a>
</g>
</g>
<!-- Node1&#45;&gt;Node5 -->
<g id="edge4_Node000001_Node000005" class="edge">
<title>Node1&#45;&gt;Node5</title>
<g id="a_edge4_Node000001_Node000005"><a xlink:title=" ">
<path fill="none" stroke="#63b8ff" d="M227.6,-110.33C222.06,-103.13 214.03,-92.71 207.15,-83.76"/>
<polygon fill="#63b8ff" stroke="#63b8ff" points="210.09,-81.85 201.22,-76.06 204.54,-86.12 210.09,-81.85"/>
</a>
</g>
</g>
<!-- Node6 -->
<g id="Node000006" class="node">
<title>Node6</title>
<g id="a_Node000006"><a xlink:title=" ">
<polygon fill="#e0e0e0" stroke="#999999" points="318.5,-74.5 234.25,-74.5 234.25,-55.25 318.5,-55.25 318.5,-74.5"/>
<text text-anchor="middle" x="276.38" y="-61" font-family="Helvetica,sans-Serif" font-size="10.00">source_location</text>
</a>
</g>
</g>
<!-- Node1&#45;&gt;Node6 -->
<g id="edge5_Node000001_Node000006" class="edge">
<title>Node1&#45;&gt;Node6</title>
<g id="a_edge5_Node000001_Node000006"><a xlink:title=" ">
<path fill="none" stroke="#63b8ff" d="M241.31,-110.33C246.99,-103.13 255.21,-92.71 262.27,-83.76"/>
<polygon fill="#63b8ff" stroke="#63b8ff" points="264.91,-86.07 268.35,-76.05 259.41,-81.73 264.91,-86.07"/>
</a>
</g>
</g>
<!-- Node7 -->
<g id="Node000007" class="node">
<title>Node7</title>
<g id="a_Node000007"><a xlink:title=" ">
<polygon fill="#e0e0e0" stroke="#999999" points="388,-74.5 336.75,-74.5 336.75,-55.25 388,-55.25 388,-74.5"/>
<text text-anchor="middle" x="362.38" y="-61" font-family="Helvetica,sans-Serif" font-size="10.00">sstream</text>
</a>
</g>
</g>
<!-- Node1&#45;&gt;Node7 -->
<g id="edge6_Node000001_Node000007" class="edge">
<title>Node1&#45;&gt;Node7</title>
<g id="a_edge6_Node000001_Node000007"><a xlink:title=" ">
<path fill="none" stroke="#63b8ff" d="M256.09,-110.09C276.41,-101.64 307.02,-88.9 330.18,-79.27"/>
<polygon fill="#63b8ff" stroke="#63b8ff" points="331.27,-82.61 339.16,-75.53 328.58,-76.14 331.27,-82.61"/>
</a>
</g>
</g>
<!-- Node8 -->
<g id="Node000008" class="node">
<title>Node8</title>
<g id="a_Node000008"><a xlink:title=" ">
<polygon fill="#e0e0e0" stroke="#999999" points="471.12,-74.5 405.62,-74.5 405.62,-55.25 471.12,-55.25 471.12,-74.5"/>
<text text-anchor="middle" x="438.38" y="-61" font-family="Helvetica,sans-Serif" font-size="10.00">string_view</text>
</a>
</g>
</g>
<!-- Node1&#45;&gt;Node8 -->
<g id="edge8_Node000001_Node000008" class="edge">
<title>Node1&#45;&gt;Node8</title>
<g id="a_edge8_Node000001_Node000008"><a xlink:title=" ">
<path fill="none" stroke="#63b8ff" d="M268.98,-110.09C303.49,-101.08 356.63,-87.21 394.18,-77.41"/>
<polygon fill="#63b8ff" stroke="#63b8ff" points="395.04,-80.81 403.83,-74.89 393.27,-74.03 395.04,-80.81"/>
</a>
</g>
</g>
<!-- Node9 -->
<g id="Node000009" class="node">
<title>Node9</title>
<g id="a_Node000009"><a xlink:title=" ">
<polygon fill="#e0e0e0" stroke="#999999" points="527.62,-74.5 489.12,-74.5 489.12,-55.25 527.62,-55.25 527.62,-74.5"/>
<text text-anchor="middle" x="508.38" y="-61" font-family="Helvetica,sans-Serif" font-size="10.00">utility</text>
</a>
</g>
</g>
<!-- Node1&#45;&gt;Node9 -->
<g id="edge9_Node000001_Node000009" class="edge">
<title>Node1&#45;&gt;Node9</title>
<g id="a_edge9_Node000001_Node000009"><a xlink:title=" ">
<path fill="none" stroke="#63b8ff" d="M286.59,-111.51C334.2,-104.15 406.66,-91.91 477.92,-74.87"/>
<polygon fill="#63b8ff" stroke="#63b8ff" points="478.51,-78.33 487.4,-72.56 476.86,-71.52 478.51,-78.33"/>
</a>
</g>
</g>
<!-- Node2&#45;&gt;Node3 -->
<g id="edge2_Node000002_Node000003" class="edge">
<title>Node2&#45;&gt;Node3</title>
<g id="a_edge2_Node000002_Node000003"><a xlink:title=" ">
<path fill="none" stroke="#63b8ff" d="M30.83,-55.08C34.33,-48.19 39.32,-38.34 43.72,-29.66"/>
<polygon fill="#63b8ff" stroke="#63b8ff" points="46.73,-31.46 48.14,-20.96 40.49,-28.3 46.73,-31.46"/>
</a>
</g>
</g>
</g>
</svg>
