<?xml version="1.0" encoding="UTF-8" standalone="no"?>
<!DOCTYPE svg PUBLIC "-//W3C//DTD SVG 1.1//EN"
 "http://www.w3.org/Graphics/SVG/1.1/DTD/svg11.dtd">
<!-- Generated by graphviz version 12.2.1 (20241206.2353)
 -->
<!-- Title: mimicpp::uint_with_size&lt; byteCount &gt; Pages: 1 -->
<svg width="272pt" height="186pt"
 viewBox="0.00 0.00 271.75 185.50" xmlns="http://www.w3.org/2000/svg" xmlns:xlink="http://www.w3.org/1999/xlink">
<g id="graph0" class="graph" transform="scale(1 1) rotate(0) translate(4 181.5)">
<title>mimicpp::uint_with_size&lt; byteCount &gt;</title>
<!-- Node1 -->
<g id="Node000001" class="node">
<title>Node1</title>
<g id="a_Node000001"><a xlink:title="Primary template, purposely undefined.">
<polygon fill="#999999" stroke="#666666" points="98.5,-103.5 0,-103.5 0,-73 98.5,-73 98.5,-103.5"/>
<text text-anchor="start" x="8" y="-90" font-family="Helvetica,sans-Serif" font-size="10.00">mimicpp::uint_with</text>
<text text-anchor="middle" x="49.25" y="-78.75" font-family="Helvetica,sans-Serif" font-size="10.00">_size&lt; byteCount &gt;</text>
</a>
</g>
</g>
<!-- Node2 -->
<g id="Node000002" class="node">
<title>Node2</title>
<g id="a_Node000002"><a xlink:href="../../da/da1/structmimicpp_1_1uint__with__size_3_011u_01_4.html" target="_top" xlink:title="1&#45;byte specialization.">
<polygon fill="white" stroke="#666666" points="263.75,-177.5 167.5,-177.5 167.5,-147 263.75,-147 263.75,-177.5"/>
<text text-anchor="start" x="175.5" y="-164" font-family="Helvetica,sans-Serif" font-size="10.00">mimicpp::uint_with</text>
<text text-anchor="middle" x="215.62" y="-152.75" font-family="Helvetica,sans-Serif" font-size="10.00">_size&lt; 1u &gt;</text>
</a>
</g>
</g>
<!-- Node1&#45;&gt;Node2 -->
<g id="edge1_Node000001_Node000002" class="edge">
<title>Node1&#45;&gt;Node2</title>
<g id="a_edge1_Node000001_Node000002"><a xlink:title=" ">
<path fill="none" stroke="orange" stroke-dasharray="5,2" d="M87.13,-109.38C96.58,-114.49 106.82,-119.77 116.5,-124.25 133.91,-132.31 153.54,-140.15 170.65,-146.6"/>
<polygon fill="orange" stroke="orange" points="89.02,-106.42 78.57,-104.67 85.65,-112.55 89.02,-106.42"/>
</a>
</g>
<text text-anchor="start" x="119.5" y="-142.69" font-family="Helvetica,sans-Serif" font-size="10.00" fill="grey">&lt; 1u &gt;</text>
</g>
<!-- Node3 -->
<g id="Node000003" class="node">
<title>Node3</title>
<g id="a_Node000003"><a xlink:href="../../de/d62/structmimicpp_1_1uint__with__size_3_012u_01_4.html" target="_top" xlink:title="2&#45;byte specialization.">
<polygon fill="white" stroke="#666666" points="263.75,-128.5 167.5,-128.5 167.5,-98 263.75,-98 263.75,-128.5"/>
<text text-anchor="start" x="175.5" y="-115" font-family="Helvetica,sans-Serif" font-size="10.00">mimicpp::uint_with</text>
<text text-anchor="middle" x="215.62" y="-103.75" font-family="Helvetica,sans-Serif" font-size="10.00">_size&lt; 2u &gt;</text>
</a>
</g>
</g>
<!-- Node1&#45;&gt;Node3 -->
<g id="edge2_Node000001_Node000003" class="edge">
<title>Node1&#45;&gt;Node3</title>
<g id="a_edge2_Node000001_Node000003"><a xlink:title=" ">
<path fill="none" stroke="orange" stroke-dasharray="5,2" d="M109.84,-97.31C128.68,-100.18 149.23,-103.3 167.11,-106.02"/>
<polygon fill="orange" stroke="orange" points="110.59,-93.89 100.18,-95.84 109.54,-100.81 110.59,-93.89"/>
</a>
</g>
<text text-anchor="start" x="119.5" y="-107.74" font-family="Helvetica,sans-Serif" font-size="10.00" fill="grey">&lt; 2u &gt;</text>
</g>
<!-- Node4 -->
<g id="Node000004" class="node">
<title>Node4</title>
<g id="a_Node000004"><a xlink:href="../../d7/def/structmimicpp_1_1uint__with__size_3_014u_01_4.html" target="_top" xlink:title="4&#45;byte specialization.">
<polygon fill="white" stroke="#666666" points="263.75,-79.5 167.5,-79.5 167.5,-49 263.75,-49 263.75,-79.5"/>
<text text-anchor="start" x="175.5" y="-66" font-family="Helvetica,sans-Serif" font-size="10.00">mimicpp::uint_with</text>
<text text-anchor="middle" x="215.62" y="-54.75" font-family="Helvetica,sans-Serif" font-size="10.00">_size&lt; 4u &gt;</text>
</a>
</g>
</g>
<!-- Node1&#45;&gt;Node4 -->
<g id="edge3_Node000001_Node000004" class="edge">
<title>Node1&#45;&gt;Node4</title>
<g id="a_edge3_Node000001_Node000004"><a xlink:title=" ">
<path fill="none" stroke="orange" stroke-dasharray="5,2" d="M110.28,-75.03C112.37,-74.66 114.45,-74.32 116.5,-74 132.91,-71.43 150.97,-69.41 167.07,-67.89"/>
<polygon fill="orange" stroke="orange" points="109.66,-71.58 100.46,-76.84 110.93,-78.47 109.66,-71.58"/>
</a>
</g>
<text text-anchor="start" x="119.5" y="-78.75" font-family="Helvetica,sans-Serif" font-size="10.00" fill="grey">&lt; 4u &gt;</text>
</g>
<!-- Node5 -->
<g id="Node000005" class="node">
<title>Node5</title>
<g id="a_Node000005"><a xlink:href="../../d5/d45/structmimicpp_1_1uint__with__size_3_018u_01_4.html" target="_top" xlink:title="8&#45;byte specialization.">
<polygon fill="white" stroke="#666666" points="263.75,-30.5 167.5,-30.5 167.5,0 263.75,0 263.75,-30.5"/>
<text text-anchor="start" x="175.5" y="-17" font-family="Helvetica,sans-Serif" font-size="10.00">mimicpp::uint_with</text>
<text text-anchor="middle" x="215.62" y="-5.75" font-family="Helvetica,sans-Serif" font-size="10.00">_size&lt; 8u &gt;</text>
</a>
</g>
</g>
<!-- Node1&#45;&gt;Node5 -->
<g id="edge4_Node000001_Node000005" class="edge">
<title>Node1&#45;&gt;Node5</title>
<g id="a_edge4_Node000001_Node000005"><a xlink:title=" ">
<path fill="none" stroke="orange" stroke-dasharray="5,2" d="M83.34,-66.86C93.72,-60.64 105.37,-54.14 116.5,-49 132.69,-41.52 151.03,-34.77 167.44,-29.32"/>
<polygon fill="orange" stroke="orange" points="81.83,-63.68 75.13,-71.89 85.49,-69.65 81.83,-63.68"/>
</a>
</g>
<text text-anchor="start" x="119.5" y="-53.75" font-family="Helvetica,sans-Serif" font-size="10.00" fill="grey">&lt; 8u &gt;</text>
</g>
</g>
</svg>
