<?xml version="1.0" encoding="UTF-8" standalone="no"?>
<!DOCTYPE svg PUBLIC "-//W3C//DTD SVG 1.1//EN"
 "http://www.w3.org/Graphics/SVG/1.1/DTD/svg11.dtd">
<!-- Generated by graphviz version 12.2.1 (20241206.2353)
 -->
<!-- Title: mimic++/CallConvention.hpp Pages: 1 -->
<svg width="522pt" height="248pt"
 viewBox="0.00 0.00 522.25 248.25" xmlns="http://www.w3.org/2000/svg" xmlns:xlink="http://www.w3.org/1999/xlink">
<g id="graph0" class="graph" transform="scale(1 1) rotate(0) translate(4 244.25)">
<title>mimic++/CallConvention.hpp</title>
<!-- Node1 -->
<g id="Node000001" class="node">
<title>Node1</title>
<g id="a_Node000001"><a xlink:title=" ">
<polygon fill="#999999" stroke="#666666" points="383.38,-240.25 242.88,-240.25 242.88,-221 383.38,-221 383.38,-240.25"/>
<text text-anchor="middle" x="313.12" y="-226.75" font-family="Helvetica,sans-Serif" font-size="10.00">mimic++/CallConvention.hpp</text>
</a>
</g>
</g>
<!-- Node2 -->
<g id="Node000002" class="node">
<title>Node2</title>
<g id="a_Node000002"><a xlink:href="../../df/dde/_fwd_8hpp.html" target="_top" xlink:title=" ">
<polygon fill="white" stroke="#666666" points="178.12,-129.75 84.12,-129.75 84.12,-110.5 178.12,-110.5 178.12,-129.75"/>
<text text-anchor="middle" x="131.12" y="-116.25" font-family="Helvetica,sans-Serif" font-size="10.00">mimic++/Fwd.hpp</text>
</a>
</g>
</g>
<!-- Node1&#45;&gt;Node2 -->
<g id="edge1_Node000001_Node000002" class="edge">
<title>Node1&#45;&gt;Node2</title>
<g id="a_edge1_Node000001_Node000002"><a xlink:title=" ">
<path fill="none" stroke="#63b8ff" d="M295.41,-220.62C278.45,-211.88 252.25,-198.05 230.12,-185 203.42,-169.24 173.63,-149.75 153.77,-136.47"/>
<polygon fill="#63b8ff" stroke="#63b8ff" points="155.87,-133.66 145.62,-130.99 151.97,-139.47 155.87,-133.66"/>
</a>
</g>
</g>
<!-- Node8 -->
<g id="Node000008" class="node">
<title>Node8</title>
<g id="a_Node000008"><a xlink:href="../../d8/d32/_type_traits_8hpp.html" target="_top" xlink:title=" ">
<polygon fill="white" stroke="#666666" points="373.62,-185 252.62,-185 252.62,-165.75 373.62,-165.75 373.62,-185"/>
<text text-anchor="middle" x="313.12" y="-171.5" font-family="Helvetica,sans-Serif" font-size="10.00">mimic++/TypeTraits.hpp</text>
</a>
</g>
</g>
<!-- Node1&#45;&gt;Node8 -->
<g id="edge7_Node000001_Node000008" class="edge">
<title>Node1&#45;&gt;Node8</title>
<g id="a_edge7_Node000001_Node000008"><a xlink:title=" ">
<path fill="none" stroke="#63b8ff" d="M313.12,-220.83C313.12,-214.32 313.12,-205.17 313.12,-196.87"/>
<polygon fill="#63b8ff" stroke="#63b8ff" points="316.63,-196.87 313.13,-186.87 309.63,-196.87 316.63,-196.87"/>
</a>
</g>
</g>
<!-- Node9 -->
<g id="Node000009" class="node">
<title>Node9</title>
<g id="a_Node000009"><a xlink:title=" ">
<polygon fill="#e0e0e0" stroke="#999999" points="252,-129.75 196.25,-129.75 196.25,-110.5 252,-110.5 252,-129.75"/>
<text text-anchor="middle" x="224.12" y="-116.25" font-family="Helvetica,sans-Serif" font-size="10.00">concepts</text>
</a>
</g>
</g>
<!-- Node1&#45;&gt;Node9 -->
<g id="edge14_Node000001_Node000009" class="edge">
<title>Node1&#45;&gt;Node9</title>
<g id="a_edge14_Node000001_Node000009"><a xlink:title=" ">
<path fill="none" stroke="#63b8ff" d="M291.56,-220.55C276.27,-213.09 256.39,-201.13 244.12,-185 234.32,-172.11 229.27,-154.33 226.69,-140.8"/>
<polygon fill="#63b8ff" stroke="#63b8ff" points="230.22,-140.66 225.2,-131.33 223.3,-141.75 230.22,-140.66"/>
</a>
</g>
</g>
<!-- Node11 -->
<g id="Node000011" class="node">
<title>Node11</title>
<g id="a_Node000011"><a xlink:title=" ">
<polygon fill="#e0e0e0" stroke="#999999" points="490.62,-129.75 453.62,-129.75 453.62,-110.5 490.62,-110.5 490.62,-129.75"/>
<text text-anchor="middle" x="472.12" y="-116.25" font-family="Helvetica,sans-Serif" font-size="10.00">tuple</text>
</a>
</g>
</g>
<!-- Node1&#45;&gt;Node11 -->
<g id="edge16_Node000001_Node000011" class="edge">
<title>Node1&#45;&gt;Node11</title>
<g id="a_edge16_Node000001_Node000011"><a xlink:title=" ">
<path fill="none" stroke="#63b8ff" d="M327.76,-220.62C342.02,-211.77 364.27,-197.76 383.12,-185 406.54,-169.15 432.77,-150.17 450.65,-137.04"/>
<polygon fill="#63b8ff" stroke="#63b8ff" points="452.7,-139.88 458.68,-131.13 448.55,-134.24 452.7,-139.88"/>
</a>
</g>
</g>
<!-- Node13 -->
<g id="Node000013" class="node">
<title>Node13</title>
<g id="a_Node000013"><a xlink:title=" ">
<polygon fill="#e0e0e0" stroke="#999999" points="514.25,-185 430,-185 430,-165.75 514.25,-165.75 514.25,-185"/>
<text text-anchor="middle" x="472.12" y="-171.5" font-family="Helvetica,sans-Serif" font-size="10.00">source_location</text>
</a>
</g>
</g>
<!-- Node1&#45;&gt;Node13 -->
<g id="edge15_Node000001_Node000013" class="edge">
<title>Node1&#45;&gt;Node13</title>
<g id="a_edge15_Node000001_Node000013"><a xlink:title=" ">
<path fill="none" stroke="#63b8ff" d="M340.1,-220.59C366.02,-211.91 405.44,-198.71 434.46,-188.99"/>
<polygon fill="#63b8ff" stroke="#63b8ff" points="435.21,-192.43 443.59,-185.93 432.99,-185.79 435.21,-192.43"/>
</a>
</g>
</g>
<!-- Node3 -->
<g id="Node000003" class="node">
<title>Node3</title>
<g id="a_Node000003"><a xlink:href="../../d8/dd2/_config_8hpp.html" target="_top" xlink:title=" ">
<polygon fill="white" stroke="#666666" points="102.25,-74.5 0,-74.5 0,-55.25 102.25,-55.25 102.25,-74.5"/>
<text text-anchor="middle" x="51.12" y="-61" font-family="Helvetica,sans-Serif" font-size="10.00">mimic++/Config.hpp</text>
</a>
</g>
</g>
<!-- Node2&#45;&gt;Node3 -->
<g id="edge2_Node000002_Node000003" class="edge">
<title>Node2&#45;&gt;Node3</title>
<g id="a_edge2_Node000002_Node000003"><a xlink:title=" ">
<path fill="none" stroke="#63b8ff" d="M117.55,-110.09C105.72,-102.21 88.29,-90.61 74.25,-81.27"/>
<polygon fill="#63b8ff" stroke="#63b8ff" points="76.29,-78.42 66.02,-75.79 72.41,-84.25 76.29,-78.42"/>
</a>
</g>
</g>
<!-- Node6 -->
<g id="Node000006" class="node">
<title>Node6</title>
<g id="a_Node000006"><a xlink:title=" ">
<polygon fill="#e0e0e0" stroke="#999999" points="160.12,-74.5 120.12,-74.5 120.12,-55.25 160.12,-55.25 160.12,-74.5"/>
<text text-anchor="middle" x="140.12" y="-61" font-family="Helvetica,sans-Serif" font-size="10.00">string</text>
</a>
</g>
</g>
<!-- Node2&#45;&gt;Node6 -->
<g id="edge5_Node000002_Node000006" class="edge">
<title>Node2&#45;&gt;Node6</title>
<g id="a_edge5_Node000002_Node000006"><a xlink:title=" ">
<path fill="none" stroke="#63b8ff" d="M132.61,-110.33C133.72,-103.74 135.29,-94.46 136.71,-86.07"/>
<polygon fill="#63b8ff" stroke="#63b8ff" points="140.14,-86.8 138.35,-76.35 133.24,-85.63 140.14,-86.8"/>
</a>
</g>
</g>
<!-- Node7 -->
<g id="Node000007" class="node">
<title>Node7</title>
<g id="a_Node000007"><a xlink:title=" ">
<polygon fill="#e0e0e0" stroke="#999999" points="243.88,-74.5 178.38,-74.5 178.38,-55.25 243.88,-55.25 243.88,-74.5"/>
<text text-anchor="middle" x="211.12" y="-61" font-family="Helvetica,sans-Serif" font-size="10.00">string_view</text>
</a>
</g>
</g>
<!-- Node2&#45;&gt;Node7 -->
<g id="edge6_Node000002_Node000007" class="edge">
<title>Node2&#45;&gt;Node7</title>
<g id="a_edge6_Node000002_Node000007"><a xlink:title=" ">
<path fill="none" stroke="#63b8ff" d="M144.7,-110.09C156.53,-102.21 173.96,-90.61 188,-81.27"/>
<polygon fill="#63b8ff" stroke="#63b8ff" points="189.84,-84.25 196.23,-75.79 185.96,-78.42 189.84,-84.25"/>
</a>
</g>
</g>
<!-- Node4 -->
<g id="Node000004" class="node">
<title>Node4</title>
<g id="a_Node000004"><a xlink:title=" ">
<polygon fill="#e0e0e0" stroke="#999999" points="215.75,-19.25 170.5,-19.25 170.5,0 215.75,0 215.75,-19.25"/>
<text text-anchor="middle" x="193.12" y="-5.75" font-family="Helvetica,sans-Serif" font-size="10.00">cstdint</text>
</a>
</g>
</g>
<!-- Node3&#45;&gt;Node4 -->
<g id="edge3_Node000003_Node000004" class="edge">
<title>Node3&#45;&gt;Node4</title>
<g id="a_edge3_Node000003_Node000004"><a xlink:title=" ">
<path fill="none" stroke="#63b8ff" d="M75.21,-54.84C98.48,-46.12 133.9,-32.83 159.85,-23.1"/>
<polygon fill="#63b8ff" stroke="#63b8ff" points="160.78,-26.49 168.91,-19.7 158.32,-19.94 160.78,-26.49"/>
</a>
</g>
</g>
<!-- Node5 -->
<g id="Node000005" class="node">
<title>Node5</title>
<g id="a_Node000005"><a xlink:title=" ">
<polygon fill="#e0e0e0" stroke="#999999" points="74.88,-19.25 27.38,-19.25 27.38,0 74.88,0 74.88,-19.25"/>
<text text-anchor="middle" x="51.12" y="-5.75" font-family="Helvetica,sans-Serif" font-size="10.00">version</text>
</a>
</g>
</g>
<!-- Node3&#45;&gt;Node5 -->
<g id="edge4_Node000003_Node000005" class="edge">
<title>Node3&#45;&gt;Node5</title>
<g id="a_edge4_Node000003_Node000005"><a xlink:title=" ">
<path fill="none" stroke="#63b8ff" d="M51.12,-55.08C51.12,-48.57 51.12,-39.42 51.12,-31.12"/>
<polygon fill="#63b8ff" stroke="#63b8ff" points="54.63,-31.12 51.13,-21.12 47.63,-31.12 54.63,-31.12"/>
</a>
</g>
</g>
<!-- Node8&#45;&gt;Node2 -->
<g id="edge8_Node000008_Node000002" class="edge">
<title>Node8&#45;&gt;Node2</title>
<g id="a_edge8_Node000008_Node000002"><a xlink:title=" ">
<path fill="none" stroke="#63b8ff" d="M282.25,-165.34C252.18,-156.54 206.26,-143.11 172.93,-133.36"/>
<polygon fill="#63b8ff" stroke="#63b8ff" points="174.18,-130.08 163.6,-130.63 172.22,-136.79 174.18,-130.08"/>
</a>
</g>
</g>
<!-- Node8&#45;&gt;Node4 -->
<g id="edge11_Node000008_Node000004" class="edge">
<title>Node8&#45;&gt;Node4</title>
<g id="a_edge11_Node000008_Node000004"><a xlink:title=" ">
<path fill="none" stroke="#63b8ff" d="M310.26,-165.49C303.18,-144.53 283.22,-91.06 253.12,-55.25 243.5,-43.8 230.38,-33.61 218.87,-25.88"/>
<polygon fill="#63b8ff" stroke="#63b8ff" points="220.87,-23 210.56,-20.55 217.09,-28.9 220.87,-23"/>
</a>
</g>
</g>
<!-- Node8&#45;&gt;Node9 -->
<g id="edge9_Node000008_Node000009" class="edge">
<title>Node8&#45;&gt;Node9</title>
<g id="a_edge9_Node000008_Node000009"><a xlink:title=" ">
<path fill="none" stroke="#63b8ff" d="M298.03,-165.34C284.6,-157.31 264.71,-145.41 248.95,-135.98"/>
<polygon fill="#63b8ff" stroke="#63b8ff" points="250.97,-133.11 240.6,-130.98 247.38,-139.12 250.97,-133.11"/>
</a>
</g>
</g>
<!-- Node10 -->
<g id="Node000010" class="node">
<title>Node10</title>
<g id="a_Node000010"><a xlink:title=" ">
<polygon fill="#e0e0e0" stroke="#999999" points="356.25,-129.75 308,-129.75 308,-110.5 356.25,-110.5 356.25,-129.75"/>
<text text-anchor="middle" x="332.12" y="-116.25" font-family="Helvetica,sans-Serif" font-size="10.00">cstddef</text>
</a>
</g>
</g>
<!-- Node8&#45;&gt;Node10 -->
<g id="edge10_Node000008_Node000010" class="edge">
<title>Node8&#45;&gt;Node10</title>
<g id="a_edge10_Node000008_Node000010"><a xlink:title=" ">
<path fill="none" stroke="#63b8ff" d="M316.26,-165.58C318.67,-158.84 322.08,-149.27 325.13,-140.74"/>
<polygon fill="#63b8ff" stroke="#63b8ff" points="328.35,-142.13 328.41,-131.53 321.75,-139.78 328.35,-142.13"/>
</a>
</g>
</g>
<!-- Node8&#45;&gt;Node11 -->
<g id="edge12_Node000008_Node000011" class="edge">
<title>Node8&#45;&gt;Node11</title>
<g id="a_edge12_Node000008_Node000011"><a xlink:title=" ">
<path fill="none" stroke="#63b8ff" d="M340.1,-165.34C368.57,-155.81 413.31,-140.82 442.68,-130.99"/>
<polygon fill="#63b8ff" stroke="#63b8ff" points="443.69,-134.34 452.06,-127.85 441.46,-127.7 443.69,-134.34"/>
</a>
</g>
</g>
<!-- Node12 -->
<g id="Node000012" class="node">
<title>Node12</title>
<g id="a_Node000012"><a xlink:title=" ">
<polygon fill="#e0e0e0" stroke="#999999" points="435.62,-129.75 374.62,-129.75 374.62,-110.5 435.62,-110.5 435.62,-129.75"/>
<text text-anchor="middle" x="405.12" y="-116.25" font-family="Helvetica,sans-Serif" font-size="10.00">type_traits</text>
</a>
</g>
</g>
<!-- Node8&#45;&gt;Node12 -->
<g id="edge13_Node000008_Node000012" class="edge">
<title>Node8&#45;&gt;Node12</title>
<g id="a_edge13_Node000008_Node000012"><a xlink:title=" ">
<path fill="none" stroke="#63b8ff" d="M328.73,-165.34C342.74,-157.23 363.56,-145.18 379.93,-135.71"/>
<polygon fill="#63b8ff" stroke="#63b8ff" points="381.23,-139 388.13,-130.96 377.72,-132.94 381.23,-139"/>
</a>
</g>
</g>
</g>
</svg>
