<?xml version="1.0" encoding="UTF-8" standalone="no"?>
<!DOCTYPE svg PUBLIC "-//W3C//DTD SVG 1.1//EN"
 "http://www.w3.org/Graphics/SVG/1.1/DTD/svg11.dtd">
<!-- Generated by graphviz version 12.2.1 (20241206.2353)
 -->
<!-- Title: mimicpp::printing::type::parsing::token::Function Pages: 1 -->
<!--zoomable 265 -->

<svg id="main" version="1.1" xmlns="http://www.w3.org/2000/svg" xmlns:xlink="http://www.w3.org/1999/xlink" xml:space="preserve" onload="init(evt)">

<style type="text/css"><![CDATA[
.node, .edge {opacity: 0.7;}
.node.selected, .edge.selected {opacity: 1;}
.edge:hover path { stroke: red; }
.edge:hover polygon { stroke: red; fill: red; }
]]></style>

<defs>
  <circle id="rim" cx="0" cy="0" r="7"/>
  <circle id="rim2" cx="0" cy="0" r="3.5"/>
  <g id="zoomPlus">
    <use xlink:href="#rim" fill="#404040"><set attributeName="fill" to="#808080" begin="zoomplus.mouseover" end="zoomplus.mouseout"/></use>
    <path d="M-4,0h8M0,-4v8" fill="none" stroke="white" stroke-width="1.5" pointer-events="none"/>
  </g>
  <g id="zoomMin">
    <use xlink:href="#rim" fill="#404040"><set attributeName="fill" to="#808080" begin="zoomminus.mouseover" end="zoomminus.mouseout"/></use>
    <path d="M-4,0h8" fill="none" stroke="white" stroke-width="1.5" pointer-events="none"/>
  </g>
  <g id="arrowUp" transform="translate(30 24)">
    <use xlink:href="#rim"/>
    <path pointer-events="none" fill="none" stroke="white" stroke-width="1.5" d="M0,-3.0v7 M-2.5,-0.5L0,-3.0L2.5,-0.5"/>
  </g>
  <g id="arrowRight" transform="rotate(90) translate(36 -43)">
    <use xlink:href="#rim"/>
    <path pointer-events="none" fill="none" stroke="white" stroke-width="1.5" d="M0,-3.0v7 M-2.5,-0.5L0,-3.0L2.5,-0.5"/>
  </g>
  <g id="arrowDown" transform="rotate(180) translate(-30 -48)">
    <use xlink:href="#rim"/>
    <path pointer-events="none" fill="none" stroke="white" stroke-width="1.5" d="M0,-3.0v7 M-2.5,-0.5L0,-3.0L2.5,-0.5"/>
  </g>
  <g id="arrowLeft" transform="rotate(270) translate(-36 17)">
    <use xlink:href="#rim"/>
    <path pointer-events="none" fill="none" stroke="white" stroke-width="1.5" d="M0,-3.0v7 M-2.5,-0.5L0,-3.0L2.5,-0.5"/>
  </g>
  <g id="resetDef">
    <use xlink:href="#rim2" fill="#404040"><set attributeName="fill" to="#808080" begin="reset.mouseover" end="reset.mouseout"/></use>
  </g>
</defs>
<script type="application/ecmascript">
var viewWidth = 1157;
var viewHeight = 265;
var sectionId = 'dynsection-0';
</script>
<script type="application/ecmascript" xlink:href="../../svg.min.js"/>
<svg id="graph" class="graph">
<g id="viewport">
<title>mimicpp::printing::type::parsing::token::Function</title>
<!-- Node1 -->
<g id="Node000001" class="node">
<title>Node1</title>
<g id="a_Node000001"><a xlink:title=" ">
<polygon fill="#999999" stroke="#666666" points="1149.3,-203.75 1050.8,-203.75 1050.8,-162 1149.3,-162 1149.3,-203.75"/>
<text text-anchor="start" x="1058.8" y="-190.25" font-family="Helvetica,sans-Serif" font-size="10.00">mimicpp::printing::</text>
<text text-anchor="start" x="1058.8" y="-179" font-family="Helvetica,sans-Serif" font-size="10.00">type::parsing::token</text>
<text text-anchor="middle" x="1100.05" y="-167.75" font-family="Helvetica,sans-Serif" font-size="10.00">::Function</text>
</a>
</g>
</g>
<!-- Node2 -->
<g id="Node000002" class="node">
<title>Node2</title>
<g id="a_Node000002"><a xlink:title=" ">
<polygon fill="white" stroke="#666666" points="478.55,-231.75 353.8,-231.75 353.8,-190 478.55,-190 478.55,-231.75"/>
<text text-anchor="start" x="361.8" y="-218.25" font-family="Helvetica,sans-Serif" font-size="10.00">std::shared_ptr&lt; mimicpp</text>
<text text-anchor="start" x="361.8" y="-207" font-family="Helvetica,sans-Serif" font-size="10.00">::printing::type::parsing</text>
<text text-anchor="middle" x="416.18" y="-195.75" font-family="Helvetica,sans-Serif" font-size="10.00">::token::Type &gt;</text>
</a>
</g>
</g>
<!-- Node2&#45;&gt;Node1 -->
<g id="edge1_Node000001_Node000002" class="edge">
<title>Node2&#45;&gt;Node1</title>
<g id="a_edge1_Node000001_Node000002"><a xlink:title=" ">
<path fill="none" stroke="#9a32cd" stroke-dasharray="5,2" d="M490.1,-210.88C521.08,-210.88 557.58,-210.88 590.55,-210.88 590.55,-210.88 590.55,-210.88 928.3,-210.88 969.91,-210.88 1016.47,-202.68 1050.45,-195.16"/>
<polygon fill="#9a32cd" stroke="#9a32cd" points="490.47,-207.38 480.47,-210.88 490.47,-214.38 490.47,-207.38"/>
</a>
</g>
<text text-anchor="middle" x="754.55" y="-212.62" font-family="Helvetica,sans-Serif" font-size="10.00" fill="grey"> returnType</text>
</g>
<!-- Node3 -->
<g id="Node000003" class="node">
<title>Node3</title>
<g id="a_Node000003"><a xlink:href="../../d1/da5/classmimicpp_1_1printing_1_1type_1_1parsing_1_1token_1_1_type.html" target="_top" xlink:title=" ">
<polygon fill="white" stroke="#666666" points="230.8,-190.12 106.8,-190.12 106.8,-159.62 230.8,-159.62 230.8,-190.12"/>
<text text-anchor="start" x="114.8" y="-176.62" font-family="Helvetica,sans-Serif" font-size="10.00">mimicpp::printing::</text>
<text text-anchor="middle" x="168.8" y="-165.38" font-family="Helvetica,sans-Serif" font-size="10.00">type::parsing::token::Type</text>
</a>
</g>
</g>
<!-- Node3&#45;&gt;Node2 -->
<g id="edge2_Node000002_Node000003" class="edge">
<title>Node3&#45;&gt;Node2</title>
<g id="a_edge2_Node000002_Node000003"><a xlink:title=" ">
<path fill="none" stroke="#9a32cd" stroke-dasharray="5,2" d="M242.3,-185.51C277.61,-190.69 319.63,-196.86 353.39,-201.81"/>
<polygon fill="#9a32cd" stroke="#9a32cd" points="242.99,-182.07 232.58,-184.09 241.97,-189 242.99,-182.07"/>
</a>
</g>
<text text-anchor="middle" x="292.3" y="-199.95" font-family="Helvetica,sans-Serif" font-size="10.00" fill="grey"> ptr</text>
</g>
<!-- Node10 -->
<g id="Node000010" class="node">
<title>Node10</title>
<g id="a_Node000010"><a xlink:title=" ">
<polygon fill="white" stroke="#666666" points="471.43,-134.75 360.93,-134.75 360.93,-93 471.43,-93 471.43,-134.75"/>
<text text-anchor="start" x="368.93" y="-121.25" font-family="Helvetica,sans-Serif" font-size="10.00">std::vector&lt; mimicpp</text>
<text text-anchor="start" x="368.93" y="-110" font-family="Helvetica,sans-Serif" font-size="10.00">::printing::type::parsing</text>
<text text-anchor="middle" x="416.18" y="-98.75" font-family="Helvetica,sans-Serif" font-size="10.00">::token::Type &gt;</text>
</a>
</g>
</g>
<!-- Node3&#45;&gt;Node10 -->
<g id="edge10_Node000010_Node000003" class="edge">
<title>Node3&#45;&gt;Node10</title>
<g id="a_edge10_Node000010_Node000003"><a xlink:title=" ">
<path fill="none" stroke="#9a32cd" stroke-dasharray="5,2" d="M242.26,-166.3C271.63,-161.88 305.67,-155.56 335.8,-146.88 346.7,-143.73 358.12,-139.55 368.8,-135.22"/>
<polygon fill="#9a32cd" stroke="#9a32cd" points="242.14,-162.78 232.75,-167.68 243.15,-169.7 242.14,-162.78"/>
</a>
</g>
<text text-anchor="middle" x="292.3" y="-166.76" font-family="Helvetica,sans-Serif" font-size="10.00" fill="grey"> elements</text>
</g>
<!-- Node4 -->
<g id="Node000004" class="node">
<title>Node4</title>
<g id="a_Node000004"><a xlink:title=" ">
<polygon fill="white" stroke="#666666" points="219.93,-239.5 117.68,-239.5 117.68,-220.25 219.93,-220.25 219.93,-239.5"/>
<text text-anchor="middle" x="168.8" y="-226" font-family="Helvetica,sans-Serif" font-size="10.00">std::shared_ptr&lt; T &gt;</text>
</a>
</g>
</g>
<!-- Node4&#45;&gt;Node2 -->
<g id="edge3_Node000002_Node000004" class="edge">
<title>Node4&#45;&gt;Node2</title>
<g id="a_edge3_Node000002_Node000004"><a xlink:title=" ">
<path fill="none" stroke="orange" stroke-dasharray="5,2" d="M231.56,-225.09C268.82,-222.21 316.12,-218.54 353.38,-215.66"/>
<polygon fill="orange" stroke="orange" points="231.55,-221.58 221.85,-225.84 232.09,-228.56 231.55,-221.58"/>
</a>
</g>
<text text-anchor="start" x="248.8" y="-247.98" font-family="Helvetica,sans-Serif" font-size="10.00" fill="grey"> &lt; mimicpp::printing</text>
<text text-anchor="start" x="248.8" y="-236.73" font-family="Helvetica,sans-Serif" font-size="10.00" fill="grey">::type::parsing::token</text>
<text text-anchor="middle" x="292.3" y="-225.48" font-family="Helvetica,sans-Serif" font-size="10.00" fill="grey">::Type &gt;</text>
</g>
<!-- Node5 -->
<g id="Node000005" class="node">
<title>Node5</title>
<g id="a_Node000005"><a xlink:title=" ">
<polygon fill="white" stroke="#666666" points="28.8,-177.5 0,-177.5 0,-158.25 28.8,-158.25 28.8,-177.5"/>
<text text-anchor="middle" x="14.4" y="-164" font-family="Helvetica,sans-Serif" font-size="10.00">T</text>
</a>
</g>
</g>
<!-- Node5&#45;&gt;Node4 -->
<g id="edge4_Node000004_Node000005" class="edge">
<title>Node5&#45;&gt;Node4</title>
<g id="a_edge4_Node000004_Node000005"><a xlink:title=" ">
<path fill="none" stroke="#9a32cd" stroke-dasharray="5,2" d="M39.76,-177.78C68.04,-189.29 114.44,-208.16 142.93,-219.76"/>
<polygon fill="#9a32cd" stroke="#9a32cd" points="41.18,-174.58 30.6,-174.06 38.54,-181.07 41.18,-174.58"/>
</a>
</g>
<text text-anchor="middle" x="67.8" y="-198.77" font-family="Helvetica,sans-Serif" font-size="10.00" fill="grey"> ptr</text>
</g>
<!-- Node11 -->
<g id="Node000011" class="node">
<title>Node11</title>
<g id="a_Node000011"><a xlink:title=" ">
<polygon fill="white" stroke="#666666" points="210.55,-121.5 127.05,-121.5 127.05,-102.25 210.55,-102.25 210.55,-121.5"/>
<text text-anchor="middle" x="168.8" y="-108" font-family="Helvetica,sans-Serif" font-size="10.00">std::vector&lt; T &gt;</text>
</a>
</g>
</g>
<!-- Node5&#45;&gt;Node11 -->
<g id="edge12_Node000011_Node000005" class="edge">
<title>Node5&#45;&gt;Node11</title>
<g id="a_edge12_Node000011_Node000005"><a xlink:title=" ">
<path fill="none" stroke="#9a32cd" stroke-dasharray="5,2" d="M39.82,-158.9C67.28,-148.81 111.77,-132.46 140.39,-121.95"/>
<polygon fill="#9a32cd" stroke="#9a32cd" points="38.79,-155.55 30.61,-162.28 41.21,-162.12 38.79,-155.55"/>
</a>
</g>
<text text-anchor="middle" x="67.8" y="-157.53" font-family="Helvetica,sans-Serif" font-size="10.00" fill="grey"> elements</text>
</g>
<!-- Node6 -->
<g id="Node000006" class="node">
<title>Node6</title>
<g id="a_Node000006"><a xlink:href="../../d4/d09/classmimicpp_1_1printing_1_1type_1_1parsing_1_1token_1_1_function_identifier.html" target="_top" xlink:title=" ">
<polygon fill="white" stroke="#666666" points="976.55,-174.75 878.05,-174.75 878.05,-133 976.55,-133 976.55,-174.75"/>
<text text-anchor="start" x="886.05" y="-161.25" font-family="Helvetica,sans-Serif" font-size="10.00">mimicpp::printing::</text>
<text text-anchor="start" x="886.05" y="-150" font-family="Helvetica,sans-Serif" font-size="10.00">type::parsing::token</text>
<text text-anchor="middle" x="927.3" y="-138.75" font-family="Helvetica,sans-Serif" font-size="10.00">::FunctionIdentifier</text>
</a>
</g>
</g>
<!-- Node6&#45;&gt;Node1 -->
<g id="edge5_Node000001_Node000006" class="edge">
<title>Node6&#45;&gt;Node1</title>
<g id="a_edge5_Node000001_Node000006"><a xlink:title=" ">
<path fill="none" stroke="#9a32cd" stroke-dasharray="5,2" d="M987.88,-163.99C1008.34,-167.47 1030.98,-171.31 1050.46,-174.62"/>
<polygon fill="#9a32cd" stroke="#9a32cd" points="988.71,-160.59 978.27,-162.36 987.54,-167.49 988.71,-160.59"/>
</a>
</g>
<text text-anchor="middle" x="1013.68" y="-172.72" font-family="Helvetica,sans-Serif" font-size="10.00" fill="grey"> identifier</text>
</g>
<!-- Node7 -->
<g id="Node000007" class="node">
<title>Node7</title>
<g id="a_Node000007"><a xlink:href="../../d3/de0/classmimicpp_1_1printing_1_1type_1_1parsing_1_1token_1_1_identifier.html" target="_top" xlink:title=" ">
<polygon fill="white" stroke="#666666" points="803.8,-174.75 705.3,-174.75 705.3,-133 803.8,-133 803.8,-174.75"/>
<text text-anchor="start" x="713.3" y="-161.25" font-family="Helvetica,sans-Serif" font-size="10.00">mimicpp::printing::</text>
<text text-anchor="start" x="713.3" y="-150" font-family="Helvetica,sans-Serif" font-size="10.00">type::parsing::token</text>
<text text-anchor="middle" x="754.55" y="-138.75" font-family="Helvetica,sans-Serif" font-size="10.00">::Identifier</text>
</a>
</g>
</g>
<!-- Node7&#45;&gt;Node6 -->
<g id="edge6_Node000006_Node000007" class="edge">
<title>Node7&#45;&gt;Node6</title>
<g id="a_edge6_Node000006_Node000007"><a xlink:title=" ">
<path fill="none" stroke="#9a32cd" stroke-dasharray="5,2" d="M815.41,-153.88C835.8,-153.88 858.32,-153.88 877.71,-153.88"/>
<polygon fill="#9a32cd" stroke="#9a32cd" points="815.54,-150.38 805.54,-153.88 815.54,-157.38 815.54,-150.38"/>
</a>
</g>
<text text-anchor="middle" x="840.93" y="-155.62" font-family="Helvetica,sans-Serif" font-size="10.00" fill="grey"> identifier</text>
</g>
<!-- Node8 -->
<g id="Node000008" class="node">
<title>Node8</title>
<g id="a_Node000008"><a xlink:href="../../d8/dd3/classmimicpp_1_1printing_1_1type_1_1parsing_1_1token_1_1_function_context.html" target="_top" xlink:title=" ">
<polygon fill="white" stroke="#666666" points="803.8,-114.75 705.3,-114.75 705.3,-73 803.8,-73 803.8,-114.75"/>
<text text-anchor="start" x="713.3" y="-101.25" font-family="Helvetica,sans-Serif" font-size="10.00">mimicpp::printing::</text>
<text text-anchor="start" x="713.3" y="-90" font-family="Helvetica,sans-Serif" font-size="10.00">type::parsing::token</text>
<text text-anchor="middle" x="754.55" y="-78.75" font-family="Helvetica,sans-Serif" font-size="10.00">::FunctionContext</text>
</a>
</g>
</g>
<!-- Node8&#45;&gt;Node6 -->
<g id="edge7_Node000006_Node000008" class="edge">
<title>Node8&#45;&gt;Node6</title>
<g id="a_edge7_Node000006_Node000008"><a xlink:title=" ">
<path fill="none" stroke="#9a32cd" stroke-dasharray="5,2" d="M814.85,-114.71C835.38,-121.93 858.14,-129.92 877.71,-136.8"/>
<polygon fill="#9a32cd" stroke="#9a32cd" points="816.05,-111.42 805.45,-111.41 813.73,-118.03 816.05,-111.42"/>
</a>
</g>
<text text-anchor="middle" x="840.93" y="-131" font-family="Helvetica,sans-Serif" font-size="10.00" fill="grey"> context</text>
</g>
<!-- Node9 -->
<g id="Node000009" class="node">
<title>Node9</title>
<g id="a_Node000009"><a xlink:href="../../d6/d54/classmimicpp_1_1printing_1_1type_1_1parsing_1_1token_1_1_arg_sequence.html" target="_top" xlink:title=" ">
<polygon fill="white" stroke="#666666" points="640.8,-134.75 542.3,-134.75 542.3,-93 640.8,-93 640.8,-134.75"/>
<text text-anchor="start" x="550.3" y="-121.25" font-family="Helvetica,sans-Serif" font-size="10.00">mimicpp::printing::</text>
<text text-anchor="start" x="550.3" y="-110" font-family="Helvetica,sans-Serif" font-size="10.00">type::parsing::token</text>
<text text-anchor="middle" x="591.55" y="-98.75" font-family="Helvetica,sans-Serif" font-size="10.00">::ArgSequence</text>
</a>
</g>
</g>
<!-- Node9&#45;&gt;Node8 -->
<g id="edge8_Node000008_Node000009" class="edge">
<title>Node9&#45;&gt;Node8</title>
<g id="a_edge8_Node000008_Node000009"><a xlink:title=" ">
<path fill="none" stroke="#9a32cd" stroke-dasharray="5,2" d="M652.44,-106.44C669.76,-104.28 688.44,-101.96 704.97,-99.91"/>
<polygon fill="#9a32cd" stroke="#9a32cd" points="652.29,-102.93 642.79,-107.63 653.15,-109.87 652.29,-102.93"/>
</a>
</g>
<text text-anchor="middle" x="673.05" y="-106.82" font-family="Helvetica,sans-Serif" font-size="10.00" fill="grey"> args</text>
</g>
<!-- Node10&#45;&gt;Node9 -->
<g id="edge9_Node000009_Node000010" class="edge">
<title>Node10&#45;&gt;Node9</title>
<g id="a_edge9_Node000009_Node000010"><a xlink:title=" ">
<path fill="none" stroke="#9a32cd" stroke-dasharray="5,2" d="M482.89,-113.88C502.5,-113.88 523.64,-113.88 541.94,-113.88"/>
<polygon fill="#9a32cd" stroke="#9a32cd" points="483.07,-110.38 473.07,-113.88 483.07,-117.38 483.07,-110.38"/>
</a>
</g>
<text text-anchor="middle" x="510.43" y="-115.62" font-family="Helvetica,sans-Serif" font-size="10.00" fill="grey"> types</text>
</g>
<!-- Node11&#45;&gt;Node10 -->
<g id="edge11_Node000010_Node000011" class="edge">
<title>Node11&#45;&gt;Node10</title>
<g id="a_edge11_Node000010_Node000011"><a xlink:title=" ">
<path fill="none" stroke="orange" stroke-dasharray="5,2" d="M221.85,-112.24C254.56,-112.48 297.65,-112.8 335.8,-113.12 343.79,-113.19 352.24,-113.27 360.52,-113.34"/>
<polygon fill="orange" stroke="orange" points="222.27,-108.74 212.25,-112.17 222.22,-115.74 222.27,-108.74"/>
</a>
</g>
<text text-anchor="start" x="248.8" y="-137.38" font-family="Helvetica,sans-Serif" font-size="10.00" fill="grey"> &lt; mimicpp::printing</text>
<text text-anchor="start" x="248.8" y="-126.12" font-family="Helvetica,sans-Serif" font-size="10.00" fill="grey">::type::parsing::token</text>
<text text-anchor="middle" x="292.3" y="-114.88" font-family="Helvetica,sans-Serif" font-size="10.00" fill="grey">::Type &gt;</text>
</g>
<!-- Node13 -->
<g id="Node000013" class="node">
<title>Node13</title>
<g id="a_Node000013"><a xlink:title=" ">
<polygon fill="white" stroke="#666666" points="472.93,-74.75 359.43,-74.75 359.43,-33 472.93,-33 472.93,-74.75"/>
<text text-anchor="start" x="367.43" y="-61.25" font-family="Helvetica,sans-Serif" font-size="10.00">std::vector&lt; mimicpp</text>
<text text-anchor="start" x="367.43" y="-50" font-family="Helvetica,sans-Serif" font-size="10.00">::printing::type::parsing</text>
<text text-anchor="middle" x="416.18" y="-38.75" font-family="Helvetica,sans-Serif" font-size="10.00">::token::Specs::Layer &gt;</text>
</a>
</g>
</g>
<!-- Node11&#45;&gt;Node13 -->
<g id="edge16_Node000013_Node000011" class="edge">
<title>Node11&#45;&gt;Node13</title>
<g id="a_edge16_Node000013_Node000011"><a xlink:title=" ">
<path fill="none" stroke="orange" stroke-dasharray="5,2" d="M197.39,-96.48C212.2,-88.88 231.03,-80.26 248.8,-75.12 284.75,-64.74 326.53,-59.43 359.23,-56.71"/>
<polygon fill="orange" stroke="orange" points="195.93,-93.29 188.72,-101.06 199.2,-99.48 195.93,-93.29"/>
</a>
</g>
<text text-anchor="start" x="248.8" y="-99.38" font-family="Helvetica,sans-Serif" font-size="10.00" fill="grey"> &lt; mimicpp::printing</text>
<text text-anchor="start" x="248.8" y="-88.12" font-family="Helvetica,sans-Serif" font-size="10.00" fill="grey">::type::parsing::token</text>
<text text-anchor="middle" x="292.3" y="-76.88" font-family="Helvetica,sans-Serif" font-size="10.00" fill="grey">::Specs::Layer &gt;</text>
</g>
<!-- Node12 -->
<g id="Node000012" class="node">
<title>Node12</title>
<g id="a_Node000012"><a xlink:href="../../de/db7/classmimicpp_1_1printing_1_1type_1_1parsing_1_1token_1_1_specs.html" target="_top" xlink:title=" ">
<polygon fill="white" stroke="#666666" points="640.8,-74.75 542.3,-74.75 542.3,-33 640.8,-33 640.8,-74.75"/>
<text text-anchor="start" x="550.3" y="-61.25" font-family="Helvetica,sans-Serif" font-size="10.00">mimicpp::printing::</text>
<text text-anchor="start" x="550.3" y="-50" font-family="Helvetica,sans-Serif" font-size="10.00">type::parsing::token</text>
<text text-anchor="middle" x="591.55" y="-38.75" font-family="Helvetica,sans-Serif" font-size="10.00">::Specs</text>
</a>
</g>
</g>
<!-- Node12&#45;&gt;Node8 -->
<g id="edge13_Node000008_Node000012" class="edge">
<title>Node12&#45;&gt;Node8</title>
<g id="a_edge13_Node000008_Node000012"><a xlink:title=" ">
<path fill="none" stroke="#9a32cd" stroke-dasharray="5,2" d="M652.44,-68.75C669.76,-73.06 688.44,-77.7 704.97,-81.81"/>
<polygon fill="#9a32cd" stroke="#9a32cd" points="653.31,-65.36 642.76,-66.35 651.62,-72.16 653.31,-65.36"/>
</a>
</g>
<text text-anchor="middle" x="673.05" y="-78.02" font-family="Helvetica,sans-Serif" font-size="10.00" fill="grey"> specs</text>
</g>
<!-- Node13&#45;&gt;Node12 -->
<g id="edge14_Node000012_Node000013" class="edge">
<title>Node13&#45;&gt;Node12</title>
<g id="a_edge14_Node000012_Node000013"><a xlink:title=" ">
<path fill="none" stroke="#9a32cd" stroke-dasharray="5,2" d="M484.39,-53.88C503.54,-53.88 524.03,-53.88 541.85,-53.88"/>
<polygon fill="#9a32cd" stroke="#9a32cd" points="484.5,-50.38 474.5,-53.88 484.5,-57.38 484.5,-50.38"/>
</a>
</g>
<text text-anchor="middle" x="510.43" y="-55.62" font-family="Helvetica,sans-Serif" font-size="10.00" fill="grey"> layers</text>
</g>
<!-- Node14 -->
<g id="Node000014" class="node">
<title>Node14</title>
<g id="a_Node000014"><a xlink:href="../../d4/dcb/structmimicpp_1_1printing_1_1type_1_1parsing_1_1token_1_1_specs_1_1_layer.html" target="_top" xlink:title=" ">
<polygon fill="white" stroke="#666666" points="218.05,-41.75 119.55,-41.75 119.55,0 218.05,0 218.05,-41.75"/>
<text text-anchor="start" x="127.55" y="-28.25" font-family="Helvetica,sans-Serif" font-size="10.00">mimicpp::printing::</text>
<text text-anchor="start" x="127.55" y="-17" font-family="Helvetica,sans-Serif" font-size="10.00">type::parsing::token</text>
<text text-anchor="middle" x="168.8" y="-5.75" font-family="Helvetica,sans-Serif" font-size="10.00">::Specs::Layer</text>
</a>
</g>
</g>
<!-- Node14&#45;&gt;Node13 -->
<g id="edge15_Node000013_Node000014" class="edge">
<title>Node14&#45;&gt;Node13</title>
<g id="a_edge15_Node000013_Node000014"><a xlink:title=" ">
<path fill="none" stroke="#9a32cd" stroke-dasharray="5,2" d="M229.58,-15.7C261.41,-14.31 301.05,-14.75 335.8,-21.62 347.62,-23.96 359.91,-28.05 371.18,-32.54"/>
<polygon fill="#9a32cd" stroke="#9a32cd" points="229.54,-12.2 219.74,-16.21 229.9,-19.19 229.54,-12.2"/>
</a>
</g>
<text text-anchor="middle" x="292.3" y="-23.38" font-family="Helvetica,sans-Serif" font-size="10.00" fill="grey"> elements</text>
</g>
</g>
</svg>

<g id="navigator" transform="translate(0 0)" fill="#404254">
  <rect fill="#f2f5e9" fill-opacity="0.5" stroke="#606060" stroke-width=".5" x="0" y="0" width="60" height="60"/>
  <use id="zoomplus" xlink:href="#zoomPlus" x="17" y="9" onmousedown="handleZoom(evt,'in')"/>
  <use id="zoomminus" xlink:href="#zoomMin" x="42" y="9" onmousedown="handleZoom(evt,'out')"/>
  <use id="reset" xlink:href="#resetDef" x="30" y="36" onmousedown="handleReset()"/>
   <use id="arrowup" xlink:href="#arrowUp" x="0" y="0" onmousedown="handlePan(0,-1)"/>
  <use id="arrowright" xlink:href="#arrowRight" x="0" y="0" onmousedown="handlePan(1,0)"/>
  <use id="arrowdown" xlink:href="#arrowDown" x="0" y="0" onmousedown="handlePan(0,1)"/>
  <use id="arrowleft" xlink:href="#arrowLeft" x="0" y="0" onmousedown="handlePan(-1,0)"/>
</g>
<svg viewBox="0 0 15 15" width="100%" height="30px" preserveAspectRatio="xMaxYMin meet">
 <g id="arrow_out" transform="scale(0.3 0.3)">
  <a xlink:href="classmimicpp_1_1printing_1_1type_1_1parsing_1_1token_1_1_function__coll__graph_org.svg" target="_base">
   <rect id="button" ry="5" rx="5" y="6" x="6" height="38" width="38"
        fill="#f2f5e9" fill-opacity="0.5" stroke="#606060" stroke-width="1.0"/>
   <path id="arrow"
     d="M 11.500037,31.436501 C 11.940474,20.09759 22.043105,11.32322 32.158766,21.979434 L 37.068811,17.246167 C 37.068811,17.246167 37.088388,32 37.088388,32 L 22.160133,31.978069 C 22.160133,31.978069 26.997745,27.140456 26.997745,27.140456 C 18.528582,18.264221 13.291696,25.230495 11.500037,31.436501 z"
     style="fill:#404040;"/>
  </a>
 </g>
</svg>

<style type='text/css'>
<![CDATA[
[data-mouse-over-selected='false'] { opacity: 0.7; }
[data-mouse-over-selected='true']  { opacity: 1.0; }
]]>
</style>
<script type="application/ecmascript"><![CDATA[
document.addEventListener('DOMContentLoaded', (event) => {
  highlightEdges();
  highlightAdjacentNodes();
});
]]></script>
</svg>
