<?xml version="1.0" encoding="UTF-8" standalone="no"?>
<!DOCTYPE svg PUBLIC "-//W3C//DTD SVG 1.1//EN"
 "http://www.w3.org/Graphics/SVG/1.1/DTD/svg11.dtd">
<!-- Generated by graphviz version 12.2.1 (20241206.2353)
 -->
<!-- Title: mimicpp::printing::type::parsing::unwrap_visitor Pages: 1 -->
<svg width="448pt" height="730pt"
 viewBox="0.00 0.00 448.25 730.38" xmlns="http://www.w3.org/2000/svg" xmlns:xlink="http://www.w3.org/1999/xlink">
<g id="graph0" class="graph" transform="scale(1 1) rotate(0) translate(4 726.38)">
<title>mimicpp::printing::type::parsing::unwrap_visitor</title>
<!-- Node1 -->
<g id="Node000001" class="node">
<title>Node1</title>
<g id="a_Node000001"><a xlink:title=" ">
<polygon fill="#999999" stroke="#666666" points="440.25,-371.75 334.25,-371.75 334.25,-330 440.25,-330 440.25,-371.75"/>
<text text-anchor="start" x="342.25" y="-358.25" font-family="Helvetica,sans-Serif" font-size="10.00">mimicpp::printing::</text>
<text text-anchor="start" x="342.25" y="-347" font-family="Helvetica,sans-Serif" font-size="10.00">type::parsing::unwrap</text>
<text text-anchor="middle" x="387.25" y="-335.75" font-family="Helvetica,sans-Serif" font-size="10.00">_visitor</text>
</a>
</g>
</g>
<!-- Node2 -->
<g id="Node000002" class="node">
<title>Node2</title>
<g id="a_Node000002"><a xlink:href="../../d6/d54/classmimicpp_1_1printing_1_1type_1_1parsing_1_1token_1_1_arg_sequence.html#a7d79867d161a1e53277c4151d5bd8632" target="_top" xlink:title=" ">
<polygon fill="white" stroke="#666666" points="285.5,-722.38 173.5,-722.38 173.5,-669.38 285.5,-669.38 285.5,-722.38"/>
<text text-anchor="start" x="181.5" y="-708.88" font-family="Helvetica,sans-Serif" font-size="10.00">mimicpp::printing::</text>
<text text-anchor="start" x="181.5" y="-697.62" font-family="Helvetica,sans-Serif" font-size="10.00">type::parsing::token</text>
<text text-anchor="start" x="181.5" y="-686.38" font-family="Helvetica,sans-Serif" font-size="10.00">::ArgSequence::handle</text>
<text text-anchor="middle" x="229.5" y="-675.12" font-family="Helvetica,sans-Serif" font-size="10.00">_as_template_args</text>
</a>
</g>
</g>
<!-- Node1&#45;&gt;Node2 -->
<g id="edge1_Node000001_Node000002" class="edge">
<title>Node1&#45;&gt;Node2</title>
<g id="a_edge1_Node000001_Node000002"><a xlink:title=" ">
<path fill="none" stroke="#63b8ff" d="M385.28,-383.09C381.85,-444.01 366.46,-577.42 298.25,-660.88 294.65,-665.28 290.34,-669.2 285.68,-672.66"/>
<polygon fill="#63b8ff" stroke="#63b8ff" points="388.76,-383.58 385.75,-373.43 381.77,-383.25 388.76,-383.58"/>
</a>
</g>
</g>
<!-- Node4 -->
<g id="Node000004" class="node">
<title>Node4</title>
<g id="a_Node000004"><a xlink:href="../../d6/d14/classmimicpp_1_1printing_1_1type_1_1parsing_1_1token_1_1_function.html#ab35d6ee7203fd1b545d009cce7fc68ea" target="_top" xlink:title=" ">
<polygon fill="white" stroke="#666666" points="281.38,-651.75 177.62,-651.75 177.62,-610 281.38,-610 281.38,-651.75"/>
<text text-anchor="start" x="185.62" y="-638.25" font-family="Helvetica,sans-Serif" font-size="10.00">mimicpp::printing::</text>
<text text-anchor="start" x="185.62" y="-627" font-family="Helvetica,sans-Serif" font-size="10.00">type::parsing::token</text>
<text text-anchor="middle" x="229.5" y="-615.75" font-family="Helvetica,sans-Serif" font-size="10.00">::Function::operator()</text>
</a>
</g>
</g>
<!-- Node1&#45;&gt;Node4 -->
<g id="edge3_Node000001_Node000004" class="edge">
<title>Node1&#45;&gt;Node4</title>
<g id="a_edge3_Node000001_Node000004"><a xlink:title=" ">
<path fill="none" stroke="#63b8ff" d="M383.04,-383.4C376.28,-435.55 356.06,-538.34 298.25,-600.88 293.53,-605.98 287.79,-610.26 281.67,-613.84"/>
<polygon fill="#63b8ff" stroke="#63b8ff" points="386.49,-384.03 384.21,-373.69 379.54,-383.2 386.49,-384.03"/>
</a>
</g>
</g>
<!-- Node5 -->
<g id="Node000005" class="node">
<title>Node5</title>
<g id="a_Node000005"><a xlink:href="../../d8/dd3/classmimicpp_1_1printing_1_1type_1_1parsing_1_1token_1_1_function_context.html#a5eabd1d73c197602112c06316cc98df7" target="_top" xlink:title=" ">
<polygon fill="white" stroke="#666666" points="297.88,-591.75 161.12,-591.75 161.12,-550 297.88,-550 297.88,-591.75"/>
<text text-anchor="start" x="169.12" y="-578.25" font-family="Helvetica,sans-Serif" font-size="10.00">mimicpp::printing::</text>
<text text-anchor="start" x="169.12" y="-567" font-family="Helvetica,sans-Serif" font-size="10.00">type::parsing::token</text>
<text text-anchor="middle" x="229.5" y="-555.75" font-family="Helvetica,sans-Serif" font-size="10.00">::FunctionContext::operator()</text>
</a>
</g>
</g>
<!-- Node1&#45;&gt;Node5 -->
<g id="edge4_Node000001_Node000005" class="edge">
<title>Node1&#45;&gt;Node5</title>
<g id="a_edge4_Node000001_Node000005"><a xlink:title=" ">
<path fill="none" stroke="#63b8ff" d="M379,-383.32C368.13,-425.08 343.84,-497.52 298.25,-541.88 295.32,-544.73 292.06,-547.32 288.6,-549.68"/>
<polygon fill="#63b8ff" stroke="#63b8ff" points="382.4,-384.17 381.41,-373.63 375.6,-382.49 382.4,-384.17"/>
</a>
</g>
</g>
<!-- Node6 -->
<g id="Node000006" class="node">
<title>Node6</title>
<g id="a_Node000006"><a xlink:href="../../d4/d09/classmimicpp_1_1printing_1_1type_1_1parsing_1_1token_1_1_function_identifier.html#af9c4ab18d702e3c68e033285f930c871" target="_top" xlink:title=" ">
<polygon fill="white" stroke="#666666" points="278.75,-532.38 180.25,-532.38 180.25,-479.38 278.75,-479.38 278.75,-532.38"/>
<text text-anchor="start" x="188.25" y="-518.88" font-family="Helvetica,sans-Serif" font-size="10.00">mimicpp::printing::</text>
<text text-anchor="start" x="188.25" y="-507.62" font-family="Helvetica,sans-Serif" font-size="10.00">type::parsing::token</text>
<text text-anchor="start" x="188.25" y="-496.38" font-family="Helvetica,sans-Serif" font-size="10.00">::FunctionIdentifier</text>
<text text-anchor="middle" x="229.5" y="-485.12" font-family="Helvetica,sans-Serif" font-size="10.00">::operator()</text>
</a>
</g>
</g>
<!-- Node1&#45;&gt;Node6 -->
<g id="edge5_Node000001_Node000006" class="edge">
<title>Node1&#45;&gt;Node6</title>
<g id="a_edge5_Node000001_Node000006"><a xlink:title=" ">
<path fill="none" stroke="#63b8ff" d="M369.21,-381.64C353.47,-407.91 328.06,-445.38 298.25,-470.88 292.41,-475.87 285.74,-480.39 278.92,-484.41"/>
<polygon fill="#63b8ff" stroke="#63b8ff" points="372.16,-383.53 374.19,-373.13 366.12,-380 372.16,-383.53"/>
</a>
</g>
</g>
<!-- Node7 -->
<g id="Node000007" class="node">
<title>Node7</title>
<g id="a_Node000007"><a xlink:href="../../dd/df1/classmimicpp_1_1printing_1_1type_1_1parsing_1_1token_1_1_function_ptr_type.html#a82e6843cf1f7ec1da8992cecb971fe26" target="_top" xlink:title=" ">
<polygon fill="white" stroke="#666666" points="298.25,-461.75 160.75,-461.75 160.75,-420 298.25,-420 298.25,-461.75"/>
<text text-anchor="start" x="168.75" y="-448.25" font-family="Helvetica,sans-Serif" font-size="10.00">mimicpp::printing::</text>
<text text-anchor="start" x="168.75" y="-437" font-family="Helvetica,sans-Serif" font-size="10.00">type::parsing::token</text>
<text text-anchor="middle" x="229.5" y="-425.75" font-family="Helvetica,sans-Serif" font-size="10.00">::FunctionPtrType::operator()</text>
</a>
</g>
</g>
<!-- Node1&#45;&gt;Node7 -->
<g id="edge6_Node000001_Node000007" class="edge">
<title>Node1&#45;&gt;Node7</title>
<g id="a_edge6_Node000001_Node000007"><a xlink:title=" ">
<path fill="none" stroke="#63b8ff" d="M348.66,-378.72C333.41,-389.42 315.38,-401.35 298.25,-410.88 292.85,-413.88 287.1,-416.81 281.31,-419.59"/>
<polygon fill="#63b8ff" stroke="#63b8ff" points="350.41,-381.77 356.53,-373.12 346.35,-376.07 350.41,-381.77"/>
</a>
</g>
</g>
<!-- Node8 -->
<g id="Node000008" class="node">
<title>Node8</title>
<g id="a_Node000008"><a xlink:href="../../d7/d12/classmimicpp_1_1printing_1_1type_1_1parsing_1_1token_1_1_function_type.html#a39af16aa498cf8ef6fee80666745a3c4" target="_top" xlink:title=" ">
<polygon fill="white" stroke="#666666" points="291.88,-401.75 167.12,-401.75 167.12,-360 291.88,-360 291.88,-401.75"/>
<text text-anchor="start" x="175.12" y="-388.25" font-family="Helvetica,sans-Serif" font-size="10.00">mimicpp::printing::</text>
<text text-anchor="start" x="175.12" y="-377" font-family="Helvetica,sans-Serif" font-size="10.00">type::parsing::token</text>
<text text-anchor="middle" x="229.5" y="-365.75" font-family="Helvetica,sans-Serif" font-size="10.00">::FunctionType::operator()</text>
</a>
</g>
</g>
<!-- Node1&#45;&gt;Node8 -->
<g id="edge7_Node000001_Node000008" class="edge">
<title>Node1&#45;&gt;Node8</title>
<g id="a_edge7_Node000001_Node000008"><a xlink:title=" ">
<path fill="none" stroke="#63b8ff" d="M322.79,-363.1C312.75,-365.03 302.37,-367.03 292.37,-368.96"/>
<polygon fill="#63b8ff" stroke="#63b8ff" points="323.31,-366.56 332.47,-361.23 321.99,-359.69 323.31,-366.56"/>
</a>
</g>
</g>
<!-- Node9 -->
<g id="Node000009" class="node">
<title>Node9</title>
<g id="a_Node000009"><a xlink:href="../../d3/de0/classmimicpp_1_1printing_1_1type_1_1parsing_1_1token_1_1_identifier.html#a11ce77294b047c64e874ae18eed732a0" target="_top" xlink:title=" ">
<polygon fill="white" stroke="#666666" points="281,-341.75 178,-341.75 178,-300 281,-300 281,-341.75"/>
<text text-anchor="start" x="186" y="-328.25" font-family="Helvetica,sans-Serif" font-size="10.00">mimicpp::printing::</text>
<text text-anchor="start" x="186" y="-317" font-family="Helvetica,sans-Serif" font-size="10.00">type::parsing::token</text>
<text text-anchor="middle" x="229.5" y="-305.75" font-family="Helvetica,sans-Serif" font-size="10.00">::Identifier::operator()</text>
</a>
</g>
</g>
<!-- Node1&#45;&gt;Node9 -->
<g id="edge8_Node000001_Node000009" class="edge">
<title>Node1&#45;&gt;Node9</title>
<g id="a_edge8_Node000001_Node000009"><a xlink:title=" ">
<path fill="none" stroke="#63b8ff" d="M323.01,-338.69C309.15,-336.02 294.64,-333.23 281.34,-330.67"/>
<polygon fill="#63b8ff" stroke="#63b8ff" points="321.99,-342.06 332.47,-340.52 323.31,-335.19 321.99,-342.06"/>
</a>
</g>
</g>
<!-- Node10 -->
<g id="Node000010" class="node">
<title>Node10</title>
<g id="a_Node000010"><a xlink:href="../../d1/d3a/classmimicpp_1_1printing_1_1type_1_1parsing_1_1token_1_1_regular_type.html#a8480022392c3a42e38d268672df8892e" target="_top" xlink:title=" ">
<polygon fill="white" stroke="#666666" points="289.62,-281.75 169.38,-281.75 169.38,-240 289.62,-240 289.62,-281.75"/>
<text text-anchor="start" x="177.38" y="-268.25" font-family="Helvetica,sans-Serif" font-size="10.00">mimicpp::printing::</text>
<text text-anchor="start" x="177.38" y="-257" font-family="Helvetica,sans-Serif" font-size="10.00">type::parsing::token</text>
<text text-anchor="middle" x="229.5" y="-245.75" font-family="Helvetica,sans-Serif" font-size="10.00">::RegularType::operator()</text>
</a>
</g>
</g>
<!-- Node1&#45;&gt;Node10 -->
<g id="edge9_Node000001_Node000010" class="edge">
<title>Node1&#45;&gt;Node10</title>
<g id="a_edge9_Node000001_Node000010"><a xlink:title=" ">
<path fill="none" stroke="#63b8ff" d="M348.66,-323.03C333.41,-312.33 315.38,-300.4 298.25,-290.88 292.85,-287.87 287.1,-284.94 281.31,-282.16"/>
<polygon fill="#63b8ff" stroke="#63b8ff" points="346.35,-325.68 356.53,-328.63 350.41,-319.98 346.35,-325.68"/>
</a>
</g>
</g>
<!-- Node11 -->
<g id="Node000011" class="node">
<title>Node11</title>
<g id="a_Node000011"><a xlink:href="../../df/d6e/classmimicpp_1_1printing_1_1type_1_1parsing_1_1token_1_1_scope_sequence.html#a54fd7256d37e9dc5def93c4be1636748" target="_top" xlink:title=" ">
<polygon fill="white" stroke="#666666" points="298.25,-221.75 160.75,-221.75 160.75,-180 298.25,-180 298.25,-221.75"/>
<text text-anchor="start" x="168.75" y="-208.25" font-family="Helvetica,sans-Serif" font-size="10.00">mimicpp::printing::</text>
<text text-anchor="start" x="168.75" y="-197" font-family="Helvetica,sans-Serif" font-size="10.00">type::parsing::token</text>
<text text-anchor="middle" x="229.5" y="-185.75" font-family="Helvetica,sans-Serif" font-size="10.00">::ScopeSequence::operator()</text>
</a>
</g>
</g>
<!-- Node1&#45;&gt;Node11 -->
<g id="edge10_Node000001_Node000011" class="edge">
<title>Node1&#45;&gt;Node11</title>
<g id="a_edge10_Node000001_Node000011"><a xlink:title=" ">
<path fill="none" stroke="#63b8ff" d="M369.58,-319.66C354.08,-293.1 328.82,-255.46 298.25,-230.88 294.34,-227.73 290.05,-224.85 285.59,-222.22"/>
<polygon fill="#63b8ff" stroke="#63b8ff" points="366.49,-321.31 374.48,-328.27 372.58,-317.85 366.49,-321.31"/>
</a>
</g>
</g>
<!-- Node12 -->
<g id="Node000012" class="node">
<title>Node12</title>
<g id="a_Node000012"><a xlink:href="../../d4/dcb/structmimicpp_1_1printing_1_1type_1_1parsing_1_1token_1_1_specs_1_1_layer.html#a120b6425bb34a0b74c2fcb945cd8411a" target="_top" xlink:title=" ">
<polygon fill="white" stroke="#666666" points="290.75,-161.75 168.25,-161.75 168.25,-120 290.75,-120 290.75,-161.75"/>
<text text-anchor="start" x="176.25" y="-148.25" font-family="Helvetica,sans-Serif" font-size="10.00">mimicpp::printing::</text>
<text text-anchor="start" x="176.25" y="-137" font-family="Helvetica,sans-Serif" font-size="10.00">type::parsing::token</text>
<text text-anchor="middle" x="229.5" y="-125.75" font-family="Helvetica,sans-Serif" font-size="10.00">::Specs::Layer::operator()</text>
</a>
</g>
</g>
<!-- Node1&#45;&gt;Node12 -->
<g id="edge11_Node000001_Node000012" class="edge">
<title>Node1&#45;&gt;Node12</title>
<g id="a_edge11_Node000001_Node000012"><a xlink:title=" ">
<path fill="none" stroke="#63b8ff" d="M377.97,-318.87C366.26,-279.38 341.35,-212.38 298.25,-170.88 294.91,-167.66 291.18,-164.76 287.22,-162.15"/>
<polygon fill="#63b8ff" stroke="#63b8ff" points="374.54,-319.59 380.64,-328.25 381.27,-317.68 374.54,-319.59"/>
</a>
</g>
</g>
<!-- Node13 -->
<g id="Node000013" class="node">
<title>Node13</title>
<g id="a_Node000013"><a xlink:href="../../de/db7/classmimicpp_1_1printing_1_1type_1_1parsing_1_1token_1_1_specs.html#a8541bc1b32e1fd91160dde0922d1652c" target="_top" xlink:title=" ">
<polygon fill="white" stroke="#666666" points="278.75,-101.75 180.25,-101.75 180.25,-60 278.75,-60 278.75,-101.75"/>
<text text-anchor="start" x="188.25" y="-88.25" font-family="Helvetica,sans-Serif" font-size="10.00">mimicpp::printing::</text>
<text text-anchor="start" x="188.25" y="-77" font-family="Helvetica,sans-Serif" font-size="10.00">type::parsing::token</text>
<text text-anchor="middle" x="229.5" y="-65.75" font-family="Helvetica,sans-Serif" font-size="10.00">::Specs::operator()</text>
</a>
</g>
</g>
<!-- Node1&#45;&gt;Node13 -->
<g id="edge12_Node000001_Node000013" class="edge">
<title>Node1&#45;&gt;Node13</title>
<g id="a_edge12_Node000001_Node000013"><a xlink:title=" ">
<path fill="none" stroke="#63b8ff" d="M382.5,-318.55C375.06,-268.14 354,-170.4 298.25,-110.88 292.89,-105.15 286.23,-100.45 279.21,-96.61"/>
<polygon fill="#63b8ff" stroke="#63b8ff" points="379,-318.79 383.83,-328.22 385.94,-317.84 379,-318.79"/>
</a>
</g>
</g>
<!-- Node14 -->
<g id="Node000014" class="node">
<title>Node14</title>
<g id="a_Node000014"><a xlink:href="../../d1/da5/classmimicpp_1_1printing_1_1type_1_1parsing_1_1token_1_1_type.html#afe5cd8ad84d1b79a01dd7c2e30664340" target="_top" xlink:title=" ">
<polygon fill="white" stroke="#666666" points="278.75,-41.75 180.25,-41.75 180.25,0 278.75,0 278.75,-41.75"/>
<text text-anchor="start" x="188.25" y="-28.25" font-family="Helvetica,sans-Serif" font-size="10.00">mimicpp::printing::</text>
<text text-anchor="start" x="188.25" y="-17" font-family="Helvetica,sans-Serif" font-size="10.00">type::parsing::token</text>
<text text-anchor="middle" x="229.5" y="-5.75" font-family="Helvetica,sans-Serif" font-size="10.00">::Type::operator()</text>
</a>
</g>
</g>
<!-- Node1&#45;&gt;Node14 -->
<g id="edge13_Node000001_Node000014" class="edge">
<title>Node1&#45;&gt;Node14</title>
<g id="a_edge13_Node000001_Node000014"><a xlink:title=" ">
<path fill="none" stroke="#63b8ff" d="M385.37,-318.5C382.06,-258.52 366.86,-129.16 298.25,-50.88 292.99,-44.88 286.31,-40.02 279.2,-36.11"/>
<polygon fill="#63b8ff" stroke="#63b8ff" points="381.87,-318.52 385.83,-328.35 388.86,-318.2 381.87,-318.52"/>
</a>
</g>
</g>
<!-- Node3 -->
<g id="Node000003" class="node">
<title>Node3</title>
<g id="a_Node000003"><a xlink:href="../../d6/d54/classmimicpp_1_1printing_1_1type_1_1parsing_1_1token_1_1_arg_sequence.html#a2249a12c46abfe51343d56b64c88308b" target="_top" xlink:title=" ">
<polygon fill="white" stroke="#666666" points="124.75,-716.75 0,-716.75 0,-675 124.75,-675 124.75,-716.75"/>
<text text-anchor="start" x="8" y="-703.25" font-family="Helvetica,sans-Serif" font-size="10.00">mimicpp::printing::</text>
<text text-anchor="start" x="8" y="-692" font-family="Helvetica,sans-Serif" font-size="10.00">type::parsing::token</text>
<text text-anchor="middle" x="62.38" y="-680.75" font-family="Helvetica,sans-Serif" font-size="10.00">::ArgSequence::operator=</text>
</a>
</g>
</g>
<!-- Node2&#45;&gt;Node3 -->
<g id="edge2_Node000002_Node000003" class="edge">
<title>Node2&#45;&gt;Node3</title>
<g id="a_edge2_Node000002_Node000003"><a xlink:title=" ">
<path fill="none" stroke="#63b8ff" d="M161.68,-695.88C149.63,-695.88 137.11,-695.88 125.21,-695.88"/>
<polygon fill="#63b8ff" stroke="#63b8ff" points="161.54,-699.38 171.54,-695.88 161.54,-692.38 161.54,-699.38"/>
</a>
</g>
</g>
</g>
</svg>
