<?xml version="1.0" encoding="UTF-8" standalone="no"?>
<!DOCTYPE svg PUBLIC "-//W3C//DTD SVG 1.1//EN"
 "http://www.w3.org/Graphics/SVG/1.1/DTD/svg11.dtd">
<!-- Generated by graphviz version 12.2.1 (20241206.2353)
 -->
<!-- Title: mimicpp::printing::type::parsing::ignore_reserved_identifier Pages: 1 -->
<!--zoomable 307 -->

<svg id="main" version="1.1" xmlns="http://www.w3.org/2000/svg" xmlns:xlink="http://www.w3.org/1999/xlink" xml:space="preserve" onload="init(evt)">

<style type="text/css"><![CDATA[
.node, .edge {opacity: 0.7;}
.node.selected, .edge.selected {opacity: 1;}
.edge:hover path { stroke: red; }
.edge:hover polygon { stroke: red; fill: red; }
]]></style>

<defs>
  <circle id="rim" cx="0" cy="0" r="7"/>
  <circle id="rim2" cx="0" cy="0" r="3.5"/>
  <g id="zoomPlus">
    <use xlink:href="#rim" fill="#404040"><set attributeName="fill" to="#808080" begin="zoomplus.mouseover" end="zoomplus.mouseout"/></use>
    <path d="M-4,0h8M0,-4v8" fill="none" stroke="white" stroke-width="1.5" pointer-events="none"/>
  </g>
  <g id="zoomMin">
    <use xlink:href="#rim" fill="#404040"><set attributeName="fill" to="#808080" begin="zoomminus.mouseover" end="zoomminus.mouseout"/></use>
    <path d="M-4,0h8" fill="none" stroke="white" stroke-width="1.5" pointer-events="none"/>
  </g>
  <g id="arrowUp" transform="translate(30 24)">
    <use xlink:href="#rim"/>
    <path pointer-events="none" fill="none" stroke="white" stroke-width="1.5" d="M0,-3.0v7 M-2.5,-0.5L0,-3.0L2.5,-0.5"/>
  </g>
  <g id="arrowRight" transform="rotate(90) translate(36 -43)">
    <use xlink:href="#rim"/>
    <path pointer-events="none" fill="none" stroke="white" stroke-width="1.5" d="M0,-3.0v7 M-2.5,-0.5L0,-3.0L2.5,-0.5"/>
  </g>
  <g id="arrowDown" transform="rotate(180) translate(-30 -48)">
    <use xlink:href="#rim"/>
    <path pointer-events="none" fill="none" stroke="white" stroke-width="1.5" d="M0,-3.0v7 M-2.5,-0.5L0,-3.0L2.5,-0.5"/>
  </g>
  <g id="arrowLeft" transform="rotate(270) translate(-36 17)">
    <use xlink:href="#rim"/>
    <path pointer-events="none" fill="none" stroke="white" stroke-width="1.5" d="M0,-3.0v7 M-2.5,-0.5L0,-3.0L2.5,-0.5"/>
  </g>
  <g id="resetDef">
    <use xlink:href="#rim2" fill="#404040"><set attributeName="fill" to="#808080" begin="reset.mouseover" end="reset.mouseout"/></use>
  </g>
</defs>
<script type="application/ecmascript">
var viewWidth = 785;
var viewHeight = 307;
var sectionId = 'dynsection-1';
</script>
<script type="application/ecmascript" xlink:href="../../svg.min.js"/>
<svg id="graph" class="graph">
<g id="viewport">
<title>mimicpp::printing::type::parsing::ignore_reserved_identifier</title>
<!-- Node1 -->
<g id="Node000001" class="node">
<title>Node1</title>
<g id="a_Node000001"><a xlink:title=" ">
<polygon fill="#999999" stroke="#666666" points="776.75,-191.75 676,-191.75 676,-150 776.75,-150 776.75,-191.75"/>
<text text-anchor="start" x="684" y="-178.25" font-family="Helvetica,sans-Serif" font-size="10.00">mimicpp::printing::</text>
<text text-anchor="start" x="684" y="-167" font-family="Helvetica,sans-Serif" font-size="10.00">type::parsing::ignore</text>
<text text-anchor="middle" x="726.38" y="-155.75" font-family="Helvetica,sans-Serif" font-size="10.00">_reserved_identifier</text>
</a>
</g>
</g>
<!-- Node2 -->
<g id="Node000002" class="node">
<title>Node2</title>
<g id="a_Node000002"><a xlink:href="../../d2/d01/namespacemimicpp_1_1printing_1_1type_1_1parsing_1_1token.html#a07683c6a86601f69f859c26a1e7ed3e0" target="_top" xlink:title=" ">
<polygon fill="white" stroke="#666666" points="459.75,-298.75 338.75,-298.75 338.75,-257 459.75,-257 459.75,-298.75"/>
<text text-anchor="start" x="346.75" y="-285.25" font-family="Helvetica,sans-Serif" font-size="10.00">mimicpp::printing::</text>
<text text-anchor="start" x="346.75" y="-274" font-family="Helvetica,sans-Serif" font-size="10.00">type::parsing::token</text>
<text text-anchor="middle" x="399.25" y="-262.75" font-family="Helvetica,sans-Serif" font-size="10.00">::try_reduce_as_function</text>
</a>
</g>
</g>
<!-- Node1&#45;&gt;Node2 -->
<g id="edge1_Node000001_Node000002" class="edge">
<title>Node1&#45;&gt;Node2</title>
<g id="a_edge1_Node000001_Node000002"><a xlink:title=" ">
<path fill="none" stroke="#63b8ff" d="M685.26,-198.31C671.4,-206.84 655.46,-215.63 640,-221.88 580.95,-245.73 509.42,-260.79 459.94,-269.21"/>
<polygon fill="#63b8ff" stroke="#63b8ff" points="687.09,-201.3 693.68,-193 683.35,-195.38 687.09,-201.3"/>
</a>
</g>
</g>
<!-- Node4 -->
<g id="Node000004" class="node">
<title>Node4</title>
<g id="a_Node000004"><a xlink:href="../../d2/d01/namespacemimicpp_1_1printing_1_1type_1_1parsing_1_1token.html#a6a89a061edac701c282c9092936a45e6" target="_top" xlink:title=" ">
<polygon fill="white" stroke="#666666" points="459.75,-239.38 338.75,-239.38 338.75,-186.38 459.75,-186.38 459.75,-239.38"/>
<text text-anchor="start" x="346.75" y="-225.88" font-family="Helvetica,sans-Serif" font-size="10.00">mimicpp::printing::</text>
<text text-anchor="start" x="346.75" y="-214.62" font-family="Helvetica,sans-Serif" font-size="10.00">type::parsing::token</text>
<text text-anchor="start" x="346.75" y="-203.38" font-family="Helvetica,sans-Serif" font-size="10.00">::try_reduce_as_function</text>
<text text-anchor="middle" x="399.25" y="-192.12" font-family="Helvetica,sans-Serif" font-size="10.00">_identifier</text>
</a>
</g>
</g>
<!-- Node1&#45;&gt;Node4 -->
<g id="edge3_Node000001_Node000004" class="edge">
<title>Node1&#45;&gt;Node4</title>
<g id="a_edge3_Node000001_Node000004"><a xlink:title=" ">
<path fill="none" stroke="#63b8ff" d="M665.13,-194.45C656.79,-197 648.25,-199.25 640,-200.88 579.48,-212.76 508.8,-214.92 459.94,-214.62"/>
<polygon fill="#63b8ff" stroke="#63b8ff" points="666.06,-197.82 674.5,-191.41 663.9,-191.16 666.06,-197.82"/>
</a>
</g>
</g>
<!-- Node6 -->
<g id="Node000006" class="node">
<title>Node6</title>
<g id="a_Node000006"><a xlink:href="../../d2/d01/namespacemimicpp_1_1printing_1_1type_1_1parsing_1_1token.html#a724e4bbc36dd71f0a537ed245184e436" target="_top" xlink:title=" ">
<polygon fill="white" stroke="#666666" points="636.62,-191.75 499.12,-191.75 499.12,-150 636.62,-150 636.62,-191.75"/>
<text text-anchor="start" x="507.12" y="-178.25" font-family="Helvetica,sans-Serif" font-size="10.00">mimicpp::printing::</text>
<text text-anchor="start" x="507.12" y="-167" font-family="Helvetica,sans-Serif" font-size="10.00">type::parsing::token</text>
<text text-anchor="middle" x="567.88" y="-155.75" font-family="Helvetica,sans-Serif" font-size="10.00">::try_reduce_as_function_ptr</text>
</a>
</g>
</g>
<!-- Node1&#45;&gt;Node6 -->
<g id="edge7_Node000001_Node000006" class="edge">
<title>Node1&#45;&gt;Node6</title>
<g id="a_edge7_Node000001_Node000006"><a xlink:title=" ">
<path fill="none" stroke="#63b8ff" d="M664.6,-170.88C655.54,-170.88 646.15,-170.88 636.95,-170.88"/>
<polygon fill="#63b8ff" stroke="#63b8ff" points="664.34,-174.38 674.34,-170.88 664.34,-167.38 664.34,-174.38"/>
</a>
</g>
</g>
<!-- Node7 -->
<g id="Node000007" class="node">
<title>Node7</title>
<g id="a_Node000007"><a xlink:href="../../d2/d01/namespacemimicpp_1_1printing_1_1type_1_1parsing_1_1token.html#aef6b0bd46bc6cc213bfdbd6a11cbe510" target="_top" xlink:title=" ">
<polygon fill="white" stroke="#666666" points="628.38,-132.38 507.38,-132.38 507.38,-79.38 628.38,-79.38 628.38,-132.38"/>
<text text-anchor="start" x="515.38" y="-118.88" font-family="Helvetica,sans-Serif" font-size="10.00">mimicpp::printing::</text>
<text text-anchor="start" x="515.38" y="-107.62" font-family="Helvetica,sans-Serif" font-size="10.00">type::parsing::token</text>
<text text-anchor="start" x="515.38" y="-96.38" font-family="Helvetica,sans-Serif" font-size="10.00">::try_reduce_as_function</text>
<text text-anchor="middle" x="567.88" y="-85.12" font-family="Helvetica,sans-Serif" font-size="10.00">_ptr_type</text>
</a>
</g>
</g>
<!-- Node1&#45;&gt;Node7 -->
<g id="edge8_Node000001_Node000007" class="edge">
<title>Node1&#45;&gt;Node7</title>
<g id="a_edge8_Node000001_Node000007"><a xlink:title=" ">
<path fill="none" stroke="#63b8ff" d="M665.47,-146C653.44,-141 640.8,-135.75 628.77,-130.75"/>
<polygon fill="#63b8ff" stroke="#63b8ff" points="663.88,-149.12 674.46,-149.73 666.57,-142.66 663.88,-149.12"/>
</a>
</g>
</g>
<!-- Node11 -->
<g id="Node000011" class="node">
<title>Node11</title>
<g id="a_Node000011"><a xlink:href="../../d2/d01/namespacemimicpp_1_1printing_1_1type_1_1parsing_1_1token.html#a7bb9c9ee7f8a3e26655e10306270ea66" target="_top" xlink:title=" ">
<polygon fill="white" stroke="#666666" points="640,-61.75 495.75,-61.75 495.75,-20 640,-20 640,-61.75"/>
<text text-anchor="start" x="503.75" y="-48.25" font-family="Helvetica,sans-Serif" font-size="10.00">mimicpp::printing::</text>
<text text-anchor="start" x="503.75" y="-37" font-family="Helvetica,sans-Serif" font-size="10.00">type::parsing::token</text>
<text text-anchor="middle" x="567.88" y="-25.75" font-family="Helvetica,sans-Serif" font-size="10.00">::try_reduce_as_function_type</text>
</a>
</g>
</g>
<!-- Node1&#45;&gt;Node11 -->
<g id="edge14_Node000001_Node000011" class="edge">
<title>Node1&#45;&gt;Node11</title>
<g id="a_edge14_Node000001_Node000011"><a xlink:title=" ">
<path fill="none" stroke="#63b8ff" d="M705.64,-140.42C690.05,-118.36 666.54,-89.15 640,-69.88 636.12,-67.05 631.92,-64.45 627.57,-62.07"/>
<polygon fill="#63b8ff" stroke="#63b8ff" points="702.61,-142.2 711.17,-148.44 708.37,-138.22 702.61,-142.2"/>
</a>
</g>
</g>
<!-- Node3 -->
<g id="Node000003" class="node">
<title>Node3</title>
<g id="a_Node000003"><a xlink:href="../../d4/dc0/classmimicpp_1_1printing_1_1type_1_1parsing_1_1_name_parser.html#a3038c253ab2bda06c1f2d93b3e4d92c3" target="_top" xlink:title=" ">
<polygon fill="white" stroke="#666666" points="129.25,-232.75 0,-232.75 0,-191 129.25,-191 129.25,-232.75"/>
<text text-anchor="start" x="8" y="-219.25" font-family="Helvetica,sans-Serif" font-size="10.00">mimicpp::printing::</text>
<text text-anchor="start" x="8" y="-208" font-family="Helvetica,sans-Serif" font-size="10.00">type::parsing::NameParser</text>
<text text-anchor="middle" x="64.62" y="-196.75" font-family="Helvetica,sans-Serif" font-size="10.00">::parse_function</text>
</a>
</g>
</g>
<!-- Node2&#45;&gt;Node3 -->
<g id="edge2_Node000002_Node000003" class="edge">
<title>Node2&#45;&gt;Node3</title>
<g id="a_edge2_Node000002_Node000003"><a xlink:title=" ">
<path fill="none" stroke="#63b8ff" d="M327.57,-266.23C281.27,-258.33 219.5,-247.29 165.25,-235.88 153.67,-233.44 141.39,-230.65 129.54,-227.85"/>
<polygon fill="#63b8ff" stroke="#63b8ff" points="326.75,-269.64 337.2,-267.87 327.92,-262.74 326.75,-269.64"/>
</a>
</g>
</g>
<!-- Node4&#45;&gt;Node3 -->
<g id="edge4_Node000004_Node000003" class="edge">
<title>Node4&#45;&gt;Node3</title>
<g id="a_edge4_Node000004_Node000003"><a xlink:title=" ">
<path fill="none" stroke="#63b8ff" d="M326.97,-219.5C318.81,-220.07 310.6,-220.55 302.75,-220.88 241.69,-223.43 226.3,-223.63 165.25,-220.88 153.71,-220.35 141.45,-219.5 129.61,-218.51"/>
<polygon fill="#63b8ff" stroke="#63b8ff" points="327.21,-222.99 336.93,-218.77 326.7,-216.01 327.21,-222.99"/>
</a>
</g>
</g>
<!-- Node5 -->
<g id="Node000005" class="node">
<title>Node5</title>
<g id="a_Node000005"><a xlink:href="../../d2/d01/namespacemimicpp_1_1printing_1_1type_1_1parsing_1_1token.html#a4d518873823efc6de136d1df21948090" target="_top" xlink:title=" ">
<polygon fill="white" stroke="#666666" points="302.75,-211.38 165.25,-211.38 165.25,-158.38 302.75,-158.38 302.75,-211.38"/>
<text text-anchor="start" x="173.25" y="-197.88" font-family="Helvetica,sans-Serif" font-size="10.00">mimicpp::printing::</text>
<text text-anchor="start" x="173.25" y="-186.62" font-family="Helvetica,sans-Serif" font-size="10.00">type::parsing::token</text>
<text text-anchor="start" x="173.25" y="-175.38" font-family="Helvetica,sans-Serif" font-size="10.00">::reduce_as_conversion</text>
<text text-anchor="middle" x="234" y="-164.12" font-family="Helvetica,sans-Serif" font-size="10.00">_operator_function_identifier</text>
</a>
</g>
</g>
<!-- Node4&#45;&gt;Node5 -->
<g id="edge5_Node000004_Node000005" class="edge">
<title>Node4&#45;&gt;Node5</title>
<g id="a_edge5_Node000004_Node000005"><a xlink:title=" ">
<path fill="none" stroke="#63b8ff" d="M327.21,-200.69C319.22,-199.32 311.09,-197.93 303.14,-196.56"/>
<polygon fill="#63b8ff" stroke="#63b8ff" points="326.45,-204.11 336.9,-202.35 327.63,-197.21 326.45,-204.11"/>
</a>
</g>
</g>
<!-- Node5&#45;&gt;Node3 -->
<g id="edge6_Node000005_Node000003" class="edge">
<title>Node5&#45;&gt;Node3</title>
<g id="a_edge6_Node000005_Node000003"><a xlink:title=" ">
<path fill="none" stroke="#63b8ff" d="M153.61,-197.68C145.55,-198.98 137.45,-200.29 129.59,-201.56"/>
<polygon fill="#63b8ff" stroke="#63b8ff" points="154.11,-201.15 163.43,-196.1 153,-194.24 154.11,-201.15"/>
</a>
</g>
</g>
<!-- Node8 -->
<g id="Node000008" class="node">
<title>Node8</title>
<g id="a_Node000008"><a xlink:href="../../d2/d01/namespacemimicpp_1_1printing_1_1type_1_1parsing_1_1token.html#a26830c23619a96ea3bdc2da8226c8a2c" target="_top" xlink:title=" ">
<polygon fill="white" stroke="#666666" points="451.5,-117.75 347,-117.75 347,-76 451.5,-76 451.5,-117.75"/>
<text text-anchor="start" x="355" y="-104.25" font-family="Helvetica,sans-Serif" font-size="10.00">mimicpp::printing::</text>
<text text-anchor="start" x="355" y="-93" font-family="Helvetica,sans-Serif" font-size="10.00">type::parsing::token</text>
<text text-anchor="middle" x="399.25" y="-81.75" font-family="Helvetica,sans-Serif" font-size="10.00">::try_reduce_as_type</text>
</a>
</g>
</g>
<!-- Node7&#45;&gt;Node8 -->
<g id="edge9_Node000007_Node000008" class="edge">
<title>Node7&#45;&gt;Node8</title>
<g id="a_edge9_Node000007_Node000008"><a xlink:title=" ">
<path fill="none" stroke="#63b8ff" d="M495.98,-102.05C481.15,-101.24 465.77,-100.41 451.8,-99.66"/>
<polygon fill="#63b8ff" stroke="#63b8ff" points="495.5,-105.53 505.68,-102.57 495.88,-98.54 495.5,-105.53"/>
</a>
</g>
</g>
<!-- Node8&#45;&gt;Node3 -->
<g id="edge11_Node000008_Node000003" class="edge">
<title>Node8&#45;&gt;Node3</title>
<g id="a_edge11_Node000008_Node000003"><a xlink:title=" ">
<path fill="none" stroke="#63b8ff" d="M335.63,-105.32C287.71,-113.14 220.66,-127.09 165.25,-149.88 139.63,-160.41 113.11,-177.25 93.88,-190.72"/>
<polygon fill="#63b8ff" stroke="#63b8ff" points="335.94,-108.81 345.27,-103.79 334.85,-101.9 335.94,-108.81"/>
</a>
</g>
</g>
<!-- Node8&#45;&gt;Node5 -->
<g id="edge13_Node000008_Node000005" class="edge">
<title>Node8&#45;&gt;Node5</title>
<g id="a_edge13_Node000008_Node000005"><a xlink:title=" ">
<path fill="none" stroke="#63b8ff" d="M348.79,-123.54C328.58,-134.43 305.25,-147.01 284.99,-157.93"/>
<polygon fill="#63b8ff" stroke="#63b8ff" points="350.26,-126.72 357.4,-118.9 346.94,-120.56 350.26,-126.72"/>
</a>
</g>
</g>
<!-- Node9 -->
<g id="Node000009" class="node">
<title>Node9</title>
<g id="a_Node000009"><a xlink:href="../../d2/d01/namespacemimicpp_1_1printing_1_1type_1_1parsing_1_1token.html#aea8a32c1af3a4e18ff0c853b429cc7ad" target="_top" xlink:title=" ">
<polygon fill="white" stroke="#666666" points="294.5,-101.75 173.5,-101.75 173.5,-60 294.5,-60 294.5,-101.75"/>
<text text-anchor="start" x="181.5" y="-88.25" font-family="Helvetica,sans-Serif" font-size="10.00">mimicpp::printing::</text>
<text text-anchor="start" x="181.5" y="-77" font-family="Helvetica,sans-Serif" font-size="10.00">type::parsing::token</text>
<text text-anchor="middle" x="234" y="-65.75" font-family="Helvetica,sans-Serif" font-size="10.00">::get_or_emplace_specs</text>
</a>
</g>
</g>
<!-- Node8&#45;&gt;Node9 -->
<g id="edge10_Node000008_Node000009" class="edge">
<title>Node8&#45;&gt;Node9</title>
<g id="a_edge10_Node000008_Node000009"><a xlink:title=" ">
<path fill="none" stroke="#63b8ff" d="M335.17,-90.69C321.92,-89.39 307.99,-88.03 294.86,-86.74"/>
<polygon fill="#63b8ff" stroke="#63b8ff" points="334.8,-94.17 345.09,-91.66 335.48,-87.21 334.8,-94.17"/>
</a>
</g>
</g>
<!-- Node10 -->
<g id="Node000010" class="node">
<title>Node10</title>
<g id="a_Node000010"><a xlink:href="../../d4/dc0/classmimicpp_1_1printing_1_1type_1_1parsing_1_1_name_parser.html#a5989c6d47e8eb8cea51c8de4adb30490" target="_top" xlink:title=" ">
<polygon fill="white" stroke="#666666" points="298.62,-41.75 169.38,-41.75 169.38,0 298.62,0 298.62,-41.75"/>
<text text-anchor="start" x="177.38" y="-28.25" font-family="Helvetica,sans-Serif" font-size="10.00">mimicpp::printing::</text>
<text text-anchor="start" x="177.38" y="-17" font-family="Helvetica,sans-Serif" font-size="10.00">type::parsing::NameParser</text>
<text text-anchor="middle" x="234" y="-5.75" font-family="Helvetica,sans-Serif" font-size="10.00">::parse_type</text>
</a>
</g>
</g>
<!-- Node8&#45;&gt;Node10 -->
<g id="edge12_Node000008_Node000010" class="edge">
<title>Node8&#45;&gt;Node10</title>
<g id="a_edge12_Node000008_Node000010"><a xlink:title=" ">
<path fill="none" stroke="#63b8ff" d="M344.49,-70.61C330.91,-64.08 316.33,-57.15 302.75,-50.88 296.56,-48.02 290.03,-45.05 283.57,-42.15"/>
<polygon fill="#63b8ff" stroke="#63b8ff" points="342.76,-73.66 353.29,-74.85 345.8,-67.36 342.76,-73.66"/>
</a>
</g>
</g>
<!-- Node11&#45;&gt;Node8 -->
<g id="edge15_Node000011_Node000008" class="edge">
<title>Node11&#45;&gt;Node8</title>
<g id="a_edge15_Node000011_Node000008"><a xlink:title=" ">
<path fill="none" stroke="#63b8ff" d="M492.51,-65.87C478.8,-70.47 464.77,-75.19 451.91,-79.51"/>
<polygon fill="#63b8ff" stroke="#63b8ff" points="493.61,-69.19 501.97,-62.69 491.38,-62.56 493.61,-69.19"/>
</a>
</g>
</g>
</g>
</svg>

<g id="navigator" transform="translate(0 0)" fill="#404254">
  <rect fill="#f2f5e9" fill-opacity="0.5" stroke="#606060" stroke-width=".5" x="0" y="0" width="60" height="60"/>
  <use id="zoomplus" xlink:href="#zoomPlus" x="17" y="9" onmousedown="handleZoom(evt,'in')"/>
  <use id="zoomminus" xlink:href="#zoomMin" x="42" y="9" onmousedown="handleZoom(evt,'out')"/>
  <use id="reset" xlink:href="#resetDef" x="30" y="36" onmousedown="handleReset()"/>
   <use id="arrowup" xlink:href="#arrowUp" x="0" y="0" onmousedown="handlePan(0,-1)"/>
  <use id="arrowright" xlink:href="#arrowRight" x="0" y="0" onmousedown="handlePan(1,0)"/>
  <use id="arrowdown" xlink:href="#arrowDown" x="0" y="0" onmousedown="handlePan(0,1)"/>
  <use id="arrowleft" xlink:href="#arrowLeft" x="0" y="0" onmousedown="handlePan(-1,0)"/>
</g>
<svg viewBox="0 0 15 15" width="100%" height="30px" preserveAspectRatio="xMaxYMin meet">
 <g id="arrow_out" transform="scale(0.3 0.3)">
  <a xlink:href="namespacemimicpp_1_1printing_1_1type_1_1parsing_a00f6b43673ee187399d297db7368a09f_icgraph_org.svg" target="_base">
   <rect id="button" ry="5" rx="5" y="6" x="6" height="38" width="38"
        fill="#f2f5e9" fill-opacity="0.5" stroke="#606060" stroke-width="1.0"/>
   <path id="arrow"
     d="M 11.500037,31.436501 C 11.940474,20.09759 22.043105,11.32322 32.158766,21.979434 L 37.068811,17.246167 C 37.068811,17.246167 37.088388,32 37.088388,32 L 22.160133,31.978069 C 22.160133,31.978069 26.997745,27.140456 26.997745,27.140456 C 18.528582,18.264221 13.291696,25.230495 11.500037,31.436501 z"
     style="fill:#404040;"/>
  </a>
 </g>
</svg>

<style type='text/css'>
<![CDATA[
[data-mouse-over-selected='false'] { opacity: 0.7; }
[data-mouse-over-selected='true']  { opacity: 1.0; }
]]>
</style>
<script type="application/ecmascript"><![CDATA[
document.addEventListener('DOMContentLoaded', (event) => {
  highlightEdges();
  highlightAdjacentNodes();
});
]]></script>
</svg>
