<?xml version="1.0" encoding="UTF-8" standalone="no"?>
<!DOCTYPE svg PUBLIC "-//W3C//DTD SVG 1.1//EN"
 "http://www.w3.org/Graphics/SVG/1.1/DTD/svg11.dtd">
<!-- Generated by graphviz version 12.2.1 (20241206.2353)
 -->
<!-- Title: mimicpp::printing::type::parsing::match_suffix Pages: 1 -->
<svg width="969pt" height="700pt"
 viewBox="0.00 0.00 968.75 700.44" xmlns="http://www.w3.org/2000/svg" xmlns:xlink="http://www.w3.org/1999/xlink">
<g id="graph0" class="graph" transform="scale(1 1) rotate(0) translate(4 696.44)">
<title>mimicpp::printing::type::parsing::match_suffix</title>
<!-- Node1 -->
<g id="Node000001" class="node">
<title>Node1</title>
<g id="a_Node000001"><a xlink:title=" ">
<polygon fill="#999999" stroke="#666666" points="960.75,-380.38 859.25,-380.38 859.25,-338.62 960.75,-338.62 960.75,-380.38"/>
<text text-anchor="start" x="867.25" y="-366.88" font-family="Helvetica,sans-Serif" font-size="10.00">mimicpp::printing::</text>
<text text-anchor="start" x="867.25" y="-355.62" font-family="Helvetica,sans-Serif" font-size="10.00">type::parsing::match</text>
<text text-anchor="middle" x="910" y="-344.38" font-family="Helvetica,sans-Serif" font-size="10.00">_suffix</text>
</a>
</g>
</g>
<!-- Node2 -->
<g id="Node000002" class="node">
<title>Node2</title>
<g id="a_Node000002"><a xlink:href="../../d2/d01/namespacemimicpp_1_1printing_1_1type_1_1parsing_1_1token.html#aea8a32c1af3a4e18ff0c853b429cc7ad" target="_top" xlink:title=" ">
<polygon fill="white" stroke="#666666" points="294.5,-645.38 173.5,-645.38 173.5,-603.62 294.5,-603.62 294.5,-645.38"/>
<text text-anchor="start" x="181.5" y="-631.88" font-family="Helvetica,sans-Serif" font-size="10.00">mimicpp::printing::</text>
<text text-anchor="start" x="181.5" y="-620.62" font-family="Helvetica,sans-Serif" font-size="10.00">type::parsing::token</text>
<text text-anchor="middle" x="234" y="-609.38" font-family="Helvetica,sans-Serif" font-size="10.00">::get_or_emplace_specs</text>
</a>
</g>
</g>
<!-- Node1&#45;&gt;Node2 -->
<g id="edge1_Node000001_Node000002" class="edge">
<title>Node1&#45;&gt;Node2</title>
<g id="a_edge1_Node000001_Node000002"><a xlink:title=" ">
<path fill="none" stroke="#63b8ff" d="M906.52,-391.95C900.84,-443.85 882.39,-545.69 823.25,-604.5 681.78,-745.19 413.92,-682.91 294.76,-645.42"/>
<polygon fill="#63b8ff" stroke="#63b8ff" points="909.97,-392.57 907.48,-382.28 903.01,-391.88 909.97,-392.57"/>
</a>
</g>
</g>
<!-- Node3 -->
<g id="Node000003" class="node">
<title>Node3</title>
<g id="a_Node000003"><a xlink:href="../../d5/dd4/namespacemimicpp_1_1printing_1_1type_1_1parsing.html#a00f6b43673ee187399d297db7368a09f" target="_top" xlink:title=" ">
<polygon fill="white" stroke="#666666" points="800,-475.38 699.25,-475.38 699.25,-433.62 800,-433.62 800,-475.38"/>
<text text-anchor="start" x="707.25" y="-461.88" font-family="Helvetica,sans-Serif" font-size="10.00">mimicpp::printing::</text>
<text text-anchor="start" x="707.25" y="-450.62" font-family="Helvetica,sans-Serif" font-size="10.00">type::parsing::ignore</text>
<text text-anchor="middle" x="749.62" y="-439.38" font-family="Helvetica,sans-Serif" font-size="10.00">_reserved_identifier</text>
</a>
</g>
</g>
<!-- Node1&#45;&gt;Node3 -->
<g id="edge2_Node000001_Node000003" class="edge">
<title>Node1&#45;&gt;Node3</title>
<g id="a_edge2_Node000001_Node000003"><a xlink:title=" ">
<path fill="none" stroke="#63b8ff" d="M867.78,-386.73C853.77,-395.77 837.94,-405.75 823.25,-414.5 812.74,-420.76 801.2,-427.27 790.47,-433.18"/>
<polygon fill="#63b8ff" stroke="#63b8ff" points="869.4,-389.85 875.88,-381.47 865.59,-383.98 869.4,-389.85"/>
</a>
</g>
</g>
<!-- Node4 -->
<g id="Node000004" class="node">
<title>Node4</title>
<g id="a_Node000004"><a xlink:href="../../d2/d01/namespacemimicpp_1_1printing_1_1type_1_1parsing_1_1token.html#a07683c6a86601f69f859c26a1e7ed3e0" target="_top" xlink:title=" ">
<polygon fill="white" stroke="#666666" points="628.38,-293.38 507.38,-293.38 507.38,-251.62 628.38,-251.62 628.38,-293.38"/>
<text text-anchor="start" x="515.38" y="-279.88" font-family="Helvetica,sans-Serif" font-size="10.00">mimicpp::printing::</text>
<text text-anchor="start" x="515.38" y="-268.62" font-family="Helvetica,sans-Serif" font-size="10.00">type::parsing::token</text>
<text text-anchor="middle" x="567.88" y="-257.38" font-family="Helvetica,sans-Serif" font-size="10.00">::try_reduce_as_function</text>
</a>
</g>
</g>
<!-- Node1&#45;&gt;Node4 -->
<g id="edge20_Node000001_Node000004" class="edge">
<title>Node1&#45;&gt;Node4</title>
<g id="a_edge20_Node000001_Node000004"><a xlink:title=" ">
<path fill="none" stroke="#63b8ff" d="M904.89,-327.18C897.37,-283.18 876.87,-205.98 823.25,-171.5 768.2,-136.11 736.82,-147.35 676,-171.5 635.61,-187.54 601.63,-226.81 583.35,-251.39"/>
<polygon fill="#63b8ff" stroke="#63b8ff" points="901.41,-327.55 906.41,-336.89 908.32,-326.47 901.41,-327.55"/>
</a>
</g>
</g>
<!-- Node6 -->
<g id="Node000006" class="node">
<title>Node6</title>
<g id="a_Node000006"><a xlink:href="../../d2/d01/namespacemimicpp_1_1printing_1_1type_1_1parsing_1_1token.html#a6a89a061edac701c282c9092936a45e6" target="_top" xlink:title=" ">
<polygon fill="white" stroke="#666666" points="459.75,-414 338.75,-414 338.75,-361 459.75,-361 459.75,-414"/>
<text text-anchor="start" x="346.75" y="-400.5" font-family="Helvetica,sans-Serif" font-size="10.00">mimicpp::printing::</text>
<text text-anchor="start" x="346.75" y="-389.25" font-family="Helvetica,sans-Serif" font-size="10.00">type::parsing::token</text>
<text text-anchor="start" x="346.75" y="-378" font-family="Helvetica,sans-Serif" font-size="10.00">::try_reduce_as_function</text>
<text text-anchor="middle" x="399.25" y="-366.75" font-family="Helvetica,sans-Serif" font-size="10.00">_identifier</text>
</a>
</g>
</g>
<!-- Node1&#45;&gt;Node6 -->
<g id="edge22_Node000001_Node000006" class="edge">
<title>Node1&#45;&gt;Node6</title>
<g id="a_edge22_Node000001_Node000006"><a xlink:title=" ">
<path fill="none" stroke="#63b8ff" d="M847.59,-361.4C766.83,-364.11 620.54,-369.76 495.75,-378.5 484.2,-379.31 471.89,-380.34 460.07,-381.42"/>
<polygon fill="#63b8ff" stroke="#63b8ff" points="847.63,-364.9 857.51,-361.07 847.4,-357.91 847.63,-364.9"/>
</a>
</g>
</g>
<!-- Node7 -->
<g id="Node000007" class="node">
<title>Node7</title>
<g id="a_Node000007"><a xlink:href="../../d2/d01/namespacemimicpp_1_1printing_1_1type_1_1parsing_1_1token.html#a4d518873823efc6de136d1df21948090" target="_top" xlink:title=" ">
<polygon fill="white" stroke="#666666" points="302.75,-419 165.25,-419 165.25,-366 302.75,-366 302.75,-419"/>
<text text-anchor="start" x="173.25" y="-405.5" font-family="Helvetica,sans-Serif" font-size="10.00">mimicpp::printing::</text>
<text text-anchor="start" x="173.25" y="-394.25" font-family="Helvetica,sans-Serif" font-size="10.00">type::parsing::token</text>
<text text-anchor="start" x="173.25" y="-383" font-family="Helvetica,sans-Serif" font-size="10.00">::reduce_as_conversion</text>
<text text-anchor="middle" x="234" y="-371.75" font-family="Helvetica,sans-Serif" font-size="10.00">_operator_function_identifier</text>
</a>
</g>
</g>
<!-- Node1&#45;&gt;Node7 -->
<g id="edge18_Node000001_Node000007" class="edge">
<title>Node1&#45;&gt;Node7</title>
<g id="a_edge18_Node000001_Node000007"><a xlink:title=" ">
<path fill="none" stroke="#63b8ff" d="M847.52,-350.96C742.26,-338.07 521.23,-318.54 338.75,-352.5 323.76,-355.29 308.14,-360.17 293.71,-365.58"/>
<polygon fill="#63b8ff" stroke="#63b8ff" points="847,-354.43 857.36,-352.19 847.87,-347.48 847,-354.43"/>
</a>
</g>
</g>
<!-- Node8 -->
<g id="Node000008" class="node">
<title>Node8</title>
<g id="a_Node000008"><a xlink:href="../../d2/d01/namespacemimicpp_1_1printing_1_1type_1_1parsing_1_1token.html#a724e4bbc36dd71f0a537ed245184e436" target="_top" xlink:title=" ">
<polygon fill="white" stroke="#666666" points="636.62,-429.38 499.12,-429.38 499.12,-387.62 636.62,-387.62 636.62,-429.38"/>
<text text-anchor="start" x="507.12" y="-415.88" font-family="Helvetica,sans-Serif" font-size="10.00">mimicpp::printing::</text>
<text text-anchor="start" x="507.12" y="-404.62" font-family="Helvetica,sans-Serif" font-size="10.00">type::parsing::token</text>
<text text-anchor="middle" x="567.88" y="-393.38" font-family="Helvetica,sans-Serif" font-size="10.00">::try_reduce_as_function_ptr</text>
</a>
</g>
</g>
<!-- Node1&#45;&gt;Node8 -->
<g id="edge23_Node000001_Node000008" class="edge">
<title>Node1&#45;&gt;Node8</title>
<g id="a_edge23_Node000001_Node000008"><a xlink:title=" ">
<path fill="none" stroke="#63b8ff" d="M847.96,-369.66C839.66,-370.98 831.25,-372.3 823.25,-373.5 760.21,-382.98 688.23,-392.79 636.96,-399.6"/>
<polygon fill="#63b8ff" stroke="#63b8ff" points="848.35,-373.14 857.66,-368.1 847.23,-366.23 848.35,-373.14"/>
</a>
</g>
</g>
<!-- Node9 -->
<g id="Node000009" class="node">
<title>Node9</title>
<g id="a_Node000009"><a xlink:href="../../d2/d01/namespacemimicpp_1_1printing_1_1type_1_1parsing_1_1token.html#aef6b0bd46bc6cc213bfdbd6a11cbe510" target="_top" xlink:title=" ">
<polygon fill="white" stroke="#666666" points="628.38,-539 507.38,-539 507.38,-486 628.38,-486 628.38,-539"/>
<text text-anchor="start" x="515.38" y="-525.5" font-family="Helvetica,sans-Serif" font-size="10.00">mimicpp::printing::</text>
<text text-anchor="start" x="515.38" y="-514.25" font-family="Helvetica,sans-Serif" font-size="10.00">type::parsing::token</text>
<text text-anchor="start" x="515.38" y="-503" font-family="Helvetica,sans-Serif" font-size="10.00">::try_reduce_as_function</text>
<text text-anchor="middle" x="567.88" y="-491.75" font-family="Helvetica,sans-Serif" font-size="10.00">_ptr_type</text>
</a>
</g>
</g>
<!-- Node1&#45;&gt;Node9 -->
<g id="edge24_Node000001_Node000009" class="edge">
<title>Node1&#45;&gt;Node9</title>
<g id="a_edge24_Node000001_Node000009"><a xlink:title=" ">
<path fill="none" stroke="#63b8ff" d="M896.74,-390.74C883.39,-420.24 859.04,-463.07 823.25,-484.5 764.17,-519.88 683.38,-522.68 628.83,-519.39"/>
<polygon fill="#63b8ff" stroke="#63b8ff" points="899.79,-392.49 900.56,-381.93 893.37,-389.71 899.79,-392.49"/>
</a>
</g>
</g>
<!-- Node12 -->
<g id="Node000012" class="node">
<title>Node12</title>
<g id="a_Node000012"><a xlink:href="../../d2/d01/namespacemimicpp_1_1printing_1_1type_1_1parsing_1_1token.html#a7bb9c9ee7f8a3e26655e10306270ea66" target="_top" xlink:title=" ">
<polygon fill="white" stroke="#666666" points="640,-598.38 495.75,-598.38 495.75,-556.62 640,-556.62 640,-598.38"/>
<text text-anchor="start" x="503.75" y="-584.88" font-family="Helvetica,sans-Serif" font-size="10.00">mimicpp::printing::</text>
<text text-anchor="start" x="503.75" y="-573.62" font-family="Helvetica,sans-Serif" font-size="10.00">type::parsing::token</text>
<text text-anchor="middle" x="567.88" y="-562.38" font-family="Helvetica,sans-Serif" font-size="10.00">::try_reduce_as_function_type</text>
</a>
</g>
</g>
<!-- Node1&#45;&gt;Node12 -->
<g id="edge25_Node000001_Node000012" class="edge">
<title>Node1&#45;&gt;Node12</title>
<g id="a_edge25_Node000001_Node000012"><a xlink:title=" ">
<path fill="none" stroke="#63b8ff" d="M900.13,-391.56C888.49,-427.51 864.54,-484.91 823.25,-516.5 770.59,-556.79 695.26,-570.97 640.24,-575.71"/>
<polygon fill="#63b8ff" stroke="#63b8ff" points="903.43,-392.73 903.04,-382.14 896.74,-390.67 903.43,-392.73"/>
</a>
</g>
</g>
<!-- Node13 -->
<g id="Node000013" class="node">
<title>Node13</title>
<g id="a_Node000013"><a xlink:href="../../d2/d01/namespacemimicpp_1_1printing_1_1type_1_1parsing_1_1token.html#a490b3be1687828e9a8c4acad127aeddd" target="_top" xlink:title=" ">
<polygon fill="white" stroke="#666666" points="823.25,-293.38 676,-293.38 676,-251.62 823.25,-251.62 823.25,-293.38"/>
<text text-anchor="start" x="684" y="-279.88" font-family="Helvetica,sans-Serif" font-size="10.00">mimicpp::printing::</text>
<text text-anchor="start" x="684" y="-268.62" font-family="Helvetica,sans-Serif" font-size="10.00">type::parsing::token</text>
<text text-anchor="middle" x="749.62" y="-257.38" font-family="Helvetica,sans-Serif" font-size="10.00">::try_reduce_as_arg_sequence</text>
</a>
</g>
</g>
<!-- Node1&#45;&gt;Node13 -->
<g id="edge19_Node000001_Node000013" class="edge">
<title>Node1&#45;&gt;Node13</title>
<g id="a_edge19_Node000001_Node000013"><a xlink:title=" ">
<path fill="none" stroke="#63b8ff" d="M866.09,-332.37C852.54,-324.11 837.41,-315.18 823.25,-307.5 814.76,-302.89 805.57,-298.23 796.68,-293.87"/>
<polygon fill="#63b8ff" stroke="#63b8ff" points="863.99,-335.19 874.34,-337.45 867.66,-329.23 863.99,-335.19"/>
</a>
</g>
</g>
<!-- Node14 -->
<g id="Node000014" class="node">
<title>Node14</title>
<g id="a_Node000014"><a xlink:href="../../d2/d01/namespacemimicpp_1_1printing_1_1type_1_1parsing_1_1token.html#a6f7846573af7bff0916d218f7f1589e5" target="_top" xlink:title=" ">
<polygon fill="white" stroke="#666666" points="810.12,-234 689.12,-234 689.12,-181 810.12,-181 810.12,-234"/>
<text text-anchor="start" x="697.12" y="-220.5" font-family="Helvetica,sans-Serif" font-size="10.00">mimicpp::printing::</text>
<text text-anchor="start" x="697.12" y="-209.25" font-family="Helvetica,sans-Serif" font-size="10.00">type::parsing::token</text>
<text text-anchor="start" x="697.12" y="-198" font-family="Helvetica,sans-Serif" font-size="10.00">::try_reduce_as_function</text>
<text text-anchor="middle" x="749.62" y="-186.75" font-family="Helvetica,sans-Serif" font-size="10.00">_context</text>
</a>
</g>
</g>
<!-- Node1&#45;&gt;Node14 -->
<g id="edge21_Node000001_Node000014" class="edge">
<title>Node1&#45;&gt;Node14</title>
<g id="a_edge21_Node000001_Node000014"><a xlink:title=" ">
<path fill="none" stroke="#63b8ff" d="M892.3,-328.85C877.06,-303.13 852.48,-266.81 823.25,-242.5 819.27,-239.19 814.92,-236.1 810.4,-233.25"/>
<polygon fill="#63b8ff" stroke="#63b8ff" points="889.07,-330.26 897.11,-337.17 895.13,-326.76 889.07,-330.26"/>
</a>
</g>
</g>
<!-- Node15 -->
<g id="Node000015" class="node">
<title>Node15</title>
<g id="a_Node000015"><a xlink:href="../../d2/d01/namespacemimicpp_1_1printing_1_1type_1_1parsing_1_1token.html#a456922fe33538205c28f5cc1b522a6bb" target="_top" xlink:title=" ">
<polygon fill="white" stroke="#666666" points="637.38,-658.38 498.38,-658.38 498.38,-616.62 637.38,-616.62 637.38,-658.38"/>
<text text-anchor="start" x="506.38" y="-644.88" font-family="Helvetica,sans-Serif" font-size="10.00">mimicpp::printing::</text>
<text text-anchor="start" x="506.38" y="-633.62" font-family="Helvetica,sans-Serif" font-size="10.00">type::parsing::token</text>
<text text-anchor="middle" x="567.88" y="-622.38" font-family="Helvetica,sans-Serif" font-size="10.00">::try_reduce_as_regular_type</text>
</a>
</g>
</g>
<!-- Node1&#45;&gt;Node15 -->
<g id="edge26_Node000001_Node000015" class="edge">
<title>Node1&#45;&gt;Node15</title>
<g id="a_edge26_Node000001_Node000015"><a xlink:title=" ">
<path fill="none" stroke="#63b8ff" d="M903.58,-391.9C894.59,-435.64 872.45,-513.17 823.25,-557.5 771.83,-603.83 693.72,-623.33 637.62,-631.54"/>
<polygon fill="#63b8ff" stroke="#63b8ff" points="906.98,-392.75 905.45,-382.26 900.11,-391.42 906.98,-392.75"/>
</a>
</g>
</g>
<!-- Node16 -->
<g id="Node000016" class="node">
<title>Node16</title>
<g id="a_Node000016"><a xlink:href="../../d2/d01/namespacemimicpp_1_1printing_1_1type_1_1parsing_1_1token.html#a5eaba0578b3e5038c42a6137db9e9fdf" target="_top" xlink:title=" ">
<polygon fill="white" stroke="#666666" points="806,-124 693.25,-124 693.25,-71 806,-71 806,-124"/>
<text text-anchor="start" x="701.25" y="-110.5" font-family="Helvetica,sans-Serif" font-size="10.00">mimicpp::printing::</text>
<text text-anchor="start" x="701.25" y="-99.25" font-family="Helvetica,sans-Serif" font-size="10.00">type::parsing::token</text>
<text text-anchor="start" x="701.25" y="-88" font-family="Helvetica,sans-Serif" font-size="10.00">::try_reduce_as_scope</text>
<text text-anchor="middle" x="749.62" y="-76.75" font-family="Helvetica,sans-Serif" font-size="10.00">_sequence</text>
</a>
</g>
</g>
<!-- Node1&#45;&gt;Node16 -->
<g id="edge28_Node000001_Node000016" class="edge">
<title>Node1&#45;&gt;Node16</title>
<g id="a_edge28_Node000001_Node000016"><a xlink:title=" ">
<path fill="none" stroke="#63b8ff" d="M903.54,-326.96C894.27,-280.42 871.57,-194.32 823.25,-138.5 818.42,-132.92 812.63,-127.93 806.45,-123.53"/>
<polygon fill="#63b8ff" stroke="#63b8ff" points="900.08,-327.51 905.38,-336.68 906.96,-326.21 900.08,-327.51"/>
</a>
</g>
</g>
<!-- Node17 -->
<g id="Node000017" class="node">
<title>Node17</title>
<g id="a_Node000017"><a xlink:href="../../d2/d01/namespacemimicpp_1_1printing_1_1type_1_1parsing_1_1token.html#a47ef121fe5cf3b9071a530d5461365b3" target="_top" xlink:title=" ">
<polygon fill="white" stroke="#666666" points="811.62,-53 687.62,-53 687.62,0 811.62,0 811.62,-53"/>
<text text-anchor="start" x="695.62" y="-39.5" font-family="Helvetica,sans-Serif" font-size="10.00">mimicpp::printing::</text>
<text text-anchor="start" x="695.62" y="-28.25" font-family="Helvetica,sans-Serif" font-size="10.00">type::parsing::token</text>
<text text-anchor="start" x="695.62" y="-17" font-family="Helvetica,sans-Serif" font-size="10.00">::try_reduce_as_template</text>
<text text-anchor="middle" x="749.62" y="-5.75" font-family="Helvetica,sans-Serif" font-size="10.00">_identifier</text>
</a>
</g>
</g>
<!-- Node1&#45;&gt;Node17 -->
<g id="edge29_Node000001_Node000017" class="edge">
<title>Node1&#45;&gt;Node17</title>
<g id="a_edge29_Node000001_Node000017"><a xlink:title=" ">
<path fill="none" stroke="#63b8ff" d="M908.07,-327.12C904.71,-267.71 889.68,-140.21 823.25,-61.5 819.91,-57.54 816.02,-54 811.8,-50.83"/>
<polygon fill="#63b8ff" stroke="#63b8ff" points="904.56,-327.05 908.53,-336.88 911.55,-326.72 904.56,-327.05"/>
</a>
</g>
</g>
<!-- Node3&#45;&gt;Node4 -->
<g id="edge3_Node000003_Node000004" class="edge">
<title>Node3&#45;&gt;Node4</title>
<g id="a_edge3_Node000003_Node000004"><a xlink:title=" ">
<path fill="none" stroke="#63b8ff" d="M719.87,-425.38C683.52,-388.58 621.83,-326.12 589.71,-293.6"/>
<polygon fill="#63b8ff" stroke="#63b8ff" points="717.07,-427.53 726.59,-432.19 722.05,-422.61 717.07,-427.53"/>
</a>
</g>
</g>
<!-- Node3&#45;&gt;Node6 -->
<g id="edge5_Node000003_Node000006" class="edge">
<title>Node3&#45;&gt;Node6</title>
<g id="a_edge5_Node000003_Node000006"><a xlink:title=" ">
<path fill="none" stroke="#63b8ff" d="M687.74,-457.8C635.75,-458.95 559.48,-456.61 495.75,-438.5 476.95,-433.16 457.66,-423.74 441.39,-414.44"/>
<polygon fill="#63b8ff" stroke="#63b8ff" points="687.69,-461.31 697.59,-457.53 687.5,-454.31 687.69,-461.31"/>
</a>
</g>
</g>
<!-- Node3&#45;&gt;Node8 -->
<g id="edge9_Node000003_Node000008" class="edge">
<title>Node3&#45;&gt;Node8</title>
<g id="a_edge9_Node000003_Node000008"><a xlink:title=" ">
<path fill="none" stroke="#63b8ff" d="M687.92,-438.97C671.49,-434.76 653.61,-430.18 636.81,-425.88"/>
<polygon fill="#63b8ff" stroke="#63b8ff" points="687.01,-442.34 697.57,-441.43 688.75,-435.56 687.01,-442.34"/>
</a>
</g>
</g>
<!-- Node3&#45;&gt;Node9 -->
<g id="edge10_Node000003_Node000009" class="edge">
<title>Node3&#45;&gt;Node9</title>
<g id="a_edge10_Node000003_Node000009"><a xlink:title=" ">
<path fill="none" stroke="#63b8ff" d="M688.32,-473.96C669.16,-480.14 647.99,-486.97 628.86,-493.15"/>
<polygon fill="#63b8ff" stroke="#63b8ff" points="689.15,-477.37 697.59,-470.97 687,-470.71 689.15,-477.37"/>
</a>
</g>
</g>
<!-- Node3&#45;&gt;Node12 -->
<g id="edge16_Node000003_Node000012" class="edge">
<title>Node3&#45;&gt;Node12</title>
<g id="a_edge16_Node000003_Node000012"><a xlink:title=" ">
<path fill="none" stroke="#63b8ff" d="M720.15,-483.77C699.35,-503.94 669.71,-530.28 640,-548.5 635.57,-551.22 630.83,-553.78 626,-556.18"/>
<polygon fill="#63b8ff" stroke="#63b8ff" points="722.47,-486.4 727.14,-476.89 717.56,-481.41 722.47,-486.4"/>
</a>
</g>
</g>
<!-- Node5 -->
<g id="Node000005" class="node">
<title>Node5</title>
<g id="a_Node000005"><a xlink:href="../../d4/dc0/classmimicpp_1_1printing_1_1type_1_1parsing_1_1_name_parser.html#a3038c253ab2bda06c1f2d93b3e4d92c3" target="_top" xlink:title=" ">
<polygon fill="white" stroke="#666666" points="129.25,-385.38 0,-385.38 0,-343.62 129.25,-343.62 129.25,-385.38"/>
<text text-anchor="start" x="8" y="-371.88" font-family="Helvetica,sans-Serif" font-size="10.00">mimicpp::printing::</text>
<text text-anchor="start" x="8" y="-360.62" font-family="Helvetica,sans-Serif" font-size="10.00">type::parsing::NameParser</text>
<text text-anchor="middle" x="64.62" y="-349.38" font-family="Helvetica,sans-Serif" font-size="10.00">::parse_function</text>
</a>
</g>
</g>
<!-- Node4&#45;&gt;Node5 -->
<g id="edge4_Node000004_Node000005" class="edge">
<title>Node4&#45;&gt;Node5</title>
<g id="a_edge4_Node000004_Node000005"><a xlink:title=" ">
<path fill="none" stroke="#63b8ff" d="M496.02,-282.37C450.9,-288.91 391.27,-298 338.75,-307.5 266.89,-320.5 184.96,-337.96 129.73,-350.11"/>
<polygon fill="#63b8ff" stroke="#63b8ff" points="496.27,-285.87 505.67,-280.98 495.27,-278.95 496.27,-285.87"/>
</a>
</g>
</g>
<!-- Node6&#45;&gt;Node5 -->
<g id="edge6_Node000006_Node000005" class="edge">
<title>Node6&#45;&gt;Node5</title>
<g id="a_edge6_Node000006_Node000005"><a xlink:title=" ">
<path fill="none" stroke="#63b8ff" d="M327.24,-362.6C319.06,-360.51 310.78,-358.73 302.75,-357.5 244.64,-348.59 177.6,-351.79 129.67,-356.37"/>
<polygon fill="#63b8ff" stroke="#63b8ff" points="326.25,-365.96 336.82,-365.23 328.1,-359.21 326.25,-365.96"/>
</a>
</g>
</g>
<!-- Node6&#45;&gt;Node7 -->
<g id="edge7_Node000006_Node000007" class="edge">
<title>Node6&#45;&gt;Node7</title>
<g id="a_edge7_Node000006_Node000007"><a xlink:title=" ">
<path fill="none" stroke="#63b8ff" d="M326.94,-389.68C319.03,-389.93 311,-390.17 303.14,-390.41"/>
<polygon fill="#63b8ff" stroke="#63b8ff" points="326.99,-393.18 336.88,-389.38 326.77,-386.19 326.99,-393.18"/>
</a>
</g>
</g>
<!-- Node7&#45;&gt;Node5 -->
<g id="edge8_Node000007_Node000005" class="edge">
<title>Node7&#45;&gt;Node5</title>
<g id="a_edge8_Node000007_Node000005"><a xlink:title=" ">
<path fill="none" stroke="#63b8ff" d="M153.61,-379.22C145.55,-377.87 137.45,-376.52 129.59,-375.2"/>
<polygon fill="#63b8ff" stroke="#63b8ff" points="152.99,-382.66 163.43,-380.86 154.14,-375.76 152.99,-382.66"/>
</a>
</g>
</g>
<!-- Node10 -->
<g id="Node000010" class="node">
<title>Node10</title>
<g id="a_Node000010"><a xlink:href="../../d2/d01/namespacemimicpp_1_1printing_1_1type_1_1parsing_1_1token.html#a26830c23619a96ea3bdc2da8226c8a2c" target="_top" xlink:title=" ">
<polygon fill="white" stroke="#666666" points="451.5,-564.38 347,-564.38 347,-522.62 451.5,-522.62 451.5,-564.38"/>
<text text-anchor="start" x="355" y="-550.88" font-family="Helvetica,sans-Serif" font-size="10.00">mimicpp::printing::</text>
<text text-anchor="start" x="355" y="-539.62" font-family="Helvetica,sans-Serif" font-size="10.00">type::parsing::token</text>
<text text-anchor="middle" x="399.25" y="-528.38" font-family="Helvetica,sans-Serif" font-size="10.00">::try_reduce_as_type</text>
</a>
</g>
</g>
<!-- Node9&#45;&gt;Node10 -->
<g id="edge11_Node000009_Node000010" class="edge">
<title>Node9&#45;&gt;Node10</title>
<g id="a_edge11_Node000009_Node000010"><a xlink:title=" ">
<path fill="none" stroke="#63b8ff" d="M495.98,-525.69C481.15,-528.45 465.77,-531.31 451.8,-533.91"/>
<polygon fill="#63b8ff" stroke="#63b8ff" points="496.51,-529.15 505.7,-523.88 495.23,-522.27 496.51,-529.15"/>
</a>
</g>
</g>
<!-- Node10&#45;&gt;Node2 -->
<g id="edge12_Node000010_Node000002" class="edge">
<title>Node10&#45;&gt;Node2</title>
<g id="a_edge12_Node000010_Node000002"><a xlink:title=" ">
<path fill="none" stroke="#63b8ff" d="M345.26,-569.79C323.45,-580.61 298.52,-592.98 277.89,-603.22"/>
<polygon fill="#63b8ff" stroke="#63b8ff" points="346.6,-573.03 354,-565.45 343.49,-566.76 346.6,-573.03"/>
</a>
</g>
</g>
<!-- Node10&#45;&gt;Node5 -->
<g id="edge13_Node000010_Node000005" class="edge">
<title>Node10&#45;&gt;Node5</title>
<g id="a_edge13_Node000010_Node000005"><a xlink:title=" ">
<path fill="none" stroke="#63b8ff" d="M335.25,-552.99C285.5,-557.22 216.2,-555.57 165.25,-524.5 112.87,-492.56 83.77,-421.57 71.96,-385.87"/>
<polygon fill="#63b8ff" stroke="#63b8ff" points="335.38,-556.49 344.99,-552.05 334.71,-549.53 335.38,-556.49"/>
</a>
</g>
</g>
<!-- Node10&#45;&gt;Node7 -->
<g id="edge15_Node000010_Node000007" class="edge">
<title>Node10&#45;&gt;Node7</title>
<g id="a_edge15_Node000010_Node000007"><a xlink:title=" ">
<path fill="none" stroke="#63b8ff" d="M366.86,-514.46C337.14,-486.98 292.88,-446.04 263.98,-419.31"/>
<polygon fill="#63b8ff" stroke="#63b8ff" points="364.38,-516.94 374.1,-521.16 369.13,-511.8 364.38,-516.94"/>
</a>
</g>
</g>
<!-- Node11 -->
<g id="Node000011" class="node">
<title>Node11</title>
<g id="a_Node000011"><a xlink:href="../../d4/dc0/classmimicpp_1_1printing_1_1type_1_1parsing_1_1_name_parser.html#a5989c6d47e8eb8cea51c8de4adb30490" target="_top" xlink:title=" ">
<polygon fill="white" stroke="#666666" points="298.62,-515.38 169.38,-515.38 169.38,-473.62 298.62,-473.62 298.62,-515.38"/>
<text text-anchor="start" x="177.38" y="-501.88" font-family="Helvetica,sans-Serif" font-size="10.00">mimicpp::printing::</text>
<text text-anchor="start" x="177.38" y="-490.62" font-family="Helvetica,sans-Serif" font-size="10.00">type::parsing::NameParser</text>
<text text-anchor="middle" x="234" y="-479.38" font-family="Helvetica,sans-Serif" font-size="10.00">::parse_type</text>
</a>
</g>
</g>
<!-- Node10&#45;&gt;Node11 -->
<g id="edge14_Node000010_Node000011" class="edge">
<title>Node10&#45;&gt;Node11</title>
<g id="a_edge14_Node000010_Node000011"><a xlink:title=" ">
<path fill="none" stroke="#63b8ff" d="M335.73,-524.73C323.67,-521.12 311.03,-517.32 298.94,-513.69"/>
<polygon fill="#63b8ff" stroke="#63b8ff" points="334.56,-528.04 345.15,-527.56 336.58,-521.33 334.56,-528.04"/>
</a>
</g>
</g>
<!-- Node12&#45;&gt;Node10 -->
<g id="edge17_Node000012_Node000010" class="edge">
<title>Node12&#45;&gt;Node10</title>
<g id="a_edge17_Node000012_Node000010"><a xlink:title=" ">
<path fill="none" stroke="#63b8ff" d="M484.58,-560.71C473.4,-558.43 462.19,-556.14 451.76,-554.01"/>
<polygon fill="#63b8ff" stroke="#63b8ff" points="483.75,-564.11 494.24,-562.68 485.15,-557.25 483.75,-564.11"/>
</a>
</g>
</g>
<!-- Node15&#45;&gt;Node10 -->
<g id="edge27_Node000015_Node000010" class="edge">
<title>Node15&#45;&gt;Node10</title>
<g id="a_edge27_Node000015_Node000010"><a xlink:title=" ">
<path fill="none" stroke="#63b8ff" d="M502.94,-611.23C500.49,-610.01 498.09,-608.76 495.75,-607.5 472.21,-594.8 447.15,-577.86 428.61,-564.6"/>
<polygon fill="#63b8ff" stroke="#63b8ff" points="501.25,-614.31 511.78,-615.49 504.29,-608 501.25,-614.31"/>
</a>
</g>
</g>
</g>
</svg>
