<?xml version="1.0" encoding="UTF-8" standalone="no"?>
<!DOCTYPE svg PUBLIC "-//W3C//DTD SVG 1.1//EN"
 "http://www.w3.org/Graphics/SVG/1.1/DTD/svg11.dtd">
<!-- Generated by graphviz version 12.2.1 (20241206.2353)
 -->
<!-- Title: mimicpp::printing::type::parsing::is_suffix_of Pages: 1 -->
<svg width="1142pt" height="998pt"
 viewBox="0.00 0.00 1141.50 997.87" xmlns="http://www.w3.org/2000/svg" xmlns:xlink="http://www.w3.org/1999/xlink">
<g id="graph0" class="graph" transform="scale(1 1) rotate(0) translate(4 993.87)">
<title>mimicpp::printing::type::parsing::is_suffix_of</title>
<!-- Node1 -->
<g id="Node000001" class="node">
<title>Node1</title>
<g id="a_Node000001"><a xlink:title=" ">
<polygon fill="#999999" stroke="#666666" points="1133.5,-479.31 1011,-479.31 1011,-448.81 1133.5,-448.81 1133.5,-479.31"/>
<text text-anchor="start" x="1019" y="-465.81" font-family="Helvetica,sans-Serif" font-size="10.00">mimicpp::printing::</text>
<text text-anchor="middle" x="1072.25" y="-454.56" font-family="Helvetica,sans-Serif" font-size="10.00">type::parsing::is_suffix_of</text>
</a>
</g>
</g>
<!-- Node2 -->
<g id="Node000002" class="node">
<title>Node2</title>
<g id="a_Node000002"><a xlink:href="../../d2/d01/namespacemimicpp_1_1printing_1_1type_1_1parsing_1_1token.html#aea8a32c1af3a4e18ff0c853b429cc7ad" target="_top" xlink:title=" ">
<polygon fill="white" stroke="#666666" points="294.5,-669.94 173.5,-669.94 173.5,-628.19 294.5,-628.19 294.5,-669.94"/>
<text text-anchor="start" x="181.5" y="-656.44" font-family="Helvetica,sans-Serif" font-size="10.00">mimicpp::printing::</text>
<text text-anchor="start" x="181.5" y="-645.19" font-family="Helvetica,sans-Serif" font-size="10.00">type::parsing::token</text>
<text text-anchor="middle" x="234" y="-633.94" font-family="Helvetica,sans-Serif" font-size="10.00">::get_or_emplace_specs</text>
</a>
</g>
</g>
<!-- Node1&#45;&gt;Node2 -->
<g id="edge1_Node000001_Node000002" class="edge">
<title>Node1&#45;&gt;Node2</title>
<g id="a_edge1_Node000001_Node000002"><a xlink:title=" ">
<path fill="none" stroke="#63b8ff" d="M1070.07,-490.83C1065.39,-583.73 1044.84,-889.89 975,-952.06 894.79,-1023.47 841.51,-971.06 734.12,-971.06 734.12,-971.06 734.12,-971.06 550.38,-971.06 381.36,-971.06 273.04,-741.83 243.31,-670.19"/>
<polygon fill="#63b8ff" stroke="#63b8ff" points="1073.56,-491.09 1070.55,-480.93 1066.57,-490.75 1073.56,-491.09"/>
</a>
</g>
</g>
<!-- Node3 -->
<g id="Node000003" class="node">
<title>Node3</title>
<g id="a_Node000003"><a xlink:href="../../d5/dd4/namespacemimicpp_1_1printing_1_1type_1_1parsing.html#acb4998796de89ec78c2baab68b9ceb76" target="_top" xlink:title=" ">
<polygon fill="white" stroke="#666666" points="975,-845.31 842.75,-845.31 842.75,-814.81 975,-814.81 975,-845.31"/>
<text text-anchor="start" x="850.75" y="-831.81" font-family="Helvetica,sans-Serif" font-size="10.00">mimicpp::printing::</text>
<text text-anchor="middle" x="908.88" y="-820.56" font-family="Helvetica,sans-Serif" font-size="10.00">type::parsing::ignore_space</text>
</a>
</g>
</g>
<!-- Node1&#45;&gt;Node3 -->
<g id="edge2_Node000001_Node000003" class="edge">
<title>Node1&#45;&gt;Node3</title>
<g id="a_edge2_Node000001_Node000003"><a xlink:title=" ">
<path fill="none" stroke="#63b8ff" d="M1070.94,-491.13C1068.81,-553.41 1055.24,-708.65 975,-801.06 970.37,-806.39 964.58,-810.78 958.37,-814.39"/>
<polygon fill="#63b8ff" stroke="#63b8ff" points="1074.44,-491.23 1071.2,-481.14 1067.44,-491.05 1074.44,-491.23"/>
</a>
</g>
</g>
<!-- Node5 -->
<g id="Node000005" class="node">
<title>Node5</title>
<g id="a_Node000005"><a xlink:href="../../d4/dc0/classmimicpp_1_1printing_1_1type_1_1parsing_1_1_name_parser.html#a3038c253ab2bda06c1f2d93b3e4d92c3" target="_top" xlink:title=" ">
<polygon fill="white" stroke="#666666" points="129.25,-473.94 0,-473.94 0,-432.19 129.25,-432.19 129.25,-473.94"/>
<text text-anchor="start" x="8" y="-460.44" font-family="Helvetica,sans-Serif" font-size="10.00">mimicpp::printing::</text>
<text text-anchor="start" x="8" y="-449.19" font-family="Helvetica,sans-Serif" font-size="10.00">type::parsing::NameParser</text>
<text text-anchor="middle" x="64.62" y="-437.94" font-family="Helvetica,sans-Serif" font-size="10.00">::parse_function</text>
</a>
</g>
</g>
<!-- Node1&#45;&gt;Node5 -->
<g id="edge38_Node000001_Node000005" class="edge">
<title>Node1&#45;&gt;Node5</title>
<g id="a_edge38_Node000001_Node000005"><a xlink:title=" ">
<path fill="none" stroke="#63b8ff" d="M1069.02,-437.38C1061.45,-353.56 1033.87,-97.9 975,-44.06 895.27,28.86 842.18,-11.06 734.12,-11.06 734.12,-11.06 734.12,-11.06 390,-11.06 178.69,-11.06 89.94,-343.45 70.09,-431.75"/>
<polygon fill="#63b8ff" stroke="#63b8ff" points="1065.52,-437.5 1069.88,-447.16 1072.49,-436.89 1065.52,-437.5"/>
</a>
</g>
</g>
<!-- Node6 -->
<g id="Node000006" class="node">
<title>Node6</title>
<g id="a_Node000006"><a xlink:href="../../d2/d01/namespacemimicpp_1_1printing_1_1type_1_1parsing_1_1token.html#a4d518873823efc6de136d1df21948090" target="_top" xlink:title=" ">
<polygon fill="white" stroke="#666666" points="302.75,-424.56 165.25,-424.56 165.25,-371.56 302.75,-371.56 302.75,-424.56"/>
<text text-anchor="start" x="173.25" y="-411.06" font-family="Helvetica,sans-Serif" font-size="10.00">mimicpp::printing::</text>
<text text-anchor="start" x="173.25" y="-399.81" font-family="Helvetica,sans-Serif" font-size="10.00">type::parsing::token</text>
<text text-anchor="start" x="173.25" y="-388.56" font-family="Helvetica,sans-Serif" font-size="10.00">::reduce_as_conversion</text>
<text text-anchor="middle" x="234" y="-377.31" font-family="Helvetica,sans-Serif" font-size="10.00">_operator_function_identifier</text>
</a>
</g>
</g>
<!-- Node1&#45;&gt;Node6 -->
<g id="edge39_Node000001_Node000006" class="edge">
<title>Node1&#45;&gt;Node6</title>
<g id="a_edge39_Node000001_Node000006"><a xlink:title=" ">
<path fill="none" stroke="#63b8ff" d="M1067.51,-437.15C1056.61,-362.57 1022.64,-155.73 975,-109.06 896.19,-31.86 844.45,-49.06 734.12,-49.06 734.12,-49.06 734.12,-49.06 550.38,-49.06 376.84,-49.06 274.1,-289.54 244.19,-371.26"/>
<polygon fill="#63b8ff" stroke="#63b8ff" points="1064.01,-437.42 1068.9,-446.82 1070.94,-436.43 1064.01,-437.42"/>
</a>
</g>
</g>
<!-- Node7 -->
<g id="Node000007" class="node">
<title>Node7</title>
<g id="a_Node000007"><a xlink:href="../../d2/d01/namespacemimicpp_1_1printing_1_1type_1_1parsing_1_1token.html#a724e4bbc36dd71f0a537ed245184e436" target="_top" xlink:title=" ">
<polygon fill="white" stroke="#666666" points="620.12,-718.94 482.62,-718.94 482.62,-677.19 620.12,-677.19 620.12,-718.94"/>
<text text-anchor="start" x="490.62" y="-705.44" font-family="Helvetica,sans-Serif" font-size="10.00">mimicpp::printing::</text>
<text text-anchor="start" x="490.62" y="-694.19" font-family="Helvetica,sans-Serif" font-size="10.00">type::parsing::token</text>
<text text-anchor="middle" x="551.38" y="-682.94" font-family="Helvetica,sans-Serif" font-size="10.00">::try_reduce_as_function_ptr</text>
</a>
</g>
</g>
<!-- Node1&#45;&gt;Node7 -->
<g id="edge41_Node000001_Node000007" class="edge">
<title>Node1&#45;&gt;Node7</title>
<g id="a_edge41_Node000001_Node000007"><a xlink:title=" ">
<path fill="none" stroke="#63b8ff" d="M1059.86,-489.88C1029.81,-553.99 941.35,-718.74 806.75,-766.06 745.01,-787.77 722.34,-784.33 659.5,-766.06 628.19,-756.97 597.28,-735.66 576.77,-719.3"/>
<polygon fill="#63b8ff" stroke="#63b8ff" points="1063.02,-491.39 1064.01,-480.84 1056.66,-488.47 1063.02,-491.39"/>
</a>
</g>
</g>
<!-- Node8 -->
<g id="Node000008" class="node">
<title>Node8</title>
<g id="a_Node000008"><a xlink:href="../../d2/d01/namespacemimicpp_1_1printing_1_1type_1_1parsing_1_1token.html#a05ee766ac770941e249ff847785bf5fe" target="_top" xlink:title=" ">
<polygon fill="white" stroke="#666666" points="801.12,-942.56 665.12,-942.56 665.12,-889.56 801.12,-889.56 801.12,-942.56"/>
<text text-anchor="start" x="673.12" y="-929.06" font-family="Helvetica,sans-Serif" font-size="10.00">mimicpp::printing::</text>
<text text-anchor="start" x="673.12" y="-917.81" font-family="Helvetica,sans-Serif" font-size="10.00">type::parsing::token</text>
<text text-anchor="start" x="673.12" y="-906.56" font-family="Helvetica,sans-Serif" font-size="10.00">::try_reduce_as_placeholder</text>
<text text-anchor="middle" x="733.12" y="-895.31" font-family="Helvetica,sans-Serif" font-size="10.00">_identifier_wrapped</text>
</a>
</g>
</g>
<!-- Node1&#45;&gt;Node8 -->
<g id="edge43_Node000001_Node000008" class="edge">
<title>Node1&#45;&gt;Node8</title>
<g id="a_edge43_Node000001_Node000008"><a xlink:title=" ">
<path fill="none" stroke="#63b8ff" d="M1068.2,-490.91C1058.65,-570.3 1026.82,-801.73 975,-854.06 968.73,-860.39 870.48,-884.32 801.42,-900.53"/>
<polygon fill="#63b8ff" stroke="#63b8ff" points="1071.67,-491.36 1069.36,-481.02 1064.72,-490.54 1071.67,-491.36"/>
</a>
</g>
</g>
<!-- Node9 -->
<g id="Node000009" class="node">
<title>Node9</title>
<g id="a_Node000009"><a xlink:href="../../d2/d01/namespacemimicpp_1_1printing_1_1type_1_1parsing_1_1token.html#ae9d910234e9a6a2f89e7e13892cbd1ea" target="_top" xlink:title=" ">
<polygon fill="white" stroke="#666666" points="958.12,-942.94 859.62,-942.94 859.62,-901.19 958.12,-901.19 958.12,-942.94"/>
<text text-anchor="start" x="867.62" y="-929.44" font-family="Helvetica,sans-Serif" font-size="10.00">mimicpp::printing::</text>
<text text-anchor="start" x="867.62" y="-918.19" font-family="Helvetica,sans-Serif" font-size="10.00">type::parsing::token</text>
<text text-anchor="middle" x="908.88" y="-906.94" font-family="Helvetica,sans-Serif" font-size="10.00">::is_identifier_prefix</text>
</a>
</g>
</g>
<!-- Node1&#45;&gt;Node9 -->
<g id="edge9_Node000001_Node000009" class="edge">
<title>Node1&#45;&gt;Node9</title>
<g id="a_edge9_Node000001_Node000009"><a xlink:title=" ">
<path fill="none" stroke="#63b8ff" d="M1068.07,-490.94C1057.82,-573.76 1023.49,-823.37 975,-887.06 970.49,-892.99 964.68,-898.02 958.39,-902.27"/>
<polygon fill="#63b8ff" stroke="#63b8ff" points="1071.54,-491.4 1069.27,-481.05 1064.59,-490.55 1071.54,-491.4"/>
</a>
</g>
</g>
<!-- Node10 -->
<g id="Node000010" class="node">
<title>Node10</title>
<g id="a_Node000010"><a xlink:href="../../d5/dd4/namespacemimicpp_1_1printing_1_1type_1_1parsing.html#a561e709d444eaf8ab32ba08888b5a290" target="_top" xlink:title=" ">
<polygon fill="white" stroke="#666666" points="959.62,-484.94 858.12,-484.94 858.12,-443.19 959.62,-443.19 959.62,-484.94"/>
<text text-anchor="start" x="866.12" y="-471.44" font-family="Helvetica,sans-Serif" font-size="10.00">mimicpp::printing::</text>
<text text-anchor="start" x="866.12" y="-460.19" font-family="Helvetica,sans-Serif" font-size="10.00">type::parsing::match</text>
<text text-anchor="middle" x="908.88" y="-448.94" font-family="Helvetica,sans-Serif" font-size="10.00">_suffix</text>
</a>
</g>
</g>
<!-- Node1&#45;&gt;Node10 -->
<g id="edge11_Node000001_Node000010" class="edge">
<title>Node1&#45;&gt;Node10</title>
<g id="a_edge11_Node000001_Node000010"><a xlink:title=" ">
<path fill="none" stroke="#63b8ff" d="M999.58,-464.06C986.21,-464.06 972.51,-464.06 959.96,-464.06"/>
<polygon fill="#63b8ff" stroke="#63b8ff" points="999.19,-467.56 1009.19,-464.06 999.19,-460.56 999.19,-467.56"/>
</a>
</g>
</g>
<!-- Node16 -->
<g id="Node000016" class="node">
<title>Node16</title>
<g id="a_Node000016"><a xlink:href="../../d2/d01/namespacemimicpp_1_1printing_1_1type_1_1parsing_1_1token.html#a7bb9c9ee7f8a3e26655e10306270ea66" target="_top" xlink:title=" ">
<polygon fill="white" stroke="#666666" points="623.5,-408.94 479.25,-408.94 479.25,-367.19 623.5,-367.19 623.5,-408.94"/>
<text text-anchor="start" x="487.25" y="-395.44" font-family="Helvetica,sans-Serif" font-size="10.00">mimicpp::printing::</text>
<text text-anchor="start" x="487.25" y="-384.19" font-family="Helvetica,sans-Serif" font-size="10.00">type::parsing::token</text>
<text text-anchor="middle" x="551.38" y="-372.94" font-family="Helvetica,sans-Serif" font-size="10.00">::try_reduce_as_function_type</text>
</a>
</g>
</g>
<!-- Node1&#45;&gt;Node16 -->
<g id="edge42_Node000001_Node000016" class="edge">
<title>Node1&#45;&gt;Node16</title>
<g id="a_edge42_Node000001_Node000016"><a xlink:title=" ">
<path fill="none" stroke="#63b8ff" d="M1069.91,-437.14C1065.67,-380.42 1048.03,-247.54 975,-171.06 919.75,-113.2 885.44,-121.52 806.75,-107.06 742.38,-95.24 713.39,-69.93 659.5,-107.06 570.93,-168.08 555.54,-312.85 552.9,-367.08"/>
<polygon fill="#63b8ff" stroke="#63b8ff" points="1066.4,-437.09 1070.55,-446.84 1073.38,-436.63 1066.4,-437.09"/>
</a>
</g>
</g>
<!-- Node18 -->
<g id="Node000018" class="node">
<title>Node18</title>
<g id="a_Node000018"><a xlink:href="../../d2/d01/namespacemimicpp_1_1printing_1_1type_1_1parsing_1_1token.html#a856c1f4e5e1765cc933eca8538f63a40" target="_top" xlink:title=" ">
<polygon fill="white" stroke="#666666" points="793.62,-310.56 672.62,-310.56 672.62,-257.56 793.62,-257.56 793.62,-310.56"/>
<text text-anchor="start" x="680.62" y="-297.06" font-family="Helvetica,sans-Serif" font-size="10.00">mimicpp::printing::</text>
<text text-anchor="start" x="680.62" y="-285.81" font-family="Helvetica,sans-Serif" font-size="10.00">type::parsing::token</text>
<text text-anchor="start" x="680.62" y="-274.56" font-family="Helvetica,sans-Serif" font-size="10.00">::try_reduce_as_function</text>
<text text-anchor="middle" x="733.12" y="-263.31" font-family="Helvetica,sans-Serif" font-size="10.00">_context</text>
</a>
</g>
</g>
<!-- Node1&#45;&gt;Node18 -->
<g id="edge40_Node000001_Node000018" class="edge">
<title>Node1&#45;&gt;Node18</title>
<g id="a_edge40_Node000001_Node000018"><a xlink:title=" ">
<path fill="none" stroke="#63b8ff" d="M1031.86,-443.03C970.45,-410.25 851.96,-346.98 784.45,-310.93"/>
<polygon fill="#63b8ff" stroke="#63b8ff" points="1030.12,-446.07 1040.59,-447.69 1033.41,-439.89 1030.12,-446.07"/>
</a>
</g>
</g>
<!-- Node19 -->
<g id="Node000019" class="node">
<title>Node19</title>
<g id="a_Node000019"><a xlink:href="../../d2/d01/namespacemimicpp_1_1printing_1_1type_1_1parsing_1_1token.html#a456922fe33538205c28f5cc1b522a6bb" target="_top" xlink:title=" ">
<polygon fill="white" stroke="#666666" points="802.62,-756.94 663.62,-756.94 663.62,-715.19 802.62,-715.19 802.62,-756.94"/>
<text text-anchor="start" x="671.62" y="-743.44" font-family="Helvetica,sans-Serif" font-size="10.00">mimicpp::printing::</text>
<text text-anchor="start" x="671.62" y="-732.19" font-family="Helvetica,sans-Serif" font-size="10.00">type::parsing::token</text>
<text text-anchor="middle" x="733.12" y="-720.94" font-family="Helvetica,sans-Serif" font-size="10.00">::try_reduce_as_regular_type</text>
</a>
</g>
</g>
<!-- Node1&#45;&gt;Node19 -->
<g id="edge44_Node000001_Node000019" class="edge">
<title>Node1&#45;&gt;Node19</title>
<g id="a_edge44_Node000001_Node000019"><a xlink:title=" ">
<path fill="none" stroke="#63b8ff" d="M1048.23,-487.97C1004.2,-532.86 903.79,-631.22 806.75,-698.06 798.08,-704.04 788.35,-709.73 778.9,-714.81"/>
<polygon fill="#63b8ff" stroke="#63b8ff" points="1050.73,-490.42 1055.21,-480.82 1045.72,-485.53 1050.73,-490.42"/>
</a>
</g>
</g>
<!-- Node20 -->
<g id="Node000020" class="node">
<title>Node20</title>
<g id="a_Node000020"><a xlink:href="../../d2/d01/namespacemimicpp_1_1printing_1_1type_1_1parsing_1_1token.html#a5eaba0578b3e5038c42a6137db9e9fdf" target="_top" xlink:title=" ">
<polygon fill="white" stroke="#666666" points="789.5,-239.56 676.75,-239.56 676.75,-186.56 789.5,-186.56 789.5,-239.56"/>
<text text-anchor="start" x="684.75" y="-226.06" font-family="Helvetica,sans-Serif" font-size="10.00">mimicpp::printing::</text>
<text text-anchor="start" x="684.75" y="-214.81" font-family="Helvetica,sans-Serif" font-size="10.00">type::parsing::token</text>
<text text-anchor="start" x="684.75" y="-203.56" font-family="Helvetica,sans-Serif" font-size="10.00">::try_reduce_as_scope</text>
<text text-anchor="middle" x="733.12" y="-192.31" font-family="Helvetica,sans-Serif" font-size="10.00">_sequence</text>
</a>
</g>
</g>
<!-- Node1&#45;&gt;Node20 -->
<g id="edge45_Node000001_Node000020" class="edge">
<title>Node1&#45;&gt;Node20</title>
<g id="a_edge45_Node000001_Node000020"><a xlink:title=" ">
<path fill="none" stroke="#63b8ff" d="M1056.53,-438.71C1039.6,-411.23 1009.65,-367.4 975,-338.06 918.9,-290.57 841.73,-254.55 790,-233.64"/>
<polygon fill="#63b8ff" stroke="#63b8ff" points="1053.42,-440.32 1061.58,-447.08 1059.41,-436.71 1053.42,-440.32"/>
</a>
</g>
</g>
<!-- Node21 -->
<g id="Node000021" class="node">
<title>Node21</title>
<g id="a_Node000021"><a xlink:href="../../d2/d01/namespacemimicpp_1_1printing_1_1type_1_1parsing_1_1token.html#a47ef121fe5cf3b9071a530d5461365b3" target="_top" xlink:title=" ">
<polygon fill="white" stroke="#666666" points="795.12,-168.56 671.12,-168.56 671.12,-115.56 795.12,-115.56 795.12,-168.56"/>
<text text-anchor="start" x="679.12" y="-155.06" font-family="Helvetica,sans-Serif" font-size="10.00">mimicpp::printing::</text>
<text text-anchor="start" x="679.12" y="-143.81" font-family="Helvetica,sans-Serif" font-size="10.00">type::parsing::token</text>
<text text-anchor="start" x="679.12" y="-132.56" font-family="Helvetica,sans-Serif" font-size="10.00">::try_reduce_as_template</text>
<text text-anchor="middle" x="733.12" y="-121.31" font-family="Helvetica,sans-Serif" font-size="10.00">_identifier</text>
</a>
</g>
</g>
<!-- Node1&#45;&gt;Node21 -->
<g id="edge46_Node000001_Node000021" class="edge">
<title>Node1&#45;&gt;Node21</title>
<g id="a_edge46_Node000001_Node000021"><a xlink:title=" ">
<path fill="none" stroke="#63b8ff" d="M1065.45,-437.27C1054.72,-393.48 1027.86,-306.12 975,-253.06 925.28,-203.15 848.95,-173.25 795.58,-157.27"/>
<polygon fill="#63b8ff" stroke="#63b8ff" points="1062.03,-437.99 1067.72,-446.93 1068.84,-436.4 1062.03,-437.99"/>
</a>
</g>
</g>
<!-- Node4 -->
<g id="Node000004" class="node">
<title>Node4</title>
<g id="a_Node000004"><a xlink:href="../../d2/d01/namespacemimicpp_1_1printing_1_1type_1_1parsing_1_1token.html#a6a89a061edac701c282c9092936a45e6" target="_top" xlink:title=" ">
<polygon fill="white" stroke="#666666" points="611.88,-479.56 490.88,-479.56 490.88,-426.56 611.88,-426.56 611.88,-479.56"/>
<text text-anchor="start" x="498.88" y="-466.06" font-family="Helvetica,sans-Serif" font-size="10.00">mimicpp::printing::</text>
<text text-anchor="start" x="498.88" y="-454.81" font-family="Helvetica,sans-Serif" font-size="10.00">type::parsing::token</text>
<text text-anchor="start" x="498.88" y="-443.56" font-family="Helvetica,sans-Serif" font-size="10.00">::try_reduce_as_function</text>
<text text-anchor="middle" x="551.38" y="-432.31" font-family="Helvetica,sans-Serif" font-size="10.00">_identifier</text>
</a>
</g>
</g>
<!-- Node3&#45;&gt;Node4 -->
<g id="edge3_Node000003_Node000004" class="edge">
<title>Node3&#45;&gt;Node4</title>
<g id="a_edge3_Node000003_Node000004"><a xlink:title=" ">
<path fill="none" stroke="#63b8ff" d="M831.05,-831.61C775.09,-828.32 701.92,-814.05 659.5,-766.06 577.27,-673.05 695.2,-590.41 623.5,-489.06 620.38,-484.66 616.56,-480.76 612.33,-477.31"/>
<polygon fill="#63b8ff" stroke="#63b8ff" points="830.69,-835.1 840.85,-832.07 831.02,-828.1 830.69,-835.1"/>
</a>
</g>
</g>
<!-- Node3&#45;&gt;Node7 -->
<g id="edge7_Node000003_Node000007" class="edge">
<title>Node3&#45;&gt;Node7</title>
<g id="a_edge7_Node000003_Node000007"><a xlink:title=" ">
<path fill="none" stroke="#63b8ff" d="M841.3,-848.17C789.12,-858.65 716.12,-864.91 659.5,-837.06 609.33,-812.39 576.04,-751.67 561.21,-719.26"/>
<polygon fill="#63b8ff" stroke="#63b8ff" points="841.9,-851.62 850.96,-846.12 840.45,-844.77 841.9,-851.62"/>
</a>
</g>
</g>
<!-- Node3&#45;&gt;Node8 -->
<g id="edge8_Node000003_Node000008" class="edge">
<title>Node3&#45;&gt;Node8</title>
<g id="a_edge8_Node000003_Node000008"><a xlink:title=" ">
<path fill="none" stroke="#63b8ff" d="M861.17,-850.43C854.94,-853.27 848.67,-856.2 842.75,-859.06 823.3,-868.49 802.19,-879.4 783.81,-889.14"/>
<polygon fill="#63b8ff" stroke="#63b8ff" points="862.46,-853.68 870.13,-846.38 859.58,-847.3 862.46,-853.68"/>
</a>
</g>
</g>
<!-- Node4&#45;&gt;Node5 -->
<g id="edge4_Node000004_Node000005" class="edge">
<title>Node4&#45;&gt;Node5</title>
<g id="a_edge4_Node000004_Node000005"><a xlink:title=" ">
<path fill="none" stroke="#63b8ff" d="M479.03,-453.06C384.76,-453.06 220.1,-453.06 129.65,-453.06"/>
<polygon fill="#63b8ff" stroke="#63b8ff" points="478.94,-456.56 488.94,-453.06 478.94,-449.56 478.94,-456.56"/>
</a>
</g>
</g>
<!-- Node4&#45;&gt;Node6 -->
<g id="edge5_Node000004_Node000006" class="edge">
<title>Node4&#45;&gt;Node6</title>
<g id="a_edge5_Node000004_Node000006"><a xlink:title=" ">
<path fill="none" stroke="#63b8ff" d="M479.4,-440.69C426.7,-431.5 355.24,-419.03 303.21,-409.96"/>
<polygon fill="#63b8ff" stroke="#63b8ff" points="478.74,-444.12 489.19,-442.39 479.94,-437.23 478.74,-444.12"/>
</a>
</g>
</g>
<!-- Node6&#45;&gt;Node5 -->
<g id="edge6_Node000006_Node000005" class="edge">
<title>Node6&#45;&gt;Node5</title>
<g id="a_edge6_Node000006_Node000005"><a xlink:title=" ">
<path fill="none" stroke="#63b8ff" d="M154.16,-423.97C145.93,-426.68 137.63,-429.4 129.59,-432.05"/>
<polygon fill="#63b8ff" stroke="#63b8ff" points="155.08,-427.35 163.48,-420.91 152.89,-420.7 155.08,-427.35"/>
</a>
</g>
</g>
<!-- Node9&#45;&gt;Node8 -->
<g id="edge10_Node000009_Node000008" class="edge">
<title>Node9&#45;&gt;Node8</title>
<g id="a_edge10_Node000009_Node000008"><a xlink:title=" ">
<path fill="none" stroke="#63b8ff" d="M848.22,-920C833.14,-919.48 816.84,-918.92 801.42,-918.39"/>
<polygon fill="#63b8ff" stroke="#63b8ff" points="847.85,-923.49 857.96,-920.34 848.09,-916.5 847.85,-923.49"/>
</a>
</g>
</g>
<!-- Node10&#45;&gt;Node2 -->
<g id="edge12_Node000010_Node000002" class="edge">
<title>Node10&#45;&gt;Node2</title>
<g id="a_edge12_Node000010_Node000002"><a xlink:title=" ">
<path fill="none" stroke="#63b8ff" d="M887.18,-494.54C874.31,-513.6 857.45,-538.69 842.75,-561.06 826.5,-585.79 832.31,-602.17 806.75,-617.06 721.29,-666.87 423.2,-658.58 294.7,-652.42"/>
<polygon fill="#63b8ff" stroke="#63b8ff" points="889.97,-496.67 892.68,-486.43 884.17,-492.75 889.97,-496.67"/>
</a>
</g>
</g>
<!-- Node10&#45;&gt;Node4 -->
<g id="edge30_Node000010_Node000004" class="edge">
<title>Node10&#45;&gt;Node4</title>
<g id="a_edge30_Node000010_Node000004"><a xlink:title=" ">
<path fill="none" stroke="#63b8ff" d="M847.04,-442.94C833.9,-439.25 819.99,-435.99 806.75,-434.06 741.98,-424.66 724.69,-428.33 659.5,-434.06 644.07,-435.42 627.54,-437.86 612.18,-440.55"/>
<polygon fill="#63b8ff" stroke="#63b8ff" points="845.81,-446.23 856.4,-445.69 847.79,-439.52 845.81,-446.23"/>
</a>
</g>
</g>
<!-- Node10&#45;&gt;Node6 -->
<g id="edge26_Node000010_Node000006" class="edge">
<title>Node10&#45;&gt;Node6</title>
<g id="a_edge26_Node000010_Node000006"><a xlink:title=" ">
<path fill="none" stroke="#63b8ff" d="M874.42,-435.66C855.64,-421.13 831.15,-404.37 806.75,-394.06 637.36,-322.5 413.73,-356.6 303.06,-380.92"/>
<polygon fill="#63b8ff" stroke="#63b8ff" points="872.22,-438.38 882.23,-441.85 876.57,-432.9 872.22,-438.38"/>
</a>
</g>
</g>
<!-- Node10&#45;&gt;Node7 -->
<g id="edge31_Node000010_Node000007" class="edge">
<title>Node10&#45;&gt;Node7</title>
<g id="a_edge31_Node000010_Node000007"><a xlink:title=" ">
<path fill="none" stroke="#63b8ff" d="M893.78,-495.66C869.67,-549.06 821.67,-652.45 806.75,-663.06 752.73,-701.52 675.6,-707.1 620.46,-705.03"/>
<polygon fill="#63b8ff" stroke="#63b8ff" points="896.87,-497.31 897.78,-486.76 890.49,-494.44 896.87,-497.31"/>
</a>
</g>
</g>
<!-- Node11 -->
<g id="Node000011" class="node">
<title>Node11</title>
<g id="a_Node000011"><a xlink:href="../../d5/dd4/namespacemimicpp_1_1printing_1_1type_1_1parsing.html#a00f6b43673ee187399d297db7368a09f" target="_top" xlink:title=" ">
<polygon fill="white" stroke="#666666" points="783.5,-582.94 682.75,-582.94 682.75,-541.19 783.5,-541.19 783.5,-582.94"/>
<text text-anchor="start" x="690.75" y="-569.44" font-family="Helvetica,sans-Serif" font-size="10.00">mimicpp::printing::</text>
<text text-anchor="start" x="690.75" y="-558.19" font-family="Helvetica,sans-Serif" font-size="10.00">type::parsing::ignore</text>
<text text-anchor="middle" x="733.12" y="-546.94" font-family="Helvetica,sans-Serif" font-size="10.00">_reserved_identifier</text>
</a>
</g>
</g>
<!-- Node10&#45;&gt;Node11 -->
<g id="edge13_Node000010_Node000011" class="edge">
<title>Node10&#45;&gt;Node11</title>
<g id="a_edge13_Node000010_Node000011"><a xlink:title=" ">
<path fill="none" stroke="#63b8ff" d="M866.01,-491.56C848.04,-502.99 826.63,-516.12 806.75,-527.06 798.29,-531.72 789.11,-536.41 780.22,-540.78"/>
<polygon fill="#63b8ff" stroke="#63b8ff" points="867.81,-494.56 874.34,-486.22 864.04,-488.67 867.81,-494.56"/>
</a>
</g>
</g>
<!-- Node12 -->
<g id="Node000012" class="node">
<title>Node12</title>
<g id="a_Node000012"><a xlink:href="../../d2/d01/namespacemimicpp_1_1printing_1_1type_1_1parsing_1_1token.html#a07683c6a86601f69f859c26a1e7ed3e0" target="_top" xlink:title=" ">
<polygon fill="white" stroke="#666666" points="611.88,-609.94 490.88,-609.94 490.88,-568.19 611.88,-568.19 611.88,-609.94"/>
<text text-anchor="start" x="498.88" y="-596.44" font-family="Helvetica,sans-Serif" font-size="10.00">mimicpp::printing::</text>
<text text-anchor="start" x="498.88" y="-585.19" font-family="Helvetica,sans-Serif" font-size="10.00">type::parsing::token</text>
<text text-anchor="middle" x="551.38" y="-573.94" font-family="Helvetica,sans-Serif" font-size="10.00">::try_reduce_as_function</text>
</a>
</g>
</g>
<!-- Node10&#45;&gt;Node12 -->
<g id="edge28_Node000010_Node000012" class="edge">
<title>Node10&#45;&gt;Node12</title>
<g id="a_edge28_Node000010_Node000012"><a xlink:title=" ">
<path fill="none" stroke="#63b8ff" d="M893.6,-495.24C877.47,-526.28 847.97,-572.1 806.75,-592.06 745.54,-621.71 665.92,-614.61 612.19,-604.23"/>
<polygon fill="#63b8ff" stroke="#63b8ff" points="896.53,-497.2 897.88,-486.69 890.28,-494.06 896.53,-497.2"/>
</a>
</g>
</g>
<!-- Node13 -->
<g id="Node000013" class="node">
<title>Node13</title>
<g id="a_Node000013"><a xlink:href="../../d2/d01/namespacemimicpp_1_1printing_1_1type_1_1parsing_1_1token.html#aef6b0bd46bc6cc213bfdbd6a11cbe510" target="_top" xlink:title=" ">
<polygon fill="white" stroke="#666666" points="611.88,-550.56 490.88,-550.56 490.88,-497.56 611.88,-497.56 611.88,-550.56"/>
<text text-anchor="start" x="498.88" y="-537.06" font-family="Helvetica,sans-Serif" font-size="10.00">mimicpp::printing::</text>
<text text-anchor="start" x="498.88" y="-525.81" font-family="Helvetica,sans-Serif" font-size="10.00">type::parsing::token</text>
<text text-anchor="start" x="498.88" y="-514.56" font-family="Helvetica,sans-Serif" font-size="10.00">::try_reduce_as_function</text>
<text text-anchor="middle" x="551.38" y="-503.31" font-family="Helvetica,sans-Serif" font-size="10.00">_ptr_type</text>
</a>
</g>
</g>
<!-- Node10&#45;&gt;Node13 -->
<g id="edge32_Node000010_Node000013" class="edge">
<title>Node10&#45;&gt;Node13</title>
<g id="a_edge32_Node000010_Node000013"><a xlink:title=" ">
<path fill="none" stroke="#63b8ff" d="M846.83,-484C833.71,-487.77 819.85,-491.37 806.75,-494.06 740.87,-507.62 664.04,-515.63 612.2,-519.91"/>
<polygon fill="#63b8ff" stroke="#63b8ff" points="847.59,-487.43 856.19,-481.24 845.6,-480.71 847.59,-487.43"/>
</a>
</g>
</g>
<!-- Node10&#45;&gt;Node16 -->
<g id="edge33_Node000010_Node000016" class="edge">
<title>Node10&#45;&gt;Node16</title>
<g id="a_edge33_Node000010_Node000016"><a xlink:title=" ">
<path fill="none" stroke="#63b8ff" d="M850.32,-438.59C836.28,-433.13 821.15,-427.87 806.75,-424.06 746.17,-408.04 675.46,-398.76 624,-393.65"/>
<polygon fill="#63b8ff" stroke="#63b8ff" points="848.82,-441.76 859.41,-442.22 851.42,-435.26 848.82,-441.76"/>
</a>
</g>
</g>
<!-- Node17 -->
<g id="Node000017" class="node">
<title>Node17</title>
<g id="a_Node000017"><a xlink:href="../../d2/d01/namespacemimicpp_1_1printing_1_1type_1_1parsing_1_1token.html#a9bd075b508fa29b3bd3a5894bb30932d" target="_top" xlink:title=" ">
<polygon fill="white" stroke="#666666" points="806.75,-484.94 659.5,-484.94 659.5,-443.19 806.75,-443.19 806.75,-484.94"/>
<text text-anchor="start" x="667.5" y="-471.44" font-family="Helvetica,sans-Serif" font-size="10.00">mimicpp::printing::</text>
<text text-anchor="start" x="667.5" y="-460.19" font-family="Helvetica,sans-Serif" font-size="10.00">type::parsing::token</text>
<text text-anchor="middle" x="733.12" y="-448.94" font-family="Helvetica,sans-Serif" font-size="10.00">::try_reduce_as_arg_sequence</text>
</a>
</g>
</g>
<!-- Node10&#45;&gt;Node17 -->
<g id="edge27_Node000010_Node000017" class="edge">
<title>Node10&#45;&gt;Node17</title>
<g id="a_edge27_Node000010_Node000017"><a xlink:title=" ">
<path fill="none" stroke="#63b8ff" d="M846.65,-464.06C833.9,-464.06 820.35,-464.06 807.23,-464.06"/>
<polygon fill="#63b8ff" stroke="#63b8ff" points="846.57,-467.56 856.57,-464.06 846.57,-460.56 846.57,-467.56"/>
</a>
</g>
</g>
<!-- Node10&#45;&gt;Node18 -->
<g id="edge29_Node000010_Node000018" class="edge">
<title>Node10&#45;&gt;Node18</title>
<g id="a_edge29_Node000010_Node000018"><a xlink:title=" ">
<path fill="none" stroke="#63b8ff" d="M871.69,-435.42C861.47,-426.16 850.92,-415.35 842.75,-404.06 820.11,-372.82 832.83,-353.5 806.75,-325.06 801.95,-319.84 796.33,-315.11 790.38,-310.88"/>
<polygon fill="#63b8ff" stroke="#63b8ff" points="869.17,-437.87 879,-441.82 873.78,-432.6 869.17,-437.87"/>
</a>
</g>
</g>
<!-- Node10&#45;&gt;Node19 -->
<g id="edge34_Node000010_Node000019" class="edge">
<title>Node10&#45;&gt;Node19</title>
<g id="a_edge34_Node000010_Node000019"><a xlink:title=" ">
<path fill="none" stroke="#63b8ff" d="M893.53,-495.54C880.11,-525.21 859.64,-570.97 842.75,-611.06 826.02,-650.77 836.15,-669.57 806.75,-701.06 801.88,-706.28 796.07,-710.81 789.88,-714.72"/>
<polygon fill="#63b8ff" stroke="#63b8ff" points="896.57,-497.31 897.51,-486.76 890.2,-494.42 896.57,-497.31"/>
</a>
</g>
</g>
<!-- Node10&#45;&gt;Node20 -->
<g id="edge36_Node000010_Node000020" class="edge">
<title>Node10&#45;&gt;Node20</title>
<g id="a_edge36_Node000010_Node000020"><a xlink:title=" ">
<path fill="none" stroke="#63b8ff" d="M893.61,-432.33C867.42,-374.26 813.7,-256.16 806.75,-249.06 801.83,-244.04 796.05,-239.6 789.96,-235.72"/>
<polygon fill="#63b8ff" stroke="#63b8ff" points="890.39,-433.7 897.69,-441.38 896.78,-430.83 890.39,-433.7"/>
</a>
</g>
</g>
<!-- Node10&#45;&gt;Node21 -->
<g id="edge37_Node000010_Node000021" class="edge">
<title>Node10&#45;&gt;Node21</title>
<g id="a_edge37_Node000010_Node000021"><a xlink:title=" ">
<path fill="none" stroke="#63b8ff" d="M904.41,-431.76C896.67,-374.2 873.12,-252.94 806.75,-178.06 803.39,-174.27 799.54,-170.84 795.4,-167.73"/>
<polygon fill="#63b8ff" stroke="#63b8ff" points="900.92,-432.05 905.64,-441.53 907.86,-431.17 900.92,-432.05"/>
</a>
</g>
</g>
<!-- Node11&#45;&gt;Node4 -->
<g id="edge16_Node000011_Node000004" class="edge">
<title>Node11&#45;&gt;Node4</title>
<g id="a_edge16_Node000011_Node000004"><a xlink:title=" ">
<path fill="none" stroke="#63b8ff" d="M693.51,-534.42C673.09,-520.24 647.36,-503.05 623.5,-489.06 618.25,-485.99 612.7,-482.9 607.11,-479.9"/>
<polygon fill="#63b8ff" stroke="#63b8ff" points="691.35,-537.18 701.55,-540.05 695.36,-531.45 691.35,-537.18"/>
</a>
</g>
</g>
<!-- Node11&#45;&gt;Node7 -->
<g id="edge17_Node000011_Node000007" class="edge">
<title>Node11&#45;&gt;Node7</title>
<g id="a_edge17_Node000011_Node000007"><a xlink:title=" ">
<path fill="none" stroke="#63b8ff" d="M694.89,-590.24C660.89,-615.96 611.38,-653.42 580.56,-676.74"/>
<polygon fill="#63b8ff" stroke="#63b8ff" points="696.97,-593.05 702.83,-584.23 692.75,-587.47 696.97,-593.05"/>
</a>
</g>
</g>
<!-- Node11&#45;&gt;Node12 -->
<g id="edge14_Node000011_Node000012" class="edge">
<title>Node11&#45;&gt;Node12</title>
<g id="a_edge14_Node000011_Node000012"><a xlink:title=" ">
<path fill="none" stroke="#63b8ff" d="M671.29,-571.2C652.27,-574.06 631.31,-577.21 612.36,-580.05"/>
<polygon fill="#63b8ff" stroke="#63b8ff" points="671.67,-574.69 681.03,-569.74 670.63,-567.76 671.67,-574.69"/>
</a>
</g>
</g>
<!-- Node11&#45;&gt;Node13 -->
<g id="edge18_Node000011_Node000013" class="edge">
<title>Node11&#45;&gt;Node13</title>
<g id="a_edge18_Node000011_Node000013"><a xlink:title=" ">
<path fill="none" stroke="#63b8ff" d="M671.29,-549.2C652.27,-545.18 631.31,-540.75 612.36,-536.74"/>
<polygon fill="#63b8ff" stroke="#63b8ff" points="670.54,-552.62 681.05,-551.27 671.99,-545.77 670.54,-552.62"/>
</a>
</g>
</g>
<!-- Node11&#45;&gt;Node16 -->
<g id="edge24_Node000011_Node000016" class="edge">
<title>Node11&#45;&gt;Node16</title>
<g id="a_edge24_Node000011_Node000016"><a xlink:title=" ">
<path fill="none" stroke="#63b8ff" d="M696.31,-533.42C683.62,-522.08 669.92,-508.35 659.5,-494.06 637.47,-463.87 650.49,-443.92 623.5,-418.06 620.11,-414.82 616.32,-411.9 612.3,-409.28"/>
<polygon fill="#63b8ff" stroke="#63b8ff" points="693.9,-535.96 703.74,-539.88 698.49,-530.68 693.9,-535.96"/>
</a>
</g>
</g>
<!-- Node12&#45;&gt;Node5 -->
<g id="edge15_Node000012_Node000005" class="edge">
<title>Node12&#45;&gt;Node5</title>
<g id="a_edge15_Node000012_Node000005"><a xlink:title=" ">
<path fill="none" stroke="#63b8ff" d="M478.93,-596.11C398.66,-600.95 266.37,-599.55 165.25,-552.06 128.39,-534.76 97.23,-497.9 80.01,-474.37"/>
<polygon fill="#63b8ff" stroke="#63b8ff" points="479.13,-599.6 488.88,-595.45 478.67,-592.62 479.13,-599.6"/>
</a>
</g>
</g>
<!-- Node14 -->
<g id="Node000014" class="node">
<title>Node14</title>
<g id="a_Node000014"><a xlink:href="../../d2/d01/namespacemimicpp_1_1printing_1_1type_1_1parsing_1_1token.html#a26830c23619a96ea3bdc2da8226c8a2c" target="_top" xlink:title=" ">
<polygon fill="white" stroke="#666666" points="443.25,-544.94 338.75,-544.94 338.75,-503.19 443.25,-503.19 443.25,-544.94"/>
<text text-anchor="start" x="346.75" y="-531.44" font-family="Helvetica,sans-Serif" font-size="10.00">mimicpp::printing::</text>
<text text-anchor="start" x="346.75" y="-520.19" font-family="Helvetica,sans-Serif" font-size="10.00">type::parsing::token</text>
<text text-anchor="middle" x="391" y="-508.94" font-family="Helvetica,sans-Serif" font-size="10.00">::try_reduce_as_type</text>
</a>
</g>
</g>
<!-- Node13&#45;&gt;Node14 -->
<g id="edge19_Node000013_Node000014" class="edge">
<title>Node13&#45;&gt;Node14</title>
<g id="a_edge19_Node000013_Node000014"><a xlink:title=" ">
<path fill="none" stroke="#63b8ff" d="M479.15,-524.06C467.2,-524.06 455,-524.06 443.67,-524.06"/>
<polygon fill="#63b8ff" stroke="#63b8ff" points="478.99,-527.56 488.99,-524.06 478.99,-520.56 478.99,-527.56"/>
</a>
</g>
</g>
<!-- Node14&#45;&gt;Node2 -->
<g id="edge20_Node000014_Node000002" class="edge">
<title>Node14&#45;&gt;Node2</title>
<g id="a_edge20_Node000014_Node000002"><a xlink:title=" ">
<path fill="none" stroke="#63b8ff" d="M354.91,-552.36C326.53,-575.25 287.19,-606.98 261.42,-627.76"/>
<polygon fill="#63b8ff" stroke="#63b8ff" points="356.94,-555.22 362.53,-546.22 352.55,-549.77 356.94,-555.22"/>
</a>
</g>
</g>
<!-- Node14&#45;&gt;Node5 -->
<g id="edge21_Node000014_Node000005" class="edge">
<title>Node14&#45;&gt;Node5</title>
<g id="a_edge21_Node000014_Node000005"><a xlink:title=" ">
<path fill="none" stroke="#63b8ff" d="M327.1,-538.27C281,-545.85 217.59,-550.3 165.25,-532.06 132.52,-520.66 102.47,-493.53 84.12,-474.25"/>
<polygon fill="#63b8ff" stroke="#63b8ff" points="327.7,-541.72 336.94,-536.54 326.49,-534.82 327.7,-541.72"/>
</a>
</g>
</g>
<!-- Node14&#45;&gt;Node6 -->
<g id="edge23_Node000014_Node000006" class="edge">
<title>Node14&#45;&gt;Node6</title>
<g id="a_edge23_Node000014_Node000006"><a xlink:title=" ">
<path fill="none" stroke="#63b8ff" d="M354.93,-495.55C328.93,-474.42 293.72,-445.8 268.18,-425.04"/>
<polygon fill="#63b8ff" stroke="#63b8ff" points="352.56,-498.14 362.53,-501.74 356.98,-492.71 352.56,-498.14"/>
</a>
</g>
</g>
<!-- Node15 -->
<g id="Node000015" class="node">
<title>Node15</title>
<g id="a_Node000015"><a xlink:href="../../d4/dc0/classmimicpp_1_1printing_1_1type_1_1parsing_1_1_name_parser.html#a5989c6d47e8eb8cea51c8de4adb30490" target="_top" xlink:title=" ">
<polygon fill="white" stroke="#666666" points="298.62,-522.94 169.38,-522.94 169.38,-481.19 298.62,-481.19 298.62,-522.94"/>
<text text-anchor="start" x="177.38" y="-509.44" font-family="Helvetica,sans-Serif" font-size="10.00">mimicpp::printing::</text>
<text text-anchor="start" x="177.38" y="-498.19" font-family="Helvetica,sans-Serif" font-size="10.00">type::parsing::NameParser</text>
<text text-anchor="middle" x="234" y="-486.94" font-family="Helvetica,sans-Serif" font-size="10.00">::parse_type</text>
</a>
</g>
</g>
<!-- Node14&#45;&gt;Node15 -->
<g id="edge22_Node000014_Node000015" class="edge">
<title>Node14&#45;&gt;Node15</title>
<g id="a_edge22_Node000014_Node000015"><a xlink:title=" ">
<path fill="none" stroke="#63b8ff" d="M327.25,-515.16C317.96,-513.84 308.38,-512.48 299.07,-511.16"/>
<polygon fill="#63b8ff" stroke="#63b8ff" points="326.5,-518.59 336.89,-516.53 327.48,-511.66 326.5,-518.59"/>
</a>
</g>
</g>
<!-- Node16&#45;&gt;Node14 -->
<g id="edge25_Node000016_Node000014" class="edge">
<title>Node16&#45;&gt;Node14</title>
<g id="a_edge25_Node000016_Node000014"><a xlink:title=" ">
<path fill="none" stroke="#63b8ff" d="M483.39,-415.14C481.97,-416.09 480.59,-417.06 479.25,-418.06 447.53,-441.71 420.26,-479.26 405.01,-502.74"/>
<polygon fill="#63b8ff" stroke="#63b8ff" points="485.06,-418.22 491.8,-410.04 481.44,-412.23 485.06,-418.22"/>
</a>
</g>
</g>
<!-- Node19&#45;&gt;Node14 -->
<g id="edge35_Node000019_Node000014" class="edge">
<title>Node19&#45;&gt;Node14</title>
<g id="a_edge35_Node000019_Node000014"><a xlink:title=" ">
<path fill="none" stroke="#63b8ff" d="M652.04,-754.37C598.58,-761.9 529.2,-762.17 479.25,-728.06 416.9,-685.49 398.88,-588.53 393.86,-545.41"/>
<polygon fill="#63b8ff" stroke="#63b8ff" points="652.34,-757.86 661.69,-752.89 651.28,-750.94 652.34,-757.86"/>
</a>
</g>
</g>
</g>
</svg>
