<?xml version="1.0" encoding="UTF-8" standalone="no"?>
<!DOCTYPE svg PUBLIC "-//W3C//DTD SVG 1.1//EN"
 "http://www.w3.org/Graphics/SVG/1.1/DTD/svg11.dtd">
<!-- Generated by graphviz version 12.2.1 (20241206.2353)
 -->
<!-- Title: mimic++/printing/Format.hpp Pages: 1 -->
<svg width="532pt" height="193pt"
 viewBox="0.00 0.00 532.00 193.00" xmlns="http://www.w3.org/2000/svg" xmlns:xlink="http://www.w3.org/1999/xlink">
<g id="graph0" class="graph" transform="scale(1 1) rotate(0) translate(4 189)">
<title>mimic++/printing/Format.hpp</title>
<!-- Node1 -->
<g id="Node000001" class="node">
<title>Node1</title>
<g id="a_Node000001"><a xlink:title=" ">
<polygon fill="#999999" stroke="#666666" points="371.38,-185 230.88,-185 230.88,-165.75 371.38,-165.75 371.38,-185"/>
<text text-anchor="middle" x="301.12" y="-171.5" font-family="Helvetica,sans-Serif" font-size="10.00">mimic++/printing/Format.hpp</text>
</a>
</g>
</g>
<!-- Node2 -->
<g id="Node000002" class="node">
<title>Node2</title>
<g id="a_Node000002"><a xlink:href="../../d8/dd2/_config_8hpp.html" target="_top" xlink:title=" ">
<polygon fill="white" stroke="#666666" points="102.25,-74.5 0,-74.5 0,-55.25 102.25,-55.25 102.25,-74.5"/>
<text text-anchor="middle" x="51.12" y="-61" font-family="Helvetica,sans-Serif" font-size="10.00">mimic++/Config.hpp</text>
</a>
</g>
</g>
<!-- Node1&#45;&gt;Node2 -->
<g id="edge1_Node000001_Node000002" class="edge">
<title>Node1&#45;&gt;Node2</title>
<g id="a_edge1_Node000001_Node000002"><a xlink:title=" ">
<path fill="none" stroke="#63b8ff" d="M230.65,-167.16C175.03,-160.2 103.1,-148.02 80.12,-129.75 66.42,-118.85 58.97,-100.05 55.06,-85.66"/>
<polygon fill="#63b8ff" stroke="#63b8ff" points="58.57,-85.3 52.9,-76.35 51.75,-86.89 58.57,-85.3"/>
</a>
</g>
</g>
<!-- Node4 -->
<g id="Node000004" class="node">
<title>Node4</title>
<g id="a_Node000004"><a xlink:href="../../df/dde/_fwd_8hpp.html" target="_top" xlink:title=" ">
<polygon fill="white" stroke="#666666" points="183.12,-129.75 89.12,-129.75 89.12,-110.5 183.12,-110.5 183.12,-129.75"/>
<text text-anchor="middle" x="136.12" y="-116.25" font-family="Helvetica,sans-Serif" font-size="10.00">mimic++/Fwd.hpp</text>
</a>
</g>
</g>
<!-- Node1&#45;&gt;Node4 -->
<g id="edge3_Node000001_Node000004" class="edge">
<title>Node1&#45;&gt;Node4</title>
<g id="a_edge3_Node000001_Node000004"><a xlink:title=" ">
<path fill="none" stroke="#63b8ff" d="M273.13,-165.34C246.11,-156.62 204.97,-143.34 174.82,-133.61"/>
<polygon fill="#63b8ff" stroke="#63b8ff" points="176.28,-130.41 165.69,-130.67 174.13,-137.07 176.28,-130.41"/>
</a>
</g>
</g>
<!-- Node7 -->
<g id="Node000007" class="node">
<title>Node7</title>
<g id="a_Node000007"><a xlink:title=" ">
<polygon fill="#e0e0e0" stroke="#999999" points="257,-129.75 201.25,-129.75 201.25,-110.5 257,-110.5 257,-129.75"/>
<text text-anchor="middle" x="229.12" y="-116.25" font-family="Helvetica,sans-Serif" font-size="10.00">concepts</text>
</a>
</g>
</g>
<!-- Node1&#45;&gt;Node7 -->
<g id="edge7_Node000001_Node000007" class="edge">
<title>Node1&#45;&gt;Node7</title>
<g id="a_edge7_Node000001_Node000007"><a xlink:title=" ">
<path fill="none" stroke="#63b8ff" d="M288.91,-165.34C278.3,-157.49 262.69,-145.95 250.08,-136.62"/>
<polygon fill="#63b8ff" stroke="#63b8ff" points="252.5,-134.06 242.38,-130.92 248.33,-139.69 252.5,-134.06"/>
</a>
</g>
</g>
<!-- Node8 -->
<g id="Node000008" class="node">
<title>Node8</title>
<g id="a_Node000008"><a xlink:title=" ">
<polygon fill="#e0e0e0" stroke="#999999" points="326.75,-129.75 275.5,-129.75 275.5,-110.5 326.75,-110.5 326.75,-129.75"/>
<text text-anchor="middle" x="301.12" y="-116.25" font-family="Helvetica,sans-Serif" font-size="10.00">sstream</text>
</a>
</g>
</g>
<!-- Node1&#45;&gt;Node8 -->
<g id="edge8_Node000001_Node000008" class="edge">
<title>Node1&#45;&gt;Node8</title>
<g id="a_edge8_Node000001_Node000008"><a xlink:title=" ">
<path fill="none" stroke="#63b8ff" d="M301.12,-165.58C301.12,-159.07 301.12,-149.92 301.12,-141.62"/>
<polygon fill="#63b8ff" stroke="#63b8ff" points="304.63,-141.62 301.13,-131.62 297.63,-141.62 304.63,-141.62"/>
</a>
</g>
</g>
<!-- Node9 -->
<g id="Node000009" class="node">
<title>Node9</title>
<g id="a_Node000009"><a xlink:title=" ">
<polygon fill="#e0e0e0" stroke="#999999" points="405.62,-129.75 344.62,-129.75 344.62,-110.5 405.62,-110.5 405.62,-129.75"/>
<text text-anchor="middle" x="375.12" y="-116.25" font-family="Helvetica,sans-Serif" font-size="10.00">type_traits</text>
</a>
</g>
</g>
<!-- Node1&#45;&gt;Node9 -->
<g id="edge9_Node000001_Node000009" class="edge">
<title>Node1&#45;&gt;Node9</title>
<g id="a_edge9_Node000001_Node000009"><a xlink:title=" ">
<path fill="none" stroke="#63b8ff" d="M313.68,-165.34C324.59,-157.49 340.63,-145.95 353.59,-136.62"/>
<polygon fill="#63b8ff" stroke="#63b8ff" points="355.46,-139.59 361.53,-130.91 351.37,-133.91 355.46,-139.59"/>
</a>
</g>
</g>
<!-- Node10 -->
<g id="Node000010" class="node">
<title>Node10</title>
<g id="a_Node000010"><a xlink:title=" ">
<polygon fill="#e0e0e0" stroke="#999999" points="462.38,-129.75 423.88,-129.75 423.88,-110.5 462.38,-110.5 462.38,-129.75"/>
<text text-anchor="middle" x="443.12" y="-116.25" font-family="Helvetica,sans-Serif" font-size="10.00">utility</text>
</a>
</g>
</g>
<!-- Node1&#45;&gt;Node10 -->
<g id="edge10_Node000001_Node000010" class="edge">
<title>Node1&#45;&gt;Node10</title>
<g id="a_edge10_Node000001_Node000010"><a xlink:title=" ">
<path fill="none" stroke="#63b8ff" d="M325.21,-165.34C349.45,-156.25 386.88,-142.22 413.04,-132.41"/>
<polygon fill="#63b8ff" stroke="#63b8ff" points="413.95,-135.8 422.08,-129.02 411.49,-129.25 413.95,-135.8"/>
</a>
</g>
</g>
<!-- Node11 -->
<g id="Node000011" class="node">
<title>Node11</title>
<g id="a_Node000011"><a xlink:title=" ">
<polygon fill="#e0e0e0" stroke="#999999" points="524,-129.75 480.25,-129.75 480.25,-110.5 524,-110.5 524,-129.75"/>
<text text-anchor="middle" x="502.12" y="-116.25" font-family="Helvetica,sans-Serif" font-size="10.00">format</text>
</a>
</g>
</g>
<!-- Node1&#45;&gt;Node11 -->
<g id="edge11_Node000001_Node000011" class="edge">
<title>Node1&#45;&gt;Node11</title>
<g id="a_edge11_Node000001_Node000011"><a xlink:title=" ">
<path fill="none" stroke="#63b8ff" d="M336.33,-165.29C368.45,-156.97 417.52,-144.18 468.81,-130.35"/>
<polygon fill="#63b8ff" stroke="#63b8ff" points="469.58,-133.76 478.32,-127.78 467.76,-127.01 469.58,-133.76"/>
</a>
</g>
</g>
<!-- Node3 -->
<g id="Node000003" class="node">
<title>Node3</title>
<g id="a_Node000003"><a xlink:title=" ">
<polygon fill="#e0e0e0" stroke="#999999" points="74.88,-19.25 27.38,-19.25 27.38,0 74.88,0 74.88,-19.25"/>
<text text-anchor="middle" x="51.12" y="-5.75" font-family="Helvetica,sans-Serif" font-size="10.00">version</text>
</a>
</g>
</g>
<!-- Node2&#45;&gt;Node3 -->
<g id="edge2_Node000002_Node000003" class="edge">
<title>Node2&#45;&gt;Node3</title>
<g id="a_edge2_Node000002_Node000003"><a xlink:title=" ">
<path fill="none" stroke="#63b8ff" d="M51.12,-55.08C51.12,-48.57 51.12,-39.42 51.12,-31.12"/>
<polygon fill="#63b8ff" stroke="#63b8ff" points="54.63,-31.12 51.13,-21.12 47.63,-31.12 54.63,-31.12"/>
</a>
</g>
</g>
<!-- Node4&#45;&gt;Node2 -->
<g id="edge4_Node000004_Node000002" class="edge">
<title>Node4&#45;&gt;Node2</title>
<g id="a_edge4_Node000004_Node000002"><a xlink:title=" ">
<path fill="none" stroke="#63b8ff" d="M121.71,-110.09C109.01,-102.14 90.25,-90.39 75.27,-81"/>
<polygon fill="#63b8ff" stroke="#63b8ff" points="77.23,-78.1 66.9,-75.76 73.51,-84.03 77.23,-78.1"/>
</a>
</g>
</g>
<!-- Node5 -->
<g id="Node000005" class="node">
<title>Node5</title>
<g id="a_Node000005"><a xlink:title=" ">
<polygon fill="#e0e0e0" stroke="#999999" points="160.12,-74.5 120.12,-74.5 120.12,-55.25 160.12,-55.25 160.12,-74.5"/>
<text text-anchor="middle" x="140.12" y="-61" font-family="Helvetica,sans-Serif" font-size="10.00">string</text>
</a>
</g>
</g>
<!-- Node4&#45;&gt;Node5 -->
<g id="edge5_Node000004_Node000005" class="edge">
<title>Node4&#45;&gt;Node5</title>
<g id="a_edge5_Node000004_Node000005"><a xlink:title=" ">
<path fill="none" stroke="#63b8ff" d="M136.79,-110.33C137.28,-103.74 137.98,-94.46 138.61,-86.07"/>
<polygon fill="#63b8ff" stroke="#63b8ff" points="142.08,-86.6 139.34,-76.37 135.1,-86.08 142.08,-86.6"/>
</a>
</g>
</g>
<!-- Node6 -->
<g id="Node000006" class="node">
<title>Node6</title>
<g id="a_Node000006"><a xlink:title=" ">
<polygon fill="#e0e0e0" stroke="#999999" points="243.88,-74.5 178.38,-74.5 178.38,-55.25 243.88,-55.25 243.88,-74.5"/>
<text text-anchor="middle" x="211.12" y="-61" font-family="Helvetica,sans-Serif" font-size="10.00">string_view</text>
</a>
</g>
</g>
<!-- Node4&#45;&gt;Node6 -->
<g id="edge6_Node000004_Node000006" class="edge">
<title>Node4&#45;&gt;Node6</title>
<g id="a_edge6_Node000004_Node000006"><a xlink:title=" ">
<path fill="none" stroke="#63b8ff" d="M148.85,-110.09C159.84,-102.29 175.97,-90.84 189.06,-81.54"/>
<polygon fill="#63b8ff" stroke="#63b8ff" points="190.98,-84.47 197.11,-75.83 186.93,-78.76 190.98,-84.47"/>
</a>
</g>
</g>
</g>
</svg>
