<?xml version="1.0" encoding="UTF-8" standalone="no"?>
<!DOCTYPE svg PUBLIC "-//W3C//DTD SVG 1.1//EN"
 "http://www.w3.org/Graphics/SVG/1.1/DTD/svg11.dtd">
<!-- Generated by graphviz version 12.2.1 (20241206.2353)
 -->
<!-- Title: mimic++/printing/Format.hpp Pages: 1 -->
<svg width="557pt" height="193pt"
 viewBox="0.00 0.00 557.25 193.00" xmlns="http://www.w3.org/2000/svg" xmlns:xlink="http://www.w3.org/1999/xlink">
<g id="graph0" class="graph" transform="scale(1 1) rotate(0) translate(4 189)">
<title>mimic++/printing/Format.hpp</title>
<!-- Node1 -->
<g id="Node000001" class="node">
<title>Node1</title>
<g id="a_Node000001"><a xlink:title=" ">
<polygon fill="#999999" stroke="#666666" points="396.62,-185 256.12,-185 256.12,-165.75 396.62,-165.75 396.62,-185"/>
<text text-anchor="middle" x="326.38" y="-171.5" font-family="Helvetica,sans-Serif" font-size="10.00">mimic++/printing/Format.hpp</text>
</a>
</g>
</g>
<!-- Node2 -->
<g id="Node000002" class="node">
<title>Node2</title>
<g id="a_Node000002"><a xlink:href="../../df/dde/_fwd_8hpp.html" target="_top" xlink:title=" ">
<polygon fill="white" stroke="#666666" points="208.38,-129.75 114.38,-129.75 114.38,-110.5 208.38,-110.5 208.38,-129.75"/>
<text text-anchor="middle" x="161.38" y="-116.25" font-family="Helvetica,sans-Serif" font-size="10.00">mimic++/Fwd.hpp</text>
</a>
</g>
</g>
<!-- Node1&#45;&gt;Node2 -->
<g id="edge1_Node000001_Node000002" class="edge">
<title>Node1&#45;&gt;Node2</title>
<g id="a_edge1_Node000001_Node000002"><a xlink:title=" ">
<path fill="none" stroke="#63b8ff" d="M298.38,-165.34C271.36,-156.62 230.22,-143.34 200.07,-133.61"/>
<polygon fill="#63b8ff" stroke="#63b8ff" points="201.53,-130.41 190.94,-130.67 199.38,-137.07 201.53,-130.41"/>
</a>
</g>
</g>
<!-- Node3 -->
<g id="Node000003" class="node">
<title>Node3</title>
<g id="a_Node000003"><a xlink:href="../../d8/dd2/_config_8hpp.html" target="_top" xlink:title=" ">
<polygon fill="white" stroke="#666666" points="130.75,-74.5 0,-74.5 0,-55.25 130.75,-55.25 130.75,-74.5"/>
<text text-anchor="middle" x="65.38" y="-61" font-family="Helvetica,sans-Serif" font-size="10.00">mimic++/config/Config.hpp</text>
</a>
</g>
</g>
<!-- Node1&#45;&gt;Node3 -->
<g id="edge7_Node000001_Node000003" class="edge">
<title>Node1&#45;&gt;Node3</title>
<g id="a_edge7_Node000001_Node000003"><a xlink:title=" ">
<path fill="none" stroke="#63b8ff" d="M255.67,-166.24C200.53,-158.78 129.4,-146.37 105.38,-129.75 89.75,-118.94 78.98,-99.85 72.59,-85.34"/>
<polygon fill="#63b8ff" stroke="#63b8ff" points="75.95,-84.31 68.96,-76.34 69.45,-86.93 75.95,-84.31"/>
</a>
</g>
</g>
<!-- Node8 -->
<g id="Node000008" class="node">
<title>Node8</title>
<g id="a_Node000008"><a xlink:title=" ">
<polygon fill="#e0e0e0" stroke="#999999" points="282.25,-129.75 226.5,-129.75 226.5,-110.5 282.25,-110.5 282.25,-129.75"/>
<text text-anchor="middle" x="254.38" y="-116.25" font-family="Helvetica,sans-Serif" font-size="10.00">concepts</text>
</a>
</g>
</g>
<!-- Node1&#45;&gt;Node8 -->
<g id="edge8_Node000001_Node000008" class="edge">
<title>Node1&#45;&gt;Node8</title>
<g id="a_edge8_Node000001_Node000008"><a xlink:title=" ">
<path fill="none" stroke="#63b8ff" d="M314.16,-165.34C303.55,-157.49 287.94,-145.95 275.33,-136.62"/>
<polygon fill="#63b8ff" stroke="#63b8ff" points="277.75,-134.06 267.63,-130.92 273.58,-139.69 277.75,-134.06"/>
</a>
</g>
</g>
<!-- Node9 -->
<g id="Node000009" class="node">
<title>Node9</title>
<g id="a_Node000009"><a xlink:title=" ">
<polygon fill="#e0e0e0" stroke="#999999" points="352,-129.75 300.75,-129.75 300.75,-110.5 352,-110.5 352,-129.75"/>
<text text-anchor="middle" x="326.38" y="-116.25" font-family="Helvetica,sans-Serif" font-size="10.00">sstream</text>
</a>
</g>
</g>
<!-- Node1&#45;&gt;Node9 -->
<g id="edge9_Node000001_Node000009" class="edge">
<title>Node1&#45;&gt;Node9</title>
<g id="a_edge9_Node000001_Node000009"><a xlink:title=" ">
<path fill="none" stroke="#63b8ff" d="M326.38,-165.58C326.38,-159.07 326.38,-149.92 326.38,-141.62"/>
<polygon fill="#63b8ff" stroke="#63b8ff" points="329.88,-141.62 326.38,-131.62 322.88,-141.62 329.88,-141.62"/>
</a>
</g>
</g>
<!-- Node10 -->
<g id="Node000010" class="node">
<title>Node10</title>
<g id="a_Node000010"><a xlink:title=" ">
<polygon fill="#e0e0e0" stroke="#999999" points="430.88,-129.75 369.88,-129.75 369.88,-110.5 430.88,-110.5 430.88,-129.75"/>
<text text-anchor="middle" x="400.38" y="-116.25" font-family="Helvetica,sans-Serif" font-size="10.00">type_traits</text>
</a>
</g>
</g>
<!-- Node1&#45;&gt;Node10 -->
<g id="edge10_Node000001_Node000010" class="edge">
<title>Node1&#45;&gt;Node10</title>
<g id="a_edge10_Node000001_Node000010"><a xlink:title=" ">
<path fill="none" stroke="#63b8ff" d="M338.93,-165.34C349.84,-157.49 365.88,-145.95 378.84,-136.62"/>
<polygon fill="#63b8ff" stroke="#63b8ff" points="380.71,-139.59 386.78,-130.91 376.62,-133.91 380.71,-139.59"/>
</a>
</g>
</g>
<!-- Node11 -->
<g id="Node000011" class="node">
<title>Node11</title>
<g id="a_Node000011"><a xlink:title=" ">
<polygon fill="#e0e0e0" stroke="#999999" points="487.62,-129.75 449.12,-129.75 449.12,-110.5 487.62,-110.5 487.62,-129.75"/>
<text text-anchor="middle" x="468.38" y="-116.25" font-family="Helvetica,sans-Serif" font-size="10.00">utility</text>
</a>
</g>
</g>
<!-- Node1&#45;&gt;Node11 -->
<g id="edge11_Node000001_Node000011" class="edge">
<title>Node1&#45;&gt;Node11</title>
<g id="a_edge11_Node000001_Node000011"><a xlink:title=" ">
<path fill="none" stroke="#63b8ff" d="M350.46,-165.34C374.7,-156.25 412.13,-142.22 438.29,-132.41"/>
<polygon fill="#63b8ff" stroke="#63b8ff" points="439.2,-135.8 447.33,-129.02 436.74,-129.25 439.2,-135.8"/>
</a>
</g>
</g>
<!-- Node12 -->
<g id="Node000012" class="node">
<title>Node12</title>
<g id="a_Node000012"><a xlink:title=" ">
<polygon fill="#e0e0e0" stroke="#999999" points="549.25,-129.75 505.5,-129.75 505.5,-110.5 549.25,-110.5 549.25,-129.75"/>
<text text-anchor="middle" x="527.38" y="-116.25" font-family="Helvetica,sans-Serif" font-size="10.00">format</text>
</a>
</g>
</g>
<!-- Node1&#45;&gt;Node12 -->
<g id="edge12_Node000001_Node000012" class="edge">
<title>Node1&#45;&gt;Node12</title>
<g id="a_edge12_Node000001_Node000012"><a xlink:title=" ">
<path fill="none" stroke="#63b8ff" d="M361.58,-165.29C393.7,-156.97 442.77,-144.18 494.06,-130.35"/>
<polygon fill="#63b8ff" stroke="#63b8ff" points="494.83,-133.76 503.57,-127.78 493.01,-127.01 494.83,-133.76"/>
</a>
</g>
</g>
<!-- Node2&#45;&gt;Node3 -->
<g id="edge2_Node000002_Node000003" class="edge">
<title>Node2&#45;&gt;Node3</title>
<g id="a_edge2_Node000002_Node000003"><a xlink:title=" ">
<path fill="none" stroke="#63b8ff" d="M145.09,-110.09C130.47,-101.98 108.75,-89.93 91.67,-80.46"/>
<polygon fill="#63b8ff" stroke="#63b8ff" points="93.51,-77.48 83.06,-75.69 90.11,-83.6 93.51,-77.48"/>
</a>
</g>
</g>
<!-- Node6 -->
<g id="Node000006" class="node">
<title>Node6</title>
<g id="a_Node000006"><a xlink:title=" ">
<polygon fill="#e0e0e0" stroke="#999999" points="188.38,-74.5 148.38,-74.5 148.38,-55.25 188.38,-55.25 188.38,-74.5"/>
<text text-anchor="middle" x="168.38" y="-61" font-family="Helvetica,sans-Serif" font-size="10.00">string</text>
</a>
</g>
</g>
<!-- Node2&#45;&gt;Node6 -->
<g id="edge5_Node000002_Node000006" class="edge">
<title>Node2&#45;&gt;Node6</title>
<g id="a_edge5_Node000002_Node000006"><a xlink:title=" ">
<path fill="none" stroke="#63b8ff" d="M162.53,-110.33C163.4,-103.74 164.62,-94.46 165.72,-86.07"/>
<polygon fill="#63b8ff" stroke="#63b8ff" points="169.16,-86.73 167,-76.36 162.22,-85.82 169.16,-86.73"/>
</a>
</g>
</g>
<!-- Node7 -->
<g id="Node000007" class="node">
<title>Node7</title>
<g id="a_Node000007"><a xlink:title=" ">
<polygon fill="#e0e0e0" stroke="#999999" points="272.12,-74.5 206.62,-74.5 206.62,-55.25 272.12,-55.25 272.12,-74.5"/>
<text text-anchor="middle" x="239.38" y="-61" font-family="Helvetica,sans-Serif" font-size="10.00">string_view</text>
</a>
</g>
</g>
<!-- Node2&#45;&gt;Node7 -->
<g id="edge6_Node000002_Node000007" class="edge">
<title>Node2&#45;&gt;Node7</title>
<g id="a_edge6_Node000002_Node000007"><a xlink:title=" ">
<path fill="none" stroke="#63b8ff" d="M174.61,-110.09C186.15,-102.21 203.14,-90.61 216.82,-81.27"/>
<polygon fill="#63b8ff" stroke="#63b8ff" points="218.54,-84.33 224.83,-75.81 214.6,-78.55 218.54,-84.33"/>
</a>
</g>
</g>
<!-- Node4 -->
<g id="Node000004" class="node">
<title>Node4</title>
<g id="a_Node000004"><a xlink:title=" ">
<polygon fill="#e0e0e0" stroke="#999999" points="56,-19.25 10.75,-19.25 10.75,0 56,0 56,-19.25"/>
<text text-anchor="middle" x="33.38" y="-5.75" font-family="Helvetica,sans-Serif" font-size="10.00">cstdint</text>
</a>
</g>
</g>
<!-- Node3&#45;&gt;Node4 -->
<g id="edge3_Node000003_Node000004" class="edge">
<title>Node3&#45;&gt;Node4</title>
<g id="a_edge3_Node000003_Node000004"><a xlink:title=" ">
<path fill="none" stroke="#63b8ff" d="M60.09,-55.08C55.9,-48.11 49.9,-38.12 44.64,-29.37"/>
<polygon fill="#63b8ff" stroke="#63b8ff" points="47.7,-27.68 39.55,-20.91 41.7,-31.28 47.7,-27.68"/>
</a>
</g>
</g>
<!-- Node5 -->
<g id="Node000005" class="node">
<title>Node5</title>
<g id="a_Node000005"><a xlink:title=" ">
<polygon fill="#e0e0e0" stroke="#999999" points="121.12,-19.25 73.62,-19.25 73.62,0 121.12,0 121.12,-19.25"/>
<text text-anchor="middle" x="97.38" y="-5.75" font-family="Helvetica,sans-Serif" font-size="10.00">version</text>
</a>
</g>
</g>
<!-- Node3&#45;&gt;Node5 -->
<g id="edge4_Node000003_Node000005" class="edge">
<title>Node3&#45;&gt;Node5</title>
<g id="a_edge4_Node000003_Node000005"><a xlink:title=" ">
<path fill="none" stroke="#63b8ff" d="M70.66,-55.08C74.85,-48.11 80.85,-38.12 86.11,-29.37"/>
<polygon fill="#63b8ff" stroke="#63b8ff" points="89.05,-31.28 91.2,-20.91 83.05,-27.68 89.05,-31.28"/>
</a>
</g>
</g>
</g>
</svg>
