<?xml version="1.0" encoding="UTF-8" standalone="no"?>
<!DOCTYPE svg PUBLIC "-//W3C//DTD SVG 1.1//EN"
 "http://www.w3.org/Graphics/SVG/1.1/DTD/svg11.dtd">
<!-- Generated by graphviz version 12.2.1 (20241206.2353)
 -->
<!-- Title: mimic++/printing/state/CommonTypes.hpp Pages: 1 -->
<!--zoomable 836 -->

<svg id="main" version="1.1" xmlns="http://www.w3.org/2000/svg" xmlns:xlink="http://www.w3.org/1999/xlink" xml:space="preserve" onload="init(evt)">

<style type="text/css"><![CDATA[
.node, .edge {opacity: 0.7;}
.node.selected, .edge.selected {opacity: 1;}
.edge:hover path { stroke: red; }
.edge:hover polygon { stroke: red; fill: red; }
]]></style>

<defs>
  <circle id="rim" cx="0" cy="0" r="7"/>
  <circle id="rim2" cx="0" cy="0" r="3.5"/>
  <g id="zoomPlus">
    <use xlink:href="#rim" fill="#404040"><set attributeName="fill" to="#808080" begin="zoomplus.mouseover" end="zoomplus.mouseout"/></use>
    <path d="M-4,0h8M0,-4v8" fill="none" stroke="white" stroke-width="1.5" pointer-events="none"/>
  </g>
  <g id="zoomMin">
    <use xlink:href="#rim" fill="#404040"><set attributeName="fill" to="#808080" begin="zoomminus.mouseover" end="zoomminus.mouseout"/></use>
    <path d="M-4,0h8" fill="none" stroke="white" stroke-width="1.5" pointer-events="none"/>
  </g>
  <g id="arrowUp" transform="translate(30 24)">
    <use xlink:href="#rim"/>
    <path pointer-events="none" fill="none" stroke="white" stroke-width="1.5" d="M0,-3.0v7 M-2.5,-0.5L0,-3.0L2.5,-0.5"/>
  </g>
  <g id="arrowRight" transform="rotate(90) translate(36 -43)">
    <use xlink:href="#rim"/>
    <path pointer-events="none" fill="none" stroke="white" stroke-width="1.5" d="M0,-3.0v7 M-2.5,-0.5L0,-3.0L2.5,-0.5"/>
  </g>
  <g id="arrowDown" transform="rotate(180) translate(-30 -48)">
    <use xlink:href="#rim"/>
    <path pointer-events="none" fill="none" stroke="white" stroke-width="1.5" d="M0,-3.0v7 M-2.5,-0.5L0,-3.0L2.5,-0.5"/>
  </g>
  <g id="arrowLeft" transform="rotate(270) translate(-36 17)">
    <use xlink:href="#rim"/>
    <path pointer-events="none" fill="none" stroke="white" stroke-width="1.5" d="M0,-3.0v7 M-2.5,-0.5L0,-3.0L2.5,-0.5"/>
  </g>
  <g id="resetDef">
    <use xlink:href="#rim2" fill="#404040"><set attributeName="fill" to="#808080" begin="reset.mouseover" end="reset.mouseout"/></use>
  </g>
</defs>
<script type="application/ecmascript">
var viewWidth = 1405;
var viewHeight = 836;
var sectionId = 'dynsection-1';
</script>
<script type="application/ecmascript" xlink:href="../../svg.min.js"/>
<svg id="graph" class="graph">
<g id="viewport">
<title>mimic++/printing/state/CommonTypes.hpp</title>
<!-- Node1 -->
<g id="Node000001" class="node">
<title>Node1</title>
<g id="a_Node000001"><a xlink:title=" ">
<polygon fill="#999999" stroke="#666666" points="981.75,-827.5 868.25,-827.5 868.25,-797 981.75,-797 981.75,-827.5"/>
<text text-anchor="start" x="876.25" y="-814" font-family="Helvetica,sans-Serif" font-size="10.00">mimic++/printing/state</text>
<text text-anchor="middle" x="925" y="-802.75" font-family="Helvetica,sans-Serif" font-size="10.00">/CommonTypes.hpp</text>
</a>
</g>
</g>
<!-- Node2 -->
<g id="Node000002" class="node">
<title>Node2</title>
<g id="a_Node000002"><a xlink:href="../../de/d62/_state_printer_8hpp.html" target="_top" xlink:title=" ">
<polygon fill="white" stroke="#666666" points="1005.75,-761 844.25,-761 844.25,-741.75 1005.75,-741.75 1005.75,-761"/>
<text text-anchor="middle" x="925" y="-747.5" font-family="Helvetica,sans-Serif" font-size="10.00">mimic++/printing/StatePrinter.hpp</text>
</a>
</g>
</g>
<!-- Node1&#45;&gt;Node2 -->
<g id="edge1_Node000001_Node000002" class="edge">
<title>Node1&#45;&gt;Node2</title>
<g id="a_edge1_Node000001_Node000002"><a xlink:title=" ">
<path fill="none" stroke="#63b8ff" d="M925,-785.23C925,-776.73 925,-767.84 925,-761.45"/>
<polygon fill="#63b8ff" stroke="#63b8ff" points="921.5,-785.18 925,-795.18 928.5,-785.18 921.5,-785.18"/>
</a>
</g>
</g>
<!-- Node3 -->
<g id="Node000003" class="node">
<title>Node3</title>
<g id="a_Node000003"><a xlink:href="../../db/d15/_printing_8hpp.html" target="_top" xlink:title=" ">
<polygon fill="white" stroke="#666666" points="182.12,-650.5 73.88,-650.5 73.88,-631.25 182.12,-631.25 182.12,-650.5"/>
<text text-anchor="middle" x="128" y="-637" font-family="Helvetica,sans-Serif" font-size="10.00">mimic++/Printing.hpp</text>
</a>
</g>
</g>
<!-- Node2&#45;&gt;Node3 -->
<g id="edge2_Node000002_Node000003" class="edge">
<title>Node2&#45;&gt;Node3</title>
<g id="a_edge2_Node000002_Node000003"><a xlink:title=" ">
<path fill="none" stroke="#63b8ff" d="M832.67,-740.07C757.34,-731.48 648.19,-718.61 553,-705.75 419.72,-687.74 263.43,-663.43 182.6,-650.61"/>
<polygon fill="#63b8ff" stroke="#63b8ff" points="832.16,-743.54 842.5,-741.19 832.96,-736.58 832.16,-743.54"/>
</a>
</g>
</g>
<!-- Node5 -->
<g id="Node000005" class="node">
<title>Node5</title>
<g id="a_Node000005"><a xlink:href="../../de/df5/_stacktrace_8hpp.html" target="_top" xlink:title=" ">
<polygon fill="white" stroke="#666666" points="684.25,-705.75 561.75,-705.75 561.75,-686.5 684.25,-686.5 684.25,-705.75"/>
<text text-anchor="middle" x="623" y="-692.25" font-family="Helvetica,sans-Serif" font-size="10.00">mimic++/Stacktrace.hpp</text>
</a>
</g>
</g>
<!-- Node2&#45;&gt;Node5 -->
<g id="edge4_Node000002_Node000005" class="edge">
<title>Node2&#45;&gt;Node5</title>
<g id="a_edge4_Node000002_Node000005"><a xlink:title=" ">
<path fill="none" stroke="#63b8ff" d="M862.31,-739.32C806.74,-729.52 726.56,-715.38 674.61,-706.23"/>
<polygon fill="#63b8ff" stroke="#63b8ff" points="861.48,-742.73 871.94,-741.02 862.7,-735.84 861.48,-742.73"/>
</a>
</g>
</g>
<!-- Node16 -->
<g id="Node000016" class="node">
<title>Node16</title>
<g id="a_Node000016"><a xlink:href="../../d9/d6c/_call_report_8hpp.html" target="_top" xlink:title=" ">
<polygon fill="white" stroke="#666666" points="703.38,-595.25 542.62,-595.25 542.62,-576 703.38,-576 703.38,-595.25"/>
<text text-anchor="middle" x="623" y="-581.75" font-family="Helvetica,sans-Serif" font-size="10.00">mimic++/reporting/CallReport.hpp</text>
</a>
</g>
</g>
<!-- Node2&#45;&gt;Node16 -->
<g id="edge69_Node000002_Node000016" class="edge">
<title>Node2&#45;&gt;Node16</title>
<g id="a_edge69_Node000002_Node000016"><a xlink:title=" ">
<path fill="none" stroke="#63b8ff" d="M898.34,-735.92C837.4,-702.88 689.36,-622.61 639.62,-595.63"/>
<polygon fill="#63b8ff" stroke="#63b8ff" points="896.54,-738.93 907,-740.62 899.88,-732.77 896.54,-738.93"/>
</a>
</g>
</g>
<!-- Node24 -->
<g id="Node000024" class="node">
<title>Node24</title>
<g id="a_Node000024"><a xlink:href="../../d9/dd5/_general_matchers_8hpp.html" target="_top" xlink:title=" ">
<polygon fill="white" stroke="#666666" points="1228.25,-340.5 1093.75,-340.5 1093.75,-310 1228.25,-310 1228.25,-340.5"/>
<text text-anchor="start" x="1101.75" y="-327" font-family="Helvetica,sans-Serif" font-size="10.00">mimic++/matchers/General</text>
<text text-anchor="middle" x="1161" y="-315.75" font-family="Helvetica,sans-Serif" font-size="10.00">Matchers.hpp</text>
</a>
</g>
</g>
<!-- Node2&#45;&gt;Node24 -->
<g id="edge54_Node000002_Node000024" class="edge">
<title>Node2&#45;&gt;Node24</title>
<g id="a_edge54_Node000002_Node000024"><a xlink:title=" ">
<path fill="none" stroke="#63b8ff" d="M1013.24,-738.89C1069.54,-726.05 1132,-698.93 1132,-641.88 1132,-641.88 1132,-641.88 1132,-457.25 1132,-414.16 1147.14,-364.93 1155.55,-340.95"/>
<polygon fill="#63b8ff" stroke="#63b8ff" points="1012.61,-735.45 1003.56,-740.96 1014.07,-742.29 1012.61,-735.45"/>
</a>
</g>
</g>
<!-- Node27 -->
<g id="Node000027" class="node">
<title>Node27</title>
<g id="a_Node000027"><a xlink:href="../../d2/d56/_string_matchers_8hpp.html" target="_top" xlink:title=" ">
<polygon fill="white" stroke="#666666" points="1206.38,-268.38 1021.62,-268.38 1021.62,-249.12 1206.38,-249.12 1206.38,-268.38"/>
<text text-anchor="middle" x="1114" y="-254.88" font-family="Helvetica,sans-Serif" font-size="10.00">mimic++/matchers/StringMatchers.hpp</text>
</a>
</g>
</g>
<!-- Node2&#45;&gt;Node27 -->
<g id="edge64_Node000002_Node000027" class="edge">
<title>Node2&#45;&gt;Node27</title>
<g id="a_edge64_Node000002_Node000027"><a xlink:title=" ">
<path fill="none" stroke="#63b8ff" d="M968.05,-737.48C1009.52,-722.08 1066,-691.92 1066,-641.88 1066,-641.88 1066,-641.88 1066,-390.75 1066,-353.88 1071.42,-344.28 1085,-310 1091.09,-294.64 1101.28,-278.34 1107.81,-268.6"/>
<polygon fill="#63b8ff" stroke="#63b8ff" points="967.04,-734.12 958.78,-740.75 969.37,-740.72 967.04,-734.12"/>
</a>
</g>
</g>
<!-- Node28 -->
<g id="Node000028" class="node">
<title>Node28</title>
<g id="a_Node000028"><a xlink:href="../../de/d10/_general_policies_8hpp.html" target="_top" xlink:title=" ">
<polygon fill="white" stroke="#666666" points="927.5,-274 800.5,-274 800.5,-243.5 927.5,-243.5 927.5,-274"/>
<text text-anchor="start" x="808.5" y="-260.5" font-family="Helvetica,sans-Serif" font-size="10.00">mimic++/policies/General</text>
<text text-anchor="middle" x="864" y="-249.25" font-family="Helvetica,sans-Serif" font-size="10.00">Policies.hpp</text>
</a>
</g>
</g>
<!-- Node2&#45;&gt;Node28 -->
<g id="edge65_Node000002_Node000028" class="edge">
<title>Node2&#45;&gt;Node28</title>
<g id="a_edge65_Node000002_Node000028"><a xlink:title=" ">
<path fill="none" stroke="#63b8ff" d="M940.66,-732.52C956.91,-712.09 980,-676.9 980,-641.88 980,-641.88 980,-641.88 980,-390.75 980,-337.28 925.17,-295.42 890.9,-274.47"/>
<polygon fill="#63b8ff" stroke="#63b8ff" points="938.02,-730.21 934.32,-740.14 943.41,-734.69 938.02,-730.21"/>
</a>
</g>
</g>
<!-- Node4 -->
<g id="Node000004" class="node">
<title>Node4</title>
<g id="a_Node000004"><a xlink:href="../../d0/db9/mimic_09_09_8hpp.html" target="_top" xlink:title=" ">
<polygon fill="white" stroke="#666666" points="695.75,-19.25 582.25,-19.25 582.25,0 695.75,0 695.75,-19.25"/>
<text text-anchor="middle" x="639" y="-5.75" font-family="Helvetica,sans-Serif" font-size="10.00">mimic++/mimic++.hpp</text>
</a>
</g>
</g>
<!-- Node3&#45;&gt;Node4 -->
<g id="edge3_Node000003_Node000004" class="edge">
<title>Node3&#45;&gt;Node4</title>
<g id="a_edge3_Node000003_Node000004"><a xlink:title=" ">
<path fill="none" stroke="#63b8ff" d="M93.15,-626.48C55.25,-609.36 0,-575.82 0,-525.75 0,-525.75 0,-525.75 0,-124.75 0,-82.46 26.88,-73.58 65,-55.25 155.19,-11.88 455.5,-9.06 582.02,-9.88"/>
<polygon fill="#63b8ff" stroke="#63b8ff" points="91.36,-629.52 101.93,-630.27 94.14,-623.09 91.36,-629.52"/>
</a>
</g>
</g>
<!-- Node6 -->
<g id="Node000006" class="node">
<title>Node6</title>
<g id="a_Node000006"><a xlink:href="../../dc/d44/_call_8hpp.html" target="_top" xlink:title=" ">
<polygon fill="white" stroke="#666666" points="418.88,-650.5 327.12,-650.5 327.12,-631.25 418.88,-631.25 418.88,-650.5"/>
<text text-anchor="middle" x="373" y="-637" font-family="Helvetica,sans-Serif" font-size="10.00">mimic++/Call.hpp</text>
</a>
</g>
</g>
<!-- Node5&#45;&gt;Node6 -->
<g id="edge5_Node000005_Node000006" class="edge">
<title>Node5&#45;&gt;Node6</title>
<g id="a_edge5_Node000005_Node000006"><a xlink:title=" ">
<path fill="none" stroke="#63b8ff" d="M569.06,-683.63C523.07,-673.84 457.88,-659.95 415.52,-650.93"/>
<polygon fill="#63b8ff" stroke="#63b8ff" points="568.32,-687.06 578.83,-685.72 569.78,-680.21 568.32,-687.06"/>
</a>
</g>
</g>
<!-- Node9 -->
<g id="Node000009" class="node">
<title>Node9</title>
<g id="a_Node000009"><a xlink:href="../../d5/dc5/_mock_8hpp.html" target="_top" xlink:title=" ">
<polygon fill="white" stroke="#666666" points="580.62,-135.38 481.38,-135.38 481.38,-116.12 580.62,-116.12 580.62,-135.38"/>
<text text-anchor="middle" x="531" y="-121.88" font-family="Helvetica,sans-Serif" font-size="10.00">mimic++/Mock.hpp</text>
</a>
</g>
</g>
<!-- Node5&#45;&gt;Node9 -->
<g id="edge51_Node000005_Node000009" class="edge">
<title>Node5&#45;&gt;Node9</title>
<g id="a_edge51_Node000005_Node000009"><a xlink:title=" ">
<path fill="none" stroke="#63b8ff" d="M561.52,-683.32C511.1,-669.66 448,-641.58 448,-586.62 448,-586.62 448,-586.62 448,-390.75 448,-324.76 405.81,-305.28 429,-243.5 447.25,-194.87 495.96,-153.21 518.82,-135.65"/>
<polygon fill="#63b8ff" stroke="#63b8ff" points="560.36,-686.64 570.92,-685.73 562.1,-679.86 560.36,-686.64"/>
</a>
</g>
</g>
<!-- Node5&#45;&gt;Node16 -->
<g id="edge52_Node000005_Node000016" class="edge">
<title>Node5&#45;&gt;Node16</title>
<g id="a_edge52_Node000005_Node000016"><a xlink:title=" ">
<path fill="none" stroke="#63b8ff" d="M623,-674.78C623,-651.05 623,-612.89 623,-595.63"/>
<polygon fill="#63b8ff" stroke="#63b8ff" points="619.5,-674.73 623,-684.73 626.5,-674.73 619.5,-674.73"/>
</a>
</g>
</g>
<!-- Node23 -->
<g id="Node000023" class="node">
<title>Node23</title>
<g id="a_Node000023"><a xlink:href="../../d9/d70/_stringify_reports_8hpp.html" target="_top" xlink:title=" ">
<polygon fill="white" stroke="#666666" points="815.5,-540 682.5,-540 682.5,-509.5 815.5,-509.5 815.5,-540"/>
<text text-anchor="start" x="690.5" y="-526.5" font-family="Helvetica,sans-Serif" font-size="10.00">mimic++/reporting/Stringify</text>
<text text-anchor="middle" x="749" y="-515.25" font-family="Helvetica,sans-Serif" font-size="10.00">Reports.hpp</text>
</a>
</g>
</g>
<!-- Node5&#45;&gt;Node23 -->
<g id="edge53_Node000005_Node000023" class="edge">
<title>Node5&#45;&gt;Node23</title>
<g id="a_edge53_Node000005_Node000023"><a xlink:title=" ">
<path fill="none" stroke="#63b8ff" d="M640.48,-678.12C659.49,-659.05 690.11,-626.67 712,-595.25 724.42,-577.42 735.69,-554.93 742.44,-540.44"/>
<polygon fill="#63b8ff" stroke="#63b8ff" points="638.11,-675.53 633.47,-685.05 643.04,-680.5 638.11,-675.53"/>
</a>
</g>
</g>
<!-- Node6&#45;&gt;Node4 -->
<g id="edge18_Node000006_Node000004" class="edge">
<title>Node6&#45;&gt;Node4</title>
<g id="a_edge18_Node000006_Node000004"><a xlink:title=" ">
<path fill="none" stroke="#63b8ff" d="M315.54,-632.35C219.79,-618.19 38,-583.68 38,-525.75 38,-525.75 38,-525.75 38,-124.75 38,-79.95 70.14,-73.62 111,-55.25 193.85,-17.99 463.13,-11.66 581.87,-10.71"/>
<polygon fill="#63b8ff" stroke="#63b8ff" points="314.88,-635.79 325.27,-633.76 315.88,-628.87 314.88,-635.79"/>
</a>
</g>
</g>
<!-- Node7 -->
<g id="Node000007" class="node">
<title>Node7</title>
<g id="a_Node000007"><a xlink:href="../../d5/d8a/_expectation_8hpp.html" target="_top" xlink:title=" ">
<polygon fill="white" stroke="#666666" points="563.75,-268.38 438.25,-268.38 438.25,-249.12 563.75,-249.12 563.75,-268.38"/>
<text text-anchor="middle" x="501" y="-254.88" font-family="Helvetica,sans-Serif" font-size="10.00">mimic++/Expectation.hpp</text>
</a>
</g>
</g>
<!-- Node6&#45;&gt;Node7 -->
<g id="edge6_Node000006_Node000007" class="edge">
<title>Node6&#45;&gt;Node7</title>
<g id="a_edge6_Node000006_Node000007"><a xlink:title=" ">
<path fill="none" stroke="#63b8ff" d="M383.16,-621C394.11,-598.85 410,-560.69 410,-525.75 410,-525.75 410,-525.75 410,-390.75 410,-336.2 463.89,-288.03 488.73,-268.72"/>
<polygon fill="#63b8ff" stroke="#63b8ff" points="380.16,-619.18 378.68,-629.68 386.38,-622.39 380.16,-619.18"/>
</a>
</g>
</g>
<!-- Node6&#45;&gt;Node9 -->
<g id="edge17_Node000006_Node000009" class="edge">
<title>Node6&#45;&gt;Node9</title>
<g id="a_edge17_Node000006_Node000009"><a xlink:title=" ">
<path fill="none" stroke="#63b8ff" d="M372.72,-619.79C372.42,-597 372,-558.7 372,-525.75 372,-525.75 372,-525.75 372,-257.75 372,-220.31 370.43,-204.35 396,-177 418.12,-153.34 452.4,-140.76 480.89,-134.1"/>
<polygon fill="#63b8ff" stroke="#63b8ff" points="369.21,-619.53 372.85,-629.48 376.21,-619.44 369.21,-619.53"/>
</a>
</g>
</g>
<!-- Node12 -->
<g id="Node000012" class="node">
<title>Node12</title>
<g id="a_Node000012"><a xlink:href="../../d2/dfd/_argument_list_8hpp.html" target="_top" xlink:title=" ">
<polygon fill="white" stroke="#666666" points="219.62,-340.5 84.38,-340.5 84.38,-310 219.62,-310 219.62,-340.5"/>
<text text-anchor="start" x="92.38" y="-327" font-family="Helvetica,sans-Serif" font-size="10.00">mimic++/policies/Argument</text>
<text text-anchor="middle" x="152" y="-315.75" font-family="Helvetica,sans-Serif" font-size="10.00">List.hpp</text>
</a>
</g>
</g>
<!-- Node6&#45;&gt;Node12 -->
<g id="edge19_Node000006_Node000012" class="edge">
<title>Node6&#45;&gt;Node12</title>
<g id="a_edge19_Node000006_Node000012"><a xlink:title=" ">
<path fill="none" stroke="#63b8ff" d="M337.29,-626.49C298.81,-609.48 243,-576.12 243,-525.75 243,-525.75 243,-525.75 243,-457.25 243,-407.4 198.01,-362.89 171.3,-340.85"/>
<polygon fill="#63b8ff" stroke="#63b8ff" points="335.66,-629.6 346.23,-630.27 338.38,-623.15 335.66,-629.6"/>
</a>
</g>
</g>
<!-- Node6&#45;&gt;Node16 -->
<g id="edge28_Node000006_Node000016" class="edge">
<title>Node6&#45;&gt;Node16</title>
<g id="a_edge28_Node000006_Node000016"><a xlink:title=" ">
<path fill="none" stroke="#63b8ff" d="M426.94,-628.38C472.93,-618.59 538.12,-604.7 580.48,-595.68"/>
<polygon fill="#63b8ff" stroke="#63b8ff" points="426.22,-624.96 417.17,-630.47 427.68,-631.81 426.22,-624.96"/>
</a>
</g>
</g>
<!-- Node7&#45;&gt;Node4 -->
<g id="edge16_Node000007_Node000004" class="edge">
<title>Node7&#45;&gt;Node4</title>
<g id="a_edge16_Node000007_Node000004"><a xlink:title=" ">
<path fill="none" stroke="#63b8ff" d="M476.94,-242.51C424.72,-207.62 309.96,-119.98 365,-55.25 392.28,-23.17 509.99,-14.09 581.96,-11.56"/>
<polygon fill="#63b8ff" stroke="#63b8ff" points="474.93,-245.38 485.21,-247.93 478.77,-239.52 474.93,-245.38"/>
</a>
</g>
</g>
<!-- Node8 -->
<g id="Node000008" class="node">
<title>Node8</title>
<g id="a_Node000008"><a xlink:href="../../d2/d4f/_expectation_builder_8hpp.html" target="_top" xlink:title=" ">
<polygon fill="white" stroke="#666666" points="831.75,-201.88 676.25,-201.88 676.25,-182.62 831.75,-182.62 831.75,-201.88"/>
<text text-anchor="middle" x="754" y="-188.38" font-family="Helvetica,sans-Serif" font-size="10.00">mimic++/ExpectationBuilder.hpp</text>
</a>
</g>
</g>
<!-- Node7&#45;&gt;Node8 -->
<g id="edge7_Node000007_Node000008" class="edge">
<title>Node7&#45;&gt;Node8</title>
<g id="a_edge7_Node000007_Node000008"><a xlink:title=" ">
<path fill="none" stroke="#63b8ff" d="M547.72,-245.84C597.08,-233.26 673.82,-213.69 718.47,-202.31"/>
<polygon fill="#63b8ff" stroke="#63b8ff" points="547,-242.41 538.18,-248.27 548.73,-249.19 547,-242.41"/>
</a>
</g>
</g>
<!-- Node7&#45;&gt;Node9 -->
<g id="edge15_Node000007_Node000009" class="edge">
<title>Node7&#45;&gt;Node9</title>
<g id="a_edge15_Node000007_Node000009"><a xlink:title=" ">
<path fill="none" stroke="#63b8ff" d="M505.61,-237.62C512.22,-208.74 524.14,-156.73 528.92,-135.82"/>
<polygon fill="#63b8ff" stroke="#63b8ff" points="502.22,-236.74 503.4,-247.27 509.04,-238.3 502.22,-236.74"/>
</a>
</g>
</g>
<!-- Node8&#45;&gt;Node4 -->
<g id="edge14_Node000008_Node000004" class="edge">
<title>Node8&#45;&gt;Node4</title>
<g id="a_edge14_Node000008_Node000004"><a xlink:title=" ">
<path fill="none" stroke="#63b8ff" d="M759.65,-171.37C766.47,-142.87 774.25,-90.02 750,-55.25 737.17,-36.85 715.41,-26.03 694.54,-19.68"/>
<polygon fill="#63b8ff" stroke="#63b8ff" points="756.32,-170.26 757.17,-180.82 763.09,-172.03 756.32,-170.26"/>
</a>
</g>
</g>
<!-- Node8&#45;&gt;Node9 -->
<g id="edge8_Node000008_Node000009" class="edge">
<title>Node8&#45;&gt;Node9</title>
<g id="a_edge8_Node000008_Node000009"><a xlink:title=" ">
<path fill="none" stroke="#63b8ff" d="M711.72,-179.02C668.17,-166.43 601.34,-147.09 562.32,-135.81"/>
<polygon fill="#63b8ff" stroke="#63b8ff" points="710.49,-182.31 721.07,-181.72 712.43,-175.58 710.49,-182.31"/>
</a>
</g>
</g>
<!-- Node9&#45;&gt;Node4 -->
<g id="edge13_Node000009_Node000004" class="edge">
<title>Node9&#45;&gt;Node4</title>
<g id="a_edge13_Node000009_Node000004"><a xlink:title=" ">
<path fill="none" stroke="#63b8ff" d="M535.85,-104.95C540.34,-89.92 548.29,-69.48 561,-55.25 575.66,-38.85 597.83,-26.98 614.8,-19.62"/>
<polygon fill="#63b8ff" stroke="#63b8ff" points="532.59,-103.6 533.36,-114.17 539.35,-105.43 532.59,-103.6"/>
</a>
</g>
</g>
<!-- Node10 -->
<g id="Node000010" class="node">
<title>Node10</title>
<g id="a_Node000010"><a xlink:href="../../d9/dc3/_interface_mock_8hpp.html" target="_top" xlink:title=" ">
<polygon fill="white" stroke="#666666" points="707.75,-74.5 570.25,-74.5 570.25,-55.25 707.75,-55.25 707.75,-74.5"/>
<text text-anchor="middle" x="639" y="-61" font-family="Helvetica,sans-Serif" font-size="10.00">mimic++/InterfaceMock.hpp</text>
</a>
</g>
</g>
<!-- Node9&#45;&gt;Node10 -->
<g id="edge9_Node000009_Node000010" class="edge">
<title>Node9&#45;&gt;Node10</title>
<g id="a_edge9_Node000009_Node000010"><a xlink:title=" ">
<path fill="none" stroke="#63b8ff" d="M557.28,-110.42C577.6,-99.35 605.1,-84.36 622.44,-74.9"/>
<polygon fill="#63b8ff" stroke="#63b8ff" points="555.84,-107.22 548.73,-115.08 559.19,-113.37 555.84,-107.22"/>
</a>
</g>
</g>
<!-- Node11 -->
<g id="Node000011" class="node">
<title>Node11</title>
<g id="a_Node000011"><a xlink:href="../../d5/d92/_object_watcher_8hpp.html" target="_top" xlink:title=" ">
<polygon fill="white" stroke="#666666" points="513.88,-74.5 374.12,-74.5 374.12,-55.25 513.88,-55.25 513.88,-74.5"/>
<text text-anchor="middle" x="444" y="-61" font-family="Helvetica,sans-Serif" font-size="10.00">mimic++/ObjectWatcher.hpp</text>
</a>
</g>
</g>
<!-- Node9&#45;&gt;Node11 -->
<g id="edge11_Node000009_Node000011" class="edge">
<title>Node9&#45;&gt;Node11</title>
<g id="a_edge11_Node000009_Node000011"><a xlink:title=" ">
<path fill="none" stroke="#63b8ff" d="M508.47,-109.5C492.25,-98.53 470.93,-84.1 457.34,-74.9"/>
<polygon fill="#63b8ff" stroke="#63b8ff" points="506.29,-112.25 516.53,-114.96 510.21,-106.46 506.29,-112.25"/>
</a>
</g>
</g>
<!-- Node10&#45;&gt;Node4 -->
<g id="edge10_Node000010_Node000004" class="edge">
<title>Node10&#45;&gt;Node4</title>
<g id="a_edge10_Node000010_Node000004"><a xlink:title=" ">
<path fill="none" stroke="#63b8ff" d="M639,-43.63C639,-35.34 639,-26.17 639,-19.61"/>
<polygon fill="#63b8ff" stroke="#63b8ff" points="635.5,-43.57 639,-53.57 642.5,-43.57 635.5,-43.57"/>
</a>
</g>
</g>
<!-- Node11&#45;&gt;Node4 -->
<g id="edge12_Node000011_Node000004" class="edge">
<title>Node11&#45;&gt;Node4</title>
<g id="a_edge12_Node000011_Node000004"><a xlink:title=" ">
<path fill="none" stroke="#63b8ff" d="M488.15,-51.82C523.85,-42.07 573.35,-28.55 605.76,-19.7"/>
<polygon fill="#63b8ff" stroke="#63b8ff" points="487.26,-48.43 478.54,-54.44 489.11,-55.19 487.26,-48.43"/>
</a>
</g>
</g>
<!-- Node12&#45;&gt;Node4 -->
<g id="edge20_Node000012_Node000004" class="edge">
<title>Node12&#45;&gt;Node4</title>
<g id="a_edge20_Node000012_Node000004"><a xlink:title=" ">
<path fill="none" stroke="#63b8ff" d="M128.82,-301.51C106.47,-277.04 76,-235.87 76,-193.25 76,-193.25 76,-193.25 76,-124.75 76,-22.28 438.79,-10.78 581.92,-10.23"/>
<polygon fill="#63b8ff" stroke="#63b8ff" points="126.16,-303.78 135.58,-308.64 131.24,-298.97 126.16,-303.78"/>
</a>
</g>
</g>
<!-- Node13 -->
<g id="Node000013" class="node">
<title>Node13</title>
<g id="a_Node000013"><a xlink:href="../../d1/d42/_arg_requirement_policies_8hpp.html" target="_top" xlink:title=" ">
<polygon fill="white" stroke="#666666" points="343.5,-274 180.5,-274 180.5,-243.5 343.5,-243.5 343.5,-274"/>
<text text-anchor="start" x="188.5" y="-260.5" font-family="Helvetica,sans-Serif" font-size="10.00">mimic++/policies/ArgRequirement</text>
<text text-anchor="middle" x="262" y="-249.25" font-family="Helvetica,sans-Serif" font-size="10.00">Policies.hpp</text>
</a>
</g>
</g>
<!-- Node12&#45;&gt;Node13 -->
<g id="edge21_Node000012_Node000013" class="edge">
<title>Node12&#45;&gt;Node13</title>
<g id="a_edge21_Node000012_Node000013"><a xlink:title=" ">
<path fill="none" stroke="#63b8ff" d="M186.73,-303.89C203.1,-294.29 222.25,-283.06 237.14,-274.33"/>
<polygon fill="#63b8ff" stroke="#63b8ff" points="185.12,-300.77 178.27,-308.85 188.66,-306.81 185.12,-300.77"/>
</a>
</g>
</g>
<!-- Node14 -->
<g id="Node000014" class="node">
<title>Node14</title>
<g id="a_Node000014"><a xlink:href="../../d3/da3/_finalizer_policies_8hpp.html" target="_top" xlink:title=" ">
<polygon fill="white" stroke="#666666" points="235.62,-141 106.38,-141 106.38,-110.5 235.62,-110.5 235.62,-141"/>
<text text-anchor="start" x="114.38" y="-127.5" font-family="Helvetica,sans-Serif" font-size="10.00">mimic++/policies/Finalizer</text>
<text text-anchor="middle" x="171" y="-116.25" font-family="Helvetica,sans-Serif" font-size="10.00">Policies.hpp</text>
</a>
</g>
</g>
<!-- Node12&#45;&gt;Node14 -->
<g id="edge24_Node000012_Node000014" class="edge">
<title>Node12&#45;&gt;Node14</title>
<g id="a_edge24_Node000012_Node000014"><a xlink:title=" ">
<path fill="none" stroke="#63b8ff" d="M142.04,-298.9C131.8,-269.01 119.17,-218.21 133,-177 137.52,-163.52 147.25,-150.77 155.73,-141.49"/>
<polygon fill="#63b8ff" stroke="#63b8ff" points="138.71,-299.98 145.4,-308.2 145.29,-297.6 138.71,-299.98"/>
</a>
</g>
</g>
<!-- Node15 -->
<g id="Node000015" class="node">
<title>Node15</title>
<g id="a_Node000015"><a xlink:href="../../dc/d18/_side_effect_policies_8hpp.html" target="_top" xlink:title=" ">
<polygon fill="white" stroke="#666666" points="279.75,-207.5 142.25,-207.5 142.25,-177 279.75,-177 279.75,-207.5"/>
<text text-anchor="start" x="150.25" y="-194" font-family="Helvetica,sans-Serif" font-size="10.00">mimic++/policies/SideEffect</text>
<text text-anchor="middle" x="211" y="-182.75" font-family="Helvetica,sans-Serif" font-size="10.00">Policies.hpp</text>
</a>
</g>
</g>
<!-- Node12&#45;&gt;Node15 -->
<g id="edge26_Node000012_Node000015" class="edge">
<title>Node12&#45;&gt;Node15</title>
<g id="a_edge26_Node000012_Node000015"><a xlink:title=" ">
<path fill="none" stroke="#63b8ff" d="M155.07,-298.68C157.74,-282.3 162.55,-260.91 171,-243.5 177.42,-230.26 187.86,-217.31 196.46,-207.88"/>
<polygon fill="#63b8ff" stroke="#63b8ff" points="151.68,-297.71 153.7,-308.1 158.6,-298.71 151.68,-297.71"/>
</a>
</g>
</g>
<!-- Node13&#45;&gt;Node4 -->
<g id="edge23_Node000013_Node000004" class="edge">
<title>Node13&#45;&gt;Node4</title>
<g id="a_edge23_Node000013_Node000004"><a xlink:title=" ">
<path fill="none" stroke="#63b8ff" d="M275.94,-233.13C280.32,-225.06 285.04,-215.98 289,-207.5 319.86,-141.46 292.93,-100.6 350,-55.25 384.93,-27.5 508.11,-16.82 581.9,-12.85"/>
<polygon fill="#63b8ff" stroke="#63b8ff" points="272.98,-231.25 271.21,-241.7 279.11,-234.63 272.98,-231.25"/>
</a>
</g>
</g>
<!-- Node13&#45;&gt;Node8 -->
<g id="edge22_Node000013_Node000008" class="edge">
<title>Node13&#45;&gt;Node8</title>
<g id="a_edge22_Node000013_Node000008"><a xlink:title=" ">
<path fill="none" stroke="#63b8ff" d="M354.95,-245.56C450.94,-232.98 598.52,-213.63 684.74,-202.33"/>
<polygon fill="#63b8ff" stroke="#63b8ff" points="354.76,-242.06 345.3,-246.83 355.67,-249 354.76,-242.06"/>
</a>
</g>
</g>
<!-- Node14&#45;&gt;Node4 -->
<g id="edge25_Node000014_Node000004" class="edge">
<title>Node14&#45;&gt;Node4</title>
<g id="a_edge25_Node000014_Node000004"><a xlink:title=" ">
<path fill="none" stroke="#63b8ff" d="M190.62,-101.86C205.68,-85.95 227.93,-65.77 252,-55.25 309.87,-29.96 489.25,-17.82 582.07,-13.1"/>
<polygon fill="#63b8ff" stroke="#63b8ff" points="188.2,-99.32 184.04,-109.06 193.37,-104.04 188.2,-99.32"/>
</a>
</g>
</g>
<!-- Node15&#45;&gt;Node4 -->
<g id="edge27_Node000015_Node000004" class="edge">
<title>Node15&#45;&gt;Node4</title>
<g id="a_edge27_Node000015_Node000004"><a xlink:title=" ">
<path fill="none" stroke="#63b8ff" d="M227.61,-167.49C233.27,-159.2 239.54,-149.77 245,-141 268.2,-103.74 257.53,-79.68 294,-55.25 339.91,-24.5 496.48,-14.91 582.04,-11.94"/>
<polygon fill="#63b8ff" stroke="#63b8ff" points="224.76,-165.46 221.97,-175.68 230.53,-169.43 224.76,-165.46"/>
</a>
</g>
</g>
<!-- Node16&#45;&gt;Node7 -->
<g id="edge29_Node000016_Node000007" class="edge">
<title>Node16&#45;&gt;Node7</title>
<g id="a_edge29_Node000016_Node000007"><a xlink:title=" ">
<path fill="none" stroke="#63b8ff" d="M588.84,-571.09C548.26,-552.49 486,-514.89 486,-459.25 486,-459.25 486,-459.25 486,-390.75 486,-344.51 495.34,-289.68 499.28,-268.6"/>
<polygon fill="#63b8ff" stroke="#63b8ff" points="587.19,-574.18 597.75,-575.01 590.01,-567.78 587.19,-574.18"/>
</a>
</g>
</g>
<!-- Node17 -->
<g id="Node000017" class="node">
<title>Node17</title>
<g id="a_Node000017"><a xlink:href="../../d7/deb/_reporting_8hpp.html" target="_top" xlink:title=" ">
<polygon fill="white" stroke="#666666" points="899.25,-334.88 782.75,-334.88 782.75,-315.62 899.25,-315.62 899.25,-334.88"/>
<text text-anchor="middle" x="841" y="-321.38" font-family="Helvetica,sans-Serif" font-size="10.00">mimic++/Reporting.hpp</text>
</a>
</g>
</g>
<!-- Node16&#45;&gt;Node17 -->
<g id="edge30_Node000016_Node000017" class="edge">
<title>Node16&#45;&gt;Node17</title>
<g id="a_edge30_Node000016_Node000017"><a xlink:title=" ">
<path fill="none" stroke="#63b8ff" d="M714.88,-579.28C783.66,-569.53 871.29,-543.23 904,-473.5 911.79,-456.89 905.84,-391.97 898,-376.5 888.87,-358.5 870.3,-344.06 856.82,-335.36"/>
<polygon fill="#63b8ff" stroke="#63b8ff" points="714.54,-575.79 705.08,-580.56 715.45,-582.73 714.54,-575.79"/>
</a>
</g>
</g>
<!-- Node18 -->
<g id="Node000018" class="node">
<title>Node18</title>
<g id="a_Node000018"><a xlink:href="../../d1/dfd/_basic_reporter_8hpp.html" target="_top" xlink:title=" ">
<polygon fill="white" stroke="#666666" points="875.62,-467.88 698.38,-467.88 698.38,-448.62 875.62,-448.62 875.62,-467.88"/>
<text text-anchor="middle" x="787" y="-454.38" font-family="Helvetica,sans-Serif" font-size="10.00">mimic++/reporting/BasicReporter.hpp</text>
</a>
</g>
</g>
<!-- Node16&#45;&gt;Node18 -->
<g id="edge32_Node000016_Node000018" class="edge">
<title>Node16&#45;&gt;Node18</title>
<g id="a_edge32_Node000016_Node000018"><a xlink:title=" ">
<path fill="none" stroke="#63b8ff" d="M631.9,-565.34C640.43,-548.67 654.69,-524.91 673,-509.5 696.67,-489.59 729.47,-476.24 753.81,-468.34"/>
<polygon fill="#63b8ff" stroke="#63b8ff" points="628.82,-563.67 627.6,-574.19 635.12,-566.73 628.82,-563.67"/>
</a>
</g>
</g>
<!-- Node19 -->
<g id="Node000019" class="node">
<title>Node19</title>
<g id="a_Node000019"><a xlink:href="../../d0/d70/_default_reporter_8hpp.html" target="_top" xlink:title=" ">
<polygon fill="white" stroke="#666666" points="680.25,-473.5 551.75,-473.5 551.75,-443 680.25,-443 680.25,-473.5"/>
<text text-anchor="start" x="559.75" y="-460" font-family="Helvetica,sans-Serif" font-size="10.00">mimic++/reporting/Default</text>
<text text-anchor="middle" x="616" y="-448.75" font-family="Helvetica,sans-Serif" font-size="10.00">Reporter.hpp</text>
</a>
</g>
</g>
<!-- Node16&#45;&gt;Node19 -->
<g id="edge34_Node000016_Node000019" class="edge">
<title>Node16&#45;&gt;Node19</title>
<g id="a_edge34_Node000016_Node000019"><a xlink:title=" ">
<path fill="none" stroke="#63b8ff" d="M621.87,-564.44C620.46,-539.07 618.06,-496.17 616.81,-473.8"/>
<polygon fill="#63b8ff" stroke="#63b8ff" points="618.36,-564.31 622.41,-574.1 625.35,-563.92 618.36,-564.31"/>
</a>
</g>
</g>
<!-- Node20 -->
<g id="Node000020" class="node">
<title>Node20</title>
<g id="a_Node000020"><a xlink:href="../../de/dd1/_global_reporter_8hpp.html" target="_top" xlink:title=" ">
<polygon fill="white" stroke="#666666" points="678.75,-407 553.25,-407 553.25,-376.5 678.75,-376.5 678.75,-407"/>
<text text-anchor="start" x="561.25" y="-393.5" font-family="Helvetica,sans-Serif" font-size="10.00">mimic++/reporting/Global</text>
<text text-anchor="middle" x="616" y="-382.25" font-family="Helvetica,sans-Serif" font-size="10.00">Reporter.hpp</text>
</a>
</g>
</g>
<!-- Node16&#45;&gt;Node20 -->
<g id="edge46_Node000016_Node000020" class="edge">
<title>Node16&#45;&gt;Node20</title>
<g id="a_edge46_Node000016_Node000020"><a xlink:title=" ">
<path fill="none" stroke="#63b8ff" d="M605.53,-567.78C585.92,-547.54 555.27,-511.54 543,-473.5 538.84,-460.6 536.69,-455 543,-443 551.23,-427.34 566.8,-415.61 581.45,-407.44"/>
<polygon fill="#63b8ff" stroke="#63b8ff" points="602.8,-570 612.34,-574.61 607.76,-565.06 602.8,-570"/>
</a>
</g>
</g>
<!-- Node16&#45;&gt;Node23 -->
<g id="edge47_Node000016_Node000023" class="edge">
<title>Node16&#45;&gt;Node23</title>
<g id="a_edge47_Node000016_Node000023"><a xlink:title=" ">
<path fill="none" stroke="#63b8ff" d="M652.84,-570.68C672.33,-561.58 697.74,-549.7 717.55,-540.44"/>
<polygon fill="#63b8ff" stroke="#63b8ff" points="651.36,-567.51 643.78,-574.91 654.32,-573.85 651.36,-567.51"/>
</a>
</g>
</g>
<!-- Node17&#45;&gt;Node4 -->
<g id="edge31_Node000017_Node000004" class="edge">
<title>Node17&#45;&gt;Node4</title>
<g id="a_edge31_Node000017_Node000004"><a xlink:title=" ">
<path fill="none" stroke="#63b8ff" d="M893.62,-311.69C916.42,-304 941.95,-292.07 960,-274 987.52,-246.45 994,-232.19 994,-193.25 994,-193.25 994,-193.25 994,-124.75 994,-71.72 945.92,-75.73 897,-55.25 831.48,-27.82 749.83,-17.25 696.15,-13.18"/>
<polygon fill="#63b8ff" stroke="#63b8ff" points="892.63,-308.33 884.14,-314.67 894.73,-315.01 892.63,-308.33"/>
</a>
</g>
</g>
<!-- Node18&#45;&gt;Node17 -->
<g id="edge33_Node000018_Node000017" class="edge">
<title>Node18&#45;&gt;Node17</title>
<g id="a_edge33_Node000018_Node000017"><a xlink:title=" ">
<path fill="none" stroke="#63b8ff" d="M794.98,-437.89C806.82,-409.17 828.57,-356.41 837.26,-335.32"/>
<polygon fill="#63b8ff" stroke="#63b8ff" points="791.86,-436.27 791.29,-446.85 798.34,-438.94 791.86,-436.27"/>
</a>
</g>
</g>
<!-- Node19&#45;&gt;Node17 -->
<g id="edge35_Node000019_Node000017" class="edge">
<title>Node19&#45;&gt;Node17</title>
<g id="a_edge35_Node000019_Node000017"><a xlink:title=" ">
<path fill="none" stroke="#63b8ff" d="M650.59,-437.11C700.17,-408.24 789.42,-356.28 825.37,-335.35"/>
<polygon fill="#63b8ff" stroke="#63b8ff" points="649.13,-433.91 642.25,-441.97 652.65,-439.96 649.13,-433.91"/>
</a>
</g>
</g>
<!-- Node19&#45;&gt;Node20 -->
<g id="edge36_Node000019_Node000020" class="edge">
<title>Node19&#45;&gt;Node20</title>
<g id="a_edge36_Node000019_Node000020"><a xlink:title=" ">
<path fill="none" stroke="#63b8ff" d="M616,-431.31C616,-423.14 616,-414.41 616,-407.33"/>
<polygon fill="#63b8ff" stroke="#63b8ff" points="612.5,-431.1 616,-441.1 619.5,-431.1 612.5,-431.1"/>
</a>
</g>
</g>
<!-- Node20&#45;&gt;Node7 -->
<g id="edge37_Node000020_Node000007" class="edge">
<title>Node20&#45;&gt;Node7</title>
<g id="a_edge37_Node000020_Node000007"><a xlink:title=" ">
<path fill="none" stroke="#63b8ff" d="M595.88,-367.83C570.15,-338.52 526.79,-289.13 508.99,-268.85"/>
<polygon fill="#63b8ff" stroke="#63b8ff" points="593.03,-369.89 602.26,-375.09 598.29,-365.27 593.03,-369.89"/>
</a>
</g>
</g>
<!-- Node20&#45;&gt;Node17 -->
<g id="edge38_Node000020_Node000017" class="edge">
<title>Node20&#45;&gt;Node17</title>
<g id="a_edge38_Node000020_Node000017"><a xlink:title=" ">
<path fill="none" stroke="#63b8ff" d="M678.16,-372.93C720.72,-360.73 775.41,-345.05 809.32,-335.33"/>
<polygon fill="#63b8ff" stroke="#63b8ff" points="677.44,-369.5 668.79,-375.62 679.37,-376.22 677.44,-369.5"/>
</a>
</g>
</g>
<!-- Node21 -->
<g id="Node000021" class="node">
<title>Node21</title>
<g id="a_Node000021"><a xlink:href="../../d8/de4/_sequence_8hpp.html" target="_top" xlink:title=" ">
<polygon fill="white" stroke="#666666" points="703.38,-334.88 584.62,-334.88 584.62,-315.62 703.38,-315.62 703.38,-334.88"/>
<text text-anchor="middle" x="644" y="-321.38" font-family="Helvetica,sans-Serif" font-size="10.00">mimic++/Sequence.hpp</text>
</a>
</g>
</g>
<!-- Node20&#45;&gt;Node21 -->
<g id="edge39_Node000020_Node000021" class="edge">
<title>Node20&#45;&gt;Node21</title>
<g id="a_edge39_Node000020_Node000021"><a xlink:title=" ">
<path fill="none" stroke="#63b8ff" d="M626.81,-365.86C631.51,-355.01 636.73,-342.99 640.17,-335.07"/>
<polygon fill="#63b8ff" stroke="#63b8ff" points="623.73,-364.16 622.96,-374.73 630.15,-366.95 623.73,-364.16"/>
</a>
</g>
</g>
<!-- Node21&#45;&gt;Node4 -->
<g id="edge42_Node000021_Node000004" class="edge">
<title>Node21&#45;&gt;Node4</title>
<g id="a_edge42_Node000021_Node000004"><a xlink:title=" ">
<path fill="none" stroke="#63b8ff" d="M714.88,-316.22C796.36,-306.35 920.98,-289.07 937,-274 963.86,-248.74 956,-230.12 956,-193.25 956,-193.25 956,-193.25 956,-124.75 956,-70.13 787.31,-34.47 696.04,-19.17"/>
<polygon fill="#63b8ff" stroke="#63b8ff" points="714.7,-312.72 705.19,-317.38 715.54,-319.67 714.7,-312.72"/>
</a>
</g>
</g>
<!-- Node21&#45;&gt;Node7 -->
<g id="edge40_Node000021_Node000007" class="edge">
<title>Node21&#45;&gt;Node7</title>
<g id="a_edge40_Node000021_Node000007"><a xlink:title=" ">
<path fill="none" stroke="#63b8ff" d="M613.44,-310.46C585.54,-297.88 545.1,-279.64 521.08,-268.81"/>
<polygon fill="#63b8ff" stroke="#63b8ff" points="611.88,-313.6 622.44,-314.52 614.76,-307.22 611.88,-313.6"/>
</a>
</g>
</g>
<!-- Node21&#45;&gt;Node8 -->
<g id="edge41_Node000021_Node000008" class="edge">
<title>Node21&#45;&gt;Node8</title>
<g id="a_edge41_Node000021_Node000008"><a xlink:title=" ">
<path fill="none" stroke="#63b8ff" d="M671.54,-309.33C685.89,-300.51 702.91,-288.28 715,-274 734.01,-251.54 746.21,-218.23 751.29,-202.33"/>
<polygon fill="#63b8ff" stroke="#63b8ff" points="669.83,-306.28 662.98,-314.36 673.38,-312.31 669.83,-306.28"/>
</a>
</g>
</g>
<!-- Node22 -->
<g id="Node000022" class="node">
<title>Node22</title>
<g id="a_Node000022"><a xlink:href="../../db/d70/_control_policies_8hpp.html" target="_top" xlink:title=" ">
<polygon fill="white" stroke="#666666" points="706,-274 582,-274 582,-243.5 706,-243.5 706,-274"/>
<text text-anchor="start" x="590" y="-260.5" font-family="Helvetica,sans-Serif" font-size="10.00">mimic++/policies/Control</text>
<text text-anchor="middle" x="644" y="-249.25" font-family="Helvetica,sans-Serif" font-size="10.00">Policies.hpp</text>
</a>
</g>
</g>
<!-- Node21&#45;&gt;Node22 -->
<g id="edge43_Node000021_Node000022" class="edge">
<title>Node21&#45;&gt;Node22</title>
<g id="a_edge43_Node000021_Node000022"><a xlink:title=" ">
<path fill="none" stroke="#63b8ff" d="M644,-303.87C644,-294.19 644,-282.85 644,-274.09"/>
<polygon fill="#63b8ff" stroke="#63b8ff" points="640.5,-303.77 644,-313.77 647.5,-303.77 640.5,-303.77"/>
</a>
</g>
</g>
<!-- Node22&#45;&gt;Node4 -->
<g id="edge45_Node000022_Node000004" class="edge">
<title>Node22&#45;&gt;Node4</title>
<g id="a_edge45_Node000022_Node000004"><a xlink:title=" ">
<path fill="none" stroke="#63b8ff" d="M649.97,-232.49C654.08,-216.38 660.04,-195.18 667,-177 687.92,-122.37 746.35,-105.85 717,-55.25 706.82,-37.71 686.87,-26.47 669.69,-19.66"/>
<polygon fill="#63b8ff" stroke="#63b8ff" points="646.69,-231.19 647.68,-241.74 653.48,-232.87 646.69,-231.19"/>
</a>
</g>
</g>
<!-- Node22&#45;&gt;Node8 -->
<g id="edge44_Node000022_Node000008" class="edge">
<title>Node22&#45;&gt;Node8</title>
<g id="a_edge44_Node000022_Node000008"><a xlink:title=" ">
<path fill="none" stroke="#63b8ff" d="M678.74,-237.38C698.86,-225.58 723.19,-211.31 738.63,-202.26"/>
<polygon fill="#63b8ff" stroke="#63b8ff" points="677.12,-234.27 670.27,-242.35 680.66,-240.31 677.12,-234.27"/>
</a>
</g>
</g>
<!-- Node23&#45;&gt;Node17 -->
<g id="edge48_Node000023_Node000017" class="edge">
<title>Node23&#45;&gt;Node17</title>
<g id="a_edge48_Node000023_Node000017"><a xlink:title=" ">
<path fill="none" stroke="#63b8ff" d="M826.83,-512.3C849.3,-504.98 871.4,-493.02 885,-473.5 916.72,-427.96 867.85,-359.22 848.41,-335.04"/>
<polygon fill="#63b8ff" stroke="#63b8ff" points="825.87,-508.93 817.26,-515.1 827.84,-515.65 825.87,-508.93"/>
</a>
</g>
</g>
<!-- Node23&#45;&gt;Node18 -->
<g id="edge49_Node000023_Node000018" class="edge">
<title>Node23&#45;&gt;Node18</title>
<g id="a_edge49_Node000023_Node000018"><a xlink:title=" ">
<path fill="none" stroke="#63b8ff" d="M763.27,-499.53C769.76,-488.51 777.04,-476.16 781.8,-468.07"/>
<polygon fill="#63b8ff" stroke="#63b8ff" points="760.45,-497.42 758.39,-507.81 766.48,-500.97 760.45,-497.42"/>
</a>
</g>
</g>
<!-- Node23&#45;&gt;Node19 -->
<g id="edge50_Node000023_Node000019" class="edge">
<title>Node23&#45;&gt;Node19</title>
<g id="a_edge50_Node000023_Node000019"><a xlink:title=" ">
<path fill="none" stroke="#63b8ff" d="M708.68,-504.2C688.53,-494.43 664.57,-482.81 646.06,-473.83"/>
<polygon fill="#63b8ff" stroke="#63b8ff" points="706.93,-507.24 717.46,-508.45 709.99,-500.94 706.93,-507.24"/>
</a>
</g>
</g>
<!-- Node24&#45;&gt;Node4 -->
<g id="edge63_Node000024_Node000004" class="edge">
<title>Node24&#45;&gt;Node4</title>
<g id="a_edge63_Node000024_Node000004"><a xlink:title=" ">
<path fill="none" stroke="#63b8ff" d="M1212.41,-305.05C1256.85,-284.73 1314,-247.96 1314,-193.25 1314,-193.25 1314,-193.25 1314,-124.75 1314,-77.83 1588.42,-149.35 1117,-55.25 967.02,-25.31 786.45,-15.36 696.21,-12.13"/>
<polygon fill="#63b8ff" stroke="#63b8ff" points="1211.14,-301.79 1203.39,-309.01 1213.95,-308.2 1211.14,-301.79"/>
</a>
</g>
</g>
<!-- Node24&#45;&gt;Node8 -->
<g id="edge55_Node000024_Node000008" class="edge">
<title>Node24&#45;&gt;Node8</title>
<g id="a_edge55_Node000024_Node000008"><a xlink:title=" ">
<path fill="none" stroke="#63b8ff" d="M1082.11,-322.3C987.43,-318.48 835.78,-307.21 791,-274 767.09,-256.27 758.2,-219.38 755.28,-202.29"/>
<polygon fill="#63b8ff" stroke="#63b8ff" points="1081.73,-325.78 1091.85,-322.67 1081.99,-318.79 1081.73,-325.78"/>
</a>
</g>
</g>
<!-- Node25 -->
<g id="Node000025" class="node">
<title>Node25</title>
<g id="a_Node000025"><a xlink:href="../../d1/de0/_floating_point_matchers_8hpp.html" target="_top" xlink:title=" ">
<polygon fill="white" stroke="#666666" points="1219.62,-207.5 1084.38,-207.5 1084.38,-177 1219.62,-177 1219.62,-207.5"/>
<text text-anchor="start" x="1092.38" y="-194" font-family="Helvetica,sans-Serif" font-size="10.00">mimic++/matchers/Floating</text>
<text text-anchor="middle" x="1152" y="-182.75" font-family="Helvetica,sans-Serif" font-size="10.00">PointMatchers.hpp</text>
</a>
</g>
</g>
<!-- Node24&#45;&gt;Node25 -->
<g id="edge56_Node000024_Node000025" class="edge">
<title>Node24&#45;&gt;Node25</title>
<g id="a_edge56_Node000024_Node000025"><a xlink:title=" ">
<path fill="none" stroke="#63b8ff" d="M1193.02,-302.36C1201.82,-294.54 1210.25,-284.92 1215,-274 1220.41,-261.57 1220.88,-255.71 1215,-243.5 1207.72,-228.37 1193.42,-216.39 1180.28,-207.92"/>
<polygon fill="#63b8ff" stroke="#63b8ff" points="1190.91,-299.56 1185.38,-308.6 1195.34,-304.98 1190.91,-299.56"/>
</a>
</g>
</g>
<!-- Node26 -->
<g id="Node000026" class="node">
<title>Node26</title>
<g id="a_Node000026"><a xlink:href="../../df/df3/_range_matchers_8hpp.html" target="_top" xlink:title=" ">
<polygon fill="white" stroke="#666666" points="1285.5,-135.38 1098.5,-135.38 1098.5,-116.12 1285.5,-116.12 1285.5,-135.38"/>
<text text-anchor="middle" x="1192" y="-121.88" font-family="Helvetica,sans-Serif" font-size="10.00">mimic++/matchers/RangeMatchers.hpp</text>
</a>
</g>
</g>
<!-- Node24&#45;&gt;Node26 -->
<g id="edge58_Node000024_Node000026" class="edge">
<title>Node24&#45;&gt;Node26</title>
<g id="a_edge58_Node000024_Node000026"><a xlink:title=" ">
<path fill="none" stroke="#63b8ff" d="M1202.86,-303.73C1214.05,-296.05 1224.76,-286.17 1231,-274 1236.67,-262.96 1238.29,-203.9 1229,-177 1223.34,-160.61 1210.3,-145.08 1201.32,-135.74"/>
<polygon fill="#63b8ff" stroke="#63b8ff" points="1201.31,-300.57 1194.71,-308.86 1205.04,-306.49 1201.31,-300.57"/>
</a>
</g>
</g>
<!-- Node24&#45;&gt;Node27 -->
<g id="edge60_Node000024_Node000027" class="edge">
<title>Node24&#45;&gt;Node27</title>
<g id="a_edge60_Node000024_Node000027"><a xlink:title=" ">
<path fill="none" stroke="#63b8ff" d="M1143.6,-300.37C1135.51,-289.27 1126.38,-276.74 1120.43,-268.57"/>
<polygon fill="#63b8ff" stroke="#63b8ff" points="1140.73,-302.37 1149.44,-308.39 1146.38,-298.25 1140.73,-302.37"/>
</a>
</g>
</g>
<!-- Node25&#45;&gt;Node4 -->
<g id="edge57_Node000025_Node000004" class="edge">
<title>Node25&#45;&gt;Node4</title>
<g id="a_edge57_Node000025_Node000004"><a xlink:title=" ">
<path fill="none" stroke="#63b8ff" d="M1120.65,-169.94C1110.05,-161.73 1098.71,-151.73 1090,-141 1063,-107.74 1081.28,-79.54 1046,-55.25 990.53,-17.06 794.16,-10.96 695.89,-10.36"/>
<polygon fill="#63b8ff" stroke="#63b8ff" points="1118.35,-172.6 1128.47,-175.76 1122.53,-166.98 1118.35,-172.6"/>
</a>
</g>
</g>
<!-- Node26&#45;&gt;Node4 -->
<g id="edge59_Node000026_Node000004" class="edge">
<title>Node26&#45;&gt;Node4</title>
<g id="a_edge59_Node000026_Node000004"><a xlink:title=" ">
<path fill="none" stroke="#63b8ff" d="M1173.24,-108.69C1152.78,-92.18 1118.35,-67.24 1084,-55.25 1013.81,-30.75 799.62,-17.93 696.14,-13.03"/>
<polygon fill="#63b8ff" stroke="#63b8ff" points="1170.75,-111.17 1180.69,-114.85 1175.21,-105.78 1170.75,-111.17"/>
</a>
</g>
</g>
<!-- Node27&#45;&gt;Node4 -->
<g id="edge62_Node000027_Node000004" class="edge">
<title>Node27&#45;&gt;Node4</title>
<g id="a_edge62_Node000027_Node000004"><a xlink:title=" ">
<path fill="none" stroke="#63b8ff" d="M1098.74,-240.31C1091.03,-230.97 1081.88,-219.05 1075,-207.5 1037.16,-143.99 1067.37,-99.3 1008,-55.25 959.87,-19.54 787.31,-12.16 696.24,-10.79"/>
<polygon fill="#63b8ff" stroke="#63b8ff" points="1095.98,-242.46 1105.12,-247.82 1101.32,-237.93 1095.98,-242.46"/>
</a>
</g>
</g>
<!-- Node27&#45;&gt;Node8 -->
<g id="edge61_Node000027_Node000008" class="edge">
<title>Node27&#45;&gt;Node8</title>
<g id="a_edge61_Node000027_Node000008"><a xlink:title=" ">
<path fill="none" stroke="#63b8ff" d="M1051.92,-246.63C982.02,-234.1 869.76,-213.99 804.85,-202.36"/>
<polygon fill="#63b8ff" stroke="#63b8ff" points="1051.23,-250.06 1061.69,-248.38 1052.47,-243.17 1051.23,-250.06"/>
</a>
</g>
</g>
<!-- Node28&#45;&gt;Node4 -->
<g id="edge68_Node000028_Node000004" class="edge">
<title>Node28&#45;&gt;Node4</title>
<g id="a_edge68_Node000028_Node000004"><a xlink:title=" ">
<path fill="none" stroke="#63b8ff" d="M868.2,-231.98C869.83,-215.76 870.07,-194.64 864,-177 841.67,-112.1 824.88,-95.1 769,-55.25 744.23,-37.59 711.88,-26.45 685.66,-19.72"/>
<polygon fill="#63b8ff" stroke="#63b8ff" points="864.74,-231.42 866.95,-241.78 871.68,-232.3 864.74,-231.42"/>
</a>
</g>
</g>
<!-- Node28&#45;&gt;Node8 -->
<g id="edge66_Node000028_Node000008" class="edge">
<title>Node28&#45;&gt;Node8</title>
<g id="a_edge66_Node000028_Node000008"><a xlink:title=" ">
<path fill="none" stroke="#63b8ff" d="M829.26,-237.38C809.14,-225.58 784.81,-211.31 769.37,-202.26"/>
<polygon fill="#63b8ff" stroke="#63b8ff" points="827.34,-240.31 837.73,-242.35 830.88,-234.27 827.34,-240.31"/>
</a>
</g>
</g>
<!-- Node28&#45;&gt;Node9 -->
<g id="edge67_Node000028_Node000009" class="edge">
<title>Node28&#45;&gt;Node9</title>
<g id="a_edge67_Node000028_Node000009"><a xlink:title=" ">
<path fill="none" stroke="#63b8ff" d="M863.53,-231.61C861.74,-213.63 856.31,-190.62 841,-177 803.37,-143.53 658.6,-132.2 580.93,-128.48"/>
<polygon fill="#63b8ff" stroke="#63b8ff" points="860.03,-231.81 864.16,-241.56 867.02,-231.36 860.03,-231.81"/>
</a>
</g>
</g>
</g>
</svg>

<g id="navigator" transform="translate(0 0)" fill="#404254">
  <rect fill="#f2f5e9" fill-opacity="0.5" stroke="#606060" stroke-width=".5" x="0" y="0" width="60" height="60"/>
  <use id="zoomplus" xlink:href="#zoomPlus" x="17" y="9" onmousedown="handleZoom(evt,'in')"/>
  <use id="zoomminus" xlink:href="#zoomMin" x="42" y="9" onmousedown="handleZoom(evt,'out')"/>
  <use id="reset" xlink:href="#resetDef" x="30" y="36" onmousedown="handleReset()"/>
   <use id="arrowup" xlink:href="#arrowUp" x="0" y="0" onmousedown="handlePan(0,-1)"/>
  <use id="arrowright" xlink:href="#arrowRight" x="0" y="0" onmousedown="handlePan(1,0)"/>
  <use id="arrowdown" xlink:href="#arrowDown" x="0" y="0" onmousedown="handlePan(0,1)"/>
  <use id="arrowleft" xlink:href="#arrowLeft" x="0" y="0" onmousedown="handlePan(-1,0)"/>
</g>
<svg viewBox="0 0 15 15" width="100%" height="30px" preserveAspectRatio="xMaxYMin meet">
 <g id="arrow_out" transform="scale(0.3 0.3)">
  <a xlink:href="state_2_common_types_8hpp__dep__incl_org.svg" target="_base">
   <rect id="button" ry="5" rx="5" y="6" x="6" height="38" width="38"
        fill="#f2f5e9" fill-opacity="0.5" stroke="#606060" stroke-width="1.0"/>
   <path id="arrow"
     d="M 11.500037,31.436501 C 11.940474,20.09759 22.043105,11.32322 32.158766,21.979434 L 37.068811,17.246167 C 37.068811,17.246167 37.088388,32 37.088388,32 L 22.160133,31.978069 C 22.160133,31.978069 26.997745,27.140456 26.997745,27.140456 C 18.528582,18.264221 13.291696,25.230495 11.500037,31.436501 z"
     style="fill:#404040;"/>
  </a>
 </g>
</svg>

<style type='text/css'>
<![CDATA[
[data-mouse-over-selected='false'] { opacity: 0.7; }
[data-mouse-over-selected='true']  { opacity: 1.0; }
]]>
</style>
<script type="application/ecmascript"><![CDATA[
document.addEventListener('DOMContentLoaded', (event) => {
  highlightEdges();
  highlightAdjacentNodes();
});
]]></script>
</svg>
