<?xml version="1.0" encoding="UTF-8" standalone="no"?>
<!DOCTYPE svg PUBLIC "-//W3C//DTD SVG 1.1//EN"
 "http://www.w3.org/Graphics/SVG/1.1/DTD/svg11.dtd">
<!-- Generated by graphviz version 12.1.2 (20240928.0832)
 -->
<!-- Title: type&#45;traits Pages: 1 -->
<svg width="240pt" height="360pt"
 viewBox="0.00 0.00 240.25 360.25" xmlns="http://www.w3.org/2000/svg" xmlns:xlink="http://www.w3.org/1999/xlink">
<g id="graph0" class="graph" transform="scale(1 1) rotate(0) translate(4 356.25)">
<title>type&#45;traits</title>
<!-- Node1 -->
<g id="Node000001" class="node">
<title>Node1</title>
<g id="a_Node000001"><a xlink:title="Contains various type&#45;traits.">
<polygon fill="#999999" stroke="#666666" points="58.75,-185.25 0,-185.25 0,-166 58.75,-166 58.75,-185.25"/>
<text text-anchor="middle" x="29.38" y="-171.75" font-family="Helvetica,sans-Serif" font-size="10.00">type&#45;traits</text>
</a>
</g>
</g>
<!-- Node2 -->
<g id="Node000002" class="node">
<title>Node2</title>
<g id="a_Node000002"><a xlink:href="../../dc/d26/group___t_y_p_e___t_r_a_i_t_s___i_s___c_h_a_r_a_c_t_e_r.html" target="_top" xlink:title="Type&#45;trait, which determines, whether the given type is a character&#45;type.">
<polygon fill="white" stroke="#666666" points="198.12,-352.25 128.88,-352.25 128.88,-333 198.12,-333 198.12,-352.25"/>
<text text-anchor="middle" x="163.5" y="-338.75" font-family="Helvetica,sans-Serif" font-size="10.00">is_character</text>
</a>
</g>
</g>
<!-- Node1&#45;&gt;Node2 -->
<g id="edge1" class="edge">
<title>Node1&#45;&gt;Node2</title>
<path fill="none" stroke="black" d="M33.59,-196.99C39.62,-229.46 55.74,-291.01 94.75,-324.62 104.15,-332.73 116.82,-337.23 128.65,-339.72"/>
<polygon fill="black" stroke="black" points="37.06,-196.5 31.94,-187.22 30.15,-197.66 37.06,-196.5"/>
</g>
<!-- Node4 -->
<g id="Node000004" class="node">
<title>Node4</title>
<g id="a_Node000004"><a xlink:href="../../d1/d9e/group___t_y_p_e___t_r_a_i_t_s___i_s___o_v_e_r_l_o_a_d_a_b_l_e___w_i_t_h.html" target="_top" xlink:title="Determines, whether two signatures are valid overloads.">
<polygon fill="white" stroke="#666666" points="216.88,-315.25 110.12,-315.25 110.12,-296 216.88,-296 216.88,-315.25"/>
<text text-anchor="middle" x="163.5" y="-301.75" font-family="Helvetica,sans-Serif" font-size="10.00">is_overloadable_with</text>
</a>
</g>
</g>
<!-- Node1&#45;&gt;Node4 -->
<g id="edge3" class="edge">
<title>Node1&#45;&gt;Node4</title>
<path fill="none" stroke="black" d="M36.75,-196.36C45.63,-221.72 64.17,-264.16 94.75,-287.62 99.29,-291.11 104.44,-293.92 109.84,-296.18"/>
<polygon fill="black" stroke="black" points="40.08,-195.28 33.63,-186.88 33.43,-197.47 40.08,-195.28"/>
</g>
<!-- Node3 -->
<g id="Node000003" class="node">
<title>Node3</title>
<g id="a_Node000003"><a xlink:href="../../df/dc6/group___t_y_p_e___t_r_a_i_t_s___i_s___o_v_e_r_l_o_a_d___s_e_t.html" target="_top" xlink:title="Determines, whether a list of signatures form a valid overloads&#45;set.">
<polygon fill="white" stroke="#666666" points="205.62,-278.25 121.38,-278.25 121.38,-259 205.62,-259 205.62,-278.25"/>
<text text-anchor="middle" x="163.5" y="-264.75" font-family="Helvetica,sans-Serif" font-size="10.00">is_overload_set</text>
</a>
</g>
</g>
<!-- Node1&#45;&gt;Node3 -->
<g id="edge2" class="edge">
<title>Node1&#45;&gt;Node3</title>
<path fill="none" stroke="black" d="M42.22,-195.15C53.61,-212.28 72.36,-236.57 94.75,-250.62 102.69,-255.61 111.98,-259.22 121.09,-261.84"/>
<polygon fill="black" stroke="black" points="45.26,-193.4 36.93,-186.85 39.36,-197.17 45.26,-193.4"/>
</g>
<!-- Node5 -->
<g id="Node000005" class="node">
<title>Node5</title>
<g id="a_Node000005"><a xlink:href="../../de/d03/group___t_y_p_e___t_r_a_i_t_s___s_i_g_n_a_t_u_r_e___a_d_d___n_o_e_x_c_e_p_t.html" target="_top" xlink:title="Adds the noexcept specification to a signature.">
<polygon fill="white" stroke="#666666" points="224,-241.25 103,-241.25 103,-222 224,-222 224,-241.25"/>
<text text-anchor="middle" x="163.5" y="-227.75" font-family="Helvetica,sans-Serif" font-size="10.00">signature_add_noexcept</text>
</a>
</g>
</g>
<!-- Node1&#45;&gt;Node5 -->
<g id="edge4" class="edge">
<title>Node1&#45;&gt;Node5</title>
<path fill="none" stroke="black" d="M54.38,-191.92C66.15,-199.35 80.77,-207.77 94.75,-213.62 101.93,-216.63 109.76,-219.26 117.46,-221.51"/>
<polygon fill="black" stroke="black" points="56.42,-189.08 46.13,-186.56 52.61,-194.95 56.42,-189.08"/>
</g>
<!-- Node6 -->
<g id="Node000006" class="node">
<title>Node6</title>
<g id="a_Node000006"><a xlink:href="../../d6/da6/group___t_y_p_e___t_r_a_i_t_s___s_i_g_n_a_t_u_r_e___d_e_c_a_y.html" target="_top" xlink:title="Removes all specifications from the given signature.">
<polygon fill="white" stroke="#666666" points="206.75,-204.25 120.25,-204.25 120.25,-185 206.75,-185 206.75,-204.25"/>
<text text-anchor="middle" x="163.5" y="-190.75" font-family="Helvetica,sans-Serif" font-size="10.00">signature_decay</text>
</a>
</g>
</g>
<!-- Node1&#45;&gt;Node6 -->
<g id="edge5" class="edge">
<title>Node1&#45;&gt;Node6</title>
<path fill="none" stroke="black" d="M70,-181.32C85.72,-183.58 103.82,-186.19 119.83,-188.49"/>
<polygon fill="black" stroke="black" points="70.94,-177.92 60.54,-179.96 69.94,-184.85 70.94,-177.92"/>
</g>
<!-- Node7 -->
<g id="Node000007" class="node">
<title>Node7</title>
<g id="a_Node000007"><a xlink:href="../../d3/dce/group___t_y_p_e___t_r_a_i_t_s___s_i_g_n_a_t_u_r_e___p_a_r_a_m___l_i_s_t.html" target="_top" xlink:title="Extracts all param types from a given signature (packed into a std::tuple).">
<polygon fill="white" stroke="#666666" points="216.5,-167.25 110.5,-167.25 110.5,-148 216.5,-148 216.5,-167.25"/>
<text text-anchor="middle" x="163.5" y="-153.75" font-family="Helvetica,sans-Serif" font-size="10.00">signature_param_list</text>
</a>
</g>
</g>
<!-- Node1&#45;&gt;Node7 -->
<g id="edge6" class="edge">
<title>Node1&#45;&gt;Node7</title>
<path fill="none" stroke="black" d="M70.12,-170.21C82.72,-168.49 96.84,-166.57 110.18,-164.75"/>
<polygon fill="black" stroke="black" points="69.98,-166.7 60.54,-171.51 70.92,-173.63 69.98,-166.7"/>
</g>
<!-- Node8 -->
<g id="Node000008" class="node">
<title>Node8</title>
<g id="a_Node000008"><a xlink:href="../../dd/df9/group___t_y_p_e___t_r_a_i_t_s___s_i_g_n_a_t_u_r_e___p_a_r_a_m___t_y_p_e.html" target="_top" xlink:title="Extracts the ith param type from a given signature.">
<polygon fill="white" stroke="#666666" points="219.12,-130.25 107.88,-130.25 107.88,-111 219.12,-111 219.12,-130.25"/>
<text text-anchor="middle" x="163.5" y="-116.75" font-family="Helvetica,sans-Serif" font-size="10.00">signature_param_type</text>
</a>
</g>
</g>
<!-- Node1&#45;&gt;Node8 -->
<g id="edge7" class="edge">
<title>Node1&#45;&gt;Node8</title>
<path fill="none" stroke="black" d="M54.67,-159.64C66.41,-152.45 80.92,-144.32 94.75,-138.62 102.06,-135.61 110.03,-132.97 117.85,-130.7"/>
<polygon fill="black" stroke="black" points="53.03,-156.54 46.43,-164.83 56.76,-162.46 53.03,-156.54"/>
</g>
<!-- Node9 -->
<g id="Node000009" class="node">
<title>Node9</title>
<g id="a_Node000009"><a xlink:href="../../d0/d91/group___t_y_p_e___t_r_a_i_t_s___s_i_g_n_a_t_u_r_e___r_e_m_o_v_e___n_o_e_x_c_e_p_t.html" target="_top" xlink:title="Removes the noexcept specification to a signature (if present).">
<polygon fill="white" stroke="#666666" points="232.25,-93.25 94.75,-93.25 94.75,-74 232.25,-74 232.25,-93.25"/>
<text text-anchor="middle" x="163.5" y="-79.75" font-family="Helvetica,sans-Serif" font-size="10.00">signature_remove_noexcept</text>
</a>
</g>
</g>
<!-- Node1&#45;&gt;Node9 -->
<g id="edge8" class="edge">
<title>Node1&#45;&gt;Node9</title>
<path fill="none" stroke="black" d="M42.47,-156.09C53.91,-139.21 72.61,-115.42 94.75,-101.62 99.81,-98.47 105.42,-95.87 111.17,-93.71"/>
<polygon fill="black" stroke="black" points="39.66,-153.99 37.14,-164.28 45.52,-157.81 39.66,-153.99"/>
</g>
<!-- Node10 -->
<g id="Node000010" class="node">
<title>Node10</title>
<g id="a_Node000010"><a xlink:href="../../d0/d3b/group___t_y_p_e___t_r_a_i_t_s___s_i_g_n_a_t_u_r_e___r_e_t_u_r_n___t_y_p_e.html" target="_top" xlink:title="Extracts the return type from a given signature.">
<polygon fill="white" stroke="#666666" points="218,-56.25 109,-56.25 109,-37 218,-37 218,-56.25"/>
<text text-anchor="middle" x="163.5" y="-42.75" font-family="Helvetica,sans-Serif" font-size="10.00">signature_return_type</text>
</a>
</g>
</g>
<!-- Node1&#45;&gt;Node10 -->
<g id="edge9" class="edge">
<title>Node1&#45;&gt;Node10</title>
<path fill="none" stroke="black" d="M36.94,-154.7C45.92,-129.52 64.48,-87.76 94.75,-64.62 99,-61.37 103.8,-58.71 108.82,-56.52"/>
<polygon fill="black" stroke="black" points="33.64,-153.54 33.77,-164.14 40.27,-155.77 33.64,-153.54"/>
</g>
<!-- Node11 -->
<g id="Node000011" class="node">
<title>Node11</title>
<g id="a_Node000011"><a xlink:href="../../da/df3/group___t_y_p_e___t_r_a_i_t_s___s_t_r_i_n_g___t_r_a_i_t_s.html" target="_top" xlink:title="Type&#45;trait, which contains properties for the provided string type.">
<polygon fill="white" stroke="#666666" points="197,-19.25 130,-19.25 130,0 197,0 197,-19.25"/>
<text text-anchor="middle" x="163.5" y="-5.75" font-family="Helvetica,sans-Serif" font-size="10.00">string_traits</text>
</a>
</g>
</g>
<!-- Node1&#45;&gt;Node11 -->
<g id="edge10" class="edge">
<title>Node1&#45;&gt;Node11</title>
<path fill="none" stroke="black" d="M33.63,-154.4C39.72,-122.14 55.92,-61.01 94.75,-27.62 104.44,-19.29 117.58,-14.77 129.71,-12.33"/>
<polygon fill="black" stroke="black" points="30.21,-153.65 31.97,-164.1 37.11,-154.83 30.21,-153.65"/>
</g>
</g>
</svg>
