<?xml version="1.0" encoding="UTF-8" standalone="no"?>
<!DOCTYPE svg PUBLIC "-//W3C//DTD SVG 1.1//EN"
 "http://www.w3.org/Graphics/SVG/1.1/DTD/svg11.dtd">
<!-- Generated by graphviz version 12.1.2 (20240928.0832)
 -->
<!-- Title: type&#45;traits Pages: 1 -->
<svg width="240pt" height="434pt"
 viewBox="0.00 0.00 240.25 434.25" xmlns="http://www.w3.org/2000/svg" xmlns:xlink="http://www.w3.org/1999/xlink">

<svg id="main" version="1.1" xmlns="http://www.w3.org/2000/svg" xmlns:xlink="http://www.w3.org/1999/xlink" xml:space="preserve">

<style type="text/css"><![CDATA[
.node, .edge {opacity: 0.7;}
.node.selected, .edge.selected {opacity: 1;}
.edge:hover path { stroke: red; }
.edge:hover polygon { stroke: red; fill: red; }
]]></style>
<script type="application/ecmascript" xlink:href="../../svg.min.js"/>
<svg id="graph" class="graph">
<g id="graph0" class="graph" transform="scale(1 1) rotate(0) translate(4 430.25)">
<title>type&#45;traits</title>
<!-- Node1 -->
<g id="Node000001" class="node">
<title>Node1</title>
<g id="a_Node000001"><a xlink:title="Contains various type&#45;traits.">
<polygon fill="#999999" stroke="#666666" points="58.75,-222.25 0,-222.25 0,-203 58.75,-203 58.75,-222.25"/>
<text text-anchor="middle" x="29.38" y="-208.75" font-family="Helvetica,sans-Serif" font-size="10.00">type&#45;traits</text>
</a>
</g>
</g>
<!-- Node2 -->
<g id="Node000002" class="node">
<title>Node2</title>
<g id="a_Node000002"><a xlink:href="../../dc/d26/group___t_y_p_e___t_r_a_i_t_s___i_s___c_h_a_r_a_c_t_e_r.html" target="_top" xlink:title="Type&#45;trait, which determines, whether the given type is a character&#45;type.">
<polygon fill="white" stroke="#666666" points="198.12,-426.25 128.88,-426.25 128.88,-407 198.12,-407 198.12,-426.25"/>
<text text-anchor="middle" x="163.5" y="-412.75" font-family="Helvetica,sans-Serif" font-size="10.00">is_character</text>
</a>
</g>
</g>
<!-- Node1&#45;&gt;Node2 -->
<g id="edge1" class="edge">
<title>Node1&#45;&gt;Node2</title>
<path fill="none" stroke="black" d="M31.45,-233.7C34.59,-272.21 46.84,-354.12 94.75,-398.62 103.93,-407.16 116.69,-411.74 128.67,-414.16"/>
<polygon fill="black" stroke="black" points="34.96,-233.67 30.8,-223.92 27.97,-234.13 34.96,-233.67"/>
</g>
<!-- Node4 -->
<g id="Node000004" class="node">
<title>Node4</title>
<g id="a_Node000004"><a xlink:href="../../d1/d9e/group___t_y_p_e___t_r_a_i_t_s___i_s___o_v_e_r_l_o_a_d_a_b_l_e___w_i_t_h.html" target="_top" xlink:title="Determines, whether two signatures are valid overloads.">
<polygon fill="white" stroke="#666666" points="216.88,-389.25 110.12,-389.25 110.12,-370 216.88,-370 216.88,-389.25"/>
<text text-anchor="middle" x="163.5" y="-375.75" font-family="Helvetica,sans-Serif" font-size="10.00">is_overloadable_with</text>
</a>
</g>
</g>
<!-- Node1&#45;&gt;Node4 -->
<g id="edge3" class="edge">
<title>Node1&#45;&gt;Node4</title>
<path fill="none" stroke="black" d="M33.59,-233.99C39.62,-266.46 55.74,-328.01 94.75,-361.62 99.18,-365.44 104.32,-368.46 109.77,-370.84"/>
<polygon fill="black" stroke="black" points="37.06,-233.5 31.94,-224.22 30.15,-234.66 37.06,-233.5"/>
</g>
<!-- Node3 -->
<g id="Node000003" class="node">
<title>Node3</title>
<g id="a_Node000003"><a xlink:href="../../df/dc6/group___t_y_p_e___t_r_a_i_t_s___i_s___o_v_e_r_l_o_a_d___s_e_t.html" target="_top" xlink:title="Determines, whether a list of signatures form a valid overloads&#45;set.">
<polygon fill="white" stroke="#666666" points="205.62,-352.25 121.38,-352.25 121.38,-333 205.62,-333 205.62,-352.25"/>
<text text-anchor="middle" x="163.5" y="-338.75" font-family="Helvetica,sans-Serif" font-size="10.00">is_overload_set</text>
</a>
</g>
</g>
<!-- Node1&#45;&gt;Node3 -->
<g id="edge2" class="edge">
<title>Node1&#45;&gt;Node3</title>
<path fill="none" stroke="black" d="M36.75,-233.36C45.63,-258.72 64.17,-301.16 94.75,-324.62 102.38,-330.48 111.75,-334.43 121.06,-337.1"/>
<polygon fill="black" stroke="black" points="40.08,-232.28 33.63,-223.88 33.43,-234.47 40.08,-232.28"/>
</g>
<!-- Node5 -->
<g id="Node000005" class="node">
<title>Node5</title>
<g id="a_Node000005"><a xlink:href="../../de/d03/group___t_y_p_e___t_r_a_i_t_s___s_i_g_n_a_t_u_r_e___a_d_d___n_o_e_x_c_e_p_t.html" target="_top" xlink:title="Adds the noexcept specification to a signature.">
<polygon fill="white" stroke="#666666" points="224,-315.25 103,-315.25 103,-296 224,-296 224,-315.25"/>
<text text-anchor="middle" x="163.5" y="-301.75" font-family="Helvetica,sans-Serif" font-size="10.00">signature_add_noexcept</text>
</a>
</g>
</g>
<!-- Node1&#45;&gt;Node5 -->
<g id="edge4" class="edge">
<title>Node1&#45;&gt;Node5</title>
<path fill="none" stroke="black" d="M42.22,-232.15C53.61,-249.28 72.36,-273.57 94.75,-287.62 99.8,-290.8 105.4,-293.41 111.15,-295.57"/>
<polygon fill="black" stroke="black" points="45.26,-230.4 36.93,-223.85 39.36,-234.17 45.26,-230.4"/>
</g>
<!-- Node6 -->
<g id="Node000006" class="node">
<title>Node6</title>
<g id="a_Node000006"><a xlink:href="../../d6/da6/group___t_y_p_e___t_r_a_i_t_s___s_i_g_n_a_t_u_r_e___d_e_c_a_y.html" target="_top" xlink:title="Removes all specifications from the given signature.">
<polygon fill="white" stroke="#666666" points="206.75,-278.25 120.25,-278.25 120.25,-259 206.75,-259 206.75,-278.25"/>
<text text-anchor="middle" x="163.5" y="-264.75" font-family="Helvetica,sans-Serif" font-size="10.00">signature_decay</text>
</a>
</g>
</g>
<!-- Node1&#45;&gt;Node6 -->
<g id="edge5" class="edge">
<title>Node1&#45;&gt;Node6</title>
<path fill="none" stroke="black" d="M54.38,-228.92C66.15,-236.35 80.77,-244.77 94.75,-250.62 102.72,-253.96 111.48,-256.83 119.98,-259.24"/>
<polygon fill="black" stroke="black" points="56.42,-226.08 46.13,-223.56 52.61,-231.95 56.42,-226.08"/>
</g>
<!-- Node7 -->
<g id="Node000007" class="node">
<title>Node7</title>
<g id="a_Node000007"><a xlink:href="../../d3/dce/group___t_y_p_e___t_r_a_i_t_s___s_i_g_n_a_t_u_r_e___p_a_r_a_m___l_i_s_t.html" target="_top" xlink:title="Extracts all param types from a given signature (packed into a std::tuple).">
<polygon fill="white" stroke="#666666" points="216.5,-241.25 110.5,-241.25 110.5,-222 216.5,-222 216.5,-241.25"/>
<text text-anchor="middle" x="163.5" y="-227.75" font-family="Helvetica,sans-Serif" font-size="10.00">signature_param_list</text>
</a>
</g>
</g>
<!-- Node1&#45;&gt;Node7 -->
<g id="edge6" class="edge">
<title>Node1&#45;&gt;Node7</title>
<path fill="none" stroke="black" d="M70.12,-218.34C82.72,-220.15 96.84,-222.18 110.18,-224.1"/>
<polygon fill="black" stroke="black" points="70.94,-214.92 60.54,-216.96 69.94,-221.85 70.94,-214.92"/>
</g>
<!-- Node8 -->
<g id="Node000008" class="node">
<title>Node8</title>
<g id="a_Node000008"><a xlink:href="../../dd/df9/group___t_y_p_e___t_r_a_i_t_s___s_i_g_n_a_t_u_r_e___p_a_r_a_m___t_y_p_e.html" target="_top" xlink:title="Extracts the ith param type from a given signature.">
<polygon fill="white" stroke="#666666" points="219.12,-204.25 107.88,-204.25 107.88,-185 219.12,-185 219.12,-204.25"/>
<text text-anchor="middle" x="163.5" y="-190.75" font-family="Helvetica,sans-Serif" font-size="10.00">signature_param_type</text>
</a>
</g>
</g>
<!-- Node1&#45;&gt;Node8 -->
<g id="edge7" class="edge">
<title>Node1&#45;&gt;Node8</title>
<path fill="none" stroke="black" d="M70.26,-207.19C81.99,-205.59 95.03,-203.82 107.52,-202.12"/>
<polygon fill="black" stroke="black" points="69.98,-203.7 60.54,-208.51 70.92,-210.63 69.98,-203.7"/>
</g>
<!-- Node9 -->
<g id="Node000009" class="node">
<title>Node9</title>
<g id="a_Node000009"><a xlink:href="../../d0/d91/group___t_y_p_e___t_r_a_i_t_s___s_i_g_n_a_t_u_r_e___r_e_m_o_v_e___n_o_e_x_c_e_p_t.html" target="_top" xlink:title="Removes the noexcept specification to a signature (if present).">
<polygon fill="white" stroke="#666666" points="232.25,-167.25 94.75,-167.25 94.75,-148 232.25,-148 232.25,-167.25"/>
<text text-anchor="middle" x="163.5" y="-153.75" font-family="Helvetica,sans-Serif" font-size="10.00">signature_remove_noexcept</text>
</a>
</g>
</g>
<!-- Node1&#45;&gt;Node9 -->
<g id="edge8" class="edge">
<title>Node1&#45;&gt;Node9</title>
<path fill="none" stroke="black" d="M54.67,-196.64C66.41,-189.45 80.92,-181.32 94.75,-175.62 102.06,-172.61 110.03,-169.97 117.85,-167.7"/>
<polygon fill="black" stroke="black" points="53.03,-193.54 46.43,-201.83 56.76,-199.46 53.03,-193.54"/>
</g>
<!-- Node10 -->
<g id="Node000010" class="node">
<title>Node10</title>
<g id="a_Node000010"><a xlink:href="../../d0/d3b/group___t_y_p_e___t_r_a_i_t_s___s_i_g_n_a_t_u_r_e___r_e_t_u_r_n___t_y_p_e.html" target="_top" xlink:title="Extracts the return type from a given signature.">
<polygon fill="white" stroke="#666666" points="218,-130.25 109,-130.25 109,-111 218,-111 218,-130.25"/>
<text text-anchor="middle" x="163.5" y="-116.75" font-family="Helvetica,sans-Serif" font-size="10.00">signature_return_type</text>
</a>
</g>
</g>
<!-- Node1&#45;&gt;Node10 -->
<g id="edge9" class="edge">
<title>Node1&#45;&gt;Node10</title>
<path fill="none" stroke="black" d="M42.47,-193.09C53.91,-176.21 72.61,-152.42 94.75,-138.62 99.81,-135.47 105.42,-132.87 111.17,-130.71"/>
<polygon fill="black" stroke="black" points="39.66,-190.99 37.14,-201.28 45.52,-194.81 39.66,-190.99"/>
</g>
<!-- Node11 -->
<g id="Node000011" class="node">
<title>Node11</title>
<g id="a_Node000011"><a xlink:href="../../dc/d55/group___t_y_p_e___t_r_a_i_t_s___s_t_r_i_n_g___l_i_t_e_r_a_l___p_r_e_f_i_x.html" target="_top" xlink:title="Yields the printable prefix for any char&#45;type.">
<polygon fill="white" stroke="#666666" points="211.62,-93.25 115.38,-93.25 115.38,-74 211.62,-74 211.62,-93.25"/>
<text text-anchor="middle" x="163.5" y="-79.75" font-family="Helvetica,sans-Serif" font-size="10.00">string_literal_prefix</text>
</a>
</g>
</g>
<!-- Node1&#45;&gt;Node11 -->
<g id="edge10" class="edge">
<title>Node1&#45;&gt;Node11</title>
<path fill="none" stroke="black" d="M36.94,-191.7C45.92,-166.52 64.48,-124.76 94.75,-101.62 100.75,-97.04 107.81,-93.63 115.08,-91.08"/>
<polygon fill="black" stroke="black" points="33.64,-190.54 33.77,-201.14 40.27,-192.77 33.64,-190.54"/>
</g>
<!-- Node12 -->
<g id="Node000012" class="node">
<title>Node12</title>
<g id="a_Node000012"><a xlink:href="../../da/df3/group___t_y_p_e___t_r_a_i_t_s___s_t_r_i_n_g___t_r_a_i_t_s.html" target="_top" xlink:title="Type&#45;trait, which contains properties for the provided string type.">
<polygon fill="white" stroke="#666666" points="197,-56.25 130,-56.25 130,-37 197,-37 197,-56.25"/>
<text text-anchor="middle" x="163.5" y="-42.75" font-family="Helvetica,sans-Serif" font-size="10.00">string_traits</text>
</a>
</g>
</g>
<!-- Node1&#45;&gt;Node12 -->
<g id="edge11" class="edge">
<title>Node1&#45;&gt;Node12</title>
<path fill="none" stroke="black" d="M33.63,-191.4C39.72,-159.14 55.92,-98.01 94.75,-64.62 104.44,-56.29 117.58,-51.77 129.71,-49.33"/>
<polygon fill="black" stroke="black" points="30.21,-190.65 31.97,-201.1 37.11,-191.83 30.21,-190.65"/>
</g>
<!-- Node13 -->
<g id="Node000013" class="node">
<title>Node13</title>
<g id="a_Node000013"><a xlink:href="../../db/d34/group___t_y_p_e___t_r_a_i_t_s___u_i_n_t___w_i_t_h___s_i_z_e.html" target="_top" xlink:title="Provides the member alias type with the expected uint&#45;type.">
<polygon fill="white" stroke="#666666" points="202.25,-19.25 124.75,-19.25 124.75,0 202.25,0 202.25,-19.25"/>
<text text-anchor="middle" x="163.5" y="-5.75" font-family="Helvetica,sans-Serif" font-size="10.00">unit_with_size</text>
</a>
</g>
</g>
<!-- Node1&#45;&gt;Node13 -->
<g id="edge12" class="edge">
<title>Node1&#45;&gt;Node13</title>
<path fill="none" stroke="black" d="M31.51,-191.41C34.74,-153 47.14,-71.78 94.75,-27.62 102.87,-20.09 113.78,-15.64 124.47,-13.03"/>
<polygon fill="black" stroke="black" points="28.02,-191.16 30.82,-201.38 35,-191.64 28.02,-191.16"/>
</g>
</g>
</svg>
</svg>

<style type='text/css'>
<![CDATA[
[data-mouse-over-selected='false'] { opacity: 0.7; }
[data-mouse-over-selected='true']  { opacity: 1.0; }
]]>
</style>
<script type="application/ecmascript"><![CDATA[
document.addEventListener('DOMContentLoaded', (event) => {
  highlightEdges();
  highlightAdjacentNodes();
});
]]></script>
</svg>
