<?xml version="1.0" encoding="UTF-8" standalone="no"?>
<!DOCTYPE svg PUBLIC "-//W3C//DTD SVG 1.1//EN"
 "http://www.w3.org/Graphics/SVG/1.1/DTD/svg11.dtd">
<!-- Generated by graphviz version 12.2.1 (20241206.2353)
 -->
<!-- Title: type&#45;traits Pages: 1 -->
<svg width="258pt" height="631pt"
 viewBox="0.00 0.00 258.25 631.25" xmlns="http://www.w3.org/2000/svg" xmlns:xlink="http://www.w3.org/1999/xlink">
<g id="graph0" class="graph" transform="scale(1 1) rotate(0) translate(4 627.25)">
<title>type&#45;traits</title>
<!-- Node1 -->
<g id="Node000001" class="node">
<title>Node1</title>
<g id="a_Node000001"><a xlink:title="Contains various type&#45;traits.">
<polygon fill="#999999" stroke="#666666" points="58.75,-327.25 0,-327.25 0,-308 58.75,-308 58.75,-327.25"/>
<text text-anchor="middle" x="29.38" y="-313.75" font-family="Helvetica,sans-Serif" font-size="10.00">type&#45;traits</text>
</a>
</g>
</g>
<!-- Node2 -->
<g id="Node000002" class="node">
<title>Node2</title>
<g id="a_Node000002"><a xlink:href="../../dc/d26/group___t_y_p_e___t_r_a_i_t_s___i_s___c_h_a_r_a_c_t_e_r.html" target="_top" xlink:title="Type&#45;trait, which determines, whether the given type is a character&#45;type.">
<polygon fill="white" stroke="#666666" points="207.12,-623.25 137.88,-623.25 137.88,-604 207.12,-604 207.12,-623.25"/>
<text text-anchor="middle" x="172.5" y="-609.75" font-family="Helvetica,sans-Serif" font-size="10.00">is_character</text>
</a>
</g>
</g>
<!-- Node1&#45;&gt;Node2 -->
<g id="edge1" class="edge">
<title>Node1&#45;&gt;Node2</title>
<path fill="none" stroke="black" d="M32.42,-338.85C38.48,-397.36 58.25,-559.02 94.75,-595.62 105.86,-606.77 122.48,-611.53 137.41,-613.4"/>
<polygon fill="black" stroke="black" points="35.93,-338.84 31.46,-329.23 28.97,-339.53 35.93,-338.84"/>
</g>
<!-- Node4 -->
<g id="Node000004" class="node">
<title>Node4</title>
<g id="a_Node000004"><a xlink:href="../../d1/d9e/group___t_y_p_e___t_r_a_i_t_s___i_s___o_v_e_r_l_o_a_d_a_b_l_e___w_i_t_h.html" target="_top" xlink:title="Determines, whether two signatures are valid overloads.">
<polygon fill="white" stroke="#666666" points="225.88,-586.25 119.12,-586.25 119.12,-567 225.88,-567 225.88,-586.25"/>
<text text-anchor="middle" x="172.5" y="-572.75" font-family="Helvetica,sans-Serif" font-size="10.00">is_overloadable_with</text>
</a>
</g>
</g>
<!-- Node1&#45;&gt;Node4 -->
<g id="edge3" class="edge">
<title>Node1&#45;&gt;Node4</title>
<path fill="none" stroke="black" d="M33.22,-338.76C40.75,-391.65 62.87,-527.71 94.75,-558.62 101.43,-565.1 109.98,-569.41 118.93,-572.24"/>
<polygon fill="black" stroke="black" points="36.7,-338.4 31.86,-328.98 29.77,-339.36 36.7,-338.4"/>
</g>
<!-- Node3 -->
<g id="Node000003" class="node">
<title>Node3</title>
<g id="a_Node000003"><a xlink:href="../../df/dc6/group___t_y_p_e___t_r_a_i_t_s___i_s___o_v_e_r_l_o_a_d___s_e_t.html" target="_top" xlink:title="Determines, whether a list of signatures form a valid overloads&#45;set.">
<polygon fill="white" stroke="#666666" points="214.62,-549.25 130.38,-549.25 130.38,-530 214.62,-530 214.62,-549.25"/>
<text text-anchor="middle" x="172.5" y="-535.75" font-family="Helvetica,sans-Serif" font-size="10.00">is_overload_set</text>
</a>
</g>
</g>
<!-- Node1&#45;&gt;Node3 -->
<g id="edge2" class="edge">
<title>Node1&#45;&gt;Node3</title>
<path fill="none" stroke="black" d="M30.57,-338.83C32.15,-380.34 41.81,-472.53 94.75,-521.62 104.28,-530.47 117.31,-535.22 129.93,-537.71"/>
<polygon fill="black" stroke="black" points="34.07,-338.89 30.33,-328.98 27.07,-339.06 34.07,-338.89"/>
</g>
<!-- Node5 -->
<g id="Node000005" class="node">
<title>Node5</title>
<g id="a_Node000005"><a xlink:href="../../de/d03/group___t_y_p_e___t_r_a_i_t_s___s_i_g_n_a_t_u_r_e___a_d_d___n_o_e_x_c_e_p_t.html" target="_top" xlink:title="Adds the noexcept specification to a signature.">
<polygon fill="white" stroke="#666666" points="233,-512.25 112,-512.25 112,-493 233,-493 233,-512.25"/>
<text text-anchor="middle" x="172.5" y="-498.75" font-family="Helvetica,sans-Serif" font-size="10.00">signature_add_noexcept</text>
</a>
</g>
</g>
<!-- Node1&#45;&gt;Node5 -->
<g id="edge4" class="edge">
<title>Node1&#45;&gt;Node5</title>
<path fill="none" stroke="black" d="M32.33,-339.15C36.78,-374.92 50.93,-446.45 94.75,-484.62 99.7,-488.94 105.5,-492.27 111.64,-494.83"/>
<polygon fill="black" stroke="black" points="35.81,-338.78 31.26,-329.22 28.85,-339.53 35.81,-338.78"/>
</g>
<!-- Node6 -->
<g id="Node000006" class="node">
<title>Node6</title>
<g id="a_Node000006"><a xlink:href="../../da/dc2/group___t_y_p_e___t_r_a_i_t_s___s_i_g_n_a_t_u_r_e___c_o_n_s_t___q_u_a_l_i_f_i_c_a_t_i_o_n.html" target="_top" xlink:title="Determines the const&#45;qualification of the given signature.">
<polygon fill="white" stroke="#666666" points="243.12,-475.25 101.88,-475.25 101.88,-456 243.12,-456 243.12,-475.25"/>
<text text-anchor="middle" x="172.5" y="-461.75" font-family="Helvetica,sans-Serif" font-size="10.00">signature_const_qualification</text>
</a>
</g>
</g>
<!-- Node1&#45;&gt;Node6 -->
<g id="edge5" class="edge">
<title>Node1&#45;&gt;Node6</title>
<path fill="none" stroke="black" d="M34.82,-338.47C42.13,-367.5 59.53,-419.68 94.75,-447.62 98.72,-450.77 103.14,-453.39 107.81,-455.55"/>
<polygon fill="black" stroke="black" points="38.3,-338 32.63,-329.06 31.49,-339.59 38.3,-338"/>
</g>
<!-- Node7 -->
<g id="Node000007" class="node">
<title>Node7</title>
<g id="a_Node000007"><a xlink:href="../../d6/da6/group___t_y_p_e___t_r_a_i_t_s___s_i_g_n_a_t_u_r_e___d_e_c_a_y.html" target="_top" xlink:title="Removes all specifications from the given signature.">
<polygon fill="white" stroke="#666666" points="215.75,-438.25 129.25,-438.25 129.25,-419 215.75,-419 215.75,-438.25"/>
<text text-anchor="middle" x="172.5" y="-424.75" font-family="Helvetica,sans-Serif" font-size="10.00">signature_decay</text>
</a>
</g>
</g>
<!-- Node1&#45;&gt;Node7 -->
<g id="edge6" class="edge">
<title>Node1&#45;&gt;Node7</title>
<path fill="none" stroke="black" d="M38.95,-337.83C49.1,-359.25 68.06,-392.45 94.75,-410.62 104.82,-417.48 117.16,-421.75 128.98,-424.39"/>
<polygon fill="black" stroke="black" points="42.25,-336.64 34.95,-328.95 35.86,-339.51 42.25,-336.64"/>
</g>
<!-- Node8 -->
<g id="Node000008" class="node">
<title>Node8</title>
<g id="a_Node000008"><a xlink:href="../../d0/df7/group___t_y_p_e___t_r_a_i_t_s___s_i_g_n_a_t_u_r_e___i_s___n_o_e_x_c_e_p_t.html" target="_top" xlink:title="Determines whether the given signature has a noexcept specification.">
<polygon fill="white" stroke="#666666" points="228.88,-401.25 116.12,-401.25 116.12,-382 228.88,-382 228.88,-401.25"/>
<text text-anchor="middle" x="172.5" y="-387.75" font-family="Helvetica,sans-Serif" font-size="10.00">signature_is_noexcept</text>
</a>
</g>
</g>
<!-- Node1&#45;&gt;Node8 -->
<g id="edge7" class="edge">
<title>Node1&#45;&gt;Node8</title>
<path fill="none" stroke="black" d="M46.67,-335.87C58.76,-348.31 76.29,-364.17 94.75,-373.62 101.33,-376.99 108.55,-379.74 115.84,-381.98"/>
<polygon fill="black" stroke="black" points="49.32,-333.58 39.93,-328.67 44.21,-338.36 49.32,-333.58"/>
</g>
<!-- Node9 -->
<g id="Node000009" class="node">
<title>Node9</title>
<g id="a_Node000009"><a xlink:href="../../d3/dce/group___t_y_p_e___t_r_a_i_t_s___s_i_g_n_a_t_u_r_e___p_a_r_a_m___l_i_s_t.html" target="_top" xlink:title="Extracts all param types from a given signature (packed into a std::tuple).">
<polygon fill="white" stroke="#666666" points="225.5,-364.25 119.5,-364.25 119.5,-345 225.5,-345 225.5,-364.25"/>
<text text-anchor="middle" x="172.5" y="-350.75" font-family="Helvetica,sans-Serif" font-size="10.00">signature_param_list</text>
</a>
</g>
</g>
<!-- Node1&#45;&gt;Node9 -->
<g id="edge8" class="edge">
<title>Node1&#45;&gt;Node9</title>
<path fill="none" stroke="black" d="M69.94,-329.69C78.12,-332.07 86.7,-334.49 94.75,-336.62 105.07,-339.36 116.23,-342.09 126.75,-344.58"/>
<polygon fill="black" stroke="black" points="71.15,-326.39 60.57,-326.92 69.17,-333.11 71.15,-326.39"/>
</g>
<!-- Node10 -->
<g id="Node000010" class="node">
<title>Node10</title>
<g id="a_Node000010"><a xlink:href="../../dd/df9/group___t_y_p_e___t_r_a_i_t_s___s_i_g_n_a_t_u_r_e___p_a_r_a_m___t_y_p_e.html" target="_top" xlink:title="Extracts the ith param type from a given signature.">
<polygon fill="white" stroke="#666666" points="228.12,-327.25 116.88,-327.25 116.88,-308 228.12,-308 228.12,-327.25"/>
<text text-anchor="middle" x="172.5" y="-313.75" font-family="Helvetica,sans-Serif" font-size="10.00">signature_param_type</text>
</a>
</g>
</g>
<!-- Node1&#45;&gt;Node10 -->
<g id="edge9" class="edge">
<title>Node1&#45;&gt;Node10</title>
<path fill="none" stroke="black" d="M70.39,-317.62C84.7,-317.62 101.08,-317.62 116.43,-317.62"/>
<polygon fill="black" stroke="black" points="70.45,-314.13 60.45,-317.63 70.45,-321.13 70.45,-314.13"/>
</g>
<!-- Node11 -->
<g id="Node000011" class="node">
<title>Node11</title>
<g id="a_Node000011"><a xlink:href="../../db/d91/group___t_y_p_e___t_r_a_i_t_s___s_i_g_n_a_t_u_r_e___r_e_f___q_u_a_l_i_f_i_c_a_t_i_o_n.html" target="_top" xlink:title="Determines the ref&#45;qualification of the given signature.">
<polygon fill="white" stroke="#666666" points="236.75,-290.25 108.25,-290.25 108.25,-271 236.75,-271 236.75,-290.25"/>
<text text-anchor="middle" x="172.5" y="-276.75" font-family="Helvetica,sans-Serif" font-size="10.00">signature_ref_qualification</text>
</a>
</g>
</g>
<!-- Node1&#45;&gt;Node11 -->
<g id="edge10" class="edge">
<title>Node1&#45;&gt;Node11</title>
<path fill="none" stroke="black" d="M69.94,-305.56C78.12,-303.18 86.7,-300.76 94.75,-298.62 105.07,-295.89 116.23,-293.16 126.75,-290.67"/>
<polygon fill="black" stroke="black" points="69.17,-302.14 60.57,-308.33 71.15,-308.86 69.17,-302.14"/>
</g>
<!-- Node12 -->
<g id="Node000012" class="node">
<title>Node12</title>
<g id="a_Node000012"><a xlink:href="../../d3/def/group___t_y_p_e___t_r_a_i_t_s___s_i_g_n_a_t_u_r_e___r_e_m_o_v_e___c_o_n_s_t___q_u_a_l_i_f_i_e_r.html" target="_top" xlink:title="Removes the const&#45;qualifier of a signature (if present).">
<polygon fill="white" stroke="#666666" points="250.25,-253.25 94.75,-253.25 94.75,-234 250.25,-234 250.25,-253.25"/>
<text text-anchor="middle" x="172.5" y="-239.75" font-family="Helvetica,sans-Serif" font-size="10.00">signature_remove_constqualifier</text>
</a>
</g>
</g>
<!-- Node1&#45;&gt;Node12 -->
<g id="edge11" class="edge">
<title>Node1&#45;&gt;Node12</title>
<path fill="none" stroke="black" d="M46.67,-299.38C58.76,-286.94 76.29,-271.08 94.75,-261.62 100.96,-258.44 107.75,-255.82 114.63,-253.65"/>
<polygon fill="black" stroke="black" points="44.21,-296.89 39.93,-306.58 49.32,-301.67 44.21,-296.89"/>
</g>
<!-- Node13 -->
<g id="Node000013" class="node">
<title>Node13</title>
<g id="a_Node000013"><a xlink:href="../../d0/d91/group___t_y_p_e___t_r_a_i_t_s___s_i_g_n_a_t_u_r_e___r_e_m_o_v_e___n_o_e_x_c_e_p_t.html" target="_top" xlink:title="Removes the noexcept specification to a signature (if present).">
<polygon fill="white" stroke="#666666" points="241.25,-216.25 103.75,-216.25 103.75,-197 241.25,-197 241.25,-216.25"/>
<text text-anchor="middle" x="172.5" y="-202.75" font-family="Helvetica,sans-Serif" font-size="10.00">signature_remove_noexcept</text>
</a>
</g>
</g>
<!-- Node1&#45;&gt;Node13 -->
<g id="edge12" class="edge">
<title>Node1&#45;&gt;Node13</title>
<path fill="none" stroke="black" d="M38.95,-297.42C49.1,-276 68.06,-242.8 94.75,-224.62 99.39,-221.47 104.51,-218.86 109.84,-216.7"/>
<polygon fill="black" stroke="black" points="35.86,-295.74 34.95,-306.3 42.25,-298.61 35.86,-295.74"/>
</g>
<!-- Node14 -->
<g id="Node000014" class="node">
<title>Node14</title>
<g id="a_Node000014"><a xlink:href="../../d6/ddd/group___t_y_p_e___t_r_a_i_t_s___s_i_g_n_a_t_u_r_e___r_e_m_o_v_e___r_e_f___q_u_a_l_i_f_i_e_r.html" target="_top" xlink:title="Removes the ref&#45;qualifier of a signature (if present).">
<polygon fill="white" stroke="#666666" points="227.38,-178.88 117.62,-178.88 117.62,-148.38 227.38,-148.38 227.38,-178.88"/>
<text text-anchor="start" x="125.62" y="-165.38" font-family="Helvetica,sans-Serif" font-size="10.00">signature_remove_ref</text>
<text text-anchor="middle" x="172.5" y="-154.12" font-family="Helvetica,sans-Serif" font-size="10.00">_qualifier</text>
</a>
</g>
</g>
<!-- Node1&#45;&gt;Node14 -->
<g id="edge13" class="edge">
<title>Node1&#45;&gt;Node14</title>
<path fill="none" stroke="black" d="M35.21,-296.74C42.92,-268.05 60.72,-216.7 94.75,-187.62 101.33,-182 109.23,-177.7 117.41,-174.4"/>
<polygon fill="black" stroke="black" points="31.83,-295.82 32.8,-306.38 38.62,-297.52 31.83,-295.82"/>
</g>
<!-- Node15 -->
<g id="Node000015" class="node">
<title>Node15</title>
<g id="a_Node000015"><a xlink:href="../../d0/d3b/group___t_y_p_e___t_r_a_i_t_s___s_i_g_n_a_t_u_r_e___r_e_t_u_r_n___t_y_p_e.html" target="_top" xlink:title="Extracts the return type from a given signature.">
<polygon fill="white" stroke="#666666" points="227,-130.25 118,-130.25 118,-111 227,-111 227,-130.25"/>
<text text-anchor="middle" x="172.5" y="-116.75" font-family="Helvetica,sans-Serif" font-size="10.00">signature_return_type</text>
</a>
</g>
</g>
<!-- Node1&#45;&gt;Node15 -->
<g id="edge14" class="edge">
<title>Node1&#45;&gt;Node15</title>
<path fill="none" stroke="black" d="M31.78,-296.35C35.42,-258.93 48.45,-181.33 94.75,-139.62 101.28,-133.75 109.34,-129.62 117.76,-126.73"/>
<polygon fill="black" stroke="black" points="28.29,-296.03 30.96,-306.28 35.27,-296.6 28.29,-296.03"/>
</g>
<!-- Node16 -->
<g id="Node000016" class="node">
<title>Node16</title>
<g id="a_Node000016"><a xlink:href="../../dc/d55/group___t_y_p_e___t_r_a_i_t_s___s_t_r_i_n_g___l_i_t_e_r_a_l___p_r_e_f_i_x.html" target="_top" xlink:title="Yields the printable prefix for any char&#45;type.">
<polygon fill="white" stroke="#666666" points="220.62,-93.25 124.38,-93.25 124.38,-74 220.62,-74 220.62,-93.25"/>
<text text-anchor="middle" x="172.5" y="-79.75" font-family="Helvetica,sans-Serif" font-size="10.00">string_literal_prefix</text>
</a>
</g>
</g>
<!-- Node1&#45;&gt;Node16 -->
<g id="edge15" class="edge">
<title>Node1&#45;&gt;Node16</title>
<path fill="none" stroke="black" d="M30.13,-296.37C30.84,-253.07 38.89,-154.27 94.75,-101.62 102.82,-94.02 113.46,-89.43 124.25,-86.7"/>
<polygon fill="black" stroke="black" points="26.63,-296.17 30.1,-306.18 33.63,-296.19 26.63,-296.17"/>
</g>
<!-- Node17 -->
<g id="Node000017" class="node">
<title>Node17</title>
<g id="a_Node000017"><a xlink:href="../../da/df3/group___t_y_p_e___t_r_a_i_t_s___s_t_r_i_n_g___t_r_a_i_t_s.html" target="_top" xlink:title="Type&#45;trait, which contains properties for the provided string type.">
<polygon fill="white" stroke="#666666" points="206,-56.25 139,-56.25 139,-37 206,-37 206,-56.25"/>
<text text-anchor="middle" x="172.5" y="-42.75" font-family="Helvetica,sans-Serif" font-size="10.00">string_traits</text>
</a>
</g>
</g>
<!-- Node1&#45;&gt;Node17 -->
<g id="edge16" class="edge">
<title>Node1&#45;&gt;Node17</title>
<path fill="none" stroke="black" d="M32.97,-296.17C40.05,-241.2 61.43,-97.32 94.75,-64.62 106.28,-53.31 123.48,-48.61 138.69,-46.82"/>
<polygon fill="black" stroke="black" points="29.5,-295.72 31.73,-306.07 36.45,-296.59 29.5,-295.72"/>
</g>
<!-- Node18 -->
<g id="Node000018" class="node">
<title>Node18</title>
<g id="a_Node000018"><a xlink:href="../../db/d34/group___t_y_p_e___t_r_a_i_t_s___u_i_n_t___w_i_t_h___s_i_z_e.html" target="_top" xlink:title="Provides the member alias type with the expected uint&#45;type.">
<polygon fill="white" stroke="#666666" points="211.25,-19.25 133.75,-19.25 133.75,0 211.25,0 211.25,-19.25"/>
<text text-anchor="middle" x="172.5" y="-5.75" font-family="Helvetica,sans-Serif" font-size="10.00">unit_with_size</text>
</a>
</g>
</g>
<!-- Node1&#45;&gt;Node18 -->
<g id="edge17" class="edge">
<title>Node1&#45;&gt;Node18</title>
<path fill="none" stroke="black" d="M32.21,-296.3C37.82,-235.99 56.76,-66.07 94.75,-27.62 104.85,-17.4 119.58,-12.54 133.44,-10.36"/>
<polygon fill="black" stroke="black" points="28.73,-295.93 31.32,-306.21 35.7,-296.56 28.73,-295.93"/>
</g>
</g>
</svg>
