<?xml version="1.0" encoding="UTF-8" standalone="no"?>
<!DOCTYPE svg PUBLIC "-//W3C//DTD SVG 1.1//EN"
 "http://www.w3.org/Graphics/SVG/1.1/DTD/svg11.dtd">
<!-- Generated by graphviz version 12.1.2 (20240928.0832)
 -->
<!-- Title: mimic++/Fwd.hpp Pages: 1 -->
<!--zoomable 746 -->

<svg id="main" version="1.1" xmlns="http://www.w3.org/2000/svg" xmlns:xlink="http://www.w3.org/1999/xlink" xml:space="preserve" onload="init(evt)">

<style type="text/css"><![CDATA[
.node, .edge {opacity: 0.7;}
.node.selected, .edge.selected {opacity: 1;}
.edge:hover path { stroke: red; }
.edge:hover polygon { stroke: red; fill: red; }
]]></style>

<defs>
  <circle id="rim" cx="0" cy="0" r="7"/>
  <circle id="rim2" cx="0" cy="0" r="3.5"/>
  <g id="zoomPlus">
    <use xlink:href="#rim" fill="#404040"><set attributeName="fill" to="#808080" begin="zoomplus.mouseover" end="zoomplus.mouseout"/></use>
    <path d="M-4,0h8M0,-4v8" fill="none" stroke="white" stroke-width="1.5" pointer-events="none"/>
  </g>
  <g id="zoomMin">
    <use xlink:href="#rim" fill="#404040"><set attributeName="fill" to="#808080" begin="zoomminus.mouseover" end="zoomminus.mouseout"/></use>
    <path d="M-4,0h8" fill="none" stroke="white" stroke-width="1.5" pointer-events="none"/>
  </g>
  <g id="arrowUp" transform="translate(30 24)">
    <use xlink:href="#rim"/>
    <path pointer-events="none" fill="none" stroke="white" stroke-width="1.5" d="M0,-3.0v7 M-2.5,-0.5L0,-3.0L2.5,-0.5"/>
  </g>
  <g id="arrowRight" transform="rotate(90) translate(36 -43)">
    <use xlink:href="#rim"/>
    <path pointer-events="none" fill="none" stroke="white" stroke-width="1.5" d="M0,-3.0v7 M-2.5,-0.5L0,-3.0L2.5,-0.5"/>
  </g>
  <g id="arrowDown" transform="rotate(180) translate(-30 -48)">
    <use xlink:href="#rim"/>
    <path pointer-events="none" fill="none" stroke="white" stroke-width="1.5" d="M0,-3.0v7 M-2.5,-0.5L0,-3.0L2.5,-0.5"/>
  </g>
  <g id="arrowLeft" transform="rotate(270) translate(-36 17)">
    <use xlink:href="#rim"/>
    <path pointer-events="none" fill="none" stroke="white" stroke-width="1.5" d="M0,-3.0v7 M-2.5,-0.5L0,-3.0L2.5,-0.5"/>
  </g>
  <g id="resetDef">
    <use xlink:href="#rim2" fill="#404040"><set attributeName="fill" to="#808080" begin="reset.mouseover" end="reset.mouseout"/></use>
  </g>
</defs>
<script type="application/ecmascript">
var viewWidth = 1441;
var viewHeight = 746;
var sectionId = 'dynsection-1';
</script>
<script type="application/ecmascript" xlink:href="../../svg.min.js"/>
<svg id="graph" class="graph">
<g id="viewport">
<title>mimic++/Fwd.hpp</title>
<!-- Node1 -->
<g id="Node000001" class="node">
<title>Node1</title>
<g id="a_Node000001"><a xlink:title=" ">
<polygon fill="#999999" stroke="#666666" points="972,-737.5 878,-737.5 878,-718.25 972,-718.25 972,-737.5"/>
<text text-anchor="middle" x="925" y="-724" font-family="Helvetica,sans-Serif" font-size="10.00">mimic++/Fwd.hpp</text>
</a>
</g>
</g>
<!-- Node2 -->
<g id="Node000002" class="node">
<title>Node2</title>
<g id="a_Node000002"><a xlink:href="../../dc/d44/_call_8hpp.html" target="_top" xlink:title=" ">
<polygon fill="white" stroke="#666666" points="790.88,-571.75 699.12,-571.75 699.12,-552.5 790.88,-552.5 790.88,-571.75"/>
<text text-anchor="middle" x="745" y="-558.25" font-family="Helvetica,sans-Serif" font-size="10.00">mimic++/Call.hpp</text>
</a>
</g>
</g>
<!-- Node1&#45;&gt;Node2 -->
<g id="edge1_Node000001_Node000002" class="edge">
<title>Node1&#45;&gt;Node2</title>
<g id="a_edge1_Node000001_Node000002"><a xlink:title=" ">
<path fill="none" stroke="#63b8ff" d="M878.75,-714.35C837.09,-700.42 778.06,-673.49 749,-627 738.4,-610.04 740.73,-585.35 743.05,-572.19"/>
<polygon fill="#63b8ff" stroke="#63b8ff" points="877.44,-717.61 888.03,-717.32 879.58,-710.94 877.44,-717.61"/>
</a>
</g>
</g>
<!-- Node6 -->
<g id="Node000006" class="node">
<title>Node6</title>
<g id="a_Node000006"><a xlink:href="../../d9/dc3/_interface_mock_8hpp.html" target="_top" xlink:title=" ">
<polygon fill="white" stroke="#666666" points="1232.75,-74.5 1095.25,-74.5 1095.25,-55.25 1232.75,-55.25 1232.75,-74.5"/>
<text text-anchor="middle" x="1164" y="-61" font-family="Helvetica,sans-Serif" font-size="10.00">mimic++/InterfaceMock.hpp</text>
</a>
</g>
</g>
<!-- Node1&#45;&gt;Node6 -->
<g id="edge35_Node000001_Node000006" class="edge">
<title>Node1&#45;&gt;Node6</title>
<g id="a_edge35_Node000001_Node000006"><a xlink:title=" ">
<path fill="none" stroke="#63b8ff" d="M983.54,-726.58C1117.13,-724.34 1433,-709.4 1433,-618.38 1433,-618.38 1433,-618.38 1433,-395.38 1433,-234.39 1237.93,-108.64 1180.02,-74.86"/>
<polygon fill="#63b8ff" stroke="#63b8ff" points="983.8,-723.08 973.85,-726.73 983.9,-730.08 983.8,-723.08"/>
</a>
</g>
</g>
<!-- Node7 -->
<g id="Node000007" class="node">
<title>Node7</title>
<g id="a_Node000007"><a xlink:href="../../d0/db9/mimic_09_09_8hpp.html" target="_top" xlink:title=" ">
<polygon fill="white" stroke="#666666" points="889.75,-19.25 776.25,-19.25 776.25,0 889.75,0 889.75,-19.25"/>
<text text-anchor="middle" x="833" y="-5.75" font-family="Helvetica,sans-Serif" font-size="10.00">mimic++/mimic++.hpp</text>
</a>
</g>
</g>
<!-- Node1&#45;&gt;Node7 -->
<g id="edge69_Node000001_Node000007" class="edge">
<title>Node1&#45;&gt;Node7</title>
<g id="a_edge69_Node000001_Node000007"><a xlink:title=" ">
<path fill="none" stroke="#63b8ff" d="M866.57,-725.89C711.9,-722.89 294.45,-712.18 160,-682.25 85.26,-665.61 0,-694.94 0,-618.38 0,-618.38 0,-618.38 0,-119.12 0,-80.78 23.4,-71.78 58,-55.25 122.19,-24.6 607.61,-14.15 775.82,-11.43"/>
<polygon fill="#63b8ff" stroke="#63b8ff" points="866.11,-729.38 876.17,-726.07 866.24,-722.38 866.11,-729.38"/>
</a>
</g>
</g>
<!-- Node10 -->
<g id="Node000010" class="node">
<title>Node10</title>
<g id="a_Node000010"><a xlink:href="../../da/dd9/_reporter_8hpp.html" target="_top" xlink:title=" ">
<polygon fill="white" stroke="#666666" points="614,-461.25 502,-461.25 502,-442 614,-442 614,-461.25"/>
<text text-anchor="middle" x="558" y="-447.75" font-family="Helvetica,sans-Serif" font-size="10.00">mimic++/Reporter.hpp</text>
</a>
</g>
</g>
<!-- Node1&#45;&gt;Node10 -->
<g id="edge46_Node000001_Node000010" class="edge">
<title>Node1&#45;&gt;Node10</title>
<g id="a_edge46_Node000001_Node000010"><a xlink:title=" ">
<path fill="none" stroke="#63b8ff" d="M866.27,-725.55C674.06,-720.46 76,-698.19 76,-618.38 76,-618.38 76,-618.38 76,-561.12 76,-474.71 374.62,-457.11 501.77,-453.53"/>
<polygon fill="#63b8ff" stroke="#63b8ff" points="865.93,-729.05 876.02,-725.81 866.12,-722.05 865.93,-729.05"/>
</a>
</g>
</g>
<!-- Node11 -->
<g id="Node000011" class="node">
<title>Node11</title>
<g id="a_Node000011"><a xlink:href="../../d8/de4/_sequence_8hpp.html" target="_top" xlink:title=" ">
<polygon fill="white" stroke="#666666" points="994.38,-406 875.62,-406 875.62,-386.75 994.38,-386.75 994.38,-406"/>
<text text-anchor="middle" x="935" y="-392.5" font-family="Helvetica,sans-Serif" font-size="10.00">mimic++/Sequence.hpp</text>
</a>
</g>
</g>
<!-- Node1&#45;&gt;Node11 -->
<g id="edge48_Node000001_Node000011" class="edge">
<title>Node1&#45;&gt;Node11</title>
<g id="a_edge48_Node000001_Node000011"><a xlink:title=" ">
<path fill="none" stroke="#63b8ff" d="M934.66,-707.51C948.4,-678.74 972.95,-622.65 982,-571.75 993.48,-507.23 954.89,-431.84 940.33,-406.33"/>
<polygon fill="#63b8ff" stroke="#63b8ff" points="931.56,-705.87 930.32,-716.39 937.85,-708.94 931.56,-705.87"/>
</a>
</g>
</g>
<!-- Node16 -->
<g id="Node000016" class="node">
<title>Node16</title>
<g id="a_Node000016"><a xlink:href="../../d0/d3b/_reports_8hpp.html" target="_top" xlink:title=" ">
<polygon fill="white" stroke="#666666" points="731.5,-516.5 622.5,-516.5 622.5,-497.25 731.5,-497.25 731.5,-516.5"/>
<text text-anchor="middle" x="677" y="-503" font-family="Helvetica,sans-Serif" font-size="10.00">mimic++/Reports.hpp</text>
</a>
</g>
</g>
<!-- Node1&#45;&gt;Node16 -->
<g id="edge47_Node000001_Node000016" class="edge">
<title>Node1&#45;&gt;Node16</title>
<g id="a_edge47_Node000001_Node000016"><a xlink:title=" ">
<path fill="none" stroke="#63b8ff" d="M866.57,-717.35C838.36,-710.76 805.07,-699.88 779,-682.25 726.77,-646.92 716.83,-628.82 690,-571.75 681.43,-553.52 678.49,-529.76 677.5,-516.97"/>
<polygon fill="#63b8ff" stroke="#63b8ff" points="865.51,-720.7 876.03,-719.43 867.02,-713.87 865.51,-720.7"/>
</a>
</g>
</g>
<!-- Node17 -->
<g id="Node000017" class="node">
<title>Node17</title>
<g id="a_Node000017"><a xlink:href="../../dd/d50/_matcher_8hpp.html" target="_top" xlink:title=" ">
<polygon fill="white" stroke="#666666" points="1291.25,-516.5 1180.75,-516.5 1180.75,-497.25 1291.25,-497.25 1291.25,-516.5"/>
<text text-anchor="middle" x="1236" y="-503" font-family="Helvetica,sans-Serif" font-size="10.00">mimic++/Matcher.hpp</text>
</a>
</g>
</g>
<!-- Node1&#45;&gt;Node17 -->
<g id="edge36_Node000001_Node000017" class="edge">
<title>Node1&#45;&gt;Node17</title>
<g id="a_edge36_Node000001_Node000017"><a xlink:title=" ">
<path fill="none" stroke="#63b8ff" d="M983.63,-721.73C1085.89,-711.33 1289.66,-683.81 1328,-627 1356.87,-584.22 1286.44,-536.55 1252.74,-516.99"/>
<polygon fill="#63b8ff" stroke="#63b8ff" points="983.39,-718.24 973.78,-722.71 984.08,-725.2 983.39,-718.24"/>
</a>
</g>
</g>
<!-- Node18 -->
<g id="Node000018" class="node">
<title>Node18</title>
<g id="a_Node000018"><a xlink:href="../../da/dab/_printer_8hpp.html" target="_top" xlink:title=" ">
<polygon fill="white" stroke="#666666" points="972.88,-571.75 869.12,-571.75 869.12,-552.5 972.88,-552.5 972.88,-571.75"/>
<text text-anchor="middle" x="921" y="-558.25" font-family="Helvetica,sans-Serif" font-size="10.00">mimic++/Printer.hpp</text>
</a>
</g>
</g>
<!-- Node1&#45;&gt;Node18 -->
<g id="edge39_Node000001_Node000018" class="edge">
<title>Node1&#45;&gt;Node18</title>
<g id="a_edge39_Node000001_Node000018"><a xlink:title=" ">
<path fill="none" stroke="#63b8ff" d="M924.51,-706.72C923.63,-670.86 921.84,-597.35 921.22,-571.97"/>
<polygon fill="#63b8ff" stroke="#63b8ff" points="921,-706.65 924.75,-716.56 928,-706.48 921,-706.65"/>
</a>
</g>
</g>
<!-- Node19 -->
<g id="Node000019" class="node">
<title>Node19</title>
<g id="a_Node000019"><a xlink:href="../../d9/dc5/_string_8hpp.html" target="_top" xlink:title=" ">
<polygon fill="white" stroke="#666666" points="1319.38,-627 1218.62,-627 1218.62,-607.75 1319.38,-607.75 1319.38,-627"/>
<text text-anchor="middle" x="1269" y="-613.5" font-family="Helvetica,sans-Serif" font-size="10.00">mimic++/String.hpp</text>
</a>
</g>
</g>
<!-- Node1&#45;&gt;Node19 -->
<g id="edge49_Node000001_Node000019" class="edge">
<title>Node1&#45;&gt;Node19</title>
<g id="a_edge49_Node000001_Node000019"><a xlink:title=" ">
<path fill="none" stroke="#63b8ff" d="M983.54,-720.87C1031.1,-714.75 1099.34,-703.1 1156,-682.25 1194.91,-667.93 1236.26,-641.2 1256.45,-627.29"/>
<polygon fill="#63b8ff" stroke="#63b8ff" points="983.21,-717.39 973.72,-722.09 984.07,-724.34 983.21,-717.39"/>
</a>
</g>
</g>
<!-- Node20 -->
<g id="Node000020" class="node">
<title>Node20</title>
<g id="a_Node000020"><a xlink:href="../../d8/d32/_type_traits_8hpp.html" target="_top" xlink:title=" ">
<polygon fill="white" stroke="#666666" points="896.5,-627 775.5,-627 775.5,-607.75 896.5,-607.75 896.5,-627"/>
<text text-anchor="middle" x="836" y="-613.5" font-family="Helvetica,sans-Serif" font-size="10.00">mimic++/TypeTraits.hpp</text>
</a>
</g>
</g>
<!-- Node1&#45;&gt;Node20 -->
<g id="edge53_Node000001_Node000020" class="edge">
<title>Node1&#45;&gt;Node20</title>
<g id="a_edge53_Node000001_Node000020"><a xlink:title=" ">
<path fill="none" stroke="#63b8ff" d="M910.42,-709.1C891.19,-685.66 858.07,-645.28 843.38,-627.38"/>
<polygon fill="#63b8ff" stroke="#63b8ff" points="907.71,-711.31 916.76,-716.83 913.12,-706.87 907.71,-711.31"/>
</a>
</g>
</g>
<!-- Node21 -->
<g id="Node000021" class="node">
<title>Node21</title>
<g id="a_Node000021"><a xlink:href="../../d4/d2c/_utility_8hpp.html" target="_top" xlink:title=" ">
<polygon fill="white" stroke="#666666" points="1147,-682.25 1047,-682.25 1047,-663 1147,-663 1147,-682.25"/>
<text text-anchor="middle" x="1097" y="-668.75" font-family="Helvetica,sans-Serif" font-size="10.00">mimic++/Utility.hpp</text>
</a>
</g>
</g>
<!-- Node1&#45;&gt;Node21 -->
<g id="edge59_Node000001_Node000021" class="edge">
<title>Node1&#45;&gt;Node21</title>
<g id="a_edge59_Node000001_Node000021"><a xlink:title=" ">
<path fill="none" stroke="#63b8ff" d="M965.17,-714.44C996.56,-704.72 1039.46,-691.44 1067.68,-682.7"/>
<polygon fill="#63b8ff" stroke="#63b8ff" points="964.14,-711.09 955.62,-717.39 966.21,-717.78 964.14,-711.09"/>
</a>
</g>
</g>
<!-- Node3 -->
<g id="Node000003" class="node">
<title>Node3</title>
<g id="a_Node000003"><a xlink:href="../../d5/d8a/_expectation_8hpp.html" target="_top" xlink:title=" ">
<polygon fill="white" stroke="#666666" points="908.75,-295.5 783.25,-295.5 783.25,-276.25 908.75,-276.25 908.75,-295.5"/>
<text text-anchor="middle" x="846" y="-282" font-family="Helvetica,sans-Serif" font-size="10.00">mimic++/Expectation.hpp</text>
</a>
</g>
</g>
<!-- Node2&#45;&gt;Node3 -->
<g id="edge2_Node000002_Node000003" class="edge">
<title>Node2&#45;&gt;Node3</title>
<g id="a_edge2_Node000002_Node000003"><a xlink:title=" ">
<path fill="none" stroke="#63b8ff" d="M751.56,-541.52C764.99,-501.68 796.89,-408.51 827,-331.5 831.91,-318.95 838.1,-304.66 842.06,-295.7"/>
<polygon fill="#63b8ff" stroke="#63b8ff" points="748.29,-540.27 748.42,-550.86 754.93,-542.5 748.29,-540.27"/>
</a>
</g>
</g>
<!-- Node2&#45;&gt;Node7 -->
<g id="edge34_Node000002_Node000007" class="edge">
<title>Node2&#45;&gt;Node7</title>
<g id="a_edge34_Node000002_Node000007"><a xlink:title=" ">
<path fill="none" stroke="#63b8ff" d="M687.38,-561.26C568.45,-558.72 292.08,-537.93 114,-406 87.46,-386.34 76,-375.16 76,-342.12 76,-342.12 76,-342.12 76,-119.12 76,-57.53 139.71,-71.95 199,-55.25 306.67,-24.92 641.47,-14.64 776.09,-11.68"/>
<polygon fill="#63b8ff" stroke="#63b8ff" points="687.15,-564.76 697.21,-561.43 687.27,-557.76 687.15,-564.76"/>
</a>
</g>
</g>
<!-- Node2&#45;&gt;Node10 -->
<g id="edge17_Node000002_Node000010" class="edge">
<title>Node2&#45;&gt;Node10</title>
<g id="a_edge17_Node000002_Node000010"><a xlink:title=" ">
<path fill="none" stroke="#63b8ff" d="M689.27,-549.07C664.82,-542.09 636.6,-531.62 614,-516.5 591.45,-501.41 572.38,-475.01 563.45,-461.36"/>
<polygon fill="#63b8ff" stroke="#63b8ff" points="688.18,-552.4 698.75,-551.64 690.01,-545.65 688.18,-552.4"/>
</a>
</g>
</g>
<!-- Node2&#45;&gt;Node16 -->
<g id="edge30_Node000002_Node000016" class="edge">
<title>Node2&#45;&gt;Node16</title>
<g id="a_edge30_Node000002_Node000016"><a xlink:title=" ">
<path fill="none" stroke="#63b8ff" d="M724.65,-545.19C712.78,-535.89 698.24,-524.51 688.36,-516.77"/>
<polygon fill="#63b8ff" stroke="#63b8ff" points="722.24,-547.75 732.27,-551.16 726.56,-542.24 722.24,-547.75"/>
</a>
</g>
</g>
<!-- Node4 -->
<g id="Node000004" class="node">
<title>Node4</title>
<g id="a_Node000004"><a xlink:href="../../d2/d4f/_expectation_builder_8hpp.html" target="_top" xlink:title=" ">
<polygon fill="white" stroke="#666666" points="1077.75,-185 922.25,-185 922.25,-165.75 1077.75,-165.75 1077.75,-185"/>
<text text-anchor="middle" x="1000" y="-171.5" font-family="Helvetica,sans-Serif" font-size="10.00">mimic++/ExpectationBuilder.hpp</text>
</a>
</g>
</g>
<!-- Node3&#45;&gt;Node4 -->
<g id="edge3_Node000003_Node000004" class="edge">
<title>Node3&#45;&gt;Node4</title>
<g id="a_edge3_Node000003_Node000004"><a xlink:title=" ">
<path fill="none" stroke="#63b8ff" d="M868.06,-269.33C900.77,-246.29 961.07,-203.8 987.28,-185.34"/>
<polygon fill="#63b8ff" stroke="#63b8ff" points="866.26,-266.32 860.1,-274.94 870.29,-272.04 866.26,-266.32"/>
</a>
</g>
</g>
<!-- Node5 -->
<g id="Node000005" class="node">
<title>Node5</title>
<g id="a_Node000005"><a xlink:href="../../d5/dc5/_mock_8hpp.html" target="_top" xlink:title=" ">
<polygon fill="white" stroke="#666666" points="1116.62,-129.75 1017.38,-129.75 1017.38,-110.5 1116.62,-110.5 1116.62,-129.75"/>
<text text-anchor="middle" x="1067" y="-116.25" font-family="Helvetica,sans-Serif" font-size="10.00">mimic++/Mock.hpp</text>
</a>
</g>
</g>
<!-- Node3&#45;&gt;Node5 -->
<g id="edge15_Node000003_Node000005" class="edge">
<title>Node3&#45;&gt;Node5</title>
<g id="a_edge15_Node000003_Node000005"><a xlink:title=" ">
<path fill="none" stroke="#63b8ff" d="M851.93,-264.9C860.85,-238.33 880.25,-191.71 913,-165.75 942.78,-142.15 984.58,-131.03 1017.12,-125.79"/>
<polygon fill="#63b8ff" stroke="#63b8ff" points="848.61,-263.82 848.93,-274.41 855.28,-265.92 848.61,-263.82"/>
</a>
</g>
</g>
<!-- Node3&#45;&gt;Node7 -->
<g id="edge16_Node000003_Node000007" class="edge">
<title>Node3&#45;&gt;Node7</title>
<g id="a_edge16_Node000003_Node000007"><a xlink:title=" ">
<path fill="none" stroke="#63b8ff" d="M831.51,-266.87C816.43,-246.27 795,-210.92 795,-176.38 795,-176.38 795,-176.38 795,-119.12 795,-80.21 817.05,-37.62 827.56,-19.54"/>
<polygon fill="#63b8ff" stroke="#63b8ff" points="828.7,-268.95 837.56,-274.77 834.26,-264.7 828.7,-268.95"/>
</a>
</g>
</g>
<!-- Node9 -->
<g id="Node000009" class="node">
<title>Node9</title>
<g id="a_Node000009"><a xlink:href="../../d8/de5/_expectation_policies_8hpp.html" target="_top" xlink:title=" ">
<polygon fill="white" stroke="#666666" points="1195,-240.25 1035,-240.25 1035,-221 1195,-221 1195,-240.25"/>
<text text-anchor="middle" x="1115" y="-226.75" font-family="Helvetica,sans-Serif" font-size="10.00">mimic++/ExpectationPolicies.hpp</text>
</a>
</g>
</g>
<!-- Node3&#45;&gt;Node9 -->
<g id="edge11_Node000003_Node000009" class="edge">
<title>Node3&#45;&gt;Node9</title>
<g id="a_edge11_Node000003_Node000009"><a xlink:title=" ">
<path fill="none" stroke="#63b8ff" d="M903.1,-273.57C952.63,-263.77 1023.38,-249.76 1069.25,-240.68"/>
<polygon fill="#63b8ff" stroke="#63b8ff" points="902.55,-270.11 893.42,-275.49 903.91,-276.98 902.55,-270.11"/>
</a>
</g>
</g>
<!-- Node4&#45;&gt;Node5 -->
<g id="edge4_Node000004_Node000005" class="edge">
<title>Node4&#45;&gt;Node5</title>
<g id="a_edge4_Node000004_Node000005"><a xlink:title=" ">
<path fill="none" stroke="#63b8ff" d="M1020.05,-158.44C1031.75,-149.14 1046.07,-137.76 1055.8,-130.02"/>
<polygon fill="#63b8ff" stroke="#63b8ff" points="1018.2,-155.44 1012.55,-164.4 1022.56,-160.92 1018.2,-155.44"/>
</a>
</g>
</g>
<!-- Node4&#45;&gt;Node7 -->
<g id="edge10_Node000004_Node000007" class="edge">
<title>Node4&#45;&gt;Node7</title>
<g id="a_edge10_Node000004_Node000007"><a xlink:title=" ">
<path fill="none" stroke="#63b8ff" d="M980.76,-157.99C958.35,-138.67 920.51,-105.27 890,-74.5 871.37,-55.71 851.09,-32.17 840.46,-19.57"/>
<polygon fill="#63b8ff" stroke="#63b8ff" points="978.33,-160.52 988.2,-164.38 982.89,-155.21 978.33,-160.52"/>
</a>
</g>
</g>
<!-- Node5&#45;&gt;Node6 -->
<g id="edge5_Node000005_Node000006" class="edge">
<title>Node5&#45;&gt;Node6</title>
<g id="a_edge5_Node000005_Node000006"><a xlink:title=" ">
<path fill="none" stroke="#63b8ff" d="M1093.47,-104.59C1110.71,-95.13 1132.67,-83.08 1147.46,-74.95"/>
<polygon fill="#63b8ff" stroke="#63b8ff" points="1091.86,-101.48 1084.78,-109.36 1095.23,-107.62 1091.86,-101.48"/>
</a>
</g>
</g>
<!-- Node5&#45;&gt;Node7 -->
<g id="edge9_Node000005_Node000007" class="edge">
<title>Node5&#45;&gt;Node7</title>
<g id="a_edge9_Node000005_Node000007"><a xlink:title=" ">
<path fill="none" stroke="#63b8ff" d="M1066.26,-99.11C1064.64,-84.88 1060.12,-66.39 1048,-55.25 1025.33,-34.42 945.7,-22.11 890,-15.86"/>
<polygon fill="#63b8ff" stroke="#63b8ff" points="1062.74,-98.99 1066.95,-108.72 1069.72,-98.49 1062.74,-98.99"/>
</a>
</g>
</g>
<!-- Node8 -->
<g id="Node000008" class="node">
<title>Node8</title>
<g id="a_Node000008"><a xlink:href="../../d5/d92/_object_watcher_8hpp.html" target="_top" xlink:title=" ">
<polygon fill="white" stroke="#666666" points="1038.88,-74.5 899.12,-74.5 899.12,-55.25 1038.88,-55.25 1038.88,-74.5"/>
<text text-anchor="middle" x="969" y="-61" font-family="Helvetica,sans-Serif" font-size="10.00">mimic++/ObjectWatcher.hpp</text>
</a>
</g>
</g>
<!-- Node5&#45;&gt;Node8 -->
<g id="edge7_Node000005_Node000008" class="edge">
<title>Node5&#45;&gt;Node8</title>
<g id="a_edge7_Node000005_Node000008"><a xlink:title=" ">
<path fill="none" stroke="#63b8ff" d="M1040.75,-104.86C1023.26,-95.36 1000.8,-83.15 985.71,-74.95"/>
<polygon fill="#63b8ff" stroke="#63b8ff" points="1038.59,-107.67 1049.05,-109.37 1041.93,-101.52 1038.59,-107.67"/>
</a>
</g>
</g>
<!-- Node6&#45;&gt;Node7 -->
<g id="edge6_Node000006_Node000007" class="edge">
<title>Node6&#45;&gt;Node7</title>
<g id="a_edge6_Node000006_Node000007"><a xlink:title=" ">
<path fill="none" stroke="#63b8ff" d="M1096.43,-53C1035.48,-43.2 946.86,-28.94 889.57,-19.73"/>
<polygon fill="#63b8ff" stroke="#63b8ff" points="1095.55,-56.41 1105.98,-54.54 1096.66,-49.5 1095.55,-56.41"/>
</a>
</g>
</g>
<!-- Node8&#45;&gt;Node7 -->
<g id="edge8_Node000008_Node000007" class="edge">
<title>Node8&#45;&gt;Node7</title>
<g id="a_edge8_Node000008_Node000007"><a xlink:title=" ">
<path fill="none" stroke="#63b8ff" d="M935.26,-50.66C910.64,-41.02 877.91,-28.21 856.18,-19.7"/>
<polygon fill="#63b8ff" stroke="#63b8ff" points="933.93,-53.9 944.52,-54.29 936.48,-47.38 933.93,-53.9"/>
</a>
</g>
</g>
<!-- Node9&#45;&gt;Node4 -->
<g id="edge12_Node000009_Node000004" class="edge">
<title>Node9&#45;&gt;Node4</title>
<g id="a_edge12_Node000009_Node000004"><a xlink:title=" ">
<path fill="none" stroke="#63b8ff" d="M1085.05,-215.76C1064.41,-206.2 1037.56,-193.77 1019.6,-185.45"/>
<polygon fill="#63b8ff" stroke="#63b8ff" points="1083.57,-218.93 1094.12,-219.96 1086.51,-212.58 1083.57,-218.93"/>
</a>
</g>
</g>
<!-- Node9&#45;&gt;Node5 -->
<g id="edge13_Node000009_Node000005" class="edge">
<title>Node9&#45;&gt;Node5</title>
<g id="a_edge13_Node000009_Node000005"><a xlink:title=" ">
<path fill="none" stroke="#63b8ff" d="M1106.56,-210.25C1101.02,-197.58 1093.61,-180.67 1087,-165.75 1081.5,-153.33 1075.06,-139 1071.01,-130.01"/>
<polygon fill="#63b8ff" stroke="#63b8ff" points="1103.22,-211.36 1110.43,-219.13 1109.64,-208.57 1103.22,-211.36"/>
</a>
</g>
</g>
<!-- Node9&#45;&gt;Node7 -->
<g id="edge14_Node000009_Node000007" class="edge">
<title>Node9&#45;&gt;Node7</title>
<g id="a_edge14_Node000009_Node000007"><a xlink:title=" ">
<path fill="none" stroke="#63b8ff" d="M1140.34,-214.63C1189.99,-183.47 1291.14,-110.04 1242,-55.25 1218.93,-29.53 997.06,-17.19 890.11,-12.71"/>
<polygon fill="#63b8ff" stroke="#63b8ff" points="1138.57,-211.61 1131.89,-219.83 1142.24,-217.57 1138.57,-211.61"/>
</a>
</g>
</g>
<!-- Node10&#45;&gt;Node3 -->
<g id="edge18_Node000010_Node000003" class="edge">
<title>Node10&#45;&gt;Node3</title>
<g id="a_edge18_Node000010_Node000003"><a xlink:title=" ">
<path fill="none" stroke="#63b8ff" d="M582.75,-435.84C597.15,-427.2 615.65,-416.05 632,-406 685.16,-373.33 696.22,-361.37 751,-331.5 775.8,-317.98 805.39,-304.47 824.89,-295.92"/>
<polygon fill="#63b8ff" stroke="#63b8ff" points="581.15,-432.72 574.37,-440.86 584.74,-438.73 581.15,-432.72"/>
</a>
</g>
</g>
<!-- Node10&#45;&gt;Node7 -->
<g id="edge29_Node000010_Node000007" class="edge">
<title>Node10&#45;&gt;Node7</title>
<g id="a_edge29_Node000010_Node000007"><a xlink:title=" ">
<path fill="none" stroke="#63b8ff" d="M490.59,-447.62C377.67,-441.98 159.9,-428.34 133,-406 110.22,-387.08 114,-371.74 114,-342.12 114,-342.12 114,-342.12 114,-119.12 114,-52.3 605.92,-21.79 775.98,-13.24"/>
<polygon fill="#63b8ff" stroke="#63b8ff" points="490.18,-451.1 500.34,-448.09 490.52,-444.11 490.18,-451.1"/>
</a>
</g>
</g>
<!-- Node10&#45;&gt;Node11 -->
<g id="edge19_Node000010_Node000011" class="edge">
<title>Node10&#45;&gt;Node11</title>
<g id="a_edge19_Node000010_Node000011"><a xlink:title=" ">
<path fill="none" stroke="#63b8ff" d="M625.49,-441.09C696.57,-431.05 807.41,-415.4 875.37,-405.8"/>
<polygon fill="#63b8ff" stroke="#63b8ff" points="625.35,-437.58 615.94,-442.44 626.33,-444.51 625.35,-437.58"/>
</a>
</g>
</g>
<!-- Node13 -->
<g id="Node000013" class="node">
<title>Node13</title>
<g id="a_Node000013"><a xlink:href="../../d9/d42/_boost_test_8hpp.html" target="_top" xlink:title=" ">
<polygon fill="white" stroke="#666666" points="458.38,-406 297.62,-406 297.62,-386.75 458.38,-386.75 458.38,-406"/>
<text text-anchor="middle" x="378" y="-392.5" font-family="Helvetica,sans-Serif" font-size="10.00">mimic++/adapters/BoostTest.hpp</text>
</a>
</g>
</g>
<!-- Node10&#45;&gt;Node13 -->
<g id="edge26_Node000010_Node000013" class="edge">
<title>Node10&#45;&gt;Node13</title>
<g id="a_edge26_Node000010_Node000013"><a xlink:title=" ">
<path fill="none" stroke="#63b8ff" d="M516.82,-438.44C483.9,-428.7 438.47,-415.27 408.68,-406.45"/>
<polygon fill="#63b8ff" stroke="#63b8ff" points="515.43,-441.68 526.01,-441.16 517.42,-434.97 515.43,-441.68"/>
</a>
</g>
</g>
<!-- Node14 -->
<g id="Node000014" class="node">
<title>Node14</title>
<g id="a_Node000014"><a xlink:href="../../d3/d04/_catch2_8hpp.html" target="_top" xlink:title=" ">
<polygon fill="white" stroke="#666666" points="623.25,-406 476.75,-406 476.75,-386.75 623.25,-386.75 623.25,-406"/>
<text text-anchor="middle" x="550" y="-392.5" font-family="Helvetica,sans-Serif" font-size="10.00">mimic++/adapters/Catch2.hpp</text>
</a>
</g>
</g>
<!-- Node10&#45;&gt;Node14 -->
<g id="edge27_Node000010_Node000014" class="edge">
<title>Node10&#45;&gt;Node14</title>
<g id="a_edge27_Node000010_Node000014"><a xlink:title=" ">
<path fill="none" stroke="#63b8ff" d="M555,-430.67C553.75,-422.3 552.35,-413 551.35,-406.36"/>
<polygon fill="#63b8ff" stroke="#63b8ff" points="551.51,-430.97 556.45,-440.34 558.43,-429.93 551.51,-430.97"/>
</a>
</g>
</g>
<!-- Node15 -->
<g id="Node000015" class="node">
<title>Node15</title>
<g id="a_Node000015"><a xlink:href="../../d5/db1/gtest_8hpp.html" target="_top" xlink:title=" ">
<polygon fill="white" stroke="#666666" points="279.75,-406 142.25,-406 142.25,-386.75 279.75,-386.75 279.75,-406"/>
<text text-anchor="middle" x="211" y="-392.5" font-family="Helvetica,sans-Serif" font-size="10.00">mimic++/adapters/gtest.hpp</text>
</a>
</g>
</g>
<!-- Node10&#45;&gt;Node15 -->
<g id="edge28_Node000010_Node000015" class="edge">
<title>Node10&#45;&gt;Node15</title>
<g id="a_edge28_Node000010_Node000015"><a xlink:title=" ">
<path fill="none" stroke="#63b8ff" d="M490.69,-440.3C426.71,-430.48 331.43,-415.86 270.25,-406.47"/>
<polygon fill="#63b8ff" stroke="#63b8ff" points="489.95,-443.72 500.37,-441.78 491.01,-436.8 489.95,-443.72"/>
</a>
</g>
</g>
<!-- Node11&#45;&gt;Node4 -->
<g id="edge24_Node000011_Node000004" class="edge">
<title>Node11&#45;&gt;Node4</title>
<g id="a_edge24_Node000011_Node000004"><a xlink:title=" ">
<path fill="none" stroke="#63b8ff" d="M974.22,-381.59C988.06,-374.61 1002.12,-364.6 1010,-350.75 1041.63,-295.13 1014.33,-212.74 1003.75,-185.49"/>
<polygon fill="#63b8ff" stroke="#63b8ff" points="972.81,-378.38 965.16,-385.72 975.71,-384.75 972.81,-378.38"/>
</a>
</g>
</g>
<!-- Node11&#45;&gt;Node7 -->
<g id="edge25_Node000011_Node000007" class="edge">
<title>Node11&#45;&gt;Node7</title>
<g id="a_edge25_Node000011_Node000007"><a xlink:title=" ">
<path fill="none" stroke="#63b8ff" d="M909.58,-380.54C894.99,-371.96 876.38,-360.88 860,-350.75 821.36,-326.85 801.29,-331.82 774,-295.5 756.21,-271.82 755,-261.24 755,-231.62 755,-231.62 755,-231.62 755,-119.12 755,-74.81 798.42,-36.23 820.47,-19.49"/>
<polygon fill="#63b8ff" stroke="#63b8ff" points="907.69,-383.49 918.09,-385.53 911.23,-377.45 907.69,-383.49"/>
</a>
</g>
</g>
<!-- Node12 -->
<g id="Node000012" class="node">
<title>Node12</title>
<g id="a_Node000012"><a xlink:href="../../d6/d17/_control_policy_8hpp.html" target="_top" xlink:title=" ">
<polygon fill="white" stroke="#666666" points="1001.12,-350.75 868.88,-350.75 868.88,-331.5 1001.12,-331.5 1001.12,-350.75"/>
<text text-anchor="middle" x="935" y="-337.25" font-family="Helvetica,sans-Serif" font-size="10.00">mimic++/ControlPolicy.hpp</text>
</a>
</g>
</g>
<!-- Node11&#45;&gt;Node12 -->
<g id="edge20_Node000011_Node000012" class="edge">
<title>Node11&#45;&gt;Node12</title>
<g id="a_edge20_Node000011_Node000012"><a xlink:title=" ">
<path fill="none" stroke="#63b8ff" d="M935,-375.13C935,-366.84 935,-357.67 935,-351.11"/>
<polygon fill="#63b8ff" stroke="#63b8ff" points="931.5,-375.07 935,-385.07 938.5,-375.07 931.5,-375.07"/>
</a>
</g>
</g>
<!-- Node12&#45;&gt;Node3 -->
<g id="edge21_Node000012_Node000003" class="edge">
<title>Node12&#45;&gt;Node3</title>
<g id="a_edge21_Node000012_Node000003"><a xlink:title=" ">
<path fill="none" stroke="#63b8ff" d="M910.26,-325.32C894.51,-315.9 874.62,-304 861.17,-295.95"/>
<polygon fill="#63b8ff" stroke="#63b8ff" points="908.23,-328.18 918.6,-330.31 911.82,-322.18 908.23,-328.18"/>
</a>
</g>
</g>
<!-- Node12&#45;&gt;Node4 -->
<g id="edge22_Node000012_Node000004" class="edge">
<title>Node12&#45;&gt;Node4</title>
<g id="a_edge22_Node000012_Node000004"><a xlink:title=" ">
<path fill="none" stroke="#63b8ff" d="M942.63,-320.91C956.72,-285.4 986.33,-210.82 996.49,-185.22"/>
<polygon fill="#63b8ff" stroke="#63b8ff" points="939.49,-319.33 939.05,-329.91 946,-321.91 939.49,-319.33"/>
</a>
</g>
</g>
<!-- Node12&#45;&gt;Node7 -->
<g id="edge23_Node000012_Node000007" class="edge">
<title>Node12&#45;&gt;Node7</title>
<g id="a_edge23_Node000012_Node000007"><a xlink:title=" ">
<path fill="none" stroke="#63b8ff" d="M930.01,-320.34C926.74,-307.69 922.31,-290.95 918,-276.25 888.33,-174.95 847.55,-53.56 836.1,-19.75"/>
<polygon fill="#63b8ff" stroke="#63b8ff" points="926.59,-321.12 932.45,-329.94 933.37,-319.39 926.59,-321.12"/>
</a>
</g>
</g>
<!-- Node16&#45;&gt;Node7 -->
<g id="edge33_Node000016_Node000007" class="edge">
<title>Node16&#45;&gt;Node7</title>
<g id="a_edge33_Node000016_Node000007"><a xlink:title=" ">
<path fill="none" stroke="#63b8ff" d="M669.31,-486.13C661.64,-464.64 651,-429.1 651,-397.38 651,-397.38 651,-397.38 651,-119.12 651,-59.53 723.88,-31.91 777.41,-19.66"/>
<polygon fill="#63b8ff" stroke="#63b8ff" points="665.97,-487.2 672.75,-495.35 672.53,-484.75 665.97,-487.2"/>
</a>
</g>
</g>
<!-- Node16&#45;&gt;Node10 -->
<g id="edge32_Node000016_Node000010" class="edge">
<title>Node16&#45;&gt;Node10</title>
<g id="a_edge32_Node000016_Node000010"><a xlink:title=" ">
<path fill="none" stroke="#63b8ff" d="M646.6,-492.27C625.16,-482.68 597.04,-470.09 578.29,-461.7"/>
<polygon fill="#63b8ff" stroke="#63b8ff" points="644.87,-495.33 655.43,-496.22 647.73,-488.94 644.87,-495.33"/>
</a>
</g>
</g>
<!-- Node16&#45;&gt;Node12 -->
<g id="edge31_Node000016_Node000012" class="edge">
<title>Node16&#45;&gt;Node12</title>
<g id="a_edge31_Node000016_Node000012"><a xlink:title=" ">
<path fill="none" stroke="#63b8ff" d="M700.76,-490.8C753.4,-457.38 878.57,-377.94 920.81,-351.13"/>
<polygon fill="#63b8ff" stroke="#63b8ff" points="699.08,-487.71 692.52,-496.03 702.84,-493.62 699.08,-487.71"/>
</a>
</g>
</g>
<!-- Node17&#45;&gt;Node7 -->
<g id="edge38_Node000017_Node000007" class="edge">
<title>Node17&#45;&gt;Node7</title>
<g id="a_edge38_Node000017_Node000007"><a xlink:title=" ">
<path fill="none" stroke="#63b8ff" d="M1243.4,-486.1C1250.77,-464.59 1261,-429.03 1261,-397.38 1261,-397.38 1261,-397.38 1261,-284.88 1261,-182.82 1329.32,-131.06 1261,-55.25 1236.62,-28.19 1001.05,-16.46 890.17,-12.41"/>
<polygon fill="#63b8ff" stroke="#63b8ff" points="1240.17,-484.73 1240.09,-495.33 1246.76,-487.09 1240.17,-484.73"/>
</a>
</g>
</g>
<!-- Node17&#45;&gt;Node9 -->
<g id="edge37_Node000017_Node000009" class="edge">
<title>Node17&#45;&gt;Node9</title>
<g id="a_edge37_Node000017_Node000009"><a xlink:title=" ">
<path fill="none" stroke="#63b8ff" d="M1229.8,-486.04C1223.6,-464.45 1215,-428.81 1215,-397.38 1215,-397.38 1215,-397.38 1215,-340.12 1215,-292.22 1161.64,-256.41 1132.88,-240.58"/>
<polygon fill="#63b8ff" stroke="#63b8ff" points="1226.42,-486.96 1232.65,-495.54 1233.12,-484.95 1226.42,-486.96"/>
</a>
</g>
</g>
<!-- Node18&#45;&gt;Node7 -->
<g id="edge45_Node000018_Node000007" class="edge">
<title>Node18&#45;&gt;Node7</title>
<g id="a_edge45_Node000018_Node000007"><a xlink:title=" ">
<path fill="none" stroke="#63b8ff" d="M901.52,-544.91C850.52,-500.51 717,-370.97 717,-231.62 717,-231.62 717,-231.62 717,-119.12 717,-68.52 776.6,-34.72 810.36,-19.63"/>
<polygon fill="#63b8ff" stroke="#63b8ff" points="899.01,-547.37 908.88,-551.21 903.56,-542.05 899.01,-547.37"/>
</a>
</g>
</g>
<!-- Node18&#45;&gt;Node9 -->
<g id="edge40_Node000018_Node000009" class="edge">
<title>Node18&#45;&gt;Node9</title>
<g id="a_edge40_Node000018_Node000009"><a xlink:title=" ">
<path fill="none" stroke="#63b8ff" d="M932.02,-542.41C968.36,-480.69 1083.59,-284.97 1109.7,-240.62"/>
<polygon fill="#63b8ff" stroke="#63b8ff" points="929.01,-540.61 926.96,-551.01 935.05,-544.17 929.01,-540.61"/>
</a>
</g>
</g>
<!-- Node18&#45;&gt;Node10 -->
<g id="edge42_Node000018_Node000010" class="edge">
<title>Node18&#45;&gt;Node10</title>
<g id="a_edge42_Node000018_Node000010"><a xlink:title=" ">
<path fill="none" stroke="#63b8ff" d="M887.58,-548.11C851.69,-534.41 792.83,-512.72 741,-497.25 693.37,-483.03 637.79,-469.97 600.48,-461.7"/>
<polygon fill="#63b8ff" stroke="#63b8ff" points="885.95,-551.23 896.54,-551.55 888.45,-544.7 885.95,-551.23"/>
</a>
</g>
</g>
<!-- Node18&#45;&gt;Node11 -->
<g id="edge44_Node000018_Node000011" class="edge">
<title>Node18&#45;&gt;Node11</title>
<g id="a_edge44_Node000018_Node000011"><a xlink:title=" ">
<path fill="none" stroke="#63b8ff" d="M922.72,-540.97C925.79,-505.11 932.07,-431.6 934.24,-406.22"/>
<polygon fill="#63b8ff" stroke="#63b8ff" points="919.25,-540.55 921.88,-550.81 926.22,-541.15 919.25,-540.55"/>
</a>
</g>
</g>
<!-- Node18&#45;&gt;Node16 -->
<g id="edge43_Node000018_Node000016" class="edge">
<title>Node18&#45;&gt;Node16</title>
<g id="a_edge43_Node000018_Node000016"><a xlink:title=" ">
<path fill="none" stroke="#63b8ff" d="M868.35,-549.63C823.47,-539.84 759.84,-525.95 718.5,-516.93"/>
<polygon fill="#63b8ff" stroke="#63b8ff" points="867.34,-553 877.85,-551.71 868.83,-546.16 867.34,-553"/>
</a>
</g>
</g>
<!-- Node18&#45;&gt;Node17 -->
<g id="edge41_Node000018_Node000017" class="edge">
<title>Node18&#45;&gt;Node17</title>
<g id="a_edge41_Node000018_Node000017"><a xlink:title=" ">
<path fill="none" stroke="#63b8ff" d="M984.6,-550.37C1042.63,-540.56 1127.44,-526.23 1182.19,-516.97"/>
<polygon fill="#63b8ff" stroke="#63b8ff" points="984.14,-546.9 974.86,-552.02 985.31,-553.8 984.14,-546.9"/>
</a>
</g>
</g>
<!-- Node19&#45;&gt;Node7 -->
<g id="edge52_Node000019_Node000007" class="edge">
<title>Node19&#45;&gt;Node7</title>
<g id="a_edge52_Node000019_Node000007"><a xlink:title=" ">
<path fill="none" stroke="#63b8ff" d="M1283.2,-598.33C1297.99,-577.69 1319,-542.3 1319,-507.88 1319,-507.88 1319,-507.88 1319,-340.12 1319,-266.91 1337,-249.59 1337,-176.38 1337,-176.38 1337,-176.38 1337,-119.12 1337,-81.66 1315.24,-72.53 1282,-55.25 1215.19,-20.51 995.51,-12.78 890.23,-11.09"/>
<polygon fill="#63b8ff" stroke="#63b8ff" points="1280.48,-596.13 1277.28,-606.23 1286.08,-600.33 1280.48,-596.13"/>
</a>
</g>
</g>
<!-- Node19&#45;&gt;Node17 -->
<g id="edge50_Node000019_Node000017" class="edge">
<title>Node19&#45;&gt;Node17</title>
<g id="a_edge50_Node000019_Node000017"><a xlink:title=" ">
<path fill="none" stroke="#63b8ff" d="M1263.01,-596.68C1255.81,-573.01 1244.04,-534.3 1238.74,-516.88"/>
<polygon fill="#63b8ff" stroke="#63b8ff" points="1259.6,-597.5 1265.86,-606.05 1266.3,-595.46 1259.6,-597.5"/>
</a>
</g>
</g>
<!-- Node19&#45;&gt;Node18 -->
<g id="edge51_Node000019_Node000018" class="edge">
<title>Node19&#45;&gt;Node18</title>
<g id="a_edge51_Node000019_Node000018"><a xlink:title=" ">
<path fill="none" stroke="#63b8ff" d="M1207.25,-606.93C1140.73,-596.75 1036.01,-580.72 973.37,-571.14"/>
<polygon fill="#63b8ff" stroke="#63b8ff" points="1206.49,-610.35 1216.9,-608.4 1207.55,-603.43 1206.49,-610.35"/>
</a>
</g>
</g>
<!-- Node20&#45;&gt;Node2 -->
<g id="edge54_Node000020_Node000002" class="edge">
<title>Node20&#45;&gt;Node2</title>
<g id="a_edge54_Node000020_Node000002"><a xlink:title=" ">
<path fill="none" stroke="#63b8ff" d="M810.71,-601.57C794.6,-592.15 774.26,-580.25 760.51,-572.2"/>
<polygon fill="#63b8ff" stroke="#63b8ff" points="808.86,-604.55 819.26,-606.58 812.39,-598.51 808.86,-604.55"/>
</a>
</g>
</g>
<!-- Node20&#45;&gt;Node3 -->
<g id="edge55_Node000020_Node000003" class="edge">
<title>Node20&#45;&gt;Node3</title>
<g id="a_edge55_Node000020_Node000003"><a xlink:title=" ">
<path fill="none" stroke="#63b8ff" d="M837.5,-596.02C838.97,-574.23 841,-538.63 841,-507.88 841,-507.88 841,-507.88 841,-395.38 841,-358.42 843.93,-314.45 845.3,-295.87"/>
<polygon fill="#63b8ff" stroke="#63b8ff" points="834.02,-595.65 836.8,-605.87 841,-596.14 834.02,-595.65"/>
</a>
</g>
</g>
<!-- Node20&#45;&gt;Node7 -->
<g id="edge58_Node000020_Node000007" class="edge">
<title>Node20&#45;&gt;Node7</title>
<g id="a_edge58_Node000020_Node000007"><a xlink:title=" ">
<path fill="none" stroke="#63b8ff" d="M763.7,-616.78C567.2,-615.96 38,-600.04 38,-452.62 38,-452.62 38,-452.62 38,-119.12 38,-79.25 64.7,-71.75 101,-55.25 161.78,-27.63 614.36,-15.31 775.91,-11.76"/>
<polygon fill="#63b8ff" stroke="#63b8ff" points="763.51,-620.28 773.52,-616.81 763.53,-613.28 763.51,-620.28"/>
</a>
</g>
</g>
<!-- Node20&#45;&gt;Node17 -->
<g id="edge56_Node000020_Node000017" class="edge">
<title>Node20&#45;&gt;Node17</title>
<g id="a_edge56_Node000020_Node000017"><a xlink:title=" ">
<path fill="none" stroke="#63b8ff" d="M880.19,-604.39C960.87,-582.51 1130.32,-536.54 1202.4,-516.99"/>
<polygon fill="#63b8ff" stroke="#63b8ff" points="879.61,-600.92 870.88,-606.91 881.44,-607.67 879.61,-600.92"/>
</a>
</g>
</g>
<!-- Node20&#45;&gt;Node18 -->
<g id="edge57_Node000020_Node000018" class="edge">
<title>Node20&#45;&gt;Node18</title>
<g id="a_edge57_Node000020_Node000018"><a xlink:title=" ">
<path fill="none" stroke="#63b8ff" d="M860.06,-601.3C875.03,-591.92 893.79,-580.17 906.51,-572.2"/>
<polygon fill="#63b8ff" stroke="#63b8ff" points="858.32,-598.26 851.7,-606.54 862.03,-604.2 858.32,-598.26"/>
</a>
</g>
</g>
<!-- Node21&#45;&gt;Node2 -->
<g id="edge60_Node000021_Node000002" class="edge">
<title>Node21&#45;&gt;Node2</title>
<g id="a_edge60_Node000021_Node000002"><a xlink:title=" ">
<path fill="none" stroke="#63b8ff" d="M1035.35,-670.82C951.37,-668.49 806.87,-659.69 767,-627 750.31,-613.32 746.25,-586.31 745.28,-572.19"/>
<polygon fill="#63b8ff" stroke="#63b8ff" points="1035.19,-674.32 1045.27,-671.07 1035.36,-667.32 1035.19,-674.32"/>
</a>
</g>
</g>
<!-- Node21&#45;&gt;Node5 -->
<g id="edge64_Node000021_Node000005" class="edge">
<title>Node21&#45;&gt;Node5</title>
<g id="a_edge64_Node000021_Node000005"><a xlink:title=" ">
<path fill="none" stroke="#63b8ff" d="M1110.16,-653.09C1115.14,-645.34 1120.45,-636.04 1124,-627 1157.6,-541.4 1245.68,-302.97 1204,-221 1180.19,-174.17 1122.97,-144.09 1090.52,-130.17"/>
<polygon fill="#63b8ff" stroke="#63b8ff" points="1107.32,-651.04 1104.63,-661.28 1113.12,-654.96 1107.32,-651.04"/>
</a>
</g>
</g>
<!-- Node21&#45;&gt;Node7 -->
<g id="edge68_Node000021_Node000007" class="edge">
<title>Node21&#45;&gt;Node7</title>
<g id="a_edge68_Node000021_Node000007"><a xlink:title=" ">
<path fill="none" stroke="#63b8ff" d="M1158.45,-665.62C1217.46,-658.83 1301.43,-646.16 1328,-627 1377.27,-591.48 1395,-568.62 1395,-507.88 1395,-507.88 1395,-507.88 1395,-119.12 1395,-17.08 1033.3,-8.94 890.24,-9.7"/>
<polygon fill="#63b8ff" stroke="#63b8ff" points="1158.43,-662.1 1148.88,-666.69 1159.21,-669.06 1158.43,-662.1"/>
</a>
</g>
</g>
<!-- Node21&#45;&gt;Node9 -->
<g id="edge62_Node000021_Node000009" class="edge">
<title>Node21&#45;&gt;Node9</title>
<g id="a_edge62_Node000021_Node000009"><a xlink:title=" ">
<path fill="none" stroke="#63b8ff" d="M1102.32,-651.73C1107.63,-630.09 1115,-594.41 1115,-563.12 1115,-563.12 1115,-563.12 1115,-340.12 1115,-303.2 1115,-259.22 1115,-240.63"/>
<polygon fill="#63b8ff" stroke="#63b8ff" points="1098.97,-650.68 1099.88,-661.24 1105.75,-652.42 1098.97,-650.68"/>
</a>
</g>
</g>
<!-- Node21&#45;&gt;Node11 -->
<g id="edge66_Node000021_Node000011" class="edge">
<title>Node21&#45;&gt;Node11</title>
<g id="a_edge66_Node000021_Node000011"><a xlink:title=" ">
<path fill="none" stroke="#63b8ff" d="M1082.24,-654.09C1075.89,-646.1 1068.65,-636.37 1063,-627 1016.14,-549.38 1027.83,-517.08 977,-442 967.7,-428.26 954.13,-414.69 944.96,-406.19"/>
<polygon fill="#63b8ff" stroke="#63b8ff" points="1079.37,-656.11 1088.41,-661.63 1084.79,-651.68 1079.37,-656.11"/>
</a>
</g>
</g>
<!-- Node21&#45;&gt;Node12 -->
<g id="edge61_Node000021_Node000012" class="edge">
<title>Node21&#45;&gt;Node12</title>
<g id="a_edge61_Node000021_Node000012"><a xlink:title=" ">
<path fill="none" stroke="#63b8ff" d="M1091.09,-651.77C1085.19,-630.16 1077,-594.51 1077,-563.12 1077,-563.12 1077,-563.12 1077,-450.62 1077,-395.86 1009.5,-365.04 967.58,-351.17"/>
<polygon fill="#63b8ff" stroke="#63b8ff" points="1087.69,-652.61 1093.8,-661.27 1094.42,-650.69 1087.69,-652.61"/>
</a>
</g>
</g>
<!-- Node21&#45;&gt;Node17 -->
<g id="edge63_Node000021_Node000017" class="edge">
<title>Node21&#45;&gt;Node17</title>
<g id="a_edge63_Node000021_Node000017"><a xlink:title=" ">
<path fill="none" stroke="#63b8ff" d="M1126.13,-657.24C1139.67,-649.57 1155.32,-639.19 1167,-627 1200.4,-592.14 1224.05,-538.13 1232.54,-516.89"/>
<polygon fill="#63b8ff" stroke="#63b8ff" points="1124.75,-654.01 1117.62,-661.84 1128.08,-660.16 1124.75,-654.01"/>
</a>
</g>
</g>
<!-- Node21&#45;&gt;Node18 -->
<g id="edge65_Node000021_Node000018" class="edge">
<title>Node21&#45;&gt;Node18</title>
<g id="a_edge65_Node000021_Node000018"><a xlink:title=" ">
<path fill="none" stroke="#63b8ff" d="M1072.75,-656.67C1035.6,-633.77 965.75,-590.71 935.54,-572.09"/>
<polygon fill="#63b8ff" stroke="#63b8ff" points="1070.66,-659.5 1081.01,-661.77 1074.33,-653.54 1070.66,-659.5"/>
</a>
</g>
</g>
<!-- Node21&#45;&gt;Node19 -->
<g id="edge67_Node000021_Node000019" class="edge">
<title>Node21&#45;&gt;Node19</title>
<g id="a_edge67_Node000021_Node000019"><a xlink:title=" ">
<path fill="none" stroke="#63b8ff" d="M1137.17,-659.19C1168.56,-649.47 1211.46,-636.19 1239.68,-627.45"/>
<polygon fill="#63b8ff" stroke="#63b8ff" points="1136.14,-655.84 1127.62,-662.14 1138.21,-662.53 1136.14,-655.84"/>
</a>
</g>
</g>
</g>
</svg>

<g id="navigator" transform="translate(0 0)" fill="#404254">
  <rect fill="#f2f5e9" fill-opacity="0.5" stroke="#606060" stroke-width=".5" x="0" y="0" width="60" height="60"/>
  <use id="zoomplus" xlink:href="#zoomPlus" x="17" y="9" onmousedown="handleZoom(evt,'in')"/>
  <use id="zoomminus" xlink:href="#zoomMin" x="42" y="9" onmousedown="handleZoom(evt,'out')"/>
  <use id="reset" xlink:href="#resetDef" x="30" y="36" onmousedown="handleReset()"/>
   <use id="arrowup" xlink:href="#arrowUp" x="0" y="0" onmousedown="handlePan(0,-1)"/>
  <use id="arrowright" xlink:href="#arrowRight" x="0" y="0" onmousedown="handlePan(1,0)"/>
  <use id="arrowdown" xlink:href="#arrowDown" x="0" y="0" onmousedown="handlePan(0,1)"/>
  <use id="arrowleft" xlink:href="#arrowLeft" x="0" y="0" onmousedown="handlePan(-1,0)"/>
</g>
<svg viewBox="0 0 15 15" width="100%" height="30px" preserveAspectRatio="xMaxYMin meet">
 <g id="arrow_out" transform="scale(0.3 0.3)">
  <a xlink:href="_fwd_8hpp__dep__incl_org.svg" target="_base">
   <rect id="button" ry="5" rx="5" y="6" x="6" height="38" width="38"
        fill="#f2f5e9" fill-opacity="0.5" stroke="#606060" stroke-width="1.0"/>
   <path id="arrow"
     d="M 11.500037,31.436501 C 11.940474,20.09759 22.043105,11.32322 32.158766,21.979434 L 37.068811,17.246167 C 37.068811,17.246167 37.088388,32 37.088388,32 L 22.160133,31.978069 C 22.160133,31.978069 26.997745,27.140456 26.997745,27.140456 C 18.528582,18.264221 13.291696,25.230495 11.500037,31.436501 z"
     style="fill:#404040;"/>
  </a>
 </g>
</svg>

<style type='text/css'>
<![CDATA[
[data-mouse-over-selected='false'] { opacity: 0.7; }
[data-mouse-over-selected='true']  { opacity: 1.0; }
]]>
</style>
<script type="application/ecmascript"><![CDATA[
document.addEventListener('DOMContentLoaded', (event) => {
  highlightEdges();
  highlightAdjacentNodes();
});
]]></script>
</svg>
