<?xml version="1.0" encoding="UTF-8" standalone="no"?>
<!DOCTYPE svg PUBLIC "-//W3C//DTD SVG 1.1//EN"
 "http://www.w3.org/Graphics/SVG/1.1/DTD/svg11.dtd">
<!-- Generated by graphviz version 12.2.1 (20241206.2353)
 -->
<!-- Title: mimic++/Fwd.hpp Pages: 1 -->
<!--zoomable 746 -->

<svg id="main" version="1.1" xmlns="http://www.w3.org/2000/svg" xmlns:xlink="http://www.w3.org/1999/xlink" xml:space="preserve" onload="init(evt)">

<style type="text/css"><![CDATA[
.node, .edge {opacity: 0.7;}
.node.selected, .edge.selected {opacity: 1;}
.edge:hover path { stroke: red; }
.edge:hover polygon { stroke: red; fill: red; }
]]></style>

<defs>
  <circle id="rim" cx="0" cy="0" r="7"/>
  <circle id="rim2" cx="0" cy="0" r="3.5"/>
  <g id="zoomPlus">
    <use xlink:href="#rim" fill="#404040"><set attributeName="fill" to="#808080" begin="zoomplus.mouseover" end="zoomplus.mouseout"/></use>
    <path d="M-4,0h8M0,-4v8" fill="none" stroke="white" stroke-width="1.5" pointer-events="none"/>
  </g>
  <g id="zoomMin">
    <use xlink:href="#rim" fill="#404040"><set attributeName="fill" to="#808080" begin="zoomminus.mouseover" end="zoomminus.mouseout"/></use>
    <path d="M-4,0h8" fill="none" stroke="white" stroke-width="1.5" pointer-events="none"/>
  </g>
  <g id="arrowUp" transform="translate(30 24)">
    <use xlink:href="#rim"/>
    <path pointer-events="none" fill="none" stroke="white" stroke-width="1.5" d="M0,-3.0v7 M-2.5,-0.5L0,-3.0L2.5,-0.5"/>
  </g>
  <g id="arrowRight" transform="rotate(90) translate(36 -43)">
    <use xlink:href="#rim"/>
    <path pointer-events="none" fill="none" stroke="white" stroke-width="1.5" d="M0,-3.0v7 M-2.5,-0.5L0,-3.0L2.5,-0.5"/>
  </g>
  <g id="arrowDown" transform="rotate(180) translate(-30 -48)">
    <use xlink:href="#rim"/>
    <path pointer-events="none" fill="none" stroke="white" stroke-width="1.5" d="M0,-3.0v7 M-2.5,-0.5L0,-3.0L2.5,-0.5"/>
  </g>
  <g id="arrowLeft" transform="rotate(270) translate(-36 17)">
    <use xlink:href="#rim"/>
    <path pointer-events="none" fill="none" stroke="white" stroke-width="1.5" d="M0,-3.0v7 M-2.5,-0.5L0,-3.0L2.5,-0.5"/>
  </g>
  <g id="resetDef">
    <use xlink:href="#rim2" fill="#404040"><set attributeName="fill" to="#808080" begin="reset.mouseover" end="reset.mouseout"/></use>
  </g>
</defs>
<script type="application/ecmascript">
var viewWidth = 1807;
var viewHeight = 746;
var sectionId = 'dynsection-1';
</script>
<script type="application/ecmascript" xlink:href="../../svg.min.js"/>
<svg id="graph" class="graph">
<g id="viewport">
<title>mimic++/Fwd.hpp</title>
<!-- Node1 -->
<g id="Node000001" class="node">
<title>Node1</title>
<g id="a_Node000001"><a xlink:title=" ">
<polygon fill="#999999" stroke="#666666" points="1216,-737.5 1122,-737.5 1122,-718.25 1216,-718.25 1216,-737.5"/>
<text text-anchor="middle" x="1169" y="-724" font-family="Helvetica,sans-Serif" font-size="10.00">mimic++/Fwd.hpp</text>
</a>
</g>
</g>
<!-- Node2 -->
<g id="Node000002" class="node">
<title>Node2</title>
<g id="a_Node000002"><a xlink:href="../../dc/d44/_call_8hpp.html" target="_top" xlink:title=" ">
<polygon fill="white" stroke="#666666" points="534.88,-571.75 443.12,-571.75 443.12,-552.5 534.88,-552.5 534.88,-571.75"/>
<text text-anchor="middle" x="489" y="-558.25" font-family="Helvetica,sans-Serif" font-size="10.00">mimic++/Call.hpp</text>
</a>
</g>
</g>
<!-- Node1&#45;&gt;Node2 -->
<g id="edge1_Node000001_Node000002" class="edge">
<title>Node1&#45;&gt;Node2</title>
<g id="a_edge1_Node000001_Node000002"><a xlink:title=" ">
<path fill="none" stroke="#63b8ff" d="M1120.41,-715.17C991.45,-684.12 642.51,-600.09 526.83,-572.23"/>
<polygon fill="#63b8ff" stroke="#63b8ff" points="1119.46,-718.54 1130,-717.48 1121.1,-711.74 1119.46,-718.54"/>
</a>
</g>
</g>
<!-- Node6 -->
<g id="Node000006" class="node">
<title>Node6</title>
<g id="a_Node000006"><a xlink:href="../../d9/dc3/_interface_mock_8hpp.html" target="_top" xlink:title=" ">
<polygon fill="white" stroke="#666666" points="1268.75,-74.5 1131.25,-74.5 1131.25,-55.25 1268.75,-55.25 1268.75,-74.5"/>
<text text-anchor="middle" x="1200" y="-61" font-family="Helvetica,sans-Serif" font-size="10.00">mimic++/InterfaceMock.hpp</text>
</a>
</g>
</g>
<!-- Node1&#45;&gt;Node6 -->
<g id="edge38_Node000001_Node000006" class="edge">
<title>Node1&#45;&gt;Node6</title>
<g id="a_edge38_Node000001_Node000006"><a xlink:title=" ">
<path fill="none" stroke="#63b8ff" d="M1227.44,-725.33C1351.73,-720.45 1631,-700.37 1631,-618.38 1631,-618.38 1631,-618.38 1631,-450.62 1631,-233.22 1322.03,-108.14 1227.29,-74.9"/>
<polygon fill="#63b8ff" stroke="#63b8ff" points="1227.65,-721.82 1217.78,-725.69 1227.91,-728.81 1227.65,-721.82"/>
</a>
</g>
</g>
<!-- Node7 -->
<g id="Node000007" class="node">
<title>Node7</title>
<g id="a_Node000007"><a xlink:href="../../d0/db9/mimic_09_09_8hpp.html" target="_top" xlink:title=" ">
<polygon fill="white" stroke="#666666" points="1050.75,-19.25 937.25,-19.25 937.25,0 1050.75,0 1050.75,-19.25"/>
<text text-anchor="middle" x="994" y="-5.75" font-family="Helvetica,sans-Serif" font-size="10.00">mimic++/mimic++.hpp</text>
</a>
</g>
</g>
<!-- Node1&#45;&gt;Node7 -->
<g id="edge74_Node000001_Node000007" class="edge">
<title>Node1&#45;&gt;Node7</title>
<g id="a_edge74_Node000001_Node000007"><a xlink:title=" ">
<path fill="none" stroke="#63b8ff" d="M1110.23,-726.29C927.43,-724.15 370.5,-715.04 193,-682.25 104.15,-665.84 0,-708.73 0,-618.38 0,-618.38 0,-618.38 0,-119.12 0,-81.66 21.33,-71.67 55,-55.25 134.03,-16.71 745.4,-11.43 936.87,-10.73"/>
<polygon fill="#63b8ff" stroke="#63b8ff" points="1110.17,-729.79 1120.21,-726.41 1110.25,-722.79 1110.17,-729.79"/>
</a>
</g>
</g>
<!-- Node10 -->
<g id="Node000010" class="node">
<title>Node10</title>
<g id="a_Node000010"><a xlink:href="../../da/dd9/_reporter_8hpp.html" target="_top" xlink:title=" ">
<polygon fill="white" stroke="#666666" points="646,-461.25 534,-461.25 534,-442 646,-442 646,-461.25"/>
<text text-anchor="middle" x="590" y="-447.75" font-family="Helvetica,sans-Serif" font-size="10.00">mimic++/Reporter.hpp</text>
</a>
</g>
</g>
<!-- Node1&#45;&gt;Node10 -->
<g id="edge49_Node000001_Node000010" class="edge">
<title>Node1&#45;&gt;Node10</title>
<g id="a_edge49_Node000001_Node000010"><a xlink:title=" ">
<path fill="none" stroke="#63b8ff" d="M1110.17,-723.76C951.05,-713.98 518.44,-677.93 434,-571.75 393.28,-520.54 501.39,-479.14 557.99,-461.64"/>
<polygon fill="#63b8ff" stroke="#63b8ff" points="1109.89,-727.25 1120.09,-724.36 1110.31,-720.26 1109.89,-727.25"/>
</a>
</g>
</g>
<!-- Node11 -->
<g id="Node000011" class="node">
<title>Node11</title>
<g id="a_Node000011"><a xlink:href="../../d8/de4/_sequence_8hpp.html" target="_top" xlink:title=" ">
<polygon fill="white" stroke="#666666" points="222.38,-406 103.62,-406 103.62,-386.75 222.38,-386.75 222.38,-406"/>
<text text-anchor="middle" x="163" y="-392.5" font-family="Helvetica,sans-Serif" font-size="10.00">mimic++/Sequence.hpp</text>
</a>
</g>
</g>
<!-- Node1&#45;&gt;Node11 -->
<g id="edge51_Node000001_Node000011" class="edge">
<title>Node1&#45;&gt;Node11</title>
<g id="a_edge51_Node000001_Node000011"><a xlink:title=" ">
<path fill="none" stroke="#63b8ff" d="M1110.49,-726.98C890.44,-726.63 125,-718.24 125,-618.38 125,-618.38 125,-618.38 125,-505.88 125,-466.96 147.05,-424.37 157.56,-406.29"/>
<polygon fill="#63b8ff" stroke="#63b8ff" points="1110.25,-730.48 1120.26,-726.99 1110.26,-723.48 1110.25,-730.48"/>
</a>
</g>
</g>
<!-- Node17 -->
<g id="Node000017" class="node">
<title>Node17</title>
<g id="a_Node000017"><a xlink:href="../../d0/d3b/_reports_8hpp.html" target="_top" xlink:title=" ">
<polygon fill="white" stroke="#666666" points="387.5,-516.5 278.5,-516.5 278.5,-497.25 387.5,-497.25 387.5,-516.5"/>
<text text-anchor="middle" x="333" y="-503" font-family="Helvetica,sans-Serif" font-size="10.00">mimic++/Reports.hpp</text>
</a>
</g>
</g>
<!-- Node1&#45;&gt;Node17 -->
<g id="edge50_Node000001_Node000017" class="edge">
<title>Node1&#45;&gt;Node17</title>
<g id="a_edge50_Node000001_Node000017"><a xlink:title=" ">
<path fill="none" stroke="#63b8ff" d="M1110.07,-727.06C940.16,-727.11 457.84,-723.56 401,-682.25 344.49,-641.18 334.94,-546.1 333.33,-516.7"/>
<polygon fill="#63b8ff" stroke="#63b8ff" points="1110,-730.56 1120,-727.06 1110,-723.56 1110,-730.56"/>
</a>
</g>
</g>
<!-- Node18 -->
<g id="Node000018" class="node">
<title>Node18</title>
<g id="a_Node000018"><a xlink:href="../../d7/ded/_call_convention_8hpp.html" target="_top" xlink:title=" ">
<polygon fill="white" stroke="#666666" points="1799.25,-571.75 1658.75,-571.75 1658.75,-552.5 1799.25,-552.5 1799.25,-571.75"/>
<text text-anchor="middle" x="1729" y="-558.25" font-family="Helvetica,sans-Serif" font-size="10.00">mimic++/CallConvention.hpp</text>
</a>
</g>
</g>
<!-- Node1&#45;&gt;Node18 -->
<g id="edge36_Node000001_Node000018" class="edge">
<title>Node1&#45;&gt;Node18</title>
<g id="a_edge36_Node000001_Node000018"><a xlink:title=" ">
<path fill="none" stroke="#63b8ff" d="M1227.58,-727.39C1338.76,-727.41 1575.46,-722.53 1645,-682.25 1690.11,-656.12 1717.01,-594.91 1725.8,-571.99"/>
<polygon fill="#63b8ff" stroke="#63b8ff" points="1227.78,-723.89 1217.78,-727.38 1227.77,-730.89 1227.78,-723.89"/>
</a>
</g>
</g>
<!-- Node19 -->
<g id="Node000019" class="node">
<title>Node19</title>
<g id="a_Node000019"><a xlink:href="../../dd/d50/_matcher_8hpp.html" target="_top" xlink:title=" ">
<polygon fill="white" stroke="#666666" points="1503.25,-516.5 1392.75,-516.5 1392.75,-497.25 1503.25,-497.25 1503.25,-516.5"/>
<text text-anchor="middle" x="1448" y="-503" font-family="Helvetica,sans-Serif" font-size="10.00">mimic++/Matcher.hpp</text>
</a>
</g>
</g>
<!-- Node1&#45;&gt;Node19 -->
<g id="edge39_Node000001_Node000019" class="edge">
<title>Node1&#45;&gt;Node19</title>
<g id="a_edge39_Node000001_Node000019"><a xlink:title=" ">
<path fill="none" stroke="#63b8ff" d="M1227.33,-720.95C1327.55,-709.43 1525.68,-680.35 1567,-627 1602.09,-581.7 1513.69,-535.94 1470.33,-516.97"/>
<polygon fill="#63b8ff" stroke="#63b8ff" points="1227.24,-717.44 1217.7,-722.04 1228.03,-724.39 1227.24,-717.44"/>
</a>
</g>
</g>
<!-- Node20 -->
<g id="Node000020" class="node">
<title>Node20</title>
<g id="a_Node000020"><a xlink:href="../../da/dab/_printer_8hpp.html" target="_top" xlink:title=" ">
<polygon fill="white" stroke="#666666" points="1260.88,-571.75 1157.12,-571.75 1157.12,-552.5 1260.88,-552.5 1260.88,-571.75"/>
<text text-anchor="middle" x="1209" y="-558.25" font-family="Helvetica,sans-Serif" font-size="10.00">mimic++/Printer.hpp</text>
</a>
</g>
</g>
<!-- Node1&#45;&gt;Node20 -->
<g id="edge42_Node000001_Node000020" class="edge">
<title>Node1&#45;&gt;Node20</title>
<g id="a_edge42_Node000001_Node000020"><a xlink:title=" ">
<path fill="none" stroke="#63b8ff" d="M1178.42,-707.44C1181.84,-699.74 1185.49,-690.72 1188,-682.25 1199.95,-641.99 1206.05,-591.93 1208.14,-571.95"/>
<polygon fill="#63b8ff" stroke="#63b8ff" points="1175.25,-705.96 1174.2,-716.5 1181.59,-708.91 1175.25,-705.96"/>
</a>
</g>
</g>
<!-- Node21 -->
<g id="Node000021" class="node">
<title>Node21</title>
<g id="a_Node000021"><a xlink:href="../../d9/dc5/_string_8hpp.html" target="_top" xlink:title=" ">
<polygon fill="white" stroke="#666666" points="1558.38,-627 1457.62,-627 1457.62,-607.75 1558.38,-607.75 1558.38,-627"/>
<text text-anchor="middle" x="1508" y="-613.5" font-family="Helvetica,sans-Serif" font-size="10.00">mimic++/String.hpp</text>
</a>
</g>
</g>
<!-- Node1&#45;&gt;Node21 -->
<g id="edge52_Node000001_Node000021" class="edge">
<title>Node1&#45;&gt;Node21</title>
<g id="a_edge52_Node000001_Node000021"><a xlink:title=" ">
<path fill="none" stroke="#63b8ff" d="M1208.14,-714.35C1277.17,-692.26 1418.93,-646.88 1479.52,-627.49"/>
<polygon fill="#63b8ff" stroke="#63b8ff" points="1207.22,-710.97 1198.76,-717.35 1209.35,-717.63 1207.22,-710.97"/>
</a>
</g>
</g>
<!-- Node22 -->
<g id="Node000022" class="node">
<title>Node22</title>
<g id="a_Node000022"><a xlink:href="../../d8/d32/_type_traits_8hpp.html" target="_top" xlink:title=" ">
<polygon fill="white" stroke="#666666" points="1401.5,-627 1280.5,-627 1280.5,-607.75 1401.5,-607.75 1401.5,-627"/>
<text text-anchor="middle" x="1341" y="-613.5" font-family="Helvetica,sans-Serif" font-size="10.00">mimic++/TypeTraits.hpp</text>
</a>
</g>
</g>
<!-- Node1&#45;&gt;Node22 -->
<g id="edge56_Node000001_Node000022" class="edge">
<title>Node1&#45;&gt;Node22</title>
<g id="a_edge56_Node000001_Node000022"><a xlink:title=" ">
<path fill="none" stroke="#63b8ff" d="M1192.7,-711.92C1229,-689.02 1297.27,-645.96 1326.79,-627.34"/>
<polygon fill="#63b8ff" stroke="#63b8ff" points="1191.24,-708.71 1184.65,-717 1194.97,-714.63 1191.24,-708.71"/>
</a>
</g>
</g>
<!-- Node23 -->
<g id="Node000023" class="node">
<title>Node23</title>
<g id="a_Node000023"><a xlink:href="../../d4/d2c/_utility_8hpp.html" target="_top" xlink:title=" ">
<polygon fill="white" stroke="#666666" points="1179,-682.25 1079,-682.25 1079,-663 1179,-663 1179,-682.25"/>
<text text-anchor="middle" x="1129" y="-668.75" font-family="Helvetica,sans-Serif" font-size="10.00">mimic++/Utility.hpp</text>
</a>
</g>
</g>
<!-- Node1&#45;&gt;Node23 -->
<g id="edge64_Node000001_Node000023" class="edge">
<title>Node1&#45;&gt;Node23</title>
<g id="a_edge64_Node000001_Node000023"><a xlink:title=" ">
<path fill="none" stroke="#63b8ff" d="M1155.53,-708.94C1148.88,-700.09 1141.14,-689.79 1135.75,-682.61"/>
<polygon fill="#63b8ff" stroke="#63b8ff" points="1152.68,-710.98 1161.49,-716.87 1158.28,-706.77 1152.68,-710.98"/>
</a>
</g>
</g>
<!-- Node3 -->
<g id="Node000003" class="node">
<title>Node3</title>
<g id="a_Node000003"><a xlink:href="../../d5/d8a/_expectation_8hpp.html" target="_top" xlink:title=" ">
<polygon fill="white" stroke="#666666" points="1099.75,-295.5 974.25,-295.5 974.25,-276.25 1099.75,-276.25 1099.75,-295.5"/>
<text text-anchor="middle" x="1037" y="-282" font-family="Helvetica,sans-Serif" font-size="10.00">mimic++/Expectation.hpp</text>
</a>
</g>
</g>
<!-- Node2&#45;&gt;Node3 -->
<g id="edge2_Node000002_Node000003" class="edge">
<title>Node2&#45;&gt;Node3</title>
<g id="a_edge2_Node000002_Node000003"><a xlink:title=" ">
<path fill="none" stroke="#63b8ff" d="M546.38,-556.39C692.83,-543.55 1069,-505.42 1069,-452.62 1069,-452.62 1069,-452.62 1069,-395.38 1069,-357.08 1050.43,-314.17 1041.58,-295.9"/>
<polygon fill="#63b8ff" stroke="#63b8ff" points="546.16,-552.9 536.5,-557.25 546.77,-559.87 546.16,-552.9"/>
</a>
</g>
</g>
<!-- Node2&#45;&gt;Node7 -->
<g id="edge35_Node000002_Node000007" class="edge">
<title>Node2&#45;&gt;Node7</title>
<g id="a_edge35_Node000002_Node000007"><a xlink:title=" ">
<path fill="none" stroke="#63b8ff" d="M431.58,-559.13C310.07,-551.53 38,-515.2 38,-342.12 38,-342.12 38,-342.12 38,-119.12 38,-81.66 59.34,-71.7 93,-55.25 168.5,-18.34 750.7,-11.95 936.92,-10.85"/>
<polygon fill="#63b8ff" stroke="#63b8ff" points="431.16,-562.61 441.34,-559.69 431.56,-555.62 431.16,-562.61"/>
</a>
</g>
</g>
<!-- Node2&#45;&gt;Node10 -->
<g id="edge17_Node000002_Node000010" class="edge">
<title>Node2&#45;&gt;Node10</title>
<g id="a_edge17_Node000002_Node000010"><a xlink:title=" ">
<path fill="none" stroke="#63b8ff" d="M504.97,-543.97C526.7,-520.63 564.8,-479.69 581.62,-461.63"/>
<polygon fill="#63b8ff" stroke="#63b8ff" points="502.55,-541.43 498.3,-551.14 507.67,-546.2 502.55,-541.43"/>
</a>
</g>
</g>
<!-- Node2&#45;&gt;Node17 -->
<g id="edge31_Node000002_Node000017" class="edge">
<title>Node2&#45;&gt;Node17</title>
<g id="a_edge31_Node000002_Node000017"><a xlink:title=" ">
<path fill="none" stroke="#63b8ff" d="M451.81,-548.43C423.41,-538.74 384.96,-525.61 359.59,-516.95"/>
<polygon fill="#63b8ff" stroke="#63b8ff" points="450.51,-551.68 461.1,-551.6 452.77,-545.06 450.51,-551.68"/>
</a>
</g>
</g>
<!-- Node4 -->
<g id="Node000004" class="node">
<title>Node4</title>
<g id="a_Node000004"><a xlink:href="../../d2/d4f/_expectation_builder_8hpp.html" target="_top" xlink:title=" ">
<polygon fill="white" stroke="#666666" points="878.75,-185 723.25,-185 723.25,-165.75 878.75,-165.75 878.75,-185"/>
<text text-anchor="middle" x="801" y="-171.5" font-family="Helvetica,sans-Serif" font-size="10.00">mimic++/ExpectationBuilder.hpp</text>
</a>
</g>
</g>
<!-- Node3&#45;&gt;Node4 -->
<g id="edge3_Node000003_Node000004" class="edge">
<title>Node3&#45;&gt;Node4</title>
<g id="a_edge3_Node000003_Node000004"><a xlink:title=" ">
<path fill="none" stroke="#63b8ff" d="M985.51,-273.03C957.38,-265.55 922.39,-254.58 893,-240.25 861.19,-224.74 828.11,-199 811.64,-185.41"/>
<polygon fill="#63b8ff" stroke="#63b8ff" points="984.3,-276.33 994.86,-275.44 986.05,-269.55 984.3,-276.33"/>
</a>
</g>
</g>
<!-- Node5 -->
<g id="Node000005" class="node">
<title>Node5</title>
<g id="a_Node000005"><a xlink:href="../../d5/dc5/_mock_8hpp.html" target="_top" xlink:title=" ">
<polygon fill="white" stroke="#666666" points="1111.62,-129.75 1012.38,-129.75 1012.38,-110.5 1111.62,-110.5 1111.62,-129.75"/>
<text text-anchor="middle" x="1062" y="-116.25" font-family="Helvetica,sans-Serif" font-size="10.00">mimic++/Mock.hpp</text>
</a>
</g>
</g>
<!-- Node3&#45;&gt;Node5 -->
<g id="edge15_Node000003_Node000005" class="edge">
<title>Node3&#45;&gt;Node5</title>
<g id="a_edge15_Node000003_Node000005"><a xlink:title=" ">
<path fill="none" stroke="#63b8ff" d="M1040.08,-264.72C1045.55,-228.86 1056.77,-155.35 1060.65,-129.97"/>
<polygon fill="#63b8ff" stroke="#63b8ff" points="1036.62,-264.16 1038.57,-274.57 1043.54,-265.22 1036.62,-264.16"/>
</a>
</g>
</g>
<!-- Node3&#45;&gt;Node7 -->
<g id="edge16_Node000003_Node000007" class="edge">
<title>Node3&#45;&gt;Node7</title>
<g id="a_edge16_Node000003_Node000007"><a xlink:title=" ">
<path fill="none" stroke="#63b8ff" d="M999.07,-271.74C960.7,-255.76 907,-224.74 907,-176.38 907,-176.38 907,-176.38 907,-119.12 907,-73.49 954.42,-36.1 979.24,-19.65"/>
<polygon fill="#63b8ff" stroke="#63b8ff" points="997.44,-274.86 1008.02,-275.3 1000.02,-268.35 997.44,-274.86"/>
</a>
</g>
</g>
<!-- Node9 -->
<g id="Node000009" class="node">
<title>Node9</title>
<g id="a_Node000009"><a xlink:href="../../d8/de5/_expectation_policies_8hpp.html" target="_top" xlink:title=" ">
<polygon fill="white" stroke="#666666" points="1269,-240.25 1109,-240.25 1109,-221 1269,-221 1269,-240.25"/>
<text text-anchor="middle" x="1189" y="-226.75" font-family="Helvetica,sans-Serif" font-size="10.00">mimic++/ExpectationPolicies.hpp</text>
</a>
</g>
</g>
<!-- Node3&#45;&gt;Node9 -->
<g id="edge11_Node000003_Node000009" class="edge">
<title>Node3&#45;&gt;Node9</title>
<g id="a_edge11_Node000003_Node000009"><a xlink:title=" ">
<path fill="none" stroke="#63b8ff" d="M1073.6,-272.05C1101.24,-262.37 1138.48,-249.32 1163.09,-240.7"/>
<polygon fill="#63b8ff" stroke="#63b8ff" points="1072.49,-268.73 1064.21,-275.34 1074.81,-275.34 1072.49,-268.73"/>
</a>
</g>
</g>
<!-- Node4&#45;&gt;Node5 -->
<g id="edge4_Node000004_Node000005" class="edge">
<title>Node4&#45;&gt;Node5</title>
<g id="a_edge4_Node000004_Node000005"><a xlink:title=" ">
<path fill="none" stroke="#63b8ff" d="M856.71,-163.01C904.75,-153.21 973.2,-139.24 1017.61,-130.18"/>
<polygon fill="#63b8ff" stroke="#63b8ff" points="856.15,-159.55 847.05,-164.98 857.55,-166.41 856.15,-159.55"/>
</a>
</g>
</g>
<!-- Node4&#45;&gt;Node7 -->
<g id="edge10_Node000004_Node000007" class="edge">
<title>Node4&#45;&gt;Node7</title>
<g id="a_edge10_Node000004_Node000007"><a xlink:title=" ">
<path fill="none" stroke="#63b8ff" d="M811.52,-155.42C826.61,-129.72 856.63,-83.75 893,-55.25 914.13,-38.7 942.35,-26.9 963.59,-19.61"/>
<polygon fill="#63b8ff" stroke="#63b8ff" points="808.5,-153.65 806.58,-164.06 814.58,-157.12 808.5,-153.65"/>
</a>
</g>
</g>
<!-- Node5&#45;&gt;Node6 -->
<g id="edge5_Node000005_Node000006" class="edge">
<title>Node5&#45;&gt;Node6</title>
<g id="a_edge5_Node000005_Node000006"><a xlink:title=" ">
<path fill="none" stroke="#63b8ff" d="M1095.9,-106.04C1120.92,-96.39 1154.33,-83.5 1176.48,-74.95"/>
<polygon fill="#63b8ff" stroke="#63b8ff" points="1094.89,-102.68 1086.82,-109.55 1097.41,-109.21 1094.89,-102.68"/>
</a>
</g>
</g>
<!-- Node5&#45;&gt;Node7 -->
<g id="edge9_Node000005_Node000007" class="edge">
<title>Node5&#45;&gt;Node7</title>
<g id="a_edge9_Node000005_Node000007"><a xlink:title=" ">
<path fill="none" stroke="#63b8ff" d="M1005.95,-106.13C989.64,-99.46 973.63,-89.46 964,-74.5 952.2,-56.16 971.31,-32.44 984.06,-19.69"/>
<polygon fill="#63b8ff" stroke="#63b8ff" points="1004.64,-109.38 1015.24,-109.53 1007.05,-102.8 1004.64,-109.38"/>
</a>
</g>
</g>
<!-- Node8 -->
<g id="Node000008" class="node">
<title>Node8</title>
<g id="a_Node000008"><a xlink:href="../../d5/d92/_object_watcher_8hpp.html" target="_top" xlink:title=" ">
<polygon fill="white" stroke="#666666" points="1112.88,-74.5 973.12,-74.5 973.12,-55.25 1112.88,-55.25 1112.88,-74.5"/>
<text text-anchor="middle" x="1043" y="-61" font-family="Helvetica,sans-Serif" font-size="10.00">mimic++/ObjectWatcher.hpp</text>
</a>
</g>
</g>
<!-- Node5&#45;&gt;Node8 -->
<g id="edge7_Node000005_Node000008" class="edge">
<title>Node5&#45;&gt;Node8</title>
<g id="a_edge7_Node000005_Node000008"><a xlink:title=" ">
<path fill="none" stroke="#63b8ff" d="M1055.09,-99.75C1052.05,-91.24 1048.63,-81.65 1046.21,-74.86"/>
<polygon fill="#63b8ff" stroke="#63b8ff" points="1051.7,-100.66 1058.35,-108.91 1058.29,-98.31 1051.7,-100.66"/>
</a>
</g>
</g>
<!-- Node6&#45;&gt;Node7 -->
<g id="edge6_Node000006_Node000007" class="edge">
<title>Node6&#45;&gt;Node7</title>
<g id="a_edge6_Node000006_Node000007"><a xlink:title=" ">
<path fill="none" stroke="#63b8ff" d="M1154.34,-52.07C1116.55,-42.3 1063.65,-28.63 1029.12,-19.7"/>
<polygon fill="#63b8ff" stroke="#63b8ff" points="1153.03,-55.35 1163.59,-54.46 1154.78,-48.57 1153.03,-55.35"/>
</a>
</g>
</g>
<!-- Node8&#45;&gt;Node7 -->
<g id="edge8_Node000008_Node000007" class="edge">
<title>Node8&#45;&gt;Node7</title>
<g id="a_edge8_Node000008_Node000007"><a xlink:title=" ">
<path fill="none" stroke="#63b8ff" d="M1027.28,-46.79C1018.96,-37.75 1009.09,-27.02 1002.27,-19.61"/>
<polygon fill="#63b8ff" stroke="#63b8ff" points="1024.54,-48.98 1033.88,-53.97 1029.69,-44.24 1024.54,-48.98"/>
</a>
</g>
</g>
<!-- Node9&#45;&gt;Node4 -->
<g id="edge12_Node000009_Node000004" class="edge">
<title>Node9&#45;&gt;Node4</title>
<g id="a_edge12_Node000009_Node000004"><a xlink:title=" ">
<path fill="none" stroke="#63b8ff" d="M1111.57,-219C1040.08,-209.19 935.02,-194.77 867.31,-185.48"/>
<polygon fill="#63b8ff" stroke="#63b8ff" points="1110.86,-222.43 1121.24,-220.33 1111.81,-215.5 1110.86,-222.43"/>
</a>
</g>
</g>
<!-- Node9&#45;&gt;Node5 -->
<g id="edge13_Node000009_Node000005" class="edge">
<title>Node9&#45;&gt;Node5</title>
<g id="a_edge13_Node000009_Node000005"><a xlink:title=" ">
<path fill="none" stroke="#63b8ff" d="M1170,-213.39C1142.88,-190.22 1093.96,-148.43 1072.54,-130.13"/>
<polygon fill="#63b8ff" stroke="#63b8ff" points="1167.58,-215.93 1177.46,-219.76 1172.13,-210.61 1167.58,-215.93"/>
</a>
</g>
</g>
<!-- Node9&#45;&gt;Node7 -->
<g id="edge14_Node000009_Node000007" class="edge">
<title>Node9&#45;&gt;Node7</title>
<g id="a_edge14_Node000009_Node000007"><a xlink:title=" ">
<path fill="none" stroke="#63b8ff" d="M1208.83,-213.44C1246.56,-180.77 1321.17,-105.73 1278,-55.25 1249.41,-21.82 1125.57,-13.27 1051.19,-11.19"/>
<polygon fill="#63b8ff" stroke="#63b8ff" points="1206.67,-210.69 1201.29,-219.82 1211.19,-216.04 1206.67,-210.69"/>
</a>
</g>
</g>
<!-- Node10&#45;&gt;Node3 -->
<g id="edge18_Node000010_Node000003" class="edge">
<title>Node10&#45;&gt;Node3</title>
<g id="a_edge18_Node000010_Node000003"><a xlink:title=" ">
<path fill="none" stroke="#63b8ff" d="M657.56,-447.79C770.11,-442.44 986.27,-429.25 1012,-406 1044.15,-376.96 1040.84,-318.04 1038.25,-295.72"/>
<polygon fill="#63b8ff" stroke="#63b8ff" points="657.68,-444.28 647.85,-448.24 658,-451.27 657.68,-444.28"/>
</a>
</g>
</g>
<!-- Node10&#45;&gt;Node7 -->
<g id="edge30_Node000010_Node000007" class="edge">
<title>Node10&#45;&gt;Node7</title>
<g id="a_edge30_Node000010_Node000007"><a xlink:title=" ">
<path fill="none" stroke="#63b8ff" d="M522.36,-442.77C453.85,-434.12 356.36,-419.62 345,-406 339.52,-399.43 343.03,-395.08 345,-386.75 349.11,-369.34 356.42,-367.39 363,-350.75 373.89,-323.21 382,-316.49 382,-286.88 382,-286.88 382,-286.88 382,-119.12 382,-63.08 785.05,-26.54 936.97,-14.76"/>
<polygon fill="#63b8ff" stroke="#63b8ff" points="521.65,-446.21 532.01,-443.97 522.52,-439.26 521.65,-446.21"/>
</a>
</g>
</g>
<!-- Node10&#45;&gt;Node11 -->
<g id="edge19_Node000010_Node000011" class="edge">
<title>Node10&#45;&gt;Node11</title>
<g id="a_edge19_Node000010_Node000011"><a xlink:title=" ">
<path fill="none" stroke="#63b8ff" d="M522.48,-442.2C439.98,-431.92 301.66,-414.67 222.83,-404.84"/>
<polygon fill="#63b8ff" stroke="#63b8ff" points="521.88,-445.66 532.24,-443.42 522.75,-438.71 521.88,-445.66"/>
</a>
</g>
</g>
<!-- Node13 -->
<g id="Node000013" class="node">
<title>Node13</title>
<g id="a_Node000013"><a xlink:href="../../d9/d42/_boost_test_8hpp.html" target="_top" xlink:title=" ">
<polygon fill="white" stroke="#666666" points="670.38,-406 509.62,-406 509.62,-386.75 670.38,-386.75 670.38,-406"/>
<text text-anchor="middle" x="590" y="-392.5" font-family="Helvetica,sans-Serif" font-size="10.00">mimic++/adapters/BoostTest.hpp</text>
</a>
</g>
</g>
<!-- Node10&#45;&gt;Node13 -->
<g id="edge26_Node000010_Node000013" class="edge">
<title>Node10&#45;&gt;Node13</title>
<g id="a_edge26_Node000010_Node000013"><a xlink:title=" ">
<path fill="none" stroke="#63b8ff" d="M590,-430.38C590,-422.09 590,-412.92 590,-406.36"/>
<polygon fill="#63b8ff" stroke="#63b8ff" points="586.5,-430.32 590,-440.32 593.5,-430.32 586.5,-430.32"/>
</a>
</g>
</g>
<!-- Node14 -->
<g id="Node000014" class="node">
<title>Node14</title>
<g id="a_Node000014"><a xlink:href="../../d3/d04/_catch2_8hpp.html" target="_top" xlink:title=" ">
<polygon fill="white" stroke="#666666" points="835.25,-406 688.75,-406 688.75,-386.75 835.25,-386.75 835.25,-406"/>
<text text-anchor="middle" x="762" y="-392.5" font-family="Helvetica,sans-Serif" font-size="10.00">mimic++/adapters/Catch2.hpp</text>
</a>
</g>
</g>
<!-- Node10&#45;&gt;Node14 -->
<g id="edge27_Node000010_Node000014" class="edge">
<title>Node10&#45;&gt;Node14</title>
<g id="a_edge27_Node000010_Node000014"><a xlink:title=" ">
<path fill="none" stroke="#63b8ff" d="M630.17,-438.19C661.56,-428.47 704.46,-415.19 732.68,-406.45"/>
<polygon fill="#63b8ff" stroke="#63b8ff" points="629.14,-434.84 620.62,-441.14 631.21,-441.53 629.14,-434.84"/>
</a>
</g>
</g>
<!-- Node15 -->
<g id="Node000015" class="node">
<title>Node15</title>
<g id="a_Node000015"><a xlink:href="../../dc/d42/_doctest_8hpp.html" target="_top" xlink:title=" ">
<polygon fill="white" stroke="#666666" points="1002.75,-406 853.25,-406 853.25,-386.75 1002.75,-386.75 1002.75,-406"/>
<text text-anchor="middle" x="928" y="-392.5" font-family="Helvetica,sans-Serif" font-size="10.00">mimic++/adapters/Doctest.hpp</text>
</a>
</g>
</g>
<!-- Node10&#45;&gt;Node15 -->
<g id="edge28_Node000010_Node000015" class="edge">
<title>Node10&#45;&gt;Node15</title>
<g id="a_edge28_Node000010_Node000015"><a xlink:title=" ">
<path fill="none" stroke="#63b8ff" d="M657.47,-440C719.75,-430.18 811.27,-415.76 870.26,-406.47"/>
<polygon fill="#63b8ff" stroke="#63b8ff" points="657.02,-436.52 647.69,-441.54 658.11,-443.44 657.02,-436.52"/>
</a>
</g>
</g>
<!-- Node16 -->
<g id="Node000016" class="node">
<title>Node16</title>
<g id="a_Node000016"><a xlink:href="../../d5/db1/gtest_8hpp.html" target="_top" xlink:title=" ">
<polygon fill="white" stroke="#666666" points="491.75,-406 354.25,-406 354.25,-386.75 491.75,-386.75 491.75,-406"/>
<text text-anchor="middle" x="423" y="-392.5" font-family="Helvetica,sans-Serif" font-size="10.00">mimic++/adapters/gtest.hpp</text>
</a>
</g>
</g>
<!-- Node10&#45;&gt;Node16 -->
<g id="edge29_Node000010_Node000016" class="edge">
<title>Node10&#45;&gt;Node16</title>
<g id="a_edge29_Node000010_Node000016"><a xlink:title=" ">
<path fill="none" stroke="#63b8ff" d="M550.99,-438.19C520.52,-428.47 478.87,-415.19 451.47,-406.45"/>
<polygon fill="#63b8ff" stroke="#63b8ff" points="549.64,-441.43 560.23,-441.13 551.76,-434.76 549.64,-441.43"/>
</a>
</g>
</g>
<!-- Node11&#45;&gt;Node4 -->
<g id="edge24_Node000011_Node000004" class="edge">
<title>Node11&#45;&gt;Node4</title>
<g id="a_edge24_Node000011_Node000004"><a xlink:title=" ">
<path fill="none" stroke="#63b8ff" d="M173.19,-376.65C181.94,-362.28 195.85,-342.99 213,-331.5 363.73,-230.5 430.18,-265.81 606,-221 658.33,-207.66 719.04,-194.06 758.63,-185.44"/>
<polygon fill="#63b8ff" stroke="#63b8ff" points="170.24,-374.76 168.29,-385.17 176.31,-378.25 170.24,-374.76"/>
</a>
</g>
</g>
<!-- Node11&#45;&gt;Node7 -->
<g id="edge25_Node000011_Node000007" class="edge">
<title>Node11&#45;&gt;Node7</title>
<g id="a_edge25_Node000011_Node000007"><a xlink:title=" ">
<path fill="none" stroke="#63b8ff" d="M160.9,-375.03C158.84,-353.25 156,-317.66 156,-286.88 156,-286.88 156,-286.88 156,-119.12 156,-40.18 748.45,-17.29 937.06,-12"/>
<polygon fill="#63b8ff" stroke="#63b8ff" points="157.41,-375.27 161.88,-384.88 164.38,-374.58 157.41,-375.27"/>
</a>
</g>
</g>
<!-- Node12 -->
<g id="Node000012" class="node">
<title>Node12</title>
<g id="a_Node000012"><a xlink:href="../../d6/d17/_control_policy_8hpp.html" target="_top" xlink:title=" ">
<polygon fill="white" stroke="#666666" points="354.12,-350.75 221.88,-350.75 221.88,-331.5 354.12,-331.5 354.12,-350.75"/>
<text text-anchor="middle" x="288" y="-337.25" font-family="Helvetica,sans-Serif" font-size="10.00">mimic++/ControlPolicy.hpp</text>
</a>
</g>
</g>
<!-- Node11&#45;&gt;Node12 -->
<g id="edge20_Node000011_Node000012" class="edge">
<title>Node11&#45;&gt;Node12</title>
<g id="a_edge20_Node000011_Node000012"><a xlink:title=" ">
<path fill="none" stroke="#63b8ff" d="M194.63,-381.9C217.18,-372.29 246.9,-359.63 266.69,-351.2"/>
<polygon fill="#63b8ff" stroke="#63b8ff" points="193.43,-378.61 185.6,-385.75 196.17,-385.05 193.43,-378.61"/>
</a>
</g>
</g>
<!-- Node12&#45;&gt;Node3 -->
<g id="edge21_Node000012_Node000003" class="edge">
<title>Node12&#45;&gt;Node3</title>
<g id="a_edge21_Node000012_Node000003"><a xlink:title=" ">
<path fill="none" stroke="#63b8ff" d="M365.74,-334.6C514.62,-324.01 837.27,-301.08 973.87,-291.36"/>
<polygon fill="#63b8ff" stroke="#63b8ff" points="365.71,-331.09 355.98,-335.29 366.2,-338.07 365.71,-331.09"/>
</a>
</g>
</g>
<!-- Node12&#45;&gt;Node4 -->
<g id="edge22_Node000012_Node000004" class="edge">
<title>Node12&#45;&gt;Node4</title>
<g id="a_edge22_Node000012_Node000004"><a xlink:title=" ">
<path fill="none" stroke="#63b8ff" d="M327.04,-327.66C426.17,-296.02 685.89,-213.12 772.46,-185.48"/>
<polygon fill="#63b8ff" stroke="#63b8ff" points="326.22,-324.25 317.75,-330.63 328.34,-330.92 326.22,-324.25"/>
</a>
</g>
</g>
<!-- Node12&#45;&gt;Node7 -->
<g id="edge23_Node000012_Node000007" class="edge">
<title>Node12&#45;&gt;Node7</title>
<g id="a_edge23_Node000012_Node000007"><a xlink:title=" ">
<path fill="none" stroke="#63b8ff" d="M296.28,-320.43C304.54,-298.98 316,-263.48 316,-231.62 316,-231.62 316,-231.62 316,-119.12 316,-82.52 335.52,-72.13 368,-55.25 417.73,-29.4 791.89,-16.28 936.86,-12.12"/>
<polygon fill="#63b8ff" stroke="#63b8ff" points="293.07,-319.05 292.58,-329.64 299.56,-321.67 293.07,-319.05"/>
</a>
</g>
</g>
<!-- Node17&#45;&gt;Node7 -->
<g id="edge34_Node000017_Node000007" class="edge">
<title>Node17&#45;&gt;Node7</title>
<g id="a_edge34_Node000017_Node000007"><a xlink:title=" ">
<path fill="none" stroke="#63b8ff" d="M267.05,-494.32C213.5,-481.59 139.77,-455.9 95,-406 75.22,-383.95 76,-371.74 76,-342.12 76,-342.12 76,-342.12 76,-119.12 76,-41.32 163,-71.95 239,-55.25 371.98,-26.04 784.94,-14.87 937.02,-11.68"/>
<polygon fill="#63b8ff" stroke="#63b8ff" points="266.15,-497.7 276.67,-496.51 267.7,-490.88 266.15,-497.7"/>
</a>
</g>
</g>
<!-- Node17&#45;&gt;Node10 -->
<g id="edge33_Node000017_Node000010" class="edge">
<title>Node17&#45;&gt;Node10</title>
<g id="a_edge33_Node000017_Node000010"><a xlink:title=" ">
<path fill="none" stroke="#63b8ff" d="M388.15,-494.45C435.44,-484.65 502.65,-470.72 546.29,-461.68"/>
<polygon fill="#63b8ff" stroke="#63b8ff" points="387.45,-491.02 378.37,-496.47 388.87,-497.87 387.45,-491.02"/>
</a>
</g>
</g>
<!-- Node17&#45;&gt;Node12 -->
<g id="edge32_Node000017_Node000012" class="edge">
<title>Node17&#45;&gt;Node12</title>
<g id="a_edge32_Node000017_Node000012"><a xlink:title=" ">
<path fill="none" stroke="#63b8ff" d="M327.59,-486.19C317.78,-450.5 297.44,-376.46 290.43,-350.97"/>
<polygon fill="#63b8ff" stroke="#63b8ff" points="324.15,-486.9 330.18,-495.61 330.9,-485.04 324.15,-486.9"/>
</a>
</g>
</g>
<!-- Node18&#45;&gt;Node7 -->
<g id="edge37_Node000018_Node000007" class="edge">
<title>Node18&#45;&gt;Node7</title>
<g id="a_edge37_Node000018_Node000007"><a xlink:title=" ">
<path fill="none" stroke="#63b8ff" d="M1712.16,-543.8C1694.42,-523.63 1669,-488.49 1669,-452.62 1669,-452.62 1669,-452.62 1669,-119.12 1669,-81.95 1648.14,-72.1 1615,-55.25 1565.5,-30.08 1195.31,-16.57 1051.18,-12.21"/>
<polygon fill="#63b8ff" stroke="#63b8ff" points="1709.52,-546.09 1718.86,-551.08 1714.67,-541.35 1709.52,-546.09"/>
</a>
</g>
</g>
<!-- Node19&#45;&gt;Node7 -->
<g id="edge41_Node000019_Node000007" class="edge">
<title>Node19&#45;&gt;Node7</title>
<g id="a_edge41_Node000019_Node000007"><a xlink:title=" ">
<path fill="none" stroke="#63b8ff" d="M1448.3,-485.51C1448.59,-463.71 1449,-428.1 1449,-397.38 1449,-397.38 1449,-397.38 1449,-119.12 1449,-88.8 1449.01,-73.78 1425,-55.25 1396,-32.87 1161.69,-18.72 1051.23,-13.22"/>
<polygon fill="#63b8ff" stroke="#63b8ff" points="1444.8,-485.31 1448.16,-495.36 1451.8,-485.41 1444.8,-485.31"/>
</a>
</g>
</g>
<!-- Node19&#45;&gt;Node9 -->
<g id="edge40_Node000019_Node000009" class="edge">
<title>Node19&#45;&gt;Node9</title>
<g id="a_edge40_Node000019_Node000009"><a xlink:title=" ">
<path fill="none" stroke="#63b8ff" d="M1381.29,-495.54C1326.89,-482.87 1259,-455.43 1259,-397.38 1259,-397.38 1259,-397.38 1259,-340.12 1259,-309.8 1251.62,-301.62 1235,-276.25 1225.73,-262.1 1211.25,-249.02 1201.02,-240.73"/>
<polygon fill="#63b8ff" stroke="#63b8ff" points="1380.32,-498.91 1390.84,-497.63 1381.82,-492.07 1380.32,-498.91"/>
</a>
</g>
</g>
<!-- Node20&#45;&gt;Node7 -->
<g id="edge48_Node000020_Node000007" class="edge">
<title>Node20&#45;&gt;Node7</title>
<g id="a_edge48_Node000020_Node000007"><a xlink:title=" ">
<path fill="none" stroke="#63b8ff" d="M1223.75,-543.42C1257.02,-501.62 1335,-392.4 1335,-286.88 1335,-286.88 1335,-286.88 1335,-119.12 1335,-86.09 1324.45,-73.63 1297,-55.25 1257.79,-28.99 1127.29,-17.69 1050.94,-13.23"/>
<polygon fill="#63b8ff" stroke="#63b8ff" points="1221.05,-541.2 1217.46,-551.17 1226.48,-545.61 1221.05,-541.2"/>
</a>
</g>
</g>
<!-- Node20&#45;&gt;Node9 -->
<g id="edge43_Node000020_Node000009" class="edge">
<title>Node20&#45;&gt;Node9</title>
<g id="a_edge43_Node000020_Node000009"><a xlink:title=" ">
<path fill="none" stroke="#63b8ff" d="M1212.6,-540.83C1216.13,-519.09 1221,-483.53 1221,-452.62 1221,-452.62 1221,-452.62 1221,-340.12 1221,-301.83 1202.43,-258.92 1193.58,-240.65"/>
<polygon fill="#63b8ff" stroke="#63b8ff" points="1209.15,-540.22 1210.92,-550.67 1216.05,-541.4 1209.15,-540.22"/>
</a>
</g>
</g>
<!-- Node20&#45;&gt;Node10 -->
<g id="edge45_Node000020_Node000010" class="edge">
<title>Node20&#45;&gt;Node10</title>
<g id="a_edge45_Node000020_Node000010"><a xlink:title=" ">
<path fill="none" stroke="#63b8ff" d="M1145.98,-550.08C1023.42,-528.6 755.08,-481.56 641.94,-461.73"/>
<polygon fill="#63b8ff" stroke="#63b8ff" points="1145.08,-553.47 1155.53,-551.75 1146.29,-546.58 1145.08,-553.47"/>
</a>
</g>
</g>
<!-- Node20&#45;&gt;Node11 -->
<g id="edge47_Node000020_Node000011" class="edge">
<title>Node20&#45;&gt;Node11</title>
<g id="a_edge47_Node000020_Node000011"><a xlink:title=" ">
<path fill="none" stroke="#63b8ff" d="M1145.57,-553.8C1075.2,-545.49 958.32,-531.19 858,-516.5 614.23,-480.79 324.22,-427.61 211.32,-406.49"/>
<polygon fill="#63b8ff" stroke="#63b8ff" points="1145.04,-557.26 1155.38,-554.95 1145.85,-550.3 1145.04,-557.26"/>
</a>
</g>
</g>
<!-- Node20&#45;&gt;Node17 -->
<g id="edge46_Node000020_Node000017" class="edge">
<title>Node20&#45;&gt;Node17</title>
<g id="a_edge46_Node000020_Node000017"><a xlink:title=" ">
<path fill="none" stroke="#63b8ff" d="M1145.45,-557.26C980.84,-547.26 542.61,-520.62 387.97,-511.22"/>
<polygon fill="#63b8ff" stroke="#63b8ff" points="1145.12,-560.75 1155.31,-557.86 1145.55,-553.76 1145.12,-560.75"/>
</a>
</g>
</g>
<!-- Node20&#45;&gt;Node19 -->
<g id="edge44_Node000020_Node000019" class="edge">
<title>Node20&#45;&gt;Node19</title>
<g id="a_edge44_Node000020_Node000019"><a xlink:title=" ">
<path fill="none" stroke="#63b8ff" d="M1260.85,-549.57C1304.79,-539.78 1366.94,-525.94 1407.35,-516.93"/>
<polygon fill="#63b8ff" stroke="#63b8ff" points="1260.29,-546.11 1251.29,-551.7 1261.81,-552.94 1260.29,-546.11"/>
</a>
</g>
</g>
<!-- Node21&#45;&gt;Node7 -->
<g id="edge55_Node000021_Node000007" class="edge">
<title>Node21&#45;&gt;Node7</title>
<g id="a_edge55_Node000021_Node000007"><a xlink:title=" ">
<path fill="none" stroke="#63b8ff" d="M1531.74,-600.59C1556.89,-581.77 1593,-547.8 1593,-507.88 1593,-507.88 1593,-507.88 1593,-450.62 1593,-377.76 1601,-359.74 1601,-286.88 1601,-286.88 1601,-286.88 1601,-119.12 1601,-61.43 1543.07,-72.42 1488,-55.25 1407.85,-30.25 1163.18,-17.45 1051.13,-12.76"/>
<polygon fill="#63b8ff" stroke="#63b8ff" points="1529.75,-597.72 1523.65,-606.38 1533.82,-603.41 1529.75,-597.72"/>
</a>
</g>
</g>
<!-- Node21&#45;&gt;Node19 -->
<g id="edge53_Node000021_Node000019" class="edge">
<title>Node21&#45;&gt;Node19</title>
<g id="a_edge53_Node000021_Node000019"><a xlink:title=" ">
<path fill="none" stroke="#63b8ff" d="M1506.21,-596.46C1504.35,-583.3 1500.59,-566.06 1493,-552.5 1484.83,-537.91 1470.5,-524.91 1460.2,-516.76"/>
<polygon fill="#63b8ff" stroke="#63b8ff" points="1502.69,-596.51 1507.3,-606.06 1509.64,-595.72 1502.69,-596.51"/>
</a>
</g>
</g>
<!-- Node21&#45;&gt;Node20 -->
<g id="edge54_Node000021_Node000020" class="edge">
<title>Node21&#45;&gt;Node20</title>
<g id="a_edge54_Node000021_Node000020"><a xlink:title=" ">
<path fill="none" stroke="#63b8ff" d="M1446.28,-605.38C1391.29,-595.59 1311.76,-581.43 1260.22,-572.25"/>
<polygon fill="#63b8ff" stroke="#63b8ff" points="1445.33,-608.77 1455.79,-607.08 1446.56,-601.88 1445.33,-608.77"/>
</a>
</g>
</g>
<!-- Node22&#45;&gt;Node2 -->
<g id="edge57_Node000022_Node000002" class="edge">
<title>Node22&#45;&gt;Node2</title>
<g id="a_edge57_Node000022_Node000002"><a xlink:title=" ">
<path fill="none" stroke="#63b8ff" d="M1268.74,-611.86C1098.44,-601.21 675.73,-574.8 535.23,-566.01"/>
<polygon fill="#63b8ff" stroke="#63b8ff" points="1268.36,-615.34 1278.56,-612.47 1268.8,-608.36 1268.36,-615.34"/>
</a>
</g>
</g>
<!-- Node22&#45;&gt;Node3 -->
<g id="edge59_Node000022_Node000003" class="edge">
<title>Node22&#45;&gt;Node3</title>
<g id="a_edge59_Node000022_Node000003"><a xlink:title=" ">
<path fill="none" stroke="#63b8ff" d="M1324.16,-599.61C1310.23,-586.14 1289.62,-567.14 1270,-552.5 1201.91,-501.68 1107,-537.59 1107,-452.62 1107,-452.62 1107,-452.62 1107,-395.38 1107,-352.33 1067.62,-312.82 1047.94,-295.76"/>
<polygon fill="#63b8ff" stroke="#63b8ff" points="1321.59,-601.99 1331.19,-606.49 1326.49,-596.99 1321.59,-601.99"/>
</a>
</g>
</g>
<!-- Node22&#45;&gt;Node5 -->
<g id="edge61_Node000022_Node000005" class="edge">
<title>Node22&#45;&gt;Node5</title>
<g id="a_edge61_Node000022_Node000005"><a xlink:title=" ">
<path fill="none" stroke="#63b8ff" d="M1343.99,-596.39C1352.24,-533.62 1369.02,-337.62 1278,-221 1236.69,-168.08 1160.79,-142.1 1110.86,-130.18"/>
<polygon fill="#63b8ff" stroke="#63b8ff" points="1340.58,-595.51 1342.66,-605.9 1347.52,-596.48 1340.58,-595.51"/>
</a>
</g>
</g>
<!-- Node22&#45;&gt;Node7 -->
<g id="edge63_Node000022_Node000007" class="edge">
<title>Node22&#45;&gt;Node7</title>
<g id="a_edge63_Node000022_Node000007"><a xlink:title=" ">
<path fill="none" stroke="#63b8ff" d="M1385.22,-603.8C1425.81,-589.7 1483.8,-562.56 1512,-516.5 1565.37,-429.32 1525,-389.09 1525,-286.88 1525,-286.88 1525,-286.88 1525,-119.12 1525,-23.21 1188.22,-11.25 1051.08,-10.36"/>
<polygon fill="#63b8ff" stroke="#63b8ff" points="1384.35,-600.4 1375.97,-606.87 1386.56,-607.04 1384.35,-600.4"/>
</a>
</g>
</g>
<!-- Node22&#45;&gt;Node18 -->
<g id="edge58_Node000022_Node000018" class="edge">
<title>Node22&#45;&gt;Node18</title>
<g id="a_edge58_Node000022_Node000018"><a xlink:title=" ">
<path fill="none" stroke="#63b8ff" d="M1412.77,-606.53C1484.25,-596.71 1593.1,-581.78 1662.63,-572.23"/>
<polygon fill="#63b8ff" stroke="#63b8ff" points="1412.56,-603.02 1403.12,-607.85 1413.51,-609.96 1412.56,-603.02"/>
</a>
</g>
</g>
<!-- Node22&#45;&gt;Node19 -->
<g id="edge60_Node000022_Node000019" class="edge">
<title>Node22&#45;&gt;Node19</title>
<g id="a_edge60_Node000022_Node000019"><a xlink:title=" ">
<path fill="none" stroke="#63b8ff" d="M1357.61,-599.53C1380.58,-576.24 1421.23,-535.02 1439.12,-516.88"/>
<polygon fill="#63b8ff" stroke="#63b8ff" points="1355.35,-596.84 1350.82,-606.42 1360.33,-601.76 1355.35,-596.84"/>
</a>
</g>
</g>
<!-- Node22&#45;&gt;Node20 -->
<g id="edge62_Node000022_Node000020" class="edge">
<title>Node22&#45;&gt;Node20</title>
<g id="a_edge62_Node000022_Node000020"><a xlink:title=" ">
<path fill="none" stroke="#63b8ff" d="M1308.25,-603.16C1284.35,-593.52 1252.59,-580.71 1231.5,-572.2"/>
<polygon fill="#63b8ff" stroke="#63b8ff" points="1306.62,-606.28 1317.2,-606.78 1309.24,-599.79 1306.62,-606.28"/>
</a>
</g>
</g>
<!-- Node23&#45;&gt;Node2 -->
<g id="edge65_Node000023_Node000002" class="edge">
<title>Node23&#45;&gt;Node2</title>
<g id="a_edge65_Node000023_Node000002"><a xlink:title=" ">
<path fill="none" stroke="#63b8ff" d="M1067.4,-661.18C939.59,-639.51 648.11,-590.1 535.03,-570.93"/>
<polygon fill="#63b8ff" stroke="#63b8ff" points="1066.58,-664.59 1077.02,-662.81 1067.75,-657.69 1066.58,-664.59"/>
</a>
</g>
</g>
<!-- Node23&#45;&gt;Node5 -->
<g id="edge69_Node000023_Node000005" class="edge">
<title>Node23&#45;&gt;Node5</title>
<g id="a_edge69_Node000023_Node000005"><a xlink:title=" ">
<path fill="none" stroke="#63b8ff" d="M1128.9,-651.08C1128.95,-638.55 1129.19,-622.21 1130,-607.75 1133.88,-538.59 1145,-521.89 1145,-452.62 1145,-452.62 1145,-452.62 1145,-395.38 1145,-381.23 1079.45,-175.64 1064.86,-130.04"/>
<polygon fill="#63b8ff" stroke="#63b8ff" points="1125.4,-651.01 1128.91,-661.01 1132.4,-651 1125.4,-651.01"/>
</a>
</g>
</g>
<!-- Node23&#45;&gt;Node7 -->
<g id="edge73_Node000023_Node000007" class="edge">
<title>Node23&#45;&gt;Node7</title>
<g id="a_edge73_Node000023_Node000007"><a xlink:title=" ">
<path fill="none" stroke="#63b8ff" d="M1157.18,-657.6C1188.35,-640.87 1238.34,-610.27 1270,-571.75 1341.03,-485.35 1373,-453.98 1373,-342.12 1373,-342.12 1373,-342.12 1373,-229.62 1373,-149 1388.01,-102.94 1323,-55.25 1280.88,-24.35 1133.48,-14.84 1051,-11.91"/>
<polygon fill="#63b8ff" stroke="#63b8ff" points="1155.96,-654.29 1148.73,-662.03 1159.21,-660.49 1155.96,-654.29"/>
</a>
</g>
</g>
<!-- Node23&#45;&gt;Node9 -->
<g id="edge67_Node000023_Node000009" class="edge">
<title>Node23&#45;&gt;Node9</title>
<g id="a_edge67_Node000023_Node000009"><a xlink:title=" ">
<path fill="none" stroke="#63b8ff" d="M1131.14,-651.13C1133.89,-627.21 1139.38,-586.59 1148,-552.5 1159.53,-506.9 1183,-499.66 1183,-452.62 1183,-452.62 1183,-452.62 1183,-340.12 1183,-303.15 1186.52,-259.19 1188.17,-240.62"/>
<polygon fill="#63b8ff" stroke="#63b8ff" points="1127.66,-650.72 1130.05,-661.04 1134.62,-651.48 1127.66,-650.72"/>
</a>
</g>
</g>
<!-- Node23&#45;&gt;Node11 -->
<g id="edge71_Node000023_Node000011" class="edge">
<title>Node23&#45;&gt;Node11</title>
<g id="a_edge71_Node000023_Node000011"><a xlink:title=" ">
<path fill="none" stroke="#63b8ff" d="M1067.59,-669.28C933.73,-663.83 619.27,-649.06 515,-627 443.86,-611.95 428.52,-598.74 361,-571.75 304.6,-549.2 281.72,-556.49 236,-516.5 198.94,-484.08 174.75,-428.17 166.33,-406.41"/>
<polygon fill="#63b8ff" stroke="#63b8ff" points="1067.18,-672.77 1077.32,-669.67 1067.47,-665.78 1067.18,-672.77"/>
</a>
</g>
</g>
<!-- Node23&#45;&gt;Node12 -->
<g id="edge66_Node000023_Node000012" class="edge">
<title>Node23&#45;&gt;Node12</title>
<g id="a_edge66_Node000023_Node000012"><a xlink:title=" ">
<path fill="none" stroke="#63b8ff" d="M1067.42,-664.83C995.3,-656.68 872.3,-642.22 767,-627 618.52,-605.54 579.59,-607.96 434,-571.75 396.48,-562.42 291.59,-547.88 269,-516.5 231.29,-464.1 269.07,-378.9 283.17,-351.16"/>
<polygon fill="#63b8ff" stroke="#63b8ff" points="1066.72,-668.27 1077.04,-665.91 1067.5,-661.31 1066.72,-668.27"/>
</a>
</g>
</g>
<!-- Node23&#45;&gt;Node19 -->
<g id="edge68_Node000023_Node000019" class="edge">
<title>Node23&#45;&gt;Node19</title>
<g id="a_edge68_Node000023_Node000019"><a xlink:title=" ">
<path fill="none" stroke="#63b8ff" d="M1190.6,-669.33C1263.44,-665.37 1378.89,-654.78 1411,-627 1444.57,-597.95 1448.1,-539.04 1448.18,-516.72"/>
<polygon fill="#63b8ff" stroke="#63b8ff" points="1190.61,-665.82 1180.8,-669.83 1190.97,-672.81 1190.61,-665.82"/>
</a>
</g>
</g>
<!-- Node23&#45;&gt;Node20 -->
<g id="edge70_Node000023_Node000020" class="edge">
<title>Node23&#45;&gt;Node20</title>
<g id="a_edge70_Node000023_Node000020"><a xlink:title=" ">
<path fill="none" stroke="#63b8ff" d="M1142.34,-653.54C1159.66,-630.05 1189.22,-589.95 1202.36,-572.13"/>
<polygon fill="#63b8ff" stroke="#63b8ff" points="1139.56,-651.4 1136.44,-661.53 1145.2,-655.56 1139.56,-651.4"/>
</a>
</g>
</g>
<!-- Node23&#45;&gt;Node21 -->
<g id="edge72_Node000023_Node000021" class="edge">
<title>Node23&#45;&gt;Node21</title>
<g id="a_edge72_Node000023_Node000021"><a xlink:title=" ">
<path fill="none" stroke="#63b8ff" d="M1190.35,-663.01C1264.54,-652.58 1388.04,-635.23 1457.16,-625.52"/>
<polygon fill="#63b8ff" stroke="#63b8ff" points="1190.24,-659.49 1180.83,-664.34 1191.22,-666.42 1190.24,-659.49"/>
</a>
</g>
</g>
</g>
</svg>

<g id="navigator" transform="translate(0 0)" fill="#404254">
  <rect fill="#f2f5e9" fill-opacity="0.5" stroke="#606060" stroke-width=".5" x="0" y="0" width="60" height="60"/>
  <use id="zoomplus" xlink:href="#zoomPlus" x="17" y="9" onmousedown="handleZoom(evt,'in')"/>
  <use id="zoomminus" xlink:href="#zoomMin" x="42" y="9" onmousedown="handleZoom(evt,'out')"/>
  <use id="reset" xlink:href="#resetDef" x="30" y="36" onmousedown="handleReset()"/>
   <use id="arrowup" xlink:href="#arrowUp" x="0" y="0" onmousedown="handlePan(0,-1)"/>
  <use id="arrowright" xlink:href="#arrowRight" x="0" y="0" onmousedown="handlePan(1,0)"/>
  <use id="arrowdown" xlink:href="#arrowDown" x="0" y="0" onmousedown="handlePan(0,1)"/>
  <use id="arrowleft" xlink:href="#arrowLeft" x="0" y="0" onmousedown="handlePan(-1,0)"/>
</g>
<svg viewBox="0 0 15 15" width="100%" height="30px" preserveAspectRatio="xMaxYMin meet">
 <g id="arrow_out" transform="scale(0.3 0.3)">
  <a xlink:href="_fwd_8hpp__dep__incl_org.svg" target="_base">
   <rect id="button" ry="5" rx="5" y="6" x="6" height="38" width="38"
        fill="#f2f5e9" fill-opacity="0.5" stroke="#606060" stroke-width="1.0"/>
   <path id="arrow"
     d="M 11.500037,31.436501 C 11.940474,20.09759 22.043105,11.32322 32.158766,21.979434 L 37.068811,17.246167 C 37.068811,17.246167 37.088388,32 37.088388,32 L 22.160133,31.978069 C 22.160133,31.978069 26.997745,27.140456 26.997745,27.140456 C 18.528582,18.264221 13.291696,25.230495 11.500037,31.436501 z"
     style="fill:#404040;"/>
  </a>
 </g>
</svg>

<style type='text/css'>
<![CDATA[
[data-mouse-over-selected='false'] { opacity: 0.7; }
[data-mouse-over-selected='true']  { opacity: 1.0; }
]]>
</style>
<script type="application/ecmascript"><![CDATA[
document.addEventListener('DOMContentLoaded', (event) => {
  highlightEdges();
  highlightAdjacentNodes();
});
]]></script>
</svg>
