<?xml version="1.0" encoding="UTF-8" standalone="no"?>
<!DOCTYPE svg PUBLIC "-//W3C//DTD SVG 1.1//EN"
 "http://www.w3.org/Graphics/SVG/1.1/DTD/svg11.dtd">
<!-- Generated by graphviz version 11.0.0 (20240428.1522)
 -->
<!-- Title: mimic++/Fwd.hpp Pages: 1 -->
<svg width="557pt" height="414pt"
 viewBox="0.00 0.00 556.62 414.00" xmlns="http://www.w3.org/2000/svg" xmlns:xlink="http://www.w3.org/1999/xlink">
<g id="graph0" class="graph" transform="scale(1 1) rotate(0) translate(4 410)">
<title>mimic++/Fwd.hpp</title>
<!-- Node1 -->
<g id="Node000001" class="node">
<title>Node1</title>
<g id="a_Node000001"><a xlink:title=" ">
<polygon fill="#999999" stroke="#666666" points="324.75,-406 230.75,-406 230.75,-386.75 324.75,-386.75 324.75,-406"/>
<text text-anchor="middle" x="277.75" y="-392.5" font-family="Helvetica,sans-Serif" font-size="10.00">mimic++/Fwd.hpp</text>
</a>
</g>
</g>
<!-- Node2 -->
<g id="Node000002" class="node">
<title>Node2</title>
<g id="a_Node000002"><a xlink:href="../../dc/d44/_call_8hpp.html" target="_top" xlink:title=" ">
<polygon fill="white" stroke="#666666" points="209.62,-295.5 117.88,-295.5 117.88,-276.25 209.62,-276.25 209.62,-295.5"/>
<text text-anchor="middle" x="163.75" y="-282" font-family="Helvetica,sans-Serif" font-size="10.00">mimic++/Call.hpp</text>
</a>
</g>
</g>
<!-- Node1&#45;&gt;Node2 -->
<g id="edge1_Node000001_Node000002" class="edge">
<title>Node1&#45;&gt;Node2</title>
<g id="a_edge1_Node000001_Node000002"><a xlink:title=" ">
<path fill="none" stroke="#63b8ff" d="M257.48,-379.63C247.12,-371.33 234.48,-360.82 223.75,-350.75 204,-332.22 182.71,-308.58 171.57,-295.89"/>
<polygon fill="#63b8ff" stroke="#63b8ff" points="255.03,-382.15 265.04,-385.61 259.37,-376.66 255.03,-382.15"/>
</a>
</g>
</g>
<!-- Node7 -->
<g id="Node000007" class="node">
<title>Node7</title>
<g id="a_Node000007"><a xlink:href="../../da/dd9/_reporter_8hpp.html" target="_top" xlink:title=" ">
<polygon fill="white" stroke="#666666" points="280.75,-240.25 168.75,-240.25 168.75,-221 280.75,-221 280.75,-240.25"/>
<text text-anchor="middle" x="224.75" y="-226.75" font-family="Helvetica,sans-Serif" font-size="10.00">mimic++/Reporter.hpp</text>
</a>
</g>
</g>
<!-- Node1&#45;&gt;Node7 -->
<g id="edge19_Node000001_Node000007" class="edge">
<title>Node1&#45;&gt;Node7</title>
<g id="a_edge19_Node000001_Node000007"><a xlink:title=" ">
<path fill="none" stroke="#63b8ff" d="M271.38,-375.69C259.83,-340 235.86,-265.96 227.61,-240.47"/>
<polygon fill="#63b8ff" stroke="#63b8ff" points="268.03,-376.69 274.43,-385.13 274.68,-374.54 268.03,-376.69"/>
</a>
</g>
</g>
<!-- Node10 -->
<g id="Node000010" class="node">
<title>Node10</title>
<g id="a_Node000010"><a xlink:href="../../da/dab/_printer_8hpp.html" target="_top" xlink:title=" ">
<polygon fill="white" stroke="#666666" points="369.62,-295.5 265.88,-295.5 265.88,-276.25 369.62,-276.25 369.62,-295.5"/>
<text text-anchor="middle" x="317.75" y="-282" font-family="Helvetica,sans-Serif" font-size="10.00">mimic++/Printer.hpp</text>
</a>
</g>
</g>
<!-- Node1&#45;&gt;Node10 -->
<g id="edge13_Node000001_Node000010" class="edge">
<title>Node1&#45;&gt;Node10</title>
<g id="a_edge13_Node000001_Node000010"><a xlink:title=" ">
<path fill="none" stroke="#63b8ff" d="M284.89,-376.01C293.61,-352.37 307.98,-313.38 314.43,-295.88"/>
<polygon fill="#63b8ff" stroke="#63b8ff" points="281.72,-374.48 281.55,-385.08 288.29,-376.9 281.72,-374.48"/>
</a>
</g>
</g>
<!-- Node12 -->
<g id="Node000012" class="node">
<title>Node12</title>
<g id="a_Node000012"><a xlink:href="../../d4/d2c/_utility_8hpp.html" target="_top" xlink:title=" ">
<polygon fill="white" stroke="#666666" points="447.75,-350.75 347.75,-350.75 347.75,-331.5 447.75,-331.5 447.75,-350.75"/>
<text text-anchor="middle" x="397.75" y="-337.25" font-family="Helvetica,sans-Serif" font-size="10.00">mimic++/Utility.hpp</text>
</a>
</g>
</g>
<!-- Node1&#45;&gt;Node12 -->
<g id="edge20_Node000001_Node000012" class="edge">
<title>Node1&#45;&gt;Node12</title>
<g id="a_edge20_Node000001_Node000012"><a xlink:title=" ">
<path fill="none" stroke="#63b8ff" d="M308.41,-381.77C330.02,-372.18 358.38,-359.59 377.29,-351.2"/>
<polygon fill="#63b8ff" stroke="#63b8ff" points="307.21,-378.47 299.49,-385.73 310.05,-384.87 307.21,-378.47"/>
</a>
</g>
</g>
<!-- Node3 -->
<g id="Node000003" class="node">
<title>Node3</title>
<g id="a_Node000003"><a xlink:href="../../d5/d8a/_expectation_8hpp.html" target="_top" xlink:title=" ">
<polygon fill="white" stroke="#666666" points="125.5,-185 0,-185 0,-165.75 125.5,-165.75 125.5,-185"/>
<text text-anchor="middle" x="62.75" y="-171.5" font-family="Helvetica,sans-Serif" font-size="10.00">mimic++/Expectation.hpp</text>
</a>
</g>
</g>
<!-- Node2&#45;&gt;Node3 -->
<g id="edge2_Node000002_Node000003" class="edge">
<title>Node2&#45;&gt;Node3</title>
<g id="a_edge2_Node000002_Node000003"><a xlink:title=" ">
<path fill="none" stroke="#63b8ff" d="M147.78,-267.72C126.05,-244.38 87.95,-203.44 71.13,-185.38"/>
<polygon fill="#63b8ff" stroke="#63b8ff" points="145.08,-269.95 154.45,-274.89 150.2,-265.18 145.08,-269.95"/>
</a>
</g>
</g>
<!-- Node2&#45;&gt;Node7 -->
<g id="edge9_Node000002_Node000007" class="edge">
<title>Node2&#45;&gt;Node7</title>
<g id="a_edge9_Node000002_Node000007"><a xlink:title=" ">
<path fill="none" stroke="#63b8ff" d="M182.64,-268.39C193.17,-259.19 205.87,-248.1 214.56,-240.52"/>
<polygon fill="#63b8ff" stroke="#63b8ff" points="180.47,-265.63 175.24,-274.85 185.07,-270.91 180.47,-265.63"/>
</a>
</g>
</g>
<!-- Node4 -->
<g id="Node000004" class="node">
<title>Node4</title>
<g id="a_Node000004"><a xlink:href="../../d2/d4f/_expectation_builder_8hpp.html" target="_top" xlink:title=" ">
<polygon fill="white" stroke="#666666" points="278.5,-74.5 123,-74.5 123,-55.25 278.5,-55.25 278.5,-74.5"/>
<text text-anchor="middle" x="200.75" y="-61" font-family="Helvetica,sans-Serif" font-size="10.00">mimic++/ExpectationBuilder.hpp</text>
</a>
</g>
</g>
<!-- Node3&#45;&gt;Node4 -->
<g id="edge3_Node000003_Node000004" class="edge">
<title>Node3&#45;&gt;Node4</title>
<g id="a_edge3_Node000003_Node000004"><a xlink:title=" ">
<path fill="none" stroke="#63b8ff" d="M83.01,-158.45C112.4,-135.34 165.92,-93.26 189.3,-74.88"/>
<polygon fill="#63b8ff" stroke="#63b8ff" points="80.93,-155.63 75.23,-164.56 85.26,-161.13 80.93,-155.63"/>
</a>
</g>
</g>
<!-- Node5 -->
<g id="Node000005" class="node">
<title>Node5</title>
<g id="a_Node000005"><a xlink:href="../../d5/dc5/_mock_8hpp.html" target="_top" xlink:title=" ">
<polygon fill="white" stroke="#666666" points="250.38,-19.25 151.12,-19.25 151.12,0 250.38,0 250.38,-19.25"/>
<text text-anchor="middle" x="200.75" y="-5.75" font-family="Helvetica,sans-Serif" font-size="10.00">mimic++/Mock.hpp</text>
</a>
</g>
</g>
<!-- Node3&#45;&gt;Node5 -->
<g id="edge8_Node000003_Node000005" class="edge">
<title>Node3&#45;&gt;Node5</title>
<g id="a_edge8_Node000003_Node000005"><a xlink:title=" ">
<path fill="none" stroke="#63b8ff" d="M66.83,-154.55C73.01,-128.85 86.98,-83.95 113.75,-55.25 129.5,-38.37 153.07,-26.83 171.7,-19.72"/>
<polygon fill="#63b8ff" stroke="#63b8ff" points="63.48,-153.47 64.73,-163.99 70.32,-154.99 63.48,-153.47"/>
</a>
</g>
</g>
<!-- Node6 -->
<g id="Node000006" class="node">
<title>Node6</title>
<g id="a_Node000006"><a xlink:href="../../d8/de5/_expectation_policies_8hpp.html" target="_top" xlink:title=" ">
<polygon fill="white" stroke="#666666" points="392.75,-129.75 232.75,-129.75 232.75,-110.5 392.75,-110.5 392.75,-129.75"/>
<text text-anchor="middle" x="312.75" y="-116.25" font-family="Helvetica,sans-Serif" font-size="10.00">mimic++/ExpectationPolicies.hpp</text>
</a>
</g>
</g>
<!-- Node3&#45;&gt;Node6 -->
<g id="edge5_Node000003_Node000006" class="edge">
<title>Node3&#45;&gt;Node6</title>
<g id="a_edge5_Node000003_Node000006"><a xlink:title=" ">
<path fill="none" stroke="#63b8ff" d="M116.69,-162.88C162.68,-153.09 227.87,-139.2 270.23,-130.18"/>
<polygon fill="#63b8ff" stroke="#63b8ff" points="115.97,-159.46 106.92,-164.97 117.43,-166.31 115.97,-159.46"/>
</a>
</g>
</g>
<!-- Node4&#45;&gt;Node5 -->
<g id="edge4_Node000004_Node000005" class="edge">
<title>Node4&#45;&gt;Node5</title>
<g id="a_edge4_Node000004_Node000005"><a xlink:title=" ">
<path fill="none" stroke="#63b8ff" d="M200.75,-43.63C200.75,-35.34 200.75,-26.17 200.75,-19.61"/>
<polygon fill="#63b8ff" stroke="#63b8ff" points="197.25,-43.57 200.75,-53.57 204.25,-43.57 197.25,-43.57"/>
</a>
</g>
</g>
<!-- Node6&#45;&gt;Node4 -->
<g id="edge6_Node000006_Node000004" class="edge">
<title>Node6&#45;&gt;Node4</title>
<g id="a_edge6_Node000006_Node000004"><a xlink:title=" ">
<path fill="none" stroke="#63b8ff" d="M283.58,-105.26C263.48,-95.7 237.33,-83.27 219.84,-74.95"/>
<polygon fill="#63b8ff" stroke="#63b8ff" points="281.85,-108.31 292.38,-109.44 284.86,-101.99 281.85,-108.31"/>
</a>
</g>
</g>
<!-- Node6&#45;&gt;Node5 -->
<g id="edge7_Node000006_Node000005" class="edge">
<title>Node6&#45;&gt;Node5</title>
<g id="a_edge7_Node000006_Node000005"><a xlink:title=" ">
<path fill="none" stroke="#63b8ff" d="M308.84,-99.09C305.3,-85.39 298.88,-67.56 287.75,-55.25 272.38,-38.25 249.03,-26.77 230.39,-19.71"/>
<polygon fill="#63b8ff" stroke="#63b8ff" points="305.4,-99.76 311,-108.75 312.23,-98.23 305.4,-99.76"/>
</a>
</g>
</g>
<!-- Node7&#45;&gt;Node3 -->
<g id="edge10_Node000007_Node000003" class="edge">
<title>Node7&#45;&gt;Node3</title>
<g id="a_edge10_Node000007_Node000003"><a xlink:title=" ">
<path fill="none" stroke="#63b8ff" d="M186.52,-217.06C156.99,-207.35 116.83,-194.15 90.37,-185.45"/>
<polygon fill="#63b8ff" stroke="#63b8ff" points="185.24,-220.32 195.83,-220.12 187.42,-213.67 185.24,-220.32"/>
</a>
</g>
</g>
<!-- Node8 -->
<g id="Node000008" class="node">
<title>Node8</title>
<g id="a_Node000008"><a xlink:href="../../d8/de4/_sequence_8hpp.html" target="_top" xlink:title=" ">
<polygon fill="white" stroke="#666666" points="464.12,-185 345.38,-185 345.38,-165.75 464.12,-165.75 464.12,-185"/>
<text text-anchor="middle" x="404.75" y="-171.5" font-family="Helvetica,sans-Serif" font-size="10.00">mimic++/Sequence.hpp</text>
</a>
</g>
</g>
<!-- Node7&#45;&gt;Node8 -->
<g id="edge11_Node000007_Node000008" class="edge">
<title>Node7&#45;&gt;Node8</title>
<g id="a_edge11_Node000007_Node000008"><a xlink:title=" ">
<path fill="none" stroke="#63b8ff" d="M265.93,-217.44C298.85,-207.7 344.28,-194.27 374.07,-185.45"/>
<polygon fill="#63b8ff" stroke="#63b8ff" points="265.33,-213.97 256.74,-220.16 267.32,-220.68 265.33,-213.97"/>
</a>
</g>
</g>
<!-- Node9 -->
<g id="Node000009" class="node">
<title>Node9</title>
<g id="a_Node000009"><a xlink:href="../../d3/d04/_catch2_8hpp.html" target="_top" xlink:title=" ">
<polygon fill="white" stroke="#666666" points="290,-185 143.5,-185 143.5,-165.75 290,-165.75 290,-185"/>
<text text-anchor="middle" x="216.75" y="-171.5" font-family="Helvetica,sans-Serif" font-size="10.00">mimic++/adapters/Catch2.hpp</text>
</a>
</g>
</g>
<!-- Node7&#45;&gt;Node9 -->
<g id="edge12_Node000007_Node000009" class="edge">
<title>Node7&#45;&gt;Node9</title>
<g id="a_edge12_Node000007_Node000009"><a xlink:title=" ">
<path fill="none" stroke="#63b8ff" d="M221.75,-209.67C220.5,-201.3 219.1,-192 218.1,-185.36"/>
<polygon fill="#63b8ff" stroke="#63b8ff" points="218.26,-209.97 223.2,-219.34 225.18,-208.93 218.26,-209.97"/>
</a>
</g>
</g>
<!-- Node10&#45;&gt;Node6 -->
<g id="edge14_Node000010_Node000006" class="edge">
<title>Node10&#45;&gt;Node6</title>
<g id="a_edge14_Node000010_Node000006"><a xlink:title=" ">
<path fill="none" stroke="#63b8ff" d="M317.13,-264.72C316.04,-228.86 313.8,-155.35 313.02,-129.97"/>
<polygon fill="#63b8ff" stroke="#63b8ff" points="313.63,-264.67 317.43,-274.56 320.63,-264.46 313.63,-264.67"/>
</a>
</g>
</g>
<!-- Node10&#45;&gt;Node7 -->
<g id="edge17_Node000010_Node000007" class="edge">
<title>Node10&#45;&gt;Node7</title>
<g id="a_edge17_Node000010_Node000007"><a xlink:title=" ">
<path fill="none" stroke="#63b8ff" d="M292.37,-270.34C275.84,-260.88 254.79,-248.83 240.6,-240.7"/>
<polygon fill="#63b8ff" stroke="#63b8ff" points="290.24,-273.16 300.66,-275.09 293.72,-267.08 290.24,-273.16"/>
</a>
</g>
</g>
<!-- Node10&#45;&gt;Node8 -->
<g id="edge18_Node000010_Node000008" class="edge">
<title>Node10&#45;&gt;Node8</title>
<g id="a_edge18_Node000010_Node000008"><a xlink:title=" ">
<path fill="none" stroke="#63b8ff" d="M332,-267.1C350.8,-243.66 383.17,-203.28 397.53,-185.38"/>
<polygon fill="#63b8ff" stroke="#63b8ff" points="329.34,-264.82 325.82,-274.82 334.8,-269.2 329.34,-264.82"/>
</a>
</g>
</g>
<!-- Node11 -->
<g id="Node000011" class="node">
<title>Node11</title>
<g id="a_Node000011"><a xlink:href="../../dd/d50/_matcher_8hpp.html" target="_top" xlink:title=" ">
<polygon fill="white" stroke="#666666" points="536,-240.25 425.5,-240.25 425.5,-221 536,-221 536,-240.25"/>
<text text-anchor="middle" x="480.75" y="-226.75" font-family="Helvetica,sans-Serif" font-size="10.00">mimic++/Matcher.hpp</text>
</a>
</g>
</g>
<!-- Node10&#45;&gt;Node11 -->
<g id="edge15_Node000010_Node000011" class="edge">
<title>Node10&#45;&gt;Node11</title>
<g id="a_edge15_Node000010_Node000011"><a xlink:title=" ">
<path fill="none" stroke="#63b8ff" d="M356.21,-272.31C385.93,-262.6 426.34,-249.4 452.96,-240.7"/>
<polygon fill="#63b8ff" stroke="#63b8ff" points="355.26,-268.94 346.84,-275.37 357.43,-275.59 355.26,-268.94"/>
</a>
</g>
</g>
<!-- Node11&#45;&gt;Node6 -->
<g id="edge16_Node000011_Node000006" class="edge">
<title>Node11&#45;&gt;Node6</title>
<g id="a_edge16_Node000011_Node000006"><a xlink:title=" ">
<path fill="none" stroke="#63b8ff" d="M483.62,-209.27C484.39,-195.42 482.92,-177.54 472.75,-165.75 452.88,-142.71 422.21,-131.08 393.02,-125.37"/>
<polygon fill="#63b8ff" stroke="#63b8ff" points="480.15,-208.75 482.62,-219.05 487.12,-209.46 480.15,-208.75"/>
</a>
</g>
</g>
<!-- Node12&#45;&gt;Node2 -->
<g id="edge21_Node000012_Node000002" class="edge">
<title>Node12&#45;&gt;Node2</title>
<g id="a_edge21_Node000012_Node000002"><a xlink:title=" ">
<path fill="none" stroke="#63b8ff" d="M346.71,-328.51C303.7,-318.72 243.03,-304.92 203.55,-295.93"/>
<polygon fill="#63b8ff" stroke="#63b8ff" points="345.79,-331.89 356.31,-330.7 347.34,-325.06 345.79,-331.89"/>
</a>
</g>
</g>
<!-- Node12&#45;&gt;Node6 -->
<g id="edge22_Node000012_Node000006" class="edge">
<title>Node12&#45;&gt;Node6</title>
<g id="a_edge22_Node000012_Node000006"><a xlink:title=" ">
<path fill="none" stroke="#63b8ff" d="M440.19,-327.5C490.87,-309.84 566.29,-273.85 544.75,-221 520.88,-162.42 450.25,-138.15 393.13,-128.12"/>
<polygon fill="#63b8ff" stroke="#63b8ff" points="439.29,-324.12 430.92,-330.62 441.51,-330.75 439.29,-324.12"/>
</a>
</g>
</g>
<!-- Node12&#45;&gt;Node8 -->
<g id="edge24_Node000012_Node000008" class="edge">
<title>Node12&#45;&gt;Node8</title>
<g id="a_edge24_Node000012_Node000008"><a xlink:title=" ">
<path fill="none" stroke="#63b8ff" d="M398.61,-319.97C400.14,-284.11 403.29,-210.6 404.37,-185.22"/>
<polygon fill="#63b8ff" stroke="#63b8ff" points="395.12,-319.67 398.19,-329.81 402.11,-319.97 395.12,-319.67"/>
</a>
</g>
</g>
<!-- Node12&#45;&gt;Node11 -->
<g id="edge23_Node000012_Node000011" class="edge">
<title>Node12&#45;&gt;Node11</title>
<g id="a_edge23_Node000012_Node000011"><a xlink:title=" ">
<path fill="none" stroke="#63b8ff" d="M411.35,-322.35C429.28,-298.91 460.17,-258.53 473.86,-240.63"/>
<polygon fill="#63b8ff" stroke="#63b8ff" points="408.76,-319.97 405.46,-330.04 414.32,-324.23 408.76,-319.97"/>
</a>
</g>
</g>
</g>
</svg>
