<?xml version="1.0" encoding="UTF-8" standalone="no"?>
<!DOCTYPE svg PUBLIC "-//W3C//DTD SVG 1.1//EN"
 "http://www.w3.org/Graphics/SVG/1.1/DTD/svg11.dtd">
<!-- Generated by graphviz version 12.2.1 (20241206.2353)
 -->
<!-- Title: mimic++/Fwd.hpp Pages: 1 -->
<!--zoomable 746 -->

<svg id="main" version="1.1" xmlns="http://www.w3.org/2000/svg" xmlns:xlink="http://www.w3.org/1999/xlink" xml:space="preserve" onload="init(evt)">

<style type="text/css"><![CDATA[
.node, .edge {opacity: 0.7;}
.node.selected, .edge.selected {opacity: 1;}
.edge:hover path { stroke: red; }
.edge:hover polygon { stroke: red; fill: red; }
]]></style>

<defs>
  <circle id="rim" cx="0" cy="0" r="7"/>
  <circle id="rim2" cx="0" cy="0" r="3.5"/>
  <g id="zoomPlus">
    <use xlink:href="#rim" fill="#404040"><set attributeName="fill" to="#808080" begin="zoomplus.mouseover" end="zoomplus.mouseout"/></use>
    <path d="M-4,0h8M0,-4v8" fill="none" stroke="white" stroke-width="1.5" pointer-events="none"/>
  </g>
  <g id="zoomMin">
    <use xlink:href="#rim" fill="#404040"><set attributeName="fill" to="#808080" begin="zoomminus.mouseover" end="zoomminus.mouseout"/></use>
    <path d="M-4,0h8" fill="none" stroke="white" stroke-width="1.5" pointer-events="none"/>
  </g>
  <g id="arrowUp" transform="translate(30 24)">
    <use xlink:href="#rim"/>
    <path pointer-events="none" fill="none" stroke="white" stroke-width="1.5" d="M0,-3.0v7 M-2.5,-0.5L0,-3.0L2.5,-0.5"/>
  </g>
  <g id="arrowRight" transform="rotate(90) translate(36 -43)">
    <use xlink:href="#rim"/>
    <path pointer-events="none" fill="none" stroke="white" stroke-width="1.5" d="M0,-3.0v7 M-2.5,-0.5L0,-3.0L2.5,-0.5"/>
  </g>
  <g id="arrowDown" transform="rotate(180) translate(-30 -48)">
    <use xlink:href="#rim"/>
    <path pointer-events="none" fill="none" stroke="white" stroke-width="1.5" d="M0,-3.0v7 M-2.5,-0.5L0,-3.0L2.5,-0.5"/>
  </g>
  <g id="arrowLeft" transform="rotate(270) translate(-36 17)">
    <use xlink:href="#rim"/>
    <path pointer-events="none" fill="none" stroke="white" stroke-width="1.5" d="M0,-3.0v7 M-2.5,-0.5L0,-3.0L2.5,-0.5"/>
  </g>
  <g id="resetDef">
    <use xlink:href="#rim2" fill="#404040"><set attributeName="fill" to="#808080" begin="reset.mouseover" end="reset.mouseout"/></use>
  </g>
</defs>
<script type="application/ecmascript">
var viewWidth = 1620;
var viewHeight = 746;
var sectionId = 'dynsection-1';
</script>
<script type="application/ecmascript" xlink:href="../../svg.min.js"/>
<svg id="graph" class="graph">
<g id="viewport">
<title>mimic++/Fwd.hpp</title>
<!-- Node1 -->
<g id="Node000001" class="node">
<title>Node1</title>
<g id="a_Node000001"><a xlink:title=" ">
<polygon fill="#999999" stroke="#666666" points="1039,-737.5 945,-737.5 945,-718.25 1039,-718.25 1039,-737.5"/>
<text text-anchor="middle" x="992" y="-724" font-family="Helvetica,sans-Serif" font-size="10.00">mimic++/Fwd.hpp</text>
</a>
</g>
</g>
<!-- Node2 -->
<g id="Node000002" class="node">
<title>Node2</title>
<g id="a_Node000002"><a xlink:href="../../dc/d44/_call_8hpp.html" target="_top" xlink:title=" ">
<polygon fill="white" stroke="#666666" points="857.88,-571.75 766.12,-571.75 766.12,-552.5 857.88,-552.5 857.88,-571.75"/>
<text text-anchor="middle" x="812" y="-558.25" font-family="Helvetica,sans-Serif" font-size="10.00">mimic++/Call.hpp</text>
</a>
</g>
</g>
<!-- Node1&#45;&gt;Node2 -->
<g id="edge1_Node000001_Node000002" class="edge">
<title>Node1&#45;&gt;Node2</title>
<g id="a_edge1_Node000001_Node000002"><a xlink:title=" ">
<path fill="none" stroke="#63b8ff" d="M945.75,-714.35C904.09,-700.42 845.06,-673.49 816,-627 805.4,-610.04 807.73,-585.35 810.05,-572.19"/>
<polygon fill="#63b8ff" stroke="#63b8ff" points="944.44,-717.61 955.03,-717.32 946.58,-710.94 944.44,-717.61"/>
</a>
</g>
</g>
<!-- Node6 -->
<g id="Node000006" class="node">
<title>Node6</title>
<g id="a_Node000006"><a xlink:href="../../d9/dc3/_interface_mock_8hpp.html" target="_top" xlink:title=" ">
<polygon fill="white" stroke="#666666" points="1421.75,-74.5 1284.25,-74.5 1284.25,-55.25 1421.75,-55.25 1421.75,-74.5"/>
<text text-anchor="middle" x="1353" y="-61" font-family="Helvetica,sans-Serif" font-size="10.00">mimic++/InterfaceMock.hpp</text>
</a>
</g>
</g>
<!-- Node1&#45;&gt;Node6 -->
<g id="edge36_Node000001_Node000006" class="edge">
<title>Node1&#45;&gt;Node6</title>
<g id="a_edge36_Node000001_Node000006"><a xlink:title=" ">
<path fill="none" stroke="#63b8ff" d="M1050.43,-726.87C1139.79,-725.62 1315.19,-718.26 1459,-682.25 1530.48,-664.35 1612,-692.06 1612,-618.38 1612,-618.38 1612,-618.38 1612,-505.88 1612,-306.43 1411.93,-117.68 1363.47,-74.89"/>
<polygon fill="#63b8ff" stroke="#63b8ff" points="1050.66,-723.37 1040.7,-726.98 1050.74,-730.37 1050.66,-723.37"/>
</a>
</g>
</g>
<!-- Node7 -->
<g id="Node000007" class="node">
<title>Node7</title>
<g id="a_Node000007"><a xlink:href="../../d0/db9/mimic_09_09_8hpp.html" target="_top" xlink:title=" ">
<polygon fill="white" stroke="#666666" points="1078.75,-19.25 965.25,-19.25 965.25,0 1078.75,0 1078.75,-19.25"/>
<text text-anchor="middle" x="1022" y="-5.75" font-family="Helvetica,sans-Serif" font-size="10.00">mimic++/mimic++.hpp</text>
</a>
</g>
</g>
<!-- Node1&#45;&gt;Node7 -->
<g id="edge71_Node000001_Node000007" class="edge">
<title>Node1&#45;&gt;Node7</title>
<g id="a_edge71_Node000001_Node000007"><a xlink:title=" ">
<path fill="none" stroke="#63b8ff" d="M933.6,-726.66C720.91,-725.11 0,-712.9 0,-618.38 0,-618.38 0,-618.38 0,-119.12 0,-81.08 22.64,-71.6 57,-55.25 138.82,-16.31 770.28,-11.31 965.01,-10.7"/>
<polygon fill="#63b8ff" stroke="#63b8ff" points="933.28,-730.16 943.31,-726.72 933.33,-723.16 933.28,-730.16"/>
</a>
</g>
</g>
<!-- Node10 -->
<g id="Node000010" class="node">
<title>Node10</title>
<g id="a_Node000010"><a xlink:href="../../da/dd9/_reporter_8hpp.html" target="_top" xlink:title=" ">
<polygon fill="white" stroke="#666666" points="766,-461.25 654,-461.25 654,-442 766,-442 766,-461.25"/>
<text text-anchor="middle" x="710" y="-447.75" font-family="Helvetica,sans-Serif" font-size="10.00">mimic++/Reporter.hpp</text>
</a>
</g>
</g>
<!-- Node1&#45;&gt;Node10 -->
<g id="edge47_Node000001_Node000010" class="edge">
<title>Node1&#45;&gt;Node10</title>
<g id="a_edge47_Node000001_Node000010"><a xlink:title=" ">
<path fill="none" stroke="#63b8ff" d="M933.53,-718.01C845.99,-703.06 691,-669.4 691,-618.38 691,-618.38 691,-618.38 691,-561.12 691,-523.64 702.14,-479.95 707.36,-461.53"/>
<polygon fill="#63b8ff" stroke="#63b8ff" points="932.7,-721.42 943.14,-719.62 933.86,-714.51 932.7,-721.42"/>
</a>
</g>
</g>
<!-- Node11 -->
<g id="Node000011" class="node">
<title>Node11</title>
<g id="a_Node000011"><a xlink:href="../../d8/de4/_sequence_8hpp.html" target="_top" xlink:title=" ">
<polygon fill="white" stroke="#666666" points="1168.38,-406 1049.62,-406 1049.62,-386.75 1168.38,-386.75 1168.38,-406"/>
<text text-anchor="middle" x="1109" y="-392.5" font-family="Helvetica,sans-Serif" font-size="10.00">mimic++/Sequence.hpp</text>
</a>
</g>
</g>
<!-- Node1&#45;&gt;Node11 -->
<g id="edge49_Node000001_Node000011" class="edge">
<title>Node1&#45;&gt;Node11</title>
<g id="a_edge49_Node000001_Node000011"><a xlink:title=" ">
<path fill="none" stroke="#63b8ff" d="M992,-706.51C992,-684.7 992,-649.09 992,-618.38 992,-618.38 992,-618.38 992,-561.12 992,-490.2 1065.57,-428.79 1096.03,-406.4"/>
<polygon fill="#63b8ff" stroke="#63b8ff" points="988.5,-706.36 992,-716.36 995.5,-706.36 988.5,-706.36"/>
</a>
</g>
</g>
<!-- Node17 -->
<g id="Node000017" class="node">
<title>Node17</title>
<g id="a_Node000017"><a xlink:href="../../d0/d3b/_reports_8hpp.html" target="_top" xlink:title=" ">
<polygon fill="white" stroke="#666666" points="866.5,-516.5 757.5,-516.5 757.5,-497.25 866.5,-497.25 866.5,-516.5"/>
<text text-anchor="middle" x="812" y="-503" font-family="Helvetica,sans-Serif" font-size="10.00">mimic++/Reports.hpp</text>
</a>
</g>
</g>
<!-- Node1&#45;&gt;Node17 -->
<g id="edge48_Node000001_Node000017" class="edge">
<title>Node1&#45;&gt;Node17</title>
<g id="a_edge48_Node000001_Node000017"><a xlink:title=" ">
<path fill="none" stroke="#63b8ff" d="M933.57,-717.35C905.36,-710.76 872.07,-699.88 846,-682.25 793.77,-646.92 777.97,-631.22 757,-571.75 754.15,-563.68 753.32,-560.22 757,-552.5 764.62,-536.51 781.07,-524.39 794,-516.85"/>
<polygon fill="#63b8ff" stroke="#63b8ff" points="932.51,-720.7 943.03,-719.43 934.02,-713.87 932.51,-720.7"/>
</a>
</g>
</g>
<!-- Node18 -->
<g id="Node000018" class="node">
<title>Node18</title>
<g id="a_Node000018"><a xlink:href="../../dd/d50/_matcher_8hpp.html" target="_top" xlink:title=" ">
<polygon fill="white" stroke="#666666" points="1480.25,-516.5 1369.75,-516.5 1369.75,-497.25 1480.25,-497.25 1480.25,-516.5"/>
<text text-anchor="middle" x="1425" y="-503" font-family="Helvetica,sans-Serif" font-size="10.00">mimic++/Matcher.hpp</text>
</a>
</g>
</g>
<!-- Node1&#45;&gt;Node18 -->
<g id="edge37_Node000001_Node000018" class="edge">
<title>Node1&#45;&gt;Node18</title>
<g id="a_edge37_Node000001_Node000018"><a xlink:title=" ">
<path fill="none" stroke="#63b8ff" d="M1050.81,-723.72C1133.27,-718.5 1278.4,-706.18 1325,-682.25 1392.05,-647.81 1417.15,-547.35 1423.35,-516.79"/>
<polygon fill="#63b8ff" stroke="#63b8ff" points="1050.64,-720.22 1040.87,-724.33 1051.07,-727.21 1050.64,-720.22"/>
</a>
</g>
</g>
<!-- Node19 -->
<g id="Node000019" class="node">
<title>Node19</title>
<g id="a_Node000019"><a xlink:href="../../da/dab/_printer_8hpp.html" target="_top" xlink:title=" ">
<polygon fill="white" stroke="#666666" points="1199.88,-571.75 1096.12,-571.75 1096.12,-552.5 1199.88,-552.5 1199.88,-571.75"/>
<text text-anchor="middle" x="1148" y="-558.25" font-family="Helvetica,sans-Serif" font-size="10.00">mimic++/Printer.hpp</text>
</a>
</g>
</g>
<!-- Node1&#45;&gt;Node19 -->
<g id="edge40_Node000001_Node000019" class="edge">
<title>Node1&#45;&gt;Node19</title>
<g id="a_edge40_Node000001_Node000019"><a xlink:title=" ">
<path fill="none" stroke="#63b8ff" d="M1008.16,-709.91C1041.02,-675.42 1114.65,-598.13 1139.57,-571.97"/>
<polygon fill="#63b8ff" stroke="#63b8ff" points="1005.79,-707.32 1001.43,-716.98 1010.86,-712.15 1005.79,-707.32"/>
</a>
</g>
</g>
<!-- Node20 -->
<g id="Node000020" class="node">
<title>Node20</title>
<g id="a_Node000020"><a xlink:href="../../d9/dc5/_string_8hpp.html" target="_top" xlink:title=" ">
<polygon fill="white" stroke="#666666" points="1546.38,-627 1445.62,-627 1445.62,-607.75 1546.38,-607.75 1546.38,-627"/>
<text text-anchor="middle" x="1496" y="-613.5" font-family="Helvetica,sans-Serif" font-size="10.00">mimic++/String.hpp</text>
</a>
</g>
</g>
<!-- Node1&#45;&gt;Node20 -->
<g id="edge50_Node000001_Node000020" class="edge">
<title>Node1&#45;&gt;Node20</title>
<g id="a_edge50_Node000001_Node000020"><a xlink:title=" ">
<path fill="none" stroke="#63b8ff" d="M1050.52,-725.76C1154.3,-723 1365.88,-713.6 1432,-682.25 1458.38,-669.74 1480.21,-641.69 1490.18,-627.28"/>
<polygon fill="#63b8ff" stroke="#63b8ff" points="1050.74,-722.26 1040.83,-726.01 1050.92,-729.25 1050.74,-722.26"/>
</a>
</g>
</g>
<!-- Node21 -->
<g id="Node000021" class="node">
<title>Node21</title>
<g id="a_Node000021"><a xlink:href="../../d8/d32/_type_traits_8hpp.html" target="_top" xlink:title=" ">
<polygon fill="white" stroke="#666666" points="963.5,-627 842.5,-627 842.5,-607.75 963.5,-607.75 963.5,-627"/>
<text text-anchor="middle" x="903" y="-613.5" font-family="Helvetica,sans-Serif" font-size="10.00">mimic++/TypeTraits.hpp</text>
</a>
</g>
</g>
<!-- Node1&#45;&gt;Node21 -->
<g id="edge54_Node000001_Node000021" class="edge">
<title>Node1&#45;&gt;Node21</title>
<g id="a_edge54_Node000001_Node000021"><a xlink:title=" ">
<path fill="none" stroke="#63b8ff" d="M977.42,-709.1C958.19,-685.66 925.07,-645.28 910.38,-627.38"/>
<polygon fill="#63b8ff" stroke="#63b8ff" points="974.71,-711.31 983.76,-716.83 980.12,-706.87 974.71,-711.31"/>
</a>
</g>
</g>
<!-- Node22 -->
<g id="Node000022" class="node">
<title>Node22</title>
<g id="a_Node000022"><a xlink:href="../../d4/d2c/_utility_8hpp.html" target="_top" xlink:title=" ">
<polygon fill="white" stroke="#666666" points="1316,-682.25 1216,-682.25 1216,-663 1316,-663 1316,-682.25"/>
<text text-anchor="middle" x="1266" y="-668.75" font-family="Helvetica,sans-Serif" font-size="10.00">mimic++/Utility.hpp</text>
</a>
</g>
</g>
<!-- Node1&#45;&gt;Node22 -->
<g id="edge61_Node000001_Node000022" class="edge">
<title>Node1&#45;&gt;Node22</title>
<g id="a_edge61_Node000001_Node000022"><a xlink:title=" ">
<path fill="none" stroke="#63b8ff" d="M1049.85,-715.63C1100.31,-705.83 1172.58,-691.78 1219.4,-682.68"/>
<polygon fill="#63b8ff" stroke="#63b8ff" points="1049.43,-712.15 1040.28,-717.49 1050.76,-719.02 1049.43,-712.15"/>
</a>
</g>
</g>
<!-- Node3 -->
<g id="Node000003" class="node">
<title>Node3</title>
<g id="a_Node000003"><a xlink:href="../../d5/d8a/_expectation_8hpp.html" target="_top" xlink:title=" ">
<polygon fill="white" stroke="#666666" points="991.75,-295.5 866.25,-295.5 866.25,-276.25 991.75,-276.25 991.75,-295.5"/>
<text text-anchor="middle" x="929" y="-282" font-family="Helvetica,sans-Serif" font-size="10.00">mimic++/Expectation.hpp</text>
</a>
</g>
</g>
<!-- Node2&#45;&gt;Node3 -->
<g id="edge2_Node000002_Node000003" class="edge">
<title>Node2&#45;&gt;Node3</title>
<g id="a_edge2_Node000002_Node000003"><a xlink:title=" ">
<path fill="none" stroke="#63b8ff" d="M842.02,-546.54C854.28,-539.15 867.55,-529.05 876,-516.5 923.09,-446.56 898.58,-413.55 918,-331.5 920.94,-319.08 924.5,-304.75 926.76,-295.75"/>
<polygon fill="#63b8ff" stroke="#63b8ff" points="840.41,-543.43 833.4,-551.37 843.83,-549.54 840.41,-543.43"/>
</a>
</g>
</g>
<!-- Node2&#45;&gt;Node7 -->
<g id="edge35_Node000002_Node000007" class="edge">
<title>Node2&#45;&gt;Node7</title>
<g id="a_edge35_Node000002_Node000007"><a xlink:title=" ">
<path fill="none" stroke="#63b8ff" d="M754.26,-558.68C580.76,-550.57 76,-521.08 76,-452.62 76,-452.62 76,-452.62 76,-119.12 76,-61.82 133.02,-71.41 188,-55.25 333.98,-12.34 801.15,-9.79 964.75,-10.27"/>
<polygon fill="#63b8ff" stroke="#63b8ff" points="754.02,-562.17 764.17,-559.13 754.34,-555.18 754.02,-562.17"/>
</a>
</g>
</g>
<!-- Node2&#45;&gt;Node10 -->
<g id="edge17_Node000002_Node000010" class="edge">
<title>Node2&#45;&gt;Node10</title>
<g id="a_edge17_Node000002_Node000010"><a xlink:title=" ">
<path fill="none" stroke="#63b8ff" d="M785.98,-546.12C773.83,-538.3 759.72,-527.98 749,-516.5 733.04,-499.41 720.24,-474.77 714.05,-461.65"/>
<polygon fill="#63b8ff" stroke="#63b8ff" points="783.97,-548.99 794.31,-551.27 787.65,-543.03 783.97,-548.99"/>
</a>
</g>
</g>
<!-- Node2&#45;&gt;Node17 -->
<g id="edge31_Node000002_Node000017" class="edge">
<title>Node2&#45;&gt;Node17</title>
<g id="a_edge31_Node000002_Node000017"><a xlink:title=" ">
<path fill="none" stroke="#63b8ff" d="M812,-540.88C812,-532.59 812,-523.42 812,-516.86"/>
<polygon fill="#63b8ff" stroke="#63b8ff" points="808.5,-540.82 812,-550.82 815.5,-540.82 808.5,-540.82"/>
</a>
</g>
</g>
<!-- Node4 -->
<g id="Node000004" class="node">
<title>Node4</title>
<g id="a_Node000004"><a xlink:href="../../d2/d4f/_expectation_builder_8hpp.html" target="_top" xlink:title=" ">
<polygon fill="white" stroke="#666666" points="1129.75,-185 974.25,-185 974.25,-165.75 1129.75,-165.75 1129.75,-185"/>
<text text-anchor="middle" x="1052" y="-171.5" font-family="Helvetica,sans-Serif" font-size="10.00">mimic++/ExpectationBuilder.hpp</text>
</a>
</g>
</g>
<!-- Node3&#45;&gt;Node4 -->
<g id="edge3_Node000003_Node000004" class="edge">
<title>Node3&#45;&gt;Node4</title>
<g id="a_edge3_Node000003_Node000004"><a xlink:title=" ">
<path fill="none" stroke="#63b8ff" d="M947.4,-268.64C973.67,-245.47 1021.04,-203.68 1041.8,-185.38"/>
<polygon fill="#63b8ff" stroke="#63b8ff" points="945.38,-265.75 940.2,-274.99 950.02,-271 945.38,-265.75"/>
</a>
</g>
</g>
<!-- Node5 -->
<g id="Node000005" class="node">
<title>Node5</title>
<g id="a_Node000005"><a xlink:href="../../d5/dc5/_mock_8hpp.html" target="_top" xlink:title=" ">
<polygon fill="white" stroke="#666666" points="1254.62,-129.75 1155.38,-129.75 1155.38,-110.5 1254.62,-110.5 1254.62,-129.75"/>
<text text-anchor="middle" x="1205" y="-116.25" font-family="Helvetica,sans-Serif" font-size="10.00">mimic++/Mock.hpp</text>
</a>
</g>
</g>
<!-- Node3&#45;&gt;Node5 -->
<g id="edge15_Node000003_Node000005" class="edge">
<title>Node3&#45;&gt;Node5</title>
<g id="a_edge15_Node000003_Node000005"><a xlink:title=" ">
<path fill="none" stroke="#63b8ff" d="M929.07,-264.37C930.33,-237.55 936.79,-191.03 965,-165.75 992.42,-141.18 1093.18,-129.41 1155.09,-124.38"/>
<polygon fill="#63b8ff" stroke="#63b8ff" points="925.57,-264.17 928.83,-274.25 932.57,-264.34 925.57,-264.17"/>
</a>
</g>
</g>
<!-- Node3&#45;&gt;Node7 -->
<g id="edge16_Node000003_Node000007" class="edge">
<title>Node3&#45;&gt;Node7</title>
<g id="a_edge16_Node000003_Node000007"><a xlink:title=" ">
<path fill="none" stroke="#63b8ff" d="M912.44,-267.49C894.99,-247.28 870,-212.1 870,-176.38 870,-176.38 870,-176.38 870,-119.12 870,-62.87 939.82,-33.03 984.82,-19.64"/>
<polygon fill="#63b8ff" stroke="#63b8ff" points="909.73,-269.71 919.03,-274.79 914.93,-265.02 909.73,-269.71"/>
</a>
</g>
</g>
<!-- Node9 -->
<g id="Node000009" class="node">
<title>Node9</title>
<g id="a_Node000009"><a xlink:href="../../d8/de5/_expectation_policies_8hpp.html" target="_top" xlink:title=" ">
<polygon fill="white" stroke="#666666" points="1422,-240.25 1262,-240.25 1262,-221 1422,-221 1422,-240.25"/>
<text text-anchor="middle" x="1342" y="-226.75" font-family="Helvetica,sans-Serif" font-size="10.00">mimic++/ExpectationPolicies.hpp</text>
</a>
</g>
</g>
<!-- Node3&#45;&gt;Node9 -->
<g id="edge11_Node000003_Node000009" class="edge">
<title>Node3&#45;&gt;Node9</title>
<g id="a_edge11_Node000003_Node000009"><a xlink:title=" ">
<path fill="none" stroke="#63b8ff" d="M1003.56,-275.26C1079.69,-265.45 1196.97,-250.32 1271.57,-240.71"/>
<polygon fill="#63b8ff" stroke="#63b8ff" points="1003.15,-271.79 993.68,-276.54 1004.04,-278.73 1003.15,-271.79"/>
</a>
</g>
</g>
<!-- Node4&#45;&gt;Node5 -->
<g id="edge4_Node000004_Node000005" class="edge">
<title>Node4&#45;&gt;Node5</title>
<g id="a_edge4_Node000004_Node000005"><a xlink:title=" ">
<path fill="none" stroke="#63b8ff" d="M1088.47,-161.68C1116.33,-151.99 1154.04,-138.86 1178.92,-130.2"/>
<polygon fill="#63b8ff" stroke="#63b8ff" points="1087.68,-158.25 1079.38,-164.84 1089.98,-164.86 1087.68,-158.25"/>
</a>
</g>
</g>
<!-- Node4&#45;&gt;Node7 -->
<g id="edge10_Node000004_Node000007" class="edge">
<title>Node4&#45;&gt;Node7</title>
<g id="a_edge10_Node000004_Node000007"><a xlink:title=" ">
<path fill="none" stroke="#63b8ff" d="M1040.81,-155.47C1029.97,-135.96 1014.26,-104.26 1008,-74.5 1003.88,-54.95 1012.04,-32.09 1017.55,-19.71"/>
<polygon fill="#63b8ff" stroke="#63b8ff" points="1037.77,-157.2 1045.78,-164.13 1043.84,-153.71 1037.77,-157.2"/>
</a>
</g>
</g>
<!-- Node5&#45;&gt;Node6 -->
<g id="edge5_Node000005_Node000006" class="edge">
<title>Node5&#45;&gt;Node6</title>
<g id="a_edge5_Node000005_Node000006"><a xlink:title=" ">
<path fill="none" stroke="#63b8ff" d="M1240.64,-106.3C1267.55,-96.62 1303.81,-83.57 1327.77,-74.95"/>
<polygon fill="#63b8ff" stroke="#63b8ff" points="1239.75,-102.9 1231.53,-109.58 1242.12,-109.49 1239.75,-102.9"/>
</a>
</g>
</g>
<!-- Node5&#45;&gt;Node7 -->
<g id="edge9_Node000005_Node000007" class="edge">
<title>Node5&#45;&gt;Node7</title>
<g id="a_edge9_Node000005_Node000007"><a xlink:title=" ">
<path fill="none" stroke="#63b8ff" d="M1208.69,-98.76C1209.98,-84.91 1209.1,-67.03 1199,-55.25 1183.43,-37.09 1124.64,-24.82 1079.04,-17.82"/>
<polygon fill="#63b8ff" stroke="#63b8ff" points="1205.24,-98.17 1207.31,-108.56 1212.17,-99.15 1205.24,-98.17"/>
</a>
</g>
</g>
<!-- Node8 -->
<g id="Node000008" class="node">
<title>Node8</title>
<g id="a_Node000008"><a xlink:href="../../d5/d92/_object_watcher_8hpp.html" target="_top" xlink:title=" ">
<polygon fill="white" stroke="#666666" points="1189.88,-74.5 1050.12,-74.5 1050.12,-55.25 1189.88,-55.25 1189.88,-74.5"/>
<text text-anchor="middle" x="1120" y="-61" font-family="Helvetica,sans-Serif" font-size="10.00">mimic++/ObjectWatcher.hpp</text>
</a>
</g>
</g>
<!-- Node5&#45;&gt;Node8 -->
<g id="edge7_Node000005_Node000008" class="edge">
<title>Node5&#45;&gt;Node8</title>
<g id="a_edge7_Node000005_Node000008"><a xlink:title=" ">
<path fill="none" stroke="#63b8ff" d="M1180.94,-104.05C1165.97,-94.67 1147.21,-82.92 1134.49,-74.95"/>
<polygon fill="#63b8ff" stroke="#63b8ff" points="1178.97,-106.95 1189.3,-109.29 1182.68,-101.01 1178.97,-106.95"/>
</a>
</g>
</g>
<!-- Node6&#45;&gt;Node7 -->
<g id="edge6_Node000006_Node000007" class="edge">
<title>Node6&#45;&gt;Node7</title>
<g id="a_edge6_Node000006_Node000007"><a xlink:title=" ">
<path fill="none" stroke="#63b8ff" d="M1285.43,-53C1224.48,-43.2 1135.86,-28.94 1078.57,-19.73"/>
<polygon fill="#63b8ff" stroke="#63b8ff" points="1284.55,-56.41 1294.98,-54.54 1285.66,-49.5 1284.55,-56.41"/>
</a>
</g>
</g>
<!-- Node8&#45;&gt;Node7 -->
<g id="edge8_Node000008_Node000007" class="edge">
<title>Node8&#45;&gt;Node7</title>
<g id="a_edge8_Node000008_Node000007"><a xlink:title=" ">
<path fill="none" stroke="#63b8ff" d="M1093.75,-49.61C1076.26,-40.11 1053.8,-27.9 1038.71,-19.7"/>
<polygon fill="#63b8ff" stroke="#63b8ff" points="1091.59,-52.42 1102.05,-54.12 1094.93,-46.27 1091.59,-52.42"/>
</a>
</g>
</g>
<!-- Node9&#45;&gt;Node4 -->
<g id="edge12_Node000009_Node000004" class="edge">
<title>Node9&#45;&gt;Node4</title>
<g id="a_edge12_Node000009_Node000004"><a xlink:title=" ">
<path fill="none" stroke="#63b8ff" d="M1281.45,-218.51C1228.01,-208.69 1151.08,-194.57 1101.32,-185.43"/>
<polygon fill="#63b8ff" stroke="#63b8ff" points="1280.52,-221.89 1290.99,-220.26 1281.78,-215.01 1280.52,-221.89"/>
</a>
</g>
</g>
<!-- Node9&#45;&gt;Node5 -->
<g id="edge13_Node000009_Node000005" class="edge">
<title>Node9&#45;&gt;Node5</title>
<g id="a_edge13_Node000009_Node000005"><a xlink:title=" ">
<path fill="none" stroke="#63b8ff" d="M1321.89,-213.7C1292.71,-190.59 1239.58,-148.51 1216.37,-130.13"/>
<polygon fill="#63b8ff" stroke="#63b8ff" points="1319.59,-216.34 1329.6,-219.81 1323.94,-210.85 1319.59,-216.34"/>
</a>
</g>
</g>
<!-- Node9&#45;&gt;Node7 -->
<g id="edge14_Node000009_Node000007" class="edge">
<title>Node9&#45;&gt;Node7</title>
<g id="a_edge14_Node000009_Node000007"><a xlink:title=" ">
<path fill="none" stroke="#63b8ff" d="M1334.43,-210.49C1318.71,-173.55 1278.78,-92.74 1217,-55.25 1174.99,-29.76 1119.84,-18.81 1078.92,-14.12"/>
<polygon fill="#63b8ff" stroke="#63b8ff" points="1331.06,-211.52 1338.1,-219.44 1337.54,-208.86 1331.06,-211.52"/>
</a>
</g>
</g>
<!-- Node10&#45;&gt;Node3 -->
<g id="edge18_Node000010_Node000003" class="edge">
<title>Node10&#45;&gt;Node3</title>
<g id="a_edge18_Node000010_Node000003"><a xlink:title=" ">
<path fill="none" stroke="#63b8ff" d="M742.42,-437.02C759.85,-429.06 781.33,-418.2 799,-406 839.25,-378.21 843.92,-364.52 880,-331.5 893.58,-319.07 909.33,-304.75 919.23,-295.75"/>
<polygon fill="#63b8ff" stroke="#63b8ff" points="741.26,-433.71 733.55,-440.97 744.11,-440.1 741.26,-433.71"/>
</a>
</g>
</g>
<!-- Node10&#45;&gt;Node7 -->
<g id="edge30_Node000010_Node000007" class="edge">
<title>Node10&#45;&gt;Node7</title>
<g id="a_edge30_Node000010_Node000007"><a xlink:title=" ">
<path fill="none" stroke="#63b8ff" d="M642.41,-449.64C498.53,-446.94 171.86,-437.39 133,-406 109.96,-387.39 114,-371.74 114,-342.12 114,-342.12 114,-342.12 114,-119.12 114,-33.05 765.67,-14.94 964.86,-11.42"/>
<polygon fill="#63b8ff" stroke="#63b8ff" points="642.11,-453.13 652.18,-449.82 642.24,-446.14 642.11,-453.13"/>
</a>
</g>
</g>
<!-- Node10&#45;&gt;Node11 -->
<g id="edge19_Node000010_Node000011" class="edge">
<title>Node10&#45;&gt;Node11</title>
<g id="a_edge19_Node000010_Node000011"><a xlink:title=" ">
<path fill="none" stroke="#63b8ff" d="M777.68,-441.59C853.91,-431.42 976.63,-415.04 1049.39,-405.33"/>
<polygon fill="#63b8ff" stroke="#63b8ff" points="777.27,-438.12 767.82,-442.91 778.2,-445.05 777.27,-438.12"/>
</a>
</g>
</g>
<!-- Node13 -->
<g id="Node000013" class="node">
<title>Node13</title>
<g id="a_Node000013"><a xlink:href="../../d9/d42/_boost_test_8hpp.html" target="_top" xlink:title=" ">
<polygon fill="white" stroke="#666666" points="790.38,-406 629.62,-406 629.62,-386.75 790.38,-386.75 790.38,-406"/>
<text text-anchor="middle" x="710" y="-392.5" font-family="Helvetica,sans-Serif" font-size="10.00">mimic++/adapters/BoostTest.hpp</text>
</a>
</g>
</g>
<!-- Node10&#45;&gt;Node13 -->
<g id="edge26_Node000010_Node000013" class="edge">
<title>Node10&#45;&gt;Node13</title>
<g id="a_edge26_Node000010_Node000013"><a xlink:title=" ">
<path fill="none" stroke="#63b8ff" d="M710,-430.38C710,-422.09 710,-412.92 710,-406.36"/>
<polygon fill="#63b8ff" stroke="#63b8ff" points="706.5,-430.32 710,-440.32 713.5,-430.32 706.5,-430.32"/>
</a>
</g>
</g>
<!-- Node14 -->
<g id="Node000014" class="node">
<title>Node14</title>
<g id="a_Node000014"><a xlink:href="../../d3/d04/_catch2_8hpp.html" target="_top" xlink:title=" ">
<polygon fill="white" stroke="#666666" points="288.25,-406 141.75,-406 141.75,-386.75 288.25,-386.75 288.25,-406"/>
<text text-anchor="middle" x="215" y="-392.5" font-family="Helvetica,sans-Serif" font-size="10.00">mimic++/adapters/Catch2.hpp</text>
</a>
</g>
</g>
<!-- Node10&#45;&gt;Node14 -->
<g id="edge27_Node000010_Node000014" class="edge">
<title>Node10&#45;&gt;Node14</title>
<g id="a_edge27_Node000010_Node000014"><a xlink:title=" ">
<path fill="none" stroke="#63b8ff" d="M642.51,-443.36C549.92,-433.4 384.13,-415.57 288.5,-405.28"/>
<polygon fill="#63b8ff" stroke="#63b8ff" points="641.88,-446.82 652.19,-444.41 642.63,-439.86 641.88,-446.82"/>
</a>
</g>
</g>
<!-- Node15 -->
<g id="Node000015" class="node">
<title>Node15</title>
<g id="a_Node000015"><a xlink:href="../../dc/d42/_doctest_8hpp.html" target="_top" xlink:title=" ">
<polygon fill="white" stroke="#666666" points="455.75,-406 306.25,-406 306.25,-386.75 455.75,-386.75 455.75,-406"/>
<text text-anchor="middle" x="381" y="-392.5" font-family="Helvetica,sans-Serif" font-size="10.00">mimic++/adapters/Doctest.hpp</text>
</a>
</g>
</g>
<!-- Node10&#45;&gt;Node15 -->
<g id="edge28_Node000010_Node000015" class="edge">
<title>Node10&#45;&gt;Node15</title>
<g id="a_edge28_Node000010_Node000015"><a xlink:title=" ">
<path fill="none" stroke="#63b8ff" d="M642.46,-439.69C581.89,-429.89 494.05,-415.67 437.23,-406.48"/>
<polygon fill="#63b8ff" stroke="#63b8ff" points="641.89,-443.15 652.32,-441.29 643.01,-436.24 641.89,-443.15"/>
</a>
</g>
</g>
<!-- Node16 -->
<g id="Node000016" class="node">
<title>Node16</title>
<g id="a_Node000016"><a xlink:href="../../d5/db1/gtest_8hpp.html" target="_top" xlink:title=" ">
<polygon fill="white" stroke="#666666" points="611.75,-406 474.25,-406 474.25,-386.75 611.75,-386.75 611.75,-406"/>
<text text-anchor="middle" x="543" y="-392.5" font-family="Helvetica,sans-Serif" font-size="10.00">mimic++/adapters/gtest.hpp</text>
</a>
</g>
</g>
<!-- Node10&#45;&gt;Node16 -->
<g id="edge29_Node000010_Node000016" class="edge">
<title>Node10&#45;&gt;Node16</title>
<g id="a_edge29_Node000010_Node000016"><a xlink:title=" ">
<path fill="none" stroke="#63b8ff" d="M670.99,-438.19C640.52,-428.47 598.87,-415.19 571.47,-406.45"/>
<polygon fill="#63b8ff" stroke="#63b8ff" points="669.64,-441.43 680.23,-441.13 671.76,-434.76 669.64,-441.43"/>
</a>
</g>
</g>
<!-- Node11&#45;&gt;Node4 -->
<g id="edge24_Node000011_Node000004" class="edge">
<title>Node11&#45;&gt;Node4</title>
<g id="a_edge24_Node000011_Node000004"><a xlink:title=" ">
<path fill="none" stroke="#63b8ff" d="M1107.45,-375.51C1106.23,-362.82 1104.19,-346.08 1101,-331.5 1088.57,-274.66 1064.42,-208.85 1055.46,-185.31"/>
<polygon fill="#63b8ff" stroke="#63b8ff" points="1103.93,-375.44 1108.28,-385.1 1110.9,-374.84 1103.93,-375.44"/>
</a>
</g>
</g>
<!-- Node11&#45;&gt;Node7 -->
<g id="edge25_Node000011_Node000007" class="edge">
<title>Node11&#45;&gt;Node7</title>
<g id="a_edge25_Node000011_Node000007"><a xlink:title=" ">
<path fill="none" stroke="#63b8ff" d="M1122.92,-377.28C1137.41,-356.6 1158,-321.18 1158,-286.88 1158,-286.88 1158,-286.88 1158,-229.62 1158,-200.01 1154.61,-190.92 1139,-165.75 1107.64,-115.17 1072.36,-125.08 1041,-74.5 1030.02,-56.8 1025.09,-32.41 1023.13,-19.49"/>
<polygon fill="#63b8ff" stroke="#63b8ff" points="1120.21,-375.06 1117.12,-385.2 1125.85,-379.2 1120.21,-375.06"/>
</a>
</g>
</g>
<!-- Node12 -->
<g id="Node000012" class="node">
<title>Node12</title>
<g id="a_Node000012"><a xlink:href="../../d6/d17/_control_policy_8hpp.html" target="_top" xlink:title=" ">
<polygon fill="white" stroke="#666666" points="1092.12,-350.75 959.88,-350.75 959.88,-331.5 1092.12,-331.5 1092.12,-350.75"/>
<text text-anchor="middle" x="1026" y="-337.25" font-family="Helvetica,sans-Serif" font-size="10.00">mimic++/ControlPolicy.hpp</text>
</a>
</g>
</g>
<!-- Node11&#45;&gt;Node12 -->
<g id="edge20_Node000011_Node000012" class="edge">
<title>Node11&#45;&gt;Node12</title>
<g id="a_edge20_Node000011_Node000012"><a xlink:title=" ">
<path fill="none" stroke="#63b8ff" d="M1085.51,-380.3C1070.89,-370.92 1052.57,-359.17 1040.15,-351.2"/>
<polygon fill="#63b8ff" stroke="#63b8ff" points="1083.34,-383.07 1093.65,-385.52 1087.12,-377.18 1083.34,-383.07"/>
</a>
</g>
</g>
<!-- Node12&#45;&gt;Node3 -->
<g id="edge21_Node000012_Node000003" class="edge">
<title>Node12&#45;&gt;Node3</title>
<g id="a_edge21_Node000012_Node000003"><a xlink:title=" ">
<path fill="none" stroke="#63b8ff" d="M999.53,-325.59C982.29,-316.13 960.33,-304.08 945.54,-295.95"/>
<polygon fill="#63b8ff" stroke="#63b8ff" points="997.77,-328.62 1008.22,-330.36 1001.14,-322.48 997.77,-328.62"/>
</a>
</g>
</g>
<!-- Node12&#45;&gt;Node4 -->
<g id="edge22_Node000012_Node000004" class="edge">
<title>Node12&#45;&gt;Node4</title>
<g id="a_edge22_Node000012_Node000004"><a xlink:title=" ">
<path fill="none" stroke="#63b8ff" d="M1029.71,-320.1C1031.1,-312.41 1032.67,-303.56 1034,-295.5 1040.78,-254.43 1047.9,-205.23 1050.73,-185.35"/>
<polygon fill="#63b8ff" stroke="#63b8ff" points="1026.3,-319.29 1027.94,-329.76 1033.19,-320.55 1026.3,-319.29"/>
</a>
</g>
</g>
<!-- Node12&#45;&gt;Node7 -->
<g id="edge23_Node000012_Node000007" class="edge">
<title>Node12&#45;&gt;Node7</title>
<g id="a_edge23_Node000012_Node000007"><a xlink:title=" ">
<path fill="none" stroke="#63b8ff" d="M1018.29,-320.37C1013.35,-307.75 1006.81,-291.03 1001,-276.25 985.06,-235.67 973.14,-227.83 965,-185 952.57,-119.61 998.43,-44.76 1015.68,-19.49"/>
<polygon fill="#63b8ff" stroke="#63b8ff" points="1015,-321.58 1021.9,-329.62 1021.52,-319.03 1015,-321.58"/>
</a>
</g>
</g>
<!-- Node17&#45;&gt;Node7 -->
<g id="edge34_Node000017_Node000007" class="edge">
<title>Node17&#45;&gt;Node7</title>
<g id="a_edge34_Node000017_Node000007"><a xlink:title=" ">
<path fill="none" stroke="#63b8ff" d="M814.09,-485.6C819.21,-434.04 832,-293.68 832,-176.38 832,-176.38 832,-176.38 832,-119.12 832,-57.21 909.03,-30.15 964.99,-18.66"/>
<polygon fill="#63b8ff" stroke="#63b8ff" points="810.62,-485.17 813.09,-495.47 817.58,-485.87 810.62,-485.17"/>
</a>
</g>
</g>
<!-- Node17&#45;&gt;Node10 -->
<g id="edge33_Node000017_Node000010" class="edge">
<title>Node17&#45;&gt;Node10</title>
<g id="a_edge33_Node000017_Node000010"><a xlink:title=" ">
<path fill="none" stroke="#63b8ff" d="M784.67,-491.61C766.47,-482.11 743.09,-469.9 727.39,-461.7"/>
<polygon fill="#63b8ff" stroke="#63b8ff" points="782.87,-494.62 793.36,-496.14 786.11,-488.41 782.87,-494.62"/>
</a>
</g>
</g>
<!-- Node17&#45;&gt;Node12 -->
<g id="edge32_Node000017_Node000012" class="edge">
<title>Node17&#45;&gt;Node12</title>
<g id="a_edge32_Node000017_Node000012"><a xlink:title=" ">
<path fill="none" stroke="#63b8ff" d="M832.81,-489.95C877.1,-456.06 979.49,-377.71 1014.23,-351.13"/>
<polygon fill="#63b8ff" stroke="#63b8ff" points="830.83,-487.06 825.01,-495.92 835.08,-492.62 830.83,-487.06"/>
</a>
</g>
</g>
<!-- Node18&#45;&gt;Node7 -->
<g id="edge39_Node000018_Node000007" class="edge">
<title>Node18&#45;&gt;Node7</title>
<g id="a_edge39_Node000018_Node000007"><a xlink:title=" ">
<path fill="none" stroke="#63b8ff" d="M1442.72,-488.66C1461.35,-468.63 1488,-433.64 1488,-397.38 1488,-397.38 1488,-397.38 1488,-340.12 1488,-265.41 1526,-251.09 1526,-176.38 1526,-176.38 1526,-176.38 1526,-119.12 1526,-79.56 1499.62,-72.47 1464,-55.25 1397.43,-23.06 1182.61,-14.05 1078.97,-11.56"/>
<polygon fill="#63b8ff" stroke="#63b8ff" points="1440.36,-486.07 1435.9,-495.68 1445.38,-490.95 1440.36,-486.07"/>
</a>
</g>
</g>
<!-- Node18&#45;&gt;Node9 -->
<g id="edge38_Node000018_Node000009" class="edge">
<title>Node18&#45;&gt;Node9</title>
<g id="a_edge38_Node000018_Node000009"><a xlink:title=" ">
<path fill="none" stroke="#63b8ff" d="M1419.16,-486.14C1407.36,-446.37 1379.82,-353.81 1356,-276.25 1352.19,-263.83 1347.67,-249.5 1344.82,-240.51"/>
<polygon fill="#63b8ff" stroke="#63b8ff" points="1415.78,-487.06 1421.98,-495.65 1422.49,-485.07 1415.78,-487.06"/>
</a>
</g>
</g>
<!-- Node19&#45;&gt;Node7 -->
<g id="edge46_Node000019_Node000007" class="edge">
<title>Node19&#45;&gt;Node7</title>
<g id="a_edge46_Node000019_Node000007"><a xlink:title=" ">
<path fill="none" stroke="#63b8ff" d="M1184.64,-547.99C1265.07,-516.52 1450,-428.75 1450,-286.88 1450,-286.88 1450,-286.88 1450,-119.12 1450,-89.51 1453.75,-74.22 1431,-55.25 1404.5,-33.15 1184.94,-18.98 1078.9,-13.37"/>
<polygon fill="#63b8ff" stroke="#63b8ff" points="1183.51,-544.67 1175.42,-551.51 1186.01,-551.21 1183.51,-544.67"/>
</a>
</g>
</g>
<!-- Node19&#45;&gt;Node9 -->
<g id="edge41_Node000019_Node000009" class="edge">
<title>Node19&#45;&gt;Node9</title>
<g id="a_edge41_Node000019_Node000009"><a xlink:title=" ">
<path fill="none" stroke="#63b8ff" d="M1159.02,-542.41C1195.36,-480.69 1310.59,-284.97 1336.7,-240.62"/>
<polygon fill="#63b8ff" stroke="#63b8ff" points="1156.01,-540.61 1153.96,-551.01 1162.05,-544.17 1156.01,-540.61"/>
</a>
</g>
</g>
<!-- Node19&#45;&gt;Node10 -->
<g id="edge43_Node000019_Node000010" class="edge">
<title>Node19&#45;&gt;Node10</title>
<g id="a_edge43_Node000019_Node000010"><a xlink:title=" ">
<path fill="none" stroke="#63b8ff" d="M1100.42,-549.34C1012.41,-527.54 825.96,-481.35 746.79,-461.74"/>
<polygon fill="#63b8ff" stroke="#63b8ff" points="1099.39,-552.69 1109.94,-551.7 1101.08,-545.9 1099.39,-552.69"/>
</a>
</g>
</g>
<!-- Node19&#45;&gt;Node11 -->
<g id="edge45_Node000019_Node000011" class="edge">
<title>Node19&#45;&gt;Node11</title>
<g id="a_edge45_Node000019_Node000011"><a xlink:title=" ">
<path fill="none" stroke="#63b8ff" d="M1143.31,-541.44C1134.81,-505.75 1117.18,-431.71 1111.11,-406.22"/>
<polygon fill="#63b8ff" stroke="#63b8ff" points="1139.83,-541.93 1145.55,-550.85 1146.64,-540.31 1139.83,-541.93"/>
</a>
</g>
</g>
<!-- Node19&#45;&gt;Node17 -->
<g id="edge44_Node000019_Node000017" class="edge">
<title>Node19&#45;&gt;Node17</title>
<g id="a_edge44_Node000019_Node000017"><a xlink:title=" ">
<path fill="none" stroke="#63b8ff" d="M1084.52,-551.07C1021.66,-541.1 926.41,-526.01 866.77,-516.55"/>
<polygon fill="#63b8ff" stroke="#63b8ff" points="1083.95,-554.52 1094.37,-552.63 1085.04,-547.6 1083.95,-554.52"/>
</a>
</g>
</g>
<!-- Node19&#45;&gt;Node18 -->
<g id="edge42_Node000019_Node000018" class="edge">
<title>Node19&#45;&gt;Node18</title>
<g id="a_edge42_Node000019_Node000018"><a xlink:title=" ">
<path fill="none" stroke="#63b8ff" d="M1206.48,-549.88C1257.49,-540.08 1330.56,-526.03 1377.89,-516.93"/>
<polygon fill="#63b8ff" stroke="#63b8ff" points="1205.95,-546.42 1196.79,-551.75 1207.27,-553.29 1205.95,-546.42"/>
</a>
</g>
</g>
<!-- Node20&#45;&gt;Node7 -->
<g id="edge53_Node000020_Node000007" class="edge">
<title>Node20&#45;&gt;Node7</title>
<g id="a_edge53_Node000020_Node000007"><a xlink:title=" ">
<path fill="none" stroke="#63b8ff" d="M1504.75,-597.03C1513.61,-575.67 1526,-540.03 1526,-507.88 1526,-507.88 1526,-507.88 1526,-450.62 1526,-375.91 1564,-361.59 1564,-286.88 1564,-286.88 1564,-286.88 1564,-119.12 1564,-77.98 1534.44,-72.31 1497,-55.25 1423.89,-21.93 1188.8,-13.48 1079.22,-11.35"/>
<polygon fill="#63b8ff" stroke="#63b8ff" points="1501.66,-595.36 1500.9,-605.93 1508.09,-598.15 1501.66,-595.36"/>
</a>
</g>
</g>
<!-- Node20&#45;&gt;Node18 -->
<g id="edge51_Node000020_Node000018" class="edge">
<title>Node20&#45;&gt;Node18</title>
<g id="a_edge51_Node000020_Node000018"><a xlink:title=" ">
<path fill="none" stroke="#63b8ff" d="M1483.95,-597.97C1468.56,-574.44 1442.5,-534.62 1430.89,-516.88"/>
<polygon fill="#63b8ff" stroke="#63b8ff" points="1480.96,-599.78 1489.36,-606.23 1486.81,-595.95 1480.96,-599.78"/>
</a>
</g>
</g>
<!-- Node20&#45;&gt;Node19 -->
<g id="edge52_Node000020_Node000019" class="edge">
<title>Node20&#45;&gt;Node19</title>
<g id="a_edge52_Node000020_Node000019"><a xlink:title=" ">
<path fill="none" stroke="#63b8ff" d="M1434.25,-606.93C1367.73,-596.75 1263.01,-580.72 1200.37,-571.14"/>
<polygon fill="#63b8ff" stroke="#63b8ff" points="1433.49,-610.35 1443.9,-608.4 1434.55,-603.43 1433.49,-610.35"/>
</a>
</g>
</g>
<!-- Node21&#45;&gt;Node2 -->
<g id="edge55_Node000021_Node000002" class="edge">
<title>Node21&#45;&gt;Node2</title>
<g id="a_edge55_Node000021_Node000002"><a xlink:title=" ">
<path fill="none" stroke="#63b8ff" d="M877.71,-601.57C861.6,-592.15 841.26,-580.25 827.51,-572.2"/>
<polygon fill="#63b8ff" stroke="#63b8ff" points="875.86,-604.55 886.26,-606.58 879.39,-598.51 875.86,-604.55"/>
</a>
</g>
</g>
<!-- Node21&#45;&gt;Node3 -->
<g id="edge56_Node000021_Node000003" class="edge">
<title>Node21&#45;&gt;Node3</title>
<g id="a_edge56_Node000021_Node000003"><a xlink:title=" ">
<path fill="none" stroke="#63b8ff" d="M905.18,-596.04C908.32,-566.42 914.13,-509.65 918,-461.25 923.05,-398.05 927.19,-321.82 928.53,-295.96"/>
<polygon fill="#63b8ff" stroke="#63b8ff" points="901.73,-595.47 904.15,-605.79 908.69,-596.21 901.73,-595.47"/>
</a>
</g>
</g>
<!-- Node21&#45;&gt;Node5 -->
<g id="edge58_Node000021_Node000005" class="edge">
<title>Node21&#45;&gt;Node5</title>
<g id="a_edge58_Node000021_Node000005"><a xlink:title=" ">
<path fill="none" stroke="#63b8ff" d="M937.71,-603.25C1015.3,-571.41 1196,-482.2 1196,-342.12 1196,-342.12 1196,-342.12 1196,-229.62 1196,-192.58 1201.28,-148.66 1203.75,-130.11"/>
<polygon fill="#63b8ff" stroke="#63b8ff" points="936.86,-599.82 928.88,-606.8 939.47,-606.32 936.86,-599.82"/>
</a>
</g>
</g>
<!-- Node21&#45;&gt;Node7 -->
<g id="edge60_Node000021_Node000007" class="edge">
<title>Node21&#45;&gt;Node7</title>
<g id="a_edge60_Node000021_Node000007"><a xlink:title=" ">
<path fill="none" stroke="#63b8ff" d="M830.8,-614.86C622.96,-609.55 38,-587.53 38,-507.88 38,-507.88 38,-507.88 38,-119.12 38,-79.56 63.95,-71.54 100,-55.25 178.54,-19.77 776.16,-12.41 965,-10.96"/>
<polygon fill="#63b8ff" stroke="#63b8ff" points="830.58,-618.36 840.66,-615.11 830.75,-611.36 830.58,-618.36"/>
</a>
</g>
</g>
<!-- Node21&#45;&gt;Node18 -->
<g id="edge57_Node000021_Node000018" class="edge">
<title>Node21&#45;&gt;Node18</title>
<g id="a_edge57_Node000021_Node000018"><a xlink:title=" ">
<path fill="none" stroke="#63b8ff" d="M975.13,-608.8C1037.47,-601.56 1129.77,-589.15 1209,-571.75 1278.52,-556.48 1358.36,-530.64 1398.71,-516.97"/>
<polygon fill="#63b8ff" stroke="#63b8ff" points="974.88,-605.31 965.35,-609.92 975.68,-612.26 974.88,-605.31"/>
</a>
</g>
</g>
<!-- Node21&#45;&gt;Node19 -->
<g id="edge59_Node000021_Node000019" class="edge">
<title>Node21&#45;&gt;Node19</title>
<g id="a_edge59_Node000021_Node000019"><a xlink:title=" ">
<path fill="none" stroke="#63b8ff" d="M955.86,-604.88C1000.93,-595.09 1064.82,-581.2 1106.33,-572.18"/>
<polygon fill="#63b8ff" stroke="#63b8ff" points="955.35,-601.42 946.32,-606.96 956.83,-608.26 955.35,-601.42"/>
</a>
</g>
</g>
<!-- Node22&#45;&gt;Node2 -->
<g id="edge62_Node000022_Node000002" class="edge">
<title>Node22&#45;&gt;Node2</title>
<g id="a_edge62_Node000022_Node000002"><a xlink:title=" ">
<path fill="none" stroke="#63b8ff" d="M1204.16,-668.89C1091.65,-663.38 862.37,-649.53 834,-627 816.91,-613.44 813.04,-585.86 812.2,-571.8"/>
<polygon fill="#63b8ff" stroke="#63b8ff" points="1203.99,-672.38 1214.14,-669.37 1204.32,-665.39 1203.99,-672.38"/>
</a>
</g>
</g>
<!-- Node22&#45;&gt;Node5 -->
<g id="edge66_Node000022_Node000005" class="edge">
<title>Node22&#45;&gt;Node5</title>
<g id="a_edge66_Node000022_Node000005"><a xlink:title=" ">
<path fill="none" stroke="#63b8ff" d="M1276.93,-652.84C1288.16,-631.74 1304,-596.12 1304,-563.12 1304,-563.12 1304,-563.12 1304,-505.88 1304,-403.69 1234,-389.06 1234,-286.88 1234,-286.88 1234,-286.88 1234,-229.62 1234,-191.6 1217.17,-148.55 1209.15,-130.19"/>
<polygon fill="#63b8ff" stroke="#63b8ff" points="1273.98,-650.95 1272.18,-661.39 1280.1,-654.35 1273.98,-650.95"/>
</a>
</g>
</g>
<!-- Node22&#45;&gt;Node7 -->
<g id="edge70_Node000022_Node000007" class="edge">
<title>Node22&#45;&gt;Node7</title>
<g id="a_edge70_Node000022_Node000007"><a xlink:title=" ">
<path fill="none" stroke="#63b8ff" d="M1327.47,-669.68C1402.07,-666.06 1521.98,-655.81 1555,-627 1577.32,-607.53 1574,-592.74 1574,-563.12 1574,-563.12 1574,-563.12 1574,-505.88 1574,-432.04 1602,-415.96 1602,-342.12 1602,-342.12 1602,-342.12 1602,-119.12 1602,-77.01 1570.57,-72.17 1532,-55.25 1452.03,-20.16 1194.35,-12.65 1078.88,-11.05"/>
<polygon fill="#63b8ff" stroke="#63b8ff" points="1327.7,-666.16 1317.87,-670.11 1328.02,-673.15 1327.7,-666.16"/>
</a>
</g>
</g>
<!-- Node22&#45;&gt;Node9 -->
<g id="edge64_Node000022_Node000009" class="edge">
<title>Node22&#45;&gt;Node9</title>
<g id="a_edge64_Node000022_Node000009"><a xlink:title=" ">
<path fill="none" stroke="#63b8ff" d="M1289.16,-655.86C1299.13,-648.12 1310.25,-638.08 1318,-627 1335.39,-602.15 1342,-593.45 1342,-563.12 1342,-563.12 1342,-563.12 1342,-340.12 1342,-303.2 1342,-259.22 1342,-240.63"/>
<polygon fill="#63b8ff" stroke="#63b8ff" points="1287.3,-652.88 1281.32,-661.63 1291.45,-658.52 1287.3,-652.88"/>
</a>
</g>
</g>
<!-- Node22&#45;&gt;Node11 -->
<g id="edge68_Node000022_Node000011" class="edge">
<title>Node22&#45;&gt;Node11</title>
<g id="a_edge68_Node000022_Node000011"><a xlink:title=" ">
<path fill="none" stroke="#63b8ff" d="M1257.66,-652.31C1247.15,-628.43 1228.13,-586.75 1209,-552.5 1176.81,-494.87 1131.67,-429.54 1115.27,-406.22"/>
<polygon fill="#63b8ff" stroke="#63b8ff" points="1254.41,-653.61 1261.62,-661.38 1260.83,-650.81 1254.41,-653.61"/>
</a>
</g>
</g>
<!-- Node22&#45;&gt;Node12 -->
<g id="edge63_Node000022_Node000012" class="edge">
<title>Node22&#45;&gt;Node12</title>
<g id="a_edge63_Node000022_Node000012"><a xlink:title=" ">
<path fill="none" stroke="#63b8ff" d="M1224.09,-658.86C1183.2,-644.28 1122.16,-616.47 1087,-571.75 1031.42,-501.06 1026.27,-384.25 1025.96,-351.13"/>
<polygon fill="#63b8ff" stroke="#63b8ff" points="1222.77,-662.11 1233.36,-662.05 1225.05,-655.49 1222.77,-662.11"/>
</a>
</g>
</g>
<!-- Node22&#45;&gt;Node18 -->
<g id="edge65_Node000022_Node000018" class="edge">
<title>Node22&#45;&gt;Node18</title>
<g id="a_edge65_Node000022_Node000018"><a xlink:title=" ">
<path fill="none" stroke="#63b8ff" d="M1304.47,-658.43C1321.68,-651.13 1341.35,-640.73 1356,-627 1374.22,-609.92 1408.68,-541.33 1420.72,-516.72"/>
<polygon fill="#63b8ff" stroke="#63b8ff" points="1303.52,-655.04 1295.54,-662.01 1306.12,-661.54 1303.52,-655.04"/>
</a>
</g>
</g>
<!-- Node22&#45;&gt;Node19 -->
<g id="edge67_Node000022_Node000019" class="edge">
<title>Node22&#45;&gt;Node19</title>
<g id="a_edge67_Node000022_Node000019"><a xlink:title=" ">
<path fill="none" stroke="#63b8ff" d="M1246.43,-655.31C1236.58,-646.98 1224.53,-636.6 1214,-627 1193.02,-607.88 1169.31,-584.47 1156.81,-571.98"/>
<polygon fill="#63b8ff" stroke="#63b8ff" points="1244.02,-657.85 1253.92,-661.61 1248.52,-652.49 1244.02,-657.85"/>
</a>
</g>
</g>
<!-- Node22&#45;&gt;Node20 -->
<g id="edge69_Node000022_Node000020" class="edge">
<title>Node22&#45;&gt;Node20</title>
<g id="a_edge69_Node000022_Node000020"><a xlink:title=" ">
<path fill="none" stroke="#63b8ff" d="M1316.44,-659.95C1358.69,-650.16 1418.16,-636.4 1456.88,-627.43"/>
<polygon fill="#63b8ff" stroke="#63b8ff" points="1315.7,-656.52 1306.75,-662.19 1317.28,-663.34 1315.7,-656.52"/>
</a>
</g>
</g>
</g>
</svg>

<g id="navigator" transform="translate(0 0)" fill="#404254">
  <rect fill="#f2f5e9" fill-opacity="0.5" stroke="#606060" stroke-width=".5" x="0" y="0" width="60" height="60"/>
  <use id="zoomplus" xlink:href="#zoomPlus" x="17" y="9" onmousedown="handleZoom(evt,'in')"/>
  <use id="zoomminus" xlink:href="#zoomMin" x="42" y="9" onmousedown="handleZoom(evt,'out')"/>
  <use id="reset" xlink:href="#resetDef" x="30" y="36" onmousedown="handleReset()"/>
   <use id="arrowup" xlink:href="#arrowUp" x="0" y="0" onmousedown="handlePan(0,-1)"/>
  <use id="arrowright" xlink:href="#arrowRight" x="0" y="0" onmousedown="handlePan(1,0)"/>
  <use id="arrowdown" xlink:href="#arrowDown" x="0" y="0" onmousedown="handlePan(0,1)"/>
  <use id="arrowleft" xlink:href="#arrowLeft" x="0" y="0" onmousedown="handlePan(-1,0)"/>
</g>
<svg viewBox="0 0 15 15" width="100%" height="30px" preserveAspectRatio="xMaxYMin meet">
 <g id="arrow_out" transform="scale(0.3 0.3)">
  <a xlink:href="_fwd_8hpp__dep__incl_org.svg" target="_base">
   <rect id="button" ry="5" rx="5" y="6" x="6" height="38" width="38"
        fill="#f2f5e9" fill-opacity="0.5" stroke="#606060" stroke-width="1.0"/>
   <path id="arrow"
     d="M 11.500037,31.436501 C 11.940474,20.09759 22.043105,11.32322 32.158766,21.979434 L 37.068811,17.246167 C 37.068811,17.246167 37.088388,32 37.088388,32 L 22.160133,31.978069 C 22.160133,31.978069 26.997745,27.140456 26.997745,27.140456 C 18.528582,18.264221 13.291696,25.230495 11.500037,31.436501 z"
     style="fill:#404040;"/>
  </a>
 </g>
</svg>

<style type='text/css'>
<![CDATA[
[data-mouse-over-selected='false'] { opacity: 0.7; }
[data-mouse-over-selected='true']  { opacity: 1.0; }
]]>
</style>
<script type="application/ecmascript"><![CDATA[
document.addEventListener('DOMContentLoaded', (event) => {
  highlightEdges();
  highlightAdjacentNodes();
});
]]></script>
</svg>
