<?xml version="1.0" encoding="UTF-8" standalone="no"?>
<!DOCTYPE svg PUBLIC "-//W3C//DTD SVG 1.1//EN"
 "http://www.w3.org/Graphics/SVG/1.1/DTD/svg11.dtd">
<!-- Generated by graphviz version 12.2.1 (20241206.2353)
 -->
<!-- Title: mimicpp::printing::type::parsing::token::FunctionPtrType Pages: 1 -->
<svg width="1027pt" height="326pt"
 viewBox="0.00 0.00 1026.55 325.80" xmlns="http://www.w3.org/2000/svg" xmlns:xlink="http://www.w3.org/1999/xlink">
<g id="graph0" class="graph" transform="scale(1 1) rotate(0) translate(4 321.8)">
<title>mimicpp::printing::type::parsing::token::FunctionPtrType</title>
<!-- Node1 -->
<g id="Node000001" class="node">
<title>Node1</title>
<g id="a_Node000001"><a xlink:title=" ">
<polygon fill="#999999" stroke="#666666" points="1018.55,-182.75 920.05,-182.75 920.05,-141 1018.55,-141 1018.55,-182.75"/>
<text text-anchor="start" x="928.05" y="-169.25" font-family="Helvetica,sans-Serif" font-size="10.00">mimicpp::printing::</text>
<text text-anchor="start" x="928.05" y="-158" font-family="Helvetica,sans-Serif" font-size="10.00">type::parsing::token</text>
<text text-anchor="middle" x="969.3" y="-146.75" font-family="Helvetica,sans-Serif" font-size="10.00">::FunctionPtrType</text>
</a>
</g>
</g>
<!-- Node2 -->
<g id="Node000002" class="node">
<title>Node2</title>
<g id="a_Node000002"><a xlink:title=" ">
<polygon fill="white" stroke="#666666" points="494.3,-263.75 369.55,-263.75 369.55,-222 494.3,-222 494.3,-263.75"/>
<text text-anchor="start" x="377.55" y="-250.25" font-family="Helvetica,sans-Serif" font-size="10.00">std::shared_ptr&lt; mimicpp</text>
<text text-anchor="start" x="377.55" y="-239" font-family="Helvetica,sans-Serif" font-size="10.00">::printing::type::parsing</text>
<text text-anchor="middle" x="431.92" y="-227.75" font-family="Helvetica,sans-Serif" font-size="10.00">::token::Type &gt;</text>
</a>
</g>
</g>
<!-- Node2&#45;&gt;Node1 -->
<g id="edge1_Node000001_Node000002" class="edge">
<title>Node2&#45;&gt;Node1</title>
<g id="a_edge1_Node000001_Node000002"><a xlink:title=" ">
<path fill="none" stroke="#9a32cd" stroke-dasharray="5,2" d="M505.98,-234.72C588.72,-225.28 727.52,-208.86 846.55,-191.88 871.29,-188.35 877.74,-188.67 902.05,-182.88 907.8,-181.5 913.78,-179.89 919.68,-178.17"/>
<polygon fill="#9a32cd" stroke="#9a32cd" points="505.73,-231.22 496.19,-235.83 506.53,-238.18 505.73,-231.22"/>
</a>
</g>
<text text-anchor="start" x="681.3" y="-218.64" font-family="Helvetica,sans-Serif" font-size="10.00" fill="grey">returnType</text>
</g>
<!-- Node3 -->
<g id="Node000003" class="node">
<title>Node3</title>
<g id="a_Node000003"><a xlink:href="../../d1/da5/classmimicpp_1_1printing_1_1type_1_1parsing_1_1token_1_1_type.html" target="_top" xlink:title=" ">
<polygon fill="white" stroke="#666666" points="234.55,-227.12 110.55,-227.12 110.55,-196.62 234.55,-196.62 234.55,-227.12"/>
<text text-anchor="start" x="118.55" y="-213.62" font-family="Helvetica,sans-Serif" font-size="10.00">mimicpp::printing::</text>
<text text-anchor="middle" x="172.55" y="-202.38" font-family="Helvetica,sans-Serif" font-size="10.00">type::parsing::token::Type</text>
</a>
</g>
</g>
<!-- Node3&#45;&gt;Node2 -->
<g id="edge2_Node000002_Node000003" class="edge">
<title>Node3&#45;&gt;Node2</title>
<g id="a_edge2_Node000002_Node000003"><a xlink:title=" ">
<path fill="none" stroke="#9a32cd" stroke-dasharray="5,2" d="M246.09,-220.61C284.89,-225.29 332.16,-230.98 369.18,-235.44"/>
<polygon fill="#9a32cd" stroke="#9a32cd" points="246.72,-217.16 236.37,-219.44 245.88,-224.11 246.72,-217.16"/>
</a>
</g>
<text text-anchor="start" x="296.42" y="-237.6" font-family="Helvetica,sans-Serif" font-size="10.00" fill="grey">ptr</text>
</g>
<!-- Node12 -->
<g id="Node000012" class="node">
<title>Node12</title>
<g id="a_Node000012"><a xlink:title=" ">
<polygon fill="white" stroke="#666666" points="487.17,-191.75 376.67,-191.75 376.67,-150 487.17,-150 487.17,-191.75"/>
<text text-anchor="start" x="384.67" y="-178.25" font-family="Helvetica,sans-Serif" font-size="10.00">std::vector&lt; mimicpp</text>
<text text-anchor="start" x="384.67" y="-167" font-family="Helvetica,sans-Serif" font-size="10.00">::printing::type::parsing</text>
<text text-anchor="middle" x="431.92" y="-155.75" font-family="Helvetica,sans-Serif" font-size="10.00">::token::Type &gt;</text>
</a>
</g>
</g>
<!-- Node3&#45;&gt;Node12 -->
<g id="edge13_Node000012_Node000003" class="edge">
<title>Node3&#45;&gt;Node12</title>
<g id="a_edge13_Node000012_Node000003"><a xlink:title=" ">
<path fill="none" stroke="#9a32cd" stroke-dasharray="5,2" d="M246.24,-200.3C287.51,-193.72 338.33,-185.63 376.2,-179.59"/>
<polygon fill="#9a32cd" stroke="#9a32cd" points="245.69,-196.84 236.37,-201.87 246.79,-203.75 245.69,-196.84"/>
</a>
</g>
<text text-anchor="start" x="282.17" y="-203.36" font-family="Helvetica,sans-Serif" font-size="10.00" fill="grey">elements</text>
</g>
<!-- Node4 -->
<g id="Node000004" class="node">
<title>Node4</title>
<g id="a_Node000004"><a xlink:title=" ">
<polygon fill="white" stroke="#666666" points="223.67,-282.5 121.42,-282.5 121.42,-263.25 223.67,-263.25 223.67,-282.5"/>
<text text-anchor="middle" x="172.55" y="-269" font-family="Helvetica,sans-Serif" font-size="10.00">std::shared_ptr&lt; T &gt;</text>
</a>
</g>
</g>
<!-- Node4&#45;&gt;Node2 -->
<g id="edge3_Node000002_Node000004" class="edge">
<title>Node4&#45;&gt;Node2</title>
<g id="a_edge3_Node000002_Node000004"><a xlink:title=" ">
<path fill="none" stroke="orange" stroke-dasharray="5,2" d="M235.31,-271.08C269.67,-269.48 313.14,-266.49 351.55,-260.88 357.28,-260.04 363.21,-259.01 369.14,-257.86"/>
<polygon fill="orange" stroke="orange" points="235.38,-267.57 225.54,-271.5 235.68,-274.56 235.38,-267.57"/>
</a>
</g>
<text text-anchor="start" x="255.55" y="-305.3" font-family="Helvetica,sans-Serif" font-size="10.00" fill="grey">&lt; mimicpp::printing</text>
<text text-anchor="start" x="255.55" y="-290.05" font-family="Helvetica,sans-Serif" font-size="10.00" fill="grey">  ::type::parsing::token</text>
<text text-anchor="start" x="255.55" y="-274.8" font-family="Helvetica,sans-Serif" font-size="10.00" fill="grey">  ::Type &gt;</text>
</g>
<!-- Node5 -->
<g id="Node000005" class="node">
<title>Node5</title>
<g id="a_Node000005"><a xlink:title=" ">
<polygon fill="white" stroke="#666666" points="28.8,-198.5 0,-198.5 0,-179.25 28.8,-179.25 28.8,-198.5"/>
<text text-anchor="middle" x="14.4" y="-185" font-family="Helvetica,sans-Serif" font-size="10.00">T</text>
</a>
</g>
</g>
<!-- Node5&#45;&gt;Node4 -->
<g id="edge4_Node000004_Node000005" class="edge">
<title>Node5&#45;&gt;Node4</title>
<g id="a_edge4_Node000004_Node000005"><a xlink:title=" ">
<path fill="none" stroke="#9a32cd" stroke-dasharray="5,2" d="M39.3,-201.73C70.63,-218.59 124.92,-247.79 153.21,-263.01"/>
<polygon fill="#9a32cd" stroke="#9a32cd" points="41.05,-198.7 30.59,-197.05 37.74,-204.87 41.05,-198.7"/>
</a>
</g>
<text text-anchor="start" x="64.05" y="-233.11" font-family="Helvetica,sans-Serif" font-size="10.00" fill="grey">ptr</text>
</g>
<!-- Node9 -->
<g id="Node000009" class="node">
<title>Node9</title>
<g id="a_Node000009"><a xlink:title=" ">
<polygon fill="white" stroke="#666666" points="214.3,-141.5 130.8,-141.5 130.8,-122.25 214.3,-122.25 214.3,-141.5"/>
<text text-anchor="middle" x="172.55" y="-128" font-family="Helvetica,sans-Serif" font-size="10.00">std::vector&lt; T &gt;</text>
</a>
</g>
</g>
<!-- Node5&#45;&gt;Node9 -->
<g id="edge9_Node000009_Node000005" class="edge">
<title>Node5&#45;&gt;Node9</title>
<g id="a_edge9_Node000009_Node000005"><a xlink:title=" ">
<path fill="none" stroke="#9a32cd" stroke-dasharray="5,2" d="M39.8,-179.97C68.03,-169.66 114.41,-152.73 143.94,-141.95"/>
<polygon fill="#9a32cd" stroke="#9a32cd" points="38.87,-176.58 30.68,-183.3 41.27,-183.16 38.87,-176.58"/>
</a>
</g>
<text text-anchor="start" x="49.8" y="-181.31" font-family="Helvetica,sans-Serif" font-size="10.00" fill="grey">elements</text>
</g>
<!-- Node6 -->
<g id="Node000006" class="node">
<title>Node6</title>
<g id="a_Node000006"><a xlink:href="../../de/db7/classmimicpp_1_1printing_1_1type_1_1parsing_1_1token_1_1_specs.html" target="_top" xlink:title=" ">
<polygon fill="white" stroke="#666666" points="660.3,-118.75 561.8,-118.75 561.8,-77 660.3,-77 660.3,-118.75"/>
<text text-anchor="start" x="569.8" y="-105.25" font-family="Helvetica,sans-Serif" font-size="10.00">mimicpp::printing::</text>
<text text-anchor="start" x="569.8" y="-94" font-family="Helvetica,sans-Serif" font-size="10.00">type::parsing::token</text>
<text text-anchor="middle" x="611.05" y="-82.75" font-family="Helvetica,sans-Serif" font-size="10.00">::Specs</text>
</a>
</g>
</g>
<!-- Node6&#45;&gt;Node1 -->
<g id="edge5_Node000001_Node000006" class="edge">
<title>Node6&#45;&gt;Node1</title>
<g id="a_edge5_Node000001_Node000006"><a xlink:title=" ">
<path fill="none" stroke="#9a32cd" stroke-dasharray="5,2" d="M672.11,-97.26C719.91,-97.94 788.24,-101.54 846.55,-114.62 872.66,-120.48 900.56,-130.98 923.06,-140.59"/>
<polygon fill="#9a32cd" stroke="#9a32cd" points="672.26,-93.76 662.23,-97.16 672.2,-100.76 672.26,-93.76"/>
</a>
</g>
<text text-anchor="start" x="784.17" y="-119.38" font-family="Helvetica,sans-Serif" font-size="10.00" fill="grey">specs</text>
</g>
<!-- Node10 -->
<g id="Node000010" class="node">
<title>Node10</title>
<g id="a_Node000010"><a xlink:href="../../d8/dd3/classmimicpp_1_1printing_1_1type_1_1parsing_1_1token_1_1_function_context.html" target="_top" xlink:title=" ">
<polygon fill="white" stroke="#666666" points="846.55,-182.75 748.05,-182.75 748.05,-141 846.55,-141 846.55,-182.75"/>
<text text-anchor="start" x="756.05" y="-169.25" font-family="Helvetica,sans-Serif" font-size="10.00">mimicpp::printing::</text>
<text text-anchor="start" x="756.05" y="-158" font-family="Helvetica,sans-Serif" font-size="10.00">type::parsing::token</text>
<text text-anchor="middle" x="797.3" y="-146.75" font-family="Helvetica,sans-Serif" font-size="10.00">::FunctionContext</text>
</a>
</g>
</g>
<!-- Node6&#45;&gt;Node10 -->
<g id="edge15_Node000010_Node000006" class="edge">
<title>Node6&#45;&gt;Node10</title>
<g id="a_edge15_Node000010_Node000006"><a xlink:title=" ">
<path fill="none" stroke="#9a32cd" stroke-dasharray="5,2" d="M671.14,-118.4C695.81,-126.97 724.13,-136.8 747.57,-144.95"/>
<polygon fill="#9a32cd" stroke="#9a32cd" points="672.48,-115.16 661.89,-115.19 670.19,-121.77 672.48,-115.16"/>
</a>
</g>
<text text-anchor="start" x="691.05" y="-142.24" font-family="Helvetica,sans-Serif" font-size="10.00" fill="grey">specs</text>
</g>
<!-- Node7 -->
<g id="Node000007" class="node">
<title>Node7</title>
<g id="a_Node000007"><a xlink:title=" ">
<polygon fill="white" stroke="#666666" points="488.67,-81.75 375.17,-81.75 375.17,-40 488.67,-40 488.67,-81.75"/>
<text text-anchor="start" x="383.17" y="-68.25" font-family="Helvetica,sans-Serif" font-size="10.00">std::vector&lt; mimicpp</text>
<text text-anchor="start" x="383.17" y="-57" font-family="Helvetica,sans-Serif" font-size="10.00">::printing::type::parsing</text>
<text text-anchor="middle" x="431.92" y="-45.75" font-family="Helvetica,sans-Serif" font-size="10.00">::token::Specs::Layer &gt;</text>
</a>
</g>
</g>
<!-- Node7&#45;&gt;Node6 -->
<g id="edge6_Node000006_Node000007" class="edge">
<title>Node7&#45;&gt;Node6</title>
<g id="a_edge6_Node000006_Node000007"><a xlink:title=" ">
<path fill="none" stroke="#9a32cd" stroke-dasharray="5,2" d="M500.12,-74.91C520.55,-79.18 542.59,-83.78 561.53,-87.74"/>
<polygon fill="#9a32cd" stroke="#9a32cd" points="500.95,-71.51 490.45,-72.89 499.52,-78.36 500.95,-71.51"/>
</a>
</g>
<text text-anchor="start" x="515.3" y="-88.53" font-family="Helvetica,sans-Serif" font-size="10.00" fill="grey">layers</text>
</g>
<!-- Node8 -->
<g id="Node000008" class="node">
<title>Node8</title>
<g id="a_Node000008"><a xlink:href="../../d4/dcb/structmimicpp_1_1printing_1_1type_1_1parsing_1_1token_1_1_specs_1_1_layer.html" target="_top" xlink:title=" ">
<polygon fill="white" stroke="#666666" points="221.8,-41.75 123.3,-41.75 123.3,0 221.8,0 221.8,-41.75"/>
<text text-anchor="start" x="131.3" y="-28.25" font-family="Helvetica,sans-Serif" font-size="10.00">mimicpp::printing::</text>
<text text-anchor="start" x="131.3" y="-17" font-family="Helvetica,sans-Serif" font-size="10.00">type::parsing::token</text>
<text text-anchor="middle" x="172.55" y="-5.75" font-family="Helvetica,sans-Serif" font-size="10.00">::Specs::Layer</text>
</a>
</g>
</g>
<!-- Node8&#45;&gt;Node7 -->
<g id="edge7_Node000007_Node000008" class="edge">
<title>Node8&#45;&gt;Node7</title>
<g id="a_edge7_Node000007_Node000008"><a xlink:title=" ">
<path fill="none" stroke="#9a32cd" stroke-dasharray="5,2" d="M233.65,-14.44C268.53,-12.35 313.04,-12.54 351.55,-21.62 367.11,-25.3 383.13,-32.46 396.66,-39.68"/>
<polygon fill="#9a32cd" stroke="#9a32cd" points="233.46,-10.94 223.73,-15.12 233.94,-17.93 233.46,-10.94"/>
</a>
</g>
<text text-anchor="start" x="282.17" y="-26.38" font-family="Helvetica,sans-Serif" font-size="10.00" fill="grey">elements</text>
</g>
<!-- Node9&#45;&gt;Node7 -->
<g id="edge8_Node000007_Node000009" class="edge">
<title>Node9&#45;&gt;Node7</title>
<g id="a_edge8_Node000007_Node000009"><a xlink:title=" ">
<path fill="none" stroke="orange" stroke-dasharray="5,2" d="M191.38,-113.84C206.31,-100.01 228.92,-81.86 252.55,-73.12 291.71,-58.65 338.96,-56.01 374.99,-56.75"/>
<polygon fill="orange" stroke="orange" points="189.01,-111.27 184.23,-120.72 193.86,-116.31 189.01,-111.27"/>
</a>
</g>
<text text-anchor="start" x="255.55" y="-108.38" font-family="Helvetica,sans-Serif" font-size="10.00" fill="grey">&lt; mimicpp::printing</text>
<text text-anchor="start" x="255.55" y="-93.12" font-family="Helvetica,sans-Serif" font-size="10.00" fill="grey">  ::type::parsing::token</text>
<text text-anchor="start" x="255.55" y="-77.88" font-family="Helvetica,sans-Serif" font-size="10.00" fill="grey">  ::Specs::Layer &gt;</text>
</g>
<!-- Node9&#45;&gt;Node12 -->
<g id="edge14_Node000012_Node000009" class="edge">
<title>Node9&#45;&gt;Node12</title>
<g id="a_edge14_Node000012_Node000009"><a xlink:title=" ">
<path fill="none" stroke="orange" stroke-dasharray="5,2" d="M225.95,-126.33C261.78,-123.97 310.1,-123.62 351.55,-133.12 366.27,-136.5 381.48,-142.91 394.59,-149.51"/>
<polygon fill="orange" stroke="orange" points="226.01,-122.82 216.29,-127.04 226.52,-129.8 226.01,-122.82"/>
</a>
</g>
<text text-anchor="start" x="255.55" y="-168.38" font-family="Helvetica,sans-Serif" font-size="10.00" fill="grey">&lt; mimicpp::printing</text>
<text text-anchor="start" x="255.55" y="-153.12" font-family="Helvetica,sans-Serif" font-size="10.00" fill="grey">  ::type::parsing::token</text>
<text text-anchor="start" x="255.55" y="-137.88" font-family="Helvetica,sans-Serif" font-size="10.00" fill="grey">  ::Type &gt;</text>
</g>
<!-- Node10&#45;&gt;Node1 -->
<g id="edge10_Node000001_Node000010" class="edge">
<title>Node10&#45;&gt;Node1</title>
<g id="a_edge10_Node000001_Node000010"><a xlink:title=" ">
<path fill="none" stroke="#9a32cd" stroke-dasharray="5,2" d="M858.53,-161.88C878.53,-161.88 900.55,-161.88 919.58,-161.88"/>
<polygon fill="#9a32cd" stroke="#9a32cd" points="858.53,-158.38 848.53,-161.88 858.53,-165.38 858.53,-158.38"/>
</a>
</g>
<text text-anchor="start" x="867.55" y="-166.62" font-family="Helvetica,sans-Serif" font-size="10.00" fill="grey">context</text>
</g>
<!-- Node11 -->
<g id="Node000011" class="node">
<title>Node11</title>
<g id="a_Node000011"><a xlink:href="../../d6/d54/classmimicpp_1_1printing_1_1type_1_1parsing_1_1token_1_1_arg_sequence.html" target="_top" xlink:title=" ">
<polygon fill="white" stroke="#666666" points="660.3,-191.75 561.8,-191.75 561.8,-150 660.3,-150 660.3,-191.75"/>
<text text-anchor="start" x="569.8" y="-178.25" font-family="Helvetica,sans-Serif" font-size="10.00">mimicpp::printing::</text>
<text text-anchor="start" x="569.8" y="-167" font-family="Helvetica,sans-Serif" font-size="10.00">type::parsing::token</text>
<text text-anchor="middle" x="611.05" y="-155.75" font-family="Helvetica,sans-Serif" font-size="10.00">::ArgSequence</text>
</a>
</g>
</g>
<!-- Node11&#45;&gt;Node10 -->
<g id="edge11_Node000010_Node000011" class="edge">
<title>Node11&#45;&gt;Node10</title>
<g id="a_edge11_Node000010_Node000011"><a xlink:title=" ">
<path fill="none" stroke="#9a32cd" stroke-dasharray="5,2" d="M671.81,-167.96C696.32,-166.76 724.34,-165.39 747.57,-164.26"/>
<polygon fill="#9a32cd" stroke="#9a32cd" points="671.79,-164.45 661.97,-168.44 672.13,-171.44 671.79,-164.45"/>
</a>
</g>
<text text-anchor="start" x="694.8" y="-172.2" font-family="Helvetica,sans-Serif" font-size="10.00" fill="grey">args</text>
</g>
<!-- Node12&#45;&gt;Node11 -->
<g id="edge12_Node000011_Node000012" class="edge">
<title>Node12&#45;&gt;Node11</title>
<g id="a_edge12_Node000011_Node000012"><a xlink:title=" ">
<path fill="none" stroke="#9a32cd" stroke-dasharray="5,2" d="M498.81,-170.88C519.54,-170.88 542.04,-170.88 561.35,-170.88"/>
<polygon fill="#9a32cd" stroke="#9a32cd" points="499.03,-167.38 489.03,-170.88 499.03,-174.38 499.03,-167.38"/>
</a>
</g>
<text text-anchor="start" x="516.42" y="-175.62" font-family="Helvetica,sans-Serif" font-size="10.00" fill="grey">types</text>
</g>
</g>
</svg>
