<?xml version="1.0" encoding="UTF-8" standalone="no"?>
<!DOCTYPE svg PUBLIC "-//W3C//DTD SVG 1.1//EN"
 "http://www.w3.org/Graphics/SVG/1.1/DTD/svg11.dtd">
<!-- Generated by graphviz version 12.2.1 (20241206.2353)
 -->
<!-- Title: mimicpp::printing::type::parsing::token::FunctionPtrType Pages: 1 -->
<svg width="1000pt" height="265pt"
 viewBox="0.00 0.00 999.55 265.37" xmlns="http://www.w3.org/2000/svg" xmlns:xlink="http://www.w3.org/1999/xlink">
<g id="graph0" class="graph" transform="scale(1 1) rotate(0) translate(4 261.37)">
<title>mimicpp::printing::type::parsing::token::FunctionPtrType</title>
<!-- Node1 -->
<g id="Node000001" class="node">
<title>Node1</title>
<g id="a_Node000001"><a xlink:title=" ">
<polygon fill="#999999" stroke="#666666" points="991.55,-149.75 893.05,-149.75 893.05,-108 991.55,-108 991.55,-149.75"/>
<text text-anchor="start" x="901.05" y="-136.25" font-family="Helvetica,sans-Serif" font-size="10.00">mimicpp::printing::</text>
<text text-anchor="start" x="901.05" y="-125" font-family="Helvetica,sans-Serif" font-size="10.00">type::parsing::token</text>
<text text-anchor="middle" x="942.3" y="-113.75" font-family="Helvetica,sans-Serif" font-size="10.00">::FunctionPtrType</text>
</a>
</g>
</g>
<!-- Node2 -->
<g id="Node000002" class="node">
<title>Node2</title>
<g id="a_Node000002"><a xlink:title=" ">
<polygon fill="white" stroke="#666666" points="478.55,-223.75 353.8,-223.75 353.8,-182 478.55,-182 478.55,-223.75"/>
<text text-anchor="start" x="361.8" y="-210.25" font-family="Helvetica,sans-Serif" font-size="10.00">std::shared_ptr&lt; mimicpp</text>
<text text-anchor="start" x="361.8" y="-199" font-family="Helvetica,sans-Serif" font-size="10.00">::printing::type::parsing</text>
<text text-anchor="middle" x="416.17" y="-187.75" font-family="Helvetica,sans-Serif" font-size="10.00">::token::Type &gt;</text>
</a>
</g>
</g>
<!-- Node2&#45;&gt;Node1 -->
<g id="edge1_Node000001_Node000002" class="edge">
<title>Node2&#45;&gt;Node1</title>
<g id="a_edge1_Node000001_Node000002"><a xlink:title=" ">
<path fill="none" stroke="#9a32cd" stroke-dasharray="5,2" d="M490.19,-198.08C571.83,-192 707.76,-179.71 823.3,-158.88 846.29,-154.73 871.41,-148.57 892.55,-142.91"/>
<polygon fill="#9a32cd" stroke="#9a32cd" points="490.02,-194.58 480.31,-198.81 490.53,-201.57 490.02,-194.58"/>
</a>
</g>
<text text-anchor="middle" x="682.8" y="-183.86" font-family="Helvetica,sans-Serif" font-size="10.00" fill="grey"> returnType</text>
</g>
<!-- Node3 -->
<g id="Node000003" class="node">
<title>Node3</title>
<g id="a_Node000003"><a xlink:href="../../d1/da5/classmimicpp_1_1printing_1_1type_1_1parsing_1_1token_1_1_type.html" target="_top" xlink:title=" ">
<polygon fill="white" stroke="#666666" points="230.8,-190.12 106.8,-190.12 106.8,-159.62 230.8,-159.62 230.8,-190.12"/>
<text text-anchor="start" x="114.8" y="-176.62" font-family="Helvetica,sans-Serif" font-size="10.00">mimicpp::printing::</text>
<text text-anchor="middle" x="168.8" y="-165.38" font-family="Helvetica,sans-Serif" font-size="10.00">type::parsing::token::Type</text>
</a>
</g>
</g>
<!-- Node3&#45;&gt;Node2 -->
<g id="edge2_Node000002_Node000003" class="edge">
<title>Node3&#45;&gt;Node2</title>
<g id="a_edge2_Node000002_Node000003"><a xlink:title=" ">
<path fill="none" stroke="#9a32cd" stroke-dasharray="5,2" d="M242.3,-183.15C277.61,-187.18 319.63,-191.97 353.39,-195.83"/>
<polygon fill="#9a32cd" stroke="#9a32cd" points="242.92,-179.7 232.59,-182.04 242.13,-186.65 242.92,-179.7"/>
</a>
</g>
<text text-anchor="middle" x="292.3" y="-194.77" font-family="Helvetica,sans-Serif" font-size="10.00" fill="grey"> ptr</text>
</g>
<!-- Node12 -->
<g id="Node000012" class="node">
<title>Node12</title>
<g id="a_Node000012"><a xlink:title=" ">
<polygon fill="white" stroke="#666666" points="471.42,-158.75 360.92,-158.75 360.92,-117 471.42,-117 471.42,-158.75"/>
<text text-anchor="start" x="368.92" y="-145.25" font-family="Helvetica,sans-Serif" font-size="10.00">std::vector&lt; mimicpp</text>
<text text-anchor="start" x="368.92" y="-134" font-family="Helvetica,sans-Serif" font-size="10.00">::printing::type::parsing</text>
<text text-anchor="middle" x="416.17" y="-122.75" font-family="Helvetica,sans-Serif" font-size="10.00">::token::Type &gt;</text>
</a>
</g>
</g>
<!-- Node3&#45;&gt;Node12 -->
<g id="edge13_Node000012_Node000003" class="edge">
<title>Node3&#45;&gt;Node12</title>
<g id="a_edge13_Node000012_Node000003"><a xlink:title=" ">
<path fill="none" stroke="#9a32cd" stroke-dasharray="5,2" d="M242.06,-163.98C279.95,-158.27 325.61,-151.38 360.52,-146.12"/>
<polygon fill="#9a32cd" stroke="#9a32cd" points="241.95,-160.46 232.58,-165.41 242.99,-167.38 241.95,-160.46"/>
</a>
</g>
<text text-anchor="middle" x="292.3" y="-164.66" font-family="Helvetica,sans-Serif" font-size="10.00" fill="grey"> elements</text>
</g>
<!-- Node4 -->
<g id="Node000004" class="node">
<title>Node4</title>
<g id="a_Node000004"><a xlink:title=" ">
<polygon fill="white" stroke="#666666" points="219.92,-239.5 117.67,-239.5 117.67,-220.25 219.92,-220.25 219.92,-239.5"/>
<text text-anchor="middle" x="168.8" y="-226" font-family="Helvetica,sans-Serif" font-size="10.00">std::shared_ptr&lt; T &gt;</text>
</a>
</g>
</g>
<!-- Node4&#45;&gt;Node2 -->
<g id="edge3_Node000002_Node000004" class="edge">
<title>Node4&#45;&gt;Node2</title>
<g id="a_edge3_Node000002_Node000004"><a xlink:title=" ">
<path fill="none" stroke="orange" stroke-dasharray="5,2" d="M231.55,-225.18C262.83,-222.58 301.39,-219.03 335.8,-214.88 341.61,-214.17 347.65,-213.38 353.69,-212.54"/>
<polygon fill="orange" stroke="orange" points="231.56,-221.67 221.88,-225.97 232.13,-228.64 231.56,-221.67"/>
</a>
</g>
<text text-anchor="start" x="248.8" y="-247.87" font-family="Helvetica,sans-Serif" font-size="10.00" fill="grey"> &lt; mimicpp::printing</text>
<text text-anchor="start" x="248.8" y="-236.62" font-family="Helvetica,sans-Serif" font-size="10.00" fill="grey">::type::parsing::token</text>
<text text-anchor="middle" x="292.3" y="-225.37" font-family="Helvetica,sans-Serif" font-size="10.00" fill="grey">::Type &gt;</text>
</g>
<!-- Node5 -->
<g id="Node000005" class="node">
<title>Node5</title>
<g id="a_Node000005"><a xlink:title=" ">
<polygon fill="white" stroke="#666666" points="28.8,-171.5 0,-171.5 0,-152.25 28.8,-152.25 28.8,-171.5"/>
<text text-anchor="middle" x="14.4" y="-158" font-family="Helvetica,sans-Serif" font-size="10.00">T</text>
</a>
</g>
</g>
<!-- Node5&#45;&gt;Node4 -->
<g id="edge4_Node000004_Node000005" class="edge">
<title>Node5&#45;&gt;Node4</title>
<g id="a_edge4_Node000004_Node000005"><a xlink:title=" ">
<path fill="none" stroke="#9a32cd" stroke-dasharray="5,2" d="M39.64,-172.69C68.64,-185.63 116.82,-207.13 145.11,-219.75"/>
<polygon fill="#9a32cd" stroke="#9a32cd" points="41.13,-169.52 30.58,-168.65 38.28,-175.92 41.13,-169.52"/>
</a>
</g>
<text text-anchor="middle" x="67.8" y="-195.59" font-family="Helvetica,sans-Serif" font-size="10.00" fill="grey"> ptr</text>
</g>
<!-- Node9 -->
<g id="Node000009" class="node">
<title>Node9</title>
<g id="a_Node000009"><a xlink:title=" ">
<polygon fill="white" stroke="#666666" points="210.55,-121.5 127.05,-121.5 127.05,-102.25 210.55,-102.25 210.55,-121.5"/>
<text text-anchor="middle" x="168.8" y="-108" font-family="Helvetica,sans-Serif" font-size="10.00">std::vector&lt; T &gt;</text>
</a>
</g>
</g>
<!-- Node5&#45;&gt;Node9 -->
<g id="edge9_Node000009_Node000005" class="edge">
<title>Node5&#45;&gt;Node9</title>
<g id="a_edge9_Node000009_Node000005"><a xlink:title=" ">
<path fill="none" stroke="#9a32cd" stroke-dasharray="5,2" d="M39.8,-153.87C66.25,-145.19 108.51,-131.33 137.17,-121.92"/>
<polygon fill="#9a32cd" stroke="#9a32cd" points="39.04,-150.43 30.63,-156.88 41.22,-157.09 39.04,-150.43"/>
</a>
</g>
<text text-anchor="middle" x="67.8" y="-152.82" font-family="Helvetica,sans-Serif" font-size="10.00" fill="grey"> elements</text>
</g>
<!-- Node6 -->
<g id="Node000006" class="node">
<title>Node6</title>
<g id="a_Node000006"><a xlink:href="../../de/db7/classmimicpp_1_1printing_1_1type_1_1parsing_1_1token_1_1_specs.html" target="_top" xlink:title=" ">
<polygon fill="white" stroke="#666666" points="640.8,-91.75 542.3,-91.75 542.3,-50 640.8,-50 640.8,-91.75"/>
<text text-anchor="start" x="550.3" y="-78.25" font-family="Helvetica,sans-Serif" font-size="10.00">mimicpp::printing::</text>
<text text-anchor="start" x="550.3" y="-67" font-family="Helvetica,sans-Serif" font-size="10.00">type::parsing::token</text>
<text text-anchor="middle" x="591.55" y="-55.75" font-family="Helvetica,sans-Serif" font-size="10.00">::Specs</text>
</a>
</g>
</g>
<!-- Node6&#45;&gt;Node1 -->
<g id="edge5_Node000001_Node000006" class="edge">
<title>Node6&#45;&gt;Node1</title>
<g id="a_edge5_Node000001_Node000006"><a xlink:title=" ">
<path fill="none" stroke="#9a32cd" stroke-dasharray="5,2" d="M652.72,-70.92C699.64,-71.99 766.19,-75.79 823.3,-87.62 846.68,-92.47 871.75,-100.77 892.75,-108.66"/>
<polygon fill="#9a32cd" stroke="#9a32cd" points="652.81,-67.42 642.75,-70.73 652.68,-74.42 652.81,-67.42"/>
</a>
</g>
<text text-anchor="middle" x="774.05" y="-89.38" font-family="Helvetica,sans-Serif" font-size="10.00" fill="grey"> specs</text>
</g>
<!-- Node10 -->
<g id="Node000010" class="node">
<title>Node10</title>
<g id="a_Node000010"><a xlink:href="../../d8/dd3/classmimicpp_1_1printing_1_1type_1_1parsing_1_1token_1_1_function_context.html" target="_top" xlink:title=" ">
<polygon fill="white" stroke="#666666" points="823.3,-149.75 724.8,-149.75 724.8,-108 823.3,-108 823.3,-149.75"/>
<text text-anchor="start" x="732.8" y="-136.25" font-family="Helvetica,sans-Serif" font-size="10.00">mimicpp::printing::</text>
<text text-anchor="start" x="732.8" y="-125" font-family="Helvetica,sans-Serif" font-size="10.00">type::parsing::token</text>
<text text-anchor="middle" x="774.05" y="-113.75" font-family="Helvetica,sans-Serif" font-size="10.00">::FunctionContext</text>
</a>
</g>
</g>
<!-- Node6&#45;&gt;Node10 -->
<g id="edge15_Node000010_Node000006" class="edge">
<title>Node6&#45;&gt;Node10</title>
<g id="a_edge15_Node000010_Node000006"><a xlink:title=" ">
<path fill="none" stroke="#9a32cd" stroke-dasharray="5,2" d="M651.84,-89.93C675.41,-97.5 702.17,-106.1 724.55,-113.29"/>
<polygon fill="#9a32cd" stroke="#9a32cd" points="652.95,-86.61 642.36,-86.88 650.81,-93.27 652.95,-86.61"/>
</a>
</g>
<text text-anchor="middle" x="682.8" y="-108.53" font-family="Helvetica,sans-Serif" font-size="10.00" fill="grey"> specs</text>
</g>
<!-- Node7 -->
<g id="Node000007" class="node">
<title>Node7</title>
<g id="a_Node000007"><a xlink:title=" ">
<polygon fill="white" stroke="#666666" points="472.92,-75.75 359.42,-75.75 359.42,-34 472.92,-34 472.92,-75.75"/>
<text text-anchor="start" x="367.42" y="-62.25" font-family="Helvetica,sans-Serif" font-size="10.00">std::vector&lt; mimicpp</text>
<text text-anchor="start" x="367.42" y="-51" font-family="Helvetica,sans-Serif" font-size="10.00">::printing::type::parsing</text>
<text text-anchor="middle" x="416.17" y="-39.75" font-family="Helvetica,sans-Serif" font-size="10.00">::token::Specs::Layer &gt;</text>
</a>
</g>
</g>
<!-- Node7&#45;&gt;Node6 -->
<g id="edge6_Node000006_Node000007" class="edge">
<title>Node7&#45;&gt;Node6</title>
<g id="a_edge6_Node000006_Node000007"><a xlink:title=" ">
<path fill="none" stroke="#9a32cd" stroke-dasharray="5,2" d="M484.39,-61.08C503.54,-62.85 524.03,-64.74 541.85,-66.38"/>
<polygon fill="#9a32cd" stroke="#9a32cd" points="484.77,-57.6 474.49,-60.16 484.13,-64.57 484.77,-57.6"/>
</a>
</g>
<text text-anchor="middle" x="510.42" y="-66.06" font-family="Helvetica,sans-Serif" font-size="10.00" fill="grey"> layers</text>
</g>
<!-- Node8 -->
<g id="Node000008" class="node">
<title>Node8</title>
<g id="a_Node000008"><a xlink:href="../../d4/dcb/structmimicpp_1_1printing_1_1type_1_1parsing_1_1token_1_1_specs_1_1_layer.html" target="_top" xlink:title=" ">
<polygon fill="white" stroke="#666666" points="218.05,-41.75 119.55,-41.75 119.55,0 218.05,0 218.05,-41.75"/>
<text text-anchor="start" x="127.55" y="-28.25" font-family="Helvetica,sans-Serif" font-size="10.00">mimicpp::printing::</text>
<text text-anchor="start" x="127.55" y="-17" font-family="Helvetica,sans-Serif" font-size="10.00">type::parsing::token</text>
<text text-anchor="middle" x="168.8" y="-5.75" font-family="Helvetica,sans-Serif" font-size="10.00">::Specs::Layer</text>
</a>
</g>
</g>
<!-- Node8&#45;&gt;Node7 -->
<g id="edge7_Node000007_Node000008" class="edge">
<title>Node8&#45;&gt;Node7</title>
<g id="a_edge7_Node000007_Node000008"><a xlink:title=" ">
<path fill="none" stroke="#9a32cd" stroke-dasharray="5,2" d="M229.61,-15.55C261.45,-14.11 301.09,-14.57 335.8,-21.62 348.24,-24.16 361.18,-28.67 372.9,-33.57"/>
<polygon fill="#9a32cd" stroke="#9a32cd" points="229.56,-12.05 219.76,-16.07 229.94,-19.04 229.56,-12.05"/>
</a>
</g>
<text text-anchor="middle" x="292.3" y="-23.38" font-family="Helvetica,sans-Serif" font-size="10.00" fill="grey"> elements</text>
</g>
<!-- Node9&#45;&gt;Node7 -->
<g id="edge8_Node000007_Node000009" class="edge">
<title>Node9&#45;&gt;Node7</title>
<g id="a_edge8_Node000007_Node000009"><a xlink:title=" ">
<path fill="none" stroke="orange" stroke-dasharray="5,2" d="M194.04,-95.83C209.15,-86.68 229.35,-75.9 248.8,-70.12 284.53,-59.51 326.31,-55.71 359.06,-54.56"/>
<polygon fill="orange" stroke="orange" points="192.37,-92.75 185.75,-101.03 196.09,-98.68 192.37,-92.75"/>
</a>
</g>
<text text-anchor="start" x="248.8" y="-94.38" font-family="Helvetica,sans-Serif" font-size="10.00" fill="grey"> &lt; mimicpp::printing</text>
<text text-anchor="start" x="248.8" y="-83.12" font-family="Helvetica,sans-Serif" font-size="10.00" fill="grey">::type::parsing::token</text>
<text text-anchor="middle" x="292.3" y="-71.88" font-family="Helvetica,sans-Serif" font-size="10.00" fill="grey">::Specs::Layer &gt;</text>
</g>
<!-- Node9&#45;&gt;Node12 -->
<g id="edge14_Node000012_Node000009" class="edge">
<title>Node9&#45;&gt;Node12</title>
<g id="a_edge14_Node000012_Node000009"><a xlink:title=" ">
<path fill="none" stroke="orange" stroke-dasharray="5,2" d="M222.16,-108.35C255,-107.11 298.1,-107.24 335.8,-113.12 343.93,-114.39 352.37,-116.33 360.59,-118.56"/>
<polygon fill="orange" stroke="orange" points="222.35,-104.84 212.52,-108.77 222.66,-111.83 222.35,-104.84"/>
</a>
</g>
<text text-anchor="start" x="248.8" y="-137.38" font-family="Helvetica,sans-Serif" font-size="10.00" fill="grey"> &lt; mimicpp::printing</text>
<text text-anchor="start" x="248.8" y="-126.12" font-family="Helvetica,sans-Serif" font-size="10.00" fill="grey">::type::parsing::token</text>
<text text-anchor="middle" x="292.3" y="-114.88" font-family="Helvetica,sans-Serif" font-size="10.00" fill="grey">::Type &gt;</text>
</g>
<!-- Node10&#45;&gt;Node1 -->
<g id="edge10_Node000001_Node000010" class="edge">
<title>Node10&#45;&gt;Node1</title>
<g id="a_edge10_Node000001_Node000010"><a xlink:title=" ">
<path fill="none" stroke="#9a32cd" stroke-dasharray="5,2" d="M834.84,-128.88C853.83,-128.88 874.6,-128.88 892.71,-128.88"/>
<polygon fill="#9a32cd" stroke="#9a32cd" points="835.1,-125.38 825.1,-128.88 835.1,-132.38 835.1,-125.38"/>
</a>
</g>
<text text-anchor="middle" x="858.17" y="-130.62" font-family="Helvetica,sans-Serif" font-size="10.00" fill="grey"> context</text>
</g>
<!-- Node11 -->
<g id="Node000011" class="node">
<title>Node11</title>
<g id="a_Node000011"><a xlink:href="../../d6/d54/classmimicpp_1_1printing_1_1type_1_1parsing_1_1token_1_1_arg_sequence.html" target="_top" xlink:title=" ">
<polygon fill="white" stroke="#666666" points="640.8,-158.75 542.3,-158.75 542.3,-117 640.8,-117 640.8,-158.75"/>
<text text-anchor="start" x="550.3" y="-145.25" font-family="Helvetica,sans-Serif" font-size="10.00">mimicpp::printing::</text>
<text text-anchor="start" x="550.3" y="-134" font-family="Helvetica,sans-Serif" font-size="10.00">type::parsing::token</text>
<text text-anchor="middle" x="591.55" y="-122.75" font-family="Helvetica,sans-Serif" font-size="10.00">::ArgSequence</text>
</a>
</g>
</g>
<!-- Node11&#45;&gt;Node10 -->
<g id="edge11_Node000010_Node000011" class="edge">
<title>Node11&#45;&gt;Node10</title>
<g id="a_edge11_Node000010_Node000011"><a xlink:title=" ">
<path fill="none" stroke="#9a32cd" stroke-dasharray="5,2" d="M652.16,-134.9C675.65,-133.73 702.27,-132.4 724.55,-131.29"/>
<polygon fill="#9a32cd" stroke="#9a32cd" points="652.25,-131.39 642.43,-135.39 652.59,-138.39 652.25,-131.39"/>
</a>
</g>
<text text-anchor="middle" x="682.8" y="-136.2" font-family="Helvetica,sans-Serif" font-size="10.00" fill="grey"> args</text>
</g>
<!-- Node12&#45;&gt;Node11 -->
<g id="edge12_Node000011_Node000012" class="edge">
<title>Node12&#45;&gt;Node11</title>
<g id="a_edge12_Node000011_Node000012"><a xlink:title=" ">
<path fill="none" stroke="#9a32cd" stroke-dasharray="5,2" d="M482.89,-137.88C502.5,-137.88 523.64,-137.88 541.94,-137.88"/>
<polygon fill="#9a32cd" stroke="#9a32cd" points="483.07,-134.38 473.07,-137.88 483.07,-141.38 483.07,-134.38"/>
</a>
</g>
<text text-anchor="middle" x="510.42" y="-139.62" font-family="Helvetica,sans-Serif" font-size="10.00" fill="grey"> types</text>
</g>
</g>
</svg>
