<?xml version="1.0" encoding="UTF-8" standalone="no"?>
<!DOCTYPE svg PUBLIC "-//W3C//DTD SVG 1.1//EN"
 "http://www.w3.org/Graphics/SVG/1.1/DTD/svg11.dtd">
<!-- Generated by graphviz version 12.2.1 (20241206.2353)
 -->
<!-- Title: mimicpp::type_list_pop_back&lt; TypeList &gt; Pages: 1 -->
<svg width="1127pt" height="80pt"
 viewBox="0.00 0.00 1126.75 80.38" xmlns="http://www.w3.org/2000/svg" xmlns:xlink="http://www.w3.org/1999/xlink">
<g id="graph0" class="graph" transform="scale(1 1) rotate(0) translate(4 76.38)">
<title>mimicpp::type_list_pop_back&lt; TypeList &gt;</title>
<!-- Node1 -->
<g id="Node000001" class="node">
<title>Node1</title>
<g id="a_Node000001"><a xlink:title=" ">
<polygon fill="#999999" stroke="#666666" points="562.75,-63.12 445.5,-63.12 445.5,-32.62 562.75,-32.62 562.75,-63.12"/>
<text text-anchor="start" x="453.5" y="-49.62" font-family="Helvetica,sans-Serif" font-size="10.00">mimicpp::type_list</text>
<text text-anchor="middle" x="504.12" y="-38.38" font-family="Helvetica,sans-Serif" font-size="10.00">_pop_back&lt; TypeList &gt;</text>
</a>
</g>
</g>
<!-- Node4 -->
<g id="Node000004" class="node">
<title>Node4</title>
<g id="a_Node000004"><a xlink:title=" ">
<polygon fill="white" stroke="#666666" points="1118.75,-72.38 997.75,-72.38 997.75,-19.38 1118.75,-19.38 1118.75,-72.38"/>
<text text-anchor="start" x="1005.75" y="-58.88" font-family="Helvetica,sans-Serif" font-size="10.00">mimicpp::printing::</text>
<text text-anchor="start" x="1005.75" y="-47.62" font-family="Helvetica,sans-Serif" font-size="10.00">detail::type::type_list</text>
<text text-anchor="start" x="1005.75" y="-36.38" font-family="Helvetica,sans-Serif" font-size="10.00">_pop_back_if_can&lt; type</text>
<text text-anchor="middle" x="1058.25" y="-25.12" font-family="Helvetica,sans-Serif" font-size="10.00">_list&lt;&gt; &gt;</text>
</a>
</g>
</g>
<!-- Node1&#45;&gt;Node4 -->
<g id="edge3_Node000001_Node000004" class="edge">
<title>Node1&#45;&gt;Node4</title>
<g id="a_edge3_Node000001_Node000004"><a xlink:title=" ">
<path fill="none" stroke="#63b8ff" d="M574.15,-53.58C576.37,-53.69 578.58,-53.79 580.75,-53.88 596.4,-54.5 600.33,-53.92 616,-53.88 777.67,-53.43 818.22,-58.56 979.75,-51.88 985.55,-51.63 991.58,-51.31 997.62,-50.93"/>
<polygon fill="#63b8ff" stroke="#63b8ff" points="574.6,-50.1 564.41,-53.02 574.2,-57.09 574.6,-50.1"/>
</a>
</g>
</g>
<!-- Node5 -->
<g id="Node000005" class="node">
<title>Node5</title>
<g id="a_Node000005"><a xlink:href="../../d2/d6a/structmimicpp_1_1type__list__pop__back.html" target="_top" xlink:title=" ">
<polygon fill="white" stroke="#666666" points="730.25,-41.12 634,-41.12 634,-10.62 730.25,-10.62 730.25,-41.12"/>
<text text-anchor="start" x="642" y="-27.62" font-family="Helvetica,sans-Serif" font-size="10.00">mimicpp::type_list</text>
<text text-anchor="middle" x="682.12" y="-16.38" font-family="Helvetica,sans-Serif" font-size="10.00">_pop_back&lt; List &gt;</text>
</a>
</g>
</g>
<!-- Node1&#45;&gt;Node5 -->
<g id="edge4_Node000001_Node000005" class="edge">
<title>Node1&#45;&gt;Node5</title>
<g id="a_edge4_Node000001_Node000005"><a xlink:title=" ">
<path fill="none" stroke="orange" stroke-dasharray="5,2" d="M574.41,-39.21C594.25,-36.73 615.42,-34.09 633.62,-31.81"/>
<polygon fill="orange" stroke="orange" points="574.23,-35.71 564.74,-40.42 575.1,-42.66 574.23,-35.71"/>
</a>
</g>
<text text-anchor="middle" x="598.38" y="-39.94" font-family="Helvetica,sans-Serif" font-size="10.00" fill="grey"> &lt; List &gt;</text>
</g>
<!-- Node2 -->
<g id="Node000002" class="node">
<title>Node2</title>
<g id="a_Node000002"><a xlink:title=" ">
<polygon fill="white" stroke="#666666" points="408.5,-68.75 301,-68.75 301,-27 408.5,-27 408.5,-68.75"/>
<text text-anchor="start" x="309" y="-55.25" font-family="Helvetica,sans-Serif" font-size="10.00">mimicpp::detail::type</text>
<text text-anchor="start" x="309" y="-44" font-family="Helvetica,sans-Serif" font-size="10.00">_list_pop_back&lt; type</text>
<text text-anchor="middle" x="354.75" y="-32.75" font-family="Helvetica,sans-Serif" font-size="10.00">_list&lt;&gt;, TypeList &gt;</text>
</a>
</g>
</g>
<!-- Node2&#45;&gt;Node1 -->
<g id="edge1_Node000001_Node000002" class="edge">
<title>Node2&#45;&gt;Node1</title>
<g id="a_edge1_Node000001_Node000002"><a xlink:title=" ">
<path fill="none" stroke="#63b8ff" d="M420.39,-47.88C428.59,-47.88 436.93,-47.88 445.01,-47.88"/>
<polygon fill="#63b8ff" stroke="#63b8ff" points="420.47,-44.38 410.47,-47.88 420.47,-51.38 420.47,-44.38"/>
</a>
</g>
</g>
<!-- Node3 -->
<g id="Node000003" class="node">
<title>Node3</title>
<g id="a_Node000003"><a xlink:title=" ">
<polygon fill="white" stroke="#666666" points="155.5,-68.75 0,-68.75 0,-27 155.5,-27 155.5,-68.75"/>
<text text-anchor="start" x="8" y="-55.25" font-family="Helvetica,sans-Serif" font-size="10.00">mimicpp::detail::type</text>
<text text-anchor="start" x="8" y="-44" font-family="Helvetica,sans-Serif" font-size="10.00">_list_pop_back&lt; ProcessedList,</text>
<text text-anchor="middle" x="77.75" y="-32.75" font-family="Helvetica,sans-Serif" font-size="10.00"> PendingList &gt;</text>
</a>
</g>
</g>
<!-- Node3&#45;&gt;Node2 -->
<g id="edge2_Node000002_Node000003" class="edge">
<title>Node3&#45;&gt;Node2</title>
<g id="a_edge2_Node000002_Node000003"><a xlink:title=" ">
<path fill="none" stroke="orange" stroke-dasharray="5,2" d="M167.03,-47.88C211.08,-47.88 262.9,-47.88 300.76,-47.88"/>
<polygon fill="orange" stroke="orange" points="167.23,-44.38 157.23,-47.88 167.23,-51.38 167.23,-44.38"/>
</a>
</g>
<text text-anchor="middle" x="228.25" y="-49.62" font-family="Helvetica,sans-Serif" font-size="10.00" fill="grey"> &lt; type_list&lt;&gt;, TypeList &gt;</text>
</g>
<!-- Node6 -->
<g id="Node000006" class="node">
<title>Node6</title>
<g id="a_Node000006"><a xlink:title=" ">
<polygon fill="white" stroke="#666666" points="895,-41.75 767.25,-41.75 767.25,0 895,0 895,-41.75"/>
<text text-anchor="start" x="775.25" y="-28.25" font-family="Helvetica,sans-Serif" font-size="10.00">mimicpp::printing::</text>
<text text-anchor="start" x="775.25" y="-17" font-family="Helvetica,sans-Serif" font-size="10.00">detail::type::type_list</text>
<text text-anchor="middle" x="831.12" y="-5.75" font-family="Helvetica,sans-Serif" font-size="10.00">_pop_back_if_can&lt; List &gt;</text>
</a>
</g>
</g>
<!-- Node5&#45;&gt;Node6 -->
<g id="edge5_Node000005_Node000006" class="edge">
<title>Node5&#45;&gt;Node6</title>
<g id="a_edge5_Node000005_Node000006"><a xlink:title=" ">
<path fill="none" stroke="#63b8ff" d="M741.84,-23.88C750.05,-23.6 758.52,-23.31 766.81,-23.03"/>
<polygon fill="#63b8ff" stroke="#63b8ff" points="741.83,-20.38 731.96,-24.21 742.07,-27.37 741.83,-20.38"/>
</a>
</g>
</g>
<!-- Node6&#45;&gt;Node4 -->
<g id="edge6_Node000006_Node000004" class="edge">
<title>Node6&#45;&gt;Node4</title>
<g id="a_edge6_Node000006_Node000004"><a xlink:title=" ">
<path fill="none" stroke="orange" stroke-dasharray="5,2" d="M906.54,-29.14C936.08,-32.42 969.6,-36.14 997.51,-39.24"/>
<polygon fill="orange" stroke="orange" points="907.26,-25.7 896.94,-28.07 906.49,-32.65 907.26,-25.7"/>
</a>
</g>
<text text-anchor="middle" x="946.38" y="-38.83" font-family="Helvetica,sans-Serif" font-size="10.00" fill="grey"> &lt; type_list&lt;&gt; &gt;</text>
</g>
</g>
</svg>
