<?xml version="1.0" encoding="UTF-8" standalone="no"?>
<!DOCTYPE svg PUBLIC "-//W3C//DTD SVG 1.1//EN"
 "http://www.w3.org/Graphics/SVG/1.1/DTD/svg11.dtd">
<!-- Generated by graphviz version 12.2.1 (20241206.2353)
 -->
<!-- Title: mimicpp::expectation::Collector::Collector Pages: 1 -->
<svg width="404pt" height="223pt"
 viewBox="0.00 0.00 404.00 222.50" xmlns="http://www.w3.org/2000/svg" xmlns:xlink="http://www.w3.org/1999/xlink">
<g id="graph0" class="graph" transform="scale(1 1) rotate(0) translate(4 218.5)">
<title>mimicpp::expectation::Collector::Collector</title>
<!-- Node1 -->
<g id="Node000001" class="node">
<title>Node1</title>
<g id="a_Node000001"><a xlink:title="Deleted copy&#45;constructor.">
<polygon fill="#999999" stroke="#666666" points="396,-122.5 289.25,-122.5 289.25,-92 396,-92 396,-122.5"/>
<text text-anchor="start" x="297.25" y="-109" font-family="Helvetica,sans-Serif" font-size="10.00">mimicpp::expectation</text>
<text text-anchor="middle" x="342.62" y="-97.75" font-family="Helvetica,sans-Serif" font-size="10.00">::Collector::Collector</text>
</a>
</g>
</g>
<!-- Node1&#45;&gt;Node1 -->
<g id="edge2_Node000001_Node000001" class="edge">
<title>Node1&#45;&gt;Node1</title>
<g id="a_edge2_Node000001_Node000001"><a xlink:title=" ">
<path fill="none" stroke="#63b8ff" d="M366.56,-134.2C362.65,-137.97 354.67,-140.5 342.62,-140.5 320.6,-140.5 312.17,-132.06 317.33,-122.99"/>
<polygon fill="#63b8ff" stroke="#63b8ff" points="370.01,-134.84 367.74,-124.49 363.06,-134 370.01,-134.84"/>
</a>
</g>
</g>
<!-- Node2 -->
<g id="Node000002" class="node">
<title>Node2</title>
<g id="a_Node000002"><a xlink:href="../../d7/dc7/classmimicpp_1_1expectation_1_1_collector.html#a8a479737013c60794d00486979624b7b" target="_top" xlink:title="Defaulted move&#45;constructor.">
<polygon fill="white" stroke="#666666" points="253.25,-214.5 146.5,-214.5 146.5,-184 253.25,-184 253.25,-214.5"/>
<text text-anchor="start" x="154.5" y="-201" font-family="Helvetica,sans-Serif" font-size="10.00">mimicpp::expectation</text>
<text text-anchor="middle" x="199.88" y="-189.75" font-family="Helvetica,sans-Serif" font-size="10.00">::Collector::Collector</text>
</a>
</g>
</g>
<!-- Node1&#45;&gt;Node2 -->
<g id="edge1_Node000001_Node000002" class="edge">
<title>Node1&#45;&gt;Node2</title>
<g id="a_edge1_Node000001_Node000002"><a xlink:title=" ">
<path fill="none" stroke="#63b8ff" d="M314.64,-129.99C297.64,-143.73 274.89,-161.07 253.25,-174.25 247.91,-177.5 242.09,-180.64 236.33,-183.54"/>
<polygon fill="#63b8ff" stroke="#63b8ff" points="316.76,-132.78 322.28,-123.74 312.32,-127.37 316.76,-132.78"/>
</a>
</g>
</g>
<!-- Node3 -->
<g id="Node000003" class="node">
<title>Node3</title>
<g id="a_Node000003"><a xlink:href="../../d7/dc7/classmimicpp_1_1expectation_1_1_collector.html#a2881c81e2aa756bd01c19fe8287f2775" target="_top" xlink:title="Attaches a newly constructed expectation.">
<polygon fill="white" stroke="#666666" points="253.25,-165.5 146.5,-165.5 146.5,-135 253.25,-135 253.25,-165.5"/>
<text text-anchor="start" x="154.5" y="-152" font-family="Helvetica,sans-Serif" font-size="10.00">mimicpp::expectation</text>
<text text-anchor="middle" x="199.88" y="-140.75" font-family="Helvetica,sans-Serif" font-size="10.00">::Collector::attach</text>
</a>
</g>
</g>
<!-- Node1&#45;&gt;Node3 -->
<g id="edge3_Node000001_Node000003" class="edge">
<title>Node1&#45;&gt;Node3</title>
<g id="a_edge3_Node000001_Node000003"><a xlink:title=" ">
<path fill="none" stroke="#63b8ff" d="M279.47,-126.24C270.39,-129.01 261.12,-131.84 252.28,-134.54"/>
<polygon fill="#63b8ff" stroke="#63b8ff" points="280.42,-129.61 288.97,-123.34 278.38,-122.91 280.42,-129.61"/>
</a>
</g>
</g>
<!-- Node4 -->
<g id="Node000004" class="node">
<title>Node4</title>
<g id="a_Node000004"><a xlink:href="../../d7/dc7/classmimicpp_1_1expectation_1_1_collector.html#a0650d35d81bad10f814df6fc3fd7809e" target="_top" xlink:title="Attaches a newly constructed expectation.">
<polygon fill="white" stroke="#666666" points="110.5,-143.5 0,-143.5 0,-113 110.5,-113 110.5,-143.5"/>
<text text-anchor="start" x="8" y="-130" font-family="Helvetica,sans-Serif" font-size="10.00">mimicpp::expectation</text>
<text text-anchor="middle" x="55.25" y="-118.75" font-family="Helvetica,sans-Serif" font-size="10.00">::Collector::operator+=</text>
</a>
</g>
</g>
<!-- Node1&#45;&gt;Node4 -->
<g id="edge5_Node000001_Node000004" class="edge">
<title>Node1&#45;&gt;Node4</title>
<g id="a_edge5_Node000001_Node000004"><a xlink:title=" ">
<path fill="none" stroke="#63b8ff" d="M277.57,-111.96C227.31,-115.66 158.13,-120.75 110.56,-124.25"/>
<polygon fill="#63b8ff" stroke="#63b8ff" points="277.72,-115.46 287.44,-111.24 277.21,-108.48 277.72,-115.46"/>
</a>
</g>
</g>
<!-- Node5 -->
<g id="Node000005" class="node">
<title>Node5</title>
<g id="a_Node000005"><a xlink:href="../../d7/dc7/classmimicpp_1_1expectation_1_1_collector.html#a8269690584960ede72d8a759c5761672" target="_top" xlink:title="Defaulted move&#45;assignment operator.">
<polygon fill="white" stroke="#666666" points="253.25,-79.5 146.5,-79.5 146.5,-49 253.25,-49 253.25,-79.5"/>
<text text-anchor="start" x="154.5" y="-66" font-family="Helvetica,sans-Serif" font-size="10.00">mimicpp::expectation</text>
<text text-anchor="middle" x="199.88" y="-54.75" font-family="Helvetica,sans-Serif" font-size="10.00">::Collector::operator=</text>
</a>
</g>
</g>
<!-- Node1&#45;&gt;Node5 -->
<g id="edge6_Node000001_Node000005" class="edge">
<title>Node1&#45;&gt;Node5</title>
<g id="a_edge6_Node000001_Node000005"><a xlink:title=" ">
<path fill="none" stroke="#63b8ff" d="M279.47,-88.26C270.39,-85.49 261.12,-82.66 252.28,-79.96"/>
<polygon fill="#63b8ff" stroke="#63b8ff" points="278.38,-91.59 288.97,-91.16 280.42,-84.89 278.38,-91.59"/>
</a>
</g>
</g>
<!-- Node6 -->
<g id="Node000006" class="node">
<title>Node6</title>
<g id="a_Node000006"><a xlink:href="../../d7/dc7/classmimicpp_1_1expectation_1_1_collector.html#ab14fa43de6330b9824b76f22d6b1e2dd" target="_top" xlink:title="Deleted copy&#45;assignment operator.">
<polygon fill="white" stroke="#666666" points="253.25,-30.5 146.5,-30.5 146.5,0 253.25,0 253.25,-30.5"/>
<text text-anchor="start" x="154.5" y="-17" font-family="Helvetica,sans-Serif" font-size="10.00">mimicpp::expectation</text>
<text text-anchor="middle" x="199.88" y="-5.75" font-family="Helvetica,sans-Serif" font-size="10.00">::Collector::operator=</text>
</a>
</g>
</g>
<!-- Node1&#45;&gt;Node6 -->
<g id="edge7_Node000001_Node000006" class="edge">
<title>Node1&#45;&gt;Node6</title>
<g id="a_edge7_Node000001_Node000006"><a xlink:title=" ">
<path fill="none" stroke="#63b8ff" d="M314.64,-84.51C297.64,-70.77 274.89,-53.43 253.25,-40.25 247.91,-37 242.09,-33.86 236.33,-30.96"/>
<polygon fill="#63b8ff" stroke="#63b8ff" points="312.32,-87.13 322.28,-90.76 316.76,-81.72 312.32,-87.13"/>
</a>
</g>
</g>
<!-- Node3&#45;&gt;Node4 -->
<g id="edge4_Node000003_Node000004" class="edge">
<title>Node3&#45;&gt;Node4</title>
<g id="a_edge4_Node000003_Node000004"><a xlink:title=" ">
<path fill="none" stroke="#63b8ff" d="M134.87,-140.38C126.78,-139.13 118.56,-137.86 110.65,-136.64"/>
<polygon fill="#63b8ff" stroke="#63b8ff" points="134.26,-143.82 144.68,-141.89 135.33,-136.91 134.26,-143.82"/>
</a>
</g>
</g>
</g>
</svg>
