<?xml version="1.0" encoding="UTF-8" standalone="no"?>
<!DOCTYPE svg PUBLIC "-//W3C//DTD SVG 1.1//EN"
 "http://www.w3.org/Graphics/SVG/1.1/DTD/svg11.dtd">
<!-- Generated by graphviz version 12.2.1 (20241206.2353)
 -->
<!-- Title: mimicpp::util::SourceLocation::SourceLocation Pages: 1 -->
<svg width="330pt" height="137pt"
 viewBox="0.00 0.00 329.50 136.50" xmlns="http://www.w3.org/2000/svg" xmlns:xlink="http://www.w3.org/1999/xlink">
<g id="graph0" class="graph" transform="scale(1 1) rotate(0) translate(4 132.5)">
<title>mimicpp::util::SourceLocation::SourceLocation</title>
<!-- Node1 -->
<g id="Node000001" class="node">
<title>Node1</title>
<g id="a_Node000001"><a xlink:title=" ">
<polygon fill="#999999" stroke="#666666" points="321.5,-79.5 178.75,-79.5 178.75,-49 321.5,-49 321.5,-79.5"/>
<text text-anchor="start" x="186.75" y="-66" font-family="Helvetica,sans-Serif" font-size="10.00">mimicpp::util::SourceLocation</text>
<text text-anchor="middle" x="250.12" y="-54.75" font-family="Helvetica,sans-Serif" font-size="10.00">::SourceLocation</text>
</a>
</g>
</g>
<!-- Node1&#45;&gt;Node1 -->
<g id="edge1_Node000001_Node000001" class="edge">
<title>Node1&#45;&gt;Node1</title>
<g id="a_edge1_Node000001_Node000001"><a xlink:title=" ">
<path fill="none" stroke="#63b8ff" d="M280.1,-91.2C275.2,-94.97 265.21,-97.5 250.12,-97.5 222.54,-97.5 211.99,-89.06 218.45,-79.99"/>
<polygon fill="#63b8ff" stroke="#63b8ff" points="283.54,-91.89 281.57,-81.48 276.62,-90.85 283.54,-91.89"/>
</a>
</g>
</g>
<!-- Node2 -->
<g id="Node000002" class="node">
<title>Node2</title>
<g id="a_Node000002"><a xlink:href="../../db/df5/classmimicpp_1_1util_1_1_source_location.html#a752412b1901e309a3ff0cf1ed31d1d65" target="_top" xlink:title=" ">
<polygon fill="white" stroke="#666666" points="142.75,-128.5 0,-128.5 0,-98 142.75,-98 142.75,-128.5"/>
<text text-anchor="start" x="8" y="-115" font-family="Helvetica,sans-Serif" font-size="10.00">mimicpp::util::SourceLocation</text>
<text text-anchor="middle" x="71.38" y="-103.75" font-family="Helvetica,sans-Serif" font-size="10.00">::operator=</text>
</a>
</g>
</g>
<!-- Node1&#45;&gt;Node2 -->
<g id="edge2_Node000001_Node000002" class="edge">
<title>Node1&#45;&gt;Node2</title>
<g id="a_edge2_Node000001_Node000002"><a xlink:title=" ">
<path fill="none" stroke="#63b8ff" d="M182.04,-82.85C164.61,-87.68 146,-92.84 129.16,-97.51"/>
<polygon fill="#63b8ff" stroke="#63b8ff" points="182.55,-86.34 191.26,-80.29 180.68,-79.59 182.55,-86.34"/>
</a>
</g>
</g>
<!-- Node3 -->
<g id="Node000003" class="node">
<title>Node3</title>
<g id="a_Node000003"><a xlink:href="../../db/df5/classmimicpp_1_1util_1_1_source_location.html#a9cac61b376f0491759210eb3a467cce3" target="_top" xlink:title=" ">
<polygon fill="white" stroke="#666666" points="142.75,-79.5 0,-79.5 0,-49 142.75,-49 142.75,-79.5"/>
<text text-anchor="start" x="8" y="-66" font-family="Helvetica,sans-Serif" font-size="10.00">mimicpp::util::SourceLocation</text>
<text text-anchor="middle" x="71.38" y="-54.75" font-family="Helvetica,sans-Serif" font-size="10.00">::operator=</text>
</a>
</g>
</g>
<!-- Node1&#45;&gt;Node3 -->
<g id="edge3_Node000001_Node000003" class="edge">
<title>Node1&#45;&gt;Node3</title>
<g id="a_edge3_Node000001_Node000003"><a xlink:title=" ">
<path fill="none" stroke="#63b8ff" d="M166.98,-64.25C158.96,-64.25 150.87,-64.25 142.98,-64.25"/>
<polygon fill="#63b8ff" stroke="#63b8ff" points="166.74,-67.75 176.74,-64.25 166.74,-60.75 166.74,-67.75"/>
</a>
</g>
</g>
<!-- Node4 -->
<g id="Node000004" class="node">
<title>Node4</title>
<g id="a_Node000004"><a xlink:href="../../db/df5/classmimicpp_1_1util_1_1_source_location.html#aca199207b74aeeb4fbee5791ad387aa0" target="_top" xlink:title=" ">
<polygon fill="white" stroke="#666666" points="142.75,-30.5 0,-30.5 0,0 142.75,0 142.75,-30.5"/>
<text text-anchor="start" x="8" y="-17" font-family="Helvetica,sans-Serif" font-size="10.00">mimicpp::util::SourceLocation</text>
<text text-anchor="middle" x="71.38" y="-5.75" font-family="Helvetica,sans-Serif" font-size="10.00">::operator==</text>
</a>
</g>
</g>
<!-- Node1&#45;&gt;Node4 -->
<g id="edge4_Node000001_Node000004" class="edge">
<title>Node1&#45;&gt;Node4</title>
<g id="a_edge4_Node000001_Node000004"><a xlink:title=" ">
<path fill="none" stroke="#63b8ff" d="M182.04,-45.65C164.61,-40.82 146,-35.66 129.16,-30.99"/>
<polygon fill="#63b8ff" stroke="#63b8ff" points="180.68,-48.91 191.26,-48.21 182.55,-42.16 180.68,-48.91"/>
</a>
</g>
</g>
</g>
</svg>
