<?xml version="1.0" encoding="UTF-8" standalone="no"?>
<!DOCTYPE svg PUBLIC "-//W3C//DTD SVG 1.1//EN"
 "http://www.w3.org/Graphics/SVG/1.1/DTD/svg11.dtd">
<!-- Generated by graphviz version 12.2.1 (20241206.2353)
 -->
<!-- Title: mimic++/printing/type/PrintType.hpp Pages: 1 -->
<svg width="1414pt" height="260pt"
 viewBox="0.00 0.00 1413.88 259.50" xmlns="http://www.w3.org/2000/svg" xmlns:xlink="http://www.w3.org/1999/xlink">
<g id="graph0" class="graph" transform="scale(1 1) rotate(0) translate(4 255.5)">
<title>mimic++/printing/type/PrintType.hpp</title>
<!-- Node1 -->
<g id="Node000001" class="node">
<title>Node1</title>
<g id="a_Node000001"><a xlink:title=" ">
<polygon fill="#999999" stroke="#666666" points="1003.88,-251.5 894.12,-251.5 894.12,-221 1003.88,-221 1003.88,-251.5"/>
<text text-anchor="start" x="902.12" y="-238" font-family="Helvetica,sans-Serif" font-size="10.00">mimic++/printing/type</text>
<text text-anchor="middle" x="949" y="-226.75" font-family="Helvetica,sans-Serif" font-size="10.00">/PrintType.hpp</text>
</a>
</g>
</g>
<!-- Node2 -->
<g id="Node000002" class="node">
<title>Node2</title>
<g id="a_Node000002"><a xlink:href="../../df/dde/_fwd_8hpp.html" target="_top" xlink:title=" ">
<polygon fill="white" stroke="#666666" points="697,-129.75 603,-129.75 603,-110.5 697,-110.5 697,-129.75"/>
<text text-anchor="middle" x="650" y="-116.25" font-family="Helvetica,sans-Serif" font-size="10.00">mimic++/Fwd.hpp</text>
</a>
</g>
</g>
<!-- Node1&#45;&gt;Node2 -->
<g id="edge1_Node000001_Node000002" class="edge">
<title>Node1&#45;&gt;Node2</title>
<g id="a_edge1_Node000001_Node000002"><a xlink:title=" ">
<path fill="none" stroke="#63b8ff" d="M893.88,-228.37C849.88,-221.44 787.47,-208.33 737,-185 710.74,-172.86 684.51,-152.13 667.82,-137.58"/>
<polygon fill="#63b8ff" stroke="#63b8ff" points="670.51,-135.3 660.72,-131.24 665.85,-140.52 670.51,-135.3"/>
</a>
</g>
</g>
<!-- Node8 -->
<g id="Node000008" class="node">
<title>Node8</title>
<g id="a_Node000008"><a xlink:href="../../d4/d2c/_utility_8hpp.html" target="_top" xlink:title=" ">
<polygon fill="white" stroke="#666666" points="514,-185 414,-185 414,-165.75 514,-165.75 514,-185"/>
<text text-anchor="middle" x="464" y="-171.5" font-family="Helvetica,sans-Serif" font-size="10.00">mimic++/Utility.hpp</text>
</a>
</g>
</g>
<!-- Node1&#45;&gt;Node8 -->
<g id="edge7_Node000001_Node000008" class="edge">
<title>Node1&#45;&gt;Node8</title>
<g id="a_edge7_Node000001_Node000008"><a xlink:title=" ">
<path fill="none" stroke="#63b8ff" d="M893.84,-228.55C802.58,-217.48 620.83,-195.41 525.54,-183.85"/>
<polygon fill="#63b8ff" stroke="#63b8ff" points="526.21,-180.4 515.86,-182.67 525.37,-187.35 526.21,-180.4"/>
</a>
</g>
</g>
<!-- Node15 -->
<g id="Node000015" class="node">
<title>Node15</title>
<g id="a_Node000015"><a xlink:title=" ">
<polygon fill="#e0e0e0" stroke="#999999" points="753.25,-129.75 714.75,-129.75 714.75,-110.5 753.25,-110.5 753.25,-129.75"/>
<text text-anchor="middle" x="734" y="-116.25" font-family="Helvetica,sans-Serif" font-size="10.00">utility</text>
</a>
</g>
</g>
<!-- Node1&#45;&gt;Node15 -->
<g id="edge32_Node000001_Node000015" class="edge">
<title>Node1&#45;&gt;Node15</title>
<g id="a_edge32_Node000001_Node000015"><a xlink:title=" ">
<path fill="none" stroke="#63b8ff" d="M893.78,-235.22C850.11,-232.22 790.46,-221.05 753,-185 741.26,-173.7 736.68,-155.49 734.95,-141.4"/>
<polygon fill="#63b8ff" stroke="#63b8ff" points="738.44,-141.13 734.15,-131.45 731.46,-141.69 738.44,-141.13"/>
</a>
</g>
</g>
<!-- Node16 -->
<g id="Node000016" class="node">
<title>Node16</title>
<g id="a_Node000016"><a xlink:href="../../d5/dec/_format_8hpp.html" target="_top" xlink:title=" ">
<polygon fill="white" stroke="#666666" points="902.25,-185 761.75,-185 761.75,-165.75 902.25,-165.75 902.25,-185"/>
<text text-anchor="middle" x="832" y="-171.5" font-family="Helvetica,sans-Serif" font-size="10.00">mimic++/printing/Format.hpp</text>
</a>
</g>
</g>
<!-- Node1&#45;&gt;Node16 -->
<g id="edge17_Node000001_Node000016" class="edge">
<title>Node1&#45;&gt;Node16</title>
<g id="a_edge17_Node000001_Node000016"><a xlink:title=" ">
<path fill="none" stroke="#63b8ff" d="M919.78,-220.55C901.53,-211.36 878.17,-199.61 860.13,-190.53"/>
<polygon fill="#63b8ff" stroke="#63b8ff" points="861.8,-187.45 851.3,-186.08 858.65,-193.71 861.8,-187.45"/>
</a>
</g>
</g>
<!-- Node17 -->
<g id="Node000017" class="node">
<title>Node17</title>
<g id="a_Node000017"><a xlink:title=" ">
<polygon fill="#e0e0e0" stroke="#999999" points="996.88,-129.75 941.12,-129.75 941.12,-110.5 996.88,-110.5 996.88,-129.75"/>
<text text-anchor="middle" x="969" y="-116.25" font-family="Helvetica,sans-Serif" font-size="10.00">concepts</text>
</a>
</g>
</g>
<!-- Node1&#45;&gt;Node17 -->
<g id="edge27_Node000001_Node000017" class="edge">
<title>Node1&#45;&gt;Node17</title>
<g id="a_edge27_Node000001_Node000017"><a xlink:title=" ">
<path fill="none" stroke="#63b8ff" d="M948.98,-220.73C949.22,-206.57 950.24,-184.49 954,-165.75 955.67,-157.44 958.44,-148.54 961.16,-140.89"/>
<polygon fill="#63b8ff" stroke="#63b8ff" points="964.42,-142.18 964.67,-131.59 957.87,-139.71 964.42,-142.18"/>
</a>
</g>
</g>
<!-- Node19 -->
<g id="Node000019" class="node">
<title>Node19</title>
<g id="a_Node000019"><a xlink:title=" ">
<polygon fill="#e0e0e0" stroke="#999999" points="1075.5,-129.75 1014.5,-129.75 1014.5,-110.5 1075.5,-110.5 1075.5,-129.75"/>
<text text-anchor="middle" x="1045" y="-116.25" font-family="Helvetica,sans-Serif" font-size="10.00">type_traits</text>
</a>
</g>
</g>
<!-- Node1&#45;&gt;Node19 -->
<g id="edge30_Node000001_Node000019" class="edge">
<title>Node1&#45;&gt;Node19</title>
<g id="a_edge30_Node000001_Node000019"><a xlink:title=" ">
<path fill="none" stroke="#63b8ff" d="M954.87,-220.59C961.29,-205.73 972.61,-182.57 987,-165.75 996.65,-154.47 1009.56,-144.2 1020.76,-136.36"/>
<polygon fill="#63b8ff" stroke="#63b8ff" points="1022.42,-139.46 1028.77,-130.98 1018.52,-133.65 1022.42,-139.46"/>
</a>
</g>
</g>
<!-- Node21 -->
<g id="Node000021" class="node">
<title>Node21</title>
<g id="a_Node000021"><a xlink:href="../../de/d52/printing_2_fwd_8hpp.html" target="_top" xlink:title=" ">
<polygon fill="white" stroke="#666666" points="1124.25,-185 995.75,-185 995.75,-165.75 1124.25,-165.75 1124.25,-185"/>
<text text-anchor="middle" x="1060" y="-171.5" font-family="Helvetica,sans-Serif" font-size="10.00">mimic++/printing/Fwd.hpp</text>
</a>
</g>
</g>
<!-- Node1&#45;&gt;Node21 -->
<g id="edge25_Node000001_Node000021" class="edge">
<title>Node1&#45;&gt;Node21</title>
<g id="a_edge25_Node000001_Node000021"><a xlink:title=" ">
<path fill="none" stroke="#63b8ff" d="M976.72,-220.55C993.95,-211.41 1015.99,-199.72 1033.07,-190.66"/>
<polygon fill="#63b8ff" stroke="#63b8ff" points="1034.45,-193.89 1041.64,-186.11 1031.17,-187.71 1034.45,-193.89"/>
</a>
</g>
</g>
<!-- Node22 -->
<g id="Node000022" class="node">
<title>Node22</title>
<g id="a_Node000022"><a xlink:title=" ">
<polygon fill="#e0e0e0" stroke="#999999" points="1197.88,-185 1142.12,-185 1142.12,-165.75 1197.88,-165.75 1197.88,-185"/>
<text text-anchor="middle" x="1170" y="-171.5" font-family="Helvetica,sans-Serif" font-size="10.00">algorithm</text>
</a>
</g>
</g>
<!-- Node1&#45;&gt;Node22 -->
<g id="edge26_Node000001_Node000022" class="edge">
<title>Node1&#45;&gt;Node22</title>
<g id="a_edge26_Node000001_Node000022"><a xlink:title=" ">
<path fill="none" stroke="#63b8ff" d="M1004.2,-220.55C1043.65,-210.03 1095.78,-196.15 1130.97,-186.77"/>
<polygon fill="#63b8ff" stroke="#63b8ff" points="1131.54,-190.24 1140.3,-184.29 1129.74,-183.48 1131.54,-190.24"/>
</a>
</g>
</g>
<!-- Node23 -->
<g id="Node000023" class="node">
<title>Node23</title>
<g id="a_Node000023"><a xlink:title=" ">
<polygon fill="#e0e0e0" stroke="#999999" points="1274,-185 1216,-185 1216,-165.75 1274,-165.75 1274,-185"/>
<text text-anchor="middle" x="1245" y="-171.5" font-family="Helvetica,sans-Serif" font-size="10.00">functional</text>
</a>
</g>
</g>
<!-- Node1&#45;&gt;Node23 -->
<g id="edge28_Node000001_Node000023" class="edge">
<title>Node1&#45;&gt;Node23</title>
<g id="a_edge28_Node000001_Node000023"><a xlink:title=" ">
<path fill="none" stroke="#63b8ff" d="M1004.21,-225.01C1054.07,-215.64 1129.73,-201.15 1204.53,-185.47"/>
<polygon fill="#63b8ff" stroke="#63b8ff" points="1205.02,-188.95 1214.08,-183.46 1203.57,-182.1 1205.02,-188.95"/>
</a>
</g>
</g>
<!-- Node24 -->
<g id="Node000024" class="node">
<title>Node24</title>
<g id="a_Node000024"><a xlink:title=" ">
<polygon fill="#e0e0e0" stroke="#999999" points="1338,-185 1292,-185 1292,-165.75 1338,-165.75 1338,-185"/>
<text text-anchor="middle" x="1315" y="-171.5" font-family="Helvetica,sans-Serif" font-size="10.00">iterator</text>
</a>
</g>
</g>
<!-- Node1&#45;&gt;Node24 -->
<g id="edge29_Node000001_Node000024" class="edge">
<title>Node1&#45;&gt;Node24</title>
<g id="a_edge29_Node000001_Node000024"><a xlink:title=" ">
<path fill="none" stroke="#63b8ff" d="M1004.31,-228.89C1068.5,-221.07 1177.7,-206.44 1280.45,-185.33"/>
<polygon fill="#63b8ff" stroke="#63b8ff" points="1281.1,-188.77 1290.17,-183.31 1279.67,-181.92 1281.1,-188.77"/>
</a>
</g>
</g>
<!-- Node25 -->
<g id="Node000025" class="node">
<title>Node25</title>
<g id="a_Node000025"><a xlink:title=" ">
<polygon fill="#e0e0e0" stroke="#999999" points="1405.88,-185 1356.12,-185 1356.12,-165.75 1405.88,-165.75 1405.88,-185"/>
<text text-anchor="middle" x="1381" y="-171.5" font-family="Helvetica,sans-Serif" font-size="10.00">typeinfo</text>
</a>
</g>
</g>
<!-- Node1&#45;&gt;Node25 -->
<g id="edge31_Node000001_Node000025" class="edge">
<title>Node1&#45;&gt;Node25</title>
<g id="a_edge31_Node000001_Node000025"><a xlink:title=" ">
<path fill="none" stroke="#63b8ff" d="M1004.06,-230.46C1078.99,-223.46 1217.41,-208.84 1344.72,-185.22"/>
<polygon fill="#63b8ff" stroke="#63b8ff" points="1345.16,-188.7 1354.34,-183.41 1343.86,-181.82 1345.16,-188.7"/>
</a>
</g>
</g>
<!-- Node26 -->
<g id="Node000026" class="node">
<title>Node26</title>
<g id="a_Node000026"><a xlink:href="../../d6/dac/_regex_8hpp.html" target="_top" xlink:title=" ">
<polygon fill="white" stroke="#666666" points="136,-129.75 0,-129.75 0,-110.5 136,-110.5 136,-129.75"/>
<text text-anchor="middle" x="68" y="-116.25" font-family="Helvetica,sans-Serif" font-size="10.00">mimic++/utilities/Regex.hpp</text>
</a>
</g>
</g>
<!-- Node1&#45;&gt;Node26 -->
<g id="edge33_Node000001_Node000026" class="edge">
<title>Node1&#45;&gt;Node26</title>
<g id="a_edge33_Node000001_Node000026"><a xlink:title=" ">
<path fill="none" stroke="#63b8ff" d="M893.98,-231.91C795.55,-225.54 582.98,-210.03 405,-185 303.41,-170.71 185.93,-146.73 119.95,-132.57"/>
<polygon fill="#63b8ff" stroke="#63b8ff" points="121.03,-129.22 110.51,-130.53 119.55,-136.06 121.03,-129.22"/>
</a>
</g>
</g>
<!-- Node3 -->
<g id="Node000003" class="node">
<title>Node3</title>
<g id="a_Node000003"><a xlink:href="../../d8/dd2/_config_8hpp.html" target="_top" xlink:title=" ">
<polygon fill="white" stroke="#666666" points="780.12,-74.5 677.88,-74.5 677.88,-55.25 780.12,-55.25 780.12,-74.5"/>
<text text-anchor="middle" x="729" y="-61" font-family="Helvetica,sans-Serif" font-size="10.00">mimic++/Config.hpp</text>
</a>
</g>
</g>
<!-- Node2&#45;&gt;Node3 -->
<g id="edge2_Node000002_Node000003" class="edge">
<title>Node2&#45;&gt;Node3</title>
<g id="a_edge2_Node000002_Node000003"><a xlink:title=" ">
<path fill="none" stroke="#63b8ff" d="M663.4,-110.09C675.09,-102.21 692.3,-90.61 706.16,-81.27"/>
<polygon fill="#63b8ff" stroke="#63b8ff" points="707.94,-84.29 714.28,-75.8 704.03,-78.49 707.94,-84.29"/>
</a>
</g>
</g>
<!-- Node6 -->
<g id="Node000006" class="node">
<title>Node6</title>
<g id="a_Node000006"><a xlink:title=" ">
<polygon fill="#e0e0e0" stroke="#999999" points="335,-74.5 295,-74.5 295,-55.25 335,-55.25 335,-74.5"/>
<text text-anchor="middle" x="315" y="-61" font-family="Helvetica,sans-Serif" font-size="10.00">string</text>
</a>
</g>
</g>
<!-- Node2&#45;&gt;Node6 -->
<g id="edge5_Node000002_Node000006" class="edge">
<title>Node2&#45;&gt;Node6</title>
<g id="a_edge5_Node000002_Node000006"><a xlink:title=" ">
<path fill="none" stroke="#63b8ff" d="M602.71,-111.61C533.2,-100.56 405.29,-80.23 346.3,-70.85"/>
<polygon fill="#63b8ff" stroke="#63b8ff" points="347.06,-67.43 336.63,-69.31 345.96,-74.34 347.06,-67.43"/>
</a>
</g>
</g>
<!-- Node7 -->
<g id="Node000007" class="node">
<title>Node7</title>
<g id="a_Node000007"><a xlink:title=" ">
<polygon fill="#e0e0e0" stroke="#999999" points="607.75,-74.5 542.25,-74.5 542.25,-55.25 607.75,-55.25 607.75,-74.5"/>
<text text-anchor="middle" x="575" y="-61" font-family="Helvetica,sans-Serif" font-size="10.00">string_view</text>
</a>
</g>
</g>
<!-- Node2&#45;&gt;Node7 -->
<g id="edge6_Node000002_Node000007" class="edge">
<title>Node2&#45;&gt;Node7</title>
<g id="a_edge6_Node000002_Node000007"><a xlink:title=" ">
<path fill="none" stroke="#63b8ff" d="M637.28,-110.09C626.29,-102.29 610.16,-90.84 597.07,-81.54"/>
<polygon fill="#63b8ff" stroke="#63b8ff" points="599.2,-78.76 589.02,-75.83 595.15,-84.47 599.2,-78.76"/>
</a>
</g>
</g>
<!-- Node4 -->
<g id="Node000004" class="node">
<title>Node4</title>
<g id="a_Node000004"><a xlink:title=" ">
<polygon fill="#e0e0e0" stroke="#999999" points="719.62,-19.25 674.38,-19.25 674.38,0 719.62,0 719.62,-19.25"/>
<text text-anchor="middle" x="697" y="-5.75" font-family="Helvetica,sans-Serif" font-size="10.00">cstdint</text>
</a>
</g>
</g>
<!-- Node3&#45;&gt;Node4 -->
<g id="edge3_Node000003_Node000004" class="edge">
<title>Node3&#45;&gt;Node4</title>
<g id="a_edge3_Node000003_Node000004"><a xlink:title=" ">
<path fill="none" stroke="#63b8ff" d="M723.72,-55.08C719.53,-48.11 713.52,-38.12 708.27,-29.37"/>
<polygon fill="#63b8ff" stroke="#63b8ff" points="711.33,-27.68 703.18,-20.91 705.33,-31.28 711.33,-27.68"/>
</a>
</g>
</g>
<!-- Node5 -->
<g id="Node000005" class="node">
<title>Node5</title>
<g id="a_Node000005"><a xlink:title=" ">
<polygon fill="#e0e0e0" stroke="#999999" points="784.75,-19.25 737.25,-19.25 737.25,0 784.75,0 784.75,-19.25"/>
<text text-anchor="middle" x="761" y="-5.75" font-family="Helvetica,sans-Serif" font-size="10.00">version</text>
</a>
</g>
</g>
<!-- Node3&#45;&gt;Node5 -->
<g id="edge4_Node000003_Node000005" class="edge">
<title>Node3&#45;&gt;Node5</title>
<g id="a_edge4_Node000003_Node000005"><a xlink:title=" ">
<path fill="none" stroke="#63b8ff" d="M734.28,-55.08C738.47,-48.11 744.48,-38.12 749.73,-29.37"/>
<polygon fill="#63b8ff" stroke="#63b8ff" points="752.67,-31.28 754.82,-20.91 746.67,-27.68 752.67,-31.28"/>
</a>
</g>
</g>
<!-- Node8&#45;&gt;Node2 -->
<g id="edge8_Node000008_Node000002" class="edge">
<title>Node8&#45;&gt;Node2</title>
<g id="a_edge8_Node000008_Node000002"><a xlink:title=" ">
<path fill="none" stroke="#63b8ff" d="M495.55,-165.34C526.28,-156.54 573.21,-143.11 607.28,-133.36"/>
<polygon fill="#63b8ff" stroke="#63b8ff" points="608.19,-136.74 616.84,-130.62 606.26,-130.01 608.19,-136.74"/>
</a>
</g>
</g>
<!-- Node8&#45;&gt;Node7 -->
<g id="edge14_Node000008_Node000007" class="edge">
<title>Node8&#45;&gt;Node7</title>
<g id="a_edge14_Node000008_Node000007"><a xlink:title=" ">
<path fill="none" stroke="#63b8ff" d="M498.06,-165.37C517.57,-158.57 541.06,-147.34 556,-129.75 566.44,-117.46 571.14,-99.63 573.26,-85.92"/>
<polygon fill="#63b8ff" stroke="#63b8ff" points="576.7,-86.62 574.4,-76.28 569.75,-85.8 576.7,-86.62"/>
</a>
</g>
</g>
<!-- Node9 -->
<g id="Node000009" class="node">
<title>Node9</title>
<g id="a_Node000009"><a xlink:title=" ">
<polygon fill="#e0e0e0" stroke="#999999" points="246.5,-129.75 209.5,-129.75 209.5,-110.5 246.5,-110.5 246.5,-129.75"/>
<text text-anchor="middle" x="228" y="-116.25" font-family="Helvetica,sans-Serif" font-size="10.00">array</text>
</a>
</g>
</g>
<!-- Node8&#45;&gt;Node9 -->
<g id="edge9_Node000008_Node000009" class="edge">
<title>Node8&#45;&gt;Node9</title>
<g id="a_edge9_Node000008_Node000009"><a xlink:title=" ">
<path fill="none" stroke="#63b8ff" d="M415.8,-165.28C375.95,-157.48 317.65,-145.43 258.05,-130.1"/>
<polygon fill="#63b8ff" stroke="#63b8ff" points="258.94,-126.71 248.38,-127.58 257.17,-133.49 258.94,-126.71"/>
</a>
</g>
</g>
<!-- Node10 -->
<g id="Node000010" class="node">
<title>Node10</title>
<g id="a_Node000010"><a xlink:title=" ">
<polygon fill="#e0e0e0" stroke="#999999" points="313.12,-129.75 264.88,-129.75 264.88,-110.5 313.12,-110.5 313.12,-129.75"/>
<text text-anchor="middle" x="289" y="-116.25" font-family="Helvetica,sans-Serif" font-size="10.00">cassert</text>
</a>
</g>
</g>
<!-- Node8&#45;&gt;Node10 -->
<g id="edge10_Node000008_Node000010" class="edge">
<title>Node8&#45;&gt;Node10</title>
<g id="a_edge10_Node000008_Node000010"><a xlink:title=" ">
<path fill="none" stroke="#63b8ff" d="M434.31,-165.34C403.87,-156.08 356.53,-141.67 324.21,-131.84"/>
<polygon fill="#63b8ff" stroke="#63b8ff" points="325.49,-128.57 314.91,-129.01 323.45,-135.27 325.49,-128.57"/>
</a>
</g>
</g>
<!-- Node11 -->
<g id="Node000011" class="node">
<title>Node11</title>
<g id="a_Node000011"><a xlink:title=" ">
<polygon fill="#e0e0e0" stroke="#999999" points="380.88,-129.75 331.12,-129.75 331.12,-110.5 380.88,-110.5 380.88,-129.75"/>
<text text-anchor="middle" x="356" y="-116.25" font-family="Helvetica,sans-Serif" font-size="10.00">optional</text>
</a>
</g>
</g>
<!-- Node8&#45;&gt;Node11 -->
<g id="edge11_Node000008_Node000011" class="edge">
<title>Node8&#45;&gt;Node11</title>
<g id="a_edge11_Node000008_Node000011"><a xlink:title=" ">
<path fill="none" stroke="#63b8ff" d="M445.68,-165.34C428.92,-157.08 403.87,-144.73 384.5,-135.18"/>
<polygon fill="#63b8ff" stroke="#63b8ff" points="386.28,-132.15 375.77,-130.87 383.19,-138.43 386.28,-132.15"/>
</a>
</g>
</g>
<!-- Node12 -->
<g id="Node000012" class="node">
<title>Node12</title>
<g id="a_Node000012"><a xlink:title=" ">
<polygon fill="#e0e0e0" stroke="#999999" points="444.62,-129.75 399.38,-129.75 399.38,-110.5 444.62,-110.5 444.62,-129.75"/>
<text text-anchor="middle" x="422" y="-116.25" font-family="Helvetica,sans-Serif" font-size="10.00">ranges</text>
</a>
</g>
</g>
<!-- Node8&#45;&gt;Node12 -->
<g id="edge12_Node000008_Node000012" class="edge">
<title>Node8&#45;&gt;Node12</title>
<g id="a_edge12_Node000008_Node000012"><a xlink:title=" ">
<path fill="none" stroke="#63b8ff" d="M457.06,-165.58C451.38,-158.38 443.16,-147.96 436.11,-139.01"/>
<polygon fill="#63b8ff" stroke="#63b8ff" points="438.96,-136.98 430.02,-131.3 433.47,-141.32 438.96,-136.98"/>
</a>
</g>
</g>
<!-- Node13 -->
<g id="Node000013" class="node">
<title>Node13</title>
<g id="a_Node000013"><a xlink:title=" ">
<polygon fill="#e0e0e0" stroke="#999999" points="547.12,-129.75 462.88,-129.75 462.88,-110.5 547.12,-110.5 547.12,-129.75"/>
<text text-anchor="middle" x="505" y="-116.25" font-family="Helvetica,sans-Serif" font-size="10.00">source_location</text>
</a>
</g>
</g>
<!-- Node8&#45;&gt;Node13 -->
<g id="edge13_Node000008_Node000013" class="edge">
<title>Node8&#45;&gt;Node13</title>
<g id="a_edge13_Node000008_Node000013"><a xlink:title=" ">
<path fill="none" stroke="#63b8ff" d="M470.77,-165.58C476.32,-158.38 484.34,-147.96 491.23,-139.01"/>
<polygon fill="#63b8ff" stroke="#63b8ff" points="493.83,-141.37 497.16,-131.31 488.29,-137.1 493.83,-141.37"/>
</a>
</g>
</g>
<!-- Node14 -->
<g id="Node000014" class="node">
<title>Node14</title>
<g id="a_Node000014"><a xlink:title=" ">
<polygon fill="#e0e0e0" stroke="#999999" points="191.5,-129.75 154.5,-129.75 154.5,-110.5 191.5,-110.5 191.5,-129.75"/>
<text text-anchor="middle" x="173" y="-116.25" font-family="Helvetica,sans-Serif" font-size="10.00">tuple</text>
</a>
</g>
</g>
<!-- Node8&#45;&gt;Node14 -->
<g id="edge15_Node000008_Node000014" class="edge">
<title>Node8&#45;&gt;Node14</title>
<g id="a_edge15_Node000008_Node000014"><a xlink:title=" ">
<path fill="none" stroke="#63b8ff" d="M413.94,-168.07C362.92,-161.16 281.37,-148.81 202.84,-130.17"/>
<polygon fill="#63b8ff" stroke="#63b8ff" points="203.8,-126.8 193.26,-127.86 202.16,-133.61 203.8,-126.8"/>
</a>
</g>
</g>
<!-- Node8&#45;&gt;Node15 -->
<g id="edge16_Node000008_Node000015" class="edge">
<title>Node8&#45;&gt;Node15</title>
<g id="a_edge16_Node000008_Node000015"><a xlink:title=" ">
<path fill="none" stroke="#63b8ff" d="M514.42,-166.83C561.22,-159.44 633.01,-147.11 703.63,-130.11"/>
<polygon fill="#63b8ff" stroke="#63b8ff" points="704.15,-133.58 713.03,-127.81 702.48,-126.78 704.15,-133.58"/>
</a>
</g>
</g>
<!-- Node16&#45;&gt;Node2 -->
<g id="edge19_Node000016_Node000002" class="edge">
<title>Node16&#45;&gt;Node2</title>
<g id="a_edge19_Node000016_Node000002"><a xlink:title=" ">
<path fill="none" stroke="#63b8ff" d="M801.13,-165.34C771.06,-156.54 725.14,-143.11 691.81,-133.36"/>
<polygon fill="#63b8ff" stroke="#63b8ff" points="693.06,-130.08 682.48,-130.63 691.09,-136.79 693.06,-130.08"/>
</a>
</g>
</g>
<!-- Node16&#45;&gt;Node3 -->
<g id="edge18_Node000016_Node000003" class="edge">
<title>Node16&#45;&gt;Node3</title>
<g id="a_edge18_Node000016_Node000003"><a xlink:title=" ">
<path fill="none" stroke="#63b8ff" d="M823.57,-165.5C806.52,-147.53 767.67,-106.61 745.43,-83.19"/>
<polygon fill="#63b8ff" stroke="#63b8ff" points="748.01,-80.82 738.59,-75.97 742.93,-85.64 748.01,-80.82"/>
</a>
</g>
</g>
<!-- Node16&#45;&gt;Node15 -->
<g id="edge23_Node000016_Node000015" class="edge">
<title>Node16&#45;&gt;Node15</title>
<g id="a_edge23_Node000016_Node000015"><a xlink:title=" ">
<path fill="none" stroke="#63b8ff" d="M815.38,-165.34C800.31,-157.16 777.86,-144.96 760.35,-135.44"/>
<polygon fill="#63b8ff" stroke="#63b8ff" points="762.49,-132.62 752.04,-130.93 759.15,-138.77 762.49,-132.62"/>
</a>
</g>
</g>
<!-- Node16&#45;&gt;Node17 -->
<g id="edge20_Node000016_Node000017" class="edge">
<title>Node16&#45;&gt;Node17</title>
<g id="a_edge20_Node000016_Node000017"><a xlink:title=" ">
<path fill="none" stroke="#63b8ff" d="M855.24,-165.34C877.19,-156.81 910.35,-143.92 935.21,-134.26"/>
<polygon fill="#63b8ff" stroke="#63b8ff" points="936.18,-137.64 944.24,-130.75 933.65,-131.11 936.18,-137.64"/>
</a>
</g>
</g>
<!-- Node18 -->
<g id="Node000018" class="node">
<title>Node18</title>
<g id="a_Node000018"><a xlink:title=" ">
<polygon fill="#e0e0e0" stroke="#999999" points="860.62,-129.75 809.38,-129.75 809.38,-110.5 860.62,-110.5 860.62,-129.75"/>
<text text-anchor="middle" x="835" y="-116.25" font-family="Helvetica,sans-Serif" font-size="10.00">sstream</text>
</a>
</g>
</g>
<!-- Node16&#45;&gt;Node18 -->
<g id="edge21_Node000016_Node000018" class="edge">
<title>Node16&#45;&gt;Node18</title>
<g id="a_edge21_Node000016_Node000018"><a xlink:title=" ">
<path fill="none" stroke="#63b8ff" d="M832.5,-165.58C832.87,-158.99 833.39,-149.71 833.86,-141.32"/>
<polygon fill="#63b8ff" stroke="#63b8ff" points="837.34,-141.8 834.41,-131.62 830.35,-141.41 837.34,-141.8"/>
</a>
</g>
</g>
<!-- Node16&#45;&gt;Node19 -->
<g id="edge22_Node000016_Node000019" class="edge">
<title>Node16&#45;&gt;Node19</title>
<g id="a_edge22_Node000016_Node000019"><a xlink:title=" ">
<path fill="none" stroke="#63b8ff" d="M868.13,-165.34C905.51,-156 963.82,-141.42 1003.17,-131.58"/>
<polygon fill="#63b8ff" stroke="#63b8ff" points="1003.91,-135.01 1012.76,-129.18 1002.21,-128.21 1003.91,-135.01"/>
</a>
</g>
</g>
<!-- Node20 -->
<g id="Node000020" class="node">
<title>Node20</title>
<g id="a_Node000020"><a xlink:title=" ">
<polygon fill="#e0e0e0" stroke="#999999" points="922.88,-129.75 879.12,-129.75 879.12,-110.5 922.88,-110.5 922.88,-129.75"/>
<text text-anchor="middle" x="901" y="-116.25" font-family="Helvetica,sans-Serif" font-size="10.00">format</text>
</a>
</g>
</g>
<!-- Node16&#45;&gt;Node20 -->
<g id="edge24_Node000016_Node000020" class="edge">
<title>Node16&#45;&gt;Node20</title>
<g id="a_edge24_Node000016_Node000020"><a xlink:title=" ">
<path fill="none" stroke="#63b8ff" d="M843.7,-165.34C853.78,-157.57 868.54,-146.17 880.56,-136.9"/>
<polygon fill="#63b8ff" stroke="#63b8ff" points="882.49,-139.83 888.27,-130.95 878.21,-134.29 882.49,-139.83"/>
</a>
</g>
</g>
<!-- Node26&#45;&gt;Node6 -->
<g id="edge35_Node000026_Node000006" class="edge">
<title>Node26&#45;&gt;Node6</title>
<g id="a_edge35_Node000026_Node000006"><a xlink:title=" ">
<path fill="none" stroke="#63b8ff" d="M110.18,-110.03C159.4,-99.42 239.65,-82.12 283.67,-72.63"/>
<polygon fill="#63b8ff" stroke="#63b8ff" points="284.29,-76.08 293.33,-70.55 282.81,-69.23 284.29,-76.08"/>
</a>
</g>
</g>
<!-- Node26&#45;&gt;Node7 -->
<g id="edge36_Node000026_Node000007" class="edge">
<title>Node26&#45;&gt;Node7</title>
<g id="a_edge36_Node000026_Node000007"><a xlink:title=" ">
<path fill="none" stroke="#63b8ff" d="M136.43,-111.43C139.33,-111.11 142.19,-110.8 145,-110.5 285.71,-95.32 452.44,-78.29 530.5,-70.37"/>
<polygon fill="#63b8ff" stroke="#63b8ff" points="530.71,-73.87 540.3,-69.38 530,-66.91 530.71,-73.87"/>
</a>
</g>
</g>
<!-- Node27 -->
<g id="Node000027" class="node">
<title>Node27</title>
<g id="a_Node000027"><a xlink:title=" ">
<polygon fill="#e0e0e0" stroke="#999999" points="87.62,-74.5 48.38,-74.5 48.38,-55.25 87.62,-55.25 87.62,-74.5"/>
<text text-anchor="middle" x="68" y="-61" font-family="Helvetica,sans-Serif" font-size="10.00">regex</text>
</a>
</g>
</g>
<!-- Node26&#45;&gt;Node27 -->
<g id="edge34_Node000026_Node000027" class="edge">
<title>Node26&#45;&gt;Node27</title>
<g id="a_edge34_Node000026_Node000027"><a xlink:title=" ">
<path fill="none" stroke="#63b8ff" d="M68,-110.33C68,-103.82 68,-94.67 68,-86.37"/>
<polygon fill="#63b8ff" stroke="#63b8ff" points="71.5,-86.37 68,-76.37 64.5,-86.37 71.5,-86.37"/>
</a>
</g>
</g>
</g>
</svg>
