<?xml version="1.0" encoding="UTF-8" standalone="no"?>
<!DOCTYPE svg PUBLIC "-//W3C//DTD SVG 1.1//EN"
 "http://www.w3.org/Graphics/SVG/1.1/DTD/svg11.dtd">
<!-- Generated by graphviz version 12.2.1 (20241206.2353)
 -->
<!-- Title: mimic++/printing/type/PrintType.hpp Pages: 1 -->
<svg width="986pt" height="271pt"
 viewBox="0.00 0.00 986.20 270.75" xmlns="http://www.w3.org/2000/svg" xmlns:xlink="http://www.w3.org/1999/xlink">
<g id="graph0" class="graph" transform="scale(1 1) rotate(0) translate(4 266.75)">
<title>mimic++/printing/type/PrintType.hpp</title>
<!-- Node1 -->
<g id="Node000001" class="node">
<title>Node1</title>
<g id="a_Node000001"><a xlink:title=" ">
<polygon fill="#999999" stroke="#666666" points="502.2,-262.75 392.45,-262.75 392.45,-232.25 502.2,-232.25 502.2,-262.75"/>
<text text-anchor="start" x="400.45" y="-249.25" font-family="Helvetica,sans-Serif" font-size="10.00">mimic++/printing/type</text>
<text text-anchor="middle" x="447.33" y="-238" font-family="Helvetica,sans-Serif" font-size="10.00">/PrintType.hpp</text>
</a>
</g>
</g>
<!-- Node2 -->
<g id="Node000002" class="node">
<title>Node2</title>
<g id="a_Node000002"><a xlink:href="../../df/dde/_fwd_8hpp.html" target="_top" xlink:title=" ">
<polygon fill="white" stroke="#666666" points="218.33,-129.75 124.33,-129.75 124.33,-110.5 218.33,-110.5 218.33,-129.75"/>
<text text-anchor="middle" x="171.33" y="-116.25" font-family="Helvetica,sans-Serif" font-size="10.00">mimic++/Fwd.hpp</text>
</a>
</g>
</g>
<!-- Node1&#45;&gt;Node2 -->
<g id="edge1_Node000001_Node000002" class="edge">
<title>Node1&#45;&gt;Node2</title>
<g id="a_edge1_Node000001_Node000002"><a xlink:title=" ">
<path fill="none" stroke="#63b8ff" d="M392.04,-242.97C324.2,-237.47 214.69,-224.42 186.33,-196.25 172.12,-182.13 169.44,-158.63 169.64,-141.66"/>
<polygon fill="#63b8ff" stroke="#63b8ff" points="173.13,-141.9 170.13,-131.74 166.14,-141.55 173.13,-141.9"/>
</a>
</g>
</g>
<!-- Node3 -->
<g id="Node000003" class="node">
<title>Node3</title>
<g id="a_Node000003"><a xlink:href="../../d8/dd2/_config_8hpp.html" target="_top" xlink:title=" ">
<polygon fill="white" stroke="#666666" points="133.7,-74.5 2.95,-74.5 2.95,-55.25 133.7,-55.25 133.7,-74.5"/>
<text text-anchor="middle" x="68.33" y="-61" font-family="Helvetica,sans-Serif" font-size="10.00">mimic++/config/Config.hpp</text>
</a>
</g>
</g>
<!-- Node1&#45;&gt;Node3 -->
<g id="edge7_Node000001_Node000003" class="edge">
<title>Node1&#45;&gt;Node3</title>
<g id="a_edge7_Node000001_Node000003"><a xlink:title=" ">
<path fill="none" stroke="#63b8ff" d="M392.25,-245.94C322.52,-243.57 199.75,-233.82 102.33,-196.25 52.87,-177.18 28.26,-176.53 3.33,-129.75 -7.48,-109.47 14.9,-91.64 36.28,-80.01"/>
<polygon fill="#63b8ff" stroke="#63b8ff" points="37.86,-83.14 45.2,-75.5 34.7,-76.89 37.86,-83.14"/>
</a>
</g>
</g>
<!-- Node8 -->
<g id="Node000008" class="node">
<title>Node8</title>
<g id="a_Node000008"><a xlink:href="../../d5/dec/_format_8hpp.html" target="_top" xlink:title=" ">
<polygon fill="white" stroke="#666666" points="335.58,-190.62 195.08,-190.62 195.08,-171.38 335.58,-171.38 335.58,-190.62"/>
<text text-anchor="middle" x="265.33" y="-177.12" font-family="Helvetica,sans-Serif" font-size="10.00">mimic++/printing/Format.hpp</text>
</a>
</g>
</g>
<!-- Node1&#45;&gt;Node8 -->
<g id="edge8_Node000001_Node000008" class="edge">
<title>Node1&#45;&gt;Node8</title>
<g id="a_edge8_Node000001_Node000008"><a xlink:title=" ">
<path fill="none" stroke="#63b8ff" d="M406.03,-231.86C374.55,-220.71 331.63,-205.5 301.5,-194.82"/>
<polygon fill="#63b8ff" stroke="#63b8ff" points="303.04,-191.65 292.44,-191.61 300.7,-198.25 303.04,-191.65"/>
</a>
</g>
</g>
<!-- Node9 -->
<g id="Node000009" class="node">
<title>Node9</title>
<g id="a_Node000009"><a xlink:title=" ">
<polygon fill="#e0e0e0" stroke="#999999" points="68.2,-129.75 12.45,-129.75 12.45,-110.5 68.2,-110.5 68.2,-129.75"/>
<text text-anchor="middle" x="40.33" y="-116.25" font-family="Helvetica,sans-Serif" font-size="10.00">concepts</text>
</a>
</g>
</g>
<!-- Node1&#45;&gt;Node9 -->
<g id="edge20_Node000001_Node000009" class="edge">
<title>Node1&#45;&gt;Node9</title>
<g id="a_edge20_Node000001_Node000009"><a xlink:title=" ">
<path fill="none" stroke="#63b8ff" d="M392.08,-242.32C334.68,-236.66 242.99,-223.88 168.33,-196.25 127.98,-181.32 85.8,-153.9 61.36,-136.64"/>
<polygon fill="#63b8ff" stroke="#63b8ff" points="63.7,-134.02 53.54,-131.02 59.62,-139.7 63.7,-134.02"/>
</a>
</g>
</g>
<!-- Node11 -->
<g id="Node000011" class="node">
<title>Node11</title>
<g id="a_Node000011"><a xlink:title=" ">
<polygon fill="#e0e0e0" stroke="#999999" points="428.83,-129.75 367.83,-129.75 367.83,-110.5 428.83,-110.5 428.83,-129.75"/>
<text text-anchor="middle" x="398.33" y="-116.25" font-family="Helvetica,sans-Serif" font-size="10.00">type_traits</text>
</a>
</g>
</g>
<!-- Node1&#45;&gt;Node11 -->
<g id="edge23_Node000001_Node000011" class="edge">
<title>Node1&#45;&gt;Node11</title>
<g id="a_edge23_Node000001_Node000011"><a xlink:title=" ">
<path fill="none" stroke="#63b8ff" d="M435.23,-232.01C427.83,-222.43 418.77,-209.27 413.33,-196.25 405.88,-178.42 402.05,-156.63 400.14,-141.11"/>
<polygon fill="#63b8ff" stroke="#63b8ff" points="403.63,-140.87 399.1,-131.29 396.67,-141.6 403.63,-140.87"/>
</a>
</g>
</g>
<!-- Node12 -->
<g id="Node000012" class="node">
<title>Node12</title>
<g id="a_Node000012"><a xlink:title=" ">
<polygon fill="#e0e0e0" stroke="#999999" points="485.58,-129.75 447.08,-129.75 447.08,-110.5 485.58,-110.5 485.58,-129.75"/>
<text text-anchor="middle" x="466.33" y="-116.25" font-family="Helvetica,sans-Serif" font-size="10.00">utility</text>
</a>
</g>
</g>
<!-- Node1&#45;&gt;Node12 -->
<g id="edge25_Node000001_Node000012" class="edge">
<title>Node1&#45;&gt;Node12</title>
<g id="a_edge25_Node000001_Node000012"><a xlink:title=" ">
<path fill="none" stroke="#63b8ff" d="M436.12,-231.96C424.96,-215.59 410.77,-188.35 420.33,-165.75 425.09,-154.49 434.24,-144.68 443.13,-137.15"/>
<polygon fill="#63b8ff" stroke="#63b8ff" points="445.17,-139.99 450.91,-131.08 440.87,-134.47 445.17,-139.99"/>
</a>
</g>
</g>
<!-- Node14 -->
<g id="Node000014" class="node">
<title>Node14</title>
<g id="a_Node000014"><a xlink:href="../../de/d52/printing_2_fwd_8hpp.html" target="_top" xlink:title=" ">
<polygon fill="white" stroke="#666666" points="557.58,-190.62 429.08,-190.62 429.08,-171.38 557.58,-171.38 557.58,-190.62"/>
<text text-anchor="middle" x="493.33" y="-177.12" font-family="Helvetica,sans-Serif" font-size="10.00">mimic++/printing/Fwd.hpp</text>
</a>
</g>
</g>
<!-- Node1&#45;&gt;Node14 -->
<g id="edge16_Node000001_Node000014" class="edge">
<title>Node1&#45;&gt;Node14</title>
<g id="a_edge16_Node000001_Node000014"><a xlink:title=" ">
<path fill="none" stroke="#63b8ff" d="M457.77,-231.86C464.53,-222.39 473.37,-209.98 480.55,-199.91"/>
<polygon fill="#63b8ff" stroke="#63b8ff" points="483.2,-202.23 486.16,-192.05 477.5,-198.16 483.2,-202.23"/>
</a>
</g>
</g>
<!-- Node15 -->
<g id="Node000015" class="node">
<title>Node15</title>
<g id="a_Node000015"><a xlink:href="../../d8/d65/_priority_tag_8hpp.html" target="_top" xlink:title=" ">
<polygon fill="white" stroke="#666666" points="696.83,-196.25 575.83,-196.25 575.83,-165.75 696.83,-165.75 696.83,-196.25"/>
<text text-anchor="start" x="583.83" y="-182.75" font-family="Helvetica,sans-Serif" font-size="10.00">mimic++/utilities/Priority</text>
<text text-anchor="middle" x="636.33" y="-171.5" font-family="Helvetica,sans-Serif" font-size="10.00">Tag.hpp</text>
</a>
</g>
</g>
<!-- Node1&#45;&gt;Node15 -->
<g id="edge17_Node000001_Node000015" class="edge">
<title>Node1&#45;&gt;Node15</title>
<g id="a_edge17_Node000001_Node000015"><a xlink:title=" ">
<path fill="none" stroke="#63b8ff" d="M490.22,-231.86C517.55,-222.54 553.19,-210.37 582.42,-200.4"/>
<polygon fill="#63b8ff" stroke="#63b8ff" points="583.52,-203.72 591.85,-197.18 581.26,-197.1 583.52,-203.72"/>
</a>
</g>
</g>
<!-- Node17 -->
<g id="Node000017" class="node">
<title>Node17</title>
<g id="a_Node000017"><a xlink:title=" ">
<polygon fill="#e0e0e0" stroke="#999999" points="770.2,-190.62 714.45,-190.62 714.45,-171.38 770.2,-171.38 770.2,-190.62"/>
<text text-anchor="middle" x="742.33" y="-177.12" font-family="Helvetica,sans-Serif" font-size="10.00">algorithm</text>
</a>
</g>
</g>
<!-- Node1&#45;&gt;Node17 -->
<g id="edge19_Node000001_Node000017" class="edge">
<title>Node1&#45;&gt;Node17</title>
<g id="a_edge19_Node000001_Node000017"><a xlink:title=" ">
<path fill="none" stroke="#63b8ff" d="M502.6,-238.82C555.53,-230.75 637.3,-216.42 706.33,-196.25 707.71,-195.85 709.11,-195.41 710.52,-194.95"/>
<polygon fill="#63b8ff" stroke="#63b8ff" points="711.58,-198.29 719.81,-191.61 709.22,-191.7 711.58,-198.29"/>
</a>
</g>
</g>
<!-- Node18 -->
<g id="Node000018" class="node">
<title>Node18</title>
<g id="a_Node000018"><a xlink:title=" ">
<polygon fill="#e0e0e0" stroke="#999999" points="846.33,-190.62 788.33,-190.62 788.33,-171.38 846.33,-171.38 846.33,-190.62"/>
<text text-anchor="middle" x="817.33" y="-177.12" font-family="Helvetica,sans-Serif" font-size="10.00">functional</text>
</a>
</g>
</g>
<!-- Node1&#45;&gt;Node18 -->
<g id="edge21_Node000001_Node000018" class="edge">
<title>Node1&#45;&gt;Node18</title>
<g id="a_edge21_Node000001_Node000018"><a xlink:title=" ">
<path fill="none" stroke="#63b8ff" d="M502.67,-241.69C569.16,-235.09 683.7,-221.13 779.33,-196.25 781.07,-195.8 782.85,-195.29 784.63,-194.75"/>
<polygon fill="#63b8ff" stroke="#63b8ff" points="785.69,-198.09 794.04,-191.57 783.45,-191.45 785.69,-198.09"/>
</a>
</g>
</g>
<!-- Node19 -->
<g id="Node000019" class="node">
<title>Node19</title>
<g id="a_Node000019"><a xlink:title=" ">
<polygon fill="#e0e0e0" stroke="#999999" points="910.33,-190.62 864.33,-190.62 864.33,-171.38 910.33,-171.38 910.33,-190.62"/>
<text text-anchor="middle" x="887.33" y="-177.12" font-family="Helvetica,sans-Serif" font-size="10.00">iterator</text>
</a>
</g>
</g>
<!-- Node1&#45;&gt;Node19 -->
<g id="edge22_Node000001_Node000019" class="edge">
<title>Node1&#45;&gt;Node19</title>
<g id="a_edge22_Node000001_Node000019"><a xlink:title=" ">
<path fill="none" stroke="#63b8ff" d="M502.45,-244.87C581.81,-241.37 732.23,-230.42 855.33,-196.25 856.5,-195.92 857.69,-195.56 858.87,-195.17"/>
<polygon fill="#63b8ff" stroke="#63b8ff" points="859.92,-198.52 867.99,-191.65 857.4,-191.99 859.92,-198.52"/>
</a>
</g>
</g>
<!-- Node20 -->
<g id="Node000020" class="node">
<title>Node20</title>
<g id="a_Node000020"><a xlink:title=" ">
<polygon fill="#e0e0e0" stroke="#999999" points="978.2,-190.62 928.45,-190.62 928.45,-171.38 978.2,-171.38 978.2,-190.62"/>
<text text-anchor="middle" x="953.33" y="-177.12" font-family="Helvetica,sans-Serif" font-size="10.00">typeinfo</text>
</a>
</g>
</g>
<!-- Node1&#45;&gt;Node20 -->
<g id="edge24_Node000001_Node000020" class="edge">
<title>Node1&#45;&gt;Node20</title>
<g id="a_edge24_Node000001_Node000020"><a xlink:title=" ">
<path fill="none" stroke="#63b8ff" d="M502.4,-245.79C591.42,-243.51 771.87,-234.13 919.33,-196.25 920.92,-195.84 922.53,-195.37 924.14,-194.86"/>
<polygon fill="#63b8ff" stroke="#63b8ff" points="925.02,-198.27 933.19,-191.52 922.59,-191.7 925.02,-198.27"/>
</a>
</g>
</g>
<!-- Node2&#45;&gt;Node3 -->
<g id="edge2_Node000002_Node000003" class="edge">
<title>Node2&#45;&gt;Node3</title>
<g id="a_edge2_Node000002_Node000003"><a xlink:title=" ">
<path fill="none" stroke="#63b8ff" d="M153.86,-110.09C138.02,-101.91 114.42,-89.71 96.02,-80.19"/>
<polygon fill="#63b8ff" stroke="#63b8ff" points="97.72,-77.13 87.23,-75.65 94.51,-83.35 97.72,-77.13"/>
</a>
</g>
</g>
<!-- Node6 -->
<g id="Node000006" class="node">
<title>Node6</title>
<g id="a_Node000006"><a xlink:title=" ">
<polygon fill="#e0e0e0" stroke="#999999" points="191.33,-74.5 151.33,-74.5 151.33,-55.25 191.33,-55.25 191.33,-74.5"/>
<text text-anchor="middle" x="171.33" y="-61" font-family="Helvetica,sans-Serif" font-size="10.00">string</text>
</a>
</g>
</g>
<!-- Node2&#45;&gt;Node6 -->
<g id="edge5_Node000002_Node000006" class="edge">
<title>Node2&#45;&gt;Node6</title>
<g id="a_edge5_Node000002_Node000006"><a xlink:title=" ">
<path fill="none" stroke="#63b8ff" d="M171.33,-110.33C171.33,-103.82 171.33,-94.67 171.33,-86.37"/>
<polygon fill="#63b8ff" stroke="#63b8ff" points="174.83,-86.37 171.33,-76.37 167.83,-86.37 174.83,-86.37"/>
</a>
</g>
</g>
<!-- Node7 -->
<g id="Node000007" class="node">
<title>Node7</title>
<g id="a_Node000007"><a xlink:title=" ">
<polygon fill="#e0e0e0" stroke="#999999" points="275.08,-74.5 209.58,-74.5 209.58,-55.25 275.08,-55.25 275.08,-74.5"/>
<text text-anchor="middle" x="242.33" y="-61" font-family="Helvetica,sans-Serif" font-size="10.00">string_view</text>
</a>
</g>
</g>
<!-- Node2&#45;&gt;Node7 -->
<g id="edge6_Node000002_Node000007" class="edge">
<title>Node2&#45;&gt;Node7</title>
<g id="a_edge6_Node000002_Node000007"><a xlink:title=" ">
<path fill="none" stroke="#63b8ff" d="M183.37,-110.09C193.74,-102.32 208.93,-90.92 221.3,-81.65"/>
<polygon fill="#63b8ff" stroke="#63b8ff" points="223.35,-84.48 229.25,-75.68 219.15,-78.88 223.35,-84.48"/>
</a>
</g>
</g>
<!-- Node4 -->
<g id="Node000004" class="node">
<title>Node4</title>
<g id="a_Node000004"><a xlink:title=" ">
<polygon fill="#e0e0e0" stroke="#999999" points="58.95,-19.25 13.7,-19.25 13.7,0 58.95,0 58.95,-19.25"/>
<text text-anchor="middle" x="36.33" y="-5.75" font-family="Helvetica,sans-Serif" font-size="10.00">cstdint</text>
</a>
</g>
</g>
<!-- Node3&#45;&gt;Node4 -->
<g id="edge3_Node000003_Node000004" class="edge">
<title>Node3&#45;&gt;Node4</title>
<g id="a_edge3_Node000003_Node000004"><a xlink:title=" ">
<path fill="none" stroke="#63b8ff" d="M63.05,-55.08C58.86,-48.11 52.85,-38.12 47.6,-29.37"/>
<polygon fill="#63b8ff" stroke="#63b8ff" points="50.66,-27.68 42.51,-20.91 44.66,-31.28 50.66,-27.68"/>
</a>
</g>
</g>
<!-- Node5 -->
<g id="Node000005" class="node">
<title>Node5</title>
<g id="a_Node000005"><a xlink:title=" ">
<polygon fill="#e0e0e0" stroke="#999999" points="124.08,-19.25 76.58,-19.25 76.58,0 124.08,0 124.08,-19.25"/>
<text text-anchor="middle" x="100.33" y="-5.75" font-family="Helvetica,sans-Serif" font-size="10.00">version</text>
</a>
</g>
</g>
<!-- Node3&#45;&gt;Node5 -->
<g id="edge4_Node000003_Node000005" class="edge">
<title>Node3&#45;&gt;Node5</title>
<g id="a_edge4_Node000003_Node000005"><a xlink:title=" ">
<path fill="none" stroke="#63b8ff" d="M73.61,-55.08C77.8,-48.11 83.81,-38.12 89.06,-29.37"/>
<polygon fill="#63b8ff" stroke="#63b8ff" points="92,-31.28 94.15,-20.91 86,-27.68 92,-31.28"/>
</a>
</g>
</g>
<!-- Node8&#45;&gt;Node2 -->
<g id="edge9_Node000008_Node000002" class="edge">
<title>Node8&#45;&gt;Node2</title>
<g id="a_edge9_Node000008_Node000002"><a xlink:title=" ">
<path fill="none" stroke="#63b8ff" d="M251.05,-171.06C236.28,-161.81 212.96,-147.2 195.34,-136.17"/>
<polygon fill="#63b8ff" stroke="#63b8ff" points="197.36,-133.3 187.02,-130.95 193.64,-139.23 197.36,-133.3"/>
</a>
</g>
</g>
<!-- Node8&#45;&gt;Node3 -->
<g id="edge10_Node000008_Node000003" class="edge">
<title>Node8&#45;&gt;Node3</title>
<g id="a_edge10_Node000008_Node000003"><a xlink:title=" ">
<path fill="none" stroke="#63b8ff" d="M213.76,-170.92C183,-163.6 144.4,-150.94 115.33,-129.75 99.02,-117.86 85.97,-98.64 77.8,-84.38"/>
<polygon fill="#63b8ff" stroke="#63b8ff" points="81.09,-83.11 73.25,-75.98 74.94,-86.44 81.09,-83.11"/>
</a>
</g>
</g>
<!-- Node8&#45;&gt;Node9 -->
<g id="edge11_Node000008_Node000009" class="edge">
<title>Node8&#45;&gt;Node9</title>
<g id="a_edge11_Node000008_Node000009"><a xlink:title=" ">
<path fill="none" stroke="#63b8ff" d="M230.67,-170.93C189.9,-160.26 122.4,-142.6 79.7,-131.43"/>
<polygon fill="#63b8ff" stroke="#63b8ff" points="80.64,-128.06 70.08,-128.91 78.87,-134.83 80.64,-128.06"/>
</a>
</g>
</g>
<!-- Node10 -->
<g id="Node000010" class="node">
<title>Node10</title>
<g id="a_Node000010"><a xlink:title=" ">
<polygon fill="#e0e0e0" stroke="#999999" points="287.95,-129.75 236.7,-129.75 236.7,-110.5 287.95,-110.5 287.95,-129.75"/>
<text text-anchor="middle" x="262.33" y="-116.25" font-family="Helvetica,sans-Serif" font-size="10.00">sstream</text>
</a>
</g>
</g>
<!-- Node8&#45;&gt;Node10 -->
<g id="edge12_Node000008_Node000010" class="edge">
<title>Node8&#45;&gt;Node10</title>
<g id="a_edge12_Node000008_Node000010"><a xlink:title=" ">
<path fill="none" stroke="#63b8ff" d="M264.87,-171.06C264.47,-163.19 263.87,-151.45 263.36,-141.32"/>
<polygon fill="#63b8ff" stroke="#63b8ff" points="266.87,-141.47 262.87,-131.66 259.88,-141.83 266.87,-141.47"/>
</a>
</g>
</g>
<!-- Node8&#45;&gt;Node11 -->
<g id="edge13_Node000008_Node000011" class="edge">
<title>Node8&#45;&gt;Node11</title>
<g id="a_edge13_Node000008_Node000011"><a xlink:title=" ">
<path fill="none" stroke="#63b8ff" d="M285.82,-170.93C307.65,-161.26 342.47,-145.85 367.59,-134.73"/>
<polygon fill="#63b8ff" stroke="#63b8ff" points="368.92,-137.97 376.65,-130.72 366.09,-131.57 368.92,-137.97"/>
</a>
</g>
</g>
<!-- Node8&#45;&gt;Node12 -->
<g id="edge14_Node000008_Node000012" class="edge">
<title>Node8&#45;&gt;Node12</title>
<g id="a_edge14_Node000008_Node000012"><a xlink:title=" ">
<path fill="none" stroke="#63b8ff" d="M297.26,-170.89C329.84,-161.56 382.13,-146.49 435.98,-130.42"/>
<polygon fill="#63b8ff" stroke="#63b8ff" points="436.73,-133.85 445.31,-127.63 434.73,-127.14 436.73,-133.85"/>
</a>
</g>
</g>
<!-- Node13 -->
<g id="Node000013" class="node">
<title>Node13</title>
<g id="a_Node000013"><a xlink:title=" ">
<polygon fill="#e0e0e0" stroke="#999999" points="350.2,-129.75 306.45,-129.75 306.45,-110.5 350.2,-110.5 350.2,-129.75"/>
<text text-anchor="middle" x="328.33" y="-116.25" font-family="Helvetica,sans-Serif" font-size="10.00">format</text>
</a>
</g>
</g>
<!-- Node8&#45;&gt;Node13 -->
<g id="edge15_Node000008_Node000013" class="edge">
<title>Node8&#45;&gt;Node13</title>
<g id="a_edge15_Node000008_Node000013"><a xlink:title=" ">
<path fill="none" stroke="#63b8ff" d="M274.9,-171.06C284.33,-162.24 298.98,-148.55 310.56,-137.73"/>
<polygon fill="#63b8ff" stroke="#63b8ff" points="312.65,-140.57 317.57,-131.18 307.87,-135.46 312.65,-140.57"/>
</a>
</g>
</g>
<!-- Node16 -->
<g id="Node000016" class="node">
<title>Node16</title>
<g id="a_Node000016"><a xlink:title=" ">
<polygon fill="#e0e0e0" stroke="#999999" points="660.45,-129.75 612.2,-129.75 612.2,-110.5 660.45,-110.5 660.45,-129.75"/>
<text text-anchor="middle" x="636.33" y="-116.25" font-family="Helvetica,sans-Serif" font-size="10.00">cstddef</text>
</a>
</g>
</g>
<!-- Node15&#45;&gt;Node16 -->
<g id="edge18_Node000015_Node000016" class="edge">
<title>Node15&#45;&gt;Node16</title>
<g id="a_edge18_Node000015_Node000016"><a xlink:title=" ">
<path fill="none" stroke="#63b8ff" d="M636.33,-165.45C636.33,-158.21 636.33,-149.34 636.33,-141.44"/>
<polygon fill="#63b8ff" stroke="#63b8ff" points="639.83,-141.71 636.33,-131.71 632.83,-141.71 639.83,-141.71"/>
</a>
</g>
</g>
</g>
</svg>
