<?xml version="1.0" encoding="UTF-8" standalone="no"?>
<!DOCTYPE svg PUBLIC "-//W3C//DTD SVG 1.1//EN"
 "http://www.w3.org/Graphics/SVG/1.1/DTD/svg11.dtd">
<!-- Generated by graphviz version 12.2.1 (20241206.2353)
 -->
<!-- Title: mimic++/printing/type/PrintType.hpp Pages: 1 -->
<svg width="1033pt" height="271pt"
 viewBox="0.00 0.00 1032.75 270.75" xmlns="http://www.w3.org/2000/svg" xmlns:xlink="http://www.w3.org/1999/xlink">
<g id="graph0" class="graph" transform="scale(1 1) rotate(0) translate(4 266.75)">
<title>mimic++/printing/type/PrintType.hpp</title>
<!-- Node1 -->
<g id="Node000001" class="node">
<title>Node1</title>
<g id="a_Node000001"><a xlink:title=" ">
<polygon fill="#999999" stroke="#666666" points="548.75,-262.75 439,-262.75 439,-232.25 548.75,-232.25 548.75,-262.75"/>
<text text-anchor="start" x="447" y="-249.25" font-family="Helvetica,sans-Serif" font-size="10.00">mimic++/printing/type</text>
<text text-anchor="middle" x="493.88" y="-238" font-family="Helvetica,sans-Serif" font-size="10.00">/PrintType.hpp</text>
</a>
</g>
</g>
<!-- Node2 -->
<g id="Node000002" class="node">
<title>Node2</title>
<g id="a_Node000002"><a xlink:href="../../df/dde/_fwd_8hpp.html" target="_top" xlink:title=" ">
<polygon fill="white" stroke="#666666" points="205.88,-129.75 111.88,-129.75 111.88,-110.5 205.88,-110.5 205.88,-129.75"/>
<text text-anchor="middle" x="158.88" y="-116.25" font-family="Helvetica,sans-Serif" font-size="10.00">mimic++/Fwd.hpp</text>
</a>
</g>
</g>
<!-- Node1&#45;&gt;Node2 -->
<g id="edge1_Node000001_Node000002" class="edge">
<title>Node1&#45;&gt;Node2</title>
<g id="a_edge1_Node000001_Node000002"><a xlink:title=" ">
<path fill="none" stroke="#63b8ff" d="M438.67,-243.34C362.81,-238 231.44,-224.83 193.88,-196.25 176.37,-182.93 167.29,-158.72 162.81,-141.39"/>
<polygon fill="#63b8ff" stroke="#63b8ff" points="166.25,-140.7 160.65,-131.71 159.42,-142.23 166.25,-140.7"/>
</a>
</g>
</g>
<!-- Node8 -->
<g id="Node000008" class="node">
<title>Node8</title>
<g id="a_Node000008"><a xlink:href="../../d5/dec/_format_8hpp.html" target="_top" xlink:title=" ">
<polygon fill="white" stroke="#666666" points="343.12,-190.62 202.62,-190.62 202.62,-171.38 343.12,-171.38 343.12,-190.62"/>
<text text-anchor="middle" x="272.88" y="-177.12" font-family="Helvetica,sans-Serif" font-size="10.00">mimic++/printing/Format.hpp</text>
</a>
</g>
</g>
<!-- Node1&#45;&gt;Node8 -->
<g id="edge7_Node000001_Node000008" class="edge">
<title>Node1&#45;&gt;Node8</title>
<g id="a_edge7_Node000001_Node000008"><a xlink:title=" ">
<path fill="none" stroke="#63b8ff" d="M443.45,-231.78C404.54,-220.43 351.36,-204.91 314.78,-194.23"/>
<polygon fill="#63b8ff" stroke="#63b8ff" points="316.02,-190.95 305.44,-191.5 314.06,-197.67 316.02,-190.95"/>
</a>
</g>
</g>
<!-- Node9 -->
<g id="Node000009" class="node">
<title>Node9</title>
<g id="a_Node000009"><a xlink:title=" ">
<polygon fill="#e0e0e0" stroke="#999999" points="55.75,-129.75 0,-129.75 0,-110.5 55.75,-110.5 55.75,-129.75"/>
<text text-anchor="middle" x="27.88" y="-116.25" font-family="Helvetica,sans-Serif" font-size="10.00">concepts</text>
</a>
</g>
</g>
<!-- Node1&#45;&gt;Node9 -->
<g id="edge19_Node000001_Node000009" class="edge">
<title>Node1&#45;&gt;Node9</title>
<g id="a_edge19_Node000001_Node000009"><a xlink:title=" ">
<path fill="none" stroke="#63b8ff" d="M438.61,-243.69C372.66,-239.05 259.79,-226.99 167.88,-196.25 124,-181.58 77.51,-153.88 50.68,-136.53"/>
<polygon fill="#63b8ff" stroke="#63b8ff" points="52.63,-133.62 42.35,-131.05 48.78,-139.47 52.63,-133.62"/>
</a>
</g>
</g>
<!-- Node11 -->
<g id="Node000011" class="node">
<title>Node11</title>
<g id="a_Node000011"><a xlink:title=" ">
<polygon fill="#e0e0e0" stroke="#999999" points="416.38,-129.75 355.38,-129.75 355.38,-110.5 416.38,-110.5 416.38,-129.75"/>
<text text-anchor="middle" x="385.88" y="-116.25" font-family="Helvetica,sans-Serif" font-size="10.00">type_traits</text>
</a>
</g>
</g>
<!-- Node1&#45;&gt;Node11 -->
<g id="edge22_Node000001_Node000011" class="edge">
<title>Node1&#45;&gt;Node11</title>
<g id="a_edge22_Node000001_Node000011"><a xlink:title=" ">
<path fill="none" stroke="#63b8ff" d="M468.75,-231.83C454.88,-222.84 438.05,-210.37 425.88,-196.25 411.43,-179.5 400.2,-156.66 393.37,-140.57"/>
<polygon fill="#63b8ff" stroke="#63b8ff" points="396.75,-139.6 389.75,-131.64 390.26,-142.22 396.75,-139.6"/>
</a>
</g>
</g>
<!-- Node12 -->
<g id="Node000012" class="node">
<title>Node12</title>
<g id="a_Node000012"><a xlink:title=" ">
<polygon fill="#e0e0e0" stroke="#999999" points="473.12,-129.75 434.62,-129.75 434.62,-110.5 473.12,-110.5 473.12,-129.75"/>
<text text-anchor="middle" x="453.88" y="-116.25" font-family="Helvetica,sans-Serif" font-size="10.00">utility</text>
</a>
</g>
</g>
<!-- Node1&#45;&gt;Node12 -->
<g id="edge24_Node000001_Node000012" class="edge">
<title>Node1&#45;&gt;Node12</title>
<g id="a_edge24_Node000001_Node000012"><a xlink:title=" ">
<path fill="none" stroke="#63b8ff" d="M467.53,-231.96C454.84,-223.39 440.89,-211.27 433.88,-196.25 425.25,-177.77 433.77,-154.93 442.21,-139.31"/>
<polygon fill="#63b8ff" stroke="#63b8ff" points="444.99,-141.5 447.06,-131.11 438.96,-137.94 444.99,-141.5"/>
</a>
</g>
</g>
<!-- Node14 -->
<g id="Node000014" class="node">
<title>Node14</title>
<g id="a_Node000014"><a xlink:href="../../de/d52/printing_2_fwd_8hpp.html" target="_top" xlink:title=" ">
<polygon fill="white" stroke="#666666" points="604.12,-190.62 475.62,-190.62 475.62,-171.38 604.12,-171.38 604.12,-190.62"/>
<text text-anchor="middle" x="539.88" y="-177.12" font-family="Helvetica,sans-Serif" font-size="10.00">mimic++/printing/Fwd.hpp</text>
</a>
</g>
</g>
<!-- Node1&#45;&gt;Node14 -->
<g id="edge15_Node000001_Node000014" class="edge">
<title>Node1&#45;&gt;Node14</title>
<g id="a_edge15_Node000001_Node000014"><a xlink:title=" ">
<path fill="none" stroke="#63b8ff" d="M504.31,-231.86C511.07,-222.39 519.92,-209.98 527.1,-199.91"/>
<polygon fill="#63b8ff" stroke="#63b8ff" points="529.75,-202.23 532.7,-192.05 524.05,-198.16 529.75,-202.23"/>
</a>
</g>
</g>
<!-- Node15 -->
<g id="Node000015" class="node">
<title>Node15</title>
<g id="a_Node000015"><a xlink:href="../../d8/d65/_priority_tag_8hpp.html" target="_top" xlink:title=" ">
<polygon fill="white" stroke="#666666" points="743.38,-196.25 622.38,-196.25 622.38,-165.75 743.38,-165.75 743.38,-196.25"/>
<text text-anchor="start" x="630.38" y="-182.75" font-family="Helvetica,sans-Serif" font-size="10.00">mimic++/utilities/Priority</text>
<text text-anchor="middle" x="682.88" y="-171.5" font-family="Helvetica,sans-Serif" font-size="10.00">Tag.hpp</text>
</a>
</g>
</g>
<!-- Node1&#45;&gt;Node15 -->
<g id="edge16_Node000001_Node000015" class="edge">
<title>Node1&#45;&gt;Node15</title>
<g id="a_edge16_Node000001_Node000015"><a xlink:title=" ">
<path fill="none" stroke="#63b8ff" d="M536.76,-231.86C564.09,-222.54 599.73,-210.37 628.97,-200.4"/>
<polygon fill="#63b8ff" stroke="#63b8ff" points="630.06,-203.72 638.4,-197.18 627.8,-197.1 630.06,-203.72"/>
</a>
</g>
</g>
<!-- Node17 -->
<g id="Node000017" class="node">
<title>Node17</title>
<g id="a_Node000017"><a xlink:title=" ">
<polygon fill="#e0e0e0" stroke="#999999" points="816.75,-190.62 761,-190.62 761,-171.38 816.75,-171.38 816.75,-190.62"/>
<text text-anchor="middle" x="788.88" y="-177.12" font-family="Helvetica,sans-Serif" font-size="10.00">algorithm</text>
</a>
</g>
</g>
<!-- Node1&#45;&gt;Node17 -->
<g id="edge18_Node000001_Node000017" class="edge">
<title>Node1&#45;&gt;Node17</title>
<g id="a_edge18_Node000001_Node000017"><a xlink:title=" ">
<path fill="none" stroke="#63b8ff" d="M549.15,-238.82C602.07,-230.75 683.85,-216.42 752.88,-196.25 754.25,-195.85 755.65,-195.41 757.06,-194.95"/>
<polygon fill="#63b8ff" stroke="#63b8ff" points="758.13,-198.29 766.36,-191.61 755.76,-191.7 758.13,-198.29"/>
</a>
</g>
</g>
<!-- Node18 -->
<g id="Node000018" class="node">
<title>Node18</title>
<g id="a_Node000018"><a xlink:title=" ">
<polygon fill="#e0e0e0" stroke="#999999" points="892.88,-190.62 834.88,-190.62 834.88,-171.38 892.88,-171.38 892.88,-190.62"/>
<text text-anchor="middle" x="863.88" y="-177.12" font-family="Helvetica,sans-Serif" font-size="10.00">functional</text>
</a>
</g>
</g>
<!-- Node1&#45;&gt;Node18 -->
<g id="edge20_Node000001_Node000018" class="edge">
<title>Node1&#45;&gt;Node18</title>
<g id="a_edge20_Node000001_Node000018"><a xlink:title=" ">
<path fill="none" stroke="#63b8ff" d="M549.22,-241.69C615.71,-235.09 730.25,-221.13 825.88,-196.25 827.62,-195.8 829.4,-195.29 831.18,-194.75"/>
<polygon fill="#63b8ff" stroke="#63b8ff" points="832.24,-198.09 840.59,-191.57 829.99,-191.45 832.24,-198.09"/>
</a>
</g>
</g>
<!-- Node19 -->
<g id="Node000019" class="node">
<title>Node19</title>
<g id="a_Node000019"><a xlink:title=" ">
<polygon fill="#e0e0e0" stroke="#999999" points="956.88,-190.62 910.88,-190.62 910.88,-171.38 956.88,-171.38 956.88,-190.62"/>
<text text-anchor="middle" x="933.88" y="-177.12" font-family="Helvetica,sans-Serif" font-size="10.00">iterator</text>
</a>
</g>
</g>
<!-- Node1&#45;&gt;Node19 -->
<g id="edge21_Node000001_Node000019" class="edge">
<title>Node1&#45;&gt;Node19</title>
<g id="a_edge21_Node000001_Node000019"><a xlink:title=" ">
<path fill="none" stroke="#63b8ff" d="M549,-244.87C628.35,-241.37 778.78,-230.42 901.88,-196.25 903.05,-195.92 904.23,-195.56 905.42,-195.17"/>
<polygon fill="#63b8ff" stroke="#63b8ff" points="906.47,-198.52 914.53,-191.65 903.94,-191.99 906.47,-198.52"/>
</a>
</g>
</g>
<!-- Node20 -->
<g id="Node000020" class="node">
<title>Node20</title>
<g id="a_Node000020"><a xlink:title=" ">
<polygon fill="#e0e0e0" stroke="#999999" points="1024.75,-190.62 975,-190.62 975,-171.38 1024.75,-171.38 1024.75,-190.62"/>
<text text-anchor="middle" x="999.88" y="-177.12" font-family="Helvetica,sans-Serif" font-size="10.00">typeinfo</text>
</a>
</g>
</g>
<!-- Node1&#45;&gt;Node20 -->
<g id="edge23_Node000001_Node000020" class="edge">
<title>Node1&#45;&gt;Node20</title>
<g id="a_edge23_Node000001_Node000020"><a xlink:title=" ">
<path fill="none" stroke="#63b8ff" d="M548.94,-245.79C637.97,-243.51 818.42,-234.13 965.88,-196.25 967.46,-195.84 969.07,-195.37 970.69,-194.86"/>
<polygon fill="#63b8ff" stroke="#63b8ff" points="971.56,-198.27 979.73,-191.52 969.14,-191.7 971.56,-198.27"/>
</a>
</g>
</g>
<!-- Node21 -->
<g id="Node000021" class="node">
<title>Node21</title>
<g id="a_Node000021"><a xlink:href="../../d6/dac/_regex_8hpp.html" target="_top" xlink:title=" ">
<polygon fill="white" stroke="#666666" points="626.88,-129.75 490.88,-129.75 490.88,-110.5 626.88,-110.5 626.88,-129.75"/>
<text text-anchor="middle" x="558.88" y="-116.25" font-family="Helvetica,sans-Serif" font-size="10.00">mimic++/utilities/Regex.hpp</text>
</a>
</g>
</g>
<!-- Node1&#45;&gt;Node21 -->
<g id="edge25_Node000001_Node000021" class="edge">
<title>Node1&#45;&gt;Node21</title>
<g id="a_edge25_Node000001_Node000021"><a xlink:title=" ">
<path fill="none" stroke="#63b8ff" d="M481.82,-231.9C469.44,-215 453.69,-186.8 466.88,-165.75 476.15,-150.94 491.9,-140.92 507.76,-134.2"/>
<polygon fill="#63b8ff" stroke="#63b8ff" points="508.63,-137.61 516.73,-130.78 506.14,-131.07 508.63,-137.61"/>
</a>
</g>
</g>
<!-- Node3 -->
<g id="Node000003" class="node">
<title>Node3</title>
<g id="a_Node000003"><a xlink:href="../../d8/dd2/_config_8hpp.html" target="_top" xlink:title=" ">
<polygon fill="white" stroke="#666666" points="173,-74.5 70.75,-74.5 70.75,-55.25 173,-55.25 173,-74.5"/>
<text text-anchor="middle" x="121.88" y="-61" font-family="Helvetica,sans-Serif" font-size="10.00">mimic++/Config.hpp</text>
</a>
</g>
</g>
<!-- Node2&#45;&gt;Node3 -->
<g id="edge2_Node000002_Node000003" class="edge">
<title>Node2&#45;&gt;Node3</title>
<g id="a_edge2_Node000002_Node000003"><a xlink:title=" ">
<path fill="none" stroke="#63b8ff" d="M152.77,-110.33C147.81,-103.21 140.67,-92.93 134.5,-84.05"/>
<polygon fill="#63b8ff" stroke="#63b8ff" points="137.56,-82.32 128.98,-76.1 131.81,-86.31 137.56,-82.32"/>
</a>
</g>
</g>
<!-- Node6 -->
<g id="Node000006" class="node">
<title>Node6</title>
<g id="a_Node000006"><a xlink:title=" ">
<polygon fill="#e0e0e0" stroke="#999999" points="469.88,-74.5 429.88,-74.5 429.88,-55.25 469.88,-55.25 469.88,-74.5"/>
<text text-anchor="middle" x="449.88" y="-61" font-family="Helvetica,sans-Serif" font-size="10.00">string</text>
</a>
</g>
</g>
<!-- Node2&#45;&gt;Node6 -->
<g id="edge5_Node000002_Node000006" class="edge">
<title>Node2&#45;&gt;Node6</title>
<g id="a_edge5_Node000002_Node000006"><a xlink:title=" ">
<path fill="none" stroke="#63b8ff" d="M206.28,-110.45C266.07,-99.51 367.22,-81 418.32,-71.65"/>
<polygon fill="#63b8ff" stroke="#63b8ff" points="418.9,-75.1 428.11,-69.86 417.64,-68.22 418.9,-75.1"/>
</a>
</g>
</g>
<!-- Node7 -->
<g id="Node000007" class="node">
<title>Node7</title>
<g id="a_Node000007"><a xlink:title=" ">
<polygon fill="#e0e0e0" stroke="#999999" points="308.62,-74.5 243.12,-74.5 243.12,-55.25 308.62,-55.25 308.62,-74.5"/>
<text text-anchor="middle" x="275.88" y="-61" font-family="Helvetica,sans-Serif" font-size="10.00">string_view</text>
</a>
</g>
</g>
<!-- Node2&#45;&gt;Node7 -->
<g id="edge6_Node000002_Node000007" class="edge">
<title>Node2&#45;&gt;Node7</title>
<g id="a_edge6_Node000002_Node000007"><a xlink:title=" ">
<path fill="none" stroke="#63b8ff" d="M178.72,-110.09C197.04,-101.75 224.52,-89.25 245.58,-79.66"/>
<polygon fill="#63b8ff" stroke="#63b8ff" points="246.9,-82.91 254.55,-75.58 244,-76.54 246.9,-82.91"/>
</a>
</g>
</g>
<!-- Node4 -->
<g id="Node000004" class="node">
<title>Node4</title>
<g id="a_Node000004"><a xlink:title=" ">
<polygon fill="#e0e0e0" stroke="#999999" points="112.5,-19.25 67.25,-19.25 67.25,0 112.5,0 112.5,-19.25"/>
<text text-anchor="middle" x="89.88" y="-5.75" font-family="Helvetica,sans-Serif" font-size="10.00">cstdint</text>
</a>
</g>
</g>
<!-- Node3&#45;&gt;Node4 -->
<g id="edge3_Node000003_Node000004" class="edge">
<title>Node3&#45;&gt;Node4</title>
<g id="a_edge3_Node000003_Node000004"><a xlink:title=" ">
<path fill="none" stroke="#63b8ff" d="M116.59,-55.08C112.4,-48.11 106.4,-38.12 101.14,-29.37"/>
<polygon fill="#63b8ff" stroke="#63b8ff" points="104.2,-27.68 96.05,-20.91 98.2,-31.28 104.2,-27.68"/>
</a>
</g>
</g>
<!-- Node5 -->
<g id="Node000005" class="node">
<title>Node5</title>
<g id="a_Node000005"><a xlink:title=" ">
<polygon fill="#e0e0e0" stroke="#999999" points="177.62,-19.25 130.12,-19.25 130.12,0 177.62,0 177.62,-19.25"/>
<text text-anchor="middle" x="153.88" y="-5.75" font-family="Helvetica,sans-Serif" font-size="10.00">version</text>
</a>
</g>
</g>
<!-- Node3&#45;&gt;Node5 -->
<g id="edge4_Node000003_Node000005" class="edge">
<title>Node3&#45;&gt;Node5</title>
<g id="a_edge4_Node000003_Node000005"><a xlink:title=" ">
<path fill="none" stroke="#63b8ff" d="M127.16,-55.08C131.35,-48.11 137.35,-38.12 142.61,-29.37"/>
<polygon fill="#63b8ff" stroke="#63b8ff" points="145.55,-31.28 147.7,-20.91 139.55,-27.68 145.55,-31.28"/>
</a>
</g>
</g>
<!-- Node8&#45;&gt;Node2 -->
<g id="edge9_Node000008_Node000002" class="edge">
<title>Node8&#45;&gt;Node2</title>
<g id="a_edge9_Node000008_Node000002"><a xlink:title=" ">
<path fill="none" stroke="#63b8ff" d="M255.56,-171.06C237.23,-161.59 208.03,-146.51 186.51,-135.4"/>
<polygon fill="#63b8ff" stroke="#63b8ff" points="188.19,-132.32 177.7,-130.85 184.98,-138.54 188.19,-132.32"/>
</a>
</g>
</g>
<!-- Node8&#45;&gt;Node3 -->
<g id="edge8_Node000008_Node000003" class="edge">
<title>Node8&#45;&gt;Node3</title>
<g id="a_edge8_Node000008_Node000003"><a xlink:title=" ">
<path fill="none" stroke="#63b8ff" d="M217.12,-170.88C173.05,-162.41 116.74,-148.3 102.88,-129.75 92.83,-116.31 100.27,-97.6 108.6,-83.9"/>
<polygon fill="#63b8ff" stroke="#63b8ff" points="111.35,-86.08 114.03,-75.83 105.54,-82.17 111.35,-86.08"/>
</a>
</g>
</g>
<!-- Node8&#45;&gt;Node9 -->
<g id="edge10_Node000008_Node000009" class="edge">
<title>Node8&#45;&gt;Node9</title>
<g id="a_edge10_Node000008_Node000009"><a xlink:title=" ">
<path fill="none" stroke="#63b8ff" d="M235.13,-170.93C189.59,-159.99 113.41,-141.68 67.18,-130.57"/>
<polygon fill="#63b8ff" stroke="#63b8ff" points="68.13,-127.2 57.59,-128.26 66.49,-134 68.13,-127.2"/>
</a>
</g>
</g>
<!-- Node10 -->
<g id="Node000010" class="node">
<title>Node10</title>
<g id="a_Node000010"><a xlink:title=" ">
<polygon fill="#e0e0e0" stroke="#999999" points="275.5,-129.75 224.25,-129.75 224.25,-110.5 275.5,-110.5 275.5,-129.75"/>
<text text-anchor="middle" x="249.88" y="-116.25" font-family="Helvetica,sans-Serif" font-size="10.00">sstream</text>
</a>
</g>
</g>
<!-- Node8&#45;&gt;Node10 -->
<g id="edge11_Node000008_Node000010" class="edge">
<title>Node8&#45;&gt;Node10</title>
<g id="a_edge11_Node000008_Node000010"><a xlink:title=" ">
<path fill="none" stroke="#63b8ff" d="M269.38,-171.06C266.24,-163.02 261.52,-150.93 257.51,-140.66"/>
<polygon fill="#63b8ff" stroke="#63b8ff" points="260.85,-139.6 253.95,-131.56 254.33,-142.15 260.85,-139.6"/>
</a>
</g>
</g>
<!-- Node8&#45;&gt;Node11 -->
<g id="edge12_Node000008_Node000011" class="edge">
<title>Node8&#45;&gt;Node11</title>
<g id="a_edge12_Node000008_Node000011"><a xlink:title=" ">
<path fill="none" stroke="#63b8ff" d="M290.04,-171.06C308.21,-161.59 337.15,-146.51 358.48,-135.4"/>
<polygon fill="#63b8ff" stroke="#63b8ff" points="359.96,-138.58 367.21,-130.85 356.72,-132.37 359.96,-138.58"/>
</a>
</g>
</g>
<!-- Node8&#45;&gt;Node12 -->
<g id="edge13_Node000008_Node000012" class="edge">
<title>Node8&#45;&gt;Node12</title>
<g id="a_edge13_Node000008_Node000012"><a xlink:title=" ">
<path fill="none" stroke="#63b8ff" d="M300.76,-170.93C333.99,-160.12 389.32,-142.12 423.58,-130.98"/>
<polygon fill="#63b8ff" stroke="#63b8ff" points="424.46,-134.37 432.89,-127.95 422.29,-127.72 424.46,-134.37"/>
</a>
</g>
</g>
<!-- Node13 -->
<g id="Node000013" class="node">
<title>Node13</title>
<g id="a_Node000013"><a xlink:title=" ">
<polygon fill="#e0e0e0" stroke="#999999" points="337.75,-129.75 294,-129.75 294,-110.5 337.75,-110.5 337.75,-129.75"/>
<text text-anchor="middle" x="315.88" y="-116.25" font-family="Helvetica,sans-Serif" font-size="10.00">format</text>
</a>
</g>
</g>
<!-- Node8&#45;&gt;Node13 -->
<g id="edge14_Node000008_Node000013" class="edge">
<title>Node8&#45;&gt;Node13</title>
<g id="a_edge14_Node000008_Node000013"><a xlink:title=" ">
<path fill="none" stroke="#63b8ff" d="M279.41,-171.06C285.53,-162.67 294.87,-149.88 302.57,-139.34"/>
<polygon fill="#63b8ff" stroke="#63b8ff" points="305.32,-141.51 308.39,-131.37 299.67,-137.38 305.32,-141.51"/>
</a>
</g>
</g>
<!-- Node16 -->
<g id="Node000016" class="node">
<title>Node16</title>
<g id="a_Node000016"><a xlink:title=" ">
<polygon fill="#e0e0e0" stroke="#999999" points="707,-129.75 658.75,-129.75 658.75,-110.5 707,-110.5 707,-129.75"/>
<text text-anchor="middle" x="682.88" y="-116.25" font-family="Helvetica,sans-Serif" font-size="10.00">cstddef</text>
</a>
</g>
</g>
<!-- Node15&#45;&gt;Node16 -->
<g id="edge17_Node000015_Node000016" class="edge">
<title>Node15&#45;&gt;Node16</title>
<g id="a_edge17_Node000015_Node000016"><a xlink:title=" ">
<path fill="none" stroke="#63b8ff" d="M682.88,-165.45C682.88,-158.21 682.88,-149.34 682.88,-141.44"/>
<polygon fill="#63b8ff" stroke="#63b8ff" points="686.38,-141.71 682.88,-131.71 679.38,-141.71 686.38,-141.71"/>
</a>
</g>
</g>
<!-- Node21&#45;&gt;Node6 -->
<g id="edge27_Node000021_Node000006" class="edge">
<title>Node21&#45;&gt;Node6</title>
<g id="a_edge27_Node000021_Node000006"><a xlink:title=" ">
<path fill="none" stroke="#63b8ff" d="M540.38,-110.09C523.47,-101.83 498.19,-89.48 478.64,-79.93"/>
<polygon fill="#63b8ff" stroke="#63b8ff" points="480.34,-76.86 469.82,-75.62 477.26,-83.15 480.34,-76.86"/>
</a>
</g>
</g>
<!-- Node21&#45;&gt;Node7 -->
<g id="edge28_Node000021_Node000007" class="edge">
<title>Node21&#45;&gt;Node7</title>
<g id="a_edge28_Node000021_Node000007"><a xlink:title=" ">
<path fill="none" stroke="#63b8ff" d="M510.55,-110.03C457.12,-99.98 371.8,-83.93 320.09,-74.19"/>
<polygon fill="#63b8ff" stroke="#63b8ff" points="320.92,-70.79 310.45,-72.38 319.63,-77.67 320.92,-70.79"/>
</a>
</g>
</g>
<!-- Node22 -->
<g id="Node000022" class="node">
<title>Node22</title>
<g id="a_Node000022"><a xlink:title=" ">
<polygon fill="#e0e0e0" stroke="#999999" points="578.5,-74.5 539.25,-74.5 539.25,-55.25 578.5,-55.25 578.5,-74.5"/>
<text text-anchor="middle" x="558.88" y="-61" font-family="Helvetica,sans-Serif" font-size="10.00">regex</text>
</a>
</g>
</g>
<!-- Node21&#45;&gt;Node22 -->
<g id="edge26_Node000021_Node000022" class="edge">
<title>Node21&#45;&gt;Node22</title>
<g id="a_edge26_Node000021_Node000022"><a xlink:title=" ">
<path fill="none" stroke="#63b8ff" d="M558.88,-110.33C558.88,-103.82 558.88,-94.67 558.88,-86.37"/>
<polygon fill="#63b8ff" stroke="#63b8ff" points="562.38,-86.37 558.88,-76.37 555.38,-86.37 562.38,-86.37"/>
</a>
</g>
</g>
</g>
</svg>
