<?xml version="1.0" encoding="UTF-8" standalone="no"?>
<!DOCTYPE svg PUBLIC "-//W3C//DTD SVG 1.1//EN"
 "http://www.w3.org/Graphics/SVG/1.1/DTD/svg11.dtd">
<!-- Generated by graphviz version 12.2.1 (20241206.2353)
 -->
<!-- Title: mimicpp::printing::type::parsing::token::FunctionPtr::NestedInfo Pages: 1 -->
<!--zoomable 287 -->

<svg id="main" version="1.1" xmlns="http://www.w3.org/2000/svg" xmlns:xlink="http://www.w3.org/1999/xlink" xml:space="preserve" onload="init(evt)">

<style type="text/css"><![CDATA[
.node, .edge {opacity: 0.7;}
.node.selected, .edge.selected {opacity: 1;}
.edge:hover path { stroke: red; }
.edge:hover polygon { stroke: red; fill: red; }
]]></style>

<defs>
  <circle id="rim" cx="0" cy="0" r="7"/>
  <circle id="rim2" cx="0" cy="0" r="3.5"/>
  <g id="zoomPlus">
    <use xlink:href="#rim" fill="#404040"><set attributeName="fill" to="#808080" begin="zoomplus.mouseover" end="zoomplus.mouseout"/></use>
    <path d="M-4,0h8M0,-4v8" fill="none" stroke="white" stroke-width="1.5" pointer-events="none"/>
  </g>
  <g id="zoomMin">
    <use xlink:href="#rim" fill="#404040"><set attributeName="fill" to="#808080" begin="zoomminus.mouseover" end="zoomminus.mouseout"/></use>
    <path d="M-4,0h8" fill="none" stroke="white" stroke-width="1.5" pointer-events="none"/>
  </g>
  <g id="arrowUp" transform="translate(30 24)">
    <use xlink:href="#rim"/>
    <path pointer-events="none" fill="none" stroke="white" stroke-width="1.5" d="M0,-3.0v7 M-2.5,-0.5L0,-3.0L2.5,-0.5"/>
  </g>
  <g id="arrowRight" transform="rotate(90) translate(36 -43)">
    <use xlink:href="#rim"/>
    <path pointer-events="none" fill="none" stroke="white" stroke-width="1.5" d="M0,-3.0v7 M-2.5,-0.5L0,-3.0L2.5,-0.5"/>
  </g>
  <g id="arrowDown" transform="rotate(180) translate(-30 -48)">
    <use xlink:href="#rim"/>
    <path pointer-events="none" fill="none" stroke="white" stroke-width="1.5" d="M0,-3.0v7 M-2.5,-0.5L0,-3.0L2.5,-0.5"/>
  </g>
  <g id="arrowLeft" transform="rotate(270) translate(-36 17)">
    <use xlink:href="#rim"/>
    <path pointer-events="none" fill="none" stroke="white" stroke-width="1.5" d="M0,-3.0v7 M-2.5,-0.5L0,-3.0L2.5,-0.5"/>
  </g>
  <g id="resetDef">
    <use xlink:href="#rim2" fill="#404040"><set attributeName="fill" to="#808080" begin="reset.mouseover" end="reset.mouseout"/></use>
  </g>
</defs>
<script type="application/ecmascript">
var viewWidth = 1182;
var viewHeight = 287;
var sectionId = 'dynsection-0';
</script>
<script type="application/ecmascript" xlink:href="../../svg.min.js"/>
<svg id="graph" class="graph">
<g id="viewport">
<title>mimicpp::printing::type::parsing::token::FunctionPtr::NestedInfo</title>
<!-- Node1 -->
<g id="Node000001" class="node">
<title>Node1</title>
<g id="a_Node000001"><a xlink:title=" ">
<polygon fill="#999999" stroke="#666666" points="1174.05,-148.12 1050.8,-148.12 1050.8,-106.38 1174.05,-106.38 1174.05,-148.12"/>
<text text-anchor="start" x="1058.8" y="-134.62" font-family="Helvetica,sans-Serif" font-size="10.00">mimicpp::printing::</text>
<text text-anchor="start" x="1058.8" y="-123.38" font-family="Helvetica,sans-Serif" font-size="10.00">type::parsing::token</text>
<text text-anchor="middle" x="1112.43" y="-112.12" font-family="Helvetica,sans-Serif" font-size="10.00">::FunctionPtr::NestedInfo</text>
</a>
</g>
</g>
<!-- Node2 -->
<g id="Node000002" class="node">
<title>Node2</title>
<g id="a_Node000002"><a xlink:title=" ">
<polygon fill="white" stroke="#666666" points="997.55,-190.12 872.8,-190.12 872.8,-148.38 997.55,-148.38 997.55,-190.12"/>
<text text-anchor="start" x="880.8" y="-176.62" font-family="Helvetica,sans-Serif" font-size="10.00">std::shared_ptr&lt; mimicpp</text>
<text text-anchor="start" x="880.8" y="-165.38" font-family="Helvetica,sans-Serif" font-size="10.00">::printing::type::parsing</text>
<text text-anchor="middle" x="935.18" y="-154.12" font-family="Helvetica,sans-Serif" font-size="10.00">::token::FunctionPtr &gt;</text>
</a>
</g>
</g>
<!-- Node2&#45;&gt;Node1 -->
<g id="edge1_Node000001_Node000002" class="edge">
<title>Node2&#45;&gt;Node1</title>
<g id="a_edge1_Node000001_Node000002"><a xlink:title=" ">
<path fill="none" stroke="#9a32cd" stroke-dasharray="5,2" d="M1008.91,-151.82C1022.74,-148.5 1037.08,-145.07 1050.49,-141.85"/>
<polygon fill="#9a32cd" stroke="#9a32cd" points="1008.34,-148.36 999.43,-154.09 1009.97,-155.16 1008.34,-148.36"/>
</a>
</g>
<text text-anchor="start" x="1018.55" y="-154.26" font-family="Helvetica,sans-Serif" font-size="10.00" fill="grey">ptr</text>
</g>
<!-- Node3 -->
<g id="Node000003" class="node">
<title>Node3</title>
<g id="a_Node000003"><a xlink:href="../../d8/d0d/classmimicpp_1_1printing_1_1type_1_1parsing_1_1token_1_1_function_ptr.html" target="_top" xlink:title=" ">
<polygon fill="white" stroke="#666666" points="819.55,-190.12 721.05,-190.12 721.05,-148.38 819.55,-148.38 819.55,-190.12"/>
<text text-anchor="start" x="729.05" y="-176.62" font-family="Helvetica,sans-Serif" font-size="10.00">mimicpp::printing::</text>
<text text-anchor="start" x="729.05" y="-165.38" font-family="Helvetica,sans-Serif" font-size="10.00">type::parsing::token</text>
<text text-anchor="middle" x="770.3" y="-154.12" font-family="Helvetica,sans-Serif" font-size="10.00">::FunctionPtr</text>
</a>
</g>
</g>
<!-- Node3&#45;&gt;Node2 -->
<g id="edge2_Node000002_Node000003" class="edge">
<title>Node3&#45;&gt;Node2</title>
<g id="a_edge2_Node000002_Node000003"><a xlink:title=" ">
<path fill="none" stroke="#9a32cd" stroke-dasharray="5,2" d="M831.24,-169.25C844.63,-169.25 858.86,-169.25 872.32,-169.25"/>
<polygon fill="#9a32cd" stroke="#9a32cd" points="831.24,-165.75 821.24,-169.25 831.24,-172.75 831.24,-165.75"/>
</a>
</g>
<text text-anchor="start" x="840.55" y="-174" font-family="Helvetica,sans-Serif" font-size="10.00" fill="grey">ptr</text>
</g>
<!-- Node4 -->
<g id="Node000004" class="node">
<title>Node4</title>
<g id="a_Node000004"><a xlink:href="../../de/db7/classmimicpp_1_1printing_1_1type_1_1parsing_1_1token_1_1_specs.html" target="_top" xlink:title=" ">
<polygon fill="white" stroke="#666666" points="652.55,-165.12 554.05,-165.12 554.05,-123.38 652.55,-123.38 652.55,-165.12"/>
<text text-anchor="start" x="562.05" y="-151.62" font-family="Helvetica,sans-Serif" font-size="10.00">mimicpp::printing::</text>
<text text-anchor="start" x="562.05" y="-140.38" font-family="Helvetica,sans-Serif" font-size="10.00">type::parsing::token</text>
<text text-anchor="middle" x="603.3" y="-129.12" font-family="Helvetica,sans-Serif" font-size="10.00">::Specs</text>
</a>
</g>
</g>
<!-- Node4&#45;&gt;Node3 -->
<g id="edge3_Node000003_Node000004" class="edge">
<title>Node4&#45;&gt;Node3</title>
<g id="a_edge3_Node000003_Node000004"><a xlink:title=" ">
<path fill="none" stroke="#9a32cd" stroke-dasharray="5,2" d="M664.23,-153.33C682.81,-156.15 703.04,-159.21 720.75,-161.89"/>
<polygon fill="#9a32cd" stroke="#9a32cd" points="664.82,-149.88 654.41,-151.84 663.77,-156.8 664.82,-149.88"/>
</a>
</g>
<text text-anchor="start" x="673.8" y="-163.74" font-family="Helvetica,sans-Serif" font-size="10.00" fill="grey">specs</text>
</g>
<!-- Node10 -->
<g id="Node000010" class="node">
<title>Node10</title>
<g id="a_Node000010"><a xlink:href="../../d8/dd3/classmimicpp_1_1printing_1_1type_1_1parsing_1_1token_1_1_function_context.html" target="_top" xlink:title=" ">
<polygon fill="white" stroke="#666666" points="819.55,-130.12 721.05,-130.12 721.05,-88.38 819.55,-88.38 819.55,-130.12"/>
<text text-anchor="start" x="729.05" y="-116.62" font-family="Helvetica,sans-Serif" font-size="10.00">mimicpp::printing::</text>
<text text-anchor="start" x="729.05" y="-105.38" font-family="Helvetica,sans-Serif" font-size="10.00">type::parsing::token</text>
<text text-anchor="middle" x="770.3" y="-94.12" font-family="Helvetica,sans-Serif" font-size="10.00">::FunctionContext</text>
</a>
</g>
</g>
<!-- Node4&#45;&gt;Node10 -->
<g id="edge15_Node000010_Node000004" class="edge">
<title>Node4&#45;&gt;Node10</title>
<g id="a_edge15_Node000010_Node000004"><a xlink:title=" ">
<path fill="none" stroke="#9a32cd" stroke-dasharray="5,2" d="M663.97,-131.59C682.62,-127.64 702.96,-123.32 720.75,-119.55"/>
<polygon fill="#9a32cd" stroke="#9a32cd" points="663.45,-128.13 654.39,-133.62 664.9,-134.97 663.45,-128.13"/>
</a>
</g>
<text text-anchor="start" x="673.8" y="-134.63" font-family="Helvetica,sans-Serif" font-size="10.00" fill="grey">specs</text>
</g>
<!-- Node5 -->
<g id="Node000005" class="node">
<title>Node5</title>
<g id="a_Node000005"><a xlink:title=" ">
<polygon fill="white" stroke="#666666" points="486.3,-165.12 372.8,-165.12 372.8,-123.38 486.3,-123.38 486.3,-165.12"/>
<text text-anchor="start" x="380.8" y="-151.62" font-family="Helvetica,sans-Serif" font-size="10.00">std::vector&lt; mimicpp</text>
<text text-anchor="start" x="380.8" y="-140.38" font-family="Helvetica,sans-Serif" font-size="10.00">::printing::type::parsing</text>
<text text-anchor="middle" x="429.55" y="-129.12" font-family="Helvetica,sans-Serif" font-size="10.00">::token::Specs::Layer &gt;</text>
</a>
</g>
</g>
<!-- Node5&#45;&gt;Node4 -->
<g id="edge4_Node000004_Node000005" class="edge">
<title>Node5&#45;&gt;Node4</title>
<g id="a_edge4_Node000004_Node000005"><a xlink:title=" ">
<path fill="none" stroke="#9a32cd" stroke-dasharray="5,2" d="M498.16,-144.25C516.71,-144.25 536.47,-144.25 553.73,-144.25"/>
<polygon fill="#9a32cd" stroke="#9a32cd" points="498.3,-140.75 488.3,-144.25 498.3,-147.75 498.3,-140.75"/>
</a>
</g>
<text text-anchor="start" x="507.3" y="-149" font-family="Helvetica,sans-Serif" font-size="10.00" fill="grey">layers</text>
</g>
<!-- Node6 -->
<g id="Node000006" class="node">
<title>Node6</title>
<g id="a_Node000006"><a xlink:href="../../d4/dcb/structmimicpp_1_1printing_1_1type_1_1parsing_1_1token_1_1_specs_1_1_layer.html" target="_top" xlink:title=" ">
<polygon fill="white" stroke="#666666" points="221.8,-213.12 123.3,-213.12 123.3,-171.38 221.8,-171.38 221.8,-213.12"/>
<text text-anchor="start" x="131.3" y="-199.62" font-family="Helvetica,sans-Serif" font-size="10.00">mimicpp::printing::</text>
<text text-anchor="start" x="131.3" y="-188.38" font-family="Helvetica,sans-Serif" font-size="10.00">type::parsing::token</text>
<text text-anchor="middle" x="172.55" y="-177.12" font-family="Helvetica,sans-Serif" font-size="10.00">::Specs::Layer</text>
</a>
</g>
</g>
<!-- Node6&#45;&gt;Node5 -->
<g id="edge5_Node000005_Node000006" class="edge">
<title>Node6&#45;&gt;Node5</title>
<g id="a_edge5_Node000005_Node000006"><a xlink:title=" ">
<path fill="none" stroke="#9a32cd" stroke-dasharray="5,2" d="M233.14,-191.21C268.87,-189.47 314.97,-185.24 354.8,-175.25 364.5,-172.82 374.58,-169.3 384.05,-165.5"/>
<polygon fill="#9a32cd" stroke="#9a32cd" points="233.28,-187.7 223.43,-191.63 233.58,-194.69 233.28,-187.7"/>
</a>
</g>
<text text-anchor="start" x="283.8" y="-194.49" font-family="Helvetica,sans-Serif" font-size="10.00" fill="grey">elements</text>
</g>
<!-- Node7 -->
<g id="Node000007" class="node">
<title>Node7</title>
<g id="a_Node000007"><a xlink:title=" ">
<polygon fill="white" stroke="#666666" points="214.3,-135.88 130.8,-135.88 130.8,-116.62 214.3,-116.62 214.3,-135.88"/>
<text text-anchor="middle" x="172.55" y="-122.38" font-family="Helvetica,sans-Serif" font-size="10.00">std::vector&lt; T &gt;</text>
</a>
</g>
</g>
<!-- Node7&#45;&gt;Node5 -->
<g id="edge6_Node000005_Node000007" class="edge">
<title>Node7&#45;&gt;Node5</title>
<g id="a_edge6_Node000005_Node000007"><a xlink:title=" ">
<path fill="none" stroke="orange" stroke-dasharray="5,2" d="M226.03,-123.62C262.32,-122.54 311.64,-122.51 354.8,-127.5 360.54,-128.16 366.48,-129.09 372.39,-130.18"/>
<polygon fill="orange" stroke="orange" points="226.12,-120.12 216.25,-123.96 226.36,-127.11 226.12,-120.12"/>
</a>
</g>
<text text-anchor="start" x="257.18" y="-162.75" font-family="Helvetica,sans-Serif" font-size="10.00" fill="grey">&lt; mimicpp::printing</text>
<text text-anchor="start" x="257.18" y="-147.5" font-family="Helvetica,sans-Serif" font-size="10.00" fill="grey">  ::type::parsing::token</text>
<text text-anchor="start" x="257.18" y="-132.25" font-family="Helvetica,sans-Serif" font-size="10.00" fill="grey">  ::Specs::Layer &gt;</text>
</g>
<!-- Node12 -->
<g id="Node000012" class="node">
<title>Node12</title>
<g id="a_Node000012"><a xlink:title=" ">
<polygon fill="white" stroke="#666666" points="484.8,-76.12 374.3,-76.12 374.3,-34.38 484.8,-34.38 484.8,-76.12"/>
<text text-anchor="start" x="382.3" y="-62.62" font-family="Helvetica,sans-Serif" font-size="10.00">std::vector&lt; mimicpp</text>
<text text-anchor="start" x="382.3" y="-51.38" font-family="Helvetica,sans-Serif" font-size="10.00">::printing::type::parsing</text>
<text text-anchor="middle" x="429.55" y="-40.12" font-family="Helvetica,sans-Serif" font-size="10.00">::token::Type &gt;</text>
</a>
</g>
</g>
<!-- Node7&#45;&gt;Node12 -->
<g id="edge14_Node000012_Node000007" class="edge">
<title>Node7&#45;&gt;Node12</title>
<g id="a_edge14_Node000012_Node000007"><a xlink:title=" ">
<path fill="none" stroke="orange" stroke-dasharray="5,2" d="M192.17,-109.16C207.26,-96.41 229.7,-79.82 252.55,-71.5 291.48,-57.33 338.29,-53.59 373.85,-53.21"/>
<polygon fill="orange" stroke="orange" points="190.15,-106.28 184.93,-115.5 194.76,-111.55 190.15,-106.28"/>
</a>
</g>
<text text-anchor="start" x="257.18" y="-106.75" font-family="Helvetica,sans-Serif" font-size="10.00" fill="grey">&lt; mimicpp::printing</text>
<text text-anchor="start" x="257.18" y="-91.5" font-family="Helvetica,sans-Serif" font-size="10.00" fill="grey">  ::type::parsing::token</text>
<text text-anchor="start" x="257.18" y="-76.25" font-family="Helvetica,sans-Serif" font-size="10.00" fill="grey">  ::Type &gt;</text>
</g>
<!-- Node8 -->
<g id="Node000008" class="node">
<title>Node8</title>
<g id="a_Node000008"><a xlink:title=" ">
<polygon fill="white" stroke="#666666" points="28.8,-195.88 0,-195.88 0,-176.62 28.8,-176.62 28.8,-195.88"/>
<text text-anchor="middle" x="14.4" y="-182.38" font-family="Helvetica,sans-Serif" font-size="10.00">T</text>
</a>
</g>
</g>
<!-- Node8&#45;&gt;Node7 -->
<g id="edge7_Node000007_Node000008" class="edge">
<title>Node8&#45;&gt;Node7</title>
<g id="a_edge7_Node000007_Node000008"><a xlink:title=" ">
<path fill="none" stroke="#9a32cd" stroke-dasharray="5,2" d="M39.97,-176.81C68.69,-165.77 116.01,-147.59 145.39,-136.3"/>
<polygon fill="#9a32cd" stroke="#9a32cd" points="38.75,-173.53 30.67,-180.38 41.26,-180.06 38.75,-173.53"/>
</a>
</g>
<text text-anchor="start" x="49.8" y="-178.04" font-family="Helvetica,sans-Serif" font-size="10.00" fill="grey">elements</text>
</g>
<!-- Node9 -->
<g id="Node000009" class="node">
<title>Node9</title>
<g id="a_Node000009"><a xlink:title=" ">
<polygon fill="white" stroke="#666666" points="354.8,-246.88 252.55,-246.88 252.55,-227.62 354.8,-227.62 354.8,-246.88"/>
<text text-anchor="middle" x="303.68" y="-233.38" font-family="Helvetica,sans-Serif" font-size="10.00">std::shared_ptr&lt; T &gt;</text>
</a>
</g>
</g>
<!-- Node8&#45;&gt;Node9 -->
<g id="edge9_Node000009_Node000008" class="edge">
<title>Node8&#45;&gt;Node9</title>
<g id="a_edge9_Node000009_Node000008"><a xlink:title=" ">
<path fill="none" stroke="#9a32cd" stroke-dasharray="5,2" d="M39.54,-197.57C58.44,-205.89 85.6,-216.67 110.55,-222.25 157.89,-232.83 213.24,-236.24 252.34,-237.2"/>
<polygon fill="#9a32cd" stroke="#9a32cd" points="41.14,-194.45 30.58,-193.53 38.25,-200.83 41.14,-194.45"/>
</a>
</g>
<text text-anchor="start" x="64.05" y="-221.9" font-family="Helvetica,sans-Serif" font-size="10.00" fill="grey">ptr</text>
</g>
<!-- Node9&#45;&gt;Node2 -->
<g id="edge8_Node000002_Node000009" class="edge">
<title>Node9&#45;&gt;Node2</title>
<g id="a_edge8_Node000002_Node000009"><a xlink:title=" ">
<path fill="none" stroke="orange" stroke-dasharray="5,2" d="M366.28,-234.61C409.12,-233 467.55,-231.25 519.05,-231.25 519.05,-231.25 519.05,-231.25 771.3,-231.25 818.2,-231.25 868.01,-208.52 900.02,-190.59"/>
<polygon fill="orange" stroke="orange" points="366.28,-231.11 356.42,-234.99 366.55,-238.1 366.28,-231.11"/>
</a>
</g>
<text text-anchor="start" x="556.8" y="-266.5" font-family="Helvetica,sans-Serif" font-size="10.00" fill="grey">&lt; mimicpp::printing</text>
<text text-anchor="start" x="556.8" y="-251.25" font-family="Helvetica,sans-Serif" font-size="10.00" fill="grey">  ::type::parsing::token</text>
<text text-anchor="start" x="556.8" y="-236" font-family="Helvetica,sans-Serif" font-size="10.00" fill="grey">  ::FunctionPtr &gt;</text>
</g>
<!-- Node10&#45;&gt;Node1 -->
<g id="edge10_Node000001_Node000010" class="edge">
<title>Node10&#45;&gt;Node1</title>
<g id="a_edge10_Node000001_Node000010"><a xlink:title=" ">
<path fill="none" stroke="#9a32cd" stroke-dasharray="5,2" d="M831.51,-112.44C893.16,-115.7 988.48,-120.74 1050.42,-124.02"/>
<polygon fill="#9a32cd" stroke="#9a32cd" points="831.71,-108.94 821.54,-111.91 831.34,-115.93 831.71,-108.94"/>
</a>
</g>
<text text-anchor="start" x="928.8" y="-125.95" font-family="Helvetica,sans-Serif" font-size="10.00" fill="grey">ctx</text>
</g>
<!-- Node11 -->
<g id="Node000011" class="node">
<title>Node11</title>
<g id="a_Node000011"><a xlink:href="../../d6/d54/classmimicpp_1_1printing_1_1type_1_1parsing_1_1token_1_1_arg_sequence.html" target="_top" xlink:title=" ">
<polygon fill="white" stroke="#666666" points="652.55,-84.12 554.05,-84.12 554.05,-42.38 652.55,-42.38 652.55,-84.12"/>
<text text-anchor="start" x="562.05" y="-70.62" font-family="Helvetica,sans-Serif" font-size="10.00">mimicpp::printing::</text>
<text text-anchor="start" x="562.05" y="-59.38" font-family="Helvetica,sans-Serif" font-size="10.00">type::parsing::token</text>
<text text-anchor="middle" x="603.3" y="-48.12" font-family="Helvetica,sans-Serif" font-size="10.00">::ArgSequence</text>
</a>
</g>
</g>
<!-- Node11&#45;&gt;Node10 -->
<g id="edge11_Node000010_Node000011" class="edge">
<title>Node11&#45;&gt;Node10</title>
<g id="a_edge11_Node000010_Node000011"><a xlink:title=" ">
<path fill="none" stroke="#9a32cd" stroke-dasharray="5,2" d="M663.97,-79.88C682.62,-85.08 702.96,-90.76 720.75,-95.71"/>
<polygon fill="#9a32cd" stroke="#9a32cd" points="664.94,-76.52 654.37,-77.21 663.06,-83.27 664.94,-76.52"/>
</a>
</g>
<text text-anchor="start" x="677.55" y="-95.12" font-family="Helvetica,sans-Serif" font-size="10.00" fill="grey">args</text>
</g>
<!-- Node12&#45;&gt;Node11 -->
<g id="edge12_Node000011_Node000012" class="edge">
<title>Node12&#45;&gt;Node11</title>
<g id="a_edge12_Node000011_Node000012"><a xlink:title=" ">
<path fill="none" stroke="#9a32cd" stroke-dasharray="5,2" d="M496.28,-58.31C515.41,-59.2 535.96,-60.16 553.83,-60.99"/>
<polygon fill="#9a32cd" stroke="#9a32cd" points="496.56,-54.82 486.4,-57.85 496.23,-61.81 496.56,-54.82"/>
</a>
</g>
<text text-anchor="start" x="508.43" y="-64.72" font-family="Helvetica,sans-Serif" font-size="10.00" fill="grey">types</text>
</g>
<!-- Node13 -->
<g id="Node000013" class="node">
<title>Node13</title>
<g id="a_Node000013"><a xlink:href="../../d1/da5/classmimicpp_1_1printing_1_1type_1_1parsing_1_1token_1_1_type.html" target="_top" xlink:title=" ">
<polygon fill="white" stroke="#666666" points="234.55,-30.5 110.55,-30.5 110.55,0 234.55,0 234.55,-30.5"/>
<text text-anchor="start" x="118.55" y="-17" font-family="Helvetica,sans-Serif" font-size="10.00">mimicpp::printing::</text>
<text text-anchor="middle" x="172.55" y="-5.75" font-family="Helvetica,sans-Serif" font-size="10.00">type::parsing::token::Type</text>
</a>
</g>
</g>
<!-- Node13&#45;&gt;Node12 -->
<g id="edge13_Node000012_Node000013" class="edge">
<title>Node13&#45;&gt;Node12</title>
<g id="a_edge13_Node000012_Node000013"><a xlink:title=" ">
<path fill="none" stroke="#9a32cd" stroke-dasharray="5,2" d="M246,-7.64C279.57,-6.12 319.71,-7.17 354.8,-16 369.43,-19.68 384.34,-26.85 396.9,-34.06"/>
<polygon fill="#9a32cd" stroke="#9a32cd" points="246.19,-4.13 236.39,-8.17 246.57,-11.12 246.19,-4.13"/>
</a>
</g>
<text text-anchor="start" x="283.8" y="-20.75" font-family="Helvetica,sans-Serif" font-size="10.00" fill="grey">elements</text>
</g>
</g>
</svg>

<g id="navigator" transform="translate(0 0)" fill="#404254">
  <rect fill="#f2f5e9" fill-opacity="0.5" stroke="#606060" stroke-width=".5" x="0" y="0" width="60" height="60"/>
  <use id="zoomplus" xlink:href="#zoomPlus" x="17" y="9" onmousedown="handleZoom(evt,'in')"/>
  <use id="zoomminus" xlink:href="#zoomMin" x="42" y="9" onmousedown="handleZoom(evt,'out')"/>
  <use id="reset" xlink:href="#resetDef" x="30" y="36" onmousedown="handleReset()"/>
   <use id="arrowup" xlink:href="#arrowUp" x="0" y="0" onmousedown="handlePan(0,-1)"/>
  <use id="arrowright" xlink:href="#arrowRight" x="0" y="0" onmousedown="handlePan(1,0)"/>
  <use id="arrowdown" xlink:href="#arrowDown" x="0" y="0" onmousedown="handlePan(0,1)"/>
  <use id="arrowleft" xlink:href="#arrowLeft" x="0" y="0" onmousedown="handlePan(-1,0)"/>
</g>
<svg viewBox="0 0 15 15" width="100%" height="30px" preserveAspectRatio="xMaxYMin meet">
 <g id="arrow_out" transform="scale(0.3 0.3)">
  <a xlink:href="structmimicpp_1_1printing_1_1type_1_1parsing_1_1token_1_1_function_ptr_1_1_nested_info__coll__graph_org.svg" target="_base">
   <rect id="button" ry="5" rx="5" y="6" x="6" height="38" width="38"
        fill="#f2f5e9" fill-opacity="0.5" stroke="#606060" stroke-width="1.0"/>
   <path id="arrow"
     d="M 11.500037,31.436501 C 11.940474,20.09759 22.043105,11.32322 32.158766,21.979434 L 37.068811,17.246167 C 37.068811,17.246167 37.088388,32 37.088388,32 L 22.160133,31.978069 C 22.160133,31.978069 26.997745,27.140456 26.997745,27.140456 C 18.528582,18.264221 13.291696,25.230495 11.500037,31.436501 z"
     style="fill:#404040;"/>
  </a>
 </g>
</svg>

<style type='text/css'>
<![CDATA[
[data-mouse-over-selected='false'] { opacity: 0.7; }
[data-mouse-over-selected='true']  { opacity: 1.0; }
]]>
</style>
<script type="application/ecmascript"><![CDATA[
document.addEventListener('DOMContentLoaded', (event) => {
  highlightEdges();
  highlightAdjacentNodes();
});
]]></script>
</svg>
