<?xml version="1.0" encoding="UTF-8" standalone="no"?>
<!DOCTYPE svg PUBLIC "-//W3C//DTD SVG 1.1//EN"
 "http://www.w3.org/Graphics/SVG/1.1/DTD/svg11.dtd">
<!-- Generated by graphviz version 12.2.1 (20241206.2353)
 -->
<!-- Title: mimicpp::Watched&lt; Base, Watchers &gt; Pages: 1 -->
<svg width="1169pt" height="161pt"
 viewBox="0.00 0.00 1169.00 160.88" xmlns="http://www.w3.org/2000/svg" xmlns:xlink="http://www.w3.org/1999/xlink">
<g id="graph0" class="graph" transform="scale(1 1) rotate(0) translate(4 156.88)">
<title>mimicpp::Watched&lt; Base, Watchers &gt;</title>
<!-- Node1 -->
<g id="Node000001" class="node">
<title>Node1</title>
<g id="a_Node000001"><a xlink:title="CRTP&#45;type, inheriting first from all Watchers and then Base, thus effectively couple them all togethe...">
<polygon fill="#999999" stroke="#666666" points="1161,-106.5 1031.75,-106.5 1031.75,-76 1161,-76 1161,-106.5"/>
<text text-anchor="start" x="1039.75" y="-93" font-family="Helvetica,sans-Serif" font-size="10.00">mimicpp::Watched&lt; Base,</text>
<text text-anchor="middle" x="1096.38" y="-81.75" font-family="Helvetica,sans-Serif" font-size="10.00"> Watchers &gt;</text>
</a>
</g>
</g>
<!-- Node2 -->
<g id="Node000002" class="node">
<title>Node2</title>
<g id="a_Node000002"><a xlink:title=" ">
<polygon fill="white" stroke="#666666" points="994.75,-106.5 846.75,-106.5 846.75,-76 994.75,-76 994.75,-106.5"/>
<text text-anchor="start" x="854.75" y="-93" font-family="Helvetica,sans-Serif" font-size="10.00">mimicpp::detail::BasicWatched</text>
<text text-anchor="middle" x="920.75" y="-81.75" font-family="Helvetica,sans-Serif" font-size="10.00">&lt; Base, Watchers... &gt;</text>
</a>
</g>
</g>
<!-- Node2&#45;&gt;Node1 -->
<g id="edge1_Node000001_Node000002" class="edge">
<title>Node2&#45;&gt;Node1</title>
<g id="a_edge1_Node000001_Node000002"><a xlink:title=" ">
<path fill="none" stroke="#63b8ff" d="M1006.48,-91.25C1014.84,-91.25 1023.23,-91.25 1031.33,-91.25"/>
<polygon fill="#63b8ff" stroke="#63b8ff" points="1006.64,-87.75 996.64,-91.25 1006.64,-94.75 1006.64,-87.75"/>
</a>
</g>
</g>
<!-- Node3 -->
<g id="Node000003" class="node">
<title>Node3</title>
<g id="a_Node000003"><a xlink:title=" ">
<polygon fill="white" stroke="#666666" points="527.5,-54.5 378,-54.5 378,-24 527.5,-24 527.5,-54.5"/>
<text text-anchor="start" x="386" y="-41" font-family="Helvetica,sans-Serif" font-size="10.00">mimicpp::detail::Combined</text>
<text text-anchor="middle" x="452.75" y="-29.75" font-family="Helvetica,sans-Serif" font-size="10.00">Watchers&lt; Base, Watchers... &gt;</text>
</a>
</g>
</g>
<!-- Node3&#45;&gt;Node2 -->
<g id="edge2_Node000002_Node000003" class="edge">
<title>Node3&#45;&gt;Node2</title>
<g id="a_edge2_Node000002_Node000003"><a xlink:title=" ">
<path fill="none" stroke="#63b8ff" d="M539.12,-40.47C589.57,-44.73 654.68,-51.77 712.5,-58.25 759.3,-63.49 812.01,-69.6 852.56,-75.52"/>
<polygon fill="#63b8ff" stroke="#63b8ff" points="539.7,-37.01 529.45,-39.68 539.13,-43.98 539.7,-37.01"/>
</a>
</g>
</g>
<!-- Node3&#45;&gt;Node2 -->
<g id="edge7_Node000002_Node000003" class="edge">
<title>Node3&#45;&gt;Node2</title>
<g id="a_edge7_Node000002_Node000003"><a xlink:title=" ">
<path fill="none" stroke="#63b8ff" d="M539.12,-56.18C589.57,-62.73 654.68,-69.77 712.5,-76.25 756.96,-81.23 806.75,-86.99 846.39,-90.61"/>
<polygon fill="#63b8ff" stroke="#63b8ff" points="539.81,-52.74 529.44,-54.9 538.89,-59.68 539.81,-52.74"/>
</a>
</g>
</g>
<!-- Node7 -->
<g id="Node000007" class="node">
<title>Node7</title>
<g id="a_Node000007"><a xlink:title=" ">
<polygon fill="white" stroke="#666666" points="712.5,-106.5 564.5,-106.5 564.5,-76 712.5,-76 712.5,-106.5"/>
<text text-anchor="start" x="572.5" y="-93" font-family="Helvetica,sans-Serif" font-size="10.00">mimicpp::detail::BasicWatched</text>
<text text-anchor="middle" x="638.5" y="-81.75" font-family="Helvetica,sans-Serif" font-size="10.00">&lt; Base, Watchers &gt;</text>
</a>
</g>
</g>
<!-- Node3&#45;&gt;Node7 -->
<g id="edge10_Node000007_Node000003" class="edge">
<title>Node3&#45;&gt;Node7</title>
<g id="a_edge10_Node000007_Node000003"><a xlink:title=" ">
<path fill="none" stroke="#63b8ff" d="M520.41,-58.11C540.64,-63.84 562.65,-70.07 582.06,-75.56"/>
<polygon fill="#63b8ff" stroke="#63b8ff" points="521.41,-54.76 510.84,-55.4 519.51,-61.5 521.41,-54.76"/>
</a>
</g>
</g>
<!-- Node4 -->
<g id="Node000004" class="node">
<title>Node4</title>
<g id="a_Node000004"><a xlink:title=" ">
<polygon fill="white" stroke="#666666" points="64,-45.88 0,-45.88 0,-26.62 64,-26.62 64,-45.88"/>
<text text-anchor="middle" x="32" y="-32.38" font-family="Helvetica,sans-Serif" font-size="10.00">Watchers...</text>
</a>
</g>
</g>
<!-- Node4&#45;&gt;Node3 -->
<g id="edge3_Node000003_Node000004" class="edge">
<title>Node4&#45;&gt;Node3</title>
<g id="a_edge3_Node000003_Node000004"><a xlink:title=" ">
<path fill="none" stroke="#63b8ff" d="M75.71,-41.76C77.84,-41.95 79.94,-42.11 82,-42.25 205.29,-50.46 236.49,-47.61 360,-44.25 365.74,-44.09 371.68,-43.88 377.65,-43.63"/>
<polygon fill="#63b8ff" stroke="#63b8ff" points="76.13,-38.29 65.82,-40.76 75.42,-45.25 76.13,-38.29"/>
</a>
</g>
</g>
<!-- Node5 -->
<g id="Node000005" class="node">
<title>Node5</title>
<g id="a_Node000005"><a xlink:title=" ">
<polygon fill="white" stroke="#666666" points="243.75,-30.5 101,-30.5 101,0 243.75,0 243.75,-30.5"/>
<text text-anchor="start" x="109" y="-17" font-family="Helvetica,sans-Serif" font-size="10.00">mimicpp::detail::Combined</text>
<text text-anchor="middle" x="172.38" y="-5.75" font-family="Helvetica,sans-Serif" font-size="10.00">Watchers&lt; Base, Watchers &gt;</text>
</a>
</g>
</g>
<!-- Node4&#45;&gt;Node5 -->
<g id="edge5_Node000005_Node000004" class="edge">
<title>Node4&#45;&gt;Node5</title>
<g id="a_edge5_Node000005_Node000004"><a xlink:title=" ">
<path fill="none" stroke="#63b8ff" d="M75.59,-29.79C83.54,-28.58 92.04,-27.29 100.58,-25.99"/>
<polygon fill="#63b8ff" stroke="#63b8ff" points="75.26,-26.3 65.9,-31.26 76.31,-33.22 75.26,-26.3"/>
</a>
</g>
</g>
<!-- Node5&#45;&gt;Node3 -->
<g id="edge4_Node000003_Node000005" class="edge">
<title>Node5&#45;&gt;Node3</title>
<g id="a_edge4_Node000003_Node000005"><a xlink:title=" ">
<path fill="none" stroke="orange" stroke-dasharray="5,2" d="M255.23,-19.16C287.87,-21.05 325.75,-23.64 360,-27 365.76,-27.56 371.71,-28.21 377.69,-28.91"/>
<polygon fill="orange" stroke="orange" points="255.61,-15.68 245.43,-18.61 255.22,-22.67 255.61,-15.68"/>
</a>
</g>
<text text-anchor="start" x="264.75" y="-31.75" font-family="Helvetica,sans-Serif" font-size="10.00" fill="grey">&lt; Base, Watchers... &gt;</text>
</g>
<!-- Node6 -->
<g id="Node000006" class="node">
<title>Node6</title>
<g id="a_Node000006"><a xlink:title=" ">
<polygon fill="white" stroke="#666666" points="472,-152.88 433.5,-152.88 433.5,-133.62 472,-133.62 472,-152.88"/>
<text text-anchor="middle" x="452.75" y="-139.38" font-family="Helvetica,sans-Serif" font-size="10.00">Base</text>
</a>
</g>
</g>
<!-- Node6&#45;&gt;Node2 -->
<g id="edge6_Node000002_Node000006" class="edge">
<title>Node6&#45;&gt;Node2</title>
<g id="a_edge6_Node000002_Node000006"><a xlink:title=" ">
<path fill="none" stroke="#63b8ff" d="M483.33,-137.4C546.89,-130.8 701.11,-123.15 828.75,-103.25 834.52,-102.35 840.46,-101.29 846.42,-100.15"/>
<polygon fill="#63b8ff" stroke="#63b8ff" points="483.25,-133.89 473.7,-138.5 484.04,-140.85 483.25,-133.89"/>
</a>
</g>
</g>
<!-- Node6&#45;&gt;Node2 -->
<g id="edge8_Node000002_Node000006" class="edge">
<title>Node6&#45;&gt;Node2</title>
<g id="a_edge8_Node000002_Node000006"><a xlink:title=" ">
<path fill="none" stroke="#63b8ff" d="M483.33,-147.11C546.89,-148.8 701.11,-141.15 828.75,-121.25 849.58,-118 872.72,-112.64 890.45,-106.97"/>
<polygon fill="#63b8ff" stroke="#63b8ff" points="483.84,-143.63 473.71,-146.72 483.57,-150.62 483.84,-143.63"/>
</a>
</g>
</g>
<!-- Node6&#45;&gt;Node7 -->
<g id="edge11_Node000007_Node000006" class="edge">
<title>Node6&#45;&gt;Node7</title>
<g id="a_edge11_Node000007_Node000006"><a xlink:title=" ">
<path fill="none" stroke="#63b8ff" d="M483.22,-134.91C509.73,-127.41 549.38,-116.19 581.85,-107"/>
<polygon fill="#63b8ff" stroke="#63b8ff" points="482.51,-131.47 473.84,-137.57 484.41,-138.21 482.51,-131.47"/>
</a>
</g>
</g>
<!-- Node7&#45;&gt;Node2 -->
<g id="edge9_Node000002_Node000007" class="edge">
<title>Node7&#45;&gt;Node2</title>
<g id="a_edge9_Node000002_Node000007"><a xlink:title=" ">
<path fill="none" stroke="orange" stroke-dasharray="5,2" d="M724.1,-91.25C763.09,-91.25 808.92,-91.25 846.43,-91.25"/>
<polygon fill="orange" stroke="orange" points="724.28,-87.75 714.28,-91.25 724.28,-94.75 724.28,-87.75"/>
</a>
</g>
<text text-anchor="start" x="733.5" y="-96" font-family="Helvetica,sans-Serif" font-size="10.00" fill="grey">&lt; Base, Watchers... &gt;</text>
</g>
</g>
</svg>
