<?xml version="1.0" encoding="UTF-8" standalone="no"?>
<!DOCTYPE svg PUBLIC "-//W3C//DTD SVG 1.1//EN"
 "http://www.w3.org/Graphics/SVG/1.1/DTD/svg11.dtd">
<!-- Generated by graphviz version 12.2.1 (20241206.2353)
 -->
<!-- Title: mimic++/TypeTraits.hpp Pages: 1 -->
<svg width="719pt" height="193pt"
 viewBox="0.00 0.00 719.12 193.00" xmlns="http://www.w3.org/2000/svg" xmlns:xlink="http://www.w3.org/1999/xlink">
<g id="graph0" class="graph" transform="scale(1 1) rotate(0) translate(4 189)">
<title>mimic++/TypeTraits.hpp</title>
<!-- Node1 -->
<g id="Node000001" class="node">
<title>Node1</title>
<g id="a_Node000001"><a xlink:title=" ">
<polygon fill="#999999" stroke="#666666" points="543.12,-185 422.12,-185 422.12,-165.75 543.12,-165.75 543.12,-185"/>
<text text-anchor="middle" x="482.62" y="-171.5" font-family="Helvetica,sans-Serif" font-size="10.00">mimic++/TypeTraits.hpp</text>
</a>
</g>
</g>
<!-- Node2 -->
<g id="Node000002" class="node">
<title>Node2</title>
<g id="a_Node000002"><a xlink:href="../../df/dde/_fwd_8hpp.html" target="_top" xlink:title=" ">
<polygon fill="white" stroke="#666666" points="257.62,-129.75 163.62,-129.75 163.62,-110.5 257.62,-110.5 257.62,-129.75"/>
<text text-anchor="middle" x="210.62" y="-116.25" font-family="Helvetica,sans-Serif" font-size="10.00">mimic++/Fwd.hpp</text>
</a>
</g>
</g>
<!-- Node1&#45;&gt;Node2 -->
<g id="edge1_Node000001_Node000002" class="edge">
<title>Node1&#45;&gt;Node2</title>
<g id="a_edge1_Node000001_Node000002"><a xlink:title=" ">
<path fill="none" stroke="#63b8ff" d="M436.18,-165.28C389.72,-156.19 318.18,-142.18 268.16,-132.39"/>
<polygon fill="#63b8ff" stroke="#63b8ff" points="268.85,-128.96 258.37,-130.47 267.51,-135.83 268.85,-128.96"/>
</a>
</g>
</g>
<!-- Node4 -->
<g id="Node000004" class="node">
<title>Node4</title>
<g id="a_Node000004"><a xlink:title=" ">
<polygon fill="#e0e0e0" stroke="#999999" points="45.25,-19.25 0,-19.25 0,0 45.25,0 45.25,-19.25"/>
<text text-anchor="middle" x="22.62" y="-5.75" font-family="Helvetica,sans-Serif" font-size="10.00">cstdint</text>
</a>
</g>
</g>
<!-- Node1&#45;&gt;Node4 -->
<g id="edge17_Node000001_Node000004" class="edge">
<title>Node1&#45;&gt;Node4</title>
<g id="a_edge17_Node000001_Node000004"><a xlink:title=" ">
<path fill="none" stroke="#63b8ff" d="M421.67,-171.42C354.97,-166.97 245.43,-156.04 154.62,-129.75 97.84,-113.31 69.71,-121.33 33.62,-74.5 24.05,-62.08 21.64,-44.26 21.43,-30.59"/>
<polygon fill="#63b8ff" stroke="#63b8ff" points="24.92,-31.08 21.68,-21 17.92,-30.9 24.92,-31.08"/>
</a>
</g>
</g>
<!-- Node8 -->
<g id="Node000008" class="node">
<title>Node8</title>
<g id="a_Node000008"><a xlink:href="../../df/d2e/_type_list_8hpp.html" target="_top" xlink:title=" ">
<polygon fill="white" stroke="#666666" points="555.88,-129.75 409.38,-129.75 409.38,-110.5 555.88,-110.5 555.88,-129.75"/>
<text text-anchor="middle" x="482.62" y="-116.25" font-family="Helvetica,sans-Serif" font-size="10.00">mimic++/utilities/TypeList.hpp</text>
</a>
</g>
</g>
<!-- Node1&#45;&gt;Node8 -->
<g id="edge7_Node000001_Node000008" class="edge">
<title>Node1&#45;&gt;Node8</title>
<g id="a_edge7_Node000001_Node000008"><a xlink:title=" ">
<path fill="none" stroke="#63b8ff" d="M482.62,-165.58C482.62,-159.07 482.62,-149.92 482.62,-141.62"/>
<polygon fill="#63b8ff" stroke="#63b8ff" points="486.13,-141.62 482.63,-131.62 479.13,-141.62 486.13,-141.62"/>
</a>
</g>
</g>
<!-- Node10 -->
<g id="Node000010" class="node">
<title>Node10</title>
<g id="a_Node000010"><a xlink:title=" ">
<polygon fill="#e0e0e0" stroke="#999999" points="380.5,-19.25 324.75,-19.25 324.75,0 380.5,0 380.5,-19.25"/>
<text text-anchor="middle" x="352.62" y="-5.75" font-family="Helvetica,sans-Serif" font-size="10.00">concepts</text>
</a>
</g>
</g>
<!-- Node1&#45;&gt;Node10 -->
<g id="edge15_Node000001_Node000010" class="edge">
<title>Node1&#45;&gt;Node10</title>
<g id="a_edge15_Node000001_Node000010"><a xlink:title=" ">
<path fill="none" stroke="#63b8ff" d="M460.16,-165.36C429.03,-151.38 374.58,-121.13 356.62,-74.5 351.3,-60.66 350.44,-43.88 350.83,-31"/>
<polygon fill="#63b8ff" stroke="#63b8ff" points="354.32,-31.37 351.44,-21.17 347.33,-30.94 354.32,-31.37"/>
</a>
</g>
</g>
<!-- Node12 -->
<g id="Node000012" class="node">
<title>Node12</title>
<g id="a_Node000012"><a xlink:title=" ">
<polygon fill="#e0e0e0" stroke="#999999" points="634.75,-74.5 586.5,-74.5 586.5,-55.25 634.75,-55.25 634.75,-74.5"/>
<text text-anchor="middle" x="610.62" y="-61" font-family="Helvetica,sans-Serif" font-size="10.00">cstddef</text>
</a>
</g>
</g>
<!-- Node1&#45;&gt;Node12 -->
<g id="edge16_Node000001_Node000012" class="edge">
<title>Node1&#45;&gt;Node12</title>
<g id="a_edge16_Node000001_Node000012"><a xlink:title=" ">
<path fill="none" stroke="#63b8ff" d="M505.2,-165.41C522.7,-157.71 546.87,-145.4 564.62,-129.75 579.35,-116.77 592.03,-98.25 600.32,-84.5"/>
<polygon fill="#63b8ff" stroke="#63b8ff" points="603.27,-86.4 605.24,-75.99 597.2,-82.9 603.27,-86.4"/>
</a>
</g>
</g>
<!-- Node13 -->
<g id="Node000013" class="node">
<title>Node13</title>
<g id="a_Node000013"><a xlink:title=" ">
<polygon fill="#e0e0e0" stroke="#999999" points="690.12,-74.5 653.12,-74.5 653.12,-55.25 690.12,-55.25 690.12,-74.5"/>
<text text-anchor="middle" x="671.62" y="-61" font-family="Helvetica,sans-Serif" font-size="10.00">tuple</text>
</a>
</g>
</g>
<!-- Node1&#45;&gt;Node13 -->
<g id="edge18_Node000001_Node000013" class="edge">
<title>Node1&#45;&gt;Node13</title>
<g id="a_edge18_Node000001_Node000013"><a xlink:title=" ">
<path fill="none" stroke="#63b8ff" d="M508.94,-165.27C530.72,-157.25 562.1,-144.57 587.62,-129.75 611.6,-115.83 636.58,-96.05 653,-82.2"/>
<polygon fill="#63b8ff" stroke="#63b8ff" points="655.14,-84.97 660.46,-75.81 650.59,-79.66 655.14,-84.97"/>
</a>
</g>
</g>
<!-- Node14 -->
<g id="Node000014" class="node">
<title>Node14</title>
<g id="a_Node000014"><a xlink:title=" ">
<polygon fill="#e0e0e0" stroke="#999999" points="711.12,-129.75 650.12,-129.75 650.12,-110.5 711.12,-110.5 711.12,-129.75"/>
<text text-anchor="middle" x="680.62" y="-116.25" font-family="Helvetica,sans-Serif" font-size="10.00">type_traits</text>
</a>
</g>
</g>
<!-- Node1&#45;&gt;Node14 -->
<g id="edge19_Node000001_Node000014" class="edge">
<title>Node1&#45;&gt;Node14</title>
<g id="a_edge19_Node000001_Node000014"><a xlink:title=" ">
<path fill="none" stroke="#63b8ff" d="M516.21,-165.34C550.11,-156.23 602.52,-142.13 639.03,-132.31"/>
<polygon fill="#63b8ff" stroke="#63b8ff" points="639.6,-135.78 648.35,-129.81 637.78,-129.02 639.6,-135.78"/>
</a>
</g>
</g>
<!-- Node3 -->
<g id="Node000003" class="node">
<title>Node3</title>
<g id="a_Node000003"><a xlink:href="../../d8/dd2/_config_8hpp.html" target="_top" xlink:title=" ">
<polygon fill="white" stroke="#666666" points="144.75,-74.5 42.5,-74.5 42.5,-55.25 144.75,-55.25 144.75,-74.5"/>
<text text-anchor="middle" x="93.62" y="-61" font-family="Helvetica,sans-Serif" font-size="10.00">mimic++/Config.hpp</text>
</a>
</g>
</g>
<!-- Node2&#45;&gt;Node3 -->
<g id="edge2_Node000002_Node000003" class="edge">
<title>Node2&#45;&gt;Node3</title>
<g id="a_edge2_Node000002_Node000003"><a xlink:title=" ">
<path fill="none" stroke="#63b8ff" d="M190.78,-110.09C172.46,-101.75 144.98,-89.25 123.92,-79.66"/>
<polygon fill="#63b8ff" stroke="#63b8ff" points="125.5,-76.54 114.95,-75.58 122.6,-82.91 125.5,-76.54"/>
</a>
</g>
</g>
<!-- Node6 -->
<g id="Node000006" class="node">
<title>Node6</title>
<g id="a_Node000006"><a xlink:title=" ">
<polygon fill="#e0e0e0" stroke="#999999" points="202.62,-74.5 162.62,-74.5 162.62,-55.25 202.62,-55.25 202.62,-74.5"/>
<text text-anchor="middle" x="182.62" y="-61" font-family="Helvetica,sans-Serif" font-size="10.00">string</text>
</a>
</g>
</g>
<!-- Node2&#45;&gt;Node6 -->
<g id="edge5_Node000002_Node000006" class="edge">
<title>Node2&#45;&gt;Node6</title>
<g id="a_edge5_Node000002_Node000006"><a xlink:title=" ">
<path fill="none" stroke="#63b8ff" d="M206,-110.33C202.38,-103.44 197.2,-93.59 192.63,-84.91"/>
<polygon fill="#63b8ff" stroke="#63b8ff" points="195.81,-83.42 188.05,-76.2 189.61,-86.68 195.81,-83.42"/>
</a>
</g>
</g>
<!-- Node7 -->
<g id="Node000007" class="node">
<title>Node7</title>
<g id="a_Node000007"><a xlink:title=" ">
<polygon fill="#e0e0e0" stroke="#999999" points="286.38,-74.5 220.88,-74.5 220.88,-55.25 286.38,-55.25 286.38,-74.5"/>
<text text-anchor="middle" x="253.62" y="-61" font-family="Helvetica,sans-Serif" font-size="10.00">string_view</text>
</a>
</g>
</g>
<!-- Node2&#45;&gt;Node7 -->
<g id="edge6_Node000002_Node000007" class="edge">
<title>Node2&#45;&gt;Node7</title>
<g id="a_edge6_Node000002_Node000007"><a xlink:title=" ">
<path fill="none" stroke="#63b8ff" d="M217.73,-110.33C223.54,-103.13 231.96,-92.71 239.18,-83.76"/>
<polygon fill="#63b8ff" stroke="#63b8ff" points="241.86,-86.02 245.42,-76.04 236.41,-81.62 241.86,-86.02"/>
</a>
</g>
</g>
<!-- Node3&#45;&gt;Node4 -->
<g id="edge3_Node000003_Node000004" class="edge">
<title>Node3&#45;&gt;Node4</title>
<g id="a_edge3_Node000003_Node000004"><a xlink:title=" ">
<path fill="none" stroke="#63b8ff" d="M81.58,-54.84C71.22,-47.07 56.02,-35.67 43.66,-26.4"/>
<polygon fill="#63b8ff" stroke="#63b8ff" points="45.8,-23.63 35.7,-20.43 41.6,-29.23 45.8,-23.63"/>
</a>
</g>
</g>
<!-- Node5 -->
<g id="Node000005" class="node">
<title>Node5</title>
<g id="a_Node000005"><a xlink:title=" ">
<polygon fill="#e0e0e0" stroke="#999999" points="117.38,-19.25 69.88,-19.25 69.88,0 117.38,0 117.38,-19.25"/>
<text text-anchor="middle" x="93.62" y="-5.75" font-family="Helvetica,sans-Serif" font-size="10.00">version</text>
</a>
</g>
</g>
<!-- Node3&#45;&gt;Node5 -->
<g id="edge4_Node000003_Node000005" class="edge">
<title>Node3&#45;&gt;Node5</title>
<g id="a_edge4_Node000003_Node000005"><a xlink:title=" ">
<path fill="none" stroke="#63b8ff" d="M93.62,-55.08C93.62,-48.57 93.62,-39.42 93.62,-31.12"/>
<polygon fill="#63b8ff" stroke="#63b8ff" points="97.13,-31.12 93.63,-21.12 90.13,-31.12 97.13,-31.12"/>
</a>
</g>
</g>
<!-- Node9 -->
<g id="Node000009" class="node">
<title>Node9</title>
<g id="a_Node000009"><a xlink:href="../../d9/db9/_concepts_8hpp.html" target="_top" xlink:title=" ">
<polygon fill="white" stroke="#666666" points="530.75,-74.5 380.5,-74.5 380.5,-55.25 530.75,-55.25 530.75,-74.5"/>
<text text-anchor="middle" x="455.62" y="-61" font-family="Helvetica,sans-Serif" font-size="10.00">mimic++/utilities/Concepts.hpp</text>
</a>
</g>
</g>
<!-- Node8&#45;&gt;Node9 -->
<g id="edge8_Node000008_Node000009" class="edge">
<title>Node8&#45;&gt;Node9</title>
<g id="a_edge8_Node000008_Node000009"><a xlink:title=" ">
<path fill="none" stroke="#63b8ff" d="M478.17,-110.33C474.67,-103.44 469.68,-93.59 465.28,-84.91"/>
<polygon fill="#63b8ff" stroke="#63b8ff" points="468.51,-83.55 460.86,-76.21 462.27,-86.71 468.51,-83.55"/>
</a>
</g>
</g>
<!-- Node8&#45;&gt;Node10 -->
<g id="edge11_Node000008_Node000010" class="edge">
<title>Node8&#45;&gt;Node10</title>
<g id="a_edge11_Node000008_Node000010"><a xlink:title=" ">
<path fill="none" stroke="#63b8ff" d="M435.3,-110.08C413.21,-103.61 388.2,-92.69 371.62,-74.5 360.77,-62.58 356.1,-44.71 354.1,-30.9"/>
<polygon fill="#63b8ff" stroke="#63b8ff" points="357.6,-30.73 353.07,-21.15 350.64,-31.47 357.6,-30.73"/>
</a>
</g>
</g>
<!-- Node11 -->
<g id="Node000011" class="node">
<title>Node11</title>
<g id="a_Node000011"><a xlink:title=" ">
<polygon fill="#e0e0e0" stroke="#999999" points="525.88,-19.25 487.38,-19.25 487.38,0 525.88,0 525.88,-19.25"/>
<text text-anchor="middle" x="506.62" y="-5.75" font-family="Helvetica,sans-Serif" font-size="10.00">utility</text>
</a>
</g>
</g>
<!-- Node8&#45;&gt;Node11 -->
<g id="edge14_Node000008_Node000011" class="edge">
<title>Node8&#45;&gt;Node11</title>
<g id="a_edge14_Node000008_Node000011"><a xlink:title=" ">
<path fill="none" stroke="#63b8ff" d="M501.82,-110C515.13,-102.52 531.81,-90.54 539.62,-74.5 547.44,-58.45 536.23,-40.4 524.81,-27.59"/>
<polygon fill="#63b8ff" stroke="#63b8ff" points="527.63,-25.48 518.15,-20.74 522.61,-30.35 527.63,-25.48"/>
</a>
</g>
</g>
<!-- Node8&#45;&gt;Node12 -->
<g id="edge12_Node000008_Node000012" class="edge">
<title>Node8&#45;&gt;Node12</title>
<g id="a_edge12_Node000008_Node000012"><a xlink:title=" ">
<path fill="none" stroke="#63b8ff" d="M504.34,-110.09C524.66,-101.64 555.27,-88.9 578.43,-79.27"/>
<polygon fill="#63b8ff" stroke="#63b8ff" points="579.52,-82.61 587.41,-75.53 576.83,-76.14 579.52,-82.61"/>
</a>
</g>
</g>
<!-- Node8&#45;&gt;Node13 -->
<g id="edge13_Node000008_Node000013" class="edge">
<title>Node8&#45;&gt;Node13</title>
<g id="a_edge13_Node000008_Node000013"><a xlink:title=" ">
<path fill="none" stroke="#63b8ff" d="M516.63,-110C547.04,-101.78 593.08,-89.16 641.89,-74.95"/>
<polygon fill="#63b8ff" stroke="#63b8ff" points="642.6,-78.38 651.22,-72.22 640.64,-71.67 642.6,-78.38"/>
</a>
</g>
</g>
<!-- Node9&#45;&gt;Node10 -->
<g id="edge9_Node000009_Node000010" class="edge">
<title>Node9&#45;&gt;Node10</title>
<g id="a_edge9_Node000009_Node000010"><a xlink:title=" ">
<path fill="none" stroke="#63b8ff" d="M438.15,-54.84C422.32,-46.66 398.72,-34.46 380.32,-24.94"/>
<polygon fill="#63b8ff" stroke="#63b8ff" points="382.02,-21.88 371.53,-20.4 378.8,-28.1 382.02,-21.88"/>
</a>
</g>
</g>
<!-- Node9&#45;&gt;Node11 -->
<g id="edge10_Node000009_Node000011" class="edge">
<title>Node9&#45;&gt;Node11</title>
<g id="a_edge10_Node000009_Node000011"><a xlink:title=" ">
<path fill="none" stroke="#63b8ff" d="M464.05,-55.08C471.16,-47.65 481.57,-36.79 490.31,-27.66"/>
<polygon fill="#63b8ff" stroke="#63b8ff" points="492.58,-30.35 496.97,-20.7 487.53,-25.5 492.58,-30.35"/>
</a>
</g>
</g>
</g>
</svg>
