<?xml version="1.0" encoding="UTF-8" standalone="no"?>
<!DOCTYPE svg PUBLIC "-//W3C//DTD SVG 1.1//EN"
 "http://www.w3.org/Graphics/SVG/1.1/DTD/svg11.dtd">
<!-- Generated by graphviz version 12.1.2 (20240928.0832)
 -->
<!-- Title: mimicpp::Mock&lt; FirstSignature, OtherSignatures &gt; Pages: 1 -->
<svg width="814pt" height="88pt"
 viewBox="0.00 0.00 814.00 87.50" xmlns="http://www.w3.org/2000/svg" xmlns:xlink="http://www.w3.org/1999/xlink">
<g id="graph0" class="graph" transform="scale(1 1) rotate(0) translate(4 83.5)">
<title>mimicpp::Mock&lt; FirstSignature, OtherSignatures &gt;</title>
<!-- Node1 -->
<g id="Node000001" class="node">
<title>Node1</title>
<g id="a_Node000001"><a xlink:title="A Mock type, which fully supports overload sets.">
<polygon fill="#999999" stroke="#666666" points="610,-57.5 456.75,-57.5 456.75,-27 610,-27 610,-57.5"/>
<text text-anchor="start" x="464.75" y="-44" font-family="Helvetica,sans-Serif" font-size="10.00">mimicpp::Mock&lt; FirstSignature,</text>
<text text-anchor="middle" x="533.38" y="-32.75" font-family="Helvetica,sans-Serif" font-size="10.00"> OtherSignatures &gt;</text>
</a>
</g>
</g>
<!-- Node5 -->
<g id="Node000005" class="node">
<title>Node5</title>
<g id="a_Node000005"><a xlink:href="../../d2/d48/classmimicpp_1_1_mock.html" target="_top" xlink:title=" ">
<polygon fill="white" stroke="#666666" points="806,-51.88 686.5,-51.88 686.5,-32.62 806,-32.62 806,-51.88"/>
<text text-anchor="middle" x="746.25" y="-38.38" font-family="Helvetica,sans-Serif" font-size="10.00">mimicpp::Mock&lt; void()&gt;</text>
</a>
</g>
</g>
<!-- Node1&#45;&gt;Node5 -->
<g id="edge5_Node000001_Node000005" class="edge">
<title>Node1&#45;&gt;Node5</title>
<g id="a_edge5_Node000001_Node000005"><a xlink:title=" ">
<path fill="none" stroke="orange" stroke-dasharray="5,2" d="M621.49,-42.25C643.31,-42.25 666.2,-42.25 686.28,-42.25"/>
<polygon fill="orange" stroke="orange" points="621.72,-38.75 611.72,-42.25 621.72,-45.75 621.72,-38.75"/>
</a>
</g>
<text text-anchor="middle" x="648.25" y="-44" font-family="Helvetica,sans-Serif" font-size="10.00" fill="grey"> &lt; void()&gt;</text>
</g>
<!-- Node2 -->
<g id="Node000002" class="node">
<title>Node2</title>
<g id="a_Node000002"><a xlink:title=" ">
<polygon fill="white" stroke="#666666" points="419.75,-79.5 272.5,-79.5 272.5,-49 419.75,-49 419.75,-79.5"/>
<text text-anchor="start" x="280.5" y="-66" font-family="Helvetica,sans-Serif" font-size="10.00">mimicpp::detail::MockFrontend</text>
<text text-anchor="middle" x="346.12" y="-54.75" font-family="Helvetica,sans-Serif" font-size="10.00">&lt; FirstSignature &gt;</text>
</a>
</g>
</g>
<!-- Node2&#45;&gt;Node1 -->
<g id="edge1_Node000001_Node000002" class="edge">
<title>Node2&#45;&gt;Node1</title>
<g id="a_edge1_Node000001_Node000002"><a xlink:title=" ">
<path fill="none" stroke="#63b8ff" d="M431.38,-54.24C439.74,-53.25 448.18,-52.25 456.45,-51.27"/>
<polygon fill="#63b8ff" stroke="#63b8ff" points="431.1,-50.75 421.58,-55.41 431.92,-57.7 431.1,-50.75"/>
</a>
</g>
</g>
<!-- Node3 -->
<g id="Node000003" class="node">
<title>Node3</title>
<g id="a_Node000003"><a xlink:title=" ">
<polygon fill="white" stroke="#666666" points="147.25,-54.5 0,-54.5 0,-24 147.25,-24 147.25,-54.5"/>
<text text-anchor="start" x="8" y="-41" font-family="Helvetica,sans-Serif" font-size="10.00">mimicpp::detail::MockFrontend</text>
<text text-anchor="middle" x="73.62" y="-29.75" font-family="Helvetica,sans-Serif" font-size="10.00">&lt; Signature &gt;</text>
</a>
</g>
</g>
<!-- Node3&#45;&gt;Node2 -->
<g id="edge2_Node000002_Node000003" class="edge">
<title>Node3&#45;&gt;Node2</title>
<g id="a_edge2_Node000002_Node000003"><a xlink:title=" ">
<path fill="none" stroke="orange" stroke-dasharray="5,2" d="M158.56,-47.01C194.92,-50.37 237.11,-54.27 272.15,-57.51"/>
<polygon fill="orange" stroke="orange" points="159.26,-43.56 148.98,-46.12 158.61,-50.53 159.26,-43.56"/>
</a>
</g>
<text text-anchor="middle" x="209.88" y="-57.2" font-family="Helvetica,sans-Serif" font-size="10.00" fill="grey"> &lt; FirstSignature &gt;</text>
</g>
<!-- Node4 -->
<g id="Node000004" class="node">
<title>Node4</title>
<g id="a_Node000004"><a xlink:title=" ">
<polygon fill="white" stroke="#666666" points="419.75,-30.5 272.5,-30.5 272.5,0 419.75,0 419.75,-30.5"/>
<text text-anchor="start" x="280.5" y="-17" font-family="Helvetica,sans-Serif" font-size="10.00">mimicpp::detail::MockFrontend</text>
<text text-anchor="middle" x="346.12" y="-5.75" font-family="Helvetica,sans-Serif" font-size="10.00">&lt; OtherSignatures &gt;</text>
</a>
</g>
</g>
<!-- Node3&#45;&gt;Node4 -->
<g id="edge4_Node000004_Node000003" class="edge">
<title>Node3&#45;&gt;Node4</title>
<g id="a_edge4_Node000004_Node000003"><a xlink:title=" ">
<path fill="none" stroke="orange" stroke-dasharray="5,2" d="M158.6,-27.69C160.84,-27.45 163.06,-27.22 165.25,-27 200.44,-23.48 239.61,-20.77 272.39,-18.85"/>
<polygon fill="orange" stroke="orange" points="158.33,-24.2 148.79,-28.81 159.12,-31.16 158.33,-24.2"/>
</a>
</g>
<text text-anchor="middle" x="209.88" y="-28.75" font-family="Helvetica,sans-Serif" font-size="10.00" fill="grey"> &lt; OtherSignatures &gt;</text>
</g>
<!-- Node4&#45;&gt;Node1 -->
<g id="edge3_Node000001_Node000004" class="edge">
<title>Node4&#45;&gt;Node1</title>
<g id="a_edge3_Node000001_Node000004"><a xlink:title=" ">
<path fill="none" stroke="#63b8ff" d="M431.38,-27.53C439.74,-28.75 448.18,-29.98 456.45,-31.18"/>
<polygon fill="#63b8ff" stroke="#63b8ff" points="431.97,-24.08 421.57,-26.1 430.96,-31.01 431.97,-24.08"/>
</a>
</g>
</g>
</g>
</svg>
