<?xml version="1.0" encoding="UTF-8" standalone="no"?>
<!DOCTYPE svg PUBLIC "-//W3C//DTD SVG 1.1//EN"
 "http://www.w3.org/Graphics/SVG/1.1/DTD/svg11.dtd">
<!-- Generated by graphviz version 12.2.1 (20241206.2353)
 -->
<!-- Title: mimic++/policies/ArgRequirementPolicies.hpp Pages: 1 -->
<!--zoomable 492 -->

<svg id="main" version="1.1" xmlns="http://www.w3.org/2000/svg" xmlns:xlink="http://www.w3.org/1999/xlink" xml:space="preserve" onload="init(evt)">

<style type="text/css"><![CDATA[
.node, .edge {opacity: 0.7;}
.node.selected, .edge.selected {opacity: 1;}
.edge:hover path { stroke: red; }
.edge:hover polygon { stroke: red; fill: red; }
]]></style>

<defs>
  <circle id="rim" cx="0" cy="0" r="7"/>
  <circle id="rim2" cx="0" cy="0" r="3.5"/>
  <g id="zoomPlus">
    <use xlink:href="#rim" fill="#404040"><set attributeName="fill" to="#808080" begin="zoomplus.mouseover" end="zoomplus.mouseout"/></use>
    <path d="M-4,0h8M0,-4v8" fill="none" stroke="white" stroke-width="1.5" pointer-events="none"/>
  </g>
  <g id="zoomMin">
    <use xlink:href="#rim" fill="#404040"><set attributeName="fill" to="#808080" begin="zoomminus.mouseover" end="zoomminus.mouseout"/></use>
    <path d="M-4,0h8" fill="none" stroke="white" stroke-width="1.5" pointer-events="none"/>
  </g>
  <g id="arrowUp" transform="translate(30 24)">
    <use xlink:href="#rim"/>
    <path pointer-events="none" fill="none" stroke="white" stroke-width="1.5" d="M0,-3.0v7 M-2.5,-0.5L0,-3.0L2.5,-0.5"/>
  </g>
  <g id="arrowRight" transform="rotate(90) translate(36 -43)">
    <use xlink:href="#rim"/>
    <path pointer-events="none" fill="none" stroke="white" stroke-width="1.5" d="M0,-3.0v7 M-2.5,-0.5L0,-3.0L2.5,-0.5"/>
  </g>
  <g id="arrowDown" transform="rotate(180) translate(-30 -48)">
    <use xlink:href="#rim"/>
    <path pointer-events="none" fill="none" stroke="white" stroke-width="1.5" d="M0,-3.0v7 M-2.5,-0.5L0,-3.0L2.5,-0.5"/>
  </g>
  <g id="arrowLeft" transform="rotate(270) translate(-36 17)">
    <use xlink:href="#rim"/>
    <path pointer-events="none" fill="none" stroke="white" stroke-width="1.5" d="M0,-3.0v7 M-2.5,-0.5L0,-3.0L2.5,-0.5"/>
  </g>
  <g id="resetDef">
    <use xlink:href="#rim2" fill="#404040"><set attributeName="fill" to="#808080" begin="reset.mouseover" end="reset.mouseout"/></use>
  </g>
</defs>
<script type="application/ecmascript">
var viewWidth = 1752;
var viewHeight = 492;
var sectionId = 'dynsection-0';
</script>
<script type="application/ecmascript" xlink:href="../../svg.min.js"/>
<svg id="graph" class="graph">
<g id="viewport">
<title>mimic++/policies/ArgRequirementPolicies.hpp</title>
<!-- Node1 -->
<g id="Node000001" class="node">
<title>Node1</title>
<g id="a_Node000001"><a xlink:title=" ">
<polygon fill="#999999" stroke="#666666" points="1115.5,-483.75 952.5,-483.75 952.5,-453.25 1115.5,-453.25 1115.5,-483.75"/>
<text text-anchor="start" x="960.5" y="-470.25" font-family="Helvetica,sans-Serif" font-size="10.00">mimic++/policies/ArgRequirement</text>
<text text-anchor="middle" x="1034" y="-459" font-family="Helvetica,sans-Serif" font-size="10.00">Policies.hpp</text>
</a>
</g>
</g>
<!-- Node2 -->
<g id="Node000002" class="node">
<title>Node2</title>
<g id="a_Node000002"><a xlink:href="../../d3/d58/_common_8hpp.html" target="_top" xlink:title=" ">
<polygon fill="white" stroke="#666666" points="610.88,-295.5 453.12,-295.5 453.12,-276.25 610.88,-276.25 610.88,-295.5"/>
<text text-anchor="middle" x="532" y="-282" font-family="Helvetica,sans-Serif" font-size="10.00">mimic++/matchers/Common.hpp</text>
</a>
</g>
</g>
<!-- Node1&#45;&gt;Node2 -->
<g id="edge1_Node000001_Node000002" class="edge">
<title>Node1&#45;&gt;Node2</title>
<g id="a_edge1_Node000001_Node000002"><a xlink:title=" ">
<path fill="none" stroke="#63b8ff" d="M993.34,-452.87C897.54,-418.4 658.86,-332.52 567.94,-299.81"/>
<polygon fill="#63b8ff" stroke="#63b8ff" points="569.13,-296.52 558.54,-296.42 566.76,-303.1 569.13,-296.52"/>
</a>
</g>
</g>
<!-- Node13 -->
<g id="Node000013" class="node">
<title>Node13</title>
<g id="a_Node000013"><a xlink:title=" ">
<polygon fill="#e0e0e0" stroke="#999999" points="1534.5,-74.5 1497.5,-74.5 1497.5,-55.25 1534.5,-55.25 1534.5,-74.5"/>
<text text-anchor="middle" x="1516" y="-61" font-family="Helvetica,sans-Serif" font-size="10.00">tuple</text>
</a>
</g>
</g>
<!-- Node1&#45;&gt;Node13 -->
<g id="edge72_Node000001_Node000013" class="edge">
<title>Node1&#45;&gt;Node13</title>
<g id="a_edge72_Node000001_Node000013"><a xlink:title=" ">
<path fill="none" stroke="#63b8ff" d="M1115.73,-462.48C1216.64,-453.12 1390.55,-426.45 1518,-350.75 1591.23,-307.25 1576.36,-250.51 1568,-165.75 1565.54,-140.83 1568.33,-132.82 1557,-110.5 1551.74,-100.14 1543.39,-90.41 1535.59,-82.7"/>
<polygon fill="#63b8ff" stroke="#63b8ff" points="1538.04,-80.2 1528.33,-75.96 1533.27,-85.33 1538.04,-80.2"/>
</a>
</g>
</g>
<!-- Node14 -->
<g id="Node000014" class="node">
<title>Node14</title>
<g id="a_Node000014"><a xlink:title=" ">
<polygon fill="#e0e0e0" stroke="#999999" points="1668.25,-74.5 1629.75,-74.5 1629.75,-55.25 1668.25,-55.25 1668.25,-74.5"/>
<text text-anchor="middle" x="1649" y="-61" font-family="Helvetica,sans-Serif" font-size="10.00">utility</text>
</a>
</g>
</g>
<!-- Node1&#45;&gt;Node14 -->
<g id="edge74_Node000001_Node000014" class="edge">
<title>Node1&#45;&gt;Node14</title>
<g id="a_edge74_Node000001_Node000014"><a xlink:title=" ">
<path fill="none" stroke="#63b8ff" d="M1115.79,-461.53C1302.49,-446.8 1744,-405.3 1744,-342.12 1744,-342.12 1744,-342.12 1744,-174.38 1744,-132.45 1703.36,-98.96 1675.24,-80.79"/>
<polygon fill="#63b8ff" stroke="#63b8ff" points="1677.18,-77.88 1666.84,-75.61 1673.51,-83.84 1677.18,-77.88"/>
</a>
</g>
</g>
<!-- Node15 -->
<g id="Node000015" class="node">
<title>Node15</title>
<g id="a_Node000015"><a xlink:title=" ">
<polygon fill="#e0e0e0" stroke="#999999" points="103.88,-129.75 48.12,-129.75 48.12,-110.5 103.88,-110.5 103.88,-129.75"/>
<text text-anchor="middle" x="76" y="-116.25" font-family="Helvetica,sans-Serif" font-size="10.00">concepts</text>
</a>
</g>
</g>
<!-- Node1&#45;&gt;Node15 -->
<g id="edge70_Node000001_Node000015" class="edge">
<title>Node1&#45;&gt;Node15</title>
<g id="a_edge70_Node000001_Node000015"><a xlink:title=" ">
<path fill="none" stroke="#63b8ff" d="M952.01,-465.94C769.14,-461.93 332.72,-449.22 189,-417.25 100.76,-397.62 0,-432.52 0,-342.12 0,-342.12 0,-342.12 0,-229.62 0,-191.02 32.68,-156.39 55.18,-137.12"/>
<polygon fill="#63b8ff" stroke="#63b8ff" points="57.11,-140.07 62.62,-131.02 52.67,-134.66 57.11,-140.07"/>
</a>
</g>
</g>
<!-- Node16 -->
<g id="Node000016" class="node">
<title>Node16</title>
<g id="a_Node000016"><a xlink:title=" ">
<polygon fill="#e0e0e0" stroke="#999999" points="219,-129.75 161,-129.75 161,-110.5 219,-110.5 219,-129.75"/>
<text text-anchor="middle" x="190" y="-116.25" font-family="Helvetica,sans-Serif" font-size="10.00">functional</text>
</a>
</g>
</g>
<!-- Node1&#45;&gt;Node16 -->
<g id="edge71_Node000001_Node000016" class="edge">
<title>Node1&#45;&gt;Node16</title>
<g id="a_edge71_Node000001_Node000016"><a xlink:title=" ">
<path fill="none" stroke="#63b8ff" d="M952.36,-464.89C727.2,-456.62 114,-426.35 114,-342.12 114,-342.12 114,-342.12 114,-229.62 114,-191.02 146.68,-156.39 169.18,-137.12"/>
<polygon fill="#63b8ff" stroke="#63b8ff" points="171.11,-140.07 176.62,-131.02 166.67,-134.66 171.11,-140.07"/>
</a>
</g>
</g>
<!-- Node18 -->
<g id="Node000018" class="node">
<title>Node18</title>
<g id="a_Node000018"><a xlink:title=" ">
<polygon fill="#e0e0e0" stroke="#999999" points="1371.5,-129.75 1310.5,-129.75 1310.5,-110.5 1371.5,-110.5 1371.5,-129.75"/>
<text text-anchor="middle" x="1341" y="-116.25" font-family="Helvetica,sans-Serif" font-size="10.00">type_traits</text>
</a>
</g>
</g>
<!-- Node1&#45;&gt;Node18 -->
<g id="edge73_Node000001_Node000018" class="edge">
<title>Node1&#45;&gt;Node18</title>
<g id="a_edge73_Node000001_Node000018"><a xlink:title=" ">
<path fill="none" stroke="#63b8ff" d="M1082.35,-452.78C1162.04,-425.58 1318.56,-359.11 1383,-240.25 1401.37,-206.36 1374.71,-162.85 1356.2,-138.9"/>
<polygon fill="#63b8ff" stroke="#63b8ff" points="1359.12,-136.94 1350.1,-131.37 1353.68,-141.35 1359.12,-136.94"/>
</a>
</g>
</g>
<!-- Node26 -->
<g id="Node000026" class="node">
<title>Node26</title>
<g id="a_Node000026"><a xlink:href="../../d2/dfd/_argument_list_8hpp.html" target="_top" xlink:title=" ">
<polygon fill="white" stroke="#666666" points="1101.62,-417.25 966.38,-417.25 966.38,-386.75 1101.62,-386.75 1101.62,-417.25"/>
<text text-anchor="start" x="974.38" y="-403.75" font-family="Helvetica,sans-Serif" font-size="10.00">mimic++/policies/Argument</text>
<text text-anchor="middle" x="1034" y="-392.5" font-family="Helvetica,sans-Serif" font-size="10.00">List.hpp</text>
</a>
</g>
</g>
<!-- Node1&#45;&gt;Node26 -->
<g id="edge46_Node000001_Node000026" class="edge">
<title>Node1&#45;&gt;Node26</title>
<g id="a_edge46_Node000001_Node000026"><a xlink:title=" ">
<path fill="none" stroke="#63b8ff" d="M1034,-452.86C1034,-445.77 1034,-437.04 1034,-428.88"/>
<polygon fill="#63b8ff" stroke="#63b8ff" points="1037.5,-429.09 1034,-419.09 1030.5,-429.09 1037.5,-429.09"/>
</a>
</g>
</g>
<!-- Node3 -->
<g id="Node000003" class="node">
<title>Node3</title>
<g id="a_Node000003"><a xlink:href="../../df/dde/_fwd_8hpp.html" target="_top" xlink:title=" ">
<polygon fill="white" stroke="#666666" points="885,-74.5 791,-74.5 791,-55.25 885,-55.25 885,-74.5"/>
<text text-anchor="middle" x="838" y="-61" font-family="Helvetica,sans-Serif" font-size="10.00">mimic++/Fwd.hpp</text>
</a>
</g>
</g>
<!-- Node2&#45;&gt;Node3 -->
<g id="edge2_Node000002_Node000003" class="edge">
<title>Node2&#45;&gt;Node3</title>
<g id="a_edge2_Node000002_Node000003"><a xlink:title=" ">
<path fill="none" stroke="#63b8ff" d="M492.04,-275.81C431.57,-260.02 327.24,-223.55 361,-165.75 386.22,-122.58 411.46,-126 459,-110.5 568.34,-74.84 703.66,-67.02 779.45,-65.68"/>
<polygon fill="#63b8ff" stroke="#63b8ff" points="779.18,-69.19 789.13,-65.55 779.08,-62.19 779.18,-69.19"/>
</a>
</g>
</g>
<!-- Node7 -->
<g id="Node000007" class="node">
<title>Node7</title>
<g id="a_Node000007"><a xlink:href="../../da/dab/_printer_8hpp.html" target="_top" xlink:title=" ">
<polygon fill="white" stroke="#666666" points="773.88,-240.25 670.12,-240.25 670.12,-221 773.88,-221 773.88,-240.25"/>
<text text-anchor="middle" x="722" y="-226.75" font-family="Helvetica,sans-Serif" font-size="10.00">mimic++/Printer.hpp</text>
</a>
</g>
</g>
<!-- Node2&#45;&gt;Node7 -->
<g id="edge6_Node000002_Node000007" class="edge">
<title>Node2&#45;&gt;Node7</title>
<g id="a_edge6_Node000002_Node000007"><a xlink:title=" ">
<path fill="none" stroke="#63b8ff" d="M564.23,-275.84C595.76,-267.01 643.98,-253.49 678.81,-243.73"/>
<polygon fill="#63b8ff" stroke="#63b8ff" points="679.47,-247.18 688.15,-241.11 677.58,-240.44 679.47,-247.18"/>
</a>
</g>
</g>
<!-- Node9 -->
<g id="Node000009" class="node">
<title>Node9</title>
<g id="a_Node000009"><a xlink:href="../../d4/d2c/_utility_8hpp.html" target="_top" xlink:title=" ">
<polygon fill="white" stroke="#666666" points="1010,-129.75 910,-129.75 910,-110.5 1010,-110.5 1010,-129.75"/>
<text text-anchor="middle" x="960" y="-116.25" font-family="Helvetica,sans-Serif" font-size="10.00">mimic++/Utility.hpp</text>
</a>
</g>
</g>
<!-- Node2&#45;&gt;Node9 -->
<g id="edge43_Node000002_Node000009" class="edge">
<title>Node2&#45;&gt;Node9</title>
<g id="a_edge43_Node000002_Node000009"><a xlink:title=" ">
<path fill="none" stroke="#63b8ff" d="M611.13,-277.47C661.4,-271.15 727.26,-259.86 783,-240.25 831.27,-223.27 841.76,-213.88 884,-185 905.21,-170.5 927.49,-151.23 942.4,-137.66"/>
<polygon fill="#63b8ff" stroke="#63b8ff" points="944.57,-140.42 949.54,-131.07 939.82,-135.28 944.57,-140.42"/>
</a>
</g>
</g>
<!-- Node2&#45;&gt;Node15 -->
<g id="edge44_Node000002_Node000015" class="edge">
<title>Node2&#45;&gt;Node15</title>
<g id="a_edge44_Node000002_Node000015"><a xlink:title=" ">
<path fill="none" stroke="#63b8ff" d="M453.01,-281.66C362.98,-276.84 222.3,-265.46 176,-240.25 133.06,-216.87 100.84,-166.98 85.65,-139.77"/>
<polygon fill="#63b8ff" stroke="#63b8ff" points="88.9,-138.42 81.08,-131.27 82.74,-141.74 88.9,-138.42"/>
</a>
</g>
</g>
<!-- Node2&#45;&gt;Node18 -->
<g id="edge45_Node000002_Node000018" class="edge">
<title>Node2&#45;&gt;Node18</title>
<g id="a_edge45_Node000002_Node000018"><a xlink:title=" ">
<path fill="none" stroke="#63b8ff" d="M605.66,-275.78C784.28,-253.58 1228.05,-197.53 1258,-185 1284.08,-174.09 1309.1,-152.87 1324.72,-137.89"/>
<polygon fill="#63b8ff" stroke="#63b8ff" points="1327.06,-140.5 1331.7,-130.98 1322.13,-135.53 1327.06,-140.5"/>
</a>
</g>
</g>
<!-- Node4 -->
<g id="Node000004" class="node">
<title>Node4</title>
<g id="a_Node000004"><a xlink:title=" ">
<polygon fill="#e0e0e0" stroke="#999999" points="454,-19.25 414,-19.25 414,0 454,0 454,-19.25"/>
<text text-anchor="middle" x="434" y="-5.75" font-family="Helvetica,sans-Serif" font-size="10.00">string</text>
</a>
</g>
</g>
<!-- Node3&#45;&gt;Node4 -->
<g id="edge3_Node000003_Node000004" class="edge">
<title>Node3&#45;&gt;Node4</title>
<g id="a_edge3_Node000003_Node000004"><a xlink:title=" ">
<path fill="none" stroke="#63b8ff" d="M790.87,-57.66C707.44,-46.67 535.93,-24.06 465.38,-14.76"/>
<polygon fill="#63b8ff" stroke="#63b8ff" points="466.05,-11.32 455.68,-13.48 465.14,-18.26 466.05,-11.32"/>
</a>
</g>
</g>
<!-- Node5 -->
<g id="Node000005" class="node">
<title>Node5</title>
<g id="a_Node000005"><a xlink:title=" ">
<polygon fill="#e0e0e0" stroke="#999999" points="374.75,-19.25 309.25,-19.25 309.25,0 374.75,0 374.75,-19.25"/>
<text text-anchor="middle" x="342" y="-5.75" font-family="Helvetica,sans-Serif" font-size="10.00">string_view</text>
</a>
</g>
</g>
<!-- Node3&#45;&gt;Node5 -->
<g id="edge4_Node000003_Node000005" class="edge">
<title>Node3&#45;&gt;Node5</title>
<g id="a_edge4_Node000003_Node000005"><a xlink:title=" ">
<path fill="none" stroke="#63b8ff" d="M790.53,-59.51C710.79,-52.05 544.94,-36.04 405,-19.25 398.9,-18.52 392.48,-17.7 386.16,-16.86"/>
<polygon fill="#63b8ff" stroke="#63b8ff" points="386.88,-13.43 376.5,-15.56 385.94,-20.36 386.88,-13.43"/>
</a>
</g>
</g>
<!-- Node6 -->
<g id="Node000006" class="node">
<title>Node6</title>
<g id="a_Node000006"><a xlink:title=" ">
<polygon fill="#e0e0e0" stroke="#999999" points="861.75,-19.25 814.25,-19.25 814.25,0 861.75,0 861.75,-19.25"/>
<text text-anchor="middle" x="838" y="-5.75" font-family="Helvetica,sans-Serif" font-size="10.00">version</text>
</a>
</g>
</g>
<!-- Node3&#45;&gt;Node6 -->
<g id="edge5_Node000003_Node000006" class="edge">
<title>Node3&#45;&gt;Node6</title>
<g id="a_edge5_Node000003_Node000006"><a xlink:title=" ">
<path fill="none" stroke="#63b8ff" d="M838,-55.08C838,-48.57 838,-39.42 838,-31.12"/>
<polygon fill="#63b8ff" stroke="#63b8ff" points="841.5,-31.12 838,-21.12 834.5,-31.12 841.5,-31.12"/>
</a>
</g>
</g>
<!-- Node7&#45;&gt;Node3 -->
<g id="edge7_Node000007_Node000003" class="edge">
<title>Node7&#45;&gt;Node3</title>
<g id="a_edge7_Node000007_Node000003"><a xlink:title=" ">
<path fill="none" stroke="#63b8ff" d="M762.67,-220.56C782.66,-214 805.33,-203.02 819,-185 840.98,-156.02 841.88,-111.54 840.19,-85.93"/>
<polygon fill="#63b8ff" stroke="#63b8ff" points="843.7,-85.88 839.33,-76.23 836.73,-86.5 843.7,-85.88"/>
</a>
</g>
</g>
<!-- Node7&#45;&gt;Node4 -->
<g id="edge39_Node000007_Node000004" class="edge">
<title>Node7&#45;&gt;Node4</title>
<g id="a_edge39_Node000007_Node000004"><a xlink:title=" ">
<path fill="none" stroke="#63b8ff" d="M669.73,-226.93C574.6,-221.49 381.1,-207.74 361,-185 318.7,-137.15 382.9,-61.28 416.12,-27.64"/>
<polygon fill="#63b8ff" stroke="#63b8ff" points="418.45,-30.26 423.11,-20.75 413.53,-25.28 418.45,-30.26"/>
</a>
</g>
</g>
<!-- Node7&#45;&gt;Node5 -->
<g id="edge40_Node000007_Node000005" class="edge">
<title>Node7&#45;&gt;Node5</title>
<g id="a_edge40_Node000007_Node000005"><a xlink:title=" ">
<path fill="none" stroke="#63b8ff" d="M669.91,-227.17C571.79,-222.02 367.42,-208.56 346,-185 307.19,-142.31 323.93,-66.57 335.04,-30.63"/>
<polygon fill="#63b8ff" stroke="#63b8ff" points="338.36,-31.72 338.16,-21.13 331.71,-29.54 338.36,-31.72"/>
</a>
</g>
</g>
<!-- Node8 -->
<g id="Node000008" class="node">
<title>Node8</title>
<g id="a_Node000008"><a xlink:href="../../d9/dc5/_string_8hpp.html" target="_top" xlink:title=" ">
<polygon fill="white" stroke="#666666" points="470.38,-185 369.62,-185 369.62,-165.75 470.38,-165.75 470.38,-185"/>
<text text-anchor="middle" x="420" y="-171.5" font-family="Helvetica,sans-Serif" font-size="10.00">mimic++/String.hpp</text>
</a>
</g>
</g>
<!-- Node7&#45;&gt;Node8 -->
<g id="edge8_Node000007_Node000008" class="edge">
<title>Node7&#45;&gt;Node8</title>
<g id="a_edge8_Node000007_Node000008"><a xlink:title=" ">
<path fill="none" stroke="#63b8ff" d="M670.43,-220.53C618.26,-211.33 537.59,-197.11 481.98,-187.3"/>
<polygon fill="#63b8ff" stroke="#63b8ff" points="482.8,-183.89 472.35,-185.6 481.59,-190.79 482.8,-183.89"/>
</a>
</g>
</g>
<!-- Node7&#45;&gt;Node9 -->
<g id="edge31_Node000007_Node000009" class="edge">
<title>Node7&#45;&gt;Node9</title>
<g id="a_edge31_Node000007_Node000009"><a xlink:title=" ">
<path fill="none" stroke="#63b8ff" d="M754.23,-220.56C780.97,-212.57 819.72,-199.9 852,-185 882.77,-170.8 916.02,-150.28 937.37,-136.35"/>
<polygon fill="#63b8ff" stroke="#63b8ff" points="939.16,-139.37 945.58,-130.94 935.3,-133.53 939.16,-139.37"/>
</a>
</g>
</g>
<!-- Node12 -->
<g id="Node000012" class="node">
<title>Node12</title>
<g id="a_Node000012"><a xlink:title=" ">
<polygon fill="#e0e0e0" stroke="#999999" points="1248.12,-74.5 1163.88,-74.5 1163.88,-55.25 1248.12,-55.25 1248.12,-74.5"/>
<text text-anchor="middle" x="1206" y="-61" font-family="Helvetica,sans-Serif" font-size="10.00">source_location</text>
</a>
</g>
</g>
<!-- Node7&#45;&gt;Node12 -->
<g id="edge37_Node000007_Node000012" class="edge">
<title>Node7&#45;&gt;Node12</title>
<g id="a_edge37_Node000007_Node000012"><a xlink:title=" ">
<path fill="none" stroke="#63b8ff" d="M774.23,-226.32C892.57,-218.6 1172.11,-198.99 1187,-185 1213.89,-159.74 1212.77,-112.83 1209.45,-86.03"/>
<polygon fill="#63b8ff" stroke="#63b8ff" points="1212.92,-85.55 1207.99,-76.17 1206,-86.58 1212.92,-85.55"/>
</a>
</g>
</g>
<!-- Node7&#45;&gt;Node14 -->
<g id="edge41_Node000007_Node000014" class="edge">
<title>Node7&#45;&gt;Node14</title>
<g id="a_edge41_Node000007_Node000014"><a xlink:title=" ">
<path fill="none" stroke="#63b8ff" d="M774.19,-226.52C891.41,-219.31 1168.47,-200.83 1208,-185 1257.49,-165.18 1252.88,-131.21 1302,-110.5 1330.88,-98.32 1538.76,-76.77 1618.23,-68.88"/>
<polygon fill="#63b8ff" stroke="#63b8ff" points="1618.29,-72.39 1627.9,-67.92 1617.61,-65.42 1618.29,-72.39"/>
</a>
</g>
</g>
<!-- Node7&#45;&gt;Node16 -->
<g id="edge33_Node000007_Node000016" class="edge">
<title>Node7&#45;&gt;Node16</title>
<g id="a_edge33_Node000007_Node000016"><a xlink:title=" ">
<path fill="none" stroke="#63b8ff" d="M669.81,-229.17C563.27,-227.51 324.69,-219.89 252,-185 230.94,-174.89 213.14,-154.46 202.09,-139.41"/>
<polygon fill="#63b8ff" stroke="#63b8ff" points="205.02,-137.49 196.42,-131.29 199.27,-141.5 205.02,-137.49"/>
</a>
</g>
</g>
<!-- Node17 -->
<g id="Node000017" class="node">
<title>Node17</title>
<g id="a_Node000017"><a xlink:title=" ">
<polygon fill="#e0e0e0" stroke="#999999" points="545.62,-129.75 500.38,-129.75 500.38,-110.5 545.62,-110.5 545.62,-129.75"/>
<text text-anchor="middle" x="523" y="-116.25" font-family="Helvetica,sans-Serif" font-size="10.00">ranges</text>
</a>
</g>
</g>
<!-- Node7&#45;&gt;Node17 -->
<g id="edge36_Node000007_Node000017" class="edge">
<title>Node7&#45;&gt;Node17</title>
<g id="a_edge36_Node000007_Node000017"><a xlink:title=" ">
<path fill="none" stroke="#63b8ff" d="M669.89,-226.74C634.13,-222.32 587.45,-211.45 555,-185 541.18,-173.74 532.79,-154.98 528.09,-140.7"/>
<polygon fill="#63b8ff" stroke="#63b8ff" points="531.56,-140.09 525.4,-131.47 524.84,-142.05 531.56,-140.09"/>
</a>
</g>
</g>
<!-- Node19 -->
<g id="Node000019" class="node">
<title>Node19</title>
<g id="a_Node000019"><a xlink:href="../../d8/d32/_type_traits_8hpp.html" target="_top" xlink:title=" ">
<polygon fill="white" stroke="#666666" points="1177.5,-185 1056.5,-185 1056.5,-165.75 1177.5,-165.75 1177.5,-185"/>
<text text-anchor="middle" x="1117" y="-171.5" font-family="Helvetica,sans-Serif" font-size="10.00">mimic++/TypeTraits.hpp</text>
</a>
</g>
</g>
<!-- Node7&#45;&gt;Node19 -->
<g id="edge24_Node000007_Node000019" class="edge">
<title>Node7&#45;&gt;Node19</title>
<g id="a_edge24_Node000007_Node000019"><a xlink:title=" ">
<path fill="none" stroke="#63b8ff" d="M774.05,-222.61C843.43,-213.25 966.56,-196.66 1044.87,-186.1"/>
<polygon fill="#63b8ff" stroke="#63b8ff" points="1045.14,-189.59 1054.59,-184.79 1044.21,-182.66 1045.14,-189.59"/>
</a>
</g>
</g>
<!-- Node21 -->
<g id="Node000021" class="node">
<title>Node21</title>
<g id="a_Node000021"><a xlink:title=" ">
<polygon fill="#e0e0e0" stroke="#999999" points="1073.62,-129.75 1028.38,-129.75 1028.38,-110.5 1073.62,-110.5 1073.62,-129.75"/>
<text text-anchor="middle" x="1051" y="-116.25" font-family="Helvetica,sans-Serif" font-size="10.00">cstdint</text>
</a>
</g>
</g>
<!-- Node7&#45;&gt;Node21 -->
<g id="edge32_Node000007_Node000021" class="edge">
<title>Node7&#45;&gt;Node21</title>
<g id="a_edge32_Node000007_Node000021"><a xlink:title=" ">
<path fill="none" stroke="#63b8ff" d="M758.98,-220.52C792.01,-212.14 841.59,-198.92 884,-185 931.57,-169.39 985.48,-148.1 1018.86,-134.48"/>
<polygon fill="#63b8ff" stroke="#63b8ff" points="1020.03,-137.78 1027.96,-130.75 1017.38,-131.31 1020.03,-137.78"/>
</a>
</g>
</g>
<!-- Node22 -->
<g id="Node000022" class="node">
<title>Node22</title>
<g id="a_Node000022"><a xlink:title=" ">
<polygon fill="#e0e0e0" stroke="#999999" points="610,-185 564,-185 564,-165.75 610,-165.75 610,-185"/>
<text text-anchor="middle" x="587" y="-171.5" font-family="Helvetica,sans-Serif" font-size="10.00">iterator</text>
</a>
</g>
</g>
<!-- Node7&#45;&gt;Node22 -->
<g id="edge34_Node000007_Node000022" class="edge">
<title>Node7&#45;&gt;Node22</title>
<g id="a_edge34_Node000007_Node000022"><a xlink:title=" ">
<path fill="none" stroke="#63b8ff" d="M699.1,-220.59C677.57,-212.1 645.09,-199.29 620.62,-189.64"/>
<polygon fill="#63b8ff" stroke="#63b8ff" points="622.01,-186.42 611.42,-186.01 619.44,-192.93 622.01,-186.42"/>
</a>
</g>
</g>
<!-- Node23 -->
<g id="Node000023" class="node">
<title>Node23</title>
<g id="a_Node000023"><a xlink:title=" ">
<polygon fill="#e0e0e0" stroke="#999999" points="677.88,-185 628.12,-185 628.12,-165.75 677.88,-165.75 677.88,-185"/>
<text text-anchor="middle" x="653" y="-171.5" font-family="Helvetica,sans-Serif" font-size="10.00">optional</text>
</a>
</g>
</g>
<!-- Node7&#45;&gt;Node23 -->
<g id="edge35_Node000007_Node000023" class="edge">
<title>Node7&#45;&gt;Node23</title>
<g id="a_edge35_Node000007_Node000023"><a xlink:title=" ">
<path fill="none" stroke="#63b8ff" d="M710.3,-220.59C700.22,-212.82 685.46,-201.42 673.44,-192.15"/>
<polygon fill="#63b8ff" stroke="#63b8ff" points="675.79,-189.54 665.73,-186.2 671.51,-195.08 675.79,-189.54"/>
</a>
</g>
</g>
<!-- Node24 -->
<g id="Node000024" class="node">
<title>Node24</title>
<g id="a_Node000024"><a xlink:title=" ">
<polygon fill="#e0e0e0" stroke="#999999" points="747.62,-185 696.38,-185 696.38,-165.75 747.62,-165.75 747.62,-185"/>
<text text-anchor="middle" x="722" y="-171.5" font-family="Helvetica,sans-Serif" font-size="10.00">sstream</text>
</a>
</g>
</g>
<!-- Node7&#45;&gt;Node24 -->
<g id="edge38_Node000007_Node000024" class="edge">
<title>Node7&#45;&gt;Node24</title>
<g id="a_edge38_Node000007_Node000024"><a xlink:title=" ">
<path fill="none" stroke="#63b8ff" d="M722,-220.83C722,-214.32 722,-205.17 722,-196.87"/>
<polygon fill="#63b8ff" stroke="#63b8ff" points="725.5,-196.87 722,-186.87 718.5,-196.87 725.5,-196.87"/>
</a>
</g>
</g>
<!-- Node25 -->
<g id="Node000025" class="node">
<title>Node25</title>
<g id="a_Node000025"><a xlink:title=" ">
<polygon fill="#e0e0e0" stroke="#999999" points="809.88,-185 766.12,-185 766.12,-165.75 809.88,-165.75 809.88,-185"/>
<text text-anchor="middle" x="788" y="-171.5" font-family="Helvetica,sans-Serif" font-size="10.00">format</text>
</a>
</g>
</g>
<!-- Node7&#45;&gt;Node25 -->
<g id="edge42_Node000007_Node000025" class="edge">
<title>Node7&#45;&gt;Node25</title>
<g id="a_edge42_Node000007_Node000025"><a xlink:title=" ">
<path fill="none" stroke="#63b8ff" d="M733.2,-220.59C742.74,-212.9 756.67,-201.65 768.11,-192.43"/>
<polygon fill="#63b8ff" stroke="#63b8ff" points="770.21,-195.23 775.79,-186.23 765.81,-189.78 770.21,-195.23"/>
</a>
</g>
</g>
<!-- Node8&#45;&gt;Node3 -->
<g id="edge9_Node000008_Node000003" class="edge">
<title>Node8&#45;&gt;Node3</title>
<g id="a_edge9_Node000008_Node000003"><a xlink:title=" ">
<path fill="none" stroke="#63b8ff" d="M426.74,-165.54C438.19,-151.25 462.97,-123.36 491,-110.5 541.01,-87.55 694.03,-74.73 779.21,-69.2"/>
<polygon fill="#63b8ff" stroke="#63b8ff" points="779.24,-72.71 789,-68.58 778.8,-65.72 779.24,-72.71"/>
</a>
</g>
</g>
<!-- Node8&#45;&gt;Node4 -->
<g id="edge21_Node000008_Node000004" class="edge">
<title>Node8&#45;&gt;Node4</title>
<g id="a_edge21_Node000008_Node000004"><a xlink:title=" ">
<path fill="none" stroke="#63b8ff" d="M420.75,-165.57C422.92,-140.25 429.2,-66.75 432.27,-30.84"/>
<polygon fill="#63b8ff" stroke="#63b8ff" points="435.75,-31.24 433.11,-20.98 428.78,-30.65 435.75,-31.24"/>
</a>
</g>
</g>
<!-- Node8&#45;&gt;Node5 -->
<g id="edge22_Node000008_Node000005" class="edge">
<title>Node8&#45;&gt;Node5</title>
<g id="a_edge22_Node000008_Node000005"><a xlink:title=" ">
<path fill="none" stroke="#63b8ff" d="M415.81,-165.57C403.59,-139.92 367.81,-64.8 350.96,-29.44"/>
<polygon fill="#63b8ff" stroke="#63b8ff" points="354.33,-28.36 346.87,-20.84 348.01,-31.37 354.33,-28.36"/>
</a>
</g>
</g>
<!-- Node8&#45;&gt;Node9 -->
<g id="edge10_Node000008_Node000009" class="edge">
<title>Node8&#45;&gt;Node9</title>
<g id="a_edge10_Node000008_Node000009"><a xlink:title=" ">
<path fill="none" stroke="#63b8ff" d="M470.8,-169.37C570.36,-159.55 790.77,-137.81 898.42,-127.2"/>
<polygon fill="#63b8ff" stroke="#63b8ff" points="898.61,-130.7 908.22,-126.23 897.93,-123.73 898.61,-130.7"/>
</a>
</g>
</g>
<!-- Node8&#45;&gt;Node15 -->
<g id="edge18_Node000008_Node000015" class="edge">
<title>Node8&#45;&gt;Node15</title>
<g id="a_edge18_Node000008_Node000015"><a xlink:title=" ">
<path fill="none" stroke="#63b8ff" d="M369.24,-166.52C300.24,-155.84 178.27,-136.96 115.6,-127.26"/>
<polygon fill="#63b8ff" stroke="#63b8ff" points="116.17,-123.8 105.75,-125.73 115.1,-130.72 116.17,-123.8"/>
</a>
</g>
</g>
<!-- Node8&#45;&gt;Node16 -->
<g id="edge19_Node000008_Node000016" class="edge">
<title>Node8&#45;&gt;Node16</title>
<g id="a_edge19_Node000008_Node000016"><a xlink:title=" ">
<path fill="none" stroke="#63b8ff" d="M380.72,-165.28C338.77,-155.57 272.6,-140.25 230.27,-130.45"/>
<polygon fill="#63b8ff" stroke="#63b8ff" points="231.27,-127.09 220.74,-128.24 229.69,-133.91 231.27,-127.09"/>
</a>
</g>
</g>
<!-- Node8&#45;&gt;Node17 -->
<g id="edge20_Node000008_Node000017" class="edge">
<title>Node8&#45;&gt;Node17</title>
<g id="a_edge20_Node000008_Node000017"><a xlink:title=" ">
<path fill="none" stroke="#63b8ff" d="M437.47,-165.34C453.31,-157.16 476.91,-144.96 495.31,-135.44"/>
<polygon fill="#63b8ff" stroke="#63b8ff" points="496.82,-138.6 504.1,-130.9 493.61,-132.38 496.82,-138.6"/>
</a>
</g>
</g>
<!-- Node8&#45;&gt;Node18 -->
<g id="edge23_Node000008_Node000018" class="edge">
<title>Node8&#45;&gt;Node18</title>
<g id="a_edge23_Node000008_Node000018"><a xlink:title=" ">
<path fill="none" stroke="#63b8ff" d="M470.64,-171.05C495.97,-169.42 527.1,-167.43 555,-165.75 629.38,-161.26 1147.38,-132.04 1299.24,-123.48"/>
<polygon fill="#63b8ff" stroke="#63b8ff" points="1299.06,-126.99 1308.84,-122.94 1298.66,-120.01 1299.06,-126.99"/>
</a>
</g>
</g>
<!-- Node9&#45;&gt;Node3 -->
<g id="edge11_Node000009_Node000003" class="edge">
<title>Node9&#45;&gt;Node3</title>
<g id="a_edge11_Node000009_Node000003"><a xlink:title=" ">
<path fill="none" stroke="#63b8ff" d="M939.3,-110.09C920.11,-101.72 891.29,-89.13 869.28,-79.53"/>
<polygon fill="#63b8ff" stroke="#63b8ff" points="870.75,-76.35 860.18,-75.56 867.95,-82.77 870.75,-76.35"/>
</a>
</g>
</g>
<!-- Node9&#45;&gt;Node5 -->
<g id="edge15_Node000009_Node000005" class="edge">
<title>Node9&#45;&gt;Node5</title>
<g id="a_edge15_Node000009_Node000005"><a xlink:title=" ">
<path fill="none" stroke="#63b8ff" d="M909.69,-110.29C791.55,-89.55 497.96,-38.01 386.18,-18.38"/>
<polygon fill="#63b8ff" stroke="#63b8ff" points="386.95,-14.96 376.5,-16.68 385.74,-21.86 386.95,-14.96"/>
</a>
</g>
</g>
<!-- Node10 -->
<g id="Node000010" class="node">
<title>Node10</title>
<g id="a_Node000010"><a xlink:title=" ">
<polygon fill="#e0e0e0" stroke="#999999" points="1022.5,-74.5 985.5,-74.5 985.5,-55.25 1022.5,-55.25 1022.5,-74.5"/>
<text text-anchor="middle" x="1004" y="-61" font-family="Helvetica,sans-Serif" font-size="10.00">array</text>
</a>
</g>
</g>
<!-- Node9&#45;&gt;Node10 -->
<g id="edge12_Node000009_Node000010" class="edge">
<title>Node9&#45;&gt;Node10</title>
<g id="a_edge12_Node000009_Node000010"><a xlink:title=" ">
<path fill="none" stroke="#63b8ff" d="M967.27,-110.33C973.28,-103.05 982.01,-92.48 989.46,-83.48"/>
<polygon fill="#63b8ff" stroke="#63b8ff" points="991.94,-85.96 995.61,-76.03 986.54,-81.51 991.94,-85.96"/>
</a>
</g>
</g>
<!-- Node11 -->
<g id="Node000011" class="node">
<title>Node11</title>
<g id="a_Node000011"><a xlink:title=" ">
<polygon fill="#e0e0e0" stroke="#999999" points="967.12,-74.5 918.88,-74.5 918.88,-55.25 967.12,-55.25 967.12,-74.5"/>
<text text-anchor="middle" x="943" y="-61" font-family="Helvetica,sans-Serif" font-size="10.00">cassert</text>
</a>
</g>
</g>
<!-- Node9&#45;&gt;Node11 -->
<g id="edge13_Node000009_Node000011" class="edge">
<title>Node9&#45;&gt;Node11</title>
<g id="a_edge13_Node000009_Node000011"><a xlink:title=" ">
<path fill="none" stroke="#63b8ff" d="M957.19,-110.33C955.06,-103.67 952.06,-94.24 949.36,-85.78"/>
<polygon fill="#63b8ff" stroke="#63b8ff" points="952.7,-84.76 946.33,-76.3 946.04,-86.89 952.7,-84.76"/>
</a>
</g>
</g>
<!-- Node9&#45;&gt;Node12 -->
<g id="edge14_Node000009_Node000012" class="edge">
<title>Node9&#45;&gt;Node12</title>
<g id="a_edge14_Node000009_Node000012"><a xlink:title=" ">
<path fill="none" stroke="#63b8ff" d="M1002.01,-110.03C1043.76,-100.99 1107.91,-87.11 1153.11,-77.32"/>
<polygon fill="#63b8ff" stroke="#63b8ff" points="1153.65,-80.79 1162.68,-75.25 1152.17,-73.95 1153.65,-80.79"/>
</a>
</g>
</g>
<!-- Node9&#45;&gt;Node13 -->
<g id="edge16_Node000009_Node000013" class="edge">
<title>Node9&#45;&gt;Node13</title>
<g id="a_edge16_Node000009_Node000013"><a xlink:title=" ">
<path fill="none" stroke="#63b8ff" d="M1010.19,-111.59C1013.17,-111.21 1016.12,-110.84 1019,-110.5 1195.4,-89.7 1408.04,-73.59 1485.72,-68"/>
<polygon fill="#63b8ff" stroke="#63b8ff" points="1485.77,-71.51 1495.49,-67.31 1485.27,-64.53 1485.77,-71.51"/>
</a>
</g>
</g>
<!-- Node9&#45;&gt;Node14 -->
<g id="edge17_Node000009_Node000014" class="edge">
<title>Node9&#45;&gt;Node14</title>
<g id="a_edge17_Node000009_Node000014"><a xlink:title=" ">
<path fill="none" stroke="#63b8ff" d="M1010.5,-111.48C1013.37,-111.13 1016.22,-110.8 1019,-110.5 1251.55,-85.57 1310.78,-92.07 1544,-74.5 1568.85,-72.63 1596.99,-70.3 1617.88,-68.54"/>
<polygon fill="#63b8ff" stroke="#63b8ff" points="1618.09,-72.04 1627.76,-67.7 1617.5,-65.06 1618.09,-72.04"/>
</a>
</g>
</g>
<!-- Node19&#45;&gt;Node3 -->
<g id="edge25_Node000019_Node000003" class="edge">
<title>Node19&#45;&gt;Node3</title>
<g id="a_edge25_Node000019_Node000003"><a xlink:title=" ">
<path fill="none" stroke="#63b8ff" d="M1114.87,-165.29C1111.06,-151.17 1101.67,-124.14 1083,-110.5 1068.11,-99.62 964.23,-83.42 896.6,-73.82"/>
<polygon fill="#63b8ff" stroke="#63b8ff" points="897.14,-70.37 886.75,-72.44 896.16,-77.3 897.14,-70.37"/>
</a>
</g>
</g>
<!-- Node19&#45;&gt;Node13 -->
<g id="edge29_Node000019_Node000013" class="edge">
<title>Node19&#45;&gt;Node13</title>
<g id="a_edge29_Node000019_Node000013"><a xlink:title=" ">
<path fill="none" stroke="#63b8ff" d="M1134.65,-165.38C1162.36,-151.61 1218.07,-125.35 1268,-110.5 1344.76,-87.67 1438.56,-74.67 1485.77,-69.12"/>
<polygon fill="#63b8ff" stroke="#63b8ff" points="1485.96,-72.62 1495.5,-68.01 1485.16,-65.66 1485.96,-72.62"/>
</a>
</g>
</g>
<!-- Node19&#45;&gt;Node15 -->
<g id="edge26_Node000019_Node000015" class="edge">
<title>Node19&#45;&gt;Node15</title>
<g id="a_edge26_Node000019_Node000015"><a xlink:title=" ">
<path fill="none" stroke="#63b8ff" d="M1056.22,-172.97C903.84,-169.16 493.26,-156.97 152,-129.75 140.09,-128.8 127.16,-127.45 115.4,-126.1"/>
<polygon fill="#63b8ff" stroke="#63b8ff" points="115.95,-122.64 105.61,-124.95 115.13,-129.6 115.95,-122.64"/>
</a>
</g>
</g>
<!-- Node19&#45;&gt;Node18 -->
<g id="edge30_Node000019_Node000018" class="edge">
<title>Node19&#45;&gt;Node18</title>
<g id="a_edge30_Node000019_Node000018"><a xlink:title=" ">
<path fill="none" stroke="#63b8ff" d="M1155.25,-165.28C1195.23,-155.78 1257.77,-140.91 1299.07,-131.09"/>
<polygon fill="#63b8ff" stroke="#63b8ff" points="1299.72,-134.53 1308.64,-128.82 1298.1,-127.72 1299.72,-134.53"/>
</a>
</g>
</g>
<!-- Node20 -->
<g id="Node000020" class="node">
<title>Node20</title>
<g id="a_Node000020"><a xlink:title=" ">
<polygon fill="#e0e0e0" stroke="#999999" points="1178.12,-129.75 1129.88,-129.75 1129.88,-110.5 1178.12,-110.5 1178.12,-129.75"/>
<text text-anchor="middle" x="1154" y="-116.25" font-family="Helvetica,sans-Serif" font-size="10.00">cstddef</text>
</a>
</g>
</g>
<!-- Node19&#45;&gt;Node20 -->
<g id="edge27_Node000019_Node000020" class="edge">
<title>Node19&#45;&gt;Node20</title>
<g id="a_edge27_Node000019_Node000020"><a xlink:title=" ">
<path fill="none" stroke="#63b8ff" d="M1123.11,-165.58C1128.06,-158.46 1135.2,-148.18 1141.37,-139.3"/>
<polygon fill="#63b8ff" stroke="#63b8ff" points="1144.06,-141.56 1146.89,-131.35 1138.31,-137.57 1144.06,-141.56"/>
</a>
</g>
</g>
<!-- Node19&#45;&gt;Node21 -->
<g id="edge28_Node000019_Node000021" class="edge">
<title>Node19&#45;&gt;Node21</title>
<g id="a_edge28_Node000019_Node000021"><a xlink:title=" ">
<path fill="none" stroke="#63b8ff" d="M1105.8,-165.34C1096.26,-157.65 1082.33,-146.4 1070.89,-137.18"/>
<polygon fill="#63b8ff" stroke="#63b8ff" points="1073.19,-134.53 1063.21,-130.98 1068.79,-139.98 1073.19,-134.53"/>
</a>
</g>
</g>
<!-- Node26&#45;&gt;Node13 -->
<g id="edge67_Node000026_Node000013" class="edge">
<title>Node26&#45;&gt;Node13</title>
<g id="a_edge67_Node000026_Node000013"><a xlink:title=" ">
<path fill="none" stroke="#63b8ff" d="M1101.98,-400.17C1242.93,-396.61 1554,-378.38 1554,-286.88 1554,-286.88 1554,-286.88 1554,-174.38 1554,-141.38 1538.16,-105.76 1526.93,-84.66"/>
<polygon fill="#63b8ff" stroke="#63b8ff" points="1530.1,-83.15 1522.18,-76.11 1523.98,-86.55 1530.1,-83.15"/>
</a>
</g>
</g>
<!-- Node26&#45;&gt;Node14 -->
<g id="edge69_Node000026_Node000014" class="edge">
<title>Node26&#45;&gt;Node14</title>
<g id="a_edge69_Node000026_Node000014"><a xlink:title=" ">
<path fill="none" stroke="#63b8ff" d="M1101.82,-396.55C1272.45,-384.45 1706,-347.71 1706,-286.88 1706,-286.88 1706,-286.88 1706,-174.38 1706,-138.92 1681.86,-103.66 1664.99,-83.35"/>
<polygon fill="#63b8ff" stroke="#63b8ff" points="1667.84,-81.3 1658.65,-76.04 1662.56,-85.88 1667.84,-81.3"/>
</a>
</g>
</g>
<!-- Node26&#45;&gt;Node15 -->
<g id="edge65_Node000026_Node000015" class="edge">
<title>Node26&#45;&gt;Node15</title>
<g id="a_edge65_Node000026_Node000015"><a xlink:title=" ">
<path fill="none" stroke="#63b8ff" d="M966.2,-396.54C876.59,-389.97 714.03,-375.68 577,-350.75 382.02,-315.28 313.1,-345.21 145,-240.25 117.65,-223.18 113.97,-213 98,-185 90.07,-171.1 84.35,-153.88 80.73,-140.82"/>
<polygon fill="#63b8ff" stroke="#63b8ff" points="84.16,-140.1 78.28,-131.29 77.38,-141.84 84.16,-140.1"/>
</a>
</g>
</g>
<!-- Node26&#45;&gt;Node16 -->
<g id="edge66_Node000026_Node000016" class="edge">
<title>Node26&#45;&gt;Node16</title>
<g id="a_edge66_Node000026_Node000016"><a xlink:title=" ">
<path fill="none" stroke="#63b8ff" d="M965.88,-394.44C854.65,-382.5 628,-352.95 444,-295.5 331.14,-260.26 274.87,-278.11 202,-185 192.31,-172.62 189.61,-154.79 189.17,-141.11"/>
<polygon fill="#63b8ff" stroke="#63b8ff" points="192.66,-141.54 189.24,-131.51 185.66,-141.48 192.66,-141.54"/>
</a>
</g>
</g>
<!-- Node26&#45;&gt;Node18 -->
<g id="edge68_Node000026_Node000018" class="edge">
<title>Node26&#45;&gt;Node18</title>
<g id="a_edge68_Node000026_Node000018"><a xlink:title=" ">
<path fill="none" stroke="#63b8ff" d="M1035.68,-386.38C1040.47,-351.73 1057.52,-264.32 1111,-221 1173.38,-170.47 1219.12,-226.23 1288,-185 1306.31,-174.04 1321.17,-154.39 1330.44,-139.77"/>
<polygon fill="#63b8ff" stroke="#63b8ff" points="1333.26,-141.88 1335.4,-131.51 1327.25,-138.28 1333.26,-141.88"/>
</a>
</g>
</g>
<!-- Node27 -->
<g id="Node000027" class="node">
<title>Node27</title>
<g id="a_Node000027"><a xlink:href="../../dc/d44/_call_8hpp.html" target="_top" xlink:title=" ">
<polygon fill="white" stroke="#666666" points="1202.88,-350.75 1111.12,-350.75 1111.12,-331.5 1202.88,-331.5 1202.88,-350.75"/>
<text text-anchor="middle" x="1157" y="-337.25" font-family="Helvetica,sans-Serif" font-size="10.00">mimic++/Call.hpp</text>
</a>
</g>
</g>
<!-- Node26&#45;&gt;Node27 -->
<g id="edge47_Node000026_Node000027" class="edge">
<title>Node26&#45;&gt;Node27</title>
<g id="a_edge47_Node000026_Node000027"><a xlink:title=" ">
<path fill="none" stroke="#63b8ff" d="M1064.72,-386.3C1084.08,-377.03 1108.93,-365.13 1127.96,-356.02"/>
<polygon fill="#63b8ff" stroke="#63b8ff" points="1129.26,-359.28 1136.77,-351.81 1126.24,-352.97 1129.26,-359.28"/>
</a>
</g>
</g>
<!-- Node27&#45;&gt;Node3 -->
<g id="edge48_Node000027_Node000003" class="edge">
<title>Node27&#45;&gt;Node3</title>
<g id="a_edge48_Node000027_Node000003"><a xlink:title=" ">
<path fill="none" stroke="#63b8ff" d="M1136.91,-331.04C1119.75,-322.85 1094.78,-309.91 1075,-295.5 981.56,-227.4 888.15,-123.96 852.8,-83.23"/>
<polygon fill="#63b8ff" stroke="#63b8ff" points="855.61,-81.13 846.43,-75.84 850.31,-85.7 855.61,-81.13"/>
</a>
</g>
</g>
<!-- Node27&#45;&gt;Node12 -->
<g id="edge62_Node000027_Node000012" class="edge">
<title>Node27&#45;&gt;Node12</title>
<g id="a_edge62_Node000027_Node000012"><a xlink:title=" ">
<path fill="none" stroke="#63b8ff" d="M1203.16,-332.83C1259.67,-321.75 1355.44,-295.81 1417,-240.25 1437.44,-221.8 1438.6,-211.78 1445,-185 1464.57,-103.08 1336,-77.44 1259.69,-69.45"/>
<polygon fill="#63b8ff" stroke="#63b8ff" points="1260.18,-65.98 1249.89,-68.5 1259.5,-72.95 1260.18,-65.98"/>
</a>
</g>
</g>
<!-- Node27&#45;&gt;Node13 -->
<g id="edge63_Node000027_Node000013" class="edge">
<title>Node27&#45;&gt;Node13</title>
<g id="a_edge63_Node000027_Node000013"><a xlink:title=" ">
<path fill="none" stroke="#63b8ff" d="M1203.29,-337.9C1267.01,-332.16 1380.5,-311.84 1439,-240.25 1478.54,-191.87 1501.64,-120 1511.04,-85.61"/>
<polygon fill="#63b8ff" stroke="#63b8ff" points="1514.36,-86.77 1513.51,-76.21 1507.59,-84.99 1514.36,-86.77"/>
</a>
</g>
</g>
<!-- Node27&#45;&gt;Node14 -->
<g id="edge64_Node000027_Node000014" class="edge">
<title>Node27&#45;&gt;Node14</title>
<g id="a_edge64_Node000027_Node000014"><a xlink:title=" ">
<path fill="none" stroke="#63b8ff" d="M1203.17,-336.96C1252.63,-332.34 1332.69,-321.3 1397,-295.5 1514.28,-248.46 1558.72,-235.43 1628,-129.75 1636.73,-116.43 1642.12,-99.17 1645.25,-85.95"/>
<polygon fill="#63b8ff" stroke="#63b8ff" points="1648.65,-86.76 1647.28,-76.26 1641.8,-85.33 1648.65,-86.76"/>
</a>
</g>
</g>
<!-- Node27&#45;&gt;Node19 -->
<g id="edge61_Node000027_Node000019" class="edge">
<title>Node27&#45;&gt;Node19</title>
<g id="a_edge61_Node000027_Node000019"><a xlink:title=" ">
<path fill="none" stroke="#63b8ff" d="M1131.14,-331.07C1115.31,-324.04 1096.36,-312.56 1087,-295.5 1071.08,-266.47 1077.34,-252.67 1087,-221 1089.92,-211.44 1095.64,-202.07 1101.31,-194.4"/>
<polygon fill="#63b8ff" stroke="#63b8ff" points="1104.03,-196.61 1107.56,-186.61 1098.57,-192.23 1104.03,-196.61"/>
</a>
</g>
</g>
<!-- Node28 -->
<g id="Node000028" class="node">
<title>Node28</title>
<g id="a_Node000028"><a xlink:href="../../de/df5/_stacktrace_8hpp.html" target="_top" xlink:title=" ">
<polygon fill="white" stroke="#666666" points="1218.25,-295.5 1095.75,-295.5 1095.75,-276.25 1218.25,-276.25 1218.25,-295.5"/>
<text text-anchor="middle" x="1157" y="-282" font-family="Helvetica,sans-Serif" font-size="10.00">mimic++/Stacktrace.hpp</text>
</a>
</g>
</g>
<!-- Node27&#45;&gt;Node28 -->
<g id="edge49_Node000027_Node000028" class="edge">
<title>Node27&#45;&gt;Node28</title>
<g id="a_edge49_Node000027_Node000028"><a xlink:title=" ">
<path fill="none" stroke="#63b8ff" d="M1157,-331.33C1157,-324.82 1157,-315.67 1157,-307.37"/>
<polygon fill="#63b8ff" stroke="#63b8ff" points="1160.5,-307.37 1157,-297.37 1153.5,-307.37 1160.5,-307.37"/>
</a>
</g>
</g>
<!-- Node28&#45;&gt;Node3 -->
<g id="edge50_Node000028_Node000003" class="edge">
<title>Node28&#45;&gt;Node3</title>
<g id="a_edge50_Node000028_Node000003"><a xlink:title=" ">
<path fill="none" stroke="#63b8ff" d="M1218.55,-281.3C1278.18,-276.4 1362.53,-265.16 1383,-240.25 1404.15,-214.51 1499.61,-236.22 1381,-110.5 1344.98,-72.32 962.24,-79.62 910,-74.5 905.61,-74.07 901.08,-73.6 896.53,-73.1"/>
<polygon fill="#63b8ff" stroke="#63b8ff" points="897.05,-69.64 886.72,-71.99 896.27,-76.59 897.05,-69.64"/>
</a>
</g>
</g>
<!-- Node28&#45;&gt;Node7 -->
<g id="edge51_Node000028_Node000007" class="edge">
<title>Node28&#45;&gt;Node7</title>
<g id="a_edge51_Node000028_Node000007"><a xlink:title=" ">
<path fill="none" stroke="#63b8ff" d="M1095.6,-277.36C1013.51,-267.31 868.72,-249.59 785.55,-239.4"/>
<polygon fill="#63b8ff" stroke="#63b8ff" points="786.09,-235.94 775.74,-238.2 785.24,-242.89 786.09,-235.94"/>
</a>
</g>
</g>
<!-- Node28&#45;&gt;Node9 -->
<g id="edge52_Node000028_Node000009" class="edge">
<title>Node28&#45;&gt;Node9</title>
<g id="a_edge52_Node000028_Node000009"><a xlink:title=" ">
<path fill="none" stroke="#63b8ff" d="M1146.13,-275.84C1114.17,-249.27 1020.2,-171.16 979.34,-137.2"/>
<polygon fill="#63b8ff" stroke="#63b8ff" points="981.69,-134.6 971.76,-130.9 977.21,-139.99 981.69,-134.6"/>
</a>
</g>
</g>
<!-- Node28&#45;&gt;Node14 -->
<g id="edge59_Node000028_Node000014" class="edge">
<title>Node28&#45;&gt;Node14</title>
<g id="a_edge59_Node000028_Node000014"><a xlink:title=" ">
<path fill="none" stroke="#63b8ff" d="M1218.75,-280.54C1272.46,-275.31 1351.7,-264.05 1417,-240.25 1508.42,-206.93 1535.05,-196.34 1606,-129.75 1620,-116.61 1631.82,-98.11 1639.51,-84.4"/>
<polygon fill="#63b8ff" stroke="#63b8ff" points="1642.39,-86.43 1644.03,-75.96 1636.22,-83.12 1642.39,-86.43"/>
</a>
</g>
</g>
<!-- Node28&#45;&gt;Node16 -->
<g id="edge55_Node000028_Node000016" class="edge">
<title>Node28&#45;&gt;Node16</title>
<g id="a_edge55_Node000028_Node000016"><a xlink:title=" ">
<path fill="none" stroke="#63b8ff" d="M1095.45,-281.85C898.52,-271.68 292.55,-236.48 222,-185 207.6,-174.49 199.28,-155.64 194.75,-141.14"/>
<polygon fill="#63b8ff" stroke="#63b8ff" points="198.19,-140.44 192.19,-131.71 191.44,-142.28 198.19,-140.44"/>
</a>
</g>
</g>
<!-- Node28&#45;&gt;Node17 -->
<g id="edge56_Node000028_Node000017" class="edge">
<title>Node28&#45;&gt;Node17</title>
<g id="a_edge56_Node000028_Node000017"><a xlink:title=" ">
<path fill="none" stroke="#63b8ff" d="M1095.6,-285.72C1000.79,-285.6 813.77,-279.74 661,-240.25 602.19,-225.05 574.08,-232.32 536,-185 526.11,-172.72 523.14,-154.88 522.48,-141.18"/>
<polygon fill="#63b8ff" stroke="#63b8ff" points="525.98,-141.52 522.41,-131.54 518.98,-141.57 525.98,-141.52"/>
</a>
</g>
</g>
<!-- Node28&#45;&gt;Node18 -->
<g id="edge58_Node000028_Node000018" class="edge">
<title>Node28&#45;&gt;Node18</title>
<g id="a_edge58_Node000028_Node000018"><a xlink:title=" ">
<path fill="none" stroke="#63b8ff" d="M1144.95,-275.77C1129.18,-262.77 1105.19,-238.51 1120,-221 1182.29,-147.36 1267.79,-255.13 1334,-185 1344.9,-173.46 1345.84,-155.01 1344.53,-140.9"/>
<polygon fill="#63b8ff" stroke="#63b8ff" points="1348.06,-140.82 1343.2,-131.4 1341.12,-141.79 1348.06,-140.82"/>
</a>
</g>
</g>
<!-- Node29 -->
<g id="Node000029" class="node">
<title>Node29</title>
<g id="a_Node000029"><a xlink:title=" ">
<polygon fill="#e0e0e0" stroke="#999999" points="1184.88,-240.25 1129.12,-240.25 1129.12,-221 1184.88,-221 1184.88,-240.25"/>
<text text-anchor="middle" x="1157" y="-226.75" font-family="Helvetica,sans-Serif" font-size="10.00">algorithm</text>
</a>
</g>
</g>
<!-- Node28&#45;&gt;Node29 -->
<g id="edge53_Node000028_Node000029" class="edge">
<title>Node28&#45;&gt;Node29</title>
<g id="a_edge53_Node000028_Node000029"><a xlink:title=" ">
<path fill="none" stroke="#63b8ff" d="M1157,-276.08C1157,-269.57 1157,-260.42 1157,-252.12"/>
<polygon fill="#63b8ff" stroke="#63b8ff" points="1160.5,-252.12 1157,-242.12 1153.5,-252.12 1160.5,-252.12"/>
</a>
</g>
</g>
<!-- Node30 -->
<g id="Node000030" class="node">
<title>Node30</title>
<g id="a_Node000030"><a xlink:title=" ">
<polygon fill="#e0e0e0" stroke="#999999" points="1233.5,-240.25 1202.5,-240.25 1202.5,-221 1233.5,-221 1233.5,-240.25"/>
<text text-anchor="middle" x="1218" y="-226.75" font-family="Helvetica,sans-Serif" font-size="10.00">any</text>
</a>
</g>
</g>
<!-- Node28&#45;&gt;Node30 -->
<g id="edge54_Node000028_Node000030" class="edge">
<title>Node28&#45;&gt;Node30</title>
<g id="a_edge54_Node000028_Node000030"><a xlink:title=" ">
<path fill="none" stroke="#63b8ff" d="M1167.35,-275.84C1176.08,-268.22 1188.79,-257.12 1199.3,-247.95"/>
<polygon fill="#63b8ff" stroke="#63b8ff" points="1201.43,-250.73 1206.66,-241.52 1196.83,-245.46 1201.43,-250.73"/>
</a>
</g>
</g>
<!-- Node31 -->
<g id="Node000031" class="node">
<title>Node31</title>
<g id="a_Node000031"><a xlink:title=" ">
<polygon fill="#e0e0e0" stroke="#999999" points="1310,-240.25 1252,-240.25 1252,-221 1310,-221 1310,-240.25"/>
<text text-anchor="middle" x="1281" y="-226.75" font-family="Helvetica,sans-Serif" font-size="10.00">stdexcept</text>
</a>
</g>
</g>
<!-- Node28&#45;&gt;Node31 -->
<g id="edge57_Node000028_Node000031" class="edge">
<title>Node28&#45;&gt;Node31</title>
<g id="a_edge57_Node000028_Node000031"><a xlink:title=" ">
<path fill="none" stroke="#63b8ff" d="M1178.03,-275.84C1197.63,-267.43 1227.11,-254.77 1249.51,-245.15"/>
<polygon fill="#63b8ff" stroke="#63b8ff" points="1250.66,-248.46 1258.47,-241.3 1247.9,-242.03 1250.66,-248.46"/>
</a>
</g>
</g>
<!-- Node32 -->
<g id="Node000032" class="node">
<title>Node32</title>
<g id="a_Node000032"><a xlink:title=" ">
<polygon fill="#e0e0e0" stroke="#999999" points="1373.62,-240.25 1328.38,-240.25 1328.38,-221 1373.62,-221 1373.62,-240.25"/>
<text text-anchor="middle" x="1351" y="-226.75" font-family="Helvetica,sans-Serif" font-size="10.00">variant</text>
</a>
</g>
</g>
<!-- Node28&#45;&gt;Node32 -->
<g id="edge60_Node000028_Node000032" class="edge">
<title>Node28&#45;&gt;Node32</title>
<g id="a_edge60_Node000028_Node000032"><a xlink:title=" ">
<path fill="none" stroke="#63b8ff" d="M1189.91,-275.84C1225.32,-266.12 1281.35,-250.74 1317.13,-240.92"/>
<polygon fill="#63b8ff" stroke="#63b8ff" points="1317.81,-244.37 1326.52,-238.34 1315.95,-237.62 1317.81,-244.37"/>
</a>
</g>
</g>
</g>
</svg>

<g id="navigator" transform="translate(0 0)" fill="#404254">
  <rect fill="#f2f5e9" fill-opacity="0.5" stroke="#606060" stroke-width=".5" x="0" y="0" width="60" height="60"/>
  <use id="zoomplus" xlink:href="#zoomPlus" x="17" y="9" onmousedown="handleZoom(evt,'in')"/>
  <use id="zoomminus" xlink:href="#zoomMin" x="42" y="9" onmousedown="handleZoom(evt,'out')"/>
  <use id="reset" xlink:href="#resetDef" x="30" y="36" onmousedown="handleReset()"/>
   <use id="arrowup" xlink:href="#arrowUp" x="0" y="0" onmousedown="handlePan(0,-1)"/>
  <use id="arrowright" xlink:href="#arrowRight" x="0" y="0" onmousedown="handlePan(1,0)"/>
  <use id="arrowdown" xlink:href="#arrowDown" x="0" y="0" onmousedown="handlePan(0,1)"/>
  <use id="arrowleft" xlink:href="#arrowLeft" x="0" y="0" onmousedown="handlePan(-1,0)"/>
</g>
<svg viewBox="0 0 15 15" width="100%" height="30px" preserveAspectRatio="xMaxYMin meet">
 <g id="arrow_out" transform="scale(0.3 0.3)">
  <a xlink:href="_arg_requirement_policies_8hpp__incl_org.svg" target="_base">
   <rect id="button" ry="5" rx="5" y="6" x="6" height="38" width="38"
        fill="#f2f5e9" fill-opacity="0.5" stroke="#606060" stroke-width="1.0"/>
   <path id="arrow"
     d="M 11.500037,31.436501 C 11.940474,20.09759 22.043105,11.32322 32.158766,21.979434 L 37.068811,17.246167 C 37.068811,17.246167 37.088388,32 37.088388,32 L 22.160133,31.978069 C 22.160133,31.978069 26.997745,27.140456 26.997745,27.140456 C 18.528582,18.264221 13.291696,25.230495 11.500037,31.436501 z"
     style="fill:#404040;"/>
  </a>
 </g>
</svg>

<style type='text/css'>
<![CDATA[
[data-mouse-over-selected='false'] { opacity: 0.7; }
[data-mouse-over-selected='true']  { opacity: 1.0; }
]]>
</style>
<script type="application/ecmascript"><![CDATA[
document.addEventListener('DOMContentLoaded', (event) => {
  highlightEdges();
  highlightAdjacentNodes();
});
]]></script>
</svg>
