<?xml version="1.0" encoding="UTF-8" standalone="no"?>
<!DOCTYPE svg PUBLIC "-//W3C//DTD SVG 1.1//EN"
 "http://www.w3.org/Graphics/SVG/1.1/DTD/svg11.dtd">
<!-- Generated by graphviz version 12.2.1 (20241206.2353)
 -->
<!-- Title: mimicpp::printing::type::parsing::token::FunctionType Pages: 1 -->
<svg width="1000pt" height="265pt"
 viewBox="0.00 0.00 999.55 265.37" xmlns="http://www.w3.org/2000/svg" xmlns:xlink="http://www.w3.org/1999/xlink">
<g id="graph0" class="graph" transform="scale(1 1) rotate(0) translate(4 261.37)">
<title>mimicpp::printing::type::parsing::token::FunctionType</title>
<!-- Node1 -->
<g id="Node000001" class="node">
<title>Node1</title>
<g id="a_Node000001"><a xlink:title=" ">
<polygon fill="#999999" stroke="#666666" points="991.55,-190.75 893.05,-190.75 893.05,-149 991.55,-149 991.55,-190.75"/>
<text text-anchor="start" x="901.05" y="-177.25" font-family="Helvetica,sans-Serif" font-size="10.00">mimicpp::printing::</text>
<text text-anchor="start" x="901.05" y="-166" font-family="Helvetica,sans-Serif" font-size="10.00">type::parsing::token</text>
<text text-anchor="middle" x="942.3" y="-154.75" font-family="Helvetica,sans-Serif" font-size="10.00">::FunctionType</text>
</a>
</g>
</g>
<!-- Node2 -->
<g id="Node000002" class="node">
<title>Node2</title>
<g id="a_Node000002"><a xlink:title=" ">
<polygon fill="white" stroke="#666666" points="478.55,-223.75 353.8,-223.75 353.8,-182 478.55,-182 478.55,-223.75"/>
<text text-anchor="start" x="361.8" y="-210.25" font-family="Helvetica,sans-Serif" font-size="10.00">std::shared_ptr&lt; mimicpp</text>
<text text-anchor="start" x="361.8" y="-199" font-family="Helvetica,sans-Serif" font-size="10.00">::printing::type::parsing</text>
<text text-anchor="middle" x="416.17" y="-187.75" font-family="Helvetica,sans-Serif" font-size="10.00">::token::Type &gt;</text>
</a>
</g>
</g>
<!-- Node2&#45;&gt;Node1 -->
<g id="edge1_Node000001_Node000002" class="edge">
<title>Node2&#45;&gt;Node1</title>
<g id="a_edge1_Node000001_Node000002"><a xlink:title=" ">
<path fill="none" stroke="#9a32cd" stroke-dasharray="5,2" d="M490.01,-198.29C598.64,-191.45 800.19,-178.76 892.65,-172.94"/>
<polygon fill="#9a32cd" stroke="#9a32cd" points="490.11,-194.78 480.35,-198.9 490.55,-201.76 490.11,-194.78"/>
</a>
</g>
<text text-anchor="middle" x="682.8" y="-189.27" font-family="Helvetica,sans-Serif" font-size="10.00" fill="grey"> returnType</text>
</g>
<!-- Node3 -->
<g id="Node000003" class="node">
<title>Node3</title>
<g id="a_Node000003"><a xlink:href="../../d1/da5/classmimicpp_1_1printing_1_1type_1_1parsing_1_1token_1_1_type.html" target="_top" xlink:title=" ">
<polygon fill="white" stroke="#666666" points="230.8,-190.12 106.8,-190.12 106.8,-159.62 230.8,-159.62 230.8,-190.12"/>
<text text-anchor="start" x="114.8" y="-176.62" font-family="Helvetica,sans-Serif" font-size="10.00">mimicpp::printing::</text>
<text text-anchor="middle" x="168.8" y="-165.38" font-family="Helvetica,sans-Serif" font-size="10.00">type::parsing::token::Type</text>
</a>
</g>
</g>
<!-- Node3&#45;&gt;Node2 -->
<g id="edge2_Node000002_Node000003" class="edge">
<title>Node3&#45;&gt;Node2</title>
<g id="a_edge2_Node000002_Node000003"><a xlink:title=" ">
<path fill="none" stroke="#9a32cd" stroke-dasharray="5,2" d="M242.3,-183.15C277.61,-187.18 319.63,-191.97 353.39,-195.83"/>
<polygon fill="#9a32cd" stroke="#9a32cd" points="242.92,-179.7 232.59,-182.04 242.13,-186.65 242.92,-179.7"/>
</a>
</g>
<text text-anchor="middle" x="292.3" y="-194.77" font-family="Helvetica,sans-Serif" font-size="10.00" fill="grey"> ptr</text>
</g>
<!-- Node8 -->
<g id="Node000008" class="node">
<title>Node8</title>
<g id="a_Node000008"><a xlink:title=" ">
<polygon fill="white" stroke="#666666" points="471.42,-160.75 360.92,-160.75 360.92,-119 471.42,-119 471.42,-160.75"/>
<text text-anchor="start" x="368.92" y="-147.25" font-family="Helvetica,sans-Serif" font-size="10.00">std::vector&lt; mimicpp</text>
<text text-anchor="start" x="368.92" y="-136" font-family="Helvetica,sans-Serif" font-size="10.00">::printing::type::parsing</text>
<text text-anchor="middle" x="416.17" y="-124.75" font-family="Helvetica,sans-Serif" font-size="10.00">::token::Type &gt;</text>
</a>
</g>
</g>
<!-- Node3&#45;&gt;Node8 -->
<g id="edge8_Node000008_Node000003" class="edge">
<title>Node3&#45;&gt;Node8</title>
<g id="a_edge8_Node000008_Node000003"><a xlink:title=" ">
<path fill="none" stroke="#9a32cd" stroke-dasharray="5,2" d="M242.06,-164.57C279.95,-159.16 325.61,-152.65 360.52,-147.67"/>
<polygon fill="#9a32cd" stroke="#9a32cd" points="241.99,-161.04 232.58,-165.92 242.98,-167.97 241.99,-161.04"/>
</a>
</g>
<text text-anchor="middle" x="292.3" y="-165.3" font-family="Helvetica,sans-Serif" font-size="10.00" fill="grey"> elements</text>
</g>
<!-- Node4 -->
<g id="Node000004" class="node">
<title>Node4</title>
<g id="a_Node000004"><a xlink:title=" ">
<polygon fill="white" stroke="#666666" points="219.92,-239.5 117.67,-239.5 117.67,-220.25 219.92,-220.25 219.92,-239.5"/>
<text text-anchor="middle" x="168.8" y="-226" font-family="Helvetica,sans-Serif" font-size="10.00">std::shared_ptr&lt; T &gt;</text>
</a>
</g>
</g>
<!-- Node4&#45;&gt;Node2 -->
<g id="edge3_Node000002_Node000004" class="edge">
<title>Node4&#45;&gt;Node2</title>
<g id="a_edge3_Node000002_Node000004"><a xlink:title=" ">
<path fill="none" stroke="orange" stroke-dasharray="5,2" d="M231.55,-225.18C262.83,-222.58 301.39,-219.03 335.8,-214.88 341.61,-214.17 347.65,-213.38 353.69,-212.54"/>
<polygon fill="orange" stroke="orange" points="231.56,-221.67 221.88,-225.97 232.13,-228.64 231.56,-221.67"/>
</a>
</g>
<text text-anchor="start" x="248.8" y="-247.87" font-family="Helvetica,sans-Serif" font-size="10.00" fill="grey"> &lt; mimicpp::printing</text>
<text text-anchor="start" x="248.8" y="-236.62" font-family="Helvetica,sans-Serif" font-size="10.00" fill="grey">::type::parsing::token</text>
<text text-anchor="middle" x="292.3" y="-225.37" font-family="Helvetica,sans-Serif" font-size="10.00" fill="grey">::Type &gt;</text>
</g>
<!-- Node5 -->
<g id="Node000005" class="node">
<title>Node5</title>
<g id="a_Node000005"><a xlink:title=" ">
<polygon fill="white" stroke="#666666" points="28.8,-177.5 0,-177.5 0,-158.25 28.8,-158.25 28.8,-177.5"/>
<text text-anchor="middle" x="14.4" y="-164" font-family="Helvetica,sans-Serif" font-size="10.00">T</text>
</a>
</g>
</g>
<!-- Node5&#45;&gt;Node4 -->
<g id="edge4_Node000004_Node000005" class="edge">
<title>Node5&#45;&gt;Node4</title>
<g id="a_edge4_Node000004_Node000005"><a xlink:title=" ">
<path fill="none" stroke="#9a32cd" stroke-dasharray="5,2" d="M39.76,-177.78C68.04,-189.29 114.44,-208.16 142.93,-219.76"/>
<polygon fill="#9a32cd" stroke="#9a32cd" points="41.18,-174.58 30.6,-174.06 38.54,-181.07 41.18,-174.58"/>
</a>
</g>
<text text-anchor="middle" x="67.8" y="-198.77" font-family="Helvetica,sans-Serif" font-size="10.00" fill="grey"> ptr</text>
</g>
<!-- Node9 -->
<g id="Node000009" class="node">
<title>Node9</title>
<g id="a_Node000009"><a xlink:title=" ">
<polygon fill="white" stroke="#666666" points="210.55,-121.5 127.05,-121.5 127.05,-102.25 210.55,-102.25 210.55,-121.5"/>
<text text-anchor="middle" x="168.8" y="-108" font-family="Helvetica,sans-Serif" font-size="10.00">std::vector&lt; T &gt;</text>
</a>
</g>
</g>
<!-- Node5&#45;&gt;Node9 -->
<g id="edge10_Node000009_Node000005" class="edge">
<title>Node5&#45;&gt;Node9</title>
<g id="a_edge10_Node000009_Node000005"><a xlink:title=" ">
<path fill="none" stroke="#9a32cd" stroke-dasharray="5,2" d="M39.82,-158.9C67.28,-148.81 111.77,-132.46 140.39,-121.95"/>
<polygon fill="#9a32cd" stroke="#9a32cd" points="38.79,-155.55 30.61,-162.28 41.21,-162.12 38.79,-155.55"/>
</a>
</g>
<text text-anchor="middle" x="67.8" y="-157.53" font-family="Helvetica,sans-Serif" font-size="10.00" fill="grey"> elements</text>
</g>
<!-- Node6 -->
<g id="Node000006" class="node">
<title>Node6</title>
<g id="a_Node000006"><a xlink:href="../../d8/dd3/classmimicpp_1_1printing_1_1type_1_1parsing_1_1token_1_1_function_context.html" target="_top" xlink:title=" ">
<polygon fill="white" stroke="#666666" points="823.3,-160.75 724.8,-160.75 724.8,-119 823.3,-119 823.3,-160.75"/>
<text text-anchor="start" x="732.8" y="-147.25" font-family="Helvetica,sans-Serif" font-size="10.00">mimicpp::printing::</text>
<text text-anchor="start" x="732.8" y="-136" font-family="Helvetica,sans-Serif" font-size="10.00">type::parsing::token</text>
<text text-anchor="middle" x="774.05" y="-124.75" font-family="Helvetica,sans-Serif" font-size="10.00">::FunctionContext</text>
</a>
</g>
</g>
<!-- Node6&#45;&gt;Node1 -->
<g id="edge5_Node000001_Node000006" class="edge">
<title>Node6&#45;&gt;Node1</title>
<g id="a_edge5_Node000001_Node000006"><a xlink:title=" ">
<path fill="none" stroke="#9a32cd" stroke-dasharray="5,2" d="M834.84,-150.66C853.83,-154.09 874.6,-157.84 892.71,-161.11"/>
<polygon fill="#9a32cd" stroke="#9a32cd" points="835.54,-147.23 825.07,-148.9 834.29,-154.12 835.54,-147.23"/>
</a>
</g>
<text text-anchor="middle" x="858.17" y="-159.31" font-family="Helvetica,sans-Serif" font-size="10.00" fill="grey"> context</text>
</g>
<!-- Node7 -->
<g id="Node000007" class="node">
<title>Node7</title>
<g id="a_Node000007"><a xlink:href="../../d6/d54/classmimicpp_1_1printing_1_1type_1_1parsing_1_1token_1_1_arg_sequence.html" target="_top" xlink:title=" ">
<polygon fill="white" stroke="#666666" points="640.8,-160.75 542.3,-160.75 542.3,-119 640.8,-119 640.8,-160.75"/>
<text text-anchor="start" x="550.3" y="-147.25" font-family="Helvetica,sans-Serif" font-size="10.00">mimicpp::printing::</text>
<text text-anchor="start" x="550.3" y="-136" font-family="Helvetica,sans-Serif" font-size="10.00">type::parsing::token</text>
<text text-anchor="middle" x="591.55" y="-124.75" font-family="Helvetica,sans-Serif" font-size="10.00">::ArgSequence</text>
</a>
</g>
</g>
<!-- Node7&#45;&gt;Node6 -->
<g id="edge6_Node000006_Node000007" class="edge">
<title>Node7&#45;&gt;Node6</title>
<g id="a_edge6_Node000006_Node000007"><a xlink:title=" ">
<path fill="none" stroke="#9a32cd" stroke-dasharray="5,2" d="M652.16,-139.88C675.65,-139.88 702.27,-139.88 724.55,-139.88"/>
<polygon fill="#9a32cd" stroke="#9a32cd" points="652.43,-136.38 642.43,-139.88 652.43,-143.38 652.43,-136.38"/>
</a>
</g>
<text text-anchor="middle" x="682.8" y="-141.62" font-family="Helvetica,sans-Serif" font-size="10.00" fill="grey"> args</text>
</g>
<!-- Node8&#45;&gt;Node7 -->
<g id="edge7_Node000007_Node000008" class="edge">
<title>Node8&#45;&gt;Node7</title>
<g id="a_edge7_Node000007_Node000008"><a xlink:title=" ">
<path fill="none" stroke="#9a32cd" stroke-dasharray="5,2" d="M482.89,-139.88C502.5,-139.88 523.64,-139.88 541.94,-139.88"/>
<polygon fill="#9a32cd" stroke="#9a32cd" points="483.07,-136.38 473.07,-139.88 483.07,-143.38 483.07,-136.38"/>
</a>
</g>
<text text-anchor="middle" x="510.42" y="-141.62" font-family="Helvetica,sans-Serif" font-size="10.00" fill="grey"> types</text>
</g>
<!-- Node9&#45;&gt;Node8 -->
<g id="edge9_Node000008_Node000009" class="edge">
<title>Node9&#45;&gt;Node8</title>
<g id="a_edge9_Node000008_Node000009"><a xlink:title=" ">
<path fill="none" stroke="orange" stroke-dasharray="5,2" d="M222.21,-108.05C255.07,-106.69 298.17,-106.81 335.8,-113.12 343.97,-114.5 352.44,-116.58 360.67,-119"/>
<polygon fill="orange" stroke="orange" points="222.38,-104.54 212.56,-108.51 222.71,-111.53 222.38,-104.54"/>
</a>
</g>
<text text-anchor="start" x="248.8" y="-137.38" font-family="Helvetica,sans-Serif" font-size="10.00" fill="grey"> &lt; mimicpp::printing</text>
<text text-anchor="start" x="248.8" y="-126.12" font-family="Helvetica,sans-Serif" font-size="10.00" fill="grey">::type::parsing::token</text>
<text text-anchor="middle" x="292.3" y="-114.88" font-family="Helvetica,sans-Serif" font-size="10.00" fill="grey">::Type &gt;</text>
</g>
<!-- Node11 -->
<g id="Node000011" class="node">
<title>Node11</title>
<g id="a_Node000011"><a xlink:title=" ">
<polygon fill="white" stroke="#666666" points="472.92,-75.75 359.42,-75.75 359.42,-34 472.92,-34 472.92,-75.75"/>
<text text-anchor="start" x="367.42" y="-62.25" font-family="Helvetica,sans-Serif" font-size="10.00">std::vector&lt; mimicpp</text>
<text text-anchor="start" x="367.42" y="-51" font-family="Helvetica,sans-Serif" font-size="10.00">::printing::type::parsing</text>
<text text-anchor="middle" x="416.17" y="-39.75" font-family="Helvetica,sans-Serif" font-size="10.00">::token::Specs::Layer &gt;</text>
</a>
</g>
</g>
<!-- Node9&#45;&gt;Node11 -->
<g id="edge14_Node000011_Node000009" class="edge">
<title>Node9&#45;&gt;Node11</title>
<g id="a_edge14_Node000011_Node000009"><a xlink:title=" ">
<path fill="none" stroke="orange" stroke-dasharray="5,2" d="M193.42,-95.75C208.56,-86.28 229.01,-75.05 248.8,-69.12 284.49,-58.45 326.27,-54.9 359.03,-54.01"/>
<polygon fill="orange" stroke="orange" points="191.63,-92.74 185.13,-101.11 195.43,-98.62 191.63,-92.74"/>
</a>
</g>
<text text-anchor="start" x="248.8" y="-93.38" font-family="Helvetica,sans-Serif" font-size="10.00" fill="grey"> &lt; mimicpp::printing</text>
<text text-anchor="start" x="248.8" y="-82.12" font-family="Helvetica,sans-Serif" font-size="10.00" fill="grey">::type::parsing::token</text>
<text text-anchor="middle" x="292.3" y="-70.88" font-family="Helvetica,sans-Serif" font-size="10.00" fill="grey">::Specs::Layer &gt;</text>
</g>
<!-- Node10 -->
<g id="Node000010" class="node">
<title>Node10</title>
<g id="a_Node000010"><a xlink:href="../../de/db7/classmimicpp_1_1printing_1_1type_1_1parsing_1_1token_1_1_specs.html" target="_top" xlink:title=" ">
<polygon fill="white" stroke="#666666" points="640.8,-93.75 542.3,-93.75 542.3,-52 640.8,-52 640.8,-93.75"/>
<text text-anchor="start" x="550.3" y="-80.25" font-family="Helvetica,sans-Serif" font-size="10.00">mimicpp::printing::</text>
<text text-anchor="start" x="550.3" y="-69" font-family="Helvetica,sans-Serif" font-size="10.00">type::parsing::token</text>
<text text-anchor="middle" x="591.55" y="-57.75" font-family="Helvetica,sans-Serif" font-size="10.00">::Specs</text>
</a>
</g>
</g>
<!-- Node10&#45;&gt;Node6 -->
<g id="edge11_Node000006_Node000010" class="edge">
<title>Node10&#45;&gt;Node6</title>
<g id="a_edge11_Node000006_Node000010"><a xlink:title=" ">
<path fill="none" stroke="#9a32cd" stroke-dasharray="5,2" d="M651.52,-94.77C675.16,-103.54 702.07,-113.53 724.55,-121.87"/>
<polygon fill="#9a32cd" stroke="#9a32cd" points="652.93,-91.56 642.34,-91.36 650.5,-98.12 652.93,-91.56"/>
</a>
</g>
<text text-anchor="middle" x="682.8" y="-116.1" font-family="Helvetica,sans-Serif" font-size="10.00" fill="grey"> specs</text>
</g>
<!-- Node11&#45;&gt;Node10 -->
<g id="edge12_Node000010_Node000011" class="edge">
<title>Node11&#45;&gt;Node10</title>
<g id="a_edge12_Node000010_Node000011"><a xlink:title=" ">
<path fill="none" stroke="#9a32cd" stroke-dasharray="5,2" d="M484.39,-61.85C503.54,-63.84 524.03,-65.97 541.85,-67.82"/>
<polygon fill="#9a32cd" stroke="#9a32cd" points="484.8,-58.38 474.49,-60.83 484.08,-65.34 484.8,-58.38"/>
</a>
</g>
<text text-anchor="middle" x="510.42" y="-67.24" font-family="Helvetica,sans-Serif" font-size="10.00" fill="grey"> layers</text>
</g>
<!-- Node12 -->
<g id="Node000012" class="node">
<title>Node12</title>
<g id="a_Node000012"><a xlink:href="../../d4/dcb/structmimicpp_1_1printing_1_1type_1_1parsing_1_1token_1_1_specs_1_1_layer.html" target="_top" xlink:title=" ">
<polygon fill="white" stroke="#666666" points="218.05,-41.75 119.55,-41.75 119.55,0 218.05,0 218.05,-41.75"/>
<text text-anchor="start" x="127.55" y="-28.25" font-family="Helvetica,sans-Serif" font-size="10.00">mimicpp::printing::</text>
<text text-anchor="start" x="127.55" y="-17" font-family="Helvetica,sans-Serif" font-size="10.00">type::parsing::token</text>
<text text-anchor="middle" x="168.8" y="-5.75" font-family="Helvetica,sans-Serif" font-size="10.00">::Specs::Layer</text>
</a>
</g>
</g>
<!-- Node12&#45;&gt;Node11 -->
<g id="edge13_Node000011_Node000012" class="edge">
<title>Node12&#45;&gt;Node11</title>
<g id="a_edge13_Node000011_Node000012"><a xlink:title=" ">
<path fill="none" stroke="#9a32cd" stroke-dasharray="5,2" d="M229.61,-15.55C261.45,-14.11 301.09,-14.57 335.8,-21.62 348.24,-24.16 361.18,-28.67 372.9,-33.57"/>
<polygon fill="#9a32cd" stroke="#9a32cd" points="229.56,-12.05 219.76,-16.07 229.94,-19.04 229.56,-12.05"/>
</a>
</g>
<text text-anchor="middle" x="292.3" y="-23.38" font-family="Helvetica,sans-Serif" font-size="10.00" fill="grey"> elements</text>
</g>
</g>
</svg>
