<?xml version="1.0" encoding="UTF-8" standalone="no"?>
<!DOCTYPE svg PUBLIC "-//W3C//DTD SVG 1.1//EN"
 "http://www.w3.org/Graphics/SVG/1.1/DTD/svg11.dtd">
<!-- Generated by graphviz version 12.1.2 (20240928.0832)
 -->
<!-- Title: mimic++/adapters/Catch2.hpp Pages: 1 -->
<svg width="1294pt" height="414pt"
 viewBox="0.00 0.00 1293.66 414.00" xmlns="http://www.w3.org/2000/svg" xmlns:xlink="http://www.w3.org/1999/xlink">
<g id="graph0" class="graph" transform="scale(1 1) rotate(0) translate(4 410)">
<title>mimic++/adapters/Catch2.hpp</title>
<!-- Node1 -->
<g id="Node000001" class="node">
<title>Node1</title>
<g id="a_Node000001"><a xlink:title=" ">
<polygon fill="#999999" stroke="#666666" points="534.91,-406 388.41,-406 388.41,-386.75 534.91,-386.75 534.91,-406"/>
<text text-anchor="middle" x="461.66" y="-392.5" font-family="Helvetica,sans-Serif" font-size="10.00">mimic++/adapters/Catch2.hpp</text>
</a>
</g>
</g>
<!-- Node2 -->
<g id="Node000002" class="node">
<title>Node2</title>
<g id="a_Node000002"><a xlink:href="../../da/dd9/_reporter_8hpp.html" target="_top" xlink:title=" ">
<polygon fill="white" stroke="#666666" points="993.66,-350.75 881.66,-350.75 881.66,-331.5 993.66,-331.5 993.66,-350.75"/>
<text text-anchor="middle" x="937.66" y="-337.25" font-family="Helvetica,sans-Serif" font-size="10.00">mimic++/Reporter.hpp</text>
</a>
</g>
</g>
<!-- Node1&#45;&gt;Node2 -->
<g id="edge1_Node000001_Node000002" class="edge">
<title>Node1&#45;&gt;Node2</title>
<g id="a_edge1_Node000001_Node000002"><a xlink:title=" ">
<path fill="none" stroke="#63b8ff" d="M535.25,-387.14C626.75,-376.91 781.65,-359.58 870.2,-349.67"/>
<polygon fill="#63b8ff" stroke="#63b8ff" points="870.4,-353.17 879.95,-348.58 869.62,-346.21 870.4,-353.17"/>
</a>
</g>
</g>
<!-- Node21 -->
<g id="Node000021" class="node">
<title>Node21</title>
<g id="a_Node000021"><a xlink:title=" ">
<polygon fill="#e0e0e0" stroke="#999999" points="61.66,-185 15.66,-185 15.66,-165.75 61.66,-165.75 61.66,-185"/>
<text text-anchor="middle" x="38.66" y="-171.5" font-family="Helvetica,sans-Serif" font-size="10.00">iterator</text>
</a>
</g>
</g>
<!-- Node1&#45;&gt;Node21 -->
<g id="edge69_Node000001_Node000021" class="edge">
<title>Node1&#45;&gt;Node21</title>
<g id="a_edge69_Node000001_Node000021"><a xlink:title=" ">
<path fill="none" stroke="#63b8ff" d="M415.81,-386.28C339,-369.12 182.64,-325.76 79.66,-240.25 65.1,-228.16 53.97,-209.53 47.01,-195.51"/>
<polygon fill="#63b8ff" stroke="#63b8ff" points="50.36,-194.42 42.97,-186.83 44.02,-197.38 50.36,-194.42"/>
</a>
</g>
</g>
<!-- Node3 -->
<g id="Node000003" class="node">
<title>Node3</title>
<g id="a_Node000003"><a xlink:href="../../dc/d44/_call_8hpp.html" target="_top" xlink:title=" ">
<polygon fill="white" stroke="#666666" points="792.53,-185 700.78,-185 700.78,-165.75 792.53,-165.75 792.53,-185"/>
<text text-anchor="middle" x="746.66" y="-171.5" font-family="Helvetica,sans-Serif" font-size="10.00">mimic++/Call.hpp</text>
</a>
</g>
</g>
<!-- Node2&#45;&gt;Node3 -->
<g id="edge2_Node000002_Node000003" class="edge">
<title>Node2&#45;&gt;Node3</title>
<g id="a_edge2_Node000002_Node000003"><a xlink:title=" ">
<path fill="none" stroke="#63b8ff" d="M881.31,-335.52C827.75,-329.84 752.77,-318.03 734.66,-295.5 711.73,-266.98 726.01,-221.36 737.17,-195.63"/>
<polygon fill="#63b8ff" stroke="#63b8ff" points="740.27,-197.27 741.29,-186.72 733.91,-194.33 740.27,-197.27"/>
</a>
</g>
</g>
<!-- Node4 -->
<g id="Node000004" class="node">
<title>Node4</title>
<g id="a_Node000004"><a xlink:href="../../df/dde/_fwd_8hpp.html" target="_top" xlink:title=" ">
<polygon fill="white" stroke="#666666" points="299.66,-74.5 205.66,-74.5 205.66,-55.25 299.66,-55.25 299.66,-74.5"/>
<text text-anchor="middle" x="252.66" y="-61" font-family="Helvetica,sans-Serif" font-size="10.00">mimic++/Fwd.hpp</text>
</a>
</g>
</g>
<!-- Node2&#45;&gt;Node4 -->
<g id="edge23_Node000002_Node000004" class="edge">
<title>Node2&#45;&gt;Node4</title>
<g id="a_edge23_Node000002_Node000004"><a xlink:title=" ">
<path fill="none" stroke="#63b8ff" d="M881.35,-337.43C714.72,-328.86 226.56,-299.24 79.66,-240.25 41.9,-225.09 24.77,-221.43 6.66,-185 -31.92,-107.41 109.7,-79.9 194.08,-70.5"/>
<polygon fill="#63b8ff" stroke="#63b8ff" points="194.24,-74.01 203.82,-69.48 193.51,-67.04 194.24,-74.01"/>
</a>
</g>
</g>
<!-- Node14 -->
<g id="Node000014" class="node">
<title>Node14</title>
<g id="a_Node000014"><a xlink:title=" ">
<polygon fill="#e0e0e0" stroke="#999999" points="1127.78,-74.5 1079.53,-74.5 1079.53,-55.25 1127.78,-55.25 1127.78,-74.5"/>
<text text-anchor="middle" x="1103.66" y="-61" font-family="Helvetica,sans-Serif" font-size="10.00">cassert</text>
</a>
</g>
</g>
<!-- Node2&#45;&gt;Node14 -->
<g id="edge61_Node000002_Node000014" class="edge">
<title>Node2&#45;&gt;Node14</title>
<g id="a_edge61_Node000002_Node000014"><a xlink:title=" ">
<path fill="none" stroke="#63b8ff" d="M993.95,-336.56C1068.36,-331.02 1194.74,-318.52 1234.66,-295.5 1266.13,-277.35 1285.66,-267.95 1285.66,-231.62 1285.66,-231.62 1285.66,-231.62 1285.66,-174.38 1285.66,-107 1192.5,-80.5 1139.49,-70.87"/>
<polygon fill="#63b8ff" stroke="#63b8ff" points="1140.14,-67.43 1129.7,-69.21 1138.97,-74.33 1140.14,-67.43"/>
</a>
</g>
</g>
<!-- Node17 -->
<g id="Node000017" class="node">
<title>Node17</title>
<g id="a_Node000017"><a xlink:href="../../da/dab/_printer_8hpp.html" target="_top" xlink:title=" ">
<polygon fill="white" stroke="#666666" points="674.53,-240.25 570.78,-240.25 570.78,-221 674.53,-221 674.53,-240.25"/>
<text text-anchor="middle" x="622.66" y="-226.75" font-family="Helvetica,sans-Serif" font-size="10.00">mimic++/Printer.hpp</text>
</a>
</g>
</g>
<!-- Node2&#45;&gt;Node17 -->
<g id="edge24_Node000002_Node000017" class="edge">
<title>Node2&#45;&gt;Node17</title>
<g id="a_edge24_Node000002_Node000017"><a xlink:title=" ">
<path fill="none" stroke="#63b8ff" d="M881.44,-338.34C830.4,-334.78 754.22,-324.54 694.66,-295.5 671.77,-284.34 650.62,-263.84 637.25,-249.06"/>
<polygon fill="#63b8ff" stroke="#63b8ff" points="640.19,-247.11 630.98,-241.88 634.92,-251.72 640.19,-247.11"/>
</a>
</g>
</g>
<!-- Node19 -->
<g id="Node000019" class="node">
<title>Node19</title>
<g id="a_Node000019"><a xlink:title=" ">
<polygon fill="#e0e0e0" stroke="#999999" points="1003.66,-129.75 945.66,-129.75 945.66,-110.5 1003.66,-110.5 1003.66,-129.75"/>
<text text-anchor="middle" x="974.66" y="-116.25" font-family="Helvetica,sans-Serif" font-size="10.00">functional</text>
</a>
</g>
</g>
<!-- Node2&#45;&gt;Node19 -->
<g id="edge63_Node000002_Node000019" class="edge">
<title>Node2&#45;&gt;Node19</title>
<g id="a_edge63_Node000002_Node000019"><a xlink:title=" ">
<path fill="none" stroke="#63b8ff" d="M940.39,-331.07C945.14,-316.98 956.3,-289.99 975.66,-276.25 1041.11,-229.78 1101.86,-302.41 1152.66,-240.25 1196.94,-186.06 1079.91,-147.16 1014.82,-130.36"/>
<polygon fill="#63b8ff" stroke="#63b8ff" points="1015.72,-126.98 1005.17,-127.94 1014.02,-133.77 1015.72,-126.98"/>
</a>
</g>
</g>
<!-- Node20 -->
<g id="Node000020" class="node">
<title>Node20</title>
<g id="a_Node000020"><a xlink:title=" ">
<polygon fill="#e0e0e0" stroke="#999999" points="1073.28,-129.75 1028.03,-129.75 1028.03,-110.5 1073.28,-110.5 1073.28,-129.75"/>
<text text-anchor="middle" x="1050.66" y="-116.25" font-family="Helvetica,sans-Serif" font-size="10.00">ranges</text>
</a>
</g>
</g>
<!-- Node2&#45;&gt;Node20 -->
<g id="edge67_Node000002_Node000020" class="edge">
<title>Node2&#45;&gt;Node20</title>
<g id="a_edge67_Node000002_Node000020"><a xlink:title=" ">
<path fill="none" stroke="#63b8ff" d="M993.98,-339.13C1065.4,-336.55 1182.55,-327.41 1209.66,-295.5 1244.27,-254.75 1282.7,-292.68 1143.66,-165.75 1126.63,-150.21 1103.21,-139.01 1084.13,-131.72"/>
<polygon fill="#63b8ff" stroke="#63b8ff" points="1085.5,-128.49 1074.91,-128.39 1083.12,-135.08 1085.5,-128.49"/>
</a>
</g>
</g>
<!-- Node22 -->
<g id="Node000022" class="node">
<title>Node22</title>
<g id="a_Node000022"><a xlink:title=" ">
<polygon fill="#e0e0e0" stroke="#999999" points="1050.53,-185 1000.78,-185 1000.78,-165.75 1050.53,-165.75 1050.53,-185"/>
<text text-anchor="middle" x="1025.66" y="-171.5" font-family="Helvetica,sans-Serif" font-size="10.00">optional</text>
</a>
</g>
</g>
<!-- Node2&#45;&gt;Node22 -->
<g id="edge66_Node000002_Node000022" class="edge">
<title>Node2&#45;&gt;Node22</title>
<g id="a_edge66_Node000002_Node000022"><a xlink:title=" ">
<path fill="none" stroke="#63b8ff" d="M994.12,-338.33C1060.88,-334.87 1166.07,-324.8 1190.66,-295.5 1233.75,-244.14 1122.29,-203.46 1061.73,-185.86"/>
<polygon fill="#63b8ff" stroke="#63b8ff" points="1062.74,-182.5 1052.16,-183.15 1060.84,-189.24 1062.74,-182.5"/>
</a>
</g>
</g>
<!-- Node25 -->
<g id="Node000025" class="node">
<title>Node25</title>
<g id="a_Node000025"><a xlink:href="../../d0/d3b/_reports_8hpp.html" target="_top" xlink:title=" ">
<polygon fill="white" stroke="#666666" points="852.16,-295.5 743.16,-295.5 743.16,-276.25 852.16,-276.25 852.16,-295.5"/>
<text text-anchor="middle" x="797.66" y="-282" font-family="Helvetica,sans-Serif" font-size="10.00">mimic++/Reports.hpp</text>
</a>
</g>
</g>
<!-- Node2&#45;&gt;Node25 -->
<g id="edge48_Node000002_Node000025" class="edge">
<title>Node2&#45;&gt;Node25</title>
<g id="a_edge48_Node000002_Node000025"><a xlink:title=" ">
<path fill="none" stroke="#63b8ff" d="M913.91,-331.09C891.48,-322.56 857.59,-309.67 832.18,-300.01"/>
<polygon fill="#63b8ff" stroke="#63b8ff" points="833.53,-296.77 822.94,-296.49 831.04,-303.32 833.53,-296.77"/>
</a>
</g>
</g>
<!-- Node26 -->
<g id="Node000026" class="node">
<title>Node26</title>
<g id="a_Node000026"><a xlink:title=" ">
<polygon fill="#e0e0e0" stroke="#999999" points="1082.53,-240.25 1026.78,-240.25 1026.78,-221 1082.53,-221 1082.53,-240.25"/>
<text text-anchor="middle" x="1054.66" y="-226.75" font-family="Helvetica,sans-Serif" font-size="10.00">algorithm</text>
</a>
</g>
</g>
<!-- Node2&#45;&gt;Node26 -->
<g id="edge60_Node000002_Node000026" class="edge">
<title>Node2&#45;&gt;Node26</title>
<g id="a_edge60_Node000002_Node000026"><a xlink:title=" ">
<path fill="none" stroke="#63b8ff" d="M927.11,-331.34C913,-318.52 891.23,-294.26 904.66,-276.25 911.45,-267.15 973.33,-250.9 1015.46,-240.73"/>
<polygon fill="#63b8ff" stroke="#63b8ff" points="1016.11,-244.17 1025.02,-238.44 1014.48,-237.36 1016.11,-244.17"/>
</a>
</g>
</g>
<!-- Node29 -->
<g id="Node000029" class="node">
<title>Node29</title>
<g id="a_Node000029"><a xlink:title=" ">
<polygon fill="#e0e0e0" stroke="#999999" points="1143.16,-240.25 1100.16,-240.25 1100.16,-221 1143.16,-221 1143.16,-240.25"/>
<text text-anchor="middle" x="1121.66" y="-226.75" font-family="Helvetica,sans-Serif" font-size="10.00">vector</text>
</a>
</g>
</g>
<!-- Node2&#45;&gt;Node29 -->
<g id="edge68_Node000002_Node000029" class="edge">
<title>Node2&#45;&gt;Node29</title>
<g id="a_edge68_Node000002_Node000029"><a xlink:title=" ">
<path fill="none" stroke="#63b8ff" d="M935.38,-331.06C932.54,-317.44 929.52,-291.66 942.66,-276.25 984.61,-227.04 1021.83,-254.51 1088.73,-240.64"/>
<polygon fill="#63b8ff" stroke="#63b8ff" points="1089.33,-244.1 1098.26,-238.39 1087.72,-237.29 1089.33,-244.1"/>
</a>
</g>
</g>
<!-- Node30 -->
<g id="Node000030" class="node">
<title>Node30</title>
<g id="a_Node000030"><a xlink:title=" ">
<polygon fill="#e0e0e0" stroke="#999999" points="1042.28,-295.5 985.03,-295.5 985.03,-276.25 1042.28,-276.25 1042.28,-295.5"/>
<text text-anchor="middle" x="1013.66" y="-282" font-family="Helvetica,sans-Serif" font-size="10.00">exception</text>
</a>
</g>
</g>
<!-- Node2&#45;&gt;Node30 -->
<g id="edge62_Node000002_Node000030" class="edge">
<title>Node2&#45;&gt;Node30</title>
<g id="a_edge62_Node000002_Node000030"><a xlink:title=" ">
<path fill="none" stroke="#63b8ff" d="M950.55,-331.09C961.69,-323.29 978.03,-311.84 991.3,-302.54"/>
<polygon fill="#63b8ff" stroke="#63b8ff" points="993.28,-305.43 999.46,-296.82 989.26,-299.69 993.28,-305.43"/>
</a>
</g>
</g>
<!-- Node31 -->
<g id="Node000031" class="node">
<title>Node31</title>
<g id="a_Node000031"><a xlink:title=" ">
<polygon fill="#e0e0e0" stroke="#999999" points="1113.41,-295.5 1059.91,-295.5 1059.91,-276.25 1113.41,-276.25 1113.41,-295.5"/>
<text text-anchor="middle" x="1086.66" y="-282" font-family="Helvetica,sans-Serif" font-size="10.00">iostream</text>
</a>
</g>
</g>
<!-- Node2&#45;&gt;Node31 -->
<g id="edge64_Node000002_Node000031" class="edge">
<title>Node2&#45;&gt;Node31</title>
<g id="a_edge64_Node000002_Node000031"><a xlink:title=" ">
<path fill="none" stroke="#63b8ff" d="M962.93,-331.09C987.01,-322.49 1023.52,-309.44 1050.64,-299.75"/>
<polygon fill="#63b8ff" stroke="#63b8ff" points="1051.59,-303.12 1059.83,-296.46 1049.24,-296.53 1051.59,-303.12"/>
</a>
</g>
</g>
<!-- Node32 -->
<g id="Node000032" class="node">
<title>Node32</title>
<g id="a_Node000032"><a xlink:title=" ">
<polygon fill="#e0e0e0" stroke="#999999" points="1181.91,-295.5 1131.41,-295.5 1131.41,-276.25 1181.91,-276.25 1181.91,-295.5"/>
<text text-anchor="middle" x="1156.66" y="-282" font-family="Helvetica,sans-Serif" font-size="10.00">memory</text>
</a>
</g>
</g>
<!-- Node2&#45;&gt;Node32 -->
<g id="edge65_Node000002_Node000032" class="edge">
<title>Node2&#45;&gt;Node32</title>
<g id="a_edge65_Node000002_Node000032"><a xlink:title=" ">
<path fill="none" stroke="#63b8ff" d="M975.96,-331.03C1011.05,-322.66 1064.74,-309.78 1119.98,-296.14"/>
<polygon fill="#63b8ff" stroke="#63b8ff" points="1120.71,-299.57 1129.58,-293.77 1119.03,-292.77 1120.71,-299.57"/>
</a>
</g>
</g>
<!-- Node3&#45;&gt;Node4 -->
<g id="edge3_Node000003_Node000004" class="edge">
<title>Node3&#45;&gt;Node4</title>
<g id="a_edge3_Node000003_Node000004"><a xlink:title=" ">
<path fill="none" stroke="#63b8ff" d="M700.51,-169.6C622.25,-161.27 466.85,-143.64 413.66,-129.75 365.77,-117.24 312.91,-94.41 281.26,-79.71"/>
<polygon fill="#63b8ff" stroke="#63b8ff" points="282.9,-76.61 272.36,-75.52 279.92,-82.94 282.9,-76.61"/>
</a>
</g>
</g>
<!-- Node7 -->
<g id="Node000007" class="node">
<title>Node7</title>
<g id="a_Node000007"><a xlink:href="../../d8/d32/_type_traits_8hpp.html" target="_top" xlink:title=" ">
<polygon fill="white" stroke="#666666" points="543.16,-129.75 422.16,-129.75 422.16,-110.5 543.16,-110.5 543.16,-129.75"/>
<text text-anchor="middle" x="482.66" y="-116.25" font-family="Helvetica,sans-Serif" font-size="10.00">mimic++/TypeTraits.hpp</text>
</a>
</g>
</g>
<!-- Node3&#45;&gt;Node7 -->
<g id="edge6_Node000003_Node000007" class="edge">
<title>Node3&#45;&gt;Node7</title>
<g id="a_edge6_Node000003_Node000007"><a xlink:title=" ">
<path fill="none" stroke="#63b8ff" d="M701.57,-165.28C656.58,-156.21 587.34,-142.24 538.8,-132.45"/>
<polygon fill="#63b8ff" stroke="#63b8ff" points="539.53,-129.03 529.04,-130.48 538.15,-135.89 539.53,-129.03"/>
</a>
</g>
</g>
<!-- Node11 -->
<g id="Node000011" class="node">
<title>Node11</title>
<g id="a_Node000011"><a xlink:title=" ">
<polygon fill="#e0e0e0" stroke="#999999" points="677.16,-74.5 640.16,-74.5 640.16,-55.25 677.16,-55.25 677.16,-74.5"/>
<text text-anchor="middle" x="658.66" y="-61" font-family="Helvetica,sans-Serif" font-size="10.00">tuple</text>
</a>
</g>
</g>
<!-- Node3&#45;&gt;Node11 -->
<g id="edge21_Node000003_Node000011" class="edge">
<title>Node3&#45;&gt;Node11</title>
<g id="a_edge21_Node000003_Node000011"><a xlink:title=" ">
<path fill="none" stroke="#63b8ff" d="M716.79,-165.36C699.3,-158.48 678.39,-147.16 666.66,-129.75 658.04,-116.97 656.39,-99.42 656.69,-85.95"/>
<polygon fill="#63b8ff" stroke="#63b8ff" points="660.18,-86.29 657.33,-76.08 653.19,-85.84 660.18,-86.29"/>
</a>
</g>
</g>
<!-- Node13 -->
<g id="Node000013" class="node">
<title>Node13</title>
<g id="a_Node000013"><a xlink:href="../../d4/d2c/_utility_8hpp.html" target="_top" xlink:title=" ">
<polygon fill="white" stroke="#666666" points="775.66,-129.75 675.66,-129.75 675.66,-110.5 775.66,-110.5 775.66,-129.75"/>
<text text-anchor="middle" x="725.66" y="-116.25" font-family="Helvetica,sans-Serif" font-size="10.00">mimic++/Utility.hpp</text>
</a>
</g>
</g>
<!-- Node3&#45;&gt;Node13 -->
<g id="edge13_Node000003_Node000013" class="edge">
<title>Node3&#45;&gt;Node13</title>
<g id="a_edge13_Node000003_Node000013"><a xlink:title=" ">
<path fill="none" stroke="#63b8ff" d="M743.19,-165.58C740.53,-158.84 736.76,-149.27 733.39,-140.74"/>
<polygon fill="#63b8ff" stroke="#63b8ff" points="736.68,-139.54 729.76,-131.52 730.17,-142.1 736.68,-139.54"/>
</a>
</g>
</g>
<!-- Node15 -->
<g id="Node000015" class="node">
<title>Node15</title>
<g id="a_Node000015"><a xlink:title=" ">
<polygon fill="#e0e0e0" stroke="#999999" points="843.78,-74.5 759.53,-74.5 759.53,-55.25 843.78,-55.25 843.78,-74.5"/>
<text text-anchor="middle" x="801.66" y="-61" font-family="Helvetica,sans-Serif" font-size="10.00">source_location</text>
</a>
</g>
</g>
<!-- Node3&#45;&gt;Node15 -->
<g id="edge20_Node000003_Node000015" class="edge">
<title>Node3&#45;&gt;Node15</title>
<g id="a_edge20_Node000003_Node000015"><a xlink:title=" ">
<path fill="none" stroke="#63b8ff" d="M756.48,-165.38C765.11,-156.96 777.38,-143.63 784.66,-129.75 791.92,-115.89 796.27,-98.66 798.75,-85.59"/>
<polygon fill="#63b8ff" stroke="#63b8ff" points="802.15,-86.52 800.34,-76.08 795.24,-85.36 802.15,-86.52"/>
</a>
</g>
</g>
<!-- Node16 -->
<g id="Node000016" class="node">
<title>Node16</title>
<g id="a_Node000016"><a xlink:title=" ">
<polygon fill="#e0e0e0" stroke="#999999" points="899.91,-74.5 861.41,-74.5 861.41,-55.25 899.91,-55.25 899.91,-74.5"/>
<text text-anchor="middle" x="880.66" y="-61" font-family="Helvetica,sans-Serif" font-size="10.00">utility</text>
</a>
</g>
</g>
<!-- Node3&#45;&gt;Node16 -->
<g id="edge22_Node000003_Node000016" class="edge">
<title>Node3&#45;&gt;Node16</title>
<g id="a_edge22_Node000003_Node000016"><a xlink:title=" ">
<path fill="none" stroke="#63b8ff" d="M757.85,-165.53C769.18,-156.56 787.18,-142.25 802.66,-129.75 822.73,-113.54 845.55,-94.82 861.29,-81.85"/>
<polygon fill="#63b8ff" stroke="#63b8ff" points="863.44,-84.62 868.93,-75.56 858.98,-79.22 863.44,-84.62"/>
</a>
</g>
</g>
<!-- Node5 -->
<g id="Node000005" class="node">
<title>Node5</title>
<g id="a_Node000005"><a xlink:title=" ">
<polygon fill="#e0e0e0" stroke="#999999" points="197.66,-19.25 157.66,-19.25 157.66,0 197.66,0 197.66,-19.25"/>
<text text-anchor="middle" x="177.66" y="-5.75" font-family="Helvetica,sans-Serif" font-size="10.00">string</text>
</a>
</g>
</g>
<!-- Node4&#45;&gt;Node5 -->
<g id="edge4_Node000004_Node000005" class="edge">
<title>Node4&#45;&gt;Node5</title>
<g id="a_edge4_Node000004_Node000005"><a xlink:title=" ">
<path fill="none" stroke="#63b8ff" d="M239.93,-54.84C228.94,-47.04 212.82,-35.59 199.72,-26.29"/>
<polygon fill="#63b8ff" stroke="#63b8ff" points="201.86,-23.51 191.68,-20.58 197.8,-29.22 201.86,-23.51"/>
</a>
</g>
</g>
<!-- Node6 -->
<g id="Node000006" class="node">
<title>Node6</title>
<g id="a_Node000006"><a xlink:title=" ">
<polygon fill="#e0e0e0" stroke="#999999" points="464.41,-19.25 398.91,-19.25 398.91,0 464.41,0 464.41,-19.25"/>
<text text-anchor="middle" x="431.66" y="-5.75" font-family="Helvetica,sans-Serif" font-size="10.00">string_view</text>
</a>
</g>
</g>
<!-- Node4&#45;&gt;Node6 -->
<g id="edge5_Node000004_Node000006" class="edge">
<title>Node4&#45;&gt;Node6</title>
<g id="a_edge5_Node000004_Node000006"><a xlink:title=" ">
<path fill="none" stroke="#63b8ff" d="M283.02,-54.84C312.47,-46.08 357.37,-32.73 390.11,-22.98"/>
<polygon fill="#63b8ff" stroke="#63b8ff" points="391.11,-26.34 399.69,-20.13 389.11,-19.63 391.11,-26.34"/>
</a>
</g>
</g>
<!-- Node7&#45;&gt;Node4 -->
<g id="edge7_Node000007_Node000004" class="edge">
<title>Node7&#45;&gt;Node4</title>
<g id="a_edge7_Node000007_Node000004"><a xlink:title=" ">
<path fill="none" stroke="#63b8ff" d="M443.38,-110.03C404.6,-101.05 345.13,-87.28 302.92,-77.51"/>
<polygon fill="#63b8ff" stroke="#63b8ff" points="303.78,-74.12 293.25,-75.27 302.2,-80.94 303.78,-74.12"/>
</a>
</g>
</g>
<!-- Node8 -->
<g id="Node000008" class="node">
<title>Node8</title>
<g id="a_Node000008"><a xlink:title=" ">
<polygon fill="#e0e0e0" stroke="#999999" points="437.53,-74.5 381.78,-74.5 381.78,-55.25 437.53,-55.25 437.53,-74.5"/>
<text text-anchor="middle" x="409.66" y="-61" font-family="Helvetica,sans-Serif" font-size="10.00">concepts</text>
</a>
</g>
</g>
<!-- Node7&#45;&gt;Node8 -->
<g id="edge8_Node000007_Node000008" class="edge">
<title>Node7&#45;&gt;Node8</title>
<g id="a_edge8_Node000007_Node000008"><a xlink:title=" ">
<path fill="none" stroke="#63b8ff" d="M470.27,-110.09C459.51,-102.24 443.69,-90.7 430.91,-81.37"/>
<polygon fill="#63b8ff" stroke="#63b8ff" points="433.22,-78.73 423.08,-75.67 429.1,-84.39 433.22,-78.73"/>
</a>
</g>
</g>
<!-- Node9 -->
<g id="Node000009" class="node">
<title>Node9</title>
<g id="a_Node000009"><a xlink:title=" ">
<polygon fill="#e0e0e0" stroke="#999999" points="503.78,-74.5 455.53,-74.5 455.53,-55.25 503.78,-55.25 503.78,-74.5"/>
<text text-anchor="middle" x="479.66" y="-61" font-family="Helvetica,sans-Serif" font-size="10.00">cstddef</text>
</a>
</g>
</g>
<!-- Node7&#45;&gt;Node9 -->
<g id="edge9_Node000007_Node000009" class="edge">
<title>Node7&#45;&gt;Node9</title>
<g id="a_edge9_Node000007_Node000009"><a xlink:title=" ">
<path fill="none" stroke="#63b8ff" d="M482.16,-110.33C481.79,-103.74 481.27,-94.46 480.8,-86.07"/>
<polygon fill="#63b8ff" stroke="#63b8ff" points="484.31,-86.16 480.25,-76.37 477.32,-86.55 484.31,-86.16"/>
</a>
</g>
</g>
<!-- Node10 -->
<g id="Node000010" class="node">
<title>Node10</title>
<g id="a_Node000010"><a xlink:title=" ">
<polygon fill="#e0e0e0" stroke="#999999" points="363.28,-74.5 318.03,-74.5 318.03,-55.25 363.28,-55.25 363.28,-74.5"/>
<text text-anchor="middle" x="340.66" y="-61" font-family="Helvetica,sans-Serif" font-size="10.00">cstdint</text>
</a>
</g>
</g>
<!-- Node7&#45;&gt;Node10 -->
<g id="edge10_Node000007_Node000010" class="edge">
<title>Node7&#45;&gt;Node10</title>
<g id="a_edge10_Node000007_Node000010"><a xlink:title=" ">
<path fill="none" stroke="#63b8ff" d="M458.57,-110.09C435.31,-101.37 399.88,-88.08 373.93,-78.35"/>
<polygon fill="#63b8ff" stroke="#63b8ff" points="375.46,-75.19 364.87,-74.95 373,-81.74 375.46,-75.19"/>
</a>
</g>
</g>
<!-- Node7&#45;&gt;Node11 -->
<g id="edge11_Node000007_Node000011" class="edge">
<title>Node7&#45;&gt;Node11</title>
<g id="a_edge11_Node000007_Node000011"><a xlink:title=" ">
<path fill="none" stroke="#63b8ff" d="M512.51,-110.09C545.01,-100.26 596.64,-84.64 629.04,-74.84"/>
<polygon fill="#63b8ff" stroke="#63b8ff" points="630.03,-78.19 638.59,-71.95 628,-71.49 630.03,-78.19"/>
</a>
</g>
</g>
<!-- Node12 -->
<g id="Node000012" class="node">
<title>Node12</title>
<g id="a_Node000012"><a xlink:title=" ">
<polygon fill="#e0e0e0" stroke="#999999" points="583.16,-74.5 522.16,-74.5 522.16,-55.25 583.16,-55.25 583.16,-74.5"/>
<text text-anchor="middle" x="552.66" y="-61" font-family="Helvetica,sans-Serif" font-size="10.00">type_traits</text>
</a>
</g>
</g>
<!-- Node7&#45;&gt;Node12 -->
<g id="edge12_Node000007_Node000012" class="edge">
<title>Node7&#45;&gt;Node12</title>
<g id="a_edge12_Node000007_Node000012"><a xlink:title=" ">
<path fill="none" stroke="#63b8ff" d="M494.53,-110.09C504.75,-102.32 519.73,-90.92 531.92,-81.65"/>
<polygon fill="#63b8ff" stroke="#63b8ff" points="533.91,-84.53 539.75,-75.69 529.68,-78.96 533.91,-84.53"/>
</a>
</g>
</g>
<!-- Node13&#45;&gt;Node4 -->
<g id="edge14_Node000013_Node000004" class="edge">
<title>Node13&#45;&gt;Node4</title>
<g id="a_edge14_Node000013_Node000004"><a xlink:title=" ">
<path fill="none" stroke="#63b8ff" d="M675.18,-114.48C598.74,-107.29 448.77,-92.52 311.14,-74.77"/>
<polygon fill="#63b8ff" stroke="#63b8ff" points="311.86,-71.33 301.49,-73.52 310.96,-78.28 311.86,-71.33"/>
</a>
</g>
</g>
<!-- Node13&#45;&gt;Node6 -->
<g id="edge17_Node000013_Node000006" class="edge">
<title>Node13&#45;&gt;Node6</title>
<g id="a_edge17_Node000013_Node000006"><a xlink:title=" ">
<path fill="none" stroke="#63b8ff" d="M722.83,-110C717.92,-95.82 706.42,-68.71 686.66,-55.25 653.09,-32.38 539.8,-19.56 476.1,-14"/>
<polygon fill="#63b8ff" stroke="#63b8ff" points="476.58,-10.53 466.32,-13.17 475.99,-17.5 476.58,-10.53"/>
</a>
</g>
</g>
<!-- Node13&#45;&gt;Node11 -->
<g id="edge18_Node000013_Node000011" class="edge">
<title>Node13&#45;&gt;Node11</title>
<g id="a_edge18_Node000013_Node000011"><a xlink:title=" ">
<path fill="none" stroke="#63b8ff" d="M714.29,-110.09C704.61,-102.4 690.46,-91.15 678.85,-81.93"/>
<polygon fill="#63b8ff" stroke="#63b8ff" points="681.05,-79.2 671.04,-75.72 676.69,-84.68 681.05,-79.2"/>
</a>
</g>
</g>
<!-- Node13&#45;&gt;Node14 -->
<g id="edge15_Node000013_Node000014" class="edge">
<title>Node13&#45;&gt;Node14</title>
<g id="a_edge15_Node000013_Node000014"><a xlink:title=" ">
<path fill="none" stroke="#63b8ff" d="M775.85,-112.05C853.34,-101.14 1000.2,-80.45 1067.87,-70.92"/>
<polygon fill="#63b8ff" stroke="#63b8ff" points="1068.26,-74.4 1077.67,-69.54 1067.28,-67.47 1068.26,-74.4"/>
</a>
</g>
</g>
<!-- Node13&#45;&gt;Node15 -->
<g id="edge16_Node000013_Node000015" class="edge">
<title>Node13&#45;&gt;Node15</title>
<g id="a_edge16_Node000013_Node000015"><a xlink:title=" ">
<path fill="none" stroke="#63b8ff" d="M738.55,-110.09C749.69,-102.29 766.03,-90.84 779.3,-81.54"/>
<polygon fill="#63b8ff" stroke="#63b8ff" points="781.28,-84.43 787.46,-75.82 777.26,-78.69 781.28,-84.43"/>
</a>
</g>
</g>
<!-- Node13&#45;&gt;Node16 -->
<g id="edge19_Node000013_Node000016" class="edge">
<title>Node13&#45;&gt;Node16</title>
<g id="a_edge19_Node000013_Node000016"><a xlink:title=" ">
<path fill="none" stroke="#63b8ff" d="M751.95,-110.09C779.25,-100.71 821.89,-86.07 850.53,-76.23"/>
<polygon fill="#63b8ff" stroke="#63b8ff" points="851.37,-79.64 859.69,-73.08 849.1,-73.02 851.37,-79.64"/>
</a>
</g>
</g>
<!-- Node17&#45;&gt;Node4 -->
<g id="edge25_Node000017_Node000004" class="edge">
<title>Node17&#45;&gt;Node4</title>
<g id="a_edge25_Node000017_Node000004"><a xlink:title=" ">
<path fill="none" stroke="#63b8ff" d="M570.69,-229.15C518.24,-226.71 436.26,-217.39 373.66,-185 326.06,-160.38 285.05,-110.66 265.27,-83.9"/>
<polygon fill="#63b8ff" stroke="#63b8ff" points="268.33,-82.16 259.65,-76.1 262.65,-86.25 268.33,-82.16"/>
</a>
</g>
</g>
<!-- Node17&#45;&gt;Node5 -->
<g id="edge44_Node000017_Node000005" class="edge">
<title>Node17&#45;&gt;Node5</title>
<g id="a_edge44_Node000017_Node000005"><a xlink:title=" ">
<path fill="none" stroke="#63b8ff" d="M570.33,-230.04C503.79,-228.89 386.4,-221.25 293.66,-185 230.84,-160.45 209.93,-138.82 189.66,-74.5 185.13,-60.13 182.06,-43.38 180.16,-30.64"/>
<polygon fill="#63b8ff" stroke="#63b8ff" points="183.66,-30.4 178.84,-20.97 176.72,-31.35 183.66,-30.4"/>
</a>
</g>
</g>
<!-- Node17&#45;&gt;Node6 -->
<g id="edge45_Node000017_Node000006" class="edge">
<title>Node17&#45;&gt;Node6</title>
<g id="a_edge45_Node000017_Node000006"><a xlink:title=" ">
<path fill="none" stroke="#63b8ff" d="M570.31,-228.9C512.24,-226.39 416.82,-217.16 341.66,-185 267.17,-153.12 232.61,-147.11 196.66,-74.5 192.86,-66.83 191.2,-61.84 196.66,-55.25 220.42,-26.55 326.32,-16.16 387.55,-12.51"/>
<polygon fill="#63b8ff" stroke="#63b8ff" points="387.49,-16.02 397.28,-11.97 387.1,-9.03 387.49,-16.02"/>
</a>
</g>
</g>
<!-- Node17&#45;&gt;Node7 -->
<g id="edge35_Node000017_Node000007" class="edge">
<title>Node17&#45;&gt;Node7</title>
<g id="a_edge35_Node000017_Node000007"><a xlink:title=" ">
<path fill="none" stroke="#63b8ff" d="M570.38,-226.4C512.41,-221.61 424.31,-210.28 403.66,-185 386.94,-164.53 416.86,-146.14 444.55,-134.4"/>
<polygon fill="#63b8ff" stroke="#63b8ff" points="445.56,-137.77 453.55,-130.81 442.96,-131.27 445.56,-137.77"/>
</a>
</g>
</g>
<!-- Node17&#45;&gt;Node10 -->
<g id="edge37_Node000017_Node000010" class="edge">
<title>Node17&#45;&gt;Node10</title>
<g id="a_edge37_Node000017_Node000010"><a xlink:title=" ">
<path fill="none" stroke="#63b8ff" d="M570.3,-224.94C511.65,-218.74 421.31,-206.08 394.66,-185 363.14,-160.07 349.39,-112.68 343.91,-85.8"/>
<polygon fill="#63b8ff" stroke="#63b8ff" points="347.4,-85.43 342.16,-76.23 340.51,-86.69 347.4,-85.43"/>
</a>
</g>
</g>
<!-- Node17&#45;&gt;Node13 -->
<g id="edge36_Node000017_Node000013" class="edge">
<title>Node17&#45;&gt;Node13</title>
<g id="a_edge36_Node000017_Node000013"><a xlink:title=" ">
<path fill="none" stroke="#63b8ff" d="M631.09,-220.75C648.14,-202.78 686.99,-161.86 709.22,-138.44"/>
<polygon fill="#63b8ff" stroke="#63b8ff" points="711.72,-140.89 716.07,-131.22 706.65,-136.07 711.72,-140.89"/>
</a>
</g>
</g>
<!-- Node17&#45;&gt;Node15 -->
<g id="edge42_Node000017_Node000015" class="edge">
<title>Node17&#45;&gt;Node15</title>
<g id="a_edge42_Node000017_Node000015"><a xlink:title=" ">
<path fill="none" stroke="#63b8ff" d="M674.79,-223.65C721.82,-217.08 785.95,-204.73 801.66,-185 824.23,-156.64 815.9,-111.29 808.4,-85.49"/>
<polygon fill="#63b8ff" stroke="#63b8ff" points="811.84,-84.77 805.48,-76.3 805.17,-86.89 811.84,-84.77"/>
</a>
</g>
</g>
<!-- Node17&#45;&gt;Node16 -->
<g id="edge46_Node000017_Node000016" class="edge">
<title>Node17&#45;&gt;Node16</title>
<g id="a_edge46_Node000017_Node000016"><a xlink:title=" ">
<path fill="none" stroke="#63b8ff" d="M674.96,-229.74C718.18,-227.26 779,-217.53 820.66,-185 852.96,-159.78 869.27,-112.5 876.27,-85.71"/>
<polygon fill="#63b8ff" stroke="#63b8ff" points="879.63,-86.71 878.56,-76.17 872.82,-85.07 879.63,-86.71"/>
</a>
</g>
</g>
<!-- Node18 -->
<g id="Node000018" class="node">
<title>Node18</title>
<g id="a_Node000018"><a xlink:href="../../d9/dc5/_string_8hpp.html" target="_top" xlink:title=" ">
<polygon fill="white" stroke="#666666" points="513.03,-185 412.28,-185 412.28,-165.75 513.03,-165.75 513.03,-185"/>
<text text-anchor="middle" x="462.66" y="-171.5" font-family="Helvetica,sans-Serif" font-size="10.00">mimic++/String.hpp</text>
</a>
</g>
</g>
<!-- Node17&#45;&gt;Node18 -->
<g id="edge26_Node000017_Node000018" class="edge">
<title>Node17&#45;&gt;Node18</title>
<g id="a_edge26_Node000017_Node000018"><a xlink:title=" ">
<path fill="none" stroke="#63b8ff" d="M595.52,-220.59C569.43,-211.91 529.76,-198.71 500.56,-188.99"/>
<polygon fill="#63b8ff" stroke="#63b8ff" points="501.96,-185.77 491.37,-185.93 499.75,-192.41 501.96,-185.77"/>
</a>
</g>
</g>
<!-- Node17&#45;&gt;Node19 -->
<g id="edge38_Node000017_Node000019" class="edge">
<title>Node17&#45;&gt;Node19</title>
<g id="a_edge38_Node000017_Node000019"><a xlink:title=" ">
<path fill="none" stroke="#63b8ff" d="M674.96,-226.12C726.65,-221.33 807.25,-210.22 872.66,-185 903.34,-173.17 934.86,-151.74 954.58,-136.98"/>
<polygon fill="#63b8ff" stroke="#63b8ff" points="956.48,-139.93 962.3,-131.08 952.23,-134.37 956.48,-139.93"/>
</a>
</g>
</g>
<!-- Node17&#45;&gt;Node20 -->
<g id="edge41_Node000017_Node000020" class="edge">
<title>Node17&#45;&gt;Node20</title>
<g id="a_edge41_Node000017_Node000020"><a xlink:title=" ">
<path fill="none" stroke="#63b8ff" d="M674.92,-225.46C732.4,-219.94 827.03,-208.09 905.66,-185 948.72,-172.35 995.79,-149.88 1024.27,-135.24"/>
<polygon fill="#63b8ff" stroke="#63b8ff" points="1025.63,-138.48 1032.88,-130.76 1022.4,-132.27 1025.63,-138.48"/>
</a>
</g>
</g>
<!-- Node17&#45;&gt;Node21 -->
<g id="edge39_Node000017_Node000021" class="edge">
<title>Node17&#45;&gt;Node21</title>
<g id="a_edge39_Node000017_Node000021"><a xlink:title=" ">
<path fill="none" stroke="#63b8ff" d="M570.31,-227.93C472.58,-224.18 255.93,-213.21 75.66,-185 74.83,-184.87 73.99,-184.73 73.14,-184.59"/>
<polygon fill="#63b8ff" stroke="#63b8ff" points="74.02,-181.19 63.53,-182.67 72.65,-188.06 74.02,-181.19"/>
</a>
</g>
</g>
<!-- Node17&#45;&gt;Node22 -->
<g id="edge40_Node000017_Node000022" class="edge">
<title>Node17&#45;&gt;Node22</title>
<g id="a_edge40_Node000017_Node000022"><a xlink:title=" ">
<path fill="none" stroke="#63b8ff" d="M675.03,-224.79C745.95,-217.89 876.37,-203.91 986.66,-185 987.64,-184.83 988.64,-184.65 989.65,-184.47"/>
<polygon fill="#63b8ff" stroke="#63b8ff" points="989.94,-187.98 999.07,-182.59 988.58,-181.11 989.94,-187.98"/>
</a>
</g>
</g>
<!-- Node23 -->
<g id="Node000023" class="node">
<title>Node23</title>
<g id="a_Node000023"><a xlink:title=" ">
<polygon fill="#e0e0e0" stroke="#999999" points="582.28,-185 531.03,-185 531.03,-165.75 582.28,-165.75 582.28,-185"/>
<text text-anchor="middle" x="556.66" y="-171.5" font-family="Helvetica,sans-Serif" font-size="10.00">sstream</text>
</a>
</g>
</g>
<!-- Node17&#45;&gt;Node23 -->
<g id="edge43_Node000017_Node000023" class="edge">
<title>Node17&#45;&gt;Node23</title>
<g id="a_edge43_Node000017_Node000023"><a xlink:title=" ">
<path fill="none" stroke="#63b8ff" d="M611.46,-220.59C601.92,-212.9 587.98,-201.65 576.55,-192.43"/>
<polygon fill="#63b8ff" stroke="#63b8ff" points="578.85,-189.78 568.87,-186.23 574.45,-195.23 578.85,-189.78"/>
</a>
</g>
</g>
<!-- Node24 -->
<g id="Node000024" class="node">
<title>Node24</title>
<g id="a_Node000024"><a xlink:title=" ">
<polygon fill="#e0e0e0" stroke="#999999" points="644.53,-185 600.78,-185 600.78,-165.75 644.53,-165.75 644.53,-185"/>
<text text-anchor="middle" x="622.66" y="-171.5" font-family="Helvetica,sans-Serif" font-size="10.00">format</text>
</a>
</g>
</g>
<!-- Node17&#45;&gt;Node24 -->
<g id="edge47_Node000017_Node000024" class="edge">
<title>Node17&#45;&gt;Node24</title>
<g id="a_edge47_Node000017_Node000024"><a xlink:title=" ">
<path fill="none" stroke="#63b8ff" d="M622.66,-220.83C622.66,-214.32 622.66,-205.17 622.66,-196.87"/>
<polygon fill="#63b8ff" stroke="#63b8ff" points="626.16,-196.87 622.66,-186.87 619.16,-196.87 626.16,-196.87"/>
</a>
</g>
</g>
<!-- Node18&#45;&gt;Node4 -->
<g id="edge27_Node000018_Node000004" class="edge">
<title>Node18&#45;&gt;Node4</title>
<g id="a_edge27_Node000018_Node000004"><a xlink:title=" ">
<path fill="none" stroke="#63b8ff" d="M431.09,-165.31C406.07,-157.52 370.63,-145.13 341.66,-129.75 316,-116.13 289.28,-96.03 271.9,-82.03"/>
<polygon fill="#63b8ff" stroke="#63b8ff" points="274.39,-79.55 264.44,-75.91 269.96,-84.96 274.39,-79.55"/>
</a>
</g>
</g>
<!-- Node18&#45;&gt;Node5 -->
<g id="edge32_Node000018_Node000005" class="edge">
<title>Node18&#45;&gt;Node5</title>
<g id="a_edge32_Node000018_Node000005"><a xlink:title=" ">
<path fill="none" stroke="#63b8ff" d="M411.8,-170.01C351.01,-161.94 250.74,-139.07 196.66,-74.5 186.31,-62.14 181.59,-44.31 179.45,-30.63"/>
<polygon fill="#63b8ff" stroke="#63b8ff" points="182.96,-30.52 178.29,-21.01 176.01,-31.35 182.96,-30.52"/>
</a>
</g>
</g>
<!-- Node18&#45;&gt;Node6 -->
<g id="edge33_Node000018_Node000006" class="edge">
<title>Node18&#45;&gt;Node6</title>
<g id="a_edge33_Node000018_Node000006"><a xlink:title=" ">
<path fill="none" stroke="#63b8ff" d="M504.07,-165.26C525.95,-158.6 551.87,-147.55 569.66,-129.75 594.15,-105.24 613.63,-82.83 592.66,-55.25 578.54,-36.69 518.67,-23.84 476.07,-16.85"/>
<polygon fill="#63b8ff" stroke="#63b8ff" points="476.75,-13.42 466.33,-15.31 475.66,-20.33 476.75,-13.42"/>
</a>
</g>
</g>
<!-- Node18&#45;&gt;Node8 -->
<g id="edge29_Node000018_Node000008" class="edge">
<title>Node18&#45;&gt;Node8</title>
<g id="a_edge29_Node000018_Node000008"><a xlink:title=" ">
<path fill="none" stroke="#63b8ff" d="M447.79,-165.45C436.25,-157.62 421.02,-145.1 413.66,-129.75 407.1,-116.08 406.4,-98.85 407.17,-85.72"/>
<polygon fill="#63b8ff" stroke="#63b8ff" points="410.62,-86.45 408.08,-76.16 403.65,-85.79 410.62,-86.45"/>
</a>
</g>
</g>
<!-- Node18&#45;&gt;Node12 -->
<g id="edge34_Node000018_Node000012" class="edge">
<title>Node18&#45;&gt;Node12</title>
<g id="a_edge34_Node000018_Node000012"><a xlink:title=" ">
<path fill="none" stroke="#63b8ff" d="M501.6,-165.36C520.48,-158.81 541.44,-147.83 552.66,-129.75 560.71,-116.76 560.1,-99.25 557.81,-85.84"/>
<polygon fill="#63b8ff" stroke="#63b8ff" points="561.3,-85.44 555.76,-76.42 554.46,-86.93 561.3,-85.44"/>
</a>
</g>
</g>
<!-- Node18&#45;&gt;Node13 -->
<g id="edge28_Node000018_Node000013" class="edge">
<title>Node18&#45;&gt;Node13</title>
<g id="a_edge28_Node000018_Node000013"><a xlink:title=" ">
<path fill="none" stroke="#63b8ff" d="M507.57,-165.28C552.39,-156.21 621.37,-142.24 669.72,-132.45"/>
<polygon fill="#63b8ff" stroke="#63b8ff" points="670.34,-135.9 679.45,-130.48 668.95,-129.04 670.34,-135.9"/>
</a>
</g>
</g>
<!-- Node18&#45;&gt;Node19 -->
<g id="edge30_Node000018_Node000019" class="edge">
<title>Node18&#45;&gt;Node19</title>
<g id="a_edge30_Node000018_Node000019"><a xlink:title=" ">
<path fill="none" stroke="#63b8ff" d="M513.49,-166.79C516.25,-166.43 518.99,-166.08 521.66,-165.75 673.31,-147.21 854.25,-131.22 933.77,-124.51"/>
<polygon fill="#63b8ff" stroke="#63b8ff" points="934.01,-128 943.68,-123.67 933.42,-121.02 934.01,-128"/>
</a>
</g>
</g>
<!-- Node18&#45;&gt;Node20 -->
<g id="edge31_Node000018_Node000020" class="edge">
<title>Node18&#45;&gt;Node20</title>
<g id="a_edge31_Node000018_Node000020"><a xlink:title=" ">
<path fill="none" stroke="#63b8ff" d="M513.48,-166.71C516.24,-166.37 518.98,-166.04 521.66,-165.75 739.16,-141.91 796.25,-162.06 1012.66,-129.75 1014.05,-129.54 1015.47,-129.31 1016.9,-129.06"/>
<polygon fill="#63b8ff" stroke="#63b8ff" points="1017.24,-132.56 1026.37,-127.18 1015.88,-125.7 1017.24,-132.56"/>
</a>
</g>
</g>
<!-- Node25&#45;&gt;Node3 -->
<g id="edge49_Node000025_Node000003" class="edge">
<title>Node25&#45;&gt;Node3</title>
<g id="a_edge49_Node000025_Node000003"><a xlink:title=" ">
<path fill="none" stroke="#63b8ff" d="M789.82,-275.88C782.65,-267.25 772.2,-253.61 765.66,-240.25 758.79,-226.24 753.88,-209.26 750.78,-196.33"/>
<polygon fill="#63b8ff" stroke="#63b8ff" points="754.27,-195.88 748.68,-186.88 747.43,-197.4 754.27,-195.88"/>
</a>
</g>
</g>
<!-- Node25&#45;&gt;Node4 -->
<g id="edge50_Node000025_Node000004" class="edge">
<title>Node25&#45;&gt;Node4</title>
<g id="a_edge50_Node000025_Node000004"><a xlink:title=" ">
<path fill="none" stroke="#63b8ff" d="M742.91,-282.83C653.61,-277.4 473.33,-257.55 341.66,-185 310.48,-167.82 304.65,-158.5 283.66,-129.75 273.64,-116.03 265.42,-98.57 259.97,-85.38"/>
<polygon fill="#63b8ff" stroke="#63b8ff" points="263.24,-84.12 256.33,-76.09 256.72,-86.68 263.24,-84.12"/>
</a>
</g>
</g>
<!-- Node25&#45;&gt;Node17 -->
<g id="edge51_Node000025_Node000017" class="edge">
<title>Node25&#45;&gt;Node17</title>
<g id="a_edge51_Node000025_Node000017"><a xlink:title=" ">
<path fill="none" stroke="#63b8ff" d="M767.97,-275.84C739.18,-267.08 695.29,-253.73 663.27,-243.98"/>
<polygon fill="#63b8ff" stroke="#63b8ff" points="664.52,-240.71 653.94,-241.14 662.49,-247.4 664.52,-240.71"/>
</a>
</g>
</g>
<!-- Node25&#45;&gt;Node19 -->
<g id="edge53_Node000025_Node000019" class="edge">
<title>Node25&#45;&gt;Node19</title>
<g id="a_edge53_Node000025_Node000019"><a xlink:title=" ">
<path fill="none" stroke="#63b8ff" d="M834.18,-275.78C856.21,-268.87 883.77,-257.55 903.66,-240.25 935.49,-212.56 957.01,-166.96 967.42,-140.94"/>
<polygon fill="#63b8ff" stroke="#63b8ff" points="970.69,-142.21 970.99,-131.62 964.15,-139.71 970.69,-142.21"/>
</a>
</g>
</g>
<!-- Node25&#45;&gt;Node20 -->
<g id="edge56_Node000025_Node000020" class="edge">
<title>Node25&#45;&gt;Node20</title>
<g id="a_edge56_Node000025_Node000020"><a xlink:title=" ">
<path fill="none" stroke="#63b8ff" d="M846.18,-275.81C880.61,-268.49 927.48,-256.68 966.66,-240.25 988.83,-230.95 1047.77,-205.89 1059.66,-185 1067.37,-171.45 1064.03,-153.75 1059.38,-140.41"/>
<polygon fill="#63b8ff" stroke="#63b8ff" points="1062.75,-139.41 1055.77,-131.44 1056.26,-142.03 1062.75,-139.41"/>
</a>
</g>
</g>
<!-- Node25&#45;&gt;Node21 -->
<g id="edge54_Node000025_Node000021" class="edge">
<title>Node25&#45;&gt;Node21</title>
<g id="a_edge54_Node000025_Node000021"><a xlink:title=" ">
<path fill="none" stroke="#63b8ff" d="M742.78,-283.28C590.71,-278.57 171.28,-263.62 113.66,-240.25 89.24,-230.35 67.06,-209.24 53.26,-193.99"/>
<polygon fill="#63b8ff" stroke="#63b8ff" points="55.99,-191.81 46.79,-186.55 50.71,-196.4 55.99,-191.81"/>
</a>
</g>
</g>
<!-- Node25&#45;&gt;Node22 -->
<g id="edge55_Node000025_Node000022" class="edge">
<title>Node25&#45;&gt;Node22</title>
<g id="a_edge55_Node000025_Node000022"><a xlink:title=" ">
<path fill="none" stroke="#63b8ff" d="M836.98,-275.76C865.54,-268.31 904.63,-256.38 936.66,-240.25 962.74,-227.11 989.56,-206.75 1006.84,-192.56"/>
<polygon fill="#63b8ff" stroke="#63b8ff" points="1008.82,-195.47 1014.24,-186.37 1004.32,-190.11 1008.82,-195.47"/>
</a>
</g>
</g>
<!-- Node25&#45;&gt;Node26 -->
<g id="edge52_Node000025_Node000026" class="edge">
<title>Node25&#45;&gt;Node26</title>
<g id="a_edge52_Node000025_Node000026"><a xlink:title=" ">
<path fill="none" stroke="#63b8ff" d="M841.55,-275.78C890.31,-265.68 968.35,-249.51 1015.24,-239.79"/>
<polygon fill="#63b8ff" stroke="#63b8ff" points="1015.89,-243.23 1024.97,-237.78 1014.47,-236.38 1015.89,-243.23"/>
</a>
</g>
</g>
<!-- Node27 -->
<g id="Node000027" class="node">
<title>Node27</title>
<g id="a_Node000027"><a xlink:title=" ">
<polygon fill="#e0e0e0" stroke="#999999" points="830.91,-240.25 774.41,-240.25 774.41,-221 830.91,-221 830.91,-240.25"/>
<text text-anchor="middle" x="802.66" y="-226.75" font-family="Helvetica,sans-Serif" font-size="10.00">typeindex</text>
</a>
</g>
</g>
<!-- Node25&#45;&gt;Node27 -->
<g id="edge57_Node000025_Node000027" class="edge">
<title>Node25&#45;&gt;Node27</title>
<g id="a_edge57_Node000025_Node000027"><a xlink:title=" ">
<path fill="none" stroke="#63b8ff" d="M798.48,-276.08C799.1,-269.49 799.97,-260.21 800.76,-251.82"/>
<polygon fill="#63b8ff" stroke="#63b8ff" points="804.22,-252.4 801.67,-242.12 797.25,-251.75 804.22,-252.4"/>
</a>
</g>
</g>
<!-- Node28 -->
<g id="Node000028" class="node">
<title>Node28</title>
<g id="a_Node000028"><a xlink:title=" ">
<polygon fill="#e0e0e0" stroke="#999999" points="894.28,-240.25 849.03,-240.25 849.03,-221 894.28,-221 894.28,-240.25"/>
<text text-anchor="middle" x="871.66" y="-226.75" font-family="Helvetica,sans-Serif" font-size="10.00">variant</text>
</a>
</g>
</g>
<!-- Node25&#45;&gt;Node28 -->
<g id="edge58_Node000025_Node000028" class="edge">
<title>Node25&#45;&gt;Node28</title>
<g id="a_edge58_Node000025_Node000028"><a xlink:title=" ">
<path fill="none" stroke="#63b8ff" d="M810.21,-275.84C821.12,-267.99 837.16,-256.45 850.12,-247.12"/>
<polygon fill="#63b8ff" stroke="#63b8ff" points="851.99,-250.09 858.06,-241.41 847.9,-244.41 851.99,-250.09"/>
</a>
</g>
</g>
<!-- Node25&#45;&gt;Node29 -->
<g id="edge59_Node000025_Node000029" class="edge">
<title>Node25&#45;&gt;Node29</title>
<g id="a_edge59_Node000025_Node000029"><a xlink:title=" ">
<path fill="none" stroke="#63b8ff" d="M852.5,-278.7C909.41,-271.82 1001.16,-259.38 1088.59,-240.7"/>
<polygon fill="#63b8ff" stroke="#63b8ff" points="1089.28,-244.13 1098.31,-238.59 1087.79,-237.29 1089.28,-244.13"/>
</a>
</g>
</g>
</g>
</svg>
