<?xml version="1.0" encoding="UTF-8" standalone="no"?>
<!DOCTYPE svg PUBLIC "-//W3C//DTD SVG 1.1//EN"
 "http://www.w3.org/Graphics/SVG/1.1/DTD/svg11.dtd">
<!-- Generated by graphviz version 12.2.1 (20241206.2353)
 -->
<!-- Title: mimic++/printing/CommonTypePrinter.hpp Pages: 1 -->
<svg width="1340pt" height="570pt"
 viewBox="0.00 0.00 1340.00 569.50" xmlns="http://www.w3.org/2000/svg" xmlns:xlink="http://www.w3.org/1999/xlink">
<g id="graph0" class="graph" transform="scale(1 1) rotate(0) translate(4 565.5)">
<title>mimic++/printing/CommonTypePrinter.hpp</title>
<!-- Node1 -->
<g id="Node000001" class="node">
<title>Node1</title>
<g id="a_Node000001"><a xlink:title=" ">
<polygon fill="#999999" stroke="#666666" points="859.88,-561.5 708.12,-561.5 708.12,-531 859.88,-531 859.88,-561.5"/>
<text text-anchor="start" x="716.12" y="-548" font-family="Helvetica,sans-Serif" font-size="10.00">mimic++/printing/CommonType</text>
<text text-anchor="middle" x="784" y="-536.75" font-family="Helvetica,sans-Serif" font-size="10.00">Printer.hpp</text>
</a>
</g>
</g>
<!-- Node2 -->
<g id="Node000002" class="node">
<title>Node2</title>
<g id="a_Node000002"><a xlink:href="../../da/dab/_printer_8hpp.html" target="_top" xlink:title=" ">
<polygon fill="white" stroke="#666666" points="328.88,-495 225.12,-495 225.12,-475.75 328.88,-475.75 328.88,-495"/>
<text text-anchor="middle" x="277" y="-481.5" font-family="Helvetica,sans-Serif" font-size="10.00">mimic++/Printer.hpp</text>
</a>
</g>
</g>
<!-- Node1&#45;&gt;Node2 -->
<g id="edge1_Node000001_Node000002" class="edge">
<title>Node1&#45;&gt;Node2</title>
<g id="a_edge1_Node000001_Node000002"><a xlink:title=" ">
<path fill="none" stroke="#63b8ff" d="M696.54,-535.09C590.76,-522.81 416.12,-502.53 329.32,-492.45"/>
<polygon fill="#63b8ff" stroke="#63b8ff" points="695.98,-538.55 706.32,-536.23 696.79,-531.6 695.98,-538.55"/>
</a>
</g>
</g>
<!-- Node5 -->
<g id="Node000005" class="node">
<title>Node5</title>
<g id="a_Node000005"><a xlink:href="../../d0/db9/mimic_09_09_8hpp.html" target="_top" xlink:title=" ">
<polygon fill="white" stroke="#666666" points="636.75,-19.25 523.25,-19.25 523.25,0 636.75,0 636.75,-19.25"/>
<text text-anchor="middle" x="580" y="-5.75" font-family="Helvetica,sans-Serif" font-size="10.00">mimic++/mimic++.hpp</text>
</a>
</g>
</g>
<!-- Node1&#45;&gt;Node5 -->
<g id="edge47_Node000001_Node000005" class="edge">
<title>Node1&#45;&gt;Node5</title>
<g id="a_edge47_Node000001_Node000005"><a xlink:title=" ">
<path fill="none" stroke="#63b8ff" d="M871.52,-544.87C1026.27,-541.82 1332,-524.04 1332,-431.12 1332,-431.12 1332,-431.12 1332,-119.12 1332,-48.97 812.63,-20.48 637.14,-12.86"/>
<polygon fill="#63b8ff" stroke="#63b8ff" points="871.65,-541.37 861.71,-545.05 871.77,-548.37 871.65,-541.37"/>
</a>
</g>
</g>
<!-- Node3 -->
<g id="Node000003" class="node">
<title>Node3</title>
<g id="a_Node000003"><a xlink:href="../../d5/dc5/_mock_8hpp.html" target="_top" xlink:title=" ">
<polygon fill="white" stroke="#666666" points="475.62,-129.75 376.38,-129.75 376.38,-110.5 475.62,-110.5 475.62,-129.75"/>
<text text-anchor="middle" x="426" y="-116.25" font-family="Helvetica,sans-Serif" font-size="10.00">mimic++/Mock.hpp</text>
</a>
</g>
</g>
<!-- Node2&#45;&gt;Node3 -->
<g id="edge2_Node000002_Node000003" class="edge">
<title>Node2&#45;&gt;Node3</title>
<g id="a_edge2_Node000002_Node000003"><a xlink:title=" ">
<path fill="none" stroke="#63b8ff" d="M223.67,-471.69C205.14,-464.93 185.62,-454.78 172,-439.75 152.03,-417.71 152,-405.62 152,-375.88 152,-375.88 152,-375.88 152,-313 152,-276.13 147.38,-260.56 171,-232.25 223.37,-169.5 317.95,-141.15 376.04,-129.14"/>
<polygon fill="#63b8ff" stroke="#63b8ff" points="222.38,-474.95 232.98,-474.81 224.61,-468.31 222.38,-474.95"/>
</a>
</g>
</g>
<!-- Node2&#45;&gt;Node5 -->
<g id="edge46_Node000002_Node000005" class="edge">
<title>Node2&#45;&gt;Node5</title>
<g id="a_edge46_Node000002_Node000005"><a xlink:title=" ">
<path fill="none" stroke="#63b8ff" d="M213.86,-483.65C165.77,-480.46 99.6,-470.18 50,-439.75 19.27,-420.89 0,-411.93 0,-375.88 0,-375.88 0,-375.88 0,-119.12 0,-71.51 41.52,-72.22 86,-55.25 164.55,-25.28 410.64,-15.07 523.02,-11.91"/>
<polygon fill="#63b8ff" stroke="#63b8ff" points="213.37,-487.13 223.55,-484.2 213.76,-480.14 213.37,-487.13"/>
</a>
</g>
</g>
<!-- Node6 -->
<g id="Node000006" class="node">
<title>Node6</title>
<g id="a_Node000006"><a xlink:href="../../d5/d92/_object_watcher_8hpp.html" target="_top" xlink:title=" ">
<polygon fill="white" stroke="#666666" points="281.88,-74.5 142.12,-74.5 142.12,-55.25 281.88,-55.25 281.88,-74.5"/>
<text text-anchor="middle" x="212" y="-61" font-family="Helvetica,sans-Serif" font-size="10.00">mimic++/ObjectWatcher.hpp</text>
</a>
</g>
</g>
<!-- Node2&#45;&gt;Node6 -->
<g id="edge8_Node000002_Node000006" class="edge">
<title>Node2&#45;&gt;Node6</title>
<g id="a_edge8_Node000002_Node000006"><a xlink:title=" ">
<path fill="none" stroke="#63b8ff" d="M213.8,-482.06C142.99,-475.68 38,-453.19 38,-375.88 38,-375.88 38,-375.88 38,-313 38,-201.24 158.46,-104.38 198.92,-74.99"/>
<polygon fill="#63b8ff" stroke="#63b8ff" points="213.09,-485.51 223.34,-482.83 213.65,-478.54 213.09,-485.51"/>
</a>
</g>
</g>
<!-- Node7 -->
<g id="Node000007" class="node">
<title>Node7</title>
<g id="a_Node000007"><a xlink:href="../../da/dd9/_reporter_8hpp.html" target="_top" xlink:title=" ">
<polygon fill="white" stroke="#666666" points="374,-384.5 262,-384.5 262,-365.25 374,-365.25 374,-384.5"/>
<text text-anchor="middle" x="318" y="-371" font-family="Helvetica,sans-Serif" font-size="10.00">mimic++/Reporter.hpp</text>
</a>
</g>
</g>
<!-- Node2&#45;&gt;Node7 -->
<g id="edge9_Node000002_Node000007" class="edge">
<title>Node2&#45;&gt;Node7</title>
<g id="a_edge9_Node000002_Node000007"><a xlink:title=" ">
<path fill="none" stroke="#63b8ff" d="M287.35,-465.18C291.3,-457.42 295.65,-448.29 299,-439.75 306.52,-420.58 312.77,-397.19 315.88,-384.71"/>
<polygon fill="#63b8ff" stroke="#63b8ff" points="284.26,-463.53 282.72,-474.01 290.46,-466.78 284.26,-463.53"/>
</a>
</g>
</g>
<!-- Node10 -->
<g id="Node000010" class="node">
<title>Node10</title>
<g id="a_Node000010"><a xlink:href="../../d8/de4/_sequence_8hpp.html" target="_top" xlink:title=" ">
<polygon fill="white" stroke="#666666" points="463.38,-323.62 344.62,-323.62 344.62,-304.38 463.38,-304.38 463.38,-323.62"/>
<text text-anchor="middle" x="404" y="-310.12" font-family="Helvetica,sans-Serif" font-size="10.00">mimic++/Sequence.hpp</text>
</a>
</g>
</g>
<!-- Node2&#45;&gt;Node10 -->
<g id="edge28_Node000002_Node000010" class="edge">
<title>Node2&#45;&gt;Node10</title>
<g id="a_edge28_Node000002_Node000010"><a xlink:title=" ">
<path fill="none" stroke="#63b8ff" d="M299.62,-468.73C323.65,-450.97 361.13,-419.83 383,-384.5 395.21,-364.78 400.72,-337.5 402.85,-323.72"/>
<polygon fill="#63b8ff" stroke="#63b8ff" points="297.82,-465.71 291.75,-474.4 301.91,-471.39 297.82,-465.71"/>
</a>
</g>
</g>
<!-- Node12 -->
<g id="Node000012" class="node">
<title>Node12</title>
<g id="a_Node000012"><a xlink:href="../../d0/d3b/_reports_8hpp.html" target="_top" xlink:title=" ">
<polygon fill="white" stroke="#666666" points="289.5,-439.75 180.5,-439.75 180.5,-420.5 289.5,-420.5 289.5,-439.75"/>
<text text-anchor="middle" x="235" y="-426.25" font-family="Helvetica,sans-Serif" font-size="10.00">mimic++/Reports.hpp</text>
</a>
</g>
</g>
<!-- Node2&#45;&gt;Node12 -->
<g id="edge24_Node000002_Node000012" class="edge">
<title>Node2&#45;&gt;Node12</title>
<g id="a_edge24_Node000002_Node000012"><a xlink:title=" ">
<path fill="none" stroke="#63b8ff" d="M263.08,-466.72C256.04,-457.81 247.81,-447.37 242.09,-440.11"/>
<polygon fill="#63b8ff" stroke="#63b8ff" points="260.19,-468.71 269.13,-474.39 265.68,-464.37 260.19,-468.71"/>
</a>
</g>
</g>
<!-- Node13 -->
<g id="Node000013" class="node">
<title>Node13</title>
<g id="a_Node000013"><a xlink:href="../../d3/d58/_common_8hpp.html" target="_top" xlink:title=" ">
<polygon fill="white" stroke="#666666" points="851.88,-384.5 694.12,-384.5 694.12,-365.25 851.88,-365.25 851.88,-384.5"/>
<text text-anchor="middle" x="773" y="-371" font-family="Helvetica,sans-Serif" font-size="10.00">mimic++/matchers/Common.hpp</text>
</a>
</g>
</g>
<!-- Node2&#45;&gt;Node13 -->
<g id="edge29_Node000002_Node000013" class="edge">
<title>Node2&#45;&gt;Node13</title>
<g id="a_edge29_Node000002_Node000013"><a xlink:title=" ">
<path fill="none" stroke="#63b8ff" d="M329.67,-472.85C428.82,-451.16 641.32,-404.68 731.33,-384.99"/>
<polygon fill="#63b8ff" stroke="#63b8ff" points="328.94,-469.43 319.91,-474.99 330.43,-476.27 328.94,-469.43"/>
</a>
</g>
</g>
<!-- Node4 -->
<g id="Node000004" class="node">
<title>Node4</title>
<g id="a_Node000004"><a xlink:href="../../d9/dc3/_interface_mock_8hpp.html" target="_top" xlink:title=" ">
<polygon fill="white" stroke="#666666" points="551.75,-74.5 414.25,-74.5 414.25,-55.25 551.75,-55.25 551.75,-74.5"/>
<text text-anchor="middle" x="483" y="-61" font-family="Helvetica,sans-Serif" font-size="10.00">mimic++/InterfaceMock.hpp</text>
</a>
</g>
</g>
<!-- Node3&#45;&gt;Node4 -->
<g id="edge3_Node000003_Node000004" class="edge">
<title>Node3&#45;&gt;Node4</title>
<g id="a_edge3_Node000003_Node000004"><a xlink:title=" ">
<path fill="none" stroke="#63b8ff" d="M443.95,-102.36C453.73,-93.22 465.44,-82.28 473.47,-74.77"/>
<polygon fill="#63b8ff" stroke="#63b8ff" points="441.69,-99.67 436.78,-109.06 446.47,-104.79 441.69,-99.67"/>
</a>
</g>
</g>
<!-- Node3&#45;&gt;Node5 -->
<g id="edge7_Node000003_Node000005" class="edge">
<title>Node3&#45;&gt;Node5</title>
<g id="a_edge7_Node000003_Node000005"><a xlink:title=" ">
<path fill="none" stroke="#63b8ff" d="M411.99,-101.46C402.9,-87.71 394.51,-68.75 405,-55.25 419.52,-36.56 477.8,-24.39 523.16,-17.55"/>
<polygon fill="#63b8ff" stroke="#63b8ff" points="408.89,-103.14 417.59,-109.18 414.55,-99.03 408.89,-103.14"/>
</a>
</g>
</g>
<!-- Node3&#45;&gt;Node6 -->
<g id="edge5_Node000003_Node000006" class="edge">
<title>Node3&#45;&gt;Node6</title>
<g id="a_edge5_Node000003_Node000006"><a xlink:title=" ">
<path fill="none" stroke="#63b8ff" d="M378.57,-107.32C339.31,-97.55 284.36,-83.88 248.48,-74.95"/>
<polygon fill="#63b8ff" stroke="#63b8ff" points="377.68,-110.71 388.23,-109.73 379.37,-103.92 377.68,-110.71"/>
</a>
</g>
</g>
<!-- Node4&#45;&gt;Node5 -->
<g id="edge4_Node000004_Node000005" class="edge">
<title>Node4&#45;&gt;Node5</title>
<g id="a_edge4_Node000004_Node000005"><a xlink:title=" ">
<path fill="none" stroke="#63b8ff" d="M509.47,-49.34C526.71,-39.88 548.67,-27.83 563.46,-19.7"/>
<polygon fill="#63b8ff" stroke="#63b8ff" points="507.86,-46.23 500.78,-54.11 511.23,-52.37 507.86,-46.23"/>
</a>
</g>
</g>
<!-- Node6&#45;&gt;Node5 -->
<g id="edge6_Node000006_Node000005" class="edge">
<title>Node6&#45;&gt;Node5</title>
<g id="a_edge6_Node000006_Node000005"><a xlink:title=" ">
<path fill="none" stroke="#63b8ff" d="M286.19,-53.14C356.04,-43.03 459.19,-28.11 522.86,-18.89"/>
<polygon fill="#63b8ff" stroke="#63b8ff" points="285.74,-49.67 276.34,-54.56 286.74,-56.6 285.74,-49.67"/>
</a>
</g>
</g>
<!-- Node7&#45;&gt;Node5 -->
<g id="edge23_Node000007_Node000005" class="edge">
<title>Node7&#45;&gt;Node5</title>
<g id="a_edge23_Node000007_Node000005"><a xlink:title=" ">
<path fill="none" stroke="#63b8ff" d="M283.67,-360.33C225.55,-334.88 114,-274.04 114,-182 114,-182 114,-182 114,-119.12 114,-89.51 110.17,-74.12 133,-55.25 162.5,-30.88 409.46,-17.65 523.14,-12.8"/>
<polygon fill="#63b8ff" stroke="#63b8ff" points="282.23,-363.52 292.81,-364.22 284.98,-357.08 282.23,-363.52"/>
</a>
</g>
</g>
<!-- Node8 -->
<g id="Node000008" class="node">
<title>Node8</title>
<g id="a_Node000008"><a xlink:href="../../d5/d8a/_expectation_8hpp.html" target="_top" xlink:title=" ">
<polygon fill="white" stroke="#666666" points="447.75,-257.12 322.25,-257.12 322.25,-237.88 447.75,-237.88 447.75,-257.12"/>
<text text-anchor="middle" x="385" y="-243.62" font-family="Helvetica,sans-Serif" font-size="10.00">mimic++/Expectation.hpp</text>
</a>
</g>
</g>
<!-- Node7&#45;&gt;Node8 -->
<g id="edge10_Node000007_Node000008" class="edge">
<title>Node7&#45;&gt;Node8</title>
<g id="a_edge10_Node000007_Node000008"><a xlink:title=" ">
<path fill="none" stroke="#63b8ff" d="M319.84,-353.93C321.97,-338.15 326.49,-315.99 336,-298.75 345.3,-281.89 361.78,-266.7 373.04,-257.54"/>
<polygon fill="#63b8ff" stroke="#63b8ff" points="316.41,-353.16 318.77,-363.49 323.36,-353.94 316.41,-353.16"/>
</a>
</g>
</g>
<!-- Node7&#45;&gt;Node10 -->
<g id="edge16_Node000007_Node000010" class="edge">
<title>Node7&#45;&gt;Node10</title>
<g id="a_edge16_Node000007_Node000010"><a xlink:title=" ">
<path fill="none" stroke="#63b8ff" d="M340.28,-358.63C356.3,-347.65 377.38,-333.22 390.82,-324.03"/>
<polygon fill="#63b8ff" stroke="#63b8ff" points="338.58,-355.54 332.31,-364.08 342.54,-361.32 338.58,-355.54"/>
</a>
</g>
</g>
<!-- Node8&#45;&gt;Node3 -->
<g id="edge14_Node000008_Node000003" class="edge">
<title>Node8&#45;&gt;Node3</title>
<g id="a_edge14_Node000008_Node000003"><a xlink:title=" ">
<path fill="none" stroke="#63b8ff" d="M391.44,-226.8C400.47,-199.2 416.51,-150.13 423.08,-130.06"/>
<polygon fill="#63b8ff" stroke="#63b8ff" points="388.2,-225.45 388.42,-236.04 394.85,-227.63 388.2,-225.45"/>
</a>
</g>
</g>
<!-- Node8&#45;&gt;Node5 -->
<g id="edge15_Node000008_Node000005" class="edge">
<title>Node8&#45;&gt;Node5</title>
<g id="a_edge15_Node000008_Node000005"><a xlink:title=" ">
<path fill="none" stroke="#63b8ff" d="M378.19,-226.92C365.6,-186.76 344.44,-95.49 396,-55.25 432.15,-27.04 483.54,-16.32 522.82,-12.41"/>
<polygon fill="#63b8ff" stroke="#63b8ff" points="374.79,-227.79 381.25,-236.19 381.44,-225.6 374.79,-227.79"/>
</a>
</g>
</g>
<!-- Node9 -->
<g id="Node000009" class="node">
<title>Node9</title>
<g id="a_Node000009"><a xlink:href="../../d2/d4f/_expectation_builder_8hpp.html" target="_top" xlink:title=" ">
<polygon fill="white" stroke="#666666" points="659.75,-190.62 504.25,-190.62 504.25,-171.38 659.75,-171.38 659.75,-190.62"/>
<text text-anchor="middle" x="582" y="-177.12" font-family="Helvetica,sans-Serif" font-size="10.00">mimic++/ExpectationBuilder.hpp</text>
</a>
</g>
</g>
<!-- Node8&#45;&gt;Node9 -->
<g id="edge11_Node000008_Node000009" class="edge">
<title>Node8&#45;&gt;Node9</title>
<g id="a_edge11_Node000008_Node000009"><a xlink:title=" ">
<path fill="none" stroke="#63b8ff" d="M423.59,-233.87C462.07,-221.27 520.23,-202.22 554.33,-191.06"/>
<polygon fill="#63b8ff" stroke="#63b8ff" points="422.66,-230.49 414.25,-236.92 424.84,-237.14 422.66,-230.49"/>
</a>
</g>
</g>
<!-- Node9&#45;&gt;Node3 -->
<g id="edge12_Node000009_Node000003" class="edge">
<title>Node9&#45;&gt;Node3</title>
<g id="a_edge12_Node000009_Node000003"><a xlink:title=" ">
<path fill="none" stroke="#63b8ff" d="M547.29,-166.9C517.75,-155.75 476.07,-140.02 450.06,-130.21"/>
<polygon fill="#63b8ff" stroke="#63b8ff" points="545.96,-170.14 556.55,-170.4 548.43,-163.59 545.96,-170.14"/>
</a>
</g>
</g>
<!-- Node9&#45;&gt;Node5 -->
<g id="edge13_Node000009_Node000005" class="edge">
<title>Node9&#45;&gt;Node5</title>
<g id="a_edge13_Node000009_Node000005"><a xlink:title=" ">
<path fill="none" stroke="#63b8ff" d="M587.02,-159.74C592.44,-134.99 599.61,-91.88 594,-55.25 592.06,-42.57 587.18,-28.54 583.73,-19.66"/>
<polygon fill="#63b8ff" stroke="#63b8ff" points="583.63,-158.87 584.76,-169.4 590.44,-160.46 583.63,-158.87"/>
</a>
</g>
</g>
<!-- Node10&#45;&gt;Node5 -->
<g id="edge19_Node000010_Node000005" class="edge">
<title>Node10&#45;&gt;Node5</title>
<g id="a_edge19_Node000010_Node000005"><a xlink:title=" ">
<path fill="none" stroke="#63b8ff" d="M424.8,-297.04C435.56,-287.94 448.23,-275.76 457,-262.75 482.86,-224.35 472.81,-206.39 495,-165.75 518.99,-121.82 538.88,-119.4 561,-74.5 570.1,-56.03 575.73,-32.36 578.32,-19.66"/>
<polygon fill="#63b8ff" stroke="#63b8ff" points="422.72,-294.23 417.16,-303.25 427.13,-299.66 422.72,-294.23"/>
</a>
</g>
</g>
<!-- Node10&#45;&gt;Node8 -->
<g id="edge17_Node000010_Node000008" class="edge">
<title>Node10&#45;&gt;Node8</title>
<g id="a_edge17_Node000010_Node000008"><a xlink:title=" ">
<path fill="none" stroke="#63b8ff" d="M398.19,-293.27C394.66,-281.3 390.33,-266.6 387.62,-257.39"/>
<polygon fill="#63b8ff" stroke="#63b8ff" points="394.75,-293.98 400.93,-302.58 401.46,-292 394.75,-293.98"/>
</a>
</g>
</g>
<!-- Node10&#45;&gt;Node9 -->
<g id="edge18_Node000010_Node000009" class="edge">
<title>Node10&#45;&gt;Node9</title>
<g id="a_edge18_Node000010_Node000009"><a xlink:title=" ">
<path fill="none" stroke="#63b8ff" d="M431.76,-298.55C449.03,-289.14 471.41,-276.15 490,-262.75 522.41,-239.39 556.83,-206.79 572.84,-191.12"/>
<polygon fill="#63b8ff" stroke="#63b8ff" points="430.23,-295.4 423.08,-303.21 433.54,-301.57 430.23,-295.4"/>
</a>
</g>
</g>
<!-- Node11 -->
<g id="Node000011" class="node">
<title>Node11</title>
<g id="a_Node000011"><a xlink:href="../../db/d70/_control_policies_8hpp.html" target="_top" xlink:title=" ">
<polygon fill="white" stroke="#666666" points="304,-262.75 180,-262.75 180,-232.25 304,-232.25 304,-262.75"/>
<text text-anchor="start" x="188" y="-249.25" font-family="Helvetica,sans-Serif" font-size="10.00">mimic++/policies/Control</text>
<text text-anchor="middle" x="242" y="-238" font-family="Helvetica,sans-Serif" font-size="10.00">Policies.hpp</text>
</a>
</g>
</g>
<!-- Node10&#45;&gt;Node11 -->
<g id="edge20_Node000010_Node000011" class="edge">
<title>Node10&#45;&gt;Node11</title>
<g id="a_edge20_Node000010_Node000011"><a xlink:title=" ">
<path fill="none" stroke="#63b8ff" d="M370.75,-299.76C344,-289.11 306.44,-274.16 278.79,-263.15"/>
<polygon fill="#63b8ff" stroke="#63b8ff" points="369.14,-302.89 379.73,-303.34 371.73,-296.38 369.14,-302.89"/>
</a>
</g>
</g>
<!-- Node11&#45;&gt;Node5 -->
<g id="edge22_Node000011_Node000005" class="edge">
<title>Node11&#45;&gt;Node5</title>
<g id="a_edge22_Node000011_Node000005"><a xlink:title=" ">
<path fill="none" stroke="#63b8ff" d="M252.09,-221.41C270.16,-179.87 312.13,-97.23 375,-55.25 419.07,-25.82 479.27,-15.43 523.02,-11.94"/>
<polygon fill="#63b8ff" stroke="#63b8ff" points="248.89,-220 248.22,-230.58 255.34,-222.73 248.89,-220"/>
</a>
</g>
</g>
<!-- Node11&#45;&gt;Node9 -->
<g id="edge21_Node000011_Node000009" class="edge">
<title>Node11&#45;&gt;Node9</title>
<g id="a_edge21_Node000011_Node000009"><a xlink:title=" ">
<path fill="none" stroke="#63b8ff" d="M315.57,-231.77C397.24,-216 480.75,-200.54 532.38,-191.06"/>
<polygon fill="#63b8ff" stroke="#63b8ff" points="314.97,-228.32 305.81,-233.65 316.3,-235.19 314.97,-228.32"/>
</a>
</g>
</g>
<!-- Node12&#45;&gt;Node5 -->
<g id="edge26_Node000012_Node000005" class="edge">
<title>Node12&#45;&gt;Node5</title>
<g id="a_edge26_Node000012_Node000005"><a xlink:title=" ">
<path fill="none" stroke="#63b8ff" d="M186.84,-416.66C140.05,-401.31 76,-370.21 76,-315 76,-315 76,-315 76,-119.12 76,-86.09 86.1,-72.93 114,-55.25 180.59,-13.05 413.87,-9.18 522.96,-9.78"/>
<polygon fill="#63b8ff" stroke="#63b8ff" points="185.69,-419.97 196.28,-419.61 187.77,-413.29 185.69,-419.97"/>
</a>
</g>
</g>
<!-- Node12&#45;&gt;Node7 -->
<g id="edge25_Node000012_Node000007" class="edge">
<title>Node12&#45;&gt;Node7</title>
<g id="a_edge25_Node000012_Node000007"><a xlink:title=" ">
<path fill="none" stroke="#63b8ff" d="M258.49,-414.05C273.11,-404.67 291.43,-392.92 303.85,-384.95"/>
<polygon fill="#63b8ff" stroke="#63b8ff" points="256.88,-410.93 250.35,-419.27 260.66,-416.82 256.88,-410.93"/>
</a>
</g>
</g>
<!-- Node12&#45;&gt;Node11 -->
<g id="edge27_Node000012_Node000011" class="edge">
<title>Node12&#45;&gt;Node11</title>
<g id="a_edge27_Node000012_Node000011"><a xlink:title=" ">
<path fill="none" stroke="#63b8ff" d="M235.77,-409.31C237.19,-372.71 240.19,-295.31 241.44,-263.07"/>
<polygon fill="#63b8ff" stroke="#63b8ff" points="232.29,-408.77 235.4,-418.9 239.28,-409.04 232.29,-408.77"/>
</a>
</g>
</g>
<!-- Node13&#45;&gt;Node5 -->
<g id="edge42_Node000013_Node000005" class="edge">
<title>Node13&#45;&gt;Node5</title>
<g id="a_edge42_Node000013_Node000005"><a xlink:title=" ">
<path fill="none" stroke="#63b8ff" d="M782.36,-354.79C793.32,-330.65 810,-287.51 810,-248.5 810,-248.5 810,-248.5 810,-119.12 810,-42.85 705.27,-20.11 637.15,-13.39"/>
<polygon fill="#63b8ff" stroke="#63b8ff" points="779.28,-353.11 778.18,-363.65 785.61,-356.1 779.28,-353.11"/>
</a>
</g>
</g>
<!-- Node13&#45;&gt;Node9 -->
<g id="edge30_Node000013_Node000009" class="edge">
<title>Node13&#45;&gt;Node9</title>
<g id="a_edge30_Node000013_Node000009"><a xlink:title=" ">
<path fill="none" stroke="#63b8ff" d="M722.27,-361.65C674.04,-347.04 604.23,-317.4 572,-262.75 558.36,-239.63 570.48,-206.35 577.63,-190.72"/>
<polygon fill="#63b8ff" stroke="#63b8ff" points="721.08,-364.95 731.66,-364.38 723.03,-358.23 721.08,-364.95"/>
</a>
</g>
</g>
<!-- Node14 -->
<g id="Node000014" class="node">
<title>Node14</title>
<g id="a_Node000014"><a xlink:href="../../d9/dd5/_general_matchers_8hpp.html" target="_top" xlink:title=" ">
<polygon fill="white" stroke="#666666" points="1043.25,-329.25 908.75,-329.25 908.75,-298.75 1043.25,-298.75 1043.25,-329.25"/>
<text text-anchor="start" x="916.75" y="-315.75" font-family="Helvetica,sans-Serif" font-size="10.00">mimic++/matchers/General</text>
<text text-anchor="middle" x="976" y="-304.5" font-family="Helvetica,sans-Serif" font-size="10.00">Matchers.hpp</text>
</a>
</g>
</g>
<!-- Node13&#45;&gt;Node14 -->
<g id="edge31_Node000013_Node000014" class="edge">
<title>Node13&#45;&gt;Node14</title>
<g id="a_edge31_Node000013_Node000014"><a xlink:title=" ">
<path fill="none" stroke="#63b8ff" d="M815.06,-361.68C847.1,-352.38 891.34,-339.55 925.33,-329.69"/>
<polygon fill="#63b8ff" stroke="#63b8ff" points="814.36,-358.24 805.73,-364.38 816.31,-364.96 814.36,-358.24"/>
</a>
</g>
</g>
<!-- Node16 -->
<g id="Node000016" class="node">
<title>Node16</title>
<g id="a_Node000016"><a xlink:href="../../df/df3/_range_matchers_8hpp.html" target="_top" xlink:title=" ">
<polygon fill="white" stroke="#666666" points="1303.5,-257.12 1116.5,-257.12 1116.5,-237.88 1303.5,-237.88 1303.5,-257.12"/>
<text text-anchor="middle" x="1210" y="-243.62" font-family="Helvetica,sans-Serif" font-size="10.00">mimic++/matchers/RangeMatchers.hpp</text>
</a>
</g>
</g>
<!-- Node13&#45;&gt;Node16 -->
<g id="edge41_Node000013_Node000016" class="edge">
<title>Node13&#45;&gt;Node16</title>
<g id="a_edge41_Node000013_Node000016"><a xlink:title=" ">
<path fill="none" stroke="#63b8ff" d="M863.34,-366.67C918.8,-360.49 990.71,-349.26 1052,-329.25 1108.52,-310.8 1169.62,-274.27 1196.27,-257.41"/>
<polygon fill="#63b8ff" stroke="#63b8ff" points="863.19,-363.17 853.63,-367.72 863.94,-370.13 863.19,-363.17"/>
</a>
</g>
</g>
<!-- Node18 -->
<g id="Node000018" class="node">
<title>Node18</title>
<g id="a_Node000018"><a xlink:href="../../d1/d42/_arg_requirement_policies_8hpp.html" target="_top" xlink:title=" ">
<polygon fill="white" stroke="#666666" points="743.5,-262.75 580.5,-262.75 580.5,-232.25 743.5,-232.25 743.5,-262.75"/>
<text text-anchor="start" x="588.5" y="-249.25" font-family="Helvetica,sans-Serif" font-size="10.00">mimic++/policies/ArgRequirement</text>
<text text-anchor="middle" x="662" y="-238" font-family="Helvetica,sans-Serif" font-size="10.00">Policies.hpp</text>
</a>
</g>
</g>
<!-- Node13&#45;&gt;Node18 -->
<g id="edge43_Node000013_Node000018" class="edge">
<title>Node13&#45;&gt;Node18</title>
<g id="a_edge43_Node000013_Node000018"><a xlink:title=" ">
<path fill="none" stroke="#63b8ff" d="M757.53,-356.4C735.47,-331.49 695.41,-286.23 674.88,-263.05"/>
<polygon fill="#63b8ff" stroke="#63b8ff" points="754.76,-358.56 764.01,-363.73 760.01,-353.92 754.76,-358.56"/>
</a>
</g>
</g>
<!-- Node14&#45;&gt;Node5 -->
<g id="edge40_Node000014_Node000005" class="edge">
<title>Node14&#45;&gt;Node5</title>
<g id="a_edge40_Node000014_Node000005"><a xlink:title=" ">
<path fill="none" stroke="#63b8ff" d="M1008.6,-291.21C1017.56,-283.4 1026.15,-273.76 1031,-262.75 1036.47,-250.35 1036.27,-244.74 1031,-232.25 987.1,-128.31 949.7,-106.14 849,-55.25 781.61,-21.19 693.77,-12.25 637.13,-10.35"/>
<polygon fill="#63b8ff" stroke="#63b8ff" points="1006.42,-288.47 1000.81,-297.46 1010.8,-293.93 1006.42,-288.47"/>
</a>
</g>
</g>
<!-- Node14&#45;&gt;Node9 -->
<g id="edge32_Node000014_Node000009" class="edge">
<title>Node14&#45;&gt;Node9</title>
<g id="a_edge32_Node000014_Node000009"><a xlink:title=" ">
<path fill="none" stroke="#63b8ff" d="M920.43,-294.77C892.82,-285.51 859.02,-273.9 829,-262.75 794.88,-250.08 787.39,-244.17 753,-232.25 706.22,-216.03 651.12,-200.46 616.37,-191.06"/>
<polygon fill="#63b8ff" stroke="#63b8ff" points="919.05,-297.99 929.64,-297.84 921.26,-291.35 919.05,-297.99"/>
</a>
</g>
</g>
<!-- Node15 -->
<g id="Node000015" class="node">
<title>Node15</title>
<g id="a_Node000015"><a xlink:href="../../d1/de0/_floating_point_matchers_8hpp.html" target="_top" xlink:title=" ">
<polygon fill="white" stroke="#666666" points="1181.62,-196.25 1046.38,-196.25 1046.38,-165.75 1181.62,-165.75 1181.62,-196.25"/>
<text text-anchor="start" x="1054.38" y="-182.75" font-family="Helvetica,sans-Serif" font-size="10.00">mimic++/matchers/Floating</text>
<text text-anchor="middle" x="1114" y="-171.5" font-family="Helvetica,sans-Serif" font-size="10.00">PointMatchers.hpp</text>
</a>
</g>
</g>
<!-- Node14&#45;&gt;Node15 -->
<g id="edge33_Node000014_Node000015" class="edge">
<title>Node14&#45;&gt;Node15</title>
<g id="a_edge33_Node000014_Node000015"><a xlink:title=" ">
<path fill="none" stroke="#63b8ff" d="M1020.5,-293.16C1035.43,-285.13 1051.45,-274.86 1064,-262.75 1084.17,-243.28 1099.6,-214.06 1107.69,-196.63"/>
<polygon fill="#63b8ff" stroke="#63b8ff" points="1019.03,-289.98 1011.74,-297.67 1022.24,-296.2 1019.03,-289.98"/>
</a>
</g>
</g>
<!-- Node14&#45;&gt;Node16 -->
<g id="edge35_Node000014_Node000016" class="edge">
<title>Node14&#45;&gt;Node16</title>
<g id="a_edge35_Node000014_Node000016"><a xlink:title=" ">
<path fill="none" stroke="#63b8ff" d="M1040.36,-295.26C1084.67,-283.05 1141.71,-267.32 1177.06,-257.58"/>
<polygon fill="#63b8ff" stroke="#63b8ff" points="1039.56,-291.85 1030.85,-297.88 1041.42,-298.6 1039.56,-291.85"/>
</a>
</g>
</g>
<!-- Node17 -->
<g id="Node000017" class="node">
<title>Node17</title>
<g id="a_Node000017"><a xlink:href="../../d2/d56/_string_matchers_8hpp.html" target="_top" xlink:title=" ">
<polygon fill="white" stroke="#666666" points="1022.38,-257.12 837.62,-257.12 837.62,-237.88 1022.38,-237.88 1022.38,-257.12"/>
<text text-anchor="middle" x="930" y="-243.62" font-family="Helvetica,sans-Serif" font-size="10.00">mimic++/matchers/StringMatchers.hpp</text>
</a>
</g>
</g>
<!-- Node14&#45;&gt;Node17 -->
<g id="edge37_Node000014_Node000017" class="edge">
<title>Node14&#45;&gt;Node17</title>
<g id="a_edge37_Node000014_Node000017"><a xlink:title=" ">
<path fill="none" stroke="#63b8ff" d="M958.97,-289.12C951.05,-278.02 942.12,-265.49 936.29,-257.32"/>
<polygon fill="#63b8ff" stroke="#63b8ff" points="956.03,-291.02 964.68,-297.13 961.73,-286.96 956.03,-291.02"/>
</a>
</g>
</g>
<!-- Node15&#45;&gt;Node5 -->
<g id="edge34_Node000015_Node000005" class="edge">
<title>Node15&#45;&gt;Node5</title>
<g id="a_edge34_Node000015_Node000005"><a xlink:title=" ">
<path fill="none" stroke="#63b8ff" d="M1105.12,-154.68C1093.35,-125.3 1069.59,-77.98 1032,-55.25 966.97,-15.93 743.63,-10.52 637.23,-10.25"/>
<polygon fill="#63b8ff" stroke="#63b8ff" points="1101.8,-155.82 1108.63,-163.92 1108.35,-153.33 1101.8,-155.82"/>
</a>
</g>
</g>
<!-- Node16&#45;&gt;Node5 -->
<g id="edge36_Node000016_Node000005" class="edge">
<title>Node16&#45;&gt;Node5</title>
<g id="a_edge36_Node000016_Node000005"><a xlink:title=" ">
<path fill="none" stroke="#63b8ff" d="M1208.84,-226.35C1207.05,-209.13 1202.51,-184.27 1191,-165.75 1150.25,-100.19 1128.35,-84.7 1057,-55.25 982.33,-24.43 746.34,-14.69 636.84,-11.78"/>
<polygon fill="#63b8ff" stroke="#63b8ff" points="1205.35,-226.6 1209.62,-236.29 1212.33,-226.05 1205.35,-226.6"/>
</a>
</g>
</g>
<!-- Node17&#45;&gt;Node5 -->
<g id="edge39_Node000017_Node000005" class="edge">
<title>Node17&#45;&gt;Node5</title>
<g id="a_edge39_Node000017_Node000005"><a xlink:title=" ">
<path fill="none" stroke="#63b8ff" d="M925.04,-226.4C914.13,-186.71 884.1,-98.41 824,-55.25 794.75,-34.24 699.57,-21.64 637.1,-15.42"/>
<polygon fill="#63b8ff" stroke="#63b8ff" points="921.63,-227.2 927.54,-235.99 928.4,-225.43 921.63,-227.2"/>
</a>
</g>
</g>
<!-- Node17&#45;&gt;Node9 -->
<g id="edge38_Node000017_Node000009" class="edge">
<title>Node17&#45;&gt;Node9</title>
<g id="a_edge38_Node000017_Node000009"><a xlink:title=" ">
<path fill="none" stroke="#63b8ff" d="M869.57,-235.3C801.98,-222.77 693.78,-202.72 631.15,-191.11"/>
<polygon fill="#63b8ff" stroke="#63b8ff" points="868.92,-238.74 879.39,-237.12 870.2,-231.86 868.92,-238.74"/>
</a>
</g>
</g>
<!-- Node18&#45;&gt;Node5 -->
<g id="edge45_Node000018_Node000005" class="edge">
<title>Node18&#45;&gt;Node5</title>
<g id="a_edge45_Node000018_Node000005"><a xlink:title=" ">
<path fill="none" stroke="#63b8ff" d="M668.54,-220.79C671.56,-204.75 673.58,-183.79 669,-165.75 653.41,-104.36 606.15,-42.3 587.59,-19.63"/>
<polygon fill="#63b8ff" stroke="#63b8ff" points="665.13,-219.98 666.44,-230.49 671.97,-221.46 665.13,-219.98"/>
</a>
</g>
</g>
<!-- Node18&#45;&gt;Node9 -->
<g id="edge44_Node000018_Node000009" class="edge">
<title>Node18&#45;&gt;Node9</title>
<g id="a_edge44_Node000018_Node000009"><a xlink:title=" ">
<path fill="none" stroke="#63b8ff" d="M635.27,-224.95C620.83,-213.31 603.79,-199.57 592.94,-190.82"/>
<polygon fill="#63b8ff" stroke="#63b8ff" points="632.69,-227.36 642.67,-230.91 637.08,-221.91 632.69,-227.36"/>
</a>
</g>
</g>
</g>
</svg>
