<?xml version="1.0" encoding="UTF-8" standalone="no"?>
<!DOCTYPE svg PUBLIC "-//W3C//DTD SVG 1.1//EN"
 "http://www.w3.org/Graphics/SVG/1.1/DTD/svg11.dtd">
<!-- Generated by graphviz version 12.2.1 (20241206.2353)
 -->
<!-- Title: mimic++/Reports.hpp Pages: 1 -->
<!--zoomable 304 -->

<svg id="main" version="1.1" xmlns="http://www.w3.org/2000/svg" xmlns:xlink="http://www.w3.org/1999/xlink" xml:space="preserve" onload="init(evt)">

<style type="text/css"><![CDATA[
.node, .edge {opacity: 0.7;}
.node.selected, .edge.selected {opacity: 1;}
.edge:hover path { stroke: red; }
.edge:hover polygon { stroke: red; fill: red; }
]]></style>

<defs>
  <circle id="rim" cx="0" cy="0" r="7"/>
  <circle id="rim2" cx="0" cy="0" r="3.5"/>
  <g id="zoomPlus">
    <use xlink:href="#rim" fill="#404040"><set attributeName="fill" to="#808080" begin="zoomplus.mouseover" end="zoomplus.mouseout"/></use>
    <path d="M-4,0h8M0,-4v8" fill="none" stroke="white" stroke-width="1.5" pointer-events="none"/>
  </g>
  <g id="zoomMin">
    <use xlink:href="#rim" fill="#404040"><set attributeName="fill" to="#808080" begin="zoomminus.mouseover" end="zoomminus.mouseout"/></use>
    <path d="M-4,0h8" fill="none" stroke="white" stroke-width="1.5" pointer-events="none"/>
  </g>
  <g id="arrowUp" transform="translate(30 24)">
    <use xlink:href="#rim"/>
    <path pointer-events="none" fill="none" stroke="white" stroke-width="1.5" d="M0,-3.0v7 M-2.5,-0.5L0,-3.0L2.5,-0.5"/>
  </g>
  <g id="arrowRight" transform="rotate(90) translate(36 -43)">
    <use xlink:href="#rim"/>
    <path pointer-events="none" fill="none" stroke="white" stroke-width="1.5" d="M0,-3.0v7 M-2.5,-0.5L0,-3.0L2.5,-0.5"/>
  </g>
  <g id="arrowDown" transform="rotate(180) translate(-30 -48)">
    <use xlink:href="#rim"/>
    <path pointer-events="none" fill="none" stroke="white" stroke-width="1.5" d="M0,-3.0v7 M-2.5,-0.5L0,-3.0L2.5,-0.5"/>
  </g>
  <g id="arrowLeft" transform="rotate(270) translate(-36 17)">
    <use xlink:href="#rim"/>
    <path pointer-events="none" fill="none" stroke="white" stroke-width="1.5" d="M0,-3.0v7 M-2.5,-0.5L0,-3.0L2.5,-0.5"/>
  </g>
  <g id="resetDef">
    <use xlink:href="#rim2" fill="#404040"><set attributeName="fill" to="#808080" begin="reset.mouseover" end="reset.mouseout"/></use>
  </g>
</defs>
<script type="application/ecmascript">
var viewWidth = 1378;
var viewHeight = 304;
var sectionId = 'dynsection-0';
</script>
<script type="application/ecmascript" xlink:href="../../svg.min.js"/>
<svg id="graph" class="graph">
<g id="viewport">
<title>mimic++/Reports.hpp</title>
<!-- Node1 -->
<g id="Node000001" class="node">
<title>Node1</title>
<g id="a_Node000001"><a xlink:title=" ">
<polygon fill="#999999" stroke="#666666" points="1104.32,-295.5 995.32,-295.5 995.32,-276.25 1104.32,-276.25 1104.32,-295.5"/>
<text text-anchor="middle" x="1049.82" y="-282" font-family="Helvetica,sans-Serif" font-size="10.00">mimic++/Reports.hpp</text>
</a>
</g>
</g>
<!-- Node2 -->
<g id="Node000002" class="node">
<title>Node2</title>
<g id="a_Node000002"><a xlink:href="../../dc/d44/_call_8hpp.html" target="_top" xlink:title=" ">
<polygon fill="white" stroke="#666666" points="321.69,-185 229.94,-185 229.94,-165.75 321.69,-165.75 321.69,-185"/>
<text text-anchor="middle" x="275.82" y="-171.5" font-family="Helvetica,sans-Serif" font-size="10.00">mimic++/Call.hpp</text>
</a>
</g>
</g>
<!-- Node1&#45;&gt;Node2 -->
<g id="edge1_Node000001_Node000002" class="edge">
<title>Node1&#45;&gt;Node2</title>
<g id="a_edge1_Node000001_Node000002"><a xlink:title=" ">
<path fill="none" stroke="#63b8ff" d="M994.83,-281.45C908.01,-275.62 734.04,-262.22 587.82,-240.25 493.88,-226.14 385.5,-202.2 324.38,-187.98"/>
<polygon fill="#63b8ff" stroke="#63b8ff" points="325.54,-184.65 315,-185.79 323.94,-191.47 325.54,-184.65"/>
</a>
</g>
</g>
<!-- Node3 -->
<g id="Node000003" class="node">
<title>Node3</title>
<g id="a_Node000003"><a xlink:href="../../df/dde/_fwd_8hpp.html" target="_top" xlink:title=" ">
<polygon fill="white" stroke="#666666" points="264.82,-74.5 170.82,-74.5 170.82,-55.25 264.82,-55.25 264.82,-74.5"/>
<text text-anchor="middle" x="217.82" y="-61" font-family="Helvetica,sans-Serif" font-size="10.00">mimic++/Fwd.hpp</text>
</a>
</g>
</g>
<!-- Node1&#45;&gt;Node3 -->
<g id="edge23_Node000001_Node000003" class="edge">
<title>Node1&#45;&gt;Node3</title>
<g id="a_edge23_Node000001_Node000003"><a xlink:title=" ">
<path fill="none" stroke="#63b8ff" d="M994.82,-282.54C817.65,-274.43 270.44,-244.72 220.82,-185 197.75,-157.24 204.73,-112 211.51,-85.99"/>
<polygon fill="#63b8ff" stroke="#63b8ff" points="214.88,-86.96 214.28,-76.38 208.15,-85.02 214.88,-86.96"/>
</a>
</g>
</g>
<!-- Node17 -->
<g id="Node000017" class="node">
<title>Node17</title>
<g id="a_Node000017"><a xlink:href="../../da/dab/_printer_8hpp.html" target="_top" xlink:title=" ">
<polygon fill="white" stroke="#666666" points="700.69,-240.25 596.94,-240.25 596.94,-221 700.69,-221 700.69,-240.25"/>
<text text-anchor="middle" x="648.82" y="-226.75" font-family="Helvetica,sans-Serif" font-size="10.00">mimic++/Printer.hpp</text>
</a>
</g>
</g>
<!-- Node1&#45;&gt;Node17 -->
<g id="edge24_Node000001_Node000017" class="edge">
<title>Node1&#45;&gt;Node17</title>
<g id="a_edge24_Node000001_Node000017"><a xlink:title=" ">
<path fill="none" stroke="#63b8ff" d="M994.9,-277.58C921.1,-267.78 790.19,-250.4 712.26,-240.05"/>
<polygon fill="#63b8ff" stroke="#63b8ff" points="713.04,-236.62 702.66,-238.78 712.11,-243.56 713.04,-236.62"/>
</a>
</g>
</g>
<!-- Node19 -->
<g id="Node000019" class="node">
<title>Node19</title>
<g id="a_Node000019"><a xlink:title=" ">
<polygon fill="#e0e0e0" stroke="#999999" points="830.82,-129.75 772.82,-129.75 772.82,-110.5 830.82,-110.5 830.82,-129.75"/>
<text text-anchor="middle" x="801.82" y="-116.25" font-family="Helvetica,sans-Serif" font-size="10.00">functional</text>
</a>
</g>
</g>
<!-- Node1&#45;&gt;Node19 -->
<g id="edge49_Node000001_Node000019" class="edge">
<title>Node1&#45;&gt;Node19</title>
<g id="a_edge49_Node000001_Node000019"><a xlink:title=" ">
<path fill="none" stroke="#63b8ff" d="M1051.47,-275.92C1054.98,-253.84 1060.6,-196.38 1030.82,-165.75 973.07,-106.35 928.21,-143.92 842.48,-130"/>
<polygon fill="#63b8ff" stroke="#63b8ff" points="843.21,-126.58 832.74,-128.19 841.93,-133.46 843.21,-126.58"/>
</a>
</g>
</g>
<!-- Node20 -->
<g id="Node000020" class="node">
<title>Node20</title>
<g id="a_Node000020"><a xlink:title=" ">
<polygon fill="#e0e0e0" stroke="#999999" points="894.44,-129.75 849.19,-129.75 849.19,-110.5 894.44,-110.5 894.44,-129.75"/>
<text text-anchor="middle" x="871.82" y="-116.25" font-family="Helvetica,sans-Serif" font-size="10.00">ranges</text>
</a>
</g>
</g>
<!-- Node1&#45;&gt;Node20 -->
<g id="edge52_Node000001_Node000020" class="edge">
<title>Node1&#45;&gt;Node20</title>
<g id="a_edge52_Node000001_Node000020"><a xlink:title=" ">
<path fill="none" stroke="#63b8ff" d="M1054.75,-275.93C1065.9,-254.36 1090.11,-198.85 1063.82,-165.75 1044.46,-141.38 955.66,-129.11 905.88,-124.05"/>
<polygon fill="#63b8ff" stroke="#63b8ff" points="906.52,-120.59 896.23,-123.12 905.84,-127.56 906.52,-120.59"/>
</a>
</g>
</g>
<!-- Node21 -->
<g id="Node000021" class="node">
<title>Node21</title>
<g id="a_Node000021"><a xlink:title=" ">
<polygon fill="#e0e0e0" stroke="#999999" points="953.82,-185 907.82,-185 907.82,-165.75 953.82,-165.75 953.82,-185"/>
<text text-anchor="middle" x="930.82" y="-171.5" font-family="Helvetica,sans-Serif" font-size="10.00">iterator</text>
</a>
</g>
</g>
<!-- Node1&#45;&gt;Node21 -->
<g id="edge50_Node000001_Node000021" class="edge">
<title>Node1&#45;&gt;Node21</title>
<g id="a_edge50_Node000001_Node000021"><a xlink:title=" ">
<path fill="none" stroke="#63b8ff" d="M1040.08,-276C1020.2,-257.88 974.7,-216.38 949.12,-193.07"/>
<polygon fill="#63b8ff" stroke="#63b8ff" points="951.56,-190.55 941.81,-186.4 946.84,-195.72 951.56,-190.55"/>
</a>
</g>
</g>
<!-- Node22 -->
<g id="Node000022" class="node">
<title>Node22</title>
<g id="a_Node000022"><a xlink:title=" ">
<polygon fill="#e0e0e0" stroke="#999999" points="1021.69,-185 971.94,-185 971.94,-165.75 1021.69,-165.75 1021.69,-185"/>
<text text-anchor="middle" x="996.82" y="-171.5" font-family="Helvetica,sans-Serif" font-size="10.00">optional</text>
</a>
</g>
</g>
<!-- Node1&#45;&gt;Node22 -->
<g id="edge51_Node000001_Node000022" class="edge">
<title>Node1&#45;&gt;Node22</title>
<g id="a_edge51_Node000001_Node000022"><a xlink:title=" ">
<path fill="none" stroke="#63b8ff" d="M1045.48,-276C1036.94,-258.51 1017.77,-219.27 1006.2,-195.59"/>
<polygon fill="#63b8ff" stroke="#63b8ff" points="1009.41,-194.19 1001.88,-186.74 1003.12,-197.26 1009.41,-194.19"/>
</a>
</g>
</g>
<!-- Node25 -->
<g id="Node000025" class="node">
<title>Node25</title>
<g id="a_Node000025"><a xlink:title=" ">
<polygon fill="#e0e0e0" stroke="#999999" points="1171.69,-240.25 1115.94,-240.25 1115.94,-221 1171.69,-221 1171.69,-240.25"/>
<text text-anchor="middle" x="1143.82" y="-226.75" font-family="Helvetica,sans-Serif" font-size="10.00">algorithm</text>
</a>
</g>
</g>
<!-- Node1&#45;&gt;Node25 -->
<g id="edge48_Node000001_Node000025" class="edge">
<title>Node1&#45;&gt;Node25</title>
<g id="a_edge48_Node000001_Node000025"><a xlink:title=" ">
<path fill="none" stroke="#63b8ff" d="M1065.76,-275.84C1080.08,-267.73 1101.35,-255.68 1118.07,-246.21"/>
<polygon fill="#63b8ff" stroke="#63b8ff" points="1119.5,-249.42 1126.48,-241.45 1116.05,-243.33 1119.5,-249.42"/>
</a>
</g>
</g>
<!-- Node26 -->
<g id="Node000026" class="node">
<title>Node26</title>
<g id="a_Node000026"><a xlink:title=" ">
<polygon fill="#e0e0e0" stroke="#999999" points="1246.07,-240.25 1189.57,-240.25 1189.57,-221 1246.07,-221 1246.07,-240.25"/>
<text text-anchor="middle" x="1217.82" y="-226.75" font-family="Helvetica,sans-Serif" font-size="10.00">typeindex</text>
</a>
</g>
</g>
<!-- Node1&#45;&gt;Node26 -->
<g id="edge53_Node000001_Node000026" class="edge">
<title>Node1&#45;&gt;Node26</title>
<g id="a_edge53_Node000001_Node000026"><a xlink:title=" ">
<path fill="none" stroke="#63b8ff" d="M1078.32,-275.84C1105.83,-267.12 1147.72,-253.84 1178.42,-244.11"/>
<polygon fill="#63b8ff" stroke="#63b8ff" points="1179.26,-247.52 1187.73,-241.16 1177.14,-240.84 1179.26,-247.52"/>
</a>
</g>
</g>
<!-- Node27 -->
<g id="Node000027" class="node">
<title>Node27</title>
<g id="a_Node000027"><a xlink:title=" ">
<polygon fill="#e0e0e0" stroke="#999999" points="1309.44,-240.25 1264.19,-240.25 1264.19,-221 1309.44,-221 1309.44,-240.25"/>
<text text-anchor="middle" x="1286.82" y="-226.75" font-family="Helvetica,sans-Serif" font-size="10.00">variant</text>
</a>
</g>
</g>
<!-- Node1&#45;&gt;Node27 -->
<g id="edge54_Node000001_Node000027" class="edge">
<title>Node1&#45;&gt;Node27</title>
<g id="a_edge54_Node000001_Node000027"><a xlink:title=" ">
<path fill="none" stroke="#63b8ff" d="M1094.75,-275.75C1134.02,-267.63 1192.83,-255.12 1252.94,-240.61"/>
<polygon fill="#63b8ff" stroke="#63b8ff" points="1253.42,-244.1 1262.31,-238.34 1251.76,-237.3 1253.42,-244.1"/>
</a>
</g>
</g>
<!-- Node28 -->
<g id="Node000028" class="node">
<title>Node28</title>
<g id="a_Node000028"><a xlink:title=" ">
<polygon fill="#e0e0e0" stroke="#999999" points="1370.32,-240.25 1327.32,-240.25 1327.32,-221 1370.32,-221 1370.32,-240.25"/>
<text text-anchor="middle" x="1348.82" y="-226.75" font-family="Helvetica,sans-Serif" font-size="10.00">vector</text>
</a>
</g>
</g>
<!-- Node1&#45;&gt;Node28 -->
<g id="edge55_Node000001_Node000028" class="edge">
<title>Node1&#45;&gt;Node28</title>
<g id="a_edge55_Node000001_Node000028"><a xlink:title=" ">
<path fill="none" stroke="#63b8ff" d="M1104.79,-277.65C1156.96,-270.38 1237.73,-258.01 1315.92,-240.71"/>
<polygon fill="#63b8ff" stroke="#63b8ff" points="1316.47,-244.17 1325.46,-238.56 1314.94,-237.34 1316.47,-244.17"/>
</a>
</g>
</g>
<!-- Node2&#45;&gt;Node3 -->
<g id="edge2_Node000002_Node000003" class="edge">
<title>Node2&#45;&gt;Node3</title>
<g id="a_edge2_Node000002_Node000003"><a xlink:title=" ">
<path fill="none" stroke="#63b8ff" d="M268.83,-165.5C262.13,-156.74 252.01,-142.8 244.82,-129.75 236.9,-115.38 229.76,-98.21 224.81,-85.29"/>
<polygon fill="#63b8ff" stroke="#63b8ff" points="228.22,-84.4 221.46,-76.24 221.65,-86.84 228.22,-84.4"/>
</a>
</g>
</g>
<!-- Node6 -->
<g id="Node000006" class="node">
<title>Node6</title>
<g id="a_Node000006"><a xlink:href="../../d8/d32/_type_traits_8hpp.html" target="_top" xlink:title=" ">
<polygon fill="white" stroke="#666666" points="602.32,-129.75 481.32,-129.75 481.32,-110.5 602.32,-110.5 602.32,-129.75"/>
<text text-anchor="middle" x="541.82" y="-116.25" font-family="Helvetica,sans-Serif" font-size="10.00">mimic++/TypeTraits.hpp</text>
</a>
</g>
</g>
<!-- Node2&#45;&gt;Node6 -->
<g id="edge5_Node000002_Node000006" class="edge">
<title>Node2&#45;&gt;Node6</title>
<g id="a_edge5_Node000002_Node000006"><a xlink:title=" ">
<path fill="none" stroke="#63b8ff" d="M321.24,-165.28C366.67,-156.19 436.64,-142.18 485.55,-132.39"/>
<polygon fill="#63b8ff" stroke="#63b8ff" points="485.98,-135.87 495.09,-130.48 484.6,-129.01 485.98,-135.87"/>
</a>
</g>
</g>
<!-- Node10 -->
<g id="Node000010" class="node">
<title>Node10</title>
<g id="a_Node000010"><a xlink:title=" ">
<polygon fill="#e0e0e0" stroke="#999999" points="480.32,-74.5 443.32,-74.5 443.32,-55.25 480.32,-55.25 480.32,-74.5"/>
<text text-anchor="middle" x="461.82" y="-61" font-family="Helvetica,sans-Serif" font-size="10.00">tuple</text>
</a>
</g>
</g>
<!-- Node2&#45;&gt;Node10 -->
<g id="edge21_Node000002_Node000010" class="edge">
<title>Node2&#45;&gt;Node10</title>
<g id="a_edge21_Node000002_Node000010"><a xlink:title=" ">
<path fill="none" stroke="#63b8ff" d="M311.72,-165.26C336.55,-157.97 369.68,-146.23 395.82,-129.75 415.95,-117.05 435.05,-97.44 447.47,-83.3"/>
<polygon fill="#63b8ff" stroke="#63b8ff" points="449.81,-85.95 453.63,-76.07 444.48,-81.41 449.81,-85.95"/>
</a>
</g>
</g>
<!-- Node12 -->
<g id="Node000012" class="node">
<title>Node12</title>
<g id="a_Node000012"><a xlink:href="../../d4/d2c/_utility_8hpp.html" target="_top" xlink:title=" ">
<polygon fill="white" stroke="#666666" points="386.82,-129.75 286.82,-129.75 286.82,-110.5 386.82,-110.5 386.82,-129.75"/>
<text text-anchor="middle" x="336.82" y="-116.25" font-family="Helvetica,sans-Serif" font-size="10.00">mimic++/Utility.hpp</text>
</a>
</g>
</g>
<!-- Node2&#45;&gt;Node12 -->
<g id="edge12_Node000002_Node000012" class="edge">
<title>Node2&#45;&gt;Node12</title>
<g id="a_edge12_Node000002_Node000012"><a xlink:title=" ">
<path fill="none" stroke="#63b8ff" d="M286.16,-165.34C294.89,-157.72 307.61,-146.62 318.11,-137.45"/>
<polygon fill="#63b8ff" stroke="#63b8ff" points="320.25,-140.23 325.48,-131.02 315.65,-134.96 320.25,-140.23"/>
</a>
</g>
</g>
<!-- Node15 -->
<g id="Node000015" class="node">
<title>Node15</title>
<g id="a_Node000015"><a xlink:title=" ">
<polygon fill="#e0e0e0" stroke="#999999" points="96.94,-74.5 12.69,-74.5 12.69,-55.25 96.94,-55.25 96.94,-74.5"/>
<text text-anchor="middle" x="54.82" y="-61" font-family="Helvetica,sans-Serif" font-size="10.00">source_location</text>
</a>
</g>
</g>
<!-- Node2&#45;&gt;Node15 -->
<g id="edge20_Node000002_Node000015" class="edge">
<title>Node2&#45;&gt;Node15</title>
<g id="a_edge20_Node000002_Node000015"><a xlink:title=" ">
<path fill="none" stroke="#63b8ff" d="M257.35,-165.31C218.84,-146.4 129.7,-102.64 83.59,-80"/>
<polygon fill="#63b8ff" stroke="#63b8ff" points="85.26,-76.92 74.74,-75.66 82.17,-83.21 85.26,-76.92"/>
</a>
</g>
</g>
<!-- Node16 -->
<g id="Node000016" class="node">
<title>Node16</title>
<g id="a_Node000016"><a xlink:title=" ">
<polygon fill="#e0e0e0" stroke="#999999" points="153.07,-74.5 114.57,-74.5 114.57,-55.25 153.07,-55.25 153.07,-74.5"/>
<text text-anchor="middle" x="133.82" y="-61" font-family="Helvetica,sans-Serif" font-size="10.00">utility</text>
</a>
</g>
</g>
<!-- Node2&#45;&gt;Node16 -->
<g id="edge22_Node000002_Node000016" class="edge">
<title>Node2&#45;&gt;Node16</title>
<g id="a_edge22_Node000002_Node000016"><a xlink:title=" ">
<path fill="none" stroke="#63b8ff" d="M264.2,-165.5C240.17,-147.14 184.74,-104.79 154.47,-81.66"/>
<polygon fill="#63b8ff" stroke="#63b8ff" points="156.87,-79.09 146.8,-75.8 152.62,-84.65 156.87,-79.09"/>
</a>
</g>
</g>
<!-- Node4 -->
<g id="Node000004" class="node">
<title>Node4</title>
<g id="a_Node000004"><a xlink:title=" ">
<polygon fill="#e0e0e0" stroke="#999999" points="237.82,-19.25 197.82,-19.25 197.82,0 237.82,0 237.82,-19.25"/>
<text text-anchor="middle" x="217.82" y="-5.75" font-family="Helvetica,sans-Serif" font-size="10.00">string</text>
</a>
</g>
</g>
<!-- Node3&#45;&gt;Node4 -->
<g id="edge3_Node000003_Node000004" class="edge">
<title>Node3&#45;&gt;Node4</title>
<g id="a_edge3_Node000003_Node000004"><a xlink:title=" ">
<path fill="none" stroke="#63b8ff" d="M217.82,-55.08C217.82,-48.57 217.82,-39.42 217.82,-31.12"/>
<polygon fill="#63b8ff" stroke="#63b8ff" points="221.32,-31.12 217.82,-21.12 214.32,-31.12 221.32,-31.12"/>
</a>
</g>
</g>
<!-- Node5 -->
<g id="Node000005" class="node">
<title>Node5</title>
<g id="a_Node000005"><a xlink:title=" ">
<polygon fill="#e0e0e0" stroke="#999999" points="654.57,-19.25 589.07,-19.25 589.07,0 654.57,0 654.57,-19.25"/>
<text text-anchor="middle" x="621.82" y="-5.75" font-family="Helvetica,sans-Serif" font-size="10.00">string_view</text>
</a>
</g>
</g>
<!-- Node3&#45;&gt;Node5 -->
<g id="edge4_Node000003_Node000005" class="edge">
<title>Node3&#45;&gt;Node5</title>
<g id="a_edge4_Node000003_Node000005"><a xlink:title=" ">
<path fill="none" stroke="#63b8ff" d="M265.08,-56.64C268.38,-56.16 271.64,-55.69 274.82,-55.25 383.48,-40.04 511.58,-24.08 577.57,-15.99"/>
<polygon fill="#63b8ff" stroke="#63b8ff" points="577.77,-19.5 587.27,-14.81 576.92,-12.55 577.77,-19.5"/>
</a>
</g>
</g>
<!-- Node6&#45;&gt;Node3 -->
<g id="edge6_Node000006_Node000003" class="edge">
<title>Node6&#45;&gt;Node3</title>
<g id="a_edge6_Node000006_Node000003"><a xlink:title=" ">
<path fill="none" stroke="#63b8ff" d="M486.49,-110.03C427.99,-100.42 336.1,-85.31 276.4,-75.5"/>
<polygon fill="#63b8ff" stroke="#63b8ff" points="277.2,-72.09 266.77,-73.92 276.07,-79 277.2,-72.09"/>
</a>
</g>
</g>
<!-- Node7 -->
<g id="Node000007" class="node">
<title>Node7</title>
<g id="a_Node000007"><a xlink:title=" ">
<polygon fill="#e0e0e0" stroke="#999999" points="699.69,-74.5 643.94,-74.5 643.94,-55.25 699.69,-55.25 699.69,-74.5"/>
<text text-anchor="middle" x="671.82" y="-61" font-family="Helvetica,sans-Serif" font-size="10.00">concepts</text>
</a>
</g>
</g>
<!-- Node6&#45;&gt;Node7 -->
<g id="edge7_Node000006_Node000007" class="edge">
<title>Node6&#45;&gt;Node7</title>
<g id="a_edge7_Node000006_Node000007"><a xlink:title=" ">
<path fill="none" stroke="#63b8ff" d="M563.87,-110.09C584.51,-101.64 615.6,-88.9 639.12,-79.27"/>
<polygon fill="#63b8ff" stroke="#63b8ff" points="640.33,-82.56 648.25,-75.53 637.67,-76.08 640.33,-82.56"/>
</a>
</g>
</g>
<!-- Node8 -->
<g id="Node000008" class="node">
<title>Node8</title>
<g id="a_Node000008"><a xlink:title=" ">
<polygon fill="#e0e0e0" stroke="#999999" points="546.94,-74.5 498.69,-74.5 498.69,-55.25 546.94,-55.25 546.94,-74.5"/>
<text text-anchor="middle" x="522.82" y="-61" font-family="Helvetica,sans-Serif" font-size="10.00">cstddef</text>
</a>
</g>
</g>
<!-- Node6&#45;&gt;Node8 -->
<g id="edge8_Node000006_Node000008" class="edge">
<title>Node6&#45;&gt;Node8</title>
<g id="a_edge8_Node000006_Node000008"><a xlink:title=" ">
<path fill="none" stroke="#63b8ff" d="M538.68,-110.33C536.27,-103.59 532.86,-94.02 529.82,-85.49"/>
<polygon fill="#63b8ff" stroke="#63b8ff" points="533.19,-84.53 526.53,-76.28 526.59,-86.88 533.19,-84.53"/>
</a>
</g>
</g>
<!-- Node9 -->
<g id="Node000009" class="node">
<title>Node9</title>
<g id="a_Node000009"><a xlink:title=" ">
<polygon fill="#e0e0e0" stroke="#999999" points="801.44,-74.5 756.19,-74.5 756.19,-55.25 801.44,-55.25 801.44,-74.5"/>
<text text-anchor="middle" x="778.82" y="-61" font-family="Helvetica,sans-Serif" font-size="10.00">cstdint</text>
</a>
</g>
</g>
<!-- Node6&#45;&gt;Node9 -->
<g id="edge9_Node000006_Node000009" class="edge">
<title>Node6&#45;&gt;Node9</title>
<g id="a_edge9_Node000006_Node000009"><a xlink:title=" ">
<path fill="none" stroke="#63b8ff" d="M582.29,-110.03C628.07,-99.75 701.81,-83.18 744.76,-73.53"/>
<polygon fill="#63b8ff" stroke="#63b8ff" points="745.28,-77 754.27,-71.39 743.75,-70.17 745.28,-77"/>
</a>
</g>
</g>
<!-- Node6&#45;&gt;Node10 -->
<g id="edge10_Node000006_Node000010" class="edge">
<title>Node6&#45;&gt;Node10</title>
<g id="a_edge10_Node000006_Node000010"><a xlink:title=" ">
<path fill="none" stroke="#63b8ff" d="M528.25,-110.09C516.41,-102.21 498.98,-90.61 484.95,-81.27"/>
<polygon fill="#63b8ff" stroke="#63b8ff" points="486.98,-78.42 476.71,-75.79 483.1,-84.25 486.98,-78.42"/>
</a>
</g>
</g>
<!-- Node11 -->
<g id="Node000011" class="node">
<title>Node11</title>
<g id="a_Node000011"><a xlink:title=" ">
<polygon fill="#e0e0e0" stroke="#999999" points="626.32,-74.5 565.32,-74.5 565.32,-55.25 626.32,-55.25 626.32,-74.5"/>
<text text-anchor="middle" x="595.82" y="-61" font-family="Helvetica,sans-Serif" font-size="10.00">type_traits</text>
</a>
</g>
</g>
<!-- Node6&#45;&gt;Node11 -->
<g id="edge11_Node000006_Node000011" class="edge">
<title>Node6&#45;&gt;Node11</title>
<g id="a_edge11_Node000006_Node000011"><a xlink:title=" ">
<path fill="none" stroke="#63b8ff" d="M550.73,-110.33C558.27,-102.9 569.29,-92.04 578.54,-82.91"/>
<polygon fill="#63b8ff" stroke="#63b8ff" points="580.97,-85.44 585.63,-75.92 576.05,-80.45 580.97,-85.44"/>
</a>
</g>
</g>
<!-- Node12&#45;&gt;Node3 -->
<g id="edge13_Node000012_Node000003" class="edge">
<title>Node12&#45;&gt;Node3</title>
<g id="a_edge13_Node000012_Node000003"><a xlink:title=" ">
<path fill="none" stroke="#63b8ff" d="M316.63,-110.09C297.91,-101.72 269.79,-89.13 248.33,-79.53"/>
<polygon fill="#63b8ff" stroke="#63b8ff" points="250.04,-76.46 239.48,-75.57 247.18,-82.85 250.04,-76.46"/>
</a>
</g>
</g>
<!-- Node12&#45;&gt;Node5 -->
<g id="edge17_Node000012_Node000005" class="edge">
<title>Node12&#45;&gt;Node5</title>
<g id="a_edge17_Node000012_Node000005"><a xlink:title=" ">
<path fill="none" stroke="#63b8ff" d="M347.85,-110.09C365.26,-96.26 400.67,-69.93 434.82,-55.25 481.56,-35.16 538.95,-23.17 577.73,-16.76"/>
<polygon fill="#63b8ff" stroke="#63b8ff" points="577.82,-20.29 587.14,-15.26 576.72,-13.38 577.82,-20.29"/>
</a>
</g>
</g>
<!-- Node12&#45;&gt;Node10 -->
<g id="edge18_Node000012_Node000010" class="edge">
<title>Node12&#45;&gt;Node10</title>
<g id="a_edge18_Node000012_Node000010"><a xlink:title=" ">
<path fill="none" stroke="#63b8ff" d="M358.02,-110.09C378.49,-101.37 409.66,-88.09 432.5,-78.36"/>
<polygon fill="#63b8ff" stroke="#63b8ff" points="433.74,-81.64 441.57,-74.5 431,-75.2 433.74,-81.64"/>
</a>
</g>
</g>
<!-- Node13 -->
<g id="Node000013" class="node">
<title>Node13</title>
<g id="a_Node000013"><a xlink:title=" ">
<polygon fill="#e0e0e0" stroke="#999999" points="320.32,-74.5 283.32,-74.5 283.32,-55.25 320.32,-55.25 320.32,-74.5"/>
<text text-anchor="middle" x="301.82" y="-61" font-family="Helvetica,sans-Serif" font-size="10.00">array</text>
</a>
</g>
</g>
<!-- Node12&#45;&gt;Node13 -->
<g id="edge14_Node000012_Node000013" class="edge">
<title>Node12&#45;&gt;Node13</title>
<g id="a_edge14_Node000012_Node000013"><a xlink:title=" ">
<path fill="none" stroke="#63b8ff" d="M331.04,-110.33C326.4,-103.28 319.74,-93.15 313.95,-84.33"/>
<polygon fill="#63b8ff" stroke="#63b8ff" points="316.97,-82.56 308.55,-76.12 311.12,-86.4 316.97,-82.56"/>
</a>
</g>
</g>
<!-- Node14 -->
<g id="Node000014" class="node">
<title>Node14</title>
<g id="a_Node000014"><a xlink:title=" ">
<polygon fill="#e0e0e0" stroke="#999999" points="386.94,-74.5 338.69,-74.5 338.69,-55.25 386.94,-55.25 386.94,-74.5"/>
<text text-anchor="middle" x="362.82" y="-61" font-family="Helvetica,sans-Serif" font-size="10.00">cassert</text>
</a>
</g>
</g>
<!-- Node12&#45;&gt;Node14 -->
<g id="edge15_Node000012_Node000014" class="edge">
<title>Node12&#45;&gt;Node14</title>
<g id="a_edge15_Node000012_Node000014"><a xlink:title=" ">
<path fill="none" stroke="#63b8ff" d="M341.11,-110.33C344.44,-103.51 349.18,-93.81 353.38,-85.2"/>
<polygon fill="#63b8ff" stroke="#63b8ff" points="356.52,-86.74 357.77,-76.22 350.23,-83.67 356.52,-86.74"/>
</a>
</g>
</g>
<!-- Node12&#45;&gt;Node15 -->
<g id="edge16_Node000012_Node000015" class="edge">
<title>Node12&#45;&gt;Node15</title>
<g id="a_edge16_Node000012_Node000015"><a xlink:title=" ">
<path fill="none" stroke="#63b8ff" d="M288.66,-110.03C238.54,-100.57 160.24,-85.78 108.24,-75.96"/>
<polygon fill="#63b8ff" stroke="#63b8ff" points="109.21,-72.58 98.73,-74.17 107.91,-79.46 109.21,-72.58"/>
</a>
</g>
</g>
<!-- Node12&#45;&gt;Node16 -->
<g id="edge19_Node000012_Node000016" class="edge">
<title>Node12&#45;&gt;Node16</title>
<g id="a_edge19_Node000012_Node000016"><a xlink:title=" ">
<path fill="none" stroke="#63b8ff" d="M299.12,-110.08C265.95,-101.99 216.08,-89.54 164.41,-75.13"/>
<polygon fill="#63b8ff" stroke="#63b8ff" points="165.39,-71.77 154.82,-72.44 163.5,-78.51 165.39,-71.77"/>
</a>
</g>
</g>
<!-- Node17&#45;&gt;Node3 -->
<g id="edge25_Node000017_Node000003" class="edge">
<title>Node17&#45;&gt;Node3</title>
<g id="a_edge25_Node000017_Node000003"><a xlink:title=" ">
<path fill="none" stroke="#63b8ff" d="M596.54,-222.83C548.24,-215.83 474.79,-203.34 412.82,-185 350.65,-166.61 331.23,-166.49 277.82,-129.75 259.28,-117 242.14,-97.67 230.97,-83.61"/>
<polygon fill="#63b8ff" stroke="#63b8ff" points="234.03,-81.86 225.16,-76.07 228.49,-86.13 234.03,-81.86"/>
</a>
</g>
</g>
<!-- Node17&#45;&gt;Node4 -->
<g id="edge44_Node000017_Node000004" class="edge">
<title>Node17&#45;&gt;Node4</title>
<g id="a_edge44_Node000017_Node000004"><a xlink:title=" ">
<path fill="none" stroke="#63b8ff" d="M596.58,-230.26C514.74,-229.92 352.1,-223.81 220.82,-185 117.03,-154.32 60.38,-166.77 3.82,-74.5 -0.65,-67.21 -1.58,-61.89 3.82,-55.25 26.46,-27.39 132.52,-16.34 186.33,-12.46"/>
<polygon fill="#63b8ff" stroke="#63b8ff" points="186.33,-15.97 196.07,-11.81 185.86,-8.99 186.33,-15.97"/>
</a>
</g>
</g>
<!-- Node17&#45;&gt;Node5 -->
<g id="edge45_Node000017_Node000005" class="edge">
<title>Node17&#45;&gt;Node5</title>
<g id="a_edge45_Node000017_Node000005"><a xlink:title=" ">
<path fill="none" stroke="#63b8ff" d="M700.92,-223.86C741.78,-217.94 799.32,-206.44 845.82,-185 888.2,-165.46 942.9,-151.06 919.82,-110.5 896.04,-68.71 871.55,-72.87 826.82,-55.25 773.53,-34.26 708.38,-22.22 666.03,-16.06"/>
<polygon fill="#63b8ff" stroke="#63b8ff" points="666.61,-12.6 656.22,-14.68 665.63,-19.54 666.61,-12.6"/>
</a>
</g>
</g>
<!-- Node17&#45;&gt;Node6 -->
<g id="edge35_Node000017_Node000006" class="edge">
<title>Node17&#45;&gt;Node6</title>
<g id="a_edge35_Node000017_Node000006"><a xlink:title=" ">
<path fill="none" stroke="#63b8ff" d="M641.19,-220.7C630.34,-208.13 609.66,-184.62 590.82,-165.75 581.18,-156.1 569.97,-145.82 560.7,-137.57"/>
<polygon fill="#63b8ff" stroke="#63b8ff" points="563.16,-135.07 553.35,-131.08 558.53,-140.32 563.16,-135.07"/>
</a>
</g>
</g>
<!-- Node17&#45;&gt;Node9 -->
<g id="edge37_Node000017_Node000009" class="edge">
<title>Node17&#45;&gt;Node9</title>
<g id="a_edge37_Node000017_Node000009"><a xlink:title=" ">
<path fill="none" stroke="#63b8ff" d="M687.61,-220.55C753.13,-204.3 880.85,-168.3 903.82,-129.75 925.97,-92.56 857.2,-76.23 813.02,-69.71"/>
<polygon fill="#63b8ff" stroke="#63b8ff" points="813.73,-66.28 803.34,-68.4 812.78,-73.21 813.73,-66.28"/>
</a>
</g>
</g>
<!-- Node17&#45;&gt;Node12 -->
<g id="edge36_Node000017_Node000012" class="edge">
<title>Node17&#45;&gt;Node12</title>
<g id="a_edge36_Node000017_Node000012"><a xlink:title=" ">
<path fill="none" stroke="#63b8ff" d="M596.57,-221.02C557.81,-213.77 504.06,-201.85 458.82,-185 423.3,-171.77 384.98,-150.43 360.96,-136.1"/>
<polygon fill="#63b8ff" stroke="#63b8ff" points="362.95,-133.21 352.58,-131.03 359.32,-139.2 362.95,-133.21"/>
</a>
</g>
</g>
<!-- Node17&#45;&gt;Node15 -->
<g id="edge42_Node000017_Node000015" class="edge">
<title>Node17&#45;&gt;Node15</title>
<g id="a_edge42_Node000017_Node000015"><a xlink:title=" ">
<path fill="none" stroke="#63b8ff" d="M596.7,-228.5C492.75,-225.61 263.48,-215.85 191.82,-185 138.7,-162.13 91.35,-110.86 68.79,-83.64"/>
<polygon fill="#63b8ff" stroke="#63b8ff" points="71.59,-81.54 62.58,-75.97 66.15,-85.95 71.59,-81.54"/>
</a>
</g>
</g>
<!-- Node17&#45;&gt;Node16 -->
<g id="edge46_Node000017_Node000016" class="edge">
<title>Node17&#45;&gt;Node16</title>
<g id="a_edge46_Node000017_Node000016"><a xlink:title=" ">
<path fill="none" stroke="#63b8ff" d="M596.72,-229.4C497.04,-228.13 283.63,-221.13 220.82,-185 180.8,-161.99 154,-112.32 141.65,-84.95"/>
<polygon fill="#63b8ff" stroke="#63b8ff" points="145.01,-83.91 137.84,-76.11 138.59,-86.68 145.01,-83.91"/>
</a>
</g>
</g>
<!-- Node18 -->
<g id="Node000018" class="node">
<title>Node18</title>
<g id="a_Node000018"><a xlink:href="../../d9/dc5/_string_8hpp.html" target="_top" xlink:title=" ">
<polygon fill="white" stroke="#666666" points="738.19,-185 637.44,-185 637.44,-165.75 738.19,-165.75 738.19,-185"/>
<text text-anchor="middle" x="687.82" y="-171.5" font-family="Helvetica,sans-Serif" font-size="10.00">mimic++/String.hpp</text>
</a>
</g>
</g>
<!-- Node17&#45;&gt;Node18 -->
<g id="edge26_Node000017_Node000018" class="edge">
<title>Node17&#45;&gt;Node18</title>
<g id="a_edge26_Node000017_Node000018"><a xlink:title=" ">
<path fill="none" stroke="#63b8ff" d="M655.26,-220.83C660.48,-213.71 668,-203.43 674.51,-194.55"/>
<polygon fill="#63b8ff" stroke="#63b8ff" points="677.26,-196.72 680.34,-186.58 671.61,-192.58 677.26,-196.72"/>
</a>
</g>
</g>
<!-- Node17&#45;&gt;Node19 -->
<g id="edge38_Node000017_Node000019" class="edge">
<title>Node17&#45;&gt;Node19</title>
<g id="a_edge38_Node000017_Node000019"><a xlink:title=" ">
<path fill="none" stroke="#63b8ff" d="M676.74,-220.59C697.36,-213.09 725.43,-201.04 746.82,-185 763.96,-172.14 779.49,-153.09 789.64,-139.14"/>
<polygon fill="#63b8ff" stroke="#63b8ff" points="792.27,-141.48 795.16,-131.28 786.55,-137.46 792.27,-141.48"/>
</a>
</g>
</g>
<!-- Node17&#45;&gt;Node20 -->
<g id="edge41_Node000017_Node000020" class="edge">
<title>Node17&#45;&gt;Node20</title>
<g id="a_edge41_Node000017_Node000020"><a xlink:title=" ">
<path fill="none" stroke="#63b8ff" d="M679.14,-220.53C704.28,-212.52 740.67,-199.84 770.82,-185 799.51,-170.88 830.26,-150.61 850.2,-136.71"/>
<polygon fill="#63b8ff" stroke="#63b8ff" points="852.18,-139.59 858.33,-130.96 848.14,-133.88 852.18,-139.59"/>
</a>
</g>
</g>
<!-- Node17&#45;&gt;Node21 -->
<g id="edge39_Node000017_Node000021" class="edge">
<title>Node17&#45;&gt;Node21</title>
<g id="a_edge39_Node000017_Node000021"><a xlink:title=" ">
<path fill="none" stroke="#63b8ff" d="M701.05,-220.87C750.75,-212.36 827.57,-198.75 893.82,-185 894.64,-184.83 895.47,-184.65 896.31,-184.48"/>
<polygon fill="#63b8ff" stroke="#63b8ff" points="896.88,-187.93 905.89,-182.35 895.37,-181.1 896.88,-187.93"/>
</a>
</g>
</g>
<!-- Node17&#45;&gt;Node22 -->
<g id="edge40_Node000017_Node000022" class="edge">
<title>Node17&#45;&gt;Node22</title>
<g id="a_edge40_Node000017_Node000022"><a xlink:title=" ">
<path fill="none" stroke="#63b8ff" d="M701.05,-223.94C761.28,-217 863.45,-204.05 960.44,-185.28"/>
<polygon fill="#63b8ff" stroke="#63b8ff" points="961.01,-188.74 970.15,-183.37 959.66,-181.87 961.01,-188.74"/>
</a>
</g>
</g>
<!-- Node23 -->
<g id="Node000023" class="node">
<title>Node23</title>
<g id="a_Node000023"><a xlink:title=" ">
<polygon fill="#e0e0e0" stroke="#999999" points="519.44,-185 468.19,-185 468.19,-165.75 519.44,-165.75 519.44,-185"/>
<text text-anchor="middle" x="493.82" y="-171.5" font-family="Helvetica,sans-Serif" font-size="10.00">sstream</text>
</a>
</g>
</g>
<!-- Node17&#45;&gt;Node23 -->
<g id="edge43_Node000017_Node000023" class="edge">
<title>Node17&#45;&gt;Node23</title>
<g id="a_edge43_Node000017_Node000023"><a xlink:title=" ">
<path fill="none" stroke="#63b8ff" d="M622.52,-220.59C597.21,-211.89 558.7,-198.67 530.4,-188.94"/>
<polygon fill="#63b8ff" stroke="#63b8ff" points="531.75,-185.71 521.15,-185.77 529.47,-192.33 531.75,-185.71"/>
</a>
</g>
</g>
<!-- Node24 -->
<g id="Node000024" class="node">
<title>Node24</title>
<g id="a_Node000024"><a xlink:title=" ">
<polygon fill="#e0e0e0" stroke="#999999" points="581.69,-185 537.94,-185 537.94,-165.75 581.69,-165.75 581.69,-185"/>
<text text-anchor="middle" x="559.82" y="-171.5" font-family="Helvetica,sans-Serif" font-size="10.00">format</text>
</a>
</g>
</g>
<!-- Node17&#45;&gt;Node24 -->
<g id="edge47_Node000017_Node000024" class="edge">
<title>Node17&#45;&gt;Node24</title>
<g id="a_edge47_Node000017_Node000024"><a xlink:title=" ">
<path fill="none" stroke="#63b8ff" d="M633.72,-220.59C620.29,-212.56 600.41,-200.66 584.64,-191.23"/>
<polygon fill="#63b8ff" stroke="#63b8ff" points="586.67,-188.36 576.29,-186.23 583.07,-194.37 586.67,-188.36"/>
</a>
</g>
</g>
<!-- Node18&#45;&gt;Node3 -->
<g id="edge27_Node000018_Node000003" class="edge">
<title>Node18&#45;&gt;Node3</title>
<g id="a_edge27_Node000018_Node000003"><a xlink:title=" ">
<path fill="none" stroke="#63b8ff" d="M641.14,-165.26C597.51,-156.6 530.6,-142.98 472.82,-129.75 470.24,-129.16 337.88,-95.98 264.9,-77.68"/>
<polygon fill="#63b8ff" stroke="#63b8ff" points="266.18,-74.39 255.63,-75.36 264.47,-81.18 266.18,-74.39"/>
</a>
</g>
</g>
<!-- Node18&#45;&gt;Node4 -->
<g id="edge32_Node000018_Node000004" class="edge">
<title>Node18&#45;&gt;Node4</title>
<g id="a_edge32_Node000018_Node000004"><a xlink:title=" ">
<path fill="none" stroke="#63b8ff" d="M693.64,-165.54C707.22,-143.75 737.71,-86.88 708.82,-55.25 677.83,-21.32 353.32,-12.91 249.54,-11.08"/>
<polygon fill="#63b8ff" stroke="#63b8ff" points="249.86,-7.59 239.8,-10.92 249.74,-14.59 249.86,-7.59"/>
</a>
</g>
</g>
<!-- Node18&#45;&gt;Node5 -->
<g id="edge33_Node000018_Node000005" class="edge">
<title>Node18&#45;&gt;Node5</title>
<g id="a_edge33_Node000018_Node000005"><a xlink:title=" ">
<path fill="none" stroke="#63b8ff" d="M698.02,-165.55C712.49,-153.08 739.89,-129.7 763.82,-110.5 784.34,-94.03 799.17,-98.09 810.82,-74.5 814.6,-66.83 816.13,-61.96 810.82,-55.25 793.1,-32.87 716.15,-20.57 666.06,-14.81"/>
<polygon fill="#63b8ff" stroke="#63b8ff" points="666.71,-11.36 656.39,-13.75 665.95,-18.32 666.71,-11.36"/>
</a>
</g>
</g>
<!-- Node18&#45;&gt;Node7 -->
<g id="edge29_Node000018_Node000007" class="edge">
<title>Node18&#45;&gt;Node7</title>
<g id="a_edge29_Node000018_Node000007"><a xlink:title=" ">
<path fill="none" stroke="#63b8ff" d="M686.51,-165.5C683.96,-148.25 678.3,-109.83 674.79,-86.06"/>
<polygon fill="#63b8ff" stroke="#63b8ff" points="678.29,-85.76 673.36,-76.37 671.36,-86.78 678.29,-85.76"/>
</a>
</g>
</g>
<!-- Node18&#45;&gt;Node11 -->
<g id="edge34_Node000018_Node000011" class="edge">
<title>Node18&#45;&gt;Node11</title>
<g id="a_edge34_Node000018_Node000011"><a xlink:title=" ">
<path fill="none" stroke="#63b8ff" d="M680.29,-165.5C665.12,-147.61 630.66,-106.97 610.76,-83.5"/>
<polygon fill="#63b8ff" stroke="#63b8ff" points="613.56,-81.39 604.43,-76.03 608.23,-85.92 613.56,-81.39"/>
</a>
</g>
</g>
<!-- Node18&#45;&gt;Node12 -->
<g id="edge28_Node000018_Node000012" class="edge">
<title>Node18&#45;&gt;Node12</title>
<g id="a_edge28_Node000018_Node000012"><a xlink:title=" ">
<path fill="none" stroke="#63b8ff" d="M637.15,-166.69C574.07,-157.12 466.37,-140.78 398.54,-130.49"/>
<polygon fill="#63b8ff" stroke="#63b8ff" points="399.09,-127.03 388.68,-128.99 398.04,-133.95 399.09,-127.03"/>
</a>
</g>
</g>
<!-- Node18&#45;&gt;Node19 -->
<g id="edge30_Node000018_Node000019" class="edge">
<title>Node18&#45;&gt;Node19</title>
<g id="a_edge30_Node000018_Node000019"><a xlink:title=" ">
<path fill="none" stroke="#63b8ff" d="M707.15,-165.34C724.92,-157.04 751.53,-144.61 772.02,-135.04"/>
<polygon fill="#63b8ff" stroke="#63b8ff" points="773.43,-138.25 781.01,-130.84 770.47,-131.9 773.43,-138.25"/>
</a>
</g>
</g>
<!-- Node18&#45;&gt;Node20 -->
<g id="edge31_Node000018_Node000020" class="edge">
<title>Node18&#45;&gt;Node20</title>
<g id="a_edge31_Node000018_Node000020"><a xlink:title=" ">
<path fill="none" stroke="#63b8ff" d="M719.03,-165.34C752.1,-155.77 804.14,-140.71 838.12,-130.88"/>
<polygon fill="#63b8ff" stroke="#63b8ff" points="838.81,-134.32 847.45,-128.18 836.87,-127.6 838.81,-134.32"/>
</a>
</g>
</g>
</g>
</svg>

<g id="navigator" transform="translate(0 0)" fill="#404254">
  <rect fill="#f2f5e9" fill-opacity="0.5" stroke="#606060" stroke-width=".5" x="0" y="0" width="60" height="60"/>
  <use id="zoomplus" xlink:href="#zoomPlus" x="17" y="9" onmousedown="handleZoom(evt,'in')"/>
  <use id="zoomminus" xlink:href="#zoomMin" x="42" y="9" onmousedown="handleZoom(evt,'out')"/>
  <use id="reset" xlink:href="#resetDef" x="30" y="36" onmousedown="handleReset()"/>
   <use id="arrowup" xlink:href="#arrowUp" x="0" y="0" onmousedown="handlePan(0,-1)"/>
  <use id="arrowright" xlink:href="#arrowRight" x="0" y="0" onmousedown="handlePan(1,0)"/>
  <use id="arrowdown" xlink:href="#arrowDown" x="0" y="0" onmousedown="handlePan(0,1)"/>
  <use id="arrowleft" xlink:href="#arrowLeft" x="0" y="0" onmousedown="handlePan(-1,0)"/>
</g>
<svg viewBox="0 0 15 15" width="100%" height="30px" preserveAspectRatio="xMaxYMin meet">
 <g id="arrow_out" transform="scale(0.3 0.3)">
  <a xlink:href="_reports_8hpp__incl_org.svg" target="_base">
   <rect id="button" ry="5" rx="5" y="6" x="6" height="38" width="38"
        fill="#f2f5e9" fill-opacity="0.5" stroke="#606060" stroke-width="1.0"/>
   <path id="arrow"
     d="M 11.500037,31.436501 C 11.940474,20.09759 22.043105,11.32322 32.158766,21.979434 L 37.068811,17.246167 C 37.068811,17.246167 37.088388,32 37.088388,32 L 22.160133,31.978069 C 22.160133,31.978069 26.997745,27.140456 26.997745,27.140456 C 18.528582,18.264221 13.291696,25.230495 11.500037,31.436501 z"
     style="fill:#404040;"/>
  </a>
 </g>
</svg>

<style type='text/css'>
<![CDATA[
[data-mouse-over-selected='false'] { opacity: 0.7; }
[data-mouse-over-selected='true']  { opacity: 1.0; }
]]>
</style>
<script type="application/ecmascript"><![CDATA[
document.addEventListener('DOMContentLoaded', (event) => {
  highlightEdges();
  highlightAdjacentNodes();
});
]]></script>
</svg>
