<?xml version="1.0" encoding="UTF-8" standalone="no"?>
<!DOCTYPE svg PUBLIC "-//W3C//DTD SVG 1.1//EN"
 "http://www.w3.org/Graphics/SVG/1.1/DTD/svg11.dtd">
<!-- Generated by graphviz version 12.1.2 (20240928.0832)
 -->
<!-- Title: mimic++/Reports.hpp Pages: 1 -->
<svg width="1441pt" height="304pt"
 viewBox="0.00 0.00 1440.62 303.50" xmlns="http://www.w3.org/2000/svg" xmlns:xlink="http://www.w3.org/1999/xlink">
<g id="graph0" class="graph" transform="scale(1 1) rotate(0) translate(4 299.5)">
<title>mimic++/Reports.hpp</title>
<!-- Node1 -->
<g id="Node000001" class="node">
<title>Node1</title>
<g id="a_Node000001"><a xlink:title=" ">
<polygon fill="#999999" stroke="#666666" points="1166.62,-295.5 1057.62,-295.5 1057.62,-276.25 1166.62,-276.25 1166.62,-295.5"/>
<text text-anchor="middle" x="1112.12" y="-282" font-family="Helvetica,sans-Serif" font-size="10.00">mimic++/Reports.hpp</text>
</a>
</g>
</g>
<!-- Node2 -->
<g id="Node000002" class="node">
<title>Node2</title>
<g id="a_Node000002"><a xlink:href="../../dc/d44/_call_8hpp.html" target="_top" xlink:title=" ">
<polygon fill="white" stroke="#666666" points="300,-185 208.25,-185 208.25,-165.75 300,-165.75 300,-185"/>
<text text-anchor="middle" x="254.12" y="-171.5" font-family="Helvetica,sans-Serif" font-size="10.00">mimic++/Call.hpp</text>
</a>
</g>
</g>
<!-- Node1&#45;&gt;Node2 -->
<g id="edge1_Node000001_Node000002" class="edge">
<title>Node1&#45;&gt;Node2</title>
<g id="a_edge1_Node000001_Node000002"><a xlink:title=" ">
<path fill="none" stroke="#63b8ff" d="M1057.17,-281.2C967.24,-274.87 783.12,-260.6 628.12,-240.25 515.45,-225.46 384.79,-201.59 311.55,-187.6"/>
<polygon fill="#63b8ff" stroke="#63b8ff" points="312.27,-184.18 301.79,-185.73 310.95,-191.05 312.27,-184.18"/>
</a>
</g>
</g>
<!-- Node3 -->
<g id="Node000003" class="node">
<title>Node3</title>
<g id="a_Node000003"><a xlink:href="../../df/dde/_fwd_8hpp.html" target="_top" xlink:title=" ">
<polygon fill="white" stroke="#666666" points="771.12,-74.5 677.12,-74.5 677.12,-55.25 771.12,-55.25 771.12,-74.5"/>
<text text-anchor="middle" x="724.12" y="-61" font-family="Helvetica,sans-Serif" font-size="10.00">mimic++/Fwd.hpp</text>
</a>
</g>
</g>
<!-- Node1&#45;&gt;Node3 -->
<g id="edge22_Node000001_Node000003" class="edge">
<title>Node1&#45;&gt;Node3</title>
<g id="a_edge22_Node000001_Node000003"><a xlink:title=" ">
<path fill="none" stroke="#63b8ff" d="M1116.12,-275.87C1119.82,-267.01 1125.04,-252.99 1127.12,-240.25 1132.62,-206.63 1133.38,-189.67 1109.12,-165.75 1063.12,-120.38 878.63,-87.97 782.72,-73.82"/>
<polygon fill="#63b8ff" stroke="#63b8ff" points="783.37,-70.38 772.97,-72.4 782.36,-77.3 783.37,-70.38"/>
</a>
</g>
</g>
<!-- Node16 -->
<g id="Node000016" class="node">
<title>Node16</title>
<g id="a_Node000016"><a xlink:href="../../da/dab/_printer_8hpp.html" target="_top" xlink:title=" ">
<polygon fill="white" stroke="#666666" points="741,-240.25 637.25,-240.25 637.25,-221 741,-221 741,-240.25"/>
<text text-anchor="middle" x="689.12" y="-226.75" font-family="Helvetica,sans-Serif" font-size="10.00">mimic++/Printer.hpp</text>
</a>
</g>
</g>
<!-- Node1&#45;&gt;Node16 -->
<g id="edge23_Node000001_Node000016" class="edge">
<title>Node1&#45;&gt;Node16</title>
<g id="a_edge23_Node000001_Node000016"><a xlink:title=" ">
<path fill="none" stroke="#63b8ff" d="M1057.26,-277.97C978.9,-268.1 835.3,-250.03 752.5,-239.6"/>
<polygon fill="#63b8ff" stroke="#63b8ff" points="753.1,-236.15 742.74,-238.37 752.23,-243.1 753.1,-236.15"/>
</a>
</g>
</g>
<!-- Node18 -->
<g id="Node000018" class="node">
<title>Node18</title>
<g id="a_Node000018"><a xlink:title=" ">
<polygon fill="#e0e0e0" stroke="#999999" points="922.12,-129.75 864.12,-129.75 864.12,-110.5 922.12,-110.5 922.12,-129.75"/>
<text text-anchor="middle" x="893.12" y="-116.25" font-family="Helvetica,sans-Serif" font-size="10.00">functional</text>
</a>
</g>
</g>
<!-- Node1&#45;&gt;Node18 -->
<g id="edge48_Node000001_Node000018" class="edge">
<title>Node1&#45;&gt;Node18</title>
<g id="a_edge48_Node000001_Node000018"><a xlink:title=" ">
<path fill="none" stroke="#63b8ff" d="M1113.27,-275.94C1115.57,-253.92 1118.16,-196.58 1088.12,-165.75 1066.99,-144.06 984.14,-131.21 933.48,-125.22"/>
<polygon fill="#63b8ff" stroke="#63b8ff" points="934.1,-121.77 923.77,-124.12 933.31,-128.73 934.1,-121.77"/>
</a>
</g>
</g>
<!-- Node19 -->
<g id="Node000019" class="node">
<title>Node19</title>
<g id="a_Node000019"><a xlink:title=" ">
<polygon fill="#e0e0e0" stroke="#999999" points="845.75,-129.75 800.5,-129.75 800.5,-110.5 845.75,-110.5 845.75,-129.75"/>
<text text-anchor="middle" x="823.12" y="-116.25" font-family="Helvetica,sans-Serif" font-size="10.00">ranges</text>
</a>
</g>
</g>
<!-- Node1&#45;&gt;Node19 -->
<g id="edge51_Node000001_Node000019" class="edge">
<title>Node1&#45;&gt;Node19</title>
<g id="a_edge51_Node000001_Node000019"><a xlink:title=" ">
<path fill="none" stroke="#63b8ff" d="M1110.69,-275.97C1106.57,-253.49 1092.5,-194.24 1055.12,-165.75 986.1,-113.14 946.43,-146.65 857.26,-129.88"/>
<polygon fill="#63b8ff" stroke="#63b8ff" points="858.12,-126.49 847.62,-127.89 856.7,-133.34 858.12,-126.49"/>
</a>
</g>
</g>
<!-- Node20 -->
<g id="Node000020" class="node">
<title>Node20</title>
<g id="a_Node000020"><a xlink:title=" ">
<polygon fill="#e0e0e0" stroke="#999999" points="978.12,-185 932.12,-185 932.12,-165.75 978.12,-165.75 978.12,-185"/>
<text text-anchor="middle" x="955.12" y="-171.5" font-family="Helvetica,sans-Serif" font-size="10.00">iterator</text>
</a>
</g>
</g>
<!-- Node1&#45;&gt;Node20 -->
<g id="edge49_Node000001_Node000020" class="edge">
<title>Node1&#45;&gt;Node20</title>
<g id="a_edge49_Node000001_Node000020"><a xlink:title=" ">
<path fill="none" stroke="#63b8ff" d="M1097.71,-275.87C1083.64,-267.01 1061.72,-253 1043.12,-240.25 1019.87,-224.31 993.8,-205.23 976.11,-192.1"/>
<polygon fill="#63b8ff" stroke="#63b8ff" points="978.54,-189.54 968.43,-186.38 974.36,-195.16 978.54,-189.54"/>
</a>
</g>
</g>
<!-- Node21 -->
<g id="Node000021" class="node">
<title>Node21</title>
<g id="a_Node000021"><a xlink:title=" ">
<polygon fill="#e0e0e0" stroke="#999999" points="1046,-185 996.25,-185 996.25,-165.75 1046,-165.75 1046,-185"/>
<text text-anchor="middle" x="1021.12" y="-171.5" font-family="Helvetica,sans-Serif" font-size="10.00">optional</text>
</a>
</g>
</g>
<!-- Node1&#45;&gt;Node21 -->
<g id="edge50_Node000001_Node000021" class="edge">
<title>Node1&#45;&gt;Node21</title>
<g id="a_edge50_Node000001_Node000021"><a xlink:title=" ">
<path fill="none" stroke="#63b8ff" d="M1099.59,-275.91C1088.4,-267.52 1072,-254.2 1060.12,-240.25 1048.29,-226.33 1037.69,-208.43 1030.54,-195.12"/>
<polygon fill="#63b8ff" stroke="#63b8ff" points="1033.8,-193.82 1026.09,-186.55 1027.59,-197.04 1033.8,-193.82"/>
</a>
</g>
</g>
<!-- Node24 -->
<g id="Node000024" class="node">
<title>Node24</title>
<g id="a_Node000024"><a xlink:title=" ">
<polygon fill="#e0e0e0" stroke="#999999" points="1234,-240.25 1178.25,-240.25 1178.25,-221 1234,-221 1234,-240.25"/>
<text text-anchor="middle" x="1206.12" y="-226.75" font-family="Helvetica,sans-Serif" font-size="10.00">algorithm</text>
</a>
</g>
</g>
<!-- Node1&#45;&gt;Node24 -->
<g id="edge47_Node000001_Node000024" class="edge">
<title>Node1&#45;&gt;Node24</title>
<g id="a_edge47_Node000001_Node000024"><a xlink:title=" ">
<path fill="none" stroke="#63b8ff" d="M1128.07,-275.84C1142.39,-267.73 1163.66,-255.68 1180.38,-246.21"/>
<polygon fill="#63b8ff" stroke="#63b8ff" points="1181.81,-249.42 1188.78,-241.45 1178.36,-243.33 1181.81,-249.42"/>
</a>
</g>
</g>
<!-- Node25 -->
<g id="Node000025" class="node">
<title>Node25</title>
<g id="a_Node000025"><a xlink:title=" ">
<polygon fill="#e0e0e0" stroke="#999999" points="1308.38,-240.25 1251.88,-240.25 1251.88,-221 1308.38,-221 1308.38,-240.25"/>
<text text-anchor="middle" x="1280.12" y="-226.75" font-family="Helvetica,sans-Serif" font-size="10.00">typeindex</text>
</a>
</g>
</g>
<!-- Node1&#45;&gt;Node25 -->
<g id="edge52_Node000001_Node000025" class="edge">
<title>Node1&#45;&gt;Node25</title>
<g id="a_edge52_Node000001_Node000025"><a xlink:title=" ">
<path fill="none" stroke="#63b8ff" d="M1140.62,-275.84C1168.14,-267.12 1210.03,-253.84 1240.73,-244.11"/>
<polygon fill="#63b8ff" stroke="#63b8ff" points="1241.57,-247.52 1250.04,-241.16 1239.45,-240.84 1241.57,-247.52"/>
</a>
</g>
</g>
<!-- Node26 -->
<g id="Node000026" class="node">
<title>Node26</title>
<g id="a_Node000026"><a xlink:title=" ">
<polygon fill="#e0e0e0" stroke="#999999" points="1371.75,-240.25 1326.5,-240.25 1326.5,-221 1371.75,-221 1371.75,-240.25"/>
<text text-anchor="middle" x="1349.12" y="-226.75" font-family="Helvetica,sans-Serif" font-size="10.00">variant</text>
</a>
</g>
</g>
<!-- Node1&#45;&gt;Node26 -->
<g id="edge53_Node000001_Node000026" class="edge">
<title>Node1&#45;&gt;Node26</title>
<g id="a_edge53_Node000001_Node000026"><a xlink:title=" ">
<path fill="none" stroke="#63b8ff" d="M1157.06,-275.75C1196.33,-267.63 1255.14,-255.12 1315.25,-240.61"/>
<polygon fill="#63b8ff" stroke="#63b8ff" points="1315.73,-244.1 1324.62,-238.34 1314.07,-237.3 1315.73,-244.1"/>
</a>
</g>
</g>
<!-- Node27 -->
<g id="Node000027" class="node">
<title>Node27</title>
<g id="a_Node000027"><a xlink:title=" ">
<polygon fill="#e0e0e0" stroke="#999999" points="1432.62,-240.25 1389.62,-240.25 1389.62,-221 1432.62,-221 1432.62,-240.25"/>
<text text-anchor="middle" x="1411.12" y="-226.75" font-family="Helvetica,sans-Serif" font-size="10.00">vector</text>
</a>
</g>
</g>
<!-- Node1&#45;&gt;Node27 -->
<g id="edge54_Node000001_Node000027" class="edge">
<title>Node1&#45;&gt;Node27</title>
<g id="a_edge54_Node000001_Node000027"><a xlink:title=" ">
<path fill="none" stroke="#63b8ff" d="M1167.1,-277.65C1219.26,-270.38 1300.04,-258.01 1378.23,-240.71"/>
<polygon fill="#63b8ff" stroke="#63b8ff" points="1378.78,-244.17 1387.77,-238.56 1377.24,-237.34 1378.78,-244.17"/>
</a>
</g>
</g>
<!-- Node2&#45;&gt;Node3 -->
<g id="edge2_Node000002_Node000003" class="edge">
<title>Node2&#45;&gt;Node3</title>
<g id="a_edge2_Node000002_Node000003"><a xlink:title=" ">
<path fill="none" stroke="#63b8ff" d="M300.4,-168.81C354.5,-161.82 446.53,-148.45 524.12,-129.75 582.95,-115.57 649.58,-92.92 689.16,-78.75"/>
<polygon fill="#63b8ff" stroke="#63b8ff" points="690.18,-82.11 698.39,-75.42 687.8,-75.52 690.18,-82.11"/>
</a>
</g>
</g>
<!-- Node6 -->
<g id="Node000006" class="node">
<title>Node6</title>
<g id="a_Node000006"><a xlink:href="../../d8/d32/_type_traits_8hpp.html" target="_top" xlink:title=" ">
<polygon fill="white" stroke="#666666" points="515.62,-129.75 394.62,-129.75 394.62,-110.5 515.62,-110.5 515.62,-129.75"/>
<text text-anchor="middle" x="455.12" y="-116.25" font-family="Helvetica,sans-Serif" font-size="10.00">mimic++/TypeTraits.hpp</text>
</a>
</g>
</g>
<!-- Node2&#45;&gt;Node6 -->
<g id="edge5_Node000002_Node000006" class="edge">
<title>Node2&#45;&gt;Node6</title>
<g id="a_edge5_Node000002_Node000006"><a xlink:title=" ">
<path fill="none" stroke="#63b8ff" d="M288.22,-165.34C321.72,-156.47 373.03,-142.87 409.91,-133.1"/>
<polygon fill="#63b8ff" stroke="#63b8ff" points="410.63,-136.53 419.4,-130.59 408.83,-129.77 410.63,-136.53"/>
</a>
</g>
</g>
<!-- Node10 -->
<g id="Node000010" class="node">
<title>Node10</title>
<g id="a_Node000010"><a xlink:title=" ">
<polygon fill="#e0e0e0" stroke="#999999" points="299.62,-74.5 262.62,-74.5 262.62,-55.25 299.62,-55.25 299.62,-74.5"/>
<text text-anchor="middle" x="281.12" y="-61" font-family="Helvetica,sans-Serif" font-size="10.00">tuple</text>
</a>
</g>
</g>
<!-- Node2&#45;&gt;Node10 -->
<g id="edge20_Node000002_Node000010" class="edge">
<title>Node2&#45;&gt;Node10</title>
<g id="a_edge20_Node000002_Node000010"><a xlink:title=" ">
<path fill="none" stroke="#63b8ff" d="M258.21,-165.33C262.07,-156.44 267.76,-142.41 271.12,-129.75 274.97,-115.27 277.53,-98.52 279.09,-85.81"/>
<polygon fill="#63b8ff" stroke="#63b8ff" points="282.53,-86.5 280.17,-76.18 275.58,-85.73 282.53,-86.5"/>
</a>
</g>
</g>
<!-- Node12 -->
<g id="Node000012" class="node">
<title>Node12</title>
<g id="a_Node000012"><a xlink:href="../../d4/d2c/_utility_8hpp.html" target="_top" xlink:title=" ">
<polygon fill="white" stroke="#666666" points="262.12,-129.75 162.12,-129.75 162.12,-110.5 262.12,-110.5 262.12,-129.75"/>
<text text-anchor="middle" x="212.12" y="-116.25" font-family="Helvetica,sans-Serif" font-size="10.00">mimic++/Utility.hpp</text>
</a>
</g>
</g>
<!-- Node2&#45;&gt;Node12 -->
<g id="edge12_Node000002_Node000012" class="edge">
<title>Node2&#45;&gt;Node12</title>
<g id="a_edge12_Node000002_Node000012"><a xlink:title=" ">
<path fill="none" stroke="#63b8ff" d="M247.19,-165.58C241.51,-158.38 233.29,-147.96 226.23,-139.01"/>
<polygon fill="#63b8ff" stroke="#63b8ff" points="229.09,-136.98 220.15,-131.3 223.59,-141.32 229.09,-136.98"/>
</a>
</g>
</g>
<!-- Node14 -->
<g id="Node000014" class="node">
<title>Node14</title>
<g id="a_Node000014"><a xlink:title=" ">
<polygon fill="#e0e0e0" stroke="#999999" points="84.25,-74.5 0,-74.5 0,-55.25 84.25,-55.25 84.25,-74.5"/>
<text text-anchor="middle" x="42.12" y="-61" font-family="Helvetica,sans-Serif" font-size="10.00">source_location</text>
</a>
</g>
</g>
<!-- Node2&#45;&gt;Node14 -->
<g id="edge19_Node000002_Node000014" class="edge">
<title>Node2&#45;&gt;Node14</title>
<g id="a_edge19_Node000002_Node000014"><a xlink:title=" ">
<path fill="none" stroke="#63b8ff" d="M223.92,-165.31C199.33,-157.4 164.09,-144.84 135.12,-129.75 108.6,-115.93 80.62,-95.87 62.37,-81.93"/>
<polygon fill="#63b8ff" stroke="#63b8ff" points="64.54,-79.18 54.49,-75.82 60.25,-84.71 64.54,-79.18"/>
</a>
</g>
</g>
<!-- Node15 -->
<g id="Node000015" class="node">
<title>Node15</title>
<g id="a_Node000015"><a xlink:title=" ">
<polygon fill="#e0e0e0" stroke="#999999" points="140.38,-74.5 101.88,-74.5 101.88,-55.25 140.38,-55.25 140.38,-74.5"/>
<text text-anchor="middle" x="121.12" y="-61" font-family="Helvetica,sans-Serif" font-size="10.00">utility</text>
</a>
</g>
</g>
<!-- Node2&#45;&gt;Node15 -->
<g id="edge21_Node000002_Node000015" class="edge">
<title>Node2&#45;&gt;Node15</title>
<g id="a_edge21_Node000002_Node000015"><a xlink:title=" ">
<path fill="none" stroke="#63b8ff" d="M218.89,-165.39C197.73,-158.52 171.45,-147.2 153.12,-129.75 140.48,-117.71 132.07,-99.59 127.06,-85.73"/>
<polygon fill="#63b8ff" stroke="#63b8ff" points="130.42,-84.75 123.98,-76.34 123.77,-86.93 130.42,-84.75"/>
</a>
</g>
</g>
<!-- Node4 -->
<g id="Node000004" class="node">
<title>Node4</title>
<g id="a_Node000004"><a xlink:title=" ">
<polygon fill="#e0e0e0" stroke="#999999" points="819.12,-19.25 779.12,-19.25 779.12,0 819.12,0 819.12,-19.25"/>
<text text-anchor="middle" x="799.12" y="-5.75" font-family="Helvetica,sans-Serif" font-size="10.00">string</text>
</a>
</g>
</g>
<!-- Node3&#45;&gt;Node4 -->
<g id="edge3_Node000003_Node000004" class="edge">
<title>Node3&#45;&gt;Node4</title>
<g id="a_edge3_Node000003_Node000004"><a xlink:title=" ">
<path fill="none" stroke="#63b8ff" d="M736.85,-54.84C747.84,-47.04 763.97,-35.59 777.06,-26.29"/>
<polygon fill="#63b8ff" stroke="#63b8ff" points="778.98,-29.22 785.11,-20.58 774.93,-23.51 778.98,-29.22"/>
</a>
</g>
</g>
<!-- Node5 -->
<g id="Node000005" class="node">
<title>Node5</title>
<g id="a_Node000005"><a xlink:title=" ">
<polygon fill="#e0e0e0" stroke="#999999" points="521.88,-19.25 456.38,-19.25 456.38,0 521.88,0 521.88,-19.25"/>
<text text-anchor="middle" x="489.12" y="-5.75" font-family="Helvetica,sans-Serif" font-size="10.00">string_view</text>
</a>
</g>
</g>
<!-- Node3&#45;&gt;Node5 -->
<g id="edge4_Node000003_Node000005" class="edge">
<title>Node3&#45;&gt;Node5</title>
<g id="a_edge4_Node000003_Node000005"><a xlink:title=" ">
<path fill="none" stroke="#63b8ff" d="M683.99,-54.78C642.12,-45.29 576.64,-30.45 533.31,-20.64"/>
<polygon fill="#63b8ff" stroke="#63b8ff" points="534.26,-17.26 523.73,-18.47 532.71,-24.09 534.26,-17.26"/>
</a>
</g>
</g>
<!-- Node6&#45;&gt;Node3 -->
<g id="edge6_Node000006_Node000003" class="edge">
<title>Node6&#45;&gt;Node3</title>
<g id="a_edge6_Node000006_Node000003"><a xlink:title=" ">
<path fill="none" stroke="#63b8ff" d="M501.06,-110.03C547,-100.94 617.76,-86.93 667.23,-77.14"/>
<polygon fill="#63b8ff" stroke="#63b8ff" points="667.76,-80.6 676.89,-75.22 666.4,-73.73 667.76,-80.6"/>
</a>
</g>
</g>
<!-- Node7 -->
<g id="Node000007" class="node">
<title>Node7</title>
<g id="a_Node000007"><a xlink:title=" ">
<polygon fill="#e0e0e0" stroke="#999999" points="621,-74.5 565.25,-74.5 565.25,-55.25 621,-55.25 621,-74.5"/>
<text text-anchor="middle" x="593.12" y="-61" font-family="Helvetica,sans-Serif" font-size="10.00">concepts</text>
</a>
</g>
</g>
<!-- Node6&#45;&gt;Node7 -->
<g id="edge7_Node000006_Node000007" class="edge">
<title>Node6&#45;&gt;Node7</title>
<g id="a_edge7_Node000006_Node000007"><a xlink:title=" ">
<path fill="none" stroke="#63b8ff" d="M478.53,-110.09C500.64,-101.56 534.04,-88.67 559.09,-79.01"/>
<polygon fill="#63b8ff" stroke="#63b8ff" points="560.12,-82.36 568.19,-75.5 557.6,-75.83 560.12,-82.36"/>
</a>
</g>
</g>
<!-- Node8 -->
<g id="Node000008" class="node">
<title>Node8</title>
<g id="a_Node000008"><a xlink:title=" ">
<polygon fill="#e0e0e0" stroke="#999999" points="468.25,-74.5 420,-74.5 420,-55.25 468.25,-55.25 468.25,-74.5"/>
<text text-anchor="middle" x="444.12" y="-61" font-family="Helvetica,sans-Serif" font-size="10.00">cstddef</text>
</a>
</g>
</g>
<!-- Node6&#45;&gt;Node8 -->
<g id="edge8_Node000006_Node000008" class="edge">
<title>Node6&#45;&gt;Node8</title>
<g id="a_edge8_Node000006_Node000008"><a xlink:title=" ">
<path fill="none" stroke="#63b8ff" d="M453.31,-110.33C451.95,-103.74 450.03,-94.46 448.3,-86.07"/>
<polygon fill="#63b8ff" stroke="#63b8ff" points="451.74,-85.43 446.29,-76.34 444.88,-86.84 451.74,-85.43"/>
</a>
</g>
</g>
<!-- Node9 -->
<g id="Node000009" class="node">
<title>Node9</title>
<g id="a_Node000009"><a xlink:title=" ">
<polygon fill="#e0e0e0" stroke="#999999" points="401.75,-74.5 356.5,-74.5 356.5,-55.25 401.75,-55.25 401.75,-74.5"/>
<text text-anchor="middle" x="379.12" y="-61" font-family="Helvetica,sans-Serif" font-size="10.00">cstdint</text>
</a>
</g>
</g>
<!-- Node6&#45;&gt;Node9 -->
<g id="edge9_Node000006_Node000009" class="edge">
<title>Node6&#45;&gt;Node9</title>
<g id="a_edge9_Node000006_Node000009"><a xlink:title=" ">
<path fill="none" stroke="#63b8ff" d="M442.23,-110.09C431.1,-102.29 414.75,-90.84 401.49,-81.54"/>
<polygon fill="#63b8ff" stroke="#63b8ff" points="403.52,-78.69 393.32,-75.82 399.5,-84.43 403.52,-78.69"/>
</a>
</g>
</g>
<!-- Node6&#45;&gt;Node10 -->
<g id="edge10_Node000006_Node000010" class="edge">
<title>Node6&#45;&gt;Node10</title>
<g id="a_edge10_Node000006_Node000010"><a xlink:title=" ">
<path fill="none" stroke="#63b8ff" d="M425.61,-110.09C393.66,-100.31 342.98,-84.81 310.92,-74.99"/>
<polygon fill="#63b8ff" stroke="#63b8ff" points="312.06,-71.68 301.47,-72.1 310.01,-78.37 312.06,-71.68"/>
</a>
</g>
</g>
<!-- Node11 -->
<g id="Node000011" class="node">
<title>Node11</title>
<g id="a_Node000011"><a xlink:title=" ">
<polygon fill="#e0e0e0" stroke="#999999" points="547.62,-74.5 486.62,-74.5 486.62,-55.25 547.62,-55.25 547.62,-74.5"/>
<text text-anchor="middle" x="517.12" y="-61" font-family="Helvetica,sans-Serif" font-size="10.00">type_traits</text>
</a>
</g>
</g>
<!-- Node6&#45;&gt;Node11 -->
<g id="edge11_Node000006_Node000011" class="edge">
<title>Node6&#45;&gt;Node11</title>
<g id="a_edge11_Node000006_Node000011"><a xlink:title=" ">
<path fill="none" stroke="#63b8ff" d="M465.64,-110.09C474.51,-102.47 487.44,-91.37 498.11,-82.2"/>
<polygon fill="#63b8ff" stroke="#63b8ff" points="500.31,-84.93 505.61,-75.76 495.75,-79.62 500.31,-84.93"/>
</a>
</g>
</g>
<!-- Node12&#45;&gt;Node3 -->
<g id="edge13_Node000012_Node000003" class="edge">
<title>Node12&#45;&gt;Node3</title>
<g id="a_edge13_Node000012_Node000003"><a xlink:title=" ">
<path fill="none" stroke="#63b8ff" d="M262.62,-113.87C358.09,-103.94 564.54,-82.47 665.77,-71.94"/>
<polygon fill="#63b8ff" stroke="#63b8ff" points="665.9,-75.45 675.48,-70.93 665.18,-68.49 665.9,-75.45"/>
</a>
</g>
</g>
<!-- Node12&#45;&gt;Node5 -->
<g id="edge16_Node000012_Node000005" class="edge">
<title>Node12&#45;&gt;Node5</title>
<g id="a_edge16_Node000012_Node000005"><a xlink:title=" ">
<path fill="none" stroke="#63b8ff" d="M215.26,-110.03C220.64,-95.88 233.03,-68.81 253.12,-55.25 283.83,-34.53 385.57,-21.08 444.97,-14.78"/>
<polygon fill="#63b8ff" stroke="#63b8ff" points="445.16,-18.28 454.75,-13.78 444.44,-11.32 445.16,-18.28"/>
</a>
</g>
</g>
<!-- Node12&#45;&gt;Node10 -->
<g id="edge17_Node000012_Node000010" class="edge">
<title>Node12&#45;&gt;Node10</title>
<g id="a_edge17_Node000012_Node000010"><a xlink:title=" ">
<path fill="none" stroke="#63b8ff" d="M223.83,-110.09C233.9,-102.32 248.67,-90.92 260.69,-81.65"/>
<polygon fill="#63b8ff" stroke="#63b8ff" points="262.62,-84.58 268.39,-75.7 258.34,-79.04 262.62,-84.58"/>
</a>
</g>
</g>
<!-- Node13 -->
<g id="Node000013" class="node">
<title>Node13</title>
<g id="a_Node000013"><a xlink:title=" ">
<polygon fill="#e0e0e0" stroke="#999999" points="206.25,-74.5 158,-74.5 158,-55.25 206.25,-55.25 206.25,-74.5"/>
<text text-anchor="middle" x="182.12" y="-61" font-family="Helvetica,sans-Serif" font-size="10.00">cassert</text>
</a>
</g>
</g>
<!-- Node12&#45;&gt;Node13 -->
<g id="edge14_Node000012_Node000013" class="edge">
<title>Node12&#45;&gt;Node13</title>
<g id="a_edge14_Node000012_Node000013"><a xlink:title=" ">
<path fill="none" stroke="#63b8ff" d="M207.17,-110.33C203.24,-103.36 197.61,-93.37 192.69,-84.62"/>
<polygon fill="#63b8ff" stroke="#63b8ff" points="195.89,-83.17 187.93,-76.18 189.79,-86.61 195.89,-83.17"/>
</a>
</g>
</g>
<!-- Node12&#45;&gt;Node14 -->
<g id="edge15_Node000012_Node000014" class="edge">
<title>Node12&#45;&gt;Node14</title>
<g id="a_edge15_Node000012_Node000014"><a xlink:title=" ">
<path fill="none" stroke="#63b8ff" d="M183.29,-110.09C155.45,-101.37 113.05,-88.09 81.99,-78.36"/>
<polygon fill="#63b8ff" stroke="#63b8ff" points="83.14,-75.05 72.55,-75.4 81.05,-81.73 83.14,-75.05"/>
</a>
</g>
</g>
<!-- Node12&#45;&gt;Node15 -->
<g id="edge18_Node000012_Node000015" class="edge">
<title>Node12&#45;&gt;Node15</title>
<g id="a_edge18_Node000012_Node000015"><a xlink:title=" ">
<path fill="none" stroke="#63b8ff" d="M196.69,-110.09C182.96,-102.06 162.63,-90.16 146.51,-80.73"/>
<polygon fill="#63b8ff" stroke="#63b8ff" points="148.34,-77.75 137.94,-75.72 144.81,-83.79 148.34,-77.75"/>
</a>
</g>
</g>
<!-- Node16&#45;&gt;Node3 -->
<g id="edge24_Node000016_Node000003" class="edge">
<title>Node16&#45;&gt;Node3</title>
<g id="a_edge24_Node000016_Node000003"><a xlink:title=" ">
<path fill="none" stroke="#63b8ff" d="M694.08,-220.69C698.73,-211.89 705.5,-197.92 709.12,-185 718.62,-151.13 722.11,-110.15 723.39,-86.15"/>
<polygon fill="#63b8ff" stroke="#63b8ff" points="726.89,-86.38 723.83,-76.23 719.89,-86.07 726.89,-86.38"/>
</a>
</g>
</g>
<!-- Node16&#45;&gt;Node4 -->
<g id="edge43_Node000016_Node000004" class="edge">
<title>Node16&#45;&gt;Node4</title>
<g id="a_edge43_Node000016_Node000004"><a xlink:title=" ">
<path fill="none" stroke="#63b8ff" d="M741.29,-226.6C801.26,-219.85 895.95,-198.29 931.12,-129.75 957.22,-78.9 876.52,-39.29 829.85,-21.26"/>
<polygon fill="#63b8ff" stroke="#63b8ff" points="831.37,-18.09 820.78,-17.88 828.92,-24.65 831.37,-18.09"/>
</a>
</g>
</g>
<!-- Node16&#45;&gt;Node5 -->
<g id="edge44_Node000016_Node000005" class="edge">
<title>Node16&#45;&gt;Node5</title>
<g id="a_edge44_Node000016_Node000005"><a xlink:title=" ">
<path fill="none" stroke="#63b8ff" d="M636.97,-225.21C569.73,-218.8 457.14,-205.4 421.12,-185 393.08,-169.11 391.78,-156.72 374.12,-129.75 354.83,-100.29 326.29,-83.64 347.12,-55.25 369.35,-24.97 412.12,-14.69 444.94,-11.46"/>
<polygon fill="#63b8ff" stroke="#63b8ff" points="444.87,-14.97 454.57,-10.71 444.33,-7.99 444.87,-14.97"/>
</a>
</g>
</g>
<!-- Node16&#45;&gt;Node6 -->
<g id="edge34_Node000016_Node000006" class="edge">
<title>Node16&#45;&gt;Node6</title>
<g id="a_edge34_Node000016_Node000006"><a xlink:title=" ">
<path fill="none" stroke="#63b8ff" d="M668.74,-220.64C648.84,-211.8 617.75,-197.8 591.12,-185 574.06,-176.8 570.19,-173.95 553.12,-165.75 530.77,-155 505.26,-143.41 485.87,-134.73"/>
<polygon fill="#63b8ff" stroke="#63b8ff" points="487.45,-131.6 476.89,-130.73 484.6,-138 487.45,-131.6"/>
</a>
</g>
</g>
<!-- Node16&#45;&gt;Node9 -->
<g id="edge36_Node000016_Node000009" class="edge">
<title>Node16&#45;&gt;Node9</title>
<g id="a_edge36_Node000016_Node000009"><a xlink:title=" ">
<path fill="none" stroke="#63b8ff" d="M637.1,-222.78C594.69,-216.16 533.75,-204.25 483.12,-185 436.39,-167.23 412.34,-171.7 385.12,-129.75 376.86,-117 375.7,-99.71 376.42,-86.33"/>
<polygon fill="#63b8ff" stroke="#63b8ff" points="379.89,-86.77 377.37,-76.48 372.92,-86.1 379.89,-86.77"/>
</a>
</g>
</g>
<!-- Node16&#45;&gt;Node12 -->
<g id="edge35_Node000016_Node000012" class="edge">
<title>Node16&#45;&gt;Node12</title>
<g id="a_edge35_Node000016_Node000012"><a xlink:title=" ">
<path fill="none" stroke="#63b8ff" d="M636.8,-228.76C516.48,-226.22 228.21,-216.86 199.12,-185 188.17,-173 193.59,-154.36 200.47,-140.31"/>
<polygon fill="#63b8ff" stroke="#63b8ff" points="203.53,-142.01 205.28,-131.56 197.4,-138.64 203.53,-142.01"/>
</a>
</g>
</g>
<!-- Node16&#45;&gt;Node14 -->
<g id="edge41_Node000016_Node000014" class="edge">
<title>Node16&#45;&gt;Node14</title>
<g id="a_edge41_Node000016_Node000014"><a xlink:title=" ">
<path fill="none" stroke="#63b8ff" d="M637.1,-229.74C520.12,-229.28 239.96,-224.01 155.12,-185 108.03,-163.34 70.82,-112.34 53.22,-84.61"/>
<polygon fill="#63b8ff" stroke="#63b8ff" points="56.28,-82.9 48.06,-76.21 50.31,-86.57 56.28,-82.9"/>
</a>
</g>
</g>
<!-- Node16&#45;&gt;Node15 -->
<g id="edge45_Node000016_Node000015" class="edge">
<title>Node16&#45;&gt;Node15</title>
<g id="a_edge45_Node000016_Node000015"><a xlink:title=" ">
<path fill="none" stroke="#63b8ff" d="M637.03,-229.5C525.5,-228.5 267.37,-222.12 189.12,-185 158.1,-170.28 151.43,-159.97 135.12,-129.75 127.77,-116.12 124.28,-98.88 122.62,-85.75"/>
<polygon fill="#63b8ff" stroke="#63b8ff" points="126.14,-85.78 121.68,-76.17 119.18,-86.47 126.14,-85.78"/>
</a>
</g>
</g>
<!-- Node17 -->
<g id="Node000017" class="node">
<title>Node17</title>
<g id="a_Node000017"><a xlink:href="../../d9/dc5/_string_8hpp.html" target="_top" xlink:title=" ">
<polygon fill="white" stroke="#666666" points="700.5,-185 599.75,-185 599.75,-165.75 700.5,-165.75 700.5,-185"/>
<text text-anchor="middle" x="650.12" y="-171.5" font-family="Helvetica,sans-Serif" font-size="10.00">mimic++/String.hpp</text>
</a>
</g>
</g>
<!-- Node16&#45;&gt;Node17 -->
<g id="edge25_Node000016_Node000017" class="edge">
<title>Node16&#45;&gt;Node17</title>
<g id="a_edge25_Node000016_Node000017"><a xlink:title=" ">
<path fill="none" stroke="#63b8ff" d="M682.68,-220.83C677.47,-213.71 669.94,-203.43 663.43,-194.55"/>
<polygon fill="#63b8ff" stroke="#63b8ff" points="666.33,-192.58 657.6,-186.58 660.68,-196.72 666.33,-192.58"/>
</a>
</g>
</g>
<!-- Node16&#45;&gt;Node18 -->
<g id="edge37_Node000016_Node000018" class="edge">
<title>Node16&#45;&gt;Node18</title>
<g id="a_edge37_Node000016_Node000018"><a xlink:title=" ">
<path fill="none" stroke="#63b8ff" d="M735.22,-220.54C763.43,-213.63 799.49,-202.31 828.12,-185 848.37,-172.76 867.14,-153.04 879.25,-138.74"/>
<polygon fill="#63b8ff" stroke="#63b8ff" points="881.92,-140.99 885.55,-131.04 876.51,-136.56 881.92,-140.99"/>
</a>
</g>
</g>
<!-- Node16&#45;&gt;Node19 -->
<g id="edge40_Node000016_Node000019" class="edge">
<title>Node16&#45;&gt;Node19</title>
<g id="a_edge40_Node000016_Node000019"><a xlink:title=" ">
<path fill="none" stroke="#63b8ff" d="M741.45,-221.89C765.31,-215.73 792,-204.72 809.12,-185 819.5,-173.06 822.73,-155.19 823.52,-141.39"/>
<polygon fill="#63b8ff" stroke="#63b8ff" points="827.01,-141.71 823.67,-131.65 820.01,-141.6 827.01,-141.71"/>
</a>
</g>
</g>
<!-- Node16&#45;&gt;Node20 -->
<g id="edge38_Node000016_Node000020" class="edge">
<title>Node16&#45;&gt;Node20</title>
<g id="a_edge38_Node000016_Node000020"><a xlink:title=" ">
<path fill="none" stroke="#63b8ff" d="M738.37,-220.57C784.82,-211.9 856.34,-198.22 918.12,-185 918.95,-184.82 919.78,-184.64 920.62,-184.46"/>
<polygon fill="#63b8ff" stroke="#63b8ff" points="921.2,-187.92 930.19,-182.31 919.67,-181.09 921.2,-187.92"/>
</a>
</g>
</g>
<!-- Node16&#45;&gt;Node21 -->
<g id="edge39_Node000016_Node000021" class="edge">
<title>Node16&#45;&gt;Node21</title>
<g id="a_edge39_Node000016_Node000021"><a xlink:title=" ">
<path fill="none" stroke="#63b8ff" d="M741.35,-223.41C798.73,-216.22 893.81,-203.27 984.86,-185.28"/>
<polygon fill="#63b8ff" stroke="#63b8ff" points="985.34,-188.75 994.45,-183.36 983.96,-181.89 985.34,-188.75"/>
</a>
</g>
</g>
<!-- Node22 -->
<g id="Node000022" class="node">
<title>Node22</title>
<g id="a_Node000022"><a xlink:title=" ">
<polygon fill="#e0e0e0" stroke="#999999" points="543.75,-185 492.5,-185 492.5,-165.75 543.75,-165.75 543.75,-185"/>
<text text-anchor="middle" x="518.12" y="-171.5" font-family="Helvetica,sans-Serif" font-size="10.00">sstream</text>
</a>
</g>
</g>
<!-- Node16&#45;&gt;Node22 -->
<g id="edge42_Node000016_Node000022" class="edge">
<title>Node16&#45;&gt;Node22</title>
<g id="a_edge42_Node000016_Node000022"><a xlink:title=" ">
<path fill="none" stroke="#63b8ff" d="M660.12,-220.59C631.18,-211.58 586.61,-197.7 555.14,-187.9"/>
<polygon fill="#63b8ff" stroke="#63b8ff" points="556.22,-184.57 545.63,-184.94 554.14,-191.26 556.22,-184.57"/>
</a>
</g>
</g>
<!-- Node23 -->
<g id="Node000023" class="node">
<title>Node23</title>
<g id="a_Node000023"><a xlink:title=" ">
<polygon fill="#e0e0e0" stroke="#999999" points="800,-185 756.25,-185 756.25,-165.75 800,-165.75 800,-185"/>
<text text-anchor="middle" x="778.12" y="-171.5" font-family="Helvetica,sans-Serif" font-size="10.00">format</text>
</a>
</g>
</g>
<!-- Node16&#45;&gt;Node23 -->
<g id="edge46_Node000016_Node000023" class="edge">
<title>Node16&#45;&gt;Node23</title>
<g id="a_edge46_Node000016_Node000023"><a xlink:title=" ">
<path fill="none" stroke="#63b8ff" d="M704.22,-220.59C717.65,-212.56 737.54,-200.66 753.3,-191.23"/>
<polygon fill="#63b8ff" stroke="#63b8ff" points="754.87,-194.37 761.65,-186.23 751.28,-188.36 754.87,-194.37"/>
</a>
</g>
</g>
<!-- Node17&#45;&gt;Node3 -->
<g id="edge26_Node000017_Node000003" class="edge">
<title>Node17&#45;&gt;Node3</title>
<g id="a_edge26_Node000017_Node000003"><a xlink:title=" ">
<path fill="none" stroke="#63b8ff" d="M656.18,-165.5C668.27,-147.77 695.6,-107.69 711.68,-84.13"/>
<polygon fill="#63b8ff" stroke="#63b8ff" points="714.39,-86.36 717.13,-76.13 708.61,-82.42 714.39,-86.36"/>
</a>
</g>
</g>
<!-- Node17&#45;&gt;Node4 -->
<g id="edge31_Node000017_Node000004" class="edge">
<title>Node17&#45;&gt;Node4</title>
<g id="a_edge31_Node000017_Node000004"><a xlink:title=" ">
<path fill="none" stroke="#63b8ff" d="M668.15,-165.36C696.28,-150.37 750.45,-117.65 780.12,-74.5 789.07,-61.5 793.87,-44.22 796.41,-30.91"/>
<polygon fill="#63b8ff" stroke="#63b8ff" points="799.85,-31.56 797.98,-21.13 792.94,-30.45 799.85,-31.56"/>
</a>
</g>
</g>
<!-- Node17&#45;&gt;Node5 -->
<g id="edge32_Node000017_Node000005" class="edge">
<title>Node17&#45;&gt;Node5</title>
<g id="a_edge32_Node000017_Node000005"><a xlink:title=" ">
<path fill="none" stroke="#63b8ff" d="M651.5,-165.3C654.26,-143.46 658.05,-87.39 630.12,-55.25 606.13,-27.63 565.16,-16.93 533.55,-12.87"/>
<polygon fill="#63b8ff" stroke="#63b8ff" points="534.2,-9.42 523.88,-11.82 533.44,-16.38 534.2,-9.42"/>
</a>
</g>
</g>
<!-- Node17&#45;&gt;Node7 -->
<g id="edge28_Node000017_Node000007" class="edge">
<title>Node17&#45;&gt;Node7</title>
<g id="a_edge28_Node000017_Node000007"><a xlink:title=" ">
<path fill="none" stroke="#63b8ff" d="M645.46,-165.5C636.23,-147.93 615.47,-108.41 603.05,-84.77"/>
<polygon fill="#63b8ff" stroke="#63b8ff" points="606.31,-83.44 598.56,-76.22 600.11,-86.7 606.31,-83.44"/>
</a>
</g>
</g>
<!-- Node17&#45;&gt;Node11 -->
<g id="edge33_Node000017_Node000011" class="edge">
<title>Node17&#45;&gt;Node11</title>
<g id="a_edge33_Node000017_Node000011"><a xlink:title=" ">
<path fill="none" stroke="#63b8ff" d="M639.24,-165.5C616.83,-147.22 565.27,-105.15 536.84,-81.96"/>
<polygon fill="#63b8ff" stroke="#63b8ff" points="539.29,-79.44 529.33,-75.83 534.87,-84.87 539.29,-79.44"/>
</a>
</g>
</g>
<!-- Node17&#45;&gt;Node12 -->
<g id="edge27_Node000017_Node000012" class="edge">
<title>Node17&#45;&gt;Node12</title>
<g id="a_edge27_Node000017_Node000012"><a xlink:title=" ">
<path fill="none" stroke="#63b8ff" d="M599.45,-168.21C518.64,-158.39 360.81,-139.2 273.64,-128.6"/>
<polygon fill="#63b8ff" stroke="#63b8ff" points="274.19,-125.15 263.84,-127.41 273.35,-132.09 274.19,-125.15"/>
</a>
</g>
</g>
<!-- Node17&#45;&gt;Node18 -->
<g id="edge29_Node000017_Node000018" class="edge">
<title>Node17&#45;&gt;Node18</title>
<g id="a_edge29_Node000017_Node000018"><a xlink:title=" ">
<path fill="none" stroke="#63b8ff" d="M692.55,-165.25C731.68,-156.82 791.67,-143.82 852.68,-130.28"/>
<polygon fill="#63b8ff" stroke="#63b8ff" points="853.19,-133.75 862.19,-128.17 851.67,-126.92 853.19,-133.75"/>
</a>
</g>
</g>
<!-- Node17&#45;&gt;Node19 -->
<g id="edge30_Node000017_Node000019" class="edge">
<title>Node17&#45;&gt;Node19</title>
<g id="a_edge30_Node000017_Node000019"><a xlink:title=" ">
<path fill="none" stroke="#63b8ff" d="M679.47,-165.34C709.91,-155.97 757.45,-141.34 789.41,-131.5"/>
<polygon fill="#63b8ff" stroke="#63b8ff" points="790.04,-134.97 798.57,-128.68 787.98,-128.28 790.04,-134.97"/>
</a>
</g>
</g>
</g>
</svg>
