<?xml version="1.0" encoding="UTF-8" standalone="no"?>
<!DOCTYPE svg PUBLIC "-//W3C//DTD SVG 1.1//EN"
 "http://www.w3.org/Graphics/SVG/1.1/DTD/svg11.dtd">
<!-- Generated by graphviz version 12.2.1 (20241206.2353)
 -->
<!-- Title: mimicpp::BasicReporter&lt; successReporter, warningReporter, failReporter &gt; Pages: 1 -->
<!--zoomable 322 -->

<svg id="main" version="1.1" xmlns="http://www.w3.org/2000/svg" xmlns:xlink="http://www.w3.org/1999/xlink" xml:space="preserve" onload="init(evt)">

<style type="text/css"><![CDATA[
.node, .edge {opacity: 0.7;}
.node.selected, .edge.selected {opacity: 1;}
.edge:hover path { stroke: red; }
.edge:hover polygon { stroke: red; fill: red; }
]]></style>

<defs>
  <circle id="rim" cx="0" cy="0" r="7"/>
  <circle id="rim2" cx="0" cy="0" r="3.5"/>
  <g id="zoomPlus">
    <use xlink:href="#rim" fill="#404040"><set attributeName="fill" to="#808080" begin="zoomplus.mouseover" end="zoomplus.mouseout"/></use>
    <path d="M-4,0h8M0,-4v8" fill="none" stroke="white" stroke-width="1.5" pointer-events="none"/>
  </g>
  <g id="zoomMin">
    <use xlink:href="#rim" fill="#404040"><set attributeName="fill" to="#808080" begin="zoomminus.mouseover" end="zoomminus.mouseout"/></use>
    <path d="M-4,0h8" fill="none" stroke="white" stroke-width="1.5" pointer-events="none"/>
  </g>
  <g id="arrowUp" transform="translate(30 24)">
    <use xlink:href="#rim"/>
    <path pointer-events="none" fill="none" stroke="white" stroke-width="1.5" d="M0,-3.0v7 M-2.5,-0.5L0,-3.0L2.5,-0.5"/>
  </g>
  <g id="arrowRight" transform="rotate(90) translate(36 -43)">
    <use xlink:href="#rim"/>
    <path pointer-events="none" fill="none" stroke="white" stroke-width="1.5" d="M0,-3.0v7 M-2.5,-0.5L0,-3.0L2.5,-0.5"/>
  </g>
  <g id="arrowDown" transform="rotate(180) translate(-30 -48)">
    <use xlink:href="#rim"/>
    <path pointer-events="none" fill="none" stroke="white" stroke-width="1.5" d="M0,-3.0v7 M-2.5,-0.5L0,-3.0L2.5,-0.5"/>
  </g>
  <g id="arrowLeft" transform="rotate(270) translate(-36 17)">
    <use xlink:href="#rim"/>
    <path pointer-events="none" fill="none" stroke="white" stroke-width="1.5" d="M0,-3.0v7 M-2.5,-0.5L0,-3.0L2.5,-0.5"/>
  </g>
  <g id="resetDef">
    <use xlink:href="#rim2" fill="#404040"><set attributeName="fill" to="#808080" begin="reset.mouseover" end="reset.mouseout"/></use>
  </g>
</defs>
<script type="application/ecmascript">
var viewWidth = 641;
var viewHeight = 322;
var sectionId = 'dynsection-0';
</script>
<script type="application/ecmascript" xlink:href="../../svg.min.js"/>
<svg id="graph" class="graph">
<g id="viewport">
<title>mimicpp::BasicReporter&lt; successReporter, warningReporter, failReporter &gt;</title>
<!-- Node1 -->
<g id="Node000001" class="node">
<title>Node1</title>
<g id="a_Node000001"><a xlink:title="A reporter, which creates text messages and reports them via the provided callbacks.">
<polygon fill="#999999" stroke="#666666" points="310.5,-176 134,-176 134,-134.25 310.5,-134.25 310.5,-176"/>
<text text-anchor="start" x="142" y="-162.5" font-family="Helvetica,sans-Serif" font-size="10.00">mimicpp::BasicReporter</text>
<text text-anchor="start" x="142" y="-151.25" font-family="Helvetica,sans-Serif" font-size="10.00">&lt; successReporter, warningReporter,</text>
<text text-anchor="middle" x="222.25" y="-140" font-family="Helvetica,sans-Serif" font-size="10.00"> failReporter &gt;</text>
</a>
</g>
</g>
<!-- Node3 -->
<g id="Node000003" class="node">
<title>Node3</title>
<g id="a_Node000003"><a xlink:href="../../d4/d56/classmimicpp_1_1_basic_reporter.html" target="_top" xlink:title=" ">
<polygon fill="white" stroke="#666666" points="632.12,-310.25 481.88,-310.25 481.88,-246 632.12,-246 632.12,-310.25"/>
<text text-anchor="start" x="489.88" y="-296.75" font-family="Helvetica,sans-Serif" font-size="10.00">mimicpp::BasicReporter</text>
<text text-anchor="start" x="489.88" y="-285.5" font-family="Helvetica,sans-Serif" font-size="10.00">&lt; &amp;detail::boost_test</text>
<text text-anchor="start" x="489.88" y="-274.25" font-family="Helvetica,sans-Serif" font-size="10.00">::send_success, &amp;detail</text>
<text text-anchor="start" x="489.88" y="-263" font-family="Helvetica,sans-Serif" font-size="10.00">::boost_test::send_warning,</text>
<text text-anchor="middle" x="557" y="-251.75" font-family="Helvetica,sans-Serif" font-size="10.00"> &amp;detail::boost_test::send_fail &gt;</text>
</a>
</g>
</g>
<!-- Node1&#45;&gt;Node3 -->
<g id="edge2_Node000001_Node000003" class="edge">
<title>Node1&#45;&gt;Node3</title>
<g id="a_edge2_Node000001_Node000003"><a xlink:title=" ">
<path fill="none" stroke="orange" stroke-dasharray="5,2" d="M254.17,-183.82C274,-200.68 301.08,-221 328.5,-233.12 377.01,-254.59 435.84,-265.88 481.53,-271.78"/>
<polygon fill="orange" stroke="orange" points="256.58,-181.28 246.74,-177.35 251.98,-186.56 256.58,-181.28"/>
</a>
</g>
<text text-anchor="start" x="328.5" y="-304.36" font-family="Helvetica,sans-Serif" font-size="10.00" fill="grey"> &lt; &amp;detail::boost_test</text>
<text text-anchor="start" x="328.5" y="-293.11" font-family="Helvetica,sans-Serif" font-size="10.00" fill="grey">::send_success, &amp;detail</text>
<text text-anchor="start" x="328.5" y="-281.86" font-family="Helvetica,sans-Serif" font-size="10.00" fill="grey">::boost_test::send_warning,</text>
<text text-anchor="middle" x="395.62" y="-270.61" font-family="Helvetica,sans-Serif" font-size="10.00" fill="grey"> &amp;detail::boost_test::send_fail &gt;</text>
</g>
<!-- Node4 -->
<g id="Node000004" class="node">
<title>Node4</title>
<g id="a_Node000004"><a xlink:href="../../d4/d56/classmimicpp_1_1_basic_reporter.html" target="_top" xlink:title=" ">
<polygon fill="white" stroke="#666666" points="631.75,-228.25 482.25,-228.25 482.25,-164 631.75,-164 631.75,-228.25"/>
<text text-anchor="start" x="490.25" y="-214.75" font-family="Helvetica,sans-Serif" font-size="10.00">mimicpp::BasicReporter</text>
<text text-anchor="start" x="490.25" y="-203.5" font-family="Helvetica,sans-Serif" font-size="10.00">&lt; &amp;detail::catch2::send</text>
<text text-anchor="start" x="490.25" y="-192.25" font-family="Helvetica,sans-Serif" font-size="10.00">_success, &amp;detail::catch2</text>
<text text-anchor="start" x="490.25" y="-181" font-family="Helvetica,sans-Serif" font-size="10.00">::send_warning, &amp;detail::catch2</text>
<text text-anchor="middle" x="557" y="-169.75" font-family="Helvetica,sans-Serif" font-size="10.00">::send_fail &gt;</text>
</a>
</g>
</g>
<!-- Node1&#45;&gt;Node4 -->
<g id="edge3_Node000001_Node000004" class="edge">
<title>Node1&#45;&gt;Node4</title>
<g id="a_edge3_Node000001_Node000004"><a xlink:title=" ">
<path fill="none" stroke="orange" stroke-dasharray="5,2" d="M321.78,-167.27C373.04,-173.58 434.66,-181.17 481.83,-186.99"/>
<polygon fill="orange" stroke="orange" points="322.53,-163.83 312.18,-166.08 321.68,-170.78 322.53,-163.83"/>
</a>
</g>
<text text-anchor="start" x="336.75" y="-219.51" font-family="Helvetica,sans-Serif" font-size="10.00" fill="grey"> &lt; &amp;detail::catch2::</text>
<text text-anchor="start" x="336.75" y="-208.26" font-family="Helvetica,sans-Serif" font-size="10.00" fill="grey">send_success, &amp;detail</text>
<text text-anchor="start" x="336.75" y="-197.01" font-family="Helvetica,sans-Serif" font-size="10.00" fill="grey">::catch2::send_warning,</text>
<text text-anchor="middle" x="395.62" y="-185.76" font-family="Helvetica,sans-Serif" font-size="10.00" fill="grey"> &amp;detail::catch2::send_fail &gt;</text>
</g>
<!-- Node5 -->
<g id="Node000005" class="node">
<title>Node5</title>
<g id="a_Node000005"><a xlink:href="../../d4/d56/classmimicpp_1_1_basic_reporter.html" target="_top" xlink:title=" ">
<polygon fill="white" stroke="#666666" points="633.25,-146.25 480.75,-146.25 480.75,-82 633.25,-82 633.25,-146.25"/>
<text text-anchor="start" x="488.75" y="-132.75" font-family="Helvetica,sans-Serif" font-size="10.00">mimicpp::BasicReporter</text>
<text text-anchor="start" x="488.75" y="-121.5" font-family="Helvetica,sans-Serif" font-size="10.00">&lt; &amp;detail::doctest::send</text>
<text text-anchor="start" x="488.75" y="-110.25" font-family="Helvetica,sans-Serif" font-size="10.00">_success, &amp;detail::doctest</text>
<text text-anchor="start" x="488.75" y="-99" font-family="Helvetica,sans-Serif" font-size="10.00">::send_warning, &amp;detail::doctest</text>
<text text-anchor="middle" x="557" y="-87.75" font-family="Helvetica,sans-Serif" font-size="10.00">::send_fail &gt;</text>
</a>
</g>
</g>
<!-- Node1&#45;&gt;Node5 -->
<g id="edge4_Node000001_Node000005" class="edge">
<title>Node1&#45;&gt;Node5</title>
<g id="a_edge4_Node000001_Node000005"><a xlink:title=" ">
<path fill="none" stroke="orange" stroke-dasharray="5,2" d="M285.99,-130.16C299.79,-125.66 314.47,-121.62 328.5,-119.12 378.58,-110.23 435.83,-109.02 480.37,-110.01"/>
<polygon fill="orange" stroke="orange" points="284.92,-126.82 276.58,-133.35 287.17,-133.45 284.92,-126.82"/>
</a>
</g>
<text text-anchor="start" x="335.25" y="-154.62" font-family="Helvetica,sans-Serif" font-size="10.00" fill="grey"> &lt; &amp;detail::doctest</text>
<text text-anchor="start" x="335.25" y="-143.38" font-family="Helvetica,sans-Serif" font-size="10.00" fill="grey">::send_success, &amp;detail</text>
<text text-anchor="start" x="335.25" y="-132.12" font-family="Helvetica,sans-Serif" font-size="10.00" fill="grey">::doctest::send_warning,</text>
<text text-anchor="middle" x="395.62" y="-120.88" font-family="Helvetica,sans-Serif" font-size="10.00" fill="grey"> &amp;detail::doctest::send_fail &gt;</text>
</g>
<!-- Node6 -->
<g id="Node000006" class="node">
<title>Node6</title>
<g id="a_Node000006"><a xlink:href="../../d4/d56/classmimicpp_1_1_basic_reporter.html" target="_top" xlink:title=" ">
<polygon fill="white" stroke="#666666" points="617.12,-64.25 496.88,-64.25 496.88,0 617.12,0 617.12,-64.25"/>
<text text-anchor="start" x="504.88" y="-50.75" font-family="Helvetica,sans-Serif" font-size="10.00">mimicpp::BasicReporter</text>
<text text-anchor="start" x="504.88" y="-39.5" font-family="Helvetica,sans-Serif" font-size="10.00">&lt; &amp;detail::gtest::send</text>
<text text-anchor="start" x="504.88" y="-28.25" font-family="Helvetica,sans-Serif" font-size="10.00">_success, &amp;detail::gtest</text>
<text text-anchor="start" x="504.88" y="-17" font-family="Helvetica,sans-Serif" font-size="10.00">::send_warning, &amp;detail::</text>
<text text-anchor="middle" x="557" y="-5.75" font-family="Helvetica,sans-Serif" font-size="10.00">gtest::send_fail &gt;</text>
</a>
</g>
</g>
<!-- Node1&#45;&gt;Node6 -->
<g id="edge5_Node000001_Node000006" class="edge">
<title>Node1&#45;&gt;Node6</title>
<g id="a_edge5_Node000001_Node000006"><a xlink:title=" ">
<path fill="none" stroke="orange" stroke-dasharray="5,2" d="M247.57,-125.36C267.06,-103.73 296.37,-75.78 328.5,-61.12 381.93,-36.76 449.32,-30.84 496.84,-30.2"/>
<polygon fill="orange" stroke="orange" points="245.05,-122.92 241.09,-132.75 250.32,-127.54 245.05,-122.92"/>
</a>
</g>
<text text-anchor="start" x="343.88" y="-96.62" font-family="Helvetica,sans-Serif" font-size="10.00" fill="grey"> &lt; &amp;detail::gtest::send</text>
<text text-anchor="start" x="343.88" y="-85.38" font-family="Helvetica,sans-Serif" font-size="10.00" fill="grey">_success, &amp;detail::gtest</text>
<text text-anchor="start" x="343.88" y="-74.12" font-family="Helvetica,sans-Serif" font-size="10.00" fill="grey">::send_warning, &amp;detail</text>
<text text-anchor="middle" x="395.62" y="-62.88" font-family="Helvetica,sans-Serif" font-size="10.00" fill="grey">::gtest::send_fail &gt;</text>
</g>
<!-- Node2 -->
<g id="Node000002" class="node">
<title>Node2</title>
<g id="a_Node000002"><a xlink:href="../../dd/df0/classmimicpp_1_1_i_reporter.html" target="_top" xlink:title="The reporter interface.">
<polygon fill="white" stroke="#666666" points="97,-164.75 0,-164.75 0,-145.5 97,-145.5 97,-164.75"/>
<text text-anchor="middle" x="48.5" y="-151.25" font-family="Helvetica,sans-Serif" font-size="10.00">mimicpp::IReporter</text>
</a>
</g>
</g>
<!-- Node2&#45;&gt;Node1 -->
<g id="edge1_Node000001_Node000002" class="edge">
<title>Node2&#45;&gt;Node1</title>
<g id="a_edge1_Node000001_Node000002"><a xlink:title=" ">
<path fill="none" stroke="#63b8ff" d="M108.8,-155.12C116.81,-155.12 125.17,-155.12 133.55,-155.12"/>
<polygon fill="#63b8ff" stroke="#63b8ff" points="108.86,-151.63 98.86,-155.13 108.86,-158.63 108.86,-151.63"/>
</a>
</g>
</g>
</g>
</svg>

<g id="navigator" transform="translate(0 0)" fill="#404254">
  <rect fill="#f2f5e9" fill-opacity="0.5" stroke="#606060" stroke-width=".5" x="0" y="0" width="60" height="60"/>
  <use id="zoomplus" xlink:href="#zoomPlus" x="17" y="9" onmousedown="handleZoom(evt,'in')"/>
  <use id="zoomminus" xlink:href="#zoomMin" x="42" y="9" onmousedown="handleZoom(evt,'out')"/>
  <use id="reset" xlink:href="#resetDef" x="30" y="36" onmousedown="handleReset()"/>
   <use id="arrowup" xlink:href="#arrowUp" x="0" y="0" onmousedown="handlePan(0,-1)"/>
  <use id="arrowright" xlink:href="#arrowRight" x="0" y="0" onmousedown="handlePan(1,0)"/>
  <use id="arrowdown" xlink:href="#arrowDown" x="0" y="0" onmousedown="handlePan(0,1)"/>
  <use id="arrowleft" xlink:href="#arrowLeft" x="0" y="0" onmousedown="handlePan(-1,0)"/>
</g>
<svg viewBox="0 0 15 15" width="100%" height="30px" preserveAspectRatio="xMaxYMin meet">
 <g id="arrow_out" transform="scale(0.3 0.3)">
  <a xlink:href="classmimicpp_1_1_basic_reporter__inherit__graph_org.svg" target="_base">
   <rect id="button" ry="5" rx="5" y="6" x="6" height="38" width="38"
        fill="#f2f5e9" fill-opacity="0.5" stroke="#606060" stroke-width="1.0"/>
   <path id="arrow"
     d="M 11.500037,31.436501 C 11.940474,20.09759 22.043105,11.32322 32.158766,21.979434 L 37.068811,17.246167 C 37.068811,17.246167 37.088388,32 37.088388,32 L 22.160133,31.978069 C 22.160133,31.978069 26.997745,27.140456 26.997745,27.140456 C 18.528582,18.264221 13.291696,25.230495 11.500037,31.436501 z"
     style="fill:#404040;"/>
  </a>
 </g>
</svg>

<style type='text/css'>
<![CDATA[
[data-mouse-over-selected='false'] { opacity: 0.7; }
[data-mouse-over-selected='true']  { opacity: 1.0; }
]]>
</style>
<script type="application/ecmascript"><![CDATA[
document.addEventListener('DOMContentLoaded', (event) => {
  highlightEdges();
  highlightAdjacentNodes();
});
]]></script>
</svg>
