<?xml version="1.0" encoding="UTF-8" standalone="no"?>
<!DOCTYPE svg PUBLIC "-//W3C//DTD SVG 1.1//EN"
 "http://www.w3.org/Graphics/SVG/1.1/DTD/svg11.dtd">
<!-- Generated by graphviz version 12.2.1 (20241206.2353)
 -->
<!-- Title: mimic++/printing/type/PostProcessing.hpp Pages: 1 -->
<!--zoomable 260 -->

<svg id="main" version="1.1" xmlns="http://www.w3.org/2000/svg" xmlns:xlink="http://www.w3.org/1999/xlink" xml:space="preserve" onload="init(evt)">

<style type="text/css"><![CDATA[
.node, .edge {opacity: 0.7;}
.node.selected, .edge.selected {opacity: 1;}
.edge:hover path { stroke: red; }
.edge:hover polygon { stroke: red; fill: red; }
]]></style>

<defs>
  <circle id="rim" cx="0" cy="0" r="7"/>
  <circle id="rim2" cx="0" cy="0" r="3.5"/>
  <g id="zoomPlus">
    <use xlink:href="#rim" fill="#404040"><set attributeName="fill" to="#808080" begin="zoomplus.mouseover" end="zoomplus.mouseout"/></use>
    <path d="M-4,0h8M0,-4v8" fill="none" stroke="white" stroke-width="1.5" pointer-events="none"/>
  </g>
  <g id="zoomMin">
    <use xlink:href="#rim" fill="#404040"><set attributeName="fill" to="#808080" begin="zoomminus.mouseover" end="zoomminus.mouseout"/></use>
    <path d="M-4,0h8" fill="none" stroke="white" stroke-width="1.5" pointer-events="none"/>
  </g>
  <g id="arrowUp" transform="translate(30 24)">
    <use xlink:href="#rim"/>
    <path pointer-events="none" fill="none" stroke="white" stroke-width="1.5" d="M0,-3.0v7 M-2.5,-0.5L0,-3.0L2.5,-0.5"/>
  </g>
  <g id="arrowRight" transform="rotate(90) translate(36 -43)">
    <use xlink:href="#rim"/>
    <path pointer-events="none" fill="none" stroke="white" stroke-width="1.5" d="M0,-3.0v7 M-2.5,-0.5L0,-3.0L2.5,-0.5"/>
  </g>
  <g id="arrowDown" transform="rotate(180) translate(-30 -48)">
    <use xlink:href="#rim"/>
    <path pointer-events="none" fill="none" stroke="white" stroke-width="1.5" d="M0,-3.0v7 M-2.5,-0.5L0,-3.0L2.5,-0.5"/>
  </g>
  <g id="arrowLeft" transform="rotate(270) translate(-36 17)">
    <use xlink:href="#rim"/>
    <path pointer-events="none" fill="none" stroke="white" stroke-width="1.5" d="M0,-3.0v7 M-2.5,-0.5L0,-3.0L2.5,-0.5"/>
  </g>
  <g id="resetDef">
    <use xlink:href="#rim2" fill="#404040"><set attributeName="fill" to="#808080" begin="reset.mouseover" end="reset.mouseout"/></use>
  </g>
</defs>
<script type="application/ecmascript">
var viewWidth = 1100;
var viewHeight = 260;
var sectionId = 'dynsection-0';
</script>
<script type="application/ecmascript" xlink:href="../../svg.min.js"/>
<svg id="graph" class="graph">
<g id="viewport">
<title>mimic++/printing/type/PostProcessing.hpp</title>
<!-- Node1 -->
<g id="Node000001" class="node">
<title>Node1</title>
<g id="a_Node000001"><a xlink:title=" ">
<polygon fill="#999999" stroke="#666666" points="864.25,-251.5 754.5,-251.5 754.5,-221 864.25,-221 864.25,-251.5"/>
<text text-anchor="start" x="762.5" y="-238" font-family="Helvetica,sans-Serif" font-size="10.00">mimic++/printing/type</text>
<text text-anchor="middle" x="809.38" y="-226.75" font-family="Helvetica,sans-Serif" font-size="10.00">/PostProcessing.hpp</text>
</a>
</g>
</g>
<!-- Node2 -->
<g id="Node000002" class="node">
<title>Node2</title>
<g id="a_Node000002"><a xlink:href="../../df/dde/_fwd_8hpp.html" target="_top" xlink:title=" ">
<polygon fill="white" stroke="#666666" points="201.38,-129.75 107.38,-129.75 107.38,-110.5 201.38,-110.5 201.38,-129.75"/>
<text text-anchor="middle" x="154.38" y="-116.25" font-family="Helvetica,sans-Serif" font-size="10.00">mimic++/Fwd.hpp</text>
</a>
</g>
</g>
<!-- Node1&#45;&gt;Node2 -->
<g id="edge1_Node000001_Node000002" class="edge">
<title>Node1&#45;&gt;Node2</title>
<g id="a_edge1_Node000001_Node000002"><a xlink:title=" ">
<path fill="none" stroke="#63b8ff" d="M754.17,-232.75C636.56,-226.99 364.82,-211.22 276.38,-185 239.44,-174.05 200.66,-151.57 176.99,-136.42"/>
<polygon fill="#63b8ff" stroke="#63b8ff" points="179.09,-133.61 168.8,-131.07 175.26,-139.47 179.09,-133.61"/>
</a>
</g>
</g>
<!-- Node3 -->
<g id="Node000003" class="node">
<title>Node3</title>
<g id="a_Node000003"><a xlink:href="../../d8/dd2/_config_8hpp.html" target="_top" xlink:title=" ">
<polygon fill="white" stroke="#666666" points="130.75,-74.5 0,-74.5 0,-55.25 130.75,-55.25 130.75,-74.5"/>
<text text-anchor="middle" x="65.38" y="-61" font-family="Helvetica,sans-Serif" font-size="10.00">mimic++/config/Config.hpp</text>
</a>
</g>
</g>
<!-- Node1&#45;&gt;Node3 -->
<g id="edge7_Node000001_Node000003" class="edge">
<title>Node1&#45;&gt;Node3</title>
<g id="a_edge7_Node000001_Node000003"><a xlink:title=" ">
<path fill="none" stroke="#63b8ff" d="M754.38,-235.4C650.08,-234.62 416.95,-227.72 226.38,-185 157.46,-169.55 122.91,-183.74 77.38,-129.75 67.24,-117.73 64.58,-99.87 64.26,-86.09"/>
<polygon fill="#63b8ff" stroke="#63b8ff" points="67.76,-86.45 64.45,-76.38 60.76,-86.31 67.76,-86.45"/>
</a>
</g>
</g>
<!-- Node8 -->
<g id="Node000008" class="node">
<title>Node8</title>
<g id="a_Node000008"><a xlink:href="../../d5/dec/_format_8hpp.html" target="_top" xlink:title=" ">
<polygon fill="white" stroke="#666666" points="425.62,-185 285.12,-185 285.12,-165.75 425.62,-165.75 425.62,-185"/>
<text text-anchor="middle" x="355.38" y="-171.5" font-family="Helvetica,sans-Serif" font-size="10.00">mimic++/printing/Format.hpp</text>
</a>
</g>
</g>
<!-- Node1&#45;&gt;Node8 -->
<g id="edge8_Node000001_Node000008" class="edge">
<title>Node1&#45;&gt;Node8</title>
<g id="a_edge8_Node000001_Node000008"><a xlink:title=" ">
<path fill="none" stroke="#63b8ff" d="M754.16,-228.09C674.88,-217.81 528.26,-198.79 436.6,-186.91"/>
<polygon fill="#63b8ff" stroke="#63b8ff" points="437.3,-183.47 426.93,-185.65 436.4,-190.41 437.3,-183.47"/>
</a>
</g>
</g>
<!-- Node14 -->
<g id="Node000014" class="node">
<title>Node14</title>
<g id="a_Node000014"><a xlink:href="../../dc/d83/_algorithm_8hpp.html" target="_top" xlink:title=" ">
<polygon fill="white" stroke="#666666" points="743.5,-185 593.25,-185 593.25,-165.75 743.5,-165.75 743.5,-185"/>
<text text-anchor="middle" x="668.38" y="-171.5" font-family="Helvetica,sans-Serif" font-size="10.00">mimic++/utilities/Algorithm.hpp</text>
</a>
</g>
</g>
<!-- Node1&#45;&gt;Node14 -->
<g id="edge16_Node000001_Node000014" class="edge">
<title>Node1&#45;&gt;Node14</title>
<g id="a_edge16_Node000001_Node000014"><a xlink:title=" ">
<path fill="none" stroke="#63b8ff" d="M774.16,-220.55C751.55,-211.1 722.42,-198.94 700.45,-189.77"/>
<polygon fill="#63b8ff" stroke="#63b8ff" points="701.97,-186.61 691.4,-185.99 699.27,-193.07 701.97,-186.61"/>
</a>
</g>
</g>
<!-- Node16 -->
<g id="Node000016" class="node">
<title>Node16</title>
<g id="a_Node000016"><a xlink:title=" ">
<polygon fill="#e0e0e0" stroke="#999999" points="795.5,-129.75 747.25,-129.75 747.25,-110.5 795.5,-110.5 795.5,-129.75"/>
<text text-anchor="middle" x="771.38" y="-116.25" font-family="Helvetica,sans-Serif" font-size="10.00">cassert</text>
</a>
</g>
</g>
<!-- Node1&#45;&gt;Node16 -->
<g id="edge25_Node000001_Node000016" class="edge">
<title>Node1&#45;&gt;Node16</title>
<g id="a_edge25_Node000001_Node000016"><a xlink:title=" ">
<path fill="none" stroke="#63b8ff" d="M804.56,-220.8C797.82,-200.56 785.56,-163.72 777.97,-140.94"/>
<polygon fill="#63b8ff" stroke="#63b8ff" points="781.35,-140.02 774.87,-131.63 774.71,-142.23 781.35,-140.02"/>
</a>
</g>
</g>
<!-- Node18 -->
<g id="Node000018" class="node">
<title>Node18</title>
<g id="a_Node000018"><a xlink:title=" ">
<polygon fill="#e0e0e0" stroke="#999999" points="859.38,-129.75 813.38,-129.75 813.38,-110.5 859.38,-110.5 859.38,-129.75"/>
<text text-anchor="middle" x="836.38" y="-116.25" font-family="Helvetica,sans-Serif" font-size="10.00">iterator</text>
</a>
</g>
</g>
<!-- Node1&#45;&gt;Node18 -->
<g id="edge26_Node000001_Node000018" class="edge">
<title>Node1&#45;&gt;Node18</title>
<g id="a_edge26_Node000001_Node000018"><a xlink:title=" ">
<path fill="none" stroke="#63b8ff" d="M812.79,-220.8C817.56,-200.65 826.22,-164.06 831.61,-141.25"/>
<polygon fill="#63b8ff" stroke="#63b8ff" points="834.98,-142.21 833.88,-131.67 828.17,-140.6 834.98,-142.21"/>
</a>
</g>
</g>
<!-- Node19 -->
<g id="Node000019" class="node">
<title>Node19</title>
<g id="a_Node000019"><a xlink:title=" ">
<polygon fill="#e0e0e0" stroke="#999999" points="923,-129.75 877.75,-129.75 877.75,-110.5 923,-110.5 923,-129.75"/>
<text text-anchor="middle" x="900.38" y="-116.25" font-family="Helvetica,sans-Serif" font-size="10.00">ranges</text>
</a>
</g>
</g>
<!-- Node1&#45;&gt;Node19 -->
<g id="edge28_Node000001_Node000019" class="edge">
<title>Node1&#45;&gt;Node19</title>
<g id="a_edge28_Node000001_Node000019"><a xlink:title=" ">
<path fill="none" stroke="#63b8ff" d="M820.9,-220.8C837.48,-200 868.05,-161.67 886.06,-139.08"/>
<polygon fill="#63b8ff" stroke="#63b8ff" points="888.7,-141.38 892.2,-131.38 883.23,-137.02 888.7,-141.38"/>
</a>
</g>
</g>
<!-- Node20 -->
<g id="Node000020" class="node">
<title>Node20</title>
<g id="a_Node000020"><a xlink:title=" ">
<polygon fill="#e0e0e0" stroke="#999999" points="912.88,-185 875.88,-185 875.88,-165.75 912.88,-165.75 912.88,-185"/>
<text text-anchor="middle" x="894.38" y="-171.5" font-family="Helvetica,sans-Serif" font-size="10.00">array</text>
</a>
</g>
</g>
<!-- Node1&#45;&gt;Node20 -->
<g id="edge24_Node000001_Node000020" class="edge">
<title>Node1&#45;&gt;Node20</title>
<g id="a_edge24_Node000001_Node000020"><a xlink:title=" ">
<path fill="none" stroke="#63b8ff" d="M830.39,-220.7C843.08,-211.9 859.24,-200.71 872.15,-191.77"/>
<polygon fill="#63b8ff" stroke="#63b8ff" points="873.8,-194.88 880.03,-186.31 869.81,-189.13 873.8,-194.88"/>
</a>
</g>
</g>
<!-- Node21 -->
<g id="Node000021" class="node">
<title>Node21</title>
<g id="a_Node000021"><a xlink:title=" ">
<polygon fill="#e0e0e0" stroke="#999999" points="980.25,-185 930.5,-185 930.5,-165.75 980.25,-165.75 980.25,-185"/>
<text text-anchor="middle" x="955.38" y="-171.5" font-family="Helvetica,sans-Serif" font-size="10.00">optional</text>
</a>
</g>
</g>
<!-- Node1&#45;&gt;Node21 -->
<g id="edge27_Node000001_Node000021" class="edge">
<title>Node1&#45;&gt;Node21</title>
<g id="a_edge27_Node000001_Node000021"><a xlink:title=" ">
<path fill="none" stroke="#63b8ff" d="M845.84,-220.55C869.36,-211.06 899.69,-198.83 922.47,-189.64"/>
<polygon fill="#63b8ff" stroke="#63b8ff" points="923.62,-192.96 931.58,-185.97 921,-186.46 923.62,-192.96"/>
</a>
</g>
</g>
<!-- Node22 -->
<g id="Node000022" class="node">
<title>Node22</title>
<g id="a_Node000022"><a xlink:title=" ">
<polygon fill="#e0e0e0" stroke="#999999" points="1034.88,-185 997.88,-185 997.88,-165.75 1034.88,-165.75 1034.88,-185"/>
<text text-anchor="middle" x="1016.38" y="-171.5" font-family="Helvetica,sans-Serif" font-size="10.00">tuple</text>
</a>
</g>
</g>
<!-- Node1&#45;&gt;Node22 -->
<g id="edge29_Node000001_Node000022" class="edge">
<title>Node1&#45;&gt;Node22</title>
<g id="a_edge29_Node000001_Node000022"><a xlink:title=" ">
<path fill="none" stroke="#63b8ff" d="M863.88,-220.6C897.07,-211.55 940.57,-199.46 986.7,-185.73"/>
<polygon fill="#63b8ff" stroke="#63b8ff" points="987.49,-189.15 996.07,-182.93 985.49,-182.44 987.49,-189.15"/>
</a>
</g>
</g>
<!-- Node23 -->
<g id="Node000023" class="node">
<title>Node23</title>
<g id="a_Node000023"><a xlink:title=" ">
<polygon fill="#e0e0e0" stroke="#999999" points="1092,-185 1052.75,-185 1052.75,-165.75 1092,-165.75 1092,-185"/>
<text text-anchor="middle" x="1072.38" y="-171.5" font-family="Helvetica,sans-Serif" font-size="10.00">regex</text>
</a>
</g>
</g>
<!-- Node1&#45;&gt;Node23 -->
<g id="edge30_Node000001_Node000023" class="edge">
<title>Node1&#45;&gt;Node23</title>
<g id="a_edge30_Node000001_Node000023"><a xlink:title=" ">
<path fill="none" stroke="#63b8ff" d="M864.3,-224.93C909.61,-216.09 975.78,-202.46 1041.57,-185.57"/>
<polygon fill="#63b8ff" stroke="#63b8ff" points="1042.29,-189 1051.09,-183.1 1040.53,-182.22 1042.29,-189"/>
</a>
</g>
</g>
<!-- Node2&#45;&gt;Node3 -->
<g id="edge2_Node000002_Node000003" class="edge">
<title>Node2&#45;&gt;Node3</title>
<g id="a_edge2_Node000002_Node000003"><a xlink:title=" ">
<path fill="none" stroke="#63b8ff" d="M139.28,-110.09C125.85,-102.06 105.96,-90.16 90.2,-80.73"/>
<polygon fill="#63b8ff" stroke="#63b8ff" points="92.22,-77.86 81.85,-75.73 88.63,-83.87 92.22,-77.86"/>
</a>
</g>
</g>
<!-- Node6 -->
<g id="Node000006" class="node">
<title>Node6</title>
<g id="a_Node000006"><a xlink:title=" ">
<polygon fill="#e0e0e0" stroke="#999999" points="188.38,-74.5 148.38,-74.5 148.38,-55.25 188.38,-55.25 188.38,-74.5"/>
<text text-anchor="middle" x="168.38" y="-61" font-family="Helvetica,sans-Serif" font-size="10.00">string</text>
</a>
</g>
</g>
<!-- Node2&#45;&gt;Node6 -->
<g id="edge5_Node000002_Node000006" class="edge">
<title>Node2&#45;&gt;Node6</title>
<g id="a_edge5_Node000002_Node000006"><a xlink:title=" ">
<path fill="none" stroke="#63b8ff" d="M156.69,-110.33C158.44,-103.67 160.92,-94.24 163.14,-85.78"/>
<polygon fill="#63b8ff" stroke="#63b8ff" points="166.47,-86.88 165.63,-76.32 159.7,-85.1 166.47,-86.88"/>
</a>
</g>
</g>
<!-- Node7 -->
<g id="Node000007" class="node">
<title>Node7</title>
<g id="a_Node000007"><a xlink:title=" ">
<polygon fill="#e0e0e0" stroke="#999999" points="444.12,-74.5 378.62,-74.5 378.62,-55.25 444.12,-55.25 444.12,-74.5"/>
<text text-anchor="middle" x="411.38" y="-61" font-family="Helvetica,sans-Serif" font-size="10.00">string_view</text>
</a>
</g>
</g>
<!-- Node2&#45;&gt;Node7 -->
<g id="edge6_Node000002_Node000007" class="edge">
<title>Node2&#45;&gt;Node7</title>
<g id="a_edge6_Node000002_Node000007"><a xlink:title=" ">
<path fill="none" stroke="#63b8ff" d="M198.26,-110.03C245.41,-100.26 319.92,-84.82 367.19,-75.03"/>
<polygon fill="#63b8ff" stroke="#63b8ff" points="367.73,-78.49 376.81,-73.04 366.31,-71.64 367.73,-78.49"/>
</a>
</g>
</g>
<!-- Node4 -->
<g id="Node000004" class="node">
<title>Node4</title>
<g id="a_Node000004"><a xlink:title=" ">
<polygon fill="#e0e0e0" stroke="#999999" points="56,-19.25 10.75,-19.25 10.75,0 56,0 56,-19.25"/>
<text text-anchor="middle" x="33.38" y="-5.75" font-family="Helvetica,sans-Serif" font-size="10.00">cstdint</text>
</a>
</g>
</g>
<!-- Node3&#45;&gt;Node4 -->
<g id="edge3_Node000003_Node000004" class="edge">
<title>Node3&#45;&gt;Node4</title>
<g id="a_edge3_Node000003_Node000004"><a xlink:title=" ">
<path fill="none" stroke="#63b8ff" d="M60.09,-55.08C55.9,-48.11 49.9,-38.12 44.64,-29.37"/>
<polygon fill="#63b8ff" stroke="#63b8ff" points="47.7,-27.68 39.55,-20.91 41.7,-31.28 47.7,-27.68"/>
</a>
</g>
</g>
<!-- Node5 -->
<g id="Node000005" class="node">
<title>Node5</title>
<g id="a_Node000005"><a xlink:title=" ">
<polygon fill="#e0e0e0" stroke="#999999" points="121.12,-19.25 73.62,-19.25 73.62,0 121.12,0 121.12,-19.25"/>
<text text-anchor="middle" x="97.38" y="-5.75" font-family="Helvetica,sans-Serif" font-size="10.00">version</text>
</a>
</g>
</g>
<!-- Node3&#45;&gt;Node5 -->
<g id="edge4_Node000003_Node000005" class="edge">
<title>Node3&#45;&gt;Node5</title>
<g id="a_edge4_Node000003_Node000005"><a xlink:title=" ">
<path fill="none" stroke="#63b8ff" d="M70.66,-55.08C74.85,-48.11 80.85,-38.12 86.11,-29.37"/>
<polygon fill="#63b8ff" stroke="#63b8ff" points="89.05,-31.28 91.2,-20.91 83.05,-27.68 89.05,-31.28"/>
</a>
</g>
</g>
<!-- Node8&#45;&gt;Node2 -->
<g id="edge9_Node000008_Node000002" class="edge">
<title>Node8&#45;&gt;Node2</title>
<g id="a_edge9_Node000008_Node000002"><a xlink:title=" ">
<path fill="none" stroke="#63b8ff" d="M321.28,-165.34C287.78,-156.47 236.47,-142.87 199.59,-133.1"/>
<polygon fill="#63b8ff" stroke="#63b8ff" points="200.67,-129.77 190.1,-130.59 198.87,-136.53 200.67,-129.77"/>
</a>
</g>
</g>
<!-- Node8&#45;&gt;Node3 -->
<g id="edge10_Node000008_Node000003" class="edge">
<title>Node8&#45;&gt;Node3</title>
<g id="a_edge10_Node000008_Node000003"><a xlink:title=" ">
<path fill="none" stroke="#63b8ff" d="M284.84,-169.15C219.22,-163.06 127.36,-151.01 98.38,-129.75 83.91,-119.14 75.28,-100.3 70.5,-85.83"/>
<polygon fill="#63b8ff" stroke="#63b8ff" points="73.92,-85.05 67.77,-76.42 67.2,-87 73.92,-85.05"/>
</a>
</g>
</g>
<!-- Node9 -->
<g id="Node000009" class="node">
<title>Node9</title>
<g id="a_Node000009"><a xlink:title=" ">
<polygon fill="#e0e0e0" stroke="#999999" points="485.25,-129.75 429.5,-129.75 429.5,-110.5 485.25,-110.5 485.25,-129.75"/>
<text text-anchor="middle" x="457.38" y="-116.25" font-family="Helvetica,sans-Serif" font-size="10.00">concepts</text>
</a>
</g>
</g>
<!-- Node8&#45;&gt;Node9 -->
<g id="edge11_Node000008_Node000009" class="edge">
<title>Node8&#45;&gt;Node9</title>
<g id="a_edge11_Node000008_Node000009"><a xlink:title=" ">
<path fill="none" stroke="#63b8ff" d="M372.68,-165.34C388.36,-157.16 411.73,-144.96 429.95,-135.44"/>
<polygon fill="#63b8ff" stroke="#63b8ff" points="431.4,-138.63 438.65,-130.9 428.16,-132.43 431.4,-138.63"/>
</a>
</g>
</g>
<!-- Node10 -->
<g id="Node000010" class="node">
<title>Node10</title>
<g id="a_Node000010"><a xlink:title=" ">
<polygon fill="#e0e0e0" stroke="#999999" points="271,-129.75 219.75,-129.75 219.75,-110.5 271,-110.5 271,-129.75"/>
<text text-anchor="middle" x="245.38" y="-116.25" font-family="Helvetica,sans-Serif" font-size="10.00">sstream</text>
</a>
</g>
</g>
<!-- Node8&#45;&gt;Node10 -->
<g id="edge12_Node000008_Node000010" class="edge">
<title>Node8&#45;&gt;Node10</title>
<g id="a_edge12_Node000008_Node000010"><a xlink:title=" ">
<path fill="none" stroke="#63b8ff" d="M336.71,-165.34C319.65,-157.08 294.13,-144.73 274.4,-135.18"/>
<polygon fill="#63b8ff" stroke="#63b8ff" points="276.01,-132.07 265.49,-130.86 272.96,-138.37 276.01,-132.07"/>
</a>
</g>
</g>
<!-- Node11 -->
<g id="Node000011" class="node">
<title>Node11</title>
<g id="a_Node000011"><a xlink:title=" ">
<polygon fill="#e0e0e0" stroke="#999999" points="349.88,-129.75 288.88,-129.75 288.88,-110.5 349.88,-110.5 349.88,-129.75"/>
<text text-anchor="middle" x="319.38" y="-116.25" font-family="Helvetica,sans-Serif" font-size="10.00">type_traits</text>
</a>
</g>
</g>
<!-- Node8&#45;&gt;Node11 -->
<g id="edge13_Node000008_Node000011" class="edge">
<title>Node8&#45;&gt;Node11</title>
<g id="a_edge13_Node000008_Node000011"><a xlink:title=" ">
<path fill="none" stroke="#63b8ff" d="M349.43,-165.58C344.66,-158.53 337.81,-148.4 331.85,-139.58"/>
<polygon fill="#63b8ff" stroke="#63b8ff" points="334.8,-137.69 326.3,-131.36 329,-141.61 334.8,-137.69"/>
</a>
</g>
</g>
<!-- Node12 -->
<g id="Node000012" class="node">
<title>Node12</title>
<g id="a_Node000012"><a xlink:title=" ">
<polygon fill="#e0e0e0" stroke="#999999" points="541.62,-129.75 503.12,-129.75 503.12,-110.5 541.62,-110.5 541.62,-129.75"/>
<text text-anchor="middle" x="522.38" y="-116.25" font-family="Helvetica,sans-Serif" font-size="10.00">utility</text>
</a>
</g>
</g>
<!-- Node8&#45;&gt;Node12 -->
<g id="edge14_Node000008_Node000012" class="edge">
<title>Node8&#45;&gt;Node12</title>
<g id="a_edge14_Node000008_Node000012"><a xlink:title=" ">
<path fill="none" stroke="#63b8ff" d="M383.7,-165.34C413.74,-155.76 461.02,-140.69 491.86,-130.86"/>
<polygon fill="#63b8ff" stroke="#63b8ff" points="492.9,-134.2 501.36,-127.83 490.77,-127.53 492.9,-134.2"/>
</a>
</g>
</g>
<!-- Node13 -->
<g id="Node000013" class="node">
<title>Node13</title>
<g id="a_Node000013"><a xlink:title=" ">
<polygon fill="#e0e0e0" stroke="#999999" points="411.25,-129.75 367.5,-129.75 367.5,-110.5 411.25,-110.5 411.25,-129.75"/>
<text text-anchor="middle" x="389.38" y="-116.25" font-family="Helvetica,sans-Serif" font-size="10.00">format</text>
</a>
</g>
</g>
<!-- Node8&#45;&gt;Node13 -->
<g id="edge15_Node000008_Node000013" class="edge">
<title>Node8&#45;&gt;Node13</title>
<g id="a_edge15_Node000008_Node000013"><a xlink:title=" ">
<path fill="none" stroke="#63b8ff" d="M360.99,-165.58C365.49,-158.53 371.96,-148.4 377.59,-139.58"/>
<polygon fill="#63b8ff" stroke="#63b8ff" points="380.39,-141.7 382.82,-131.38 374.49,-137.93 380.39,-141.7"/>
</a>
</g>
</g>
<!-- Node14&#45;&gt;Node7 -->
<g id="edge22_Node000014_Node000007" class="edge">
<title>Node14&#45;&gt;Node7</title>
<g id="a_edge22_Node000014_Node000007"><a xlink:title=" ">
<path fill="none" stroke="#63b8ff" d="M652.33,-165.48C622.53,-148.98 560.71,-114.91 550.38,-110.5 519.44,-97.3 483.22,-85.79 455.51,-77.77"/>
<polygon fill="#63b8ff" stroke="#63b8ff" points="456.61,-74.44 446.04,-75.07 454.7,-81.17 456.61,-74.44"/>
</a>
</g>
</g>
<!-- Node14&#45;&gt;Node12 -->
<g id="edge23_Node000014_Node000012" class="edge">
<title>Node14&#45;&gt;Node12</title>
<g id="a_edge23_Node000014_Node000012"><a xlink:title=" ">
<path fill="none" stroke="#63b8ff" d="M643.61,-165.34C618.55,-156.2 579.77,-142.06 552.84,-132.24"/>
<polygon fill="#63b8ff" stroke="#63b8ff" points="554.12,-128.98 543.53,-128.84 551.72,-135.55 554.12,-128.98"/>
</a>
</g>
</g>
<!-- Node15 -->
<g id="Node000015" class="node">
<title>Node15</title>
<g id="a_Node000015"><a xlink:title=" ">
<polygon fill="#e0e0e0" stroke="#999999" points="653.25,-129.75 597.5,-129.75 597.5,-110.5 653.25,-110.5 653.25,-129.75"/>
<text text-anchor="middle" x="625.38" y="-116.25" font-family="Helvetica,sans-Serif" font-size="10.00">algorithm</text>
</a>
</g>
</g>
<!-- Node14&#45;&gt;Node15 -->
<g id="edge17_Node000014_Node000015" class="edge">
<title>Node14&#45;&gt;Node15</title>
<g id="a_edge17_Node000014_Node000015"><a xlink:title=" ">
<path fill="none" stroke="#63b8ff" d="M661.27,-165.58C655.46,-158.38 647.04,-147.96 639.82,-139.01"/>
<polygon fill="#63b8ff" stroke="#63b8ff" points="642.59,-136.87 633.58,-131.29 637.14,-141.27 642.59,-136.87"/>
</a>
</g>
</g>
<!-- Node14&#45;&gt;Node16 -->
<g id="edge18_Node000014_Node000016" class="edge">
<title>Node14&#45;&gt;Node16</title>
<g id="a_edge18_Node000014_Node000016"><a xlink:title=" ">
<path fill="none" stroke="#63b8ff" d="M685.85,-165.34C701.68,-157.16 725.28,-144.96 743.68,-135.44"/>
<polygon fill="#63b8ff" stroke="#63b8ff" points="745.2,-138.6 752.47,-130.9 741.98,-132.38 745.2,-138.6"/>
</a>
</g>
</g>
<!-- Node17 -->
<g id="Node000017" class="node">
<title>Node17</title>
<g id="a_Node000017"><a xlink:title=" ">
<polygon fill="#e0e0e0" stroke="#999999" points="729.38,-129.75 671.38,-129.75 671.38,-110.5 729.38,-110.5 729.38,-129.75"/>
<text text-anchor="middle" x="700.38" y="-116.25" font-family="Helvetica,sans-Serif" font-size="10.00">functional</text>
</a>
</g>
</g>
<!-- Node14&#45;&gt;Node17 -->
<g id="edge19_Node000014_Node000017" class="edge">
<title>Node14&#45;&gt;Node17</title>
<g id="a_edge19_Node000014_Node000017"><a xlink:title=" ">
<path fill="none" stroke="#63b8ff" d="M673.66,-165.58C677.85,-158.61 683.85,-148.62 689.11,-139.87"/>
<polygon fill="#63b8ff" stroke="#63b8ff" points="692.05,-141.78 694.2,-131.41 686.05,-138.18 692.05,-141.78"/>
</a>
</g>
</g>
<!-- Node14&#45;&gt;Node18 -->
<g id="edge20_Node000014_Node000018" class="edge">
<title>Node14&#45;&gt;Node18</title>
<g id="a_edge20_Node000014_Node000018"><a xlink:title=" ">
<path fill="none" stroke="#63b8ff" d="M696.87,-165.34C725.97,-156.12 771.15,-141.8 802.17,-131.97"/>
<polygon fill="#63b8ff" stroke="#63b8ff" points="802.98,-135.38 811.45,-129.02 800.86,-128.71 802.98,-135.38"/>
</a>
</g>
</g>
<!-- Node14&#45;&gt;Node19 -->
<g id="edge21_Node000014_Node000019" class="edge">
<title>Node14&#45;&gt;Node19</title>
<g id="a_edge21_Node000014_Node000019"><a xlink:title=" ">
<path fill="none" stroke="#63b8ff" d="M711.81,-165.26C750.03,-157.11 807.44,-144.55 866.33,-130.17"/>
<polygon fill="#63b8ff" stroke="#63b8ff" points="866.99,-133.61 875.86,-127.83 865.32,-126.81 866.99,-133.61"/>
</a>
</g>
</g>
</g>
</svg>

<g id="navigator" transform="translate(0 0)" fill="#404254">
  <rect fill="#f2f5e9" fill-opacity="0.5" stroke="#606060" stroke-width=".5" x="0" y="0" width="60" height="60"/>
  <use id="zoomplus" xlink:href="#zoomPlus" x="17" y="9" onmousedown="handleZoom(evt,'in')"/>
  <use id="zoomminus" xlink:href="#zoomMin" x="42" y="9" onmousedown="handleZoom(evt,'out')"/>
  <use id="reset" xlink:href="#resetDef" x="30" y="36" onmousedown="handleReset()"/>
   <use id="arrowup" xlink:href="#arrowUp" x="0" y="0" onmousedown="handlePan(0,-1)"/>
  <use id="arrowright" xlink:href="#arrowRight" x="0" y="0" onmousedown="handlePan(1,0)"/>
  <use id="arrowdown" xlink:href="#arrowDown" x="0" y="0" onmousedown="handlePan(0,1)"/>
  <use id="arrowleft" xlink:href="#arrowLeft" x="0" y="0" onmousedown="handlePan(-1,0)"/>
</g>
<svg viewBox="0 0 15 15" width="100%" height="30px" preserveAspectRatio="xMaxYMin meet">
 <g id="arrow_out" transform="scale(0.3 0.3)">
  <a xlink:href="_post_processing_8hpp__incl_org.svg" target="_base">
   <rect id="button" ry="5" rx="5" y="6" x="6" height="38" width="38"
        fill="#f2f5e9" fill-opacity="0.5" stroke="#606060" stroke-width="1.0"/>
   <path id="arrow"
     d="M 11.500037,31.436501 C 11.940474,20.09759 22.043105,11.32322 32.158766,21.979434 L 37.068811,17.246167 C 37.068811,17.246167 37.088388,32 37.088388,32 L 22.160133,31.978069 C 22.160133,31.978069 26.997745,27.140456 26.997745,27.140456 C 18.528582,18.264221 13.291696,25.230495 11.500037,31.436501 z"
     style="fill:#404040;"/>
  </a>
 </g>
</svg>

<style type='text/css'>
<![CDATA[
[data-mouse-over-selected='false'] { opacity: 0.7; }
[data-mouse-over-selected='true']  { opacity: 1.0; }
]]>
</style>
<script type="application/ecmascript"><![CDATA[
document.addEventListener('DOMContentLoaded', (event) => {
  highlightEdges();
  highlightAdjacentNodes();
});
]]></script>
</svg>
