<?xml version="1.0" encoding="UTF-8" standalone="no"?>
<!DOCTYPE svg PUBLIC "-//W3C//DTD SVG 1.1//EN"
 "http://www.w3.org/Graphics/SVG/1.1/DTD/svg11.dtd">
<!-- Generated by graphviz version 12.2.1 (20241206.2353)
 -->
<!-- Title: mimicpp::signature_remove_noexcept&lt; Signature &gt; Pages: 1 -->
<!--zoomable 183 -->

<svg id="main" version="1.1" xmlns="http://www.w3.org/2000/svg" xmlns:xlink="http://www.w3.org/1999/xlink" xml:space="preserve" onload="init(evt)">

<style type="text/css"><![CDATA[
.node, .edge {opacity: 0.7;}
.node.selected, .edge.selected {opacity: 1;}
.edge:hover path { stroke: red; }
.edge:hover polygon { stroke: red; fill: red; }
]]></style>

<defs>
  <circle id="rim" cx="0" cy="0" r="7"/>
  <circle id="rim2" cx="0" cy="0" r="3.5"/>
  <g id="zoomPlus">
    <use xlink:href="#rim" fill="#404040"><set attributeName="fill" to="#808080" begin="zoomplus.mouseover" end="zoomplus.mouseout"/></use>
    <path d="M-4,0h8M0,-4v8" fill="none" stroke="white" stroke-width="1.5" pointer-events="none"/>
  </g>
  <g id="zoomMin">
    <use xlink:href="#rim" fill="#404040"><set attributeName="fill" to="#808080" begin="zoomminus.mouseover" end="zoomminus.mouseout"/></use>
    <path d="M-4,0h8" fill="none" stroke="white" stroke-width="1.5" pointer-events="none"/>
  </g>
  <g id="arrowUp" transform="translate(30 24)">
    <use xlink:href="#rim"/>
    <path pointer-events="none" fill="none" stroke="white" stroke-width="1.5" d="M0,-3.0v7 M-2.5,-0.5L0,-3.0L2.5,-0.5"/>
  </g>
  <g id="arrowRight" transform="rotate(90) translate(36 -43)">
    <use xlink:href="#rim"/>
    <path pointer-events="none" fill="none" stroke="white" stroke-width="1.5" d="M0,-3.0v7 M-2.5,-0.5L0,-3.0L2.5,-0.5"/>
  </g>
  <g id="arrowDown" transform="rotate(180) translate(-30 -48)">
    <use xlink:href="#rim"/>
    <path pointer-events="none" fill="none" stroke="white" stroke-width="1.5" d="M0,-3.0v7 M-2.5,-0.5L0,-3.0L2.5,-0.5"/>
  </g>
  <g id="arrowLeft" transform="rotate(270) translate(-36 17)">
    <use xlink:href="#rim"/>
    <path pointer-events="none" fill="none" stroke="white" stroke-width="1.5" d="M0,-3.0v7 M-2.5,-0.5L0,-3.0L2.5,-0.5"/>
  </g>
  <g id="resetDef">
    <use xlink:href="#rim2" fill="#404040"><set attributeName="fill" to="#808080" begin="reset.mouseover" end="reset.mouseout"/></use>
  </g>
</defs>
<script type="application/ecmascript">
var viewWidth = 864;
var viewHeight = 183;
var sectionId = 'dynsection-0';
</script>
<script type="application/ecmascript" xlink:href="../../svg.min.js"/>
<svg id="graph" class="graph">
<g id="viewport">
<title>mimicpp::signature_remove_noexcept&lt; Signature &gt;</title>
<!-- Node1 -->
<g id="Node000001" class="node">
<title>Node1</title>
<g id="a_Node000001"><a xlink:title="Primary template, purposely undefined.">
<polygon fill="#999999" stroke="#666666" points="855.75,-97 700.25,-97 700.25,-66.5 855.75,-66.5 855.75,-97"/>
<text text-anchor="start" x="708.25" y="-83.5" font-family="Helvetica,sans-Serif" font-size="10.00">mimicpp::signature</text>
<text text-anchor="middle" x="778" y="-72.25" font-family="Helvetica,sans-Serif" font-size="10.00">_remove_noexcept&lt; Signature &gt;</text>
</a>
</g>
</g>
<!-- Node2 -->
<g id="Node000002" class="node">
<title>Node2</title>
<g id="a_Node000002"><a xlink:title=" ">
<polygon fill="white" stroke="#666666" points="663.25,-108.25 538.5,-108.25 538.5,-55.25 663.25,-55.25 663.25,-108.25"/>
<text text-anchor="start" x="546.5" y="-94.75" font-family="Helvetica,sans-Serif" font-size="10.00">mimicpp::detail::signature</text>
<text text-anchor="start" x="546.5" y="-83.5" font-family="Helvetica,sans-Serif" font-size="10.00">_apply_trait&lt; Signature,</text>
<text text-anchor="start" x="546.5" y="-72.25" font-family="Helvetica,sans-Serif" font-size="10.00"> detail::signature_remove</text>
<text text-anchor="middle" x="600.88" y="-61" font-family="Helvetica,sans-Serif" font-size="10.00">_noexcept &gt;</text>
</a>
</g>
</g>
<!-- Node2&#45;&gt;Node1 -->
<g id="edge1_Node000001_Node000002" class="edge">
<title>Node2&#45;&gt;Node1</title>
<g id="a_edge1_Node000001_Node000002"><a xlink:title=" ">
<path fill="none" stroke="#63b8ff" d="M675.06,-81.75C683.25,-81.75 691.62,-81.75 699.86,-81.75"/>
<polygon fill="#63b8ff" stroke="#63b8ff" points="675.13,-78.25 665.13,-81.75 675.13,-85.25 675.13,-78.25"/>
</a>
</g>
</g>
<!-- Node3 -->
<g id="Node000003" class="node">
<title>Node3</title>
<g id="a_Node000003"><a xlink:title=" ">
<polygon fill="white" stroke="#666666" points="368.25,-174.75 208.25,-174.75 208.25,-76.75 368.25,-76.75 368.25,-174.75"/>
<text text-anchor="start" x="216.25" y="-161.25" font-family="Helvetica,sans-Serif" font-size="10.00">std::bool_constant</text>
<text text-anchor="start" x="216.25" y="-150" font-family="Helvetica,sans-Serif" font-size="10.00">&lt; detail::signature</text>
<text text-anchor="start" x="216.25" y="-138.75" font-family="Helvetica,sans-Serif" font-size="10.00">_remove_noexcept&lt;typename</text>
<text text-anchor="start" x="216.25" y="-127.5" font-family="Helvetica,sans-Serif" font-size="10.00"> call_convention_traits</text>
<text text-anchor="start" x="216.25" y="-116.25" font-family="Helvetica,sans-Serif" font-size="10.00">&lt;signature_call_convention</text>
<text text-anchor="start" x="216.25" y="-105" font-family="Helvetica,sans-Serif" font-size="10.00">_t&lt;Signature&gt;&gt;::template remove</text>
<text text-anchor="start" x="216.25" y="-93.75" font-family="Helvetica,sans-Serif" font-size="10.00">_call_convention_t&lt;Signature&gt;&gt;</text>
<text text-anchor="middle" x="288.25" y="-82.5" font-family="Helvetica,sans-Serif" font-size="10.00">::value &gt;</text>
</a>
</g>
</g>
<!-- Node3&#45;&gt;Node2 -->
<g id="edge2_Node000002_Node000003" class="edge">
<title>Node3&#45;&gt;Node2</title>
<g id="a_edge2_Node000002_Node000003"><a xlink:title=" ">
<path fill="none" stroke="#63b8ff" d="M379.8,-112.92C430.81,-105.7 493.18,-96.86 538.47,-90.45"/>
<polygon fill="#63b8ff" stroke="#63b8ff" points="379.35,-109.45 369.94,-114.32 380.33,-116.38 379.35,-109.45"/>
</a>
</g>
</g>
<!-- Node4 -->
<g id="Node000004" class="node">
<title>Node4</title>
<g id="a_Node000004"><a xlink:title=" ">
<polygon fill="white" stroke="#666666" points="361.88,-58.62 214.62,-58.62 214.62,-16.88 361.88,-16.88 361.88,-58.62"/>
<text text-anchor="start" x="222.62" y="-45.12" font-family="Helvetica,sans-Serif" font-size="10.00">mimicpp::detail::signature</text>
<text text-anchor="start" x="222.62" y="-33.88" font-family="Helvetica,sans-Serif" font-size="10.00">_apply_trait&lt; Signature,</text>
<text text-anchor="middle" x="288.25" y="-22.62" font-family="Helvetica,sans-Serif" font-size="10.00"> Trait, CallConvTrait, Applied &gt;</text>
</a>
</g>
</g>
<!-- Node4&#45;&gt;Node2 -->
<g id="edge3_Node000002_Node000004" class="edge">
<title>Node4&#45;&gt;Node2</title>
<g id="a_edge3_Node000002_Node000004"><a xlink:title=" ">
<path fill="none" stroke="orange" stroke-dasharray="5,2" d="M373.51,-47.39C417.41,-52.7 471.93,-59.72 520.5,-67.25 526.31,-68.15 532.36,-69.15 538.4,-70.18"/>
<polygon fill="orange" stroke="orange" points="374.15,-43.95 363.8,-46.23 373.31,-50.9 374.15,-43.95"/>
</a>
</g>
<text text-anchor="start" x="386.25" y="-80.25" font-family="Helvetica,sans-Serif" font-size="10.00" fill="grey"> &lt; Signature, detail</text>
<text text-anchor="middle" x="453.38" y="-69" font-family="Helvetica,sans-Serif" font-size="10.00" fill="grey">::signature_remove_noexcept &gt;</text>
</g>
<!-- Node5 -->
<g id="Node000005" class="node">
<title>Node5</title>
<g id="a_Node000005"><a xlink:title=" ">
<polygon fill="white" stroke="#666666" points="171.25,-75.5 0,-75.5 0,0 171.25,0 171.25,-75.5"/>
<text text-anchor="start" x="8" y="-62" font-family="Helvetica,sans-Serif" font-size="10.00">std::bool_constant</text>
<text text-anchor="start" x="8" y="-50.75" font-family="Helvetica,sans-Serif" font-size="10.00">&lt; Trait&lt;typename call</text>
<text text-anchor="start" x="8" y="-39.5" font-family="Helvetica,sans-Serif" font-size="10.00">_convention_traits&lt;signature</text>
<text text-anchor="start" x="8" y="-28.25" font-family="Helvetica,sans-Serif" font-size="10.00">_call_convention_t&lt;Signature&gt;</text>
<text text-anchor="start" x="8" y="-17" font-family="Helvetica,sans-Serif" font-size="10.00">&gt;::template remove_call_convention</text>
<text text-anchor="middle" x="85.62" y="-5.75" font-family="Helvetica,sans-Serif" font-size="10.00">_t&lt;Signature&gt;&gt;::value &gt;</text>
</a>
</g>
</g>
<!-- Node5&#45;&gt;Node4 -->
<g id="edge4_Node000004_Node000005" class="edge">
<title>Node5&#45;&gt;Node4</title>
<g id="a_edge4_Node000004_Node000005"><a xlink:title=" ">
<path fill="none" stroke="#63b8ff" d="M183.09,-37.75C193.63,-37.75 204.22,-37.75 214.4,-37.75"/>
<polygon fill="#63b8ff" stroke="#63b8ff" points="183.22,-34.25 173.22,-37.75 183.22,-41.25 183.22,-34.25"/>
</a>
</g>
</g>
</g>
</svg>

<g id="navigator" transform="translate(0 0)" fill="#404254">
  <rect fill="#f2f5e9" fill-opacity="0.5" stroke="#606060" stroke-width=".5" x="0" y="0" width="60" height="60"/>
  <use id="zoomplus" xlink:href="#zoomPlus" x="17" y="9" onmousedown="handleZoom(evt,'in')"/>
  <use id="zoomminus" xlink:href="#zoomMin" x="42" y="9" onmousedown="handleZoom(evt,'out')"/>
  <use id="reset" xlink:href="#resetDef" x="30" y="36" onmousedown="handleReset()"/>
   <use id="arrowup" xlink:href="#arrowUp" x="0" y="0" onmousedown="handlePan(0,-1)"/>
  <use id="arrowright" xlink:href="#arrowRight" x="0" y="0" onmousedown="handlePan(1,0)"/>
  <use id="arrowdown" xlink:href="#arrowDown" x="0" y="0" onmousedown="handlePan(0,1)"/>
  <use id="arrowleft" xlink:href="#arrowLeft" x="0" y="0" onmousedown="handlePan(-1,0)"/>
</g>
<svg viewBox="0 0 15 15" width="100%" height="30px" preserveAspectRatio="xMaxYMin meet">
 <g id="arrow_out" transform="scale(0.3 0.3)">
  <a xlink:href="structmimicpp_1_1signature__remove__noexcept__inherit__graph_org.svg" target="_base">
   <rect id="button" ry="5" rx="5" y="6" x="6" height="38" width="38"
        fill="#f2f5e9" fill-opacity="0.5" stroke="#606060" stroke-width="1.0"/>
   <path id="arrow"
     d="M 11.500037,31.436501 C 11.940474,20.09759 22.043105,11.32322 32.158766,21.979434 L 37.068811,17.246167 C 37.068811,17.246167 37.088388,32 37.088388,32 L 22.160133,31.978069 C 22.160133,31.978069 26.997745,27.140456 26.997745,27.140456 C 18.528582,18.264221 13.291696,25.230495 11.500037,31.436501 z"
     style="fill:#404040;"/>
  </a>
 </g>
</svg>

<style type='text/css'>
<![CDATA[
[data-mouse-over-selected='false'] { opacity: 0.7; }
[data-mouse-over-selected='true']  { opacity: 1.0; }
]]>
</style>
<script type="application/ecmascript"><![CDATA[
document.addEventListener('DOMContentLoaded', (event) => {
  highlightEdges();
  highlightAdjacentNodes();
});
]]></script>
</svg>
