<?xml version="1.0" encoding="UTF-8" standalone="no"?>
<!DOCTYPE svg PUBLIC "-//W3C//DTD SVG 1.1//EN"
 "http://www.w3.org/Graphics/SVG/1.1/DTD/svg11.dtd">
<!-- Generated by graphviz version 12.2.1 (20241206.2353)
 -->
<!-- Title: mimic++/printing/StatePrinter.hpp Pages: 1 -->
<!--zoomable 625 -->

<svg id="main" version="1.1" xmlns="http://www.w3.org/2000/svg" xmlns:xlink="http://www.w3.org/1999/xlink" xml:space="preserve" onload="init(evt)">

<style type="text/css"><![CDATA[
.node, .edge {opacity: 0.7;}
.node.selected, .edge.selected {opacity: 1;}
.edge:hover path { stroke: red; }
.edge:hover polygon { stroke: red; fill: red; }
]]></style>

<defs>
  <circle id="rim" cx="0" cy="0" r="7"/>
  <circle id="rim2" cx="0" cy="0" r="3.5"/>
  <g id="zoomPlus">
    <use xlink:href="#rim" fill="#404040"><set attributeName="fill" to="#808080" begin="zoomplus.mouseover" end="zoomplus.mouseout"/></use>
    <path d="M-4,0h8M0,-4v8" fill="none" stroke="white" stroke-width="1.5" pointer-events="none"/>
  </g>
  <g id="zoomMin">
    <use xlink:href="#rim" fill="#404040"><set attributeName="fill" to="#808080" begin="zoomminus.mouseover" end="zoomminus.mouseout"/></use>
    <path d="M-4,0h8" fill="none" stroke="white" stroke-width="1.5" pointer-events="none"/>
  </g>
  <g id="arrowUp" transform="translate(30 24)">
    <use xlink:href="#rim"/>
    <path pointer-events="none" fill="none" stroke="white" stroke-width="1.5" d="M0,-3.0v7 M-2.5,-0.5L0,-3.0L2.5,-0.5"/>
  </g>
  <g id="arrowRight" transform="rotate(90) translate(36 -43)">
    <use xlink:href="#rim"/>
    <path pointer-events="none" fill="none" stroke="white" stroke-width="1.5" d="M0,-3.0v7 M-2.5,-0.5L0,-3.0L2.5,-0.5"/>
  </g>
  <g id="arrowDown" transform="rotate(180) translate(-30 -48)">
    <use xlink:href="#rim"/>
    <path pointer-events="none" fill="none" stroke="white" stroke-width="1.5" d="M0,-3.0v7 M-2.5,-0.5L0,-3.0L2.5,-0.5"/>
  </g>
  <g id="arrowLeft" transform="rotate(270) translate(-36 17)">
    <use xlink:href="#rim"/>
    <path pointer-events="none" fill="none" stroke="white" stroke-width="1.5" d="M0,-3.0v7 M-2.5,-0.5L0,-3.0L2.5,-0.5"/>
  </g>
  <g id="resetDef">
    <use xlink:href="#rim2" fill="#404040"><set attributeName="fill" to="#808080" begin="reset.mouseover" end="reset.mouseout"/></use>
  </g>
</defs>
<script type="application/ecmascript">
var viewWidth = 1766;
var viewHeight = 625;
var sectionId = 'dynsection-1';
</script>
<script type="application/ecmascript" xlink:href="../../svg.min.js"/>
<svg id="graph" class="graph">
<g id="viewport">
<title>mimic++/printing/StatePrinter.hpp</title>
<!-- Node1 -->
<g id="Node000001" class="node">
<title>Node1</title>
<g id="a_Node000001"><a xlink:title=" ">
<polygon fill="#999999" stroke="#666666" points="1291.75,-616.75 1130.25,-616.75 1130.25,-597.5 1291.75,-597.5 1291.75,-616.75"/>
<text text-anchor="middle" x="1211" y="-603.25" font-family="Helvetica,sans-Serif" font-size="10.00">mimic++/printing/StatePrinter.hpp</text>
</a>
</g>
</g>
<!-- Node2 -->
<g id="Node000002" class="node">
<title>Node2</title>
<g id="a_Node000002"><a xlink:href="../../da/dab/_printer_8hpp.html" target="_top" xlink:title=" ">
<polygon fill="white" stroke="#666666" points="1024.88,-506.25 921.12,-506.25 921.12,-487 1024.88,-487 1024.88,-506.25"/>
<text text-anchor="middle" x="973" y="-492.75" font-family="Helvetica,sans-Serif" font-size="10.00">mimic++/Printer.hpp</text>
</a>
</g>
</g>
<!-- Node1&#45;&gt;Node2 -->
<g id="edge1_Node000001_Node000002" class="edge">
<title>Node1&#45;&gt;Node2</title>
<g id="a_edge1_Node000001_Node000002"><a xlink:title=" ">
<path fill="none" stroke="#63b8ff" d="M1180.77,-592.34C1131.39,-569.83 1034.74,-525.77 992.99,-506.74"/>
<polygon fill="#63b8ff" stroke="#63b8ff" points="1179.19,-595.47 1189.74,-596.43 1182.09,-589.1 1179.19,-595.47"/>
</a>
</g>
</g>
<!-- Node19 -->
<g id="Node000019" class="node">
<title>Node19</title>
<g id="a_Node000019"><a xlink:href="../../de/df5/_stacktrace_8hpp.html" target="_top" xlink:title=" ">
<polygon fill="white" stroke="#666666" points="1272.25,-561.5 1149.75,-561.5 1149.75,-542.25 1272.25,-542.25 1272.25,-561.5"/>
<text text-anchor="middle" x="1211" y="-548" font-family="Helvetica,sans-Serif" font-size="10.00">mimic++/Stacktrace.hpp</text>
</a>
</g>
</g>
<!-- Node1&#45;&gt;Node19 -->
<g id="edge46_Node000001_Node000019" class="edge">
<title>Node1&#45;&gt;Node19</title>
<g id="a_edge46_Node000001_Node000019"><a xlink:title=" ">
<path fill="none" stroke="#63b8ff" d="M1211,-585.88C1211,-577.59 1211,-568.42 1211,-561.86"/>
<polygon fill="#63b8ff" stroke="#63b8ff" points="1207.5,-585.82 1211,-595.82 1214.5,-585.82 1207.5,-585.82"/>
</a>
</g>
</g>
<!-- Node24 -->
<g id="Node000024" class="node">
<title>Node24</title>
<g id="a_Node000024"><a xlink:href="../../de/d10/_general_policies_8hpp.html" target="_top" xlink:title=" ">
<polygon fill="white" stroke="#666666" points="1411.5,-274 1284.5,-274 1284.5,-243.5 1411.5,-243.5 1411.5,-274"/>
<text text-anchor="start" x="1292.5" y="-260.5" font-family="Helvetica,sans-Serif" font-size="10.00">mimic++/policies/General</text>
<text text-anchor="middle" x="1348" y="-249.25" font-family="Helvetica,sans-Serif" font-size="10.00">Policies.hpp</text>
</a>
</g>
</g>
<!-- Node1&#45;&gt;Node24 -->
<g id="edge60_Node000001_Node000024" class="edge">
<title>Node1&#45;&gt;Node24</title>
<g id="a_edge60_Node000001_Node000024"><a xlink:title=" ">
<path fill="none" stroke="#63b8ff" d="M1242.23,-592.06C1275.06,-574.89 1322,-542.49 1322,-497.62 1322,-497.62 1322,-497.62 1322,-385.12 1322,-344.22 1335.43,-297.35 1342.99,-274.22"/>
<polygon fill="#63b8ff" stroke="#63b8ff" points="1240.88,-588.82 1233.49,-596.42 1244,-595.08 1240.88,-588.82"/>
</a>
</g>
</g>
<!-- Node3 -->
<g id="Node000003" class="node">
<title>Node3</title>
<g id="a_Node000003"><a xlink:href="../../d5/d92/_object_watcher_8hpp.html" target="_top" xlink:title=" ">
<polygon fill="white" stroke="#666666" points="1160.88,-74.5 1021.12,-74.5 1021.12,-55.25 1160.88,-55.25 1160.88,-74.5"/>
<text text-anchor="middle" x="1091" y="-61" font-family="Helvetica,sans-Serif" font-size="10.00">mimic++/ObjectWatcher.hpp</text>
</a>
</g>
</g>
<!-- Node2&#45;&gt;Node3 -->
<g id="edge2_Node000002_Node000003" class="edge">
<title>Node2&#45;&gt;Node3</title>
<g id="a_edge2_Node000002_Node000003"><a xlink:title=" ">
<path fill="none" stroke="#63b8ff" d="M1001.81,-481.42C1018.25,-473.04 1039.09,-461.96 1057,-451 1093.54,-428.63 1107.78,-427.99 1136,-395.75 1176.13,-349.91 1184.59,-333.2 1199,-274 1219.41,-190.15 1131.95,-102.45 1101.28,-74.77"/>
<polygon fill="#63b8ff" stroke="#63b8ff" points="1000.42,-478.2 993.07,-485.83 1003.57,-484.45 1000.42,-478.2"/>
</a>
</g>
</g>
<!-- Node4 -->
<g id="Node000004" class="node">
<title>Node4</title>
<g id="a_Node000004"><a xlink:href="../../d0/db9/mimic_09_09_8hpp.html" target="_top" xlink:title=" ">
<polygon fill="white" stroke="#666666" points="962.75,-19.25 849.25,-19.25 849.25,0 962.75,0 962.75,-19.25"/>
<text text-anchor="middle" x="906" y="-5.75" font-family="Helvetica,sans-Serif" font-size="10.00">mimic++/mimic++.hpp</text>
</a>
</g>
</g>
<!-- Node2&#45;&gt;Node4 -->
<g id="edge45_Node000002_Node000004" class="edge">
<title>Node2&#45;&gt;Node4</title>
<g id="a_edge45_Node000002_Node000004"><a xlink:title=" ">
<path fill="none" stroke="#63b8ff" d="M909.3,-495.02C745.06,-489.78 320,-451.29 320,-193.25 320,-193.25 320,-193.25 320,-124.75 320,-17.67 701.75,-9.1 849.01,-9.77"/>
<polygon fill="#63b8ff" stroke="#63b8ff" points="909.06,-498.52 919.15,-495.3 909.26,-491.52 909.06,-498.52"/>
</a>
</g>
</g>
<!-- Node5 -->
<g id="Node000005" class="node">
<title>Node5</title>
<g id="a_Node000005"><a xlink:href="../../da/dd9/_reporter_8hpp.html" target="_top" xlink:title=" ">
<polygon fill="white" stroke="#666666" points="1127,-395.75 1015,-395.75 1015,-376.5 1127,-376.5 1127,-395.75"/>
<text text-anchor="middle" x="1071" y="-382.25" font-family="Helvetica,sans-Serif" font-size="10.00">mimic++/Reporter.hpp</text>
</a>
</g>
</g>
<!-- Node2&#45;&gt;Node5 -->
<g id="edge4_Node000002_Node000005" class="edge">
<title>Node2&#45;&gt;Node5</title>
<g id="a_edge4_Node000002_Node000005"><a xlink:title=" ">
<path fill="none" stroke="#63b8ff" d="M1000.25,-480.66C1012.55,-472.95 1026.61,-462.72 1037,-451 1052,-434.08 1062.72,-409.38 1067.76,-396.2"/>
<polygon fill="#63b8ff" stroke="#63b8ff" points="998.55,-477.6 991.76,-485.73 1002.14,-483.61 998.55,-477.6"/>
</a>
</g>
</g>
<!-- Node10 -->
<g id="Node000010" class="node">
<title>Node10</title>
<g id="a_Node000010"><a xlink:href="../../d8/de4/_sequence_8hpp.html" target="_top" xlink:title=" ">
<polygon fill="white" stroke="#666666" points="1019.38,-334.88 900.62,-334.88 900.62,-315.62 1019.38,-315.62 1019.38,-334.88"/>
<text text-anchor="middle" x="960" y="-321.38" font-family="Helvetica,sans-Serif" font-size="10.00">mimic++/Sequence.hpp</text>
</a>
</g>
</g>
<!-- Node2&#45;&gt;Node10 -->
<g id="edge27_Node000002_Node000010" class="edge">
<title>Node2&#45;&gt;Node10</title>
<g id="a_edge27_Node000002_Node000010"><a xlink:title=" ">
<path fill="none" stroke="#63b8ff" d="M941.04,-481.14C929.04,-473.92 916.69,-463.93 910,-451 888.46,-409.34 931.57,-356.2 951.08,-335.28"/>
<polygon fill="#63b8ff" stroke="#63b8ff" points="939.14,-484.08 949.59,-485.82 942.5,-477.95 939.14,-484.08"/>
</a>
</g>
</g>
<!-- Node12 -->
<g id="Node000012" class="node">
<title>Node12</title>
<g id="a_Node000012"><a xlink:href="../../d0/d3b/_reports_8hpp.html" target="_top" xlink:title=" ">
<polygon fill="white" stroke="#666666" points="1027.5,-451 918.5,-451 918.5,-431.75 1027.5,-431.75 1027.5,-451"/>
<text text-anchor="middle" x="973" y="-437.5" font-family="Helvetica,sans-Serif" font-size="10.00">mimic++/Reports.hpp</text>
</a>
</g>
</g>
<!-- Node2&#45;&gt;Node12 -->
<g id="edge23_Node000002_Node000012" class="edge">
<title>Node2&#45;&gt;Node12</title>
<g id="a_edge23_Node000002_Node000012"><a xlink:title=" ">
<path fill="none" stroke="#63b8ff" d="M973,-475.38C973,-467.09 973,-457.92 973,-451.36"/>
<polygon fill="#63b8ff" stroke="#63b8ff" points="969.5,-475.32 973,-485.32 976.5,-475.32 969.5,-475.32"/>
</a>
</g>
</g>
<!-- Node13 -->
<g id="Node000013" class="node">
<title>Node13</title>
<g id="a_Node000013"><a xlink:href="../../d3/d58/_common_8hpp.html" target="_top" xlink:title=" ">
<polygon fill="white" stroke="#666666" points="335.88,-395.75 178.12,-395.75 178.12,-376.5 335.88,-376.5 335.88,-395.75"/>
<text text-anchor="middle" x="257" y="-382.25" font-family="Helvetica,sans-Serif" font-size="10.00">mimic++/matchers/Common.hpp</text>
</a>
</g>
</g>
<!-- Node2&#45;&gt;Node13 -->
<g id="edge28_Node000002_Node000013" class="edge">
<title>Node2&#45;&gt;Node13</title>
<g id="a_edge28_Node000002_Node000013"><a xlink:title=" ">
<path fill="none" stroke="#63b8ff" d="M909.63,-494.71C774.76,-492.16 463.42,-482.91 363,-451 324.91,-438.9 286.21,-410.66 267.9,-396.13"/>
<polygon fill="#63b8ff" stroke="#63b8ff" points="909.39,-498.21 919.45,-494.89 909.52,-491.21 909.39,-498.21"/>
</a>
</g>
</g>
<!-- Node3&#45;&gt;Node4 -->
<g id="edge3_Node000003_Node000004" class="edge">
<title>Node3&#45;&gt;Node4</title>
<g id="a_edge3_Node000003_Node000004"><a xlink:title=" ">
<path fill="none" stroke="#63b8ff" d="M1048.68,-51.69C1014.84,-41.95 968.15,-28.52 937.54,-19.7"/>
<polygon fill="#63b8ff" stroke="#63b8ff" points="1047.58,-55.02 1058.16,-54.42 1049.52,-48.29 1047.58,-55.02"/>
</a>
</g>
</g>
<!-- Node5&#45;&gt;Node4 -->
<g id="edge22_Node000005_Node000004" class="edge">
<title>Node5&#45;&gt;Node4</title>
<g id="a_edge22_Node000005_Node000004"><a xlink:title=" ">
<path fill="none" stroke="#63b8ff" d="M1129.81,-373.75C1218.73,-355.38 1381.26,-316.9 1421,-274 1446.06,-246.95 1440,-230.12 1440,-193.25 1440,-193.25 1440,-193.25 1440,-124.75 1440,-78.98 1405.81,-73.87 1364,-55.25 1293.66,-23.93 1069.6,-14.48 963.18,-11.72"/>
<polygon fill="#63b8ff" stroke="#63b8ff" points="1129.14,-370.31 1120.04,-375.74 1130.54,-377.17 1129.14,-370.31"/>
</a>
</g>
</g>
<!-- Node6 -->
<g id="Node000006" class="node">
<title>Node6</title>
<g id="a_Node000006"><a xlink:href="../../d5/d8a/_expectation_8hpp.html" target="_top" xlink:title=" ">
<polygon fill="white" stroke="#666666" points="1189.75,-268.38 1064.25,-268.38 1064.25,-249.12 1189.75,-249.12 1189.75,-268.38"/>
<text text-anchor="middle" x="1127" y="-254.88" font-family="Helvetica,sans-Serif" font-size="10.00">mimic++/Expectation.hpp</text>
</a>
</g>
</g>
<!-- Node5&#45;&gt;Node6 -->
<g id="edge5_Node000005_Node000006" class="edge">
<title>Node5&#45;&gt;Node6</title>
<g id="a_edge5_Node000005_Node000006"><a xlink:title=" ">
<path fill="none" stroke="#63b8ff" d="M1079.63,-365.8C1091.93,-338.26 1114,-288.85 1123.01,-268.68"/>
<polygon fill="#63b8ff" stroke="#63b8ff" points="1076.53,-364.17 1075.64,-374.73 1082.92,-367.02 1076.53,-364.17"/>
</a>
</g>
</g>
<!-- Node5&#45;&gt;Node10 -->
<g id="edge15_Node000005_Node000010" class="edge">
<title>Node5&#45;&gt;Node10</title>
<g id="a_edge15_Node000005_Node000010"><a xlink:title=" ">
<path fill="none" stroke="#63b8ff" d="M1043.99,-370.8C1023.11,-359.72 994.85,-344.73 977.02,-335.28"/>
<polygon fill="#63b8ff" stroke="#63b8ff" points="1042.33,-373.88 1052.8,-375.47 1045.61,-367.7 1042.33,-373.88"/>
</a>
</g>
</g>
<!-- Node6&#45;&gt;Node4 -->
<g id="edge14_Node000006_Node000004" class="edge">
<title>Node6&#45;&gt;Node4</title>
<g id="a_edge14_Node000006_Node000004"><a xlink:title=" ">
<path fill="none" stroke="#63b8ff" d="M1111.23,-240.11C1067.57,-191.29 946.24,-55.62 913.97,-19.54"/>
<polygon fill="#63b8ff" stroke="#63b8ff" points="1108.59,-242.41 1117.86,-247.53 1113.81,-237.75 1108.59,-242.41"/>
</a>
</g>
</g>
<!-- Node7 -->
<g id="Node000007" class="node">
<title>Node7</title>
<g id="a_Node000007"><a xlink:href="../../d2/d4f/_expectation_builder_8hpp.html" target="_top" xlink:title=" ">
<polygon fill="white" stroke="#666666" points="983.75,-201.88 828.25,-201.88 828.25,-182.62 983.75,-182.62 983.75,-201.88"/>
<text text-anchor="middle" x="906" y="-188.38" font-family="Helvetica,sans-Serif" font-size="10.00">mimic++/ExpectationBuilder.hpp</text>
</a>
</g>
</g>
<!-- Node6&#45;&gt;Node7 -->
<g id="edge6_Node000006_Node000007" class="edge">
<title>Node6&#45;&gt;Node7</title>
<g id="a_edge6_Node000006_Node000007"><a xlink:title=" ">
<path fill="none" stroke="#63b8ff" d="M1084.82,-245.44C1041.66,-232.84 975.63,-213.57 937.04,-202.31"/>
<polygon fill="#63b8ff" stroke="#63b8ff" points="1083.77,-248.78 1094.35,-248.22 1085.73,-242.06 1083.77,-248.78"/>
</a>
</g>
</g>
<!-- Node8 -->
<g id="Node000008" class="node">
<title>Node8</title>
<g id="a_Node000008"><a xlink:href="../../d5/dc5/_mock_8hpp.html" target="_top" xlink:title=" ">
<polygon fill="white" stroke="#666666" points="1315.62,-135.38 1216.38,-135.38 1216.38,-116.12 1315.62,-116.12 1315.62,-135.38"/>
<text text-anchor="middle" x="1266" y="-121.88" font-family="Helvetica,sans-Serif" font-size="10.00">mimic++/Mock.hpp</text>
</a>
</g>
</g>
<!-- Node6&#45;&gt;Node8 -->
<g id="edge13_Node000006_Node000008" class="edge">
<title>Node6&#45;&gt;Node8</title>
<g id="a_edge13_Node000006_Node000008"><a xlink:title=" ">
<path fill="none" stroke="#63b8ff" d="M1144.77,-241C1174.5,-212.99 1233.3,-157.57 1256.38,-135.82"/>
<polygon fill="#63b8ff" stroke="#63b8ff" points="1142.53,-238.3 1137.66,-247.71 1147.33,-243.4 1142.53,-238.3"/>
</a>
</g>
</g>
<!-- Node7&#45;&gt;Node4 -->
<g id="edge12_Node000007_Node000004" class="edge">
<title>Node7&#45;&gt;Node4</title>
<g id="a_edge12_Node000007_Node000004"><a xlink:title=" ">
<path fill="none" stroke="#63b8ff" d="M906,-171.21C906,-132.21 906,-47.49 906,-19.67"/>
<polygon fill="#63b8ff" stroke="#63b8ff" points="902.5,-171.02 906,-181.02 909.5,-171.02 902.5,-171.02"/>
</a>
</g>
</g>
<!-- Node7&#45;&gt;Node8 -->
<g id="edge7_Node000007_Node000008" class="edge">
<title>Node7&#45;&gt;Node8</title>
<g id="a_edge7_Node000007_Node000008"><a xlink:title=" ">
<path fill="none" stroke="#63b8ff" d="M968.13,-180.12C1038.34,-167.54 1151.26,-147.31 1216.02,-135.7"/>
<polygon fill="#63b8ff" stroke="#63b8ff" points="967.53,-176.67 958.31,-181.88 968.77,-183.56 967.53,-176.67"/>
</a>
</g>
</g>
<!-- Node8&#45;&gt;Node3 -->
<g id="edge10_Node000008_Node000003" class="edge">
<title>Node8&#45;&gt;Node3</title>
<g id="a_edge10_Node000008_Node000003"><a xlink:title=" ">
<path fill="none" stroke="#63b8ff" d="M1228.37,-112.09C1195.16,-100.92 1147.55,-84.9 1117.99,-74.96"/>
<polygon fill="#63b8ff" stroke="#63b8ff" points="1227.01,-115.33 1237.61,-115.2 1229.24,-108.69 1227.01,-115.33"/>
</a>
</g>
</g>
<!-- Node8&#45;&gt;Node4 -->
<g id="edge11_Node000008_Node000004" class="edge">
<title>Node8&#45;&gt;Node4</title>
<g id="a_edge11_Node000008_Node000004"><a xlink:title=" ">
<path fill="none" stroke="#63b8ff" d="M1293.58,-109.9C1316.45,-95.73 1342.71,-73.83 1326,-55.25 1302.16,-28.74 1072.1,-16.75 962.94,-12.52"/>
<polygon fill="#63b8ff" stroke="#63b8ff" points="1291.95,-106.8 1285.1,-114.88 1295.5,-112.83 1291.95,-106.8"/>
</a>
</g>
</g>
<!-- Node9 -->
<g id="Node000009" class="node">
<title>Node9</title>
<g id="a_Node000009"><a xlink:href="../../d9/dc3/_interface_mock_8hpp.html" target="_top" xlink:title=" ">
<polygon fill="white" stroke="#666666" points="1316.75,-74.5 1179.25,-74.5 1179.25,-55.25 1316.75,-55.25 1316.75,-74.5"/>
<text text-anchor="middle" x="1248" y="-61" font-family="Helvetica,sans-Serif" font-size="10.00">mimic++/InterfaceMock.hpp</text>
</a>
</g>
</g>
<!-- Node8&#45;&gt;Node9 -->
<g id="edge8_Node000008_Node000009" class="edge">
<title>Node8&#45;&gt;Node9</title>
<g id="a_edge8_Node000008_Node000009"><a xlink:title=" ">
<path fill="none" stroke="#63b8ff" d="M1259.96,-104.99C1256.85,-94.81 1253.2,-82.88 1250.76,-74.9"/>
<polygon fill="#63b8ff" stroke="#63b8ff" points="1256.55,-105.82 1262.82,-114.36 1263.25,-103.77 1256.55,-105.82"/>
</a>
</g>
</g>
<!-- Node9&#45;&gt;Node4 -->
<g id="edge9_Node000009_Node000004" class="edge">
<title>Node9&#45;&gt;Node4</title>
<g id="a_edge9_Node000009_Node000004"><a xlink:title=" ">
<path fill="none" stroke="#63b8ff" d="M1178.49,-53.05C1115,-43.17 1022.26,-28.73 963.02,-19.5"/>
<polygon fill="#63b8ff" stroke="#63b8ff" points="1177.68,-56.47 1188.1,-54.55 1178.76,-49.55 1177.68,-56.47"/>
</a>
</g>
</g>
<!-- Node10&#45;&gt;Node4 -->
<g id="edge18_Node000010_Node000004" class="edge">
<title>Node10&#45;&gt;Node4</title>
<g id="a_edge18_Node000010_Node000004"><a xlink:title=" ">
<path fill="none" stroke="#63b8ff" d="M888.99,-321.47C809.67,-316.87 688.03,-304.86 655,-274 628.06,-248.83 636,-230.12 636,-193.25 636,-193.25 636,-193.25 636,-124.75 636,-33.02 769.85,-13.89 849.07,-10.59"/>
<polygon fill="#63b8ff" stroke="#63b8ff" points="888.68,-324.96 898.86,-322.01 889.07,-317.97 888.68,-324.96"/>
</a>
</g>
</g>
<!-- Node10&#45;&gt;Node6 -->
<g id="edge16_Node000010_Node000006" class="edge">
<title>Node10&#45;&gt;Node6</title>
<g id="a_edge16_Node000010_Node000006"><a xlink:title=" ">
<path fill="none" stroke="#63b8ff" d="M993.98,-311.13C1026.6,-298.53 1075.01,-279.83 1103.55,-268.81"/>
<polygon fill="#63b8ff" stroke="#63b8ff" points="993.05,-307.73 984.98,-314.6 995.57,-314.26 993.05,-307.73"/>
</a>
</g>
</g>
<!-- Node10&#45;&gt;Node7 -->
<g id="edge17_Node000010_Node000007" class="edge">
<title>Node10&#45;&gt;Node7</title>
<g id="a_edge17_Node000010_Node000007"><a xlink:title=" ">
<path fill="none" stroke="#63b8ff" d="M982.26,-308.39C1002.21,-292.14 1026.31,-266.13 1012,-243.5 998.39,-221.99 972.8,-209.5 950.17,-202.36"/>
<polygon fill="#63b8ff" stroke="#63b8ff" points="980.24,-305.52 974.46,-314.39 984.51,-311.07 980.24,-305.52"/>
</a>
</g>
</g>
<!-- Node11 -->
<g id="Node000011" class="node">
<title>Node11</title>
<g id="a_Node000011"><a xlink:href="../../db/d70/_control_policies_8hpp.html" target="_top" xlink:title=" ">
<polygon fill="white" stroke="#666666" points="788,-274 664,-274 664,-243.5 788,-243.5 788,-274"/>
<text text-anchor="start" x="672" y="-260.5" font-family="Helvetica,sans-Serif" font-size="10.00">mimic++/policies/Control</text>
<text text-anchor="middle" x="726" y="-249.25" font-family="Helvetica,sans-Serif" font-size="10.00">Policies.hpp</text>
</a>
</g>
</g>
<!-- Node10&#45;&gt;Node11 -->
<g id="edge19_Node000010_Node000011" class="edge">
<title>Node10&#45;&gt;Node11</title>
<g id="a_edge19_Node000010_Node000011"><a xlink:title=" ">
<path fill="none" stroke="#63b8ff" d="M916.03,-312.13C877.2,-301.43 820.5,-285.8 779.15,-274.4"/>
<polygon fill="#63b8ff" stroke="#63b8ff" points="914.94,-315.46 925.51,-314.74 916.8,-308.71 914.94,-315.46"/>
</a>
</g>
</g>
<!-- Node11&#45;&gt;Node4 -->
<g id="edge21_Node000011_Node000004" class="edge">
<title>Node11&#45;&gt;Node4</title>
<g id="a_edge21_Node000011_Node000004"><a xlink:title=" ">
<path fill="none" stroke="#63b8ff" d="M739.63,-233.21C762.05,-193.81 809.19,-114.84 859,-55.25 870.26,-41.78 885.25,-28.16 895.24,-19.57"/>
<polygon fill="#63b8ff" stroke="#63b8ff" points="736.59,-231.47 734.73,-241.9 742.69,-234.91 736.59,-231.47"/>
</a>
</g>
</g>
<!-- Node11&#45;&gt;Node7 -->
<g id="edge20_Node000011_Node000007" class="edge">
<title>Node11&#45;&gt;Node7</title>
<g id="a_edge20_Node000011_Node000007"><a xlink:title=" ">
<path fill="none" stroke="#63b8ff" d="M777.46,-239.31C811.23,-227.21 853.91,-211.91 880.59,-202.35"/>
<polygon fill="#63b8ff" stroke="#63b8ff" points="776.5,-235.94 768.27,-242.6 778.86,-242.52 776.5,-235.94"/>
</a>
</g>
</g>
<!-- Node12&#45;&gt;Node4 -->
<g id="edge25_Node000012_Node000004" class="edge">
<title>Node12&#45;&gt;Node4</title>
<g id="a_edge25_Node000012_Node000004"><a xlink:title=" ">
<path fill="none" stroke="#63b8ff" d="M906.89,-431.58C790.22,-411.94 560,-352.96 560,-193.25 560,-193.25 560,-193.25 560,-124.75 560,-73.86 604.38,-75.66 651,-55.25 715.12,-27.17 795.61,-16.74 848.81,-12.88"/>
<polygon fill="#63b8ff" stroke="#63b8ff" points="906.23,-435.02 916.66,-433.17 907.35,-428.11 906.23,-435.02"/>
</a>
</g>
</g>
<!-- Node12&#45;&gt;Node5 -->
<g id="edge24_Node000012_Node000005" class="edge">
<title>Node12&#45;&gt;Node5</title>
<g id="a_edge24_Node000012_Node000005"><a xlink:title=" ">
<path fill="none" stroke="#63b8ff" d="M999.25,-426.11C1016.74,-416.61 1039.2,-404.4 1054.29,-396.2"/>
<polygon fill="#63b8ff" stroke="#63b8ff" points="998.07,-422.77 990.95,-430.62 1001.41,-428.92 998.07,-422.77"/>
</a>
</g>
</g>
<!-- Node12&#45;&gt;Node11 -->
<g id="edge26_Node000012_Node000011" class="edge">
<title>Node12&#45;&gt;Node11</title>
<g id="a_edge26_Node000012_Node000011"><a xlink:title=" ">
<path fill="none" stroke="#63b8ff" d="M951.73,-424.82C904.54,-390.31 791.67,-307.77 745.85,-274.26"/>
<polygon fill="#63b8ff" stroke="#63b8ff" points="949.39,-427.45 959.53,-430.52 953.52,-421.8 949.39,-427.45"/>
</a>
</g>
</g>
<!-- Node13&#45;&gt;Node4 -->
<g id="edge41_Node000013_Node000004" class="edge">
<title>Node13&#45;&gt;Node4</title>
<g id="a_edge41_Node000013_Node000004"><a xlink:title=" ">
<path fill="none" stroke="#63b8ff" d="M166.56,-377.6C92.54,-365.89 0,-336.01 0,-259.75 0,-259.75 0,-259.75 0,-124.75 0,-32.32 105.45,-73.77 196,-55.25 320.4,-29.8 703.03,-16.44 848.79,-12.17"/>
<polygon fill="#63b8ff" stroke="#63b8ff" points="165.89,-381.04 176.3,-379.04 166.92,-374.11 165.89,-381.04"/>
</a>
</g>
</g>
<!-- Node13&#45;&gt;Node7 -->
<g id="edge29_Node000013_Node000007" class="edge">
<title>Node13&#45;&gt;Node7</title>
<g id="a_edge29_Node000013_Node000007"><a xlink:title=" ">
<path fill="none" stroke="#63b8ff" d="M347.55,-377.72C532.2,-361.71 938.31,-321.44 979,-274 1001.76,-247.46 953.5,-217.11 924.98,-202.32"/>
<polygon fill="#63b8ff" stroke="#63b8ff" points="347.42,-374.22 337.75,-378.57 348.02,-381.19 347.42,-374.22"/>
</a>
</g>
</g>
<!-- Node14 -->
<g id="Node000014" class="node">
<title>Node14</title>
<g id="a_Node000014"><a xlink:href="../../d9/dd5/_general_matchers_8hpp.html" target="_top" xlink:title=" ">
<polygon fill="white" stroke="#666666" points="311.25,-340.5 176.75,-340.5 176.75,-310 311.25,-310 311.25,-340.5"/>
<text text-anchor="start" x="184.75" y="-327" font-family="Helvetica,sans-Serif" font-size="10.00">mimic++/matchers/General</text>
<text text-anchor="middle" x="244" y="-315.75" font-family="Helvetica,sans-Serif" font-size="10.00">Matchers.hpp</text>
</a>
</g>
</g>
<!-- Node13&#45;&gt;Node14 -->
<g id="edge30_Node000013_Node000014" class="edge">
<title>Node13&#45;&gt;Node14</title>
<g id="a_edge30_Node000013_Node000014"><a xlink:title=" ">
<path fill="none" stroke="#63b8ff" d="M252.6,-365.2C250.83,-357.2 248.83,-348.15 247.21,-340.78"/>
<polygon fill="#63b8ff" stroke="#63b8ff" points="249.13,-365.7 254.7,-374.71 255.96,-364.19 249.13,-365.7"/>
</a>
</g>
</g>
<!-- Node16 -->
<g id="Node000016" class="node">
<title>Node16</title>
<g id="a_Node000016"><a xlink:href="../../df/df3/_range_matchers_8hpp.html" target="_top" xlink:title=" ">
<polygon fill="white" stroke="#666666" points="215.5,-268.38 28.5,-268.38 28.5,-249.12 215.5,-249.12 215.5,-268.38"/>
<text text-anchor="middle" x="122" y="-254.88" font-family="Helvetica,sans-Serif" font-size="10.00">mimic++/matchers/RangeMatchers.hpp</text>
</a>
</g>
</g>
<!-- Node13&#45;&gt;Node16 -->
<g id="edge40_Node000013_Node000016" class="edge">
<title>Node13&#45;&gt;Node16</title>
<g id="a_edge40_Node000013_Node000016"><a xlink:title=" ">
<path fill="none" stroke="#63b8ff" d="M218.92,-371.89C201.89,-364.59 182.44,-354.19 168,-340.5 145.64,-319.3 131.04,-284.78 125.07,-268.62"/>
<polygon fill="#63b8ff" stroke="#63b8ff" points="217.16,-374.96 227.74,-375.47 219.79,-368.47 217.16,-374.96"/>
</a>
</g>
</g>
<!-- Node18 -->
<g id="Node000018" class="node">
<title>Node18</title>
<g id="a_Node000018"><a xlink:href="../../d1/d42/_arg_requirement_policies_8hpp.html" target="_top" xlink:title=" ">
<polygon fill="white" stroke="#666666" points="969.5,-274 806.5,-274 806.5,-243.5 969.5,-243.5 969.5,-274"/>
<text text-anchor="start" x="814.5" y="-260.5" font-family="Helvetica,sans-Serif" font-size="10.00">mimic++/policies/ArgRequirement</text>
<text text-anchor="middle" x="888" y="-249.25" font-family="Helvetica,sans-Serif" font-size="10.00">Policies.hpp</text>
</a>
</g>
</g>
<!-- Node13&#45;&gt;Node18 -->
<g id="edge42_Node000013_Node000018" class="edge">
<title>Node13&#45;&gt;Node18</title>
<g id="a_edge42_Node000013_Node000018"><a xlink:title=" ">
<path fill="none" stroke="#63b8ff" d="M307.43,-373.52C374.69,-358.2 497.52,-330.74 603,-310 671.28,-296.57 749.1,-282.97 806.15,-273.3"/>
<polygon fill="#63b8ff" stroke="#63b8ff" points="306.78,-370.08 297.81,-375.72 308.34,-376.91 306.78,-370.08"/>
</a>
</g>
</g>
<!-- Node14&#45;&gt;Node4 -->
<g id="edge39_Node000014_Node000004" class="edge">
<title>Node14&#45;&gt;Node4</title>
<g id="a_edge39_Node000014_Node000004"><a xlink:title=" ">
<path fill="none" stroke="#63b8ff" d="M255.78,-299.34C266.94,-273.44 282,-231.41 282,-193.25 282,-193.25 282,-193.25 282,-124.75 282,-92.07 280.11,-75.19 306,-55.25 348.39,-22.61 707.21,-13.63 848.84,-11.35"/>
<polygon fill="#63b8ff" stroke="#63b8ff" points="252.65,-297.78 251.76,-308.34 259.04,-300.64 252.65,-297.78"/>
</a>
</g>
</g>
<!-- Node14&#45;&gt;Node7 -->
<g id="edge31_Node000014_Node000007" class="edge">
<title>Node14&#45;&gt;Node7</title>
<g id="a_edge31_Node000014_Node000007"><a xlink:title=" ">
<path fill="none" stroke="#63b8ff" d="M322.88,-312.97C382.96,-303.88 467.56,-290 541,-274 592.25,-262.84 603.93,-255.43 655,-243.5 724.24,-227.32 804.98,-211.74 855.79,-202.33"/>
<polygon fill="#63b8ff" stroke="#63b8ff" points="322.45,-309.49 313.08,-314.44 323.49,-316.41 322.45,-309.49"/>
</a>
</g>
</g>
<!-- Node15 -->
<g id="Node000015" class="node">
<title>Node15</title>
<g id="a_Node000015"><a xlink:href="../../d1/de0/_floating_point_matchers_8hpp.html" target="_top" xlink:title=" ">
<polygon fill="white" stroke="#666666" points="253.62,-207.5 118.38,-207.5 118.38,-177 253.62,-177 253.62,-207.5"/>
<text text-anchor="start" x="126.38" y="-194" font-family="Helvetica,sans-Serif" font-size="10.00">mimic++/matchers/Floating</text>
<text text-anchor="middle" x="186" y="-182.75" font-family="Helvetica,sans-Serif" font-size="10.00">PointMatchers.hpp</text>
</a>
</g>
</g>
<!-- Node14&#45;&gt;Node15 -->
<g id="edge32_Node000014_Node000015" class="edge">
<title>Node14&#45;&gt;Node15</title>
<g id="a_edge32_Node000014_Node000015"><a xlink:title=" ">
<path fill="none" stroke="#63b8ff" d="M240.41,-298.75C237.45,-282.39 232.36,-261.02 224,-243.5 217.69,-230.27 207.57,-217.12 199.37,-207.6"/>
<polygon fill="#63b8ff" stroke="#63b8ff" points="236.88,-298.86 241.95,-308.16 243.78,-297.72 236.88,-298.86"/>
</a>
</g>
</g>
<!-- Node14&#45;&gt;Node16 -->
<g id="edge34_Node000014_Node000016" class="edge">
<title>Node14&#45;&gt;Node16</title>
<g id="a_edge34_Node000014_Node000016"><a xlink:title=" ">
<path fill="none" stroke="#63b8ff" d="M206.39,-304.36C183.9,-292.47 156.4,-277.94 139.04,-268.76"/>
<polygon fill="#63b8ff" stroke="#63b8ff" points="204.5,-307.33 214.98,-308.91 207.77,-301.14 204.5,-307.33"/>
</a>
</g>
</g>
<!-- Node17 -->
<g id="Node000017" class="node">
<title>Node17</title>
<g id="a_Node000017"><a xlink:href="../../d2/d56/_string_matchers_8hpp.html" target="_top" xlink:title=" ">
<polygon fill="white" stroke="#666666" points="532.38,-268.38 347.62,-268.38 347.62,-249.12 532.38,-249.12 532.38,-268.38"/>
<text text-anchor="middle" x="440" y="-254.88" font-family="Helvetica,sans-Serif" font-size="10.00">mimic++/matchers/StringMatchers.hpp</text>
</a>
</g>
</g>
<!-- Node14&#45;&gt;Node17 -->
<g id="edge36_Node000014_Node000017" class="edge">
<title>Node14&#45;&gt;Node17</title>
<g id="a_edge36_Node000014_Node000017"><a xlink:title=" ">
<path fill="none" stroke="#63b8ff" d="M299.08,-306.12C336,-293.98 383.03,-278.5 412.34,-268.85"/>
<polygon fill="#63b8ff" stroke="#63b8ff" points="298.32,-302.69 289.91,-309.14 300.51,-309.34 298.32,-302.69"/>
</a>
</g>
</g>
<!-- Node15&#45;&gt;Node4 -->
<g id="edge33_Node000015_Node000004" class="edge">
<title>Node15&#45;&gt;Node4</title>
<g id="a_edge33_Node000015_Node000004"><a xlink:title=" ">
<path fill="none" stroke="#63b8ff" d="M193.31,-165.85C203.99,-133.91 227.15,-80.24 268,-55.25 316.87,-25.35 701.57,-14.66 848.88,-11.64"/>
<polygon fill="#63b8ff" stroke="#63b8ff" points="190.07,-164.51 190.39,-175.1 196.74,-166.62 190.07,-164.51"/>
</a>
</g>
</g>
<!-- Node16&#45;&gt;Node4 -->
<g id="edge35_Node000016_Node000004" class="edge">
<title>Node16&#45;&gt;Node4</title>
<g id="a_edge35_Node000016_Node000004"><a xlink:title=" ">
<path fill="none" stroke="#63b8ff" d="M113.11,-238.63C106.61,-221.77 100.3,-196.87 109,-177 141.02,-103.9 167.68,-86.77 241,-55.25 296.08,-31.57 697.82,-16.98 848.83,-12.29"/>
<polygon fill="#63b8ff" stroke="#63b8ff" points="109.74,-239.64 116.88,-247.47 116.18,-236.9 109.74,-239.64"/>
</a>
</g>
</g>
<!-- Node17&#45;&gt;Node4 -->
<g id="edge38_Node000017_Node000004" class="edge">
<title>Node17&#45;&gt;Node4</title>
<g id="a_edge38_Node000017_Node000004"><a xlink:title=" ">
<path fill="none" stroke="#63b8ff" d="M443.98,-237.89C453.45,-196.24 481.56,-99.9 546,-55.25 593.82,-22.12 760.11,-13.56 848.98,-11.37"/>
<polygon fill="#63b8ff" stroke="#63b8ff" points="440.6,-236.96 441.93,-247.47 447.44,-238.42 440.6,-236.96"/>
</a>
</g>
</g>
<!-- Node17&#45;&gt;Node7 -->
<g id="edge37_Node000017_Node000007" class="edge">
<title>Node17&#45;&gt;Node7</title>
<g id="a_edge37_Node000017_Node000007"><a xlink:title=" ">
<path fill="none" stroke="#63b8ff" d="M517.03,-247.09C607.23,-234.6 755.11,-214.14 840.18,-202.36"/>
<polygon fill="#63b8ff" stroke="#63b8ff" points="516.7,-243.6 507.28,-248.44 517.66,-250.53 516.7,-243.6"/>
</a>
</g>
</g>
<!-- Node18&#45;&gt;Node4 -->
<g id="edge44_Node000018_Node000004" class="edge">
<title>Node18&#45;&gt;Node4</title>
<g id="a_edge44_Node000018_Node000004"><a xlink:title=" ">
<path fill="none" stroke="#63b8ff" d="M846.4,-236.88C835.49,-229.23 825.08,-219.45 819,-207.5 812.85,-195.42 815.77,-190.16 819,-177 835.02,-111.79 881.59,-43.8 899.17,-19.72"/>
<polygon fill="#63b8ff" stroke="#63b8ff" points="844.44,-239.79 854.74,-242.24 848.22,-233.9 844.44,-239.79"/>
</a>
</g>
</g>
<!-- Node18&#45;&gt;Node7 -->
<g id="edge43_Node000018_Node000007" class="edge">
<title>Node18&#45;&gt;Node7</title>
<g id="a_edge43_Node000018_Node000007"><a xlink:title=" ">
<path fill="none" stroke="#63b8ff" d="M895.14,-232.18C898.11,-221.51 901.37,-209.83 903.54,-202.07"/>
<polygon fill="#63b8ff" stroke="#63b8ff" points="891.81,-231.08 892.49,-241.66 898.55,-232.96 891.81,-231.08"/>
</a>
</g>
</g>
<!-- Node19&#45;&gt;Node8 -->
<g id="edge59_Node000019_Node000008" class="edge">
<title>Node19&#45;&gt;Node8</title>
<g id="a_edge59_Node000019_Node000008"><a xlink:title=" ">
<path fill="none" stroke="#63b8ff" d="M1227.53,-533.5C1233.85,-525.77 1240.41,-516.17 1244,-506.25 1269.78,-435.04 1267.02,-186.51 1266.17,-135.82"/>
<polygon fill="#63b8ff" stroke="#63b8ff" points="1225.11,-530.95 1221.14,-540.78 1230.37,-535.57 1225.11,-530.95"/>
</a>
</g>
</g>
<!-- Node20 -->
<g id="Node000020" class="node">
<title>Node20</title>
<g id="a_Node000020"><a xlink:href="../../dc/d44/_call_8hpp.html" target="_top" xlink:title=" ">
<polygon fill="white" stroke="#666666" points="1234.88,-506.25 1143.12,-506.25 1143.12,-487 1234.88,-487 1234.88,-506.25"/>
<text text-anchor="middle" x="1189" y="-492.75" font-family="Helvetica,sans-Serif" font-size="10.00">mimic++/Call.hpp</text>
</a>
</g>
</g>
<!-- Node19&#45;&gt;Node20 -->
<g id="edge47_Node000019_Node000020" class="edge">
<title>Node19&#45;&gt;Node20</title>
<g id="a_edge47_Node000019_Node000020"><a xlink:title=" ">
<path fill="none" stroke="#63b8ff" d="M1203,-531.5C1199.48,-522.99 1195.52,-513.4 1192.71,-506.61"/>
<polygon fill="#63b8ff" stroke="#63b8ff" points="1199.74,-532.78 1206.79,-540.68 1206.21,-530.1 1199.74,-532.78"/>
</a>
</g>
</g>
<!-- Node20&#45;&gt;Node4 -->
<g id="edge51_Node000020_Node000004" class="edge">
<title>Node20&#45;&gt;Node4</title>
<g id="a_edge51_Node000020_Node000004"><a xlink:title=" ">
<path fill="none" stroke="#63b8ff" d="M1209.82,-479.56C1264.15,-437.32 1408.45,-323.08 1444,-274 1466.84,-242.46 1478,-232.19 1478,-193.25 1478,-193.25 1478,-193.25 1478,-124.75 1478,-77.99 1441.96,-73.71 1399,-55.25 1321.92,-22.12 1075.64,-13.57 963.09,-11.37"/>
<polygon fill="#63b8ff" stroke="#63b8ff" points="1207.73,-476.75 1201.97,-485.65 1212.01,-482.29 1207.73,-476.75"/>
</a>
</g>
</g>
<!-- Node20&#45;&gt;Node5 -->
<g id="edge49_Node000020_Node000005" class="edge">
<title>Node20&#45;&gt;Node5</title>
<g id="a_edge49_Node000020_Node000005"><a xlink:title=" ">
<path fill="none" stroke="#63b8ff" d="M1171.02,-479.09C1145.75,-455.86 1100.61,-414.35 1080.79,-396.13"/>
<polygon fill="#63b8ff" stroke="#63b8ff" points="1168.5,-481.53 1178.23,-485.72 1173.24,-476.38 1168.5,-481.53"/>
</a>
</g>
</g>
<!-- Node20&#45;&gt;Node6 -->
<g id="edge48_Node000020_Node000006" class="edge">
<title>Node20&#45;&gt;Node6</title>
<g id="a_edge48_Node000020_Node000006"><a xlink:title=" ">
<path fill="none" stroke="#63b8ff" d="M1183.78,-475.76C1170.97,-427.05 1138.4,-303.1 1129.36,-268.72"/>
<polygon fill="#63b8ff" stroke="#63b8ff" points="1180.33,-476.42 1186.26,-485.2 1187.1,-474.64 1180.33,-476.42"/>
</a>
</g>
</g>
<!-- Node20&#45;&gt;Node12 -->
<g id="edge50_Node000020_Node000012" class="edge">
<title>Node20&#45;&gt;Node12</title>
<g id="a_edge50_Node000020_Node000012"><a xlink:title=" ">
<path fill="none" stroke="#63b8ff" d="M1141.38,-483.88C1101.74,-474.11 1046.11,-460.4 1009.82,-451.45"/>
<polygon fill="#63b8ff" stroke="#63b8ff" points="1140.34,-487.23 1150.89,-486.23 1142.02,-480.44 1140.34,-487.23"/>
</a>
</g>
</g>
<!-- Node21 -->
<g id="Node000021" class="node">
<title>Node21</title>
<g id="a_Node000021"><a xlink:href="../../d2/dfd/_argument_list_8hpp.html" target="_top" xlink:title=" ">
<polygon fill="white" stroke="#666666" points="1583.62,-340.5 1448.38,-340.5 1448.38,-310 1583.62,-310 1583.62,-340.5"/>
<text text-anchor="start" x="1456.38" y="-327" font-family="Helvetica,sans-Serif" font-size="10.00">mimic++/policies/Argument</text>
<text text-anchor="middle" x="1516" y="-315.75" font-family="Helvetica,sans-Serif" font-size="10.00">List.hpp</text>
</a>
</g>
</g>
<!-- Node20&#45;&gt;Node21 -->
<g id="edge52_Node000020_Node000021" class="edge">
<title>Node20&#45;&gt;Node21</title>
<g id="a_edge52_Node000020_Node000021"><a xlink:title=" ">
<path fill="none" stroke="#63b8ff" d="M1216.69,-481.28C1278.18,-449.43 1425.57,-373.09 1487.66,-340.93"/>
<polygon fill="#63b8ff" stroke="#63b8ff" points="1215.19,-478.12 1207.92,-485.82 1218.41,-484.33 1215.19,-478.12"/>
</a>
</g>
</g>
<!-- Node21&#45;&gt;Node4 -->
<g id="edge53_Node000021_Node000004" class="edge">
<title>Node21&#45;&gt;Node4</title>
<g id="a_edge53_Node000021_Node000004"><a xlink:title=" ">
<path fill="none" stroke="#63b8ff" d="M1516,-298.43C1516,-272.01 1516,-229.77 1516,-193.25 1516,-193.25 1516,-193.25 1516,-124.75 1516,-92.07 1517.87,-75.21 1492,-55.25 1450.75,-23.42 1102.29,-13.98 963.1,-11.46"/>
<polygon fill="#63b8ff" stroke="#63b8ff" points="1512.5,-298.2 1516,-308.2 1519.5,-298.2 1512.5,-298.2"/>
</a>
</g>
</g>
<!-- Node21&#45;&gt;Node18 -->
<g id="edge54_Node000021_Node000018" class="edge">
<title>Node21&#45;&gt;Node18</title>
<g id="a_edge54_Node000021_Node000018"><a xlink:title=" ">
<path fill="none" stroke="#63b8ff" d="M1436.64,-316.1C1316.84,-303.79 1090.95,-280.59 969.75,-268.15"/>
<polygon fill="#63b8ff" stroke="#63b8ff" points="1436.09,-319.56 1446.39,-317.1 1436.8,-312.6 1436.09,-319.56"/>
</a>
</g>
</g>
<!-- Node22 -->
<g id="Node000022" class="node">
<title>Node22</title>
<g id="a_Node000022"><a xlink:href="../../d3/da3/_finalizer_policies_8hpp.html" target="_top" xlink:title=" ">
<polygon fill="white" stroke="#666666" points="1673.62,-141 1544.38,-141 1544.38,-110.5 1673.62,-110.5 1673.62,-141"/>
<text text-anchor="start" x="1552.38" y="-127.5" font-family="Helvetica,sans-Serif" font-size="10.00">mimic++/policies/Finalizer</text>
<text text-anchor="middle" x="1609" y="-116.25" font-family="Helvetica,sans-Serif" font-size="10.00">Policies.hpp</text>
</a>
</g>
</g>
<!-- Node21&#45;&gt;Node22 -->
<g id="edge55_Node000021_Node000022" class="edge">
<title>Node21&#45;&gt;Node22</title>
<g id="a_edge55_Node000021_Node000022"><a xlink:title=" ">
<path fill="none" stroke="#63b8ff" d="M1527.73,-299.35C1547.38,-257.6 1586.39,-174.77 1602.15,-141.29"/>
<polygon fill="#63b8ff" stroke="#63b8ff" points="1524.58,-297.82 1523.48,-308.36 1530.91,-300.8 1524.58,-297.82"/>
</a>
</g>
</g>
<!-- Node23 -->
<g id="Node000023" class="node">
<title>Node23</title>
<g id="a_Node000023"><a xlink:href="../../dc/d18/_side_effect_policies_8hpp.html" target="_top" xlink:title=" ">
<polygon fill="white" stroke="#666666" points="1757.75,-207.5 1620.25,-207.5 1620.25,-177 1757.75,-177 1757.75,-207.5"/>
<text text-anchor="start" x="1628.25" y="-194" font-family="Helvetica,sans-Serif" font-size="10.00">mimic++/policies/SideEffect</text>
<text text-anchor="middle" x="1689" y="-182.75" font-family="Helvetica,sans-Serif" font-size="10.00">Policies.hpp</text>
</a>
</g>
</g>
<!-- Node21&#45;&gt;Node23 -->
<g id="edge57_Node000021_Node000023" class="edge">
<title>Node21&#45;&gt;Node23</title>
<g id="a_edge57_Node000021_Node000023"><a xlink:title=" ">
<path fill="none" stroke="#63b8ff" d="M1549.64,-303.55C1563.34,-294.79 1579.18,-284.26 1593,-274 1622.2,-252.32 1654.16,-224.56 1672.85,-207.88"/>
<polygon fill="#63b8ff" stroke="#63b8ff" points="1547.96,-300.47 1541.37,-308.77 1551.7,-306.39 1547.96,-300.47"/>
</a>
</g>
</g>
<!-- Node22&#45;&gt;Node4 -->
<g id="edge56_Node000022_Node000004" class="edge">
<title>Node22&#45;&gt;Node4</title>
<g id="a_edge56_Node000022_Node000004"><a xlink:title=" ">
<path fill="none" stroke="#63b8ff" d="M1590.37,-101.84C1575.8,-85.72 1554.03,-65.31 1530,-55.25 1428.56,-12.79 1097.16,-9.58 963.08,-10.09"/>
<polygon fill="#63b8ff" stroke="#63b8ff" points="1587.5,-103.87 1596.7,-109.11 1592.78,-99.27 1587.5,-103.87"/>
</a>
</g>
</g>
<!-- Node23&#45;&gt;Node4 -->
<g id="edge58_Node000023_Node000004" class="edge">
<title>Node23&#45;&gt;Node4</title>
<g id="a_edge58_Node000023_Node000004"><a xlink:title=" ">
<path fill="none" stroke="#63b8ff" d="M1693.5,-165.26C1695.02,-148.21 1694.06,-126.23 1683,-110.5 1648.29,-61.15 1617.55,-69.81 1559,-55.25 1446.86,-27.37 1100.77,-15.62 963.22,-11.97"/>
<polygon fill="#63b8ff" stroke="#63b8ff" points="1690.04,-164.79 1692.27,-175.15 1696.98,-165.66 1690.04,-164.79"/>
</a>
</g>
</g>
<!-- Node24&#45;&gt;Node4 -->
<g id="edge63_Node000024_Node000004" class="edge">
<title>Node24&#45;&gt;Node4</title>
<g id="a_edge63_Node000024_Node000004"><a xlink:title=" ">
<path fill="none" stroke="#63b8ff" d="M1356.76,-232.33C1369.68,-189.67 1387.77,-103.61 1343,-55.25 1317.65,-27.86 1075.56,-16.27 963.01,-12.33"/>
<polygon fill="#63b8ff" stroke="#63b8ff" points="1353.48,-231.11 1353.77,-241.7 1360.15,-233.23 1353.48,-231.11"/>
</a>
</g>
</g>
<!-- Node24&#45;&gt;Node7 -->
<g id="edge61_Node000024_Node000007" class="edge">
<title>Node24&#45;&gt;Node7</title>
<g id="a_edge61_Node000024_Node000007"><a xlink:title=" ">
<path fill="none" stroke="#63b8ff" d="M1272.98,-246.8C1187.23,-234.29 1048.42,-214.03 968.35,-202.35"/>
<polygon fill="#63b8ff" stroke="#63b8ff" points="1272.3,-250.24 1282.7,-248.22 1273.31,-243.31 1272.3,-250.24"/>
</a>
</g>
</g>
<!-- Node24&#45;&gt;Node8 -->
<g id="edge62_Node000024_Node000008" class="edge">
<title>Node24&#45;&gt;Node8</title>
<g id="a_edge62_Node000024_Node000008"><a xlink:title=" ">
<path fill="none" stroke="#63b8ff" d="M1332.94,-233.69C1314.51,-204.25 1284.22,-155.86 1271.7,-135.85"/>
<polygon fill="#63b8ff" stroke="#63b8ff" points="1329.84,-235.33 1338.11,-241.95 1335.77,-231.61 1329.84,-235.33"/>
</a>
</g>
</g>
</g>
</svg>

<g id="navigator" transform="translate(0 0)" fill="#404254">
  <rect fill="#f2f5e9" fill-opacity="0.5" stroke="#606060" stroke-width=".5" x="0" y="0" width="60" height="60"/>
  <use id="zoomplus" xlink:href="#zoomPlus" x="17" y="9" onmousedown="handleZoom(evt,'in')"/>
  <use id="zoomminus" xlink:href="#zoomMin" x="42" y="9" onmousedown="handleZoom(evt,'out')"/>
  <use id="reset" xlink:href="#resetDef" x="30" y="36" onmousedown="handleReset()"/>
   <use id="arrowup" xlink:href="#arrowUp" x="0" y="0" onmousedown="handlePan(0,-1)"/>
  <use id="arrowright" xlink:href="#arrowRight" x="0" y="0" onmousedown="handlePan(1,0)"/>
  <use id="arrowdown" xlink:href="#arrowDown" x="0" y="0" onmousedown="handlePan(0,1)"/>
  <use id="arrowleft" xlink:href="#arrowLeft" x="0" y="0" onmousedown="handlePan(-1,0)"/>
</g>
<svg viewBox="0 0 15 15" width="100%" height="30px" preserveAspectRatio="xMaxYMin meet">
 <g id="arrow_out" transform="scale(0.3 0.3)">
  <a xlink:href="_state_printer_8hpp__dep__incl_org.svg" target="_base">
   <rect id="button" ry="5" rx="5" y="6" x="6" height="38" width="38"
        fill="#f2f5e9" fill-opacity="0.5" stroke="#606060" stroke-width="1.0"/>
   <path id="arrow"
     d="M 11.500037,31.436501 C 11.940474,20.09759 22.043105,11.32322 32.158766,21.979434 L 37.068811,17.246167 C 37.068811,17.246167 37.088388,32 37.088388,32 L 22.160133,31.978069 C 22.160133,31.978069 26.997745,27.140456 26.997745,27.140456 C 18.528582,18.264221 13.291696,25.230495 11.500037,31.436501 z"
     style="fill:#404040;"/>
  </a>
 </g>
</svg>

<style type='text/css'>
<![CDATA[
[data-mouse-over-selected='false'] { opacity: 0.7; }
[data-mouse-over-selected='true']  { opacity: 1.0; }
]]>
</style>
<script type="application/ecmascript"><![CDATA[
document.addEventListener('DOMContentLoaded', (event) => {
  highlightEdges();
  highlightAdjacentNodes();
});
]]></script>
</svg>
