<?xml version="1.0" encoding="UTF-8" standalone="no"?>
<!DOCTYPE svg PUBLIC "-//W3C//DTD SVG 1.1//EN"
 "http://www.w3.org/Graphics/SVG/1.1/DTD/svg11.dtd">
<!-- Generated by graphviz version 12.2.1 (20241206.2353)
 -->
<!-- Title: mimicpp::reporting::IReporter Pages: 1 -->
<svg width="626pt" height="437pt"
 viewBox="0.00 0.00 626.25 437.38" xmlns="http://www.w3.org/2000/svg" xmlns:xlink="http://www.w3.org/1999/xlink">
<g id="graph0" class="graph" transform="scale(1 1) rotate(0) translate(4 433.38)">
<title>mimicpp::reporting::IReporter</title>
<!-- Node1 -->
<g id="Node000001" class="node">
<title>Node1</title>
<g id="a_Node000001"><a xlink:title="The reporter interface.">
<polygon fill="#999999" stroke="#666666" points="94.75,-155.5 0,-155.5 0,-125 94.75,-125 94.75,-155.5"/>
<text text-anchor="start" x="8" y="-142" font-family="Helvetica,sans-Serif" font-size="10.00">mimicpp::reporting</text>
<text text-anchor="middle" x="47.38" y="-130.75" font-family="Helvetica,sans-Serif" font-size="10.00">::IReporter</text>
</a>
</g>
</g>
<!-- Node2 -->
<g id="Node000002" class="node">
<title>Node2</title>
<g id="a_Node000002"><a xlink:href="../../d5/db8/classmimicpp_1_1reporting_1_1_basic_reporter.html" target="_top" xlink:title=" ">
<polygon fill="white" stroke="#666666" points="613.75,-308 473.25,-308 473.25,-232.5 613.75,-232.5 613.75,-308"/>
<text text-anchor="start" x="481.25" y="-294.5" font-family="Helvetica,sans-Serif" font-size="10.00">mimicpp::reporting</text>
<text text-anchor="start" x="481.25" y="-283.25" font-family="Helvetica,sans-Serif" font-size="10.00">::BasicReporter&lt; &amp;detail</text>
<text text-anchor="start" x="481.25" y="-272" font-family="Helvetica,sans-Serif" font-size="10.00">::boost_test::send_success,</text>
<text text-anchor="start" x="481.25" y="-260.75" font-family="Helvetica,sans-Serif" font-size="10.00"> &amp;detail::boost_test::send</text>
<text text-anchor="start" x="481.25" y="-249.5" font-family="Helvetica,sans-Serif" font-size="10.00">_warning, &amp;detail::boost_test</text>
<text text-anchor="middle" x="543.5" y="-238.25" font-family="Helvetica,sans-Serif" font-size="10.00">::send_fail &gt;</text>
</a>
</g>
</g>
<!-- Node1&#45;&gt;Node2 -->
<g id="edge1_Node000001_Node000002" class="edge">
<title>Node1&#45;&gt;Node2</title>
<g id="a_edge1_Node000001_Node000002"><a xlink:title=" ">
<path fill="none" stroke="#63b8ff" d="M66.18,-164.8C104.82,-215.67 202.18,-331.27 316.5,-372.25 372.67,-392.39 396.25,-396.53 450.75,-372.25 458.72,-368.7 487.61,-335.81 510.87,-308.32"/>
<polygon fill="#63b8ff" stroke="#63b8ff" points="69.15,-162.93 60.36,-157.02 63.54,-167.12 69.15,-162.93"/>
</a>
</g>
</g>
<!-- Node3 -->
<g id="Node000003" class="node">
<title>Node3</title>
<g id="a_Node000003"><a xlink:href="../../d5/db8/classmimicpp_1_1reporting_1_1_basic_reporter.html" target="_top" xlink:title=" ">
<polygon fill="white" stroke="#666666" points="618.25,-429.38 468.75,-429.38 468.75,-365.12 618.25,-365.12 618.25,-429.38"/>
<text text-anchor="start" x="476.75" y="-415.88" font-family="Helvetica,sans-Serif" font-size="10.00">mimicpp::reporting</text>
<text text-anchor="start" x="476.75" y="-404.62" font-family="Helvetica,sans-Serif" font-size="10.00">::BasicReporter&lt; &amp;detail</text>
<text text-anchor="start" x="476.75" y="-393.38" font-family="Helvetica,sans-Serif" font-size="10.00">::catch2::send_success,</text>
<text text-anchor="start" x="476.75" y="-382.12" font-family="Helvetica,sans-Serif" font-size="10.00"> &amp;detail::catch2::send_warning,</text>
<text text-anchor="middle" x="543.5" y="-370.88" font-family="Helvetica,sans-Serif" font-size="10.00"> &amp;detail::catch2::send_fail &gt;</text>
</a>
</g>
</g>
<!-- Node1&#45;&gt;Node3 -->
<g id="edge2_Node000001_Node000003" class="edge">
<title>Node1&#45;&gt;Node3</title>
<g id="a_edge2_Node000001_Node000003"><a xlink:title=" ">
<path fill="none" stroke="#63b8ff" d="M54.25,-166.57C64.04,-204.81 87.21,-275.79 131.75,-318.25 222.29,-404.56 376.95,-410.49 468.45,-405.13"/>
<polygon fill="#63b8ff" stroke="#63b8ff" points="57.75,-166.18 51.98,-157.3 50.95,-167.84 57.75,-166.18"/>
</a>
</g>
</g>
<!-- Node4 -->
<g id="Node000004" class="node">
<title>Node4</title>
<g id="a_Node000004"><a xlink:href="../../d5/db8/classmimicpp_1_1reporting_1_1_basic_reporter.html" target="_top" xlink:title=" ">
<polygon fill="white" stroke="#666666" points="607,-119 480,-119 480,-43.5 607,-43.5 607,-119"/>
<text text-anchor="start" x="488" y="-105.5" font-family="Helvetica,sans-Serif" font-size="10.00">mimicpp::reporting</text>
<text text-anchor="start" x="488" y="-94.25" font-family="Helvetica,sans-Serif" font-size="10.00">::BasicReporter&lt; &amp;detail</text>
<text text-anchor="start" x="488" y="-83" font-family="Helvetica,sans-Serif" font-size="10.00">::doctest::send_success,</text>
<text text-anchor="start" x="488" y="-71.75" font-family="Helvetica,sans-Serif" font-size="10.00"> &amp;detail::doctest::send</text>
<text text-anchor="start" x="488" y="-60.5" font-family="Helvetica,sans-Serif" font-size="10.00">_warning, &amp;detail::doctest</text>
<text text-anchor="middle" x="543.5" y="-49.25" font-family="Helvetica,sans-Serif" font-size="10.00">::send_fail &gt;</text>
</a>
</g>
</g>
<!-- Node1&#45;&gt;Node4 -->
<g id="edge3_Node000001_Node000004" class="edge">
<title>Node1&#45;&gt;Node4</title>
<g id="a_edge3_Node000001_Node000004"><a xlink:title=" ">
<path fill="none" stroke="#63b8ff" d="M69.3,-116.15C84.74,-100.32 107.25,-80.97 131.75,-72.25 249.01,-30.5 397.26,-49.85 479.77,-66.4"/>
<polygon fill="#63b8ff" stroke="#63b8ff" points="66.8,-113.71 62.52,-123.4 71.91,-118.49 66.8,-113.71"/>
</a>
</g>
</g>
<!-- Node5 -->
<g id="Node000005" class="node">
<title>Node5</title>
<g id="a_Node000005"><a xlink:href="../../d5/db8/classmimicpp_1_1reporting_1_1_basic_reporter.html" target="_top" xlink:title=" ">
<polygon fill="white" stroke="#666666" points="614.5,-210.38 472.5,-210.38 472.5,-146.12 614.5,-146.12 614.5,-210.38"/>
<text text-anchor="start" x="480.5" y="-196.88" font-family="Helvetica,sans-Serif" font-size="10.00">mimicpp::reporting</text>
<text text-anchor="start" x="480.5" y="-185.62" font-family="Helvetica,sans-Serif" font-size="10.00">::BasicReporter&lt; &amp;detail</text>
<text text-anchor="start" x="480.5" y="-174.38" font-family="Helvetica,sans-Serif" font-size="10.00">::gtest::send_success,</text>
<text text-anchor="start" x="480.5" y="-163.12" font-family="Helvetica,sans-Serif" font-size="10.00"> &amp;detail::gtest::send_warning,</text>
<text text-anchor="middle" x="543.5" y="-151.88" font-family="Helvetica,sans-Serif" font-size="10.00"> &amp;detail::gtest::send_fail &gt;</text>
</a>
</g>
</g>
<!-- Node1&#45;&gt;Node5 -->
<g id="edge4_Node000001_Node000005" class="edge">
<title>Node1&#45;&gt;Node5</title>
<g id="a_edge4_Node000001_Node000005"><a xlink:title=" ">
<path fill="none" stroke="#63b8ff" d="M95.22,-120.47C173.6,-90.61 334.17,-43.53 450.75,-103.25 462.94,-109.49 458.93,-118.71 468.75,-128.25 475.07,-134.4 482.24,-140.28 489.55,-145.72"/>
<polygon fill="#63b8ff" stroke="#63b8ff" points="94.18,-117.11 86.13,-124 96.72,-123.64 94.18,-117.11"/>
</a>
</g>
</g>
<!-- Node6 -->
<g id="Node000006" class="node">
<title>Node6</title>
<g id="a_Node000006"><a xlink:href="../../d5/db8/classmimicpp_1_1reporting_1_1_basic_reporter.html" target="_top" xlink:title="A reporter, which creates text messages and reports them via the provided callbacks.">
<polygon fill="white" stroke="#666666" points="298.5,-211.12 131.75,-211.12 131.75,-169.38 298.5,-169.38 298.5,-211.12"/>
<text text-anchor="start" x="139.75" y="-197.62" font-family="Helvetica,sans-Serif" font-size="10.00">mimicpp::reporting</text>
<text text-anchor="start" x="139.75" y="-186.38" font-family="Helvetica,sans-Serif" font-size="10.00">::BasicReporter&lt; successReporter,</text>
<text text-anchor="middle" x="215.12" y="-175.12" font-family="Helvetica,sans-Serif" font-size="10.00"> warningReporter, failReporter &gt;</text>
</a>
</g>
</g>
<!-- Node1&#45;&gt;Node6 -->
<g id="edge5_Node000001_Node000006" class="edge">
<title>Node1&#45;&gt;Node6</title>
<g id="a_edge5_Node000001_Node000006"><a xlink:title=" ">
<path fill="none" stroke="#63b8ff" d="M105.85,-157.59C117.96,-161.24 130.87,-165.14 143.4,-168.92"/>
<polygon fill="#63b8ff" stroke="#63b8ff" points="107.02,-154.29 96.44,-154.75 105,-160.99 107.02,-154.29"/>
</a>
</g>
</g>
<!-- Node7 -->
<g id="Node000007" class="node">
<title>Node7</title>
<g id="a_Node000007"><a xlink:href="../../d0/d1c/classmimicpp_1_1reporting_1_1_default_reporter.html" target="_top" xlink:title="The default reporter.">
<polygon fill="white" stroke="#666666" points="262.5,-30.5 167.75,-30.5 167.75,0 262.5,0 262.5,-30.5"/>
<text text-anchor="start" x="175.75" y="-17" font-family="Helvetica,sans-Serif" font-size="10.00">mimicpp::reporting</text>
<text text-anchor="middle" x="215.12" y="-5.75" font-family="Helvetica,sans-Serif" font-size="10.00">::DefaultReporter</text>
</a>
</g>
</g>
<!-- Node1&#45;&gt;Node7 -->
<g id="edge10_Node000001_Node000007" class="edge">
<title>Node1&#45;&gt;Node7</title>
<g id="a_edge10_Node000001_Node000007"><a xlink:title=" ">
<path fill="none" stroke="#63b8ff" d="M59.35,-114.6C69.96,-92.79 88.05,-62.24 112.75,-44.25 128.66,-32.67 149.08,-25.7 167.42,-21.51"/>
<polygon fill="#63b8ff" stroke="#63b8ff" points="56.29,-112.88 55.26,-123.43 62.64,-115.83 56.29,-112.88"/>
</a>
</g>
</g>
<!-- Node6&#45;&gt;Node2 -->
<g id="edge6_Node000006_Node000002" class="edge">
<title>Node6&#45;&gt;Node2</title>
<g id="a_edge6_Node000006_Node000002"><a xlink:title=" ">
<path fill="none" stroke="orange" stroke-dasharray="5,2" d="M267.12,-216.28C282.65,-223.34 299.98,-230.37 316.5,-235.25 345.01,-243.68 417.5,-254.22 472.76,-261.52"/>
<polygon fill="orange" stroke="orange" points="268.6,-213.11 258.06,-212.06 265.64,-219.46 268.6,-213.11"/>
</a>
</g>
<text text-anchor="start" x="316.5" y="-293.65" font-family="Helvetica,sans-Serif" font-size="10.00" fill="grey"> &lt; &amp;detail::boost_test</text>
<text text-anchor="start" x="316.5" y="-282.4" font-family="Helvetica,sans-Serif" font-size="10.00" fill="grey">::send_success, &amp;detail</text>
<text text-anchor="start" x="316.5" y="-271.15" font-family="Helvetica,sans-Serif" font-size="10.00" fill="grey">::boost_test::send_warning,</text>
<text text-anchor="middle" x="383.62" y="-259.9" font-family="Helvetica,sans-Serif" font-size="10.00" fill="grey"> &amp;detail::boost_test::send_fail &gt;</text>
</g>
<!-- Node6&#45;&gt;Node3 -->
<g id="edge7_Node000006_Node000003" class="edge">
<title>Node6&#45;&gt;Node3</title>
<g id="a_edge7_Node000006_Node000003"><a xlink:title=" ">
<path fill="none" stroke="orange" stroke-dasharray="5,2" d="M236.67,-220.51C255.09,-245.74 284.14,-281.17 316.5,-304.25 341.89,-322.36 412.64,-350.34 468.28,-370.88"/>
<polygon fill="orange" stroke="orange" points="239.69,-218.72 231.02,-212.62 233.99,-222.79 239.69,-218.72"/>
</a>
</g>
<text text-anchor="start" x="324.75" y="-398.08" font-family="Helvetica,sans-Serif" font-size="10.00" fill="grey"> &lt; &amp;detail::catch2::</text>
<text text-anchor="start" x="324.75" y="-386.83" font-family="Helvetica,sans-Serif" font-size="10.00" fill="grey">send_success, &amp;detail</text>
<text text-anchor="start" x="324.75" y="-375.58" font-family="Helvetica,sans-Serif" font-size="10.00" fill="grey">::catch2::send_warning,</text>
<text text-anchor="middle" x="383.62" y="-364.33" font-family="Helvetica,sans-Serif" font-size="10.00" fill="grey"> &amp;detail::catch2::send_fail &gt;</text>
</g>
<!-- Node6&#45;&gt;Node4 -->
<g id="edge8_Node000006_Node000004" class="edge">
<title>Node6&#45;&gt;Node4</title>
<g id="a_edge8_Node000006_Node000004"><a xlink:title=" ">
<path fill="none" stroke="orange" stroke-dasharray="5,2" d="M257.35,-163.25C274.99,-152.65 296.17,-141.16 316.5,-133.25 369.78,-112.51 433.48,-98.78 479.66,-90.66"/>
<polygon fill="orange" stroke="orange" points="255.93,-160.01 249.23,-168.22 259.58,-165.98 255.93,-160.01"/>
</a>
</g>
<text text-anchor="start" x="323.25" y="-168.75" font-family="Helvetica,sans-Serif" font-size="10.00" fill="grey"> &lt; &amp;detail::doctest</text>
<text text-anchor="start" x="323.25" y="-157.5" font-family="Helvetica,sans-Serif" font-size="10.00" fill="grey">::send_success, &amp;detail</text>
<text text-anchor="start" x="323.25" y="-146.25" font-family="Helvetica,sans-Serif" font-size="10.00" fill="grey">::doctest::send_warning,</text>
<text text-anchor="middle" x="383.62" y="-135" font-family="Helvetica,sans-Serif" font-size="10.00" fill="grey"> &amp;detail::doctest::send_fail &gt;</text>
</g>
<!-- Node6&#45;&gt;Node5 -->
<g id="edge9_Node000006_Node000005" class="edge">
<title>Node6&#45;&gt;Node5</title>
<g id="a_edge9_Node000006_Node000005"><a xlink:title=" ">
<path fill="none" stroke="orange" stroke-dasharray="5,2" d="M310.09,-186.8C361.78,-184.89 424.86,-182.58 472.24,-180.83"/>
<polygon fill="orange" stroke="orange" points="310.28,-183.29 300.42,-187.15 310.54,-190.28 310.28,-183.29"/>
</a>
</g>
<text text-anchor="start" x="331.88" y="-221.87" font-family="Helvetica,sans-Serif" font-size="10.00" fill="grey"> &lt; &amp;detail::gtest::send</text>
<text text-anchor="start" x="331.88" y="-210.62" font-family="Helvetica,sans-Serif" font-size="10.00" fill="grey">_success, &amp;detail::gtest</text>
<text text-anchor="start" x="331.88" y="-199.37" font-family="Helvetica,sans-Serif" font-size="10.00" fill="grey">::send_warning, &amp;detail</text>
<text text-anchor="middle" x="383.62" y="-188.12" font-family="Helvetica,sans-Serif" font-size="10.00" fill="grey">::gtest::send_fail &gt;</text>
</g>
</g>
</svg>
