<?xml version="1.0" encoding="UTF-8" standalone="no"?>
<!DOCTYPE svg PUBLIC "-//W3C//DTD SVG 1.1//EN"
 "http://www.w3.org/Graphics/SVG/1.1/DTD/svg11.dtd">
<!-- Generated by graphviz version 12.2.1 (20241206.2353)
 -->
<!-- Title: mimicpp::reporting::state_saturated Pages: 1 -->
<svg width="268pt" height="464pt"
 viewBox="0.00 0.00 267.74 464.25" xmlns="http://www.w3.org/2000/svg" xmlns:xlink="http://www.w3.org/1999/xlink">
<g id="graph0" class="graph" transform="scale(1 1) rotate(0) translate(4 460.25)">
<title>mimicpp::reporting::state_saturated</title>
<!-- Node1 -->
<g id="Node000001" class="node">
<title>Node1</title>
<g id="a_Node000001"><a xlink:title="Denotes a saturated expectation state.">
<polygon fill="#999999" stroke="#666666" points="171.75,-30.5 77,-30.5 77,0 171.75,0 171.75,-30.5"/>
<text text-anchor="start" x="85" y="-17" font-family="Helvetica,sans-Serif" font-size="10.00">mimicpp::reporting</text>
<text text-anchor="middle" x="124.38" y="-5.75" font-family="Helvetica,sans-Serif" font-size="10.00">::state_saturated</text>
</a>
</g>
</g>
<!-- Node2 -->
<g id="Node000002" class="node">
<title>Node2</title>
<g id="a_Node000002"><a xlink:title=" ">
<polygon fill="white" stroke="#666666" points="195.75,-114.25 53,-114.25 53,-83.75 195.75,-83.75 195.75,-114.25"/>
<text text-anchor="start" x="61" y="-100.75" font-family="Helvetica,sans-Serif" font-size="10.00">std::vector&lt; mimicpp</text>
<text text-anchor="middle" x="124.38" y="-89.5" font-family="Helvetica,sans-Serif" font-size="10.00">::reporting::SequenceReport &gt;</text>
</a>
</g>
</g>
<!-- Node2&#45;&gt;Node1 -->
<g id="edge1_Node000001_Node000002" class="edge">
<title>Node2&#45;&gt;Node1</title>
<g id="a_edge1_Node000001_Node000002"><a xlink:title=" ">
<path fill="none" stroke="#9a32cd" stroke-dasharray="5,2" d="M124.38,-72.22C124.38,-58.53 124.38,-42.21 124.38,-30.74"/>
<polygon fill="#9a32cd" stroke="#9a32cd" points="120.88,-71.87 124.38,-81.87 127.88,-71.87 120.88,-71.87"/>
</a>
</g>
<text text-anchor="start" x="127.38" y="-53.25" font-family="Helvetica,sans-Serif" font-size="10.00" fill="grey">sequences</text>
</g>
<!-- Node3 -->
<g id="Node000003" class="node">
<title>Node3</title>
<g id="a_Node000003"><a xlink:href="../../d9/dd4/classmimicpp_1_1reporting_1_1_sequence_report.html" target="_top" xlink:title=" ">
<polygon fill="white" stroke="#666666" points="118.75,-213.25 24,-213.25 24,-182.75 118.75,-182.75 118.75,-213.25"/>
<text text-anchor="start" x="32" y="-199.75" font-family="Helvetica,sans-Serif" font-size="10.00">mimicpp::reporting</text>
<text text-anchor="middle" x="71.38" y="-188.5" font-family="Helvetica,sans-Serif" font-size="10.00">::SequenceReport</text>
</a>
</g>
</g>
<!-- Node3&#45;&gt;Node2 -->
<g id="edge2_Node000002_Node000003" class="edge">
<title>Node3&#45;&gt;Node2</title>
<g id="a_edge2_Node000002_Node000003"><a xlink:title=" ">
<path fill="none" stroke="#9a32cd" stroke-dasharray="5,2" d="M81.21,-172C86.41,-159.72 93.23,-144.88 100.62,-132.25 104.14,-126.25 108.53,-120.02 112.58,-114.65"/>
<polygon fill="#9a32cd" stroke="#9a32cd" points="78.07,-170.44 77.51,-181.02 84.54,-173.1 78.07,-170.44"/>
</a>
</g>
<text text-anchor="start" x="103.62" y="-144.62" font-family="Helvetica,sans-Serif" font-size="10.00" fill="grey">elements</text>
</g>
<!-- Node4 -->
<g id="Node000004" class="node">
<title>Node4</title>
<g id="a_Node000004"><a xlink:href="../../db/df5/classmimicpp_1_1util_1_1_source_location.html" target="_top" xlink:title="A thin wrapper around general source&#45;location info.">
<polygon fill="white" stroke="#666666" points="142.75,-285.75 0,-285.75 0,-266.5 142.75,-266.5 142.75,-285.75"/>
<text text-anchor="middle" x="71.38" y="-272.25" font-family="Helvetica,sans-Serif" font-size="10.00">mimicpp::util::SourceLocation</text>
</a>
</g>
</g>
<!-- Node4&#45;&gt;Node3 -->
<g id="edge3_Node000003_Node000004" class="edge">
<title>Node4&#45;&gt;Node3</title>
<g id="a_edge3_Node000003_Node000004"><a xlink:title=" ">
<path fill="none" stroke="#9a32cd" stroke-dasharray="5,2" d="M71.38,-254.97C71.38,-241.92 71.38,-225.23 71.38,-213.48"/>
<polygon fill="#9a32cd" stroke="#9a32cd" points="67.88,-254.58 71.38,-264.58 74.88,-254.58 67.88,-254.58"/>
</a>
</g>
<text text-anchor="start" x="74.38" y="-236" font-family="Helvetica,sans-Serif" font-size="10.00" fill="grey">from</text>
</g>
<!-- Node5 -->
<g id="Node000005" class="node">
<title>Node5</title>
<g id="a_Node000005"><a xlink:title=" ">
<polygon fill="white" stroke="#666666" points="113.12,-388.75 29.62,-388.75 29.62,-369.5 113.12,-369.5 113.12,-388.75"/>
<text text-anchor="middle" x="71.38" y="-375.25" font-family="Helvetica,sans-Serif" font-size="10.00">std::string_view</text>
</a>
</g>
</g>
<!-- Node5&#45;&gt;Node4 -->
<g id="edge4_Node000004_Node000005" class="edge">
<title>Node5&#45;&gt;Node4</title>
<g id="a_edge4_Node000004_Node000005"><a xlink:title=" ">
<path fill="none" stroke="#9a32cd" stroke-dasharray="5,2" d="M71.38,-357.92C71.38,-336.09 71.38,-302.29 71.38,-286.21"/>
<polygon fill="#9a32cd" stroke="#9a32cd" points="67.88,-357.65 71.38,-367.65 74.88,-357.65 67.88,-357.65"/>
</a>
</g>
<text text-anchor="start" x="74.38" y="-339" font-family="Helvetica,sans-Serif" font-size="10.00" fill="grey">fileName</text>
<text text-anchor="start" x="74.38" y="-323.75" font-family="Helvetica,sans-Serif" font-size="10.00" fill="grey">functionName</text>
<text text-anchor="start" x="74.38" y="-308.5" font-family="Helvetica,sans-Serif" font-size="10.00" fill="grey">line</text>
</g>
<!-- Node6 -->
<g id="Node000006" class="node">
<title>Node6</title>
<g id="a_Node000006"><a xlink:title=" ">
<polygon fill="white" stroke="#666666" points="127.38,-456.25 15.38,-456.25 15.38,-425.75 127.38,-425.75 127.38,-456.25"/>
<text text-anchor="start" x="23.38" y="-442.75" font-family="Helvetica,sans-Serif" font-size="10.00">std::basic_string_view</text>
<text text-anchor="middle" x="71.38" y="-431.5" font-family="Helvetica,sans-Serif" font-size="10.00">&lt; Char &gt;</text>
</a>
</g>
</g>
<!-- Node6&#45;&gt;Node5 -->
<g id="edge5_Node000005_Node000006" class="edge">
<title>Node6&#45;&gt;Node5</title>
<g id="a_edge5_Node000005_Node000006"><a xlink:title=" ">
<path fill="none" stroke="#63b8ff" d="M71.38,-414.27C71.38,-405.29 71.38,-395.79 71.38,-389.1"/>
<polygon fill="#63b8ff" stroke="#63b8ff" points="67.88,-413.99 71.38,-423.99 74.88,-413.99 67.88,-413.99"/>
</a>
</g>
</g>
<!-- Node7 -->
<g id="Node000007" class="node">
<title>Node7</title>
<g id="a_Node000007"><a xlink:title=" ">
<polygon fill="white" stroke="#666666" points="220.12,-207.62 136.62,-207.62 136.62,-188.38 220.12,-188.38 220.12,-207.62"/>
<text text-anchor="middle" x="178.38" y="-194.12" font-family="Helvetica,sans-Serif" font-size="10.00">std::vector&lt; T &gt;</text>
</a>
</g>
</g>
<!-- Node7&#45;&gt;Node2 -->
<g id="edge6_Node000002_Node000007" class="edge">
<title>Node7&#45;&gt;Node2</title>
<g id="a_edge6_Node000002_Node000007"><a xlink:title=" ">
<path fill="none" stroke="orange" stroke-dasharray="5,2" d="M169.77,-177.84C163.68,-164.75 155.08,-147.15 146.38,-132.25 142.89,-126.28 138.69,-119.95 134.89,-114.49"/>
<polygon fill="orange" stroke="orange" points="166.44,-178.98 173.78,-186.62 172.81,-176.07 166.44,-178.98"/>
</a>
</g>
<text text-anchor="start" x="165.99" y="-152.25" font-family="Helvetica,sans-Serif" font-size="10.00" fill="grey">&lt; mimicpp::reporting</text>
<text text-anchor="start" x="165.99" y="-137" font-family="Helvetica,sans-Serif" font-size="10.00" fill="grey">  ::SequenceReport &gt;</text>
</g>
<!-- Node8 -->
<g id="Node000008" class="node">
<title>Node8</title>
<g id="a_Node000008"><a xlink:title=" ">
<polygon fill="white" stroke="#666666" points="192.78,-285.75 163.97,-285.75 163.97,-266.5 192.78,-266.5 192.78,-285.75"/>
<text text-anchor="middle" x="178.38" y="-272.25" font-family="Helvetica,sans-Serif" font-size="10.00">T</text>
</a>
</g>
</g>
<!-- Node8&#45;&gt;Node7 -->
<g id="edge7_Node000007_Node000008" class="edge">
<title>Node8&#45;&gt;Node7</title>
<g id="a_edge7_Node000007_Node000008"><a xlink:title=" ">
<path fill="none" stroke="#9a32cd" stroke-dasharray="5,2" d="M178.38,-254.75C178.38,-239.53 178.38,-219.46 178.38,-208.02"/>
<polygon fill="#9a32cd" stroke="#9a32cd" points="174.88,-254.58 178.38,-264.58 181.88,-254.58 174.88,-254.58"/>
</a>
</g>
<text text-anchor="start" x="181.38" y="-236" font-family="Helvetica,sans-Serif" font-size="10.00" fill="grey">elements</text>
</g>
</g>
</svg>
