<?xml version="1.0" encoding="UTF-8" standalone="no"?>
<!DOCTYPE svg PUBLIC "-//W3C//DTD SVG 1.1//EN"
 "http://www.w3.org/Graphics/SVG/1.1/DTD/svg11.dtd">
<!-- Generated by graphviz version 11.0.0 (20240428.1522)
 -->
<!-- Title: mimicpp::MatchReport Pages: 1 -->
<svg width="744pt" height="154pt"
 viewBox="0.00 0.00 744.05 153.88" xmlns="http://www.w3.org/2000/svg" xmlns:xlink="http://www.w3.org/1999/xlink">
<g id="graph0" class="graph" transform="scale(1 1) rotate(0) translate(4 149.88)">
<title>mimicpp::MatchReport</title>
<!-- Node1 -->
<g id="Node000001" class="node">
<title>Node1</title>
<g id="a_Node000001"><a xlink:title="Contains the detailed information for match outcomes.">
<polygon fill="#999999" stroke="#666666" points="736.05,-91.25 623.3,-91.25 623.3,-72 736.05,-72 736.05,-91.25"/>
<text text-anchor="middle" x="679.67" y="-77.75" font-family="Helvetica,sans-Serif" font-size="10.00">mimicpp::MatchReport</text>
</a>
</g>
</g>
<!-- Node2 -->
<g id="Node000002" class="node">
<title>Node2</title>
<g id="a_Node000002"><a xlink:href="../../d5/d36/classmimicpp_1_1_match_report_1_1_finalize.html" target="_top" xlink:title="Information about the used finalizer.">
<polygon fill="white" stroke="#666666" points="488.67,-145.88 375.92,-145.88 375.92,-115.38 488.67,-115.38 488.67,-145.88"/>
<text text-anchor="start" x="383.92" y="-132.38" font-family="Helvetica,sans-Serif" font-size="10.00">mimicpp::MatchReport</text>
<text text-anchor="middle" x="432.3" y="-121.12" font-family="Helvetica,sans-Serif" font-size="10.00">::Finalize</text>
</a>
</g>
</g>
<!-- Node2&#45;&gt;Node1 -->
<g id="edge1_Node000001_Node000002" class="edge">
<title>Node2&#45;&gt;Node1</title>
<g id="a_edge1_Node000001_Node000002"><a xlink:title=" ">
<path fill="none" stroke="#9a32cd" stroke-dasharray="5,2" d="M500.06,-117.53C531.93,-111.26 570.6,-103.6 605.3,-96.62 613.2,-95.04 621.58,-93.34 629.74,-91.67"/>
<polygon fill="#9a32cd" stroke="#9a32cd" points="499.71,-114.03 490.58,-119.4 501.06,-120.9 499.71,-114.03"/>
</a>
</g>
<text text-anchor="middle" x="562.55" y="-114.38" font-family="Helvetica,sans-Serif" font-size="10.00" fill="grey"> finalizeReport</text>
</g>
<!-- Node3 -->
<g id="Node000003" class="node">
<title>Node3</title>
<g id="a_Node000003"><a xlink:href="../../d5/db1/classmimicpp_1_1_match_report_1_1_times.html" target="_top" xlink:title="Information about the current times state.">
<polygon fill="white" stroke="#666666" points="488.67,-96.88 375.92,-96.88 375.92,-66.38 488.67,-66.38 488.67,-96.88"/>
<text text-anchor="start" x="383.92" y="-83.38" font-family="Helvetica,sans-Serif" font-size="10.00">mimicpp::MatchReport</text>
<text text-anchor="middle" x="432.3" y="-72.12" font-family="Helvetica,sans-Serif" font-size="10.00">::Times</text>
</a>
</g>
</g>
<!-- Node3&#45;&gt;Node1 -->
<g id="edge2_Node000001_Node000003" class="edge">
<title>Node3&#45;&gt;Node1</title>
<g id="a_edge2_Node000001_Node000003"><a xlink:title=" ">
<path fill="none" stroke="#9a32cd" stroke-dasharray="5,2" d="M500.12,-81.62C538.72,-81.62 586.71,-81.62 623.22,-81.62"/>
<polygon fill="#9a32cd" stroke="#9a32cd" points="500.49,-78.13 490.49,-81.63 500.49,-85.13 500.49,-78.13"/>
</a>
</g>
<text text-anchor="middle" x="562.55" y="-83.38" font-family="Helvetica,sans-Serif" font-size="10.00" fill="grey"> timesReport</text>
</g>
<!-- Node4 -->
<g id="Node000004" class="node">
<title>Node4</title>
<g id="a_Node000004"><a xlink:title=" ">
<polygon fill="white" stroke="#666666" points="501.8,-47.88 362.8,-47.88 362.8,-17.38 501.8,-17.38 501.8,-47.88"/>
<text text-anchor="start" x="370.8" y="-34.38" font-family="Helvetica,sans-Serif" font-size="10.00">std::vector&lt; mimicpp</text>
<text text-anchor="middle" x="432.3" y="-23.12" font-family="Helvetica,sans-Serif" font-size="10.00">::MatchReport::Expectation &gt;</text>
</a>
</g>
</g>
<!-- Node4&#45;&gt;Node1 -->
<g id="edge3_Node000001_Node000004" class="edge">
<title>Node4&#45;&gt;Node1</title>
<g id="a_edge3_Node000001_Node000004"><a xlink:title=" ">
<path fill="none" stroke="#9a32cd" stroke-dasharray="5,2" d="M512.9,-48.05C541.99,-53.74 575.15,-60.28 605.3,-66.38 613.46,-68.02 622.13,-69.8 630.54,-71.54"/>
<polygon fill="#9a32cd" stroke="#9a32cd" points="513.94,-44.69 503.45,-46.21 512.6,-51.56 513.94,-44.69"/>
</a>
</g>
<text text-anchor="middle" x="562.55" y="-67.38" font-family="Helvetica,sans-Serif" font-size="10.00" fill="grey"> expectationReports</text>
</g>
<!-- Node5 -->
<g id="Node000005" class="node">
<title>Node5</title>
<g id="a_Node000005"><a xlink:href="../../da/d15/classmimicpp_1_1_match_report_1_1_expectation.html" target="_top" xlink:title="Information a used expectation policy.">
<polygon fill="white" stroke="#666666" points="219.55,-70.88 106.8,-70.88 106.8,-40.38 219.55,-40.38 219.55,-70.88"/>
<text text-anchor="start" x="114.8" y="-57.38" font-family="Helvetica,sans-Serif" font-size="10.00">mimicpp::MatchReport</text>
<text text-anchor="middle" x="163.17" y="-46.12" font-family="Helvetica,sans-Serif" font-size="10.00">::Expectation</text>
</a>
</g>
</g>
<!-- Node5&#45;&gt;Node4 -->
<g id="edge4_Node000004_Node000005" class="edge">
<title>Node5&#45;&gt;Node4</title>
<g id="a_edge4_Node000004_Node000005"><a xlink:title=" ">
<path fill="none" stroke="#9a32cd" stroke-dasharray="5,2" d="M231.11,-49.86C271.17,-46.41 321.99,-42.04 362.4,-38.56"/>
<polygon fill="#9a32cd" stroke="#9a32cd" points="231.02,-46.36 221.36,-50.7 231.62,-53.33 231.02,-46.36"/>
</a>
</g>
<text text-anchor="middle" x="291.17" y="-50.38" font-family="Helvetica,sans-Serif" font-size="10.00" fill="grey"> elements</text>
</g>
<!-- Node6 -->
<g id="Node000006" class="node">
<title>Node6</title>
<g id="a_Node000006"><a xlink:title=" ">
<polygon fill="white" stroke="#666666" points="204.92,-19.25 121.42,-19.25 121.42,0 204.92,0 204.92,-19.25"/>
<text text-anchor="middle" x="163.17" y="-5.75" font-family="Helvetica,sans-Serif" font-size="10.00">std::vector&lt; T &gt;</text>
</a>
</g>
</g>
<!-- Node6&#45;&gt;Node4 -->
<g id="edge5_Node000004_Node000006" class="edge">
<title>Node6&#45;&gt;Node4</title>
<g id="a_edge5_Node000004_Node000006"><a xlink:title=" ">
<path fill="none" stroke="orange" stroke-dasharray="5,2" d="M216.48,-8.37C252.64,-8.13 301.79,-9.04 344.8,-14.12 350.9,-14.85 357.21,-15.79 363.5,-16.88"/>
<polygon fill="orange" stroke="orange" points="216.7,-4.87 206.73,-8.47 216.77,-11.87 216.7,-4.87"/>
</a>
</g>
<text text-anchor="start" x="237.55" y="-26.62" font-family="Helvetica,sans-Serif" font-size="10.00" fill="grey"> &lt; mimicpp::MatchReport</text>
<text text-anchor="middle" x="291.17" y="-15.38" font-family="Helvetica,sans-Serif" font-size="10.00" fill="grey">::Expectation &gt;</text>
</g>
<!-- Node7 -->
<g id="Node000007" class="node">
<title>Node7</title>
<g id="a_Node000007"><a xlink:title=" ">
<polygon fill="white" stroke="#666666" points="28.8,-19.25 0,-19.25 0,0 28.8,0 28.8,-19.25"/>
<text text-anchor="middle" x="14.4" y="-5.75" font-family="Helvetica,sans-Serif" font-size="10.00">T</text>
</a>
</g>
</g>
<!-- Node7&#45;&gt;Node6 -->
<g id="edge6_Node000006_Node000007" class="edge">
<title>Node7&#45;&gt;Node6</title>
<g id="a_edge6_Node000006_Node000007"><a xlink:title=" ">
<path fill="none" stroke="#9a32cd" stroke-dasharray="5,2" d="M40.6,-9.62C62.72,-9.62 95.3,-9.62 121.16,-9.62"/>
<polygon fill="#9a32cd" stroke="#9a32cd" points="40.72,-6.13 30.72,-9.63 40.72,-13.13 40.72,-6.13"/>
</a>
</g>
<text text-anchor="middle" x="67.8" y="-11.38" font-family="Helvetica,sans-Serif" font-size="10.00" fill="grey"> elements</text>
</g>
</g>
</svg>
