<?xml version="1.0" encoding="UTF-8" standalone="no"?>
<!DOCTYPE svg PUBLIC "-//W3C//DTD SVG 1.1//EN"
 "http://www.w3.org/Graphics/SVG/1.1/DTD/svg11.dtd">
<!-- Generated by graphviz version 12.2.1 (20241206.2353)
 -->
<!-- Title: mimicpp::MatchReport Pages: 1 -->
<!--zoomable 142 -->

<svg id="main" version="1.1" xmlns="http://www.w3.org/2000/svg" xmlns:xlink="http://www.w3.org/1999/xlink" xml:space="preserve" onload="init(evt)">

<style type="text/css"><![CDATA[
.node, .edge {opacity: 0.7;}
.node.selected, .edge.selected {opacity: 1;}
.edge:hover path { stroke: red; }
.edge:hover polygon { stroke: red; fill: red; }
]]></style>

<defs>
  <circle id="rim" cx="0" cy="0" r="7"/>
  <circle id="rim2" cx="0" cy="0" r="3.5"/>
  <g id="zoomPlus">
    <use xlink:href="#rim" fill="#404040"><set attributeName="fill" to="#808080" begin="zoomplus.mouseover" end="zoomplus.mouseout"/></use>
    <path d="M-4,0h8M0,-4v8" fill="none" stroke="white" stroke-width="1.5" pointer-events="none"/>
  </g>
  <g id="zoomMin">
    <use xlink:href="#rim" fill="#404040"><set attributeName="fill" to="#808080" begin="zoomminus.mouseover" end="zoomminus.mouseout"/></use>
    <path d="M-4,0h8" fill="none" stroke="white" stroke-width="1.5" pointer-events="none"/>
  </g>
  <g id="arrowUp" transform="translate(30 24)">
    <use xlink:href="#rim"/>
    <path pointer-events="none" fill="none" stroke="white" stroke-width="1.5" d="M0,-3.0v7 M-2.5,-0.5L0,-3.0L2.5,-0.5"/>
  </g>
  <g id="arrowRight" transform="rotate(90) translate(36 -43)">
    <use xlink:href="#rim"/>
    <path pointer-events="none" fill="none" stroke="white" stroke-width="1.5" d="M0,-3.0v7 M-2.5,-0.5L0,-3.0L2.5,-0.5"/>
  </g>
  <g id="arrowDown" transform="rotate(180) translate(-30 -48)">
    <use xlink:href="#rim"/>
    <path pointer-events="none" fill="none" stroke="white" stroke-width="1.5" d="M0,-3.0v7 M-2.5,-0.5L0,-3.0L2.5,-0.5"/>
  </g>
  <g id="arrowLeft" transform="rotate(270) translate(-36 17)">
    <use xlink:href="#rim"/>
    <path pointer-events="none" fill="none" stroke="white" stroke-width="1.5" d="M0,-3.0v7 M-2.5,-0.5L0,-3.0L2.5,-0.5"/>
  </g>
  <g id="resetDef">
    <use xlink:href="#rim2" fill="#404040"><set attributeName="fill" to="#808080" begin="reset.mouseover" end="reset.mouseout"/></use>
  </g>
</defs>
<script type="application/ecmascript">
var viewWidth = 761;
var viewHeight = 142;
var sectionId = 'dynsection-0';
</script>
<script type="application/ecmascript" xlink:href="../../svg.min.js"/>
<svg id="graph" class="graph">
<g id="viewport">
<title>mimicpp::MatchReport</title>
<!-- Node1 -->
<g id="Node000001" class="node">
<title>Node1</title>
<g id="a_Node000001"><a xlink:title="Contains the detailed information for match outcomes.">
<polygon fill="#999999" stroke="#666666" points="752.55,-91.25 639.8,-91.25 639.8,-72 752.55,-72 752.55,-91.25"/>
<text text-anchor="middle" x="696.17" y="-77.75" font-family="Helvetica,sans-Serif" font-size="10.00">mimicpp::MatchReport</text>
</a>
</g>
</g>
<!-- Node2 -->
<g id="Node000002" class="node">
<title>Node2</title>
<g id="a_Node000002"><a xlink:title=" ">
<polygon fill="white" stroke="#666666" points="518.3,-134.25 362.8,-134.25 362.8,-115 518.3,-115 518.3,-134.25"/>
<text text-anchor="middle" x="440.55" y="-120.75" font-family="Helvetica,sans-Serif" font-size="10.00">mimicpp::detail::expectation_info</text>
</a>
</g>
</g>
<!-- Node2&#45;&gt;Node1 -->
<g id="edge1_Node000001_Node000002" class="edge">
<title>Node2&#45;&gt;Node1</title>
<g id="a_edge1_Node000001_Node000002"><a xlink:title=" ">
<path fill="none" stroke="#9a32cd" stroke-dasharray="5,2" d="M522.66,-112.86C553.72,-108.14 589.46,-102.44 621.8,-96.62 630.12,-95.13 638.94,-93.43 647.48,-91.72"/>
<polygon fill="#9a32cd" stroke="#9a32cd" points="522.3,-109.38 512.94,-114.33 523.35,-116.3 522.3,-109.38"/>
</a>
</g>
<text text-anchor="middle" x="579.05" y="-112.26" font-family="Helvetica,sans-Serif" font-size="10.00" fill="grey"> expectationInfo</text>
</g>
<!-- Node3 -->
<g id="Node000003" class="node">
<title>Node3</title>
<g id="a_Node000003"><a xlink:href="../../d5/d36/classmimicpp_1_1_match_report_1_1_finalize.html" target="_top" xlink:title="Information about the used finalizer.">
<polygon fill="white" stroke="#666666" points="496.92,-96.88 384.17,-96.88 384.17,-66.38 496.92,-66.38 496.92,-96.88"/>
<text text-anchor="start" x="392.17" y="-83.38" font-family="Helvetica,sans-Serif" font-size="10.00">mimicpp::MatchReport</text>
<text text-anchor="middle" x="440.55" y="-72.12" font-family="Helvetica,sans-Serif" font-size="10.00">::Finalize</text>
</a>
</g>
</g>
<!-- Node3&#45;&gt;Node1 -->
<g id="edge2_Node000001_Node000003" class="edge">
<title>Node3&#45;&gt;Node1</title>
<g id="a_edge2_Node000001_Node000003"><a xlink:title=" ">
<path fill="none" stroke="#9a32cd" stroke-dasharray="5,2" d="M508.7,-81.62C549.55,-81.62 601.1,-81.62 639.65,-81.62"/>
<polygon fill="#9a32cd" stroke="#9a32cd" points="508.72,-78.13 498.72,-81.63 508.72,-85.13 508.72,-78.13"/>
</a>
</g>
<text text-anchor="middle" x="579.05" y="-83.38" font-family="Helvetica,sans-Serif" font-size="10.00" fill="grey"> finalizeReport</text>
</g>
<!-- Node4 -->
<g id="Node000004" class="node">
<title>Node4</title>
<g id="a_Node000004"><a xlink:title=" ">
<polygon fill="white" stroke="#666666" points="510.05,-47.88 371.05,-47.88 371.05,-17.38 510.05,-17.38 510.05,-47.88"/>
<text text-anchor="start" x="379.05" y="-34.38" font-family="Helvetica,sans-Serif" font-size="10.00">std::vector&lt; mimicpp</text>
<text text-anchor="middle" x="440.55" y="-23.12" font-family="Helvetica,sans-Serif" font-size="10.00">::MatchReport::Expectation &gt;</text>
</a>
</g>
</g>
<!-- Node4&#45;&gt;Node1 -->
<g id="edge3_Node000001_Node000004" class="edge">
<title>Node4&#45;&gt;Node1</title>
<g id="a_edge3_Node000001_Node000004"><a xlink:title=" ">
<path fill="none" stroke="#9a32cd" stroke-dasharray="5,2" d="M521.79,-47.3C553.03,-53.1 589.11,-59.92 621.8,-66.38 630.1,-68.01 638.91,-69.8 647.44,-71.56"/>
<polygon fill="#9a32cd" stroke="#9a32cd" points="522.47,-43.86 512,-45.48 521.2,-50.75 522.47,-43.86"/>
</a>
</g>
<text text-anchor="middle" x="579.05" y="-68.12" font-family="Helvetica,sans-Serif" font-size="10.00" fill="grey"> expectationReports</text>
</g>
<!-- Node5 -->
<g id="Node000005" class="node">
<title>Node5</title>
<g id="a_Node000005"><a xlink:href="../../da/d15/classmimicpp_1_1_match_report_1_1_expectation.html" target="_top" xlink:title="Information a used expectation policy.">
<polygon fill="white" stroke="#666666" points="219.55,-70.88 106.8,-70.88 106.8,-40.38 219.55,-40.38 219.55,-70.88"/>
<text text-anchor="start" x="114.8" y="-57.38" font-family="Helvetica,sans-Serif" font-size="10.00">mimicpp::MatchReport</text>
<text text-anchor="middle" x="163.17" y="-46.12" font-family="Helvetica,sans-Serif" font-size="10.00">::Expectation</text>
</a>
</g>
</g>
<!-- Node5&#45;&gt;Node4 -->
<g id="edge4_Node000004_Node000005" class="edge">
<title>Node5&#45;&gt;Node4</title>
<g id="a_edge4_Node000004_Node000005"><a xlink:title=" ">
<path fill="none" stroke="#9a32cd" stroke-dasharray="5,2" d="M231.21,-50.03C273.53,-46.49 328.06,-41.94 370.72,-38.37"/>
<polygon fill="#9a32cd" stroke="#9a32cd" points="231.08,-46.52 221.41,-50.84 231.67,-53.5 231.08,-46.52"/>
</a>
</g>
<text text-anchor="middle" x="291.17" y="-51.21" font-family="Helvetica,sans-Serif" font-size="10.00" fill="grey"> elements</text>
</g>
<!-- Node6 -->
<g id="Node000006" class="node">
<title>Node6</title>
<g id="a_Node000006"><a xlink:title=" ">
<polygon fill="white" stroke="#666666" points="204.92,-19.25 121.42,-19.25 121.42,0 204.92,0 204.92,-19.25"/>
<text text-anchor="middle" x="163.17" y="-5.75" font-family="Helvetica,sans-Serif" font-size="10.00">std::vector&lt; T &gt;</text>
</a>
</g>
</g>
<!-- Node6&#45;&gt;Node4 -->
<g id="edge5_Node000004_Node000006" class="edge">
<title>Node6&#45;&gt;Node4</title>
<g id="a_edge5_Node000004_Node000006"><a xlink:title=" ">
<path fill="none" stroke="orange" stroke-dasharray="5,2" d="M216.45,-8.61C252.6,-8.48 301.75,-9.42 344.8,-14.12 353.21,-15.04 362,-16.32 370.67,-17.78"/>
<polygon fill="orange" stroke="orange" points="216.68,-5.11 206.71,-8.68 216.73,-12.11 216.68,-5.11"/>
</a>
</g>
<text text-anchor="start" x="237.55" y="-27.12" font-family="Helvetica,sans-Serif" font-size="10.00" fill="grey"> &lt; mimicpp::MatchReport</text>
<text text-anchor="middle" x="291.17" y="-15.88" font-family="Helvetica,sans-Serif" font-size="10.00" fill="grey">::Expectation &gt;</text>
</g>
<!-- Node7 -->
<g id="Node000007" class="node">
<title>Node7</title>
<g id="a_Node000007"><a xlink:title=" ">
<polygon fill="white" stroke="#666666" points="28.8,-19.25 0,-19.25 0,0 28.8,0 28.8,-19.25"/>
<text text-anchor="middle" x="14.4" y="-5.75" font-family="Helvetica,sans-Serif" font-size="10.00">T</text>
</a>
</g>
</g>
<!-- Node7&#45;&gt;Node6 -->
<g id="edge6_Node000006_Node000007" class="edge">
<title>Node7&#45;&gt;Node6</title>
<g id="a_edge6_Node000006_Node000007"><a xlink:title=" ">
<path fill="none" stroke="#9a32cd" stroke-dasharray="5,2" d="M40.6,-9.62C62.72,-9.62 95.3,-9.62 121.16,-9.62"/>
<polygon fill="#9a32cd" stroke="#9a32cd" points="40.72,-6.13 30.72,-9.63 40.72,-13.13 40.72,-6.13"/>
</a>
</g>
<text text-anchor="middle" x="67.8" y="-11.38" font-family="Helvetica,sans-Serif" font-size="10.00" fill="grey"> elements</text>
</g>
</g>
</svg>

<g id="navigator" transform="translate(0 0)" fill="#404254">
  <rect fill="#f2f5e9" fill-opacity="0.5" stroke="#606060" stroke-width=".5" x="0" y="0" width="60" height="60"/>
  <use id="zoomplus" xlink:href="#zoomPlus" x="17" y="9" onmousedown="handleZoom(evt,'in')"/>
  <use id="zoomminus" xlink:href="#zoomMin" x="42" y="9" onmousedown="handleZoom(evt,'out')"/>
  <use id="reset" xlink:href="#resetDef" x="30" y="36" onmousedown="handleReset()"/>
   <use id="arrowup" xlink:href="#arrowUp" x="0" y="0" onmousedown="handlePan(0,-1)"/>
  <use id="arrowright" xlink:href="#arrowRight" x="0" y="0" onmousedown="handlePan(1,0)"/>
  <use id="arrowdown" xlink:href="#arrowDown" x="0" y="0" onmousedown="handlePan(0,1)"/>
  <use id="arrowleft" xlink:href="#arrowLeft" x="0" y="0" onmousedown="handlePan(-1,0)"/>
</g>
<svg viewBox="0 0 15 15" width="100%" height="30px" preserveAspectRatio="xMaxYMin meet">
 <g id="arrow_out" transform="scale(0.3 0.3)">
  <a xlink:href="classmimicpp_1_1_match_report__coll__graph_org.svg" target="_base">
   <rect id="button" ry="5" rx="5" y="6" x="6" height="38" width="38"
        fill="#f2f5e9" fill-opacity="0.5" stroke="#606060" stroke-width="1.0"/>
   <path id="arrow"
     d="M 11.500037,31.436501 C 11.940474,20.09759 22.043105,11.32322 32.158766,21.979434 L 37.068811,17.246167 C 37.068811,17.246167 37.088388,32 37.088388,32 L 22.160133,31.978069 C 22.160133,31.978069 26.997745,27.140456 26.997745,27.140456 C 18.528582,18.264221 13.291696,25.230495 11.500037,31.436501 z"
     style="fill:#404040;"/>
  </a>
 </g>
</svg>

<style type='text/css'>
<![CDATA[
[data-mouse-over-selected='false'] { opacity: 0.7; }
[data-mouse-over-selected='true']  { opacity: 1.0; }
]]>
</style>
<script type="application/ecmascript"><![CDATA[
document.addEventListener('DOMContentLoaded', (event) => {
  highlightEdges();
  highlightAdjacentNodes();
});
]]></script>
</svg>
