<?xml version="1.0" encoding="UTF-8" standalone="no"?>
<!DOCTYPE svg PUBLIC "-//W3C//DTD SVG 1.1//EN"
 "http://www.w3.org/Graphics/SVG/1.1/DTD/svg11.dtd">
<!-- Generated by graphviz version 12.2.1 (20241206.2353)
 -->
<!-- Title: mimic++/reporting/StringifyReports.hpp Pages: 1 -->
<!--zoomable 592 -->

<svg id="main" version="1.1" xmlns="http://www.w3.org/2000/svg" xmlns:xlink="http://www.w3.org/1999/xlink" xml:space="preserve" onload="init(evt)">

<style type="text/css"><![CDATA[
.node, .edge {opacity: 0.7;}
.node.selected, .edge.selected {opacity: 1;}
.edge:hover path { stroke: red; }
.edge:hover polygon { stroke: red; fill: red; }
]]></style>

<defs>
  <circle id="rim" cx="0" cy="0" r="7"/>
  <circle id="rim2" cx="0" cy="0" r="3.5"/>
  <g id="zoomPlus">
    <use xlink:href="#rim" fill="#404040"><set attributeName="fill" to="#808080" begin="zoomplus.mouseover" end="zoomplus.mouseout"/></use>
    <path d="M-4,0h8M0,-4v8" fill="none" stroke="white" stroke-width="1.5" pointer-events="none"/>
  </g>
  <g id="zoomMin">
    <use xlink:href="#rim" fill="#404040"><set attributeName="fill" to="#808080" begin="zoomminus.mouseover" end="zoomminus.mouseout"/></use>
    <path d="M-4,0h8" fill="none" stroke="white" stroke-width="1.5" pointer-events="none"/>
  </g>
  <g id="arrowUp" transform="translate(30 24)">
    <use xlink:href="#rim"/>
    <path pointer-events="none" fill="none" stroke="white" stroke-width="1.5" d="M0,-3.0v7 M-2.5,-0.5L0,-3.0L2.5,-0.5"/>
  </g>
  <g id="arrowRight" transform="rotate(90) translate(36 -43)">
    <use xlink:href="#rim"/>
    <path pointer-events="none" fill="none" stroke="white" stroke-width="1.5" d="M0,-3.0v7 M-2.5,-0.5L0,-3.0L2.5,-0.5"/>
  </g>
  <g id="arrowDown" transform="rotate(180) translate(-30 -48)">
    <use xlink:href="#rim"/>
    <path pointer-events="none" fill="none" stroke="white" stroke-width="1.5" d="M0,-3.0v7 M-2.5,-0.5L0,-3.0L2.5,-0.5"/>
  </g>
  <g id="arrowLeft" transform="rotate(270) translate(-36 17)">
    <use xlink:href="#rim"/>
    <path pointer-events="none" fill="none" stroke="white" stroke-width="1.5" d="M0,-3.0v7 M-2.5,-0.5L0,-3.0L2.5,-0.5"/>
  </g>
  <g id="resetDef">
    <use xlink:href="#rim2" fill="#404040"><set attributeName="fill" to="#808080" begin="reset.mouseover" end="reset.mouseout"/></use>
  </g>
</defs>
<script type="application/ecmascript">
var viewWidth = 705;
var viewHeight = 592;
var sectionId = 'dynsection-1';
</script>
<script type="application/ecmascript" xlink:href="../../svg.min.js"/>
<svg id="graph" class="graph">
<g id="viewport">
<title>mimic++/reporting/StringifyReports.hpp</title>
<!-- Node1 -->
<g id="Node000001" class="node">
<title>Node1</title>
<g id="a_Node000001"><a xlink:title=" ">
<polygon fill="#999999" stroke="#666666" points="172.9,-584 39.9,-584 39.9,-553.5 172.9,-553.5 172.9,-584"/>
<text text-anchor="start" x="47.9" y="-570.5" font-family="Helvetica,sans-Serif" font-size="10.00">mimic++/reporting/Stringify</text>
<text text-anchor="middle" x="106.4" y="-559.25" font-family="Helvetica,sans-Serif" font-size="10.00">Reports.hpp</text>
</a>
</g>
</g>
<!-- Node2 -->
<g id="Node000002" class="node">
<title>Node2</title>
<g id="a_Node000002"><a xlink:href="../../d7/deb/_reporting_8hpp.html" target="_top" xlink:title=" ">
<polygon fill="white" stroke="#666666" points="167.65,-384.5 51.15,-384.5 51.15,-365.25 167.65,-365.25 167.65,-384.5"/>
<text text-anchor="middle" x="109.4" y="-371" font-family="Helvetica,sans-Serif" font-size="10.00">mimic++/Reporting.hpp</text>
</a>
</g>
</g>
<!-- Node1&#45;&gt;Node2 -->
<g id="edge1_Node000001_Node000002" class="edge">
<title>Node1&#45;&gt;Node2</title>
<g id="a_edge1_Node000001_Node000002"><a xlink:title=" ">
<path fill="none" stroke="#63b8ff" d="M74.96,-546.82C36.22,-518.34 -21.08,-465.76 8.4,-420.5 20.33,-402.19 41.66,-391.34 61.66,-384.93"/>
<polygon fill="#63b8ff" stroke="#63b8ff" points="72.47,-549.33 82.64,-552.3 76.54,-543.64 72.47,-549.33"/>
</a>
</g>
</g>
<!-- Node4 -->
<g id="Node000004" class="node">
<title>Node4</title>
<g id="a_Node000004"><a xlink:href="../../d1/dfd/_basic_reporter_8hpp.html" target="_top" xlink:title=" ">
<polygon fill="white" stroke="#666666" points="195.03,-445.38 17.78,-445.38 17.78,-426.12 195.03,-426.12 195.03,-445.38"/>
<text text-anchor="middle" x="106.4" y="-431.88" font-family="Helvetica,sans-Serif" font-size="10.00">mimic++/reporting/BasicReporter.hpp</text>
</a>
</g>
</g>
<!-- Node1&#45;&gt;Node4 -->
<g id="edge3_Node000001_Node000004" class="edge">
<title>Node1&#45;&gt;Node4</title>
<g id="a_edge3_Node000001_Node000004"><a xlink:title=" ">
<path fill="none" stroke="#63b8ff" d="M106.4,-541.73C106.4,-512.15 106.4,-465.43 106.4,-445.85"/>
<polygon fill="#63b8ff" stroke="#63b8ff" points="102.9,-541.72 106.4,-551.72 109.9,-541.72 102.9,-541.72"/>
</a>
</g>
</g>
<!-- Node5 -->
<g id="Node000005" class="node">
<title>Node5</title>
<g id="a_Node000005"><a xlink:href="../../d0/d70/_default_reporter_8hpp.html" target="_top" xlink:title=" ">
<polygon fill="white" stroke="#666666" points="287.65,-517.5 159.15,-517.5 159.15,-487 287.65,-487 287.65,-517.5"/>
<text text-anchor="start" x="167.15" y="-504" font-family="Helvetica,sans-Serif" font-size="10.00">mimic++/reporting/Default</text>
<text text-anchor="middle" x="223.4" y="-492.75" font-family="Helvetica,sans-Serif" font-size="10.00">Reporter.hpp</text>
</a>
</g>
</g>
<!-- Node1&#45;&gt;Node5 -->
<g id="edge5_Node000001_Node000005" class="edge">
<title>Node1&#45;&gt;Node5</title>
<g id="a_edge5_Node000001_Node000005"><a xlink:title=" ">
<path fill="none" stroke="#63b8ff" d="M142.85,-547.66C160.37,-538 180.97,-526.64 196.96,-517.83"/>
<polygon fill="#63b8ff" stroke="#63b8ff" points="141.34,-544.49 134.28,-552.38 144.72,-550.62 141.34,-544.49"/>
</a>
</g>
</g>
<!-- Node3 -->
<g id="Node000003" class="node">
<title>Node3</title>
<g id="a_Node000003"><a xlink:href="../../d0/db9/mimic_09_09_8hpp.html" target="_top" xlink:title=" ">
<polygon fill="white" stroke="#666666" points="504.15,-19.25 390.65,-19.25 390.65,0 504.15,0 504.15,-19.25"/>
<text text-anchor="middle" x="447.4" y="-5.75" font-family="Helvetica,sans-Serif" font-size="10.00">mimic++/mimic++.hpp</text>
</a>
</g>
</g>
<!-- Node2&#45;&gt;Node3 -->
<g id="edge2_Node000002_Node000003" class="edge">
<title>Node2&#45;&gt;Node3</title>
<g id="a_edge2_Node000002_Node000003"><a xlink:title=" ">
<path fill="none" stroke="#63b8ff" d="M109.4,-353.26C109.4,-328.41 109.4,-285.4 109.4,-248.5 109.4,-248.5 109.4,-248.5 109.4,-119.12 109.4,-79.87 135.66,-73.52 170.4,-55.25 207.64,-35.67 320.76,-22.19 390.39,-15.5"/>
<polygon fill="#63b8ff" stroke="#63b8ff" points="105.9,-353.24 109.4,-363.24 112.9,-353.24 105.9,-353.24"/>
</a>
</g>
</g>
<!-- Node4&#45;&gt;Node2 -->
<g id="edge4_Node000004_Node000002" class="edge">
<title>Node4&#45;&gt;Node2</title>
<g id="a_edge4_Node000004_Node000002"><a xlink:title=" ">
<path fill="none" stroke="#63b8ff" d="M107.44,-414.32C107.95,-404.29 108.54,-392.71 108.94,-384.9"/>
<polygon fill="#63b8ff" stroke="#63b8ff" points="103.95,-414.13 106.93,-424.3 110.94,-414.49 103.95,-414.13"/>
</a>
</g>
</g>
<!-- Node5&#45;&gt;Node2 -->
<g id="edge6_Node000005_Node000002" class="edge">
<title>Node5&#45;&gt;Node2</title>
<g id="a_edge6_Node000005_Node000002"><a xlink:title=" ">
<path fill="none" stroke="#63b8ff" d="M223,-475.54C221.48,-458.28 216.94,-435.97 204.4,-420.5 189.94,-402.67 166.7,-391.58 146.83,-384.91"/>
<polygon fill="#63b8ff" stroke="#63b8ff" points="219.49,-475.48 223.55,-485.27 226.48,-475.09 219.49,-475.48"/>
</a>
</g>
</g>
<!-- Node6 -->
<g id="Node000006" class="node">
<title>Node6</title>
<g id="a_Node000006"><a xlink:href="../../de/dd1/_global_reporter_8hpp.html" target="_top" xlink:title=" ">
<polygon fill="white" stroke="#666666" points="377.15,-451 251.65,-451 251.65,-420.5 377.15,-420.5 377.15,-451"/>
<text text-anchor="start" x="259.65" y="-437.5" font-family="Helvetica,sans-Serif" font-size="10.00">mimic++/reporting/Global</text>
<text text-anchor="middle" x="314.4" y="-426.25" font-family="Helvetica,sans-Serif" font-size="10.00">Reporter.hpp</text>
</a>
</g>
</g>
<!-- Node5&#45;&gt;Node6 -->
<g id="edge7_Node000005_Node000006" class="edge">
<title>Node5&#45;&gt;Node6</title>
<g id="a_edge7_Node000005_Node000006"><a xlink:title=" ">
<path fill="none" stroke="#63b8ff" d="M253.29,-480.07C266.57,-470.66 281.87,-459.81 293.83,-451.33"/>
<polygon fill="#63b8ff" stroke="#63b8ff" points="251.42,-477.1 245.29,-485.74 255.47,-482.81 251.42,-477.1"/>
</a>
</g>
</g>
<!-- Node6&#45;&gt;Node2 -->
<g id="edge8_Node000006_Node000002" class="edge">
<title>Node6&#45;&gt;Node2</title>
<g id="a_edge8_Node000006_Node000002"><a xlink:title=" ">
<path fill="none" stroke="#63b8ff" d="M252.59,-417C215.85,-406.45 170.79,-393.5 141.14,-384.99"/>
<polygon fill="#63b8ff" stroke="#63b8ff" points="251.17,-420.23 261.75,-419.63 253.1,-413.5 251.17,-420.23"/>
</a>
</g>
</g>
<!-- Node7 -->
<g id="Node000007" class="node">
<title>Node7</title>
<g id="a_Node000007"><a xlink:href="../../d8/de4/_sequence_8hpp.html" target="_top" xlink:title=" ">
<polygon fill="white" stroke="#666666" points="576.78,-384.5 458.03,-384.5 458.03,-365.25 576.78,-365.25 576.78,-384.5"/>
<text text-anchor="middle" x="517.4" y="-371" font-family="Helvetica,sans-Serif" font-size="10.00">mimic++/Sequence.hpp</text>
</a>
</g>
</g>
<!-- Node6&#45;&gt;Node7 -->
<g id="edge9_Node000006_Node000007" class="edge">
<title>Node6&#45;&gt;Node7</title>
<g id="a_edge9_Node000006_Node000007"><a xlink:title=" ">
<path fill="none" stroke="#63b8ff" d="M376.08,-416.86C412.38,-406.33 456.74,-393.47 485.97,-384.99"/>
<polygon fill="#63b8ff" stroke="#63b8ff" points="375.19,-413.48 366.56,-419.62 377.14,-420.2 375.19,-413.48"/>
</a>
</g>
</g>
<!-- Node9 -->
<g id="Node000009" class="node">
<title>Node9</title>
<g id="a_Node000009"><a xlink:href="../../db/d5d/_registry_8hpp.html" target="_top" xlink:title=" ">
<polygon fill="white" stroke="#666666" points="365.78,-329.25 259.03,-329.25 259.03,-298.75 365.78,-298.75 365.78,-329.25"/>
<text text-anchor="start" x="267.03" y="-315.75" font-family="Helvetica,sans-Serif" font-size="10.00">mimic++/expectation</text>
<text text-anchor="middle" x="312.4" y="-304.5" font-family="Helvetica,sans-Serif" font-size="10.00">/Registry.hpp</text>
</a>
</g>
</g>
<!-- Node6&#45;&gt;Node9 -->
<g id="edge34_Node000006_Node000009" class="edge">
<title>Node6&#45;&gt;Node9</title>
<g id="a_edge34_Node000006_Node000009"><a xlink:title=" ">
<path fill="none" stroke="#63b8ff" d="M313.97,-408.83C313.56,-384.52 312.97,-349.06 312.64,-329.43"/>
<polygon fill="#63b8ff" stroke="#63b8ff" points="310.46,-408.61 314.13,-418.55 317.46,-408.5 310.46,-408.61"/>
</a>
</g>
</g>
<!-- Node7&#45;&gt;Node3 -->
<g id="edge30_Node000007_Node000003" class="edge">
<title>Node7&#45;&gt;Node3</title>
<g id="a_edge30_Node000007_Node000003"><a xlink:title=" ">
<path fill="none" stroke="#63b8ff" d="M568.78,-361.64C621.98,-345.55 697.4,-311.61 697.4,-248.5 697.4,-248.5 697.4,-248.5 697.4,-119.12 697.4,-35.5 578.23,-15.63 504.44,-11.34"/>
<polygon fill="#63b8ff" stroke="#63b8ff" points="567.89,-358.25 559.25,-364.39 569.83,-364.98 567.89,-358.25"/>
</a>
</g>
</g>
<!-- Node8 -->
<g id="Node000008" class="node">
<title>Node8</title>
<g id="a_Node000008"><a xlink:href="../../db/d83/_scoped_sequence_8hpp.html" target="_top" xlink:title=" ">
<polygon fill="white" stroke="#666666" points="631.28,-129.75 479.53,-129.75 479.53,-110.5 631.28,-110.5 631.28,-129.75"/>
<text text-anchor="middle" x="555.4" y="-116.25" font-family="Helvetica,sans-Serif" font-size="10.00">mimic++/ScopedSequence.hpp</text>
</a>
</g>
</g>
<!-- Node7&#45;&gt;Node8 -->
<g id="edge10_Node000007_Node000008" class="edge">
<title>Node7&#45;&gt;Node8</title>
<g id="a_edge10_Node000007_Node000008"><a xlink:title=" ">
<path fill="none" stroke="#63b8ff" d="M519.87,-353.72C523.3,-326.23 529.81,-275.44 536.4,-232.25 542.22,-194.13 550.33,-148.87 553.77,-130.04"/>
<polygon fill="#63b8ff" stroke="#63b8ff" points="516.43,-353.06 518.68,-363.41 523.38,-353.91 516.43,-353.06"/>
</a>
</g>
</g>
<!-- Node7&#45;&gt;Node9 -->
<g id="edge12_Node000007_Node000009" class="edge">
<title>Node7&#45;&gt;Node9</title>
<g id="a_edge12_Node000007_Node000009"><a xlink:title=" ">
<path fill="none" stroke="#63b8ff" d="M474.93,-361.68C442.57,-352.38 397.89,-339.55 363.57,-329.69"/>
<polygon fill="#63b8ff" stroke="#63b8ff" points="473.79,-364.99 484.37,-364.39 475.72,-358.26 473.79,-364.99"/>
</a>
</g>
</g>
<!-- Node16 -->
<g id="Node000016" class="node">
<title>Node16</title>
<g id="a_Node000016"><a xlink:href="../../db/d70/_control_policies_8hpp.html" target="_top" xlink:title=" ">
<polygon fill="white" stroke="#666666" points="669.4,-262.75 545.4,-262.75 545.4,-232.25 669.4,-232.25 669.4,-262.75"/>
<text text-anchor="start" x="553.4" y="-249.25" font-family="Helvetica,sans-Serif" font-size="10.00">mimic++/policies/Control</text>
<text text-anchor="middle" x="607.4" y="-238" font-family="Helvetica,sans-Serif" font-size="10.00">Policies.hpp</text>
</a>
</g>
</g>
<!-- Node7&#45;&gt;Node16 -->
<g id="edge31_Node000007_Node000016" class="edge">
<title>Node7&#45;&gt;Node16</title>
<g id="a_edge31_Node000007_Node000016"><a xlink:title=" ">
<path fill="none" stroke="#63b8ff" d="M530.43,-355.73C548.4,-330.69 580.46,-286.03 596.96,-263.05"/>
<polygon fill="#63b8ff" stroke="#63b8ff" points="527.75,-353.46 524.76,-363.63 533.43,-357.55 527.75,-353.46"/>
</a>
</g>
</g>
<!-- Node8&#45;&gt;Node3 -->
<g id="edge11_Node000008_Node000003" class="edge">
<title>Node8&#45;&gt;Node3</title>
<g id="a_edge11_Node000008_Node000003"><a xlink:title=" ">
<path fill="none" stroke="#63b8ff" d="M577.8,-103.01C593.28,-89.87 609.14,-70.99 597.4,-55.25 576.12,-26.72 537.34,-15.7 504.55,-11.75"/>
<polygon fill="#63b8ff" stroke="#63b8ff" points="575.81,-100.12 570.13,-109.07 580.15,-105.62 575.81,-100.12"/>
</a>
</g>
</g>
<!-- Node9&#45;&gt;Node3 -->
<g id="edge29_Node000009_Node000003" class="edge">
<title>Node9&#45;&gt;Node3</title>
<g id="a_edge29_Node000009_Node000003"><a xlink:title=" ">
<path fill="none" stroke="#63b8ff" d="M255,-294.13C207.37,-274.45 147.4,-238.45 147.4,-182 147.4,-182 147.4,-182 147.4,-119.12 147.4,-78.3 177.17,-74.05 213.4,-55.25 269.2,-26.29 341.23,-15.99 390.55,-12.4"/>
<polygon fill="#63b8ff" stroke="#63b8ff" points="253.57,-297.33 264.15,-297.77 256.15,-290.83 253.57,-297.33"/>
</a>
</g>
</g>
<!-- Node10 -->
<g id="Node000010" class="node">
<title>Node10</title>
<g id="a_Node000010"><a xlink:href="../../d5/dc5/_mock_8hpp.html" target="_top" xlink:title=" ">
<polygon fill="white" stroke="#666666" points="423.03,-129.75 323.78,-129.75 323.78,-110.5 423.03,-110.5 423.03,-129.75"/>
<text text-anchor="middle" x="373.4" y="-116.25" font-family="Helvetica,sans-Serif" font-size="10.00">mimic++/Mock.hpp</text>
</a>
</g>
</g>
<!-- Node9&#45;&gt;Node10 -->
<g id="edge13_Node000009_Node000010" class="edge">
<title>Node9&#45;&gt;Node10</title>
<g id="a_edge13_Node000009_Node000010"><a xlink:title=" ">
<path fill="none" stroke="#63b8ff" d="M275.74,-291.83C265.68,-284.06 256.01,-274.29 250.4,-262.75 231.56,-223.97 224.61,-201.02 249.4,-165.75 266.11,-141.98 296.76,-130.81 323.4,-125.59"/>
<polygon fill="#63b8ff" stroke="#63b8ff" points="273.56,-294.58 283.74,-297.52 277.62,-288.87 273.56,-294.58"/>
</a>
</g>
</g>
<!-- Node13 -->
<g id="Node000013" class="node">
<title>Node13</title>
<g id="a_Node000013"><a xlink:href="../../d6/d15/_builder_8hpp.html" target="_top" xlink:title=" ">
<polygon fill="white" stroke="#666666" points="489.78,-196.25 383.03,-196.25 383.03,-165.75 489.78,-165.75 489.78,-196.25"/>
<text text-anchor="start" x="391.03" y="-182.75" font-family="Helvetica,sans-Serif" font-size="10.00">mimic++/expectation</text>
<text text-anchor="middle" x="436.4" y="-171.5" font-family="Helvetica,sans-Serif" font-size="10.00">/Builder.hpp</text>
</a>
</g>
</g>
<!-- Node9&#45;&gt;Node13 -->
<g id="edge19_Node000009_Node000013" class="edge">
<title>Node9&#45;&gt;Node13</title>
<g id="a_edge19_Node000009_Node000013"><a xlink:title=" ">
<path fill="none" stroke="#63b8ff" d="M341.98,-291.34C352.67,-282.93 364.53,-272.88 374.4,-262.75 395.12,-241.48 415.35,-213.35 426.8,-196.52"/>
<polygon fill="#63b8ff" stroke="#63b8ff" points="339.96,-288.48 334.17,-297.35 344.23,-294.03 339.96,-288.48"/>
</a>
</g>
</g>
<!-- Node14 -->
<g id="Node000014" class="node">
<title>Node14</title>
<g id="a_Node000014"><a xlink:href="../../d4/d1e/_owner_8hpp.html" target="_top" xlink:title=" ">
<polygon fill="white" stroke="#666666" points="365.78,-262.75 259.03,-262.75 259.03,-232.25 365.78,-232.25 365.78,-262.75"/>
<text text-anchor="start" x="267.03" y="-249.25" font-family="Helvetica,sans-Serif" font-size="10.00">mimic++/expectation</text>
<text text-anchor="middle" x="312.4" y="-238" font-family="Helvetica,sans-Serif" font-size="10.00">/Owner.hpp</text>
</a>
</g>
</g>
<!-- Node9&#45;&gt;Node14 -->
<g id="edge23_Node000009_Node000014" class="edge">
<title>Node9&#45;&gt;Node14</title>
<g id="a_edge23_Node000009_Node000014"><a xlink:title=" ">
<path fill="none" stroke="#63b8ff" d="M312.4,-287.06C312.4,-278.89 312.4,-270.16 312.4,-263.08"/>
<polygon fill="#63b8ff" stroke="#63b8ff" points="308.9,-286.85 312.4,-296.85 315.9,-286.85 308.9,-286.85"/>
</a>
</g>
</g>
<!-- Node10&#45;&gt;Node3 -->
<g id="edge18_Node000010_Node000003" class="edge">
<title>Node10&#45;&gt;Node3</title>
<g id="a_edge18_Node000010_Node000003"><a xlink:title=" ">
<path fill="none" stroke="#63b8ff" d="M434.12,-109.06C471.74,-101.45 514.99,-89.71 526.4,-74.5 544.18,-50.8 504.6,-30.69 475.29,-19.68"/>
<polygon fill="#63b8ff" stroke="#63b8ff" points="433.81,-105.56 424.66,-110.91 435.15,-112.43 433.81,-105.56"/>
</a>
</g>
</g>
<!-- Node11 -->
<g id="Node000011" class="node">
<title>Node11</title>
<g id="a_Node000011"><a xlink:href="../../d6/dc3/_facade_8hpp.html" target="_top" xlink:title=" ">
<polygon fill="white" stroke="#666666" points="359.15,-74.5 251.65,-74.5 251.65,-55.25 359.15,-55.25 359.15,-74.5"/>
<text text-anchor="middle" x="305.4" y="-61" font-family="Helvetica,sans-Serif" font-size="10.00">mimic++/Facade.hpp</text>
</a>
</g>
</g>
<!-- Node10&#45;&gt;Node11 -->
<g id="edge14_Node000010_Node000011" class="edge">
<title>Node10&#45;&gt;Node11</title>
<g id="a_edge14_Node000010_Node000011"><a xlink:title=" ">
<path fill="none" stroke="#63b8ff" d="M353.05,-103.19C341.18,-93.89 326.64,-82.51 316.77,-74.77"/>
<polygon fill="#63b8ff" stroke="#63b8ff" points="350.64,-105.75 360.68,-109.16 354.96,-100.24 350.64,-105.75"/>
</a>
</g>
</g>
<!-- Node12 -->
<g id="Node000012" class="node">
<title>Node12</title>
<g id="a_Node000012"><a xlink:href="../../d5/d92/_object_watcher_8hpp.html" target="_top" xlink:title=" ">
<polygon fill="white" stroke="#666666" points="517.28,-74.5 377.53,-74.5 377.53,-55.25 517.28,-55.25 517.28,-74.5"/>
<text text-anchor="middle" x="447.4" y="-61" font-family="Helvetica,sans-Serif" font-size="10.00">mimic++/ObjectWatcher.hpp</text>
</a>
</g>
</g>
<!-- Node10&#45;&gt;Node12 -->
<g id="edge16_Node000010_Node000012" class="edge">
<title>Node10&#45;&gt;Node12</title>
<g id="a_edge16_Node000010_Node000012"><a xlink:title=" ">
<path fill="none" stroke="#63b8ff" d="M395.16,-103.47C408.15,-94.12 424.18,-82.58 435.03,-74.77"/>
<polygon fill="#63b8ff" stroke="#63b8ff" points="393.26,-100.53 387.18,-109.21 397.34,-106.21 393.26,-100.53"/>
</a>
</g>
</g>
<!-- Node11&#45;&gt;Node3 -->
<g id="edge15_Node000011_Node000003" class="edge">
<title>Node11&#45;&gt;Node3</title>
<g id="a_edge15_Node000011_Node000003"><a xlink:title=" ">
<path fill="none" stroke="#63b8ff" d="M339.94,-50.92C365.72,-41.25 400.31,-28.29 423.2,-19.7"/>
<polygon fill="#63b8ff" stroke="#63b8ff" points="339.04,-47.52 330.91,-54.31 341.5,-54.08 339.04,-47.52"/>
</a>
</g>
</g>
<!-- Node12&#45;&gt;Node3 -->
<g id="edge17_Node000012_Node000003" class="edge">
<title>Node12&#45;&gt;Node3</title>
<g id="a_edge17_Node000012_Node000003"><a xlink:title=" ">
<path fill="none" stroke="#63b8ff" d="M447.4,-43.63C447.4,-35.34 447.4,-26.17 447.4,-19.61"/>
<polygon fill="#63b8ff" stroke="#63b8ff" points="443.9,-43.57 447.4,-53.57 450.9,-43.57 443.9,-43.57"/>
</a>
</g>
</g>
<!-- Node13&#45;&gt;Node3 -->
<g id="edge22_Node000013_Node000003" class="edge">
<title>Node13&#45;&gt;Node3</title>
<g id="a_edge22_Node000013_Node000003"><a xlink:title=" ">
<path fill="none" stroke="#63b8ff" d="M444.24,-154.61C449.72,-140.25 458.24,-122.77 470.4,-110.5 495.59,-85.09 523.59,-104.93 542.4,-74.5 558.96,-47.7 518.6,-29.6 485.45,-19.7"/>
<polygon fill="#63b8ff" stroke="#63b8ff" points="441,-153.28 441,-163.88 447.61,-155.59 441,-153.28"/>
</a>
</g>
</g>
<!-- Node13&#45;&gt;Node8 -->
<g id="edge21_Node000013_Node000008" class="edge">
<title>Node13&#45;&gt;Node8</title>
<g id="a_edge21_Node000013_Node000008"><a xlink:title=" ">
<path fill="none" stroke="#63b8ff" d="M476.21,-160.3C496.82,-150.11 520.99,-138.15 537.15,-130.15"/>
<polygon fill="#63b8ff" stroke="#63b8ff" points="474.89,-157.05 467.48,-164.62 478,-163.33 474.89,-157.05"/>
</a>
</g>
</g>
<!-- Node13&#45;&gt;Node10 -->
<g id="edge20_Node000013_Node000010" class="edge">
<title>Node13&#45;&gt;Node10</title>
<g id="a_edge20_Node000013_Node000010"><a xlink:title=" ">
<path fill="none" stroke="#63b8ff" d="M412.6,-157.76C402.36,-148.19 390.97,-137.54 383.11,-130.2"/>
<polygon fill="#63b8ff" stroke="#63b8ff" points="410.03,-160.14 419.72,-164.41 414.81,-155.03 410.03,-160.14"/>
</a>
</g>
</g>
<!-- Node14&#45;&gt;Node3 -->
<g id="edge28_Node000014_Node000003" class="edge">
<title>Node14&#45;&gt;Node3</title>
<g id="a_edge28_Node000014_Node000003"><a xlink:title=" ">
<path fill="none" stroke="#63b8ff" d="M276.95,-225.54C266.5,-217.65 256.09,-207.76 249.4,-196.25 217.65,-141.57 190.45,-104.26 230.4,-55.25 250.24,-30.92 333.02,-19.47 390.4,-14.37"/>
<polygon fill="#63b8ff" stroke="#63b8ff" points="274.63,-228.19 284.82,-231.08 278.66,-222.46 274.63,-228.19"/>
</a>
</g>
</g>
<!-- Node14&#45;&gt;Node13 -->
<g id="edge24_Node000014_Node000013" class="edge">
<title>Node14&#45;&gt;Node13</title>
<g id="a_edge24_Node000014_Node000013"><a xlink:title=" ">
<path fill="none" stroke="#63b8ff" d="M350.51,-226.68C369.19,-216.96 391.28,-205.47 408.38,-196.58"/>
<polygon fill="#63b8ff" stroke="#63b8ff" points="349.14,-223.45 341.88,-231.17 352.37,-229.66 349.14,-223.45"/>
</a>
</g>
</g>
<!-- Node15 -->
<g id="Node000015" class="node">
<title>Node15</title>
<g id="a_Node000015"><a xlink:href="../../db/dd0/_collector_8hpp.html" target="_top" xlink:title=" ">
<polygon fill="white" stroke="#666666" points="364.78,-196.25 258.03,-196.25 258.03,-165.75 364.78,-165.75 364.78,-196.25"/>
<text text-anchor="start" x="266.03" y="-182.75" font-family="Helvetica,sans-Serif" font-size="10.00">mimic++/expectation</text>
<text text-anchor="middle" x="311.4" y="-171.5" font-family="Helvetica,sans-Serif" font-size="10.00">/Collector.hpp</text>
</a>
</g>
</g>
<!-- Node14&#45;&gt;Node15 -->
<g id="edge25_Node000014_Node000015" class="edge">
<title>Node14&#45;&gt;Node15</title>
<g id="a_edge25_Node000014_Node000015"><a xlink:title=" ">
<path fill="none" stroke="#63b8ff" d="M312,-220.56C311.87,-212.39 311.74,-203.66 311.63,-196.58"/>
<polygon fill="#63b8ff" stroke="#63b8ff" points="308.5,-220.41 312.15,-230.35 315.5,-220.3 308.5,-220.41"/>
</a>
</g>
</g>
<!-- Node15&#45;&gt;Node3 -->
<g id="edge27_Node000015_Node000003" class="edge">
<title>Node15&#45;&gt;Node3</title>
<g id="a_edge27_Node000015_Node000003"><a xlink:title=" ">
<path fill="none" stroke="#63b8ff" d="M284.06,-158.07C254.85,-132 216.09,-87.91 242.4,-55.25 260.68,-32.56 336.19,-20.8 390.25,-15.17"/>
<polygon fill="#63b8ff" stroke="#63b8ff" points="281.73,-160.68 291.59,-164.56 286.3,-155.38 281.73,-160.68"/>
</a>
</g>
</g>
<!-- Node15&#45;&gt;Node8 -->
<g id="edge26_Node000015_Node000008" class="edge">
<title>Node15&#45;&gt;Node8</title>
<g id="a_edge26_Node000015_Node000008"><a xlink:title=" ">
<path fill="none" stroke="#63b8ff" d="M376.4,-164.32C421.48,-153.44 479.96,-139.33 517.59,-130.25"/>
<polygon fill="#63b8ff" stroke="#63b8ff" points="375.62,-160.9 366.72,-166.65 377.26,-167.71 375.62,-160.9"/>
</a>
</g>
</g>
<!-- Node16&#45;&gt;Node3 -->
<g id="edge33_Node000016_Node000003" class="edge">
<title>Node16&#45;&gt;Node3</title>
<g id="a_edge33_Node000016_Node000003"><a xlink:title=" ">
<path fill="none" stroke="#63b8ff" d="M618.71,-221.45C635.83,-179.3 661.54,-94.93 613.4,-55.25 582.78,-30 539.17,-18.94 504.33,-14.15"/>
<polygon fill="#63b8ff" stroke="#63b8ff" points="615.54,-219.94 614.87,-230.52 621.99,-222.67 615.54,-219.94"/>
</a>
</g>
</g>
<!-- Node16&#45;&gt;Node13 -->
<g id="edge32_Node000016_Node000013" class="edge">
<title>Node16&#45;&gt;Node13</title>
<g id="a_edge32_Node000016_Node000013"><a xlink:title=" ">
<path fill="none" stroke="#63b8ff" d="M558.08,-227.9C531.78,-217.98 499.88,-205.95 475.35,-196.69"/>
<polygon fill="#63b8ff" stroke="#63b8ff" points="556.59,-231.08 567.18,-231.33 559.06,-224.53 556.59,-231.08"/>
</a>
</g>
</g>
</g>
</svg>

<g id="navigator" transform="translate(0 0)" fill="#404254">
  <rect fill="#f2f5e9" fill-opacity="0.5" stroke="#606060" stroke-width=".5" x="0" y="0" width="60" height="60"/>
  <use id="zoomplus" xlink:href="#zoomPlus" x="17" y="9" onmousedown="handleZoom(evt,'in')"/>
  <use id="zoomminus" xlink:href="#zoomMin" x="42" y="9" onmousedown="handleZoom(evt,'out')"/>
  <use id="reset" xlink:href="#resetDef" x="30" y="36" onmousedown="handleReset()"/>
   <use id="arrowup" xlink:href="#arrowUp" x="0" y="0" onmousedown="handlePan(0,-1)"/>
  <use id="arrowright" xlink:href="#arrowRight" x="0" y="0" onmousedown="handlePan(1,0)"/>
  <use id="arrowdown" xlink:href="#arrowDown" x="0" y="0" onmousedown="handlePan(0,1)"/>
  <use id="arrowleft" xlink:href="#arrowLeft" x="0" y="0" onmousedown="handlePan(-1,0)"/>
</g>
<svg viewBox="0 0 15 15" width="100%" height="30px" preserveAspectRatio="xMaxYMin meet">
 <g id="arrow_out" transform="scale(0.3 0.3)">
  <a xlink:href="_stringify_reports_8hpp__dep__incl_org.svg" target="_base">
   <rect id="button" ry="5" rx="5" y="6" x="6" height="38" width="38"
        fill="#f2f5e9" fill-opacity="0.5" stroke="#606060" stroke-width="1.0"/>
   <path id="arrow"
     d="M 11.500037,31.436501 C 11.940474,20.09759 22.043105,11.32322 32.158766,21.979434 L 37.068811,17.246167 C 37.068811,17.246167 37.088388,32 37.088388,32 L 22.160133,31.978069 C 22.160133,31.978069 26.997745,27.140456 26.997745,27.140456 C 18.528582,18.264221 13.291696,25.230495 11.500037,31.436501 z"
     style="fill:#404040;"/>
  </a>
 </g>
</svg>

<style type='text/css'>
<![CDATA[
[data-mouse-over-selected='false'] { opacity: 0.7; }
[data-mouse-over-selected='true']  { opacity: 1.0; }
]]>
</style>
<script type="application/ecmascript"><![CDATA[
document.addEventListener('DOMContentLoaded', (event) => {
  highlightEdges();
  highlightAdjacentNodes();
});
]]></script>
</svg>
