<?xml version="1.0" encoding="UTF-8" standalone="no"?>
<!DOCTYPE svg PUBLIC "-//W3C//DTD SVG 1.1//EN"
 "http://www.w3.org/Graphics/SVG/1.1/DTD/svg11.dtd">
<!-- Generated by graphviz version 12.2.1 (20241206.2353)
 -->
<!-- Title: mimic++/reporting/StringifyReports.hpp Pages: 1 -->
<svg width="706pt" height="592pt"
 viewBox="0.00 0.00 705.62 592.00" xmlns="http://www.w3.org/2000/svg" xmlns:xlink="http://www.w3.org/1999/xlink">
<g id="graph0" class="graph" transform="scale(1 1) rotate(0) translate(4 588)">
<title>mimic++/reporting/StringifyReports.hpp</title>
<!-- Node1 -->
<g id="Node000001" class="node">
<title>Node1</title>
<g id="a_Node000001"><a xlink:title=" ">
<polygon fill="#999999" stroke="#666666" points="272.12,-584 139.12,-584 139.12,-553.5 272.12,-553.5 272.12,-584"/>
<text text-anchor="start" x="147.12" y="-570.5" font-family="Helvetica,sans-Serif" font-size="10.00">mimic++/reporting/Stringify</text>
<text text-anchor="middle" x="205.62" y="-559.25" font-family="Helvetica,sans-Serif" font-size="10.00">Reports.hpp</text>
</a>
</g>
</g>
<!-- Node2 -->
<g id="Node000002" class="node">
<title>Node2</title>
<g id="a_Node000002"><a xlink:href="../../d7/deb/_reporting_8hpp.html" target="_top" xlink:title=" ">
<polygon fill="white" stroke="#666666" points="263.88,-384.5 147.38,-384.5 147.38,-365.25 263.88,-365.25 263.88,-384.5"/>
<text text-anchor="middle" x="205.62" y="-371" font-family="Helvetica,sans-Serif" font-size="10.00">mimic++/Reporting.hpp</text>
</a>
</g>
</g>
<!-- Node1&#45;&gt;Node2 -->
<g id="edge1_Node000001_Node000002" class="edge">
<title>Node1&#45;&gt;Node2</title>
<g id="a_edge1_Node000001_Node000002"><a xlink:title=" ">
<path fill="none" stroke="#63b8ff" d="M205.62,-541.67C205.62,-498.06 205.62,-412.39 205.62,-384.72"/>
<polygon fill="#63b8ff" stroke="#63b8ff" points="202.13,-541.5 205.63,-551.5 209.13,-541.5 202.13,-541.5"/>
</a>
</g>
</g>
<!-- Node4 -->
<g id="Node000004" class="node">
<title>Node4</title>
<g id="a_Node000004"><a xlink:href="../../d1/dfd/_basic_reporter_8hpp.html" target="_top" xlink:title=" ">
<polygon fill="white" stroke="#666666" points="177.25,-445.38 0,-445.38 0,-426.12 177.25,-426.12 177.25,-445.38"/>
<text text-anchor="middle" x="88.62" y="-431.88" font-family="Helvetica,sans-Serif" font-size="10.00">mimic++/reporting/BasicReporter.hpp</text>
</a>
</g>
</g>
<!-- Node1&#45;&gt;Node4 -->
<g id="edge3_Node000001_Node000004" class="edge">
<title>Node1&#45;&gt;Node4</title>
<g id="a_edge3_Node000001_Node000004"><a xlink:title=" ">
<path fill="none" stroke="#63b8ff" d="M185.16,-544.83C158.98,-515.52 114.86,-466.13 96.75,-445.85"/>
<polygon fill="#63b8ff" stroke="#63b8ff" points="182.38,-546.97 191.65,-552.1 187.6,-542.31 182.38,-546.97"/>
</a>
</g>
</g>
<!-- Node5 -->
<g id="Node000005" class="node">
<title>Node5</title>
<g id="a_Node000005"><a xlink:href="../../d0/d70/_default_reporter_8hpp.html" target="_top" xlink:title=" ">
<polygon fill="white" stroke="#666666" points="361.88,-517.5 233.38,-517.5 233.38,-487 361.88,-487 361.88,-517.5"/>
<text text-anchor="start" x="241.38" y="-504" font-family="Helvetica,sans-Serif" font-size="10.00">mimic++/reporting/Default</text>
<text text-anchor="middle" x="297.62" y="-492.75" font-family="Helvetica,sans-Serif" font-size="10.00">Reporter.hpp</text>
</a>
</g>
</g>
<!-- Node1&#45;&gt;Node5 -->
<g id="edge5_Node000001_Node000005" class="edge">
<title>Node1&#45;&gt;Node5</title>
<g id="a_edge5_Node000001_Node000005"><a xlink:title=" ">
<path fill="none" stroke="#63b8ff" d="M235.84,-546.57C249.26,-537.16 264.73,-526.31 276.83,-517.83"/>
<polygon fill="#63b8ff" stroke="#63b8ff" points="233.92,-543.64 227.74,-552.25 237.94,-549.37 233.92,-543.64"/>
</a>
</g>
</g>
<!-- Node3 -->
<g id="Node000003" class="node">
<title>Node3</title>
<g id="a_Node000003"><a xlink:href="../../d0/db9/mimic_09_09_8hpp.html" target="_top" xlink:title=" ">
<polygon fill="white" stroke="#666666" points="429.38,-19.25 315.88,-19.25 315.88,0 429.38,0 429.38,-19.25"/>
<text text-anchor="middle" x="372.62" y="-5.75" font-family="Helvetica,sans-Serif" font-size="10.00">mimic++/mimic++.hpp</text>
</a>
</g>
</g>
<!-- Node2&#45;&gt;Node3 -->
<g id="edge2_Node000002_Node000003" class="edge">
<title>Node2&#45;&gt;Node3</title>
<g id="a_edge2_Node000002_Node000003"><a xlink:title=" ">
<path fill="none" stroke="#63b8ff" d="M149.23,-361.93C93.22,-346.37 15.62,-313.15 15.62,-248.5 15.62,-248.5 15.62,-248.5 15.62,-119.12 15.62,-86.09 26.11,-73.53 53.62,-55.25 95.43,-27.47 235.44,-16.71 315.39,-12.76"/>
<polygon fill="#63b8ff" stroke="#63b8ff" points="148.09,-365.25 158.65,-364.43 149.88,-358.48 148.09,-365.25"/>
</a>
</g>
</g>
<!-- Node4&#45;&gt;Node2 -->
<g id="edge4_Node000004_Node000002" class="edge">
<title>Node4&#45;&gt;Node2</title>
<g id="a_edge4_Node000004_Node000002"><a xlink:title=" ">
<path fill="none" stroke="#63b8ff" d="M116.76,-420.59C138.84,-409.48 168.89,-394.36 187.77,-384.86"/>
<polygon fill="#63b8ff" stroke="#63b8ff" points="115.36,-417.38 108,-425 118.51,-423.63 115.36,-417.38"/>
</a>
</g>
</g>
<!-- Node5&#45;&gt;Node2 -->
<g id="edge6_Node000005_Node000002" class="edge">
<title>Node5&#45;&gt;Node2</title>
<g id="a_edge6_Node000005_Node000002"><a xlink:title=" ">
<path fill="none" stroke="#63b8ff" d="M280.37,-477.73C259.74,-449.63 226.26,-404 212.19,-384.82"/>
<polygon fill="#63b8ff" stroke="#63b8ff" points="277.44,-479.66 286.18,-485.65 283.08,-475.51 277.44,-479.66"/>
</a>
</g>
</g>
<!-- Node6 -->
<g id="Node000006" class="node">
<title>Node6</title>
<g id="a_Node000006"><a xlink:href="../../de/dd1/_global_reporter_8hpp.html" target="_top" xlink:title=" ">
<polygon fill="white" stroke="#666666" points="397.38,-451 271.88,-451 271.88,-420.5 397.38,-420.5 397.38,-451"/>
<text text-anchor="start" x="279.88" y="-437.5" font-family="Helvetica,sans-Serif" font-size="10.00">mimic++/reporting/Global</text>
<text text-anchor="middle" x="334.62" y="-426.25" font-family="Helvetica,sans-Serif" font-size="10.00">Reporter.hpp</text>
</a>
</g>
</g>
<!-- Node5&#45;&gt;Node6 -->
<g id="edge7_Node000005_Node000006" class="edge">
<title>Node5&#45;&gt;Node6</title>
<g id="a_edge7_Node000005_Node000006"><a xlink:title=" ">
<path fill="none" stroke="#63b8ff" d="M311.69,-476.73C316.61,-468.16 321.96,-458.82 326.26,-451.33"/>
<polygon fill="#63b8ff" stroke="#63b8ff" points="308.71,-474.89 306.77,-485.3 314.79,-478.37 308.71,-474.89"/>
</a>
</g>
</g>
<!-- Node6&#45;&gt;Node2 -->
<g id="edge8_Node000006_Node000002" class="edge">
<title>Node6&#45;&gt;Node2</title>
<g id="a_edge8_Node000006_Node000002"><a xlink:title=" ">
<path fill="none" stroke="#63b8ff" d="M292.08,-415.33C269.61,-405.08 243.09,-392.97 225.41,-384.9"/>
<polygon fill="#63b8ff" stroke="#63b8ff" points="290.48,-418.45 301.03,-419.42 293.38,-412.08 290.48,-418.45"/>
</a>
</g>
</g>
<!-- Node7 -->
<g id="Node000007" class="node">
<title>Node7</title>
<g id="a_Node000007"><a xlink:href="../../d8/de4/_sequence_8hpp.html" target="_top" xlink:title=" ">
<polygon fill="white" stroke="#666666" points="622,-384.5 503.25,-384.5 503.25,-365.25 622,-365.25 622,-384.5"/>
<text text-anchor="middle" x="562.62" y="-371" font-family="Helvetica,sans-Serif" font-size="10.00">mimic++/Sequence.hpp</text>
</a>
</g>
</g>
<!-- Node6&#45;&gt;Node7 -->
<g id="edge9_Node000006_Node000007" class="edge">
<title>Node6&#45;&gt;Node7</title>
<g id="a_edge9_Node000006_Node000007"><a xlink:title=" ">
<path fill="none" stroke="#63b8ff" d="M402.59,-417.2C443.59,-406.61 494.14,-393.56 527.32,-384.99"/>
<polygon fill="#63b8ff" stroke="#63b8ff" points="401.84,-413.78 393.04,-419.67 403.59,-420.56 401.84,-413.78"/>
</a>
</g>
</g>
<!-- Node9 -->
<g id="Node000009" class="node">
<title>Node9</title>
<g id="a_Node000009"><a xlink:href="../../db/d5d/_registry_8hpp.html" target="_top" xlink:title=" ">
<polygon fill="white" stroke="#666666" points="388,-329.25 281.25,-329.25 281.25,-298.75 388,-298.75 388,-329.25"/>
<text text-anchor="start" x="289.25" y="-315.75" font-family="Helvetica,sans-Serif" font-size="10.00">mimic++/expectation</text>
<text text-anchor="middle" x="334.62" y="-304.5" font-family="Helvetica,sans-Serif" font-size="10.00">/Registry.hpp</text>
</a>
</g>
</g>
<!-- Node6&#45;&gt;Node9 -->
<g id="edge31_Node000006_Node000009" class="edge">
<title>Node6&#45;&gt;Node9</title>
<g id="a_edge31_Node000006_Node000009"><a xlink:title=" ">
<path fill="none" stroke="#63b8ff" d="M334.62,-408.83C334.62,-384.52 334.62,-349.06 334.62,-329.43"/>
<polygon fill="#63b8ff" stroke="#63b8ff" points="331.13,-408.55 334.63,-418.55 338.13,-408.55 331.13,-408.55"/>
</a>
</g>
</g>
<!-- Node7&#45;&gt;Node3 -->
<g id="edge27_Node000007_Node000003" class="edge">
<title>Node7&#45;&gt;Node3</title>
<g id="a_edge27_Node000007_Node000003"><a xlink:title=" ">
<path fill="none" stroke="#63b8ff" d="M596.54,-360.08C636.53,-341.29 697.62,-303.58 697.62,-248.5 697.62,-248.5 697.62,-248.5 697.62,-119.12 697.62,-63.28 522.82,-30.99 429.61,-17.74"/>
<polygon fill="#63b8ff" stroke="#63b8ff" points="595.2,-356.84 587.52,-364.14 598.08,-363.23 595.2,-356.84"/>
</a>
</g>
</g>
<!-- Node8 -->
<g id="Node000008" class="node">
<title>Node8</title>
<g id="a_Node000008"><a xlink:href="../../db/d83/_scoped_sequence_8hpp.html" target="_top" xlink:title=" ">
<polygon fill="white" stroke="#666666" points="631.5,-129.75 479.75,-129.75 479.75,-110.5 631.5,-110.5 631.5,-129.75"/>
<text text-anchor="middle" x="555.62" y="-116.25" font-family="Helvetica,sans-Serif" font-size="10.00">mimic++/ScopedSequence.hpp</text>
</a>
</g>
</g>
<!-- Node7&#45;&gt;Node8 -->
<g id="edge10_Node000007_Node000008" class="edge">
<title>Node7&#45;&gt;Node8</title>
<g id="a_edge10_Node000007_Node000008"><a xlink:title=" ">
<path fill="none" stroke="#63b8ff" d="M580.61,-357.34C606.28,-331.64 648.74,-280.08 633.62,-232.25 619.92,-188.87 582.55,-147.74 564.98,-130.12"/>
<polygon fill="#63b8ff" stroke="#63b8ff" points="578.51,-354.51 573.75,-363.97 583.37,-359.54 578.51,-354.51"/>
</a>
</g>
</g>
<!-- Node7&#45;&gt;Node9 -->
<g id="edge12_Node000007_Node000009" class="edge">
<title>Node7&#45;&gt;Node9</title>
<g id="a_edge12_Node000007_Node000009"><a xlink:title=" ">
<path fill="none" stroke="#63b8ff" d="M516.52,-361.97C479.49,-352.41 427.41,-338.96 388.47,-328.9"/>
<polygon fill="#63b8ff" stroke="#63b8ff" points="515.48,-365.31 526.03,-364.43 517.23,-358.54 515.48,-365.31"/>
</a>
</g>
</g>
<!-- Node15 -->
<g id="Node000015" class="node">
<title>Node15</title>
<g id="a_Node000015"><a xlink:href="../../db/d70/_control_policies_8hpp.html" target="_top" xlink:title=" ">
<polygon fill="white" stroke="#666666" points="624.62,-262.75 500.62,-262.75 500.62,-232.25 624.62,-232.25 624.62,-262.75"/>
<text text-anchor="start" x="508.62" y="-249.25" font-family="Helvetica,sans-Serif" font-size="10.00">mimic++/policies/Control</text>
<text text-anchor="middle" x="562.62" y="-238" font-family="Helvetica,sans-Serif" font-size="10.00">Policies.hpp</text>
</a>
</g>
</g>
<!-- Node7&#45;&gt;Node15 -->
<g id="edge28_Node000007_Node000015" class="edge">
<title>Node7&#45;&gt;Node15</title>
<g id="a_edge28_Node000007_Node000015"><a xlink:title=" ">
<path fill="none" stroke="#63b8ff" d="M562.62,-353.69C562.62,-328.32 562.62,-285.42 562.62,-263.05"/>
<polygon fill="#63b8ff" stroke="#63b8ff" points="559.13,-353.34 562.63,-363.34 566.13,-353.34 559.13,-353.34"/>
</a>
</g>
</g>
<!-- Node8&#45;&gt;Node3 -->
<g id="edge11_Node000008_Node000003" class="edge">
<title>Node8&#45;&gt;Node3</title>
<g id="a_edge11_Node000008_Node000003"><a xlink:title=" ">
<path fill="none" stroke="#63b8ff" d="M535.51,-103.35C517.7,-89.75 490.7,-70.02 465.62,-55.25 442.02,-41.34 413.41,-28.12 394.21,-19.73"/>
<polygon fill="#63b8ff" stroke="#63b8ff" points="533.14,-105.94 543.2,-109.28 537.42,-100.4 533.14,-105.94"/>
</a>
</g>
</g>
<!-- Node9&#45;&gt;Node3 -->
<g id="edge26_Node000009_Node000003" class="edge">
<title>Node9&#45;&gt;Node3</title>
<g id="a_edge26_Node000009_Node000003"><a xlink:title=" ">
<path fill="none" stroke="#63b8ff" d="M269.41,-310.37C186.4,-303.12 53.62,-276.72 53.62,-182 53.62,-182 53.62,-182 53.62,-119.12 53.62,-89.51 50.25,-74.66 72.62,-55.25 107.97,-24.58 238.86,-14.99 315.58,-11.99"/>
<polygon fill="#63b8ff" stroke="#63b8ff" points="269.02,-313.85 279.27,-311.15 269.58,-306.87 269.02,-313.85"/>
</a>
</g>
</g>
<!-- Node10 -->
<g id="Node000010" class="node">
<title>Node10</title>
<g id="a_Node000010"><a xlink:href="../../d5/dc5/_mock_8hpp.html" target="_top" xlink:title=" ">
<polygon fill="white" stroke="#666666" points="339.25,-129.75 240,-129.75 240,-110.5 339.25,-110.5 339.25,-129.75"/>
<text text-anchor="middle" x="289.62" y="-116.25" font-family="Helvetica,sans-Serif" font-size="10.00">mimic++/Mock.hpp</text>
</a>
</g>
</g>
<!-- Node9&#45;&gt;Node10 -->
<g id="edge13_Node000009_Node000010" class="edge">
<title>Node9&#45;&gt;Node10</title>
<g id="a_edge13_Node000009_Node000010"><a xlink:title=" ">
<path fill="none" stroke="#63b8ff" d="M328.57,-287.2C318.37,-243.67 298.2,-157.7 291.7,-129.97"/>
<polygon fill="#63b8ff" stroke="#63b8ff" points="325.13,-287.85 330.82,-296.79 331.95,-286.25 325.13,-287.85"/>
</a>
</g>
</g>
<!-- Node13 -->
<g id="Node000013" class="node">
<title>Node13</title>
<g id="a_Node000013"><a xlink:href="../../d6/d15/_builder_8hpp.html" target="_top" xlink:title=" ">
<polygon fill="white" stroke="#666666" points="424,-196.25 317.25,-196.25 317.25,-165.75 424,-165.75 424,-196.25"/>
<text text-anchor="start" x="325.25" y="-182.75" font-family="Helvetica,sans-Serif" font-size="10.00">mimic++/expectation</text>
<text text-anchor="middle" x="370.62" y="-171.5" font-family="Helvetica,sans-Serif" font-size="10.00">/Builder.hpp</text>
</a>
</g>
</g>
<!-- Node9&#45;&gt;Node13 -->
<g id="edge19_Node000009_Node000013" class="edge">
<title>Node9&#45;&gt;Node13</title>
<g id="a_edge19_Node000009_Node000013"><a xlink:title=" ">
<path fill="none" stroke="#63b8ff" d="M340.04,-287.19C343.55,-271.26 348.42,-250.46 353.62,-232.25 357.12,-220.03 361.79,-206.38 365.35,-196.4"/>
<polygon fill="#63b8ff" stroke="#63b8ff" points="336.65,-286.31 337.96,-296.82 343.49,-287.79 336.65,-286.31"/>
</a>
</g>
</g>
<!-- Node14 -->
<g id="Node000014" class="node">
<title>Node14</title>
<g id="a_Node000014"><a xlink:href="../../d4/d1e/_owner_8hpp.html" target="_top" xlink:title=" ">
<polygon fill="white" stroke="#666666" points="469,-262.75 362.25,-262.75 362.25,-232.25 469,-232.25 469,-262.75"/>
<text text-anchor="start" x="370.25" y="-249.25" font-family="Helvetica,sans-Serif" font-size="10.00">mimic++/expectation</text>
<text text-anchor="middle" x="415.62" y="-238" font-family="Helvetica,sans-Serif" font-size="10.00">/Owner.hpp</text>
</a>
</g>
</g>
<!-- Node9&#45;&gt;Node14 -->
<g id="edge23_Node000009_Node000014" class="edge">
<title>Node9&#45;&gt;Node14</title>
<g id="a_edge23_Node000009_Node000014"><a xlink:title=" ">
<path fill="none" stroke="#63b8ff" d="M361.92,-291.27C373.57,-281.98 386.87,-271.4 397.32,-263.08"/>
<polygon fill="#63b8ff" stroke="#63b8ff" points="359.83,-288.45 354.19,-297.42 364.19,-293.93 359.83,-288.45"/>
</a>
</g>
</g>
<!-- Node10&#45;&gt;Node3 -->
<g id="edge18_Node000010_Node000003" class="edge">
<title>Node10&#45;&gt;Node3</title>
<g id="a_edge18_Node000010_Node000003"><a xlink:title=" ">
<path fill="none" stroke="#63b8ff" d="M275.67,-101.05C267.11,-87.6 259.41,-69.23 268.62,-55.25 280.68,-36.96 301.96,-26.14 322.15,-19.74"/>
<polygon fill="#63b8ff" stroke="#63b8ff" points="272.63,-102.81 281.24,-108.98 278.36,-98.78 272.63,-102.81"/>
</a>
</g>
</g>
<!-- Node11 -->
<g id="Node000011" class="node">
<title>Node11</title>
<g id="a_Node000011"><a xlink:href="../../d6/dc3/_facade_8hpp.html" target="_top" xlink:title=" ">
<polygon fill="white" stroke="#666666" points="385.38,-74.5 277.88,-74.5 277.88,-55.25 385.38,-55.25 385.38,-74.5"/>
<text text-anchor="middle" x="331.62" y="-61" font-family="Helvetica,sans-Serif" font-size="10.00">mimic++/Facade.hpp</text>
</a>
</g>
</g>
<!-- Node10&#45;&gt;Node11 -->
<g id="edge14_Node000010_Node000011" class="edge">
<title>Node10&#45;&gt;Node11</title>
<g id="a_edge14_Node000010_Node000011"><a xlink:title=" ">
<path fill="none" stroke="#63b8ff" d="M303.55,-101.47C310.58,-92.56 318.81,-82.12 324.54,-74.86"/>
<polygon fill="#63b8ff" stroke="#63b8ff" points="300.94,-99.12 297.5,-109.14 306.44,-103.46 300.94,-99.12"/>
</a>
</g>
</g>
<!-- Node12 -->
<g id="Node000012" class="node">
<title>Node12</title>
<g id="a_Node000012"><a xlink:href="../../d5/d92/_object_watcher_8hpp.html" target="_top" xlink:title=" ">
<polygon fill="white" stroke="#666666" points="221.5,-74.5 81.75,-74.5 81.75,-55.25 221.5,-55.25 221.5,-74.5"/>
<text text-anchor="middle" x="151.62" y="-61" font-family="Helvetica,sans-Serif" font-size="10.00">mimic++/ObjectWatcher.hpp</text>
</a>
</g>
</g>
<!-- Node10&#45;&gt;Node12 -->
<g id="edge16_Node000010_Node000012" class="edge">
<title>Node10&#45;&gt;Node12</title>
<g id="a_edge16_Node000010_Node000012"><a xlink:title=" ">
<path fill="none" stroke="#63b8ff" d="M255.72,-106.04C230.7,-96.39 197.29,-83.5 175.15,-74.95"/>
<polygon fill="#63b8ff" stroke="#63b8ff" points="254.21,-109.21 264.8,-109.55 256.73,-102.68 254.21,-109.21"/>
</a>
</g>
</g>
<!-- Node11&#45;&gt;Node3 -->
<g id="edge15_Node000011_Node000003" class="edge">
<title>Node11&#45;&gt;Node3</title>
<g id="a_edge15_Node000011_Node000003"><a xlink:title=" ">
<path fill="none" stroke="#63b8ff" d="M345.21,-46.22C352.08,-37.31 360.12,-26.87 365.71,-19.61"/>
<polygon fill="#63b8ff" stroke="#63b8ff" points="342.65,-43.82 339.32,-53.88 348.19,-48.09 342.65,-43.82"/>
</a>
</g>
</g>
<!-- Node12&#45;&gt;Node3 -->
<g id="edge17_Node000012_Node000003" class="edge">
<title>Node12&#45;&gt;Node3</title>
<g id="a_edge17_Node000012_Node000003"><a xlink:title=" ">
<path fill="none" stroke="#63b8ff" d="M200.35,-52.14C240.94,-42.36 297.91,-28.63 335.04,-19.68"/>
<polygon fill="#63b8ff" stroke="#63b8ff" points="199.74,-48.68 190.84,-54.43 201.38,-55.49 199.74,-48.68"/>
</a>
</g>
</g>
<!-- Node13&#45;&gt;Node3 -->
<g id="edge22_Node000013_Node000003" class="edge">
<title>Node13&#45;&gt;Node3</title>
<g id="a_edge22_Node000013_Node000003"><a xlink:title=" ">
<path fill="none" stroke="#63b8ff" d="M381.68,-154.82C391.32,-129.54 402.61,-89.52 394.62,-55.25 391.57,-42.13 384.07,-28.43 378.67,-19.73"/>
<polygon fill="#63b8ff" stroke="#63b8ff" points="378.5,-153.34 378,-163.92 384.99,-155.96 378.5,-153.34"/>
</a>
</g>
</g>
<!-- Node13&#45;&gt;Node8 -->
<g id="edge21_Node000013_Node000008" class="edge">
<title>Node13&#45;&gt;Node8</title>
<g id="a_edge21_Node000013_Node000008"><a xlink:title=" ">
<path fill="none" stroke="#63b8ff" d="M427.69,-161.84C460.61,-151.36 500.58,-138.64 526.98,-130.24"/>
<polygon fill="#63b8ff" stroke="#63b8ff" points="426.74,-158.47 418.27,-164.84 428.86,-165.14 426.74,-158.47"/>
</a>
</g>
</g>
<!-- Node13&#45;&gt;Node10 -->
<g id="edge20_Node000013_Node000010" class="edge">
<title>Node13&#45;&gt;Node10</title>
<g id="a_edge20_Node000013_Node000010"><a xlink:title=" ">
<path fill="none" stroke="#63b8ff" d="M341.6,-158.9C328.04,-149.05 312.61,-137.83 302.11,-130.2"/>
<polygon fill="#63b8ff" stroke="#63b8ff" points="339.23,-161.51 349.38,-164.56 343.35,-155.85 339.23,-161.51"/>
</a>
</g>
</g>
<!-- Node14&#45;&gt;Node3 -->
<g id="edge25_Node000014_Node000003" class="edge">
<title>Node14&#45;&gt;Node3</title>
<g id="a_edge25_Node000014_Node000003"><a xlink:title=" ">
<path fill="none" stroke="#63b8ff" d="M425.98,-221.19C428.7,-213.33 431.26,-204.55 432.62,-196.25 434.83,-182.87 434.01,-179.23 432.62,-165.75 427.49,-115.85 431.39,-100.45 409.62,-55.25 402.9,-41.29 390.88,-27.97 382.36,-19.58"/>
<polygon fill="#63b8ff" stroke="#63b8ff" points="422.74,-219.86 422.52,-230.46 429.29,-222.31 422.74,-219.86"/>
</a>
</g>
</g>
<!-- Node14&#45;&gt;Node13 -->
<g id="edge24_Node000014_Node000013" class="edge">
<title>Node14&#45;&gt;Node13</title>
<g id="a_edge24_Node000014_Node000013"><a xlink:title=" ">
<path fill="none" stroke="#63b8ff" d="M398.91,-222.54C392.83,-213.82 386.14,-204.24 380.8,-196.58"/>
<polygon fill="#63b8ff" stroke="#63b8ff" points="395.96,-224.42 404.55,-230.62 401.7,-220.42 395.96,-224.42"/>
</a>
</g>
</g>
<!-- Node15&#45;&gt;Node3 -->
<g id="edge30_Node000015_Node000003" class="edge">
<title>Node15&#45;&gt;Node3</title>
<g id="a_edge30_Node000015_Node000003"><a xlink:title=" ">
<path fill="none" stroke="#63b8ff" d="M590.49,-224.98C622.51,-197.58 667.39,-149.16 640.62,-110.5 593.28,-42.12 493.16,-20.47 429.59,-13.67"/>
<polygon fill="#63b8ff" stroke="#63b8ff" points="588.51,-222.08 583.04,-231.15 592.97,-227.47 588.51,-222.08"/>
</a>
</g>
</g>
<!-- Node15&#45;&gt;Node13 -->
<g id="edge29_Node000015_Node000013" class="edge">
<title>Node15&#45;&gt;Node13</title>
<g id="a_edge29_Node000015_Node000013"><a xlink:title=" ">
<path fill="none" stroke="#63b8ff" d="M508.43,-228.29C478.68,-218.3 442.27,-206.07 414.35,-196.69"/>
<polygon fill="#63b8ff" stroke="#63b8ff" points="507.03,-231.52 517.62,-231.38 509.26,-224.88 507.03,-231.52"/>
</a>
</g>
</g>
</g>
</svg>
