<?xml version="1.0" encoding="UTF-8" standalone="no"?>
<!DOCTYPE svg PUBLIC "-//W3C//DTD SVG 1.1//EN"
 "http://www.w3.org/Graphics/SVG/1.1/DTD/svg11.dtd">
<!-- Generated by graphviz version 12.2.1 (20241206.2353)
 -->
<!-- Title: mimic++/Call.hpp Pages: 1 -->
<svg width="1666pt" height="414pt"
 viewBox="0.00 0.00 1666.00 414.00" xmlns="http://www.w3.org/2000/svg" xmlns:xlink="http://www.w3.org/1999/xlink">
<g id="graph0" class="graph" transform="scale(1 1) rotate(0) translate(4 410)">
<title>mimic++/Call.hpp</title>
<!-- Node1 -->
<g id="Node000001" class="node">
<title>Node1</title>
<g id="a_Node000001"><a xlink:title=" ">
<polygon fill="#999999" stroke="#666666" points="1550.88,-406 1459.12,-406 1459.12,-386.75 1550.88,-386.75 1550.88,-406"/>
<text text-anchor="middle" x="1505" y="-392.5" font-family="Helvetica,sans-Serif" font-size="10.00">mimic++/Call.hpp</text>
</a>
</g>
</g>
<!-- Node2 -->
<g id="Node000002" class="node">
<title>Node2</title>
<g id="a_Node000002"><a xlink:href="../../df/dde/_fwd_8hpp.html" target="_top" xlink:title=" ">
<polygon fill="white" stroke="#666666" points="1068,-129.75 974,-129.75 974,-110.5 1068,-110.5 1068,-129.75"/>
<text text-anchor="middle" x="1021" y="-116.25" font-family="Helvetica,sans-Serif" font-size="10.00">mimic++/Fwd.hpp</text>
</a>
</g>
</g>
<!-- Node1&#45;&gt;Node2 -->
<g id="edge1_Node000001_Node000002" class="edge">
<title>Node1&#45;&gt;Node2</title>
<g id="a_edge1_Node000001_Node000002"><a xlink:title=" ">
<path fill="none" stroke="#63b8ff" d="M1506.02,-386.55C1509.48,-352.03 1517,-225.12 1449,-165.75 1445.55,-162.74 1195.95,-138.13 1079.56,-126.8"/>
<polygon fill="#63b8ff" stroke="#63b8ff" points="1080.19,-123.34 1069.89,-125.86 1079.51,-130.31 1080.19,-123.34"/>
</a>
</g>
</g>
<!-- Node7 -->
<g id="Node000007" class="node">
<title>Node7</title>
<g id="a_Node000007"><a xlink:href="../../de/df5/_stacktrace_8hpp.html" target="_top" xlink:title=" ">
<polygon fill="white" stroke="#666666" points="568.25,-350.75 445.75,-350.75 445.75,-331.5 568.25,-331.5 568.25,-350.75"/>
<text text-anchor="middle" x="507" y="-337.25" font-family="Helvetica,sans-Serif" font-size="10.00">mimic++/Stacktrace.hpp</text>
</a>
</g>
</g>
<!-- Node1&#45;&gt;Node7 -->
<g id="edge6_Node000001_Node000007" class="edge">
<title>Node1&#45;&gt;Node7</title>
<g id="a_edge6_Node000001_Node000007"><a xlink:title=" ">
<path fill="none" stroke="#63b8ff" d="M1458.87,-392.91C1299.95,-384.43 774.41,-356.39 580.08,-346.02"/>
<polygon fill="#63b8ff" stroke="#63b8ff" points="580.27,-342.53 570.1,-345.49 579.9,-349.52 580.27,-342.53"/>
</a>
</g>
</g>
<!-- Node12 -->
<g id="Node000012" class="node">
<title>Node12</title>
<g id="a_Node000012"><a xlink:title=" ">
<polygon fill="#e0e0e0" stroke="#999999" points="1330.12,-129.75 1245.88,-129.75 1245.88,-110.5 1330.12,-110.5 1330.12,-129.75"/>
<text text-anchor="middle" x="1288" y="-116.25" font-family="Helvetica,sans-Serif" font-size="10.00">source_location</text>
</a>
</g>
</g>
<!-- Node1&#45;&gt;Node12 -->
<g id="edge78_Node000001_Node000012" class="edge">
<title>Node1&#45;&gt;Node12</title>
<g id="a_edge78_Node000001_Node000012"><a xlink:title=" ">
<path fill="none" stroke="#63b8ff" d="M1536.94,-386.37C1556.32,-379.45 1580.27,-368.08 1596,-350.75 1616.38,-328.3 1620,-317.2 1620,-286.88 1620,-286.88 1620,-286.88 1620,-229.62 1620,-190.06 1593.05,-184.09 1558,-165.75 1521.34,-146.57 1409.58,-132.83 1341.88,-126.01"/>
<polygon fill="#63b8ff" stroke="#63b8ff" points="1342.4,-122.54 1332.11,-125.04 1341.71,-129.51 1342.4,-122.54"/>
</a>
</g>
</g>
<!-- Node13 -->
<g id="Node000013" class="node">
<title>Node13</title>
<g id="a_Node000013"><a xlink:title=" ">
<polygon fill="#e0e0e0" stroke="#999999" points="1553.5,-129.75 1516.5,-129.75 1516.5,-110.5 1553.5,-110.5 1553.5,-129.75"/>
<text text-anchor="middle" x="1535" y="-116.25" font-family="Helvetica,sans-Serif" font-size="10.00">tuple</text>
</a>
</g>
</g>
<!-- Node1&#45;&gt;Node13 -->
<g id="edge79_Node000001_Node000013" class="edge">
<title>Node1&#45;&gt;Node13</title>
<g id="a_edge79_Node000001_Node000013"><a xlink:title=" ">
<path fill="none" stroke="#63b8ff" d="M1551.33,-389.34C1578.5,-383.59 1611.76,-372.41 1634,-350.75 1655.73,-329.59 1658,-317.2 1658,-286.88 1658,-286.88 1658,-286.88 1658,-229.62 1658,-199.3 1654.75,-187.87 1634,-165.75 1615.52,-146.05 1586.73,-134.42 1564.94,-128.01"/>
<polygon fill="#63b8ff" stroke="#63b8ff" points="1566.01,-124.67 1555.44,-125.43 1564.17,-131.42 1566.01,-124.67"/>
</a>
</g>
</g>
<!-- Node14 -->
<g id="Node000014" class="node">
<title>Node14</title>
<g id="a_Node000014"><a xlink:title=" ">
<polygon fill="#e0e0e0" stroke="#999999" points="303.25,-129.75 264.75,-129.75 264.75,-110.5 303.25,-110.5 303.25,-129.75"/>
<text text-anchor="middle" x="284" y="-116.25" font-family="Helvetica,sans-Serif" font-size="10.00">utility</text>
</a>
</g>
</g>
<!-- Node1&#45;&gt;Node14 -->
<g id="edge80_Node000001_Node000014" class="edge">
<title>Node1&#45;&gt;Node14</title>
<g id="a_edge80_Node000001_Node000014"><a xlink:title=" ">
<path fill="none" stroke="#63b8ff" d="M1458.72,-394.52C1205.6,-389.54 0,-361.9 0,-286.88 0,-286.88 0,-286.88 0,-229.62 0,-189.44 28.58,-184.74 64,-165.75 125.53,-132.75 208.69,-124.08 253.06,-121.85"/>
<polygon fill="#63b8ff" stroke="#63b8ff" points="253.14,-125.35 262.99,-121.44 252.85,-118.36 253.14,-125.35"/>
</a>
</g>
</g>
<!-- Node27 -->
<g id="Node000027" class="node">
<title>Node27</title>
<g id="a_Node000027"><a xlink:href="../../d8/d32/_type_traits_8hpp.html" target="_top" xlink:title=" ">
<polygon fill="white" stroke="#666666" points="1439.5,-185 1318.5,-185 1318.5,-165.75 1439.5,-165.75 1439.5,-185"/>
<text text-anchor="middle" x="1379" y="-171.5" font-family="Helvetica,sans-Serif" font-size="10.00">mimic++/TypeTraits.hpp</text>
</a>
</g>
</g>
<!-- Node1&#45;&gt;Node27 -->
<g id="edge77_Node000001_Node000027" class="edge">
<title>Node1&#45;&gt;Node27</title>
<g id="a_edge77_Node000001_Node000027"><a xlink:title=" ">
<path fill="none" stroke="#63b8ff" d="M1499.9,-386.52C1481.14,-353.91 1415.67,-240.11 1389.72,-195"/>
<polygon fill="#63b8ff" stroke="#63b8ff" points="1392.8,-193.34 1384.78,-186.41 1386.73,-196.83 1392.8,-193.34"/>
</a>
</g>
</g>
<!-- Node3 -->
<g id="Node000003" class="node">
<title>Node3</title>
<g id="a_Node000003"><a xlink:href="../../d8/dd2/_config_8hpp.html" target="_top" xlink:title=" ">
<polygon fill="white" stroke="#666666" points="481.12,-74.5 378.88,-74.5 378.88,-55.25 481.12,-55.25 481.12,-74.5"/>
<text text-anchor="middle" x="430" y="-61" font-family="Helvetica,sans-Serif" font-size="10.00">mimic++/Config.hpp</text>
</a>
</g>
</g>
<!-- Node2&#45;&gt;Node3 -->
<g id="edge2_Node000002_Node000003" class="edge">
<title>Node2&#45;&gt;Node3</title>
<g id="a_edge2_Node000002_Node000003"><a xlink:title=" ">
<path fill="none" stroke="#63b8ff" d="M973.68,-111.6C970.74,-111.21 967.83,-110.84 965,-110.5 794.73,-90.31 592.9,-76.09 492.79,-69.69"/>
<polygon fill="#63b8ff" stroke="#63b8ff" points="493.1,-66.2 482.9,-69.06 492.66,-73.19 493.1,-66.2"/>
</a>
</g>
</g>
<!-- Node5 -->
<g id="Node000005" class="node">
<title>Node5</title>
<g id="a_Node000005"><a xlink:title=" ">
<polygon fill="#e0e0e0" stroke="#999999" points="1112,-74.5 1072,-74.5 1072,-55.25 1112,-55.25 1112,-74.5"/>
<text text-anchor="middle" x="1092" y="-61" font-family="Helvetica,sans-Serif" font-size="10.00">string</text>
</a>
</g>
</g>
<!-- Node2&#45;&gt;Node5 -->
<g id="edge4_Node000002_Node000005" class="edge">
<title>Node2&#45;&gt;Node5</title>
<g id="a_edge4_Node000002_Node000005"><a xlink:title=" ">
<path fill="none" stroke="#63b8ff" d="M1033.04,-110.09C1043.41,-102.32 1058.6,-90.92 1070.97,-81.65"/>
<polygon fill="#63b8ff" stroke="#63b8ff" points="1073.02,-84.48 1078.92,-75.68 1068.82,-78.88 1073.02,-84.48"/>
</a>
</g>
</g>
<!-- Node6 -->
<g id="Node000006" class="node">
<title>Node6</title>
<g id="a_Node000006"><a xlink:title=" ">
<polygon fill="#e0e0e0" stroke="#999999" points="1053.75,-74.5 988.25,-74.5 988.25,-55.25 1053.75,-55.25 1053.75,-74.5"/>
<text text-anchor="middle" x="1021" y="-61" font-family="Helvetica,sans-Serif" font-size="10.00">string_view</text>
</a>
</g>
</g>
<!-- Node2&#45;&gt;Node6 -->
<g id="edge5_Node000002_Node000006" class="edge">
<title>Node2&#45;&gt;Node6</title>
<g id="a_edge5_Node000002_Node000006"><a xlink:title=" ">
<path fill="none" stroke="#63b8ff" d="M1021,-110.33C1021,-103.82 1021,-94.67 1021,-86.37"/>
<polygon fill="#63b8ff" stroke="#63b8ff" points="1024.5,-86.37 1021,-76.37 1017.5,-86.37 1024.5,-86.37"/>
</a>
</g>
</g>
<!-- Node4 -->
<g id="Node000004" class="node">
<title>Node4</title>
<g id="a_Node000004"><a xlink:title=" ">
<polygon fill="#e0e0e0" stroke="#999999" points="453.75,-19.25 406.25,-19.25 406.25,0 453.75,0 453.75,-19.25"/>
<text text-anchor="middle" x="430" y="-5.75" font-family="Helvetica,sans-Serif" font-size="10.00">version</text>
</a>
</g>
</g>
<!-- Node3&#45;&gt;Node4 -->
<g id="edge3_Node000003_Node000004" class="edge">
<title>Node3&#45;&gt;Node4</title>
<g id="a_edge3_Node000003_Node000004"><a xlink:title=" ">
<path fill="none" stroke="#63b8ff" d="M430,-55.08C430,-48.57 430,-39.42 430,-31.12"/>
<polygon fill="#63b8ff" stroke="#63b8ff" points="433.5,-31.12 430,-21.12 426.5,-31.12 433.5,-31.12"/>
</a>
</g>
</g>
<!-- Node7&#45;&gt;Node2 -->
<g id="edge7_Node000007_Node000002" class="edge">
<title>Node7&#45;&gt;Node2</title>
<g id="a_edge7_Node000007_Node000002"><a xlink:title=" ">
<path fill="none" stroke="#63b8ff" d="M568.73,-338.25C711.78,-333.51 1057.34,-319.69 1104,-295.5 1166.53,-263.08 1238.18,-221.4 1195,-165.75 1180.77,-147.41 1124.24,-135.31 1079.42,-128.39"/>
<polygon fill="#63b8ff" stroke="#63b8ff" points="1080.22,-124.97 1069.81,-126.97 1079.19,-131.9 1080.22,-124.97"/>
</a>
</g>
</g>
<!-- Node8 -->
<g id="Node000008" class="node">
<title>Node8</title>
<g id="a_Node000008"><a xlink:href="../../d4/d2c/_utility_8hpp.html" target="_top" xlink:title=" ">
<polygon fill="white" stroke="#666666" points="1186,-185 1086,-185 1086,-165.75 1186,-165.75 1186,-185"/>
<text text-anchor="middle" x="1136" y="-171.5" font-family="Helvetica,sans-Serif" font-size="10.00">mimic++/Utility.hpp</text>
</a>
</g>
</g>
<!-- Node7&#45;&gt;Node8 -->
<g id="edge8_Node000007_Node000008" class="edge">
<title>Node7&#45;&gt;Node8</title>
<g id="a_edge8_Node000007_Node000008"><a xlink:title=" ">
<path fill="none" stroke="#63b8ff" d="M568.72,-340.41C696.23,-340.18 984.23,-335.13 1073,-295.5 1105.51,-280.99 1115.71,-272.4 1131,-240.25 1137.45,-226.69 1138.49,-209.67 1138.03,-196.61"/>
<polygon fill="#63b8ff" stroke="#63b8ff" points="1141.52,-196.38 1137.32,-186.65 1134.54,-196.87 1141.52,-196.38"/>
</a>
</g>
</g>
<!-- Node7&#45;&gt;Node14 -->
<g id="edge75_Node000007_Node000014" class="edge">
<title>Node7&#45;&gt;Node14</title>
<g id="a_edge75_Node000007_Node000014"><a xlink:title=" ">
<path fill="none" stroke="#63b8ff" d="M445.5,-336.44C356.67,-330.46 197.25,-317.09 144,-295.5 106.29,-280.22 89.12,-276.68 71,-240.25 62.88,-223.93 62.49,-181.86 77,-165.75 100.17,-140.03 201.28,-128 253.11,-123.44"/>
<polygon fill="#63b8ff" stroke="#63b8ff" points="253.09,-126.95 262.76,-122.63 252.5,-119.98 253.09,-126.95"/>
</a>
</g>
</g>
<!-- Node15 -->
<g id="Node000015" class="node">
<title>Node15</title>
<g id="a_Node000015"><a xlink:href="../../de/d4b/_path_printer_8hpp.html" target="_top" xlink:title=" ">
<polygon fill="white" stroke="#666666" points="384.25,-240.25 225.75,-240.25 225.75,-221 384.25,-221 384.25,-240.25"/>
<text text-anchor="middle" x="305" y="-226.75" font-family="Helvetica,sans-Serif" font-size="10.00">mimic++/printing/PathPrinter.hpp</text>
</a>
</g>
</g>
<!-- Node7&#45;&gt;Node15 -->
<g id="edge17_Node000007_Node000015" class="edge">
<title>Node7&#45;&gt;Node15</title>
<g id="a_edge17_Node000007_Node000015"><a xlink:title=" ">
<path fill="none" stroke="#63b8ff" d="M480.29,-331.01C457.77,-322.89 424.99,-310.08 398,-295.5 371.83,-281.36 343.98,-261.52 325.65,-247.71"/>
<polygon fill="#63b8ff" stroke="#63b8ff" points="327.8,-244.95 317.72,-241.66 323.55,-250.51 327.8,-244.95"/>
</a>
</g>
</g>
<!-- Node19 -->
<g id="Node000019" class="node">
<title>Node19</title>
<g id="a_Node000019"><a xlink:title=" ">
<polygon fill="#e0e0e0" stroke="#999999" points="737.5,-129.75 676.5,-129.75 676.5,-110.5 737.5,-110.5 737.5,-129.75"/>
<text text-anchor="middle" x="707" y="-116.25" font-family="Helvetica,sans-Serif" font-size="10.00">type_traits</text>
</a>
</g>
</g>
<!-- Node7&#45;&gt;Node19 -->
<g id="edge74_Node000007_Node000019" class="edge">
<title>Node7&#45;&gt;Node19</title>
<g id="a_edge74_Node000007_Node000019"><a xlink:title=" ">
<path fill="none" stroke="#63b8ff" d="M445.48,-335.46C306.45,-322.79 -11.83,-280.65 95,-165.75 99.87,-160.51 527.2,-132.66 664.81,-123.82"/>
<polygon fill="#63b8ff" stroke="#63b8ff" points="664.82,-127.33 674.58,-123.19 664.38,-120.34 664.82,-127.33"/>
</a>
</g>
</g>
<!-- Node21 -->
<g id="Node000021" class="node">
<title>Node21</title>
<g id="a_Node000021"><a xlink:title=" ">
<polygon fill="#e0e0e0" stroke="#999999" points="159.88,-185 104.12,-185 104.12,-165.75 159.88,-165.75 159.88,-185"/>
<text text-anchor="middle" x="132" y="-171.5" font-family="Helvetica,sans-Serif" font-size="10.00">algorithm</text>
</a>
</g>
</g>
<!-- Node7&#45;&gt;Node21 -->
<g id="edge69_Node000007_Node000021" class="edge">
<title>Node7&#45;&gt;Node21</title>
<g id="a_edge69_Node000007_Node000021"><a xlink:title=" ">
<path fill="none" stroke="#63b8ff" d="M467.21,-331.07C409.59,-316.95 300.69,-286.43 217,-240.25 192.55,-226.76 167.31,-206.9 150.75,-192.92"/>
<polygon fill="#63b8ff" stroke="#63b8ff" points="153.09,-190.31 143.23,-186.44 148.52,-195.62 153.09,-190.31"/>
</a>
</g>
</g>
<!-- Node23 -->
<g id="Node000023" class="node">
<title>Node23</title>
<g id="a_Node000023"><a xlink:title=" ">
<polygon fill="#e0e0e0" stroke="#999999" points="662,-185 604,-185 604,-165.75 662,-165.75 662,-185"/>
<text text-anchor="middle" x="633" y="-171.5" font-family="Helvetica,sans-Serif" font-size="10.00">functional</text>
</a>
</g>
</g>
<!-- Node7&#45;&gt;Node23 -->
<g id="edge71_Node000007_Node000023" class="edge">
<title>Node7&#45;&gt;Node23</title>
<g id="a_edge71_Node000007_Node000023"><a xlink:title=" ">
<path fill="none" stroke="#63b8ff" d="M480.42,-331.01C464.45,-324 445.44,-312.58 436,-295.5 419.99,-266.52 415.33,-246.87 436,-221 438.47,-217.91 535.46,-196.98 592.4,-184.91"/>
<polygon fill="#63b8ff" stroke="#63b8ff" points="593.02,-188.36 602.08,-182.87 591.57,-181.51 593.02,-188.36"/>
</a>
</g>
</g>
<!-- Node24 -->
<g id="Node000024" class="node">
<title>Node24</title>
<g id="a_Node000024"><a xlink:title=" ">
<polygon fill="#e0e0e0" stroke="#999999" points="725.62,-185 680.38,-185 680.38,-165.75 725.62,-165.75 725.62,-185"/>
<text text-anchor="middle" x="703" y="-171.5" font-family="Helvetica,sans-Serif" font-size="10.00">ranges</text>
</a>
</g>
</g>
<!-- Node7&#45;&gt;Node24 -->
<g id="edge72_Node000007_Node000024" class="edge">
<title>Node7&#45;&gt;Node24</title>
<g id="a_edge72_Node000007_Node000024"><a xlink:title=" ">
<path fill="none" stroke="#63b8ff" d="M499.15,-331.27C481.18,-309.89 440.7,-254.78 469,-221 496.39,-188.3 610.38,-193.98 668.76,-184.93"/>
<polygon fill="#63b8ff" stroke="#63b8ff" points="669.31,-188.39 678.5,-183.11 668.03,-181.51 669.31,-188.39"/>
</a>
</g>
</g>
<!-- Node25 -->
<g id="Node000025" class="node">
<title>Node25</title>
<g id="a_Node000025"><a xlink:href="../../de/d62/_state_printer_8hpp.html" target="_top" xlink:title=" ">
<polygon fill="white" stroke="#666666" points="951.75,-295.5 790.25,-295.5 790.25,-276.25 951.75,-276.25 951.75,-295.5"/>
<text text-anchor="middle" x="871" y="-282" font-family="Helvetica,sans-Serif" font-size="10.00">mimic++/printing/StatePrinter.hpp</text>
</a>
</g>
</g>
<!-- Node7&#45;&gt;Node25 -->
<g id="edge33_Node000007_Node000025" class="edge">
<title>Node7&#45;&gt;Node25</title>
<g id="a_edge33_Node000007_Node000025"><a xlink:title=" ">
<path fill="none" stroke="#63b8ff" d="M568.75,-331.09C631.93,-321.85 730.1,-307.49 797.3,-297.66"/>
<polygon fill="#63b8ff" stroke="#63b8ff" points="797.76,-301.13 807.15,-296.22 796.75,-294.2 797.76,-301.13"/>
</a>
</g>
</g>
<!-- Node32 -->
<g id="Node000032" class="node">
<title>Node32</title>
<g id="a_Node000032"><a xlink:title=" ">
<polygon fill="#e0e0e0" stroke="#999999" points="536,-240.25 478,-240.25 478,-221 536,-221 536,-240.25"/>
<text text-anchor="middle" x="507" y="-226.75" font-family="Helvetica,sans-Serif" font-size="10.00">stdexcept</text>
</a>
</g>
</g>
<!-- Node7&#45;&gt;Node32 -->
<g id="edge73_Node000007_Node000032" class="edge">
<title>Node7&#45;&gt;Node32</title>
<g id="a_edge73_Node000007_Node000032"><a xlink:title=" ">
<path fill="none" stroke="#63b8ff" d="M507,-331.25C507,-314 507,-275.58 507,-251.81"/>
<polygon fill="#63b8ff" stroke="#63b8ff" points="510.5,-252.14 507,-242.14 503.5,-252.14 510.5,-252.14"/>
</a>
</g>
</g>
<!-- Node33 -->
<g id="Node000033" class="node">
<title>Node33</title>
<g id="a_Node000033"><a xlink:title=" ">
<polygon fill="#e0e0e0" stroke="#999999" points="1000.5,-295.5 969.5,-295.5 969.5,-276.25 1000.5,-276.25 1000.5,-295.5"/>
<text text-anchor="middle" x="985" y="-282" font-family="Helvetica,sans-Serif" font-size="10.00">any</text>
</a>
</g>
</g>
<!-- Node7&#45;&gt;Node33 -->
<g id="edge70_Node000007_Node000033" class="edge">
<title>Node7&#45;&gt;Node33</title>
<g id="a_edge70_Node000007_Node000033"><a xlink:title=" ">
<path fill="none" stroke="#63b8ff" d="M568.71,-338.87C654.53,-336.07 814.69,-327.03 957.99,-295.68"/>
<polygon fill="#63b8ff" stroke="#63b8ff" points="958.68,-299.12 967.68,-293.52 957.16,-292.28 958.68,-299.12"/>
</a>
</g>
</g>
<!-- Node34 -->
<g id="Node000034" class="node">
<title>Node34</title>
<g id="a_Node000034"><a xlink:title=" ">
<polygon fill="#e0e0e0" stroke="#999999" points="1063.62,-295.5 1018.38,-295.5 1018.38,-276.25 1063.62,-276.25 1063.62,-295.5"/>
<text text-anchor="middle" x="1041" y="-282" font-family="Helvetica,sans-Serif" font-size="10.00">variant</text>
</a>
</g>
</g>
<!-- Node7&#45;&gt;Node34 -->
<g id="edge76_Node000007_Node000034" class="edge">
<title>Node7&#45;&gt;Node34</title>
<g id="a_edge76_Node000007_Node000034"><a xlink:title=" ">
<path fill="none" stroke="#63b8ff" d="M568.65,-338.28C661.84,-334.7 844.16,-324.6 1006.9,-295.77"/>
<polygon fill="#63b8ff" stroke="#63b8ff" points="1007.38,-299.24 1016.6,-294.02 1006.13,-292.35 1007.38,-299.24"/>
</a>
</g>
</g>
<!-- Node8&#45;&gt;Node2 -->
<g id="edge9_Node000008_Node000002" class="edge">
<title>Node8&#45;&gt;Node2</title>
<g id="a_edge9_Node000008_Node000002"><a xlink:title=" ">
<path fill="none" stroke="#63b8ff" d="M1116.49,-165.34C1098.48,-157 1071.48,-144.5 1050.77,-134.91"/>
<polygon fill="#63b8ff" stroke="#63b8ff" points="1052.52,-131.86 1041.98,-130.84 1049.58,-138.22 1052.52,-131.86"/>
</a>
</g>
</g>
<!-- Node8&#45;&gt;Node6 -->
<g id="edge14_Node000008_Node000006" class="edge">
<title>Node8&#45;&gt;Node6</title>
<g id="a_edge14_Node000008_Node000006"><a xlink:title=" ">
<path fill="none" stroke="#63b8ff" d="M1128.39,-165.29C1117.52,-152.53 1096.68,-128.8 1077,-110.5 1066.13,-100.39 1053.21,-90 1042.52,-81.79"/>
<polygon fill="#63b8ff" stroke="#63b8ff" points="1044.75,-79.09 1034.66,-75.85 1040.53,-84.67 1044.75,-79.09"/>
</a>
</g>
</g>
<!-- Node9 -->
<g id="Node000009" class="node">
<title>Node9</title>
<g id="a_Node000009"><a xlink:title=" ">
<polygon fill="#e0e0e0" stroke="#999999" points="1161.5,-129.75 1124.5,-129.75 1124.5,-110.5 1161.5,-110.5 1161.5,-129.75"/>
<text text-anchor="middle" x="1143" y="-116.25" font-family="Helvetica,sans-Serif" font-size="10.00">array</text>
</a>
</g>
</g>
<!-- Node8&#45;&gt;Node9 -->
<g id="edge10_Node000008_Node000009" class="edge">
<title>Node8&#45;&gt;Node9</title>
<g id="a_edge10_Node000008_Node000009"><a xlink:title=" ">
<path fill="none" stroke="#63b8ff" d="M1137.16,-165.58C1138.02,-158.99 1139.24,-149.71 1140.34,-141.32"/>
<polygon fill="#63b8ff" stroke="#63b8ff" points="1143.79,-141.98 1141.62,-131.61 1136.85,-141.07 1143.79,-141.98"/>
</a>
</g>
</g>
<!-- Node10 -->
<g id="Node000010" class="node">
<title>Node10</title>
<g id="a_Node000010"><a xlink:title=" ">
<polygon fill="#e0e0e0" stroke="#999999" points="1228.12,-129.75 1179.88,-129.75 1179.88,-110.5 1228.12,-110.5 1228.12,-129.75"/>
<text text-anchor="middle" x="1204" y="-116.25" font-family="Helvetica,sans-Serif" font-size="10.00">cassert</text>
</a>
</g>
</g>
<!-- Node8&#45;&gt;Node10 -->
<g id="edge11_Node000008_Node000010" class="edge">
<title>Node8&#45;&gt;Node10</title>
<g id="a_edge11_Node000008_Node000010"><a xlink:title=" ">
<path fill="none" stroke="#63b8ff" d="M1147.54,-165.34C1157.46,-157.57 1172.01,-146.17 1183.86,-136.9"/>
<polygon fill="#63b8ff" stroke="#63b8ff" points="1185.73,-139.88 1191.44,-130.96 1181.41,-134.37 1185.73,-139.88"/>
</a>
</g>
</g>
<!-- Node11 -->
<g id="Node000011" class="node">
<title>Node11</title>
<g id="a_Node000011"><a xlink:title=" ">
<polygon fill="#e0e0e0" stroke="#999999" points="955.88,-129.75 906.12,-129.75 906.12,-110.5 955.88,-110.5 955.88,-129.75"/>
<text text-anchor="middle" x="931" y="-116.25" font-family="Helvetica,sans-Serif" font-size="10.00">optional</text>
</a>
</g>
</g>
<!-- Node8&#45;&gt;Node11 -->
<g id="edge12_Node000008_Node000011" class="edge">
<title>Node8&#45;&gt;Node11</title>
<g id="a_edge12_Node000008_Node000011"><a xlink:title=" ">
<path fill="none" stroke="#63b8ff" d="M1101.22,-165.34C1063.96,-155.66 1005.07,-140.36 967.24,-130.54"/>
<polygon fill="#63b8ff" stroke="#63b8ff" points="968.25,-127.18 957.69,-128.06 966.49,-133.96 968.25,-127.18"/>
</a>
</g>
</g>
<!-- Node8&#45;&gt;Node12 -->
<g id="edge13_Node000008_Node000012" class="edge">
<title>Node8&#45;&gt;Node12</title>
<g id="a_edge13_Node000008_Node000012"><a xlink:title=" ">
<path fill="none" stroke="#63b8ff" d="M1161.78,-165.34C1186.35,-156.74 1223.59,-143.69 1251.26,-134"/>
<polygon fill="#63b8ff" stroke="#63b8ff" points="1252.38,-137.31 1260.66,-130.7 1250.07,-130.71 1252.38,-137.31"/>
</a>
</g>
</g>
<!-- Node8&#45;&gt;Node13 -->
<g id="edge15_Node000008_Node000013" class="edge">
<title>Node8&#45;&gt;Node13</title>
<g id="a_edge15_Node000008_Node000013"><a xlink:title=" ">
<path fill="none" stroke="#63b8ff" d="M1186.27,-171.2C1255.87,-166.17 1385.57,-154.54 1504.99,-129.79"/>
<polygon fill="#63b8ff" stroke="#63b8ff" points="1505.6,-133.24 1514.66,-127.75 1504.15,-126.39 1505.6,-133.24"/>
</a>
</g>
</g>
<!-- Node8&#45;&gt;Node14 -->
<g id="edge16_Node000008_Node000014" class="edge">
<title>Node8&#45;&gt;Node14</title>
<g id="a_edge16_Node000008_Node000014"><a xlink:title=" ">
<path fill="none" stroke="#63b8ff" d="M1085.94,-171.59C966.86,-164.92 657.34,-147.26 399,-129.75 370.42,-127.81 337.87,-125.35 314.71,-123.55"/>
<polygon fill="#63b8ff" stroke="#63b8ff" points="315.28,-120.08 305.04,-122.79 314.73,-127.06 315.28,-120.08"/>
</a>
</g>
</g>
<!-- Node15&#45;&gt;Node2 -->
<g id="edge19_Node000015_Node000002" class="edge">
<title>Node15&#45;&gt;Node2</title>
<g id="a_edge19_Node000015_Node000002"><a xlink:title=" ">
<path fill="none" stroke="#63b8ff" d="M384.52,-221.61C434.87,-215.06 500.84,-203.74 557,-185 574.96,-179.01 576.82,-171.04 595,-165.75 750.24,-120.61 798.98,-149.05 962.72,-129.93"/>
<polygon fill="#63b8ff" stroke="#63b8ff" points="962.66,-133.47 972.17,-128.79 961.82,-126.52 962.66,-133.47"/>
</a>
</g>
</g>
<!-- Node15&#45;&gt;Node3 -->
<g id="edge18_Node000015_Node000003" class="edge">
<title>Node15&#45;&gt;Node3</title>
<g id="a_edge18_Node000015_Node000003"><a xlink:title=" ">
<path fill="none" stroke="#63b8ff" d="M280.89,-220.6C265.59,-213.47 247.04,-201.88 238,-185 226.35,-163.25 247.49,-118.48 256,-110.5 285.79,-82.56 330.63,-71.53 367.33,-67.42"/>
<polygon fill="#63b8ff" stroke="#63b8ff" points="367.31,-70.93 376.93,-66.5 366.64,-63.97 367.31,-70.93"/>
</a>
</g>
</g>
<!-- Node15&#45;&gt;Node14 -->
<g id="edge32_Node000015_Node000014" class="edge">
<title>Node15&#45;&gt;Node14</title>
<g id="a_edge32_Node000015_Node000014"><a xlink:title=" ">
<path fill="none" stroke="#63b8ff" d="M284.53,-220.6C270.59,-213.23 253.22,-201.36 245,-185 236.63,-168.33 249.91,-150.27 263.19,-137.62"/>
<polygon fill="#63b8ff" stroke="#63b8ff" points="265.35,-140.39 270.55,-131.16 260.73,-135.13 265.35,-140.39"/>
</a>
</g>
</g>
<!-- Node16 -->
<g id="Node000016" class="node">
<title>Node16</title>
<g id="a_Node000016"><a xlink:href="../../d5/dec/_format_8hpp.html" target="_top" xlink:title=" ">
<polygon fill="white" stroke="#666666" points="548.25,-185 407.75,-185 407.75,-165.75 548.25,-165.75 548.25,-185"/>
<text text-anchor="middle" x="478" y="-171.5" font-family="Helvetica,sans-Serif" font-size="10.00">mimic++/printing/Format.hpp</text>
</a>
</g>
</g>
<!-- Node15&#45;&gt;Node16 -->
<g id="edge20_Node000015_Node000016" class="edge">
<title>Node15&#45;&gt;Node16</title>
<g id="a_edge20_Node000015_Node000016"><a xlink:title=" ">
<path fill="none" stroke="#63b8ff" d="M334.35,-220.59C362.8,-211.83 406.2,-198.48 437.85,-188.73"/>
<polygon fill="#63b8ff" stroke="#63b8ff" points="438.53,-192.18 447.06,-185.9 436.48,-185.49 438.53,-192.18"/>
</a>
</g>
</g>
<!-- Node15&#45;&gt;Node21 -->
<g id="edge28_Node000015_Node000021" class="edge">
<title>Node15&#45;&gt;Node21</title>
<g id="a_edge28_Node000015_Node000021"><a xlink:title=" ">
<path fill="none" stroke="#63b8ff" d="M275.65,-220.59C246.85,-211.73 202.75,-198.15 171.01,-188.38"/>
<polygon fill="#63b8ff" stroke="#63b8ff" points="172.37,-185.14 161.79,-185.54 170.31,-191.83 172.37,-185.14"/>
</a>
</g>
</g>
<!-- Node22 -->
<g id="Node000022" class="node">
<title>Node22</title>
<g id="a_Node000022"><a xlink:title=" ">
<polygon fill="#e0e0e0" stroke="#999999" points="313.75,-185 254.25,-185 254.25,-165.75 313.75,-165.75 313.75,-185"/>
<text text-anchor="middle" x="284" y="-171.5" font-family="Helvetica,sans-Serif" font-size="10.00">filesystem</text>
</a>
</g>
</g>
<!-- Node15&#45;&gt;Node22 -->
<g id="edge29_Node000015_Node000022" class="edge">
<title>Node15&#45;&gt;Node22</title>
<g id="a_edge29_Node000015_Node000022"><a xlink:title=" ">
<path fill="none" stroke="#63b8ff" d="M301.53,-220.83C298.87,-214.09 295.1,-204.52 291.74,-195.99"/>
<polygon fill="#63b8ff" stroke="#63b8ff" points="295.02,-194.79 288.1,-186.77 288.51,-197.35 295.02,-194.79"/>
</a>
</g>
</g>
<!-- Node15&#45;&gt;Node23 -->
<g id="edge30_Node000015_Node000023" class="edge">
<title>Node15&#45;&gt;Node23</title>
<g id="a_edge30_Node000015_Node000023"><a xlink:title=" ">
<path fill="none" stroke="#63b8ff" d="M368.24,-220.51C426.08,-211.99 513.95,-198.57 590,-185 590.98,-184.82 591.98,-184.64 592.98,-184.46"/>
<polygon fill="#63b8ff" stroke="#63b8ff" points="593.23,-187.98 602.4,-182.67 591.92,-181.1 593.23,-187.98"/>
</a>
</g>
</g>
<!-- Node15&#45;&gt;Node24 -->
<g id="edge31_Node000015_Node000024" class="edge">
<title>Node15&#45;&gt;Node24</title>
<g id="a_edge31_Node000015_Node000024"><a xlink:title=" ">
<path fill="none" stroke="#63b8ff" d="M384.4,-223.22C456.26,-216.68 565.15,-204.92 668.72,-185.18"/>
<polygon fill="#63b8ff" stroke="#63b8ff" points="669.38,-188.61 678.53,-183.28 668.05,-181.74 669.38,-188.61"/>
</a>
</g>
</g>
<!-- Node16&#45;&gt;Node2 -->
<g id="edge22_Node000016_Node000002" class="edge">
<title>Node16&#45;&gt;Node2</title>
<g id="a_edge22_Node000016_Node000002"><a xlink:title=" ">
<path fill="none" stroke="#63b8ff" d="M548.57,-167.06C553.12,-166.61 557.62,-166.17 562,-165.75 737.33,-148.92 784.57,-151.34 962.33,-130"/>
<polygon fill="#63b8ff" stroke="#63b8ff" points="962.66,-133.49 972.17,-128.81 961.82,-126.54 962.66,-133.49"/>
</a>
</g>
</g>
<!-- Node16&#45;&gt;Node3 -->
<g id="edge21_Node000016_Node000003" class="edge">
<title>Node16&#45;&gt;Node3</title>
<g id="a_edge21_Node000016_Node000003"><a xlink:title=" ">
<path fill="none" stroke="#63b8ff" d="M476.62,-165.36C474.45,-152.68 469.58,-129.04 461,-110.5 456.65,-101.11 450.34,-91.57 444.54,-83.74"/>
<polygon fill="#63b8ff" stroke="#63b8ff" points="447.49,-81.82 438.59,-76.07 441.95,-86.11 447.49,-81.82"/>
</a>
</g>
</g>
<!-- Node16&#45;&gt;Node14 -->
<g id="edge26_Node000016_Node000014" class="edge">
<title>Node16&#45;&gt;Node14</title>
<g id="a_edge26_Node000016_Node000014"><a xlink:title=" ">
<path fill="none" stroke="#63b8ff" d="M445.09,-165.34C408.51,-155.3 349.92,-139.22 314.39,-129.47"/>
<polygon fill="#63b8ff" stroke="#63b8ff" points="315.75,-126.21 305.18,-126.94 313.9,-132.96 315.75,-126.21"/>
</a>
</g>
</g>
<!-- Node17 -->
<g id="Node000017" class="node">
<title>Node17</title>
<g id="a_Node000017"><a xlink:title=" ">
<polygon fill="#e0e0e0" stroke="#999999" points="887.88,-129.75 832.12,-129.75 832.12,-110.5 887.88,-110.5 887.88,-129.75"/>
<text text-anchor="middle" x="860" y="-116.25" font-family="Helvetica,sans-Serif" font-size="10.00">concepts</text>
</a>
</g>
</g>
<!-- Node16&#45;&gt;Node17 -->
<g id="edge23_Node000016_Node000017" class="edge">
<title>Node16&#45;&gt;Node17</title>
<g id="a_edge23_Node000016_Node000017"><a xlink:title=" ">
<path fill="none" stroke="#63b8ff" d="M543.23,-165.28C623.04,-154.16 755.58,-135.68 821.01,-126.56"/>
<polygon fill="#63b8ff" stroke="#63b8ff" points="821.12,-130.08 830.54,-125.23 820.15,-123.15 821.12,-130.08"/>
</a>
</g>
</g>
<!-- Node18 -->
<g id="Node000018" class="node">
<title>Node18</title>
<g id="a_Node000018"><a xlink:title=" ">
<polygon fill="#e0e0e0" stroke="#999999" points="559.62,-129.75 508.38,-129.75 508.38,-110.5 559.62,-110.5 559.62,-129.75"/>
<text text-anchor="middle" x="534" y="-116.25" font-family="Helvetica,sans-Serif" font-size="10.00">sstream</text>
</a>
</g>
</g>
<!-- Node16&#45;&gt;Node18 -->
<g id="edge24_Node000016_Node000018" class="edge">
<title>Node16&#45;&gt;Node18</title>
<g id="a_edge24_Node000016_Node000018"><a xlink:title=" ">
<path fill="none" stroke="#63b8ff" d="M487.5,-165.34C495.43,-157.8 506.95,-146.85 516.54,-137.73"/>
<polygon fill="#63b8ff" stroke="#63b8ff" points="518.71,-140.49 523.54,-131.07 513.89,-135.42 518.71,-140.49"/>
</a>
</g>
</g>
<!-- Node16&#45;&gt;Node19 -->
<g id="edge25_Node000016_Node000019" class="edge">
<title>Node16&#45;&gt;Node19</title>
<g id="a_edge25_Node000016_Node000019"><a xlink:title=" ">
<path fill="none" stroke="#63b8ff" d="M517.11,-165.28C558.3,-155.7 622.92,-140.68 665.12,-130.86"/>
<polygon fill="#63b8ff" stroke="#63b8ff" points="665.71,-134.32 674.66,-128.65 664.12,-127.5 665.71,-134.32"/>
</a>
</g>
</g>
<!-- Node20 -->
<g id="Node000020" class="node">
<title>Node20</title>
<g id="a_Node000020"><a xlink:title=" ">
<polygon fill="#e0e0e0" stroke="#999999" points="451.88,-129.75 408.12,-129.75 408.12,-110.5 451.88,-110.5 451.88,-129.75"/>
<text text-anchor="middle" x="430" y="-116.25" font-family="Helvetica,sans-Serif" font-size="10.00">format</text>
</a>
</g>
</g>
<!-- Node16&#45;&gt;Node20 -->
<g id="edge27_Node000016_Node000020" class="edge">
<title>Node16&#45;&gt;Node20</title>
<g id="a_edge27_Node000016_Node000020"><a xlink:title=" ">
<path fill="none" stroke="#63b8ff" d="M470.07,-165.58C463.44,-158.23 453.78,-147.51 445.61,-138.44"/>
<polygon fill="#63b8ff" stroke="#63b8ff" points="448.41,-136.32 439.11,-131.23 443.21,-141 448.41,-136.32"/>
</a>
</g>
</g>
<!-- Node25&#45;&gt;Node2 -->
<g id="edge35_Node000025_Node000002" class="edge">
<title>Node25&#45;&gt;Node2</title>
<g id="a_edge35_Node000025_Node000002"><a xlink:title=" ">
<path fill="none" stroke="#63b8ff" d="M930.96,-275.78C988.41,-266.45 1067.74,-251.73 1077,-240.25 1102.92,-208.11 1064.35,-161.99 1039.42,-137.64"/>
<polygon fill="#63b8ff" stroke="#63b8ff" points="1042.08,-135.34 1032.39,-131.03 1037.28,-140.43 1042.08,-135.34"/>
</a>
</g>
</g>
<!-- Node25&#45;&gt;Node3 -->
<g id="edge34_Node000025_Node000003" class="edge">
<title>Node25&#45;&gt;Node3</title>
<g id="a_edge34_Node000025_Node000003"><a xlink:title=" ">
<path fill="none" stroke="#63b8ff" d="M789.95,-276.96C739.52,-270.49 673.86,-259.21 618,-240.25 600.45,-234.29 598.49,-227.14 581,-221 503.2,-193.7 451.34,-248.71 399,-185 377.98,-159.42 389.1,-142.1 399,-110.5 402.05,-100.75 408.07,-91.27 414,-83.57"/>
<polygon fill="#63b8ff" stroke="#63b8ff" points="416.55,-85.97 420.26,-76.04 411.17,-81.49 416.55,-85.97"/>
</a>
</g>
</g>
<!-- Node25&#45;&gt;Node5 -->
<g id="edge64_Node000025_Node000005" class="edge">
<title>Node25&#45;&gt;Node5</title>
<g id="a_edge64_Node000025_Node000005"><a xlink:title=" ">
<path fill="none" stroke="#63b8ff" d="M951.95,-277.06C955,-276.79 958.03,-276.51 961,-276.25 1156,-258.91 1213.36,-299.34 1400,-240.25 1483.44,-213.83 1525.1,-208.64 1563,-129.75 1566.7,-122.04 1568.76,-116.83 1563,-110.5 1533.45,-78.02 1224.65,-68.67 1123.72,-66.46"/>
<polygon fill="#63b8ff" stroke="#63b8ff" points="1123.8,-62.97 1113.73,-66.26 1123.65,-69.96 1123.8,-62.97"/>
</a>
</g>
</g>
<!-- Node25&#45;&gt;Node6 -->
<g id="edge65_Node000025_Node000006" class="edge">
<title>Node25&#45;&gt;Node6</title>
<g id="a_edge65_Node000025_Node000006"><a xlink:title=" ">
<path fill="none" stroke="#63b8ff" d="M952.06,-276.15C1024.42,-267.69 1124.56,-254.13 1162,-240.25 1205.48,-224.13 1316.51,-170.3 1339,-129.75 1376.75,-61.68 1425.25,-133.89 1065.29,-74.76"/>
<polygon fill="#63b8ff" stroke="#63b8ff" points="1065.9,-71.32 1055.47,-73.13 1064.76,-78.22 1065.9,-71.32"/>
</a>
</g>
</g>
<!-- Node25&#45;&gt;Node8 -->
<g id="edge52_Node000025_Node000008" class="edge">
<title>Node25&#45;&gt;Node8</title>
<g id="a_edge52_Node000025_Node000008"><a xlink:title=" ">
<path fill="none" stroke="#63b8ff" d="M937.43,-275.79C1003.42,-266.24 1096.67,-251.12 1110,-240.25 1123.2,-229.48 1129.76,-210.94 1132.98,-196.6"/>
<polygon fill="#63b8ff" stroke="#63b8ff" points="1136.41,-197.34 1134.76,-186.87 1129.52,-196.08 1136.41,-197.34"/>
</a>
</g>
</g>
<!-- Node25&#45;&gt;Node11 -->
<g id="edge60_Node000025_Node000011" class="edge">
<title>Node25&#45;&gt;Node11</title>
<g id="a_edge60_Node000025_Node000011"><a xlink:title=" ">
<path fill="none" stroke="#63b8ff" d="M881.08,-276.01C889.88,-267.68 902.27,-254.4 909,-240.25 924.39,-207.89 929.04,-165.84 930.43,-141.33"/>
<polygon fill="#63b8ff" stroke="#63b8ff" points="933.92,-141.62 930.84,-131.48 926.93,-141.33 933.92,-141.62"/>
</a>
</g>
</g>
<!-- Node25&#45;&gt;Node12 -->
<g id="edge62_Node000025_Node000012" class="edge">
<title>Node25&#45;&gt;Node12</title>
<g id="a_edge62_Node000025_Node000012"><a xlink:title=" ">
<path fill="none" stroke="#63b8ff" d="M948.11,-275.75C1012.55,-267.37 1098.91,-254.18 1131,-240.25 1188.81,-215.16 1244.7,-164.51 1271.51,-138.07"/>
<polygon fill="#63b8ff" stroke="#63b8ff" points="1273.8,-140.73 1278.38,-131.17 1268.84,-135.79 1273.8,-140.73"/>
</a>
</g>
</g>
<!-- Node25&#45;&gt;Node13 -->
<g id="edge66_Node000025_Node000013" class="edge">
<title>Node25&#45;&gt;Node13</title>
<g id="a_edge66_Node000025_Node000013"><a xlink:title=" ">
<path fill="none" stroke="#63b8ff" d="M951.95,-277.1C955.01,-276.81 958.03,-276.53 961,-276.25 1138.29,-259.76 1188.86,-289.38 1360,-240.25 1412.2,-225.26 1424.77,-216.52 1469,-185 1488.2,-171.32 1507.24,-152.13 1519.9,-138.36"/>
<polygon fill="#63b8ff" stroke="#63b8ff" points="1522.48,-140.73 1526.56,-130.96 1517.27,-136.05 1522.48,-140.73"/>
</a>
</g>
</g>
<!-- Node25&#45;&gt;Node14 -->
<g id="edge68_Node000025_Node000014" class="edge">
<title>Node25&#45;&gt;Node14</title>
<g id="a_edge68_Node000025_Node000014"><a xlink:title=" ">
<path fill="none" stroke="#63b8ff" d="M789.84,-277.83C732.57,-271.48 654.52,-260 588,-240.25 567.93,-234.29 564.94,-227.38 545,-221 467.71,-196.27 439.76,-218.84 366,-185 340.77,-173.43 316.26,-152.7 300.71,-138"/>
<polygon fill="#63b8ff" stroke="#63b8ff" points="303.34,-135.68 293.73,-131.21 298.46,-140.69 303.34,-135.68"/>
</a>
</g>
</g>
<!-- Node25&#45;&gt;Node15 -->
<g id="edge54_Node000025_Node000015" class="edge">
<title>Node25&#45;&gt;Node15</title>
<g id="a_edge54_Node000025_Node000015"><a xlink:title=" ">
<path fill="none" stroke="#63b8ff" d="M789.91,-277.25C685.54,-267.43 504.75,-250.42 395.86,-240.17"/>
<polygon fill="#63b8ff" stroke="#63b8ff" points="396.36,-236.71 386.08,-239.25 395.71,-243.67 396.36,-236.71"/>
</a>
</g>
</g>
<!-- Node25&#45;&gt;Node16 -->
<g id="edge53_Node000025_Node000016" class="edge">
<title>Node25&#45;&gt;Node16</title>
<g id="a_edge53_Node000025_Node000016"><a xlink:title=" ">
<path fill="none" stroke="#63b8ff" d="M829.8,-275.79C791.99,-267.25 734.48,-253.81 685,-240.25 625.65,-223.99 557.61,-202.42 516.23,-188.97"/>
<polygon fill="#63b8ff" stroke="#63b8ff" points="517.33,-185.65 506.73,-185.88 515.15,-192.31 517.33,-185.65"/>
</a>
</g>
</g>
<!-- Node25&#45;&gt;Node17 -->
<g id="edge56_Node000025_Node000017" class="edge">
<title>Node25&#45;&gt;Node17</title>
<g id="a_edge56_Node000025_Node000017"><a xlink:title=" ">
<path fill="none" stroke="#63b8ff" d="M876.25,-275.99C887.41,-255.88 911.36,-205.58 897,-165.75 893.27,-155.41 885.98,-145.76 878.86,-138.11"/>
<polygon fill="#63b8ff" stroke="#63b8ff" points="881.43,-135.73 871.86,-131.18 876.5,-140.7 881.43,-135.73"/>
</a>
</g>
</g>
<!-- Node25&#45;&gt;Node19 -->
<g id="edge67_Node000025_Node000019" class="edge">
<title>Node25&#45;&gt;Node19</title>
<g id="a_edge67_Node000025_Node000019"><a xlink:title=" ">
<path fill="none" stroke="#63b8ff" d="M837.31,-275.77C816.72,-268.81 790.97,-257.44 773,-240.25 746.14,-214.56 753.34,-198.08 735,-165.75 730.1,-157.11 724.31,-147.77 719.28,-139.87"/>
<polygon fill="#63b8ff" stroke="#63b8ff" points="722.22,-137.98 713.86,-131.48 716.35,-141.78 722.22,-137.98"/>
</a>
</g>
</g>
<!-- Node25&#45;&gt;Node23 -->
<g id="edge58_Node000025_Node000023" class="edge">
<title>Node25&#45;&gt;Node23</title>
<g id="a_edge58_Node000025_Node000023"><a xlink:title=" ">
<path fill="none" stroke="#63b8ff" d="M825.54,-275.78C794.74,-268.58 753.67,-256.95 720,-240.25 694.08,-227.4 667.78,-206.81 650.98,-192.5"/>
<polygon fill="#63b8ff" stroke="#63b8ff" points="653.68,-190.2 643.84,-186.27 649.08,-195.48 653.68,-190.2"/>
</a>
</g>
</g>
<!-- Node25&#45;&gt;Node24 -->
<g id="edge61_Node000025_Node000024" class="edge">
<title>Node25&#45;&gt;Node24</title>
<g id="a_edge61_Node000025_Node000024"><a xlink:title=" ">
<path fill="none" stroke="#63b8ff" d="M817.6,-275.79C791.97,-269.3 762.1,-258.38 740,-240.25 725.76,-228.57 715.84,-209.86 709.89,-195.71"/>
<polygon fill="#63b8ff" stroke="#63b8ff" points="713.22,-194.62 706.35,-186.55 706.69,-197.14 713.22,-194.62"/>
</a>
</g>
</g>
<!-- Node26 -->
<g id="Node000026" class="node">
<title>Node26</title>
<g id="a_Node000026"><a xlink:href="../../d9/dc5/_string_8hpp.html" target="_top" xlink:title=" ">
<polygon fill="white" stroke="#666666" points="882.38,-240.25 781.62,-240.25 781.62,-221 882.38,-221 882.38,-240.25"/>
<text text-anchor="middle" x="832" y="-226.75" font-family="Helvetica,sans-Serif" font-size="10.00">mimic++/String.hpp</text>
</a>
</g>
</g>
<!-- Node25&#45;&gt;Node26 -->
<g id="edge36_Node000025_Node000026" class="edge">
<title>Node25&#45;&gt;Node26</title>
<g id="a_edge36_Node000025_Node000026"><a xlink:title=" ">
<path fill="none" stroke="#63b8ff" d="M864.56,-276.08C859.34,-268.96 851.81,-258.68 845.31,-249.8"/>
<polygon fill="#63b8ff" stroke="#63b8ff" points="848.21,-247.83 839.47,-241.83 842.56,-251.97 848.21,-247.83"/>
</a>
</g>
</g>
<!-- Node25&#45;&gt;Node27 -->
<g id="edge45_Node000025_Node000027" class="edge">
<title>Node25&#45;&gt;Node27</title>
<g id="a_edge45_Node000025_Node000027"><a xlink:title=" ">
<path fill="none" stroke="#63b8ff" d="M951.89,-276.44C1062.07,-264.84 1247.43,-244.87 1262,-240.25 1297.4,-229.04 1334.38,-206.8 1357.06,-191.75"/>
<polygon fill="#63b8ff" stroke="#63b8ff" points="1358.84,-194.76 1365.16,-186.26 1354.92,-188.97 1358.84,-194.76"/>
</a>
</g>
</g>
<!-- Node28 -->
<g id="Node000028" class="node">
<title>Node28</title>
<g id="a_Node000028"><a xlink:title=" ">
<polygon fill="#e0e0e0" stroke="#999999" points="1498.12,-129.75 1449.88,-129.75 1449.88,-110.5 1498.12,-110.5 1498.12,-129.75"/>
<text text-anchor="middle" x="1474" y="-116.25" font-family="Helvetica,sans-Serif" font-size="10.00">cstddef</text>
</a>
</g>
</g>
<!-- Node25&#45;&gt;Node28 -->
<g id="edge57_Node000025_Node000028" class="edge">
<title>Node25&#45;&gt;Node28</title>
<g id="a_edge57_Node000025_Node000028"><a xlink:title=" ">
<path fill="none" stroke="#63b8ff" d="M951.8,-276.95C1070.91,-265.19 1281.41,-244.09 1298,-240.25 1367.62,-224.14 1397.91,-234.97 1449,-185 1461.12,-173.15 1467.49,-154.74 1470.76,-140.72"/>
<polygon fill="#63b8ff" stroke="#63b8ff" points="1474.12,-141.78 1472.61,-131.29 1467.25,-140.43 1474.12,-141.78"/>
</a>
</g>
</g>
<!-- Node30 -->
<g id="Node000030" class="node">
<title>Node30</title>
<g id="a_Node000030"><a xlink:title=" ">
<polygon fill="#e0e0e0" stroke="#999999" points="1004.4,-240.25 975.6,-240.25 975.6,-221 1004.4,-221 1004.4,-240.25"/>
<text text-anchor="middle" x="990" y="-226.75" font-family="Helvetica,sans-Serif" font-size="10.00">bit</text>
</a>
</g>
</g>
<!-- Node25&#45;&gt;Node30 -->
<g id="edge55_Node000025_Node000030" class="edge">
<title>Node25&#45;&gt;Node30</title>
<g id="a_edge55_Node000025_Node000030"><a xlink:title=" ">
<path fill="none" stroke="#63b8ff" d="M891.19,-275.84C911.52,-266.75 942.93,-252.69 964.86,-242.88"/>
<polygon fill="#63b8ff" stroke="#63b8ff" points="966.28,-246.08 973.97,-238.8 963.42,-239.69 966.28,-246.08"/>
</a>
</g>
</g>
<!-- Node31 -->
<g id="Node000031" class="node">
<title>Node31</title>
<g id="a_Node000031"><a xlink:title=" ">
<polygon fill="#e0e0e0" stroke="#999999" points="1068,-240.25 1022,-240.25 1022,-221 1068,-221 1068,-240.25"/>
<text text-anchor="middle" x="1045" y="-226.75" font-family="Helvetica,sans-Serif" font-size="10.00">iterator</text>
</a>
</g>
</g>
<!-- Node25&#45;&gt;Node31 -->
<g id="edge59_Node000025_Node000031" class="edge">
<title>Node25&#45;&gt;Node31</title>
<g id="a_edge59_Node000025_Node000031"><a xlink:title=" ">
<path fill="none" stroke="#63b8ff" d="M900.52,-275.84C931.13,-266.47 978.94,-251.84 1011.09,-242"/>
<polygon fill="#63b8ff" stroke="#63b8ff" points="1011.77,-245.45 1020.31,-239.18 1009.72,-238.76 1011.77,-245.45"/>
</a>
</g>
</g>
<!-- Node25&#45;&gt;Node32 -->
<g id="edge63_Node000025_Node000032" class="edge">
<title>Node25&#45;&gt;Node32</title>
<g id="a_edge63_Node000025_Node000032"><a xlink:title=" ">
<path fill="none" stroke="#63b8ff" d="M796.21,-275.77C731.03,-267.52 634.04,-254.51 550,-240.25 549.01,-240.08 548.02,-239.91 547.01,-239.73"/>
<polygon fill="#63b8ff" stroke="#63b8ff" points="548.06,-236.37 537.59,-237.98 546.78,-243.25 548.06,-236.37"/>
</a>
</g>
</g>
<!-- Node26&#45;&gt;Node2 -->
<g id="edge37_Node000026_Node000002" class="edge">
<title>Node26&#45;&gt;Node2</title>
<g id="a_edge37_Node000026_Node000002"><a xlink:title=" ">
<path fill="none" stroke="#63b8ff" d="M847.79,-220.56C880.45,-201.81 955.68,-158.62 995.38,-135.83"/>
<polygon fill="#63b8ff" stroke="#63b8ff" points="996.88,-139.01 1003.81,-130.99 993.4,-132.94 996.88,-139.01"/>
</a>
</g>
</g>
<!-- Node26&#45;&gt;Node5 -->
<g id="edge42_Node000026_Node000005" class="edge">
<title>Node26&#45;&gt;Node5</title>
<g id="a_edge42_Node000026_Node000005"><a xlink:title=" ">
<path fill="none" stroke="#63b8ff" d="M829.77,-220.71C823.81,-195.93 808.86,-126.92 823,-110.5 856.2,-71.95 993.5,-84.52 1060.54,-74.36"/>
<polygon fill="#63b8ff" stroke="#63b8ff" points="1061.13,-77.81 1070.33,-72.55 1059.85,-70.93 1061.13,-77.81"/>
</a>
</g>
</g>
<!-- Node26&#45;&gt;Node6 -->
<g id="edge43_Node000026_Node000006" class="edge">
<title>Node26&#45;&gt;Node6</title>
<g id="a_edge43_Node000026_Node000006"><a xlink:title=" ">
<path fill="none" stroke="#63b8ff" d="M826.8,-220.84C812.64,-196.39 775.41,-128.17 790,-110.5 813.16,-82.44 915.92,-71.83 976.31,-67.96"/>
<polygon fill="#63b8ff" stroke="#63b8ff" points="976.5,-71.46 986.27,-67.37 976.08,-64.47 976.5,-71.46"/>
</a>
</g>
</g>
<!-- Node26&#45;&gt;Node8 -->
<g id="edge38_Node000026_Node000008" class="edge">
<title>Node26&#45;&gt;Node8</title>
<g id="a_edge38_Node000026_Node000008"><a xlink:title=" ">
<path fill="none" stroke="#63b8ff" d="M882.54,-220.77C935.22,-211.54 1017.82,-197.08 1074.31,-187.18"/>
<polygon fill="#63b8ff" stroke="#63b8ff" points="1074.85,-190.64 1084.1,-185.47 1073.65,-183.74 1074.85,-190.64"/>
</a>
</g>
</g>
<!-- Node26&#45;&gt;Node17 -->
<g id="edge39_Node000026_Node000017" class="edge">
<title>Node26&#45;&gt;Node17</title>
<g id="a_edge39_Node000026_Node000017"><a xlink:title=" ">
<path fill="none" stroke="#63b8ff" d="M847.92,-220.58C859.77,-212.84 875.06,-200.5 882,-185 888.73,-169.97 881.46,-152.2 873.51,-139.23"/>
<polygon fill="#63b8ff" stroke="#63b8ff" points="876.61,-137.56 868.11,-131.25 870.82,-141.49 876.61,-137.56"/>
</a>
</g>
</g>
<!-- Node26&#45;&gt;Node19 -->
<g id="edge44_Node000026_Node000019" class="edge">
<title>Node26&#45;&gt;Node19</title>
<g id="a_edge44_Node000026_Node000019"><a xlink:title=" ">
<path fill="none" stroke="#63b8ff" d="M823.71,-220.51C811.88,-207.7 789.23,-183.92 768,-165.75 755.85,-155.35 741.44,-144.74 729.68,-136.47"/>
<polygon fill="#63b8ff" stroke="#63b8ff" points="731.99,-133.82 721.78,-131 728.01,-139.57 731.99,-133.82"/>
</a>
</g>
</g>
<!-- Node26&#45;&gt;Node23 -->
<g id="edge40_Node000026_Node000023" class="edge">
<title>Node26&#45;&gt;Node23</title>
<g id="a_edge40_Node000026_Node000023"><a xlink:title=" ">
<path fill="none" stroke="#63b8ff" d="M798.24,-220.59C763.67,-211.34 709.94,-196.96 673.19,-187.13"/>
<polygon fill="#63b8ff" stroke="#63b8ff" points="674.4,-183.83 663.84,-184.63 672.59,-190.59 674.4,-183.83"/>
</a>
</g>
</g>
<!-- Node26&#45;&gt;Node24 -->
<g id="edge41_Node000026_Node000024" class="edge">
<title>Node26&#45;&gt;Node24</title>
<g id="a_edge41_Node000026_Node000024"><a xlink:title=" ">
<path fill="none" stroke="#63b8ff" d="M810.12,-220.59C789.64,-212.14 758.79,-199.4 735.44,-189.77"/>
<polygon fill="#63b8ff" stroke="#63b8ff" points="736.97,-186.61 726.39,-186.03 734.3,-193.08 736.97,-186.61"/>
</a>
</g>
</g>
<!-- Node27&#45;&gt;Node2 -->
<g id="edge46_Node000027_Node000002" class="edge">
<title>Node27&#45;&gt;Node2</title>
<g id="a_edge46_Node000027_Node000002"><a xlink:title=" ">
<path fill="none" stroke="#63b8ff" d="M1318.27,-165.34C1251.51,-155.41 1145.03,-139.57 1079.27,-129.79"/>
<polygon fill="#63b8ff" stroke="#63b8ff" points="1080.18,-126.39 1069.78,-128.38 1079.15,-133.31 1080.18,-126.39"/>
</a>
</g>
</g>
<!-- Node27&#45;&gt;Node13 -->
<g id="edge50_Node000027_Node000013" class="edge">
<title>Node27&#45;&gt;Node13</title>
<g id="a_edge50_Node000027_Node000013"><a xlink:title=" ">
<path fill="none" stroke="#63b8ff" d="M1405.46,-165.34C1433.24,-155.86 1476.81,-140.99 1505.64,-131.15"/>
<polygon fill="#63b8ff" stroke="#63b8ff" points="1506.5,-134.55 1514.83,-128.01 1504.24,-127.93 1506.5,-134.55"/>
</a>
</g>
</g>
<!-- Node27&#45;&gt;Node17 -->
<g id="edge47_Node000027_Node000017" class="edge">
<title>Node27&#45;&gt;Node17</title>
<g id="a_edge47_Node000027_Node000017"><a xlink:title=" ">
<path fill="none" stroke="#63b8ff" d="M1318.17,-171.42C1228.57,-166.47 1055.7,-154.69 899.42,-129.92"/>
<polygon fill="#63b8ff" stroke="#63b8ff" points="900.13,-126.49 889.7,-128.36 899.01,-133.4 900.13,-126.49"/>
</a>
</g>
</g>
<!-- Node27&#45;&gt;Node19 -->
<g id="edge51_Node000027_Node000019" class="edge">
<title>Node27&#45;&gt;Node19</title>
<g id="a_edge51_Node000027_Node000019"><a xlink:title=" ">
<path fill="none" stroke="#63b8ff" d="M1318.18,-169.56C1183.85,-158.91 864.63,-133.62 749.41,-124.49"/>
<polygon fill="#63b8ff" stroke="#63b8ff" points="749.71,-121 739.46,-123.7 749.16,-127.98 749.71,-121"/>
</a>
</g>
</g>
<!-- Node27&#45;&gt;Node28 -->
<g id="edge48_Node000027_Node000028" class="edge">
<title>Node27&#45;&gt;Node28</title>
<g id="a_edge48_Node000027_Node000028"><a xlink:title=" ">
<path fill="none" stroke="#63b8ff" d="M1395.12,-165.34C1409.58,-157.23 1431.08,-145.18 1447.98,-135.71"/>
<polygon fill="#63b8ff" stroke="#63b8ff" points="1449.47,-138.89 1456.49,-130.94 1446.05,-132.78 1449.47,-138.89"/>
</a>
</g>
</g>
<!-- Node29 -->
<g id="Node000029" class="node">
<title>Node29</title>
<g id="a_Node000029"><a xlink:title=" ">
<polygon fill="#e0e0e0" stroke="#999999" points="1431.62,-129.75 1386.38,-129.75 1386.38,-110.5 1431.62,-110.5 1431.62,-129.75"/>
<text text-anchor="middle" x="1409" y="-116.25" font-family="Helvetica,sans-Serif" font-size="10.00">cstdint</text>
</a>
</g>
</g>
<!-- Node27&#45;&gt;Node29 -->
<g id="edge49_Node000027_Node000029" class="edge">
<title>Node27&#45;&gt;Node29</title>
<g id="a_edge49_Node000027_Node000029"><a xlink:title=" ">
<path fill="none" stroke="#63b8ff" d="M1383.95,-165.58C1387.88,-158.61 1393.51,-148.62 1398.44,-139.87"/>
<polygon fill="#63b8ff" stroke="#63b8ff" points="1401.34,-141.86 1403.2,-131.43 1395.24,-138.42 1401.34,-141.86"/>
</a>
</g>
</g>
</g>
</svg>
