<?xml version="1.0" encoding="UTF-8" standalone="no"?>
<!DOCTYPE svg PUBLIC "-//W3C//DTD SVG 1.1//EN"
 "http://www.w3.org/Graphics/SVG/1.1/DTD/svg11.dtd">
<!-- Generated by graphviz version 12.2.1 (20241206.2353)
 -->
<!-- Title: mimic++/Call.hpp Pages: 1 -->
<svg width="1235pt" height="359pt"
 viewBox="0.00 0.00 1235.00 358.75" xmlns="http://www.w3.org/2000/svg" xmlns:xlink="http://www.w3.org/1999/xlink">
<g id="graph0" class="graph" transform="scale(1 1) rotate(0) translate(4 354.75)">
<title>mimic++/Call.hpp</title>
<!-- Node1 -->
<g id="Node000001" class="node">
<title>Node1</title>
<g id="a_Node000001"><a xlink:title=" ">
<polygon fill="#999999" stroke="#666666" points="159.88,-350.75 68.12,-350.75 68.12,-331.5 159.88,-331.5 159.88,-350.75"/>
<text text-anchor="middle" x="114" y="-337.25" font-family="Helvetica,sans-Serif" font-size="10.00">mimic++/Call.hpp</text>
</a>
</g>
</g>
<!-- Node2 -->
<g id="Node000002" class="node">
<title>Node2</title>
<g id="a_Node000002"><a xlink:href="../../df/dde/_fwd_8hpp.html" target="_top" xlink:title=" ">
<polygon fill="white" stroke="#666666" points="409,-74.5 315,-74.5 315,-55.25 409,-55.25 409,-74.5"/>
<text text-anchor="middle" x="362" y="-61" font-family="Helvetica,sans-Serif" font-size="10.00">mimic++/Fwd.hpp</text>
</a>
</g>
</g>
<!-- Node1&#45;&gt;Node2 -->
<g id="edge1_Node000001_Node000002" class="edge">
<title>Node1&#45;&gt;Node2</title>
<g id="a_edge1_Node000001_Node000002"><a xlink:title=" ">
<path fill="none" stroke="#63b8ff" d="M99.9,-331.03C88.32,-322.93 72.23,-310.12 62,-295.5 44.61,-270.65 38,-261.95 38,-231.62 38,-231.62 38,-231.62 38,-174.38 38,-119.07 209.91,-86.76 303.28,-73.3"/>
<polygon fill="#63b8ff" stroke="#63b8ff" points="303.63,-76.78 313.04,-71.92 302.65,-69.85 303.63,-76.78"/>
</a>
</g>
</g>
<!-- Node6 -->
<g id="Node000006" class="node">
<title>Node6</title>
<g id="a_Node000006"><a xlink:href="../../de/df5/_stacktrace_8hpp.html" target="_top" xlink:title=" ">
<polygon fill="white" stroke="#666666" points="911.25,-295.5 788.75,-295.5 788.75,-276.25 911.25,-276.25 911.25,-295.5"/>
<text text-anchor="middle" x="850" y="-282" font-family="Helvetica,sans-Serif" font-size="10.00">mimic++/Stacktrace.hpp</text>
</a>
</g>
</g>
<!-- Node1&#45;&gt;Node6 -->
<g id="edge5_Node000001_Node000006" class="edge">
<title>Node1&#45;&gt;Node6</title>
<g id="a_edge5_Node000001_Node000006"><a xlink:title=" ">
<path fill="none" stroke="#63b8ff" d="M160.32,-336.77C284.64,-327.78 626.4,-303.05 777.05,-292.15"/>
<polygon fill="#63b8ff" stroke="#63b8ff" points="777.2,-295.65 786.92,-291.44 776.69,-288.67 777.2,-295.65"/>
</a>
</g>
</g>
<!-- Node13 -->
<g id="Node000013" class="node">
<title>Node13</title>
<g id="a_Node000013"><a xlink:title=" ">
<polygon fill="#e0e0e0" stroke="#999999" points="650.12,-74.5 565.88,-74.5 565.88,-55.25 650.12,-55.25 650.12,-74.5"/>
<text text-anchor="middle" x="608" y="-61" font-family="Helvetica,sans-Serif" font-size="10.00">source_location</text>
</a>
</g>
</g>
<!-- Node1&#45;&gt;Node13 -->
<g id="edge55_Node000001_Node000013" class="edge">
<title>Node1&#45;&gt;Node13</title>
<g id="a_edge55_Node000001_Node000013"><a xlink:title=" ">
<path fill="none" stroke="#63b8ff" d="M112.54,-331.04C107.25,-294.42 93.2,-157.27 171,-110.5 203.2,-91.14 444.79,-75.14 554.31,-68.8"/>
<polygon fill="#63b8ff" stroke="#63b8ff" points="554.44,-72.3 564.23,-68.24 554.04,-65.31 554.44,-72.3"/>
</a>
</g>
</g>
<!-- Node14 -->
<g id="Node000014" class="node">
<title>Node14</title>
<g id="a_Node000014"><a xlink:title=" ">
<polygon fill="#e0e0e0" stroke="#999999" points="132.5,-74.5 95.5,-74.5 95.5,-55.25 132.5,-55.25 132.5,-74.5"/>
<text text-anchor="middle" x="114" y="-61" font-family="Helvetica,sans-Serif" font-size="10.00">tuple</text>
</a>
</g>
</g>
<!-- Node1&#45;&gt;Node14 -->
<g id="edge56_Node000001_Node000014" class="edge">
<title>Node1&#45;&gt;Node14</title>
<g id="a_edge56_Node000001_Node000014"><a xlink:title=" ">
<path fill="none" stroke="#63b8ff" d="M82.41,-331.04C63.24,-324.08 39.55,-312.71 24,-295.5 3.66,-273 0,-261.95 0,-231.62 0,-231.62 0,-231.62 0,-174.38 0,-144.05 3.66,-133 24,-110.5 40.13,-92.65 65.01,-81.08 84.52,-74.21"/>
<polygon fill="#63b8ff" stroke="#63b8ff" points="85.43,-77.59 93.84,-71.16 83.25,-70.94 85.43,-77.59"/>
</a>
</g>
</g>
<!-- Node15 -->
<g id="Node000015" class="node">
<title>Node15</title>
<g id="a_Node000015"><a xlink:title=" ">
<polygon fill="#e0e0e0" stroke="#999999" points="1157.25,-74.5 1118.75,-74.5 1118.75,-55.25 1157.25,-55.25 1157.25,-74.5"/>
<text text-anchor="middle" x="1138" y="-61" font-family="Helvetica,sans-Serif" font-size="10.00">utility</text>
</a>
</g>
</g>
<!-- Node1&#45;&gt;Node15 -->
<g id="edge57_Node000001_Node000015" class="edge">
<title>Node1&#45;&gt;Node15</title>
<g id="a_edge57_Node000001_Node000015"><a xlink:title=" ">
<path fill="none" stroke="#63b8ff" d="M160.06,-340.55C370.1,-341.88 1227,-340.65 1227,-231.62 1227,-231.62 1227,-231.62 1227,-174.38 1227,-133.54 1188.86,-99.67 1162.51,-81.15"/>
<polygon fill="#63b8ff" stroke="#63b8ff" points="1164.61,-78.34 1154.35,-75.66 1160.7,-84.15 1164.61,-78.34"/>
</a>
</g>
</g>
<!-- Node20 -->
<g id="Node000020" class="node">
<title>Node20</title>
<g id="a_Node000020"><a xlink:href="../../d8/d32/_type_traits_8hpp.html" target="_top" xlink:title=" ">
<polygon fill="white" stroke="#666666" points="263.5,-185 142.5,-185 142.5,-165.75 263.5,-165.75 263.5,-185"/>
<text text-anchor="middle" x="203" y="-171.5" font-family="Helvetica,sans-Serif" font-size="10.00">mimic++/TypeTraits.hpp</text>
</a>
</g>
</g>
<!-- Node1&#45;&gt;Node20 -->
<g id="edge54_Node000001_Node000020" class="edge">
<title>Node1&#45;&gt;Node20</title>
<g id="a_edge54_Node000001_Node000020"><a xlink:title=" ">
<path fill="none" stroke="#63b8ff" d="M118.79,-331.32C132.73,-305.67 173.55,-230.55 192.77,-195.19"/>
<polygon fill="#63b8ff" stroke="#63b8ff" points="195.77,-197.01 197.47,-186.55 189.62,-193.67 195.77,-197.01"/>
</a>
</g>
</g>
<!-- Node3 -->
<g id="Node000003" class="node">
<title>Node3</title>
<g id="a_Node000003"><a xlink:title=" ">
<polygon fill="#e0e0e0" stroke="#999999" points="457,-19.25 417,-19.25 417,0 457,0 457,-19.25"/>
<text text-anchor="middle" x="437" y="-5.75" font-family="Helvetica,sans-Serif" font-size="10.00">string</text>
</a>
</g>
</g>
<!-- Node2&#45;&gt;Node3 -->
<g id="edge2_Node000002_Node000003" class="edge">
<title>Node2&#45;&gt;Node3</title>
<g id="a_edge2_Node000002_Node000003"><a xlink:title=" ">
<path fill="none" stroke="#63b8ff" d="M374.72,-54.84C385.71,-47.04 401.84,-35.59 414.93,-26.29"/>
<polygon fill="#63b8ff" stroke="#63b8ff" points="416.85,-29.22 422.98,-20.58 412.8,-23.51 416.85,-29.22"/>
</a>
</g>
</g>
<!-- Node4 -->
<g id="Node000004" class="node">
<title>Node4</title>
<g id="a_Node000004"><a xlink:title=" ">
<polygon fill="#e0e0e0" stroke="#999999" points="767.75,-19.25 702.25,-19.25 702.25,0 767.75,0 767.75,-19.25"/>
<text text-anchor="middle" x="735" y="-5.75" font-family="Helvetica,sans-Serif" font-size="10.00">string_view</text>
</a>
</g>
</g>
<!-- Node2&#45;&gt;Node4 -->
<g id="edge3_Node000002_Node000004" class="edge">
<title>Node2&#45;&gt;Node4</title>
<g id="a_edge3_Node000002_Node000004"><a xlink:title=" ">
<path fill="none" stroke="#63b8ff" d="M409.24,-57.13C481.85,-46.77 619.88,-27.06 690.68,-16.95"/>
<polygon fill="#63b8ff" stroke="#63b8ff" points="690.96,-20.45 700.36,-15.57 689.97,-13.52 690.96,-20.45"/>
</a>
</g>
</g>
<!-- Node5 -->
<g id="Node000005" class="node">
<title>Node5</title>
<g id="a_Node000005"><a xlink:title=" ">
<polygon fill="#e0e0e0" stroke="#999999" points="385.75,-19.25 338.25,-19.25 338.25,0 385.75,0 385.75,-19.25"/>
<text text-anchor="middle" x="362" y="-5.75" font-family="Helvetica,sans-Serif" font-size="10.00">version</text>
</a>
</g>
</g>
<!-- Node2&#45;&gt;Node5 -->
<g id="edge4_Node000002_Node000005" class="edge">
<title>Node2&#45;&gt;Node5</title>
<g id="a_edge4_Node000002_Node000005"><a xlink:title=" ">
<path fill="none" stroke="#63b8ff" d="M362,-55.08C362,-48.57 362,-39.42 362,-31.12"/>
<polygon fill="#63b8ff" stroke="#63b8ff" points="365.5,-31.12 362,-21.12 358.5,-31.12 365.5,-31.12"/>
</a>
</g>
</g>
<!-- Node6&#45;&gt;Node2 -->
<g id="edge6_Node000006_Node000002" class="edge">
<title>Node6&#45;&gt;Node2</title>
<g id="a_edge6_Node000006_Node000002"><a xlink:title=" ">
<path fill="none" stroke="#63b8ff" d="M788.28,-280.99C622.16,-269.88 175.3,-235.53 134,-185 82.46,-121.94 220.05,-88.27 303.47,-74.12"/>
<polygon fill="#63b8ff" stroke="#63b8ff" points="303.81,-77.61 313.11,-72.54 302.68,-70.7 303.81,-77.61"/>
</a>
</g>
</g>
<!-- Node7 -->
<g id="Node000007" class="node">
<title>Node7</title>
<g id="a_Node000007"><a xlink:href="../../da/dab/_printer_8hpp.html" target="_top" xlink:title=" ">
<polygon fill="white" stroke="#666666" points="706.88,-240.25 603.12,-240.25 603.12,-221 706.88,-221 706.88,-240.25"/>
<text text-anchor="middle" x="655" y="-226.75" font-family="Helvetica,sans-Serif" font-size="10.00">mimic++/Printer.hpp</text>
</a>
</g>
</g>
<!-- Node6&#45;&gt;Node7 -->
<g id="edge7_Node000006_Node000007" class="edge">
<title>Node6&#45;&gt;Node7</title>
<g id="a_edge7_Node000006_Node000007"><a xlink:title=" ">
<path fill="none" stroke="#63b8ff" d="M816.92,-275.84C784.56,-267.01 735.08,-253.49 699.33,-243.73"/>
<polygon fill="#63b8ff" stroke="#63b8ff" points="700.27,-240.36 689.7,-241.1 698.43,-247.11 700.27,-240.36"/>
</a>
</g>
</g>
<!-- Node9 -->
<g id="Node000009" class="node">
<title>Node9</title>
<g id="a_Node000009"><a xlink:href="../../d4/d2c/_utility_8hpp.html" target="_top" xlink:title=" ">
<polygon fill="white" stroke="#666666" points="958,-129.75 858,-129.75 858,-110.5 958,-110.5 958,-129.75"/>
<text text-anchor="middle" x="908" y="-116.25" font-family="Helvetica,sans-Serif" font-size="10.00">mimic++/Utility.hpp</text>
</a>
</g>
</g>
<!-- Node6&#45;&gt;Node9 -->
<g id="edge45_Node000006_Node000009" class="edge">
<title>Node6&#45;&gt;Node9</title>
<g id="a_edge45_Node000006_Node000009"><a xlink:title=" ">
<path fill="none" stroke="#63b8ff" d="M853.74,-276.05C857.5,-267.09 863.37,-252.79 868,-240.25 880.8,-205.57 894.18,-164.6 901.77,-140.87"/>
<polygon fill="#63b8ff" stroke="#63b8ff" points="905.02,-142.19 904.71,-131.6 898.35,-140.07 905.02,-142.19"/>
</a>
</g>
</g>
<!-- Node6&#45;&gt;Node15 -->
<g id="edge52_Node000006_Node000015" class="edge">
<title>Node6&#45;&gt;Node15</title>
<g id="a_edge52_Node000006_Node000015"><a xlink:title=" ">
<path fill="none" stroke="#63b8ff" d="M911.54,-285.46C994.92,-284.79 1137.18,-277.96 1170,-240.25 1209,-195.43 1170.99,-119.06 1149.93,-84.2"/>
<polygon fill="#63b8ff" stroke="#63b8ff" points="1153.12,-82.7 1144.85,-76.08 1147.19,-86.41 1153.12,-82.7"/>
</a>
</g>
</g>
<!-- Node17 -->
<g id="Node000017" class="node">
<title>Node17</title>
<g id="a_Node000017"><a xlink:title=" ">
<polygon fill="#e0e0e0" stroke="#999999" points="840,-129.75 782,-129.75 782,-110.5 840,-110.5 840,-129.75"/>
<text text-anchor="middle" x="811" y="-116.25" font-family="Helvetica,sans-Serif" font-size="10.00">functional</text>
</a>
</g>
</g>
<!-- Node6&#45;&gt;Node17 -->
<g id="edge48_Node000006_Node000017" class="edge">
<title>Node6&#45;&gt;Node17</title>
<g id="a_edge48_Node000006_Node000017"><a xlink:title=" ">
<path fill="none" stroke="#63b8ff" d="M851.75,-276.09C853.93,-263.69 856.91,-240.37 853,-221 847.03,-191.41 832.04,-159.66 821.68,-140.1"/>
<polygon fill="#63b8ff" stroke="#63b8ff" points="824.81,-138.52 816.95,-131.42 818.67,-141.88 824.81,-138.52"/>
</a>
</g>
</g>
<!-- Node18 -->
<g id="Node000018" class="node">
<title>Node18</title>
<g id="a_Node000018"><a xlink:title=" ">
<polygon fill="#e0e0e0" stroke="#999999" points="1059.62,-129.75 1014.38,-129.75 1014.38,-110.5 1059.62,-110.5 1059.62,-129.75"/>
<text text-anchor="middle" x="1037" y="-116.25" font-family="Helvetica,sans-Serif" font-size="10.00">ranges</text>
</a>
</g>
</g>
<!-- Node6&#45;&gt;Node18 -->
<g id="edge49_Node000006_Node000018" class="edge">
<title>Node6&#45;&gt;Node18</title>
<g id="a_edge49_Node000006_Node000018"><a xlink:title=" ">
<path fill="none" stroke="#63b8ff" d="M860.32,-275.84C890.66,-249.27 979.86,-171.16 1018.64,-137.2"/>
<polygon fill="#63b8ff" stroke="#63b8ff" points="1020.58,-140.15 1025.8,-130.93 1015.97,-134.89 1020.58,-140.15"/>
</a>
</g>
</g>
<!-- Node19 -->
<g id="Node000019" class="node">
<title>Node19</title>
<g id="a_Node000019"><a xlink:title=" ">
<polygon fill="#e0e0e0" stroke="#999999" points="408.5,-129.75 347.5,-129.75 347.5,-110.5 408.5,-110.5 408.5,-129.75"/>
<text text-anchor="middle" x="378" y="-116.25" font-family="Helvetica,sans-Serif" font-size="10.00">type_traits</text>
</a>
</g>
</g>
<!-- Node6&#45;&gt;Node19 -->
<g id="edge51_Node000006_Node000019" class="edge">
<title>Node6&#45;&gt;Node19</title>
<g id="a_edge51_Node000006_Node000019"><a xlink:title=" ">
<path fill="none" stroke="#63b8ff" d="M788.48,-282.01C667.87,-274.94 407.4,-252.09 354,-185 343.2,-171.43 352.61,-152.48 362.64,-138.75"/>
<polygon fill="#63b8ff" stroke="#63b8ff" points="365.32,-141 368.83,-131 359.85,-136.63 365.32,-141"/>
</a>
</g>
</g>
<!-- Node26 -->
<g id="Node000026" class="node">
<title>Node26</title>
<g id="a_Node000026"><a xlink:title=" ">
<polygon fill="#e0e0e0" stroke="#999999" points="794.88,-240.25 739.12,-240.25 739.12,-221 794.88,-221 794.88,-240.25"/>
<text text-anchor="middle" x="767" y="-226.75" font-family="Helvetica,sans-Serif" font-size="10.00">algorithm</text>
</a>
</g>
</g>
<!-- Node6&#45;&gt;Node26 -->
<g id="edge46_Node000006_Node000026" class="edge">
<title>Node6&#45;&gt;Node26</title>
<g id="a_edge46_Node000006_Node000026"><a xlink:title=" ">
<path fill="none" stroke="#63b8ff" d="M835.92,-275.84C823.52,-267.89 805.21,-256.14 790.57,-246.75"/>
<polygon fill="#63b8ff" stroke="#63b8ff" points="792.73,-243.97 782.42,-241.52 788.95,-249.87 792.73,-243.97"/>
</a>
</g>
</g>
<!-- Node27 -->
<g id="Node000027" class="node">
<title>Node27</title>
<g id="a_Node000027"><a xlink:title=" ">
<polygon fill="#e0e0e0" stroke="#999999" points="843.5,-240.25 812.5,-240.25 812.5,-221 843.5,-221 843.5,-240.25"/>
<text text-anchor="middle" x="828" y="-226.75" font-family="Helvetica,sans-Serif" font-size="10.00">any</text>
</a>
</g>
</g>
<!-- Node6&#45;&gt;Node27 -->
<g id="edge47_Node000006_Node000027" class="edge">
<title>Node6&#45;&gt;Node27</title>
<g id="a_edge47_Node000006_Node000027"><a xlink:title=" ">
<path fill="none" stroke="#63b8ff" d="M846.37,-276.08C843.58,-269.34 839.63,-259.77 836.1,-251.24"/>
<polygon fill="#63b8ff" stroke="#63b8ff" points="839.34,-249.91 832.29,-242.01 832.87,-252.59 839.34,-249.91"/>
</a>
</g>
</g>
<!-- Node28 -->
<g id="Node000028" class="node">
<title>Node28</title>
<g id="a_Node000028"><a xlink:title=" ">
<polygon fill="#e0e0e0" stroke="#999999" points="1097,-240.25 1039,-240.25 1039,-221 1097,-221 1097,-240.25"/>
<text text-anchor="middle" x="1068" y="-226.75" font-family="Helvetica,sans-Serif" font-size="10.00">stdexcept</text>
</a>
</g>
</g>
<!-- Node6&#45;&gt;Node28 -->
<g id="edge50_Node000006_Node000028" class="edge">
<title>Node6&#45;&gt;Node28</title>
<g id="a_edge50_Node000006_Node000028"><a xlink:title=" ">
<path fill="none" stroke="#63b8ff" d="M886.98,-275.84C925.98,-266.32 987.25,-251.35 1027.52,-241.51"/>
<polygon fill="#63b8ff" stroke="#63b8ff" points="1028.19,-244.95 1037.07,-239.18 1026.53,-238.15 1028.19,-244.95"/>
</a>
</g>
</g>
<!-- Node29 -->
<g id="Node000029" class="node">
<title>Node29</title>
<g id="a_Node000029"><a xlink:title=" ">
<polygon fill="#e0e0e0" stroke="#999999" points="1160.62,-240.25 1115.38,-240.25 1115.38,-221 1160.62,-221 1160.62,-240.25"/>
<text text-anchor="middle" x="1138" y="-226.75" font-family="Helvetica,sans-Serif" font-size="10.00">variant</text>
</a>
</g>
</g>
<!-- Node6&#45;&gt;Node29 -->
<g id="edge53_Node000006_Node000029" class="edge">
<title>Node6&#45;&gt;Node29</title>
<g id="a_edge53_Node000006_Node000029"><a xlink:title=" ">
<path fill="none" stroke="#63b8ff" d="M911.34,-275.78C960.85,-268.08 1032.51,-256.12 1103.99,-240.53"/>
<polygon fill="#63b8ff" stroke="#63b8ff" points="1104.5,-244 1113.51,-238.42 1102.99,-237.16 1104.5,-244"/>
</a>
</g>
</g>
<!-- Node7&#45;&gt;Node2 -->
<g id="edge8_Node000007_Node000002" class="edge">
<title>Node7&#45;&gt;Node2</title>
<g id="a_edge8_Node000007_Node000002"><a xlink:title=" ">
<path fill="none" stroke="#63b8ff" d="M646.83,-220.85C634.15,-207.6 608.52,-182.29 583,-165.75 566.07,-154.77 450.55,-104.22 393.6,-79.53"/>
<polygon fill="#63b8ff" stroke="#63b8ff" points="395,-76.32 384.43,-75.55 392.21,-82.74 395,-76.32"/>
</a>
</g>
</g>
<!-- Node7&#45;&gt;Node3 -->
<g id="edge41_Node000007_Node000003" class="edge">
<title>Node7&#45;&gt;Node3</title>
<g id="a_edge41_Node000007_Node000003"><a xlink:title=" ">
<path fill="none" stroke="#63b8ff" d="M602.78,-228.63C532.77,-226.07 414.1,-216.98 387,-185 367.31,-161.76 416.32,-133.37 418,-129.75 433.02,-97.38 436.46,-55.33 437.09,-30.83"/>
<polygon fill="#63b8ff" stroke="#63b8ff" points="440.58,-31.02 437.18,-20.98 433.59,-30.95 440.58,-31.02"/>
</a>
</g>
</g>
<!-- Node7&#45;&gt;Node4 -->
<g id="edge42_Node000007_Node000004" class="edge">
<title>Node7&#45;&gt;Node4</title>
<g id="a_edge42_Node000007_Node000004"><a xlink:title=" ">
<path fill="none" stroke="#63b8ff" d="M707.33,-224.28C732.79,-218.74 761.24,-207.55 777,-185 785.91,-172.25 755.34,-73.23 741.48,-30.33"/>
<polygon fill="#63b8ff" stroke="#63b8ff" points="744.89,-29.49 738.46,-21.06 738.23,-31.66 744.89,-29.49"/>
</a>
</g>
</g>
<!-- Node8 -->
<g id="Node000008" class="node">
<title>Node8</title>
<g id="a_Node000008"><a xlink:href="../../d9/dc5/_string_8hpp.html" target="_top" xlink:title=" ">
<polygon fill="white" stroke="#666666" points="768.38,-185 667.62,-185 667.62,-165.75 768.38,-165.75 768.38,-185"/>
<text text-anchor="middle" x="718" y="-171.5" font-family="Helvetica,sans-Serif" font-size="10.00">mimic++/String.hpp</text>
</a>
</g>
</g>
<!-- Node7&#45;&gt;Node8 -->
<g id="edge9_Node000007_Node000008" class="edge">
<title>Node7&#45;&gt;Node8</title>
<g id="a_edge9_Node000007_Node000008"><a xlink:title=" ">
<path fill="none" stroke="#63b8ff" d="M665.69,-220.59C674.7,-212.97 687.83,-201.87 698.68,-192.7"/>
<polygon fill="#63b8ff" stroke="#63b8ff" points="700.94,-195.38 706.31,-186.25 696.42,-190.03 700.94,-195.38"/>
</a>
</g>
</g>
<!-- Node7&#45;&gt;Node9 -->
<g id="edge33_Node000007_Node000009" class="edge">
<title>Node7&#45;&gt;Node9</title>
<g id="a_edge33_Node000007_Node000009"><a xlink:title=" ">
<path fill="none" stroke="#63b8ff" d="M707.36,-222.04C742.77,-215.51 789.84,-204.05 828,-185 852.46,-172.79 876.41,-152.19 891.63,-137.69"/>
<polygon fill="#63b8ff" stroke="#63b8ff" points="893.74,-140.53 898.44,-131.03 888.84,-135.52 893.74,-140.53"/>
</a>
</g>
</g>
<!-- Node12 -->
<g id="Node000012" class="node">
<title>Node12</title>
<g id="a_Node000012"><a xlink:title=" ">
<polygon fill="#e0e0e0" stroke="#999999" points="1001.88,-74.5 952.12,-74.5 952.12,-55.25 1001.88,-55.25 1001.88,-74.5"/>
<text text-anchor="middle" x="977" y="-61" font-family="Helvetica,sans-Serif" font-size="10.00">optional</text>
</a>
</g>
</g>
<!-- Node7&#45;&gt;Node12 -->
<g id="edge37_Node000007_Node000012" class="edge">
<title>Node7&#45;&gt;Node12</title>
<g id="a_edge37_Node000007_Node000012"><a xlink:title=" ">
<path fill="none" stroke="#63b8ff" d="M707.16,-220.51C787.63,-205.27 936,-172.08 967,-129.75 976.15,-117.26 978.34,-99.69 978.42,-86.14"/>
<polygon fill="#63b8ff" stroke="#63b8ff" points="981.92,-86.05 978.06,-76.18 974.92,-86.3 981.92,-86.05"/>
</a>
</g>
</g>
<!-- Node7&#45;&gt;Node13 -->
<g id="edge39_Node000007_Node000013" class="edge">
<title>Node7&#45;&gt;Node13</title>
<g id="a_edge39_Node000007_Node000013"><a xlink:title=" ">
<path fill="none" stroke="#63b8ff" d="M652.47,-220.82C645.17,-195.39 623.92,-121.35 613.67,-85.62"/>
<polygon fill="#63b8ff" stroke="#63b8ff" points="617.08,-84.82 610.96,-76.18 610.35,-86.75 617.08,-84.82"/>
</a>
</g>
</g>
<!-- Node7&#45;&gt;Node15 -->
<g id="edge43_Node000007_Node000015" class="edge">
<title>Node7&#45;&gt;Node15</title>
<g id="a_edge43_Node000007_Node000015"><a xlink:title=" ">
<path fill="none" stroke="#63b8ff" d="M707.17,-223.36C798.27,-212.33 977.96,-190.12 991,-185 1047.34,-162.88 1098.74,-110.88 1123.12,-83.48"/>
<polygon fill="#63b8ff" stroke="#63b8ff" points="1125.66,-85.89 1129.58,-76.04 1120.38,-81.29 1125.66,-85.89"/>
</a>
</g>
</g>
<!-- Node7&#45;&gt;Node17 -->
<g id="edge35_Node000007_Node000017" class="edge">
<title>Node7&#45;&gt;Node17</title>
<g id="a_edge35_Node000007_Node000017"><a xlink:title=" ">
<path fill="none" stroke="#63b8ff" d="M707.36,-221.36C747.23,-213.88 797.37,-201.51 810,-185 819.39,-172.73 818.85,-154.89 816.42,-141.18"/>
<polygon fill="#63b8ff" stroke="#63b8ff" points="819.85,-140.48 814.21,-131.51 813.02,-142.04 819.85,-140.48"/>
</a>
</g>
</g>
<!-- Node7&#45;&gt;Node18 -->
<g id="edge38_Node000007_Node000018" class="edge">
<title>Node7&#45;&gt;Node18</title>
<g id="a_edge38_Node000007_Node000018"><a xlink:title=" ">
<path fill="none" stroke="#63b8ff" d="M707.18,-223.64C788.68,-214.05 939.27,-195.28 962,-185 986,-174.14 1008.27,-153.22 1022.21,-138.29"/>
<polygon fill="#63b8ff" stroke="#63b8ff" points="1024.65,-140.8 1028.73,-131.02 1019.44,-136.12 1024.65,-140.8"/>
</a>
</g>
</g>
<!-- Node7&#45;&gt;Node20 -->
<g id="edge26_Node000007_Node000020" class="edge">
<title>Node7&#45;&gt;Node20</title>
<g id="a_edge26_Node000007_Node000020"><a xlink:title=" ">
<path fill="none" stroke="#63b8ff" d="M602.71,-223.46C521.92,-213.95 366.58,-195.65 275.16,-184.88"/>
<polygon fill="#63b8ff" stroke="#63b8ff" points="275.63,-181.41 265.29,-183.71 274.81,-188.36 275.63,-181.41"/>
</a>
</g>
</g>
<!-- Node22 -->
<g id="Node000022" class="node">
<title>Node22</title>
<g id="a_Node000022"><a xlink:title=" ">
<polygon fill="#e0e0e0" stroke="#999999" points="329.62,-129.75 284.38,-129.75 284.38,-110.5 329.62,-110.5 329.62,-129.75"/>
<text text-anchor="middle" x="307" y="-116.25" font-family="Helvetica,sans-Serif" font-size="10.00">cstdint</text>
</a>
</g>
</g>
<!-- Node7&#45;&gt;Node22 -->
<g id="edge34_Node000007_Node000022" class="edge">
<title>Node7&#45;&gt;Node22</title>
<g id="a_edge34_Node000007_Node000022"><a xlink:title=" ">
<path fill="none" stroke="#63b8ff" d="M602.87,-226.71C528.1,-221.72 394.91,-209.62 354,-185 336.52,-174.48 323.52,-154.73 315.68,-139.96"/>
<polygon fill="#63b8ff" stroke="#63b8ff" points="318.94,-138.65 311.37,-131.24 312.66,-141.75 318.94,-138.65"/>
</a>
</g>
</g>
<!-- Node23 -->
<g id="Node000023" class="node">
<title>Node23</title>
<g id="a_Node000023"><a xlink:title=" ">
<polygon fill="#e0e0e0" stroke="#999999" points="442,-185 396,-185 396,-165.75 442,-165.75 442,-185"/>
<text text-anchor="middle" x="419" y="-171.5" font-family="Helvetica,sans-Serif" font-size="10.00">iterator</text>
</a>
</g>
</g>
<!-- Node7&#45;&gt;Node23 -->
<g id="edge36_Node000007_Node000023" class="edge">
<title>Node7&#45;&gt;Node23</title>
<g id="a_edge36_Node000007_Node000023"><a xlink:title=" ">
<path fill="none" stroke="#63b8ff" d="M610.69,-220.57C571.7,-212.46 513.13,-199.94 453.52,-185.53"/>
<polygon fill="#63b8ff" stroke="#63b8ff" points="454.4,-182.14 443.86,-183.17 452.74,-188.94 454.4,-182.14"/>
</a>
</g>
</g>
<!-- Node24 -->
<g id="Node000024" class="node">
<title>Node24</title>
<g id="a_Node000024"><a xlink:title=" ">
<polygon fill="#e0e0e0" stroke="#999999" points="511.62,-185 460.38,-185 460.38,-165.75 511.62,-165.75 511.62,-185"/>
<text text-anchor="middle" x="486" y="-171.5" font-family="Helvetica,sans-Serif" font-size="10.00">sstream</text>
</a>
</g>
</g>
<!-- Node7&#45;&gt;Node24 -->
<g id="edge40_Node000007_Node000024" class="edge">
<title>Node7&#45;&gt;Node24</title>
<g id="a_edge40_Node000007_Node000024"><a xlink:title=" ">
<path fill="none" stroke="#63b8ff" d="M626.33,-220.59C597.81,-211.61 553.94,-197.78 522.85,-187.99"/>
<polygon fill="#63b8ff" stroke="#63b8ff" points="524.06,-184.7 513.47,-185.03 521.96,-191.38 524.06,-184.7"/>
</a>
</g>
</g>
<!-- Node25 -->
<g id="Node000025" class="node">
<title>Node25</title>
<g id="a_Node000025"><a xlink:title=" ">
<polygon fill="#e0e0e0" stroke="#999999" points="573.88,-185 530.12,-185 530.12,-165.75 573.88,-165.75 573.88,-185"/>
<text text-anchor="middle" x="552" y="-171.5" font-family="Helvetica,sans-Serif" font-size="10.00">format</text>
</a>
</g>
</g>
<!-- Node7&#45;&gt;Node25 -->
<g id="edge44_Node000007_Node000025" class="edge">
<title>Node7&#45;&gt;Node25</title>
<g id="a_edge44_Node000007_Node000025"><a xlink:title=" ">
<path fill="none" stroke="#63b8ff" d="M637.53,-220.59C621.69,-212.41 598.09,-200.21 579.69,-190.69"/>
<polygon fill="#63b8ff" stroke="#63b8ff" points="581.39,-187.63 570.9,-186.15 578.18,-193.85 581.39,-187.63"/>
</a>
</g>
</g>
<!-- Node8&#45;&gt;Node2 -->
<g id="edge10_Node000008_Node000002" class="edge">
<title>Node8&#45;&gt;Node2</title>
<g id="a_edge10_Node000008_Node000002"><a xlink:title=" ">
<path fill="none" stroke="#63b8ff" d="M702.31,-165.4C677.67,-151.67 628.03,-125.45 583,-110.5 529.35,-92.69 465.89,-80.77 420.77,-73.76"/>
<polygon fill="#63b8ff" stroke="#63b8ff" points="421.33,-70.31 410.92,-72.27 420.28,-77.23 421.33,-70.31"/>
</a>
</g>
</g>
<!-- Node8&#45;&gt;Node3 -->
<g id="edge23_Node000008_Node000003" class="edge">
<title>Node8&#45;&gt;Node3</title>
<g id="a_edge23_Node000008_Node000003"><a xlink:title=" ">
<path fill="none" stroke="#63b8ff" d="M716.38,-165.51C711.79,-143.12 696.53,-84.06 659,-55.25 629.5,-32.61 522.35,-19.06 468.44,-13.53"/>
<polygon fill="#63b8ff" stroke="#63b8ff" points="468.98,-10.07 458.68,-12.56 468.29,-17.03 468.98,-10.07"/>
</a>
</g>
</g>
<!-- Node8&#45;&gt;Node4 -->
<g id="edge24_Node000008_Node000004" class="edge">
<title>Node8&#45;&gt;Node4</title>
<g id="a_edge24_Node000008_Node000004"><a xlink:title=" ">
<path fill="none" stroke="#63b8ff" d="M718.91,-165.57C721.54,-140.25 729.17,-66.75 732.9,-30.84"/>
<polygon fill="#63b8ff" stroke="#63b8ff" points="736.37,-31.29 733.93,-20.98 729.41,-30.56 736.37,-31.29"/>
</a>
</g>
</g>
<!-- Node8&#45;&gt;Node9 -->
<g id="edge11_Node000008_Node000009" class="edge">
<title>Node8&#45;&gt;Node9</title>
<g id="a_edge11_Node000008_Node000009"><a xlink:title=" ">
<path fill="none" stroke="#63b8ff" d="M750.23,-165.34C781.76,-156.51 829.98,-142.99 864.81,-133.23"/>
<polygon fill="#63b8ff" stroke="#63b8ff" points="865.47,-136.68 874.15,-130.61 863.58,-129.94 865.47,-136.68"/>
</a>
</g>
</g>
<!-- Node16 -->
<g id="Node000016" class="node">
<title>Node16</title>
<g id="a_Node000016"><a xlink:title=" ">
<polygon fill="#e0e0e0" stroke="#999999" points="573.88,-129.75 518.12,-129.75 518.12,-110.5 573.88,-110.5 573.88,-129.75"/>
<text text-anchor="middle" x="546" y="-116.25" font-family="Helvetica,sans-Serif" font-size="10.00">concepts</text>
</a>
</g>
</g>
<!-- Node8&#45;&gt;Node16 -->
<g id="edge20_Node000008_Node000016" class="edge">
<title>Node8&#45;&gt;Node16</title>
<g id="a_edge20_Node000008_Node000016"><a xlink:title=" ">
<path fill="none" stroke="#63b8ff" d="M688.82,-165.34C660.19,-156.48 616.34,-142.9 584.78,-133.13"/>
<polygon fill="#63b8ff" stroke="#63b8ff" points="586.21,-129.91 575.62,-130.3 584.14,-136.6 586.21,-129.91"/>
</a>
</g>
</g>
<!-- Node8&#45;&gt;Node17 -->
<g id="edge21_Node000008_Node000017" class="edge">
<title>Node8&#45;&gt;Node17</title>
<g id="a_edge21_Node000008_Node000017"><a xlink:title=" ">
<path fill="none" stroke="#63b8ff" d="M733.78,-165.34C747.94,-157.23 768.98,-145.18 785.53,-135.71"/>
<polygon fill="#63b8ff" stroke="#63b8ff" points="786.89,-138.96 793.83,-130.95 783.42,-132.89 786.89,-138.96"/>
</a>
</g>
</g>
<!-- Node8&#45;&gt;Node18 -->
<g id="edge22_Node000008_Node000018" class="edge">
<title>Node8&#45;&gt;Node18</title>
<g id="a_edge22_Node000008_Node000018"><a xlink:title=" ">
<path fill="none" stroke="#63b8ff" d="M768.55,-165.94C834.15,-154.99 946.87,-136.17 1003.07,-126.79"/>
<polygon fill="#63b8ff" stroke="#63b8ff" points="1003.39,-130.28 1012.68,-125.19 1002.24,-123.38 1003.39,-130.28"/>
</a>
</g>
</g>
<!-- Node8&#45;&gt;Node19 -->
<g id="edge25_Node000008_Node000019" class="edge">
<title>Node8&#45;&gt;Node19</title>
<g id="a_edge25_Node000008_Node000019"><a xlink:title=" ">
<path fill="none" stroke="#63b8ff" d="M667.47,-166.46C600.24,-155.93 482.63,-137.51 420.02,-127.71"/>
<polygon fill="#63b8ff" stroke="#63b8ff" points="420.91,-124.3 410.49,-126.21 419.82,-131.22 420.91,-124.3"/>
</a>
</g>
</g>
<!-- Node9&#45;&gt;Node2 -->
<g id="edge12_Node000009_Node000002" class="edge">
<title>Node9&#45;&gt;Node2</title>
<g id="a_edge12_Node000009_Node000002"><a xlink:title=" ">
<path fill="none" stroke="#63b8ff" d="M857.81,-111.6C854.83,-111.21 851.88,-110.84 849,-110.5 694.78,-92.17 512.3,-77.25 420.69,-70.23"/>
<polygon fill="#63b8ff" stroke="#63b8ff" points="421.19,-66.76 410.95,-69.49 420.66,-73.74 421.19,-66.76"/>
</a>
</g>
</g>
<!-- Node9&#45;&gt;Node4 -->
<g id="edge17_Node000009_Node000004" class="edge">
<title>Node9&#45;&gt;Node4</title>
<g id="a_edge17_Node000009_Node000004"><a xlink:title=" ">
<path fill="none" stroke="#63b8ff" d="M909.73,-110.05C911.76,-96.41 913.35,-70.6 900,-55.25 884.27,-37.16 822.68,-24.13 779.37,-16.98"/>
<polygon fill="#63b8ff" stroke="#63b8ff" points="780.17,-13.56 769.74,-15.44 779.07,-20.47 780.17,-13.56"/>
</a>
</g>
</g>
<!-- Node10 -->
<g id="Node000010" class="node">
<title>Node10</title>
<g id="a_Node000010"><a xlink:title=" ">
<polygon fill="#e0e0e0" stroke="#999999" points="824.5,-74.5 787.5,-74.5 787.5,-55.25 824.5,-55.25 824.5,-74.5"/>
<text text-anchor="middle" x="806" y="-61" font-family="Helvetica,sans-Serif" font-size="10.00">array</text>
</a>
</g>
</g>
<!-- Node9&#45;&gt;Node10 -->
<g id="edge13_Node000009_Node000010" class="edge">
<title>Node9&#45;&gt;Node10</title>
<g id="a_edge13_Node000009_Node000010"><a xlink:title=" ">
<path fill="none" stroke="#63b8ff" d="M890.7,-110.09C875.02,-101.91 851.65,-89.71 833.42,-80.19"/>
<polygon fill="#63b8ff" stroke="#63b8ff" points="835.21,-77.18 824.73,-75.65 831.97,-83.38 835.21,-77.18"/>
</a>
</g>
</g>
<!-- Node11 -->
<g id="Node000011" class="node">
<title>Node11</title>
<g id="a_Node000011"><a xlink:title=" ">
<polygon fill="#e0e0e0" stroke="#999999" points="891.12,-74.5 842.88,-74.5 842.88,-55.25 891.12,-55.25 891.12,-74.5"/>
<text text-anchor="middle" x="867" y="-61" font-family="Helvetica,sans-Serif" font-size="10.00">cassert</text>
</a>
</g>
</g>
<!-- Node9&#45;&gt;Node11 -->
<g id="edge14_Node000009_Node000011" class="edge">
<title>Node9&#45;&gt;Node11</title>
<g id="a_edge14_Node000009_Node000011"><a xlink:title=" ">
<path fill="none" stroke="#63b8ff" d="M901.23,-110.33C895.68,-103.13 887.66,-92.71 880.77,-83.76"/>
<polygon fill="#63b8ff" stroke="#63b8ff" points="883.71,-81.85 874.84,-76.06 878.17,-86.12 883.71,-81.85"/>
</a>
</g>
</g>
<!-- Node9&#45;&gt;Node12 -->
<g id="edge15_Node000009_Node000012" class="edge">
<title>Node9&#45;&gt;Node12</title>
<g id="a_edge15_Node000009_Node000012"><a xlink:title=" ">
<path fill="none" stroke="#63b8ff" d="M919.7,-110.09C929.78,-102.32 944.54,-90.92 956.56,-81.65"/>
<polygon fill="#63b8ff" stroke="#63b8ff" points="958.49,-84.58 964.27,-75.7 954.21,-79.04 958.49,-84.58"/>
</a>
</g>
</g>
<!-- Node9&#45;&gt;Node13 -->
<g id="edge16_Node000009_Node000013" class="edge">
<title>Node9&#45;&gt;Node13</title>
<g id="a_edge16_Node000009_Node000013"><a xlink:title=" ">
<path fill="none" stroke="#63b8ff" d="M857.79,-110.21C803.48,-100.57 717.24,-85.27 661.64,-75.4"/>
<polygon fill="#63b8ff" stroke="#63b8ff" points="662.55,-72 652.09,-73.7 661.32,-78.89 662.55,-72"/>
</a>
</g>
</g>
<!-- Node9&#45;&gt;Node14 -->
<g id="edge18_Node000009_Node000014" class="edge">
<title>Node9&#45;&gt;Node14</title>
<g id="a_edge18_Node000009_Node000014"><a xlink:title=" ">
<path fill="none" stroke="#63b8ff" d="M857.5,-111.46C854.63,-111.11 851.78,-110.79 849,-110.5 708.69,-96.01 264.14,-73.34 144.11,-67.36"/>
<polygon fill="#63b8ff" stroke="#63b8ff" points="144.59,-63.88 134.43,-66.88 144.25,-70.87 144.59,-63.88"/>
</a>
</g>
</g>
<!-- Node9&#45;&gt;Node15 -->
<g id="edge19_Node000009_Node000015" class="edge">
<title>Node9&#45;&gt;Node15</title>
<g id="a_edge19_Node000009_Node000015"><a xlink:title=" ">
<path fill="none" stroke="#63b8ff" d="M947.28,-110.03C992.57,-99.55 1066.06,-82.53 1107.34,-72.97"/>
<polygon fill="#63b8ff" stroke="#63b8ff" points="1107.9,-76.44 1116.85,-70.77 1106.32,-69.62 1107.9,-76.44"/>
</a>
</g>
</g>
<!-- Node20&#45;&gt;Node2 -->
<g id="edge27_Node000020_Node000002" class="edge">
<title>Node20&#45;&gt;Node2</title>
<g id="a_edge27_Node000020_Node000002"><a xlink:title=" ">
<path fill="none" stroke="#63b8ff" d="M211.7,-165.32C224.66,-152.16 250.17,-127.48 275,-110.5 292.52,-98.52 313.68,-87.59 330.75,-79.55"/>
<polygon fill="#63b8ff" stroke="#63b8ff" points="331.78,-82.93 339.4,-75.57 328.85,-76.57 331.78,-82.93"/>
</a>
</g>
</g>
<!-- Node20&#45;&gt;Node14 -->
<g id="edge31_Node000020_Node000014" class="edge">
<title>Node20&#45;&gt;Node14</title>
<g id="a_edge31_Node000020_Node000014"><a xlink:title=" ">
<path fill="none" stroke="#63b8ff" d="M195.72,-165.5C181.05,-147.61 147.71,-106.97 128.46,-83.5"/>
<polygon fill="#63b8ff" stroke="#63b8ff" points="131.39,-81.56 122.34,-76.05 125.98,-86 131.39,-81.56"/>
</a>
</g>
</g>
<!-- Node20&#45;&gt;Node16 -->
<g id="edge28_Node000020_Node000016" class="edge">
<title>Node20&#45;&gt;Node16</title>
<g id="a_edge28_Node000020_Node000016"><a xlink:title=" ">
<path fill="none" stroke="#63b8ff" d="M261.57,-165.28C331.53,-154.42 446.62,-136.55 506.71,-127.23"/>
<polygon fill="#63b8ff" stroke="#63b8ff" points="507.12,-130.7 516.46,-125.71 506.05,-123.79 507.12,-130.7"/>
</a>
</g>
</g>
<!-- Node20&#45;&gt;Node19 -->
<g id="edge32_Node000020_Node000019" class="edge">
<title>Node20&#45;&gt;Node19</title>
<g id="a_edge32_Node000020_Node000019"><a xlink:title=" ">
<path fill="none" stroke="#63b8ff" d="M232.69,-165.34C261.47,-156.58 305.37,-143.23 337.38,-133.48"/>
<polygon fill="#63b8ff" stroke="#63b8ff" points="338.17,-136.9 346.72,-130.64 336.13,-130.21 338.17,-136.9"/>
</a>
</g>
</g>
<!-- Node21 -->
<g id="Node000021" class="node">
<title>Node21</title>
<g id="a_Node000021"><a xlink:title=" ">
<polygon fill="#e0e0e0" stroke="#999999" points="228.12,-129.75 179.88,-129.75 179.88,-110.5 228.12,-110.5 228.12,-129.75"/>
<text text-anchor="middle" x="204" y="-116.25" font-family="Helvetica,sans-Serif" font-size="10.00">cstddef</text>
</a>
</g>
</g>
<!-- Node20&#45;&gt;Node21 -->
<g id="edge29_Node000020_Node000021" class="edge">
<title>Node20&#45;&gt;Node21</title>
<g id="a_edge29_Node000020_Node000021"><a xlink:title=" ">
<path fill="none" stroke="#63b8ff" d="M203.17,-165.58C203.29,-159.07 203.46,-149.92 203.62,-141.62"/>
<polygon fill="#63b8ff" stroke="#63b8ff" points="207.11,-141.69 203.8,-131.62 200.12,-141.55 207.11,-141.69"/>
</a>
</g>
</g>
<!-- Node20&#45;&gt;Node22 -->
<g id="edge30_Node000020_Node000022" class="edge">
<title>Node20&#45;&gt;Node22</title>
<g id="a_edge30_Node000020_Node000022"><a xlink:title=" ">
<path fill="none" stroke="#63b8ff" d="M220.64,-165.34C236.63,-157.16 260.46,-144.96 279.04,-135.44"/>
<polygon fill="#63b8ff" stroke="#63b8ff" points="280.62,-138.57 287.92,-130.89 277.43,-132.33 280.62,-138.57"/>
</a>
</g>
</g>
</g>
</svg>
