<?xml version="1.0" encoding="UTF-8" standalone="no"?>
<!DOCTYPE svg PUBLIC "-//W3C//DTD SVG 1.1//EN"
 "http://www.w3.org/Graphics/SVG/1.1/DTD/svg11.dtd">
<!-- Generated by graphviz version 11.0.0 (20240428.1522)
 -->
<!-- Title: mimic++/Call.hpp Pages: 1 -->
<svg width="450pt" height="193pt"
 viewBox="0.00 0.00 449.50 193.00" xmlns="http://www.w3.org/2000/svg" xmlns:xlink="http://www.w3.org/1999/xlink">
<g id="graph0" class="graph" transform="scale(1 1) rotate(0) translate(4 189)">
<title>mimic++/Call.hpp</title>
<!-- Node1 -->
<g id="Node000001" class="node">
<title>Node1</title>
<g id="a_Node000001"><a xlink:title=" ">
<polygon fill="#999999" stroke="#666666" points="280.88,-185 189.12,-185 189.12,-165.75 280.88,-165.75 280.88,-185"/>
<text text-anchor="middle" x="235" y="-171.5" font-family="Helvetica,sans-Serif" font-size="10.00">mimic++/Call.hpp</text>
</a>
</g>
</g>
<!-- Node2 -->
<g id="Node000002" class="node">
<title>Node2</title>
<g id="a_Node000002"><a xlink:href="../../df/dde/_fwd_8hpp.html" target="_top" xlink:title=" ">
<polygon fill="white" stroke="#666666" points="94,-74.5 0,-74.5 0,-55.25 94,-55.25 94,-74.5"/>
<text text-anchor="middle" x="47" y="-61" font-family="Helvetica,sans-Serif" font-size="10.00">mimic++/Fwd.hpp</text>
</a>
</g>
</g>
<!-- Node1&#45;&gt;Node2 -->
<g id="edge1_Node000001_Node000002" class="edge">
<title>Node1&#45;&gt;Node2</title>
<g id="a_edge1_Node000001_Node000002"><a xlink:title=" ">
<path fill="none" stroke="#63b8ff" d="M188.77,-171C155.05,-166.38 110,-155.47 79,-129.75 65.28,-118.37 56.88,-99.63 52.15,-85.38"/>
<polygon fill="#63b8ff" stroke="#63b8ff" points="55.62,-84.78 49.43,-76.18 48.91,-86.77 55.62,-84.78"/>
</a>
</g>
</g>
<!-- Node4 -->
<g id="Node000004" class="node">
<title>Node4</title>
<g id="a_Node000004"><a xlink:href="../../d8/d32/_type_traits_8hpp.html" target="_top" xlink:title=" ">
<polygon fill="white" stroke="#666666" points="441.5,-129.75 320.5,-129.75 320.5,-110.5 441.5,-110.5 441.5,-129.75"/>
<text text-anchor="middle" x="381" y="-116.25" font-family="Helvetica,sans-Serif" font-size="10.00">mimic++/TypeTraits.hpp</text>
</a>
</g>
</g>
<!-- Node1&#45;&gt;Node4 -->
<g id="edge3_Node000001_Node000004" class="edge">
<title>Node1&#45;&gt;Node4</title>
<g id="a_edge3_Node000001_Node000004"><a xlink:title=" ">
<path fill="none" stroke="#63b8ff" d="M259.77,-165.34C283.26,-156.77 318.81,-143.81 345.35,-134.13"/>
<polygon fill="#63b8ff" stroke="#63b8ff" points="346.49,-137.44 354.69,-130.72 344.1,-130.86 346.49,-137.44"/>
</a>
</g>
</g>
<!-- Node5 -->
<g id="Node000005" class="node">
<title>Node5</title>
<g id="a_Node000005"><a xlink:title=" ">
<polygon fill="#e0e0e0" stroke="#999999" points="384.5,-74.5 347.5,-74.5 347.5,-55.25 384.5,-55.25 384.5,-74.5"/>
<text text-anchor="middle" x="366" y="-61" font-family="Helvetica,sans-Serif" font-size="10.00">tuple</text>
</a>
</g>
</g>
<!-- Node1&#45;&gt;Node5 -->
<g id="edge11_Node000001_Node000005" class="edge">
<title>Node1&#45;&gt;Node5</title>
<g id="a_edge11_Node000001_Node000005"><a xlink:title=" ">
<path fill="none" stroke="#63b8ff" d="M245.96,-165.27C260.89,-152.88 288.45,-130 312,-110.5 323.48,-101 336.33,-90.37 346.62,-81.87"/>
<polygon fill="#63b8ff" stroke="#63b8ff" points="348.59,-84.79 354.07,-75.72 344.13,-79.39 348.59,-84.79"/>
</a>
</g>
</g>
<!-- Node6 -->
<g id="Node000006" class="node">
<title>Node6</title>
<g id="a_Node000006"><a xlink:href="../../d4/d2c/_utility_8hpp.html" target="_top" xlink:title=" ">
<polygon fill="white" stroke="#666666" points="188,-129.75 88,-129.75 88,-110.5 188,-110.5 188,-129.75"/>
<text text-anchor="middle" x="138" y="-116.25" font-family="Helvetica,sans-Serif" font-size="10.00">mimic++/Utility.hpp</text>
</a>
</g>
</g>
<!-- Node1&#45;&gt;Node6 -->
<g id="edge5_Node000001_Node000006" class="edge">
<title>Node1&#45;&gt;Node6</title>
<g id="a_edge5_Node000001_Node000006"><a xlink:title=" ">
<path fill="none" stroke="#63b8ff" d="M218.55,-165.34C203.77,-157.23 181.82,-145.18 164.57,-135.71"/>
<polygon fill="#63b8ff" stroke="#63b8ff" points="166.31,-132.68 155.86,-130.93 162.94,-138.81 166.31,-132.68"/>
</a>
</g>
</g>
<!-- Node8 -->
<g id="Node000008" class="node">
<title>Node8</title>
<g id="a_Node000008"><a xlink:title=" ">
<polygon fill="#e0e0e0" stroke="#999999" points="258.12,-74.5 173.88,-74.5 173.88,-55.25 258.12,-55.25 258.12,-74.5"/>
<text text-anchor="middle" x="216" y="-61" font-family="Helvetica,sans-Serif" font-size="10.00">source_location</text>
</a>
</g>
</g>
<!-- Node1&#45;&gt;Node8 -->
<g id="edge10_Node000001_Node000008" class="edge">
<title>Node1&#45;&gt;Node8</title>
<g id="a_edge10_Node000001_Node000008"><a xlink:title=" ">
<path fill="none" stroke="#63b8ff" d="M233.45,-165.5C230.43,-148.25 223.7,-109.83 219.54,-86.06"/>
<polygon fill="#63b8ff" stroke="#63b8ff" points="223.01,-85.61 217.84,-76.37 216.11,-86.82 223.01,-85.61"/>
</a>
</g>
</g>
<!-- Node9 -->
<g id="Node000009" class="node">
<title>Node9</title>
<g id="a_Node000009"><a xlink:title=" ">
<polygon fill="#e0e0e0" stroke="#999999" points="314.25,-74.5 275.75,-74.5 275.75,-55.25 314.25,-55.25 314.25,-74.5"/>
<text text-anchor="middle" x="295" y="-61" font-family="Helvetica,sans-Serif" font-size="10.00">utility</text>
</a>
</g>
</g>
<!-- Node1&#45;&gt;Node9 -->
<g id="edge12_Node000001_Node000009" class="edge">
<title>Node1&#45;&gt;Node9</title>
<g id="a_edge12_Node000001_Node000009"><a xlink:title=" ">
<path fill="none" stroke="#63b8ff" d="M239.91,-165.5C249.62,-147.93 271.48,-108.41 284.55,-84.77"/>
<polygon fill="#63b8ff" stroke="#63b8ff" points="287.51,-86.65 289.29,-76.2 281.39,-83.26 287.51,-86.65"/>
</a>
</g>
</g>
<!-- Node3 -->
<g id="Node000003" class="node">
<title>Node3</title>
<g id="a_Node000003"><a xlink:title=" ">
<polygon fill="#e0e0e0" stroke="#999999" points="67,-19.25 27,-19.25 27,0 67,0 67,-19.25"/>
<text text-anchor="middle" x="47" y="-5.75" font-family="Helvetica,sans-Serif" font-size="10.00">string</text>
</a>
</g>
</g>
<!-- Node2&#45;&gt;Node3 -->
<g id="edge2_Node000002_Node000003" class="edge">
<title>Node2&#45;&gt;Node3</title>
<g id="a_edge2_Node000002_Node000003"><a xlink:title=" ">
<path fill="none" stroke="#63b8ff" d="M47,-55.08C47,-48.57 47,-39.42 47,-31.12"/>
<polygon fill="#63b8ff" stroke="#63b8ff" points="50.5,-31.12 47,-21.12 43.5,-31.12 50.5,-31.12"/>
</a>
</g>
</g>
<!-- Node4&#45;&gt;Node5 -->
<g id="edge4_Node000004_Node000005" class="edge">
<title>Node4&#45;&gt;Node5</title>
<g id="a_edge4_Node000004_Node000005"><a xlink:title=" ">
<path fill="none" stroke="#63b8ff" d="M378.52,-110.33C376.65,-103.67 373.99,-94.24 371.61,-85.78"/>
<polygon fill="#63b8ff" stroke="#63b8ff" points="375.02,-84.99 368.94,-76.32 368.28,-86.89 375.02,-84.99"/>
</a>
</g>
</g>
<!-- Node6&#45;&gt;Node2 -->
<g id="edge6_Node000006_Node000002" class="edge">
<title>Node6&#45;&gt;Node2</title>
<g id="a_edge6_Node000006_Node000002"><a xlink:title=" ">
<path fill="none" stroke="#63b8ff" d="M122.56,-110.09C108.84,-102.06 88.5,-90.16 72.38,-80.73"/>
<polygon fill="#63b8ff" stroke="#63b8ff" points="74.22,-77.75 63.82,-75.72 70.68,-83.79 74.22,-77.75"/>
</a>
</g>
</g>
<!-- Node7 -->
<g id="Node000007" class="node">
<title>Node7</title>
<g id="a_Node000007"><a xlink:title=" ">
<polygon fill="#e0e0e0" stroke="#999999" points="155.88,-74.5 112.12,-74.5 112.12,-55.25 155.88,-55.25 155.88,-74.5"/>
<text text-anchor="middle" x="134" y="-61" font-family="Helvetica,sans-Serif" font-size="10.00">format</text>
</a>
</g>
</g>
<!-- Node6&#45;&gt;Node7 -->
<g id="edge7_Node000006_Node000007" class="edge">
<title>Node6&#45;&gt;Node7</title>
<g id="a_edge7_Node000006_Node000007"><a xlink:title=" ">
<path fill="none" stroke="#63b8ff" d="M137.34,-110.33C136.84,-103.74 136.15,-94.46 135.52,-86.07"/>
<polygon fill="#63b8ff" stroke="#63b8ff" points="139.03,-86.08 134.79,-76.37 132.05,-86.6 139.03,-86.08"/>
</a>
</g>
</g>
<!-- Node6&#45;&gt;Node8 -->
<g id="edge8_Node000006_Node000008" class="edge">
<title>Node6&#45;&gt;Node8</title>
<g id="a_edge8_Node000006_Node000008"><a xlink:title=" ">
<path fill="none" stroke="#63b8ff" d="M151.23,-110.09C162.77,-102.21 179.77,-90.61 193.45,-81.27"/>
<polygon fill="#63b8ff" stroke="#63b8ff" points="195.17,-84.33 201.45,-75.81 191.22,-78.55 195.17,-84.33"/>
</a>
</g>
</g>
<!-- Node6&#45;&gt;Node9 -->
<g id="edge9_Node000006_Node000009" class="edge">
<title>Node6&#45;&gt;Node9</title>
<g id="a_edge9_Node000006_Node000009"><a xlink:title=" ">
<path fill="none" stroke="#63b8ff" d="M164.63,-110.09C192.44,-100.66 235.95,-85.9 264.96,-76.06"/>
<polygon fill="#63b8ff" stroke="#63b8ff" points="265.9,-79.44 274.25,-72.91 263.65,-72.81 265.9,-79.44"/>
</a>
</g>
</g>
</g>
</svg>
