<?xml version="1.0" encoding="UTF-8" standalone="no"?>
<!DOCTYPE svg PUBLIC "-//W3C//DTD SVG 1.1//EN"
 "http://www.w3.org/Graphics/SVG/1.1/DTD/svg11.dtd">
<!-- Generated by graphviz version 12.1.1 (20240910.0053)
 -->
<!-- Title: mimic++/Call.hpp Pages: 1 -->
<svg width="444pt" height="193pt"
 viewBox="0.00 0.00 444.25 193.00" xmlns="http://www.w3.org/2000/svg" xmlns:xlink="http://www.w3.org/1999/xlink">
<g id="graph0" class="graph" transform="scale(1 1) rotate(0) translate(4 189)">
<title>mimic++/Call.hpp</title>
<!-- Node1 -->
<g id="Node000001" class="node">
<title>Node1</title>
<g id="a_Node000001"><a xlink:title=" ">
<polygon fill="#999999" stroke="#666666" points="266.88,-185 175.12,-185 175.12,-165.75 266.88,-165.75 266.88,-185"/>
<text text-anchor="middle" x="221" y="-171.5" font-family="Helvetica,sans-Serif" font-size="10.00">mimic++/Call.hpp</text>
</a>
</g>
</g>
<!-- Node2 -->
<g id="Node000002" class="node">
<title>Node2</title>
<g id="a_Node000002"><a xlink:href="../../df/dde/_fwd_8hpp.html" target="_top" xlink:title=" ">
<polygon fill="white" stroke="#666666" points="94,-74.5 0,-74.5 0,-55.25 94,-55.25 94,-74.5"/>
<text text-anchor="middle" x="47" y="-61" font-family="Helvetica,sans-Serif" font-size="10.00">mimic++/Fwd.hpp</text>
</a>
</g>
</g>
<!-- Node1&#45;&gt;Node2 -->
<g id="edge1_Node000001_Node000002" class="edge">
<title>Node1&#45;&gt;Node2</title>
<g id="a_edge1_Node000001_Node000002"><a xlink:title=" ">
<path fill="none" stroke="#63b8ff" d="M174.85,-170.52C122.41,-165.07 41.65,-153.07 23,-129.75 12.16,-116.2 21.58,-97.25 31.62,-83.51"/>
<polygon fill="#63b8ff" stroke="#63b8ff" points="34.31,-85.76 37.82,-75.76 28.84,-81.39 34.31,-85.76"/>
</a>
</g>
</g>
<!-- Node4 -->
<g id="Node000004" class="node">
<title>Node4</title>
<g id="a_Node000004"><a xlink:href="../../d8/d32/_type_traits_8hpp.html" target="_top" xlink:title=" ">
<polygon fill="white" stroke="#666666" points="153.5,-129.75 32.5,-129.75 32.5,-110.5 153.5,-110.5 153.5,-129.75"/>
<text text-anchor="middle" x="93" y="-116.25" font-family="Helvetica,sans-Serif" font-size="10.00">mimic++/TypeTraits.hpp</text>
</a>
</g>
</g>
<!-- Node1&#45;&gt;Node4 -->
<g id="edge3_Node000001_Node000004" class="edge">
<title>Node1&#45;&gt;Node4</title>
<g id="a_edge3_Node000001_Node000004"><a xlink:title=" ">
<path fill="none" stroke="#63b8ff" d="M199.29,-165.34C178.97,-156.89 148.35,-144.15 125.19,-134.52"/>
<polygon fill="#63b8ff" stroke="#63b8ff" points="126.79,-131.39 116.22,-130.78 124.11,-137.86 126.79,-131.39"/>
</a>
</g>
</g>
<!-- Node5 -->
<g id="Node000005" class="node">
<title>Node5</title>
<g id="a_Node000005"><a xlink:title=" ">
<polygon fill="#e0e0e0" stroke="#999999" points="149.5,-74.5 112.5,-74.5 112.5,-55.25 149.5,-55.25 149.5,-74.5"/>
<text text-anchor="middle" x="131" y="-61" font-family="Helvetica,sans-Serif" font-size="10.00">tuple</text>
</a>
</g>
</g>
<!-- Node1&#45;&gt;Node5 -->
<g id="edge13_Node000001_Node000005" class="edge">
<title>Node1&#45;&gt;Node5</title>
<g id="a_edge13_Node000001_Node000005"><a xlink:title=" ">
<path fill="none" stroke="#63b8ff" d="M213.63,-165.5C198.8,-147.61 165.09,-106.97 145.62,-83.5"/>
<polygon fill="#63b8ff" stroke="#63b8ff" points="148.51,-81.5 139.43,-76.04 143.12,-85.97 148.51,-81.5"/>
</a>
</g>
</g>
<!-- Node6 -->
<g id="Node000006" class="node">
<title>Node6</title>
<g id="a_Node000006"><a xlink:href="../../d4/d2c/_utility_8hpp.html" target="_top" xlink:title=" ">
<polygon fill="white" stroke="#666666" points="310,-129.75 210,-129.75 210,-110.5 310,-110.5 310,-129.75"/>
<text text-anchor="middle" x="260" y="-116.25" font-family="Helvetica,sans-Serif" font-size="10.00">mimic++/Utility.hpp</text>
</a>
</g>
</g>
<!-- Node1&#45;&gt;Node6 -->
<g id="edge6_Node000001_Node000006" class="edge">
<title>Node1&#45;&gt;Node6</title>
<g id="a_edge6_Node000001_Node000006"><a xlink:title=" ">
<path fill="none" stroke="#63b8ff" d="M227.44,-165.58C232.66,-158.46 240.19,-148.18 246.69,-139.3"/>
<polygon fill="#63b8ff" stroke="#63b8ff" points="249.44,-141.47 252.53,-131.33 243.79,-137.33 249.44,-141.47"/>
</a>
</g>
</g>
<!-- Node9 -->
<g id="Node000009" class="node">
<title>Node9</title>
<g id="a_Node000009"><a xlink:title=" ">
<polygon fill="#e0e0e0" stroke="#999999" points="380.12,-74.5 295.88,-74.5 295.88,-55.25 380.12,-55.25 380.12,-74.5"/>
<text text-anchor="middle" x="338" y="-61" font-family="Helvetica,sans-Serif" font-size="10.00">source_location</text>
</a>
</g>
</g>
<!-- Node1&#45;&gt;Node9 -->
<g id="edge12_Node000001_Node000009" class="edge">
<title>Node1&#45;&gt;Node9</title>
<g id="a_edge12_Node000001_Node000009"><a xlink:title=" ">
<path fill="none" stroke="#63b8ff" d="M259.18,-165.28C279.55,-158.6 303.53,-147.52 319,-129.75 329.59,-117.59 334.28,-99.74 336.35,-86"/>
<polygon fill="#63b8ff" stroke="#63b8ff" points="339.8,-86.65 337.45,-76.32 332.85,-85.87 339.8,-86.65"/>
</a>
</g>
</g>
<!-- Node10 -->
<g id="Node000010" class="node">
<title>Node10</title>
<g id="a_Node000010"><a xlink:title=" ">
<polygon fill="#e0e0e0" stroke="#999999" points="436.25,-74.5 397.75,-74.5 397.75,-55.25 436.25,-55.25 436.25,-74.5"/>
<text text-anchor="middle" x="417" y="-61" font-family="Helvetica,sans-Serif" font-size="10.00">utility</text>
</a>
</g>
</g>
<!-- Node1&#45;&gt;Node10 -->
<g id="edge14_Node000001_Node000010" class="edge">
<title>Node1&#45;&gt;Node10</title>
<g id="a_edge14_Node000001_Node000010"><a xlink:title=" ">
<path fill="none" stroke="#63b8ff" d="M252.76,-165.27C277,-157.62 310.77,-145.42 338,-129.75 361.26,-116.37 384.77,-96.33 400.03,-82.28"/>
<polygon fill="#63b8ff" stroke="#63b8ff" points="402,-85.23 406.89,-75.82 397.2,-80.13 402,-85.23"/>
</a>
</g>
</g>
<!-- Node3 -->
<g id="Node000003" class="node">
<title>Node3</title>
<g id="a_Node000003"><a xlink:title=" ">
<polygon fill="#e0e0e0" stroke="#999999" points="67,-19.25 27,-19.25 27,0 67,0 67,-19.25"/>
<text text-anchor="middle" x="47" y="-5.75" font-family="Helvetica,sans-Serif" font-size="10.00">string</text>
</a>
</g>
</g>
<!-- Node2&#45;&gt;Node3 -->
<g id="edge2_Node000002_Node000003" class="edge">
<title>Node2&#45;&gt;Node3</title>
<g id="a_edge2_Node000002_Node000003"><a xlink:title=" ">
<path fill="none" stroke="#63b8ff" d="M47,-55.08C47,-48.57 47,-39.42 47,-31.12"/>
<polygon fill="#63b8ff" stroke="#63b8ff" points="50.5,-31.12 47,-21.12 43.5,-31.12 50.5,-31.12"/>
</a>
</g>
</g>
<!-- Node4&#45;&gt;Node2 -->
<g id="edge4_Node000004_Node000002" class="edge">
<title>Node4&#45;&gt;Node2</title>
<g id="a_edge4_Node000004_Node000002"><a xlink:title=" ">
<path fill="none" stroke="#63b8ff" d="M85.4,-110.33C79.12,-103.05 69.99,-92.48 62.2,-83.48"/>
<polygon fill="#63b8ff" stroke="#63b8ff" points="64.94,-81.28 55.75,-76 59.64,-85.86 64.94,-81.28"/>
</a>
</g>
</g>
<!-- Node4&#45;&gt;Node5 -->
<g id="edge5_Node000004_Node000005" class="edge">
<title>Node4&#45;&gt;Node5</title>
<g id="a_edge5_Node000004_Node000005"><a xlink:title=" ">
<path fill="none" stroke="#63b8ff" d="M99.27,-110.33C104.36,-103.21 111.7,-92.93 118.03,-84.05"/>
<polygon fill="#63b8ff" stroke="#63b8ff" points="120.75,-86.26 123.71,-76.09 115.05,-82.2 120.75,-86.26"/>
</a>
</g>
</g>
<!-- Node6&#45;&gt;Node2 -->
<g id="edge7_Node000006_Node000002" class="edge">
<title>Node6&#45;&gt;Node2</title>
<g id="a_edge7_Node000006_Node000002"><a xlink:title=" ">
<path fill="none" stroke="#63b8ff" d="M223.87,-110.09C188.22,-101.18 133.53,-87.51 94.41,-77.73"/>
<polygon fill="#63b8ff" stroke="#63b8ff" points="95.33,-74.35 84.78,-75.32 93.63,-81.14 95.33,-74.35"/>
</a>
</g>
</g>
<!-- Node7 -->
<g id="Node000007" class="node">
<title>Node7</title>
<g id="a_Node000007"><a xlink:title=" ">
<polygon fill="#e0e0e0" stroke="#999999" points="216.12,-74.5 167.88,-74.5 167.88,-55.25 216.12,-55.25 216.12,-74.5"/>
<text text-anchor="middle" x="192" y="-61" font-family="Helvetica,sans-Serif" font-size="10.00">cassert</text>
</a>
</g>
</g>
<!-- Node6&#45;&gt;Node7 -->
<g id="edge8_Node000006_Node000007" class="edge">
<title>Node6&#45;&gt;Node7</title>
<g id="a_edge8_Node000006_Node000007"><a xlink:title=" ">
<path fill="none" stroke="#63b8ff" d="M248.46,-110.09C238.54,-102.32 223.99,-90.92 212.14,-81.65"/>
<polygon fill="#63b8ff" stroke="#63b8ff" points="214.59,-79.12 204.56,-75.71 210.27,-84.63 214.59,-79.12"/>
</a>
</g>
</g>
<!-- Node8 -->
<g id="Node000008" class="node">
<title>Node8</title>
<g id="a_Node000008"><a xlink:title=" ">
<polygon fill="#e0e0e0" stroke="#999999" points="277.88,-74.5 234.12,-74.5 234.12,-55.25 277.88,-55.25 277.88,-74.5"/>
<text text-anchor="middle" x="256" y="-61" font-family="Helvetica,sans-Serif" font-size="10.00">format</text>
</a>
</g>
</g>
<!-- Node6&#45;&gt;Node8 -->
<g id="edge9_Node000006_Node000008" class="edge">
<title>Node6&#45;&gt;Node8</title>
<g id="a_edge9_Node000006_Node000008"><a xlink:title=" ">
<path fill="none" stroke="#63b8ff" d="M259.34,-110.33C258.84,-103.74 258.15,-94.46 257.52,-86.07"/>
<polygon fill="#63b8ff" stroke="#63b8ff" points="261.03,-86.08 256.79,-76.37 254.05,-86.6 261.03,-86.08"/>
</a>
</g>
</g>
<!-- Node6&#45;&gt;Node9 -->
<g id="edge10_Node000006_Node000009" class="edge">
<title>Node6&#45;&gt;Node9</title>
<g id="a_edge10_Node000006_Node000009"><a xlink:title=" ">
<path fill="none" stroke="#63b8ff" d="M273.23,-110.09C284.77,-102.21 301.77,-90.61 315.45,-81.27"/>
<polygon fill="#63b8ff" stroke="#63b8ff" points="317.17,-84.33 323.45,-75.81 313.22,-78.55 317.17,-84.33"/>
</a>
</g>
</g>
<!-- Node6&#45;&gt;Node10 -->
<g id="edge11_Node000006_Node000010" class="edge">
<title>Node6&#45;&gt;Node10</title>
<g id="a_edge11_Node000006_Node000010"><a xlink:title=" ">
<path fill="none" stroke="#63b8ff" d="M286.63,-110.09C314.44,-100.66 357.95,-85.9 386.96,-76.06"/>
<polygon fill="#63b8ff" stroke="#63b8ff" points="387.9,-79.44 396.25,-72.91 385.65,-72.81 387.9,-79.44"/>
</a>
</g>
</g>
</g>
</svg>
