<?xml version="1.0" encoding="UTF-8" standalone="no"?>
<!DOCTYPE svg PUBLIC "-//W3C//DTD SVG 1.1//EN"
 "http://www.w3.org/Graphics/SVG/1.1/DTD/svg11.dtd">
<!-- Generated by graphviz version 12.2.1 (20241206.2353)
 -->
<!-- Title: mimic++/expectation/Registry.hpp Pages: 1 -->
<svg width="515pt" height="337pt"
 viewBox="0.00 0.00 514.68 337.25" xmlns="http://www.w3.org/2000/svg" xmlns:xlink="http://www.w3.org/1999/xlink">
<g id="graph0" class="graph" transform="scale(1 1) rotate(0) translate(4 333.25)">
<title>mimic++/expectation/Registry.hpp</title>
<!-- Node1 -->
<g id="Node000001" class="node">
<title>Node1</title>
<g id="a_Node000001"><a xlink:title=" ">
<polygon fill="#999999" stroke="#666666" points="286.22,-329.25 179.47,-329.25 179.47,-298.75 286.22,-298.75 286.22,-329.25"/>
<text text-anchor="start" x="187.47" y="-315.75" font-family="Helvetica,sans-Serif" font-size="10.00">mimic++/expectation</text>
<text text-anchor="middle" x="232.84" y="-304.5" font-family="Helvetica,sans-Serif" font-size="10.00">/Registry.hpp</text>
</a>
</g>
</g>
<!-- Node2 -->
<g id="Node000002" class="node">
<title>Node2</title>
<g id="a_Node000002"><a xlink:href="../../d5/dc5/_mock_8hpp.html" target="_top" xlink:title=" ">
<polygon fill="white" stroke="#666666" points="263.47,-129.75 164.22,-129.75 164.22,-110.5 263.47,-110.5 263.47,-129.75"/>
<text text-anchor="middle" x="213.84" y="-116.25" font-family="Helvetica,sans-Serif" font-size="10.00">mimic++/Mock.hpp</text>
</a>
</g>
</g>
<!-- Node1&#45;&gt;Node2 -->
<g id="edge1_Node000001_Node000002" class="edge">
<title>Node1&#45;&gt;Node2</title>
<g id="a_edge1_Node000001_Node000002"><a xlink:title=" ">
<path fill="none" stroke="#63b8ff" d="M230.26,-286.92C225.94,-243.31 217.46,-157.64 214.72,-129.97"/>
<polygon fill="#63b8ff" stroke="#63b8ff" points="226.77,-287.15 231.23,-296.76 233.73,-286.46 226.77,-287.15"/>
</a>
</g>
</g>
<!-- Node4 -->
<g id="Node000004" class="node">
<title>Node4</title>
<g id="a_Node000004"><a xlink:href="../../d0/db9/mimic_09_09_8hpp.html" target="_top" xlink:title=" ">
<polygon fill="white" stroke="#666666" points="376.59,-19.25 263.09,-19.25 263.09,0 376.59,0 376.59,-19.25"/>
<text text-anchor="middle" x="319.84" y="-5.75" font-family="Helvetica,sans-Serif" font-size="10.00">mimic++/mimic++.hpp</text>
</a>
</g>
</g>
<!-- Node1&#45;&gt;Node4 -->
<g id="edge18_Node000001_Node000004" class="edge">
<title>Node1&#45;&gt;Node4</title>
<g id="a_edge18_Node000001_Node000004"><a xlink:title=" ">
<path fill="none" stroke="#63b8ff" d="M167.87,-304.45C99.24,-291.35 0.84,-259.12 0.84,-182 0.84,-182 0.84,-182 0.84,-119.12 0.84,-89.51 -2.53,-74.66 19.84,-55.25 55.19,-24.58 186.08,-14.99 262.8,-11.99"/>
<polygon fill="#63b8ff" stroke="#63b8ff" points="167.08,-307.87 177.54,-306.2 168.33,-300.98 167.08,-307.87"/>
</a>
</g>
</g>
<!-- Node6 -->
<g id="Node000006" class="node">
<title>Node6</title>
<g id="a_Node000006"><a xlink:href="../../d6/d15/_builder_8hpp.html" target="_top" xlink:title=" ">
<polygon fill="white" stroke="#666666" points="348.22,-196.25 241.47,-196.25 241.47,-165.75 348.22,-165.75 348.22,-196.25"/>
<text text-anchor="start" x="249.47" y="-182.75" font-family="Helvetica,sans-Serif" font-size="10.00">mimic++/expectation</text>
<text text-anchor="middle" x="294.84" y="-171.5" font-family="Helvetica,sans-Serif" font-size="10.00">/Builder.hpp</text>
</a>
</g>
</g>
<!-- Node1&#45;&gt;Node6 -->
<g id="edge7_Node000001_Node000006" class="edge">
<title>Node1&#45;&gt;Node6</title>
<g id="a_edge7_Node000001_Node000006"><a xlink:title=" ">
<path fill="none" stroke="#63b8ff" d="M244.55,-288.27C257.35,-261.21 277.45,-218.76 287.94,-196.58"/>
<polygon fill="#63b8ff" stroke="#63b8ff" points="241.48,-286.58 240.36,-297.11 247.8,-289.57 241.48,-286.58"/>
</a>
</g>
</g>
<!-- Node8 -->
<g id="Node000008" class="node">
<title>Node8</title>
<g id="a_Node000008"><a xlink:href="../../d4/d1e/_owner_8hpp.html" target="_top" xlink:title=" ">
<polygon fill="white" stroke="#666666" points="440.22,-262.75 333.47,-262.75 333.47,-232.25 440.22,-232.25 440.22,-262.75"/>
<text text-anchor="start" x="341.47" y="-249.25" font-family="Helvetica,sans-Serif" font-size="10.00">mimic++/expectation</text>
<text text-anchor="middle" x="386.84" y="-238" font-family="Helvetica,sans-Serif" font-size="10.00">/Owner.hpp</text>
</a>
</g>
</g>
<!-- Node1&#45;&gt;Node8 -->
<g id="edge12_Node000001_Node000008" class="edge">
<title>Node1&#45;&gt;Node8</title>
<g id="a_edge12_Node000001_Node000008"><a xlink:title=" ">
<path fill="none" stroke="#63b8ff" d="M278.21,-294C301.71,-284.16 329.97,-272.32 351.77,-263.19"/>
<polygon fill="#63b8ff" stroke="#63b8ff" points="277.06,-290.69 269.18,-297.78 279.76,-297.14 277.06,-290.69"/>
</a>
</g>
</g>
<!-- Node3 -->
<g id="Node000003" class="node">
<title>Node3</title>
<g id="a_Node000003"><a xlink:href="../../d6/dc3/_facade_8hpp.html" target="_top" xlink:title=" ">
<polygon fill="white" stroke="#666666" points="332.59,-74.5 225.09,-74.5 225.09,-55.25 332.59,-55.25 332.59,-74.5"/>
<text text-anchor="middle" x="278.84" y="-61" font-family="Helvetica,sans-Serif" font-size="10.00">mimic++/Facade.hpp</text>
</a>
</g>
</g>
<!-- Node2&#45;&gt;Node3 -->
<g id="edge2_Node000002_Node000003" class="edge">
<title>Node2&#45;&gt;Node3</title>
<g id="a_edge2_Node000002_Node000003"><a xlink:title=" ">
<path fill="none" stroke="#63b8ff" d="M233.63,-102.91C244.92,-93.67 258.63,-82.43 267.98,-74.77"/>
<polygon fill="#63b8ff" stroke="#63b8ff" points="231.56,-100.09 226.04,-109.13 235.99,-105.5 231.56,-100.09"/>
</a>
</g>
</g>
<!-- Node2&#45;&gt;Node4 -->
<g id="edge6_Node000002_Node000004" class="edge">
<title>Node2&#45;&gt;Node4</title>
<g id="a_edge6_Node000002_Node000004"><a xlink:title=" ">
<path fill="none" stroke="#63b8ff" d="M209.28,-99.38C207.31,-85.82 207.13,-68.02 215.84,-55.25 228.35,-36.91 250.08,-26.06 270.45,-19.67"/>
<polygon fill="#63b8ff" stroke="#63b8ff" points="205.79,-99.73 211.11,-108.89 212.66,-98.41 205.79,-99.73"/>
</a>
</g>
</g>
<!-- Node5 -->
<g id="Node000005" class="node">
<title>Node5</title>
<g id="a_Node000005"><a xlink:href="../../d5/d92/_object_watcher_8hpp.html" target="_top" xlink:title=" ">
<polygon fill="white" stroke="#666666" points="168.72,-74.5 28.97,-74.5 28.97,-55.25 168.72,-55.25 168.72,-74.5"/>
<text text-anchor="middle" x="98.84" y="-61" font-family="Helvetica,sans-Serif" font-size="10.00">mimic++/ObjectWatcher.hpp</text>
</a>
</g>
</g>
<!-- Node2&#45;&gt;Node5 -->
<g id="edge4_Node000002_Node000005" class="edge">
<title>Node2&#45;&gt;Node5</title>
<g id="a_edge4_Node000002_Node000005"><a xlink:title=" ">
<path fill="none" stroke="#63b8ff" d="M183.89,-105.26C163.25,-95.7 136.4,-83.27 118.45,-74.95"/>
<polygon fill="#63b8ff" stroke="#63b8ff" points="182.42,-108.43 192.96,-109.46 185.36,-102.08 182.42,-108.43"/>
</a>
</g>
</g>
<!-- Node3&#45;&gt;Node4 -->
<g id="edge3_Node000003_Node000004" class="edge">
<title>Node3&#45;&gt;Node4</title>
<g id="a_edge3_Node000003_Node000004"><a xlink:title=" ">
<path fill="none" stroke="#63b8ff" d="M292.43,-46.22C299.3,-37.31 307.34,-26.87 312.93,-19.61"/>
<polygon fill="#63b8ff" stroke="#63b8ff" points="289.86,-43.82 286.54,-53.88 295.41,-48.09 289.86,-43.82"/>
</a>
</g>
</g>
<!-- Node5&#45;&gt;Node4 -->
<g id="edge5_Node000005_Node000004" class="edge">
<title>Node5&#45;&gt;Node4</title>
<g id="a_edge5_Node000005_Node000004"><a xlink:title=" ">
<path fill="none" stroke="#63b8ff" d="M147.57,-52.14C188.15,-42.36 245.13,-28.63 282.26,-19.68"/>
<polygon fill="#63b8ff" stroke="#63b8ff" points="146.96,-48.68 138.05,-54.43 148.6,-55.49 146.96,-48.68"/>
</a>
</g>
</g>
<!-- Node6&#45;&gt;Node2 -->
<g id="edge8_Node000006_Node000002" class="edge">
<title>Node6&#45;&gt;Node2</title>
<g id="a_edge8_Node000006_Node000002"><a xlink:title=" ">
<path fill="none" stroke="#63b8ff" d="M265.82,-158.9C252.26,-149.05 236.83,-137.83 226.33,-130.2"/>
<polygon fill="#63b8ff" stroke="#63b8ff" points="263.45,-161.51 273.6,-164.56 267.56,-155.85 263.45,-161.51"/>
</a>
</g>
</g>
<!-- Node6&#45;&gt;Node4 -->
<g id="edge11_Node000006_Node000004" class="edge">
<title>Node6&#45;&gt;Node4</title>
<g id="a_edge11_Node000006_Node000004"><a xlink:title=" ">
<path fill="none" stroke="#63b8ff" d="M299.33,-154.35C302.3,-140.83 306.96,-124.26 313.84,-110.5 322.91,-92.37 335.26,-93.67 341.84,-74.5 348.54,-54.97 335.63,-32.11 326.91,-19.72"/>
<polygon fill="#63b8ff" stroke="#63b8ff" points="295.96,-153.31 297.42,-163.8 302.83,-154.69 295.96,-153.31"/>
</a>
</g>
</g>
<!-- Node7 -->
<g id="Node000007" class="node">
<title>Node7</title>
<g id="a_Node000007"><a xlink:href="../../db/d83/_scoped_sequence_8hpp.html" target="_top" xlink:title=" ">
<polygon fill="white" stroke="#666666" points="474.72,-129.75 322.97,-129.75 322.97,-110.5 474.72,-110.5 474.72,-129.75"/>
<text text-anchor="middle" x="398.84" y="-116.25" font-family="Helvetica,sans-Serif" font-size="10.00">mimic++/ScopedSequence.hpp</text>
</a>
</g>
</g>
<!-- Node6&#45;&gt;Node7 -->
<g id="edge9_Node000006_Node000007" class="edge">
<title>Node6&#45;&gt;Node7</title>
<g id="a_edge9_Node000006_Node000007"><a xlink:title=" ">
<path fill="none" stroke="#63b8ff" d="M330.38,-159.88C348.22,-149.78 368.96,-138.04 382.89,-130.15"/>
<polygon fill="#63b8ff" stroke="#63b8ff" points="329.11,-156.58 322.14,-164.55 332.56,-162.67 329.11,-156.58"/>
</a>
</g>
</g>
<!-- Node7&#45;&gt;Node4 -->
<g id="edge10_Node000007_Node000004" class="edge">
<title>Node7&#45;&gt;Node4</title>
<g id="a_edge10_Node000007_Node000004"><a xlink:title=" ">
<path fill="none" stroke="#63b8ff" d="M394.32,-99.32C390.61,-85.99 384.39,-68.5 374.84,-55.25 364.06,-40.28 347.03,-27.54 334.78,-19.54"/>
<polygon fill="#63b8ff" stroke="#63b8ff" points="390.84,-99.84 396.68,-108.69 397.63,-98.13 390.84,-99.84"/>
</a>
</g>
</g>
<!-- Node8&#45;&gt;Node4 -->
<g id="edge17_Node000008_Node000004" class="edge">
<title>Node8&#45;&gt;Node4</title>
<g id="a_edge17_Node000008_Node000004"><a xlink:title=" ">
<path fill="none" stroke="#63b8ff" d="M441.96,-226.9C456.71,-219.33 471.43,-209.28 481.84,-196.25 506.16,-165.83 512.69,-147.26 499.84,-110.5 489.48,-80.87 481.61,-73.17 455.84,-55.25 430.24,-37.44 397.05,-26.37 369.87,-19.71"/>
<polygon fill="#63b8ff" stroke="#63b8ff" points="440.68,-223.64 433.16,-231.1 443.69,-229.95 440.68,-223.64"/>
</a>
</g>
</g>
<!-- Node8&#45;&gt;Node6 -->
<g id="edge13_Node000008_Node000006" class="edge">
<title>Node8&#45;&gt;Node6</title>
<g id="a_edge13_Node000008_Node000006"><a xlink:title=" ">
<path fill="none" stroke="#63b8ff" d="M356.63,-225.32C343.2,-215.91 327.74,-205.06 315.64,-196.58"/>
<polygon fill="#63b8ff" stroke="#63b8ff" points="354.53,-228.12 364.73,-231 358.55,-222.39 354.53,-228.12"/>
</a>
</g>
</g>
<!-- Node9 -->
<g id="Node000009" class="node">
<title>Node9</title>
<g id="a_Node000009"><a xlink:href="../../db/dd0/_collector_8hpp.html" target="_top" xlink:title=" ">
<polygon fill="white" stroke="#666666" points="473.22,-196.25 366.47,-196.25 366.47,-165.75 473.22,-165.75 473.22,-196.25"/>
<text text-anchor="start" x="374.47" y="-182.75" font-family="Helvetica,sans-Serif" font-size="10.00">mimic++/expectation</text>
<text text-anchor="middle" x="419.84" y="-171.5" font-family="Helvetica,sans-Serif" font-size="10.00">/Collector.hpp</text>
</a>
</g>
</g>
<!-- Node8&#45;&gt;Node9 -->
<g id="edge14_Node000008_Node000009" class="edge">
<title>Node8&#45;&gt;Node9</title>
<g id="a_edge14_Node000008_Node000009"><a xlink:title=" ">
<path fill="none" stroke="#63b8ff" d="M399.53,-221.69C403.88,-213.21 408.59,-203.99 412.38,-196.58"/>
<polygon fill="#63b8ff" stroke="#63b8ff" points="396.46,-220.02 395.02,-230.52 402.69,-223.21 396.46,-220.02"/>
</a>
</g>
</g>
<!-- Node9&#45;&gt;Node4 -->
<g id="edge16_Node000009_Node000004" class="edge">
<title>Node9&#45;&gt;Node4</title>
<g id="a_edge16_Node000009_Node000004"><a xlink:title=" ">
<path fill="none" stroke="#63b8ff" d="M459.02,-159.34C477.8,-146.52 494.19,-128.99 483.84,-110.5 455.85,-60.46 391.44,-32.58 352.18,-19.67"/>
<polygon fill="#63b8ff" stroke="#63b8ff" points="457.27,-156.31 450.69,-164.61 461.01,-162.22 457.27,-156.31"/>
</a>
</g>
</g>
<!-- Node9&#45;&gt;Node7 -->
<g id="edge15_Node000009_Node000007" class="edge">
<title>Node9&#45;&gt;Node7</title>
<g id="a_edge15_Node000009_Node000007"><a xlink:title=" ">
<path fill="none" stroke="#63b8ff" d="M410.88,-154.86C407.75,-146.09 404.44,-136.81 402.08,-130.2"/>
<polygon fill="#63b8ff" stroke="#63b8ff" points="407.49,-155.78 414.14,-164.02 414.08,-153.43 407.49,-155.78"/>
</a>
</g>
</g>
</g>
</svg>
