<?xml version="1.0" encoding="UTF-8" standalone="no"?>
<!DOCTYPE svg PUBLIC "-//W3C//DTD SVG 1.1//EN"
 "http://www.w3.org/Graphics/SVG/1.1/DTD/svg11.dtd">
<!-- Generated by graphviz version 12.2.1 (20241206.2353)
 -->
<!-- Title: mimicpp::util::type_list_pop_back&lt; TypeList &gt; Pages: 1 -->
<!--zoomable 80 -->

<svg id="main" version="1.1" xmlns="http://www.w3.org/2000/svg" xmlns:xlink="http://www.w3.org/1999/xlink" xml:space="preserve" onload="init(evt)">

<style type="text/css"><![CDATA[
.node, .edge {opacity: 0.7;}
.node.selected, .edge.selected {opacity: 1;}
.edge:hover path { stroke: red; }
.edge:hover polygon { stroke: red; fill: red; }
]]></style>

<defs>
  <circle id="rim" cx="0" cy="0" r="7"/>
  <circle id="rim2" cx="0" cy="0" r="3.5"/>
  <g id="zoomPlus">
    <use xlink:href="#rim" fill="#404040"><set attributeName="fill" to="#808080" begin="zoomplus.mouseover" end="zoomplus.mouseout"/></use>
    <path d="M-4,0h8M0,-4v8" fill="none" stroke="white" stroke-width="1.5" pointer-events="none"/>
  </g>
  <g id="zoomMin">
    <use xlink:href="#rim" fill="#404040"><set attributeName="fill" to="#808080" begin="zoomminus.mouseover" end="zoomminus.mouseout"/></use>
    <path d="M-4,0h8" fill="none" stroke="white" stroke-width="1.5" pointer-events="none"/>
  </g>
  <g id="arrowUp" transform="translate(30 24)">
    <use xlink:href="#rim"/>
    <path pointer-events="none" fill="none" stroke="white" stroke-width="1.5" d="M0,-3.0v7 M-2.5,-0.5L0,-3.0L2.5,-0.5"/>
  </g>
  <g id="arrowRight" transform="rotate(90) translate(36 -43)">
    <use xlink:href="#rim"/>
    <path pointer-events="none" fill="none" stroke="white" stroke-width="1.5" d="M0,-3.0v7 M-2.5,-0.5L0,-3.0L2.5,-0.5"/>
  </g>
  <g id="arrowDown" transform="rotate(180) translate(-30 -48)">
    <use xlink:href="#rim"/>
    <path pointer-events="none" fill="none" stroke="white" stroke-width="1.5" d="M0,-3.0v7 M-2.5,-0.5L0,-3.0L2.5,-0.5"/>
  </g>
  <g id="arrowLeft" transform="rotate(270) translate(-36 17)">
    <use xlink:href="#rim"/>
    <path pointer-events="none" fill="none" stroke="white" stroke-width="1.5" d="M0,-3.0v7 M-2.5,-0.5L0,-3.0L2.5,-0.5"/>
  </g>
  <g id="resetDef">
    <use xlink:href="#rim2" fill="#404040"><set attributeName="fill" to="#808080" begin="reset.mouseover" end="reset.mouseout"/></use>
  </g>
</defs>
<script type="application/ecmascript">
var viewWidth = 1188;
var viewHeight = 80;
var sectionId = 'dynsection-0';
</script>
<script type="application/ecmascript" xlink:href="../../svg.min.js"/>
<svg id="graph" class="graph">
<g id="viewport">
<title>mimicpp::util::type_list_pop_back&lt; TypeList &gt;</title>
<!-- Node1 -->
<g id="Node000001" class="node">
<title>Node1</title>
<g id="a_Node000001"><a xlink:title=" ">
<polygon fill="#999999" stroke="#666666" points="593.5,-63.12 458.25,-63.12 458.25,-32.62 593.5,-32.62 593.5,-63.12"/>
<text text-anchor="start" x="466.25" y="-49.62" font-family="Helvetica,sans-Serif" font-size="10.00">mimicpp::util::type</text>
<text text-anchor="middle" x="525.88" y="-38.38" font-family="Helvetica,sans-Serif" font-size="10.00">_list_pop_back&lt; TypeList &gt;</text>
</a>
</g>
</g>
<!-- Node4 -->
<g id="Node000004" class="node">
<title>Node4</title>
<g id="a_Node000004"><a xlink:title=" ">
<polygon fill="white" stroke="#666666" points="1179.5,-72.38 1063.75,-72.38 1063.75,-19.38 1179.5,-19.38 1179.5,-72.38"/>
<text text-anchor="start" x="1071.75" y="-58.88" font-family="Helvetica,sans-Serif" font-size="10.00">mimicpp::printing::</text>
<text text-anchor="start" x="1071.75" y="-47.62" font-family="Helvetica,sans-Serif" font-size="10.00">type::detail::type_list</text>
<text text-anchor="start" x="1071.75" y="-36.38" font-family="Helvetica,sans-Serif" font-size="10.00">_pop_back_if_can&lt; util</text>
<text text-anchor="middle" x="1121.62" y="-25.12" font-family="Helvetica,sans-Serif" font-size="10.00">::type_list&lt;&gt; &gt;</text>
</a>
</g>
</g>
<!-- Node1&#45;&gt;Node4 -->
<g id="edge3_Node000001_Node000004" class="edge">
<title>Node1&#45;&gt;Node4</title>
<g id="a_edge3_Node000001_Node000004"><a xlink:title=" ">
<path fill="none" stroke="#63b8ff" d="M605.24,-53.63C607.35,-53.72 609.44,-53.8 611.5,-53.88 627.16,-54.43 631.08,-53.89 646.75,-53.88 824.08,-53.65 868.62,-61.36 1045.75,-52.88 1051.49,-52.6 1057.47,-52.21 1063.43,-51.76"/>
<polygon fill="#63b8ff" stroke="#63b8ff" points="605.5,-50.14 595.34,-53.14 605.16,-57.13 605.5,-50.14"/>
</a>
</g>
</g>
<!-- Node5 -->
<g id="Node000005" class="node">
<title>Node5</title>
<g id="a_Node000005"><a xlink:href="../../dc/d8d/structmimicpp_1_1util_1_1type__list__pop__back.html" target="_top" xlink:title=" ">
<polygon fill="white" stroke="#666666" points="779,-41.12 664.75,-41.12 664.75,-10.62 779,-10.62 779,-41.12"/>
<text text-anchor="start" x="672.75" y="-27.62" font-family="Helvetica,sans-Serif" font-size="10.00">mimicpp::util::type</text>
<text text-anchor="middle" x="721.88" y="-16.38" font-family="Helvetica,sans-Serif" font-size="10.00">_list_pop_back&lt; List &gt;</text>
</a>
</g>
</g>
<!-- Node1&#45;&gt;Node5 -->
<g id="edge4_Node000001_Node000005" class="edge">
<title>Node1&#45;&gt;Node5</title>
<g id="a_edge4_Node000001_Node000005"><a xlink:title=" ">
<path fill="none" stroke="orange" stroke-dasharray="5,2" d="M605.13,-39C624.99,-36.75 645.94,-34.37 664.47,-32.27"/>
<polygon fill="orange" stroke="orange" points="604.96,-35.5 595.41,-40.1 605.75,-42.45 604.96,-35.5"/>
</a>
</g>
<text text-anchor="middle" x="629.12" y="-39.94" font-family="Helvetica,sans-Serif" font-size="10.00" fill="grey"> &lt; List &gt;</text>
</g>
<!-- Node2 -->
<g id="Node000002" class="node">
<title>Node2</title>
<g id="a_Node000002"><a xlink:title=" ">
<polygon fill="white" stroke="#666666" points="421.25,-68.75 298,-68.75 298,-27 421.25,-27 421.25,-68.75"/>
<text text-anchor="start" x="306" y="-55.25" font-family="Helvetica,sans-Serif" font-size="10.00">mimicpp::util::detail</text>
<text text-anchor="start" x="306" y="-44" font-family="Helvetica,sans-Serif" font-size="10.00">::type_list_pop_back</text>
<text text-anchor="middle" x="359.62" y="-32.75" font-family="Helvetica,sans-Serif" font-size="10.00">&lt; type_list&lt;&gt;, TypeList &gt;</text>
</a>
</g>
</g>
<!-- Node2&#45;&gt;Node1 -->
<g id="edge1_Node000001_Node000002" class="edge">
<title>Node2&#45;&gt;Node1</title>
<g id="a_edge1_Node000001_Node000002"><a xlink:title=" ">
<path fill="none" stroke="#63b8ff" d="M432.61,-47.88C440.98,-47.88 449.5,-47.88 457.8,-47.88"/>
<polygon fill="#63b8ff" stroke="#63b8ff" points="432.83,-44.38 422.83,-47.88 432.83,-51.38 432.83,-44.38"/>
</a>
</g>
</g>
<!-- Node3 -->
<g id="Node000003" class="node">
<title>Node3</title>
<g id="a_Node000003"><a xlink:title=" ">
<polygon fill="white" stroke="#666666" points="152.5,-68.75 0,-68.75 0,-27 152.5,-27 152.5,-68.75"/>
<text text-anchor="start" x="8" y="-55.25" font-family="Helvetica,sans-Serif" font-size="10.00">mimicpp::util::detail</text>
<text text-anchor="start" x="8" y="-44" font-family="Helvetica,sans-Serif" font-size="10.00">::type_list_pop_back</text>
<text text-anchor="middle" x="76.25" y="-32.75" font-family="Helvetica,sans-Serif" font-size="10.00">&lt; ProcessedList, PendingList &gt;</text>
</a>
</g>
</g>
<!-- Node3&#45;&gt;Node2 -->
<g id="edge2_Node000002_Node000003" class="edge">
<title>Node3&#45;&gt;Node2</title>
<g id="a_edge2_Node000002_Node000003"><a xlink:title=" ">
<path fill="none" stroke="orange" stroke-dasharray="5,2" d="M164.05,-47.88C207.34,-47.88 258.64,-47.88 297.7,-47.88"/>
<polygon fill="orange" stroke="orange" points="164.17,-44.38 154.17,-47.88 164.17,-51.38 164.17,-44.38"/>
</a>
</g>
<text text-anchor="middle" x="225.25" y="-49.62" font-family="Helvetica,sans-Serif" font-size="10.00" fill="grey"> &lt; type_list&lt;&gt;, TypeList &gt;</text>
</g>
<!-- Node6 -->
<g id="Node000006" class="node">
<title>Node6</title>
<g id="a_Node000006"><a xlink:title=" ">
<polygon fill="white" stroke="#666666" points="943.75,-41.75 816,-41.75 816,0 943.75,0 943.75,-41.75"/>
<text text-anchor="start" x="824" y="-28.25" font-family="Helvetica,sans-Serif" font-size="10.00">mimicpp::printing::</text>
<text text-anchor="start" x="824" y="-17" font-family="Helvetica,sans-Serif" font-size="10.00">type::detail::type_list</text>
<text text-anchor="middle" x="879.88" y="-5.75" font-family="Helvetica,sans-Serif" font-size="10.00">_pop_back_if_can&lt; List &gt;</text>
</a>
</g>
</g>
<!-- Node5&#45;&gt;Node6 -->
<g id="edge5_Node000005_Node000006" class="edge">
<title>Node5&#45;&gt;Node6</title>
<g id="a_edge5_Node000005_Node000006"><a xlink:title=" ">
<path fill="none" stroke="#63b8ff" d="M790.5,-23.71C798.89,-23.44 807.44,-23.16 815.76,-22.9"/>
<polygon fill="#63b8ff" stroke="#63b8ff" points="790.59,-20.2 780.71,-24.02 790.81,-27.2 790.59,-20.2"/>
</a>
</g>
</g>
<!-- Node6&#45;&gt;Node4 -->
<g id="edge6_Node000006_Node000004" class="edge">
<title>Node6&#45;&gt;Node4</title>
<g id="a_edge6_Node000006_Node000004"><a xlink:title=" ">
<path fill="none" stroke="orange" stroke-dasharray="5,2" d="M955.28,-28.63C990.18,-32.27 1031.12,-36.54 1063.53,-39.92"/>
<polygon fill="orange" stroke="orange" points="955.99,-25.19 945.69,-27.63 955.27,-32.15 955.99,-25.19"/>
</a>
</g>
<text text-anchor="middle" x="1003.75" y="-39.54" font-family="Helvetica,sans-Serif" font-size="10.00" fill="grey"> &lt; util::type_list&lt;&gt; &gt;</text>
</g>
</g>
</svg>

<g id="navigator" transform="translate(0 0)" fill="#404254">
  <rect fill="#f2f5e9" fill-opacity="0.5" stroke="#606060" stroke-width=".5" x="0" y="0" width="60" height="60"/>
  <use id="zoomplus" xlink:href="#zoomPlus" x="17" y="9" onmousedown="handleZoom(evt,'in')"/>
  <use id="zoomminus" xlink:href="#zoomMin" x="42" y="9" onmousedown="handleZoom(evt,'out')"/>
  <use id="reset" xlink:href="#resetDef" x="30" y="36" onmousedown="handleReset()"/>
   <use id="arrowup" xlink:href="#arrowUp" x="0" y="0" onmousedown="handlePan(0,-1)"/>
  <use id="arrowright" xlink:href="#arrowRight" x="0" y="0" onmousedown="handlePan(1,0)"/>
  <use id="arrowdown" xlink:href="#arrowDown" x="0" y="0" onmousedown="handlePan(0,1)"/>
  <use id="arrowleft" xlink:href="#arrowLeft" x="0" y="0" onmousedown="handlePan(-1,0)"/>
</g>
<svg viewBox="0 0 15 15" width="100%" height="30px" preserveAspectRatio="xMaxYMin meet">
 <g id="arrow_out" transform="scale(0.3 0.3)">
  <a xlink:href="structmimicpp_1_1util_1_1type__list__pop__back__inherit__graph_org.svg" target="_base">
   <rect id="button" ry="5" rx="5" y="6" x="6" height="38" width="38"
        fill="#f2f5e9" fill-opacity="0.5" stroke="#606060" stroke-width="1.0"/>
   <path id="arrow"
     d="M 11.500037,31.436501 C 11.940474,20.09759 22.043105,11.32322 32.158766,21.979434 L 37.068811,17.246167 C 37.068811,17.246167 37.088388,32 37.088388,32 L 22.160133,31.978069 C 22.160133,31.978069 26.997745,27.140456 26.997745,27.140456 C 18.528582,18.264221 13.291696,25.230495 11.500037,31.436501 z"
     style="fill:#404040;"/>
  </a>
 </g>
</svg>

<style type='text/css'>
<![CDATA[
[data-mouse-over-selected='false'] { opacity: 0.7; }
[data-mouse-over-selected='true']  { opacity: 1.0; }
]]>
</style>
<script type="application/ecmascript"><![CDATA[
document.addEventListener('DOMContentLoaded', (event) => {
  highlightEdges();
  highlightAdjacentNodes();
});
]]></script>
</svg>
