<?xml version="1.0" encoding="UTF-8" standalone="no"?>
<!DOCTYPE svg PUBLIC "-//W3C//DTD SVG 1.1//EN"
 "http://www.w3.org/Graphics/SVG/1.1/DTD/svg11.dtd">
<!-- Generated by graphviz version 12.2.1 (20241206.2353)
 -->
<!-- Title: mimicpp::util::type_list_pop_back&lt; TypeList &gt; Pages: 1 -->
<svg width="1188pt" height="80pt"
 viewBox="0.00 0.00 1187.50 80.38" xmlns="http://www.w3.org/2000/svg" xmlns:xlink="http://www.w3.org/1999/xlink">
<g id="graph0" class="graph" transform="scale(1 1) rotate(0) translate(4 76.38)">
<title>mimicpp::util::type_list_pop_back&lt; TypeList &gt;</title>
<!-- Node1 -->
<g id="Node000001" class="node">
<title>Node1</title>
<g id="a_Node000001"><a xlink:title=" ">
<polygon fill="#999999" stroke="#666666" points="593.5,-63.12 458.25,-63.12 458.25,-32.62 593.5,-32.62 593.5,-63.12"/>
<text text-anchor="start" x="466.25" y="-49.62" font-family="Helvetica,sans-Serif" font-size="10.00">mimicpp::util::type</text>
<text text-anchor="middle" x="525.88" y="-38.38" font-family="Helvetica,sans-Serif" font-size="10.00">_list_pop_back&lt; TypeList &gt;</text>
</a>
</g>
</g>
<!-- Node4 -->
<g id="Node000004" class="node">
<title>Node4</title>
<g id="a_Node000004"><a xlink:title=" ">
<polygon fill="white" stroke="#666666" points="1179.5,-72.38 1063.75,-72.38 1063.75,-19.38 1179.5,-19.38 1179.5,-72.38"/>
<text text-anchor="start" x="1071.75" y="-58.88" font-family="Helvetica,sans-Serif" font-size="10.00">mimicpp::printing::</text>
<text text-anchor="start" x="1071.75" y="-47.62" font-family="Helvetica,sans-Serif" font-size="10.00">detail::type::type_list</text>
<text text-anchor="start" x="1071.75" y="-36.38" font-family="Helvetica,sans-Serif" font-size="10.00">_pop_back_if_can&lt; util</text>
<text text-anchor="middle" x="1121.62" y="-25.12" font-family="Helvetica,sans-Serif" font-size="10.00">::type_list&lt;&gt; &gt;</text>
</a>
</g>
</g>
<!-- Node1&#45;&gt;Node4 -->
<g id="edge3_Node000001_Node000004" class="edge">
<title>Node1&#45;&gt;Node4</title>
<g id="a_edge3_Node000001_Node000004"><a xlink:title=" ">
<path fill="none" stroke="#63b8ff" d="M605.24,-53.63C607.35,-53.72 609.44,-53.8 611.5,-53.88 627.16,-54.43 631.08,-53.89 646.75,-53.88 824.08,-53.65 868.62,-61.36 1045.75,-52.88 1051.49,-52.6 1057.47,-52.21 1063.43,-51.76"/>
<polygon fill="#63b8ff" stroke="#63b8ff" points="605.5,-50.14 595.34,-53.14 605.16,-57.13 605.5,-50.14"/>
</a>
</g>
</g>
<!-- Node5 -->
<g id="Node000005" class="node">
<title>Node5</title>
<g id="a_Node000005"><a xlink:href="../../dc/d8d/structmimicpp_1_1util_1_1type__list__pop__back.html" target="_top" xlink:title=" ">
<polygon fill="white" stroke="#666666" points="779,-41.12 664.75,-41.12 664.75,-10.62 779,-10.62 779,-41.12"/>
<text text-anchor="start" x="672.75" y="-27.62" font-family="Helvetica,sans-Serif" font-size="10.00">mimicpp::util::type</text>
<text text-anchor="middle" x="721.88" y="-16.38" font-family="Helvetica,sans-Serif" font-size="10.00">_list_pop_back&lt; List &gt;</text>
</a>
</g>
</g>
<!-- Node1&#45;&gt;Node5 -->
<g id="edge4_Node000001_Node000005" class="edge">
<title>Node1&#45;&gt;Node5</title>
<g id="a_edge4_Node000001_Node000005"><a xlink:title=" ">
<path fill="none" stroke="orange" stroke-dasharray="5,2" d="M605.13,-39C624.99,-36.75 645.94,-34.37 664.47,-32.27"/>
<polygon fill="orange" stroke="orange" points="604.96,-35.5 595.41,-40.1 605.75,-42.45 604.96,-35.5"/>
</a>
</g>
<text text-anchor="middle" x="629.12" y="-39.94" font-family="Helvetica,sans-Serif" font-size="10.00" fill="grey"> &lt; List &gt;</text>
</g>
<!-- Node2 -->
<g id="Node000002" class="node">
<title>Node2</title>
<g id="a_Node000002"><a xlink:title=" ">
<polygon fill="white" stroke="#666666" points="421.25,-68.75 298,-68.75 298,-27 421.25,-27 421.25,-68.75"/>
<text text-anchor="start" x="306" y="-55.25" font-family="Helvetica,sans-Serif" font-size="10.00">mimicpp::util::detail</text>
<text text-anchor="start" x="306" y="-44" font-family="Helvetica,sans-Serif" font-size="10.00">::type_list_pop_back</text>
<text text-anchor="middle" x="359.62" y="-32.75" font-family="Helvetica,sans-Serif" font-size="10.00">&lt; type_list&lt;&gt;, TypeList &gt;</text>
</a>
</g>
</g>
<!-- Node2&#45;&gt;Node1 -->
<g id="edge1_Node000001_Node000002" class="edge">
<title>Node2&#45;&gt;Node1</title>
<g id="a_edge1_Node000001_Node000002"><a xlink:title=" ">
<path fill="none" stroke="#63b8ff" d="M432.61,-47.88C440.98,-47.88 449.5,-47.88 457.8,-47.88"/>
<polygon fill="#63b8ff" stroke="#63b8ff" points="432.83,-44.38 422.83,-47.88 432.83,-51.38 432.83,-44.38"/>
</a>
</g>
</g>
<!-- Node3 -->
<g id="Node000003" class="node">
<title>Node3</title>
<g id="a_Node000003"><a xlink:title=" ">
<polygon fill="white" stroke="#666666" points="152.5,-68.75 0,-68.75 0,-27 152.5,-27 152.5,-68.75"/>
<text text-anchor="start" x="8" y="-55.25" font-family="Helvetica,sans-Serif" font-size="10.00">mimicpp::util::detail</text>
<text text-anchor="start" x="8" y="-44" font-family="Helvetica,sans-Serif" font-size="10.00">::type_list_pop_back</text>
<text text-anchor="middle" x="76.25" y="-32.75" font-family="Helvetica,sans-Serif" font-size="10.00">&lt; ProcessedList, PendingList &gt;</text>
</a>
</g>
</g>
<!-- Node3&#45;&gt;Node2 -->
<g id="edge2_Node000002_Node000003" class="edge">
<title>Node3&#45;&gt;Node2</title>
<g id="a_edge2_Node000002_Node000003"><a xlink:title=" ">
<path fill="none" stroke="orange" stroke-dasharray="5,2" d="M164.05,-47.88C207.34,-47.88 258.64,-47.88 297.7,-47.88"/>
<polygon fill="orange" stroke="orange" points="164.17,-44.38 154.17,-47.88 164.17,-51.38 164.17,-44.38"/>
</a>
</g>
<text text-anchor="middle" x="225.25" y="-49.62" font-family="Helvetica,sans-Serif" font-size="10.00" fill="grey"> &lt; type_list&lt;&gt;, TypeList &gt;</text>
</g>
<!-- Node6 -->
<g id="Node000006" class="node">
<title>Node6</title>
<g id="a_Node000006"><a xlink:title=" ">
<polygon fill="white" stroke="#666666" points="943.75,-41.75 816,-41.75 816,0 943.75,0 943.75,-41.75"/>
<text text-anchor="start" x="824" y="-28.25" font-family="Helvetica,sans-Serif" font-size="10.00">mimicpp::printing::</text>
<text text-anchor="start" x="824" y="-17" font-family="Helvetica,sans-Serif" font-size="10.00">detail::type::type_list</text>
<text text-anchor="middle" x="879.88" y="-5.75" font-family="Helvetica,sans-Serif" font-size="10.00">_pop_back_if_can&lt; List &gt;</text>
</a>
</g>
</g>
<!-- Node5&#45;&gt;Node6 -->
<g id="edge5_Node000005_Node000006" class="edge">
<title>Node5&#45;&gt;Node6</title>
<g id="a_edge5_Node000005_Node000006"><a xlink:title=" ">
<path fill="none" stroke="#63b8ff" d="M790.5,-23.71C798.89,-23.44 807.44,-23.16 815.76,-22.9"/>
<polygon fill="#63b8ff" stroke="#63b8ff" points="790.59,-20.2 780.71,-24.02 790.81,-27.2 790.59,-20.2"/>
</a>
</g>
</g>
<!-- Node6&#45;&gt;Node4 -->
<g id="edge6_Node000006_Node000004" class="edge">
<title>Node6&#45;&gt;Node4</title>
<g id="a_edge6_Node000006_Node000004"><a xlink:title=" ">
<path fill="none" stroke="orange" stroke-dasharray="5,2" d="M955.28,-28.63C990.18,-32.27 1031.12,-36.54 1063.53,-39.92"/>
<polygon fill="orange" stroke="orange" points="955.99,-25.19 945.69,-27.63 955.27,-32.15 955.99,-25.19"/>
</a>
</g>
<text text-anchor="middle" x="1003.75" y="-39.54" font-family="Helvetica,sans-Serif" font-size="10.00" fill="grey"> &lt; util::type_list&lt;&gt; &gt;</text>
</g>
</g>
</svg>
