<?xml version="1.0" encoding="UTF-8" standalone="no"?>
<!DOCTYPE svg PUBLIC "-//W3C//DTD SVG 1.1//EN"
 "http://www.w3.org/Graphics/SVG/1.1/DTD/svg11.dtd">
<!-- Generated by graphviz version 12.1.1 (20240910.0053)
 -->
<!-- Title: mimic++/ControlPolicy.hpp Pages: 1 -->
<svg width="1351pt" height="414pt"
 viewBox="0.00 0.00 1351.00 414.00" xmlns="http://www.w3.org/2000/svg" xmlns:xlink="http://www.w3.org/1999/xlink">
<g id="graph0" class="graph" transform="scale(1 1) rotate(0) translate(4 410)">
<title>mimic++/ControlPolicy.hpp</title>
<!-- Node1 -->
<g id="Node000001" class="node">
<title>Node1</title>
<g id="a_Node000001"><a xlink:title=" ">
<polygon fill="#999999" stroke="#666666" points="1149.12,-406 1016.88,-406 1016.88,-386.75 1149.12,-386.75 1149.12,-406"/>
<text text-anchor="middle" x="1083" y="-392.5" font-family="Helvetica,sans-Serif" font-size="10.00">mimic++/ControlPolicy.hpp</text>
</a>
</g>
</g>
<!-- Node2 -->
<g id="Node000002" class="node">
<title>Node2</title>
<g id="a_Node000002"><a xlink:href="../../d0/d3b/_reports_8hpp.html" target="_top" xlink:title=" ">
<polygon fill="white" stroke="#666666" points="788.5,-240.25 679.5,-240.25 679.5,-221 788.5,-221 788.5,-240.25"/>
<text text-anchor="middle" x="734" y="-226.75" font-family="Helvetica,sans-Serif" font-size="10.00">mimic++/Reports.hpp</text>
</a>
</g>
</g>
<!-- Node1&#45;&gt;Node2 -->
<g id="edge1_Node000001_Node000002" class="edge">
<title>Node1&#45;&gt;Node2</title>
<g id="a_edge1_Node000001_Node000002"><a xlink:title=" ">
<path fill="none" stroke="#63b8ff" d="M1063.74,-386.34C1005.82,-359.16 832.96,-278.06 763.44,-245.44"/>
<polygon fill="#63b8ff" stroke="#63b8ff" points="765.11,-242.36 754.57,-241.28 762.14,-248.69 765.11,-242.36"/>
</a>
</g>
</g>
<!-- Node7 -->
<g id="Node000007" class="node">
<title>Node7</title>
<g id="a_Node000007"><a xlink:title=" ">
<polygon fill="#e0e0e0" stroke="#999999" points="1140.5,-74.5 1103.5,-74.5 1103.5,-55.25 1140.5,-55.25 1140.5,-74.5"/>
<text text-anchor="middle" x="1122" y="-61" font-family="Helvetica,sans-Serif" font-size="10.00">tuple</text>
</a>
</g>
</g>
<!-- Node1&#45;&gt;Node7 -->
<g id="edge65_Node000001_Node000007" class="edge">
<title>Node1&#45;&gt;Node7</title>
<g id="a_edge65_Node000001_Node000007"><a xlink:title=" ">
<path fill="none" stroke="#63b8ff" d="M1115.73,-386.3C1135.25,-379.39 1159.21,-368.07 1175,-350.75 1195.43,-328.34 1199,-317.2 1199,-286.88 1199,-286.88 1199,-286.88 1199,-174.38 1199,-135.6 1165.89,-101.02 1143.09,-81.81"/>
<polygon fill="#63b8ff" stroke="#63b8ff" points="1145.53,-79.28 1135.55,-75.73 1141.13,-84.73 1145.53,-79.28"/>
</a>
</g>
</g>
<!-- Node8 -->
<g id="Node000008" class="node">
<title>Node8</title>
<g id="a_Node000008"><a xlink:href="../../d4/d2c/_utility_8hpp.html" target="_top" xlink:title=" ">
<polygon fill="white" stroke="#666666" points="318,-129.75 218,-129.75 218,-110.5 318,-110.5 318,-129.75"/>
<text text-anchor="middle" x="268" y="-116.25" font-family="Helvetica,sans-Serif" font-size="10.00">mimic++/Utility.hpp</text>
</a>
</g>
</g>
<!-- Node1&#45;&gt;Node8 -->
<g id="edge59_Node000001_Node000008" class="edge">
<title>Node1&#45;&gt;Node8</title>
<g id="a_edge59_Node000001_Node000008"><a xlink:title=" ">
<path fill="none" stroke="#63b8ff" d="M1016.63,-388.71C851.15,-371.05 425.23,-318.99 309,-240.25 283.68,-223.1 277.6,-214.03 268,-185 263.35,-170.94 263.55,-154.18 264.81,-141.35"/>
<polygon fill="#63b8ff" stroke="#63b8ff" points="268.26,-141.95 266.08,-131.58 261.32,-141.05 268.26,-141.95"/>
</a>
</g>
</g>
<!-- Node9 -->
<g id="Node000009" class="node">
<title>Node9</title>
<g id="a_Node000009"><a xlink:title=" ">
<polygon fill="#e0e0e0" stroke="#999999" points="93.12,-74.5 44.88,-74.5 44.88,-55.25 93.12,-55.25 93.12,-74.5"/>
<text text-anchor="middle" x="69" y="-61" font-family="Helvetica,sans-Serif" font-size="10.00">cassert</text>
</a>
</g>
</g>
<!-- Node1&#45;&gt;Node9 -->
<g id="edge60_Node000001_Node000009" class="edge">
<title>Node1&#45;&gt;Node9</title>
<g id="a_edge60_Node000001_Node000009"><a xlink:title=" ">
<path fill="none" stroke="#63b8ff" d="M1016.48,-395.72C780.85,-396.09 0,-389.56 0,-286.88 0,-286.88 0,-286.88 0,-174.38 0,-137.04 29.45,-102.18 49.87,-82.49"/>
<polygon fill="#63b8ff" stroke="#63b8ff" points="52.13,-85.17 57.11,-75.82 47.38,-80.03 52.13,-85.17"/>
</a>
</g>
</g>
<!-- Node12 -->
<g id="Node000012" class="node">
<title>Node12</title>
<g id="a_Node000012"><a xlink:title=" ">
<polygon fill="#e0e0e0" stroke="#999999" points="799.25,-74.5 760.75,-74.5 760.75,-55.25 799.25,-55.25 799.25,-74.5"/>
<text text-anchor="middle" x="780" y="-61" font-family="Helvetica,sans-Serif" font-size="10.00">utility</text>
</a>
</g>
</g>
<!-- Node1&#45;&gt;Node12 -->
<g id="edge66_Node000001_Node000012" class="edge">
<title>Node1&#45;&gt;Node12</title>
<g id="a_edge66_Node000001_Node000012"><a xlink:title=" ">
<path fill="none" stroke="#63b8ff" d="M1095.53,-386.51C1117.58,-369.77 1161,-331.19 1161,-286.88 1161,-286.88 1161,-286.88 1161,-229.62 1161,-77.68 902.05,-64.97 811.12,-65.19"/>
<polygon fill="#63b8ff" stroke="#63b8ff" points="811.16,-61.69 801.2,-65.28 811.23,-68.69 811.16,-61.69"/>
</a>
</g>
</g>
<!-- Node19 -->
<g id="Node000019" class="node">
<title>Node19</title>
<g id="a_Node000019"><a xlink:title=" ">
<polygon fill="#e0e0e0" stroke="#999999" points="1033.88,-185 984.12,-185 984.12,-165.75 1033.88,-165.75 1033.88,-185"/>
<text text-anchor="middle" x="1009" y="-171.5" font-family="Helvetica,sans-Serif" font-size="10.00">optional</text>
</a>
</g>
</g>
<!-- Node1&#45;&gt;Node19 -->
<g id="edge63_Node000001_Node000019" class="edge">
<title>Node1&#45;&gt;Node19</title>
<g id="a_edge63_Node000001_Node000019"><a xlink:title=" ">
<path fill="none" stroke="#63b8ff" d="M1080.94,-386.62C1077.97,-374.25 1072.16,-350.98 1066,-331.5 1050.34,-281.97 1028.32,-224.91 1016.77,-195.74"/>
<polygon fill="#63b8ff" stroke="#63b8ff" points="1020.15,-194.77 1013.2,-186.77 1013.65,-197.36 1020.15,-194.77"/>
</a>
</g>
</g>
<!-- Node23 -->
<g id="Node000023" class="node">
<title>Node23</title>
<g id="a_Node000023"><a xlink:title=" ">
<polygon fill="#e0e0e0" stroke="#999999" points="1094.5,-185 1051.5,-185 1051.5,-165.75 1094.5,-165.75 1094.5,-185"/>
<text text-anchor="middle" x="1073" y="-171.5" font-family="Helvetica,sans-Serif" font-size="10.00">vector</text>
</a>
</g>
</g>
<!-- Node1&#45;&gt;Node23 -->
<g id="edge67_Node000001_Node000023" class="edge">
<title>Node1&#45;&gt;Node23</title>
<g id="a_edge67_Node000001_Node000023"><a xlink:title=" ">
<path fill="none" stroke="#63b8ff" d="M1086.73,-386.34C1090.18,-377.46 1095.06,-363.43 1097,-350.75 1105.73,-293.75 1111.08,-276.92 1097,-221 1094.72,-211.96 1090.21,-202.75 1085.71,-195.06"/>
<polygon fill="#63b8ff" stroke="#63b8ff" points="1088.71,-193.25 1080.4,-186.67 1082.79,-196.99 1088.71,-193.25"/>
</a>
</g>
</g>
<!-- Node24 -->
<g id="Node000024" class="node">
<title>Node24</title>
<g id="a_Node000024"><a xlink:href="../../d8/de4/_sequence_8hpp.html" target="_top" xlink:title=" ">
<polygon fill="white" stroke="#666666" points="297.38,-350.75 178.62,-350.75 178.62,-331.5 297.38,-331.5 297.38,-350.75"/>
<text text-anchor="middle" x="238" y="-337.25" font-family="Helvetica,sans-Serif" font-size="10.00">mimic++/Sequence.hpp</text>
</a>
</g>
</g>
<!-- Node1&#45;&gt;Node24 -->
<g id="edge36_Node000001_Node000024" class="edge">
<title>Node1&#45;&gt;Node24</title>
<g id="a_edge36_Node000001_Node000024"><a xlink:title=" ">
<path fill="none" stroke="#63b8ff" d="M1016.55,-392.88C882.81,-387.55 571.62,-373.66 311,-350.75 310.32,-350.69 309.65,-350.63 308.96,-350.57"/>
<polygon fill="#63b8ff" stroke="#63b8ff" points="309.53,-347.11 299.23,-349.62 308.85,-354.07 309.53,-347.11"/>
</a>
</g>
</g>
<!-- Node27 -->
<g id="Node000027" class="node">
<title>Node27</title>
<g id="a_Node000027"><a xlink:title=" ">
<polygon fill="#e0e0e0" stroke="#999999" points="1016.25,-240.25 965.75,-240.25 965.75,-221 1016.25,-221 1016.25,-240.25"/>
<text text-anchor="middle" x="991" y="-226.75" font-family="Helvetica,sans-Serif" font-size="10.00">memory</text>
</a>
</g>
</g>
<!-- Node1&#45;&gt;Node27 -->
<g id="edge62_Node000001_Node000027" class="edge">
<title>Node1&#45;&gt;Node27</title>
<g id="a_edge62_Node000001_Node000027"><a xlink:title=" ">
<path fill="none" stroke="#63b8ff" d="M1078.05,-386.57C1063.64,-360.92 1021.44,-285.8 1001.57,-250.44"/>
<polygon fill="#63b8ff" stroke="#63b8ff" points="1004.66,-248.8 996.71,-241.79 998.56,-252.22 1004.66,-248.8"/>
</a>
</g>
</g>
<!-- Node30 -->
<g id="Node000030" class="node">
<title>Node30</title>
<g id="a_Node000030"><a xlink:title=" ">
<polygon fill="#e0e0e0" stroke="#999999" points="1266.62,-350.75 1227.38,-350.75 1227.38,-331.5 1266.62,-331.5 1266.62,-350.75"/>
<text text-anchor="middle" x="1247" y="-337.25" font-family="Helvetica,sans-Serif" font-size="10.00">limits</text>
</a>
</g>
</g>
<!-- Node1&#45;&gt;Node30 -->
<g id="edge61_Node000001_Node000030" class="edge">
<title>Node1&#45;&gt;Node30</title>
<g id="a_edge61_Node000001_Node000030"><a xlink:title=" ">
<path fill="none" stroke="#63b8ff" d="M1110.82,-386.34C1140.15,-376.82 1186.23,-361.86 1216.53,-352.02"/>
<polygon fill="#63b8ff" stroke="#63b8ff" points="1217.43,-355.41 1225.86,-348.99 1215.27,-348.75 1217.43,-355.41"/>
</a>
</g>
</g>
<!-- Node31 -->
<g id="Node000031" class="node">
<title>Node31</title>
<g id="a_Node000031"><a xlink:title=" ">
<polygon fill="#e0e0e0" stroke="#999999" points="1343,-350.75 1285,-350.75 1285,-331.5 1343,-331.5 1343,-350.75"/>
<text text-anchor="middle" x="1314" y="-337.25" font-family="Helvetica,sans-Serif" font-size="10.00">stdexcept</text>
</a>
</g>
</g>
<!-- Node1&#45;&gt;Node31 -->
<g id="edge64_Node000001_Node000031" class="edge">
<title>Node1&#45;&gt;Node31</title>
<g id="a_edge64_Node000001_Node000031"><a xlink:title=" ">
<path fill="none" stroke="#63b8ff" d="M1122.45,-386.28C1164.59,-376.57 1231.04,-361.25 1273.56,-351.45"/>
<polygon fill="#63b8ff" stroke="#63b8ff" points="1274.18,-354.9 1283.14,-349.24 1272.61,-348.08 1274.18,-354.9"/>
</a>
</g>
</g>
<!-- Node3 -->
<g id="Node000003" class="node">
<title>Node3</title>
<g id="a_Node000003"><a xlink:href="../../dc/d44/_call_8hpp.html" target="_top" xlink:title=" ">
<polygon fill="white" stroke="#666666" points="965.88,-185 874.12,-185 874.12,-165.75 965.88,-165.75 965.88,-185"/>
<text text-anchor="middle" x="920" y="-171.5" font-family="Helvetica,sans-Serif" font-size="10.00">mimic++/Call.hpp</text>
</a>
</g>
</g>
<!-- Node2&#45;&gt;Node3 -->
<g id="edge2_Node000002_Node000003" class="edge">
<title>Node2&#45;&gt;Node3</title>
<g id="a_edge2_Node000002_Node000003"><a xlink:title=" ">
<path fill="none" stroke="#63b8ff" d="M765.55,-220.59C796.28,-211.79 843.21,-198.36 877.28,-188.61"/>
<polygon fill="#63b8ff" stroke="#63b8ff" points="878.19,-191.99 886.84,-185.87 876.26,-185.26 878.19,-191.99"/>
</a>
</g>
</g>
<!-- Node4 -->
<g id="Node000004" class="node">
<title>Node4</title>
<g id="a_Node000004"><a xlink:href="../../df/dde/_fwd_8hpp.html" target="_top" xlink:title=" ">
<polygon fill="white" stroke="#666666" points="411,-74.5 317,-74.5 317,-55.25 411,-55.25 411,-74.5"/>
<text text-anchor="middle" x="364" y="-61" font-family="Helvetica,sans-Serif" font-size="10.00">mimic++/Fwd.hpp</text>
</a>
</g>
</g>
<!-- Node2&#45;&gt;Node4 -->
<g id="edge17_Node000002_Node000004" class="edge">
<title>Node2&#45;&gt;Node4</title>
<g id="a_edge17_Node000002_Node000004"><a xlink:title=" ">
<path fill="none" stroke="#63b8ff" d="M775.16,-220.62C794.4,-214.13 815.55,-203.19 827,-185 831.56,-177.76 830.27,-173.66 827,-165.75 813.78,-133.72 803.22,-125.52 772,-110.5 741.25,-95.71 528.05,-78.07 422.68,-70.12"/>
<polygon fill="#63b8ff" stroke="#63b8ff" points="423.04,-66.64 412.81,-69.38 422.52,-73.62 423.04,-66.64"/>
</a>
</g>
</g>
<!-- Node13 -->
<g id="Node000013" class="node">
<title>Node13</title>
<g id="a_Node000013"><a xlink:href="../../da/dab/_printer_8hpp.html" target="_top" xlink:title=" ">
<polygon fill="white" stroke="#666666" points="389.88,-185 286.12,-185 286.12,-165.75 389.88,-165.75 389.88,-185"/>
<text text-anchor="middle" x="338" y="-171.5" font-family="Helvetica,sans-Serif" font-size="10.00">mimic++/Printer.hpp</text>
</a>
</g>
</g>
<!-- Node2&#45;&gt;Node13 -->
<g id="edge18_Node000002_Node000013" class="edge">
<title>Node2&#45;&gt;Node13</title>
<g id="a_edge18_Node000002_Node000013"><a xlink:title=" ">
<path fill="none" stroke="#63b8ff" d="M679.35,-222.28C606.55,-212.49 478.02,-195.2 401.15,-184.87"/>
<polygon fill="#63b8ff" stroke="#63b8ff" points="402.07,-181.46 391.7,-183.6 401.14,-188.4 402.07,-181.46"/>
</a>
</g>
</g>
<!-- Node14 -->
<g id="Node000014" class="node">
<title>Node14</title>
<g id="a_Node000014"><a xlink:title=" ">
<polygon fill="#e0e0e0" stroke="#999999" points="763,-129.75 705,-129.75 705,-110.5 763,-110.5 763,-129.75"/>
<text text-anchor="middle" x="734" y="-116.25" font-family="Helvetica,sans-Serif" font-size="10.00">functional</text>
</a>
</g>
</g>
<!-- Node2&#45;&gt;Node14 -->
<g id="edge29_Node000002_Node000014" class="edge">
<title>Node2&#45;&gt;Node14</title>
<g id="a_edge29_Node000002_Node000014"><a xlink:title=" ">
<path fill="none" stroke="#63b8ff" d="M734,-220.75C734,-203.5 734,-165.08 734,-141.31"/>
<polygon fill="#63b8ff" stroke="#63b8ff" points="737.5,-141.64 734,-131.64 730.5,-141.64 737.5,-141.64"/>
</a>
</g>
</g>
<!-- Node15 -->
<g id="Node000015" class="node">
<title>Node15</title>
<g id="a_Node000015"><a xlink:title=" ">
<polygon fill="#e0e0e0" stroke="#999999" points="687,-129.75 641,-129.75 641,-110.5 687,-110.5 687,-129.75"/>
<text text-anchor="middle" x="664" y="-116.25" font-family="Helvetica,sans-Serif" font-size="10.00">iterator</text>
</a>
</g>
</g>
<!-- Node2&#45;&gt;Node15 -->
<g id="edge30_Node000002_Node000015" class="edge">
<title>Node2&#45;&gt;Node15</title>
<g id="a_edge30_Node000002_Node000015"><a xlink:title=" ">
<path fill="none" stroke="#63b8ff" d="M700.13,-220.64C682.17,-213.96 661.66,-202.83 651,-185 642.84,-171.34 647.56,-153.41 653.48,-140.03"/>
<polygon fill="#63b8ff" stroke="#63b8ff" points="656.46,-141.91 657.8,-131.4 650.2,-138.78 656.46,-141.91"/>
</a>
</g>
</g>
<!-- Node18 -->
<g id="Node000018" class="node">
<title>Node18</title>
<g id="a_Node000018"><a xlink:title=" ">
<polygon fill="#e0e0e0" stroke="#999999" points="501.88,-185 446.12,-185 446.12,-165.75 501.88,-165.75 501.88,-185"/>
<text text-anchor="middle" x="474" y="-171.5" font-family="Helvetica,sans-Serif" font-size="10.00">algorithm</text>
</a>
</g>
</g>
<!-- Node2&#45;&gt;Node18 -->
<g id="edge28_Node000002_Node000018" class="edge">
<title>Node2&#45;&gt;Node18</title>
<g id="a_edge28_Node000002_Node000018"><a xlink:title=" ">
<path fill="none" stroke="#63b8ff" d="M689.6,-220.53C640.02,-210.38 560.55,-194.1 513.19,-184.4"/>
<polygon fill="#63b8ff" stroke="#63b8ff" points="514.15,-181.03 503.65,-182.45 512.75,-187.88 514.15,-181.03"/>
</a>
</g>
</g>
<!-- Node2&#45;&gt;Node19 -->
<g id="edge31_Node000002_Node000019" class="edge">
<title>Node2&#45;&gt;Node19</title>
<g id="a_edge31_Node000002_Node000019"><a xlink:title=" ">
<path fill="none" stroke="#63b8ff" d="M788.76,-220.54C835.26,-212.58 903.99,-200.27 972.76,-185.38"/>
<polygon fill="#63b8ff" stroke="#63b8ff" points="973.29,-188.84 982.31,-183.29 971.8,-182 973.29,-188.84"/>
</a>
</g>
</g>
<!-- Node20 -->
<g id="Node000020" class="node">
<title>Node20</title>
<g id="a_Node000020"><a xlink:title=" ">
<polygon fill="#e0e0e0" stroke="#999999" points="603.62,-185 558.38,-185 558.38,-165.75 603.62,-165.75 603.62,-185"/>
<text text-anchor="middle" x="581" y="-171.5" font-family="Helvetica,sans-Serif" font-size="10.00">ranges</text>
</a>
</g>
</g>
<!-- Node2&#45;&gt;Node20 -->
<g id="edge32_Node000002_Node000020" class="edge">
<title>Node2&#45;&gt;Node20</title>
<g id="a_edge32_Node000002_Node000020"><a xlink:title=" ">
<path fill="none" stroke="#63b8ff" d="M708.05,-220.59C682.3,-211.63 642.74,-197.86 614.61,-188.07"/>
<polygon fill="#63b8ff" stroke="#63b8ff" points="616.1,-184.88 605.5,-184.9 613.8,-191.5 616.1,-184.88"/>
</a>
</g>
</g>
<!-- Node21 -->
<g id="Node000021" class="node">
<title>Node21</title>
<g id="a_Node000021"><a xlink:title=" ">
<polygon fill="#e0e0e0" stroke="#999999" points="818.25,-185 761.75,-185 761.75,-165.75 818.25,-165.75 818.25,-185"/>
<text text-anchor="middle" x="790" y="-171.5" font-family="Helvetica,sans-Serif" font-size="10.00">typeindex</text>
</a>
</g>
</g>
<!-- Node2&#45;&gt;Node21 -->
<g id="edge33_Node000002_Node000021" class="edge">
<title>Node2&#45;&gt;Node21</title>
<g id="a_edge33_Node000002_Node000021"><a xlink:title=" ">
<path fill="none" stroke="#63b8ff" d="M743.5,-220.59C751.43,-213.05 762.95,-202.1 772.54,-192.98"/>
<polygon fill="#63b8ff" stroke="#63b8ff" points="774.71,-195.74 779.54,-186.32 769.89,-190.67 774.71,-195.74"/>
</a>
</g>
</g>
<!-- Node22 -->
<g id="Node000022" class="node">
<title>Node22</title>
<g id="a_Node000022"><a xlink:title=" ">
<polygon fill="#e0e0e0" stroke="#999999" points="705.62,-185 660.38,-185 660.38,-165.75 705.62,-165.75 705.62,-185"/>
<text text-anchor="middle" x="683" y="-171.5" font-family="Helvetica,sans-Serif" font-size="10.00">variant</text>
</a>
</g>
</g>
<!-- Node2&#45;&gt;Node22 -->
<g id="edge34_Node000002_Node000022" class="edge">
<title>Node2&#45;&gt;Node22</title>
<g id="a_edge34_Node000002_Node000022"><a xlink:title=" ">
<path fill="none" stroke="#63b8ff" d="M725.58,-220.83C718.46,-213.4 708.06,-202.54 699.31,-193.41"/>
<polygon fill="#63b8ff" stroke="#63b8ff" points="702.1,-191.25 692.65,-186.45 697.04,-196.1 702.1,-191.25"/>
</a>
</g>
</g>
<!-- Node2&#45;&gt;Node23 -->
<g id="edge35_Node000002_Node000023" class="edge">
<title>Node2&#45;&gt;Node23</title>
<g id="a_edge35_Node000002_Node000023"><a xlink:title=" ">
<path fill="none" stroke="#63b8ff" d="M788.82,-224C848.54,-217.36 947.04,-204.93 1040.11,-185.39"/>
<polygon fill="#63b8ff" stroke="#63b8ff" points="1040.6,-188.86 1049.65,-183.35 1039.14,-182.02 1040.6,-188.86"/>
</a>
</g>
</g>
<!-- Node3&#45;&gt;Node4 -->
<g id="edge3_Node000003_Node000004" class="edge">
<title>Node3&#45;&gt;Node4</title>
<g id="a_edge3_Node000003_Node000004"><a xlink:title=" ">
<path fill="none" stroke="#63b8ff" d="M904.58,-165.27C875.93,-148.43 816.44,-113.79 806,-110.5 736.06,-88.43 526.12,-74.52 422.78,-68.83"/>
<polygon fill="#63b8ff" stroke="#63b8ff" points="423,-65.34 412.83,-68.29 422.62,-72.33 423,-65.34"/>
</a>
</g>
</g>
<!-- Node6 -->
<g id="Node000006" class="node">
<title>Node6</title>
<g id="a_Node000006"><a xlink:href="../../d8/d32/_type_traits_8hpp.html" target="_top" xlink:title=" ">
<polygon fill="white" stroke="#666666" points="1055.5,-129.75 934.5,-129.75 934.5,-110.5 1055.5,-110.5 1055.5,-129.75"/>
<text text-anchor="middle" x="995" y="-116.25" font-family="Helvetica,sans-Serif" font-size="10.00">mimic++/TypeTraits.hpp</text>
</a>
</g>
</g>
<!-- Node3&#45;&gt;Node6 -->
<g id="edge5_Node000003_Node000006" class="edge">
<title>Node3&#45;&gt;Node6</title>
<g id="a_edge5_Node000003_Node000006"><a xlink:title=" ">
<path fill="none" stroke="#63b8ff" d="M932.72,-165.34C943.71,-157.54 959.84,-146.09 972.93,-136.79"/>
<polygon fill="#63b8ff" stroke="#63b8ff" points="974.85,-139.72 980.98,-131.08 970.8,-134.01 974.85,-139.72"/>
</a>
</g>
</g>
<!-- Node3&#45;&gt;Node7 -->
<g id="edge15_Node000003_Node000007" class="edge">
<title>Node3&#45;&gt;Node7</title>
<g id="a_edge15_Node000003_Node000007"><a xlink:title=" ">
<path fill="none" stroke="#63b8ff" d="M966.17,-166.83C996.1,-160.39 1034.96,-149.02 1065,-129.75 1083.52,-117.87 1099.69,-98.36 1110.02,-84.03"/>
<polygon fill="#63b8ff" stroke="#63b8ff" points="1112.81,-86.15 1115.61,-75.93 1107.05,-82.17 1112.81,-86.15"/>
</a>
</g>
</g>
<!-- Node3&#45;&gt;Node8 -->
<g id="edge8_Node000003_Node000008" class="edge">
<title>Node3&#45;&gt;Node8</title>
<g id="a_edge8_Node000003_Node000008"><a xlink:title=" ">
<path fill="none" stroke="#63b8ff" d="M873.65,-169.94C858.76,-168.55 842.19,-167.05 827,-165.75 621.79,-148.24 570.24,-146.87 365,-129.75 353.51,-128.79 341.26,-127.73 329.46,-126.69"/>
<polygon fill="#63b8ff" stroke="#63b8ff" points="330.11,-123.24 319.84,-125.84 329.5,-130.21 330.11,-123.24"/>
</a>
</g>
</g>
<!-- Node11 -->
<g id="Node000011" class="node">
<title>Node11</title>
<g id="a_Node000011"><a xlink:title=" ">
<polygon fill="#e0e0e0" stroke="#999999" points="617.12,-74.5 532.88,-74.5 532.88,-55.25 617.12,-55.25 617.12,-74.5"/>
<text text-anchor="middle" x="575" y="-61" font-family="Helvetica,sans-Serif" font-size="10.00">source_location</text>
</a>
</g>
</g>
<!-- Node3&#45;&gt;Node11 -->
<g id="edge14_Node000003_Node000011" class="edge">
<title>Node3&#45;&gt;Node11</title>
<g id="a_edge14_Node000003_Node000011"><a xlink:title=" ">
<path fill="none" stroke="#63b8ff" d="M912.59,-165.67C900.04,-151.55 873.12,-123.91 844,-110.5 774.35,-78.42 685.15,-69.07 629.02,-66.53"/>
<polygon fill="#63b8ff" stroke="#63b8ff" points="629.2,-63.03 619.07,-66.14 628.93,-70.03 629.2,-63.03"/>
</a>
</g>
</g>
<!-- Node3&#45;&gt;Node12 -->
<g id="edge16_Node000003_Node000012" class="edge">
<title>Node3&#45;&gt;Node12</title>
<g id="a_edge16_Node000003_Node000012"><a xlink:title=" ">
<path fill="none" stroke="#63b8ff" d="M916.72,-165.35C911.38,-151.77 899.6,-126.04 882,-110.5 861.49,-92.39 832.47,-80.66 810.63,-73.8"/>
<polygon fill="#63b8ff" stroke="#63b8ff" points="811.67,-70.46 801.09,-70.99 809.69,-77.17 811.67,-70.46"/>
</a>
</g>
</g>
<!-- Node5 -->
<g id="Node000005" class="node">
<title>Node5</title>
<g id="a_Node000005"><a xlink:title=" ">
<polygon fill="#e0e0e0" stroke="#999999" points="269,-19.25 229,-19.25 229,0 269,0 269,-19.25"/>
<text text-anchor="middle" x="249" y="-5.75" font-family="Helvetica,sans-Serif" font-size="10.00">string</text>
</a>
</g>
</g>
<!-- Node4&#45;&gt;Node5 -->
<g id="edge4_Node000004_Node000005" class="edge">
<title>Node4&#45;&gt;Node5</title>
<g id="a_edge4_Node000004_Node000005"><a xlink:title=" ">
<path fill="none" stroke="#63b8ff" d="M344.49,-54.84C326.48,-46.5 299.48,-34 278.77,-24.41"/>
<polygon fill="#63b8ff" stroke="#63b8ff" points="280.52,-21.36 269.98,-20.34 277.58,-27.72 280.52,-21.36"/>
</a>
</g>
</g>
<!-- Node6&#45;&gt;Node4 -->
<g id="edge6_Node000006_Node000004" class="edge">
<title>Node6&#45;&gt;Node4</title>
<g id="a_edge6_Node000006_Node000004"><a xlink:title=" ">
<path fill="none" stroke="#63b8ff" d="M934.21,-113.99C813,-103.77 542.61,-80.95 422.94,-70.85"/>
<polygon fill="#63b8ff" stroke="#63b8ff" points="423.26,-67.36 413,-70.01 422.67,-74.34 423.26,-67.36"/>
</a>
</g>
</g>
<!-- Node6&#45;&gt;Node7 -->
<g id="edge7_Node000006_Node000007" class="edge">
<title>Node6&#45;&gt;Node7</title>
<g id="a_edge7_Node000006_Node000007"><a xlink:title=" ">
<path fill="none" stroke="#63b8ff" d="M1016.54,-110.09C1037.56,-101.28 1069.67,-87.81 1092.94,-78.06"/>
<polygon fill="#63b8ff" stroke="#63b8ff" points="1093.99,-81.42 1101.86,-74.32 1091.28,-74.96 1093.99,-81.42"/>
</a>
</g>
</g>
<!-- Node8&#45;&gt;Node4 -->
<g id="edge9_Node000008_Node000004" class="edge">
<title>Node8&#45;&gt;Node4</title>
<g id="a_edge9_Node000008_Node000004"><a xlink:title=" ">
<path fill="none" stroke="#63b8ff" d="M284.29,-110.09C298.9,-101.98 320.63,-89.93 337.71,-80.46"/>
<polygon fill="#63b8ff" stroke="#63b8ff" points="339.26,-83.6 346.31,-75.69 335.87,-77.48 339.26,-83.6"/>
</a>
</g>
</g>
<!-- Node8&#45;&gt;Node9 -->
<g id="edge10_Node000008_Node000009" class="edge">
<title>Node8&#45;&gt;Node9</title>
<g id="a_edge10_Node000008_Node000009"><a xlink:title=" ">
<path fill="none" stroke="#63b8ff" d="M234.24,-110.09C198.06,-100.41 140.9,-85.11 104.18,-75.29"/>
<polygon fill="#63b8ff" stroke="#63b8ff" points="105.52,-72.02 94.95,-72.82 103.71,-78.79 105.52,-72.02"/>
</a>
</g>
</g>
<!-- Node10 -->
<g id="Node000010" class="node">
<title>Node10</title>
<g id="a_Node000010"><a xlink:title=" ">
<polygon fill="#e0e0e0" stroke="#999999" points="270.88,-74.5 227.12,-74.5 227.12,-55.25 270.88,-55.25 270.88,-74.5"/>
<text text-anchor="middle" x="249" y="-61" font-family="Helvetica,sans-Serif" font-size="10.00">format</text>
</a>
</g>
</g>
<!-- Node8&#45;&gt;Node10 -->
<g id="edge11_Node000008_Node000010" class="edge">
<title>Node8&#45;&gt;Node10</title>
<g id="a_edge11_Node000008_Node000010"><a xlink:title=" ">
<path fill="none" stroke="#63b8ff" d="M264.86,-110.33C262.46,-103.59 259.04,-94.02 256,-85.49"/>
<polygon fill="#63b8ff" stroke="#63b8ff" points="259.37,-84.53 252.71,-76.28 252.78,-86.88 259.37,-84.53"/>
</a>
</g>
</g>
<!-- Node8&#45;&gt;Node11 -->
<g id="edge12_Node000008_Node000011" class="edge">
<title>Node8&#45;&gt;Node11</title>
<g id="a_edge12_Node000008_Node000011"><a xlink:title=" ">
<path fill="none" stroke="#63b8ff" d="M318.35,-110.39C374.21,-100.7 463.99,-85.13 521.2,-75.21"/>
<polygon fill="#63b8ff" stroke="#63b8ff" points="521.79,-78.66 531.05,-73.5 520.6,-71.76 521.79,-78.66"/>
</a>
</g>
</g>
<!-- Node8&#45;&gt;Node12 -->
<g id="edge13_Node000008_Node000012" class="edge">
<title>Node8&#45;&gt;Node12</title>
<g id="a_edge13_Node000008_Node000012"><a xlink:title=" ">
<path fill="none" stroke="#63b8ff" d="M318.49,-113.87C423.68,-102.93 663.6,-77.98 749.06,-69.09"/>
<polygon fill="#63b8ff" stroke="#63b8ff" points="749.2,-72.6 758.78,-68.08 748.48,-65.63 749.2,-72.6"/>
</a>
</g>
</g>
<!-- Node13&#45;&gt;Node4 -->
<g id="edge19_Node000013_Node000004" class="edge">
<title>Node13&#45;&gt;Node4</title>
<g id="a_edge19_Node000013_Node000004"><a xlink:title=" ">
<path fill="none" stroke="#63b8ff" d="M387.88,-165.26C438.28,-155.54 509.87,-140.15 518,-129.75 546.89,-92.82 477.57,-77.05 422.75,-70.45"/>
<polygon fill="#63b8ff" stroke="#63b8ff" points="423.14,-66.97 412.82,-69.34 422.37,-73.93 423.14,-66.97"/>
</a>
</g>
</g>
<!-- Node13&#45;&gt;Node5 -->
<g id="edge25_Node000013_Node000005" class="edge">
<title>Node13&#45;&gt;Node5</title>
<g id="a_edge25_Node000013_Node000005"><a xlink:title=" ">
<path fill="none" stroke="#63b8ff" d="M285.68,-171.81C255.67,-167.33 220.25,-156.27 201,-129.75 177.65,-97.59 210.08,-52.47 231.94,-28.02"/>
<polygon fill="#63b8ff" stroke="#63b8ff" points="234.37,-30.55 238.63,-20.84 229.25,-25.77 234.37,-30.55"/>
</a>
</g>
</g>
<!-- Node13&#45;&gt;Node10 -->
<g id="edge20_Node000013_Node000010" class="edge">
<title>Node13&#45;&gt;Node10</title>
<g id="a_edge20_Node000013_Node000010"><a xlink:title=" ">
<path fill="none" stroke="#63b8ff" d="M285.72,-170.42C258.09,-165.35 226.39,-154.17 209,-129.75 197.77,-113.98 212.88,-95.1 227.64,-81.98"/>
<polygon fill="#63b8ff" stroke="#63b8ff" points="229.45,-85.02 234.92,-75.95 224.99,-79.63 229.45,-85.02"/>
</a>
</g>
</g>
<!-- Node13&#45;&gt;Node11 -->
<g id="edge23_Node000013_Node000011" class="edge">
<title>Node13&#45;&gt;Node11</title>
<g id="a_edge23_Node000013_Node000011"><a xlink:title=" ">
<path fill="none" stroke="#63b8ff" d="M390.21,-167.18C440.44,-159.44 512.05,-146.03 535,-129.75 550.49,-118.76 561.28,-99.69 567.71,-85.24"/>
<polygon fill="#63b8ff" stroke="#63b8ff" points="570.83,-86.87 571.37,-76.29 564.35,-84.22 570.83,-86.87"/>
</a>
</g>
</g>
<!-- Node13&#45;&gt;Node12 -->
<g id="edge27_Node000013_Node000012" class="edge">
<title>Node13&#45;&gt;Node12</title>
<g id="a_edge27_Node000013_Node000012"><a xlink:title=" ">
<path fill="none" stroke="#63b8ff" d="M388.5,-165.32C433.25,-157.02 500.27,-143.89 558,-129.75 627.08,-112.84 706.98,-88.71 749.56,-75.47"/>
<polygon fill="#63b8ff" stroke="#63b8ff" points="750.59,-78.82 759.1,-72.49 748.51,-72.13 750.59,-78.82"/>
</a>
</g>
</g>
<!-- Node13&#45;&gt;Node14 -->
<g id="edge21_Node000013_Node000014" class="edge">
<title>Node13&#45;&gt;Node14</title>
<g id="a_edge21_Node000013_Node000014"><a xlink:title=" ">
<path fill="none" stroke="#63b8ff" d="M390.23,-167.51C394.89,-166.91 399.53,-166.32 404,-165.75 530.17,-149.73 565.29,-152.1 693.56,-130.03"/>
<polygon fill="#63b8ff" stroke="#63b8ff" points="693.86,-133.53 703.11,-128.36 692.66,-126.63 693.86,-133.53"/>
</a>
</g>
</g>
<!-- Node13&#45;&gt;Node15 -->
<g id="edge22_Node000013_Node000015" class="edge">
<title>Node13&#45;&gt;Node15</title>
<g id="a_edge22_Node000013_Node000015"><a xlink:title=" ">
<path fill="none" stroke="#63b8ff" d="M390.15,-167.54C448.18,-159.64 544.63,-145.69 627,-129.75 627.83,-129.59 628.66,-129.43 629.5,-129.26"/>
<polygon fill="#63b8ff" stroke="#63b8ff" points="630.05,-132.72 639.09,-127.19 628.58,-125.87 630.05,-132.72"/>
</a>
</g>
</g>
<!-- Node16 -->
<g id="Node000016" class="node">
<title>Node16</title>
<g id="a_Node000016"><a xlink:title=" ">
<polygon fill="#e0e0e0" stroke="#999999" points="425.62,-129.75 374.38,-129.75 374.38,-110.5 425.62,-110.5 425.62,-129.75"/>
<text text-anchor="middle" x="400" y="-116.25" font-family="Helvetica,sans-Serif" font-size="10.00">sstream</text>
</a>
</g>
</g>
<!-- Node13&#45;&gt;Node16 -->
<g id="edge24_Node000013_Node000016" class="edge">
<title>Node13&#45;&gt;Node16</title>
<g id="a_edge24_Node000013_Node000016"><a xlink:title=" ">
<path fill="none" stroke="#63b8ff" d="M348.52,-165.34C357.39,-157.72 370.31,-146.62 380.99,-137.45"/>
<polygon fill="#63b8ff" stroke="#63b8ff" points="383.18,-140.18 388.49,-131.01 378.62,-134.87 383.18,-140.18"/>
</a>
</g>
</g>
<!-- Node17 -->
<g id="Node000017" class="node">
<title>Node17</title>
<g id="a_Node000017"><a xlink:title=" ">
<polygon fill="#e0e0e0" stroke="#999999" points="508.75,-129.75 443.25,-129.75 443.25,-110.5 508.75,-110.5 508.75,-129.75"/>
<text text-anchor="middle" x="476" y="-116.25" font-family="Helvetica,sans-Serif" font-size="10.00">string_view</text>
</a>
</g>
</g>
<!-- Node13&#45;&gt;Node17 -->
<g id="edge26_Node000013_Node000017" class="edge">
<title>Node13&#45;&gt;Node17</title>
<g id="a_edge26_Node000013_Node000017"><a xlink:title=" ">
<path fill="none" stroke="#63b8ff" d="M361.41,-165.34C383.52,-156.81 416.92,-143.92 441.97,-134.26"/>
<polygon fill="#63b8ff" stroke="#63b8ff" points="442.99,-137.61 451.06,-130.75 440.47,-131.08 442.99,-137.61"/>
</a>
</g>
</g>
<!-- Node24&#45;&gt;Node4 -->
<g id="edge37_Node000024_Node000004" class="edge">
<title>Node24&#45;&gt;Node4</title>
<g id="a_edge37_Node000024_Node000004"><a xlink:title=" ">
<path fill="none" stroke="#63b8ff" d="M195.44,-331.1C147.44,-318.13 76,-289.17 76,-231.62 76,-231.62 76,-231.62 76,-174.38 76,-125.78 221.39,-91.47 305.57,-75.67"/>
<polygon fill="#63b8ff" stroke="#63b8ff" points="306.07,-79.14 315.28,-73.89 304.81,-72.25 306.07,-79.14"/>
</a>
</g>
</g>
<!-- Node24&#45;&gt;Node7 -->
<g id="edge58_Node000024_Node000007" class="edge">
<title>Node24&#45;&gt;Node7</title>
<g id="a_edge58_Node000024_Node000007"><a xlink:title=" ">
<path fill="none" stroke="#63b8ff" d="M297.74,-336.41C457.63,-325.84 892.19,-292.97 1025,-240.25 1064.82,-224.44 1081.41,-221.41 1104,-185 1122.97,-154.43 1124.57,-111.15 1123.58,-86.05"/>
<polygon fill="#63b8ff" stroke="#63b8ff" points="1127.09,-86.03 1123,-76.26 1120.1,-86.45 1127.09,-86.03"/>
</a>
</g>
</g>
<!-- Node24&#45;&gt;Node8 -->
<g id="edge52_Node000024_Node000008" class="edge">
<title>Node24&#45;&gt;Node8</title>
<g id="a_edge52_Node000024_Node000008"><a xlink:title=" ">
<path fill="none" stroke="#63b8ff" d="M247.48,-331.33C260.13,-318.49 279.58,-294.21 267,-276.25 240.14,-237.9 194.86,-278.6 168,-240.25 149,-213.13 149.98,-193.53 168,-165.75 177.72,-150.77 193.77,-140.78 210.19,-134.12"/>
<polygon fill="#63b8ff" stroke="#63b8ff" points="211.35,-137.43 219.56,-130.73 208.96,-130.85 211.35,-137.43"/>
</a>
</g>
</g>
<!-- Node24&#45;&gt;Node9 -->
<g id="edge55_Node000024_Node000009" class="edge">
<title>Node24&#45;&gt;Node9</title>
<g id="a_edge55_Node000024_Node000009"><a xlink:title=" ">
<path fill="none" stroke="#63b8ff" d="M178.26,-333.11C119.33,-322.48 38,-296.11 38,-231.62 38,-231.62 38,-231.62 38,-174.38 38,-142.14 50.8,-106.52 59.96,-85.19"/>
<polygon fill="#63b8ff" stroke="#63b8ff" points="63.04,-86.85 63.94,-76.29 56.66,-83.99 63.04,-86.85"/>
</a>
</g>
</g>
<!-- Node24&#45;&gt;Node13 -->
<g id="edge38_Node000024_Node000013" class="edge">
<title>Node24&#45;&gt;Node13</title>
<g id="a_edge38_Node000024_Node000013"><a xlink:title=" ">
<path fill="none" stroke="#63b8ff" d="M208.09,-331.01C179.28,-320.53 142.11,-301.47 157,-276.25 185.03,-228.77 244.6,-202.31 287.76,-188.74"/>
<polygon fill="#63b8ff" stroke="#63b8ff" points="288.61,-192.14 297.18,-185.92 286.6,-185.43 288.61,-192.14"/>
</a>
</g>
</g>
<!-- Node24&#45;&gt;Node14 -->
<g id="edge56_Node000024_Node000014" class="edge">
<title>Node24&#45;&gt;Node14</title>
<g id="a_edge56_Node000024_Node000014"><a xlink:title=" ">
<path fill="none" stroke="#63b8ff" d="M247.58,-331.14C284.16,-296.93 414.08,-176.23 437,-165.75 539.39,-118.94 579.17,-148.64 693.31,-130.02"/>
<polygon fill="#63b8ff" stroke="#63b8ff" points="693.85,-133.48 703.1,-128.32 692.65,-126.58 693.85,-133.48"/>
</a>
</g>
</g>
<!-- Node24&#45;&gt;Node18 -->
<g id="edge53_Node000024_Node000018" class="edge">
<title>Node24&#45;&gt;Node18</title>
<g id="a_edge53_Node000024_Node000018"><a xlink:title=" ">
<path fill="none" stroke="#63b8ff" d="M297.51,-331.7C326.79,-325.36 361.41,-314.37 388,-295.5 424.96,-269.26 452.05,-222.05 465.16,-195.63"/>
<polygon fill="#63b8ff" stroke="#63b8ff" points="468.24,-197.29 469.4,-186.76 461.93,-194.27 468.24,-197.29"/>
</a>
</g>
</g>
<!-- Node25 -->
<g id="Node000025" class="node">
<title>Node25</title>
<g id="a_Node000025"><a xlink:href="../../da/dd9/_reporter_8hpp.html" target="_top" xlink:title=" ">
<polygon fill="white" stroke="#666666" points="639,-295.5 527,-295.5 527,-276.25 639,-276.25 639,-295.5"/>
<text text-anchor="middle" x="583" y="-282" font-family="Helvetica,sans-Serif" font-size="10.00">mimic++/Reporter.hpp</text>
</a>
</g>
</g>
<!-- Node24&#45;&gt;Node25 -->
<g id="edge39_Node000024_Node000025" class="edge">
<title>Node24&#45;&gt;Node25</title>
<g id="a_edge39_Node000024_Node000025"><a xlink:title=" ">
<path fill="none" stroke="#63b8ff" d="M296.92,-331.03C357.55,-321.67 451.9,-307.11 515.51,-297.29"/>
<polygon fill="#63b8ff" stroke="#63b8ff" points="515.77,-300.79 525.12,-295.81 514.7,-293.87 515.77,-300.79"/>
</a>
</g>
</g>
<!-- Node28 -->
<g id="Node000028" class="node">
<title>Node28</title>
<g id="a_Node000028"><a xlink:title=" ">
<polygon fill="#e0e0e0" stroke="#999999" points="202.5,-295.5 165.5,-295.5 165.5,-276.25 202.5,-276.25 202.5,-295.5"/>
<text text-anchor="middle" x="184" y="-282" font-family="Helvetica,sans-Serif" font-size="10.00">array</text>
</a>
</g>
</g>
<!-- Node24&#45;&gt;Node28 -->
<g id="edge54_Node000024_Node000028" class="edge">
<title>Node24&#45;&gt;Node28</title>
<g id="a_edge54_Node000024_Node000028"><a xlink:title=" ">
<path fill="none" stroke="#63b8ff" d="M229.08,-331.33C221.55,-323.9 210.53,-313.04 201.27,-303.91"/>
<polygon fill="#63b8ff" stroke="#63b8ff" points="203.77,-301.45 194.19,-296.92 198.85,-306.44 203.77,-301.45"/>
</a>
</g>
</g>
<!-- Node29 -->
<g id="Node000029" class="node">
<title>Node29</title>
<g id="a_Node000029"><a xlink:title=" ">
<polygon fill="#e0e0e0" stroke="#999999" points="257.5,-295.5 220.5,-295.5 220.5,-276.25 257.5,-276.25 257.5,-295.5"/>
<text text-anchor="middle" x="239" y="-282" font-family="Helvetica,sans-Serif" font-size="10.00">span</text>
</a>
</g>
</g>
<!-- Node24&#45;&gt;Node29 -->
<g id="edge57_Node000024_Node000029" class="edge">
<title>Node24&#45;&gt;Node29</title>
<g id="a_edge57_Node000024_Node000029"><a xlink:title=" ">
<path fill="none" stroke="#63b8ff" d="M238.17,-331.33C238.29,-324.82 238.46,-315.67 238.62,-307.37"/>
<polygon fill="#63b8ff" stroke="#63b8ff" points="242.11,-307.44 238.8,-297.37 235.12,-307.3 242.11,-307.44"/>
</a>
</g>
</g>
<!-- Node25&#45;&gt;Node2 -->
<g id="edge43_Node000025_Node000002" class="edge">
<title>Node25&#45;&gt;Node2</title>
<g id="a_edge43_Node000025_Node000002"><a xlink:title=" ">
<path fill="none" stroke="#63b8ff" d="M608.62,-275.84C633.02,-267.24 670.01,-254.19 697.5,-244.5"/>
<polygon fill="#63b8ff" stroke="#63b8ff" points="698.57,-247.83 706.83,-241.21 696.24,-241.23 698.57,-247.83"/>
</a>
</g>
</g>
<!-- Node25&#45;&gt;Node3 -->
<g id="edge40_Node000025_Node000003" class="edge">
<title>Node25&#45;&gt;Node3</title>
<g id="a_edge40_Node000025_Node000003"><a xlink:title=" ">
<path fill="none" stroke="#63b8ff" d="M639.4,-277.55C683.46,-270.79 745.77,-258.93 798,-240.25 833.89,-227.42 872.38,-205.8 896.33,-191.31"/>
<polygon fill="#63b8ff" stroke="#63b8ff" points="897.97,-194.41 904.66,-186.19 894.3,-188.45 897.97,-194.41"/>
</a>
</g>
</g>
<!-- Node25&#45;&gt;Node4 -->
<g id="edge41_Node000025_Node000004" class="edge">
<title>Node25&#45;&gt;Node4</title>
<g id="a_edge41_Node000025_Node000004"><a xlink:title=" ">
<path fill="none" stroke="#63b8ff" d="M526.72,-285C455.1,-281.75 333.88,-264.03 277,-185 252.18,-150.52 321.18,-136.18 327,-129.75 339.1,-116.39 349.07,-98.44 355.6,-84.96"/>
<polygon fill="#63b8ff" stroke="#63b8ff" points="358.6,-86.82 359.61,-76.27 352.24,-83.89 358.6,-86.82"/>
</a>
</g>
</g>
<!-- Node25&#45;&gt;Node9 -->
<g id="edge45_Node000025_Node000009" class="edge">
<title>Node25&#45;&gt;Node9</title>
<g id="a_edge45_Node000025_Node000009"><a xlink:title=" ">
<path fill="none" stroke="#63b8ff" d="M526.6,-283.29C469.69,-279.96 380.29,-269.96 309,-240.25 215.21,-201.16 123.45,-118.76 86.28,-83.02"/>
<polygon fill="#63b8ff" stroke="#63b8ff" points="88.73,-80.52 79.13,-76.05 83.85,-85.53 88.73,-80.52"/>
</a>
</g>
</g>
<!-- Node25&#45;&gt;Node13 -->
<g id="edge42_Node000025_Node000013" class="edge">
<title>Node25&#45;&gt;Node13</title>
<g id="a_edge42_Node000025_Node000013"><a xlink:title=" ">
<path fill="none" stroke="#63b8ff" d="M562.53,-275.81C519.57,-256.78 419.76,-212.58 368.94,-190.08"/>
<polygon fill="#63b8ff" stroke="#63b8ff" points="370.53,-186.95 359.97,-186.1 367.69,-193.35 370.53,-186.95"/>
</a>
</g>
</g>
<!-- Node25&#45;&gt;Node14 -->
<g id="edge47_Node000025_Node000014" class="edge">
<title>Node25&#45;&gt;Node14</title>
<g id="a_edge47_Node000025_Node000014"><a xlink:title=" ">
<path fill="none" stroke="#63b8ff" d="M595.05,-275.93C610.25,-263.53 633.01,-240.43 621,-221 602.19,-190.57 567.81,-215.43 549,-185 544.5,-177.72 543.71,-172.47 549,-165.75 550.14,-164.3 639.45,-143.22 693.55,-130.56"/>
<polygon fill="#63b8ff" stroke="#63b8ff" points="694.1,-134.02 703.04,-128.34 692.5,-127.21 694.1,-134.02"/>
</a>
</g>
</g>
<!-- Node25&#45;&gt;Node18 -->
<g id="edge44_Node000025_Node000018" class="edge">
<title>Node25&#45;&gt;Node18</title>
<g id="a_edge44_Node000025_Node000018"><a xlink:title=" ">
<path fill="none" stroke="#63b8ff" d="M574.08,-276C555.96,-257.96 514.56,-216.75 491.08,-193.38"/>
<polygon fill="#63b8ff" stroke="#63b8ff" points="493.67,-191.02 484.12,-186.44 488.73,-195.98 493.67,-191.02"/>
</a>
</g>
</g>
<!-- Node25&#45;&gt;Node19 -->
<g id="edge49_Node000025_Node000019" class="edge">
<title>Node25&#45;&gt;Node19</title>
<g id="a_edge49_Node000025_Node000019"><a xlink:title=" ">
<path fill="none" stroke="#63b8ff" d="M639.21,-277.66C690.28,-270.43 767.43,-257.86 833,-240.25 884.56,-226.4 942.39,-204.04 977.24,-189.78"/>
<polygon fill="#63b8ff" stroke="#63b8ff" points="978.4,-193.08 986.31,-186.03 975.73,-186.61 978.4,-193.08"/>
</a>
</g>
</g>
<!-- Node25&#45;&gt;Node20 -->
<g id="edge50_Node000025_Node000020" class="edge">
<title>Node25&#45;&gt;Node20</title>
<g id="a_edge50_Node000025_Node000020"><a xlink:title=" ">
<path fill="none" stroke="#63b8ff" d="M571.93,-275.95C562.74,-267.78 550.34,-254.77 545,-240.25 538.78,-223.36 550.41,-205.65 562.07,-193.17"/>
<polygon fill="#63b8ff" stroke="#63b8ff" points="564.18,-196.01 568.85,-186.5 559.27,-191.02 564.18,-196.01"/>
</a>
</g>
</g>
<!-- Node25&#45;&gt;Node23 -->
<g id="edge51_Node000025_Node000023" class="edge">
<title>Node25&#45;&gt;Node23</title>
<g id="a_edge51_Node000025_Node000023"><a xlink:title=" ">
<path fill="none" stroke="#63b8ff" d="M639.42,-279.04C698.8,-272.25 794.76,-259.47 876,-240.25 935.07,-226.27 1001.91,-202.95 1040.58,-188.69"/>
<polygon fill="#63b8ff" stroke="#63b8ff" points="1041.6,-192.04 1049.76,-185.27 1039.16,-185.48 1041.6,-192.04"/>
</a>
</g>
</g>
<!-- Node26 -->
<g id="Node000026" class="node">
<title>Node26</title>
<g id="a_Node000026"><a xlink:title=" ">
<polygon fill="#e0e0e0" stroke="#999999" points="611.62,-240.25 554.38,-240.25 554.38,-221 611.62,-221 611.62,-240.25"/>
<text text-anchor="middle" x="583" y="-226.75" font-family="Helvetica,sans-Serif" font-size="10.00">exception</text>
</a>
</g>
</g>
<!-- Node25&#45;&gt;Node26 -->
<g id="edge46_Node000025_Node000026" class="edge">
<title>Node25&#45;&gt;Node26</title>
<g id="a_edge46_Node000025_Node000026"><a xlink:title=" ">
<path fill="none" stroke="#63b8ff" d="M583,-276.08C583,-269.57 583,-260.42 583,-252.12"/>
<polygon fill="#63b8ff" stroke="#63b8ff" points="586.5,-252.12 583,-242.12 579.5,-252.12 586.5,-252.12"/>
</a>
</g>
</g>
<!-- Node25&#45;&gt;Node27 -->
<g id="edge48_Node000025_Node000027" class="edge">
<title>Node25&#45;&gt;Node27</title>
<g id="a_edge48_Node000025_Node000027"><a xlink:title=" ">
<path fill="none" stroke="#63b8ff" d="M639.32,-279.44C711.36,-272.17 839.87,-258.08 949,-240.25 950.65,-239.98 952.34,-239.69 954.04,-239.39"/>
<polygon fill="#63b8ff" stroke="#63b8ff" points="954.64,-242.84 963.81,-237.53 953.33,-235.96 954.64,-242.84"/>
</a>
</g>
</g>
</g>
</svg>
