<?xml version="1.0" encoding="UTF-8" standalone="no"?>
<!DOCTYPE svg PUBLIC "-//W3C//DTD SVG 1.1//EN"
 "http://www.w3.org/Graphics/SVG/1.1/DTD/svg11.dtd">
<!-- Generated by graphviz version 12.2.1 (20241206.2353)
 -->
<!-- Title: mimic++/printing/PathPrinter.hpp Pages: 1 -->
<svg width="1595pt" height="891pt"
 viewBox="0.00 0.00 1594.50 890.75" xmlns="http://www.w3.org/2000/svg" xmlns:xlink="http://www.w3.org/1999/xlink">
<g id="graph0" class="graph" transform="scale(1 1) rotate(0) translate(4 886.75)">
<title>mimic++/printing/PathPrinter.hpp</title>
<!-- Node1 -->
<g id="Node000001" class="node">
<title>Node1</title>
<g id="a_Node000001"><a xlink:title=" ">
<polygon fill="#999999" stroke="#666666" points="915.25,-882.75 756.75,-882.75 756.75,-863.5 915.25,-863.5 915.25,-882.75"/>
<text text-anchor="middle" x="836" y="-869.25" font-family="Helvetica,sans-Serif" font-size="10.00">mimic++/printing/PathPrinter.hpp</text>
</a>
</g>
</g>
<!-- Node2 -->
<g id="Node000002" class="node">
<title>Node2</title>
<g id="a_Node000002"><a xlink:href="../../db/d15/_printing_8hpp.html" target="_top" xlink:title=" ">
<polygon fill="white" stroke="#666666" points="762.12,-705.75 653.88,-705.75 653.88,-686.5 762.12,-686.5 762.12,-705.75"/>
<text text-anchor="middle" x="708" y="-692.25" font-family="Helvetica,sans-Serif" font-size="10.00">mimic++/Printing.hpp</text>
</a>
</g>
</g>
<!-- Node1&#45;&gt;Node2 -->
<g id="edge1_Node000001_Node000002" class="edge">
<title>Node1&#45;&gt;Node2</title>
<g id="a_edge1_Node000001_Node000002"><a xlink:title=" ">
<path fill="none" stroke="#63b8ff" d="M822.81,-854.09C795.76,-817.11 734.88,-733.87 714.66,-706.24"/>
<polygon fill="#63b8ff" stroke="#63b8ff" points="819.85,-855.98 828.58,-861.98 825.5,-851.85 819.85,-855.98"/>
</a>
</g>
</g>
<!-- Node4 -->
<g id="Node000004" class="node">
<title>Node4</title>
<g id="a_Node000004"><a xlink:href="../../de/df5/_stacktrace_8hpp.html" target="_top" xlink:title=" ">
<polygon fill="white" stroke="#666666" points="902.25,-705.75 779.75,-705.75 779.75,-686.5 902.25,-686.5 902.25,-705.75"/>
<text text-anchor="middle" x="841" y="-692.25" font-family="Helvetica,sans-Serif" font-size="10.00">mimic++/Stacktrace.hpp</text>
</a>
</g>
</g>
<!-- Node1&#45;&gt;Node4 -->
<g id="edge3_Node000001_Node000004" class="edge">
<title>Node1&#45;&gt;Node4</title>
<g id="a_edge3_Node000001_Node000004"><a xlink:title=" ">
<path fill="none" stroke="#63b8ff" d="M836.57,-852.15C837.65,-814.28 839.96,-733.4 840.74,-706.24"/>
<polygon fill="#63b8ff" stroke="#63b8ff" points="833.09,-851.6 836.3,-861.69 840.08,-851.8 833.09,-851.6"/>
</a>
</g>
</g>
<!-- Node24 -->
<g id="Node000024" class="node">
<title>Node24</title>
<g id="a_Node000024"><a xlink:href="../../df/d0b/state_2_common_types_8hpp.html" target="_top" xlink:title=" ">
<polygon fill="white" stroke="#666666" points="989.75,-827.5 876.25,-827.5 876.25,-797 989.75,-797 989.75,-827.5"/>
<text text-anchor="start" x="884.25" y="-814" font-family="Helvetica,sans-Serif" font-size="10.00">mimic++/printing/state</text>
<text text-anchor="middle" x="933" y="-802.75" font-family="Helvetica,sans-Serif" font-size="10.00">/CommonTypes.hpp</text>
</a>
</g>
</g>
<!-- Node1&#45;&gt;Node24 -->
<g id="edge57_Node000001_Node000024" class="edge">
<title>Node1&#45;&gt;Node24</title>
<g id="a_edge57_Node000001_Node000024"><a xlink:title=" ">
<path fill="none" stroke="#63b8ff" d="M860.3,-857.38C875.2,-848.33 894.21,-836.79 909.06,-827.78"/>
<polygon fill="#63b8ff" stroke="#63b8ff" points="858.76,-854.22 852.03,-862.4 862.39,-860.2 858.76,-854.22"/>
</a>
</g>
</g>
<!-- Node3 -->
<g id="Node000003" class="node">
<title>Node3</title>
<g id="a_Node000003"><a xlink:href="../../d0/db9/mimic_09_09_8hpp.html" target="_top" xlink:title=" ">
<polygon fill="white" stroke="#666666" points="852.75,-19.25 739.25,-19.25 739.25,0 852.75,0 852.75,-19.25"/>
<text text-anchor="middle" x="796" y="-5.75" font-family="Helvetica,sans-Serif" font-size="10.00">mimic++/mimic++.hpp</text>
</a>
</g>
</g>
<!-- Node2&#45;&gt;Node3 -->
<g id="edge2_Node000002_Node000003" class="edge">
<title>Node2&#45;&gt;Node3</title>
<g id="a_edge2_Node000002_Node000003"><a xlink:title=" ">
<path fill="none" stroke="#63b8ff" d="M642.23,-691.91C466.63,-682.45 0,-651.24 0,-586.62 0,-586.62 0,-586.62 0,-124.75 0,-50.06 556.24,-20.49 738.75,-12.8"/>
<polygon fill="#63b8ff" stroke="#63b8ff" points="641.94,-695.4 652.11,-692.43 642.31,-688.41 641.94,-695.4"/>
</a>
</g>
</g>
<!-- Node5 -->
<g id="Node000005" class="node">
<title>Node5</title>
<g id="a_Node000005"><a xlink:href="../../dc/d44/_call_8hpp.html" target="_top" xlink:title=" ">
<polygon fill="white" stroke="#666666" points="479.88,-650.5 388.12,-650.5 388.12,-631.25 479.88,-631.25 479.88,-650.5"/>
<text text-anchor="middle" x="434" y="-637" font-family="Helvetica,sans-Serif" font-size="10.00">mimic++/Call.hpp</text>
</a>
</g>
</g>
<!-- Node4&#45;&gt;Node5 -->
<g id="edge4_Node000004_Node000005" class="edge">
<title>Node4&#45;&gt;Node5</title>
<g id="a_edge4_Node000004_Node000005"><a xlink:title=" ">
<path fill="none" stroke="#63b8ff" d="M768.46,-685.63C685.08,-674.73 550.71,-657.14 480.35,-647.94"/>
<polygon fill="#63b8ff" stroke="#63b8ff" points="767.76,-689.07 778.13,-686.9 768.67,-682.13 767.76,-689.07"/>
</a>
</g>
</g>
<!-- Node8 -->
<g id="Node000008" class="node">
<title>Node8</title>
<g id="a_Node000008"><a xlink:href="../../d5/dc5/_mock_8hpp.html" target="_top" xlink:title=" ">
<polygon fill="white" stroke="#666666" points="720.62,-135.38 621.38,-135.38 621.38,-116.12 720.62,-116.12 720.62,-135.38"/>
<text text-anchor="middle" x="671" y="-121.88" font-family="Helvetica,sans-Serif" font-size="10.00">mimic++/Mock.hpp</text>
</a>
</g>
</g>
<!-- Node4&#45;&gt;Node8 -->
<g id="edge54_Node000004_Node000008" class="edge">
<title>Node4&#45;&gt;Node8</title>
<g id="a_edge54_Node000004_Node000008"><a xlink:title=" ">
<path fill="none" stroke="#63b8ff" d="M885.06,-682.47C927.4,-667.28 985,-637.31 985,-586.62 985,-586.62 985,-586.62 985,-457.25 985,-418.31 980.9,-401.45 951,-376.5 894.37,-329.24 848.05,-384.7 789,-340.5 715.02,-285.13 681.47,-169.06 673.14,-135.82"/>
<polygon fill="#63b8ff" stroke="#63b8ff" points="884.17,-679.07 875.83,-685.61 886.43,-685.7 884.17,-679.07"/>
</a>
</g>
</g>
<!-- Node16 -->
<g id="Node000016" class="node">
<title>Node16</title>
<g id="a_Node000016"><a xlink:href="../../d9/d6c/_call_report_8hpp.html" target="_top" xlink:title=" ">
<polygon fill="white" stroke="#666666" points="921.38,-595.25 760.62,-595.25 760.62,-576 921.38,-576 921.38,-595.25"/>
<text text-anchor="middle" x="841" y="-581.75" font-family="Helvetica,sans-Serif" font-size="10.00">mimic++/reporting/CallReport.hpp</text>
</a>
</g>
</g>
<!-- Node4&#45;&gt;Node16 -->
<g id="edge55_Node000004_Node000016" class="edge">
<title>Node4&#45;&gt;Node16</title>
<g id="a_edge55_Node000004_Node000016"><a xlink:title=" ">
<path fill="none" stroke="#63b8ff" d="M841,-674.78C841,-651.05 841,-612.89 841,-595.63"/>
<polygon fill="#63b8ff" stroke="#63b8ff" points="837.5,-674.73 841,-684.73 844.5,-674.73 837.5,-674.73"/>
</a>
</g>
</g>
<!-- Node23 -->
<g id="Node000023" class="node">
<title>Node23</title>
<g id="a_Node000023"><a xlink:href="../../d9/d70/_stringify_reports_8hpp.html" target="_top" xlink:title=" ">
<polygon fill="white" stroke="#666666" points="766.5,-540 633.5,-540 633.5,-509.5 766.5,-509.5 766.5,-540"/>
<text text-anchor="start" x="641.5" y="-526.5" font-family="Helvetica,sans-Serif" font-size="10.00">mimic++/reporting/Stringify</text>
<text text-anchor="middle" x="700" y="-515.25" font-family="Helvetica,sans-Serif" font-size="10.00">Reports.hpp</text>
</a>
</g>
</g>
<!-- Node4&#45;&gt;Node23 -->
<g id="edge56_Node000004_Node000023" class="edge">
<title>Node4&#45;&gt;Node23</title>
<g id="a_edge56_Node000004_Node000023"><a xlink:title=" ">
<path fill="none" stroke="#63b8ff" d="M824.98,-678.06C806.8,-658.48 776.49,-625.21 752,-595.25 736.93,-576.81 720.66,-554.66 710.4,-540.4"/>
<polygon fill="#63b8ff" stroke="#63b8ff" points="822.22,-680.23 831.6,-685.16 827.34,-675.46 822.22,-680.23"/>
</a>
</g>
</g>
<!-- Node5&#45;&gt;Node3 -->
<g id="edge20_Node000005_Node000003" class="edge">
<title>Node5&#45;&gt;Node3</title>
<g id="a_edge20_Node000005_Node000003"><a xlink:title=" ">
<path fill="none" stroke="#63b8ff" d="M418.53,-622.01C401.65,-600.63 377,-563.03 377,-525.75 377,-525.75 377,-525.75 377,-390.75 377,-301.19 417,-282.81 417,-193.25 417,-193.25 417,-193.25 417,-124.75 417,-83.36 442.5,-74.77 479,-55.25 522.8,-31.82 659.99,-19.36 738.79,-13.96"/>
<polygon fill="#63b8ff" stroke="#63b8ff" points="415.81,-624.22 424.87,-629.71 421.21,-619.77 415.81,-624.22"/>
</a>
</g>
</g>
<!-- Node6 -->
<g id="Node000006" class="node">
<title>Node6</title>
<g id="a_Node000006"><a xlink:href="../../d5/d8a/_expectation_8hpp.html" target="_top" xlink:title=" ">
<polygon fill="white" stroke="#666666" points="658.75,-268.38 533.25,-268.38 533.25,-249.12 658.75,-249.12 658.75,-268.38"/>
<text text-anchor="middle" x="596" y="-254.88" font-family="Helvetica,sans-Serif" font-size="10.00">mimic++/Expectation.hpp</text>
</a>
</g>
</g>
<!-- Node5&#45;&gt;Node6 -->
<g id="edge5_Node000005_Node000006" class="edge">
<title>Node5&#45;&gt;Node6</title>
<g id="a_edge5_Node000005_Node000006"><a xlink:title=" ">
<path fill="none" stroke="#63b8ff" d="M439.37,-619.93C444.99,-597.28 453,-559.14 453,-525.75 453,-525.75 453,-525.75 453,-390.75 453,-326.95 531.36,-285.82 572.07,-268.76"/>
<polygon fill="#63b8ff" stroke="#63b8ff" points="436.06,-618.77 436.94,-629.32 442.83,-620.52 436.06,-618.77"/>
</a>
</g>
</g>
<!-- Node5&#45;&gt;Node8 -->
<g id="edge19_Node000005_Node000008" class="edge">
<title>Node5&#45;&gt;Node8</title>
<g id="a_edge19_Node000005_Node000008"><a xlink:title=" ">
<path fill="none" stroke="#63b8ff" d="M428.63,-619.93C423.01,-597.28 415,-559.14 415,-525.75 415,-525.75 415,-525.75 415,-390.75 415,-256.04 588.91,-164.05 650.05,-135.87"/>
<polygon fill="#63b8ff" stroke="#63b8ff" points="425.17,-620.52 431.06,-629.32 431.94,-618.77 425.17,-620.52"/>
</a>
</g>
</g>
<!-- Node12 -->
<g id="Node000012" class="node">
<title>Node12</title>
<g id="a_Node000012"><a xlink:href="../../d2/dfd/_argument_list_8hpp.html" target="_top" xlink:title=" ">
<polygon fill="white" stroke="#666666" points="264.62,-340.5 129.38,-340.5 129.38,-310 264.62,-310 264.62,-340.5"/>
<text text-anchor="start" x="137.38" y="-327" font-family="Helvetica,sans-Serif" font-size="10.00">mimic++/policies/Argument</text>
<text text-anchor="middle" x="197" y="-315.75" font-family="Helvetica,sans-Serif" font-size="10.00">List.hpp</text>
</a>
</g>
</g>
<!-- Node5&#45;&gt;Node12 -->
<g id="edge21_Node000005_Node000012" class="edge">
<title>Node5&#45;&gt;Node12</title>
<g id="a_edge21_Node000005_Node000012"><a xlink:title=" ">
<path fill="none" stroke="#63b8ff" d="M381.19,-627.67C331.93,-612.78 266,-582.3 266,-525.75 266,-525.75 266,-525.75 266,-457.25 266,-410.21 230.74,-363.48 210.63,-340.66"/>
<polygon fill="#63b8ff" stroke="#63b8ff" points="380.01,-630.97 390.59,-630.37 381.94,-624.24 380.01,-630.97"/>
</a>
</g>
</g>
<!-- Node5&#45;&gt;Node16 -->
<g id="edge30_Node000005_Node000016" class="edge">
<title>Node5&#45;&gt;Node16</title>
<g id="a_edge30_Node000005_Node000016"><a xlink:title=" ">
<path fill="none" stroke="#63b8ff" d="M491.62,-632.34C565.19,-622.71 692.37,-606.07 771.31,-595.74"/>
<polygon fill="#63b8ff" stroke="#63b8ff" points="491.25,-628.85 481.79,-633.62 492.16,-635.8 491.25,-628.85"/>
</a>
</g>
</g>
<!-- Node6&#45;&gt;Node3 -->
<g id="edge18_Node000006_Node000003" class="edge">
<title>Node6&#45;&gt;Node3</title>
<g id="a_edge18_Node000006_Node000003"><a xlink:title=" ">
<path fill="none" stroke="#63b8ff" d="M578.58,-241.21C541.6,-204.13 462.54,-113.09 512,-55.25 540.59,-21.82 664.43,-13.27 738.81,-11.19"/>
<polygon fill="#63b8ff" stroke="#63b8ff" points="575.9,-243.48 585.49,-247.98 580.8,-238.48 575.9,-243.48"/>
</a>
</g>
</g>
<!-- Node7 -->
<g id="Node000007" class="node">
<title>Node7</title>
<g id="a_Node000007"><a xlink:href="../../d2/d4f/_expectation_builder_8hpp.html" target="_top" xlink:title=" ">
<polygon fill="white" stroke="#666666" points="930.75,-201.88 775.25,-201.88 775.25,-182.62 930.75,-182.62 930.75,-201.88"/>
<text text-anchor="middle" x="853" y="-188.38" font-family="Helvetica,sans-Serif" font-size="10.00">mimic++/ExpectationBuilder.hpp</text>
</a>
</g>
</g>
<!-- Node6&#45;&gt;Node7 -->
<g id="edge6_Node000006_Node000007" class="edge">
<title>Node6&#45;&gt;Node7</title>
<g id="a_edge6_Node000006_Node000007"><a xlink:title=" ">
<path fill="none" stroke="#63b8ff" d="M643.14,-245.92C693.27,-233.34 771.46,-213.71 816.91,-202.31"/>
<polygon fill="#63b8ff" stroke="#63b8ff" points="642.59,-242.45 633.74,-248.28 644.3,-249.24 642.59,-242.45"/>
</a>
</g>
</g>
<!-- Node6&#45;&gt;Node8 -->
<g id="edge16_Node000006_Node000008" class="edge">
<title>Node6&#45;&gt;Node8</title>
<g id="a_edge16_Node000006_Node000008"><a xlink:title=" ">
<path fill="none" stroke="#63b8ff" d="M606.86,-238.77C623.26,-210.14 653.68,-157.01 665.81,-135.82"/>
<polygon fill="#63b8ff" stroke="#63b8ff" points="603.84,-237.01 601.91,-247.43 609.91,-240.49 603.84,-237.01"/>
</a>
</g>
</g>
<!-- Node11 -->
<g id="Node000011" class="node">
<title>Node11</title>
<g id="a_Node000011"><a xlink:href="../../db/d83/_scoped_sequence_8hpp.html" target="_top" xlink:title=" ">
<polygon fill="white" stroke="#666666" points="891.88,-135.38 740.12,-135.38 740.12,-116.12 891.88,-116.12 891.88,-135.38"/>
<text text-anchor="middle" x="816" y="-121.88" font-family="Helvetica,sans-Serif" font-size="10.00">mimic++/ScopedSequence.hpp</text>
</a>
</g>
</g>
<!-- Node6&#45;&gt;Node11 -->
<g id="edge17_Node000006_Node000011" class="edge">
<title>Node6&#45;&gt;Node11</title>
<g id="a_edge17_Node000006_Node000011"><a xlink:title=" ">
<path fill="none" stroke="#63b8ff" d="M620.86,-242.95C666.73,-215.63 763.37,-158.09 800.77,-135.82"/>
<polygon fill="#63b8ff" stroke="#63b8ff" points="619.22,-239.85 612.42,-247.97 622.8,-245.86 619.22,-239.85"/>
</a>
</g>
</g>
<!-- Node7&#45;&gt;Node3 -->
<g id="edge15_Node000007_Node000003" class="edge">
<title>Node7&#45;&gt;Node3</title>
<g id="a_edge15_Node000007_Node000003"><a xlink:title=" ">
<path fill="none" stroke="#63b8ff" d="M874.83,-175.03C884.83,-166.21 895.64,-154.37 901,-141 906.04,-128.42 904.05,-123.71 901,-110.5 894.84,-83.87 892.69,-75.19 874,-55.25 858.85,-39.08 836.51,-27.12 819.62,-19.67"/>
<polygon fill="#63b8ff" stroke="#63b8ff" points="872.72,-172.22 867.21,-181.27 877.17,-177.64 872.72,-172.22"/>
</a>
</g>
</g>
<!-- Node7&#45;&gt;Node8 -->
<g id="edge7_Node000007_Node000008" class="edge">
<title>Node7&#45;&gt;Node8</title>
<g id="a_edge7_Node000007_Node000008"><a xlink:title=" ">
<path fill="none" stroke="#63b8ff" d="M816.89,-178.45C781.34,-165.85 727.93,-146.93 696.56,-135.81"/>
<polygon fill="#63b8ff" stroke="#63b8ff" points="815.29,-181.6 825.88,-181.64 817.63,-175 815.29,-181.6"/>
</a>
</g>
</g>
<!-- Node7&#45;&gt;Node11 -->
<g id="edge13_Node000007_Node000011" class="edge">
<title>Node7&#45;&gt;Node11</title>
<g id="a_edge13_Node000007_Node000011"><a xlink:title=" ">
<path fill="none" stroke="#63b8ff" d="M842.32,-172.64C835.35,-160.48 826.55,-145.14 821.1,-135.64"/>
<polygon fill="#63b8ff" stroke="#63b8ff" points="839.09,-174.04 847.1,-180.97 845.16,-170.55 839.09,-174.04"/>
</a>
</g>
</g>
<!-- Node8&#45;&gt;Node3 -->
<g id="edge12_Node000008_Node000003" class="edge">
<title>Node8&#45;&gt;Node3</title>
<g id="a_edge12_Node000008_Node000003"><a xlink:title=" ">
<path fill="none" stroke="#63b8ff" d="M717.18,-112.73C760.41,-101.01 819.34,-83.66 826,-74.5 838.97,-56.66 818.87,-32.33 805.79,-19.46"/>
<polygon fill="#63b8ff" stroke="#63b8ff" points="716.51,-109.28 707.76,-115.26 718.32,-116.04 716.51,-109.28"/>
</a>
</g>
</g>
<!-- Node9 -->
<g id="Node000009" class="node">
<title>Node9</title>
<g id="a_Node000009"><a xlink:href="../../d9/dc3/_interface_mock_8hpp.html" target="_top" xlink:title=" ">
<polygon fill="white" stroke="#666666" points="658.75,-74.5 521.25,-74.5 521.25,-55.25 658.75,-55.25 658.75,-74.5"/>
<text text-anchor="middle" x="590" y="-61" font-family="Helvetica,sans-Serif" font-size="10.00">mimic++/InterfaceMock.hpp</text>
</a>
</g>
</g>
<!-- Node8&#45;&gt;Node9 -->
<g id="edge8_Node000008_Node000009" class="edge">
<title>Node8&#45;&gt;Node9</title>
<g id="a_edge8_Node000008_Node000009"><a xlink:title=" ">
<path fill="none" stroke="#63b8ff" d="M649.59,-109.19C634.55,-98.26 614.95,-84.01 602.42,-74.9"/>
<polygon fill="#63b8ff" stroke="#63b8ff" points="647.33,-111.87 657.47,-114.92 651.44,-106.21 647.33,-111.87"/>
</a>
</g>
</g>
<!-- Node10 -->
<g id="Node000010" class="node">
<title>Node10</title>
<g id="a_Node000010"><a xlink:href="../../d5/d92/_object_watcher_8hpp.html" target="_top" xlink:title=" ">
<polygon fill="white" stroke="#666666" points="816.88,-74.5 677.12,-74.5 677.12,-55.25 816.88,-55.25 816.88,-74.5"/>
<text text-anchor="middle" x="747" y="-61" font-family="Helvetica,sans-Serif" font-size="10.00">mimic++/ObjectWatcher.hpp</text>
</a>
</g>
</g>
<!-- Node8&#45;&gt;Node10 -->
<g id="edge10_Node000008_Node000010" class="edge">
<title>Node8&#45;&gt;Node10</title>
<g id="a_edge10_Node000008_Node000010"><a xlink:title=" ">
<path fill="none" stroke="#63b8ff" d="M691.49,-108.88C705.55,-97.98 723.7,-83.92 735.35,-74.9"/>
<polygon fill="#63b8ff" stroke="#63b8ff" points="689.5,-105.99 683.74,-114.88 693.79,-111.52 689.5,-105.99"/>
</a>
</g>
</g>
<!-- Node9&#45;&gt;Node3 -->
<g id="edge9_Node000009_Node000003" class="edge">
<title>Node9&#45;&gt;Node3</title>
<g id="a_edge9_Node000009_Node000003"><a xlink:title=" ">
<path fill="none" stroke="#63b8ff" d="M635.66,-52.07C673.45,-42.3 726.35,-28.63 760.88,-19.7"/>
<polygon fill="#63b8ff" stroke="#63b8ff" points="635.22,-48.57 626.41,-54.46 636.97,-55.35 635.22,-48.57"/>
</a>
</g>
</g>
<!-- Node10&#45;&gt;Node3 -->
<g id="edge11_Node000010_Node000003" class="edge">
<title>Node10&#45;&gt;Node3</title>
<g id="a_edge11_Node000010_Node000003"><a xlink:title=" ">
<path fill="none" stroke="#63b8ff" d="M762.72,-46.79C771.04,-37.75 780.91,-27.02 787.73,-19.61"/>
<polygon fill="#63b8ff" stroke="#63b8ff" points="760.31,-44.24 756.12,-53.97 765.46,-48.98 760.31,-44.24"/>
</a>
</g>
</g>
<!-- Node11&#45;&gt;Node3 -->
<g id="edge14_Node000011_Node000003" class="edge">
<title>Node11&#45;&gt;Node3</title>
<g id="a_edge14_Node000011_Node000003"><a xlink:title=" ">
<path fill="none" stroke="#63b8ff" d="M837.15,-108.49C852.41,-94.67 868.75,-74.11 859,-55.25 850.44,-38.7 832.6,-26.97 818.09,-19.7"/>
<polygon fill="#63b8ff" stroke="#63b8ff" points="835.04,-105.69 829.65,-114.82 839.55,-111.05 835.04,-105.69"/>
</a>
</g>
</g>
<!-- Node12&#45;&gt;Node3 -->
<g id="edge22_Node000012_Node000003" class="edge">
<title>Node12&#45;&gt;Node3</title>
<g id="a_edge22_Node000012_Node000003"><a xlink:title=" ">
<path fill="none" stroke="#63b8ff" d="M196.84,-298.38C198.09,-280.88 202.53,-258.33 216,-243.5 249.45,-206.67 285.98,-241.83 322,-207.5 374.65,-157.32 324.16,-99.35 382,-55.25 436.69,-13.56 638.74,-9.19 738.92,-9.69"/>
<polygon fill="#63b8ff" stroke="#63b8ff" points="193.35,-298.16 196.47,-308.28 200.34,-298.42 193.35,-298.16"/>
</a>
</g>
</g>
<!-- Node13 -->
<g id="Node000013" class="node">
<title>Node13</title>
<g id="a_Node000013"><a xlink:href="../../d1/d42/_arg_requirement_policies_8hpp.html" target="_top" xlink:title=" ">
<polygon fill="white" stroke="#666666" points="388.5,-274 225.5,-274 225.5,-243.5 388.5,-243.5 388.5,-274"/>
<text text-anchor="start" x="233.5" y="-260.5" font-family="Helvetica,sans-Serif" font-size="10.00">mimic++/policies/ArgRequirement</text>
<text text-anchor="middle" x="307" y="-249.25" font-family="Helvetica,sans-Serif" font-size="10.00">Policies.hpp</text>
</a>
</g>
</g>
<!-- Node12&#45;&gt;Node13 -->
<g id="edge23_Node000012_Node000013" class="edge">
<title>Node12&#45;&gt;Node13</title>
<g id="a_edge23_Node000012_Node000013"><a xlink:title=" ">
<path fill="none" stroke="#63b8ff" d="M231.73,-303.89C248.1,-294.29 267.25,-283.06 282.14,-274.33"/>
<polygon fill="#63b8ff" stroke="#63b8ff" points="230.12,-300.77 223.27,-308.85 233.66,-306.81 230.12,-300.77"/>
</a>
</g>
</g>
<!-- Node14 -->
<g id="Node000014" class="node">
<title>Node14</title>
<g id="a_Node000014"><a xlink:href="../../d3/da3/_finalizer_policies_8hpp.html" target="_top" xlink:title=" ">
<polygon fill="white" stroke="#666666" points="157.62,-207.5 28.38,-207.5 28.38,-177 157.62,-177 157.62,-207.5"/>
<text text-anchor="start" x="36.38" y="-194" font-family="Helvetica,sans-Serif" font-size="10.00">mimic++/policies/Finalizer</text>
<text text-anchor="middle" x="93" y="-182.75" font-family="Helvetica,sans-Serif" font-size="10.00">Policies.hpp</text>
</a>
</g>
</g>
<!-- Node12&#45;&gt;Node14 -->
<g id="edge26_Node000012_Node000014" class="edge">
<title>Node12&#45;&gt;Node14</title>
<g id="a_edge26_Node000012_Node000014"><a xlink:title=" ">
<path fill="none" stroke="#63b8ff" d="M178.5,-300.95C157.09,-273.98 122.49,-230.4 104.58,-207.83"/>
<polygon fill="#63b8ff" stroke="#63b8ff" points="175.57,-302.89 184.53,-308.54 181.06,-298.54 175.57,-302.89"/>
</a>
</g>
</g>
<!-- Node15 -->
<g id="Node000015" class="node">
<title>Node15</title>
<g id="a_Node000015"><a xlink:href="../../dc/d18/_side_effect_policies_8hpp.html" target="_top" xlink:title=" ">
<polygon fill="white" stroke="#666666" points="312.75,-207.5 175.25,-207.5 175.25,-177 312.75,-177 312.75,-207.5"/>
<text text-anchor="start" x="183.25" y="-194" font-family="Helvetica,sans-Serif" font-size="10.00">mimic++/policies/SideEffect</text>
<text text-anchor="middle" x="244" y="-182.75" font-family="Helvetica,sans-Serif" font-size="10.00">Policies.hpp</text>
</a>
</g>
</g>
<!-- Node12&#45;&gt;Node15 -->
<g id="edge28_Node000012_Node000015" class="edge">
<title>Node12&#45;&gt;Node15</title>
<g id="a_edge28_Node000012_Node000015"><a xlink:title=" ">
<path fill="none" stroke="#63b8ff" d="M185.17,-299.08C179.19,-282.6 174.76,-260.96 183,-243.5 190.08,-228.49 204.1,-216.44 216.91,-207.91"/>
<polygon fill="#63b8ff" stroke="#63b8ff" points="181.85,-300.2 188.85,-308.15 188.33,-297.56 181.85,-300.2"/>
</a>
</g>
</g>
<!-- Node13&#45;&gt;Node3 -->
<g id="edge25_Node000013_Node000003" class="edge">
<title>Node13&#45;&gt;Node3</title>
<g id="a_edge25_Node000013_Node000003"><a xlink:title=" ">
<path fill="none" stroke="#63b8ff" d="M332.78,-235.2C340.8,-227.13 349.08,-217.52 355,-207.5 391.11,-146.43 348.25,-100.37 403,-55.25 452.95,-14.09 642.42,-9.35 738.86,-9.71"/>
<polygon fill="#63b8ff" stroke="#63b8ff" points="330.52,-232.53 325.73,-241.98 335.37,-237.58 330.52,-232.53"/>
</a>
</g>
</g>
<!-- Node13&#45;&gt;Node7 -->
<g id="edge24_Node000013_Node000007" class="edge">
<title>Node13&#45;&gt;Node7</title>
<g id="a_edge24_Node000013_Node000007"><a xlink:title=" ">
<path fill="none" stroke="#63b8ff" d="M400.06,-246.76C506.03,-234.24 677.22,-214.01 776,-202.35"/>
<polygon fill="#63b8ff" stroke="#63b8ff" points="399.77,-243.27 390.24,-247.92 400.59,-250.22 399.77,-243.27"/>
</a>
</g>
</g>
<!-- Node14&#45;&gt;Node3 -->
<g id="edge27_Node000014_Node000003" class="edge">
<title>Node14&#45;&gt;Node3</title>
<g id="a_edge27_Node000014_Node000003"><a xlink:title=" ">
<path fill="none" stroke="#63b8ff" d="M117.72,-169.27C154.77,-137.77 228.28,-80.79 302,-55.25 381.44,-27.73 627.06,-16.23 739.17,-12.32"/>
<polygon fill="#63b8ff" stroke="#63b8ff" points="115.54,-166.53 110.25,-175.71 120.11,-171.83 115.54,-166.53"/>
</a>
</g>
</g>
<!-- Node15&#45;&gt;Node3 -->
<g id="edge29_Node000015_Node000003" class="edge">
<title>Node15&#45;&gt;Node3</title>
<g id="a_edge29_Node000015_Node000003"><a xlink:title=" ">
<path fill="none" stroke="#63b8ff" d="M251.59,-166C262.6,-134.22 286.27,-80.72 327,-55.25 394.35,-13.13 629.52,-9.24 739.06,-9.81"/>
<polygon fill="#63b8ff" stroke="#63b8ff" points="248.37,-164.61 248.57,-175.2 255.02,-166.79 248.37,-164.61"/>
</a>
</g>
</g>
<!-- Node16&#45;&gt;Node6 -->
<g id="edge31_Node000016_Node000006" class="edge">
<title>Node16&#45;&gt;Node6</title>
<g id="a_edge31_Node000016_Node000006"><a xlink:title=" ">
<path fill="none" stroke="#63b8ff" d="M871.07,-569.96C883.13,-562.6 896.02,-552.55 904,-540 943.42,-478.03 974.31,-433.51 928,-376.5 878.76,-315.88 827.91,-370.99 756,-340.5 733.76,-331.07 732.16,-321.66 711,-310 680.66,-293.28 643.65,-277.94 619.95,-268.72"/>
<polygon fill="#63b8ff" stroke="#63b8ff" points="869.57,-566.79 862.59,-574.77 873.02,-572.88 869.57,-566.79"/>
</a>
</g>
</g>
<!-- Node17 -->
<g id="Node000017" class="node">
<title>Node17</title>
<g id="a_Node000017"><a xlink:href="../../d7/deb/_reporting_8hpp.html" target="_top" xlink:title=" ">
<polygon fill="white" stroke="#666666" points="666.25,-334.88 549.75,-334.88 549.75,-315.62 666.25,-315.62 666.25,-334.88"/>
<text text-anchor="middle" x="608" y="-321.38" font-family="Helvetica,sans-Serif" font-size="10.00">mimic++/Reporting.hpp</text>
</a>
</g>
</g>
<!-- Node16&#45;&gt;Node17 -->
<g id="edge32_Node000016_Node000017" class="edge">
<title>Node16&#45;&gt;Node17</title>
<g id="a_edge32_Node000016_Node000017"><a xlink:title=" ">
<path fill="none" stroke="#63b8ff" d="M849.24,-565.45C860.28,-536.5 875.92,-480.96 852,-443 848.7,-437.76 685.08,-361.85 627.66,-335.32"/>
<polygon fill="#63b8ff" stroke="#63b8ff" points="846.13,-563.81 845.61,-574.39 852.61,-566.44 846.13,-563.81"/>
</a>
</g>
</g>
<!-- Node18 -->
<g id="Node000018" class="node">
<title>Node18</title>
<g id="a_Node000018"><a xlink:href="../../d1/dfd/_basic_reporter_8hpp.html" target="_top" xlink:title=" ">
<polygon fill="white" stroke="#666666" points="696.62,-467.88 519.38,-467.88 519.38,-448.62 696.62,-448.62 696.62,-467.88"/>
<text text-anchor="middle" x="608" y="-454.38" font-family="Helvetica,sans-Serif" font-size="10.00">mimic++/reporting/BasicReporter.hpp</text>
</a>
</g>
</g>
<!-- Node16&#45;&gt;Node18 -->
<g id="edge34_Node000016_Node000018" class="edge">
<title>Node16&#45;&gt;Node18</title>
<g id="a_edge34_Node000016_Node000018"><a xlink:title=" ">
<path fill="none" stroke="#63b8ff" d="M827.46,-566.77C812.26,-547.15 788.14,-517.35 776,-509.5 743.02,-488.17 700.62,-475.58 666.67,-468.33"/>
<polygon fill="#63b8ff" stroke="#63b8ff" points="824.52,-568.68 833.38,-574.49 830.07,-564.42 824.52,-568.68"/>
</a>
</g>
</g>
<!-- Node19 -->
<g id="Node000019" class="node">
<title>Node19</title>
<g id="a_Node000019"><a xlink:href="../../d0/d70/_default_reporter_8hpp.html" target="_top" xlink:title=" ">
<polygon fill="white" stroke="#666666" points="843.25,-473.5 714.75,-473.5 714.75,-443 843.25,-443 843.25,-473.5"/>
<text text-anchor="start" x="722.75" y="-460" font-family="Helvetica,sans-Serif" font-size="10.00">mimic++/reporting/Default</text>
<text text-anchor="middle" x="779" y="-448.75" font-family="Helvetica,sans-Serif" font-size="10.00">Reporter.hpp</text>
</a>
</g>
</g>
<!-- Node16&#45;&gt;Node19 -->
<g id="edge36_Node000016_Node000019" class="edge">
<title>Node16&#45;&gt;Node19</title>
<g id="a_edge36_Node000016_Node000019"><a xlink:title=" ">
<path fill="none" stroke="#63b8ff" d="M833.63,-565.35C827.55,-549.98 818.42,-528.03 809,-509.5 802.74,-497.18 794.66,-483.77 788.47,-473.9"/>
<polygon fill="#63b8ff" stroke="#63b8ff" points="830.2,-566.2 837.09,-574.25 836.72,-563.66 830.2,-566.2"/>
</a>
</g>
</g>
<!-- Node20 -->
<g id="Node000020" class="node">
<title>Node20</title>
<g id="a_Node000020"><a xlink:href="../../de/dd1/_global_reporter_8hpp.html" target="_top" xlink:title=" ">
<polygon fill="white" stroke="#666666" points="918.75,-407 793.25,-407 793.25,-376.5 918.75,-376.5 918.75,-407"/>
<text text-anchor="start" x="801.25" y="-393.5" font-family="Helvetica,sans-Serif" font-size="10.00">mimic++/reporting/Global</text>
<text text-anchor="middle" x="856" y="-382.25" font-family="Helvetica,sans-Serif" font-size="10.00">Reporter.hpp</text>
</a>
</g>
</g>
<!-- Node16&#45;&gt;Node20 -->
<g id="edge49_Node000016_Node000020" class="edge">
<title>Node16&#45;&gt;Node20</title>
<g id="a_edge49_Node000016_Node000020"><a xlink:title=" ">
<path fill="none" stroke="#63b8ff" d="M862.87,-568.72C871.48,-561.11 880.4,-551.21 885,-540 901.36,-500.11 896.15,-484.64 885,-443 881.51,-429.96 873.73,-416.81 867.1,-407.23"/>
<polygon fill="#63b8ff" stroke="#63b8ff" points="860.92,-565.79 855.37,-574.82 865.34,-571.22 860.92,-565.79"/>
</a>
</g>
</g>
<!-- Node16&#45;&gt;Node23 -->
<g id="edge50_Node000016_Node000023" class="edge">
<title>Node16&#45;&gt;Node23</title>
<g id="a_edge50_Node000016_Node000023"><a xlink:title=" ">
<path fill="none" stroke="#63b8ff" d="M808.82,-571.19C786.86,-562.02 757.77,-549.87 735.19,-540.44"/>
<polygon fill="#63b8ff" stroke="#63b8ff" points="807.3,-574.35 817.88,-574.97 810,-567.89 807.3,-574.35"/>
</a>
</g>
</g>
<!-- Node17&#45;&gt;Node3 -->
<g id="edge33_Node000017_Node000003" class="edge">
<title>Node17&#45;&gt;Node3</title>
<g id="a_edge33_Node000017_Node000003"><a xlink:title=" ">
<path fill="none" stroke="#63b8ff" d="M571.93,-310.57C554.99,-302.39 535.94,-290.37 524,-274 466.26,-194.87 430.41,-127.1 497,-55.25 528.8,-20.94 661.28,-12.78 738.81,-10.98"/>
<polygon fill="#63b8ff" stroke="#63b8ff" points="570.18,-313.62 580.74,-314.54 573.06,-307.24 570.18,-313.62"/>
</a>
</g>
</g>
<!-- Node18&#45;&gt;Node17 -->
<g id="edge35_Node000018_Node000017" class="edge">
<title>Node18&#45;&gt;Node17</title>
<g id="a_edge35_Node000018_Node000017"><a xlink:title=" ">
<path fill="none" stroke="#63b8ff" d="M608,-437.12C608,-408.24 608,-356.23 608,-335.32"/>
<polygon fill="#63b8ff" stroke="#63b8ff" points="604.5,-436.73 608,-446.73 611.5,-436.73 604.5,-436.73"/>
</a>
</g>
</g>
<!-- Node19&#45;&gt;Node17 -->
<g id="edge37_Node000019_Node000017" class="edge">
<title>Node19&#45;&gt;Node17</title>
<g id="a_edge37_Node000019_Node000017"><a xlink:title=" ">
<path fill="none" stroke="#63b8ff" d="M751.04,-435.83C713.06,-406.73 646.8,-355.97 619.88,-335.35"/>
<polygon fill="#63b8ff" stroke="#63b8ff" points="748.78,-438.51 758.85,-441.81 753.04,-432.95 748.78,-438.51"/>
</a>
</g>
</g>
<!-- Node19&#45;&gt;Node20 -->
<g id="edge38_Node000019_Node000020" class="edge">
<title>Node19&#45;&gt;Node20</title>
<g id="a_edge38_Node000019_Node000020"><a xlink:title=" ">
<path fill="none" stroke="#63b8ff" d="M805.27,-435.24C816.28,-426.03 828.76,-415.56 838.6,-407.33"/>
<polygon fill="#63b8ff" stroke="#63b8ff" points="803.05,-432.54 797.63,-441.64 807.55,-437.9 803.05,-432.54"/>
</a>
</g>
</g>
<!-- Node20&#45;&gt;Node6 -->
<g id="edge39_Node000020_Node000006" class="edge">
<title>Node20&#45;&gt;Node6</title>
<g id="a_edge39_Node000020_Node000006"><a xlink:title=" ">
<path fill="none" stroke="#63b8ff" d="M795.12,-372.51C770.54,-364.15 742.29,-353.24 718,-340.5 697.25,-329.62 694.45,-323.07 675,-310 652.87,-295.13 626.68,-278.69 610.7,-268.79"/>
<polygon fill="#63b8ff" stroke="#63b8ff" points="793.74,-375.74 804.34,-375.58 795.95,-369.1 793.74,-375.74"/>
</a>
</g>
</g>
<!-- Node20&#45;&gt;Node17 -->
<g id="edge40_Node000020_Node000017" class="edge">
<title>Node20&#45;&gt;Node17</title>
<g id="a_edge40_Node000020_Node000017"><a xlink:title=" ">
<path fill="none" stroke="#63b8ff" d="M788.38,-373.16C741.34,-360.93 680.54,-345.12 642.91,-335.33"/>
<polygon fill="#63b8ff" stroke="#63b8ff" points="787.39,-376.52 797.95,-375.65 789.15,-369.75 787.39,-376.52"/>
</a>
</g>
</g>
<!-- Node21 -->
<g id="Node000021" class="node">
<title>Node21</title>
<g id="a_Node000021"><a xlink:href="../../d8/de4/_sequence_8hpp.html" target="_top" xlink:title=" ">
<polygon fill="white" stroke="#666666" points="916.38,-334.88 797.62,-334.88 797.62,-315.62 916.38,-315.62 916.38,-334.88"/>
<text text-anchor="middle" x="857" y="-321.38" font-family="Helvetica,sans-Serif" font-size="10.00">mimic++/Sequence.hpp</text>
</a>
</g>
</g>
<!-- Node20&#45;&gt;Node21 -->
<g id="edge41_Node000020_Node000021" class="edge">
<title>Node20&#45;&gt;Node21</title>
<g id="a_edge41_Node000020_Node000021"><a xlink:title=" ">
<path fill="none" stroke="#63b8ff" d="M856.4,-364.84C856.57,-354.26 856.74,-342.75 856.86,-335.07"/>
<polygon fill="#63b8ff" stroke="#63b8ff" points="852.91,-364.55 856.25,-374.6 859.91,-364.66 852.91,-364.55"/>
</a>
</g>
</g>
<!-- Node21&#45;&gt;Node3 -->
<g id="edge45_Node000021_Node000003" class="edge">
<title>Node21&#45;&gt;Node3</title>
<g id="a_edge45_Node000021_Node000003"><a xlink:title=" ">
<path fill="none" stroke="#63b8ff" d="M928.08,-318.53C993.05,-311.83 1082.76,-298.41 1108,-274 1134.5,-248.37 1127,-230.12 1127,-193.25 1127,-193.25 1127,-193.25 1127,-124.75 1127,-67.46 947.54,-32.66 852.9,-18.29"/>
<polygon fill="#63b8ff" stroke="#63b8ff" points="927.77,-315.04 918.16,-319.51 928.46,-322.01 927.77,-315.04"/>
</a>
</g>
</g>
<!-- Node21&#45;&gt;Node6 -->
<g id="edge42_Node000021_Node000006" class="edge">
<title>Node21&#45;&gt;Node6</title>
<g id="a_edge42_Node000021_Node000006"><a xlink:title=" ">
<path fill="none" stroke="#63b8ff" d="M809.12,-312.42C758.21,-299.84 678.81,-280.21 632.65,-268.81"/>
<polygon fill="#63b8ff" stroke="#63b8ff" points="808.14,-315.78 818.69,-314.78 809.82,-308.99 808.14,-315.78"/>
</a>
</g>
</g>
<!-- Node21&#45;&gt;Node7 -->
<g id="edge43_Node000021_Node000007" class="edge">
<title>Node21&#45;&gt;Node7</title>
<g id="a_edge43_Node000021_Node000007"><a xlink:title=" ">
<path fill="none" stroke="#63b8ff" d="M822.31,-310.2C807.04,-302.06 790.63,-290.18 782,-274 775.62,-262.04 775.77,-255.54 782,-243.5 792.13,-223.92 813.8,-210.33 830.55,-202.26"/>
<polygon fill="#63b8ff" stroke="#63b8ff" points="820.72,-313.32 831.24,-314.58 823.8,-307.03 820.72,-313.32"/>
</a>
</g>
</g>
<!-- Node21&#45;&gt;Node11 -->
<g id="edge44_Node000021_Node000011" class="edge">
<title>Node21&#45;&gt;Node11</title>
<g id="a_edge44_Node000021_Node000011"><a xlink:title=" ">
<path fill="none" stroke="#63b8ff" d="M818.96,-310.67C802.09,-302.65 783.68,-290.72 773,-274 749.74,-237.57 749.51,-216.95 766,-177 773.32,-159.25 790.29,-144.48 802.43,-135.64"/>
<polygon fill="#63b8ff" stroke="#63b8ff" points="817.24,-313.73 827.8,-314.56 820.05,-307.32 817.24,-313.73"/>
</a>
</g>
</g>
<!-- Node22 -->
<g id="Node000022" class="node">
<title>Node22</title>
<g id="a_Node000022"><a xlink:href="../../db/d70/_control_policies_8hpp.html" target="_top" xlink:title=" ">
<polygon fill="white" stroke="#666666" points="915,-274 791,-274 791,-243.5 915,-243.5 915,-274"/>
<text text-anchor="start" x="799" y="-260.5" font-family="Helvetica,sans-Serif" font-size="10.00">mimic++/policies/Control</text>
<text text-anchor="middle" x="853" y="-249.25" font-family="Helvetica,sans-Serif" font-size="10.00">Policies.hpp</text>
</a>
</g>
</g>
<!-- Node21&#45;&gt;Node22 -->
<g id="edge46_Node000021_Node000022" class="edge">
<title>Node21&#45;&gt;Node22</title>
<g id="a_edge46_Node000021_Node000022"><a xlink:title=" ">
<path fill="none" stroke="#63b8ff" d="M855.74,-303.87C855.14,-294.19 854.43,-282.85 853.89,-274.09"/>
<polygon fill="#63b8ff" stroke="#63b8ff" points="852.24,-304.01 856.35,-313.77 859.22,-303.57 852.24,-304.01"/>
</a>
</g>
</g>
<!-- Node22&#45;&gt;Node3 -->
<g id="edge48_Node000022_Node000003" class="edge">
<title>Node22&#45;&gt;Node3</title>
<g id="a_edge48_Node000022_Node000003"><a xlink:title=" ">
<path fill="none" stroke="#63b8ff" d="M907.19,-237.91C920.2,-230.44 932.5,-220.5 940,-207.5 946.78,-195.76 942.25,-190.37 940,-177 930.46,-120.26 935.52,-97.07 896,-55.25 879.29,-37.56 854.29,-26.41 833.46,-19.67"/>
<polygon fill="#63b8ff" stroke="#63b8ff" points="905.75,-234.71 898.51,-242.44 908.99,-240.91 905.75,-234.71"/>
</a>
</g>
</g>
<!-- Node22&#45;&gt;Node7 -->
<g id="edge47_Node000022_Node000007" class="edge">
<title>Node22&#45;&gt;Node7</title>
<g id="a_edge47_Node000022_Node000007"><a xlink:title=" ">
<path fill="none" stroke="#63b8ff" d="M853,-231.84C853,-221.26 853,-209.75 853,-202.07"/>
<polygon fill="#63b8ff" stroke="#63b8ff" points="849.5,-231.6 853,-241.6 856.5,-231.6 849.5,-231.6"/>
</a>
</g>
</g>
<!-- Node23&#45;&gt;Node17 -->
<g id="edge51_Node000023_Node000017" class="edge">
<title>Node23&#45;&gt;Node17</title>
<g id="a_edge51_Node000023_Node000017"><a xlink:title=" ">
<path fill="none" stroke="#63b8ff" d="M622.08,-512.89C576.03,-504.7 524.04,-491.73 510,-473.5 471.5,-423.5 557.96,-358.89 593.57,-335.34"/>
<polygon fill="#63b8ff" stroke="#63b8ff" points="621.38,-516.32 631.83,-514.57 622.57,-509.43 621.38,-516.32"/>
</a>
</g>
</g>
<!-- Node23&#45;&gt;Node18 -->
<g id="edge52_Node000023_Node000018" class="edge">
<title>Node23&#45;&gt;Node18</title>
<g id="a_edge52_Node000023_Node000018"><a xlink:title=" ">
<path fill="none" stroke="#63b8ff" d="M669.79,-502.57C653.19,-490.93 633.47,-477.11 620.85,-468.26"/>
<polygon fill="#63b8ff" stroke="#63b8ff" points="667.69,-505.37 677.88,-508.25 671.71,-499.64 667.69,-505.37"/>
</a>
</g>
</g>
<!-- Node23&#45;&gt;Node19 -->
<g id="edge53_Node000023_Node000019" class="edge">
<title>Node23&#45;&gt;Node19</title>
<g id="a_edge53_Node000023_Node000019"><a xlink:title=" ">
<path fill="none" stroke="#63b8ff" d="M726.62,-502.02C737.99,-492.73 750.96,-482.15 761.14,-473.83"/>
<polygon fill="#63b8ff" stroke="#63b8ff" points="724.63,-499.12 719.1,-508.16 729.06,-504.54 724.63,-499.12"/>
</a>
</g>
</g>
<!-- Node25 -->
<g id="Node000025" class="node">
<title>Node25</title>
<g id="a_Node000025"><a xlink:href="../../de/d62/_state_printer_8hpp.html" target="_top" xlink:title=" ">
<polygon fill="white" stroke="#666666" points="1025.75,-761 864.25,-761 864.25,-741.75 1025.75,-741.75 1025.75,-761"/>
<text text-anchor="middle" x="945" y="-747.5" font-family="Helvetica,sans-Serif" font-size="10.00">mimic++/printing/StatePrinter.hpp</text>
</a>
</g>
</g>
<!-- Node24&#45;&gt;Node25 -->
<g id="edge58_Node000024_Node000025" class="edge">
<title>Node24&#45;&gt;Node25</title>
<g id="a_edge58_Node000024_Node000025"><a xlink:title=" ">
<path fill="none" stroke="#63b8ff" d="M938.24,-785.53C939.99,-776.93 941.83,-767.91 943.15,-761.45"/>
<polygon fill="#63b8ff" stroke="#63b8ff" points="934.84,-784.72 936.27,-795.21 941.7,-786.11 934.84,-784.72"/>
</a>
</g>
</g>
<!-- Node25&#45;&gt;Node2 -->
<g id="edge59_Node000025_Node000002" class="edge">
<title>Node25&#45;&gt;Node2</title>
<g id="a_edge59_Node000025_Node000002"><a xlink:title=" ">
<path fill="none" stroke="#63b8ff" d="M893.31,-738.76C849.75,-728.97 788.3,-715.17 748.31,-706.18"/>
<polygon fill="#63b8ff" stroke="#63b8ff" points="892.53,-742.17 903.05,-740.95 894.06,-735.34 892.53,-742.17"/>
</a>
</g>
</g>
<!-- Node25&#45;&gt;Node4 -->
<g id="edge60_Node000025_Node000004" class="edge">
<title>Node25&#45;&gt;Node4</title>
<g id="a_edge60_Node000025_Node000004"><a xlink:title=" ">
<path fill="none" stroke="#63b8ff" d="M917.14,-736.11C898.58,-726.61 874.74,-714.4 858.73,-706.2"/>
<polygon fill="#63b8ff" stroke="#63b8ff" points="915.51,-739.21 926.01,-740.65 918.7,-732.98 915.51,-739.21"/>
</a>
</g>
</g>
<!-- Node25&#45;&gt;Node16 -->
<g id="edge76_Node000025_Node000016" class="edge">
<title>Node25&#45;&gt;Node16</title>
<g id="a_edge76_Node000025_Node000016"><a xlink:title=" ">
<path fill="none" stroke="#63b8ff" d="M935.72,-731.5C929.19,-718.6 920.04,-701.24 911,-686.5 889.74,-651.85 861,-612.99 847.95,-595.73"/>
<polygon fill="#63b8ff" stroke="#63b8ff" points="932.44,-732.77 940.04,-740.15 938.7,-729.64 932.44,-732.77"/>
</a>
</g>
</g>
<!-- Node26 -->
<g id="Node000026" class="node">
<title>Node26</title>
<g id="a_Node000026"><a xlink:href="../../d9/dd5/_general_matchers_8hpp.html" target="_top" xlink:title=" ">
<polygon fill="white" stroke="#666666" points="1374.25,-340.5 1239.75,-340.5 1239.75,-310 1374.25,-310 1374.25,-340.5"/>
<text text-anchor="start" x="1247.75" y="-327" font-family="Helvetica,sans-Serif" font-size="10.00">mimic++/matchers/General</text>
<text text-anchor="middle" x="1307" y="-315.75" font-family="Helvetica,sans-Serif" font-size="10.00">Matchers.hpp</text>
</a>
</g>
</g>
<!-- Node25&#45;&gt;Node26 -->
<g id="edge61_Node000025_Node000026" class="edge">
<title>Node25&#45;&gt;Node26</title>
<g id="a_edge61_Node000025_Node000026"><a xlink:title=" ">
<path fill="none" stroke="#63b8ff" d="M1037.41,-748.36C1084.91,-743.74 1142.09,-732.36 1187,-705.75 1218.49,-687.09 1239,-678.48 1239,-641.88 1239,-641.88 1239,-641.88 1239,-457.25 1239,-410.36 1273.75,-363.57 1293.57,-340.69"/>
<polygon fill="#63b8ff" stroke="#63b8ff" points="1037.35,-744.85 1027.69,-749.21 1037.96,-751.82 1037.35,-744.85"/>
</a>
</g>
</g>
<!-- Node29 -->
<g id="Node000029" class="node">
<title>Node29</title>
<g id="a_Node000029"><a xlink:href="../../d2/d56/_string_matchers_8hpp.html" target="_top" xlink:title=" ">
<polygon fill="white" stroke="#666666" points="1339.38,-268.38 1154.62,-268.38 1154.62,-249.12 1339.38,-249.12 1339.38,-268.38"/>
<text text-anchor="middle" x="1247" y="-254.88" font-family="Helvetica,sans-Serif" font-size="10.00">mimic++/matchers/StringMatchers.hpp</text>
</a>
</g>
</g>
<!-- Node25&#45;&gt;Node29 -->
<g id="edge71_Node000025_Node000029" class="edge">
<title>Node25&#45;&gt;Node29</title>
<g id="a_edge71_Node000025_Node000029"><a xlink:title=" ">
<path fill="none" stroke="#63b8ff" d="M1037.3,-742.57C1100.52,-731.56 1173,-705.15 1173,-641.88 1173,-641.88 1173,-641.88 1173,-390.75 1173,-338.77 1217.72,-288.44 1237.63,-268.61"/>
<polygon fill="#63b8ff" stroke="#63b8ff" points="1036.83,-739.1 1027.52,-744.15 1037.95,-746.01 1036.83,-739.1"/>
</a>
</g>
</g>
<!-- Node30 -->
<g id="Node000030" class="node">
<title>Node30</title>
<g id="a_Node000030"><a xlink:href="../../de/d10/_general_policies_8hpp.html" target="_top" xlink:title=" ">
<polygon fill="white" stroke="#666666" points="1098.5,-274 971.5,-274 971.5,-243.5 1098.5,-243.5 1098.5,-274"/>
<text text-anchor="start" x="979.5" y="-260.5" font-family="Helvetica,sans-Serif" font-size="10.00">mimic++/policies/General</text>
<text text-anchor="middle" x="1035" y="-249.25" font-family="Helvetica,sans-Serif" font-size="10.00">Policies.hpp</text>
</a>
</g>
</g>
<!-- Node25&#45;&gt;Node30 -->
<g id="edge72_Node000025_Node000030" class="edge">
<title>Node25&#45;&gt;Node30</title>
<g id="a_edge72_Node000025_Node000030"><a xlink:title=" ">
<path fill="none" stroke="#63b8ff" d="M968.69,-734.9C994.14,-716.2 1031,-682.16 1031,-641.88 1031,-641.88 1031,-641.88 1031,-390.75 1031,-348.43 1033.11,-298.45 1034.27,-274.28"/>
<polygon fill="#63b8ff" stroke="#63b8ff" points="966.99,-731.82 960.83,-740.43 971.02,-737.54 966.99,-731.82"/>
</a>
</g>
</g>
<!-- Node26&#45;&gt;Node3 -->
<g id="edge70_Node000026_Node000003" class="edge">
<title>Node26&#45;&gt;Node3</title>
<g id="a_edge70_Node000026_Node000003"><a xlink:title=" ">
<path fill="none" stroke="#63b8ff" d="M1331.11,-301.44C1337.91,-293.48 1344.43,-284.02 1348,-274 1352.55,-261.23 1353.1,-256.06 1348,-243.5 1304.11,-135.38 1269.56,-107.05 1165,-55.25 1111.51,-28.75 942.63,-17.25 853.06,-12.9"/>
<polygon fill="#63b8ff" stroke="#63b8ff" points="1328.69,-298.9 1324.48,-308.62 1333.83,-303.65 1328.69,-298.9"/>
</a>
</g>
</g>
<!-- Node26&#45;&gt;Node7 -->
<g id="edge62_Node000026_Node000007" class="edge">
<title>Node26&#45;&gt;Node7</title>
<g id="a_edge62_Node000026_Node000007"><a xlink:title=" ">
<path fill="none" stroke="#63b8ff" d="M1228.06,-324.12C1156.26,-321.39 1048.72,-310.69 963,-274 942.77,-265.34 941.65,-256.64 924,-243.5 904.13,-228.71 880.58,-212.25 866.22,-202.33"/>
<polygon fill="#63b8ff" stroke="#63b8ff" points="1227.65,-327.61 1237.76,-324.44 1227.88,-320.61 1227.65,-327.61"/>
</a>
</g>
</g>
<!-- Node27 -->
<g id="Node000027" class="node">
<title>Node27</title>
<g id="a_Node000027"><a xlink:href="../../d1/de0/_floating_point_matchers_8hpp.html" target="_top" xlink:title=" ">
<polygon fill="white" stroke="#666666" points="1472.62,-141 1337.38,-141 1337.38,-110.5 1472.62,-110.5 1472.62,-141"/>
<text text-anchor="start" x="1345.38" y="-127.5" font-family="Helvetica,sans-Serif" font-size="10.00">mimic++/matchers/Floating</text>
<text text-anchor="middle" x="1405" y="-116.25" font-family="Helvetica,sans-Serif" font-size="10.00">PointMatchers.hpp</text>
</a>
</g>
</g>
<!-- Node26&#45;&gt;Node27 -->
<g id="edge63_Node000026_Node000027" class="edge">
<title>Node26&#45;&gt;Node27</title>
<g id="a_edge63_Node000026_Node000027"><a xlink:title=" ">
<path fill="none" stroke="#63b8ff" d="M1349.31,-303.91C1361.31,-296.16 1373.22,-286.19 1381,-274 1407.89,-231.86 1407.88,-169.56 1406.24,-141.46"/>
<polygon fill="#63b8ff" stroke="#63b8ff" points="1347.81,-300.73 1341.03,-308.88 1351.41,-306.73 1347.81,-300.73"/>
</a>
</g>
</g>
<!-- Node28 -->
<g id="Node000028" class="node">
<title>Node28</title>
<g id="a_Node000028"><a xlink:href="../../df/df3/_range_matchers_8hpp.html" target="_top" xlink:title=" ">
<polygon fill="white" stroke="#666666" points="1586.5,-74.5 1399.5,-74.5 1399.5,-55.25 1586.5,-55.25 1586.5,-74.5"/>
<text text-anchor="middle" x="1493" y="-61" font-family="Helvetica,sans-Serif" font-size="10.00">mimic++/matchers/RangeMatchers.hpp</text>
</a>
</g>
</g>
<!-- Node26&#45;&gt;Node28 -->
<g id="edge65_Node000026_Node000028" class="edge">
<title>Node26&#45;&gt;Node28</title>
<g id="a_edge65_Node000026_Node000028"><a xlink:title=" ">
<path fill="none" stroke="#63b8ff" d="M1355.9,-304.72C1371.82,-296.8 1388.77,-286.52 1402,-274 1452.1,-226.58 1458.77,-205.95 1482,-141 1490.17,-118.16 1492.28,-89.34 1492.82,-74.94"/>
<polygon fill="#63b8ff" stroke="#63b8ff" points="1354.55,-301.49 1347.01,-308.94 1357.55,-307.82 1354.55,-301.49"/>
</a>
</g>
</g>
<!-- Node26&#45;&gt;Node29 -->
<g id="edge67_Node000026_Node000029" class="edge">
<title>Node26&#45;&gt;Node29</title>
<g id="a_edge67_Node000026_Node000029"><a xlink:title=" ">
<path fill="none" stroke="#63b8ff" d="M1285.72,-301.37C1275.17,-290.03 1263.04,-276.99 1255.21,-268.57"/>
<polygon fill="#63b8ff" stroke="#63b8ff" points="1282.98,-303.57 1292.35,-308.51 1288.11,-298.8 1282.98,-303.57"/>
</a>
</g>
</g>
<!-- Node27&#45;&gt;Node3 -->
<g id="edge64_Node000027_Node000003" class="edge">
<title>Node27&#45;&gt;Node3</title>
<g id="a_edge64_Node000027_Node000003"><a xlink:title=" ">
<path fill="none" stroke="#63b8ff" d="M1385.18,-101.64C1369.94,-85.62 1347.43,-65.4 1323,-55.25 1239.27,-20.46 971.07,-12.79 852.86,-11.1"/>
<polygon fill="#63b8ff" stroke="#63b8ff" points="1382.5,-103.9 1391.83,-108.91 1387.66,-99.17 1382.5,-103.9"/>
</a>
</g>
</g>
<!-- Node28&#45;&gt;Node3 -->
<g id="edge66_Node000028_Node000003" class="edge">
<title>Node28&#45;&gt;Node3</title>
<g id="a_edge66_Node000028_Node000003"><a xlink:title=" ">
<path fill="none" stroke="#63b8ff" d="M1387.94,-55.85C1238.62,-44.44 970.18,-23.93 853.15,-14.99"/>
<polygon fill="#63b8ff" stroke="#63b8ff" points="1387.61,-59.33 1397.85,-56.61 1388.15,-52.35 1387.61,-59.33"/>
</a>
</g>
</g>
<!-- Node29&#45;&gt;Node3 -->
<g id="edge69_Node000029_Node000003" class="edge">
<title>Node29&#45;&gt;Node3</title>
<g id="a_edge69_Node000029_Node000003"><a xlink:title=" ">
<path fill="none" stroke="#63b8ff" d="M1243.01,-237.92C1233.49,-196.31 1205.32,-100.07 1141,-55.25 1095.66,-23.66 938.85,-14.43 853.1,-11.73"/>
<polygon fill="#63b8ff" stroke="#63b8ff" points="1239.54,-238.44 1245.06,-247.48 1246.38,-236.97 1239.54,-238.44"/>
</a>
</g>
</g>
<!-- Node29&#45;&gt;Node7 -->
<g id="edge68_Node000029_Node000007" class="edge">
<title>Node29&#45;&gt;Node7</title>
<g id="a_edge68_Node000029_Node000007"><a xlink:title=" ">
<path fill="none" stroke="#63b8ff" d="M1180.47,-246.86C1104.08,-234.35 980.14,-214.06 908.65,-202.36"/>
<polygon fill="#63b8ff" stroke="#63b8ff" points="1179.46,-250.24 1189.89,-248.4 1180.59,-243.33 1179.46,-250.24"/>
</a>
</g>
</g>
<!-- Node30&#45;&gt;Node3 -->
<g id="edge75_Node000030_Node000003" class="edge">
<title>Node30&#45;&gt;Node3</title>
<g id="a_edge75_Node000030_Node000003"><a xlink:title=" ">
<path fill="none" stroke="#63b8ff" d="M1026.84,-232.45C1011.91,-189.98 976.25,-104.19 918,-55.25 896.67,-37.33 867.53,-26.32 843.08,-19.71"/>
<polygon fill="#63b8ff" stroke="#63b8ff" points="1023.48,-233.44 1030.02,-241.78 1030.11,-231.19 1023.48,-233.44"/>
</a>
</g>
</g>
<!-- Node30&#45;&gt;Node7 -->
<g id="edge73_Node000030_Node000007" class="edge">
<title>Node30&#45;&gt;Node7</title>
<g id="a_edge73_Node000030_Node000007"><a xlink:title=" ">
<path fill="none" stroke="#63b8ff" d="M982.97,-239.31C948.83,-227.21 905.66,-211.91 878.69,-202.35"/>
<polygon fill="#63b8ff" stroke="#63b8ff" points="981.68,-242.57 992.27,-242.61 984.02,-235.97 981.68,-242.57"/>
</a>
</g>
</g>
<!-- Node30&#45;&gt;Node8 -->
<g id="edge74_Node000030_Node000008" class="edge">
<title>Node30&#45;&gt;Node8</title>
<g id="a_edge74_Node000030_Node000008"><a xlink:title=" ">
<path fill="none" stroke="#63b8ff" d="M1014.83,-234.84C997.05,-216.19 969.45,-190.78 940,-177 854.62,-137.06 823.34,-159.9 731,-141 723.45,-139.45 715.4,-137.65 707.73,-135.86"/>
<polygon fill="#63b8ff" stroke="#63b8ff" points="1012.11,-237.05 1021.48,-242 1017.24,-232.29 1012.11,-237.05"/>
</a>
</g>
</g>
</g>
</svg>
