<?xml version="1.0" encoding="UTF-8" standalone="no"?>
<!DOCTYPE svg PUBLIC "-//W3C//DTD SVG 1.1//EN"
 "http://www.w3.org/Graphics/SVG/1.1/DTD/svg11.dtd">
<!-- Generated by graphviz version 12.2.1 (20241206.2353)
 -->
<!-- Title: mimic++/reporting/SequenceReport.hpp Pages: 1 -->
<!--zoomable 803 -->

<svg id="main" version="1.1" xmlns="http://www.w3.org/2000/svg" xmlns:xlink="http://www.w3.org/1999/xlink" xml:space="preserve" onload="init(evt)">

<style type="text/css"><![CDATA[
.node, .edge {opacity: 0.7;}
.node.selected, .edge.selected {opacity: 1;}
.edge:hover path { stroke: red; }
.edge:hover polygon { stroke: red; fill: red; }
]]></style>

<defs>
  <circle id="rim" cx="0" cy="0" r="7"/>
  <circle id="rim2" cx="0" cy="0" r="3.5"/>
  <g id="zoomPlus">
    <use xlink:href="#rim" fill="#404040"><set attributeName="fill" to="#808080" begin="zoomplus.mouseover" end="zoomplus.mouseout"/></use>
    <path d="M-4,0h8M0,-4v8" fill="none" stroke="white" stroke-width="1.5" pointer-events="none"/>
  </g>
  <g id="zoomMin">
    <use xlink:href="#rim" fill="#404040"><set attributeName="fill" to="#808080" begin="zoomminus.mouseover" end="zoomminus.mouseout"/></use>
    <path d="M-4,0h8" fill="none" stroke="white" stroke-width="1.5" pointer-events="none"/>
  </g>
  <g id="arrowUp" transform="translate(30 24)">
    <use xlink:href="#rim"/>
    <path pointer-events="none" fill="none" stroke="white" stroke-width="1.5" d="M0,-3.0v7 M-2.5,-0.5L0,-3.0L2.5,-0.5"/>
  </g>
  <g id="arrowRight" transform="rotate(90) translate(36 -43)">
    <use xlink:href="#rim"/>
    <path pointer-events="none" fill="none" stroke="white" stroke-width="1.5" d="M0,-3.0v7 M-2.5,-0.5L0,-3.0L2.5,-0.5"/>
  </g>
  <g id="arrowDown" transform="rotate(180) translate(-30 -48)">
    <use xlink:href="#rim"/>
    <path pointer-events="none" fill="none" stroke="white" stroke-width="1.5" d="M0,-3.0v7 M-2.5,-0.5L0,-3.0L2.5,-0.5"/>
  </g>
  <g id="arrowLeft" transform="rotate(270) translate(-36 17)">
    <use xlink:href="#rim"/>
    <path pointer-events="none" fill="none" stroke="white" stroke-width="1.5" d="M0,-3.0v7 M-2.5,-0.5L0,-3.0L2.5,-0.5"/>
  </g>
  <g id="resetDef">
    <use xlink:href="#rim2" fill="#404040"><set attributeName="fill" to="#808080" begin="reset.mouseover" end="reset.mouseout"/></use>
  </g>
</defs>
<script type="application/ecmascript">
var viewWidth = 826;
var viewHeight = 803;
var sectionId = 'dynsection-1';
</script>
<script type="application/ecmascript" xlink:href="../../svg.min.js"/>
<svg id="graph" class="graph">
<g id="viewport">
<title>mimic++/reporting/SequenceReport.hpp</title>
<!-- Node1 -->
<g id="Node000001" class="node">
<title>Node1</title>
<g id="a_Node000001"><a xlink:title=" ">
<polygon fill="#999999" stroke="#666666" points="526.62,-794.75 385.38,-794.75 385.38,-764.25 526.62,-764.25 526.62,-794.75"/>
<text text-anchor="start" x="393.38" y="-781.25" font-family="Helvetica,sans-Serif" font-size="10.00">mimic++/reporting/Sequence</text>
<text text-anchor="middle" x="456" y="-770" font-family="Helvetica,sans-Serif" font-size="10.00">Report.hpp</text>
</a>
</g>
</g>
<!-- Node2 -->
<g id="Node000002" class="node">
<title>Node2</title>
<g id="a_Node000002"><a xlink:href="../../d7/deb/_reporting_8hpp.html" target="_top" xlink:title=" ">
<polygon fill="white" stroke="#666666" points="247.25,-390.12 130.75,-390.12 130.75,-370.88 247.25,-370.88 247.25,-390.12"/>
<text text-anchor="middle" x="189" y="-376.62" font-family="Helvetica,sans-Serif" font-size="10.00">mimic++/Reporting.hpp</text>
</a>
</g>
</g>
<!-- Node1&#45;&gt;Node2 -->
<g id="edge1_Node000001_Node000002" class="edge">
<title>Node1&#45;&gt;Node2</title>
<g id="a_edge1_Node000001_Node000002"><a xlink:title=" ">
<path fill="none" stroke="#63b8ff" d="M374.07,-771.82C242.81,-758.84 0,-724.43 0,-647.5 0,-647.5 0,-647.5 0,-512.5 0,-441.04 92.4,-405.46 147.99,-390.53"/>
<polygon fill="#63b8ff" stroke="#63b8ff" points="373.45,-775.28 383.74,-772.76 374.13,-768.31 373.45,-775.28"/>
</a>
</g>
</g>
<!-- Node4 -->
<g id="Node000004" class="node">
<title>Node4</title>
<g id="a_Node000004"><a xlink:href="../../db/d70/_control_policies_8hpp.html" target="_top" xlink:title=" ">
<polygon fill="white" stroke="#666666" points="790.12,-329.25 651.88,-329.25 651.88,-298.75 790.12,-298.75 790.12,-329.25"/>
<text text-anchor="start" x="659.88" y="-315.75" font-family="Helvetica,sans-Serif" font-size="10.00">mimic++/expectation</text>
<text text-anchor="middle" x="721" y="-304.5" font-family="Helvetica,sans-Serif" font-size="10.00">/policies/ControlPolicies.hpp</text>
</a>
</g>
</g>
<!-- Node1&#45;&gt;Node4 -->
<g id="edge3_Node000001_Node000004" class="edge">
<title>Node1&#45;&gt;Node4</title>
<g id="a_edge3_Node000001_Node000004"><a xlink:title=" ">
<path fill="none" stroke="#63b8ff" d="M538.33,-773.48C619.67,-763.54 732,-734.12 732,-647.5 732,-647.5 732,-647.5 732,-446 732,-403.55 726.19,-353.63 723.02,-329.51"/>
<polygon fill="#63b8ff" stroke="#63b8ff" points="538.12,-769.98 528.58,-774.59 538.91,-776.94 538.12,-769.98"/>
</a>
</g>
</g>
<!-- Node10 -->
<g id="Node000010" class="node">
<title>Node10</title>
<g id="a_Node000010"><a xlink:href="../../dd/d76/_expectation_report_8hpp.html" target="_top" xlink:title=" ">
<polygon fill="white" stroke="#666666" points="530,-728.25 382,-728.25 382,-697.75 530,-697.75 530,-728.25"/>
<text text-anchor="start" x="390" y="-714.75" font-family="Helvetica,sans-Serif" font-size="10.00">mimic++/reporting/Expectation</text>
<text text-anchor="middle" x="456" y="-703.5" font-family="Helvetica,sans-Serif" font-size="10.00">Report.hpp</text>
</a>
</g>
</g>
<!-- Node1&#45;&gt;Node10 -->
<g id="edge15_Node000001_Node000010" class="edge">
<title>Node1&#45;&gt;Node10</title>
<g id="a_edge15_Node000001_Node000010"><a xlink:title=" ">
<path fill="none" stroke="#63b8ff" d="M456,-752.56C456,-744.39 456,-735.66 456,-728.58"/>
<polygon fill="#63b8ff" stroke="#63b8ff" points="452.5,-752.35 456,-762.35 459.5,-752.35 452.5,-752.35"/>
</a>
</g>
</g>
<!-- Node3 -->
<g id="Node000003" class="node">
<title>Node3</title>
<g id="a_Node000003"><a xlink:href="../../d0/db9/mimic_09_09_8hpp.html" target="_top" xlink:title=" ">
<polygon fill="white" stroke="#666666" points="512.75,-19.25 399.25,-19.25 399.25,0 512.75,0 512.75,-19.25"/>
<text text-anchor="middle" x="456" y="-5.75" font-family="Helvetica,sans-Serif" font-size="10.00">mimic++/mimic++.hpp</text>
</a>
</g>
</g>
<!-- Node2&#45;&gt;Node3 -->
<g id="edge2_Node000002_Node000003" class="edge">
<title>Node2&#45;&gt;Node3</title>
<g id="a_edge2_Node000002_Node000003"><a xlink:title=" ">
<path fill="none" stroke="#63b8ff" d="M163.7,-364.36C131.49,-342.94 80,-300.56 80,-248.5 80,-248.5 80,-248.5 80,-119.12 80,-81.08 103.44,-73.18 137,-55.25 181.15,-31.67 319.52,-19.25 398.76,-13.91"/>
<polygon fill="#63b8ff" stroke="#63b8ff" points="161.8,-367.3 172.11,-369.74 165.57,-361.4 161.8,-367.3"/>
</a>
</g>
</g>
<!-- Node4&#45;&gt;Node3 -->
<g id="edge14_Node000004_Node000003" class="edge">
<title>Node4&#45;&gt;Node3</title>
<g id="a_edge14_Node000004_Node000003"><a xlink:title=" ">
<path fill="none" stroke="#63b8ff" d="M726.33,-287.31C731.31,-260.99 738,-218.82 738,-182 738,-182 738,-182 738,-119.12 738,-81.37 714.71,-74.11 682,-55.25 629.85,-25.19 560.91,-15.05 512.94,-11.8"/>
<polygon fill="#63b8ff" stroke="#63b8ff" points="722.91,-286.57 724.41,-297.06 729.77,-287.92 722.91,-286.57"/>
</a>
</g>
</g>
<!-- Node5 -->
<g id="Node000005" class="node">
<title>Node5</title>
<g id="a_Node000005"><a xlink:href="../../d6/d15/_builder_8hpp.html" target="_top" xlink:title=" ">
<polygon fill="white" stroke="#666666" points="640.38,-196.25 533.62,-196.25 533.62,-165.75 640.38,-165.75 640.38,-196.25"/>
<text text-anchor="start" x="541.62" y="-182.75" font-family="Helvetica,sans-Serif" font-size="10.00">mimic++/expectation</text>
<text text-anchor="middle" x="587" y="-171.5" font-family="Helvetica,sans-Serif" font-size="10.00">/Builder.hpp</text>
</a>
</g>
</g>
<!-- Node4&#45;&gt;Node5 -->
<g id="edge4_Node000004_Node000005" class="edge">
<title>Node4&#45;&gt;Node5</title>
<g id="a_edge4_Node000004_Node000005"><a xlink:title=" ">
<path fill="none" stroke="#63b8ff" d="M698.24,-290.75C670.75,-263.88 625.3,-219.45 601.92,-196.58"/>
<polygon fill="#63b8ff" stroke="#63b8ff" points="695.47,-292.93 705.07,-297.42 700.36,-287.93 695.47,-292.93"/>
</a>
</g>
</g>
<!-- Node5&#45;&gt;Node3 -->
<g id="edge13_Node000005_Node000003" class="edge">
<title>Node5&#45;&gt;Node3</title>
<g id="a_edge13_Node000005_Node000003"><a xlink:title=" ">
<path fill="none" stroke="#63b8ff" d="M600.63,-155.02C613.43,-127.8 627.64,-84.27 606,-55.25 584.72,-26.72 545.94,-15.7 513.14,-11.75"/>
<polygon fill="#63b8ff" stroke="#63b8ff" points="597.53,-153.39 596.2,-163.9 603.8,-156.52 597.53,-153.39"/>
</a>
</g>
</g>
<!-- Node6 -->
<g id="Node000006" class="node">
<title>Node6</title>
<g id="a_Node000006"><a xlink:href="../../d5/dc5/_mock_8hpp.html" target="_top" xlink:title=" ">
<polygon fill="white" stroke="#666666" points="505.62,-129.75 406.38,-129.75 406.38,-110.5 505.62,-110.5 505.62,-129.75"/>
<text text-anchor="middle" x="456" y="-116.25" font-family="Helvetica,sans-Serif" font-size="10.00">mimic++/Mock.hpp</text>
</a>
</g>
</g>
<!-- Node5&#45;&gt;Node6 -->
<g id="edge5_Node000005_Node000006" class="edge">
<title>Node5&#45;&gt;Node6</title>
<g id="a_edge5_Node000005_Node000006"><a xlink:title=" ">
<path fill="none" stroke="#63b8ff" d="M543.8,-160.58C520.97,-150.33 494.05,-138.22 476.09,-130.15"/>
<polygon fill="#63b8ff" stroke="#63b8ff" points="542.34,-163.77 552.9,-164.67 545.21,-157.38 542.34,-163.77"/>
</a>
</g>
</g>
<!-- Node9 -->
<g id="Node000009" class="node">
<title>Node9</title>
<g id="a_Node000009"><a xlink:href="../../db/d83/_scoped_sequence_8hpp.html" target="_top" xlink:title=" ">
<polygon fill="white" stroke="#666666" points="335.88,-129.75 184.12,-129.75 184.12,-110.5 335.88,-110.5 335.88,-129.75"/>
<text text-anchor="middle" x="260" y="-116.25" font-family="Helvetica,sans-Serif" font-size="10.00">mimic++/ScopedSequence.hpp</text>
</a>
</g>
</g>
<!-- Node5&#45;&gt;Node9 -->
<g id="edge11_Node000005_Node000009" class="edge">
<title>Node5&#45;&gt;Node9</title>
<g id="a_edge11_Node000005_Node000009"><a xlink:title=" ">
<path fill="none" stroke="#63b8ff" d="M522.12,-168.32C459.92,-157.12 367.3,-140.44 310.44,-130.21"/>
<polygon fill="#63b8ff" stroke="#63b8ff" points="521.42,-171.75 531.88,-170.08 522.66,-164.86 521.42,-171.75"/>
</a>
</g>
</g>
<!-- Node6&#45;&gt;Node3 -->
<g id="edge10_Node000006_Node000003" class="edge">
<title>Node6&#45;&gt;Node3</title>
<g id="a_edge10_Node000006_Node000003"><a xlink:title=" ">
<path fill="none" stroke="#63b8ff" d="M497.83,-105.54C512.21,-98.63 526.76,-88.62 535,-74.5 549.62,-49.44 512.83,-30.21 484.67,-19.67"/>
<polygon fill="#63b8ff" stroke="#63b8ff" points="496.64,-102.23 488.86,-109.43 499.43,-108.66 496.64,-102.23"/>
</a>
</g>
</g>
<!-- Node7 -->
<g id="Node000007" class="node">
<title>Node7</title>
<g id="a_Node000007"><a xlink:href="../../d6/dc3/_facade_8hpp.html" target="_top" xlink:title=" ">
<polygon fill="white" stroke="#666666" points="367.75,-74.5 260.25,-74.5 260.25,-55.25 367.75,-55.25 367.75,-74.5"/>
<text text-anchor="middle" x="314" y="-61" font-family="Helvetica,sans-Serif" font-size="10.00">mimic++/Facade.hpp</text>
</a>
</g>
</g>
<!-- Node6&#45;&gt;Node7 -->
<g id="edge6_Node000006_Node000007" class="edge">
<title>Node6&#45;&gt;Node7</title>
<g id="a_edge6_Node000006_Node000007"><a xlink:title=" ">
<path fill="none" stroke="#63b8ff" d="M421.46,-106.17C395.68,-96.5 361.09,-83.54 338.21,-74.95"/>
<polygon fill="#63b8ff" stroke="#63b8ff" points="419.9,-109.33 430.49,-109.56 422.36,-102.77 419.9,-109.33"/>
</a>
</g>
</g>
<!-- Node8 -->
<g id="Node000008" class="node">
<title>Node8</title>
<g id="a_Node000008"><a xlink:href="../../d5/d92/_object_watcher_8hpp.html" target="_top" xlink:title=" ">
<polygon fill="white" stroke="#666666" points="525.88,-74.5 386.12,-74.5 386.12,-55.25 525.88,-55.25 525.88,-74.5"/>
<text text-anchor="middle" x="456" y="-61" font-family="Helvetica,sans-Serif" font-size="10.00">mimic++/ObjectWatcher.hpp</text>
</a>
</g>
</g>
<!-- Node6&#45;&gt;Node8 -->
<g id="edge8_Node000006_Node000008" class="edge">
<title>Node6&#45;&gt;Node8</title>
<g id="a_edge8_Node000006_Node000008"><a xlink:title=" ">
<path fill="none" stroke="#63b8ff" d="M456,-98.88C456,-90.59 456,-81.42 456,-74.86"/>
<polygon fill="#63b8ff" stroke="#63b8ff" points="452.5,-98.82 456,-108.82 459.5,-98.82 452.5,-98.82"/>
</a>
</g>
</g>
<!-- Node7&#45;&gt;Node3 -->
<g id="edge7_Node000007_Node000003" class="edge">
<title>Node7&#45;&gt;Node3</title>
<g id="a_edge7_Node000007_Node000003"><a xlink:title=" ">
<path fill="none" stroke="#63b8ff" d="M348.54,-50.92C374.32,-41.25 408.91,-28.29 431.79,-19.7"/>
<polygon fill="#63b8ff" stroke="#63b8ff" points="347.64,-47.52 339.51,-54.31 350.1,-54.08 347.64,-47.52"/>
</a>
</g>
</g>
<!-- Node8&#45;&gt;Node3 -->
<g id="edge9_Node000008_Node000003" class="edge">
<title>Node8&#45;&gt;Node3</title>
<g id="a_edge9_Node000008_Node000003"><a xlink:title=" ">
<path fill="none" stroke="#63b8ff" d="M456,-43.63C456,-35.34 456,-26.17 456,-19.61"/>
<polygon fill="#63b8ff" stroke="#63b8ff" points="452.5,-43.57 456,-53.57 459.5,-43.57 452.5,-43.57"/>
</a>
</g>
</g>
<!-- Node9&#45;&gt;Node3 -->
<g id="edge12_Node000009_Node000003" class="edge">
<title>Node9&#45;&gt;Node3</title>
<g id="a_edge12_Node000009_Node000003"><a xlink:title=" ">
<path fill="none" stroke="#63b8ff" d="M237.44,-102.9C221.63,-89.56 205.39,-70.45 218,-55.25 240.55,-28.08 336,-17.35 398.96,-13.19"/>
<polygon fill="#63b8ff" stroke="#63b8ff" points="235.27,-105.64 245.29,-109.08 239.59,-100.14 235.27,-105.64"/>
</a>
</g>
</g>
<!-- Node10&#45;&gt;Node2 -->
<g id="edge16_Node000010_Node000002" class="edge">
<title>Node10&#45;&gt;Node2</title>
<g id="a_edge16_Node000010_Node000002"><a xlink:title=" ">
<path fill="none" stroke="#63b8ff" d="M461.01,-686.42C467.92,-643.57 475.54,-556.28 437,-498.25 418.08,-469.76 398.94,-478.78 369,-462.25 345.21,-449.11 340.48,-443.56 316,-431.75 282.04,-415.37 241.28,-399.95 215.26,-390.62"/>
<polygon fill="#63b8ff" stroke="#63b8ff" points="457.6,-685.56 459.33,-696.01 464.5,-686.77 457.6,-685.56"/>
</a>
</g>
</g>
<!-- Node10&#45;&gt;Node4 -->
<g id="edge34_Node000010_Node000004" class="edge">
<title>Node10&#45;&gt;Node4</title>
<g id="a_edge34_Node000010_Node000004"><a xlink:title=" ">
<path fill="none" stroke="#63b8ff" d="M541.56,-700.28C609.79,-685.55 694,-652.82 694,-581 694,-581 694,-581 694,-446 694,-403.04 708.1,-353.76 715.92,-329.73"/>
<polygon fill="#63b8ff" stroke="#63b8ff" points="540.9,-696.84 531.81,-702.27 542.31,-703.7 540.9,-696.84"/>
</a>
</g>
</g>
<!-- Node11 -->
<g id="Node000011" class="node">
<title>Node11</title>
<g id="a_Node000011"><a xlink:href="../../db/d33/expectation_2_common_8hpp.html" target="_top" xlink:title=" ">
<polygon fill="white" stroke="#666666" points="666.38,-462.25 559.62,-462.25 559.62,-431.75 666.38,-431.75 666.38,-462.25"/>
<text text-anchor="start" x="567.62" y="-448.75" font-family="Helvetica,sans-Serif" font-size="10.00">mimic++/expectation</text>
<text text-anchor="middle" x="613" y="-437.5" font-family="Helvetica,sans-Serif" font-size="10.00">/Common.hpp</text>
</a>
</g>
</g>
<!-- Node10&#45;&gt;Node11 -->
<g id="edge17_Node000010_Node000011" class="edge">
<title>Node10&#45;&gt;Node11</title>
<g id="a_edge17_Node000010_Node000011"><a xlink:title=" ">
<path fill="none" stroke="#63b8ff" d="M506.4,-692.44C520.87,-684.74 535.54,-674.61 546,-661.75 596.29,-599.89 609,-500.04 612.07,-462.7"/>
<polygon fill="#63b8ff" stroke="#63b8ff" points="505.22,-689.12 497.83,-696.71 508.34,-695.38 505.22,-689.12"/>
</a>
</g>
</g>
<!-- Node12 -->
<g id="Node000012" class="node">
<title>Node12</title>
<g id="a_Node000012"><a xlink:href="../../d5/d8a/_expectation_8hpp.html" target="_top" xlink:title=" ">
<polygon fill="white" stroke="#666666" points="585.38,-395.75 478.62,-395.75 478.62,-365.25 585.38,-365.25 585.38,-395.75"/>
<text text-anchor="start" x="486.62" y="-382.25" font-family="Helvetica,sans-Serif" font-size="10.00">mimic++/expectation</text>
<text text-anchor="middle" x="532" y="-371" font-family="Helvetica,sans-Serif" font-size="10.00">/Expectation.hpp</text>
</a>
</g>
</g>
<!-- Node10&#45;&gt;Node12 -->
<g id="edge33_Node000010_Node000012" class="edge">
<title>Node10&#45;&gt;Node12</title>
<g id="a_edge33_Node000010_Node000012"><a xlink:title=" ">
<path fill="none" stroke="#63b8ff" d="M479.18,-689.26C501.53,-664.79 532,-623.62 532,-581 532,-581 532,-581 532,-512.5 532,-470.2 532,-420.21 532,-396.04"/>
<polygon fill="#63b8ff" stroke="#63b8ff" points="476.76,-686.72 472.42,-696.39 481.84,-691.53 476.76,-686.72"/>
</a>
</g>
</g>
<!-- Node16 -->
<g id="Node000016" class="node">
<title>Node16</title>
<g id="a_Node000016"><a xlink:href="../../d1/dfd/_basic_reporter_8hpp.html" target="_top" xlink:title=" ">
<polygon fill="white" stroke="#666666" points="243.62,-523.12 66.38,-523.12 66.38,-503.88 243.62,-503.88 243.62,-523.12"/>
<text text-anchor="middle" x="155" y="-509.62" font-family="Helvetica,sans-Serif" font-size="10.00">mimic++/reporting/BasicReporter.hpp</text>
</a>
</g>
</g>
<!-- Node10&#45;&gt;Node16 -->
<g id="edge35_Node000010_Node000016" class="edge">
<title>Node10&#45;&gt;Node16</title>
<g id="a_edge35_Node000010_Node000016"><a xlink:title=" ">
<path fill="none" stroke="#63b8ff" d="M370.28,-705.87C313.72,-699.61 238.93,-687 177,-661.75 128.26,-641.87 103.65,-641.76 79,-595.25 72.65,-583.27 72.58,-576.69 79,-564.75 89.71,-544.83 112.17,-531.48 129.91,-523.58"/>
<polygon fill="#63b8ff" stroke="#63b8ff" points="369.88,-709.35 380.19,-706.92 370.61,-702.39 369.88,-709.35"/>
</a>
</g>
</g>
<!-- Node17 -->
<g id="Node000017" class="node">
<title>Node17</title>
<g id="a_Node000017"><a xlink:href="../../d0/d70/_default_reporter_8hpp.html" target="_top" xlink:title=" ">
<polygon fill="white" stroke="#666666" points="428.25,-528.75 299.75,-528.75 299.75,-498.25 428.25,-498.25 428.25,-528.75"/>
<text text-anchor="start" x="307.75" y="-515.25" font-family="Helvetica,sans-Serif" font-size="10.00">mimic++/reporting/Default</text>
<text text-anchor="middle" x="364" y="-504" font-family="Helvetica,sans-Serif" font-size="10.00">Reporter.hpp</text>
</a>
</g>
</g>
<!-- Node10&#45;&gt;Node17 -->
<g id="edge37_Node000010_Node000017" class="edge">
<title>Node10&#45;&gt;Node17</title>
<g id="a_edge37_Node000010_Node000017"><a xlink:title=" ">
<path fill="none" stroke="#63b8ff" d="M444.4,-687.1C424.95,-645.35 386.37,-562.52 370.77,-529.04"/>
<polygon fill="#63b8ff" stroke="#63b8ff" points="441.2,-688.52 448.6,-696.11 447.55,-685.56 441.2,-688.52"/>
</a>
</g>
</g>
<!-- Node18 -->
<g id="Node000018" class="node">
<title>Node18</title>
<g id="a_Node000018"><a xlink:href="../../de/dd1/_global_reporter_8hpp.html" target="_top" xlink:title=" ">
<polygon fill="white" stroke="#666666" points="503.75,-462.25 378.25,-462.25 378.25,-431.75 503.75,-431.75 503.75,-462.25"/>
<text text-anchor="start" x="386.25" y="-448.75" font-family="Helvetica,sans-Serif" font-size="10.00">mimic++/reporting/Global</text>
<text text-anchor="middle" x="441" y="-437.5" font-family="Helvetica,sans-Serif" font-size="10.00">Reporter.hpp</text>
</a>
</g>
</g>
<!-- Node10&#45;&gt;Node18 -->
<g id="edge47_Node000010_Node000018" class="edge">
<title>Node10&#45;&gt;Node18</title>
<g id="a_edge47_Node000010_Node000018"><a xlink:title=" ">
<path fill="none" stroke="#63b8ff" d="M464.61,-686.28C466.82,-678.49 468.89,-669.85 470,-661.75 479.84,-589.75 488.8,-568.44 470,-498.25 466.51,-485.21 458.73,-472.06 452.1,-462.48"/>
<polygon fill="#63b8ff" stroke="#63b8ff" points="461.27,-685.24 461.69,-695.82 467.96,-687.29 461.27,-685.24"/>
</a>
</g>
</g>
<!-- Node20 -->
<g id="Node000020" class="node">
<title>Node20</title>
<g id="a_Node000020"><a xlink:href="../../de/d3f/_no_match_report_8hpp.html" target="_top" xlink:title=" ">
<polygon fill="white" stroke="#666666" points="356.75,-661.75 219.25,-661.75 219.25,-631.25 356.75,-631.25 356.75,-661.75"/>
<text text-anchor="start" x="227.25" y="-648.25" font-family="Helvetica,sans-Serif" font-size="10.00">mimic++/reporting/NoMatch</text>
<text text-anchor="middle" x="288" y="-637" font-family="Helvetica,sans-Serif" font-size="10.00">Report.hpp</text>
</a>
</g>
</g>
<!-- Node10&#45;&gt;Node20 -->
<g id="edge48_Node000010_Node000020" class="edge">
<title>Node10&#45;&gt;Node20</title>
<g id="a_edge48_Node000010_Node000020"><a xlink:title=" ">
<path fill="none" stroke="#63b8ff" d="M407.2,-693.26C381.43,-683.37 350.26,-671.4 326.26,-662.19"/>
<polygon fill="#63b8ff" stroke="#63b8ff" points="405.88,-696.5 416.47,-696.82 408.38,-689.97 405.88,-696.5"/>
</a>
</g>
</g>
<!-- Node21 -->
<g id="Node000021" class="node">
<title>Node21</title>
<g id="a_Node000021"><a xlink:href="../../d9/d70/_stringify_reports_8hpp.html" target="_top" xlink:title=" ">
<polygon fill="white" stroke="#666666" points="221.5,-595.25 88.5,-595.25 88.5,-564.75 221.5,-564.75 221.5,-595.25"/>
<text text-anchor="start" x="96.5" y="-581.75" font-family="Helvetica,sans-Serif" font-size="10.00">mimic++/reporting/Stringify</text>
<text text-anchor="middle" x="155" y="-570.5" font-family="Helvetica,sans-Serif" font-size="10.00">Reports.hpp</text>
</a>
</g>
</g>
<!-- Node10&#45;&gt;Node21 -->
<g id="edge56_Node000010_Node000021" class="edge">
<title>Node10&#45;&gt;Node21</title>
<g id="a_edge56_Node000010_Node000021"><a xlink:title=" ">
<path fill="none" stroke="#63b8ff" d="M370.35,-710.3C320.03,-705.64 257.23,-693.18 210,-661.75 185.43,-645.4 168.85,-613.97 160.75,-595.51"/>
<polygon fill="#63b8ff" stroke="#63b8ff" points="369.78,-713.76 380.03,-711.1 370.36,-706.78 369.78,-713.76"/>
</a>
</g>
</g>
<!-- Node11&#45;&gt;Node3 -->
<g id="edge32_Node000011_Node000003" class="edge">
<title>Node11&#45;&gt;Node3</title>
<g id="a_edge32_Node000011_Node000003"><a xlink:title=" ">
<path fill="none" stroke="#63b8ff" d="M677.82,-433.07C737.88,-416.87 818,-382.59 818,-315 818,-315 818,-315 818,-119.12 818,-56.22 614.9,-26.68 512.96,-15.81"/>
<polygon fill="#63b8ff" stroke="#63b8ff" points="677.14,-429.63 668.33,-435.51 678.88,-436.41 677.14,-429.63"/>
</a>
</g>
</g>
<!-- Node11&#45;&gt;Node5 -->
<g id="edge18_Node000011_Node000005" class="edge">
<title>Node11&#45;&gt;Node5</title>
<g id="a_edge18_Node000011_Node000005"><a xlink:title=" ">
<path fill="none" stroke="#63b8ff" d="M610.44,-419.98C605.04,-365.16 592.64,-239.29 588.43,-196.52"/>
<polygon fill="#63b8ff" stroke="#63b8ff" points="606.95,-420.32 611.42,-429.92 613.92,-419.63 606.95,-420.32"/>
</a>
</g>
</g>
<!-- Node11&#45;&gt;Node12 -->
<g id="edge19_Node000011_Node000012" class="edge">
<title>Node11&#45;&gt;Node12</title>
<g id="a_edge19_Node000011_Node000012"><a xlink:title=" ">
<path fill="none" stroke="#63b8ff" d="M585.71,-424.27C574.05,-414.98 560.75,-404.4 550.31,-396.08"/>
<polygon fill="#63b8ff" stroke="#63b8ff" points="583.43,-426.93 593.44,-430.42 587.79,-421.45 583.43,-426.93"/>
</a>
</g>
</g>
<!-- Node12&#45;&gt;Node3 -->
<g id="edge31_Node000012_Node000003" class="edge">
<title>Node12&#45;&gt;Node3</title>
<g id="a_edge31_Node000012_Node000003"><a xlink:title=" ">
<path fill="none" stroke="#63b8ff" d="M553.04,-356.42C581.33,-323.67 630.24,-260.5 649,-196.25 652.8,-183.24 650.5,-179.22 649,-165.75 643.41,-115.71 658.94,-91.51 624,-55.25 595.42,-25.59 549.55,-14.87 512.96,-11.33"/>
<polygon fill="#63b8ff" stroke="#63b8ff" points="550.62,-353.87 546.65,-363.69 555.88,-358.49 550.62,-353.87"/>
</a>
</g>
</g>
<!-- Node13 -->
<g id="Node000013" class="node">
<title>Node13</title>
<g id="a_Node000013"><a xlink:href="../../d4/d1e/_owner_8hpp.html" target="_top" xlink:title=" ">
<polygon fill="white" stroke="#666666" points="558.38,-262.75 451.62,-262.75 451.62,-232.25 558.38,-232.25 558.38,-262.75"/>
<text text-anchor="start" x="459.62" y="-249.25" font-family="Helvetica,sans-Serif" font-size="10.00">mimic++/expectation</text>
<text text-anchor="middle" x="505" y="-238" font-family="Helvetica,sans-Serif" font-size="10.00">/Owner.hpp</text>
</a>
</g>
</g>
<!-- Node12&#45;&gt;Node13 -->
<g id="edge20_Node000012_Node000013" class="edge">
<title>Node12&#45;&gt;Node13</title>
<g id="a_edge20_Node000012_Node000013"><a xlink:title=" ">
<path fill="none" stroke="#63b8ff" d="M526.75,-354.04C521.17,-326.96 512.54,-285.06 508.01,-263.08"/>
<polygon fill="#63b8ff" stroke="#63b8ff" points="523.26,-354.41 528.7,-363.5 530.11,-353 523.26,-354.41"/>
</a>
</g>
</g>
<!-- Node15 -->
<g id="Node000015" class="node">
<title>Node15</title>
<g id="a_Node000015"><a xlink:href="../../db/d5d/_registry_8hpp.html" target="_top" xlink:title=" ">
<polygon fill="white" stroke="#666666" points="496.38,-329.25 389.62,-329.25 389.62,-298.75 496.38,-298.75 496.38,-329.25"/>
<text text-anchor="start" x="397.62" y="-315.75" font-family="Helvetica,sans-Serif" font-size="10.00">mimic++/expectation</text>
<text text-anchor="middle" x="443" y="-304.5" font-family="Helvetica,sans-Serif" font-size="10.00">/Registry.hpp</text>
</a>
</g>
</g>
<!-- Node12&#45;&gt;Node15 -->
<g id="edge26_Node000012_Node000015" class="edge">
<title>Node12&#45;&gt;Node15</title>
<g id="a_edge26_Node000012_Node000015"><a xlink:title=" ">
<path fill="none" stroke="#63b8ff" d="M502.77,-358.32C489.78,-348.91 474.82,-338.06 463.12,-329.58"/>
<polygon fill="#63b8ff" stroke="#63b8ff" points="500.43,-360.94 510.58,-363.98 504.54,-355.27 500.43,-360.94"/>
</a>
</g>
</g>
<!-- Node13&#45;&gt;Node3 -->
<g id="edge25_Node000013_Node000003" class="edge">
<title>Node13&#45;&gt;Node3</title>
<g id="a_edge25_Node000013_Node000003"><a xlink:title=" ">
<path fill="none" stroke="#63b8ff" d="M511.12,-220.8C514.97,-204.9 520.11,-184.1 525,-165.75 537.98,-117 578.05,-97.84 551,-55.25 539.47,-37.1 518.39,-26.2 499.01,-19.72"/>
<polygon fill="#63b8ff" stroke="#63b8ff" points="507.75,-219.86 508.81,-230.4 514.56,-221.5 507.75,-219.86"/>
</a>
</g>
</g>
<!-- Node13&#45;&gt;Node5 -->
<g id="edge21_Node000013_Node000005" class="edge">
<title>Node13&#45;&gt;Node5</title>
<g id="a_edge21_Node000013_Node000005"><a xlink:title=" ">
<path fill="none" stroke="#63b8ff" d="M532.63,-224.77C544.43,-215.48 557.89,-204.9 568.47,-196.58"/>
<polygon fill="#63b8ff" stroke="#63b8ff" points="530.49,-221.99 524.8,-230.93 534.82,-227.5 530.49,-221.99"/>
</a>
</g>
</g>
<!-- Node14 -->
<g id="Node000014" class="node">
<title>Node14</title>
<g id="a_Node000014"><a xlink:href="../../db/dd0/_collector_8hpp.html" target="_top" xlink:title=" ">
<polygon fill="white" stroke="#666666" points="396.38,-196.25 289.62,-196.25 289.62,-165.75 396.38,-165.75 396.38,-196.25"/>
<text text-anchor="start" x="297.62" y="-182.75" font-family="Helvetica,sans-Serif" font-size="10.00">mimic++/expectation</text>
<text text-anchor="middle" x="343" y="-171.5" font-family="Helvetica,sans-Serif" font-size="10.00">/Collector.hpp</text>
</a>
</g>
</g>
<!-- Node13&#45;&gt;Node14 -->
<g id="edge22_Node000013_Node000014" class="edge">
<title>Node13&#45;&gt;Node14</title>
<g id="a_edge22_Node000013_Node000014"><a xlink:title=" ">
<path fill="none" stroke="#63b8ff" d="M457.61,-227.63C432.82,-217.76 402.93,-205.86 379.89,-196.69"/>
<polygon fill="#63b8ff" stroke="#63b8ff" points="456.25,-230.86 466.83,-231.3 458.84,-224.35 456.25,-230.86"/>
</a>
</g>
</g>
<!-- Node14&#45;&gt;Node3 -->
<g id="edge24_Node000014_Node000003" class="edge">
<title>Node14&#45;&gt;Node3</title>
<g id="a_edge24_Node000014_Node000003"><a xlink:title=" ">
<path fill="none" stroke="#63b8ff" d="M350.66,-154.32C353.27,-140.22 353.66,-123.09 345,-110.5 317.54,-70.57 220.6,-92.98 251,-55.25 269.28,-32.56 344.79,-20.8 398.85,-15.17"/>
<polygon fill="#63b8ff" stroke="#63b8ff" points="347.31,-153.28 348.44,-163.81 354.12,-154.87 347.31,-153.28"/>
</a>
</g>
</g>
<!-- Node14&#45;&gt;Node9 -->
<g id="edge23_Node000014_Node000009" class="edge">
<title>Node14&#45;&gt;Node9</title>
<g id="a_edge23_Node000014_Node000009"><a xlink:title=" ">
<path fill="none" stroke="#63b8ff" d="M313.26,-158.9C299.36,-149.05 283.56,-137.83 272.8,-130.2"/>
<polygon fill="#63b8ff" stroke="#63b8ff" points="311.07,-161.64 321.25,-164.57 315.12,-155.93 311.07,-161.64"/>
</a>
</g>
</g>
<!-- Node15&#45;&gt;Node3 -->
<g id="edge30_Node000015_Node000003" class="edge">
<title>Node15&#45;&gt;Node3</title>
<g id="a_edge30_Node000015_Node000003"><a xlink:title=" ">
<path fill="none" stroke="#63b8ff" d="M378.03,-310.98C293.37,-304.49 156,-279.01 156,-182 156,-182 156,-182 156,-119.12 156,-82.24 177.14,-73.85 209,-55.25 267.61,-21.03 346.33,-11.93 399,-10.05"/>
<polygon fill="#63b8ff" stroke="#63b8ff" points="377.63,-314.46 387.84,-311.66 378.11,-307.48 377.63,-314.46"/>
</a>
</g>
</g>
<!-- Node15&#45;&gt;Node5 -->
<g id="edge28_Node000015_Node000005" class="edge">
<title>Node15&#45;&gt;Node5</title>
<g id="a_edge28_Node000015_Node000005"><a xlink:title=" ">
<path fill="none" stroke="#63b8ff" d="M507.46,-299.53C529.11,-292.02 551.64,-280.47 567,-262.75 583.18,-244.09 586.67,-214.33 587.2,-196.62"/>
<polygon fill="#63b8ff" stroke="#63b8ff" points="506.5,-296.16 498.04,-302.53 508.63,-302.83 506.5,-296.16"/>
</a>
</g>
</g>
<!-- Node15&#45;&gt;Node6 -->
<g id="edge27_Node000015_Node000006" class="edge">
<title>Node15&#45;&gt;Node6</title>
<g id="a_edge27_Node000015_Node000006"><a xlink:title=" ">
<path fill="none" stroke="#63b8ff" d="M442.24,-287.33C441.96,-271.45 441.93,-250.65 443,-232.25 445.23,-194.05 451.72,-148.84 454.6,-130.02"/>
<polygon fill="#63b8ff" stroke="#63b8ff" points="438.73,-286.97 442.46,-296.88 445.73,-286.81 438.73,-286.97"/>
</a>
</g>
</g>
<!-- Node15&#45;&gt;Node13 -->
<g id="edge29_Node000015_Node000013" class="edge">
<title>Node15&#45;&gt;Node13</title>
<g id="a_edge29_Node000015_Node000013"><a xlink:title=" ">
<path fill="none" stroke="#63b8ff" d="M464.96,-290.16C473.62,-281.15 483.31,-271.07 490.99,-263.08"/>
<polygon fill="#63b8ff" stroke="#63b8ff" points="462.52,-287.64 458.12,-297.27 467.57,-292.49 462.52,-287.64"/>
</a>
</g>
</g>
<!-- Node16&#45;&gt;Node2 -->
<g id="edge36_Node000016_Node000002" class="edge">
<title>Node16&#45;&gt;Node2</title>
<g id="a_edge36_Node000016_Node000002"><a xlink:title=" ">
<path fill="none" stroke="#63b8ff" d="M160.22,-492.37C167.72,-463.49 181.22,-411.48 186.65,-390.57"/>
<polygon fill="#63b8ff" stroke="#63b8ff" points="156.84,-491.47 157.72,-502.03 163.62,-493.23 156.84,-491.47"/>
</a>
</g>
</g>
<!-- Node17&#45;&gt;Node2 -->
<g id="edge38_Node000017_Node000002" class="edge">
<title>Node17&#45;&gt;Node2</title>
<g id="a_edge38_Node000017_Node000002"><a xlink:title=" ">
<path fill="none" stroke="#63b8ff" d="M345.43,-489.56C330.61,-472.22 308.63,-448.61 286,-431.75 262.43,-414.19 231.84,-399.47 211.37,-390.59"/>
<polygon fill="#63b8ff" stroke="#63b8ff" points="342.42,-491.42 351.53,-496.83 347.78,-486.92 342.42,-491.42"/>
</a>
</g>
</g>
<!-- Node17&#45;&gt;Node18 -->
<g id="edge39_Node000017_Node000018" class="edge">
<title>Node17&#45;&gt;Node18</title>
<g id="a_edge39_Node000017_Node000018"><a xlink:title=" ">
<path fill="none" stroke="#63b8ff" d="M390.27,-490.49C401.28,-481.28 413.76,-470.81 423.6,-462.58"/>
<polygon fill="#63b8ff" stroke="#63b8ff" points="388.05,-487.79 382.63,-496.89 392.55,-493.15 388.05,-487.79"/>
</a>
</g>
</g>
<!-- Node18&#45;&gt;Node2 -->
<g id="edge40_Node000018_Node000002" class="edge">
<title>Node18&#45;&gt;Node2</title>
<g id="a_edge40_Node000018_Node000002"><a xlink:title=" ">
<path fill="none" stroke="#63b8ff" d="M372.6,-428.49C324.75,-416.25 262.79,-400.39 224.48,-390.58"/>
<polygon fill="#63b8ff" stroke="#63b8ff" points="371.48,-431.82 382.04,-430.91 373.22,-425.04 371.48,-431.82"/>
</a>
</g>
</g>
<!-- Node18&#45;&gt;Node15 -->
<g id="edge46_Node000018_Node000015" class="edge">
<title>Node18&#45;&gt;Node15</title>
<g id="a_edge46_Node000018_Node000015"><a xlink:title=" ">
<path fill="none" stroke="#63b8ff" d="M441.39,-420.18C441.81,-393.09 442.44,-351.46 442.78,-329.58"/>
<polygon fill="#63b8ff" stroke="#63b8ff" points="437.9,-419.91 441.24,-429.97 444.9,-420.02 437.9,-419.91"/>
</a>
</g>
</g>
<!-- Node19 -->
<g id="Node000019" class="node">
<title>Node19</title>
<g id="a_Node000019"><a xlink:href="../../d8/de4/_sequence_8hpp.html" target="_top" xlink:title=" ">
<polygon fill="white" stroke="#666666" points="415.38,-390.12 296.62,-390.12 296.62,-370.88 415.38,-370.88 415.38,-390.12"/>
<text text-anchor="middle" x="356" y="-376.62" font-family="Helvetica,sans-Serif" font-size="10.00">mimic++/Sequence.hpp</text>
</a>
</g>
</g>
<!-- Node18&#45;&gt;Node19 -->
<g id="edge41_Node000018_Node000019" class="edge">
<title>Node18&#45;&gt;Node19</title>
<g id="a_edge41_Node000018_Node000019"><a xlink:title=" ">
<path fill="none" stroke="#63b8ff" d="M412.6,-424.45C397.26,-412.81 379.15,-399.07 367.63,-390.32"/>
<polygon fill="#63b8ff" stroke="#63b8ff" points="410.42,-427.19 420.51,-430.45 414.66,-421.62 410.42,-427.19"/>
</a>
</g>
</g>
<!-- Node19&#45;&gt;Node3 -->
<g id="edge45_Node000019_Node000003" class="edge">
<title>Node19&#45;&gt;Node3</title>
<g id="a_edge45_Node000019_Node000003"><a xlink:title=" ">
<path fill="none" stroke="#63b8ff" d="M285.24,-370.75C215.08,-357.66 118,-325.62 118,-248.5 118,-248.5 118,-248.5 118,-119.12 118,-81.37 140.94,-73.48 174,-55.25 211.71,-34.46 328.13,-21.33 399.05,-15.04"/>
<polygon fill="#63b8ff" stroke="#63b8ff" points="284.3,-374.14 294.76,-372.43 285.52,-367.25 284.3,-374.14"/>
</a>
</g>
</g>
<!-- Node19&#45;&gt;Node4 -->
<g id="edge44_Node000019_Node000004" class="edge">
<title>Node19&#45;&gt;Node4</title>
<g id="a_edge44_Node000019_Node000004"><a xlink:title=" ">
<path fill="none" stroke="#63b8ff" d="M418.79,-368.4C483.62,-356.95 584.51,-339.12 651.65,-327.25"/>
<polygon fill="#63b8ff" stroke="#63b8ff" points="418.25,-364.95 409.01,-370.13 419.47,-371.84 418.25,-364.95"/>
</a>
</g>
</g>
<!-- Node19&#45;&gt;Node9 -->
<g id="edge42_Node000019_Node000009" class="edge">
<title>Node19&#45;&gt;Node9</title>
<g id="a_edge42_Node000019_Node000009"><a xlink:title=" ">
<path fill="none" stroke="#63b8ff" d="M347.15,-360.01C332.28,-326.83 301.87,-257.06 281,-196.25 272.91,-172.68 265.6,-144.18 262.13,-130.02"/>
<polygon fill="#63b8ff" stroke="#63b8ff" points="343.95,-361.43 351.25,-369.11 350.33,-358.56 343.95,-361.43"/>
</a>
</g>
</g>
<!-- Node19&#45;&gt;Node15 -->
<g id="edge43_Node000019_Node000015" class="edge">
<title>Node19&#45;&gt;Node15</title>
<g id="a_edge43_Node000019_Node000015"><a xlink:title=" ">
<path fill="none" stroke="#63b8ff" d="M377.04,-363.9C391.12,-353.46 409.53,-339.81 423.32,-329.59"/>
<polygon fill="#63b8ff" stroke="#63b8ff" points="375.26,-360.86 369.31,-369.63 379.43,-366.49 375.26,-360.86"/>
</a>
</g>
</g>
<!-- Node20&#45;&gt;Node2 -->
<g id="edge49_Node000020_Node000002" class="edge">
<title>Node20&#45;&gt;Node2</title>
<g id="a_edge49_Node000020_Node000002"><a xlink:title=" ">
<path fill="none" stroke="#63b8ff" d="M284.05,-619.8C278.96,-589.91 268.84,-539.42 253,-498.25 236.64,-455.75 207.56,-409.52 195.02,-390.47"/>
<polygon fill="#63b8ff" stroke="#63b8ff" points="280.55,-620.1 285.62,-629.41 287.46,-618.97 280.55,-620.1"/>
</a>
</g>
</g>
<!-- Node20&#45;&gt;Node16 -->
<g id="edge50_Node000020_Node000016" class="edge">
<title>Node20&#45;&gt;Node16</title>
<g id="a_edge50_Node000020_Node000016"><a xlink:title=" ">
<path fill="none" stroke="#63b8ff" d="M273.75,-621.12C263.07,-604.12 247.36,-581.55 230,-564.75 212.32,-547.64 188.12,-532.61 172.04,-523.55"/>
<polygon fill="#63b8ff" stroke="#63b8ff" points="270.73,-622.89 278.93,-629.6 276.7,-619.24 270.73,-622.89"/>
</a>
</g>
</g>
<!-- Node20&#45;&gt;Node17 -->
<g id="edge51_Node000020_Node000017" class="edge">
<title>Node20&#45;&gt;Node17</title>
<g id="a_edge51_Node000020_Node000017"><a xlink:title=" ">
<path fill="none" stroke="#63b8ff" d="M302.14,-621.13C317.82,-594.09 342.62,-551.35 355.54,-529.08"/>
<polygon fill="#63b8ff" stroke="#63b8ff" points="299.17,-619.26 297.18,-629.67 305.23,-622.78 299.17,-619.26"/>
</a>
</g>
</g>
<!-- Node20&#45;&gt;Node21 -->
<g id="edge52_Node000020_Node000021" class="edge">
<title>Node20&#45;&gt;Node21</title>
<g id="a_edge52_Node000020_Node000021"><a xlink:title=" ">
<path fill="none" stroke="#63b8ff" d="M247.68,-625.95C227.53,-616.18 203.57,-604.56 185.06,-595.58"/>
<polygon fill="#63b8ff" stroke="#63b8ff" points="245.93,-628.99 256.46,-630.2 248.99,-622.69 245.93,-628.99"/>
</a>
</g>
</g>
<!-- Node21&#45;&gt;Node2 -->
<g id="edge53_Node000021_Node000002" class="edge">
<title>Node21&#45;&gt;Node2</title>
<g id="a_edge53_Node000021_Node000002"><a xlink:title=" ">
<path fill="none" stroke="#63b8ff" d="M91.89,-559.37C78.06,-552.01 65.14,-542.08 57,-528.75 49.93,-517.18 51.43,-510.61 57,-498.25 80.75,-445.53 141.38,-407.02 171.49,-390.47"/>
<polygon fill="#63b8ff" stroke="#63b8ff" points="90.17,-562.42 100.69,-563.62 93.21,-556.12 90.17,-562.42"/>
</a>
</g>
</g>
<!-- Node21&#45;&gt;Node16 -->
<g id="edge54_Node000021_Node000016" class="edge">
<title>Node21&#45;&gt;Node16</title>
<g id="a_edge54_Node000021_Node000016"><a xlink:title=" ">
<path fill="none" stroke="#63b8ff" d="M155,-553.09C155,-542.51 155,-531 155,-523.32"/>
<polygon fill="#63b8ff" stroke="#63b8ff" points="151.5,-552.85 155,-562.85 158.5,-552.85 151.5,-552.85"/>
</a>
</g>
</g>
<!-- Node21&#45;&gt;Node17 -->
<g id="edge55_Node000021_Node000017" class="edge">
<title>Node21&#45;&gt;Node17</title>
<g id="a_edge55_Node000021_Node000017"><a xlink:title=" ">
<path fill="none" stroke="#63b8ff" d="M213.41,-560.97C245.94,-550.93 285.93,-538.59 316.52,-529.15"/>
<polygon fill="#63b8ff" stroke="#63b8ff" points="212.66,-557.54 204.13,-563.84 214.72,-564.23 212.66,-557.54"/>
</a>
</g>
</g>
</g>
</svg>

<g id="navigator" transform="translate(0 0)" fill="#404254">
  <rect fill="#f2f5e9" fill-opacity="0.5" stroke="#606060" stroke-width=".5" x="0" y="0" width="60" height="60"/>
  <use id="zoomplus" xlink:href="#zoomPlus" x="17" y="9" onmousedown="handleZoom(evt,'in')"/>
  <use id="zoomminus" xlink:href="#zoomMin" x="42" y="9" onmousedown="handleZoom(evt,'out')"/>
  <use id="reset" xlink:href="#resetDef" x="30" y="36" onmousedown="handleReset()"/>
   <use id="arrowup" xlink:href="#arrowUp" x="0" y="0" onmousedown="handlePan(0,-1)"/>
  <use id="arrowright" xlink:href="#arrowRight" x="0" y="0" onmousedown="handlePan(1,0)"/>
  <use id="arrowdown" xlink:href="#arrowDown" x="0" y="0" onmousedown="handlePan(0,1)"/>
  <use id="arrowleft" xlink:href="#arrowLeft" x="0" y="0" onmousedown="handlePan(-1,0)"/>
</g>
<svg viewBox="0 0 15 15" width="100%" height="30px" preserveAspectRatio="xMaxYMin meet">
 <g id="arrow_out" transform="scale(0.3 0.3)">
  <a xlink:href="_sequence_report_8hpp__dep__incl_org.svg" target="_base">
   <rect id="button" ry="5" rx="5" y="6" x="6" height="38" width="38"
        fill="#f2f5e9" fill-opacity="0.5" stroke="#606060" stroke-width="1.0"/>
   <path id="arrow"
     d="M 11.500037,31.436501 C 11.940474,20.09759 22.043105,11.32322 32.158766,21.979434 L 37.068811,17.246167 C 37.068811,17.246167 37.088388,32 37.088388,32 L 22.160133,31.978069 C 22.160133,31.978069 26.997745,27.140456 26.997745,27.140456 C 18.528582,18.264221 13.291696,25.230495 11.500037,31.436501 z"
     style="fill:#404040;"/>
  </a>
 </g>
</svg>

<style type='text/css'>
<![CDATA[
[data-mouse-over-selected='false'] { opacity: 0.7; }
[data-mouse-over-selected='true']  { opacity: 1.0; }
]]>
</style>
<script type="application/ecmascript"><![CDATA[
document.addEventListener('DOMContentLoaded', (event) => {
  highlightEdges();
  highlightAdjacentNodes();
});
]]></script>
</svg>
