<?xml version="1.0" encoding="UTF-8" standalone="no"?>
<!DOCTYPE svg PUBLIC "-//W3C//DTD SVG 1.1//EN"
 "http://www.w3.org/Graphics/SVG/1.1/DTD/svg11.dtd">
<!-- Generated by graphviz version 12.2.1 (20241206.2353)
 -->
<!-- Title: mimic++/reporting/SequenceReport.hpp Pages: 1 -->
<svg width="744pt" height="714pt"
 viewBox="0.00 0.00 744.45 713.75" xmlns="http://www.w3.org/2000/svg" xmlns:xlink="http://www.w3.org/1999/xlink">
<g id="graph0" class="graph" transform="scale(1 1) rotate(0) translate(4 709.75)">
<title>mimic++/reporting/SequenceReport.hpp</title>
<!-- Node1 -->
<g id="Node000001" class="node">
<title>Node1</title>
<g id="a_Node000001"><a xlink:title=" ">
<polygon fill="#999999" stroke="#666666" points="369.07,-705.75 227.82,-705.75 227.82,-675.25 369.07,-675.25 369.07,-705.75"/>
<text text-anchor="start" x="235.82" y="-692.25" font-family="Helvetica,sans-Serif" font-size="10.00">mimic++/reporting/Sequence</text>
<text text-anchor="middle" x="298.45" y="-681" font-family="Helvetica,sans-Serif" font-size="10.00">Report.hpp</text>
</a>
</g>
</g>
<!-- Node2 -->
<g id="Node000002" class="node">
<title>Node2</title>
<g id="a_Node000002"><a xlink:href="../../d7/deb/_reporting_8hpp.html" target="_top" xlink:title=" ">
<polygon fill="white" stroke="#666666" points="540.7,-306.75 424.2,-306.75 424.2,-287.5 540.7,-287.5 540.7,-306.75"/>
<text text-anchor="middle" x="482.45" y="-293.25" font-family="Helvetica,sans-Serif" font-size="10.00">mimic++/Reporting.hpp</text>
</a>
</g>
</g>
<!-- Node1&#45;&gt;Node2 -->
<g id="edge1_Node000001_Node000002" class="edge">
<title>Node1&#45;&gt;Node2</title>
<g id="a_edge1_Node000001_Node000002"><a xlink:title=" ">
<path fill="none" stroke="#63b8ff" d="M380.5,-681.84C507.31,-667.7 736.45,-631.98 736.45,-558.5 736.45,-558.5 736.45,-558.5 736.45,-423.5 736.45,-336.83 616.05,-310.07 541.04,-301.81"/>
<polygon fill="#63b8ff" stroke="#63b8ff" points="380.37,-678.33 370.81,-682.9 381.13,-685.29 380.37,-678.33"/>
</a>
</g>
</g>
<!-- Node4 -->
<g id="Node000004" class="node">
<title>Node4</title>
<g id="a_Node000004"><a xlink:href="../../db/d70/_control_policies_8hpp.html" target="_top" xlink:title=" ">
<polygon fill="white" stroke="#666666" points="164.45,-251.5 40.45,-251.5 40.45,-221 164.45,-221 164.45,-251.5"/>
<text text-anchor="start" x="48.45" y="-238" font-family="Helvetica,sans-Serif" font-size="10.00">mimic++/policies/Control</text>
<text text-anchor="middle" x="102.45" y="-226.75" font-family="Helvetica,sans-Serif" font-size="10.00">Policies.hpp</text>
</a>
</g>
</g>
<!-- Node1&#45;&gt;Node4 -->
<g id="edge3_Node000001_Node000004" class="edge">
<title>Node1&#45;&gt;Node4</title>
<g id="a_edge3_Node000001_Node000004"><a xlink:title=" ">
<path fill="none" stroke="#63b8ff" d="M231.8,-671.17C179.84,-652.34 116.45,-617.32 116.45,-558.5 116.45,-558.5 116.45,-558.5 116.45,-357 116.45,-318.9 109.37,-274.45 105.28,-251.93"/>
<polygon fill="#63b8ff" stroke="#63b8ff" points="230.33,-674.36 240.92,-674.33 232.63,-667.75 230.33,-674.36"/>
</a>
</g>
</g>
<!-- Node10 -->
<g id="Node000010" class="node">
<title>Node10</title>
<g id="a_Node000010"><a xlink:href="../../dd/d76/_expectation_report_8hpp.html" target="_top" xlink:title=" ">
<polygon fill="white" stroke="#666666" points="372.45,-639.25 224.45,-639.25 224.45,-608.75 372.45,-608.75 372.45,-639.25"/>
<text text-anchor="start" x="232.45" y="-625.75" font-family="Helvetica,sans-Serif" font-size="10.00">mimic++/reporting/Expectation</text>
<text text-anchor="middle" x="298.45" y="-614.5" font-family="Helvetica,sans-Serif" font-size="10.00">Report.hpp</text>
</a>
</g>
</g>
<!-- Node1&#45;&gt;Node10 -->
<g id="edge15_Node000001_Node000010" class="edge">
<title>Node1&#45;&gt;Node10</title>
<g id="a_edge15_Node000001_Node000010"><a xlink:title=" ">
<path fill="none" stroke="#63b8ff" d="M298.45,-663.56C298.45,-655.39 298.45,-646.66 298.45,-639.58"/>
<polygon fill="#63b8ff" stroke="#63b8ff" points="294.95,-663.35 298.45,-673.35 301.95,-663.35 294.95,-663.35"/>
</a>
</g>
</g>
<!-- Node3 -->
<g id="Node000003" class="node">
<title>Node3</title>
<g id="a_Node000003"><a xlink:href="../../d0/db9/mimic_09_09_8hpp.html" target="_top" xlink:title=" ">
<polygon fill="white" stroke="#666666" points="299.2,-19.25 185.7,-19.25 185.7,0 299.2,0 299.2,-19.25"/>
<text text-anchor="middle" x="242.45" y="-5.75" font-family="Helvetica,sans-Serif" font-size="10.00">mimic++/mimic++.hpp</text>
</a>
</g>
</g>
<!-- Node2&#45;&gt;Node3 -->
<g id="edge2_Node000002_Node000003" class="edge">
<title>Node2&#45;&gt;Node3</title>
<g id="a_edge2_Node000002_Node000003"><a xlink:title=" ">
<path fill="none" stroke="#63b8ff" d="M483.81,-275.76C485.29,-251.93 487.45,-211.31 487.45,-176.38 487.45,-176.38 487.45,-176.38 487.45,-119.12 487.45,-37.37 371.97,-16.73 299.58,-11.82"/>
<polygon fill="#63b8ff" stroke="#63b8ff" points="480.33,-275.4 483.18,-285.61 487.32,-275.85 480.33,-275.4"/>
</a>
</g>
</g>
<!-- Node4&#45;&gt;Node3 -->
<g id="edge14_Node000004_Node000003" class="edge">
<title>Node4&#45;&gt;Node3</title>
<g id="a_edge14_Node000004_Node000003"><a xlink:title=" ">
<path fill="none" stroke="#63b8ff" d="M76.54,-213.15C37.51,-177.23 -27.67,-105.15 13.45,-55.25 34.82,-29.3 124.76,-18.24 185.36,-13.67"/>
<polygon fill="#63b8ff" stroke="#63b8ff" points="73.99,-215.57 83.77,-219.65 78.67,-210.36 73.99,-215.57"/>
</a>
</g>
</g>
<!-- Node5 -->
<g id="Node000005" class="node">
<title>Node5</title>
<g id="a_Node000005"><a xlink:href="../../d2/d4f/_expectation_builder_8hpp.html" target="_top" xlink:title=" ">
<polygon fill="white" stroke="#666666" points="317.2,-185 161.7,-185 161.7,-165.75 317.2,-165.75 317.2,-185"/>
<text text-anchor="middle" x="239.45" y="-171.5" font-family="Helvetica,sans-Serif" font-size="10.00">mimic++/ExpectationBuilder.hpp</text>
</a>
</g>
</g>
<!-- Node4&#45;&gt;Node5 -->
<g id="edge4_Node000004_Node000005" class="edge">
<title>Node4&#45;&gt;Node5</title>
<g id="a_edge4_Node000004_Node000005"><a xlink:title=" ">
<path fill="none" stroke="#63b8ff" d="M146.98,-216.11C170.99,-205.8 199.48,-193.55 218.44,-185.4"/>
<polygon fill="#63b8ff" stroke="#63b8ff" points="145.86,-212.78 138.05,-219.95 148.62,-219.21 145.86,-212.78"/>
</a>
</g>
</g>
<!-- Node5&#45;&gt;Node3 -->
<g id="edge13_Node000005_Node000003" class="edge">
<title>Node5&#45;&gt;Node3</title>
<g id="a_edge13_Node000005_Node000003"><a xlink:title=" ">
<path fill="none" stroke="#63b8ff" d="M242.2,-154.57C244.93,-140.97 250.25,-123.17 260.45,-110.5 280.18,-85.98 305.84,-101.84 321.45,-74.5 335.79,-49.38 299.33,-30.23 271.28,-19.71"/>
<polygon fill="#63b8ff" stroke="#63b8ff" points="238.8,-153.66 240.61,-164.11 245.71,-154.82 238.8,-153.66"/>
</a>
</g>
</g>
<!-- Node6 -->
<g id="Node000006" class="node">
<title>Node6</title>
<g id="a_Node000006"><a xlink:href="../../d5/dc5/_mock_8hpp.html" target="_top" xlink:title=" ">
<polygon fill="white" stroke="#666666" points="183.07,-129.75 83.82,-129.75 83.82,-110.5 183.07,-110.5 183.07,-129.75"/>
<text text-anchor="middle" x="133.45" y="-116.25" font-family="Helvetica,sans-Serif" font-size="10.00">mimic++/Mock.hpp</text>
</a>
</g>
</g>
<!-- Node5&#45;&gt;Node6 -->
<g id="edge5_Node000005_Node000006" class="edge">
<title>Node5&#45;&gt;Node6</title>
<g id="a_edge5_Node000005_Node000006"><a xlink:title=" ">
<path fill="none" stroke="#63b8ff" d="M211.31,-160.24C192.36,-150.72 167.91,-138.44 151.52,-130.2"/>
<polygon fill="#63b8ff" stroke="#63b8ff" points="209.6,-163.3 220.11,-164.66 212.75,-157.05 209.6,-163.3"/>
</a>
</g>
</g>
<!-- Node9 -->
<g id="Node000009" class="node">
<title>Node9</title>
<g id="a_Node000009"><a xlink:href="../../db/d83/_scoped_sequence_8hpp.html" target="_top" xlink:title=" ">
<polygon fill="white" stroke="#666666" points="421.32,-129.75 269.57,-129.75 269.57,-110.5 421.32,-110.5 421.32,-129.75"/>
<text text-anchor="middle" x="345.45" y="-116.25" font-family="Helvetica,sans-Serif" font-size="10.00">mimic++/ScopedSequence.hpp</text>
</a>
</g>
</g>
<!-- Node5&#45;&gt;Node9 -->
<g id="edge11_Node000005_Node000009" class="edge">
<title>Node5&#45;&gt;Node9</title>
<g id="a_edge11_Node000005_Node000009"><a xlink:title=" ">
<path fill="none" stroke="#63b8ff" d="M267.58,-160.24C286.53,-150.72 310.98,-138.44 327.38,-130.2"/>
<polygon fill="#63b8ff" stroke="#63b8ff" points="266.14,-157.05 258.78,-164.66 269.29,-163.3 266.14,-157.05"/>
</a>
</g>
</g>
<!-- Node6&#45;&gt;Node3 -->
<g id="edge10_Node000006_Node000003" class="edge">
<title>Node6&#45;&gt;Node3</title>
<g id="a_edge10_Node000006_Node000003"><a xlink:title=" ">
<path fill="none" stroke="#63b8ff" d="M85.64,-106.59C53.12,-95.69 19.05,-78.08 37.45,-55.25 55.73,-32.56 131.24,-20.8 185.29,-15.17"/>
<polygon fill="#63b8ff" stroke="#63b8ff" points="84.5,-109.9 95.09,-109.57 86.61,-103.22 84.5,-109.9"/>
</a>
</g>
</g>
<!-- Node7 -->
<g id="Node000007" class="node">
<title>Node7</title>
<g id="a_Node000007"><a xlink:href="../../d6/dc3/_facade_8hpp.html" target="_top" xlink:title=" ">
<polygon fill="white" stroke="#666666" points="154.2,-74.5 46.7,-74.5 46.7,-55.25 154.2,-55.25 154.2,-74.5"/>
<text text-anchor="middle" x="100.45" y="-61" font-family="Helvetica,sans-Serif" font-size="10.00">mimic++/Facade.hpp</text>
</a>
</g>
</g>
<!-- Node6&#45;&gt;Node7 -->
<g id="edge6_Node000006_Node000007" class="edge">
<title>Node6&#45;&gt;Node7</title>
<g id="a_edge6_Node000006_Node000007"><a xlink:title=" ">
<path fill="none" stroke="#63b8ff" d="M121.98,-100.62C116.57,-91.89 110.37,-81.89 106.01,-74.86"/>
<polygon fill="#63b8ff" stroke="#63b8ff" points="118.96,-102.39 127.2,-109.05 124.91,-98.7 118.96,-102.39"/>
</a>
</g>
</g>
<!-- Node8 -->
<g id="Node000008" class="node">
<title>Node8</title>
<g id="a_Node000008"><a xlink:href="../../d5/d92/_object_watcher_8hpp.html" target="_top" xlink:title=" ">
<polygon fill="white" stroke="#666666" points="312.32,-74.5 172.57,-74.5 172.57,-55.25 312.32,-55.25 312.32,-74.5"/>
<text text-anchor="middle" x="242.45" y="-61" font-family="Helvetica,sans-Serif" font-size="10.00">mimic++/ObjectWatcher.hpp</text>
</a>
</g>
</g>
<!-- Node6&#45;&gt;Node8 -->
<g id="edge8_Node000006_Node000008" class="edge">
<title>Node6&#45;&gt;Node8</title>
<g id="a_edge8_Node000006_Node000008"><a xlink:title=" ">
<path fill="none" stroke="#63b8ff" d="M162.1,-105.12C181.63,-95.58 206.92,-83.23 223.86,-74.95"/>
<polygon fill="#63b8ff" stroke="#63b8ff" points="160.74,-101.89 153.3,-109.43 163.82,-108.18 160.74,-101.89"/>
</a>
</g>
</g>
<!-- Node7&#45;&gt;Node3 -->
<g id="edge7_Node000007_Node000003" class="edge">
<title>Node7&#45;&gt;Node3</title>
<g id="a_edge7_Node000007_Node000003"><a xlink:title=" ">
<path fill="none" stroke="#63b8ff" d="M134.98,-50.92C160.77,-41.25 195.35,-28.29 218.24,-19.7"/>
<polygon fill="#63b8ff" stroke="#63b8ff" points="134.09,-47.52 125.95,-54.31 136.54,-54.08 134.09,-47.52"/>
</a>
</g>
</g>
<!-- Node8&#45;&gt;Node3 -->
<g id="edge9_Node000008_Node000003" class="edge">
<title>Node8&#45;&gt;Node3</title>
<g id="a_edge9_Node000008_Node000003"><a xlink:title=" ">
<path fill="none" stroke="#63b8ff" d="M242.45,-43.63C242.45,-35.34 242.45,-26.17 242.45,-19.61"/>
<polygon fill="#63b8ff" stroke="#63b8ff" points="238.95,-43.57 242.45,-53.57 245.95,-43.57 238.95,-43.57"/>
</a>
</g>
</g>
<!-- Node9&#45;&gt;Node3 -->
<g id="edge12_Node000009_Node000003" class="edge">
<title>Node9&#45;&gt;Node3</title>
<g id="a_edge12_Node000009_Node000003"><a xlink:title=" ">
<path fill="none" stroke="#63b8ff" d="M354.65,-99.88C359.69,-86.31 363.29,-68.3 354.45,-55.25 341.94,-36.8 320.45,-25.98 299.62,-19.63"/>
<polygon fill="#63b8ff" stroke="#63b8ff" points="351.45,-98.47 350.73,-109.04 357.88,-101.22 351.45,-98.47"/>
</a>
</g>
</g>
<!-- Node10&#45;&gt;Node2 -->
<g id="edge21_Node000010_Node000002" class="edge">
<title>Node10&#45;&gt;Node2</title>
<g id="a_edge21_Node000010_Node000002"><a xlink:title=" ">
<path fill="none" stroke="#63b8ff" d="M383.86,-612.52C501.34,-595.69 698.45,-557.66 698.45,-492 698.45,-492 698.45,-492 698.45,-423.5 698.45,-350.55 605.14,-319.33 541.18,-306.5"/>
<polygon fill="#63b8ff" stroke="#63b8ff" points="383.66,-609.02 374.24,-613.88 384.63,-615.95 383.66,-609.02"/>
</a>
</g>
</g>
<!-- Node10&#45;&gt;Node4 -->
<g id="edge22_Node000010_Node000004" class="edge">
<title>Node10&#45;&gt;Node4</title>
<g id="a_edge22_Node000010_Node000004"><a xlink:title=" ">
<path fill="none" stroke="#63b8ff" d="M252.68,-603.27C211.84,-582.22 158.45,-544.63 158.45,-492 158.45,-492 158.45,-492 158.45,-357 158.45,-315.69 130.76,-273.27 114.32,-251.72"/>
<polygon fill="#63b8ff" stroke="#63b8ff" points="250.89,-606.28 261.4,-607.59 254,-600.01 250.89,-606.28"/>
</a>
</g>
</g>
<!-- Node11 -->
<g id="Node000011" class="node">
<title>Node11</title>
<g id="a_Node000011"><a xlink:href="../../d5/d8a/_expectation_8hpp.html" target="_top" xlink:title=" ">
<polygon fill="white" stroke="#666666" points="308.2,-245.88 182.7,-245.88 182.7,-226.62 308.2,-226.62 308.2,-245.88"/>
<text text-anchor="middle" x="245.45" y="-232.38" font-family="Helvetica,sans-Serif" font-size="10.00">mimic++/Expectation.hpp</text>
</a>
</g>
</g>
<!-- Node10&#45;&gt;Node11 -->
<g id="edge16_Node000010_Node000011" class="edge">
<title>Node10&#45;&gt;Node11</title>
<g id="a_edge16_Node000010_Node000011"><a xlink:title=" ">
<path fill="none" stroke="#63b8ff" d="M269.64,-601.58C241.69,-578.09 203.45,-537.63 203.45,-492 203.45,-492 203.45,-492 203.45,-357 203.45,-313.38 228.57,-265.6 239.95,-246.19"/>
<polygon fill="#63b8ff" stroke="#63b8ff" points="267.15,-604.06 277.12,-607.64 271.56,-598.62 267.15,-604.06"/>
</a>
</g>
</g>
<!-- Node12 -->
<g id="Node000012" class="node">
<title>Node12</title>
<g id="a_Node000012"><a xlink:href="../../d1/dfd/_basic_reporter_8hpp.html" target="_top" xlink:title=" ">
<polygon fill="white" stroke="#666666" points="670.07,-434.12 492.82,-434.12 492.82,-414.88 670.07,-414.88 670.07,-434.12"/>
<text text-anchor="middle" x="581.45" y="-420.62" font-family="Helvetica,sans-Serif" font-size="10.00">mimic++/reporting/BasicReporter.hpp</text>
</a>
</g>
</g>
<!-- Node10&#45;&gt;Node12 -->
<g id="edge23_Node000010_Node000012" class="edge">
<title>Node10&#45;&gt;Node12</title>
<g id="a_edge23_Node000010_Node000012"><a xlink:title=" ">
<path fill="none" stroke="#63b8ff" d="M383.54,-612.49C419.18,-605.26 459.81,-593.11 492.45,-572.75 545.92,-539.39 571.71,-460.99 579.12,-434.46"/>
<polygon fill="#63b8ff" stroke="#63b8ff" points="383.31,-608.97 374.15,-614.29 384.63,-615.84 383.31,-608.97"/>
</a>
</g>
</g>
<!-- Node13 -->
<g id="Node000013" class="node">
<title>Node13</title>
<g id="a_Node000013"><a xlink:href="../../d0/d70/_default_reporter_8hpp.html" target="_top" xlink:title=" ">
<polygon fill="white" stroke="#666666" points="397.7,-439.75 269.2,-439.75 269.2,-409.25 397.7,-409.25 397.7,-439.75"/>
<text text-anchor="start" x="277.2" y="-426.25" font-family="Helvetica,sans-Serif" font-size="10.00">mimic++/reporting/Default</text>
<text text-anchor="middle" x="333.45" y="-415" font-family="Helvetica,sans-Serif" font-size="10.00">Reporter.hpp</text>
</a>
</g>
</g>
<!-- Node10&#45;&gt;Node13 -->
<g id="edge25_Node000010_Node000013" class="edge">
<title>Node10&#45;&gt;Node13</title>
<g id="a_edge25_Node000010_Node000013"><a xlink:title=" ">
<path fill="none" stroke="#63b8ff" d="M303.01,-597.06C308.18,-567.64 316.89,-518.24 324.45,-475.75 326.59,-463.71 329.03,-450.05 330.84,-440.01"/>
<polygon fill="#63b8ff" stroke="#63b8ff" points="299.56,-596.42 301.28,-606.88 306.46,-597.63 299.56,-596.42"/>
</a>
</g>
</g>
<!-- Node14 -->
<g id="Node000014" class="node">
<title>Node14</title>
<g id="a_Node000014"><a xlink:href="../../de/dd1/_global_reporter_8hpp.html" target="_top" xlink:title=" ">
<polygon fill="white" stroke="#666666" points="360.2,-373.25 234.7,-373.25 234.7,-342.75 360.2,-342.75 360.2,-373.25"/>
<text text-anchor="start" x="242.7" y="-359.75" font-family="Helvetica,sans-Serif" font-size="10.00">mimic++/reporting/Global</text>
<text text-anchor="middle" x="297.45" y="-348.5" font-family="Helvetica,sans-Serif" font-size="10.00">Reporter.hpp</text>
</a>
</g>
</g>
<!-- Node10&#45;&gt;Node14 -->
<g id="edge36_Node000010_Node000014" class="edge">
<title>Node10&#45;&gt;Node14</title>
<g id="a_edge36_Node000010_Node000014"><a xlink:title=" ">
<path fill="none" stroke="#63b8ff" d="M286.31,-598.15C268.25,-557.71 238.68,-475.53 260.45,-409.25 264.91,-395.66 274.61,-382.73 282.95,-373.38"/>
<polygon fill="#63b8ff" stroke="#63b8ff" points="283.03,-599.41 290.41,-607.02 289.39,-596.48 283.03,-599.41"/>
</a>
</g>
</g>
<!-- Node16 -->
<g id="Node000016" class="node">
<title>Node16</title>
<g id="a_Node000016"><a xlink:href="../../de/d3f/_no_match_report_8hpp.html" target="_top" xlink:title=" ">
<polygon fill="white" stroke="#666666" points="483.2,-572.75 345.7,-572.75 345.7,-542.25 483.2,-542.25 483.2,-572.75"/>
<text text-anchor="start" x="353.7" y="-559.25" font-family="Helvetica,sans-Serif" font-size="10.00">mimic++/reporting/NoMatch</text>
<text text-anchor="middle" x="414.45" y="-548" font-family="Helvetica,sans-Serif" font-size="10.00">Report.hpp</text>
</a>
</g>
</g>
<!-- Node10&#45;&gt;Node16 -->
<g id="edge37_Node000010_Node000016" class="edge">
<title>Node10&#45;&gt;Node16</title>
<g id="a_edge37_Node000010_Node000016"><a xlink:title=" ">
<path fill="none" stroke="#63b8ff" d="M334.58,-602.91C351.95,-593.25 372.38,-581.89 388.23,-573.08"/>
<polygon fill="#63b8ff" stroke="#63b8ff" points="333.13,-599.71 326.09,-607.63 336.53,-605.83 333.13,-599.71"/>
</a>
</g>
</g>
<!-- Node17 -->
<g id="Node000017" class="node">
<title>Node17</title>
<g id="a_Node000017"><a xlink:href="../../d9/d70/_stringify_reports_8hpp.html" target="_top" xlink:title=" ">
<polygon fill="white" stroke="#666666" points="478.95,-506.25 345.95,-506.25 345.95,-475.75 478.95,-475.75 478.95,-506.25"/>
<text text-anchor="start" x="353.95" y="-492.75" font-family="Helvetica,sans-Serif" font-size="10.00">mimic++/reporting/Stringify</text>
<text text-anchor="middle" x="412.45" y="-481.5" font-family="Helvetica,sans-Serif" font-size="10.00">Reports.hpp</text>
</a>
</g>
</g>
<!-- Node10&#45;&gt;Node17 -->
<g id="edge45_Node000010_Node000017" class="edge">
<title>Node10&#45;&gt;Node17</title>
<g id="a_edge45_Node000010_Node000017"><a xlink:title=" ">
<path fill="none" stroke="#63b8ff" d="M306.29,-597.7C312.49,-580.66 322.44,-558.43 336.45,-542.25 349.17,-527.54 367.22,-515.36 382.53,-506.68"/>
<polygon fill="#63b8ff" stroke="#63b8ff" points="303,-596.5 303.08,-607.1 309.63,-598.76 303,-596.5"/>
</a>
</g>
</g>
<!-- Node11&#45;&gt;Node3 -->
<g id="edge20_Node000011_Node000003" class="edge">
<title>Node11&#45;&gt;Node3</title>
<g id="a_edge20_Node000011_Node000003"><a xlink:title=" ">
<path fill="none" stroke="#63b8ff" d="M205.43,-222.53C127.45,-195.73 -32.11,-129.73 28.45,-55.25 47.9,-31.32 128.88,-19.79 185.44,-14.56"/>
<polygon fill="#63b8ff" stroke="#63b8ff" points="204.27,-225.84 214.87,-225.72 206.51,-219.2 204.27,-225.84"/>
</a>
</g>
</g>
<!-- Node11&#45;&gt;Node5 -->
<g id="edge17_Node000011_Node000005" class="edge">
<title>Node11&#45;&gt;Node5</title>
<g id="a_edge17_Node000011_Node000005"><a xlink:title=" ">
<path fill="none" stroke="#63b8ff" d="M243.4,-215.16C242.37,-205.05 241.17,-193.3 240.37,-185.4"/>
<polygon fill="#63b8ff" stroke="#63b8ff" points="239.88,-215.21 244.38,-224.8 246.85,-214.5 239.88,-215.21"/>
</a>
</g>
</g>
<!-- Node11&#45;&gt;Node6 -->
<g id="edge18_Node000011_Node000006" class="edge">
<title>Node11&#45;&gt;Node6</title>
<g id="a_edge18_Node000011_Node000006"><a xlink:title=" ">
<path fill="none" stroke="#63b8ff" d="M205.74,-221.98C187.17,-213.94 166.18,-201.91 152.45,-185 139.17,-168.66 135.17,-143.27 133.96,-129.95"/>
<polygon fill="#63b8ff" stroke="#63b8ff" points="204.33,-225.19 214.92,-225.7 206.96,-218.7 204.33,-225.19"/>
</a>
</g>
</g>
<!-- Node11&#45;&gt;Node9 -->
<g id="edge19_Node000011_Node000009" class="edge">
<title>Node11&#45;&gt;Node9</title>
<g id="a_edge19_Node000011_Node000009"><a xlink:title=" ">
<path fill="none" stroke="#63b8ff" d="M279.29,-221.26C295.66,-212.93 314.33,-200.86 326.45,-185 339.23,-168.27 343.44,-143.04 344.8,-129.86"/>
<polygon fill="#63b8ff" stroke="#63b8ff" points="277.84,-218.07 270.33,-225.54 280.86,-224.39 277.84,-218.07"/>
</a>
</g>
</g>
<!-- Node12&#45;&gt;Node2 -->
<g id="edge24_Node000012_Node000002" class="edge">
<title>Node12&#45;&gt;Node2</title>
<g id="a_edge24_Node000012_Node000002"><a xlink:title=" ">
<path fill="none" stroke="#63b8ff" d="M567.33,-405.62C545.84,-378.41 505.71,-327.58 489.5,-307.06"/>
<polygon fill="#63b8ff" stroke="#63b8ff" points="564.44,-407.62 573.39,-413.3 569.94,-403.28 564.44,-407.62"/>
</a>
</g>
</g>
<!-- Node13&#45;&gt;Node2 -->
<g id="edge26_Node000013_Node000002" class="edge">
<title>Node13&#45;&gt;Node2</title>
<g id="a_edge26_Node000013_Node000002"><a xlink:title=" ">
<path fill="none" stroke="#63b8ff" d="M353.29,-400.54C368.55,-383.57 390.66,-360.44 412.45,-342.75 429.56,-328.85 451.22,-315.63 465.88,-307.23"/>
<polygon fill="#63b8ff" stroke="#63b8ff" points="350.99,-397.86 346.97,-407.66 356.22,-402.51 350.99,-397.86"/>
</a>
</g>
</g>
<!-- Node13&#45;&gt;Node14 -->
<g id="edge27_Node000013_Node000014" class="edge">
<title>Node13&#45;&gt;Node14</title>
<g id="a_edge27_Node000013_Node000014"><a xlink:title=" ">
<path fill="none" stroke="#63b8ff" d="M319.76,-398.98C314.98,-390.41 309.77,-381.07 305.58,-373.58"/>
<polygon fill="#63b8ff" stroke="#63b8ff" points="316.61,-400.52 324.54,-407.54 322.72,-397.1 316.61,-400.52"/>
</a>
</g>
</g>
<!-- Node14&#45;&gt;Node2 -->
<g id="edge29_Node000014_Node000002" class="edge">
<title>Node14&#45;&gt;Node2</title>
<g id="a_edge29_Node000014_Node000002"><a xlink:title=" ">
<path fill="none" stroke="#63b8ff" d="M354.51,-338.84C387.43,-328.36 427.4,-315.64 453.8,-307.24"/>
<polygon fill="#63b8ff" stroke="#63b8ff" points="353.56,-335.47 345.09,-341.84 355.68,-342.14 353.56,-335.47"/>
</a>
</g>
</g>
<!-- Node14&#45;&gt;Node11 -->
<g id="edge28_Node000014_Node000011" class="edge">
<title>Node14&#45;&gt;Node11</title>
<g id="a_edge28_Node000014_Node000011"><a xlink:title=" ">
<path fill="none" stroke="#63b8ff" d="M281.57,-332.98C276.62,-324.86 271.43,-315.61 267.45,-306.75 258,-285.74 250.87,-259.48 247.53,-246.05"/>
<polygon fill="#63b8ff" stroke="#63b8ff" points="278.49,-334.66 286.78,-341.25 284.41,-330.93 278.49,-334.66"/>
</a>
</g>
</g>
<!-- Node15 -->
<g id="Node000015" class="node">
<title>Node15</title>
<g id="a_Node000015"><a xlink:href="../../d8/de4/_sequence_8hpp.html" target="_top" xlink:title=" ">
<polygon fill="white" stroke="#666666" points="394.82,-306.75 276.07,-306.75 276.07,-287.5 394.82,-287.5 394.82,-306.75"/>
<text text-anchor="middle" x="335.45" y="-293.25" font-family="Helvetica,sans-Serif" font-size="10.00">mimic++/Sequence.hpp</text>
</a>
</g>
</g>
<!-- Node14&#45;&gt;Node15 -->
<g id="edge30_Node000014_Node000015" class="edge">
<title>Node14&#45;&gt;Node15</title>
<g id="a_edge30_Node000014_Node000015"><a xlink:title=" ">
<path fill="none" stroke="#63b8ff" d="M312.92,-333.03C318.79,-323.92 325.13,-314.1 329.59,-307.2"/>
<polygon fill="#63b8ff" stroke="#63b8ff" points="310.14,-330.88 307.66,-341.17 316.02,-334.67 310.14,-330.88"/>
</a>
</g>
</g>
<!-- Node15&#45;&gt;Node3 -->
<g id="edge34_Node000015_Node000003" class="edge">
<title>Node15&#45;&gt;Node3</title>
<g id="a_edge34_Node000015_Node000003"><a xlink:title=" ">
<path fill="none" stroke="#63b8ff" d="M364.37,-281.77C398.14,-262.72 449.45,-225.67 449.45,-176.38 449.45,-176.38 449.45,-176.38 449.45,-119.12 449.45,-51.16 360.83,-25.69 299.56,-16.19"/>
<polygon fill="#63b8ff" stroke="#63b8ff" points="362.99,-278.53 355.86,-286.37 366.32,-284.69 362.99,-278.53"/>
</a>
</g>
</g>
<!-- Node15&#45;&gt;Node4 -->
<g id="edge35_Node000015_Node000004" class="edge">
<title>Node15&#45;&gt;Node4</title>
<g id="a_edge35_Node000015_Node000004"><a xlink:title=" ">
<path fill="none" stroke="#63b8ff" d="M288.61,-284.29C251.73,-274.97 200.12,-261.93 160.6,-251.94"/>
<polygon fill="#63b8ff" stroke="#63b8ff" points="287.53,-287.63 298.08,-286.68 289.24,-280.84 287.53,-287.63"/>
</a>
</g>
</g>
<!-- Node15&#45;&gt;Node5 -->
<g id="edge32_Node000015_Node000005" class="edge">
<title>Node15&#45;&gt;Node5</title>
<g id="a_edge32_Node000015_Node000005"><a xlink:title=" ">
<path fill="none" stroke="#63b8ff" d="M334.9,-275.89C333.52,-259.62 329.38,-236.92 317.45,-221 304.72,-204.02 283.5,-192.49 266.41,-185.41"/>
<polygon fill="#63b8ff" stroke="#63b8ff" points="331.4,-276 335.43,-285.8 338.39,-275.63 331.4,-276"/>
</a>
</g>
</g>
<!-- Node15&#45;&gt;Node9 -->
<g id="edge33_Node000015_Node000009" class="edge">
<title>Node15&#45;&gt;Node9</title>
<g id="a_edge33_Node000015_Node000009"><a xlink:title=" ">
<path fill="none" stroke="#63b8ff" d="M337.81,-275.96C340.29,-253.72 344.01,-216.87 345.45,-185 346.32,-165.5 345.99,-142.62 345.7,-130.23"/>
<polygon fill="#63b8ff" stroke="#63b8ff" points="334.35,-275.38 336.69,-285.71 341.31,-276.17 334.35,-275.38"/>
</a>
</g>
</g>
<!-- Node15&#45;&gt;Node11 -->
<g id="edge31_Node000015_Node000011" class="edge">
<title>Node15&#45;&gt;Node11</title>
<g id="a_edge31_Node000015_Node000011"><a xlink:title=" ">
<path fill="none" stroke="#63b8ff" d="M312.61,-281.18C295.78,-270.17 273.43,-255.56 259.24,-246.28"/>
<polygon fill="#63b8ff" stroke="#63b8ff" points="310.23,-283.81 320.51,-286.35 314.06,-277.95 310.23,-283.81"/>
</a>
</g>
</g>
<!-- Node16&#45;&gt;Node2 -->
<g id="edge38_Node000016_Node000002" class="edge">
<title>Node16&#45;&gt;Node2</title>
<g id="a_edge38_Node000016_Node000002"><a xlink:title=" ">
<path fill="none" stroke="#63b8ff" d="M459.25,-536.05C470.85,-528.44 481.91,-518.58 488.45,-506.25 494.79,-494.27 489.38,-489.27 488.45,-475.75 487.33,-459.63 484.62,-455.86 483.45,-439.75 479.81,-389.72 481.33,-329.49 482.1,-307.09"/>
<polygon fill="#63b8ff" stroke="#63b8ff" points="457.53,-533 450.75,-541.14 461.13,-539.01 457.53,-533"/>
</a>
</g>
</g>
<!-- Node16&#45;&gt;Node12 -->
<g id="edge39_Node000016_Node000012" class="edge">
<title>Node16&#45;&gt;Node12</title>
<g id="a_edge39_Node000016_Node000012"><a xlink:title=" ">
<path fill="none" stroke="#63b8ff" d="M468.27,-537.41C486.29,-529.46 505.77,-519.06 521.45,-506.25 547.27,-485.13 567.96,-450.58 576.8,-434.39"/>
<polygon fill="#63b8ff" stroke="#63b8ff" points="467.1,-534.1 459.25,-541.21 469.83,-540.55 467.1,-534.1"/>
</a>
</g>
</g>
<!-- Node16&#45;&gt;Node13 -->
<g id="edge40_Node000016_Node000013" class="edge">
<title>Node16&#45;&gt;Node13</title>
<g id="a_edge40_Node000016_Node000013"><a xlink:title=" ">
<path fill="none" stroke="#63b8ff" d="M368.31,-536.22C356.22,-528.61 344.59,-518.7 337.45,-506.25 325.64,-485.68 327.68,-457.08 330.43,-440.01"/>
<polygon fill="#63b8ff" stroke="#63b8ff" points="366.3,-539.1 376.71,-541.08 369.8,-533.04 366.3,-539.1"/>
</a>
</g>
</g>
<!-- Node16&#45;&gt;Node17 -->
<g id="edge41_Node000016_Node000017" class="edge">
<title>Node16&#45;&gt;Node17</title>
<g id="a_edge41_Node000016_Node000017"><a xlink:title=" ">
<path fill="none" stroke="#63b8ff" d="M413.64,-530.56C413.39,-522.39 413.12,-513.66 412.9,-506.58"/>
<polygon fill="#63b8ff" stroke="#63b8ff" points="410.14,-530.46 413.94,-540.35 417.13,-530.25 410.14,-530.46"/>
</a>
</g>
</g>
<!-- Node17&#45;&gt;Node2 -->
<g id="edge42_Node000017_Node000002" class="edge">
<title>Node17&#45;&gt;Node2</title>
<g id="a_edge42_Node000017_Node000002"><a xlink:title=" ">
<path fill="none" stroke="#63b8ff" d="M416.1,-464.41C421.07,-434.24 431.58,-383.11 450.45,-342.75 456.74,-329.28 467.25,-315.65 474.49,-307.07"/>
<polygon fill="#63b8ff" stroke="#63b8ff" points="412.67,-463.69 414.59,-474.11 419.59,-464.77 412.67,-463.69"/>
</a>
</g>
</g>
<!-- Node17&#45;&gt;Node12 -->
<g id="edge43_Node000017_Node000012" class="edge">
<title>Node17&#45;&gt;Node12</title>
<g id="a_edge43_Node000017_Node000012"><a xlink:title=" ">
<path fill="none" stroke="#63b8ff" d="M461.21,-471.39C492.94,-459.28 532.92,-444.02 557.84,-434.51"/>
<polygon fill="#63b8ff" stroke="#63b8ff" points="460.3,-467.99 452.21,-474.82 462.8,-474.53 460.3,-467.99"/>
</a>
</g>
</g>
<!-- Node17&#45;&gt;Node13 -->
<g id="edge44_Node000017_Node000013" class="edge">
<title>Node17&#45;&gt;Node13</title>
<g id="a_edge44_Node000017_Node000013"><a xlink:title=" ">
<path fill="none" stroke="#63b8ff" d="M385.83,-468.27C374.46,-458.98 361.49,-448.4 351.3,-440.08"/>
<polygon fill="#63b8ff" stroke="#63b8ff" points="383.39,-470.79 393.35,-474.41 387.81,-465.37 383.39,-470.79"/>
</a>
</g>
</g>
</g>
</svg>
