<?xml version="1.0" encoding="UTF-8" standalone="no"?>
<!DOCTYPE svg PUBLIC "-//W3C//DTD SVG 1.1//EN"
 "http://www.w3.org/Graphics/SVG/1.1/DTD/svg11.dtd">
<!-- Generated by graphviz version 12.2.1 (20241206.2353)
 -->
<!-- Title: mimic++/compatibility/paweldac&#45;source_location.hpp Pages: 1 -->
<!--zoomable 404 -->

<svg id="main" version="1.1" xmlns="http://www.w3.org/2000/svg" xmlns:xlink="http://www.w3.org/1999/xlink" xml:space="preserve" onload="init(evt)">

<style type="text/css"><![CDATA[
.node, .edge {opacity: 0.7;}
.node.selected, .edge.selected {opacity: 1;}
.edge:hover path { stroke: red; }
.edge:hover polygon { stroke: red; fill: red; }
]]></style>

<defs>
  <circle id="rim" cx="0" cy="0" r="7"/>
  <circle id="rim2" cx="0" cy="0" r="3.5"/>
  <g id="zoomPlus">
    <use xlink:href="#rim" fill="#404040"><set attributeName="fill" to="#808080" begin="zoomplus.mouseover" end="zoomplus.mouseout"/></use>
    <path d="M-4,0h8M0,-4v8" fill="none" stroke="white" stroke-width="1.5" pointer-events="none"/>
  </g>
  <g id="zoomMin">
    <use xlink:href="#rim" fill="#404040"><set attributeName="fill" to="#808080" begin="zoomminus.mouseover" end="zoomminus.mouseout"/></use>
    <path d="M-4,0h8" fill="none" stroke="white" stroke-width="1.5" pointer-events="none"/>
  </g>
  <g id="arrowUp" transform="translate(30 24)">
    <use xlink:href="#rim"/>
    <path pointer-events="none" fill="none" stroke="white" stroke-width="1.5" d="M0,-3.0v7 M-2.5,-0.5L0,-3.0L2.5,-0.5"/>
  </g>
  <g id="arrowRight" transform="rotate(90) translate(36 -43)">
    <use xlink:href="#rim"/>
    <path pointer-events="none" fill="none" stroke="white" stroke-width="1.5" d="M0,-3.0v7 M-2.5,-0.5L0,-3.0L2.5,-0.5"/>
  </g>
  <g id="arrowDown" transform="rotate(180) translate(-30 -48)">
    <use xlink:href="#rim"/>
    <path pointer-events="none" fill="none" stroke="white" stroke-width="1.5" d="M0,-3.0v7 M-2.5,-0.5L0,-3.0L2.5,-0.5"/>
  </g>
  <g id="arrowLeft" transform="rotate(270) translate(-36 17)">
    <use xlink:href="#rim"/>
    <path pointer-events="none" fill="none" stroke="white" stroke-width="1.5" d="M0,-3.0v7 M-2.5,-0.5L0,-3.0L2.5,-0.5"/>
  </g>
  <g id="resetDef">
    <use xlink:href="#rim2" fill="#404040"><set attributeName="fill" to="#808080" begin="reset.mouseover" end="reset.mouseout"/></use>
  </g>
</defs>
<script type="application/ecmascript">
var viewWidth = 1289;
var viewHeight = 404;
var sectionId = 'dynsection-0';
</script>
<script type="application/ecmascript" xlink:href="../../svg.min.js"/>
<svg id="graph" class="graph">
<g id="viewport">
<title>mimic++/compatibility/paweldac&#45;source_location.hpp</title>
<!-- Node1 -->
<g id="Node000001" class="node">
<title>Node1</title>
<g id="a_Node000001"><a xlink:title=" ">
<polygon fill="#999999" stroke="#666666" points="1062.44,-395.75 912.94,-395.75 912.94,-365.25 1062.44,-365.25 1062.44,-395.75"/>
<text text-anchor="start" x="920.94" y="-382.25" font-family="Helvetica,sans-Serif" font-size="10.00">mimic++/compatibility</text>
<text text-anchor="middle" x="987.69" y="-371" font-family="Helvetica,sans-Serif" font-size="10.00">/paweldac&#45;source_location.hpp</text>
</a>
</g>
</g>
<!-- Node2 -->
<g id="Node000002" class="node">
<title>Node2</title>
<g id="a_Node000002"><a xlink:href="../../df/dde/_fwd_8hpp.html" target="_top" xlink:title=" ">
<polygon fill="white" stroke="#666666" points="1193.69,-129.75 1099.69,-129.75 1099.69,-110.5 1193.69,-110.5 1193.69,-129.75"/>
<text text-anchor="middle" x="1146.69" y="-116.25" font-family="Helvetica,sans-Serif" font-size="10.00">mimic++/Fwd.hpp</text>
</a>
</g>
</g>
<!-- Node1&#45;&gt;Node2 -->
<g id="edge1_Node000001_Node000002" class="edge">
<title>Node1&#45;&gt;Node2</title>
<g id="a_edge1_Node000001_Node000002"><a xlink:title=" ">
<path fill="none" stroke="#63b8ff" d="M1013.48,-364.94C1057.81,-338.22 1147.04,-276.66 1181.69,-196.25 1187.06,-183.8 1186.12,-178.56 1181.69,-165.75 1178.22,-155.69 1171.44,-146.18 1164.77,-138.53"/>
<polygon fill="#63b8ff" stroke="#63b8ff" points="1167.37,-136.19 1157.95,-131.33 1162.29,-141 1167.37,-136.19"/>
</a>
</g>
</g>
<!-- Node8 -->
<g id="Node000008" class="node">
<title>Node8</title>
<g id="a_Node000008"><a xlink:href="../../d3/d15/_source_location_8hpp.html" target="_top" xlink:title=" ">
<polygon fill="white" stroke="#666666" points="712.57,-329.25 590.82,-329.25 590.82,-298.75 712.57,-298.75 712.57,-329.25"/>
<text text-anchor="start" x="598.82" y="-315.75" font-family="Helvetica,sans-Serif" font-size="10.00">mimic++/utilities/Source</text>
<text text-anchor="middle" x="651.69" y="-304.5" font-family="Helvetica,sans-Serif" font-size="10.00">Location.hpp</text>
</a>
</g>
</g>
<!-- Node1&#45;&gt;Node8 -->
<g id="edge7_Node000001_Node000008" class="edge">
<title>Node1&#45;&gt;Node8</title>
<g id="a_edge7_Node000001_Node000008"><a xlink:title=" ">
<path fill="none" stroke="#63b8ff" d="M912.71,-365.11C856.43,-354.3 779.83,-339.6 724.17,-328.91"/>
<polygon fill="#63b8ff" stroke="#63b8ff" points="724.95,-325.5 714.47,-327.05 723.63,-332.37 724.95,-325.5"/>
</a>
</g>
</g>
<!-- Node3 -->
<g id="Node000003" class="node">
<title>Node3</title>
<g id="a_Node000003"><a xlink:href="../../d8/dd2/_config_8hpp.html" target="_top" xlink:title=" ">
<polygon fill="white" stroke="#666666" points="1119.07,-74.5 988.32,-74.5 988.32,-55.25 1119.07,-55.25 1119.07,-74.5"/>
<text text-anchor="middle" x="1053.69" y="-61" font-family="Helvetica,sans-Serif" font-size="10.00">mimic++/config/Config.hpp</text>
</a>
</g>
</g>
<!-- Node2&#45;&gt;Node3 -->
<g id="edge2_Node000002_Node000003" class="edge">
<title>Node2&#45;&gt;Node3</title>
<g id="a_edge2_Node000002_Node000003"><a xlink:title=" ">
<path fill="none" stroke="#63b8ff" d="M1130.92,-110.09C1116.76,-101.98 1095.71,-89.93 1079.17,-80.46"/>
<polygon fill="#63b8ff" stroke="#63b8ff" points="1081.28,-77.64 1070.86,-75.7 1077.8,-83.71 1081.28,-77.64"/>
</a>
</g>
</g>
<!-- Node6 -->
<g id="Node000006" class="node">
<title>Node6</title>
<g id="a_Node000006"><a xlink:title=" ">
<polygon fill="#e0e0e0" stroke="#999999" points="1176.69,-74.5 1136.69,-74.5 1136.69,-55.25 1176.69,-55.25 1176.69,-74.5"/>
<text text-anchor="middle" x="1156.69" y="-61" font-family="Helvetica,sans-Serif" font-size="10.00">string</text>
</a>
</g>
</g>
<!-- Node2&#45;&gt;Node6 -->
<g id="edge5_Node000002_Node000006" class="edge">
<title>Node2&#45;&gt;Node6</title>
<g id="a_edge5_Node000002_Node000006"><a xlink:title=" ">
<path fill="none" stroke="#63b8ff" d="M1148.35,-110.33C1149.58,-103.74 1151.33,-94.46 1152.9,-86.07"/>
<polygon fill="#63b8ff" stroke="#63b8ff" points="1156.32,-86.82 1154.73,-76.35 1149.44,-85.53 1156.32,-86.82"/>
</a>
</g>
</g>
<!-- Node7 -->
<g id="Node000007" class="node">
<title>Node7</title>
<g id="a_Node000007"><a xlink:title=" ">
<polygon fill="#e0e0e0" stroke="#999999" points="1281.44,-74.5 1215.94,-74.5 1215.94,-55.25 1281.44,-55.25 1281.44,-74.5"/>
<text text-anchor="middle" x="1248.69" y="-61" font-family="Helvetica,sans-Serif" font-size="10.00">string_view</text>
</a>
</g>
</g>
<!-- Node2&#45;&gt;Node7 -->
<g id="edge6_Node000002_Node000007" class="edge">
<title>Node2&#45;&gt;Node7</title>
<g id="a_edge6_Node000002_Node000007"><a xlink:title=" ">
<path fill="none" stroke="#63b8ff" d="M1164,-110.09C1179.68,-101.91 1203.05,-89.71 1221.27,-80.19"/>
<polygon fill="#63b8ff" stroke="#63b8ff" points="1222.72,-83.38 1229.97,-75.65 1219.48,-77.18 1222.72,-83.38"/>
</a>
</g>
</g>
<!-- Node4 -->
<g id="Node000004" class="node">
<title>Node4</title>
<g id="a_Node000004"><a xlink:title=" ">
<polygon fill="#e0e0e0" stroke="#999999" points="1044.32,-19.25 999.07,-19.25 999.07,0 1044.32,0 1044.32,-19.25"/>
<text text-anchor="middle" x="1021.69" y="-5.75" font-family="Helvetica,sans-Serif" font-size="10.00">cstdint</text>
</a>
</g>
</g>
<!-- Node3&#45;&gt;Node4 -->
<g id="edge3_Node000003_Node000004" class="edge">
<title>Node3&#45;&gt;Node4</title>
<g id="a_edge3_Node000003_Node000004"><a xlink:title=" ">
<path fill="none" stroke="#63b8ff" d="M1048.41,-55.08C1044.22,-48.11 1038.22,-38.12 1032.96,-29.37"/>
<polygon fill="#63b8ff" stroke="#63b8ff" points="1036.02,-27.68 1027.87,-20.91 1030.02,-31.28 1036.02,-27.68"/>
</a>
</g>
</g>
<!-- Node5 -->
<g id="Node000005" class="node">
<title>Node5</title>
<g id="a_Node000005"><a xlink:title=" ">
<polygon fill="#e0e0e0" stroke="#999999" points="1109.44,-19.25 1061.94,-19.25 1061.94,0 1109.44,0 1109.44,-19.25"/>
<text text-anchor="middle" x="1085.69" y="-5.75" font-family="Helvetica,sans-Serif" font-size="10.00">version</text>
</a>
</g>
</g>
<!-- Node3&#45;&gt;Node5 -->
<g id="edge4_Node000003_Node000005" class="edge">
<title>Node3&#45;&gt;Node5</title>
<g id="a_edge4_Node000003_Node000005"><a xlink:title=" ">
<path fill="none" stroke="#63b8ff" d="M1058.98,-55.08C1063.17,-48.11 1069.17,-38.12 1074.43,-29.37"/>
<polygon fill="#63b8ff" stroke="#63b8ff" points="1077.37,-31.28 1079.52,-20.91 1071.37,-27.68 1077.37,-31.28"/>
</a>
</g>
</g>
<!-- Node8&#45;&gt;Node3 -->
<g id="edge8_Node000008_Node000003" class="edge">
<title>Node8&#45;&gt;Node3</title>
<g id="a_edge8_Node000008_Node000003"><a xlink:title=" ">
<path fill="none" stroke="#63b8ff" d="M712.81,-309.76C816.34,-303.64 1021.53,-288.62 1088.69,-262.75 1136.11,-244.49 1151.84,-237.37 1181.69,-196.25 1204.75,-164.5 1226.12,-141.97 1202.69,-110.5 1192.14,-96.32 1153.39,-84.97 1118.06,-77.26"/>
<polygon fill="#63b8ff" stroke="#63b8ff" points="1119.23,-73.93 1108.72,-75.3 1117.79,-80.78 1119.23,-73.93"/>
</a>
</g>
</g>
<!-- Node8&#45;&gt;Node7 -->
<g id="edge41_Node000008_Node000007" class="edge">
<title>Node8&#45;&gt;Node7</title>
<g id="a_edge41_Node000008_Node000007"><a xlink:title=" ">
<path fill="none" stroke="#63b8ff" d="M713.04,-311.28C825.3,-307.38 1059.03,-295.48 1132.69,-262.75 1173.1,-244.8 1182.64,-233.35 1206.69,-196.25 1229.37,-161.27 1240.69,-113.06 1245.57,-86.14"/>
<polygon fill="#63b8ff" stroke="#63b8ff" points="1249.02,-86.72 1247.22,-76.28 1242.11,-85.57 1249.02,-86.72"/>
</a>
</g>
</g>
<!-- Node9 -->
<g id="Node000009" class="node">
<title>Node9</title>
<g id="a_Node000009"><a xlink:href="../../de/d52/printing_2_fwd_8hpp.html" target="_top" xlink:title=" ">
<polygon fill="white" stroke="#666666" points="155.94,-190.62 27.44,-190.62 27.44,-171.38 155.94,-171.38 155.94,-190.62"/>
<text text-anchor="middle" x="91.69" y="-177.12" font-family="Helvetica,sans-Serif" font-size="10.00">mimic++/printing/Fwd.hpp</text>
</a>
</g>
</g>
<!-- Node8&#45;&gt;Node9 -->
<g id="edge9_Node000008_Node000009" class="edge">
<title>Node8&#45;&gt;Node9</title>
<g id="a_edge9_Node000008_Node000009"><a xlink:title=" ">
<path fill="none" stroke="#63b8ff" d="M590.35,-301.59C539.83,-291.97 466.4,-277.44 402.69,-262.75 306.69,-240.62 195.13,-210.59 135.17,-194.09"/>
<polygon fill="#63b8ff" stroke="#63b8ff" points="136.27,-190.77 125.69,-191.48 134.4,-197.51 136.27,-190.77"/>
</a>
</g>
</g>
<!-- Node10 -->
<g id="Node000010" class="node">
<title>Node10</title>
<g id="a_Node000010"><a xlink:href="../../de/d4b/_path_printer_8hpp.html" target="_top" xlink:title=" ">
<polygon fill="white" stroke="#666666" points="1079.94,-257.12 921.44,-257.12 921.44,-237.88 1079.94,-237.88 1079.94,-257.12"/>
<text text-anchor="middle" x="1000.69" y="-243.62" font-family="Helvetica,sans-Serif" font-size="10.00">mimic++/printing/PathPrinter.hpp</text>
</a>
</g>
</g>
<!-- Node8&#45;&gt;Node10 -->
<g id="edge10_Node000008_Node000010" class="edge">
<title>Node8&#45;&gt;Node10</title>
<g id="a_edge10_Node000008_Node000010"><a xlink:title=" ">
<path fill="none" stroke="#63b8ff" d="M712.89,-301.69C776.88,-289.86 876.69,-271.42 940.36,-259.65"/>
<polygon fill="#63b8ff" stroke="#63b8ff" points="940.74,-263.14 949.94,-257.88 939.47,-256.26 940.74,-263.14"/>
</a>
</g>
</g>
<!-- Node12 -->
<g id="Node000012" class="node">
<title>Node12</title>
<g id="a_Node000012"><a xlink:title=" ">
<polygon fill="#e0e0e0" stroke="#999999" points="351.57,-129.75 295.82,-129.75 295.82,-110.5 351.57,-110.5 351.57,-129.75"/>
<text text-anchor="middle" x="323.69" y="-116.25" font-family="Helvetica,sans-Serif" font-size="10.00">concepts</text>
</a>
</g>
</g>
<!-- Node8&#45;&gt;Node12 -->
<g id="edge39_Node000008_Node000012" class="edge">
<title>Node8&#45;&gt;Node12</title>
<g id="a_edge39_Node000008_Node000012"><a xlink:title=" ">
<path fill="none" stroke="#63b8ff" d="M590.48,-311.58C445.53,-306.76 88.26,-285.84 18.69,-196.25 10.38,-185.54 9.83,-176.01 18.69,-165.75 35.84,-145.92 205.42,-130.3 284.04,-124.07"/>
<polygon fill="#63b8ff" stroke="#63b8ff" points="284.19,-127.57 293.89,-123.3 283.65,-120.59 284.19,-127.57"/>
</a>
</g>
</g>
<!-- Node14 -->
<g id="Node000014" class="node">
<title>Node14</title>
<g id="a_Node000014"><a xlink:title=" ">
<polygon fill="#e0e0e0" stroke="#999999" points="596.19,-129.75 535.19,-129.75 535.19,-110.5 596.19,-110.5 596.19,-129.75"/>
<text text-anchor="middle" x="565.69" y="-116.25" font-family="Helvetica,sans-Serif" font-size="10.00">type_traits</text>
</a>
</g>
</g>
<!-- Node8&#45;&gt;Node14 -->
<g id="edge42_Node000008_Node000014" class="edge">
<title>Node8&#45;&gt;Node14</title>
<g id="a_edge42_Node000008_Node000014"><a xlink:title=" ">
<path fill="none" stroke="#63b8ff" d="M651.07,-298.51C649.74,-281.47 645.58,-252.9 632.69,-232.25 619.31,-210.82 602.78,-217.23 588.69,-196.25 577.54,-179.63 571.61,-157.37 568.59,-141.41"/>
<polygon fill="#63b8ff" stroke="#63b8ff" points="572.07,-140.97 566.99,-131.67 565.16,-142.11 572.07,-140.97"/>
</a>
</g>
</g>
<!-- Node15 -->
<g id="Node000015" class="node">
<title>Node15</title>
<g id="a_Node000015"><a xlink:title=" ">
<polygon fill="#e0e0e0" stroke="#999999" points="822.94,-129.75 784.44,-129.75 784.44,-110.5 822.94,-110.5 822.94,-129.75"/>
<text text-anchor="middle" x="803.69" y="-116.25" font-family="Helvetica,sans-Serif" font-size="10.00">utility</text>
</a>
</g>
</g>
<!-- Node8&#45;&gt;Node15 -->
<g id="edge43_Node000008_Node000015" class="edge">
<title>Node8&#45;&gt;Node15</title>
<g id="a_edge43_Node000008_Node000015"><a xlink:title=" ">
<path fill="none" stroke="#63b8ff" d="M672.74,-298.37C700.2,-278.27 748.12,-239.65 776.69,-196.25 787.88,-179.26 795.11,-157.06 799.25,-141.21"/>
<polygon fill="#63b8ff" stroke="#63b8ff" points="802.64,-142.09 801.57,-131.55 795.83,-140.45 802.64,-142.09"/>
</a>
</g>
</g>
<!-- Node20 -->
<g id="Node000020" class="node">
<title>Node20</title>
<g id="a_Node000020"><a xlink:href="../../da/db0/_print_type_8hpp.html" target="_top" xlink:title=" ">
<polygon fill="white" stroke="#666666" points="521.57,-262.75 411.82,-262.75 411.82,-232.25 521.57,-232.25 521.57,-262.75"/>
<text text-anchor="start" x="419.82" y="-249.25" font-family="Helvetica,sans-Serif" font-size="10.00">mimic++/printing/type</text>
<text text-anchor="middle" x="466.69" y="-238" font-family="Helvetica,sans-Serif" font-size="10.00">/PrintType.hpp</text>
</a>
</g>
</g>
<!-- Node8&#45;&gt;Node20 -->
<g id="edge25_Node000008_Node000020" class="edge">
<title>Node8&#45;&gt;Node20</title>
<g id="a_edge25_Node000008_Node000020"><a xlink:title=" ">
<path fill="none" stroke="#63b8ff" d="M609.72,-298.36C582.96,-289.04 548.08,-276.87 519.46,-266.9"/>
<polygon fill="#63b8ff" stroke="#63b8ff" points="520.85,-263.68 510.26,-263.69 518.55,-270.29 520.85,-263.68"/>
</a>
</g>
</g>
<!-- Node22 -->
<g id="Node000022" class="node">
<title>Node22</title>
<g id="a_Node000022"><a xlink:title=" ">
<polygon fill="#e0e0e0" stroke="#999999" points="122.82,-129.75 74.57,-129.75 74.57,-110.5 122.82,-110.5 122.82,-129.75"/>
<text text-anchor="middle" x="98.69" y="-116.25" font-family="Helvetica,sans-Serif" font-size="10.00">cstddef</text>
</a>
</g>
</g>
<!-- Node8&#45;&gt;Node22 -->
<g id="edge40_Node000008_Node000022" class="edge">
<title>Node8&#45;&gt;Node22</title>
<g id="a_edge40_Node000008_Node000022"><a xlink:title=" ">
<path fill="none" stroke="#63b8ff" d="M590.34,-313.33C459.77,-313.13 158.98,-307.64 68.69,-262.75 23.3,-240.18 -18.03,-208.83 8.69,-165.75 20.66,-146.46 43.73,-135.25 63.52,-128.89"/>
<polygon fill="#63b8ff" stroke="#63b8ff" points="64.28,-132.31 72.92,-126.17 62.34,-125.58 64.28,-132.31"/>
</a>
</g>
</g>
<!-- Node25 -->
<g id="Node000025" class="node">
<title>Node25</title>
<g id="a_Node000025"><a xlink:title=" ">
<polygon fill="#e0e0e0" stroke="#999999" points="623.82,-257.12 539.57,-257.12 539.57,-237.88 623.82,-237.88 623.82,-257.12"/>
<text text-anchor="middle" x="581.69" y="-243.62" font-family="Helvetica,sans-Serif" font-size="10.00">source_location</text>
</a>
</g>
</g>
<!-- Node8&#45;&gt;Node25 -->
<g id="edge44_Node000008_Node000025" class="edge">
<title>Node8&#45;&gt;Node25</title>
<g id="a_edge44_Node000008_Node000025"><a xlink:title=" ">
<path fill="none" stroke="#63b8ff" d="M635.81,-298.36C624.99,-288.39 610.65,-275.18 599.45,-264.86"/>
<polygon fill="#63b8ff" stroke="#63b8ff" points="602.11,-262.55 592.38,-258.35 597.37,-267.7 602.11,-262.55"/>
</a>
</g>
</g>
<!-- Node10&#45;&gt;Node2 -->
<g id="edge11_Node000010_Node000002" class="edge">
<title>Node10&#45;&gt;Node2</title>
<g id="a_edge11_Node000010_Node000002"><a xlink:title=" ">
<path fill="none" stroke="#63b8ff" d="M1080.02,-241.98C1111.6,-235.8 1145.04,-222.83 1164.69,-196.25 1176.99,-179.62 1167.94,-155.76 1158.8,-139.42"/>
<polygon fill="#63b8ff" stroke="#63b8ff" points="1161.99,-137.93 1153.79,-131.21 1156.01,-141.57 1161.99,-137.93"/>
</a>
</g>
</g>
<!-- Node10&#45;&gt;Node3 -->
<g id="edge12_Node000010_Node000003" class="edge">
<title>Node10&#45;&gt;Node3</title>
<g id="a_edge12_Node000010_Node000003"><a xlink:title=" ">
<path fill="none" stroke="#63b8ff" d="M1006.77,-237.66C1013.18,-227.94 1023.1,-211.64 1028.69,-196.25 1042.31,-158.82 1048.94,-112.52 1051.8,-86.38"/>
<polygon fill="#63b8ff" stroke="#63b8ff" points="1055.28,-86.8 1052.8,-76.5 1048.31,-86.1 1055.28,-86.8"/>
</a>
</g>
</g>
<!-- Node11 -->
<g id="Node000011" class="node">
<title>Node11</title>
<g id="a_Node000011"><a xlink:href="../../d5/dec/_format_8hpp.html" target="_top" xlink:title=" ">
<polygon fill="white" stroke="#666666" points="737.94,-190.62 597.44,-190.62 597.44,-171.38 737.94,-171.38 737.94,-190.62"/>
<text text-anchor="middle" x="667.69" y="-177.12" font-family="Helvetica,sans-Serif" font-size="10.00">mimic++/printing/Format.hpp</text>
</a>
</g>
</g>
<!-- Node10&#45;&gt;Node11 -->
<g id="edge13_Node000010_Node000011" class="edge">
<title>Node10&#45;&gt;Node11</title>
<g id="a_edge13_Node000010_Node000011"><a xlink:title=" ">
<path fill="none" stroke="#63b8ff" d="M953.69,-237.4C893.9,-225.82 790.67,-205.82 725.95,-193.28"/>
<polygon fill="#63b8ff" stroke="#63b8ff" points="726.7,-189.86 716.21,-191.4 725.37,-196.74 726.7,-189.86"/>
</a>
</g>
</g>
<!-- Node10&#45;&gt;Node15 -->
<g id="edge24_Node000010_Node000015" class="edge">
<title>Node10&#45;&gt;Node15</title>
<g id="a_edge24_Node000010_Node000015"><a xlink:title=" ">
<path fill="none" stroke="#63b8ff" d="M1005.58,-237.59C1013.74,-221.36 1027.64,-186.74 1010.69,-165.75 988.89,-138.75 886.67,-127.3 834.5,-123.15"/>
<polygon fill="#63b8ff" stroke="#63b8ff" points="835.02,-119.68 824.79,-122.43 834.5,-126.66 835.02,-119.68"/>
</a>
</g>
</g>
<!-- Node17 -->
<g id="Node000017" class="node">
<title>Node17</title>
<g id="a_Node000017"><a xlink:title=" ">
<polygon fill="#e0e0e0" stroke="#999999" points="925.57,-190.62 869.82,-190.62 869.82,-171.38 925.57,-171.38 925.57,-190.62"/>
<text text-anchor="middle" x="897.69" y="-177.12" font-family="Helvetica,sans-Serif" font-size="10.00">algorithm</text>
</a>
</g>
</g>
<!-- Node10&#45;&gt;Node17 -->
<g id="edge21_Node000010_Node000017" class="edge">
<title>Node10&#45;&gt;Node17</title>
<g id="a_edge21_Node000010_Node000017"><a xlink:title=" ">
<path fill="none" stroke="#63b8ff" d="M986.37,-237.53C969.71,-227.1 941.93,-209.7 921.9,-197.15"/>
<polygon fill="#63b8ff" stroke="#63b8ff" points="923.84,-194.24 913.51,-191.9 920.13,-200.18 923.84,-194.24"/>
</a>
</g>
</g>
<!-- Node18 -->
<g id="Node000018" class="node">
<title>Node18</title>
<g id="a_Node000018"><a xlink:title=" ">
<polygon fill="#e0e0e0" stroke="#999999" points="1155.44,-190.62 1095.94,-190.62 1095.94,-171.38 1155.44,-171.38 1155.44,-190.62"/>
<text text-anchor="middle" x="1125.69" y="-177.12" font-family="Helvetica,sans-Serif" font-size="10.00">filesystem</text>
</a>
</g>
</g>
<!-- Node10&#45;&gt;Node18 -->
<g id="edge22_Node000010_Node000018" class="edge">
<title>Node10&#45;&gt;Node18</title>
<g id="a_edge22_Node000010_Node000018"><a xlink:title=" ">
<path fill="none" stroke="#63b8ff" d="M1018.34,-237.4C1039.09,-226.69 1073.79,-208.78 1098.11,-196.24"/>
<polygon fill="#63b8ff" stroke="#63b8ff" points="1099.51,-199.45 1106.8,-191.75 1096.3,-193.23 1099.51,-199.45"/>
</a>
</g>
</g>
<!-- Node19 -->
<g id="Node000019" class="node">
<title>Node19</title>
<g id="a_Node000019"><a xlink:title=" ">
<polygon fill="#e0e0e0" stroke="#999999" points="1001.69,-190.62 943.69,-190.62 943.69,-171.38 1001.69,-171.38 1001.69,-190.62"/>
<text text-anchor="middle" x="972.69" y="-177.12" font-family="Helvetica,sans-Serif" font-size="10.00">functional</text>
</a>
</g>
</g>
<!-- Node10&#45;&gt;Node19 -->
<g id="edge23_Node000010_Node000019" class="edge">
<title>Node10&#45;&gt;Node19</title>
<g id="a_edge23_Node000010_Node000019"><a xlink:title=" ">
<path fill="none" stroke="#63b8ff" d="M996.8,-237.53C992.75,-228.19 986.27,-213.28 981.05,-201.26"/>
<polygon fill="#63b8ff" stroke="#63b8ff" points="984.35,-200.06 977.16,-192.28 977.93,-202.85 984.35,-200.06"/>
</a>
</g>
</g>
<!-- Node11&#45;&gt;Node2 -->
<g id="edge14_Node000011_Node000002" class="edge">
<title>Node11&#45;&gt;Node2</title>
<g id="a_edge14_Node000011_Node000002"><a xlink:title=" ">
<path fill="none" stroke="#63b8ff" d="M738.37,-171.31C833.14,-159.66 999.65,-139.2 1087.92,-128.35"/>
<polygon fill="#63b8ff" stroke="#63b8ff" points="1088.32,-131.83 1097.82,-127.13 1087.47,-124.88 1088.32,-131.83"/>
</a>
</g>
</g>
<!-- Node11&#45;&gt;Node3 -->
<g id="edge15_Node000011_Node000003" class="edge">
<title>Node11&#45;&gt;Node3</title>
<g id="a_edge15_Node000011_Node000003"><a xlink:title=" ">
<path fill="none" stroke="#63b8ff" d="M659.74,-171.22C647.69,-156.85 627.84,-128.17 643.69,-110.5 665.48,-86.22 864.02,-73.89 976.63,-68.81"/>
<polygon fill="#63b8ff" stroke="#63b8ff" points="976.56,-72.31 986.4,-68.37 976.26,-65.32 976.56,-72.31"/>
</a>
</g>
</g>
<!-- Node11&#45;&gt;Node12 -->
<g id="edge16_Node000011_Node000012" class="edge">
<title>Node11&#45;&gt;Node12</title>
<g id="a_edge16_Node000011_Node000012"><a xlink:title=" ">
<path fill="none" stroke="#63b8ff" d="M614.7,-170.93C545.29,-159.05 425.18,-138.49 363.21,-127.89"/>
<polygon fill="#63b8ff" stroke="#63b8ff" points="363.92,-124.46 353.47,-126.22 362.74,-131.36 363.92,-124.46"/>
</a>
</g>
</g>
<!-- Node13 -->
<g id="Node000013" class="node">
<title>Node13</title>
<g id="a_Node000013"><a xlink:title=" ">
<polygon fill="#e0e0e0" stroke="#999999" points="766.32,-129.75 715.07,-129.75 715.07,-110.5 766.32,-110.5 766.32,-129.75"/>
<text text-anchor="middle" x="740.69" y="-116.25" font-family="Helvetica,sans-Serif" font-size="10.00">sstream</text>
</a>
</g>
</g>
<!-- Node11&#45;&gt;Node13 -->
<g id="edge17_Node000011_Node000013" class="edge">
<title>Node11&#45;&gt;Node13</title>
<g id="a_edge17_Node000011_Node000013"><a xlink:title=" ">
<path fill="none" stroke="#63b8ff" d="M678.78,-171.06C689.93,-162.07 707.36,-148.01 720.89,-137.1"/>
<polygon fill="#63b8ff" stroke="#63b8ff" points="722.74,-140.1 728.33,-131.1 718.34,-134.65 722.74,-140.1"/>
</a>
</g>
</g>
<!-- Node11&#45;&gt;Node14 -->
<g id="edge18_Node000011_Node000014" class="edge">
<title>Node11&#45;&gt;Node14</title>
<g id="a_edge18_Node000011_Node000014"><a xlink:title=" ">
<path fill="none" stroke="#63b8ff" d="M652.2,-171.06C636.03,-161.72 610.39,-146.92 591.22,-135.86"/>
<polygon fill="#63b8ff" stroke="#63b8ff" points="593.05,-132.88 582.64,-130.91 589.55,-138.94 593.05,-132.88"/>
</a>
</g>
</g>
<!-- Node11&#45;&gt;Node15 -->
<g id="edge19_Node000011_Node000015" class="edge">
<title>Node11&#45;&gt;Node15</title>
<g id="a_edge19_Node000011_Node000015"><a xlink:title=" ">
<path fill="none" stroke="#63b8ff" d="M688.65,-170.93C711.47,-161.05 748.15,-145.17 773.95,-134"/>
<polygon fill="#63b8ff" stroke="#63b8ff" points="775.09,-137.32 782.87,-130.14 772.31,-130.9 775.09,-137.32"/>
</a>
</g>
</g>
<!-- Node16 -->
<g id="Node000016" class="node">
<title>Node16</title>
<g id="a_Node000016"><a xlink:title=" ">
<polygon fill="#e0e0e0" stroke="#999999" points="696.57,-129.75 652.82,-129.75 652.82,-110.5 696.57,-110.5 696.57,-129.75"/>
<text text-anchor="middle" x="674.69" y="-116.25" font-family="Helvetica,sans-Serif" font-size="10.00">format</text>
</a>
</g>
</g>
<!-- Node11&#45;&gt;Node16 -->
<g id="edge20_Node000011_Node000016" class="edge">
<title>Node11&#45;&gt;Node16</title>
<g id="a_edge20_Node000011_Node000016"><a xlink:title=" ">
<path fill="none" stroke="#63b8ff" d="M668.76,-171.06C669.69,-163.19 671.09,-151.45 672.29,-141.32"/>
<polygon fill="#63b8ff" stroke="#63b8ff" points="675.74,-142 673.44,-131.65 668.79,-141.17 675.74,-142"/>
</a>
</g>
</g>
<!-- Node20&#45;&gt;Node2 -->
<g id="edge26_Node000020_Node000002" class="edge">
<title>Node20&#45;&gt;Node2</title>
<g id="a_edge26_Node000020_Node000002"><a xlink:title=" ">
<path fill="none" stroke="#63b8ff" d="M521.8,-233.96C524.8,-233.36 527.78,-232.79 530.69,-232.25 639.36,-212.23 669.55,-223.25 776.69,-196.25 815.21,-186.55 822.23,-175.64 860.69,-165.75 938.15,-145.84 1029.83,-133.44 1088.11,-126.91"/>
<polygon fill="#63b8ff" stroke="#63b8ff" points="1088.25,-130.41 1097.81,-125.84 1087.49,-123.46 1088.25,-130.41"/>
</a>
</g>
</g>
<!-- Node20&#45;&gt;Node3 -->
<g id="edge27_Node000020_Node000003" class="edge">
<title>Node20&#45;&gt;Node3</title>
<g id="a_edge27_Node000020_Node000003"><a xlink:title=" ">
<path fill="none" stroke="#63b8ff" d="M468.31,-231.99C472.36,-203.34 485.73,-139.74 526.69,-110.5 562.45,-84.98 839.24,-72.68 976.72,-68.09"/>
<polygon fill="#63b8ff" stroke="#63b8ff" points="976.59,-71.6 986.47,-67.77 976.36,-64.6 976.59,-71.6"/>
</a>
</g>
</g>
<!-- Node20&#45;&gt;Node9 -->
<g id="edge29_Node000020_Node000009" class="edge">
<title>Node20&#45;&gt;Node9</title>
<g id="a_edge29_Node000020_Node000009"><a xlink:title=" ">
<path fill="none" stroke="#63b8ff" d="M411.42,-237.69C350.99,-227.97 251.34,-211.64 165.69,-196.25 160.2,-195.26 154.49,-194.21 148.77,-193.14"/>
<polygon fill="#63b8ff" stroke="#63b8ff" points="149.81,-189.77 139.33,-191.35 148.51,-196.65 149.81,-189.77"/>
</a>
</g>
</g>
<!-- Node20&#45;&gt;Node11 -->
<g id="edge28_Node000020_Node000011" class="edge">
<title>Node20&#45;&gt;Node11</title>
<g id="a_edge28_Node000020_Node000011"><a xlink:title=" ">
<path fill="none" stroke="#63b8ff" d="M512.56,-231.78C547.64,-220.53 595.48,-205.17 628.72,-194.51"/>
<polygon fill="#63b8ff" stroke="#63b8ff" points="629.5,-197.93 637.96,-191.54 627.36,-191.27 629.5,-197.93"/>
</a>
</g>
</g>
<!-- Node20&#45;&gt;Node12 -->
<g id="edge33_Node000020_Node000012" class="edge">
<title>Node20&#45;&gt;Node12</title>
<g id="a_edge33_Node000020_Node000012"><a xlink:title=" ">
<path fill="none" stroke="#63b8ff" d="M411.57,-235.98C387.28,-228.68 360.32,-216.48 342.69,-196.25 329.45,-181.05 325.2,-157.92 323.96,-141.34"/>
<polygon fill="#63b8ff" stroke="#63b8ff" points="327.47,-141.53 323.55,-131.69 320.47,-141.82 327.47,-141.53"/>
</a>
</g>
</g>
<!-- Node20&#45;&gt;Node14 -->
<g id="edge36_Node000020_Node000014" class="edge">
<title>Node20&#45;&gt;Node14</title>
<g id="a_edge36_Node000020_Node000014"><a xlink:title=" ">
<path fill="none" stroke="#63b8ff" d="M478.64,-232.07C486.88,-222.07 498.03,-208.42 507.69,-196.25 523.16,-176.77 540.55,-154.15 552.22,-138.86"/>
<polygon fill="#63b8ff" stroke="#63b8ff" points="554.79,-141.25 558.07,-131.18 549.22,-137.01 554.79,-141.25"/>
</a>
</g>
</g>
<!-- Node20&#45;&gt;Node15 -->
<g id="edge38_Node000020_Node000015" class="edge">
<title>Node20&#45;&gt;Node15</title>
<g id="a_edge38_Node000020_Node000015"><a xlink:title=" ">
<path fill="none" stroke="#63b8ff" d="M521.81,-234.03C524.81,-233.41 527.79,-232.82 530.69,-232.25 626.23,-213.67 663.39,-246.57 746.69,-196.25 768.65,-182.99 785.08,-157.82 794.53,-140.28"/>
<polygon fill="#63b8ff" stroke="#63b8ff" points="797.62,-141.92 799.03,-131.42 791.38,-138.75 797.62,-141.92"/>
</a>
</g>
</g>
<!-- Node20&#45;&gt;Node17 -->
<g id="edge32_Node000020_Node000017" class="edge">
<title>Node20&#45;&gt;Node17</title>
<g id="a_edge32_Node000020_Node000017"><a xlink:title=" ">
<path fill="none" stroke="#63b8ff" d="M521.78,-233.84C524.79,-233.27 527.78,-232.74 530.69,-232.25 674.06,-208.42 713.83,-227.78 855.69,-196.25 858.14,-195.71 860.64,-195.07 863.14,-194.38"/>
<polygon fill="#63b8ff" stroke="#63b8ff" points="863.99,-197.78 872.52,-191.49 861.93,-191.09 863.99,-197.78"/>
</a>
</g>
</g>
<!-- Node20&#45;&gt;Node19 -->
<g id="edge34_Node000020_Node000019" class="edge">
<title>Node20&#45;&gt;Node19</title>
<g id="a_edge34_Node000020_Node000019"><a xlink:title=" ">
<path fill="none" stroke="#63b8ff" d="M521.77,-233.76C524.78,-233.21 527.77,-232.7 530.69,-232.25 708.83,-204.6 758.92,-236.26 934.69,-196.25 936.72,-195.79 938.78,-195.25 940.85,-194.64"/>
<polygon fill="#63b8ff" stroke="#63b8ff" points="941.89,-197.99 950.27,-191.5 939.67,-191.35 941.89,-197.99"/>
</a>
</g>
</g>
<!-- Node21 -->
<g id="Node000021" class="node">
<title>Node21</title>
<g id="a_Node000021"><a xlink:href="../../d8/d65/_priority_tag_8hpp.html" target="_top" xlink:title=" ">
<polygon fill="white" stroke="#666666" points="295.19,-196.25 174.19,-196.25 174.19,-165.75 295.19,-165.75 295.19,-196.25"/>
<text text-anchor="start" x="182.19" y="-182.75" font-family="Helvetica,sans-Serif" font-size="10.00">mimic++/utilities/Priority</text>
<text text-anchor="middle" x="234.69" y="-171.5" font-family="Helvetica,sans-Serif" font-size="10.00">Tag.hpp</text>
</a>
</g>
</g>
<!-- Node20&#45;&gt;Node21 -->
<g id="edge30_Node000020_Node000021" class="edge">
<title>Node20&#45;&gt;Node21</title>
<g id="a_edge30_Node000020_Node000021"><a xlink:title=" ">
<path fill="none" stroke="#63b8ff" d="M413.76,-231.78C379.46,-222.25 334.59,-209.77 298.35,-199.7"/>
<polygon fill="#63b8ff" stroke="#63b8ff" points="299.43,-196.37 288.86,-197.06 297.56,-203.11 299.43,-196.37"/>
</a>
</g>
</g>
<!-- Node23 -->
<g id="Node000023" class="node">
<title>Node23</title>
<g id="a_Node000023"><a xlink:title=" ">
<polygon fill="#e0e0e0" stroke="#999999" points="397.69,-190.62 351.69,-190.62 351.69,-171.38 397.69,-171.38 397.69,-190.62"/>
<text text-anchor="middle" x="374.69" y="-177.12" font-family="Helvetica,sans-Serif" font-size="10.00">iterator</text>
</a>
</g>
</g>
<!-- Node20&#45;&gt;Node23 -->
<g id="edge35_Node000020_Node000023" class="edge">
<title>Node20&#45;&gt;Node23</title>
<g id="a_edge35_Node000020_Node000023"><a xlink:title=" ">
<path fill="none" stroke="#63b8ff" d="M445.82,-231.86C431.12,-221.56 411.48,-207.79 396.57,-197.33"/>
<polygon fill="#63b8ff" stroke="#63b8ff" points="398.98,-194.75 388.79,-191.88 394.96,-200.49 398.98,-194.75"/>
</a>
</g>
</g>
<!-- Node24 -->
<g id="Node000024" class="node">
<title>Node24</title>
<g id="a_Node000024"><a xlink:title=" ">
<polygon fill="#e0e0e0" stroke="#999999" points="465.57,-190.62 415.82,-190.62 415.82,-171.38 465.57,-171.38 465.57,-190.62"/>
<text text-anchor="middle" x="440.69" y="-177.12" font-family="Helvetica,sans-Serif" font-size="10.00">typeinfo</text>
</a>
</g>
</g>
<!-- Node20&#45;&gt;Node24 -->
<g id="edge37_Node000020_Node000024" class="edge">
<title>Node20&#45;&gt;Node24</title>
<g id="a_edge37_Node000020_Node000024"><a xlink:title=" ">
<path fill="none" stroke="#63b8ff" d="M460.8,-231.86C457.13,-222.78 452.39,-211.01 448.43,-201.18"/>
<polygon fill="#63b8ff" stroke="#63b8ff" points="451.8,-200.19 444.82,-192.23 445.31,-202.81 451.8,-200.19"/>
</a>
</g>
</g>
<!-- Node21&#45;&gt;Node22 -->
<g id="edge31_Node000021_Node000022" class="edge">
<title>Node21&#45;&gt;Node22</title>
<g id="a_edge31_Node000021_Node000022"><a xlink:title=" ">
<path fill="none" stroke="#63b8ff" d="M200.73,-165.3C179.02,-155.9 151.08,-143.8 129.93,-134.64"/>
<polygon fill="#63b8ff" stroke="#63b8ff" points="131.51,-131.52 120.94,-130.76 128.73,-137.94 131.51,-131.52"/>
</a>
</g>
</g>
</g>
</svg>

<g id="navigator" transform="translate(0 0)" fill="#404254">
  <rect fill="#f2f5e9" fill-opacity="0.5" stroke="#606060" stroke-width=".5" x="0" y="0" width="60" height="60"/>
  <use id="zoomplus" xlink:href="#zoomPlus" x="17" y="9" onmousedown="handleZoom(evt,'in')"/>
  <use id="zoomminus" xlink:href="#zoomMin" x="42" y="9" onmousedown="handleZoom(evt,'out')"/>
  <use id="reset" xlink:href="#resetDef" x="30" y="36" onmousedown="handleReset()"/>
   <use id="arrowup" xlink:href="#arrowUp" x="0" y="0" onmousedown="handlePan(0,-1)"/>
  <use id="arrowright" xlink:href="#arrowRight" x="0" y="0" onmousedown="handlePan(1,0)"/>
  <use id="arrowdown" xlink:href="#arrowDown" x="0" y="0" onmousedown="handlePan(0,1)"/>
  <use id="arrowleft" xlink:href="#arrowLeft" x="0" y="0" onmousedown="handlePan(-1,0)"/>
</g>
<svg viewBox="0 0 15 15" width="100%" height="30px" preserveAspectRatio="xMaxYMin meet">
 <g id="arrow_out" transform="scale(0.3 0.3)">
  <a xlink:href="paweldac-source__location_8hpp__incl_org.svg" target="_base">
   <rect id="button" ry="5" rx="5" y="6" x="6" height="38" width="38"
        fill="#f2f5e9" fill-opacity="0.5" stroke="#606060" stroke-width="1.0"/>
   <path id="arrow"
     d="M 11.500037,31.436501 C 11.940474,20.09759 22.043105,11.32322 32.158766,21.979434 L 37.068811,17.246167 C 37.068811,17.246167 37.088388,32 37.088388,32 L 22.160133,31.978069 C 22.160133,31.978069 26.997745,27.140456 26.997745,27.140456 C 18.528582,18.264221 13.291696,25.230495 11.500037,31.436501 z"
     style="fill:#404040;"/>
  </a>
 </g>
</svg>

<style type='text/css'>
<![CDATA[
[data-mouse-over-selected='false'] { opacity: 0.7; }
[data-mouse-over-selected='true']  { opacity: 1.0; }
]]>
</style>
<script type="application/ecmascript"><![CDATA[
document.addEventListener('DOMContentLoaded', (event) => {
  highlightEdges();
  highlightAdjacentNodes();
});
]]></script>
</svg>
