<?xml version="1.0" encoding="UTF-8" standalone="no"?>
<!DOCTYPE svg PUBLIC "-//W3C//DTD SVG 1.1//EN"
 "http://www.w3.org/Graphics/SVG/1.1/DTD/svg11.dtd">
<!-- Generated by graphviz version 11.0.0 (20240428.1522)
 -->
<!-- Title: mimic++/Call.hpp Pages: 1 -->
<svg width="435pt" height="304pt"
 viewBox="0.00 0.00 435.12 303.50" xmlns="http://www.w3.org/2000/svg" xmlns:xlink="http://www.w3.org/1999/xlink">
<g id="graph0" class="graph" transform="scale(1 1) rotate(0) translate(4 299.5)">
<title>mimic++/Call.hpp</title>
<!-- Node1 -->
<g id="Node000001" class="node">
<title>Node1</title>
<g id="a_Node000001"><a xlink:title=" ">
<polygon fill="#999999" stroke="#666666" points="185.62,-295.5 93.88,-295.5 93.88,-276.25 185.62,-276.25 185.62,-295.5"/>
<text text-anchor="middle" x="139.75" y="-282" font-family="Helvetica,sans-Serif" font-size="10.00">mimic++/Call.hpp</text>
</a>
</g>
</g>
<!-- Node2 -->
<g id="Node000002" class="node">
<title>Node2</title>
<g id="a_Node000002"><a xlink:href="../../d5/d8a/_expectation_8hpp.html" target="_top" xlink:title=" ">
<polygon fill="white" stroke="#666666" points="125.5,-185 0,-185 0,-165.75 125.5,-165.75 125.5,-185"/>
<text text-anchor="middle" x="62.75" y="-171.5" font-family="Helvetica,sans-Serif" font-size="10.00">mimic++/Expectation.hpp</text>
</a>
</g>
</g>
<!-- Node1&#45;&gt;Node2 -->
<g id="edge1_Node000001_Node000002" class="edge">
<title>Node1&#45;&gt;Node2</title>
<g id="a_edge1_Node000001_Node000002"><a xlink:title=" ">
<path fill="none" stroke="#63b8ff" d="M126.91,-266.79C110.24,-243.3 81.79,-203.2 69.14,-185.38"/>
<polygon fill="#63b8ff" stroke="#63b8ff" points="123.93,-268.63 132.57,-274.76 129.64,-264.58 123.93,-268.63"/>
</a>
</g>
</g>
<!-- Node6 -->
<g id="Node000006" class="node">
<title>Node6</title>
<g id="a_Node000006"><a xlink:href="../../da/dd9/_reporter_8hpp.html" target="_top" xlink:title=" ">
<polygon fill="white" stroke="#666666" points="254.75,-240.25 142.75,-240.25 142.75,-221 254.75,-221 254.75,-240.25"/>
<text text-anchor="middle" x="198.75" y="-226.75" font-family="Helvetica,sans-Serif" font-size="10.00">mimic++/Reporter.hpp</text>
</a>
</g>
</g>
<!-- Node1&#45;&gt;Node6 -->
<g id="edge8_Node000001_Node000006" class="edge">
<title>Node1&#45;&gt;Node6</title>
<g id="a_edge8_Node000001_Node000006"><a xlink:title=" ">
<path fill="none" stroke="#63b8ff" d="M158.02,-268.39C168.21,-259.19 180.49,-248.1 188.89,-240.52"/>
<polygon fill="#63b8ff" stroke="#63b8ff" points="155.96,-265.53 150.88,-274.83 160.65,-270.73 155.96,-265.53"/>
</a>
</g>
</g>
<!-- Node3 -->
<g id="Node000003" class="node">
<title>Node3</title>
<g id="a_Node000003"><a xlink:href="../../d2/d4f/_expectation_builder_8hpp.html" target="_top" xlink:title=" ">
<polygon fill="white" stroke="#666666" points="175.5,-74.5 20,-74.5 20,-55.25 175.5,-55.25 175.5,-74.5"/>
<text text-anchor="middle" x="97.75" y="-61" font-family="Helvetica,sans-Serif" font-size="10.00">mimic++/ExpectationBuilder.hpp</text>
</a>
</g>
</g>
<!-- Node2&#45;&gt;Node3 -->
<g id="edge2_Node000002_Node000003" class="edge">
<title>Node2&#45;&gt;Node3</title>
<g id="a_edge2_Node000002_Node000003"><a xlink:title=" ">
<path fill="none" stroke="#63b8ff" d="M68.33,-154.58C71.98,-141.92 76.94,-125.18 81.75,-110.5 85.85,-97.99 91.08,-83.68 94.42,-74.72"/>
<polygon fill="#63b8ff" stroke="#63b8ff" points="64.97,-153.62 65.6,-164.19 71.7,-155.53 64.97,-153.62"/>
</a>
</g>
</g>
<!-- Node4 -->
<g id="Node000004" class="node">
<title>Node4</title>
<g id="a_Node000004"><a xlink:href="../../d5/dc5/_mock_8hpp.html" target="_top" xlink:title=" ">
<polygon fill="white" stroke="#666666" points="147.38,-19.25 48.12,-19.25 48.12,0 147.38,0 147.38,-19.25"/>
<text text-anchor="middle" x="97.75" y="-5.75" font-family="Helvetica,sans-Serif" font-size="10.00">mimic++/Mock.hpp</text>
</a>
</g>
</g>
<!-- Node2&#45;&gt;Node4 -->
<g id="edge7_Node000002_Node000004" class="edge">
<title>Node2&#45;&gt;Node4</title>
<g id="a_edge7_Node000002_Node000004"><a xlink:title=" ">
<path fill="none" stroke="#63b8ff" d="M45.13,-157.22C22.88,-133.4 -10.11,-89.4 10.75,-55.25 21.72,-37.29 42.48,-26.26 60.96,-19.66"/>
<polygon fill="#63b8ff" stroke="#63b8ff" points="42.46,-159.49 51.94,-164.21 47.47,-154.61 42.46,-159.49"/>
</a>
</g>
</g>
<!-- Node5 -->
<g id="Node000005" class="node">
<title>Node5</title>
<g id="a_Node000005"><a xlink:href="../../d8/de5/_expectation_policies_8hpp.html" target="_top" xlink:title=" ">
<polygon fill="white" stroke="#666666" points="250.75,-129.75 90.75,-129.75 90.75,-110.5 250.75,-110.5 250.75,-129.75"/>
<text text-anchor="middle" x="170.75" y="-116.25" font-family="Helvetica,sans-Serif" font-size="10.00">mimic++/ExpectationPolicies.hpp</text>
</a>
</g>
</g>
<!-- Node2&#45;&gt;Node5 -->
<g id="edge4_Node000002_Node000005" class="edge">
<title>Node2&#45;&gt;Node5</title>
<g id="a_edge4_Node000002_Node000005"><a xlink:title=" ">
<path fill="none" stroke="#63b8ff" d="M91.14,-160.37C110.5,-150.83 135.55,-138.48 152.34,-130.2"/>
<polygon fill="#63b8ff" stroke="#63b8ff" points="89.85,-157.11 82.43,-164.67 92.95,-163.39 89.85,-157.11"/>
</a>
</g>
</g>
<!-- Node3&#45;&gt;Node4 -->
<g id="edge3_Node000003_Node000004" class="edge">
<title>Node3&#45;&gt;Node4</title>
<g id="a_edge3_Node000003_Node000004"><a xlink:title=" ">
<path fill="none" stroke="#63b8ff" d="M97.75,-43.63C97.75,-35.34 97.75,-26.17 97.75,-19.61"/>
<polygon fill="#63b8ff" stroke="#63b8ff" points="94.25,-43.57 97.75,-53.57 101.25,-43.57 94.25,-43.57"/>
</a>
</g>
</g>
<!-- Node5&#45;&gt;Node3 -->
<g id="edge5_Node000005_Node000003" class="edge">
<title>Node5&#45;&gt;Node3</title>
<g id="a_edge5_Node000005_Node000003"><a xlink:title=" ">
<path fill="none" stroke="#63b8ff" d="M149.28,-103.47C136.47,-94.12 120.65,-82.58 109.95,-74.77"/>
<polygon fill="#63b8ff" stroke="#63b8ff" points="147,-106.13 157.14,-109.2 151.13,-100.48 147,-106.13"/>
</a>
</g>
</g>
<!-- Node5&#45;&gt;Node4 -->
<g id="edge6_Node000005_Node000004" class="edge">
<title>Node5&#45;&gt;Node4</title>
<g id="a_edge6_Node000005_Node000004"><a xlink:title=" ">
<path fill="none" stroke="#63b8ff" d="M181.79,-100.2C188.03,-86.8 193.07,-68.87 184.75,-55.25 173.78,-37.29 153.02,-26.26 134.54,-19.66"/>
<polygon fill="#63b8ff" stroke="#63b8ff" points="178.8,-98.37 177.24,-108.85 184.99,-101.63 178.8,-98.37"/>
</a>
</g>
</g>
<!-- Node6&#45;&gt;Node2 -->
<g id="edge9_Node000006_Node000002" class="edge">
<title>Node6&#45;&gt;Node2</title>
<g id="a_edge9_Node000006_Node000002"><a xlink:title=" ">
<path fill="none" stroke="#63b8ff" d="M165.01,-216.41C140.39,-206.77 107.66,-193.96 85.93,-185.45"/>
<polygon fill="#63b8ff" stroke="#63b8ff" points="163.68,-219.65 174.27,-220.04 166.23,-213.13 163.68,-219.65"/>
</a>
</g>
</g>
<!-- Node7 -->
<g id="Node000007" class="node">
<title>Node7</title>
<g id="a_Node000007"><a xlink:href="../../d8/de4/_sequence_8hpp.html" target="_top" xlink:title=" ">
<polygon fill="white" stroke="#666666" points="427.12,-185 308.38,-185 308.38,-165.75 427.12,-165.75 427.12,-185"/>
<text text-anchor="middle" x="367.75" y="-171.5" font-family="Helvetica,sans-Serif" font-size="10.00">mimic++/Sequence.hpp</text>
</a>
</g>
</g>
<!-- Node6&#45;&gt;Node7 -->
<g id="edge10_Node000006_Node000007" class="edge">
<title>Node6&#45;&gt;Node7</title>
<g id="a_edge10_Node000006_Node000007"><a xlink:title=" ">
<path fill="none" stroke="#63b8ff" d="M238.22,-217.19C269.07,-207.47 311.21,-194.19 338.94,-185.45"/>
<polygon fill="#63b8ff" stroke="#63b8ff" points="237.35,-213.79 228.86,-220.14 239.45,-220.47 237.35,-213.79"/>
</a>
</g>
</g>
<!-- Node8 -->
<g id="Node000008" class="node">
<title>Node8</title>
<g id="a_Node000008"><a xlink:href="../../d3/d04/_catch2_8hpp.html" target="_top" xlink:title=" ">
<polygon fill="white" stroke="#666666" points="290,-185 143.5,-185 143.5,-165.75 290,-165.75 290,-185"/>
<text text-anchor="middle" x="216.75" y="-171.5" font-family="Helvetica,sans-Serif" font-size="10.00">mimic++/adapters/Catch2.hpp</text>
</a>
</g>
</g>
<!-- Node6&#45;&gt;Node8 -->
<g id="edge11_Node000006_Node000008" class="edge">
<title>Node6&#45;&gt;Node8</title>
<g id="a_edge11_Node000006_Node000008"><a xlink:title=" ">
<path fill="none" stroke="#63b8ff" d="M205.4,-209.96C208.25,-201.52 211.44,-192.08 213.71,-185.36"/>
<polygon fill="#63b8ff" stroke="#63b8ff" points="202.09,-208.8 202.21,-219.4 208.73,-211.05 202.09,-208.8"/>
</a>
</g>
</g>
</g>
</svg>
