<?xml version="1.0" encoding="UTF-8" standalone="no"?>
<!DOCTYPE svg PUBLIC "-//W3C//DTD SVG 1.1//EN"
 "http://www.w3.org/Graphics/SVG/1.1/DTD/svg11.dtd">
<!-- Generated by graphviz version 12.2.1 (20241206.2353)
 -->
<!-- Title: mimic++/Call.hpp Pages: 1 -->
<!--zoomable 580 -->

<svg id="main" version="1.1" xmlns="http://www.w3.org/2000/svg" xmlns:xlink="http://www.w3.org/1999/xlink" xml:space="preserve" onload="init(evt)">

<style type="text/css"><![CDATA[
.node, .edge {opacity: 0.7;}
.node.selected, .edge.selected {opacity: 1;}
.edge:hover path { stroke: red; }
.edge:hover polygon { stroke: red; fill: red; }
]]></style>

<defs>
  <circle id="rim" cx="0" cy="0" r="7"/>
  <circle id="rim2" cx="0" cy="0" r="3.5"/>
  <g id="zoomPlus">
    <use xlink:href="#rim" fill="#404040"><set attributeName="fill" to="#808080" begin="zoomplus.mouseover" end="zoomplus.mouseout"/></use>
    <path d="M-4,0h8M0,-4v8" fill="none" stroke="white" stroke-width="1.5" pointer-events="none"/>
  </g>
  <g id="zoomMin">
    <use xlink:href="#rim" fill="#404040"><set attributeName="fill" to="#808080" begin="zoomminus.mouseover" end="zoomminus.mouseout"/></use>
    <path d="M-4,0h8" fill="none" stroke="white" stroke-width="1.5" pointer-events="none"/>
  </g>
  <g id="arrowUp" transform="translate(30 24)">
    <use xlink:href="#rim"/>
    <path pointer-events="none" fill="none" stroke="white" stroke-width="1.5" d="M0,-3.0v7 M-2.5,-0.5L0,-3.0L2.5,-0.5"/>
  </g>
  <g id="arrowRight" transform="rotate(90) translate(36 -43)">
    <use xlink:href="#rim"/>
    <path pointer-events="none" fill="none" stroke="white" stroke-width="1.5" d="M0,-3.0v7 M-2.5,-0.5L0,-3.0L2.5,-0.5"/>
  </g>
  <g id="arrowDown" transform="rotate(180) translate(-30 -48)">
    <use xlink:href="#rim"/>
    <path pointer-events="none" fill="none" stroke="white" stroke-width="1.5" d="M0,-3.0v7 M-2.5,-0.5L0,-3.0L2.5,-0.5"/>
  </g>
  <g id="arrowLeft" transform="rotate(270) translate(-36 17)">
    <use xlink:href="#rim"/>
    <path pointer-events="none" fill="none" stroke="white" stroke-width="1.5" d="M0,-3.0v7 M-2.5,-0.5L0,-3.0L2.5,-0.5"/>
  </g>
  <g id="resetDef">
    <use xlink:href="#rim2" fill="#404040"><set attributeName="fill" to="#808080" begin="reset.mouseover" end="reset.mouseout"/></use>
  </g>
</defs>
<script type="application/ecmascript">
var viewWidth = 1002;
var viewHeight = 580;
var sectionId = 'dynsection-1';
</script>
<script type="application/ecmascript" xlink:href="../../svg.min.js"/>
<svg id="graph" class="graph">
<g id="viewport">
<title>mimic++/Call.hpp</title>
<!-- Node1 -->
<g id="Node000001" class="node">
<title>Node1</title>
<g id="a_Node000001"><a xlink:title=" ">
<polygon fill="#999999" stroke="#666666" points="241.88,-571.75 150.12,-571.75 150.12,-552.5 241.88,-552.5 241.88,-571.75"/>
<text text-anchor="middle" x="196" y="-558.25" font-family="Helvetica,sans-Serif" font-size="10.00">mimic++/Call.hpp</text>
</a>
</g>
</g>
<!-- Node2 -->
<g id="Node000002" class="node">
<title>Node2</title>
<g id="a_Node000002"><a xlink:href="../../d5/d8a/_expectation_8hpp.html" target="_top" xlink:title=" ">
<polygon fill="white" stroke="#666666" points="515.75,-295.5 390.25,-295.5 390.25,-276.25 515.75,-276.25 515.75,-295.5"/>
<text text-anchor="middle" x="453" y="-282" font-family="Helvetica,sans-Serif" font-size="10.00">mimic++/Expectation.hpp</text>
</a>
</g>
</g>
<!-- Node1&#45;&gt;Node2 -->
<g id="edge1_Node000001_Node000002" class="edge">
<title>Node1&#45;&gt;Node2</title>
<g id="a_edge1_Node000001_Node000002"><a xlink:title=" ">
<path fill="none" stroke="#63b8ff" d="M144.53,-548.8C98.42,-534.32 38,-505.3 38,-452.62 38,-452.62 38,-452.62 38,-395.38 38,-323.51 273.88,-298.34 389.97,-290.3"/>
<polygon fill="#63b8ff" stroke="#63b8ff" points="143.28,-552.07 153.86,-551.57 145.27,-545.36 143.28,-552.07"/>
</a>
</g>
</g>
<!-- Node6 -->
<g id="Node000006" class="node">
<title>Node6</title>
<g id="a_Node000006"><a xlink:href="../../d0/db9/mimic_09_09_8hpp.html" target="_top" xlink:title=" ">
<polygon fill="white" stroke="#666666" points="620.75,-19.25 507.25,-19.25 507.25,0 620.75,0 620.75,-19.25"/>
<text text-anchor="middle" x="564" y="-5.75" font-family="Helvetica,sans-Serif" font-size="10.00">mimic++/mimic++.hpp</text>
</a>
</g>
</g>
<!-- Node1&#45;&gt;Node6 -->
<g id="edge34_Node000001_Node000006" class="edge">
<title>Node1&#45;&gt;Node6</title>
<g id="a_edge34_Node000001_Node000006"><a xlink:title=" ">
<path fill="none" stroke="#63b8ff" d="M138.81,-553.98C80.96,-543.17 0,-516.62 0,-452.62 0,-452.62 0,-452.62 0,-119.12 0,-64.5 53.18,-72.52 105,-55.25 178.11,-30.88 400.8,-17.93 506.78,-13"/>
<polygon fill="#63b8ff" stroke="#63b8ff" points="138.1,-557.41 148.56,-555.67 139.31,-550.51 138.1,-557.41"/>
</a>
</g>
</g>
<!-- Node9 -->
<g id="Node000009" class="node">
<title>Node9</title>
<g id="a_Node000009"><a xlink:href="../../da/dd9/_reporter_8hpp.html" target="_top" xlink:title=" ">
<polygon fill="white" stroke="#666666" points="494,-461.25 382,-461.25 382,-442 494,-442 494,-461.25"/>
<text text-anchor="middle" x="438" y="-447.75" font-family="Helvetica,sans-Serif" font-size="10.00">mimic++/Reporter.hpp</text>
</a>
</g>
</g>
<!-- Node1&#45;&gt;Node9 -->
<g id="edge16_Node000001_Node000009" class="edge">
<title>Node1&#45;&gt;Node9</title>
<g id="a_edge16_Node000001_Node000009"><a xlink:title=" ">
<path fill="none" stroke="#63b8ff" d="M226.42,-547.48C276.54,-525.02 375.13,-480.81 417.67,-461.74"/>
<polygon fill="#63b8ff" stroke="#63b8ff" points="225.29,-544.16 217.6,-551.44 228.15,-550.54 225.29,-544.16"/>
</a>
</g>
</g>
<!-- Node16 -->
<g id="Node000016" class="node">
<title>Node16</title>
<g id="a_Node000016"><a xlink:href="../../d0/d3b/_reports_8hpp.html" target="_top" xlink:title=" ">
<polygon fill="white" stroke="#666666" points="573.5,-516.5 464.5,-516.5 464.5,-497.25 573.5,-497.25 573.5,-516.5"/>
<text text-anchor="middle" x="519" y="-503" font-family="Helvetica,sans-Serif" font-size="10.00">mimic++/Reports.hpp</text>
</a>
</g>
</g>
<!-- Node1&#45;&gt;Node16 -->
<g id="edge30_Node000001_Node000016" class="edge">
<title>Node1&#45;&gt;Node16</title>
<g id="a_edge30_Node000001_Node000016"><a xlink:title=" ">
<path fill="none" stroke="#63b8ff" d="M253.37,-551.67C312.96,-541.84 405.53,-526.58 464.16,-516.92"/>
<polygon fill="#63b8ff" stroke="#63b8ff" points="253.07,-548.17 243.77,-553.25 254.21,-555.08 253.07,-548.17"/>
</a>
</g>
</g>
<!-- Node3 -->
<g id="Node000003" class="node">
<title>Node3</title>
<g id="a_Node000003"><a xlink:href="../../d2/d4f/_expectation_builder_8hpp.html" target="_top" xlink:title=" ">
<polygon fill="white" stroke="#666666" points="746.75,-185 591.25,-185 591.25,-165.75 746.75,-165.75 746.75,-185"/>
<text text-anchor="middle" x="669" y="-171.5" font-family="Helvetica,sans-Serif" font-size="10.00">mimic++/ExpectationBuilder.hpp</text>
</a>
</g>
</g>
<!-- Node2&#45;&gt;Node3 -->
<g id="edge2_Node000002_Node000003" class="edge">
<title>Node2&#45;&gt;Node3</title>
<g id="a_edge2_Node000002_Node000003"><a xlink:title=" ">
<path fill="none" stroke="#63b8ff" d="M527.34,-275.92C575.39,-268.68 632.16,-256.94 650,-240.25 665.54,-225.7 668.56,-199.07 669.03,-185.24"/>
<polygon fill="#63b8ff" stroke="#63b8ff" points="526.87,-272.45 517.48,-277.35 527.88,-279.38 526.87,-272.45"/>
</a>
</g>
</g>
<!-- Node4 -->
<g id="Node000004" class="node">
<title>Node4</title>
<g id="a_Node000004"><a xlink:href="../../d5/dc5/_mock_8hpp.html" target="_top" xlink:title=" ">
<polygon fill="white" stroke="#666666" points="530.62,-129.75 431.38,-129.75 431.38,-110.5 530.62,-110.5 530.62,-129.75"/>
<text text-anchor="middle" x="481" y="-116.25" font-family="Helvetica,sans-Serif" font-size="10.00">mimic++/Mock.hpp</text>
</a>
</g>
</g>
<!-- Node2&#45;&gt;Node4 -->
<g id="edge14_Node000002_Node000004" class="edge">
<title>Node2&#45;&gt;Node4</title>
<g id="a_edge14_Node000002_Node000004"><a xlink:title=" ">
<path fill="none" stroke="#63b8ff" d="M456.37,-265.19C462.47,-229.5 475.13,-155.46 479.49,-129.97"/>
<polygon fill="#63b8ff" stroke="#63b8ff" points="453,-264.13 454.76,-274.58 459.9,-265.31 453,-264.13"/>
</a>
</g>
</g>
<!-- Node2&#45;&gt;Node6 -->
<g id="edge15_Node000002_Node000006" class="edge">
<title>Node2&#45;&gt;Node6</title>
<g id="a_edge15_Node000002_Node000006"><a xlink:title=" ">
<path fill="none" stroke="#63b8ff" d="M378.86,-281.74C308.04,-274.3 212,-250.53 212,-176.38 212,-176.38 212,-176.38 212,-119.12 212,-89.51 208.49,-74.5 231,-55.25 271.4,-20.71 423.05,-12.73 507.07,-11"/>
<polygon fill="#63b8ff" stroke="#63b8ff" points="378.2,-285.2 388.49,-282.66 378.87,-278.23 378.2,-285.2"/>
</a>
</g>
</g>
<!-- Node8 -->
<g id="Node000008" class="node">
<title>Node8</title>
<g id="a_Node000008"><a xlink:href="../../d8/de5/_expectation_policies_8hpp.html" target="_top" xlink:title=" ">
<polygon fill="white" stroke="#666666" points="641,-240.25 481,-240.25 481,-221 641,-221 641,-240.25"/>
<text text-anchor="middle" x="561" y="-226.75" font-family="Helvetica,sans-Serif" font-size="10.00">mimic++/ExpectationPolicies.hpp</text>
</a>
</g>
</g>
<!-- Node2&#45;&gt;Node8 -->
<g id="edge10_Node000002_Node000008" class="edge">
<title>Node2&#45;&gt;Node8</title>
<g id="a_edge10_Node000002_Node000008"><a xlink:title=" ">
<path fill="none" stroke="#63b8ff" d="M481.39,-270.87C500.75,-261.33 525.8,-248.98 542.59,-240.7"/>
<polygon fill="#63b8ff" stroke="#63b8ff" points="480.1,-267.61 472.68,-275.17 483.2,-273.89 480.1,-267.61"/>
</a>
</g>
</g>
<!-- Node3&#45;&gt;Node4 -->
<g id="edge3_Node000003_Node000004" class="edge">
<title>Node3&#45;&gt;Node4</title>
<g id="a_edge3_Node000003_Node000004"><a xlink:title=" ">
<path fill="none" stroke="#63b8ff" d="M626.44,-162.32C592.02,-152.57 544.3,-139.05 513.05,-130.2"/>
<polygon fill="#63b8ff" stroke="#63b8ff" points="625.08,-165.57 635.65,-164.93 626.98,-158.84 625.08,-165.57"/>
</a>
</g>
</g>
<!-- Node3&#45;&gt;Node6 -->
<g id="edge9_Node000003_Node000006" class="edge">
<title>Node3&#45;&gt;Node6</title>
<g id="a_edge9_Node000003_Node000006"><a xlink:title=" ">
<path fill="none" stroke="#63b8ff" d="M663.13,-154.38C655.18,-129.49 639.25,-86.47 616,-55.25 605.2,-40.75 588.89,-27.73 577.43,-19.56"/>
<polygon fill="#63b8ff" stroke="#63b8ff" points="659.76,-155.31 666.03,-163.85 666.45,-153.26 659.76,-155.31"/>
</a>
</g>
</g>
<!-- Node5 -->
<g id="Node000005" class="node">
<title>Node5</title>
<g id="a_Node000005"><a xlink:href="../../d9/dc3/_interface_mock_8hpp.html" target="_top" xlink:title=" ">
<polygon fill="white" stroke="#666666" points="377.75,-74.5 240.25,-74.5 240.25,-55.25 377.75,-55.25 377.75,-74.5"/>
<text text-anchor="middle" x="309" y="-61" font-family="Helvetica,sans-Serif" font-size="10.00">mimic++/InterfaceMock.hpp</text>
</a>
</g>
</g>
<!-- Node4&#45;&gt;Node5 -->
<g id="edge4_Node000004_Node000005" class="edge">
<title>Node4&#45;&gt;Node5</title>
<g id="a_edge4_Node000004_Node000005"><a xlink:title=" ">
<path fill="none" stroke="#63b8ff" d="M440.83,-106.69C409.44,-96.97 366.54,-83.69 338.32,-74.95"/>
<polygon fill="#63b8ff" stroke="#63b8ff" points="439.79,-110.03 450.38,-109.64 441.86,-103.34 439.79,-110.03"/>
</a>
</g>
</g>
<!-- Node4&#45;&gt;Node6 -->
<g id="edge8_Node000004_Node000006" class="edge">
<title>Node4&#45;&gt;Node6</title>
<g id="a_edge8_Node000004_Node000006"><a xlink:title=" ">
<path fill="none" stroke="#63b8ff" d="M510.37,-104.42C522.64,-96.97 536.08,-86.85 545,-74.5 557.19,-57.62 561.63,-32.9 563.19,-19.71"/>
<polygon fill="#63b8ff" stroke="#63b8ff" points="508.75,-101.32 501.79,-109.31 512.21,-107.41 508.75,-101.32"/>
</a>
</g>
</g>
<!-- Node7 -->
<g id="Node000007" class="node">
<title>Node7</title>
<g id="a_Node000007"><a xlink:href="../../d5/d92/_object_watcher_8hpp.html" target="_top" xlink:title=" ">
<polygon fill="white" stroke="#666666" points="535.88,-74.5 396.12,-74.5 396.12,-55.25 535.88,-55.25 535.88,-74.5"/>
<text text-anchor="middle" x="466" y="-61" font-family="Helvetica,sans-Serif" font-size="10.00">mimic++/ObjectWatcher.hpp</text>
</a>
</g>
</g>
<!-- Node4&#45;&gt;Node7 -->
<g id="edge6_Node000004_Node000007" class="edge">
<title>Node4&#45;&gt;Node7</title>
<g id="a_edge6_Node000004_Node000007"><a xlink:title=" ">
<path fill="none" stroke="#63b8ff" d="M475.46,-99.46C473.08,-91.02 470.42,-81.58 468.53,-74.86"/>
<polygon fill="#63b8ff" stroke="#63b8ff" points="472.03,-100.2 478.11,-108.88 478.77,-98.3 472.03,-100.2"/>
</a>
</g>
</g>
<!-- Node5&#45;&gt;Node6 -->
<g id="edge5_Node000005_Node000006" class="edge">
<title>Node5&#45;&gt;Node6</title>
<g id="a_edge5_Node000005_Node000006"><a xlink:title=" ">
<path fill="none" stroke="#63b8ff" d="M363.72,-52.45C410.64,-42.65 477.33,-28.72 520.63,-19.68"/>
<polygon fill="#63b8ff" stroke="#63b8ff" points="363.1,-49 354.03,-54.47 364.53,-55.85 363.1,-49"/>
</a>
</g>
</g>
<!-- Node7&#45;&gt;Node6 -->
<g id="edge7_Node000007_Node000006" class="edge">
<title>Node7&#45;&gt;Node6</title>
<g id="a_edge7_Node000007_Node000006"><a xlink:title=" ">
<path fill="none" stroke="#63b8ff" d="M492.25,-49.61C509.74,-40.11 532.2,-27.9 547.29,-19.7"/>
<polygon fill="#63b8ff" stroke="#63b8ff" points="491.07,-46.27 483.95,-54.12 494.41,-52.42 491.07,-46.27"/>
</a>
</g>
</g>
<!-- Node8&#45;&gt;Node3 -->
<g id="edge11_Node000008_Node000003" class="edge">
<title>Node8&#45;&gt;Node3</title>
<g id="a_edge11_Node000008_Node000003"><a xlink:title=" ">
<path fill="none" stroke="#63b8ff" d="M589.39,-215.62C608.75,-206.08 633.8,-193.73 650.59,-185.45"/>
<polygon fill="#63b8ff" stroke="#63b8ff" points="588.1,-212.36 580.68,-219.92 591.2,-218.64 588.1,-212.36"/>
</a>
</g>
</g>
<!-- Node8&#45;&gt;Node4 -->
<g id="edge12_Node000008_Node000004" class="edge">
<title>Node8&#45;&gt;Node4</title>
<g id="a_edge12_Node000008_Node000004"><a xlink:title=" ">
<path fill="none" stroke="#63b8ff" d="M547.66,-211.54C530.34,-188.05 500.78,-147.95 487.64,-130.13"/>
<polygon fill="#63b8ff" stroke="#63b8ff" points="544.8,-213.56 553.56,-219.53 550.44,-209.4 544.8,-213.56"/>
</a>
</g>
</g>
<!-- Node8&#45;&gt;Node6 -->
<g id="edge13_Node000008_Node000006" class="edge">
<title>Node8&#45;&gt;Node6</title>
<g id="a_edge13_Node000008_Node000006"><a xlink:title=" ">
<path fill="none" stroke="#63b8ff" d="M561.52,-209.27C562.25,-179.63 563.53,-122.83 564,-74.5 564.19,-54.98 564.12,-32.11 564.06,-19.72"/>
<polygon fill="#63b8ff" stroke="#63b8ff" points="558.03,-208.94 561.28,-219.02 565.02,-209.11 558.03,-208.94"/>
</a>
</g>
</g>
<!-- Node9&#45;&gt;Node2 -->
<g id="edge17_Node000009_Node000002" class="edge">
<title>Node9&#45;&gt;Node2</title>
<g id="a_edge17_Node000009_Node000002"><a xlink:title=" ">
<path fill="none" stroke="#63b8ff" d="M439.85,-430.47C443.13,-394.61 449.86,-321.1 452.19,-295.72"/>
<polygon fill="#63b8ff" stroke="#63b8ff" points="436.37,-430.04 438.94,-440.31 443.34,-430.67 436.37,-430.04"/>
</a>
</g>
</g>
<!-- Node9&#45;&gt;Node6 -->
<g id="edge29_Node000009_Node000006" class="edge">
<title>Node9&#45;&gt;Node6</title>
<g id="a_edge29_Node000009_Node000006"><a xlink:title=" ">
<path fill="none" stroke="#63b8ff" d="M370.37,-450.32C282.42,-448.52 135.25,-440.28 95,-406 72.45,-386.79 76,-371.74 76,-342.12 76,-342.12 76,-342.12 76,-119.12 76,-31.68 378.34,-14.67 507.07,-11.39"/>
<polygon fill="#63b8ff" stroke="#63b8ff" points="370.27,-453.82 380.33,-450.49 370.4,-446.82 370.27,-453.82"/>
</a>
</g>
</g>
<!-- Node10 -->
<g id="Node000010" class="node">
<title>Node10</title>
<g id="a_Node000010"><a xlink:href="../../d8/de4/_sequence_8hpp.html" target="_top" xlink:title=" ">
<polygon fill="white" stroke="#666666" points="928.38,-406 809.62,-406 809.62,-386.75 928.38,-386.75 928.38,-406"/>
<text text-anchor="middle" x="869" y="-392.5" font-family="Helvetica,sans-Serif" font-size="10.00">mimic++/Sequence.hpp</text>
</a>
</g>
</g>
<!-- Node9&#45;&gt;Node10 -->
<g id="edge18_Node000009_Node000010" class="edge">
<title>Node9&#45;&gt;Node10</title>
<g id="a_edge18_Node000009_Node000010"><a xlink:title=" ">
<path fill="none" stroke="#63b8ff" d="M505.7,-442.31C578.43,-433.38 697.4,-418.74 800,-406 803,-405.63 806.06,-405.25 809.16,-404.86"/>
<polygon fill="#63b8ff" stroke="#63b8ff" points="505.44,-438.82 495.94,-443.51 506.29,-445.77 505.44,-438.82"/>
</a>
</g>
</g>
<!-- Node12 -->
<g id="Node000012" class="node">
<title>Node12</title>
<g id="a_Node000012"><a xlink:href="../../d9/d42/_boost_test_8hpp.html" target="_top" xlink:title=" ">
<polygon fill="white" stroke="#666666" points="626.38,-406 465.62,-406 465.62,-386.75 626.38,-386.75 626.38,-406"/>
<text text-anchor="middle" x="546" y="-392.5" font-family="Helvetica,sans-Serif" font-size="10.00">mimic++/adapters/BoostTest.hpp</text>
</a>
</g>
</g>
<!-- Node9&#45;&gt;Node12 -->
<g id="edge25_Node000009_Node000012" class="edge">
<title>Node9&#45;&gt;Node12</title>
<g id="a_edge25_Node000009_Node000012"><a xlink:title=" ">
<path fill="none" stroke="#63b8ff" d="M466.39,-436.62C485.75,-427.08 510.8,-414.73 527.59,-406.45"/>
<polygon fill="#63b8ff" stroke="#63b8ff" points="465.1,-433.36 457.68,-440.92 468.2,-439.64 465.1,-433.36"/>
</a>
</g>
</g>
<!-- Node13 -->
<g id="Node000013" class="node">
<title>Node13</title>
<g id="a_Node000013"><a xlink:href="../../d3/d04/_catch2_8hpp.html" target="_top" xlink:title=" ">
<polygon fill="white" stroke="#666666" points="791.25,-406 644.75,-406 644.75,-386.75 791.25,-386.75 791.25,-406"/>
<text text-anchor="middle" x="718" y="-392.5" font-family="Helvetica,sans-Serif" font-size="10.00">mimic++/adapters/Catch2.hpp</text>
</a>
</g>
</g>
<!-- Node9&#45;&gt;Node13 -->
<g id="edge26_Node000009_Node000013" class="edge">
<title>Node9&#45;&gt;Node13</title>
<g id="a_edge26_Node000009_Node000013"><a xlink:title=" ">
<path fill="none" stroke="#63b8ff" d="M497.11,-439.38C548.68,-429.58 622.53,-415.53 670.38,-406.43"/>
<polygon fill="#63b8ff" stroke="#63b8ff" points="496.47,-435.94 487.3,-441.25 497.78,-442.82 496.47,-435.94"/>
</a>
</g>
</g>
<!-- Node14 -->
<g id="Node000014" class="node">
<title>Node14</title>
<g id="a_Node000014"><a xlink:href="../../dc/d42/_doctest_8hpp.html" target="_top" xlink:title=" ">
<polygon fill="white" stroke="#666666" points="253.75,-406 104.25,-406 104.25,-386.75 253.75,-386.75 253.75,-406"/>
<text text-anchor="middle" x="179" y="-392.5" font-family="Helvetica,sans-Serif" font-size="10.00">mimic++/adapters/Doctest.hpp</text>
</a>
</g>
</g>
<!-- Node9&#45;&gt;Node14 -->
<g id="edge27_Node000009_Node000014" class="edge">
<title>Node9&#45;&gt;Node14</title>
<g id="a_edge27_Node000009_Node000014"><a xlink:title=" ">
<path fill="none" stroke="#63b8ff" d="M382.72,-439.26C335.05,-429.46 267.12,-415.49 223.05,-406.43"/>
<polygon fill="#63b8ff" stroke="#63b8ff" points="381.79,-442.64 392.29,-441.23 383.2,-435.78 381.79,-442.64"/>
</a>
</g>
</g>
<!-- Node15 -->
<g id="Node000015" class="node">
<title>Node15</title>
<g id="a_Node000015"><a xlink:href="../../d5/db1/gtest_8hpp.html" target="_top" xlink:title=" ">
<polygon fill="white" stroke="#666666" points="409.75,-406 272.25,-406 272.25,-386.75 409.75,-386.75 409.75,-406"/>
<text text-anchor="middle" x="341" y="-392.5" font-family="Helvetica,sans-Serif" font-size="10.00">mimic++/adapters/gtest.hpp</text>
</a>
</g>
</g>
<!-- Node9&#45;&gt;Node15 -->
<g id="edge28_Node000009_Node000015" class="edge">
<title>Node9&#45;&gt;Node15</title>
<g id="a_edge28_Node000009_Node000015"><a xlink:title=" ">
<path fill="none" stroke="#63b8ff" d="M411.53,-436.09C394.29,-426.63 372.33,-414.58 357.54,-406.45"/>
<polygon fill="#63b8ff" stroke="#63b8ff" points="409.77,-439.12 420.22,-440.86 413.14,-432.98 409.77,-439.12"/>
</a>
</g>
</g>
<!-- Node10&#45;&gt;Node3 -->
<g id="edge23_Node000010_Node000003" class="edge">
<title>Node10&#45;&gt;Node3</title>
<g id="a_edge23_Node000010_Node000003"><a xlink:title=" ">
<path fill="none" stroke="#63b8ff" d="M818.92,-382.75C799.12,-375.83 777.26,-365.56 761,-350.75 707.09,-301.67 679.2,-213.55 671.35,-185.33"/>
<polygon fill="#63b8ff" stroke="#63b8ff" points="817.63,-386.01 828.22,-385.78 819.8,-379.35 817.63,-386.01"/>
</a>
</g>
</g>
<!-- Node10&#45;&gt;Node6 -->
<g id="edge24_Node000010_Node000006" class="edge">
<title>Node10&#45;&gt;Node6</title>
<g id="a_edge24_Node000010_Node000006"><a xlink:title=" ">
<path fill="none" stroke="#63b8ff" d="M834.34,-381.58C820.04,-374.33 804.41,-364.12 794,-350.75 775.8,-327.38 775,-316.49 775,-286.88 775,-286.88 775,-286.88 775,-119.12 775,-49.72 683.59,-24.67 621.1,-15.66"/>
<polygon fill="#63b8ff" stroke="#63b8ff" points="832.52,-384.59 843.06,-385.7 835.51,-378.26 832.52,-384.59"/>
</a>
</g>
</g>
<!-- Node11 -->
<g id="Node000011" class="node">
<title>Node11</title>
<g id="a_Node000011"><a xlink:href="../../d6/d17/_control_policy_8hpp.html" target="_top" xlink:title=" ">
<polygon fill="white" stroke="#666666" points="935.12,-350.75 802.88,-350.75 802.88,-331.5 935.12,-331.5 935.12,-350.75"/>
<text text-anchor="middle" x="869" y="-337.25" font-family="Helvetica,sans-Serif" font-size="10.00">mimic++/ControlPolicy.hpp</text>
</a>
</g>
</g>
<!-- Node10&#45;&gt;Node11 -->
<g id="edge19_Node000010_Node000011" class="edge">
<title>Node10&#45;&gt;Node11</title>
<g id="a_edge19_Node000010_Node000011"><a xlink:title=" ">
<path fill="none" stroke="#63b8ff" d="M869,-375.13C869,-366.84 869,-357.67 869,-351.11"/>
<polygon fill="#63b8ff" stroke="#63b8ff" points="865.5,-375.07 869,-385.07 872.5,-375.07 865.5,-375.07"/>
</a>
</g>
</g>
<!-- Node11&#45;&gt;Node2 -->
<g id="edge20_Node000011_Node000002" class="edge">
<title>Node11&#45;&gt;Node2</title>
<g id="a_edge20_Node000011_Node000002"><a xlink:title=" ">
<path fill="none" stroke="#63b8ff" d="M791.21,-330.17C711.72,-319.99 589.77,-304.38 516.07,-294.95"/>
<polygon fill="#63b8ff" stroke="#63b8ff" points="790.76,-333.64 801.12,-331.44 791.65,-326.69 790.76,-333.64"/>
</a>
</g>
</g>
<!-- Node11&#45;&gt;Node3 -->
<g id="edge21_Node000011_Node000003" class="edge">
<title>Node11&#45;&gt;Node3</title>
<g id="a_edge21_Node000011_Node000003"><a xlink:title=" ">
<path fill="none" stroke="#63b8ff" d="M852.05,-323.5C827.42,-299.69 779.87,-254.98 736,-221 718.76,-207.65 697.65,-194 683.79,-185.37"/>
<polygon fill="#63b8ff" stroke="#63b8ff" points="849.35,-325.76 858.96,-330.22 854.23,-320.74 849.35,-325.76"/>
</a>
</g>
</g>
<!-- Node11&#45;&gt;Node6 -->
<g id="edge22_Node000011_Node000006" class="edge">
<title>Node11&#45;&gt;Node6</title>
<g id="a_edge22_Node000011_Node000006"><a xlink:title=" ">
<path fill="none" stroke="#63b8ff" d="M867.8,-319.77C866.62,-297.97 865,-262.36 865,-231.62 865,-231.62 865,-231.62 865,-119.12 865,-75 828.78,-74.34 789,-55.25 735.5,-29.58 668.06,-18.68 621.03,-14.04"/>
<polygon fill="#63b8ff" stroke="#63b8ff" points="864.3,-319.83 868.36,-329.62 871.29,-319.43 864.3,-319.83"/>
</a>
</g>
</g>
<!-- Node16&#45;&gt;Node6 -->
<g id="edge33_Node000016_Node000006" class="edge">
<title>Node16&#45;&gt;Node6</title>
<g id="a_edge33_Node000016_Node000006"><a xlink:title=" ">
<path fill="none" stroke="#63b8ff" d="M585.37,-504.44C716.02,-499.8 994,-480.2 994,-397.38 994,-397.38 994,-397.38 994,-119.12 994,-43.09 738.07,-19.8 621.1,-13.12"/>
<polygon fill="#63b8ff" stroke="#63b8ff" points="585.34,-500.94 575.47,-504.77 585.58,-507.93 585.34,-500.94"/>
</a>
</g>
</g>
<!-- Node16&#45;&gt;Node9 -->
<g id="edge32_Node000016_Node000009" class="edge">
<title>Node16&#45;&gt;Node9</title>
<g id="a_edge32_Node000016_Node000009"><a xlink:title=" ">
<path fill="none" stroke="#63b8ff" d="M495.66,-490.53C481.46,-481.2 463.81,-469.6 451.81,-461.7"/>
<polygon fill="#63b8ff" stroke="#63b8ff" points="493.72,-493.44 503.99,-496.01 497.56,-487.59 493.72,-493.44"/>
</a>
</g>
</g>
<!-- Node16&#45;&gt;Node11 -->
<g id="edge31_Node000016_Node000011" class="edge">
<title>Node16&#45;&gt;Node11</title>
<g id="a_edge31_Node000016_Node000011"><a xlink:title=" ">
<path fill="none" stroke="#63b8ff" d="M585.24,-499.86C691.84,-488.65 893.91,-460.6 937,-406 954.26,-384.13 917.63,-362.81 891.73,-351.18"/>
<polygon fill="#63b8ff" stroke="#63b8ff" points="585.08,-496.36 575.49,-500.86 585.79,-503.32 585.08,-496.36"/>
</a>
</g>
</g>
</g>
</svg>

<g id="navigator" transform="translate(0 0)" fill="#404254">
  <rect fill="#f2f5e9" fill-opacity="0.5" stroke="#606060" stroke-width=".5" x="0" y="0" width="60" height="60"/>
  <use id="zoomplus" xlink:href="#zoomPlus" x="17" y="9" onmousedown="handleZoom(evt,'in')"/>
  <use id="zoomminus" xlink:href="#zoomMin" x="42" y="9" onmousedown="handleZoom(evt,'out')"/>
  <use id="reset" xlink:href="#resetDef" x="30" y="36" onmousedown="handleReset()"/>
   <use id="arrowup" xlink:href="#arrowUp" x="0" y="0" onmousedown="handlePan(0,-1)"/>
  <use id="arrowright" xlink:href="#arrowRight" x="0" y="0" onmousedown="handlePan(1,0)"/>
  <use id="arrowdown" xlink:href="#arrowDown" x="0" y="0" onmousedown="handlePan(0,1)"/>
  <use id="arrowleft" xlink:href="#arrowLeft" x="0" y="0" onmousedown="handlePan(-1,0)"/>
</g>
<svg viewBox="0 0 15 15" width="100%" height="30px" preserveAspectRatio="xMaxYMin meet">
 <g id="arrow_out" transform="scale(0.3 0.3)">
  <a xlink:href="_call_8hpp__dep__incl_org.svg" target="_base">
   <rect id="button" ry="5" rx="5" y="6" x="6" height="38" width="38"
        fill="#f2f5e9" fill-opacity="0.5" stroke="#606060" stroke-width="1.0"/>
   <path id="arrow"
     d="M 11.500037,31.436501 C 11.940474,20.09759 22.043105,11.32322 32.158766,21.979434 L 37.068811,17.246167 C 37.068811,17.246167 37.088388,32 37.088388,32 L 22.160133,31.978069 C 22.160133,31.978069 26.997745,27.140456 26.997745,27.140456 C 18.528582,18.264221 13.291696,25.230495 11.500037,31.436501 z"
     style="fill:#404040;"/>
  </a>
 </g>
</svg>

<style type='text/css'>
<![CDATA[
[data-mouse-over-selected='false'] { opacity: 0.7; }
[data-mouse-over-selected='true']  { opacity: 1.0; }
]]>
</style>
<script type="application/ecmascript"><![CDATA[
document.addEventListener('DOMContentLoaded', (event) => {
  highlightEdges();
  highlightAdjacentNodes();
});
]]></script>
</svg>
