<?xml version="1.0" encoding="UTF-8" standalone="no"?>
<!DOCTYPE svg PUBLIC "-//W3C//DTD SVG 1.1//EN"
 "http://www.w3.org/Graphics/SVG/1.1/DTD/svg11.dtd">
<!-- Generated by graphviz version 12.2.1 (20241206.2353)
 -->
<!-- Title: mimic++/Call.hpp Pages: 1 -->
<!--zoomable 725 -->

<svg id="main" version="1.1" xmlns="http://www.w3.org/2000/svg" xmlns:xlink="http://www.w3.org/1999/xlink" xml:space="preserve" onload="init(evt)">

<style type="text/css"><![CDATA[
.node, .edge {opacity: 0.7;}
.node.selected, .edge.selected {opacity: 1;}
.edge:hover path { stroke: red; }
.edge:hover polygon { stroke: red; fill: red; }
]]></style>

<defs>
  <circle id="rim" cx="0" cy="0" r="7"/>
  <circle id="rim2" cx="0" cy="0" r="3.5"/>
  <g id="zoomPlus">
    <use xlink:href="#rim" fill="#404040"><set attributeName="fill" to="#808080" begin="zoomplus.mouseover" end="zoomplus.mouseout"/></use>
    <path d="M-4,0h8M0,-4v8" fill="none" stroke="white" stroke-width="1.5" pointer-events="none"/>
  </g>
  <g id="zoomMin">
    <use xlink:href="#rim" fill="#404040"><set attributeName="fill" to="#808080" begin="zoomminus.mouseover" end="zoomminus.mouseout"/></use>
    <path d="M-4,0h8" fill="none" stroke="white" stroke-width="1.5" pointer-events="none"/>
  </g>
  <g id="arrowUp" transform="translate(30 24)">
    <use xlink:href="#rim"/>
    <path pointer-events="none" fill="none" stroke="white" stroke-width="1.5" d="M0,-3.0v7 M-2.5,-0.5L0,-3.0L2.5,-0.5"/>
  </g>
  <g id="arrowRight" transform="rotate(90) translate(36 -43)">
    <use xlink:href="#rim"/>
    <path pointer-events="none" fill="none" stroke="white" stroke-width="1.5" d="M0,-3.0v7 M-2.5,-0.5L0,-3.0L2.5,-0.5"/>
  </g>
  <g id="arrowDown" transform="rotate(180) translate(-30 -48)">
    <use xlink:href="#rim"/>
    <path pointer-events="none" fill="none" stroke="white" stroke-width="1.5" d="M0,-3.0v7 M-2.5,-0.5L0,-3.0L2.5,-0.5"/>
  </g>
  <g id="arrowLeft" transform="rotate(270) translate(-36 17)">
    <use xlink:href="#rim"/>
    <path pointer-events="none" fill="none" stroke="white" stroke-width="1.5" d="M0,-3.0v7 M-2.5,-0.5L0,-3.0L2.5,-0.5"/>
  </g>
  <g id="resetDef">
    <use xlink:href="#rim2" fill="#404040"><set attributeName="fill" to="#808080" begin="reset.mouseover" end="reset.mouseout"/></use>
  </g>
</defs>
<script type="application/ecmascript">
var viewWidth = 1231;
var viewHeight = 725;
var sectionId = 'dynsection-1';
</script>
<script type="application/ecmascript" xlink:href="../../svg.min.js"/>
<svg id="graph" class="graph">
<g id="viewport">
<title>mimic++/Call.hpp</title>
<!-- Node1 -->
<g id="Node000001" class="node">
<title>Node1</title>
<g id="a_Node000001"><a xlink:title=" ">
<polygon fill="#999999" stroke="#666666" points="560.88,-717 469.12,-717 469.12,-697.75 560.88,-697.75 560.88,-717"/>
<text text-anchor="middle" x="515" y="-703.5" font-family="Helvetica,sans-Serif" font-size="10.00">mimic++/Call.hpp</text>
</a>
</g>
</g>
<!-- Node2 -->
<g id="Node000002" class="node">
<title>Node2</title>
<g id="a_Node000002"><a xlink:href="../../d5/dc5/_mock_8hpp.html" target="_top" xlink:title=" ">
<polygon fill="white" stroke="#666666" points="575.62,-135.38 476.38,-135.38 476.38,-116.12 575.62,-116.12 575.62,-135.38"/>
<text text-anchor="middle" x="526" y="-121.88" font-family="Helvetica,sans-Serif" font-size="10.00">mimic++/Mock.hpp</text>
</a>
</g>
</g>
<!-- Node1&#45;&gt;Node2 -->
<g id="edge1_Node000001_Node000002" class="edge">
<title>Node1&#45;&gt;Node2</title>
<g id="a_edge1_Node000001_Node000002"><a xlink:title=" ">
<path fill="none" stroke="#63b8ff" d="M509.63,-686.43C504.01,-663.78 496,-625.64 496,-592.25 496,-592.25 496,-592.25 496,-257.75 496,-210.85 514.49,-156.84 522.44,-135.8"/>
<polygon fill="#63b8ff" stroke="#63b8ff" points="506.17,-687.02 512.06,-695.82 512.94,-685.27 506.17,-687.02"/>
</a>
</g>
</g>
<!-- Node4 -->
<g id="Node000004" class="node">
<title>Node4</title>
<g id="a_Node000004"><a xlink:href="../../d0/db9/mimic_09_09_8hpp.html" target="_top" xlink:title=" ">
<polygon fill="white" stroke="#666666" points="621.75,-19.25 508.25,-19.25 508.25,0 621.75,0 621.75,-19.25"/>
<text text-anchor="middle" x="565" y="-5.75" font-family="Helvetica,sans-Serif" font-size="10.00">mimic++/mimic++.hpp</text>
</a>
</g>
</g>
<!-- Node1&#45;&gt;Node4 -->
<g id="edge28_Node000001_Node000004" class="edge">
<title>Node1&#45;&gt;Node4</title>
<g id="a_edge28_Node000001_Node000004"><a xlink:title=" ">
<path fill="none" stroke="#63b8ff" d="M457.6,-705.67C323.32,-702.47 0,-685.13 0,-592.25 0,-592.25 0,-592.25 0,-124.75 0,-21.86 364.52,-10.63 507.98,-10.19"/>
<polygon fill="#63b8ff" stroke="#63b8ff" points="457.26,-709.16 467.33,-705.88 457.41,-702.17 457.26,-709.16"/>
</a>
</g>
</g>
<!-- Node6 -->
<g id="Node000006" class="node">
<title>Node6</title>
<g id="a_Node000006"><a xlink:href="../../db/d33/expectation_2_common_8hpp.html" target="_top" xlink:title=" ">
<polygon fill="white" stroke="#666666" points="646.38,-473.5 539.62,-473.5 539.62,-443 646.38,-443 646.38,-473.5"/>
<text text-anchor="start" x="547.62" y="-460" font-family="Helvetica,sans-Serif" font-size="10.00">mimic++/expectation</text>
<text text-anchor="middle" x="593" y="-448.75" font-family="Helvetica,sans-Serif" font-size="10.00">/Common.hpp</text>
</a>
</g>
</g>
<!-- Node1&#45;&gt;Node6 -->
<g id="edge7_Node000001_Node000006" class="edge">
<title>Node1&#45;&gt;Node6</title>
<g id="a_edge7_Node000001_Node000006"><a xlink:title=" ">
<path fill="none" stroke="#63b8ff" d="M521.28,-686.46C536.53,-638.18 575.18,-515.72 588.45,-473.68"/>
<polygon fill="#63b8ff" stroke="#63b8ff" points="518,-685.25 518.32,-695.84 524.67,-687.36 518,-685.25"/>
</a>
</g>
</g>
<!-- Node9 -->
<g id="Node000009" class="node">
<title>Node9</title>
<g id="a_Node000009"><a xlink:href="../../d5/d8a/_expectation_8hpp.html" target="_top" xlink:title=" ">
<polygon fill="white" stroke="#666666" points="743.38,-407 636.62,-407 636.62,-376.5 743.38,-376.5 743.38,-407"/>
<text text-anchor="start" x="644.62" y="-393.5" font-family="Helvetica,sans-Serif" font-size="10.00">mimic++/expectation</text>
<text text-anchor="middle" x="690" y="-382.25" font-family="Helvetica,sans-Serif" font-size="10.00">/Expectation.hpp</text>
</a>
</g>
</g>
<!-- Node1&#45;&gt;Node9 -->
<g id="edge27_Node000001_Node000009" class="edge">
<title>Node1&#45;&gt;Node9</title>
<g id="a_edge27_Node000001_Node000009"><a xlink:title=" ">
<path fill="none" stroke="#63b8ff" d="M567.07,-694.2C616.08,-679.29 682,-648.73 682,-592.25 682,-592.25 682,-592.25 682,-523.75 682,-481.37 686.22,-431.42 688.53,-407.27"/>
<polygon fill="#63b8ff" stroke="#63b8ff" points="566.37,-690.76 557.73,-696.9 568.31,-697.49 566.37,-690.76"/>
</a>
</g>
</g>
<!-- Node13 -->
<g id="Node000013" class="node">
<title>Node13</title>
<g id="a_Node000013"><a xlink:href="../../d2/dfd/_argument_list_8hpp.html" target="_top" xlink:title=" ">
<polygon fill="white" stroke="#666666" points="250.62,-340.5 115.38,-340.5 115.38,-310 250.62,-310 250.62,-340.5"/>
<text text-anchor="start" x="123.38" y="-327" font-family="Helvetica,sans-Serif" font-size="10.00">mimic++/policies/Argument</text>
<text text-anchor="middle" x="183" y="-315.75" font-family="Helvetica,sans-Serif" font-size="10.00">List.hpp</text>
</a>
</g>
</g>
<!-- Node1&#45;&gt;Node13 -->
<g id="edge29_Node000001_Node000013" class="edge">
<title>Node1&#45;&gt;Node13</title>
<g id="a_edge29_Node000001_Node000013"><a xlink:title=" ">
<path fill="none" stroke="#63b8ff" d="M457.52,-696.82C369.65,-680.56 212,-644.15 212,-592.25 212,-592.25 212,-592.25 212,-457.25 212,-414.16 196.86,-364.93 188.45,-340.95"/>
<polygon fill="#63b8ff" stroke="#63b8ff" points="456.7,-700.22 467.16,-698.57 457.95,-693.34 456.7,-700.22"/>
</a>
</g>
</g>
<!-- Node17 -->
<g id="Node000017" class="node">
<title>Node17</title>
<g id="a_Node000017"><a xlink:href="../../d9/d6c/_call_report_8hpp.html" target="_top" xlink:title=" ">
<polygon fill="white" stroke="#666666" points="954.38,-661.75 793.62,-661.75 793.62,-642.5 954.38,-642.5 954.38,-661.75"/>
<text text-anchor="middle" x="874" y="-648.25" font-family="Helvetica,sans-Serif" font-size="10.00">mimic++/reporting/CallReport.hpp</text>
</a>
</g>
</g>
<!-- Node1&#45;&gt;Node17 -->
<g id="edge38_Node000001_Node000017" class="edge">
<title>Node1&#45;&gt;Node17</title>
<g id="a_edge38_Node000001_Node000017"><a xlink:title=" ">
<path fill="none" stroke="#63b8ff" d="M572.57,-697.84C638.31,-688.09 745.41,-672.2 812.67,-662.22"/>
<polygon fill="#63b8ff" stroke="#63b8ff" points="572.07,-694.37 562.7,-699.3 573.1,-701.3 572.07,-694.37"/>
</a>
</g>
</g>
<!-- Node3 -->
<g id="Node000003" class="node">
<title>Node3</title>
<g id="a_Node000003"><a xlink:href="../../d6/dc3/_facade_8hpp.html" target="_top" xlink:title=" ">
<polygon fill="white" stroke="#666666" points="487.75,-74.5 380.25,-74.5 380.25,-55.25 487.75,-55.25 487.75,-74.5"/>
<text text-anchor="middle" x="434" y="-61" font-family="Helvetica,sans-Serif" font-size="10.00">mimic++/Facade.hpp</text>
</a>
</g>
</g>
<!-- Node2&#45;&gt;Node3 -->
<g id="edge2_Node000002_Node000003" class="edge">
<title>Node2&#45;&gt;Node3</title>
<g id="a_edge2_Node000002_Node000003"><a xlink:title=" ">
<path fill="none" stroke="#63b8ff" d="M502.65,-109.81C485.45,-98.8 462.61,-84.18 448.1,-74.9"/>
<polygon fill="#63b8ff" stroke="#63b8ff" points="500.44,-112.55 510.75,-114.99 504.22,-106.65 500.44,-112.55"/>
</a>
</g>
</g>
<!-- Node2&#45;&gt;Node4 -->
<g id="edge6_Node000002_Node000004" class="edge">
<title>Node2&#45;&gt;Node4</title>
<g id="a_edge6_Node000002_Node000004"><a xlink:title=" ">
<path fill="none" stroke="#63b8ff" d="M526.18,-104.49C526.89,-90.3 529.02,-71.11 535,-55.25 540.13,-41.62 550.15,-28.03 557.19,-19.49"/>
<polygon fill="#63b8ff" stroke="#63b8ff" points="522.68,-104.27 525.91,-114.37 529.68,-104.47 522.68,-104.27"/>
</a>
</g>
</g>
<!-- Node5 -->
<g id="Node000005" class="node">
<title>Node5</title>
<g id="a_Node000005"><a xlink:href="../../d5/d92/_object_watcher_8hpp.html" target="_top" xlink:title=" ">
<polygon fill="white" stroke="#666666" points="683.88,-74.5 544.12,-74.5 544.12,-55.25 683.88,-55.25 683.88,-74.5"/>
<text text-anchor="middle" x="614" y="-61" font-family="Helvetica,sans-Serif" font-size="10.00">mimic++/ObjectWatcher.hpp</text>
</a>
</g>
</g>
<!-- Node2&#45;&gt;Node5 -->
<g id="edge4_Node000002_Node000005" class="edge">
<title>Node2&#45;&gt;Node5</title>
<g id="a_edge4_Node000002_Node000005"><a xlink:title=" ">
<path fill="none" stroke="#63b8ff" d="M548.79,-109.5C565.2,-98.53 586.76,-84.1 600.51,-74.9"/>
<polygon fill="#63b8ff" stroke="#63b8ff" points="546.99,-106.5 540.62,-114.97 550.88,-112.31 546.99,-106.5"/>
</a>
</g>
</g>
<!-- Node3&#45;&gt;Node4 -->
<g id="edge3_Node000003_Node000004" class="edge">
<title>Node3&#45;&gt;Node4</title>
<g id="a_edge3_Node000003_Node000004"><a xlink:title=" ">
<path fill="none" stroke="#63b8ff" d="M466.82,-50.53C490.5,-40.91 521.84,-28.17 542.67,-19.7"/>
<polygon fill="#63b8ff" stroke="#63b8ff" points="465.57,-47.26 457.62,-54.27 468.21,-53.75 465.57,-47.26"/>
</a>
</g>
</g>
<!-- Node5&#45;&gt;Node4 -->
<g id="edge5_Node000005_Node000004" class="edge">
<title>Node5&#45;&gt;Node4</title>
<g id="a_edge5_Node000005_Node000004"><a xlink:title=" ">
<path fill="none" stroke="#63b8ff" d="M598.28,-46.79C589.96,-37.75 580.09,-27.02 573.27,-19.61"/>
<polygon fill="#63b8ff" stroke="#63b8ff" points="595.54,-48.98 604.88,-53.97 600.69,-44.24 595.54,-48.98"/>
</a>
</g>
</g>
<!-- Node6&#45;&gt;Node4 -->
<g id="edge26_Node000006_Node000004" class="edge">
<title>Node6&#45;&gt;Node4</title>
<g id="a_edge26_Node000006_Node000004"><a xlink:title=" ">
<path fill="none" stroke="#63b8ff" d="M538.17,-438.6C470.34,-412.63 356.33,-358.96 295,-274 273.42,-244.11 276,-230.12 276,-193.25 276,-193.25 276,-193.25 276,-124.75 276,-87.46 291.79,-75.66 323,-55.25 352.76,-35.78 446.18,-22.76 507.86,-16.04"/>
<polygon fill="#63b8ff" stroke="#63b8ff" points="536.63,-441.76 547.22,-442 539.09,-435.21 536.63,-441.76"/>
</a>
</g>
</g>
<!-- Node7 -->
<g id="Node000007" class="node">
<title>Node7</title>
<g id="a_Node000007"><a xlink:href="../../d6/d15/_builder_8hpp.html" target="_top" xlink:title=" ">
<polygon fill="white" stroke="#666666" points="704.38,-207.5 597.62,-207.5 597.62,-177 704.38,-177 704.38,-207.5"/>
<text text-anchor="start" x="605.62" y="-194" font-family="Helvetica,sans-Serif" font-size="10.00">mimic++/expectation</text>
<text text-anchor="middle" x="651" y="-182.75" font-family="Helvetica,sans-Serif" font-size="10.00">/Builder.hpp</text>
</a>
</g>
</g>
<!-- Node6&#45;&gt;Node7 -->
<g id="edge8_Node000006_Node000007" class="edge">
<title>Node6&#45;&gt;Node7</title>
<g id="a_edge8_Node000006_Node000007"><a xlink:title=" ">
<path fill="none" stroke="#63b8ff" d="M598.64,-431.58C610.64,-376.94 638.39,-250.63 647.81,-207.77"/>
<polygon fill="#63b8ff" stroke="#63b8ff" points="595.25,-430.68 596.53,-441.2 602.09,-432.19 595.25,-430.68"/>
</a>
</g>
</g>
<!-- Node6&#45;&gt;Node9 -->
<g id="edge13_Node000006_Node000009" class="edge">
<title>Node6&#45;&gt;Node9</title>
<g id="a_edge13_Node000006_Node000009"><a xlink:title=" ">
<path fill="none" stroke="#63b8ff" d="M624.44,-436.34C638.69,-426.87 655.19,-415.89 668.08,-407.33"/>
<polygon fill="#63b8ff" stroke="#63b8ff" points="622.66,-433.32 616.27,-441.78 626.54,-439.15 622.66,-433.32"/>
</a>
</g>
</g>
<!-- Node7&#45;&gt;Node2 -->
<g id="edge9_Node000007_Node000002" class="edge">
<title>Node7&#45;&gt;Node2</title>
<g id="a_edge9_Node000007_Node000002"><a xlink:title=" ">
<path fill="none" stroke="#63b8ff" d="M612.46,-171.36C589.42,-159.47 561.25,-144.94 543.46,-135.76"/>
<polygon fill="#63b8ff" stroke="#63b8ff" points="610.8,-174.44 621.29,-175.92 614.01,-168.22 610.8,-174.44"/>
</a>
</g>
</g>
<!-- Node7&#45;&gt;Node4 -->
<g id="edge12_Node000007_Node000004" class="edge">
<title>Node7&#45;&gt;Node4</title>
<g id="a_edge12_Node000007_Node000004"><a xlink:title=" ">
<path fill="none" stroke="#63b8ff" d="M656.37,-165.37C660.12,-149.27 665.75,-128.3 673,-110.5 679.9,-93.55 688.41,-92.22 693,-74.5 695.15,-66.22 697.95,-62.22 693,-55.25 676.85,-32.52 648.22,-21.27 622.13,-15.74"/>
<polygon fill="#63b8ff" stroke="#63b8ff" points="652.96,-164.61 654.2,-175.13 659.79,-166.13 652.96,-164.61"/>
</a>
</g>
</g>
<!-- Node8 -->
<g id="Node000008" class="node">
<title>Node8</title>
<g id="a_Node000008"><a xlink:href="../../db/d83/_scoped_sequence_8hpp.html" target="_top" xlink:title=" ">
<polygon fill="white" stroke="#666666" points="866.88,-135.38 715.12,-135.38 715.12,-116.12 866.88,-116.12 866.88,-135.38"/>
<text text-anchor="middle" x="791" y="-121.88" font-family="Helvetica,sans-Serif" font-size="10.00">mimic++/ScopedSequence.hpp</text>
</a>
</g>
</g>
<!-- Node7&#45;&gt;Node8 -->
<g id="edge10_Node000007_Node000008" class="edge">
<title>Node7&#45;&gt;Node8</title>
<g id="a_edge10_Node000007_Node000008"><a xlink:title=" ">
<path fill="none" stroke="#63b8ff" d="M693.12,-171.85C719.12,-159.87 751.25,-145.06 771.44,-135.76"/>
<polygon fill="#63b8ff" stroke="#63b8ff" points="691.76,-168.62 684.14,-175.98 694.69,-174.98 691.76,-168.62"/>
</a>
</g>
</g>
<!-- Node8&#45;&gt;Node4 -->
<g id="edge11_Node000008_Node000004" class="edge">
<title>Node8&#45;&gt;Node4</title>
<g id="a_edge11_Node000008_Node000004"><a xlink:title=" ">
<path fill="none" stroke="#63b8ff" d="M788.41,-104.86C785.31,-89.12 778.56,-67.77 764,-55.25 742.93,-37.12 672.86,-24.45 621.81,-17.35"/>
<polygon fill="#63b8ff" stroke="#63b8ff" points="784.92,-105.19 789.96,-114.51 791.83,-104.08 784.92,-105.19"/>
</a>
</g>
</g>
<!-- Node9&#45;&gt;Node4 -->
<g id="edge25_Node000009_Node000004" class="edge">
<title>Node9&#45;&gt;Node4</title>
<g id="a_edge25_Node000009_Node000004"><a xlink:title=" ">
<path fill="none" stroke="#63b8ff" d="M655.7,-370.26C586.1,-326.4 429.9,-215.84 371,-74.5 367.71,-66.6 365.67,-61.94 371,-55.25 387.9,-34.02 457.03,-22.05 507.98,-15.96"/>
<polygon fill="#63b8ff" stroke="#63b8ff" points="653.69,-373.13 664.03,-375.44 657.39,-367.19 653.69,-373.13"/>
</a>
</g>
</g>
<!-- Node10 -->
<g id="Node000010" class="node">
<title>Node10</title>
<g id="a_Node000010"><a xlink:href="../../d4/d1e/_owner_8hpp.html" target="_top" xlink:title=" ">
<polygon fill="white" stroke="#666666" points="791.38,-274 684.62,-274 684.62,-243.5 791.38,-243.5 791.38,-274"/>
<text text-anchor="start" x="692.62" y="-260.5" font-family="Helvetica,sans-Serif" font-size="10.00">mimic++/expectation</text>
<text text-anchor="middle" x="738" y="-249.25" font-family="Helvetica,sans-Serif" font-size="10.00">/Owner.hpp</text>
</a>
</g>
</g>
<!-- Node9&#45;&gt;Node10 -->
<g id="edge14_Node000009_Node000010" class="edge">
<title>Node9&#45;&gt;Node10</title>
<g id="a_edge14_Node000009_Node000010"><a xlink:title=" ">
<path fill="none" stroke="#63b8ff" d="M694.11,-364.81C697.14,-348.68 701.98,-327.71 709,-310 714.05,-297.26 721.92,-283.88 728.18,-274.13"/>
<polygon fill="#63b8ff" stroke="#63b8ff" points="690.67,-364.12 692.39,-374.58 697.57,-365.33 690.67,-364.12"/>
</a>
</g>
</g>
<!-- Node12 -->
<g id="Node000012" class="node">
<title>Node12</title>
<g id="a_Node000012"><a xlink:href="../../db/d5d/_registry_8hpp.html" target="_top" xlink:title=" ">
<polygon fill="white" stroke="#666666" points="824.38,-340.5 717.62,-340.5 717.62,-310 824.38,-310 824.38,-340.5"/>
<text text-anchor="start" x="725.62" y="-327" font-family="Helvetica,sans-Serif" font-size="10.00">mimic++/expectation</text>
<text text-anchor="middle" x="771" y="-315.75" font-family="Helvetica,sans-Serif" font-size="10.00">/Registry.hpp</text>
</a>
</g>
</g>
<!-- Node9&#45;&gt;Node12 -->
<g id="edge20_Node000009_Node000012" class="edge">
<title>Node9&#45;&gt;Node12</title>
<g id="a_edge20_Node000009_Node000012"><a xlink:title=" ">
<path fill="none" stroke="#63b8ff" d="M717.29,-369.02C728.95,-359.73 742.25,-349.15 752.69,-340.83"/>
<polygon fill="#63b8ff" stroke="#63b8ff" points="715.21,-366.2 709.56,-375.17 719.57,-371.68 715.21,-366.2"/>
</a>
</g>
</g>
<!-- Node10&#45;&gt;Node4 -->
<g id="edge19_Node000010_Node000004" class="edge">
<title>Node10&#45;&gt;Node4</title>
<g id="a_edge19_Node000010_Node000004"><a xlink:title=" ">
<path fill="none" stroke="#63b8ff" d="M790.46,-238.45C806.99,-230.62 824.45,-220.34 838,-207.5 871.6,-175.65 898.71,-150.85 876,-110.5 852.8,-69.27 829.06,-72.49 785,-55.25 731.83,-34.45 667.47,-22.84 622.13,-16.72"/>
<polygon fill="#63b8ff" stroke="#63b8ff" points="789.4,-235.09 781.71,-242.39 792.27,-241.48 789.4,-235.09"/>
</a>
</g>
</g>
<!-- Node10&#45;&gt;Node7 -->
<g id="edge15_Node000010_Node000007" class="edge">
<title>Node10&#45;&gt;Node7</title>
<g id="a_edge15_Node000010_Node000007"><a xlink:title=" ">
<path fill="none" stroke="#63b8ff" d="M709.06,-236.29C696.45,-226.94 682,-216.23 670.66,-207.83"/>
<polygon fill="#63b8ff" stroke="#63b8ff" points="706.92,-239.07 717.04,-242.21 711.09,-233.45 706.92,-239.07"/>
</a>
</g>
</g>
<!-- Node11 -->
<g id="Node000011" class="node">
<title>Node11</title>
<g id="a_Node000011"><a xlink:href="../../db/dd0/_collector_8hpp.html" target="_top" xlink:title=" ">
<polygon fill="white" stroke="#666666" points="829.38,-207.5 722.62,-207.5 722.62,-177 829.38,-177 829.38,-207.5"/>
<text text-anchor="start" x="730.62" y="-194" font-family="Helvetica,sans-Serif" font-size="10.00">mimic++/expectation</text>
<text text-anchor="middle" x="776" y="-182.75" font-family="Helvetica,sans-Serif" font-size="10.00">/Collector.hpp</text>
</a>
</g>
</g>
<!-- Node10&#45;&gt;Node11 -->
<g id="edge16_Node000010_Node000011" class="edge">
<title>Node10&#45;&gt;Node11</title>
<g id="a_edge16_Node000010_Node000011"><a xlink:title=" ">
<path fill="none" stroke="#63b8ff" d="M752.45,-233.23C757.49,-224.66 763,-215.32 767.41,-207.83"/>
<polygon fill="#63b8ff" stroke="#63b8ff" points="749.45,-231.42 747.39,-241.81 755.48,-234.97 749.45,-231.42"/>
</a>
</g>
</g>
<!-- Node11&#45;&gt;Node4 -->
<g id="edge18_Node000011_Node000004" class="edge">
<title>Node11&#45;&gt;Node4</title>
<g id="a_edge18_Node000011_Node000004"><a xlink:title=" ">
<path fill="none" stroke="#63b8ff" d="M734.14,-170.73C722.95,-163.05 712.24,-153.17 706,-141 688.6,-107.08 730.59,-85.96 708,-55.25 688.35,-28.54 652.81,-17.36 622.07,-12.88"/>
<polygon fill="#63b8ff" stroke="#63b8ff" points="731.96,-173.49 742.29,-175.86 735.69,-167.57 731.96,-173.49"/>
</a>
</g>
</g>
<!-- Node11&#45;&gt;Node8 -->
<g id="edge17_Node000011_Node000008" class="edge">
<title>Node11&#45;&gt;Node8</title>
<g id="a_edge17_Node000011_Node000008"><a xlink:title=" ">
<path fill="none" stroke="#63b8ff" d="M781.95,-165.68C784.43,-155.01 787.14,-143.33 788.95,-135.57"/>
<polygon fill="#63b8ff" stroke="#63b8ff" points="778.6,-164.61 779.75,-175.14 785.42,-166.19 778.6,-164.61"/>
</a>
</g>
</g>
<!-- Node12&#45;&gt;Node2 -->
<g id="edge21_Node000012_Node000002" class="edge">
<title>Node12&#45;&gt;Node2</title>
<g id="a_edge21_Node000012_Node000002"><a xlink:title=" ">
<path fill="none" stroke="#63b8ff" d="M716.75,-305.37C696.8,-297.21 674.56,-286.61 656,-274 597.05,-233.94 547.71,-161.15 531.58,-135.77"/>
<polygon fill="#63b8ff" stroke="#63b8ff" points="715.26,-308.54 725.85,-308.98 717.84,-302.04 715.26,-308.54"/>
</a>
</g>
</g>
<!-- Node12&#45;&gt;Node4 -->
<g id="edge24_Node000012_Node000004" class="edge">
<title>Node12&#45;&gt;Node4</title>
<g id="a_edge24_Node000012_Node000004"><a xlink:title=" ">
<path fill="none" stroke="#63b8ff" d="M799.42,-302.67C845.66,-264.77 928.67,-183.35 894,-110.5 877.26,-75.34 861.46,-71.34 826,-55.25 760.17,-25.39 676.73,-15.38 622.16,-12.09"/>
<polygon fill="#63b8ff" stroke="#63b8ff" points="797.51,-299.72 791.9,-308.7 801.89,-305.18 797.51,-299.72"/>
</a>
</g>
</g>
<!-- Node12&#45;&gt;Node7 -->
<g id="edge22_Node000012_Node000007" class="edge">
<title>Node12&#45;&gt;Node7</title>
<g id="a_edge22_Node000012_Node000007"><a xlink:title=" ">
<path fill="none" stroke="#63b8ff" d="M716.98,-304.82C701.97,-297.2 686.84,-287.07 676,-274 660.08,-254.79 654.28,-225.49 652.18,-207.96"/>
<polygon fill="#63b8ff" stroke="#63b8ff" points="715.4,-307.94 725.93,-309.06 718.39,-301.62 715.4,-307.94"/>
</a>
</g>
</g>
<!-- Node12&#45;&gt;Node10 -->
<g id="edge23_Node000012_Node000010" class="edge">
<title>Node12&#45;&gt;Node10</title>
<g id="a_edge23_Node000012_Node000010"><a xlink:title=" ">
<path fill="none" stroke="#63b8ff" d="M758.31,-299.44C753.97,-290.96 749.25,-281.74 745.46,-274.33"/>
<polygon fill="#63b8ff" stroke="#63b8ff" points="755.15,-300.96 762.82,-308.27 761.38,-297.77 755.15,-300.96"/>
</a>
</g>
</g>
<!-- Node13&#45;&gt;Node4 -->
<g id="edge30_Node000013_Node000004" class="edge">
<title>Node13&#45;&gt;Node4</title>
<g id="a_edge30_Node000013_Node000004"><a xlink:title=" ">
<path fill="none" stroke="#63b8ff" d="M199.88,-300.26C216.05,-274.91 238,-233.14 238,-193.25 238,-193.25 238,-193.25 238,-124.75 238,-92.07 236.84,-76.11 262,-55.25 298.43,-25.04 430.69,-15.27 507.9,-12.12"/>
<polygon fill="#63b8ff" stroke="#63b8ff" points="197.04,-298.23 194.44,-308.5 202.87,-302.09 197.04,-298.23"/>
</a>
</g>
</g>
<!-- Node14 -->
<g id="Node000014" class="node">
<title>Node14</title>
<g id="a_Node000014"><a xlink:href="../../d1/d42/_arg_requirement_policies_8hpp.html" target="_top" xlink:title=" ">
<polygon fill="white" stroke="#666666" points="467.5,-274 304.5,-274 304.5,-243.5 467.5,-243.5 467.5,-274"/>
<text text-anchor="start" x="312.5" y="-260.5" font-family="Helvetica,sans-Serif" font-size="10.00">mimic++/policies/ArgRequirement</text>
<text text-anchor="middle" x="386" y="-249.25" font-family="Helvetica,sans-Serif" font-size="10.00">Policies.hpp</text>
</a>
</g>
</g>
<!-- Node13&#45;&gt;Node14 -->
<g id="edge31_Node000013_Node000014" class="edge">
<title>Node13&#45;&gt;Node14</title>
<g id="a_edge31_Node000013_Node000014"><a xlink:title=" ">
<path fill="none" stroke="#63b8ff" d="M240.15,-306.09C271.67,-296.08 310.3,-283.8 339.88,-274.4"/>
<polygon fill="#63b8ff" stroke="#63b8ff" points="239.23,-302.71 230.76,-309.07 241.35,-309.38 239.23,-302.71"/>
</a>
</g>
</g>
<!-- Node15 -->
<g id="Node000015" class="node">
<title>Node15</title>
<g id="a_Node000015"><a xlink:href="../../d3/da3/_finalizer_policies_8hpp.html" target="_top" xlink:title=" ">
<polygon fill="white" stroke="#666666" points="157.62,-207.5 28.38,-207.5 28.38,-177 157.62,-177 157.62,-207.5"/>
<text text-anchor="start" x="36.38" y="-194" font-family="Helvetica,sans-Serif" font-size="10.00">mimic++/policies/Finalizer</text>
<text text-anchor="middle" x="93" y="-182.75" font-family="Helvetica,sans-Serif" font-size="10.00">Policies.hpp</text>
</a>
</g>
</g>
<!-- Node13&#45;&gt;Node15 -->
<g id="edge34_Node000013_Node000015" class="edge">
<title>Node13&#45;&gt;Node15</title>
<g id="a_edge34_Node000013_Node000015"><a xlink:title=" ">
<path fill="none" stroke="#63b8ff" d="M166.75,-300.59C148.2,-273.6 118.46,-230.3 103.02,-207.83"/>
<polygon fill="#63b8ff" stroke="#63b8ff" points="163.62,-302.22 172.17,-308.48 169.39,-298.26 163.62,-302.22"/>
</a>
</g>
</g>
<!-- Node16 -->
<g id="Node000016" class="node">
<title>Node16</title>
<g id="a_Node000016"><a xlink:href="../../dc/d18/_side_effect_policies_8hpp.html" target="_top" xlink:title=" ">
<polygon fill="white" stroke="#666666" points="209.75,-141 72.25,-141 72.25,-110.5 209.75,-110.5 209.75,-141"/>
<text text-anchor="start" x="80.25" y="-127.5" font-family="Helvetica,sans-Serif" font-size="10.00">mimic++/policies/SideEffect</text>
<text text-anchor="middle" x="141" y="-116.25" font-family="Helvetica,sans-Serif" font-size="10.00">Policies.hpp</text>
</a>
</g>
</g>
<!-- Node13&#45;&gt;Node16 -->
<g id="edge36_Node000013_Node000016" class="edge">
<title>Node13&#45;&gt;Node16</title>
<g id="a_edge36_Node000013_Node000016"><a xlink:title=" ">
<path fill="none" stroke="#63b8ff" d="M183.04,-298.21C182.43,-268.33 179.41,-218.15 167,-177 163.14,-164.21 156.05,-150.83 150.24,-141.09"/>
<polygon fill="#63b8ff" stroke="#63b8ff" points="179.54,-298.21 183.15,-308.17 186.54,-298.13 179.54,-298.21"/>
</a>
</g>
</g>
<!-- Node14&#45;&gt;Node4 -->
<g id="edge33_Node000014_Node000004" class="edge">
<title>Node14&#45;&gt;Node4</title>
<g id="a_edge33_Node000014_Node000004"><a xlink:title=" ">
<path fill="none" stroke="#63b8ff" d="M368.71,-233.88C341.19,-192.74 294.74,-107.84 338,-55.25 359.11,-29.58 447.8,-18.45 507.87,-13.79"/>
<polygon fill="#63b8ff" stroke="#63b8ff" points="365.66,-235.62 374.21,-241.88 371.42,-231.66 365.66,-235.62"/>
</a>
</g>
</g>
<!-- Node14&#45;&gt;Node7 -->
<g id="edge32_Node000014_Node000007" class="edge">
<title>Node14&#45;&gt;Node7</title>
<g id="a_edge32_Node000014_Node000007"><a xlink:title=" ">
<path fill="none" stroke="#63b8ff" d="M457.42,-240.37C501.54,-229.63 557.22,-216.08 597.53,-206.26"/>
<polygon fill="#63b8ff" stroke="#63b8ff" points="456.82,-236.91 447.93,-242.68 458.48,-243.71 456.82,-236.91"/>
</a>
</g>
</g>
<!-- Node15&#45;&gt;Node4 -->
<g id="edge35_Node000015_Node000004" class="edge">
<title>Node15&#45;&gt;Node4</title>
<g id="a_edge35_Node000015_Node000004"><a xlink:title=" ">
<path fill="none" stroke="#63b8ff" d="M73.14,-167.48C61.63,-150.66 51.49,-128.07 63,-110.5 96.74,-59.02 130.58,-71.34 190,-55.25 299.96,-25.48 433.4,-15.56 507.8,-12.27"/>
<polygon fill="#63b8ff" stroke="#63b8ff" points="70.25,-169.46 79.02,-175.42 75.88,-165.3 70.25,-169.46"/>
</a>
</g>
</g>
<!-- Node16&#45;&gt;Node4 -->
<g id="edge37_Node000016_Node000004" class="edge">
<title>Node16&#45;&gt;Node4</title>
<g id="a_edge37_Node000016_Node000004"><a xlink:title=" ">
<path fill="none" stroke="#63b8ff" d="M161.26,-101.98C176.78,-86.12 199.61,-65.96 224,-55.25 273.61,-33.47 424.28,-20.14 507.78,-14.23"/>
<polygon fill="#63b8ff" stroke="#63b8ff" points="158.8,-99.49 154.47,-109.16 163.88,-104.3 158.8,-99.49"/>
</a>
</g>
</g>
<!-- Node18 -->
<g id="Node000018" class="node">
<title>Node18</title>
<g id="a_Node000018"><a xlink:href="../../d7/deb/_reporting_8hpp.html" target="_top" xlink:title=" ">
<polygon fill="white" stroke="#666666" points="1067.25,-401.38 950.75,-401.38 950.75,-382.12 1067.25,-382.12 1067.25,-401.38"/>
<text text-anchor="middle" x="1009" y="-387.88" font-family="Helvetica,sans-Serif" font-size="10.00">mimic++/Reporting.hpp</text>
</a>
</g>
</g>
<!-- Node17&#45;&gt;Node18 -->
<g id="edge39_Node000017_Node000018" class="edge">
<title>Node17&#45;&gt;Node18</title>
<g id="a_edge39_Node000017_Node000018"><a xlink:title=" ">
<path fill="none" stroke="#63b8ff" d="M951.71,-638.47C969.59,-631.85 986.66,-621.79 998,-606.5 1046.05,-541.75 1020.54,-433.19 1011.66,-401.61"/>
<polygon fill="#63b8ff" stroke="#63b8ff" points="950.66,-635.13 942.27,-641.6 952.86,-641.78 950.66,-635.13"/>
</a>
</g>
</g>
<!-- Node19 -->
<g id="Node000019" class="node">
<title>Node19</title>
<g id="a_Node000019"><a xlink:href="../../d1/dfd/_basic_reporter_8hpp.html" target="_top" xlink:title=" ">
<polygon fill="white" stroke="#666666" points="1222.62,-534.38 1045.38,-534.38 1045.38,-515.12 1222.62,-515.12 1222.62,-534.38"/>
<text text-anchor="middle" x="1134" y="-520.88" font-family="Helvetica,sans-Serif" font-size="10.00">mimic++/reporting/BasicReporter.hpp</text>
</a>
</g>
</g>
<!-- Node17&#45;&gt;Node19 -->
<g id="edge41_Node000017_Node000019" class="edge">
<title>Node17&#45;&gt;Node19</title>
<g id="a_edge41_Node000017_Node000019"><a xlink:title=" ">
<path fill="none" stroke="#63b8ff" d="M935.42,-639.5C965.29,-632.4 1001.11,-621.72 1031,-606.5 1069.88,-586.71 1108.38,-551.18 1125.2,-534.66"/>
<polygon fill="#63b8ff" stroke="#63b8ff" points="934.73,-636.06 925.76,-641.7 936.29,-642.89 934.73,-636.06"/>
</a>
</g>
</g>
<!-- Node20 -->
<g id="Node000020" class="node">
<title>Node20</title>
<g id="a_Node000020"><a xlink:href="../../d0/d70/_default_reporter_8hpp.html" target="_top" xlink:title=" ">
<polygon fill="white" stroke="#666666" points="948.25,-540 819.75,-540 819.75,-509.5 948.25,-509.5 948.25,-540"/>
<text text-anchor="start" x="827.75" y="-526.5" font-family="Helvetica,sans-Serif" font-size="10.00">mimic++/reporting/Default</text>
<text text-anchor="middle" x="884" y="-515.25" font-family="Helvetica,sans-Serif" font-size="10.00">Reporter.hpp</text>
</a>
</g>
</g>
<!-- Node17&#45;&gt;Node20 -->
<g id="edge43_Node000017_Node000020" class="edge">
<title>Node17&#45;&gt;Node20</title>
<g id="a_edge43_Node000017_Node000020"><a xlink:title=" ">
<path fill="none" stroke="#63b8ff" d="M859.89,-632.91C854.77,-625.2 849.61,-615.85 847,-606.5 843.36,-593.44 842.77,-588.88 847,-576 851.46,-562.41 861.16,-549.48 869.51,-540.13"/>
<polygon fill="#63b8ff" stroke="#63b8ff" points="857.04,-634.94 865.71,-641.02 862.72,-630.85 857.04,-634.94"/>
</a>
</g>
</g>
<!-- Node21 -->
<g id="Node000021" class="node">
<title>Node21</title>
<g id="a_Node000021"><a xlink:href="../../de/dd1/_global_reporter_8hpp.html" target="_top" xlink:title=" ">
<polygon fill="white" stroke="#666666" points="912.75,-473.5 787.25,-473.5 787.25,-443 912.75,-443 912.75,-473.5"/>
<text text-anchor="start" x="795.25" y="-460" font-family="Helvetica,sans-Serif" font-size="10.00">mimic++/reporting/Global</text>
<text text-anchor="middle" x="850" y="-448.75" font-family="Helvetica,sans-Serif" font-size="10.00">Reporter.hpp</text>
</a>
</g>
</g>
<!-- Node17&#45;&gt;Node21 -->
<g id="edge55_Node000017_Node000021" class="edge">
<title>Node17&#45;&gt;Node21</title>
<g id="a_edge55_Node000017_Node000021"><a xlink:title=" ">
<path fill="none" stroke="#63b8ff" d="M858.89,-633.35C852.58,-625.43 845.47,-615.81 840,-606.5 823.67,-578.7 817.58,-571.56 811,-540 808.23,-526.73 806.61,-522.32 811,-509.5 815.65,-495.92 825.64,-483.17 834.34,-473.92"/>
<polygon fill="#63b8ff" stroke="#63b8ff" points="856,-635.34 865.05,-640.84 861.41,-630.9 856,-635.34"/>
</a>
</g>
</g>
<!-- Node24 -->
<g id="Node000024" class="node">
<title>Node24</title>
<g id="a_Node000024"><a xlink:href="../../d9/d70/_stringify_reports_8hpp.html" target="_top" xlink:title=" ">
<polygon fill="white" stroke="#666666" points="988.5,-606.5 855.5,-606.5 855.5,-576 988.5,-576 988.5,-606.5"/>
<text text-anchor="start" x="863.5" y="-593" font-family="Helvetica,sans-Serif" font-size="10.00">mimic++/reporting/Stringify</text>
<text text-anchor="middle" x="922" y="-581.75" font-family="Helvetica,sans-Serif" font-size="10.00">Reports.hpp</text>
</a>
</g>
</g>
<!-- Node17&#45;&gt;Node24 -->
<g id="edge56_Node000017_Node000024" class="edge">
<title>Node17&#45;&gt;Node24</title>
<g id="a_edge56_Node000017_Node000024"><a xlink:title=" ">
<path fill="none" stroke="#63b8ff" d="M888.43,-633.43C895.37,-624.92 903.58,-614.84 910.15,-606.78"/>
<polygon fill="#63b8ff" stroke="#63b8ff" points="885.85,-631.05 882.25,-641.01 891.28,-635.47 885.85,-631.05"/>
</a>
</g>
</g>
<!-- Node18&#45;&gt;Node4 -->
<g id="edge40_Node000018_Node000004" class="edge">
<title>Node18&#45;&gt;Node4</title>
<g id="a_edge40_Node000018_Node000004"><a xlink:title=" ">
<path fill="none" stroke="#63b8ff" d="M1024.67,-373.05C1044.19,-349.12 1075,-304.29 1075,-259.75 1075,-259.75 1075,-259.75 1075,-124.75 1075,-79.63 1042.05,-73.98 1001,-55.25 934.8,-25.05 724.18,-15.07 621.86,-11.95"/>
<polygon fill="#63b8ff" stroke="#63b8ff" points="1022.12,-370.65 1018.34,-380.54 1027.47,-375.17 1022.12,-370.65"/>
</a>
</g>
</g>
<!-- Node19&#45;&gt;Node18 -->
<g id="edge42_Node000019_Node000018" class="edge">
<title>Node19&#45;&gt;Node18</title>
<g id="a_edge42_Node000019_Node000018"><a xlink:title=" ">
<path fill="none" stroke="#63b8ff" d="M1117.67,-506.64C1090.83,-478.51 1038.32,-423.48 1017.65,-401.82"/>
<polygon fill="#63b8ff" stroke="#63b8ff" points="1114.93,-508.83 1124.36,-513.65 1119.99,-504 1114.93,-508.83"/>
</a>
</g>
</g>
<!-- Node20&#45;&gt;Node18 -->
<g id="edge44_Node000020_Node000018" class="edge">
<title>Node20&#45;&gt;Node18</title>
<g id="a_edge44_Node000020_Node000018"><a xlink:title=" ">
<path fill="none" stroke="#63b8ff" d="M905.51,-501.21C933.43,-471.95 980.89,-422.21 1000.32,-401.85"/>
<polygon fill="#63b8ff" stroke="#63b8ff" points="903.27,-498.48 898.9,-508.14 908.34,-503.32 903.27,-498.48"/>
</a>
</g>
</g>
<!-- Node20&#45;&gt;Node21 -->
<g id="edge45_Node000020_Node000021" class="edge">
<title>Node20&#45;&gt;Node21</title>
<g id="a_edge45_Node000020_Node000021"><a xlink:title=" ">
<path fill="none" stroke="#63b8ff" d="M870.92,-498.94C866.45,-490.46 861.59,-481.24 857.68,-473.83"/>
<polygon fill="#63b8ff" stroke="#63b8ff" points="867.82,-500.56 875.58,-507.78 874.01,-497.3 867.82,-500.56"/>
</a>
</g>
</g>
<!-- Node21&#45;&gt;Node12 -->
<g id="edge54_Node000021_Node000012" class="edge">
<title>Node21&#45;&gt;Node12</title>
<g id="a_edge54_Node000021_Node000012"><a xlink:title=" ">
<path fill="none" stroke="#63b8ff" d="M816.91,-435.84C806.93,-427.89 796.82,-418.07 790,-407 777.23,-386.28 773.04,-357.73 771.67,-340.71"/>
<polygon fill="#63b8ff" stroke="#63b8ff" points="814.63,-438.5 824.73,-441.69 818.83,-432.9 814.63,-438.5"/>
</a>
</g>
</g>
<!-- Node21&#45;&gt;Node18 -->
<g id="edge46_Node000021_Node000018" class="edge">
<title>Node21&#45;&gt;Node18</title>
<g id="a_edge46_Node000021_Node000018"><a xlink:title=" ">
<path fill="none" stroke="#63b8ff" d="M896.66,-438.32C926.39,-426.26 963.55,-411.19 986.79,-401.76"/>
<polygon fill="#63b8ff" stroke="#63b8ff" points="895.43,-435.04 887.48,-442.04 898.06,-441.53 895.43,-435.04"/>
</a>
</g>
</g>
<!-- Node22 -->
<g id="Node000022" class="node">
<title>Node22</title>
<g id="a_Node000022"><a xlink:href="../../d8/de4/_sequence_8hpp.html" target="_top" xlink:title=" ">
<polygon fill="white" stroke="#666666" points="917.38,-401.38 798.62,-401.38 798.62,-382.12 917.38,-382.12 917.38,-401.38"/>
<text text-anchor="middle" x="858" y="-387.88" font-family="Helvetica,sans-Serif" font-size="10.00">mimic++/Sequence.hpp</text>
</a>
</g>
</g>
<!-- Node21&#45;&gt;Node22 -->
<g id="edge47_Node000021_Node000022" class="edge">
<title>Node21&#45;&gt;Node22</title>
<g id="a_edge47_Node000021_Node000022"><a xlink:title=" ">
<path fill="none" stroke="#63b8ff" d="M853.21,-431.34C854.53,-420.76 855.95,-409.25 856.91,-401.57"/>
<polygon fill="#63b8ff" stroke="#63b8ff" points="849.76,-430.76 852,-441.11 856.71,-431.62 849.76,-430.76"/>
</a>
</g>
</g>
<!-- Node22&#45;&gt;Node4 -->
<g id="edge50_Node000022_Node000004" class="edge">
<title>Node22&#45;&gt;Node4</title>
<g id="a_edge50_Node000022_Node000004"><a xlink:title=" ">
<path fill="none" stroke="#63b8ff" d="M905.55,-378.33C958.58,-361.27 1037,-325 1037,-259.75 1037,-259.75 1037,-259.75 1037,-124.75 1037,-80.91 1006.55,-74.17 967,-55.25 907.38,-26.73 718.06,-16.02 622.04,-12.35"/>
<polygon fill="#63b8ff" stroke="#63b8ff" points="904.63,-374.95 896.1,-381.24 906.69,-381.64 904.63,-374.95"/>
</a>
</g>
</g>
<!-- Node22&#45;&gt;Node8 -->
<g id="edge48_Node000022_Node000008" class="edge">
<title>Node22&#45;&gt;Node8</title>
<g id="a_edge48_Node000022_Node000008"><a xlink:title=" ">
<path fill="none" stroke="#63b8ff" d="M860.31,-370.31C863.88,-330.93 867.53,-242.66 838,-177 830.26,-159.79 814.17,-144.68 802.99,-135.64"/>
<polygon fill="#63b8ff" stroke="#63b8ff" points="856.84,-369.87 859.31,-380.18 863.8,-370.58 856.84,-369.87"/>
</a>
</g>
</g>
<!-- Node22&#45;&gt;Node12 -->
<g id="edge49_Node000022_Node000012" class="edge">
<title>Node22&#45;&gt;Node12</title>
<g id="a_edge49_Node000022_Node000012"><a xlink:title=" ">
<path fill="none" stroke="#63b8ff" d="M836.96,-375.15C822.88,-364.71 804.47,-351.06 790.68,-340.84"/>
<polygon fill="#63b8ff" stroke="#63b8ff" points="834.57,-377.74 844.69,-380.88 838.74,-372.11 834.57,-377.74"/>
</a>
</g>
</g>
<!-- Node23 -->
<g id="Node000023" class="node">
<title>Node23</title>
<g id="a_Node000023"><a xlink:href="../../db/d70/_control_policies_8hpp.html" target="_top" xlink:title=" ">
<polygon fill="white" stroke="#666666" points="1009,-274 885,-274 885,-243.5 1009,-243.5 1009,-274"/>
<text text-anchor="start" x="893" y="-260.5" font-family="Helvetica,sans-Serif" font-size="10.00">mimic++/policies/Control</text>
<text text-anchor="middle" x="947" y="-249.25" font-family="Helvetica,sans-Serif" font-size="10.00">Policies.hpp</text>
</a>
</g>
</g>
<!-- Node22&#45;&gt;Node23 -->
<g id="edge51_Node000022_Node000023" class="edge">
<title>Node22&#45;&gt;Node23</title>
<g id="a_edge51_Node000022_Node000023"><a xlink:title=" ">
<path fill="none" stroke="#63b8ff" d="M870.37,-372.54C888.23,-346.26 920.85,-298.24 937.17,-274.22"/>
<polygon fill="#63b8ff" stroke="#63b8ff" points="867.69,-370.26 864.97,-380.49 873.48,-374.19 867.69,-370.26"/>
</a>
</g>
</g>
<!-- Node23&#45;&gt;Node4 -->
<g id="edge53_Node000023_Node000004" class="edge">
<title>Node23&#45;&gt;Node4</title>
<g id="a_edge53_Node000023_Node000004"><a xlink:title=" ">
<path fill="none" stroke="#63b8ff" d="M956.44,-232.51C970.48,-190.12 990.8,-104.46 947,-55.25 925.78,-31.4 723.06,-18.28 621.88,-13.17"/>
<polygon fill="#63b8ff" stroke="#63b8ff" points="953.18,-231.23 953.2,-241.82 959.79,-233.53 953.18,-231.23"/>
</a>
</g>
</g>
<!-- Node23&#45;&gt;Node7 -->
<g id="edge52_Node000023_Node000007" class="edge">
<title>Node23&#45;&gt;Node7</title>
<g id="a_edge52_Node000023_Node000007"><a xlink:title=" ">
<path fill="none" stroke="#63b8ff" d="M873.61,-242.12C827.72,-232.3 767.38,-219.29 714,-207.5 710.93,-206.82 707.79,-206.12 704.61,-205.41"/>
<polygon fill="#63b8ff" stroke="#63b8ff" points="872.67,-245.5 883.18,-244.17 874.13,-238.65 872.67,-245.5"/>
</a>
</g>
</g>
<!-- Node24&#45;&gt;Node18 -->
<g id="edge57_Node000024_Node000018" class="edge">
<title>Node24&#45;&gt;Node18</title>
<g id="a_edge57_Node000024_Node000018"><a xlink:title=" ">
<path fill="none" stroke="#63b8ff" d="M940.6,-566.36C946.35,-558.28 952.38,-549.01 957,-540 982.49,-490.31 1000.63,-425.24 1006.74,-401.72"/>
<polygon fill="#63b8ff" stroke="#63b8ff" points="937.85,-564.18 934.74,-574.31 943.49,-568.33 937.85,-564.18"/>
</a>
</g>
</g>
<!-- Node24&#45;&gt;Node19 -->
<g id="edge58_Node000024_Node000019" class="edge">
<title>Node24&#45;&gt;Node19</title>
<g id="a_edge58_Node000024_Node000019"><a xlink:title=" ">
<path fill="none" stroke="#63b8ff" d="M981.33,-572.2C1021.33,-560.03 1072.4,-544.49 1104.15,-534.83"/>
<polygon fill="#63b8ff" stroke="#63b8ff" points="980.37,-568.83 971.82,-575.09 982.41,-575.53 980.37,-568.83"/>
</a>
</g>
</g>
<!-- Node24&#45;&gt;Node20 -->
<g id="edge59_Node000024_Node000020" class="edge">
<title>Node24&#45;&gt;Node20</title>
<g id="a_edge59_Node000024_Node000020"><a xlink:title=" ">
<path fill="none" stroke="#63b8ff" d="M907.55,-565.73C902.51,-557.16 897,-547.82 892.59,-540.33"/>
<polygon fill="#63b8ff" stroke="#63b8ff" points="904.52,-567.47 912.61,-574.31 910.55,-563.92 904.52,-567.47"/>
</a>
</g>
</g>
</g>
</svg>

<g id="navigator" transform="translate(0 0)" fill="#404254">
  <rect fill="#f2f5e9" fill-opacity="0.5" stroke="#606060" stroke-width=".5" x="0" y="0" width="60" height="60"/>
  <use id="zoomplus" xlink:href="#zoomPlus" x="17" y="9" onmousedown="handleZoom(evt,'in')"/>
  <use id="zoomminus" xlink:href="#zoomMin" x="42" y="9" onmousedown="handleZoom(evt,'out')"/>
  <use id="reset" xlink:href="#resetDef" x="30" y="36" onmousedown="handleReset()"/>
   <use id="arrowup" xlink:href="#arrowUp" x="0" y="0" onmousedown="handlePan(0,-1)"/>
  <use id="arrowright" xlink:href="#arrowRight" x="0" y="0" onmousedown="handlePan(1,0)"/>
  <use id="arrowdown" xlink:href="#arrowDown" x="0" y="0" onmousedown="handlePan(0,1)"/>
  <use id="arrowleft" xlink:href="#arrowLeft" x="0" y="0" onmousedown="handlePan(-1,0)"/>
</g>
<svg viewBox="0 0 15 15" width="100%" height="30px" preserveAspectRatio="xMaxYMin meet">
 <g id="arrow_out" transform="scale(0.3 0.3)">
  <a xlink:href="_call_8hpp__dep__incl_org.svg" target="_base">
   <rect id="button" ry="5" rx="5" y="6" x="6" height="38" width="38"
        fill="#f2f5e9" fill-opacity="0.5" stroke="#606060" stroke-width="1.0"/>
   <path id="arrow"
     d="M 11.500037,31.436501 C 11.940474,20.09759 22.043105,11.32322 32.158766,21.979434 L 37.068811,17.246167 C 37.068811,17.246167 37.088388,32 37.088388,32 L 22.160133,31.978069 C 22.160133,31.978069 26.997745,27.140456 26.997745,27.140456 C 18.528582,18.264221 13.291696,25.230495 11.500037,31.436501 z"
     style="fill:#404040;"/>
  </a>
 </g>
</svg>

<style type='text/css'>
<![CDATA[
[data-mouse-over-selected='false'] { opacity: 0.7; }
[data-mouse-over-selected='true']  { opacity: 1.0; }
]]>
</style>
<script type="application/ecmascript"><![CDATA[
document.addEventListener('DOMContentLoaded', (event) => {
  highlightEdges();
  highlightAdjacentNodes();
});
]]></script>
</svg>
