<?xml version="1.0" encoding="UTF-8" standalone="no"?>
<!DOCTYPE svg PUBLIC "-//W3C//DTD SVG 1.1//EN"
 "http://www.w3.org/Graphics/SVG/1.1/DTD/svg11.dtd">
<!-- Generated by graphviz version 12.1.2 (20240928.0832)
 -->
<!-- Title: mimic++/Call.hpp Pages: 1 -->
<!--zoomable 580 -->

<svg id="main" version="1.1" xmlns="http://www.w3.org/2000/svg" xmlns:xlink="http://www.w3.org/1999/xlink" xml:space="preserve" onload="init(evt)">

<style type="text/css"><![CDATA[
.node, .edge {opacity: 0.7;}
.node.selected, .edge.selected {opacity: 1;}
.edge:hover path { stroke: red; }
.edge:hover polygon { stroke: red; fill: red; }
]]></style>

<defs>
  <circle id="rim" cx="0" cy="0" r="7"/>
  <circle id="rim2" cx="0" cy="0" r="3.5"/>
  <g id="zoomPlus">
    <use xlink:href="#rim" fill="#404040"><set attributeName="fill" to="#808080" begin="zoomplus.mouseover" end="zoomplus.mouseout"/></use>
    <path d="M-4,0h8M0,-4v8" fill="none" stroke="white" stroke-width="1.5" pointer-events="none"/>
  </g>
  <g id="zoomMin">
    <use xlink:href="#rim" fill="#404040"><set attributeName="fill" to="#808080" begin="zoomminus.mouseover" end="zoomminus.mouseout"/></use>
    <path d="M-4,0h8" fill="none" stroke="white" stroke-width="1.5" pointer-events="none"/>
  </g>
  <g id="arrowUp" transform="translate(30 24)">
    <use xlink:href="#rim"/>
    <path pointer-events="none" fill="none" stroke="white" stroke-width="1.5" d="M0,-3.0v7 M-2.5,-0.5L0,-3.0L2.5,-0.5"/>
  </g>
  <g id="arrowRight" transform="rotate(90) translate(36 -43)">
    <use xlink:href="#rim"/>
    <path pointer-events="none" fill="none" stroke="white" stroke-width="1.5" d="M0,-3.0v7 M-2.5,-0.5L0,-3.0L2.5,-0.5"/>
  </g>
  <g id="arrowDown" transform="rotate(180) translate(-30 -48)">
    <use xlink:href="#rim"/>
    <path pointer-events="none" fill="none" stroke="white" stroke-width="1.5" d="M0,-3.0v7 M-2.5,-0.5L0,-3.0L2.5,-0.5"/>
  </g>
  <g id="arrowLeft" transform="rotate(270) translate(-36 17)">
    <use xlink:href="#rim"/>
    <path pointer-events="none" fill="none" stroke="white" stroke-width="1.5" d="M0,-3.0v7 M-2.5,-0.5L0,-3.0L2.5,-0.5"/>
  </g>
  <g id="resetDef">
    <use xlink:href="#rim2" fill="#404040"><set attributeName="fill" to="#808080" begin="reset.mouseover" end="reset.mouseout"/></use>
  </g>
</defs>
<script type="application/ecmascript">
var viewWidth = 859;
var viewHeight = 580;
var sectionId = 'dynsection-1';
</script>
<script type="application/ecmascript" xlink:href="../../svg.min.js"/>
<svg id="graph" class="graph">
<g id="viewport">
<title>mimic++/Call.hpp</title>
<!-- Node1 -->
<g id="Node000001" class="node">
<title>Node1</title>
<g id="a_Node000001"><a xlink:title=" ">
<polygon fill="#999999" stroke="#666666" points="310.88,-571.75 219.12,-571.75 219.12,-552.5 310.88,-552.5 310.88,-571.75"/>
<text text-anchor="middle" x="265" y="-558.25" font-family="Helvetica,sans-Serif" font-size="10.00">mimic++/Call.hpp</text>
</a>
</g>
</g>
<!-- Node2 -->
<g id="Node000002" class="node">
<title>Node2</title>
<g id="a_Node000002"><a xlink:href="../../d5/d8a/_expectation_8hpp.html" target="_top" xlink:title=" ">
<polygon fill="white" stroke="#666666" points="558.75,-295.5 433.25,-295.5 433.25,-276.25 558.75,-276.25 558.75,-295.5"/>
<text text-anchor="middle" x="496" y="-282" font-family="Helvetica,sans-Serif" font-size="10.00">mimic++/Expectation.hpp</text>
</a>
</g>
</g>
<!-- Node1&#45;&gt;Node2 -->
<g id="edge1_Node000001_Node000002" class="edge">
<title>Node1&#45;&gt;Node2</title>
<g id="a_edge1_Node000001_Node000002"><a xlink:title=" ">
<path fill="none" stroke="#63b8ff" d="M207.5,-557.99C140.25,-550.86 38,-527.67 38,-452.62 38,-452.62 38,-452.62 38,-395.38 38,-315.19 307.16,-294.18 432.8,-288.74"/>
<polygon fill="#63b8ff" stroke="#63b8ff" points="206.99,-561.46 217.28,-558.93 207.66,-554.49 206.99,-561.46"/>
</a>
</g>
</g>
<!-- Node6 -->
<g id="Node000006" class="node">
<title>Node6</title>
<g id="a_Node000006"><a xlink:href="../../d0/db9/mimic_09_09_8hpp.html" target="_top" xlink:title=" ">
<polygon fill="white" stroke="#666666" points="645.75,-19.25 532.25,-19.25 532.25,0 645.75,0 645.75,-19.25"/>
<text text-anchor="middle" x="589" y="-5.75" font-family="Helvetica,sans-Serif" font-size="10.00">mimic++/mimic++.hpp</text>
</a>
</g>
</g>
<!-- Node1&#45;&gt;Node6 -->
<g id="edge31_Node000001_Node000006" class="edge">
<title>Node1&#45;&gt;Node6</title>
<g id="a_edge31_Node000001_Node000006"><a xlink:title=" ">
<path fill="none" stroke="#63b8ff" d="M207.74,-561.74C129.83,-559.24 0,-541.71 0,-452.62 0,-452.62 0,-452.62 0,-119.12 0,-65.38 384.17,-27.68 531.99,-15.16"/>
<polygon fill="#63b8ff" stroke="#63b8ff" points="207.25,-565.23 217.33,-561.97 207.41,-558.23 207.25,-565.23"/>
</a>
</g>
</g>
<!-- Node8 -->
<g id="Node000008" class="node">
<title>Node8</title>
<g id="a_Node000008"><a xlink:href="../../da/dd9/_reporter_8hpp.html" target="_top" xlink:title=" ">
<polygon fill="white" stroke="#666666" points="583,-461.25 471,-461.25 471,-442 583,-442 583,-461.25"/>
<text text-anchor="middle" x="527" y="-447.75" font-family="Helvetica,sans-Serif" font-size="10.00">mimic++/Reporter.hpp</text>
</a>
</g>
</g>
<!-- Node1&#45;&gt;Node8 -->
<g id="edge14_Node000001_Node000008" class="edge">
<title>Node1&#45;&gt;Node8</title>
<g id="a_edge14_Node000001_Node000008"><a xlink:title=" ">
<path fill="none" stroke="#63b8ff" d="M297.26,-547.77C351.3,-525.39 458.74,-480.89 504.99,-461.74"/>
<polygon fill="#63b8ff" stroke="#63b8ff" points="296.19,-544.42 288.29,-551.48 298.86,-550.89 296.19,-544.42"/>
</a>
</g>
</g>
<!-- Node14 -->
<g id="Node000014" class="node">
<title>Node14</title>
<g id="a_Node000014"><a xlink:href="../../d0/d3b/_reports_8hpp.html" target="_top" xlink:title=" ">
<polygon fill="white" stroke="#666666" points="679.5,-516.5 570.5,-516.5 570.5,-497.25 679.5,-497.25 679.5,-516.5"/>
<text text-anchor="middle" x="625" y="-503" font-family="Helvetica,sans-Serif" font-size="10.00">mimic++/Reports.hpp</text>
</a>
</g>
</g>
<!-- Node1&#45;&gt;Node14 -->
<g id="edge27_Node000001_Node000014" class="edge">
<title>Node1&#45;&gt;Node14</title>
<g id="a_edge27_Node000001_Node000014"><a xlink:title=" ">
<path fill="none" stroke="#63b8ff" d="M322.68,-552.59C390.76,-542.52 503.14,-525.9 570.02,-516.01"/>
<polygon fill="#63b8ff" stroke="#63b8ff" points="322.2,-549.13 312.82,-554.05 323.23,-556.05 322.2,-549.13"/>
</a>
</g>
</g>
<!-- Node3 -->
<g id="Node000003" class="node">
<title>Node3</title>
<g id="a_Node000003"><a xlink:href="../../d2/d4f/_expectation_builder_8hpp.html" target="_top" xlink:title=" ">
<polygon fill="white" stroke="#666666" points="596.75,-185 441.25,-185 441.25,-165.75 596.75,-165.75 596.75,-185"/>
<text text-anchor="middle" x="519" y="-171.5" font-family="Helvetica,sans-Serif" font-size="10.00">mimic++/ExpectationBuilder.hpp</text>
</a>
</g>
</g>
<!-- Node2&#45;&gt;Node3 -->
<g id="edge2_Node000002_Node000003" class="edge">
<title>Node2&#45;&gt;Node3</title>
<g id="a_edge2_Node000002_Node000003"><a xlink:title=" ">
<path fill="none" stroke="#63b8ff" d="M506.39,-265.92C510.11,-258.19 513.91,-249.02 516,-240.25 520.58,-221.03 520.24,-197.66 519.61,-185.2"/>
<polygon fill="#63b8ff" stroke="#63b8ff" points="503.35,-264.16 501.87,-274.65 509.57,-267.37 503.35,-264.16"/>
</a>
</g>
</g>
<!-- Node4 -->
<g id="Node000004" class="node">
<title>Node4</title>
<g id="a_Node000004"><a xlink:href="../../d5/dc5/_mock_8hpp.html" target="_top" xlink:title=" ">
<polygon fill="white" stroke="#666666" points="395.62,-129.75 296.38,-129.75 296.38,-110.5 395.62,-110.5 395.62,-129.75"/>
<text text-anchor="middle" x="346" y="-116.25" font-family="Helvetica,sans-Serif" font-size="10.00">mimic++/Mock.hpp</text>
</a>
</g>
</g>
<!-- Node2&#45;&gt;Node4 -->
<g id="edge12_Node000002_Node000004" class="edge">
<title>Node2&#45;&gt;Node4</title>
<g id="a_edge12_Node000002_Node000004"><a xlink:title=" ">
<path fill="none" stroke="#63b8ff" d="M426.32,-273.69C389.28,-266.17 349.11,-254.94 338,-240.25 312.61,-206.7 332.52,-151.45 341.85,-130.01"/>
<polygon fill="#63b8ff" stroke="#63b8ff" points="425.2,-277.04 435.69,-275.52 426.54,-270.17 425.2,-277.04"/>
</a>
</g>
</g>
<!-- Node2&#45;&gt;Node6 -->
<g id="edge13_Node000002_Node000006" class="edge">
<title>Node2&#45;&gt;Node6</title>
<g id="a_edge13_Node000002_Node000006"><a xlink:title=" ">
<path fill="none" stroke="#63b8ff" d="M533.64,-271.66C571.71,-255.6 625,-224.52 625,-176.38 625,-176.38 625,-176.38 625,-119.12 625,-80.42 604.11,-37.73 594.16,-19.58"/>
<polygon fill="#63b8ff" stroke="#63b8ff" points="532.73,-268.25 524.76,-275.23 535.35,-274.74 532.73,-268.25"/>
</a>
</g>
</g>
<!-- Node7 -->
<g id="Node000007" class="node">
<title>Node7</title>
<g id="a_Node000007"><a xlink:href="../../d8/de5/_expectation_policies_8hpp.html" target="_top" xlink:title=" ">
<polygon fill="white" stroke="#666666" points="507,-240.25 347,-240.25 347,-221 507,-221 507,-240.25"/>
<text text-anchor="middle" x="427" y="-226.75" font-family="Helvetica,sans-Serif" font-size="10.00">mimic++/ExpectationPolicies.hpp</text>
</a>
</g>
</g>
<!-- Node2&#45;&gt;Node7 -->
<g id="edge8_Node000002_Node000007" class="edge">
<title>Node2&#45;&gt;Node7</title>
<g id="a_edge8_Node000002_Node000007"><a xlink:title=" ">
<path fill="none" stroke="#63b8ff" d="M475.35,-268.94C463.3,-259.64 448.55,-248.26 438.53,-240.52"/>
<polygon fill="#63b8ff" stroke="#63b8ff" points="473.04,-271.58 483.1,-274.92 477.32,-266.04 473.04,-271.58"/>
</a>
</g>
</g>
<!-- Node3&#45;&gt;Node4 -->
<g id="edge3_Node000003_Node000004" class="edge">
<title>Node3&#45;&gt;Node4</title>
<g id="a_edge3_Node000003_Node000004"><a xlink:title=" ">
<path fill="none" stroke="#63b8ff" d="M479.01,-162.07C447.4,-152.34 404,-138.98 375.49,-130.2"/>
<polygon fill="#63b8ff" stroke="#63b8ff" points="477.62,-165.3 488.21,-164.9 479.68,-158.61 477.62,-165.3"/>
</a>
</g>
</g>
<!-- Node3&#45;&gt;Node6 -->
<g id="edge7_Node000003_Node000006" class="edge">
<title>Node3&#45;&gt;Node6</title>
<g id="a_edge7_Node000003_Node000006"><a xlink:title=" ">
<path fill="none" stroke="#63b8ff" d="M527.22,-155.16C542.39,-119.65 574.27,-45.07 585.22,-19.47"/>
<polygon fill="#63b8ff" stroke="#63b8ff" points="524.07,-153.61 523.36,-164.18 530.51,-156.36 524.07,-153.61"/>
</a>
</g>
</g>
<!-- Node5 -->
<g id="Node000005" class="node">
<title>Node5</title>
<g id="a_Node000005"><a xlink:href="../../d9/dc3/_interface_mock_8hpp.html" target="_top" xlink:title=" ">
<polygon fill="white" stroke="#666666" points="414.75,-74.5 277.25,-74.5 277.25,-55.25 414.75,-55.25 414.75,-74.5"/>
<text text-anchor="middle" x="346" y="-61" font-family="Helvetica,sans-Serif" font-size="10.00">mimic++/InterfaceMock.hpp</text>
</a>
</g>
</g>
<!-- Node4&#45;&gt;Node5 -->
<g id="edge4_Node000004_Node000005" class="edge">
<title>Node4&#45;&gt;Node5</title>
<g id="a_edge4_Node000004_Node000005"><a xlink:title=" ">
<path fill="none" stroke="#63b8ff" d="M346,-98.88C346,-90.59 346,-81.42 346,-74.86"/>
<polygon fill="#63b8ff" stroke="#63b8ff" points="342.5,-98.82 346,-108.82 349.5,-98.82 342.5,-98.82"/>
</a>
</g>
</g>
<!-- Node4&#45;&gt;Node6 -->
<g id="edge6_Node000004_Node000006" class="edge">
<title>Node4&#45;&gt;Node6</title>
<g id="a_edge6_Node000004_Node000006"><a xlink:title=" ">
<path fill="none" stroke="#63b8ff" d="M308.74,-105.81C280.98,-93.87 250.62,-75.21 268,-55.25 301.53,-16.74 448.87,-10.4 531.78,-9.98"/>
<polygon fill="#63b8ff" stroke="#63b8ff" points="307.17,-108.95 317.75,-109.47 309.81,-102.46 307.17,-108.95"/>
</a>
</g>
</g>
<!-- Node5&#45;&gt;Node6 -->
<g id="edge5_Node000005_Node000006" class="edge">
<title>Node5&#45;&gt;Node6</title>
<g id="a_edge5_Node000005_Node000006"><a xlink:title=" ">
<path fill="none" stroke="#63b8ff" d="M398.72,-52.32C443.4,-42.53 506.58,-28.69 547.67,-19.68"/>
<polygon fill="#63b8ff" stroke="#63b8ff" points="397.99,-48.9 388.98,-54.46 399.49,-55.74 397.99,-48.9"/>
</a>
</g>
</g>
<!-- Node7&#45;&gt;Node3 -->
<g id="edge9_Node000007_Node000003" class="edge">
<title>Node7&#45;&gt;Node3</title>
<g id="a_edge9_Node000007_Node000003"><a xlink:title=" ">
<path fill="none" stroke="#63b8ff" d="M452.11,-215.09C468.46,-205.63 489.28,-193.58 503.32,-185.45"/>
<polygon fill="#63b8ff" stroke="#63b8ff" points="450.82,-211.79 443.92,-219.83 454.32,-217.85 450.82,-211.79"/>
</a>
</g>
</g>
<!-- Node7&#45;&gt;Node4 -->
<g id="edge10_Node000007_Node000004" class="edge">
<title>Node7&#45;&gt;Node4</title>
<g id="a_edge10_Node000007_Node000004"><a xlink:title=" ">
<path fill="none" stroke="#63b8ff" d="M413.5,-211.54C395.96,-188.05 366.03,-147.95 352.72,-130.13"/>
<polygon fill="#63b8ff" stroke="#63b8ff" points="410.68,-213.61 419.47,-219.53 416.29,-209.43 410.68,-213.61"/>
</a>
</g>
</g>
<!-- Node7&#45;&gt;Node6 -->
<g id="edge11_Node000007_Node000006" class="edge">
<title>Node7&#45;&gt;Node6</title>
<g id="a_edge11_Node000007_Node000006"><a xlink:title=" ">
<path fill="none" stroke="#63b8ff" d="M425.06,-209.43C424.63,-196.39 425.68,-179.37 432,-165.75 464.28,-96.24 541.95,-40.66 574.38,-19.67"/>
<polygon fill="#63b8ff" stroke="#63b8ff" points="421.56,-209.63 425.73,-219.37 428.55,-209.16 421.56,-209.63"/>
</a>
</g>
</g>
<!-- Node8&#45;&gt;Node2 -->
<g id="edge15_Node000008_Node000002" class="edge">
<title>Node8&#45;&gt;Node2</title>
<g id="a_edge15_Node000008_Node000002"><a xlink:title=" ">
<path fill="none" stroke="#63b8ff" d="M542.17,-432.52C547.66,-424.84 553.19,-415.49 556,-406 558.43,-397.8 558.29,-394.99 556,-386.75 545.73,-349.71 517.65,-312.64 503.86,-295.98"/>
<polygon fill="#63b8ff" stroke="#63b8ff" points="539.49,-430.26 536.14,-440.32 545.03,-434.55 539.49,-430.26"/>
</a>
</g>
</g>
<!-- Node8&#45;&gt;Node6 -->
<g id="edge26_Node000008_Node000006" class="edge">
<title>Node8&#45;&gt;Node6</title>
<g id="a_edge26_Node000008_Node000006"><a xlink:title=" ">
<path fill="none" stroke="#63b8ff" d="M594.54,-444.26C635.43,-438.38 687.68,-427.19 730,-406 787.7,-377.11 813,-351.4 813,-286.88 813,-286.88 813,-286.88 813,-119.12 813,-45.02 712.47,-21.51 646.1,-14.06"/>
<polygon fill="#63b8ff" stroke="#63b8ff" points="594.27,-440.76 584.83,-445.58 595.21,-447.7 594.27,-440.76"/>
</a>
</g>
</g>
<!-- Node9 -->
<g id="Node000009" class="node">
<title>Node9</title>
<g id="a_Node000009"><a xlink:href="../../d8/de4/_sequence_8hpp.html" target="_top" xlink:title=" ">
<polygon fill="white" stroke="#666666" points="721.38,-406 602.62,-406 602.62,-386.75 721.38,-386.75 721.38,-406"/>
<text text-anchor="middle" x="662" y="-392.5" font-family="Helvetica,sans-Serif" font-size="10.00">mimic++/Sequence.hpp</text>
</a>
</g>
</g>
<!-- Node8&#45;&gt;Node9 -->
<g id="edge16_Node000008_Node000009" class="edge">
<title>Node8&#45;&gt;Node9</title>
<g id="a_edge16_Node000008_Node000009"><a xlink:title=" ">
<path fill="none" stroke="#63b8ff" d="M560.49,-437.41C584.93,-427.77 617.42,-414.96 638.99,-406.45"/>
<polygon fill="#63b8ff" stroke="#63b8ff" points="559.33,-434.11 551.31,-441.04 561.9,-440.62 559.33,-434.11"/>
</a>
</g>
</g>
<!-- Node11 -->
<g id="Node000011" class="node">
<title>Node11</title>
<g id="a_Node000011"><a xlink:href="../../d9/d42/_boost_test_8hpp.html" target="_top" xlink:title=" ">
<polygon fill="white" stroke="#666666" points="226.38,-406 65.62,-406 65.62,-386.75 226.38,-386.75 226.38,-406"/>
<text text-anchor="middle" x="146" y="-392.5" font-family="Helvetica,sans-Serif" font-size="10.00">mimic++/adapters/BoostTest.hpp</text>
</a>
</g>
</g>
<!-- Node8&#45;&gt;Node11 -->
<g id="edge23_Node000008_Node000011" class="edge">
<title>Node8&#45;&gt;Node11</title>
<g id="a_edge23_Node000008_Node000011"><a xlink:title=" ">
<path fill="none" stroke="#63b8ff" d="M459.44,-441.18C389.28,-431.38 280.29,-416.14 211.07,-406.47"/>
<polygon fill="#63b8ff" stroke="#63b8ff" points="458.89,-444.64 469.28,-442.56 459.86,-437.71 458.89,-444.64"/>
</a>
</g>
</g>
<!-- Node12 -->
<g id="Node000012" class="node">
<title>Node12</title>
<g id="a_Node000012"><a xlink:href="../../d3/d04/_catch2_8hpp.html" target="_top" xlink:title=" ">
<polygon fill="white" stroke="#666666" points="391.25,-406 244.75,-406 244.75,-386.75 391.25,-386.75 391.25,-406"/>
<text text-anchor="middle" x="318" y="-392.5" font-family="Helvetica,sans-Serif" font-size="10.00">mimic++/adapters/Catch2.hpp</text>
</a>
</g>
</g>
<!-- Node8&#45;&gt;Node12 -->
<g id="edge24_Node000008_Node000012" class="edge">
<title>Node8&#45;&gt;Node12</title>
<g id="a_edge24_Node000008_Node000012"><a xlink:title=" ">
<path fill="none" stroke="#63b8ff" d="M480.67,-438.82C442.34,-429.05 388.67,-415.38 353.63,-406.45"/>
<polygon fill="#63b8ff" stroke="#63b8ff" points="479.52,-442.14 490.08,-441.22 481.25,-435.36 479.52,-442.14"/>
</a>
</g>
</g>
<!-- Node13 -->
<g id="Node000013" class="node">
<title>Node13</title>
<g id="a_Node000013"><a xlink:href="../../d5/db1/gtest_8hpp.html" target="_top" xlink:title=" ">
<polygon fill="white" stroke="#666666" points="546.75,-406 409.25,-406 409.25,-386.75 546.75,-386.75 546.75,-406"/>
<text text-anchor="middle" x="478" y="-392.5" font-family="Helvetica,sans-Serif" font-size="10.00">mimic++/adapters/gtest.hpp</text>
</a>
</g>
</g>
<!-- Node8&#45;&gt;Node13 -->
<g id="edge25_Node000008_Node000013" class="edge">
<title>Node8&#45;&gt;Node13</title>
<g id="a_edge25_Node000008_Node000013"><a xlink:title=" ">
<path fill="none" stroke="#63b8ff" d="M511.28,-433.54C502.96,-424.5 493.09,-413.77 486.27,-406.36"/>
<polygon fill="#63b8ff" stroke="#63b8ff" points="508.54,-435.73 517.88,-440.72 513.69,-430.99 508.54,-435.73"/>
</a>
</g>
</g>
<!-- Node9&#45;&gt;Node3 -->
<g id="edge21_Node000009_Node000003" class="edge">
<title>Node9&#45;&gt;Node3</title>
<g id="a_edge21_Node000009_Node000003"><a xlink:title=" ">
<path fill="none" stroke="#63b8ff" d="M640.69,-379.69C630.86,-371.75 619.51,-361.52 611,-350.75 599.38,-336.05 540.31,-218.89 523.48,-185.33"/>
<polygon fill="#63b8ff" stroke="#63b8ff" points="638.27,-382.24 648.32,-385.61 642.57,-376.71 638.27,-382.24"/>
</a>
</g>
</g>
<!-- Node9&#45;&gt;Node6 -->
<g id="edge22_Node000009_Node000006" class="edge">
<title>Node9&#45;&gt;Node6</title>
<g id="a_edge22_Node000009_Node000006"><a xlink:title=" ">
<path fill="none" stroke="#63b8ff" d="M652.34,-376.08C648.99,-368.4 645.67,-359.35 644,-350.75 642.37,-342.35 643.48,-340.04 644,-331.5 648.23,-262.17 663,-245.83 663,-176.38 663,-176.38 663,-176.38 663,-119.12 663,-75.58 621.81,-36.61 600.89,-19.63"/>
<polygon fill="#63b8ff" stroke="#63b8ff" points="649.15,-377.53 656.57,-385.09 655.48,-374.55 649.15,-377.53"/>
</a>
</g>
</g>
<!-- Node10 -->
<g id="Node000010" class="node">
<title>Node10</title>
<g id="a_Node000010"><a xlink:href="../../d6/d17/_control_policy_8hpp.html" target="_top" xlink:title=" ">
<polygon fill="white" stroke="#666666" points="785.12,-350.75 652.88,-350.75 652.88,-331.5 785.12,-331.5 785.12,-350.75"/>
<text text-anchor="middle" x="719" y="-337.25" font-family="Helvetica,sans-Serif" font-size="10.00">mimic++/ControlPolicy.hpp</text>
</a>
</g>
</g>
<!-- Node9&#45;&gt;Node10 -->
<g id="edge17_Node000009_Node000010" class="edge">
<title>Node9&#45;&gt;Node10</title>
<g id="a_edge17_Node000009_Node000010"><a xlink:title=" ">
<path fill="none" stroke="#63b8ff" d="M679.95,-378.61C689.73,-369.47 701.44,-358.53 709.47,-351.02"/>
<polygon fill="#63b8ff" stroke="#63b8ff" points="677.69,-375.92 672.78,-385.31 682.47,-381.04 677.69,-375.92"/>
</a>
</g>
</g>
<!-- Node10&#45;&gt;Node2 -->
<g id="edge18_Node000010_Node000002" class="edge">
<title>Node10&#45;&gt;Node2</title>
<g id="a_edge18_Node000010_Node000002"><a xlink:title=" ">
<path fill="none" stroke="#63b8ff" d="M669.84,-328.39C628.88,-318.61 571.39,-304.88 533.92,-295.93"/>
<polygon fill="#63b8ff" stroke="#63b8ff" points="668.91,-331.76 679.45,-330.68 670.53,-324.95 668.91,-331.76"/>
</a>
</g>
</g>
<!-- Node10&#45;&gt;Node3 -->
<g id="edge19_Node000010_Node000003" class="edge">
<title>Node10&#45;&gt;Node3</title>
<g id="a_edge19_Node000010_Node000003"><a xlink:title=" ">
<path fill="none" stroke="#63b8ff" d="M704.47,-322.49C683.44,-297.72 642.51,-252.18 601,-221 581.56,-206.4 556.75,-193.59 539.54,-185.48"/>
<polygon fill="#63b8ff" stroke="#63b8ff" points="701.66,-324.6 710.77,-330.01 707.03,-320.1 701.66,-324.6"/>
</a>
</g>
</g>
<!-- Node10&#45;&gt;Node6 -->
<g id="edge20_Node000010_Node000006" class="edge">
<title>Node10&#45;&gt;Node6</title>
<g id="a_edge20_Node000010_Node000006"><a xlink:title=" ">
<path fill="none" stroke="#63b8ff" d="M724.91,-320.27C730.81,-298.66 739,-263.01 739,-231.62 739,-231.62 739,-231.62 739,-119.12 739,-63.2 669.7,-33.17 625.31,-19.68"/>
<polygon fill="#63b8ff" stroke="#63b8ff" points="721.58,-319.19 722.2,-329.77 728.31,-321.11 721.58,-319.19"/>
</a>
</g>
</g>
<!-- Node14&#45;&gt;Node6 -->
<g id="edge30_Node000014_Node000006" class="edge">
<title>Node14&#45;&gt;Node6</title>
<g id="a_edge30_Node000014_Node000006"><a xlink:title=" ">
<path fill="none" stroke="#63b8ff" d="M691.28,-501.6C757.97,-493.28 851,-468.86 851,-397.38 851,-397.38 851,-397.38 851,-119.12 851,-31.12 723.26,-13.12 646.17,-10.26"/>
<polygon fill="#63b8ff" stroke="#63b8ff" points="691.04,-498.11 681.5,-502.72 691.83,-505.06 691.04,-498.11"/>
</a>
</g>
</g>
<!-- Node14&#45;&gt;Node8 -->
<g id="edge29_Node000014_Node000008" class="edge">
<title>Node14&#45;&gt;Node8</title>
<g id="a_edge29_Node000014_Node000008"><a xlink:title=" ">
<path fill="none" stroke="#63b8ff" d="M598.75,-491.61C581.26,-482.11 558.8,-469.9 543.71,-461.7"/>
<polygon fill="#63b8ff" stroke="#63b8ff" points="596.59,-494.42 607.05,-496.12 599.93,-488.27 596.59,-494.42"/>
</a>
</g>
</g>
<!-- Node14&#45;&gt;Node10 -->
<g id="edge28_Node000014_Node000010" class="edge">
<title>Node14&#45;&gt;Node10</title>
<g id="a_edge28_Node000014_Node000010"><a xlink:title=" ">
<path fill="none" stroke="#63b8ff" d="M649.95,-490.93C675.54,-473.99 713.8,-443.76 730,-406 737.9,-387.59 729.49,-363.9 723.64,-351.17"/>
<polygon fill="#63b8ff" stroke="#63b8ff" points="648.33,-487.81 641.79,-496.14 652.1,-493.71 648.33,-487.81"/>
</a>
</g>
</g>
</g>
</svg>

<g id="navigator" transform="translate(0 0)" fill="#404254">
  <rect fill="#f2f5e9" fill-opacity="0.5" stroke="#606060" stroke-width=".5" x="0" y="0" width="60" height="60"/>
  <use id="zoomplus" xlink:href="#zoomPlus" x="17" y="9" onmousedown="handleZoom(evt,'in')"/>
  <use id="zoomminus" xlink:href="#zoomMin" x="42" y="9" onmousedown="handleZoom(evt,'out')"/>
  <use id="reset" xlink:href="#resetDef" x="30" y="36" onmousedown="handleReset()"/>
   <use id="arrowup" xlink:href="#arrowUp" x="0" y="0" onmousedown="handlePan(0,-1)"/>
  <use id="arrowright" xlink:href="#arrowRight" x="0" y="0" onmousedown="handlePan(1,0)"/>
  <use id="arrowdown" xlink:href="#arrowDown" x="0" y="0" onmousedown="handlePan(0,1)"/>
  <use id="arrowleft" xlink:href="#arrowLeft" x="0" y="0" onmousedown="handlePan(-1,0)"/>
</g>
<svg viewBox="0 0 15 15" width="100%" height="30px" preserveAspectRatio="xMaxYMin meet">
 <g id="arrow_out" transform="scale(0.3 0.3)">
  <a xlink:href="_call_8hpp__dep__incl_org.svg" target="_base">
   <rect id="button" ry="5" rx="5" y="6" x="6" height="38" width="38"
        fill="#f2f5e9" fill-opacity="0.5" stroke="#606060" stroke-width="1.0"/>
   <path id="arrow"
     d="M 11.500037,31.436501 C 11.940474,20.09759 22.043105,11.32322 32.158766,21.979434 L 37.068811,17.246167 C 37.068811,17.246167 37.088388,32 37.088388,32 L 22.160133,31.978069 C 22.160133,31.978069 26.997745,27.140456 26.997745,27.140456 C 18.528582,18.264221 13.291696,25.230495 11.500037,31.436501 z"
     style="fill:#404040;"/>
  </a>
 </g>
</svg>

<style type='text/css'>
<![CDATA[
[data-mouse-over-selected='false'] { opacity: 0.7; }
[data-mouse-over-selected='true']  { opacity: 1.0; }
]]>
</style>
<script type="application/ecmascript"><![CDATA[
document.addEventListener('DOMContentLoaded', (event) => {
  highlightEdges();
  highlightAdjacentNodes();
});
]]></script>
</svg>
