<?xml version="1.0" encoding="UTF-8" standalone="no"?>
<!DOCTYPE svg PUBLIC "-//W3C//DTD SVG 1.1//EN"
 "http://www.w3.org/Graphics/SVG/1.1/DTD/svg11.dtd">
<!-- Generated by graphviz version 12.1.2 (20240928.0832)
 -->
<!-- Title: mimic++/Call.hpp Pages: 1 -->
<!--zoomable 580 -->

<svg id="main" version="1.1" xmlns="http://www.w3.org/2000/svg" xmlns:xlink="http://www.w3.org/1999/xlink" xml:space="preserve" onload="init(evt)">

<style type="text/css"><![CDATA[
.node, .edge {opacity: 0.7;}
.node.selected, .edge.selected {opacity: 1;}
.edge:hover path { stroke: red; }
.edge:hover polygon { stroke: red; fill: red; }
]]></style>

<defs>
  <circle id="rim" cx="0" cy="0" r="7"/>
  <circle id="rim2" cx="0" cy="0" r="3.5"/>
  <g id="zoomPlus">
    <use xlink:href="#rim" fill="#404040"><set attributeName="fill" to="#808080" begin="zoomplus.mouseover" end="zoomplus.mouseout"/></use>
    <path d="M-4,0h8M0,-4v8" fill="none" stroke="white" stroke-width="1.5" pointer-events="none"/>
  </g>
  <g id="zoomMin">
    <use xlink:href="#rim" fill="#404040"><set attributeName="fill" to="#808080" begin="zoomminus.mouseover" end="zoomminus.mouseout"/></use>
    <path d="M-4,0h8" fill="none" stroke="white" stroke-width="1.5" pointer-events="none"/>
  </g>
  <g id="arrowUp" transform="translate(30 24)">
    <use xlink:href="#rim"/>
    <path pointer-events="none" fill="none" stroke="white" stroke-width="1.5" d="M0,-3.0v7 M-2.5,-0.5L0,-3.0L2.5,-0.5"/>
  </g>
  <g id="arrowRight" transform="rotate(90) translate(36 -43)">
    <use xlink:href="#rim"/>
    <path pointer-events="none" fill="none" stroke="white" stroke-width="1.5" d="M0,-3.0v7 M-2.5,-0.5L0,-3.0L2.5,-0.5"/>
  </g>
  <g id="arrowDown" transform="rotate(180) translate(-30 -48)">
    <use xlink:href="#rim"/>
    <path pointer-events="none" fill="none" stroke="white" stroke-width="1.5" d="M0,-3.0v7 M-2.5,-0.5L0,-3.0L2.5,-0.5"/>
  </g>
  <g id="arrowLeft" transform="rotate(270) translate(-36 17)">
    <use xlink:href="#rim"/>
    <path pointer-events="none" fill="none" stroke="white" stroke-width="1.5" d="M0,-3.0v7 M-2.5,-0.5L0,-3.0L2.5,-0.5"/>
  </g>
  <g id="resetDef">
    <use xlink:href="#rim2" fill="#404040"><set attributeName="fill" to="#808080" begin="reset.mouseover" end="reset.mouseout"/></use>
  </g>
</defs>
<script type="application/ecmascript">
var viewWidth = 880;
var viewHeight = 580;
var sectionId = 'dynsection-1';
</script>
<script type="application/ecmascript" xlink:href="../../svg.min.js"/>
<svg id="graph" class="graph">
<g id="viewport">
<title>mimic++/Call.hpp</title>
<!-- Node1 -->
<g id="Node000001" class="node">
<title>Node1</title>
<g id="a_Node000001"><a xlink:title=" ">
<polygon fill="#999999" stroke="#666666" points="266.88,-571.75 175.12,-571.75 175.12,-552.5 266.88,-552.5 266.88,-571.75"/>
<text text-anchor="middle" x="221" y="-558.25" font-family="Helvetica,sans-Serif" font-size="10.00">mimic++/Call.hpp</text>
</a>
</g>
</g>
<!-- Node2 -->
<g id="Node000002" class="node">
<title>Node2</title>
<g id="a_Node000002"><a xlink:href="../../d5/d8a/_expectation_8hpp.html" target="_top" xlink:title=" ">
<polygon fill="white" stroke="#666666" points="250.75,-295.5 125.25,-295.5 125.25,-276.25 250.75,-276.25 250.75,-295.5"/>
<text text-anchor="middle" x="188" y="-282" font-family="Helvetica,sans-Serif" font-size="10.00">mimic++/Expectation.hpp</text>
</a>
</g>
</g>
<!-- Node1&#45;&gt;Node2 -->
<g id="edge1_Node000001_Node000002" class="edge">
<title>Node1&#45;&gt;Node2</title>
<g id="a_edge1_Node000001_Node000002"><a xlink:title=" ">
<path fill="none" stroke="#63b8ff" d="M163.25,-557.26C97.77,-549.37 0,-525.41 0,-452.62 0,-452.62 0,-452.62 0,-395.38 0,-335.46 72.52,-308.11 127.48,-295.99"/>
<polygon fill="#63b8ff" stroke="#63b8ff" points="162.84,-560.73 173.17,-558.35 163.61,-553.78 162.84,-560.73"/>
</a>
</g>
</g>
<!-- Node6 -->
<g id="Node000006" class="node">
<title>Node6</title>
<g id="a_Node000006"><a xlink:href="../../d0/db9/mimic_09_09_8hpp.html" target="_top" xlink:title=" ">
<polygon fill="white" stroke="#666666" points="541.75,-19.25 428.25,-19.25 428.25,0 541.75,0 541.75,-19.25"/>
<text text-anchor="middle" x="485" y="-5.75" font-family="Helvetica,sans-Serif" font-size="10.00">mimic++/mimic++.hpp</text>
</a>
</g>
</g>
<!-- Node1&#45;&gt;Node6 -->
<g id="edge32_Node000001_Node000006" class="edge">
<title>Node1&#45;&gt;Node6</title>
<g id="a_edge32_Node000001_Node000006"><a xlink:title=" ">
<path fill="none" stroke="#63b8ff" d="M278.73,-557.55C438.02,-546.93 872,-512.5 872,-452.62 872,-452.62 872,-452.62 872,-119.12 872,-51.44 649.75,-24.03 542.1,-14.72"/>
<polygon fill="#63b8ff" stroke="#63b8ff" points="278.56,-554.06 268.81,-558.21 279.02,-561.04 278.56,-554.06"/>
</a>
</g>
</g>
<!-- Node9 -->
<g id="Node000009" class="node">
<title>Node9</title>
<g id="a_Node000009"><a xlink:href="../../da/dd9/_reporter_8hpp.html" target="_top" xlink:title=" ">
<polygon fill="white" stroke="#666666" points="399,-461.25 287,-461.25 287,-442 399,-442 399,-461.25"/>
<text text-anchor="middle" x="343" y="-447.75" font-family="Helvetica,sans-Serif" font-size="10.00">mimic++/Reporter.hpp</text>
</a>
</g>
</g>
<!-- Node1&#45;&gt;Node9 -->
<g id="edge15_Node000001_Node000009" class="edge">
<title>Node1&#45;&gt;Node9</title>
<g id="a_edge15_Node000001_Node000009"><a xlink:title=" ">
<path fill="none" stroke="#63b8ff" d="M239.25,-544.89C265.31,-521.72 312.3,-479.93 332.88,-461.63"/>
<polygon fill="#63b8ff" stroke="#63b8ff" points="237.26,-541.98 232.11,-551.24 241.91,-547.21 237.26,-541.98"/>
</a>
</g>
</g>
<!-- Node15 -->
<g id="Node000015" class="node">
<title>Node15</title>
<g id="a_Node000015"><a xlink:href="../../d0/d3b/_reports_8hpp.html" target="_top" xlink:title=" ">
<polygon fill="white" stroke="#666666" points="206.5,-516.5 97.5,-516.5 97.5,-497.25 206.5,-497.25 206.5,-516.5"/>
<text text-anchor="middle" x="152" y="-503" font-family="Helvetica,sans-Serif" font-size="10.00">mimic++/Reports.hpp</text>
</a>
</g>
</g>
<!-- Node1&#45;&gt;Node15 -->
<g id="edge28_Node000001_Node000015" class="edge">
<title>Node1&#45;&gt;Node15</title>
<g id="a_edge28_Node000001_Node000015"><a xlink:title=" ">
<path fill="none" stroke="#63b8ff" d="M200.35,-545.19C188.3,-535.89 173.55,-524.51 163.53,-516.77"/>
<polygon fill="#63b8ff" stroke="#63b8ff" points="198.04,-547.83 208.1,-551.17 202.32,-542.29 198.04,-547.83"/>
</a>
</g>
</g>
<!-- Node3 -->
<g id="Node000003" class="node">
<title>Node3</title>
<g id="a_Node000003"><a xlink:href="../../d2/d4f/_expectation_builder_8hpp.html" target="_top" xlink:title=" ">
<polygon fill="white" stroke="#666666" points="392.75,-185 237.25,-185 237.25,-165.75 392.75,-165.75 392.75,-185"/>
<text text-anchor="middle" x="315" y="-171.5" font-family="Helvetica,sans-Serif" font-size="10.00">mimic++/ExpectationBuilder.hpp</text>
</a>
</g>
</g>
<!-- Node2&#45;&gt;Node3 -->
<g id="edge2_Node000002_Node000003" class="edge">
<title>Node2&#45;&gt;Node3</title>
<g id="a_edge2_Node000002_Node000003"><a xlink:title=" ">
<path fill="none" stroke="#63b8ff" d="M225.6,-271.68C242.69,-264.34 262.33,-253.9 277,-240.25 294.19,-224.25 306.15,-198.72 311.62,-185.29"/>
<polygon fill="#63b8ff" stroke="#63b8ff" points="224.7,-268.27 216.75,-275.28 227.33,-274.75 224.7,-268.27"/>
</a>
</g>
</g>
<!-- Node4 -->
<g id="Node000004" class="node">
<title>Node4</title>
<g id="a_Node000004"><a xlink:href="../../d5/dc5/_mock_8hpp.html" target="_top" xlink:title=" ">
<polygon fill="white" stroke="#666666" points="254.62,-129.75 155.38,-129.75 155.38,-110.5 254.62,-110.5 254.62,-129.75"/>
<text text-anchor="middle" x="205" y="-116.25" font-family="Helvetica,sans-Serif" font-size="10.00">mimic++/Mock.hpp</text>
</a>
</g>
</g>
<!-- Node2&#45;&gt;Node4 -->
<g id="edge13_Node000002_Node000004" class="edge">
<title>Node2&#45;&gt;Node4</title>
<g id="a_edge13_Node000002_Node000004"><a xlink:title=" ">
<path fill="none" stroke="#63b8ff" d="M142.17,-272.07C115.33,-261.81 88.58,-245.12 99,-221 117.44,-178.29 164.13,-145.38 188.94,-130.25"/>
<polygon fill="#63b8ff" stroke="#63b8ff" points="140.75,-275.28 151.34,-275.31 143.08,-268.68 140.75,-275.28"/>
</a>
</g>
</g>
<!-- Node2&#45;&gt;Node6 -->
<g id="edge14_Node000002_Node000006" class="edge">
<title>Node2&#45;&gt;Node6</title>
<g id="a_edge14_Node000002_Node000006"><a xlink:title=" ">
<path fill="none" stroke="#63b8ff" d="M262.29,-274.5C355.71,-259.33 504,-227.24 504,-176.38 504,-176.38 504,-176.38 504,-119.12 504,-81.64 492.86,-37.95 487.64,-19.53"/>
<polygon fill="#63b8ff" stroke="#63b8ff" points="262.01,-271 252.68,-276.03 263.11,-277.92 262.01,-271"/>
</a>
</g>
</g>
<!-- Node8 -->
<g id="Node000008" class="node">
<title>Node8</title>
<g id="a_Node000008"><a xlink:href="../../d8/de5/_expectation_policies_8hpp.html" target="_top" xlink:title=" ">
<polygon fill="white" stroke="#666666" points="268,-240.25 108,-240.25 108,-221 268,-221 268,-240.25"/>
<text text-anchor="middle" x="188" y="-226.75" font-family="Helvetica,sans-Serif" font-size="10.00">mimic++/ExpectationPolicies.hpp</text>
</a>
</g>
</g>
<!-- Node2&#45;&gt;Node8 -->
<g id="edge9_Node000002_Node000008" class="edge">
<title>Node2&#45;&gt;Node8</title>
<g id="a_edge9_Node000002_Node000008"><a xlink:title=" ">
<path fill="none" stroke="#63b8ff" d="M188,-264.63C188,-256.34 188,-247.17 188,-240.61"/>
<polygon fill="#63b8ff" stroke="#63b8ff" points="184.5,-264.57 188,-274.57 191.5,-264.57 184.5,-264.57"/>
</a>
</g>
</g>
<!-- Node3&#45;&gt;Node4 -->
<g id="edge3_Node000003_Node000004" class="edge">
<title>Node3&#45;&gt;Node4</title>
<g id="a_edge3_Node000003_Node000004"><a xlink:title=" ">
<path fill="none" stroke="#63b8ff" d="M286.08,-160.37C266.37,-150.83 240.85,-138.48 223.75,-130.2"/>
<polygon fill="#63b8ff" stroke="#63b8ff" points="284.45,-163.48 294.98,-164.68 287.5,-157.17 284.45,-163.48"/>
</a>
</g>
</g>
<!-- Node3&#45;&gt;Node6 -->
<g id="edge8_Node000003_Node000006" class="edge">
<title>Node3&#45;&gt;Node6</title>
<g id="a_edge8_Node000003_Node000006"><a xlink:title=" ">
<path fill="none" stroke="#63b8ff" d="M339.94,-159.66C368.33,-142.04 414.92,-110.36 447,-74.5 462.49,-57.19 474.98,-32.64 481.04,-19.59"/>
<polygon fill="#63b8ff" stroke="#63b8ff" points="338.38,-156.52 331.66,-164.71 342.02,-162.49 338.38,-156.52"/>
</a>
</g>
</g>
<!-- Node5 -->
<g id="Node000005" class="node">
<title>Node5</title>
<g id="a_Node000005"><a xlink:href="../../d9/dc3/_interface_mock_8hpp.html" target="_top" xlink:title=" ">
<polygon fill="white" stroke="#666666" points="437.75,-74.5 300.25,-74.5 300.25,-55.25 437.75,-55.25 437.75,-74.5"/>
<text text-anchor="middle" x="369" y="-61" font-family="Helvetica,sans-Serif" font-size="10.00">mimic++/InterfaceMock.hpp</text>
</a>
</g>
</g>
<!-- Node4&#45;&gt;Node5 -->
<g id="edge4_Node000004_Node000005" class="edge">
<title>Node4&#45;&gt;Node5</title>
<g id="a_edge4_Node000004_Node000005"><a xlink:title=" ">
<path fill="none" stroke="#63b8ff" d="M243.7,-106.56C273.59,-96.85 314.25,-83.65 341.04,-74.95"/>
<polygon fill="#63b8ff" stroke="#63b8ff" points="242.69,-103.21 234.26,-109.62 244.85,-109.87 242.69,-103.21"/>
</a>
</g>
</g>
<!-- Node4&#45;&gt;Node6 -->
<g id="edge7_Node000004_Node000006" class="edge">
<title>Node4&#45;&gt;Node6</title>
<g id="a_edge7_Node000004_Node000006"><a xlink:title=" ">
<path fill="none" stroke="#63b8ff" d="M170.72,-105.51C144.76,-93.26 116.2,-74.31 133,-55.25 152.17,-33.5 333.49,-19.61 428.12,-13.78"/>
<polygon fill="#63b8ff" stroke="#63b8ff" points="169.23,-108.68 179.79,-109.56 172.09,-102.29 169.23,-108.68"/>
</a>
</g>
</g>
<!-- Node7 -->
<g id="Node000007" class="node">
<title>Node7</title>
<g id="a_Node000007"><a xlink:href="../../d5/d92/_object_watcher_8hpp.html" target="_top" xlink:title=" ">
<polygon fill="white" stroke="#666666" points="281.88,-74.5 142.12,-74.5 142.12,-55.25 281.88,-55.25 281.88,-74.5"/>
<text text-anchor="middle" x="212" y="-61" font-family="Helvetica,sans-Serif" font-size="10.00">mimic++/ObjectWatcher.hpp</text>
</a>
</g>
</g>
<!-- Node4&#45;&gt;Node7 -->
<g id="edge6_Node000004_Node000007" class="edge">
<title>Node4&#45;&gt;Node7</title>
<g id="a_edge6_Node000004_Node000007"><a xlink:title=" ">
<path fill="none" stroke="#63b8ff" d="M207.62,-99.17C208.72,-90.8 209.95,-81.5 210.82,-74.86"/>
<polygon fill="#63b8ff" stroke="#63b8ff" points="204.19,-98.46 206.35,-108.83 211.13,-99.37 204.19,-98.46"/>
</a>
</g>
</g>
<!-- Node5&#45;&gt;Node6 -->
<g id="edge5_Node000005_Node000006" class="edge">
<title>Node5&#45;&gt;Node6</title>
<g id="a_edge5_Node000005_Node000006"><a xlink:title=" ">
<path fill="none" stroke="#63b8ff" d="M398.92,-50.14C419.78,-40.56 447.03,-28.06 465.23,-19.7"/>
<polygon fill="#63b8ff" stroke="#63b8ff" points="397.68,-46.86 390.05,-54.21 400.6,-53.22 397.68,-46.86"/>
</a>
</g>
</g>
<!-- Node8&#45;&gt;Node3 -->
<g id="edge10_Node000008_Node000003" class="edge">
<title>Node8&#45;&gt;Node3</title>
<g id="a_edge10_Node000008_Node000003"><a xlink:title=" ">
<path fill="none" stroke="#63b8ff" d="M220.13,-216.15C243.05,-206.54 273.25,-193.88 293.35,-185.45"/>
<polygon fill="#63b8ff" stroke="#63b8ff" points="218.81,-212.91 210.94,-220.01 221.52,-219.37 218.81,-212.91"/>
</a>
</g>
</g>
<!-- Node8&#45;&gt;Node4 -->
<g id="edge11_Node000008_Node000004" class="edge">
<title>Node8&#45;&gt;Node4</title>
<g id="a_edge11_Node000008_Node000004"><a xlink:title=" ">
<path fill="none" stroke="#63b8ff" d="M191.14,-209.6C194.85,-185.9 200.87,-147.47 203.59,-130.13"/>
<polygon fill="#63b8ff" stroke="#63b8ff" points="187.72,-208.83 189.63,-219.25 194.63,-209.91 187.72,-208.83"/>
</a>
</g>
</g>
<!-- Node8&#45;&gt;Node6 -->
<g id="edge12_Node000008_Node000006" class="edge">
<title>Node8&#45;&gt;Node6</title>
<g id="a_edge12_Node000008_Node000006"><a xlink:title=" ">
<path fill="none" stroke="#63b8ff" d="M171.59,-212.51C141.1,-178.64 82.42,-102.29 124,-55.25 143.76,-32.89 331.11,-19.22 427.82,-13.6"/>
<polygon fill="#63b8ff" stroke="#63b8ff" points="168.95,-214.8 178.31,-219.76 174.09,-210.05 168.95,-214.8"/>
</a>
</g>
</g>
<!-- Node9&#45;&gt;Node2 -->
<g id="edge16_Node000009_Node000002" class="edge">
<title>Node9&#45;&gt;Node2</title>
<g id="a_edge16_Node000009_Node000002"><a xlink:title=" ">
<path fill="none" stroke="#63b8ff" d="M275.43,-440.41C236.43,-432.98 192.81,-421.5 181,-406 155.51,-372.55 174.85,-317.24 183.95,-295.78"/>
<polygon fill="#63b8ff" stroke="#63b8ff" points="274.59,-443.82 285.06,-442.17 275.85,-436.93 274.59,-443.82"/>
</a>
</g>
</g>
<!-- Node9&#45;&gt;Node6 -->
<g id="edge27_Node000009_Node000006" class="edge">
<title>Node9&#45;&gt;Node6</title>
<g id="a_edge27_Node000009_Node000006"><a xlink:title=" ">
<path fill="none" stroke="#63b8ff" d="M410.61,-448.58C486.74,-444.89 604.13,-434.61 637,-406 659.34,-386.56 656,-371.74 656,-342.12 656,-342.12 656,-342.12 656,-119.12 656,-60.58 583.67,-32.3 533.09,-19.67"/>
<polygon fill="#63b8ff" stroke="#63b8ff" points="410.57,-445.08 400.74,-449.03 410.89,-452.07 410.57,-445.08"/>
</a>
</g>
</g>
<!-- Node10 -->
<g id="Node000010" class="node">
<title>Node10</title>
<g id="a_Node000010"><a xlink:href="../../d8/de4/_sequence_8hpp.html" target="_top" xlink:title=" ">
<polygon fill="white" stroke="#666666" points="628.38,-406 509.62,-406 509.62,-386.75 628.38,-386.75 628.38,-406"/>
<text text-anchor="middle" x="569" y="-392.5" font-family="Helvetica,sans-Serif" font-size="10.00">mimic++/Sequence.hpp</text>
</a>
</g>
</g>
<!-- Node9&#45;&gt;Node10 -->
<g id="edge17_Node000009_Node000010" class="edge">
<title>Node9&#45;&gt;Node10</title>
<g id="a_edge17_Node000009_Node000010"><a xlink:title=" ">
<path fill="none" stroke="#63b8ff" d="M392.56,-438.95C434.08,-429.16 492.51,-415.4 530.57,-406.43"/>
<polygon fill="#63b8ff" stroke="#63b8ff" points="392,-435.48 383.07,-441.18 393.6,-442.3 392,-435.48"/>
</a>
</g>
</g>
<!-- Node12 -->
<g id="Node000012" class="node">
<title>Node12</title>
<g id="a_Node000012"><a xlink:href="../../d9/d42/_boost_test_8hpp.html" target="_top" xlink:title=" ">
<polygon fill="white" stroke="#666666" points="844.38,-406 683.62,-406 683.62,-386.75 844.38,-386.75 844.38,-406"/>
<text text-anchor="middle" x="764" y="-392.5" font-family="Helvetica,sans-Serif" font-size="10.00">mimic++/adapters/BoostTest.hpp</text>
</a>
</g>
</g>
<!-- Node9&#45;&gt;Node12 -->
<g id="edge24_Node000009_Node000012" class="edge">
<title>Node9&#45;&gt;Node12</title>
<g id="a_edge24_Node000009_Node000012"><a xlink:title=" ">
<path fill="none" stroke="#63b8ff" d="M410.35,-442.11C487.45,-432.35 613.22,-416.45 692.15,-406.46"/>
<polygon fill="#63b8ff" stroke="#63b8ff" points="410.32,-438.58 400.84,-443.31 411.2,-445.53 410.32,-438.58"/>
</a>
</g>
</g>
<!-- Node13 -->
<g id="Node000013" class="node">
<title>Node13</title>
<g id="a_Node000013"><a xlink:href="../../d3/d04/_catch2_8hpp.html" target="_top" xlink:title=" ">
<polygon fill="white" stroke="#666666" points="336.25,-406 189.75,-406 189.75,-386.75 336.25,-386.75 336.25,-406"/>
<text text-anchor="middle" x="263" y="-392.5" font-family="Helvetica,sans-Serif" font-size="10.00">mimic++/adapters/Catch2.hpp</text>
</a>
</g>
</g>
<!-- Node9&#45;&gt;Node13 -->
<g id="edge25_Node000009_Node000013" class="edge">
<title>Node9&#45;&gt;Node13</title>
<g id="a_edge25_Node000009_Node000013"><a xlink:title=" ">
<path fill="none" stroke="#63b8ff" d="M319.95,-435.28C305.93,-425.95 288.5,-414.35 276.64,-406.45"/>
<polygon fill="#63b8ff" stroke="#63b8ff" points="317.91,-438.13 328.17,-440.75 321.78,-432.3 317.91,-438.13"/>
</a>
</g>
</g>
<!-- Node14 -->
<g id="Node000014" class="node">
<title>Node14</title>
<g id="a_Node000014"><a xlink:href="../../d5/db1/gtest_8hpp.html" target="_top" xlink:title=" ">
<polygon fill="white" stroke="#666666" points="491.75,-406 354.25,-406 354.25,-386.75 491.75,-386.75 491.75,-406"/>
<text text-anchor="middle" x="423" y="-392.5" font-family="Helvetica,sans-Serif" font-size="10.00">mimic++/adapters/gtest.hpp</text>
</a>
</g>
</g>
<!-- Node9&#45;&gt;Node14 -->
<g id="edge26_Node000009_Node000014" class="edge">
<title>Node9&#45;&gt;Node14</title>
<g id="a_edge26_Node000009_Node000014"><a xlink:title=" ">
<path fill="none" stroke="#63b8ff" d="M366.05,-435.28C380.07,-425.95 397.5,-414.35 409.36,-406.45"/>
<polygon fill="#63b8ff" stroke="#63b8ff" points="364.22,-432.3 357.83,-440.75 368.09,-438.13 364.22,-432.3"/>
</a>
</g>
</g>
<!-- Node10&#45;&gt;Node3 -->
<g id="edge22_Node000010_Node000003" class="edge">
<title>Node10&#45;&gt;Node3</title>
<g id="a_edge22_Node000010_Node000003"><a xlink:title=" ">
<path fill="none" stroke="#63b8ff" d="M550.13,-379.1C499.89,-335.79 364.07,-218.68 325.4,-185.34"/>
<polygon fill="#63b8ff" stroke="#63b8ff" points="547.72,-381.65 557.58,-385.53 552.29,-376.35 547.72,-381.65"/>
</a>
</g>
</g>
<!-- Node10&#45;&gt;Node6 -->
<g id="edge23_Node000010_Node000006" class="edge">
<title>Node10&#45;&gt;Node6</title>
<g id="a_edge23_Node000010_Node000006"><a xlink:title=" ">
<path fill="none" stroke="#63b8ff" d="M582.92,-377.28C597.41,-356.6 618,-321.18 618,-286.88 618,-286.88 618,-286.88 618,-119.12 618,-65.78 552.98,-33.99 513.86,-19.69"/>
<polygon fill="#63b8ff" stroke="#63b8ff" points="580.21,-375.06 577.12,-385.2 585.85,-379.2 580.21,-375.06"/>
</a>
</g>
</g>
<!-- Node11 -->
<g id="Node000011" class="node">
<title>Node11</title>
<g id="a_Node000011"><a xlink:href="../../d6/d17/_control_policy_8hpp.html" target="_top" xlink:title=" ">
<polygon fill="white" stroke="#666666" points="400.12,-350.75 267.88,-350.75 267.88,-331.5 400.12,-331.5 400.12,-350.75"/>
<text text-anchor="middle" x="334" y="-337.25" font-family="Helvetica,sans-Serif" font-size="10.00">mimic++/ControlPolicy.hpp</text>
</a>
</g>
</g>
<!-- Node10&#45;&gt;Node11 -->
<g id="edge18_Node000010_Node000011" class="edge">
<title>Node10&#45;&gt;Node11</title>
<g id="a_edge18_Node000010_Node000011"><a xlink:title=" ">
<path fill="none" stroke="#63b8ff" d="M517.74,-383.76C474.55,-373.97 413.62,-360.17 373.97,-351.18"/>
<polygon fill="#63b8ff" stroke="#63b8ff" points="516.87,-387.15 527.39,-385.95 518.41,-380.32 516.87,-387.15"/>
</a>
</g>
</g>
<!-- Node11&#45;&gt;Node2 -->
<g id="edge19_Node000011_Node000002" class="edge">
<title>Node11&#45;&gt;Node2</title>
<g id="a_edge19_Node000011_Node000002"><a xlink:title=" ">
<path fill="none" stroke="#63b8ff" d="M298.49,-327.17C271.98,-317.5 236.42,-304.54 212.89,-295.95"/>
<polygon fill="#63b8ff" stroke="#63b8ff" points="297.22,-330.43 307.81,-330.57 299.62,-323.86 297.22,-330.43"/>
</a>
</g>
</g>
<!-- Node11&#45;&gt;Node3 -->
<g id="edge20_Node000011_Node000003" class="edge">
<title>Node11&#45;&gt;Node3</title>
<g id="a_edge20_Node000011_Node000003"><a xlink:title=" ">
<path fill="none" stroke="#63b8ff" d="M331.66,-319.97C327.5,-284.11 318.97,-210.6 316.03,-185.22"/>
<polygon fill="#63b8ff" stroke="#63b8ff" points="328.17,-320.29 332.8,-329.82 335.13,-319.48 328.17,-320.29"/>
</a>
</g>
</g>
<!-- Node11&#45;&gt;Node6 -->
<g id="edge21_Node000011_Node000006" class="edge">
<title>Node11&#45;&gt;Node6</title>
<g id="a_edge21_Node000011_Node000006"><a xlink:title=" ">
<path fill="none" stroke="#63b8ff" d="M411.64,-331.11C470.74,-319.41 542,-292.65 542,-231.62 542,-231.62 542,-231.62 542,-119.12 542,-78.06 509.6,-37.24 493.66,-19.64"/>
<polygon fill="#63b8ff" stroke="#63b8ff" points="411.07,-327.66 401.87,-332.91 412.34,-334.54 411.07,-327.66"/>
</a>
</g>
</g>
<!-- Node15&#45;&gt;Node6 -->
<g id="edge31_Node000015_Node000006" class="edge">
<title>Node15&#45;&gt;Node6</title>
<g id="a_edge31_Node000015_Node000006"><a xlink:title=" ">
<path fill="none" stroke="#63b8ff" d="M119.38,-491.76C85.69,-474.72 38,-442.62 38,-397.38 38,-397.38 38,-397.38 38,-119.12 38,-76.68 70.34,-72.77 109,-55.25 164.54,-30.09 337.01,-17.96 427.79,-13.19"/>
<polygon fill="#63b8ff" stroke="#63b8ff" points="117.86,-494.91 128.39,-496.1 120.9,-488.61 117.86,-494.91"/>
</a>
</g>
</g>
<!-- Node15&#45;&gt;Node9 -->
<g id="edge30_Node000015_Node000009" class="edge">
<title>Node15&#45;&gt;Node9</title>
<g id="a_edge30_Node000015_Node000009"><a xlink:title=" ">
<path fill="none" stroke="#63b8ff" d="M195.24,-493.82C230.21,-484.07 278.69,-470.55 310.44,-461.7"/>
<polygon fill="#63b8ff" stroke="#63b8ff" points="194.55,-490.38 185.86,-496.44 196.43,-497.12 194.55,-490.38"/>
</a>
</g>
</g>
<!-- Node15&#45;&gt;Node11 -->
<g id="edge29_Node000015_Node000011" class="edge">
<title>Node15&#45;&gt;Node11</title>
<g id="a_edge29_Node000015_Node000011"><a xlink:title=" ">
<path fill="none" stroke="#63b8ff" d="M151.14,-485.51C151.18,-459.2 155.33,-413.6 181,-386.75 203.37,-363.35 237.25,-352.02 267.45,-346.61"/>
<polygon fill="#63b8ff" stroke="#63b8ff" points="147.64,-485.58 151.36,-495.5 154.64,-485.43 147.64,-485.58"/>
</a>
</g>
</g>
</g>
</svg>

<g id="navigator" transform="translate(0 0)" fill="#404254">
  <rect fill="#f2f5e9" fill-opacity="0.5" stroke="#606060" stroke-width=".5" x="0" y="0" width="60" height="60"/>
  <use id="zoomplus" xlink:href="#zoomPlus" x="17" y="9" onmousedown="handleZoom(evt,'in')"/>
  <use id="zoomminus" xlink:href="#zoomMin" x="42" y="9" onmousedown="handleZoom(evt,'out')"/>
  <use id="reset" xlink:href="#resetDef" x="30" y="36" onmousedown="handleReset()"/>
   <use id="arrowup" xlink:href="#arrowUp" x="0" y="0" onmousedown="handlePan(0,-1)"/>
  <use id="arrowright" xlink:href="#arrowRight" x="0" y="0" onmousedown="handlePan(1,0)"/>
  <use id="arrowdown" xlink:href="#arrowDown" x="0" y="0" onmousedown="handlePan(0,1)"/>
  <use id="arrowleft" xlink:href="#arrowLeft" x="0" y="0" onmousedown="handlePan(-1,0)"/>
</g>
<svg viewBox="0 0 15 15" width="100%" height="30px" preserveAspectRatio="xMaxYMin meet">
 <g id="arrow_out" transform="scale(0.3 0.3)">
  <a xlink:href="_call_8hpp__dep__incl_org.svg" target="_base">
   <rect id="button" ry="5" rx="5" y="6" x="6" height="38" width="38"
        fill="#f2f5e9" fill-opacity="0.5" stroke="#606060" stroke-width="1.0"/>
   <path id="arrow"
     d="M 11.500037,31.436501 C 11.940474,20.09759 22.043105,11.32322 32.158766,21.979434 L 37.068811,17.246167 C 37.068811,17.246167 37.088388,32 37.088388,32 L 22.160133,31.978069 C 22.160133,31.978069 26.997745,27.140456 26.997745,27.140456 C 18.528582,18.264221 13.291696,25.230495 11.500037,31.436501 z"
     style="fill:#404040;"/>
  </a>
 </g>
</svg>

<style type='text/css'>
<![CDATA[
[data-mouse-over-selected='false'] { opacity: 0.7; }
[data-mouse-over-selected='true']  { opacity: 1.0; }
]]>
</style>
<script type="application/ecmascript"><![CDATA[
document.addEventListener('DOMContentLoaded', (event) => {
  highlightEdges();
  highlightAdjacentNodes();
});
]]></script>
</svg>
