<?xml version="1.0" encoding="UTF-8" standalone="no"?>
<!DOCTYPE svg PUBLIC "-//W3C//DTD SVG 1.1//EN"
 "http://www.w3.org/Graphics/SVG/1.1/DTD/svg11.dtd">
<!-- Generated by graphviz version 12.2.1 (20241206.2353)
 -->
<!-- Title: mimic++/reporting/TypeReport.hpp Pages: 1 -->
<svg width="1041pt" height="858pt"
 viewBox="0.00 0.00 1041.25 858.00" xmlns="http://www.w3.org/2000/svg" xmlns:xlink="http://www.w3.org/1999/xlink">
<g id="graph0" class="graph" transform="scale(1 1) rotate(0) translate(4 854)">
<title>mimic++/reporting/TypeReport.hpp</title>
<!-- Node1 -->
<g id="Node000001" class="node">
<title>Node1</title>
<g id="a_Node000001"><a xlink:title=" ">
<polygon fill="#999999" stroke="#666666" points="904.88,-850 739.62,-850 739.62,-830.75 904.88,-830.75 904.88,-850"/>
<text text-anchor="middle" x="822.25" y="-836.5" font-family="Helvetica,sans-Serif" font-size="10.00">mimic++/reporting/TypeReport.hpp</text>
</a>
</g>
</g>
<!-- Node2 -->
<g id="Node000002" class="node">
<title>Node2</title>
<g id="a_Node000002"><a xlink:href="../../d7/deb/_reporting_8hpp.html" target="_top" xlink:title=" ">
<polygon fill="white" stroke="#666666" points="841.5,-390.12 725,-390.12 725,-370.88 841.5,-370.88 841.5,-390.12"/>
<text text-anchor="middle" x="783.25" y="-376.62" font-family="Helvetica,sans-Serif" font-size="10.00">mimic++/Reporting.hpp</text>
</a>
</g>
</g>
<!-- Node1&#45;&gt;Node2 -->
<g id="edge1_Node000001_Node000002" class="edge">
<title>Node1&#45;&gt;Node2</title>
<g id="a_edge1_Node000001_Node000002"><a xlink:title=" ">
<path fill="none" stroke="#63b8ff" d="M891.88,-827.79C953.34,-813.12 1033.25,-781.13 1033.25,-714 1033.25,-714 1033.25,-714 1033.25,-512.5 1033.25,-426.5 915.76,-396.85 841.86,-386.7"/>
<polygon fill="#63b8ff" stroke="#63b8ff" points="891.48,-824.29 882.5,-829.92 893.03,-831.12 891.48,-824.29"/>
</a>
</g>
</g>
<!-- Node4 -->
<g id="Node000004" class="node">
<title>Node4</title>
<g id="a_Node000004"><a xlink:href="../../d9/d6c/_call_report_8hpp.html" target="_top" xlink:title=" ">
<polygon fill="white" stroke="#666666" points="1002.62,-656.12 841.88,-656.12 841.88,-636.88 1002.62,-636.88 1002.62,-656.12"/>
<text text-anchor="middle" x="922.25" y="-642.62" font-family="Helvetica,sans-Serif" font-size="10.00">mimic++/reporting/CallReport.hpp</text>
</a>
</g>
</g>
<!-- Node1&#45;&gt;Node4 -->
<g id="edge3_Node000001_Node000004" class="edge">
<title>Node1&#45;&gt;Node4</title>
<g id="a_edge3_Node000001_Node000004"><a xlink:title=" ">
<path fill="none" stroke="#63b8ff" d="M832.12,-820.43C853.32,-779.76 902.48,-685.43 917.69,-656.26"/>
<polygon fill="#63b8ff" stroke="#63b8ff" points="829.16,-818.55 827.64,-829.04 835.36,-821.79 829.16,-818.55"/>
</a>
</g>
</g>
<!-- Node17 -->
<g id="Node000017" class="node">
<title>Node17</title>
<g id="a_Node000017"><a xlink:href="../../d9/d70/_stringify_reports_8hpp.html" target="_top" xlink:title=" ">
<polygon fill="white" stroke="#666666" points="814.75,-595.25 681.75,-595.25 681.75,-564.75 814.75,-564.75 814.75,-595.25"/>
<text text-anchor="start" x="689.75" y="-581.75" font-family="Helvetica,sans-Serif" font-size="10.00">mimic++/reporting/Stringify</text>
<text text-anchor="middle" x="748.25" y="-570.5" font-family="Helvetica,sans-Serif" font-size="10.00">Reports.hpp</text>
</a>
</g>
</g>
<!-- Node1&#45;&gt;Node17 -->
<g id="edge39_Node000001_Node000017" class="edge">
<title>Node1&#45;&gt;Node17</title>
<g id="a_edge39_Node000001_Node000017"><a xlink:title=" ">
<path fill="none" stroke="#63b8ff" d="M816.59,-819.62C802.29,-769.69 764.94,-639.28 752.41,-595.54"/>
<polygon fill="#63b8ff" stroke="#63b8ff" points="813.17,-820.38 819.29,-829.03 819.9,-818.45 813.17,-820.38"/>
</a>
</g>
</g>
<!-- Node18 -->
<g id="Node000018" class="node">
<title>Node18</title>
<g id="a_Node000018"><a xlink:href="../../d8/d4c/_target_report_8hpp.html" target="_top" xlink:title=" ">
<polygon fill="white" stroke="#666666" points="620,-794.75 494.5,-794.75 494.5,-764.25 620,-764.25 620,-794.75"/>
<text text-anchor="start" x="502.5" y="-781.25" font-family="Helvetica,sans-Serif" font-size="10.00">mimic++/reporting/Target</text>
<text text-anchor="middle" x="557.25" y="-770" font-family="Helvetica,sans-Serif" font-size="10.00">Report.hpp</text>
</a>
</g>
</g>
<!-- Node1&#45;&gt;Node18 -->
<g id="edge40_Node000001_Node000018" class="edge">
<title>Node1&#45;&gt;Node18</title>
<g id="a_edge40_Node000001_Node000018"><a xlink:title=" ">
<path fill="none" stroke="#63b8ff" d="M770.36,-827.85C727.38,-818.3 666.15,-804.69 620.33,-794.52"/>
<polygon fill="#63b8ff" stroke="#63b8ff" points="769.43,-831.22 779.95,-829.98 770.94,-824.39 769.43,-831.22"/>
</a>
</g>
</g>
<!-- Node3 -->
<g id="Node000003" class="node">
<title>Node3</title>
<g id="a_Node000003"><a xlink:href="../../d0/db9/mimic_09_09_8hpp.html" target="_top" xlink:title=" ">
<polygon fill="white" stroke="#666666" points="575,-19.25 461.5,-19.25 461.5,0 575,0 575,-19.25"/>
<text text-anchor="middle" x="518.25" y="-5.75" font-family="Helvetica,sans-Serif" font-size="10.00">mimic++/mimic++.hpp</text>
</a>
</g>
</g>
<!-- Node2&#45;&gt;Node3 -->
<g id="edge2_Node000002_Node000003" class="edge">
<title>Node2&#45;&gt;Node3</title>
<g id="a_edge2_Node000002_Node000003"><a xlink:title=" ">
<path fill="none" stroke="#63b8ff" d="M791.81,-360.19C802.17,-335.01 818.25,-289.35 818.25,-248.5 818.25,-248.5 818.25,-248.5 818.25,-119.12 818.25,-74.32 780.75,-74.43 740.25,-55.25 687.67,-30.35 621.68,-19.32 575.37,-14.45"/>
<polygon fill="#63b8ff" stroke="#63b8ff" points="788.7,-358.55 788,-369.12 795.14,-361.3 788.7,-358.55"/>
</a>
</g>
</g>
<!-- Node4&#45;&gt;Node2 -->
<g id="edge4_Node000004_Node000002" class="edge">
<title>Node4&#45;&gt;Node2</title>
<g id="a_edge4_Node000004_Node000002"><a xlink:title=" ">
<path fill="none" stroke="#63b8ff" d="M928.46,-625.7C939.89,-585.07 959.44,-491.13 917.25,-431.75 899.98,-407.44 869.46,-394.88 841.9,-388.4"/>
<polygon fill="#63b8ff" stroke="#63b8ff" points="925.11,-624.67 925.62,-635.25 931.82,-626.66 925.11,-624.67"/>
</a>
</g>
</g>
<!-- Node5 -->
<g id="Node000005" class="node">
<title>Node5</title>
<g id="a_Node000005"><a xlink:href="../../d1/dfd/_basic_reporter_8hpp.html" target="_top" xlink:title=" ">
<polygon fill="white" stroke="#666666" points="836.88,-523.12 659.62,-523.12 659.62,-503.88 836.88,-503.88 836.88,-523.12"/>
<text text-anchor="middle" x="748.25" y="-509.62" font-family="Helvetica,sans-Serif" font-size="10.00">mimic++/reporting/BasicReporter.hpp</text>
</a>
</g>
</g>
<!-- Node4&#45;&gt;Node5 -->
<g id="edge5_Node000004_Node000005" class="edge">
<title>Node4&#45;&gt;Node5</title>
<g id="a_edge5_Node000004_Node000005"><a xlink:title=" ">
<path fill="none" stroke="#63b8ff" d="M911.03,-627.06C899.4,-609.21 879.8,-582.34 857.25,-564.75 832.77,-545.65 799.86,-531.76 776.63,-523.49"/>
<polygon fill="#63b8ff" stroke="#63b8ff" points="907.95,-628.74 916.24,-635.33 913.87,-625.01 907.95,-628.74"/>
</a>
</g>
</g>
<!-- Node6 -->
<g id="Node000006" class="node">
<title>Node6</title>
<g id="a_Node000006"><a xlink:href="../../d0/d70/_default_reporter_8hpp.html" target="_top" xlink:title=" ">
<polygon fill="white" stroke="#666666" points="641.5,-528.75 513,-528.75 513,-498.25 641.5,-498.25 641.5,-528.75"/>
<text text-anchor="start" x="521" y="-515.25" font-family="Helvetica,sans-Serif" font-size="10.00">mimic++/reporting/Default</text>
<text text-anchor="middle" x="577.25" y="-504" font-family="Helvetica,sans-Serif" font-size="10.00">Reporter.hpp</text>
</a>
</g>
</g>
<!-- Node4&#45;&gt;Node6 -->
<g id="edge7_Node000004_Node000006" class="edge">
<title>Node4&#45;&gt;Node6</title>
<g id="a_edge7_Node000004_Node000006"><a xlink:title=" ">
<path fill="none" stroke="#63b8ff" d="M901,-629.82C888.12,-620.13 871.48,-607.29 857.25,-595.25 842,-582.35 842.03,-573.85 824.25,-564.75 820.13,-562.64 713.49,-541.36 641.7,-527.17"/>
<polygon fill="#63b8ff" stroke="#63b8ff" points="898.7,-632.47 908.81,-635.64 902.89,-626.86 898.7,-632.47"/>
</a>
</g>
</g>
<!-- Node7 -->
<g id="Node000007" class="node">
<title>Node7</title>
<g id="a_Node000007"><a xlink:href="../../de/dd1/_global_reporter_8hpp.html" target="_top" xlink:title=" ">
<polygon fill="white" stroke="#666666" points="566,-462.25 440.5,-462.25 440.5,-431.75 566,-431.75 566,-462.25"/>
<text text-anchor="start" x="448.5" y="-448.75" font-family="Helvetica,sans-Serif" font-size="10.00">mimic++/reporting/Global</text>
<text text-anchor="middle" x="503.25" y="-437.5" font-family="Helvetica,sans-Serif" font-size="10.00">Reporter.hpp</text>
</a>
</g>
</g>
<!-- Node4&#45;&gt;Node7 -->
<g id="edge34_Node000004_Node000007" class="edge">
<title>Node4&#45;&gt;Node7</title>
<g id="a_edge34_Node000004_Node000007"><a xlink:title=" ">
<path fill="none" stroke="#63b8ff" d="M918.43,-625.72C910.96,-592.96 891.05,-528.08 846.25,-498.25 801.54,-468.48 652.42,-455.8 566.23,-450.84"/>
<polygon fill="#63b8ff" stroke="#63b8ff" points="914.92,-626.02 920.4,-635.09 921.77,-624.58 914.92,-626.02"/>
</a>
</g>
</g>
<!-- Node4&#45;&gt;Node17 -->
<g id="edge35_Node000004_Node000017" class="edge">
<title>Node4&#45;&gt;Node17</title>
<g id="a_edge35_Node000004_Node000017"><a xlink:title=" ">
<path fill="none" stroke="#63b8ff" d="M886.91,-632.4C858.16,-621.74 817.6,-606.71 787.77,-595.65"/>
<polygon fill="#63b8ff" stroke="#63b8ff" points="885.68,-635.68 896.27,-635.87 888.11,-629.11 885.68,-635.68"/>
</a>
</g>
</g>
<!-- Node5&#45;&gt;Node2 -->
<g id="edge6_Node000005_Node000002" class="edge">
<title>Node5&#45;&gt;Node2</title>
<g id="a_edge6_Node000005_Node000002"><a xlink:title=" ">
<path fill="none" stroke="#63b8ff" d="M753.52,-492.76C761.22,-463.96 775.22,-411.57 780.83,-390.57"/>
<polygon fill="#63b8ff" stroke="#63b8ff" points="750.25,-491.47 751.05,-502.03 757.01,-493.28 750.25,-491.47"/>
</a>
</g>
</g>
<!-- Node6&#45;&gt;Node2 -->
<g id="edge8_Node000006_Node000002" class="edge">
<title>Node6&#45;&gt;Node2</title>
<g id="a_edge8_Node000006_Node000002"><a xlink:title=" ">
<path fill="none" stroke="#63b8ff" d="M609.78,-491.82C655.34,-462.84 736.23,-411.4 768.94,-390.6"/>
<polygon fill="#63b8ff" stroke="#63b8ff" points="607.92,-488.85 601.36,-497.17 611.68,-494.76 607.92,-488.85"/>
</a>
</g>
</g>
<!-- Node6&#45;&gt;Node7 -->
<g id="edge9_Node000006_Node000007" class="edge">
<title>Node6&#45;&gt;Node7</title>
<g id="a_edge9_Node000006_Node000007"><a xlink:title=" ">
<path fill="none" stroke="#63b8ff" d="M552,-490.49C541.43,-481.28 529.42,-470.81 519.98,-462.58"/>
<polygon fill="#63b8ff" stroke="#63b8ff" points="549.48,-492.94 559.32,-496.87 554.08,-487.66 549.48,-492.94"/>
</a>
</g>
</g>
<!-- Node7&#45;&gt;Node2 -->
<g id="edge10_Node000007_Node000002" class="edge">
<title>Node7&#45;&gt;Node2</title>
<g id="a_edge10_Node000007_Node000002"><a xlink:title=" ">
<path fill="none" stroke="#63b8ff" d="M577.58,-428.88C631.05,-416.56 701.04,-400.44 744.04,-390.53"/>
<polygon fill="#63b8ff" stroke="#63b8ff" points="576.87,-425.45 567.91,-431.1 578.44,-432.27 576.87,-425.45"/>
</a>
</g>
</g>
<!-- Node8 -->
<g id="Node000008" class="node">
<title>Node8</title>
<g id="a_Node000008"><a xlink:href="../../d8/de4/_sequence_8hpp.html" target="_top" xlink:title=" ">
<polygon fill="white" stroke="#666666" points="649.62,-390.12 530.88,-390.12 530.88,-370.88 649.62,-370.88 649.62,-390.12"/>
<text text-anchor="middle" x="590.25" y="-376.62" font-family="Helvetica,sans-Serif" font-size="10.00">mimic++/Sequence.hpp</text>
</a>
</g>
</g>
<!-- Node7&#45;&gt;Node8 -->
<g id="edge11_Node000007_Node000008" class="edge">
<title>Node7&#45;&gt;Node8</title>
<g id="a_edge11_Node000007_Node000008"><a xlink:title=" ">
<path fill="none" stroke="#63b8ff" d="M531.87,-424.78C547.67,-413.07 566.44,-399.15 578.35,-390.32"/>
<polygon fill="#63b8ff" stroke="#63b8ff" points="530.16,-421.7 524.21,-430.46 534.33,-427.32 530.16,-421.7"/>
</a>
</g>
</g>
<!-- Node10 -->
<g id="Node000010" class="node">
<title>Node10</title>
<g id="a_Node000010"><a xlink:href="../../db/d5d/_registry_8hpp.html" target="_top" xlink:title=" ">
<polygon fill="white" stroke="#666666" points="558.62,-329.25 451.88,-329.25 451.88,-298.75 558.62,-298.75 558.62,-329.25"/>
<text text-anchor="start" x="459.88" y="-315.75" font-family="Helvetica,sans-Serif" font-size="10.00">mimic++/expectation</text>
<text text-anchor="middle" x="505.25" y="-304.5" font-family="Helvetica,sans-Serif" font-size="10.00">/Registry.hpp</text>
</a>
</g>
</g>
<!-- Node7&#45;&gt;Node10 -->
<g id="edge33_Node000007_Node000010" class="edge">
<title>Node7&#45;&gt;Node10</title>
<g id="a_edge33_Node000007_Node000010"><a xlink:title=" ">
<path fill="none" stroke="#63b8ff" d="M503.64,-420.18C504.06,-393.09 504.69,-351.46 505.03,-329.58"/>
<polygon fill="#63b8ff" stroke="#63b8ff" points="500.15,-419.91 503.49,-429.97 507.15,-420.02 500.15,-419.91"/>
</a>
</g>
</g>
<!-- Node8&#45;&gt;Node3 -->
<g id="edge29_Node000008_Node000003" class="edge">
<title>Node8&#45;&gt;Node3</title>
<g id="a_edge29_Node000008_Node000003"><a xlink:title=" ">
<path fill="none" stroke="#63b8ff" d="M590.8,-359.22C591.22,-330.68 590.77,-277.12 583.25,-232.25 575.4,-185.44 565.78,-175.53 553.25,-129.75 544.23,-96.79 544.25,-87.93 534.25,-55.25 530.4,-42.66 525.11,-28.37 521.69,-19.43"/>
<polygon fill="#63b8ff" stroke="#63b8ff" points="587.3,-358.87 590.59,-368.94 594.3,-359.02 587.3,-358.87"/>
</a>
</g>
</g>
<!-- Node9 -->
<g id="Node000009" class="node">
<title>Node9</title>
<g id="a_Node000009"><a xlink:href="../../db/d83/_scoped_sequence_8hpp.html" target="_top" xlink:title=" ">
<polygon fill="white" stroke="#666666" points="714.12,-129.75 562.38,-129.75 562.38,-110.5 714.12,-110.5 714.12,-129.75"/>
<text text-anchor="middle" x="638.25" y="-116.25" font-family="Helvetica,sans-Serif" font-size="10.00">mimic++/ScopedSequence.hpp</text>
</a>
</g>
</g>
<!-- Node8&#45;&gt;Node9 -->
<g id="edge12_Node000008_Node000009" class="edge">
<title>Node8&#45;&gt;Node9</title>
<g id="a_edge12_Node000008_Node000009"><a xlink:title=" ">
<path fill="none" stroke="#63b8ff" d="M631.09,-366.11C648.22,-358.24 666.41,-346.39 676.25,-329.25 712.42,-266.22 701.35,-233.94 676.25,-165.75 670.91,-151.23 658.51,-138.22 649.32,-130.05"/>
<polygon fill="#63b8ff" stroke="#63b8ff" points="629.9,-362.81 622.05,-369.92 632.62,-369.26 629.9,-362.81"/>
</a>
</g>
</g>
<!-- Node8&#45;&gt;Node10 -->
<g id="edge14_Node000008_Node000010" class="edge">
<title>Node8&#45;&gt;Node10</title>
<g id="a_edge14_Node000008_Node000010"><a xlink:title=" ">
<path fill="none" stroke="#63b8ff" d="M569.29,-363.6C555.59,-353.2 537.82,-339.72 524.48,-329.59"/>
<polygon fill="#63b8ff" stroke="#63b8ff" points="567.14,-366.36 577.23,-369.62 571.37,-360.78 567.14,-366.36"/>
</a>
</g>
</g>
<!-- Node16 -->
<g id="Node000016" class="node">
<title>Node16</title>
<g id="a_Node000016"><a xlink:href="../../db/d70/_control_policies_8hpp.html" target="_top" xlink:title=" ">
<polygon fill="white" stroke="#666666" points="396.25,-262.75 272.25,-262.75 272.25,-232.25 396.25,-232.25 396.25,-262.75"/>
<text text-anchor="start" x="280.25" y="-249.25" font-family="Helvetica,sans-Serif" font-size="10.00">mimic++/policies/Control</text>
<text text-anchor="middle" x="334.25" y="-238" font-family="Helvetica,sans-Serif" font-size="10.00">Policies.hpp</text>
</a>
</g>
</g>
<!-- Node8&#45;&gt;Node16 -->
<g id="edge30_Node000008_Node000016" class="edge">
<title>Node8&#45;&gt;Node16</title>
<g id="a_edge30_Node000008_Node000016"><a xlink:title=" ">
<path fill="none" stroke="#63b8ff" d="M542.76,-367.31C513.19,-358.75 474.91,-345.87 443.25,-329.25 407.59,-310.53 370.94,-280.79 350.53,-263.1"/>
<polygon fill="#63b8ff" stroke="#63b8ff" points="541.6,-370.62 552.17,-369.97 543.5,-363.88 541.6,-370.62"/>
</a>
</g>
</g>
<!-- Node9&#45;&gt;Node3 -->
<g id="edge13_Node000009_Node000003" class="edge">
<title>Node9&#45;&gt;Node3</title>
<g id="a_edge13_Node000009_Node000003"><a xlink:title=" ">
<path fill="none" stroke="#63b8ff" d="M632.82,-99.44C628.18,-85.66 620.31,-67.57 608.25,-55.25 591.66,-38.3 567.29,-26.77 548.1,-19.68"/>
<polygon fill="#63b8ff" stroke="#63b8ff" points="629.39,-100.2 635.65,-108.74 636.09,-98.16 629.39,-100.2"/>
</a>
</g>
</g>
<!-- Node10&#45;&gt;Node3 -->
<g id="edge28_Node000010_Node000003" class="edge">
<title>Node10&#45;&gt;Node3</title>
<g id="a_edge28_Node000010_Node000003"><a xlink:title=" ">
<path fill="none" stroke="#63b8ff" d="M554.89,-293.96C614.71,-267.7 710.84,-213.83 740.25,-129.75 751.69,-97.04 743.79,-77.53 717.25,-55.25 696.03,-37.43 626.39,-24.72 575.45,-17.53"/>
<polygon fill="#63b8ff" stroke="#63b8ff" points="553.74,-290.65 545.92,-297.8 556.49,-297.08 553.74,-290.65"/>
</a>
</g>
</g>
<!-- Node11 -->
<g id="Node000011" class="node">
<title>Node11</title>
<g id="a_Node000011"><a xlink:href="../../d5/dc5/_mock_8hpp.html" target="_top" xlink:title=" ">
<polygon fill="white" stroke="#666666" points="467.88,-129.75 368.62,-129.75 368.62,-110.5 467.88,-110.5 467.88,-129.75"/>
<text text-anchor="middle" x="418.25" y="-116.25" font-family="Helvetica,sans-Serif" font-size="10.00">mimic++/Mock.hpp</text>
</a>
</g>
</g>
<!-- Node10&#45;&gt;Node11 -->
<g id="edge15_Node000010_Node000011" class="edge">
<title>Node10&#45;&gt;Node11</title>
<g id="a_edge15_Node000010_Node000011"><a xlink:title=" ">
<path fill="none" stroke="#63b8ff" d="M542.02,-291.88C552.08,-284.12 561.73,-274.34 567.25,-262.75 573.08,-250.51 573.04,-244.5 567.25,-232.25 542.07,-179.01 477.07,-145.2 441.82,-130.18"/>
<polygon fill="#63b8ff" stroke="#63b8ff" points="540.14,-288.93 534.01,-297.57 544.19,-294.64 540.14,-288.93"/>
</a>
</g>
</g>
<!-- Node14 -->
<g id="Node000014" class="node">
<title>Node14</title>
<g id="a_Node000014"><a xlink:href="../../d6/d15/_builder_8hpp.html" target="_top" xlink:title=" ">
<polygon fill="white" stroke="#666666" points="477.62,-196.25 370.88,-196.25 370.88,-165.75 477.62,-165.75 477.62,-196.25"/>
<text text-anchor="start" x="378.88" y="-182.75" font-family="Helvetica,sans-Serif" font-size="10.00">mimic++/expectation</text>
<text text-anchor="middle" x="424.25" y="-171.5" font-family="Helvetica,sans-Serif" font-size="10.00">/Builder.hpp</text>
</a>
</g>
</g>
<!-- Node10&#45;&gt;Node14 -->
<g id="edge21_Node000010_Node000014" class="edge">
<title>Node10&#45;&gt;Node14</title>
<g id="a_edge21_Node000010_Node000014"><a xlink:title=" ">
<path fill="none" stroke="#63b8ff" d="M470.81,-291.59C460.57,-283.68 450.24,-273.89 443.25,-262.75 430.31,-242.13 426.18,-213.55 424.86,-196.5"/>
<polygon fill="#63b8ff" stroke="#63b8ff" points="468.7,-294.38 478.86,-297.42 472.81,-288.72 468.7,-294.38"/>
</a>
</g>
</g>
<!-- Node15 -->
<g id="Node000015" class="node">
<title>Node15</title>
<g id="a_Node000015"><a xlink:href="../../d4/d1e/_owner_8hpp.html" target="_top" xlink:title=" ">
<polygon fill="white" stroke="#666666" points="558.62,-262.75 451.88,-262.75 451.88,-232.25 558.62,-232.25 558.62,-262.75"/>
<text text-anchor="start" x="459.88" y="-249.25" font-family="Helvetica,sans-Serif" font-size="10.00">mimic++/expectation</text>
<text text-anchor="middle" x="505.25" y="-238" font-family="Helvetica,sans-Serif" font-size="10.00">/Owner.hpp</text>
</a>
</g>
</g>
<!-- Node10&#45;&gt;Node15 -->
<g id="edge25_Node000010_Node000015" class="edge">
<title>Node10&#45;&gt;Node15</title>
<g id="a_edge25_Node000010_Node000015"><a xlink:title=" ">
<path fill="none" stroke="#63b8ff" d="M505.25,-287.06C505.25,-278.89 505.25,-270.16 505.25,-263.08"/>
<polygon fill="#63b8ff" stroke="#63b8ff" points="501.75,-286.85 505.25,-296.85 508.75,-286.85 501.75,-286.85"/>
</a>
</g>
</g>
<!-- Node11&#45;&gt;Node3 -->
<g id="edge20_Node000011_Node000003" class="edge">
<title>Node11&#45;&gt;Node3</title>
<g id="a_edge20_Node000011_Node000003"><a xlink:title=" ">
<path fill="none" stroke="#63b8ff" d="M456.22,-105.65C471.51,-98.52 488.12,-88.32 499.25,-74.5 512.46,-58.1 516.49,-32.74 517.72,-19.44"/>
<polygon fill="#63b8ff" stroke="#63b8ff" points="455.1,-102.32 447.32,-109.51 457.88,-108.75 455.1,-102.32"/>
</a>
</g>
</g>
<!-- Node12 -->
<g id="Node000012" class="node">
<title>Node12</title>
<g id="a_Node000012"><a xlink:href="../../d6/dc3/_facade_8hpp.html" target="_top" xlink:title=" ">
<polygon fill="white" stroke="#666666" points="332,-74.5 224.5,-74.5 224.5,-55.25 332,-55.25 332,-74.5"/>
<text text-anchor="middle" x="278.25" y="-61" font-family="Helvetica,sans-Serif" font-size="10.00">mimic++/Facade.hpp</text>
</a>
</g>
</g>
<!-- Node11&#45;&gt;Node12 -->
<g id="edge16_Node000011_Node000012" class="edge">
<title>Node11&#45;&gt;Node12</title>
<g id="a_edge16_Node000011_Node000012"><a xlink:title=" ">
<path fill="none" stroke="#63b8ff" d="M383.86,-106.04C358.47,-96.39 324.58,-83.5 302.12,-74.95"/>
<polygon fill="#63b8ff" stroke="#63b8ff" points="382.5,-109.27 393.09,-109.55 384.98,-102.73 382.5,-109.27"/>
</a>
</g>
</g>
<!-- Node13 -->
<g id="Node000013" class="node">
<title>Node13</title>
<g id="a_Node000013"><a xlink:href="../../d5/d92/_object_watcher_8hpp.html" target="_top" xlink:title=" ">
<polygon fill="white" stroke="#666666" points="490.12,-74.5 350.38,-74.5 350.38,-55.25 490.12,-55.25 490.12,-74.5"/>
<text text-anchor="middle" x="420.25" y="-61" font-family="Helvetica,sans-Serif" font-size="10.00">mimic++/ObjectWatcher.hpp</text>
</a>
</g>
</g>
<!-- Node11&#45;&gt;Node13 -->
<g id="edge18_Node000011_Node000013" class="edge">
<title>Node11&#45;&gt;Node13</title>
<g id="a_edge18_Node000011_Node000013"><a xlink:title=" ">
<path fill="none" stroke="#63b8ff" d="M419.01,-98.88C419.32,-90.59 419.67,-81.42 419.91,-74.86"/>
<polygon fill="#63b8ff" stroke="#63b8ff" points="415.51,-98.7 418.64,-108.82 422.51,-98.96 415.51,-98.7"/>
</a>
</g>
</g>
<!-- Node12&#45;&gt;Node3 -->
<g id="edge17_Node000012_Node000003" class="edge">
<title>Node12&#45;&gt;Node3</title>
<g id="a_edge17_Node000012_Node000003"><a xlink:title=" ">
<path fill="none" stroke="#63b8ff" d="M330.32,-52.32C374.45,-42.53 436.85,-28.69 477.43,-19.68"/>
<polygon fill="#63b8ff" stroke="#63b8ff" points="329.72,-48.87 320.71,-54.45 331.23,-55.7 329.72,-48.87"/>
</a>
</g>
</g>
<!-- Node13&#45;&gt;Node3 -->
<g id="edge19_Node000013_Node000003" class="edge">
<title>Node13&#45;&gt;Node3</title>
<g id="a_edge19_Node000013_Node000003"><a xlink:title=" ">
<path fill="none" stroke="#63b8ff" d="M446.5,-49.61C463.99,-40.11 486.45,-27.9 501.54,-19.7"/>
<polygon fill="#63b8ff" stroke="#63b8ff" points="445.32,-46.27 438.2,-54.12 448.66,-52.42 445.32,-46.27"/>
</a>
</g>
</g>
<!-- Node14&#45;&gt;Node3 -->
<g id="edge24_Node000014_Node000003" class="edge">
<title>Node14&#45;&gt;Node3</title>
<g id="a_edge24_Node000014_Node000003"><a xlink:title=" ">
<path fill="none" stroke="#63b8ff" d="M453.69,-158.38C476.74,-139.33 506.76,-109.25 518.25,-74.5 524.44,-55.76 522.02,-32.2 519.98,-19.58"/>
<polygon fill="#63b8ff" stroke="#63b8ff" points="451.75,-155.45 446.12,-164.42 456.11,-160.92 451.75,-155.45"/>
</a>
</g>
</g>
<!-- Node14&#45;&gt;Node9 -->
<g id="edge23_Node000014_Node000009" class="edge">
<title>Node14&#45;&gt;Node9</title>
<g id="a_edge23_Node000014_Node000009"><a xlink:title=" ">
<path fill="none" stroke="#63b8ff" d="M488.78,-162.25C527.13,-151.7 574.17,-138.75 605.12,-130.24"/>
<polygon fill="#63b8ff" stroke="#63b8ff" points="487.87,-158.87 479.16,-164.89 489.73,-165.62 487.87,-158.87"/>
</a>
</g>
</g>
<!-- Node14&#45;&gt;Node11 -->
<g id="edge22_Node000014_Node000011" class="edge">
<title>Node14&#45;&gt;Node11</title>
<g id="a_edge22_Node000014_Node000011"><a xlink:title=" ">
<path fill="none" stroke="#63b8ff" d="M421.63,-154.28C420.75,-145.68 419.83,-136.66 419.17,-130.2"/>
<polygon fill="#63b8ff" stroke="#63b8ff" points="418.12,-154.35 422.61,-163.94 425.08,-153.64 418.12,-154.35"/>
</a>
</g>
</g>
<!-- Node15&#45;&gt;Node3 -->
<g id="edge27_Node000015_Node000003" class="edge">
<title>Node15&#45;&gt;Node3</title>
<g id="a_edge27_Node000015_Node000003"><a xlink:title=" ">
<path fill="none" stroke="#63b8ff" d="M569.57,-231.39C621.15,-215.52 690.2,-184.94 723.25,-129.75 760.73,-67.15 648.04,-34.13 575.15,-19.74"/>
<polygon fill="#63b8ff" stroke="#63b8ff" points="568.9,-227.94 560.3,-234.13 570.88,-234.66 568.9,-227.94"/>
</a>
</g>
</g>
<!-- Node15&#45;&gt;Node14 -->
<g id="edge26_Node000015_Node000014" class="edge">
<title>Node15&#45;&gt;Node14</title>
<g id="a_edge26_Node000015_Node000014"><a xlink:title=" ">
<path fill="none" stroke="#63b8ff" d="M477.96,-224.77C466.3,-215.48 453,-204.9 442.56,-196.58"/>
<polygon fill="#63b8ff" stroke="#63b8ff" points="475.68,-227.43 485.69,-230.92 480.04,-221.95 475.68,-227.43"/>
</a>
</g>
</g>
<!-- Node16&#45;&gt;Node3 -->
<g id="edge32_Node000016_Node000003" class="edge">
<title>Node16&#45;&gt;Node3</title>
<g id="a_edge32_Node000016_Node000003"><a xlink:title=" ">
<path fill="none" stroke="#63b8ff" d="M303.64,-225.18C254.23,-188.25 167.11,-111 215.25,-55.25 246.4,-19.18 382.48,-11.74 461.27,-10.53"/>
<polygon fill="#63b8ff" stroke="#63b8ff" points="301.31,-227.82 311.45,-230.9 305.45,-222.17 301.31,-227.82"/>
</a>
</g>
</g>
<!-- Node16&#45;&gt;Node14 -->
<g id="edge31_Node000016_Node000014" class="edge">
<title>Node16&#45;&gt;Node14</title>
<g id="a_edge31_Node000016_Node000014"><a xlink:title=" ">
<path fill="none" stroke="#63b8ff" d="M363.81,-225.32C376.94,-215.91 392.07,-205.06 403.91,-196.58"/>
<polygon fill="#63b8ff" stroke="#63b8ff" points="361.99,-222.31 355.9,-230.98 366.07,-228 361.99,-222.31"/>
</a>
</g>
</g>
<!-- Node17&#45;&gt;Node2 -->
<g id="edge36_Node000017_Node000002" class="edge">
<title>Node17&#45;&gt;Node2</title>
<g id="a_edge36_Node000017_Node000002"><a xlink:title=" ">
<path fill="none" stroke="#63b8ff" d="M811.36,-559.37C825.19,-552.01 838.11,-542.08 846.25,-528.75 876.12,-479.87 817.12,-414.31 792.94,-390.56"/>
<polygon fill="#63b8ff" stroke="#63b8ff" points="810.04,-556.12 802.56,-563.62 813.08,-562.42 810.04,-556.12"/>
</a>
</g>
</g>
<!-- Node17&#45;&gt;Node5 -->
<g id="edge37_Node000017_Node000005" class="edge">
<title>Node17&#45;&gt;Node5</title>
<g id="a_edge37_Node000017_Node000005"><a xlink:title=" ">
<path fill="none" stroke="#63b8ff" d="M748.25,-553.09C748.25,-542.51 748.25,-531 748.25,-523.32"/>
<polygon fill="#63b8ff" stroke="#63b8ff" points="744.75,-552.85 748.25,-562.85 751.75,-552.85 744.75,-552.85"/>
</a>
</g>
</g>
<!-- Node17&#45;&gt;Node6 -->
<g id="edge38_Node000017_Node000006" class="edge">
<title>Node17&#45;&gt;Node6</title>
<g id="a_edge38_Node000017_Node000006"><a xlink:title=" ">
<path fill="none" stroke="#63b8ff" d="M698.93,-560.4C672.63,-550.48 640.73,-538.45 616.19,-529.19"/>
<polygon fill="#63b8ff" stroke="#63b8ff" points="697.44,-563.58 708.03,-563.83 699.91,-557.03 697.44,-563.58"/>
</a>
</g>
</g>
<!-- Node18&#45;&gt;Node2 -->
<g id="edge44_Node000018_Node000002" class="edge">
<title>Node18&#45;&gt;Node2</title>
<g id="a_edge44_Node000018_Node000002"><a xlink:title=" ">
<path fill="none" stroke="#63b8ff" d="M608,-759.43C686.12,-726.56 830.38,-650.79 864.25,-528.75 875.88,-486.84 874.49,-468.52 851.25,-431.75 839.41,-413.01 817.88,-398.9 802.21,-390.47"/>
<polygon fill="#63b8ff" stroke="#63b8ff" points="606.74,-756.16 598.83,-763.21 609.41,-762.63 606.74,-756.16"/>
</a>
</g>
</g>
<!-- Node18&#45;&gt;Node4 -->
<g id="edge45_Node000018_Node000004" class="edge">
<title>Node18&#45;&gt;Node4</title>
<g id="a_edge45_Node000018_Node000004"><a xlink:title=" ">
<path fill="none" stroke="#63b8ff" d="M630.94,-761.13C664.9,-752.42 705.51,-741.02 741.25,-728.25 802.65,-706.31 872.33,-672.61 904.39,-656.58"/>
<polygon fill="#63b8ff" stroke="#63b8ff" points="630.46,-757.64 621.63,-763.49 632.18,-764.42 630.46,-757.64"/>
</a>
</g>
</g>
<!-- Node18&#45;&gt;Node11 -->
<g id="edge43_Node000018_Node000011" class="edge">
<title>Node18&#45;&gt;Node11</title>
<g id="a_edge43_Node000018_Node000011"><a xlink:title=" ">
<path fill="none" stroke="#63b8ff" d="M483.01,-768.91C370.12,-752.23 168.25,-713.21 168.25,-647.5 168.25,-647.5 168.25,-647.5 168.25,-313 168.25,-205.9 314.42,-150.4 383.23,-130.21"/>
<polygon fill="#63b8ff" stroke="#63b8ff" points="482.42,-772.36 492.82,-770.34 483.43,-765.44 482.42,-772.36"/>
</a>
</g>
</g>
<!-- Node19 -->
<g id="Node000019" class="node">
<title>Node19</title>
<g id="a_Node000019"><a xlink:href="../../d7/ded/_call_convention_8hpp.html" target="_top" xlink:title=" ">
<polygon fill="white" stroke="#666666" points="140.5,-589.62 0,-589.62 0,-570.38 140.5,-570.38 140.5,-589.62"/>
<text text-anchor="middle" x="70.25" y="-576.12" font-family="Helvetica,sans-Serif" font-size="10.00">mimic++/CallConvention.hpp</text>
</a>
</g>
</g>
<!-- Node18&#45;&gt;Node19 -->
<g id="edge41_Node000018_Node000019" class="edge">
<title>Node18&#45;&gt;Node19</title>
<g id="a_edge41_Node000018_Node000019"><a xlink:title=" ">
<path fill="none" stroke="#63b8ff" d="M482.99,-777.07C381.63,-773.81 206.56,-763.14 154.25,-728.25 102.59,-693.79 79.02,-616.1 72.34,-589.86"/>
<polygon fill="#63b8ff" stroke="#63b8ff" points="482.76,-780.56 492.86,-777.36 482.97,-773.56 482.76,-780.56"/>
</a>
</g>
</g>
<!-- Node20 -->
<g id="Node000020" class="node">
<title>Node20</title>
<g id="a_Node000020"><a xlink:href="../../dd/d76/_expectation_report_8hpp.html" target="_top" xlink:title=" ">
<polygon fill="white" stroke="#666666" points="540.25,-728.25 392.25,-728.25 392.25,-697.75 540.25,-697.75 540.25,-728.25"/>
<text text-anchor="start" x="400.25" y="-714.75" font-family="Helvetica,sans-Serif" font-size="10.00">mimic++/reporting/Expectation</text>
<text text-anchor="middle" x="466.25" y="-703.5" font-family="Helvetica,sans-Serif" font-size="10.00">Report.hpp</text>
</a>
</g>
</g>
<!-- Node18&#45;&gt;Node20 -->
<g id="edge46_Node000018_Node000020" class="edge">
<title>Node18&#45;&gt;Node20</title>
<g id="a_edge46_Node000018_Node000020"><a xlink:title=" ">
<path fill="none" stroke="#63b8ff" d="M527.36,-757.32C514.09,-747.91 498.79,-737.06 486.82,-728.58"/>
<polygon fill="#63b8ff" stroke="#63b8ff" points="525.18,-760.06 535.37,-762.99 529.23,-754.35 525.18,-760.06"/>
</a>
</g>
</g>
<!-- Node19&#45;&gt;Node3 -->
<g id="edge42_Node000019_Node000003" class="edge">
<title>Node19&#45;&gt;Node3</title>
<g id="a_edge42_Node000019_Node000003"><a xlink:title=" ">
<path fill="none" stroke="#63b8ff" d="M72.48,-558.97C75.15,-533.29 79.25,-487.39 79.25,-448 79.25,-448 79.25,-448 79.25,-119.12 79.25,-41.3 342.53,-18.94 461.31,-12.82"/>
<polygon fill="#63b8ff" stroke="#63b8ff" points="69.04,-558.3 71.44,-568.61 76,-559.05 69.04,-558.3"/>
</a>
</g>
</g>
<!-- Node20&#45;&gt;Node2 -->
<g id="edge47_Node000020_Node000002" class="edge">
<title>Node20&#45;&gt;Node2</title>
<g id="a_edge47_Node000020_Node000002"><a xlink:title=" ">
<path fill="none" stroke="#63b8ff" d="M448.75,-688.1C432,-662.82 409.25,-621.11 409.25,-581 409.25,-581 409.25,-581 409.25,-512.5 409.25,-475.3 403.37,-456.37 431.25,-431.75 442.14,-422.14 627.35,-399.49 724.63,-388.18"/>
<polygon fill="#63b8ff" stroke="#63b8ff" points="445.85,-690.07 454.4,-696.32 451.62,-686.1 445.85,-690.07"/>
</a>
</g>
</g>
<!-- Node20&#45;&gt;Node5 -->
<g id="edge57_Node000020_Node000005" class="edge">
<title>Node20&#45;&gt;Node5</title>
<g id="a_edge57_Node000020_Node000005"><a xlink:title=" ">
<path fill="none" stroke="#63b8ff" d="M552.02,-699.4C596.87,-691 645.46,-678.43 660.25,-661.75 689.1,-629.2 650.26,-601.68 673.25,-564.75 685.34,-545.32 708.04,-531.71 725.31,-523.6"/>
<polygon fill="#63b8ff" stroke="#63b8ff" points="551.43,-695.95 542.21,-701.17 552.68,-702.84 551.43,-695.95"/>
</a>
</g>
</g>
<!-- Node20&#45;&gt;Node6 -->
<g id="edge58_Node000020_Node000006" class="edge">
<title>Node20&#45;&gt;Node6</title>
<g id="a_edge58_Node000020_Node000006"><a xlink:title=" ">
<path fill="none" stroke="#63b8ff" d="M477,-687.2C484.23,-671.02 494.24,-649.6 504.25,-631.25 524.97,-593.26 552.88,-550.63 567.46,-528.91"/>
<polygon fill="#63b8ff" stroke="#63b8ff" points="473.92,-685.5 473.08,-696.06 480.33,-688.33 473.92,-685.5"/>
</a>
</g>
</g>
<!-- Node20&#45;&gt;Node7 -->
<g id="edge59_Node000020_Node000007" class="edge">
<title>Node20&#45;&gt;Node7</title>
<g id="a_edge59_Node000020_Node000007"><a xlink:title=" ">
<path fill="none" stroke="#63b8ff" d="M462.46,-685.97C457.46,-645 451.43,-563.42 471.25,-498.25 475.28,-484.99 483.86,-471.84 491.12,-462.33"/>
<polygon fill="#63b8ff" stroke="#63b8ff" points="458.98,-686.36 463.75,-695.82 465.92,-685.45 458.98,-686.36"/>
</a>
</g>
</g>
<!-- Node20&#45;&gt;Node16 -->
<g id="edge56_Node000020_Node000016" class="edge">
<title>Node20&#45;&gt;Node16</title>
<g id="a_edge56_Node000020_Node000016"><a xlink:title=" ">
<path fill="none" stroke="#63b8ff" d="M418,-692.54C402.66,-684.66 386.52,-674.39 374.25,-661.75 346.22,-632.86 333.25,-621.25 333.25,-581 333.25,-581 333.25,-581 333.25,-379.5 333.25,-337.2 333.78,-287.21 334.07,-263.04"/>
<polygon fill="#63b8ff" stroke="#63b8ff" points="416.03,-695.47 426.55,-696.71 419.09,-689.18 416.03,-695.47"/>
</a>
</g>
</g>
<!-- Node20&#45;&gt;Node17 -->
<g id="edge65_Node000020_Node000017" class="edge">
<title>Node20&#45;&gt;Node17</title>
<g id="a_edge65_Node000020_Node000017"><a xlink:title=" ">
<path fill="none" stroke="#63b8ff" d="M552.02,-708.08C597.26,-702.48 651.81,-689.82 693.25,-661.75 717.69,-645.2 734.31,-613.84 742.46,-595.45"/>
<polygon fill="#63b8ff" stroke="#63b8ff" points="551.78,-704.59 542.24,-709.19 552.57,-711.54 551.78,-704.59"/>
</a>
</g>
</g>
<!-- Node21 -->
<g id="Node000021" class="node">
<title>Node21</title>
<g id="a_Node000021"><a xlink:href="../../db/d33/expectation_2_common_8hpp.html" target="_top" xlink:title=" ">
<polygon fill="white" stroke="#666666" points="304.62,-462.25 197.88,-462.25 197.88,-431.75 304.62,-431.75 304.62,-462.25"/>
<text text-anchor="start" x="205.88" y="-448.75" font-family="Helvetica,sans-Serif" font-size="10.00">mimic++/expectation</text>
<text text-anchor="middle" x="251.25" y="-437.5" font-family="Helvetica,sans-Serif" font-size="10.00">/Common.hpp</text>
</a>
</g>
</g>
<!-- Node20&#45;&gt;Node21 -->
<g id="edge48_Node000020_Node000021" class="edge">
<title>Node20&#45;&gt;Node21</title>
<g id="a_edge48_Node000020_Node000021"><a xlink:title=" ">
<path fill="none" stroke="#63b8ff" d="M380.93,-697.42C358.45,-689.97 335.87,-678.73 319.25,-661.75 263.14,-604.42 253.3,-500.95 251.6,-462.72"/>
<polygon fill="#63b8ff" stroke="#63b8ff" points="379.9,-700.76 390.49,-700.33 381.94,-694.07 379.9,-700.76"/>
</a>
</g>
</g>
<!-- Node22 -->
<g id="Node000022" class="node">
<title>Node22</title>
<g id="a_Node000022"><a xlink:href="../../d5/d8a/_expectation_8hpp.html" target="_top" xlink:title=" ">
<polygon fill="white" stroke="#666666" points="467.62,-395.75 360.88,-395.75 360.88,-365.25 467.62,-365.25 467.62,-395.75"/>
<text text-anchor="start" x="368.88" y="-382.25" font-family="Helvetica,sans-Serif" font-size="10.00">mimic++/expectation</text>
<text text-anchor="middle" x="414.25" y="-371" font-family="Helvetica,sans-Serif" font-size="10.00">/Expectation.hpp</text>
</a>
</g>
</g>
<!-- Node20&#45;&gt;Node22 -->
<g id="edge55_Node000020_Node000022" class="edge">
<title>Node20&#45;&gt;Node22</title>
<g id="a_edge55_Node000020_Node000022"><a xlink:title=" ">
<path fill="none" stroke="#63b8ff" d="M427.36,-691.29C415.62,-683.4 403.64,-673.45 395.25,-661.75 373.44,-631.32 371.25,-618.44 371.25,-581 371.25,-581 371.25,-581 371.25,-512.5 371.25,-468.22 393.71,-419.52 406.16,-395.92"/>
<polygon fill="#63b8ff" stroke="#63b8ff" points="425.47,-694.24 435.8,-696.61 429.21,-688.32 425.47,-694.24"/>
</a>
</g>
</g>
<!-- Node23 -->
<g id="Node000023" class="node">
<title>Node23</title>
<g id="a_Node000023"><a xlink:href="../../de/d3f/_no_match_report_8hpp.html" target="_top" xlink:title=" ">
<polygon fill="white" stroke="#666666" points="651,-661.75 513.5,-661.75 513.5,-631.25 651,-631.25 651,-661.75"/>
<text text-anchor="start" x="521.5" y="-648.25" font-family="Helvetica,sans-Serif" font-size="10.00">mimic++/reporting/NoMatch</text>
<text text-anchor="middle" x="582.25" y="-637" font-family="Helvetica,sans-Serif" font-size="10.00">Report.hpp</text>
</a>
</g>
</g>
<!-- Node20&#45;&gt;Node23 -->
<g id="edge60_Node000020_Node000023" class="edge">
<title>Node20&#45;&gt;Node23</title>
<g id="a_edge60_Node000020_Node000023"><a xlink:title=" ">
<path fill="none" stroke="#63b8ff" d="M502.39,-691.91C519.75,-682.25 540.18,-670.89 556.03,-662.08"/>
<polygon fill="#63b8ff" stroke="#63b8ff" points="500.93,-688.71 493.89,-696.63 504.34,-694.83 500.93,-688.71"/>
</a>
</g>
</g>
<!-- Node21&#45;&gt;Node3 -->
<g id="edge54_Node000021_Node000003" class="edge">
<title>Node21&#45;&gt;Node3</title>
<g id="a_edge54_Node000021_Node000003"><a xlink:title=" ">
<path fill="none" stroke="#63b8ff" d="M235.07,-422C190.82,-353.23 77.91,-154.04 183.25,-55.25 222.36,-18.57 376.35,-11.52 461.27,-10.49"/>
<polygon fill="#63b8ff" stroke="#63b8ff" points="232.07,-423.81 240.47,-430.27 237.93,-419.98 232.07,-423.81"/>
</a>
</g>
</g>
<!-- Node21&#45;&gt;Node14 -->
<g id="edge49_Node000021_Node000014" class="edge">
<title>Node21&#45;&gt;Node14</title>
<g id="a_edge49_Node000021_Node000014"><a xlink:title=" ">
<path fill="none" stroke="#63b8ff" d="M244.22,-420.32C233.93,-376.65 220.32,-287.31 263.25,-232.25 288.45,-199.92 334.24,-187.92 370.56,-183.69"/>
<polygon fill="#63b8ff" stroke="#63b8ff" points="240.79,-421.04 246.62,-429.89 247.58,-419.34 240.79,-421.04"/>
</a>
</g>
</g>
<!-- Node21&#45;&gt;Node22 -->
<g id="edge50_Node000021_Node000022" class="edge">
<title>Node21&#45;&gt;Node22</title>
<g id="a_edge50_Node000021_Node000022"><a xlink:title=" ">
<path fill="none" stroke="#63b8ff" d="M298.93,-427.13C323.87,-417.26 353.95,-405.36 377.13,-396.19"/>
<polygon fill="#63b8ff" stroke="#63b8ff" points="297.66,-423.87 289.64,-430.81 300.23,-430.38 297.66,-423.87"/>
</a>
</g>
</g>
<!-- Node22&#45;&gt;Node3 -->
<g id="edge53_Node000022_Node000003" class="edge">
<title>Node22&#45;&gt;Node3</title>
<g id="a_edge53_Node000022_Node000003"><a xlink:title=" ">
<path fill="none" stroke="#63b8ff" d="M381.82,-358.76C302.08,-305.32 109.35,-159.8 200.25,-55.25 233.4,-17.12 379.01,-10.62 461.22,-10.07"/>
<polygon fill="#63b8ff" stroke="#63b8ff" points="379.43,-361.37 389.7,-363.97 383.29,-355.53 379.43,-361.37"/>
</a>
</g>
</g>
<!-- Node22&#45;&gt;Node10 -->
<g id="edge52_Node000022_Node000010" class="edge">
<title>Node22&#45;&gt;Node10</title>
<g id="a_edge52_Node000022_Node000010"><a xlink:title=" ">
<path fill="none" stroke="#63b8ff" d="M444.14,-358.32C457.41,-348.91 472.71,-338.06 484.68,-329.58"/>
<polygon fill="#63b8ff" stroke="#63b8ff" points="442.27,-355.35 436.13,-363.99 446.32,-361.06 442.27,-355.35"/>
</a>
</g>
</g>
<!-- Node22&#45;&gt;Node15 -->
<g id="edge51_Node000022_Node000015" class="edge">
<title>Node22&#45;&gt;Node15</title>
<g id="a_edge51_Node000022_Node000015"><a xlink:title=" ">
<path fill="none" stroke="#63b8ff" d="M419.66,-353.79C424.07,-337.02 431.53,-315.27 443.25,-298.75 453.35,-284.51 468.53,-272.12 481.34,-263.2"/>
<polygon fill="#63b8ff" stroke="#63b8ff" points="416.26,-352.96 417.33,-363.5 423.07,-354.6 416.26,-352.96"/>
</a>
</g>
</g>
<!-- Node23&#45;&gt;Node2 -->
<g id="edge61_Node000023_Node000002" class="edge">
<title>Node23&#45;&gt;Node2</title>
<g id="a_edge61_Node000023_Node000002"><a xlink:title=" ">
<path fill="none" stroke="#63b8ff" d="M555.6,-623.48C523.28,-594.03 476.39,-540.63 504.25,-498.25 511.8,-486.76 693.84,-415.89 759.73,-390.52"/>
<polygon fill="#63b8ff" stroke="#63b8ff" points="552.9,-625.77 562.71,-629.77 557.54,-620.52 552.9,-625.77"/>
</a>
</g>
</g>
<!-- Node23&#45;&gt;Node5 -->
<g id="edge62_Node000023_Node000005" class="edge">
<title>Node23&#45;&gt;Node5</title>
<g id="a_edge62_Node000023_Node000005"><a xlink:title=" ">
<path fill="none" stroke="#63b8ff" d="M595.03,-620.85C605.12,-603.35 620.57,-580.29 639.25,-564.75 662.64,-545.29 694.8,-531.68 718.12,-523.58"/>
<polygon fill="#63b8ff" stroke="#63b8ff" points="591.98,-619.14 590.2,-629.59 598.1,-622.53 591.98,-619.14"/>
</a>
</g>
</g>
<!-- Node23&#45;&gt;Node6 -->
<g id="edge63_Node000023_Node000006" class="edge">
<title>Node23&#45;&gt;Node6</title>
<g id="a_edge63_Node000023_Node000006"><a xlink:title=" ">
<path fill="none" stroke="#63b8ff" d="M581.26,-619.68C580.23,-592.59 578.64,-550.96 577.81,-529.08"/>
<polygon fill="#63b8ff" stroke="#63b8ff" points="577.76,-619.61 581.64,-629.47 584.75,-619.34 577.76,-619.61"/>
</a>
</g>
</g>
<!-- Node23&#45;&gt;Node17 -->
<g id="edge64_Node000023_Node000017" class="edge">
<title>Node23&#45;&gt;Node17</title>
<g id="a_edge64_Node000023_Node000017"><a xlink:title=" ">
<path fill="none" stroke="#63b8ff" d="M630.47,-626.76C655.93,-616.87 686.73,-604.9 710.44,-595.69"/>
<polygon fill="#63b8ff" stroke="#63b8ff" points="629.38,-623.43 621.33,-630.32 631.92,-629.96 629.38,-623.43"/>
</a>
</g>
</g>
</g>
</svg>
