<?xml version="1.0" encoding="UTF-8" standalone="no"?>
<!DOCTYPE svg PUBLIC "-//W3C//DTD SVG 1.1//EN"
 "http://www.w3.org/Graphics/SVG/1.1/DTD/svg11.dtd">
<!-- Generated by graphviz version 12.2.1 (20241206.2353)
 -->
<!-- Title: mimic++/reporting/TypeReport.hpp Pages: 1 -->
<svg width="1014pt" height="769pt"
 viewBox="0.00 0.00 1014.25 769.00" xmlns="http://www.w3.org/2000/svg" xmlns:xlink="http://www.w3.org/1999/xlink">
<g id="graph0" class="graph" transform="scale(1 1) rotate(0) translate(4 765)">
<title>mimic++/reporting/TypeReport.hpp</title>
<!-- Node1 -->
<g id="Node000001" class="node">
<title>Node1</title>
<g id="a_Node000001"><a xlink:title=" ">
<polygon fill="#999999" stroke="#666666" points="355.62,-761 190.38,-761 190.38,-741.75 355.62,-741.75 355.62,-761"/>
<text text-anchor="middle" x="273" y="-747.5" font-family="Helvetica,sans-Serif" font-size="10.00">mimic++/reporting/TypeReport.hpp</text>
</a>
</g>
</g>
<!-- Node2 -->
<g id="Node000002" class="node">
<title>Node2</title>
<g id="a_Node000002"><a xlink:href="../../d7/deb/_reporting_8hpp.html" target="_top" xlink:title=" ">
<polygon fill="white" stroke="#666666" points="377.25,-306.75 260.75,-306.75 260.75,-287.5 377.25,-287.5 377.25,-306.75"/>
<text text-anchor="middle" x="319" y="-293.25" font-family="Helvetica,sans-Serif" font-size="10.00">mimic++/Reporting.hpp</text>
</a>
</g>
</g>
<!-- Node1&#45;&gt;Node2 -->
<g id="edge1_Node000001_Node000002" class="edge">
<title>Node1&#45;&gt;Node2</title>
<g id="a_edge1_Node000001_Node000002"><a xlink:title=" ">
<path fill="none" stroke="#63b8ff" d="M178.99,-744.97C100.03,-734.74 0,-705.82 0,-625 0,-625 0,-625 0,-423.5 0,-380.57 17.05,-366.21 53,-342.75 86.33,-321 192.7,-308.46 260.4,-302.49"/>
<polygon fill="#63b8ff" stroke="#63b8ff" points="178.13,-748.39 188.48,-746.11 178.97,-741.44 178.13,-748.39"/>
</a>
</g>
</g>
<!-- Node4 -->
<g id="Node000004" class="node">
<title>Node4</title>
<g id="a_Node000004"><a xlink:href="../../d9/d6c/_call_report_8hpp.html" target="_top" xlink:title=" ">
<polygon fill="white" stroke="#666666" points="271.38,-567.12 110.62,-567.12 110.62,-547.88 271.38,-547.88 271.38,-567.12"/>
<text text-anchor="middle" x="191" y="-553.62" font-family="Helvetica,sans-Serif" font-size="10.00">mimic++/reporting/CallReport.hpp</text>
</a>
</g>
</g>
<!-- Node1&#45;&gt;Node4 -->
<g id="edge3_Node000001_Node000004" class="edge">
<title>Node1&#45;&gt;Node4</title>
<g id="a_edge3_Node000001_Node000004"><a xlink:title=" ">
<path fill="none" stroke="#63b8ff" d="M264.68,-730.9C247.18,-689.96 207.16,-596.3 194.74,-567.26"/>
<polygon fill="#63b8ff" stroke="#63b8ff" points="261.41,-732.17 268.56,-739.99 267.85,-729.42 261.41,-732.17"/>
</a>
</g>
</g>
<!-- Node16 -->
<g id="Node000016" class="node">
<title>Node16</title>
<g id="a_Node000016"><a xlink:href="../../d9/d70/_stringify_reports_8hpp.html" target="_top" xlink:title=" ">
<polygon fill="white" stroke="#666666" points="389.5,-506.25 256.5,-506.25 256.5,-475.75 389.5,-475.75 389.5,-506.25"/>
<text text-anchor="start" x="264.5" y="-492.75" font-family="Helvetica,sans-Serif" font-size="10.00">mimic++/reporting/Stringify</text>
<text text-anchor="middle" x="323" y="-481.5" font-family="Helvetica,sans-Serif" font-size="10.00">Reports.hpp</text>
</a>
</g>
</g>
<!-- Node1&#45;&gt;Node16 -->
<g id="edge39_Node000001_Node000016" class="edge">
<title>Node1&#45;&gt;Node16</title>
<g id="a_edge39_Node000001_Node000016"><a xlink:title=" ">
<path fill="none" stroke="#63b8ff" d="M276.88,-730.3C286.59,-680.14 311.74,-550.19 320.19,-506.54"/>
<polygon fill="#63b8ff" stroke="#63b8ff" points="273.47,-729.51 275.01,-740 280.34,-730.84 273.47,-729.51"/>
</a>
</g>
</g>
<!-- Node17 -->
<g id="Node000017" class="node">
<title>Node17</title>
<g id="a_Node000017"><a xlink:href="../../d8/d4c/_target_report_8hpp.html" target="_top" xlink:title=" ">
<polygon fill="white" stroke="#666666" points="765.75,-705.75 640.25,-705.75 640.25,-675.25 765.75,-675.25 765.75,-705.75"/>
<text text-anchor="start" x="648.25" y="-692.25" font-family="Helvetica,sans-Serif" font-size="10.00">mimic++/reporting/Target</text>
<text text-anchor="middle" x="703" y="-681" font-family="Helvetica,sans-Serif" font-size="10.00">Report.hpp</text>
</a>
</g>
</g>
<!-- Node1&#45;&gt;Node17 -->
<g id="edge40_Node000001_Node000017" class="edge">
<title>Node1&#45;&gt;Node17</title>
<g id="a_edge40_Node000001_Node000017"><a xlink:title=" ">
<path fill="none" stroke="#63b8ff" d="M350.61,-739.75C433.42,-728.41 563.03,-710.67 639.83,-700.15"/>
<polygon fill="#63b8ff" stroke="#63b8ff" points="350.18,-736.28 340.74,-741.1 351.13,-743.21 350.18,-736.28"/>
</a>
</g>
</g>
<!-- Node3 -->
<g id="Node000003" class="node">
<title>Node3</title>
<g id="a_Node000003"><a xlink:href="../../d0/db9/mimic_09_09_8hpp.html" target="_top" xlink:title=" ">
<polygon fill="white" stroke="#666666" points="584.75,-19.25 471.25,-19.25 471.25,0 584.75,0 584.75,-19.25"/>
<text text-anchor="middle" x="528" y="-5.75" font-family="Helvetica,sans-Serif" font-size="10.00">mimic++/mimic++.hpp</text>
</a>
</g>
</g>
<!-- Node2&#45;&gt;Node3 -->
<g id="edge2_Node000002_Node000003" class="edge">
<title>Node2&#45;&gt;Node3</title>
<g id="a_edge2_Node000002_Node000003"><a xlink:title=" ">
<path fill="none" stroke="#63b8ff" d="M320.1,-275.75C321.28,-251.93 323,-211.3 323,-176.38 323,-176.38 323,-176.38 323,-119.12 323,-51.88 410.24,-26.19 470.9,-16.46"/>
<polygon fill="#63b8ff" stroke="#63b8ff" points="316.61,-275.44 319.58,-285.6 323.6,-275.8 316.61,-275.44"/>
</a>
</g>
</g>
<!-- Node4&#45;&gt;Node2 -->
<g id="edge18_Node000004_Node000002" class="edge">
<title>Node4&#45;&gt;Node2</title>
<g id="a_edge18_Node000004_Node000002"><a xlink:title=" ">
<path fill="none" stroke="#63b8ff" d="M184.55,-536.37C181.96,-527.28 179.28,-516.33 178,-506.25 168.58,-432.24 166.8,-398.83 216,-342.75 231.74,-324.8 256,-313.82 277.03,-307.23"/>
<polygon fill="#63b8ff" stroke="#63b8ff" points="181.2,-537.38 187.45,-545.93 187.89,-535.34 181.2,-537.38"/>
</a>
</g>
</g>
<!-- Node5 -->
<g id="Node000005" class="node">
<title>Node5</title>
<g id="a_Node000005"><a xlink:href="../../d5/d8a/_expectation_8hpp.html" target="_top" xlink:title=" ">
<polygon fill="white" stroke="#666666" points="769.75,-245.88 644.25,-245.88 644.25,-226.62 769.75,-226.62 769.75,-245.88"/>
<text text-anchor="middle" x="707" y="-232.38" font-family="Helvetica,sans-Serif" font-size="10.00">mimic++/Expectation.hpp</text>
</a>
</g>
</g>
<!-- Node4&#45;&gt;Node5 -->
<g id="edge4_Node000004_Node000005" class="edge">
<title>Node4&#45;&gt;Node5</title>
<g id="a_edge4_Node000004_Node000005"><a xlink:title=" ">
<path fill="none" stroke="#63b8ff" d="M181.51,-537.26C177.47,-528.1 173.2,-516.85 171,-506.25 162.25,-464.03 162.72,-451.91 169,-409.25 178.53,-344.46 191.99,-313.72 252,-287.5 393.27,-225.77 443.88,-269.4 597,-251.5 612.21,-249.72 628.58,-247.67 643.92,-245.7"/>
<polygon fill="#63b8ff" stroke="#63b8ff" points="178.27,-538.59 185.68,-546.17 184.61,-535.63 178.27,-538.59"/>
</a>
</g>
</g>
<!-- Node11 -->
<g id="Node000011" class="node">
<title>Node11</title>
<g id="a_Node000011"><a xlink:href="../../d1/dfd/_basic_reporter_8hpp.html" target="_top" xlink:title=" ">
<polygon fill="white" stroke="#666666" points="395.62,-434.12 218.38,-434.12 218.38,-414.88 395.62,-414.88 395.62,-434.12"/>
<text text-anchor="middle" x="307" y="-420.62" font-family="Helvetica,sans-Serif" font-size="10.00">mimic++/reporting/BasicReporter.hpp</text>
</a>
</g>
</g>
<!-- Node4&#45;&gt;Node11 -->
<g id="edge19_Node000004_Node000011" class="edge">
<title>Node4&#45;&gt;Node11</title>
<g id="a_edge19_Node000004_Node000011"><a xlink:title=" ">
<path fill="none" stroke="#63b8ff" d="M192.4,-536.21C194.56,-518.55 200.05,-493.13 214,-475.75 230.2,-455.57 256.77,-442.38 277.37,-434.59"/>
<polygon fill="#63b8ff" stroke="#63b8ff" points="188.93,-535.68 191.48,-545.97 195.9,-536.34 188.93,-535.68"/>
</a>
</g>
</g>
<!-- Node12 -->
<g id="Node000012" class="node">
<title>Node12</title>
<g id="a_Node000012"><a xlink:href="../../d0/d70/_default_reporter_8hpp.html" target="_top" xlink:title=" ">
<polygon fill="white" stroke="#666666" points="580.25,-439.75 451.75,-439.75 451.75,-409.25 580.25,-409.25 580.25,-439.75"/>
<text text-anchor="start" x="459.75" y="-426.25" font-family="Helvetica,sans-Serif" font-size="10.00">mimic++/reporting/Default</text>
<text text-anchor="middle" x="516" y="-415" font-family="Helvetica,sans-Serif" font-size="10.00">Reporter.hpp</text>
</a>
</g>
</g>
<!-- Node4&#45;&gt;Node12 -->
<g id="edge21_Node000004_Node000012" class="edge">
<title>Node4&#45;&gt;Node12</title>
<g id="a_edge21_Node000004_Node000012"><a xlink:title=" ">
<path fill="none" stroke="#63b8ff" d="M199.08,-537.15C207.97,-518.36 224.11,-490.57 247,-475.75 263.97,-464.76 377.34,-446.16 451.39,-434.94"/>
<polygon fill="#63b8ff" stroke="#63b8ff" points="195.96,-535.54 195.1,-546.1 202.36,-538.39 195.96,-535.54"/>
</a>
</g>
</g>
<!-- Node13 -->
<g id="Node000013" class="node">
<title>Node13</title>
<g id="a_Node000013"><a xlink:href="../../de/dd1/_global_reporter_8hpp.html" target="_top" xlink:title=" ">
<polygon fill="white" stroke="#666666" points="615.75,-373.25 490.25,-373.25 490.25,-342.75 615.75,-342.75 615.75,-373.25"/>
<text text-anchor="start" x="498.25" y="-359.75" font-family="Helvetica,sans-Serif" font-size="10.00">mimic++/reporting/Global</text>
<text text-anchor="middle" x="553" y="-348.5" font-family="Helvetica,sans-Serif" font-size="10.00">Reporter.hpp</text>
</a>
</g>
</g>
<!-- Node4&#45;&gt;Node13 -->
<g id="edge34_Node000004_Node000013" class="edge">
<title>Node4&#45;&gt;Node13</title>
<g id="a_edge34_Node000004_Node000013"><a xlink:title=" ">
<path fill="none" stroke="#63b8ff" d="M186.41,-536.53C180.36,-504.51 174.2,-441.94 209,-409.25 248.48,-372.16 401.72,-362.38 489.78,-359.84"/>
<polygon fill="#63b8ff" stroke="#63b8ff" points="182.93,-536.98 188.41,-546.05 189.78,-535.55 182.93,-536.98"/>
</a>
</g>
</g>
<!-- Node4&#45;&gt;Node16 -->
<g id="edge35_Node000004_Node000016" class="edge">
<title>Node4&#45;&gt;Node16</title>
<g id="a_edge35_Node000004_Node000016"><a xlink:title=" ">
<path fill="none" stroke="#63b8ff" d="M219.86,-542.4C241.52,-531.81 271.09,-517.36 293.02,-506.65"/>
<polygon fill="#63b8ff" stroke="#63b8ff" points="218.44,-539.2 210.99,-546.73 221.51,-545.49 218.44,-539.2"/>
</a>
</g>
</g>
<!-- Node5&#45;&gt;Node3 -->
<g id="edge17_Node000005_Node000003" class="edge">
<title>Node5&#45;&gt;Node3</title>
<g id="a_edge17_Node000005_Node000003"><a xlink:title=" ">
<path fill="none" stroke="#63b8ff" d="M701.9,-215.38C694.06,-188.41 676.64,-140.17 646,-110.5 617.99,-83.37 595.09,-100.46 566,-74.5 548.48,-58.87 536.66,-33.18 531.3,-19.63"/>
<polygon fill="#63b8ff" stroke="#63b8ff" points="698.43,-215.95 704.45,-224.68 705.18,-214.11 698.43,-215.95"/>
</a>
</g>
</g>
<!-- Node6 -->
<g id="Node000006" class="node">
<title>Node6</title>
<g id="a_Node000006"><a xlink:href="../../d2/d4f/_expectation_builder_8hpp.html" target="_top" xlink:title=" ">
<polygon fill="white" stroke="#666666" points="638.75,-185 483.25,-185 483.25,-165.75 638.75,-165.75 638.75,-185"/>
<text text-anchor="middle" x="561" y="-171.5" font-family="Helvetica,sans-Serif" font-size="10.00">mimic++/ExpectationBuilder.hpp</text>
</a>
</g>
</g>
<!-- Node5&#45;&gt;Node6 -->
<g id="edge5_Node000005_Node000006" class="edge">
<title>Node5&#45;&gt;Node6</title>
<g id="a_edge5_Node000005_Node000006"><a xlink:title=" ">
<path fill="none" stroke="#63b8ff" d="M674.12,-221.99C646.4,-210.81 607.48,-195.12 583.28,-185.36"/>
<polygon fill="#63b8ff" stroke="#63b8ff" points="672.52,-225.12 683.1,-225.61 675.14,-218.63 672.52,-225.12"/>
</a>
</g>
</g>
<!-- Node7 -->
<g id="Node000007" class="node">
<title>Node7</title>
<g id="a_Node000007"><a xlink:href="../../d5/dc5/_mock_8hpp.html" target="_top" xlink:title=" ">
<polygon fill="white" stroke="#666666" points="792.62,-129.75 693.38,-129.75 693.38,-110.5 792.62,-110.5 792.62,-129.75"/>
<text text-anchor="middle" x="743" y="-116.25" font-family="Helvetica,sans-Serif" font-size="10.00">mimic++/Mock.hpp</text>
</a>
</g>
</g>
<!-- Node5&#45;&gt;Node7 -->
<g id="edge15_Node000005_Node000007" class="edge">
<title>Node5&#45;&gt;Node7</title>
<g id="a_edge15_Node000005_Node000007"><a xlink:title=" ">
<path fill="none" stroke="#63b8ff" d="M713.21,-215.56C721.11,-190.52 734.42,-148.34 740.19,-130.04"/>
<polygon fill="#63b8ff" stroke="#63b8ff" points="709.95,-214.26 710.28,-224.85 716.63,-216.37 709.95,-214.26"/>
</a>
</g>
</g>
<!-- Node10 -->
<g id="Node000010" class="node">
<title>Node10</title>
<g id="a_Node000010"><a xlink:href="../../db/d83/_scoped_sequence_8hpp.html" target="_top" xlink:title=" ">
<polygon fill="white" stroke="#666666" points="636.88,-129.75 485.12,-129.75 485.12,-110.5 636.88,-110.5 636.88,-129.75"/>
<text text-anchor="middle" x="561" y="-116.25" font-family="Helvetica,sans-Serif" font-size="10.00">mimic++/ScopedSequence.hpp</text>
</a>
</g>
</g>
<!-- Node5&#45;&gt;Node10 -->
<g id="edge16_Node000005_Node000010" class="edge">
<title>Node5&#45;&gt;Node10</title>
<g id="a_edge16_Node000005_Node000010"><a xlink:title=" ">
<path fill="none" stroke="#63b8ff" d="M694.49,-216.81C683.55,-201.68 666.54,-180.45 648,-165.75 628.58,-150.35 603.01,-138 584.63,-130.23"/>
<polygon fill="#63b8ff" stroke="#63b8ff" points="691.56,-218.73 700.17,-224.9 697.29,-214.71 691.56,-218.73"/>
</a>
</g>
</g>
<!-- Node6&#45;&gt;Node3 -->
<g id="edge14_Node000006_Node000003" class="edge">
<title>Node6&#45;&gt;Node3</title>
<g id="a_edge14_Node000006_Node000003"><a xlink:title=" ">
<path fill="none" stroke="#63b8ff" d="M515.08,-161.06C499.94,-154.25 484.76,-144.24 476,-129.75 452.65,-91.13 497.52,-40.14 518.27,-19.69"/>
<polygon fill="#63b8ff" stroke="#63b8ff" points="513.49,-164.2 524.07,-164.72 516.12,-157.71 513.49,-164.2"/>
</a>
</g>
</g>
<!-- Node6&#45;&gt;Node7 -->
<g id="edge6_Node000006_Node000007" class="edge">
<title>Node6&#45;&gt;Node7</title>
<g id="a_edge6_Node000006_Node000007"><a xlink:title=" ">
<path fill="none" stroke="#63b8ff" d="M602.64,-162.19C635.93,-152.45 681.85,-139.02 711.97,-130.2"/>
<polygon fill="#63b8ff" stroke="#63b8ff" points="601.94,-158.75 593.33,-164.92 603.91,-165.47 601.94,-158.75"/>
</a>
</g>
</g>
<!-- Node6&#45;&gt;Node10 -->
<g id="edge12_Node000006_Node000010" class="edge">
<title>Node6&#45;&gt;Node10</title>
<g id="a_edge12_Node000006_Node000010"><a xlink:title=" ">
<path fill="none" stroke="#63b8ff" d="M561,-154.13C561,-145.84 561,-136.67 561,-130.11"/>
<polygon fill="#63b8ff" stroke="#63b8ff" points="557.5,-154.07 561,-164.07 564.5,-154.07 557.5,-154.07"/>
</a>
</g>
</g>
<!-- Node7&#45;&gt;Node3 -->
<g id="edge11_Node000007_Node000003" class="edge">
<title>Node7&#45;&gt;Node3</title>
<g id="a_edge11_Node000007_Node000003"><a xlink:title=" ">
<path fill="none" stroke="#63b8ff" d="M742.2,-99.18C740.54,-84.99 736.02,-66.51 724,-55.25 704.07,-36.58 635.26,-24.06 584.78,-17.15"/>
<polygon fill="#63b8ff" stroke="#63b8ff" points="738.68,-99.04 742.91,-108.75 745.66,-98.52 738.68,-99.04"/>
</a>
</g>
</g>
<!-- Node8 -->
<g id="Node000008" class="node">
<title>Node8</title>
<g id="a_Node000008"><a xlink:href="../../d9/dc3/_interface_mock_8hpp.html" target="_top" xlink:title=" ">
<polygon fill="white" stroke="#666666" points="908.75,-74.5 771.25,-74.5 771.25,-55.25 908.75,-55.25 908.75,-74.5"/>
<text text-anchor="middle" x="840" y="-61" font-family="Helvetica,sans-Serif" font-size="10.00">mimic++/InterfaceMock.hpp</text>
</a>
</g>
</g>
<!-- Node7&#45;&gt;Node8 -->
<g id="edge7_Node000007_Node000008" class="edge">
<title>Node7&#45;&gt;Node8</title>
<g id="a_edge7_Node000007_Node000008"><a xlink:title=" ">
<path fill="none" stroke="#63b8ff" d="M769.47,-104.59C786.71,-95.13 808.67,-83.08 823.46,-74.95"/>
<polygon fill="#63b8ff" stroke="#63b8ff" points="767.86,-101.48 760.78,-109.36 771.23,-107.62 767.86,-101.48"/>
</a>
</g>
</g>
<!-- Node9 -->
<g id="Node000009" class="node">
<title>Node9</title>
<g id="a_Node000009"><a xlink:href="../../d5/d92/_object_watcher_8hpp.html" target="_top" xlink:title=" ">
<polygon fill="white" stroke="#666666" points="714.88,-74.5 575.12,-74.5 575.12,-55.25 714.88,-55.25 714.88,-74.5"/>
<text text-anchor="middle" x="645" y="-61" font-family="Helvetica,sans-Serif" font-size="10.00">mimic++/ObjectWatcher.hpp</text>
</a>
</g>
</g>
<!-- Node7&#45;&gt;Node9 -->
<g id="edge9_Node000007_Node000009" class="edge">
<title>Node7&#45;&gt;Node9</title>
<g id="a_edge9_Node000007_Node000009"><a xlink:title=" ">
<path fill="none" stroke="#63b8ff" d="M716.75,-104.86C699.26,-95.36 676.8,-83.15 661.71,-74.95"/>
<polygon fill="#63b8ff" stroke="#63b8ff" points="714.59,-107.67 725.05,-109.37 717.93,-101.52 714.59,-107.67"/>
</a>
</g>
</g>
<!-- Node8&#45;&gt;Node3 -->
<g id="edge8_Node000008_Node000003" class="edge">
<title>Node8&#45;&gt;Node3</title>
<g id="a_edge8_Node000008_Node000003"><a xlink:title=" ">
<path fill="none" stroke="#63b8ff" d="M775.59,-52.88C718.17,-43.08 635.1,-28.9 581.32,-19.73"/>
<polygon fill="#63b8ff" stroke="#63b8ff" points="774.78,-56.29 785.23,-54.53 775.96,-49.39 774.78,-56.29"/>
</a>
</g>
</g>
<!-- Node9&#45;&gt;Node3 -->
<g id="edge10_Node000009_Node000003" class="edge">
<title>Node9&#45;&gt;Node3</title>
<g id="a_edge10_Node000009_Node000003"><a xlink:title=" ">
<path fill="none" stroke="#63b8ff" d="M614.82,-50.14C593.78,-40.56 566.3,-28.06 547.94,-19.7"/>
<polygon fill="#63b8ff" stroke="#63b8ff" points="613.22,-53.26 623.77,-54.21 616.12,-46.89 613.22,-53.26"/>
</a>
</g>
</g>
<!-- Node10&#45;&gt;Node3 -->
<g id="edge13_Node000010_Node000003" class="edge">
<title>Node10&#45;&gt;Node3</title>
<g id="a_edge13_Node000010_Node000003"><a xlink:title=" ">
<path fill="none" stroke="#63b8ff" d="M546.92,-101.13C541.62,-93.37 536.11,-83.92 533,-74.5 526.79,-55.7 526.8,-32.16 527.38,-19.57"/>
<polygon fill="#63b8ff" stroke="#63b8ff" points="543.95,-102.99 552.68,-109 549.6,-98.86 543.95,-102.99"/>
</a>
</g>
</g>
<!-- Node11&#45;&gt;Node2 -->
<g id="edge20_Node000011_Node000002" class="edge">
<title>Node11&#45;&gt;Node2</title>
<g id="a_edge20_Node000011_Node000002"><a xlink:title=" ">
<path fill="none" stroke="#63b8ff" d="M308.96,-403.05C311.61,-375.32 316.24,-326.95 318.14,-307.06"/>
<polygon fill="#63b8ff" stroke="#63b8ff" points="305.48,-402.69 308.01,-412.98 312.44,-403.36 305.48,-402.69"/>
</a>
</g>
</g>
<!-- Node12&#45;&gt;Node2 -->
<g id="edge22_Node000012_Node000002" class="edge">
<title>Node12&#45;&gt;Node2</title>
<g id="a_edge22_Node000012_Node000002"><a xlink:title=" ">
<path fill="none" stroke="#63b8ff" d="M498.24,-400.09C483.7,-382.31 461.73,-358.32 438,-342.75 412.54,-326.04 379.95,-314.38 355.32,-307.18"/>
<polygon fill="#63b8ff" stroke="#63b8ff" points="495.22,-401.92 504.19,-407.57 500.7,-397.57 495.22,-401.92"/>
</a>
</g>
</g>
<!-- Node12&#45;&gt;Node13 -->
<g id="edge23_Node000012_Node000013" class="edge">
<title>Node12&#45;&gt;Node13</title>
<g id="a_edge23_Node000012_Node000013"><a xlink:title=" ">
<path fill="none" stroke="#63b8ff" d="M530.07,-398.98C534.98,-390.41 540.34,-381.07 544.64,-373.58"/>
<polygon fill="#63b8ff" stroke="#63b8ff" points="527.09,-397.14 525.15,-407.55 533.16,-400.62 527.09,-397.14"/>
</a>
</g>
</g>
<!-- Node13&#45;&gt;Node2 -->
<g id="edge25_Node000013_Node000002" class="edge">
<title>Node13&#45;&gt;Node2</title>
<g id="a_edge25_Node000013_Node000002"><a xlink:title=" ">
<path fill="none" stroke="#63b8ff" d="M483.52,-339.52C441.39,-328.92 389.36,-315.83 355.23,-307.24"/>
<polygon fill="#63b8ff" stroke="#63b8ff" points="482.54,-342.88 493.09,-341.93 484.24,-336.09 482.54,-342.88"/>
</a>
</g>
</g>
<!-- Node13&#45;&gt;Node5 -->
<g id="edge24_Node000013_Node000005" class="edge">
<title>Node13&#45;&gt;Node5</title>
<g id="a_edge24_Node000013_Node000005"><a xlink:title=" ">
<path fill="none" stroke="#63b8ff" d="M580.88,-335.32C615.04,-308.76 671.32,-264.99 695.44,-246.24"/>
<polygon fill="#63b8ff" stroke="#63b8ff" points="578.82,-332.49 573.08,-341.39 583.12,-338.01 578.82,-332.49"/>
</a>
</g>
</g>
<!-- Node14 -->
<g id="Node000014" class="node">
<title>Node14</title>
<g id="a_Node000014"><a xlink:href="../../d8/de4/_sequence_8hpp.html" target="_top" xlink:title=" ">
<polygon fill="white" stroke="#666666" points="599.38,-306.75 480.62,-306.75 480.62,-287.5 599.38,-287.5 599.38,-306.75"/>
<text text-anchor="middle" x="540" y="-293.25" font-family="Helvetica,sans-Serif" font-size="10.00">mimic++/Sequence.hpp</text>
</a>
</g>
</g>
<!-- Node13&#45;&gt;Node14 -->
<g id="edge26_Node000013_Node000014" class="edge">
<title>Node13&#45;&gt;Node14</title>
<g id="a_edge26_Node000013_Node000014"><a xlink:title=" ">
<path fill="none" stroke="#63b8ff" d="M547.32,-331.28C545.42,-322.68 543.43,-313.66 542,-307.2"/>
<polygon fill="#63b8ff" stroke="#63b8ff" points="543.89,-331.96 549.46,-340.97 550.72,-330.45 543.89,-331.96"/>
</a>
</g>
</g>
<!-- Node14&#45;&gt;Node3 -->
<g id="edge30_Node000014_Node000003" class="edge">
<title>Node14&#45;&gt;Node3</title>
<g id="a_edge30_Node000014_Node000003"><a xlink:title=" ">
<path fill="none" stroke="#63b8ff" d="M494.35,-283.59C446.75,-267.41 379,-234.22 379,-176.38 379,-176.38 379,-176.38 379,-119.12 379,-63.29 448.23,-33.16 492.31,-19.64"/>
<polygon fill="#63b8ff" stroke="#63b8ff" points="493.03,-286.84 503.63,-286.6 495.19,-280.18 493.03,-286.84"/>
</a>
</g>
</g>
<!-- Node14&#45;&gt;Node5 -->
<g id="edge27_Node000014_Node000005" class="edge">
<title>Node14&#45;&gt;Node5</title>
<g id="a_edge27_Node000014_Node000005"><a xlink:title=" ">
<path fill="none" stroke="#63b8ff" d="M576.32,-283.32C608,-272.15 653.16,-256.23 681.24,-246.33"/>
<polygon fill="#63b8ff" stroke="#63b8ff" points="575.42,-279.93 567.16,-286.55 577.75,-286.53 575.42,-279.93"/>
</a>
</g>
</g>
<!-- Node14&#45;&gt;Node6 -->
<g id="edge28_Node000014_Node000006" class="edge">
<title>Node14&#45;&gt;Node6</title>
<g id="a_edge28_Node000014_Node000006"><a xlink:title=" ">
<path fill="none" stroke="#63b8ff" d="M568.95,-281.01C579.83,-273.68 591.02,-263.78 597,-251.5 602.94,-239.31 601.51,-233.78 597,-221 591.96,-206.73 580.22,-193.68 571.5,-185.42"/>
<polygon fill="#63b8ff" stroke="#63b8ff" points="567.17,-277.99 560.48,-286.21 570.83,-283.96 567.17,-277.99"/>
</a>
</g>
</g>
<!-- Node14&#45;&gt;Node10 -->
<g id="edge29_Node000014_Node000010" class="edge">
<title>Node14&#45;&gt;Node10</title>
<g id="a_edge29_Node000014_Node000010"><a xlink:title=" ">
<path fill="none" stroke="#63b8ff" d="M494.08,-282.81C478.94,-276 463.76,-265.99 455,-251.5 447.99,-239.9 452.77,-234.37 455,-221 459.28,-195.39 456.99,-185.37 474,-165.75 488.9,-148.56 512.04,-137.14 530.71,-130.16"/>
<polygon fill="#63b8ff" stroke="#63b8ff" points="492.49,-285.95 503.07,-286.47 495.12,-279.46 492.49,-285.95"/>
</a>
</g>
</g>
<!-- Node15 -->
<g id="Node000015" class="node">
<title>Node15</title>
<g id="a_Node000015"><a xlink:href="../../db/d70/_control_policies_8hpp.html" target="_top" xlink:title=" ">
<polygon fill="white" stroke="#666666" points="588,-251.5 464,-251.5 464,-221 588,-221 588,-251.5"/>
<text text-anchor="start" x="472" y="-238" font-family="Helvetica,sans-Serif" font-size="10.00">mimic++/policies/Control</text>
<text text-anchor="middle" x="526" y="-226.75" font-family="Helvetica,sans-Serif" font-size="10.00">Policies.hpp</text>
</a>
</g>
</g>
<!-- Node14&#45;&gt;Node15 -->
<g id="edge31_Node000014_Node000015" class="edge">
<title>Node14&#45;&gt;Node15</title>
<g id="a_edge31_Node000014_Node000015"><a xlink:title=" ">
<path fill="none" stroke="#63b8ff" d="M535.26,-276.2C533.36,-268.2 531.21,-259.15 529.46,-251.78"/>
<polygon fill="#63b8ff" stroke="#63b8ff" points="531.81,-276.79 537.52,-285.71 538.62,-275.17 531.81,-276.79"/>
</a>
</g>
</g>
<!-- Node15&#45;&gt;Node3 -->
<g id="edge33_Node000015_Node000003" class="edge">
<title>Node15&#45;&gt;Node3</title>
<g id="a_edge33_Node000015_Node000003"><a xlink:title=" ">
<path fill="none" stroke="#63b8ff" d="M496.68,-213.28C488.04,-205.32 479.45,-195.64 474,-185 458.82,-155.36 463.61,-143.72 466,-110.5 467.78,-85.75 461.84,-76.88 474,-55.25 482.7,-39.77 499.04,-27.43 511.48,-19.69"/>
<polygon fill="#63b8ff" stroke="#63b8ff" points="494.22,-215.78 504.08,-219.65 498.79,-210.48 494.22,-215.78"/>
</a>
</g>
</g>
<!-- Node15&#45;&gt;Node6 -->
<g id="edge32_Node000015_Node000006" class="edge">
<title>Node15&#45;&gt;Node6</title>
<g id="a_edge32_Node000015_Node000006"><a xlink:title=" ">
<path fill="none" stroke="#63b8ff" d="M540.42,-210.99C545.79,-201.97 551.55,-192.28 555.6,-185.45"/>
<polygon fill="#63b8ff" stroke="#63b8ff" points="537.53,-209.01 535.43,-219.4 543.54,-212.59 537.53,-209.01"/>
</a>
</g>
</g>
<!-- Node16&#45;&gt;Node2 -->
<g id="edge36_Node000016_Node000002" class="edge">
<title>Node16&#45;&gt;Node2</title>
<g id="a_edge36_Node000016_Node000002"><a xlink:title=" ">
<path fill="none" stroke="#63b8ff" d="M246.24,-470.7C231.52,-463.43 217.93,-453.44 209,-439.75 174.57,-386.94 263.44,-329.06 302.08,-307.18"/>
<polygon fill="#63b8ff" stroke="#63b8ff" points="244.63,-473.82 255.18,-474.7 247.48,-467.43 244.63,-473.82"/>
</a>
</g>
</g>
<!-- Node16&#45;&gt;Node11 -->
<g id="edge37_Node000016_Node000011" class="edge">
<title>Node16&#45;&gt;Node11</title>
<g id="a_edge37_Node000016_Node000011"><a xlink:title=" ">
<path fill="none" stroke="#63b8ff" d="M316.66,-464.43C314.01,-453.76 311.11,-442.08 309.19,-434.32"/>
<polygon fill="#63b8ff" stroke="#63b8ff" points="313.2,-465.03 319,-473.89 319.99,-463.35 313.2,-465.03"/>
</a>
</g>
</g>
<!-- Node16&#45;&gt;Node12 -->
<g id="edge38_Node000016_Node000012" class="edge">
<title>Node16&#45;&gt;Node12</title>
<g id="a_edge38_Node000016_Node000012"><a xlink:title=" ">
<path fill="none" stroke="#63b8ff" d="M377.48,-471.79C407.39,-461.8 443.98,-449.57 472.04,-440.19"/>
<polygon fill="#63b8ff" stroke="#63b8ff" points="376.61,-468.39 368.23,-474.88 378.82,-475.03 376.61,-468.39"/>
</a>
</g>
</g>
<!-- Node17&#45;&gt;Node2 -->
<g id="edge46_Node000017_Node000002" class="edge">
<title>Node17&#45;&gt;Node2</title>
<g id="a_edge46_Node000017_Node000002"><a xlink:title=" ">
<path fill="none" stroke="#63b8ff" d="M685.5,-665.6C668.75,-640.32 646,-598.61 646,-558.5 646,-558.5 646,-558.5 646,-423.5 646,-386.42 652.62,-367.5 625,-342.75 606.91,-326.54 461.43,-310.94 377.74,-303.2"/>
<polygon fill="#63b8ff" stroke="#63b8ff" points="682.6,-667.57 691.15,-673.82 688.37,-663.6 682.6,-667.57"/>
</a>
</g>
</g>
<!-- Node17&#45;&gt;Node4 -->
<g id="edge47_Node000017_Node000004" class="edge">
<title>Node17&#45;&gt;Node4</title>
<g id="a_edge47_Node000017_Node000004"><a xlink:title=" ">
<path fill="none" stroke="#63b8ff" d="M628.74,-675.79C580.66,-666.5 516.84,-653.37 461,-639.25 371.35,-616.58 266.91,-583.37 218.38,-567.54"/>
<polygon fill="#63b8ff" stroke="#63b8ff" points="628.02,-679.22 638.5,-677.67 629.34,-672.34 628.02,-679.22"/>
</a>
</g>
</g>
<!-- Node17&#45;&gt;Node5 -->
<g id="edge43_Node000017_Node000005" class="edge">
<title>Node17&#45;&gt;Node5</title>
<g id="a_edge43_Node000017_Node000005"><a xlink:title=" ">
<path fill="none" stroke="#63b8ff" d="M720.5,-665.6C737.25,-640.32 760,-598.61 760,-558.5 760,-558.5 760,-558.5 760,-357 760,-312.21 728.61,-265.44 714.15,-246.26"/>
<polygon fill="#63b8ff" stroke="#63b8ff" points="717.63,-663.6 714.85,-673.82 723.4,-667.57 717.63,-663.6"/>
</a>
</g>
</g>
<!-- Node17&#45;&gt;Node6 -->
<g id="edge44_Node000017_Node000006" class="edge">
<title>Node17&#45;&gt;Node6</title>
<g id="a_edge44_Node000017_Node000006"><a xlink:title=" ">
<path fill="none" stroke="#63b8ff" d="M731.8,-668.08C759.76,-644.59 798,-604.13 798,-558.5 798,-558.5 798,-558.5 798,-296.12 798,-261.68 803.9,-244.79 779,-221 758.99,-201.89 693.12,-190.19 638.97,-183.6"/>
<polygon fill="#63b8ff" stroke="#63b8ff" points="729.89,-665.12 724.32,-674.14 734.3,-670.56 729.89,-665.12"/>
</a>
</g>
</g>
<!-- Node17&#45;&gt;Node7 -->
<g id="edge45_Node000017_Node000007" class="edge">
<title>Node17&#45;&gt;Node7</title>
<g id="a_edge45_Node000017_Node000007"><a xlink:title=" ">
<path fill="none" stroke="#63b8ff" d="M745.95,-669.45C784.82,-647.99 836,-609.97 836,-558.5 836,-558.5 836,-558.5 836,-235.25 836,-186.43 784.23,-146.93 757.94,-130.02"/>
<polygon fill="#63b8ff" stroke="#63b8ff" points="744.4,-666.31 737.21,-674.09 747.69,-672.49 744.4,-666.31"/>
</a>
</g>
</g>
<!-- Node18 -->
<g id="Node000018" class="node">
<title>Node18</title>
<g id="a_Node000018"><a xlink:href="../../d7/ded/_call_convention_8hpp.html" target="_top" xlink:title=" ">
<polygon fill="white" stroke="#666666" points="1006.25,-500.62 865.75,-500.62 865.75,-481.38 1006.25,-481.38 1006.25,-500.62"/>
<text text-anchor="middle" x="936" y="-487.12" font-family="Helvetica,sans-Serif" font-size="10.00">mimic++/CallConvention.hpp</text>
</a>
</g>
</g>
<!-- Node17&#45;&gt;Node18 -->
<g id="edge41_Node000017_Node000018" class="edge">
<title>Node17&#45;&gt;Node18</title>
<g id="a_edge41_Node000017_Node000018"><a xlink:title=" ">
<path fill="none" stroke="#63b8ff" d="M777.18,-675.23C802.27,-667.67 829.18,-656.29 850,-639.25 897.89,-600.07 924.9,-526.72 933.21,-501.11"/>
<polygon fill="#63b8ff" stroke="#63b8ff" points="776.31,-671.84 767.64,-677.93 778.21,-678.58 776.31,-671.84"/>
</a>
</g>
</g>
<!-- Node19 -->
<g id="Node000019" class="node">
<title>Node19</title>
<g id="a_Node000019"><a xlink:href="../../dd/d76/_expectation_report_8hpp.html" target="_top" xlink:title=" ">
<polygon fill="white" stroke="#666666" points="618,-639.25 470,-639.25 470,-608.75 618,-608.75 618,-639.25"/>
<text text-anchor="start" x="478" y="-625.75" font-family="Helvetica,sans-Serif" font-size="10.00">mimic++/reporting/Expectation</text>
<text text-anchor="middle" x="544" y="-614.5" font-family="Helvetica,sans-Serif" font-size="10.00">Report.hpp</text>
</a>
</g>
</g>
<!-- Node17&#45;&gt;Node19 -->
<g id="edge48_Node000017_Node000019" class="edge">
<title>Node17&#45;&gt;Node19</title>
<g id="a_edge48_Node000017_Node000019"><a xlink:title=" ">
<path fill="none" stroke="#63b8ff" d="M656.49,-670.63C632.16,-660.76 602.83,-648.86 580.21,-639.69"/>
<polygon fill="#63b8ff" stroke="#63b8ff" points="654.94,-673.78 665.52,-674.29 657.57,-667.29 654.94,-673.78"/>
</a>
</g>
</g>
<!-- Node18&#45;&gt;Node3 -->
<g id="edge42_Node000018_Node000003" class="edge">
<title>Node18&#45;&gt;Node3</title>
<g id="a_edge42_Node000018_Node000003"><a xlink:title=" ">
<path fill="none" stroke="#63b8ff" d="M936.25,-469.94C936.54,-444.24 937,-398.3 937,-359 937,-359 937,-359 937,-119.12 937,-89.51 940.7,-74.28 918,-55.25 868.85,-14.03 681.09,-9.3 585.16,-9.69"/>
<polygon fill="#63b8ff" stroke="#63b8ff" points="932.75,-469.55 936.13,-479.59 939.75,-469.63 932.75,-469.55"/>
</a>
</g>
</g>
<!-- Node19&#45;&gt;Node2 -->
<g id="edge50_Node000019_Node000002" class="edge">
<title>Node19&#45;&gt;Node2</title>
<g id="a_edge50_Node000019_Node000002"><a xlink:title=" ">
<path fill="none" stroke="#63b8ff" d="M458.02,-620.98C347.07,-617.06 161.26,-605.66 102,-572.75 61.96,-550.52 38,-537.79 38,-492 38,-492 38,-492 38,-423.5 38,-326.94 178.08,-304.23 260.44,-299.23"/>
<polygon fill="#63b8ff" stroke="#63b8ff" points="457.88,-624.48 467.99,-621.32 458.12,-617.48 457.88,-624.48"/>
</a>
</g>
</g>
<!-- Node19&#45;&gt;Node5 -->
<g id="edge49_Node000019_Node000005" class="edge">
<title>Node19&#45;&gt;Node5</title>
<g id="a_edge49_Node000019_Node000005"><a xlink:title=" ">
<path fill="none" stroke="#63b8ff" d="M608.56,-604.47C659.49,-585.43 722,-550.21 722,-492 722,-492 722,-492 722,-357 722,-315.3 712.94,-266.07 708.9,-246.22"/>
<polygon fill="#63b8ff" stroke="#63b8ff" points="607.55,-601.12 599.31,-607.78 609.91,-607.71 607.55,-601.12"/>
</a>
</g>
</g>
<!-- Node19&#45;&gt;Node11 -->
<g id="edge52_Node000019_Node000011" class="edge">
<title>Node19&#45;&gt;Node11</title>
<g id="a_edge52_Node000019_Node000011"><a xlink:title=" ">
<path fill="none" stroke="#63b8ff" d="M458.9,-613.26C434.3,-606.04 410.05,-593.71 395,-572.75 369.84,-537.72 419.92,-512.9 398,-475.75 385.62,-454.77 360.99,-441.94 340.47,-434.5"/>
<polygon fill="#63b8ff" stroke="#63b8ff" points="457.79,-616.59 468.35,-615.75 459.57,-609.82 457.79,-616.59"/>
</a>
</g>
</g>
<!-- Node19&#45;&gt;Node12 -->
<g id="edge53_Node000019_Node000012" class="edge">
<title>Node19&#45;&gt;Node12</title>
<g id="a_edge53_Node000019_Node000012"><a xlink:title=" ">
<path fill="none" stroke="#63b8ff" d="M548.26,-597.42C549.39,-589.53 550.44,-580.8 551,-572.75 551.94,-559.23 552.97,-555.66 551,-542.25 545.44,-504.36 530.25,-461.68 521.82,-439.93"/>
<polygon fill="#63b8ff" stroke="#63b8ff" points="544.84,-596.63 546.78,-607.05 551.76,-597.69 544.84,-596.63"/>
</a>
</g>
</g>
<!-- Node19&#45;&gt;Node13 -->
<g id="edge54_Node000019_Node000013" class="edge">
<title>Node19&#45;&gt;Node13</title>
<g id="a_edge54_Node000019_Node000013"><a xlink:title=" ">
<path fill="none" stroke="#63b8ff" d="M557.38,-598.27C577.37,-558.01 610.47,-476.08 589,-409.25 584.67,-395.76 575.23,-382.82 567.11,-373.45"/>
<polygon fill="#63b8ff" stroke="#63b8ff" points="554.29,-596.63 552.84,-607.13 560.52,-599.83 554.29,-596.63"/>
</a>
</g>
</g>
<!-- Node19&#45;&gt;Node15 -->
<g id="edge51_Node000019_Node000015" class="edge">
<title>Node19&#45;&gt;Node15</title>
<g id="a_edge51_Node000019_Node000015"><a xlink:title=" ">
<path fill="none" stroke="#63b8ff" d="M589.76,-603.27C630.6,-582.22 684,-544.63 684,-492 684,-492 684,-492 684,-423.5 684,-354.26 661.72,-331.19 608,-287.5 591.16,-273.81 570.28,-261.06 553.8,-251.83"/>
<polygon fill="#63b8ff" stroke="#63b8ff" points="588.45,-600.01 581.05,-607.59 591.56,-606.28 588.45,-600.01"/>
</a>
</g>
</g>
<!-- Node19&#45;&gt;Node16 -->
<g id="edge60_Node000019_Node000016" class="edge">
<title>Node19&#45;&gt;Node16</title>
<g id="a_edge60_Node000019_Node000016"><a xlink:title=" ">
<path fill="none" stroke="#63b8ff" d="M458.52,-614.65C425.4,-607.76 389.03,-595.29 362,-572.75 341.32,-555.5 330.78,-524.69 326.12,-506.52"/>
<polygon fill="#63b8ff" stroke="#63b8ff" points="457.64,-618.04 468.12,-616.49 458.96,-611.17 457.64,-618.04"/>
</a>
</g>
</g>
<!-- Node20 -->
<g id="Node000020" class="node">
<title>Node20</title>
<g id="a_Node000020"><a xlink:href="../../de/d3f/_no_match_report_8hpp.html" target="_top" xlink:title=" ">
<polygon fill="white" stroke="#666666" points="541.75,-572.75 404.25,-572.75 404.25,-542.25 541.75,-542.25 541.75,-572.75"/>
<text text-anchor="start" x="412.25" y="-559.25" font-family="Helvetica,sans-Serif" font-size="10.00">mimic++/reporting/NoMatch</text>
<text text-anchor="middle" x="473" y="-548" font-family="Helvetica,sans-Serif" font-size="10.00">Report.hpp</text>
</a>
</g>
</g>
<!-- Node19&#45;&gt;Node20 -->
<g id="edge55_Node000019_Node000020" class="edge">
<title>Node19&#45;&gt;Node20</title>
<g id="a_edge55_Node000019_Node000020"><a xlink:title=" ">
<path fill="none" stroke="#63b8ff" d="M519.47,-600.71C509.4,-591.57 498.02,-581.23 489.05,-573.08"/>
<polygon fill="#63b8ff" stroke="#63b8ff" points="517.01,-603.21 526.77,-607.35 521.72,-598.03 517.01,-603.21"/>
</a>
</g>
</g>
<!-- Node20&#45;&gt;Node2 -->
<g id="edge56_Node000020_Node000002" class="edge">
<title>Node20&#45;&gt;Node2</title>
<g id="a_edge56_Node000020_Node000002"><a xlink:title=" ">
<path fill="none" stroke="#63b8ff" d="M470.94,-530.49C468.91,-514.19 464.89,-493.05 457,-475.75 423.44,-402.21 353.93,-331.46 328.54,-307.07"/>
<polygon fill="#63b8ff" stroke="#63b8ff" points="467.45,-530.8 471.98,-540.37 474.41,-530.06 467.45,-530.8"/>
</a>
</g>
</g>
<!-- Node20&#45;&gt;Node11 -->
<g id="edge57_Node000020_Node000011" class="edge">
<title>Node20&#45;&gt;Node11</title>
<g id="a_edge57_Node000020_Node000011"><a xlink:title=" ">
<path fill="none" stroke="#63b8ff" d="M465.52,-531.36C459.14,-513.73 448.36,-490.73 432,-475.75 409.06,-454.74 376.22,-442 349.95,-434.6"/>
<polygon fill="#63b8ff" stroke="#63b8ff" points="462.12,-532.22 468.61,-540.59 468.76,-529.99 462.12,-532.22"/>
</a>
</g>
</g>
<!-- Node20&#45;&gt;Node12 -->
<g id="edge58_Node000020_Node000012" class="edge">
<title>Node20&#45;&gt;Node12</title>
<g id="a_edge58_Node000020_Node000012"><a xlink:title=" ">
<path fill="none" stroke="#63b8ff" d="M493.18,-532.82C498.92,-524.86 504.55,-515.61 508,-506.25 516.15,-484.18 517.07,-456.54 516.73,-439.99"/>
<polygon fill="#63b8ff" stroke="#63b8ff" points="490.51,-530.56 487.18,-540.62 496.05,-534.83 490.51,-530.56"/>
</a>
</g>
</g>
<!-- Node20&#45;&gt;Node16 -->
<g id="edge59_Node000020_Node000016" class="edge">
<title>Node20&#45;&gt;Node16</title>
<g id="a_edge59_Node000020_Node000016"><a xlink:title=" ">
<path fill="none" stroke="#63b8ff" d="M428.5,-537.37C405.67,-527.55 378.3,-515.78 357.16,-506.69"/>
<polygon fill="#63b8ff" stroke="#63b8ff" points="427,-540.53 437.57,-541.27 429.77,-534.1 427,-540.53"/>
</a>
</g>
</g>
</g>
</svg>
