<?xml version="1.0" encoding="UTF-8" standalone="no"?>
<!DOCTYPE svg PUBLIC "-//W3C//DTD SVG 1.1//EN"
 "http://www.w3.org/Graphics/SVG/1.1/DTD/svg11.dtd">
<!-- Generated by graphviz version 12.2.1 (20241206.2353)
 -->
<!-- Title: mimic++/policies/GeneralPolicies.hpp Pages: 1 -->
<!--zoomable 315 -->

<svg id="main" version="1.1" xmlns="http://www.w3.org/2000/svg" xmlns:xlink="http://www.w3.org/1999/xlink" xml:space="preserve" onload="init(evt)">

<style type="text/css"><![CDATA[
.node, .edge {opacity: 0.7;}
.node.selected, .edge.selected {opacity: 1;}
.edge:hover path { stroke: red; }
.edge:hover polygon { stroke: red; fill: red; }
]]></style>

<defs>
  <circle id="rim" cx="0" cy="0" r="7"/>
  <circle id="rim2" cx="0" cy="0" r="3.5"/>
  <g id="zoomPlus">
    <use xlink:href="#rim" fill="#404040"><set attributeName="fill" to="#808080" begin="zoomplus.mouseover" end="zoomplus.mouseout"/></use>
    <path d="M-4,0h8M0,-4v8" fill="none" stroke="white" stroke-width="1.5" pointer-events="none"/>
  </g>
  <g id="zoomMin">
    <use xlink:href="#rim" fill="#404040"><set attributeName="fill" to="#808080" begin="zoomminus.mouseover" end="zoomminus.mouseout"/></use>
    <path d="M-4,0h8" fill="none" stroke="white" stroke-width="1.5" pointer-events="none"/>
  </g>
  <g id="arrowUp" transform="translate(30 24)">
    <use xlink:href="#rim"/>
    <path pointer-events="none" fill="none" stroke="white" stroke-width="1.5" d="M0,-3.0v7 M-2.5,-0.5L0,-3.0L2.5,-0.5"/>
  </g>
  <g id="arrowRight" transform="rotate(90) translate(36 -43)">
    <use xlink:href="#rim"/>
    <path pointer-events="none" fill="none" stroke="white" stroke-width="1.5" d="M0,-3.0v7 M-2.5,-0.5L0,-3.0L2.5,-0.5"/>
  </g>
  <g id="arrowDown" transform="rotate(180) translate(-30 -48)">
    <use xlink:href="#rim"/>
    <path pointer-events="none" fill="none" stroke="white" stroke-width="1.5" d="M0,-3.0v7 M-2.5,-0.5L0,-3.0L2.5,-0.5"/>
  </g>
  <g id="arrowLeft" transform="rotate(270) translate(-36 17)">
    <use xlink:href="#rim"/>
    <path pointer-events="none" fill="none" stroke="white" stroke-width="1.5" d="M0,-3.0v7 M-2.5,-0.5L0,-3.0L2.5,-0.5"/>
  </g>
  <g id="resetDef">
    <use xlink:href="#rim2" fill="#404040"><set attributeName="fill" to="#808080" begin="reset.mouseover" end="reset.mouseout"/></use>
  </g>
</defs>
<script type="application/ecmascript">
var viewWidth = 1000;
var viewHeight = 315;
var sectionId = 'dynsection-0';
</script>
<script type="application/ecmascript" xlink:href="../../svg.min.js"/>
<svg id="graph" class="graph">
<g id="viewport">
<title>mimic++/policies/GeneralPolicies.hpp</title>
<!-- Node1 -->
<g id="Node000001" class="node">
<title>Node1</title>
<g id="a_Node000001"><a xlink:title=" ">
<polygon fill="#999999" stroke="#666666" points="762.19,-306.75 635.19,-306.75 635.19,-276.25 762.19,-276.25 762.19,-306.75"/>
<text text-anchor="start" x="643.19" y="-293.25" font-family="Helvetica,sans-Serif" font-size="10.00">mimic++/policies/General</text>
<text text-anchor="middle" x="698.69" y="-282" font-family="Helvetica,sans-Serif" font-size="10.00">Policies.hpp</text>
</a>
</g>
</g>
<!-- Node2 -->
<g id="Node000002" class="node">
<title>Node2</title>
<g id="a_Node000002"><a xlink:href="../../df/dde/_fwd_8hpp.html" target="_top" xlink:title=" ">
<polygon fill="white" stroke="#666666" points="245.69,-74.5 151.69,-74.5 151.69,-55.25 245.69,-55.25 245.69,-74.5"/>
<text text-anchor="middle" x="198.69" y="-61" font-family="Helvetica,sans-Serif" font-size="10.00">mimic++/Fwd.hpp</text>
</a>
</g>
</g>
<!-- Node1&#45;&gt;Node2 -->
<g id="edge1_Node000001_Node000002" class="edge">
<title>Node1&#45;&gt;Node2</title>
<g id="a_edge1_Node000001_Node000002"><a xlink:title=" ">
<path fill="none" stroke="#63b8ff" d="M634.69,-290.74C480.15,-289.84 93.42,-278.11 13.69,-185 4.48,-174.25 -10.24,-141.61 14.69,-110.5 30.34,-90.97 92.48,-78.88 140.26,-72.3"/>
<polygon fill="#63b8ff" stroke="#63b8ff" points="140.49,-75.8 149.95,-71.01 139.58,-68.86 140.49,-75.8"/>
</a>
</g>
</g>
<!-- Node5 -->
<g id="Node000005" class="node">
<title>Node5</title>
<g id="a_Node000005"><a xlink:href="../../da/dab/_printer_8hpp.html" target="_top" xlink:title=" ">
<polygon fill="white" stroke="#666666" points="481.56,-240.25 377.81,-240.25 377.81,-221 481.56,-221 481.56,-240.25"/>
<text text-anchor="middle" x="429.69" y="-226.75" font-family="Helvetica,sans-Serif" font-size="10.00">mimic++/Printer.hpp</text>
</a>
</g>
</g>
<!-- Node1&#45;&gt;Node5 -->
<g id="edge4_Node000001_Node000005" class="edge">
<title>Node1&#45;&gt;Node5</title>
<g id="a_edge4_Node000001_Node000005"><a xlink:title=" ">
<path fill="none" stroke="#63b8ff" d="M634.94,-276.55C588.34,-266.35 525.91,-252.69 482.19,-243.12"/>
<polygon fill="#63b8ff" stroke="#63b8ff" points="483.21,-239.76 472.69,-241.04 481.71,-246.6 483.21,-239.76"/>
</a>
</g>
</g>
<!-- Node7 -->
<g id="Node000007" class="node">
<title>Node7</title>
<g id="a_Node000007"><a xlink:href="../../d4/d2c/_utility_8hpp.html" target="_top" xlink:title=" ">
<polygon fill="white" stroke="#666666" points="863.69,-129.75 763.69,-129.75 763.69,-110.5 863.69,-110.5 863.69,-129.75"/>
<text text-anchor="middle" x="813.69" y="-116.25" font-family="Helvetica,sans-Serif" font-size="10.00">mimic++/Utility.hpp</text>
</a>
</g>
</g>
<!-- Node1&#45;&gt;Node7 -->
<g id="edge41_Node000001_Node000007" class="edge">
<title>Node1&#45;&gt;Node7</title>
<g id="a_edge41_Node000001_Node000007"><a xlink:title=" ">
<path fill="none" stroke="#63b8ff" d="M710.33,-275.85C726.07,-255.81 754.69,-218.52 776.69,-185 786.37,-170.25 796.34,-152.89 803.48,-140"/>
<polygon fill="#63b8ff" stroke="#63b8ff" points="806.5,-141.77 808.23,-131.32 800.36,-138.41 806.5,-141.77"/>
</a>
</g>
</g>
<!-- Node9 -->
<g id="Node000009" class="node">
<title>Node9</title>
<g id="a_Node000009"><a xlink:title=" ">
<polygon fill="#e0e0e0" stroke="#999999" points="991.81,-74.5 943.56,-74.5 943.56,-55.25 991.81,-55.25 991.81,-74.5"/>
<text text-anchor="middle" x="967.69" y="-61" font-family="Helvetica,sans-Serif" font-size="10.00">cassert</text>
</a>
</g>
</g>
<!-- Node1&#45;&gt;Node9 -->
<g id="edge42_Node000001_Node000009" class="edge">
<title>Node1&#45;&gt;Node9</title>
<g id="a_edge42_Node000001_Node000009"><a xlink:title=" ">
<path fill="none" stroke="#63b8ff" d="M716.81,-275.79C751.4,-247.66 829.13,-184.21 893.69,-129.75 912.81,-113.62 934.44,-94.89 949.36,-81.9"/>
<polygon fill="#63b8ff" stroke="#63b8ff" points="951.32,-84.83 956.55,-75.62 946.72,-79.56 951.32,-84.83"/>
</a>
</g>
</g>
<!-- Node3 -->
<g id="Node000003" class="node">
<title>Node3</title>
<g id="a_Node000003"><a xlink:title=" ">
<polygon fill="#e0e0e0" stroke="#999999" points="143.69,-19.25 103.69,-19.25 103.69,0 143.69,0 143.69,-19.25"/>
<text text-anchor="middle" x="123.69" y="-5.75" font-family="Helvetica,sans-Serif" font-size="10.00">string</text>
</a>
</g>
</g>
<!-- Node2&#45;&gt;Node3 -->
<g id="edge2_Node000002_Node000003" class="edge">
<title>Node2&#45;&gt;Node3</title>
<g id="a_edge2_Node000002_Node000003"><a xlink:title=" ">
<path fill="none" stroke="#63b8ff" d="M185.96,-54.84C174.97,-47.04 158.84,-35.59 145.75,-26.29"/>
<polygon fill="#63b8ff" stroke="#63b8ff" points="147.88,-23.51 137.7,-20.58 143.83,-29.22 147.88,-23.51"/>
</a>
</g>
</g>
<!-- Node4 -->
<g id="Node000004" class="node">
<title>Node4</title>
<g id="a_Node000004"><a xlink:title=" ">
<polygon fill="#e0e0e0" stroke="#999999" points="473.44,-19.25 407.94,-19.25 407.94,0 473.44,0 473.44,-19.25"/>
<text text-anchor="middle" x="440.69" y="-5.75" font-family="Helvetica,sans-Serif" font-size="10.00">string_view</text>
</a>
</g>
</g>
<!-- Node2&#45;&gt;Node4 -->
<g id="edge3_Node000002_Node000004" class="edge">
<title>Node2&#45;&gt;Node4</title>
<g id="a_edge3_Node000002_Node000004"><a xlink:title=" ">
<path fill="none" stroke="#63b8ff" d="M240.01,-54.78C283.6,-45.19 352.02,-30.13 396.62,-20.32"/>
<polygon fill="#63b8ff" stroke="#63b8ff" points="397.2,-23.78 406.21,-18.21 395.7,-16.94 397.2,-23.78"/>
</a>
</g>
</g>
<!-- Node5&#45;&gt;Node2 -->
<g id="edge5_Node000005_Node000002" class="edge">
<title>Node5&#45;&gt;Node2</title>
<g id="a_edge5_Node000005_Node000002"><a xlink:title=" ">
<path fill="none" stroke="#63b8ff" d="M377.43,-227.61C274.29,-223.09 52.48,-210.48 29.69,-185 7.61,-160.32 9.48,-136.73 29.69,-110.5 43.28,-92.84 96.91,-80.76 140.15,-73.66"/>
<polygon fill="#63b8ff" stroke="#63b8ff" points="140.63,-77.13 149.97,-72.12 139.54,-70.22 140.63,-77.13"/>
</a>
</g>
</g>
<!-- Node5&#45;&gt;Node3 -->
<g id="edge37_Node000005_Node000003" class="edge">
<title>Node5&#45;&gt;Node3</title>
<g id="a_edge37_Node000005_Node000003"><a xlink:title=" ">
<path fill="none" stroke="#63b8ff" d="M377.39,-227.85C271.05,-223.69 37.59,-211.61 13.69,-185 -33.24,-132.77 56.34,-58.2 100.77,-26.19"/>
<polygon fill="#63b8ff" stroke="#63b8ff" points="102.61,-29.18 108.77,-20.56 98.58,-23.46 102.61,-29.18"/>
</a>
</g>
</g>
<!-- Node5&#45;&gt;Node4 -->
<g id="edge38_Node000005_Node000004" class="edge">
<title>Node5&#45;&gt;Node4</title>
<g id="a_edge38_Node000005_Node000004"><a xlink:title=" ">
<path fill="none" stroke="#63b8ff" d="M481.97,-223.97C537.81,-217.06 621.79,-203.91 647.69,-185 670.43,-168.4 671.56,-156.99 678.69,-129.75 680.85,-121.47 683.42,-117.62 678.69,-110.5 656.28,-76.79 546.97,-40.92 484.58,-22.73"/>
<polygon fill="#63b8ff" stroke="#63b8ff" points="485.91,-19.47 475.33,-20.06 483.97,-26.2 485.91,-19.47"/>
</a>
</g>
</g>
<!-- Node6 -->
<g id="Node000006" class="node">
<title>Node6</title>
<g id="a_Node000006"><a xlink:href="../../d9/dc5/_string_8hpp.html" target="_top" xlink:title=" ">
<polygon fill="white" stroke="#666666" points="441.06,-185 340.31,-185 340.31,-165.75 441.06,-165.75 441.06,-185"/>
<text text-anchor="middle" x="390.69" y="-171.5" font-family="Helvetica,sans-Serif" font-size="10.00">mimic++/String.hpp</text>
</a>
</g>
</g>
<!-- Node5&#45;&gt;Node6 -->
<g id="edge6_Node000005_Node000006" class="edge">
<title>Node5&#45;&gt;Node6</title>
<g id="a_edge6_Node000005_Node000006"><a xlink:title=" ">
<path fill="none" stroke="#63b8ff" d="M423.25,-220.83C418.03,-213.71 410.5,-203.43 403.99,-194.55"/>
<polygon fill="#63b8ff" stroke="#63b8ff" points="406.89,-192.58 398.16,-186.58 401.24,-196.72 406.89,-192.58"/>
</a>
</g>
</g>
<!-- Node5&#45;&gt;Node7 -->
<g id="edge29_Node000005_Node000007" class="edge">
<title>Node5&#45;&gt;Node7</title>
<g id="a_edge29_Node000005_Node000007"><a xlink:title=" ">
<path fill="none" stroke="#63b8ff" d="M482.02,-226.36C560.35,-220.8 703.79,-207.82 749.69,-185 771.13,-174.33 789.75,-153.69 801.29,-138.75"/>
<polygon fill="#63b8ff" stroke="#63b8ff" points="803.79,-141.27 806.91,-131.14 798.16,-137.11 803.79,-141.27"/>
</a>
</g>
</g>
<!-- Node10 -->
<g id="Node000010" class="node">
<title>Node10</title>
<g id="a_Node000010"><a xlink:title=" ">
<polygon fill="#e0e0e0" stroke="#999999" points="775.81,-74.5 691.56,-74.5 691.56,-55.25 775.81,-55.25 775.81,-74.5"/>
<text text-anchor="middle" x="733.69" y="-61" font-family="Helvetica,sans-Serif" font-size="10.00">source_location</text>
</a>
</g>
</g>
<!-- Node5&#45;&gt;Node10 -->
<g id="edge35_Node000005_Node000010" class="edge">
<title>Node5&#45;&gt;Node10</title>
<g id="a_edge35_Node000005_Node000010"><a xlink:title=" ">
<path fill="none" stroke="#63b8ff" d="M481.95,-228.36C554.35,-225.47 679.87,-216.01 711.69,-185 738.09,-159.27 738.65,-112.91 736.38,-86.25"/>
<polygon fill="#63b8ff" stroke="#63b8ff" points="739.87,-85.98 735.3,-76.42 732.91,-86.74 739.87,-85.98"/>
</a>
</g>
</g>
<!-- Node12 -->
<g id="Node000012" class="node">
<title>Node12</title>
<g id="a_Node000012"><a xlink:title=" ">
<polygon fill="#e0e0e0" stroke="#999999" points="925.94,-74.5 887.44,-74.5 887.44,-55.25 925.94,-55.25 925.94,-74.5"/>
<text text-anchor="middle" x="906.69" y="-61" font-family="Helvetica,sans-Serif" font-size="10.00">utility</text>
</a>
</g>
</g>
<!-- Node5&#45;&gt;Node12 -->
<g id="edge39_Node000005_Node000012" class="edge">
<title>Node5&#45;&gt;Node12</title>
<g id="a_edge39_Node000005_Node000012"><a xlink:title=" ">
<path fill="none" stroke="#63b8ff" d="M481.96,-229.24C551.15,-227.31 676.1,-218.9 776.69,-185 823.34,-169.28 838.46,-165.13 872.69,-129.75 884.98,-117.04 894.03,-99 899.69,-85.33"/>
<polygon fill="#63b8ff" stroke="#63b8ff" points="902.92,-86.68 903.25,-76.09 896.39,-84.17 902.92,-86.68"/>
</a>
</g>
</g>
<!-- Node14 -->
<g id="Node000014" class="node">
<title>Node14</title>
<g id="a_Node000014"><a xlink:title=" ">
<polygon fill="#e0e0e0" stroke="#999999" points="96.69,-129.75 38.69,-129.75 38.69,-110.5 96.69,-110.5 96.69,-129.75"/>
<text text-anchor="middle" x="67.69" y="-116.25" font-family="Helvetica,sans-Serif" font-size="10.00">functional</text>
</a>
</g>
</g>
<!-- Node5&#45;&gt;Node14 -->
<g id="edge31_Node000005_Node000014" class="edge">
<title>Node5&#45;&gt;Node14</title>
<g id="a_edge31_Node000005_Node000014"><a xlink:title=" ">
<path fill="none" stroke="#63b8ff" d="M409.3,-220.64C389.4,-211.8 358.31,-197.8 331.69,-185 314.62,-176.8 311.59,-171.91 293.69,-165.75 215.31,-138.77 191.99,-145.9 110.69,-129.75 109.7,-129.56 108.71,-129.36 107.71,-129.16"/>
<polygon fill="#63b8ff" stroke="#63b8ff" points="108.8,-125.81 98.31,-127.28 107.43,-132.67 108.8,-125.81"/>
</a>
</g>
</g>
<!-- Node15 -->
<g id="Node000015" class="node">
<title>Node15</title>
<g id="a_Node000015"><a xlink:title=" ">
<polygon fill="#e0e0e0" stroke="#999999" points="310.31,-129.75 265.06,-129.75 265.06,-110.5 310.31,-110.5 310.31,-129.75"/>
<text text-anchor="middle" x="287.69" y="-116.25" font-family="Helvetica,sans-Serif" font-size="10.00">ranges</text>
</a>
</g>
</g>
<!-- Node5&#45;&gt;Node15 -->
<g id="edge34_Node000005_Node000015" class="edge">
<title>Node5&#45;&gt;Node15</title>
<g id="a_edge34_Node000005_Node000015"><a xlink:title=" ">
<path fill="none" stroke="#63b8ff" d="M436.95,-220.92C446.99,-207.76 462.5,-182.57 449.69,-165.75 449.19,-165.1 369.17,-143.27 321.79,-130.38"/>
<polygon fill="#63b8ff" stroke="#63b8ff" points="322.83,-127.04 312.26,-127.8 321,-133.8 322.83,-127.04"/>
</a>
</g>
</g>
<!-- Node17 -->
<g id="Node000017" class="node">
<title>Node17</title>
<g id="a_Node000017"><a xlink:href="../../d8/d32/_type_traits_8hpp.html" target="_top" xlink:title=" ">
<polygon fill="white" stroke="#666666" points="618.19,-185 497.19,-185 497.19,-165.75 618.19,-165.75 618.19,-185"/>
<text text-anchor="middle" x="557.69" y="-171.5" font-family="Helvetica,sans-Serif" font-size="10.00">mimic++/TypeTraits.hpp</text>
</a>
</g>
</g>
<!-- Node5&#45;&gt;Node17 -->
<g id="edge22_Node000005_Node000017" class="edge">
<title>Node5&#45;&gt;Node17</title>
<g id="a_edge22_Node000005_Node000017"><a xlink:title=" ">
<path fill="none" stroke="#63b8ff" d="M451.4,-220.59C471.72,-212.14 502.33,-199.4 525.49,-189.77"/>
<polygon fill="#63b8ff" stroke="#63b8ff" points="526.58,-193.11 534.47,-186.03 523.89,-186.64 526.58,-193.11"/>
</a>
</g>
</g>
<!-- Node19 -->
<g id="Node000019" class="node">
<title>Node19</title>
<g id="a_Node000019"><a xlink:title=" ">
<polygon fill="#e0e0e0" stroke="#999999" points="669.31,-129.75 624.06,-129.75 624.06,-110.5 669.31,-110.5 669.31,-129.75"/>
<text text-anchor="middle" x="646.69" y="-116.25" font-family="Helvetica,sans-Serif" font-size="10.00">cstdint</text>
</a>
</g>
</g>
<!-- Node5&#45;&gt;Node19 -->
<g id="edge30_Node000005_Node000019" class="edge">
<title>Node5&#45;&gt;Node19</title>
<g id="a_edge30_Node000005_Node000019"><a xlink:title=" ">
<path fill="none" stroke="#63b8ff" d="M481.73,-223.88C533.08,-217.18 606.83,-204.49 627.69,-185 639.71,-173.76 644.24,-155.27 645.89,-141.08"/>
<polygon fill="#63b8ff" stroke="#63b8ff" points="649.35,-141.73 646.6,-131.5 642.37,-141.21 649.35,-141.73"/>
</a>
</g>
</g>
<!-- Node20 -->
<g id="Node000020" class="node">
<title>Node20</title>
<g id="a_Node000020"><a xlink:title=" ">
<polygon fill="#e0e0e0" stroke="#999999" points="84.69,-185 38.69,-185 38.69,-165.75 84.69,-165.75 84.69,-185"/>
<text text-anchor="middle" x="61.69" y="-171.5" font-family="Helvetica,sans-Serif" font-size="10.00">iterator</text>
</a>
</g>
</g>
<!-- Node5&#45;&gt;Node20 -->
<g id="edge32_Node000005_Node000020" class="edge">
<title>Node5&#45;&gt;Node20</title>
<g id="a_edge32_Node000005_Node000020"><a xlink:title=" ">
<path fill="none" stroke="#63b8ff" d="M377.53,-224.84C313.44,-218.49 201.22,-205.84 96.15,-185.26"/>
<polygon fill="#63b8ff" stroke="#63b8ff" points="97,-181.86 86.5,-183.34 95.63,-188.72 97,-181.86"/>
</a>
</g>
</g>
<!-- Node21 -->
<g id="Node000021" class="node">
<title>Node21</title>
<g id="a_Node000021"><a xlink:title=" ">
<polygon fill="#e0e0e0" stroke="#999999" points="152.56,-185 102.81,-185 102.81,-165.75 152.56,-165.75 152.56,-185"/>
<text text-anchor="middle" x="127.69" y="-171.5" font-family="Helvetica,sans-Serif" font-size="10.00">optional</text>
</a>
</g>
</g>
<!-- Node5&#45;&gt;Node21 -->
<g id="edge33_Node000005_Node000021" class="edge">
<title>Node5&#45;&gt;Node21</title>
<g id="a_edge33_Node000005_Node000021"><a xlink:title=" ">
<path fill="none" stroke="#63b8ff" d="M377.32,-222.23C325.55,-214.62 243.87,-201.83 164.12,-185.36"/>
<polygon fill="#63b8ff" stroke="#63b8ff" points="164.87,-181.94 154.36,-183.33 163.44,-188.8 164.87,-181.94"/>
</a>
</g>
</g>
<!-- Node22 -->
<g id="Node000022" class="node">
<title>Node22</title>
<g id="a_Node000022"><a xlink:title=" ">
<polygon fill="#e0e0e0" stroke="#999999" points="222.31,-185 171.06,-185 171.06,-165.75 222.31,-165.75 222.31,-185"/>
<text text-anchor="middle" x="196.69" y="-171.5" font-family="Helvetica,sans-Serif" font-size="10.00">sstream</text>
</a>
</g>
</g>
<!-- Node5&#45;&gt;Node22 -->
<g id="edge36_Node000005_Node000022" class="edge">
<title>Node5&#45;&gt;Node22</title>
<g id="a_edge36_Node000005_Node000022"><a xlink:title=" ">
<path fill="none" stroke="#63b8ff" d="M388.29,-220.55C350.55,-212.21 292.95,-199.36 233.74,-185.45"/>
<polygon fill="#63b8ff" stroke="#63b8ff" points="234.67,-182.07 224.14,-183.19 233.07,-188.89 234.67,-182.07"/>
</a>
</g>
</g>
<!-- Node23 -->
<g id="Node000023" class="node">
<title>Node23</title>
<g id="a_Node000023"><a xlink:title=" ">
<polygon fill="#e0e0e0" stroke="#999999" points="284.56,-185 240.81,-185 240.81,-165.75 284.56,-165.75 284.56,-185"/>
<text text-anchor="middle" x="262.69" y="-171.5" font-family="Helvetica,sans-Serif" font-size="10.00">format</text>
</a>
</g>
</g>
<!-- Node5&#45;&gt;Node23 -->
<g id="edge40_Node000005_Node000023" class="edge">
<title>Node5&#45;&gt;Node23</title>
<g id="a_edge40_Node000005_Node000023"><a xlink:title=" ">
<path fill="none" stroke="#63b8ff" d="M401.36,-220.59C372.1,-211.26 326.49,-196.72 295.64,-186.88"/>
<polygon fill="#63b8ff" stroke="#63b8ff" points="297.03,-183.65 286.44,-183.95 294.9,-190.32 297.03,-183.65"/>
</a>
</g>
</g>
<!-- Node6&#45;&gt;Node2 -->
<g id="edge7_Node000006_Node000002" class="edge">
<title>Node6&#45;&gt;Node2</title>
<g id="a_edge7_Node000006_Node000002"><a xlink:title=" ">
<path fill="none" stroke="#63b8ff" d="M340.13,-166.19C297.21,-158.32 239.92,-145.34 222.69,-129.75 210.18,-118.44 204.17,-99.96 201.28,-85.79"/>
<polygon fill="#63b8ff" stroke="#63b8ff" points="204.79,-85.52 199.72,-76.21 197.88,-86.65 204.79,-85.52"/>
</a>
</g>
</g>
<!-- Node6&#45;&gt;Node3 -->
<g id="edge19_Node000006_Node000003" class="edge">
<title>Node6&#45;&gt;Node3</title>
<g id="a_edge19_Node000006_Node000003"><a xlink:title=" ">
<path fill="none" stroke="#63b8ff" d="M341.61,-165.3C295.13,-156.22 229.08,-141.88 205.69,-129.75 172.62,-112.61 162.78,-105.85 142.69,-74.5 134.17,-61.21 129.33,-43.95 126.67,-30.72"/>
<polygon fill="#63b8ff" stroke="#63b8ff" points="130.15,-30.29 125,-21.03 123.25,-31.48 130.15,-30.29"/>
</a>
</g>
</g>
<!-- Node6&#45;&gt;Node4 -->
<g id="edge20_Node000006_Node000004" class="edge">
<title>Node6&#45;&gt;Node4</title>
<g id="a_edge20_Node000006_Node000004"><a xlink:title=" ">
<path fill="none" stroke="#63b8ff" d="M345.29,-165.32C310.42,-157.33 266.46,-144.66 255.69,-129.75 250.67,-122.82 251.3,-117.85 255.69,-110.5 286.05,-59.61 352.31,-33.09 396.73,-20.51"/>
<polygon fill="#63b8ff" stroke="#63b8ff" points="397.58,-23.9 406.33,-17.93 395.76,-17.14 397.58,-23.9"/>
</a>
</g>
</g>
<!-- Node6&#45;&gt;Node7 -->
<g id="edge8_Node000006_Node000007" class="edge">
<title>Node6&#45;&gt;Node7</title>
<g id="a_edge8_Node000006_Node000007"><a xlink:title=" ">
<path fill="none" stroke="#63b8ff" d="M441.29,-168C519.1,-158.21 667.9,-139.48 751.94,-128.9"/>
<polygon fill="#63b8ff" stroke="#63b8ff" points="752.37,-132.37 761.85,-127.65 751.49,-125.43 752.37,-132.37"/>
</a>
</g>
</g>
<!-- Node13 -->
<g id="Node000013" class="node">
<title>Node13</title>
<g id="a_Node000013"><a xlink:title=" ">
<polygon fill="#e0e0e0" stroke="#999999" points="384.56,-129.75 328.81,-129.75 328.81,-110.5 384.56,-110.5 384.56,-129.75"/>
<text text-anchor="middle" x="356.69" y="-116.25" font-family="Helvetica,sans-Serif" font-size="10.00">concepts</text>
</a>
</g>
</g>
<!-- Node6&#45;&gt;Node13 -->
<g id="edge16_Node000006_Node000013" class="edge">
<title>Node6&#45;&gt;Node13</title>
<g id="a_edge16_Node000006_Node000013"><a xlink:title=" ">
<path fill="none" stroke="#63b8ff" d="M385.07,-165.58C380.57,-158.53 374.1,-148.4 368.47,-139.58"/>
<polygon fill="#63b8ff" stroke="#63b8ff" points="371.57,-137.93 363.24,-131.38 365.67,-141.7 371.57,-137.93"/>
</a>
</g>
</g>
<!-- Node6&#45;&gt;Node14 -->
<g id="edge17_Node000006_Node000014" class="edge">
<title>Node6&#45;&gt;Node14</title>
<g id="a_edge17_Node000006_Node000014"><a xlink:title=" ">
<path fill="none" stroke="#63b8ff" d="M340,-166.92C283.83,-158.51 190.62,-144.13 110.69,-129.75 109.7,-129.57 108.71,-129.39 107.7,-129.21"/>
<polygon fill="#63b8ff" stroke="#63b8ff" points="108.76,-125.85 98.29,-127.41 107.45,-132.72 108.76,-125.85"/>
</a>
</g>
</g>
<!-- Node6&#45;&gt;Node15 -->
<g id="edge18_Node000006_Node000015" class="edge">
<title>Node6&#45;&gt;Node15</title>
<g id="a_edge18_Node000006_Node000015"><a xlink:title=" ">
<path fill="none" stroke="#63b8ff" d="M373.21,-165.34C357.38,-157.16 333.78,-144.96 315.38,-135.44"/>
<polygon fill="#63b8ff" stroke="#63b8ff" points="317.08,-132.38 306.59,-130.9 313.86,-138.6 317.08,-132.38"/>
</a>
</g>
</g>
<!-- Node16 -->
<g id="Node000016" class="node">
<title>Node16</title>
<g id="a_Node000016"><a xlink:title=" ">
<polygon fill="#e0e0e0" stroke="#999999" points="463.19,-129.75 402.19,-129.75 402.19,-110.5 463.19,-110.5 463.19,-129.75"/>
<text text-anchor="middle" x="432.69" y="-116.25" font-family="Helvetica,sans-Serif" font-size="10.00">type_traits</text>
</a>
</g>
</g>
<!-- Node6&#45;&gt;Node16 -->
<g id="edge21_Node000006_Node000016" class="edge">
<title>Node6&#45;&gt;Node16</title>
<g id="a_edge21_Node000006_Node000016"><a xlink:title=" ">
<path fill="none" stroke="#63b8ff" d="M397.62,-165.58C403.3,-158.38 411.52,-147.96 418.58,-139.01"/>
<polygon fill="#63b8ff" stroke="#63b8ff" points="421.22,-141.32 424.66,-131.3 415.72,-136.98 421.22,-141.32"/>
</a>
</g>
</g>
<!-- Node7&#45;&gt;Node2 -->
<g id="edge9_Node000007_Node000002" class="edge">
<title>Node7&#45;&gt;Node2</title>
<g id="a_edge9_Node000007_Node000002"><a xlink:title=" ">
<path fill="none" stroke="#63b8ff" d="M763.36,-114.77C650.39,-104.99 377.15,-81.33 257.01,-70.93"/>
<polygon fill="#63b8ff" stroke="#63b8ff" points="257.65,-67.47 247.38,-70.09 257.05,-74.44 257.65,-67.47"/>
</a>
</g>
</g>
<!-- Node7&#45;&gt;Node4 -->
<g id="edge13_Node000007_Node000004" class="edge">
<title>Node7&#45;&gt;Node4</title>
<g id="a_edge13_Node000007_Node000004"><a xlink:title=" ">
<path fill="none" stroke="#63b8ff" d="M822.81,-110.29C835.48,-96.98 855.29,-71.58 840.69,-55.25 817.29,-29.1 584.42,-16.52 485.14,-12.31"/>
<polygon fill="#63b8ff" stroke="#63b8ff" points="485.37,-8.81 475.23,-11.9 485.08,-15.81 485.37,-8.81"/>
</a>
</g>
</g>
<!-- Node8 -->
<g id="Node000008" class="node">
<title>Node8</title>
<g id="a_Node000008"><a xlink:title=" ">
<polygon fill="#e0e0e0" stroke="#999999" points="831.19,-74.5 794.19,-74.5 794.19,-55.25 831.19,-55.25 831.19,-74.5"/>
<text text-anchor="middle" x="812.69" y="-61" font-family="Helvetica,sans-Serif" font-size="10.00">array</text>
</a>
</g>
</g>
<!-- Node7&#45;&gt;Node8 -->
<g id="edge10_Node000007_Node000008" class="edge">
<title>Node7&#45;&gt;Node8</title>
<g id="a_edge10_Node000007_Node000008"><a xlink:title=" ">
<path fill="none" stroke="#63b8ff" d="M813.52,-110.33C813.4,-103.82 813.23,-94.67 813.07,-86.37"/>
<polygon fill="#63b8ff" stroke="#63b8ff" points="816.57,-86.3 812.88,-76.37 809.57,-86.44 816.57,-86.3"/>
</a>
</g>
</g>
<!-- Node7&#45;&gt;Node9 -->
<g id="edge11_Node000007_Node000009" class="edge">
<title>Node7&#45;&gt;Node9</title>
<g id="a_edge11_Node000007_Node000009"><a xlink:title=" ">
<path fill="none" stroke="#63b8ff" d="M839.81,-110.09C865.42,-101.24 904.61,-87.69 932.85,-77.92"/>
<polygon fill="#63b8ff" stroke="#63b8ff" points="933.73,-81.32 942.04,-74.74 931.44,-74.7 933.73,-81.32"/>
</a>
</g>
</g>
<!-- Node7&#45;&gt;Node10 -->
<g id="edge12_Node000007_Node000010" class="edge">
<title>Node7&#45;&gt;Node10</title>
<g id="a_edge12_Node000007_Node000010"><a xlink:title=" ">
<path fill="none" stroke="#63b8ff" d="M800.11,-110.09C788.28,-102.21 770.85,-90.61 756.81,-81.27"/>
<polygon fill="#63b8ff" stroke="#63b8ff" points="758.85,-78.42 748.58,-75.79 754.97,-84.25 758.85,-78.42"/>
</a>
</g>
</g>
<!-- Node11 -->
<g id="Node000011" class="node">
<title>Node11</title>
<g id="a_Node000011"><a xlink:title=" ">
<polygon fill="#e0e0e0" stroke="#999999" points="673.19,-74.5 636.19,-74.5 636.19,-55.25 673.19,-55.25 673.19,-74.5"/>
<text text-anchor="middle" x="654.69" y="-61" font-family="Helvetica,sans-Serif" font-size="10.00">tuple</text>
</a>
</g>
</g>
<!-- Node7&#45;&gt;Node11 -->
<g id="edge14_Node000007_Node000011" class="edge">
<title>Node7&#45;&gt;Node11</title>
<g id="a_edge14_Node000007_Node000011"><a xlink:title=" ">
<path fill="none" stroke="#63b8ff" d="M786.71,-110.09C758.24,-100.56 713.5,-85.57 684.13,-75.74"/>
<polygon fill="#63b8ff" stroke="#63b8ff" points="685.35,-72.45 674.75,-72.6 683.12,-79.09 685.35,-72.45"/>
</a>
</g>
</g>
<!-- Node7&#45;&gt;Node12 -->
<g id="edge15_Node000007_Node000012" class="edge">
<title>Node7&#45;&gt;Node12</title>
<g id="a_edge15_Node000007_Node000012"><a xlink:title=" ">
<path fill="none" stroke="#63b8ff" d="M829.46,-110.09C843.62,-101.98 864.67,-89.93 881.21,-80.46"/>
<polygon fill="#63b8ff" stroke="#63b8ff" points="882.58,-83.71 889.52,-75.7 879.1,-77.64 882.58,-83.71"/>
</a>
</g>
</g>
<!-- Node17&#45;&gt;Node2 -->
<g id="edge23_Node000017_Node000002" class="edge">
<title>Node17&#45;&gt;Node2</title>
<g id="a_edge23_Node000017_Node000002"><a xlink:title=" ">
<path fill="none" stroke="#63b8ff" d="M549.18,-165.68C534.83,-151.58 504.27,-123.96 472.69,-110.5 402.59,-80.62 314.56,-70.63 257.49,-67.35"/>
<polygon fill="#63b8ff" stroke="#63b8ff" points="257.83,-63.87 247.66,-66.85 257.47,-70.86 257.83,-63.87"/>
</a>
</g>
</g>
<!-- Node17&#45;&gt;Node11 -->
<g id="edge27_Node000017_Node000011" class="edge">
<title>Node17&#45;&gt;Node11</title>
<g id="a_edge27_Node000017_Node000011"><a xlink:title=" ">
<path fill="none" stroke="#63b8ff" d="M565.8,-165.27C576.84,-152.88 597.25,-130 614.69,-110.5 622.75,-101.48 631.74,-91.46 639.15,-83.19"/>
<polygon fill="#63b8ff" stroke="#63b8ff" points="641.63,-85.67 645.7,-75.89 636.42,-80.99 641.63,-85.67"/>
</a>
</g>
</g>
<!-- Node17&#45;&gt;Node13 -->
<g id="edge24_Node000017_Node000013" class="edge">
<title>Node17&#45;&gt;Node13</title>
<g id="a_edge24_Node000017_Node000013"><a xlink:title=" ">
<path fill="none" stroke="#63b8ff" d="M523.59,-165.34C488.16,-155.96 432.81,-141.29 395.68,-131.45"/>
<polygon fill="#63b8ff" stroke="#63b8ff" points="396.8,-128.13 386.24,-128.95 395.01,-134.9 396.8,-128.13"/>
</a>
</g>
</g>
<!-- Node17&#45;&gt;Node16 -->
<g id="edge28_Node000017_Node000016" class="edge">
<title>Node17&#45;&gt;Node16</title>
<g id="a_edge28_Node000017_Node000016"><a xlink:title=" ">
<path fill="none" stroke="#63b8ff" d="M536.48,-165.34C516.73,-156.93 487.01,-144.27 464.43,-134.65"/>
<polygon fill="#63b8ff" stroke="#63b8ff" points="465.96,-131.49 455.39,-130.8 463.21,-137.93 465.96,-131.49"/>
</a>
</g>
</g>
<!-- Node18 -->
<g id="Node000018" class="node">
<title>Node18</title>
<g id="a_Node000018"><a xlink:title=" ">
<polygon fill="#e0e0e0" stroke="#999999" points="567.81,-129.75 519.56,-129.75 519.56,-110.5 567.81,-110.5 567.81,-129.75"/>
<text text-anchor="middle" x="543.69" y="-116.25" font-family="Helvetica,sans-Serif" font-size="10.00">cstddef</text>
</a>
</g>
</g>
<!-- Node17&#45;&gt;Node18 -->
<g id="edge25_Node000017_Node000018" class="edge">
<title>Node17&#45;&gt;Node18</title>
<g id="a_edge25_Node000017_Node000018"><a xlink:title=" ">
<path fill="none" stroke="#63b8ff" d="M555.37,-165.58C553.62,-158.92 551.14,-149.49 548.92,-141.03"/>
<polygon fill="#63b8ff" stroke="#63b8ff" points="552.36,-140.35 546.43,-131.57 545.59,-142.13 552.36,-140.35"/>
</a>
</g>
</g>
<!-- Node17&#45;&gt;Node19 -->
<g id="edge26_Node000017_Node000019" class="edge">
<title>Node17&#45;&gt;Node19</title>
<g id="a_edge26_Node000017_Node000019"><a xlink:title=" ">
<path fill="none" stroke="#63b8ff" d="M572.78,-165.34C586.21,-157.31 606.1,-145.41 621.86,-135.98"/>
<polygon fill="#63b8ff" stroke="#63b8ff" points="623.43,-139.12 630.21,-130.98 619.84,-133.11 623.43,-139.12"/>
</a>
</g>
</g>
</g>
</svg>

<g id="navigator" transform="translate(0 0)" fill="#404254">
  <rect fill="#f2f5e9" fill-opacity="0.5" stroke="#606060" stroke-width=".5" x="0" y="0" width="60" height="60"/>
  <use id="zoomplus" xlink:href="#zoomPlus" x="17" y="9" onmousedown="handleZoom(evt,'in')"/>
  <use id="zoomminus" xlink:href="#zoomMin" x="42" y="9" onmousedown="handleZoom(evt,'out')"/>
  <use id="reset" xlink:href="#resetDef" x="30" y="36" onmousedown="handleReset()"/>
   <use id="arrowup" xlink:href="#arrowUp" x="0" y="0" onmousedown="handlePan(0,-1)"/>
  <use id="arrowright" xlink:href="#arrowRight" x="0" y="0" onmousedown="handlePan(1,0)"/>
  <use id="arrowdown" xlink:href="#arrowDown" x="0" y="0" onmousedown="handlePan(0,1)"/>
  <use id="arrowleft" xlink:href="#arrowLeft" x="0" y="0" onmousedown="handlePan(-1,0)"/>
</g>
<svg viewBox="0 0 15 15" width="100%" height="30px" preserveAspectRatio="xMaxYMin meet">
 <g id="arrow_out" transform="scale(0.3 0.3)">
  <a xlink:href="_general_policies_8hpp__incl_org.svg" target="_base">
   <rect id="button" ry="5" rx="5" y="6" x="6" height="38" width="38"
        fill="#f2f5e9" fill-opacity="0.5" stroke="#606060" stroke-width="1.0"/>
   <path id="arrow"
     d="M 11.500037,31.436501 C 11.940474,20.09759 22.043105,11.32322 32.158766,21.979434 L 37.068811,17.246167 C 37.068811,17.246167 37.088388,32 37.088388,32 L 22.160133,31.978069 C 22.160133,31.978069 26.997745,27.140456 26.997745,27.140456 C 18.528582,18.264221 13.291696,25.230495 11.500037,31.436501 z"
     style="fill:#404040;"/>
  </a>
 </g>
</svg>

<style type='text/css'>
<![CDATA[
[data-mouse-over-selected='false'] { opacity: 0.7; }
[data-mouse-over-selected='true']  { opacity: 1.0; }
]]>
</style>
<script type="application/ecmascript"><![CDATA[
document.addEventListener('DOMContentLoaded', (event) => {
  highlightEdges();
  highlightAdjacentNodes();
});
]]></script>
</svg>
