<?xml version="1.0" encoding="UTF-8" standalone="no"?>
<!DOCTYPE svg PUBLIC "-//W3C//DTD SVG 1.1//EN"
 "http://www.w3.org/Graphics/SVG/1.1/DTD/svg11.dtd">
<!-- Generated by graphviz version 12.2.1 (20241206.2353)
 -->
<!-- Title: mimic++/printing/type/Templated.hpp Pages: 1 -->
<svg width="1376pt" height="326pt"
 viewBox="0.00 0.00 1375.58 326.00" xmlns="http://www.w3.org/2000/svg" xmlns:xlink="http://www.w3.org/1999/xlink">
<g id="graph0" class="graph" transform="scale(1 1) rotate(0) translate(4 322)">
<title>mimic++/printing/type/Templated.hpp</title>
<!-- Node1 -->
<g id="Node000001" class="node">
<title>Node1</title>
<g id="a_Node000001"><a xlink:title=" ">
<polygon fill="#999999" stroke="#666666" points="817.83,-318 708.08,-318 708.08,-287.5 817.83,-287.5 817.83,-318"/>
<text text-anchor="start" x="716.08" y="-304.5" font-family="Helvetica,sans-Serif" font-size="10.00">mimic++/printing/type</text>
<text text-anchor="middle" x="762.95" y="-293.25" font-family="Helvetica,sans-Serif" font-size="10.00">/Templated.hpp</text>
</a>
</g>
</g>
<!-- Node2 -->
<g id="Node000002" class="node">
<title>Node2</title>
<g id="a_Node000002"><a xlink:href="../../df/dde/_fwd_8hpp.html" target="_top" xlink:title=" ">
<polygon fill="white" stroke="#666666" points="580.95,-129.75 486.95,-129.75 486.95,-110.5 580.95,-110.5 580.95,-129.75"/>
<text text-anchor="middle" x="533.95" y="-116.25" font-family="Helvetica,sans-Serif" font-size="10.00">mimic++/Fwd.hpp</text>
</a>
</g>
</g>
<!-- Node1&#45;&gt;Node2 -->
<g id="edge1_Node000001_Node000002" class="edge">
<title>Node1&#45;&gt;Node2</title>
<g id="a_edge1_Node000001_Node000002"><a xlink:title=" ">
<path fill="none" stroke="#63b8ff" d="M707.86,-297.45C626.67,-290.44 479.38,-274.92 431.95,-251.5 393.77,-232.64 379.61,-224.2 362.95,-185 359.61,-177.13 357.72,-172.52 362.95,-165.75 370.12,-156.48 429.61,-142.38 476.44,-132.52"/>
<polygon fill="#63b8ff" stroke="#63b8ff" points="476.87,-136.01 485.94,-130.54 475.44,-129.15 476.87,-136.01"/>
</a>
</g>
</g>
<!-- Node8 -->
<g id="Node000008" class="node">
<title>Node8</title>
<g id="a_Node000008"><a xlink:href="../../d4/d2c/_utility_8hpp.html" target="_top" xlink:title=" ">
<polygon fill="white" stroke="#666666" points="259.95,-185 159.95,-185 159.95,-165.75 259.95,-165.75 259.95,-185"/>
<text text-anchor="middle" x="209.95" y="-171.5" font-family="Helvetica,sans-Serif" font-size="10.00">mimic++/Utility.hpp</text>
</a>
</g>
</g>
<!-- Node1&#45;&gt;Node8 -->
<g id="edge7_Node000001_Node000008" class="edge">
<title>Node1&#45;&gt;Node8</title>
<g id="a_edge7_Node000001_Node000008"><a xlink:title=" ">
<path fill="none" stroke="#63b8ff" d="M707.59,-301.18C595.93,-299.21 348.08,-290.45 273.95,-251.5 249.84,-238.83 230.99,-212.92 220.17,-195.1"/>
<polygon fill="#63b8ff" stroke="#63b8ff" points="223.27,-193.48 215.25,-186.56 217.2,-196.97 223.27,-193.48"/>
</a>
</g>
</g>
<!-- Node15 -->
<g id="Node000015" class="node">
<title>Node15</title>
<g id="a_Node000015"><a xlink:title=" ">
<polygon fill="#e0e0e0" stroke="#999999" points="469.2,-129.75 430.7,-129.75 430.7,-110.5 469.2,-110.5 469.2,-129.75"/>
<text text-anchor="middle" x="449.95" y="-116.25" font-family="Helvetica,sans-Serif" font-size="10.00">utility</text>
</a>
</g>
</g>
<!-- Node1&#45;&gt;Node15 -->
<g id="edge48_Node000001_Node000015" class="edge">
<title>Node1&#45;&gt;Node15</title>
<g id="a_edge48_Node000001_Node000015"><a xlink:title=" ">
<path fill="none" stroke="#63b8ff" d="M707.58,-301.29C614.1,-299.42 430.33,-290.7 380.95,-251.5 349.86,-226.82 334.74,-199.3 355.95,-165.75 363.28,-154.16 394.95,-140.63 419.53,-131.53"/>
<polygon fill="#63b8ff" stroke="#63b8ff" points="420.57,-134.88 428.79,-128.2 418.19,-128.29 420.57,-134.88"/>
</a>
</g>
</g>
<!-- Node16 -->
<g id="Node000016" class="node">
<title>Node16</title>
<g id="a_Node000016"><a xlink:href="../../d5/dec/_format_8hpp.html" target="_top" xlink:title=" ">
<polygon fill="white" stroke="#666666" points="792.2,-185 651.7,-185 651.7,-165.75 792.2,-165.75 792.2,-185"/>
<text text-anchor="middle" x="721.95" y="-171.5" font-family="Helvetica,sans-Serif" font-size="10.00">mimic++/printing/Format.hpp</text>
</a>
</g>
</g>
<!-- Node1&#45;&gt;Node16 -->
<g id="edge17_Node000001_Node000016" class="edge">
<title>Node1&#45;&gt;Node16</title>
<g id="a_edge17_Node000001_Node000016"><a xlink:title=" ">
<path fill="none" stroke="#63b8ff" d="M755.75,-287.05C751.1,-277.17 745.15,-263.75 740.95,-251.5 734.68,-233.21 729.46,-211.77 726.09,-196.49"/>
<polygon fill="#63b8ff" stroke="#63b8ff" points="729.53,-195.84 724.03,-186.78 722.68,-197.29 729.53,-195.84"/>
</a>
</g>
</g>
<!-- Node17 -->
<g id="Node000017" class="node">
<title>Node17</title>
<g id="a_Node000017"><a xlink:title=" ">
<polygon fill="#e0e0e0" stroke="#999999" points="654.83,-129.75 599.08,-129.75 599.08,-110.5 654.83,-110.5 654.83,-129.75"/>
<text text-anchor="middle" x="626.95" y="-116.25" font-family="Helvetica,sans-Serif" font-size="10.00">concepts</text>
</a>
</g>
</g>
<!-- Node1&#45;&gt;Node17 -->
<g id="edge43_Node000001_Node000017" class="edge">
<title>Node1&#45;&gt;Node17</title>
<g id="a_edge43_Node000001_Node000017"><a xlink:title=" ">
<path fill="none" stroke="#63b8ff" d="M707.73,-293.16C611.74,-276.95 420.71,-238.6 382.95,-185 346.56,-133.34 329.74,-181.36 587.43,-130.15"/>
<polygon fill="#63b8ff" stroke="#63b8ff" points="588.11,-133.59 597.22,-128.18 586.73,-126.72 588.11,-133.59"/>
</a>
</g>
</g>
<!-- Node19 -->
<g id="Node000019" class="node">
<title>Node19</title>
<g id="a_Node000019"><a xlink:title=" ">
<polygon fill="#e0e0e0" stroke="#999999" points="903.45,-129.75 842.45,-129.75 842.45,-110.5 903.45,-110.5 903.45,-129.75"/>
<text text-anchor="middle" x="872.95" y="-116.25" font-family="Helvetica,sans-Serif" font-size="10.00">type_traits</text>
</a>
</g>
</g>
<!-- Node1&#45;&gt;Node19 -->
<g id="edge47_Node000001_Node000019" class="edge">
<title>Node1&#45;&gt;Node19</title>
<g id="a_edge47_Node000001_Node000019"><a xlink:title=" ">
<path fill="none" stroke="#63b8ff" d="M818.22,-293.97C917.57,-278.69 1119.67,-241.28 1158.95,-185 1201.01,-124.74 1291.48,-197.06 915.19,-130.04"/>
<polygon fill="#63b8ff" stroke="#63b8ff" points="915.87,-126.61 905.41,-128.28 914.63,-133.5 915.87,-126.61"/>
</a>
</g>
</g>
<!-- Node21 -->
<g id="Node000021" class="node">
<title>Node21</title>
<g id="a_Node000021"><a xlink:href="../../de/d52/printing_2_fwd_8hpp.html" target="_top" xlink:title=" ">
<polygon fill="white" stroke="#666666" points="520.2,-185 391.7,-185 391.7,-165.75 520.2,-165.75 520.2,-185"/>
<text text-anchor="middle" x="455.95" y="-171.5" font-family="Helvetica,sans-Serif" font-size="10.00">mimic++/printing/Fwd.hpp</text>
</a>
</g>
</g>
<!-- Node1&#45;&gt;Node21 -->
<g id="edge25_Node000001_Node000021" class="edge">
<title>Node1&#45;&gt;Node21</title>
<g id="a_edge25_Node000001_Node000021"><a xlink:title=" ">
<path fill="none" stroke="#63b8ff" d="M727.14,-287.12C666.95,-262.55 546.46,-213.34 488.53,-189.68"/>
<polygon fill="#63b8ff" stroke="#63b8ff" points="490.12,-186.55 479.54,-186.01 487.48,-193.03 490.12,-186.55"/>
</a>
</g>
</g>
<!-- Node22 -->
<g id="Node000022" class="node">
<title>Node22</title>
<g id="a_Node000022"><a xlink:href="../../da/db0/_print_type_8hpp.html" target="_top" xlink:title=" ">
<polygon fill="white" stroke="#666666" points="859.83,-251.5 750.08,-251.5 750.08,-221 859.83,-221 859.83,-251.5"/>
<text text-anchor="start" x="758.08" y="-238" font-family="Helvetica,sans-Serif" font-size="10.00">mimic++/printing/type</text>
<text text-anchor="middle" x="804.95" y="-226.75" font-family="Helvetica,sans-Serif" font-size="10.00">/PrintType.hpp</text>
</a>
</g>
</g>
<!-- Node1&#45;&gt;Node22 -->
<g id="edge26_Node000001_Node000022" class="edge">
<title>Node1&#45;&gt;Node22</title>
<g id="a_edge26_Node000001_Node000022"><a xlink:title=" ">
<path fill="none" stroke="#63b8ff" d="M772.48,-287.11C777.42,-279.53 783.59,-270.06 789.21,-261.43"/>
<polygon fill="#63b8ff" stroke="#63b8ff" points="792.11,-263.39 794.63,-253.1 786.24,-259.57 792.11,-263.39"/>
</a>
</g>
</g>
<!-- Node23 -->
<g id="Node000023" class="node">
<title>Node23</title>
<g id="a_Node000023"><a xlink:title=" ">
<polygon fill="#e0e0e0" stroke="#999999" points="1073.83,-185 1018.08,-185 1018.08,-165.75 1073.83,-165.75 1073.83,-185"/>
<text text-anchor="middle" x="1045.95" y="-171.5" font-family="Helvetica,sans-Serif" font-size="10.00">algorithm</text>
</a>
</g>
</g>
<!-- Node1&#45;&gt;Node23 -->
<g id="edge42_Node000001_Node000023" class="edge">
<title>Node1&#45;&gt;Node23</title>
<g id="a_edge42_Node000001_Node000023"><a xlink:title=" ">
<path fill="none" stroke="#63b8ff" d="M795.97,-287.12C851.22,-262.65 961.6,-213.75 1015.25,-189.98"/>
<polygon fill="#63b8ff" stroke="#63b8ff" points="1016.39,-193.3 1024.12,-186.05 1013.56,-186.9 1016.39,-193.3"/>
</a>
</g>
</g>
<!-- Node24 -->
<g id="Node000024" class="node">
<title>Node24</title>
<g id="a_Node000024"><a xlink:title=" ">
<polygon fill="#e0e0e0" stroke="#999999" points="1149.95,-185 1091.95,-185 1091.95,-165.75 1149.95,-165.75 1149.95,-185"/>
<text text-anchor="middle" x="1120.95" y="-171.5" font-family="Helvetica,sans-Serif" font-size="10.00">functional</text>
</a>
</g>
</g>
<!-- Node1&#45;&gt;Node24 -->
<g id="edge44_Node000001_Node000024" class="edge">
<title>Node1&#45;&gt;Node24</title>
<g id="a_edge44_Node000001_Node000024"><a xlink:title=" ">
<path fill="none" stroke="#63b8ff" d="M812.21,-287.09C843.98,-277.44 886.09,-264.27 922.95,-251.5 981.42,-231.25 1048.58,-205.16 1087.74,-189.66"/>
<polygon fill="#63b8ff" stroke="#63b8ff" points="1088.83,-192.99 1096.84,-186.04 1086.25,-186.48 1088.83,-192.99"/>
</a>
</g>
</g>
<!-- Node29 -->
<g id="Node000029" class="node">
<title>Node29</title>
<g id="a_Node000029"><a xlink:title=" ">
<polygon fill="#e0e0e0" stroke="#999999" points="1256.2,-245.88 1205.7,-245.88 1205.7,-226.62 1256.2,-226.62 1256.2,-245.88"/>
<text text-anchor="middle" x="1230.95" y="-232.38" font-family="Helvetica,sans-Serif" font-size="10.00">memory</text>
</a>
</g>
</g>
<!-- Node1&#45;&gt;Node29 -->
<g id="edge45_Node000001_Node000029" class="edge">
<title>Node1&#45;&gt;Node29</title>
<g id="a_edge45_Node000001_Node000029"><a xlink:title=" ">
<path fill="none" stroke="#63b8ff" d="M818.18,-299.41C900.57,-294.98 1060.09,-282.86 1191.95,-251.5 1193.97,-251.02 1196.02,-250.47 1198.08,-249.87"/>
<polygon fill="#63b8ff" stroke="#63b8ff" points="1199.1,-253.22 1207.52,-246.77 1196.92,-246.57 1199.1,-253.22"/>
</a>
</g>
</g>
<!-- Node30 -->
<g id="Node000030" class="node">
<title>Node30</title>
<g id="a_Node000030"><a xlink:title=" ">
<polygon fill="#e0e0e0" stroke="#999999" points="1367.58,-245.88 1274.33,-245.88 1274.33,-226.62 1367.58,-226.62 1367.58,-245.88"/>
<text text-anchor="middle" x="1320.95" y="-232.38" font-family="Helvetica,sans-Serif" font-size="10.00">memory_resource</text>
</a>
</g>
</g>
<!-- Node1&#45;&gt;Node30 -->
<g id="edge46_Node000001_Node000030" class="edge">
<title>Node1&#45;&gt;Node30</title>
<g id="a_edge46_Node000001_Node000030"><a xlink:title=" ">
<path fill="none" stroke="#63b8ff" d="M818.29,-298.92C911.18,-293.57 1104.08,-279.86 1264.95,-251.5 1269.05,-250.78 1273.28,-249.92 1277.51,-248.98"/>
<polygon fill="#63b8ff" stroke="#63b8ff" points="1278.16,-252.42 1287.09,-246.72 1276.55,-245.61 1278.16,-252.42"/>
</a>
</g>
</g>
<!-- Node3 -->
<g id="Node000003" class="node">
<title>Node3</title>
<g id="a_Node000003"><a xlink:href="../../d8/dd2/_config_8hpp.html" target="_top" xlink:title=" ">
<polygon fill="white" stroke="#666666" points="711.08,-74.5 608.83,-74.5 608.83,-55.25 711.08,-55.25 711.08,-74.5"/>
<text text-anchor="middle" x="659.95" y="-61" font-family="Helvetica,sans-Serif" font-size="10.00">mimic++/Config.hpp</text>
</a>
</g>
</g>
<!-- Node2&#45;&gt;Node3 -->
<g id="edge2_Node000002_Node000003" class="edge">
<title>Node2&#45;&gt;Node3</title>
<g id="a_edge2_Node000002_Node000003"><a xlink:title=" ">
<path fill="none" stroke="#63b8ff" d="M555.33,-110.09C575.24,-101.68 605.19,-89.02 627.95,-79.4"/>
<polygon fill="#63b8ff" stroke="#63b8ff" points="629.23,-82.66 637.08,-75.54 626.51,-76.21 629.23,-82.66"/>
</a>
</g>
</g>
<!-- Node6 -->
<g id="Node000006" class="node">
<title>Node6</title>
<g id="a_Node000006"><a xlink:title=" ">
<polygon fill="#e0e0e0" stroke="#999999" points="860.95,-74.5 820.95,-74.5 820.95,-55.25 860.95,-55.25 860.95,-74.5"/>
<text text-anchor="middle" x="840.95" y="-61" font-family="Helvetica,sans-Serif" font-size="10.00">string</text>
</a>
</g>
</g>
<!-- Node2&#45;&gt;Node6 -->
<g id="edge5_Node000002_Node000006" class="edge">
<title>Node2&#45;&gt;Node6</title>
<g id="a_edge5_Node000002_Node000006"><a xlink:title=" ">
<path fill="none" stroke="#63b8ff" d="M581.25,-110.92C644.58,-99.94 755.21,-80.75 809.33,-71.36"/>
<polygon fill="#63b8ff" stroke="#63b8ff" points="809.85,-74.82 819.1,-69.67 808.65,-67.93 809.85,-74.82"/>
</a>
</g>
</g>
<!-- Node7 -->
<g id="Node000007" class="node">
<title>Node7</title>
<g id="a_Node000007"><a xlink:title=" ">
<polygon fill="#e0e0e0" stroke="#999999" points="566.7,-74.5 501.2,-74.5 501.2,-55.25 566.7,-55.25 566.7,-74.5"/>
<text text-anchor="middle" x="533.95" y="-61" font-family="Helvetica,sans-Serif" font-size="10.00">string_view</text>
</a>
</g>
</g>
<!-- Node2&#45;&gt;Node7 -->
<g id="edge6_Node000002_Node000007" class="edge">
<title>Node2&#45;&gt;Node7</title>
<g id="a_edge6_Node000002_Node000007"><a xlink:title=" ">
<path fill="none" stroke="#63b8ff" d="M533.95,-110.33C533.95,-103.82 533.95,-94.67 533.95,-86.37"/>
<polygon fill="#63b8ff" stroke="#63b8ff" points="537.45,-86.37 533.95,-76.37 530.45,-86.37 537.45,-86.37"/>
</a>
</g>
</g>
<!-- Node4 -->
<g id="Node000004" class="node">
<title>Node4</title>
<g id="a_Node000004"><a xlink:title=" ">
<polygon fill="#e0e0e0" stroke="#999999" points="650.58,-19.25 605.33,-19.25 605.33,0 650.58,0 650.58,-19.25"/>
<text text-anchor="middle" x="627.95" y="-5.75" font-family="Helvetica,sans-Serif" font-size="10.00">cstdint</text>
</a>
</g>
</g>
<!-- Node3&#45;&gt;Node4 -->
<g id="edge3_Node000003_Node000004" class="edge">
<title>Node3&#45;&gt;Node4</title>
<g id="a_edge3_Node000003_Node000004"><a xlink:title=" ">
<path fill="none" stroke="#63b8ff" d="M654.67,-55.08C650.48,-48.11 644.47,-38.12 639.22,-29.37"/>
<polygon fill="#63b8ff" stroke="#63b8ff" points="642.28,-27.68 634.13,-20.91 636.28,-31.28 642.28,-27.68"/>
</a>
</g>
</g>
<!-- Node5 -->
<g id="Node000005" class="node">
<title>Node5</title>
<g id="a_Node000005"><a xlink:title=" ">
<polygon fill="#e0e0e0" stroke="#999999" points="715.7,-19.25 668.2,-19.25 668.2,0 715.7,0 715.7,-19.25"/>
<text text-anchor="middle" x="691.95" y="-5.75" font-family="Helvetica,sans-Serif" font-size="10.00">version</text>
</a>
</g>
</g>
<!-- Node3&#45;&gt;Node5 -->
<g id="edge4_Node000003_Node000005" class="edge">
<title>Node3&#45;&gt;Node5</title>
<g id="a_edge4_Node000003_Node000005"><a xlink:title=" ">
<path fill="none" stroke="#63b8ff" d="M665.24,-55.08C669.43,-48.11 675.43,-38.12 680.69,-29.37"/>
<polygon fill="#63b8ff" stroke="#63b8ff" points="683.62,-31.28 685.77,-20.91 677.62,-27.68 683.62,-31.28"/>
</a>
</g>
</g>
<!-- Node8&#45;&gt;Node2 -->
<g id="edge8_Node000008_Node000002" class="edge">
<title>Node8&#45;&gt;Node2</title>
<g id="a_edge8_Node000008_Node000002"><a xlink:title=" ">
<path fill="none" stroke="#63b8ff" d="M260.22,-166.11C318.37,-156.56 413.96,-140.85 475.41,-130.75"/>
<polygon fill="#63b8ff" stroke="#63b8ff" points="475.68,-134.25 484.98,-129.17 474.54,-127.34 475.68,-134.25"/>
</a>
</g>
</g>
<!-- Node8&#45;&gt;Node7 -->
<g id="edge14_Node000008_Node000007" class="edge">
<title>Node8&#45;&gt;Node7</title>
<g id="a_edge14_Node000008_Node000007"><a xlink:title=" ">
<path fill="none" stroke="#63b8ff" d="M159.73,-173.75C86.75,-171.19 -35.23,-159.69 9.95,-110.5 42.12,-75.48 368.9,-67.91 489.53,-66.3"/>
<polygon fill="#63b8ff" stroke="#63b8ff" points="489.41,-69.8 499.36,-66.18 489.32,-62.8 489.41,-69.8"/>
</a>
</g>
</g>
<!-- Node9 -->
<g id="Node000009" class="node">
<title>Node9</title>
<g id="a_Node000009"><a xlink:title=" ">
<polygon fill="#e0e0e0" stroke="#999999" points="56.45,-129.75 19.45,-129.75 19.45,-110.5 56.45,-110.5 56.45,-129.75"/>
<text text-anchor="middle" x="37.95" y="-116.25" font-family="Helvetica,sans-Serif" font-size="10.00">array</text>
</a>
</g>
</g>
<!-- Node8&#45;&gt;Node9 -->
<g id="edge9_Node000008_Node000009" class="edge">
<title>Node8&#45;&gt;Node9</title>
<g id="a_edge9_Node000008_Node000009"><a xlink:title=" ">
<path fill="none" stroke="#63b8ff" d="M180.78,-165.34C149.19,-155.56 99.1,-140.06 67.41,-130.24"/>
<polygon fill="#63b8ff" stroke="#63b8ff" points="68.67,-126.97 58.08,-127.36 66.6,-133.66 68.67,-126.97"/>
</a>
</g>
</g>
<!-- Node10 -->
<g id="Node000010" class="node">
<title>Node10</title>
<g id="a_Node000010"><a xlink:title=" ">
<polygon fill="#e0e0e0" stroke="#999999" points="123.08,-129.75 74.83,-129.75 74.83,-110.5 123.08,-110.5 123.08,-129.75"/>
<text text-anchor="middle" x="98.95" y="-116.25" font-family="Helvetica,sans-Serif" font-size="10.00">cassert</text>
</a>
</g>
</g>
<!-- Node8&#45;&gt;Node10 -->
<g id="edge10_Node000008_Node000010" class="edge">
<title>Node8&#45;&gt;Node10</title>
<g id="a_edge10_Node000008_Node000010"><a xlink:title=" ">
<path fill="none" stroke="#63b8ff" d="M191.12,-165.34C173.9,-157.08 148.15,-144.73 128.24,-135.18"/>
<polygon fill="#63b8ff" stroke="#63b8ff" points="129.77,-132.03 119.24,-130.86 126.74,-138.34 129.77,-132.03"/>
</a>
</g>
</g>
<!-- Node11 -->
<g id="Node000011" class="node">
<title>Node11</title>
<g id="a_Node000011"><a xlink:title=" ">
<polygon fill="#e0e0e0" stroke="#999999" points="190.83,-129.75 141.08,-129.75 141.08,-110.5 190.83,-110.5 190.83,-129.75"/>
<text text-anchor="middle" x="165.95" y="-116.25" font-family="Helvetica,sans-Serif" font-size="10.00">optional</text>
</a>
</g>
</g>
<!-- Node8&#45;&gt;Node11 -->
<g id="edge11_Node000008_Node000011" class="edge">
<title>Node8&#45;&gt;Node11</title>
<g id="a_edge11_Node000008_Node000011"><a xlink:title=" ">
<path fill="none" stroke="#63b8ff" d="M202.69,-165.58C196.67,-158.3 187.94,-147.73 180.5,-138.73"/>
<polygon fill="#63b8ff" stroke="#63b8ff" points="183.41,-136.76 174.34,-131.28 178.01,-141.21 183.41,-136.76"/>
</a>
</g>
</g>
<!-- Node12 -->
<g id="Node000012" class="node">
<title>Node12</title>
<g id="a_Node000012"><a xlink:title=" ">
<polygon fill="#e0e0e0" stroke="#999999" points="254.58,-129.75 209.33,-129.75 209.33,-110.5 254.58,-110.5 254.58,-129.75"/>
<text text-anchor="middle" x="231.95" y="-116.25" font-family="Helvetica,sans-Serif" font-size="10.00">ranges</text>
</a>
</g>
</g>
<!-- Node8&#45;&gt;Node12 -->
<g id="edge12_Node000008_Node000012" class="edge">
<title>Node8&#45;&gt;Node12</title>
<g id="a_edge12_Node000008_Node000012"><a xlink:title=" ">
<path fill="none" stroke="#63b8ff" d="M213.59,-165.58C216.37,-158.84 220.32,-149.27 223.85,-140.74"/>
<polygon fill="#63b8ff" stroke="#63b8ff" points="227.08,-142.09 227.66,-131.51 220.61,-139.41 227.08,-142.09"/>
</a>
</g>
</g>
<!-- Node13 -->
<g id="Node000013" class="node">
<title>Node13</title>
<g id="a_Node000013"><a xlink:title=" ">
<polygon fill="#e0e0e0" stroke="#999999" points="357.08,-129.75 272.83,-129.75 272.83,-110.5 357.08,-110.5 357.08,-129.75"/>
<text text-anchor="middle" x="314.95" y="-116.25" font-family="Helvetica,sans-Serif" font-size="10.00">source_location</text>
</a>
</g>
</g>
<!-- Node8&#45;&gt;Node13 -->
<g id="edge13_Node000008_Node000013" class="edge">
<title>Node8&#45;&gt;Node13</title>
<g id="a_edge13_Node000008_Node000013"><a xlink:title=" ">
<path fill="none" stroke="#63b8ff" d="M227.76,-165.34C243.98,-157.12 268.19,-144.84 286.98,-135.31"/>
<polygon fill="#63b8ff" stroke="#63b8ff" points="288.37,-138.53 295.7,-130.89 285.2,-132.29 288.37,-138.53"/>
</a>
</g>
</g>
<!-- Node14 -->
<g id="Node000014" class="node">
<title>Node14</title>
<g id="a_Node000014"><a xlink:title=" ">
<polygon fill="#e0e0e0" stroke="#999999" points="412.45,-129.75 375.45,-129.75 375.45,-110.5 412.45,-110.5 412.45,-129.75"/>
<text text-anchor="middle" x="393.95" y="-116.25" font-family="Helvetica,sans-Serif" font-size="10.00">tuple</text>
</a>
</g>
</g>
<!-- Node8&#45;&gt;Node14 -->
<g id="edge15_Node000008_Node000014" class="edge">
<title>Node8&#45;&gt;Node14</title>
<g id="a_edge15_Node000008_Node000014"><a xlink:title=" ">
<path fill="none" stroke="#63b8ff" d="M242.28,-165.33C271.64,-157.08 316.43,-144.37 364.12,-130.25"/>
<polygon fill="#63b8ff" stroke="#63b8ff" points="364.95,-133.66 373.54,-127.45 362.96,-126.94 364.95,-133.66"/>
</a>
</g>
</g>
<!-- Node8&#45;&gt;Node15 -->
<g id="edge16_Node000008_Node000015" class="edge">
<title>Node8&#45;&gt;Node15</title>
<g id="a_edge16_Node000008_Node000015"><a xlink:title=" ">
<path fill="none" stroke="#63b8ff" d="M258.39,-165.28C298.9,-157.42 358.4,-145.28 419.36,-129.98"/>
<polygon fill="#63b8ff" stroke="#63b8ff" points="420.06,-133.41 428.89,-127.56 418.34,-126.63 420.06,-133.41"/>
</a>
</g>
</g>
<!-- Node16&#45;&gt;Node2 -->
<g id="edge19_Node000016_Node000002" class="edge">
<title>Node16&#45;&gt;Node2</title>
<g id="a_edge19_Node000016_Node000002"><a xlink:title=" ">
<path fill="none" stroke="#63b8ff" d="M690.06,-165.34C658.87,-156.51 611.15,-142.99 576.69,-133.23"/>
<polygon fill="#63b8ff" stroke="#63b8ff" points="578.03,-129.97 567.46,-130.61 576.12,-136.71 578.03,-129.97"/>
</a>
</g>
</g>
<!-- Node16&#45;&gt;Node3 -->
<g id="edge18_Node000016_Node000003" class="edge">
<title>Node16&#45;&gt;Node3</title>
<g id="a_edge18_Node000016_Node000003"><a xlink:title=" ">
<path fill="none" stroke="#63b8ff" d="M716.88,-165.5C706.84,-147.93 684.26,-108.41 670.75,-84.77"/>
<polygon fill="#63b8ff" stroke="#63b8ff" points="673.85,-83.14 665.85,-76.19 667.77,-86.61 673.85,-83.14"/>
</a>
</g>
</g>
<!-- Node16&#45;&gt;Node15 -->
<g id="edge23_Node000016_Node000015" class="edge">
<title>Node16&#45;&gt;Node15</title>
<g id="a_edge23_Node000016_Node000015"><a xlink:title=" ">
<path fill="none" stroke="#63b8ff" d="M660.87,-165.25C613.87,-157.77 547.14,-146.15 480.57,-130.16"/>
<polygon fill="#63b8ff" stroke="#63b8ff" points="481.47,-126.78 470.92,-127.81 479.81,-133.58 481.47,-126.78"/>
</a>
</g>
</g>
<!-- Node16&#45;&gt;Node17 -->
<g id="edge20_Node000016_Node000017" class="edge">
<title>Node16&#45;&gt;Node17</title>
<g id="a_edge20_Node000016_Node000017"><a xlink:title=" ">
<path fill="none" stroke="#63b8ff" d="M705.84,-165.34C691.37,-157.23 669.87,-145.18 652.97,-135.71"/>
<polygon fill="#63b8ff" stroke="#63b8ff" points="654.9,-132.78 644.47,-130.94 651.48,-138.89 654.9,-132.78"/>
</a>
</g>
</g>
<!-- Node18 -->
<g id="Node000018" class="node">
<title>Node18</title>
<g id="a_Node000018"><a xlink:title=" ">
<polygon fill="#e0e0e0" stroke="#999999" points="762.58,-129.75 711.33,-129.75 711.33,-110.5 762.58,-110.5 762.58,-129.75"/>
<text text-anchor="middle" x="736.95" y="-116.25" font-family="Helvetica,sans-Serif" font-size="10.00">sstream</text>
</a>
</g>
</g>
<!-- Node16&#45;&gt;Node18 -->
<g id="edge21_Node000016_Node000018" class="edge">
<title>Node16&#45;&gt;Node18</title>
<g id="a_edge21_Node000016_Node000018"><a xlink:title=" ">
<path fill="none" stroke="#63b8ff" d="M724.43,-165.58C726.31,-158.92 728.96,-149.49 731.35,-141.03"/>
<polygon fill="#63b8ff" stroke="#63b8ff" points="734.67,-142.14 734.01,-131.57 727.93,-140.24 734.67,-142.14"/>
</a>
</g>
</g>
<!-- Node16&#45;&gt;Node19 -->
<g id="edge22_Node000016_Node000019" class="edge">
<title>Node16&#45;&gt;Node19</title>
<g id="a_edge22_Node000016_Node000019"><a xlink:title=" ">
<path fill="none" stroke="#63b8ff" d="M747.57,-165.34C771.97,-156.74 808.96,-143.69 836.45,-134"/>
<polygon fill="#63b8ff" stroke="#63b8ff" points="837.52,-137.33 845.78,-130.71 835.19,-130.73 837.52,-137.33"/>
</a>
</g>
</g>
<!-- Node20 -->
<g id="Node000020" class="node">
<title>Node20</title>
<g id="a_Node000020"><a xlink:title=" ">
<polygon fill="#e0e0e0" stroke="#999999" points="824.83,-129.75 781.08,-129.75 781.08,-110.5 824.83,-110.5 824.83,-129.75"/>
<text text-anchor="middle" x="802.95" y="-116.25" font-family="Helvetica,sans-Serif" font-size="10.00">format</text>
</a>
</g>
</g>
<!-- Node16&#45;&gt;Node20 -->
<g id="edge24_Node000016_Node000020" class="edge">
<title>Node16&#45;&gt;Node20</title>
<g id="a_edge24_Node000016_Node000020"><a xlink:title=" ">
<path fill="none" stroke="#63b8ff" d="M735.69,-165.34C747.68,-157.46 765.32,-145.86 779.53,-136.52"/>
<polygon fill="#63b8ff" stroke="#63b8ff" points="781.45,-139.45 787.88,-131.03 777.6,-133.6 781.45,-139.45"/>
</a>
</g>
</g>
<!-- Node22&#45;&gt;Node2 -->
<g id="edge27_Node000022_Node000002" class="edge">
<title>Node22&#45;&gt;Node2</title>
<g id="a_edge27_Node000022_Node000002"><a xlink:title=" ">
<path fill="none" stroke="#63b8ff" d="M749.89,-224.41C714.11,-216.22 667.03,-203.24 627.95,-185 600.37,-172.12 571.89,-151.57 553.62,-137.27"/>
<polygon fill="#63b8ff" stroke="#63b8ff" points="556,-134.69 546,-131.19 551.63,-140.16 556,-134.69"/>
</a>
</g>
</g>
<!-- Node22&#45;&gt;Node8 -->
<g id="edge28_Node000022_Node000008" class="edge">
<title>Node22&#45;&gt;Node8</title>
<g id="a_edge28_Node000022_Node000008"><a xlink:title=" ">
<path fill="none" stroke="#63b8ff" d="M749.78,-229.79C638.53,-218.78 388.04,-194 271.61,-182.48"/>
<polygon fill="#63b8ff" stroke="#63b8ff" points="272.24,-179.02 261.94,-181.52 271.55,-185.99 272.24,-179.02"/>
</a>
</g>
</g>
<!-- Node22&#45;&gt;Node15 -->
<g id="edge37_Node000022_Node000015" class="edge">
<title>Node22&#45;&gt;Node15</title>
<g id="a_edge37_Node000022_Node000015"><a xlink:title=" ">
<path fill="none" stroke="#63b8ff" d="M749.59,-225.33C705.89,-216.77 643.7,-202.95 590.95,-185 550.08,-171.09 504.97,-149.48 477.04,-135.31"/>
<polygon fill="#63b8ff" stroke="#63b8ff" points="478.72,-132.24 468.23,-130.79 475.53,-138.47 478.72,-132.24"/>
</a>
</g>
</g>
<!-- Node22&#45;&gt;Node16 -->
<g id="edge29_Node000022_Node000016" class="edge">
<title>Node22&#45;&gt;Node16</title>
<g id="a_edge29_Node000022_Node000016"><a xlink:title=" ">
<path fill="none" stroke="#63b8ff" d="M784.44,-220.7C772.16,-211.99 756.57,-200.93 744.03,-192.03"/>
<polygon fill="#63b8ff" stroke="#63b8ff" points="746.16,-189.26 735.98,-186.33 742.11,-194.97 746.16,-189.26"/>
</a>
</g>
</g>
<!-- Node22&#45;&gt;Node17 -->
<g id="edge32_Node000022_Node000017" class="edge">
<title>Node22&#45;&gt;Node17</title>
<g id="a_edge32_Node000022_Node000017"><a xlink:title=" ">
<path fill="none" stroke="#63b8ff" d="M749.68,-231.65C714.48,-226.45 670.48,-214.09 642.95,-185 631.88,-173.3 628.15,-155.14 627.03,-141.16"/>
<polygon fill="#63b8ff" stroke="#63b8ff" points="630.54,-141.19 626.66,-131.33 623.54,-141.45 630.54,-141.19"/>
</a>
</g>
</g>
<!-- Node22&#45;&gt;Node19 -->
<g id="edge35_Node000022_Node000019" class="edge">
<title>Node22&#45;&gt;Node19</title>
<g id="a_edge35_Node000022_Node000019"><a xlink:title=" ">
<path fill="none" stroke="#63b8ff" d="M860.29,-228.06C886.95,-221.5 916.61,-208.97 932.95,-185 945.69,-166.31 923.4,-147.79 902.47,-135.54"/>
<polygon fill="#63b8ff" stroke="#63b8ff" points="904.24,-132.52 893.79,-130.78 900.88,-138.66 904.24,-132.52"/>
</a>
</g>
</g>
<!-- Node22&#45;&gt;Node21 -->
<g id="edge30_Node000022_Node000021" class="edge">
<title>Node22&#45;&gt;Node21</title>
<g id="a_edge30_Node000022_Node000021"><a xlink:title=" ">
<path fill="none" stroke="#63b8ff" d="M749.65,-225.92C687.51,-215.44 586.75,-198.44 520.91,-187.33"/>
<polygon fill="#63b8ff" stroke="#63b8ff" points="521.78,-183.93 511.34,-185.72 520.62,-190.83 521.78,-183.93"/>
</a>
</g>
</g>
<!-- Node22&#45;&gt;Node23 -->
<g id="edge31_Node000022_Node000023" class="edge">
<title>Node22&#45;&gt;Node23</title>
<g id="a_edge31_Node000022_Node000023"><a xlink:title=" ">
<path fill="none" stroke="#63b8ff" d="M860.24,-221.74C905.02,-210.8 966.98,-195.67 1006.77,-185.95"/>
<polygon fill="#63b8ff" stroke="#63b8ff" points="1007.51,-189.37 1016.4,-183.6 1005.85,-182.57 1007.51,-189.37"/>
</a>
</g>
</g>
<!-- Node22&#45;&gt;Node24 -->
<g id="edge33_Node000022_Node000024" class="edge">
<title>Node22&#45;&gt;Node24</title>
<g id="a_edge33_Node000022_Node000024"><a xlink:title=" ">
<path fill="none" stroke="#63b8ff" d="M860.21,-226.01C913.99,-216.84 998.31,-202.03 1080.47,-185.44"/>
<polygon fill="#63b8ff" stroke="#63b8ff" points="1080.94,-188.91 1090.04,-183.49 1079.54,-182.05 1080.94,-188.91"/>
</a>
</g>
</g>
<!-- Node25 -->
<g id="Node000025" class="node">
<title>Node25</title>
<g id="a_Node000025"><a xlink:title=" ">
<polygon fill="#e0e0e0" stroke="#999999" points="855.95,-185 809.95,-185 809.95,-165.75 855.95,-165.75 855.95,-185"/>
<text text-anchor="middle" x="832.95" y="-171.5" font-family="Helvetica,sans-Serif" font-size="10.00">iterator</text>
</a>
</g>
</g>
<!-- Node22&#45;&gt;Node25 -->
<g id="edge34_Node000022_Node000025" class="edge">
<title>Node22&#45;&gt;Node25</title>
<g id="a_edge34_Node000022_Node000025"><a xlink:title=" ">
<path fill="none" stroke="#63b8ff" d="M811.87,-220.7C815.44,-213.2 819.84,-203.95 823.69,-195.85"/>
<polygon fill="#63b8ff" stroke="#63b8ff" points="826.85,-197.35 827.99,-186.82 820.53,-194.35 826.85,-197.35"/>
</a>
</g>
</g>
<!-- Node26 -->
<g id="Node000026" class="node">
<title>Node26</title>
<g id="a_Node000026"><a xlink:title=" ">
<polygon fill="#e0e0e0" stroke="#999999" points="923.83,-185 874.08,-185 874.08,-165.75 923.83,-165.75 923.83,-185"/>
<text text-anchor="middle" x="898.95" y="-171.5" font-family="Helvetica,sans-Serif" font-size="10.00">typeinfo</text>
</a>
</g>
</g>
<!-- Node22&#45;&gt;Node26 -->
<g id="edge36_Node000022_Node000026" class="edge">
<title>Node22&#45;&gt;Node26</title>
<g id="a_edge36_Node000022_Node000026"><a xlink:title=" ">
<path fill="none" stroke="#63b8ff" d="M828.19,-220.7C842.36,-211.82 860.45,-200.49 874.79,-191.51"/>
<polygon fill="#63b8ff" stroke="#63b8ff" points="876.56,-194.53 883.18,-186.25 872.85,-188.6 876.56,-194.53"/>
</a>
</g>
</g>
<!-- Node27 -->
<g id="Node000027" class="node">
<title>Node27</title>
<g id="a_Node000027"><a xlink:href="../../d6/dac/_regex_8hpp.html" target="_top" xlink:title=" ">
<polygon fill="white" stroke="#666666" points="1057.95,-129.75 921.95,-129.75 921.95,-110.5 1057.95,-110.5 1057.95,-129.75"/>
<text text-anchor="middle" x="989.95" y="-116.25" font-family="Helvetica,sans-Serif" font-size="10.00">mimic++/utilities/Regex.hpp</text>
</a>
</g>
</g>
<!-- Node22&#45;&gt;Node27 -->
<g id="edge38_Node000022_Node000027" class="edge">
<title>Node22&#45;&gt;Node27</title>
<g id="a_edge38_Node000022_Node000027"><a xlink:title=" ">
<path fill="none" stroke="#63b8ff" d="M860.12,-225.08C888.86,-217.66 923.28,-205.25 948.95,-185 963.97,-173.15 975.14,-154.2 982,-140.01"/>
<polygon fill="#63b8ff" stroke="#63b8ff" points="985.03,-141.81 985.94,-131.26 978.64,-138.94 985.03,-141.81"/>
</a>
</g>
</g>
<!-- Node27&#45;&gt;Node6 -->
<g id="edge40_Node000027_Node000006" class="edge">
<title>Node27&#45;&gt;Node6</title>
<g id="a_edge40_Node000027_Node000006"><a xlink:title=" ">
<path fill="none" stroke="#63b8ff" d="M964.68,-110.09C938.99,-100.91 899.17,-86.68 871.68,-76.86"/>
<polygon fill="#63b8ff" stroke="#63b8ff" points="873.11,-73.65 862.51,-73.58 870.75,-80.24 873.11,-73.65"/>
</a>
</g>
</g>
<!-- Node27&#45;&gt;Node7 -->
<g id="edge41_Node000027_Node000007" class="edge">
<title>Node27&#45;&gt;Node7</title>
<g id="a_edge41_Node000027_Node000007"><a xlink:title=" ">
<path fill="none" stroke="#63b8ff" d="M921.76,-111.46C827.05,-100.78 660.49,-81.92 599.95,-74.5 593.04,-73.65 585.72,-72.73 578.57,-71.8"/>
<polygon fill="#63b8ff" stroke="#63b8ff" points="579.05,-68.34 568.68,-70.52 578.14,-75.28 579.05,-68.34"/>
</a>
</g>
</g>
<!-- Node28 -->
<g id="Node000028" class="node">
<title>Node28</title>
<g id="a_Node000028"><a xlink:title=" ">
<polygon fill="#e0e0e0" stroke="#999999" points="1009.58,-74.5 970.33,-74.5 970.33,-55.25 1009.58,-55.25 1009.58,-74.5"/>
<text text-anchor="middle" x="989.95" y="-61" font-family="Helvetica,sans-Serif" font-size="10.00">regex</text>
</a>
</g>
</g>
<!-- Node27&#45;&gt;Node28 -->
<g id="edge39_Node000027_Node000028" class="edge">
<title>Node27&#45;&gt;Node28</title>
<g id="a_edge39_Node000027_Node000028"><a xlink:title=" ">
<path fill="none" stroke="#63b8ff" d="M989.95,-110.33C989.95,-103.82 989.95,-94.67 989.95,-86.37"/>
<polygon fill="#63b8ff" stroke="#63b8ff" points="993.45,-86.37 989.95,-76.37 986.45,-86.37 993.45,-86.37"/>
</a>
</g>
</g>
</g>
</svg>
