<?xml version="1.0" encoding="UTF-8" standalone="no"?>
<!DOCTYPE svg PUBLIC "-//W3C//DTD SVG 1.1//EN"
 "http://www.w3.org/Graphics/SVG/1.1/DTD/svg11.dtd">
<!-- Generated by graphviz version 12.2.1 (20241206.2353)
 -->
<!-- Title: mimic++/printing/type/Templated.hpp Pages: 1 -->
<svg width="1382pt" height="337pt"
 viewBox="0.00 0.00 1382.50 337.25" xmlns="http://www.w3.org/2000/svg" xmlns:xlink="http://www.w3.org/1999/xlink">
<g id="graph0" class="graph" transform="scale(1 1) rotate(0) translate(4 333.25)">
<title>mimic++/printing/type/Templated.hpp</title>
<!-- Node1 -->
<g id="Node000001" class="node">
<title>Node1</title>
<g id="a_Node000001"><a xlink:title=" ">
<polygon fill="#999999" stroke="#666666" points="795.7,-329.25 685.95,-329.25 685.95,-298.75 795.7,-298.75 795.7,-329.25"/>
<text text-anchor="start" x="693.95" y="-315.75" font-family="Helvetica,sans-Serif" font-size="10.00">mimic++/printing/type</text>
<text text-anchor="middle" x="740.82" y="-304.5" font-family="Helvetica,sans-Serif" font-size="10.00">/Templated.hpp</text>
</a>
</g>
</g>
<!-- Node2 -->
<g id="Node000002" class="node">
<title>Node2</title>
<g id="a_Node000002"><a xlink:href="../../df/dde/_fwd_8hpp.html" target="_top" xlink:title=" ">
<polygon fill="white" stroke="#666666" points="580.82,-129.75 486.82,-129.75 486.82,-110.5 580.82,-110.5 580.82,-129.75"/>
<text text-anchor="middle" x="533.82" y="-116.25" font-family="Helvetica,sans-Serif" font-size="10.00">mimic++/Fwd.hpp</text>
</a>
</g>
</g>
<!-- Node1&#45;&gt;Node2 -->
<g id="edge1_Node000001_Node000002" class="edge">
<title>Node1&#45;&gt;Node2</title>
<g id="a_edge1_Node000001_Node000002"><a xlink:title=" ">
<path fill="none" stroke="#63b8ff" d="M766.79,-298.32C811.44,-271.3 894.22,-212.18 853.82,-165.75 849.55,-160.85 683.77,-139.66 592.55,-128.33"/>
<polygon fill="#63b8ff" stroke="#63b8ff" points="593.13,-124.88 582.77,-127.12 592.27,-131.82 593.13,-124.88"/>
</a>
</g>
</g>
<!-- Node3 -->
<g id="Node000003" class="node">
<title>Node3</title>
<g id="a_Node000003"><a xlink:href="../../d8/dd2/_config_8hpp.html" target="_top" xlink:title=" ">
<polygon fill="white" stroke="#666666" points="343.2,-74.5 212.45,-74.5 212.45,-55.25 343.2,-55.25 343.2,-74.5"/>
<text text-anchor="middle" x="277.82" y="-61" font-family="Helvetica,sans-Serif" font-size="10.00">mimic++/config/Config.hpp</text>
</a>
</g>
</g>
<!-- Node1&#45;&gt;Node3 -->
<g id="edge7_Node000001_Node000003" class="edge">
<title>Node1&#45;&gt;Node3</title>
<g id="a_edge7_Node000001_Node000003"><a xlink:title=" ">
<path fill="none" stroke="#63b8ff" d="M685.53,-311.61C537.04,-307.47 137.35,-293.56 86.82,-262.75 23.54,-224.17 -28.93,-167.18 18.82,-110.5 41.79,-83.23 133.26,-72.62 201.02,-68.5"/>
<polygon fill="#63b8ff" stroke="#63b8ff" points="200.8,-72.02 210.59,-67.96 200.41,-65.03 200.8,-72.02"/>
</a>
</g>
</g>
<!-- Node8 -->
<g id="Node000008" class="node">
<title>Node8</title>
<g id="a_Node000008"><a xlink:href="../../d5/dec/_format_8hpp.html" target="_top" xlink:title=" ">
<polygon fill="white" stroke="#666666" points="227.07,-190.62 86.57,-190.62 86.57,-171.38 227.07,-171.38 227.07,-190.62"/>
<text text-anchor="middle" x="156.82" y="-177.12" font-family="Helvetica,sans-Serif" font-size="10.00">mimic++/printing/Format.hpp</text>
</a>
</g>
</g>
<!-- Node1&#45;&gt;Node8 -->
<g id="edge8_Node000001_Node000008" class="edge">
<title>Node1&#45;&gt;Node8</title>
<g id="a_edge8_Node000001_Node000008"><a xlink:title=" ">
<path fill="none" stroke="#63b8ff" d="M685.82,-311.97C572.87,-309.12 318.83,-298.8 240.82,-262.75 210.62,-248.79 184.56,-219.45 169.78,-200.24"/>
<polygon fill="#63b8ff" stroke="#63b8ff" points="172.61,-198.19 163.85,-192.23 166.99,-202.35 172.61,-198.19"/>
</a>
</g>
</g>
<!-- Node9 -->
<g id="Node000009" class="node">
<title>Node9</title>
<g id="a_Node000009"><a xlink:title=" ">
<polygon fill="#e0e0e0" stroke="#999999" points="674.7,-129.75 618.95,-129.75 618.95,-110.5 674.7,-110.5 674.7,-129.75"/>
<text text-anchor="middle" x="646.82" y="-116.25" font-family="Helvetica,sans-Serif" font-size="10.00">concepts</text>
</a>
</g>
</g>
<!-- Node1&#45;&gt;Node9 -->
<g id="edge40_Node000001_Node000009" class="edge">
<title>Node1&#45;&gt;Node9</title>
<g id="a_edge40_Node000001_Node000009"><a xlink:title=" ">
<path fill="none" stroke="#63b8ff" d="M685.86,-308C572.96,-296.42 321.51,-263.47 273.82,-196.25 214.55,-112.71 189.17,-182.87 589.82,-129.75 595.56,-128.99 601.62,-128.13 607.57,-127.26"/>
<polygon fill="#63b8ff" stroke="#63b8ff" points="607.86,-130.75 617.23,-125.81 606.82,-123.83 607.86,-130.75"/>
</a>
</g>
</g>
<!-- Node11 -->
<g id="Node000011" class="node">
<title>Node11</title>
<g id="a_Node000011"><a xlink:title=" ">
<polygon fill="#e0e0e0" stroke="#999999" points="89.32,-129.75 28.32,-129.75 28.32,-110.5 89.32,-110.5 89.32,-129.75"/>
<text text-anchor="middle" x="58.82" y="-116.25" font-family="Helvetica,sans-Serif" font-size="10.00">type_traits</text>
</a>
</g>
</g>
<!-- Node1&#45;&gt;Node11 -->
<g id="edge44_Node000001_Node000011" class="edge">
<title>Node1&#45;&gt;Node11</title>
<g id="a_edge44_Node000001_Node000011"><a xlink:title=" ">
<path fill="none" stroke="#63b8ff" d="M685.8,-310.4C566.43,-304.35 287.08,-287.92 195.82,-262.75 129.8,-244.54 93.33,-254.19 56.82,-196.25 46.4,-179.71 48.86,-156.8 52.69,-140.64"/>
<polygon fill="#63b8ff" stroke="#63b8ff" points="55.99,-141.85 55.3,-131.28 49.25,-139.97 55.99,-141.85"/>
</a>
</g>
</g>
<!-- Node12 -->
<g id="Node000012" class="node">
<title>Node12</title>
<g id="a_Node000012"><a xlink:title=" ">
<polygon fill="#e0e0e0" stroke="#999999" points="930.07,-129.75 891.57,-129.75 891.57,-110.5 930.07,-110.5 930.07,-129.75"/>
<text text-anchor="middle" x="910.82" y="-116.25" font-family="Helvetica,sans-Serif" font-size="10.00">utility</text>
</a>
</g>
</g>
<!-- Node1&#45;&gt;Node12 -->
<g id="edge45_Node000001_Node000012" class="edge">
<title>Node1&#45;&gt;Node12</title>
<g id="a_edge45_Node000001_Node000012"><a xlink:title=" ">
<path fill="none" stroke="#63b8ff" d="M796.09,-307.71C827.26,-301.77 864.36,-289.22 886.82,-262.75 916.18,-228.14 915.93,-171.16 913.32,-141.11"/>
<polygon fill="#63b8ff" stroke="#63b8ff" points="916.84,-141.1 912.3,-131.53 909.88,-141.84 916.84,-141.1"/>
</a>
</g>
</g>
<!-- Node14 -->
<g id="Node000014" class="node">
<title>Node14</title>
<g id="a_Node000014"><a xlink:href="../../de/d52/printing_2_fwd_8hpp.html" target="_top" xlink:title=" ">
<polygon fill="white" stroke="#666666" points="411.07,-190.62 282.57,-190.62 282.57,-171.38 411.07,-171.38 411.07,-190.62"/>
<text text-anchor="middle" x="346.82" y="-177.12" font-family="Helvetica,sans-Serif" font-size="10.00">mimic++/printing/Fwd.hpp</text>
</a>
</g>
</g>
<!-- Node1&#45;&gt;Node14 -->
<g id="edge16_Node000001_Node000014" class="edge">
<title>Node1&#45;&gt;Node14</title>
<g id="a_edge16_Node000001_Node000014"><a xlink:title=" ">
<path fill="none" stroke="#63b8ff" d="M685.75,-301C646.14,-291.86 591.68,-278.23 544.82,-262.75 484.02,-242.66 415.27,-212.99 376.88,-195.76"/>
<polygon fill="#63b8ff" stroke="#63b8ff" points="378.37,-192.6 367.82,-191.67 375.49,-198.98 378.37,-192.6"/>
</a>
</g>
</g>
<!-- Node15 -->
<g id="Node000015" class="node">
<title>Node15</title>
<g id="a_Node000015"><a xlink:href="../../da/db0/_print_type_8hpp.html" target="_top" xlink:title=" ">
<polygon fill="white" stroke="#666666" points="663.7,-262.75 553.95,-262.75 553.95,-232.25 663.7,-232.25 663.7,-262.75"/>
<text text-anchor="start" x="561.95" y="-249.25" font-family="Helvetica,sans-Serif" font-size="10.00">mimic++/printing/type</text>
<text text-anchor="middle" x="608.82" y="-238" font-family="Helvetica,sans-Serif" font-size="10.00">/PrintType.hpp</text>
</a>
</g>
</g>
<!-- Node1&#45;&gt;Node15 -->
<g id="edge17_Node000001_Node000015" class="edge">
<title>Node1&#45;&gt;Node15</title>
<g id="a_edge17_Node000001_Node000015"><a xlink:title=" ">
<path fill="none" stroke="#63b8ff" d="M710.87,-298.36C692.56,-289.42 668.9,-277.86 648.98,-268.12"/>
<polygon fill="#63b8ff" stroke="#63b8ff" points="650.54,-264.99 640.01,-263.74 647.46,-271.28 650.54,-264.99"/>
</a>
</g>
</g>
<!-- Node18 -->
<g id="Node000018" class="node">
<title>Node18</title>
<g id="a_Node000018"><a xlink:title=" ">
<polygon fill="#e0e0e0" stroke="#999999" points="768.7,-190.62 712.95,-190.62 712.95,-171.38 768.7,-171.38 768.7,-190.62"/>
<text text-anchor="middle" x="740.82" y="-177.12" font-family="Helvetica,sans-Serif" font-size="10.00">algorithm</text>
</a>
</g>
</g>
<!-- Node1&#45;&gt;Node18 -->
<g id="edge39_Node000001_Node000018" class="edge">
<title>Node1&#45;&gt;Node18</title>
<g id="a_edge39_Node000001_Node000018"><a xlink:title=" ">
<path fill="none" stroke="#63b8ff" d="M740.82,-298.48C740.82,-275.12 740.82,-229.13 740.82,-202.46"/>
<polygon fill="#63b8ff" stroke="#63b8ff" points="744.32,-202.61 740.82,-192.61 737.32,-202.61 744.32,-202.61"/>
</a>
</g>
</g>
<!-- Node19 -->
<g id="Node000019" class="node">
<title>Node19</title>
<g id="a_Node000019"><a xlink:title=" ">
<polygon fill="#e0e0e0" stroke="#999999" points="844.82,-190.62 786.82,-190.62 786.82,-171.38 844.82,-171.38 844.82,-190.62"/>
<text text-anchor="middle" x="815.82" y="-177.12" font-family="Helvetica,sans-Serif" font-size="10.00">functional</text>
</a>
</g>
</g>
<!-- Node1&#45;&gt;Node19 -->
<g id="edge41_Node000001_Node000019" class="edge">
<title>Node1&#45;&gt;Node19</title>
<g id="a_edge41_Node000001_Node000019"><a xlink:title=" ">
<path fill="none" stroke="#63b8ff" d="M749.13,-298.48C762.75,-274.7 789.8,-227.45 804.93,-201.02"/>
<polygon fill="#63b8ff" stroke="#63b8ff" points="807.93,-202.83 809.86,-192.41 801.85,-199.35 807.93,-202.83"/>
</a>
</g>
</g>
<!-- Node22 -->
<g id="Node000022" class="node">
<title>Node22</title>
<g id="a_Node000022"><a xlink:href="../../df/d2e/_type_list_8hpp.html" target="_top" xlink:title=" ">
<polygon fill="white" stroke="#666666" points="1105.07,-257.12 958.57,-257.12 958.57,-237.88 1105.07,-237.88 1105.07,-257.12"/>
<text text-anchor="middle" x="1031.82" y="-243.62" font-family="Helvetica,sans-Serif" font-size="10.00">mimic++/utilities/TypeList.hpp</text>
</a>
</g>
</g>
<!-- Node1&#45;&gt;Node22 -->
<g id="edge31_Node000001_Node000022" class="edge">
<title>Node1&#45;&gt;Node22</title>
<g id="a_edge31_Node000001_Node000022"><a xlink:title=" ">
<path fill="none" stroke="#63b8ff" d="M795.9,-300.79C848.86,-289.05 928.3,-271.45 980.1,-259.96"/>
<polygon fill="#63b8ff" stroke="#63b8ff" points="980.56,-263.45 989.56,-257.87 979.04,-256.61 980.56,-263.45"/>
</a>
</g>
</g>
<!-- Node25 -->
<g id="Node000025" class="node">
<title>Node25</title>
<g id="a_Node000025"><a xlink:title=" ">
<polygon fill="#e0e0e0" stroke="#999999" points="1174.07,-257.12 1123.57,-257.12 1123.57,-237.88 1174.07,-237.88 1174.07,-257.12"/>
<text text-anchor="middle" x="1148.82" y="-243.62" font-family="Helvetica,sans-Serif" font-size="10.00">memory</text>
</a>
</g>
</g>
<!-- Node1&#45;&gt;Node25 -->
<g id="edge42_Node000001_Node000025" class="edge">
<title>Node1&#45;&gt;Node25</title>
<g id="a_edge42_Node000001_Node000025"><a xlink:title=" ">
<path fill="none" stroke="#63b8ff" d="M796.03,-309.93C869.59,-304.85 1003.32,-292.18 1113.82,-262.75 1115.4,-262.33 1117.01,-261.85 1118.63,-261.34"/>
<polygon fill="#63b8ff" stroke="#63b8ff" points="1119.5,-264.75 1127.71,-258.05 1117.11,-258.16 1119.5,-264.75"/>
</a>
</g>
</g>
<!-- Node26 -->
<g id="Node000026" class="node">
<title>Node26</title>
<g id="a_Node000026"><a xlink:title=" ">
<polygon fill="#e0e0e0" stroke="#999999" points="1285.45,-257.12 1192.2,-257.12 1192.2,-237.88 1285.45,-237.88 1285.45,-257.12"/>
<text text-anchor="middle" x="1238.82" y="-243.62" font-family="Helvetica,sans-Serif" font-size="10.00">memory_resource</text>
</a>
</g>
</g>
<!-- Node1&#45;&gt;Node26 -->
<g id="edge43_Node000001_Node000026" class="edge">
<title>Node1&#45;&gt;Node26</title>
<g id="a_edge43_Node000001_Node000026"><a xlink:title=" ">
<path fill="none" stroke="#63b8ff" d="M795.95,-309.15C879.94,-302.75 1044.75,-288.04 1182.82,-262.75 1186.86,-262.01 1191.03,-261.14 1195.2,-260.21"/>
<polygon fill="#63b8ff" stroke="#63b8ff" points="1195.72,-263.68 1204.64,-257.97 1194.1,-256.87 1195.72,-263.68"/>
</a>
</g>
</g>
<!-- Node2&#45;&gt;Node3 -->
<g id="edge2_Node000002_Node000003" class="edge">
<title>Node2&#45;&gt;Node3</title>
<g id="a_edge2_Node000002_Node000003"><a xlink:title=" ">
<path fill="none" stroke="#63b8ff" d="M490.1,-110.03C446.57,-100.98 379.61,-87.05 332.56,-77.26"/>
<polygon fill="#63b8ff" stroke="#63b8ff" points="333.34,-73.85 322.84,-75.24 331.92,-80.7 333.34,-73.85"/>
</a>
</g>
</g>
<!-- Node6 -->
<g id="Node000006" class="node">
<title>Node6</title>
<g id="a_Node000006"><a xlink:title=" ">
<polygon fill="#e0e0e0" stroke="#999999" points="588.82,-74.5 548.82,-74.5 548.82,-55.25 588.82,-55.25 588.82,-74.5"/>
<text text-anchor="middle" x="568.82" y="-61" font-family="Helvetica,sans-Serif" font-size="10.00">string</text>
</a>
</g>
</g>
<!-- Node2&#45;&gt;Node6 -->
<g id="edge5_Node000002_Node000006" class="edge">
<title>Node2&#45;&gt;Node6</title>
<g id="a_edge5_Node000002_Node000006"><a xlink:title=" ">
<path fill="none" stroke="#63b8ff" d="M539.6,-110.33C544.23,-103.28 550.89,-93.15 556.69,-84.33"/>
<polygon fill="#63b8ff" stroke="#63b8ff" points="559.52,-86.4 562.08,-76.12 553.67,-82.56 559.52,-86.4"/>
</a>
</g>
</g>
<!-- Node7 -->
<g id="Node000007" class="node">
<title>Node7</title>
<g id="a_Node000007"><a xlink:title=" ">
<polygon fill="#e0e0e0" stroke="#999999" points="530.57,-74.5 465.07,-74.5 465.07,-55.25 530.57,-55.25 530.57,-74.5"/>
<text text-anchor="middle" x="497.82" y="-61" font-family="Helvetica,sans-Serif" font-size="10.00">string_view</text>
</a>
</g>
</g>
<!-- Node2&#45;&gt;Node7 -->
<g id="edge6_Node000002_Node000007" class="edge">
<title>Node2&#45;&gt;Node7</title>
<g id="a_edge6_Node000002_Node000007"><a xlink:title=" ">
<path fill="none" stroke="#63b8ff" d="M527.88,-110.33C523.11,-103.28 516.26,-93.15 510.3,-84.33"/>
<polygon fill="#63b8ff" stroke="#63b8ff" points="513.24,-82.44 504.74,-76.11 507.44,-86.36 513.24,-82.44"/>
</a>
</g>
</g>
<!-- Node4 -->
<g id="Node000004" class="node">
<title>Node4</title>
<g id="a_Node000004"><a xlink:title=" ">
<polygon fill="#e0e0e0" stroke="#999999" points="268.45,-19.25 223.2,-19.25 223.2,0 268.45,0 268.45,-19.25"/>
<text text-anchor="middle" x="245.82" y="-5.75" font-family="Helvetica,sans-Serif" font-size="10.00">cstdint</text>
</a>
</g>
</g>
<!-- Node3&#45;&gt;Node4 -->
<g id="edge3_Node000003_Node000004" class="edge">
<title>Node3&#45;&gt;Node4</title>
<g id="a_edge3_Node000003_Node000004"><a xlink:title=" ">
<path fill="none" stroke="#63b8ff" d="M272.54,-55.08C268.35,-48.11 262.34,-38.12 257.09,-29.37"/>
<polygon fill="#63b8ff" stroke="#63b8ff" points="260.15,-27.68 252,-20.91 254.15,-31.28 260.15,-27.68"/>
</a>
</g>
</g>
<!-- Node5 -->
<g id="Node000005" class="node">
<title>Node5</title>
<g id="a_Node000005"><a xlink:title=" ">
<polygon fill="#e0e0e0" stroke="#999999" points="333.57,-19.25 286.07,-19.25 286.07,0 333.57,0 333.57,-19.25"/>
<text text-anchor="middle" x="309.82" y="-5.75" font-family="Helvetica,sans-Serif" font-size="10.00">version</text>
</a>
</g>
</g>
<!-- Node3&#45;&gt;Node5 -->
<g id="edge4_Node000003_Node000005" class="edge">
<title>Node3&#45;&gt;Node5</title>
<g id="a_edge4_Node000003_Node000005"><a xlink:title=" ">
<path fill="none" stroke="#63b8ff" d="M283.1,-55.08C287.29,-48.11 293.3,-38.12 298.55,-29.37"/>
<polygon fill="#63b8ff" stroke="#63b8ff" points="301.49,-31.28 303.64,-20.91 295.49,-27.68 301.49,-31.28"/>
</a>
</g>
</g>
<!-- Node8&#45;&gt;Node2 -->
<g id="edge9_Node000008_Node000002" class="edge">
<title>Node8&#45;&gt;Node2</title>
<g id="a_edge9_Node000008_Node000002"><a xlink:title=" ">
<path fill="none" stroke="#63b8ff" d="M209.67,-170.89C220,-169.15 230.74,-167.37 240.82,-165.75 321.9,-152.7 415.77,-138.58 474.97,-129.79"/>
<polygon fill="#63b8ff" stroke="#63b8ff" points="475.46,-133.26 484.83,-128.33 474.43,-126.33 475.46,-133.26"/>
</a>
</g>
</g>
<!-- Node8&#45;&gt;Node3 -->
<g id="edge10_Node000008_Node000003" class="edge">
<title>Node8&#45;&gt;Node3</title>
<g id="a_edge10_Node000008_Node000003"><a xlink:title=" ">
<path fill="none" stroke="#63b8ff" d="M153.81,-170.92C149.68,-156.65 144.12,-128.71 156.82,-110.5 167.42,-95.29 183.83,-85.25 201.17,-78.63"/>
<polygon fill="#63b8ff" stroke="#63b8ff" points="202.27,-81.95 210.62,-75.42 200.02,-75.32 202.27,-81.95"/>
</a>
</g>
</g>
<!-- Node8&#45;&gt;Node9 -->
<g id="edge11_Node000008_Node000009" class="edge">
<title>Node8&#45;&gt;Node9</title>
<g id="a_edge11_Node000008_Node000009"><a xlink:title=" ">
<path fill="none" stroke="#63b8ff" d="M206.93,-170.95C218.07,-169.09 229.83,-167.25 240.82,-165.75 395.33,-144.7 435.13,-149.42 589.82,-129.75 595.57,-129.02 601.63,-128.18 607.57,-127.31"/>
<polygon fill="#63b8ff" stroke="#63b8ff" points="607.86,-130.81 617.24,-125.87 606.83,-123.89 607.86,-130.81"/>
</a>
</g>
</g>
<!-- Node10 -->
<g id="Node000010" class="node">
<title>Node10</title>
<g id="a_Node000010"><a xlink:title=" ">
<polygon fill="#e0e0e0" stroke="#999999" points="217.45,-129.75 166.2,-129.75 166.2,-110.5 217.45,-110.5 217.45,-129.75"/>
<text text-anchor="middle" x="191.82" y="-116.25" font-family="Helvetica,sans-Serif" font-size="10.00">sstream</text>
</a>
</g>
</g>
<!-- Node8&#45;&gt;Node10 -->
<g id="edge12_Node000008_Node000010" class="edge">
<title>Node8&#45;&gt;Node10</title>
<g id="a_edge12_Node000008_Node000010"><a xlink:title=" ">
<path fill="none" stroke="#63b8ff" d="M162.14,-171.06C167.02,-162.85 174.41,-150.41 180.6,-140"/>
<polygon fill="#63b8ff" stroke="#63b8ff" points="183.58,-141.84 185.68,-131.45 177.56,-138.26 183.58,-141.84"/>
</a>
</g>
</g>
<!-- Node8&#45;&gt;Node11 -->
<g id="edge13_Node000008_Node000011" class="edge">
<title>Node8&#45;&gt;Node11</title>
<g id="a_edge13_Node000008_Node000011"><a xlink:title=" ">
<path fill="none" stroke="#63b8ff" d="M141.94,-171.06C126.47,-161.76 101.99,-147.06 83.6,-136.01"/>
<polygon fill="#63b8ff" stroke="#63b8ff" points="85.52,-133.08 75.14,-130.93 81.91,-139.08 85.52,-133.08"/>
</a>
</g>
</g>
<!-- Node8&#45;&gt;Node12 -->
<g id="edge14_Node000008_Node000012" class="edge">
<title>Node8&#45;&gt;Node12</title>
<g id="a_edge14_Node000008_Node000012"><a xlink:title=" ">
<path fill="none" stroke="#63b8ff" d="M226.67,-170.9C242.18,-169.04 258.54,-167.21 273.82,-165.75 506.43,-143.45 787.85,-127.62 880,-122.72"/>
<polygon fill="#63b8ff" stroke="#63b8ff" points="879.93,-126.23 889.73,-122.21 879.56,-119.24 879.93,-126.23"/>
</a>
</g>
</g>
<!-- Node13 -->
<g id="Node000013" class="node">
<title>Node13</title>
<g id="a_Node000013"><a xlink:title=" ">
<polygon fill="#e0e0e0" stroke="#999999" points="279.7,-129.75 235.95,-129.75 235.95,-110.5 279.7,-110.5 279.7,-129.75"/>
<text text-anchor="middle" x="257.82" y="-116.25" font-family="Helvetica,sans-Serif" font-size="10.00">format</text>
</a>
</g>
</g>
<!-- Node8&#45;&gt;Node13 -->
<g id="edge15_Node000008_Node000013" class="edge">
<title>Node8&#45;&gt;Node13</title>
<g id="a_edge15_Node000008_Node000013"><a xlink:title=" ">
<path fill="none" stroke="#63b8ff" d="M172.16,-171.06C188.18,-161.72 213.56,-146.92 232.55,-135.86"/>
<polygon fill="#63b8ff" stroke="#63b8ff" points="234.15,-138.97 241.03,-130.91 230.63,-132.93 234.15,-138.97"/>
</a>
</g>
</g>
<!-- Node15&#45;&gt;Node2 -->
<g id="edge18_Node000015_Node000002" class="edge">
<title>Node15&#45;&gt;Node2</title>
<g id="a_edge18_Node000015_Node000002"><a xlink:title=" ">
<path fill="none" stroke="#63b8ff" d="M608.24,-231.99C606.95,-214.92 602.84,-186.31 589.82,-165.75 582.33,-153.93 570.61,-143.88 559.81,-136.32"/>
<polygon fill="#63b8ff" stroke="#63b8ff" points="561.87,-133.48 551.58,-130.94 558.03,-139.34 561.87,-133.48"/>
</a>
</g>
</g>
<!-- Node15&#45;&gt;Node3 -->
<g id="edge19_Node000015_Node000003" class="edge">
<title>Node15&#45;&gt;Node3</title>
<g id="a_edge19_Node000015_Node000003"><a xlink:title=" ">
<path fill="none" stroke="#63b8ff" d="M553.78,-233.27C524.27,-224.94 487.91,-212.64 457.82,-196.25 438.8,-185.89 437.13,-178.76 419.82,-165.75 378.62,-134.78 329.11,-100.62 300.76,-81.35"/>
<polygon fill="#63b8ff" stroke="#63b8ff" points="302.83,-78.52 292.59,-75.81 298.9,-84.32 302.83,-78.52"/>
</a>
</g>
</g>
<!-- Node15&#45;&gt;Node8 -->
<g id="edge20_Node000015_Node000008" class="edge">
<title>Node15&#45;&gt;Node8</title>
<g id="a_edge20_Node000015_Node000008"><a xlink:title=" ">
<path fill="none" stroke="#63b8ff" d="M553.85,-238.66C473.19,-227.15 322.53,-205.65 231.79,-192.7"/>
<polygon fill="#63b8ff" stroke="#63b8ff" points="232.37,-189.25 221.98,-191.3 231.39,-196.18 232.37,-189.25"/>
</a>
</g>
</g>
<!-- Node15&#45;&gt;Node9 -->
<g id="edge25_Node000015_Node000009" class="edge">
<title>Node15&#45;&gt;Node9</title>
<g id="a_edge25_Node000015_Node000009"><a xlink:title=" ">
<path fill="none" stroke="#63b8ff" d="M613.18,-232.12C619.98,-209.68 633.13,-166.28 640.82,-140.91"/>
<polygon fill="#63b8ff" stroke="#63b8ff" points="644.12,-142.1 643.67,-131.52 637.42,-140.07 644.12,-142.1"/>
</a>
</g>
</g>
<!-- Node15&#45;&gt;Node11 -->
<g id="edge28_Node000015_Node000011" class="edge">
<title>Node15&#45;&gt;Node11</title>
<g id="a_edge28_Node000015_Node000011"><a xlink:title=" ">
<path fill="none" stroke="#63b8ff" d="M553.6,-244.83C424.95,-240.44 113.41,-226.76 77.82,-196.25 62.28,-182.93 58.5,-158.9 57.99,-141.61"/>
<polygon fill="#63b8ff" stroke="#63b8ff" points="61.49,-141.76 58.08,-131.73 54.49,-141.7 61.49,-141.76"/>
</a>
</g>
</g>
<!-- Node15&#45;&gt;Node12 -->
<g id="edge30_Node000015_Node000012" class="edge">
<title>Node15&#45;&gt;Node12</title>
<g id="a_edge30_Node000015_Node000012"><a xlink:title=" ">
<path fill="none" stroke="#63b8ff" d="M621.71,-231.77C638.66,-213.37 670.24,-182.32 703.82,-165.75 761.88,-137.1 838.02,-126.75 879.89,-123.08"/>
<polygon fill="#63b8ff" stroke="#63b8ff" points="880.04,-126.58 889.73,-122.3 879.48,-119.6 880.04,-126.58"/>
</a>
</g>
</g>
<!-- Node15&#45;&gt;Node14 -->
<g id="edge21_Node000015_Node000014" class="edge">
<title>Node15&#45;&gt;Node14</title>
<g id="a_edge21_Node000015_Node000014"><a xlink:title=" ">
<path fill="none" stroke="#63b8ff" d="M553.58,-232.9C506.52,-221.32 439.59,-204.84 394.76,-193.8"/>
<polygon fill="#63b8ff" stroke="#63b8ff" points="395.88,-190.47 385.33,-191.48 394.2,-197.27 395.88,-190.47"/>
</a>
</g>
</g>
<!-- Node16 -->
<g id="Node000016" class="node">
<title>Node16</title>
<g id="a_Node000016"><a xlink:href="../../d8/d65/_priority_tag_8hpp.html" target="_top" xlink:title=" ">
<polygon fill="white" stroke="#666666" points="1304.32,-196.25 1183.32,-196.25 1183.32,-165.75 1304.32,-165.75 1304.32,-196.25"/>
<text text-anchor="start" x="1191.32" y="-182.75" font-family="Helvetica,sans-Serif" font-size="10.00">mimic++/utilities/Priority</text>
<text text-anchor="middle" x="1243.82" y="-171.5" font-family="Helvetica,sans-Serif" font-size="10.00">Tag.hpp</text>
</a>
</g>
</g>
<!-- Node15&#45;&gt;Node16 -->
<g id="edge22_Node000015_Node000016" class="edge">
<title>Node15&#45;&gt;Node16</title>
<g id="a_edge22_Node000015_Node000016"><a xlink:title=" ">
<path fill="none" stroke="#63b8ff" d="M663.89,-241.91C759.86,-233.76 963.91,-215.78 1135.82,-196.25 1147.43,-194.93 1159.72,-193.42 1171.69,-191.88"/>
<polygon fill="#63b8ff" stroke="#63b8ff" points="1172.07,-195.36 1181.54,-190.61 1171.17,-188.42 1172.07,-195.36"/>
</a>
</g>
</g>
<!-- Node15&#45;&gt;Node18 -->
<g id="edge24_Node000015_Node000018" class="edge">
<title>Node15&#45;&gt;Node18</title>
<g id="a_edge24_Node000015_Node000018"><a xlink:title=" ">
<path fill="none" stroke="#63b8ff" d="M638.77,-231.86C660.77,-221.12 690.47,-206.61 712.15,-196.01"/>
<polygon fill="#63b8ff" stroke="#63b8ff" points="713.57,-199.21 721.02,-191.67 710.5,-192.92 713.57,-199.21"/>
</a>
</g>
</g>
<!-- Node15&#45;&gt;Node19 -->
<g id="edge26_Node000015_Node000019" class="edge">
<title>Node15&#45;&gt;Node19</title>
<g id="a_edge26_Node000015_Node000019"><a xlink:title=" ">
<path fill="none" stroke="#63b8ff" d="M661.64,-231.82C695.12,-222.26 739.23,-209.21 777.82,-196.25 779.17,-195.8 780.55,-195.32 781.94,-194.84"/>
<polygon fill="#63b8ff" stroke="#63b8ff" points="782.95,-198.2 791.18,-191.51 780.58,-191.61 782.95,-198.2"/>
</a>
</g>
</g>
<!-- Node20 -->
<g id="Node000020" class="node">
<title>Node20</title>
<g id="a_Node000020"><a xlink:title=" ">
<polygon fill="#e0e0e0" stroke="#999999" points="512.82,-190.62 466.82,-190.62 466.82,-171.38 512.82,-171.38 512.82,-190.62"/>
<text text-anchor="middle" x="489.82" y="-177.12" font-family="Helvetica,sans-Serif" font-size="10.00">iterator</text>
</a>
</g>
</g>
<!-- Node15&#45;&gt;Node20 -->
<g id="edge27_Node000015_Node000020" class="edge">
<title>Node15&#45;&gt;Node20</title>
<g id="a_edge27_Node000015_Node000020"><a xlink:title=" ">
<path fill="none" stroke="#63b8ff" d="M581.82,-231.86C562.26,-221.26 535.95,-207 516.47,-196.45"/>
<polygon fill="#63b8ff" stroke="#63b8ff" points="518.23,-193.42 507.77,-191.73 514.9,-199.57 518.23,-193.42"/>
</a>
</g>
</g>
<!-- Node21 -->
<g id="Node000021" class="node">
<title>Node21</title>
<g id="a_Node000021"><a xlink:title=" ">
<polygon fill="#e0e0e0" stroke="#999999" points="580.7,-190.62 530.95,-190.62 530.95,-171.38 580.7,-171.38 580.7,-190.62"/>
<text text-anchor="middle" x="555.82" y="-177.12" font-family="Helvetica,sans-Serif" font-size="10.00">typeinfo</text>
</a>
</g>
</g>
<!-- Node15&#45;&gt;Node21 -->
<g id="edge29_Node000015_Node000021" class="edge">
<title>Node15&#45;&gt;Node21</title>
<g id="a_edge29_Node000015_Node000021"><a xlink:title=" ">
<path fill="none" stroke="#63b8ff" d="M596.79,-231.86C588.92,-222.29 578.6,-209.72 570.28,-199.6"/>
<polygon fill="#63b8ff" stroke="#63b8ff" points="573.08,-197.5 564.03,-191.99 567.68,-201.94 573.08,-197.5"/>
</a>
</g>
</g>
<!-- Node17 -->
<g id="Node000017" class="node">
<title>Node17</title>
<g id="a_Node000017"><a xlink:title=" ">
<polygon fill="#e0e0e0" stroke="#999999" points="1339.95,-129.75 1291.7,-129.75 1291.7,-110.5 1339.95,-110.5 1339.95,-129.75"/>
<text text-anchor="middle" x="1315.82" y="-116.25" font-family="Helvetica,sans-Serif" font-size="10.00">cstddef</text>
</a>
</g>
</g>
<!-- Node16&#45;&gt;Node17 -->
<g id="edge23_Node000016_Node000017" class="edge">
<title>Node16&#45;&gt;Node17</title>
<g id="a_edge23_Node000016_Node000017"><a xlink:title=" ">
<path fill="none" stroke="#63b8ff" d="M1261.62,-165.45C1272.05,-156.91 1285.26,-146.12 1296.02,-137.31"/>
<polygon fill="#63b8ff" stroke="#63b8ff" points="1298.02,-140.2 1303.55,-131.16 1293.59,-134.78 1298.02,-140.2"/>
</a>
</g>
</g>
<!-- Node22&#45;&gt;Node9 -->
<g id="edge35_Node000022_Node000009" class="edge">
<title>Node22&#45;&gt;Node9</title>
<g id="a_edge35_Node000022_Node000009"><a xlink:title=" ">
<path fill="none" stroke="#63b8ff" d="M1018.92,-237.4C994.4,-220.55 938.86,-184.51 886.82,-165.75 818.68,-141.19 734.55,-129.53 686.16,-124.5"/>
<polygon fill="#63b8ff" stroke="#63b8ff" points="686.74,-121.04 676.45,-123.53 686.05,-128 686.74,-121.04"/>
</a>
</g>
</g>
<!-- Node22&#45;&gt;Node12 -->
<g id="edge38_Node000022_Node000012" class="edge">
<title>Node22&#45;&gt;Node12</title>
<g id="a_edge38_Node000022_Node000012"><a xlink:title=" ">
<path fill="none" stroke="#63b8ff" d="M1061.76,-237.45C1100.94,-224.1 1161.71,-197.28 1135.82,-165.75 1111.57,-136.22 997.22,-125.88 941.5,-122.56"/>
<polygon fill="#63b8ff" stroke="#63b8ff" points="941.93,-119.08 931.75,-122.02 941.54,-126.07 941.93,-119.08"/>
</a>
</g>
</g>
<!-- Node22&#45;&gt;Node17 -->
<g id="edge36_Node000022_Node000017" class="edge">
<title>Node22&#45;&gt;Node17</title>
<g id="a_edge36_Node000022_Node000017"><a xlink:title=" ">
<path fill="none" stroke="#63b8ff" d="M1083.14,-237.45C1093.61,-235.67 1104.56,-233.86 1114.82,-232.25 1171.14,-223.43 1331.44,-239.3 1368.82,-196.25 1377.71,-186.01 1374.54,-178.04 1368.82,-165.75 1363.24,-153.77 1352.69,-143.85 1342.46,-136.43"/>
<polygon fill="#63b8ff" stroke="#63b8ff" points="1344.45,-133.55 1334.18,-130.94 1340.58,-139.38 1344.45,-133.55"/>
</a>
</g>
</g>
<!-- Node23 -->
<g id="Node000023" class="node">
<title>Node23</title>
<g id="a_Node000023"><a xlink:href="../../d9/db9/_concepts_8hpp.html" target="_top" xlink:title=" ">
<polygon fill="white" stroke="#666666" points="1126.95,-190.62 976.7,-190.62 976.7,-171.38 1126.95,-171.38 1126.95,-190.62"/>
<text text-anchor="middle" x="1051.82" y="-177.12" font-family="Helvetica,sans-Serif" font-size="10.00">mimic++/utilities/Concepts.hpp</text>
</a>
</g>
</g>
<!-- Node22&#45;&gt;Node23 -->
<g id="edge32_Node000022_Node000023" class="edge">
<title>Node22&#45;&gt;Node23</title>
<g id="a_edge32_Node000022_Node000023"><a xlink:title=" ">
<path fill="none" stroke="#63b8ff" d="M1034.6,-237.53C1037.47,-228.29 1042.03,-213.58 1045.73,-201.63"/>
<polygon fill="#63b8ff" stroke="#63b8ff" points="1049,-202.93 1048.61,-192.34 1042.31,-200.85 1049,-202.93"/>
</a>
</g>
</g>
<!-- Node24 -->
<g id="Node000024" class="node">
<title>Node24</title>
<g id="a_Node000024"><a xlink:title=" ">
<polygon fill="#e0e0e0" stroke="#999999" points="1359.32,-190.62 1322.32,-190.62 1322.32,-171.38 1359.32,-171.38 1359.32,-190.62"/>
<text text-anchor="middle" x="1340.82" y="-177.12" font-family="Helvetica,sans-Serif" font-size="10.00">tuple</text>
</a>
</g>
</g>
<!-- Node22&#45;&gt;Node24 -->
<g id="edge37_Node000022_Node000024" class="edge">
<title>Node22&#45;&gt;Node24</title>
<g id="a_edge37_Node000022_Node000024"><a xlink:title=" ">
<path fill="none" stroke="#63b8ff" d="M1083.93,-237.42C1163.93,-223.46 1308.39,-198.12 1313.82,-196.25 1314.32,-196.08 1314.82,-195.9 1315.33,-195.71"/>
<polygon fill="#63b8ff" stroke="#63b8ff" points="1316.72,-198.92 1324.39,-191.61 1313.84,-192.54 1316.72,-198.92"/>
</a>
</g>
</g>
<!-- Node23&#45;&gt;Node9 -->
<g id="edge33_Node000023_Node000009" class="edge">
<title>Node23&#45;&gt;Node9</title>
<g id="a_edge33_Node000023_Node000009"><a xlink:title=" ">
<path fill="none" stroke="#63b8ff" d="M996.3,-170.95C985.21,-169.19 973.65,-167.38 962.82,-165.75 863.43,-150.78 746.22,-134.62 686.36,-126.47"/>
<polygon fill="#63b8ff" stroke="#63b8ff" points="687.05,-123.03 676.67,-125.15 686.11,-129.97 687.05,-123.03"/>
</a>
</g>
</g>
<!-- Node23&#45;&gt;Node12 -->
<g id="edge34_Node000023_Node000012" class="edge">
<title>Node23&#45;&gt;Node12</title>
<g id="a_edge34_Node000023_Node000012"><a xlink:title=" ">
<path fill="none" stroke="#63b8ff" d="M1030.1,-170.93C1006.2,-160.95 967.63,-144.85 940.85,-133.66"/>
<polygon fill="#63b8ff" stroke="#63b8ff" points="942.49,-130.56 931.91,-129.93 939.79,-137.02 942.49,-130.56"/>
</a>
</g>
</g>
</g>
</svg>
