<?xml version="1.0" encoding="UTF-8" standalone="no"?>
<!DOCTYPE svg PUBLIC "-//W3C//DTD SVG 1.1//EN"
 "http://www.w3.org/Graphics/SVG/1.1/DTD/svg11.dtd">
<!-- Generated by graphviz version 12.2.1 (20241206.2353)
 -->
<!-- Title: mimic++/printing/type/Templated.hpp Pages: 1 -->
<!--zoomable 393 -->

<svg id="main" version="1.1" xmlns="http://www.w3.org/2000/svg" xmlns:xlink="http://www.w3.org/1999/xlink" xml:space="preserve" onload="init(evt)">

<style type="text/css"><![CDATA[
.node, .edge {opacity: 0.7;}
.node.selected, .edge.selected {opacity: 1;}
.edge:hover path { stroke: red; }
.edge:hover polygon { stroke: red; fill: red; }
]]></style>

<defs>
  <circle id="rim" cx="0" cy="0" r="7"/>
  <circle id="rim2" cx="0" cy="0" r="3.5"/>
  <g id="zoomPlus">
    <use xlink:href="#rim" fill="#404040"><set attributeName="fill" to="#808080" begin="zoomplus.mouseover" end="zoomplus.mouseout"/></use>
    <path d="M-4,0h8M0,-4v8" fill="none" stroke="white" stroke-width="1.5" pointer-events="none"/>
  </g>
  <g id="zoomMin">
    <use xlink:href="#rim" fill="#404040"><set attributeName="fill" to="#808080" begin="zoomminus.mouseover" end="zoomminus.mouseout"/></use>
    <path d="M-4,0h8" fill="none" stroke="white" stroke-width="1.5" pointer-events="none"/>
  </g>
  <g id="arrowUp" transform="translate(30 24)">
    <use xlink:href="#rim"/>
    <path pointer-events="none" fill="none" stroke="white" stroke-width="1.5" d="M0,-3.0v7 M-2.5,-0.5L0,-3.0L2.5,-0.5"/>
  </g>
  <g id="arrowRight" transform="rotate(90) translate(36 -43)">
    <use xlink:href="#rim"/>
    <path pointer-events="none" fill="none" stroke="white" stroke-width="1.5" d="M0,-3.0v7 M-2.5,-0.5L0,-3.0L2.5,-0.5"/>
  </g>
  <g id="arrowDown" transform="rotate(180) translate(-30 -48)">
    <use xlink:href="#rim"/>
    <path pointer-events="none" fill="none" stroke="white" stroke-width="1.5" d="M0,-3.0v7 M-2.5,-0.5L0,-3.0L2.5,-0.5"/>
  </g>
  <g id="arrowLeft" transform="rotate(270) translate(-36 17)">
    <use xlink:href="#rim"/>
    <path pointer-events="none" fill="none" stroke="white" stroke-width="1.5" d="M0,-3.0v7 M-2.5,-0.5L0,-3.0L2.5,-0.5"/>
  </g>
  <g id="resetDef">
    <use xlink:href="#rim2" fill="#404040"><set attributeName="fill" to="#808080" begin="reset.mouseover" end="reset.mouseout"/></use>
  </g>
</defs>
<script type="application/ecmascript">
var viewWidth = 1815;
var viewHeight = 393;
var sectionId = 'dynsection-0';
</script>
<script type="application/ecmascript" xlink:href="../../svg.min.js"/>
<svg id="graph" class="graph">
<g id="viewport">
<title>mimic++/printing/type/Templated.hpp</title>
<!-- Node1 -->
<g id="Node000001" class="node">
<title>Node1</title>
<g id="a_Node000001"><a xlink:title=" ">
<polygon fill="#999999" stroke="#666666" points="801.75,-384.5 692,-384.5 692,-354 801.75,-354 801.75,-384.5"/>
<text text-anchor="start" x="700" y="-371" font-family="Helvetica,sans-Serif" font-size="10.00">mimic++/printing/type</text>
<text text-anchor="middle" x="746.88" y="-359.75" font-family="Helvetica,sans-Serif" font-size="10.00">/Templated.hpp</text>
</a>
</g>
</g>
<!-- Node2 -->
<g id="Node000002" class="node">
<title>Node2</title>
<g id="a_Node000002"><a xlink:href="../../df/dde/_fwd_8hpp.html" target="_top" xlink:title=" ">
<polygon fill="white" stroke="#666666" points="751.88,-129.75 657.88,-129.75 657.88,-110.5 751.88,-110.5 751.88,-129.75"/>
<text text-anchor="middle" x="704.88" y="-116.25" font-family="Helvetica,sans-Serif" font-size="10.00">mimic++/Fwd.hpp</text>
</a>
</g>
</g>
<!-- Node1&#45;&gt;Node2 -->
<g id="edge1_Node000001_Node000002" class="edge">
<title>Node1&#45;&gt;Node2</title>
<g id="a_edge1_Node000001_Node000002"><a xlink:title=" ">
<path fill="none" stroke="#63b8ff" d="M739.07,-353.73C734.17,-343.93 728.17,-330.53 724.88,-318 708.31,-254.97 705.31,-177.24 704.87,-141.22"/>
<polygon fill="#63b8ff" stroke="#63b8ff" points="708.37,-141.42 704.81,-131.45 701.37,-141.47 708.37,-141.42"/>
</a>
</g>
</g>
<!-- Node8 -->
<g id="Node000008" class="node">
<title>Node8</title>
<g id="a_Node000008"><a xlink:href="../../d5/dec/_format_8hpp.html" target="_top" xlink:title=" ">
<polygon fill="white" stroke="#666666" points="638.12,-185 497.62,-185 497.62,-165.75 638.12,-165.75 638.12,-185"/>
<text text-anchor="middle" x="567.88" y="-171.5" font-family="Helvetica,sans-Serif" font-size="10.00">mimic++/printing/Format.hpp</text>
</a>
</g>
</g>
<!-- Node1&#45;&gt;Node8 -->
<g id="edge7_Node000001_Node000008" class="edge">
<title>Node1&#45;&gt;Node8</title>
<g id="a_edge7_Node000001_Node000008"><a xlink:title=" ">
<path fill="none" stroke="#63b8ff" d="M708.19,-353.64C689.61,-345.25 667.95,-333.31 651.88,-318 614.21,-282.13 587.66,-225.72 575.44,-196.07"/>
<polygon fill="#63b8ff" stroke="#63b8ff" points="578.73,-194.87 571.78,-186.88 572.23,-197.46 578.73,-194.87"/>
</a>
</g>
</g>
<!-- Node9 -->
<g id="Node000009" class="node">
<title>Node9</title>
<g id="a_Node000009"><a xlink:title=" ">
<polygon fill="#e0e0e0" stroke="#999999" points="55.75,-129.75 0,-129.75 0,-110.5 55.75,-110.5 55.75,-129.75"/>
<text text-anchor="middle" x="27.88" y="-116.25" font-family="Helvetica,sans-Serif" font-size="10.00">concepts</text>
</a>
</g>
</g>
<!-- Node1&#45;&gt;Node9 -->
<g id="edge58_Node000001_Node000009" class="edge">
<title>Node1&#45;&gt;Node9</title>
<g id="a_edge58_Node000001_Node000009"><a xlink:title=" ">
<path fill="none" stroke="#63b8ff" d="M691.51,-368.75C554.66,-369.24 203.95,-365.66 98.88,-318 60.38,-300.54 47.72,-290.27 30.88,-251.5 15.14,-215.27 19.46,-167.88 23.8,-141.36"/>
<polygon fill="#63b8ff" stroke="#63b8ff" points="27.22,-142.11 25.58,-131.64 20.34,-140.85 27.22,-142.11"/>
</a>
</g>
</g>
<!-- Node11 -->
<g id="Node000011" class="node">
<title>Node11</title>
<g id="a_Node000011"><a xlink:title=" ">
<polygon fill="#e0e0e0" stroke="#999999" points="470.38,-129.75 409.38,-129.75 409.38,-110.5 470.38,-110.5 470.38,-129.75"/>
<text text-anchor="middle" x="439.88" y="-116.25" font-family="Helvetica,sans-Serif" font-size="10.00">type_traits</text>
</a>
</g>
</g>
<!-- Node1&#45;&gt;Node11 -->
<g id="edge62_Node000001_Node000011" class="edge">
<title>Node1&#45;&gt;Node11</title>
<g id="a_edge62_Node000001_Node000011"><a xlink:title=" ">
<path fill="none" stroke="#63b8ff" d="M691.78,-358.45C609.66,-340.5 458.17,-293.7 395.88,-185 386.08,-167.91 401.85,-149.49 417.16,-136.85"/>
<polygon fill="#63b8ff" stroke="#63b8ff" points="418.92,-139.91 424.73,-131.04 414.66,-134.35 418.92,-139.91"/>
</a>
</g>
</g>
<!-- Node12 -->
<g id="Node000012" class="node">
<title>Node12</title>
<g id="a_Node000012"><a xlink:title=" ">
<polygon fill="#e0e0e0" stroke="#999999" points="305.12,-129.75 266.62,-129.75 266.62,-110.5 305.12,-110.5 305.12,-129.75"/>
<text text-anchor="middle" x="285.88" y="-116.25" font-family="Helvetica,sans-Serif" font-size="10.00">utility</text>
</a>
</g>
</g>
<!-- Node1&#45;&gt;Node12 -->
<g id="edge63_Node000001_Node000012" class="edge">
<title>Node1&#45;&gt;Node12</title>
<g id="a_edge63_Node000001_Node000012"><a xlink:title=" ">
<path fill="none" stroke="#63b8ff" d="M691.77,-367.93C541.86,-365.75 132.58,-350.66 52.88,-251.5 28.94,-221.72 22.47,-195.14 46.88,-165.75 73,-134.3 196.44,-124.89 254.96,-122.18"/>
<polygon fill="#63b8ff" stroke="#63b8ff" points="255.05,-125.68 264.89,-121.76 254.75,-118.68 255.05,-125.68"/>
</a>
</g>
</g>
<!-- Node14 -->
<g id="Node000014" class="node">
<title>Node14</title>
<g id="a_Node000014"><a xlink:href="../../de/d52/printing_2_fwd_8hpp.html" target="_top" xlink:title=" ">
<polygon fill="white" stroke="#666666" points="1551.12,-245.88 1422.62,-245.88 1422.62,-226.62 1551.12,-226.62 1551.12,-245.88"/>
<text text-anchor="middle" x="1486.88" y="-232.38" font-family="Helvetica,sans-Serif" font-size="10.00">mimic++/printing/Fwd.hpp</text>
</a>
</g>
</g>
<!-- Node1&#45;&gt;Node14 -->
<g id="edge15_Node000001_Node000014" class="edge">
<title>Node1&#45;&gt;Node14</title>
<g id="a_edge15_Node000001_Node000014"><a xlink:title=" ">
<path fill="none" stroke="#63b8ff" d="M801.82,-358.68C915.29,-338.88 1183.73,-291.92 1408.88,-251.5 1414.49,-250.49 1420.33,-249.44 1426.18,-248.38"/>
<polygon fill="#63b8ff" stroke="#63b8ff" points="1426.67,-251.85 1435.88,-246.61 1425.41,-244.96 1426.67,-251.85"/>
</a>
</g>
</g>
<!-- Node15 -->
<g id="Node000015" class="node">
<title>Node15</title>
<g id="a_Node000015"><a xlink:href="../../da/db0/_print_type_8hpp.html" target="_top" xlink:title=" ">
<polygon fill="white" stroke="#666666" points="843.75,-318 734,-318 734,-287.5 843.75,-287.5 843.75,-318"/>
<text text-anchor="start" x="742" y="-304.5" font-family="Helvetica,sans-Serif" font-size="10.00">mimic++/printing/type</text>
<text text-anchor="middle" x="788.88" y="-293.25" font-family="Helvetica,sans-Serif" font-size="10.00">/PrintType.hpp</text>
</a>
</g>
</g>
<!-- Node1&#45;&gt;Node15 -->
<g id="edge16_Node000001_Node000015" class="edge">
<title>Node1&#45;&gt;Node15</title>
<g id="a_edge16_Node000001_Node000015"><a xlink:title=" ">
<path fill="none" stroke="#63b8ff" d="M756.41,-353.61C761.35,-346.03 767.51,-336.56 773.13,-327.93"/>
<polygon fill="#63b8ff" stroke="#63b8ff" points="776.03,-329.89 778.56,-319.6 770.17,-326.07 776.03,-329.89"/>
</a>
</g>
</g>
<!-- Node18 -->
<g id="Node000018" class="node">
<title>Node18</title>
<g id="a_Node000018"><a xlink:title=" ">
<polygon fill="#e0e0e0" stroke="#999999" points="1456.75,-129.75 1401,-129.75 1401,-110.5 1456.75,-110.5 1456.75,-129.75"/>
<text text-anchor="middle" x="1428.88" y="-116.25" font-family="Helvetica,sans-Serif" font-size="10.00">algorithm</text>
</a>
</g>
</g>
<!-- Node1&#45;&gt;Node18 -->
<g id="edge57_Node000001_Node000018" class="edge">
<title>Node1&#45;&gt;Node18</title>
<g id="a_edge57_Node000001_Node000018"><a xlink:title=" ">
<path fill="none" stroke="#63b8ff" d="M802.01,-368.72C913.8,-368.62 1174.64,-363.07 1387.88,-318 1475,-299.59 1525.41,-324.17 1576.88,-251.5 1613.16,-200.26 1521.54,-155.54 1466.62,-134.28"/>
<polygon fill="#63b8ff" stroke="#63b8ff" points="1467.85,-131.01 1457.26,-130.76 1465.39,-137.56 1467.85,-131.01"/>
</a>
</g>
</g>
<!-- Node20 -->
<g id="Node000020" class="node">
<title>Node20</title>
<g id="a_Node000020"><a xlink:title=" ">
<polygon fill="#e0e0e0" stroke="#999999" points="1382.88,-129.75 1324.88,-129.75 1324.88,-110.5 1382.88,-110.5 1382.88,-129.75"/>
<text text-anchor="middle" x="1353.88" y="-116.25" font-family="Helvetica,sans-Serif" font-size="10.00">functional</text>
</a>
</g>
</g>
<!-- Node1&#45;&gt;Node20 -->
<g id="edge59_Node000001_Node000020" class="edge">
<title>Node1&#45;&gt;Node20</title>
<g id="a_edge59_Node000001_Node000020"><a xlink:title=" ">
<path fill="none" stroke="#63b8ff" d="M801.95,-364.49C976.73,-352 1510.32,-309.39 1559.88,-251.5 1568.69,-241.2 1567.07,-232.49 1559.88,-221 1540.73,-190.43 1445.19,-153.01 1391.2,-133.81"/>
<polygon fill="#63b8ff" stroke="#63b8ff" points="1392.69,-130.63 1382.1,-130.61 1390.37,-137.23 1392.69,-130.63"/>
</a>
</g>
</g>
<!-- Node30 -->
<g id="Node000030" class="node">
<title>Node30</title>
<g id="a_Node000030"><a xlink:href="../../df/d2e/_type_list_8hpp.html" target="_top" xlink:title=" ">
<polygon fill="white" stroke="#666666" points="208.12,-245.88 61.62,-245.88 61.62,-226.62 208.12,-226.62 208.12,-245.88"/>
<text text-anchor="middle" x="134.88" y="-232.38" font-family="Helvetica,sans-Serif" font-size="10.00">mimic++/utilities/TypeList.hpp</text>
</a>
</g>
</g>
<!-- Node1&#45;&gt;Node30 -->
<g id="edge49_Node000001_Node000030" class="edge">
<title>Node1&#45;&gt;Node30</title>
<g id="a_edge49_Node000001_Node000030"><a xlink:title=" ">
<path fill="none" stroke="#63b8ff" d="M691.7,-364.74C616.34,-359.11 477.39,-345.75 361.88,-318 290.04,-300.74 209.27,-268.86 166.09,-250.75"/>
<polygon fill="#63b8ff" stroke="#63b8ff" points="167.67,-247.61 157.1,-246.94 164.94,-254.06 167.67,-247.61"/>
</a>
</g>
</g>
<!-- Node32 -->
<g id="Node000032" class="node">
<title>Node32</title>
<g id="a_Node000032"><a xlink:title=" ">
<polygon fill="#e0e0e0" stroke="#999999" points="1695.12,-312.38 1644.62,-312.38 1644.62,-293.12 1695.12,-293.12 1695.12,-312.38"/>
<text text-anchor="middle" x="1669.88" y="-298.88" font-family="Helvetica,sans-Serif" font-size="10.00">memory</text>
</a>
</g>
</g>
<!-- Node1&#45;&gt;Node32 -->
<g id="edge60_Node000001_Node000032" class="edge">
<title>Node1&#45;&gt;Node32</title>
<g id="a_edge60_Node000001_Node000032"><a xlink:title=" ">
<path fill="none" stroke="#63b8ff" d="M802.1,-367.23C969.78,-363.78 1471.3,-350.94 1630.88,-318 1633.19,-317.52 1635.55,-316.93 1637.92,-316.27"/>
<polygon fill="#63b8ff" stroke="#63b8ff" points="1638.88,-319.63 1647.31,-313.21 1636.72,-312.98 1638.88,-319.63"/>
</a>
</g>
</g>
<!-- Node33 -->
<g id="Node000033" class="node">
<title>Node33</title>
<g id="a_Node000033"><a xlink:title=" ">
<polygon fill="#e0e0e0" stroke="#999999" points="1806.5,-312.38 1713.25,-312.38 1713.25,-293.12 1806.5,-293.12 1806.5,-312.38"/>
<text text-anchor="middle" x="1759.88" y="-298.88" font-family="Helvetica,sans-Serif" font-size="10.00">memory_resource</text>
</a>
</g>
</g>
<!-- Node1&#45;&gt;Node33 -->
<g id="edge61_Node000001_Node000033" class="edge">
<title>Node1&#45;&gt;Node33</title>
<g id="a_edge61_Node000001_Node000033"><a xlink:title=" ">
<path fill="none" stroke="#63b8ff" d="M802.11,-366.78C978.67,-361.85 1528.08,-344.72 1703.88,-318 1708.32,-317.32 1712.93,-316.45 1717.51,-315.46"/>
<polygon fill="#63b8ff" stroke="#63b8ff" points="1718.29,-318.87 1727.23,-313.18 1716.69,-312.06 1718.29,-318.87"/>
</a>
</g>
</g>
<!-- Node3 -->
<g id="Node000003" class="node">
<title>Node3</title>
<g id="a_Node000003"><a xlink:href="../../d8/dd2/_config_8hpp.html" target="_top" xlink:title=" ">
<polygon fill="white" stroke="#666666" points="793,-74.5 690.75,-74.5 690.75,-55.25 793,-55.25 793,-74.5"/>
<text text-anchor="middle" x="741.88" y="-61" font-family="Helvetica,sans-Serif" font-size="10.00">mimic++/Config.hpp</text>
</a>
</g>
</g>
<!-- Node2&#45;&gt;Node3 -->
<g id="edge2_Node000002_Node000003" class="edge">
<title>Node2&#45;&gt;Node3</title>
<g id="a_edge2_Node000002_Node000003"><a xlink:title=" ">
<path fill="none" stroke="#63b8ff" d="M710.98,-110.33C715.94,-103.21 723.08,-92.93 729.25,-84.05"/>
<polygon fill="#63b8ff" stroke="#63b8ff" points="731.94,-86.31 734.77,-76.1 726.19,-82.32 731.94,-86.31"/>
</a>
</g>
</g>
<!-- Node6 -->
<g id="Node000006" class="node">
<title>Node6</title>
<g id="a_Node000006"><a xlink:title=" ">
<polygon fill="#e0e0e0" stroke="#999999" points="672.88,-74.5 632.88,-74.5 632.88,-55.25 672.88,-55.25 672.88,-74.5"/>
<text text-anchor="middle" x="652.88" y="-61" font-family="Helvetica,sans-Serif" font-size="10.00">string</text>
</a>
</g>
</g>
<!-- Node2&#45;&gt;Node6 -->
<g id="edge5_Node000002_Node000006" class="edge">
<title>Node2&#45;&gt;Node6</title>
<g id="a_edge5_Node000002_Node000006"><a xlink:title=" ">
<path fill="none" stroke="#63b8ff" d="M696.29,-110.33C689.03,-102.9 678.42,-92.04 669.51,-82.91"/>
<polygon fill="#63b8ff" stroke="#63b8ff" points="672.2,-80.65 662.71,-75.94 667.19,-85.54 672.2,-80.65"/>
</a>
</g>
</g>
<!-- Node7 -->
<g id="Node000007" class="node">
<title>Node7</title>
<g id="a_Node000007"><a xlink:title=" ">
<polygon fill="#e0e0e0" stroke="#999999" points="1049.62,-74.5 984.12,-74.5 984.12,-55.25 1049.62,-55.25 1049.62,-74.5"/>
<text text-anchor="middle" x="1016.88" y="-61" font-family="Helvetica,sans-Serif" font-size="10.00">string_view</text>
</a>
</g>
</g>
<!-- Node2&#45;&gt;Node7 -->
<g id="edge6_Node000002_Node000007" class="edge">
<title>Node2&#45;&gt;Node7</title>
<g id="a_edge6_Node000002_Node000007"><a xlink:title=" ">
<path fill="none" stroke="#63b8ff" d="M752.26,-111.04C812.19,-100.81 914.58,-83.33 972.86,-73.39"/>
<polygon fill="#63b8ff" stroke="#63b8ff" points="973.15,-76.89 982.42,-71.76 971.97,-69.99 973.15,-76.89"/>
</a>
</g>
</g>
<!-- Node4 -->
<g id="Node000004" class="node">
<title>Node4</title>
<g id="a_Node000004"><a xlink:title=" ">
<polygon fill="#e0e0e0" stroke="#999999" points="732.5,-19.25 687.25,-19.25 687.25,0 732.5,0 732.5,-19.25"/>
<text text-anchor="middle" x="709.88" y="-5.75" font-family="Helvetica,sans-Serif" font-size="10.00">cstdint</text>
</a>
</g>
</g>
<!-- Node3&#45;&gt;Node4 -->
<g id="edge3_Node000003_Node000004" class="edge">
<title>Node3&#45;&gt;Node4</title>
<g id="a_edge3_Node000003_Node000004"><a xlink:title=" ">
<path fill="none" stroke="#63b8ff" d="M736.59,-55.08C732.4,-48.11 726.4,-38.12 721.14,-29.37"/>
<polygon fill="#63b8ff" stroke="#63b8ff" points="724.2,-27.68 716.05,-20.91 718.2,-31.28 724.2,-27.68"/>
</a>
</g>
</g>
<!-- Node5 -->
<g id="Node000005" class="node">
<title>Node5</title>
<g id="a_Node000005"><a xlink:title=" ">
<polygon fill="#e0e0e0" stroke="#999999" points="797.62,-19.25 750.12,-19.25 750.12,0 797.62,0 797.62,-19.25"/>
<text text-anchor="middle" x="773.88" y="-5.75" font-family="Helvetica,sans-Serif" font-size="10.00">version</text>
</a>
</g>
</g>
<!-- Node3&#45;&gt;Node5 -->
<g id="edge4_Node000003_Node000005" class="edge">
<title>Node3&#45;&gt;Node5</title>
<g id="a_edge4_Node000003_Node000005"><a xlink:title=" ">
<path fill="none" stroke="#63b8ff" d="M747.16,-55.08C751.35,-48.11 757.35,-38.12 762.61,-29.37"/>
<polygon fill="#63b8ff" stroke="#63b8ff" points="765.55,-31.28 767.7,-20.91 759.55,-27.68 765.55,-31.28"/>
</a>
</g>
</g>
<!-- Node8&#45;&gt;Node2 -->
<g id="edge9_Node000008_Node000002" class="edge">
<title>Node8&#45;&gt;Node2</title>
<g id="a_edge9_Node000008_Node000002"><a xlink:title=" ">
<path fill="none" stroke="#63b8ff" d="M591.12,-165.34C613.06,-156.81 646.22,-143.92 671.09,-134.26"/>
<polygon fill="#63b8ff" stroke="#63b8ff" points="672.06,-137.64 680.11,-130.75 669.52,-131.11 672.06,-137.64"/>
</a>
</g>
</g>
<!-- Node8&#45;&gt;Node3 -->
<g id="edge8_Node000008_Node000003" class="edge">
<title>Node8&#45;&gt;Node3</title>
<g id="a_edge8_Node000008_Node000003"><a xlink:title=" ">
<path fill="none" stroke="#63b8ff" d="M577.82,-165.34C592.59,-152.21 621.52,-127.56 648.88,-110.5 668.09,-98.52 691.02,-87.48 709.3,-79.38"/>
<polygon fill="#63b8ff" stroke="#63b8ff" points="710.57,-82.65 718.35,-75.46 707.78,-76.23 710.57,-82.65"/>
</a>
</g>
</g>
<!-- Node8&#45;&gt;Node9 -->
<g id="edge10_Node000008_Node000009" class="edge">
<title>Node8&#45;&gt;Node9</title>
<g id="a_edge10_Node000008_Node000009"><a xlink:title=" ">
<path fill="none" stroke="#63b8ff" d="M497.28,-167.41C382.23,-156.07 158.04,-133.96 67.36,-125.02"/>
<polygon fill="#63b8ff" stroke="#63b8ff" points="67.77,-121.54 57.48,-124.04 67.09,-128.51 67.77,-121.54"/>
</a>
</g>
</g>
<!-- Node10 -->
<g id="Node000010" class="node">
<title>Node10</title>
<g id="a_Node000010"><a xlink:title=" ">
<polygon fill="#e0e0e0" stroke="#999999" points="539.5,-129.75 488.25,-129.75 488.25,-110.5 539.5,-110.5 539.5,-129.75"/>
<text text-anchor="middle" x="513.88" y="-116.25" font-family="Helvetica,sans-Serif" font-size="10.00">sstream</text>
</a>
</g>
</g>
<!-- Node8&#45;&gt;Node10 -->
<g id="edge11_Node000008_Node000010" class="edge">
<title>Node8&#45;&gt;Node10</title>
<g id="a_edge11_Node000008_Node000010"><a xlink:title=" ">
<path fill="none" stroke="#63b8ff" d="M558.96,-165.58C551.42,-158.15 540.41,-147.29 531.15,-138.16"/>
<polygon fill="#63b8ff" stroke="#63b8ff" points="533.64,-135.7 524.06,-131.17 528.73,-140.69 533.64,-135.7"/>
</a>
</g>
</g>
<!-- Node8&#45;&gt;Node11 -->
<g id="edge12_Node000008_Node000011" class="edge">
<title>Node8&#45;&gt;Node11</title>
<g id="a_edge12_Node000008_Node000011"><a xlink:title=" ">
<path fill="none" stroke="#63b8ff" d="M546.16,-165.34C525.84,-156.89 495.23,-144.15 472.07,-134.52"/>
<polygon fill="#63b8ff" stroke="#63b8ff" points="473.67,-131.39 463.09,-130.78 470.98,-137.86 473.67,-131.39"/>
</a>
</g>
</g>
<!-- Node8&#45;&gt;Node12 -->
<g id="edge13_Node000008_Node000012" class="edge">
<title>Node8&#45;&gt;Node12</title>
<g id="a_edge13_Node000008_Node000012"><a xlink:title=" ">
<path fill="none" stroke="#63b8ff" d="M519.72,-165.28C461.59,-154.3 365.56,-136.17 316.61,-126.93"/>
<polygon fill="#63b8ff" stroke="#63b8ff" points="317.48,-123.53 307,-125.11 316.18,-130.41 317.48,-123.53"/>
</a>
</g>
</g>
<!-- Node13 -->
<g id="Node000013" class="node">
<title>Node13</title>
<g id="a_Node000013"><a xlink:title=" ">
<polygon fill="#e0e0e0" stroke="#999999" points="601.75,-129.75 558,-129.75 558,-110.5 601.75,-110.5 601.75,-129.75"/>
<text text-anchor="middle" x="579.88" y="-116.25" font-family="Helvetica,sans-Serif" font-size="10.00">format</text>
</a>
</g>
</g>
<!-- Node8&#45;&gt;Node13 -->
<g id="edge14_Node000008_Node000013" class="edge">
<title>Node8&#45;&gt;Node13</title>
<g id="a_edge14_Node000008_Node000013"><a xlink:title=" ">
<path fill="none" stroke="#63b8ff" d="M569.86,-165.58C571.34,-158.99 573.43,-149.71 575.32,-141.32"/>
<polygon fill="#63b8ff" stroke="#63b8ff" points="578.73,-142.11 577.52,-131.59 571.9,-140.57 578.73,-142.11"/>
</a>
</g>
</g>
<!-- Node15&#45;&gt;Node2 -->
<g id="edge17_Node000015_Node000002" class="edge">
<title>Node15&#45;&gt;Node2</title>
<g id="a_edge17_Node000015_Node000002"><a xlink:title=" ">
<path fill="none" stroke="#63b8ff" d="M781.51,-287.31C776.46,-277.3 769.64,-263.65 763.88,-251.5 745.29,-212.36 724.65,-166.05 713.38,-140.5"/>
<polygon fill="#63b8ff" stroke="#63b8ff" points="716.61,-139.16 709.38,-131.41 710.2,-141.98 716.61,-139.16"/>
</a>
</g>
</g>
<!-- Node15&#45;&gt;Node8 -->
<g id="edge18_Node000015_Node000008" class="edge">
<title>Node15&#45;&gt;Node8</title>
<g id="a_edge18_Node000015_Node000008"><a xlink:title=" ">
<path fill="none" stroke="#63b8ff" d="M758.64,-287.21C738.86,-277.5 712.57,-264.22 689.88,-251.5 654.75,-231.81 615.27,-206.99 590.98,-191.39"/>
<polygon fill="#63b8ff" stroke="#63b8ff" points="593.13,-188.61 582.83,-186.13 589.34,-194.5 593.13,-188.61"/>
</a>
</g>
</g>
<!-- Node15&#45;&gt;Node9 -->
<g id="edge43_Node000015_Node000009" class="edge">
<title>Node15&#45;&gt;Node9</title>
<g id="a_edge43_Node000015_Node000009"><a xlink:title=" ">
<path fill="none" stroke="#63b8ff" d="M733.54,-301.54C571.43,-300.45 105.69,-293.63 52.88,-251.5 20.23,-225.46 21.27,-170.97 24.67,-141.35"/>
<polygon fill="#63b8ff" stroke="#63b8ff" points="28.13,-141.89 26.02,-131.5 21.19,-140.93 28.13,-141.89"/>
</a>
</g>
</g>
<!-- Node15&#45;&gt;Node11 -->
<g id="edge46_Node000015_Node000011" class="edge">
<title>Node15&#45;&gt;Node11</title>
<g id="a_edge46_Node000015_Node000011"><a xlink:title=" ">
<path fill="none" stroke="#63b8ff" d="M733.52,-290.7C669.23,-275.65 562.58,-243.62 488.88,-185 473.01,-172.38 459.39,-153.56 450.57,-139.61"/>
<polygon fill="#63b8ff" stroke="#63b8ff" points="453.76,-138.12 445.58,-131.38 447.77,-141.74 453.76,-138.12"/>
</a>
</g>
</g>
<!-- Node15&#45;&gt;Node12 -->
<g id="edge48_Node000015_Node000012" class="edge">
<title>Node15&#45;&gt;Node12</title>
<g id="a_edge48_Node000015_Node000012"><a xlink:title=" ">
<path fill="none" stroke="#63b8ff" d="M733.5,-294.17C682.83,-286.36 606.18,-272.39 541.88,-251.5 474.06,-229.47 459.23,-217.72 395.88,-185 365.56,-169.34 331.76,-149.31 309.73,-135.9"/>
<polygon fill="#63b8ff" stroke="#63b8ff" points="311.86,-133.09 301.5,-130.85 308.2,-139.06 311.86,-133.09"/>
</a>
</g>
</g>
<!-- Node15&#45;&gt;Node14 -->
<g id="edge19_Node000015_Node000014" class="edge">
<title>Node15&#45;&gt;Node14</title>
<g id="a_edge19_Node000015_Node000014"><a xlink:title=" ">
<path fill="none" stroke="#63b8ff" d="M844.23,-299.12C952.85,-293.55 1201.43,-278.79 1408.88,-251.5 1415.86,-250.58 1423.17,-249.46 1430.4,-248.25"/>
<polygon fill="#63b8ff" stroke="#63b8ff" points="1430.88,-251.72 1440.13,-246.57 1429.68,-244.83 1430.88,-251.72"/>
</a>
</g>
</g>
<!-- Node16 -->
<g id="Node000016" class="node">
<title>Node16</title>
<g id="a_Node000016"><a xlink:href="../../db/d1c/_post_processing_8hpp.html" target="_top" xlink:title=" ">
<polygon fill="white" stroke="#666666" points="882.75,-251.5 773,-251.5 773,-221 882.75,-221 882.75,-251.5"/>
<text text-anchor="start" x="781" y="-238" font-family="Helvetica,sans-Serif" font-size="10.00">mimic++/printing/type</text>
<text text-anchor="middle" x="827.88" y="-226.75" font-family="Helvetica,sans-Serif" font-size="10.00">/PostProcessing.hpp</text>
</a>
</g>
</g>
<!-- Node15&#45;&gt;Node16 -->
<g id="edge20_Node000015_Node000016" class="edge">
<title>Node15&#45;&gt;Node16</title>
<g id="a_edge20_Node000015_Node000016"><a xlink:title=" ">
<path fill="none" stroke="#63b8ff" d="M797.72,-287.11C802.31,-279.53 808.03,-270.06 813.26,-261.43"/>
<polygon fill="#63b8ff" stroke="#63b8ff" points="816.1,-263.49 818.28,-253.12 810.11,-259.87 816.1,-263.49"/>
</a>
</g>
</g>
<!-- Node15&#45;&gt;Node18 -->
<g id="edge41_Node000015_Node000018" class="edge">
<title>Node15&#45;&gt;Node18</title>
<g id="a_edge41_Node000015_Node000018"><a xlink:title=" ">
<path fill="none" stroke="#63b8ff" d="M844.03,-298.97C947.91,-293.19 1168.56,-278.13 1239.88,-251.5 1310.57,-225.1 1380.06,-166.45 1411.47,-137.68"/>
<polygon fill="#63b8ff" stroke="#63b8ff" points="1413.58,-140.5 1418.52,-131.13 1408.81,-135.38 1413.58,-140.5"/>
</a>
</g>
</g>
<!-- Node19 -->
<g id="Node000019" class="node">
<title>Node19</title>
<g id="a_Node000019"><a xlink:title=" ">
<polygon fill="#e0e0e0" stroke="#999999" points="1099,-129.75 1050.75,-129.75 1050.75,-110.5 1099,-110.5 1099,-129.75"/>
<text text-anchor="middle" x="1074.88" y="-116.25" font-family="Helvetica,sans-Serif" font-size="10.00">cassert</text>
</a>
</g>
</g>
<!-- Node15&#45;&gt;Node19 -->
<g id="edge42_Node000015_Node000019" class="edge">
<title>Node15&#45;&gt;Node19</title>
<g id="a_edge42_Node000015_Node000019"><a xlink:title=" ">
<path fill="none" stroke="#63b8ff" d="M844.06,-291.2C878.6,-283.24 923.33,-270.42 959.88,-251.5 1002.16,-229.61 1014.06,-222.13 1043.88,-185 1054.62,-171.62 1062.85,-153.9 1068.11,-140.52"/>
<polygon fill="#63b8ff" stroke="#63b8ff" points="1071.26,-142.11 1071.45,-131.52 1064.69,-139.68 1071.26,-142.11"/>
</a>
</g>
</g>
<!-- Node15&#45;&gt;Node20 -->
<g id="edge44_Node000015_Node000020" class="edge">
<title>Node15&#45;&gt;Node20</title>
<g id="a_edge44_Node000015_Node000020"><a xlink:title=" ">
<path fill="none" stroke="#63b8ff" d="M844.15,-302.48C923.96,-301.87 1075.02,-294.42 1194.88,-251.5 1246.88,-232.88 1258.23,-221.29 1299.88,-185 1315.58,-171.32 1330.64,-152.91 1340.84,-139.38"/>
<polygon fill="#63b8ff" stroke="#63b8ff" points="1343.64,-141.48 1346.74,-131.35 1338,-137.34 1343.64,-141.48"/>
</a>
</g>
</g>
<!-- Node21 -->
<g id="Node000021" class="node">
<title>Node21</title>
<g id="a_Node000021"><a xlink:title=" ">
<polygon fill="#e0e0e0" stroke="#999999" points="1303.88,-129.75 1257.88,-129.75 1257.88,-110.5 1303.88,-110.5 1303.88,-129.75"/>
<text text-anchor="middle" x="1280.88" y="-116.25" font-family="Helvetica,sans-Serif" font-size="10.00">iterator</text>
</a>
</g>
</g>
<!-- Node15&#45;&gt;Node21 -->
<g id="edge45_Node000015_Node000021" class="edge">
<title>Node15&#45;&gt;Node21</title>
<g id="a_edge45_Node000015_Node000021"><a xlink:title=" ">
<path fill="none" stroke="#63b8ff" d="M844.12,-297.09C961.14,-285.95 1227.72,-253.47 1281.88,-185 1291.56,-172.75 1290.29,-154.66 1287.19,-140.86"/>
<polygon fill="#63b8ff" stroke="#63b8ff" points="1290.65,-140.25 1284.62,-131.54 1283.9,-142.11 1290.65,-140.25"/>
</a>
</g>
</g>
<!-- Node27 -->
<g id="Node000027" class="node">
<title>Node27</title>
<g id="a_Node000027"><a xlink:href="../../d8/d65/_priority_tag_8hpp.html" target="_top" xlink:title=" ">
<polygon fill="white" stroke="#666666" points="347.38,-251.5 226.38,-251.5 226.38,-221 347.38,-221 347.38,-251.5"/>
<text text-anchor="start" x="234.38" y="-238" font-family="Helvetica,sans-Serif" font-size="10.00">mimic++/utilities/Priority</text>
<text text-anchor="middle" x="286.88" y="-226.75" font-family="Helvetica,sans-Serif" font-size="10.00">Tag.hpp</text>
</a>
</g>
</g>
<!-- Node15&#45;&gt;Node27 -->
<g id="edge39_Node000015_Node000027" class="edge">
<title>Node15&#45;&gt;Node27</title>
<g id="a_edge39_Node000015_Node000027"><a xlink:title=" ">
<path fill="none" stroke="#63b8ff" d="M733.72,-294.66C642.48,-282.94 460.2,-259.52 358.92,-246.51"/>
<polygon fill="#63b8ff" stroke="#63b8ff" points="359.45,-243.05 349.08,-245.24 358.55,-249.99 359.45,-243.05"/>
</a>
</g>
</g>
<!-- Node29 -->
<g id="Node000029" class="node">
<title>Node29</title>
<g id="a_Node000029"><a xlink:title=" ">
<polygon fill="#e0e0e0" stroke="#999999" points="950.75,-245.88 901,-245.88 901,-226.62 950.75,-226.62 950.75,-245.88"/>
<text text-anchor="middle" x="925.88" y="-232.38" font-family="Helvetica,sans-Serif" font-size="10.00">typeinfo</text>
</a>
</g>
</g>
<!-- Node15&#45;&gt;Node29 -->
<g id="edge47_Node000015_Node000029" class="edge">
<title>Node15&#45;&gt;Node29</title>
<g id="a_edge47_Node000015_Node000029"><a xlink:title=" ">
<path fill="none" stroke="#63b8ff" d="M819.96,-287.11C842.89,-276.32 873.89,-261.72 896.43,-251.11"/>
<polygon fill="#63b8ff" stroke="#63b8ff" points="897.81,-254.33 905.37,-246.9 894.83,-248 897.81,-254.33"/>
</a>
</g>
</g>
<!-- Node16&#45;&gt;Node2 -->
<g id="edge22_Node000016_Node000002" class="edge">
<title>Node16&#45;&gt;Node2</title>
<g id="a_edge22_Node000016_Node000002"><a xlink:title=" ">
<path fill="none" stroke="#63b8ff" d="M808.63,-220.68C796.12,-210.96 779.63,-197.68 765.88,-185 749.57,-169.97 732.22,-151.53 720.21,-138.34"/>
<polygon fill="#63b8ff" stroke="#63b8ff" points="723.13,-136.36 713.84,-131.27 717.93,-141.04 723.13,-136.36"/>
</a>
</g>
</g>
<!-- Node16&#45;&gt;Node3 -->
<g id="edge21_Node000016_Node000003" class="edge">
<title>Node16&#45;&gt;Node3</title>
<g id="a_edge21_Node000016_Node000003"><a xlink:title=" ">
<path fill="none" stroke="#63b8ff" d="M819.2,-220.9C813.27,-210.94 805.35,-197.3 798.88,-185 780.68,-150.47 761.48,-109.18 750.66,-85.4"/>
<polygon fill="#63b8ff" stroke="#63b8ff" points="753.87,-84.01 746.56,-76.34 747.49,-86.89 753.87,-84.01"/>
</a>
</g>
</g>
<!-- Node16&#45;&gt;Node8 -->
<g id="edge23_Node000016_Node000008" class="edge">
<title>Node16&#45;&gt;Node8</title>
<g id="a_edge23_Node000016_Node000008"><a xlink:title=" ">
<path fill="none" stroke="#63b8ff" d="M772.74,-222.76C727.35,-212.49 663.49,-198.03 619.18,-187.99"/>
<polygon fill="#63b8ff" stroke="#63b8ff" points="620.08,-184.61 609.56,-185.81 618.54,-191.44 620.08,-184.61"/>
</a>
</g>
</g>
<!-- Node17 -->
<g id="Node000017" class="node">
<title>Node17</title>
<g id="a_Node000017"><a xlink:href="../../dc/d83/_algorithm_8hpp.html" target="_top" xlink:title=" ">
<polygon fill="white" stroke="#666666" points="1253,-185 1102.75,-185 1102.75,-165.75 1253,-165.75 1253,-185"/>
<text text-anchor="middle" x="1177.88" y="-171.5" font-family="Helvetica,sans-Serif" font-size="10.00">mimic++/utilities/Algorithm.hpp</text>
</a>
</g>
</g>
<!-- Node16&#45;&gt;Node17 -->
<g id="edge24_Node000016_Node000017" class="edge">
<title>Node16&#45;&gt;Node17</title>
<g id="a_edge24_Node000016_Node000017"><a xlink:title=" ">
<path fill="none" stroke="#63b8ff" d="M882.99,-222.74C885.99,-222.14 888.97,-221.55 891.88,-221 962.12,-207.71 1042.62,-195.41 1100.28,-187.11"/>
<polygon fill="#63b8ff" stroke="#63b8ff" points="1100.6,-190.6 1110,-185.71 1099.6,-183.67 1100.6,-190.6"/>
</a>
</g>
</g>
<!-- Node16&#45;&gt;Node19 -->
<g id="edge33_Node000016_Node000019" class="edge">
<title>Node16&#45;&gt;Node19</title>
<g id="a_edge33_Node000016_Node000019"><a xlink:title=" ">
<path fill="none" stroke="#63b8ff" d="M883.08,-222.36C934.93,-209.98 1006.24,-192.14 1017.88,-185 1036.63,-173.49 1052.76,-153.93 1063.02,-139.48"/>
<polygon fill="#63b8ff" stroke="#63b8ff" points="1065.85,-141.54 1068.57,-131.3 1060.06,-137.61 1065.85,-141.54"/>
</a>
</g>
</g>
<!-- Node16&#45;&gt;Node21 -->
<g id="edge34_Node000016_Node000021" class="edge">
<title>Node16&#45;&gt;Node21</title>
<g id="a_edge34_Node000016_Node000021"><a xlink:title=" ">
<path fill="none" stroke="#63b8ff" d="M882.95,-222.54C885.96,-221.98 888.95,-221.47 891.88,-221 973.46,-208 1198.13,-237.54 1261.88,-185 1274.58,-174.53 1279.03,-155.96 1280.48,-141.53"/>
<polygon fill="#63b8ff" stroke="#63b8ff" points="1283.96,-141.92 1281.03,-131.74 1276.97,-141.53 1283.96,-141.92"/>
</a>
</g>
</g>
<!-- Node22 -->
<g id="Node000022" class="node">
<title>Node22</title>
<g id="a_Node000022"><a xlink:title=" ">
<polygon fill="#e0e0e0" stroke="#999999" points="965.5,-129.75 920.25,-129.75 920.25,-110.5 965.5,-110.5 965.5,-129.75"/>
<text text-anchor="middle" x="942.88" y="-116.25" font-family="Helvetica,sans-Serif" font-size="10.00">ranges</text>
</a>
</g>
</g>
<!-- Node16&#45;&gt;Node22 -->
<g id="edge36_Node000016_Node000022" class="edge">
<title>Node16&#45;&gt;Node22</title>
<g id="a_edge36_Node000016_Node000022"><a xlink:title=" ">
<path fill="none" stroke="#63b8ff" d="M841.79,-220.72C855.43,-206.55 876.87,-184.47 895.88,-165.75 905.39,-156.37 916.19,-146.09 925.04,-137.77"/>
<polygon fill="#63b8ff" stroke="#63b8ff" points="927.41,-140.34 932.31,-130.95 922.62,-135.24 927.41,-140.34"/>
</a>
</g>
</g>
<!-- Node23 -->
<g id="Node000023" class="node">
<title>Node23</title>
<g id="a_Node000023"><a xlink:title=" ">
<polygon fill="#e0e0e0" stroke="#999999" points="941.38,-185 904.38,-185 904.38,-165.75 941.38,-165.75 941.38,-185"/>
<text text-anchor="middle" x="922.88" y="-171.5" font-family="Helvetica,sans-Serif" font-size="10.00">array</text>
</a>
</g>
</g>
<!-- Node16&#45;&gt;Node23 -->
<g id="edge32_Node000016_Node000023" class="edge">
<title>Node16&#45;&gt;Node23</title>
<g id="a_edge32_Node000016_Node000023"><a xlink:title=" ">
<path fill="none" stroke="#63b8ff" d="M851.36,-220.7C865.68,-211.82 883.96,-200.49 898.46,-191.51"/>
<polygon fill="#63b8ff" stroke="#63b8ff" points="900.29,-194.49 906.94,-186.25 896.6,-188.54 900.29,-194.49"/>
</a>
</g>
</g>
<!-- Node24 -->
<g id="Node000024" class="node">
<title>Node24</title>
<g id="a_Node000024"><a xlink:title=" ">
<polygon fill="#e0e0e0" stroke="#999999" points="1008.75,-185 959,-185 959,-165.75 1008.75,-165.75 1008.75,-185"/>
<text text-anchor="middle" x="983.88" y="-171.5" font-family="Helvetica,sans-Serif" font-size="10.00">optional</text>
</a>
</g>
</g>
<!-- Node16&#45;&gt;Node24 -->
<g id="edge35_Node000016_Node000024" class="edge">
<title>Node16&#45;&gt;Node24</title>
<g id="a_edge35_Node000016_Node000024"><a xlink:title=" ">
<path fill="none" stroke="#63b8ff" d="M866.84,-220.55C892.19,-210.98 924.97,-198.61 949.38,-189.39"/>
<polygon fill="#63b8ff" stroke="#63b8ff" points="950.41,-192.74 958.53,-185.94 947.94,-186.19 950.41,-192.74"/>
</a>
</g>
</g>
<!-- Node25 -->
<g id="Node000025" class="node">
<title>Node25</title>
<g id="a_Node000025"><a xlink:title=" ">
<polygon fill="#e0e0e0" stroke="#999999" points="441.38,-185 404.38,-185 404.38,-165.75 441.38,-165.75 441.38,-185"/>
<text text-anchor="middle" x="422.88" y="-171.5" font-family="Helvetica,sans-Serif" font-size="10.00">tuple</text>
</a>
</g>
</g>
<!-- Node16&#45;&gt;Node25 -->
<g id="edge37_Node000016_Node000025" class="edge">
<title>Node16&#45;&gt;Node25</title>
<g id="a_edge37_Node000016_Node000025"><a xlink:title=" ">
<path fill="none" stroke="#63b8ff" d="M772.83,-227.25C686.12,-214.64 520.62,-190.58 452.9,-180.74"/>
<polygon fill="#63b8ff" stroke="#63b8ff" points="453.69,-177.32 443.29,-179.34 452.68,-184.25 453.69,-177.32"/>
</a>
</g>
</g>
<!-- Node26 -->
<g id="Node000026" class="node">
<title>Node26</title>
<g id="a_Node000026"><a xlink:title=" ">
<polygon fill="#e0e0e0" stroke="#999999" points="847.5,-185 808.25,-185 808.25,-165.75 847.5,-165.75 847.5,-185"/>
<text text-anchor="middle" x="827.88" y="-171.5" font-family="Helvetica,sans-Serif" font-size="10.00">regex</text>
</a>
</g>
</g>
<!-- Node16&#45;&gt;Node26 -->
<g id="edge38_Node000016_Node000026" class="edge">
<title>Node16&#45;&gt;Node26</title>
<g id="a_edge38_Node000016_Node000026"><a xlink:title=" ">
<path fill="none" stroke="#63b8ff" d="M827.88,-220.7C827.88,-213.46 827.88,-204.59 827.88,-196.69"/>
<polygon fill="#63b8ff" stroke="#63b8ff" points="831.38,-196.96 827.88,-186.96 824.38,-196.96 831.38,-196.96"/>
</a>
</g>
</g>
<!-- Node17&#45;&gt;Node7 -->
<g id="edge30_Node000017_Node000007" class="edge">
<title>Node17&#45;&gt;Node7</title>
<g id="a_edge30_Node000017_Node000007"><a xlink:title=" ">
<path fill="none" stroke="#63b8ff" d="M1169.91,-165.67C1157.56,-152.53 1132.62,-127.35 1107.88,-110.5 1089.81,-98.2 1067.85,-87.33 1050.03,-79.4"/>
<polygon fill="#63b8ff" stroke="#63b8ff" points="1051.49,-76.22 1040.93,-75.45 1048.71,-82.64 1051.49,-76.22"/>
</a>
</g>
</g>
<!-- Node17&#45;&gt;Node12 -->
<g id="edge31_Node000017_Node000012" class="edge">
<title>Node17&#45;&gt;Node12</title>
<g id="a_edge31_Node000017_Node000012"><a xlink:title=" ">
<path fill="none" stroke="#63b8ff" d="M1102.27,-170.2C934.6,-160.92 535.78,-138.68 400.88,-129.75 372.29,-127.86 339.74,-125.39 316.58,-123.57"/>
<polygon fill="#63b8ff" stroke="#63b8ff" points="317.15,-120.11 306.91,-122.81 316.6,-127.09 317.15,-120.11"/>
</a>
</g>
</g>
<!-- Node17&#45;&gt;Node18 -->
<g id="edge25_Node000017_Node000018" class="edge">
<title>Node17&#45;&gt;Node18</title>
<g id="a_edge25_Node000017_Node000018"><a xlink:title=" ">
<path fill="none" stroke="#63b8ff" d="M1223.03,-165.28C1264.01,-156.95 1326.4,-144.1 1389.63,-130.21"/>
<polygon fill="#63b8ff" stroke="#63b8ff" points="1390.12,-133.68 1399.13,-128.11 1388.61,-126.85 1390.12,-133.68"/>
</a>
</g>
</g>
<!-- Node17&#45;&gt;Node19 -->
<g id="edge26_Node000017_Node000019" class="edge">
<title>Node17&#45;&gt;Node19</title>
<g id="a_edge26_Node000017_Node000019"><a xlink:title=" ">
<path fill="none" stroke="#63b8ff" d="M1160.4,-165.34C1144.57,-157.16 1120.97,-144.96 1102.57,-135.44"/>
<polygon fill="#63b8ff" stroke="#63b8ff" points="1104.27,-132.38 1093.78,-130.9 1101.05,-138.6 1104.27,-132.38"/>
</a>
</g>
</g>
<!-- Node17&#45;&gt;Node20 -->
<g id="edge27_Node000017_Node000020" class="edge">
<title>Node17&#45;&gt;Node20</title>
<g id="a_edge27_Node000017_Node000020"><a xlink:title=" ">
<path fill="none" stroke="#63b8ff" d="M1207.73,-165.34C1236.86,-156.53 1281.37,-143.06 1313.61,-133.31"/>
<polygon fill="#63b8ff" stroke="#63b8ff" points="1314.45,-136.71 1323.01,-130.46 1312.43,-130.01 1314.45,-136.71"/>
</a>
</g>
</g>
<!-- Node17&#45;&gt;Node21 -->
<g id="edge28_Node000017_Node000021" class="edge">
<title>Node17&#45;&gt;Node21</title>
<g id="a_edge28_Node000017_Node000021"><a xlink:title=" ">
<path fill="none" stroke="#63b8ff" d="M1195.35,-165.34C1211.18,-157.16 1234.78,-144.96 1253.18,-135.44"/>
<polygon fill="#63b8ff" stroke="#63b8ff" points="1254.7,-138.6 1261.97,-130.9 1251.48,-132.38 1254.7,-138.6"/>
</a>
</g>
</g>
<!-- Node17&#45;&gt;Node22 -->
<g id="edge29_Node000017_Node000022" class="edge">
<title>Node17&#45;&gt;Node22</title>
<g id="a_edge29_Node000017_Node000022"><a xlink:title=" ">
<path fill="none" stroke="#63b8ff" d="M1137.74,-165.28C1092.45,-155.02 1019.54,-138.5 976.92,-128.84"/>
<polygon fill="#63b8ff" stroke="#63b8ff" points="977.75,-125.44 967.23,-126.64 976.2,-132.27 977.75,-125.44"/>
</a>
</g>
</g>
<!-- Node28 -->
<g id="Node000028" class="node">
<title>Node28</title>
<g id="a_Node000028"><a xlink:title=" ">
<polygon fill="#e0e0e0" stroke="#999999" points="310,-185 261.75,-185 261.75,-165.75 310,-165.75 310,-185"/>
<text text-anchor="middle" x="285.88" y="-171.5" font-family="Helvetica,sans-Serif" font-size="10.00">cstddef</text>
</a>
</g>
</g>
<!-- Node27&#45;&gt;Node28 -->
<g id="edge40_Node000027_Node000028" class="edge">
<title>Node27&#45;&gt;Node28</title>
<g id="a_edge40_Node000027_Node000028"><a xlink:title=" ">
<path fill="none" stroke="#63b8ff" d="M286.63,-220.7C286.5,-213.46 286.35,-204.59 286.22,-196.69"/>
<polygon fill="#63b8ff" stroke="#63b8ff" points="289.72,-196.9 286.05,-186.96 282.73,-197.02 289.72,-196.9"/>
</a>
</g>
</g>
<!-- Node30&#45;&gt;Node9 -->
<g id="edge53_Node000030_Node000009" class="edge">
<title>Node30&#45;&gt;Node9</title>
<g id="a_edge53_Node000030_Node000009"><a xlink:title=" ">
<path fill="none" stroke="#63b8ff" d="M108.12,-226.21C88.49,-218.27 62.62,-204.85 46.88,-185 36.86,-172.37 32.12,-154.56 29.87,-140.96"/>
<polygon fill="#63b8ff" stroke="#63b8ff" points="33.39,-140.88 28.63,-131.42 26.45,-141.78 33.39,-140.88"/>
</a>
</g>
</g>
<!-- Node30&#45;&gt;Node12 -->
<g id="edge56_Node000030_Node000012" class="edge">
<title>Node30&#45;&gt;Node12</title>
<g id="a_edge56_Node000030_Node000012"><a xlink:title=" ">
<path fill="none" stroke="#63b8ff" d="M151.04,-226.2C167.59,-216.68 193.8,-200.91 214.88,-185 234.41,-170.25 255.03,-151.26 268.99,-137.84"/>
<polygon fill="#63b8ff" stroke="#63b8ff" points="271.31,-140.46 276.03,-130.97 266.43,-135.44 271.31,-140.46"/>
</a>
</g>
</g>
<!-- Node30&#45;&gt;Node25 -->
<g id="edge55_Node000030_Node000025" class="edge">
<title>Node30&#45;&gt;Node25</title>
<g id="a_edge55_Node000030_Node000025"><a xlink:title=" ">
<path fill="none" stroke="#63b8ff" d="M179.24,-226.18C238.55,-214.06 342.08,-192.89 392.94,-182.49"/>
<polygon fill="#63b8ff" stroke="#63b8ff" points="393.53,-185.95 402.63,-180.51 392.13,-179.09 393.53,-185.95"/>
</a>
</g>
</g>
<!-- Node30&#45;&gt;Node28 -->
<g id="edge54_Node000030_Node000028" class="edge">
<title>Node30&#45;&gt;Node28</title>
<g id="a_edge54_Node000030_Node000028"><a xlink:title=" ">
<path fill="none" stroke="#63b8ff" d="M158.14,-226.18C183.19,-216.41 223.29,-200.78 251.87,-189.63"/>
<polygon fill="#63b8ff" stroke="#63b8ff" points="253.13,-192.9 261.18,-186.01 250.59,-186.38 253.13,-192.9"/>
</a>
</g>
</g>
<!-- Node31 -->
<g id="Node000031" class="node">
<title>Node31</title>
<g id="a_Node000031"><a xlink:href="../../d9/db9/_concepts_8hpp.html" target="_top" xlink:title=" ">
<polygon fill="white" stroke="#666666" points="206,-185 55.75,-185 55.75,-165.75 206,-165.75 206,-185"/>
<text text-anchor="middle" x="130.88" y="-171.5" font-family="Helvetica,sans-Serif" font-size="10.00">mimic++/utilities/Concepts.hpp</text>
</a>
</g>
</g>
<!-- Node30&#45;&gt;Node31 -->
<g id="edge50_Node000030_Node000031" class="edge">
<title>Node30&#45;&gt;Node31</title>
<g id="a_edge50_Node000030_Node000031"><a xlink:title=" ">
<path fill="none" stroke="#63b8ff" d="M134.27,-226.31C133.73,-218.44 132.94,-206.7 132.25,-196.57"/>
<polygon fill="#63b8ff" stroke="#63b8ff" points="135.76,-196.65 131.59,-186.91 128.78,-197.13 135.76,-196.65"/>
</a>
</g>
</g>
<!-- Node31&#45;&gt;Node9 -->
<g id="edge51_Node000031_Node000009" class="edge">
<title>Node31&#45;&gt;Node9</title>
<g id="a_edge51_Node000031_Node000009"><a xlink:title=" ">
<path fill="none" stroke="#63b8ff" d="M113.4,-165.34C97.57,-157.16 73.97,-144.96 55.57,-135.44"/>
<polygon fill="#63b8ff" stroke="#63b8ff" points="57.27,-132.38 46.78,-130.9 54.05,-138.6 57.27,-132.38"/>
</a>
</g>
</g>
<!-- Node31&#45;&gt;Node12 -->
<g id="edge52_Node000031_Node000012" class="edge">
<title>Node31&#45;&gt;Node12</title>
<g id="a_edge52_Node000031_Node000012"><a xlink:title=" ">
<path fill="none" stroke="#63b8ff" d="M157.17,-165.34C184.47,-155.96 227.1,-141.32 255.74,-131.48"/>
<polygon fill="#63b8ff" stroke="#63b8ff" points="256.59,-134.89 264.91,-128.33 254.31,-128.27 256.59,-134.89"/>
</a>
</g>
</g>
</g>
</svg>

<g id="navigator" transform="translate(0 0)" fill="#404254">
  <rect fill="#f2f5e9" fill-opacity="0.5" stroke="#606060" stroke-width=".5" x="0" y="0" width="60" height="60"/>
  <use id="zoomplus" xlink:href="#zoomPlus" x="17" y="9" onmousedown="handleZoom(evt,'in')"/>
  <use id="zoomminus" xlink:href="#zoomMin" x="42" y="9" onmousedown="handleZoom(evt,'out')"/>
  <use id="reset" xlink:href="#resetDef" x="30" y="36" onmousedown="handleReset()"/>
   <use id="arrowup" xlink:href="#arrowUp" x="0" y="0" onmousedown="handlePan(0,-1)"/>
  <use id="arrowright" xlink:href="#arrowRight" x="0" y="0" onmousedown="handlePan(1,0)"/>
  <use id="arrowdown" xlink:href="#arrowDown" x="0" y="0" onmousedown="handlePan(0,1)"/>
  <use id="arrowleft" xlink:href="#arrowLeft" x="0" y="0" onmousedown="handlePan(-1,0)"/>
</g>
<svg viewBox="0 0 15 15" width="100%" height="30px" preserveAspectRatio="xMaxYMin meet">
 <g id="arrow_out" transform="scale(0.3 0.3)">
  <a xlink:href="_templated_8hpp__incl_org.svg" target="_base">
   <rect id="button" ry="5" rx="5" y="6" x="6" height="38" width="38"
        fill="#f2f5e9" fill-opacity="0.5" stroke="#606060" stroke-width="1.0"/>
   <path id="arrow"
     d="M 11.500037,31.436501 C 11.940474,20.09759 22.043105,11.32322 32.158766,21.979434 L 37.068811,17.246167 C 37.068811,17.246167 37.088388,32 37.088388,32 L 22.160133,31.978069 C 22.160133,31.978069 26.997745,27.140456 26.997745,27.140456 C 18.528582,18.264221 13.291696,25.230495 11.500037,31.436501 z"
     style="fill:#404040;"/>
  </a>
 </g>
</svg>

<style type='text/css'>
<![CDATA[
[data-mouse-over-selected='false'] { opacity: 0.7; }
[data-mouse-over-selected='true']  { opacity: 1.0; }
]]>
</style>
<script type="application/ecmascript"><![CDATA[
document.addEventListener('DOMContentLoaded', (event) => {
  highlightEdges();
  highlightAdjacentNodes();
});
]]></script>
</svg>
