<?xml version="1.0" encoding="UTF-8" standalone="no"?>
<!DOCTYPE svg PUBLIC "-//W3C//DTD SVG 1.1//EN"
 "http://www.w3.org/Graphics/SVG/1.1/DTD/svg11.dtd">
<!-- Generated by graphviz version 12.2.1 (20241206.2353)
 -->
<!-- Title: mimic++/printing/type/Templated.hpp Pages: 1 -->
<!--zoomable 337 -->

<svg id="main" version="1.1" xmlns="http://www.w3.org/2000/svg" xmlns:xlink="http://www.w3.org/1999/xlink" xml:space="preserve" onload="init(evt)">

<style type="text/css"><![CDATA[
.node, .edge {opacity: 0.7;}
.node.selected, .edge.selected {opacity: 1;}
.edge:hover path { stroke: red; }
.edge:hover polygon { stroke: red; fill: red; }
]]></style>

<defs>
  <circle id="rim" cx="0" cy="0" r="7"/>
  <circle id="rim2" cx="0" cy="0" r="3.5"/>
  <g id="zoomPlus">
    <use xlink:href="#rim" fill="#404040"><set attributeName="fill" to="#808080" begin="zoomplus.mouseover" end="zoomplus.mouseout"/></use>
    <path d="M-4,0h8M0,-4v8" fill="none" stroke="white" stroke-width="1.5" pointer-events="none"/>
  </g>
  <g id="zoomMin">
    <use xlink:href="#rim" fill="#404040"><set attributeName="fill" to="#808080" begin="zoomminus.mouseover" end="zoomminus.mouseout"/></use>
    <path d="M-4,0h8" fill="none" stroke="white" stroke-width="1.5" pointer-events="none"/>
  </g>
  <g id="arrowUp" transform="translate(30 24)">
    <use xlink:href="#rim"/>
    <path pointer-events="none" fill="none" stroke="white" stroke-width="1.5" d="M0,-3.0v7 M-2.5,-0.5L0,-3.0L2.5,-0.5"/>
  </g>
  <g id="arrowRight" transform="rotate(90) translate(36 -43)">
    <use xlink:href="#rim"/>
    <path pointer-events="none" fill="none" stroke="white" stroke-width="1.5" d="M0,-3.0v7 M-2.5,-0.5L0,-3.0L2.5,-0.5"/>
  </g>
  <g id="arrowDown" transform="rotate(180) translate(-30 -48)">
    <use xlink:href="#rim"/>
    <path pointer-events="none" fill="none" stroke="white" stroke-width="1.5" d="M0,-3.0v7 M-2.5,-0.5L0,-3.0L2.5,-0.5"/>
  </g>
  <g id="arrowLeft" transform="rotate(270) translate(-36 17)">
    <use xlink:href="#rim"/>
    <path pointer-events="none" fill="none" stroke="white" stroke-width="1.5" d="M0,-3.0v7 M-2.5,-0.5L0,-3.0L2.5,-0.5"/>
  </g>
  <g id="resetDef">
    <use xlink:href="#rim2" fill="#404040"><set attributeName="fill" to="#808080" begin="reset.mouseover" end="reset.mouseout"/></use>
  </g>
</defs>
<script type="application/ecmascript">
var viewWidth = 1583;
var viewHeight = 337;
var sectionId = 'dynsection-0';
</script>
<script type="application/ecmascript" xlink:href="../../svg.min.js"/>
<svg id="graph" class="graph">
<g id="viewport">
<title>mimic++/printing/type/Templated.hpp</title>
<!-- Node1 -->
<g id="Node000001" class="node">
<title>Node1</title>
<g id="a_Node000001"><a xlink:title=" ">
<polygon fill="#999999" stroke="#666666" points="932.48,-329.25 822.73,-329.25 822.73,-298.75 932.48,-298.75 932.48,-329.25"/>
<text text-anchor="start" x="830.73" y="-315.75" font-family="Helvetica,sans-Serif" font-size="10.00">mimic++/printing/type</text>
<text text-anchor="middle" x="877.6" y="-304.5" font-family="Helvetica,sans-Serif" font-size="10.00">/Templated.hpp</text>
</a>
</g>
</g>
<!-- Node2 -->
<g id="Node000002" class="node">
<title>Node2</title>
<g id="a_Node000002"><a xlink:href="../../df/dde/_fwd_8hpp.html" target="_top" xlink:title=" ">
<polygon fill="white" stroke="#666666" points="465.6,-129.75 371.6,-129.75 371.6,-110.5 465.6,-110.5 465.6,-129.75"/>
<text text-anchor="middle" x="418.6" y="-116.25" font-family="Helvetica,sans-Serif" font-size="10.00">mimic++/Fwd.hpp</text>
</a>
</g>
</g>
<!-- Node1&#45;&gt;Node2 -->
<g id="edge1_Node000001_Node000002" class="edge">
<title>Node1&#45;&gt;Node2</title>
<g id="a_edge1_Node000001_Node000002"><a xlink:title=" ">
<path fill="none" stroke="#63b8ff" d="M822.43,-313.87C661.55,-315.07 198.83,-308.53 112.6,-196.25 7.82,-59.81 -162.12,-206.2 359.98,-130.11"/>
<polygon fill="#63b8ff" stroke="#63b8ff" points="360.37,-133.59 369.75,-128.67 359.35,-126.67 360.37,-133.59"/>
</a>
</g>
</g>
<!-- Node3 -->
<g id="Node000003" class="node">
<title>Node3</title>
<g id="a_Node000003"><a xlink:href="../../d8/dd2/_config_8hpp.html" target="_top" xlink:title=" ">
<polygon fill="white" stroke="#666666" points="346.98,-74.5 216.23,-74.5 216.23,-55.25 346.98,-55.25 346.98,-74.5"/>
<text text-anchor="middle" x="281.6" y="-61" font-family="Helvetica,sans-Serif" font-size="10.00">mimic++/config/Config.hpp</text>
</a>
</g>
</g>
<!-- Node1&#45;&gt;Node3 -->
<g id="edge7_Node000001_Node000003" class="edge">
<title>Node1&#45;&gt;Node3</title>
<g id="a_edge7_Node000001_Node000003"><a xlink:title=" ">
<path fill="none" stroke="#63b8ff" d="M822.34,-312.77C653.85,-311.6 154.46,-304.61 95.6,-262.75 59.04,-236.74 43.71,-203.73 67.6,-165.75 99.26,-115.42 163.73,-90.06 213.68,-77.53"/>
<polygon fill="#63b8ff" stroke="#63b8ff" points="214.35,-80.97 223.27,-75.25 212.73,-74.16 214.35,-80.97"/>
</a>
</g>
</g>
<!-- Node8 -->
<g id="Node000008" class="node">
<title>Node8</title>
<g id="a_Node000008"><a xlink:href="../../d5/dec/_format_8hpp.html" target="_top" xlink:title=" ">
<polygon fill="white" stroke="#666666" points="445.85,-190.62 305.35,-190.62 305.35,-171.38 445.85,-171.38 445.85,-190.62"/>
<text text-anchor="middle" x="375.6" y="-177.12" font-family="Helvetica,sans-Serif" font-size="10.00">mimic++/printing/Format.hpp</text>
</a>
</g>
</g>
<!-- Node1&#45;&gt;Node8 -->
<g id="edge8_Node000001_Node000008" class="edge">
<title>Node1&#45;&gt;Node8</title>
<g id="a_edge8_Node000001_Node000008"><a xlink:title=" ">
<path fill="none" stroke="#63b8ff" d="M822.27,-306.77C763.01,-299.34 666.56,-285.05 585.6,-262.75 519.68,-244.59 445.73,-213.51 405.55,-195.67"/>
<polygon fill="#63b8ff" stroke="#63b8ff" points="407.08,-192.52 396.53,-191.63 404.22,-198.91 407.08,-192.52"/>
</a>
</g>
</g>
<!-- Node9 -->
<g id="Node000009" class="node">
<title>Node9</title>
<g id="a_Node000009"><a xlink:title=" ">
<polygon fill="#e0e0e0" stroke="#999999" points="1075.48,-129.75 1019.73,-129.75 1019.73,-110.5 1075.48,-110.5 1075.48,-129.75"/>
<text text-anchor="middle" x="1047.6" y="-116.25" font-family="Helvetica,sans-Serif" font-size="10.00">concepts</text>
</a>
</g>
</g>
<!-- Node1&#45;&gt;Node9 -->
<g id="edge39_Node000001_Node000009" class="edge">
<title>Node1&#45;&gt;Node9</title>
<g id="a_edge39_Node000001_Node000009"><a xlink:title=" ">
<path fill="none" stroke="#63b8ff" d="M893.31,-298.29C903.76,-288.4 917.69,-274.98 929.6,-262.75 957.59,-234.02 964.9,-227.04 990.6,-196.25 1006.44,-177.28 1023.42,-154.56 1034.68,-139.11"/>
<polygon fill="#63b8ff" stroke="#63b8ff" points="1037.28,-141.5 1040.31,-131.35 1031.61,-137.4 1037.28,-141.5"/>
</a>
</g>
</g>
<!-- Node11 -->
<g id="Node000011" class="node">
<title>Node11</title>
<g id="a_Node000011"><a xlink:title=" ">
<polygon fill="#e0e0e0" stroke="#999999" points="253.1,-129.75 192.1,-129.75 192.1,-110.5 253.1,-110.5 253.1,-129.75"/>
<text text-anchor="middle" x="222.6" y="-116.25" font-family="Helvetica,sans-Serif" font-size="10.00">type_traits</text>
</a>
</g>
</g>
<!-- Node1&#45;&gt;Node11 -->
<g id="edge43_Node000001_Node000011" class="edge">
<title>Node1&#45;&gt;Node11</title>
<g id="a_edge43_Node000001_Node000011"><a xlink:title=" ">
<path fill="none" stroke="#63b8ff" d="M822.36,-313.71C675.01,-314.88 275.73,-313.18 155.6,-262.75 105.36,-241.66 48.36,-209.68 80.6,-165.75 103.31,-134.82 147.45,-124.75 180.52,-121.76"/>
<polygon fill="#63b8ff" stroke="#63b8ff" points="180.46,-125.27 190.19,-121.08 179.97,-118.29 180.46,-125.27"/>
</a>
</g>
</g>
<!-- Node12 -->
<g id="Node000012" class="node">
<title>Node12</title>
<g id="a_Node000012"><a xlink:title=" ">
<polygon fill="#e0e0e0" stroke="#999999" points="1207.85,-129.75 1169.35,-129.75 1169.35,-110.5 1207.85,-110.5 1207.85,-129.75"/>
<text text-anchor="middle" x="1188.6" y="-116.25" font-family="Helvetica,sans-Serif" font-size="10.00">utility</text>
</a>
</g>
</g>
<!-- Node1&#45;&gt;Node12 -->
<g id="edge44_Node000001_Node000012" class="edge">
<title>Node1&#45;&gt;Node12</title>
<g id="a_edge44_Node000001_Node000012"><a xlink:title=" ">
<path fill="none" stroke="#63b8ff" d="M932.73,-313.6C1007.35,-312.65 1143.48,-304.58 1250.6,-262.75 1298.61,-244 1321.8,-241.96 1345.6,-196.25 1372.14,-145.28 1272.6,-128.58 1219.66,-123.36"/>
<polygon fill="#63b8ff" stroke="#63b8ff" points="1220,-119.88 1209.73,-122.47 1219.38,-126.85 1220,-119.88"/>
</a>
</g>
</g>
<!-- Node14 -->
<g id="Node000014" class="node">
<title>Node14</title>
<g id="a_Node000014"><a xlink:href="../../de/d52/printing_2_fwd_8hpp.html" target="_top" xlink:title=" ">
<polygon fill="white" stroke="#666666" points="249.85,-190.62 121.35,-190.62 121.35,-171.38 249.85,-171.38 249.85,-190.62"/>
<text text-anchor="middle" x="185.6" y="-177.12" font-family="Helvetica,sans-Serif" font-size="10.00">mimic++/printing/Fwd.hpp</text>
</a>
</g>
</g>
<!-- Node1&#45;&gt;Node14 -->
<g id="edge16_Node000001_Node000014" class="edge">
<title>Node1&#45;&gt;Node14</title>
<g id="a_edge16_Node000001_Node000014"><a xlink:title=" ">
<path fill="none" stroke="#63b8ff" d="M822.24,-307.97C747.29,-300.66 609.57,-285.45 493.6,-262.75 396.46,-243.74 284.52,-211.82 226.02,-194.35"/>
<polygon fill="#63b8ff" stroke="#63b8ff" points="227.08,-191.01 216.5,-191.49 225.07,-197.72 227.08,-191.01"/>
</a>
</g>
</g>
<!-- Node15 -->
<g id="Node000015" class="node">
<title>Node15</title>
<g id="a_Node000015"><a xlink:href="../../da/db0/_print_type_8hpp.html" target="_top" xlink:title=" ">
<polygon fill="white" stroke="#666666" points="704.48,-262.75 594.73,-262.75 594.73,-232.25 704.48,-232.25 704.48,-262.75"/>
<text text-anchor="start" x="602.73" y="-249.25" font-family="Helvetica,sans-Serif" font-size="10.00">mimic++/printing/type</text>
<text text-anchor="middle" x="649.6" y="-238" font-family="Helvetica,sans-Serif" font-size="10.00">/PrintType.hpp</text>
</a>
</g>
</g>
<!-- Node1&#45;&gt;Node15 -->
<g id="edge17_Node000001_Node000015" class="edge">
<title>Node1&#45;&gt;Node15</title>
<g id="a_edge17_Node000001_Node000015"><a xlink:title=" ">
<path fill="none" stroke="#63b8ff" d="M825.58,-298.28C791.87,-288.75 747.78,-276.27 712.16,-266.2"/>
<polygon fill="#63b8ff" stroke="#63b8ff" points="713.43,-262.92 702.86,-263.57 711.53,-269.66 713.43,-262.92"/>
</a>
</g>
</g>
<!-- Node18 -->
<g id="Node000018" class="node">
<title>Node18</title>
<g id="a_Node000018"><a xlink:title=" ">
<polygon fill="#e0e0e0" stroke="#999999" points="905.48,-190.62 849.73,-190.62 849.73,-171.38 905.48,-171.38 905.48,-190.62"/>
<text text-anchor="middle" x="877.6" y="-177.12" font-family="Helvetica,sans-Serif" font-size="10.00">algorithm</text>
</a>
</g>
</g>
<!-- Node1&#45;&gt;Node18 -->
<g id="edge38_Node000001_Node000018" class="edge">
<title>Node1&#45;&gt;Node18</title>
<g id="a_edge38_Node000001_Node000018"><a xlink:title=" ">
<path fill="none" stroke="#63b8ff" d="M877.6,-298.48C877.6,-275.12 877.6,-229.13 877.6,-202.46"/>
<polygon fill="#63b8ff" stroke="#63b8ff" points="881.1,-202.61 877.6,-192.61 874.1,-202.61 881.1,-202.61"/>
</a>
</g>
</g>
<!-- Node19 -->
<g id="Node000019" class="node">
<title>Node19</title>
<g id="a_Node000019"><a xlink:title=" ">
<polygon fill="#e0e0e0" stroke="#999999" points="981.6,-190.62 923.6,-190.62 923.6,-171.38 981.6,-171.38 981.6,-190.62"/>
<text text-anchor="middle" x="952.6" y="-177.12" font-family="Helvetica,sans-Serif" font-size="10.00">functional</text>
</a>
</g>
</g>
<!-- Node1&#45;&gt;Node19 -->
<g id="edge40_Node000001_Node000019" class="edge">
<title>Node1&#45;&gt;Node19</title>
<g id="a_edge40_Node000001_Node000019"><a xlink:title=" ">
<path fill="none" stroke="#63b8ff" d="M885.92,-298.48C899.53,-274.7 926.58,-227.45 941.71,-201.02"/>
<polygon fill="#63b8ff" stroke="#63b8ff" points="944.71,-202.83 946.64,-192.41 938.63,-199.35 944.71,-202.83"/>
</a>
</g>
</g>
<!-- Node22 -->
<g id="Node000022" class="node">
<title>Node22</title>
<g id="a_Node000022"><a xlink:href="../../df/d2e/_type_list_8hpp.html" target="_top" xlink:title=" ">
<polygon fill="white" stroke="#666666" points="1241.85,-257.12 1095.35,-257.12 1095.35,-237.88 1241.85,-237.88 1241.85,-257.12"/>
<text text-anchor="middle" x="1168.6" y="-243.62" font-family="Helvetica,sans-Serif" font-size="10.00">mimic++/utilities/TypeList.hpp</text>
</a>
</g>
</g>
<!-- Node1&#45;&gt;Node22 -->
<g id="edge30_Node000001_Node000022" class="edge">
<title>Node1&#45;&gt;Node22</title>
<g id="a_edge30_Node000001_Node000022"><a xlink:title=" ">
<path fill="none" stroke="#63b8ff" d="M932.68,-300.79C985.64,-289.05 1065.08,-271.45 1116.89,-259.96"/>
<polygon fill="#63b8ff" stroke="#63b8ff" points="1117.34,-263.45 1126.34,-257.87 1115.82,-256.61 1117.34,-263.45"/>
</a>
</g>
</g>
<!-- Node25 -->
<g id="Node000025" class="node">
<title>Node25</title>
<g id="a_Node000025"><a xlink:title=" ">
<polygon fill="#e0e0e0" stroke="#999999" points="1463.85,-257.12 1413.35,-257.12 1413.35,-237.88 1463.85,-237.88 1463.85,-257.12"/>
<text text-anchor="middle" x="1438.6" y="-243.62" font-family="Helvetica,sans-Serif" font-size="10.00">memory</text>
</a>
</g>
</g>
<!-- Node1&#45;&gt;Node25 -->
<g id="edge41_Node000001_Node000025" class="edge">
<title>Node1&#45;&gt;Node25</title>
<g id="a_edge41_Node000001_Node000025"><a xlink:title=" ">
<path fill="none" stroke="#63b8ff" d="M932.81,-312.27C1028.87,-310 1232.46,-300.68 1399.6,-262.75 1401.76,-262.26 1403.97,-261.68 1406.18,-261.04"/>
<polygon fill="#63b8ff" stroke="#63b8ff" points="1407.18,-264.4 1415.59,-257.96 1405,-257.75 1407.18,-264.4"/>
</a>
</g>
</g>
<!-- Node26 -->
<g id="Node000026" class="node">
<title>Node26</title>
<g id="a_Node000026"><a xlink:title=" ">
<polygon fill="#e0e0e0" stroke="#999999" points="1575.23,-257.12 1481.98,-257.12 1481.98,-237.88 1575.23,-237.88 1575.23,-257.12"/>
<text text-anchor="middle" x="1528.6" y="-243.62" font-family="Helvetica,sans-Serif" font-size="10.00">memory_resource</text>
</a>
</g>
</g>
<!-- Node1&#45;&gt;Node26 -->
<g id="edge42_Node000001_Node000026" class="edge">
<title>Node1&#45;&gt;Node26</title>
<g id="a_edge42_Node000001_Node000026"><a xlink:title=" ">
<path fill="none" stroke="#63b8ff" d="M932.94,-311.37C1038.54,-307.59 1275.81,-295.87 1472.6,-262.75 1476.93,-262.02 1481.42,-261.13 1485.88,-260.14"/>
<polygon fill="#63b8ff" stroke="#63b8ff" points="1486.41,-263.61 1495.34,-257.9 1484.8,-256.8 1486.41,-263.61"/>
</a>
</g>
</g>
<!-- Node2&#45;&gt;Node3 -->
<g id="edge2_Node000002_Node000003" class="edge">
<title>Node2&#45;&gt;Node3</title>
<g id="a_edge2_Node000002_Node000003"><a xlink:title=" ">
<path fill="none" stroke="#63b8ff" d="M395.36,-110.09C373.42,-101.56 340.25,-88.67 315.39,-79.01"/>
<polygon fill="#63b8ff" stroke="#63b8ff" points="316.96,-75.86 306.37,-75.5 314.42,-82.39 316.96,-75.86"/>
</a>
</g>
</g>
<!-- Node6 -->
<g id="Node000006" class="node">
<title>Node6</title>
<g id="a_Node000006"><a xlink:title=" ">
<polygon fill="#e0e0e0" stroke="#999999" points="421.6,-74.5 381.6,-74.5 381.6,-55.25 421.6,-55.25 421.6,-74.5"/>
<text text-anchor="middle" x="401.6" y="-61" font-family="Helvetica,sans-Serif" font-size="10.00">string</text>
</a>
</g>
</g>
<!-- Node2&#45;&gt;Node6 -->
<g id="edge5_Node000002_Node000006" class="edge">
<title>Node2&#45;&gt;Node6</title>
<g id="a_edge5_Node000002_Node000006"><a xlink:title=" ">
<path fill="none" stroke="#63b8ff" d="M415.8,-110.33C413.67,-103.67 410.66,-94.24 407.96,-85.78"/>
<polygon fill="#63b8ff" stroke="#63b8ff" points="411.31,-84.76 404.93,-76.3 404.64,-86.89 411.31,-84.76"/>
</a>
</g>
</g>
<!-- Node7 -->
<g id="Node000007" class="node">
<title>Node7</title>
<g id="a_Node000007"><a xlink:title=" ">
<polygon fill="#e0e0e0" stroke="#999999" points="505.35,-74.5 439.85,-74.5 439.85,-55.25 505.35,-55.25 505.35,-74.5"/>
<text text-anchor="middle" x="472.6" y="-61" font-family="Helvetica,sans-Serif" font-size="10.00">string_view</text>
</a>
</g>
</g>
<!-- Node2&#45;&gt;Node7 -->
<g id="edge6_Node000002_Node000007" class="edge">
<title>Node2&#45;&gt;Node7</title>
<g id="a_edge6_Node000002_Node000007"><a xlink:title=" ">
<path fill="none" stroke="#63b8ff" d="M427.52,-110.33C435.06,-102.9 446.07,-92.04 455.33,-82.91"/>
<polygon fill="#63b8ff" stroke="#63b8ff" points="457.75,-85.44 462.41,-75.92 452.84,-80.45 457.75,-85.44"/>
</a>
</g>
</g>
<!-- Node4 -->
<g id="Node000004" class="node">
<title>Node4</title>
<g id="a_Node000004"><a xlink:title=" ">
<polygon fill="#e0e0e0" stroke="#999999" points="272.23,-19.25 226.98,-19.25 226.98,0 272.23,0 272.23,-19.25"/>
<text text-anchor="middle" x="249.6" y="-5.75" font-family="Helvetica,sans-Serif" font-size="10.00">cstdint</text>
</a>
</g>
</g>
<!-- Node3&#45;&gt;Node4 -->
<g id="edge3_Node000003_Node000004" class="edge">
<title>Node3&#45;&gt;Node4</title>
<g id="a_edge3_Node000003_Node000004"><a xlink:title=" ">
<path fill="none" stroke="#63b8ff" d="M276.32,-55.08C272.13,-48.11 266.12,-38.12 260.87,-29.37"/>
<polygon fill="#63b8ff" stroke="#63b8ff" points="263.93,-27.68 255.78,-20.91 257.93,-31.28 263.93,-27.68"/>
</a>
</g>
</g>
<!-- Node5 -->
<g id="Node000005" class="node">
<title>Node5</title>
<g id="a_Node000005"><a xlink:title=" ">
<polygon fill="#e0e0e0" stroke="#999999" points="337.35,-19.25 289.85,-19.25 289.85,0 337.35,0 337.35,-19.25"/>
<text text-anchor="middle" x="313.6" y="-5.75" font-family="Helvetica,sans-Serif" font-size="10.00">version</text>
</a>
</g>
</g>
<!-- Node3&#45;&gt;Node5 -->
<g id="edge4_Node000003_Node000005" class="edge">
<title>Node3&#45;&gt;Node5</title>
<g id="a_edge4_Node000003_Node000005"><a xlink:title=" ">
<path fill="none" stroke="#63b8ff" d="M286.89,-55.08C291.08,-48.11 297.08,-38.12 302.34,-29.37"/>
<polygon fill="#63b8ff" stroke="#63b8ff" points="305.27,-31.28 307.42,-20.91 299.27,-27.68 305.27,-31.28"/>
</a>
</g>
</g>
<!-- Node8&#45;&gt;Node2 -->
<g id="edge9_Node000008_Node000002" class="edge">
<title>Node8&#45;&gt;Node2</title>
<g id="a_edge9_Node000008_Node000002"><a xlink:title=" ">
<path fill="none" stroke="#63b8ff" d="M382.13,-171.06C388.26,-162.67 397.6,-149.88 405.3,-139.34"/>
<polygon fill="#63b8ff" stroke="#63b8ff" points="408.05,-141.51 411.12,-131.37 402.39,-137.38 408.05,-141.51"/>
</a>
</g>
</g>
<!-- Node8&#45;&gt;Node3 -->
<g id="edge10_Node000008_Node000003" class="edge">
<title>Node8&#45;&gt;Node3</title>
<g id="a_edge10_Node000008_Node000003"><a xlink:title=" ">
<path fill="none" stroke="#63b8ff" d="M354.85,-171.03C337.9,-162.68 314.54,-148.68 300.6,-129.75 291.24,-117.04 286.46,-99.74 284.04,-86.35"/>
<polygon fill="#63b8ff" stroke="#63b8ff" points="287.51,-85.87 282.59,-76.49 280.58,-86.89 287.51,-85.87"/>
</a>
</g>
</g>
<!-- Node8&#45;&gt;Node9 -->
<g id="edge11_Node000008_Node000009" class="edge">
<title>Node8&#45;&gt;Node9</title>
<g id="a_edge11_Node000008_Node000009"><a xlink:title=" ">
<path fill="none" stroke="#63b8ff" d="M421.43,-170.91C432.27,-168.98 443.82,-167.12 454.6,-165.75 662.08,-139.3 912.54,-126.77 1008.02,-122.69"/>
<polygon fill="#63b8ff" stroke="#63b8ff" points="1008.05,-126.19 1017.9,-122.27 1007.76,-119.2 1008.05,-126.19"/>
</a>
</g>
</g>
<!-- Node10 -->
<g id="Node000010" class="node">
<title>Node10</title>
<g id="a_Node000010"><a xlink:title=" ">
<polygon fill="#e0e0e0" stroke="#999999" points="535.23,-129.75 483.98,-129.75 483.98,-110.5 535.23,-110.5 535.23,-129.75"/>
<text text-anchor="middle" x="509.6" y="-116.25" font-family="Helvetica,sans-Serif" font-size="10.00">sstream</text>
</a>
</g>
</g>
<!-- Node8&#45;&gt;Node10 -->
<g id="edge12_Node000008_Node000010" class="edge">
<title>Node8&#45;&gt;Node10</title>
<g id="a_edge12_Node000008_Node000010"><a xlink:title=" ">
<path fill="none" stroke="#63b8ff" d="M396.25,-170.93C418.25,-161.26 453.32,-145.85 478.63,-134.73"/>
<polygon fill="#63b8ff" stroke="#63b8ff" points="480.02,-137.94 487.77,-130.72 477.21,-131.54 480.02,-137.94"/>
</a>
</g>
</g>
<!-- Node8&#45;&gt;Node11 -->
<g id="edge13_Node000008_Node000011" class="edge">
<title>Node8&#45;&gt;Node11</title>
<g id="a_edge13_Node000008_Node000011"><a xlink:title=" ">
<path fill="none" stroke="#63b8ff" d="M352.03,-170.93C326.54,-161.12 285.66,-145.39 256.67,-134.23"/>
<polygon fill="#63b8ff" stroke="#63b8ff" points="258.2,-131.07 247.61,-130.75 255.69,-137.61 258.2,-131.07"/>
</a>
</g>
</g>
<!-- Node8&#45;&gt;Node12 -->
<g id="edge14_Node000008_Node000012" class="edge">
<title>Node8&#45;&gt;Node12</title>
<g id="a_edge14_Node000008_Node000012"><a xlink:title=" ">
<path fill="none" stroke="#63b8ff" d="M420.58,-170.91C431.66,-168.94 443.53,-167.06 454.6,-165.75 733.12,-132.8 804.83,-149.34 1084.6,-129.75 1109.23,-128.03 1137.1,-125.69 1157.79,-123.89"/>
<polygon fill="#63b8ff" stroke="#63b8ff" points="1157.9,-127.39 1167.56,-123.03 1157.29,-120.42 1157.9,-127.39"/>
</a>
</g>
</g>
<!-- Node13 -->
<g id="Node000013" class="node">
<title>Node13</title>
<g id="a_Node000013"><a xlink:title=" ">
<polygon fill="#e0e0e0" stroke="#999999" points="353.48,-129.75 309.73,-129.75 309.73,-110.5 353.48,-110.5 353.48,-129.75"/>
<text text-anchor="middle" x="331.6" y="-116.25" font-family="Helvetica,sans-Serif" font-size="10.00">format</text>
</a>
</g>
</g>
<!-- Node8&#45;&gt;Node13 -->
<g id="edge15_Node000008_Node000013" class="edge">
<title>Node8&#45;&gt;Node13</title>
<g id="a_edge15_Node000008_Node000013"><a xlink:title=" ">
<path fill="none" stroke="#63b8ff" d="M368.92,-171.06C362.65,-162.67 353.09,-149.88 345.22,-139.34"/>
<polygon fill="#63b8ff" stroke="#63b8ff" points="348.04,-137.28 339.25,-131.36 342.44,-141.47 348.04,-137.28"/>
</a>
</g>
</g>
<!-- Node15&#45;&gt;Node2 -->
<g id="edge18_Node000015_Node000002" class="edge">
<title>Node15&#45;&gt;Node2</title>
<g id="a_edge18_Node000015_Node000002"><a xlink:title=" ">
<path fill="none" stroke="#63b8ff" d="M642.12,-231.89C632.01,-213.62 612.27,-182.71 586.6,-165.75 568.59,-153.85 518.25,-141.32 477.34,-132.57"/>
<polygon fill="#63b8ff" stroke="#63b8ff" points="478.07,-129.15 467.56,-130.52 476.63,-136 478.07,-129.15"/>
</a>
</g>
</g>
<!-- Node15&#45;&gt;Node8 -->
<g id="edge19_Node000015_Node000008" class="edge">
<title>Node15&#45;&gt;Node8</title>
<g id="a_edge19_Node000015_Node000008"><a xlink:title=" ">
<path fill="none" stroke="#63b8ff" d="M594.48,-233.53C545.01,-221.88 473.02,-204.93 425.28,-193.69"/>
<polygon fill="#63b8ff" stroke="#63b8ff" points="426.3,-190.34 415.77,-191.45 424.7,-197.15 426.3,-190.34"/>
</a>
</g>
</g>
<!-- Node15&#45;&gt;Node9 -->
<g id="edge24_Node000015_Node000009" class="edge">
<title>Node15&#45;&gt;Node9</title>
<g id="a_edge24_Node000015_Node000009"><a xlink:title=" ">
<path fill="none" stroke="#63b8ff" d="M688.63,-231.77C711.35,-222.63 740.23,-210.03 764.6,-196.25 785,-184.72 786.03,-174.88 807.6,-165.75 874.49,-137.44 959.37,-127.04 1008.19,-123.25"/>
<polygon fill="#63b8ff" stroke="#63b8ff" points="1008.26,-126.75 1017.99,-122.55 1007.76,-119.77 1008.26,-126.75"/>
</a>
</g>
</g>
<!-- Node15&#45;&gt;Node11 -->
<g id="edge27_Node000015_Node000011" class="edge">
<title>Node15&#45;&gt;Node11</title>
<g id="a_edge27_Node000015_Node000011"><a xlink:title=" ">
<path fill="none" stroke="#63b8ff" d="M594.31,-242.95C508.44,-236.72 347.59,-221.97 296.6,-196.25 282.77,-189.27 254.9,-158.7 237.59,-138.77"/>
<polygon fill="#63b8ff" stroke="#63b8ff" points="240.41,-136.69 231.24,-131.39 235.1,-141.25 240.41,-136.69"/>
</a>
</g>
</g>
<!-- Node15&#45;&gt;Node12 -->
<g id="edge29_Node000015_Node000012" class="edge">
<title>Node15&#45;&gt;Node12</title>
<g id="a_edge29_Node000015_Node000012"><a xlink:title=" ">
<path fill="none" stroke="#63b8ff" d="M704.84,-232.87C734.23,-224.45 770.44,-212.2 800.6,-196.25 820.37,-185.8 819.92,-174.24 840.6,-165.75 869.68,-153.82 1078.09,-132.12 1157.75,-124.16"/>
<polygon fill="#63b8ff" stroke="#63b8ff" points="1157.85,-127.66 1167.46,-123.19 1157.16,-120.7 1157.85,-127.66"/>
</a>
</g>
</g>
<!-- Node15&#45;&gt;Node14 -->
<g id="edge20_Node000015_Node000014" class="edge">
<title>Node15&#45;&gt;Node14</title>
<g id="a_edge20_Node000015_Node000014"><a xlink:title=" ">
<path fill="none" stroke="#63b8ff" d="M594.5,-240.23C519.49,-231.48 381.12,-214.62 263.6,-196.25 257.24,-195.26 250.6,-194.15 244,-193"/>
<polygon fill="#63b8ff" stroke="#63b8ff" points="244.92,-189.61 234.46,-191.32 243.7,-196.51 244.92,-189.61"/>
</a>
</g>
</g>
<!-- Node16 -->
<g id="Node000016" class="node">
<title>Node16</title>
<g id="a_Node000016"><a xlink:href="../../d8/d65/_priority_tag_8hpp.html" target="_top" xlink:title=" ">
<polygon fill="white" stroke="#666666" points="755.1,-196.25 634.1,-196.25 634.1,-165.75 755.1,-165.75 755.1,-196.25"/>
<text text-anchor="start" x="642.1" y="-182.75" font-family="Helvetica,sans-Serif" font-size="10.00">mimic++/utilities/Priority</text>
<text text-anchor="middle" x="694.6" y="-171.5" font-family="Helvetica,sans-Serif" font-size="10.00">Tag.hpp</text>
</a>
</g>
</g>
<!-- Node15&#45;&gt;Node16 -->
<g id="edge21_Node000015_Node000016" class="edge">
<title>Node15&#45;&gt;Node16</title>
<g id="a_edge21_Node000015_Node000016"><a xlink:title=" ">
<path fill="none" stroke="#63b8ff" d="M659.81,-231.86C665.16,-224.19 671.85,-214.61 677.93,-205.9"/>
<polygon fill="#63b8ff" stroke="#63b8ff" points="680.71,-208.02 683.57,-197.82 674.97,-204.02 680.71,-208.02"/>
</a>
</g>
</g>
<!-- Node15&#45;&gt;Node18 -->
<g id="edge23_Node000015_Node000018" class="edge">
<title>Node15&#45;&gt;Node18</title>
<g id="a_edge23_Node000015_Node000018"><a xlink:title=" ">
<path fill="none" stroke="#63b8ff" d="M704.8,-232.57C741.94,-222.95 791.92,-209.55 835.6,-196.25 837.43,-195.7 839.29,-195.11 841.17,-194.52"/>
<polygon fill="#63b8ff" stroke="#63b8ff" points="842.07,-197.91 850.48,-191.47 839.89,-191.25 842.07,-197.91"/>
</a>
</g>
</g>
<!-- Node15&#45;&gt;Node19 -->
<g id="edge25_Node000015_Node000019" class="edge">
<title>Node15&#45;&gt;Node19</title>
<g id="a_edge25_Node000015_Node000019"><a xlink:title=" ">
<path fill="none" stroke="#63b8ff" d="M704.8,-238.86C758.85,-230.71 843.25,-216.24 914.6,-196.25 916.21,-195.8 917.85,-195.31 919.5,-194.79"/>
<polygon fill="#63b8ff" stroke="#63b8ff" points="920.55,-198.13 928.88,-191.58 918.28,-191.51 920.55,-198.13"/>
</a>
</g>
</g>
<!-- Node20 -->
<g id="Node000020" class="node">
<title>Node20</title>
<g id="a_Node000020"><a xlink:title=" ">
<polygon fill="#e0e0e0" stroke="#999999" points="509.6,-190.62 463.6,-190.62 463.6,-171.38 509.6,-171.38 509.6,-190.62"/>
<text text-anchor="middle" x="486.6" y="-177.12" font-family="Helvetica,sans-Serif" font-size="10.00">iterator</text>
</a>
</g>
</g>
<!-- Node15&#45;&gt;Node20 -->
<g id="edge26_Node000015_Node000020" class="edge">
<title>Node15&#45;&gt;Node20</title>
<g id="a_edge26_Node000015_Node000020"><a xlink:title=" ">
<path fill="none" stroke="#63b8ff" d="M609.54,-231.76C583.5,-222.02 548.87,-208.79 518.6,-196.25 517.99,-196 517.37,-195.74 516.74,-195.47"/>
<polygon fill="#63b8ff" stroke="#63b8ff" points="518.46,-192.4 507.89,-191.66 515.69,-198.83 518.46,-192.4"/>
</a>
</g>
</g>
<!-- Node21 -->
<g id="Node000021" class="node">
<title>Node21</title>
<g id="a_Node000021"><a xlink:title=" ">
<polygon fill="#e0e0e0" stroke="#999999" points="577.48,-190.62 527.73,-190.62 527.73,-171.38 577.48,-171.38 577.48,-190.62"/>
<text text-anchor="middle" x="552.6" y="-177.12" font-family="Helvetica,sans-Serif" font-size="10.00">typeinfo</text>
</a>
</g>
</g>
<!-- Node15&#45;&gt;Node21 -->
<g id="edge28_Node000015_Node000021" class="edge">
<title>Node15&#45;&gt;Node21</title>
<g id="a_edge28_Node000015_Node000021"><a xlink:title=" ">
<path fill="none" stroke="#63b8ff" d="M627.59,-231.86C612.09,-221.56 591.39,-207.79 575.66,-197.33"/>
<polygon fill="#63b8ff" stroke="#63b8ff" points="577.68,-194.47 567.41,-191.85 573.8,-200.3 577.68,-194.47"/>
</a>
</g>
</g>
<!-- Node17 -->
<g id="Node000017" class="node">
<title>Node17</title>
<g id="a_Node000017"><a xlink:title=" ">
<polygon fill="#e0e0e0" stroke="#999999" points="859.73,-129.75 811.48,-129.75 811.48,-110.5 859.73,-110.5 859.73,-129.75"/>
<text text-anchor="middle" x="835.6" y="-116.25" font-family="Helvetica,sans-Serif" font-size="10.00">cstddef</text>
</a>
</g>
</g>
<!-- Node16&#45;&gt;Node17 -->
<g id="edge22_Node000016_Node000017" class="edge">
<title>Node16&#45;&gt;Node17</title>
<g id="a_edge22_Node000016_Node000017"><a xlink:title=" ">
<path fill="none" stroke="#63b8ff" d="M729.82,-165.3C752.43,-155.85 781.56,-143.69 803.53,-134.52"/>
<polygon fill="#63b8ff" stroke="#63b8ff" points="804.7,-137.82 812.58,-130.74 802.01,-131.36 804.7,-137.82"/>
</a>
</g>
</g>
<!-- Node22&#45;&gt;Node9 -->
<g id="edge34_Node000022_Node000009" class="edge">
<title>Node22&#45;&gt;Node9</title>
<g id="a_edge34_Node000022_Node000009"><a xlink:title=" ">
<path fill="none" stroke="#63b8ff" d="M1155.04,-237.4C1141.49,-227.96 1120.45,-212.36 1104.6,-196.25 1087.09,-178.44 1070.2,-155.17 1059.42,-139.28"/>
<polygon fill="#63b8ff" stroke="#63b8ff" points="1062.56,-137.68 1054.11,-131.29 1056.73,-141.56 1062.56,-137.68"/>
</a>
</g>
</g>
<!-- Node22&#45;&gt;Node12 -->
<g id="edge37_Node000022_Node000012" class="edge">
<title>Node22&#45;&gt;Node12</title>
<g id="a_edge37_Node000022_Node000012"><a xlink:title=" ">
<path fill="none" stroke="#63b8ff" d="M1242.3,-242.2C1274.19,-236.23 1308.7,-223.36 1328.6,-196.25 1359.35,-154.36 1269.02,-133.44 1219.17,-125.31"/>
<polygon fill="#63b8ff" stroke="#63b8ff" points="1219.95,-121.89 1209.54,-123.83 1218.89,-128.81 1219.95,-121.89"/>
</a>
</g>
</g>
<!-- Node22&#45;&gt;Node17 -->
<g id="edge35_Node000022_Node000017" class="edge">
<title>Node22&#45;&gt;Node17</title>
<g id="a_edge35_Node000022_Node000017"><a xlink:title=" ">
<path fill="none" stroke="#63b8ff" d="M1151.27,-237.61C1119.85,-221.73 1051.1,-188.05 990.6,-165.75 950.35,-150.92 902.77,-137.86 871.05,-129.76"/>
<polygon fill="#63b8ff" stroke="#63b8ff" points="872.14,-126.42 861.59,-127.38 870.43,-133.21 872.14,-126.42"/>
</a>
</g>
</g>
<!-- Node23 -->
<g id="Node000023" class="node">
<title>Node23</title>
<g id="a_Node000023"><a xlink:href="../../d9/db9/_concepts_8hpp.html" target="_top" xlink:title=" ">
<polygon fill="white" stroke="#666666" points="1263.73,-190.62 1113.48,-190.62 1113.48,-171.38 1263.73,-171.38 1263.73,-190.62"/>
<text text-anchor="middle" x="1188.6" y="-177.12" font-family="Helvetica,sans-Serif" font-size="10.00">mimic++/utilities/Concepts.hpp</text>
</a>
</g>
</g>
<!-- Node22&#45;&gt;Node23 -->
<g id="edge31_Node000022_Node000023" class="edge">
<title>Node22&#45;&gt;Node23</title>
<g id="a_edge31_Node000022_Node000023"><a xlink:title=" ">
<path fill="none" stroke="#63b8ff" d="M1171.38,-237.53C1174.25,-228.29 1178.81,-213.58 1182.52,-201.63"/>
<polygon fill="#63b8ff" stroke="#63b8ff" points="1185.78,-202.93 1185.4,-192.34 1179.09,-200.85 1185.78,-202.93"/>
</a>
</g>
</g>
<!-- Node24 -->
<g id="Node000024" class="node">
<title>Node24</title>
<g id="a_Node000024"><a xlink:title=" ">
<polygon fill="#e0e0e0" stroke="#999999" points="1319.1,-190.62 1282.1,-190.62 1282.1,-171.38 1319.1,-171.38 1319.1,-190.62"/>
<text text-anchor="middle" x="1300.6" y="-177.12" font-family="Helvetica,sans-Serif" font-size="10.00">tuple</text>
</a>
</g>
</g>
<!-- Node22&#45;&gt;Node24 -->
<g id="edge36_Node000022_Node000024" class="edge">
<title>Node22&#45;&gt;Node24</title>
<g id="a_edge36_Node000022_Node000024"><a xlink:title=" ">
<path fill="none" stroke="#63b8ff" d="M1187.45,-237.54C1206.53,-228.43 1237.11,-213.76 1272.69,-196.15"/>
<polygon fill="#63b8ff" stroke="#63b8ff" points="1274.1,-199.36 1281.5,-191.77 1270.99,-193.08 1274.1,-199.36"/>
</a>
</g>
</g>
<!-- Node23&#45;&gt;Node9 -->
<g id="edge32_Node000023_Node000009" class="edge">
<title>Node23&#45;&gt;Node9</title>
<g id="a_edge32_Node000023_Node000009"><a xlink:title=" ">
<path fill="none" stroke="#63b8ff" d="M1166.88,-170.93C1143.52,-161.18 1106.16,-145.58 1079.48,-134.43"/>
<polygon fill="#63b8ff" stroke="#63b8ff" points="1081.09,-131.32 1070.51,-130.69 1078.39,-137.78 1081.09,-131.32"/>
</a>
</g>
</g>
<!-- Node23&#45;&gt;Node12 -->
<g id="edge33_Node000023_Node000012" class="edge">
<title>Node23&#45;&gt;Node12</title>
<g id="a_edge33_Node000023_Node000012"><a xlink:title=" ">
<path fill="none" stroke="#63b8ff" d="M1188.6,-171.06C1188.6,-163.28 1188.6,-151.7 1188.6,-141.66"/>
<polygon fill="#63b8ff" stroke="#63b8ff" points="1192.1,-141.66 1188.6,-131.66 1185.1,-141.66 1192.1,-141.66"/>
</a>
</g>
</g>
</g>
</svg>

<g id="navigator" transform="translate(0 0)" fill="#404254">
  <rect fill="#f2f5e9" fill-opacity="0.5" stroke="#606060" stroke-width=".5" x="0" y="0" width="60" height="60"/>
  <use id="zoomplus" xlink:href="#zoomPlus" x="17" y="9" onmousedown="handleZoom(evt,'in')"/>
  <use id="zoomminus" xlink:href="#zoomMin" x="42" y="9" onmousedown="handleZoom(evt,'out')"/>
  <use id="reset" xlink:href="#resetDef" x="30" y="36" onmousedown="handleReset()"/>
   <use id="arrowup" xlink:href="#arrowUp" x="0" y="0" onmousedown="handlePan(0,-1)"/>
  <use id="arrowright" xlink:href="#arrowRight" x="0" y="0" onmousedown="handlePan(1,0)"/>
  <use id="arrowdown" xlink:href="#arrowDown" x="0" y="0" onmousedown="handlePan(0,1)"/>
  <use id="arrowleft" xlink:href="#arrowLeft" x="0" y="0" onmousedown="handlePan(-1,0)"/>
</g>
<svg viewBox="0 0 15 15" width="100%" height="30px" preserveAspectRatio="xMaxYMin meet">
 <g id="arrow_out" transform="scale(0.3 0.3)">
  <a xlink:href="_templated_8hpp__incl_org.svg" target="_base">
   <rect id="button" ry="5" rx="5" y="6" x="6" height="38" width="38"
        fill="#f2f5e9" fill-opacity="0.5" stroke="#606060" stroke-width="1.0"/>
   <path id="arrow"
     d="M 11.500037,31.436501 C 11.940474,20.09759 22.043105,11.32322 32.158766,21.979434 L 37.068811,17.246167 C 37.068811,17.246167 37.088388,32 37.088388,32 L 22.160133,31.978069 C 22.160133,31.978069 26.997745,27.140456 26.997745,27.140456 C 18.528582,18.264221 13.291696,25.230495 11.500037,31.436501 z"
     style="fill:#404040;"/>
  </a>
 </g>
</svg>

<style type='text/css'>
<![CDATA[
[data-mouse-over-selected='false'] { opacity: 0.7; }
[data-mouse-over-selected='true']  { opacity: 1.0; }
]]>
</style>
<script type="application/ecmascript"><![CDATA[
document.addEventListener('DOMContentLoaded', (event) => {
  highlightEdges();
  highlightAdjacentNodes();
});
]]></script>
</svg>
