<?xml version="1.0" encoding="UTF-8" standalone="no"?>
<!DOCTYPE svg PUBLIC "-//W3C//DTD SVG 1.1//EN"
 "http://www.w3.org/Graphics/SVG/1.1/DTD/svg11.dtd">
<!-- Generated by graphviz version 12.2.1 (20241206.2353)
 -->
<!-- Title: mimicpp::reporting::state_inapplicable Pages: 1 -->
<svg width="1188pt" height="191pt"
 viewBox="0.00 0.00 1188.00 190.50" xmlns="http://www.w3.org/2000/svg" xmlns:xlink="http://www.w3.org/1999/xlink">
<g id="graph0" class="graph" transform="scale(1 1) rotate(0) translate(4 186.5)">
<title>mimicpp::reporting::state_inapplicable</title>
<!-- Node1 -->
<g id="Node000001" class="node">
<title>Node1</title>
<g id="a_Node000001"><a xlink:title="Denotes an inapplicable expectation state.">
<polygon fill="#999999" stroke="#666666" points="1180,-98.5 1081.5,-98.5 1081.5,-68 1180,-68 1180,-98.5"/>
<text text-anchor="start" x="1089.5" y="-85" font-family="Helvetica,sans-Serif" font-size="10.00">mimicpp::reporting</text>
<text text-anchor="middle" x="1130.75" y="-73.75" font-family="Helvetica,sans-Serif" font-size="10.00">::state_inapplicable</text>
</a>
</g>
</g>
<!-- Node2 -->
<g id="Node000002" class="node">
<title>Node2</title>
<g id="a_Node000002"><a xlink:title=" ">
<polygon fill="white" stroke="#666666" points="921.38,-126.5 815.38,-126.5 815.38,-96 921.38,-96 921.38,-126.5"/>
<text text-anchor="start" x="823.38" y="-113" font-family="Helvetica,sans-Serif" font-size="10.00">std::vector&lt; mimicpp</text>
<text text-anchor="middle" x="868.38" y="-101.75" font-family="Helvetica,sans-Serif" font-size="10.00">::sequence::rating &gt;</text>
</a>
</g>
</g>
<!-- Node2&#45;&gt;Node1 -->
<g id="edge1_Node000001_Node000002" class="edge">
<title>Node2&#45;&gt;Node1</title>
<g id="a_edge1_Node000001_Node000002"><a xlink:title=" ">
<path fill="none" stroke="#9a32cd" stroke-dasharray="5,2" d="M933.05,-104.4C978.82,-99.48 1039.59,-92.95 1081.41,-88.45"/>
<polygon fill="#9a32cd" stroke="#9a32cd" points="932.83,-100.91 923.26,-105.46 933.57,-107.87 932.83,-100.91"/>
</a>
</g>
<text text-anchor="start" x="987" y="-106.14" font-family="Helvetica,sans-Serif" font-size="10.00" fill="grey">sequences</text>
</g>
<!-- Node3 -->
<g id="Node000003" class="node">
<title>Node3</title>
<g id="a_Node000003"><a xlink:href="../../de/d81/structmimicpp_1_1sequence_1_1rating.html" target="_top" xlink:title=" ">
<polygon fill="white" stroke="#666666" points="663.5,-182.5 559.75,-182.5 559.75,-152 663.5,-152 663.5,-182.5"/>
<text text-anchor="start" x="567.75" y="-169" font-family="Helvetica,sans-Serif" font-size="10.00">mimicpp::sequence::</text>
<text text-anchor="middle" x="611.62" y="-157.75" font-family="Helvetica,sans-Serif" font-size="10.00">rating</text>
</a>
</g>
</g>
<!-- Node3&#45;&gt;Node2 -->
<g id="edge2_Node000002_Node000003" class="edge">
<title>Node3&#45;&gt;Node2</title>
<g id="a_edge2_Node000002_Node000003"><a xlink:title=" ">
<path fill="none" stroke="#9a32cd" stroke-dasharray="5,2" d="M675.14,-158.23C706.51,-153.23 744.97,-146.38 779,-138.25 792.42,-135.04 806.8,-130.94 819.97,-126.91"/>
<polygon fill="#9a32cd" stroke="#9a32cd" points="674.76,-154.75 665.43,-159.76 675.85,-161.67 674.76,-154.75"/>
</a>
</g>
<text text-anchor="start" x="710.38" y="-161.44" font-family="Helvetica,sans-Serif" font-size="10.00" fill="grey">elements</text>
</g>
<!-- Node4 -->
<g id="Node000004" class="node">
<title>Node4</title>
<g id="a_Node000004"><a xlink:title=" ">
<polygon fill="white" stroke="#666666" points="653.38,-93.88 569.88,-93.88 569.88,-74.62 653.38,-74.62 653.38,-93.88"/>
<text text-anchor="middle" x="611.62" y="-80.38" font-family="Helvetica,sans-Serif" font-size="10.00">std::vector&lt; T &gt;</text>
</a>
</g>
</g>
<!-- Node4&#45;&gt;Node2 -->
<g id="edge3_Node000002_Node000004" class="edge">
<title>Node4&#45;&gt;Node2</title>
<g id="a_edge3_Node000002_Node000004"><a xlink:title=" ">
<path fill="none" stroke="orange" stroke-dasharray="5,2" d="M665.14,-89.82C709.06,-94.47 771.37,-101.08 815.19,-105.72"/>
<polygon fill="orange" stroke="orange" points="665.66,-86.35 655.34,-88.78 664.92,-93.31 665.66,-86.35"/>
</a>
</g>
<text text-anchor="start" x="684.5" y="-121.75" font-family="Helvetica,sans-Serif" font-size="10.00" fill="grey">&lt; mimicpp::sequence</text>
<text text-anchor="start" x="684.5" y="-106.5" font-family="Helvetica,sans-Serif" font-size="10.00" fill="grey">  ::rating &gt;</text>
</g>
<!-- Node6 -->
<g id="Node000006" class="node">
<title>Node6</title>
<g id="a_Node000006"><a xlink:title=" ">
<polygon fill="white" stroke="#666666" points="939.75,-70.5 797,-70.5 797,-40 939.75,-40 939.75,-70.5"/>
<text text-anchor="start" x="805" y="-57" font-family="Helvetica,sans-Serif" font-size="10.00">std::vector&lt; mimicpp</text>
<text text-anchor="middle" x="868.38" y="-45.75" font-family="Helvetica,sans-Serif" font-size="10.00">::reporting::SequenceReport &gt;</text>
</a>
</g>
</g>
<!-- Node4&#45;&gt;Node6 -->
<g id="edge10_Node000006_Node000004" class="edge">
<title>Node4&#45;&gt;Node6</title>
<g id="a_edge10_Node000006_Node000004"><a xlink:title=" ">
<path fill="none" stroke="orange" stroke-dasharray="5,2" d="M641.6,-69.31C653.61,-63.91 667.9,-58.47 681.5,-55.75 719,-48.25 761.61,-47.58 796.56,-49.03"/>
<polygon fill="orange" stroke="orange" points="640.2,-66.1 632.66,-73.54 643.2,-72.43 640.2,-66.1"/>
</a>
</g>
<text text-anchor="start" x="684.88" y="-75.75" font-family="Helvetica,sans-Serif" font-size="10.00" fill="grey">&lt; mimicpp::reporting</text>
<text text-anchor="start" x="684.88" y="-60.5" font-family="Helvetica,sans-Serif" font-size="10.00" fill="grey">  ::SequenceReport &gt;</text>
</g>
<!-- Node5 -->
<g id="Node000005" class="node">
<title>Node5</title>
<g id="a_Node000005"><a xlink:title=" ">
<polygon fill="white" stroke="#666666" points="421.02,-93.88 392.23,-93.88 392.23,-74.62 421.02,-74.62 421.02,-93.88"/>
<text text-anchor="middle" x="406.62" y="-80.38" font-family="Helvetica,sans-Serif" font-size="10.00">T</text>
</a>
</g>
</g>
<!-- Node5&#45;&gt;Node4 -->
<g id="edge4_Node000004_Node000005" class="edge">
<title>Node5&#45;&gt;Node4</title>
<g id="a_edge4_Node000004_Node000005"><a xlink:title=" ">
<path fill="none" stroke="#9a32cd" stroke-dasharray="5,2" d="M432.49,-84.25C466.61,-84.25 528.39,-84.25 569.47,-84.25"/>
<polygon fill="#9a32cd" stroke="#9a32cd" points="432.77,-80.75 422.77,-84.25 432.77,-87.75 432.77,-80.75"/>
</a>
</g>
<text text-anchor="start" x="499" y="-89" font-family="Helvetica,sans-Serif" font-size="10.00" fill="grey">elements</text>
</g>
<!-- Node6&#45;&gt;Node1 -->
<g id="edge5_Node000001_Node000006" class="edge">
<title>Node6&#45;&gt;Node1</title>
<g id="a_edge5_Node000001_Node000006"><a xlink:title=" ">
<path fill="none" stroke="#9a32cd" stroke-dasharray="5,2" d="M951.18,-59.25C985.92,-61.52 1026.79,-64.95 1063.5,-70 1069.19,-70.78 1075.14,-71.75 1081.02,-72.81"/>
<polygon fill="#9a32cd" stroke="#9a32cd" points="951.85,-55.79 941.64,-58.65 951.4,-62.77 951.85,-55.79"/>
</a>
</g>
<text text-anchor="start" x="960.75" y="-74.75" font-family="Helvetica,sans-Serif" font-size="10.00" fill="grey">inapplicableSequences</text>
</g>
<!-- Node7 -->
<g id="Node000007" class="node">
<title>Node7</title>
<g id="a_Node000007"><a xlink:href="../../d9/dd4/classmimicpp_1_1reporting_1_1_sequence_report.html" target="_top" xlink:title=" ">
<polygon fill="white" stroke="#666666" points="659,-30.5 564.25,-30.5 564.25,0 659,0 659,-30.5"/>
<text text-anchor="start" x="572.25" y="-17" font-family="Helvetica,sans-Serif" font-size="10.00">mimicpp::reporting</text>
<text text-anchor="middle" x="611.62" y="-5.75" font-family="Helvetica,sans-Serif" font-size="10.00">::SequenceReport</text>
</a>
</g>
</g>
<!-- Node7&#45;&gt;Node6 -->
<g id="edge6_Node000006_Node000007" class="edge">
<title>Node7&#45;&gt;Node6</title>
<g id="a_edge6_Node000006_Node000007"><a xlink:title=" ">
<path fill="none" stroke="#9a32cd" stroke-dasharray="5,2" d="M670.71,-15.96C702.87,-17.2 743.42,-20.16 779,-27 794.34,-29.95 810.75,-34.72 825.21,-39.51"/>
<polygon fill="#9a32cd" stroke="#9a32cd" points="670.89,-12.46 660.78,-15.63 670.66,-19.46 670.89,-12.46"/>
</a>
</g>
<text text-anchor="start" x="710.38" y="-31.75" font-family="Helvetica,sans-Serif" font-size="10.00" fill="grey">elements</text>
</g>
<!-- Node8 -->
<g id="Node000008" class="node">
<title>Node8</title>
<g id="a_Node000008"><a xlink:href="../../db/df5/classmimicpp_1_1util_1_1_source_location.html" target="_top" xlink:title="A thin wrapper around general source&#45;location info.">
<polygon fill="white" stroke="#666666" points="478,-24.88 335.25,-24.88 335.25,-5.62 478,-5.62 478,-24.88"/>
<text text-anchor="middle" x="406.62" y="-11.38" font-family="Helvetica,sans-Serif" font-size="10.00">mimicpp::util::SourceLocation</text>
</a>
</g>
</g>
<!-- Node8&#45;&gt;Node7 -->
<g id="edge7_Node000007_Node000008" class="edge">
<title>Node8&#45;&gt;Node7</title>
<g id="a_edge7_Node000007_Node000008"><a xlink:title=" ">
<path fill="none" stroke="#9a32cd" stroke-dasharray="5,2" d="M489.81,-15.25C515.08,-15.25 542.01,-15.25 564.02,-15.25"/>
<polygon fill="#9a32cd" stroke="#9a32cd" points="489.85,-11.75 479.85,-15.25 489.85,-18.75 489.85,-11.75"/>
</a>
</g>
<text text-anchor="start" x="509.12" y="-20" font-family="Helvetica,sans-Serif" font-size="10.00" fill="grey">from</text>
</g>
<!-- Node9 -->
<g id="Node000009" class="node">
<title>Node9</title>
<g id="a_Node000009"><a xlink:title=" ">
<polygon fill="white" stroke="#666666" points="232.5,-24.88 149,-24.88 149,-5.62 232.5,-5.62 232.5,-24.88"/>
<text text-anchor="middle" x="190.75" y="-11.38" font-family="Helvetica,sans-Serif" font-size="10.00">std::string_view</text>
</a>
</g>
</g>
<!-- Node9&#45;&gt;Node8 -->
<g id="edge8_Node000008_Node000009" class="edge">
<title>Node9&#45;&gt;Node8</title>
<g id="a_edge8_Node000008_Node000009"><a xlink:title=" ">
<path fill="none" stroke="#9a32cd" stroke-dasharray="5,2" d="M244.28,-15.25C271.62,-15.25 305.44,-15.25 335.04,-15.25"/>
<polygon fill="#9a32cd" stroke="#9a32cd" points="244.5,-11.75 234.5,-15.25 244.5,-18.75 244.5,-11.75"/>
</a>
</g>
<text text-anchor="start" x="253.5" y="-50.5" font-family="Helvetica,sans-Serif" font-size="10.00" fill="grey">fileName</text>
<text text-anchor="start" x="253.5" y="-35.25" font-family="Helvetica,sans-Serif" font-size="10.00" fill="grey">functionName</text>
<text text-anchor="start" x="253.5" y="-20" font-family="Helvetica,sans-Serif" font-size="10.00" fill="grey">line</text>
</g>
<!-- Node10 -->
<g id="Node000010" class="node">
<title>Node10</title>
<g id="a_Node000010"><a xlink:title=" ">
<polygon fill="white" stroke="#666666" points="112,-30.5 0,-30.5 0,0 112,0 112,-30.5"/>
<text text-anchor="start" x="8" y="-17" font-family="Helvetica,sans-Serif" font-size="10.00">std::basic_string_view</text>
<text text-anchor="middle" x="56" y="-5.75" font-family="Helvetica,sans-Serif" font-size="10.00">&lt; Char &gt;</text>
</a>
</g>
</g>
<!-- Node10&#45;&gt;Node9 -->
<g id="edge9_Node000009_Node000010" class="edge">
<title>Node10&#45;&gt;Node9</title>
<g id="a_edge9_Node000009_Node000010"><a xlink:title=" ">
<path fill="none" stroke="#63b8ff" d="M123.44,-15.25C132.07,-15.25 140.7,-15.25 148.74,-15.25"/>
<polygon fill="#63b8ff" stroke="#63b8ff" points="123.66,-11.75 113.66,-15.25 123.66,-18.75 123.66,-11.75"/>
</a>
</g>
</g>
</g>
</svg>
