<?xml version="1.0" encoding="UTF-8" standalone="no"?>
<!DOCTYPE svg PUBLIC "-//W3C//DTD SVG 1.1//EN"
 "http://www.w3.org/Graphics/SVG/1.1/DTD/svg11.dtd">
<!-- Generated by graphviz version 12.2.1 (20241206.2353)
 -->
<!-- Title: mimicpp::Watched::Watched Pages: 1 -->
<svg width="321pt" height="45pt"
 viewBox="0.00 0.00 320.50 45.25" xmlns="http://www.w3.org/2000/svg" xmlns:xlink="http://www.w3.org/1999/xlink">
<g id="graph0" class="graph" transform="scale(1 1) rotate(0) translate(4 41.25)">
<title>mimicpp::Watched::Watched</title>
<!-- Node1 -->
<g id="Node000001" class="node">
<title>Node1</title>
<g id="a_Node000001"><a xlink:title=" ">
<polygon fill="#999999" stroke="#666666" points="138.25,-19.25 0,-19.25 0,0 138.25,0 138.25,-19.25"/>
<text text-anchor="middle" x="69.12" y="-5.75" font-family="Helvetica,sans-Serif" font-size="10.00">mimicpp::Watched::Watched</text>
</a>
</g>
</g>
<!-- Node2 -->
<g id="Node000002" class="node">
<title>Node2</title>
<g id="a_Node000002"><a xlink:href="../../d3/d5d/classmimicpp_1_1_watched.html#a8647ca5a5168969e3cd5cf18fb7f284b" target="_top" xlink:title=" ">
<polygon fill="white" stroke="#666666" points="312.5,-19.25 174.25,-19.25 174.25,0 312.5,0 312.5,-19.25"/>
<text text-anchor="middle" x="243.38" y="-5.75" font-family="Helvetica,sans-Serif" font-size="10.00">mimicpp::Watched::Watched</text>
</a>
</g>
</g>
<!-- Node1&#45;&gt;Node2 -->
<g id="edge1_Node000001_Node000002" class="edge">
<title>Node1&#45;&gt;Node2</title>
<g id="a_edge1_Node000001_Node000002"><a xlink:title=" ">
<path fill="none" stroke="#63b8ff" d="M138.7,-9.62C146.45,-9.62 154.4,-9.62 162.29,-9.62"/>
<polygon fill="#63b8ff" stroke="#63b8ff" points="162.24,-13.13 172.24,-9.63 162.24,-6.13 162.24,-13.13"/>
</a>
</g>
</g>
<!-- Node2&#45;&gt;Node2 -->
<g id="edge2_Node000002_Node000002" class="edge">
<title>Node2&#45;&gt;Node2</title>
<g id="a_edge2_Node000002_Node000002"><a xlink:title=" ">
<path fill="none" stroke="#63b8ff" d="M216.1,-19.54C203.65,-28.15 212.75,-37.25 243.38,-37.25 260.6,-37.25 271.02,-34.37 274.62,-30.32"/>
<polygon fill="#63b8ff" stroke="#63b8ff" points="277.91,-29.14 271.18,-20.96 271.35,-31.55 277.91,-29.14"/>
</a>
</g>
</g>
</g>
</svg>
