<?xml version="1.0" encoding="UTF-8" standalone="no"?>
<!DOCTYPE svg PUBLIC "-//W3C//DTD SVG 1.1//EN"
 "http://www.w3.org/Graphics/SVG/1.1/DTD/svg11.dtd">
<!-- Generated by graphviz version 12.2.1 (20241206.2353)
 -->
<!-- Title: mimicpp::Watched::Watched Pages: 1 -->
<svg width="324pt" height="101pt"
 viewBox="0.00 0.00 323.50 101.25" xmlns="http://www.w3.org/2000/svg" xmlns:xlink="http://www.w3.org/1999/xlink">

<svg id="main" version="1.1" xmlns="http://www.w3.org/2000/svg" xmlns:xlink="http://www.w3.org/1999/xlink" xml:space="preserve">

<style type="text/css"><![CDATA[
.node, .edge {opacity: 0.7;}
.node.selected, .edge.selected {opacity: 1;}
.edge:hover path { stroke: red; }
.edge:hover polygon { stroke: red; fill: red; }
]]></style>
<script type="application/ecmascript" xlink:href="../../svg.min.js"/>
<svg id="graph" class="graph">
<g id="graph0" class="graph" transform="scale(1 1) rotate(0) translate(4 97.25)">
<title>mimicpp::Watched::Watched</title>
<!-- Node1 -->
<g id="Node000001" class="node">
<title>Node1</title>
<g id="a_Node000001"><a xlink:title=" ">
<polygon fill="#999999" stroke="#666666" points="315.5,-56.25 177.25,-56.25 177.25,-37 315.5,-37 315.5,-56.25"/>
<text text-anchor="middle" x="246.38" y="-42.75" font-family="Helvetica,sans-Serif" font-size="10.00">mimicpp::Watched::Watched</text>
</a>
</g>
</g>
<!-- Node1&#45;&gt;Node1 -->
<g id="edge1_Node000001_Node000001" class="edge">
<title>Node1&#45;&gt;Node1</title>
<g id="a_edge1_Node000001_Node000001"><a xlink:title=" ">
<path fill="none" stroke="#63b8ff" d="M277.89,-67.32C274.26,-71.37 263.75,-74.25 246.38,-74.25 215.48,-74.25 206.31,-65.15 218.86,-56.54"/>
<polygon fill="#63b8ff" stroke="#63b8ff" points="281.18,-66.11 274.42,-57.96 274.61,-68.55 281.18,-66.11"/>
</a>
</g>
</g>
<!-- Node2 -->
<g id="Node000002" class="node">
<title>Node2</title>
<g id="a_Node000002"><a xlink:href="../../d3/d5d/classmimicpp_1_1_watched.html#afa77d7e7eef110ca0d8be6e0a11ce60d" target="_top" xlink:title=" ">
<polygon fill="white" stroke="#666666" points="139.75,-93.25 1.5,-93.25 1.5,-74 139.75,-74 139.75,-93.25"/>
<text text-anchor="middle" x="70.62" y="-79.75" font-family="Helvetica,sans-Serif" font-size="10.00">mimicpp::Watched::Watched</text>
</a>
</g>
</g>
<!-- Node1&#45;&gt;Node2 -->
<g id="edge2_Node000001_Node000002" class="edge">
<title>Node1&#45;&gt;Node2</title>
<g id="a_edge2_Node000001_Node000002"><a xlink:title=" ">
<path fill="none" stroke="#63b8ff" d="M186.66,-59.13C164.64,-63.82 139.92,-69.08 119.05,-73.53"/>
<polygon fill="#63b8ff" stroke="#63b8ff" points="187.37,-62.56 196.42,-57.05 185.91,-55.71 187.37,-62.56"/>
</a>
</g>
</g>
<!-- Node3 -->
<g id="Node000003" class="node">
<title>Node3</title>
<g id="a_Node000003"><a xlink:href="../../d3/d5d/classmimicpp_1_1_watched.html#aa309730d632f68f1344e951c2868c191" target="_top" xlink:title=" ">
<polygon fill="white" stroke="#666666" points="141.25,-56.25 0,-56.25 0,-37 141.25,-37 141.25,-56.25"/>
<text text-anchor="middle" x="70.62" y="-42.75" font-family="Helvetica,sans-Serif" font-size="10.00">mimicpp::Watched::operator=</text>
</a>
</g>
</g>
<!-- Node1&#45;&gt;Node3 -->
<g id="edge3_Node000001_Node000003" class="edge">
<title>Node1&#45;&gt;Node3</title>
<g id="a_edge3_Node000001_Node000003"><a xlink:title=" ">
<path fill="none" stroke="#63b8ff" d="M165.85,-46.62C157.76,-46.62 149.58,-46.62 141.6,-46.62"/>
<polygon fill="#63b8ff" stroke="#63b8ff" points="165.69,-50.13 175.69,-46.63 165.69,-43.13 165.69,-50.13"/>
</a>
</g>
</g>
<!-- Node4 -->
<g id="Node000004" class="node">
<title>Node4</title>
<g id="a_Node000004"><a xlink:href="../../d3/d5d/classmimicpp_1_1_watched.html#afc5a097d3cdb6f930fb2491eec1f3a58" target="_top" xlink:title=" ">
<polygon fill="white" stroke="#666666" points="141.25,-19.25 0,-19.25 0,0 141.25,0 141.25,-19.25"/>
<text text-anchor="middle" x="70.62" y="-5.75" font-family="Helvetica,sans-Serif" font-size="10.00">mimicpp::Watched::operator=</text>
</a>
</g>
</g>
<!-- Node1&#45;&gt;Node4 -->
<g id="edge4_Node000001_Node000004" class="edge">
<title>Node1&#45;&gt;Node4</title>
<g id="a_edge4_Node000001_Node000004"><a xlink:title=" ">
<path fill="none" stroke="#63b8ff" d="M186.66,-34.12C164.64,-29.43 139.92,-24.17 119.05,-19.72"/>
<polygon fill="#63b8ff" stroke="#63b8ff" points="185.91,-37.54 196.42,-36.2 187.37,-30.69 185.91,-37.54"/>
</a>
</g>
</g>
</g>
</svg>
</svg>

<style type='text/css'>
<![CDATA[
[data-mouse-over-selected='false'] { opacity: 0.7; }
[data-mouse-over-selected='true']  { opacity: 1.0; }
]]>
</style>
<script type="application/ecmascript"><![CDATA[
document.addEventListener('DOMContentLoaded', (event) => {
  highlightEdges();
  highlightAdjacentNodes();
});
]]></script>
</svg>
