<?xml version="1.0" encoding="UTF-8" standalone="no"?>
<!DOCTYPE svg PUBLIC "-//W3C//DTD SVG 1.1//EN"
 "http://www.w3.org/Graphics/SVG/1.1/DTD/svg11.dtd">
<!-- Generated by graphviz version 12.2.1 (20241206.2353)
 -->
<!-- Title: interfaces Pages: 1 -->
<svg width="223pt" height="64pt"
 viewBox="0.00 0.00 223.25 64.25" xmlns="http://www.w3.org/2000/svg" xmlns:xlink="http://www.w3.org/1999/xlink">

<svg id="main" version="1.1" xmlns="http://www.w3.org/2000/svg" xmlns:xlink="http://www.w3.org/1999/xlink" xml:space="preserve">

<style type="text/css"><![CDATA[
.node, .edge {opacity: 0.7;}
.node.selected, .edge.selected {opacity: 1;}
.edge:hover path { stroke: red; }
.edge:hover polygon { stroke: red; fill: red; }
]]></style>
<script type="application/ecmascript" xlink:href="../../svg.min.js"/>
<svg id="graph" class="graph">
<g id="graph0" class="graph" transform="scale(1 1) rotate(0) translate(4 60.25)">
<title>interfaces</title>
<!-- Node3 -->
<g id="Node000003" class="node">
<title>Node3</title>
<g id="a_Node000003"><a xlink:href="../../dc/da4/group___f_a_c_a_d_e.html" target="_top" xlink:title="Contains utility to simplify the process of generating forwarding facade functions.">
<polygon fill="white" stroke="#666666" points="45.25,-56.25 0,-56.25 0,-37 45.25,-37 45.25,-56.25"/>
<text text-anchor="middle" x="22.62" y="-42.75" font-family="Helvetica,sans-Serif" font-size="10.00">facade</text>
</a>
</g>
</g>
<!-- Node1 -->
<g id="Node000001" class="node">
<title>Node1</title>
<g id="a_Node000001"><a xlink:title="[Deprecated] Utilities to simplify interface mocking.">
<polygon fill="#999999" stroke="#666666" points="140,-37.25 81.25,-37.25 81.25,-18 140,-18 140,-37.25"/>
<text text-anchor="middle" x="110.62" y="-23.75" font-family="Helvetica,sans-Serif" font-size="10.00">interfaces</text>
</a>
</g>
</g>
<!-- Node3&#45;&gt;Node1 -->
<g id="edge2" class="edge">
<title>Node3&#45;&gt;Node1</title>
<path fill="none" stroke="black" d="M56.54,-39.35C64.52,-37.59 73,-35.72 80.78,-34"/>
<polygon fill="black" stroke="black" points="55.81,-35.93 46.8,-41.5 57.32,-42.76 55.81,-35.93"/>
</g>
<!-- Node2 -->
<g id="Node000002" class="node">
<title>Node2</title>
<g id="a_Node000002"><a xlink:href="../../d8/d12/group___m_o_c_k.html" target="_top" xlink:title="The core aspect of the library.">
<polygon fill="white" stroke="#666666" points="42.62,-19.25 2.62,-19.25 2.62,0 42.62,0 42.62,-19.25"/>
<text text-anchor="middle" x="22.62" y="-5.75" font-family="Helvetica,sans-Serif" font-size="10.00">mock</text>
</a>
</g>
</g>
<!-- Node2&#45;&gt;Node1 -->
<g id="edge1" class="edge">
<title>Node2&#45;&gt;Node1</title>
<path fill="none" stroke="black" d="M53.97,-15.98C62.69,-17.8 72.16,-19.78 80.78,-21.59"/>
<polygon fill="black" stroke="black" points="54.7,-12.55 44.19,-13.93 53.26,-19.4 54.7,-12.55"/>
</g>
<!-- Node4 -->
<g id="Node000004" class="node">
<title>Node4</title>
<g id="a_Node000004"><a xlink:href="../../d0/d48/group___m_o_c_k___i_n_t_e_r_f_a_c_e_s___d_e_t_a_i_l.html" target="_top" xlink:title="Contains several macros, used for interface mock implementation.">
<polygon fill="white" stroke="#666666" points="215.25,-37.25 176,-37.25 176,-18 215.25,-18 215.25,-37.25"/>
<text text-anchor="middle" x="195.62" y="-23.75" font-family="Helvetica,sans-Serif" font-size="10.00">detail</text>
</a>
</g>
</g>
<!-- Node1&#45;&gt;Node4 -->
<g id="edge3" class="edge">
<title>Node1&#45;&gt;Node4</title>
<path fill="none" stroke="black" d="M151.5,-27.62C159.93,-27.62 168.44,-27.62 175.66,-27.62"/>
<polygon fill="black" stroke="black" points="151.7,-24.13 141.7,-27.63 151.7,-31.13 151.7,-24.13"/>
</g>
</g>
</svg>
</svg>

<style type='text/css'>
<![CDATA[
[data-mouse-over-selected='false'] { opacity: 0.7; }
[data-mouse-over-selected='true']  { opacity: 1.0; }
]]>
</style>
<script type="application/ecmascript"><![CDATA[
document.addEventListener('DOMContentLoaded', (event) => {
  highlightEdges();
  highlightAdjacentNodes();
});
]]></script>
</svg>
