<?xml version="1.0" encoding="UTF-8" standalone="no"?>
<!DOCTYPE svg PUBLIC "-//W3C//DTD SVG 1.1//EN"
 "http://www.w3.org/Graphics/SVG/1.1/DTD/svg11.dtd">
<!-- Generated by graphviz version 12.2.1 (20241206.2353)
 -->
<!-- Title: mimicpp::printing::type::parsing::v2::parse_parameter_declaration Pages: 1 -->
<!--zoomable 338 -->

<svg id="main" version="1.1" xmlns="http://www.w3.org/2000/svg" xmlns:xlink="http://www.w3.org/1999/xlink" xml:space="preserve" onload="init(evt)">

<style type="text/css"><![CDATA[
.node, .edge {opacity: 0.7;}
.node.selected, .edge.selected {opacity: 1;}
.edge:hover path { stroke: red; }
.edge:hover polygon { stroke: red; fill: red; }
]]></style>

<defs>
  <circle id="rim" cx="0" cy="0" r="7"/>
  <circle id="rim2" cx="0" cy="0" r="3.5"/>
  <g id="zoomPlus">
    <use xlink:href="#rim" fill="#404040"><set attributeName="fill" to="#808080" begin="zoomplus.mouseover" end="zoomplus.mouseout"/></use>
    <path d="M-4,0h8M0,-4v8" fill="none" stroke="white" stroke-width="1.5" pointer-events="none"/>
  </g>
  <g id="zoomMin">
    <use xlink:href="#rim" fill="#404040"><set attributeName="fill" to="#808080" begin="zoomminus.mouseover" end="zoomminus.mouseout"/></use>
    <path d="M-4,0h8" fill="none" stroke="white" stroke-width="1.5" pointer-events="none"/>
  </g>
  <g id="arrowUp" transform="translate(30 24)">
    <use xlink:href="#rim"/>
    <path pointer-events="none" fill="none" stroke="white" stroke-width="1.5" d="M0,-3.0v7 M-2.5,-0.5L0,-3.0L2.5,-0.5"/>
  </g>
  <g id="arrowRight" transform="rotate(90) translate(36 -43)">
    <use xlink:href="#rim"/>
    <path pointer-events="none" fill="none" stroke="white" stroke-width="1.5" d="M0,-3.0v7 M-2.5,-0.5L0,-3.0L2.5,-0.5"/>
  </g>
  <g id="arrowDown" transform="rotate(180) translate(-30 -48)">
    <use xlink:href="#rim"/>
    <path pointer-events="none" fill="none" stroke="white" stroke-width="1.5" d="M0,-3.0v7 M-2.5,-0.5L0,-3.0L2.5,-0.5"/>
  </g>
  <g id="arrowLeft" transform="rotate(270) translate(-36 17)">
    <use xlink:href="#rim"/>
    <path pointer-events="none" fill="none" stroke="white" stroke-width="1.5" d="M0,-3.0v7 M-2.5,-0.5L0,-3.0L2.5,-0.5"/>
  </g>
  <g id="resetDef">
    <use xlink:href="#rim2" fill="#404040"><set attributeName="fill" to="#808080" begin="reset.mouseover" end="reset.mouseout"/></use>
  </g>
</defs>
<script type="application/ecmascript">
var viewWidth = 2439;
var viewHeight = 338;
var sectionId = 'dynsection-36';
</script>
<script type="application/ecmascript" xlink:href="../../svg.min.js"/>
<svg id="graph" class="graph">
<g id="viewport">
<title>mimicpp::printing::type::parsing::v2::parse_parameter_declaration</title>
<!-- Node1 -->
<g id="Node000001" class="node">
<title>Node1</title>
<g id="a_Node000001"><a xlink:title=" ">
<polygon fill="#999999" stroke="#666666" points="2431,-188.88 2313.75,-188.88 2313.75,-147.12 2431,-147.12 2431,-188.88"/>
<text text-anchor="start" x="2321.75" y="-175.38" font-family="Helvetica,sans-Serif" font-size="10.00">mimicpp::printing::</text>
<text text-anchor="start" x="2321.75" y="-164.12" font-family="Helvetica,sans-Serif" font-size="10.00">type::parsing::v2::parse</text>
<text text-anchor="middle" x="2372.38" y="-152.88" font-family="Helvetica,sans-Serif" font-size="10.00">_parameter_declaration</text>
</a>
</g>
</g>
<!-- Node2 -->
<g id="Node000002" class="node">
<title>Node2</title>
<g id="a_Node000002"><a xlink:href="../../d8/d80/namespacemimicpp_1_1printing_1_1type_1_1parsing_1_1v2.html#a07075a76413008951e6e0e802d4a6888" target="_top" xlink:title=" ">
<polygon fill="white" stroke="#666666" points="2277.75,-164.88 2126.75,-164.88 2126.75,-123.12 2277.75,-123.12 2277.75,-164.88"/>
<text text-anchor="start" x="2134.75" y="-151.38" font-family="Helvetica,sans-Serif" font-size="10.00">mimicpp::printing::</text>
<text text-anchor="start" x="2134.75" y="-140.12" font-family="Helvetica,sans-Serif" font-size="10.00">type::parsing::v2::parse</text>
<text text-anchor="middle" x="2202.25" y="-128.88" font-family="Helvetica,sans-Serif" font-size="10.00">_parameter_declaration_clause</text>
</a>
</g>
</g>
<!-- Node1&#45;&gt;Node2 -->
<g id="edge1_Node000001_Node000002" class="edge">
<title>Node1&#45;&gt;Node2</title>
<g id="a_edge1_Node000001_Node000002"><a xlink:title=" ">
<path fill="none" stroke="#63b8ff" d="M2302.37,-158.15C2294.38,-157.01 2286.2,-155.84 2278.14,-154.69"/>
<polygon fill="#63b8ff" stroke="#63b8ff" points="2301.62,-161.58 2312.02,-159.53 2302.61,-154.65 2301.62,-161.58"/>
</a>
</g>
</g>
<!-- Node3 -->
<g id="Node000003" class="node">
<title>Node3</title>
<g id="a_Node000003"><a xlink:href="../../d8/d80/namespacemimicpp_1_1printing_1_1type_1_1parsing_1_1v2.html#aa7c9d345fa3d361622cc04d07aa71cb6" target="_top" xlink:title=" ">
<polygon fill="white" stroke="#666666" points="2090.75,-121.88 1956.25,-121.88 1956.25,-80.12 2090.75,-80.12 2090.75,-121.88"/>
<text text-anchor="start" x="1964.25" y="-108.38" font-family="Helvetica,sans-Serif" font-size="10.00">mimicpp::printing::</text>
<text text-anchor="start" x="1964.25" y="-97.12" font-family="Helvetica,sans-Serif" font-size="10.00">type::parsing::v2::parse</text>
<text text-anchor="middle" x="2023.5" y="-85.88" font-family="Helvetica,sans-Serif" font-size="10.00">_parameters_and_qualifiers</text>
</a>
</g>
</g>
<!-- Node2&#45;&gt;Node3 -->
<g id="edge2_Node000002_Node000003" class="edge">
<title>Node2&#45;&gt;Node3</title>
<g id="a_edge2_Node000002_Node000003"><a xlink:title=" ">
<path fill="none" stroke="#63b8ff" d="M2115.29,-123.09C2107.18,-121.12 2099.06,-119.14 2091.17,-117.22"/>
<polygon fill="#63b8ff" stroke="#63b8ff" points="2114.28,-126.44 2124.82,-125.41 2115.93,-119.64 2114.28,-126.44"/>
</a>
</g>
</g>
<!-- Node4 -->
<g id="Node000004" class="node">
<title>Node4</title>
<g id="a_Node000004"><a xlink:href="../../d8/d80/namespacemimicpp_1_1printing_1_1type_1_1parsing_1_1v2.html#add1bd1ec05de872ea410a7ae0a6e211f" target="_top" xlink:title=" ">
<polygon fill="white" stroke="#666666" points="1920.25,-145.88 1806.75,-145.88 1806.75,-104.12 1920.25,-104.12 1920.25,-145.88"/>
<text text-anchor="start" x="1814.75" y="-132.38" font-family="Helvetica,sans-Serif" font-size="10.00">mimicpp::printing::</text>
<text text-anchor="start" x="1814.75" y="-121.12" font-family="Helvetica,sans-Serif" font-size="10.00">type::parsing::v2::parse</text>
<text text-anchor="middle" x="1863.5" y="-109.88" font-family="Helvetica,sans-Serif" font-size="10.00">_abstract_declarator</text>
</a>
</g>
</g>
<!-- Node3&#45;&gt;Node4 -->
<g id="edge3_Node000003_Node000004" class="edge">
<title>Node3&#45;&gt;Node4</title>
<g id="a_edge3_Node000003_Node000004"><a xlink:title=" ">
<path fill="none" stroke="#63b8ff" d="M1944.8,-112.8C1936.6,-114.05 1928.37,-115.3 1920.48,-116.5"/>
<polygon fill="#63b8ff" stroke="#63b8ff" points="1945.09,-116.3 1954.46,-111.34 1944.04,-109.38 1945.09,-116.3"/>
</a>
</g>
</g>
<!-- Node6 -->
<g id="Node000006" class="node">
<title>Node6</title>
<g id="a_Node000006"><a xlink:href="../../d8/d80/namespacemimicpp_1_1printing_1_1type_1_1parsing_1_1v2.html#a307ad46dafa0222d201fe70037034368" target="_top" xlink:title=" ">
<polygon fill="white" stroke="#666666" points="251.75,-58.88 138.25,-58.88 138.25,-17.12 251.75,-17.12 251.75,-58.88"/>
<text text-anchor="start" x="146.25" y="-45.38" font-family="Helvetica,sans-Serif" font-size="10.00">mimicpp::printing::</text>
<text text-anchor="start" x="146.25" y="-34.12" font-family="Helvetica,sans-Serif" font-size="10.00">type::parsing::v2::parse</text>
<text text-anchor="middle" x="195" y="-22.88" font-family="Helvetica,sans-Serif" font-size="10.00">_function</text>
</a>
</g>
</g>
<!-- Node3&#45;&gt;Node6 -->
<g id="edge30_Node000003_Node000006" class="edge">
<title>Node3&#45;&gt;Node6</title>
<g id="a_edge30_Node000003_Node000006"><a xlink:title=" ">
<path fill="none" stroke="#63b8ff" d="M1974.34,-74.61C1915.12,-44.68 1810.68,0 1715,0 1715,0 1715,0 493,0 408.53,0 311.63,-15.31 252.11,-26.5"/>
<polygon fill="#63b8ff" stroke="#63b8ff" points="1972.66,-77.68 1983.16,-79.14 1975.86,-71.46 1972.66,-77.68"/>
</a>
</g>
</g>
<!-- Node11 -->
<g id="Node000011" class="node">
<title>Node11</title>
<g id="a_Node000011"><a xlink:href="../../d8/d80/namespacemimicpp_1_1printing_1_1type_1_1parsing_1_1v2.html#aee24ac8959776c4a917f8fc5d78b049a" target="_top" xlink:title=" ">
<polygon fill="white" stroke="#666666" points="1163.75,-126.88 1050.25,-126.88 1050.25,-85.12 1163.75,-85.12 1163.75,-126.88"/>
<text text-anchor="start" x="1058.25" y="-113.38" font-family="Helvetica,sans-Serif" font-size="10.00">mimicpp::printing::</text>
<text text-anchor="start" x="1058.25" y="-102.12" font-family="Helvetica,sans-Serif" font-size="10.00">type::parsing::v2::parse</text>
<text text-anchor="middle" x="1107" y="-90.88" font-family="Helvetica,sans-Serif" font-size="10.00">_nested_id</text>
</a>
</g>
</g>
<!-- Node3&#45;&gt;Node11 -->
<g id="edge31_Node000003_Node000011" class="edge">
<title>Node3&#45;&gt;Node11</title>
<g id="a_edge31_Node000003_Node000011"><a xlink:title=" ">
<path fill="none" stroke="#63b8ff" d="M1944.78,-91.18C1882.69,-84.17 1793.41,-76 1715,-76 1715,-76 1715,-76 1409.5,-76 1323.63,-76 1224.67,-88.2 1164.24,-97.04"/>
<polygon fill="#63b8ff" stroke="#63b8ff" points="1944.21,-94.63 1954.54,-92.29 1945,-87.68 1944.21,-94.63"/>
</a>
</g>
</g>
<!-- Node4&#45;&gt;Node4 -->
<g id="edge4_Node000004_Node000004" class="edge">
<title>Node4&#45;&gt;Node4</title>
<g id="a_edge4_Node000004_Node000004"><a xlink:title=" ">
<path fill="none" stroke="#63b8ff" d="M1888.11,-156.99C1883.86,-161.13 1875.65,-163.88 1863.5,-163.88 1842.48,-163.88 1833.28,-155.67 1835.91,-146.19"/>
<polygon fill="#63b8ff" stroke="#63b8ff" points="1891.4,-158.22 1890.69,-147.65 1884.65,-156.36 1891.4,-158.22"/>
</a>
</g>
</g>
<!-- Node5 -->
<g id="Node000005" class="node">
<title>Node5</title>
<g id="a_Node000005"><a xlink:href="../../d8/d80/namespacemimicpp_1_1printing_1_1type_1_1parsing_1_1v2.html#a5a99d9c75ce2e409759d6859020a9b7d" target="_top" xlink:title=" ">
<polygon fill="white" stroke="#666666" points="1770.75,-224.88 1657.25,-224.88 1657.25,-183.12 1770.75,-183.12 1770.75,-224.88"/>
<text text-anchor="start" x="1665.25" y="-211.38" font-family="Helvetica,sans-Serif" font-size="10.00">mimicpp::printing::</text>
<text text-anchor="start" x="1665.25" y="-200.12" font-family="Helvetica,sans-Serif" font-size="10.00">type::parsing::v2::parse</text>
<text text-anchor="middle" x="1714" y="-188.88" font-family="Helvetica,sans-Serif" font-size="10.00">_type_id</text>
</a>
</g>
</g>
<!-- Node4&#45;&gt;Node5 -->
<g id="edge5_Node000004_Node000005" class="edge">
<title>Node4&#45;&gt;Node5</title>
<g id="a_edge5_Node000004_Node000005"><a xlink:title=" ">
<path fill="none" stroke="#63b8ff" d="M1813.04,-151.49C1794.12,-161.62 1772.81,-173.04 1754.89,-182.63"/>
<polygon fill="#63b8ff" stroke="#63b8ff" points="1814.48,-154.69 1821.64,-146.89 1811.17,-148.52 1814.48,-154.69"/>
</a>
</g>
</g>
<!-- Node5&#45;&gt;Node1 -->
<g id="edge9_Node000005_Node000001" class="edge">
<title>Node5&#45;&gt;Node1</title>
<g id="a_edge9_Node000005_Node000001"><a xlink:title=" ">
<path fill="none" stroke="#63b8ff" d="M1782.35,-200.64C1887.94,-195.33 2098.88,-184.5 2277.75,-174 2289.29,-173.32 2301.64,-172.56 2313.45,-171.81"/>
<polygon fill="#63b8ff" stroke="#63b8ff" points="1782.25,-197.14 1772.43,-201.14 1782.6,-204.14 1782.25,-197.14"/>
</a>
</g>
</g>
<!-- Node5&#45;&gt;Node5 -->
<g id="edge29_Node000005_Node000005" class="edge">
<title>Node5&#45;&gt;Node5</title>
<g id="a_edge29_Node000005_Node000005"><a xlink:title=" ">
<path fill="none" stroke="#63b8ff" d="M1738.61,-235.99C1734.36,-240.13 1726.15,-242.88 1714,-242.88 1692.98,-242.88 1683.78,-234.67 1686.41,-225.19"/>
<polygon fill="#63b8ff" stroke="#63b8ff" points="1741.9,-237.22 1741.19,-226.65 1735.15,-235.36 1741.9,-237.22"/>
</a>
</g>
</g>
<!-- Node5&#45;&gt;Node6 -->
<g id="edge6_Node000005_Node000006" class="edge">
<title>Node5&#45;&gt;Node6</title>
<g id="a_edge6_Node000005_Node000006"><a xlink:title=" ">
<path fill="none" stroke="#63b8ff" d="M1646.23,-179.19C1515.46,-132.9 1215.59,-38 954.75,-38 954.75,-38 954.75,-38 493,-38 409.08,-38 311.83,-38 252.11,-38"/>
<polygon fill="#63b8ff" stroke="#63b8ff" points="1644.83,-182.41 1655.43,-182.47 1647.18,-175.81 1644.83,-182.41"/>
</a>
</g>
</g>
<!-- Node8 -->
<g id="Node000008" class="node">
<title>Node8</title>
<g id="a_Node000008"><a xlink:href="../../d8/d80/namespacemimicpp_1_1printing_1_1type_1_1parsing_1_1v2.html#afe4918437384d0c345dd0cf4193063d5" target="_top" xlink:title=" ">
<polygon fill="white" stroke="#666666" points="1621.25,-227.88 1507.75,-227.88 1507.75,-186.12 1621.25,-186.12 1621.25,-227.88"/>
<text text-anchor="start" x="1515.75" y="-214.38" font-family="Helvetica,sans-Serif" font-size="10.00">mimicpp::printing::</text>
<text text-anchor="start" x="1515.75" y="-203.12" font-family="Helvetica,sans-Serif" font-size="10.00">type::parsing::v2::parse</text>
<text text-anchor="middle" x="1564.5" y="-191.88" font-family="Helvetica,sans-Serif" font-size="10.00">_template_argument</text>
</a>
</g>
</g>
<!-- Node5&#45;&gt;Node8 -->
<g id="edge10_Node000005_Node000008" class="edge">
<title>Node5&#45;&gt;Node8</title>
<g id="a_edge10_Node000005_Node000008"><a xlink:title=" ">
<path fill="none" stroke="#63b8ff" d="M1645.56,-205.37C1637.52,-205.54 1629.38,-205.7 1621.53,-205.86"/>
<polygon fill="#63b8ff" stroke="#63b8ff" points="1645.38,-208.88 1655.3,-205.17 1645.23,-201.88 1645.38,-208.88"/>
</a>
</g>
</g>
<!-- Node18 -->
<g id="Node000018" class="node">
<title>Node18</title>
<g id="a_Node000018"><a xlink:href="../../d9/d41/namespacemimicpp_1_1printing_1_1type.html#a6be46924118243cea4815f80216d1f74" target="_top" xlink:title=" ">
<polygon fill="white" stroke="#666666" points="1611.12,-330.25 1517.88,-330.25 1517.88,-299.75 1611.12,-299.75 1611.12,-330.25"/>
<text text-anchor="start" x="1525.88" y="-316.75" font-family="Helvetica,sans-Serif" font-size="10.00">mimicpp::printing::</text>
<text text-anchor="middle" x="1564.5" y="-305.5" font-family="Helvetica,sans-Serif" font-size="10.00">type::parse_type</text>
</a>
</g>
</g>
<!-- Node5&#45;&gt;Node18 -->
<g id="edge28_Node000005_Node000018" class="edge">
<title>Node5&#45;&gt;Node18</title>
<g id="a_edge28_Node000005_Node000018"><a xlink:title=" ">
<path fill="none" stroke="#63b8ff" d="M1684.37,-232.99C1667.01,-249.67 1643.91,-270.35 1621.25,-286 1614.34,-290.77 1606.54,-295.3 1599.02,-299.3"/>
<polygon fill="#63b8ff" stroke="#63b8ff" points="1686.59,-235.71 1691.31,-226.22 1681.71,-230.69 1686.59,-235.71"/>
</a>
</g>
</g>
<!-- Node6&#45;&gt;Node6 -->
<g id="edge8_Node000006_Node000006" class="edge">
<title>Node6&#45;&gt;Node6</title>
<g id="a_edge8_Node000006_Node000006"><a xlink:title=" ">
<path fill="none" stroke="#63b8ff" d="M218.68,-69.99C214.59,-74.13 206.7,-76.88 195,-76.88 174.77,-76.88 165.92,-68.67 168.44,-59.19"/>
<polygon fill="#63b8ff" stroke="#63b8ff" points="221.97,-71.22 221.17,-60.66 215.21,-69.42 221.97,-71.22"/>
</a>
</g>
</g>
<!-- Node7 -->
<g id="Node000007" class="node">
<title>Node7</title>
<g id="a_Node000007"><a xlink:href="../../d9/d41/namespacemimicpp_1_1printing_1_1type.html#ae881a2138935b22c04141d998cdead1d" target="_top" xlink:title=" ">
<polygon fill="white" stroke="#666666" points="102.25,-53.25 0,-53.25 0,-22.75 102.25,-22.75 102.25,-53.25"/>
<text text-anchor="start" x="8" y="-39.75" font-family="Helvetica,sans-Serif" font-size="10.00">mimicpp::printing::</text>
<text text-anchor="middle" x="51.12" y="-28.5" font-family="Helvetica,sans-Serif" font-size="10.00">type::parse_function</text>
</a>
</g>
</g>
<!-- Node6&#45;&gt;Node7 -->
<g id="edge7_Node000006_Node000007" class="edge">
<title>Node6&#45;&gt;Node7</title>
<g id="a_edge7_Node000006_Node000007"><a xlink:title=" ">
<path fill="none" stroke="#63b8ff" d="M126.64,-38C118.59,-38 110.48,-38 102.73,-38"/>
<polygon fill="#63b8ff" stroke="#63b8ff" points="126.41,-41.5 136.41,-38 126.41,-34.5 126.41,-41.5"/>
</a>
</g>
</g>
<!-- Node9 -->
<g id="Node000009" class="node">
<title>Node9</title>
<g id="a_Node000009"><a xlink:href="../../d8/d80/namespacemimicpp_1_1printing_1_1type_1_1parsing_1_1v2.html#ad6ea668f26a34d146ae5bd6c1fab9b17" target="_top" xlink:title=" ">
<polygon fill="white" stroke="#666666" points="1471.75,-227.88 1349.25,-227.88 1349.25,-186.12 1471.75,-186.12 1471.75,-227.88"/>
<text text-anchor="start" x="1357.25" y="-214.38" font-family="Helvetica,sans-Serif" font-size="10.00">mimicpp::printing::</text>
<text text-anchor="start" x="1357.25" y="-203.12" font-family="Helvetica,sans-Serif" font-size="10.00">type::parsing::v2::parse</text>
<text text-anchor="middle" x="1410.5" y="-191.88" font-family="Helvetica,sans-Serif" font-size="10.00">_template_argument_list</text>
</a>
</g>
</g>
<!-- Node8&#45;&gt;Node9 -->
<g id="edge11_Node000008_Node000009" class="edge">
<title>Node8&#45;&gt;Node9</title>
<g id="a_edge11_Node000008_Node000009"><a xlink:title=" ">
<path fill="none" stroke="#63b8ff" d="M1495.84,-207C1487.91,-207 1479.86,-207 1472.03,-207"/>
<polygon fill="#63b8ff" stroke="#63b8ff" points="1495.82,-210.5 1505.82,-207 1495.82,-203.5 1495.82,-210.5"/>
</a>
</g>
</g>
<!-- Node10 -->
<g id="Node000010" class="node">
<title>Node10</title>
<g id="a_Node000010"><a xlink:href="../../d8/d80/namespacemimicpp_1_1printing_1_1type_1_1parsing_1_1v2.html#aba68068539321ffe66f5bf2cc1baf269" target="_top" xlink:title=" ">
<polygon fill="white" stroke="#666666" points="1313.25,-183.88 1199.75,-183.88 1199.75,-142.12 1313.25,-142.12 1313.25,-183.88"/>
<text text-anchor="start" x="1207.75" y="-170.38" font-family="Helvetica,sans-Serif" font-size="10.00">mimicpp::printing::</text>
<text text-anchor="start" x="1207.75" y="-159.12" font-family="Helvetica,sans-Serif" font-size="10.00">type::parsing::v2::parse</text>
<text text-anchor="middle" x="1256.5" y="-147.88" font-family="Helvetica,sans-Serif" font-size="10.00">_template_clause</text>
</a>
</g>
</g>
<!-- Node9&#45;&gt;Node10 -->
<g id="edge12_Node000009_Node000010" class="edge">
<title>Node9&#45;&gt;Node10</title>
<g id="a_edge12_Node000009_Node000010"><a xlink:title=" ">
<path fill="none" stroke="#63b8ff" d="M1338.13,-186.34C1329.82,-183.93 1321.43,-181.51 1313.36,-179.17"/>
<polygon fill="#63b8ff" stroke="#63b8ff" points="1336.96,-189.64 1347.53,-189.06 1338.9,-182.92 1336.96,-189.64"/>
</a>
</g>
</g>
<!-- Node10&#45;&gt;Node11 -->
<g id="edge13_Node000010_Node000011" class="edge">
<title>Node10&#45;&gt;Node11</title>
<g id="a_edge13_Node000010_Node000011"><a xlink:title=" ">
<path fill="none" stroke="#63b8ff" d="M1190.07,-137.71C1181.02,-134.22 1171.8,-130.66 1162.97,-127.24"/>
<polygon fill="#63b8ff" stroke="#63b8ff" points="1188.58,-140.89 1199.16,-141.23 1191.1,-134.36 1188.58,-140.89"/>
</a>
</g>
</g>
<!-- Node15 -->
<g id="Node000015" class="node">
<title>Node15</title>
<g id="a_Node000015"><a xlink:href="../../d8/d80/namespacemimicpp_1_1printing_1_1type_1_1parsing_1_1v2.html#af91dfc82adfb053e41a3e4bd669e01d1" target="_top" xlink:title=" ">
<polygon fill="white" stroke="#666666" points="550.75,-194.88 437.25,-194.88 437.25,-153.12 550.75,-153.12 550.75,-194.88"/>
<text text-anchor="start" x="445.25" y="-181.38" font-family="Helvetica,sans-Serif" font-size="10.00">mimicpp::printing::</text>
<text text-anchor="start" x="445.25" y="-170.12" font-family="Helvetica,sans-Serif" font-size="10.00">type::parsing::v2::parse</text>
<text text-anchor="middle" x="494" y="-158.88" font-family="Helvetica,sans-Serif" font-size="10.00">_unqualified_id</text>
</a>
</g>
</g>
<!-- Node10&#45;&gt;Node15 -->
<g id="edge27_Node000010_Node000015" class="edge">
<title>Node10&#45;&gt;Node15</title>
<g id="a_edge27_Node000010_Node000015"><a xlink:title=" ">
<path fill="none" stroke="#63b8ff" d="M1187.88,-166.89C1126.94,-170.05 1034.88,-174 954.75,-174 954.75,-174 954.75,-174 799.5,-174 712.8,-174 612.22,-174 551.12,-174"/>
<polygon fill="#63b8ff" stroke="#63b8ff" points="1187.95,-170.39 1197.75,-166.37 1187.58,-163.4 1187.95,-170.39"/>
</a>
</g>
</g>
<!-- Node12 -->
<g id="Node000012" class="node">
<title>Node12</title>
<g id="a_Node000012"><a xlink:href="../../d8/d80/namespacemimicpp_1_1printing_1_1type_1_1parsing_1_1v2.html#aa68238e5077943654381f2c85c3e4fd7" target="_top" xlink:title=" ">
<polygon fill="white" stroke="#666666" points="1014.25,-107.88 893.25,-107.88 893.25,-66.12 1014.25,-66.12 1014.25,-107.88"/>
<text text-anchor="start" x="901.25" y="-94.38" font-family="Helvetica,sans-Serif" font-size="10.00">mimicpp::printing::</text>
<text text-anchor="start" x="901.25" y="-83.12" font-family="Helvetica,sans-Serif" font-size="10.00">type::parsing::v2::parse</text>
<text text-anchor="middle" x="953.75" y="-71.88" font-family="Helvetica,sans-Serif" font-size="10.00">_nested_name_specifier</text>
</a>
</g>
</g>
<!-- Node11&#45;&gt;Node12 -->
<g id="edge14_Node000011_Node000012" class="edge">
<title>Node11&#45;&gt;Node12</title>
<g id="a_edge14_Node000011_Node000012"><a xlink:title=" ">
<path fill="none" stroke="#63b8ff" d="M1038.87,-97.57C1030.83,-96.56 1022.66,-95.53 1014.73,-94.53"/>
<polygon fill="#63b8ff" stroke="#63b8ff" points="1038.25,-101.02 1048.61,-98.79 1039.12,-94.07 1038.25,-101.02"/>
</a>
</g>
</g>
<!-- Node13 -->
<g id="Node000013" class="node">
<title>Node13</title>
<g id="a_Node000013"><a xlink:href="../../d8/d80/namespacemimicpp_1_1printing_1_1type_1_1parsing_1_1v2.html#aaa6d2eaef15cbfb78371c5e871debbdd" target="_top" xlink:title=" ">
<polygon fill="white" stroke="#666666" points="857.25,-243.88 743.75,-243.88 743.75,-202.12 857.25,-202.12 857.25,-243.88"/>
<text text-anchor="start" x="751.75" y="-230.38" font-family="Helvetica,sans-Serif" font-size="10.00">mimicpp::printing::</text>
<text text-anchor="start" x="751.75" y="-219.12" font-family="Helvetica,sans-Serif" font-size="10.00">type::parsing::v2::parse</text>
<text text-anchor="middle" x="800.5" y="-207.88" font-family="Helvetica,sans-Serif" font-size="10.00">_ptr_operator</text>
</a>
</g>
</g>
<!-- Node12&#45;&gt;Node13 -->
<g id="edge15_Node000012_Node000013" class="edge">
<title>Node12&#45;&gt;Node13</title>
<g id="a_edge15_Node000012_Node000013"><a xlink:title=" ">
<path fill="none" stroke="#63b8ff" d="M920.66,-115.86C891.98,-141.64 850.65,-178.81 824.97,-201.9"/>
<polygon fill="#63b8ff" stroke="#63b8ff" points="922.9,-118.55 927.99,-109.26 918.22,-113.35 922.9,-118.55"/>
</a>
</g>
</g>
<!-- Node16 -->
<g id="Node000016" class="node">
<title>Node16</title>
<g id="a_Node000016"><a xlink:href="../../d8/d80/namespacemimicpp_1_1printing_1_1type_1_1parsing_1_1v2.html#a1c7f9ceaf011234da5c6c160bf1f9c36" target="_top" xlink:title=" ">
<polygon fill="white" stroke="#666666" points="401.25,-153.88 287.75,-153.88 287.75,-112.12 401.25,-112.12 401.25,-153.88"/>
<text text-anchor="start" x="295.75" y="-140.38" font-family="Helvetica,sans-Serif" font-size="10.00">mimicpp::printing::</text>
<text text-anchor="start" x="295.75" y="-129.12" font-family="Helvetica,sans-Serif" font-size="10.00">type::parsing::v2::parse</text>
<text text-anchor="middle" x="344.5" y="-117.88" font-family="Helvetica,sans-Serif" font-size="10.00">_qualified_id</text>
</a>
</g>
</g>
<!-- Node12&#45;&gt;Node16 -->
<g id="edge26_Node000012_Node000016" class="edge">
<title>Node12&#45;&gt;Node16</title>
<g id="a_edge26_Node000012_Node000016"><a xlink:title=" ">
<path fill="none" stroke="#63b8ff" d="M881.43,-92.4C759.19,-101.66 512.14,-120.38 401.4,-128.77"/>
<polygon fill="#63b8ff" stroke="#63b8ff" points="881.65,-95.9 891.35,-91.65 881.12,-88.92 881.65,-95.9"/>
</a>
</g>
</g>
<!-- Node13&#45;&gt;Node4 -->
<g id="edge16_Node000013_Node000004" class="edge">
<title>Node13&#45;&gt;Node4</title>
<g id="a_edge16_Node000013_Node000004"><a xlink:title=" ">
<path fill="none" stroke="#63b8ff" d="M869.07,-226.65C968.08,-230.29 1157.69,-230.8 1313.25,-193 1330.26,-188.87 1332.33,-181.49 1349.25,-177 1511.34,-133.95 1710.9,-126.06 1806.4,-124.92"/>
<polygon fill="#63b8ff" stroke="#63b8ff" points="869.39,-223.16 859.26,-226.26 869.11,-230.15 869.39,-223.16"/>
</a>
</g>
</g>
<!-- Node14 -->
<g id="Node000014" class="node">
<title>Node14</title>
<g id="a_Node000014"><a xlink:href="../../d8/d80/namespacemimicpp_1_1printing_1_1type_1_1parsing_1_1v2.html#a8e0a4fba2f5f88deafdd8db5b7dac548" target="_top" xlink:title=" ">
<polygon fill="white" stroke="#666666" points="707.75,-243.88 586.75,-243.88 586.75,-202.12 707.75,-202.12 707.75,-243.88"/>
<text text-anchor="start" x="594.75" y="-230.38" font-family="Helvetica,sans-Serif" font-size="10.00">mimicpp::printing::</text>
<text text-anchor="start" x="594.75" y="-219.12" font-family="Helvetica,sans-Serif" font-size="10.00">type::parsing::v2::parse</text>
<text text-anchor="middle" x="647.25" y="-207.88" font-family="Helvetica,sans-Serif" font-size="10.00">_conversion_function_id</text>
</a>
</g>
</g>
<!-- Node13&#45;&gt;Node14 -->
<g id="edge17_Node000013_Node000014" class="edge">
<title>Node13&#45;&gt;Node14</title>
<g id="a_edge17_Node000013_Node000014"><a xlink:title=" ">
<path fill="none" stroke="#63b8ff" d="M732.37,-223C724.33,-223 716.16,-223 708.23,-223"/>
<polygon fill="#63b8ff" stroke="#63b8ff" points="732.1,-226.5 742.1,-223 732.1,-219.5 732.1,-226.5"/>
</a>
</g>
</g>
<!-- Node14&#45;&gt;Node11 -->
<g id="edge18_Node000014_Node000011" class="edge">
<title>Node14&#45;&gt;Node11</title>
<g id="a_edge18_Node000014_Node000011"><a xlink:title=" ">
<path fill="none" stroke="#63b8ff" d="M719.03,-200.17C727.34,-197.67 735.71,-195.22 743.75,-193 851.28,-163.24 978.37,-134.08 1049.84,-118.23"/>
<polygon fill="#63b8ff" stroke="#63b8ff" points="718.17,-196.78 709.62,-203.04 720.21,-203.47 718.17,-196.78"/>
</a>
</g>
</g>
<!-- Node14&#45;&gt;Node15 -->
<g id="edge19_Node000014_Node000015" class="edge">
<title>Node14&#45;&gt;Node15</title>
<g id="a_edge19_Node000014_Node000015"><a xlink:title=" ">
<path fill="none" stroke="#63b8ff" d="M575.64,-200.12C567.34,-197.44 558.96,-194.72 550.9,-192.11"/>
<polygon fill="#63b8ff" stroke="#63b8ff" points="574.44,-203.42 585.03,-203.17 576.6,-196.76 574.44,-203.42"/>
</a>
</g>
</g>
<!-- Node15&#45;&gt;Node16 -->
<g id="edge20_Node000015_Node000016" class="edge">
<title>Node15&#45;&gt;Node16</title>
<g id="a_edge20_Node000015_Node000016"><a xlink:title=" ">
<path fill="none" stroke="#63b8ff" d="M425.84,-155.33C417.71,-153.07 409.47,-150.78 401.53,-148.57"/>
<polygon fill="#63b8ff" stroke="#63b8ff" points="424.79,-158.67 435.36,-157.98 426.66,-151.93 424.79,-158.67"/>
</a>
</g>
</g>
<!-- Node16&#45;&gt;Node6 -->
<g id="edge21_Node000016_Node000006" class="edge">
<title>Node16&#45;&gt;Node6</title>
<g id="a_edge21_Node000016_Node000006"><a xlink:title=" ">
<path fill="none" stroke="#63b8ff" d="M300.92,-105.58C278.03,-90.83 250.22,-72.92 228.99,-59.25"/>
<polygon fill="#63b8ff" stroke="#63b8ff" points="298.82,-108.39 309.13,-110.86 302.61,-102.5 298.82,-108.39"/>
</a>
</g>
</g>
<!-- Node17 -->
<g id="Node000017" class="node">
<title>Node17</title>
<g id="a_Node000017"><a xlink:href="../../d8/d80/namespacemimicpp_1_1printing_1_1type_1_1parsing_1_1v2.html#a2759add9b81e5c71f5618e20c88fdbb1" target="_top" xlink:title=" ">
<polygon fill="white" stroke="#666666" points="251.75,-243.88 138.25,-243.88 138.25,-202.12 251.75,-202.12 251.75,-243.88"/>
<text text-anchor="start" x="146.25" y="-230.38" font-family="Helvetica,sans-Serif" font-size="10.00">mimicpp::printing::</text>
<text text-anchor="start" x="146.25" y="-219.12" font-family="Helvetica,sans-Serif" font-size="10.00">type::parsing::v2::parse</text>
<text text-anchor="middle" x="195" y="-207.88" font-family="Helvetica,sans-Serif" font-size="10.00">_type_specifier_seq</text>
</a>
</g>
</g>
<!-- Node16&#45;&gt;Node17 -->
<g id="edge22_Node000016_Node000017" class="edge">
<title>Node16&#45;&gt;Node17</title>
<g id="a_edge22_Node000016_Node000017"><a xlink:title=" ">
<path fill="none" stroke="#63b8ff" d="M298.86,-160.24C277.08,-173.53 251.28,-189.27 230.96,-201.67"/>
<polygon fill="#63b8ff" stroke="#63b8ff" points="300.54,-163.31 307.25,-155.12 296.89,-157.34 300.54,-163.31"/>
</a>
</g>
</g>
<!-- Node17&#45;&gt;Node5 -->
<g id="edge24_Node000017_Node000005" class="edge">
<title>Node17&#45;&gt;Node5</title>
<g id="a_edge24_Node000017_Node000005"><a xlink:title=" ">
<path fill="none" stroke="#63b8ff" d="M263.39,-240.57C323.25,-254.63 413.34,-272 493,-272 1411.5,-272 1411.5,-272 1411.5,-272 1506.01,-272 1529.8,-260.87 1621.25,-237 1633.53,-233.79 1646.5,-229.63 1658.68,-225.35"/>
<polygon fill="#63b8ff" stroke="#63b8ff" points="264.22,-237.17 253.68,-238.25 262.59,-243.98 264.22,-237.17"/>
</a>
</g>
</g>
<!-- Node17&#45;&gt;Node14 -->
<g id="edge23_Node000017_Node000014" class="edge">
<title>Node17&#45;&gt;Node14</title>
<g id="a_edge23_Node000017_Node000014"><a xlink:title=" ">
<path fill="none" stroke="#63b8ff" d="M263.54,-223C351.19,-223 502.78,-223 586.46,-223"/>
<polygon fill="#63b8ff" stroke="#63b8ff" points="263.65,-219.5 253.65,-223 263.65,-226.5 263.65,-219.5"/>
</a>
</g>
</g>
<!-- Node17&#45;&gt;Node17 -->
<g id="edge25_Node000017_Node000017" class="edge">
<title>Node17&#45;&gt;Node17</title>
<g id="a_edge25_Node000017_Node000017"><a xlink:title=" ">
<path fill="none" stroke="#63b8ff" d="M218.68,-254.99C214.59,-259.13 206.7,-261.88 195,-261.88 174.77,-261.88 165.92,-253.67 168.44,-244.19"/>
<polygon fill="#63b8ff" stroke="#63b8ff" points="221.97,-256.22 221.17,-245.66 215.21,-254.42 221.97,-256.22"/>
</a>
</g>
</g>
</g>
</svg>

<g id="navigator" transform="translate(0 0)" fill="#404254">
  <rect fill="#f2f5e9" fill-opacity="0.5" stroke="#606060" stroke-width=".5" x="0" y="0" width="60" height="60"/>
  <use id="zoomplus" xlink:href="#zoomPlus" x="17" y="9" onmousedown="handleZoom(evt,'in')"/>
  <use id="zoomminus" xlink:href="#zoomMin" x="42" y="9" onmousedown="handleZoom(evt,'out')"/>
  <use id="reset" xlink:href="#resetDef" x="30" y="36" onmousedown="handleReset()"/>
   <use id="arrowup" xlink:href="#arrowUp" x="0" y="0" onmousedown="handlePan(0,-1)"/>
  <use id="arrowright" xlink:href="#arrowRight" x="0" y="0" onmousedown="handlePan(1,0)"/>
  <use id="arrowdown" xlink:href="#arrowDown" x="0" y="0" onmousedown="handlePan(0,1)"/>
  <use id="arrowleft" xlink:href="#arrowLeft" x="0" y="0" onmousedown="handlePan(-1,0)"/>
</g>
<svg viewBox="0 0 15 15" width="100%" height="30px" preserveAspectRatio="xMaxYMin meet">
 <g id="arrow_out" transform="scale(0.3 0.3)">
  <a xlink:href="namespacemimicpp_1_1printing_1_1type_1_1parsing_1_1v2_aee4bd78840a6ecaddeed02583b185fba_icgraph_org.svg" target="_base">
   <rect id="button" ry="5" rx="5" y="6" x="6" height="38" width="38"
        fill="#f2f5e9" fill-opacity="0.5" stroke="#606060" stroke-width="1.0"/>
   <path id="arrow"
     d="M 11.500037,31.436501 C 11.940474,20.09759 22.043105,11.32322 32.158766,21.979434 L 37.068811,17.246167 C 37.068811,17.246167 37.088388,32 37.088388,32 L 22.160133,31.978069 C 22.160133,31.978069 26.997745,27.140456 26.997745,27.140456 C 18.528582,18.264221 13.291696,25.230495 11.500037,31.436501 z"
     style="fill:#404040;"/>
  </a>
 </g>
</svg>

<style type='text/css'>
<![CDATA[
[data-mouse-over-selected='false'] { opacity: 0.7; }
[data-mouse-over-selected='true']  { opacity: 1.0; }
]]>
</style>
<script type="application/ecmascript"><![CDATA[
document.addEventListener('DOMContentLoaded', (event) => {
  highlightEdges();
  highlightAdjacentNodes();
});
]]></script>
</svg>
