<?xml version="1.0" encoding="UTF-8" standalone="no"?>
<!DOCTYPE svg PUBLIC "-//W3C//DTD SVG 1.1//EN"
 "http://www.w3.org/Graphics/SVG/1.1/DTD/svg11.dtd">
<!-- Generated by graphviz version 12.2.1 (20241206.2353)
 -->
<!-- Title: mimic++/Expectation.hpp Pages: 1 -->
<svg width="536pt" height="248pt"
 viewBox="0.00 0.00 536.25 248.25" xmlns="http://www.w3.org/2000/svg" xmlns:xlink="http://www.w3.org/1999/xlink">
<g id="graph0" class="graph" transform="scale(1 1) rotate(0) translate(4 244.25)">
<title>mimic++/Expectation.hpp</title>
<!-- Node1 -->
<g id="Node000001" class="node">
<title>Node1</title>
<g id="a_Node000001"><a xlink:title=" ">
<polygon fill="#999999" stroke="#666666" points="447.5,-240.25 322,-240.25 322,-221 447.5,-221 447.5,-240.25"/>
<text text-anchor="middle" x="384.75" y="-226.75" font-family="Helvetica,sans-Serif" font-size="10.00">mimic++/Expectation.hpp</text>
</a>
</g>
</g>
<!-- Node2 -->
<g id="Node000002" class="node">
<title>Node2</title>
<g id="a_Node000002"><a xlink:href="../../d2/d4f/_expectation_builder_8hpp.html" target="_top" xlink:title=" ">
<polygon fill="white" stroke="#666666" points="409.5,-185 254,-185 254,-165.75 409.5,-165.75 409.5,-185"/>
<text text-anchor="middle" x="331.75" y="-171.5" font-family="Helvetica,sans-Serif" font-size="10.00">mimic++/ExpectationBuilder.hpp</text>
</a>
</g>
</g>
<!-- Node1&#45;&gt;Node2 -->
<g id="edge1_Node000001_Node000002" class="edge">
<title>Node1&#45;&gt;Node2</title>
<g id="a_edge1_Node000001_Node000002"><a xlink:title=" ">
<path fill="none" stroke="#63b8ff" d="M368.03,-212.82C358.97,-203.73 348.15,-192.85 340.69,-185.36"/>
<polygon fill="#63b8ff" stroke="#63b8ff" points="365.4,-215.14 374.93,-219.76 370.36,-210.2 365.4,-215.14"/>
</a>
</g>
</g>
<!-- Node3 -->
<g id="Node000003" class="node">
<title>Node3</title>
<g id="a_Node000003"><a xlink:href="../../d5/dc5/_mock_8hpp.html" target="_top" xlink:title=" ">
<polygon fill="white" stroke="#666666" points="275.38,-129.75 176.12,-129.75 176.12,-110.5 275.38,-110.5 275.38,-129.75"/>
<text text-anchor="middle" x="225.75" y="-116.25" font-family="Helvetica,sans-Serif" font-size="10.00">mimic++/Mock.hpp</text>
</a>
</g>
</g>
<!-- Node1&#45;&gt;Node3 -->
<g id="edge11_Node000001_Node000003" class="edge">
<title>Node1&#45;&gt;Node3</title>
<g id="a_edge11_Node000001_Node000003"><a xlink:title=" ">
<path fill="none" stroke="#63b8ff" d="M310.58,-220.01C286.87,-213.57 262.25,-202.85 244.75,-185 229.84,-169.8 226.55,-143.45 225.88,-129.83"/>
<polygon fill="#63b8ff" stroke="#63b8ff" points="309.74,-223.4 320.28,-222.39 311.41,-216.6 309.74,-223.4"/>
</a>
</g>
</g>
<!-- Node5 -->
<g id="Node000005" class="node">
<title>Node5</title>
<g id="a_Node000005"><a xlink:href="../../d0/db9/mimic_09_09_8hpp.html" target="_top" xlink:title=" ">
<polygon fill="white" stroke="#666666" points="339.5,-19.25 226,-19.25 226,0 339.5,0 339.5,-19.25"/>
<text text-anchor="middle" x="282.75" y="-5.75" font-family="Helvetica,sans-Serif" font-size="10.00">mimic++/mimic++.hpp</text>
</a>
</g>
</g>
<!-- Node1&#45;&gt;Node5 -->
<g id="edge13_Node000001_Node000005" class="edge">
<title>Node1&#45;&gt;Node5</title>
<g id="a_edge13_Node000001_Node000005"><a xlink:title=" ">
<path fill="none" stroke="#63b8ff" d="M422.42,-216.59C472.67,-197.04 551.92,-157.38 520.75,-110.5 480.75,-50.33 396.71,-26.33 339.98,-16.81"/>
<polygon fill="#63b8ff" stroke="#63b8ff" points="421.42,-213.22 413.29,-220.03 423.88,-219.77 421.42,-213.22"/>
</a>
</g>
</g>
<!-- Node7 -->
<g id="Node000007" class="node">
<title>Node7</title>
<g id="a_Node000007"><a xlink:href="../../db/d83/_scoped_sequence_8hpp.html" target="_top" xlink:title=" ">
<polygon fill="white" stroke="#666666" points="511.62,-129.75 359.88,-129.75 359.88,-110.5 511.62,-110.5 511.62,-129.75"/>
<text text-anchor="middle" x="435.75" y="-116.25" font-family="Helvetica,sans-Serif" font-size="10.00">mimic++/ScopedSequence.hpp</text>
</a>
</g>
</g>
<!-- Node1&#45;&gt;Node7 -->
<g id="edge12_Node000001_Node000007" class="edge">
<title>Node1&#45;&gt;Node7</title>
<g id="a_edge12_Node000001_Node000007"><a xlink:title=" ">
<path fill="none" stroke="#63b8ff" d="M400.55,-212.22C406.98,-204.37 414,-194.7 418.75,-185 427.74,-166.66 432.45,-142.94 434.48,-130.19"/>
<polygon fill="#63b8ff" stroke="#63b8ff" points="398.06,-209.75 394.19,-219.62 403.36,-214.32 398.06,-209.75"/>
</a>
</g>
</g>
<!-- Node2&#45;&gt;Node3 -->
<g id="edge2_Node000002_Node000003" class="edge">
<title>Node2&#45;&gt;Node3</title>
<g id="a_edge2_Node000002_Node000003"><a xlink:title=" ">
<path fill="none" stroke="#63b8ff" d="M303.62,-160.24C284.66,-150.72 260.22,-138.44 243.82,-130.2"/>
<polygon fill="#63b8ff" stroke="#63b8ff" points="301.91,-163.3 312.42,-164.66 305.05,-157.05 301.91,-163.3"/>
</a>
</g>
</g>
<!-- Node2&#45;&gt;Node5 -->
<g id="edge10_Node000002_Node000005" class="edge">
<title>Node2&#45;&gt;Node5</title>
<g id="a_edge10_Node000002_Node000005"><a xlink:title=" ">
<path fill="none" stroke="#63b8ff" d="M331.16,-154.09C329.87,-129.81 325.75,-88.29 312.75,-55.25 307.42,-41.7 297.44,-28.09 290.46,-19.53"/>
<polygon fill="#63b8ff" stroke="#63b8ff" points="327.66,-154 331.56,-163.85 334.65,-153.72 327.66,-154"/>
</a>
</g>
</g>
<!-- Node2&#45;&gt;Node7 -->
<g id="edge8_Node000002_Node000007" class="edge">
<title>Node2&#45;&gt;Node7</title>
<g id="a_edge8_Node000002_Node000007"><a xlink:title=" ">
<path fill="none" stroke="#63b8ff" d="M359.61,-160.11C378.17,-150.61 402.01,-138.4 418.02,-130.2"/>
<polygon fill="#63b8ff" stroke="#63b8ff" points="358.05,-156.98 350.74,-164.65 361.24,-163.21 358.05,-156.98"/>
</a>
</g>
</g>
<!-- Node4 -->
<g id="Node000004" class="node">
<title>Node4</title>
<g id="a_Node000004"><a xlink:href="../../d6/dc3/_facade_8hpp.html" target="_top" xlink:title=" ">
<polygon fill="white" stroke="#666666" points="107.5,-74.5 0,-74.5 0,-55.25 107.5,-55.25 107.5,-74.5"/>
<text text-anchor="middle" x="53.75" y="-61" font-family="Helvetica,sans-Serif" font-size="10.00">mimic++/Facade.hpp</text>
</a>
</g>
</g>
<!-- Node3&#45;&gt;Node4 -->
<g id="edge3_Node000003_Node000004" class="edge">
<title>Node3&#45;&gt;Node4</title>
<g id="a_edge3_Node000003_Node000004"><a xlink:title=" ">
<path fill="none" stroke="#63b8ff" d="M185.58,-106.69C154.19,-96.97 111.29,-83.69 83.07,-74.95"/>
<polygon fill="#63b8ff" stroke="#63b8ff" points="184.54,-110.03 195.13,-109.64 186.61,-103.34 184.54,-110.03"/>
</a>
</g>
</g>
<!-- Node3&#45;&gt;Node5 -->
<g id="edge7_Node000003_Node000005" class="edge">
<title>Node3&#45;&gt;Node5</title>
<g id="a_edge7_Node000003_Node000005"><a xlink:title=" ">
<path fill="none" stroke="#63b8ff" d="M191.29,-105.47C166.75,-93.66 140.47,-75.36 154.75,-55.25 170.9,-32.52 199.53,-21.27 225.62,-15.74"/>
<polygon fill="#63b8ff" stroke="#63b8ff" points="189.64,-108.57 200.19,-109.5 192.52,-102.19 189.64,-108.57"/>
</a>
</g>
</g>
<!-- Node6 -->
<g id="Node000006" class="node">
<title>Node6</title>
<g id="a_Node000006"><a xlink:href="../../d5/d92/_object_watcher_8hpp.html" target="_top" xlink:title=" ">
<polygon fill="white" stroke="#666666" points="303.62,-74.5 163.88,-74.5 163.88,-55.25 303.62,-55.25 303.62,-74.5"/>
<text text-anchor="middle" x="233.75" y="-61" font-family="Helvetica,sans-Serif" font-size="10.00">mimic++/ObjectWatcher.hpp</text>
</a>
</g>
</g>
<!-- Node3&#45;&gt;Node6 -->
<g id="edge5_Node000003_Node000006" class="edge">
<title>Node3&#45;&gt;Node6</title>
<g id="a_edge5_Node000003_Node000006"><a xlink:title=" ">
<path fill="none" stroke="#63b8ff" d="M228.75,-99.17C230,-90.8 231.4,-81.5 232.4,-74.86"/>
<polygon fill="#63b8ff" stroke="#63b8ff" points="225.32,-98.43 227.3,-108.84 232.24,-99.47 225.32,-98.43"/>
</a>
</g>
</g>
<!-- Node4&#45;&gt;Node5 -->
<g id="edge4_Node000004_Node000005" class="edge">
<title>Node4&#45;&gt;Node5</title>
<g id="a_edge4_Node000004_Node000005"><a xlink:title=" ">
<path fill="none" stroke="#63b8ff" d="M103.97,-52.2C146.04,-42.41 205.25,-28.65 243.8,-19.68"/>
<polygon fill="#63b8ff" stroke="#63b8ff" points="103.28,-48.76 94.33,-54.44 104.86,-55.58 103.28,-48.76"/>
</a>
</g>
</g>
<!-- Node6&#45;&gt;Node5 -->
<g id="edge6_Node000006_Node000005" class="edge">
<title>Node6&#45;&gt;Node5</title>
<g id="a_edge6_Node000006_Node000005"><a xlink:title=" ">
<path fill="none" stroke="#63b8ff" d="M249.47,-46.79C257.79,-37.75 267.66,-27.02 274.48,-19.61"/>
<polygon fill="#63b8ff" stroke="#63b8ff" points="247.06,-44.24 242.87,-53.97 252.21,-48.98 247.06,-44.24"/>
</a>
</g>
</g>
<!-- Node7&#45;&gt;Node5 -->
<g id="edge9_Node000007_Node000005" class="edge">
<title>Node7&#45;&gt;Node5</title>
<g id="a_edge9_Node000007_Node000005"><a xlink:title=" ">
<path fill="none" stroke="#63b8ff" d="M413.75,-103.5C395.53,-90.56 368.96,-71.71 345.75,-55.25 328.26,-42.85 308.02,-28.52 295.3,-19.51"/>
<polygon fill="#63b8ff" stroke="#63b8ff" points="411.52,-106.21 421.7,-109.15 415.57,-100.5 411.52,-106.21"/>
</a>
</g>
</g>
</g>
</svg>
