<?xml version="1.0" encoding="UTF-8" standalone="no"?>
<!DOCTYPE svg PUBLIC "-//W3C//DTD SVG 1.1//EN"
 "http://www.w3.org/Graphics/SVG/1.1/DTD/svg11.dtd">
<!-- Generated by graphviz version 12.2.1 (20241206.2353)
 -->
<!-- Title: mimic++/expectation/Expectation.hpp Pages: 1 -->
<!--zoomable 404 -->

<svg id="main" version="1.1" xmlns="http://www.w3.org/2000/svg" xmlns:xlink="http://www.w3.org/1999/xlink" xml:space="preserve" onload="init(evt)">

<style type="text/css"><![CDATA[
.node, .edge {opacity: 0.7;}
.node.selected, .edge.selected {opacity: 1;}
.edge:hover path { stroke: red; }
.edge:hover polygon { stroke: red; fill: red; }
]]></style>

<defs>
  <circle id="rim" cx="0" cy="0" r="7"/>
  <circle id="rim2" cx="0" cy="0" r="3.5"/>
  <g id="zoomPlus">
    <use xlink:href="#rim" fill="#404040"><set attributeName="fill" to="#808080" begin="zoomplus.mouseover" end="zoomplus.mouseout"/></use>
    <path d="M-4,0h8M0,-4v8" fill="none" stroke="white" stroke-width="1.5" pointer-events="none"/>
  </g>
  <g id="zoomMin">
    <use xlink:href="#rim" fill="#404040"><set attributeName="fill" to="#808080" begin="zoomminus.mouseover" end="zoomminus.mouseout"/></use>
    <path d="M-4,0h8" fill="none" stroke="white" stroke-width="1.5" pointer-events="none"/>
  </g>
  <g id="arrowUp" transform="translate(30 24)">
    <use xlink:href="#rim"/>
    <path pointer-events="none" fill="none" stroke="white" stroke-width="1.5" d="M0,-3.0v7 M-2.5,-0.5L0,-3.0L2.5,-0.5"/>
  </g>
  <g id="arrowRight" transform="rotate(90) translate(36 -43)">
    <use xlink:href="#rim"/>
    <path pointer-events="none" fill="none" stroke="white" stroke-width="1.5" d="M0,-3.0v7 M-2.5,-0.5L0,-3.0L2.5,-0.5"/>
  </g>
  <g id="arrowDown" transform="rotate(180) translate(-30 -48)">
    <use xlink:href="#rim"/>
    <path pointer-events="none" fill="none" stroke="white" stroke-width="1.5" d="M0,-3.0v7 M-2.5,-0.5L0,-3.0L2.5,-0.5"/>
  </g>
  <g id="arrowLeft" transform="rotate(270) translate(-36 17)">
    <use xlink:href="#rim"/>
    <path pointer-events="none" fill="none" stroke="white" stroke-width="1.5" d="M0,-3.0v7 M-2.5,-0.5L0,-3.0L2.5,-0.5"/>
  </g>
  <g id="resetDef">
    <use xlink:href="#rim2" fill="#404040"><set attributeName="fill" to="#808080" begin="reset.mouseover" end="reset.mouseout"/></use>
  </g>
</defs>
<script type="application/ecmascript">
var viewWidth = 548;
var viewHeight = 404;
var sectionId = 'dynsection-1';
</script>
<script type="application/ecmascript" xlink:href="../../svg.min.js"/>
<svg id="graph" class="graph">
<g id="viewport">
<title>mimic++/expectation/Expectation.hpp</title>
<!-- Node1 -->
<g id="Node000001" class="node">
<title>Node1</title>
<g id="a_Node000001"><a xlink:title=" ">
<polygon fill="#999999" stroke="#666666" points="237.38,-395.75 130.62,-395.75 130.62,-365.25 237.38,-365.25 237.38,-395.75"/>
<text text-anchor="start" x="138.62" y="-382.25" font-family="Helvetica,sans-Serif" font-size="10.00">mimic++/expectation</text>
<text text-anchor="middle" x="184" y="-371" font-family="Helvetica,sans-Serif" font-size="10.00">/Expectation.hpp</text>
</a>
</g>
</g>
<!-- Node2 -->
<g id="Node000002" class="node">
<title>Node2</title>
<g id="a_Node000002"><a xlink:href="../../d4/d1e/_owner_8hpp.html" target="_top" xlink:title=" ">
<polygon fill="white" stroke="#666666" points="237.38,-262.75 130.62,-262.75 130.62,-232.25 237.38,-232.25 237.38,-262.75"/>
<text text-anchor="start" x="138.62" y="-249.25" font-family="Helvetica,sans-Serif" font-size="10.00">mimic++/expectation</text>
<text text-anchor="middle" x="184" y="-238" font-family="Helvetica,sans-Serif" font-size="10.00">/Owner.hpp</text>
</a>
</g>
</g>
<!-- Node1&#45;&gt;Node2 -->
<g id="edge1_Node000001_Node000002" class="edge">
<title>Node1&#45;&gt;Node2</title>
<g id="a_edge1_Node000001_Node000002"><a xlink:title=" ">
<path fill="none" stroke="#63b8ff" d="M184,-353.68C184,-326.59 184,-284.96 184,-263.08"/>
<polygon fill="#63b8ff" stroke="#63b8ff" points="180.5,-353.47 184,-363.47 187.5,-353.47 180.5,-353.47"/>
</a>
</g>
</g>
<!-- Node6 -->
<g id="Node000006" class="node">
<title>Node6</title>
<g id="a_Node000006"><a xlink:href="../../d0/db9/mimic_09_09_8hpp.html" target="_top" xlink:title=" ">
<polygon fill="white" stroke="#666666" points="285.75,-19.25 172.25,-19.25 172.25,0 285.75,0 285.75,-19.25"/>
<text text-anchor="middle" x="229" y="-5.75" font-family="Helvetica,sans-Serif" font-size="10.00">mimic++/mimic++.hpp</text>
</a>
</g>
</g>
<!-- Node1&#45;&gt;Node6 -->
<g id="edge18_Node000001_Node000006" class="edge">
<title>Node1&#45;&gt;Node6</title>
<g id="a_edge18_Node000001_Node000006"><a xlink:title=" ">
<path fill="none" stroke="#63b8ff" d="M119.54,-362.41C66.5,-343.98 0,-308.85 0,-248.5 0,-248.5 0,-248.5 0,-119.12 0,-43.24 103.98,-20.36 171.8,-13.5"/>
<polygon fill="#63b8ff" stroke="#63b8ff" points="118.26,-365.67 128.85,-365.5 120.46,-359.03 118.26,-365.67"/>
</a>
</g>
</g>
<!-- Node9 -->
<g id="Node000009" class="node">
<title>Node9</title>
<g id="a_Node000009"><a xlink:href="../../db/d5d/_registry_8hpp.html" target="_top" xlink:title=" ">
<polygon fill="white" stroke="#666666" points="318.38,-329.25 211.62,-329.25 211.62,-298.75 318.38,-298.75 318.38,-329.25"/>
<text text-anchor="start" x="219.62" y="-315.75" font-family="Helvetica,sans-Serif" font-size="10.00">mimic++/expectation</text>
<text text-anchor="middle" x="265" y="-304.5" font-family="Helvetica,sans-Serif" font-size="10.00">/Registry.hpp</text>
</a>
</g>
</g>
<!-- Node1&#45;&gt;Node9 -->
<g id="edge13_Node000001_Node000009" class="edge">
<title>Node1&#45;&gt;Node9</title>
<g id="a_edge13_Node000001_Node000009"><a xlink:title=" ">
<path fill="none" stroke="#63b8ff" d="M211.29,-357.77C222.95,-348.48 236.25,-337.9 246.69,-329.58"/>
<polygon fill="#63b8ff" stroke="#63b8ff" points="209.21,-354.95 203.56,-363.92 213.57,-360.43 209.21,-354.95"/>
</a>
</g>
</g>
<!-- Node3 -->
<g id="Node000003" class="node">
<title>Node3</title>
<g id="a_Node000003"><a xlink:href="../../d6/d15/_builder_8hpp.html" target="_top" xlink:title=" ">
<polygon fill="white" stroke="#666666" points="297.38,-196.25 190.62,-196.25 190.62,-165.75 297.38,-165.75 297.38,-196.25"/>
<text text-anchor="start" x="198.62" y="-182.75" font-family="Helvetica,sans-Serif" font-size="10.00">mimic++/expectation</text>
<text text-anchor="middle" x="244" y="-171.5" font-family="Helvetica,sans-Serif" font-size="10.00">/Builder.hpp</text>
</a>
</g>
</g>
<!-- Node2&#45;&gt;Node3 -->
<g id="edge2_Node000002_Node000003" class="edge">
<title>Node2&#45;&gt;Node3</title>
<g id="a_edge2_Node000002_Node000003"><a xlink:title=" ">
<path fill="none" stroke="#63b8ff" d="M205.25,-223.66C213.63,-214.65 223.01,-204.57 230.44,-196.58"/>
<polygon fill="#63b8ff" stroke="#63b8ff" points="202.89,-221.05 198.65,-230.76 208.02,-225.82 202.89,-221.05"/>
</a>
</g>
</g>
<!-- Node2&#45;&gt;Node6 -->
<g id="edge12_Node000002_Node000006" class="edge">
<title>Node2&#45;&gt;Node6</title>
<g id="a_edge12_Node000002_Node000006"><a xlink:title=" ">
<path fill="none" stroke="#63b8ff" d="M140.7,-226.54C94,-202.04 29.74,-157.88 57,-110.5 86.27,-59.62 152.51,-32.27 193.72,-19.64"/>
<polygon fill="#63b8ff" stroke="#63b8ff" points="139.1,-229.65 149.6,-231.07 142.28,-223.41 139.1,-229.65"/>
</a>
</g>
</g>
<!-- Node4 -->
<g id="Node000004" class="node">
<title>Node4</title>
<g id="a_Node000004"><a xlink:href="../../d5/dc5/_mock_8hpp.html" target="_top" xlink:title=" ">
<polygon fill="white" stroke="#666666" points="374.62,-129.75 275.38,-129.75 275.38,-110.5 374.62,-110.5 374.62,-129.75"/>
<text text-anchor="middle" x="325" y="-116.25" font-family="Helvetica,sans-Serif" font-size="10.00">mimic++/Mock.hpp</text>
</a>
</g>
</g>
<!-- Node3&#45;&gt;Node4 -->
<g id="edge3_Node000003_Node000004" class="edge">
<title>Node3&#45;&gt;Node4</title>
<g id="a_edge3_Node000003_Node000004"><a xlink:title=" ">
<path fill="none" stroke="#63b8ff" d="M273.03,-158.9C286.58,-149.05 302.01,-137.83 312.51,-130.2"/>
<polygon fill="#63b8ff" stroke="#63b8ff" points="271.28,-155.85 265.25,-164.56 275.39,-161.51 271.28,-155.85"/>
</a>
</g>
</g>
<!-- Node3&#45;&gt;Node6 -->
<g id="edge11_Node000003_Node000006" class="edge">
<title>Node3&#45;&gt;Node6</title>
<g id="a_edge11_Node000003_Node000006"><a xlink:title=" ">
<path fill="none" stroke="#63b8ff" d="M240.31,-153.93C237.75,-140.49 233.58,-124.11 227,-110.5 218.17,-92.25 205.58,-93.67 199,-74.5 192,-54.1 208.81,-31.56 219.99,-19.46"/>
<polygon fill="#63b8ff" stroke="#63b8ff" points="236.86,-154.52 241.98,-163.79 243.76,-153.35 236.86,-154.52"/>
</a>
</g>
</g>
<!-- Node8 -->
<g id="Node000008" class="node">
<title>Node8</title>
<g id="a_Node000008"><a xlink:href="../../db/d83/_scoped_sequence_8hpp.html" target="_top" xlink:title=" ">
<polygon fill="white" stroke="#666666" points="217.88,-129.75 66.12,-129.75 66.12,-110.5 217.88,-110.5 217.88,-129.75"/>
<text text-anchor="middle" x="142" y="-116.25" font-family="Helvetica,sans-Serif" font-size="10.00">mimic++/ScopedSequence.hpp</text>
</a>
</g>
</g>
<!-- Node3&#45;&gt;Node8 -->
<g id="edge9_Node000003_Node000008" class="edge">
<title>Node3&#45;&gt;Node8</title>
<g id="a_edge9_Node000003_Node000008"><a xlink:title=" ">
<path fill="none" stroke="#63b8ff" d="M208.66,-159.6C191.27,-149.56 171.18,-137.97 157.64,-130.15"/>
<polygon fill="#63b8ff" stroke="#63b8ff" points="206.8,-162.57 217.21,-164.54 210.3,-156.51 206.8,-162.57"/>
</a>
</g>
</g>
<!-- Node5 -->
<g id="Node000005" class="node">
<title>Node5</title>
<g id="a_Node000005"><a xlink:href="../../d6/dc3/_facade_8hpp.html" target="_top" xlink:title=" ">
<polygon fill="white" stroke="#666666" points="473.75,-74.5 366.25,-74.5 366.25,-55.25 473.75,-55.25 473.75,-74.5"/>
<text text-anchor="middle" x="420" y="-61" font-family="Helvetica,sans-Serif" font-size="10.00">mimic++/Facade.hpp</text>
</a>
</g>
</g>
<!-- Node4&#45;&gt;Node5 -->
<g id="edge4_Node000004_Node000005" class="edge">
<title>Node4&#45;&gt;Node5</title>
<g id="a_edge4_Node000004_Node000005"><a xlink:title=" ">
<path fill="none" stroke="#63b8ff" d="M350.93,-104.59C367.81,-95.13 389.31,-83.08 403.81,-74.95"/>
<polygon fill="#63b8ff" stroke="#63b8ff" points="349.45,-101.41 342.44,-109.35 352.87,-107.52 349.45,-101.41"/>
</a>
</g>
</g>
<!-- Node4&#45;&gt;Node6 -->
<g id="edge8_Node000004_Node000006" class="edge">
<title>Node4&#45;&gt;Node6</title>
<g id="a_edge8_Node000004_Node000006"><a xlink:title=" ">
<path fill="none" stroke="#63b8ff" d="M386.38,-114.38C442.91,-107.67 513.7,-91.82 483,-55.25 458.35,-25.89 353.02,-15.84 285.98,-12.41"/>
<polygon fill="#63b8ff" stroke="#63b8ff" points="386,-110.91 376.44,-115.48 386.77,-117.86 386,-110.91"/>
</a>
</g>
</g>
<!-- Node7 -->
<g id="Node000007" class="node">
<title>Node7</title>
<g id="a_Node000007"><a xlink:href="../../d5/d92/_object_watcher_8hpp.html" target="_top" xlink:title=" ">
<polygon fill="white" stroke="#666666" points="347.88,-74.5 208.12,-74.5 208.12,-55.25 347.88,-55.25 347.88,-74.5"/>
<text text-anchor="middle" x="278" y="-61" font-family="Helvetica,sans-Serif" font-size="10.00">mimic++/ObjectWatcher.hpp</text>
</a>
</g>
</g>
<!-- Node4&#45;&gt;Node7 -->
<g id="edge6_Node000004_Node000007" class="edge">
<title>Node4&#45;&gt;Node7</title>
<g id="a_edge6_Node000004_Node000007"><a xlink:title=" ">
<path fill="none" stroke="#63b8ff" d="M309.67,-101.76C301.75,-92.78 292.4,-82.2 285.93,-74.86"/>
<polygon fill="#63b8ff" stroke="#63b8ff" points="307,-104.02 316.24,-109.2 312.24,-99.38 307,-104.02"/>
</a>
</g>
</g>
<!-- Node5&#45;&gt;Node6 -->
<g id="edge5_Node000005_Node000006" class="edge">
<title>Node5&#45;&gt;Node6</title>
<g id="a_edge5_Node000005_Node000006"><a xlink:title=" ">
<path fill="none" stroke="#63b8ff" d="M376.76,-51.82C341.79,-42.07 293.31,-28.55 261.56,-19.7"/>
<polygon fill="#63b8ff" stroke="#63b8ff" points="375.57,-55.12 386.14,-54.44 377.45,-48.38 375.57,-55.12"/>
</a>
</g>
</g>
<!-- Node7&#45;&gt;Node6 -->
<g id="edge7_Node000007_Node000006" class="edge">
<title>Node7&#45;&gt;Node6</title>
<g id="a_edge7_Node000007_Node000006"><a xlink:title=" ">
<path fill="none" stroke="#63b8ff" d="M262.28,-46.79C253.96,-37.75 244.09,-27.02 237.27,-19.61"/>
<polygon fill="#63b8ff" stroke="#63b8ff" points="259.54,-48.98 268.88,-53.97 264.69,-44.24 259.54,-48.98"/>
</a>
</g>
</g>
<!-- Node8&#45;&gt;Node6 -->
<g id="edge10_Node000008_Node000006" class="edge">
<title>Node8&#45;&gt;Node6</title>
<g id="a_edge10_Node000008_Node000006"><a xlink:title=" ">
<path fill="none" stroke="#63b8ff" d="M146.25,-99.12C149.84,-85.7 156.03,-68.18 166,-55.25 177.95,-39.75 196.76,-27.42 210.72,-19.68"/>
<polygon fill="#63b8ff" stroke="#63b8ff" points="142.91,-98.03 144,-108.57 149.72,-99.65 142.91,-98.03"/>
</a>
</g>
</g>
<!-- Node9&#45;&gt;Node2 -->
<g id="edge16_Node000009_Node000002" class="edge">
<title>Node9&#45;&gt;Node2</title>
<g id="a_edge16_Node000009_Node000002"><a xlink:title=" ">
<path fill="none" stroke="#63b8ff" d="M237.71,-291.27C226.05,-281.98 212.75,-271.4 202.31,-263.08"/>
<polygon fill="#63b8ff" stroke="#63b8ff" points="235.43,-293.93 245.44,-297.42 239.79,-288.45 235.43,-293.93"/>
</a>
</g>
</g>
<!-- Node9&#45;&gt;Node3 -->
<g id="edge15_Node000009_Node000003" class="edge">
<title>Node9&#45;&gt;Node3</title>
<g id="a_edge15_Node000009_Node000003"><a xlink:title=" ">
<path fill="none" stroke="#63b8ff" d="M260.86,-287.18C256.52,-260.09 249.84,-218.46 246.34,-196.58"/>
<polygon fill="#63b8ff" stroke="#63b8ff" points="257.39,-287.67 262.43,-296.99 264.31,-286.56 257.39,-287.67"/>
</a>
</g>
</g>
<!-- Node9&#45;&gt;Node4 -->
<g id="edge14_Node000009_Node000004" class="edge">
<title>Node9&#45;&gt;Node4</title>
<g id="a_edge14_Node000009_Node000004"><a xlink:title=" ">
<path fill="none" stroke="#63b8ff" d="M274.65,-287.64C283.41,-264.13 296.4,-228.1 306,-196.25 313.14,-172.55 319.83,-144.11 323.03,-129.99"/>
<polygon fill="#63b8ff" stroke="#63b8ff" points="271.38,-286.39 271.14,-296.98 277.93,-288.85 271.38,-286.39"/>
</a>
</g>
</g>
<!-- Node9&#45;&gt;Node6 -->
<g id="edge17_Node000009_Node000006" class="edge">
<title>Node9&#45;&gt;Node6</title>
<g id="a_edge17_Node000009_Node000006"><a xlink:title=" ">
<path fill="none" stroke="#63b8ff" d="M329.81,-309.78C411.11,-301.86 540,-274.68 540,-182 540,-182 540,-182 540,-119.12 540,-85.86 528.59,-73.83 501,-55.25 466.76,-32.2 355.17,-19.95 286.01,-14.41"/>
<polygon fill="#63b8ff" stroke="#63b8ff" points="329.83,-306.27 320.18,-310.65 330.45,-313.24 329.83,-306.27"/>
</a>
</g>
</g>
</g>
</svg>

<g id="navigator" transform="translate(0 0)" fill="#404254">
  <rect fill="#f2f5e9" fill-opacity="0.5" stroke="#606060" stroke-width=".5" x="0" y="0" width="60" height="60"/>
  <use id="zoomplus" xlink:href="#zoomPlus" x="17" y="9" onmousedown="handleZoom(evt,'in')"/>
  <use id="zoomminus" xlink:href="#zoomMin" x="42" y="9" onmousedown="handleZoom(evt,'out')"/>
  <use id="reset" xlink:href="#resetDef" x="30" y="36" onmousedown="handleReset()"/>
   <use id="arrowup" xlink:href="#arrowUp" x="0" y="0" onmousedown="handlePan(0,-1)"/>
  <use id="arrowright" xlink:href="#arrowRight" x="0" y="0" onmousedown="handlePan(1,0)"/>
  <use id="arrowdown" xlink:href="#arrowDown" x="0" y="0" onmousedown="handlePan(0,1)"/>
  <use id="arrowleft" xlink:href="#arrowLeft" x="0" y="0" onmousedown="handlePan(-1,0)"/>
</g>
<svg viewBox="0 0 15 15" width="100%" height="30px" preserveAspectRatio="xMaxYMin meet">
 <g id="arrow_out" transform="scale(0.3 0.3)">
  <a xlink:href="_expectation_8hpp__dep__incl_org.svg" target="_base">
   <rect id="button" ry="5" rx="5" y="6" x="6" height="38" width="38"
        fill="#f2f5e9" fill-opacity="0.5" stroke="#606060" stroke-width="1.0"/>
   <path id="arrow"
     d="M 11.500037,31.436501 C 11.940474,20.09759 22.043105,11.32322 32.158766,21.979434 L 37.068811,17.246167 C 37.068811,17.246167 37.088388,32 37.088388,32 L 22.160133,31.978069 C 22.160133,31.978069 26.997745,27.140456 26.997745,27.140456 C 18.528582,18.264221 13.291696,25.230495 11.500037,31.436501 z"
     style="fill:#404040;"/>
  </a>
 </g>
</svg>

<style type='text/css'>
<![CDATA[
[data-mouse-over-selected='false'] { opacity: 0.7; }
[data-mouse-over-selected='true']  { opacity: 1.0; }
]]>
</style>
<script type="application/ecmascript"><![CDATA[
document.addEventListener('DOMContentLoaded', (event) => {
  highlightEdges();
  highlightAdjacentNodes();
});
]]></script>
</svg>
