<?xml version="1.0" encoding="UTF-8" standalone="no"?>
<!DOCTYPE svg PUBLIC "-//W3C//DTD SVG 1.1//EN"
 "http://www.w3.org/Graphics/SVG/1.1/DTD/svg11.dtd">
<!-- Generated by graphviz version 12.2.1 (20241206.2353)
 -->
<!-- Title: mimic++/reporting/ExpectationReport.hpp Pages: 1 -->
<!--zoomable 647 -->

<svg id="main" version="1.1" xmlns="http://www.w3.org/2000/svg" xmlns:xlink="http://www.w3.org/1999/xlink" xml:space="preserve" onload="init(evt)">

<style type="text/css"><![CDATA[
.node, .edge {opacity: 0.7;}
.node.selected, .edge.selected {opacity: 1;}
.edge:hover path { stroke: red; }
.edge:hover polygon { stroke: red; fill: red; }
]]></style>

<defs>
  <circle id="rim" cx="0" cy="0" r="7"/>
  <circle id="rim2" cx="0" cy="0" r="3.5"/>
  <g id="zoomPlus">
    <use xlink:href="#rim" fill="#404040"><set attributeName="fill" to="#808080" begin="zoomplus.mouseover" end="zoomplus.mouseout"/></use>
    <path d="M-4,0h8M0,-4v8" fill="none" stroke="white" stroke-width="1.5" pointer-events="none"/>
  </g>
  <g id="zoomMin">
    <use xlink:href="#rim" fill="#404040"><set attributeName="fill" to="#808080" begin="zoomminus.mouseover" end="zoomminus.mouseout"/></use>
    <path d="M-4,0h8" fill="none" stroke="white" stroke-width="1.5" pointer-events="none"/>
  </g>
  <g id="arrowUp" transform="translate(30 24)">
    <use xlink:href="#rim"/>
    <path pointer-events="none" fill="none" stroke="white" stroke-width="1.5" d="M0,-3.0v7 M-2.5,-0.5L0,-3.0L2.5,-0.5"/>
  </g>
  <g id="arrowRight" transform="rotate(90) translate(36 -43)">
    <use xlink:href="#rim"/>
    <path pointer-events="none" fill="none" stroke="white" stroke-width="1.5" d="M0,-3.0v7 M-2.5,-0.5L0,-3.0L2.5,-0.5"/>
  </g>
  <g id="arrowDown" transform="rotate(180) translate(-30 -48)">
    <use xlink:href="#rim"/>
    <path pointer-events="none" fill="none" stroke="white" stroke-width="1.5" d="M0,-3.0v7 M-2.5,-0.5L0,-3.0L2.5,-0.5"/>
  </g>
  <g id="arrowLeft" transform="rotate(270) translate(-36 17)">
    <use xlink:href="#rim"/>
    <path pointer-events="none" fill="none" stroke="white" stroke-width="1.5" d="M0,-3.0v7 M-2.5,-0.5L0,-3.0L2.5,-0.5"/>
  </g>
  <g id="resetDef">
    <use xlink:href="#rim2" fill="#404040"><set attributeName="fill" to="#808080" begin="reset.mouseover" end="reset.mouseout"/></use>
  </g>
</defs>
<script type="application/ecmascript">
var viewWidth = 796;
var viewHeight = 647;
var sectionId = 'dynsection-1';
</script>
<script type="application/ecmascript" xlink:href="../../svg.min.js"/>
<svg id="graph" class="graph">
<g id="viewport">
<title>mimic++/reporting/ExpectationReport.hpp</title>
<!-- Node1 -->
<g id="Node000001" class="node">
<title>Node1</title>
<g id="a_Node000001"><a xlink:title=" ">
<polygon fill="#999999" stroke="#666666" points="484,-639.25 336,-639.25 336,-608.75 484,-608.75 484,-639.25"/>
<text text-anchor="start" x="344" y="-625.75" font-family="Helvetica,sans-Serif" font-size="10.00">mimic++/reporting/Expectation</text>
<text text-anchor="middle" x="410" y="-614.5" font-family="Helvetica,sans-Serif" font-size="10.00">Report.hpp</text>
</a>
</g>
</g>
<!-- Node2 -->
<g id="Node000002" class="node">
<title>Node2</title>
<g id="a_Node000002"><a xlink:href="../../d5/d8a/_expectation_8hpp.html" target="_top" xlink:title=" ">
<polygon fill="white" stroke="#666666" points="449.75,-245.88 324.25,-245.88 324.25,-226.62 449.75,-226.62 449.75,-245.88"/>
<text text-anchor="middle" x="387" y="-232.38" font-family="Helvetica,sans-Serif" font-size="10.00">mimic++/Expectation.hpp</text>
</a>
</g>
</g>
<!-- Node1&#45;&gt;Node2 -->
<g id="edge1_Node000001_Node000002" class="edge">
<title>Node1&#45;&gt;Node2</title>
<g id="a_edge1_Node000001_Node000002"><a xlink:title=" ">
<path fill="none" stroke="#63b8ff" d="M373.42,-602.13C339.42,-579.72 294,-540.66 294,-492 294,-492 294,-492 294,-357 294,-306.2 346.86,-263.93 372.88,-246.21"/>
<polygon fill="#63b8ff" stroke="#63b8ff" points="371.5,-605.06 381.82,-607.47 375.25,-599.15 371.5,-605.06"/>
</a>
</g>
</g>
<!-- Node9 -->
<g id="Node000009" class="node">
<title>Node9</title>
<g id="a_Node000009"><a xlink:href="../../d7/deb/_reporting_8hpp.html" target="_top" xlink:title=" ">
<polygon fill="white" stroke="#666666" points="662.25,-306.75 545.75,-306.75 545.75,-287.5 662.25,-287.5 662.25,-306.75"/>
<text text-anchor="middle" x="604" y="-293.25" font-family="Helvetica,sans-Serif" font-size="10.00">mimic++/Reporting.hpp</text>
</a>
</g>
</g>
<!-- Node1&#45;&gt;Node9 -->
<g id="edge15_Node000001_Node000009" class="edge">
<title>Node1&#45;&gt;Node9</title>
<g id="a_edge15_Node000001_Node000009"><a xlink:title=" ">
<path fill="none" stroke="#63b8ff" d="M495.46,-610.89C606.96,-592.63 788,-553.52 788,-492 788,-492 788,-492 788,-423.5 788,-355.27 700.54,-321.53 646.21,-307.15"/>
<polygon fill="#63b8ff" stroke="#63b8ff" points="495.04,-607.41 485.72,-612.45 496.15,-614.32 495.04,-607.41"/>
</a>
</g>
</g>
<!-- Node10 -->
<g id="Node000010" class="node">
<title>Node10</title>
<g id="a_Node000010"><a xlink:href="../../db/d70/_control_policies_8hpp.html" target="_top" xlink:title=" ">
<polygon fill="white" stroke="#666666" points="124,-251.5 0,-251.5 0,-221 124,-221 124,-251.5"/>
<text text-anchor="start" x="8" y="-238" font-family="Helvetica,sans-Serif" font-size="10.00">mimic++/policies/Control</text>
<text text-anchor="middle" x="62" y="-226.75" font-family="Helvetica,sans-Serif" font-size="10.00">Policies.hpp</text>
</a>
</g>
</g>
<!-- Node1&#45;&gt;Node10 -->
<g id="edge17_Node000001_Node000010" class="edge">
<title>Node1&#45;&gt;Node10</title>
<g id="a_edge17_Node000001_Node000010"><a xlink:title=" ">
<path fill="none" stroke="#63b8ff" d="M326.22,-605.82C231.7,-583.97 91,-542.89 91,-492 91,-492 91,-492 91,-357 91,-318.07 76.34,-273.97 67.87,-251.72"/>
<polygon fill="#63b8ff" stroke="#63b8ff" points="325.21,-609.18 335.74,-607.99 326.77,-602.35 325.21,-609.18"/>
</a>
</g>
</g>
<!-- Node11 -->
<g id="Node000011" class="node">
<title>Node11</title>
<g id="a_Node000011"><a xlink:href="../../d1/dfd/_basic_reporter_8hpp.html" target="_top" xlink:title=" ">
<polygon fill="white" stroke="#666666" points="721.62,-434.12 544.38,-434.12 544.38,-414.88 721.62,-414.88 721.62,-434.12"/>
<text text-anchor="middle" x="633" y="-420.62" font-family="Helvetica,sans-Serif" font-size="10.00">mimic++/reporting/BasicReporter.hpp</text>
</a>
</g>
</g>
<!-- Node1&#45;&gt;Node11 -->
<g id="edge20_Node000001_Node000011" class="edge">
<title>Node1&#45;&gt;Node11</title>
<g id="a_edge20_Node000001_Node000011"><a xlink:title=" ">
<path fill="none" stroke="#63b8ff" d="M495.26,-619.76C533.09,-614.02 575.41,-601.03 604,-572.75 642.9,-534.27 637.49,-459.84 634.3,-434.33"/>
<polygon fill="#63b8ff" stroke="#63b8ff" points="495.15,-616.24 485.71,-621.05 496.09,-623.18 495.15,-616.24"/>
</a>
</g>
</g>
<!-- Node12 -->
<g id="Node000012" class="node">
<title>Node12</title>
<g id="a_Node000012"><a xlink:href="../../d0/d70/_default_reporter_8hpp.html" target="_top" xlink:title=" ">
<polygon fill="white" stroke="#666666" points="488.25,-439.75 359.75,-439.75 359.75,-409.25 488.25,-409.25 488.25,-439.75"/>
<text text-anchor="start" x="367.75" y="-426.25" font-family="Helvetica,sans-Serif" font-size="10.00">mimic++/reporting/Default</text>
<text text-anchor="middle" x="424" y="-415" font-family="Helvetica,sans-Serif" font-size="10.00">Reporter.hpp</text>
</a>
</g>
</g>
<!-- Node1&#45;&gt;Node12 -->
<g id="edge22_Node000001_Node000012" class="edge">
<title>Node1&#45;&gt;Node12</title>
<g id="a_edge22_Node000001_Node000012"><a xlink:title=" ">
<path fill="none" stroke="#63b8ff" d="M411.84,-597.02C414.82,-554.94 420.62,-473.24 422.97,-440.04"/>
<polygon fill="#63b8ff" stroke="#63b8ff" points="408.35,-596.75 411.14,-606.97 415.33,-597.24 408.35,-596.75"/>
</a>
</g>
</g>
<!-- Node13 -->
<g id="Node000013" class="node">
<title>Node13</title>
<g id="a_Node000013"><a xlink:href="../../de/dd1/_global_reporter_8hpp.html" target="_top" xlink:title=" ">
<polygon fill="white" stroke="#666666" points="449.75,-373.25 324.25,-373.25 324.25,-342.75 449.75,-342.75 449.75,-373.25"/>
<text text-anchor="start" x="332.25" y="-359.75" font-family="Helvetica,sans-Serif" font-size="10.00">mimic++/reporting/Global</text>
<text text-anchor="middle" x="387" y="-348.5" font-family="Helvetica,sans-Serif" font-size="10.00">Reporter.hpp</text>
</a>
</g>
</g>
<!-- Node1&#45;&gt;Node13 -->
<g id="edge33_Node000001_Node000013" class="edge">
<title>Node1&#45;&gt;Node13</title>
<g id="a_edge33_Node000001_Node000013"><a xlink:title=" ">
<path fill="none" stroke="#63b8ff" d="M399.23,-598.11C384.87,-563.42 360.18,-498.19 351,-439.75 348.9,-426.36 346.85,-422.16 351,-409.25 355.33,-395.76 364.77,-382.82 372.89,-373.45"/>
<polygon fill="#63b8ff" stroke="#63b8ff" points="395.98,-599.4 403.08,-607.26 402.43,-596.68 395.98,-599.4"/>
</a>
</g>
</g>
<!-- Node15 -->
<g id="Node000015" class="node">
<title>Node15</title>
<g id="a_Node000015"><a xlink:href="../../de/d3f/_no_match_report_8hpp.html" target="_top" xlink:title=" ">
<polygon fill="white" stroke="#666666" points="594.75,-572.75 457.25,-572.75 457.25,-542.25 594.75,-542.25 594.75,-572.75"/>
<text text-anchor="start" x="465.25" y="-559.25" font-family="Helvetica,sans-Serif" font-size="10.00">mimic++/reporting/NoMatch</text>
<text text-anchor="middle" x="526" y="-548" font-family="Helvetica,sans-Serif" font-size="10.00">Report.hpp</text>
</a>
</g>
</g>
<!-- Node1&#45;&gt;Node15 -->
<g id="edge34_Node000001_Node000015" class="edge">
<title>Node1&#45;&gt;Node15</title>
<g id="a_edge34_Node000001_Node000015"><a xlink:title=" ">
<path fill="none" stroke="#63b8ff" d="M446.14,-602.91C463.5,-593.25 483.93,-581.89 499.78,-573.08"/>
<polygon fill="#63b8ff" stroke="#63b8ff" points="444.68,-599.71 437.64,-607.63 448.09,-605.83 444.68,-599.71"/>
</a>
</g>
</g>
<!-- Node16 -->
<g id="Node000016" class="node">
<title>Node16</title>
<g id="a_Node000016"><a xlink:href="../../d9/d70/_stringify_reports_8hpp.html" target="_top" xlink:title=" ">
<polygon fill="white" stroke="#666666" points="590.5,-506.25 457.5,-506.25 457.5,-475.75 590.5,-475.75 590.5,-506.25"/>
<text text-anchor="start" x="465.5" y="-492.75" font-family="Helvetica,sans-Serif" font-size="10.00">mimic++/reporting/Stringify</text>
<text text-anchor="middle" x="524" y="-481.5" font-family="Helvetica,sans-Serif" font-size="10.00">Reports.hpp</text>
</a>
</g>
</g>
<!-- Node1&#45;&gt;Node16 -->
<g id="edge42_Node000001_Node000016" class="edge">
<title>Node1&#45;&gt;Node16</title>
<g id="a_edge42_Node000001_Node000016"><a xlink:title=" ">
<path fill="none" stroke="#63b8ff" d="M417.84,-597.7C424.04,-580.66 434,-558.43 448,-542.25 460.73,-527.54 478.77,-515.36 494.08,-506.68"/>
<polygon fill="#63b8ff" stroke="#63b8ff" points="414.56,-596.5 414.64,-607.1 421.18,-598.76 414.56,-596.5"/>
</a>
</g>
</g>
<!-- Node3 -->
<g id="Node000003" class="node">
<title>Node3</title>
<g id="a_Node000003"><a xlink:href="../../d2/d4f/_expectation_builder_8hpp.html" target="_top" xlink:title=" ">
<polygon fill="white" stroke="#666666" points="283.75,-185 128.25,-185 128.25,-165.75 283.75,-165.75 283.75,-185"/>
<text text-anchor="middle" x="206" y="-171.5" font-family="Helvetica,sans-Serif" font-size="10.00">mimic++/ExpectationBuilder.hpp</text>
</a>
</g>
</g>
<!-- Node2&#45;&gt;Node3 -->
<g id="edge2_Node000002_Node000003" class="edge">
<title>Node2&#45;&gt;Node3</title>
<g id="a_edge2_Node000002_Node000003"><a xlink:title=" ">
<path fill="none" stroke="#63b8ff" d="M348.53,-222.74C314.16,-211.56 264.62,-195.44 233.92,-185.46"/>
<polygon fill="#63b8ff" stroke="#63b8ff" points="347.08,-225.95 357.68,-225.71 349.25,-219.29 347.08,-225.95"/>
</a>
</g>
</g>
<!-- Node4 -->
<g id="Node000004" class="node">
<title>Node4</title>
<g id="a_Node000004"><a xlink:href="../../d5/dc5/_mock_8hpp.html" target="_top" xlink:title=" ">
<polygon fill="white" stroke="#666666" points="293.62,-129.75 194.38,-129.75 194.38,-110.5 293.62,-110.5 293.62,-129.75"/>
<text text-anchor="middle" x="244" y="-116.25" font-family="Helvetica,sans-Serif" font-size="10.00">mimic++/Mock.hpp</text>
</a>
</g>
</g>
<!-- Node2&#45;&gt;Node4 -->
<g id="edge12_Node000002_Node000004" class="edge">
<title>Node2&#45;&gt;Node4</title>
<g id="a_edge12_Node000002_Node000004"><a xlink:title=" ">
<path fill="none" stroke="#63b8ff" d="M366.87,-219.18C336.31,-194.79 279.24,-149.25 255.17,-130.04"/>
<polygon fill="#63b8ff" stroke="#63b8ff" points="364.6,-221.85 374.6,-225.35 368.96,-216.38 364.6,-221.85"/>
</a>
</g>
</g>
<!-- Node6 -->
<g id="Node000006" class="node">
<title>Node6</title>
<g id="a_Node000006"><a xlink:href="../../d0/db9/mimic_09_09_8hpp.html" target="_top" xlink:title=" ">
<polygon fill="white" stroke="#666666" points="448.75,-19.25 335.25,-19.25 335.25,0 448.75,0 448.75,-19.25"/>
<text text-anchor="middle" x="392" y="-5.75" font-family="Helvetica,sans-Serif" font-size="10.00">mimic++/mimic++.hpp</text>
</a>
</g>
</g>
<!-- Node2&#45;&gt;Node6 -->
<g id="edge14_Node000002_Node000006" class="edge">
<title>Node2&#45;&gt;Node6</title>
<g id="a_edge14_Node000002_Node000006"><a xlink:title=" ">
<path fill="none" stroke="#63b8ff" d="M413.08,-220.26C463.14,-189.56 564.01,-117.2 520,-55.25 503.85,-32.52 475.22,-21.27 449.13,-15.74"/>
<polygon fill="#63b8ff" stroke="#63b8ff" points="411.31,-217.24 404.53,-225.38 414.91,-223.24 411.31,-217.24"/>
</a>
</g>
</g>
<!-- Node8 -->
<g id="Node000008" class="node">
<title>Node8</title>
<g id="a_Node000008"><a xlink:href="../../db/d83/_scoped_sequence_8hpp.html" target="_top" xlink:title=" ">
<polygon fill="white" stroke="#666666" points="463.88,-129.75 312.12,-129.75 312.12,-110.5 463.88,-110.5 463.88,-129.75"/>
<text text-anchor="middle" x="388" y="-116.25" font-family="Helvetica,sans-Serif" font-size="10.00">mimic++/ScopedSequence.hpp</text>
</a>
</g>
</g>
<!-- Node2&#45;&gt;Node8 -->
<g id="edge13_Node000002_Node000008" class="edge">
<title>Node2&#45;&gt;Node8</title>
<g id="a_edge13_Node000002_Node000008"><a xlink:title=" ">
<path fill="none" stroke="#63b8ff" d="M387.18,-214.87C387.4,-189.75 387.76,-148.17 387.92,-130.04"/>
<polygon fill="#63b8ff" stroke="#63b8ff" points="383.68,-214.75 387.09,-224.78 390.68,-214.81 383.68,-214.75"/>
</a>
</g>
</g>
<!-- Node3&#45;&gt;Node4 -->
<g id="edge3_Node000003_Node000004" class="edge">
<title>Node3&#45;&gt;Node4</title>
<g id="a_edge3_Node000003_Node000004"><a xlink:title=" ">
<path fill="none" stroke="#63b8ff" d="M218.8,-156.44C225.12,-147.59 232.46,-137.29 237.59,-130.11"/>
<polygon fill="#63b8ff" stroke="#63b8ff" points="216.11,-154.18 213.15,-164.35 221.81,-158.24 216.11,-154.18"/>
</a>
</g>
</g>
<!-- Node3&#45;&gt;Node6 -->
<g id="edge11_Node000003_Node000006" class="edge">
<title>Node3&#45;&gt;Node6</title>
<g id="a_edge11_Node000003_Node000006"><a xlink:title=" ">
<path fill="none" stroke="#63b8ff" d="M188.79,-157.27C165.95,-132.5 131.34,-86.24 157,-55.25 179.15,-28.5 272.66,-17.66 334.84,-13.35"/>
<polygon fill="#63b8ff" stroke="#63b8ff" points="186.04,-159.46 195.49,-164.26 191.09,-154.62 186.04,-159.46"/>
</a>
</g>
</g>
<!-- Node3&#45;&gt;Node8 -->
<g id="edge9_Node000003_Node000008" class="edge">
<title>Node3&#45;&gt;Node8</title>
<g id="a_edge9_Node000003_Node000008"><a xlink:title=" ">
<path fill="none" stroke="#63b8ff" d="M247.64,-162.19C280.93,-152.45 326.85,-139.02 356.97,-130.2"/>
<polygon fill="#63b8ff" stroke="#63b8ff" points="246.94,-158.75 238.33,-164.92 248.91,-165.47 246.94,-158.75"/>
</a>
</g>
</g>
<!-- Node5 -->
<g id="Node000005" class="node">
<title>Node5</title>
<g id="a_Node000005"><a xlink:href="../../d9/dc3/_interface_mock_8hpp.html" target="_top" xlink:title=" ">
<polygon fill="white" stroke="#666666" points="303.75,-74.5 166.25,-74.5 166.25,-55.25 303.75,-55.25 303.75,-74.5"/>
<text text-anchor="middle" x="235" y="-61" font-family="Helvetica,sans-Serif" font-size="10.00">mimic++/InterfaceMock.hpp</text>
</a>
</g>
</g>
<!-- Node4&#45;&gt;Node5 -->
<g id="edge4_Node000004_Node000005" class="edge">
<title>Node4&#45;&gt;Node5</title>
<g id="a_edge4_Node000004_Node000005"><a xlink:title=" ">
<path fill="none" stroke="#63b8ff" d="M240.63,-99.17C239.21,-90.8 237.64,-81.5 236.52,-74.86"/>
<polygon fill="#63b8ff" stroke="#63b8ff" points="237.14,-99.56 242.26,-108.84 244.05,-98.4 237.14,-99.56"/>
</a>
</g>
</g>
<!-- Node4&#45;&gt;Node6 -->
<g id="edge8_Node000004_Node000006" class="edge">
<title>Node4&#45;&gt;Node6</title>
<g id="a_edge8_Node000004_Node000006"><a xlink:title=" ">
<path fill="none" stroke="#63b8ff" d="M304.92,-109.11C370.33,-98.06 465.66,-80.99 471,-74.5 489.99,-51.41 449.2,-30.9 419.47,-19.67"/>
<polygon fill="#63b8ff" stroke="#63b8ff" points="304.67,-105.6 295.39,-110.71 305.83,-112.5 304.67,-105.6"/>
</a>
</g>
</g>
<!-- Node7 -->
<g id="Node000007" class="node">
<title>Node7</title>
<g id="a_Node000007"><a xlink:href="../../d5/d92/_object_watcher_8hpp.html" target="_top" xlink:title=" ">
<polygon fill="white" stroke="#666666" points="461.88,-74.5 322.12,-74.5 322.12,-55.25 461.88,-55.25 461.88,-74.5"/>
<text text-anchor="middle" x="392" y="-61" font-family="Helvetica,sans-Serif" font-size="10.00">mimic++/ObjectWatcher.hpp</text>
</a>
</g>
</g>
<!-- Node4&#45;&gt;Node7 -->
<g id="edge6_Node000004_Node000007" class="edge">
<title>Node4&#45;&gt;Node7</title>
<g id="a_edge6_Node000004_Node000007"><a xlink:title=" ">
<path fill="none" stroke="#63b8ff" d="M279.64,-106.3C306.55,-96.62 342.81,-83.57 366.77,-74.95"/>
<polygon fill="#63b8ff" stroke="#63b8ff" points="278.75,-102.9 270.53,-109.58 281.12,-109.49 278.75,-102.9"/>
</a>
</g>
</g>
<!-- Node5&#45;&gt;Node6 -->
<g id="edge5_Node000005_Node000006" class="edge">
<title>Node5&#45;&gt;Node6</title>
<g id="a_edge5_Node000005_Node000006"><a xlink:title=" ">
<path fill="none" stroke="#63b8ff" d="M272.43,-51.18C301.01,-41.49 339.7,-28.36 365.24,-19.7"/>
<polygon fill="#63b8ff" stroke="#63b8ff" points="271.41,-47.83 263.07,-54.36 273.66,-54.46 271.41,-47.83"/>
</a>
</g>
</g>
<!-- Node7&#45;&gt;Node6 -->
<g id="edge7_Node000007_Node000006" class="edge">
<title>Node7&#45;&gt;Node6</title>
<g id="a_edge7_Node000007_Node000006"><a xlink:title=" ">
<path fill="none" stroke="#63b8ff" d="M392,-43.63C392,-35.34 392,-26.17 392,-19.61"/>
<polygon fill="#63b8ff" stroke="#63b8ff" points="388.5,-43.57 392,-53.57 395.5,-43.57 388.5,-43.57"/>
</a>
</g>
</g>
<!-- Node8&#45;&gt;Node6 -->
<g id="edge10_Node000008_Node000006" class="edge">
<title>Node8&#45;&gt;Node6</title>
<g id="a_edge10_Node000008_Node000006"><a xlink:title=" ">
<path fill="none" stroke="#63b8ff" d="M459.8,-106.39C477.07,-99.78 493.53,-89.75 504,-74.5 523.32,-46.36 479.88,-29.08 441.59,-19.71"/>
<polygon fill="#63b8ff" stroke="#63b8ff" points="458.76,-103.05 450.42,-109.59 461.02,-109.68 458.76,-103.05"/>
</a>
</g>
</g>
<!-- Node9&#45;&gt;Node6 -->
<g id="edge16_Node000009_Node000006" class="edge">
<title>Node9&#45;&gt;Node6</title>
<g id="a_edge16_Node000009_Node000006"><a xlink:title=" ">
<path fill="none" stroke="#63b8ff" d="M604,-275.74C604,-251.91 604,-211.28 604,-176.38 604,-176.38 604,-176.38 604,-119.12 604,-49.35 511.88,-24.42 449.09,-15.53"/>
<polygon fill="#63b8ff" stroke="#63b8ff" points="600.5,-275.6 604,-285.6 607.5,-275.6 600.5,-275.6"/>
</a>
</g>
</g>
<!-- Node10&#45;&gt;Node3 -->
<g id="edge18_Node000010_Node000003" class="edge">
<title>Node10&#45;&gt;Node3</title>
<g id="a_edge18_Node000010_Node000003"><a xlink:title=" ">
<path fill="none" stroke="#63b8ff" d="M108.47,-216.25C133.77,-205.91 163.91,-193.58 183.92,-185.4"/>
<polygon fill="#63b8ff" stroke="#63b8ff" points="107.3,-212.95 99.37,-219.97 109.95,-219.43 107.3,-212.95"/>
</a>
</g>
</g>
<!-- Node10&#45;&gt;Node6 -->
<g id="edge19_Node000010_Node000006" class="edge">
<title>Node10&#45;&gt;Node6</title>
<g id="a_edge19_Node000010_Node000006"><a xlink:title=" ">
<path fill="none" stroke="#63b8ff" d="M56.82,-209.49C50.59,-170.37 45.53,-96.22 86,-55.25 119.77,-21.07 255.92,-12.87 334.77,-11.03"/>
<polygon fill="#63b8ff" stroke="#63b8ff" points="53.34,-209.92 58.52,-219.16 60.23,-208.7 53.34,-209.92"/>
</a>
</g>
</g>
<!-- Node11&#45;&gt;Node9 -->
<g id="edge21_Node000011_Node000009" class="edge">
<title>Node11&#45;&gt;Node9</title>
<g id="a_edge21_Node000011_Node000009"><a xlink:title=" ">
<path fill="none" stroke="#63b8ff" d="M628.36,-403.43C621.96,-375.76 610.69,-327.04 606.07,-307.06"/>
<polygon fill="#63b8ff" stroke="#63b8ff" points="624.91,-404.05 630.57,-413.01 631.73,-402.48 624.91,-404.05"/>
</a>
</g>
</g>
<!-- Node12&#45;&gt;Node9 -->
<g id="edge23_Node000012_Node000009" class="edge">
<title>Node12&#45;&gt;Node9</title>
<g id="a_edge23_Node000012_Node000009"><a xlink:title=" ">
<path fill="none" stroke="#63b8ff" d="M442,-400.45C456.67,-382.85 478.7,-358.95 502,-342.75 524.85,-326.86 554.27,-314.73 575.64,-307.15"/>
<polygon fill="#63b8ff" stroke="#63b8ff" points="439.59,-397.86 435.99,-407.82 445.02,-402.28 439.59,-397.86"/>
</a>
</g>
</g>
<!-- Node12&#45;&gt;Node13 -->
<g id="edge24_Node000012_Node000013" class="edge">
<title>Node12&#45;&gt;Node13</title>
<g id="a_edge24_Node000012_Node000013"><a xlink:title=" ">
<path fill="none" stroke="#63b8ff" d="M409.93,-398.98C405.02,-390.41 399.66,-381.07 395.36,-373.58"/>
<polygon fill="#63b8ff" stroke="#63b8ff" points="406.84,-400.62 414.85,-407.55 412.91,-397.14 406.84,-400.62"/>
</a>
</g>
</g>
<!-- Node13&#45;&gt;Node2 -->
<g id="edge25_Node000013_Node000002" class="edge">
<title>Node13&#45;&gt;Node2</title>
<g id="a_edge25_Node000013_Node000002"><a xlink:title=" ">
<path fill="none" stroke="#63b8ff" d="M387,-331.1C387,-304.34 387,-264.03 387,-246.24"/>
<polygon fill="#63b8ff" stroke="#63b8ff" points="383.5,-330.8 387,-340.8 390.5,-330.8 383.5,-330.8"/>
</a>
</g>
</g>
<!-- Node13&#45;&gt;Node9 -->
<g id="edge26_Node000013_Node000009" class="edge">
<title>Node13&#45;&gt;Node9</title>
<g id="a_edge26_Node000013_Node000009"><a xlink:title=" ">
<path fill="none" stroke="#63b8ff" d="M452.18,-339.31C491.12,-328.75 538.96,-315.77 570.4,-307.24"/>
<polygon fill="#63b8ff" stroke="#63b8ff" points="451.39,-335.9 442.66,-341.9 453.23,-342.66 451.39,-335.9"/>
</a>
</g>
</g>
<!-- Node14 -->
<g id="Node000014" class="node">
<title>Node14</title>
<g id="a_Node000014"><a xlink:href="../../d8/de4/_sequence_8hpp.html" target="_top" xlink:title=" ">
<polygon fill="white" stroke="#666666" points="265.38,-306.75 146.62,-306.75 146.62,-287.5 265.38,-287.5 265.38,-306.75"/>
<text text-anchor="middle" x="206" y="-293.25" font-family="Helvetica,sans-Serif" font-size="10.00">mimic++/Sequence.hpp</text>
</a>
</g>
</g>
<!-- Node13&#45;&gt;Node14 -->
<g id="edge27_Node000013_Node000014" class="edge">
<title>Node13&#45;&gt;Node14</title>
<g id="a_edge27_Node000013_Node000014"><a xlink:title=" ">
<path fill="none" stroke="#63b8ff" d="M331.17,-338.84C298.96,-328.36 259.86,-315.64 234.02,-307.24"/>
<polygon fill="#63b8ff" stroke="#63b8ff" points="329.76,-342.06 340.35,-341.83 331.93,-335.41 329.76,-342.06"/>
</a>
</g>
</g>
<!-- Node14&#45;&gt;Node2 -->
<g id="edge28_Node000014_Node000002" class="edge">
<title>Node14&#45;&gt;Node2</title>
<g id="a_edge28_Node000014_Node000002"><a xlink:title=" ">
<path fill="none" stroke="#63b8ff" d="M244.47,-283.61C278.84,-272.43 328.38,-256.32 359.08,-246.33"/>
<polygon fill="#63b8ff" stroke="#63b8ff" points="243.75,-280.16 235.32,-286.59 245.92,-286.82 243.75,-280.16"/>
</a>
</g>
</g>
<!-- Node14&#45;&gt;Node3 -->
<g id="edge29_Node000014_Node000003" class="edge">
<title>Node14&#45;&gt;Node3</title>
<g id="a_edge29_Node000014_Node000003"><a xlink:title=" ">
<path fill="none" stroke="#63b8ff" d="M206,-275.88C206,-249.55 206,-204.65 206,-185.48"/>
<polygon fill="#63b8ff" stroke="#63b8ff" points="202.5,-275.61 206,-285.61 209.5,-275.61 202.5,-275.61"/>
</a>
</g>
</g>
<!-- Node14&#45;&gt;Node6 -->
<g id="edge31_Node000014_Node000006" class="edge">
<title>Node14&#45;&gt;Node6</title>
<g id="a_edge31_Node000014_Node000006"><a xlink:title=" ">
<path fill="none" stroke="#63b8ff" d="M186.98,-279.55C165.69,-259.61 132.42,-223.91 119,-185 104.55,-143.1 96.4,-101.37 145,-55.25 171.67,-29.94 270.51,-18.61 334.78,-13.82"/>
<polygon fill="#63b8ff" stroke="#63b8ff" points="184.41,-281.94 194.16,-286.08 189.12,-276.76 184.41,-281.94"/>
</a>
</g>
</g>
<!-- Node14&#45;&gt;Node8 -->
<g id="edge30_Node000014_Node000008" class="edge">
<title>Node14&#45;&gt;Node8</title>
<g id="a_edge30_Node000014_Node000008"><a xlink:title=" ">
<path fill="none" stroke="#63b8ff" d="M223.3,-279.49C260.98,-243.26 349.42,-158.23 378.52,-130.24"/>
<polygon fill="#63b8ff" stroke="#63b8ff" points="221.15,-276.7 216.37,-286.16 226,-281.75 221.15,-276.7"/>
</a>
</g>
</g>
<!-- Node14&#45;&gt;Node10 -->
<g id="edge32_Node000014_Node000010" class="edge">
<title>Node14&#45;&gt;Node10</title>
<g id="a_edge32_Node000014_Node000010"><a xlink:title=" ">
<path fill="none" stroke="#63b8ff" d="M173.44,-282.81C150.98,-273.63 121.1,-261.42 97.94,-251.94"/>
<polygon fill="#63b8ff" stroke="#63b8ff" points="171.83,-285.94 182.41,-286.48 174.48,-279.46 171.83,-285.94"/>
</a>
</g>
</g>
<!-- Node15&#45;&gt;Node9 -->
<g id="edge35_Node000015_Node000009" class="edge">
<title>Node15&#45;&gt;Node9</title>
<g id="a_edge35_Node000015_Node000009"><a xlink:title=" ">
<path fill="none" stroke="#63b8ff" d="M593.63,-538.25C641.58,-521.34 702.3,-490.88 731,-439.75 763.33,-382.15 667.63,-328.11 624.21,-307.22"/>
<polygon fill="#63b8ff" stroke="#63b8ff" points="592.77,-534.85 584.43,-541.38 595.02,-541.48 592.77,-534.85"/>
</a>
</g>
</g>
<!-- Node15&#45;&gt;Node11 -->
<g id="edge36_Node000015_Node000011" class="edge">
<title>Node15&#45;&gt;Node11</title>
<g id="a_edge36_Node000015_Node000011"><a xlink:title=" ">
<path fill="none" stroke="#63b8ff" d="M565.18,-535.98C577.58,-528.01 590.51,-517.96 600,-506.25 618.12,-483.9 627.52,-450.24 631.16,-434.38"/>
<polygon fill="#63b8ff" stroke="#63b8ff" points="563.44,-532.94 556.72,-541.13 567.08,-538.92 563.44,-532.94"/>
</a>
</g>
</g>
<!-- Node15&#45;&gt;Node12 -->
<g id="edge37_Node000015_Node000012" class="edge">
<title>Node15&#45;&gt;Node12</title>
<g id="a_edge37_Node000015_Node000012"><a xlink:title=" ">
<path fill="none" stroke="#63b8ff" d="M483.34,-535.96C470.79,-528.16 458.03,-518.21 449,-506.25 433.97,-486.33 427.88,-457.26 425.48,-439.97"/>
<polygon fill="#63b8ff" stroke="#63b8ff" points="481.57,-538.98 491.97,-541 485.09,-532.94 481.57,-538.98"/>
</a>
</g>
</g>
<!-- Node15&#45;&gt;Node16 -->
<g id="edge38_Node000015_Node000016" class="edge">
<title>Node15&#45;&gt;Node16</title>
<g id="a_edge38_Node000015_Node000016"><a xlink:title=" ">
<path fill="none" stroke="#63b8ff" d="M525.2,-530.56C524.94,-522.39 524.67,-513.66 524.45,-506.58"/>
<polygon fill="#63b8ff" stroke="#63b8ff" points="521.69,-530.46 525.5,-540.35 528.69,-530.25 521.69,-530.46"/>
</a>
</g>
</g>
<!-- Node16&#45;&gt;Node9 -->
<g id="edge39_Node000016_Node000009" class="edge">
<title>Node16&#45;&gt;Node9</title>
<g id="a_edge39_Node000016_Node000009"><a xlink:title=" ">
<path fill="none" stroke="#63b8ff" d="M524.78,-463.99C525.94,-447.83 528.66,-426.86 535,-409.25 549.92,-367.8 581.85,-325.35 596.44,-307.23"/>
<polygon fill="#63b8ff" stroke="#63b8ff" points="521.3,-463.58 524.25,-473.76 528.29,-463.96 521.3,-463.58"/>
</a>
</g>
</g>
<!-- Node16&#45;&gt;Node11 -->
<g id="edge40_Node000016_Node000011" class="edge">
<title>Node16&#45;&gt;Node11</title>
<g id="a_edge40_Node000016_Node000011"><a xlink:title=" ">
<path fill="none" stroke="#63b8ff" d="M558.42,-469.63C578.36,-457.83 602.47,-443.56 617.77,-434.51"/>
<polygon fill="#63b8ff" stroke="#63b8ff" points="556.86,-466.49 550.04,-474.59 560.42,-472.51 556.86,-466.49"/>
</a>
</g>
</g>
<!-- Node16&#45;&gt;Node12 -->
<g id="edge41_Node000016_Node000012" class="edge">
<title>Node16&#45;&gt;Node12</title>
<g id="a_edge41_Node000016_Node000012"><a xlink:title=" ">
<path fill="none" stroke="#63b8ff" d="M492.01,-469.36C477.22,-459.83 460.01,-448.73 446.6,-440.08"/>
<polygon fill="#63b8ff" stroke="#63b8ff" points="489.74,-472.06 500.04,-474.54 493.53,-466.18 489.74,-472.06"/>
</a>
</g>
</g>
</g>
</svg>

<g id="navigator" transform="translate(0 0)" fill="#404254">
  <rect fill="#f2f5e9" fill-opacity="0.5" stroke="#606060" stroke-width=".5" x="0" y="0" width="60" height="60"/>
  <use id="zoomplus" xlink:href="#zoomPlus" x="17" y="9" onmousedown="handleZoom(evt,'in')"/>
  <use id="zoomminus" xlink:href="#zoomMin" x="42" y="9" onmousedown="handleZoom(evt,'out')"/>
  <use id="reset" xlink:href="#resetDef" x="30" y="36" onmousedown="handleReset()"/>
   <use id="arrowup" xlink:href="#arrowUp" x="0" y="0" onmousedown="handlePan(0,-1)"/>
  <use id="arrowright" xlink:href="#arrowRight" x="0" y="0" onmousedown="handlePan(1,0)"/>
  <use id="arrowdown" xlink:href="#arrowDown" x="0" y="0" onmousedown="handlePan(0,1)"/>
  <use id="arrowleft" xlink:href="#arrowLeft" x="0" y="0" onmousedown="handlePan(-1,0)"/>
</g>
<svg viewBox="0 0 15 15" width="100%" height="30px" preserveAspectRatio="xMaxYMin meet">
 <g id="arrow_out" transform="scale(0.3 0.3)">
  <a xlink:href="_expectation_report_8hpp__dep__incl_org.svg" target="_base">
   <rect id="button" ry="5" rx="5" y="6" x="6" height="38" width="38"
        fill="#f2f5e9" fill-opacity="0.5" stroke="#606060" stroke-width="1.0"/>
   <path id="arrow"
     d="M 11.500037,31.436501 C 11.940474,20.09759 22.043105,11.32322 32.158766,21.979434 L 37.068811,17.246167 C 37.068811,17.246167 37.088388,32 37.088388,32 L 22.160133,31.978069 C 22.160133,31.978069 26.997745,27.140456 26.997745,27.140456 C 18.528582,18.264221 13.291696,25.230495 11.500037,31.436501 z"
     style="fill:#404040;"/>
  </a>
 </g>
</svg>

<style type='text/css'>
<![CDATA[
[data-mouse-over-selected='false'] { opacity: 0.7; }
[data-mouse-over-selected='true']  { opacity: 1.0; }
]]>
</style>
<script type="application/ecmascript"><![CDATA[
document.addEventListener('DOMContentLoaded', (event) => {
  highlightEdges();
  highlightAdjacentNodes();
});
]]></script>
</svg>
