<?xml version="1.0" encoding="UTF-8" standalone="no"?>
<!DOCTYPE svg PUBLIC "-//W3C//DTD SVG 1.1//EN"
 "http://www.w3.org/Graphics/SVG/1.1/DTD/svg11.dtd">
<!-- Generated by graphviz version 12.2.1 (20241206.2353)
 -->
<!-- Title: mimic++/reporting/ExpectationReport.hpp Pages: 1 -->
<svg width="979pt" height="736pt"
 viewBox="0.00 0.00 979.00 736.25" xmlns="http://www.w3.org/2000/svg" xmlns:xlink="http://www.w3.org/1999/xlink">
<g id="graph0" class="graph" transform="scale(1 1) rotate(0) translate(4 732.25)">
<title>mimic++/reporting/ExpectationReport.hpp</title>
<!-- Node1 -->
<g id="Node000001" class="node">
<title>Node1</title>
<g id="a_Node000001"><a xlink:title=" ">
<polygon fill="#999999" stroke="#666666" points="665,-728.25 517,-728.25 517,-697.75 665,-697.75 665,-728.25"/>
<text text-anchor="start" x="525" y="-714.75" font-family="Helvetica,sans-Serif" font-size="10.00">mimic++/reporting/Expectation</text>
<text text-anchor="middle" x="591" y="-703.5" font-family="Helvetica,sans-Serif" font-size="10.00">Report.hpp</text>
</a>
</g>
</g>
<!-- Node2 -->
<g id="Node000002" class="node">
<title>Node2</title>
<g id="a_Node000002"><a xlink:href="../../d7/deb/_reporting_8hpp.html" target="_top" xlink:title=" ">
<polygon fill="white" stroke="#666666" points="762.25,-390.12 645.75,-390.12 645.75,-370.88 762.25,-370.88 762.25,-390.12"/>
<text text-anchor="middle" x="704" y="-376.62" font-family="Helvetica,sans-Serif" font-size="10.00">mimic++/Reporting.hpp</text>
</a>
</g>
</g>
<!-- Node1&#45;&gt;Node2 -->
<g id="edge1_Node000001_Node000002" class="edge">
<title>Node1&#45;&gt;Node2</title>
<g id="a_edge1_Node000001_Node000002"><a xlink:title=" ">
<path fill="none" stroke="#63b8ff" d="M676.46,-700.04C788.51,-681.92 971,-642.9 971,-581 971,-581 971,-581 971,-512.5 971,-420.34 841.19,-393.01 762.59,-384.91"/>
<polygon fill="#63b8ff" stroke="#63b8ff" points="675.99,-696.57 666.66,-701.6 677.09,-703.49 675.99,-696.57"/>
</a>
</g>
</g>
<!-- Node4 -->
<g id="Node000004" class="node">
<title>Node4</title>
<g id="a_Node000004"><a xlink:href="../../db/d33/expectation_2_common_8hpp.html" target="_top" xlink:title=" ">
<polygon fill="white" stroke="#666666" points="373.38,-462.25 266.62,-462.25 266.62,-431.75 373.38,-431.75 373.38,-462.25"/>
<text text-anchor="start" x="274.62" y="-448.75" font-family="Helvetica,sans-Serif" font-size="10.00">mimic++/expectation</text>
<text text-anchor="middle" x="320" y="-437.5" font-family="Helvetica,sans-Serif" font-size="10.00">/Common.hpp</text>
</a>
</g>
</g>
<!-- Node1&#45;&gt;Node4 -->
<g id="edge3_Node000001_Node000004" class="edge">
<title>Node1&#45;&gt;Node4</title>
<g id="a_edge3_Node000001_Node000004"><a xlink:title=" ">
<path fill="none" stroke="#63b8ff" d="M521.76,-693.5C501.44,-685.88 480.11,-675.52 463,-661.75 391.35,-604.09 342.41,-500.82 326.03,-462.68"/>
<polygon fill="#63b8ff" stroke="#63b8ff" points="520.56,-696.79 531.16,-696.84 522.91,-690.2 520.56,-696.79"/>
</a>
</g>
</g>
<!-- Node10 -->
<g id="Node000010" class="node">
<title>Node10</title>
<g id="a_Node000010"><a xlink:href="../../d5/d8a/_expectation_8hpp.html" target="_top" xlink:title=" ">
<polygon fill="white" stroke="#666666" points="292.38,-395.75 185.62,-395.75 185.62,-365.25 292.38,-365.25 292.38,-395.75"/>
<text text-anchor="start" x="193.62" y="-382.25" font-family="Helvetica,sans-Serif" font-size="10.00">mimic++/expectation</text>
<text text-anchor="middle" x="239" y="-371" font-family="Helvetica,sans-Serif" font-size="10.00">/Expectation.hpp</text>
</a>
</g>
</g>
<!-- Node1&#45;&gt;Node10 -->
<g id="edge28_Node000001_Node000010" class="edge">
<title>Node1&#45;&gt;Node10</title>
<g id="a_edge28_Node000001_Node000010"><a xlink:title=" ">
<path fill="none" stroke="#63b8ff" d="M505.63,-697.72C401.45,-677.82 239,-637.7 239,-581 239,-581 239,-581 239,-512.5 239,-470.2 239,-420.21 239,-396.04"/>
<polygon fill="#63b8ff" stroke="#63b8ff" points="504.82,-701.13 515.29,-699.53 506.11,-694.25 504.82,-701.13"/>
</a>
</g>
</g>
<!-- Node14 -->
<g id="Node000014" class="node">
<title>Node14</title>
<g id="a_Node000014"><a xlink:href="../../db/d70/_control_policies_8hpp.html" target="_top" xlink:title=" ">
<polygon fill="white" stroke="#666666" points="598,-262.75 474,-262.75 474,-232.25 598,-232.25 598,-262.75"/>
<text text-anchor="start" x="482" y="-249.25" font-family="Helvetica,sans-Serif" font-size="10.00">mimic++/policies/Control</text>
<text text-anchor="middle" x="536" y="-238" font-family="Helvetica,sans-Serif" font-size="10.00">Policies.hpp</text>
</a>
</g>
</g>
<!-- Node1&#45;&gt;Node14 -->
<g id="edge29_Node000001_Node000014" class="edge">
<title>Node1&#45;&gt;Node14</title>
<g id="a_edge29_Node000001_Node000014"><a xlink:title=" ">
<path fill="none" stroke="#63b8ff" d="M555.33,-691.17C521.89,-668.66 477,-629.43 477,-581 477,-581 477,-581 477,-512.5 477,-415.28 515.58,-302.68 530.34,-263.13"/>
<polygon fill="#63b8ff" stroke="#63b8ff" points="553.28,-694.01 563.58,-696.52 557.09,-688.14 553.28,-694.01"/>
</a>
</g>
</g>
<!-- Node15 -->
<g id="Node000015" class="node">
<title>Node15</title>
<g id="a_Node000015"><a xlink:href="../../d1/dfd/_basic_reporter_8hpp.html" target="_top" xlink:title=" ">
<polygon fill="white" stroke="#666666" points="942.62,-523.12 765.38,-523.12 765.38,-503.88 942.62,-503.88 942.62,-523.12"/>
<text text-anchor="middle" x="854" y="-509.62" font-family="Helvetica,sans-Serif" font-size="10.00">mimic++/reporting/BasicReporter.hpp</text>
</a>
</g>
</g>
<!-- Node1&#45;&gt;Node15 -->
<g id="edge32_Node000001_Node000015" class="edge">
<title>Node1&#45;&gt;Node15</title>
<g id="a_edge32_Node000001_Node000015"><a xlink:title=" ">
<path fill="none" stroke="#63b8ff" d="M676.29,-701.43C711.37,-694.2 751.15,-682.07 783,-661.75 815.33,-641.12 821.55,-629.9 838,-595.25 849.52,-570.98 852.75,-538.81 853.65,-523.43"/>
<polygon fill="#63b8ff" stroke="#63b8ff" points="675.71,-697.98 666.57,-703.32 677.05,-704.85 675.71,-697.98"/>
</a>
</g>
</g>
<!-- Node16 -->
<g id="Node000016" class="node">
<title>Node16</title>
<g id="a_Node000016"><a xlink:href="../../d0/d70/_default_reporter_8hpp.html" target="_top" xlink:title=" ">
<polygon fill="white" stroke="#666666" points="709.25,-528.75 580.75,-528.75 580.75,-498.25 709.25,-498.25 709.25,-528.75"/>
<text text-anchor="start" x="588.75" y="-515.25" font-family="Helvetica,sans-Serif" font-size="10.00">mimic++/reporting/Default</text>
<text text-anchor="middle" x="645" y="-504" font-family="Helvetica,sans-Serif" font-size="10.00">Reporter.hpp</text>
</a>
</g>
</g>
<!-- Node1&#45;&gt;Node16 -->
<g id="edge34_Node000001_Node000016" class="edge">
<title>Node1&#45;&gt;Node16</title>
<g id="a_edge34_Node000001_Node000016"><a xlink:title=" ">
<path fill="none" stroke="#63b8ff" d="M596.64,-686.26C600.23,-670.35 605.11,-649.54 610,-631.25 619.89,-594.25 633.29,-551.21 640.29,-529.16"/>
<polygon fill="#63b8ff" stroke="#63b8ff" points="593.26,-685.35 594.5,-695.87 600.09,-686.87 593.26,-685.35"/>
</a>
</g>
</g>
<!-- Node17 -->
<g id="Node000017" class="node">
<title>Node17</title>
<g id="a_Node000017"><a xlink:href="../../de/dd1/_global_reporter_8hpp.html" target="_top" xlink:title=" ">
<polygon fill="white" stroke="#666666" points="630.75,-462.25 505.25,-462.25 505.25,-431.75 630.75,-431.75 630.75,-462.25"/>
<text text-anchor="start" x="513.25" y="-448.75" font-family="Helvetica,sans-Serif" font-size="10.00">mimic++/reporting/Global</text>
<text text-anchor="middle" x="568" y="-437.5" font-family="Helvetica,sans-Serif" font-size="10.00">Reporter.hpp</text>
</a>
</g>
</g>
<!-- Node1&#45;&gt;Node17 -->
<g id="edge44_Node000001_Node000017" class="edge">
<title>Node1&#45;&gt;Node17</title>
<g id="a_edge44_Node000001_Node000017"><a xlink:title=" ">
<path fill="none" stroke="#63b8ff" d="M583.85,-686.2C573.55,-646.15 556.27,-566.52 561,-498.25 561.84,-486.12 563.81,-472.47 565.45,-462.46"/>
<polygon fill="#63b8ff" stroke="#63b8ff" points="580.46,-687.07 586.4,-695.84 587.23,-685.28 580.46,-687.07"/>
</a>
</g>
</g>
<!-- Node19 -->
<g id="Node000019" class="node">
<title>Node19</title>
<g id="a_Node000019"><a xlink:href="../../de/d3f/_no_match_report_8hpp.html" target="_top" xlink:title=" ">
<polygon fill="white" stroke="#666666" points="756.75,-661.75 619.25,-661.75 619.25,-631.25 756.75,-631.25 756.75,-661.75"/>
<text text-anchor="start" x="627.25" y="-648.25" font-family="Helvetica,sans-Serif" font-size="10.00">mimic++/reporting/NoMatch</text>
<text text-anchor="middle" x="688" y="-637" font-family="Helvetica,sans-Serif" font-size="10.00">Report.hpp</text>
</a>
</g>
</g>
<!-- Node1&#45;&gt;Node19 -->
<g id="edge45_Node000001_Node000019" class="edge">
<title>Node1&#45;&gt;Node19</title>
<g id="a_edge45_Node000001_Node000019"><a xlink:title=" ">
<path fill="none" stroke="#63b8ff" d="M622.44,-691.09C636.69,-681.62 653.19,-670.64 666.08,-662.08"/>
<polygon fill="#63b8ff" stroke="#63b8ff" points="620.66,-688.07 614.27,-696.53 624.54,-693.9 620.66,-688.07"/>
</a>
</g>
</g>
<!-- Node20 -->
<g id="Node000020" class="node">
<title>Node20</title>
<g id="a_Node000020"><a xlink:href="../../d9/d70/_stringify_reports_8hpp.html" target="_top" xlink:title=" ">
<polygon fill="white" stroke="#666666" points="803.5,-595.25 670.5,-595.25 670.5,-564.75 803.5,-564.75 803.5,-595.25"/>
<text text-anchor="start" x="678.5" y="-581.75" font-family="Helvetica,sans-Serif" font-size="10.00">mimic++/reporting/Stringify</text>
<text text-anchor="middle" x="737" y="-570.5" font-family="Helvetica,sans-Serif" font-size="10.00">Reports.hpp</text>
</a>
</g>
</g>
<!-- Node1&#45;&gt;Node20 -->
<g id="edge53_Node000001_Node000020" class="edge">
<title>Node1&#45;&gt;Node20</title>
<g id="a_edge53_Node000001_Node000020"><a xlink:title=" ">
<path fill="none" stroke="#63b8ff" d="M675.96,-697.58C714.69,-689.11 754.48,-677.04 766,-661.75 781.15,-641.64 763.66,-612.89 750.02,-595.67"/>
<polygon fill="#63b8ff" stroke="#63b8ff" points="675.63,-694.08 666.57,-699.57 677.08,-700.92 675.63,-694.08"/>
</a>
</g>
</g>
<!-- Node3 -->
<g id="Node000003" class="node">
<title>Node3</title>
<g id="a_Node000003"><a xlink:href="../../d0/db9/mimic_09_09_8hpp.html" target="_top" xlink:title=" ">
<polygon fill="white" stroke="#666666" points="284.75,-19.25 171.25,-19.25 171.25,0 284.75,0 284.75,-19.25"/>
<text text-anchor="middle" x="228" y="-5.75" font-family="Helvetica,sans-Serif" font-size="10.00">mimic++/mimic++.hpp</text>
</a>
</g>
</g>
<!-- Node2&#45;&gt;Node3 -->
<g id="edge2_Node000002_Node000003" class="edge">
<title>Node2&#45;&gt;Node3</title>
<g id="a_edge2_Node000002_Node000003"><a xlink:title=" ">
<path fill="none" stroke="#63b8ff" d="M704,-359.44C704,-333.73 704,-287.8 704,-248.5 704,-248.5 704,-248.5 704,-119.12 704,-34.05 411.29,-15.68 284.94,-11.72"/>
<polygon fill="#63b8ff" stroke="#63b8ff" points="700.5,-359.09 704,-369.09 707.5,-359.09 700.5,-359.09"/>
</a>
</g>
</g>
<!-- Node4&#45;&gt;Node3 -->
<g id="edge27_Node000004_Node000003" class="edge">
<title>Node4&#45;&gt;Node3</title>
<g id="a_edge27_Node000004_Node000003"><a xlink:title=" ">
<path fill="none" stroke="#63b8ff" d="M255.39,-433.22C161.91,-412.84 0,-369.66 0,-315 0,-315 0,-315 0,-119.12 0,-43.62 103.22,-20.6 170.76,-13.62"/>
<polygon fill="#63b8ff" stroke="#63b8ff" points="254.45,-436.59 264.96,-435.27 255.92,-429.75 254.45,-436.59"/>
</a>
</g>
</g>
<!-- Node5 -->
<g id="Node000005" class="node">
<title>Node5</title>
<g id="a_Node000005"><a xlink:href="../../d6/d15/_builder_8hpp.html" target="_top" xlink:title=" ">
<polygon fill="white" stroke="#666666" points="374.38,-196.25 267.62,-196.25 267.62,-165.75 374.38,-165.75 374.38,-196.25"/>
<text text-anchor="start" x="275.62" y="-182.75" font-family="Helvetica,sans-Serif" font-size="10.00">mimic++/expectation</text>
<text text-anchor="middle" x="321" y="-171.5" font-family="Helvetica,sans-Serif" font-size="10.00">/Builder.hpp</text>
</a>
</g>
</g>
<!-- Node4&#45;&gt;Node5 -->
<g id="edge4_Node000004_Node000005" class="edge">
<title>Node4&#45;&gt;Node5</title>
<g id="a_edge4_Node000004_Node000005"><a xlink:title=" ">
<path fill="none" stroke="#63b8ff" d="M320.1,-419.98C320.31,-365.16 320.78,-239.29 320.94,-196.52"/>
<polygon fill="#63b8ff" stroke="#63b8ff" points="316.6,-419.9 320.06,-429.92 323.6,-419.93 316.6,-419.9"/>
</a>
</g>
</g>
<!-- Node4&#45;&gt;Node10 -->
<g id="edge14_Node000004_Node000010" class="edge">
<title>Node4&#45;&gt;Node10</title>
<g id="a_edge14_Node000004_Node000010"><a xlink:title=" ">
<path fill="none" stroke="#63b8ff" d="M292.71,-424.27C281.05,-414.98 267.75,-404.4 257.31,-396.08"/>
<polygon fill="#63b8ff" stroke="#63b8ff" points="290.43,-426.93 300.44,-430.42 294.79,-421.45 290.43,-426.93"/>
</a>
</g>
</g>
<!-- Node5&#45;&gt;Node3 -->
<g id="edge13_Node000005_Node000003" class="edge">
<title>Node5&#45;&gt;Node3</title>
<g id="a_edge13_Node000005_Node000003"><a xlink:title=" ">
<path fill="none" stroke="#63b8ff" d="M319.47,-154.35C317.45,-140.13 312.95,-122.87 303,-110.5 280.82,-82.93 251.45,-104.05 232,-74.5 220.88,-57.61 223.55,-32.45 226.02,-19.32"/>
<polygon fill="#63b8ff" stroke="#63b8ff" points="315.95,-154.33 320.48,-163.91 322.91,-153.6 315.95,-154.33"/>
</a>
</g>
</g>
<!-- Node6 -->
<g id="Node000006" class="node">
<title>Node6</title>
<g id="a_Node000006"><a xlink:href="../../d5/dc5/_mock_8hpp.html" target="_top" xlink:title=" ">
<polygon fill="white" stroke="#666666" points="449.62,-129.75 350.38,-129.75 350.38,-110.5 449.62,-110.5 449.62,-129.75"/>
<text text-anchor="middle" x="400" y="-116.25" font-family="Helvetica,sans-Serif" font-size="10.00">mimic++/Mock.hpp</text>
</a>
</g>
</g>
<!-- Node5&#45;&gt;Node6 -->
<g id="edge5_Node000005_Node000006" class="edge">
<title>Node5&#45;&gt;Node6</title>
<g id="a_edge5_Node000005_Node000006"><a xlink:title=" ">
<path fill="none" stroke="#63b8ff" d="M349.69,-158.62C362.82,-148.83 377.68,-137.76 387.82,-130.2"/>
<polygon fill="#63b8ff" stroke="#63b8ff" points="347.67,-155.76 341.74,-164.54 351.85,-161.37 347.67,-155.76"/>
</a>
</g>
</g>
<!-- Node9 -->
<g id="Node000009" class="node">
<title>Node9</title>
<g id="a_Node000009"><a xlink:href="../../db/d83/_scoped_sequence_8hpp.html" target="_top" xlink:title=" ">
<polygon fill="white" stroke="#666666" points="293.88,-129.75 142.12,-129.75 142.12,-110.5 293.88,-110.5 293.88,-129.75"/>
<text text-anchor="middle" x="218" y="-116.25" font-family="Helvetica,sans-Serif" font-size="10.00">mimic++/ScopedSequence.hpp</text>
</a>
</g>
</g>
<!-- Node5&#45;&gt;Node9 -->
<g id="edge11_Node000005_Node000009" class="edge">
<title>Node5&#45;&gt;Node9</title>
<g id="a_edge11_Node000005_Node000009"><a xlink:title=" ">
<path fill="none" stroke="#63b8ff" d="M285.32,-159.6C267.75,-149.56 247.47,-137.97 233.8,-130.15"/>
<polygon fill="#63b8ff" stroke="#63b8ff" points="283.54,-162.62 293.96,-164.54 287.02,-156.54 283.54,-162.62"/>
</a>
</g>
</g>
<!-- Node6&#45;&gt;Node3 -->
<g id="edge10_Node000006_Node000003" class="edge">
<title>Node6&#45;&gt;Node3</title>
<g id="a_edge10_Node000006_Node000003"><a xlink:title=" ">
<path fill="none" stroke="#63b8ff" d="M339.41,-107.64C302.65,-99.52 260.33,-87.76 247,-74.5 231.91,-59.49 228.69,-33.06 228.08,-19.38"/>
<polygon fill="#63b8ff" stroke="#63b8ff" points="338.6,-111.04 349.12,-109.72 340.07,-104.2 338.6,-111.04"/>
</a>
</g>
</g>
<!-- Node7 -->
<g id="Node000007" class="node">
<title>Node7</title>
<g id="a_Node000007"><a xlink:href="../../d6/dc3/_facade_8hpp.html" target="_top" xlink:title=" ">
<polygon fill="white" stroke="#666666" points="363.75,-74.5 256.25,-74.5 256.25,-55.25 363.75,-55.25 363.75,-74.5"/>
<text text-anchor="middle" x="310" y="-61" font-family="Helvetica,sans-Serif" font-size="10.00">mimic++/Facade.hpp</text>
</a>
</g>
</g>
<!-- Node6&#45;&gt;Node7 -->
<g id="edge6_Node000006_Node000007" class="edge">
<title>Node6&#45;&gt;Node7</title>
<g id="a_edge6_Node000006_Node000007"><a xlink:title=" ">
<path fill="none" stroke="#63b8ff" d="M374.98,-104.32C359.06,-94.9 338.94,-83 325.34,-74.95"/>
<polygon fill="#63b8ff" stroke="#63b8ff" points="373.04,-107.24 383.43,-109.32 376.61,-101.22 373.04,-107.24"/>
</a>
</g>
</g>
<!-- Node8 -->
<g id="Node000008" class="node">
<title>Node8</title>
<g id="a_Node000008"><a xlink:href="../../d5/d92/_object_watcher_8hpp.html" target="_top" xlink:title=" ">
<polygon fill="white" stroke="#666666" points="521.88,-74.5 382.12,-74.5 382.12,-55.25 521.88,-55.25 521.88,-74.5"/>
<text text-anchor="middle" x="452" y="-61" font-family="Helvetica,sans-Serif" font-size="10.00">mimic++/ObjectWatcher.hpp</text>
</a>
</g>
</g>
<!-- Node6&#45;&gt;Node8 -->
<g id="edge8_Node000006_Node000008" class="edge">
<title>Node6&#45;&gt;Node8</title>
<g id="a_edge8_Node000006_Node000008"><a xlink:title=" ">
<path fill="none" stroke="#63b8ff" d="M416.41,-102.32C425.29,-93.23 435.91,-82.35 443.23,-74.86"/>
<polygon fill="#63b8ff" stroke="#63b8ff" points="414.13,-99.65 409.64,-109.25 419.13,-104.54 414.13,-99.65"/>
</a>
</g>
</g>
<!-- Node7&#45;&gt;Node3 -->
<g id="edge7_Node000007_Node000003" class="edge">
<title>Node7&#45;&gt;Node3</title>
<g id="a_edge7_Node000007_Node000003"><a xlink:title=" ">
<path fill="none" stroke="#63b8ff" d="M286.79,-48.8C272.35,-39.42 254.25,-27.67 241.98,-19.7"/>
<polygon fill="#63b8ff" stroke="#63b8ff" points="284.53,-51.51 294.82,-54.02 288.34,-45.64 284.53,-51.51"/>
</a>
</g>
</g>
<!-- Node8&#45;&gt;Node3 -->
<g id="edge9_Node000008_Node000003" class="edge">
<title>Node8&#45;&gt;Node3</title>
<g id="a_edge9_Node000008_Node000003"><a xlink:title=" ">
<path fill="none" stroke="#63b8ff" d="M402.62,-52.14C361.48,-42.36 303.73,-28.63 266.09,-19.68"/>
<polygon fill="#63b8ff" stroke="#63b8ff" points="401.74,-55.52 412.28,-54.43 403.36,-48.71 401.74,-55.52"/>
</a>
</g>
</g>
<!-- Node9&#45;&gt;Node3 -->
<g id="edge12_Node000009_Node000003" class="edge">
<title>Node9&#45;&gt;Node3</title>
<g id="a_edge12_Node000009_Node000003"><a xlink:title=" ">
<path fill="none" stroke="#63b8ff" d="M196.36,-103.14C182.32,-90.68 168.01,-72.63 176,-55.25 183.2,-39.58 198.93,-27.34 211.21,-19.68"/>
<polygon fill="#63b8ff" stroke="#63b8ff" points="193.75,-105.52 203.69,-109.16 198.19,-100.11 193.75,-105.52"/>
</a>
</g>
</g>
<!-- Node10&#45;&gt;Node3 -->
<g id="edge26_Node000010_Node000003" class="edge">
<title>Node10&#45;&gt;Node3</title>
<g id="a_edge26_Node000010_Node000003"><a xlink:title=" ">
<path fill="none" stroke="#63b8ff" d="M174.04,-365.78C115.31,-349.12 38,-314.63 38,-248.5 38,-248.5 38,-248.5 38,-119.12 38,-57.21 115.03,-30.15 170.99,-18.66"/>
<polygon fill="#63b8ff" stroke="#63b8ff" points="173.11,-369.16 183.67,-368.39 174.94,-362.4 173.11,-369.16"/>
</a>
</g>
</g>
<!-- Node11 -->
<g id="Node000011" class="node">
<title>Node11</title>
<g id="a_Node000011"><a xlink:href="../../d4/d1e/_owner_8hpp.html" target="_top" xlink:title=" ">
<polygon fill="white" stroke="#666666" points="292.38,-262.75 185.62,-262.75 185.62,-232.25 292.38,-232.25 292.38,-262.75"/>
<text text-anchor="start" x="193.62" y="-249.25" font-family="Helvetica,sans-Serif" font-size="10.00">mimic++/expectation</text>
<text text-anchor="middle" x="239" y="-238" font-family="Helvetica,sans-Serif" font-size="10.00">/Owner.hpp</text>
</a>
</g>
</g>
<!-- Node10&#45;&gt;Node11 -->
<g id="edge15_Node000010_Node000011" class="edge">
<title>Node10&#45;&gt;Node11</title>
<g id="a_edge15_Node000010_Node000011"><a xlink:title=" ">
<path fill="none" stroke="#63b8ff" d="M239,-353.68C239,-326.59 239,-284.96 239,-263.08"/>
<polygon fill="#63b8ff" stroke="#63b8ff" points="235.5,-353.47 239,-363.47 242.5,-353.47 235.5,-353.47"/>
</a>
</g>
</g>
<!-- Node13 -->
<g id="Node000013" class="node">
<title>Node13</title>
<g id="a_Node000013"><a xlink:href="../../db/d5d/_registry_8hpp.html" target="_top" xlink:title=" ">
<polygon fill="white" stroke="#666666" points="454.38,-329.25 347.62,-329.25 347.62,-298.75 454.38,-298.75 454.38,-329.25"/>
<text text-anchor="start" x="355.62" y="-315.75" font-family="Helvetica,sans-Serif" font-size="10.00">mimic++/expectation</text>
<text text-anchor="middle" x="401" y="-304.5" font-family="Helvetica,sans-Serif" font-size="10.00">/Registry.hpp</text>
</a>
</g>
</g>
<!-- Node10&#45;&gt;Node13 -->
<g id="edge21_Node000010_Node000013" class="edge">
<title>Node10&#45;&gt;Node13</title>
<g id="a_edge21_Node000010_Node000013"><a xlink:title=" ">
<path fill="none" stroke="#63b8ff" d="M286.39,-360.63C311.18,-350.76 341.07,-338.86 364.11,-329.69"/>
<polygon fill="#63b8ff" stroke="#63b8ff" points="285.16,-357.35 277.17,-364.3 287.75,-363.86 285.16,-357.35"/>
</a>
</g>
</g>
<!-- Node11&#45;&gt;Node3 -->
<g id="edge20_Node000011_Node000003" class="edge">
<title>Node11&#45;&gt;Node3</title>
<g id="a_edge20_Node000011_Node000003"><a xlink:title=" ">
<path fill="none" stroke="#63b8ff" d="M174.92,-228.27C159.21,-220.81 144.04,-210.47 134,-196.25 116.86,-171.97 128.56,-159.43 127,-129.75 125.19,-95.27 126.29,-81.26 149,-55.25 163.4,-38.76 185.45,-27.02 202.6,-19.73"/>
<polygon fill="#63b8ff" stroke="#63b8ff" points="173.32,-231.39 183.89,-232.17 176.11,-224.97 173.32,-231.39"/>
</a>
</g>
</g>
<!-- Node11&#45;&gt;Node5 -->
<g id="edge16_Node000011_Node000005" class="edge">
<title>Node11&#45;&gt;Node5</title>
<g id="a_edge16_Node000011_Node000005"><a xlink:title=" ">
<path fill="none" stroke="#63b8ff" d="M266.63,-224.77C278.43,-215.48 291.89,-204.9 302.47,-196.58"/>
<polygon fill="#63b8ff" stroke="#63b8ff" points="264.49,-221.99 258.8,-230.93 268.82,-227.5 264.49,-221.99"/>
</a>
</g>
</g>
<!-- Node12 -->
<g id="Node000012" class="node">
<title>Node12</title>
<g id="a_Node000012"><a xlink:href="../../db/dd0/_collector_8hpp.html" target="_top" xlink:title=" ">
<polygon fill="white" stroke="#666666" points="249.38,-196.25 142.62,-196.25 142.62,-165.75 249.38,-165.75 249.38,-196.25"/>
<text text-anchor="start" x="150.62" y="-182.75" font-family="Helvetica,sans-Serif" font-size="10.00">mimic++/expectation</text>
<text text-anchor="middle" x="196" y="-171.5" font-family="Helvetica,sans-Serif" font-size="10.00">/Collector.hpp</text>
</a>
</g>
</g>
<!-- Node11&#45;&gt;Node12 -->
<g id="edge17_Node000011_Node000012" class="edge">
<title>Node11&#45;&gt;Node12</title>
<g id="a_edge17_Node000011_Node000012"><a xlink:title=" ">
<path fill="none" stroke="#63b8ff" d="M223.03,-222.54C217.21,-213.82 210.83,-204.24 205.72,-196.58"/>
<polygon fill="#63b8ff" stroke="#63b8ff" points="219.94,-224.23 228.4,-230.6 225.77,-220.34 219.94,-224.23"/>
</a>
</g>
</g>
<!-- Node12&#45;&gt;Node3 -->
<g id="edge19_Node000012_Node000003" class="edge">
<title>Node12&#45;&gt;Node3</title>
<g id="a_edge19_Node000012_Node000003"><a xlink:title=" ">
<path fill="none" stroke="#63b8ff" d="M158.4,-158.8C148.26,-151.07 138.58,-141.33 133,-129.75 129.29,-122.04 130.51,-118.69 133,-110.5 145.87,-68.14 189.75,-34.85 213.1,-19.64"/>
<polygon fill="#63b8ff" stroke="#63b8ff" points="156.28,-161.59 166.48,-164.46 160.29,-155.86 156.28,-161.59"/>
</a>
</g>
</g>
<!-- Node12&#45;&gt;Node9 -->
<g id="edge18_Node000012_Node000009" class="edge">
<title>Node12&#45;&gt;Node9</title>
<g id="a_edge18_Node000012_Node000009"><a xlink:title=" ">
<path fill="none" stroke="#63b8ff" d="M205.39,-154.86C208.67,-146.09 212.14,-136.81 214.61,-130.2"/>
<polygon fill="#63b8ff" stroke="#63b8ff" points="202.19,-153.44 201.97,-164.03 208.75,-155.89 202.19,-153.44"/>
</a>
</g>
</g>
<!-- Node13&#45;&gt;Node3 -->
<g id="edge25_Node000013_Node000003" class="edge">
<title>Node13&#45;&gt;Node3</title>
<g id="a_edge25_Node000013_Node000003"><a xlink:title=" ">
<path fill="none" stroke="#63b8ff" d="M419.53,-289.58C462.78,-233.6 564.29,-93.8 531,-55.25 499.85,-19.18 363.77,-11.74 284.98,-10.53"/>
<polygon fill="#63b8ff" stroke="#63b8ff" points="416.96,-287.19 413.58,-297.23 422.48,-291.49 416.96,-287.19"/>
</a>
</g>
</g>
<!-- Node13&#45;&gt;Node5 -->
<g id="edge23_Node000013_Node000005" class="edge">
<title>Node13&#45;&gt;Node5</title>
<g id="a_edge23_Node000013_Node000005"><a xlink:title=" ">
<path fill="none" stroke="#63b8ff" d="M386.34,-288.99C369.84,-261.97 343.57,-218.95 329.91,-196.58"/>
<polygon fill="#63b8ff" stroke="#63b8ff" points="383.15,-290.48 391.34,-297.19 389.12,-286.83 383.15,-290.48"/>
</a>
</g>
</g>
<!-- Node13&#45;&gt;Node6 -->
<g id="edge22_Node000013_Node000006" class="edge">
<title>Node13&#45;&gt;Node6</title>
<g id="a_edge22_Node000013_Node000006"><a xlink:title=" ">
<path fill="none" stroke="#63b8ff" d="M400.86,-286.92C400.64,-243.31 400.19,-157.64 400.05,-129.97"/>
<polygon fill="#63b8ff" stroke="#63b8ff" points="397.36,-286.77 400.92,-296.75 404.36,-286.73 397.36,-286.77"/>
</a>
</g>
</g>
<!-- Node13&#45;&gt;Node11 -->
<g id="edge24_Node000013_Node000011" class="edge">
<title>Node13&#45;&gt;Node11</title>
<g id="a_edge24_Node000013_Node000011"><a xlink:title=" ">
<path fill="none" stroke="#63b8ff" d="M353.61,-294.13C328.82,-284.26 298.93,-272.36 275.89,-263.19"/>
<polygon fill="#63b8ff" stroke="#63b8ff" points="352.25,-297.36 362.83,-297.8 354.84,-290.85 352.25,-297.36"/>
</a>
</g>
</g>
<!-- Node14&#45;&gt;Node3 -->
<g id="edge31_Node000014_Node000003" class="edge">
<title>Node14&#45;&gt;Node3</title>
<g id="a_edge31_Node000014_Node000003"><a xlink:title=" ">
<path fill="none" stroke="#63b8ff" d="M550.38,-221.92C571.73,-181.84 605.12,-102.19 564,-55.25 545.95,-34.64 376.31,-20.4 285.22,-14.17"/>
<polygon fill="#63b8ff" stroke="#63b8ff" points="547.37,-220.12 545.61,-230.57 553.5,-223.5 547.37,-220.12"/>
</a>
</g>
</g>
<!-- Node14&#45;&gt;Node5 -->
<g id="edge30_Node000014_Node000005" class="edge">
<title>Node14&#45;&gt;Node5</title>
<g id="a_edge30_Node000014_Node000005"><a xlink:title=" ">
<path fill="none" stroke="#63b8ff" d="M476.35,-228.6C442.8,-218.54 401.45,-206.14 369.85,-196.65"/>
<polygon fill="#63b8ff" stroke="#63b8ff" points="474.91,-231.83 485.49,-231.35 476.92,-225.12 474.91,-231.83"/>
</a>
</g>
</g>
<!-- Node15&#45;&gt;Node2 -->
<g id="edge33_Node000015_Node000002" class="edge">
<title>Node15&#45;&gt;Node2</title>
<g id="a_edge33_Node000015_Node000002"><a xlink:title=" ">
<path fill="none" stroke="#63b8ff" d="M835.23,-496.11C803.29,-468.22 739.4,-412.41 714.38,-390.57"/>
<polygon fill="#63b8ff" stroke="#63b8ff" points="832.72,-498.56 842.55,-502.5 837.32,-493.29 832.72,-498.56"/>
</a>
</g>
</g>
<!-- Node16&#45;&gt;Node2 -->
<g id="edge35_Node000016_Node000002" class="edge">
<title>Node16&#45;&gt;Node2</title>
<g id="a_edge35_Node000016_Node000002"><a xlink:title=" ">
<path fill="none" stroke="#63b8ff" d="M659.59,-487.96C664.13,-479.9 669,-470.8 673,-462.25 684.96,-436.68 696.07,-405.12 701.13,-390.15"/>
<polygon fill="#63b8ff" stroke="#63b8ff" points="656.61,-486.11 654.65,-496.53 662.68,-489.61 656.61,-486.11"/>
</a>
</g>
</g>
<!-- Node16&#45;&gt;Node17 -->
<g id="edge36_Node000016_Node000017" class="edge">
<title>Node16&#45;&gt;Node17</title>
<g id="a_edge36_Node000016_Node000017"><a xlink:title=" ">
<path fill="none" stroke="#63b8ff" d="M618.73,-490.49C607.72,-481.28 595.24,-470.81 585.4,-462.58"/>
<polygon fill="#63b8ff" stroke="#63b8ff" points="616.45,-493.15 626.37,-496.89 620.95,-487.79 616.45,-493.15"/>
</a>
</g>
</g>
<!-- Node17&#45;&gt;Node2 -->
<g id="edge37_Node000017_Node000002" class="edge">
<title>Node17&#45;&gt;Node2</title>
<g id="a_edge37_Node000017_Node000002"><a xlink:title=" ">
<path fill="none" stroke="#63b8ff" d="M609.25,-426.44C634.45,-414.49 665.48,-399.77 685,-390.51"/>
<polygon fill="#63b8ff" stroke="#63b8ff" points="607.76,-423.27 600.23,-430.72 610.76,-429.59 607.76,-423.27"/>
</a>
</g>
</g>
<!-- Node17&#45;&gt;Node13 -->
<g id="edge43_Node000017_Node000013" class="edge">
<title>Node17&#45;&gt;Node13</title>
<g id="a_edge43_Node000017_Node000013"><a xlink:title=" ">
<path fill="none" stroke="#63b8ff" d="M538.42,-424.62C526.4,-415.8 512.44,-405.41 500,-395.75 470.92,-373.17 437.93,-345.92 418.32,-329.55"/>
<polygon fill="#63b8ff" stroke="#63b8ff" points="536.21,-427.34 546.35,-430.41 540.34,-421.68 536.21,-427.34"/>
</a>
</g>
</g>
<!-- Node18 -->
<g id="Node000018" class="node">
<title>Node18</title>
<g id="a_Node000018"><a xlink:href="../../d8/de4/_sequence_8hpp.html" target="_top" xlink:title=" ">
<polygon fill="white" stroke="#666666" points="627.38,-390.12 508.62,-390.12 508.62,-370.88 627.38,-370.88 627.38,-390.12"/>
<text text-anchor="middle" x="568" y="-376.62" font-family="Helvetica,sans-Serif" font-size="10.00">mimic++/Sequence.hpp</text>
</a>
</g>
</g>
<!-- Node17&#45;&gt;Node18 -->
<g id="edge38_Node000017_Node000018" class="edge">
<title>Node17&#45;&gt;Node18</title>
<g id="a_edge38_Node000017_Node000018"><a xlink:title=" ">
<path fill="none" stroke="#63b8ff" d="M568,-420.09C568,-409.51 568,-398 568,-390.32"/>
<polygon fill="#63b8ff" stroke="#63b8ff" points="564.5,-419.85 568,-429.85 571.5,-419.85 564.5,-419.85"/>
</a>
</g>
</g>
<!-- Node18&#45;&gt;Node3 -->
<g id="edge41_Node000018_Node000003" class="edge">
<title>Node18&#45;&gt;Node3</title>
<g id="a_edge41_Node000018_Node000003"><a xlink:title=" ">
<path fill="none" stroke="#63b8ff" d="M590.22,-363.69C618.58,-341.48 664,-298.15 664,-248.5 664,-248.5 664,-248.5 664,-119.12 664,-73.63 625.92,-72.94 584,-55.25 531.42,-33.06 371.7,-19.77 285.17,-14.01"/>
<polygon fill="#63b8ff" stroke="#63b8ff" points="588.43,-360.66 582.56,-369.48 592.65,-366.25 588.43,-360.66"/>
</a>
</g>
</g>
<!-- Node18&#45;&gt;Node9 -->
<g id="edge39_Node000018_Node000009" class="edge">
<title>Node18&#45;&gt;Node9</title>
<g id="a_edge39_Node000018_Node000009"><a xlink:title=" ">
<path fill="none" stroke="#63b8ff" d="M581.73,-361.36C602.48,-331.58 636.43,-271.69 607,-232.25 568.3,-180.39 383.8,-145.62 283.42,-130.2"/>
<polygon fill="#63b8ff" stroke="#63b8ff" points="578.99,-359.18 575.96,-369.33 584.66,-363.29 578.99,-359.18"/>
</a>
</g>
</g>
<!-- Node18&#45;&gt;Node13 -->
<g id="edge40_Node000018_Node000013" class="edge">
<title>Node18&#45;&gt;Node13</title>
<g id="a_edge40_Node000018_Node000013"><a xlink:title=" ">
<path fill="none" stroke="#63b8ff" d="M533.72,-366.26C506.14,-355.61 467.43,-340.66 438.93,-329.65"/>
<polygon fill="#63b8ff" stroke="#63b8ff" points="532.43,-369.51 543.02,-369.85 534.95,-362.98 532.43,-369.51"/>
</a>
</g>
</g>
<!-- Node18&#45;&gt;Node14 -->
<g id="edge42_Node000018_Node000014" class="edge">
<title>Node18&#45;&gt;Node14</title>
<g id="a_edge42_Node000018_Node000014"><a xlink:title=" ">
<path fill="none" stroke="#63b8ff" d="M563.12,-359.51C556.62,-332.9 545.27,-286.46 539.54,-262.97"/>
<polygon fill="#63b8ff" stroke="#63b8ff" points="559.67,-360.14 565.44,-369.03 566.47,-358.48 559.67,-360.14"/>
</a>
</g>
</g>
<!-- Node19&#45;&gt;Node2 -->
<g id="edge46_Node000019_Node000002" class="edge">
<title>Node19&#45;&gt;Node2</title>
<g id="a_edge46_Node000019_Node000002"><a xlink:title=" ">
<path fill="none" stroke="#63b8ff" d="M651.52,-625.16C607.45,-597.81 542.66,-546.98 572,-498.25 589.64,-468.95 613.71,-484.12 640,-462.25 666.13,-440.52 688.73,-406.56 698.64,-390.5"/>
<polygon fill="#63b8ff" stroke="#63b8ff" points="649.45,-627.99 659.82,-630.16 653.07,-622 649.45,-627.99"/>
</a>
</g>
</g>
<!-- Node19&#45;&gt;Node15 -->
<g id="edge47_Node000019_Node000015" class="edge">
<title>Node19&#45;&gt;Node15</title>
<g id="a_edge47_Node000019_Node000015"><a xlink:title=" ">
<path fill="none" stroke="#63b8ff" d="M759.66,-626.78C778.6,-619.28 797.94,-609.05 813,-595.25 835.14,-574.97 847.07,-540 851.7,-523.55"/>
<polygon fill="#63b8ff" stroke="#63b8ff" points="758.48,-623.48 750.32,-630.24 760.91,-630.04 758.48,-623.48"/>
</a>
</g>
</g>
<!-- Node19&#45;&gt;Node16 -->
<g id="edge48_Node000019_Node000016" class="edge">
<title>Node19&#45;&gt;Node16</title>
<g id="a_edge48_Node000019_Node000016"><a xlink:title=" ">
<path fill="none" stroke="#63b8ff" d="M673.74,-621.19C669.48,-613.14 665.12,-604 662,-595.25 654.01,-572.85 649.24,-545.55 646.86,-529.12"/>
<polygon fill="#63b8ff" stroke="#63b8ff" points="670.54,-622.64 678.44,-629.7 676.67,-619.25 670.54,-622.64"/>
</a>
</g>
</g>
<!-- Node19&#45;&gt;Node20 -->
<g id="edge49_Node000019_Node000020" class="edge">
<title>Node19&#45;&gt;Node20</title>
<g id="a_edge49_Node000019_Node000020"><a xlink:title=" ">
<path fill="none" stroke="#63b8ff" d="M705.99,-621.82C712.67,-613.03 720.04,-603.32 725.93,-595.58"/>
<polygon fill="#63b8ff" stroke="#63b8ff" points="703.3,-619.58 700.03,-629.66 708.87,-623.81 703.3,-619.58"/>
</a>
</g>
</g>
<!-- Node20&#45;&gt;Node2 -->
<g id="edge50_Node000020_Node000002" class="edge">
<title>Node20&#45;&gt;Node2</title>
<g id="a_edge50_Node000020_Node000002"><a xlink:title=" ">
<path fill="none" stroke="#63b8ff" d="M732.68,-553.14C725.2,-508.38 710.19,-418.56 705.46,-390.25"/>
<polygon fill="#63b8ff" stroke="#63b8ff" points="729.22,-553.7 734.32,-562.98 736.13,-552.54 729.22,-553.7"/>
</a>
</g>
</g>
<!-- Node20&#45;&gt;Node15 -->
<g id="edge51_Node000020_Node000015" class="edge">
<title>Node20&#45;&gt;Node15</title>
<g id="a_edge51_Node000020_Node000015"><a xlink:title=" ">
<path fill="none" stroke="#63b8ff" d="M773.36,-558.95C794.88,-547.09 821.08,-532.65 837.66,-523.51"/>
<polygon fill="#63b8ff" stroke="#63b8ff" points="771.94,-555.74 764.87,-563.63 775.32,-561.87 771.94,-555.74"/>
</a>
</g>
</g>
<!-- Node20&#45;&gt;Node16 -->
<g id="edge52_Node000020_Node000016" class="edge">
<title>Node20&#45;&gt;Node16</title>
<g id="a_edge52_Node000020_Node000016"><a xlink:title=" ">
<path fill="none" stroke="#63b8ff" d="M706.79,-557.82C693.36,-548.41 677.89,-537.56 665.79,-529.08"/>
<polygon fill="#63b8ff" stroke="#63b8ff" points="704.69,-560.62 714.88,-563.5 708.71,-554.89 704.69,-560.62"/>
</a>
</g>
</g>
</g>
</svg>
