<?xml version="1.0" encoding="UTF-8" standalone="no"?>
<!DOCTYPE svg PUBLIC "-//W3C//DTD SVG 1.1//EN"
 "http://www.w3.org/Graphics/SVG/1.1/DTD/svg11.dtd">
<!-- Generated by graphviz version 12.2.1 (20241206.2353)
 -->
<!-- Title: mimic++/reporting/ExpectationReport.hpp Pages: 1 -->
<!--zoomable 647 -->

<svg id="main" version="1.1" xmlns="http://www.w3.org/2000/svg" xmlns:xlink="http://www.w3.org/1999/xlink" xml:space="preserve" onload="init(evt)">

<style type="text/css"><![CDATA[
.node, .edge {opacity: 0.7;}
.node.selected, .edge.selected {opacity: 1;}
.edge:hover path { stroke: red; }
.edge:hover polygon { stroke: red; fill: red; }
]]></style>

<defs>
  <circle id="rim" cx="0" cy="0" r="7"/>
  <circle id="rim2" cx="0" cy="0" r="3.5"/>
  <g id="zoomPlus">
    <use xlink:href="#rim" fill="#404040"><set attributeName="fill" to="#808080" begin="zoomplus.mouseover" end="zoomplus.mouseout"/></use>
    <path d="M-4,0h8M0,-4v8" fill="none" stroke="white" stroke-width="1.5" pointer-events="none"/>
  </g>
  <g id="zoomMin">
    <use xlink:href="#rim" fill="#404040"><set attributeName="fill" to="#808080" begin="zoomminus.mouseover" end="zoomminus.mouseout"/></use>
    <path d="M-4,0h8" fill="none" stroke="white" stroke-width="1.5" pointer-events="none"/>
  </g>
  <g id="arrowUp" transform="translate(30 24)">
    <use xlink:href="#rim"/>
    <path pointer-events="none" fill="none" stroke="white" stroke-width="1.5" d="M0,-3.0v7 M-2.5,-0.5L0,-3.0L2.5,-0.5"/>
  </g>
  <g id="arrowRight" transform="rotate(90) translate(36 -43)">
    <use xlink:href="#rim"/>
    <path pointer-events="none" fill="none" stroke="white" stroke-width="1.5" d="M0,-3.0v7 M-2.5,-0.5L0,-3.0L2.5,-0.5"/>
  </g>
  <g id="arrowDown" transform="rotate(180) translate(-30 -48)">
    <use xlink:href="#rim"/>
    <path pointer-events="none" fill="none" stroke="white" stroke-width="1.5" d="M0,-3.0v7 M-2.5,-0.5L0,-3.0L2.5,-0.5"/>
  </g>
  <g id="arrowLeft" transform="rotate(270) translate(-36 17)">
    <use xlink:href="#rim"/>
    <path pointer-events="none" fill="none" stroke="white" stroke-width="1.5" d="M0,-3.0v7 M-2.5,-0.5L0,-3.0L2.5,-0.5"/>
  </g>
  <g id="resetDef">
    <use xlink:href="#rim2" fill="#404040"><set attributeName="fill" to="#808080" begin="reset.mouseover" end="reset.mouseout"/></use>
  </g>
</defs>
<script type="application/ecmascript">
var viewWidth = 668;
var viewHeight = 647;
var sectionId = 'dynsection-1';
</script>
<script type="application/ecmascript" xlink:href="../../svg.min.js"/>
<svg id="graph" class="graph">
<g id="viewport">
<title>mimic++/reporting/ExpectationReport.hpp</title>
<!-- Node1 -->
<g id="Node000001" class="node">
<title>Node1</title>
<g id="a_Node000001"><a xlink:title=" ">
<polygon fill="#999999" stroke="#666666" points="350.24,-639.25 202.24,-639.25 202.24,-608.75 350.24,-608.75 350.24,-639.25"/>
<text text-anchor="start" x="210.24" y="-625.75" font-family="Helvetica,sans-Serif" font-size="10.00">mimic++/reporting/Expectation</text>
<text text-anchor="middle" x="276.24" y="-614.5" font-family="Helvetica,sans-Serif" font-size="10.00">Report.hpp</text>
</a>
</g>
</g>
<!-- Node2 -->
<g id="Node000002" class="node">
<title>Node2</title>
<g id="a_Node000002"><a xlink:href="../../d5/d8a/_expectation_8hpp.html" target="_top" xlink:title=" ">
<polygon fill="white" stroke="#666666" points="293.99,-245.88 168.49,-245.88 168.49,-226.62 293.99,-226.62 293.99,-245.88"/>
<text text-anchor="middle" x="231.24" y="-232.38" font-family="Helvetica,sans-Serif" font-size="10.00">mimic++/Expectation.hpp</text>
</a>
</g>
</g>
<!-- Node1&#45;&gt;Node2 -->
<g id="edge1_Node000001_Node000002" class="edge">
<title>Node1&#45;&gt;Node2</title>
<g id="a_edge1_Node000001_Node000002"><a xlink:title=" ">
<path fill="none" stroke="#63b8ff" d="M242.1,-602.06C209.8,-579.35 166.24,-539.84 166.24,-492 166.24,-492 166.24,-492 166.24,-357 166.24,-310.64 204.34,-265.07 222.2,-246.26"/>
<polygon fill="#63b8ff" stroke="#63b8ff" points="239.79,-604.73 250.03,-607.44 243.72,-598.93 239.79,-604.73"/>
</a>
</g>
</g>
<!-- Node8 -->
<g id="Node000008" class="node">
<title>Node8</title>
<g id="a_Node000008"><a xlink:href="../../d7/deb/_reporting_8hpp.html" target="_top" xlink:title=" ">
<polygon fill="white" stroke="#666666" points="534.49,-306.75 417.99,-306.75 417.99,-287.5 534.49,-287.5 534.49,-306.75"/>
<text text-anchor="middle" x="476.24" y="-293.25" font-family="Helvetica,sans-Serif" font-size="10.00">mimic++/Reporting.hpp</text>
</a>
</g>
</g>
<!-- Node1&#45;&gt;Node8 -->
<g id="edge12_Node000001_Node000008" class="edge">
<title>Node1&#45;&gt;Node8</title>
<g id="a_edge12_Node000001_Node000008"><a xlink:title=" ">
<path fill="none" stroke="#63b8ff" d="M361.79,-611.33C474.95,-593.46 660.24,-554.63 660.24,-492 660.24,-492 660.24,-492 660.24,-423.5 660.24,-355.27 572.78,-321.53 518.45,-307.15"/>
<polygon fill="#63b8ff" stroke="#63b8ff" points="361.58,-607.83 352.23,-612.82 362.65,-614.74 361.58,-607.83"/>
</a>
</g>
</g>
<!-- Node9 -->
<g id="Node000009" class="node">
<title>Node9</title>
<g id="a_Node000009"><a xlink:href="../../db/d70/_control_policies_8hpp.html" target="_top" xlink:title=" ">
<polygon fill="white" stroke="#666666" points="150.24,-251.5 26.24,-251.5 26.24,-221 150.24,-221 150.24,-251.5"/>
<text text-anchor="start" x="34.24" y="-238" font-family="Helvetica,sans-Serif" font-size="10.00">mimic++/policies/Control</text>
<text text-anchor="middle" x="88.24" y="-226.75" font-family="Helvetica,sans-Serif" font-size="10.00">Policies.hpp</text>
</a>
</g>
</g>
<!-- Node1&#45;&gt;Node9 -->
<g id="edge14_Node000001_Node000009" class="edge">
<title>Node1&#45;&gt;Node9</title>
<g id="a_edge14_Node000001_Node000009"><a xlink:title=" ">
<path fill="none" stroke="#63b8ff" d="M217.66,-604.38C169.18,-584.88 108.24,-549.03 108.24,-492 108.24,-492 108.24,-492 108.24,-357 108.24,-318.64 98.13,-274.3 92.29,-251.87"/>
<polygon fill="#63b8ff" stroke="#63b8ff" points="216.1,-607.53 226.69,-607.86 218.62,-601 216.1,-607.53"/>
</a>
</g>
</g>
<!-- Node10 -->
<g id="Node000010" class="node">
<title>Node10</title>
<g id="a_Node000010"><a xlink:href="../../d1/dfd/_basic_reporter_8hpp.html" target="_top" xlink:title=" ">
<polygon fill="white" stroke="#666666" points="593.87,-434.12 416.62,-434.12 416.62,-414.88 593.87,-414.88 593.87,-434.12"/>
<text text-anchor="middle" x="505.24" y="-420.62" font-family="Helvetica,sans-Serif" font-size="10.00">mimic++/reporting/BasicReporter.hpp</text>
</a>
</g>
</g>
<!-- Node1&#45;&gt;Node10 -->
<g id="edge17_Node000001_Node000010" class="edge">
<title>Node1&#45;&gt;Node10</title>
<g id="a_edge17_Node000001_Node000010"><a xlink:title=" ">
<path fill="none" stroke="#63b8ff" d="M361.32,-619.58C399.11,-613.8 441.45,-600.83 470.24,-572.75 509.74,-534.22 507.99,-459.82 506.08,-434.32"/>
<polygon fill="#63b8ff" stroke="#63b8ff" points="361.22,-616.06 351.78,-620.88 362.16,-622.99 361.22,-616.06"/>
</a>
</g>
</g>
<!-- Node11 -->
<g id="Node000011" class="node">
<title>Node11</title>
<g id="a_Node000011"><a xlink:href="../../d0/d70/_default_reporter_8hpp.html" target="_top" xlink:title=" ">
<polygon fill="white" stroke="#666666" points="360.49,-439.75 231.99,-439.75 231.99,-409.25 360.49,-409.25 360.49,-439.75"/>
<text text-anchor="start" x="239.99" y="-426.25" font-family="Helvetica,sans-Serif" font-size="10.00">mimic++/reporting/Default</text>
<text text-anchor="middle" x="296.24" y="-415" font-family="Helvetica,sans-Serif" font-size="10.00">Reporter.hpp</text>
</a>
</g>
</g>
<!-- Node1&#45;&gt;Node11 -->
<g id="edge19_Node000001_Node000011" class="edge">
<title>Node1&#45;&gt;Node11</title>
<g id="a_edge19_Node000001_Node000011"><a xlink:title=" ">
<path fill="none" stroke="#63b8ff" d="M278.87,-597.02C283.13,-554.94 291.41,-473.24 294.77,-440.04"/>
<polygon fill="#63b8ff" stroke="#63b8ff" points="275.39,-596.67 277.86,-606.97 282.35,-597.38 275.39,-596.67"/>
</a>
</g>
</g>
<!-- Node12 -->
<g id="Node000012" class="node">
<title>Node12</title>
<g id="a_Node000012"><a xlink:href="../../de/dd1/_global_reporter_8hpp.html" target="_top" xlink:title=" ">
<polygon fill="white" stroke="#666666" points="321.99,-373.25 196.49,-373.25 196.49,-342.75 321.99,-342.75 321.99,-373.25"/>
<text text-anchor="start" x="204.49" y="-359.75" font-family="Helvetica,sans-Serif" font-size="10.00">mimic++/reporting/Global</text>
<text text-anchor="middle" x="259.24" y="-348.5" font-family="Helvetica,sans-Serif" font-size="10.00">Reporter.hpp</text>
</a>
</g>
</g>
<!-- Node1&#45;&gt;Node12 -->
<g id="edge29_Node000001_Node000012" class="edge">
<title>Node1&#45;&gt;Node12</title>
<g id="a_edge29_Node000001_Node000012"><a xlink:title=" ">
<path fill="none" stroke="#63b8ff" d="M266.56,-597.99C253.65,-563.17 231.46,-497.79 223.24,-439.75 221.34,-426.33 219.09,-422.16 223.24,-409.25 227.57,-395.76 237.01,-382.82 245.13,-373.45"/>
<polygon fill="#63b8ff" stroke="#63b8ff" points="263.22,-599.04 270.02,-607.16 269.77,-596.57 263.22,-599.04"/>
</a>
</g>
</g>
<!-- Node14 -->
<g id="Node000014" class="node">
<title>Node14</title>
<g id="a_Node000014"><a xlink:href="../../de/d3f/_no_match_report_8hpp.html" target="_top" xlink:title=" ">
<polygon fill="white" stroke="#666666" points="460.99,-572.75 323.49,-572.75 323.49,-542.25 460.99,-542.25 460.99,-572.75"/>
<text text-anchor="start" x="331.49" y="-559.25" font-family="Helvetica,sans-Serif" font-size="10.00">mimic++/reporting/NoMatch</text>
<text text-anchor="middle" x="392.24" y="-548" font-family="Helvetica,sans-Serif" font-size="10.00">Report.hpp</text>
</a>
</g>
</g>
<!-- Node1&#45;&gt;Node14 -->
<g id="edge30_Node000001_Node000014" class="edge">
<title>Node1&#45;&gt;Node14</title>
<g id="a_edge30_Node000001_Node000014"><a xlink:title=" ">
<path fill="none" stroke="#63b8ff" d="M312.38,-602.91C329.74,-593.25 350.17,-581.89 366.02,-573.08"/>
<polygon fill="#63b8ff" stroke="#63b8ff" points="310.92,-599.71 303.89,-607.63 314.33,-605.83 310.92,-599.71"/>
</a>
</g>
</g>
<!-- Node15 -->
<g id="Node000015" class="node">
<title>Node15</title>
<g id="a_Node000015"><a xlink:href="../../d9/d70/_stringify_reports_8hpp.html" target="_top" xlink:title=" ">
<polygon fill="white" stroke="#666666" points="456.74,-506.25 323.74,-506.25 323.74,-475.75 456.74,-475.75 456.74,-506.25"/>
<text text-anchor="start" x="331.74" y="-492.75" font-family="Helvetica,sans-Serif" font-size="10.00">mimic++/reporting/Stringify</text>
<text text-anchor="middle" x="390.24" y="-481.5" font-family="Helvetica,sans-Serif" font-size="10.00">Reports.hpp</text>
</a>
</g>
</g>
<!-- Node1&#45;&gt;Node15 -->
<g id="edge38_Node000001_Node000015" class="edge">
<title>Node1&#45;&gt;Node15</title>
<g id="a_edge38_Node000001_Node000015"><a xlink:title=" ">
<path fill="none" stroke="#63b8ff" d="M284.08,-597.7C290.28,-580.66 300.24,-558.43 314.24,-542.25 326.97,-527.54 345.01,-515.36 360.32,-506.68"/>
<polygon fill="#63b8ff" stroke="#63b8ff" points="280.8,-596.5 280.88,-607.1 287.42,-598.76 280.8,-596.5"/>
</a>
</g>
</g>
<!-- Node3 -->
<g id="Node000003" class="node">
<title>Node3</title>
<g id="a_Node000003"><a xlink:href="../../d2/d4f/_expectation_builder_8hpp.html" target="_top" xlink:title=" ">
<polygon fill="white" stroke="#666666" points="399.99,-185 244.49,-185 244.49,-165.75 399.99,-165.75 399.99,-185"/>
<text text-anchor="middle" x="322.24" y="-171.5" font-family="Helvetica,sans-Serif" font-size="10.00">mimic++/ExpectationBuilder.hpp</text>
</a>
</g>
</g>
<!-- Node2&#45;&gt;Node3 -->
<g id="edge2_Node000002_Node000003" class="edge">
<title>Node2&#45;&gt;Node3</title>
<g id="a_edge2_Node000002_Node000003"><a xlink:title=" ">
<path fill="none" stroke="#63b8ff" d="M254.33,-220.31C271.35,-209.3 293.94,-194.68 308.29,-185.4"/>
<polygon fill="#63b8ff" stroke="#63b8ff" points="252.83,-217.12 246.33,-225.49 256.63,-222.99 252.83,-217.12"/>
</a>
</g>
</g>
<!-- Node4 -->
<g id="Node000004" class="node">
<title>Node4</title>
<g id="a_Node000004"><a xlink:href="../../d5/dc5/_mock_8hpp.html" target="_top" xlink:title=" ">
<polygon fill="white" stroke="#666666" points="313.87,-129.75 214.62,-129.75 214.62,-110.5 313.87,-110.5 313.87,-129.75"/>
<text text-anchor="middle" x="264.24" y="-116.25" font-family="Helvetica,sans-Serif" font-size="10.00">mimic++/Mock.hpp</text>
</a>
</g>
</g>
<!-- Node2&#45;&gt;Node4 -->
<g id="edge10_Node000002_Node000004" class="edge">
<title>Node2&#45;&gt;Node4</title>
<g id="a_edge10_Node000002_Node000004"><a xlink:title=" ">
<path fill="none" stroke="#63b8ff" d="M229.71,-215.08C229.27,-200.93 229.99,-181.75 235.24,-165.75 239.73,-152.05 249.52,-138.48 256.48,-129.96"/>
<polygon fill="#63b8ff" stroke="#63b8ff" points="226.2,-215.12 230.25,-224.91 233.19,-214.74 226.2,-215.12"/>
</a>
</g>
</g>
<!-- Node6 -->
<g id="Node000006" class="node">
<title>Node6</title>
<g id="a_Node000006"><a xlink:href="../../d0/db9/mimic_09_09_8hpp.html" target="_top" xlink:title=" ">
<polygon fill="white" stroke="#666666" points="369.99,-19.25 256.49,-19.25 256.49,0 369.99,0 369.99,-19.25"/>
<text text-anchor="middle" x="313.24" y="-5.75" font-family="Helvetica,sans-Serif" font-size="10.00">mimic++/mimic++.hpp</text>
</a>
</g>
</g>
<!-- Node2&#45;&gt;Node6 -->
<g id="edge11_Node000002_Node000006" class="edge">
<title>Node2&#45;&gt;Node6</title>
<g id="a_edge11_Node000002_Node000006"><a xlink:title=" ">
<path fill="none" stroke="#63b8ff" d="M194.82,-222.34C121.71,-194.52 -31.01,-125.71 29.24,-55.25 57.83,-21.82 181.67,-13.27 256.05,-11.19"/>
<polygon fill="#63b8ff" stroke="#63b8ff" points="193.41,-225.54 204,-225.76 195.85,-218.99 193.41,-225.54"/>
</a>
</g>
</g>
<!-- Node3&#45;&gt;Node4 -->
<g id="edge3_Node000003_Node000004" class="edge">
<title>Node3&#45;&gt;Node4</title>
<g id="a_edge3_Node000003_Node000004"><a xlink:title=" ">
<path fill="none" stroke="#63b8ff" d="M303.98,-157.61C294.02,-148.47 282.11,-137.53 273.93,-130.02"/>
<polygon fill="#63b8ff" stroke="#63b8ff" points="301.55,-160.13 311.29,-164.32 306.29,-154.98 301.55,-160.13"/>
</a>
</g>
</g>
<!-- Node3&#45;&gt;Node6 -->
<g id="edge9_Node000003_Node000006" class="edge">
<title>Node3&#45;&gt;Node6</title>
<g id="a_edge9_Node000003_Node000006"><a xlink:title=" ">
<path fill="none" stroke="#63b8ff" d="M335.66,-156.31C351.5,-132.62 373.94,-90 359.24,-55.25 352.82,-40.08 338.45,-27.54 327.47,-19.65"/>
<polygon fill="#63b8ff" stroke="#63b8ff" points="332.96,-154.06 330.07,-164.26 338.69,-158.09 332.96,-154.06"/>
</a>
</g>
</g>
<!-- Node5 -->
<g id="Node000005" class="node">
<title>Node5</title>
<g id="a_Node000005"><a xlink:href="../../d9/dc3/_interface_mock_8hpp.html" target="_top" xlink:title=" ">
<polygon fill="white" stroke="#666666" points="175.99,-74.5 38.49,-74.5 38.49,-55.25 175.99,-55.25 175.99,-74.5"/>
<text text-anchor="middle" x="107.24" y="-61" font-family="Helvetica,sans-Serif" font-size="10.00">mimic++/InterfaceMock.hpp</text>
</a>
</g>
</g>
<!-- Node4&#45;&gt;Node5 -->
<g id="edge4_Node000004_Node000005" class="edge">
<title>Node4&#45;&gt;Node5</title>
<g id="a_edge4_Node000004_Node000005"><a xlink:title=" ">
<path fill="none" stroke="#63b8ff" d="M226.81,-106.43C198.23,-96.74 159.54,-83.61 134,-74.95"/>
<polygon fill="#63b8ff" stroke="#63b8ff" points="225.58,-109.71 236.17,-109.61 227.83,-103.08 225.58,-109.71"/>
</a>
</g>
</g>
<!-- Node4&#45;&gt;Node6 -->
<g id="edge8_Node000004_Node000006" class="edge">
<title>Node4&#45;&gt;Node6</title>
<g id="a_edge8_Node000004_Node000006"><a xlink:title=" ">
<path fill="none" stroke="#63b8ff" d="M306.07,-105.54C320.45,-98.63 335,-88.62 343.24,-74.5 354.23,-55.67 335.44,-32.14 322.96,-19.56"/>
<polygon fill="#63b8ff" stroke="#63b8ff" points="304.88,-102.23 297.1,-109.43 307.67,-108.66 304.88,-102.23"/>
</a>
</g>
</g>
<!-- Node7 -->
<g id="Node000007" class="node">
<title>Node7</title>
<g id="a_Node000007"><a xlink:href="../../d5/d92/_object_watcher_8hpp.html" target="_top" xlink:title=" ">
<polygon fill="white" stroke="#666666" points="334.12,-74.5 194.37,-74.5 194.37,-55.25 334.12,-55.25 334.12,-74.5"/>
<text text-anchor="middle" x="264.24" y="-61" font-family="Helvetica,sans-Serif" font-size="10.00">mimic++/ObjectWatcher.hpp</text>
</a>
</g>
</g>
<!-- Node4&#45;&gt;Node7 -->
<g id="edge6_Node000004_Node000007" class="edge">
<title>Node4&#45;&gt;Node7</title>
<g id="a_edge6_Node000004_Node000007"><a xlink:title=" ">
<path fill="none" stroke="#63b8ff" d="M264.24,-98.88C264.24,-90.59 264.24,-81.42 264.24,-74.86"/>
<polygon fill="#63b8ff" stroke="#63b8ff" points="260.74,-98.82 264.24,-108.82 267.74,-98.82 260.74,-98.82"/>
</a>
</g>
</g>
<!-- Node5&#45;&gt;Node6 -->
<g id="edge5_Node000005_Node000006" class="edge">
<title>Node5&#45;&gt;Node6</title>
<g id="a_edge5_Node000005_Node000006"><a xlink:title=" ">
<path fill="none" stroke="#63b8ff" d="M152.9,-52.07C190.69,-42.3 243.59,-28.63 278.12,-19.7"/>
<polygon fill="#63b8ff" stroke="#63b8ff" points="152.46,-48.57 143.65,-54.46 154.21,-55.35 152.46,-48.57"/>
</a>
</g>
</g>
<!-- Node7&#45;&gt;Node6 -->
<g id="edge7_Node000007_Node000006" class="edge">
<title>Node7&#45;&gt;Node6</title>
<g id="a_edge7_Node000007_Node000006"><a xlink:title=" ">
<path fill="none" stroke="#63b8ff" d="M279.96,-46.79C288.28,-37.75 298.15,-27.02 304.97,-19.61"/>
<polygon fill="#63b8ff" stroke="#63b8ff" points="277.55,-44.24 273.36,-53.97 282.7,-48.98 277.55,-44.24"/>
</a>
</g>
</g>
<!-- Node8&#45;&gt;Node6 -->
<g id="edge13_Node000008_Node000006" class="edge">
<title>Node8&#45;&gt;Node6</title>
<g id="a_edge13_Node000008_Node000006"><a xlink:title=" ">
<path fill="none" stroke="#63b8ff" d="M476.24,-275.74C476.24,-251.91 476.24,-211.28 476.24,-176.38 476.24,-176.38 476.24,-176.38 476.24,-119.12 476.24,-61.5 404.78,-32.62 356.49,-19.68"/>
<polygon fill="#63b8ff" stroke="#63b8ff" points="472.74,-275.6 476.24,-285.6 479.74,-275.6 472.74,-275.6"/>
</a>
</g>
</g>
<!-- Node9&#45;&gt;Node3 -->
<g id="edge15_Node000009_Node000003" class="edge">
<title>Node9&#45;&gt;Node3</title>
<g id="a_edge15_Node000009_Node000003"><a xlink:title=" ">
<path fill="none" stroke="#63b8ff" d="M157.72,-217.77C199.85,-207.17 251.88,-194.08 286.01,-185.49"/>
<polygon fill="#63b8ff" stroke="#63b8ff" points="157,-214.34 148.15,-220.18 158.7,-221.13 157,-214.34"/>
</a>
</g>
</g>
<!-- Node9&#45;&gt;Node6 -->
<g id="edge16_Node000009_Node000006" class="edge">
<title>Node9&#45;&gt;Node6</title>
<g id="a_edge16_Node000009_Node000006"><a xlink:title=" ">
<path fill="none" stroke="#63b8ff" d="M64.99,-212.41C30.35,-175.64 -26.6,-102.64 14.24,-55.25 44.82,-19.77 178.12,-12.07 256.03,-10.66"/>
<polygon fill="#63b8ff" stroke="#63b8ff" points="62.32,-214.68 71.78,-219.44 67.35,-209.82 62.32,-214.68"/>
</a>
</g>
</g>
<!-- Node10&#45;&gt;Node8 -->
<g id="edge18_Node000010_Node000008" class="edge">
<title>Node10&#45;&gt;Node8</title>
<g id="a_edge18_Node000010_Node000008"><a xlink:title=" ">
<path fill="none" stroke="#63b8ff" d="M500.6,-403.43C494.2,-375.76 482.93,-327.04 478.31,-307.06"/>
<polygon fill="#63b8ff" stroke="#63b8ff" points="497.15,-404.05 502.81,-413.01 503.97,-402.48 497.15,-404.05"/>
</a>
</g>
</g>
<!-- Node11&#45;&gt;Node8 -->
<g id="edge20_Node000011_Node000008" class="edge">
<title>Node11&#45;&gt;Node8</title>
<g id="a_edge20_Node000011_Node000008"><a xlink:title=" ">
<path fill="none" stroke="#63b8ff" d="M314.24,-400.45C328.91,-382.85 350.94,-358.95 374.24,-342.75 397.09,-326.86 426.51,-314.73 447.88,-307.15"/>
<polygon fill="#63b8ff" stroke="#63b8ff" points="311.83,-397.86 308.23,-407.82 317.26,-402.28 311.83,-397.86"/>
</a>
</g>
</g>
<!-- Node11&#45;&gt;Node12 -->
<g id="edge21_Node000011_Node000012" class="edge">
<title>Node11&#45;&gt;Node12</title>
<g id="a_edge21_Node000011_Node000012"><a xlink:title=" ">
<path fill="none" stroke="#63b8ff" d="M282.17,-398.98C277.26,-390.41 271.9,-381.07 267.6,-373.58"/>
<polygon fill="#63b8ff" stroke="#63b8ff" points="279.08,-400.62 287.09,-407.55 285.15,-397.14 279.08,-400.62"/>
</a>
</g>
</g>
<!-- Node12&#45;&gt;Node2 -->
<g id="edge22_Node000012_Node000002" class="edge">
<title>Node12&#45;&gt;Node2</title>
<g id="a_edge22_Node000012_Node000002"><a xlink:title=" ">
<path fill="none" stroke="#63b8ff" d="M253.27,-331.46C247.01,-304.7 237.52,-264.11 233.34,-246.24"/>
<polygon fill="#63b8ff" stroke="#63b8ff" points="249.78,-331.9 255.46,-340.84 256.59,-330.31 249.78,-331.9"/>
</a>
</g>
</g>
<!-- Node12&#45;&gt;Node8 -->
<g id="edge23_Node000012_Node000008" class="edge">
<title>Node12&#45;&gt;Node8</title>
<g id="a_edge23_Node000012_Node000008"><a xlink:title=" ">
<path fill="none" stroke="#63b8ff" d="M324.42,-339.31C363.36,-328.75 411.2,-315.77 442.64,-307.24"/>
<polygon fill="#63b8ff" stroke="#63b8ff" points="323.63,-335.9 314.9,-341.9 325.47,-342.66 323.63,-335.9"/>
</a>
</g>
</g>
<!-- Node13 -->
<g id="Node000013" class="node">
<title>Node13</title>
<g id="a_Node000013"><a xlink:href="../../d8/de4/_sequence_8hpp.html" target="_top" xlink:title=" ">
<polygon fill="white" stroke="#666666" points="377.62,-306.75 258.87,-306.75 258.87,-287.5 377.62,-287.5 377.62,-306.75"/>
<text text-anchor="middle" x="318.24" y="-293.25" font-family="Helvetica,sans-Serif" font-size="10.00">mimic++/Sequence.hpp</text>
</a>
</g>
</g>
<!-- Node12&#45;&gt;Node13 -->
<g id="edge24_Node000012_Node000013" class="edge">
<title>Node12&#45;&gt;Node13</title>
<g id="a_edge24_Node000012_Node000013"><a xlink:title=" ">
<path fill="none" stroke="#63b8ff" d="M281.82,-334.47C291.33,-324.98 301.86,-314.47 309.15,-307.2"/>
<polygon fill="#63b8ff" stroke="#63b8ff" points="279.5,-331.84 274.9,-341.38 284.45,-336.79 279.5,-331.84"/>
</a>
</g>
</g>
<!-- Node13&#45;&gt;Node2 -->
<g id="edge25_Node000013_Node000002" class="edge">
<title>Node13&#45;&gt;Node2</title>
<g id="a_edge25_Node000013_Node000002"><a xlink:title=" ">
<path fill="none" stroke="#63b8ff" d="M295.71,-280.88C279.49,-269.9 258.17,-255.47 244.58,-246.28"/>
<polygon fill="#63b8ff" stroke="#63b8ff" points="293.53,-283.63 303.77,-286.33 297.45,-277.83 293.53,-283.63"/>
</a>
</g>
</g>
<!-- Node13&#45;&gt;Node3 -->
<g id="edge26_Node000013_Node000003" class="edge">
<title>Node13&#45;&gt;Node3</title>
<g id="a_edge26_Node000013_Node000003"><a xlink:title=" ">
<path fill="none" stroke="#63b8ff" d="M318.92,-275.88C319.8,-249.55 321.3,-204.65 321.94,-185.48"/>
<polygon fill="#63b8ff" stroke="#63b8ff" points="315.43,-275.5 318.59,-285.61 322.42,-275.73 315.43,-275.5"/>
</a>
</g>
</g>
<!-- Node13&#45;&gt;Node6 -->
<g id="edge27_Node000013_Node000006" class="edge">
<title>Node13&#45;&gt;Node6</title>
<g id="a_edge27_Node000013_Node000006"><a xlink:title=" ">
<path fill="none" stroke="#63b8ff" d="M348.79,-282.12C384.34,-263.47 438.24,-226.87 438.24,-176.38 438.24,-176.38 438.24,-176.38 438.24,-119.12 438.24,-67.11 375.75,-34.41 339.14,-19.71"/>
<polygon fill="#63b8ff" stroke="#63b8ff" points="347.58,-278.81 340.22,-286.43 350.73,-285.06 347.58,-278.81"/>
</a>
</g>
</g>
<!-- Node13&#45;&gt;Node9 -->
<g id="edge28_Node000013_Node000009" class="edge">
<title>Node13&#45;&gt;Node9</title>
<g id="a_edge28_Node000013_Node000009"><a xlink:title=" ">
<path fill="none" stroke="#63b8ff" d="M272,-284.29C235.6,-274.97 184.66,-261.93 145.65,-251.94"/>
<polygon fill="#63b8ff" stroke="#63b8ff" points="270.79,-287.59 281.34,-286.68 272.52,-280.81 270.79,-287.59"/>
</a>
</g>
</g>
<!-- Node14&#45;&gt;Node8 -->
<g id="edge31_Node000014_Node000008" class="edge">
<title>Node14&#45;&gt;Node8</title>
<g id="a_edge31_Node000014_Node000008"><a xlink:title=" ">
<path fill="none" stroke="#63b8ff" d="M463.12,-538.25C512.14,-521.49 573.68,-491.22 603.24,-439.75 636.22,-382.33 539.64,-327.98 496.21,-307.11"/>
<polygon fill="#63b8ff" stroke="#63b8ff" points="462.07,-534.91 453.67,-541.36 464.26,-541.56 462.07,-534.91"/>
</a>
</g>
</g>
<!-- Node14&#45;&gt;Node10 -->
<g id="edge32_Node000014_Node000010" class="edge">
<title>Node14&#45;&gt;Node10</title>
<g id="a_edge32_Node000014_Node000010"><a xlink:title=" ">
<path fill="none" stroke="#63b8ff" d="M430.71,-535.83C443.16,-527.8 456.31,-517.75 466.24,-506.25 485.47,-483.98 497.56,-450.58 502.58,-434.62"/>
<polygon fill="#63b8ff" stroke="#63b8ff" points="428.92,-532.82 422.23,-541.03 432.58,-538.79 428.92,-532.82"/>
</a>
</g>
</g>
<!-- Node14&#45;&gt;Node11 -->
<g id="edge33_Node000014_Node000011" class="edge">
<title>Node14&#45;&gt;Node11</title>
<g id="a_edge33_Node000014_Node000011"><a xlink:title=" ">
<path fill="none" stroke="#63b8ff" d="M348.76,-536.13C336.29,-528.38 323.78,-518.42 315.24,-506.25 301.26,-486.33 297.46,-457.52 296.49,-440.24"/>
<polygon fill="#63b8ff" stroke="#63b8ff" points="346.95,-539.13 357.36,-541.12 350.46,-533.08 346.95,-539.13"/>
</a>
</g>
</g>
<!-- Node14&#45;&gt;Node15 -->
<g id="edge34_Node000014_Node000015" class="edge">
<title>Node14&#45;&gt;Node15</title>
<g id="a_edge34_Node000014_Node000015"><a xlink:title=" ">
<path fill="none" stroke="#63b8ff" d="M391.44,-530.56C391.18,-522.39 390.91,-513.66 390.69,-506.58"/>
<polygon fill="#63b8ff" stroke="#63b8ff" points="387.93,-530.46 391.74,-540.35 394.93,-530.25 387.93,-530.46"/>
</a>
</g>
</g>
<!-- Node15&#45;&gt;Node8 -->
<g id="edge35_Node000015_Node000008" class="edge">
<title>Node15&#45;&gt;Node8</title>
<g id="a_edge35_Node000015_Node000008"><a xlink:title=" ">
<path fill="none" stroke="#63b8ff" d="M393.37,-463.97C395.88,-447.81 400.18,-426.84 407.24,-409.25 423.73,-368.15 455.13,-325.19 469.16,-307.05"/>
<polygon fill="#63b8ff" stroke="#63b8ff" points="389.92,-463.37 391.99,-473.76 396.85,-464.35 389.92,-463.37"/>
</a>
</g>
</g>
<!-- Node15&#45;&gt;Node10 -->
<g id="edge36_Node000015_Node000010" class="edge">
<title>Node15&#45;&gt;Node10</title>
<g id="a_edge36_Node000015_Node000010"><a xlink:title=" ">
<path fill="none" stroke="#63b8ff" d="M426.27,-469.79C447.36,-457.96 472.96,-443.61 489.18,-434.51"/>
<polygon fill="#63b8ff" stroke="#63b8ff" points="424.67,-466.68 417.66,-474.62 428.09,-472.78 424.67,-466.68"/>
</a>
</g>
</g>
<!-- Node15&#45;&gt;Node11 -->
<g id="edge37_Node000015_Node000011" class="edge">
<title>Node15&#45;&gt;Node11</title>
<g id="a_edge37_Node000015_Node000011"><a xlink:title=" ">
<path fill="none" stroke="#63b8ff" d="M359.77,-469.09C345.96,-459.62 329.97,-448.64 317.49,-440.08"/>
<polygon fill="#63b8ff" stroke="#63b8ff" points="357.44,-471.74 367.66,-474.51 361.4,-465.96 357.44,-471.74"/>
</a>
</g>
</g>
</g>
</svg>

<g id="navigator" transform="translate(0 0)" fill="#404254">
  <rect fill="#f2f5e9" fill-opacity="0.5" stroke="#606060" stroke-width=".5" x="0" y="0" width="60" height="60"/>
  <use id="zoomplus" xlink:href="#zoomPlus" x="17" y="9" onmousedown="handleZoom(evt,'in')"/>
  <use id="zoomminus" xlink:href="#zoomMin" x="42" y="9" onmousedown="handleZoom(evt,'out')"/>
  <use id="reset" xlink:href="#resetDef" x="30" y="36" onmousedown="handleReset()"/>
   <use id="arrowup" xlink:href="#arrowUp" x="0" y="0" onmousedown="handlePan(0,-1)"/>
  <use id="arrowright" xlink:href="#arrowRight" x="0" y="0" onmousedown="handlePan(1,0)"/>
  <use id="arrowdown" xlink:href="#arrowDown" x="0" y="0" onmousedown="handlePan(0,1)"/>
  <use id="arrowleft" xlink:href="#arrowLeft" x="0" y="0" onmousedown="handlePan(-1,0)"/>
</g>
<svg viewBox="0 0 15 15" width="100%" height="30px" preserveAspectRatio="xMaxYMin meet">
 <g id="arrow_out" transform="scale(0.3 0.3)">
  <a xlink:href="_expectation_report_8hpp__dep__incl_org.svg" target="_base">
   <rect id="button" ry="5" rx="5" y="6" x="6" height="38" width="38"
        fill="#f2f5e9" fill-opacity="0.5" stroke="#606060" stroke-width="1.0"/>
   <path id="arrow"
     d="M 11.500037,31.436501 C 11.940474,20.09759 22.043105,11.32322 32.158766,21.979434 L 37.068811,17.246167 C 37.068811,17.246167 37.088388,32 37.088388,32 L 22.160133,31.978069 C 22.160133,31.978069 26.997745,27.140456 26.997745,27.140456 C 18.528582,18.264221 13.291696,25.230495 11.500037,31.436501 z"
     style="fill:#404040;"/>
  </a>
 </g>
</svg>

<style type='text/css'>
<![CDATA[
[data-mouse-over-selected='false'] { opacity: 0.7; }
[data-mouse-over-selected='true']  { opacity: 1.0; }
]]>
</style>
<script type="application/ecmascript"><![CDATA[
document.addEventListener('DOMContentLoaded', (event) => {
  highlightEdges();
  highlightAdjacentNodes();
});
]]></script>
</svg>
