<?xml version="1.0" encoding="UTF-8" standalone="no"?>
<!DOCTYPE svg PUBLIC "-//W3C//DTD SVG 1.1//EN"
 "http://www.w3.org/Graphics/SVG/1.1/DTD/svg11.dtd">
<!-- Generated by graphviz version 12.2.1 (20241206.2353)
 -->
<!-- Title: mimic++/MacroExports.hpp Pages: 1 -->
<svg width="350pt" height="94pt"
 viewBox="0.00 0.00 350.25 93.75" xmlns="http://www.w3.org/2000/svg" xmlns:xlink="http://www.w3.org/1999/xlink">
<g id="graph0" class="graph" transform="scale(1 1) rotate(0) translate(4 89.75)">
<title>mimic++/MacroExports.hpp</title>
<!-- Node1 -->
<g id="Node000001" class="node">
<title>Node1</title>
<g id="a_Node000001"><a xlink:title=" ">
<polygon fill="#999999" stroke="#666666" points="222.62,-85.75 88.12,-85.75 88.12,-66.5 222.62,-66.5 222.62,-85.75"/>
<text text-anchor="middle" x="155.38" y="-72.25" font-family="Helvetica,sans-Serif" font-size="10.00">mimic++/MacroExports.hpp</text>
</a>
</g>
</g>
<!-- Node2 -->
<g id="Node000002" class="node">
<title>Node2</title>
<g id="a_Node000002"><a xlink:href="../../d0/dc1/_interface_mocking_8hpp.html" target="_top" xlink:title=" ">
<polygon fill="white" stroke="#666666" points="130.75,-30.5 0,-30.5 0,0 130.75,0 130.75,-30.5"/>
<text text-anchor="start" x="8" y="-17" font-family="Helvetica,sans-Serif" font-size="10.00">mimic++/macros/Interface</text>
<text text-anchor="middle" x="65.38" y="-5.75" font-family="Helvetica,sans-Serif" font-size="10.00">Mocking.hpp</text>
</a>
</g>
</g>
<!-- Node1&#45;&gt;Node2 -->
<g id="edge1_Node000001_Node000002" class="edge">
<title>Node1&#45;&gt;Node2</title>
<g id="a_edge1_Node000001_Node000002"><a xlink:title=" ">
<path fill="none" stroke="#63b8ff" d="M141.71,-66.18C129.93,-58.48 112.46,-47.05 97.21,-37.08"/>
<polygon fill="#63b8ff" stroke="#63b8ff" points="99.14,-34.16 88.86,-31.61 95.31,-40.01 99.14,-34.16"/>
</a>
</g>
</g>
<!-- Node3 -->
<g id="Node000003" class="node">
<title>Node3</title>
<g id="a_Node000003"><a xlink:href="../../d2/d1d/_scoped_expectation_8hpp.html" target="_top" xlink:title=" ">
<polygon fill="white" stroke="#666666" points="342.25,-24.88 148.5,-24.88 148.5,-5.63 342.25,-5.63 342.25,-24.88"/>
<text text-anchor="middle" x="245.38" y="-11.38" font-family="Helvetica,sans-Serif" font-size="10.00">mimic++/macros/ScopedExpectation.hpp</text>
</a>
</g>
</g>
<!-- Node1&#45;&gt;Node3 -->
<g id="edge2_Node000001_Node000003" class="edge">
<title>Node1&#45;&gt;Node3</title>
<g id="a_edge2_Node000001_Node000003"><a xlink:title=" ">
<path fill="none" stroke="#63b8ff" d="M169.04,-66.18C183.18,-56.93 205.52,-42.32 222.38,-31.29"/>
<polygon fill="#63b8ff" stroke="#63b8ff" points="223.86,-34.51 230.31,-26.1 220.03,-28.65 223.86,-34.51"/>
</a>
</g>
</g>
</g>
</svg>
