<?xml version="1.0" encoding="UTF-8" standalone="no"?>
<!DOCTYPE svg PUBLIC "-//W3C//DTD SVG 1.1//EN"
 "http://www.w3.org/Graphics/SVG/1.1/DTD/svg11.dtd">
<!-- Generated by graphviz version 12.2.1 (20241206.2353)
 -->
<!-- Title: mimicpp::is_overloadable_with&lt; First, Second &gt; Pages: 1 -->
<!--zoomable 93 -->

<svg id="main" version="1.1" xmlns="http://www.w3.org/2000/svg" xmlns:xlink="http://www.w3.org/1999/xlink" xml:space="preserve" onload="init(evt)">

<style type="text/css"><![CDATA[
.node, .edge {opacity: 0.7;}
.node.selected, .edge.selected {opacity: 1;}
.edge:hover path { stroke: red; }
.edge:hover polygon { stroke: red; fill: red; }
]]></style>

<defs>
  <circle id="rim" cx="0" cy="0" r="7"/>
  <circle id="rim2" cx="0" cy="0" r="3.5"/>
  <g id="zoomPlus">
    <use xlink:href="#rim" fill="#404040"><set attributeName="fill" to="#808080" begin="zoomplus.mouseover" end="zoomplus.mouseout"/></use>
    <path d="M-4,0h8M0,-4v8" fill="none" stroke="white" stroke-width="1.5" pointer-events="none"/>
  </g>
  <g id="zoomMin">
    <use xlink:href="#rim" fill="#404040"><set attributeName="fill" to="#808080" begin="zoomminus.mouseover" end="zoomminus.mouseout"/></use>
    <path d="M-4,0h8" fill="none" stroke="white" stroke-width="1.5" pointer-events="none"/>
  </g>
  <g id="arrowUp" transform="translate(30 24)">
    <use xlink:href="#rim"/>
    <path pointer-events="none" fill="none" stroke="white" stroke-width="1.5" d="M0,-3.0v7 M-2.5,-0.5L0,-3.0L2.5,-0.5"/>
  </g>
  <g id="arrowRight" transform="rotate(90) translate(36 -43)">
    <use xlink:href="#rim"/>
    <path pointer-events="none" fill="none" stroke="white" stroke-width="1.5" d="M0,-3.0v7 M-2.5,-0.5L0,-3.0L2.5,-0.5"/>
  </g>
  <g id="arrowDown" transform="rotate(180) translate(-30 -48)">
    <use xlink:href="#rim"/>
    <path pointer-events="none" fill="none" stroke="white" stroke-width="1.5" d="M0,-3.0v7 M-2.5,-0.5L0,-3.0L2.5,-0.5"/>
  </g>
  <g id="arrowLeft" transform="rotate(270) translate(-36 17)">
    <use xlink:href="#rim"/>
    <path pointer-events="none" fill="none" stroke="white" stroke-width="1.5" d="M0,-3.0v7 M-2.5,-0.5L0,-3.0L2.5,-0.5"/>
  </g>
  <g id="resetDef">
    <use xlink:href="#rim2" fill="#404040"><set attributeName="fill" to="#808080" begin="reset.mouseover" end="reset.mouseout"/></use>
  </g>
</defs>
<script type="application/ecmascript">
var viewWidth = 776;
var viewHeight = 93;
var sectionId = 'dynsection-0';
</script>
<script type="application/ecmascript" xlink:href="../../svg.min.js"/>
<svg id="graph" class="graph">
<g id="viewport">
<title>mimicpp::is_overloadable_with&lt; First, Second &gt;</title>
<!-- Node1 -->
<g id="Node000001" class="node">
<title>Node1</title>
<g id="a_Node000001"><a xlink:title="Primary template.">
<polygon fill="#999999" stroke="#666666" points="768,-60.12 643.25,-60.12 643.25,-29.62 768,-29.62 768,-60.12"/>
<text text-anchor="start" x="651.25" y="-46.62" font-family="Helvetica,sans-Serif" font-size="10.00">mimicpp::is_overloadable</text>
<text text-anchor="middle" x="705.62" y="-35.38" font-family="Helvetica,sans-Serif" font-size="10.00">_with&lt; First, Second &gt;</text>
</a>
</g>
</g>
<!-- Node2 -->
<g id="Node000002" class="node">
<title>Node2</title>
<g id="a_Node000002"><a xlink:title=" ">
<polygon fill="white" stroke="#666666" points="606.25,-77 471.75,-77 471.75,-12.75 606.25,-12.75 606.25,-77"/>
<text text-anchor="start" x="479.75" y="-63.5" font-family="Helvetica,sans-Serif" font-size="10.00">mimicpp::detail::is</text>
<text text-anchor="start" x="479.75" y="-52.25" font-family="Helvetica,sans-Serif" font-size="10.00">_overloadable_with&lt;</text>
<text text-anchor="start" x="479.75" y="-41" font-family="Helvetica,sans-Serif" font-size="10.00"> detail::normalize_overload</text>
<text text-anchor="start" x="479.75" y="-29.75" font-family="Helvetica,sans-Serif" font-size="10.00">_t&lt; First &gt;, detail::normalize</text>
<text text-anchor="middle" x="539" y="-18.5" font-family="Helvetica,sans-Serif" font-size="10.00">_overload_t&lt; Second &gt; &gt;</text>
</a>
</g>
</g>
<!-- Node2&#45;&gt;Node1 -->
<g id="edge1_Node000001_Node000002" class="edge">
<title>Node2&#45;&gt;Node1</title>
<g id="a_edge1_Node000001_Node000002"><a xlink:title=" ">
<path fill="none" stroke="#63b8ff" d="M617.88,-44.88C626.29,-44.88 634.77,-44.88 642.95,-44.88"/>
<polygon fill="#63b8ff" stroke="#63b8ff" points="618,-41.38 608,-44.88 618,-48.38 618,-41.38"/>
</a>
</g>
</g>
<!-- Node3 -->
<g id="Node000003" class="node">
<title>Node3</title>
<g id="a_Node000003"><a xlink:title=" ">
<polygon fill="white" stroke="#666666" points="143.5,-85.38 0,-85.38 0,-32.38 143.5,-32.38 143.5,-85.38"/>
<text text-anchor="start" x="8" y="-71.88" font-family="Helvetica,sans-Serif" font-size="10.00">std::conditional_t</text>
<text text-anchor="start" x="8" y="-60.62" font-family="Helvetica,sans-Serif" font-size="10.00">&lt; false, std::false</text>
<text text-anchor="start" x="8" y="-49.38" font-family="Helvetica,sans-Serif" font-size="10.00">_type, is_overloadable</text>
<text text-anchor="middle" x="71.75" y="-38.12" font-family="Helvetica,sans-Serif" font-size="10.00">_with&lt; Second, First, true &gt; &gt;</text>
</a>
</g>
</g>
<!-- Node3&#45;&gt;Node2 -->
<g id="edge2_Node000002_Node000003" class="edge">
<title>Node3&#45;&gt;Node2</title>
<g id="a_edge2_Node000002_Node000003"><a xlink:title=" ">
<path fill="none" stroke="#63b8ff" d="M154.86,-69.38C232.35,-77.37 351.54,-84.72 453.75,-69.88 459.64,-69.02 465.69,-67.84 471.71,-66.47"/>
<polygon fill="#63b8ff" stroke="#63b8ff" points="155.56,-65.93 145.25,-68.36 154.82,-72.89 155.56,-65.93"/>
</a>
</g>
</g>
<!-- Node4 -->
<g id="Node000004" class="node">
<title>Node4</title>
<g id="a_Node000004"><a xlink:title=" ">
<polygon fill="white" stroke="#666666" points="307.5,-41.75 180.5,-41.75 180.5,0 307.5,0 307.5,-41.75"/>
<text text-anchor="start" x="188.5" y="-28.25" font-family="Helvetica,sans-Serif" font-size="10.00">mimicpp::detail::is</text>
<text text-anchor="start" x="188.5" y="-17" font-family="Helvetica,sans-Serif" font-size="10.00">_overloadable_with&lt;</text>
<text text-anchor="middle" x="244" y="-5.75" font-family="Helvetica,sans-Serif" font-size="10.00"> First, Second, reversed &gt;</text>
</a>
</g>
</g>
<!-- Node3&#45;&gt;Node4 -->
<g id="edge4_Node000004_Node000003" class="edge">
<title>Node3&#45;&gt;Node4</title>
<g id="a_edge4_Node000004_Node000003"><a xlink:title=" ">
<path fill="none" stroke="#63b8ff" d="M155.04,-40.51C163.5,-38.62 171.99,-36.72 180.19,-34.89"/>
<polygon fill="#63b8ff" stroke="#63b8ff" points="154.44,-37.06 145.44,-42.65 155.96,-43.89 154.44,-37.06"/>
</a>
</g>
</g>
<!-- Node4&#45;&gt;Node2 -->
<g id="edge3_Node000002_Node000004" class="edge">
<title>Node4&#45;&gt;Node2</title>
<g id="a_edge3_Node000002_Node000004"><a xlink:title=" ">
<path fill="none" stroke="orange" stroke-dasharray="5,2" d="M319.1,-6C359.33,-0.4 409.7,2.6 453.75,-6.88 460.02,-8.22 466.4,-10.08 472.68,-12.25"/>
<polygon fill="orange" stroke="orange" points="318.64,-2.53 309.26,-7.46 319.67,-9.45 318.64,-2.53"/>
</a>
</g>
<text text-anchor="start" x="328.5" y="-57.38" font-family="Helvetica,sans-Serif" font-size="10.00" fill="grey">&lt; detail::normalize</text>
<text text-anchor="start" x="328.5" y="-42.12" font-family="Helvetica,sans-Serif" font-size="10.00" fill="grey">  _overload_t&lt; First &gt;</text>
<text text-anchor="start" x="328.5" y="-26.88" font-family="Helvetica,sans-Serif" font-size="10.00" fill="grey">  , detail::normalize_overload</text>
<text text-anchor="start" x="328.5" y="-11.62" font-family="Helvetica,sans-Serif" font-size="10.00" fill="grey">  _t&lt; Second &gt; &gt;</text>
</g>
</g>
</svg>

<g id="navigator" transform="translate(0 0)" fill="#404254">
  <rect fill="#f2f5e9" fill-opacity="0.5" stroke="#606060" stroke-width=".5" x="0" y="0" width="60" height="60"/>
  <use id="zoomplus" xlink:href="#zoomPlus" x="17" y="9" onmousedown="handleZoom(evt,'in')"/>
  <use id="zoomminus" xlink:href="#zoomMin" x="42" y="9" onmousedown="handleZoom(evt,'out')"/>
  <use id="reset" xlink:href="#resetDef" x="30" y="36" onmousedown="handleReset()"/>
   <use id="arrowup" xlink:href="#arrowUp" x="0" y="0" onmousedown="handlePan(0,-1)"/>
  <use id="arrowright" xlink:href="#arrowRight" x="0" y="0" onmousedown="handlePan(1,0)"/>
  <use id="arrowdown" xlink:href="#arrowDown" x="0" y="0" onmousedown="handlePan(0,1)"/>
  <use id="arrowleft" xlink:href="#arrowLeft" x="0" y="0" onmousedown="handlePan(-1,0)"/>
</g>
<svg viewBox="0 0 15 15" width="100%" height="30px" preserveAspectRatio="xMaxYMin meet">
 <g id="arrow_out" transform="scale(0.3 0.3)">
  <a xlink:href="structmimicpp_1_1is__overloadable__with__inherit__graph_org.svg" target="_base">
   <rect id="button" ry="5" rx="5" y="6" x="6" height="38" width="38"
        fill="#f2f5e9" fill-opacity="0.5" stroke="#606060" stroke-width="1.0"/>
   <path id="arrow"
     d="M 11.500037,31.436501 C 11.940474,20.09759 22.043105,11.32322 32.158766,21.979434 L 37.068811,17.246167 C 37.068811,17.246167 37.088388,32 37.088388,32 L 22.160133,31.978069 C 22.160133,31.978069 26.997745,27.140456 26.997745,27.140456 C 18.528582,18.264221 13.291696,25.230495 11.500037,31.436501 z"
     style="fill:#404040;"/>
  </a>
 </g>
</svg>

<style type='text/css'>
<![CDATA[
[data-mouse-over-selected='false'] { opacity: 0.7; }
[data-mouse-over-selected='true']  { opacity: 1.0; }
]]>
</style>
<script type="application/ecmascript"><![CDATA[
document.addEventListener('DOMContentLoaded', (event) => {
  highlightEdges();
  highlightAdjacentNodes();
});
]]></script>
</svg>
