<?xml version="1.0" encoding="UTF-8" standalone="no"?>
<!DOCTYPE svg PUBLIC "-//W3C//DTD SVG 1.1//EN"
 "http://www.w3.org/Graphics/SVG/1.1/DTD/svg11.dtd">
<!-- Generated by graphviz version 12.1.1 (20240910.0053)
 -->
<!-- Title: mimic++/Sequence.hpp Pages: 1 -->
<svg width="444pt" height="414pt"
 viewBox="0.00 0.00 444.00 414.00" xmlns="http://www.w3.org/2000/svg" xmlns:xlink="http://www.w3.org/1999/xlink">
<g id="graph0" class="graph" transform="scale(1 1) rotate(0) translate(4 410)">
<title>mimic++/Sequence.hpp</title>
<!-- Node1 -->
<g id="Node000001" class="node">
<title>Node1</title>
<g id="a_Node000001"><a xlink:title=" ">
<polygon fill="#999999" stroke="#666666" points="427.38,-406 308.62,-406 308.62,-386.75 427.38,-386.75 427.38,-406"/>
<text text-anchor="middle" x="368" y="-392.5" font-family="Helvetica,sans-Serif" font-size="10.00">mimic++/Sequence.hpp</text>
</a>
</g>
</g>
<!-- Node2 -->
<g id="Node000002" class="node">
<title>Node2</title>
<g id="a_Node000002"><a xlink:href="../../d6/d17/_control_policy_8hpp.html" target="_top" xlink:title=" ">
<polygon fill="white" stroke="#666666" points="323.12,-350.75 190.88,-350.75 190.88,-331.5 323.12,-331.5 323.12,-350.75"/>
<text text-anchor="middle" x="257" y="-337.25" font-family="Helvetica,sans-Serif" font-size="10.00">mimic++/ControlPolicy.hpp</text>
</a>
</g>
</g>
<!-- Node1&#45;&gt;Node2 -->
<g id="edge1_Node000001_Node000002" class="edge">
<title>Node1&#45;&gt;Node2</title>
<g id="a_edge1_Node000001_Node000002"><a xlink:title=" ">
<path fill="none" stroke="#63b8ff" d="M338.82,-381.37C318.93,-371.83 293.17,-359.48 275.92,-351.2"/>
<polygon fill="#63b8ff" stroke="#63b8ff" points="337.28,-384.52 347.81,-385.69 340.3,-378.21 337.28,-384.52"/>
</a>
</g>
</g>
<!-- Node4 -->
<g id="Node000004" class="node">
<title>Node4</title>
<g id="a_Node000004"><a xlink:href="../../d2/d4f/_expectation_builder_8hpp.html" target="_top" xlink:title=" ">
<polygon fill="white" stroke="#666666" points="407.75,-185 252.25,-185 252.25,-165.75 407.75,-165.75 407.75,-185"/>
<text text-anchor="middle" x="330" y="-171.5" font-family="Helvetica,sans-Serif" font-size="10.00">mimic++/ExpectationBuilder.hpp</text>
</a>
</g>
</g>
<!-- Node1&#45;&gt;Node4 -->
<g id="edge17_Node000001_Node000004" class="edge">
<title>Node1&#45;&gt;Node4</title>
<g id="a_edge17_Node000001_Node000004"><a xlink:title=" ">
<path fill="none" stroke="#63b8ff" d="M366.08,-375.54C362.72,-343.02 354.98,-276.42 343,-221 340.27,-208.38 335.88,-194.1 332.96,-185.17"/>
<polygon fill="#63b8ff" stroke="#63b8ff" points="362.55,-375.48 367.03,-385.08 369.52,-374.78 362.55,-375.48"/>
</a>
</g>
</g>
<!-- Node7 -->
<g id="Node000007" class="node">
<title>Node7</title>
<g id="a_Node000007"><a xlink:href="../../d0/db9/mimic_09_09_8hpp.html" target="_top" xlink:title=" ">
<polygon fill="white" stroke="#666666" points="251.75,-19.25 138.25,-19.25 138.25,0 251.75,0 251.75,-19.25"/>
<text text-anchor="middle" x="195" y="-5.75" font-family="Helvetica,sans-Serif" font-size="10.00">mimic++/mimic++.hpp</text>
</a>
</g>
</g>
<!-- Node1&#45;&gt;Node7 -->
<g id="edge18_Node000001_Node000007" class="edge">
<title>Node1&#45;&gt;Node7</title>
<g id="a_edge18_Node000001_Node000007"><a xlink:title=" ">
<path fill="none" stroke="#63b8ff" d="M386.85,-378.7C406.98,-358.97 436,-324.06 436,-286.88 436,-286.88 436,-286.88 436,-119.12 436,-38.83 323.38,-17.61 252.11,-12.22"/>
<polygon fill="#63b8ff" stroke="#63b8ff" points="384.62,-375.99 379.73,-385.39 389.41,-381.1 384.62,-375.99"/>
</a>
</g>
</g>
<!-- Node3 -->
<g id="Node000003" class="node">
<title>Node3</title>
<g id="a_Node000003"><a xlink:href="../../d5/d8a/_expectation_8hpp.html" target="_top" xlink:title=" ">
<polygon fill="white" stroke="#666666" points="301.75,-295.5 176.25,-295.5 176.25,-276.25 301.75,-276.25 301.75,-295.5"/>
<text text-anchor="middle" x="239" y="-282" font-family="Helvetica,sans-Serif" font-size="10.00">mimic++/Expectation.hpp</text>
</a>
</g>
</g>
<!-- Node2&#45;&gt;Node3 -->
<g id="edge2_Node000002_Node000003" class="edge">
<title>Node2&#45;&gt;Node3</title>
<g id="a_edge2_Node000002_Node000003"><a xlink:title=" ">
<path fill="none" stroke="#63b8ff" d="M250.35,-320.46C247.5,-312.02 244.31,-302.58 242.04,-295.86"/>
<polygon fill="#63b8ff" stroke="#63b8ff" points="247.02,-321.55 253.54,-329.9 253.66,-319.3 247.02,-321.55"/>
</a>
</g>
</g>
<!-- Node2&#45;&gt;Node4 -->
<g id="edge15_Node000002_Node000004" class="edge">
<title>Node2&#45;&gt;Node4</title>
<g id="a_edge15_Node000002_Node000004"><a xlink:title=" ">
<path fill="none" stroke="#63b8ff" d="M283,-324.6C293.33,-317.1 304.32,-307.18 311,-295.5 331.89,-258.95 331.69,-206.36 330.64,-185.45"/>
<polygon fill="#63b8ff" stroke="#63b8ff" points="281.06,-321.69 274.72,-330.18 284.97,-327.5 281.06,-321.69"/>
</a>
</g>
</g>
<!-- Node2&#45;&gt;Node7 -->
<g id="edge16_Node000002_Node000007" class="edge">
<title>Node2&#45;&gt;Node7</title>
<g id="a_edge16_Node000002_Node000007"><a xlink:title=" ">
<path fill="none" stroke="#63b8ff" d="M179.07,-338.76C103.44,-332.81 0,-310.28 0,-231.62 0,-231.62 0,-231.62 0,-119.12 0,-55.49 80.27,-28.85 137.81,-17.92"/>
<polygon fill="#63b8ff" stroke="#63b8ff" points="178.75,-342.25 188.97,-339.45 179.24,-335.27 178.75,-342.25"/>
</a>
</g>
</g>
<!-- Node3&#45;&gt;Node4 -->
<g id="edge3_Node000003_Node000004" class="edge">
<title>Node3&#45;&gt;Node4</title>
<g id="a_edge3_Node000003_Node000004"><a xlink:title=" ">
<path fill="none" stroke="#63b8ff" d="M253.65,-267.41C273.27,-244.02 307.37,-203.36 322.45,-185.38"/>
<polygon fill="#63b8ff" stroke="#63b8ff" points="251.16,-264.93 247.42,-274.84 256.53,-269.42 251.16,-264.93"/>
</a>
</g>
</g>
<!-- Node5 -->
<g id="Node000005" class="node">
<title>Node5</title>
<g id="a_Node000005"><a xlink:href="../../d5/dc5/_mock_8hpp.html" target="_top" xlink:title=" ">
<polygon fill="white" stroke="#666666" points="273.62,-129.75 174.38,-129.75 174.38,-110.5 273.62,-110.5 273.62,-129.75"/>
<text text-anchor="middle" x="224" y="-116.25" font-family="Helvetica,sans-Serif" font-size="10.00">mimic++/Mock.hpp</text>
</a>
</g>
</g>
<!-- Node3&#45;&gt;Node5 -->
<g id="edge13_Node000003_Node000005" class="edge">
<title>Node3&#45;&gt;Node5</title>
<g id="a_edge13_Node000003_Node000005"><a xlink:title=" ">
<path fill="none" stroke="#63b8ff" d="M237.96,-264.32C237.26,-251.79 236.25,-235.46 235,-221 232.1,-187.46 227.32,-147.72 225.14,-130.2"/>
<polygon fill="#63b8ff" stroke="#63b8ff" points="234.46,-264.46 238.49,-274.26 241.45,-264.09 234.46,-264.46"/>
</a>
</g>
</g>
<!-- Node3&#45;&gt;Node7 -->
<g id="edge14_Node000003_Node000007" class="edge">
<title>Node3&#45;&gt;Node7</title>
<g id="a_edge14_Node000003_Node000007"><a xlink:title=" ">
<path fill="none" stroke="#63b8ff" d="M165,-274.35C121.8,-266.78 72.77,-255.27 57,-240.25 35.55,-219.82 38,-205.99 38,-176.38 38,-176.38 38,-176.38 38,-119.12 38,-62.3 108.46,-32.92 154.98,-19.71"/>
<polygon fill="#63b8ff" stroke="#63b8ff" points="164.19,-277.76 174.63,-275.98 165.36,-270.86 164.19,-277.76"/>
</a>
</g>
</g>
<!-- Node8 -->
<g id="Node000008" class="node">
<title>Node8</title>
<g id="a_Node000008"><a xlink:href="../../d8/de5/_expectation_policies_8hpp.html" target="_top" xlink:title=" ">
<polygon fill="white" stroke="#666666" points="226,-240.25 66,-240.25 66,-221 226,-221 226,-240.25"/>
<text text-anchor="middle" x="146" y="-226.75" font-family="Helvetica,sans-Serif" font-size="10.00">mimic++/ExpectationPolicies.hpp</text>
</a>
</g>
</g>
<!-- Node3&#45;&gt;Node8 -->
<g id="edge9_Node000003_Node000008" class="edge">
<title>Node3&#45;&gt;Node8</title>
<g id="a_edge9_Node000003_Node000008"><a xlink:title=" ">
<path fill="none" stroke="#63b8ff" d="M213.62,-270.34C197.09,-260.88 176.04,-248.83 161.85,-240.7"/>
<polygon fill="#63b8ff" stroke="#63b8ff" points="211.49,-273.16 221.91,-275.09 214.97,-267.08 211.49,-273.16"/>
</a>
</g>
</g>
<!-- Node4&#45;&gt;Node5 -->
<g id="edge4_Node000004_Node000005" class="edge">
<title>Node4&#45;&gt;Node5</title>
<g id="a_edge4_Node000004_Node000005"><a xlink:title=" ">
<path fill="none" stroke="#63b8ff" d="M301.87,-160.24C282.91,-150.72 258.47,-138.44 242.07,-130.2"/>
<polygon fill="#63b8ff" stroke="#63b8ff" points="300.16,-163.3 310.67,-164.66 303.3,-157.05 300.16,-163.3"/>
</a>
</g>
</g>
<!-- Node4&#45;&gt;Node7 -->
<g id="edge8_Node000004_Node000007" class="edge">
<title>Node4&#45;&gt;Node7</title>
<g id="a_edge8_Node000004_Node000007"><a xlink:title=" ">
<path fill="none" stroke="#63b8ff" d="M327.86,-154.12C324.15,-128.28 314.32,-83.57 289,-55.25 273.35,-37.74 249.35,-26.51 229.52,-19.69"/>
<polygon fill="#63b8ff" stroke="#63b8ff" points="324.37,-154.43 329.07,-163.93 331.32,-153.57 324.37,-154.43"/>
</a>
</g>
</g>
<!-- Node6 -->
<g id="Node000006" class="node">
<title>Node6</title>
<g id="a_Node000006"><a xlink:href="../../d9/dc3/_interface_mock_8hpp.html" target="_top" xlink:title=" ">
<polygon fill="white" stroke="#666666" points="263.75,-74.5 126.25,-74.5 126.25,-55.25 263.75,-55.25 263.75,-74.5"/>
<text text-anchor="middle" x="195" y="-61" font-family="Helvetica,sans-Serif" font-size="10.00">mimic++/InterfaceMock.hpp</text>
</a>
</g>
</g>
<!-- Node5&#45;&gt;Node6 -->
<g id="edge5_Node000005_Node000006" class="edge">
<title>Node5&#45;&gt;Node6</title>
<g id="a_edge5_Node000005_Node000006"><a xlink:title=" ">
<path fill="none" stroke="#63b8ff" d="M213.76,-100.33C209.05,-91.67 203.68,-81.81 199.89,-74.86"/>
<polygon fill="#63b8ff" stroke="#63b8ff" points="210.63,-101.89 218.49,-109 216.78,-98.55 210.63,-101.89"/>
</a>
</g>
</g>
<!-- Node5&#45;&gt;Node7 -->
<g id="edge7_Node000005_Node000007" class="edge">
<title>Node5&#45;&gt;Node7</title>
<g id="a_edge7_Node000005_Node000007"><a xlink:title=" ">
<path fill="none" stroke="#63b8ff" d="M248.76,-103.86C265.67,-91.4 283.29,-73 273,-55.25 262.82,-37.71 242.87,-26.47 225.69,-19.66"/>
<polygon fill="#63b8ff" stroke="#63b8ff" points="247.13,-100.74 240.86,-109.28 251.09,-106.51 247.13,-100.74"/>
</a>
</g>
</g>
<!-- Node6&#45;&gt;Node7 -->
<g id="edge6_Node000006_Node000007" class="edge">
<title>Node6&#45;&gt;Node7</title>
<g id="a_edge6_Node000006_Node000007"><a xlink:title=" ">
<path fill="none" stroke="#63b8ff" d="M195,-43.63C195,-35.34 195,-26.17 195,-19.61"/>
<polygon fill="#63b8ff" stroke="#63b8ff" points="191.5,-43.57 195,-53.57 198.5,-43.57 191.5,-43.57"/>
</a>
</g>
</g>
<!-- Node8&#45;&gt;Node4 -->
<g id="edge10_Node000008_Node000004" class="edge">
<title>Node8&#45;&gt;Node4</title>
<g id="a_edge10_Node000008_Node000004"><a xlink:title=" ">
<path fill="none" stroke="#63b8ff" d="M188.1,-217.44C221.75,-207.7 268.18,-194.27 298.63,-185.45"/>
<polygon fill="#63b8ff" stroke="#63b8ff" points="187.3,-214.03 178.67,-220.17 189.25,-220.75 187.3,-214.03"/>
</a>
</g>
</g>
<!-- Node8&#45;&gt;Node5 -->
<g id="edge11_Node000008_Node000005" class="edge">
<title>Node8&#45;&gt;Node5</title>
<g id="a_edge11_Node000008_Node000005"><a xlink:title=" ">
<path fill="none" stroke="#63b8ff" d="M159,-211.54C175.89,-188.05 204.71,-147.95 217.53,-130.13"/>
<polygon fill="#63b8ff" stroke="#63b8ff" points="156.26,-209.35 153.27,-219.52 161.95,-213.44 156.26,-209.35"/>
</a>
</g>
</g>
<!-- Node8&#45;&gt;Node7 -->
<g id="edge12_Node000008_Node000007" class="edge">
<title>Node8&#45;&gt;Node7</title>
<g id="a_edge12_Node000008_Node000007"><a xlink:title=" ">
<path fill="none" stroke="#63b8ff" d="M135.26,-210.66C117.75,-176.99 87.81,-105.58 117,-55.25 127.18,-37.71 147.13,-26.47 164.31,-19.66"/>
<polygon fill="#63b8ff" stroke="#63b8ff" points="132.05,-212.09 139.89,-219.22 138.21,-208.76 132.05,-212.09"/>
</a>
</g>
</g>
</g>
</svg>
