<?xml version="1.0" encoding="UTF-8" standalone="no"?>
<!DOCTYPE svg PUBLIC "-//W3C//DTD SVG 1.1//EN"
 "http://www.w3.org/Graphics/SVG/1.1/DTD/svg11.dtd">
<!-- Generated by graphviz version 12.1.2 (20240928.0832)
 -->
<!-- Title: mimicpp::expectation_policies::Constness::matches Pages: 1 -->
<svg width="411pt" height="50pt"
 viewBox="0.00 0.00 410.75 49.75" xmlns="http://www.w3.org/2000/svg" xmlns:xlink="http://www.w3.org/1999/xlink">
<g id="graph0" class="graph" transform="scale(1 1) rotate(0) translate(4 45.75)">
<title>mimicpp::expectation_policies::Constness::matches</title>
<!-- Node1 -->
<g id="Node000001" class="node">
<title>Node1</title>
<g id="a_Node000001"><a xlink:title=" ">
<polygon fill="#999999" stroke="#666666" points="106.75,-41.75 0,-41.75 0,0 106.75,0 106.75,-41.75"/>
<text text-anchor="start" x="8" y="-28.25" font-family="Helvetica,sans-Serif" font-size="10.00">mimicpp::expectation</text>
<text text-anchor="start" x="8" y="-17" font-family="Helvetica,sans-Serif" font-size="10.00">_policies::Constness</text>
<text text-anchor="middle" x="53.38" y="-5.75" font-family="Helvetica,sans-Serif" font-size="10.00">::matches</text>
</a>
</g>
</g>
<!-- Node2 -->
<g id="Node000002" class="node">
<title>Node2</title>
<g id="a_Node000002"><a xlink:href="../../d1/d11/namespacemimicpp.html#a68c1d279c259f2aef30a89cd5e0d7485" target="_top" xlink:title=" ">
<polygon fill="white" stroke="#666666" points="252.5,-30.5 142.75,-30.5 142.75,-11.25 252.5,-11.25 252.5,-30.5"/>
<text text-anchor="middle" x="197.62" y="-17" font-family="Helvetica,sans-Serif" font-size="10.00">mimicpp::is_matching</text>
</a>
</g>
</g>
<!-- Node1&#45;&gt;Node2 -->
<g id="edge1_Node000001_Node000002" class="edge">
<title>Node1&#45;&gt;Node2</title>
<g id="a_edge1_Node000001_Node000002"><a xlink:title=" ">
<path fill="none" stroke="#63b8ff" d="M106.94,-20.88C114.79,-20.88 122.97,-20.88 131.05,-20.88"/>
<polygon fill="#63b8ff" stroke="#63b8ff" points="130.86,-24.38 140.86,-20.88 130.86,-17.38 130.86,-24.38"/>
</a>
</g>
</g>
<!-- Node3 -->
<g id="Node000003" class="node">
<title>Node3</title>
<g id="a_Node000003"><a xlink:href="../../d1/d11/namespacemimicpp.html#add9703907de32b233525df612144e00f" target="_top" xlink:title=" ">
<polygon fill="white" stroke="#666666" points="402.75,-30.5 288.5,-30.5 288.5,-11.25 402.75,-11.25 402.75,-30.5"/>
<text text-anchor="middle" x="345.62" y="-17" font-family="Helvetica,sans-Serif" font-size="10.00">mimicpp::to_underlying</text>
</a>
</g>
</g>
<!-- Node2&#45;&gt;Node3 -->
<g id="edge2_Node000002_Node000003" class="edge">
<title>Node2&#45;&gt;Node3</title>
<g id="a_edge2_Node000002_Node000003"><a xlink:title=" ">
<path fill="none" stroke="#63b8ff" d="M252.99,-20.88C260.81,-20.88 268.95,-20.88 276.99,-20.88"/>
<polygon fill="#63b8ff" stroke="#63b8ff" points="276.75,-24.38 286.75,-20.88 276.75,-17.38 276.75,-24.38"/>
</a>
</g>
</g>
</g>
</svg>
