<?xml version="1.0" encoding="UTF-8" standalone="no"?>
<!DOCTYPE svg PUBLIC "-//W3C//DTD SVG 1.1//EN"
 "http://www.w3.org/Graphics/SVG/1.1/DTD/svg11.dtd">
<!-- Generated by graphviz version 12.2.1 (20241206.2353)
 -->
<!-- Title: mimic++/printing/TypePrinter.hpp Pages: 1 -->
<svg width="1378pt" height="625pt"
 viewBox="0.00 0.00 1378.00 624.75" xmlns="http://www.w3.org/2000/svg" xmlns:xlink="http://www.w3.org/1999/xlink">
<g id="graph0" class="graph" transform="scale(1 1) rotate(0) translate(4 620.75)">
<title>mimic++/printing/TypePrinter.hpp</title>
<!-- Node1 -->
<g id="Node000001" class="node">
<title>Node1</title>
<g id="a_Node000001"><a xlink:title=" ">
<polygon fill="#999999" stroke="#666666" points="391.62,-616.75 232.38,-616.75 232.38,-597.5 391.62,-597.5 391.62,-616.75"/>
<text text-anchor="middle" x="312" y="-603.25" font-family="Helvetica,sans-Serif" font-size="10.00">mimic++/printing/TypePrinter.hpp</text>
</a>
</g>
</g>
<!-- Node2 -->
<g id="Node000002" class="node">
<title>Node2</title>
<g id="a_Node000002"><a xlink:href="../../da/dab/_printer_8hpp.html" target="_top" xlink:title=" ">
<polygon fill="white" stroke="#666666" points="415.88,-495 312.12,-495 312.12,-475.75 415.88,-475.75 415.88,-495"/>
<text text-anchor="middle" x="364" y="-481.5" font-family="Helvetica,sans-Serif" font-size="10.00">mimic++/Printer.hpp</text>
</a>
</g>
</g>
<!-- Node1&#45;&gt;Node2 -->
<g id="edge1_Node000001_Node000002" class="edge">
<title>Node1&#45;&gt;Node2</title>
<g id="a_edge1_Node000001_Node000002"><a xlink:title=" ">
<path fill="none" stroke="#63b8ff" d="M314.81,-586.51C317.54,-570.92 322.55,-548.85 331,-531 337.43,-517.41 348.28,-503.82 355.77,-495.26"/>
<polygon fill="#63b8ff" stroke="#63b8ff" points="311.43,-585.5 313.32,-595.92 318.34,-586.59 311.43,-585.5"/>
</a>
</g>
</g>
<!-- Node5 -->
<g id="Node000005" class="node">
<title>Node5</title>
<g id="a_Node000005"><a xlink:href="../../d0/db9/mimic_09_09_8hpp.html" target="_top" xlink:title=" ">
<polygon fill="white" stroke="#666666" points="708.75,-19.25 595.25,-19.25 595.25,0 708.75,0 708.75,-19.25"/>
<text text-anchor="middle" x="652" y="-5.75" font-family="Helvetica,sans-Serif" font-size="10.00">mimic++/mimic++.hpp</text>
</a>
</g>
</g>
<!-- Node1&#45;&gt;Node5 -->
<g id="edge47_Node000001_Node000005" class="edge">
<title>Node1&#45;&gt;Node5</title>
<g id="a_edge47_Node000001_Node000005"><a xlink:title=" ">
<path fill="none" stroke="#63b8ff" d="M247.64,-594.89C156.3,-577.08 0,-538.94 0,-486.38 0,-486.38 0,-486.38 0,-119.12 0,-80.48 24.2,-72.06 59,-55.25 106.47,-32.32 455.68,-17.57 594.92,-12.55"/>
<polygon fill="#63b8ff" stroke="#63b8ff" points="246.75,-598.28 257.23,-596.73 248.07,-591.41 246.75,-598.28"/>
</a>
</g>
</g>
<!-- Node19 -->
<g id="Node000019" class="node">
<title>Node19</title>
<g id="a_Node000019"><a xlink:href="../../d8/d09/_common_type_printer_8hpp.html" target="_top" xlink:title=" ">
<polygon fill="white" stroke="#666666" points="491.88,-561.5 340.12,-561.5 340.12,-531 491.88,-531 491.88,-561.5"/>
<text text-anchor="start" x="348.12" y="-548" font-family="Helvetica,sans-Serif" font-size="10.00">mimic++/printing/CommonType</text>
<text text-anchor="middle" x="416" y="-536.75" font-family="Helvetica,sans-Serif" font-size="10.00">Printer.hpp</text>
</a>
</g>
</g>
<!-- Node1&#45;&gt;Node19 -->
<g id="edge48_Node000001_Node000019" class="edge">
<title>Node1&#45;&gt;Node19</title>
<g id="a_edge48_Node000001_Node000019"><a xlink:title=" ">
<path fill="none" stroke="#63b8ff" d="M337.59,-591.64C353.64,-582.55 374.26,-570.88 390.33,-561.78"/>
<polygon fill="#63b8ff" stroke="#63b8ff" points="336.09,-588.47 329.11,-596.44 339.54,-594.56 336.09,-588.47"/>
</a>
</g>
</g>
<!-- Node3 -->
<g id="Node000003" class="node">
<title>Node3</title>
<g id="a_Node000003"><a xlink:href="../../d5/dc5/_mock_8hpp.html" target="_top" xlink:title=" ">
<polygon fill="white" stroke="#666666" points="555.62,-129.75 456.38,-129.75 456.38,-110.5 555.62,-110.5 555.62,-129.75"/>
<text text-anchor="middle" x="506" y="-116.25" font-family="Helvetica,sans-Serif" font-size="10.00">mimic++/Mock.hpp</text>
</a>
</g>
</g>
<!-- Node2&#45;&gt;Node3 -->
<g id="edge2_Node000002_Node000003" class="edge">
<title>Node2&#45;&gt;Node3</title>
<g id="a_edge2_Node000002_Node000003"><a xlink:title=" ">
<path fill="none" stroke="#63b8ff" d="M395.78,-470.25C428.89,-453.11 476,-420.82 476,-375.88 476,-375.88 476,-375.88 476,-246.5 476,-201.74 494.31,-150.39 502.32,-130.07"/>
<polygon fill="#63b8ff" stroke="#63b8ff" points="394.37,-467.04 386.95,-474.61 397.47,-473.31 394.37,-467.04"/>
</a>
</g>
</g>
<!-- Node2&#45;&gt;Node5 -->
<g id="edge46_Node000002_Node000005" class="edge">
<title>Node2&#45;&gt;Node5</title>
<g id="a_edge46_Node000002_Node000005"><a xlink:title=" ">
<path fill="none" stroke="#63b8ff" d="M427.44,-483.95C642.71,-481.66 1332,-467.2 1332,-375.88 1332,-375.88 1332,-375.88 1332,-119.12 1332,-56.25 872.78,-23.44 709.1,-13.74"/>
<polygon fill="#63b8ff" stroke="#63b8ff" points="427.52,-480.44 417.56,-484.04 427.59,-487.44 427.52,-480.44"/>
</a>
</g>
</g>
<!-- Node6 -->
<g id="Node000006" class="node">
<title>Node6</title>
<g id="a_Node000006"><a xlink:href="../../d5/d92/_object_watcher_8hpp.html" target="_top" xlink:title=" ">
<polygon fill="white" stroke="#666666" points="448.88,-74.5 309.12,-74.5 309.12,-55.25 448.88,-55.25 448.88,-74.5"/>
<text text-anchor="middle" x="379" y="-61" font-family="Helvetica,sans-Serif" font-size="10.00">mimic++/ObjectWatcher.hpp</text>
</a>
</g>
</g>
<!-- Node2&#45;&gt;Node6 -->
<g id="edge8_Node000002_Node000006" class="edge">
<title>Node2&#45;&gt;Node6</title>
<g id="a_edge8_Node000002_Node000006"><a xlink:title=" ">
<path fill="none" stroke="#63b8ff" d="M300.82,-483.27C226.75,-478.24 114,-457.22 114,-375.88 114,-375.88 114,-375.88 114,-180 114,-95.09 230.17,-72.59 308.68,-67.08"/>
<polygon fill="#63b8ff" stroke="#63b8ff" points="300.2,-486.74 310.39,-483.84 300.61,-479.76 300.2,-486.74"/>
</a>
</g>
</g>
<!-- Node7 -->
<g id="Node000007" class="node">
<title>Node7</title>
<g id="a_Node000007"><a xlink:href="../../da/dd9/_reporter_8hpp.html" target="_top" xlink:title=" ">
<polygon fill="white" stroke="#666666" points="284,-384.5 172,-384.5 172,-365.25 284,-365.25 284,-384.5"/>
<text text-anchor="middle" x="228" y="-371" font-family="Helvetica,sans-Serif" font-size="10.00">mimic++/Reporter.hpp</text>
</a>
</g>
</g>
<!-- Node2&#45;&gt;Node7 -->
<g id="edge9_Node000002_Node000007" class="edge">
<title>Node2&#45;&gt;Node7</title>
<g id="a_edge9_Node000002_Node000007"><a xlink:title=" ">
<path fill="none" stroke="#63b8ff" d="M300.94,-481.93C270.43,-477.17 236.31,-465.8 217,-439.75 204.8,-423.3 215.51,-397.95 222.72,-384.68"/>
<polygon fill="#63b8ff" stroke="#63b8ff" points="300.11,-485.35 310.48,-483.2 301.03,-478.41 300.11,-485.35"/>
</a>
</g>
</g>
<!-- Node10 -->
<g id="Node000010" class="node">
<title>Node10</title>
<g id="a_Node000010"><a xlink:href="../../d8/de4/_sequence_8hpp.html" target="_top" xlink:title=" ">
<polygon fill="white" stroke="#666666" points="374.38,-323.62 255.62,-323.62 255.62,-304.38 374.38,-304.38 374.38,-323.62"/>
<text text-anchor="middle" x="315" y="-310.12" font-family="Helvetica,sans-Serif" font-size="10.00">mimic++/Sequence.hpp</text>
</a>
</g>
</g>
<!-- Node2&#45;&gt;Node10 -->
<g id="edge28_Node000002_Node000010" class="edge">
<title>Node2&#45;&gt;Node10</title>
<g id="a_edge28_Node000002_Node000010"><a xlink:title=" ">
<path fill="none" stroke="#63b8ff" d="M358.23,-464.44C347.55,-427.5 325.07,-349.81 317.53,-323.74"/>
<polygon fill="#63b8ff" stroke="#63b8ff" points="354.8,-465.18 360.94,-473.81 361.53,-463.24 354.8,-465.18"/>
</a>
</g>
</g>
<!-- Node12 -->
<g id="Node000012" class="node">
<title>Node12</title>
<g id="a_Node000012"><a xlink:href="../../d0/d3b/_reports_8hpp.html" target="_top" xlink:title=" ">
<polygon fill="white" stroke="#666666" points="335.5,-439.75 226.5,-439.75 226.5,-420.5 335.5,-420.5 335.5,-439.75"/>
<text text-anchor="middle" x="281" y="-426.25" font-family="Helvetica,sans-Serif" font-size="10.00">mimic++/Reports.hpp</text>
</a>
</g>
</g>
<!-- Node2&#45;&gt;Node12 -->
<g id="edge24_Node000002_Node000012" class="edge">
<title>Node2&#45;&gt;Node12</title>
<g id="a_edge24_Node000002_Node000012"><a xlink:title=" ">
<path fill="none" stroke="#63b8ff" d="M340.51,-469.3C325.89,-459.92 307.57,-448.17 295.15,-440.2"/>
<polygon fill="#63b8ff" stroke="#63b8ff" points="338.34,-472.07 348.65,-474.52 342.12,-466.18 338.34,-472.07"/>
</a>
</g>
</g>
<!-- Node13 -->
<g id="Node000013" class="node">
<title>Node13</title>
<g id="a_Node000013"><a xlink:href="../../d3/d58/_common_8hpp.html" target="_top" xlink:title=" ">
<polygon fill="white" stroke="#666666" points="795.88,-384.5 638.12,-384.5 638.12,-365.25 795.88,-365.25 795.88,-384.5"/>
<text text-anchor="middle" x="717" y="-371" font-family="Helvetica,sans-Serif" font-size="10.00">mimic++/matchers/Common.hpp</text>
</a>
</g>
</g>
<!-- Node2&#45;&gt;Node13 -->
<g id="edge29_Node000002_Node000013" class="edge">
<title>Node2&#45;&gt;Node13</title>
<g id="a_edge29_Node000002_Node000013"><a xlink:title=" ">
<path fill="none" stroke="#63b8ff" d="M404.32,-471.98C476.03,-449.94 624.13,-404.42 687.35,-384.99"/>
<polygon fill="#63b8ff" stroke="#63b8ff" points="403.47,-468.58 394.94,-474.87 405.52,-475.27 403.47,-468.58"/>
</a>
</g>
</g>
<!-- Node4 -->
<g id="Node000004" class="node">
<title>Node4</title>
<g id="a_Node000004"><a xlink:href="../../d9/dc3/_interface_mock_8hpp.html" target="_top" xlink:title=" ">
<polygon fill="white" stroke="#666666" points="604.75,-74.5 467.25,-74.5 467.25,-55.25 604.75,-55.25 604.75,-74.5"/>
<text text-anchor="middle" x="536" y="-61" font-family="Helvetica,sans-Serif" font-size="10.00">mimic++/InterfaceMock.hpp</text>
</a>
</g>
</g>
<!-- Node3&#45;&gt;Node4 -->
<g id="edge3_Node000003_Node000004" class="edge">
<title>Node3&#45;&gt;Node4</title>
<g id="a_edge3_Node000003_Node000004"><a xlink:title=" ">
<path fill="none" stroke="#63b8ff" d="M516.59,-100.33C521.47,-91.67 527.02,-81.81 530.94,-74.86"/>
<polygon fill="#63b8ff" stroke="#63b8ff" points="513.56,-98.58 511.7,-109.01 519.65,-102.02 513.56,-98.58"/>
</a>
</g>
</g>
<!-- Node3&#45;&gt;Node5 -->
<g id="edge7_Node000003_Node000005" class="edge">
<title>Node3&#45;&gt;Node5</title>
<g id="a_edge7_Node000003_Node000005"><a xlink:title=" ">
<path fill="none" stroke="#63b8ff" d="M554.56,-106.48C574.59,-99.49 597.04,-89.17 614,-74.5 631.76,-59.14 643.48,-33.34 648.76,-19.7"/>
<polygon fill="#63b8ff" stroke="#63b8ff" points="553.57,-103.12 545.16,-109.56 555.75,-109.77 553.57,-103.12"/>
</a>
</g>
</g>
<!-- Node3&#45;&gt;Node6 -->
<g id="edge5_Node000003_Node000006" class="edge">
<title>Node3&#45;&gt;Node6</title>
<g id="a_edge5_Node000003_Node000006"><a xlink:title=" ">
<path fill="none" stroke="#63b8ff" d="M473.87,-105.65C450.95,-96.04 420.75,-83.38 400.65,-74.95"/>
<polygon fill="#63b8ff" stroke="#63b8ff" points="472.48,-108.87 483.06,-109.51 475.19,-102.41 472.48,-108.87"/>
</a>
</g>
</g>
<!-- Node4&#45;&gt;Node5 -->
<g id="edge4_Node000004_Node000005" class="edge">
<title>Node4&#45;&gt;Node5</title>
<g id="a_edge4_Node000004_Node000005"><a xlink:title=" ">
<path fill="none" stroke="#63b8ff" d="M565.92,-50.14C586.78,-40.56 614.03,-28.06 632.23,-19.7"/>
<polygon fill="#63b8ff" stroke="#63b8ff" points="564.68,-46.86 557.05,-54.21 567.6,-53.22 564.68,-46.86"/>
</a>
</g>
</g>
<!-- Node6&#45;&gt;Node5 -->
<g id="edge6_Node000006_Node000005" class="edge">
<title>Node6&#45;&gt;Node5</title>
<g id="a_edge6_Node000006_Node000005"><a xlink:title=" ">
<path fill="none" stroke="#63b8ff" d="M436.63,-52.63C486.91,-42.83 558.92,-28.78 605.57,-19.68"/>
<polygon fill="#63b8ff" stroke="#63b8ff" points="436.25,-49.14 427.11,-54.49 437.59,-56.01 436.25,-49.14"/>
</a>
</g>
</g>
<!-- Node7&#45;&gt;Node5 -->
<g id="edge23_Node000007_Node000005" class="edge">
<title>Node7&#45;&gt;Node5</title>
<g id="a_edge23_Node000007_Node000005"><a xlink:title=" ">
<path fill="none" stroke="#63b8ff" d="M203.38,-358.62C160.36,-329.83 76,-263.05 76,-182 76,-182 76,-182 76,-119.12 76,-64.12 129.76,-72.47 182,-55.25 257.31,-30.42 487.3,-17.63 595.1,-12.87"/>
<polygon fill="#63b8ff" stroke="#63b8ff" points="201.31,-361.44 211.6,-363.97 205.13,-355.58 201.31,-361.44"/>
</a>
</g>
</g>
<!-- Node8 -->
<g id="Node000008" class="node">
<title>Node8</title>
<g id="a_Node000008"><a xlink:href="../../d5/d8a/_expectation_8hpp.html" target="_top" xlink:title=" ">
<polygon fill="white" stroke="#666666" points="305.75,-257.12 180.25,-257.12 180.25,-237.88 305.75,-237.88 305.75,-257.12"/>
<text text-anchor="middle" x="243" y="-243.62" font-family="Helvetica,sans-Serif" font-size="10.00">mimic++/Expectation.hpp</text>
</a>
</g>
</g>
<!-- Node7&#45;&gt;Node8 -->
<g id="edge10_Node000007_Node000008" class="edge">
<title>Node7&#45;&gt;Node8</title>
<g id="a_edge10_Node000007_Node000008"><a xlink:title=" ">
<path fill="none" stroke="#63b8ff" d="M230.45,-353.43C233.76,-325.69 239.55,-277.33 241.93,-257.43"/>
<polygon fill="#63b8ff" stroke="#63b8ff" points="226.97,-353.01 229.26,-363.36 233.92,-353.84 226.97,-353.01"/>
</a>
</g>
</g>
<!-- Node7&#45;&gt;Node10 -->
<g id="edge16_Node000007_Node000010" class="edge">
<title>Node7&#45;&gt;Node10</title>
<g id="a_edge16_Node000007_Node000010"><a xlink:title=" ">
<path fill="none" stroke="#63b8ff" d="M250.53,-358.63C266.75,-347.65 288.07,-333.22 301.66,-324.03"/>
<polygon fill="#63b8ff" stroke="#63b8ff" points="248.79,-355.58 242.47,-364.08 252.71,-361.38 248.79,-355.58"/>
</a>
</g>
</g>
<!-- Node8&#45;&gt;Node3 -->
<g id="edge14_Node000008_Node000003" class="edge">
<title>Node8&#45;&gt;Node3</title>
<g id="a_edge14_Node000008_Node000003"><a xlink:title=" ">
<path fill="none" stroke="#63b8ff" d="M272.22,-232.57C326.49,-206.7 441.43,-151.91 486.9,-130.23"/>
<polygon fill="#63b8ff" stroke="#63b8ff" points="270.8,-229.37 263.28,-236.83 273.81,-235.69 270.8,-229.37"/>
</a>
</g>
</g>
<!-- Node8&#45;&gt;Node5 -->
<g id="edge15_Node000008_Node000005" class="edge">
<title>Node8&#45;&gt;Node5</title>
<g id="a_edge15_Node000008_Node000005"><a xlink:title=" ">
<path fill="none" stroke="#63b8ff" d="M240.61,-226.12C237.24,-186.62 236.19,-99.63 285,-55.25 329.23,-15.04 503.36,-9.72 594.96,-9.8"/>
<polygon fill="#63b8ff" stroke="#63b8ff" points="237.13,-226.47 241.62,-236.06 244.09,-225.76 237.13,-226.47"/>
</a>
</g>
</g>
<!-- Node9 -->
<g id="Node000009" class="node">
<title>Node9</title>
<g id="a_Node000009"><a xlink:href="../../d2/d4f/_expectation_builder_8hpp.html" target="_top" xlink:title=" ">
<polygon fill="white" stroke="#666666" points="659.75,-190.62 504.25,-190.62 504.25,-171.38 659.75,-171.38 659.75,-190.62"/>
<text text-anchor="middle" x="582" y="-177.12" font-family="Helvetica,sans-Serif" font-size="10.00">mimic++/ExpectationBuilder.hpp</text>
</a>
</g>
</g>
<!-- Node8&#45;&gt;Node9 -->
<g id="edge11_Node000008_Node000009" class="edge">
<title>Node8&#45;&gt;Node9</title>
<g id="a_edge11_Node000008_Node000009"><a xlink:title=" ">
<path fill="none" stroke="#63b8ff" d="M299.86,-235.2C304.98,-234.19 310.08,-233.2 315,-232.25 390.95,-217.59 479.17,-201.09 532.76,-191.12"/>
<polygon fill="#63b8ff" stroke="#63b8ff" points="299.32,-231.73 290.18,-237.1 300.67,-238.6 299.32,-231.73"/>
</a>
</g>
</g>
<!-- Node9&#45;&gt;Node3 -->
<g id="edge12_Node000009_Node000003" class="edge">
<title>Node9&#45;&gt;Node3</title>
<g id="a_edge12_Node000009_Node000003"><a xlink:title=" ">
<path fill="none" stroke="#63b8ff" d="M561.51,-164.13C547.45,-153.23 529.3,-139.17 517.65,-130.15"/>
<polygon fill="#63b8ff" stroke="#63b8ff" points="559.21,-166.77 569.26,-170.13 563.5,-161.24 559.21,-166.77"/>
</a>
</g>
</g>
<!-- Node9&#45;&gt;Node5 -->
<g id="edge13_Node000009_Node000005" class="edge">
<title>Node9&#45;&gt;Node5</title>
<g id="a_edge13_Node000009_Node000005"><a xlink:title=" ">
<path fill="none" stroke="#63b8ff" d="M593.22,-161.32C605.21,-140.69 624.1,-106.18 636,-74.5 643.15,-55.45 648.1,-32.01 650.44,-19.5"/>
<polygon fill="#63b8ff" stroke="#63b8ff" points="590.34,-159.31 588.27,-169.71 596.37,-162.87 590.34,-159.31"/>
</a>
</g>
</g>
<!-- Node10&#45;&gt;Node5 -->
<g id="edge19_Node000010_Node000005" class="edge">
<title>Node10&#45;&gt;Node5</title>
<g id="a_edge19_Node000010_Node000005"><a xlink:title=" ">
<path fill="none" stroke="#63b8ff" d="M244.2,-303.01C217.86,-295.88 189.84,-283.67 171,-262.75 146.33,-235.35 152,-218.87 152,-182 152,-182 152,-182 152,-119.12 152,-29.3 464.08,-13.68 595.13,-11.09"/>
<polygon fill="#63b8ff" stroke="#63b8ff" points="243.33,-306.4 253.88,-305.4 245.01,-299.6 243.33,-306.4"/>
</a>
</g>
</g>
<!-- Node10&#45;&gt;Node8 -->
<g id="edge17_Node000010_Node000008" class="edge">
<title>Node10&#45;&gt;Node8</title>
<g id="a_edge17_Node000010_Node000008"><a xlink:title=" ">
<path fill="none" stroke="#63b8ff" d="M296.65,-296.56C282.75,-284.11 264.17,-267.47 252.93,-257.39"/>
<polygon fill="#63b8ff" stroke="#63b8ff" points="294.08,-298.96 303.86,-303.02 298.75,-293.74 294.08,-298.96"/>
</a>
</g>
</g>
<!-- Node10&#45;&gt;Node9 -->
<g id="edge18_Node000010_Node000009" class="edge">
<title>Node10&#45;&gt;Node9</title>
<g id="a_edge18_Node000010_Node000009"><a xlink:title=" ">
<path fill="none" stroke="#63b8ff" d="M358.34,-300.56C387.03,-291.63 425.09,-278.43 457,-262.75 501.05,-241.1 548.57,-207.1 570.14,-191.02"/>
<polygon fill="#63b8ff" stroke="#63b8ff" points="357.44,-297.18 348.9,-303.44 359.49,-303.87 357.44,-297.18"/>
</a>
</g>
</g>
<!-- Node11 -->
<g id="Node000011" class="node">
<title>Node11</title>
<g id="a_Node000011"><a xlink:href="../../db/d70/_control_policies_8hpp.html" target="_top" xlink:title=" ">
<polygon fill="white" stroke="#666666" points="448,-262.75 324,-262.75 324,-232.25 448,-232.25 448,-262.75"/>
<text text-anchor="start" x="332" y="-249.25" font-family="Helvetica,sans-Serif" font-size="10.00">mimic++/policies/Control</text>
<text text-anchor="middle" x="386" y="-238" font-family="Helvetica,sans-Serif" font-size="10.00">Policies.hpp</text>
</a>
</g>
</g>
<!-- Node10&#45;&gt;Node11 -->
<g id="edge20_Node000010_Node000011" class="edge">
<title>Node10&#45;&gt;Node11</title>
<g id="a_edge20_Node000010_Node000011"><a xlink:title=" ">
<path fill="none" stroke="#63b8ff" d="M333.18,-296.49C344.53,-286.17 359.01,-273.02 369.94,-263.09"/>
<polygon fill="#63b8ff" stroke="#63b8ff" points="331.04,-293.7 325.99,-303.01 335.75,-298.88 331.04,-293.7"/>
</a>
</g>
</g>
<!-- Node11&#45;&gt;Node5 -->
<g id="edge22_Node000011_Node000005" class="edge">
<title>Node11&#45;&gt;Node5</title>
<g id="a_edge22_Node000011_Node000005"><a xlink:title=" ">
<path fill="none" stroke="#63b8ff" d="M361.81,-224.41C322.76,-186.16 254.61,-106.76 300,-55.25 319.17,-33.5 500.49,-19.61 595.12,-13.78"/>
<polygon fill="#63b8ff" stroke="#63b8ff" points="358.91,-226.49 368.55,-230.88 363.75,-221.43 358.91,-226.49"/>
</a>
</g>
</g>
<!-- Node11&#45;&gt;Node9 -->
<g id="edge21_Node000011_Node000009" class="edge">
<title>Node11&#45;&gt;Node9</title>
<g id="a_edge21_Node000011_Node000009"><a xlink:title=" ">
<path fill="none" stroke="#63b8ff" d="M441.08,-228.37C478,-216.23 525.03,-200.75 554.34,-191.1"/>
<polygon fill="#63b8ff" stroke="#63b8ff" points="440.32,-224.94 431.91,-231.39 442.51,-231.59 440.32,-224.94"/>
</a>
</g>
</g>
<!-- Node12&#45;&gt;Node5 -->
<g id="edge26_Node000012_Node000005" class="edge">
<title>Node12&#45;&gt;Node5</title>
<g id="a_edge26_Node000012_Node000005"><a xlink:title=" ">
<path fill="none" stroke="#63b8ff" d="M214.92,-425.73C142.96,-418.06 38,-393.42 38,-315 38,-315 38,-315 38,-119.12 38,-78.62 66.17,-72.09 103,-55.25 189.42,-15.73 472.56,-10.68 594.88,-10.39"/>
<polygon fill="#63b8ff" stroke="#63b8ff" points="214.37,-429.19 224.66,-426.68 215.04,-422.23 214.37,-429.19"/>
</a>
</g>
</g>
<!-- Node12&#45;&gt;Node7 -->
<g id="edge25_Node000012_Node000007" class="edge">
<title>Node12&#45;&gt;Node7</title>
<g id="a_edge25_Node000012_Node000007"><a xlink:title=" ">
<path fill="none" stroke="#63b8ff" d="M264.28,-412.32C255.22,-403.23 244.4,-392.35 236.94,-384.86"/>
<polygon fill="#63b8ff" stroke="#63b8ff" points="261.65,-414.64 271.18,-419.26 266.61,-409.7 261.65,-414.64"/>
</a>
</g>
</g>
<!-- Node12&#45;&gt;Node11 -->
<g id="edge27_Node000012_Node000011" class="edge">
<title>Node12&#45;&gt;Node11</title>
<g id="a_edge27_Node000012_Node000011"><a xlink:title=" ">
<path fill="none" stroke="#63b8ff" d="M305.31,-413.66C329.95,-396.43 366.7,-366.1 383,-329.25 392.48,-307.83 390.87,-279.99 388.6,-263.22"/>
<polygon fill="#63b8ff" stroke="#63b8ff" points="303.49,-410.67 297.16,-419.17 307.4,-416.47 303.49,-410.67"/>
</a>
</g>
</g>
<!-- Node13&#45;&gt;Node5 -->
<g id="edge42_Node000013_Node000005" class="edge">
<title>Node13&#45;&gt;Node5</title>
<g id="a_edge42_Node000013_Node000005"><a xlink:title=" ">
<path fill="none" stroke="#63b8ff" d="M730.5,-355.99C746.78,-332.59 772,-289.7 772,-248.5 772,-248.5 772,-248.5 772,-119.12 772,-67.87 711.01,-34.55 676,-19.64"/>
<polygon fill="#63b8ff" stroke="#63b8ff" points="727.87,-353.65 724.85,-363.8 733.55,-357.75 727.87,-353.65"/>
</a>
</g>
</g>
<!-- Node13&#45;&gt;Node9 -->
<g id="edge30_Node000013_Node000009" class="edge">
<title>Node13&#45;&gt;Node9</title>
<g id="a_edge30_Node000013_Node000009"><a xlink:title=" ">
<path fill="none" stroke="#63b8ff" d="M684.95,-360.07C649.84,-342.97 595.41,-310.18 572,-262.75 560.25,-238.94 571.15,-206.55 577.77,-191.02"/>
<polygon fill="#63b8ff" stroke="#63b8ff" points="683.26,-363.14 693.8,-364.22 686.24,-356.8 683.26,-363.14"/>
</a>
</g>
</g>
<!-- Node14 -->
<g id="Node000014" class="node">
<title>Node14</title>
<g id="a_Node000014"><a xlink:href="../../d9/dd5/_general_matchers_8hpp.html" target="_top" xlink:title=" ">
<polygon fill="white" stroke="#666666" points="1043.25,-329.25 908.75,-329.25 908.75,-298.75 1043.25,-298.75 1043.25,-329.25"/>
<text text-anchor="start" x="916.75" y="-315.75" font-family="Helvetica,sans-Serif" font-size="10.00">mimic++/matchers/General</text>
<text text-anchor="middle" x="976" y="-304.5" font-family="Helvetica,sans-Serif" font-size="10.00">Matchers.hpp</text>
</a>
</g>
</g>
<!-- Node13&#45;&gt;Node14 -->
<g id="edge31_Node000013_Node000014" class="edge">
<title>Node13&#45;&gt;Node14</title>
<g id="a_edge31_Node000013_Node000014"><a xlink:title=" ">
<path fill="none" stroke="#63b8ff" d="M768.01,-362.28C809.07,-352.95 867.04,-339.77 911.36,-329.69"/>
<polygon fill="#63b8ff" stroke="#63b8ff" points="767.35,-358.84 758.38,-364.47 768.9,-365.67 767.35,-358.84"/>
</a>
</g>
</g>
<!-- Node16 -->
<g id="Node000016" class="node">
<title>Node16</title>
<g id="a_Node000016"><a xlink:href="../../df/df3/_range_matchers_8hpp.html" target="_top" xlink:title=" ">
<polygon fill="white" stroke="#666666" points="1303.5,-257.12 1116.5,-257.12 1116.5,-237.88 1303.5,-237.88 1303.5,-257.12"/>
<text text-anchor="middle" x="1210" y="-243.62" font-family="Helvetica,sans-Serif" font-size="10.00">mimic++/matchers/RangeMatchers.hpp</text>
</a>
</g>
</g>
<!-- Node13&#45;&gt;Node16 -->
<g id="edge41_Node000013_Node000016" class="edge">
<title>Node13&#45;&gt;Node16</title>
<g id="a_edge41_Node000013_Node000016"><a xlink:title=" ">
<path fill="none" stroke="#63b8ff" d="M807.3,-370.15C875.77,-365.35 971.49,-354.37 1052,-329.25 1108.76,-311.54 1169.74,-274.64 1196.31,-257.55"/>
<polygon fill="#63b8ff" stroke="#63b8ff" points="807.39,-366.64 797.64,-370.79 807.85,-373.62 807.39,-366.64"/>
</a>
</g>
</g>
<!-- Node18 -->
<g id="Node000018" class="node">
<title>Node18</title>
<g id="a_Node000018"><a xlink:href="../../d1/d42/_arg_requirement_policies_8hpp.html" target="_top" xlink:title=" ">
<polygon fill="white" stroke="#666666" points="743.5,-262.75 580.5,-262.75 580.5,-232.25 743.5,-232.25 743.5,-262.75"/>
<text text-anchor="start" x="588.5" y="-249.25" font-family="Helvetica,sans-Serif" font-size="10.00">mimic++/policies/ArgRequirement</text>
<text text-anchor="middle" x="662" y="-238" font-family="Helvetica,sans-Serif" font-size="10.00">Policies.hpp</text>
</a>
</g>
</g>
<!-- Node13&#45;&gt;Node18 -->
<g id="edge43_Node000013_Node000018" class="edge">
<title>Node13&#45;&gt;Node18</title>
<g id="a_edge43_Node000013_Node000018"><a xlink:title=" ">
<path fill="none" stroke="#63b8ff" d="M708.45,-354.38C697.36,-329.11 678.28,-285.62 668.38,-263.05"/>
<polygon fill="#63b8ff" stroke="#63b8ff" points="705.21,-355.72 712.44,-363.47 711.62,-352.91 705.21,-355.72"/>
</a>
</g>
</g>
<!-- Node14&#45;&gt;Node5 -->
<g id="edge40_Node000014_Node000005" class="edge">
<title>Node14&#45;&gt;Node5</title>
<g id="a_edge40_Node000014_Node000005"><a xlink:title=" ">
<path fill="none" stroke="#63b8ff" d="M1008.6,-291.21C1017.56,-283.4 1026.15,-273.76 1031,-262.75 1036.47,-250.35 1036.86,-244.48 1031,-232.25 976.79,-119.07 922.57,-112.71 811,-55.25 777.35,-37.92 736.13,-26.6 704.09,-19.7"/>
<polygon fill="#63b8ff" stroke="#63b8ff" points="1006.42,-288.47 1000.81,-297.46 1010.8,-293.93 1006.42,-288.47"/>
</a>
</g>
</g>
<!-- Node14&#45;&gt;Node9 -->
<g id="edge32_Node000014_Node000009" class="edge">
<title>Node14&#45;&gt;Node9</title>
<g id="a_edge32_Node000014_Node000009"><a xlink:title=" ">
<path fill="none" stroke="#63b8ff" d="M920.43,-294.77C892.82,-285.51 859.02,-273.9 829,-262.75 794.88,-250.08 787.39,-244.17 753,-232.25 706.22,-216.03 651.12,-200.46 616.37,-191.06"/>
<polygon fill="#63b8ff" stroke="#63b8ff" points="919.05,-297.99 929.64,-297.84 921.26,-291.35 919.05,-297.99"/>
</a>
</g>
</g>
<!-- Node15 -->
<g id="Node000015" class="node">
<title>Node15</title>
<g id="a_Node000015"><a xlink:href="../../d1/de0/_floating_point_matchers_8hpp.html" target="_top" xlink:title=" ">
<polygon fill="white" stroke="#666666" points="1181.62,-196.25 1046.38,-196.25 1046.38,-165.75 1181.62,-165.75 1181.62,-196.25"/>
<text text-anchor="start" x="1054.38" y="-182.75" font-family="Helvetica,sans-Serif" font-size="10.00">mimic++/matchers/Floating</text>
<text text-anchor="middle" x="1114" y="-171.5" font-family="Helvetica,sans-Serif" font-size="10.00">PointMatchers.hpp</text>
</a>
</g>
</g>
<!-- Node14&#45;&gt;Node15 -->
<g id="edge33_Node000014_Node000015" class="edge">
<title>Node14&#45;&gt;Node15</title>
<g id="a_edge33_Node000014_Node000015"><a xlink:title=" ">
<path fill="none" stroke="#63b8ff" d="M1020.5,-293.16C1035.43,-285.13 1051.45,-274.86 1064,-262.75 1084.17,-243.28 1099.6,-214.06 1107.69,-196.63"/>
<polygon fill="#63b8ff" stroke="#63b8ff" points="1019.03,-289.98 1011.74,-297.67 1022.24,-296.2 1019.03,-289.98"/>
</a>
</g>
</g>
<!-- Node14&#45;&gt;Node16 -->
<g id="edge35_Node000014_Node000016" class="edge">
<title>Node14&#45;&gt;Node16</title>
<g id="a_edge35_Node000014_Node000016"><a xlink:title=" ">
<path fill="none" stroke="#63b8ff" d="M1040.36,-295.26C1084.67,-283.05 1141.71,-267.32 1177.06,-257.58"/>
<polygon fill="#63b8ff" stroke="#63b8ff" points="1039.56,-291.85 1030.85,-297.88 1041.42,-298.6 1039.56,-291.85"/>
</a>
</g>
</g>
<!-- Node17 -->
<g id="Node000017" class="node">
<title>Node17</title>
<g id="a_Node000017"><a xlink:href="../../d2/d56/_string_matchers_8hpp.html" target="_top" xlink:title=" ">
<polygon fill="white" stroke="#666666" points="1022.38,-257.12 837.62,-257.12 837.62,-237.88 1022.38,-237.88 1022.38,-257.12"/>
<text text-anchor="middle" x="930" y="-243.62" font-family="Helvetica,sans-Serif" font-size="10.00">mimic++/matchers/StringMatchers.hpp</text>
</a>
</g>
</g>
<!-- Node14&#45;&gt;Node17 -->
<g id="edge37_Node000014_Node000017" class="edge">
<title>Node14&#45;&gt;Node17</title>
<g id="a_edge37_Node000014_Node000017"><a xlink:title=" ">
<path fill="none" stroke="#63b8ff" d="M958.97,-289.12C951.05,-278.02 942.12,-265.49 936.29,-257.32"/>
<polygon fill="#63b8ff" stroke="#63b8ff" points="956.03,-291.02 964.68,-297.13 961.73,-286.96 956.03,-291.02"/>
</a>
</g>
</g>
<!-- Node15&#45;&gt;Node5 -->
<g id="edge34_Node000015_Node000005" class="edge">
<title>Node15&#45;&gt;Node5</title>
<g id="a_edge34_Node000015_Node000005"><a xlink:title=" ">
<path fill="none" stroke="#63b8ff" d="M1105.04,-154.8C1093.21,-125.53 1069.38,-78.33 1032,-55.25 979.29,-22.71 801.7,-13.9 709.16,-11.51"/>
<polygon fill="#63b8ff" stroke="#63b8ff" points="1101.72,-155.92 1108.58,-164 1108.26,-153.41 1101.72,-155.92"/>
</a>
</g>
</g>
<!-- Node16&#45;&gt;Node5 -->
<g id="edge36_Node000016_Node000005" class="edge">
<title>Node16&#45;&gt;Node5</title>
<g id="a_edge36_Node000016_Node000005"><a xlink:title=" ">
<path fill="none" stroke="#63b8ff" d="M1208.84,-226.35C1207.05,-209.13 1202.51,-184.27 1191,-165.75 1150.25,-100.19 1128.11,-85.29 1057,-55.25 995.66,-29.34 805.54,-17.41 709.2,-12.9"/>
<polygon fill="#63b8ff" stroke="#63b8ff" points="1205.35,-226.6 1209.62,-236.29 1212.33,-226.05 1205.35,-226.6"/>
</a>
</g>
</g>
<!-- Node17&#45;&gt;Node5 -->
<g id="edge39_Node000017_Node000005" class="edge">
<title>Node17&#45;&gt;Node5</title>
<g id="a_edge39_Node000017_Node000005"><a xlink:title=" ">
<path fill="none" stroke="#63b8ff" d="M920.8,-227.6C901.29,-189.43 852.05,-102.75 786,-55.25 761.22,-37.43 728.84,-26.39 702.13,-19.74"/>
<polygon fill="#63b8ff" stroke="#63b8ff" points="917.62,-229.05 925.21,-236.44 923.88,-225.93 917.62,-229.05"/>
</a>
</g>
</g>
<!-- Node17&#45;&gt;Node9 -->
<g id="edge38_Node000017_Node000009" class="edge">
<title>Node17&#45;&gt;Node9</title>
<g id="a_edge38_Node000017_Node000009"><a xlink:title=" ">
<path fill="none" stroke="#63b8ff" d="M869.57,-235.3C801.98,-222.77 693.78,-202.72 631.15,-191.11"/>
<polygon fill="#63b8ff" stroke="#63b8ff" points="868.92,-238.74 879.39,-237.12 870.2,-231.86 868.92,-238.74"/>
</a>
</g>
</g>
<!-- Node18&#45;&gt;Node5 -->
<g id="edge45_Node000018_Node000005" class="edge">
<title>Node18&#45;&gt;Node5</title>
<g id="a_edge45_Node000018_Node000005"><a xlink:title=" ">
<path fill="none" stroke="#63b8ff" d="M666.26,-220.92C667.39,-213.03 668.44,-204.3 669,-196.25 673.72,-128.13 659.11,-46.2 653.83,-19.5"/>
<polygon fill="#63b8ff" stroke="#63b8ff" points="662.84,-220.13 664.78,-230.55 669.76,-221.19 662.84,-220.13"/>
</a>
</g>
</g>
<!-- Node18&#45;&gt;Node9 -->
<g id="edge44_Node000018_Node000009" class="edge">
<title>Node18&#45;&gt;Node9</title>
<g id="a_edge44_Node000018_Node000009"><a xlink:title=" ">
<path fill="none" stroke="#63b8ff" d="M635.27,-224.95C620.83,-213.31 603.79,-199.57 592.94,-190.82"/>
<polygon fill="#63b8ff" stroke="#63b8ff" points="632.69,-227.36 642.67,-230.91 637.08,-221.91 632.69,-227.36"/>
</a>
</g>
</g>
<!-- Node19&#45;&gt;Node2 -->
<g id="edge49_Node000019_Node000002" class="edge">
<title>Node19&#45;&gt;Node2</title>
<g id="a_edge49_Node000019_Node000002"><a xlink:title=" ">
<path fill="none" stroke="#63b8ff" d="M395.59,-522.15C387.34,-512.8 378.3,-502.57 372.02,-495.45"/>
<polygon fill="#63b8ff" stroke="#63b8ff" points="392.9,-524.38 402.14,-529.56 398.15,-519.75 392.9,-524.38"/>
</a>
</g>
</g>
<!-- Node19&#45;&gt;Node5 -->
<g id="edge50_Node000019_Node000005" class="edge">
<title>Node19&#45;&gt;Node5</title>
<g id="a_edge50_Node000019_Node000005"><a xlink:title=" ">
<path fill="none" stroke="#63b8ff" d="M503.31,-543.88C738.91,-539.04 1370,-517.95 1370,-431.12 1370,-431.12 1370,-431.12 1370,-119.12 1370,-40.49 1281.66,-72.79 1205,-55.25 1027.31,-14.59 810.12,-9.66 708.94,-9.85"/>
<polygon fill="#63b8ff" stroke="#63b8ff" points="503.5,-540.38 493.57,-544.08 503.64,-547.38 503.5,-540.38"/>
</a>
</g>
</g>
</g>
</svg>
