<?xml version="1.0" encoding="UTF-8" standalone="no"?>
<!DOCTYPE svg PUBLIC "-//W3C//DTD SVG 1.1//EN"
 "http://www.w3.org/Graphics/SVG/1.1/DTD/svg11.dtd">
<!-- Generated by graphviz version 12.2.1 (20241206.2353)
 -->
<!-- Title: detail macros Pages: 1 -->
<svg width="187pt" height="101pt"
 viewBox="0.00 0.00 187.00 101.25" xmlns="http://www.w3.org/2000/svg" xmlns:xlink="http://www.w3.org/1999/xlink">

<svg id="main" version="1.1" xmlns="http://www.w3.org/2000/svg" xmlns:xlink="http://www.w3.org/1999/xlink" xml:space="preserve">

<style type="text/css"><![CDATA[
.node, .edge {opacity: 0.7;}
.node.selected, .edge.selected {opacity: 1;}
.edge:hover path { stroke: red; }
.edge:hover polygon { stroke: red; fill: red; }
]]></style>
<script type="application/ecmascript" xlink:href="../../svg.min.js"/>
<svg id="graph" class="graph">
<g id="graph0" class="graph" transform="scale(1 1) rotate(0) translate(4 97.25)">
<title>detail macros</title>
<!-- Node1 -->
<g id="Node000001" class="node">
<title>Node1</title>
<g id="a_Node000001"><a xlink:title="Contains several internally used macros.">
<polygon fill="#999999" stroke="#666666" points="73.75,-56.25 0,-56.25 0,-37 73.75,-37 73.75,-56.25"/>
<text text-anchor="middle" x="36.88" y="-42.75" font-family="Helvetica,sans-Serif" font-size="10.00">detail macros</text>
</a>
</g>
</g>
<!-- Node2 -->
<g id="Node000002" class="node">
<title>Node2</title>
<g id="a_Node000002"><a xlink:href="../../d1/d70/group___m_a_c_r_o___d_e_t_a_i_l___f_o_r___e_a_c_h.html" target="_top" xlink:title="This is an implementation of a for&#45;loop for the preprocessor.">
<polygon fill="white" stroke="#666666" points="171.12,-93.25 117.62,-93.25 117.62,-74 171.12,-74 171.12,-93.25"/>
<text text-anchor="middle" x="144.38" y="-79.75" font-family="Helvetica,sans-Serif" font-size="10.00">for_each</text>
</a>
</g>
</g>
<!-- Node1&#45;&gt;Node2 -->
<g id="edge1" class="edge">
<title>Node1&#45;&gt;Node2</title>
<path fill="none" stroke="black" d="M77.56,-60.54C90.91,-65.22 105.45,-70.33 117.47,-74.54"/>
<polygon fill="black" stroke="black" points="78.73,-57.24 68.13,-57.24 76.41,-63.85 78.73,-57.24"/>
</g>
<!-- Node3 -->
<g id="Node000003" class="node">
<title>Node3</title>
<g id="a_Node000003"><a xlink:href="../../d7/d30/group___m_a_c_r_o___d_e_t_a_i_l___s_t_r_i_n_g_i_f_y.html" target="_top" xlink:title="Stringifies the provided arguments.">
<polygon fill="white" stroke="#666666" points="169.25,-56.25 119.5,-56.25 119.5,-37 169.25,-37 169.25,-56.25"/>
<text text-anchor="middle" x="144.38" y="-42.75" font-family="Helvetica,sans-Serif" font-size="10.00">stringify</text>
</a>
</g>
</g>
<!-- Node1&#45;&gt;Node3 -->
<g id="edge2" class="edge">
<title>Node1&#45;&gt;Node3</title>
<path fill="none" stroke="black" d="M85.64,-46.62C97.29,-46.62 109.26,-46.62 119.27,-46.62"/>
<polygon fill="black" stroke="black" points="85.7,-43.13 75.7,-46.63 85.7,-50.13 85.7,-43.13"/>
</g>
<!-- Node4 -->
<g id="Node000004" class="node">
<title>Node4</title>
<g id="a_Node000004"><a xlink:href="../../d7/d0f/group___m_a_c_r_o___d_e_t_a_i_l___s_t_r_i_p___p_a_r_e_n_s.html" target="_top" xlink:title="Removes an enclosing pair of (), if present.">
<polygon fill="white" stroke="#666666" points="179,-19.25 109.75,-19.25 109.75,0 179,0 179,-19.25"/>
<text text-anchor="middle" x="144.38" y="-5.75" font-family="Helvetica,sans-Serif" font-size="10.00">strip_parens</text>
</a>
</g>
</g>
<!-- Node1&#45;&gt;Node4 -->
<g id="edge3" class="edge">
<title>Node1&#45;&gt;Node4</title>
<path fill="none" stroke="black" d="M77.24,-32.82C89.63,-28.47 103.07,-23.76 114.58,-19.72"/>
<polygon fill="black" stroke="black" points="76.41,-29.4 68.13,-36.01 78.73,-36.01 76.41,-29.4"/>
</g>
</g>
</svg>
</svg>

<style type='text/css'>
<![CDATA[
[data-mouse-over-selected='false'] { opacity: 0.7; }
[data-mouse-over-selected='true']  { opacity: 1.0; }
]]>
</style>
<script type="application/ecmascript"><![CDATA[
document.addEventListener('DOMContentLoaded', (event) => {
  highlightEdges();
  highlightAdjacentNodes();
});
]]></script>
</svg>
