<?xml version="1.0" encoding="UTF-8" standalone="no"?>
<!DOCTYPE svg PUBLIC "-//W3C//DTD SVG 1.1//EN"
 "http://www.w3.org/Graphics/SVG/1.1/DTD/svg11.dtd">
<!-- Generated by graphviz version 12.2.1 (20241206.2353)
 -->
<!-- Title: mimic++/reporting/Fwd.hpp Pages: 1 -->
<!--zoomable 636 -->

<svg id="main" version="1.1" xmlns="http://www.w3.org/2000/svg" xmlns:xlink="http://www.w3.org/1999/xlink" xml:space="preserve" onload="init(evt)">

<style type="text/css"><![CDATA[
.node, .edge {opacity: 0.7;}
.node.selected, .edge.selected {opacity: 1;}
.edge:hover path { stroke: red; }
.edge:hover polygon { stroke: red; fill: red; }
]]></style>

<defs>
  <circle id="rim" cx="0" cy="0" r="7"/>
  <circle id="rim2" cx="0" cy="0" r="3.5"/>
  <g id="zoomPlus">
    <use xlink:href="#rim" fill="#404040"><set attributeName="fill" to="#808080" begin="zoomplus.mouseover" end="zoomplus.mouseout"/></use>
    <path d="M-4,0h8M0,-4v8" fill="none" stroke="white" stroke-width="1.5" pointer-events="none"/>
  </g>
  <g id="zoomMin">
    <use xlink:href="#rim" fill="#404040"><set attributeName="fill" to="#808080" begin="zoomminus.mouseover" end="zoomminus.mouseout"/></use>
    <path d="M-4,0h8" fill="none" stroke="white" stroke-width="1.5" pointer-events="none"/>
  </g>
  <g id="arrowUp" transform="translate(30 24)">
    <use xlink:href="#rim"/>
    <path pointer-events="none" fill="none" stroke="white" stroke-width="1.5" d="M0,-3.0v7 M-2.5,-0.5L0,-3.0L2.5,-0.5"/>
  </g>
  <g id="arrowRight" transform="rotate(90) translate(36 -43)">
    <use xlink:href="#rim"/>
    <path pointer-events="none" fill="none" stroke="white" stroke-width="1.5" d="M0,-3.0v7 M-2.5,-0.5L0,-3.0L2.5,-0.5"/>
  </g>
  <g id="arrowDown" transform="rotate(180) translate(-30 -48)">
    <use xlink:href="#rim"/>
    <path pointer-events="none" fill="none" stroke="white" stroke-width="1.5" d="M0,-3.0v7 M-2.5,-0.5L0,-3.0L2.5,-0.5"/>
  </g>
  <g id="arrowLeft" transform="rotate(270) translate(-36 17)">
    <use xlink:href="#rim"/>
    <path pointer-events="none" fill="none" stroke="white" stroke-width="1.5" d="M0,-3.0v7 M-2.5,-0.5L0,-3.0L2.5,-0.5"/>
  </g>
  <g id="resetDef">
    <use xlink:href="#rim2" fill="#404040"><set attributeName="fill" to="#808080" begin="reset.mouseover" end="reset.mouseout"/></use>
  </g>
</defs>
<script type="application/ecmascript">
var viewWidth = 748;
var viewHeight = 636;
var sectionId = 'dynsection-1';
</script>
<script type="application/ecmascript" xlink:href="../../svg.min.js"/>
<svg id="graph" class="graph">
<g id="viewport">
<title>mimic++/reporting/Fwd.hpp</title>
<!-- Node1 -->
<g id="Node000001" class="node">
<title>Node1</title>
<g id="a_Node000001"><a xlink:title=" ">
<polygon fill="#999999" stroke="#666666" points="134.5,-628 0,-628 0,-608.75 134.5,-608.75 134.5,-628"/>
<text text-anchor="middle" x="67.25" y="-614.5" font-family="Helvetica,sans-Serif" font-size="10.00">mimic++/reporting/Fwd.hpp</text>
</a>
</g>
</g>
<!-- Node2 -->
<g id="Node000002" class="node">
<title>Node2</title>
<g id="a_Node000002"><a xlink:href="../../d7/deb/_reporting_8hpp.html" target="_top" xlink:title=" ">
<polygon fill="white" stroke="#666666" points="203.5,-384.5 87,-384.5 87,-365.25 203.5,-365.25 203.5,-384.5"/>
<text text-anchor="middle" x="145.25" y="-371" font-family="Helvetica,sans-Serif" font-size="10.00">mimic++/Reporting.hpp</text>
</a>
</g>
</g>
<!-- Node1&#45;&gt;Node2 -->
<g id="edge1_Node000001_Node000002" class="edge">
<title>Node1&#45;&gt;Node2</title>
<g id="a_edge1_Node000001_Node000002"><a xlink:title=" ">
<path fill="none" stroke="#63b8ff" d="M56.19,-598.62C35.78,-561.29 -2.44,-476.46 35.25,-420.5 47.63,-402.12 69,-391.31 89.64,-384.95"/>
<polygon fill="#63b8ff" stroke="#63b8ff" points="53.13,-600.31 61.1,-607.28 59.21,-596.85 53.13,-600.31"/>
</a>
</g>
</g>
<!-- Node4 -->
<g id="Node000004" class="node">
<title>Node4</title>
<g id="a_Node000004"><a xlink:href="../../d8/d48/_i_reporter_8hpp.html" target="_top" xlink:title=" ">
<polygon fill="white" stroke="#666666" points="223,-572.75 67.5,-572.75 67.5,-553.5 223,-553.5 223,-572.75"/>
<text text-anchor="middle" x="145.25" y="-559.25" font-family="Helvetica,sans-Serif" font-size="10.00">mimic++/reporting/IReporter.hpp</text>
</a>
</g>
</g>
<!-- Node1&#45;&gt;Node4 -->
<g id="edge3_Node000001_Node000004" class="edge">
<title>Node1&#45;&gt;Node4</title>
<g id="a_edge3_Node000001_Node000004"><a xlink:title=" ">
<path fill="none" stroke="#63b8ff" d="M89.72,-602.03C103.4,-592.7 120.39,-581.1 131.95,-573.2"/>
<polygon fill="#63b8ff" stroke="#63b8ff" points="88.02,-598.96 81.73,-607.49 91.96,-604.74 88.02,-598.96"/>
</a>
</g>
</g>
<!-- Node3 -->
<g id="Node000003" class="node">
<title>Node3</title>
<g id="a_Node000003"><a xlink:href="../../d0/db9/mimic_09_09_8hpp.html" target="_top" xlink:title=" ">
<polygon fill="white" stroke="#666666" points="540,-19.25 426.5,-19.25 426.5,0 540,0 540,-19.25"/>
<text text-anchor="middle" x="483.25" y="-5.75" font-family="Helvetica,sans-Serif" font-size="10.00">mimic++/mimic++.hpp</text>
</a>
</g>
</g>
<!-- Node2&#45;&gt;Node3 -->
<g id="edge2_Node000002_Node000003" class="edge">
<title>Node2&#45;&gt;Node3</title>
<g id="a_edge2_Node000002_Node000003"><a xlink:title=" ">
<path fill="none" stroke="#63b8ff" d="M145.25,-353.26C145.25,-328.41 145.25,-285.4 145.25,-248.5 145.25,-248.5 145.25,-248.5 145.25,-119.12 145.25,-79.87 171.51,-73.52 206.25,-55.25 243.49,-35.67 356.61,-22.19 426.24,-15.5"/>
<polygon fill="#63b8ff" stroke="#63b8ff" points="141.75,-353.24 145.25,-363.24 148.75,-353.24 141.75,-353.24"/>
</a>
</g>
</g>
<!-- Node4&#45;&gt;Node2 -->
<g id="edge4_Node000004_Node000002" class="edge">
<title>Node4&#45;&gt;Node2</title>
<g id="a_edge4_Node000004_Node000002"><a xlink:title=" ">
<path fill="none" stroke="#63b8ff" d="M121.02,-546.97C83.1,-521.3 17.03,-467.47 47.25,-420.5 58.98,-402.26 80.21,-391.39 99.91,-384.95"/>
<polygon fill="#63b8ff" stroke="#63b8ff" points="118.88,-549.76 129.16,-552.32 122.72,-543.91 118.88,-549.76"/>
</a>
</g>
</g>
<!-- Node5 -->
<g id="Node000005" class="node">
<title>Node5</title>
<g id="a_Node000005"><a xlink:href="../../d1/dfd/_basic_reporter_8hpp.html" target="_top" xlink:title=" ">
<polygon fill="white" stroke="#666666" points="233.88,-445.38 56.62,-445.38 56.62,-426.12 233.88,-426.12 233.88,-445.38"/>
<text text-anchor="middle" x="145.25" y="-431.88" font-family="Helvetica,sans-Serif" font-size="10.00">mimic++/reporting/BasicReporter.hpp</text>
</a>
</g>
</g>
<!-- Node4&#45;&gt;Node5 -->
<g id="edge5_Node000004_Node000005" class="edge">
<title>Node4&#45;&gt;Node5</title>
<g id="a_edge5_Node000004_Node000005"><a xlink:title=" ">
<path fill="none" stroke="#63b8ff" d="M145.25,-541.68C145.25,-513.94 145.25,-465.58 145.25,-445.68"/>
<polygon fill="#63b8ff" stroke="#63b8ff" points="141.75,-541.59 145.25,-551.59 148.75,-541.59 141.75,-541.59"/>
</a>
</g>
</g>
<!-- Node6 -->
<g id="Node000006" class="node">
<title>Node6</title>
<g id="a_Node000006"><a xlink:href="../../d0/d70/_default_reporter_8hpp.html" target="_top" xlink:title=" ">
<polygon fill="white" stroke="#666666" points="325.5,-517.5 197,-517.5 197,-487 325.5,-487 325.5,-517.5"/>
<text text-anchor="start" x="205" y="-504" font-family="Helvetica,sans-Serif" font-size="10.00">mimic++/reporting/Default</text>
<text text-anchor="middle" x="261.25" y="-492.75" font-family="Helvetica,sans-Serif" font-size="10.00">Reporter.hpp</text>
</a>
</g>
</g>
<!-- Node4&#45;&gt;Node6 -->
<g id="edge7_Node000004_Node000006" class="edge">
<title>Node4&#45;&gt;Node6</title>
<g id="a_edge7_Node000004_Node000006"><a xlink:title=" ">
<path fill="none" stroke="#63b8ff" d="M173.22,-547.93C191.1,-538.86 214.23,-527.11 232.3,-517.94"/>
<polygon fill="#63b8ff" stroke="#63b8ff" points="171.8,-544.72 164.47,-552.37 174.97,-550.96 171.8,-544.72"/>
</a>
</g>
</g>
<!-- Node7 -->
<g id="Node000007" class="node">
<title>Node7</title>
<g id="a_Node000007"><a xlink:href="../../de/dd1/_global_reporter_8hpp.html" target="_top" xlink:title=" ">
<polygon fill="white" stroke="#666666" points="416,-451 290.5,-451 290.5,-420.5 416,-420.5 416,-451"/>
<text text-anchor="start" x="298.5" y="-437.5" font-family="Helvetica,sans-Serif" font-size="10.00">mimic++/reporting/Global</text>
<text text-anchor="middle" x="353.25" y="-426.25" font-family="Helvetica,sans-Serif" font-size="10.00">Reporter.hpp</text>
</a>
</g>
</g>
<!-- Node4&#45;&gt;Node7 -->
<g id="edge37_Node000004_Node000007" class="edge">
<title>Node4&#45;&gt;Node7</title>
<g id="a_edge37_Node000004_Node000007"><a xlink:title=" ">
<path fill="none" stroke="#63b8ff" d="M228.44,-551.24C271.84,-543.9 319.01,-532.75 334.25,-517.5 351.76,-499.98 354.32,-469.55 354.11,-451.47"/>
<polygon fill="#63b8ff" stroke="#63b8ff" points="228.02,-547.76 218.71,-552.82 229.15,-554.67 228.02,-547.76"/>
</a>
</g>
</g>
<!-- Node5&#45;&gt;Node2 -->
<g id="edge6_Node000005_Node000002" class="edge">
<title>Node5&#45;&gt;Node2</title>
<g id="a_edge6_Node000005_Node000002"><a xlink:title=" ">
<path fill="none" stroke="#63b8ff" d="M145.25,-414.32C145.25,-404.29 145.25,-392.71 145.25,-384.9"/>
<polygon fill="#63b8ff" stroke="#63b8ff" points="141.75,-414.29 145.25,-424.29 148.75,-414.29 141.75,-414.29"/>
</a>
</g>
</g>
<!-- Node6&#45;&gt;Node2 -->
<g id="edge8_Node000006_Node000002" class="edge">
<title>Node6&#45;&gt;Node2</title>
<g id="a_edge8_Node000006_Node000002"><a xlink:title=" ">
<path fill="none" stroke="#63b8ff" d="M261.27,-475.51C260.01,-458.24 255.76,-435.92 243.25,-420.5 228.65,-402.5 205.2,-391.46 184.9,-384.87"/>
<polygon fill="#63b8ff" stroke="#63b8ff" points="257.76,-475.4 261.67,-485.25 264.75,-475.12 257.76,-475.4"/>
</a>
</g>
</g>
<!-- Node6&#45;&gt;Node7 -->
<g id="edge9_Node000006_Node000007" class="edge">
<title>Node6&#45;&gt;Node7</title>
<g id="a_edge9_Node000006_Node000007"><a xlink:title=" ">
<path fill="none" stroke="#63b8ff" d="M291.46,-480.07C304.89,-470.66 320.36,-459.81 332.46,-451.33"/>
<polygon fill="#63b8ff" stroke="#63b8ff" points="289.54,-477.14 283.37,-485.75 293.56,-482.87 289.54,-477.14"/>
</a>
</g>
</g>
<!-- Node7&#45;&gt;Node2 -->
<g id="edge10_Node000007_Node000002" class="edge">
<title>Node7&#45;&gt;Node2</title>
<g id="a_edge10_Node000007_Node000002"><a xlink:title=" ">
<path fill="none" stroke="#63b8ff" d="M290.53,-417C253.25,-406.45 207.53,-393.5 177.46,-384.99"/>
<polygon fill="#63b8ff" stroke="#63b8ff" points="289.27,-420.28 299.84,-419.63 291.17,-413.54 289.27,-420.28"/>
</a>
</g>
</g>
<!-- Node8 -->
<g id="Node000008" class="node">
<title>Node8</title>
<g id="a_Node000008"><a xlink:href="../../d8/de4/_sequence_8hpp.html" target="_top" xlink:title=" ">
<polygon fill="white" stroke="#666666" points="605.62,-384.5 486.88,-384.5 486.88,-365.25 605.62,-365.25 605.62,-384.5"/>
<text text-anchor="middle" x="546.25" y="-371" font-family="Helvetica,sans-Serif" font-size="10.00">mimic++/Sequence.hpp</text>
</a>
</g>
</g>
<!-- Node7&#45;&gt;Node8 -->
<g id="edge11_Node000007_Node000008" class="edge">
<title>Node7&#45;&gt;Node8</title>
<g id="a_edge11_Node000007_Node000008"><a xlink:title=" ">
<path fill="none" stroke="#63b8ff" d="M412.34,-416.72C446.76,-406.22 488.7,-393.43 516.37,-384.99"/>
<polygon fill="#63b8ff" stroke="#63b8ff" points="411.45,-413.34 402.9,-419.6 413.49,-420.03 411.45,-413.34"/>
</a>
</g>
</g>
<!-- Node10 -->
<g id="Node000010" class="node">
<title>Node10</title>
<g id="a_Node000010"><a xlink:href="../../db/d5d/_registry_8hpp.html" target="_top" xlink:title=" ">
<polygon fill="white" stroke="#666666" points="398.62,-329.25 291.88,-329.25 291.88,-298.75 398.62,-298.75 398.62,-329.25"/>
<text text-anchor="start" x="299.88" y="-315.75" font-family="Helvetica,sans-Serif" font-size="10.00">mimic++/expectation</text>
<text text-anchor="middle" x="345.25" y="-304.5" font-family="Helvetica,sans-Serif" font-size="10.00">/Registry.hpp</text>
</a>
</g>
</g>
<!-- Node7&#45;&gt;Node10 -->
<g id="edge36_Node000007_Node000010" class="edge">
<title>Node7&#45;&gt;Node10</title>
<g id="a_edge36_Node000007_Node000010"><a xlink:title=" ">
<path fill="none" stroke="#63b8ff" d="M351.52,-408.83C349.89,-384.52 347.53,-349.06 346.21,-329.43"/>
<polygon fill="#63b8ff" stroke="#63b8ff" points="348.01,-408.81 352.17,-418.56 354.99,-408.35 348.01,-408.81"/>
</a>
</g>
</g>
<!-- Node8&#45;&gt;Node3 -->
<g id="edge35_Node000008_Node000003" class="edge">
<title>Node8&#45;&gt;Node3</title>
<g id="a_edge35_Node000008_Node000003"><a xlink:title=" ">
<path fill="none" stroke="#63b8ff" d="M605.31,-361.91C662.38,-346.49 740.25,-313.54 740.25,-248.5 740.25,-248.5 740.25,-248.5 740.25,-119.12 740.25,-32.92 616,-14.14 540.29,-10.7"/>
<polygon fill="#63b8ff" stroke="#63b8ff" points="604.49,-358.51 595.67,-364.38 606.23,-365.29 604.49,-358.51"/>
</a>
</g>
</g>
<!-- Node9 -->
<g id="Node000009" class="node">
<title>Node9</title>
<g id="a_Node000009"><a xlink:href="../../db/d83/_scoped_sequence_8hpp.html" target="_top" xlink:title=" ">
<polygon fill="white" stroke="#666666" points="671.12,-129.75 519.38,-129.75 519.38,-110.5 671.12,-110.5 671.12,-129.75"/>
<text text-anchor="middle" x="595.25" y="-116.25" font-family="Helvetica,sans-Serif" font-size="10.00">mimic++/ScopedSequence.hpp</text>
</a>
</g>
</g>
<!-- Node8&#45;&gt;Node9 -->
<g id="edge12_Node000008_Node000009" class="edge">
<title>Node8&#45;&gt;Node9</title>
<g id="a_edge12_Node000008_Node000009"><a xlink:title=" ">
<path fill="none" stroke="#63b8ff" d="M548.13,-353.62C550.88,-326.01 556.63,-275.08 565.25,-232.25 572.97,-193.85 586.46,-149.11 592.35,-130.25"/>
<polygon fill="#63b8ff" stroke="#63b8ff" points="544.67,-353.06 547.19,-363.35 551.63,-353.73 544.67,-353.06"/>
</a>
</g>
</g>
<!-- Node8&#45;&gt;Node10 -->
<g id="edge14_Node000008_Node000010" class="edge">
<title>Node8&#45;&gt;Node10</title>
<g id="a_edge14_Node000008_Node000010"><a xlink:title=" ">
<path fill="none" stroke="#63b8ff" d="M504.6,-361.68C472.88,-352.38 429.07,-339.55 395.42,-329.69"/>
<polygon fill="#63b8ff" stroke="#63b8ff" points="503.25,-364.93 513.83,-364.38 505.22,-358.21 503.25,-364.93"/>
</a>
</g>
</g>
<!-- Node17 -->
<g id="Node000017" class="node">
<title>Node17</title>
<g id="a_Node000017"><a xlink:href="../../db/d70/_control_policies_8hpp.html" target="_top" xlink:title=" ">
<polygon fill="white" stroke="#666666" points="712.38,-262.75 574.12,-262.75 574.12,-232.25 712.38,-232.25 712.38,-262.75"/>
<text text-anchor="start" x="582.12" y="-249.25" font-family="Helvetica,sans-Serif" font-size="10.00">mimic++/expectation</text>
<text text-anchor="middle" x="643.25" y="-238" font-family="Helvetica,sans-Serif" font-size="10.00">/policies/ControlPolicies.hpp</text>
</a>
</g>
</g>
<!-- Node8&#45;&gt;Node17 -->
<g id="edge32_Node000008_Node000017" class="edge">
<title>Node8&#45;&gt;Node17</title>
<g id="a_edge32_Node000008_Node000017"><a xlink:title=" ">
<path fill="none" stroke="#63b8ff" d="M560.03,-356.07C579.35,-331.09 614.14,-286.13 632,-263.05"/>
<polygon fill="#63b8ff" stroke="#63b8ff" points="557.5,-353.61 554.15,-363.66 563.04,-357.89 557.5,-353.61"/>
</a>
</g>
</g>
<!-- Node9&#45;&gt;Node3 -->
<g id="edge13_Node000009_Node000003" class="edge">
<title>Node9&#45;&gt;Node3</title>
<g id="a_edge13_Node000009_Node000003"><a xlink:title=" ">
<path fill="none" stroke="#63b8ff" d="M616.1,-102.63C630.3,-89.36 644.62,-70.5 633.25,-55.25 611.97,-26.72 573.19,-15.7 540.39,-11.75"/>
<polygon fill="#63b8ff" stroke="#63b8ff" points="613.91,-99.89 608.65,-109.09 618.5,-105.18 613.91,-99.89"/>
</a>
</g>
</g>
<!-- Node10&#45;&gt;Node3 -->
<g id="edge31_Node000010_Node000003" class="edge">
<title>Node10&#45;&gt;Node3</title>
<g id="a_edge31_Node000010_Node000003"><a xlink:title=" ">
<path fill="none" stroke="#63b8ff" d="M289.73,-294.2C242.84,-274.38 183.25,-238.16 183.25,-182 183.25,-182 183.25,-182 183.25,-119.12 183.25,-78.3 213.02,-74.05 249.25,-55.25 305.05,-26.29 377.08,-15.99 426.4,-12.4"/>
<polygon fill="#63b8ff" stroke="#63b8ff" points="288.14,-297.33 298.72,-297.84 290.77,-290.84 288.14,-297.33"/>
</a>
</g>
</g>
<!-- Node11 -->
<g id="Node000011" class="node">
<title>Node11</title>
<g id="a_Node000011"><a xlink:href="../../d5/dc5/_mock_8hpp.html" target="_top" xlink:title=" ">
<polygon fill="white" stroke="#666666" points="462.88,-129.75 363.62,-129.75 363.62,-110.5 462.88,-110.5 462.88,-129.75"/>
<text text-anchor="middle" x="413.25" y="-116.25" font-family="Helvetica,sans-Serif" font-size="10.00">mimic++/Mock.hpp</text>
</a>
</g>
</g>
<!-- Node10&#45;&gt;Node11 -->
<g id="edge15_Node000010_Node000011" class="edge">
<title>Node10&#45;&gt;Node11</title>
<g id="a_edge15_Node000010_Node000011"><a xlink:title=" ">
<path fill="none" stroke="#63b8ff" d="M307.01,-292.15C296.46,-284.39 286.26,-274.54 280.25,-262.75 260.67,-224.33 252.99,-200.7 278.25,-165.75 297.55,-139.04 333.44,-128.05 363.36,-123.65"/>
<polygon fill="#63b8ff" stroke="#63b8ff" points="304.79,-294.88 315.03,-297.59 308.72,-289.08 304.79,-294.88"/>
</a>
</g>
</g>
<!-- Node14 -->
<g id="Node000014" class="node">
<title>Node14</title>
<g id="a_Node000014"><a xlink:href="../../d6/d15/_builder_8hpp.html" target="_top" xlink:title=" ">
<polygon fill="white" stroke="#666666" points="518.62,-196.25 411.88,-196.25 411.88,-165.75 518.62,-165.75 518.62,-196.25"/>
<text text-anchor="start" x="419.88" y="-182.75" font-family="Helvetica,sans-Serif" font-size="10.00">mimic++/expectation</text>
<text text-anchor="middle" x="465.25" y="-171.5" font-family="Helvetica,sans-Serif" font-size="10.00">/Builder.hpp</text>
</a>
</g>
</g>
<!-- Node10&#45;&gt;Node14 -->
<g id="edge21_Node000010_Node000014" class="edge">
<title>Node10&#45;&gt;Node14</title>
<g id="a_edge21_Node000010_Node000014"><a xlink:title=" ">
<path fill="none" stroke="#63b8ff" d="M373.44,-291.12C383.59,-282.71 394.85,-272.72 404.25,-262.75 424.5,-241.28 444.44,-213.21 455.76,-196.45"/>
<polygon fill="#63b8ff" stroke="#63b8ff" points="371.25,-288.39 365.69,-297.41 375.67,-293.83 371.25,-288.39"/>
</a>
</g>
</g>
<!-- Node15 -->
<g id="Node000015" class="node">
<title>Node15</title>
<g id="a_Node000015"><a xlink:href="../../d4/d1e/_owner_8hpp.html" target="_top" xlink:title=" ">
<polygon fill="white" stroke="#666666" points="395.62,-262.75 288.88,-262.75 288.88,-232.25 395.62,-232.25 395.62,-262.75"/>
<text text-anchor="start" x="296.88" y="-249.25" font-family="Helvetica,sans-Serif" font-size="10.00">mimic++/expectation</text>
<text text-anchor="middle" x="342.25" y="-238" font-family="Helvetica,sans-Serif" font-size="10.00">/Owner.hpp</text>
</a>
</g>
</g>
<!-- Node10&#45;&gt;Node15 -->
<g id="edge25_Node000010_Node000015" class="edge">
<title>Node10&#45;&gt;Node15</title>
<g id="a_edge25_Node000010_Node000015"><a xlink:title=" ">
<path fill="none" stroke="#63b8ff" d="M344.04,-287.06C343.66,-278.89 343.26,-270.16 342.93,-263.08"/>
<polygon fill="#63b8ff" stroke="#63b8ff" points="340.54,-287.03 344.5,-296.85 347.53,-286.7 340.54,-287.03"/>
</a>
</g>
</g>
<!-- Node11&#45;&gt;Node3 -->
<g id="edge20_Node000011_Node000003" class="edge">
<title>Node11&#45;&gt;Node3</title>
<g id="a_edge20_Node000011_Node000003"><a xlink:title=" ">
<path fill="none" stroke="#63b8ff" d="M474.33,-108.45C510.51,-100.74 551.36,-89.12 562.25,-74.5 579.94,-50.73 540.39,-30.65 511.11,-19.65"/>
<polygon fill="#63b8ff" stroke="#63b8ff" points="473.86,-104.97 464.77,-110.41 475.27,-111.83 473.86,-104.97"/>
</a>
</g>
</g>
<!-- Node12 -->
<g id="Node000012" class="node">
<title>Node12</title>
<g id="a_Node000012"><a xlink:href="../../d6/dc3/_facade_8hpp.html" target="_top" xlink:title=" ">
<polygon fill="white" stroke="#666666" points="395,-74.5 287.5,-74.5 287.5,-55.25 395,-55.25 395,-74.5"/>
<text text-anchor="middle" x="341.25" y="-61" font-family="Helvetica,sans-Serif" font-size="10.00">mimic++/Facade.hpp</text>
</a>
</g>
</g>
<!-- Node11&#45;&gt;Node12 -->
<g id="edge16_Node000011_Node000012" class="edge">
<title>Node11&#45;&gt;Node12</title>
<g id="a_edge16_Node000011_Node000012"><a xlink:title=" ">
<path fill="none" stroke="#63b8ff" d="M392.08,-103.47C379.44,-94.12 363.84,-82.58 353.28,-74.77"/>
<polygon fill="#63b8ff" stroke="#63b8ff" points="389.7,-106.06 399.82,-109.19 393.86,-100.43 389.7,-106.06"/>
</a>
</g>
</g>
<!-- Node13 -->
<g id="Node000013" class="node">
<title>Node13</title>
<g id="a_Node000013"><a xlink:href="../../d5/d92/_object_watcher_8hpp.html" target="_top" xlink:title=" ">
<polygon fill="white" stroke="#666666" points="553.12,-74.5 413.38,-74.5 413.38,-55.25 553.12,-55.25 553.12,-74.5"/>
<text text-anchor="middle" x="483.25" y="-61" font-family="Helvetica,sans-Serif" font-size="10.00">mimic++/ObjectWatcher.hpp</text>
</a>
</g>
</g>
<!-- Node11&#45;&gt;Node13 -->
<g id="edge18_Node000011_Node000013" class="edge">
<title>Node11&#45;&gt;Node13</title>
<g id="a_edge18_Node000011_Node000013"><a xlink:title=" ">
<path fill="none" stroke="#63b8ff" d="M434.2,-103.19C446.42,-93.89 461.39,-82.51 471.55,-74.77"/>
<polygon fill="#63b8ff" stroke="#63b8ff" points="432.17,-100.34 426.33,-109.18 436.41,-105.91 432.17,-100.34"/>
</a>
</g>
</g>
<!-- Node12&#45;&gt;Node3 -->
<g id="edge17_Node000012_Node000003" class="edge">
<title>Node12&#45;&gt;Node3</title>
<g id="a_edge17_Node000012_Node000003"><a xlink:title=" ">
<path fill="none" stroke="#63b8ff" d="M375.79,-50.92C401.57,-41.25 436.16,-28.29 459.04,-19.7"/>
<polygon fill="#63b8ff" stroke="#63b8ff" points="374.89,-47.52 366.76,-54.31 377.35,-54.08 374.89,-47.52"/>
</a>
</g>
</g>
<!-- Node13&#45;&gt;Node3 -->
<g id="edge19_Node000013_Node000003" class="edge">
<title>Node13&#45;&gt;Node3</title>
<g id="a_edge19_Node000013_Node000003"><a xlink:title=" ">
<path fill="none" stroke="#63b8ff" d="M483.25,-43.63C483.25,-35.34 483.25,-26.17 483.25,-19.61"/>
<polygon fill="#63b8ff" stroke="#63b8ff" points="479.75,-43.57 483.25,-53.57 486.75,-43.57 479.75,-43.57"/>
</a>
</g>
</g>
<!-- Node14&#45;&gt;Node3 -->
<g id="edge24_Node000014_Node000003" class="edge">
<title>Node14&#45;&gt;Node3</title>
<g id="a_edge24_Node000014_Node000003"><a xlink:title=" ">
<path fill="none" stroke="#63b8ff" d="M477,-155.62C484.88,-141.16 496.35,-123.23 510.25,-110.5 535.47,-87.4 560.61,-103.8 578.25,-74.5 594.45,-47.6 554.46,-29.57 521.48,-19.71"/>
<polygon fill="#63b8ff" stroke="#63b8ff" points="474.11,-153.58 472.61,-164.07 480.32,-156.81 474.11,-153.58"/>
</a>
</g>
</g>
<!-- Node14&#45;&gt;Node9 -->
<g id="edge23_Node000014_Node000009" class="edge">
<title>Node14&#45;&gt;Node9</title>
<g id="a_edge23_Node000014_Node000009"><a xlink:title=" ">
<path fill="none" stroke="#63b8ff" d="M508.12,-160.58C530.77,-150.33 557.49,-138.22 575.31,-130.15"/>
<polygon fill="#63b8ff" stroke="#63b8ff" points="506.76,-157.36 499.1,-164.67 509.65,-163.73 506.76,-157.36"/>
</a>
</g>
</g>
<!-- Node14&#45;&gt;Node11 -->
<g id="edge22_Node000014_Node000011" class="edge">
<title>Node14&#45;&gt;Node11</title>
<g id="a_edge22_Node000014_Node000011"><a xlink:title=" ">
<path fill="none" stroke="#63b8ff" d="M444.84,-156.9C436.59,-147.55 427.55,-137.32 421.27,-130.2"/>
<polygon fill="#63b8ff" stroke="#63b8ff" points="442.15,-159.13 451.39,-164.31 447.4,-154.5 442.15,-159.13"/>
</a>
</g>
</g>
<!-- Node15&#45;&gt;Node3 -->
<g id="edge30_Node000015_Node000003" class="edge">
<title>Node15&#45;&gt;Node3</title>
<g id="a_edge30_Node000015_Node000003"><a xlink:title=" ">
<path fill="none" stroke="#63b8ff" d="M305.33,-225.48C294.87,-217.67 284.61,-207.84 278.25,-196.25 248,-141.11 226.51,-104 266.25,-55.25 286.09,-30.92 368.87,-19.47 426.25,-14.37"/>
<polygon fill="#63b8ff" stroke="#63b8ff" points="303.03,-228.14 313.24,-230.96 307.01,-222.39 303.03,-228.14"/>
</a>
</g>
</g>
<!-- Node15&#45;&gt;Node14 -->
<g id="edge26_Node000015_Node000014" class="edge">
<title>Node15&#45;&gt;Node14</title>
<g id="a_edge26_Node000015_Node000014"><a xlink:title=" ">
<path fill="none" stroke="#63b8ff" d="M380.31,-226.54C398.78,-216.86 420.57,-205.43 437.45,-196.58"/>
<polygon fill="#63b8ff" stroke="#63b8ff" points="378.73,-223.42 371.5,-231.16 381.98,-229.62 378.73,-223.42"/>
</a>
</g>
</g>
<!-- Node16 -->
<g id="Node000016" class="node">
<title>Node16</title>
<g id="a_Node000016"><a xlink:href="../../db/dd0/_collector_8hpp.html" target="_top" xlink:title=" ">
<polygon fill="white" stroke="#666666" points="393.62,-196.25 286.88,-196.25 286.88,-165.75 393.62,-165.75 393.62,-196.25"/>
<text text-anchor="start" x="294.88" y="-182.75" font-family="Helvetica,sans-Serif" font-size="10.00">mimic++/expectation</text>
<text text-anchor="middle" x="340.25" y="-171.5" font-family="Helvetica,sans-Serif" font-size="10.00">/Collector.hpp</text>
</a>
</g>
</g>
<!-- Node15&#45;&gt;Node16 -->
<g id="edge27_Node000015_Node000016" class="edge">
<title>Node15&#45;&gt;Node16</title>
<g id="a_edge27_Node000015_Node000016"><a xlink:title=" ">
<path fill="none" stroke="#63b8ff" d="M341.45,-220.56C341.19,-212.39 340.92,-203.66 340.7,-196.58"/>
<polygon fill="#63b8ff" stroke="#63b8ff" points="337.94,-220.46 341.75,-230.35 344.94,-220.25 337.94,-220.46"/>
</a>
</g>
</g>
<!-- Node16&#45;&gt;Node3 -->
<g id="edge29_Node000016_Node000003" class="edge">
<title>Node16&#45;&gt;Node3</title>
<g id="a_edge29_Node000016_Node000003"><a xlink:title=" ">
<path fill="none" stroke="#63b8ff" d="M314.62,-157.47C287.73,-131.11 252.65,-87.03 278.25,-55.25 296.53,-32.56 372.04,-20.8 426.1,-15.17"/>
<polygon fill="#63b8ff" stroke="#63b8ff" points="312.21,-160.01 321.88,-164.33 317.02,-154.92 312.21,-160.01"/>
</a>
</g>
</g>
<!-- Node16&#45;&gt;Node9 -->
<g id="edge28_Node000016_Node000009" class="edge">
<title>Node16&#45;&gt;Node9</title>
<g id="a_edge28_Node000016_Node000009"><a xlink:title=" ">
<path fill="none" stroke="#63b8ff" d="M405.16,-165.01C452.8,-154.01 515.96,-139.43 556.11,-130.16"/>
<polygon fill="#63b8ff" stroke="#63b8ff" points="404.45,-161.59 395.49,-167.25 406.02,-168.41 404.45,-161.59"/>
</a>
</g>
</g>
<!-- Node17&#45;&gt;Node3 -->
<g id="edge34_Node000017_Node000003" class="edge">
<title>Node17&#45;&gt;Node3</title>
<g id="a_edge34_Node000017_Node000003"><a xlink:title=" ">
<path fill="none" stroke="#63b8ff" d="M653.66,-221.46C662.74,-198.18 675.22,-162.29 680.25,-129.75 685.73,-94.31 677.56,-77.27 649.25,-55.25 618.16,-31.07 574.99,-19.96 540.47,-14.87"/>
<polygon fill="#63b8ff" stroke="#63b8ff" points="650.43,-220.11 649.96,-230.7 656.93,-222.71 650.43,-220.11"/>
</a>
</g>
</g>
<!-- Node17&#45;&gt;Node14 -->
<g id="edge33_Node000017_Node000014" class="edge">
<title>Node17&#45;&gt;Node14</title>
<g id="a_edge33_Node000017_Node000014"><a xlink:title=" ">
<path fill="none" stroke="#63b8ff" d="M592.28,-228.03C564.83,-218.08 531.45,-205.99 505.79,-196.69"/>
<polygon fill="#63b8ff" stroke="#63b8ff" points="590.84,-231.23 601.44,-231.35 593.23,-224.65 590.84,-231.23"/>
</a>
</g>
</g>
</g>
</svg>

<g id="navigator" transform="translate(0 0)" fill="#404254">
  <rect fill="#f2f5e9" fill-opacity="0.5" stroke="#606060" stroke-width=".5" x="0" y="0" width="60" height="60"/>
  <use id="zoomplus" xlink:href="#zoomPlus" x="17" y="9" onmousedown="handleZoom(evt,'in')"/>
  <use id="zoomminus" xlink:href="#zoomMin" x="42" y="9" onmousedown="handleZoom(evt,'out')"/>
  <use id="reset" xlink:href="#resetDef" x="30" y="36" onmousedown="handleReset()"/>
   <use id="arrowup" xlink:href="#arrowUp" x="0" y="0" onmousedown="handlePan(0,-1)"/>
  <use id="arrowright" xlink:href="#arrowRight" x="0" y="0" onmousedown="handlePan(1,0)"/>
  <use id="arrowdown" xlink:href="#arrowDown" x="0" y="0" onmousedown="handlePan(0,1)"/>
  <use id="arrowleft" xlink:href="#arrowLeft" x="0" y="0" onmousedown="handlePan(-1,0)"/>
</g>
<svg viewBox="0 0 15 15" width="100%" height="30px" preserveAspectRatio="xMaxYMin meet">
 <g id="arrow_out" transform="scale(0.3 0.3)">
  <a xlink:href="reporting_2_fwd_8hpp__dep__incl_org.svg" target="_base">
   <rect id="button" ry="5" rx="5" y="6" x="6" height="38" width="38"
        fill="#f2f5e9" fill-opacity="0.5" stroke="#606060" stroke-width="1.0"/>
   <path id="arrow"
     d="M 11.500037,31.436501 C 11.940474,20.09759 22.043105,11.32322 32.158766,21.979434 L 37.068811,17.246167 C 37.068811,17.246167 37.088388,32 37.088388,32 L 22.160133,31.978069 C 22.160133,31.978069 26.997745,27.140456 26.997745,27.140456 C 18.528582,18.264221 13.291696,25.230495 11.500037,31.436501 z"
     style="fill:#404040;"/>
  </a>
 </g>
</svg>

<style type='text/css'>
<![CDATA[
[data-mouse-over-selected='false'] { opacity: 0.7; }
[data-mouse-over-selected='true']  { opacity: 1.0; }
]]>
</style>
<script type="application/ecmascript"><![CDATA[
document.addEventListener('DOMContentLoaded', (event) => {
  highlightEdges();
  highlightAdjacentNodes();
});
]]></script>
</svg>
