<?xml version="1.0" encoding="UTF-8" standalone="no"?>
<!DOCTYPE svg PUBLIC "-//W3C//DTD SVG 1.1//EN"
 "http://www.w3.org/Graphics/SVG/1.1/DTD/svg11.dtd">
<!-- Generated by graphviz version 12.2.1 (20241206.2353)
 -->
<!-- Title: mimic++/reporting/GlobalReporter.hpp Pages: 1 -->
<svg width="701pt" height="459pt"
 viewBox="0.00 0.00 701.08 459.00" xmlns="http://www.w3.org/2000/svg" xmlns:xlink="http://www.w3.org/1999/xlink">
<g id="graph0" class="graph" transform="scale(1 1) rotate(0) translate(4 455)">
<title>mimic++/reporting/GlobalReporter.hpp</title>
<!-- Node1 -->
<g id="Node000001" class="node">
<title>Node1</title>
<g id="a_Node000001"><a xlink:title=" ">
<polygon fill="#999999" stroke="#666666" points="307,-451 181.5,-451 181.5,-420.5 307,-420.5 307,-451"/>
<text text-anchor="start" x="189.5" y="-437.5" font-family="Helvetica,sans-Serif" font-size="10.00">mimic++/reporting/Global</text>
<text text-anchor="middle" x="244.25" y="-426.25" font-family="Helvetica,sans-Serif" font-size="10.00">Reporter.hpp</text>
</a>
</g>
</g>
<!-- Node2 -->
<g id="Node000002" class="node">
<title>Node2</title>
<g id="a_Node000002"><a xlink:href="../../d7/deb/_reporting_8hpp.html" target="_top" xlink:title=" ">
<polygon fill="white" stroke="#666666" points="116.5,-323.62 0,-323.62 0,-304.38 116.5,-304.38 116.5,-323.62"/>
<text text-anchor="middle" x="58.25" y="-310.12" font-family="Helvetica,sans-Serif" font-size="10.00">mimic++/Reporting.hpp</text>
</a>
</g>
</g>
<!-- Node1&#45;&gt;Node2 -->
<g id="edge1_Node000001_Node000002" class="edge">
<title>Node1&#45;&gt;Node2</title>
<g id="a_edge1_Node000001_Node000002"><a xlink:title=" ">
<path fill="none" stroke="#63b8ff" d="M211.88,-413.91C170.78,-387.45 101.66,-342.94 72.21,-323.99"/>
<polygon fill="#63b8ff" stroke="#63b8ff" points="209.87,-416.78 220.17,-419.25 213.66,-410.89 209.87,-416.78"/>
</a>
</g>
</g>
<!-- Node4 -->
<g id="Node000004" class="node">
<title>Node4</title>
<g id="a_Node000004"><a xlink:href="../../d8/de4/_sequence_8hpp.html" target="_top" xlink:title=" ">
<polygon fill="white" stroke="#666666" points="303.62,-384.5 184.88,-384.5 184.88,-365.25 303.62,-365.25 303.62,-384.5"/>
<text text-anchor="middle" x="244.25" y="-371" font-family="Helvetica,sans-Serif" font-size="10.00">mimic++/Sequence.hpp</text>
</a>
</g>
</g>
<!-- Node1&#45;&gt;Node4 -->
<g id="edge3_Node000001_Node000004" class="edge">
<title>Node1&#45;&gt;Node4</title>
<g id="a_edge3_Node000001_Node000004"><a xlink:title=" ">
<path fill="none" stroke="#63b8ff" d="M244.25,-408.73C244.25,-400.23 244.25,-391.34 244.25,-384.95"/>
<polygon fill="#63b8ff" stroke="#63b8ff" points="240.75,-408.68 244.25,-418.68 247.75,-408.68 240.75,-408.68"/>
</a>
</g>
</g>
<!-- Node6 -->
<g id="Node000006" class="node">
<title>Node6</title>
<g id="a_Node000006"><a xlink:href="../../db/d5d/_registry_8hpp.html" target="_top" xlink:title=" ">
<polygon fill="white" stroke="#666666" points="410.62,-329.25 303.88,-329.25 303.88,-298.75 410.62,-298.75 410.62,-329.25"/>
<text text-anchor="start" x="311.88" y="-315.75" font-family="Helvetica,sans-Serif" font-size="10.00">mimic++/expectation</text>
<text text-anchor="middle" x="357.25" y="-304.5" font-family="Helvetica,sans-Serif" font-size="10.00">/Registry.hpp</text>
</a>
</g>
</g>
<!-- Node1&#45;&gt;Node6 -->
<g id="edge28_Node000001_Node000006" class="edge">
<title>Node1&#45;&gt;Node6</title>
<g id="a_edge28_Node000001_Node000006"><a xlink:title=" ">
<path fill="none" stroke="#63b8ff" d="M277.76,-413.62C289.42,-405.36 302.12,-395.28 312.25,-384.5 328.1,-367.64 341.81,-344.5 349.81,-329.64"/>
<polygon fill="#63b8ff" stroke="#63b8ff" points="275.8,-410.72 269.52,-419.25 279.75,-416.49 275.8,-410.72"/>
</a>
</g>
</g>
<!-- Node3 -->
<g id="Node000003" class="node">
<title>Node3</title>
<g id="a_Node000003"><a xlink:href="../../d0/db9/mimic_09_09_8hpp.html" target="_top" xlink:title=" ">
<polygon fill="white" stroke="#666666" points="473,-19.25 359.5,-19.25 359.5,0 473,0 473,-19.25"/>
<text text-anchor="middle" x="416.25" y="-5.75" font-family="Helvetica,sans-Serif" font-size="10.00">mimic++/mimic++.hpp</text>
</a>
</g>
</g>
<!-- Node2&#45;&gt;Node3 -->
<g id="edge2_Node000002_Node000003" class="edge">
<title>Node2&#45;&gt;Node3</title>
<g id="a_edge2_Node000002_Node000003"><a xlink:title=" ">
<path fill="none" stroke="#63b8ff" d="M64.22,-293.11C71.32,-267.62 82.25,-221.94 82.25,-182 82.25,-182 82.25,-182 82.25,-119.12 82.25,-83.61 99.8,-73.52 130.25,-55.25 167.84,-32.69 287.07,-20.15 359.18,-14.45"/>
<polygon fill="#63b8ff" stroke="#63b8ff" points="60.93,-291.86 61.52,-302.44 67.66,-293.81 60.93,-291.86"/>
</a>
</g>
</g>
<!-- Node4&#45;&gt;Node3 -->
<g id="edge27_Node000004_Node000003" class="edge">
<title>Node4&#45;&gt;Node3</title>
<g id="a_edge27_Node000004_Node000003"><a xlink:title=" ">
<path fill="none" stroke="#63b8ff" d="M220.19,-358.54C190.61,-337.59 144.25,-297.03 144.25,-248.5 144.25,-248.5 144.25,-248.5 144.25,-119.12 144.25,-83.88 161.5,-74.15 191.25,-55.25 242,-23 311.16,-13.27 359.36,-10.71"/>
<polygon fill="#63b8ff" stroke="#63b8ff" points="218.01,-361.29 228.24,-364.03 221.95,-355.51 218.01,-361.29"/>
</a>
</g>
</g>
<!-- Node5 -->
<g id="Node000005" class="node">
<title>Node5</title>
<g id="a_Node000005"><a xlink:href="../../db/d83/_scoped_sequence_8hpp.html" target="_top" xlink:title=" ">
<polygon fill="white" stroke="#666666" points="666.12,-129.75 514.38,-129.75 514.38,-110.5 666.12,-110.5 666.12,-129.75"/>
<text text-anchor="middle" x="590.25" y="-116.25" font-family="Helvetica,sans-Serif" font-size="10.00">mimic++/ScopedSequence.hpp</text>
</a>
</g>
</g>
<!-- Node4&#45;&gt;Node5 -->
<g id="edge4_Node000004_Node000005" class="edge">
<title>Node4&#45;&gt;Node5</title>
<g id="a_edge4_Node000004_Node000005"><a xlink:title=" ">
<path fill="none" stroke="#63b8ff" d="M315.07,-372.52C399.55,-367.03 539.7,-345.06 622.25,-262.75 653.55,-231.54 663.08,-205.74 644.25,-165.75 636.79,-149.91 620.64,-137.77 607.93,-130.18"/>
<polygon fill="#63b8ff" stroke="#63b8ff" points="315.07,-369.01 305.29,-373.09 315.48,-376 315.07,-369.01"/>
</a>
</g>
</g>
<!-- Node4&#45;&gt;Node6 -->
<g id="edge6_Node000004_Node000006" class="edge">
<title>Node4&#45;&gt;Node6</title>
<g id="a_edge6_Node000004_Node000006"><a xlink:title=" ">
<path fill="none" stroke="#63b8ff" d="M271.56,-359.65C289.07,-350.52 311.73,-338.71 329.36,-329.53"/>
<polygon fill="#63b8ff" stroke="#63b8ff" points="270.01,-356.51 262.75,-364.23 273.24,-362.72 270.01,-356.51"/>
</a>
</g>
</g>
<!-- Node13 -->
<g id="Node000013" class="node">
<title>Node13</title>
<g id="a_Node000013"><a xlink:href="../../db/d70/_control_policies_8hpp.html" target="_top" xlink:title=" ">
<polygon fill="white" stroke="#666666" points="310.38,-262.75 172.12,-262.75 172.12,-232.25 310.38,-232.25 310.38,-262.75"/>
<text text-anchor="start" x="180.12" y="-249.25" font-family="Helvetica,sans-Serif" font-size="10.00">mimic++/expectation</text>
<text text-anchor="middle" x="241.25" y="-238" font-family="Helvetica,sans-Serif" font-size="10.00">/policies/ControlPolicies.hpp</text>
</a>
</g>
</g>
<!-- Node4&#45;&gt;Node13 -->
<g id="edge24_Node000004_Node000013" class="edge">
<title>Node4&#45;&gt;Node13</title>
<g id="a_edge24_Node000004_Node000013"><a xlink:title=" ">
<path fill="none" stroke="#63b8ff" d="M243.77,-353.69C243.16,-328.32 242.13,-285.42 241.6,-263.05"/>
<polygon fill="#63b8ff" stroke="#63b8ff" points="240.26,-353.43 244,-363.35 247.26,-353.26 240.26,-353.43"/>
</a>
</g>
</g>
<!-- Node5&#45;&gt;Node3 -->
<g id="edge5_Node000005_Node000003" class="edge">
<title>Node5&#45;&gt;Node3</title>
<g id="a_edge5_Node000005_Node000003"><a xlink:title=" ">
<path fill="none" stroke="#63b8ff" d="M597.8,-99.45C601.7,-85.66 603.87,-67.58 594.25,-55.25 579.36,-36.16 519.4,-24.01 473.14,-17.28"/>
<polygon fill="#63b8ff" stroke="#63b8ff" points="594.54,-98.17 594.66,-108.76 601.17,-100.4 594.54,-98.17"/>
</a>
</g>
</g>
<!-- Node6&#45;&gt;Node3 -->
<g id="edge23_Node000006_Node000003" class="edge">
<title>Node6&#45;&gt;Node3</title>
<g id="a_edge23_Node000006_Node000003"><a xlink:title=" ">
<path fill="none" stroke="#63b8ff" d="M345.81,-288.19C338.36,-272.17 328.37,-250.91 319.25,-232.25 281.34,-154.69 186.19,-123.35 239.25,-55.25 254,-36.31 313.29,-24.16 359.22,-17.4"/>
<polygon fill="#63b8ff" stroke="#63b8ff" points="342.5,-289.38 349.88,-296.98 348.85,-286.43 342.5,-289.38"/>
</a>
</g>
</g>
<!-- Node7 -->
<g id="Node000007" class="node">
<title>Node7</title>
<g id="a_Node000007"><a xlink:href="../../d5/dc5/_mock_8hpp.html" target="_top" xlink:title=" ">
<polygon fill="white" stroke="#666666" points="457.88,-129.75 358.62,-129.75 358.62,-110.5 457.88,-110.5 457.88,-129.75"/>
<text text-anchor="middle" x="408.25" y="-116.25" font-family="Helvetica,sans-Serif" font-size="10.00">mimic++/Mock.hpp</text>
</a>
</g>
</g>
<!-- Node6&#45;&gt;Node7 -->
<g id="edge7_Node000006_Node000007" class="edge">
<title>Node6&#45;&gt;Node7</title>
<g id="a_edge7_Node000006_Node000007"><a xlink:title=" ">
<path fill="none" stroke="#63b8ff" d="M363.6,-287.39C370.96,-257.97 383.57,-208.26 395.25,-165.75 398.67,-153.3 402.89,-138.98 405.58,-129.99"/>
<polygon fill="#63b8ff" stroke="#63b8ff" points="360.27,-286.31 361.24,-296.86 367.06,-288.01 360.27,-286.31"/>
</a>
</g>
</g>
<!-- Node10 -->
<g id="Node000010" class="node">
<title>Node10</title>
<g id="a_Node000010"><a xlink:href="../../d6/d15/_builder_8hpp.html" target="_top" xlink:title=" ">
<polygon fill="white" stroke="#666666" points="510.62,-196.25 403.88,-196.25 403.88,-165.75 510.62,-165.75 510.62,-196.25"/>
<text text-anchor="start" x="411.88" y="-182.75" font-family="Helvetica,sans-Serif" font-size="10.00">mimic++/expectation</text>
<text text-anchor="middle" x="457.25" y="-171.5" font-family="Helvetica,sans-Serif" font-size="10.00">/Builder.hpp</text>
</a>
</g>
</g>
<!-- Node6&#45;&gt;Node10 -->
<g id="edge13_Node000006_Node000010" class="edge">
<title>Node6&#45;&gt;Node10</title>
<g id="a_edge13_Node000006_Node000010"><a xlink:title=" ">
<path fill="none" stroke="#63b8ff" d="M375.31,-289.34C395.91,-262.35 428.97,-219.05 446.12,-196.58"/>
<polygon fill="#63b8ff" stroke="#63b8ff" points="372.54,-287.2 369.25,-297.28 378.1,-291.45 372.54,-287.2"/>
</a>
</g>
</g>
<!-- Node11 -->
<g id="Node000011" class="node">
<title>Node11</title>
<g id="a_Node000011"><a xlink:href="../../d4/d1e/_owner_8hpp.html" target="_top" xlink:title=" ">
<polygon fill="white" stroke="#666666" points="613.62,-262.75 506.88,-262.75 506.88,-232.25 613.62,-232.25 613.62,-262.75"/>
<text text-anchor="start" x="514.88" y="-249.25" font-family="Helvetica,sans-Serif" font-size="10.00">mimic++/expectation</text>
<text text-anchor="middle" x="560.25" y="-238" font-family="Helvetica,sans-Serif" font-size="10.00">/Owner.hpp</text>
</a>
</g>
</g>
<!-- Node6&#45;&gt;Node11 -->
<g id="edge17_Node000006_Node000011" class="edge">
<title>Node6&#45;&gt;Node11</title>
<g id="a_edge17_Node000006_Node000011"><a xlink:title=" ">
<path fill="none" stroke="#63b8ff" d="M414.4,-294.84C445.92,-284.83 484.55,-272.55 514.13,-263.15"/>
<polygon fill="#63b8ff" stroke="#63b8ff" points="413.48,-291.46 405.01,-297.82 415.6,-298.13 413.48,-291.46"/>
</a>
</g>
</g>
<!-- Node7&#45;&gt;Node3 -->
<g id="edge12_Node000007_Node000003" class="edge">
<title>Node7&#45;&gt;Node3</title>
<g id="a_edge12_Node000007_Node000003"><a xlink:title=" ">
<path fill="none" stroke="#63b8ff" d="M409.75,-98.78C411.5,-75.05 414.31,-36.89 415.59,-19.63"/>
<polygon fill="#63b8ff" stroke="#63b8ff" points="406.26,-98.51 409.02,-108.74 413.24,-99.02 406.26,-98.51"/>
</a>
</g>
</g>
<!-- Node8 -->
<g id="Node000008" class="node">
<title>Node8</title>
<g id="a_Node000008"><a xlink:href="../../d6/dc3/_facade_8hpp.html" target="_top" xlink:title=" ">
<polygon fill="white" stroke="#666666" points="552,-74.5 444.5,-74.5 444.5,-55.25 552,-55.25 552,-74.5"/>
<text text-anchor="middle" x="498.25" y="-61" font-family="Helvetica,sans-Serif" font-size="10.00">mimic++/Facade.hpp</text>
</a>
</g>
</g>
<!-- Node7&#45;&gt;Node8 -->
<g id="edge8_Node000007_Node000008" class="edge">
<title>Node7&#45;&gt;Node8</title>
<g id="a_edge8_Node000007_Node000008"><a xlink:title=" ">
<path fill="none" stroke="#63b8ff" d="M433.27,-104.32C449.19,-94.9 469.31,-83 482.91,-74.95"/>
<polygon fill="#63b8ff" stroke="#63b8ff" points="431.64,-101.22 424.82,-109.32 435.21,-107.24 431.64,-101.22"/>
</a>
</g>
</g>
<!-- Node9 -->
<g id="Node000009" class="node">
<title>Node9</title>
<g id="a_Node000009"><a xlink:href="../../d5/d92/_object_watcher_8hpp.html" target="_top" xlink:title=" ">
<polygon fill="white" stroke="#666666" points="388.12,-74.5 248.38,-74.5 248.38,-55.25 388.12,-55.25 388.12,-74.5"/>
<text text-anchor="middle" x="318.25" y="-61" font-family="Helvetica,sans-Serif" font-size="10.00">mimic++/ObjectWatcher.hpp</text>
</a>
</g>
</g>
<!-- Node7&#45;&gt;Node9 -->
<g id="edge10_Node000007_Node000009" class="edge">
<title>Node7&#45;&gt;Node9</title>
<g id="a_edge10_Node000007_Node000009"><a xlink:title=" ">
<path fill="none" stroke="#63b8ff" d="M383.23,-104.32C367.31,-94.9 347.19,-83 333.59,-74.95"/>
<polygon fill="#63b8ff" stroke="#63b8ff" points="381.29,-107.24 391.68,-109.32 384.86,-101.22 381.29,-107.24"/>
</a>
</g>
</g>
<!-- Node8&#45;&gt;Node3 -->
<g id="edge9_Node000008_Node000003" class="edge">
<title>Node8&#45;&gt;Node3</title>
<g id="a_edge9_Node000008_Node000003"><a xlink:title=" ">
<path fill="none" stroke="#63b8ff" d="M475.04,-48.8C460.6,-39.42 442.5,-27.67 430.23,-19.7"/>
<polygon fill="#63b8ff" stroke="#63b8ff" points="472.78,-51.51 483.07,-54.02 476.59,-45.64 472.78,-51.51"/>
</a>
</g>
</g>
<!-- Node9&#45;&gt;Node3 -->
<g id="edge11_Node000009_Node000003" class="edge">
<title>Node9&#45;&gt;Node3</title>
<g id="a_edge11_Node000009_Node000003"><a xlink:title=" ">
<path fill="none" stroke="#63b8ff" d="M344.5,-49.61C361.99,-40.11 384.45,-27.9 399.54,-19.7"/>
<polygon fill="#63b8ff" stroke="#63b8ff" points="343.32,-46.27 336.2,-54.12 346.66,-52.42 343.32,-46.27"/>
</a>
</g>
</g>
<!-- Node10&#45;&gt;Node3 -->
<g id="edge16_Node000010_Node000003" class="edge">
<title>Node10&#45;&gt;Node3</title>
<g id="a_edge16_Node000010_Node000003"><a xlink:title=" ">
<path fill="none" stroke="#63b8ff" d="M470.66,-155.82C479.32,-141.57 491.51,-123.79 505.25,-110.5 530.38,-86.19 582.02,-83.37 561.25,-55.25 541.14,-28.02 504.69,-16.89 473.36,-12.55"/>
<polygon fill="#63b8ff" stroke="#63b8ff" points="467.81,-153.75 465.77,-164.15 473.85,-157.29 467.81,-153.75"/>
</a>
</g>
</g>
<!-- Node10&#45;&gt;Node5 -->
<g id="edge15_Node000010_Node000005" class="edge">
<title>Node10&#45;&gt;Node5</title>
<g id="a_edge15_Node000010_Node000005"><a xlink:title=" ">
<path fill="none" stroke="#63b8ff" d="M500.8,-160.72C524.04,-150.44 551.54,-138.26 569.85,-130.15"/>
<polygon fill="#63b8ff" stroke="#63b8ff" points="499.58,-157.43 491.85,-164.68 502.41,-163.84 499.58,-157.43"/>
</a>
</g>
</g>
<!-- Node10&#45;&gt;Node7 -->
<g id="edge14_Node000010_Node000007" class="edge">
<title>Node10&#45;&gt;Node7</title>
<g id="a_edge14_Node000010_Node000007"><a xlink:title=" ">
<path fill="none" stroke="#63b8ff" d="M437.78,-156.61C430.07,-147.34 421.67,-137.25 415.8,-130.2"/>
<polygon fill="#63b8ff" stroke="#63b8ff" points="435.08,-158.84 444.17,-164.28 440.46,-154.36 435.08,-158.84"/>
</a>
</g>
</g>
<!-- Node11&#45;&gt;Node3 -->
<g id="edge22_Node000011_Node000003" class="edge">
<title>Node11&#45;&gt;Node3</title>
<g id="a_edge22_Node000011_Node000003"><a xlink:title=" ">
<path fill="none" stroke="#63b8ff" d="M604.08,-226.58C647.76,-203.48 706.22,-161.9 690.25,-110.5 681.41,-82.04 677.22,-71.52 652.25,-55.25 623.39,-36.44 533.45,-23.32 473.31,-16.38"/>
<polygon fill="#63b8ff" stroke="#63b8ff" points="602.57,-223.43 595.25,-231.09 605.75,-229.66 602.57,-223.43"/>
</a>
</g>
</g>
<!-- Node11&#45;&gt;Node10 -->
<g id="edge18_Node000011_Node000010" class="edge">
<title>Node11&#45;&gt;Node10</title>
<g id="a_edge18_Node000011_Node000010"><a xlink:title=" ">
<path fill="none" stroke="#63b8ff" d="M527.3,-225.86C512.07,-216.33 494.34,-205.23 480.53,-196.58"/>
<polygon fill="#63b8ff" stroke="#63b8ff" points="525.26,-228.72 535.59,-231.06 528.98,-222.79 525.26,-228.72"/>
</a>
</g>
</g>
<!-- Node12 -->
<g id="Node000012" class="node">
<title>Node12</title>
<g id="a_Node000012"><a xlink:href="../../db/dd0/_collector_8hpp.html" target="_top" xlink:title=" ">
<polygon fill="white" stroke="#666666" points="635.62,-196.25 528.88,-196.25 528.88,-165.75 635.62,-165.75 635.62,-196.25"/>
<text text-anchor="start" x="536.88" y="-182.75" font-family="Helvetica,sans-Serif" font-size="10.00">mimic++/expectation</text>
<text text-anchor="middle" x="582.25" y="-171.5" font-family="Helvetica,sans-Serif" font-size="10.00">/Collector.hpp</text>
</a>
</g>
</g>
<!-- Node11&#45;&gt;Node12 -->
<g id="edge19_Node000011_Node000012" class="edge">
<title>Node11&#45;&gt;Node12</title>
<g id="a_edge19_Node000011_Node000012"><a xlink:title=" ">
<path fill="none" stroke="#63b8ff" d="M568.9,-221.13C571.75,-212.8 574.81,-203.83 577.28,-196.58"/>
<polygon fill="#63b8ff" stroke="#63b8ff" points="565.65,-219.84 565.73,-230.43 572.27,-222.1 565.65,-219.84"/>
</a>
</g>
</g>
<!-- Node12&#45;&gt;Node3 -->
<g id="edge21_Node000012_Node000003" class="edge">
<title>Node12&#45;&gt;Node3</title>
<g id="a_edge21_Node000012_Node000003"><a xlink:title=" ">
<path fill="none" stroke="#63b8ff" d="M641.44,-160.71C665.41,-149.22 685.34,-132.55 675.25,-110.5 641.25,-36.23 538.73,-16.52 473.33,-11.69"/>
<polygon fill="#63b8ff" stroke="#63b8ff" points="640.12,-157.46 632.38,-164.7 642.95,-163.87 640.12,-157.46"/>
</a>
</g>
</g>
<!-- Node12&#45;&gt;Node5 -->
<g id="edge20_Node000012_Node000005" class="edge">
<title>Node12&#45;&gt;Node5</title>
<g id="a_edge20_Node000012_Node000005"><a xlink:title=" ">
<path fill="none" stroke="#63b8ff" d="M585.75,-154.28C586.91,-145.68 588.14,-136.66 589.02,-130.2"/>
<polygon fill="#63b8ff" stroke="#63b8ff" points="582.31,-153.57 584.43,-163.95 589.25,-154.51 582.31,-153.57"/>
</a>
</g>
</g>
<!-- Node13&#45;&gt;Node3 -->
<g id="edge26_Node000013_Node000003" class="edge">
<title>Node13&#45;&gt;Node3</title>
<g id="a_edge26_Node000013_Node000003"><a xlink:title=" ">
<path fill="none" stroke="#63b8ff" d="M225.78,-222.04C202.92,-182.46 166.85,-103.91 206.25,-55.25 225.16,-31.9 303.57,-20.26 359.02,-14.84"/>
<polygon fill="#63b8ff" stroke="#63b8ff" points="222.76,-223.8 230.89,-230.59 228.77,-220.21 222.76,-223.8"/>
</a>
</g>
</g>
<!-- Node13&#45;&gt;Node10 -->
<g id="edge25_Node000013_Node000010" class="edge">
<title>Node13&#45;&gt;Node10</title>
<g id="a_edge25_Node000013_Node000010"><a xlink:title=" ">
<path fill="none" stroke="#63b8ff" d="M301.18,-228.6C334.88,-218.54 376.43,-206.14 408.18,-196.65"/>
<polygon fill="#63b8ff" stroke="#63b8ff" points="300.56,-225.14 291.98,-231.35 302.57,-231.84 300.56,-225.14"/>
</a>
</g>
</g>
</g>
</svg>
