<?xml version="1.0" encoding="UTF-8" standalone="no"?>
<!DOCTYPE svg PUBLIC "-//W3C//DTD SVG 1.1//EN"
 "http://www.w3.org/Graphics/SVG/1.1/DTD/svg11.dtd">
<!-- Generated by graphviz version 12.2.1 (20241206.2353)
 -->
<!-- Title: mimic++/reporting/GlobalReporter.hpp Pages: 1 -->
<svg width="620pt" height="381pt"
 viewBox="0.00 0.00 619.52 381.25" xmlns="http://www.w3.org/2000/svg" xmlns:xlink="http://www.w3.org/1999/xlink">
<g id="graph0" class="graph" transform="scale(1 1) rotate(0) translate(4 377.25)">
<title>mimic++/reporting/GlobalReporter.hpp</title>
<!-- Node1 -->
<g id="Node000001" class="node">
<title>Node1</title>
<g id="a_Node000001"><a xlink:title=" ">
<polygon fill="#999999" stroke="#666666" points="402,-373.25 276.5,-373.25 276.5,-342.75 402,-342.75 402,-373.25"/>
<text text-anchor="start" x="284.5" y="-359.75" font-family="Helvetica,sans-Serif" font-size="10.00">mimic++/reporting/Global</text>
<text text-anchor="middle" x="339.25" y="-348.5" font-family="Helvetica,sans-Serif" font-size="10.00">Reporter.hpp</text>
</a>
</g>
</g>
<!-- Node2 -->
<g id="Node000002" class="node">
<title>Node2</title>
<g id="a_Node000002"><a xlink:href="../../d5/d8a/_expectation_8hpp.html" target="_top" xlink:title=" ">
<polygon fill="white" stroke="#666666" points="402,-245.88 276.5,-245.88 276.5,-226.62 402,-226.62 402,-245.88"/>
<text text-anchor="middle" x="339.25" y="-232.38" font-family="Helvetica,sans-Serif" font-size="10.00">mimic++/Expectation.hpp</text>
</a>
</g>
</g>
<!-- Node1&#45;&gt;Node2 -->
<g id="edge1_Node000001_Node000002" class="edge">
<title>Node1&#45;&gt;Node2</title>
<g id="a_edge1_Node000001_Node000002"><a xlink:title=" ">
<path fill="none" stroke="#63b8ff" d="M339.25,-331.1C339.25,-304.34 339.25,-264.03 339.25,-246.24"/>
<polygon fill="#63b8ff" stroke="#63b8ff" points="335.75,-330.8 339.25,-340.8 342.75,-330.8 335.75,-330.8"/>
</a>
</g>
</g>
<!-- Node8 -->
<g id="Node000008" class="node">
<title>Node8</title>
<g id="a_Node000008"><a xlink:href="../../d7/deb/_reporting_8hpp.html" target="_top" xlink:title=" ">
<polygon fill="white" stroke="#666666" points="116.5,-185 0,-185 0,-165.75 116.5,-165.75 116.5,-185"/>
<text text-anchor="middle" x="58.25" y="-171.5" font-family="Helvetica,sans-Serif" font-size="10.00">mimic++/Reporting.hpp</text>
</a>
</g>
</g>
<!-- Node1&#45;&gt;Node8 -->
<g id="edge12_Node000001_Node000008" class="edge">
<title>Node1&#45;&gt;Node8</title>
<g id="a_edge12_Node000001_Node000008"><a xlink:title=" ">
<path fill="none" stroke="#63b8ff" d="M307.21,-336.4C246.16,-297.16 115.42,-213.12 72.34,-185.43"/>
<polygon fill="#63b8ff" stroke="#63b8ff" points="305.15,-339.24 315.46,-341.71 308.94,-333.35 305.15,-339.24"/>
</a>
</g>
</g>
<!-- Node9 -->
<g id="Node000009" class="node">
<title>Node9</title>
<g id="a_Node000009"><a xlink:href="../../d8/de4/_sequence_8hpp.html" target="_top" xlink:title=" ">
<polygon fill="white" stroke="#666666" points="489.62,-306.75 370.88,-306.75 370.88,-287.5 489.62,-287.5 489.62,-306.75"/>
<text text-anchor="middle" x="430.25" y="-293.25" font-family="Helvetica,sans-Serif" font-size="10.00">mimic++/Sequence.hpp</text>
</a>
</g>
</g>
<!-- Node1&#45;&gt;Node9 -->
<g id="edge14_Node000001_Node000009" class="edge">
<title>Node1&#45;&gt;Node9</title>
<g id="a_edge14_Node000001_Node000009"><a xlink:title=" ">
<path fill="none" stroke="#63b8ff" d="M370.98,-336.47C386.42,-326.48 404.2,-314.98 416.22,-307.2"/>
<polygon fill="#63b8ff" stroke="#63b8ff" points="369.51,-333.25 363.02,-341.62 373.31,-339.13 369.51,-333.25"/>
</a>
</g>
</g>
<!-- Node3 -->
<g id="Node000003" class="node">
<title>Node3</title>
<g id="a_Node000003"><a xlink:href="../../d2/d4f/_expectation_builder_8hpp.html" target="_top" xlink:title=" ">
<polygon fill="white" stroke="#666666" points="523,-185 367.5,-185 367.5,-165.75 523,-165.75 523,-185"/>
<text text-anchor="middle" x="445.25" y="-171.5" font-family="Helvetica,sans-Serif" font-size="10.00">mimic++/ExpectationBuilder.hpp</text>
</a>
</g>
</g>
<!-- Node2&#45;&gt;Node3 -->
<g id="edge2_Node000002_Node000003" class="edge">
<title>Node2&#45;&gt;Node3</title>
<g id="a_edge2_Node000002_Node000003"><a xlink:title=" ">
<path fill="none" stroke="#63b8ff" d="M365.32,-220.77C385.23,-209.71 412.05,-194.81 429,-185.4"/>
<polygon fill="#63b8ff" stroke="#63b8ff" points="363.71,-217.66 356.67,-225.57 367.11,-223.78 363.71,-217.66"/>
</a>
</g>
</g>
<!-- Node4 -->
<g id="Node000004" class="node">
<title>Node4</title>
<g id="a_Node000004"><a xlink:href="../../d5/dc5/_mock_8hpp.html" target="_top" xlink:title=" ">
<polygon fill="white" stroke="#666666" points="448.88,-129.75 349.62,-129.75 349.62,-110.5 448.88,-110.5 448.88,-129.75"/>
<text text-anchor="middle" x="399.25" y="-116.25" font-family="Helvetica,sans-Serif" font-size="10.00">mimic++/Mock.hpp</text>
</a>
</g>
</g>
<!-- Node2&#45;&gt;Node4 -->
<g id="edge10_Node000002_Node000004" class="edge">
<title>Node2&#45;&gt;Node4</title>
<g id="a_edge10_Node000002_Node000004"><a xlink:title=" ">
<path fill="none" stroke="#63b8ff" d="M342.16,-215.05C344.84,-200.64 349.73,-181.16 358.25,-165.75 366.09,-151.57 379.33,-138.3 388.64,-129.98"/>
<polygon fill="#63b8ff" stroke="#63b8ff" points="338.74,-214.25 340.58,-224.69 345.65,-215.38 338.74,-214.25"/>
</a>
</g>
</g>
<!-- Node6 -->
<g id="Node000006" class="node">
<title>Node6</title>
<g id="a_Node000006"><a xlink:href="../../d0/db9/mimic_09_09_8hpp.html" target="_top" xlink:title=" ">
<polygon fill="white" stroke="#666666" points="504,-19.25 390.5,-19.25 390.5,0 504,0 504,-19.25"/>
<text text-anchor="middle" x="447.25" y="-5.75" font-family="Helvetica,sans-Serif" font-size="10.00">mimic++/mimic++.hpp</text>
</a>
</g>
</g>
<!-- Node2&#45;&gt;Node6 -->
<g id="edge11_Node000002_Node000006" class="edge">
<title>Node2&#45;&gt;Node6</title>
<g id="a_edge11_Node000002_Node000006"><a xlink:title=" ">
<path fill="none" stroke="#63b8ff" d="M307.16,-221.66C242.46,-192.42 107.13,-120.88 163.25,-55.25 191.84,-21.82 315.68,-13.27 390.06,-11.19"/>
<polygon fill="#63b8ff" stroke="#63b8ff" points="305.68,-224.83 316.24,-225.68 308.52,-218.43 305.68,-224.83"/>
</a>
</g>
</g>
<!-- Node3&#45;&gt;Node4 -->
<g id="edge3_Node000003_Node000004" class="edge">
<title>Node3&#45;&gt;Node4</title>
<g id="a_edge3_Node000003_Node000004"><a xlink:title=" ">
<path fill="none" stroke="#63b8ff" d="M430.25,-157.01C422.49,-148.03 413.35,-137.45 407.01,-130.11"/>
<polygon fill="#63b8ff" stroke="#63b8ff" points="427.48,-159.16 436.66,-164.44 432.78,-154.58 427.48,-159.16"/>
</a>
</g>
</g>
<!-- Node3&#45;&gt;Node6 -->
<g id="edge9_Node000003_Node000006" class="edge">
<title>Node3&#45;&gt;Node6</title>
<g id="a_edge9_Node000003_Node000006"><a xlink:title=" ">
<path fill="none" stroke="#63b8ff" d="M457.46,-155.58C469.28,-136.18 486.39,-104.59 493.25,-74.5 495.15,-66.16 496.58,-63.13 493.25,-55.25 486.83,-40.08 472.46,-27.54 461.48,-19.65"/>
<polygon fill="#63b8ff" stroke="#63b8ff" points="454.55,-153.65 452.19,-163.98 460.47,-157.37 454.55,-153.65"/>
</a>
</g>
</g>
<!-- Node5 -->
<g id="Node000005" class="node">
<title>Node5</title>
<g id="a_Node000005"><a xlink:href="../../d9/dc3/_interface_mock_8hpp.html" target="_top" xlink:title=" ">
<polygon fill="white" stroke="#666666" points="468,-74.5 330.5,-74.5 330.5,-55.25 468,-55.25 468,-74.5"/>
<text text-anchor="middle" x="399.25" y="-61" font-family="Helvetica,sans-Serif" font-size="10.00">mimic++/InterfaceMock.hpp</text>
</a>
</g>
</g>
<!-- Node4&#45;&gt;Node5 -->
<g id="edge4_Node000004_Node000005" class="edge">
<title>Node4&#45;&gt;Node5</title>
<g id="a_edge4_Node000004_Node000005"><a xlink:title=" ">
<path fill="none" stroke="#63b8ff" d="M399.25,-98.88C399.25,-90.59 399.25,-81.42 399.25,-74.86"/>
<polygon fill="#63b8ff" stroke="#63b8ff" points="395.75,-98.82 399.25,-108.82 402.75,-98.82 395.75,-98.82"/>
</a>
</g>
</g>
<!-- Node4&#45;&gt;Node6 -->
<g id="edge8_Node000004_Node000006" class="edge">
<title>Node4&#45;&gt;Node6</title>
<g id="a_edge8_Node000004_Node000006"><a xlink:title=" ">
<path fill="none" stroke="#63b8ff" d="M440.23,-105.58C454.54,-98.65 469.06,-88.62 477.25,-74.5 488.19,-55.64 469.41,-32.12 456.96,-19.55"/>
<polygon fill="#63b8ff" stroke="#63b8ff" points="439.08,-102.26 431.33,-109.48 441.89,-108.67 439.08,-102.26"/>
</a>
</g>
</g>
<!-- Node7 -->
<g id="Node000007" class="node">
<title>Node7</title>
<g id="a_Node000007"><a xlink:href="../../d5/d92/_object_watcher_8hpp.html" target="_top" xlink:title=" ">
<polygon fill="white" stroke="#666666" points="312.12,-74.5 172.38,-74.5 172.38,-55.25 312.12,-55.25 312.12,-74.5"/>
<text text-anchor="middle" x="242.25" y="-61" font-family="Helvetica,sans-Serif" font-size="10.00">mimic++/ObjectWatcher.hpp</text>
</a>
</g>
</g>
<!-- Node4&#45;&gt;Node7 -->
<g id="edge6_Node000004_Node000007" class="edge">
<title>Node4&#45;&gt;Node7</title>
<g id="a_edge6_Node000004_Node000007"><a xlink:title=" ">
<path fill="none" stroke="#63b8ff" d="M361.82,-106.43C333.24,-96.74 294.55,-83.61 269.01,-74.95"/>
<polygon fill="#63b8ff" stroke="#63b8ff" points="360.59,-109.71 371.18,-109.61 362.84,-103.08 360.59,-109.71"/>
</a>
</g>
</g>
<!-- Node5&#45;&gt;Node6 -->
<g id="edge5_Node000005_Node000006" class="edge">
<title>Node5&#45;&gt;Node6</title>
<g id="a_edge5_Node000005_Node000006"><a xlink:title=" ">
<path fill="none" stroke="#63b8ff" d="M414.65,-46.79C422.8,-37.75 432.47,-27.02 439.15,-19.61"/>
<polygon fill="#63b8ff" stroke="#63b8ff" points="412.29,-44.19 408.19,-53.96 417.48,-48.87 412.29,-44.19"/>
</a>
</g>
</g>
<!-- Node7&#45;&gt;Node6 -->
<g id="edge7_Node000007_Node000006" class="edge">
<title>Node7&#45;&gt;Node6</title>
<g id="a_edge7_Node000007_Node000006"><a xlink:title=" ">
<path fill="none" stroke="#63b8ff" d="M287.69,-52.07C325.29,-42.3 377.93,-28.63 412.3,-19.7"/>
<polygon fill="#63b8ff" stroke="#63b8ff" points="287.29,-48.56 278.49,-54.46 289.05,-55.33 287.29,-48.56"/>
</a>
</g>
</g>
<!-- Node8&#45;&gt;Node6 -->
<g id="edge13_Node000008_Node000006" class="edge">
<title>Node8&#45;&gt;Node6</title>
<g id="a_edge13_Node000008_Node000006"><a xlink:title=" ">
<path fill="none" stroke="#63b8ff" d="M64.27,-154.43C73.62,-127.16 94.4,-78.92 130.25,-55.25 171.82,-27.81 310.59,-16.92 390.07,-12.85"/>
<polygon fill="#63b8ff" stroke="#63b8ff" points="60.96,-153.29 61.23,-163.88 67.62,-155.44 60.96,-153.29"/>
</a>
</g>
</g>
<!-- Node9&#45;&gt;Node2 -->
<g id="edge15_Node000009_Node000002" class="edge">
<title>Node9&#45;&gt;Node2</title>
<g id="a_edge15_Node000009_Node000002"><a xlink:title=" ">
<path fill="none" stroke="#63b8ff" d="M407.16,-281.18C390.14,-270.17 367.55,-255.56 353.2,-246.28"/>
<polygon fill="#63b8ff" stroke="#63b8ff" points="404.86,-283.87 415.16,-286.36 408.66,-277.99 404.86,-283.87"/>
</a>
</g>
</g>
<!-- Node9&#45;&gt;Node3 -->
<g id="edge16_Node000009_Node000003" class="edge">
<title>Node9&#45;&gt;Node3</title>
<g id="a_edge16_Node000009_Node000003"><a xlink:title=" ">
<path fill="none" stroke="#63b8ff" d="M432.79,-275.88C436.08,-249.55 441.71,-204.65 444.11,-185.48"/>
<polygon fill="#63b8ff" stroke="#63b8ff" points="429.34,-275.26 431.57,-285.62 436.28,-276.14 429.34,-275.26"/>
</a>
</g>
</g>
<!-- Node9&#45;&gt;Node6 -->
<g id="edge17_Node000009_Node000006" class="edge">
<title>Node9&#45;&gt;Node6</title>
<g id="a_edge17_Node000009_Node000006"><a xlink:title=" ">
<path fill="none" stroke="#63b8ff" d="M501.48,-292.18C532.87,-286.85 567.86,-275.42 591.25,-251.5 615.33,-226.87 610.25,-210.82 610.25,-176.38 610.25,-176.38 610.25,-176.38 610.25,-119.12 610.25,-61.5 538.79,-32.62 490.5,-19.68"/>
<polygon fill="#63b8ff" stroke="#63b8ff" points="500.97,-288.72 491.6,-293.66 502.01,-295.64 500.97,-288.72"/>
</a>
</g>
</g>
<!-- Node10 -->
<g id="Node000010" class="node">
<title>Node10</title>
<g id="a_Node000010"><a xlink:href="../../db/d70/_control_policies_8hpp.html" target="_top" xlink:title=" ">
<polygon fill="white" stroke="#666666" points="582.25,-251.5 458.25,-251.5 458.25,-221 582.25,-221 582.25,-251.5"/>
<text text-anchor="start" x="466.25" y="-238" font-family="Helvetica,sans-Serif" font-size="10.00">mimic++/policies/Control</text>
<text text-anchor="middle" x="520.25" y="-226.75" font-family="Helvetica,sans-Serif" font-size="10.00">Policies.hpp</text>
</a>
</g>
</g>
<!-- Node9&#45;&gt;Node10 -->
<g id="edge18_Node000009_Node000010" class="edge">
<title>Node9&#45;&gt;Node10</title>
<g id="a_edge18_Node000009_Node000010"><a xlink:title=" ">
<path fill="none" stroke="#63b8ff" d="M453.19,-281.12C466.96,-272.11 484.4,-260.7 498.04,-251.78"/>
<polygon fill="#63b8ff" stroke="#63b8ff" points="451.64,-277.95 445.19,-286.35 455.47,-283.81 451.64,-277.95"/>
</a>
</g>
</g>
<!-- Node10&#45;&gt;Node3 -->
<g id="edge19_Node000010_Node000003" class="edge">
<title>Node10&#45;&gt;Node3</title>
<g id="a_edge19_Node000010_Node000003"><a xlink:title=" ">
<path fill="none" stroke="#63b8ff" d="M493.01,-213.87C480.55,-204.08 466.44,-193.01 456.81,-185.45"/>
<polygon fill="#63b8ff" stroke="#63b8ff" points="490.49,-216.34 500.52,-219.76 494.82,-210.83 490.49,-216.34"/>
</a>
</g>
</g>
<!-- Node10&#45;&gt;Node6 -->
<g id="edge20_Node000010_Node000006" class="edge">
<title>Node10&#45;&gt;Node6</title>
<g id="a_edge20_Node000010_Node000006"><a xlink:title=" ">
<path fill="none" stroke="#63b8ff" d="M527.55,-209.8C529.48,-201.92 531.29,-193.16 532.25,-185 538.06,-135.66 508.56,-55.72 508.25,-55.25 497.95,-39.41 479.94,-27.27 466.15,-19.68"/>
<polygon fill="#63b8ff" stroke="#63b8ff" points="524.17,-208.87 525.01,-219.43 530.94,-210.66 524.17,-208.87"/>
</a>
</g>
</g>
</g>
</svg>
