<?xml version="1.0" encoding="UTF-8" standalone="no"?>
<!DOCTYPE svg PUBLIC "-//W3C//DTD SVG 1.1//EN"
 "http://www.w3.org/Graphics/SVG/1.1/DTD/svg11.dtd">
<!-- Generated by graphviz version 12.2.1 (20241206.2353)
 -->
<!-- Title: mimic++/reporting/GlobalReporter.hpp Pages: 1 -->
<svg width="669pt" height="381pt"
 viewBox="0.00 0.00 669.39 381.25" xmlns="http://www.w3.org/2000/svg" xmlns:xlink="http://www.w3.org/1999/xlink">
<g id="graph0" class="graph" transform="scale(1 1) rotate(0) translate(4 377.25)">
<title>mimic++/reporting/GlobalReporter.hpp</title>
<!-- Node1 -->
<g id="Node000001" class="node">
<title>Node1</title>
<g id="a_Node000001"><a xlink:title=" ">
<polygon fill="#999999" stroke="#666666" points="399.89,-373.25 274.39,-373.25 274.39,-342.75 399.89,-342.75 399.89,-373.25"/>
<text text-anchor="start" x="282.39" y="-359.75" font-family="Helvetica,sans-Serif" font-size="10.00">mimic++/reporting/Global</text>
<text text-anchor="middle" x="337.14" y="-348.5" font-family="Helvetica,sans-Serif" font-size="10.00">Reporter.hpp</text>
</a>
</g>
</g>
<!-- Node2 -->
<g id="Node000002" class="node">
<title>Node2</title>
<g id="a_Node000002"><a xlink:href="../../d5/d8a/_expectation_8hpp.html" target="_top" xlink:title=" ">
<polygon fill="white" stroke="#666666" points="263.89,-245.88 138.39,-245.88 138.39,-226.62 263.89,-226.62 263.89,-245.88"/>
<text text-anchor="middle" x="201.14" y="-232.38" font-family="Helvetica,sans-Serif" font-size="10.00">mimic++/Expectation.hpp</text>
</a>
</g>
</g>
<!-- Node1&#45;&gt;Node2 -->
<g id="edge1_Node000001_Node000002" class="edge">
<title>Node1&#45;&gt;Node2</title>
<g id="a_edge1_Node000001_Node000002"><a xlink:title=" ">
<path fill="none" stroke="#63b8ff" d="M306.46,-335.92C294.48,-327.29 280.85,-316.94 269.14,-306.75 245.97,-286.58 221.37,-259.96 209.09,-246.26"/>
<polygon fill="#63b8ff" stroke="#63b8ff" points="304.22,-338.63 314.4,-341.56 308.28,-332.92 304.22,-338.63"/>
</a>
</g>
</g>
<!-- Node9 -->
<g id="Node000009" class="node">
<title>Node9</title>
<g id="a_Node000009"><a xlink:href="../../d7/deb/_reporting_8hpp.html" target="_top" xlink:title=" ">
<polygon fill="white" stroke="#666666" points="661.39,-185 544.89,-185 544.89,-165.75 661.39,-165.75 661.39,-185"/>
<text text-anchor="middle" x="603.14" y="-171.5" font-family="Helvetica,sans-Serif" font-size="10.00">mimic++/Reporting.hpp</text>
</a>
</g>
</g>
<!-- Node1&#45;&gt;Node9 -->
<g id="edge15_Node000001_Node000009" class="edge">
<title>Node1&#45;&gt;Node9</title>
<g id="a_edge15_Node000001_Node000009"><a xlink:title=" ">
<path fill="none" stroke="#63b8ff" d="M381.74,-337.59C422.65,-318.7 483.88,-287.61 531.14,-251.5 558.13,-230.88 584.31,-200.03 596.31,-185.1"/>
<polygon fill="#63b8ff" stroke="#63b8ff" points="380.31,-334.39 372.67,-341.73 383.22,-340.76 380.31,-334.39"/>
</a>
</g>
</g>
<!-- Node10 -->
<g id="Node000010" class="node">
<title>Node10</title>
<g id="a_Node000010"><a xlink:href="../../d8/de4/_sequence_8hpp.html" target="_top" xlink:title=" ">
<polygon fill="white" stroke="#666666" points="396.51,-306.75 277.76,-306.75 277.76,-287.5 396.51,-287.5 396.51,-306.75"/>
<text text-anchor="middle" x="337.14" y="-293.25" font-family="Helvetica,sans-Serif" font-size="10.00">mimic++/Sequence.hpp</text>
</a>
</g>
</g>
<!-- Node1&#45;&gt;Node10 -->
<g id="edge17_Node000001_Node000010" class="edge">
<title>Node1&#45;&gt;Node10</title>
<g id="a_edge17_Node000001_Node000010"><a xlink:title=" ">
<path fill="none" stroke="#63b8ff" d="M337.14,-330.98C337.14,-322.48 337.14,-313.59 337.14,-307.2"/>
<polygon fill="#63b8ff" stroke="#63b8ff" points="333.64,-330.93 337.14,-340.93 340.64,-330.93 333.64,-330.93"/>
</a>
</g>
</g>
<!-- Node3 -->
<g id="Node000003" class="node">
<title>Node3</title>
<g id="a_Node000003"><a xlink:href="../../d2/d4f/_expectation_builder_8hpp.html" target="_top" xlink:title=" ">
<polygon fill="white" stroke="#666666" points="376.89,-185 221.39,-185 221.39,-165.75 376.89,-165.75 376.89,-185"/>
<text text-anchor="middle" x="299.14" y="-171.5" font-family="Helvetica,sans-Serif" font-size="10.00">mimic++/ExpectationBuilder.hpp</text>
</a>
</g>
</g>
<!-- Node2&#45;&gt;Node3 -->
<g id="edge2_Node000002_Node000003" class="edge">
<title>Node2&#45;&gt;Node3</title>
<g id="a_edge2_Node000002_Node000003"><a xlink:title=" ">
<path fill="none" stroke="#63b8ff" d="M225.75,-220.46C244.11,-209.44 268.59,-194.73 284.12,-185.4"/>
<polygon fill="#63b8ff" stroke="#63b8ff" points="224.09,-217.38 217.32,-225.53 227.7,-223.38 224.09,-217.38"/>
</a>
</g>
</g>
<!-- Node4 -->
<g id="Node000004" class="node">
<title>Node4</title>
<g id="a_Node000004"><a xlink:href="../../d5/dc5/_mock_8hpp.html" target="_top" xlink:title=" ">
<polygon fill="white" stroke="#666666" points="224.76,-129.75 125.51,-129.75 125.51,-110.5 224.76,-110.5 224.76,-129.75"/>
<text text-anchor="middle" x="175.14" y="-116.25" font-family="Helvetica,sans-Serif" font-size="10.00">mimic++/Mock.hpp</text>
</a>
</g>
</g>
<!-- Node2&#45;&gt;Node4 -->
<g id="edge12_Node000002_Node000004" class="edge">
<title>Node2&#45;&gt;Node4</title>
<g id="a_edge12_Node000002_Node000004"><a xlink:title=" ">
<path fill="none" stroke="#63b8ff" d="M190.85,-216.07C186.44,-206.93 181.72,-195.67 179.14,-185 174.48,-165.78 174.37,-142.41 174.73,-129.95"/>
<polygon fill="#63b8ff" stroke="#63b8ff" points="187.73,-217.66 195.39,-224.98 193.97,-214.48 187.73,-217.66"/>
</a>
</g>
</g>
<!-- Node6 -->
<g id="Node000006" class="node">
<title>Node6</title>
<g id="a_Node000006"><a xlink:href="../../d0/db9/mimic_09_09_8hpp.html" target="_top" xlink:title=" ">
<polygon fill="white" stroke="#666666" points="441.89,-19.25 328.39,-19.25 328.39,0 441.89,0 441.89,-19.25"/>
<text text-anchor="middle" x="385.14" y="-5.75" font-family="Helvetica,sans-Serif" font-size="10.00">mimic++/mimic++.hpp</text>
</a>
</g>
</g>
<!-- Node2&#45;&gt;Node6 -->
<g id="edge14_Node000002_Node000006" class="edge">
<title>Node2&#45;&gt;Node6</title>
<g id="a_edge14_Node000002_Node000006"><a xlink:title=" ">
<path fill="none" stroke="#63b8ff" d="M167.49,-221.96C99.05,-193.11 -45.04,-121.97 14.14,-55.25 34.59,-32.2 229.05,-18.78 327.95,-13.4"/>
<polygon fill="#63b8ff" stroke="#63b8ff" points="165.8,-225.05 176.38,-225.64 168.48,-218.58 165.8,-225.05"/>
</a>
</g>
</g>
<!-- Node8 -->
<g id="Node000008" class="node">
<title>Node8</title>
<g id="a_Node000008"><a xlink:href="../../db/d83/_scoped_sequence_8hpp.html" target="_top" xlink:title=" ">
<polygon fill="white" stroke="#666666" points="395.01,-129.75 243.26,-129.75 243.26,-110.5 395.01,-110.5 395.01,-129.75"/>
<text text-anchor="middle" x="319.14" y="-116.25" font-family="Helvetica,sans-Serif" font-size="10.00">mimic++/ScopedSequence.hpp</text>
</a>
</g>
</g>
<!-- Node2&#45;&gt;Node8 -->
<g id="edge13_Node000002_Node000008" class="edge">
<title>Node2&#45;&gt;Node8</title>
<g id="a_edge13_Node000002_Node000008"><a xlink:title=" ">
<path fill="none" stroke="#63b8ff" d="M199.38,-215.33C199.11,-200.21 201.17,-179.7 212.14,-165.75 226.51,-147.48 249.69,-136.61 270.81,-130.18"/>
<polygon fill="#63b8ff" stroke="#63b8ff" points="195.86,-215.21 199.92,-225 202.85,-214.82 195.86,-215.21"/>
</a>
</g>
</g>
<!-- Node3&#45;&gt;Node4 -->
<g id="edge3_Node000003_Node000004" class="edge">
<title>Node3&#45;&gt;Node4</title>
<g id="a_edge3_Node000003_Node000004"><a xlink:title=" ">
<path fill="none" stroke="#63b8ff" d="M267.77,-160.9C245.39,-151.29 215.91,-138.63 196.28,-130.2"/>
<polygon fill="#63b8ff" stroke="#63b8ff" points="266.14,-164.01 276.71,-164.74 268.91,-157.58 266.14,-164.01"/>
</a>
</g>
</g>
<!-- Node3&#45;&gt;Node6 -->
<g id="edge11_Node000003_Node000006" class="edge">
<title>Node3&#45;&gt;Node6</title>
<g id="a_edge11_Node000003_Node000006"><a xlink:title=" ">
<path fill="none" stroke="#63b8ff" d="M360.87,-161.59C377.72,-154.97 394.09,-144.93 404.14,-129.75 427.48,-94.47 402.16,-40.7 390.44,-19.58"/>
<polygon fill="#63b8ff" stroke="#63b8ff" points="360.06,-158.17 351.79,-164.79 362.38,-164.77 360.06,-158.17"/>
</a>
</g>
</g>
<!-- Node3&#45;&gt;Node8 -->
<g id="edge9_Node000003_Node000008" class="edge">
<title>Node3&#45;&gt;Node8</title>
<g id="a_edge9_Node000003_Node000008"><a xlink:title=" ">
<path fill="none" stroke="#63b8ff" d="M306.42,-155C309.61,-146.49 313.21,-136.9 315.77,-130.11"/>
<polygon fill="#63b8ff" stroke="#63b8ff" points="303.21,-153.57 302.97,-164.16 309.77,-156.03 303.21,-153.57"/>
</a>
</g>
</g>
<!-- Node5 -->
<g id="Node000005" class="node">
<title>Node5</title>
<g id="a_Node000005"><a xlink:href="../../d9/dc3/_interface_mock_8hpp.html" target="_top" xlink:title=" ">
<polygon fill="white" stroke="#666666" points="356.89,-74.5 219.39,-74.5 219.39,-55.25 356.89,-55.25 356.89,-74.5"/>
<text text-anchor="middle" x="288.14" y="-61" font-family="Helvetica,sans-Serif" font-size="10.00">mimic++/InterfaceMock.hpp</text>
</a>
</g>
</g>
<!-- Node4&#45;&gt;Node5 -->
<g id="edge4_Node000004_Node000005" class="edge">
<title>Node4&#45;&gt;Node5</title>
<g id="a_edge4_Node000004_Node000005"><a xlink:title=" ">
<path fill="none" stroke="#63b8ff" d="M204.57,-105.26C224.85,-95.7 251.23,-83.27 268.88,-74.95"/>
<polygon fill="#63b8ff" stroke="#63b8ff" points="203.23,-102.02 195.68,-109.45 206.22,-108.35 203.23,-102.02"/>
</a>
</g>
</g>
<!-- Node4&#45;&gt;Node6 -->
<g id="edge8_Node000004_Node000006" class="edge">
<title>Node4&#45;&gt;Node6</title>
<g id="a_edge8_Node000004_Node000006"><a xlink:title=" ">
<path fill="none" stroke="#63b8ff" d="M181.14,-99.48C186.51,-85.16 195.78,-66.39 210.14,-55.25 243.84,-29.12 291.12,-18.16 328.04,-13.62"/>
<polygon fill="#63b8ff" stroke="#63b8ff" points="177.89,-98.16 178.01,-108.76 184.52,-100.4 177.89,-98.16"/>
</a>
</g>
</g>
<!-- Node7 -->
<g id="Node000007" class="node">
<title>Node7</title>
<g id="a_Node000007"><a xlink:href="../../d5/d92/_object_watcher_8hpp.html" target="_top" xlink:title=" ">
<polygon fill="white" stroke="#666666" points="163.01,-74.5 23.26,-74.5 23.26,-55.25 163.01,-55.25 163.01,-74.5"/>
<text text-anchor="middle" x="93.14" y="-61" font-family="Helvetica,sans-Serif" font-size="10.00">mimic++/ObjectWatcher.hpp</text>
</a>
</g>
</g>
<!-- Node4&#45;&gt;Node7 -->
<g id="edge6_Node000004_Node000007" class="edge">
<title>Node4&#45;&gt;Node7</title>
<g id="a_edge6_Node000004_Node000007"><a xlink:title=" ">
<path fill="none" stroke="#63b8ff" d="M151.93,-104.05C137.49,-94.67 119.39,-82.92 107.12,-74.95"/>
<polygon fill="#63b8ff" stroke="#63b8ff" points="149.67,-106.76 159.96,-109.27 153.48,-100.89 149.67,-106.76"/>
</a>
</g>
</g>
<!-- Node5&#45;&gt;Node6 -->
<g id="edge5_Node000005_Node000006" class="edge">
<title>Node5&#45;&gt;Node6</title>
<g id="a_edge5_Node000005_Node000006"><a xlink:title=" ">
<path fill="none" stroke="#63b8ff" d="M314.61,-49.34C331.85,-39.88 353.81,-27.83 368.6,-19.7"/>
<polygon fill="#63b8ff" stroke="#63b8ff" points="313,-46.23 305.92,-54.11 316.37,-52.37 313,-46.23"/>
</a>
</g>
</g>
<!-- Node7&#45;&gt;Node6 -->
<g id="edge7_Node000007_Node000006" class="edge">
<title>Node7&#45;&gt;Node6</title>
<g id="a_edge7_Node000007_Node000006"><a xlink:title=" ">
<path fill="none" stroke="#63b8ff" d="M154.11,-52.76C207.92,-42.94 285.37,-28.82 335.48,-19.68"/>
<polygon fill="#63b8ff" stroke="#63b8ff" points="153.7,-49.27 144.49,-54.51 154.96,-56.16 153.7,-49.27"/>
</a>
</g>
</g>
<!-- Node8&#45;&gt;Node6 -->
<g id="edge10_Node000008_Node000006" class="edge">
<title>Node8&#45;&gt;Node6</title>
<g id="a_edge10_Node000008_Node000006"><a xlink:title=" ">
<path fill="none" stroke="#63b8ff" d="M340.57,-103.01C349.59,-95.27 359.5,-85.32 366.14,-74.5 377.03,-56.75 382,-32.38 383.99,-19.48"/>
<polygon fill="#63b8ff" stroke="#63b8ff" points="338.41,-100.26 332.86,-109.28 342.83,-105.69 338.41,-100.26"/>
</a>
</g>
</g>
<!-- Node9&#45;&gt;Node6 -->
<g id="edge16_Node000009_Node000006" class="edge">
<title>Node9&#45;&gt;Node6</title>
<g id="a_edge16_Node000009_Node000006"><a xlink:title=" ">
<path fill="none" stroke="#63b8ff" d="M596.43,-154.81C586.36,-128.37 564.86,-81.52 531.14,-55.25 505.63,-35.38 471.28,-24.31 442.3,-18.17"/>
<polygon fill="#63b8ff" stroke="#63b8ff" points="593.04,-155.74 599.73,-163.95 599.62,-153.36 593.04,-155.74"/>
</a>
</g>
</g>
<!-- Node10&#45;&gt;Node2 -->
<g id="edge18_Node000010_Node000002" class="edge">
<title>Node10&#45;&gt;Node2</title>
<g id="a_edge18_Node000010_Node000002"><a xlink:title=" ">
<path fill="none" stroke="#63b8ff" d="M305.82,-282.57C280.05,-271.41 244.24,-255.91 221.89,-246.23"/>
<polygon fill="#63b8ff" stroke="#63b8ff" points="304.23,-285.69 314.8,-286.45 307.01,-279.27 304.23,-285.69"/>
</a>
</g>
</g>
<!-- Node10&#45;&gt;Node3 -->
<g id="edge19_Node000010_Node000003" class="edge">
<title>Node10&#45;&gt;Node3</title>
<g id="a_edge19_Node000010_Node000003"><a xlink:title=" ">
<path fill="none" stroke="#63b8ff" d="M330.83,-276.24C322.49,-249.96 308.14,-204.73 302.03,-185.48"/>
<polygon fill="#63b8ff" stroke="#63b8ff" points="327.47,-277.21 333.83,-285.68 334.14,-275.09 327.47,-277.21"/>
</a>
</g>
</g>
<!-- Node10&#45;&gt;Node6 -->
<g id="edge21_Node000010_Node000006" class="edge">
<title>Node10&#45;&gt;Node6</title>
<g id="a_edge21_Node000010_Node000006"><a xlink:title=" ">
<path fill="none" stroke="#63b8ff" d="M408.37,-292.18C439.76,-286.85 474.75,-275.42 498.14,-251.5 522.22,-226.87 517.14,-210.82 517.14,-176.38 517.14,-176.38 517.14,-176.38 517.14,-119.12 517.14,-65.88 452.24,-33.96 413.46,-19.64"/>
<polygon fill="#63b8ff" stroke="#63b8ff" points="407.86,-288.72 398.49,-293.66 408.9,-295.64 407.86,-288.72"/>
</a>
</g>
</g>
<!-- Node10&#45;&gt;Node8 -->
<g id="edge20_Node000010_Node000008" class="edge">
<title>Node10&#45;&gt;Node8</title>
<g id="a_edge20_Node000010_Node000008"><a xlink:title=" ">
<path fill="none" stroke="#63b8ff" d="M339.67,-276.37C342.25,-260.71 347.18,-238.59 356.14,-221 368.83,-196.1 399.33,-190.38 386.14,-165.75 377.1,-148.87 358.55,-137.28 343.25,-130.15"/>
<polygon fill="#63b8ff" stroke="#63b8ff" points="336.27,-275.45 338.29,-285.85 343.19,-276.46 336.27,-275.45"/>
</a>
</g>
</g>
<!-- Node11 -->
<g id="Node000011" class="node">
<title>Node11</title>
<g id="a_Node000011"><a xlink:href="../../db/d70/_control_policies_8hpp.html" target="_top" xlink:title=" ">
<polygon fill="white" stroke="#666666" points="489.14,-251.5 365.14,-251.5 365.14,-221 489.14,-221 489.14,-251.5"/>
<text text-anchor="start" x="373.14" y="-238" font-family="Helvetica,sans-Serif" font-size="10.00">mimic++/policies/Control</text>
<text text-anchor="middle" x="427.14" y="-226.75" font-family="Helvetica,sans-Serif" font-size="10.00">Policies.hpp</text>
</a>
</g>
</g>
<!-- Node10&#45;&gt;Node11 -->
<g id="edge22_Node000010_Node000011" class="edge">
<title>Node10&#45;&gt;Node11</title>
<g id="a_edge22_Node000010_Node000011"><a xlink:title=" ">
<path fill="none" stroke="#63b8ff" d="M360.08,-281.12C373.85,-272.11 391.29,-260.7 404.93,-251.78"/>
<polygon fill="#63b8ff" stroke="#63b8ff" points="358.53,-277.95 352.08,-286.35 362.36,-283.81 358.53,-277.95"/>
</a>
</g>
</g>
<!-- Node11&#45;&gt;Node3 -->
<g id="edge23_Node000011_Node000003" class="edge">
<title>Node11&#45;&gt;Node3</title>
<g id="a_edge23_Node000011_Node000003"><a xlink:title=" ">
<path fill="none" stroke="#63b8ff" d="M384.93,-215.83C362.63,-205.58 336.32,-193.47 318.77,-185.4"/>
<polygon fill="#63b8ff" stroke="#63b8ff" points="383.25,-218.91 393.8,-219.91 386.17,-212.55 383.25,-218.91"/>
</a>
</g>
</g>
<!-- Node11&#45;&gt;Node6 -->
<g id="edge24_Node000011_Node000006" class="edge">
<title>Node11&#45;&gt;Node6</title>
<g id="a_edge24_Node000011_Node000006"><a xlink:title=" ">
<path fill="none" stroke="#63b8ff" d="M431.78,-209.72C437.15,-173.88 442.93,-107.22 423.14,-55.25 417.64,-40.8 405.27,-27.77 396.13,-19.58"/>
<polygon fill="#63b8ff" stroke="#63b8ff" points="428.4,-208.7 430.25,-219.13 435.31,-209.82 428.4,-208.7"/>
</a>
</g>
</g>
</g>
</svg>
